<?xml version="1.0" encoding="UTF-8"?>
<svg id="Layer_2" data-name="Layer 2" xmlns="http://www.w3.org/2000/svg" viewBox="0 0 25.51 17.01">
  <defs>
    <style>
      .cls-1 {
        fill: #026735;
      }

      .cls-2 {
        fill: #fff;
      }

      .cls-3 {
        fill: #d31f36;
      }
    </style>
  </defs>
  <g id="Layer_1-2" data-name="Layer 1">
    <g>
      <path class="cls-2" d="M0,0h25.51v17.01H0V0Z"/>
      <path class="cls-1" d="M0,0h12.76v17.01H0V0Z"/>
      <path class="cls-3" d="M16.44,6.38c-1.17-2.03-3.77-2.73-5.81-1.56s-2.73,3.77-1.56,5.81,3.77,2.73,5.81,1.56c.65-.37,1.18-.91,1.56-1.56-1.17,1.47-3.31,1.7-4.78.53-1.47-1.17-1.7-3.31-.53-4.78s3.31-1.7,4.78-.53c.2.16.37.33.53.53M16.6,8.5l-3.85-1.25,2.38,3.27v-4.04l-2.38,3.27,3.85-1.25Z"/>
    </g>
  </g>
</svg>