<?xml version="1.0" encoding="UTF-8"?>
<svg id="Layer_2" data-name="Layer 2" xmlns="http://www.w3.org/2000/svg" viewBox="0 0 25.51 17.01">
  <defs>
    <style>
      .cls-1 {
        fill: #ffcc04;
        fill-rule: evenodd;
      }

      .cls-2 {
        fill: #cd2031;
      }

      .cls-3 {
        fill: #010101;
      }
    </style>
  </defs>
  <g id="Layer_1-2" data-name="Layer 1">
    <g>
      <path class="cls-3" d="M0,0h25.51v17.01H0V0Z"/>
      <path class="cls-2" d="M0,0h25.51v8.5H0V0Z"/>
      <path class="cls-1" d="M11.08,5.83h1.04l.31-.98.32.98h1.04l-.83.62.32,1-.85-.6-.84.6.32-1-.83-.62Z"/>
      <path class="cls-1" d="M14.88,11.19l-.82-.64c.83-.67,1.36-1.7,1.36-2.85,0-1.75-1.25-3.23-2.9-3.58l.13-.6c.23.05.5.15.72.22l.21-.36c.23.11.49.22.7.36l-.16.38c.21.14.47.35.61.51l.32-.25c.17.19.37.38.52.59l-.29.3c.19.27.26.4.4.72l.41-.1c.08.24.19.53.24.78l-.38.15c.05.19.11.53.1.81,0,.02,0,.04,0,.05l.4.06c-.02.25-.03.53-.08.77h-.42c-.06.26-.14.57-.23.81l.35.2c-.11.22-.22.49-.37.7l-.38-.16c-.14.21-.31.42-.49.6l.25.32c-.07.06-.13.12-.2.19M13.08,11.11l.62.37c-.06.05-.23.14-.28.16l.1.39c-.24.08-.49.19-.76.24l-.15-.38c-.25.05-.49.09-.75.09l-.05.4c-.24-.02-.53,0-.79-.06v-.4c-.24-.04-.47-.1-.69-.18l-.2.35c-.2-.09-.48-.19-.7-.32l.14-.38c-.18-.09-.34-.21-.49-.33l.38-.49c.63.5,1.42.8,2.29.8.46,0,.91-.08,1.32-.25"/>
      <path class="cls-1" d="M15.65,12.1l-4.07-3.1-.04.05,4.06,3.11-.24.3-3.96-2.54c-1.07-.67-1.03-1.2-.81-1.77l.19-.46c.1.6.71,1.05,1.35,1.55l3.6,2.76-.08.1ZM16.68,13.02s-.06-.03-.06-.06h0s.03-.06.06-.06h0s.06.03.06.06c0,.04-.03.06-.06.06h0M16.43,12.84s-.06-.03-.06-.06c0-.04.03-.06.06-.06.04,0,.06.03.06.06,0,.04-.03.06-.06.06h0M16.18,12.65s-.06-.03-.06-.06c0-.03.03-.06.07-.06.03,0,.06.03.06.06,0,.03-.03.06-.06.06M17.02,13l-1.22-.95-.35.46,1.06.74c.09.06.09.33.41.37.13.02.21-.08.21-.08.14-.17.1-.4-.11-.55"/>
    </g>
  </g>
</svg>