<?xml version="1.0" encoding="UTF-8"?>
<svg id="Layer_2" data-name="Layer 2" xmlns="http://www.w3.org/2000/svg" xmlns:xlink="http://www.w3.org/1999/xlink" viewBox="0 0 33.45 22.71">
  <defs>
    <style>
      .cls-1 {
        fill: #44b049;
      }

      .cls-2 {
        fill: #fff;
      }

      .cls-3 {
        fill: none;
      }

      .cls-4 {
        fill: #c8202f;
      }

      .cls-5 {
        clip-path: url(#clippath);
      }
    </style>
    <clipPath id="clippath">
      <rect class="cls-3" x="2.55" y="2.85" width="28.35" height="17.01"/>
    </clipPath>
  </defs>
  <g id="Layer_1-2" data-name="Layer 1">
    <g>
      <path class="cls-4" d="M2.55,2.85h28.35v17.01H2.55V2.85Z"/>
      <g class="cls-5">
        <g>
          <path class="cls-1" d="M1.13,2v18.71L32.31,2v18.71L1.13,2Z"/>
          <path class="cls-2" d="M33.45,22.71l-16.72-10.03L0,22.71V0l16.72,10.03L33.45,0v22.71ZM18.93,11.36l12.25,7.35V4l-12.25,7.35ZM2.27,4v14.7l12.25-7.35L2.27,4Z"/>
        </g>
      </g>
      <circle class="cls-2" cx="16.72" cy="11.36" r="4.82"/>
      <g id="s">
        <path class="cls-4" d="M16.72,7.83l.3.52h.6l-.3.52.3.52h-.6l-.3.52-.3-.52h-.6l.3-.52-.3-.52h.6l.3-.52Z"/>
        <path class="cls-1" d="M16.72,10l-.33-.57h-.65l.33-.57-.33-.57h.65l.33-.57.33.57h.65l-.33.57.33.57h-.65l-.33.57ZM15.92,9.33h.54l.27.46.27-.46h.54l-.27-.47.02-.03.25-.44h-.54l-.02-.03-.25-.44-.27.46h-.54l.27.46-.27.47Z"/>
      </g>
      <g id="s-2" data-name="s">
        <path class="cls-4" d="M19.78,13.12h-.6s-.3.52-.3.52l-.3-.52h-.6s.3-.52.3-.52l-.3-.52h.6s.3-.52.3-.52l.3.52h.6s-.3.52-.3.52l.3.52Z"/>
        <path class="cls-1" d="M18.88,13.74l-.33-.57h-.65l.33-.57-.33-.57h.65l.33-.57.33.57h.65s-.33.57-.33.57l.33.57h-.65l-.33.57ZM18.08,13.07h.54l.27.46.27-.46h.54l-.27-.47.02-.03.25-.44h-.54s-.27-.46-.27-.46l-.27.46h-.54l.27.46-.27.47Z"/>
      </g>
      <g id="s-3" data-name="s">
        <path class="cls-4" d="M13.67,13.12l.3-.52-.3-.52h.6s.3-.52.3-.52l.3.52h.6s-.3.52-.3.52l.3.52h-.6s-.3.52-.3.52l-.3-.52h-.6Z"/>
        <path class="cls-1" d="M14.56,13.74l-.33-.57h-.65l.33-.57-.33-.57h.65s.33-.57.33-.57l.33.57h.65l-.33.57.33.57h-.65l-.33.57ZM13.76,13.07h.54l.27.46.27-.46h.54l-.27-.47.02-.03.25-.44h-.54l-.02-.03-.25-.44-.27.46h-.54s.27.47.27.47l-.27.47Z"/>
      </g>
    </g>
  </g>
</svg>