<?xml version="1.0" encoding="UTF-8"?>
<svg id="Layer_2" data-name="Layer 2" xmlns="http://www.w3.org/2000/svg" viewBox="0 0 28.91 17.01">
  <defs>
    <style>
      .cls-1 {
        fill: #21418c;
      }

      .cls-2 {
        fill: #cf2028;
      }

      .cls-3 {
        fill: #f7d119;
      }

      .cls-4 {
        fill: #fff;
      }
    </style>
  </defs>
  <g id="Layer_1-2" data-name="Layer 1">
    <g>
      <path class="cls-1" d="M0,0h28.91v17.01H0V0Z"/>
      <path class="cls-4" d="M0,8.5h28.91v4.25H0v-4.25Z"/>
      <path class="cls-2" d="M0,9.92h28.91v1.42H0v-1.42Z"/>
      <path class="cls-3" d="M10.84,5.63l.17.51h.54s-.44.32-.44.32l.17.51-.44-.32-.44.32.17-.51-.44-.32h.54s.17-.51.17-.51ZM8.34,6.44l.17.51h.54s-.44.32-.44.32l.17.51-.44-.32-.44.32.17-.51-.44-.32h.54s.17-.51.17-.51ZM13.34,6.44l.17.51h.54s-.44.32-.44.32l.17.51-.44-.32-.44.32.17-.51-.44-.32h.54s.17-.51.17-.51ZM6.8,8.54l.17.51h.54s-.44.32-.44.32l.17.51-.44-.32-.44.32.17-.51-.44-.32h.54s.17-.51.17-.51ZM14.89,8.54l.17.51h.54s-.44.32-.44.32l.17.51-.44-.32-.44.32.17-.51-.44-.32h.54s.17-.51.17-.51ZM6.8,11.37l.17.51h.54s-.44.32-.44.32l.17.51-.44-.32-.44.32.17-.51-.44-.32h.54s.17-.51.17-.51ZM14.89,11.37l.17.51h.54s-.44.32-.44.32l.17.51-.44-.32-.44.32.17-.51-.44-.32h.54s.17-.51.17-.51ZM8.34,13.32l.17.51h.54s-.44.32-.44.32l.17.51-.44-.32-.44.32.17-.51-.44-.32h.54s.17-.51.17-.51ZM13.34,13.32l.17.51h.54s-.44.32-.44.32l.17.51-.44-.32-.44.32.17-.51-.44-.32h.54s.17-.51.17-.51ZM10.84,14.14l.17.51h.54s-.44.32-.44.32l.17.51-.44-.32-.44.32.17-.51-.44-.32h.54s.17-.51.17-.51Z"/>
    </g>
  </g>
</svg>