<?xml version="1.0" encoding="UTF-8"?>
<svg id="Layer_2" data-name="Layer 2" xmlns="http://www.w3.org/2000/svg" xmlns:xlink="http://www.w3.org/1999/xlink" viewBox="0 0 25.51 17.01">
  <defs>
    <style>
      .cls-1 {
        fill: #ce2028;
      }

      .cls-2, .cls-3 {
        fill: #fff;
      }

      .cls-3, .cls-4 {
        fill-rule: evenodd;
      }

      .cls-5 {
        fill: none;
      }

      .cls-6, .cls-4 {
        fill: #be942d;
      }

      .cls-7 {
        fill: #010101;
      }

      .cls-8 {
        clip-path: url(#clippath);
      }
    </style>
    <clipPath id="clippath">
      <path class="cls-5" d="M13.52,7.6h-.02c-.17,0-.58-.09-.73-.22-.16.12-.57.22-.75.22,0,0-.02,0-.02,0v.12c.01.14.04.28.07.41.12.42.35.77.69,1.04.34-.27.57-.62.69-1.04.04-.13.06-.27.07-.41,0-.04,0-.08,0-.11h0Z"/>
    </clipPath>
  </defs>
  <g id="Layer_1-2" data-name="Layer 1">
    <g>
      <path class="cls-7" d="M0,0h25.51v17.01H0V0Z"/>
      <path class="cls-2" d="M0,0h25.51v11.34H0V0Z"/>
      <path class="cls-1" d="M0,0h25.51v5.67H0V0Z"/>
      <g>
        <g>
          <path class="cls-2" d="M12.78,8.57l1.94,1.8-.14-3.27c-.02-.5-.45-.38-.76-.2-.32.2-.68.2-1.06.07-.38.13-.74.13-1.06-.07-.31-.18-.74-.29-.76.2l-.14,3.27,1.99-1.8Z"/>
          <path class="cls-6" d="M10.79,10.38l.14-3.27c0-.16.06-.27.15-.32.05-.02.1-.04.15-.04.17,0,.37.1.46.15.29.19.65.21,1.06.07.41.14.77.12,1.06-.07.12-.07.43-.22.62-.12.09.05.14.16.15.32l.14,3.27-1.94-1.8-1.99,1.8ZM11.23,6.75c-.05,0-.11.01-.15.04-.09.05-.14.16-.15.32l-.14,3.27,1.99-1.8h0l1.94,1.8-.14-3.27c0-.16-.06-.27-.15-.32-.19-.1-.49.05-.61.12-.3.19-.65.21-1.06.07-.41.14-.77.12-1.06-.07-.09-.05-.29-.15-.46-.15Z"/>
        </g>
        <g id="C">
          <path class="cls-6" d="M11.15,6.99l-.13,3.18-.23.2.14-3.27c.07-.04.18-.11.22-.11h0ZM11.43,7.22l-.11,2.66-.23.23.14-3.08s.18.15.2.18h0ZM11.67,7.42l-.09,2.22-.18.18.11-2.53s.13.11.16.13h0ZM11.94,7.53l-.09,1.89-.18.15.09-2.11s.13.07.18.07h0ZM12.19,7.53l-.07,1.58-.18.18.07-1.74s.16,0,.18-.02h0Z"/>
        </g>
        <g id="C-2" data-name="C">
          <path class="cls-6" d="M14.36,6.99l.13,3.18.23.2-.14-3.27c-.07-.04-.18-.11-.22-.11h0ZM14.09,7.22l.11,2.66.23.23-.14-3.08s-.18.15-.2.18h0ZM13.84,7.42l.09,2.22.18.18-.11-2.53s-.13.11-.16.13h0ZM13.57,7.53l.09,1.89.18.15-.09-2.11s-.13.07-.18.07h0ZM13.32,7.53l.07,1.58.18.18-.07-1.74s-.16,0-.18-.02h0Z"/>
        </g>
        <g>
          <path class="cls-6" d="M12.85,8.93l.27,1.24-.09.09-.09-.07-.15-1.11.07,1.11-.09.11-.09-.11.07-1.11-.15,1.11-.09.07-.09-.09.27-1.24h.18,0Z"/>
          <path class="cls-6" d="M12.76,10.31l-.09-.11.06-1.11-.06,1.11.09.11.09-.11-.07-1.11.07,1.11-.09.11ZM12.48,10.26l-.09-.09.27-1.24h.18s0,0,0,0l.27,1.24-.09.09-.09-.07-.16-1.11.16,1.11.09.07.09-.09-.27-1.24h-.18l-.27,1.24.09.09.09-.07.15-1.11-.15,1.11-.09.07Z"/>
        </g>
        <g id="D">
          <g>
            <path class="cls-2" d="M12.15,8.39l-.54,1.92.74.11.32-1.44-.52-.59h0Z"/>
            <path class="cls-6" d="M12.35,10.42l-.75-.11.54-1.92s0,0,0,0h0l.52.59-.32,1.45ZM12.15,8.39l-.54,1.92.74.11.32-1.44-.52-.59Z"/>
          </g>
          <g>
            <polygon class="cls-6" points="12.03 9.2 11.97 9.04 11.97 9.04 12.03 9.2 12.38 8.86 12.03 9.2"/>
            <path class="cls-6" d="M12.24,10.42l-.09-.27-.13.23-.1-.33-.15.21h0s.15-.21.15-.21l.1.33.13-.23.09.27ZM12.42,10.17l-.08-.37-.07-.38-.16.23-.07-.26-.23.24.12.43.16-.27.09.27.17-.26-.17.26-.09-.27-.16.27-.12-.43.23-.24.07.26.16-.23.07.38.08.37h0ZM12.34,9.8l.18-.28-.11-.36-.13.18-.08-.69h0l.07.69.13-.18h0s0,0,0,0l.09-.12-.09.12.1.36.06-.1h0s-.06.1-.06.1l.02.06-.02-.06-.18.28Z"/>
          </g>
        </g>
        <g id="D-2" data-name="D">
          <g>
            <path class="cls-2" d="M13.37,8.39l.54,1.92-.74.11-.32-1.44.52-.59h0Z"/>
            <path class="cls-6" d="M13.16,10.42l-.32-1.45.52-.59h0s0,0,0,0l.54,1.92-.75.12ZM13.37,8.39l-.52.59.32,1.44.74-.12-.54-1.92Z"/>
          </g>
          <g>
            <polygon class="cls-6" points="13.48 9.2 13.13 8.87 13.48 9.2 13.55 9.04 13.48 9.2"/>
            <path class="cls-6" d="M13.28,10.42l.09-.27.14.23.1-.32.15.21h0s-.15-.21-.15-.21l-.1.32-.14-.23-.09.27ZM13.09,10.17h0l.08-.37.07-.38.17.22.07-.26.23.24-.12.43-.16-.27-.09.27-.17-.26.17.26.09-.27.16.27.12-.43-.23-.24-.07.26-.17-.22-.07.38-.08.37ZM13.17,9.8l-.18-.27-.02.05.02-.06-.07-.1h0s.06.1.06.1l.1-.36-.09-.12.09.12h0s0,0,0,0l.14.17.07-.69-.07.69-.14-.17-.1.36.18.28Z"/>
          </g>
        </g>
        <g>
          <g>
            <path class="cls-2" d="M12.76,11.16c.57,0,1.11-.04,1.42-.13.13-.02.13-.09.13-.18.13-.04.07-.2.16-.2-.09.02-.11-.16-.23-.13,0-.16-.16-.18-.29-.13-.27.09-.74.11-1.2.11-.45-.02-.92-.02-1.2-.11-.13-.04-.29-.02-.29.13-.11-.02-.13.16-.23.13.09,0,.02.16.16.2,0,.09,0,.16.14.18.31.09.85.13,1.42.13h0Z"/>
            <path class="cls-6" d="M12.76,11.17c-.6,0-1.12-.05-1.42-.13-.14-.02-.14-.1-.14-.18-.07-.02-.09-.08-.1-.13,0-.04-.02-.06-.04-.07h0s-.01,0-.02,0c0,0,.01,0,.02,0,.03,0,.06-.03.08-.07.03-.04.06-.08.11-.08,0,0,.01,0,.02,0,0-.05.02-.09.05-.12.05-.04.15-.04.24-.01.22.07.58.09.95.1.08,0,.16,0,.25,0,.58,0,.97-.04,1.2-.11.09-.03.19-.03.24.01.04.03.06.07.06.12.06-.01.09.03.12.07.02.03.05.06.08.06,0,0,.01,0,.02,0,0,0-.01,0-.02,0-.03,0-.03.04-.04.07-.01.05-.03.1-.1.13,0,.09,0,.16-.13.18-.3.09-.82.13-1.42.13ZM11.06,10.65s.03.04.04.07c.01.05.02.1.1.13,0,.09,0,.16.14.18.3.09.82.13,1.42.13s1.12-.05,1.42-.13c.13-.02.13-.09.13-.18.07-.03.09-.08.1-.13,0-.03.02-.06.04-.07-.03,0-.06-.03-.08-.06-.03-.04-.06-.07-.1-.07,0,0-.01,0-.02,0,0-.06-.02-.1-.06-.12-.05-.04-.14-.04-.24-.01-.22.07-.61.11-1.2.11-.08,0-.16,0-.25,0-.37-.01-.73-.03-.95-.1-.09-.03-.18-.03-.24.01-.04.03-.05.07-.05.12-.06,0-.09.03-.13.07-.02.03-.05.06-.08.07ZM11.04,10.65s0,0,.01,0c0,0,0,0-.01,0ZM14.47,10.64s0,0-.01,0c0,0,0,0,.01,0Z"/>
          </g>
          <g>
            <g>
              <path class="cls-2" d="M11.99,10.31c.18.02.39.04.54.02.09,0,.15.15-.02.18-.16.02-.41,0-.54-.02-.11-.02-.36-.07-.52-.11-.16-.07-.04-.2.04-.18.14.04.32.09.5.11h0ZM13.52,10.31c-.18.02-.39.04-.54.02-.09,0-.16.15.02.18.16.02.41,0,.54-.02.11-.02.36-.07.52-.11.16-.07.04-.2-.04-.18-.14.04-.32.09-.5.11h0Z"/>
              <path class="cls-6" d="M13.16,10.52c-.06,0-.11,0-.15,0-.07,0-.12-.05-.11-.09,0-.05.05-.09.09-.09.16.02.37,0,.54-.02h0c.22-.03.4-.08.5-.11,0,0,.01,0,.02,0,.04,0,.09.03.1.07,0,.02.01.08-.08.11-.16.04-.41.09-.52.11-.09.02-.25.03-.39.03ZM12.98,10.33s-.09.04-.09.08c0,.05.04.08.11.09.16.02.41,0,.54-.02.11-.02.36-.06.52-.11.06-.03.09-.07.08-.11-.01-.04-.06-.07-.1-.07,0,0-.01,0-.02,0-.09.03-.28.08-.5.11-.17.02-.38.05-.54.02ZM12.35,10.52c-.14,0-.3-.02-.39-.03-.11-.02-.36-.07-.52-.11-.09-.04-.08-.09-.08-.11.02-.05.07-.08.12-.07.09.03.28.08.5.11.17.02.38.04.54.02.04,0,.09.04.09.08,0,.05-.04.09-.11.1-.05,0-.1,0-.15,0ZM11.47,10.19s-.09.03-.1.07c-.01.04.01.08.08.11.16.04.41.09.52.11.13.02.38.05.54.02.07,0,.12-.04.11-.09,0-.04-.04-.08-.09-.08-.16.02-.38,0-.54-.02-.22-.03-.4-.08-.5-.11,0,0-.01,0-.02,0Z"/>
            </g>
            <g>
              <path class="cls-2" d="M11.43,10.22c-.14-.02-.2.13-.16.22.02-.04.11-.04.13-.09.02-.07-.02-.07.02-.13h0ZM11.97,10.63c0-.09.09-.08.09-.17,0-.04-.02-.11-.07-.11s-.09.04-.09.09c-.02.09.07.1.07.19ZM12.61,10.37c.13,0,.12.18.06.27,0-.07-.11-.09-.11-.13,0-.07.1-.07.06-.13ZM14.09,10.22c.14-.02.2.13.16.22-.02-.04-.11-.04-.13-.09-.02-.07.02-.07-.02-.13h0ZM13.54,10.63c0-.09-.09-.08-.09-.17,0-.04.02-.11.07-.11s.09.04.09.09c.02.09-.07.1-.07.19h0ZM12.9,10.37c-.13,0-.12.18-.06.27,0-.07.11-.09.11-.13,0-.07-.1-.07-.06-.13h0Z"/>
              <path class="cls-6" d="M12.67,10.64s-.04-.06-.07-.08c-.03-.02-.05-.03-.05-.05,0-.03.02-.05.04-.06.02-.02.04-.03.02-.07h0s0,0,0,0c.04,0,.07.02.09.05.03.06,0,.16-.03.22ZM12.61,10.38s0,.05-.02.07c-.02.02-.04.03-.04.06,0,.02.02.04.05.05.03.02.07.04.07.08.04-.06.06-.16.03-.22-.02-.03-.05-.05-.09-.05ZM12.85,10.64c-.04-.06-.07-.16-.03-.22.02-.03.05-.05.09-.05t0,0h0s0,.05.02.07c.02.01.04.03.04.06,0,.02-.02.04-.05.05-.03.02-.06.04-.06.08ZM12.9,10.38s-.07.02-.09.05c-.03.06,0,.16.03.22,0-.04.03-.06.06-.08.02-.02.05-.03.05-.05,0-.03-.02-.05-.04-.06-.02-.02-.04-.03-.02-.07ZM13.54,10.63s0,0,0,0c0-.04-.02-.06-.04-.08-.02-.02-.04-.04-.04-.08,0-.04.02-.11.07-.11s.09.04.09.09c.01.05,0,.07-.03.1-.02.02-.04.05-.04.09,0,0,0,0,0,0ZM13.52,10.35s-.07.07-.07.11c0,.04.02.06.04.08.02.02.04.03.04.07,0-.03.02-.05.04-.08.02-.03.04-.05.03-.1,0-.04-.04-.09-.09-.09ZM11.97,10.63s0,0,0,0c0-.04-.02-.07-.04-.09-.02-.03-.04-.05-.03-.1,0-.04.05-.09.09-.09s.07.07.07.11c0,.05-.02.07-.05.08-.02.02-.04.04-.04.08,0,0,0,0,0,0ZM11.99,10.35s-.09.04-.09.09c-.01.05,0,.07.03.1.02.02.03.04.04.08,0-.03.02-.05.04-.07.02-.02.04-.04.04-.08,0-.04-.02-.11-.07-.11ZM14.24,10.44s-.04-.03-.07-.04c-.03-.01-.06-.02-.07-.05-.01-.03,0-.05,0-.06,0-.02,0-.04-.02-.07h0s0,0,0,0c.05-.01.1,0,.14.05.04.05.05.12.02.17ZM14.09,10.22s.02.05.02.07c0,.02,0,.03,0,.06,0,.02.04.03.07.04s.06.02.07.04c.02-.05.01-.12-.02-.17-.03-.04-.08-.07-.13-.05ZM11.27,10.44s-.02-.12.02-.17c.03-.04.08-.07.14-.05,0,0,0,0,0,0h0s-.02.05-.02.07c0,.02,0,.03,0,.06-.01.02-.04.04-.07.05-.03.01-.06.02-.07.04ZM11.4,10.21s-.08.02-.11.06c-.04.05-.04.12-.02.17,0-.02.04-.03.07-.04.03-.01.06-.02.07-.04.01-.03,0-.05,0-.06,0-.02,0-.04.02-.07,0,0-.02,0-.03,0Z"/>
            </g>
          </g>
          <g>
            <path class="cls-2" d="M11.47,10.26s.11.02.13.04l-.13-.04h0ZM11.69,10.33s.11.02.16.04l-.16-.04h0ZM12.51,10.42s-.13,0-.16.02l.16-.02h0ZM12.26,10.42s-.11-.02-.16,0h.16ZM14.04,10.26s-.11.02-.13.04l.13-.04ZM13.82,10.33s-.11.02-.16.04l.16-.04h0ZM13,10.42s.13,0,.16.02l-.16-.02h0ZM13.25,10.42s.11-.02.16,0h-.16,0Z"/>
            <path class="cls-6" d="M12.35,10.44s.11-.02.15-.02h0s0,0,0,0h-.01l-.15.02ZM12.49,10.42s-.12,0-.14.02l.14-.02ZM12.51,10.42h0,0ZM13.16,10.44l-.15-.02s-.01,0,0,0h0s.13,0,.16.02ZM13.02,10.42l.15.02s-.1-.02-.15-.02ZM13.25,10.42s0,0,0,0c0,0,0,0,0,0,.02-.02.11-.02.16,0h-.16ZM13.25,10.42h.16s-.13-.02-.16,0ZM12.26,10.42h-.16s.13-.03.16,0c0,0,0,0,0,0ZM12.19,10.4s-.06,0-.09.02h.16s-.04-.02-.07-.02ZM13.66,10.38s.13-.05.16-.05h0,0s0,0,0,0l-.15.04ZM13.81,10.33s-.11.02-.15.04l.15-.04ZM11.85,10.37l-.16-.04s0,0,0,0c0,0,0,0,0,0,.02,0,.11.02.16.04ZM11.7,10.33l.15.04s-.12-.04-.15-.04ZM13.91,10.31s.09-.05.13-.05c0,0,0,0,0,0,0,0,0,0,0,0l-.13.04ZM14.04,10.26s-.11.02-.13.04l.13-.04ZM11.61,10.31l-.14-.04h0s.11.02.13.04ZM11.47,10.26l.13.04s-.09-.04-.13-.04h0Z"/>
          </g>
        </g>
        <path class="cls-6" d="M11.43,10.62s-.02-.01-.02-.03c0-.02.02-.03.03-.02,0,0,.02.02.02.02,0,0,0,.02-.01.02,0,0,0,0,0,0,0,0-.01,0-.02,0h0ZM12.99,10.73s-.01-.01-.01-.02c0-.01.02-.03.03-.03,0,0,.02,0,.02.01,0,0,0,.03,0,.03,0,0-.02,0-.03,0h0ZM13,10.8s-.02,0-.02-.02c0-.01,0-.02.01-.02h.01s0,0,0,0c.01,0,.02.01.02.02,0,0,0,.02-.02.03,0,0-.01,0-.02,0h0ZM11.56,10.49s-.02,0-.03.01c-.02,0-.04.02-.06,0-.02,0-.04,0-.04.02,0,.02.03.03.05.02.01-.02.04-.02.05,0-.01.02-.01.05-.02.07,0,.01,0,.03-.01.04-.01,0-.03,0-.04,0-.02,0-.04,0-.05.02-.01.02-.02.03-.03.05,0,.02.03.03.04.03.02,0,.04.01.06.02.03,0,.06.02.09.02.04.01.09.02.14.03,0,0,0,0,.01,0,.02,0,.03-.02.03-.03,0-.03.02-.07.03-.1,0-.01.01-.04-.01-.04-.01,0-.03.02-.05.02-.02,0-.01.03,0,.04,0,.02,0,.04-.01.05-.01,0-.03,0-.05,0-.02,0-.05,0-.03-.03,0-.02,0-.03.01-.05,0-.02,0-.04.01-.05-.01-.02-.03,0-.04,0,0,0-.05,0-.03.03.02.01,0,.03,0,.05,0,.02-.02.03-.04.02-.02,0-.04-.01-.03-.03,0-.02,0-.03.01-.05l.02-.06s0-.03.02-.05c0-.02.01-.04.01-.06,0,0,0-.01-.01-.01h0ZM11.46,10.7s0,0,0,0c0,0,0,0,0,.02,0,0,0,0,0,0-.01,0-.02,0-.02,0,0,0,0,0,0,0,0,0,0,0,0,0ZM11.43,10.84s-.01-.02,0-.04c0,0,.01,0,.02,0,.02.01.02.02,0,.04,0,0,0,0-.02,0,0,0-.01,0-.02,0ZM11.51,10.86s-.02-.02-.02-.03c0,0,0,0,0,0,0-.01,0-.01.02-.01.02,0,.02,0,.02.02,0,.01,0,.01,0,.02,0,0-.02,0-.02,0h0ZM14.04,10.87s0,0,0-.01c0-.01,0-.02.02-.03.02,0,.03,0,.03,0,0,.02,0,.02,0,.04,0,0,0,0-.02,0-.01,0-.02,0-.02,0ZM11.63,10.9s-.02-.01-.02-.02c0,0,0-.01,0-.02,0,0,.01,0,.02,0,0,0,.01,0,.02,0,.02.01.02.02,0,.03,0,.01-.02.01-.03,0ZM12.25,10.93s0,0,0,0c0-.02,0-.03,0-.05,0-.01,0-.03,0-.04,0-.03,0-.05.01-.08,0-.01,0-.03,0-.04,0-.02,0-.04,0-.06,0,0,0-.03.02-.02.01.02.03.03.04.04.01,0,0,.02,0,.02-.01,0-.01.02-.01.03,0,.01,0,.02,0,.03,0,.02,0,.04,0,.05,0,.02,0,.04,0,.05,0,.01,0,.02,0,.03,0,.01,0,.03-.01.03,0,0-.02,0-.03,0h0ZM13.09,10.65s-.03.02-.04.03c-.02.01.01.02.02.03,0,.02,0,.03,0,.05,0,.02,0,.03,0,.05,0,.02-.02.01-.03.02-.01,0-.02.02-.03.03,0,.01,0,.03,0,.05,0,.01,0,.03,0,.04,0,0,0,0,0,0,0,0,0,0,.01,0,.01,0,.03,0,.04,0,.03,0,.07,0,.1,0,.02,0,.04,0,.06,0,.02,0,.02-.01.02-.03,0-.02,0-.04,0-.06,0-.02,0-.04,0-.06,0-.02-.02-.02-.03,0,0,0-.03.01-.03.02,0,.02.02.02.02.03,0,.01,0,.03,0,.04,0,.02-.01.02-.03.02-.02,0-.04,0-.05,0,0-.01,0-.03,0-.04,0-.03,0-.05,0-.08,0-.03,0-.06,0-.09,0-.01,0-.03-.02-.03h0ZM13.07,10.88h0s0,.01,0,.01h0s-.01.01-.01.01c0,0,0,0-.01,0,0,0,0,0,0,0,0,0,0-.01,0-.02,0,0,0,0,.01,0h0ZM12.22,10.62s-.02.02-.04.02c-.02,0-.02.03,0,.03,0,0,0,.02,0,.02,0,.02-.01.04,0,.06,0,.02,0,.05,0,.07,0,.03,0,.05-.01.08,0,.02-.02.02-.03,0,0-.01,0-.02,0-.03,0-.02-.01-.03-.03-.03-.02,0-.03-.01-.02-.03,0,0,.03,0,.04,0,.03,0,.03-.03.01-.04,0-.02-.03-.03-.04-.04,0-.02-.01-.05-.03-.06-.03,0-.05.02-.07.05-.01,0-.03,0-.04.01-.02,0-.05.04-.02.05.02,0,.06.01.04.04-.01.02-.03.02-.05.02-.02,0-.04,0-.04-.03,0-.02,0-.04-.01-.06,0-.02-.03-.02-.03,0-.02.02-.02.04,0,.06,0,.02,0,.04,0,.06,0,.02-.03.03-.05.03,0,0-.05,0-.03.02.02,0,.05.01.07,0,.02,0,.04-.02.05-.04.02-.02.04,0,.06,0,.02,0,.04.02.07,0,0-.02.03-.04.04-.02,0,.02.02.04.04.03.02,0,.02.02.02.03,0,.03.02.04.04.05,0,0,.02,0,.02,0,.02,0,.04-.02.05-.04,0-.02,0-.04.02-.06,0-.03.01-.06.01-.1,0-.03,0-.06.01-.09,0-.02,0-.04,0-.07,0-.01,0-.01-.01-.01h0ZM12.03,10.74s0,0,0,.02c0,.01,0,.02.01.02,0,0,0,0,0,.01,0,0,0,0-.02,0-.02,0-.03,0-.04-.01h0s0-.01,0-.01c0,0,.01,0,.02-.01,0,0,.01-.01.02-.01ZM13.9,10.52s-.03,0-.05,0c-.03,0-.04.03-.02.04.02.04.04,0,.07,0,.04,0,.04.05.05.09,0,.03.01.06.02.1.03.03-.02.05-.04.03-.02-.02-.05-.04-.08-.02-.03.01-.03.05-.05.05-.03.01-.04-.03-.06-.05-.02-.02-.05-.03-.07-.03-.01-.02,0-.07-.03-.08-.02,0-.06.05-.03.07.03.03-.01.04-.03.06-.02.02-.02.05-.03.08-.04.02-.04-.02-.05-.05,0-.03-.03-.02-.05-.01-.03.01-.04.04-.06.06,0,.02,0,.04,0,.06,0,.02.03.01.05.01.03-.01.04.02.02.03-.02.02-.06,0-.06.04.02,0,.03,0,.05,0,.03,0,.06-.03.07-.06,0-.03.05-.02.07-.03.03,0,.07-.01.07.03.02.02.06.04.09.02.02-.01.03-.04.03-.06,0-.02.04-.02.05-.01.01.02.06.02.08,0,.02-.02.03-.05.06-.05.05-.02.1-.02.15-.04.04,0,0-.03-.02-.05-.03-.02-.06.05-.09.02-.03-.02-.02-.06-.03-.09,0-.04,0-.08-.03-.11-.02-.02-.04-.03-.07-.02h0ZM13.71,10.78s0,0,.01,0c.01,0,.02.02.02.03,0,0,0,0-.01.01,0,0-.01,0-.01,0,0,0-.02-.01-.02-.01,0,0,0,0,0-.01,0,0,0,0,0-.02,0,0,0,0,0,0h0ZM13.9,10.79s.02,0,.02.01c0,0,0,.02-.01.02,0,0-.01,0-.01,0s0,0-.01,0c0,0,0,0,0-.01,0,0,0-.02.02-.02h0ZM13.64,10.8s0,0,0,0c0,0,0,0,0,.02,0,0,0,.01,0,.02,0,0,0,0-.02,0-.02,0-.02,0-.02-.02,0-.01,0-.01,0-.02,0,0,0,0,.01,0h0ZM13.49,10.84s.01,0,.01.01c0,0,0,.01,0,.02,0,0-.02,0-.02,0,0,0,0,0,0,0,0,0,0,0,0,0,0,0,0,0,0,0s0,0,0,0c0,0,.01,0,.02,0h0ZM13.75,10.87s0,0,.01,0c0,0,0,.01,0,.02,0,0-.02,0-.03,0,0,0,0,0,0,0,0,0,0,0,0,0,0,0,.01,0,.02,0h0ZM13.26,11.01s0,0,0,0c0,0,.01-.01.02-.01.02,0,.03-.02.04-.03,0,0,.01-.01.01-.02,0-.01,0-.03,0-.04,0-.01-.01-.02-.02-.03,0,0-.02,0-.02-.02,0,0,0-.02.01-.03,0-.01.01-.02.02-.04,0,0,.02,0,.02,0,0,0,.01.02.01.03,0,0,.02.02.02.03,0,0,.01.02.01.03,0,.01,0,.02,0,.03,0,.02,0,.03,0,.05,0,0-.01.01-.02.02,0,0-.02.02-.03.02,0,0-.01.01-.02,0-.01,0-.03,0-.04,0,0,0,0,0,0,0h0ZM13.07,11.02s0-.01,0-.02c0,0,0,0,0-.02.01-.01.02-.01.04,0,.02.01.03.01.03,0,0,0,.01-.01.02-.01,0,0,.01,0,.02,0,0,0,0,0,0,.02,0,.01,0,.01,0,.02,0,0,0,0-.02,0-.01,0-.02,0-.02-.02,0,0,0,0,0,0,0,0,0,0,0,0,0,0-.02,0-.02.01,0,0,0,0-.01,0-.01,0-.01,0-.02,0h0ZM12.51,10.77s-.04.02-.04.03c0,.02.02.04.01.06,0,.03-.02.04-.04.02-.01-.03-.02-.06-.04-.08-.02,0-.03.03-.05.04,0,.02.03.04.03.07,0,.03-.01.05-.03.07-.02.02-.05.01-.07.02-.03.02.02.02.03.02.03,0,.06,0,.08-.02.02-.01.02-.05.05-.05.05,0,.09,0,.13,0,.02,0,.06,0,.08.02,0,.03.03.05.05.06.01,0,.03-.01.04-.02.03,0,.02-.04.04-.06.05,0,.09,0,.14,0,0,0,.01-.01.02-.02,0-.02,0-.04,0-.05,0-.02,0-.05-.02-.07-.02,0-.04.02-.07.02-.03.01-.05.04-.05.07-.02.03-.04,0-.03-.03,0,0,0-.02,0-.03-.01-.02-.04-.01-.06-.01-.03,0-.06,0-.09,0-.03,0-.05,0-.08,0-.03,0-.03-.03-.03-.05,0,0-.01,0-.02,0ZM12.56,10.87s.02,0,.03,0c.01,0,.03,0,.04,0,.03,0,.06,0,.08,0,0,0,.01,0,.02,0v.06s0,.02,0,.02c0,0,0,0,0,0,0,0-.02,0-.02-.01,0-.01,0-.02,0-.03,0,0,0,0,0,0,0,0-.01,0-.02,0-.02,0-.05,0-.07,0-.02,0-.04,0-.06,0,0,0-.02,0-.02,0,0,0,0-.02,0-.02,0,0,.02,0,.03,0h0ZM12.88,10.88s0,0,0,0h0s0,.02,0,.02c-.01,0-.03,0-.03,0,0,0,0-.01,0-.02,0,0,.02-.01.02-.01h0Z"/>
        <g>
          <g>
            <path class="cls-2" d="M13.1,7.17s-.03-.1-.03-.1c.05.05.24.06.24.06-.11-.05-.23-.43-.21-.73.01-.3-.04-.42-.09-.47-.06-.06-.24-.11-.36-.11-.07,0-.06.05-.06.05-.13-.03-.25-.04-.31,0-.05.04-.06.21-.03.18.09-.08.18,0,.23.08.05.07.05.28-.03.52-.08.25-.28.5-.28.5.11,0,.27-.1.27-.1l-.04.16c.12-.06.21-.14.21-.14l.11.12c.04-.05.11-.12.11-.12,0,0,.09.1.24.11h0Z"/>
            <path class="cls-6" d="M12.43,7.21l.04-.16s-.16.1-.27.1c0,0,.21-.26.28-.5.07-.23.08-.44.03-.51-.04-.06-.09-.1-.14-.11-.03,0-.07,0-.1.03,0,0,0,0-.01,0,0,0-.01-.02-.01-.03,0-.05.01-.13.05-.16.05-.03.16-.03.31,0,0,0,0-.02,0-.04.01-.01.03-.02.05-.02.12,0,.3.06.36.11.04.04.1.15.09.47-.01.3.1.68.21.73h0s-.19-.01-.24-.06c0,0,.04.09.03.1h0c-.14-.01-.24-.11-.24-.11,0,0-.07.07-.11.12l-.11-.12s-.09.09-.21.14ZM12.46,7.05l-.04.16c.12-.06.21-.14.21-.15l.11.12s.11-.12.11-.12c0,0,.1.1.24.11h0s0,0,0,0c0-.01-.02-.08-.03-.1.05.05.24.06.24.06-.12-.05-.23-.43-.21-.73.01-.32-.05-.43-.09-.46-.06-.06-.24-.11-.36-.11h0s-.03,0-.04.01c-.01.01,0,.04,0,.04-.15-.04-.26-.04-.31,0-.04.02-.05.11-.05.16,0,.02,0,.03.01.03,0,0,0,0,.01,0,.03-.02.05-.03.08-.03,0,0,.01,0,.02,0,.05,0,.09.04.14.11.05.08.04.29-.03.52-.07.25-.28.5-.28.5.11,0,.27-.1.27-.1Z"/>
          </g>
          <path class="cls-6" d="M13.08,7.07c-.11-.15-.13-.58-.13-.59h0s.03.43.13.59ZM12.64,7.06c.08-.15.1-.62.1-.62h0s-.03.47-.11.62ZM12.87,7.06c-.03-.09-.03-.6-.03-.6h0s0,.52.03.6ZM12.46,7.05c.12-.13.18-.59.18-.6h0s-.06.47-.18.6Z"/>
          <g>
            <path class="cls-6" d="M12.53,6.23s-.02-.07-.03-.09c-.06-.08-.14-.15-.23-.08,0,0,.03-.1.1-.1.05,0,.17.04.28.22,0,0-.08-.02-.1,0-.04.03-.02.05-.02.05h0ZM12.26,5.93s.02-.05.04-.06c.06-.04.18-.03.31,0,0,0-.01-.05.06-.05.12,0,.3.06.36.11.01.01.03.04.04.07h0s-.11-.04-.13-.03c-.03,0-.05,0-.09.01-.02,0-.05.01-.06.02-.01.01-.02.05-.04.05-.03,0-.03,0-.04-.02-.01-.01-.02-.03-.03-.03-.03,0-.08-.02-.14-.07s-.09-.06-.17-.06c-.08,0-.11.05-.11.05h0Z"/>
            <path class="cls-6" d="M12.53,6.23s0,0,0-.02c0-.03-.02-.06-.03-.08-.04-.06-.09-.1-.14-.11,0,0-.01,0-.02,0-.03,0-.06.01-.08.03,0,0,.03-.1.1-.1h0c.06,0,.17.05.28.22h0s-.08-.02-.1,0c-.02.01-.02.03-.02.04,0,0,0,0,0,.02h0ZM12.53,6.21s0,0,0,.01c0,0,0,0,0-.01ZM12.35,6.02s0,0,.02,0c.05,0,.09.04.14.11.01.02.02.04.03.08,0,0,0-.02.02-.04.02-.02.09,0,.1,0-.1-.18-.22-.22-.28-.22h0c-.07,0-.1.1-.1.1.03-.02.05-.03.08-.03ZM12.74,6.06s-.03,0-.03-.01c0,0,0,0,0,0,0,0,0,0,0-.01,0,0-.01-.02-.02-.02,0,0,0,0,0,0-.03,0-.08-.02-.13-.07-.06-.05-.09-.06-.17-.06-.08,0-.11.05-.11.05h0s.02-.05.04-.06c.07-.05.22-.02.31,0,0,0,0-.02,0-.04,0-.01.03-.02.05-.01.12,0,.3.06.36.11.01.01.03.03.04.07,0,0,0,0,0,0-.01-.03-.03-.05-.04-.06-.06-.06-.24-.11-.36-.11h0s-.03,0-.04.01c-.01.01,0,.04,0,.04-.09-.02-.24-.05-.31,0-.01,0-.03.03-.04.06h0s.03-.04.11-.05c.01,0,.02,0,.03,0,.06,0,.08.02.14.06.06.05.1.07.13.07,0,0,0,0,0,0h0s.01,0,.02.02c0,0,0,0,0,.01,0,0,0,0,0,0,0,0,0,.01.03.01.01,0,.02-.01.03-.03,0,0,0-.01.01-.02.01-.01.04-.02.06-.02h0s.05-.01.07-.01c.01,0,.02,0,.04,0,.02,0,.05,0,.07.01-.04-.01-.09,0-.09,0-.03,0-.05,0-.09.01h0s-.04.01-.06.02c0,0,0,.01-.01.02,0,.01-.02.03-.03.03Z"/>
          </g>
          <circle class="cls-2" cx="12.72" cy="5.97" r=".03"/>
        </g>
        <g>
          <path class="cls-2" d="M12.76,9.28c.93-.71.85-1.75.85-1.75-.02,0-.05,0-.07,0-.19,0-.66-.11-.77-.25-.12.13-.59.25-.78.25-.02,0-.05,0-.07,0,0,0-.08,1.04.84,1.75h0Z"/>
          <path class="cls-6" d="M12.76,9.28h0c-.92-.7-.85-1.74-.85-1.75.02,0,.05,0,.07,0,.2,0,.67-.13.78-.25.11.14.58.25.77.25.03,0,.05,0,.07,0,0,.01.07,1.05-.85,1.76h0ZM11.91,7.52s-.07,1.05.84,1.75c.91-.7.85-1.74.85-1.75-.02,0-.05,0-.07,0-.19,0-.66-.11-.77-.25-.11.12-.58.25-.78.25-.03,0-.05,0-.07,0Z"/>
        </g>
        <path class="cls-6" d="M12.76,9.18c-.35-.28-.58-.63-.7-1.05-.04-.14-.06-.28-.07-.41,0-.04,0-.08,0-.12.01,0,.02,0,.03,0,.18,0,.59-.1.75-.22.16.14.58.22.74.22h.03s0,.08,0,.12c0,.14-.03.28-.07.41-.12.42-.36.78-.7,1.05ZM11.99,7.6s0,.07,0,.12c0,.14.03.27.07.41.12.42.35.78.7,1.05.34-.27.58-.63.7-1.05.04-.14.06-.28.07-.41,0-.04,0-.08,0-.11h-.02c-.16,0-.58-.09-.74-.22-.16.12-.58.22-.75.22,0,0-.02,0-.02,0Z"/>
        <g class="cls-8">
          <g>
            <g id="B">
              <path class="cls-4" d="M11.98,7.36h.52v1.82h-.52v-1.82Z"/>
            </g>
            <path class="cls-3" d="M12.5,7.36h.52v1.82h-.52v-1.82Z"/>
            <path class="cls-4" d="M13.01,7.36h.52v1.82h-.52v-1.82Z"/>
          </g>
        </g>
      </g>
    </g>
  </g>
</svg>