<?xml version="1.0" encoding="UTF-8"?>
<svg id="Layer_2" data-name="Layer 2" xmlns="http://www.w3.org/2000/svg" xmlns:xlink="http://www.w3.org/1999/xlink" viewBox="0 0 25.51 17.01">
  <defs>
    <style>
      .cls-1, .cls-2, .cls-3, .cls-4, .cls-5, .cls-6, .cls-7, .cls-8 {
        stroke: #be942d;
      }

      .cls-1, .cls-3, .cls-9, .cls-10, .cls-7 {
        fill: #fff;
      }

      .cls-1, .cls-6 {
        stroke-linejoin: round;
      }

      .cls-11 {
        fill: #ce2028;
      }

      .cls-2, .cls-3, .cls-8 {
        stroke-miterlimit: 10;
      }

      .cls-2, .cls-4, .cls-12, .cls-6 {
        fill: none;
      }

      .cls-10, .cls-13 {
        fill-rule: evenodd;
      }

      .cls-4, .cls-5, .cls-7 {
        stroke-miterlimit: 4;
      }

      .cls-5, .cls-8, .cls-14, .cls-13 {
        fill: #be942d;
      }

      .cls-15 {
        fill: #010101;
      }

      .cls-16 {
        clip-path: url(#clippath);
      }
    </style>
    <clipPath id="clippath">
      <path class="cls-12" d="M13.52,7.6h-.02c-.17,0-.58-.09-.73-.22-.16.12-.57.22-.75.22,0,0-.02,0-.02,0v.12c.01.14.04.28.07.41.12.42.35.77.69,1.04.34-.27.57-.62.69-1.04.04-.13.06-.27.07-.41,0-.04,0-.08,0-.11h0Z"/>
    </clipPath>
  </defs>
  <g id="Layer_1-2" data-name="Layer 1">
    <g>
      <path class="cls-15" d="M0,0h25.51v17.01H0V0Z"/>
      <path class="cls-9" d="M0,0h25.51v11.34H0V0Z"/>
      <path class="cls-11" d="M0,0h25.51v5.67H0V0Z"/>
      <g>
        <path class="cls-1" d="M12.78,8.57l1.94,1.8-.14-3.27c-.02-.5-.45-.38-.76-.2-.32.2-.68.2-1.06.07-.38.13-.74.13-1.06-.07-.31-.18-.74-.29-.76.2l-.14,3.27,1.99-1.8Z"/>
        <path id="C" class="cls-14" d="M11.15,6.99l-.13,3.18-.23.2.14-3.27c.07-.04.18-.11.22-.11h0ZM11.43,7.22l-.11,2.66-.23.23.14-3.08s.18.15.2.18h0ZM11.67,7.42l-.09,2.22-.18.18.11-2.53s.13.11.16.13h0ZM11.94,7.53l-.09,1.89-.18.15.09-2.11s.13.07.18.07h0ZM12.19,7.53l-.07,1.58-.18.18.07-1.74s.16,0,.18-.02h0Z"/>
        <path id="C-2" data-name="C" class="cls-14" d="M14.36,6.99l.13,3.18.23.2-.14-3.27c-.07-.04-.18-.11-.22-.11h0ZM14.09,7.22l.11,2.66.23.23-.14-3.08s-.18.15-.2.18h0ZM13.84,7.42l.09,2.22.18.18-.11-2.53s-.13.11-.16.13h0ZM13.57,7.53l.09,1.89.18.15-.09-2.11s-.13.07-.18.07h0ZM13.32,7.53l.07,1.58.18.18-.07-1.74s-.16,0-.18-.02h0Z"/>
        <path class="cls-8" d="M12.85,8.93l.27,1.24-.09.09-.09-.07-.15-1.11.07,1.11-.09.11-.09-.11.07-1.11-.15,1.11-.09.07-.09-.09.27-1.24h.18,0Z"/>
        <g id="D">
          <path class="cls-1" d="M12.15,8.39l-.54,1.92.74.11.32-1.44-.52-.59h0Z"/>
          <g>
            <path class="cls-6" d="M11.97,9.04l.07.16.35-.34"/>
            <path class="cls-6" d="M12.21,8.64l.07.69.22-.29M12.42,9.15l.12.42M12.59,9.42l-.25.38M12.42,10.17l-.08-.37-.07-.38-.17.22-.07-.26-.23.24.12.43.16-.27.09.27.17-.26M11.76,10.26l.15-.21.1.32.13-.23.09.27"/>
          </g>
        </g>
        <g id="D-2" data-name="D">
          <path class="cls-1" d="M13.37,8.39l.54,1.92-.74.11-.32-1.44.52-.59h0Z"/>
          <g>
            <path class="cls-6" d="M13.54,9.04l-.07.16-.35-.34"/>
            <path class="cls-6" d="M13.3,8.64l-.07.69-.22-.29M13.09,9.15l-.12.42M12.92,9.42l.25.38M13.09,10.17l.08-.37.07-.38.17.22.07-.26.23.24-.12.43-.16-.27-.09.27-.17-.26M13.75,10.26l-.15-.21-.1.32-.13-.23-.09.27"/>
          </g>
        </g>
        <g>
          <path class="cls-1" d="M12.76,11.16c.57,0,1.11-.04,1.42-.13.13-.02.13-.09.13-.18.13-.04.07-.2.16-.2-.09.02-.11-.16-.23-.13,0-.16-.16-.18-.29-.13-.27.09-.74.11-1.2.11-.45-.02-.92-.02-1.2-.11-.13-.04-.29-.02-.29.13-.11-.02-.13.16-.23.13.09,0,.02.16.16.2,0,.09,0,.16.14.18.31.09.85.13,1.42.13h0Z"/>
          <g>
            <path class="cls-1" d="M11.99,10.31c.18.02.39.04.54.02.09,0,.15.15-.02.18-.16.02-.41,0-.54-.02-.11-.02-.36-.07-.52-.11-.16-.07-.04-.2.04-.18.14.04.32.09.5.11h0ZM13.52,10.31c-.18.02-.39.04-.54.02-.09,0-.16.15.02.18.16.02.41,0,.54-.02.11-.02.36-.07.52-.11.16-.07.04-.2-.04-.18-.14.04-.32.09-.5.11h0Z"/>
            <path class="cls-1" d="M11.43,10.22c-.14-.02-.2.13-.16.22.02-.04.11-.04.13-.09.02-.07-.02-.07.02-.13h0ZM11.97,10.63c0-.09.09-.08.09-.17,0-.04-.02-.11-.07-.11s-.09.04-.09.09c-.02.09.07.1.07.19ZM12.61,10.37c.13,0,.12.18.06.27,0-.07-.11-.09-.11-.13,0-.07.1-.07.06-.13ZM14.09,10.22c.14-.02.2.13.16.22-.02-.04-.11-.04-.13-.09-.02-.07.02-.07-.02-.13h0ZM13.54,10.63c0-.09-.09-.08-.09-.17,0-.04.02-.11.07-.11s.09.04.09.09c.02.09-.07.1-.07.19h0ZM12.9,10.37c-.13,0-.12.18-.06.27,0-.07.11-.09.11-.13,0-.07-.1-.07-.06-.13h0Z"/>
          </g>
          <path class="cls-1" d="M11.47,10.26s.11.02.13.04l-.13-.04h0ZM11.69,10.33s.11.02.16.04l-.16-.04h0ZM12.51,10.42s-.13,0-.16.02l.16-.02h0ZM12.26,10.42s-.11-.02-.16,0h.16ZM14.04,10.26s-.11.02-.13.04l.13-.04ZM13.82,10.33s-.11.02-.16.04l.16-.04h0ZM13,10.42s.13,0,.16.02l-.16-.02h0ZM13.25,10.42s.11-.02.16,0h-.16,0Z"/>
        </g>
        <path class="cls-14" d="M11.43,10.62s-.02-.01-.02-.03c0-.02.02-.03.03-.02,0,0,.02.02.02.02,0,0,0,.02-.01.02,0,0,0,0,0,0,0,0-.01,0-.02,0h0ZM12.99,10.73s-.01-.01-.01-.02c0-.01.02-.03.03-.03,0,0,.02,0,.02.01,0,0,0,.03,0,.03,0,0-.02,0-.03,0h0ZM13,10.8s-.02,0-.02-.02c0-.01,0-.02.01-.02h.01s0,0,0,0c.01,0,.02.01.02.02,0,0,0,.02-.02.03,0,0-.01,0-.02,0h0ZM11.56,10.49s-.02,0-.03.01c-.02,0-.04.02-.06,0-.02,0-.04,0-.04.02,0,.02.03.03.05.02.01-.02.04-.02.05,0-.01.02-.01.05-.02.07,0,.01,0,.03-.01.04-.01,0-.03,0-.04,0-.02,0-.04,0-.05.02-.01.02-.02.03-.03.05,0,.02.03.03.04.03.02,0,.04.01.06.02.03,0,.06.02.09.02.04.01.09.02.14.03,0,0,0,0,.01,0,.02,0,.03-.02.03-.03,0-.03.02-.07.03-.1,0-.01.01-.04-.01-.04-.01,0-.03.02-.05.02-.02,0-.01.03,0,.04,0,.02,0,.04-.01.05-.01,0-.03,0-.05,0-.02,0-.05,0-.03-.03,0-.02,0-.03.01-.05,0-.02,0-.04.01-.05-.01-.02-.03,0-.04,0,0,0-.05,0-.03.03.02.01,0,.03,0,.05,0,.02-.02.03-.04.02-.02,0-.04-.01-.03-.03,0-.02,0-.03.01-.05l.02-.06s0-.03.02-.05c0-.02.01-.04.01-.06,0,0,0-.01-.01-.01h0ZM11.46,10.7s0,0,0,0c0,0,0,0,0,.02,0,0,0,0,0,0-.01,0-.02,0-.02,0,0,0,0,0,0,0,0,0,0,0,0,0ZM11.43,10.84s-.01-.02,0-.04c0,0,.01,0,.02,0,.02.01.02.02,0,.04,0,0,0,0-.02,0,0,0-.01,0-.02,0ZM11.51,10.86s-.02-.02-.02-.03c0,0,0,0,0,0,0-.01,0-.01.02-.01.02,0,.02,0,.02.02,0,.01,0,.01,0,.02,0,0-.02,0-.02,0h0ZM14.04,10.87s0,0,0-.01c0-.01,0-.02.02-.03.02,0,.03,0,.03,0,0,.02,0,.02,0,.04,0,0,0,0-.02,0-.01,0-.02,0-.02,0ZM11.63,10.9s-.02-.01-.02-.02c0,0,0-.01,0-.02,0,0,.01,0,.02,0,0,0,.01,0,.02,0,.02.01.02.02,0,.03,0,.01-.02.01-.03,0ZM12.25,10.93s0,0,0,0c0-.02,0-.03,0-.05,0-.01,0-.03,0-.04,0-.03,0-.05.01-.08,0-.01,0-.03,0-.04,0-.02,0-.04,0-.06,0,0,0-.03.02-.02.01.02.03.03.04.04.01,0,0,.02,0,.02-.01,0-.01.02-.01.03,0,.01,0,.02,0,.03,0,.02,0,.04,0,.05,0,.02,0,.04,0,.05,0,.01,0,.02,0,.03,0,.01,0,.03-.01.03,0,0-.02,0-.03,0h0ZM13.09,10.65s-.03.02-.04.03c-.02.01.01.02.02.03,0,.02,0,.03,0,.05,0,.02,0,.03,0,.05,0,.02-.02.01-.03.02-.01,0-.02.02-.03.03,0,.01,0,.03,0,.05,0,.01,0,.03,0,.04,0,0,0,0,0,0,0,0,0,0,.01,0,.01,0,.03,0,.04,0,.03,0,.07,0,.1,0,.02,0,.04,0,.06,0,.02,0,.02-.01.02-.03,0-.02,0-.04,0-.06,0-.02,0-.04,0-.06,0-.02-.02-.02-.03,0,0,0-.03.01-.03.02,0,.02.02.02.02.03,0,.01,0,.03,0,.04,0,.02-.01.02-.03.02-.02,0-.04,0-.05,0,0-.01,0-.03,0-.04,0-.03,0-.05,0-.08,0-.03,0-.06,0-.09,0-.01,0-.03-.02-.03h0ZM13.07,10.88h0s0,.01,0,.01h0s-.01.01-.01.01c0,0,0,0-.01,0,0,0,0,0,0,0,0,0,0-.01,0-.02,0,0,0,0,.01,0h0ZM12.22,10.62s-.02.02-.04.02c-.02,0-.02.03,0,.03,0,0,0,.02,0,.02,0,.02-.01.04,0,.06,0,.02,0,.05,0,.07,0,.03,0,.05-.01.08,0,.02-.02.02-.03,0,0-.01,0-.02,0-.03,0-.02-.01-.03-.03-.03-.02,0-.03-.01-.02-.03,0,0,.03,0,.04,0,.03,0,.03-.03.01-.04,0-.02-.03-.03-.04-.04,0-.02-.01-.05-.03-.06-.03,0-.05.02-.07.05-.01,0-.03,0-.04.01-.02,0-.05.04-.02.05.02,0,.06.01.04.04-.01.02-.03.02-.05.02-.02,0-.04,0-.04-.03,0-.02,0-.04-.01-.06,0-.02-.03-.02-.03,0-.02.02-.02.04,0,.06,0,.02,0,.04,0,.06,0,.02-.03.03-.05.03,0,0-.05,0-.03.02.02,0,.05.01.07,0,.02,0,.04-.02.05-.04.02-.02.04,0,.06,0,.02,0,.04.02.07,0,0-.02.03-.04.04-.02,0,.02.02.04.04.03.02,0,.02.02.02.03,0,.03.02.04.04.05,0,0,.02,0,.02,0,.02,0,.04-.02.05-.04,0-.02,0-.04.02-.06,0-.03.01-.06.01-.1,0-.03,0-.06.01-.09,0-.02,0-.04,0-.07,0-.01,0-.01-.01-.01h0ZM12.03,10.74s0,0,0,.02c0,.01,0,.02.01.02,0,0,0,0,0,.01,0,0,0,0-.02,0-.02,0-.03,0-.04-.01h0s0-.01,0-.01c0,0,.01,0,.02-.01,0,0,.01-.01.02-.01ZM13.9,10.52s-.03,0-.05,0c-.03,0-.04.03-.02.04.02.04.04,0,.07,0,.04,0,.04.05.05.09,0,.03.01.06.02.1.03.03-.02.05-.04.03-.02-.02-.05-.04-.08-.02-.03.01-.03.05-.05.05-.03.01-.04-.03-.06-.05-.02-.02-.05-.03-.07-.03-.01-.02,0-.07-.03-.08-.02,0-.06.05-.03.07.03.03-.01.04-.03.06-.02.02-.02.05-.03.08-.04.02-.04-.02-.05-.05,0-.03-.03-.02-.05-.01-.03.01-.04.04-.06.06,0,.02,0,.04,0,.06,0,.02.03.01.05.01.03-.01.04.02.02.03-.02.02-.06,0-.06.04.02,0,.03,0,.05,0,.03,0,.06-.03.07-.06,0-.03.05-.02.07-.03.03,0,.07-.01.07.03.02.02.06.04.09.02.02-.01.03-.04.03-.06,0-.02.04-.02.05-.01.01.02.06.02.08,0,.02-.02.03-.05.06-.05.05-.02.1-.02.15-.04.04,0,0-.03-.02-.05-.03-.02-.06.05-.09.02-.03-.02-.02-.06-.03-.09,0-.04,0-.08-.03-.11-.02-.02-.04-.03-.07-.02h0ZM13.71,10.78s0,0,.01,0c.01,0,.02.02.02.03,0,0,0,0-.01.01,0,0-.01,0-.01,0,0,0-.02-.01-.02-.01,0,0,0,0,0-.01,0,0,0,0,0-.02,0,0,0,0,0,0h0ZM13.9,10.79s.02,0,.02.01c0,0,0,.02-.01.02,0,0-.01,0-.01,0s0,0-.01,0c0,0,0,0,0-.01,0,0,0-.02.02-.02h0ZM13.64,10.8s0,0,0,0c0,0,0,0,0,.02,0,0,0,.01,0,.02,0,0,0,0-.02,0-.02,0-.02,0-.02-.02,0-.01,0-.01,0-.02,0,0,0,0,.01,0h0ZM13.49,10.84s.01,0,.01.01c0,0,0,.01,0,.02,0,0-.02,0-.02,0,0,0,0,0,0,0,0,0,0,0,0,0,0,0,0,0,0,0s0,0,0,0c0,0,.01,0,.02,0h0ZM13.75,10.87s0,0,.01,0c0,0,0,.01,0,.02,0,0-.02,0-.03,0,0,0,0,0,0,0,0,0,0,0,0,0,0,0,.01,0,.02,0h0ZM13.26,11.01s0,0,0,0c0,0,.01-.01.02-.01.02,0,.03-.02.04-.03,0,0,.01-.01.01-.02,0-.01,0-.03,0-.04,0-.01-.01-.02-.02-.03,0,0-.02,0-.02-.02,0,0,0-.02.01-.03,0-.01.01-.02.02-.04,0,0,.02,0,.02,0,0,0,.01.02.01.03,0,0,.02.02.02.03,0,0,.01.02.01.03,0,.01,0,.02,0,.03,0,.02,0,.03,0,.05,0,0-.01.01-.02.02,0,0-.02.02-.03.02,0,0-.01.01-.02,0-.01,0-.03,0-.04,0,0,0,0,0,0,0h0ZM13.07,11.02s0-.01,0-.02c0,0,0,0,0-.02.01-.01.02-.01.04,0,.02.01.03.01.03,0,0,0,.01-.01.02-.01,0,0,.01,0,.02,0,0,0,0,0,0,.02,0,.01,0,.01,0,.02,0,0,0,0-.02,0-.01,0-.02,0-.02-.02,0,0,0,0,0,0,0,0,0,0,0,0,0,0-.02,0-.02.01,0,0,0,0-.01,0-.01,0-.01,0-.02,0h0ZM12.51,10.77s-.04.02-.04.03c0,.02.02.04.01.06,0,.03-.02.04-.04.02-.01-.03-.02-.06-.04-.08-.02,0-.03.03-.05.04,0,.02.03.04.03.07,0,.03-.01.05-.03.07-.02.02-.05.01-.07.02-.03.02.02.02.03.02.03,0,.06,0,.08-.02.02-.01.02-.05.05-.05.05,0,.09,0,.13,0,.02,0,.06,0,.08.02,0,.03.03.05.05.06.01,0,.03-.01.04-.02.03,0,.02-.04.04-.06.05,0,.09,0,.14,0,0,0,.01-.01.02-.02,0-.02,0-.04,0-.05,0-.02,0-.05-.02-.07-.02,0-.04.02-.07.02-.03.01-.05.04-.05.07-.02.03-.04,0-.03-.03,0,0,0-.02,0-.03-.01-.02-.04-.01-.06-.01-.03,0-.06,0-.09,0-.03,0-.05,0-.08,0-.03,0-.03-.03-.03-.05,0,0-.01,0-.02,0ZM12.56,10.87s.02,0,.03,0c.01,0,.03,0,.04,0,.03,0,.06,0,.08,0,0,0,.01,0,.02,0v.06s0,.02,0,.02c0,0,0,0,0,0,0,0-.02,0-.02-.01,0-.01,0-.02,0-.03,0,0,0,0,0,0,0,0-.01,0-.02,0-.02,0-.05,0-.07,0-.02,0-.04,0-.06,0,0,0-.02,0-.02,0,0,0,0-.02,0-.02,0,0,.02,0,.03,0h0ZM12.88,10.88s0,0,0,0h0s0,.02,0,.02c-.01,0-.03,0-.03,0,0,0,0-.01,0-.02,0,0,.02-.01.02-.01h0Z"/>
        <g>
          <path class="cls-7" d="M13.1,7.17s-.03-.1-.03-.1c.05.05.24.06.24.06-.11-.05-.23-.43-.21-.73.01-.3-.04-.42-.09-.47-.06-.06-.24-.11-.36-.11-.07,0-.06.05-.06.05-.13-.03-.25-.04-.31,0-.05.04-.06.21-.03.18.09-.08.18,0,.23.08.05.07.05.28-.03.52-.08.25-.28.5-.28.5.11,0,.27-.1.27-.1l-.04.16c.12-.06.21-.14.21-.14l.11.12c.04-.05.11-.12.11-.12,0,0,.09.1.24.11h0Z"/>
          <path class="cls-4" d="M12.65,6.45s-.06.47-.18.6M12.75,6.44s-.02.47-.11.62M12.83,6.46s0,.52.03.6M12.95,6.48s.03.43.13.59"/>
          <path class="cls-5" d="M12.53,6.23s-.02-.07-.03-.09c-.06-.08-.14-.15-.23-.08,0,0,.03-.1.1-.1.05,0,.17.04.28.22,0,0-.08-.02-.1,0-.04.03-.02.05-.02.05h0ZM12.26,5.93s.02-.05.04-.06c.06-.04.18-.03.31,0,0,0-.01-.05.06-.05.12,0,.3.06.36.11.01.01.03.04.04.07h0s-.11-.04-.13-.03c-.03,0-.05,0-.09.01-.02,0-.05.01-.06.02-.01.01-.02.05-.04.05-.03,0-.03,0-.04-.02-.01-.01-.02-.03-.03-.03-.03,0-.08-.02-.14-.07s-.09-.06-.17-.06c-.08,0-.11.05-.11.05h0Z"/>
          <circle class="cls-9" cx="12.72" cy="5.97" r=".03"/>
        </g>
        <path class="cls-3" d="M12.76,9.28c.93-.71.85-1.75.85-1.75-.02,0-.05,0-.07,0-.19,0-.66-.11-.77-.25-.12.13-.59.25-.78.25-.02,0-.05,0-.07,0,0,0-.08,1.04.84,1.75h0Z"/>
        <path class="cls-2" d="M13.53,7.6h-.02c-.18,0-.58-.09-.74-.22-.16.12-.58.23-.75.23,0,0-.02,0-.02,0,0,.04,0,.08,0,.12,0,.14.03.28.07.41.12.42.35.78.7,1.05.34-.27.58-.63.7-1.05.04-.13.06-.27.07-.41,0-.04,0-.09,0-.11h0Z"/>
        <g class="cls-16">
          <g>
            <path id="B" class="cls-13" d="M11.98,7.36h.52v1.82h-.52v-1.82Z"/>
            <path class="cls-10" d="M12.5,7.36h.52v1.82h-.52v-1.82Z"/>
            <path class="cls-13" d="M13.01,7.36h.52v1.82h-.52v-1.82Z"/>
          </g>
        </g>
      </g>
    </g>
  </g>
</svg>