<?xml version="1.0" encoding="UTF-8"?>
<svg id="Layer_2" data-name="Layer 2" xmlns="http://www.w3.org/2000/svg" viewBox="0 0 34.02 17.01">
  <defs>
    <style>
      .cls-1 {
        fill: #ffc82e;
      }

      .cls-2 {
        fill: #44b049;
      }

      .cls-3 {
        fill: #4c8cca;
      }

      .cls-4 {
        fill: #e31e2e;
      }
    </style>
  </defs>
  <g id="Layer_1-2" data-name="Layer 1">
    <g>
      <path class="cls-4" d="M0,0h34.02v17.01H0V0Z"/>
      <path class="cls-2" d="M0,0h34.02v8.5L0,0Z"/>
      <path class="cls-3" d="M34.02,8.5v8.5H0l34.02-8.5Z"/>
      <g>
        <path id="w" class="cls-1" d="M7.37,5.05s.19-.2.39-.29c.16-.08.34-.07.51-.04-.05.29-.91.34-.92.46.08.02.32-.07.68-.13-.51.69-1.12.37-1.32.42-.11.03-.25.13-.25.19.28-.11.4.13.67-.02-.09.52-1.02.75-1.21.44-.15.15-.14.21-.16.25.3-.14.47.19.68-.08-.03.52-.73.88-1.1.84-.03.05-.15.32-.14.37.04-.02.02-.09.27-.12.38-.04.39-.12.51-.36.15.27-.43,1.15-.9,1.4,0,.06,0,.24.06.31.04-.14.12-.17.23-.24.17-.11.3-.16.37-.51.21.33-.02,1.41-.38,1.83.04.08.13.29.16.33-.05-.19.1-.24.24-.46.13-.22.13-.61.13-.67.36.48.38,1.9.32,2.06.03.05.27.26.37.32.01-.03,0-.03-.05-.14-.09-.19-.03-.74-.24-1.12.35.04.95.95,1.15,1.31.22.35.47.63.92.79.41.15.9.52,1.11.75l-.2.17c-.13-.11-.77-.75-.95-.73-1.2.09-1.77-.08-2.37-.32-.8-.33-1.2-1.08-1.16-1.13.24.22,1.14.4,1.42.38l-.14-.13c-.31.09-1.13-.34-1.39-.75-.44-.73-.39-1.28-.36-1.32.28.55.67.71.92.85l-.02-.13c-.98-.43-.96-1.48-.96-1.61,0-.45.15-.69.21-.71-.04.33.32.82.49.94l.03-.1c-.33-.28-.44-.79-.48-1.08-.06-.52.48-1.11.55-1.14-.12.58,0,.83.09,1.04l.05-.11c-.4-.72.23-1.78.7-1.76-.25.23-.19.67-.16.78.03-.04.03-.05.07-.09-.1-.73.59-1.15.85-1.24.16-.05.37-.05.38-.02-.07.08-.53.24-.53.69.03-.03.16-.11.23-.13.09-.39.57-.67.97-.67.05,0,.08,0,.09.01-.02.01-.45.38-.41.43Z"/>
        <path class="cls-1" d="M8.67,12.47c-.04.39.06.49,0,.56-.07-.07-.38-.01-.41-.05.12-.23.17-1.85-.09-2.74-.12-.11-.47-.52-.57-.61-.22.18-1.06.18-1.24-.5.13.09.49.22.68.19-.29-.1-.74-.44-.69-.88.07.04.17.2.26.23.1.04.35,0,.43.04.09.05.17.2.19.24.03-.08.02-.44-.25-.54.08-.07.34-.01.52.22.26.36.15.7.2.84.04.12.31.38.39.43,0-.2-.15-.51.04-1.2.07-.24.3-.6.34-.76-.1-.11-.38-.38-.43-.41-.06,0-.58.09-.8-.04-.12-.07-.22-.15-.27-.27.08,0,.48.06.48.02,0-.04-.02-.02-.18-.13-.12-.11-.26-.25-.25-.64.08.12.14.28.37.23.15-.02.31.16.35.25,0-.09-.04-.36-.18-.52.04-.06.53.32.55.64,0,.11,0,.19-.02.28,0,.06.38.44.49.41.04,0,.16-.49.2-.71.05-.27.16-.81-.05-1.11-.05.03-.29.13-.6-.2-.13-.15-.14-.3-.09-.34.04.08.28.28.34.24.02-.08-.3-.12-.18-.58.02-.06.06-.08.1-.09.04.21.21.24.34.52.05-.09,0-.22,0-.31.02-.09.02-.2-.04-.24.05-.02.15,0,.3.35.08.21,0,.51-.05.57,0,.08.12.17.15.5.04.28-.06.7-.08.79.09-.06.2-.11.24-.22.04-.13,0-.39.13-.6.09-.15.24-.26.48-.18-.03.08-.1.04-.19.14-.07.11-.1.2-.07.28.06,0,.04-.11.15-.17.17-.09.24,0,.34-.02.09-.03.15-.09.17-.13.03.07-.01.3-.3.48,0,0-.02,0-.02.01-.1.05-.1.02-.12.04-.03.03.05.07.17.05s.23-.06.26-.14c.03.02.06.17-.23.36-.2.12-.52.08-.62.02-.05.03-.36.22-.39.29-.06.27-.32.9-.56,1.33,0,.04.19-.02.4-.2.09-.08.22-.62.4-.77.15-.12.33-.1.47-.09-.07.02-.28.14-.28.34.03.03.08-.09.21-.11.13-.01.23.06.33.06.09,0,.25-.08.27-.11-.09.42-.48.53-.74.55.05.08.35.15.61-.04.01.04-.09.3-.45.41-.39.12-.44-.1-.61-.09-.16,0-.3.16-.37.19-.1.06-.26.05-.29.09-.04.05-.04.53.04.86.05.23.16.58.22.8.09-.09.36-.13.52-.52-.06-.18-.17-.88.69-1.05.02.04-.14.11-.2.21-.08.11-.08.33-.06.4.08-.1.17-.25.46-.23.18.01.3-.05.4-.17.03.01-.03.32-.2.51-.14.17-.33.24-.35.31.12,0,.3-.02.59-.29.01.06-.15.43-.49.61-.21.1-.59.1-.81-.03-.06.09-.25.36-.5.49.1.9.09,1.26.05,1.65Z"/>
        <path id="w-2" data-name="w" class="cls-1" d="M9.64,5.05s-.19-.2-.39-.29c-.16-.08-.34-.07-.51-.04.05.29.91.34.92.46-.08.02-.32-.07-.68-.13.51.69,1.12.37,1.32.42.11.03.25.13.25.19-.28-.11-.4.13-.67-.02.09.52,1.02.75,1.21.44.15.15.14.21.16.25-.3-.14-.47.19-.68-.08.03.52.73.88,1.1.84.03.05.15.32.14.37-.04-.02-.02-.09-.27-.12-.38-.04-.39-.12-.51-.36-.15.27.43,1.15.9,1.4,0,.06,0,.24-.06.31-.04-.14-.12-.17-.23-.24-.17-.11-.3-.16-.37-.51-.21.33.02,1.41.38,1.83-.04.08-.13.29-.16.33.05-.19-.1-.24-.24-.46-.13-.22-.13-.61-.13-.67-.36.48-.38,1.9-.32,2.06-.03.05-.27.26-.37.32-.01-.03,0-.03.05-.14.09-.19.03-.74.24-1.12-.35.04-.95.95-1.15,1.31-.22.35-.47.63-.92.79-.41.15-.9.52-1.11.75l.2.17c.13-.11.77-.75.95-.73,1.2.09,1.77-.08,2.37-.32.8-.33,1.2-1.08,1.16-1.13-.24.22-1.14.4-1.42.38l.14-.13c.31.09,1.13-.34,1.39-.75.44-.73.39-1.28.36-1.32-.28.55-.67.71-.92.85l.02-.13c.98-.43.96-1.48.96-1.61,0-.45-.15-.69-.21-.71.04.33-.32.82-.49.94l-.03-.1c.33-.28.44-.79.48-1.08.06-.52-.48-1.11-.55-1.14.12.58,0,.83-.09,1.04l-.05-.11c.4-.72-.23-1.78-.7-1.76.25.23.19.67.16.78-.03-.04-.03-.05-.07-.09.1-.73-.59-1.15-.85-1.24-.16-.05-.37-.05-.38-.02.07.08.53.24.53.69-.03-.03-.16-.11-.23-.13-.09-.39-.57-.67-.97-.67-.05,0-.08,0-.09.01.02.01.45.38.41.43Z"/>
      </g>
    </g>
  </g>
</svg>