<?xml version="1.0" encoding="UTF-8"?>
<svg id="Layer_2" data-name="Layer 2" xmlns="http://www.w3.org/2000/svg" viewBox="0 0 34.02 17.01">
  <defs>
    <style>
      .cls-1 {
        fill: #274da1;
      }

      .cls-2 {
        fill: #fbdd03;
      }

      .cls-3 {
        fill: #010101;
      }

      .cls-4 {
        fill: #118943;
      }

      .cls-5 {
        fill: #da1f27;
      }
    </style>
  </defs>
  <g id="Layer_1-2" data-name="Layer 1">
    <g>
      <path class="cls-5" d="M0,0h34.02v17.01H0V0Z"/>
      <path class="cls-2" d="M0,0h34.02v11.34H0V0Z"/>
      <path class="cls-4" d="M0,0h34.02v5.67H0V0Z"/>
      <g>
        <circle class="cls-1" cx="17.01" cy="8.5" r="5.67"/>
        <g id="a">
          <path class="cls-2" d="M17.01,3.97l-.2.61.82,2.52h-1.09l-.12.38h3.5l.52-.38h-2.41l-1.02-3.13Z"/>
          <g>
            <path class="cls-3" d="M18.23,6.82l1.44-1.99"/>
            <polygon class="cls-2" points="18.31 6.88 18.15 6.77 19.6 4.78 19.75 4.89 18.31 6.88"/>
          </g>
        </g>
        <g id="a-2" data-name="a">
          <path class="cls-2" d="M21.32,7.1h-.64s-2.15,1.56-2.15,1.56l-.34-1.04h-.4s1.08,3.33,1.08,3.33l.52.38-.75-2.29,2.67-1.94Z"/>
          <g>
            <path class="cls-3" d="M18.98,9.15l2.34.76"/>
            <polygon class="cls-2" points="21.29 10 18.96 9.24 19.01 9.06 21.35 9.82 21.29 10"/>
          </g>
        </g>
        <g id="a-3" data-name="a">
          <path class="cls-2" d="M19.67,12.17l-.2-.61-2.15-1.56.88-.64-.12-.38-2.83,2.06-.2.61,1.95-1.42,2.67,1.94Z"/>
          <g>
            <path class="cls-3" d="M17.01,10.58v2.46"/>
            <rect class="cls-2" x="16.91" y="10.58" width=".19" height="2.46"/>
          </g>
        </g>
        <g id="a-4" data-name="a">
          <path class="cls-2" d="M14.34,12.17l.52-.38.82-2.52.88.64.32-.23-2.83-2.06h-.64s1.95,1.42,1.95,1.42l-1.02,3.13Z"/>
          <g>
            <path class="cls-3" d="M15.03,9.15l-2.34.76"/>
            <polygon class="cls-2" points="12.72 10 12.67 9.82 15 9.06 15.06 9.24 12.72 10"/>
          </g>
        </g>
        <g id="a-5" data-name="a">
          <path class="cls-2" d="M12.69,7.1l.52.38h2.65s-.34,1.04-.34,1.04l.32.23,1.08-3.33-.2-.61-.75,2.29h-3.3Z"/>
          <g>
            <path class="cls-3" d="M15.79,6.82l-1.44-1.99"/>
            <polygon class="cls-2" points="15.71 6.88 14.27 4.89 14.42 4.78 15.86 6.77 15.71 6.88"/>
          </g>
        </g>
      </g>
    </g>
  </g>
</svg>