<?xml version="1.0" encoding="UTF-8"?>
<svg id="Layer_2" data-name="Layer 2" xmlns="http://www.w3.org/2000/svg" viewBox="0 0 25.51 17.01">
  <defs>
    <style>
      .cls-1 {
        stroke: #010101;
        stroke-miterlimit: 37.5;
        stroke-width: 0px;
      }

      .cls-1, .cls-2 {
        fill: #010101;
      }

      .cls-3 {
        fill: #fff;
      }

      .cls-4 {
        fill: #ba2025;
      }

      .cls-5 {
        fill: #186734;
      }
    </style>
  </defs>
  <g id="Layer_1-2" data-name="Layer 1">
    <g>
      <path class="cls-3" d="M0,0h25.51v17.01H0V0Z"/>
      <path class="cls-2" d="M0,0h25.51v5.1H0V0Z"/>
      <path class="cls-5" d="M0,11.91h25.51v5.1H0v-5.1Z"/>
      <g id="b">
        <path id="a" class="cls-1" d="M9.72,13.55l.18.11,4.97-8.6c.29-.08.45-.35.61-.63.11-.18.53-.92.72-1.88-.74.64-1.16,1.37-1.27,1.56-.16.28-.32.55-.24.84l-4.97,8.6Z"/>
        <path id="a-2" data-name="a" class="cls-3" d="M9.72,13.55l.18.11,4.97-8.6c.29-.08.45-.35.61-.63.11-.18.53-.92.72-1.88-.74.64-1.16,1.37-1.27,1.56-.16.28-.32.55-.24.84l-4.97,8.6Z"/>
      </g>
      <g id="b-2" data-name="b">
        <path id="a-3" data-name="a" class="cls-1" d="M15.79,13.55l-.18.11-4.97-8.6c-.29-.08-.45-.35-.61-.63-.11-.18-.53-.92-.72-1.88.74.64,1.16,1.37,1.27,1.56.16.28.32.55.24.84l4.97,8.6Z"/>
        <path id="a-4" data-name="a" class="cls-3" d="M15.79,13.55l-.18.11-4.97-8.6c-.29-.08-.45-.35-.61-.63-.11-.18-.53-.92-.72-1.88.74.64,1.16,1.37,1.27,1.56.16.28.32.55.24.84l4.97,8.6Z"/>
      </g>
      <path class="cls-4" d="M0,5.95v5.1h10.74c.32.85,1.38,2.55,2.02,2.55s1.7-1.7,2.02-2.55h10.74v-5.1h-10.74c-.32-.85-1.38-2.55-2.02-2.55s-1.7,1.7-2.02,2.55H0Z"/>
      <path id="c" class="cls-2" d="M14.78,11.06c.32-.85.53-1.7.53-2.55s-.21-1.7-.53-2.55c-.32.85-.53,1.7-.53,2.55s.21,1.7.53,2.55"/>
      <path id="c-2" data-name="c" class="cls-2" d="M10.74,11.06c-.32-.85-.53-1.7-.53-2.55s.21-1.7.53-2.55c.32.85.53,1.7.53,2.55s-.21,1.7-.53,2.55"/>
      <g>
        <ellipse class="cls-3" cx="12.76" cy="8.5" rx=".43" ry=".64"/>
        <path id="d" class="cls-3" d="M12.86,9.13s.43.85.43,2.23-.43,2.23-.43,2.23v-4.46Z"/>
        <path id="d-2" data-name="d" class="cls-3" d="M12.65,7.88s-.43-.85-.43-2.23.43-2.23.43-2.23v4.46Z"/>
        <path id="d-3" data-name="d" class="cls-3" d="M12.65,9.13s-.43.85-.43,2.23.43,2.23.43,2.23v-4.46Z"/>
        <path id="d-4" data-name="d" class="cls-3" d="M12.86,7.88s.43-.85.43-2.23-.43-2.23-.43-2.23v4.46Z"/>
      </g>
    </g>
  </g>
</svg>