<?xml version="1.0" encoding="UTF-8"?>
<svg id="Layer_2" data-name="Layer 2" xmlns="http://www.w3.org/2000/svg" viewBox="0 0 25.51 17.01">
  <defs>
    <style>
      .cls-1 {
        fill: #fff;
      }

      .cls-2 {
        fill: #010101;
      }

      .cls-3 {
        fill: #ba2025;
      }

      .cls-4 {
        fill: #186734;
      }
    </style>
  </defs>
  <g id="Layer_1-2" data-name="Layer 1">
    <g>
      <path class="cls-1" d="M0,0h25.51v17.01H0V0Z"/>
      <path class="cls-2" d="M0,0h25.51v5.1H0V0Z"/>
      <path class="cls-4" d="M0,11.91h25.51v5.1H0v-5.1Z"/>
      <g id="b">
        <g id="a">
          <path class="cls-2" d="M9.72,13.55l.18.11,4.97-8.6c.29-.08.45-.35.61-.63.11-.18.53-.92.72-1.88-.74.64-1.16,1.37-1.27,1.56-.16.28-.32.55-.24.84l-4.97,8.6Z"/>
          <path class="cls-2" d="M9.9,13.66l-.19-.11h0s4.97-8.6,4.97-8.6c-.08-.29.08-.57.24-.84.44-.76.93-1.27,1.27-1.56h0s0,0,0,0c-.08.44-.28,1.12-.72,1.88-.16.27-.32.55-.61.63l-4.96,8.6ZM9.72,13.55l.18.1,4.96-8.6c.29-.08.45-.36.61-.63.44-.76.63-1.43.72-1.87-.34.29-.83.8-1.26,1.55-.16.27-.32.55-.24.84l-4.96,8.6Z"/>
        </g>
        <g id="a-2" data-name="a">
          <path class="cls-1" d="M9.72,13.55l.18.11,4.97-8.6c.29-.08.45-.35.61-.63.11-.18.53-.92.72-1.88-.74.64-1.16,1.37-1.27,1.56-.16.28-.32.55-.24.84l-4.97,8.6Z"/>
        </g>
      </g>
      <g id="b-2" data-name="b">
        <g id="a-3" data-name="a">
          <path class="cls-2" d="M15.79,13.55l-.18.11-4.97-8.6c-.29-.08-.45-.35-.61-.63-.11-.18-.53-.92-.72-1.88.74.64,1.16,1.37,1.27,1.56.16.28.32.55.24.84l4.97,8.6Z"/>
          <path class="cls-2" d="M15.61,13.66l-4.97-8.6c-.29-.08-.45-.36-.61-.63-.44-.76-.63-1.44-.72-1.88h0s0,0,0,0c.34.29.83.8,1.27,1.56.16.27.32.55.24.85l4.97,8.6h0s-.18.11-.18.11ZM9.32,2.56c.08.44.28,1.12.71,1.87.16.27.32.55.61.63l4.97,8.6.18-.11-4.96-8.6c.08-.29-.08-.57-.24-.84-.43-.75-.92-1.26-1.26-1.55Z"/>
        </g>
        <g id="a-4" data-name="a">
          <path class="cls-1" d="M15.79,13.55l-.18.11-4.97-8.6c-.29-.08-.45-.35-.61-.63-.11-.18-.53-.92-.72-1.88.74.64,1.16,1.37,1.27,1.56.16.28.32.55.24.84l4.97,8.6Z"/>
        </g>
      </g>
      <path class="cls-3" d="M0,5.95v5.1h10.74c.32.85,1.38,2.55,2.02,2.55s1.7-1.7,2.02-2.55h10.74v-5.1h-10.74c-.32-.85-1.38-2.55-2.02-2.55s-1.7,1.7-2.02,2.55H0Z"/>
      <g id="c">
        <path class="cls-2" d="M14.78,11.06c.32-.85.53-1.7.53-2.55s-.21-1.7-.53-2.55c-.32.85-.53,1.7-.53,2.55s.21,1.7.53,2.55"/>
      </g>
      <g id="c-2" data-name="c">
        <path class="cls-2" d="M10.74,11.06c-.32-.85-.53-1.7-.53-2.55s.21-1.7.53-2.55c.32.85.53,1.7.53,2.55s-.21,1.7-.53,2.55"/>
      </g>
      <g>
        <ellipse class="cls-1" cx="12.76" cy="8.5" rx=".43" ry=".64"/>
        <g id="d">
          <path class="cls-1" d="M12.86,9.13s.43.85.43,2.23-.43,2.23-.43,2.23v-4.46Z"/>
        </g>
        <g id="d-2" data-name="d">
          <path class="cls-1" d="M12.65,7.88s-.43-.85-.43-2.23.43-2.23.43-2.23v4.46Z"/>
        </g>
        <g id="d-3" data-name="d">
          <path class="cls-1" d="M12.65,9.13s-.43.85-.43,2.23.43,2.23.43,2.23v-4.46Z"/>
        </g>
        <g id="d-4" data-name="d">
          <path class="cls-1" d="M12.86,7.88s.43-.85.43-2.23-.43-2.23-.43-2.23v4.46Z"/>
        </g>
      </g>
    </g>
  </g>
</svg>