<?xml version="1.0" encoding="UTF-8"?>
<svg id="Layer_2" data-name="Layer 2" xmlns="http://www.w3.org/2000/svg" viewBox="0 0 32.31 17.01">
  <defs>
    <style>
      .cls-1 {
        fill: #fff;
      }

      .cls-2 {
        fill: #213064;
      }

      .cls-3 {
        fill: #010101;
        stroke: #fff;
        stroke-miterlimit: 21.82;
        stroke-width: 1.55px;
      }

      .cls-4 {
        fill: #c02033;
      }
    </style>
  </defs>
  <g id="Layer_1-2" data-name="Layer 1">
    <g>
      <path class="cls-4" d="M0,0h32.31v17.01H0V0Z"/>
      <path class="cls-3" d="M0,2.32h32.31M32.31,5.41H0"/>
      <path class="cls-2" d="M0,0h7.73v8.5H0V0Z"/>
      <path class="cls-3" d="M0,8.5h32.31M32.31,11.6H0M0,14.69h32.31"/>
      <g>
        <g id="B">
          <polygon id="A" class="cls-1" points="3.87 1.55 3.15 3.75 4.25 4.11 3.87 1.55"/>
          <polygon id="A-2" data-name="A" class="cls-1" points="3.87 1.55 4.58 3.75 3.48 4.11 3.87 1.55"/>
        </g>
        <g id="C">
          <g id="B-2" data-name="B">
            <polygon id="A-3" data-name="A" class="cls-1" points="6.07 3.15 3.75 3.15 3.75 4.31 6.07 3.15"/>
            <polygon id="A-4" data-name="A" class="cls-1" points="6.07 3.15 4.19 4.51 3.51 3.57 6.07 3.15"/>
          </g>
          <g id="B-3" data-name="B">
            <polygon id="A-5" data-name="A" class="cls-1" points="2.5 5.74 4.38 4.38 3.7 3.44 2.5 5.74"/>
            <polygon id="A-6" data-name="A" class="cls-1" points="2.5 5.74 3.22 3.54 4.32 3.89 2.5 5.74"/>
          </g>
        </g>
        <g id="C-2" data-name="C">
          <g id="B-4" data-name="B">
            <polygon id="A-7" data-name="A" class="cls-1" points="5.23 5.74 4.51 3.54 3.41 3.89 5.23 5.74"/>
            <polygon id="A-8" data-name="A" class="cls-1" points="5.23 5.74 3.35 4.38 4.03 3.44 5.23 5.74"/>
          </g>
          <g id="B-5" data-name="B">
            <polygon id="A-9" data-name="A" class="cls-1" points="1.66 3.15 3.54 4.51 4.22 3.57 1.66 3.15"/>
            <polygon id="A-10" data-name="A" class="cls-1" points="1.66 3.15 3.98 3.15 3.98 4.31 1.66 3.15"/>
          </g>
        </g>
      </g>
    </g>
  </g>
</svg>