<?xml version="1.0" encoding="UTF-8"?>
<svg id="Layer_2" data-name="Layer 2" xmlns="http://www.w3.org/2000/svg" viewBox="0 0 25.51 17.01">
  <defs>
    <style>
      .cls-1 {
        fill: #c1282d;
      }

      .cls-2 {
        fill: #036334;
      }
    </style>
  </defs>
  <g id="Layer_1-2" data-name="Layer 1">
    <g>
      <path class="cls-1" d="M0,0h25.51v17.01H0V0Z"/>
      <path class="cls-2" d="M15.25,11.94l-2.5-1.82-2.5,1.82.95-2.94-2.5-1.82h3.09l.95-2.94.95,2.94h3.09l-2.5,1.82.95,2.94ZM11.56,9.26l-.53,1.63,1.39-1.01-.86-.62ZM13.1,9.88l1.39,1.01-.53-1.63-.86.62ZM11.69,8.85l1.07.78,1.07-.78-.41-1.26h-1.32l-.41,1.26ZM13.84,7.59l.33,1.01,1.39-1.01h-1.71ZM9.96,7.59l1.39,1.01.33-1.01h-1.71ZM12.23,7.19h1.06l-.53-1.63-.53,1.63Z"/>
    </g>
  </g>
</svg>