<?xml version="1.0" encoding="UTF-8"?>
<svg id="Layer_2" data-name="Layer 2" xmlns="http://www.w3.org/2000/svg" viewBox="0 0 25.51 17.01">
  <defs>
    <style>
      .cls-1 {
        fill: #f9d20a;
      }

      .cls-2 {
        fill: #14a2dd;
      }

      .cls-3 {
        fill: #e4be21;
      }

      .cls-4 {
        fill: #21613e;
      }
    </style>
  </defs>
  <g id="Layer_1-2" data-name="Layer 1">
    <g>
      <path class="cls-1" d="M0,0h25.51v17.01H0V0Z"/>
      <path class="cls-2" d="M0,0h25.51v8.5H0V0Z"/>
      <path class="cls-4" d="M0,12.76h25.51v4.25H0v-4.25Z"/>
      <g>
        <path class="cls-3" d="M20.93,1.7l.11,1.9.6-1.81-.39,1.87,1.05-1.59-.86,1.7,1.42-1.27-1.27,1.42,1.7-.86-1.59,1.05,1.87-.39-1.81.6,1.9.11-1.9.11,1.81.6-1.87-.39,1.59,1.05-1.7-.86,1.27,1.42-1.42-1.27.86,1.7-1.05-1.59.39,1.87-.6-1.81-.11,1.9-.11-1.9-.6,1.81.39-1.87-1.05,1.59.86-1.7-1.42,1.27,1.27-1.42-1.7.86,1.59-1.05-1.87.39,1.81-.6-1.9-.11,1.9-.11-1.81-.6,1.87.39-1.59-1.05,1.7.86-1.27-1.42,1.42,1.27-.86-1.7,1.05,1.59-.39-1.87.6,1.81.11-1.9Z"/>
        <path class="cls-2" d="M20.93,5.3c-.47,0-.85-.38-.85-.85s.38-.85.85-.85.85.38.85.85-.38.85-.85.85ZM20.93,3.7c-.41,0-.75.34-.75.75s.34.75.75.75.75-.34.75-.75-.34-.75-.75-.75Z"/>
      </g>
    </g>
  </g>
</svg>