<?xml version="1.0" encoding="UTF-8"?>
<svg id="Layer_2" data-name="Layer 2" xmlns="http://www.w3.org/2000/svg" viewBox="0 0 25.52 17.01">
  <defs>
    <style>
      .cls-1 { fill: #fff; }
      .cls-2 { fill: #fdb71d; }
      .cls-5 { fill: #e13d31; }
      .cls-6 { fill: #010101; }
      .cls-7 { fill: #05784a; }
      .cls-8 { fill: #29317d; }
    </style>
  </defs>
  <g id="Layer_1-2" data-name="Layer 1">
    <g>
      <path class="cls-5" d="M0.0,0.0h25.51v8.5h-12.76L0.0,0.0Z"/>
      <path class="cls-8" d="M0.0,17.0h25.51v-8.5h-12.76L0.0,17.0Z"/>
      <path class="cls-1" d="M5.11,17.01L0.0,17.01L0.0,0.0L5.12,0.0L13.62,5.67L25.52,5.67L25.52,11.34L13.62,11.34Z"/>
      <path class="cls-6" d="M0.0,0.0L12.76,8.5L0.0,17.0Z"/>
      <path class="cls-2" d="M12.76,8.5L0.0,17.0L0.0,13.6L7.65,8.5L0.0,3.41L0.0,0.01Z"/>
      <path class="cls-7" d="M3.06,17.01L0.01,17.01L0.0,14.96L9.69,8.5L0.0,2.04L0.0,0.0L3.08,0.0L13.28,6.8L25.52,6.8L25.52,10.2L13.28,10.2Z"/>
    </g>
  </g>
</svg>