<?xml version="1.0" encoding="UTF-8"?>
<svg id="Layer_2" data-name="Layer 2" xmlns="http://www.w3.org/2000/svg" viewBox="0 0 25.51 17.01">
  <defs>
    <style>
      .cls-1 {
        fill: #d91f26;
      }

      .cls-2 {
        fill: #fff;
      }

      .cls-3 {
        fill: #fcdc00;
      }

      .cls-4 {
        fill: #9ca69c;
      }

      .cls-5 {
        fill: #010101;
      }
    </style>
  </defs>
  <g id="Layer_1-2" data-name="Layer 1">
    <g>
      <path class="cls-5" d="M0,0h25.51v17.01H0V0Z"/>
      <path class="cls-3" d="M0,2.83h25.51v4.25H0V2.83ZM0,11.34h25.51v5.67H0v-5.67Z"/>
      <path class="cls-1" d="M0,5.67h25.51v2.83H0v-2.83ZM0,14.17h25.51v2.83H0v-2.83Z"/>
      <circle class="cls-2" cx="12.76" cy="8.5" r="2.65"/>
      <g>
        <g>
          <path class="cls-1" d="M12.29,6.47l-.17-.32c.07-.07.18-.12.36-.12,0,.01-.02.35-.02.35l-.17.09Z"/>
          <path class="cls-5" d="M12.28,6.49h0s-.18-.34-.18-.34h0c.08-.09.2-.13.37-.13h.01s-.02.33-.02.36h0s0,.01,0,.01l-.18.09ZM12.13,6.16l.16.29.15-.08c0-.12.01-.27.02-.32-.14,0-.25.04-.32.11Z"/>
        </g>
        <g>
          <path class="cls-3" d="M12.45,6.39l.02-.35s.36-.02.55.21c0,0-.19.27-.19.27l-.38-.13Z"/>
          <path class="cls-5" d="M12.84,6.54h-.01s-.39-.14-.39-.14h0s.02-.37.02-.37h.01s.37-.02.56.21t-.19.29h0ZM12.47,6.38l.36.13c.07-.09.15-.22.18-.25-.16-.18-.43-.2-.51-.2h0l-.02.33Z"/>
        </g>
        <g>
          <path class="cls-1" d="M12.84,6.52l.17-.27c.12.12.17.21.18.34,0,0-.28.07-.28.07s-.08-.14-.08-.14Z"/>
          <path class="cls-5" d="M12.92,6.67h0s-.07-.14-.08-.14h0s0-.02,0-.02l.18-.29h.01c.12.14.17.23.19.36h0s0,.01,0,.01c-.01.02-.29.07-.29.07ZM12.86,6.52s.06.09.07.12c.04,0,.21-.05.25-.06-.02-.11-.06-.2-.17-.31l-.16.25Z"/>
        </g>
        <g>
          <path class="cls-5" d="M12.38,11s.33-.38.97-.3c-.1-.16-.41-.14-.41-.14,0,0-.1-.73-.02-.77.08-.04.4,0,.4,0,.04,0,.11-.11.06-.19-.06-.07-.23-.35-.16-.4.07-.05.45.03.45.03l-1.06-1.36s-.11-.51.11-.76c.26-.22.24-.45.23-.45-.04-.24-.4-.41-.64-.19-.14.17-.05.31-.05.31,0,0-.38.1-.4.17-.02.07.43-.01.43-.01l-.04.3s-.86.78-.2,1.46c0,0,.02-.03.02-.03,0,0,.23.29.48.35.23.24.21.2.21.2,0,0,.05.37,0,.44-.06-.02-.64-.04-.73,0-.08.02-.38,0-.3.5.06-.13.11-.25.11-.25,0,0,0,.18.06.24-.01-.19.07-.31.07-.31,0,0,.02.21.06.24.05.03.05-.33.3-.3.25.03.43.02.43.02,0,0,.08.71.06.78-.18-.04-.61.02-.64.13.25-.02.37.02.37.02,0,0-.21.18-.14.29Z"/>
          <path class="cls-5" d="M12.37,11.02v-.02c-.07-.09.06-.23.11-.28-.05,0-.16-.02-.34,0h-.02s0-.02,0-.02c.03-.12.46-.18.64-.14.01-.08-.03-.48-.06-.74-.05,0-.21,0-.42-.02,0,0-.02,0-.03,0-.14,0-.19.14-.21.23-.01.04-.02.07-.04.07,0,0-.01,0-.02,0-.04-.02-.05-.13-.06-.2-.02.05-.05.14-.05.26v.03s-.02-.02-.02-.02c-.05-.04-.06-.13-.07-.19-.02.05-.05.12-.08.19l-.02.05v-.05c-.08-.44.16-.49.27-.51.01,0,.03,0,.04,0,.09-.03.63-.01.73,0,.03-.07,0-.31,0-.42-.02-.02-.07-.06-.2-.2-.21-.06-.42-.28-.47-.34,0,.02-.01.02-.02.02h0s0,0,0,0c-.17-.18-.26-.38-.25-.6.01-.45.41-.83.45-.88l.04-.28c-.11.02-.38.06-.42.02,0,0,0-.02,0-.02.01-.07.29-.15.39-.17-.02-.04-.06-.16.06-.31.11-.1.27-.13.41-.08.13.05.23.15.25.27h0s.03.25-.23.47c-.2.23-.11.7-.1.74l1.09,1.39h-.04c-.15-.04-.39-.08-.43-.04,0,0,0,.01-.01.02,0,.08.11.29.17.36.03.04.03.09,0,.14-.02.03-.05.07-.08.07-.09-.01-.33-.03-.39,0-.04.02-.02.4.03.74,0,0,.01,0,.02,0,.08,0,.31.01.39.15l.02.02h-.03c-.62-.08-.95.28-.96.29h-.01ZM12.28,10.68c.16,0,.23.02.24.02h.03s-.02.02-.02.02c-.05.04-.17.17-.15.25.06-.06.33-.3.79-.3.05,0,.09,0,.14,0-.09-.1-.28-.11-.35-.11-.02,0-.03,0-.03,0h-.01s0-.01,0-.01c-.02-.17-.09-.75-.01-.78.08-.04.39,0,.4,0,0,0,.03-.02.05-.05,0-.02.03-.07,0-.11-.04-.05-.19-.28-.18-.38,0-.02,0-.03.02-.04.06-.05.32,0,.42.02l-1.04-1.34s-.11-.52.11-.77c.22-.18.23-.37.23-.42h0s0-.02,0-.02c-.02-.11-.11-.21-.24-.26-.14-.05-.28-.02-.38.07-.14.16-.05.29-.05.29v.02s0,0,0,0c-.18.05-.38.12-.38.16.02.02.23,0,.41-.03h.02s0,.02,0,.02l-.04.31h0s-.43.4-.45.86c0,.21.07.4.23.57,0,0,0-.01,0-.02v-.02s.02.02.02.02c0,0,.23.28.47.34h0c.17.18.2.2.2.2h0s.01,0,.01,0h0s0,.01,0,.01c0,.07.04.37,0,.44h0s-.01,0-.01,0c-.06-.02-.64-.04-.72,0-.01,0-.02,0-.04,0-.11.02-.3.06-.26.43.05-.11.09-.2.09-.2h.03s0,.13.03.2c0-.17.07-.27.07-.28l.02-.04v.04c0,.08.03.2.05.22,0,0,.01-.03.02-.05.03-.09.08-.25.24-.25,0,0,.02,0,.03,0,.24.03.43.02.43.02h.01s0,.01,0,.01c0,.07.08.71.06.78h0s-.01,0-.01,0c-.17-.04-.54.01-.61.1.04,0,.08,0,.11,0Z"/>
        </g>
        <g>
          <path class="cls-4" d="M12.48,7.13s-.63.69-.36,1.22c.01-.07,0-.12.02-.12-.02,0,.08.06.07.05,0-.04-.03-.12-.03-.12.03,0,.06.01.08.02-.02-.03-.03-.06-.05-.09.04,0,.08,0,.12.01,0,0-.04-.11-.03-.11s.1,0,.1,0c-.18-.32-.01-.59.07-.87Z"/>
          <path class="cls-4" d="M12.13,8.4l-.02-.04c-.27-.53.35-1.23.36-1.24h.02c-.02.07-.04.13-.06.19-.08.22-.15.44-.01.69v.02s-.01,0-.01,0c-.02,0-.06,0-.09,0,0,.02.02.06.03.09v.02s-.11-.01-.11-.01c.01.02.02.05.04.07l.02.03-.09-.02s.02.07.02.1h0s-.01.02-.01.02c0,0,0,0,0,0-.02,0-.04-.02-.06-.04,0,0,0,0,0,0,0,.02,0,.05-.01.09v.04ZM12.44,7.2c-.13.17-.5.69-.33,1.11,0-.02,0-.03,0-.04,0-.01,0-.02,0-.03h0s.02-.02.02-.02h.01s0,.01,0,.01h0s.03.02.05.03c0-.03-.02-.07-.03-.09v-.02s.07.02.07.02c-.01-.02-.02-.04-.03-.06v-.02s.11.02.11.02c-.03-.09-.02-.1-.02-.1h0s0,0,0,0c0,0,.05,0,.08,0-.13-.25-.05-.47.02-.69.01-.04.02-.07.04-.11Z"/>
        </g>
        <g>
          <path class="cls-4" d="M12.7,6.54s.03.24-.1.31c-.02.02-.1.04-.09.09.02.07.05.05.1.04.14-.02.29-.31.08-.44Z"/>
          <path class="cls-4" d="M12.56,7s-.02,0-.03,0c-.02,0-.03-.03-.03-.05-.01-.05.04-.08.08-.09,0,0,.01,0,.02-.01.12-.06.09-.29.09-.29v-.03s.02.02.02.02c.08.05.12.14.1.23-.02.11-.11.22-.19.23h0s-.03,0-.05,0ZM12.71,6.57c0,.07,0,.23-.11.29,0,0-.01,0-.02.01-.04.02-.07.04-.06.06,0,.02.01.03.02.04.01,0,.03,0,.06,0h0c.07-.01.15-.11.17-.21,0-.05.01-.13-.07-.19Z"/>
        </g>
        <circle class="cls-2" cx="12.42" cy="6.75" r=".05"/>
        <g>
          <path class="cls-1" d="M12.26,6.94s-.21.21-.04.27c.18-.05.13-.08.17-.12,0-.08-.09-.1-.13-.15Z"/>
          <path class="cls-5" d="M12.22,7.23h0s-.08-.05-.08-.09c-.01-.09.09-.19.12-.21h.01s0,0,0,0c.01.02.03.03.05.04.04.03.08.06.08.12h0s0,.01,0,.01c0,0-.01.02-.02.03-.01.04-.03.06-.16.1h0ZM12.26,6.96s-.1.12-.09.18c0,.03.02.05.06.06.12-.03.13-.06.14-.08,0,0,0-.02.02-.03,0-.04-.03-.07-.07-.09-.02-.01-.03-.02-.05-.04Z"/>
        </g>
        <g>
          <path class="cls-4" d="M12.64,8.65s-.05.18,0,.3c.15-.06.22-.05.27-.01-.12-.1-.17-.14-.28-.28Z"/>
          <path class="cls-4" d="M12.64,8.97h0c-.05-.12-.02-.26,0-.31v-.04s.03.02.03.02c.11.14.15.18.27.28l-.02.02s-.11-.05-.26.01h-.01ZM12.65,8.69c-.01.06-.03.16,0,.24.07-.03.12-.04.16-.04,0,0,.02,0,.03,0-.07-.06-.12-.11-.2-.21Z"/>
        </g>
        <g>
          <path class="cls-2" d="M12.9,9.34v.34s.13.02.18,0c.05-.02,0-.24-.18-.34Z"/>
          <path class="cls-2" d="M13.01,9.7c-.05,0-.1,0-.11,0h-.01s0-.01,0-.01v-.36s.01.01.01.01c.14.08.21.24.21.31,0,.03-.02.04-.03.05-.02,0-.05.01-.07.01ZM12.92,9.66s.11.01.15,0c0,0,0-.01,0-.02,0-.07-.05-.2-.17-.27v.3Z"/>
        </g>
        <g>
          <path class="cls-4" d="M13.75,9.38s-.22-.52-.77-.66c-.55-.13-.48-.72-.44-.76.02-.05.04-.13.2-.05.16.08.9.45,1,.46.11.02.02,1.02,0,1.01Z"/>
          <path class="cls-5" d="M13.75,9.4h0s-.22-.53-.76-.66c-.31-.07-.42-.29-.46-.46-.03-.15-.01-.3.01-.33h0s.03-.07.06-.08c.04-.02.09,0,.15.03.04.02.11.05.2.1.27.13.72.35.8.37.03,0,.04.04.05.13.02.21-.01.89-.04.91h0ZM12.64,7.89s-.02,0-.03,0c-.03,0-.04.04-.05.06v.02s-.05.16-.01.32c.04.15.15.35.44.42.46.11.7.5.76.62.02-.17.07-.83,0-.94,0,0,0,0,0,0-.08-.01-.52-.23-.81-.37-.09-.04-.16-.08-.2-.1-.04-.02-.08-.03-.1-.03Z"/>
        </g>
        <g>
          <path class="cls-1" d="M13.23,8.72s.74.44.52.82c.21-.14.14-.39.14-.39,0,0,.17.46-.25.68.05.04.08.03.08.03l-.07.07s-.03.05.25-.08c-.08.06-.08.11-.08.11,0,0,.02.06.21-.1-.15.16-.18.25-.18.24.41-.04,1.29-1.36-.28-1.75.08.09.07.08.07.08l-.4.3Z"/>
          <path class="cls-5" d="M13.83,10.11h0s0,0,0,0v-.02s0,0,0,0c.02-.04.05-.09.1-.14-.04.03-.08.04-.1.03-.02,0-.02-.02-.02-.02h0s0,0,0,0c0,0,0-.03.03-.06-.18.08-.19.06-.2.05,0,0,0-.02,0-.02l.05-.05s-.03-.01-.05-.03h-.02s.02-.02.02-.02c.26-.14.29-.36.28-.51-.01.08-.05.18-.16.24l-.02-.02c.09-.14.07-.4-.48-.78-.04-.03-.04-.03-.04-.04h0s0-.01,0-.01l.38-.29s-.03-.03-.06-.06l-.03-.04h.05c.84.22.93.68.91.94-.03.44-.41.84-.63.86ZM14.01,9.84l.02.02c-.07.08-.13.16-.17.22.21-.05.54-.42.58-.83.03-.42-.26-.73-.84-.88.01.01.02.02.03.03h0s0,0,0,0h0s0,.02,0,.02h-.01s0,0,0,0l-.37.28s0,0,.02.01c.42.29.59.55.51.76.15-.14.09-.33.09-.34h.03s.17.45-.24.68c.03.02.05.02.04.01h.05s-.09.08-.09.08c.03,0,.08-.03.22-.09v.02s-.06.08-.06.09c0,0,0,0,0,0,.02,0,.07-.01.18-.11Z"/>
        </g>
        <g>
          <path class="cls-2" d="M13.26,8.59c.1.07.14.1.15.13-.09-.02-.18-.02-.18-.02,0,0-.2-.19-.24-.21-.03,0-.18-.1-.18-.1-.08-.04-.15-.31.14-.23.3.14.34.15.34.15.12.04.24.07.36.11.07.08.14.15.21.23,0,0-.36-.18-.41-.18.1.08.16.19.16.19-.12-.03-.22-.06-.34-.08Z"/>
          <path class="cls-5" d="M13.43,8.74h-.02c-.09-.03-.17-.02-.17-.02h0s0,0,0,0c-.08-.07-.2-.19-.23-.21-.04,0-.15-.08-.19-.1-.05-.03-.09-.13-.07-.2.01-.04.06-.1.22-.06.29.14.34.15.34.15l.1.03c.09.03.17.05.26.08h0s.21.23.21.23l-.02.02c-.1-.05-.26-.13-.35-.16.07.07.11.15.11.15v.03s-.05-.02-.05-.02c-.08-.02-.16-.05-.24-.06.07.05.09.07.1.1v.02ZM13.26,8.69s.07,0,.12.01c-.02-.02-.05-.05-.12-.09h-.01s0-.04,0-.04c.11.02.2.04.31.07-.02-.04-.07-.11-.14-.16l-.03-.03h.04s.24.1.35.16l-.15-.17c-.08-.03-.17-.05-.25-.08l-.1-.03s-.05-.01-.34-.15c-.1-.03-.16-.01-.18.04-.02.06.02.15.06.17.07.05.16.1.18.1h0s.2.17.24.21c0,0,.01,0,.03,0Z"/>
        </g>
        <g>
          <path class="cls-5" d="M11.84,6.97s.35-.08.39-.07"/>
          <path class="cls-2" d="M11.84,6.99v-.03s.3-.07.38-.07c0,0,.01,0,.02,0v.03s-.01,0-.02,0c-.05,0-.22.04-.38.07Z"/>
        </g>
      </g>
    </g>
  </g>
</svg>