<?xml version="1.0" encoding="UTF-8"?>
<svg id="Layer_2" data-name="Layer 2" xmlns="http://www.w3.org/2000/svg" viewBox="0 0 25.51 17.01">
  <defs>
    <style>
      .cls-1, .cls-2 {
        fill: #d91f26;
      }

      .cls-3, .cls-4, .cls-5 {
        fill: #fff;
      }

      .cls-3, .cls-6, .cls-2, .cls-7, .cls-8, .cls-5, .cls-9, .cls-10 {
        stroke-width: .03px;
      }

      .cls-3, .cls-6, .cls-2, .cls-8, .cls-10 {
        stroke: #010101;
      }

      .cls-6, .cls-11 {
        fill: #fcdc00;
      }

      .cls-7, .cls-12, .cls-10 {
        fill: #010101;
      }

      .cls-7, .cls-5 {
        stroke: #fff;
      }

      .cls-8, .cls-9 {
        fill: #9ca69c;
      }

      .cls-9 {
        stroke: #9ca69c;
      }
    </style>
  </defs>
  <g id="Layer_1-2" data-name="Layer 1">
    <g>
      <path class="cls-12" d="M0,0h25.51v17.01H0V0Z"/>
      <path class="cls-11" d="M0,2.83h25.51v4.25H0V2.83ZM0,11.34h25.51v5.67H0v-5.67Z"/>
      <path class="cls-1" d="M0,5.67h25.51v2.83H0v-2.83ZM0,14.17h25.51v2.83H0v-2.83Z"/>
      <circle class="cls-4" cx="12.76" cy="8.5" r="2.65"/>
      <g>
        <path class="cls-2" d="M12.29,6.47l-.17-.32c.07-.07.18-.12.36-.12,0,.01-.02.35-.02.35l-.17.09Z"/>
        <path class="cls-6" d="M12.45,6.39l.02-.35s.36-.02.55.21c0,0-.19.27-.19.27l-.38-.13Z"/>
        <path class="cls-2" d="M12.84,6.52l.17-.27c.12.12.17.21.18.34,0,0-.28.07-.28.07s-.08-.14-.08-.14Z"/>
        <path class="cls-10" d="M12.38,11s.33-.38.97-.3c-.1-.16-.41-.14-.41-.14,0,0-.1-.73-.02-.77.08-.04.4,0,.4,0,.04,0,.11-.11.06-.19-.06-.07-.23-.35-.16-.4.07-.05.45.03.45.03l-1.06-1.36s-.11-.51.11-.76c.26-.22.24-.45.23-.45-.04-.24-.4-.41-.64-.19-.14.17-.05.31-.05.31,0,0-.38.1-.4.17-.02.07.43-.01.43-.01l-.04.3s-.86.78-.2,1.46c0,0,.02-.03.02-.03,0,0,.23.29.48.35.23.24.21.2.21.2,0,0,.05.37,0,.44-.06-.02-.64-.04-.73,0-.08.02-.38,0-.3.5.06-.13.11-.25.11-.25,0,0,0,.18.06.24-.01-.19.07-.31.07-.31,0,0,.02.21.06.24.05.03.05-.33.3-.3.25.03.43.02.43.02,0,0,.08.71.06.78-.18-.04-.61.02-.64.13.25-.02.37.02.37.02,0,0-.21.18-.14.29Z"/>
        <path class="cls-9" d="M12.48,7.13s-.63.69-.36,1.22c.01-.07,0-.12.02-.12-.02,0,.08.06.07.05,0-.04-.03-.12-.03-.12.03,0,.06.01.08.02-.02-.03-.03-.06-.05-.09.04,0,.08,0,.12.01,0,0-.04-.11-.03-.11s.1,0,.1,0c-.18-.32-.01-.59.07-.87Z"/>
        <path class="cls-9" d="M12.7,6.54s.03.24-.1.31c-.02.02-.1.04-.09.09.02.07.05.05.1.04.14-.02.29-.31.08-.44Z"/>
        <circle class="cls-4" cx="12.42" cy="6.75" r=".05"/>
        <path class="cls-2" d="M12.26,6.94s-.21.21-.04.27c.18-.05.13-.08.17-.12,0-.08-.09-.1-.13-.15Z"/>
        <path class="cls-9" d="M12.64,8.65s-.05.18,0,.3c.15-.06.22-.05.27-.01-.12-.1-.17-.14-.28-.28Z"/>
        <path class="cls-5" d="M12.9,9.34v.34s.13.02.18,0c.05-.02,0-.24-.18-.34Z"/>
        <path class="cls-8" d="M13.75,9.38s-.22-.52-.77-.66c-.55-.13-.48-.72-.44-.76.02-.05.04-.13.2-.05.16.08.9.45,1,.46.11.02.02,1.02,0,1.01Z"/>
        <path class="cls-2" d="M13.23,8.72s.74.44.52.82c.21-.14.14-.39.14-.39,0,0,.17.46-.25.68.05.04.08.03.08.03l-.07.07s-.03.05.25-.08c-.08.06-.08.11-.08.11,0,0,.02.06.21-.1-.15.16-.18.25-.18.24.41-.04,1.29-1.36-.28-1.75.08.09.07.08.07.08l-.4.3Z"/>
        <path class="cls-3" d="M13.26,8.59c.1.07.14.1.15.13-.09-.02-.18-.02-.18-.02,0,0-.2-.19-.24-.21-.03,0-.18-.1-.18-.1-.08-.04-.15-.31.14-.23.3.14.34.15.34.15.12.04.24.07.36.11.07.08.14.15.21.23,0,0-.36-.18-.41-.18.1.08.16.19.16.19-.12-.03-.22-.06-.34-.08Z"/>
        <path class="cls-7" d="M11.84,6.97s.35-.08.39-.07"/>
      </g>
    </g>
  </g>
</svg>