<?xml version="1.0" encoding="UTF-8"?>
<svg id="Layer_2" data-name="Layer 2" xmlns="http://www.w3.org/2000/svg" viewBox="0 0 25.51 17.01">
  <defs>
    <style>
      .cls-1 {
        fill: #d4202c;
      }

      .cls-2 {
        fill: #198056;
      }

      .cls-3 {
        fill: #010101;
      }

      .cls-4 {
        fill: #f8991d;
      }
    </style>
  </defs>
  <g id="Layer_1-2" data-name="Layer 1">
    <g>
      <path class="cls-1" d="M0,0h25.51v17.01H0V0Z"/>
      <path class="cls-3" d="M19.44,0h6.07v17.01h-6.07V0Z"/>
      <path class="cls-4" d="M22.47,0h3.04v17.01h-3.04V0Z"/>
      <path class="cls-2" d="M0,0h25.51v6.07h-9.11v10.93H0V0Z"/>
      <g>
        <g>
          <path class="cls-4" d="M20.88,4.1s.12.06.12.06c.07-.04.21-.02.22-.03.01-.01.03-.03.03-.03v-.15s-.06.06-.08.05c.05-.23-.02-.36-.19-.66,0,.18,0,.34-.02.45.03.09.02.08.03.17-.03-.02-.07-.06-.1-.1,0,0-.02.2,0,.24ZM21.55,3.67c.07.12.14.09.16.14-.07.04-.16-.08-.21-.09-.05.03.16.29.16.31,0,0-.11,0-.21-.08v.1s.01.03.14.03c.1.01.11.15.08.11-.02-.04-.1-.06-.1-.06,0,0-.07,0-.05.05.13.04.1.15.08.21-.02.06-.1.06-.1.06,0,0,.06-.07,0-.09-.11.02-.12-.1-.12-.1,0,0-.02-.04-.06,0,.04.2-.08.22-.08.22,0,0-.02.06.02.1-.12,0-.08-.1-.09-.13-.01,0-.05-.05,0-.18-.08.13-.17.08-.17.08,0,0,0,.04.01.1-.07-.05-.07-.07-.07-.16,0-.02,0-.03,0-.05-.01.01-.03.03-.05.04.11.14-.02.22-.02.22,0,0-.01.07.04.11-.1,0-.1-.09-.1-.09,0,0-.09-.04-.09-.19,0,.17-.14.18-.14.18,0,0-.02.04.01.08-.11-.02-.07-.13-.07-.13,0,0-.08-.05.06-.18-.15.11-.25.08-.27.08,0,0-.02.02-.05.07-.01-.08,0-.1,0-.1,0,0,.02-.17.2-.17.18,0,.2-.13.22-.19-.03.02-.04.02-.05.02-.03-.01.07-.35.04-.45.03.29-.17.41-.17.37.03-.09.03-.18.05-.26.02-.08.06-.15.06-.19-.02.05-.09.12-.09.12-.02.01.04-.12.01-.1-.05.03-.37.08-.47-.07,0-.07.31-.21.29-.19-.05.03-.64.25-.63.12-.03-.03.34-.24.33-.23,0,0-.32.16-.33.16-.01,0-.26.08-.31.01,0-.02.72-.38.72-.43-.05.07-.56.33-.58.34-.02.01-.32.1-.42.02-.02-.02.4-.21.38-.26-.16.14-.29.18-.41.2-.07,0-.14.01-.19,0-.11-.02-.18-.08-.18-.09,0-.01.31-.07.37-.15-.63.2-.85.01-.84-.01,0,0,.15-.02.16-.02,0,0,.39-.13.4-.14,0,0-.4.12-.61.11-.24-.01-.36-.1-.35-.12,0-.01.15-.03.18-.03.03,0,.44-.13.46-.14.03-.02-.29.08-.34.08-.45.02-.51-.09-.5-.12,0,0,.16-.03.18-.02.03,0,.31-.05.31-.06.01,0-.27.06-.29.05-.78-.17-.92-.46-.92-.52,0-.06.08.05.2.11.27.1.83.31.82.3-.3-.1-.64-.25-.73-.29-.17-.07-.3-.3-.26-.32.04-.02.24.19.41.24.03.01.89.34.89.34,0-.02-.74-.27-.81-.31-.38-.15-.43-.48-.41-.51.05-.01.18.16.28.21.06.03.18.1.98.43,0,0-.52-.23-.59-.26-.13-.09-.24-.2-.32-.33-.05-.08-.05-.16-.03-.16.04,0,.19.12.38.18.26.11.54.22.85.39.02,0-.33-.31-.27-.33.05-.04.54.27,1.02.39.18.03.67.09.85.17-.04-.03-.04-.03-.05-.04.14-.64.72-.56.86-.41.43.04.27.22.19.25.04-.13-.14-.09-.21-.14l.16.06s-.06.01-.13.02c-.08.01-.22.08-.09.33,0,0,.18-.1.86-.05.07,0,.47-.12.59-.16.2-.03.83-.16,1-.28.12-.01-.03.2-.18.25,0,0,1.12-.44,1.22-.52.05.05-.42.57-1.32.76.82-.18,1.52-.73,1.66-.72.04,0,.03.54-1.85,1.01,1.3-.31,2.04-.88,2.04-.82,0,.03-.13.45-1.27.79.32-.07,1.18-.55,1.17-.46.03.04-.83,1.05-2.39.72,1.24.3,2.05-.42,2.16-.41.02,0-.23.62-1.8.66.75-.07.53,0,.53,0,0,0-.44.32-.98.1.42.11.46.11.47.14-.03.04-.37.11-.7-.06.22.09.51.12.51.16-.04.04-.19.07-.27.05-.08-.02-.22-.09-.38-.25.15.18.55.36.48.43-.16.07-.51-.11-.64-.2.2.23.38.22.31.3-.16.07-.41-.13-.47-.18,0,.02.17.11.11.16-.15,0-.3-.15-.3-.15.01.03.02.05.03.08Z"/>
          <path class="cls-3" d="M20.91,4.63h0c-.09,0-.1-.07-.11-.1-.02,0-.06-.04-.08-.11-.03.08-.1.1-.13.1,0,.01,0,.03.01.06,0,0,0,.01,0,.02s0,0-.01,0c-.03,0-.06-.02-.07-.05-.02-.03-.01-.07-.01-.09,0,0-.02-.02-.02-.05,0-.02,0-.05.03-.08-.1.05-.17.04-.2.04,0,0-.02.03-.05.07,0,0,0,0-.01,0,0,0,0,0-.01-.01,0-.07,0-.09,0-.1,0-.03.04-.18.22-.18h0c.14,0,.18-.09.2-.15-.01,0-.02,0-.03,0-.02,0-.02-.04,0-.18,0,0,0,0,0,0-.03.05-.07.09-.09.1-.02.01-.03.01-.04,0,0,0,0-.01,0-.02.02-.05.03-.11.03-.15,0-.04.01-.07.02-.11,0-.04.02-.07.03-.1-.02.02-.04.04-.05.05,0,0-.01,0-.02,0-.01,0,0-.02,0-.06,0,0,0-.02,0-.03-.05.02-.18.04-.3.02-.08-.02-.14-.05-.17-.1,0,0,0,0,0,0,0-.03.04-.06.09-.1-.16.05-.35.1-.41.07-.01,0-.02-.02-.02-.04,0,0,0,0,0-.01,0,0,0-.02.07-.07-.03.01-.04.02-.05.02-.01,0-.28.08-.33,0,0-.01,0-.02.07-.06-.1.02-.27.05-.34,0,0,0,0,0,0-.01,0-.01.01-.02.07-.06-.03,0-.05.01-.08.02-.08.01-.15.01-.2,0-.1-.02-.19-.08-.19-.11,0-.01.01-.02.09-.04.06-.02.15-.04.21-.07-.48.13-.71.03-.76-.03-.01-.01-.01-.02,0-.03,0-.01.02-.01.1-.02.03,0,.06,0,.07,0,0,0,.02,0,.09-.03-.11.02-.22.04-.3.03-.22-.01-.33-.08-.36-.11,0,0,0-.02,0-.02,0-.01,0-.02.18-.04h0s.05-.01.1-.03c-.04,0-.07,0-.1,0-.29,0-.37-.07-.39-.1-.01-.01-.01-.03,0-.04,0-.01.07-.02.12-.03-.69-.17-.85-.43-.85-.52,0-.01,0-.02.01-.03.02,0,.04,0,.08.04.03.03.08.06.13.09,0,0,.01,0,.02,0-.12-.08-.21-.22-.21-.28,0-.02,0-.03.01-.03,0,0,0,0,.01,0,.03,0,.07.03.15.09.04.03.08.06.12.09-.12-.1-.19-.23-.2-.33,0-.03,0-.06,0-.08,0,0,.01,0,.02,0,.03,0,.07.04.14.1.05.04.1.09.14.11.04.02.11.06.34.16-.11-.09-.21-.19-.29-.31-.04-.07-.05-.14-.04-.16.02-.03.06,0,.14.04.07.04.16.09.26.13.26.1.51.21.78.35-.01-.01-.02-.02-.03-.03-.14-.14-.21-.21-.2-.25,0,0,0-.02.02-.02.03-.02.1.02.3.11.2.09.47.22.73.29h.07c.19.04.52.08.71.14h0c.08-.35.27-.47.42-.51.18-.05.38,0,.46.09.18.02.28.06.29.14,0,.06-.06.12-.11.14,0,0-.01,0-.01,0,0,0,0,0,0-.01,0-.02,0-.04,0-.06,0,0-.01-.01-.02-.02,0,0,0,0,0,0-.05.02-.07.01-.13.02-.02,0-.09.02-.12.07-.03.05-.02.13.03.22.05-.02.27-.09.86-.05,0,0,0,0,0,0,.07,0,.35-.09.49-.13.03-.01.06-.02.08-.03.21-.04.83-.16,1-.28,0,0,.01,0,.02,0,.04,0,.04.02.05.03,0,.04-.04.11-.1.17.31-.12,1-.4,1.08-.46,0,0,.01,0,.02,0,0,0,0,.02,0,.04-.02.05-.12.18-.33.32.1-.06.2-.11.28-.16.18-.1.3-.17.37-.17,0,0,0,0,0,0,0,0,.02,0,.02.04,0,.01,0,.17-.32.4.13-.07.24-.13.32-.17.14-.08.16-.09.18-.08,0,0,0,.01,0,.02,0,0-.03.17-.33.38.14-.06.2-.08.22-.06,0,0,0,.01,0,.02,0,0,0,.02-.01.04-.04.06-.14.17-.3.29.03-.02.05-.02.07-.02,0,0,.02.01.02.02,0,.08-.27.49-1.24.63,0,0,0,0,0,0,0,0,0,.02-.04.03,0,0-.24.17-.58.18.07.02.08.03.08.05,0,0,0,0,0,.01-.02.03-.11.05-.23.05.03.01.04.02.04.03,0,0,0,0,0,.01-.04.05-.2.08-.29.06-.01,0-.02,0-.04-.01.1.07.16.12.16.16,0,.01,0,.02-.01.03-.15.07-.43-.07-.58-.15.07.06.13.1.18.13.05.03.08.04.08.07,0,.02,0,.03-.02.05,0,0,0,0,0,0-.11.05-.24-.01-.35-.08,0,0,0,.01,0,.02,0,0,0,.02-.02.03,0,0-.01,0-.02,0-.1,0-.2-.07-.26-.11,0,0,0,.01,0,.02.04.07.08.08.11.1.02,0,.04.02.05.04,0,0,0,.01,0,.02-.05.03-.11-.01-.16-.05-.02-.02-.04-.03-.05-.04,0,.04.07.16.12.22.04.06.05.07.05.08,0,0,0,0,0,0,0,0,0,0-.02,0-.03,0-.11-.02-.19-.06v.07h0s.02.02.12.02c.07.01.1.08.11.12,0,.02,0,.03-.01.03,0,0-.01,0-.02-.01-.02-.03-.08-.05-.1-.06,0,0-.03,0-.03.01,0,0,0,0,0,0,.04.02.07.04.09.07.02.04.02.09,0,.15-.02.06-.1.07-.11.07,0,0-.01,0-.01,0,0,0,0-.01,0-.01,0,0,.03-.04.02-.05,0,0,0,0,0-.01-.03,0-.06,0-.08-.01-.04-.03-.05-.08-.05-.09h0s0,0-.01,0c0,0-.01,0-.02.01.02.08,0,.14-.02.18-.02.03-.05.04-.06.05,0,.01,0,.05.02.07,0,0,0,0,0,.02,0,0,0,0-.01,0h0c-.1,0-.1-.07-.1-.11,0,0,0-.02,0-.02,0,0-.01-.01-.02-.02,0-.02-.02-.05,0-.1-.05.04-.1.04-.12.04,0,.02,0,.04.01.08,0,0,0,.01,0,.02,0,0-.01,0-.02,0-.03-.02-.04-.04-.06-.06,0,0,0,0,0,.01,0,.05-.05.09-.06.1,0,.02,0,.06.04.09,0,0,0,.01,0,.02,0,0,0,0-.01,0ZM20.74,4.35c0,.13.08.17.09.17,0,0,0,0,0,.01,0,0,0,.05.04.07-.02-.04-.02-.08-.02-.09,0,0,0,0,0,0,0,0,.04-.03.05-.08,0-.04,0-.08-.04-.12,0,0,0,0,0-.01,0,0,0,0,0,0,.01,0,.03-.02.04-.03,0,0,.01,0,.02,0,0,0,0,0,0,.01,0,.01,0,.03,0,.04,0,.07,0,.1.03.13,0-.04,0-.06,0-.06,0,0,0,0,0-.01,0,0,0,0,.01,0,0,0,.08.04.15-.08,0,0,.01,0,.02,0,0,0,0,.01,0,.02-.05.11-.02.15-.01.16,0,0,0,0,0,0,0,0,0,.02,0,.04,0,.03,0,.07.04.08-.02-.04,0-.08,0-.08,0,0,0,0,.01,0,0,0,.03,0,.05-.04.02-.04.03-.09.01-.17,0,0,0,0,0-.01.02-.02.04-.02.05-.02.02,0,.03.02.03.02,0,0,0,.06.04.08.02.01.04.01.06,0,0,0,0,0,0,0,.01,0,.02.02.03.03,0,.02,0,.04-.01.05.02,0,.05-.02.06-.05.02-.06.02-.1,0-.13-.01-.03-.04-.05-.08-.06,0,0,0,0,0,0,0-.02,0-.03,0-.04.02-.02.05-.03.06-.03.01,0,.06.02.1.05,0,0,0-.02-.01-.03-.01-.02-.03-.04-.07-.04-.1,0-.14-.02-.14-.04v-.1s0-.01,0-.01c0,0,0,0,.01,0,.07.05.14.07.18.07,0-.01-.02-.03-.03-.05-.07-.11-.13-.2-.12-.24,0,0,0-.02.01-.02,0,0,0,0,0,0,.02,0,.05.02.08.04.04.03.08.06.11.05,0,0-.01,0-.03-.02-.03-.01-.07-.03-.12-.11,0,0,0,0,0,0-.01-.02-.02-.05-.03-.08,0,0,0-.01,0-.02,0,0,.01,0,.02,0,.02.02.15.15.28.15h0s0,0,0,0c0-.02-.05-.06-.08-.09-.03-.03-.05-.04-.05-.05,0,0,0-.01,0-.01,0,0,.01,0,.01,0,.03.02.29.24.46.18,0,0,0-.02,0-.02,0-.01-.03-.03-.07-.05-.06-.04-.16-.09-.25-.21,0,0,0-.01,0-.02,0,0,.01,0,.02,0,.21.13.5.26.63.2,0,0,0,0,0,0,0-.03-.1-.1-.2-.17-.1-.07-.22-.15-.28-.23,0,0,0-.01,0-.02,0,0,.01,0,.02,0,.17.16.3.23.38.25.08.02.21-.01.25-.04-.02-.01-.08-.02-.14-.04-.11-.01-.24-.04-.36-.1,0,0,0-.01,0-.02,0,0,0,0,.02,0,.11.04.24.07.34.1,0,0,0,0,.01,0,.17.02.3,0,.33-.03-.01-.01-.06-.03-.18-.06-.09,0-.18-.03-.28-.07,0,0,0-.01,0-.02,0,0,0-.01.02,0,.08.02.14.04.2.05.03,0,.05.01.08.02.04,0,.07,0,.1,0,.34,0,.58-.17.59-.17,0,0,0,0,0,0-.01,0-.03,0-.06,0-.14.02-.3.03-.47.03h0s-.01,0-.01-.01,0-.01.01-.01c.26-.02.4-.03.48-.03h0c1.02-.12,1.26-.52,1.3-.6-.03,0-.08.04-.15.07-.06.03-.12.07-.21.11-.2.1-.44.2-.73.25-.3.06-.67.07-1.07-.03,0,0-.01,0-.01-.02s0-.01.02-.01c.46.1.86.07,1.19,0,.19-.05.35-.11.49-.17.13-.06.24-.13.32-.19.24-.16.36-.32.37-.35,0,0,0,0,0,0,0,0,0,0,0,0-.04,0-.2.07-.36.15-.14.08-.33.17-.56.25-.09.03-.16.06-.22.07,0,0-.01,0-.02-.01,0,0,0-.01,0-.02.08-.02.15-.05.22-.07.14-.06.31-.13.46-.21.03-.02.06-.03.09-.04.37-.21.46-.4.48-.45-.03,0-.08.04-.15.08-.13.07-.33.19-.61.31-.23.12-.56.25-1.01.37-.08.02-.17.04-.25.07h0s0,0,0,0c0,0-.01,0-.01-.01,0,0,0-.02,0-.02.09-.02.18-.05.26-.07.39-.11.72-.24.98-.36.45-.22.56-.41.59-.49.01-.04.01-.06,0-.07h0c-.05,0-.18.07-.35.17-.16.09-.37.21-.61.31-.19.09-.42.18-.69.24,0,0,0,0,0,0h0s-.02,0-.02-.01,0-.01.01-.02h0c.24-.05.47-.14.67-.23.35-.17.57-.37.63-.47,0,0,0,0,0-.01-.18.1-1.01.44-1.18.5,0,0-.02,0-.03.01,0,0-.01,0-.02,0,0,0,0-.02,0-.02,0,0,.01,0,.03-.01.11-.05.2-.17.19-.21,0,0,0,0-.02,0h0c-.18.12-.8.24-1,.28-.02,0-.05.02-.08.03-.22.07-.43.14-.5.14,0,0,0,0,0,0-.67-.04-.85.05-.85.05,0,0,0,0-.01,0,0,0,0,0,0,0-.06-.11-.07-.19-.03-.26.04-.07.11-.09.14-.09.04,0,.06,0,.08,0l-.06-.02s-.05-.01-.07-.02c0,0,0-.01,0-.02,0,0,0,0,.02,0l.06.02s.02,0,.03,0c.05,0,.1.02.12.05,0,.01.01.03.01.05.03-.02.07-.06.06-.1,0-.03-.04-.09-.27-.11,0,0,0,0,0,0-.07-.08-.26-.13-.44-.08-.14.04-.32.15-.4.48,0,0,0,0,0,0,0,0,.02.02.04.03,0,0,0,.01,0,.02,0,0-.01,0-.02,0-.16-.07-.56-.13-.78-.16h-.07c-.27-.08-.54-.21-.74-.3-.12-.05-.24-.11-.27-.11,0,0,0,0,0,0,0,.03.13.17.19.22.08.08.09.09.09.1,0,0,0,0,0,.01,0,0,0,0-.01,0-.3-.16-.57-.27-.84-.38-.11-.04-.2-.09-.27-.13-.05-.03-.09-.05-.1-.05,0,0,0,.06.04.13.09.13.19.24.32.33.03.02.2.09.34.15.16.07.22.09.24.11,0,0,0,0,0,0h0s0,0,0,.01c0,0,0,.01,0,.01,0,0,0,0,0,0-.78-.32-.91-.39-.97-.43-.05-.03-.1-.07-.15-.12-.04-.04-.1-.09-.12-.09,0,.01,0,.05.02.11.03.08.12.27.38.37.01,0,.04.02.08.03.02,0,.03.01.05.02,0,0,0,0,0,0,.08.03.18.06.27.1.35.12.4.14.4.16,0,0,0,0,0,.01,0,.02,0,.02-.68-.24-.03-.01-.05-.02-.08-.03-.09-.03-.15-.06-.16-.06-.09-.03-.19-.11-.27-.16-.05-.04-.11-.08-.13-.08,0,0,0,0,0,0,0,0,0,0,0,.03.03.08.13.21.25.26.02,0,.05.02.09.04.07.03.18.08.31.13.09.03.18.06.24.09.04.01.06.02.08.03,0,0,0,0,.01,0h0s.01.01,0,.02c0,0-.01.01-.02,0-.11-.04-.23-.08-.33-.12-.17-.06-.36-.13-.48-.18-.06-.03-.1-.06-.14-.09-.02-.01-.04-.03-.05-.03h0c0,.08.17.35.91.51,0,0,0,0,.01,0,.02,0,.05,0,.08-.01.03,0,.07-.01.1-.02.11-.02.11-.02.11-.01,0,0,0,.01,0,.02,0,0-.11.02-.2.04-.05,0-.08.01-.09.02-.01,0-.02,0-.03,0-.02,0-.13.01-.16.02,0,0,0,0,.01.02.03.03.13.1.48.08.03,0,.12-.03.2-.05.15-.04.15-.04.16-.03,0,0,0,.02,0,.02-.02.02-.44.14-.46.14h0c-.11.01-.15.02-.16.02.02.02.12.08.33.1,0,0,.02,0,.02,0,.16,0,.42-.07.53-.1.06-.02.06-.02.07,0,0,0,0,.01,0,.02,0,0-.03.01-.23.08-.08.03-.17.05-.18.06,0,0-.03,0-.08.01-.02,0-.06,0-.07,0,.04.04.26.16.81,0,0,0,.01,0,.02,0s0,.01,0,.02c-.05.06-.2.1-.3.12-.02,0-.05.01-.06.02.02.02.07.06.16.07.05,0,.12,0,.19,0,.1-.02.23-.06.4-.2,0,0,0,0,.01,0,0,0,0,0,0,0,.01.03-.04.07-.24.18-.05.03-.11.06-.14.08.09.06.37-.02.39-.03h0c.33-.17.54-.29.57-.33,0,0,0,0,.02,0,0,0,0,0,0,.01,0,.03-.11.1-.49.3-.09.05-.19.1-.22.12.05.04.27-.02.29-.02,0,0,.05-.03.11-.05.08-.04.21-.11.22-.11,0,0,0,0,.01,0,0,0,0,0,0,0,0,0,0,.01,0,.02h0s0,0,0,0c-.27.15-.31.2-.32.21,0,0,0,0,0,0,0,0,0,.01,0,.02.07.04.42-.07.55-.13.03-.01.05-.02.05-.02h0s.01,0,.01,0c0,0,0,.01,0,.02,0,0-.02.01-.05.02-.08.04-.22.12-.23.15.03.04.08.07.15.09.12.02.27,0,.29-.02.01,0,.02,0,.02,0,.01,0,0,.03,0,.07,0,0,0,0,0,0,.02-.02.05-.06.06-.09,0,0,.01,0,.02,0,0,0,.01,0,0,.02,0,.02-.01.05-.03.08-.01.03-.03.07-.04.11,0,.03-.01.07-.02.11,0,.05-.02.09-.03.14.01,0,.03-.02.05-.04.03-.04.11-.14.09-.32,0,0,0-.01.01-.02,0,0,.01,0,.02,0,.02.06,0,.18-.03.29,0,.06-.02.13-.02.15h0s.01,0,.03-.02c0,0,.01,0,.02,0,0,0,0,0,0,.01h0c-.02.07-.05.21-.23.21h0c-.17,0-.19.15-.19.16,0,0,0,0,0,0h0s0,0,0,.04c.02-.03.03-.04.03-.04,0,0,0,0,.01,0,.03,0,.12.02.26-.08,0,0,.01,0,.02,0,0,0,0,.01,0,.02-.07.06-.08.11-.08.13,0,.02.02.03.02.03,0,0,0,0,0,.02,0,0-.01.04,0,.07,0,.01.01.02.02.02-.01-.03,0-.06,0-.06,0,0,0,0,.01,0,0,0,.13-.02.13-.16h0s0-.02.01-.02h0s.01,0,.01.01h0s0,0,0,0ZM20.91,4.29s.01.02.02.03v-.03s0-.01,0-.02c0,0-.01,0-.02.01ZM21,4.17s0,0,0,0c0,0-.08-.03-.12-.06,0,0,0,0,0,0-.02-.04,0-.21,0-.25,0,0,0-.01,0-.01,0,0,.01,0,.02,0,.03.04.05.07.07.08,0,0,0-.02,0-.03,0-.04,0-.05-.02-.12,0,0,0,0,0,0,.01-.1.02-.24.02-.4v-.05s0-.01.01-.01c0,0,.01,0,.02,0,.16.29.24.42.2.65,0,0,.02-.02.04-.05,0,0,0,0,.02,0,0,0,0,0,.01.01v.15s0,0,0,0c0,0-.01.02-.03.04,0,0-.01,0-.05,0-.05,0-.13,0-.18.03,0,0,0,0,0,0ZM20.89,4.09s.09.04.11.05c.05-.03.12-.03.17-.03.01,0,.02,0,.03,0h.02s.02-.02.02-.03v-.11s-.04.03-.06.03c0,0,0,0-.01,0,0,0,0,0,0-.02.04-.21,0-.33-.17-.61,0,.16,0,.3-.02.4.02.06.02.08.02.12,0,.01,0,.03,0,.05,0,0,0,0,0,.01,0,0,0,0-.01,0-.03-.01-.05-.03-.08-.07,0,.07,0,.17,0,.19Z"/>
        </g>
        <path class="cls-3" d="M20.94,4.26h0s-.01,0-.01-.01c0-.05.03-.09.07-.11,0,0,.02,0,.02,0,0,0,0,.01,0,.02-.03.02-.05.05-.05.08,0,0,0,.01-.01.01ZM20.69,4s0,0,0,0c0,0,0-.01,0-.02.05-.05.11-.16.12-.23,0,0,0-.01.01-.01,0,0,.01,0,.01,0h0s.04.07.07.11c0,0,0,.01,0,.02,0,0-.02,0-.02,0-.02-.03-.04-.06-.05-.08-.02.08-.07.17-.12.21,0,0,0,0,0,0ZM21.44,3.97s0,0,0,0c-.04-.03-.1-.08-.13-.16-.01.05-.03.11-.05.14,0,0-.01,0-.02,0,0,0,0-.01,0-.02.03-.06.06-.14.06-.19,0,0,0-.01.01-.01,0,0,.01,0,.01.01.03.11.1.18.14.21,0,0,0,.01,0,.02,0,0,0,0-.01,0ZM21.51,3.6s-.01,0-.01,0c-.01-.02-.02-.05-.03-.07-.02-.07-.05-.16-.14-.27-.05-.04-.09-.09-.13-.14,0,0,0-.01,0-.02,0,0,.01,0,.02,0,.05.05.1.09.13.14.14.11.3.18.37.18,0,0,.01,0,.01,0,0,0,.01,0,.01,0,0-.03-.09-.12-.15-.19-.1-.1-.17-.16-.15-.2,0,0,0,0,.01,0,0,0,.01,0,.01,0,.06.12.38.38.62.38,0,0,.01,0,.02,0,0-.02-.06-.07-.11-.1-.06-.05-.13-.1-.16-.15-.13-.08-.45-.33-.56-.46.02.11.06.3.06.33,0,0,0,.01-.01.01h0s-.01,0-.01-.02c0-.03-.06-.33-.07-.38-.01-.03-.18-.23-.28-.3-.11-.07-.15-.17-.15-.17,0,0,0-.02,0-.02,0,0,.02,0,.02,0,0,0,.04.1.14.16.09.05.22.2.27.27,0,0,0,0,0,0,.11.04.24.02.25.02,0,0,0,0,.01,0h0s0-.01-.05-.03c-.02,0-.03,0-.05-.02,0,0-.01-.01,0-.02,0,0,.01-.01.02,0,.02,0,.03,0,.05.01.12.02.29.01.3.01,0,0,0,0,0,0,0,0,0-.01-.06-.04-.04,0-.07-.02-.09-.04,0,0,0-.01,0-.02,0,0,.01,0,.02,0,.04.01.07.03.09.04.13.03.34.02.34.02,0,0,0-.03-.13-.09,0,0,0-.01,0-.02,0,0,0,0,.02,0,.23.05.37.01.41-.03,0,0,0-.01,0-.02,0-.01-.03-.02-.07-.03-.01,0-.03,0-.04,0,0,0-.01,0-.01-.01s0-.01.01-.01h0s.03,0,.04,0h0c.23,0,.76-.17.9-.23,0,0,.01,0,.02,0,0,0,0,.02,0,.02-.1.04-.33.12-.56.17.12.02.55.1.71.05,0,0,.01,0,.02,0,0,0,0,.01,0,.02-.12.14-.29.17-.44.16.01,0,.03.02.04.03,0,0,0,0,0,0,0,0,0,.02,0,.03-.02.02-.12.03-.23.02.08.03.09.04.1.07,0,0,0,.02-.02.03-.06.03-.39,0-.59-.05.06.03.11.06.15.08.03.02.07.03.1.05.05,0,.21,0,.27,0,0,0,.01,0,.02.01,0,0,0,.01-.01.02-.05,0-.2,0-.27,0h0c-.12.05-.3.09-.6-.06.31.21.6.28.77.32.1.02.16.04.19.07,0,0,0,.01,0,.02-.14.19-.57.04-.95-.16.22.13.45.27.5.27h0s.01,0,.01,0c0,0,0,.01,0,.02-.09.07-.33.04-.51-.05.03.03.07.06.1.08.07.06.13.1.12.14,0,0,0,0-.01,0-.01,0-.02,0-.03,0-.14,0-.29-.08-.42-.17.07.07.11.12.11.16,0,0,0,.02-.03.03,0,0-.01,0-.02,0-.07,0-.2-.05-.32-.13.05.08.08.15.09.2,0,.03.02.05.03.07,0,0,0,.02,0,.02,0,0,0,0,0,0ZM21.86,3.14h0c.15.1.4.16.52.11-.18-.06-.79-.46-.89-.53,0,0,0,0,0,0h0s0,0,0,0c0,0,0-.01,0-.02,0-.01.01,0,.08.04.31.19,1.06.61,1.26.38-.03-.02-.09-.03-.17-.05-.21-.05-.57-.14-.96-.46,0,0,0,0,0,0-.05,0-.11,0-.17,0,0,0,0,0,0,.02,0,.02-.03.03-.03.03,0,0-.13.02-.24-.01,0,0,0,0,0,0,.04.08.44.4.6.5h0s0,0,0,0h0ZM21.74,2.59c.37.23.58.21.71.17-.03-.01-.05-.03-.08-.04-.07-.03-.14-.07-.25-.14-.02,0-.03-.02-.04-.03,0,0,0-.01,0-.02s.01,0,.02,0c.01,0,.02.02.04.03.07.03.25.07.44.09.15.01.21,0,.23,0,0-.03-.02-.03-.22-.09,0,0-.01,0-.02,0-.07-.01-.14-.03-.18-.05,0,0,0-.01,0-.02s.01,0,.02,0c.07.02.13.04.19.05.15.02.33.03.37.01-.04-.03-.06-.04-.12-.06-.1-.02-.18-.05-.18-.05,0,0-.01-.01,0-.02s0-.01.02,0l.09.02s.07.02.09.02c.15.03.35.03.48-.11-.21.03-.7-.06-.71-.07,0,0,0,0,0,0-.09.02-.17.04-.24.04,0,0,.01.01.02.02,0,.01,0,.03,0,.04-.04.05-.17.08-.35.05.07.04.07.06.07.08,0,.02-.02.02-.02.02-.01,0-.16,0-.29,0,.01.01.01.02.01.03,0,.02-.03.03-.03.03,0,0-.01,0-.03,0ZM20.56,3.5s0,0,0,0c0,0,0-.01,0-.02,0,0,.1-.17-.21-.52-.2.15-.31.1-.32.09,0,0,0,0,0-.01,0-.02.07-.11.2-.25-.03-.03-.05-.06-.07-.09-.36.34-.64.26-.68.23-.02-.01-.01-.03-.01-.03,0,0,0,0,0,0,.1-.06.19-.11.28-.18-.36.14-.47.11-.57.08-.02,0-.04-.01-.06-.02,0,0-.01,0-.01-.01,0,0,0-.01,0-.01.1-.04.14-.07.25-.14,0,0,.01,0,.02-.01-.16.06-.35.09-.46.07,0,0-.01,0-.01-.01,0,0,0-.01.01-.01,0,0,.06-.03.12-.07-.1.02-.23.02-.26,0-.01,0-.01-.02-.01-.02,0,0,0-.01.01-.01h0s.08-.06.15-.13c-.09.02-.29.02-.34-.02,0,0,0,0,0-.01,0,0,0,0,.01-.01.07-.02.15-.08.2-.13-.07.02-.19.04-.25,0-.02-.01-.04-.03-.05-.06,0,0,0,0,0-.01,0,0,0,0,.01,0h.01c.1,0,.19-.04.23-.06-.08-.03-.14-.06-.14-.06,0,0,0-.01,0-.02,0,0,0-.01.02,0,0,0,.39.19.57.19,0,0,.01,0,.02,0h0s.01,0,.01,0c0,0,0,.01,0,.02-.03.02-.06.04-.08.05.06.02.16.05.31.02,0,0,.01,0,.02,0s0,.01,0,.02c-.03.03-.06.05-.08.07.05.01.17.03.3-.04,0,0,.01,0,.02,0,0,0,0,.01,0,.02-.03.04-.06.07-.07.09h.1s.01.01.01.02c0,0,0,.01-.01.01h-.13s0,0-.01-.01c0,0,0,0,0-.01,0,0,.02-.03.05-.07-.14.05-.25.02-.29.01,0,0,0,0,0,0-.19.12-.32.2-.38.24.16.02.42-.06.59-.16,0,0,.01,0,.02,0s0,.01,0,.02c-.08.05-.15.09-.19.12-.1.06-.14.09-.22.12,0,0,.01,0,.02,0,.1.03.2.06.56-.08.09-.04.16-.09.22-.13.06-.05.12-.11.16-.17,0,0,0,0,0,0,0,0,0-.01,0-.02,0-.01.01-.03.01-.04,0,0,0-.01.01-.02h0s.01,0,.01.01c0,.01,0,.03-.01.05-.03.08-.09.23.08.4,0,0,0,.01,0,.02-.14.15-.18.21-.19.24.03,0,.13.02.29-.1,0,0,.01,0,.02,0,.07.08.13.16.16.22,0-.03.01-.07.03-.13,0,0,0,0,.01,0,0,0,0,0,.01,0,.03.03.06.05.09.06.02,0,.03.02.04.02,0,0,.03.01.04.02.08.03.24.08.25.2,0,0,0,.01-.01.02,0,0-.01,0-.02-.01-.01-.11-.15-.15-.23-.18-.03,0-.05-.02-.05-.02,0,0-.02-.01-.03-.02-.02-.01-.05-.03-.08-.05-.04.12-.02.16-.02.16,0,0,0,0,0,0,.08.18.03.27.02.27,0,0,0,0-.01,0ZM19.48,2.91s.03.02.07.02c.08.01.3,0,.57-.26,0,0,0,0,0,0-.04-.09-.04-.17-.02-.23-.03.03-.08.09-.15.14-.14.12-.31.23-.48.32ZM18.81,2.56c.06.01.26,0,.31-.04.06-.05.19-.12.21-.12,0,0,0,0,0,0,0,0,.03-.02.06-.05-.15.02-.25-.02-.3-.04h0s-.05.06-.09.09c-.07.07-.15.15-.2.18ZM18.64,2.39c.09.03.29.01.33,0,0,0,.02-.01.03-.02.03-.03.06-.06.09-.1,0,0,0,0,0,0,0,0,.04-.01.08-.03-.11,0-.27-.06-.39-.11-.02.01-.12.08-.25.08,0,.01.02.02.03.02.08.05.28-.02.29-.02,0,0,.01,0,.02,0s0,.01,0,.02c0,0-.12.12-.22.17ZM21.12,3.29s-.01,0-.01-.01c0,0,0-.08-.11-.16-.11-.09-.13-.2-.14-.21,0,0,0-.01.01-.02,0,0,.01,0,.02.01,0,0,.03.11.13.19.11.09.12.18.12.18,0,0,0,.01-.01.02h0ZM20.76,1.87s-.05,0-.08-.01c-.03,0-.06-.01-.09-.01,0,0-.01,0-.01-.01,0,0,0-.01,0-.02.12-.08.18-.07.22-.05.03.01.04.04.04.05,0,0,0,0,0,0-.02.03-.05.04-.08.04ZM20.63,1.82s.03,0,.05,0c.07.01.11.02.13-.01,0,0-.01-.02-.03-.03-.03-.01-.07-.01-.15.03ZM20.83,1.82h0,0ZM20.83,1.82h0,0Z"/>
      </g>
    </g>
  </g>
</svg>