<?xml version="1.0" encoding="UTF-8"?>
<svg id="Layer_2" data-name="Layer 2" xmlns="http://www.w3.org/2000/svg" viewBox="0 0 25.51 17.01">
  <defs>
    <style>
      .cls-1 {
        fill: none;
      }

      .cls-1, .cls-2 {
        stroke: #010101;
        stroke-linecap: round;
        stroke-linejoin: round;
        stroke-width: .03px;
      }

      .cls-3 {
        fill: #d4202c;
      }

      .cls-4 {
        fill: #198056;
      }

      .cls-2, .cls-5 {
        fill: #f8991d;
      }

      .cls-6 {
        fill: #010101;
      }
    </style>
  </defs>
  <g id="Layer_1-2" data-name="Layer 1">
    <g>
      <path class="cls-3" d="M0,0h25.51v17.01H0V0Z"/>
      <path class="cls-6" d="M19.44,0h6.07v17.01h-6.07V0Z"/>
      <path class="cls-5" d="M22.47,0h3.04v17.01h-3.04V0Z"/>
      <path class="cls-4" d="M0,0h25.51v6.07h-9.11v10.93H0V0Z"/>
      <g>
        <path class="cls-2" d="M20.88,4.1s.12.06.12.06c.07-.04.21-.02.22-.03.01-.01.03-.03.03-.03v-.15s-.06.06-.08.05c.05-.23-.02-.36-.19-.66,0,.18,0,.34-.02.45.03.09.02.08.03.17-.03-.02-.07-.06-.1-.1,0,0-.02.2,0,.24ZM21.55,3.67c.07.12.14.09.16.14-.07.04-.16-.08-.21-.09-.05.03.16.29.16.31,0,0-.11,0-.21-.08v.1s.01.03.14.03c.1.01.11.15.08.11-.02-.04-.1-.06-.1-.06,0,0-.07,0-.05.05.13.04.1.15.08.21-.02.06-.1.06-.1.06,0,0,.06-.07,0-.09-.11.02-.12-.1-.12-.1,0,0-.02-.04-.06,0,.04.2-.08.22-.08.22,0,0-.02.06.02.1-.12,0-.08-.1-.09-.13-.01,0-.05-.05,0-.18-.08.13-.17.08-.17.08,0,0,0,.04.01.1-.07-.05-.07-.07-.07-.16,0-.02,0-.03,0-.05-.01.01-.03.03-.05.04.11.14-.02.22-.02.22,0,0-.01.07.04.11-.1,0-.1-.09-.1-.09,0,0-.09-.04-.09-.19,0,.17-.14.18-.14.18,0,0-.02.04.01.08-.11-.02-.07-.13-.07-.13,0,0-.08-.05.06-.18-.15.11-.25.08-.27.08,0,0-.02.02-.05.07-.01-.08,0-.1,0-.1,0,0,.02-.17.2-.17.18,0,.2-.13.22-.19-.03.02-.04.02-.05.02-.03-.01.07-.35.04-.45.03.29-.17.41-.17.37.03-.09.03-.18.05-.26.02-.08.06-.15.06-.19-.02.05-.09.12-.09.12-.02.01.04-.12.01-.1-.05.03-.37.08-.47-.07,0-.07.31-.21.29-.19-.05.03-.64.25-.63.12-.03-.03.34-.24.33-.23,0,0-.32.16-.33.16-.01,0-.26.08-.31.01,0-.02.72-.38.72-.43-.05.07-.56.33-.58.34-.02.01-.32.1-.42.02-.02-.02.4-.21.38-.26-.16.14-.29.18-.41.2-.07,0-.14.01-.19,0-.11-.02-.18-.08-.18-.09,0-.01.31-.07.37-.15-.63.2-.85.01-.84-.01,0,0,.15-.02.16-.02,0,0,.39-.13.4-.14,0,0-.4.12-.61.11-.24-.01-.36-.1-.35-.12,0-.01.15-.03.18-.03.03,0,.44-.13.46-.14.03-.02-.29.08-.34.08-.45.02-.51-.09-.5-.12,0,0,.16-.03.18-.02.03,0,.31-.05.31-.06.01,0-.27.06-.29.05-.78-.17-.92-.46-.92-.52,0-.06.08.05.2.11.27.1.83.31.82.3-.3-.1-.64-.25-.73-.29-.17-.07-.3-.3-.26-.32.04-.02.24.19.41.24.03.01.89.34.89.34,0-.02-.74-.27-.81-.31-.38-.15-.43-.48-.41-.51.05-.01.18.16.28.21.06.03.18.1.98.43,0,0-.52-.23-.59-.26-.13-.09-.24-.2-.32-.33-.05-.08-.05-.16-.03-.16.04,0,.19.12.38.18.26.11.54.22.85.39.02,0-.33-.31-.27-.33.05-.04.54.27,1.02.39.18.03.67.09.85.17-.04-.03-.04-.03-.05-.04.14-.64.72-.56.86-.41.43.04.27.22.19.25.04-.13-.14-.09-.21-.14l.16.06s-.06.01-.13.02c-.08.01-.22.08-.09.33,0,0,.18-.1.86-.05.07,0,.47-.12.59-.16.2-.03.83-.16,1-.28.12-.01-.03.2-.18.25,0,0,1.12-.44,1.22-.52.05.05-.42.57-1.32.76.82-.18,1.52-.73,1.66-.72.04,0,.03.54-1.85,1.01,1.3-.31,2.04-.88,2.04-.82,0,.03-.13.45-1.27.79.32-.07,1.18-.55,1.17-.46.03.04-.83,1.05-2.39.72,1.24.3,2.05-.42,2.16-.41.02,0-.23.62-1.8.66.75-.07.53,0,.53,0,0,0-.44.32-.98.1.42.11.46.11.47.14-.03.04-.37.11-.7-.06.22.09.51.12.51.16-.04.04-.19.07-.27.05-.08-.02-.22-.09-.38-.25.15.18.55.36.48.43-.16.07-.51-.11-.64-.2.2.23.38.22.31.3-.16.07-.41-.13-.47-.18,0,.02.17.11.11.16-.15,0-.3-.15-.3-.15.01.03.02.05.03.08Z"/>
        <path class="cls-1" d="M18.61,2.03s.42.2.6.19c-.05.04-.12.06-.12.06.04.02.17.08.35.04-.04.04-.1.09-.1.09,0,0,.16.06.34-.03-.05.06-.09.11-.09.11h.13M18.78,2.11s-.12.08-.26.08c.04.13.34.03.34.03,0,0-.15.15-.25.17.06.05.33.03.37,0s.12-.12.12-.12c0,0-.27.29-.31.28,0,.03.28.02.34-.03s.21-.12.21-.12c0,0-.4.25-.41.25.15.04.45-.04.64-.15-.28.17-.31.2-.45.26.13.03.19.11.63-.07.25-.11.39-.3.39-.3-.15.19-.4.35-.67.51-.02.03.29.15.67-.22M20.16,2.33s-.15.23.07.46c-.2.22-.2.25-.2.25,0,0,.11.06.31-.1.33.37.22.54.22.54M20.53,3.22s-.03-.04.02-.19c.05.05.1.07.13.09.02.02.27.06.29.21M20.87,2.9s.03.11.13.2c.1.09.11.17.11.17M20.69,3.99s.11-.16.12-.24c.02.03.04.07.07.11M21.24,3.94c.03-.06.06-.15.06-.2.02.1.09.17.15.21M20.82,2.17s.04.1.14.17c.11.06.27.27.29.3.01.04.08.36.07.39M23.2,2.07c-.16.07-.75.25-.95.23.25,0,.11.19-.3.1.2.1.12.12.12.12,0,0-.35.02-.44-.06.23.08.14.11.14.11,0,0-.24.02-.35-.03.17.05.08.08.08.08,0,0-.14.02-.25-.02M22.62,2.27s.56.11.75.06c-.23.29-.7.09-.7.09.23.06.24.06.31.12.02.05-.42.03-.57-.05.41.12.42.11.43.16.02.06-.67-.02-.73-.1.18.13.29.16.39.22-.12.05-.35.1-.78-.17.56.46,1.06.43,1.14.52-.19.26-.94-.16-1.29-.37-.35-.21.75.51.86.5-.09.08-.4.02-.56-.09M20.83,1.82s-.05-.11-.24.01c.1,0,.2.06.24-.01ZM21.51,3.59c-.05-.1-.05-.25-.3-.48.16.23.54.37.55.3.02-.07-.33-.32-.31-.39.07.13.41.41.67.39.02-.05-.21-.16-.27-.27-.16-.1-.56-.42-.6-.51M22.76,2.75c-.06,0-.26,0-.29,0M21,4.16s-.06.05-.06.09"/>
      </g>
    </g>
  </g>
</svg>