<?xml version="1.0" encoding="UTF-8"?>
<svg id="Layer_2" data-name="Layer 2" xmlns="http://www.w3.org/2000/svg" xmlns:xlink="http://www.w3.org/1999/xlink" viewBox="0 0 34.02 17.01">
  <defs>
    <style>
      .cls-1, .cls-2 {
        stroke-linecap: round;
        stroke-linejoin: round;
        stroke-width: .05px;
      }

      .cls-1, .cls-2, .cls-3 {
        stroke: #010101;
      }

      .cls-1, .cls-4 {
        fill: #fed208;
      }

      .cls-5 {
        fill: #fff;
      }

      .cls-6 {
        fill: #196533;
      }

      .cls-7, .cls-2 {
        fill: none;
      }

      .cls-3 {
        stroke-miterlimit: 38.1;
        stroke-width: .81px;
      }

      .cls-3, .cls-8 {
        fill: #010101;
      }

      .cls-9 {
        fill: #d22026;
      }

      .cls-10 {
        clip-path: url(#clippath);
      }
    </style>
    <clipPath id="clippath">
      <rect class="cls-7" width="17.01" height="17.01"/>
    </clipPath>
  </defs>
  <g id="Layer_1-2" data-name="Layer 1">
    <g>
      <g>
        <path class="cls-6" d="M0,0h34.02v17.01H0V0Z"/>
        <path class="cls-4" d="M.27,2.43h33.75v12.15H.27V2.43Z"/>
        <path class="cls-9" d="M.27,4.86h33.75v7.29H.27v-7.29Z"/>
        <path class="cls-8" d="M.27,7.29h33.75v2.43H.27v-2.43Z"/>
        <g class="cls-10">
          <path class="cls-3" d="M11.34,8.5L0,17.01V0l11.34,8.5Z"/>
        </g>
        <path class="cls-5" d="M11.34,8.5L0,17.01V0l11.34,8.5Z"/>
      </g>
      <path class="cls-9" d="M4.32,4.28l2.22,6.84L.72,6.89h7.19l-5.82,4.23,2.22-6.84Z"/>
      <g>
        <path class="cls-1" d="M3.09,6.18c-.02-.06-.02-.13.01-.19.03-.06.09-.1.15-.11.07-.01.14-.02.21-.01.07-.1.18-.17.3-.18.12,0,.24.04.32.13.1.11.15.25.16.39l.05.63,1.91,1.49s.06.11.02.16c-.03.04-.08.05-.12.04l-.08-.02c-.31.19-.53.52-.58.88l-.11.91h-2.02l-.27-1.04c-.1-.12-.11-.28-.03-.41.1-.17.22-.33.35-.47.09-.09.13-.22.11-.34-.02-.12-.03-.25-.03-.38,0-.1.02-.21.07-.3l-.03-.94c0-.11-.06-.21-.16-.27h-.24Z"/>
        <path class="cls-2" d="M3.33,6.17h.23M3.51,7.37l.78-.53M4.61,8.42c.31.09.5.06.59-.14M4.05,7.52c-.08.24.07.46.27.51l1.7.48M3.27,9.37c-.06-.25.03-.69.42-.88.18-.09.24-.27.24-.43,0-.06,0-.13.09-.16M3.05,9.26l.06-.14c.03.11.09.18.16.25.04-.09.08-.18.11-.27.04.07.06.17.09.26,0-.22.11-.38.26-.44l.59-.26c.19-.09.37-.25.41-.51M5.73,8.77h-1.67M3.08,9.39h2.36M3.63,9.91h1.75M3.45,9.39l.18.51v.39M3.54,9.61l.17-.17.17.17.17-.17.17.17.17-.17.17.17.17-.17.17.17.17-.17.17.17.17-.17M3.59,9.81l.12-.12.17.17.17-.17.17.17.17-.17.17.17.17-.17.17.17.17-.17.17.17.13-.13"/>
        <circle class="cls-2" cx="3.78" cy="6.02" r=".1"/>
        <circle class="cls-2" cx="4.24" cy="9.08" r=".2"/>
        <circle class="cls-2" cx="5.01" cy="9.08" r=".2"/>
      </g>
    </g>
  </g>
</svg>