<?xml version="1.0" encoding="UTF-8"?>
<svg id="Layer_2" data-name="Layer 2" xmlns="http://www.w3.org/2000/svg" xmlns:xlink="http://www.w3.org/1999/xlink" viewBox="0 0 34.02 17.01">
  <defs>
    <style>
      .cls-1 {
        fill: #fff;
      }

      .cls-2 {
        fill: #196533;
      }

      .cls-3 {
        fill: none;
      }

      .cls-4 {
        fill: #fed208;
      }

      .cls-5 {
        fill: #010101;
      }

      .cls-6 {
        fill: #d22026;
      }

      .cls-7 {
        clip-path: url(#clippath);
      }
    </style>
    <clipPath id="clippath">
      <rect class="cls-3" width="17.01" height="17.01"/>
    </clipPath>
  </defs>
  <g id="Layer_1-2" data-name="Layer 1">
    <g>
      <g>
        <path class="cls-2" d="M0,0h34.02v17.01H0V0Z"/>
        <path class="cls-4" d="M.27,2.43h33.75v12.15H.27V2.43Z"/>
        <path class="cls-6" d="M.27,4.86h33.75v7.29H.27v-7.29Z"/>
        <path class="cls-5" d="M.27,7.29h33.75v2.43H.27v-2.43Z"/>
        <g class="cls-7">
          <g>
            <path class="cls-5" d="M11.34,8.5L0,17.01V0l11.34,8.5Z"/>
            <path class="cls-5" d="M-.4,17.82V-.81l12.42,9.31L-.4,17.82ZM.4.81v15.39l10.26-7.69L.4.81Z"/>
          </g>
        </g>
        <path class="cls-1" d="M11.34,8.5L0,17.01V0l11.34,8.5Z"/>
      </g>
      <path class="cls-6" d="M4.32,4.28l2.22,6.84L.72,6.89h7.19l-5.82,4.23,2.22-6.84Z"/>
      <g>
        <g>
          <path class="cls-4" d="M3.09,6.18c-.02-.06-.02-.13.01-.19.03-.06.09-.1.15-.11.07-.01.14-.02.21-.01.07-.1.18-.17.3-.18.12,0,.24.04.32.13.1.11.15.25.16.39l.05.63,1.91,1.49s.06.11.02.16c-.03.04-.08.05-.12.04l-.08-.02c-.31.19-.53.52-.58.88l-.11.91h-2.02l-.27-1.04c-.1-.12-.11-.28-.03-.41.1-.17.22-.33.35-.47.09-.09.13-.22.11-.34-.02-.12-.03-.25-.03-.38,0-.1.02-.21.07-.3l-.03-.94c0-.11-.06-.21-.16-.27h-.24Z"/>
          <path class="cls-5" d="M5.33,10.33h-2.02s-.02,0-.02-.02l-.27-1.03c-.1-.12-.11-.3-.03-.43.1-.17.22-.33.36-.47.08-.08.12-.2.1-.32-.02-.12-.03-.25-.03-.38,0-.11.02-.21.07-.31l-.03-.93c0-.1-.06-.19-.14-.24h-.23s0,.01,0,.01c-.01,0-.02,0-.02-.02-.03-.07-.02-.14.01-.21.03-.06.1-.11.17-.12.06-.01.12-.02.18-.02h.01c.07-.1.19-.17.31-.18,0,0,.02,0,.03,0,.12,0,.24.05.31.14.1.11.16.25.17.41l.05.62,1.9,1.48s.05.06.05.1,0,.07-.03.1c-.04.04-.09.06-.15.05l-.07-.02c-.3.19-.51.52-.56.85l-.11.91s-.01.02-.03.02ZM3.33,10.28h1.97l.11-.88c.04-.35.27-.7.59-.9,0,0,.01,0,.02,0l.08.02s.07,0,.09-.03c.03-.04.03-.1-.01-.13l-1.91-1.49s0-.01,0-.02l-.05-.63c-.01-.14-.07-.27-.16-.38-.07-.08-.17-.12-.28-.12,0,0-.02,0-.02,0-.11,0-.22.07-.28.17,0,0-.01.01-.02.01h0c-.07,0-.14,0-.2.01-.06,0-.11.04-.13.09-.02.05-.03.1-.02.15h.22s0-.01.01,0c.1.06.17.17.17.29l.03.94s0,0,0,.01c-.04.09-.06.19-.06.29,0,.13.01.25.03.37.02.13-.03.27-.12.36-.13.14-.25.29-.35.46-.07.12-.06.27.03.38,0,0,0,0,0,0l.26,1.02Z"/>
        </g>
        <path class="cls-5" d="M3.63,10.33s-.03-.01-.03-.03v-.39l-.17-.49h-.35s-.03-.01-.03-.03.01-.03.03-.03h.15c-.06-.05-.1-.11-.13-.18l-.03.08s-.02.02-.03.01c-.01,0-.02-.02-.01-.03l.06-.14s.01-.02.03-.02c.01,0,.02,0,.02.02.02.07.05.13.1.18-.03-.26.08-.65.45-.83.2-.09.23-.32.23-.41,0-.06,0-.15.1-.19.01,0,.03,0,.03.01,0,.01,0,.03-.01.03-.06.03-.07.07-.07.14,0,.1-.03.35-.26.45-.34.16-.45.52-.42.77.03-.06.05-.12.07-.19,0,0,.01-.02.02-.02,0,0,0,0,0,0,0,0,.02,0,.02.01.02.04.04.09.05.13.03-.15.13-.27.26-.33l.33-.15s0,0,.01,0l.24-.11c.07-.03.19-.1.29-.23,0,0,0,0,0,0,.05-.06.08-.14.1-.24l-.38-.11c-.12-.03-.21-.11-.27-.22-.05-.1-.06-.22-.02-.33,0-.01.02-.02.03-.02.01,0,.02.02.02.03-.04.13-.02.23.02.29.05.09.13.16.23.19l.4.11s0,0,0,0l1.29.37s.02.02.02.03c0,.01-.02.02-.03.02l-.8-.23c-.12.23-.38.19-.6.14-.07.1-.18.18-.3.23l-.14.06h1.54s.03.01.03.03-.01.03-.03.03h-1.66l-.33.15c-.16.07-.25.23-.24.42,0,0,0,0,0,0h1.95s.03.01.03.03-.01.03-.03.03h-.33s0,0,0,0l.15.15.15-.15s.03,0,.04,0c.01,0,.01.03,0,.04l-.17.17s-.03,0-.04,0l-.15-.15-.15.15s-.03,0-.04,0l-.15-.15-.15.15s-.03,0-.04,0l-.15-.15-.15.15s-.03,0-.04,0l-.15-.15-.15.15s-.03,0-.04,0l-.15-.15-.15.15s0,0,0,0l.04.13.09-.09s.03,0,.04,0l.15.15.15-.15s.03,0,.04,0l.15.15.15-.15s.03,0,.04,0l.15.15.15-.15s.03,0,.04,0l.15.15.15-.15s.03,0,.04,0l.15.15.11-.11s.03,0,.04,0c.01,0,.01.03,0,.04l-.13.13s0,0,0,0h.09s.03.01.03.03-.01.03-.03.03h-1.73v.37s-.01.03-.03.03ZM4.94,9.88h.32s0,0,0,0l-.15-.15-.15.15s0,0,0,0ZM4.59,9.88h.32s0,0,0,0l-.15-.15-.15.15s0,0,0,0ZM4.25,9.88h.32s0,0,0,0l-.15-.15-.15.15s0,0,0,0ZM3.9,9.88h.32s0,0,0,0l-.15-.15-.15.15s0,0,0,0ZM3.64,9.88h.23s0,0,0,0l-.15-.15-.09.09.02.07ZM3.48,9.42l.05.16.16-.16s0,0,0,0h-.21ZM4.76,9.42s0,0,0,0l.15.15.15-.15s0,0,0,0h-.32ZM4.42,9.42s0,0,0,0l.15.15.15-.15s0,0,0,0h-.32ZM3.73,9.42s0,0,0,0l.15.15.15-.15s0,0,0,0h-.32ZM4.07,9.42s0,0,0,0l.15.15.15-.15s0,0,0,0h-.32ZM3.29,9.37h.14c-.01-.06-.03-.13-.06-.2-.03.07-.05.13-.08.2ZM4.65,8.41c.28.07.43.04.51-.1l-.42-.12c-.02.08-.05.16-.09.22ZM3.51,7.4s-.02,0-.02-.01c0-.01,0-.03,0-.04l.78-.53s.03,0,.04,0c0,.01,0,.03,0,.04l-.78.53s0,0-.01,0ZM3.33,6.19s-.02-.01-.03-.02c0-.01,0-.03.02-.03h.23s0-.01,0-.01c.01,0,.02.01.03.02,0,.01,0,.03-.02.03h-.23s0,.01,0,.01Z"/>
        <path class="cls-5" d="M3.78,6.15c-.07,0-.13-.06-.13-.13s.06-.13.13-.13.13.06.13.13-.06.13-.13.13ZM3.78,5.94s-.08.03-.08.08.03.08.08.08.08-.03.08-.08-.03-.08-.08-.08Z"/>
        <path class="cls-5" d="M4.24,9.31c-.12,0-.22-.1-.22-.22s.1-.22.22-.22.22.1.22.22-.1.22-.22.22ZM4.24,8.91c-.09,0-.17.08-.17.17s.08.17.17.17.17-.08.17-.17-.08-.17-.17-.17Z"/>
        <path class="cls-5" d="M5.01,9.31c-.12,0-.22-.1-.22-.22s.1-.22.22-.22.22.1.22.22-.1.22-.22.22ZM5.01,8.91c-.09,0-.17.08-.17.17s.08.17.17.17.17-.08.17-.17-.08-.17-.17-.17Z"/>
      </g>
    </g>
  </g>
</svg>