<?xml version="1.0" encoding="UTF-8"?>
<svg id="Layer_2" data-name="Layer 2" xmlns="http://www.w3.org/2000/svg" viewBox="0 0 27.21 17.01">
  <defs>
    <style>
      .cls-1 {
        fill: #85361b;
      }

      .cls-2 {
        fill: #fff;
      }

      .cls-3 {
        stroke-miterlimit: 4;
      }

      .cls-3, .cls-4, .cls-5 {
        fill: #f5b41a;
        stroke: #85361b;
      }

      .cls-6 {
        fill: #75acdd;
      }

      .cls-7 {
        fill: #84371b;
      }

      .cls-5 {
        stroke-miterlimit: 4;
      }
    </style>
  </defs>
  <g id="Layer_1-2" data-name="Layer 1">
    <g>
      <path class="cls-6" d="M0,0h27.21v17.01H0V0Z"/>
      <path class="cls-2" d="M0,5.67h27.21v5.67H0v-5.67Z"/>
      <g id="c">
        <path id="a" class="cls-4" d="M13.5,8.55l.97,2.11s.02.04.04.03c.03-.01.01-.05.01-.05l-.81-2.18M13.69,9.28c-.01.32.19.5.16.78-.03.29.13.45.17.56.04.11-.04.18,0,.19.03.02.1-.07.08-.23s-.14-.21-.12-.56c.03-.35-.14-.43-.1-.75"/>
        <path id="a-2" data-name="a" class="cls-5" d="M13.49,8.5l.09,2.32s0,.04.03.04c.03,0,.03-.04.03-.04l.09-2.32M13.39,9.25c-.13.29-.02.53-.15.78-.13.25-.05.46-.06.58,0,.12-.1.15-.08.18.02.03.12-.03.16-.18s-.05-.24.11-.56c.16-.31.03-.45.19-.73"/>
        <path id="a-3" data-name="a" class="cls-3" d="M13.5,8.46l-.81,2.18s-.02.04.01.05c.03.01.04-.03.04-.03l.97-2.11M13.12,9.11c-.24.22-.22.48-.44.67-.22.18-.22.41-.28.51-.05.1-.15.1-.14.13.01.03.12.02.22-.11s.04-.25.31-.47c.27-.23.2-.41.46-.6"/>
        <path id="a-4" data-name="a" class="cls-5" d="M13.52,8.42l-1.58,1.7s-.03.03-.01.05c.02.02.05-.01.05-.01l1.7-1.58M12.92,8.88c-.3.11-.39.36-.66.45-.27.09-.36.29-.45.37-.09.08-.18.03-.18.07,0,.04.11.07.24-.01s.13-.21.47-.32c.33-.11.34-.3.65-.38"/>
        <path id="b" class="cls-1" d="M13.75,9.33c.02.31.19.44.16.73.08-.22-.11-.39-.1-.72M13.55,8.53l.66,1.45-.56-1.49"/>
        <path id="b-2" data-name="b" class="cls-1" d="M13.42,9.33c-.1.29,0,.48-.13.73.15-.18.05-.4.19-.7M13.55,8.51l.06,1.59.06-1.59"/>
        <path id="b-3" data-name="b" class="cls-1" d="M13.12,9.19c-.21.23-.18.45-.4.62.21-.1.2-.35.44-.58M13.55,8.48l-.56,1.49.66-1.45"/>
        <path id="b-4" data-name="b" class="cls-1" d="M12.9,8.96c-.28.13-.34.35-.61.42.23-.02.32-.25.63-.36M13.56,8.46l-1.08,1.17,1.17-1.08"/>
      </g>
      <g id="c-2" data-name="c">
        <path id="a-5" data-name="a" class="cls-4" d="M13.56,8.4l-2.11.97s-.04.02-.03.04c.01.03.05.01.05.01l2.18-.81M12.83,8.59c-.32-.01-.5.19-.78.16-.29-.03-.45.13-.56.17-.11.04-.18-.04-.19,0-.02.03.07.1.23.08s.21-.14.56-.12c.35.03.43-.14.75-.1"/>
        <path id="a-6" data-name="a" class="cls-5" d="M13.61,8.39l-2.32.09s-.04,0-.04.03c0,.03.04.03.04.03l2.32.09M12.86,8.28c-.29-.13-.53-.02-.78-.15-.25-.13-.46-.05-.58-.06-.12,0-.15-.1-.18-.08-.03.02.03.12.18.16s.24-.05.56.11c.31.16.45.03.73.19"/>
        <path id="a-7" data-name="a" class="cls-3" d="M13.65,8.4l-2.18-.81s-.04-.02-.05.01c-.01.03.03.04.03.04l2.11.97M13,8.01c-.22-.24-.48-.22-.67-.44-.18-.22-.41-.22-.51-.28-.1-.05-.1-.15-.13-.14-.03.01-.02.12.11.22s.25.04.47.31c.23.27.41.2.6.46"/>
        <path id="a-8" data-name="a" class="cls-5" d="M13.69,8.42l-1.7-1.58s-.03-.03-.05-.01c-.02.02.01.05.01.05l1.58,1.7M13.23,7.82c-.11-.3-.36-.39-.45-.66-.09-.27-.29-.36-.37-.45-.08-.09-.03-.18-.07-.18-.04,0-.07.11.01.24s.21.13.32.47c.11.33.3.34.38.65"/>
        <path id="b-5" data-name="b" class="cls-1" d="M12.78,8.65c-.31.02-.44.19-.73.16.22.08.39-.11.72-.1M13.58,8.45l-1.45.66,1.49-.56"/>
        <path id="b-6" data-name="b" class="cls-1" d="M12.78,8.32c-.29-.1-.48,0-.73-.13.18.15.4.05.7.19M13.6,8.44l-1.59.06,1.59.06"/>
        <path id="b-7" data-name="b" class="cls-1" d="M12.92,8.02c-.23-.21-.45-.18-.62-.4.1.21.35.2.58.44M13.63,8.45l-1.49-.56,1.45.66"/>
        <path id="b-8" data-name="b" class="cls-1" d="M13.15,7.79c-.13-.28-.35-.34-.42-.61.02.23.25.32.36.63M13.65,8.46l-1.17-1.08,1.08,1.17"/>
      </g>
      <g id="c-3" data-name="c">
        <path id="a-9" data-name="a" class="cls-4" d="M13.71,8.46l-.97-2.11s-.02-.04-.04-.03c-.03.01-.01.05-.01.05l.81,2.18M13.52,7.73c.01-.32-.19-.5-.16-.78.03-.29-.13-.45-.17-.56-.04-.11.04-.18,0-.19-.03-.02-.1.07-.08.23s.14.21.12.56c-.03.35.14.43.1.75"/>
        <path id="a-10" data-name="a" class="cls-5" d="M13.72,8.5l-.09-2.32s0-.04-.03-.04c-.03,0-.03.04-.03.04l-.09,2.32M13.83,7.75c.13-.29.02-.53.15-.78.13-.25.05-.46.06-.58,0-.12.1-.15.08-.18-.02-.03-.12.03-.16.18s.05.24-.11.56c-.16.31-.03.45-.19.73"/>
        <path id="a-11" data-name="a" class="cls-3" d="M13.71,8.55l.81-2.18s.02-.04-.01-.05c-.03-.01-.04.03-.04.03l-.97,2.11M14.1,7.9c.24-.22.22-.48.44-.67.22-.18.22-.41.28-.51.05-.1.15-.1.14-.13-.01-.03-.12-.02-.22.11s-.04.25-.31.47c-.27.23-.2.41-.46.6"/>
        <path id="a-12" data-name="a" class="cls-5" d="M13.69,8.59l1.58-1.7s.03-.03.01-.05c-.02-.02-.05.01-.05.01l-1.7,1.58M14.29,8.13c.3-.11.39-.36.66-.45.27-.09.36-.29.45-.37.09-.08.18-.03.18-.07,0-.04-.11-.07-.24.01s-.13.21-.47.32c-.33.11-.34.3-.65.38"/>
        <path id="b-9" data-name="b" class="cls-1" d="M13.46,7.67c-.02-.31-.19-.44-.16-.73-.08.22.11.39.1.72M13.66,8.48l-.66-1.45.56,1.49"/>
        <path id="b-10" data-name="b" class="cls-1" d="M13.79,7.68c.1-.29,0-.48.13-.73-.15.18-.05.4-.19.7M13.67,8.5l-.06-1.59-.06,1.59"/>
        <path id="b-11" data-name="b" class="cls-1" d="M14.09,7.81c.21-.23.18-.45.4-.62-.21.1-.2.35-.44.58M13.66,8.52l.56-1.49-.66,1.45"/>
        <path id="b-12" data-name="b" class="cls-1" d="M14.32,8.05c.28-.13.34-.35.61-.42-.23.02-.32.25-.63.36M13.65,8.54l1.08-1.17-1.17,1.08"/>
      </g>
      <g id="c-4" data-name="c">
        <path id="a-13" data-name="a" class="cls-4" d="M13.65,8.61l2.11-.97s.04-.02.03-.04c-.01-.03-.05-.01-.05-.01l-2.18.81M14.38,8.42c.32.01.5-.19.78-.16.29.03.45-.13.56-.17.11-.04.18.04.19,0,.02-.03-.07-.1-.23-.08s-.21.14-.56.12c-.35-.03-.43.14-.75.1"/>
        <path id="a-14" data-name="a" class="cls-5" d="M13.61,8.62l2.32-.09s.04,0,.04-.03c0-.03-.04-.03-.04-.03l-2.32-.09M14.36,8.72c.29.13.53.02.78.15.25.13.46.05.58.06.12,0,.15.1.18.08.03-.02-.03-.12-.18-.16s-.24.05-.56-.11c-.31-.16-.45-.03-.73-.19"/>
        <path id="a-15" data-name="a" class="cls-3" d="M13.56,8.61l2.18.81s.04.02.05-.01c.01-.03-.03-.04-.03-.04l-2.11-.97M14.21,8.99c.22.24.48.22.67.44.18.22.41.22.51.28.1.05.1.15.13.14.03-.01.02-.12-.11-.22s-.25-.04-.47-.31c-.23-.27-.41-.2-.6-.46"/>
        <path id="a-16" data-name="a" class="cls-5" d="M13.52,8.59l1.7,1.58s.03.03.05.01c.02-.02-.01-.05-.01-.05l-1.58-1.7M13.98,9.19c.11.3.36.39.45.66.09.27.29.36.37.45.08.09.03.18.07.18.04,0,.07-.11-.01-.24s-.21-.13-.32-.47c-.11-.33-.3-.34-.38-.65"/>
        <path id="b-13" data-name="b" class="cls-1" d="M14.44,8.36c.31-.02.44-.19.73-.16-.22-.08-.39.11-.72.1M13.63,8.56l1.45-.66-1.49.56"/>
        <path id="b-14" data-name="b" class="cls-1" d="M14.43,8.69c.29.1.48,0,.73.13-.18-.15-.4-.05-.7-.19M13.61,8.56l1.59-.06-1.59-.06"/>
        <path id="b-15" data-name="b" class="cls-1" d="M14.3,8.99c.23.21.45.18.62.4-.1-.21-.35-.2-.58-.44M13.59,8.56l1.49.56-1.45-.66"/>
        <path id="b-16" data-name="b" class="cls-1" d="M14.06,9.21c.13.28.35.34.42.61-.02-.23-.25-.32-.36-.63M13.57,8.55l1.17,1.08-1.08-1.17"/>
      </g>
      <circle class="cls-4" cx="13.61" cy="8.5" r=".94"/>
      <path id="h" class="cls-7" d="M13.93,8.3c-.06,0-.13.03-.16.09.07.07.23.07.34,0-.05-.05-.11-.08-.18-.08h0ZM13.93,8.32c.06,0,.12.03.13.06-.07.08-.19.07-.26.01.03-.05.08-.07.13-.07h0Z"/>
      <path id="d" class="cls-1" d="M13.94,8.26c-.09,0-.12.02-.16.06-.04.04-.07.03-.07.04,0,0,0,.03.01.02s.04-.02.09-.06c.04-.04.09-.04.13-.04.13,0,.2.11.22.1.01,0-.07-.12-.22-.12h0Z"/>
      <path id="e" class="cls-1" d="M14.2,8.3c-.17-.15-.38-.17-.49-.06-.03.04-.05.08-.05.12-.01.08.01.17.08.26,0,0-.02,0-.03.01-.06-.11-.08-.22-.06-.33,0-.03.01-.06.02-.08.16-.13.38-.15.54.07h0Z"/>
      <circle id="f" class="cls-1" cx="13.93" cy="8.37" r=".07"/>
      <path id="g" class="cls-1" d="M14.12,8.42c-.12.09-.25.09-.32.04-.07-.04-.07-.06-.06-.06s.03.01.09.04c.06.03.15.03.29-.03h0Z"/>
      <path class="cls-1" d="M13.46,8.63s-.05.03-.05.06c0,.04.03.06.07.06.02,0,.04-.01.05-.03.03.02.06.02.08.02,0,0,0,0,0,0,.02,0,.05,0,.08-.02.01.02.03.03.05.03.04,0,.07-.03.07-.06,0-.03-.02-.06-.05-.06.02,0,.03.02.03.04,0,.02-.02.04-.04.04h0s-.04-.02-.04-.04c0,.01-.04.06-.09.06-.06,0-.08-.04-.09-.06,0,.02-.02.04-.04.04-.02,0-.04-.02-.04-.04h0s.01-.04.03-.04h0ZM13.53,8.83c-.07,0-.1.07-.17.11.04-.01.06-.04.12-.07s.09,0,.12,0h0s.07-.04.12,0c.05.03.08.06.12.07-.07-.04-.1-.11-.17-.11-.01,0-.04,0-.07.02h0s-.06-.02-.07-.02Z"/>
      <path class="cls-1" d="M13.51,8.91s-.07,0-.12.02c.13-.03.16.01.22.01h0c.06,0,.09-.04.22-.01-.15-.04-.17-.01-.22-.01h0s-.05-.01-.1,0h0Z"/>
      <path class="cls-1" d="M13.39,8.94s-.02,0-.03,0c.15.01.08.1.24.1h0c.16,0,.09-.09.24-.1-.16-.01-.11.08-.24.08h0c-.12,0-.08-.08-.21-.08h0ZM13.74,9.17c0-.07-.06-.13-.13-.13-.07,0-.13.06-.13.13.01-.06.07-.1.13-.1.06,0,.12.04.13.1Z"/>
      <path id="e-2" data-name="e" class="cls-1" d="M13.02,8.3c.17-.15.38-.17.49-.06.03.04.05.08.05.12.01.08-.01.17-.08.26,0,0,.02,0,.03.01.06-.11.08-.22.06-.33,0-.03-.01-.06-.02-.08-.16-.13-.38-.15-.54.07h0Z"/>
      <path id="d-2" data-name="d" class="cls-1" d="M13.28,8.26c.09,0,.12.02.16.06.04.04.07.03.07.04,0,0,0,.03-.01.02s-.04-.02-.09-.06c-.04-.04-.09-.04-.13-.04-.13,0-.2.11-.22.1-.01,0,.07-.12.22-.12h0Z"/>
      <path id="h-2" data-name="h" class="cls-7" d="M13.28,8.3c-.06,0-.13.03-.16.09.07.07.23.07.34,0-.05-.05-.11-.08-.18-.08h0ZM13.27,8.32c.06,0,.12.03.13.06-.07.08-.19.07-.26.01.03-.05.08-.07.13-.07h0Z"/>
      <circle id="f-2" data-name="f" class="cls-1" cx="13.28" cy="8.37" r=".07"/>
      <path id="g-2" data-name="g" class="cls-1" d="M13.11,8.42c.12.09.25.09.32.04.07-.04.07-.06.06-.06s-.03.01-.09.04c-.06.03-.15.03-.29-.03h0Z"/>
    </g>
  </g>
</svg>