<?xml version="1.0" encoding="UTF-8"?>
<svg id="Layer_2" data-name="Layer 2" xmlns="http://www.w3.org/2000/svg" viewBox="0 0 27.21 17.01">
  <defs>
    <style>
      .cls-1 {
        fill: #85361b;
      }

      .cls-2 {
        fill: #fff;
      }

      .cls-3 {
        fill: #75acdd;
      }

      .cls-4 {
        fill: #84371b;
      }

      .cls-5 {
        fill: #f5b41a;
      }
    </style>
  </defs>
  <g id="Layer_1-2" data-name="Layer 1">
    <g>
      <path class="cls-3" d="M0,0h27.21v17.01H0V0Z"/>
      <path class="cls-2" d="M0,5.67h27.21v5.67H0v-5.67Z"/>
      <g id="c">
        <g id="a">
          <path class="cls-5" d="M13.5,8.55l.97,2.11s.02.04.04.03c.03-.01.01-.05.01-.05l-.81-2.18M13.69,9.28c-.01.32.19.5.16.78-.03.29.13.45.17.56.04.11-.04.18,0,.19.03.02.1-.07.08-.23s-.14-.21-.12-.56c.03-.35-.14-.43-.1-.75"/>
          <path class="cls-1" d="M14.02,10.82s0,0,0,0c-.01,0,0-.02,0-.05.01-.03.03-.08,0-.15,0-.03-.03-.06-.05-.1-.06-.1-.14-.25-.12-.46.01-.14-.03-.26-.08-.38-.04-.12-.09-.24-.08-.4h0c0,.16.04.28.08.4.04.12.09.24.08.38-.02.21.06.35.12.46.02.04.04.07.05.1.02.06,0,.12,0,.15,0,.02-.01.04,0,.04.01,0,.02,0,.03,0,.03-.02.07-.1.05-.22,0-.05-.03-.09-.05-.14-.04-.09-.09-.19-.07-.42.01-.17-.02-.28-.05-.38-.03-.09-.06-.17-.05-.29l-.37-.81h0l.37.8s0-.05,0-.07c0,.03,0,.05,0,.07l.6,1.3s.01.03.03.03c0,0,0,0,0,0,.02,0,0-.05,0-.05l-.81-2.17.81,2.17s.02.04-.01.05c0,0,0,0,0,0-.02,0-.04-.03-.04-.03l-.6-1.3c0,.12.02.2.05.29.03.1.07.21.05.38-.02.23.03.33.07.42.02.04.04.09.05.14.02.12-.02.2-.05.22,0,0-.01,0-.02,0Z"/>
        </g>
        <g id="a-2" data-name="a">
          <path class="cls-5" d="M13.49,8.5l.09,2.32s0,.04.03.04c.03,0,.03-.04.03-.04l.09-2.32M13.39,9.25c-.13.29-.02.53-.15.78-.13.25-.05.46-.06.58,0,.12-.1.15-.08.18.02.03.12-.03.16-.18s-.05-.24.11-.56c.16-.31.03-.45.19-.73"/>
          <path class="cls-1" d="M13.61,10.87s-.03-.04-.03-.04l-.05-1.43c-.05.11-.05.2-.06.29,0,.11-.02.22-.1.38-.11.21-.1.31-.1.41,0,.05,0,.09,0,.15-.03.12-.1.18-.13.19-.01,0-.02,0-.03,0-.01-.01,0-.03.02-.04.02-.03.06-.07.06-.13,0-.03,0-.07,0-.11-.01-.12-.03-.28.07-.47.07-.13.07-.25.08-.38,0-.13,0-.26.08-.41h0c-.07.15-.07.28-.08.41,0,.13,0,.25-.08.38-.1.19-.08.35-.07.47,0,.04,0,.08,0,.12,0,.07-.04.11-.06.13-.02.02-.03.03-.02.04,0,0,.02,0,.03,0,.04,0,.1-.07.13-.19.01-.05.01-.1,0-.15,0-.1,0-.2.1-.41.08-.16.09-.27.1-.38,0-.09.01-.18.06-.29l-.03-.89h0l.03.88s.02-.04.03-.06c-.01.02-.02.04-.03.07l.05,1.43s0,.04.03.04.03-.04.03-.04l.09-2.32-.08,2.32s0,.04-.03.04Z"/>
        </g>
        <g id="a-3" data-name="a">
          <path class="cls-5" d="M13.5,8.46l-.81,2.18s-.02.04.01.05c.03.01.04-.03.04-.03l.97-2.11M13.12,9.11c-.24.22-.22.48-.44.67-.22.18-.22.41-.28.51-.05.1-.15.1-.14.13.01.03.12.02.22-.11s.04-.25.31-.47c.27-.23.2-.41.46-.6"/>
          <path class="cls-1" d="M12.71,10.69s0,0,0,0c-.03-.01-.01-.05-.01-.05l.5-1.34c-.08.08-.12.16-.17.24-.05.1-.1.2-.23.31-.18.15-.21.25-.25.34-.02.05-.03.09-.06.13-.07.09-.14.12-.19.12h-.01s-.02,0-.03-.02c0-.01,0-.02.03-.03.03-.02.08-.04.11-.1.01-.03.02-.07.04-.11.03-.12.08-.27.24-.41.11-.09.16-.2.22-.32.05-.12.11-.24.22-.35h0c-.12.11-.17.23-.22.35-.05.12-.11.23-.22.32-.16.13-.21.29-.24.41-.01.04-.02.08-.04.11-.03.06-.08.08-.11.1-.02.01-.04.02-.03.03,0,0,.01.01.02.02h.01s.12-.03.18-.12c.03-.04.05-.09.06-.13.03-.09.07-.19.25-.34.13-.11.18-.21.23-.31.04-.08.08-.16.17-.24l.31-.83-.31.83s.04-.03.05-.05c-.02.02-.04.03-.06.05l-.5,1.34s-.02.04,0,.05c0,0,0,0,0,0,.02,0,.03-.03.03-.03l.97-2.11-.97,2.11s-.01.03-.04.03Z"/>
        </g>
        <g id="a-4" data-name="a">
          <path class="cls-5" d="M13.52,8.42l-1.58,1.7s-.03.03-.01.05c.02.02.05-.01.05-.01l1.7-1.58M12.92,8.88c-.3.11-.39.36-.66.45-.27.09-.36.29-.45.37-.09.08-.18.03-.18.07,0,.04.11.07.24-.01s.13-.21.47-.32c.33-.11.34-.3.65-.38"/>
          <path class="cls-1" d="M11.95,10.18s-.01,0-.02,0c-.02-.02,0-.05,0-.05l.97-1.05c-.11.04-.18.1-.25.16-.08.07-.17.14-.33.2-.22.07-.29.15-.36.22-.03.04-.06.07-.11.1-.11.06-.19.06-.23.04-.01,0-.02-.02-.02-.02,0-.02.02-.02.04-.02.03,0,.09,0,.14-.05.02-.02.05-.05.08-.08.07-.09.18-.22.38-.28.14-.04.23-.13.32-.21.09-.09.19-.18.34-.23h0c-.15.06-.25.15-.34.23-.1.09-.19.17-.32.21-.2.06-.3.19-.38.28-.03.04-.05.07-.08.09-.05.04-.11.05-.14.05-.03,0-.04,0-.04.02,0,0,0,.02.02.02.03.02.12.03.23-.04.05-.03.08-.06.11-.1.07-.07.14-.15.36-.22.17-.05.25-.13.33-.2.07-.06.14-.12.25-.16l.6-.65h0s-.6.65-.6.65c.02,0,.04-.01.07-.02-.03,0-.05.01-.07.02l-.97,1.05s-.03.03,0,.05c0,0,0,0,.02,0h0s.03-.02.03-.02l1.7-1.58-1.7,1.58s-.02.02-.04.02h0Z"/>
        </g>
        <g id="b">
          <path class="cls-1" d="M13.75,9.33c.02.31.19.44.16.73.08-.22-.11-.39-.1-.72M13.55,8.53l.66,1.45-.56-1.49"/>
        </g>
        <g id="b-2" data-name="b">
          <path class="cls-1" d="M13.42,9.33c-.1.29,0,.48-.13.73.15-.18.05-.4.19-.7M13.55,8.51l.06,1.59.06-1.59"/>
        </g>
        <g id="b-3" data-name="b">
          <path class="cls-1" d="M13.12,9.19c-.21.23-.18.45-.4.62.21-.1.2-.35.44-.58M13.55,8.48l-.56,1.49.66-1.45"/>
        </g>
        <g id="b-4" data-name="b">
          <path class="cls-1" d="M12.9,8.96c-.28.13-.34.35-.61.42.23-.02.32-.25.63-.36M13.56,8.46l-1.08,1.17,1.17-1.08"/>
        </g>
      </g>
      <g id="c-2" data-name="c">
        <g id="a-5" data-name="a">
          <path class="cls-5" d="M13.56,8.4l-2.11.97s-.04.02-.03.04c.01.03.05.01.05.01l2.18-.81M12.83,8.59c-.32-.01-.5.19-.78.16-.29-.03-.45.13-.56.17-.11.04-.18-.04-.19,0-.02.03.07.1.23.08s.21-.14.56-.12c.35.03.43-.14.75-.1"/>
          <path class="cls-1" d="M11.45,9.42s-.02,0-.03-.02c-.01-.03.03-.04.03-.04l1.3-.6s0,0-.01,0c-.11,0-.19.03-.27.05-.09.03-.18.06-.31.06-.02,0-.05,0-.08,0-.04,0-.07,0-.1,0-.16,0-.24.04-.32.07-.04.02-.08.04-.14.05-.12.02-.2-.02-.23-.05,0-.01,0-.02,0-.03,0-.01.02-.01.05,0,.03.01.09.03.15,0,.03,0,.06-.03.1-.05.1-.06.25-.14.46-.12.02,0,.03,0,.05,0,.12,0,.22-.04.33-.08.11-.04.23-.09.38-.09,0,0,.02,0,.03,0h0s-.02,0-.03,0c-.15,0-.26.04-.38.08-.11.04-.21.08-.33.08-.02,0-.03,0-.05,0-.02,0-.04,0-.06,0-.18,0-.3.07-.39.12-.04.02-.07.04-.1.05-.06.02-.12,0-.15,0-.02,0-.04-.01-.04,0,0,0,0,.02,0,.03.02.03.1.07.22.05.05,0,.09-.03.14-.05.09-.04.19-.09.42-.07.03,0,.05,0,.08,0,.13,0,.22-.03.31-.06.09-.03.17-.06.29-.05l.81-.37h0s-.8.37-.8.37c.02,0,.05,0,.07,0-.03,0-.05,0-.07,0l-1.3.6s-.04.02-.03.04c.01.02.05,0,.05,0l2.18-.81-2.18.81s-.01,0-.03,0Z"/>
        </g>
        <g id="a-6" data-name="a">
          <path class="cls-5" d="M13.61,8.39l-2.32.09s-.04,0-.04.03c0,.03.04.03.04.03l2.32.09M12.86,8.28c-.29-.13-.53-.02-.78-.15-.25-.13-.46-.05-.58-.06-.12,0-.15-.1-.18-.08-.03.02.03.12.18.16s.24-.05.56.11c.31.16.45.03.73.19"/>
          <path class="cls-1" d="M13.61,8.62l-2.32-.08s-.04,0-.04-.03.04-.03.04-.03l1.43-.05c-.11-.05-.2-.05-.29-.06-.11,0-.22-.02-.38-.1-.21-.11-.32-.1-.41-.1-.05,0-.09,0-.15,0-.12-.03-.18-.1-.19-.13,0-.01,0-.02,0-.03.01,0,.02,0,.04.02.03.02.07.06.13.06,0,0,.01,0,.02,0,.03,0,.06,0,.09,0,.12-.01.28-.03.47.07.13.07.25.07.38.08.13,0,.26,0,.41.08h0c-.15-.06-.28-.07-.41-.07-.13,0-.25,0-.38-.08-.19-.1-.35-.08-.47-.07-.04,0-.07,0-.1,0,0,0-.01,0-.02,0-.07,0-.11-.04-.13-.06-.02-.02-.03-.03-.04-.02,0,0,0,.02,0,.03,0,.04.07.1.19.13.05.01.1.01.15,0,.02,0,.04,0,.06,0,.08,0,.19.01.35.1.16.08.27.09.38.1.09,0,.18.01.29.06l.89-.03h0s-.88.04-.88.04c.02,0,.04.02.06.03-.02-.01-.04-.02-.07-.03l-1.43.05s-.04,0-.04.03.04.03.04.03l2.32.09Z"/>
        </g>
        <g id="a-7" data-name="a">
          <path class="cls-5" d="M13.65,8.4l-2.18-.81s-.04-.02-.05.01c-.01.03.03.04.03.04l2.11.97M13,8.01c-.22-.24-.48-.22-.67-.44-.18-.22-.41-.22-.51-.28-.1-.05-.1-.15-.13-.14-.03.01-.02.12.11.22s.25.04.47.31c.23.27.41.2.6.46"/>
          <path class="cls-1" d="M13.56,8.61l-2.11-.97s-.04-.02-.03-.04c.01-.03.05-.01.05-.01l1.34.5c-.08-.08-.16-.12-.24-.16-.1-.05-.2-.1-.31-.23-.15-.18-.25-.21-.34-.25-.05-.02-.09-.03-.13-.06-.1-.07-.13-.16-.12-.2,0-.01,0-.02.02-.03,0,0,0,0,0,0,.01,0,.02.01.03.03.02.03.04.08.1.11.03.01.07.02.11.04.12.03.27.08.41.24.09.11.2.16.32.22.12.05.24.11.35.22h0c-.11-.12-.23-.17-.34-.22-.12-.05-.23-.11-.32-.22-.13-.16-.29-.21-.41-.24-.04-.01-.08-.02-.11-.04-.06-.03-.08-.08-.1-.11,0-.02-.02-.03-.03-.03,0,0,0,0,0,0,0,0-.01.01-.01.02,0,.04.02.12.12.19.04.03.09.05.13.06.09.03.19.07.34.25.11.13.21.18.31.23.08.04.16.08.24.17l.83.31-.83-.31s.03.03.05.05c-.02-.02-.03-.04-.05-.06l-1.34-.5s-.04-.01-.05,0c-.01.03.03.04.03.04l2.11.97Z"/>
        </g>
        <g id="a-8" data-name="a">
          <path class="cls-5" d="M13.69,8.42l-1.7-1.58s-.03-.03-.05-.01c-.02.02.01.05.01.05l1.58,1.7M13.23,7.82c-.11-.3-.36-.39-.45-.66-.09-.27-.29-.36-.37-.45-.08-.09-.03-.18-.07-.18-.04,0-.07.11.01.24s.21.13.32.47c.11.33.3.34.38.65"/>
          <path class="cls-1" d="M13.53,8.58l-1.58-1.7s-.03-.03,0-.05c.02-.02.05,0,.05,0l1.05.97c-.04-.11-.1-.18-.16-.25-.07-.08-.14-.17-.2-.33-.07-.22-.15-.29-.22-.36-.04-.03-.07-.06-.1-.11-.06-.11-.06-.2-.04-.23,0-.01.01-.02.02-.02h0s.02.02.02.04c0,.03,0,.09.05.14.02.02.05.05.08.08.09.07.22.18.28.38.04.14.13.23.21.32.09.09.18.19.23.34h0c-.06-.15-.15-.25-.23-.34-.09-.09-.17-.18-.21-.32-.06-.2-.19-.3-.28-.38-.04-.03-.07-.05-.09-.08-.04-.05-.05-.1-.05-.14,0-.03,0-.04-.02-.04h0s-.02,0-.02.02c-.02.03-.03.12.04.23.03.05.06.08.1.11.07.07.15.14.22.36.05.17.13.25.2.33.06.07.12.14.16.25l.65.6h0s-.65-.6-.65-.6c0,.02.01.04.02.07,0-.03-.01-.05-.02-.07l-1.05-.98s-.03-.03-.05,0c-.02.02,0,.05,0,.05l1.58,1.7Z"/>
        </g>
        <g id="b-5" data-name="b">
          <path class="cls-1" d="M12.78,8.65c-.31.02-.44.19-.73.16.22.08.39-.11.72-.1M13.58,8.45l-1.45.66,1.49-.56"/>
        </g>
        <g id="b-6" data-name="b">
          <path class="cls-1" d="M12.78,8.32c-.29-.1-.48,0-.73-.13.18.15.4.05.7.19M13.6,8.44l-1.59.06,1.59.06"/>
        </g>
        <g id="b-7" data-name="b">
          <path class="cls-1" d="M12.92,8.02c-.23-.21-.45-.18-.62-.4.1.21.35.2.58.44M13.63,8.45l-1.49-.56,1.45.66"/>
        </g>
        <g id="b-8" data-name="b">
          <path class="cls-1" d="M13.15,7.79c-.13-.28-.35-.34-.42-.61.02.23.25.32.36.63M13.65,8.46l-1.17-1.08,1.08,1.17"/>
        </g>
      </g>
      <g id="c-3" data-name="c">
        <g id="a-9" data-name="a">
          <path class="cls-5" d="M13.71,8.46l-.97-2.11s-.02-.04-.04-.03c-.03.01-.01.05-.01.05l.81,2.18M13.52,7.73c.01-.32-.19-.5-.16-.78.03-.29-.13-.45-.17-.56-.04-.11.04-.18,0-.19-.03-.02-.1.07-.08.23s.14.21.12.56c-.03.35.14.43.1.75"/>
          <path class="cls-1" d="M13.5,8.55l-.81-2.18s-.02-.04.01-.05c0,0,0,0,0,0,.02,0,.04.03.04.03l.6,1.3c0-.12-.03-.2-.05-.29-.03-.1-.07-.21-.06-.38.02-.23-.03-.33-.07-.42-.02-.04-.04-.08-.05-.14-.02-.12.02-.2.05-.23.01,0,.02,0,.03,0,.02,0,0,.02,0,.05-.01.03-.03.08,0,.15,0,.03.03.06.05.1.06.11.14.25.12.46-.01.14.03.26.08.38.04.12.09.24.08.4h0c0-.16-.04-.28-.08-.4-.04-.12-.09-.24-.08-.38.02-.21-.06-.35-.12-.46-.02-.04-.04-.07-.05-.1-.02-.06,0-.11,0-.15,0-.02.01-.04,0-.04,0,0-.02,0-.03,0-.03.02-.07.1-.05.22,0,.05.03.09.05.14.04.09.09.18.07.42-.01.17.02.28.06.38.03.09.06.17.05.29l.37.81h0l-.37-.8s0,.05,0,.07c0-.03,0-.05,0-.07l-.6-1.3s-.01-.03-.03-.03c0,0,0,0,0,0-.03.01,0,.05,0,.05l.81,2.18Z"/>
        </g>
        <g id="a-10" data-name="a">
          <path class="cls-5" d="M13.72,8.5l-.09-2.32s0-.04-.03-.04c-.03,0-.03.04-.03.04l-.09,2.32M13.83,7.75c.13-.29.02-.53.15-.78.13-.25.05-.46.06-.58,0-.12.1-.15.08-.18-.02-.03-.12.03-.16.18s.05.24-.11.56c-.16.31-.03.45-.19.73"/>
          <path class="cls-1" d="M13.72,8.5l-.03-.88s-.02.04-.03.06c.01-.02.02-.04.03-.06l-.05-1.43s0-.04-.03-.04-.03.04-.03.04l-.09,2.32.08-2.32s0-.04.03-.04.03.04.03.04l.05,1.43c.05-.11.05-.19.06-.29,0-.11.02-.22.1-.38.11-.21.1-.32.1-.41,0-.05,0-.09,0-.15.03-.12.1-.18.13-.19.01,0,.02,0,.03,0,.01.01,0,.03-.02.04-.02.03-.06.07-.06.13,0,.03,0,.07,0,.11.01.12.03.28-.07.47-.07.13-.07.25-.08.38,0,.13,0,.26-.08.41h0c.07-.15.07-.28.08-.41,0-.13,0-.25.08-.38.1-.19.08-.35.07-.47,0-.04,0-.08,0-.11,0-.07.04-.11.06-.13.02-.02.03-.03.02-.04,0,0-.02,0-.03,0-.04,0-.1.07-.13.19-.01.05-.01.1,0,.15,0,.1,0,.21-.1.41-.08.16-.09.27-.1.38,0,.09-.01.18-.06.29l.03.89h0Z"/>
        </g>
        <g id="a-11" data-name="a">
          <path class="cls-5" d="M13.71,8.55l.81-2.18s.02-.04-.01-.05c-.03-.01-.04.03-.04.03l-.97,2.11M14.1,7.9c.24-.22.22-.48.44-.67.22-.18.22-.41.28-.51.05-.1.15-.1.14-.13-.01-.03-.12-.02-.22.11s-.04.25-.31.47c-.27.23-.2.41-.46.6"/>
          <path class="cls-1" d="M13.71,8.55h0l.31-.83s-.03.03-.05.05c.02-.02.04-.03.05-.05l.5-1.34s.02-.04,0-.05c0,0,0,0,0,0-.02,0-.03.03-.03.03l-.97,2.11.97-2.11s.01-.03.04-.03c0,0,0,0,0,0,.03.01.01.05.01.05l-.5,1.34c.08-.08.12-.16.17-.24.05-.1.1-.2.23-.31.18-.15.21-.25.25-.34.02-.05.03-.09.06-.13.07-.09.14-.12.19-.12,0,0,0,0,.01,0,.01,0,.02,0,.02.02,0,.01,0,.02-.03.03-.03.02-.08.04-.11.1-.01.03-.02.07-.04.11-.03.12-.08.27-.24.41-.11.09-.16.2-.22.32-.05.12-.11.24-.23.35h0c.12-.11.17-.23.23-.35.05-.12.1-.23.21-.32.16-.13.21-.29.24-.41.01-.04.02-.08.04-.11.03-.06.08-.08.11-.1.02-.01.04-.02.03-.03,0,0-.01-.01-.02-.01,0,0,0,0,0,0-.04,0-.12.03-.18.12-.03.04-.05.09-.06.13-.03.09-.07.19-.25.34-.13.11-.18.21-.23.31-.04.08-.08.16-.17.24l-.31.83Z"/>
        </g>
        <g id="a-12" data-name="a">
          <path class="cls-5" d="M13.69,8.59l1.58-1.7s.03-.03.01-.05c-.02-.02-.05.01-.05.01l-1.7,1.58M14.29,8.13c.3-.11.39-.36.66-.45.27-.09.36-.29.45-.37.09-.08.18-.03.18-.07,0-.04-.11-.07-.24.01s-.13.21-.47.32c-.33.11-.34.3-.65.38"/>
          <path class="cls-1" d="M13.69,8.59h0s.6-.65.6-.65c-.02,0-.04.01-.07.02.02,0,.05-.01.07-.02l.98-1.05s.02-.02.02-.03c0,0,0-.01,0-.02,0,0-.01,0-.02,0-.02,0-.03.02-.03.02l-1.7,1.58,1.7-1.58s.03-.03.05,0c0,0,0,.01,0,.02,0,.02-.02.03-.02.04l-.97,1.05c.11-.04.18-.1.25-.16.08-.07.17-.14.34-.2.22-.07.29-.15.36-.22.03-.04.06-.07.11-.1.11-.06.2-.06.23-.04.01,0,.02.02.02.02,0,.02-.02.02-.04.02-.03,0-.09,0-.14.05-.02.02-.05.05-.08.09-.07.09-.18.22-.38.28-.14.04-.23.13-.32.21-.09.09-.19.18-.34.23h0c.15-.06.25-.15.34-.23.09-.09.18-.17.32-.21.2-.06.3-.19.38-.28.03-.04.05-.07.08-.09.05-.04.1-.05.14-.05.02,0,.04,0,.04-.02,0,0,0-.02-.02-.02-.01,0-.04-.01-.06-.01-.04,0-.1.01-.16.05-.05.03-.08.06-.11.1-.07.07-.14.15-.36.22-.17.05-.25.13-.33.2-.07.06-.14.12-.25.16l-.6.65Z"/>
        </g>
        <g id="b-9" data-name="b">
          <path class="cls-1" d="M13.46,7.67c-.02-.31-.19-.44-.16-.73-.08.22.11.39.1.72M13.66,8.48l-.66-1.45.56,1.49"/>
        </g>
        <g id="b-10" data-name="b">
          <path class="cls-1" d="M13.79,7.68c.1-.29,0-.48.13-.73-.15.18-.05.4-.19.7M13.67,8.5l-.06-1.59-.06,1.59"/>
        </g>
        <g id="b-11" data-name="b">
          <path class="cls-1" d="M14.09,7.81c.21-.23.18-.45.4-.62-.21.1-.2.35-.44.58M13.66,8.52l.56-1.49-.66,1.45"/>
        </g>
        <g id="b-12" data-name="b">
          <path class="cls-1" d="M14.32,8.05c.28-.13.34-.35.61-.42-.23.02-.32.25-.63.36M13.65,8.54l1.08-1.17-1.17,1.08"/>
        </g>
      </g>
      <g id="c-4" data-name="c">
        <g id="a-13" data-name="a">
          <path class="cls-5" d="M13.65,8.61l2.11-.97s.04-.02.03-.04c-.01-.03-.05-.01-.05-.01l-2.18.81M14.38,8.42c.32.01.5-.19.78-.16.29.03.45-.13.56-.17.11-.04.18.04.19,0,.02-.03-.07-.1-.23-.08s-.21.14-.56.12c-.35-.03-.43.14-.75.1"/>
          <path class="cls-1" d="M13.65,8.61h0s.8-.37.8-.37c-.02,0-.05,0-.07,0,.03,0,.05,0,.07,0l1.3-.6s.04-.02.03-.04c0,0,0,0-.01-.01-.02,0-.04,0-.04,0l-2.17.81,2.17-.81s.02,0,.04,0c0,0,0,0,.01.01.01.03-.03.04-.03.04l-1.3.6h.01c.11,0,.19-.03.27-.05.1-.04.21-.07.38-.06.04,0,.07,0,.1,0,.16,0,.24-.04.32-.07.04-.02.08-.04.14-.05.12-.02.2.02.23.05,0,.01,0,.02,0,.03,0,.01-.02,0-.05,0-.03,0-.08-.03-.15,0-.03,0-.06.03-.1.05-.09.05-.22.12-.4.12-.02,0-.04,0-.06,0-.02,0-.03,0-.05,0-.12,0-.22.04-.33.08-.11.04-.23.09-.38.09,0,0-.02,0-.03,0h0s.02,0,.03,0c.15,0,.26-.04.38-.08.11-.04.21-.08.33-.08.02,0,.03,0,.05,0,.02,0,.04,0,.06,0,.18,0,.3-.07.39-.12.04-.02.07-.04.1-.05.06-.02.11,0,.15,0,.02,0,.04.01.05,0,0,0,0-.02,0-.03-.02-.03-.1-.07-.22-.05-.05,0-.1.03-.14.05-.09.04-.19.09-.42.07-.17-.01-.28.02-.38.06-.08.03-.16.05-.27.05,0,0-.01,0-.02,0l-.81.37Z"/>
        </g>
        <g id="a-14" data-name="a">
          <path class="cls-5" d="M13.61,8.62l2.32-.09s.04,0,.04-.03c0-.03-.04-.03-.04-.03l-2.32-.09M14.36,8.72c.29.13.53.02.78.15.25.13.46.05.58.06.12,0,.15.1.18.08.03-.02-.03-.12-.18-.16s-.24.05-.56-.11c-.31-.16-.45-.03-.73-.19"/>
          <path class="cls-1" d="M15.89,9.02s-.02,0-.03-.02c-.03-.02-.07-.06-.13-.06,0,0-.01,0-.02,0-.03,0-.06,0-.09,0-.12.01-.28.03-.47-.07-.13-.07-.25-.07-.38-.08-.13,0-.26,0-.41-.08h0c.15.06.28.07.41.07.13,0,.25,0,.38.08.19.1.35.08.47.07.04,0,.08-.01.11,0,.07,0,.11.04.13.06.02.02.03.03.04.02,0,0,0-.02,0-.03,0-.04-.07-.1-.19-.13-.05-.01-.1-.01-.15,0-.1,0-.21,0-.41-.1-.16-.08-.27-.09-.38-.1-.09,0-.18-.01-.29-.06l-.89.03h0s.88-.04.88-.04c-.02,0-.04-.02-.06-.03.02.01.04.02.06.03l1.43-.05s.04,0,.04-.03-.04-.03-.04-.03l-2.32-.09,2.32.08s.04,0,.04.03-.04.03-.04.03l-1.43.05c.11.05.2.05.29.06.11,0,.22.02.38.1.17.08.27.1.35.1.04,0,.07,0,.11,0,.03,0,.06,0,.09.01.12.03.18.1.19.13,0,.01,0,.02,0,.03,0,0,0,0-.01,0Z"/>
        </g>
        <g id="a-15" data-name="a">
          <path class="cls-5" d="M13.56,8.61l2.18.81s.04.02.05-.01c.01-.03-.03-.04-.03-.04l-2.11-.97M14.21,8.99c.22.24.48.22.67.44.18.22.41.22.51.28.1.05.1.15.13.14.03-.01.02-.12-.11-.22s-.25-.04-.47-.31c-.23-.27-.41-.2-.6-.46"/>
          <path class="cls-1" d="M15.52,9.85s-.02-.01-.03-.03c-.02-.03-.04-.08-.1-.11-.03-.01-.07-.02-.11-.04-.12-.03-.27-.08-.41-.24-.09-.11-.2-.16-.32-.22-.12-.05-.24-.11-.35-.23h0c.11.12.23.17.34.22.12.05.23.11.32.22.13.16.29.21.41.24.04.01.08.02.11.04.06.03.08.08.1.11.01.02.02.04.03.03,0,0,.01-.01.02-.02,0-.04-.02-.12-.12-.19-.04-.03-.09-.05-.13-.06-.09-.03-.19-.07-.34-.25-.11-.13-.21-.18-.31-.23-.08-.04-.16-.08-.24-.17l-.83-.31.83.31s-.03-.03-.04-.05c.02.02.03.04.05.05l1.34.5s.04.01.05,0c.01-.03-.03-.04-.03-.04l-2.11-.97,2.11.97s.04.02.03.04c0,.03-.05.01-.05.01l-1.34-.5c.08.08.16.12.24.17.1.05.2.1.31.23.15.18.25.21.34.25.05.02.09.03.13.06.1.08.13.16.12.2,0,.01,0,.02-.02.03,0,0,0,0,0,0Z"/>
        </g>
        <g id="a-16" data-name="a">
          <path class="cls-5" d="M13.52,8.59l1.7,1.58s.03.03.05.01c.02-.02-.01-.05-.01-.05l-1.58-1.7M13.98,9.19c.11.3.36.39.45.66.09.27.29.36.37.45.08.09.03.18.07.18.04,0,.07-.11-.01-.24s-.21-.13-.32-.47c-.11-.33-.3-.34-.38-.65"/>
          <path class="cls-1" d="M14.87,10.49h0s-.02-.02-.02-.04c0-.04,0-.09-.05-.14-.02-.02-.05-.05-.09-.08-.09-.07-.22-.18-.28-.38-.04-.14-.13-.23-.21-.32-.09-.09-.18-.19-.23-.34h0c.06.15.15.25.23.34.09.09.17.18.21.32.06.2.19.3.28.38.04.03.07.05.09.08.04.05.05.11.05.14,0,.02,0,.04.02.04h0s.02,0,.02-.02c.02-.03.03-.12-.04-.23-.03-.05-.06-.08-.1-.11-.07-.07-.15-.14-.22-.36-.05-.17-.13-.25-.2-.33-.06-.07-.12-.14-.16-.25l-.65-.6h0s.65.6.65.6c0-.02-.01-.04-.02-.07,0,.03.01.05.02.07l1.05.97s.02.02.03.02c0,0,.01,0,.02,0,.02-.02,0-.05-.01-.05l-1.58-1.7,1.58,1.7s.03.03.01.05c-.02.02-.05-.01-.05-.01l-1.05-.97c.04.11.1.18.16.25.07.08.14.17.2.33.07.22.15.29.22.36.04.03.07.06.1.11.06.11.06.2.04.23,0,.01-.01.02-.02.02Z"/>
        </g>
        <g id="b-13" data-name="b">
          <path class="cls-1" d="M14.44,8.36c.31-.02.44-.19.73-.16-.22-.08-.39.11-.72.1M13.63,8.56l1.45-.66-1.49.56"/>
        </g>
        <g id="b-14" data-name="b">
          <path class="cls-1" d="M14.43,8.69c.29.1.48,0,.73.13-.18-.15-.4-.05-.7-.19M13.61,8.56l1.59-.06-1.59-.06"/>
        </g>
        <g id="b-15" data-name="b">
          <path class="cls-1" d="M14.3,8.99c.23.21.45.18.62.4-.1-.21-.35-.2-.58-.44M13.59,8.56l1.49.56-1.45-.66"/>
        </g>
        <g id="b-16" data-name="b">
          <path class="cls-1" d="M14.06,9.21c.13.28.35.34.42.61-.02-.23-.25-.32-.36-.63M13.57,8.55l1.17,1.08-1.08-1.17"/>
        </g>
      </g>
      <g>
        <circle class="cls-5" cx="13.61" cy="8.5" r=".94"/>
        <path class="cls-1" d="M13.61,9.45c-.52,0-.95-.42-.95-.95s.42-.95.95-.95.95.42.95.95-.42.95-.95.95ZM13.61,7.56c-.52,0-.94.42-.94.94s.42.94.94.94.94-.42.94-.94-.42-.94-.94-.94Z"/>
      </g>
      <g id="h">
        <path class="cls-4" d="M13.93,8.3c-.06,0-.13.03-.16.09.07.07.23.07.34,0-.05-.05-.11-.08-.18-.08h0ZM13.93,8.32c.06,0,.12.03.13.06-.07.08-.19.07-.26.01.03-.05.08-.07.13-.07h0Z"/>
      </g>
      <g id="d">
        <path class="cls-1" d="M13.94,8.26c-.09,0-.12.02-.16.06-.04.04-.07.03-.07.04,0,0,0,.03.01.02s.04-.02.09-.06c.04-.04.09-.04.13-.04.13,0,.2.11.22.1.01,0-.07-.12-.22-.12h0Z"/>
      </g>
      <g id="e">
        <path class="cls-1" d="M14.2,8.3c-.17-.15-.38-.17-.49-.06-.03.04-.05.08-.05.12-.01.08.01.17.08.26,0,0-.02,0-.03.01-.06-.11-.08-.22-.06-.33,0-.03.01-.06.02-.08.16-.13.38-.15.54.07h0Z"/>
      </g>
      <g id="f">
        <circle class="cls-1" cx="13.93" cy="8.37" r=".07"/>
      </g>
      <g id="g">
        <path class="cls-1" d="M14.12,8.42c-.12.09-.25.09-.32.04-.07-.04-.07-.06-.06-.06s.03.01.09.04c.06.03.15.03.29-.03h0Z"/>
      </g>
      <path class="cls-1" d="M13.46,8.63s-.05.03-.05.06c0,.04.03.06.07.06.02,0,.04-.01.05-.03.03.02.06.02.08.02,0,0,0,0,0,0,.02,0,.05,0,.08-.02.01.02.03.03.05.03.04,0,.07-.03.07-.06,0-.03-.02-.06-.05-.06.02,0,.03.02.03.04,0,.02-.02.04-.04.04h0s-.04-.02-.04-.04c0,.01-.04.06-.09.06-.06,0-.08-.04-.09-.06,0,.02-.02.04-.04.04-.02,0-.04-.02-.04-.04h0s.01-.04.03-.04h0ZM13.53,8.83c-.07,0-.1.07-.17.11.04-.01.06-.04.12-.07s.09,0,.12,0h0s.07-.04.12,0c.05.03.08.06.12.07-.07-.04-.1-.11-.17-.11-.01,0-.04,0-.07.02h0s-.06-.02-.07-.02Z"/>
      <path class="cls-1" d="M13.51,8.91s-.07,0-.12.02c.13-.03.16.01.22.01h0c.06,0,.09-.04.22-.01-.15-.04-.17-.01-.22-.01h0s-.05-.01-.1,0h0Z"/>
      <path class="cls-1" d="M13.39,8.94s-.02,0-.03,0c.15.01.08.1.24.1h0c.16,0,.09-.09.24-.1-.16-.01-.11.08-.24.08h0c-.12,0-.08-.08-.21-.08h0ZM13.74,9.17c0-.07-.06-.13-.13-.13-.07,0-.13.06-.13.13.01-.06.07-.1.13-.1.06,0,.12.04.13.1Z"/>
      <g id="e-2" data-name="e">
        <path class="cls-1" d="M13.02,8.3c.17-.15.38-.17.49-.06.03.04.05.08.05.12.01.08-.01.17-.08.26,0,0,.02,0,.03.01.06-.11.08-.22.06-.33,0-.03-.01-.06-.02-.08-.16-.13-.38-.15-.54.07h0Z"/>
      </g>
      <g id="d-2" data-name="d">
        <path class="cls-1" d="M13.28,8.26c.09,0,.12.02.16.06.04.04.07.03.07.04,0,0,0,.03-.01.02s-.04-.02-.09-.06c-.04-.04-.09-.04-.13-.04-.13,0-.2.11-.22.1-.01,0,.07-.12.22-.12h0Z"/>
      </g>
      <g id="h-2" data-name="h">
        <path class="cls-4" d="M13.28,8.3c-.06,0-.13.03-.16.09.07.07.23.07.34,0-.05-.05-.11-.08-.18-.08h0ZM13.27,8.32c.06,0,.12.03.13.06-.07.08-.19.07-.26.01.03-.05.08-.07.13-.07h0Z"/>
      </g>
      <g id="f-2" data-name="f">
        <circle class="cls-1" cx="13.28" cy="8.37" r=".07"/>
      </g>
      <g id="g-2" data-name="g">
        <path class="cls-1" d="M13.11,8.42c.12.09.25.09.32.04.07-.04.07-.06.06-.06s-.03.01-.09.04c-.06.03-.15.03-.29-.03h0Z"/>
      </g>
    </g>
  </g>
</svg>