<?xml version="1.0" encoding="UTF-8"?>
<svg id="Layer_2" data-name="Layer 2" xmlns="http://www.w3.org/2000/svg" xmlns:xlink="http://www.w3.org/1999/xlink" viewBox="0 0 30.61 18.09">
  <defs>
    <style>
      .cls-1 {
        fill: #fff;
      }

      .cls-2 {
        fill: none;
      }

      .cls-3 {
        fill: #ffc316;
      }

      .cls-4 {
        clip-path: url(#clippath-1);
      }

      .cls-5 {
        fill: #010101;
      }

      .cls-6 {
        fill: #be202e;
      }

      .cls-7 {
        clip-path: url(#clippath);
      }

      .cls-8 {
        fill: #2a946b;
      }
    </style>
    <clipPath id="clippath">
      <polygon class="cls-2" points=".29 .54 28.64 9.05 .29 17.55 .29 .54"/>
    </clipPath>
    <clipPath id="clippath-1">
      <polygon class="cls-2" points=".29 .54 14.46 9.05 .29 17.55 .29 .54"/>
    </clipPath>
  </defs>
  <g id="Layer_1-2" data-name="Layer 1">
    <g>
      <path class="cls-8" d="M.29.54h28.35v17.01H.29V.54Z"/>
      <g class="cls-7">
        <g>
          <path class="cls-3" d="M.29.54l28.35,8.5L.29,17.55"/>
          <polygon class="cls-1" points=".46 18.09 .13 17.01 26.67 9.05 .13 1.09 .46 0 30.61 9.05 .46 18.09"/>
        </g>
      </g>
      <g class="cls-4">
        <g>
          <path class="cls-6" d="M.29.54l14.17,8.5L.29,17.55"/>
          <polygon class="cls-5" points=".58 18.04 0 17.06 13.36 9.05 0 1.03 .58 .06 15.57 9.05 .58 18.04"/>
        </g>
      </g>
    </g>
  </g>
</svg>