<?xml version="1.0" encoding="UTF-8"?>
<svg id="Layer_2" data-name="Layer 2" xmlns="http://www.w3.org/2000/svg" viewBox="0 0 30.92 17.01">
  <defs>
    <style>
      .cls-1 {
        stroke-width: .02px;
      }

      .cls-1, .cls-2, .cls-3, .cls-4, .cls-5, .cls-6, .cls-7, .cls-8, .cls-9, .cls-10, .cls-11, .cls-12, .cls-13, .cls-14, .cls-15 {
        stroke: #010101;
      }

      .cls-1, .cls-2, .cls-3, .cls-6, .cls-7, .cls-8, .cls-9, .cls-10, .cls-11, .cls-12, .cls-13, .cls-15 {
        fill: #0a9c49;
      }

      .cls-2 {
        stroke-width: .02px;
      }

      .cls-3 {
        stroke-width: .03px;
      }

      .cls-4 {
        fill: none;
        stroke-width: .04px;
      }

      .cls-4, .cls-5 {
        stroke-miterlimit: 10;
      }

      .cls-16, .cls-5 {
        fill: #fff;
      }

      .cls-5 {
        stroke-width: .1px;
      }

      .cls-6 {
        stroke-width: .03px;
      }

      .cls-17 {
        fill: #d42e27;
      }

      .cls-7 {
        stroke-width: .02px;
      }

      .cls-18 {
        fill: #1d439b;
      }

      .cls-8 {
        stroke-width: .02px;
      }

      .cls-9 {
        stroke-width: .02px;
      }

      .cls-10 {
        stroke-width: .02px;
      }

      .cls-19 {
        fill: #010101;
      }

      .cls-11 {
        stroke-width: .02px;
      }

      .cls-12 {
        stroke-width: .02px;
      }

      .cls-13, .cls-14 {
        stroke-width: .02px;
      }

      .cls-14 {
        fill: #fedf00;
      }

      .cls-15 {
        stroke-width: .02px;
      }
    </style>
  </defs>
  <g id="Layer_1-2" data-name="Layer 1">
    <g>
      <path class="cls-18" d="M0,0h30.92v17.01H0V0Z"/>
      <path class="cls-16" d="M0,0h30.92v11.34H0V0Z"/>
      <path class="cls-17" d="M0,0h30.92v5.67H0V0Z"/>
      <path class="cls-5" d="M17.62,8.5c0,1.19-.96,2.16-2.16,2.16s-2.16-.97-2.16-2.16.97-2.16,2.16-2.16,2.16.96,2.16,2.16Z"/>
      <path class="cls-3" d="M16.5,8.17c-.05,0-.05.06-.05.06,0,0,0-.02,0,0,0,.02,0,.07.05.07.04,0,.05-.04.05-.07,0,0,0-.06-.05-.06"/>
      <path class="cls-19" d="M14.11,9.37l-.02-.03s0,0-.01-.02c0,0,0,0-.01,0,0,0-.01,0-.02,0,0,0-.01.01-.01.02,0,0,0,.02.01.03l.02.03.05-.03ZM14.29,9.36l-.23.14-.07-.12s-.02-.04-.02-.05c0-.01,0-.03,0-.04,0-.01.02-.02.03-.03.01,0,.02-.01.04-.01.01,0,.03,0,.04,0,0,0,.02.01.02.02,0-.01,0-.02,0-.02,0,0,0,0,0-.02,0,0,0-.01,0-.02l.05-.08.05.08-.05.08s0,.02-.01.02c0,0,0,.01,0,.02h0s.1-.05.1-.05l.04.07ZM13.88,9.16l-.07-.21.06-.02.04.13h.04s-.04-.14-.04-.14l.05-.02.04.12.05-.02-.05-.14.06-.02.07.22-.26.09ZM13.89,8.73v-.02s0-.03-.01-.03c0,0-.01,0-.02,0,0,0-.02,0-.02.01,0,0,0,.02,0,.03v.02s.06,0,.06,0ZM13.78,8.83l-.02-.14s0-.05.01-.07c.01-.02.03-.03.06-.03.03,0,.05,0,.07.02.02.01.03.04.03.07v.05s.11-.01.11-.01v.08s-.26.03-.26.03ZM13.77,8.3v-.08s.17.02.17.02c.02,0,.03,0,.04.01.01,0,.03.02.04.03,0,.01.02.02.02.04,0,.02,0,.04,0,.06,0,.01,0,.03,0,.04,0,.02,0,.03-.02.04,0,.01-.02.02-.03.03,0,0-.02.01-.03.01-.02,0-.03,0-.05,0l-.16-.02v-.08s.17.02.17.02c.01,0,.03,0,.04,0,0,0,.01-.02.02-.03,0-.01,0-.03,0-.04,0,0-.02-.01-.03-.02l-.17-.02ZM14.04,8.07v-.04s.02-.02.02-.03c0,0,0-.01-.02-.01,0,0-.01,0-.02,0,0,0-.01.01-.02.03v.04s.04.02.04.02ZM13.94,8.03v-.03s.02-.02.01-.03c0,0,0-.01-.02-.01,0,0-.01,0-.02,0,0,0-.01.01-.01.02v.04s.04.02.04.02ZM13.81,8.08l.05-.15s.02-.04.04-.05c.02,0,.04-.01.05,0,.01,0,.03.01.03.03,0,0,0,.02,0,.03.01-.02.02-.03.04-.03.01,0,.03,0,.05,0,.01,0,.02.01.03.02,0,.01.01.02.02.03,0,0,0,.02,0,.03,0,.02,0,.03,0,.04l-.05.14-.26-.09ZM13.95,7.73l.04-.07.18.11.07-.11.06.03-.11.18-.23-.14ZM14.13,7.46l.05-.06.21.18-.05.06-.21-.18ZM14.51,7.31l.07-.03s.01.04.01.06c0,.02,0,.03-.01.05,0,.02-.02.03-.04.05-.02.02-.04.03-.06.04-.02,0-.04,0-.07,0-.02,0-.05-.03-.07-.05-.03-.03-.04-.07-.04-.1,0-.03.02-.06.05-.09.03-.02.05-.03.08-.04.02,0,.05,0,.07.02l-.05.06s-.01,0-.02,0c0,0-.02,0-.02,0,0,0-.01,0-.02.01-.01.01-.02.03-.02.05,0,.01,0,.03.03.05.02.02.04.04.05.04.01,0,.03,0,.04-.01.01-.01.02-.02.02-.03,0-.01,0-.03-.01-.04M14.78,7.15l-.07-.07.02.1.05-.03ZM14.83,7.19l-.09.04v.05s-.07.04-.07.04l-.03-.29.08-.04.22.2-.08.04-.03-.03ZM15.16,6.91l.02.15h.02s.03,0,.04-.01c0,0,.01-.01.01-.02,0-.01,0-.03,0-.05,0-.03-.01-.05-.02-.06-.01,0-.03-.01-.05,0h-.02ZM15.07,6.86l.12-.02s.04,0,.06,0c.02,0,.03.01.04.02.01.01.02.02.03.04,0,.02.01.03.01.05,0,.03,0,.05,0,.07,0,.02-.01.03-.02.04-.01.01-.02.02-.03.03-.02,0-.03.01-.05.01l-.12.02-.04-.27ZM15.44,6.81l.22.02v.06s-.14-.01-.14-.01v.04s.13,0,.13,0v.06s-.13,0-.13,0v.05s.14.01.14.01v.06s-.23-.02-.23-.02l.02-.27ZM15.78,6.84l.08.02-.06.2.13.04-.02.06-.21-.06.07-.26ZM16.24,7.14h.02s.02.02.03.02c0,0,.02,0,.02-.01,0,0,0-.01,0-.02,0,0,0-.02-.02-.02h-.02s-.03.04-.03.04ZM16.24,7l.12.08s.04.04.04.06c0,.02,0,.04-.02.06-.01.02-.03.04-.06.04-.02,0-.05,0-.08-.02l-.04-.03-.06.08-.07-.05.15-.23ZM16.53,7.41l.05-.09-.09.05.04.04ZM16.5,7.47l-.07-.07-.04.02-.06-.06.13-.06.14-.06.07.06-.12.27-.06-.06.02-.04ZM16.76,7.59l.02.03s0,0,.02.02c0,0,0,0,.01,0,0,0,.01,0,.02,0,0,0,.01-.01.01-.02,0,0,0-.02-.01-.03l-.02-.03-.05.03ZM16.58,7.6l.23-.15.08.12s.02.04.03.05c0,.01,0,.03,0,.04,0,.01-.02.03-.03.03-.01,0-.03.01-.04.01-.01,0-.02,0-.04,0,0,0-.02-.01-.02-.02,0,.01,0,.02,0,.02,0,0,0,.01,0,.02,0,0,0,.01,0,.02l-.04.08-.05-.08.05-.08s0-.02,0-.02c0,0,0-.01,0-.02h0s-.09.05-.09.05l-.05-.07ZM16.9,7.97l.08-.06h-.1s.02.06.02.06ZM16.85,8l-.03-.09h-.05s-.03-.08-.03-.08h.29s.03.09.03.09l-.22.19-.03-.08.04-.03ZM16.98,8.29h.06s.02.12.02.12h-.12s-.03-.03-.04-.05c0-.02-.01-.04-.02-.07,0-.03,0-.06,0-.08,0-.02.02-.04.04-.05.02-.01.04-.02.07-.03.03,0,.06,0,.08,0,.02,0,.04.02.06.05.01.02.02.04.02.07,0,.03,0,.05,0,.07,0,.02-.01.03-.02.04-.01.01-.02.02-.04.03l-.02-.08s.02-.01.02-.02c0,0,0-.02,0-.03,0-.02-.01-.03-.02-.04-.01,0-.04-.01-.06,0-.03,0-.05.01-.06.02-.01.01-.01.03-.01.05,0,0,0,.02,0,.03,0,0,0,.02.02.03h.03s0-.06,0-.06ZM17.15,8.7v.08s-.17-.02-.17-.02c-.02,0-.03,0-.04-.01-.01,0-.03-.02-.03-.03,0-.01-.02-.02-.02-.04,0-.02,0-.04,0-.06,0-.01,0-.03,0-.04,0-.02,0-.03.02-.04,0-.01.02-.02.03-.03.01,0,.02-.01.03-.01.02,0,.03,0,.05,0l.16.02v.08s-.17-.02-.17-.02c-.02,0-.03,0-.04,0,0,0-.01.02-.02.03,0,.01,0,.03,0,.04,0,0,.02.01.03.02l.17.02ZM16.9,9.01h.1s-.08-.06-.08-.06l-.02.06ZM16.84,9.01l.03-.09-.04-.03.03-.08.22.19-.03.09h-.29s.03-.08.03-.08h.05ZM16.99,9.26l-.05.08h-.11s.05.09.05.09l-.05.08-.08-.17-.1-.06.04-.07.1.06h.19Z"/>
      <path class="cls-4" d="M17.27,8.5c0,1-.81,1.81-1.8,1.81s-1.8-.81-1.8-1.8.81-1.8,1.8-1.8,1.8.81,1.8,1.8h0Z"/>
      <path class="cls-4" d="M16.8,8.5c0,.74-.6,1.34-1.34,1.34s-1.34-.6-1.34-1.34.6-1.34,1.34-1.34,1.34.6,1.34,1.34h0Z"/>
      <path class="cls-14" d="M15.46,8.01l.11.32h.34s-.27.21-.27.21l.1.33-.28-.19-.28.19.1-.33-.27-.21h.34s.11-.33.11-.33Z"/>
      <path class="cls-9" d="M16.08,9.42s-.06.01-.07.02c-.01,0-.06,0-.08,0-.01,0-.03,0-.04,0-.1-.01.16,0,.19-.02M15.82,9.35s.04-.08.05-.1c.01-.02.04-.07.05-.1,0-.01.04-.05.05-.03-.06.05-.1.13-.12.19,0,0-.02.04-.03.05,0,0,0,.02-.01.02-.01,0,0,0,0,0,0,0,0-.02.02-.03h0ZM16.19,9.4s-.04,0-.07-.02c-.03,0-.07-.02-.11-.02-.04,0-.07.01-.11.02-.03.01-.07.01-.07.01,0,0-.02,0-.01,0,.01,0,.05-.03.05-.03l.02-.03s.12-.16.11-.2c.02-.03.04-.09.03-.09,0,0-.09.03-.11.05-.02.02-.04.06-.04.08,0,.02-.04.04-.04.04-.03.02-.05.08-.06.13,0,.05-.13.08-.13.08,0,0-.03.01,0,.02,0,0,.02.02.03.03.02,0,.09-.03.1-.03.03,0,.05.01.08.02.03.01.05.02.07,0,.02,0,.05,0,.07,0,.02,0,.05,0,.06,0,.02,0,.06-.03.06-.03,0,0,.04-.02.07-.03.03-.01,0-.02,0-.02"/>
      <path class="cls-13" d="M15.86,9.55s-.17-.09-.18-.09c0,0-.08-.04-.11-.05-.02,0-.06,0-.07,0-.03,0-.07.01-.07.01l.04.02s.04.02.06.03c.03.01.03.03.03.03l.16.07.03.02s.03-.04.12-.03"/>
      <path class="cls-12" d="M16.03,9.2c.05-.05.08-.12.12-.15,0,0,0,.01,0,.03,0,.01-.02.02-.02.03,0,.01-.04.03-.04.05,0,.01-.01.03-.04.04-.02.01-.02.04-.02.05,0,.01-.04.04-.06.07,0,.03,0,.02-.03.03.04-.06.06-.09.08-.14M15.91,9.35s-.11.07-.08.06c.03,0,.13-.04.16-.06.03-.01.05-.05.08-.07.03-.03.11-.1.12-.13.01-.03.03-.07-.03-.17,0,0,0,.02-.03.04-.02.02-.05.04-.05.04l-.04.03s-.12.23-.14.26"/>
      <path class="cls-9" d="M16.34,9.27s-.07,0-.07,0c0,0-.04,0-.1,0s-.07.02-.09.03c-.02.02-.06.06-.06.06h.02c.05-.04.1-.03.11-.03.02,0,.04,0,.09-.02.06-.02.05,0,.05,0-.03,0-.05.02-.08.02-.04,0-.08.01-.09.01s-.14.03-.14.03c0,0,.13,0,.14.01.01,0,.04,0,.05,0,.05-.02.07-.03.09-.03.02,0,.05-.02.05-.02,0,0,.01,0,.03-.03.01-.02,0-.02,0-.02M16.4,8.91s.03-.07.05-.09c.01-.01.04-.02.05-.02,0,0,.04,0,0,0-.02,0-.05.02-.06.04-.02.05-.03.08-.06.11-.02.02-.04.05-.04.05h-.02s.06-.07.08-.1h0ZM16.61,8.89s-.03.02-.03.02c-.06.02-.08.05-.1.08-.01.01-.03.03-.09.05-.05.02-.1.06-.1.06,0,0-.02,0-.01.01,0,0,.02,0,.02,0,0,0,.11-.02.16-.04.03-.02.05-.03.07-.07.01-.02.03-.05.03-.03,0,.06-.09.12-.13.14-.02,0-.05.01-.09.02-.04,0-.06,0-.06,0,0-.01,0-.01.02-.03.02-.02.06-.03.09-.04.04-.02.07-.04.09-.06.02-.02.02-.03.03-.05.01-.05.01-.07.03-.09.05-.06.05-.08.06-.1,0,0-.02.01-.04.02-.03.01-.03.01-.09.03-.05.01-.05.05-.06.06,0,0-.02.03-.03.04-.01,0-.03.04-.04.06,0,.02-.02.03-.03.03-.01,0,.02-.11.03-.13,0-.02,0-.05,0-.07s0-.04-.02-.05c-.02,0-.02-.03-.02-.03-.05.04-.02.12-.02.16,0,.04,0,.12,0,.12.05.02,0,.08,0,.1-.02.02-.04.02-.06.04-.01.02-.11.15-.11.15l.12-.03s.01,0,0-.01c-.02-.01,0-.06.02-.08.03-.02.07,0,.07,0,0,0,.06,0,.13-.02.06-.02.08-.06.11-.09.01-.02.04-.07.06-.1.01-.02.03-.05.02-.05"/>
      <path class="cls-1" d="M16.27,9.22s.01,0,.03-.02c.02-.02,0-.05-.02-.05-.01,0-.03,0-.05.03-.02.03.01.05.03.05,0,0,.01,0,.02,0"/>
      <path class="cls-8" d="M16.21,9s-.02.06-.01.07c0,0,.01.01.02.01s.04-.01.05-.04c.02-.02.03-.05,0-.06-.03-.01-.05,0-.06.02"/>
      <path class="cls-9" d="M16.3,8.67s0,0,0-.02c-.02-.02-.04-.05-.04-.05-.03.02-.04.06-.04.07s0,.05,0,.08c0,.01,0,.02-.02.07-.02.04,0,.08,0,.09,0,.01.02.05.02.05,0,0,.01,0,.02,0,0,0,.02,0,.02,0,0,0,.02-.04.02-.06,0-.01,0-.04,0-.08,0-.06,0-.07,0-.1,0-.03.04-.05.04-.05"/>
      <path class="cls-15" d="M16.35,8.73s.02,0,.03-.02c.01-.02,0-.04,0-.04-.03-.06-.07-.01-.07-.01-.04.07.03.08.03.08"/>
      <path class="cls-6" d="M16.45,8.63s-.07.08-.07.08c0,0,0,.02-.03.03-.02.02-.01.04-.01.08s-.03.11-.03.11v.02s0,.02,0-.01c.03-.05.06-.04.07-.1,0-.04.08-.06.08-.06h-.02c-.07-.04,0-.13.02-.14.01-.02.03-.02-.02-.01"/>
      <path class="cls-7" d="M16.44,8.72s.04.05.05.04c0,0,.02-.02.02-.02.02-.03,0-.06-.01-.06-.01,0-.04,0-.06.04"/>
      <path class="cls-9" d="M16.33,8.55s.06.11.07.1c0,0,0-.02,0-.02,0,0,0-.02,0-.05,0-.03,0-.06-.02-.08-.01-.02-.04-.05-.06-.08-.01-.03,0-.1,0-.1,0,0,0,0,0-.01,0,0-.06-.04-.06-.04,0,0,0,.02,0,.06,0,0,0,.02,0,.04,0,.01,0,.03.03.08.03.05.04.08.05.1M16.65,8.18s-.02.03-.02.03c0,0-.09.08-.1.08,0,0-.05.02-.09.13-.04.11-.02.21-.02.21h.02s0-.01,0-.01c0,0,0-.04.01-.06,0-.03.04-.07.06-.09.02-.03.04-.07.04-.07.02-.05.03-.09.06-.12,0,.04-.15.28-.16.36h.04s.08-.11.11-.15c.03-.04.04-.11.05-.14,0-.03,0-.16,0-.16"/>
      <path class="cls-9" d="M16.35,8.21s-.04-.03-.04-.03c0,0,0,.04,0,.06s0,.07,0,.09c0,.02-.01.06,0,.09.02.04.03.05.05.08.01.02.03.13.03.13,0,0,0-.15,0-.2,0-.04,0-.11,0-.14,0-.03-.03-.07-.05-.09M16.45,8.06s.02-.04.03-.08c0-.02,0-.05,0-.07,0-.01,0-.04,0-.04,0,0,0,0,0,.03,0,0,0,.03,0,.05,0,.02,0,.04-.01.06,0,.02,0,.05,0,.06,0,0-.02.04-.02.04,0,0,0,.02,0,.04,0,.02,0,.04,0,.04,0,0,0-.02.03-.02,0,0,0-.04,0-.05s.01-.08.02-.11c0-.03.02-.09,0-.15,0-.02,0-.07,0-.07,0,0-.02.02-.03.08,0,.02,0,.07,0,.13,0,.03-.03.15-.03.16"/>
      <path class="cls-9" d="M16.37,7.74s.01.01,0,.02c0,0,0,.03,0,.03,0,0,0,.03,0,.04,0,.01.01.02,0,.05,0,.02-.02.04-.01.07,0,.02.01.03.02.05,0,0,0,.03,0,.05,0,.02.01.03.01.03,0,0-.01.02-.02,0,0-.03,0-.05-.01-.06-.01-.02-.02-.07,0-.1,0,0,0-.02,0-.03s0-.04-.01-.06c0-.01,0-.04,0-.05M16.32,7.91s0,.03.03.07c0,.01.02.05.02.06,0,.01,0,.02,0,.03,0,0,0,.03,0,.03h0s-.06-.02-.08-.04c-.03-.02-.06-.04-.07-.06-.02-.02-.07-.08-.07-.13l-.02-.02s-.02.11.07.18c.02.02.05.04.11.07.06.03.05.05.07.1.02.05.04.08.04.09,0,.02,0,.23,0,.23v.02s.05-.2.08-.22c0,0-.05,0-.05-.08v-.05s-.02-.06,0-.1c0,0,.02-.07.01-.13,0-.04,0-.05-.01-.08,0-.05-.03-.13-.03-.14,0-.03,0-.03-.02-.05,0,0,0-.03-.02-.03,0,0-.01.03-.01.03,0,0-.01.04-.01.04,0,.03-.02.05-.03.12,0,.01,0,.04,0,.05,0,0,0,.02,0,.03"/>
      <path class="cls-9" d="M16.36,8.18s0-.02-.02-.03c-.02-.02-.04-.04-.11-.07-.07-.03-.08-.09-.12-.11-.02-.01-.05-.02-.05-.02,0,0,.03.04.04.06,0,.02.01.03.05.06.04.03.08.05.11.06.04.01.1.05.1.05M16.15,7.86s.02.06.06.11c.06.07.16.12.16.12,0-.04-.03-.09-.04-.12-.05-.08-.18-.12-.18-.12,0,0,0,0,0,0M16.3,7.89c.03-.06-.06-.12-.08-.17,0,0,.02.01.03.02.01.02.05.07.05.07v-.06s-.09-.09-.09-.09c0,.01-.03.02-.03.02-.02.09.12.2.12.2"/>
      <path class="cls-9" d="M16.13,7.75s-.03.01-.03.01v.04s.02,0,.02,0c0,0,.03.05.05.05,0,0,.04,0,.07.02.04.02.1.07.1.07,0,0-.1-.11-.14-.2v-.05s-.05,0-.05,0c0,0,0,.03-.01.05"/>
      <path class="cls-9" d="M15.75,7.67s.04.03.05.04c.02.01.09.05.13.06.01,0,.07,0,.07,0,0-.03.03-.03.03-.03h-.08c-.07-.01-.12-.04-.16-.09.05.03.13.08.2.08.26-.03-.08-.03-.11-.05-.03-.02-.06-.05-.06-.05h-.08s-.04,0,0,.03"/>
      <path class="cls-9" d="M16.06,7.82s.03,0,.03-.02c0-.02,0-.04-.03-.04-.01,0-.04,0-.05.02-.01.03.03.04.03.04,0,0,0,0,.02,0M16.09,7.67s-.03.02-.02.05c0,.04.06.02.06.02h0s0-.01,0-.04c0-.03-.03-.03-.05-.03M16.17,7.7h0s0,0,0,0"/>
      <path class="cls-9" d="M16.17,7.7s0,0,0,0c.01,0,.02-.03.02-.03,0-.04-.02-.05-.02-.05-.04,0-.05.03-.05.03-.01.05.03.05.04.05M15.98,7.53s.03.04.03.05c0,0,.03.04.04.05.01.01.04.08.04.08,0,0,0,0,0,0,0,0-.02-.09-.03-.09-.01-.02-.03-.04-.04-.06,0,0-.02-.02-.03-.04.03.04.11.15.13.2,0,0,0-.05,0-.08,0-.08-.03-.11-.04-.12-.01-.02-.04-.04-.07-.05-.02,0-.05-.02-.08-.03-.03,0,0,.02,0,.04.01.03.02.05.03.07"/>
      <path class="cls-9" d="M15.87,7.66s.04.04.1.05c.06,0,.07,0,.07,0,0,0,.03-.02.02-.03-.09-.04-.17-.08-.21-.14,0,0,0,0,.04.02.02.02.03.03.04.04.03.02.05.03.08.05.02,0,.06.02.06.02,0,0,0-.01.01-.01,0,0,0-.02-.04-.05-.02-.02-.04-.04-.05-.06,0,0-.04,0-.09-.02-.04,0-.1-.06-.1-.04,0,.01,0,.06.03.09.02.03.04.06.06.08"/>
      <path class="cls-13" d="M15.37,9.46s-.22.08-.22.08l-.05.02c.08-.02.13.02.13.02l.22-.1s0,0,0,0c0,0-.04-.02-.07-.02"/>
      <path class="cls-11" d="M15.09,9.56s0,0,0,0c.01,0,0,0,.06.01.05,0,.08,0,.09-.01,0-.01-.12-.03-.15,0"/>
      <path class="cls-2" d="M14.78,8.86v-.06s-.02-.16-.04-.2c0,0,0-.02-.01-.02-.02,0-.02.05-.03.1-.04.24.16.43.16.43l-.08-.25Z"/>
      <path class="cls-10" d="M15.75,9.59s-.02,0,0-.02c.01-.02.05-.02.06-.02,0,0,.03,0,.04,0,.02,0,.04.02.03.03,0,0-.03.02-.06.02-.02,0-.04,0-.05,0-.01,0-.02,0-.02,0"/>
      <path class="cls-13" d="M15.53,9.47s-.07-.03-.13-.06c-.08-.04-.18-.1-.25-.2-.09-.13-.16-.2-.18-.21-.02-.01-.02-.02-.03,0,0,0,0,.02,0,.02.02.03.06.08.08.11.03.05.08.11.08.14,0,0-.02,0-.02,0,0,0-.13-.05-.19-.21-.04-.12-.02-.15-.03-.21-.02-.1-.02-.11-.07-.23,0,0-.03-.05-.04-.04,0,.01,0,.07,0,.07v.06s0,.13,0,.14-.03.09.11.23c0,0,0,.02-.02,0-.01-.01-.12-.09-.15-.22-.03-.13-.04-.26-.01-.31.02-.05.07-.17.05-.27,0-.01,0-.04-.01-.03,0,0-.02.06-.02.07-.01.02-.03.05-.03.07,0,.03-.06.07-.05.16.01.09.02.11.03.14,0,.01.01.04,0,.05,0,0-.03-.04-.03-.04,0,0-.09-.18-.03-.32.06-.14.2-.28.2-.28,0,0,.11-.09.14-.12,0,0,0-.01,0-.01-.03,0-.25.05-.33.31,0,0,0,.01,0,0,0,0,0-.02,0-.02,0,0,.05-.19.18-.27.15-.09.13-.08.18-.11.03-.02.06-.04.09-.1,0,0,.02-.04.02-.05,0,0,0,0-.01.01,0,0-.04.06-.1.09-.06.02-.11,0-.18.06-.06.07-.11.17-.11.17,0,0-.02.03-.02.02,0,0,0-.03,0-.03,0,0,.08-.18.15-.22.07-.04.13-.07.17-.1.05-.04.13-.13.16-.16,0,0,.05-.05.06-.06,0,0,.02-.02.02-.02,0,0-.05.02-.05.02,0,0-.22.06-.36.27,0,0-.02.03-.03.04-.01.02-.02.04-.02.04,0,0,.08-.12.08-.12l.02-.07s.03-.11.08-.18c0,0,.04-.04.04-.05.01-.01-.02.01-.02,0,0,0-.21.15-.21.34,0,.03-.02.06-.05.11-.03.05-.05.08-.06.15,0,.03-.01.06-.02.09,0,0,0,.03,0,.02,0,0,0-.02,0-.02,0,0,.02-.14.04-.18.01-.04.02-.07.02-.07,0,0,0-.11.01-.16.02-.05.07-.12.08-.13,0,0,.03-.05.03-.11,0,0,0,0-.01.02-.02.05-.04.07-.08.11,0,0-.1.07-.13.28,0,0,0,.08-.01.2,0,.09,0,.17,0,.22,0,.03.02.03.01.03,0,0,0,0,0-.02-.01-.03-.02-.07-.02-.13,0-.11,0-.2,0-.2,0,0,0-.18-.07-.26,0,0,.01.04.02.08,0,.05,0,.12-.01.14,0,.03-.05.14-.04.25,0,0,.04.19.09.27,0,0,.03.04,0,0-.03-.04-.09-.18-.09-.19,0-.01-.05-.1-.09-.14-.02-.02-.08-.05-.08-.05,0,0-.03-.02,0,0,.02.02.04.07.06.09.02.04.05.08.07.12.02.04.06.17.06.17l.03.08s.05.03.07.06c.02.02.07.08.1.17.02.04.05.08.05.08,0,0,0,.01-.04-.04-.03-.05-.06-.15-.13-.22-.05-.06-.19-.12-.19-.12,0,0,.09.16.11.19.04.05.09.11.11.13.01.02.1.12.11.14.02.03.03.04.04.05.02.02.09.07.09.07,0,0,0,0,0,0-.03-.02-.07-.05-.1-.07-.04-.02-.18-.08-.27-.22-.02-.04-.03-.05-.04-.05-.01,0,.06.26.22.34,0,0,.17.08.21.1.02.01.06.03.08.05.01,0-.01,0-.01,0-.09,0-.22-.02-.3-.07,0,0-.03-.02,0,0,.02.03.07.09.15.13.08.04.2.06.25.06.04,0,.2,0,.23.01.03,0,.08.04.11.05.03,0,.1.04.1.04,0,0,.02.01.04.02.01,0,.07,0,.08,0,0,0-.02-.02-.02-.02"/>
      <path class="cls-9" d="M16.53,8.17s.03.06.03.06c0,0,0-.03,0-.04s0-.07,0-.07h-.02s-.03.05-.03.05c0,0,.01,0,.03,0"/>
    </g>
  </g>
</svg>