<?xml version="1.0" encoding="UTF-8"?>
<svg id="Layer_2" data-name="Layer 2" xmlns="http://www.w3.org/2000/svg" viewBox="0 0 30.92 17.01">
  <defs>
    <style>
      .cls-1 {
        fill: #0a9c49;
      }

      .cls-2 {
        fill: #fff;
      }

      .cls-3 {
        fill: #fedf00;
      }

      .cls-4 {
        fill: #d42e27;
      }

      .cls-5 {
        fill: #1d439b;
      }

      .cls-6 {
        fill: #010101;
      }
    </style>
  </defs>
  <g id="Layer_1-2" data-name="Layer 1">
    <g>
      <path class="cls-5" d="M0,0h30.92v17.01H0V0Z"/>
      <path class="cls-2" d="M0,0h30.92v11.34H0V0Z"/>
      <path class="cls-4" d="M0,0h30.92v5.67H0V0Z"/>
      <g>
        <path class="cls-2" d="M17.62,8.5c0,1.19-.96,2.16-2.16,2.16s-2.16-.97-2.16-2.16.97-2.16,2.16-2.16,2.16.96,2.16,2.16Z"/>
        <path class="cls-6" d="M15.46,10.71c-1.21,0-2.2-.99-2.2-2.2s.99-2.2,2.2-2.2,2.2.99,2.2,2.2-.99,2.2-2.2,2.2ZM15.46,6.4c-1.16,0-2.11.95-2.11,2.11s.95,2.11,2.11,2.11,2.11-.95,2.11-2.11-.95-2.11-2.11-2.11Z"/>
      </g>
      <g>
        <path class="cls-1" d="M16.5,8.17c-.05,0-.05.06-.05.06,0,0,0-.02,0,0,0,.02,0,.07.05.07.04,0,.05-.04.05-.07,0,0,0-.06-.05-.06"/>
        <path class="cls-6" d="M16.5,8.31h0s-.06-.06-.06-.08h0s0-.04.02-.05c.01-.01.02-.02.04-.02h0s.06.05.06.07c0,.02,0,.05-.03.07,0,0-.02.01-.04.01ZM16.46,8.22h0s0,.06.04.06h0s.01,0,.02,0c.01-.01.02-.04.02-.05,0,0,0-.05-.04-.05h0s-.02,0-.02,0c0,0-.01.02-.01.03h0Z"/>
      </g>
      <path class="cls-6" d="M14.11,9.37l-.02-.03s0,0-.01-.02c0,0,0,0-.01,0,0,0-.01,0-.02,0,0,0-.01.01-.01.02,0,0,0,.02.01.03l.02.03.05-.03ZM14.29,9.36l-.23.14-.07-.12s-.02-.04-.02-.05c0-.01,0-.03,0-.04,0-.01.02-.02.03-.03.01,0,.02-.01.04-.01.01,0,.03,0,.04,0,0,0,.02.01.02.02,0-.01,0-.02,0-.02,0,0,0,0,0-.02,0,0,0-.01,0-.02l.05-.08.05.08-.05.08s0,.02-.01.02c0,0,0,.01,0,.02h0s.1-.05.1-.05l.04.07ZM13.88,9.16l-.07-.21.06-.02.04.13h.04s-.04-.14-.04-.14l.05-.02.04.12.05-.02-.05-.14.06-.02.07.22-.26.09ZM13.89,8.73v-.02s0-.03-.01-.03c0,0-.01,0-.02,0,0,0-.02,0-.02.01,0,0,0,.02,0,.03v.02s.06,0,.06,0ZM13.78,8.83l-.02-.14s0-.05.01-.07c.01-.02.03-.03.06-.03.03,0,.05,0,.07.02.02.01.03.04.03.07v.05s.11-.01.11-.01v.08s-.26.03-.26.03ZM13.77,8.3v-.08s.17.02.17.02c.02,0,.03,0,.04.01.01,0,.03.02.04.03,0,.01.02.02.02.04,0,.02,0,.04,0,.06,0,.01,0,.03,0,.04,0,.02,0,.03-.02.04,0,.01-.02.02-.03.03,0,0-.02.01-.03.01-.02,0-.03,0-.05,0l-.16-.02v-.08s.17.02.17.02c.01,0,.03,0,.04,0,0,0,.01-.02.02-.03,0-.01,0-.03,0-.04,0,0-.02-.01-.03-.02l-.17-.02ZM14.04,8.07v-.04s.02-.02.02-.03c0,0,0-.01-.02-.01,0,0-.01,0-.02,0,0,0-.01.01-.02.03v.04s.04.02.04.02ZM13.94,8.03v-.03s.02-.02.01-.03c0,0,0-.01-.02-.01,0,0-.01,0-.02,0,0,0-.01.01-.01.02v.04s.04.02.04.02ZM13.81,8.08l.05-.15s.02-.04.04-.05c.02,0,.04-.01.05,0,.01,0,.03.01.03.03,0,0,0,.02,0,.03.01-.02.02-.03.04-.03.01,0,.03,0,.05,0,.01,0,.02.01.03.02,0,.01.01.02.02.03,0,0,0,.02,0,.03,0,.02,0,.03,0,.04l-.05.14-.26-.09ZM13.95,7.73l.04-.07.18.11.07-.11.06.03-.11.18-.23-.14ZM14.13,7.46l.05-.06.21.18-.05.06-.21-.18ZM14.51,7.31l.07-.03s.01.04.01.06c0,.02,0,.03-.01.05,0,.02-.02.03-.04.05-.02.02-.04.03-.06.04-.02,0-.04,0-.07,0-.02,0-.05-.03-.07-.05-.03-.03-.04-.07-.04-.1,0-.03.02-.06.05-.09.03-.02.05-.03.08-.04.02,0,.05,0,.07.02l-.05.06s-.01,0-.02,0c0,0-.02,0-.02,0,0,0-.01,0-.02.01-.01.01-.02.03-.02.05,0,.01,0,.03.03.05.02.02.04.04.05.04.01,0,.03,0,.04-.01.01-.01.02-.02.02-.03,0-.01,0-.03-.01-.04M14.78,7.15l-.07-.07.02.1.05-.03ZM14.83,7.19l-.09.04v.05s-.07.04-.07.04l-.03-.29.08-.04.22.2-.08.04-.03-.03ZM15.16,6.91l.02.15h.02s.03,0,.04-.01c0,0,.01-.01.01-.02,0-.01,0-.03,0-.05,0-.03-.01-.05-.02-.06-.01,0-.03-.01-.05,0h-.02ZM15.07,6.86l.12-.02s.04,0,.06,0c.02,0,.03.01.04.02.01.01.02.02.03.04,0,.02.01.03.01.05,0,.03,0,.05,0,.07,0,.02-.01.03-.02.04-.01.01-.02.02-.03.03-.02,0-.03.01-.05.01l-.12.02-.04-.27ZM15.44,6.81l.22.02v.06s-.14-.01-.14-.01v.04s.13,0,.13,0v.06s-.13,0-.13,0v.05s.14.01.14.01v.06s-.23-.02-.23-.02l.02-.27ZM15.78,6.84l.08.02-.06.2.13.04-.02.06-.21-.06.07-.26ZM16.24,7.14h.02s.02.02.03.02c0,0,.02,0,.02-.01,0,0,0-.01,0-.02,0,0,0-.02-.02-.02h-.02s-.03.04-.03.04ZM16.24,7l.12.08s.04.04.04.06c0,.02,0,.04-.02.06-.01.02-.03.04-.06.04-.02,0-.05,0-.08-.02l-.04-.03-.06.08-.07-.05.15-.23ZM16.53,7.41l.05-.09-.09.05.04.04ZM16.5,7.47l-.07-.07-.04.02-.06-.06.13-.06.14-.06.07.06-.12.27-.06-.06.02-.04ZM16.76,7.59l.02.03s0,0,.02.02c0,0,0,0,.01,0,0,0,.01,0,.02,0,0,0,.01-.01.01-.02,0,0,0-.02-.01-.03l-.02-.03-.05.03ZM16.58,7.6l.23-.15.08.12s.02.04.03.05c0,.01,0,.03,0,.04,0,.01-.02.03-.03.03-.01,0-.03.01-.04.01-.01,0-.02,0-.04,0,0,0-.02-.01-.02-.02,0,.01,0,.02,0,.02,0,0,0,.01,0,.02,0,0,0,.01,0,.02l-.04.08-.05-.08.05-.08s0-.02,0-.02c0,0,0-.01,0-.02h0s-.09.05-.09.05l-.05-.07ZM16.9,7.97l.08-.06h-.1s.02.06.02.06ZM16.85,8l-.03-.09h-.05s-.03-.08-.03-.08h.29s.03.09.03.09l-.22.19-.03-.08.04-.03ZM16.98,8.29h.06s.02.12.02.12h-.12s-.03-.03-.04-.05c0-.02-.01-.04-.02-.07,0-.03,0-.06,0-.08,0-.02.02-.04.04-.05.02-.01.04-.02.07-.03.03,0,.06,0,.08,0,.02,0,.04.02.06.05.01.02.02.04.02.07,0,.03,0,.05,0,.07,0,.02-.01.03-.02.04-.01.01-.02.02-.04.03l-.02-.08s.02-.01.02-.02c0,0,0-.02,0-.03,0-.02-.01-.03-.02-.04-.01,0-.04-.01-.06,0-.03,0-.05.01-.06.02-.01.01-.01.03-.01.05,0,0,0,.02,0,.03,0,0,0,.02.02.03h.03s0-.06,0-.06ZM17.15,8.7v.08s-.17-.02-.17-.02c-.02,0-.03,0-.04-.01-.01,0-.03-.02-.03-.03,0-.01-.02-.02-.02-.04,0-.02,0-.04,0-.06,0-.01,0-.03,0-.04,0-.02,0-.03.02-.04,0-.01.02-.02.03-.03.01,0,.02-.01.03-.01.02,0,.03,0,.05,0l.16.02v.08s-.17-.02-.17-.02c-.02,0-.03,0-.04,0,0,0-.01.02-.02.03,0,.01,0,.03,0,.04,0,0,.02.01.03.02l.17.02ZM16.9,9.01h.1s-.08-.06-.08-.06l-.02.06ZM16.84,9.01l.03-.09-.04-.03.03-.08.22.19-.03.09h-.29s.03-.08.03-.08h.05ZM16.99,9.26l-.05.08h-.11s.05.09.05.09l-.05.08-.08-.17-.1-.06.04-.07.1.06h.19Z"/>
      <path class="cls-6" d="M15.46,10.33c-1.01,0-1.82-.82-1.82-1.82s.82-1.82,1.82-1.82,1.81.81,1.82,1.8v.02c0,1.01-.82,1.82-1.82,1.82ZM15.46,6.72c-.98,0-1.79.8-1.79,1.79s.8,1.79,1.79,1.79,1.78-.79,1.79-1.77v-.02c0-.98-.8-1.79-1.79-1.79Z"/>
      <path class="cls-6" d="M15.46,9.86c-.75,0-1.36-.61-1.36-1.36s.61-1.36,1.36-1.36,1.36.61,1.36,1.36-.61,1.36-1.36,1.36ZM15.46,7.17c-.73,0-1.33.59-1.33,1.32s.59,1.33,1.33,1.33,1.32-.59,1.32-1.33-.59-1.32-1.32-1.32Z"/>
      <g>
        <path class="cls-3" d="M15.46,8.01l.11.32h.34s-.27.21-.27.21l.1.33-.28-.19-.28.19.1-.33-.27-.21h.34s.11-.33.11-.33Z"/>
        <path class="cls-6" d="M15.76,8.9h-.02s-.28-.2-.28-.2l-.29.2v-.02s.1-.32.1-.32l-.29-.22h.02s.34,0,.34,0l.12-.34v.02s.12.32.12.32h.36s-.02.02-.02.02l-.27.2.1.34ZM15.03,8.35l.26.2h0s-.09.31-.09.31l.27-.19h0s.26.19.26.19l-.09-.31h0s.25-.2.25-.2h-.33s0-.01,0-.01l-.11-.3-.11.31h-.33Z"/>
      </g>
      <g>
        <path class="cls-1" d="M16.08,9.42s-.06.01-.07.02c-.01,0-.06,0-.08,0-.01,0-.03,0-.04,0-.1-.01.16,0,.19-.02M15.82,9.35s.04-.08.05-.1c.01-.02.04-.07.05-.1,0-.01.04-.05.05-.03-.06.05-.1.13-.12.19,0,0-.02.04-.03.05,0,0,0,.02-.01.02-.01,0,0,0,0,0,0,0,0-.02.02-.03h0ZM16.19,9.4s-.04,0-.07-.02c-.03,0-.07-.02-.11-.02-.04,0-.07.01-.11.02-.03.01-.07.01-.07.01,0,0-.02,0-.01,0,.01,0,.05-.03.05-.03l.02-.03s.12-.16.11-.2c.02-.03.04-.09.03-.09,0,0-.09.03-.11.05-.02.02-.04.06-.04.08,0,.02-.04.04-.04.04-.03.02-.05.08-.06.13,0,.05-.13.08-.13.08,0,0-.03.01,0,.02,0,0,.02.02.03.03.02,0,.09-.03.1-.03.03,0,.05.01.08.02.03.01.05.02.07,0,.02,0,.05,0,.07,0,.02,0,.05,0,.06,0,.02,0,.06-.03.06-.03,0,0,.04-.02.07-.03.03-.01,0-.02,0-.02"/>
        <path class="cls-6" d="M15.9,9.49s-.04,0-.05-.01c-.03,0-.05-.01-.08-.02h0s-.03,0-.05.01c-.03.01-.05.01-.06.01h0s-.02-.01-.03-.02h0s-.02-.01-.02-.02c0-.01.01-.02.02-.02.05-.01.12-.04.13-.07,0-.03.03-.11.06-.14,0,0,.03-.02.04-.04,0-.01.02-.06.05-.09,0,0,.09-.05.12-.05,0,0,0,0,0,0,.01.02-.02.08-.03.1,0,.01,0,.04-.02.07-.02.04-.07.11-.09.13l-.02.03s-.01,0-.02.02c.01,0,.03,0,.05-.01.03-.01.07-.02.11-.03h0s.08,0,.11.02c.03,0,.07.02.07.02h0s.01,0,.01.01c0,.01-.01.02-.02.02l-.07.03s-.04.02-.06.03c-.02,0-.04,0-.07,0-.02,0-.05,0-.07,0,0,0-.02,0-.03,0ZM15.77,9.44h0s.05.01.08.02c.03.01.05.01.07,0,.03,0,.06,0,.08,0,.02,0,.04,0,.06,0,.01,0,.04-.02.05-.03l.07-.03h0s-.04,0-.06-.02c-.02,0-.07-.01-.1-.01h0s-.07.01-.1.02c-.03.01-.07.01-.08.01,0,0-.02,0-.02,0h0s.01-.01.01-.01c0,0,.04-.03.04-.03l.03-.03s.12-.15.11-.19h0s0,0,0,0c.02-.03.03-.06.03-.08-.02,0-.08.03-.1.04-.02.02-.03.05-.04.08,0,.03-.04.04-.05.05-.02.02-.04.08-.05.13,0,.05-.13.08-.14.09,0,0,0,0,0,0,0,0,0,0,.02.01,0,0,.01.01.01.01h0s.03,0,.05-.01c.03,0,.04-.01.05-.01ZM15.89,9.46s-.03,0-.03-.01c0-.01,0-.01.09-.02.05,0,.12,0,.13-.01v.02s-.02.01-.06.02h0s-.06,0-.08,0h-.01s-.02,0-.03,0ZM15.81,9.39h-.02s0-.01,0-.01h0s0,0,0,0c0,0,0-.02.01-.03,0,0,.01-.02.02-.04.01-.02.02-.05.03-.06,0,0,0-.02.02-.03.01-.02.03-.05.04-.07,0,0,.03-.04.05-.04h0s.01,0,.01,0h0s0,.01,0,.01c-.06.05-.11.16-.12.19,0,0-.02.04-.03.05,0,0,0,0,0,0,0,0,0,.02-.01.02h0Z"/>
      </g>
      <g>
        <path class="cls-1" d="M15.86,9.55s-.17-.09-.18-.09c0,0-.08-.04-.11-.05-.02,0-.06,0-.07,0-.03,0-.07.01-.07.01l.04.02s.04.02.06.03c.03.01.03.03.03.03l.16.07.03.02s.03-.04.12-.03"/>
        <path class="cls-6" d="M15.74,9.6l-.04-.03-.16-.07h0s0-.02-.03-.03c-.02-.01-.06-.03-.06-.03l-.06-.03h.02s.05-.02.08-.02h0s.05,0,.07,0c.02,0,.07.03.09.04,0,0,.02,0,.02,0,0,0,.14.07.18.09h0c-.08.01-.11.04-.11.05h0ZM15.56,9.49l.15.07.03.02s.04-.03.09-.03c-.06-.03-.14-.07-.15-.08,0,0,0,0-.02-.01-.03-.01-.07-.03-.09-.04-.02,0-.06,0-.07,0-.01,0-.03,0-.05,0h.02s.04.03.06.04c.02.01.03.03.03.03Z"/>
      </g>
      <g>
        <path class="cls-1" d="M16.03,9.2c.05-.05.08-.12.12-.15,0,0,0,.01,0,.03,0,.01-.02.02-.02.03,0,.01-.04.03-.04.05,0,.01-.01.03-.04.04-.02.01-.02.04-.02.05,0,.01-.04.04-.06.07,0,.03,0,.02-.03.03.04-.06.06-.09.08-.14M15.91,9.35s-.11.07-.08.06c.03,0,.13-.04.16-.06.03-.01.05-.05.08-.07.03-.03.11-.1.12-.13.01-.03.03-.07-.03-.17,0,0,0,.02-.03.04-.02.02-.05.04-.05.04l-.04.03s-.12.23-.14.26"/>
        <path class="cls-6" d="M15.83,9.42s0,0-.01,0c0-.01,0-.02.05-.05.01,0,.03-.02.03-.02.02-.04.14-.25.14-.26l.04-.04s.03-.02.05-.04c.02-.02.03-.03.03-.03v-.02s.02.02.02.02c.05.09.05.14.03.18-.01.03-.07.08-.1.12,0,0-.02.02-.02.02,0,0-.01.01-.02.02-.02.02-.04.04-.06.05-.03.01-.13.05-.16.06,0,0,0,0,0,0ZM15.92,9.35s0,0-.04.03c.04-.01.09-.03.11-.04.02-.01.04-.03.06-.05,0,0,.01-.02.02-.02l.02-.02s.09-.09.1-.11c.01-.03.02-.06-.02-.14,0,0-.01.02-.02.02-.02.02-.05.04-.05.04l-.03.03h0s-.12.23-.14.26ZM15.95,9.35h-.01c.04-.07.05-.1.08-.15h0s.05-.06.07-.08c.02-.03.04-.05.06-.07h0s0,0,0,0c.01,0,.01.02,0,.04,0,0-.01.02-.02.02,0,0,0,0,0,0,0,0-.01.01-.02.02,0,0-.02.02-.02.03,0,.01-.01.03-.04.05-.01,0-.01.02-.01.03,0,0,0,0,0,.01,0,0,0,.01-.02.03-.01.01-.03.03-.04.04,0,.02,0,.03-.02.03,0,0,0,0-.01,0ZM16.14,9.07s0,0,0,0c0,0,0,0,0,0Z"/>
      </g>
      <g>
        <path class="cls-1" d="M16.34,9.27s-.07,0-.07,0c0,0-.04,0-.1,0s-.07.02-.09.03c-.02.02-.06.06-.06.06h.02c.05-.04.1-.03.11-.03.02,0,.04,0,.09-.02.06-.02.05,0,.05,0-.03,0-.05.02-.08.02-.04,0-.08.01-.09.01s-.14.03-.14.03c0,0,.13,0,.14.01.01,0,.04,0,.05,0,.05-.02.07-.03.09-.03.02,0,.05-.02.05-.02,0,0,.01,0,.03-.03.01-.02,0-.02,0-.02M16.4,8.91s.03-.07.05-.09c.01-.01.04-.02.05-.02,0,0,.04,0,0,0-.02,0-.05.02-.06.04-.02.05-.03.08-.06.11-.02.02-.04.05-.04.05h-.02s.06-.07.08-.1h0ZM16.61,8.89s-.03.02-.03.02c-.06.02-.08.05-.1.08-.01.01-.03.03-.09.05-.05.02-.1.06-.1.06,0,0-.02,0-.01.01,0,0,.02,0,.02,0,0,0,.11-.02.16-.04.03-.02.05-.03.07-.07.01-.02.03-.05.03-.03,0,.06-.09.12-.13.14-.02,0-.05.01-.09.02-.04,0-.06,0-.06,0,0-.01,0-.01.02-.03.02-.02.06-.03.09-.04.04-.02.07-.04.09-.06.02-.02.02-.03.03-.05.01-.05.01-.07.03-.09.05-.06.05-.08.06-.1,0,0-.02.01-.04.02-.03.01-.03.01-.09.03-.05.01-.05.05-.06.06,0,0-.02.03-.03.04-.01,0-.03.04-.04.06,0,.02-.02.03-.03.03-.01,0,.02-.11.03-.13,0-.02,0-.05,0-.07s0-.04-.02-.05c-.02,0-.02-.03-.02-.03-.05.04-.02.12-.02.16,0,.04,0,.12,0,.12.05.02,0,.08,0,.1-.02.02-.04.02-.06.04-.01.02-.11.15-.11.15l.12-.03s.01,0,0-.01c-.02-.01,0-.06.02-.08.03-.02.07,0,.07,0,0,0,.06,0,.13-.02.06-.02.08-.06.11-.09.01-.02.04-.07.06-.1.01-.02.03-.05.02-.05"/>
        <path class="cls-6" d="M16.15,9.38s-.02,0-.02,0c0,0-.08,0-.14-.01v-.02s.01,0,.03,0h0s.04-.04.06-.06h0s0,0,0,0l.02-.02s.1-.14.11-.15c0,0,.02-.01.03-.02.01,0,.02,0,.03-.02.01-.01.03-.04.02-.06,0,0,0-.01-.02-.02h0s0-.01,0-.01c0,0,.01-.08,0-.12,0,0,0-.02,0-.03,0-.04-.02-.1.02-.14h.02s0,0,0,0c0,0,0,.02.01.02.03,0,.03.04.03.05,0,0,0,.05,0,.07,0,.02-.02.09-.03.12,0,0,0,0,.01-.02,0-.02.03-.06.05-.07,0,0,.03-.03.03-.03,0,0,0,0,0,0,0-.02.01-.05.06-.06h.03s.04-.01.06-.03c0,0,0,0,.02-.01.02-.01.03-.02.03-.01h0s0,0,0,0c0,.03-.01.05-.06.11,0,0,0,.02-.01.04,0,.01,0,.03-.01.04.02-.01.04-.03.06-.03h0s0,0,.03-.02h0s0,0,0,0c0,0,0,.01-.02.06v.02s-.05.06-.06.08c0,0-.01.01-.02.02-.02.02-.05.05-.1.07-.07.03-.13.02-.13.02,0,0-.04-.02-.06,0,0,0-.02.04-.02.05,0,0,0,0,0,0,0,0,.02.01.01.02h0s-.01,0-.01,0h-.03s.07.01.08.01c0,0,.06,0,.07,0,0,0,.01,0,.02,0,0,0,0,.02,0,.03-.01.02-.03.03-.03.03,0,0-.03.02-.05.02-.02,0-.04,0-.09.03-.01,0-.03,0-.04,0ZM16.05,9.35s.08,0,.08,0c.01,0,.03,0,.05,0,.05-.02.07-.03.09-.03.02,0,.04-.02.04-.02h0s.01,0,.02-.03c0,0,0,0,0,0-.03,0-.07,0-.07,0,0,0-.04,0-.1,0-.05,0-.07.02-.08.03,0,0-.01.01-.02.02.04-.02.07-.01.08-.01,0,0,.01,0,.01,0h0s.04,0,.08-.02c.04-.02.05-.01.06,0h0s0,.01,0,.01c0,0,0,0,0,.01-.03,0-.06.02-.08.02-.02,0-.04,0-.06,0-.01,0-.03,0-.03,0,0,0-.04,0-.07.02h0ZM16.28,8.97s.02.02.02.03c0,.03-.02.07-.03.08,0,.01-.02.02-.04.02,0,0-.02,0-.02.02,0,.01-.07.09-.09.13l.08-.02s0-.01,0-.02c0-.02.02-.06.03-.07.01,0,.03-.01.04-.01h0s0,0,0,0h0s0-.02.01-.03h0s.04-.03.06-.04c0,0,.01,0,.02,0,0,0,.01,0,.02-.01,0,0,0,0,.01,0,.03-.01.05-.03.07-.05.02-.02.02-.03.03-.04,0-.02,0-.03.01-.04,0-.02,0-.04.02-.05.03-.04.05-.06.05-.08,0,0,0,0,0,0,0,0-.01,0-.02.01-.02.01-.03.02-.06.02h-.03s-.04.04-.05.05c0,0,0,0,0,.01,0,0-.03.04-.04.04,0,0-.03.04-.04.06,0,.02-.02.03-.04.03h0s0,0,0,0c-.01-.02.03-.14.03-.14,0-.02,0-.05,0-.06s0-.03-.01-.04c-.01,0-.02-.01-.03-.02-.02.03-.01.07,0,.11,0,0,0,.02,0,.03,0,.04,0,.1,0,.12ZM16.31,9.13s.06,0,.12-.02c.04-.01.06-.03.08-.05-.03.02-.06.04-.08.05-.02,0-.04.01-.07.02h-.02s-.02,0-.03,0c0,0,0,0,0,0h0ZM16.37,9.05s-.05.03-.06.04c.03,0,.1-.02.14-.04.03-.02.04-.03.07-.07,0,0,0-.01.01-.02,0-.02.01-.03.02-.03,0,0,0,0,0,0,0,0,0,.01,0,.02,0,0,0,.02,0,.03,0,0,.01-.02.02-.03v-.02s.02-.02.03-.03c-.01,0-.02,0-.02,0-.05.02-.07.04-.09.07h0s-.03.03-.08.06c0,0-.01,0-.02,0,0,0,0,0-.01,0ZM16.32,9.03v-.02s.04-.06.06-.09c0,0,0-.01.01-.02,0-.02.03-.07.05-.09.01,0,.03-.01.04-.02,0,0,0,0,0,0,0,0,0,0,.02,0,0,0,0,0,.01,0h0s0,0,0,0c0,0,0,0-.03.02-.02,0-.04.01-.05.03h0s-.03.09-.06.12c-.02.02-.03.05-.03.05h0s0,0,0,0h-.02Z"/>
      </g>
      <g>
        <path class="cls-1" d="M16.27,9.22s.01,0,.03-.02c.02-.02,0-.05-.02-.05-.01,0-.03,0-.05.03-.02.03.01.05.03.05,0,0,.01,0,.02,0"/>
        <path class="cls-6" d="M16.25,9.23h0s-.03,0-.04-.02c0,0,0-.02,0-.04.02-.03.04-.04.06-.04h0s.03,0,.04.02c0,.01,0,.03,0,.04-.02.02-.02.02-.03.03,0,0-.02,0-.03,0ZM16.28,9.15h0s-.02,0-.04.03c0,0,0,.01,0,.02,0,0,.02.01.02.01h0s.01,0,.02,0c0,0,0,0,.02-.02,0,0,0-.01,0-.02,0,0,0-.01-.02-.01Z"/>
      </g>
      <g>
        <path class="cls-1" d="M16.21,9s-.02.06-.01.07c0,0,.01.01.02.01s.04-.01.05-.04c.02-.02.03-.05,0-.06-.03-.01-.05,0-.06.02"/>
        <path class="cls-6" d="M16.22,9.09s-.02,0-.03-.01c-.02-.02,0-.06,0-.08h0s.05-.04.07-.02c.01,0,.02.01.02.03,0,.02,0,.04-.02.05-.02.03-.05.04-.06.04ZM16.24,8.99s-.02,0-.03.02h0s-.02.05-.01.05c0,0,.01,0,.02,0,0,0,.03-.01.04-.03,0,0,.02-.02.01-.04,0,0,0,0-.01-.01,0,0,0,0-.02,0Z"/>
      </g>
      <g>
        <path class="cls-1" d="M16.3,8.67s0,0,0-.02c-.02-.02-.04-.05-.04-.05-.03.02-.04.06-.04.07s0,.05,0,.08c0,.01,0,.02-.02.07-.02.04,0,.08,0,.09,0,.01.02.05.02.05,0,0,.01,0,.02,0,0,0,.02,0,.02,0,0,0,.02-.04.02-.06,0-.01,0-.04,0-.08,0-.06,0-.07,0-.1,0-.03.04-.05.04-.05"/>
        <path class="cls-6" d="M16.21,8.99h0s-.01-.05-.02-.07c0,0,0,0,0,0,0-.02-.02-.05,0-.09.02-.04.02-.05.02-.06,0-.02,0-.05,0-.06,0,0,0-.01,0-.02,0-.02.01-.06.05-.08h0s0,0,0,0c0,0,.02.03.04.05.01.01.01.02,0,.03h0s0,0,0,0c0,0-.03.02-.03.05,0,.03,0,.04,0,.1,0,.04,0,.07,0,.08,0,.02-.02.06-.02.06h0s0,0,0,0c0,0-.02,0-.02,0,0,0,0,0-.01,0h0ZM16.25,8.62s-.03.05-.03.06c0,0,0,0,0,.01,0,.02,0,.04,0,.07,0,.01,0,.03-.02.07-.01.03,0,.06,0,.08,0,0,0,0,0,0,0,0,0,.03.01.04,0,0,.01,0,.02,0h0s.02-.04.02-.05c0-.01,0-.04,0-.08,0-.06,0-.08,0-.11,0-.03.03-.05.04-.06h0s-.03-.04-.03-.05Z"/>
      </g>
      <g>
        <path class="cls-1" d="M16.35,8.73s.02,0,.03-.02c.01-.02,0-.04,0-.04-.03-.06-.07-.01-.07-.01-.04.07.03.08.03.08"/>
        <path class="cls-6" d="M16.35,8.74h0s-.03,0-.05-.03c0-.02,0-.04,0-.07,0,0,.02-.02.04-.02h0s.03.01.04.03c0,0,0,.03,0,.05-.01.02-.03.03-.04.03h0ZM16.35,8.65s-.02,0-.03.01c0,.01-.01.03,0,.04,0,.01.02.01.03.01,0,0,.01,0,.02-.02,0-.02,0-.04,0-.04,0,0-.01-.02-.02-.02h0Z"/>
      </g>
      <g>
        <path class="cls-1" d="M16.45,8.63s-.07.08-.07.08c0,0,0,.02-.03.03-.02.02-.01.04-.01.08s-.03.11-.03.11v.02s0,.02,0-.01c.03-.05.06-.04.07-.1,0-.04.08-.06.08-.06h-.02c-.07-.04,0-.13.02-.14.01-.02.03-.02-.02-.01"/>
        <path class="cls-6" d="M16.31,8.97h0s-.01,0-.01-.02h0s0-.03,0-.03c0,0,.03-.07.03-.1,0-.01,0-.02,0-.03,0-.02,0-.04.02-.06.02-.01.03-.03.03-.03,0,0,.02-.09.08-.09v.03s-.05.05-.05.07c0,0,0,.03-.04.04,0,0-.01.01,0,.03,0,0,0,.02,0,.03,0,.02,0,.05-.01.07,0,0,0,0,0,0,.01-.01.02-.02.03-.05,0-.03.03-.05.05-.06-.01,0-.02-.02-.02-.03,0-.04.03-.09.05-.11h0s0-.02,0-.02c.03,0,.03,0,.04,0,0,0,0,.02,0,.02h0c-.04.05-.05.08-.04.1,0,0,0,.02.02.02h.02v.03s-.06.02-.07.05c0,.04-.02.05-.04.06-.01,0-.02.02-.03.04,0,.01-.01.03-.03.03Z"/>
      </g>
      <g>
        <path class="cls-1" d="M16.44,8.72s.04.05.05.04c0,0,.02-.02.02-.02.02-.03,0-.06-.01-.06-.01,0-.04,0-.06.04"/>
        <path class="cls-6" d="M16.47,8.77s-.03,0-.04-.01c0,0-.02-.02,0-.04h0c.02-.05.06-.05.07-.04,0,0,.02.01.03.03,0,.01,0,.03,0,.05,0,0-.01.02-.02.02s-.01,0-.02,0ZM16.45,8.72s0,.02,0,.02c0,0,.03,0,.04,0,0,0,0,0,.01-.01,0-.01,0-.02,0-.03,0-.02-.01-.01-.02-.01-.01,0-.03.01-.04.04Z"/>
      </g>
      <g>
        <path class="cls-1" d="M16.33,8.55s.06.11.07.1c0,0,0-.02,0-.02,0,0,0-.02,0-.05,0-.03,0-.06-.02-.08-.01-.02-.04-.05-.06-.08-.01-.03,0-.1,0-.1,0,0,0,0,0-.01,0,0-.06-.04-.06-.04,0,0,0,.02,0,.06,0,0,0,.02,0,.04,0,.01,0,.03.03.08.03.05.04.08.05.1M16.65,8.18s-.02.03-.02.03c0,0-.09.08-.1.08,0,0-.05.02-.09.13-.04.11-.02.21-.02.21h.02s0-.01,0-.01c0,0,0-.04.01-.06,0-.03.04-.07.06-.09.02-.03.04-.07.04-.07.02-.05.03-.09.06-.12,0,.04-.15.28-.16.36h.04s.08-.11.11-.15c.03-.04.04-.11.05-.14,0-.03,0-.16,0-.16"/>
        <path class="cls-6" d="M16.39,8.66s-.02-.02-.07-.11h0s-.01-.03-.02-.04c0-.02-.02-.04-.03-.06-.02-.04-.03-.06-.03-.08,0,0,0-.01,0-.02,0,0,0,0,0-.01,0-.04,0-.06,0-.06v-.02s.01,0,.01,0c.02,0,.05.03.06.04,0,0,0,0,0,.02,0,.06,0,.09,0,.1,0,.02.02.04.04.05,0,0,.02.02.02.03,0,.01.01.04.01.05,0,0,0,.02,0,.03,0,0,0,.01,0,.02,0-.04,0-.11.03-.18.02-.05.05-.11.09-.13,0,0,.09-.08.1-.08,0,0,.01-.02.02-.03l.02-.03v.03s0,.14,0,.17c0,.04-.02.1-.05.14h0c-.03.05-.07.11-.11.14h0s-.06.01-.06.01h0s-.02,0-.02,0c0,0,0,.01,0,.01,0,0,0,0,0,0ZM16.26,8.3s0,.02,0,.04c0,0,0,0,0,.02,0,0,0,.01,0,.02,0,.01,0,.03.03.07.01.02.02.04.03.06,0,.02.01.03.02.04h0s.04.07.05.09c0,0,0-.02,0-.04,0,0,0-.02,0-.03,0-.02,0-.04-.01-.05,0,0-.01-.01-.02-.02-.01-.02-.03-.04-.04-.06,0-.02,0-.06,0-.11,0,0,0,0,0,0,0,0-.02-.02-.04-.03ZM16.64,8.21s0,0,0,0c0,0-.09.08-.1.08-.04.02-.07.08-.09.12-.03.09-.03.17-.02.2h0s0-.04.01-.07.03-.06.05-.09h0s.03-.07.03-.08c0-.02.02-.04.02-.05,0-.03.02-.05.04-.07l.02-.02v.03s-.03.07-.07.16c-.04.07-.08.15-.09.19h.03s.07-.09.1-.13h0s.04-.11.05-.15c0-.02,0-.09,0-.13Z"/>
      </g>
      <g>
        <path class="cls-1" d="M16.35,8.21s-.04-.03-.04-.03c0,0,0,.04,0,.06s0,.07,0,.09c0,.02-.01.06,0,.09.02.04.03.05.05.08.01.02.03.13.03.13,0,0,0-.15,0-.2,0-.04,0-.11,0-.14,0-.03-.03-.07-.05-.09M16.45,8.06s.02-.04.03-.08c0-.02,0-.05,0-.07,0-.01,0-.04,0-.04,0,0,0,0,0,.03,0,0,0,.03,0,.05,0,.02,0,.04-.01.06,0,.02,0,.05,0,.06,0,0-.02.04-.02.04,0,0,0,.02,0,.04,0,.02,0,.04,0,.04,0,0,0-.02.03-.02,0,0,0-.04,0-.05s.01-.08.02-.11c0-.03.02-.09,0-.15,0-.02,0-.07,0-.07,0,0-.02.02-.03.08,0,.02,0,.07,0,.13,0,.03-.03.15-.03.16"/>
        <path class="cls-6" d="M16.39,8.64s-.02-.12-.03-.13c0,0,0-.02-.02-.02,0-.01-.02-.03-.03-.05-.01-.03,0-.06,0-.08,0,0,0-.01,0-.02,0-.01,0-.03,0-.05,0-.01,0-.02,0-.03,0-.02,0-.06,0-.06v-.02s.01,0,.01,0c0,0,.02,0,.04.03h0s.04.08.05.1c0,.03,0,.1,0,.15,0,.04,0,.19,0,.19h-.02ZM16.32,8.2s0,.03,0,.05c0,0,0,.02,0,.03,0,.02,0,.04,0,.05,0,0,0,.01,0,.02,0,.02,0,.05,0,.07,0,.02.02.04.03.05,0,0,.01.02.02.03,0,0,0,.02,0,.03,0-.04,0-.07,0-.09,0-.04,0-.11,0-.14,0-.02-.02-.07-.04-.09,0,0-.01-.01-.02-.02ZM16.44,8.22v-.07s-.02,0-.02,0c0,0,.02-.06.02-.1h0s0,0,0,0c0,0,0,0,0,0,0-.02,0-.04,0-.05,0-.03,0-.06,0-.08s0-.04,0-.05c.01-.07.03-.08.04-.09h.01s0,0,0,0c0,.02,0,.06,0,.07.02.08,0,.14,0,.16,0,.02-.02.09-.02.1,0,.01,0,.05,0,.05h0s0,0,0,0c-.02,0-.02.01-.02.02l-.02.03ZM16.46,8.11s0,.02,0,.04v.02s0,0,.02,0c0-.01,0-.03,0-.04,0-.01.01-.08.02-.11,0-.01.02-.07,0-.14h0s0,.01,0,.02c0,0,0,.01,0,.02,0,0,0,.02,0,.03h0s0,.04-.01.07c0,.01,0,.02,0,.04,0,0,0,.02,0,.02,0,0-.01.02-.02.03h0ZM16.49,7.82s-.01.03-.02.05c0,0,0,.02,0,.04,0,0,0,.02,0,.03,0-.01,0-.03,0-.04,0,0,0,0,0-.01,0-.01,0-.03,0-.03h0s0,0,0,0c0,0,0,0,0,0,0,0,0-.03,0-.05Z"/>
      </g>
      <g>
        <path class="cls-1" d="M16.45,8.06s0,0,0,0c0,0,0,0,0,0"/>
        <path class="cls-6" d="M16.44,8.08v-.03s.02,0,.02,0h0s0,0,0,0l-.02.02ZM16.45,8.06h0s0,0,0,0Z"/>
      </g>
      <g>
        <path class="cls-1" d="M16.37,7.74s.01.01,0,.02c0,0,0,.03,0,.03,0,0,0,.03,0,.04,0,.01.01.02,0,.05,0,.02-.02.04-.01.07,0,.02.01.03.02.05,0,0,0,.03,0,.05,0,.02.01.03.01.03,0,0-.01.02-.02,0,0-.03,0-.05-.01-.06-.01-.02-.02-.07,0-.1,0,0,0-.02,0-.03s0-.04-.01-.06c0-.01,0-.04,0-.05M16.32,7.91s0,.03.03.07c0,.01.02.05.02.06,0,.01,0,.02,0,.03,0,0,0,.03,0,.03h0s-.06-.02-.08-.04c-.03-.02-.06-.04-.07-.06-.02-.02-.07-.08-.07-.13l-.02-.02s-.02.11.07.18c.02.02.05.04.11.07.06.03.05.05.07.1.02.05.04.08.04.09,0,.02,0,.23,0,.23v.02s.05-.2.08-.22c0,0-.05,0-.05-.08v-.05s-.02-.06,0-.1c0,0,.02-.07.01-.13,0-.04,0-.05-.01-.08,0-.05-.03-.13-.03-.14,0-.03,0-.03-.02-.05,0,0,0-.03-.02-.03,0,0-.01.03-.01.03,0,0-.01.04-.01.04,0,.03-.02.05-.03.12,0,.01,0,.04,0,.05,0,0,0,.02,0,.03"/>
        <path class="cls-6" d="M16.42,8.53h-.02s0-.02,0-.02c0-.08,0-.22,0-.23s-.01-.03-.03-.07v-.02s-.02-.02-.02-.03c0-.03-.02-.04-.05-.06-.06-.03-.08-.05-.11-.07-.09-.07-.07-.18-.07-.19v-.02s.04.04.04.04h0s.05.11.07.12h0s.04.04.07.06c.02.01.05.03.07.04,0,0,0-.02,0-.02,0,0,0-.01,0-.03,0,0-.01-.03-.02-.05h0c-.02-.05-.03-.06-.03-.08,0,0,0-.03,0-.03h0s0-.04,0-.05c0-.04.01-.07.02-.09,0,0,0-.02,0-.03,0,0,.01-.04.01-.04,0-.04.01-.04.02-.04.01,0,.02.02.02.04h0s0,.04.01.06c0,.02.02.09.03.14v.02s0,.03.01.06c0,.06-.01.13-.01.13-.02.04,0,.09,0,.09v.05c0,.07.04.08.04.08h.02s-.01.02-.01.02c-.02.02-.05.14-.07.22ZM16.13,7.87s0,.1.06.15c.02.02.05.04.1.07.05.02.05.04.06.07,0,0,0,.02.01.03v.02s.04.06.04.08c0,.01,0,.11,0,.18.01-.05.04-.12.05-.14-.02,0-.04-.03-.04-.09v-.05s-.02-.05,0-.09c0,0,0,.01-.02.01h0s-.01-.02-.01-.02v-.02s0-.03-.01-.04c0-.02-.02-.07,0-.11,0,0,0-.01,0-.03,0,0,0-.02,0-.03,0,0,0-.02,0-.03,0,0,0-.03,0-.04h0s0-.01,0-.01c0,0,0,0,0,0,0,0,0,0,0-.01v-.02s.01,0,.01,0c0,0,0,.01,0,.03,0,0,0,.02,0,.03,0,0,0,.03,0,.04,0,0,0,0,0,0,0,0,0,.02,0,.04,0,0,0,.01,0,.02,0,.01-.01.03,0,.04,0,0,0,.02.01.03,0,0,0,.01,0,.02,0,0,0,.02,0,.04v.02s0,.02,0,.02h0s0,0,0,0h0s.02-.07.01-.12c0-.03,0-.04,0-.06v-.02c0-.06-.03-.14-.03-.14,0-.02,0-.03-.01-.04v-.02s0,0,0-.01h0s-.01.05-.01.06c0,0,0,.02,0,.03,0,.02-.02.04-.02.09,0,0,0,.02,0,.03,0,0,0,.02,0,.02,0,0,0,.02,0,.02h0s0,.03.03.07h0s.02.06.02.06c0,.01,0,.02,0,.03,0,0,0,.03,0,.03v.03h-.01s-.06-.04-.09-.06c-.02-.02-.05-.04-.07-.05h0s-.07-.08-.08-.13h0Z"/>
      </g>
      <g>
        <path class="cls-1" d="M16.36,8.18s0-.02-.02-.03c-.02-.02-.04-.04-.11-.07-.07-.03-.08-.09-.12-.11-.02-.01-.05-.02-.05-.02,0,0,.03.04.04.06,0,.02.01.03.05.06.04.03.08.05.11.06.04.01.1.05.1.05M16.15,7.86s.02.06.06.11c.06.07.16.12.16.12,0-.04-.03-.09-.04-.12-.05-.08-.18-.12-.18-.12,0,0,0,0,0,0M16.3,7.89c.03-.06-.06-.12-.08-.17,0,0,.02.01.03.02.01.02.05.07.05.07v-.06s-.09-.09-.09-.09c0,.01-.03.02-.03.02-.02.09.12.2.12.2"/>
        <path class="cls-6" d="M16.39,8.21l-.03-.02s-.05-.04-.09-.05h0s-.07-.02-.11-.06c-.03-.03-.04-.04-.05-.06h0s-.03-.05-.04-.06v-.02s0,0,0,0c0,0,.03,0,.05.02.01,0,.03.02.04.04.02.02.04.05.08.07.07.03.09.05.11.07,0,0,.02.03.02.03l.02.03ZM16.09,7.96s.02.03.02.04h0s.01.03.04.06c.03.03.07.04.1.05h0s.04.02.06.03c-.02-.02-.04-.03-.09-.06-.04-.02-.07-.05-.09-.08-.01-.01-.02-.03-.03-.04,0,0-.01,0-.02,0ZM16.38,8.11h-.02s-.11-.06-.17-.13c-.02-.03-.04-.06-.06-.11h0s0,0,0,0h0s0-.02,0-.02h0s0,0,0,0h0s.13.04.18.12c.02.02.03.08.04.12v.02ZM16.17,7.87s.03.07.05.09c.04.05.11.09.14.11,0-.03-.02-.07-.04-.09-.04-.06-.12-.09-.15-.11ZM16.31,7.91h0s-.14-.12-.12-.21h0s0,0,0,0c.01,0,.03-.01.03-.02v-.02s.02.01.02.01l.11.1h0s-.01.07-.01.07c0,.02,0,.04,0,.06h0ZM16.19,7.7c0,.06.08.15.11.17,0-.04-.02-.07-.05-.1-.01-.01-.03-.03-.03-.04h0s0-.01,0-.01c.02-.01.03,0,.04.02,0,0,0,0,0,0,0,.01.03.04.04.06v-.03s-.08-.08-.08-.08c0,0-.02.01-.03.02Z"/>
      </g>
      <g>
        <path class="cls-1" d="M16.13,7.75s-.03.01-.03.01v.04s.02,0,.02,0c0,0,.03.05.05.05,0,0,.04,0,.07.02.04.02.1.07.1.07,0,0-.1-.11-.14-.2v-.05s-.05,0-.05,0c0,0,0,.03-.01.05"/>
        <path class="cls-6" d="M16.32,7.95s-.06-.05-.09-.07c-.02-.01-.05-.02-.06-.02h0s-.05-.05-.06-.06h0s-.02-.06-.02-.06h.01s0,0,.03-.01h0s0-.03,0-.03h0s.06-.02.06-.02v.06c.05.08.15.19.15.19h-.01ZM16.11,7.76v.03s.02,0,.02,0c.01.02.04.05.05.05.01,0,.04,0,.07.02,0,0,.02.01.03.02-.03-.04-.07-.09-.09-.13v-.04s-.03,0-.03,0c0,.02,0,.04-.02.04h0s-.02,0-.03,0Z"/>
      </g>
      <g>
        <path class="cls-1" d="M15.75,7.67s.04.03.05.04c.02.01.09.05.13.06.01,0,.07,0,.07,0,0-.03.03-.03.03-.03h-.08c-.07-.01-.12-.04-.16-.09.05.03.13.08.2.08.26-.03-.08-.03-.11-.05-.03-.02-.06-.05-.06-.05h-.08s-.04,0,0,.03"/>
        <path class="cls-6" d="M16.02,7.79h0s-.06,0-.07,0c-.05,0-.11-.05-.14-.06-.02-.01-.04-.03-.06-.04-.01,0-.02-.02-.02-.04,0-.01.02,0,.03-.01h.08s0,0,0,0c0,0,.03.03.05.05,0,0,.06.01.1.01.09,0,.11.01.11.03,0,0,0,.01-.06.02h0s-.02.01-.02.03h0ZM15.74,7.65s0,0,.01.01h0s.03.03.05.04c.02.01.08.05.13.06,0,0,.04,0,.06,0,0,0,0,0,0-.01h-.02s-.01,0-.02,0h0c-.07,0-.12-.03-.17-.08v-.02s.03.01.03.01c.01,0,.03.02.04.02-.02-.01-.03-.03-.04-.04h-.07s0,0,0,0h0ZM15.99,7.74h0s.05,0,.06,0c-.02,0-.04,0-.07,0-.04,0-.08,0-.09-.01.02.01.05.02.07.03h.02Z"/>
      </g>
      <g>
        <path class="cls-1" d="M16.06,7.82s.03,0,.03-.02c0-.02,0-.04-.03-.04-.01,0-.04,0-.05.02-.01.03.03.04.03.04,0,0,0,0,.02,0M16.09,7.67s-.03.02-.02.05c0,.04.06.02.06.02h0s0-.01,0-.04c0-.03-.03-.03-.05-.03M16.17,7.7h0s0,0,0,0"/>
        <path class="cls-6" d="M16.05,7.83s-.02,0-.02,0c-.02,0-.05-.03-.03-.05.01-.03.04-.03.06-.03h0s0-.01-.01-.02c0-.03,0-.04,0-.05,0,0,.01-.01.03-.01.04,0,.05.02.06.04,0,.03,0,.04,0,.04h-.01s-.02,0-.04,0c.01,0,.02.02.01.04,0,.03-.03.03-.05.03ZM16.04,7.81s0,0,.01,0h0s.02,0,.02-.01c0-.02,0-.03-.02-.03,0,0-.03,0-.04.01,0,.02.02.03.02.03h0ZM16.09,7.68s0,0-.01,0c0,0,0,.01,0,.04,0,0,0,0,0,0,.01,0,.03,0,.04,0h0s0-.01,0-.03c0-.02-.01-.03-.04-.03ZM16.17,7.71h0v-.02.02Z"/>
      </g>
      <g>
        <path class="cls-1" d="M16.17,7.7s0,0,0,0c.01,0,.02-.03.02-.03,0-.04-.02-.05-.02-.05-.04,0-.05.03-.05.03-.01.05.03.05.04.05M15.98,7.53s.03.04.03.05c0,0,.03.04.04.05.01.01.04.08.04.08,0,0,0,0,0,0,0,0-.02-.09-.03-.09-.01-.02-.03-.04-.04-.06,0,0-.02-.02-.03-.04.03.04.11.15.13.2,0,0,0-.05,0-.08,0-.08-.03-.11-.04-.12-.01-.02-.04-.04-.07-.05-.02,0-.05-.02-.08-.03-.03,0,0,.02,0,.04.01.03.02.05.03.07"/>
        <path class="cls-6" d="M16.18,7.71h0s0,0,0,0h0s-.02,0-.03,0h-.02s0,0,0-.01c0,0,0,0,0,.01,0,0,0,0-.01.01h0s0,0,0,0c0-.02-.04-.07-.04-.08,0-.01-.04-.04-.04-.05h0s-.01,0-.01,0c-.01-.01-.03-.03-.03-.05,0-.01-.01-.04-.03-.06,0,0,0-.01,0-.02,0-.01-.02-.03,0-.04,0,0,.02,0,.02,0,.02,0,.03.01.05.02.01,0,.02,0,.03.01.02,0,.06.03.07.06.01.02.03.05.04.12h0s0,0,0,0c0,0,.03-.01.04,0,.01,0,.03.02.03.06,0,0-.01.03-.03.04,0,0,0,0,0,0h0ZM16.17,7.63s-.01,0-.02,0c0,0,0,.02,0,.02,0,.01,0,.02,0,.03,0,0,0,0,.02,0h0s.01-.02.02-.03c0-.02-.01-.03-.01-.03,0,0,0,0,0,0ZM15.95,7.43s0,0,0,0c0,0,0,.01,0,.02.01.03.02.05.03.07h0s.02.03.02.04h0s.04.04.04.05c0,0,.02.04.03.05,0-.01,0-.03-.01-.04-.03-.05-.07-.1-.09-.12h0s.02-.01.02-.01h0s.02.04.03.04c.02.02.04.04.05.06h0s0,0,0,.02c0,.01.02.03.02.04,0-.01,0-.03,0-.04,0-.07-.03-.1-.04-.11h0s0,0,0,0c0-.02-.04-.04-.06-.05,0,0-.02,0-.03-.01-.01,0-.03-.01-.04-.02Z"/>
      </g>
      <g>
        <path class="cls-1" d="M15.87,7.66s.04.04.1.05c.06,0,.07,0,.07,0,0,0,.03-.02.02-.03-.09-.04-.17-.08-.21-.14,0,0,0,0,.04.02.02.02.03.03.04.04.03.02.05.03.08.05.02,0,.06.02.06.02,0,0,0-.01.01-.01,0,0,0-.02-.04-.05-.02-.02-.04-.04-.05-.06,0,0-.04,0-.09-.02-.04,0-.1-.06-.1-.04,0,.01,0,.06.03.09.02.03.04.06.06.08"/>
        <path class="cls-6" d="M16.03,7.73s-.03,0-.06,0c-.06,0-.07-.02-.1-.04h0s-.05-.06-.06-.09c-.02-.03-.03-.08-.03-.1h0s0-.01,0-.01c0,0,0,0,0,0,0,0,.02,0,.04.02.02.01.05.03.06.03.05,0,.09.02.09.02h0s0,0,0,0c.01.02.03.04.05.06.02.02.05.04.04.06h0s0,0,0,0c0,0,0,0,0,0h0s0,.02,0,.02c0,.01-.02.02-.03.03,0,0,0,0-.01,0ZM15.88,7.65h0s.04.04.09.05c.05,0,.06,0,.06,0,0,0,.01,0,.01-.01-.11-.05-.18-.09-.22-.14h0s0-.02,0-.02h0s.02,0,.04.03c.01.01.02.02.03.03h0s.04.03.06.04h.02s.04.02.05.03c0,0,0,0,0,0,0,0-.01-.02-.04-.04-.02-.02-.04-.04-.05-.06-.01,0-.05,0-.09-.02-.02,0-.05-.02-.07-.03,0,0-.01,0-.02,0,0,.02.01.05.02.07.02.03.04.06.06.08h0Z"/>
      </g>
      <g>
        <path class="cls-1" d="M15.37,9.46s-.22.08-.22.08l-.05.02c.08-.02.13.02.13.02l.22-.1s0,0,0,0c0,0-.04-.02-.07-.02"/>
        <path class="cls-6" d="M15.23,9.59h0s-.06-.04-.13-.02h0s.05-.04.05-.04c0,0,.2-.07.22-.08.03,0,.07.01.07.02,0,0,0,.01,0,.01h0s0,0,0,0l-.22.1ZM15.15,9.55s.07.02.08.02l.2-.09s-.04-.02-.06-.01c-.03,0-.22.08-.22.08h0Z"/>
      </g>
      <g>
        <path class="cls-1" d="M15.09,9.56s0,0,0,0c.01,0,0,0,.06.01.05,0,.08,0,.09-.01,0-.01-.12-.03-.15,0"/>
        <path class="cls-6" d="M15.18,9.6s-.02,0-.03,0c-.04,0-.05,0-.06-.01h0s0-.01,0-.01c0,0,0,0,0-.01h0s.15,0,.16,0h0s0,.01,0,.01c0,.01-.04.02-.07.02ZM15.1,9.57s0,0,.05.01c.04,0,.06,0,.07,0-.03,0-.1-.02-.12,0Z"/>
      </g>
      <g>
        <path class="cls-1" d="M14.78,8.86v-.06s-.02-.16-.04-.2c0,0,0-.02-.01-.02-.02,0-.02.05-.03.1-.04.24.16.43.16.43l-.08-.25Z"/>
        <path class="cls-6" d="M14.85,9.12s-.2-.19-.16-.44h0c0-.05,0-.09.02-.1,0,0,0,0,.02,0h0s.02.02.02.02c0,0,0,0,0,0,.02.03.03.18.03.2v.06s.09.25.09.25h-.02ZM14.72,8.59s-.01.05-.01.08h0c-.03.19.07.33.12.4l-.06-.2v-.06s-.02-.17-.04-.19c0,0,0,0,0-.01,0,0,0,0,0,0Z"/>
      </g>
      <g>
        <path class="cls-1" d="M15.75,9.59s-.02,0,0-.02c.01-.02.05-.02.06-.02,0,0,.03,0,.04,0,.02,0,.04.02.03.03,0,0-.03.02-.06.02-.02,0-.04,0-.05,0-.01,0-.02,0-.02,0"/>
        <path class="cls-6" d="M15.81,9.61s-.04,0-.05,0c0,0-.02,0-.02,0,0,0-.01,0-.02-.01,0,0,0-.01,0-.02.01-.02.06-.03.06-.03,0,0,.03,0,.05,0,.01,0,.03.01.04.03,0,0,0,.01,0,.02-.01.01-.04.03-.07.03ZM15.8,9.55h0s-.04,0-.05.02h0s0,0,.02.01c0,0,.02,0,.04,0,.03,0,.04-.01.05-.02,0,0-.01,0-.03-.01-.01,0-.03,0-.04,0Z"/>
      </g>
      <g>
        <path class="cls-1" d="M15.53,9.47s-.07-.03-.13-.06c-.08-.04-.18-.1-.25-.2-.09-.13-.16-.2-.18-.21-.02-.01-.02-.02-.03,0,0,0,0,.02,0,.02.02.03.06.08.08.11.03.05.08.11.08.14,0,0-.02,0-.02,0,0,0-.13-.05-.19-.21-.04-.12-.02-.15-.03-.21-.02-.1-.02-.11-.07-.23,0,0-.03-.05-.04-.04,0,.01,0,.07,0,.07v.06s0,.13,0,.14-.03.09.11.23c0,0,0,.02-.02,0-.01-.01-.12-.09-.15-.22-.03-.13-.04-.26-.01-.31.02-.05.07-.17.05-.27,0-.01,0-.04-.01-.03,0,0-.02.06-.02.07-.01.02-.03.05-.03.07,0,.03-.06.07-.05.16.01.09.02.11.03.14,0,.01.01.04,0,.05,0,0-.03-.04-.03-.04,0,0-.09-.18-.03-.32.06-.14.2-.28.2-.28,0,0,.11-.09.14-.12,0,0,0-.01,0-.01-.03,0-.25.05-.33.31,0,0,0,.01,0,0,0,0,0-.02,0-.02,0,0,.05-.19.18-.27.15-.09.13-.08.18-.11.03-.02.06-.04.09-.1,0,0,.02-.04.02-.05,0,0,0,0-.01.01,0,0-.04.06-.1.09-.06.02-.11,0-.18.06-.06.07-.11.17-.11.17,0,0-.02.03-.02.02,0,0,0-.03,0-.03,0,0,.08-.18.15-.22.07-.04.13-.07.17-.1.05-.04.13-.13.16-.16,0,0,.05-.05.06-.06,0,0,.02-.02.02-.02,0,0-.05.02-.05.02,0,0-.22.06-.36.27,0,0-.02.03-.03.04-.01.02-.02.04-.02.04,0,0,.08-.12.08-.12l.02-.07s.03-.11.08-.18c0,0,.04-.04.04-.05.01-.01-.02.01-.02,0,0,0-.21.15-.21.34,0,.03-.02.06-.05.11-.03.05-.05.08-.06.15,0,.03-.01.06-.02.09,0,0,0,.03,0,.02,0,0,0-.02,0-.02,0,0,.02-.14.04-.18.01-.04.02-.07.02-.07,0,0,0-.11.01-.16.02-.05.07-.12.08-.13,0,0,.03-.05.03-.11,0,0,0,0-.01.02-.02.05-.04.07-.08.11,0,0-.1.07-.13.28,0,0,0,.08-.01.2,0,.09,0,.17,0,.22,0,.03.02.03.01.03,0,0,0,0,0-.02-.01-.03-.02-.07-.02-.13,0-.11,0-.2,0-.2,0,0,0-.18-.07-.26,0,0,.01.04.02.08,0,.05,0,.12-.01.14,0,.03-.05.14-.04.25,0,0,.04.19.09.27,0,0,.03.04,0,0-.03-.04-.09-.18-.09-.19,0-.01-.05-.1-.09-.14-.02-.02-.08-.05-.08-.05,0,0-.03-.02,0,0,.02.02.04.07.06.09.02.04.05.08.07.12.02.04.06.17.06.17l.03.08s.05.03.07.06c.02.02.07.08.1.17.02.04.05.08.05.08,0,0,0,.01-.04-.04-.03-.05-.06-.15-.13-.22-.05-.06-.19-.12-.19-.12,0,0,.09.16.11.19.04.05.09.11.11.13.01.02.1.12.11.14.02.03.03.04.04.05.02.02.09.07.09.07,0,0,0,0,0,0-.03-.02-.07-.05-.1-.07-.04-.02-.18-.08-.27-.22-.02-.04-.03-.05-.04-.05-.01,0,.06.26.22.34,0,0,.17.08.21.1.02.01.06.03.08.05.01,0-.01,0-.01,0-.09,0-.22-.02-.3-.07,0,0-.03-.02,0,0,.02.03.07.09.15.13.08.04.2.06.25.06.04,0,.2,0,.23.01.03,0,.08.04.11.05.03,0,.1.04.1.04,0,0,.02.01.04.02.01,0,.07,0,.08,0,0,0-.02-.02-.02-.02"/>
        <path class="cls-6" d="M15.51,9.51s-.03,0-.03,0c-.01,0-.04-.02-.04-.02h0s-.08-.03-.1-.04c-.02,0-.04-.02-.06-.03-.02,0-.04-.02-.05-.02-.02,0-.12,0-.18-.01-.02,0-.04,0-.05,0-.05,0-.17-.02-.25-.06-.07-.03-.11-.08-.14-.12,0,0,0,0-.01-.01-.01-.01-.02-.02-.01-.03,0,0,.01,0,.03,0,.08.05.22.06.29.06-.01,0-.03-.02-.04-.02-.01,0-.02-.01-.03-.02-.04-.02-.21-.1-.21-.1-.15-.08-.23-.3-.23-.34h0s0-.01,0-.01c0,0,0,0,0,0,.01,0,.02.02.04.05.08.11.18.17.24.2,0,0,0,0,0,0,0,0-.01-.02-.02-.03-.01-.02-.1-.12-.11-.14,0,0-.03-.03-.05-.05l-.06-.07s-.11-.18-.12-.19v-.02s0,0,0,0c0,0,.06.02.12.06l-.02-.06s-.04-.12-.06-.17c-.02-.04-.04-.08-.07-.12,0,0,0-.01-.01-.02-.01-.02-.03-.05-.04-.07,0-.01-.01-.02,0-.03s.01,0,.03,0c0,0,.06.03.08.05.04.04.09.14.09.14,0,0,0,0,0,0-.01-.05-.02-.08-.02-.09-.01-.09.01-.18.03-.23,0-.01,0-.02,0-.02h0s.02-.1,0-.14c0-.02-.01-.05-.02-.06,0-.01,0-.02,0-.02h0s0,0,0,0c.05.05.06.14.07.2,0-.03,0-.05,0-.05.04-.21.13-.28.13-.29,0-.01.02-.02.03-.03.02-.02.03-.04.05-.08,0-.02.01-.03.02-.03,0,0,0,0,0,0h0c0,.06-.03.11-.03.12,0,0,0,.02-.02.03-.02.03-.05.07-.06.1-.02.06-.01.16-.01.16l-.02.07s-.02.08-.03.12c0-.01,0-.02,0-.03.02-.08.03-.11.06-.16.03-.04.05-.07.05-.1,0-.19.2-.34.21-.34h0s0,0,0,0c.01,0,.02-.01.02-.01,0,0,0,0,0,0h0s0,.01,0,.01c0,0-.01.01-.02.02,0,0-.02.02-.02.02-.05.07-.08.18-.08.18v.04c.13-.16.31-.21.31-.21.04-.02.05-.01.05-.01,0,0,0,.01,0,.02,0,0,0,0,0,0,0,.01-.03.04-.05.05h-.01s-.02.03-.03.04c-.04.04-.09.1-.13.13-.04.03-.11.07-.17.1-.06.03-.14.18-.15.21,0,0,0,0,0,0,0,0,.05-.1.11-.17.04-.05.08-.05.12-.05.02,0,.04,0,.06,0,.06-.02.1-.08.1-.08,0-.01.01-.02.02-.02h0s-.01.05-.02.06c-.04.06-.07.09-.1.11h-.03s-.04.04-.15.11c-.05.03-.09.08-.12.13.08-.12.21-.17.26-.18h0s0,0,0,0c0,0,0,.01,0,.02-.02.02-.13.11-.14.12,0,0-.14.13-.19.27-.05.14.03.31.03.31,0,0,0,.01.01.02,0,0,0-.01,0-.02h0s-.02-.06-.03-.15c0-.06.02-.11.04-.13,0,0,.01-.02.01-.03,0,0,0-.02.02-.03,0-.01.01-.02.02-.03,0,0,0-.03.01-.05,0-.02,0-.03.01-.03h0s0,0,0,0c0,0,0,.01.01.03h0c.02.13-.04.27-.05.28-.02.05-.02.18.01.31.03.11.11.18.13.21,0,0,0,0,0,0,0,0,0,0,0,0-.06-.06-.13-.15-.11-.23,0-.01,0-.14,0-.14v-.06s-.02-.05,0-.07h0s0,0,0,0c0,0,0,0,0,0,0,0,.01,0,.04.04.05.12.06.13.07.23,0,.02,0,.03,0,.05,0,.04,0,.08.03.16.05.16.18.2.18.2,0,0,0,0,0,0,0-.02-.02-.04-.04-.07-.01-.02-.03-.04-.04-.06,0-.02-.03-.04-.04-.06-.01-.02-.03-.04-.04-.05,0,0-.01-.02,0-.03,0,0,0,0,.01,0,0,0,.01,0,.02,0h0s.09.08.18.22c.07.1.17.16.25.2.06.03.13.06.13.06h0s.02.02.02.03c0,0,0,0,0,0,0,0-.03,0-.04,0ZM14.62,9.2s0,0,0,0c.02.03.07.08.13.11.08.04.2.06.24.06,0,0,.03,0,.05,0,.08,0,.16,0,.18.01.01,0,.03.01.05.02.02.01.04.02.05.03.03,0,.1.04.1.04,0,0,.02.01.03.02.01,0,.06,0,.07,0,0,0,0,0-.01-.01,0,0-.07-.03-.13-.06-.09-.04-.19-.1-.26-.21-.1-.14-.18-.21-.18-.21h0s0-.01-.01-.01c0,0,0,0,0,.02,0,.01.02.03.03.05.02.02.04.05.04.06.01.02.03.04.04.06.02.03.05.06.04.09h0s0,0,0,0c0,0,0,0-.02,0,0,0-.14-.05-.19-.21-.03-.08-.03-.12-.03-.16,0-.02,0-.03,0-.05-.02-.1-.02-.11-.07-.23-.01-.02-.02-.03-.02-.03,0,.01,0,.04,0,.05v.06s0,.13,0,.14h0c-.02.08.05.17.11.22h0s0,.02,0,.02c0,0,0,0,0,0,0,0-.01,0-.02-.01,0,0,0,0,0,0-.03-.02-.09-.08-.12-.17h0s-.02,0-.04-.04c0-.02-.02-.04-.03-.06-.02-.05-.05-.11-.1-.16-.04-.04-.13-.08-.17-.1.03.04.08.14.1.17l.06.07s.04.05.05.05c.02.02.1.12.11.14.01.02.03.03.03.04h0s.04.04.06.06c.02.02.03.02.03.03h0s0,0,0,.01h0s-.01,0-.01,0h0s-.04-.03-.06-.05c-.01,0-.03-.02-.04-.03,0,0-.02,0-.03-.02-.05-.03-.17-.09-.25-.2,0-.01-.02-.03-.03-.04,0,.05.08.25.22.32,0,0,.17.08.21.1,0,0,.02.01.03.02.02,0,.04.02.05.03,0,0,0,0,0,.01h0s0,0,0,0c0,0-.01,0-.01,0-.07,0-.21-.02-.3-.06ZM14.5,8.59s.05.03.07.05c.04.04.08.11.1.17,0,.02.02.04.03.05,0,0,0,0,0,0-.03-.13-.04-.26-.01-.32,0-.02.07-.15.05-.26h0s0-.01,0-.02c0,0,0,0,0,.01,0,.02-.01.04-.02.05,0,.01-.01.02-.02.03,0,.01-.01.02-.02.03,0,0,0,.02-.02.03-.02.03-.04.07-.03.12,0,.08.02.1.02.13h0c.02.06,0,.06,0,.07,0,0,0,0,0,0,0,0-.01,0-.02-.02,0-.01-.01-.02-.01-.02,0,0-.09-.18-.03-.33.06-.14.2-.28.2-.28,0,0,.1-.09.13-.11-.08.02-.24.09-.3.31,0,0,0,.01-.01.01h0s0,0,0,0c0,0,0,0,0,0,0,0,0-.02,0-.02,0,0,.05-.19.19-.27.11-.07.13-.08.15-.09h.03s.06-.06.09-.11c0,0,0,0,0,0-.02.02-.05.06-.09.07-.02,0-.04,0-.06.01-.04,0-.07,0-.11.05-.06.07-.11.17-.11.17-.02.03-.03.03-.03.03h0s0,0,0,0c0,0,0-.02,0-.03,0,0,.09-.18.16-.22.06-.03.12-.07.17-.1.04-.03.09-.09.13-.13,0-.01.02-.02.03-.03,0,0,0,0,.01-.01.01-.02.04-.04.05-.05,0,0,0,0,0,0,0,0-.02,0-.03.01,0,0-.22.06-.36.27,0,.01-.02.03-.03.04-.01.01-.02.04-.02.04h0s0,0,0,0c0,0-.01-.01.08-.13v-.07s.04-.1.09-.18c-.06.05-.16.17-.16.29,0,.04-.02.07-.05.11-.03.05-.04.08-.06.15,0,.03-.01.06-.02.09,0,0,0,.02,0,.03h0s0,0,0,0c-.01,0-.01-.03-.01-.03,0,0,.02-.14.04-.19l.02-.07s0-.11.02-.16c.01-.04.04-.08.06-.11,0-.01.02-.02.02-.03,0-.01.02-.03.02-.06-.01.03-.03.04-.04.06,0,0-.02.02-.03.03,0,0-.1.07-.13.28h0s0,.08-.01.2c0,.09,0,.17,0,.22,0,0,0,0,0,0,0,0,0,0,0,0,0,0,0,0,0,0s0,0,0,0h0s0,.01,0,.01c0,0,0,0,0,0h0s0,0,0,0h0s0-.01,0-.02c0,0,0,0,0-.01-.01-.02-.02-.07-.02-.13,0-.11,0-.2,0-.2s0-.12-.04-.21c0,0,0,.02,0,.03,0,.04,0,.1,0,.14h0s0,.03,0,.04c-.01.05-.04.14-.03.22,0,0,.03.15.08.25,0,.01.01.02.02.03.02.02.02.02.01.03,0,0,0,0-.03-.02,0,0,0-.02-.01-.03-.03-.06-.07-.15-.08-.17,0-.01-.05-.1-.09-.13-.02-.01-.05-.04-.07-.05.01.02.03.04.04.06,0,0,0,.01.01.02.03.04.05.08.07.13.02.04.06.16.06.17l.03.08ZM14.62,8.28s0,0,0,0h0s0,0,0,0Z"/>
      </g>
      <g>
        <path class="cls-1" d="M16.53,8.17s.03.06.03.06c0,0,0-.03,0-.04s0-.07,0-.07h-.02s-.03.05-.03.05c0,0,.01,0,.03,0"/>
        <path class="cls-6" d="M16.54,8.23s-.01-.05-.02-.05h0s-.02,0-.02,0h-.02s0-.01,0-.01c0,0,.01-.03.03-.05l.03-.02v.02s0,.06,0,.07,0,.04,0,.04h-.02ZM16.53,8.16s0,0,0,0c0-.01,0-.02,0-.04h0s-.01.02-.02.03c0,0,0,0,.02,0h0Z"/>
      </g>
    </g>
  </g>
</svg>