<?xml version="1.0" encoding="UTF-8"?>
<svg id="Layer_2" data-name="Layer 2" xmlns="http://www.w3.org/2000/svg" viewBox="0 0 25.51 17.01">
  <defs>
    <style>
      .cls-1 {
        fill: #fff;
      }

      .cls-2 {
        fill: #1d439b;
      }

      .cls-3 {
        fill: #fbd118;
      }

      .cls-4 {
        fill: #7b421b;
      }
    </style>
  </defs>
  <g id="Layer_1-2" data-name="Layer 1">
    <g>
      <path class="cls-1" d="M0,0h25.51v17.01H0V0Z"/>
      <path class="cls-2" d="M9.45,1.89h16.06v1.89H9.45v-1.89ZM9.45,5.67h16.06v1.89H9.45v-1.89ZM0,9.45h25.51v1.89H0v-1.89ZM0,13.23h25.51v1.89H0v-1.89Z"/>
      <g>
        <g>
          <g>
            <g>
              <path class="cls-3" d="M4.51,5.65l.31.47c-1.29.93-.5,1.48-1.41,1.78.57-.55-.07-.64.4-1.79"/>
              <path class="cls-4" d="M3.41,7.9c.28-.28.26-.44.23-.68-.03-.23-.07-.54.17-1.12-.23.58-.19.89-.16,1.12.03.24.05.4-.24.67.43-.14.48-.34.55-.6.08-.3.18-.68.86-1.17l-.31-.47h0s0,0,0,0l.31.47c-.68.49-.78.87-.86,1.18-.07.27-.12.46-.55.6Z"/>
            </g>
            <g>
              <g>
                <g>
                  <path class="cls-3" d="M3.92,5.23l-.11.55c-1.57-.25-1.4.69-2.26.26.79,0,.42-.51,1.57-.99"/>
                  <path class="cls-4" d="M1.95,6.15c-.11,0-.23-.03-.4-.12h0c.39,0,.49-.13.64-.32.15-.18.34-.44.92-.67-.57.24-.77.49-.91.68-.15.19-.25.32-.63.32h-.02c.4.2.58.1.82-.04.27-.16.61-.35,1.44-.22l.11-.55h0s-.11.55-.11.55c-.83-.13-1.17.07-1.44.22-.14.08-.26.15-.42.15Z"/>
                </g>
                <g id="A">
                  <path class="cls-4" d="M3.92,5.23l-.25-.04h0c-.66.17-1.02.44-1.3.65-.14.1-.26.19-.39.24-.09.03-.18.04-.27.03.68.24.64-.56,2.1-.33l.11-.55Z"/>
                  <path class="cls-4" d="M1.95,6.15c-.07,0-.15-.01-.24-.04.09,0,.18,0,.27-.04.13-.05.26-.14.39-.24h.02c.28-.22.63-.48,1.28-.64h0s.25.04.25.04l-.11.55c-.83-.13-1.17.07-1.44.22-.14.08-.26.15-.42.15ZM1.72,6.11c.29.1.45,0,.66-.11.27-.16.61-.35,1.44-.22l.11-.55-.25-.04h0c-.65.17-1,.43-1.28.64h-.02c-.13.11-.26.2-.39.25-.09.03-.18.04-.27.03Z"/>
                </g>
              </g>
              <g id="B">
                <path class="cls-4" d="M1.78,6.08c-.07,0-.15-.01-.23-.04.08.03.16.04.23.04.21,0,.38-.12.6-.29.27-.2.64-.47,1.29-.63h0c-.65.16-1,.42-1.29.64-.22.16-.39.29-.6.29Z"/>
              </g>
            </g>
            <g>
              <path class="cls-3" d="M4.72,4.72l-.44-.44-1.98,2.87,2.87-1.98-.44-.44-2.43,2.43"/>
              <path class="cls-4" d="M2.3,7.15l1.98-2.87.44.44h0s.44.44.44.44l-2.87,1.99ZM4.28,4.28l-1.98,2.87h0l2.42-2.43-.44-.44ZM4.72,4.73l-2.42,2.42,2.86-1.99-.44-.44Z"/>
            </g>
            <g>
              <g>
                <g>
                  <path class="cls-3" d="M3.8,4.51l-.47.31c-.93-1.29-1.48-.5-1.78-1.41.55.57.64-.07,1.8.4"/>
                  <path class="cls-4" d="M3.33,4.82c-.49-.68-.87-.78-1.17-.86-.27-.07-.46-.12-.61-.55.28.28.44.26.68.23.23-.03.54-.07,1.12.17-.57-.23-.89-.19-1.12-.17-.25.03-.4.05-.68-.24.14.43.34.48.61.55.3.08.68.18,1.17.86l.47-.31h0s0,0,0,0l-.47.31Z"/>
                </g>
                <g id="A-2" data-name="A">
                  <path class="cls-4" d="M3.8,4.51l-.14-.21h0c-.58-.34-1.03-.4-1.37-.45-.17-.03-.32-.05-.45-.11-.08-.04-.16-.1-.22-.17.31.65.85.05,1.71,1.25l.47-.31Z"/>
                  <path class="cls-4" d="M3.33,4.82c-.49-.68-.87-.78-1.17-.86-.23-.06-.41-.11-.54-.39.06.07.13.13.22.17.12.06.26.08.45.11h.02c.35.05.78.12,1.35.46h0s.14.2.14.2h0s-.47.31-.47.31ZM1.62,3.57c.14.28.32.33.54.39.3.08.68.18,1.17.86l.46-.31-.14-.21h0c-.57-.33-1-.4-1.35-.45h-.02c-.18-.03-.32-.05-.45-.11-.08-.04-.16-.1-.22-.17Z"/>
                </g>
              </g>
              <g id="B-2" data-name="B">
                <path class="cls-4" d="M3.67,4.29c-.57-.35-1.01-.41-1.36-.46-.36-.05-.6-.09-.76-.41.16.32.4.36.76.41.33.05.79.12,1.36.46h0Z"/>
              </g>
            </g>
            <g>
              <g id="C">
                <path class="cls-3" d="M4.72,4.72v-.62l-3.43.62,3.43.62-3.43-.62h3.43Z"/>
                <path class="cls-4" d="M4.72,5.35l-3.43-.62,3.43-.63v.63s-3.43,0-3.43,0l3.43.62ZM4.72,4.1l-3.43.63h3.43v-.63Z"/>
              </g>
              <g id="D">
                <path class="cls-4" d="M4.72,4.72v.62l-3.43-.62,3.43.62v-.62Z"/>
              </g>
            </g>
            <g>
              <g>
                <g>
                  <path class="cls-3" d="M4.22,3.92l-.55-.11c.25-1.57-.69-1.4-.26-2.26,0,.79.54.48,1.02,1.63"/>
                  <path class="cls-4" d="M4.22,3.92h0l-.55-.11c.13-.83-.07-1.17-.22-1.44-.14-.24-.24-.42-.04-.82,0,.4.13.52.34.69.2.17.45.38.68.94-.24-.56-.49-.77-.68-.94s-.34-.29-.34-.69c-.2.4-.1.58.04.82.16.27.36.61.22,1.44l.55.11h0Z"/>
                </g>
                <g id="A-3" data-name="A">
                  <path class="cls-4" d="M4.22,3.92l.04-.25h-.01c-.16-.66-.43-1.01-.64-1.29-.1-.14-.19-.26-.24-.39-.03-.09-.04-.18-.03-.27-.24.68.56.64.33,2.1l.55.11Z"/>
                  <path class="cls-4" d="M4.22,3.92h0l-.55-.11c.13-.83-.07-1.17-.22-1.44-.12-.2-.21-.36-.11-.66,0,.09,0,.19.04.27.05.13.13.24.24.39v.02c.22.28.48.63.64,1.28h0s-.04.25-.04.25ZM3.34,1.71c-.1.29,0,.46.11.66.16.27.36.61.22,1.44l.55.11.04-.25h0c-.16-.64-.42-.99-.63-1.28v-.02c-.12-.15-.21-.27-.25-.39-.03-.09-.04-.18-.03-.27Z"/>
                </g>
              </g>
              <g id="B-3" data-name="B">
                <path class="cls-4" d="M4.28,3.67c-.16-.65-.42-1-.63-1.29-.22-.29-.36-.49-.24-.83-.12.34.03.53.25.83.2.27.47.64.63,1.29h0Z"/>
              </g>
            </g>
            <g>
              <g id="C-2" data-name="C">
                <path class="cls-3" d="M4.72,4.72l.44-.44-2.87-1.98,1.98,2.87-1.98-2.87,2.43,2.43Z"/>
                <path class="cls-4" d="M4.28,5.16l-1.99-2.86,2.87,1.98-.44.45h0s-2.43-2.43-2.43-2.43l1.99,2.86ZM2.3,2.3l2.43,2.42.44-.44-2.87-1.98Z"/>
              </g>
              <g id="D-2" data-name="D">
                <path class="cls-4" d="M4.72,4.72l-.44.44-1.98-2.87,1.98,2.87.44-.44Z"/>
              </g>
            </g>
            <g>
              <g>
                <g>
                  <path class="cls-3" d="M4.94,3.8l-.31-.47c1.29-.93.5-1.48,1.41-1.78-.57.55.07.64-.41,1.8"/>
                  <path class="cls-4" d="M4.94,3.8h0s-.31-.47-.31-.47c.68-.49.78-.87.86-1.18.07-.27.12-.46.55-.61-.28.28-.26.44-.23.68.03.23.07.55-.17,1.12.23-.57.19-.89.17-1.12-.03-.24-.05-.4.24-.68-.43.14-.48.34-.55.61-.08.3-.18.68-.86,1.17l.31.47h0Z"/>
                </g>
                <g id="A-4" data-name="A">
                  <path class="cls-4" d="M4.94,3.8l.21-.14h0c.35-.59.41-1.03.46-1.38.03-.17.05-.32.11-.45.04-.08.1-.16.17-.22-.65.31-.05.85-1.25,1.71l.31.47Z"/>
                  <path class="cls-4" d="M4.94,3.8h0s-.31-.47-.31-.47c.68-.49.78-.87.86-1.17.06-.23.11-.41.39-.54-.07.06-.13.13-.17.22-.06.13-.08.28-.11.45v.03c-.06.35-.12.78-.46,1.34h0s-.21.15-.21.15ZM5.87,1.62c-.28.14-.33.32-.39.54-.08.3-.18.68-.86,1.17l.31.46.21-.14h0c.34-.57.41-1,.46-1.35v-.03c.03-.16.05-.32.11-.45.04-.08.1-.16.17-.22Z"/>
                </g>
              </g>
              <g id="B-4" data-name="B">
                <path class="cls-4" d="M5.16,3.67h0c.35-.57.41-1.01.46-1.36.05-.36.09-.6.41-.76-.32.16-.36.4-.41.76-.05.35-.12.79-.46,1.36Z"/>
              </g>
            </g>
            <g>
              <g id="C-3" data-name="C">
                <path class="cls-3" d="M4.72,4.72h.62l-.62-3.43-.62,3.43.62-3.43v3.43Z"/>
                <path class="cls-4" d="M4.72,4.73h0V1.29l-.62,3.43.62-3.43.63,3.43h-.63ZM4.73,4.72h.62l-.63-3.43v3.43Z"/>
              </g>
              <g id="D-3" data-name="D">
                <path class="cls-4" d="M4.72,4.72h-.62l.62-3.43-.62,3.43h.62Z"/>
              </g>
            </g>
            <g>
              <g>
                <g>
                  <path class="cls-3" d="M5.53,4.22l.11-.55c1.57.25,1.4-.69,2.26-.26-.79,0-.44.51-1.59.99"/>
                  <path class="cls-4" d="M6.3,4.4c.57-.24.77-.49.92-.67.16-.19.26-.32.64-.32h.02c-.41-.2-.58-.1-.82.04-.27.16-.61.36-1.44.22l-.11.55h0s.11-.55.11-.55c.83.13,1.17-.07,1.44-.22.24-.14.41-.24.82-.04h0c-.39,0-.5.13-.66.32-.15.18-.36.44-.93.67Z"/>
                </g>
                <g id="A-5" data-name="A">
                  <path class="cls-4" d="M5.53,4.22l.25.04h0c.66-.17,1.02-.44,1.3-.65.14-.1.26-.19.39-.24.09-.03.18-.04.27-.03-.68-.24-.64.56-2.1.33l-.11.55Z"/>
                  <path class="cls-4" d="M5.78,4.27l-.25-.04.11-.55c.83.13,1.17-.07,1.44-.22.2-.12.37-.21.66-.11-.09,0-.19,0-.27.04-.13.05-.24.13-.39.24h-.02c-.28.22-.63.48-1.28.64h0ZM5.53,4.22l.25.04h0c.65-.17,1-.43,1.28-.64h.02c.15-.12.27-.21.39-.25.09-.03.18-.04.27-.03-.29-.1-.45,0-.66.11-.27.16-.61.36-1.44.22l-.11.55Z"/>
                </g>
              </g>
              <g id="B-5" data-name="B">
                <path class="cls-4" d="M5.78,4.29h0c.65-.16,1-.42,1.29-.64.29-.22.49-.36.83-.24-.34-.12-.53.03-.83.25-.27.2-.64.47-1.29.63Z"/>
              </g>
            </g>
            <g>
              <g id="C-4" data-name="C">
                <path class="cls-3" d="M4.72,4.72l.44.44,1.98-2.87-2.87,1.98,2.87-1.98-2.43,2.43Z"/>
                <path class="cls-4" d="M5.17,5.17l-.45-.44h0s2.42-2.43,2.42-2.43l-2.86,1.99,2.86-1.99-1.98,2.87ZM4.73,4.72l.44.44,1.98-2.87-2.42,2.43Z"/>
              </g>
              <g id="D-4" data-name="D">
                <path class="cls-4" d="M4.72,4.72l-.44-.44,2.87-1.98-2.87,1.98.44.44Z"/>
              </g>
            </g>
            <g>
              <g>
                <g>
                  <path class="cls-3" d="M5.65,4.94l.47-.31c.93,1.29,1.48.5,1.78,1.41-.55-.57-.66.07-1.81-.41"/>
                  <path class="cls-4" d="M7.9,6.04c-.28-.28-.44-.26-.69-.24-.23.03-.55.07-1.12-.17.57.23.89.19,1.12.17.25-.03.41-.05.69.24-.14-.43-.34-.48-.61-.55-.3-.08-.68-.18-1.17-.86l-.47.31h0s0,0,0,0l.47-.31c.49.68.87.78,1.17.86.27.07.46.12.61.55Z"/>
                </g>
                <g id="A-6" data-name="A">
                  <path class="cls-4" d="M5.65,4.94l.14.21h0c.58.34,1.03.4,1.37.45.17.03.32.05.45.11.08.04.16.1.22.17-.31-.65-.85-.05-1.71-1.25l-.47.31Z"/>
                  <path class="cls-4" d="M7.83,5.87c-.06-.07-.13-.13-.22-.17-.12-.06-.26-.08-.45-.11h-.02c-.35-.05-.78-.12-1.35-.46h0s-.15-.2-.15-.2h0s.47-.31.47-.31c.49.68.87.78,1.17.86.23.06.41.11.54.39ZM5.8,5.13c.57.34,1,.41,1.35.46h.02c.18.03.32.05.45.11.08.04.16.1.22.17-.14-.28-.32-.33-.54-.39-.3-.08-.68-.18-1.17-.86l-.47.31.14.21h0Z"/>
                </g>
              </g>
              <g id="B-6" data-name="B">
                <path class="cls-4" d="M7.9,6.04c-.16-.32-.4-.36-.76-.41-.33-.05-.79-.12-1.36-.46h0c.57.34,1.01.41,1.36.46.36.05.6.09.76.41Z"/>
              </g>
            </g>
            <g>
              <g id="C-5" data-name="C">
                <path class="cls-3" d="M4.72,4.72v.62l3.43-.62-3.43-.62,3.43.62h-3.43Z"/>
                <path class="cls-4" d="M4.72,5.35v-.63s3.43,0,3.43,0l-3.43-.62,3.43.62-3.43.63ZM4.73,4.73v.62l3.43-.63h-3.43Z"/>
              </g>
              <g id="D-5" data-name="D">
                <path class="cls-4" d="M4.72,4.72v-.62l3.43.62-3.43-.62v.62Z"/>
              </g>
            </g>
            <g>
              <g>
                <g>
                  <path class="cls-3" d="M5.23,5.53l.55.11c-.25,1.57.69,1.4.26,2.26,0-.79-.51-.42-.99-1.58"/>
                  <path class="cls-4" d="M6.04,7.89c0-.4-.13-.5-.32-.66-.18-.15-.43-.35-.67-.92.24.57.49.77.67.92.19.16.32.26.32.66.2-.4.1-.58-.04-.82-.16-.27-.36-.61-.22-1.44l-.55-.11h0s.55.11.55.11c-.13.83.07,1.17.22,1.44.14.24.24.42.04.82Z"/>
                </g>
                <g id="A-7" data-name="A">
                  <path class="cls-4" d="M5.23,5.53l-.04.25h.01c.16.66.43,1.01.64,1.29.1.14.19.26.24.39.03.09.04.18.03.27.24-.68-.56-.64-.33-2.1l-.55-.11Z"/>
                  <path class="cls-4" d="M6.11,7.73c0-.09,0-.18-.04-.27-.05-.13-.14-.26-.24-.39v-.02c-.22-.28-.48-.63-.64-1.28h0s.04-.25.04-.25l.55.11c-.13.83.07,1.17.22,1.44.12.2.21.36.11.66ZM5.19,5.77c.16.65.42,1,.63,1.28v.02c.11.13.21.26.25.39.03.09.04.18.03.27.1-.29,0-.46-.11-.66-.16-.27-.36-.61-.22-1.44l-.55-.11-.04.25h0Z"/>
                </g>
              </g>
              <g id="B-7" data-name="B">
                <path class="cls-4" d="M6.04,7.89c.12-.34-.03-.53-.25-.83-.2-.27-.47-.64-.63-1.29h0c.16.65.42,1,.63,1.29.22.29.36.49.24.83Z"/>
              </g>
            </g>
            <g>
              <g id="C-6" data-name="C">
                <path class="cls-3" d="M4.72,4.72l-.44.44,2.87,1.98-1.98-2.87,1.98,2.87-2.43-2.43Z"/>
                <path class="cls-4" d="M7.15,7.15l-2.87-1.98.44-.44h0s2.43,2.43,2.43,2.43l-1.99-2.86,1.99,2.86ZM4.72,4.73l-.44.44,2.87,1.98-2.43-2.42Z"/>
              </g>
              <g id="D-6" data-name="D">
                <path class="cls-4" d="M4.72,4.72l.44-.44,1.98,2.87-1.98-2.87-.44.44Z"/>
              </g>
            </g>
          </g>
          <g>
            <path class="cls-4" d="M4.51,5.65l-.21.14h0c-.35.58-.41,1.03-.46,1.38-.03.17-.05.32-.11.45-.04.08-.1.16-.17.22.65-.31.05-.85,1.25-1.71l-.31-.47Z"/>
            <path class="cls-4" d="M3.57,7.83c.07-.06.13-.13.17-.22.06-.12.08-.26.11-.45v-.02c.05-.35.12-.78.46-1.35h0s.21-.15.21-.15h0s.31.47.31.47c-.68.49-.78.87-.86,1.17-.06.23-.11.41-.39.54ZM4.51,5.65l-.21.14h0c-.34.57-.41,1.01-.46,1.35v.02c-.03.18-.05.32-.11.45-.04.08-.1.16-.17.22.28-.14.33-.32.39-.54.08-.3.18-.68.86-1.17l-.31-.46Z"/>
          </g>
          <g>
            <path class="cls-4" d="M3.41,7.9c.32-.16.36-.4.41-.76.05-.35.12-.79.46-1.36h0c-.35.57-.41,1.01-.46,1.36-.05.36-.09.6-.41.76Z"/>
            <g>
              <path class="cls-3" d="M4.72,4.72h-.62l.62,3.43.62-3.43h-.62v3.43"/>
              <path class="cls-4" d="M4.73,8.15l-.63-3.43h.62s0,0,0,0h.62s-.62,3.43-.62,3.43ZM4.1,4.73l.62,3.43v-3.43h-.62ZM4.72,4.73v3.43s.62-3.43.62-3.43h-.62Z"/>
            </g>
          </g>
        </g>
        <g>
          <path class="cls-4" d="M4.72,4.72h.62l-.62,3.43.62-3.43h-.62Z"/>
          <path class="cls-4" d="M4.72,4.72l.44.44-2.87,1.98,2.87-1.98-.44-.44Z"/>
        </g>
        <g>
          <circle class="cls-3" cx="4.72" cy="4.72" r="1.14"/>
          <path class="cls-4" d="M4.72,5.87c-.63,0-1.15-.51-1.15-1.15s.51-1.15,1.15-1.15,1.15.51,1.15,1.15-.51,1.15-1.15,1.15ZM4.72,3.58c-.63,0-1.14.51-1.14,1.14s.51,1.14,1.14,1.14,1.14-.51,1.14-1.14-.51-1.14-1.14-1.14Z"/>
        </g>
        <g>
          <path class="cls-4" d="M5.57,4.27c-.07.08-.11-.06-.37-.06s-.3.16-.34.12c-.04-.03.22-.22.3-.23.15.01.3.07.42.17M5.26,4.36c.04.05.04.13-.01.17-.01.01-.03.02-.05.03-.07,0-.21-.12-.15-.21"/>
          <path class="cls-4" d="M4.92,4.45c.01-.12.11-.15.28-.15s.24.12.3.16c-.07,0-.13-.1-.3-.1s-.17,0-.28.1M4.95,4.48c.04-.06.09.06.21.06.09,0,.18-.03.25-.08.07-.05-.1.12-.22.12s-.27-.06-.24-.1M4.14,4.35c-.05.02-.13.12,0,.2-.1-.07-.02-.18,0-.2"/>
          <path class="cls-4" d="M5.31,4.35s.1.12,0,.2c.13-.07.05-.18,0-.2M4.56,4.8c-.09.02-.06.16-.15.17s-.12.1-.11.09c.05-.04.17-.07.25-.07s.1.05.18.05.09-.05.18-.05.2.03.25.07c.01.01-.03-.08-.11-.09s-.05-.15-.15-.17c0,.04.03.03.04.09,0,.05-.09.05-.11,0,.02.08-.04.08-.09.08s-.11,0-.09-.08c-.02.05-.11.05-.11,0,.01-.06.04-.05.04-.09h0ZM4.24,5.15c-.08.06-.1.09-.11.17.02-.03.04-.06.06-.09h-.01s.02,0,.02,0l.06-.08Z"/>
          <path class="cls-4" d="M4.18,5.23h0s.03,0,.04,0h-.04ZM4.22,5.23c.06.01.11.02.16.04.06,0,.14-.02.34-.02s.28.01.34.02c.05-.02.11-.03.16-.04-.11,0-.27-.08-.34-.08-.08,0-.1.02-.17.02s-.08-.02-.17-.02c-.07,0-.22.08-.34.08M5.23,5.23s.03,0,.04,0h0s-.04,0-.04,0Z"/>
          <path class="cls-4" d="M5.27,5.23h.02s-.01,0-.01,0c.02.03.04.06.06.09-.01-.07-.03-.1-.11-.17l.06.08Z"/>
          <path class="cls-4" d="M5.27,5.23c-.11.04-.15.05-.21.04-.1.03-.18.06-.34.06s-.24-.03-.34-.06c-.06,0-.1,0-.2-.04.33.14.29.19.55.19s.22-.05.55-.19M4.18,5.23s-.01,0-.02,0h.02ZM5.27,5.23h.02s-.01,0-.02,0h0ZM3.88,4.27c.07.08.11-.06.37-.06s.3.16.34.12-.22-.22-.3-.23-.32.07-.42.17M4.18,4.36c-.07.06-.01.2.06.2s.21-.12.15-.21"/>
          <path class="cls-4" d="M4.53,4.45c-.01-.12-.11-.15-.28-.15s-.24.12-.3.16c.07,0,.14-.1.3-.1s.17,0,.28.1M4.5,4.49c-.04-.06-.09.06-.21.06s-.18-.03-.25-.08.1.12.22.12.27-.06.24-.1M4.72,5.51c-.05,0-.19.03,0,.03s.05-.03,0-.03"/>
        </g>
      </g>
    </g>
  </g>
</svg>