<?xml version="1.0" encoding="UTF-8"?>
<svg id="Layer_2" data-name="Layer 2" xmlns="http://www.w3.org/2000/svg" viewBox="0 0 25.51 17.01">
  <defs>
    <style>
      .cls-1, .cls-2, .cls-3, .cls-4, .cls-5, .cls-6, .cls-7, .cls-8, .cls-9, .cls-10, .cls-11, .cls-12, .cls-13, .cls-14, .cls-15, .cls-16, .cls-17, .cls-18, .cls-19, .cls-20, .cls-21 {
        stroke: #7b421b;
      }

      .cls-1, .cls-2, .cls-4, .cls-5, .cls-6, .cls-9, .cls-12, .cls-13, .cls-14, .cls-15, .cls-21 {
        fill: #fbd118;
      }

      .cls-1, .cls-4, .cls-7, .cls-9, .cls-11, .cls-12, .cls-19, .cls-20, .cls-21 {
        stroke-linecap: square;
      }

      .cls-1, .cls-7, .cls-8 {
        stroke-miterlimit: 77.01;
      }

      .cls-2 {
        stroke-miterlimit: 77;
      }

      .cls-3, .cls-8, .cls-16, .cls-17, .cls-18 {
        fill: none;
      }

      .cls-3, .cls-11, .cls-12 {
        stroke-miterlimit: 76.99;
      }

      .cls-4, .cls-16, .cls-20 {
        stroke-miterlimit: 77;
      }

      .cls-22 {
        fill: #fff;
      }

      .cls-5 {
        stroke-miterlimit: 77;
      }

      .cls-6 {
        stroke-miterlimit: 77;
      }

      .cls-7, .cls-10, .cls-11, .cls-23, .cls-19, .cls-20 {
        fill: #7b421b;
      }

      .cls-24 {
        fill: #1d439b;
      }

      .cls-9, .cls-18, .cls-19 {
        stroke-miterlimit: 77;
      }

      .cls-10, .cls-15, .cls-17, .cls-21 {
        stroke-miterlimit: 75.59;
      }

      .cls-13 {
        stroke-miterlimit: 15.12;
      }

      .cls-14 {
        stroke-miterlimit: 77;
      }
    </style>
  </defs>
  <g id="Layer_1-2" data-name="Layer 1">
    <g>
      <path class="cls-22" d="M0,0h25.51v17.01H0V0Z"/>
      <path class="cls-24" d="M9.45,1.89h16.06v1.89H9.45v-1.89ZM9.45,5.67h16.06v1.89H9.45v-1.89ZM0,9.45h25.51v1.89H0v-1.89ZM0,13.23h25.51v1.89H0v-1.89Z"/>
      <g>
        <g>
          <g>
            <path class="cls-21" d="M4.51,5.65l.31.47c-1.29.93-.5,1.48-1.41,1.78.57-.55-.07-.64.4-1.79"/>
            <g>
              <g>
                <path class="cls-4" d="M3.92,5.23l-.11.55c-1.57-.25-1.4.69-2.26.26.79,0,.42-.51,1.57-.99"/>
                <path id="A" class="cls-20" d="M3.92,5.23l-.25-.04h0c-.66.17-1.02.44-1.3.65-.14.1-.26.19-.39.24-.09.03-.18.04-.27.03.68.24.64-.56,2.1-.33l.11-.55Z"/>
              </g>
              <path id="B" class="cls-16" d="M3.67,5.16c-1.33.32-1.45,1.11-2.11.88"/>
            </g>
            <path class="cls-15" d="M4.72,4.72l-.44-.44-1.98,2.87,2.87-1.98-.44-.44-2.43,2.43"/>
            <g>
              <g>
                <path class="cls-1" d="M3.8,4.51l-.47.31c-.93-1.29-1.48-.5-1.78-1.41.55.57.64-.07,1.8.4"/>
                <path id="A-2" data-name="A" class="cls-7" d="M3.8,4.51l-.14-.21h0c-.58-.34-1.03-.4-1.37-.45-.17-.03-.32-.05-.45-.11-.08-.04-.16-.1-.22-.17.31.65.85.05,1.71,1.25l.47-.31Z"/>
              </g>
              <path id="B-2" data-name="B" class="cls-8" d="M3.67,4.29c-1.17-.71-1.81-.24-2.11-.88"/>
            </g>
            <g>
              <path id="C" class="cls-6" d="M4.72,4.72v-.62l-3.43.62,3.43.62-3.43-.62h3.43Z"/>
              <path id="D" class="cls-23" d="M4.72,4.72v.62l-3.43-.62,3.43.62v-.62Z"/>
            </g>
            <g>
              <g>
                <path class="cls-4" d="M4.22,3.92l-.55-.11c.25-1.57-.69-1.4-.26-2.26,0,.79.54.48,1.02,1.63"/>
                <path id="A-3" data-name="A" class="cls-20" d="M4.22,3.92l.04-.25h-.01c-.16-.66-.43-1.01-.64-1.29-.1-.14-.19-.26-.24-.39-.03-.09-.04-.18-.03-.27-.24.68.56.64.33,2.1l.55.11Z"/>
              </g>
              <path id="B-3" data-name="B" class="cls-16" d="M4.29,3.67c-.32-1.33-1.11-1.45-.88-2.11"/>
            </g>
            <g>
              <path id="C-2" data-name="C" class="cls-14" d="M4.72,4.72l.44-.44-2.87-1.98,1.98,2.87-1.98-2.87,2.43,2.43Z"/>
              <path id="D-2" data-name="D" class="cls-23" d="M4.72,4.72l-.44.44-1.98-2.87,1.98,2.87.44-.44Z"/>
            </g>
            <g>
              <g>
                <path class="cls-9" d="M4.94,3.8l-.31-.47c1.29-.93.5-1.48,1.41-1.78-.57.55.07.64-.41,1.8"/>
                <path id="A-4" data-name="A" class="cls-19" d="M4.94,3.8l.21-.14h0c.35-.59.41-1.03.46-1.38.03-.17.05-.32.11-.45.04-.08.1-.16.17-.22-.65.31-.05.85-1.25,1.71l.31.47Z"/>
              </g>
              <path id="B-4" data-name="B" class="cls-18" d="M5.16,3.67c.71-1.17.24-1.81.88-2.11"/>
            </g>
            <g>
              <path id="C-3" data-name="C" class="cls-2" d="M4.72,4.72h.62l-.62-3.43-.62,3.43.62-3.43v3.43Z"/>
              <path id="D-3" data-name="D" class="cls-23" d="M4.72,4.72h-.62l.62-3.43-.62,3.43h.62Z"/>
            </g>
            <g>
              <g>
                <path class="cls-9" d="M5.53,4.22l.11-.55c1.57.25,1.4-.69,2.26-.26-.79,0-.44.51-1.59.99"/>
                <path id="A-5" data-name="A" class="cls-19" d="M5.53,4.22l.25.04h0c.66-.17,1.02-.44,1.3-.65.14-.1.26-.19.39-.24.09-.03.18-.04.27-.03-.68-.24-.64.56-2.1.33l-.11.55Z"/>
              </g>
              <path id="B-5" data-name="B" class="cls-18" d="M5.78,4.29c1.33-.33,1.45-1.11,2.11-.88"/>
            </g>
            <g>
              <path id="C-4" data-name="C" class="cls-5" d="M4.72,4.72l.44.44,1.98-2.87-2.87,1.98,2.87-1.98-2.43,2.43Z"/>
              <path id="D-4" data-name="D" class="cls-23" d="M4.72,4.72l-.44-.44,2.87-1.98-2.87,1.98.44.44Z"/>
            </g>
            <g>
              <g>
                <path class="cls-12" d="M5.65,4.94l.47-.31c.93,1.29,1.48.5,1.78,1.41-.55-.57-.66.07-1.81-.41"/>
                <path id="A-6" data-name="A" class="cls-11" d="M5.65,4.94l.14.21h0c.58.34,1.03.4,1.37.45.17.03.32.05.45.11.08.04.16.1.22.17-.31-.65-.85-.05-1.71-1.25l-.47.31Z"/>
              </g>
              <path id="B-6" data-name="B" class="cls-3" d="M5.78,5.16c1.17.71,1.81.24,2.11.88"/>
            </g>
            <g>
              <path id="C-5" data-name="C" class="cls-2" d="M4.72,4.72v.62l3.43-.62-3.43-.62,3.43.62h-3.43Z"/>
              <path id="D-5" data-name="D" class="cls-23" d="M4.72,4.72v-.62l3.43.62-3.43-.62v.62Z"/>
            </g>
            <g>
              <g>
                <path class="cls-4" d="M5.23,5.53l.55.11c-.25,1.57.69,1.4.26,2.26,0-.79-.51-.42-.99-1.58"/>
                <path id="A-7" data-name="A" class="cls-20" d="M5.23,5.53l-.04.25h.01c.16.66.43,1.01.64,1.29.1.14.19.26.24.39.03.09.04.18.03.27.24-.68-.56-.64-.33-2.1l-.55-.11Z"/>
              </g>
              <path id="B-7" data-name="B" class="cls-16" d="M5.16,5.78c.32,1.33,1.11,1.45.88,2.11"/>
            </g>
            <g>
              <path id="C-6" data-name="C" class="cls-14" d="M4.72,4.72l-.44.44,2.87,1.98-1.98-2.87,1.98,2.87-2.43-2.43Z"/>
              <path id="D-6" data-name="D" class="cls-23" d="M4.72,4.72l.44-.44,1.98,2.87-1.98-2.87-.44.44Z"/>
            </g>
          </g>
          <path class="cls-10" d="M4.51,5.65l-.21.14h0c-.35.58-.41,1.03-.46,1.38-.03.17-.05.32-.11.45-.04.08-.1.16-.17.22.65-.31.05-.85,1.25-1.71l-.31-.47Z"/>
          <g>
            <path class="cls-17" d="M4.29,5.78c-.71,1.17-.24,1.81-.88,2.11"/>
            <path class="cls-15" d="M4.72,4.72h-.62l.62,3.43.62-3.43h-.62v3.43"/>
          </g>
        </g>
        <g>
          <path class="cls-23" d="M4.72,4.72h.62l-.62,3.43.62-3.43h-.62Z"/>
          <path class="cls-23" d="M4.72,4.72l.44.44-2.87,1.98,2.87-1.98-.44-.44Z"/>
        </g>
        <circle class="cls-13" cx="4.72" cy="4.72" r="1.14"/>
        <g>
          <path class="cls-23" d="M5.57,4.27c-.07.08-.11-.06-.37-.06s-.3.16-.34.12c-.04-.03.22-.22.3-.23.15.01.3.07.42.17M5.26,4.36c.04.05.04.13-.01.17-.01.01-.03.02-.05.03-.07,0-.21-.12-.15-.21"/>
          <path class="cls-23" d="M4.92,4.45c.01-.12.11-.15.28-.15s.24.12.3.16c-.07,0-.13-.1-.3-.1s-.17,0-.28.1M4.95,4.48c.04-.06.09.06.21.06.09,0,.18-.03.25-.08.07-.05-.1.12-.22.12s-.27-.06-.24-.1M4.14,4.35c-.05.02-.13.12,0,.2-.1-.07-.02-.18,0-.2"/>
          <path class="cls-23" d="M5.31,4.35s.1.12,0,.2c.13-.07.05-.18,0-.2M4.56,4.8c-.09.02-.06.16-.15.17s-.12.1-.11.09c.05-.04.17-.07.25-.07s.1.05.18.05.09-.05.18-.05.2.03.25.07c.01.01-.03-.08-.11-.09s-.05-.15-.15-.17c0,.04.03.03.04.09,0,.05-.09.05-.11,0,.02.08-.04.08-.09.08s-.11,0-.09-.08c-.02.05-.11.05-.11,0,.01-.06.04-.05.04-.09h0ZM4.24,5.15c-.08.06-.1.09-.11.17.02-.03.04-.06.06-.09h-.01s.02,0,.02,0l.06-.08Z"/>
          <path class="cls-23" d="M4.18,5.23h0s.03,0,.04,0h-.04ZM4.22,5.23c.06.01.11.02.16.04.06,0,.14-.02.34-.02s.28.01.34.02c.05-.02.11-.03.16-.04-.11,0-.27-.08-.34-.08-.08,0-.1.02-.17.02s-.08-.02-.17-.02c-.07,0-.22.08-.34.08M5.23,5.23s.03,0,.04,0h0s-.04,0-.04,0Z"/>
          <path class="cls-23" d="M5.27,5.23h.02s-.01,0-.01,0c.02.03.04.06.06.09-.01-.07-.03-.1-.11-.17l.06.08Z"/>
          <path class="cls-23" d="M5.27,5.23c-.11.04-.15.05-.21.04-.1.03-.18.06-.34.06s-.24-.03-.34-.06c-.06,0-.1,0-.2-.04.33.14.29.19.55.19s.22-.05.55-.19M4.18,5.23s-.01,0-.02,0h.02ZM5.27,5.23h.02s-.01,0-.02,0h0ZM3.88,4.27c.07.08.11-.06.37-.06s.3.16.34.12-.22-.22-.3-.23-.32.07-.42.17M4.18,4.36c-.07.06-.01.2.06.2s.21-.12.15-.21"/>
          <path class="cls-23" d="M4.53,4.45c-.01-.12-.11-.15-.28-.15s-.24.12-.3.16c.07,0,.14-.1.3-.1s.17,0,.28.1M4.5,4.49c-.04-.06-.09.06-.21.06s-.18-.03-.25-.08.1.12.22.12.27-.06.24-.1M4.72,5.51c-.05,0-.19.03,0,.03s.05-.03,0-.03"/>
        </g>
      </g>
    </g>
  </g>
</svg>