<?xml version="1.0" encoding="UTF-8"?>
<svg id="Layer_2" data-name="Layer 2" xmlns="http://www.w3.org/2000/svg" xmlns:xlink="http://www.w3.org/1999/xlink" viewBox="0 0 34.02 17.01">
  <defs>
    <style>
      .cls-1 {
        fill: #222d65;
      }

      .cls-2 {
        fill: #fff;
      }

      .cls-3 {
        fill: none;
      }

      .cls-4 {
        clip-path: url(#clippath-1);
      }

      .cls-5 {
        fill: #e31e2e;
      }

      .cls-6 {
        fill: #010101;
      }

      .cls-7 {
        clip-path: url(#clippath);
      }
    </style>
    <clipPath id="clippath">
      <rect class="cls-3" y="0" width="17.01" height="8.5"/>
    </clipPath>
    <clipPath id="clippath-1">
      <path class="cls-3" d="M0,0v4.25h17.01v4.25L0,0ZM17.01,0h-8.5v8.5H0L17.01,0Z"/>
    </clipPath>
  </defs>
  <g id="Layer_1-2" data-name="Layer 1">
    <g id="AU">
      <path class="cls-1" d="M0,0h34.02v17.01H0V0Z"/>
      <g class="cls-7">
        <g>
          <path class="cls-6" d="M0,0l17.01,8.5M17.01,0L0,8.5"/>
          <polygon class="cls-2" points="16.63 9.26 8.5 5.2 .38 9.26 -.38 7.74 6.6 4.25 -.38 .76 .38 -.76 8.5 3.3 16.63 -.76 17.39 .76 10.41 4.25 17.39 7.74 16.63 9.26"/>
        </g>
      </g>
      <g class="cls-4">
        <g>
          <path class="cls-6" d="M0,0l17.01,8.5M17.01,0L0,8.5"/>
          <polygon class="cls-5" points="16.75 9.01 8.5 4.89 .25 9.01 -.25 8 7.24 4.25 -.25 .51 .25 -.51 8.5 3.62 16.75 -.51 17.26 .51 9.77 4.25 17.26 8 16.75 9.01"/>
        </g>
      </g>
      <g>
        <path class="cls-6" d="M8.5,0v8.5M0,4.25h17.01"/>
        <polygon class="cls-2" points="9.92 8.5 7.09 8.5 7.09 5.67 0 5.67 0 2.83 7.09 2.83 7.09 0 9.92 0 9.92 2.83 17.01 2.83 17.01 5.67 9.92 5.67 9.92 8.5"/>
      </g>
      <g>
        <path class="cls-6" d="M8.5,0v8.5M0,4.25h17.01"/>
        <polygon class="cls-5" points="9.35 8.5 7.65 8.5 7.65 5.1 0 5.1 0 3.4 7.65 3.4 7.65 0 9.35 0 9.35 3.4 17.01 3.4 17.01 5.1 9.35 5.1 9.35 8.5"/>
      </g>
      <g>
        <g id="c">
          <path class="cls-2" d="M8.5,10.2l.49,1.53,1.5-.57-.89,1.34,1.38.82-1.6.14.22,1.59-1.11-1.16-1.11,1.16.22-1.59-1.6-.14,1.38-.82-.89-1.34,1.5.57.49-1.53Z"/>
        </g>
        <g id="c-2" data-name="c">
          <path class="cls-2" d="M25.51,12.96l.23.73.72-.27-.42.64.66.39-.76.07.1.76-.53-.55-.53.55.1-.76-.76-.07.66-.39-.42-.64.72.27.23-.73Z"/>
        </g>
        <g id="c-3" data-name="c">
          <path class="cls-2" d="M21.26,6.23l.23.73.72-.27-.42.64.66.39-.76.07.1.76-.53-.55-.53.55.1-.76-.76-.07.66-.39-.42-.64.72.27.23-.73Z"/>
        </g>
        <g id="c-4" data-name="c">
          <path class="cls-2" d="M25.51,1.62l.23.73.72-.27-.42.64.66.39-.76.07.1.76-.53-.55-.53.55.1-.76-.76-.07.66-.39-.42-.64.72.27.23-.73Z"/>
        </g>
        <g id="c-5" data-name="c">
          <path class="cls-2" d="M29.29,5.09l.23.73.72-.27-.42.64.66.39-.76.07.1.76-.53-.55-.53.55.1-.76-.76-.07.66-.39-.42-.64.72.27.23-.73Z"/>
        </g>
        <g id="d">
          <path class="cls-2" d="M27.21,8.5l.19.45.49.04-.37.32.12.48-.42-.26-.42.26.12-.48-.37-.32.49-.04.19-.45Z"/>
        </g>
      </g>
    </g>
  </g>
</svg>