<?xml version="1.0" encoding="UTF-8"?>
<svg id="Layer_2" data-name="Layer 2" xmlns="http://www.w3.org/2000/svg" viewBox="0 0 56.47 28.35">
  <defs>
    <style>
      .cls-1 {
        fill: #231f20;
      }

      .cls-2 {
        fill: #fff;
      }
    </style>
  </defs>
  <g id="Layer_1-2" data-name="Layer 1">
    <g>
      <g>
        <path class="cls-2" d="M23.38,17.36h-.07c-1.02-.01-1.99-.41-2.74-1.1h0s-.1-.09-.18-.16c-.86-.69-1.52-1.6-1.91-2.64-.17-.49-.27-.99-.32-1.5h0c-.2-1.71-1.18-3.06-2.49-3.45-.73-.24-1.44-.55-2.11-.93-.61-.31-1.31-.67-2.11-.99-.34-.14-.71-.27-1.11-.42C7.17,5.18,4.34,3.3,2.17.77c-.18-.21-.44-.34-.72-.34-.27,0-.53.14-.71.35-.25.31-.36.71-.29,1.1.08.6.21,1.2.39,1.77.73,2.3,2.34,4.21,4.48,5.3-.3-.03-.6-.09-.89-.18-.53-.16-1.04-.39-1.51-.68-.12-.07-.25-.11-.39-.11-.24,0-.47.14-.6.34-.2.3-.24.68-.12,1.02.38,1.12.96,2.15,1.72,3.05,1.13,1.33,2.7,2.21,4.42,2.45-.44.13-.89.2-1.34.21h0c-.15,0-.3,0-.46-.01-.06,0-.1,0-.16,0-.46-.03-.88.27-1.01.72-.16.65.29,1.66,1.67,2.44,1.16.66,2.47,1,3.8.98h0c.1,0,.21,0,.31-.01-.21.22-.44.41-.7.57-.32.23-.47.64-.38,1.03.2,1.02.95,1.85,1.95,2.13.54.16,1.11.24,1.67.23.65-.01,1.29-.14,1.9-.37-.06.17-.14.32-.23.47-.3.4-.36.92-.15,1.38.24.41.68.65,1.15.64h0c.1,0,.19,0,.28,0,.48,0,.95-.09,1.39-.24-.04.1-.09.21-.15.31-.2.36-.21.8,0,1.16.16.26.44.41.75.4.75-.07,1.46-.39,2-.91.03.2.04.39.03.59-.06.41.05.82.3,1.14.14.15.34.24.55.24h.02c.21-.01.42-.08.59-.21.4-.28.75-.64,1.02-1.06.03.08.05.18.07.26.1.38.46.63.84.59.17-.02.31-.12.41-.25.57-.67,1.89-3.5,1.54-5.86-.19-1.27-1.43-4.03-2.25-4.03Z"/>
        <path class="cls-1" d="M21.16,28.35c-.36,0-.67-.14-.89-.38-.28-.36-.43-.76-.44-1.18-.47.27-1,.44-1.54.49-.49.03-.91-.2-1.15-.6-.19-.34-.25-.72-.19-1.08-.22.03-.45.05-.68.06-.09,0-.19,0-.29,0-.62.03-1.2-.3-1.52-.85-.21-.46-.22-.94-.07-1.37-.35.07-.71.11-1.07.12-.6.01-1.21-.07-1.8-.25-1.16-.33-2.02-1.27-2.25-2.46-.11-.45.02-.93.34-1.27-1.11-.11-2.19-.45-3.16-1-1.69-.96-2.07-2.17-1.88-2.92.15-.55.61-.95,1.15-1.03-.96-.46-1.82-1.12-2.52-1.95-.8-.94-1.41-2.01-1.8-3.19-.16-.46-.1-.98.17-1.39.2-.32.56-.52.94-.54.07,0,.13,0,.2.02C1.67,6.52.88,5.22.43,3.79.24,3.18.1,2.55.02,1.94-.06,1.44.08.92.41.51.66.2,1.03.02,1.43,0c.41-.02.8.17,1.07.49,2.12,2.47,4.87,4.29,7.97,5.28.42.15.79.28,1.14.43.84.34,1.59.73,2.14,1.01.67.37,1.35.67,2.05.9,1.47.43,2.57,1.93,2.78,3.81.05.49.15.96.3,1.41.36.95.98,1.8,1.77,2.44.03.03.05.05.08.07h0l.13.11c.67.62,1.54.97,2.45.98l.06.43v-.43c1.27,0,2.51,3.33,2.67,4.39.38,2.53-1.01,5.46-1.63,6.2-.14.21-.4.37-.68.4-.43.03-.83-.14-1.08-.45-.2.21-.42.4-.66.57-.23.17-.52.27-.81.29h-.02ZM20.55,25.07l.13.8c.04.23.05.46.03.69-.05.32.03.61.21.84.04.04.1.09.21.08.13,0,.25-.05.36-.13.36-.26.67-.57.91-.94l.48-.73.29.82c.03.1.06.21.09.31.04.16.2.27.39.26.02,0,.06-.03.09-.07.49-.59,1.81-3.3,1.47-5.55-.21-1.38-1.37-3.57-1.82-3.66h-.06c-1.07-.01-2.09-.4-2.9-1.1h-.02l-.13-.14s-.06-.05-.1-.09c-.95-.77-1.66-1.74-2.08-2.85-.18-.53-.29-1.06-.35-1.61-.17-1.53-1.03-2.74-2.18-3.08-.76-.25-1.5-.57-2.2-.96-.68-.35-1.31-.67-2.06-.97-.34-.14-.7-.27-1.09-.41C6.96,5.56,4.07,3.64,1.84,1.05c-.1-.12-.24-.18-.39-.19-.14,0-.28.08-.38.19-.17.21-.25.49-.2.77.07.57.2,1.14.38,1.71.69,2.18,2.24,4.01,4.27,5.04l2.13,1.09-2.38-.27c-.32-.04-.64-.1-.96-.19-.57-.17-1.12-.41-1.62-.73-.05-.03-.11-.05-.17-.05-.08,0-.17.06-.23.14-.13.19-.16.43-.08.64.36,1.08.92,2.05,1.65,2.91,1.06,1.26,2.54,2.07,4.16,2.3l1.95.28-1.88.56c-.47.14-.96.22-1.45.23-.19,0-.34,0-.51-.02h-.12c-.29-.01-.52.15-.59.4-.12.46.29,1.28,1.47,1.95,1.08.62,2.32.96,3.58.92l1.4-.09-.77.81c-.23.24-.49.45-.78.64-.16.12-.24.35-.19.57.17.87.81,1.58,1.65,1.81.51.15,1.03.22,1.54.21.6-.01,1.19-.13,1.76-.34l.88-.33-.32.88c-.07.19-.16.38-.27.55-.22.3-.26.66-.12.97.14.23.44.4.74.38.12,0,.2,0,.28,0,.43,0,.86-.08,1.27-.22l.92-.32-.39.89c-.05.12-.1.23-.17.35-.13.23-.13.51,0,.74.07.11.21.18.34.17.64-.06,1.26-.34,1.73-.79l.59-.56Z"/>
      </g>
      <g>
        <path class="cls-2" d="M55.73.79c-.17-.21-.43-.34-.71-.35-.28,0-.54.12-.72.34-2.17,2.53-5,4.41-8.17,5.42-.4.14-.77.27-1.11.42-.8.33-1.5.68-2.11.99-.67.37-1.38.68-2.11.93-1.32.39-2.29,1.74-2.49,3.45-.05.51-.16,1.01-.32,1.5-.4,1.03-1.05,1.94-1.91,2.64h0c-.08.07-.15.13-.18.16-.75.69-1.72,1.08-2.74,1.1h-.07c-.81,0-2.05,2.75-2.24,4.03-.36,2.36.97,5.19,1.54,5.86.09.14.24.23.41.25.39.03.74-.21.84-.59.02-.09.04-.18.07-.26.27.41.62.77,1.02,1.05.17.13.38.2.59.21h.02c.21,0,.41-.09.55-.24.25-.32.36-.73.3-1.14-.02-.2,0-.4.03-.59.56.53,1.28.85,2.05.91.29,0,.56-.15.7-.4.2-.36.2-.8,0-1.16-.06-.1-.11-.21-.15-.31.45.16.92.24,1.39.24h0c.09,0,.18,0,.28,0,.47.02.91-.23,1.15-.64.21-.45.15-.98-.15-1.38-.09-.15-.17-.3-.23-.46.61.23,1.25.36,1.9.37.57,0,1.13-.07,1.67-.23,1-.28,1.76-1.1,1.95-2.13.1-.39-.05-.8-.38-1.03-.25-.16-.49-.35-.7-.57.1,0,.21,0,.31.01,1.33.02,2.65-.31,3.8-.98,1.38-.79,1.84-1.79,1.67-2.44-.12-.44-.54-.75-1-.72-.05,0-.1,0-.16,0-.15.01-.31.02-.46.01-.45,0-.9-.08-1.34-.21,1.72-.24,3.3-1.11,4.42-2.45.76-.9,1.35-1.93,1.72-3.05.12-.34.08-.72-.12-1.02-.13-.21-.36-.34-.6-.35-.14,0-.27.04-.39.11-.47.3-.98.53-1.51.68-.29.08-.59.14-.89.18,2.14-1.09,3.76-3,4.48-5.3.19-.58.32-1.17.4-1.77.06-.39-.05-.8-.29-1.1Z"/>
        <path class="cls-1" d="M35.34,28.35h-.01c-.34-.02-.62-.12-.86-.3-.24-.16-.46-.35-.66-.57-.25.31-.64.49-1.06.45-.31-.03-.57-.2-.73-.44-.59-.7-1.99-3.63-1.6-6.16.16-1.06,1.39-4.39,2.66-4.39.98-.01,1.85-.36,2.52-.98.02-.02.08-.07.15-.14.85-.69,1.47-1.54,1.83-2.5.15-.43.25-.91.29-1.39.22-1.89,1.32-3.38,2.8-3.82.69-.23,1.37-.53,2.02-.89.65-.33,1.35-.68,2.16-1.02.35-.14.72-.28,1.13-.42,3.11-.99,5.87-2.82,7.99-5.29.26-.31.63-.49,1.04-.49h.01c.41.01.79.2,1.04.51h0c.32.41.46.93.38,1.44-.08.62-.22,1.25-.41,1.84-.45,1.43-1.24,2.72-2.28,3.77.06,0,.12-.01.18-.01.4.02.75.22.96.54.27.41.33.93.16,1.4-.39,1.16-1,2.24-1.8,3.18-.7.83-1.56,1.48-2.52,1.94.53.08.99.47,1.14,1.02.19.76-.19,1.97-1.88,2.93-.97.56-2.04.9-3.16,1.01.32.35.44.83.33,1.29-.22,1.17-1.08,2.11-2.25,2.44-.57.17-1.18.25-1.79.25-.36,0-.71-.05-1.07-.12.15.42.13.91-.06,1.33-.33.59-.92.91-1.56.89-.06,0-.16,0-.26,0h-.19c-.17-.02-.33-.03-.5-.06.06.36,0,.73-.18,1.06-.23.4-.65.64-1.1.62-.57-.05-1.12-.22-1.61-.5,0,.41-.15.82-.41,1.15-.25.27-.56.41-.88.41ZM33.57,25.66l.49.76c.24.37.55.69.91.94.11.08.24.13.37.14h0c.08,0,.17-.04.23-.11.16-.2.23-.49.19-.78-.02-.24-.01-.47.03-.72l.13-.8.59.55c.49.46,1.12.74,1.79.8.11,0,.23-.07.3-.18.12-.23.12-.51,0-.74-.07-.12-.12-.24-.17-.36l-.36-.88.9.31c.4.14.82.21,1.26.22h.13s.08,0,.12,0c.36.02.64-.15.8-.42.12-.27.08-.63-.12-.9-.12-.19-.21-.38-.29-.57l-.32-.88.87.33c.57.21,1.16.33,1.76.34.53.01,1.04-.06,1.54-.21.86-.24,1.49-.93,1.65-1.8.06-.24-.02-.47-.21-.61-.26-.16-.52-.37-.75-.61l-.76-.78,1.38.06c1.27,0,2.49-.3,3.57-.92,1.18-.67,1.59-1.49,1.47-1.96-.07-.24-.31-.41-.56-.39h-.15c-.16.02-.34.02-.5.02-.5-.01-.98-.09-1.46-.23l-1.88-.56,1.95-.28c1.62-.23,3.1-1.05,4.16-2.3.73-.86,1.28-1.84,1.64-2.91.08-.22.05-.45-.07-.64-.06-.09-.16-.15-.26-.15-.04,0-.09.02-.14.05-.5.32-1.04.56-1.62.73-.32.09-.64.16-.96.19l-2.38.27,2.13-1.09c2.02-1.03,3.58-2.87,4.26-5.04.18-.54.3-1.11.38-1.7.04-.28-.03-.56-.2-.78-.09-.12-.23-.19-.39-.19-.18-.02-.28.06-.37.18-2.23,2.6-5.12,4.52-8.37,5.55-.38.13-.74.26-1.07.4-.78.32-1.46.67-2.07.97-.7.39-1.43.71-2.18.96-1.16.34-2.02,1.55-2.2,3.09-.05.54-.17,1.07-.34,1.59-.43,1.12-1.13,2.09-2.05,2.83-.06.06-.12.1-.15.13-.84.78-1.91,1.21-3.04,1.22-.52.08-1.68,2.29-1.89,3.66-.34,2.25.98,4.97,1.44,5.52.05.07.09.1.13.1.17.02.33-.1.37-.27.01-.08.04-.19.08-.29l.28-.86Z"/>
      </g>
    </g>
  </g>
</svg>