<?xml version="1.0" encoding="UTF-8"?>
<svg id="Layer_2" data-name="Layer 2" xmlns="http://www.w3.org/2000/svg" viewBox="0 0 52.02 25.91">
  <defs>
    <style>
      .cls-1 {
        fill: #fff;
        stroke: #231f20;
        stroke-miterlimit: 10;
        stroke-width: .4px;
      }
    </style>
  </defs>
  <g id="Layer_1-2" data-name="Layer 1">
    <g>
      <path class="cls-1" d="M21.48,16.46c-1.11,0-2.17-.42-2.98-1.18-.03-.03-.07-.07-.13-.12h0c-.87-.71-1.53-1.63-1.93-2.68-.17-.49-.28-1-.33-1.52-.16-1.37-.91-2.44-1.92-2.74-.71-.24-1.39-.54-2.05-.9-.56-.29-1.19-.61-1.92-.9-.31-.13-.65-.25-1-.38h0C6.19,5.09,3.48,3.3,1.41.88c-.06-.08-.15-.13-.25-.13-.1,0-.19.06-.25.14-.13.17-.18.39-.14.59.07.53.18,1.05.34,1.55.77,2.41,2.64,4.3,5.04,5.07l1.19.36-1.23.17c-.22.03-.45.05-.68.06-.56,0-1.12-.07-1.66-.22-.54-.16-1.06-.39-1.54-.69-.02-.01-.04-.02-.06-.02-.05,0-.09.04-.12.08-.08.13-.1.3-.05.45.33.97.84,1.87,1.5,2.65,1.15,1.37,2.86,2.16,4.65,2.15.11,0,.19,0,.25-.01l1.21-.09-1.06.6c-.79.45-1.68.7-2.59.73-.16,0-.32,0-.48-.01h0s-.06,0-.09,0c-.23,0-.37.09-.41.25-.08.31.2,1.03,1.29,1.65h0c.99.57,2.11.86,3.25.84.3,0,.59-.03.89-.08l.64-.11-.37.53h0c-.32.47-.74.88-1.22,1.18-.08.05-.12.22-.09.42h0c.15.73.7,1.32,1.42,1.52.45.14.91.2,1.38.19.71-.02,1.41-.19,2.05-.51l.46-.23-.07.51c-.05.42-.19.81-.41,1.17-.16.2-.21.48-.12.72.14.2.36.31.61.3.08,0,.15,0,.22,0h0c.56-.01,1.11-.15,1.62-.41l.51-.25-.12.56c-.07.34-.19.67-.36.98-.09.16-.1.36-.02.53.03.07.1.11.17.1.72-.08,1.38-.44,1.83-1l.29-.34.17.42c.16.39.22.81.19,1.22-.04.22.01.45.14.64.03.04.07.06.12.05.09,0,.18-.04.25-.1.45-.32.81-.75,1.04-1.26l.22-.47.26.46h0c.15.28.27.57.33.88.02.08.1.11.17.12.37-.35,1.66-2.93,1.34-5.04-.2-1.3-1.25-3.16-1.56-3.28Z"/>
      <path class="cls-1" d="M21.5,15.92h-.06c-.94-.01-1.85-.38-2.54-1.02h0s-.09-.08-.17-.15c-.8-.64-1.41-1.49-1.77-2.45-.15-.45-.25-.92-.3-1.39h0c-.18-1.59-1.09-2.84-2.31-3.2-.68-.22-1.33-.51-1.96-.86-.57-.29-1.22-.62-1.96-.92-.32-.13-.66-.25-1.03-.39C6.46,4.6,3.83,2.86,1.81.51c-.17-.2-.41-.32-.67-.31-.25,0-.5.13-.66.33-.23.29-.33.66-.27,1.03.07.56.19,1.11.36,1.64.68,2.13,2.17,3.91,4.16,4.92-.28-.03-.56-.09-.83-.17-.5-.14-.97-.36-1.4-.63-.11-.07-.23-.1-.36-.11-.23,0-.44.13-.56.32-.18.28-.23.63-.11.95.35,1.04.89,2,1.6,2.83,1.05,1.24,2.5,2.05,4.11,2.27-.41.12-.82.19-1.24.19h0c-.14,0-.28,0-.43-.01-.05,0-.1,0-.15,0-.43-.03-.82.25-.93.67-.15.6.27,1.54,1.55,2.27,1.07.61,2.29.93,3.52.91h0c.1,0,.19,0,.29-.01-.19.2-.41.38-.65.53-.3.22-.44.6-.35.96.18.95.88,1.72,1.81,1.98.5.15,1.03.22,1.55.21.61-.01,1.2-.13,1.77-.34-.06.15-.13.3-.21.43-.28.37-.33.86-.14,1.28.22.38.63.61,1.07.59h0c.09,0,.18,0,.26,0,.44,0,.88-.08,1.29-.23-.04.1-.08.19-.14.29-.19.33-.19.74,0,1.08.14.24.41.38.69.37.7-.06,1.35-.36,1.86-.84.03.18.04.36.03.55-.05.38.05.76.28,1.06.13.14.32.23.51.22h.02c.2-.01.39-.08.55-.19.37-.26.69-.6.94-.98.03.08.05.16.07.25.09.35.42.58.78.55.15-.02.29-.11.38-.24.53-.63,1.76-3.25,1.43-5.44-.18-1.18-1.33-3.74-2.08-3.74ZM21.71,24.78c-.08,0-.16-.03-.17-.12-.07-.31-.18-.6-.33-.87h0s-.26-.46-.26-.46l-.22.47c-.23.5-.59.94-1.04,1.26-.07.06-.16.09-.25.1-.05,0-.09-.02-.12-.05-.13-.19-.18-.42-.14-.64.03-.42-.03-.84-.19-1.22l-.17-.42-.29.34c-.46.56-1.11.92-1.83,1-.07,0-.14-.03-.17-.1-.08-.17-.08-.36.02-.53.17-.3.29-.64.36-.98l.12-.56-.51.25c-.5.26-1.05.4-1.62.41h0c-.07,0-.15,0-.22,0-.24.02-.47-.1-.61-.3-.09-.24-.05-.52.12-.72.22-.36.36-.75.41-1.17l.07-.51-.46.23c-.64.32-1.33.49-2.05.51-.47.01-.93-.06-1.38-.19-.72-.2-1.27-.79-1.42-1.52h0c-.03-.2,0-.37.09-.42.48-.3.9-.71,1.22-1.18h0l.37-.53-.64.11c-.29.05-.59.08-.89.08-1.14.02-2.26-.27-3.25-.84h0c-1.09-.62-1.37-1.34-1.29-1.65.04-.16.18-.25.41-.25.03,0,.06,0,.09,0h0c.17.01.33.02.48.01.91-.02,1.8-.27,2.59-.73l1.06-.6-1.21.09c-.06,0-.14,0-.25.01-1.79.02-3.5-.77-4.65-2.15-.66-.78-1.17-1.68-1.5-2.65-.06-.15-.04-.32.05-.45.02-.05.07-.08.12-.08.02,0,.04,0,.06.02.48.3,1,.54,1.54.69.54.15,1.1.23,1.66.22.23,0,.46-.02.68-.06l1.23-.17-1.19-.36C3.75,7.33,1.87,5.44,1.1,3.03c-.16-.5-.28-1.02-.34-1.55-.04-.21.01-.42.14-.59.06-.08.15-.13.25-.14.1,0,.19.05.25.13,2.07,2.42,4.78,4.21,7.81,5.18h0c.36.13.69.25,1,.38.72.3,1.36.62,1.92.9.66.36,1.34.66,2.05.9,1.01.3,1.77,1.37,1.92,2.74.05.52.16,1.03.33,1.52.4,1.05,1.06,1.97,1.93,2.68h0c.06.05.11.09.13.12.81.76,1.87,1.18,2.98,1.18.32.12,1.37,1.98,1.56,3.28.32,2.11-.97,4.69-1.34,5.04Z"/>
      <path class="cls-1" d="M50.86.75h0c-.1,0-.19.06-.25.13-2.07,2.42-4.77,4.21-7.81,5.18-.36.13-.69.25-1.01.38-.72.29-1.36.62-1.91.9-.66.36-1.34.66-2.05.9-1.01.3-1.76,1.37-1.92,2.73-.05.52-.16,1.03-.33,1.52-.4,1.05-1.06,1.97-1.93,2.68-.06.05-.11.09-.13.12h0c-.81.76-1.88,1.19-3,1.19-.3.12-1.34,1.97-1.54,3.27-.32,2.11.97,4.69,1.33,5.04.08,0,.16-.04.17-.12h0c.07-.31.18-.6.33-.87l.26-.46.22.47c.23.5.59.94,1.04,1.26.07.06.16.09.25.1.04,0,.09-.02.12-.05.13-.19.18-.42.14-.64-.03-.42.03-.84.19-1.22l.17-.42.29.34c.45.56,1.11.92,1.82,1,.08,0,.15-.03.19-.1.08-.17.08-.36-.02-.53-.17-.3-.29-.64-.36-.98l-.12-.56.51.25c.5.25,1.06.39,1.62.41.07,0,.15,0,.22,0h0c.24.02.47-.1.6-.3.09-.24.05-.52-.11-.72-.22-.36-.36-.75-.41-1.17l-.07-.51.46.23c.64.32,1.33.49,2.05.51.47.01.93-.05,1.38-.19.72-.2,1.27-.79,1.42-1.52.03-.2-.01-.37-.09-.42h0c-.48-.3-.9-.71-1.22-1.18l-.37-.53.64.11c.29.05.59.07.89.08,1.14.02,2.26-.27,3.24-.84,1.09-.62,1.37-1.34,1.29-1.65-.04-.16-.18-.25-.41-.25-.03,0-.06,0-.1,0-.16.01-.33.02-.48.01h0c-.91-.02-1.8-.27-2.6-.72l-1.06-.6,1.22.09c.05,0,.14,0,.25.01,1.79.01,3.49-.77,4.65-2.15.66-.78,1.17-1.68,1.5-2.65.06-.15.04-.31-.05-.45-.03-.04-.07-.08-.12-.08-.02,0-.04,0-.06.02-.48.3-1,.54-1.54.7-.76.22-1.55.28-2.34.17l-1.23-.17,1.19-.36c2.4-.78,4.27-2.67,5.04-5.07.16-.5.28-1.02.34-1.55.04-.21-.02-.42-.15-.59-.06-.08-.15-.13-.25-.14Z"/>
      <path class="cls-1" d="M51.53.53c-.16-.2-.4-.32-.66-.33-.26,0-.5.11-.67.31-2.02,2.35-4.64,4.09-7.59,5.03-.37.13-.71.25-1.03.39-.74.3-1.39.63-1.96.92-.62.35-1.28.64-1.96.86-1.22.36-2.13,1.62-2.31,3.2-.05.47-.14.94-.3,1.39-.37.96-.98,1.8-1.77,2.45h0c-.08.07-.14.12-.17.15-.69.64-1.6,1.01-2.55,1.02h-.06c-.75,0-1.9,2.56-2.08,3.74-.33,2.19.9,4.81,1.43,5.44.09.13.23.22.39.24.36.03.69-.2.78-.55.02-.08.04-.17.06-.25.25.38.57.72.95.98.16.12.35.19.55.2h.02c.19,0,.38-.08.51-.22.23-.3.33-.68.28-1.06-.02-.19,0-.37.03-.55.52.49,1.19.79,1.9.85.27,0,.52-.14.65-.37.18-.34.18-.75,0-1.08-.05-.09-.1-.19-.14-.29.42.14.85.22,1.29.23h0c.08,0,.17,0,.26,0,.44.02.85-.21,1.07-.59.19-.42.14-.91-.14-1.28-.09-.14-.16-.28-.21-.43.57.21,1.16.33,1.77.34.53,0,1.05-.06,1.55-.21.93-.26,1.63-1.03,1.81-1.98.09-.36-.05-.74-.35-.96-.24-.15-.45-.33-.65-.53.09,0,.19,0,.28.01,1.24.02,2.46-.29,3.53-.91,1.28-.73,1.71-1.66,1.55-2.27-.11-.41-.5-.69-.93-.67-.05,0-.09,0-.15,0-.14.01-.29.02-.43.01-.42,0-.84-.07-1.24-.19,1.6-.23,3.06-1.03,4.11-2.27.71-.83,1.25-1.79,1.6-2.83.11-.32.07-.67-.11-.94-.12-.19-.33-.31-.56-.32-.13,0-.25.04-.36.11-.44.28-.91.49-1.4.63-.27.08-.55.13-.83.17,1.99-1.01,3.49-2.78,4.16-4.92.17-.53.29-1.08.37-1.64.06-.36-.04-.74-.27-1.03ZM50.92,3.03c-.77,2.41-2.64,4.3-5.04,5.07l-1.19.36,1.23.17c.78.11,1.58.06,2.34-.17.55-.16,1.06-.39,1.54-.7.02-.01.04-.02.06-.02.05,0,.09.04.12.08.08.14.1.3.05.45-.33.97-.84,1.87-1.5,2.65-1.16,1.37-2.86,2.16-4.65,2.15-.11,0-.2,0-.25-.01l-1.22-.09,1.06.6c.79.45,1.68.7,2.6.73h0c.15,0,.32,0,.48-.02.03,0,.07,0,.1,0,.23,0,.37.09.41.25.08.31-.2,1.03-1.29,1.65-.98.57-2.11.86-3.24.84-.3,0-.59-.03-.89-.08l-.64-.11.37.53c.32.47.74.88,1.22,1.18h0c.08.05.12.22.09.42-.15.73-.7,1.32-1.42,1.52-.45.14-.91.2-1.38.19-.71-.02-1.41-.19-2.05-.51l-.46-.23.07.51c.05.42.19.81.41,1.17.16.2.21.48.11.72-.13.2-.36.31-.6.3h0c-.07,0-.15,0-.22,0-.56-.01-1.11-.15-1.62-.41l-.51-.25.12.56c.07.34.19.67.36.98.09.16.1.36.02.53-.03.07-.11.11-.19.1-.71-.08-1.37-.44-1.82-1l-.29-.34-.17.42c-.16.39-.22.81-.19,1.22.04.22-.01.45-.14.64-.03.04-.07.06-.12.05-.09,0-.18-.04-.25-.1-.45-.32-.81-.75-1.04-1.26l-.22-.47-.26.46c-.15.27-.27.57-.33.87h0c-.02.08-.09.11-.17.12-.37-.36-1.65-2.94-1.33-5.04.2-1.3,1.25-3.16,1.54-3.27,1.11,0,2.19-.42,3-1.18h0s.07-.07.13-.12c.87-.71,1.53-1.63,1.93-2.68.17-.49.28-1,.33-1.52.16-1.37.91-2.44,1.92-2.73.71-.24,1.4-.54,2.05-.9.56-.29,1.19-.61,1.91-.9.31-.13.65-.25,1.01-.38,3.03-.97,5.73-2.76,7.81-5.18.06-.08.15-.12.25-.13h0c.1,0,.19.06.25.14.13.17.18.39.15.59-.07.53-.18,1.05-.34,1.55Z"/>
    </g>
  </g>
</svg>