<?xml version="1.0" encoding="UTF-8"?>
<svg id="Layer_2" data-name="Layer 2" xmlns="http://www.w3.org/2000/svg" viewBox="0 0 57.35 28.35">
  <g id="Layer_1-2" data-name="Layer 1">
    <g>
      <path d="M23.67,17.46h-.07c-1.05-.01-2.05-.42-2.82-1.13h0s-.1-.09-.19-.17c-.89-.72-1.56-1.65-1.97-2.72-.17-.5-.28-1.02-.33-1.55h0c-.2-1.76-1.21-3.16-2.57-3.56-.75-.25-1.48-.57-2.18-.96-.63-.32-1.35-.69-2.18-1.02-.35-.15-.73-.28-1.14-.43C6.95,4.89,4.03,2.96,1.79.35,1.61.13,1.34,0,1.05,0,.77.01.5.14.32.36.06.68-.05,1.1.02,1.5c.08.62.22,1.23.4,1.83.75,2.37,2.41,4.34,4.62,5.46-.31-.04-.62-.1-.92-.18-.55-.16-1.08-.4-1.56-.7-.12-.07-.26-.11-.4-.12-.25.01-.48.14-.62.35-.2.31-.25.7-.13,1.05.39,1.15.99,2.22,1.78,3.14,1.16,1.38,2.78,2.28,4.56,2.53-.45.14-.91.21-1.38.22h0c-.15,0-.31,0-.48-.02-.06,0-.11,0-.16,0-.48-.03-.91.28-1.04.74-.17.67.3,1.71,1.73,2.52,1.19.68,2.55,1.03,3.92,1.01h0c.11,0,.21,0,.32-.02-.21.22-.46.42-.72.59-.33.24-.48.66-.39,1.07.2,1.05.98,1.91,2.01,2.2.56.17,1.14.25,1.72.24.67-.01,1.34-.14,1.96-.38-.06.17-.14.33-.23.48-.31.41-.37.95-.16,1.42.24.42.7.68,1.18.66h0c.1,0,.2,0,.29,0,.49,0,.98-.09,1.44-.25-.05.11-.09.21-.15.32-.21.37-.21.83,0,1.2.16.27.46.43.77.41.77-.07,1.5-.4,2.07-.94.03.2.04.4.03.61-.06.42.05.84.31,1.18.15.16.35.25.57.25h.02c.22-.01.43-.09.61-.22.42-.29.77-.67,1.05-1.09.03.09.05.18.07.27.1.39.47.64.87.61.17-.02.32-.12.42-.26.58-.7,1.95-3.61,1.58-6.04-.2-1.31-1.47-4.15-2.32-4.15Z"/>
      <path d="M57.03.36c-.18-.22-.45-.35-.73-.36-.29,0-.56.12-.74.35-2.24,2.61-5.16,4.55-8.43,5.59-.41.15-.79.28-1.14.43-.83.34-1.54.7-2.18,1.02-.69.38-1.42.71-2.17.96-1.36.4-2.37,1.8-2.57,3.56-.05.52-.16,1.04-.33,1.55-.41,1.07-1.09,2-1.97,2.72h0c-.08.07-.15.13-.19.17-.77.72-1.78,1.12-2.83,1.13h-.07c-.84,0-2.11,2.84-2.31,4.15-.37,2.44,1,5.35,1.58,6.04.1.15.25.24.43.26.4.04.76-.22.86-.61.02-.09.04-.19.07-.27.28.43.64.8,1.05,1.09.18.13.39.21.61.22h.02c.22,0,.42-.09.57-.25.26-.33.37-.76.31-1.17-.02-.21,0-.41.03-.61.58.54,1.32.88,2.11.94.3.01.58-.15.73-.41.2-.37.2-.83,0-1.2-.06-.1-.11-.21-.15-.32.46.16.95.24,1.43.25h0c.09,0,.19,0,.29,0,.49.02.94-.23,1.18-.66.21-.47.15-1.01-.16-1.42-.1-.15-.17-.31-.23-.48.63.24,1.29.37,1.96.38.58.01,1.16-.07,1.72-.24,1.03-.29,1.81-1.14,2.01-2.2.1-.4-.06-.82-.39-1.07-.26-.17-.5-.36-.72-.58.1,0,.21.01.32.01,1.37.03,2.73-.32,3.92-1.01,1.43-.81,1.9-1.85,1.73-2.52-.13-.46-.56-.77-1.03-.74-.05,0-.1,0-.17,0-.16.02-.32.02-.48.02-.47-.01-.93-.08-1.38-.22,1.78-.25,3.4-1.15,4.56-2.53.78-.92,1.39-1.99,1.78-3.14.13-.35.08-.74-.12-1.05-.14-.21-.37-.35-.62-.36-.14,0-.28.04-.4.12-.48.31-1.01.54-1.56.7-.3.09-.61.15-.92.18,2.21-1.12,3.87-3.09,4.62-5.46.19-.59.33-1.21.41-1.83.06-.41-.05-.82-.3-1.14Z"/>
    </g>
  </g>
</svg>