<?xml version="1.0" encoding="UTF-8"?>
<svg id="Layer_2" data-name="Layer 2" xmlns="http://www.w3.org/2000/svg" viewBox="0 0 57.6 28.6">
  <defs>
    <style>
      .cls-1 {
        stroke: #fff;
        stroke-miterlimit: 10;
        stroke-width: .25px;
      }
    </style>
  </defs>
  <g id="Layer_1-2" data-name="Layer 1">
    <g>
      <path class="cls-1" d="M23.77,18.2c-1.23,0-2.41-.47-3.31-1.31-.03-.03-.08-.07-.15-.13h0c-.96-.78-1.7-1.81-2.15-2.97-.18-.55-.31-1.11-.36-1.69-.18-1.52-1.01-2.71-2.14-3.04-.79-.26-1.55-.6-2.28-1-.62-.32-1.33-.68-2.13-1-.34-.14-.72-.28-1.12-.42h0C6.78,5.56,3.77,3.57,1.47.88c-.07-.09-.17-.14-.28-.15-.11,0-.21.06-.28.15-.15.19-.2.43-.16.66.08.59.2,1.16.38,1.72.85,2.68,2.94,4.77,5.6,5.64l1.32.4-1.37.19c-.25.04-.5.06-.76.06-.62,0-1.24-.07-1.84-.24-.6-.18-1.18-.44-1.71-.77-.02-.01-.04-.02-.07-.02-.06,0-.1.04-.13.09-.09.15-.11.33-.05.5.36,1.08.93,2.08,1.66,2.95,1.28,1.53,3.17,2.4,5.16,2.38.12,0,.22,0,.28-.01l1.35-.1-1.18.67c-.88.5-1.87.78-2.88.81-.17,0-.35,0-.54-.01h0s-.07,0-.1,0c-.26,0-.42.1-.46.28-.09.34.22,1.15,1.43,1.84h0c1.1.63,2.34.95,3.61.93.33,0,.66-.04.99-.09l.71-.12-.41.59h0c-.36.53-.82.98-1.36,1.31-.09.06-.14.24-.1.47h0c.17.82.78,1.47,1.58,1.69.5.15,1.01.22,1.53.21.79-.02,1.57-.21,2.27-.57l.51-.25-.07.57c-.06.46-.21.9-.46,1.3-.18.23-.23.53-.13.8.15.22.41.35.67.33.08,0,.17,0,.25,0h0c.62-.01,1.24-.17,1.8-.45l.57-.28-.14.62c-.08.38-.22.75-.4,1.09-.1.18-.11.4-.02.59.03.08.11.12.19.11.8-.09,1.53-.49,2.04-1.12l.32-.38.19.46c.17.43.24.9.21,1.36-.04.24.01.5.15.71.03.04.08.06.13.06.1-.01.2-.05.28-.11.5-.35.9-.84,1.15-1.4l.25-.53.29.51h0c.17.31.3.63.37.97.02.09.11.12.19.13.41-.39,1.84-3.26,1.49-5.6-.22-1.44-1.38-3.51-1.74-3.64Z"/>
      <path class="cls-1" d="M23.79,17.59h-.07c-1.05-.01-2.05-.42-2.82-1.13h0s-.1-.09-.19-.17c-.89-.72-1.56-1.65-1.97-2.72-.17-.5-.28-1.02-.33-1.55h0c-.2-1.76-1.21-3.16-2.57-3.56-.75-.25-1.48-.57-2.18-.96-.63-.32-1.35-.69-2.18-1.02-.35-.15-.73-.28-1.14-.43C7.08,5.02,4.16,3.08,1.92.47c-.18-.22-.46-.35-.74-.35-.28.01-.55.14-.73.36C.19.81.08,1.22.14,1.63c.08.62.22,1.23.4,1.83.75,2.37,2.41,4.34,4.62,5.46-.31-.04-.62-.1-.92-.18-.55-.16-1.08-.4-1.56-.7-.12-.07-.26-.11-.4-.12-.25.01-.48.14-.62.35-.2.31-.25.7-.13,1.05.39,1.15.99,2.22,1.78,3.14,1.16,1.38,2.78,2.28,4.56,2.53-.45.14-.91.21-1.38.22h0c-.15,0-.31,0-.48-.02-.06,0-.11,0-.16,0-.48-.03-.91.28-1.04.74-.17.67.3,1.71,1.73,2.52,1.19.68,2.55,1.03,3.92,1.01h0c.11,0,.21,0,.32-.02-.21.22-.46.42-.72.59-.33.24-.48.66-.39,1.07.2,1.05.98,1.91,2.01,2.2.56.17,1.14.25,1.72.24.67-.01,1.34-.14,1.96-.38-.06.17-.14.33-.23.48-.31.41-.37.95-.16,1.42.24.42.7.68,1.18.66h0c.1,0,.2,0,.29,0,.49,0,.98-.09,1.44-.25-.05.11-.09.21-.15.32-.21.37-.21.83,0,1.2.16.27.46.43.77.41.77-.07,1.5-.4,2.07-.94.03.2.04.4.03.61-.06.42.05.84.31,1.18.15.16.35.25.57.25h.02c.22-.01.43-.09.61-.22.42-.29.77-.67,1.05-1.09.03.09.05.18.07.27.1.39.47.64.87.61.17-.02.32-.12.42-.26.58-.7,1.95-3.61,1.58-6.04-.2-1.31-1.47-4.15-2.32-4.15ZM24.02,27.43c-.09,0-.18-.04-.19-.13-.07-.34-.2-.67-.37-.97h0s-.29-.51-.29-.51l-.25.53c-.26.56-.65,1.04-1.15,1.4-.08.06-.17.1-.28.11-.05,0-.1-.02-.13-.06-.14-.21-.2-.46-.15-.71.04-.46-.03-.93-.21-1.36l-.19-.46-.32.38c-.51.62-1.24,1.02-2.04,1.12-.08.01-.16-.04-.19-.11-.09-.19-.09-.41.02-.59.19-.34.32-.71.4-1.09l.14-.62-.57.28c-.56.29-1.17.44-1.8.45h0c-.08,0-.16,0-.25,0-.27.02-.52-.11-.67-.33-.1-.27-.05-.58.13-.8.24-.39.4-.84.46-1.3l.07-.57-.51.25c-.71.35-1.48.55-2.27.57-.52.01-1.04-.06-1.53-.21-.8-.22-1.41-.88-1.58-1.69h0c-.03-.22.01-.41.1-.47.54-.34,1-.79,1.36-1.31h0l.41-.59-.71.12c-.33.06-.65.08-.99.09-1.27.02-2.51-.3-3.61-.93h0c-1.21-.69-1.52-1.49-1.43-1.83.04-.18.2-.27.46-.28.03,0,.07,0,.1,0h0c.18.01.36.02.54.02,1.01-.03,2-.3,2.88-.81l1.18-.67-1.35.1c-.06,0-.16.01-.28.01-1.99.02-3.89-.86-5.16-2.38-.73-.87-1.3-1.87-1.66-2.95-.06-.17-.04-.35.05-.5.03-.05.07-.09.13-.09.02,0,.05.01.07.02.53.34,1.11.6,1.71.77.6.17,1.22.25,1.84.24.25,0,.51-.03.76-.06l1.37-.19-1.32-.4c-2.66-.87-4.74-2.96-5.6-5.64-.18-.56-.31-1.14-.38-1.72-.04-.23.02-.47.16-.66.07-.09.17-.14.28-.15.11,0,.21.06.28.15,2.3,2.69,5.31,4.68,8.68,5.75h0c.4.15.77.28,1.12.42.8.33,1.51.69,2.13,1,.73.4,1.49.73,2.28,1,1.12.33,1.96,1.52,2.14,3.04.06.58.18,1.14.36,1.69.44,1.16,1.18,2.19,2.15,2.97h0c.07.06.12.1.15.13.9.84,2.08,1.31,3.31,1.31.35.14,1.52,2.2,1.74,3.64.35,2.34-1.08,5.21-1.49,5.6Z"/>
      <path class="cls-1" d="M56.42.74h0c-.11,0-.21.06-.28.15-2.3,2.69-5.3,4.68-8.67,5.75-.4.14-.77.28-1.12.42-.8.33-1.51.69-2.13,1-.73.4-1.49.74-2.28,1-1.12.33-1.96,1.52-2.14,3.04-.06.58-.18,1.14-.36,1.69-.44,1.16-1.18,2.19-2.15,2.97-.07.06-.12.1-.15.13h0c-.9.85-2.09,1.32-3.33,1.32-.33.13-1.49,2.19-1.71,3.64-.35,2.34,1.08,5.21,1.48,5.6.09,0,.18-.04.19-.13h0c.07-.34.2-.67.37-.97l.29-.51.25.53c.26.56.65,1.04,1.15,1.4.08.06.17.1.28.11.05,0,.1-.02.13-.06.14-.21.2-.46.15-.71-.04-.46.03-.93.21-1.36l.19-.46.32.38c.5.62,1.23,1.02,2.02,1.12.08,0,.17-.04.21-.11.09-.19.09-.41-.02-.59-.19-.34-.32-.71-.41-1.09l-.13-.62.57.28c.56.28,1.17.44,1.8.45.08,0,.17,0,.25,0h0c.27.02.52-.11.67-.33.1-.27.05-.58-.13-.8-.24-.39-.4-.84-.46-1.3l-.07-.57.51.25c.71.35,1.48.55,2.27.57.52.01,1.04-.06,1.53-.21.8-.22,1.41-.88,1.58-1.69.03-.22-.01-.41-.1-.47h0c-.54-.34-1-.79-1.36-1.31l-.41-.59.71.12c.33.05.65.08.99.09,1.27.03,2.51-.3,3.61-.93,1.21-.69,1.52-1.49,1.43-1.83-.04-.18-.2-.28-.46-.28-.03,0-.07,0-.11,0-.18.02-.36.02-.53.02h0c-1.01-.02-2.01-.3-2.88-.81l-1.18-.67,1.35.1c.06,0,.16.01.28.01,1.99.02,3.88-.86,5.17-2.38.73-.87,1.3-1.87,1.66-2.95.06-.17.04-.35-.05-.5-.03-.05-.08-.08-.13-.09-.02,0-.04,0-.07.02-.53.34-1.11.6-1.71.77-.84.24-1.73.31-2.6.18l-1.37-.19,1.32-.4c2.66-.87,4.74-2.97,5.6-5.64.18-.56.31-1.14.38-1.72.04-.23-.02-.47-.16-.66-.07-.09-.17-.14-.28-.15Z"/>
      <path class="cls-1" d="M57.16.49c-.18-.22-.45-.35-.73-.36-.29,0-.56.12-.74.35-2.24,2.61-5.16,4.55-8.43,5.59-.41.15-.79.28-1.14.43-.83.34-1.54.7-2.18,1.02-.69.38-1.42.71-2.17.96-1.36.4-2.37,1.8-2.57,3.56-.05.52-.16,1.04-.33,1.55-.41,1.07-1.09,2-1.97,2.72h0c-.08.07-.15.13-.19.17-.77.72-1.78,1.12-2.83,1.13h-.07c-.84,0-2.11,2.84-2.31,4.15-.37,2.44,1,5.35,1.58,6.04.1.15.25.24.43.26.4.04.76-.22.86-.61.02-.09.04-.19.07-.27.28.43.64.8,1.05,1.09.18.13.39.21.61.22h.02c.22,0,.42-.09.57-.25.26-.33.37-.76.31-1.17-.02-.21,0-.41.03-.61.58.54,1.32.88,2.11.94.3.01.58-.15.73-.41.2-.37.2-.83,0-1.2-.06-.1-.11-.21-.15-.32.46.16.95.24,1.43.25h0c.09,0,.19,0,.29,0,.49.02.94-.23,1.18-.66.21-.47.15-1.01-.16-1.42-.1-.15-.17-.31-.23-.48.63.24,1.29.37,1.96.38.58.01,1.16-.07,1.72-.24,1.03-.29,1.81-1.14,2.01-2.2.1-.4-.06-.82-.39-1.07-.26-.17-.5-.36-.72-.58.1,0,.21.01.32.01,1.37.03,2.73-.32,3.92-1.01,1.43-.81,1.9-1.85,1.73-2.52-.13-.46-.56-.77-1.03-.74-.05,0-.1,0-.17,0-.16.02-.32.02-.48.02-.47-.01-.93-.08-1.38-.22,1.78-.25,3.4-1.15,4.56-2.53.78-.92,1.39-1.99,1.78-3.14.13-.35.08-.74-.12-1.05-.14-.21-.37-.35-.62-.36-.14,0-.28.04-.4.12-.48.31-1.01.54-1.56.7-.3.09-.61.15-.92.18,2.21-1.12,3.87-3.09,4.62-5.46.19-.59.33-1.21.41-1.83.06-.41-.05-.82-.3-1.14ZM56.48,3.27c-.85,2.67-2.94,4.77-5.6,5.64l-1.32.4,1.37.19c.87.12,1.76.06,2.6-.18.61-.18,1.18-.44,1.71-.77.02-.01.04-.02.07-.02.06,0,.1.04.13.09.09.15.11.33.05.5-.37,1.08-.93,2.08-1.66,2.95-1.28,1.53-3.18,2.4-5.17,2.38-.12,0-.22,0-.28-.01l-1.35-.1,1.18.67c.88.5,1.87.78,2.88.81h0c.17,0,.35,0,.53-.02.04,0,.07,0,.11,0,.26,0,.41.1.46.28.09.34-.22,1.15-1.43,1.83-1.09.64-2.34.96-3.61.93-.33,0-.66-.04-.99-.09l-.71-.12.41.59c.36.53.82.98,1.36,1.31h0c.09.06.13.24.1.47-.17.82-.78,1.47-1.58,1.69-.5.15-1.01.22-1.53.21-.79-.02-1.57-.21-2.27-.57l-.51-.25.07.57c.06.46.21.9.46,1.3.18.23.23.53.13.8-.15.22-.4.35-.67.33h0c-.08,0-.17,0-.25,0-.62-.01-1.24-.17-1.8-.45l-.57-.28.13.62c.08.38.22.75.41,1.09.1.18.11.4.02.59-.04.08-.12.12-.21.11-.79-.09-1.52-.49-2.02-1.12l-.32-.38-.19.46c-.17.43-.24.9-.21,1.36.04.24-.01.5-.15.71-.03.04-.08.06-.13.06-.1-.01-.2-.05-.28-.11-.5-.35-.9-.84-1.15-1.4l-.25-.53-.29.51c-.17.3-.3.63-.37.97h0c-.02.09-.1.12-.19.13-.41-.39-1.84-3.26-1.48-5.6.22-1.44,1.38-3.51,1.71-3.64,1.24,0,2.43-.47,3.33-1.31h0s.08-.08.15-.13c.96-.78,1.7-1.81,2.15-2.97.18-.55.31-1.11.36-1.69.18-1.52,1.01-2.71,2.14-3.04.79-.26,1.55-.6,2.28-1,.62-.32,1.33-.68,2.13-1,.35-.14.72-.28,1.12-.42,3.37-1.08,6.37-3.07,8.67-5.75.07-.08.17-.14.28-.15h0c.11,0,.21.06.28.15.15.19.2.43.16.66-.08.59-.2,1.16-.38,1.72Z"/>
    </g>
  </g>
</svg>