<?xml version="1.0" encoding="UTF-8"?>
<svg id="Layer_2" data-name="Layer 2" xmlns="http://www.w3.org/2000/svg" viewBox="0 0 19.4 28.35">
  <defs>
    <style>
      .cls-1 {
        fill: #231f20;
      }
    </style>
  </defs>
  <g id="Layer_1-2" data-name="Layer 1">
    <g id="_5e8517d363" data-name="5e8517d363">
      <g>
        <path class="cls-1" d="M19.01,6.49v4.52h-6.69c-.2,0-.36.16-.36.36v16.58h-4.52V11.37c0-.2-.16-.36-.36-.36H.39v-4.52h6.68c.2,0,.36-.16.36-.36V.39h4.52v5.73c0,.2.16.36.36.36h6.69Z"/>
        <path class="cls-1" d="M12.35,28.35h-5.31V11.37l-7.05.03v-5.31h7.08l-.03-6.1h5.31v6.13l7.05-.03v5.31h-7.08l.03,16.94ZM7.84,27.56h3.73V11.37c0-.42.34-.76.76-.76h6.29v-3.73h-6.29c-.42,0-.76-.34-.76-.76V.79h-3.73v5.34c0,.42-.34.76-.76.76H.79v3.73h6.29c.42,0,.76.34.76.76v16.19Z"/>
      </g>
    </g>
  </g>
</svg>