<?xml version="1.0" encoding="UTF-8"?>
<svg id="Layer_2" data-name="Layer 2" xmlns="http://www.w3.org/2000/svg" viewBox="0 0 28.35 12.95">
  <defs>
    <style>
      .cls-1 {
        fill: #231f20;
      }

      .cls-2 {
        fill: #fff;
      }
    </style>
  </defs>
  <g id="Layer_1-2" data-name="Layer 1">
    <g id="_4bf737c1c4" data-name="4bf737c1c4">
      <g>
        <g>
          <path class="cls-1" d="M6.96,3.39c1.92-.76,4.48-1.17,7.21-1.17s5.29.42,7.21,1.17c1.83.72,2.88,1.69,2.88,2.67,0,.24-.07.47-.19.71-.56-.84-1.73-1.6-3.36-2.15-1.83-.62-4.16-.96-6.54-.96s-4.72.34-6.55.96c-1.62.55-2.8,1.31-3.36,2.15-.12-.24-.18-.47-.18-.71,0-.98,1.05-1.95,2.88-2.67Z"/>
          <path class="cls-2" d="M4.25,7.06l-.11-.23c-.13-.27-.2-.53-.2-.78,0-1.04,1.08-2.06,2.98-2.8,1.93-.76,4.51-1.18,7.26-1.18s5.33.42,7.27,1.18c1.89.74,2.98,1.76,2.98,2.8,0,.26-.07.52-.21.78l-.12.22-.14-.21c-.55-.82-1.68-1.55-3.28-2.09-1.82-.62-4.12-.96-6.5-.96s-4.68.34-6.5.96c-1.58.54-2.74,1.28-3.28,2.09l-.14.21ZM14.17,3.5c2.41,0,4.75.34,6.59.97,1.53.52,2.65,1.21,3.28,2,.05-.14.07-.28.07-.42,0-.91-1.02-1.83-2.79-2.53-1.9-.75-4.44-1.16-7.16-1.16s-5.26.41-7.16,1.16h0c-1.77.69-2.79,1.62-2.79,2.53,0,.13.02.27.07.41.63-.79,1.75-1.47,3.27-1.99,1.85-.63,4.2-.97,6.6-.97Z"/>
        </g>
        <g>
          <path class="cls-1" d="M4.5,2.36c2.58-1.14,6.02-1.77,9.67-1.77s7.09.63,9.67,1.77c2.52,1.11,3.91,2.57,3.91,4.11s-1.39,3-3.91,4.12h0c-2.57,1.14-6.01,1.77-9.66,1.77s-7.09-.63-9.67-1.77c-2.52-1.11-3.91-2.58-3.91-4.12s1.39-2.99,3.91-4.11ZM14.17,1.76c-2.78,0-5.4.43-7.38,1.21-2.04.8-3.16,1.89-3.16,3.08s1.12,2.28,3.16,3.07c1.97.78,4.59,1.21,7.38,1.21s5.4-.43,7.38-1.21c2.04-.8,3.16-1.89,3.16-3.07s-1.12-2.28-3.16-3.08c-1.97-.78-4.59-1.21-7.38-1.21Z"/>
          <path class="cls-2" d="M14.17,12.51c-3.68,0-7.14-.63-9.73-1.78C1.86,9.59.44,8.08.44,6.47S1.86,3.37,4.44,2.23l.06.14-.06-.14C7.04,1.08,10.49.45,14.17.45s7.14.63,9.73,1.78c2.58,1.14,3.99,2.65,3.99,4.25s-1.42,3.11-3.99,4.25h-.04c-2.58,1.15-6.03,1.78-9.7,1.78ZM4.56,2.5C2.1,3.59.74,5,.74,6.47s1.36,2.89,3.82,3.98c2.56,1.13,5.97,1.76,9.61,1.76s7.05-.62,9.6-1.76h.04c2.44-1.1,3.79-2.51,3.79-3.98s-1.36-2.89-3.82-3.97c-2.56-1.13-5.97-1.76-9.61-1.76s-7.05.62-9.61,1.76h0ZM14.17,10.48c-2.8,0-5.44-.43-7.43-1.22-2.1-.82-3.25-1.96-3.25-3.21s1.16-2.39,3.25-3.22c1.99-.79,4.63-1.22,7.43-1.22s5.44.43,7.43,1.22c2.1.83,3.25,1.97,3.25,3.22s-1.16,2.39-3.25,3.21c-1.99.79-4.63,1.22-7.43,1.22ZM14.17,1.91c-2.77,0-5.37.43-7.32,1.2-1.98.78-3.07,1.83-3.07,2.94s1.09,2.16,3.07,2.94c1.96.77,4.56,1.2,7.32,1.2s5.36-.43,7.32-1.2c1.98-.77,3.07-1.82,3.07-2.94s-1.09-2.16-3.07-2.94c-1.95-.77-4.56-1.2-7.32-1.2Z"/>
        </g>
        <g>
          <path class="cls-1" d="M6.96,8.72c1.93.75,4.49,1.17,7.22,1.17s5.29-.42,7.21-1.17c1.12-.44,1.95-.98,2.42-1.55-.45-.82-1.58-1.57-3.23-2.13-1.79-.6-4.06-.94-6.41-.94s-4.62.34-6.41.94c-1.64.56-2.78,1.31-3.23,2.13.47.57,1.3,1.11,2.41,1.55ZM6.8,2.97c1.97-.78,4.59-1.21,7.38-1.21s5.4.43,7.38,1.21c2.04.8,3.16,1.89,3.16,3.08s-1.12,2.28-3.16,3.07c-1.97.78-4.59,1.21-7.38,1.21s-5.4-.43-7.38-1.21c-2.04-.8-3.16-1.89-3.16-3.07s1.12-2.28,3.16-3.08ZM7.62,4.61c1.83-.62,4.16-.96,6.55-.96s4.72.34,6.54.96c1.63.55,2.8,1.31,3.36,2.15.13-.24.19-.47.19-.71,0-.98-1.05-1.95-2.88-2.67-1.92-.76-4.49-1.17-7.21-1.17s-5.29.42-7.21,1.17c-1.83.72-2.88,1.69-2.88,2.67,0,.24.07.47.18.71.56-.84,1.73-1.6,3.36-2.15Z"/>
          <path class="cls-2" d="M14.17,10.48c-2.8,0-5.44-.43-7.43-1.22-2.1-.82-3.25-1.96-3.25-3.21s1.16-2.39,3.25-3.22h0c1.99-.79,4.63-1.22,7.43-1.22s5.44.43,7.43,1.22c2.1.83,3.25,1.97,3.25,3.22s-1.16,2.39-3.25,3.21c-1.99.79-4.63,1.22-7.43,1.22ZM14.17,1.91c-2.77,0-5.37.43-7.32,1.2h0c-1.98.78-3.07,1.83-3.07,2.94s1.09,2.16,3.07,2.94c1.96.77,4.56,1.2,7.32,1.2s5.36-.43,7.32-1.2c1.98-.77,3.07-1.82,3.07-2.94s-1.09-2.16-3.07-2.94c-1.95-.77-4.56-1.2-7.32-1.2ZM14.17,10.03c-2.74,0-5.33-.42-7.27-1.18h0c-1.12-.45-1.98-1-2.47-1.59l-.06-.08.05-.09c.46-.85,1.63-1.63,3.31-2.2,1.82-.61,4.11-.94,6.45-.94s4.64.34,6.45.94c1.67.57,2.84,1.35,3.31,2.2l.05.09-.06.08c-.5.6-1.35,1.15-2.48,1.59-1.94.76-4.52,1.18-7.27,1.18ZM7.01,8.58c1.91.75,4.46,1.16,7.16,1.16s5.25-.41,7.16-1.16c1.03-.41,1.82-.9,2.29-1.43-.46-.75-1.55-1.45-3.09-1.97-1.78-.6-4.04-.93-6.36-.93s-4.57.33-6.36.93c-1.54.53-2.64,1.23-3.09,1.97.47.53,1.26,1.02,2.29,1.43ZM4.25,7.06l-.11-.23c-.13-.27-.2-.53-.2-.78,0-1.04,1.08-2.06,2.98-2.8,1.93-.76,4.51-1.18,7.26-1.18s5.33.42,7.27,1.18c1.89.74,2.98,1.76,2.98,2.8,0,.26-.07.52-.21.78l-.12.22-.14-.21c-.55-.82-1.68-1.55-3.28-2.09-1.82-.62-4.12-.96-6.5-.96s-4.68.34-6.5.96h0c-1.58.54-2.74,1.28-3.28,2.09l-.14.21ZM14.17,3.5c2.41,0,4.75.34,6.59.97,1.53.52,2.65,1.21,3.28,2,.05-.14.07-.28.07-.42,0-.91-1.02-1.83-2.79-2.53-1.9-.75-4.44-1.16-7.16-1.16s-5.26.41-7.16,1.16c-1.77.69-2.79,1.62-2.79,2.53,0,.13.02.27.07.41.63-.79,1.75-1.47,3.27-1.99h0c1.85-.63,4.19-.97,6.6-.97Z"/>
        </g>
        <g>
          <path class="cls-1" d="M14.17.6c-3.65,0-7.09.63-9.67,1.77C1.98,3.48.59,4.94.59,6.47s1.39,3,3.91,4.12c2.58,1.14,6.02,1.77,9.67,1.77s7.09-.63,9.66-1.77h0c2.52-1.11,3.91-2.58,3.91-4.12s-1.39-2.99-3.91-4.11c-2.58-1.14-6.02-1.77-9.67-1.77ZM24.02,1.96c2.69,1.19,4.18,2.8,4.18,4.52s-1.48,3.33-4.18,4.52c-2.63,1.17-6.14,1.81-9.85,1.81s-7.22-.64-9.85-1.81C1.63,9.81.15,8.2.15,6.47S1.63,3.15,4.32,1.96C6.96.79,10.45.15,14.17.15s7.22.65,9.85,1.81Z"/>
          <path class="cls-2" d="M14.17,12.95c-3.74,0-7.26-.65-9.91-1.82C1.51,9.92,0,8.27,0,6.47S1.51,3.04,4.26,1.82C6.93.65,10.44,0,14.17,0s7.25.65,9.91,1.82h0c2.75,1.22,4.26,2.87,4.26,4.65s-1.51,3.44-4.26,4.65c-2.65,1.17-6.17,1.82-9.91,1.82ZM14.17.3c-3.69,0-7.17.64-9.79,1.79C1.75,3.26.3,4.81.3,6.47s1.45,3.22,4.09,4.38c2.61,1.16,6.09,1.79,9.79,1.79s7.18-.64,9.79-1.79c2.64-1.16,4.09-2.72,4.09-4.38s-1.45-3.21-4.09-4.38h0c-2.62-1.16-6.1-1.79-9.79-1.79ZM14.17,12.51c-3.68,0-7.14-.63-9.73-1.78C1.86,9.59.44,8.08.44,6.47S1.86,3.37,4.44,2.23C7.04,1.08,10.49.45,14.17.45s7.14.63,9.73,1.78c2.58,1.14,3.99,2.65,3.99,4.25s-1.42,3.11-3.99,4.25h-.04c-2.58,1.15-6.03,1.78-9.7,1.78ZM14.17.75c-3.64,0-7.05.62-9.61,1.76C2.1,3.59.74,5,.74,6.47s1.36,2.89,3.82,3.98c2.56,1.13,5.97,1.76,9.61,1.76s7.05-.62,9.6-1.76h.04c2.44-1.1,3.79-2.51,3.79-3.98s-1.36-2.89-3.82-3.97c-2.56-1.13-5.97-1.76-9.61-1.76Z"/>
        </g>
      </g>
    </g>
  </g>
</svg>