<?xml version="1.0" encoding="UTF-8"?>
<svg id="Layer_2" data-name="Layer 2" xmlns="http://www.w3.org/2000/svg" viewBox="0 0 28.35 12.79">
  <defs>
    <style>
      .cls-1 {
        fill: #fff;
      }

      .cls-2 {
        fill: #010101;
      }
    </style>
  </defs>
  <g id="Layer_1-2" data-name="Layer 1">
    <g id="_4bf737c1c4" data-name="4bf737c1c4">
      <g>
        <path class="cls-1" d="M6.89,3.27c1.94-.77,4.53-1.19,7.29-1.19s5.35.42,7.29,1.19c1.85.73,2.91,1.71,2.91,2.69,0,.24-.07.48-.19.72-.57-.85-1.75-1.61-3.39-2.17-1.85-.63-4.2-.97-6.61-.97s-4.77.35-6.62.97c-1.64.56-2.83,1.32-3.39,2.17-.12-.24-.19-.48-.19-.72,0-.99,1.06-1.97,2.91-2.69Z"/>
        <path class="cls-1" d="M4.4,2.24C7.01,1.09,10.48.45,14.17.45s7.17.63,9.77,1.79c2.55,1.13,3.95,2.6,3.95,4.15s-1.4,3.03-3.95,4.16h0c-2.6,1.15-6.07,1.79-9.77,1.79s-7.17-.63-9.77-1.79C1.85,9.43.45,7.95.45,6.39s1.41-3.03,3.95-4.15ZM14.17,1.63c-2.81,0-5.46.43-7.45,1.22-2.06.81-3.19,1.91-3.19,3.11s1.13,2.3,3.19,3.11c1.99.79,4.64,1.22,7.45,1.22s5.46-.43,7.45-1.22c2.06-.81,3.19-1.91,3.19-3.11s-1.13-2.3-3.19-3.11c-1.99-.79-4.64-1.22-7.45-1.22Z"/>
        <path class="cls-2" d="M6.88,8.66c1.95.76,4.53,1.18,7.29,1.18s5.35-.42,7.29-1.18c1.13-.45,1.97-.99,2.45-1.57-.45-.83-1.6-1.59-3.26-2.15-1.81-.61-4.11-.95-6.47-.95s-4.67.34-6.47.95c-1.66.57-2.81,1.33-3.26,2.15.48.58,1.31,1.12,2.44,1.57ZM6.72,2.85c1.99-.79,4.64-1.22,7.45-1.22s5.46.43,7.45,1.22c2.06.81,3.19,1.91,3.19,3.11s-1.13,2.3-3.19,3.11c-1.99.79-4.64,1.22-7.45,1.22s-5.46-.43-7.45-1.22c-2.06-.81-3.19-1.91-3.19-3.11s1.13-2.3,3.19-3.11ZM7.55,4.51c1.85-.63,4.2-.97,6.62-.97s4.77.35,6.61.97c1.65.56,2.83,1.32,3.39,2.17.13-.24.19-.48.19-.72,0-.99-1.06-1.97-2.91-2.69-1.94-.77-4.53-1.19-7.29-1.19s-5.35.42-7.29,1.19c-1.85.73-2.91,1.71-2.91,2.69,0,.24.07.48.19.72.57-.85,1.75-1.61,3.39-2.17Z"/>
        <path class="cls-2" d="M14.17.45c-3.69,0-7.17.63-9.77,1.79C1.85,3.37.45,4.84.45,6.39s1.41,3.03,3.95,4.16c2.61,1.15,6.08,1.79,9.77,1.79s7.17-.63,9.77-1.79h0c2.55-1.13,3.95-2.61,3.95-4.16s-1.4-3.03-3.95-4.15c-2.61-1.15-6.08-1.79-9.77-1.79ZM24.13,1.83c2.72,1.21,4.22,2.83,4.22,4.57s-1.5,3.37-4.22,4.57c-2.66,1.18-6.2,1.83-9.95,1.83s-7.29-.65-9.95-1.83C1.49,9.76,0,8.14,0,6.39S1.49,3.03,4.22,1.83C6.88.65,10.41,0,14.17,0s7.29.65,9.95,1.83Z"/>
      </g>
    </g>
  </g>
</svg>