<?xml version="1.0" encoding="UTF-8"?>
<svg id="Layer_2" data-name="Layer 2" xmlns="http://www.w3.org/2000/svg" viewBox="0 0 25.34 28.35">
  <defs>
    <style>
      .cls-1 {
        fill: #fff;
      }

      .cls-2 {
        fill: #010101;
      }
    </style>
  </defs>
  <g id="Layer_1-2" data-name="Layer 1">
    <g>
      <path class="cls-1" d="M24.4,11.54c0,.71-.57,1.29-1.28,1.29-.26,0-.51-.07-.73-.23-.15-.1-.35-.11-.5-.02-.15.09-.25.26-.23.44,0,.01,0,.07,0,.09,0,.71-.57,1.29-1.29,1.29s-1.23-.53-1.29-1.21c-.01-.25-.22-.44-.47-.44h-4.08c-.26,0-.47.21-.47.47v8.36c0,.13.05.26.15.35.1.09.23.13.36.12h.05s.04,0,.06,0c.71,0,1.29.58,1.29,1.3s-.59,1.3-1.29,1.3c-.08,0-.16-.01-.23-.03-.19-.03-.37.05-.48.21-.1.17-.1.37,0,.53.16.22.24.48.24.75,0,.71-.58,1.3-1.29,1.3s-1.29-.59-1.29-1.3c0-.26.07-.52.22-.73.1-.15.11-.35.02-.5-.08-.15-.24-.24-.41-.24h-.03s-.07.01-.08.01c-.71,0-1.29-.58-1.29-1.3,0-.68.53-1.24,1.21-1.29.25-.01.43-.22.43-.47v-8.36c0-.26-.21-.47-.47-.47h-4.54c-.13,0-.25.06-.35.15-.09.09-.13.23-.13.35,0,0,.01.07.01.09,0,.71-.58,1.3-1.29,1.3s-1.29-.59-1.29-1.3c0-.08,0-.16.02-.24.03-.19-.05-.38-.21-.48-.16-.11-.37-.1-.52,0-.22.15-.47.23-.74.23-.72,0-1.3-.58-1.3-1.3s.58-1.29,1.29-1.29c.25,0,.51.07.73.23.15.1.33.11.49.02.16-.09.25-.27.23-.44,0-.02,0-.07,0-.08,0-.72.58-1.3,1.29-1.3s1.25.55,1.28,1.25c.01.25.22.45.47.45h4.54c.26,0,.47-.21.47-.47v-3.15c0-.13-.05-.25-.15-.35-.09-.09-.22-.13-.35-.13,0,0-.08,0-.09,0-.71,0-1.29-.58-1.29-1.3s.59-1.29,1.29-1.29c.08,0,.16,0,.23.02.19.04.37-.05.48-.21s.1-.37,0-.53c-.15-.23-.23-.48-.23-.75,0-.72.58-1.3,1.29-1.3s1.29.58,1.29,1.3c0,.26-.08.51-.23.73-.1.15-.11.34-.02.5.09.15.26.25.44.23.03,0,.05,0,.08,0,.71,0,1.29.58,1.29,1.29s-.54,1.27-1.23,1.3c-.25,0-.45.21-.45.47v3.15c0,.26.21.47.47.47h4.08c.13,0,.26-.05.35-.15.09-.1.13-.23.12-.37v-.05s0-.04,0-.07c0-.72.58-1.3,1.29-1.3s1.29.58,1.29,1.3c0,.08-.01.16-.03.24-.03.19.05.38.21.49.16.1.37.09.53-.01.22-.15.47-.23.74-.23.71,0,1.29.58,1.29,1.3Z"/>
      <path class="cls-2" d="M23.12,12.83c.71,0,1.29-.58,1.28-1.29,0-.72-.58-1.3-1.29-1.3-.27,0-.52.08-.74.23-.16.11-.37.11-.53.01-.16-.11-.24-.29-.21-.49.01-.08.03-.16.03-.24,0-.72-.58-1.3-1.29-1.3s-1.29.58-1.29,1.3v.11c.02.13-.02.27-.11.37-.09.1-.21.15-.35.15h-4.08c-.25,0-.47-.21-.47-.47v-3.15c0-.25.2-.46.45-.47.69-.03,1.23-.6,1.23-1.3s-.57-1.29-1.29-1.29c-.03,0-.05,0-.08,0-.18.01-.35-.08-.44-.23-.09-.16-.08-.35.02-.5.15-.22.23-.47.23-.73,0-.72-.58-1.3-1.29-1.3s-1.29.58-1.29,1.3c0,.27.08.52.23.75.11.16.11.37,0,.53s-.29.25-.48.21c-.07-.01-.15-.02-.23-.02-.71,0-1.29.58-1.29,1.29s.58,1.3,1.29,1.3c0,0,.08,0,.09,0,.13,0,.25.04.35.13.1.09.15.21.15.35v3.15c0,.26-.21.47-.47.47h-4.54c-.25,0-.46-.2-.47-.45-.03-.7-.59-1.25-1.28-1.25s-1.29.58-1.29,1.3c0,.01,0,.06,0,.08.02.17-.07.35-.23.44-.16.09-.35.08-.49-.02-.22-.15-.47-.23-.73-.23-.71,0-1.29.58-1.29,1.29s.58,1.31,1.3,1.3c.27,0,.52-.08.74-.23.15-.11.36-.11.52,0,.16.1.24.29.21.48-.01.08-.02.16-.02.24,0,.71.58,1.3,1.29,1.3s1.29-.59,1.29-1.3c0-.01-.01-.08-.01-.09,0-.13.04-.26.13-.35.09-.09.21-.15.35-.15h4.54c.26,0,.47.21.47.47v8.36c0,.25-.19.45-.43.47-.67.05-1.21.61-1.21,1.29,0,.72.58,1.3,1.29,1.3.01,0,.07-.01.08-.01h.03c.17,0,.33.09.41.24.09.15.08.35-.02.5-.15.21-.22.47-.22.73,0,.71.58,1.3,1.29,1.3s1.29-.59,1.29-1.3c0-.27-.08-.53-.24-.75-.11-.16-.11-.37,0-.53.11-.16.29-.24.48-.21.07.01.15.03.23.03.71,0,1.29-.58,1.29-1.3s-.58-1.3-1.29-1.3c-.02,0-.04,0-.06,0h-.05c-.13.01-.26-.03-.36-.12-.1-.09-.15-.21-.15-.35v-8.36c0-.26.21-.47.47-.47h4.08c.25,0,.45.19.47.44.05.68.61,1.21,1.29,1.21.71,0,1.29-.58,1.29-1.29,0-.02,0-.07,0-.09-.01-.18.08-.35.23-.44.15-.09.35-.08.5.02.21.15.47.23.73.23ZM23.12,9.29c1.23,0,2.21,1.01,2.21,2.25s-1,2.25-2.23,2.25c-.2,0-.4-.03-.59-.08-.25.95-1.12,1.65-2.15,1.65s-1.89-.7-2.14-1.66h-3.21v7.42c1.09.15,1.92,1.09,1.92,2.22s-.79,2.03-1.83,2.21c.05.18.07.36.07.55,0,1.24-1,2.25-2.23,2.25s-2.23-1.01-2.23-2.25c0-.2.03-.4.07-.59-.94-.26-1.64-1.13-1.64-2.17s.69-1.9,1.65-2.15v-7.49h-3.63c-.17,1.07-1.09,1.89-2.2,1.89s-2.01-.8-2.19-1.85c-.17.05-.35.07-.54.07-1.23,0-2.23-1.01-2.23-2.25s1-2.24,2.23-2.24c.2,0,.39.03.59.08.25-.95,1.13-1.65,2.15-1.65s1.91.71,2.15,1.69h3.67v-2.22c-1.06-.17-1.88-1.1-1.88-2.22s.8-2.02,1.83-2.21c-.04-.18-.07-.36-.07-.55,0-1.24,1-2.25,2.23-2.25s2.23,1.01,2.23,2.25c0,.2-.03.4-.08.59.94.26,1.64,1.13,1.64,2.17s-.71,1.93-1.69,2.17v2.27h3.15c.15-1.09,1.08-1.93,2.21-1.93s2.01.8,2.19,1.85c.17-.05.35-.07.55-.07Z"/>
    </g>
  </g>
</svg>