<?xml version="1.0" encoding="UTF-8"?>
<svg id="Layer_2" data-name="Layer 2" xmlns="http://www.w3.org/2000/svg" viewBox="0 0 25.42 28.35">
  <defs>
    <style>
      .cls-1 {
        fill: #231f20;
      }

      .cls-2 {
        fill: #fff;
      }
    </style>
  </defs>
  <g id="Layer_1-2" data-name="Layer 1">
    <g>
      <path class="cls-2" d="M22.88,9.43c-.19,0-.36.03-.53.07-.18-1.02-1.07-1.8-2.13-1.8s-2,.82-2.15,1.88h-3.07v-2.21c.95-.24,1.64-1.09,1.64-2.11s-.68-1.86-1.6-2.11c.05-.18.08-.38.08-.57,0-1.21-.97-2.19-2.17-2.19s-2.17.98-2.17,2.19c0,.18.03.36.06.53-1.01.18-1.78,1.08-1.78,2.15s.8,1.99,1.83,2.16v2.16h-3.57c-.23-.95-1.08-1.65-2.1-1.65s-1.85.69-2.1,1.61c-.19-.05-.38-.08-.57-.08-1.2,0-2.17.98-2.17,2.18s.97,2.19,2.17,2.19c.18,0,.36-.03.53-.07.18,1.02,1.08,1.8,2.13,1.8s1.98-.8,2.14-1.84h3.53v7.28c-.93.25-1.6,1.1-1.6,2.1s.68,1.86,1.6,2.11c-.05.19-.07.38-.07.58,0,1.21.97,2.19,2.17,2.19s2.17-.98,2.17-2.19c0-.18-.03-.36-.07-.53,1.01-.18,1.78-1.08,1.78-2.15s-.81-2.01-1.87-2.16v-7.21h3.13c.25.93,1.1,1.62,2.08,1.62s1.85-.69,2.09-1.61c.19.05.38.08.58.08,1.19,0,2.17-.98,2.17-2.19s-.96-2.19-2.15-2.19Z"/>
      <path class="cls-1" d="M12.98,28.35c-1.41,0-2.56-1.15-2.56-2.57,0-.11,0-.21.02-.32-.92-.4-1.54-1.33-1.54-2.36s.65-1.99,1.6-2.38v-6.62h-2.83c-.32,1.07-1.32,1.84-2.45,1.84s-2.07-.71-2.42-1.74c-1.5.16-2.8-1.06-2.8-2.56,0-1.42,1.15-2.57,2.56-2.57.11,0,.21,0,.31.02.4-.93,1.32-1.55,2.35-1.55s2.01.66,2.38,1.65h2.89v-1.46c-1.08-.32-1.83-1.31-1.83-2.47s.71-2.08,1.73-2.43c0-.08-.01-.16-.01-.25,0-1.42,1.15-2.58,2.56-2.58s2.56,1.16,2.56,2.58c0,.11,0,.21-.02.32.92.4,1.54,1.33,1.54,2.36s-.66,2.02-1.64,2.4v1.54h2.36c.31-1.09,1.31-1.88,2.46-1.88s2.07.71,2.42,1.74c1.46-.15,2.79,1.06,2.79,2.56s-1.37,2.75-2.87,2.56c-.39.93-1.31,1.55-2.35,1.55s-1.98-.65-2.36-1.62h-2.46v6.51c1.09.31,1.87,1.32,1.87,2.47s-.71,2.09-1.73,2.44c0,.08.01.17.01.25,0,1.42-1.15,2.57-2.56,2.57ZM7.03,13.32h4.25v7.97l-.29.08c-.77.21-1.31.91-1.31,1.72s.54,1.52,1.31,1.73l.36.1-.09.37c-.04.17-.06.33-.06.49,0,.99.8,1.8,1.78,1.8s1.78-.81,1.78-1.8c0-.14-.02-.28-.06-.43l-.1-.41.41-.07c.85-.15,1.46-.9,1.46-1.77s-.66-1.65-1.53-1.77l-.33-.05v-7.94h3.82l.08.29c.21.78.91,1.33,1.71,1.33s1.51-.54,1.71-1.32l.1-.38.38.1c.15.04.31.06.47.06.98,0,1.78-.81,1.78-1.8,0-1.14-1.07-2.04-2.19-1.74l-.41.11-.07-.42c-.15-.86-.89-1.48-1.75-1.48s-1.64.66-1.76,1.55l-.05.33h-3.79v-2.9l.29-.07c.79-.2,1.35-.91,1.35-1.74s-.54-1.52-1.31-1.73l-.38-.1.11-.38c.04-.14.06-.31.06-.46,0-.99-.8-1.8-1.78-1.8s-1.78.81-1.78,1.8c0,.14.02.28.06.45l.09.4-.4.07c-.83.15-1.46.91-1.46,1.76s.65,1.64,1.5,1.78l.33.05v2.88h-4.26l-.07-.3c-.19-.8-.9-1.35-1.72-1.35s-1.51.54-1.72,1.32l-.1.38-.38-.11c-1.11-.3-2.25.58-2.25,1.73,0,1.13,1.07,2.05,2.21,1.74l.41-.11.07.42c.15.84.9,1.48,1.75,1.48s1.62-.65,1.76-1.51l.05-.33Z"/>
    </g>
  </g>
</svg>