<?xml version="1.0" encoding="UTF-8"?>
<svg id="Layer_2" data-name="Layer 2" xmlns="http://www.w3.org/2000/svg" viewBox="0 0 24.56 28.35">
  <defs>
    <style>
      .cls-1 {
        fill: #231f20;
      }
    </style>
  </defs>
  <g id="Layer_1-2" data-name="Layer 1">
    <g id="d89f4c7053">
      <path class="cls-1" d="M23.46,24.29c-1.12.29-2.28.44-3.45.44-5.08,0-9.72-2.78-12.11-7.26-3-5.63-1.76-12.5,3.01-16.72l.85-.75-1.1.29c-1.09.28-2.13.69-3.11,1.21C.61,5.2-2.02,13.85,1.67,20.79c2.48,4.66,7.31,7.56,12.59,7.56,2.32,0,4.64-.58,6.7-1.68.98-.52,1.9-1.16,2.74-1.91l.85-.75-1.1.29Z"/>
      <path class="cls-1" d="M14.75,16.23l2.57-1.35,2.57,1.35-.49-2.86,2.08-2.03-2.87-.42-1.29-2.6-1.29,2.6-2.88.42,2.08,2.03-.49,2.86Z"/>
    </g>
  </g>
</svg>