<?xml version="1.0" encoding="UTF-8"?>
<svg id="Layer_2" data-name="Layer 2" xmlns="http://www.w3.org/2000/svg" viewBox="0 0 25.39 28.35">
  <defs>
    <style>
      .cls-1 {
        fill: #231f20;
      }

      .cls-2 {
        fill: #fff;
      }
    </style>
  </defs>
  <g id="Layer_1-2" data-name="Layer 1">
    <g>
      <g>
        <path class="cls-2" d="M22.88,24.08c-1.08.28-2.19.42-3.31.42-4.87,0-9.32-2.67-11.62-6.96-2.88-5.4-1.69-11.99,2.89-16.04l.82-.72-1.05.28c-1.04.27-2.05.66-2.99,1.16C.97,5.77-1.56,14.06,1.99,20.72c2.38,4.47,7.01,7.25,12.08,7.25,2.23,0,4.45-.56,6.42-1.61.94-.5,1.83-1.12,2.63-1.83l.82-.72-1.06.28Z"/>
        <path class="cls-1" d="M14.06,28.35c-5.21,0-9.97-2.85-12.42-7.45C-2,14.06.6,5.53,7.44,1.88c.97-.52,2-.92,3.07-1.2l2.61-.68-2.02,1.79c-4.44,3.93-5.6,10.33-2.8,15.57,2.23,4.17,6.55,6.76,11.28,6.76,1.08,0,2.16-.14,3.21-.41l2.61-.68-2.02,1.79c-.83.73-1.74,1.36-2.71,1.88-2.03,1.08-4.31,1.66-6.6,1.66ZM10.21,1.57c-.84.25-1.64.58-2.41.99C1.34,6-1.12,14.07,2.33,20.54c2.32,4.34,6.81,7.04,11.74,7.04,2.16,0,4.32-.54,6.24-1.57.76-.41,1.49-.89,2.17-1.45-.95.21-1.92.32-2.9.32-5.01,0-9.6-2.75-11.95-7.17-2.88-5.4-1.8-11.97,2.59-16.15Z"/>
      </g>
      <g>
        <polygon class="cls-2" points="14.53 16.35 16.99 15.05 19.46 16.35 18.99 13.6 20.98 11.66 18.23 11.25 16.99 8.76 15.76 11.25 13 11.66 15 13.6 14.53 16.35"/>
        <path class="cls-1" d="M19.97,17.05l-2.98-1.56-2.98,1.56.57-3.31-2.41-2.35,3.33-.48,1.49-3.01,1.49,3.01,3.33.48-2.41,2.35.57,3.31ZM16.99,14.62l1.96,1.03-.37-2.18,1.58-1.54-2.19-.32-.98-1.98-.98,1.98-2.19.32,1.58,1.54-.37,2.18,1.96-1.03Z"/>
      </g>
    </g>
  </g>
</svg>