<?xml version="1.0" encoding="UTF-8"?>
<svg id="Layer_2" data-name="Layer 2" xmlns="http://www.w3.org/2000/svg" viewBox="0 0 24.83 28.35">
  <defs>
    <style>
      .cls-1 {
        fill: #010101;
        fill-rule: evenodd;
      }
    </style>
  </defs>
  <g id="Layer_1-2" data-name="Layer 1">
    <g id="_8b41bf29fe" data-name="8b41bf29fe">
      <path class="cls-1" d="M13.43.73c-.56-.97-1.47-.97-2.03,0l-3.13,5.41c-.14.24-.48.44-.77.44H1.25c-1.12,0-1.57.78-1.01,1.75l3.13,5.41c.14.24.14.64,0,.88L.24,20.02c-.56.97-.11,1.75,1.01,1.75h6.25c.28,0,.62.2.77.44l3.13,5.41c.56.97,1.47.97,2.03,0l3.13-5.41c.14-.24.48-.44.77-.44h6.25c1.12,0,1.58-.78,1.01-1.75l-3.13-5.41c-.14-.24-.14-.64,0-.88l3.13-5.41c.56-.97.11-1.75-1.01-1.75h-6.25c-.28,0-.62-.2-.77-.44L13.43.73ZM12.16,3.46c.14-.24.36-.24.5,0l1.55,2.68c.14.24.02.43-.25.43h-3.1c-.28,0-.39-.2-.25-.43l1.55-2.68ZM18.23,9.04c-.14-.24-.02-.44.25-.44h3.1c.28,0,.39.2.25.44l-1.55,2.68c-.14.24-.36.24-.5,0l-1.55-2.68ZM6.22,14.61c-.14-.24-.14-.64,0-.87l2.72-4.7c.14-.24.48-.44.76-.44h5.43c.28,0,.62.2.76.44l2.72,4.7c.14.24.14.64,0,.87l-2.72,4.7c-.14.24-.48.44-.76.44h-5.43c-.28,0-.62-.2-.76-.44l-2.72-4.7ZM2.99,9.04c-.14-.24-.02-.44.25-.44h3.1c.28,0,.39.2.25.44l-1.55,2.68c-.14.24-.36.24-.5,0l-1.55-2.68ZM19.78,16.63c.14-.24.36-.24.5,0l1.55,2.68c.14.24.02.44-.25.44h-3.1c-.28,0-.39-.2-.25-.44l1.55-2.68ZM4.54,16.63c.14-.24.36-.24.5,0l1.55,2.68c.14.24.02.44-.25.44h-3.1c-.28,0-.39-.2-.25-.44l1.55-2.68ZM10.61,22.21c-.14-.24-.02-.43.25-.43h3.1c.28,0,.39.2.25.43l-1.55,2.68c-.14.24-.36.24-.5,0l-1.55-2.68Z"/>
    </g>
  </g>
</svg>