<?xml version="1.0" encoding="UTF-8"?>
<svg id="Layer_2" data-name="Layer 2" xmlns="http://www.w3.org/2000/svg" viewBox="0 0 18.74 28.35">
  <defs>
    <style>
      .cls-1 {
        fill: #231f20;
      }

      .cls-2 {
        fill: #fff;
      }
    </style>
  </defs>
  <g id="Layer_1-2" data-name="Layer 1">
    <g>
      <path class="cls-2" d="M18.25,10.94c-.06-.06-.13-.08-.22-.08l-6.81.41c1.24-2.28,2.6-5.08,2.6-6.44C13.82,2.38,11.82.39,9.37.39s-4.46,1.99-4.46,4.44c0,1.36,1.36,4.16,2.6,6.44l-6.8-.41c-.08,0-.16.02-.23.08-.06.06-.09.14-.09.22v2.69c0,.08.03.16.09.22.06.05.14.08.23.08l7.49-.45-.6,13.95c0,.08.03.16.08.22s.14.09.21.09h2.95c.08,0,.16-.03.22-.09.05-.06.08-.14.08-.22l-.6-13.95,7.49.45c.09,0,.16-.03.22-.08.06-.06.1-.14.1-.22v-2.69c0-.08-.03-.16-.1-.22ZM9.37,2.63c1.22,0,2.21.99,2.21,2.2,0,.64-.88,2.69-2.21,5.17-1.34-2.48-2.22-4.53-2.22-5.17,0-1.22.99-2.2,2.22-2.2Z"/>
      <path class="cls-1" d="M10.84,28.35h-2.95c-.18,0-.36-.07-.49-.2-.13-.13-.2-.31-.2-.5l.58-13.54-7.06.43c-.18.01-.37-.05-.51-.18-.15-.15-.22-.32-.22-.51v-2.69c0-.19.07-.36.21-.5.15-.14.34-.21.53-.19l6.1.37c-1.54-2.9-2.32-4.92-2.32-6.01C4.52,2.17,6.69,0,9.37,0s4.84,2.17,4.84,4.83c0,1.1-.78,3.12-2.32,6.01l6.11-.37c.19-.01.37.05.51.18.14.13.22.31.22.5v2.69c0,.2-.08.38-.23.51-.15.13-.33.2-.51.18l-7.05-.43.58,13.52c.01.17-.05.35-.17.49-.15.15-.33.22-.51.22ZM10.83,27.57h0,0s0,0,0,0ZM7.99,27.57h2.76l-.61-14.29,7.82.47v-2.5l-7.41.44.34-.62c1.65-3.02,2.55-5.24,2.55-6.25,0-2.23-1.82-4.05-4.06-4.05s-4.07,1.82-4.07,4.05c0,.71.44,2.37,2.55,6.25l.34.62-7.41-.44v2.5l7.82-.47-.62,14.29ZM.78,13.85h0s0,0,0,0ZM17.95,11.15v.02s0-.02,0-.02ZM9.37,10.83l-.34-.64c-.53-.99-2.26-4.29-2.26-5.36,0-1.43,1.17-2.59,2.61-2.59s2.6,1.16,2.6,2.59c0,.86-1.17,3.33-2.26,5.36l-.34.64ZM9.37,3.02c-1.01,0-1.83.81-1.83,1.82,0,.42.57,1.94,1.83,4.34,1.2-2.3,1.82-3.9,1.82-4.34,0-1-.82-1.82-1.82-1.82Z"/>
    </g>
  </g>
</svg>