<?xml version="1.0" encoding="UTF-8"?>
<svg id="Layer_2" data-name="Layer 2" xmlns="http://www.w3.org/2000/svg" viewBox="0 0 18.47 28.35">
  <defs>
    <style>
      .cls-1 {
        fill: #fff;
      }

      .cls-2 {
        fill: #010101;
      }
    </style>
  </defs>
  <g id="Layer_1-2" data-name="Layer 1">
    <g>
      <path class="cls-1" d="M9.5,10.68c1.27-2.31,2.63-5.13,2.63-6.11,0-1.59-1.3-2.89-2.89-2.89s-2.89,1.29-2.89,2.89c0,.98,1.35,3.8,2.62,6.11.05.09.16.16.27.16.11,0,.21-.07.27-.16ZM13.2,4.57c0,1.07-1.02,3.49-2.87,6.81-.05.1-.05.22.01.31.05.09.16.15.27.14l7.23-.43v2.11h0l-7.71-.46c-.09-.01-.17.03-.23.09-.07.06-.1.15-.09.23l.62,14.36h-2.39l.61-14.36c0-.09-.03-.17-.09-.23-.07-.06-.15-.1-.23-.09l-7.72.46v-2.11l7.23.43c.12,0,.22-.05.28-.14s.07-.21,0-.31c-1.85-3.33-2.86-5.75-2.86-6.81,0-2.17,1.78-3.95,3.97-3.95s3.97,1.77,3.97,3.95Z"/>
      <path class="cls-2" d="M9.23,9.89c1.37-2.55,2.27-4.66,2.27-5.32,0-1.25-1.02-2.27-2.27-2.27s-2.28,1.01-2.28,2.27c0,.66.91,2.77,2.28,5.32ZM12.13,4.57c0,.98-1.36,3.8-2.63,6.11-.05.09-.16.16-.27.16-.11,0-.22-.07-.27-.16-1.27-2.31-2.62-5.13-2.62-6.11,0-1.59,1.29-2.89,2.89-2.89s2.89,1.29,2.89,2.89Z"/>
      <path class="cls-2" d="M11.14,11.19l7-.42c.09,0,.17.02.23.08.07.06.1.14.1.23v2.77c0,.09-.03.17-.1.23-.06.05-.13.09-.23.08l-7.7-.47.61,14.35c0,.09-.03.17-.08.23-.06.06-.14.09-.23.09h-3.03c-.08,0-.16-.03-.22-.09s-.09-.14-.09-.23l.62-14.35-7.7.47c-.09,0-.17-.03-.23-.08-.06-.06-.09-.14-.09-.23v-2.77c0-.09.03-.17.09-.23.07-.06.15-.09.23-.08l6.99.42c-1.27-2.34-2.67-5.22-2.67-6.62C4.65,2.05,6.71,0,9.23,0s4.58,2.05,4.58,4.57c0,1.4-1.39,4.27-2.67,6.62ZM17.85,13.51v-2.11l-7.23.43c-.11,0-.22-.05-.27-.14-.07-.09-.07-.21-.01-.31,1.85-3.33,2.87-5.75,2.87-6.81,0-2.17-1.78-3.95-3.97-3.95s-3.97,1.77-3.97,3.95c0,1.07,1.01,3.49,2.86,6.81.06.1.05.22,0,.31s-.16.15-.28.14l-7.23-.43v2.11l7.72-.46c.09-.01.17.03.23.09.06.06.09.15.09.23l-.61,14.36h2.39l-.62-14.36c0-.09.03-.17.09-.23.06-.06.14-.1.23-.09l7.71.46h0Z"/>
    </g>
  </g>
</svg>