<?xml version="1.0" encoding="UTF-8"?>
<svg id="Layer_2" data-name="Layer 2" xmlns="http://www.w3.org/2000/svg" viewBox="0 0 28.48 28.35">
  <defs>
    <style>
      .cls-1 {
        fill: #010101;
      }
    </style>
  </defs>
  <g id="Layer_1-2" data-name="Layer 1">
    <g id="b855ba3aac">
      <path class="cls-1" d="M28.09,13.83l-.64-.58-.47-.43-.62.06-.41.39-.31-.33-.29-.27-.57-.08-.51.16-.15.26c-.11-.93-.35-1.83-.72-2.7-.37-.86-.85-1.66-1.45-2.39l.73-.03.46-.76-.11-.28-.05-.44.65-.14.38-.28.11-.55.15-.76v-.6s-.46.1-.46.1l-.87.04-.64.03-.4.48v.56s-.47-.01-.47-.01h-.4s-.46.36-.46.36l-.25.47.08.3c-.74-.58-1.55-1.05-2.42-1.41s-1.78-.58-2.72-.67l.49-.54-.21-.86-.27-.12-.35-.27.36-.56.07-.47-.31-.47-.43-.64-.43-.42-.25.39-.58.64-.43.47.06.62.39.41-.33.31-.27.29-.08.56.16.51.26.15c-.94.11-1.84.35-2.71.72-.87.37-1.67.85-2.4,1.45l-.03-.73-.76-.45-.28.11-.44.05-.14-.65-.28-.38-.55-.11-.76-.15h-.6s.1.46.1.46l.04.87.03.63.48.4h.57s-.01.47-.01.47v.4s.36.45.36.45l.47.25.3-.08c-.59.74-1.06,1.54-1.41,2.41s-.58,1.78-.68,2.71l-.54-.49-.86.21-.12.27-.27.35-.56-.36-.47-.07-.47.31-.64.43-.42.43.39.25.64.58.47.43.63-.06.41-.39.31.33.29.27.57.08.51-.16.15-.26c.11.93.35,1.83.72,2.7.37.86.85,1.66,1.45,2.39l-.73.03-.46.76.11.28.06.44-.65.14-.38.28-.11.55-.15.76v.6s.46-.1.46-.1l.87-.04.64-.03.4-.48v-.56s.47.01.47.01h.4s.46-.36.46-.36l.25-.47-.08-.3c.74.58,1.55,1.05,2.43,1.41.88.35,1.78.58,2.72.67l-.49.54.21.86.27.12.35.27-.36.56-.07.47.31.47.43.64.43.42.25-.39.59-.64.43-.47-.06-.62-.39-.41.33-.31.27-.29.08-.56-.16-.51-.26-.15c.94-.11,1.84-.35,2.71-.72.87-.37,1.67-.85,2.4-1.45l.03.73.76.45.28-.11.44-.05.14.65.28.38.55.11.76.15h.6s-.1-.46-.1-.46l-.04-.87-.03-.63-.48-.4h-.56s.01-.47.01-.47v-.4s-.36-.45-.36-.45l-.47-.25-.3.08c.59-.74,1.06-1.54,1.41-2.41.36-.87.58-1.78.68-2.71l.54.49.86-.21.12-.27.27-.35.56.36.47.07.47-.31.64-.43.42-.43-.39-.25ZM20.85,8.84c.52.63.94,1.33,1.25,2.09.32.76.52,1.54.6,2.36h-5.79c-.04-.13-.09-.25-.16-.37l4.09-4.07ZM15.13,5.75c.82.08,1.61.28,2.37.6.76.31,1.46.73,2.1,1.25l-4.09,4.07c-.12-.06-.25-.11-.38-.16v-5.76ZM13.35,5.75v5.76c-.13.04-.25.09-.38.16l-4.09-4.07c.64-.52,1.34-.93,2.1-1.25.76-.32,1.55-.51,2.37-.6ZM7.63,8.84l4.09,4.07c-.06.12-.11.25-.16.37h-5.79c.09-.81.29-1.6.6-2.36.32-.76.73-1.45,1.25-2.09ZM7.63,19.5c-.52-.64-.94-1.33-1.25-2.09-.32-.76-.52-1.54-.6-2.36h5.79c.04.13.09.25.16.37l-4.09,4.07ZM13.35,22.6c-.82-.09-1.61-.29-2.37-.6s-1.46-.73-2.1-1.25l4.09-4.07c.12.06.25.11.38.16v5.76ZM14.24,15.35c-.16,0-.31-.03-.45-.09s-.27-.15-.38-.26c-.11-.11-.2-.24-.26-.38-.06-.15-.09-.3-.09-.45s.03-.31.09-.45c.06-.15.15-.27.26-.38.11-.11.24-.2.38-.26s.3-.09.45-.09.31.03.45.09.27.15.38.26.2.24.26.38c.06.14.09.3.09.45s-.03.31-.09.45c-.06.14-.15.27-.26.38-.11.11-.24.2-.38.26s-.3.09-.45.09ZM15.13,22.6v-5.76c.13-.04.25-.09.38-.16l4.09,4.07c-.64.52-1.34.93-2.1,1.25s-1.55.51-2.37.6ZM20.85,19.5l-4.09-4.07c.06-.12.11-.25.16-.37h5.79c-.09.81-.29,1.6-.6,2.36-.32.76-.73,1.45-1.25,2.09Z"/>
    </g>
  </g>
</svg>