<?xml version="1.0" encoding="UTF-8"?>
<svg id="Layer_2" data-name="Layer 2" xmlns="http://www.w3.org/2000/svg" viewBox="0 0 28.28 28.35">
  <defs>
    <style>
      .cls-1 {
        fill: #fff;
      }

      .cls-2 {
        fill: #010101;
      }
    </style>
  </defs>
  <g id="Layer_1-2" data-name="Layer 1">
    <g id="_8a987c2eb4" data-name="8a987c2eb4">
      <g>
        <circle class="cls-1" cx="14.03" cy="6.84" r="2.08"/>
        <path class="cls-1" d="M14.38,1.25c7.01.13,12.67,5.86,12.67,12.93s-5.79,12.94-12.91,12.94c-4.13,0-9.91-8.08,0-12.94,9.73-4.77,4.33-12.63.24-12.93ZM16.11,21.11c0-1.15-.93-2.08-2.08-2.08s-2.08.93-2.08,2.08.93,2.08,2.08,2.08,2.08-.93,2.08-2.08Z"/>
        <circle class="cls-2" cx="14.03" cy="21.11" r="2.08"/>
        <path class="cls-2" d="M27.05,14.17c0-7.07-5.66-12.8-12.67-12.93,4.09.3,9.49,8.16-.24,12.93-9.91,4.86-4.13,12.94,0,12.94,7.13,0,12.91-5.79,12.91-12.94ZM14.14,0c7.79,0,14.14,6.36,14.14,14.17s-6.35,14.17-14.14,14.17S0,21.99,0,14.17,6.35,0,14.14,0ZM16.11,6.84c0-1.15-.93-2.08-2.08-2.08s-2.08.93-2.08,2.08.93,2.08,2.08,2.08,2.08-.93,2.08-2.08Z"/>
      </g>
    </g>
  </g>
</svg>