<?xml version="1.0" encoding="UTF-8"?>
<svg id="Layer_2" data-name="Layer 2" xmlns="http://www.w3.org/2000/svg" viewBox="0 0 22.63 28.55">
  <defs>
    <style>
      .cls-1 {
        fill: #231f20;
        stroke: #fff;
        stroke-miterlimit: 10;
        stroke-width: .2px;
      }
    </style>
  </defs>
  <g id="Layer_1-2" data-name="Layer 1">
    <g id="_6babf4f1a9" data-name="6babf4f1a9">
      <g>
        <path class="cls-1" d="M18.11,14.85c1.83-1.84,1.51-5.04,1.49-5.17-.03-.25-.23-.45-.47-.47-.14-.01-3.33-.35-5.17,1.49s-1.51,5.04-1.5,5.17c.03.25.23.45.48.47.03,0,.3.03.71.03,1.08,0,3.13-.19,4.47-1.53ZM1.18,10.91C1.18,5.54,5.72,1.18,11.31,1.18s10.14,4.36,10.14,9.73-6.17,16.46-10.14,16.46S1.18,16.43,1.18,10.91ZM3.02,9.68c-.01.13-.34,3.33,1.5,5.17,1.33,1.34,3.39,1.53,4.46,1.53.41,0,.67-.03.71-.03.25-.03.45-.22.47-.47.01-.13.34-3.33-1.49-5.17-1.84-1.84-5.04-1.51-5.17-1.49-.25.03-.45.23-.48.47Z"/>
        <path class="cls-1" d="M18.56,10.25c-.85-.01-2.73.1-3.84,1.21s-1.22,2.99-1.21,3.84c.86.02,2.73-.1,3.84-1.21s1.23-2.98,1.21-3.84ZM19.61,9.68c.01.13.34,3.33-1.49,5.17-1.33,1.33-3.39,1.53-4.47,1.53-.41,0-.67-.03-.71-.03-.25-.03-.45-.22-.48-.47-.01-.13-.34-3.33,1.5-5.17s5.03-1.51,5.17-1.49c.25.03.45.23.47.47Z"/>
        <path class="cls-1" d="M9.12,15.31c0-.85-.1-2.73-1.21-3.84s-2.98-1.22-3.84-1.21c-.01.85.09,2.73,1.21,3.84,1.11,1.11,2.97,1.23,3.84,1.21ZM3.5,9.21c.13-.02,3.33-.35,5.17,1.49,1.83,1.84,1.51,5.04,1.49,5.17-.03.25-.22.45-.47.47-.04,0-.31.03-.71.03-1.07,0-3.13-.19-4.46-1.53-1.84-1.84-1.51-5.04-1.5-5.17.03-.25.23-.45.48-.47Z"/>
        <path class="cls-1" d="M1.18,10.91c0,5.52,6.16,16.46,10.13,16.46s10.14-10.94,10.14-16.46S16.91,1.18,11.31,1.18,1.18,5.54,1.18,10.91ZM11.31,28.45C6.38,28.45.1,16.56.1,10.91.1,4.95,5.13.1,11.31.1s11.21,4.85,11.21,10.81c0,5.65-6.28,17.53-11.21,17.53Z"/>
      </g>
    </g>
  </g>
</svg>