<?xml version="1.0" encoding="UTF-8"?>
<svg id="Layer_2" data-name="Layer 2" xmlns="http://www.w3.org/2000/svg" viewBox="0 0 22.43 28.35">
  <defs>
    <style>
      .cls-1 {
        fill: #fff;
      }

      .cls-2 {
        fill: #010101;
      }
    </style>
  </defs>
  <g id="Layer_1-2" data-name="Layer 1">
    <g id="_6babf4f1a9" data-name="6babf4f1a9">
      <g>
        <path class="cls-1" d="M18.01,14.75c1.83-1.84,1.51-5.04,1.49-5.17-.03-.25-.23-.45-.47-.47-.14-.01-3.33-.35-5.17,1.49s-1.51,5.04-1.5,5.17c.03.25.23.45.48.47.03,0,.3.03.71.03,1.08,0,3.13-.19,4.47-1.53ZM1.08,10.81C1.08,5.44,5.62,1.08,11.21,1.08s10.14,4.36,10.14,9.73-6.17,16.46-10.14,16.46S1.08,16.33,1.08,10.81ZM2.92,9.58c-.01.13-.34,3.33,1.5,5.17,1.33,1.34,3.39,1.53,4.46,1.53.41,0,.67-.03.71-.03.25-.03.45-.22.47-.47.01-.13.34-3.33-1.49-5.17-1.84-1.84-5.04-1.51-5.17-1.49-.25.03-.45.23-.48.47Z"/>
        <path class="cls-2" d="M18.46,10.15c-.85-.01-2.73.1-3.84,1.21s-1.22,2.99-1.21,3.84c.86.02,2.73-.1,3.84-1.21s1.23-2.98,1.21-3.84ZM19.51,9.58c.01.13.34,3.33-1.49,5.17-1.33,1.33-3.39,1.53-4.47,1.53-.41,0-.67-.03-.71-.03-.25-.03-.45-.22-.48-.47-.01-.13-.34-3.33,1.5-5.17s5.03-1.51,5.17-1.49c.25.03.45.23.47.47Z"/>
        <path class="cls-2" d="M9.02,15.21c0-.85-.1-2.73-1.21-3.84s-2.98-1.22-3.84-1.21c-.01.85.09,2.73,1.21,3.84,1.11,1.11,2.97,1.23,3.84,1.21ZM3.4,9.11c.13-.02,3.33-.35,5.17,1.49,1.83,1.84,1.51,5.04,1.49,5.17-.03.25-.22.45-.47.47-.04,0-.31.03-.71.03-1.07,0-3.13-.19-4.46-1.53-1.84-1.84-1.51-5.04-1.5-5.17.03-.25.23-.45.48-.47Z"/>
        <path class="cls-2" d="M1.08,10.81c0,5.52,6.16,16.46,10.13,16.46s10.14-10.94,10.14-16.46S16.81,1.08,11.21,1.08,1.08,5.44,1.08,10.81ZM11.21,28.35C6.28,28.35,0,16.46,0,10.81,0,4.85,5.03,0,11.21,0s11.21,4.85,11.21,10.81c0,5.65-6.28,17.53-11.21,17.53Z"/>
      </g>
    </g>
  </g>
</svg>