<?xml version="1.0" encoding="UTF-8"?>
<svg id="Layer_2" data-name="Layer 2" xmlns="http://www.w3.org/2000/svg" viewBox="0 0 22.47 28.35">
  <defs>
    <style>
      .cls-1 {
        fill: #231f20;
      }

      .cls-2 {
        fill: #fff;
      }
    </style>
  </defs>
  <g id="Layer_1-2" data-name="Layer 1">
    <g id="_6babf4f1a9" data-name="6babf4f1a9">
      <g>
        <g>
          <path class="cls-1" d="M17.99,14.75c1.82-1.83,1.5-5,1.48-5.14-.03-.24-.23-.44-.47-.47-.14-.01-3.31-.34-5.14,1.48s-1.5,5-1.49,5.14c.03.25.23.44.48.47.03,0,.3.03.7.03,1.07,0,3.11-.19,4.44-1.52ZM1.17,10.84C1.17,5.5,5.68,1.17,11.23,1.17s10.07,4.33,10.07,9.67-6.12,16.34-10.07,16.34S1.17,16.32,1.17,10.84ZM3,9.61c-.01.13-.34,3.31,1.49,5.14,1.32,1.33,3.36,1.52,4.43,1.52.4,0,.67-.03.71-.03.25-.03.44-.22.47-.47.01-.13.34-3.31-1.48-5.14-1.83-1.83-5-1.5-5.14-1.48-.25.03-.44.23-.48.47Z"/>
          <path class="cls-2" d="M11.23,27.28c-3.99,0-10.16-10.92-10.16-16.44S5.63,1.07,11.23,1.07s10.17,4.38,10.17,9.76-6.18,16.44-10.17,16.44ZM11.23,1.27C5.74,1.27,1.27,5.56,1.27,10.84s6.05,16.25,9.96,16.25,9.97-10.79,9.97-16.25S16.73,1.27,11.23,1.27ZM13.55,16.36c-.41,0-.68-.03-.72-.03-.29-.03-.52-.26-.56-.55-.03-.35-.28-3.42,1.52-5.22,1.75-1.75,4.65-1.57,5.21-1.51.3.03.53.27.57.56.03.34.29,3.41-1.51,5.22h0c-1.34,1.34-3.4,1.55-4.51,1.55ZM18.3,9.21c-1.06,0-3.08.19-4.37,1.48-1.74,1.74-1.49,4.72-1.46,5.06.03.21.18.36.39.38.03,0,.28.03.69.03,1.07,0,3.07-.19,4.37-1.49,1.74-1.74,1.49-4.72,1.45-5.06-.02-.2-.18-.36-.38-.38-.08,0-.33-.03-.68-.03ZM8.92,16.36c-1.11,0-3.16-.2-4.5-1.55-1.8-1.8-1.55-4.87-1.52-5.21h0c.04-.3.27-.53.56-.56.03,0,3.31-.4,5.22,1.51,1.79,1.8,1.55,4.87,1.51,5.22-.03.3-.26.53-.56.56-.05,0-.33.03-.72.03ZM3.1,9.62h0c-.03.34-.27,3.32,1.46,5.06,1.29,1.29,3.28,1.49,4.36,1.49.4,0,.66-.03.69-.03.21-.02.37-.18.39-.38.03-.34.27-3.32-1.45-5.06-1.81-1.81-5.02-1.46-5.05-1.45-.2.02-.36.18-.39.38Z"/>
        </g>
        <g>
          <path class="cls-1" d="M18.43,10.17c-.85-.01-2.71.1-3.81,1.2s-1.21,2.97-1.2,3.81c.85.02,2.71-.1,3.81-1.2s1.22-2.96,1.2-3.81ZM19.47,9.61c.01.13.34,3.31-1.48,5.14-1.32,1.32-3.36,1.52-4.44,1.52-.4,0-.67-.03-.7-.03-.25-.03-.44-.22-.48-.47-.01-.13-.34-3.31,1.49-5.14s5-1.5,5.14-1.48c.24.03.44.23.47.47Z"/>
          <path class="cls-2" d="M13.55,16.36c-.41,0-.68-.03-.72-.03-.29-.03-.52-.26-.56-.55-.03-.35-.28-3.42,1.52-5.22,1.75-1.75,4.65-1.57,5.21-1.51.3.03.53.27.57.56h0c.03.34.29,3.41-1.51,5.22-1.34,1.34-3.4,1.55-4.51,1.55ZM18.3,9.21c-1.06,0-3.08.19-4.37,1.48-1.74,1.74-1.49,4.72-1.46,5.06.03.21.18.36.39.38.03,0,.28.03.69.03,1.07,0,3.07-.19,4.37-1.49,1.74-1.74,1.49-4.72,1.45-5.06h0c-.02-.2-.18-.36-.38-.38-.08,0-.33-.03-.68-.03ZM13.58,15.29c-.06,0-.12,0-.17,0h-.1s0-.1,0-.1c0-.98.14-2.79,1.23-3.88,1.15-1.15,3.11-1.24,3.88-1.23h.1s0,.1,0,.1c.02.98-.13,2.78-1.23,3.88-1.09,1.09-2.85,1.24-3.71,1.24ZM13.51,15.1c.81.01,2.58-.11,3.64-1.18s1.18-2.68,1.18-3.64h-.02c-.82,0-2.58.13-3.63,1.18-1.01,1.01-1.17,2.68-1.18,3.65Z"/>
        </g>
        <g>
          <path class="cls-1" d="M9.06,15.2c0-.85-.1-2.71-1.2-3.81s-2.96-1.21-3.81-1.2c-.01.85.09,2.71,1.2,3.81,1.11,1.11,2.95,1.22,3.81,1.2ZM3.48,9.14c.13-.02,3.31-.34,5.14,1.48,1.82,1.83,1.5,5,1.48,5.14-.03.25-.22.44-.47.47-.04,0-.3.03-.71.03-1.07,0-3.1-.19-4.43-1.52-1.83-1.83-1.5-5-1.49-5.14.03-.24.23-.44.48-.47Z"/>
          <path class="cls-2" d="M8.92,16.36c-1.11,0-3.16-.2-4.5-1.55-1.8-1.8-1.55-4.87-1.52-5.21.04-.3.27-.53.56-.56.13-.01,3.34-.37,5.22,1.51,1.79,1.8,1.55,4.87,1.51,5.22-.03.3-.26.53-.56.56-.05,0-.33.03-.72.03ZM4.18,9.21c-.42,0-.68.03-.69.03h0c-.2.02-.36.18-.39.38-.03.33-.27,3.32,1.46,5.05,1.29,1.29,3.28,1.49,4.36,1.49.4,0,.66-.03.69-.03.21-.02.37-.18.39-.38.03-.34.27-3.32-1.45-5.06-1.3-1.3-3.31-1.49-4.36-1.49ZM8.93,15.3c-1,0-2.69-.17-3.75-1.23-1.11-1.1-1.25-2.91-1.23-3.88v-.1s.1,0,.1,0h.07c1,0,2.75.17,3.81,1.23,1.09,1.09,1.24,2.9,1.23,3.88v.1s-.1,0-.1,0c-.04,0-.09,0-.13,0ZM4.14,10.28c0,.82.12,2.6,1.18,3.64,1.05,1.04,2.81,1.18,3.63,1.18h.02c0-.97-.17-2.64-1.18-3.64-1.01-1.01-2.67-1.17-3.64-1.18Z"/>
        </g>
        <g>
          <path class="cls-1" d="M1.17,10.84c0,5.48,6.12,16.34,10.06,16.34s10.07-10.86,10.07-16.34S16.79,1.17,11.23,1.17,1.17,5.5,1.17,10.84ZM11.23,28.25C6.34,28.25.1,16.44.1,10.84.1,4.92,5.1.1,11.23.1s11.13,4.82,11.13,10.74c0,5.61-6.24,17.41-11.13,17.41Z"/>
          <path class="cls-2" d="M11.23,28.35C6.29,28.35,0,16.48,0,10.84,0,4.86,5.04,0,11.23,0s11.23,4.86,11.23,10.84c0,5.64-6.29,17.51-11.23,17.51ZM11.23.2C5.15.2.2,4.97.2,10.84s6.18,17.31,11.04,17.31,11.04-11.73,11.04-17.31C22.27,4.97,17.32.2,11.23.2ZM11.23,27.28c-3.99,0-10.16-10.92-10.16-16.44S5.63,1.07,11.23,1.07s10.17,4.38,10.17,9.76-6.18,16.44-10.17,16.44ZM11.23,1.27C5.74,1.27,1.27,5.56,1.27,10.84s6.05,16.25,9.96,16.25,9.97-10.79,9.97-16.25S16.73,1.27,11.23,1.27Z"/>
        </g>
      </g>
    </g>
  </g>
</svg>