<?xml version="1.0" encoding="UTF-8"?>
<svg id="Layer_2" data-name="Layer 2" xmlns="http://www.w3.org/2000/svg" viewBox="0 0 33.58 22.68">
  <defs>
    <style>
      .cls-1 {
        fill: #231f20;
      }

      .cls-2 {
        fill: #fff;
      }
    </style>
  </defs>
  <g id="Layer_1-2" data-name="Layer 1">
    <g>
      <path class="cls-2" d="M31.89,6.24l-8.59,4.34L17.51.89c-.31-.54-1.11-.55-1.44,0l-5.79,9.7L1.69,6.24c-.67-.33-1.38.28-1.18.98l4.22,14.33c.08.38.41.65.82.65h22.48c.36,0,.7-.23.8-.6l4.24-14.38c.2-.7-.52-1.31-1.18-.98Z"/>
      <path class="cls-1" d="M28.03,22.68H5.55c-.62,0-1.15-.42-1.29-1.03L.05,7.35c-.15-.51.01-1.04.42-1.38.4-.34.95-.4,1.43-.16l8.19,4.14L15.66.64c.24-.4.66-.64,1.13-.64h.01c.47,0,.89.25,1.12.65l5.56,9.3,8.19-4.14c.48-.24,1.02-.18,1.43.16.41.34.57.87.43,1.38l-4.24,14.38c-.15.55-.67.94-1.26.94ZM1.31,6.62c-.11,0-.19.05-.22.08-.04.04-.18.17-.12.38l4.22,14.32c.04.2.19.31.36.31h22.48c.13,0,.29-.08.34-.25l4.25-14.39c.06-.21-.08-.34-.12-.38-.05-.04-.2-.14-.39-.04l-8.98,4.54L17.1,1.13c-.09-.16-.25-.15-.31-.18-.06,0-.21.02-.3.17l-6.02,10.08L1.48,6.66c-.06-.03-.12-.04-.17-.04Z"/>
    </g>
  </g>
</svg>