<?xml version="1.0" encoding="UTF-8"?>
<svg id="Layer_2" data-name="Layer 2" xmlns="http://www.w3.org/2000/svg" viewBox="0 0 34.07 22.68">
  <defs>
    <style>
      .cls-1 {
        fill: #fff;
      }

      .cls-2 {
        fill: #010101;
      }
    </style>
  </defs>
  <g id="Layer_1-2" data-name="Layer 1">
    <g id="f2c70e3446">
      <g>
        <path class="cls-1" d="M31.79,8.47l-3.67,12.47H5.95l-3.67-12.47,7.89,4c.42.21.93.05,1.15-.36l5.7-9.54,5.72,9.57c.24.4.74.54,1.15.34l7.89-4Z"/>
        <path class="cls-2" d="M28.12,20.94l3.67-12.47-7.89,4c-.41.2-.91.06-1.15-.34l-5.72-9.57-5.7,9.54c-.22.41-.74.57-1.15.36l-7.89-4,3.67,12.47h22.17ZM23.83,10.55l8.97-4.53c.69-.34,1.44.3,1.23,1.03l-4.43,15.01c-.1.38-.46.62-.83.62H5.3c-.42,0-.77-.29-.86-.68L.04,7.04c-.21-.73.54-1.37,1.23-1.03l8.97,4.53L16.28.42c.34-.57,1.17-.55,1.5,0l6.05,10.12Z"/>
      </g>
    </g>
  </g>
</svg>