<?xml version="1.0" encoding="UTF-8"?>
<svg id="Layer_2" data-name="Layer 2" xmlns="http://www.w3.org/2000/svg" viewBox="0 0 18 28.35">
  <defs>
    <style>
      .cls-1 {
        fill: #231f20;
      }
    </style>
  </defs>
  <g id="Layer_1-2" data-name="Layer 1">
    <g id="_9a0213eed3" data-name="9a0213eed3">
      <g>
        <path class="cls-1" d="M9.84,23.11c.09.07.21.11.31.09,5.29-1.27,5.99-5.73.07-7.74-.11-.04-.25-.03-.35.05-.1.07-.16.19-.16.31v7c0,.11.05.23.13.29ZM8.56,5.53c0-.12-.05-.23-.14-.3s-.21-.1-.32-.08c-2.07.39-3.7,2.01-3.7,3.67.01,1.83,1.83,2.49,3.77,3.05.21,0,.39-.17.39-.39v-5.96ZM8.56,26.44c0-.2-.15-.37-.35-.39-3.97-.35-6.48-2.62-7.26-3.44l2.18-1.8c1.37,1.31,3.12,2.15,5,2.4.11.01.22-.02.3-.09.09-.07.13-.18.13-.29v-7.61c0-.19-.14-.35-.33-.39-3.48-.85-6.67-2.41-6.65-6.02-.05-3.36,3.32-6.24,6.63-6.53.2-.03.35-.19.35-.39V.77h1.15v1.14c0,.2.15.37.35.38,3.47.3,5.7,2,6.46,2.67l-2.05,1.95c-.6-.49-2.09-1.51-4.33-1.78h-.04c-.09,0-.19.03-.26.1-.08.07-.13.17-.13.29v6.53c0,.17.11.32.27.37,4.01,1.14,7.31,3.55,7.25,7.11.07,3.41-3.85,6.27-7.18,6.53-.19.02-.35.19-.35.39v1.13h-1.15v-1.14Z"/>
        <path class="cls-1" d="M10.48,22.35c4.09-1.34,4.31-4.29,0-5.97v5.97ZM10.22,15.46c5.93,2.01,5.23,6.47-.07,7.74-.11.02-.22-.01-.31-.09-.09-.07-.13-.18-.13-.29v-7c0-.13.06-.25.16-.31.11-.07.24-.09.35-.05Z"/>
        <path class="cls-1" d="M7.78,10.96v-4.95c-1.47.45-2.61,1.63-2.61,2.81,0,.95.65,1.49,2.61,2.14ZM8.1,5.15c.11-.02.23,0,.32.08s.14.18.14.3v5.96c0,.21-.17.39-.39.39-1.95-.56-3.76-1.23-3.77-3.05,0-1.67,1.63-3.28,3.7-3.67Z"/>
        <path class="cls-1" d="M10.05,26.06c3.33-.27,7.25-3.12,7.18-6.53.06-3.57-3.24-5.97-7.25-7.11-.17-.05-.27-.2-.27-.37v-6.53c0-.11.05-.21.13-.29.07-.07.17-.1.26-.1h.04c2.25.27,3.73,1.29,4.33,1.78l2.05-1.95c-.76-.67-2.99-2.37-6.46-2.67-.2-.01-.35-.18-.35-.38V.77h-1.15v1.13c0,.19-.15.36-.35.39-3.31.29-6.69,3.17-6.63,6.53-.01,3.61,3.17,5.17,6.65,6.02.19.03.33.19.33.39v7.61c0,.11-.05.22-.13.29-.08.07-.19.11-.3.09-1.88-.25-3.63-1.09-5-2.4l-2.18,1.8c.78.82,3.29,3.09,7.26,3.44.2.02.35.19.35.39v1.14h1.15v-1.13c0-.2.15-.37.35-.39ZM10.48,11.75c4.31,1.27,7.59,3.99,7.53,7.77.07,3.68-3.91,6.83-7.53,7.26v1.18c0,.21-.17.39-.38.39h-1.93c-.21,0-.39-.17-.39-.39v-1.18C2.94,26.21.2,22.96.09,22.81c-.07-.07-.1-.18-.09-.28,0-.1.06-.19.14-.26l2.69-2.22c.07-.09.17-.15.29-.16s.23.05.31.13c.07.08,1.6,1.85,4.35,2.35v-6.87c-1.32-.37-2.79-.81-4.07-1.62-2.4-1.51-2.9-3.59-2.9-5.07-.07-3.62,3.4-6.79,6.97-7.25V.38c0-.21.17-.38.39-.38h1.93c.21,0,.38.17.38.38v1.17c4.29.51,7.08,3.07,6.99,3.41,0,.1-.05.19-.12.27l-2.51,2.4c-.06.11-.17.17-.29.19h-.05c-.1,0-.21-.04-.27-.11-.06-.06-1.36-1.35-3.75-1.75v5.8Z"/>
      </g>
    </g>
  </g>
</svg>