<?xml version="1.0" encoding="UTF-8"?>
<svg id="Layer_2" data-name="Layer 2" xmlns="http://www.w3.org/2000/svg" viewBox="0 0 20.62 28.35">
  <defs>
    <style>
      .cls-1 {
        fill: #231f20;
      }
    </style>
  </defs>
  <g id="Layer_1-2" data-name="Layer 1">
    <g>
      <polygon class="cls-1" points="12.39 .85 11.23 8.58 9.39 8.58 8.23 .85 12.39 .85"/>
      <path class="cls-1" d="M12.44,6.25c4.24.98,7.31,4.78,7.31,9.21v9.7l-1.92,1.92-2.27-8.67c1.16-.25,2.04-1.28,2.04-2.52v-.86c0-.24-.19-.43-.43-.43h-5.58v5.41l-1.28,1.28-1.29-1.28v-5.41H3.01v1.29c0,1.24.87,2.27,2.04,2.52l-2.27,8.67-1.92-1.92v-9.7c0-4.43,3.07-8.23,7.31-9.21l.42,2.83c.03.21.21.36.42.36h2.58c.22,0,.4-.15.42-.36l.42-2.83Z"/>
      <path class="cls-1" d="M11.23,8.58l1.16-7.73h-4.16l1.16,7.73h1.84ZM19.76,15.46c0-4.43-3.07-8.23-7.31-9.21l-.42,2.83c-.03.21-.21.36-.42.36h-2.58c-.22,0-.39-.15-.42-.36l-.42-2.83C3.94,7.23.86,11.03.86,15.46v9.7l1.92,1.92,2.27-8.67c-1.16-.25-2.04-1.28-2.04-2.52v-1.29h6.01v5.41l1.29,1.28,1.28-1.28v-5.41h5.58c.24,0,.43.2.43.43v.86c0,1.24-.87,2.27-2.04,2.52l2.27,8.67,1.92-1.92v-9.7ZM17.19,28.02l-2.58-9.88c-.07-.27.13-.54.42-.54.95,0,1.72-.77,1.72-1.72v-.43h-4.29v4.9s0,0,0,0l-2.15,2.15s0,0,0,0l-2.15-2.15s0,0,0,0v-4.9H3.87v.43c0,.95.77,1.72,1.72,1.72.28,0,.48.27.42.54l-2.58,9.88c-.09.32-.48.43-.72.2L0,25.52s0,0,0,0v-10.05C0,10.6,3.39,6.44,8.05,5.4L7.31.49c-.03-.26.17-.49.43-.49h5.15c.26,0,.46.23.42.49l-.74,4.91c4.66,1.04,8.05,5.2,8.05,10.06v10.06l-2.7,2.7c-.24.24-.63.13-.72-.2Z"/>
    </g>
  </g>
</svg>