<?xml version="1.0" encoding="UTF-8"?>
<svg id="Layer_2" data-name="Layer 2" xmlns="http://www.w3.org/2000/svg" viewBox="0 0 28.35 11.73">
  <defs>
    <style>
      .cls-1 {
        fill: #010101;
      }
    </style>
  </defs>
  <g id="Layer_1-2" data-name="Layer 1">
    <path class="cls-1" d="M27.06,2.2C25.28.06,21.89-.63,19.35.63c-1.19.59-2.14,1.54-2.98,2.38l-2.2,2.2-.97-.91c-.2-.2-.35-.37-.51-.54-.18-.2-.37-.4-.61-.65-.44-.44-.93-.92-1.46-1.37-.62-.52-1.21-.9-1.8-1.18C6.33-.58,3.03.13,1.3,2.19c-1.73,2.06-1.73,5.28,0,7.34s5.02,2.78,7.52,1.63c1.33-.61,2.37-1.65,3.29-2.57l2.09-2.09.93.87c.22.22.44.45.64.67.22.23.43.47.67.7.86.86,1.83,1.82,3.06,2.41.82.39,1.72.58,2.61.58,2.25,0,4.5-1.16,5.55-3.12,1.1-2.08.87-4.65-.6-6.42h0ZM11.41,7.97c-.91.91-1.85,1.84-3.02,2.39-2.11.97-4.91.36-6.37-1.38s-1.46-4.48,0-6.22c.99-1.18,2.6-1.84,4.18-1.84.76,0,1.51.15,2.19.46.52.24,1.04.58,1.59,1.05.5.42.98.89,1.4,1.31.23.23.41.43.58.61.17.19.34.38.55.59h0s.99.93.99.93l-2.1,2.1ZM26.81,8.2c-1.24,2.31-4.46,3.31-6.9,2.15-1.08-.52-1.96-1.39-2.8-2.23-.22-.22-.43-.45-.64-.67-.22-.23-.44-.47-.68-.71l-.95-.89,2.21-2.21c.83-.83,1.68-1.68,2.73-2.2,2.12-1.06,5.05-.46,6.53,1.33,1.22,1.47,1.42,3.7.49,5.44h0Z"/>
  </g>
</svg>