<?xml version="1.0" encoding="UTF-8"?>
<svg id="Layer_2" data-name="Layer 2" xmlns="http://www.w3.org/2000/svg" viewBox="0 0 17.01 28.35">
  <defs>
    <style>
      .cls-1 {
        fill: #231f20;
      }
    </style>
  </defs>
  <g id="Layer_1-2" data-name="Layer 1">
    <g id="_227aa6c8a1" data-name="227aa6c8a1">
      <g>
        <path class="cls-1" d="M15.64,14.62L3.49,26.34l2.53-9.31c.07-.24-.07-.49-.29-.57l-4.43-1.56L13.03,2.25l-2.93,10.04c-.07.25.06.5.3.58l5.24,1.75Z"/>
        <path class="cls-1" d="M15.64,14.62l-5.24-1.75c-.24-.08-.37-.33-.3-.58l2.93-10.04L1.31,14.91l4.43,1.56c.23.07.36.33.29.57l-2.53,9.31,12.15-11.72ZM16.99,14.32c.04.16-.01.33-.13.44L2.91,28.21c-.09.09-.21.13-.33.13-.08,0-.17-.03-.24-.07-.19-.11-.27-.33-.22-.53l2.87-10.54L.32,15.57c-.15-.05-.27-.18-.3-.33-.04-.15,0-.31.11-.43L13.69.15c.15-.17.39-.2.58-.09s.29.33.23.55l-3.36,11.52,5.55,1.85c.15.05.27.19.31.35Z"/>
      </g>
    </g>
  </g>
</svg>