<?xml version="1.0" encoding="UTF-8"?>
<svg id="Layer_2" data-name="Layer 2" xmlns="http://www.w3.org/2000/svg" viewBox="0 0 24.67 22.69">
  <defs>
    <style>
      .cls-1 {
        fill: #231f20;
      }
    </style>
  </defs>
  <g id="Layer_1-2" data-name="Layer 1">
    <g id="_1042010433" data-name="1042010433">
      <g>
        <path class="cls-1" d="M22.1,2.58c1.26,1.26,1.95,2.93,1.95,4.72s-.69,3.46-1.95,4.71l-9.77,9.8L2.57,12.01C-.03,9.41-.03,5.18,2.57,2.58c1.29-1.29,3-1.95,4.7-1.95s3.4.65,4.7,1.95l.37.37.37-.37c1.26-1.26,2.93-1.95,4.7-1.95s3.44.7,4.7,1.95Z"/>
        <path class="cls-1" d="M22.1,2.58c-1.25-1.26-2.92-1.95-4.7-1.95s-3.44.7-4.7,1.95l-.37.37-.37-.37c-1.3-1.3-3-1.95-4.7-1.95s-3.4.66-4.7,1.95C-.03,5.18-.03,9.41,2.57,12.01l9.77,9.8,9.77-9.8c1.26-1.26,1.95-2.93,1.95-4.71s-.69-3.46-1.95-4.72ZM2.13,12.45C-.7,9.61-.7,4.99,2.13,2.14c2.81-2.82,7.37-2.84,10.21-.07C13.7.74,15.5.01,17.4.01s3.76.76,5.13,2.13c1.37,1.37,2.13,3.21,2.13,5.15s-.75,3.78-2.13,5.16l-10.2,10.24L2.13,12.45Z"/>
      </g>
    </g>
  </g>
</svg>