<?xml version="1.0" encoding="UTF-8"?>
<svg id="Layer_2" data-name="Layer 2" xmlns="http://www.w3.org/2000/svg" viewBox="0 0 24.66 22.68">
  <defs>
    <style>
      .cls-1 {
        fill: #231f20;
      }
    </style>
  </defs>
  <g id="Layer_1-2" data-name="Layer 1">
    <g id="_1042010433" data-name="1042010433">
      <g>
        <path class="cls-1" d="M22.1,2.57c1.26,1.26,1.95,2.93,1.95,4.72s-.69,3.46-1.95,4.72l-9.77,9.8L2.56,12.01C-.03,9.4-.03,5.17,2.56,2.57c1.29-1.29,3-1.95,4.7-1.95s3.4.65,4.7,1.95l.37.37.37-.37c1.26-1.26,2.93-1.95,4.7-1.95s3.45.7,4.7,1.95Z"/>
        <path class="cls-1" d="M22.1,2.57c-1.25-1.26-2.92-1.95-4.7-1.95s-3.45.7-4.7,1.95l-.37.37-.37-.37c-1.3-1.3-3-1.95-4.7-1.95s-3.4.66-4.7,1.95C-.03,5.17-.03,9.4,2.56,12.01l9.77,9.8,9.77-9.8c1.26-1.26,1.95-2.93,1.95-4.72s-.69-3.46-1.95-4.72ZM2.12,12.44C-.71,9.6-.71,4.98,2.12,2.13c2.81-2.82,7.37-2.84,10.21-.07,1.36-1.33,3.16-2.06,5.07-2.06s3.76.76,5.13,2.13c1.37,1.37,2.13,3.21,2.13,5.15s-.75,3.78-2.13,5.16l-10.2,10.24L2.12,12.44Z"/>
      </g>
    </g>
  </g>
</svg>