<?xml version="1.0" encoding="UTF-8"?>
<svg id="Layer_2" data-name="Layer 2" xmlns="http://www.w3.org/2000/svg" viewBox="0 0 25.15 23.28">
  <defs>
    <style>
      .cls-1 {
        fill: #fff;
      }

      .cls-2 {
        fill: none;
        stroke: #231f20;
        stroke-miterlimit: 10;
        stroke-width: .5px;
      }

      .cls-3 {
        fill: #010101;
      }
    </style>
  </defs>
  <g id="Layer_1-2" data-name="Layer 1">
    <g id="_1042010433" data-name="1042010433">
      <g>
        <g>
          <path class="cls-3" d="M22.78,2.38c1.37,1.38,2.13,3.21,2.13,5.15s-.75,3.77-2.13,5.15l-10.2,10.24L2.37,12.69c-2.83-2.84-2.83-7.46,0-10.3,2.81-2.82,7.37-2.84,10.21-.07C13.94.98,15.74.25,17.64.25h0c1.94,0,3.76.76,5.13,2.13ZM24.29,7.54c0-1.78-.69-3.46-1.95-4.71-1.25-1.26-2.92-1.95-4.7-1.95s-3.44.7-4.7,1.95l-.37.37-.37-.37c-1.3-1.3-3-1.95-4.7-1.95s-3.41.66-4.7,1.95c-2.59,2.6-2.59,6.83,0,9.43l9.77,9.8,9.76-9.8c1.26-1.26,1.95-2.93,1.95-4.71Z"/>
          <path class="cls-1" d="M22.34,2.82c1.26,1.26,1.95,2.93,1.95,4.71s-.69,3.46-1.95,4.71l-9.76,9.8L2.81,12.25c-2.59-2.6-2.59-6.83,0-9.43,1.29-1.3,3-1.95,4.7-1.95s3.4.65,4.7,1.95l.37.37.37-.37c1.26-1.26,2.92-1.95,4.7-1.95s3.44.69,4.7,1.95Z"/>
        </g>
        <g>
          <path class="cls-2" d="M17.64.25c-1.91,0-3.71.73-5.07,2.06C9.74-.46,5.18-.43,2.37,2.38c-2.83,2.84-2.83,7.46,0,10.3l10.21,10.24,10.2-10.24c1.37-1.37,2.13-3.21,2.13-5.15s-.75-3.77-2.13-5.15c-1.37-1.37-3.19-2.13-5.13-2.13h0Z"/>
          <path class="cls-2" d="M22.34,12.25l-9.76,9.8L2.81,12.25c-2.59-2.6-2.59-6.83,0-9.43,1.29-1.3,3-1.95,4.7-1.95s3.4.65,4.7,1.95l.37.37.37-.37c1.26-1.26,2.92-1.95,4.7-1.95s3.44.69,4.7,1.95c1.26,1.26,1.95,2.93,1.95,4.71s-.69,3.46-1.95,4.71Z"/>
        </g>
      </g>
    </g>
  </g>
</svg>