<?xml version="1.0" encoding="UTF-8"?>
<svg id="Layer_2" data-name="Layer 2" xmlns="http://www.w3.org/2000/svg" viewBox="0 0 25.15 23.47">
  <defs>
    <style>
      .cls-1 {
        fill: #fff;
      }

      .cls-2 {
        fill: none;
        stroke: #231f20;
        stroke-miterlimit: 10;
        stroke-width: .5px;
      }

      .cls-3 {
        fill: #010101;
      }
    </style>
  </defs>
  <g id="Layer_1-2" data-name="Layer 1">
    <g id="_1042010433" data-name="1042010433">
      <g>
        <g>
          <path class="cls-3" d="M22.97,3c1.32,1.43,2,3.29,1.92,5.24s-.91,3.74-2.33,5.06l-10.6,9.82L2.17,12.47C-.54,9.52-.36,4.9,2.58,2.18c2.92-2.7,7.48-2.54,10.2.34,1.42-1.28,3.24-1.94,5.15-1.86h0c1.94.08,3.73.91,5.04,2.34ZM24.28,8.21c.07-1.78-.55-3.48-1.76-4.79-1.2-1.31-2.84-2.07-4.61-2.14s-3.47.56-4.78,1.76l-.38.35-.35-.38c-1.25-1.36-2.92-2.07-4.62-2.14s-3.43.52-4.78,1.76C.31,5.13.14,9.36,2.62,12.06l9.37,10.19,10.15-9.4c1.31-1.21,2.07-2.85,2.14-4.63Z"/>
          <path class="cls-1" d="M22.52,3.42c1.21,1.31,1.83,3.01,1.76,4.79s-.83,3.43-2.14,4.63l-10.15,9.4L2.62,12.06C.14,9.36.31,5.13,3,2.64c1.34-1.25,3.07-1.83,4.78-1.76s3.38.79,4.62,2.14l.35.38.38-.35c1.31-1.21,3-1.83,4.78-1.76s3.41.83,4.61,2.14Z"/>
        </g>
        <g>
          <path class="cls-2" d="M17.93.66c-1.91-.08-3.73.58-5.15,1.86C10.06-.36,5.51-.52,2.58,2.18c-2.94,2.73-3.13,7.34-.42,10.3l9.78,10.64,10.6-9.82c1.43-1.32,2.26-3.12,2.33-5.06s-.6-3.8-1.92-5.24c-1.31-1.43-3.11-2.26-5.04-2.33h0Z"/>
          <path class="cls-2" d="M22.14,12.85l-10.15,9.4L2.62,12.06C.14,9.36.31,5.13,3,2.64c1.34-1.25,3.07-1.83,4.78-1.76s3.38.79,4.62,2.14l.35.38.38-.35c1.31-1.21,3-1.83,4.78-1.76s3.41.83,4.61,2.14c1.21,1.31,1.83,3.01,1.76,4.79s-.83,3.43-2.14,4.63Z"/>
        </g>
      </g>
    </g>
  </g>
</svg>