<?xml version="1.0" encoding="UTF-8"?>
<svg id="Layer_2" data-name="Layer 2" xmlns="http://www.w3.org/2000/svg" viewBox="0 0 28.44 28.35">
  <defs>
    <style>
      .cls-1 {
        fill: #fff;
      }

      .cls-2 {
        fill: #010101;
      }
    </style>
  </defs>
  <g id="Layer_1-2" data-name="Layer 1">
    <g>
      <path class="cls-1" d="M27.08,3.63c.29.28.44.66.44,1.06s-.15.78-.44,1.07c-.45.45-1.14.57-1.72.29-.47-.22-1.02-.13-1.38.24l-1.22,1.21c-.42-.77-.96-1.48-1.59-2.11l.94-.95c.37-.37.46-.91.24-1.38-.27-.58-.15-1.26.3-1.71.59-.59,1.55-.59,2.14,0,.23.23.37.52.43.84.08.53.49.94,1.02,1.02.31.05.6.19.84.42Z"/>
      <path class="cls-1" d="M23.98,22.05c.37.37.91.46,1.38.24.58-.27,1.26-.15,1.72.29.59.58.59,1.55,0,2.13-.23.23-.52.38-.84.43-.53.08-.94.49-1.02,1.01-.05.32-.2.61-.43.84-.29.29-.67.45-1.07.45s-.78-.16-1.07-.45c-.45-.45-.57-1.14-.3-1.71.22-.47.13-1.01-.24-1.37l-1.57-1.57c.92-.19,1.67-.84,2.01-1.71l1.42,1.42Z"/>
      <path class="cls-2" d="M19.4,14.96c-.16-.12-.35-.17-.56-.13l-.28.05c-.56.11-1.14.23-1.56.33-.11.03-.2.09-.26.19-.05.09-.07.21-.03.31l.23.78c.07.21.21.43.44.45l1.43.13c.25.02.44-.04.6-.19.2-.19.31-.54.29-.88l-.03-.56c-.02-.2-.11-.38-.27-.5ZM20.05,17.55c-.3.29-.7.45-1.14.45-.06,0-.11,0-.17,0l-1.44-.13c-.29-.03-.54-.14-.76-.33-.21-.19-.39-.45-.48-.77l-.23-.78c-.11-.35-.07-.72.11-1.04s.49-.54.84-.63c.43-.1,1.02-.22,1.59-.33l.28-.05c.45-.09.93.01,1.3.29s.6.71.63,1.17l.03.56c.03.4-.05.79-.22,1.12-.09.17-.21.33-.34.47Z"/>
      <path class="cls-2" d="M15.13,20.3s.02-.05,0-.07l-.84-2.12s-.02-.05-.07-.05c-.06,0-.08.04-.08.05l-.84,2.12s-.01.05,0,.07c.01.03.04.04.07.04h1.67s.05-.01.07-.04ZM15.89,20.81c-.19.27-.49.44-.83.44h-1.67c-.33,0-.64-.17-.83-.44s-.23-.62-.1-.93l.83-2.11c.04-.09.09-.19.15-.26.19-.23.47-.37.78-.37.36,0,.69.19.86.5.03.04.05.09.07.13l.84,2.11c.13.31.09.66-.1.93Z"/>
      <path class="cls-2" d="M9.7,17.99c-.05,0-.11.01-.17.01-.44,0-.83-.16-1.14-.45-.09-.09-.17-.19-.24-.29-.23-.36-.35-.82-.32-1.29l.03-.57c.03-.46.26-.89.63-1.17s.84-.38,1.3-.29l.28.06c.57.11,1.15.23,1.59.33.35.08.66.31.84.62s.22.7.11,1.04l-.23.78c-.07.24-.19.45-.33.62-.24.28-.56.45-.91.49l-1.44.12ZM9.62,17.08l1.44-.13c.23-.02.37-.25.43-.45l.24-.78c.03-.11.02-.21-.03-.31-.06-.1-.15-.17-.26-.19-.42-.1-1-.21-1.56-.33l-.28-.05s-.09-.02-.14-.02c-.15,0-.29.05-.41.15-.16.12-.25.3-.27.5l-.03.56c-.03.34.09.68.29.88.15.15.34.21.59.19Z"/>
      <path class="cls-1" d="M14.22,3.38c4.88,0,8.86,3.96,8.86,8.82-.07,2.43-.73,3.77-1.57,4.99l-1.12-.11c.17-.33.25-.72.22-1.12l-.03-.56c-.03-.46-.26-.89-.63-1.17s-.84-.39-1.3-.29l-.28.05c-.56.11-1.15.23-1.59.33-.35.09-.66.31-.84.63s-.22.69-.11,1.04l.23.78c.09.31.27.58.48.77l-1.46.1c-.17-.31-.5-.5-.86-.5-.31,0-.6.14-.78.37l-1.39-.13c.14-.17.25-.37.33-.62l.23-.78c.11-.35.07-.73-.11-1.04s-.49-.54-.84-.62c-.43-.11-1.02-.22-1.59-.33l-.28-.06c-.45-.09-.93.01-1.3.29s-.6.71-.63,1.17l-.03.57c-.03.47.09.93.32,1.29l-1.04.19c-.92-1.28-1.67-2.64-1.75-5.24,0-4.86,3.98-8.82,8.86-8.82Z"/>
      <path class="cls-1" d="M9.53,18.01c.06,0,.12,0,.17-.01l1.44-.12c.35-.03.67-.21.91-.49l1.39.13c-.06.07-.11.17-.15.26l-.83,2.11c-.13.31-.09.66.1.93s.5.44.83.44h1.67c.33,0,.64-.17.83-.44s.23-.62.1-.93l-.84-2.11s-.04-.09-.07-.13l1.46-.1c.21.19.47.3.76.33l1.44.13c.06,0,.11,0,.17,0,.44,0,.84-.15,1.14-.45.13-.13.25-.29.34-.47l1.12.11c-.12.17-.25.34-.37.52-.13.19-.11.45.07.61.39.35.61.84.61,1.35,0,.99-.81,1.8-1.81,1.8-.34,0-.68-.09-.96-.27-.14-.09-.31-.09-.46-.01s-.24.23-.24.4v1.14c0,.98-.64,1.81-1.53,2.11v-.93c0-.25-.21-.46-.46-.46s-.45.21-.45.46v1.04h-1.22v-1.04c0-.25-.2-.46-.45-.46s-.46.21-.46.46v1.04h-1.22v-1.04c0-.25-.2-.46-.45-.46s-.46.21-.46.46v.93c-.88-.3-1.53-1.14-1.53-2.11v-1.14c0-.17-.09-.32-.23-.4-.07-.04-.15-.06-.23-.06-.09,0-.17.03-.24.07-.29.18-.62.27-.96.27-1,0-1.81-.81-1.81-1.8,0-.52.22-1,.61-1.35.18-.15.21-.42.07-.61-.06-.09-.13-.17-.19-.26l1.04-.19c.07.11.15.21.24.29.31.29.7.45,1.14.45Z"/>
      <path class="cls-1" d="M7.27,5.39c-.64.64-1.16,1.35-1.6,2.11l-1.21-1.2c-.37-.37-.91-.46-1.38-.24-.58.27-1.26.15-1.71-.3-.29-.28-.45-.66-.45-1.06s.16-.78.45-1.06c.23-.23.52-.38.84-.43.53-.08.94-.49,1.02-1.01.05-.32.19-.61.43-.84.59-.59,1.55-.59,2.13,0,.45.45.58,1.14.3,1.71-.22.47-.13,1.01.24,1.37l.95.95Z"/>
      <path class="cls-1" d="M3.08,22.29c.47.22,1.01.13,1.38-.24l1.43-1.42c.33.86,1.08,1.52,2.01,1.71l-1.57,1.57c-.37.37-.47.91-.24,1.38.27.58.15,1.26-.3,1.71-.29.28-.67.44-1.07.44s-.78-.15-1.07-.44c-.23-.23-.37-.52-.43-.84-.08-.53-.49-.94-1.02-1.01-.31-.05-.6-.2-.84-.43-.28-.28-.44-.66-.44-1.06s.15-.78.44-1.07c.45-.45,1.14-.57,1.72-.29Z"/>
      <path class="cls-2" d="M7.89,22.33c-.92-.19-1.68-.84-2.01-1.71l-1.43,1.42c-.37.37-.91.46-1.38.24-.58-.27-1.27-.15-1.72.29-.29.29-.44.67-.44,1.07s.16.78.44,1.06c.23.23.52.37.84.43.53.07.94.48,1.02,1.01.05.32.2.61.43.84.29.29.67.44,1.07.44s.78-.16,1.07-.44c.45-.45.58-1.14.3-1.71-.23-.47-.13-1.01.24-1.38l1.57-1.57ZM5.67,7.5c.43-.76.96-1.48,1.6-2.11l-.95-.95c-.37-.36-.46-.9-.24-1.37.27-.58.15-1.26-.3-1.71-.59-.59-1.55-.59-2.13,0-.23.23-.38.52-.43.84-.08.52-.49.93-1.02,1.01-.32.05-.61.2-.84.43-.29.28-.45.66-.45,1.06s.16.78.45,1.06c.45.45,1.14.58,1.71.3.47-.22,1.02-.13,1.38.24l1.21,1.2ZM23.08,12.21c0-4.86-3.97-8.82-8.86-8.82S5.36,7.34,5.36,12.21c.08,2.6.83,3.96,1.75,5.24.06.09.13.17.19.26.14.19.11.45-.07.61-.39.35-.61.84-.61,1.35,0,.99.82,1.8,1.81,1.8.33,0,.67-.09.96-.27.07-.05.15-.07.24-.07.08,0,.15.02.23.06.14.08.23.23.23.4v1.14c0,.98.64,1.81,1.53,2.11v-.93c0-.25.21-.46.46-.46s.45.21.45.46v1.04h1.22v-1.04c0-.25.21-.46.46-.46s.45.21.45.46v1.04h1.22v-1.04c0-.25.2-.46.45-.46s.46.21.46.46v.93c.89-.3,1.53-1.14,1.53-2.11v-1.14c0-.17.09-.32.24-.4s.32-.08.46.01c.29.18.62.27.96.27,1,0,1.81-.81,1.81-1.8,0-.52-.22-1-.61-1.35-.17-.15-.2-.42-.07-.61.13-.17.25-.34.37-.52.84-1.22,1.49-2.56,1.57-4.99ZM25.36,22.29c-.47.22-1.02.13-1.38-.24l-1.42-1.42c-.33.86-1.08,1.52-2.01,1.71l1.57,1.57c.37.36.46.9.24,1.37-.27.58-.15,1.26.3,1.71.29.29.67.45,1.07.45s.78-.16,1.07-.45c.23-.23.37-.52.43-.84.08-.52.49-.93,1.02-1.01.31-.05.61-.2.84-.43.59-.58.59-1.55,0-2.13-.45-.45-1.14-.57-1.72-.29ZM23.99,6.3c.36-.37.91-.46,1.38-.24.58.27,1.27.15,1.72-.29.29-.29.44-.66.44-1.07s-.15-.78-.44-1.06c-.23-.23-.52-.37-.84-.42-.53-.08-.94-.49-1.02-1.02-.05-.32-.2-.61-.43-.84-.59-.59-1.55-.59-2.14,0-.45.45-.57,1.14-.3,1.71.22.47.13,1.01-.24,1.38l-.94.95c.64.64,1.17,1.34,1.59,2.11l1.22-1.21ZM23.99,12.21h0c-.09,2.84-.92,4.37-1.89,5.73.36.44.58.98.62,1.56l1.91,1.91c.09.09.22.11.34.05.93-.43,2.03-.24,2.76.48.95.94.95,2.48,0,3.42-.37.37-.84.6-1.34.68-.13.02-.23.11-.25.25-.08.52-.31.98-.68,1.34-.46.45-1.07.71-1.72.71s-1.26-.25-1.72-.71c-.72-.72-.92-1.83-.47-2.75.05-.12.03-.25-.06-.34l-2.21-2.21v.39c0,1.74-1.42,3.14-3.16,3.14h-3.77c-1.74,0-3.16-1.4-3.16-3.14v-.39l-2.21,2.21c-.09.09-.11.22-.06.34.44.92.25,2.03-.47,2.75-.46.45-1.07.71-1.72.71s-1.26-.25-1.72-.71c-.37-.37-.6-.83-.68-1.34-.02-.13-.12-.23-.25-.25-.52-.08-.98-.31-1.35-.68-.46-.45-.71-1.06-.71-1.71s.25-1.26.71-1.72c.72-.72,1.83-.91,2.76-.47.13.06.25.03.34-.06l1.91-1.9c.03-.58.25-1.12.62-1.57-.97-1.35-1.81-2.89-1.89-5.71v-.02c0-1.34.27-2.64.8-3.84l-1.43-1.42c-.09-.09-.22-.11-.34-.06-.93.44-2.03.25-2.76-.47-.46-.45-.71-1.06-.71-1.71s.25-1.26.71-1.71c.37-.37.84-.6,1.35-.68.13-.02.23-.11.25-.25.08-.52.32-.98.69-1.34.94-.94,2.49-.94,3.43,0,.73.73.92,1.83.48,2.76-.06.12-.04.24.06.34l.97.96c1.76-1.48,3.96-2.29,6.28-2.29s4.52.81,6.28,2.29l.97-.96c.1-.1.12-.23.06-.34-.44-.92-.25-2.03.48-2.76.94-.94,2.49-.94,3.43,0,.37.37.61.84.69,1.34.02.13.11.23.25.25.52.08.98.32,1.35.68.45.46.71,1.07.71,1.71s-.25,1.26-.71,1.71c-.73.72-1.84.92-2.76.48-.12-.06-.25-.04-.34.05l-1.43,1.43c.52,1.2.8,2.5.8,3.84Z"/>
    </g>
  </g>
</svg>