<?xml version="1.0" encoding="UTF-8"?>
<svg id="Layer_2" data-name="Layer 2" xmlns="http://www.w3.org/2000/svg" viewBox="0 0 28.44 28.35">
  <defs>
    <style>
      .cls-1 {
        fill: #231f20;
      }

      .cls-2 {
        fill: #fff;
      }
    </style>
  </defs>
  <g id="Layer_1-2" data-name="Layer 1">
    <g>
      <g>
        <path class="cls-1" d="M26.95,3.74c.28.28.44.66.44,1.05s-.15.77-.44,1.06c-.44.44-1.13.56-1.7.29-.46-.22-1.01-.13-1.36.24l-1.2,1.2c-.42-.76-.95-1.46-1.58-2.09l.93-.94c.36-.36.46-.9.24-1.36-.26-.57-.15-1.25.3-1.69.58-.58,1.54-.58,2.12,0,.23.23.37.51.42.83.08.52.48.93,1.01,1.01.31.05.6.19.83.42Z"/>
        <path class="cls-2" d="M22.64,7.83l-.09-.17c-.41-.74-.93-1.44-1.55-2.06l-.1-.1,1.04-1.04c.32-.32.4-.79.21-1.2-.29-.63-.16-1.38.33-1.86.31-.31.72-.48,1.16-.48s.85.17,1.16.48c.25.25.41.56.46.91.07.46.42.81.88.88.34.05.65.21.91.46h0c.31.3.48.72.48,1.16s-.17.85-.48,1.16c-.49.49-1.24.62-1.87.32-.41-.19-.88-.11-1.19.21l-1.35,1.34ZM21.31,5.49c.55.56,1.02,1.19,1.4,1.85l1.07-1.06c.4-.4,1.01-.51,1.53-.27.52.25,1.13.14,1.53-.26.26-.26.39-.59.39-.95s-.14-.7-.39-.95h0c-.21-.21-.47-.34-.75-.38-.59-.09-1.04-.54-1.13-1.13-.05-.28-.18-.54-.38-.74-.51-.51-1.4-.51-1.91,0-.4.4-.51,1.01-.27,1.53.25.52.14,1.12-.27,1.53l-.83.84Z"/>
      </g>
      <g>
        <path class="cls-1" d="M23.88,21.97c.36.36.9.46,1.37.24.57-.27,1.25-.15,1.7.29.58.58.58,1.53,0,2.1-.23.23-.52.38-.83.42-.52.08-.93.48-1.01,1-.05.32-.2.6-.42.83-.28.28-.66.44-1.06.44s-.77-.16-1.06-.44c-.44-.44-.56-1.13-.3-1.69.22-.46.13-1-.24-1.36l-1.56-1.56c.91-.19,1.65-.83,1.99-1.69l1.41,1.41Z"/>
        <path class="cls-2" d="M23.63,27.45c-.44,0-.85-.17-1.16-.49-.49-.49-.62-1.24-.33-1.86.19-.41.11-.88-.21-1.19l-1.75-1.75.27-.06c.86-.17,1.56-.77,1.88-1.6l.08-.21,1.57,1.57c.32.32.79.4,1.2.21.62-.3,1.37-.17,1.87.32.31.31.48.72.48,1.16s-.17.85-.48,1.16c-.25.25-.57.42-.91.47-.46.07-.81.42-.88.87-.06.35-.22.66-.47.91-.31.31-.73.49-1.16.49ZM20.77,22.33l1.37,1.37c.41.4.52,1,.27,1.53-.24.51-.13,1.13.27,1.53.51.52,1.39.52,1.91,0,.2-.2.34-.46.38-.75.09-.58.54-1.03,1.13-1.12.27-.04.54-.18.74-.38.25-.25.39-.59.39-.95s-.14-.7-.39-.95c-.41-.4-1.02-.51-1.53-.26-.53.24-1.13.14-1.54-.27l-1.26-1.26c-.35.73-.98,1.28-1.75,1.51Z"/>
      </g>
      <g>
        <path class="cls-1" d="M19.34,14.95c-.16-.12-.35-.17-.55-.13l-.28.05c-.56.11-1.13.23-1.54.33-.11.03-.2.09-.26.19-.05.09-.07.21-.03.31l.23.77c.07.21.21.43.44.45l1.42.13c.25.02.44-.04.59-.19.2-.19.31-.53.29-.87l-.03-.56c-.02-.2-.11-.38-.27-.5ZM19.99,17.52c-.3.29-.69.44-1.13.44-.06,0-.11,0-.17,0l-1.42-.13c-.28-.03-.54-.14-.75-.32-.21-.19-.38-.45-.48-.76l-.23-.77c-.11-.34-.07-.71.11-1.03s.48-.54.83-.62c.43-.1,1.01-.22,1.57-.33l.28-.05c.45-.09.92.01,1.28.29s.6.7.62,1.16l.03.56c.03.4-.05.78-.22,1.11-.09.17-.21.33-.34.46Z"/>
        <path class="cls-2" d="M18.87,18.11c-.07,0-.12,0-.19,0l-1.42-.13c-.31-.03-.59-.15-.83-.36-.25-.22-.43-.51-.52-.83l-.23-.77c-.12-.38-.07-.8.13-1.14s.54-.6.93-.69c.43-.1,1.02-.22,1.58-.33l.28-.05c.49-.1,1,.01,1.4.32.4.31.65.77.68,1.27l.03.56c.03.42-.05.83-.23,1.19-.11.2-.23.36-.37.5h0c-.32.32-.75.49-1.23.49ZM18.93,14.05c-.1,0-.2,0-.29.03l-.28.05c-.55.11-1.13.23-1.56.33-.31.08-.58.28-.74.55-.16.27-.19.6-.1.91l.23.77c.08.27.23.51.43.69.19.17.41.26.66.29l1.42.13c.06,0,.1,0,.16,0,.4,0,.75-.14,1.02-.4.12-.12.22-.26.31-.43.15-.31.22-.67.2-1.03l-.03-.56c-.02-.41-.23-.79-.56-1.05-.25-.19-.56-.29-.87-.29ZM18.86,17.2s-.07,0-.1,0l-1.42-.13c-.25-.02-.46-.23-.56-.55l-.23-.78c-.04-.14-.03-.3.05-.43.08-.13.2-.22.35-.26.36-.09.87-.19,1.55-.33l.28-.05c.24-.05.47,0,.67.15.19.14.31.35.33.6l.03.56c.02.38-.11.76-.34.98-.16.16-.36.23-.6.23ZM18.93,14.96s-.07,0-.11.01l-.28.05c-.67.14-1.18.24-1.54.33-.08.02-.13.05-.17.12-.03.06-.04.13-.02.19l.23.78c.05.16.16.33.31.34l1.42.13c.21.02.35-.03.47-.14.17-.16.26-.46.25-.75l-.03-.56c-.02-.16-.09-.3-.21-.39-.1-.07-.21-.11-.32-.11Z"/>
      </g>
      <g>
        <path class="cls-1" d="M15.12,20.24s.02-.05,0-.07l-.83-2.1s-.02-.05-.07-.05c-.06,0-.08.04-.08.05l-.83,2.1s-.01.05,0,.07c.01.03.04.04.07.04h1.65s.05-.01.07-.04ZM15.87,20.75c-.19.27-.49.44-.82.44h-1.65c-.32,0-.64-.17-.82-.44s-.23-.61-.1-.92l.82-2.09c.04-.09.09-.19.15-.26.19-.23.47-.37.77-.37.36,0,.68.19.85.5.03.04.05.09.07.13l.83,2.09c.13.31.09.65-.1.92Z"/>
        <path class="cls-2" d="M15.05,21.33h-1.66c-.37,0-.73-.19-.94-.5-.22-.32-.26-.7-.11-1.06l.82-2.09c.03-.08.09-.2.17-.3.22-.27.54-.42.89-.42.41,0,.78.22.98.57.03.04.05.09.07.15l.83,2.1c.14.36.1.74-.11,1.06h0c-.21.31-.57.5-.94.5ZM14.22,17.25c-.26,0-.5.11-.66.32-.05.06-.09.14-.13.22l-.82,2.09c-.11.26-.08.55.08.78.16.23.42.37.7.37h1.66c.28,0,.54-.14.7-.37h0c.16-.23.19-.52.09-.78l-.83-2.09s-.03-.07-.05-.11c-.15-.27-.43-.43-.73-.43ZM15.05,20.42h-1.65c-.08,0-.15-.04-.19-.1-.05-.06-.06-.15-.02-.23l.82-2.07c.02-.08.1-.16.22-.16.11,0,.2.08.22.16l.82,2.09c.03.06.02.14-.02.21h0s-.08.11-.19.11ZM14.99,20.22s0,0,0,.01h0ZM13.46,20.21h0s0,0,0,0ZM13.49,20.13h1.46l-.73-1.85-.73,1.85Z"/>
      </g>
      <g>
        <path class="cls-1" d="M9.75,17.95c-.05,0-.11.01-.17.01-.44,0-.82-.16-1.13-.45-.09-.09-.17-.19-.24-.29-.23-.36-.35-.81-.32-1.28l.03-.56c.03-.46.26-.88.62-1.16s.83-.38,1.28-.29l.28.06c.56.11,1.14.23,1.57.33.35.08.66.3.83.62s.22.69.11,1.03l-.23.77c-.07.24-.19.44-.32.61-.24.28-.55.45-.9.48l-1.42.12ZM9.67,17.05l1.42-.13c.23-.02.37-.24.43-.45l.24-.77c.03-.11.02-.21-.03-.31-.06-.1-.15-.17-.26-.19-.42-.1-.99-.21-1.54-.32l-.28-.05s-.09-.02-.14-.02c-.15,0-.29.05-.41.15-.16.12-.25.3-.26.5l-.03.56c-.03.34.09.68.28.87.15.15.34.21.58.19Z"/>
        <path class="cls-2" d="M9.57,18.11c-.47,0-.89-.17-1.23-.49-.1-.09-.19-.2-.26-.32-.25-.39-.37-.88-.34-1.37l.03-.56c.04-.5.28-.96.68-1.27.39-.3.9-.42,1.4-.32l.46.1c.49.1,1.01.2,1.39.3.39.09.73.34.93.69.2.34.24.76.13,1.15l-.23.77c-.08.25-.2.47-.35.66-.27.31-.61.5-1,.54l-1.42.12c-.06,0-.12.01-.19.01ZM9.51,14.05c-.32,0-.63.1-.88.29-.33.25-.53.63-.56,1.05l-.03.56c-.03.43.07.85.29,1.19.06.1.14.19.21.26.28.27.63.41,1.02.41.05,0,.11,0,.15-.01h0s1.42-.12,1.42-.12c.31-.03.58-.18.8-.43.13-.16.23-.34.3-.56l.23-.77c.09-.31.06-.64-.1-.92-.16-.28-.43-.47-.74-.54-.38-.09-.89-.2-1.38-.29l-.46-.1c-.09-.02-.19-.03-.29-.03ZM9.58,17.2c-.24,0-.45-.08-.6-.23-.23-.23-.36-.6-.33-.98l.03-.55c.02-.25.13-.46.32-.61.19-.15.45-.22.68-.15l.51.1c.48.1.95.19,1.31.28.15.04.27.13.35.26.08.14.09.29.05.43l-.24.77c-.07.25-.26.53-.56.55l-1.43.13s-.07,0-.1,0ZM9.51,14.95c-.11,0-.23.04-.32.11-.12.09-.2.23-.21.39l-.03.55c-.02.29.07.59.24.75.11.11.25.16.47.14l1.42-.13c.15-.01.26-.19.3-.34l.24-.78c.02-.07.01-.13-.02-.2-.04-.06-.09-.1-.16-.12-.36-.08-.82-.18-1.3-.27l-.52-.1s-.08-.02-.11-.02Z"/>
      </g>
      <g>
        <path class="cls-1" d="M14.22,3.5c4.83,0,8.76,3.92,8.76,8.73-.07,2.4-.72,3.73-1.55,4.94l-1.11-.11c.17-.33.24-.71.22-1.11l-.03-.56c-.03-.46-.26-.88-.62-1.16s-.83-.38-1.28-.29l-.28.05c-.56.11-1.14.23-1.57.33-.35.09-.66.31-.83.62s-.22.68-.11,1.03l.23.77c.09.31.26.57.48.76l-1.45.1c-.17-.3-.5-.5-.85-.5-.3,0-.59.14-.77.37l-1.38-.13c.14-.17.25-.37.32-.61l.23-.77c.11-.34.07-.72-.11-1.03s-.48-.54-.83-.62c-.43-.11-1.01-.22-1.57-.33l-.28-.06c-.45-.09-.92.01-1.28.29s-.59.7-.62,1.16l-.03.56c-.03.46.09.92.32,1.28l-1.03.19c-.91-1.27-1.65-2.61-1.73-5.19,0-4.81,3.94-8.73,8.77-8.73Z"/>
        <path class="cls-2" d="M14.99,17.76l-.05-.08c-.15-.26-.42-.42-.72-.42-.26,0-.5.11-.66.32l-.05.06-1.74-.16.18-.22c.13-.16.23-.34.3-.56l.23-.77c.09-.31.06-.64-.1-.92-.16-.28-.43-.47-.74-.54-.38-.09-.89-.2-1.38-.29l-.46-.1c-.41-.08-.84.02-1.16.26-.33.25-.53.63-.56,1.05l-.03.56c-.03.43.07.85.29,1.19l.12.19-1.34.25-.06-.08c-.85-1.18-1.68-2.55-1.76-5.27,0-4.9,4.01-8.88,8.92-8.88s8.91,3.98,8.91,8.88c-.07,2.37-.68,3.72-1.58,5.02l-.05.07-1.41-.14.1-.19c.16-.31.23-.67.2-1.04l-.03-.56c-.02-.41-.23-.79-.56-1.05-.33-.25-.75-.35-1.16-.26l-.28.05c-.55.11-1.13.23-1.56.33-.31.08-.58.28-.74.55-.16.27-.19.6-.1.91l.23.77c.08.27.23.51.43.69l.26.23-1.89.13ZM14.22,16.96c.37,0,.72.19.93.49l1.05-.07c-.13-.18-.24-.38-.3-.59l-.23-.77c-.12-.38-.07-.8.13-1.14s.54-.6.93-.69c.43-.1,1.02-.22,1.58-.33l.28-.05c.49-.1,1,.01,1.4.32.4.31.65.77.68,1.27l.03.56c.02.34-.03.68-.15.99l.81.08c.84-1.23,1.4-2.54,1.47-4.78,0-4.73-3.86-8.58-8.61-8.58S5.61,7.5,5.6,12.23c.08,2.57.85,3.9,1.65,5.03l.73-.14c-.18-.35-.26-.77-.23-1.18l.03-.56c.04-.5.28-.96.68-1.27.39-.3.9-.42,1.4-.32l.46.1c.49.1,1.01.2,1.39.3.39.09.73.34.93.69.2.34.24.76.13,1.15l-.23.77c-.05.16-.11.31-.2.44l1.04.1c.22-.23.52-.36.84-.36Z"/>
      </g>
      <g>
        <path class="cls-1" d="M9.57,17.97c.06,0,.12,0,.17-.01l1.42-.12c.35-.03.66-.21.9-.48l1.38.13c-.06.07-.11.17-.15.26l-.82,2.09c-.13.31-.09.65.1.92s.5.44.82.44h1.65c.33,0,.64-.17.82-.44s.23-.61.1-.92l-.83-2.09s-.04-.09-.07-.13l1.45-.1c.21.19.46.3.75.32l1.42.13c.06,0,.11,0,.17,0,.44,0,.83-.15,1.13-.44.13-.13.24-.29.34-.46l1.11.11c-.12.17-.24.34-.37.51-.13.19-.11.45.07.6.38.34.6.83.6,1.34,0,.98-.8,1.78-1.79,1.78-.34,0-.67-.09-.95-.27-.14-.09-.31-.09-.46-.01s-.24.23-.24.4v1.13c0,.97-.63,1.79-1.51,2.09v-.92c0-.25-.21-.46-.46-.46s-.45.21-.45.46v1.03h-1.21v-1.03c0-.25-.2-.46-.45-.46s-.46.21-.46.46v1.03h-1.21v-1.03c0-.25-.2-.46-.45-.46s-.46.21-.46.46v.92c-.87-.3-1.51-1.13-1.51-2.09v-1.13c0-.17-.09-.32-.23-.4-.07-.04-.15-.06-.23-.06-.09,0-.17.03-.24.07-.28.18-.62.27-.95.27-.99,0-1.79-.8-1.79-1.78,0-.51.22-.99.6-1.34.18-.15.21-.42.07-.6-.06-.09-.13-.17-.19-.26l1.03-.19c.07.11.15.21.24.29.3.29.69.45,1.13.45Z"/>
        <path class="cls-2" d="M16.03,24.99h-1.51v-1.18c0-.17-.13-.31-.3-.31s-.31.14-.31.31v1.18h-1.51v-1.18c0-.17-.13-.31-.3-.31s-.31.14-.31.31v1.13l-.2-.07c-.96-.33-1.61-1.23-1.61-2.23v-1.13c0-.11-.06-.21-.16-.27-.1-.05-.21-.06-.31,0-.31.19-.66.29-1.03.29-1.07,0-1.94-.87-1.94-1.93,0-.55.24-1.08.65-1.45.12-.1.14-.28.05-.4l-.32-.45,1.35-.25.05.09c.06.1.14.19.21.26.28.27.63.41,1.02.41.05,0,.11,0,.15-.01l1.43-.12c.31-.03.58-.18.8-.43l.05-.06,1.73.16-.18.22c-.05.06-.09.14-.13.22l-.82,2.09c-.11.26-.08.55.08.78.16.23.42.37.7.37h1.66c.28,0,.54-.14.7-.37.16-.23.19-.52.09-.78l-.83-2.09s-.03-.07-.05-.11l-.14-.21,1.76-.12.05.04c.19.17.42.26.66.29l1.42.13c.06,0,.09,0,.16,0,.4,0,.75-.14,1.02-.4.11-.12.22-.26.31-.43l.05-.09,1.45.15-.14.21c-.09.12-.17.24-.26.37l-.11.15c-.09.12-.07.3.04.4.41.37.65.9.65,1.45,0,1.06-.87,1.93-1.94,1.93-.37,0-.72-.1-1.03-.29-.09-.06-.2-.06-.31,0-.1.06-.16.15-.16.27v1.13c0,1.01-.65,1.91-1.61,2.23l-.2.07v-1.13c0-.17-.14-.31-.31-.31s-.3.14-.3.31v1.18ZM14.82,24.69h.91v-.88c0-.33.27-.6.6-.6s.61.27.61.6v.7c.73-.33,1.21-1.06,1.21-1.87v-1.13c0-.22.12-.42.32-.53.2-.11.43-.1.61.02.26.16.56.25.87.25.9,0,1.64-.73,1.64-1.63,0-.46-.2-.91-.55-1.23-.23-.2-.26-.55-.09-.8l.11-.15c.04-.05.07-.1.11-.15l-.75-.08c-.09.16-.2.29-.31.41-.37.36-.88.54-1.42.48l-1.42-.13c-.29-.03-.55-.13-.78-.32l-1.17.08.81,2.04c.14.36.1.74-.11,1.06-.21.31-.57.5-.94.5h-1.66c-.37,0-.73-.19-.94-.5-.22-.32-.26-.7-.11-1.06l.82-2.09s.02-.05.04-.08l-1.06-.1c-.26.28-.59.44-.95.48l-1.43.12c-.05,0-.12.01-.18.01-.47,0-.89-.17-1.23-.49-.07-.07-.14-.15-.2-.23l-.7.13.05.07c.18.25.15.6-.09.8-.35.31-.55.76-.55,1.22,0,.9.74,1.63,1.65,1.63.31,0,.61-.09.87-.25.19-.12.41-.13.61-.02.19.11.31.31.31.53v1.13c0,.81.48,1.54,1.21,1.87v-.7c0-.33.27-.6.61-.6s.6.27.6.6v.88h.91v-.88c0-.33.27-.6.6-.6s.6.27.6.6v.88Z"/>
      </g>
      <g>
        <path class="cls-1" d="M7.34,5.48c-.63.63-1.15,1.34-1.58,2.09l-1.2-1.19c-.36-.36-.9-.46-1.37-.24-.57.27-1.25.15-1.69-.3-.28-.28-.44-.66-.44-1.05s.16-.77.44-1.05c.23-.23.51-.38.83-.42.52-.08.93-.48,1.01-1,.05-.32.19-.6.42-.83.58-.58,1.53-.58,2.11,0,.45.44.57,1.13.3,1.69-.22.46-.13,1,.24,1.36l.94.94Z"/>
        <path class="cls-2" d="M5.79,7.82l-1.34-1.33c-.32-.32-.79-.4-1.2-.21-.63.3-1.37.17-1.86-.33-.31-.3-.49-.72-.49-1.16s.17-.85.49-1.16c.25-.25.57-.41.91-.46.46-.07.81-.42.88-.88.05-.35.21-.66.47-.91.31-.31.72-.48,1.16-.48s.85.17,1.16.48c.49.49.63,1.23.33,1.86-.19.41-.11.87.21,1.19l1.05,1.05-.1.1c-.59.59-1.12,1.29-1.56,2.06l-.1.17ZM3.71,5.88c.35,0,.69.14.95.4l1.06,1.06c.41-.69.88-1.31,1.4-1.85l-.84-.84c-.41-.4-.52-1-.27-1.53.24-.51.14-1.13-.27-1.52-.51-.51-1.4-.51-1.9,0-.21.2-.34.46-.38.74-.09.58-.54,1.04-1.13,1.13-.28.04-.54.17-.74.38-.26.25-.4.59-.4.95s.14.7.4.95c.4.41,1.01.51,1.53.27.19-.09.39-.13.58-.13Z"/>
      </g>
      <g>
        <path class="cls-1" d="M3.19,22.2c.46.22,1,.13,1.36-.24l1.42-1.41c.32.85,1.07,1.5,1.99,1.69l-1.56,1.56c-.36.36-.46.9-.24,1.36.27.57.15,1.25-.3,1.69-.28.28-.66.44-1.06.44s-.77-.15-1.06-.44c-.23-.23-.37-.51-.42-.83-.08-.52-.48-.93-1.01-1-.31-.05-.6-.2-.83-.42-.28-.28-.44-.66-.44-1.05s.15-.77.44-1.06c.44-.44,1.13-.56,1.7-.29Z"/>
        <path class="cls-2" d="M4.81,27.44c-.44,0-.85-.17-1.16-.48-.25-.25-.41-.56-.46-.91-.07-.46-.42-.81-.88-.88-.35-.06-.66-.22-.91-.46-.31-.31-.48-.72-.48-1.16s.17-.85.48-1.16c.49-.49,1.24-.62,1.87-.32h0c.41.19.88.11,1.2-.21l1.58-1.57.08.21c.31.81,1.03,1.42,1.88,1.59l.27.06-1.75,1.75c-.32.32-.4.79-.21,1.19.3.63.17,1.38-.33,1.86-.32.31-.73.48-1.16.48ZM2.55,22.2c-.35,0-.69.14-.95.39-.25.25-.39.59-.39.95s.14.69.39.95c.21.2.46.33.75.38.58.08,1.04.53,1.13,1.12.05.28.18.54.38.74.5.5,1.38.51,1.91,0,.4-.4.51-1.01.27-1.52-.25-.52-.15-1.12.27-1.53l1.37-1.37c-.76-.23-1.4-.79-1.75-1.51l-1.26,1.26c-.41.41-1.01.51-1.53.27h0c-.18-.09-.38-.13-.58-.13Z"/>
      </g>
      <g>
        <path class="cls-1" d="M7.96,22.24c-.91-.19-1.66-.83-1.99-1.69l-1.42,1.41c-.36.36-.9.46-1.36.24-.57-.27-1.26-.15-1.7.29-.28.28-.44.66-.44,1.06s.16.77.44,1.05c.23.23.52.37.83.42.52.07.93.48,1.01,1,.05.32.2.6.42.83.28.28.66.44,1.06.44s.77-.16,1.06-.44c.45-.44.57-1.13.3-1.69-.23-.46-.13-1,.24-1.36l1.56-1.56ZM5.76,7.57c.43-.75.95-1.46,1.58-2.09l-.94-.94c-.36-.36-.46-.89-.24-1.36.27-.57.15-1.25-.3-1.69-.58-.58-1.53-.58-2.11,0-.23.23-.38.51-.42.83-.08.52-.48.92-1.01,1-.32.05-.6.2-.83.42-.28.28-.44.66-.44,1.05s.16.77.44,1.05c.44.45,1.13.57,1.69.3.47-.22,1.01-.13,1.37.24l1.2,1.19ZM22.98,12.23c0-4.81-3.93-8.73-8.76-8.73S5.46,7.42,5.45,12.23c.08,2.57.82,3.92,1.73,5.19.06.09.13.17.19.26.14.19.11.45-.07.6-.38.34-.6.83-.6,1.34,0,.98.81,1.78,1.79,1.78.33,0,.66-.09.95-.27.07-.05.15-.07.24-.07.08,0,.15.02.23.06.14.08.23.23.23.4v1.13c0,.97.64,1.79,1.51,2.09v-.92c0-.25.21-.46.46-.46s.45.21.45.46v1.03h1.21v-1.03c0-.25.21-.46.46-.46s.45.21.45.46v1.03h1.21v-1.03c0-.25.2-.46.45-.46s.46.21.46.46v.92c.88-.3,1.51-1.13,1.51-2.09v-1.13c0-.17.09-.32.24-.4s.32-.08.46.01c.28.18.62.27.95.27.99,0,1.79-.8,1.79-1.78,0-.51-.22-.99-.6-1.34-.17-.15-.2-.42-.07-.6.13-.17.25-.34.37-.51.83-1.2,1.48-2.53,1.55-4.94ZM25.25,22.21c-.47.22-1.01.13-1.37-.24l-1.41-1.41c-.33.85-1.07,1.5-1.99,1.69l1.56,1.56c.37.36.46.89.24,1.36-.26.57-.15,1.25.3,1.69.28.28.66.44,1.06.44s.77-.16,1.06-.44c.23-.23.37-.51.42-.83.08-.52.48-.92,1.01-1,.31-.05.6-.2.83-.42.58-.58.58-1.53,0-2.1-.45-.44-1.13-.56-1.7-.29ZM23.88,6.38c.36-.36.9-.46,1.36-.24.57.27,1.26.15,1.7-.29.28-.28.44-.66.44-1.06s-.15-.77-.44-1.05c-.23-.23-.52-.37-.83-.42-.52-.08-.93-.48-1.01-1.01-.05-.32-.2-.6-.42-.83-.58-.58-1.54-.58-2.12,0-.45.44-.56,1.13-.3,1.69.22.46.13,1-.24,1.36l-.93.94c.63.63,1.16,1.33,1.58,2.09l1.2-1.2ZM23.89,12.23h0c-.09,2.81-.91,4.32-1.87,5.67.36.44.58.97.61,1.54l1.89,1.89c.09.09.22.11.34.05.92-.43,2.01-.24,2.73.48.94.93.94,2.46,0,3.39-.36.36-.83.6-1.33.68-.13.02-.23.11-.25.24-.08.51-.31.97-.68,1.33-.46.45-1.06.7-1.7.7s-1.24-.25-1.7-.7c-.71-.71-.91-1.81-.47-2.72.05-.12.03-.24-.06-.34l-2.19-2.18v.38c0,1.72-1.4,3.11-3.12,3.11h-3.73c-1.72,0-3.12-1.39-3.12-3.11v-.38l-2.19,2.18c-.09.09-.11.22-.06.34.44.91.25,2.01-.47,2.72-.46.45-1.06.7-1.7.7s-1.24-.25-1.7-.7c-.36-.36-.6-.82-.68-1.33-.02-.13-.12-.23-.24-.24-.51-.08-.97-.31-1.34-.68-.46-.45-.7-1.05-.7-1.69s.24-1.24.7-1.7c.71-.71,1.81-.9,2.73-.47.13.06.24.03.34-.06l1.89-1.88c.03-.57.24-1.11.61-1.55-.96-1.34-1.79-2.86-1.87-5.65v-.02c0-1.32.27-2.61.79-3.8l-1.42-1.41c-.09-.09-.22-.11-.34-.06-.92.44-2.01.24-2.73-.47-.46-.45-.7-1.05-.7-1.69s.24-1.24.7-1.69c.36-.36.83-.6,1.34-.68.13-.02.23-.11.24-.24.08-.51.32-.97.68-1.33C4.05-.08,5.58-.08,6.51.85c.72.72.91,1.81.48,2.73-.06.12-.04.24.06.34l.96.95c1.74-1.47,3.92-2.27,6.21-2.27s4.47.8,6.21,2.27l.96-.95c.1-.1.12-.23.06-.34-.44-.91-.24-2.01.48-2.73.93-.93,2.46-.93,3.4,0,.37.37.6.83.68,1.33.02.13.11.23.24.24.51.08.97.32,1.34.68.45.46.7,1.06.7,1.69s-.25,1.24-.7,1.69c-.72.71-1.82.91-2.73.48-.12-.06-.24-.04-.34.05l-1.42,1.42c.52,1.18.79,2.47.79,3.8Z"/>
        <path class="cls-2" d="M23.63,28.35c-.68,0-1.32-.26-1.81-.74-.76-.76-.96-1.92-.5-2.89.02-.04.03-.11-.03-.17l-1.94-1.93v.03c0,1.8-1.47,3.26-3.27,3.26h-3.73c-1.8,0-3.27-1.46-3.27-3.26v-.03l-1.94,1.93c-.06.06-.05.13-.03.17.46.97.26,2.13-.5,2.89-.49.48-1.13.74-1.81.74s-1.32-.26-1.8-.74c-.38-.39-.63-.87-.72-1.41,0-.07-.06-.11-.12-.12-.54-.08-1.03-.33-1.42-.72-.48-.47-.74-1.11-.74-1.8s.26-1.33.74-1.81c.76-.76,1.92-.96,2.89-.5.07.03.12.02.17-.03l1.85-1.84c.04-.55.24-1.06.57-1.49-1.05-1.48-1.76-3.02-1.83-5.64,0-1.33.26-2.6.76-3.79l-1.34-1.34c-.06-.06-.13-.05-.17-.03-.97.46-2.13.26-2.9-.5-.48-.47-.75-1.11-.75-1.8s.26-1.33.75-1.8c.38-.38.87-.63,1.42-.72.07-.01.11-.06.12-.12.08-.54.33-1.02.72-1.41C3.49.27,4.13,0,4.81,0s1.32.26,1.8.74c.76.76.96,1.92.51,2.89-.03.07-.02.11.03.17l.86.86c1.75-1.43,3.94-2.22,6.21-2.22s4.46.79,6.21,2.22l.86-.86c.05-.05.06-.11.03-.16-.46-.97-.26-2.14.5-2.9,1-.99,2.61-.99,3.61,0,.39.39.64.88.72,1.41,0,.07.05.11.12.12.54.08,1.03.33,1.42.72.48.49.75,1.13.75,1.8s-.26,1.32-.74,1.8c-.77.76-1.93.96-2.9.51-.07-.03-.12-.03-.17.02l-1.34,1.35c.5,1.19.76,2.46.76,3.77h0c-.09,2.92-.98,4.46-1.83,5.66.33.44.53.95.57,1.48l1.85,1.85s.1.06.17.02c.98-.46,2.14-.25,2.9.5.48.48.75,1.12.75,1.8s-.27,1.32-.75,1.8c-.38.38-.87.63-1.41.72-.07.01-.12.05-.13.12-.09.54-.33,1.03-.72,1.41-.49.48-1.13.74-1.81.74ZM19.05,21.9l2.44,2.44c.14.13.17.33.09.5-.41.86-.23,1.88.44,2.56.43.42,1,.66,1.6.66s1.16-.23,1.6-.66c.34-.34.56-.77.63-1.25.03-.19.18-.34.38-.37.48-.07.91-.29,1.25-.63.43-.42.66-.99.66-1.59s-.23-1.17-.66-1.59c-.67-.67-1.7-.85-2.56-.45-.17.09-.37.06-.51-.08l-1.93-1.93v-.06c-.03-.53-.23-1.03-.58-1.46l-.07-.09.07-.09c.84-1.18,1.75-2.68,1.84-5.57h.15s-.15,0-.15,0c0-1.3-.26-2.56-.77-3.74l-.04-.09,1.49-1.49c.14-.14.33-.17.51-.08.85.4,1.88.22,2.56-.45.42-.42.66-.99.66-1.59s-.23-1.16-.66-1.59c-.34-.34-.78-.56-1.25-.63-.19-.03-.34-.17-.37-.37-.08-.47-.3-.9-.64-1.25-.42-.42-.99-.66-1.59-.66s-1.17.23-1.59.66c-.68.68-.86,1.7-.45,2.56.09.17.06.36-.09.51l-1.06,1.05-.1-.09c-1.71-1.44-3.88-2.24-6.12-2.24s-4.41.79-6.12,2.24l-.1.09-1.06-1.05c-.14-.14-.18-.33-.09-.51.4-.86.22-1.88-.45-2.56C5.53.08,4.1.08,3.22.96c-.34.34-.57.78-.64,1.25-.03.19-.17.34-.37.37-.48.08-.92.29-1.26.63-.43.42-.66.98-.66,1.59s.23,1.17.66,1.59c.68.67,1.71.85,2.57.44.18-.08.37-.04.51.09l1.49,1.48-.04.09c-.51,1.18-.77,2.44-.77,3.74.08,2.9.99,4.4,1.84,5.58l.07.09-.07.09c-.34.41-.54.92-.57,1.46v.06s-1.94,1.92-1.94,1.92c-.14.14-.33.17-.51.09-.86-.4-1.89-.23-2.56.44-.43.42-.66.99-.66,1.6s.23,1.17.66,1.59c.34.34.77.56,1.26.63.2.03.34.18.37.37.07.48.29.91.63,1.25.43.42,1,.66,1.6.66s1.17-.23,1.6-.66c.67-.67.85-1.69.44-2.55-.08-.18-.05-.37.09-.51l2.44-2.44v.74c0,1.63,1.33,2.96,2.98,2.96h3.73c1.64,0,2.98-1.33,2.98-2.96v-.74ZM23.63,27.45c-.44,0-.85-.17-1.16-.49-.49-.49-.62-1.24-.33-1.86.19-.41.11-.88-.21-1.19l-1.75-1.75.27-.06c.86-.17,1.56-.77,1.88-1.6l.08-.21,1.57,1.57c.32.32.79.4,1.2.21.62-.3,1.37-.17,1.87.32.31.31.48.72.48,1.16s-.17.85-.48,1.16c-.25.25-.57.42-.91.47-.46.07-.81.42-.88.87-.06.35-.22.66-.47.91-.31.31-.73.49-1.16.49ZM20.77,22.33l1.37,1.37c.41.4.52,1,.27,1.53-.24.51-.13,1.13.27,1.53.51.52,1.39.52,1.91,0,.2-.2.34-.46.38-.75.09-.58.54-1.03,1.13-1.12.27-.04.54-.18.74-.38.25-.25.39-.59.39-.95s-.14-.7-.39-.95c-.41-.4-1.02-.51-1.53-.26h0c-.52.24-1.13.14-1.54-.27l-1.26-1.26c-.35.73-.98,1.28-1.75,1.51ZM4.81,27.44c-.44,0-.85-.17-1.16-.48-.25-.25-.41-.56-.46-.91-.07-.46-.42-.81-.88-.88-.35-.06-.66-.22-.91-.46-.31-.31-.48-.72-.48-1.16s.17-.85.48-1.16c.49-.49,1.24-.62,1.87-.32.41.19.88.11,1.19-.21l1.58-1.57.08.21c.31.81,1.03,1.42,1.88,1.59l.27.06-1.75,1.75c-.32.32-.4.79-.21,1.19.3.63.17,1.38-.33,1.86-.32.31-.73.48-1.16.48ZM2.55,22.2c-.35,0-.69.14-.95.39-.25.25-.39.59-.39.95s.14.69.39.95c.21.2.47.33.75.38.58.08,1.04.53,1.13,1.12.05.28.18.54.38.74.5.5,1.38.51,1.91,0,.4-.4.51-1.01.27-1.52-.25-.52-.15-1.12.27-1.53l1.37-1.37c-.76-.23-1.4-.79-1.75-1.51l-1.26,1.26c-.41.41-1.01.51-1.53.27-.19-.09-.38-.13-.58-.13ZM16.03,24.99h-1.51v-1.18c0-.17-.13-.31-.3-.31s-.31.14-.31.31v1.18h-1.51v-1.18c0-.17-.13-.31-.3-.31s-.31.14-.31.31v1.13l-.2-.07c-.96-.33-1.61-1.23-1.61-2.23v-1.13c0-.11-.06-.21-.16-.27-.1-.05-.21-.06-.31,0-.31.19-.66.29-1.03.29-1.07,0-1.94-.87-1.94-1.93,0-.55.24-1.08.65-1.45.12-.1.14-.28.05-.4l-.19-.26c-.84-1.17-1.68-2.55-1.76-5.27,0-4.9,4.01-8.88,8.92-8.88s8.91,3.98,8.91,8.88h0c-.07,2.37-.68,3.72-1.58,5.02-.09.12-.17.24-.26.37l-.11.15c-.09.12-.07.3.04.4.41.37.65.9.65,1.45,0,1.06-.87,1.93-1.94,1.93-.37,0-.72-.1-1.03-.29-.09-.06-.2-.06-.31,0-.1.06-.16.15-.16.27v1.13c0,1.01-.65,1.91-1.61,2.23l-.2.07v-1.13c0-.17-.14-.31-.31-.31s-.3.14-.3.31v1.18ZM14.82,24.69h.91v-.88c0-.33.27-.6.6-.6s.61.27.61.6v.7c.73-.33,1.21-1.06,1.21-1.87v-1.13c0-.22.12-.42.32-.53.2-.11.43-.1.61.02.26.16.56.25.87.25.9,0,1.64-.73,1.64-1.63,0-.46-.2-.91-.55-1.23-.23-.2-.26-.55-.09-.8l.11-.15c.09-.12.17-.24.26-.36.86-1.26,1.45-2.56,1.52-4.85,0-4.73-3.87-8.58-8.61-8.58S5.61,7.5,5.6,12.23c.08,2.63.89,3.96,1.71,5.1l.19.26c.18.25.15.6-.09.8-.35.31-.55.76-.55,1.22,0,.9.74,1.63,1.65,1.63.31,0,.61-.09.87-.25.19-.12.41-.13.61-.02.19.11.31.31.31.53v1.13c0,.81.48,1.54,1.21,1.87v-.7c0-.33.27-.6.61-.6s.6.27.6.6v.88h.91v-.88c0-.33.27-.6.6-.6s.6.27.6.6v.88ZM22.64,7.83l-.09-.17c-.41-.74-.93-1.44-1.55-2.06l-.1-.1,1.04-1.05c.32-.32.4-.79.21-1.2-.29-.63-.16-1.38.33-1.86.31-.31.72-.48,1.16-.48s.85.17,1.16.48c.25.25.41.56.46.91.07.46.42.81.88.88.34.05.65.21.91.46.31.3.48.72.48,1.16s-.17.85-.48,1.16c-.49.49-1.24.62-1.87.32-.41-.19-.88-.11-1.19.21l-1.35,1.34ZM21.31,5.49c.55.56,1.02,1.19,1.4,1.85l1.07-1.06c.4-.41,1.02-.51,1.53-.27.52.25,1.13.14,1.53-.26.26-.26.39-.59.39-.95s-.14-.7-.39-.95c-.21-.2-.47-.34-.75-.38-.59-.09-1.04-.54-1.13-1.13-.05-.28-.18-.54-.38-.74-.51-.51-1.4-.51-1.91,0-.4.4-.51,1.01-.27,1.53.25.52.14,1.12-.27,1.53l-.83.84ZM5.79,7.82l-1.34-1.33c-.32-.32-.79-.4-1.2-.21-.63.3-1.37.17-1.86-.33-.31-.3-.49-.72-.49-1.16s.17-.85.49-1.16c.25-.25.57-.41.91-.46.46-.07.81-.42.88-.88.05-.35.21-.66.47-.91.31-.31.72-.48,1.16-.48s.85.17,1.16.48c.49.49.63,1.23.33,1.86-.19.41-.11.87.21,1.19l1.05,1.05-.1.1c-.59.59-1.12,1.29-1.56,2.06l-.1.17ZM3.71,5.88c.35,0,.69.14.95.4l1.06,1.06c.41-.69.88-1.31,1.4-1.85l-.84-.84c-.41-.4-.52-1-.27-1.53.24-.51.14-1.13-.27-1.52-.51-.51-1.4-.51-1.9,0-.21.2-.34.46-.38.74-.09.58-.54,1.04-1.13,1.13-.28.04-.54.17-.74.38-.26.25-.4.59-.4.95s.14.7.4.95c.4.41,1.01.51,1.53.27.19-.09.39-.13.58-.13Z"/>
      </g>
    </g>
  </g>
</svg>