<?xml version="1.0" encoding="UTF-8"?>
<svg id="Layer_2" data-name="Layer 2" xmlns="http://www.w3.org/2000/svg" viewBox="0 0 16.66 28.35">
  <defs>
    <style>
      .cls-1 {
        fill: #231f20;
      }

      .cls-2 {
        fill: #fff;
      }
    </style>
  </defs>
  <g id="Layer_1-2" data-name="Layer 1">
    <g id="b9ecb4397a">
      <g>
        <g>
          <path class="cls-1" d="M15.09,2.27c.13.15-1.48,4.22-1.53,4.48l-.91-3.17c-.12-.41-.36-.77-.68-1.04l.28-.78c.57-1.53,2.84-1.13,2.84.51Z"/>
          <path class="cls-2" d="M13.58,7.45l-1.09-3.81c-.11-.37-.32-.7-.63-.96l-.09-.08.32-.9c.33-.89,1.15-1.16,1.82-1.04.66.12,1.33.64,1.35,1.56.05.16-.08.64-1.13,3.46-.2.53-.39,1.03-.4,1.11l-.15.65ZM12.17,2.49c.31.29.53.65.65,1.04l.76,2.65c.06-.16.14-.37.23-.62.38-1.01,1.07-2.86,1.12-3.22h0v-.07c0-.8-.58-1.18-1.07-1.27-.49-.09-1.16.08-1.44.82l-.24.67Z"/>
        </g>
        <g>
          <path class="cls-1" d="M.96,12.46c.06-1.94,2.87-1.94,2.94,0v3.13c0,.81-.66,1.47-1.47,1.47s-1.47-.66-1.47-1.47v-3.13Z"/>
          <path class="cls-2" d="M2.42,17.23c-.91,0-1.64-.74-1.64-1.64v-3.13c.03-1.11.87-1.62,1.64-1.62h0c.77,0,1.61.51,1.64,1.62v3.13c0,.91-.74,1.64-1.64,1.64ZM1.13,12.47v3.12c0,.71.58,1.3,1.3,1.3s1.3-.58,1.3-1.3v-3.13c-.03-.88-.69-1.28-1.3-1.28h0c-.6,0-1.26.4-1.29,1.29Z"/>
        </g>
        <g>
          <path class="cls-1" d="M7.46,14.15c-1.19.5-1.73,2.17-1,3.28-.93.33-1.95-.41-1.94-1.39v-4.47c-.02-1.28,1.62-1.96,2.51-1.04.28.28.43.65.43,1.04v2.58Z"/>
          <path class="cls-2" d="M6,17.68c-.34,0-.67-.11-.96-.31-.44-.31-.7-.81-.69-1.33v-4.47c-.01-.66.38-1.24,1.02-1.51.64-.26,1.32-.13,1.78.35.31.31.48.72.48,1.16v2.7l-.11.04c-.52.22-.94.71-1.13,1.32-.19.61-.11,1.23.2,1.71l.12.18-.21.07c-.17.06-.34.09-.52.09ZM6.03,10.27c-.19,0-.37.04-.53.1-.4.16-.82.56-.81,1.19v4.47c0,.41.2.8.55,1.05.28.2.63.29.96.23-.27-.53-.32-1.17-.13-1.8.2-.66.65-1.21,1.22-1.49v-2.47c0-.35-.13-.67-.38-.92-.26-.27-.58-.38-.88-.38Z"/>
        </g>
        <g>
          <path class="cls-1" d="M8.1,13.16l1.63-4.48,1.38,4.8-.13.36c-1.58,0-2.21.06-2.88.12v-.8Z"/>
          <path class="cls-2" d="M7.93,14.15v-1.04s1.83-4.98,1.83-4.98l1.54,5.37-.19.52h-.12c-1.53,0-2.15.05-2.81.11l-.24.02ZM8.27,13.19v.58c.6-.05,1.23-.1,2.58-.1l.07-.19-1.21-4.24-1.44,3.95Z"/>
        </g>
        <g>
          <path class="cls-1" d="M10.23,2.75c.74-.23,1.61.24,1.81,1.01l3.06,10.68c-.78-.38-2.02-.53-3.22-.59l-2.67-9.28c-.22-.78.24-1.59,1.01-1.82Z"/>
          <path class="cls-2" d="M15.37,14.76l-.35-.17c-.65-.31-1.71-.51-3.15-.57h-.12s-2.7-9.41-2.7-9.41c-.12-.42-.07-.86.15-1.25.21-.38.56-.66.98-.78.4-.12.85-.07,1.24.14.39.22.68.57.79.98l3.17,11.05ZM12.01,13.69c1.2.06,2.15.21,2.82.46l-2.96-10.34c-.09-.32-.31-.6-.62-.77-.31-.17-.66-.21-.97-.12h0c-.33.1-.61.32-.78.62s-.21.65-.12.98l2.63,9.17Z"/>
        </g>
        <g>
          <path class="cls-1" d="M8.43,18.53c1.13,0,2.58.22,2.78.43.14.14.09.61,0,.97-3.03.31-3.92,2.38-4.14,4.08-.05.41.57.49.63.08.28-2.22,1.51-3.38,3.77-3.55.13,0,.23-.09.28-.2.08-.21.43-1.28-.07-1.81-.56-.6-3.22-.63-3.25-.63-.92,0-1.67-.75-1.67-1.67s.75-1.67,1.7-1.67c.61-.05,1.65-.1,2.74-.09,1.64.02,3.4.2,3.96.75.14.14.25.34.35.57.66,1.67.22,5.41-.04,6.89-.38,2.32-1.56,3.88-2.29,4.24h0c-1.77.89-6.39.72-9.32-.02-1.09-.28-2.11-1.41-2.65-2.96-.49-1.41-.41-4.96-.32-6.93.79.95,2.48.88,3.2-.13.43,1.03,1.78,1.57,2.81,1.05.41.37.95.59,1.54.59Z"/>
          <path class="cls-2" d="M9.23,27.7c-1.84,0-3.86-.23-5.42-.63-1.14-.29-2.21-1.46-2.77-3.07-.51-1.44-.43-5.01-.33-7l.02-.44.28.34c.33.4.89.63,1.48.61.6-.02,1.14-.29,1.45-.72l.18-.25.12.29c.19.46.59.83,1.1,1.02.5.19,1.04.17,1.48-.06l.11-.05.09.08c.39.35.9.55,1.43.55.97,0,2.62.19,2.9.48.26.27.07.99.04,1.13l-.03.11h-.12c-2.92.31-3.78,2.32-3.99,3.94-.01.13.09.15.13.16.04,0,.14,0,.16-.12.29-2.32,1.57-3.53,3.93-3.7.06,0,.11-.04.13-.1.16-.42.33-1.25-.03-1.63-.4-.42-2.27-.57-3.12-.57-1.01,0-1.84-.82-1.84-1.84s.82-1.84,1.87-1.85c.57-.05,1.61-.1,2.74-.09,1.51.02,3.45.17,4.08.8.14.14.27.35.39.62.66,1.68.27,5.3-.03,6.99-.39,2.38-1.62,3.99-2.38,4.37l-.04.02c-.86.42-2.35.6-3.98.6ZM1.03,17.4c-.07,1.75-.14,5.15.33,6.49.53,1.49,1.5,2.58,2.53,2.85,2.91.74,7.46.91,9.2.03l.04-.02c.67-.37,1.8-1.89,2.16-4.1.24-1.33.71-5.14.05-6.8-.1-.23-.2-.4-.31-.51-.42-.42-1.82-.68-3.84-.7-1.13-.01-2.17.04-2.72.08-.87,0-1.54.67-1.54,1.5s.67,1.49,1.49,1.49c.03,0,2.74,0,3.37.68.58.61.19,1.76.1,1.99-.07.19-.24.31-.43.32-2.16.16-3.35,1.27-3.61,3.4-.05.32-.31.45-.55.42-.24-.03-.46-.23-.43-.54.22-1.73,1.13-3.86,4.18-4.22.09-.38.06-.64.02-.69-.16-.14-1.46-.37-2.65-.37-.57,0-1.13-.2-1.57-.56-.5.22-1.1.23-1.65.02-.5-.19-.92-.53-1.17-.97-.38.39-.94.63-1.54.65-.54.02-1.07-.15-1.47-.45Z"/>
        </g>
        <g>
          <path class="cls-1" d="M15.09,2.27c0-1.63-2.28-2.03-2.84-.51l-.28.78c.32.27.57.63.68,1.04l.91,3.17c.06-.26,1.67-4.33,1.53-4.48ZM3.89,15.59v-3.13c-.07-1.94-2.88-1.94-2.94,0v3.13c0,.81.66,1.47,1.47,1.47s1.47-.66,1.47-1.47ZM7.46,14.15v-2.58c0-.39-.15-.76-.43-1.04-.89-.92-2.53-.24-2.51,1.04v4.47c-.01.98,1.01,1.72,1.94,1.39-.73-1.11-.19-2.78,1-3.28ZM11.11,13.48l-1.38-4.8-1.63,4.48v.8c.67-.06,1.3-.12,2.88-.12l.13-.36ZM12.04,3.76c-.2-.76-1.07-1.24-1.81-1.01-.78.22-1.24,1.04-1.01,1.82l2.67,9.28c1.21.05,2.44.21,3.22.59l-3.06-10.68ZM11.2,14.48c-1.09-.01-2.13.03-2.74.09-.95,0-1.7.75-1.7,1.67s.75,1.67,1.67,1.67c.03,0,2.69.03,3.25.63.5.53.14,1.6.07,1.81-.05.12-.15.2-.28.2-2.27.16-3.5,1.33-3.77,3.55-.06.41-.68.34-.63-.08.22-1.7,1.11-3.77,4.14-4.08.1-.36.14-.82,0-.97-.2-.2-1.65-.43-2.78-.43-.59,0-1.13-.22-1.54-.59-1.03.52-2.38-.02-2.81-1.05-.72,1-2.41,1.07-3.2.13-.09,1.98-.17,5.52.32,6.93.55,1.55,1.56,2.68,2.65,2.96,2.94.74,7.55.91,9.32.02h0c.72-.36,1.91-1.92,2.29-4.24.26-1.48.7-5.22.04-6.89-.1-.23-.21-.43-.35-.57-.55-.55-2.32-.73-3.96-.75ZM8.6,4.75c-.5-1.64,1.23-3.21,2.81-2.54l.24-.67c.83-2.19,4.06-1.62,4.08.72.13.38-1.76,5.04-1.88,5.52,0,0,2.23,7.76,2.23,7.76h0c.86,2.17.11,6.65,0,7.24-.39,2.4-1.64,4.21-2.63,4.7-2.42,1.1-7.12.68-9.77.03-1.3-.32-2.48-1.61-3.09-3.36-.74-2.1-.3-8.22-.28-8.58v-3.11c-.01-1.9,2.38-2.83,3.65-1.43.61-2.23,3.84-2.01,4.12.3l1.34-3.69-.83-2.9Z"/>
          <path class="cls-2" d="M9.26,28.35c-2.07,0-4.22-.32-5.6-.66-1.35-.34-2.58-1.67-3.22-3.47C-.2,22.39.01,17.63.14,15.67v-.1s0-3.11,0-3.11c0-.95.55-1.76,1.45-2.11.81-.32,1.66-.17,2.29.37.42-1.05,1.41-1.47,2.27-1.41.78.06,1.62.52,1.96,1.43l1.13-3.1-.81-2.84c-.25-.83,0-1.71.68-2.32.62-.56,1.44-.74,2.19-.49l.18-.5c.47-1.23,1.61-1.61,2.53-1.45.92.16,1.86.91,1.88,2.22.04.3-.28,1.27-1.35,4.13-.24.65-.46,1.21-.52,1.41.18.63,2.19,7.64,2.21,7.72v.02c.88,2.25.1,6.79.01,7.3-.4,2.46-1.7,4.32-2.72,4.83-1.13.51-2.68.7-4.28.7ZM2.46,10.53c-.27,0-.52.05-.74.14-.6.23-1.24.83-1.23,1.79v3.23c-.13,1.94-.35,6.64.27,8.41.6,1.7,1.73,2.94,2.97,3.25,2.58.64,7.28,1.06,9.65-.02.94-.46,2.15-2.22,2.53-4.57.09-.51.86-4.99,0-7.14v-.06q-2.24-7.74-2.24-7.77c.05-.2.26-.76.55-1.53.48-1.27,1.37-3.64,1.34-3.95-.02-1.16-.82-1.8-1.6-1.94-.79-.14-1.76.19-2.15,1.23l-.31.83-.17-.07c-.66-.28-1.43-.14-1.99.37-.57.51-.79,1.26-.58,1.96h0s.84,2.95.84,2.95l-1.61,4.42-.09-.72c-.14-1.17-1.05-1.65-1.78-1.7-.8-.06-1.72.36-2.01,1.42l-.08.3-.21-.23c-.41-.45-.91-.62-1.38-.62ZM9.23,27.7c-1.84,0-3.86-.23-5.42-.63-1.14-.29-2.21-1.46-2.77-3.07-.51-1.44-.43-5.01-.33-7l.02-.44.28.34c.33.4.89.63,1.48.61.6-.02,1.14-.29,1.45-.72l.18-.25.12.29c.19.46.59.83,1.1,1.02.5.19,1.04.17,1.48-.06l.11-.05.09.08c.39.35.9.55,1.43.55.97,0,2.62.19,2.9.48.26.27.07.99.04,1.13l-.03.11h-.12c-2.92.31-3.78,2.32-3.99,3.94-.01.13.09.15.13.16.03,0,.14,0,.16-.12.29-2.32,1.57-3.53,3.93-3.7.06,0,.11-.04.13-.1.16-.42.33-1.25-.03-1.63-.4-.42-2.27-.57-3.12-.57-1.01,0-1.84-.82-1.84-1.84s.82-1.84,1.87-1.85c.57-.05,1.61-.1,2.74-.09h0c1.51.02,3.45.17,4.08.8.14.14.27.35.39.62.66,1.68.27,5.3-.03,6.99-.39,2.38-1.62,3.99-2.38,4.37l-.04.02c-.86.42-2.35.6-3.98.6ZM1.03,17.4c-.07,1.75-.14,5.15.33,6.49.53,1.49,1.5,2.58,2.53,2.85,2.91.74,7.46.91,9.2.03l.04-.02c.67-.37,1.8-1.89,2.16-4.1.24-1.33.71-5.14.05-6.8-.1-.23-.2-.4-.31-.51-.42-.42-1.82-.68-3.84-.7-1.13-.01-2.17.04-2.72.08-.87,0-1.54.67-1.54,1.5s.67,1.49,1.49,1.49c.03,0,2.74,0,3.37.68.58.61.19,1.76.1,1.99-.07.19-.24.31-.43.32-2.16.16-3.35,1.27-3.61,3.4-.05.32-.31.45-.55.42-.24-.03-.46-.23-.43-.54.22-1.73,1.13-3.86,4.18-4.22.09-.38.06-.64.02-.69-.16-.14-1.46-.37-2.65-.37-.57,0-1.13-.2-1.57-.56-.5.22-1.1.23-1.65.02-.5-.19-.92-.53-1.17-.97-.38.39-.94.63-1.54.65-.55.02-1.07-.15-1.47-.45ZM6,17.68c-.34,0-.67-.11-.96-.31-.44-.31-.7-.81-.69-1.33v-4.47c-.01-.66.38-1.24,1.02-1.51.64-.26,1.32-.13,1.78.35.31.31.48.72.48,1.16v2.7l-.11.04c-.52.22-.94.71-1.13,1.32-.19.61-.11,1.23.2,1.71l.12.18-.21.07c-.17.06-.34.09-.52.09ZM6.03,10.27c-.19,0-.37.04-.53.1-.4.16-.82.56-.81,1.19v4.47c0,.41.2.8.55,1.05.29.2.63.29.96.23-.27-.53-.32-1.17-.13-1.8.2-.66.65-1.21,1.22-1.49v-2.47c0-.35-.13-.67-.38-.92-.26-.27-.58-.38-.88-.38ZM2.42,17.23c-.91,0-1.64-.74-1.64-1.64v-3.13c.03-1.12.87-1.63,1.64-1.63h0c.77,0,1.61.51,1.64,1.62v3.13c0,.91-.74,1.64-1.64,1.64ZM2.42,11.18h0c-.6,0-1.26.41-1.29,1.29v3.12c0,.71.58,1.3,1.3,1.3s1.3-.58,1.3-1.3v-3.13c-.03-.88-.69-1.28-1.3-1.28ZM15.37,14.76l-.35-.17c-.65-.31-1.71-.51-3.15-.57h-.12s-2.7-9.41-2.7-9.41c-.12-.42-.07-.86.15-1.25.21-.38.56-.66.99-.78.4-.12.85-.07,1.24.14.39.22.68.57.79.98l3.17,11.05ZM12.01,13.69c1.21.06,2.15.21,2.82.46l-2.96-10.34c-.09-.32-.31-.6-.62-.77-.31-.17-.66-.21-.97-.12-.34.1-.61.32-.78.62s-.21.65-.12.98l2.63,9.17ZM7.93,14.15v-1.04s1.83-4.98,1.83-4.98l1.54,5.37-.19.52h-.12c-1.53,0-2.15.05-2.81.11l-.24.02ZM8.27,13.19v.58c.6-.05,1.23-.1,2.58-.1l.07-.19-1.21-4.24-1.44,3.95ZM13.58,7.45l-1.09-3.81c-.11-.37-.32-.7-.63-.96l-.09-.08.32-.9c.33-.89,1.15-1.16,1.82-1.04.66.12,1.33.64,1.35,1.56.05.16-.08.64-1.13,3.46-.2.53-.39,1.03-.4,1.11l-.15.65ZM12.17,2.49c.31.29.53.65.65,1.04l.76,2.65c.06-.16.14-.37.23-.62.38-1.01,1.07-2.86,1.12-3.22h0v-.07c0-.8-.58-1.18-1.07-1.27-.49-.09-1.16.08-1.44.82l-.24.67Z"/>
        </g>
      </g>
    </g>
  </g>
</svg>