<?xml version="1.0" encoding="UTF-8"?>
<svg id="Layer_2" data-name="Layer 2" xmlns="http://www.w3.org/2000/svg" viewBox="0 0 16.52 28.35">
  <defs>
    <style>
      .cls-1 {
        fill: #fff;
      }

      .cls-2 {
        fill: #010101;
      }
    </style>
  </defs>
  <g id="Layer_1-2" data-name="Layer 1">
    <g id="b9ecb4397a">
      <g>
        <path class="cls-1" d="M15.11,2.12c.13.15-1.49,4.27-1.55,4.54l-.92-3.21c-.12-.42-.37-.78-.69-1.05l.29-.79c.57-1.55,2.87-1.14,2.88.51Z"/>
        <path class="cls-1" d="M.79,12.44c.06-1.97,2.91-1.97,2.97,0v3.17c0,.82-.67,1.49-1.49,1.49s-1.49-.67-1.49-1.49v-3.17Z"/>
        <path class="cls-1" d="M7.38,14.15c-1.21.51-1.75,2.19-1.01,3.32-.94.33-1.97-.41-1.96-1.41v-4.53c-.02-1.3,1.64-1.99,2.54-1.05.28.28.43.66.43,1.05v2.61Z"/>
        <path class="cls-1" d="M8.03,13.15l1.65-4.53,1.39,4.86-.13.36c-1.6,0-2.23.06-2.91.12v-.81Z"/>
        <path class="cls-1" d="M10.18,2.61c.75-.23,1.63.25,1.83,1.02l3.1,10.81c-.79-.38-2.04-.54-3.26-.59l-2.7-9.4c-.23-.79.24-1.61,1.03-1.84Z"/>
        <path class="cls-1" d="M8.36,18.59c1.15,0,2.61.23,2.81.43.14.15.09.61,0,.98-3.07.31-3.97,2.41-4.19,4.13-.05.42.58.5.64.08.28-2.25,1.53-3.43,3.82-3.59.13,0,.23-.09.28-.21.08-.21.44-1.3-.07-1.83-.57-.61-3.26-.63-3.29-.63-.93,0-1.69-.76-1.69-1.69s.76-1.69,1.72-1.69c.62-.05,1.67-.1,2.77-.09,1.66.02,3.45.2,4.01.76.14.14.25.34.35.57.67,1.69.23,5.47-.04,6.97-.38,2.35-1.58,3.93-2.31,4.29h0c-1.79.9-6.47.73-9.44-.02-1.11-.28-2.13-1.43-2.69-2.99-.5-1.43-.42-5.02-.33-7.02.8.96,2.51.89,3.24-.13.43,1.05,1.8,1.59,2.85,1.07.41.37.96.6,1.56.6Z"/>
        <path class="cls-2" d="M15.11,2.12c0-1.65-2.31-2.06-2.88-.51l-.29.79c.33.27.57.63.69,1.05l.92,3.21c.06-.27,1.69-4.39,1.55-4.54ZM3.77,15.61v-3.17c-.07-1.97-2.91-1.97-2.97,0v3.17c0,.82.67,1.49,1.49,1.49s1.49-.67,1.49-1.49ZM7.38,14.15v-2.61c0-.39-.15-.77-.43-1.05-.9-.93-2.56-.25-2.54,1.05v4.53c-.01.99,1.02,1.74,1.96,1.41-.74-1.13-.19-2.81,1.01-3.32ZM11.07,13.48l-1.39-4.86-1.65,4.53v.81c.68-.06,1.31-.12,2.91-.12l.13-.36ZM12.01,3.63c-.21-.77-1.08-1.25-1.83-1.02-.79.23-1.25,1.05-1.03,1.84l2.7,9.4c1.22.05,2.47.21,3.26.59l-3.1-10.81ZM11.17,14.48c-1.1-.01-2.15.03-2.77.09-.96,0-1.72.76-1.72,1.69s.76,1.69,1.69,1.69c.03,0,2.72.03,3.29.63.51.53.15,1.62.07,1.83-.05.12-.15.2-.28.21-2.29.17-3.54,1.35-3.82,3.59-.06.42-.69.34-.64-.08.22-1.72,1.13-3.82,4.19-4.13.1-.37.15-.83,0-.98-.2-.21-1.67-.43-2.81-.43-.6,0-1.15-.23-1.56-.6-1.05.53-2.41-.02-2.85-1.07-.73,1.01-2.44,1.09-3.24.13-.09,2-.17,5.59.33,7.02.55,1.57,1.58,2.71,2.69,2.99,2.97.75,7.65.92,9.44.02h0c.73-.37,1.93-1.95,2.31-4.29.27-1.5.71-5.29.04-6.97-.1-.23-.21-.43-.35-.57-.56-.56-2.35-.74-4.01-.76ZM8.53,4.63c-.51-1.66,1.25-3.25,2.84-2.57l.25-.67c.84-2.22,4.11-1.64,4.13.73.13.39-1.78,5.11-1.9,5.59,0,0,2.25,7.86,2.25,7.86h0c.87,2.2.11,6.73,0,7.33-.39,2.43-1.66,4.27-2.66,4.76-2.45,1.11-7.21.69-9.89.03-1.31-.33-2.51-1.63-3.13-3.4-.75-2.13-.31-8.33-.29-8.69v-3.15c-.01-1.93,2.41-2.86,3.69-1.45.61-2.25,3.89-2.03,4.17.31l1.36-3.74-.84-2.93Z"/>
      </g>
    </g>
  </g>
</svg>