<?xml version="1.0" encoding="UTF-8"?>
<svg id="Layer_2" data-name="Layer 2" xmlns="http://www.w3.org/2000/svg" viewBox="0 0 26.57 17.01">
  <defs>
    <style>
      .cls-1 {
        fill: #fff;
      }

      .cls-2 {
        fill: #243d95;
      }

      .cls-3 {
        fill: #010101;
      }

      .cls-4 {
        fill: #df1f28;
      }
    </style>
  </defs>
  <g id="Layer_1-2" data-name="Layer 1">
    <g>
      <path class="cls-2" d="M0,0h26.57v17.01H0V0Z"/>
      <path class="cls-4" d="M0,4.25h26.57v8.5H0V4.25Z"/>
      <g>
        <g>
          <g>
            <path class="cls-1" d="M10.89,7.97h4.84v1.86h-4.84v-1.86Z"/>
            <path class="cls-3" d="M15.72,9.85h-4.84l-.02-.02v-1.86l.02-.02h4.84l.02.02v1.86l-.02.02ZM10.9,9.81h4.8v-1.82h-4.8v1.82Z"/>
          </g>
          <g>
            <path class="cls-1" d="M10.87,8.35h4.84v.19h-4.84v-.19ZM10.87,8.65h4.84v.22h-4.84v-.22ZM10.93,8.99v.7h.15v-.7h-.15ZM11.23,8.99v.7h.15v-.7h-.15ZM11.55,8.99v.7h.15v-.7h-.15ZM11.87,8.99v.7h.15v-.7h-.15ZM12.17,8.99v.7h.15v-.7h-.15ZM14.25,8.99v.7h.15v-.7h-.15ZM14.54,8.99v.7h.15v-.7h-.15ZM14.86,8.99v.7h.15v-.7h-.15ZM15.18,8.99v.7h.15v-.7h-.15ZM15.48,8.99v.7h.15v-.7h-.15Z"/>
            <path class="cls-3" d="M15.64,9.72h-.15l-.02-.02v-.7l.02-.02h.15l.02.02v.7l-.02.02ZM15.5,9.68h.11v-.66h-.11v.66ZM15.33,9.72h-.15l-.02-.02v-.7l.02-.02h.15l.02.02v.7l-.02.02ZM15.2,9.68h.11v-.66h-.11v.66ZM15.01,9.72h-.15l-.02-.02v-.7l.02-.02h.15l.02.02v.7l-.02.02ZM14.88,9.68h.11v-.66h-.11v.66ZM14.69,9.72h-.15l-.02-.02v-.7l.02-.02h.15l.02.02v.7l-.02.02ZM14.56,9.68h.11v-.66h-.11v.66ZM14.41,9.72h-.15l-.02-.02v-.7l.02-.02h.15l.02.02v.7l-.02.02ZM14.27,9.68h.11v-.66h-.11v.66ZM12.32,9.72h-.15l-.02-.02v-.7l.02-.02h.15l.02.02v.7l-.02.02ZM12.19,9.68h.11v-.66h-.11v.66ZM12.02,9.72h-.15l-.02-.02v-.7l.02-.02h.15l.02.02v.7l-.02.02ZM11.89,9.68h.11v-.66h-.11v.66ZM11.7,9.72h-.15l-.02-.02v-.7l.02-.02h.15l.02.02v.7l-.02.02ZM11.57,9.68h.11v-.66h-.11v.66ZM11.39,9.72h-.15l-.02-.02v-.7l.02-.02h.15l.02.02v.7l-.02.02ZM11.25,9.68h.11v-.66h-.11v.66ZM11.09,9.72h-.15l-.02-.02v-.7l.02-.02h.15l.02.02v.7l-.02.02ZM10.95,9.68h.11v-.66h-.11v.66ZM15.7,8.88h-4.84l-.02-.02v-.22l.02-.02h4.84l.02.02v.22l-.02.02ZM10.89,8.84h4.8v-.18h-4.8v.18ZM15.7,8.56h-4.84l-.02-.02v-.19l.02-.02h4.84l.02.02v.19l-.02.02ZM10.89,8.53h4.8v-.15h-4.8v.15Z"/>
          </g>
          <g>
            <path class="cls-1" d="M10.87,8.06h4.84v.19h-4.84v-.19Z"/>
            <path class="cls-3" d="M15.71,8.27h-4.84l-.02-.02v-.19l.02-.02h4.84l.02.02v.19l-.02.02ZM10.89,8.23h4.8v-.15h-4.8v.15Z"/>
          </g>
          <g>
            <path class="cls-1" d="M8.99,9.93c.07-.04.16-.13.19-.23h8.21c.03.1.11.19.19.23h-8.59Z"/>
            <path class="cls-3" d="M17.65,9.94h-8.73l.06-.03c.07-.03.15-.12.18-.22h0s8.23-.01,8.23-.01h0c.03.11.11.19.18.23l.06.03ZM9.05,9.91h8.47c-.06-.04-.12-.11-.14-.19h-8.18c-.03.08-.08.15-.14.19Z"/>
          </g>
        </g>
        <g>
          <path class="cls-1" d="M13.19,5.13s0-.17.1-.18c.1,0,.1.18.1.18h-.19ZM12.65,7.45v-.24c0-.12-.12-.13-.12-.21,0,0-.01-.13.02-.19.05.17.13.14.13.07,0-.06-.05-.12-.14-.27-.03-.05-.01-.2.03-.25.02.13.04.19.09.19.03,0,.06-.02.06-.09,0-.08-.06-.13-.08-.2-.03-.09-.01-.18.04-.23.02.13.02.18.07.18.12-.04,0-.2-.02-.25-.03-.05.04-.15.04-.15.04.11.05.12.09.11.05-.01.04-.09-.02-.15-.04-.04-.03-.09,0-.14.04.08.09.08.1.03l-.03-.19h.73l-.04.18c-.01.05.06.06.1-.02.04.05.05.1,0,.14-.06.06-.07.13-.02.15.04.01.05,0,.09-.11,0,0,.06.07.04.15-.02.04-.14.21-.02.25.06,0,.05-.05.07-.18.05.05.08.14.04.23-.03.08-.08.12-.08.2,0,.07.03.09.06.09.06,0,.08-.06.09-.19.04.05.06.2.03.25-.1.15-.14.21-.14.27,0,.07.08.1.13-.07.03.06.02.19.02.19,0,.09-.12.09-.12.21v.24h-1.25ZM12.96,5.49l-.02-.13h.67l-.02.13h-.64ZM13.01,5.36v-.11s.56,0,.56,0v.11h-.56ZM13.1,5.25v-.11s.38,0,.38,0v.11h-.38ZM14.5,9.93c-.09-.03-.21-.12-.21-.22v-1.03l.11-.14h-2.24l.11.14v1.03c0,.09-.09.18-.17.22h2.41Z"/>
          <path class="cls-3" d="M11.99,9.95l.1-.04c.08-.03.16-.11.16-.2v-1.03l-.13-.17h2.32l-.13.17v1.03c0,.08.12.17.2.2l.1.04h-2.62ZM12.2,8.55l.09.12v1.04c0,.08-.05.15-.12.2h2.25c-.08-.05-.15-.12-.15-.2v-1.04l.09-.12h-2.17ZM13.93,7.47h-1.29v-.25c0-.06-.03-.08-.06-.11-.03-.03-.06-.05-.06-.1,0,0-.02-.13.02-.2l.02-.04v.04c.04.09.07.11.08.11h0s.02-.02.02-.04c0-.04-.03-.09-.09-.19-.01-.02-.03-.05-.05-.07-.04-.05-.02-.21.03-.27l.03-.04v.04c.02.13.04.18.08.18.01,0,.04,0,.04-.07,0-.05-.02-.08-.04-.12-.01-.02-.03-.05-.04-.08-.03-.09-.01-.19.05-.25l.03-.02v.04s.01.05.02.07c.01.08.02.09.04.09.02,0,.03-.01.03-.03.02-.05-.04-.14-.06-.18h0c-.03-.07.03-.17.04-.18l.02-.03v.04c.05.11.05.11.08.1,0,0,.02,0,.02-.02,0-.02,0-.06-.04-.1-.05-.04-.04-.11,0-.17l.02-.02v.02s.05.05.06.05c0,0,0,0,0,0,0,0,0,0,0-.02l-.04-.21h.05l-.02-.13h.06l-.02-.11h.11v-.11s.09,0,.09,0c0-.03,0-.11.05-.15.02-.02.04-.03.07-.03.03,0,.05.01.07.03.04.04.05.12.05.15h.1v.11s.1,0,.1,0v.11s.05,0,.05,0l-.02.13h.05l-.04.2s0,.01,0,.02c.01,0,.04,0,.06-.05v-.02s.03.02.03.02c.05.05.05.12,0,.17-.04.04-.05.08-.04.1,0,0,0,.02.02.02.02,0,.03.01.06-.1v-.03s.03.03.03.03c0,0,.07.08.04.17h0s0,.02,0,.02c-.02.04-.08.13-.06.18,0,.01.01.02.03.03.02,0,.03-.01.04-.09,0-.02,0-.04.01-.07v-.04s.03.02.03.02c.06.06.08.16.05.25-.01.03-.03.06-.04.08-.02.04-.04.07-.04.12,0,.07.03.07.04.07.04,0,.06-.04.07-.18v-.04s.03.04.03.04c.05.06.07.22.03.27-.02.03-.03.05-.05.07-.06.09-.09.14-.09.19,0,.02,0,.04.02.04h0s.05-.02.07-.11v-.04s.04.04.04.04c.04.06.02.19.02.2,0,.05-.03.07-.06.1-.03.03-.06.05-.06.11v.25ZM12.67,7.43h1.22v-.22c0-.07.04-.11.07-.14.03-.02.05-.04.05-.07,0-.02,0-.08,0-.12-.03.08-.08.08-.09.08-.03,0-.05-.04-.05-.08,0-.06.03-.11.1-.21.01-.02.03-.04.05-.07.02-.03.02-.12,0-.18-.02.09-.04.15-.1.15-.02,0-.08-.01-.08-.11,0-.06.02-.1.05-.13.01-.02.03-.05.04-.07.02-.06.02-.13-.01-.18,0,0,0,.02,0,.03-.01.08-.02.13-.08.13h0s-.05-.03-.06-.05c-.02-.07.03-.16.06-.21h0s0-.08-.01-.11c-.03.08-.05.1-.1.09-.02,0-.04-.02-.04-.05-.01-.04.01-.09.05-.13.02-.02.03-.06,0-.09-.03.04-.07.05-.09.04-.02,0-.04-.03-.03-.06l.03-.16h-.69l.03.17h0s-.02.05-.04.05c0,0,0,0,0,0-.02,0-.05-.02-.07-.05-.02.03-.02.07,0,.09.04.04.06.09.05.13,0,.02-.02.04-.04.05-.05.02-.07,0-.1-.09-.02.03-.03.07-.02.09h0c.03.06.09.16.06.22,0,.03-.03.04-.06.05h0c-.06,0-.07-.05-.08-.13,0,0,0-.02,0-.03-.03.05-.04.12-.01.18,0,.03.02.05.04.07.02.04.05.08.05.14,0,.1-.06.11-.08.11-.06,0-.09-.06-.1-.15-.02.06-.03.15,0,.18.02.03.03.05.05.07.07.1.1.15.1.21,0,.04-.02.07-.05.08h0s-.06-.01-.09-.08c0,.05,0,.1,0,.12,0,.03.02.05.05.08.03.03.07.07.07.14v.22ZM12.98,5.47h.61v-.09s-.62,0-.62,0v.09ZM13.02,5.34h.52v-.07s-.53,0-.53,0v.07ZM13.12,5.23h.33v-.07s-.34,0-.34,0v.07ZM13.2,5.11h.15s0-.09-.04-.12c-.02-.02-.06-.02-.08,0-.03.03-.04.09-.04.12Z"/>
        </g>
        <g>
          <path class="cls-1" d="M12.56,8.99h.15v.7h-.15v-.7ZM13.85,8.99h.15v.7h-.15v-.7Z"/>
          <path class="cls-3" d="M14.01,9.71h-.15l-.02-.02v-.7l.02-.02h.15l.02.02v.7l-.02.02ZM13.87,9.68h.12v-.67h-.12v.67ZM12.72,9.71h-.15l-.02-.02v-.7l.02-.02h.15l.02.02v.7l-.02.02ZM12.58,9.68h.12v-.67h-.12v.67Z"/>
        </g>
        <g>
          <path class="cls-1" d="M12.14,7.36v1.18h2.3v-1.18c-.09.04-.11.12-.11.12v.5h-2.07v-.5s-.02-.09-.12-.12h0Z"/>
          <path class="cls-3" d="M14.45,8.55h-2.33v-1.22h.03c.1.05.13.14.13.15h0v.49h2.03v-.48s.02-.1.12-.14h.03s0,.02,0,.02v1.2ZM12.15,8.52h2.26v-1.13c-.06.04-.07.09-.07.09v.52s-2.11,0-2.11,0v-.52s-.02-.06-.08-.09v1.13Z"/>
        </g>
        <g>
          <path class="cls-1" d="M12.5,8.41c.07.04.15.07.18.14v1.16c0,.09-.13.18-.2.21h0s0,0,0,0h0s1.62,0,1.62,0h0,0,0c-.08-.04-.2-.13-.2-.22v-1.16c.03-.07.11-.1.18-.14h-1.58,0Z"/>
          <path class="cls-3" d="M14.15,9.95h-.05v-.02.02h-1.66,0s-.07,0-.07,0l.09-.04c.08-.03.19-.12.19-.2v-1.15c-.02-.05-.08-.08-.14-.11-.01,0-.02,0-.03-.02l-.07-.04h1.73l-.07.04s-.02.01-.03.02c-.06.03-.12.06-.14.11v1.15c0,.08.11.16.19.2h0s.04.04.04.04ZM12.55,9.91h1.48c-.07-.05-.15-.12-.15-.2v-1.16c.02-.06.07-.09.12-.12h-1.42c.05.03.1.06.12.12h0v1.16c0,.08-.08.15-.15.2Z"/>
        </g>
        <g>
          <path class="cls-1" d="M14.32,8.42v-.83h-.21v-.08h-1.65v.08h-.21v.83h2.07ZM13.79,9.93c-.07-.03-.18-.12-.18-.22v-.99l.06-.09h-.75l.06.09v.99c0,.09-.11.18-.18.22h.99Z"/>
          <path class="cls-3" d="M12.7,9.95l.08-.04c.07-.03.17-.12.17-.2v-.98l-.08-.12h.82l-.08.12v.98c0,.08.1.17.17.2l.08.04h-.09s-1.08,0-1.08,0ZM12.95,8.65l.04.06v.99c0,.08-.06.15-.13.2h.85c-.06-.05-.13-.12-.13-.2v-.99l.04-.06h-.68ZM14.34,8.44h-2.11v-.87h.21v-.08h1.69v.08h.21v.87ZM12.27,8.4h2.03v-.79h-.21v-.08h-1.61v.08h-.21v.79Z"/>
        </g>
        <g>
          <path class="cls-1" d="M13.1,8.63h.38v1.29h-.38v-1.29Z"/>
          <path class="cls-3" d="M13.5,9.94h-.42v-1.33h.42v1.33ZM13.11,9.91h.34v-1.25h-.34v1.25Z"/>
        </g>
        <g>
          <path class="cls-1" d="M13.67,8.35c0-.09.25-.09.38-.16h-1.53c.13.07.37.08.37.16l.05.17.63.03.1-.19Z"/>
          <path class="cls-3" d="M13.57,8.56l-.63-.03h-.02s-.05-.18-.05-.18c0-.04-.08-.06-.17-.08-.07-.02-.14-.04-.19-.07v-.03h1.54v.03s-.12.05-.19.07c-.08.02-.17.04-.17.08h0s-.1.2-.1.2h-.02ZM12.95,8.5l.61.03.09-.18c0-.06.09-.08.2-.11.04,0,.07-.02.11-.03h-1.35s.07.02.11.03c.1.03.19.05.19.11l.05.15Z"/>
        </g>
        <g>
          <path class="cls-1" d="M13.97,7.45c0-.21,0-.29.07-.29v.66c-.16.06-.27.26-.27.26h-.99s-.11-.2-.27-.26v-.66c.08,0,.08.08.08.29h1.37ZM14.05,7.37c0-.24.21-.27.21-.27v.21c-.08,0-.12.07-.12.17s.06.11.06.11v.6h-.15v-.83Z"/>
          <path class="cls-3" d="M14.22,8.21h-.19v-.36c-.14.07-.23.24-.23.24h0s-1.01,0-1.01,0h0s-.11-.21-.26-.26h-.01v-.7h.02c.1,0,.1.09.1.29h1.33c0-.18,0-.29.09-.29h.02v.06c.06-.11.18-.13.18-.13h.02s0,.25,0,.25h-.02s-.04,0-.06.02c-.02.02-.04.07-.04.13,0,.08.04.09.04.09h.02s0,.02,0,.02v.62ZM14.07,8.17h.12v-.57s-.06-.04-.06-.12c0-.07.02-.13.05-.16.02-.02.04-.03.07-.03v-.17s-.17.07-.17.24v.81ZM12.8,8.06h.97s.12-.19.26-.25v-.62s-.03.09-.03.26v.02h-1.41v-.02c0-.18,0-.25-.04-.27v.63c.14.06.24.21.26.25Z"/>
        </g>
        <g>
          <path class="cls-1" d="M12.52,7.37c0-.24-.21-.27-.21-.27v.21c.08,0,.12.07.12.17s-.06.11-.06.11v.6h.15v-.83Z"/>
          <path class="cls-3" d="M12.54,8.21h-.19v-.64h.02s.04,0,.04-.09c0-.06-.01-.11-.04-.13-.01-.01-.03-.02-.05-.02h-.02v-.25h.02s.22.04.22.29v.85ZM12.39,8.17h.11v-.81c0-.18-.12-.23-.17-.24v.17s.05.01.07.03c.03.03.05.09.05.16,0,.08-.04.11-.06.12v.57Z"/>
        </g>
        <g>
          <path class="cls-3" d="M13.93,6.96h-1.29v-.03h1.29v.03ZM13.92,6.58h-1.26v-.03h1.26v.03ZM13.81,6.24h-1.06v-.03h1.06v.03ZM13.73,5.96h-.89v-.03h.89v.03ZM13.65,5.73h-.73v-.03h.73v.03Z"/>
          <path class="cls-3" d="M13.68,8.5h-.81v-.28h-.64v-.04h2.07v.04h-.63v.28ZM12.91,8.46h.73v-.24h-.73v.24Z"/>
        </g>
        <g>
          <path class="cls-1" d="M12.8,7.57c.13.15.12.41.11.56h.74c0-.15-.01-.41.11-.56h-.97ZM13.21,5.83l-.1-.05v-.15s.09.02.09.08c.01-.09.04-.09.08-.13.04.04.07.03.08.13,0-.07.05-.07.09-.08v.15l-.1.05h-.14Z"/>
          <path class="cls-3" d="M13.67,8.16h-.78v-.05c0-.15,0-.38-.11-.52l-.03-.03h1.05l-.03.03c-.11.14-.11.37-.11.52v.05ZM12.93,8.12h.7c0-.16,0-.38.1-.53h-.89c.1.15.1.37.1.52h0ZM13.36,5.84h-.16s-.11-.06-.11-.06v-.19h.04s.05.03.07.05c.01-.03.03-.04.05-.06,0,0,.02-.01.02-.02h.01s.01,0,.01,0c0,0,.02.01.02.02.02.02.04.03.05.06.02-.02.05-.03.07-.04h.04s0,.17,0,.17h-.01s-.11.06-.11.06ZM13.22,5.81h.14l.09-.04v-.11s-.05.02-.05.06h-.04c0-.06-.02-.07-.05-.09,0,0,0,0-.01,0,0,0,0,0-.01.01-.02.02-.04.03-.05.09h-.04s-.02-.05-.05-.06v.11l.09.04Z"/>
        </g>
        <g>
          <path class="cls-1" d="M13.21,6.07l-.17-.12v-.14c.06.01.12.02.13.09.02-.1.06-.16.12-.2.06.04.09.09.12.2,0-.07.07-.08.13-.09v.14l-.17.12h-.16Z"/>
          <path class="cls-3" d="M13.37,6.09h-.17s-.18-.12-.18-.12v-.17h.04s.08.03.1.06c.02-.07.05-.11.11-.15h.01s.01,0,.01,0c.05.04.09.08.11.15.03-.03.07-.04.1-.05h.04s0,.16,0,.16h0s-.17.12-.17.12ZM13.21,6.05h.15l.15-.11v-.1c-.06.01-.09.02-.09.07h-.04c-.02-.1-.05-.14-.1-.18-.04.03-.08.08-.1.18h-.04s-.04-.06-.09-.07v.1l.15.11Z"/>
        </g>
        <g>
          <path class="cls-1" d="M13.2,6.45l-.19-.17v-.2c.07.02.14.03.15.13.02-.15.07-.23.13-.29.07.06.11.14.13.29,0-.11.08-.11.15-.13v.2l-.19.17h-.18ZM13.55,6.67l-.17.24h-.2l-.17-.24h.55ZM12.9,7.08c.09.05.12.14.13.32h.49c0-.18.04-.27.13-.32h-.75Z"/>
          <path class="cls-3" d="M13.54,7.42h-.53v-.02c-.01-.18-.04-.26-.12-.31l-.06-.04h.9l-.07.04c-.08.04-.11.12-.12.31v.02ZM13.05,7.38h.46c0-.12.03-.22.09-.28h-.63c.06.06.08.16.09.28ZM13.39,6.94h-.22s-.2-.28-.2-.28h.62l-.2.28ZM13.19,6.9h.18l.15-.2h-.47l.15.2ZM13.38,6.47h-.2s-.2-.18-.2-.18v-.24h.02s.02.01.02.01c.04.01.09.03.12.07.02-.1.06-.17.12-.23h.01s.01,0,.01,0c.06.06.1.12.12.22.03-.04.07-.06.12-.07,0,0,.02,0,.02,0h.02s0,.23,0,.23h0s-.2.18-.2.18ZM13.2,6.43h.17l.18-.16v-.17c-.06.02-.11.03-.11.11h-.04c-.02-.12-.05-.2-.11-.26-.06.06-.09.14-.11.27h-.04c0-.08-.05-.1-.11-.11v.17l.18.16Z"/>
        </g>
        <g>
          <g>
            <path class="cls-1" d="M13.67,6.67v-.24c-.08.02-.14.07-.16.14,0-.08-.11-.27-.22-.36-.12.1-.22.27-.22.36-.02-.06-.08-.12-.16-.14v.24h.76Z"/>
            <path class="cls-3" d="M13.67,6.69h-.76l-.02-.02v-.24l.02-.02c.06.02.12.05.15.1.03-.1.13-.23.22-.31h.02c.1.08.19.22.22.32.03-.05.08-.08.15-.1l.02.02v.24l-.02.02ZM12.92,6.66h.73v-.2c-.06.02-.11.06-.13.12h-.04c0-.08-.1-.25-.2-.34-.11.1-.21.26-.2.33h-.04s-.06-.09-.13-.11v.2Z"/>
          </g>
          <g>
            <path class="cls-1" d="M13.7,7.08v-.24c-.09.02-.15.07-.18.14,0-.08-.12-.27-.24-.36-.13.1-.25.27-.24.36-.02-.06-.09-.12-.18-.14v.24h.84Z"/>
            <path class="cls-3" d="M13.7,7.1h-.84l-.02-.02v-.24l.02-.02c.07.02.13.05.16.1.03-.1.14-.23.24-.32h.02c.11.08.21.22.24.32.04-.05.09-.08.16-.1l.02.02v.24l-.02.02ZM12.88,7.06h.8v-.2c-.07.02-.12.06-.14.12h-.03c0-.07-.1-.25-.22-.34-.12.1-.23.26-.22.33h-.04s-.07-.09-.14-.11v.2Z"/>
          </g>
          <g>
            <path class="cls-1" d="M13.81,7.58v-.28c-.11.03-.18.11-.22.16,0-.15-.17-.38-.3-.46-.13.08-.3.32-.3.46-.04-.05-.11-.13-.22-.16v.28h1.04Z"/>
            <path class="cls-3" d="M13.81,7.6h-1.04l-.02-.02v-.28l.02-.02c.09.02.16.08.2.13.03-.15.18-.36.31-.43h.02c.12.07.28.27.31.43.06-.07.13-.11.2-.13l.02.02v.28l-.02.02ZM12.78,7.56h1.01v-.24c-.07.02-.13.07-.19.15h-.03c0-.15-.16-.37-.28-.45-.12.08-.28.3-.28.44h-.03s-.1-.11-.19-.14v.24Z"/>
          </g>
          <g>
            <path class="cls-1" d="M13.75,8.2v-.29c-.1.04-.13.14-.16.2.01-.29-.16-.61-.3-.68-.13.08-.31.4-.3.68-.03-.06-.06-.16-.16-.2v.29h.92Z"/>
            <path class="cls-3" d="M13.75,8.22h-.92l-.02-.02v-.29l.02-.02c.07.03.11.08.14.14.02-.28.19-.55.31-.62h.02c.12.07.29.34.31.62.03-.05.06-.11.14-.14l.02.02v.29l-.02.02ZM12.84,8.18h.88v-.24c-.06.04-.09.1-.11.15,0,0,0,.02-.01.03h-.03c.01-.29-.16-.59-.28-.67-.13.08-.3.39-.28.66h-.03s0-.01-.02-.02c-.02-.05-.05-.11-.11-.15v.24Z"/>
          </g>
        </g>
        <g>
          <path class="cls-1" d="M13.68,8.63v-.29c-.1.02-.11.06-.14.13.01-.17-.11-.37-.25-.45-.13.08-.26.28-.25.45-.03-.06-.04-.1-.14-.13v.29h.78Z"/>
          <path class="cls-3" d="M13.69,8.65h-.82v-.33h.02c.07.02.1.05.12.08.02-.17.14-.33.25-.39h0s0,0,0,0c.12.07.23.23.25.4.02-.03.05-.06.12-.07h.02s0,.33,0,.33ZM12.91,8.61h.74v-.24c-.06.02-.08.05-.1.09v.02s-.05.08-.05.08v-.09c.02-.17-.1-.35-.22-.43-.12.08-.24.26-.23.43v.09s-.04-.08-.04-.08v-.02s-.04-.07-.11-.09v.24Z"/>
        </g>
        <g id="a">
          <g>
            <path class="cls-1" d="M9.19,9.7v-.87c-.03-.11-.12-.21-.19-.23v-.77l.16.09.18.8v.98h-.15Z"/>
            <path class="cls-3" d="M9.35,9.72h-.19v-.89c-.03-.1-.12-.19-.18-.21h-.01v-.82l.19.11h0s.18.81.18.81v1ZM9.2,9.68h.11v-.96l-.18-.79-.12-.07v.72c.07.03.16.13.19.24v.85Z"/>
          </g>
          <g>
            <path class="cls-1" d="M9.19,9.7v-.87c-.03-.11-.12-.21-.19-.23v-.82c.11,0,.16.14.16.14l.18.8v.97h-.15Z"/>
            <path class="cls-3" d="M9.17,9.72v-.89c-.03-.1-.12-.19-.18-.21h-.01v-.86h.02c.12,0,.17.15.18.15l.18.8v1s-.19,0-.19,0ZM9.01,8.59c.07.03.16.13.19.24v.86s.11,0,.11,0v-.95l-.18-.8h0s-.04-.11-.12-.12v.78Z"/>
          </g>
          <g>
            <path class="cls-1" d="M9.07,9.93c.07-.03.18-.12.18-.22v-1.09l-.05-.09h1.85l-.07.09v1.09c0,.09.07.18.15.22h-2.06Z"/>
            <path class="cls-3" d="M11.22,9.94h-2.24l.08-.04c.07-.03.17-.12.17-.2v-1.08l-.06-.11h1.92l-.09.12v1.08c0,.08.07.17.14.2l.08.04ZM9.14,9.91h1.92c-.06-.05-.1-.12-.1-.2v-1.09h0s.05-.06.05-.06h-1.78l.04.07v1.09c0,.08-.06.15-.13.2Z"/>
          </g>
          <g>
            <path class="cls-1" d="M10.75,9.93c-.07-.03-.18-.12-.18-.22v-1.03l.15-.14h-1.26s.15.14.15.14v1.03c0,.09-.11.18-.18.22h1.31Z"/>
            <path class="cls-3" d="M10.85,9.94h-1.49l.08-.04c.07-.03.17-.12.17-.2v-1.02l-.18-.17h1.36l-.18.17v1.02c0,.08.1.17.17.2l.08.04ZM9.51,9.91h1.17c-.06-.05-.13-.12-.13-.2v-1.04h0s.12-.11.12-.11h-1.16l.12.11v1.04c0,.08-.06.15-.13.2Z"/>
          </g>
          <g>
            <path class="cls-1" d="M10.58,9.93c-.07-.03-.18-.12-.18-.22v-.93l.1-.14h-.8l.1.14v.93c0,.09-.11.18-.18.22h.96Z"/>
            <path class="cls-3" d="M10.68,9.94h-1.14l.08-.04c.07-.03.17-.12.17-.2v-.93l-.12-.17h.87l-.12.17v.93c0,.08.1.17.17.2l.08.04ZM9.7,9.91h.82c-.06-.05-.13-.12-.13-.2v-.94l.08-.12h-.73l.08.12v.94c0,.08-.06.15-.13.2Z"/>
          </g>
          <g>
            <path class="cls-1" d="M9.91,8.63h.38v1.29h-.38v-1.29Z"/>
            <path class="cls-3" d="M10.32,9.95h-.42v-1.33h.42v1.33ZM9.93,9.91h.34v-1.25h-.34v1.25Z"/>
          </g>
          <g>
            <path class="cls-1" d="M9.39,8.99h.15v.7h-.15v-.7ZM10.66,8.99h.15v.7h-.15v-.7ZM9.26,7.81h.18v.72h-.18v-.72ZM9.26,7.68h.18v.13h-.18v-.13Z"/>
            <path class="cls-3" d="M10.81,9.71h-.15l-.02-.02v-.7l.02-.02h.15l.02.02v.7l-.02.02ZM10.68,9.68h.12v-.67h-.12v.67ZM9.54,9.71h-.15l-.02-.02v-.7l.02-.02h.15l.02.02v.7l-.02.02ZM9.41,9.68h.12v-.67h-.12v.67ZM9.44,8.55h-.18l-.02-.02v-.85l.02-.02h.18l.02.02v.85s-.02.02-.02.02ZM9.28,8.51h.15v-.68h-.15v.68ZM9.28,7.79h.15v-.1h-.15v.1Z"/>
          </g>
          <g>
            <path class="cls-1" d="M10.77,7.97h.26v.56h-.26v-.56Z"/>
            <path class="cls-3" d="M11.03,8.54h-.26l-.02-.02v-.55l.02-.02h.26l.02.02v.55l-.02.02ZM10.79,8.5h.22v-.51h-.22v.51Z"/>
          </g>
          <g>
            <path class="cls-1" d="M9.44,8.52v-1.23c.05,0,.06.18.18.18.06,0,.06-.07.02-.14-.03-.05-.07-.13-.02-.27.04.11.13.14.11.07-.03-.11-.12-.13-.05-.31.02.15.12.14.09.06-.03-.1-.08-.14-.01-.27.04.16.09.15.09.05,0-.14,0-.3.18-.35,0,0,.01-.13.08-.13s.08.13.08.13c.18.06.18.21.18.35,0,.1.05.11.09-.05.07.14.01.18-.01.27-.02.09.07.09.09-.06.07.18-.02.2-.05.31-.02.07.08.03.11-.07.05.14.01.21-.02.27-.04.06-.04.14.02.14.12,0,.13-.18.18-.18v1.23h-1.34ZM9.15,7.6v.94h.11v-.94s-.07-.02-.11,0h0Z"/>
            <path class="cls-3" d="M9.28,8.55h-.15v-.97h0s.08-.03.13,0h.01v.98ZM9.17,8.51h.07v-.91s-.05,0-.07,0v.91ZM10.8,8.54h-1.38v-1.27h.02s.05.03.07.07c.02.05.05.11.11.11.02,0,.02,0,.02,0,.01-.02,0-.06-.02-.1-.03-.05-.08-.13-.02-.28l.02-.05.02.05c.02.06.07.09.08.09,0,0,0,0,0-.01,0-.03-.02-.06-.04-.08-.03-.06-.06-.11-.02-.24l.03-.07v.07c.02.07.05.09.06.1,0,0,0,0,0,0,0,0,0-.01,0-.04s-.01-.04-.02-.06c-.02-.06-.05-.12,0-.23l.02-.05v.05c.03.09.06.11.06.11,0,0,0-.02,0-.05h0c0-.15,0-.3.18-.37,0-.04.02-.14.09-.14s.09.1.09.14c.18.06.18.22.18.35h0s0,.06,0,.06c0,0,.02-.02.04-.11v-.05s.04.05.04.05c.05.11.03.17,0,.23,0,.02-.01.04-.02.06,0,.02,0,.03,0,.04,0,0,0,0,0,0,0,0,0,0,0,0,.01,0,.04-.03.05-.1v-.07s.04.07.04.07c.05.13.02.18-.02.24-.01.02-.03.05-.04.08,0,0,0,.01,0,.01h0s.06-.03.08-.1l.02-.05.02.05c.06.15,0,.23-.02.28-.02.04-.03.08-.02.1,0,0,0,0,.02,0,.06,0,.09-.06.11-.11.02-.04.04-.07.07-.07h.02v1.27ZM9.46,8.51h1.3v-1.17s-.01.02-.02.03c-.03.05-.06.13-.15.13-.03,0-.05-.02-.06-.03-.02-.04,0-.09.02-.13.02-.04.06-.1.03-.21-.03.05-.07.07-.1.07,0,0,0,0-.01,0-.02,0-.03-.02-.02-.06.01-.04.03-.07.04-.09.02-.04.04-.08.03-.14-.01.03-.03.05-.06.06-.02,0-.03,0-.05,0-.02-.01-.02-.04-.01-.07,0-.02.01-.05.02-.06.02-.05.03-.08.01-.15-.02.05-.04.08-.06.08,0,0,0,0,0,0-.02,0-.04-.02-.04-.09h0c0-.15,0-.28-.17-.33h-.01s0-.02,0-.02c0-.03-.02-.11-.06-.11s-.06.08-.06.11h0s-.01.02-.01.02c-.17.05-.17.18-.17.32h0c0,.08-.03.1-.04.1,0,0,0,0,0,0-.02,0-.05-.03-.06-.08-.02.06,0,.1.01.15,0,.02.02.04.02.06,0,.03,0,.06-.01.07-.01.01-.03.01-.05,0-.02,0-.04-.03-.06-.06-.01.07,0,.1.03.14.01.02.03.05.04.09,0,.03,0,.05-.02.06,0,0,0,0-.01,0-.03,0-.07-.03-.1-.07-.03.11,0,.17.03.21.02.04.04.1.02.13,0,.01-.02.03-.06.03-.08,0-.12-.07-.15-.13,0,0,0-.02-.02-.03v1.17Z"/>
          </g>
          <g>
            <path class="cls-1" d="M9.15,8.2c.13.07.26.15.3.33h-.3v-.33ZM10.99,7.92v.61h.09v-.61s-.06-.01-.09,0Z"/>
            <path class="cls-3" d="M11.1,8.55h-.12v-.64h0s.08-.02.11,0h.01v.65ZM11.01,8.52h.05v-.58s-.03,0-.05,0v.58ZM9.47,8.55h-.34v-.38h.03c.14.08.27.17.31.36v.02ZM9.17,8.52h.25c-.03-.15-.14-.22-.25-.28v.28Z"/>
          </g>
          <g>
            <path class="cls-1" d="M11.08,8.2c-.13.07-.26.15-.3.33h.3v-.33ZM10.2,6.77l.08-.06v-.08s-.04.01-.06.04c-.02-.06-.06-.1-.11-.12-.05.03-.09.07-.11.12-.02-.03-.04-.04-.06-.04v.08l.08.06h.19Z"/>
            <path class="cls-3" d="M11.1,8.55h-.34v-.02c.04-.19.17-.27.31-.35h.03s0,.37,0,.37ZM10.8,8.51h.25v-.28c-.12.06-.22.14-.25.28ZM10.21,6.79h-.21s-.08-.08-.08-.08v-.11h.02s.04.01.06.02c.02-.04.06-.08.11-.11h0s0,0,0,0c.05.02.08.06.11.11.02-.01.03-.02.06-.02h.02s0,.11,0,.11l-.09.08ZM10.02,6.75h.18l.06-.05v-.05s-.02.01-.03.03l-.02.03v-.04s-.06-.08-.1-.11c-.05.03-.08.06-.09.11v.04s-.03-.03-.03-.03c-.01-.01-.02-.02-.03-.03v.05l.06.05Z"/>
          </g>
          <g>
            <path class="cls-1" d="M10.24,6.98l.04-.08v-.11s-.04.01-.06.04c-.02-.06-.06-.1-.11-.13-.05.03-.09.07-.11.12-.02-.03-.04-.04-.06-.04v.11l.04.08h.28Z"/>
            <path class="cls-3" d="M10.26,6.99h-.3s-.04-.1-.04-.1v-.13h.02s.04.01.06.02c.02-.04.06-.08.11-.11h0s0,0,0,0c.05.03.08.06.11.11.02-.01.03-.02.06-.02h.02s0,.13,0,.13l-.04.09ZM9.98,6.96h.25l.03-.06v-.08s-.02.01-.03.03l-.02.03v-.04s-.06-.08-.1-.11c-.05.03-.08.06-.09.11v.04s-.03-.03-.03-.03c-.01-.01-.02-.02-.03-.03v.08l.03.06Z"/>
          </g>
          <g>
            <path class="cls-1" d="M10.25,7.26l.11-.14v-.14s-.06.02-.1.07c-.03-.09-.08-.12-.16-.16-.08.05-.14.06-.16.16-.03-.05-.05-.06-.1-.06v.14l.11.14h.29Z"/>
            <path class="cls-3" d="M10.26,7.28h-.31s-.12-.15-.12-.15v-.17h.02s.06.02.09.05c.03-.06.07-.08.12-.11.01,0,.02-.01.04-.02h0s0,0,0,0c.01,0,.02.01.03.02.06.03.1.06.13.12.02-.03.05-.04.09-.05h.02s0,.16,0,.16h0s-.12.15-.12.15ZM9.97,7.24h.27l.1-.13v-.11s-.04.02-.06.06l-.02.04v-.04c-.03-.07-.07-.1-.13-.13,0,0-.01,0-.02-.01,0,0-.02,0-.03.01-.06.03-.1.05-.12.12v.04s-.03-.04-.03-.04c-.02-.03-.04-.05-.06-.05v.11l.1.13Z"/>
          </g>
          <g>
            <path class="cls-1" d="M10.28,7.53s.13-.12.14-.18v-.15c-.05,0-.1.02-.14.08-.03-.12-.08-.16-.18-.22-.1.06-.15.09-.18.22-.04-.06-.09-.07-.14-.08v.15c.02.06.14.18.14.18h.35Z"/>
            <path class="cls-3" d="M10.29,7.55h-.37s-.13-.13-.15-.2v-.17s.02,0,.02,0c.04,0,.09.02.13.06.03-.1.09-.14.18-.19h.01s.01,0,.01,0c.09.06.14.09.18.19.04-.04.08-.05.13-.06h.02s0,.17,0,.17c0,.07-.13.18-.15.19h0ZM9.94,7.51h.34s.12-.12.13-.16v-.12s-.08.02-.1.07l-.02.04v-.04c-.04-.11-.08-.14-.17-.2-.09.06-.13.09-.16.2v.04s-.03-.04-.03-.04c-.03-.04-.06-.06-.1-.07v.12s.09.13.13.16Z"/>
          </g>
          <g>
            <path class="cls-1" d="M10.34,8.05s.18-.2.19-.28v-.23c-.07,0-.13.06-.18.15-.04-.19-.11-.32-.24-.42-.13.09-.19.22-.24.42-.05-.09-.12-.14-.18-.15v.23c.01.08.19.28.19.28h.47Z"/>
            <path class="cls-3" d="M10.35,8.06h-.49s-.18-.22-.19-.3v-.26h.02c.07.01.13.05.17.12.05-.18.12-.3.23-.38h.01s.01,0,.01,0c.11.08.19.2.23.38.05-.07.11-.11.17-.12h.02s0,.25,0,.25c0,.08-.17.27-.19.29h0ZM9.88,8.03h.45c.07-.08.17-.21.18-.26v-.21c-.06.02-.11.06-.15.14l-.02.05v-.05c-.05-.19-.12-.31-.23-.4-.11.08-.18.2-.22.4v.05s-.04-.05-.04-.05c-.04-.07-.09-.12-.15-.14v.21c0,.05.13.2.18.26Z"/>
          </g>
          <g>
            <path class="cls-1" d="M10.34,8.35s.16-.16.19-.23v-.23c-.07,0-.13.06-.18.15-.04-.19-.11-.3-.24-.39-.13.09-.19.2-.24.39-.05-.09-.12-.14-.18-.15v.23c.04.07.19.23.19.23h.47Z"/>
            <path class="cls-3" d="M10.35,8.37h-.49s-.15-.17-.19-.24h0v-.26h.02c.07.01.13.05.17.12.04-.17.11-.27.23-.36h.01s.01,0,.01,0c.12.09.19.19.23.36.05-.07.11-.11.17-.12h.02s0,.26,0,.26c-.03.07-.18.23-.19.23h0ZM9.88,8.33h.45s.15-.15.18-.21v-.2c-.06.02-.11.06-.15.14l-.02.05v-.05c-.05-.18-.11-.28-.23-.37-.12.09-.18.19-.22.37v.05s-.04-.05-.04-.05c-.04-.07-.09-.12-.15-.14v.2c.04.06.15.18.18.21Z"/>
          </g>
          <g>
            <path class="cls-1" d="M10.41,8.52c-.05-.2-.08-.35-.3-.49-.22.15-.26.3-.3.49h.61Z"/>
            <path class="cls-3" d="M10.43,8.54h-.66v-.02c.05-.19.08-.35.32-.51h.01s.01,0,.01,0c.23.16.27.32.31.51v.02ZM9.82,8.5h.56c-.04-.19-.09-.32-.28-.45-.19.13-.24.26-.28.45Z"/>
          </g>
          <g>
            <path class="cls-1" d="M10.52,8.63v-.29c-.1.04-.19.1-.22.16-.04-.16-.11-.23-.2-.33-.09.1-.15.17-.19.33-.03-.06-.12-.12-.22-.16v.29h.83Z"/>
            <path class="cls-3" d="M10.54,8.65h-.87v-.33h.03c.09.05.17.09.21.14.04-.13.09-.2.18-.29v-.02s.04.03.04.03c.07.08.14.15.18.28.04-.05.12-.1.21-.13h.03s0,.32,0,.32ZM9.71,8.61h.79v-.24c-.09.04-.16.09-.19.14l-.02.05v-.05c-.05-.14-.11-.21-.19-.3h0c-.08.09-.13.16-.17.3v.05s-.04-.05-.04-.05c-.03-.05-.09-.1-.19-.14v.24Z"/>
          </g>
        </g>
        <g id="a-2" data-name="a">
          <g>
            <path class="cls-1" d="M17.39,9.7v-.87c.03-.11.12-.21.19-.23v-.77l-.16.09-.18.8v.98h.15Z"/>
            <path class="cls-3" d="M17.41,9.72h-.19v-1l.18-.81.19-.11v.81h-.01c-.06.02-.15.11-.18.22v.88ZM17.26,9.68h.11v-.85c.03-.12.12-.21.19-.24v-.72l-.12.07-.18.79v.95Z"/>
          </g>
          <g>
            <path class="cls-1" d="M17.39,9.7v-.87c.03-.11.12-.21.19-.23v-.82c-.11,0-.16.14-.16.14l-.18.8v.97h.15Z"/>
            <path class="cls-3" d="M17.41,9.72h-.19v-1l.18-.8s.06-.16.18-.16h.02v.85h-.01c-.06.02-.15.11-.18.22v.89ZM17.26,9.68h.11s0-.85,0-.85c.03-.12.12-.21.19-.24v-.78c-.08.01-.12.12-.12.12l-.18.8v.95Z"/>
          </g>
          <g>
            <path class="cls-1" d="M17.5,9.93c-.07-.03-.18-.12-.18-.22v-1.09l.05-.09h-1.85l.07.09v1.09c0,.09-.07.18-.15.22h2.06Z"/>
            <path class="cls-3" d="M17.59,9.94h-2.24l.08-.04c.07-.03.14-.11.14-.2v-1.08l-.09-.12h1.92l-.06.11v1.08c0,.08.1.17.17.2l.08.04ZM15.51,9.91h1.92c-.06-.05-.13-.12-.13-.2v-1.1s.04-.06.04-.06h-1.78l.05.06v1.09c0,.08-.04.15-.1.2Z"/>
          </g>
          <g>
            <path class="cls-1" d="M15.82,9.93c.07-.03.18-.12.18-.22v-1.03l-.15-.14h1.26s-.15.14-.15.14v1.03c0,.09.11.18.18.22h-1.31Z"/>
            <path class="cls-3" d="M17.22,9.94h-1.49l.08-.04c.07-.03.17-.12.17-.2v-1.02l-.18-.17h1.36l-.18.17v1.02c0,.08.1.17.17.2l.08.04ZM15.89,9.91h1.17c-.06-.05-.13-.12-.13-.2v-1.04h0s.12-.11.12-.11h-1.16l.12.11v1.04c0,.08-.06.15-.13.2Z"/>
          </g>
          <g>
            <path class="cls-1" d="M15.99,9.93c.07-.03.18-.12.18-.22v-.93l-.1-.14h.8l-.1.14v.93c0,.09.11.18.18.22h-.96Z"/>
            <path class="cls-3" d="M17.04,9.94h-1.14l.08-.04c.07-.03.17-.12.17-.2v-.93l-.12-.17h.87l-.12.17v.93c0,.08.1.17.17.2l.08.04ZM16.06,9.91h.82c-.06-.05-.13-.12-.13-.2v-.94l.08-.12h-.73l.08.12v.94c0,.08-.06.15-.13.2Z"/>
          </g>
          <g>
            <path class="cls-1" d="M16.66,8.63h-.38v1.29h.38v-1.29Z"/>
            <path class="cls-3" d="M16.68,9.95h-.42v-1.33h.42v1.33ZM16.29,9.91h.34v-1.25h-.34v1.25Z"/>
          </g>
          <g>
            <path class="cls-1" d="M17.18,8.99h-.15v.7h.15v-.7ZM15.91,8.99h-.15v.7h.15v-.7ZM17.31,7.81h-.18v.72h.18v-.72ZM17.31,7.68h-.18v.13h.18v-.13Z"/>
            <path class="cls-3" d="M17.18,9.71h-.15l-.02-.02v-.7l.02-.02h.15l.02.02v.7l-.02.02ZM17.05,9.68h.12v-.67h-.12v.67ZM15.91,9.71h-.15l-.02-.02v-.7l.02-.02h.15l.02.02v.7l-.02.02ZM15.78,9.68h.12v-.67h-.12v.67ZM17.31,8.55h-.18l-.02-.02v-.85s.02-.02.02-.02h.18l.02.02v.85l-.02.02ZM17.15,8.51h.15v-.68h-.15v.68ZM17.15,7.79h.15v-.1h-.15v.1Z"/>
          </g>
          <g>
            <path class="cls-1" d="M15.8,7.97h-.26v.56h.26v-.56Z"/>
            <path class="cls-3" d="M15.8,8.54h-.26l-.02-.02v-.55l.02-.02h.26l.02.02v.55l-.02.02ZM15.56,8.5h.22v-.51h-.22v.51Z"/>
          </g>
          <g>
            <path class="cls-1" d="M17.13,8.52v-1.23c-.05,0-.06.18-.18.18-.06,0-.06-.07-.02-.14.03-.05.07-.13.02-.27-.04.11-.13.14-.11.07.03-.11.12-.13.05-.31-.02.15-.12.14-.09.06.03-.1.08-.14.01-.27-.04.16-.09.15-.09.05,0-.14,0-.3-.18-.35,0,0-.01-.13-.08-.13s-.08.13-.08.13c-.18.06-.18.21-.18.35,0,.1-.05.11-.09-.05-.07.14-.01.18.01.27.02.09-.07.09-.09-.06-.07.18.02.2.05.31.02.07-.08.03-.11-.07-.05.14-.01.21.02.27.04.06.04.14-.02.14-.12,0-.13-.18-.18-.18v1.23h1.34ZM17.42,7.6v.94h-.11v-.94s.07-.02.11,0h0Z"/>
            <path class="cls-3" d="M17.44,8.55h-.15v-.97h.01s.09-.03.13,0h0v.97ZM17.33,8.51h.07v-.91s-.04,0-.07,0v.91ZM17.15,8.54h-1.38v-1.27h.02s.05.03.07.07c.02.05.05.11.11.11.02,0,.02,0,.02,0,.01-.02,0-.06-.02-.1-.03-.05-.08-.13-.02-.28l.02-.05.02.05c.02.06.07.09.08.09,0,0,0,0,0-.01,0-.03-.02-.06-.04-.08-.03-.06-.06-.11-.02-.24l.03-.07v.07c.02.07.05.09.06.1,0,0,0,0,0,0,0,0,0-.01,0-.04,0-.02-.01-.04-.02-.06-.02-.06-.05-.12,0-.23l.02-.05v.05c.03.09.06.11.06.11,0,0,0-.02,0-.05h0c0-.15,0-.3.18-.37,0-.04.02-.14.09-.14s.09.1.09.14c.18.06.18.22.18.36h0s0,.06,0,.06c0,0,.02-.02.04-.11v-.05s.04.05.04.05c.05.11.03.17,0,.23,0,.02-.02.04-.02.06s0,.03,0,.04c0,0,0,0,0,0,.01,0,.04-.03.05-.1v-.07s.04.07.04.07c.05.13.02.18-.02.24-.01.02-.03.05-.04.08,0,0,0,.01,0,.01h0s.06-.03.08-.1l.02-.05.02.05c.06.15,0,.23-.02.28-.02.04-.03.08-.02.1,0,0,0,0,.02,0,.06,0,.09-.06.11-.11.02-.04.04-.07.07-.07h.02v1.27ZM15.81,8.51h1.3v-1.17s-.01.02-.02.03c-.03.05-.06.13-.15.13-.03,0-.05-.02-.06-.03-.02-.04,0-.09.02-.13.02-.04.06-.1.03-.21-.03.05-.07.07-.1.07,0,0,0,0-.01,0-.02,0-.03-.02-.02-.06.01-.04.03-.07.04-.09.02-.04.04-.08.03-.14-.01.03-.03.05-.06.06-.02,0-.03,0-.05,0-.02-.01-.02-.04-.01-.07,0-.02.02-.04.02-.06.02-.05.03-.08.01-.15-.02.05-.04.08-.06.08,0,0,0,0,0,0-.02,0-.04-.02-.04-.09h0c0-.15,0-.28-.17-.33h-.01s0-.02,0-.02c0-.03-.02-.11-.06-.11s-.06.08-.06.11h0s-.01.02-.01.02c-.17.05-.17.18-.17.32h0c0,.08-.03.1-.04.1-.02,0-.05-.02-.07-.08-.02.06,0,.1.01.15,0,.02.02.04.02.06,0,.03,0,.06-.01.07-.01.01-.03.01-.05,0-.02,0-.04-.03-.06-.06-.01.07,0,.1.03.14.01.03.03.05.04.09,0,.03,0,.05-.02.06,0,0,0,0-.01,0-.03,0-.07-.03-.1-.07-.03.11,0,.17.03.21.02.04.04.1.02.13,0,.01-.02.03-.06.03-.08,0-.12-.07-.15-.13,0,0,0-.02-.02-.03v1.17Z"/>
          </g>
          <g>
            <path class="cls-1" d="M17.42,8.2c-.13.07-.26.15-.3.33h.3v-.33ZM15.58,7.92v.61h-.09v-.61s.06-.01.09,0Z"/>
            <path class="cls-3" d="M17.44,8.55h-.34v-.02c.04-.19.17-.28.31-.35h.03s0,.37,0,.37ZM17.14,8.52h.25v-.28c-.12.06-.22.13-.25.28ZM15.6,8.55h-.12v-.65h.01s.07-.03.11,0h0v.65ZM15.51,8.52h.05v-.58s-.03,0-.05,0v.58Z"/>
          </g>
          <g>
            <path class="cls-1" d="M15.5,8.2c.13.07.26.15.3.33h-.3v-.33ZM16.37,6.77l-.08-.06v-.08s.04.01.06.04c.02-.06.06-.1.11-.12.05.03.09.07.11.12.02-.03.04-.04.06-.04v.08l-.08.06h-.19Z"/>
            <path class="cls-3" d="M15.82,8.55h-.34v-.38h.03c.14.09.27.17.31.36v.02ZM15.51,8.51h.25c-.03-.15-.13-.22-.25-.28v.28ZM16.57,6.79h-.21s-.08-.08-.08-.08v-.11h.02s.04.01.06.03c.02-.04.06-.08.11-.11h0s0,0,0,0c.05.02.08.06.11.11.02-.01.03-.02.06-.02h.02s0,.11,0,.11l-.09.08ZM16.38,6.75h.18l.06-.05v-.05s-.02.01-.03.03l-.02.03v-.04s-.06-.08-.1-.11c-.04.03-.08.06-.09.11v.04s-.03-.03-.03-.03c-.01-.01-.02-.02-.03-.03v.05l.06.05Z"/>
          </g>
          <g>
            <path class="cls-1" d="M16.33,6.98l-.04-.08v-.11s.04.01.06.04c.02-.06.06-.1.11-.13.05.03.09.07.11.12.02-.03.04-.04.06-.04v.11l-.04.08h-.28Z"/>
            <path class="cls-3" d="M16.62,6.99h-.3s-.04-.1-.04-.1v-.13h.02s.04.01.06.03c.02-.05.06-.08.11-.11h0s0,0,0,0c.05.03.08.06.11.11.02-.01.03-.02.06-.02h.02s0,.13,0,.13l-.04.09ZM16.34,6.96h.25l.03-.06v-.08s-.02.01-.03.03l-.02.03v-.04s-.06-.08-.1-.11c-.04.03-.08.06-.09.11v.04s-.03-.03-.03-.03c-.01-.02-.02-.02-.03-.03v.08l.03.06Z"/>
          </g>
          <g>
            <path class="cls-1" d="M16.32,7.26l-.11-.14v-.14s.06.02.1.07c.03-.09.08-.12.16-.16.08.05.14.06.16.16.03-.05.05-.06.1-.06v.14l-.11.14h-.29Z"/>
            <path class="cls-3" d="M16.62,7.28h-.31s-.12-.15-.12-.15v-.17h.02s.06.02.09.05c.03-.06.07-.09.13-.12,0,0,.02-.01.03-.02h0s0,0,0,0c.01,0,.02.01.04.02.05.03.1.05.12.11.02-.03.05-.04.09-.04h.02s0,.16,0,.16h0s-.12.15-.12.15ZM16.33,7.24h.27l.1-.13v-.11s-.04.02-.06.05l-.02.04v-.04c-.03-.07-.07-.09-.13-.12,0,0-.02,0-.03-.01,0,0-.01,0-.02.01-.06.04-.1.06-.12.13v.04s-.03-.04-.03-.04c-.02-.03-.04-.05-.06-.06v.11l.1.13Z"/>
          </g>
          <g>
            <path class="cls-1" d="M16.29,7.53s-.13-.12-.14-.18v-.15c.05,0,.1.02.14.08.03-.12.08-.16.18-.22.1.06.15.09.18.22.04-.06.09-.07.14-.08v.15c-.02.06-.14.18-.14.18h-.35Z"/>
            <path class="cls-3" d="M16.65,7.55h-.37s-.14-.13-.15-.2v-.17h.02s.09.02.13.06c.03-.1.09-.13.18-.19h.01s.01,0,.01,0c.09.06.14.09.18.19.04-.04.08-.05.13-.06h.02s0,.17,0,.17c-.02.07-.13.18-.15.19h0ZM16.3,7.51h.34s.12-.12.13-.17v-.12s-.08.02-.1.07l-.02.04v-.04c-.04-.11-.08-.14-.17-.2-.09.06-.13.09-.16.2v.04s-.03-.04-.03-.04c-.03-.04-.06-.06-.1-.07v.12s.08.12.13.16Z"/>
          </g>
          <g>
            <path class="cls-1" d="M16.23,8.05s-.18-.2-.19-.28v-.23c.07,0,.13.06.18.15.04-.19.11-.32.24-.42.13.09.19.22.24.42.05-.09.12-.14.18-.15v.23c-.01.08-.19.28-.19.28h-.47Z"/>
            <path class="cls-3" d="M16.71,8.06h-.49s-.19-.22-.19-.3v-.25h.02c.07.01.13.05.17.12.05-.18.12-.3.23-.38h.01s.01,0,.01,0c.12.08.19.2.23.38.05-.07.11-.11.17-.12h.02s0,.25,0,.25c-.01.08-.17.27-.19.29h0ZM16.24,8.03h.45c.05-.06.17-.21.18-.26v-.2c-.06.02-.11.06-.15.14l-.02.05v-.05c-.05-.19-.12-.31-.23-.4-.11.08-.17.2-.22.4v.05s-.04-.05-.04-.05c-.04-.07-.09-.12-.15-.14v.21s.1.18.18.26Z"/>
          </g>
          <g>
            <path class="cls-1" d="M16.23,8.35s-.16-.16-.19-.23v-.23c.07,0,.13.06.18.15.04-.19.11-.3.24-.39.13.09.19.2.24.39.05-.09.12-.14.18-.15v.23c-.04.07-.19.23-.19.23h-.47Z"/>
            <path class="cls-3" d="M16.71,8.37h-.49s-.16-.17-.19-.24h0v-.26h.02c.07.01.13.05.17.12.04-.17.11-.27.23-.36h.01s.01,0,.01,0c.12.09.19.19.23.36.05-.07.11-.11.17-.12h.02s0,.26,0,.26c-.04.07-.18.22-.19.23h0ZM16.24,8.33h.45s.14-.15.18-.21v-.2c-.06.02-.11.06-.15.14l-.02.05v-.05c-.05-.18-.11-.28-.23-.37-.12.09-.18.19-.22.37v.05s-.04-.05-.04-.05c-.04-.07-.09-.12-.15-.14v.2c.03.06.15.18.18.21Z"/>
          </g>
          <g>
            <path class="cls-1" d="M16.16,8.52c.05-.2.08-.35.3-.49.22.15.26.3.3.49h-.61Z"/>
            <path class="cls-3" d="M16.8,8.54h-.66v-.02c.05-.19.08-.35.32-.51h.01s.01,0,.01,0c.23.16.27.32.31.51v.02ZM16.19,8.5h.56c-.04-.19-.09-.32-.28-.45-.19.13-.24.26-.28.45Z"/>
          </g>
          <g>
            <path class="cls-1" d="M16.05,8.63v-.29c.1.04.19.1.22.16.04-.16.11-.23.2-.33.09.1.15.17.19.33.03-.06.12-.12.22-.16v.29h-.83Z"/>
            <path class="cls-3" d="M16.9,8.65h-.87v-.33h.03c.09.05.17.09.21.14.04-.13.1-.2.18-.28l.03-.03v.02c.1.09.16.16.19.29.04-.05.12-.1.21-.13h.03s0,.32,0,.32ZM16.07,8.61h.79v-.24c-.09.04-.16.09-.19.14l-.02.05v-.05c-.05-.15-.1-.21-.18-.3h0c-.08.09-.15.16-.18.3v.05s-.04-.05-.04-.05c-.03-.05-.09-.1-.19-.14v.24Z"/>
          </g>
        </g>
        <g>
          <path class="cls-1" d="M8.78,9.91v.26h9.01v-.26h-9.01ZM8.62,10.18v.34h9.34v-.34h-9.34ZM17.95,10.52h-9.34s-.27,0-.27,0v.45h9.88v-.45h-.27ZM8.07,10.98v.53h10.43v-.53h-10.43ZM18.5,11.51h0s-10.43,0-10.43,0h0s-.27,0-.27,0v.53h10.98v-.53h-.27Z"/>
          <path class="cls-3" d="M18.8,12.06H7.78v-.57h.27v-.53h.27v-.46h.27s0-.34,0-.34h.16v-.26h9.05v.26h.16v.34h.27v.46h.27v.53h.27v.57ZM7.81,12.02h10.94v-.49H7.81v.49ZM8.09,11.49h10.39v-.49h-10.39v.49ZM8.36,10.95h9.84v-.41h-.25s-9.34,0-9.34,0h-.25s0,.41,0,.41ZM8.64,10.5h9.3v-.3h-9.3v.3ZM8.8,10.16h8.97v-.22h-8.97v.22Z"/>
        </g>
        <g>
          <path class="cls-1" d="M9.76,9.92h.68v2.12h-.68v-2.12Z"/>
          <path class="cls-3" d="M10.46,12.06h-.72v-2.16h.72v2.16ZM9.78,12.02h.64v-2.08h-.64v2.08Z"/>
        </g>
        <g>
          <path class="cls-1" d="M9.91,9.92h.38v2.12h-.38v-2.12Z"/>
          <path class="cls-3" d="M10.31,12.06h-.42v-2.16h.42v2.16ZM9.93,12.02h.34v-2.08h-.34v2.08Z"/>
        </g>
        <g>
          <path class="cls-1" d="M12.95,9.92h.68v2.12h-.68v-2.12Z"/>
          <path class="cls-3" d="M13.65,12.06h-.72v-2.16h.72v2.16ZM12.97,12.02h.64v-2.08h-.64v2.08Z"/>
        </g>
        <g>
          <path class="cls-1" d="M13.1,9.92h.38v2.12h-.38v-2.12Z"/>
          <path class="cls-3" d="M13.5,12.06h-.42v-2.16h.42v2.16ZM13.12,12.02h.34v-2.08h-.34v2.08Z"/>
        </g>
        <g>
          <path class="cls-1" d="M16.13,9.92h.68v2.12h-.68v-2.12Z"/>
          <path class="cls-3" d="M16.83,12.06h-.72v-2.16h.72v2.16ZM16.15,12.02h.64v-2.08h-.64v2.08Z"/>
        </g>
        <g>
          <path class="cls-1" d="M16.28,9.92h.38v2.12h-.38v-2.12Z"/>
          <path class="cls-3" d="M16.68,12.06h-.42v-2.16h.42v2.16ZM16.3,12.02h.34v-2.08h-.34v2.08Z"/>
        </g>
        <path class="cls-3" d="M16.66,11.79h-.39v-.04h.39v.04ZM13.46,11.79h-.37v-.04h.37v.04ZM10.3,11.79h-.39v-.04h.39v.04ZM16.66,11.53h-.39v-.04h.39v.04ZM13.46,11.53h-.37v-.04h.37v.04ZM10.3,11.53h-.39v-.04h.39v.04ZM16.66,11.26h-.39v-.04h.39v.04ZM13.46,11.26h-.37v-.04h.37v.04ZM10.3,11.26h-.39v-.04h.39v.04ZM16.66,10.99h-.39v-.04h.39v.04ZM13.46,10.99h-.37v-.04h.37v.04ZM10.3,10.99h-.39v-.04h.39v.04ZM16.66,10.73h-.39v-.04h.39v.04ZM10.3,10.73h-.39v-.04h.39v.04ZM13.46,10.73h-.37v-.04h.37v.04ZM16.66,10.46h-.39v-.04h.39v.04ZM13.46,10.46h-.37v-.04h.37v.04ZM10.3,10.46h-.39v-.04h.39v.04ZM16.66,10.2h-.39v-.04h.39v.04ZM13.46,10.2h-.37v-.04h.37v.04ZM10.3,10.2h-.39v-.04h.39v.04ZM17.4,9.72h-8.21v-.04h8.21v.04Z"/>
      </g>
    </g>
  </g>
</svg>