<?xml version="1.0" encoding="UTF-8"?>
<svg id="Layer_2" data-name="Layer 2" xmlns="http://www.w3.org/2000/svg" viewBox="0 0 26.57 17.01">
  <defs>
    <style>
      .cls-1 {
        stroke-width: .04px;
      }

      .cls-1, .cls-2, .cls-3, .cls-4, .cls-5, .cls-6, .cls-7, .cls-8, .cls-9, .cls-10, .cls-11 {
        stroke: #010101;
      }

      .cls-1, .cls-2, .cls-3, .cls-4, .cls-5, .cls-6, .cls-7, .cls-9, .cls-10 {
        fill: #fff;
      }

      .cls-1, .cls-2, .cls-3, .cls-6, .cls-8, .cls-10, .cls-11 {
        stroke-miterlimit: 6.4;
      }

      .cls-2 {
        stroke-width: .04px;
      }

      .cls-3 {
        stroke-width: .04px;
      }

      .cls-4, .cls-5, .cls-7, .cls-9 {
        stroke-linejoin: bevel;
      }

      .cls-4, .cls-6, .cls-11 {
        stroke-width: .04px;
      }

      .cls-5 {
        stroke-width: .04px;
      }

      .cls-12 {
        fill: #243d95;
      }

      .cls-7 {
        stroke-width: .04px;
      }

      .cls-8 {
        stroke-width: .03px;
      }

      .cls-8, .cls-11 {
        fill: none;
      }

      .cls-9 {
        stroke-width: .04px;
      }

      .cls-10 {
        stroke-width: .03px;
      }

      .cls-13 {
        fill: #df1f28;
      }
    </style>
  </defs>
  <g id="Layer_1-2" data-name="Layer 1">
    <g>
      <path class="cls-12" d="M0,0h26.57v17.01H0V0Z"/>
      <path class="cls-13" d="M0,4.25h26.57v8.5H0V4.25Z"/>
      <g>
        <g>
          <path class="cls-4" d="M10.89,7.97h4.84v1.86h-4.84v-1.86Z"/>
          <path class="cls-4" d="M10.87,8.35h4.84v.19h-4.84v-.19ZM10.87,8.65h4.84v.22h-4.84v-.22ZM10.93,8.99v.7h.15v-.7h-.15ZM11.23,8.99v.7h.15v-.7h-.15ZM11.55,8.99v.7h.15v-.7h-.15ZM11.87,8.99v.7h.15v-.7h-.15ZM12.17,8.99v.7h.15v-.7h-.15ZM14.25,8.99v.7h.15v-.7h-.15ZM14.54,8.99v.7h.15v-.7h-.15ZM14.86,8.99v.7h.15v-.7h-.15ZM15.18,8.99v.7h.15v-.7h-.15ZM15.48,8.99v.7h.15v-.7h-.15Z"/>
          <path class="cls-9" d="M10.87,8.06h4.84v.19h-4.84v-.19Z"/>
          <path class="cls-10" d="M8.99,9.93c.07-.04.16-.13.19-.23h8.21c.03.1.11.19.19.23h-8.59Z"/>
        </g>
        <path class="cls-6" d="M13.19,5.13s0-.17.1-.18c.1,0,.1.18.1.18h-.19ZM12.65,7.45v-.24c0-.12-.12-.13-.12-.21,0,0-.01-.13.02-.19.05.17.13.14.13.07,0-.06-.05-.12-.14-.27-.03-.05-.01-.2.03-.25.02.13.04.19.09.19.03,0,.06-.02.06-.09,0-.08-.06-.13-.08-.2-.03-.09-.01-.18.04-.23.02.13.02.18.07.18.12-.04,0-.2-.02-.25-.03-.05.04-.15.04-.15.04.11.05.12.09.11.05-.01.04-.09-.02-.15-.04-.04-.03-.09,0-.14.04.08.09.08.1.03l-.03-.19h.73l-.04.18c-.01.05.06.06.1-.02.04.05.05.1,0,.14-.06.06-.07.13-.02.15.04.01.05,0,.09-.11,0,0,.06.07.04.15-.02.04-.14.21-.02.25.06,0,.05-.05.07-.18.05.05.08.14.04.23-.03.08-.08.12-.08.2,0,.07.03.09.06.09.06,0,.08-.06.09-.19.04.05.06.2.03.25-.1.15-.14.21-.14.27,0,.07.08.1.13-.07.03.06.02.19.02.19,0,.09-.12.09-.12.21v.24h-1.25ZM12.96,5.49l-.02-.13h.67l-.02.13h-.64ZM13.01,5.36v-.11s.56,0,.56,0v.11h-.56ZM13.1,5.25v-.11s.38,0,.38,0v.11h-.38ZM14.5,9.93c-.09-.03-.21-.12-.21-.22v-1.03l.11-.14h-2.24l.11.14v1.03c0,.09-.09.18-.17.22h2.41Z"/>
        <path class="cls-7" d="M12.56,8.99h.15v.7h-.15v-.7ZM13.85,8.99h.15v.7h-.15v-.7Z"/>
        <path class="cls-6" d="M12.14,7.36v1.18h2.3v-1.18c-.09.04-.11.12-.11.12v.5h-2.07v-.5s-.02-.09-.12-.12h0Z"/>
        <path class="cls-6" d="M12.5,8.41c.07.04.15.07.18.14v1.16c0,.09-.13.18-.2.21h0s0,0,0,0h0s1.62,0,1.62,0h0,0,0c-.08-.04-.2-.13-.2-.22v-1.16c.03-.07.11-.1.18-.14h-1.58,0Z"/>
        <path class="cls-6" d="M14.32,8.42v-.83h-.21v-.08h-1.65v.08h-.21v.83h2.07ZM13.79,9.93c-.07-.03-.18-.12-.18-.22v-.99l.06-.09h-.75l.06.09v.99c0,.09-.11.18-.18.22h.99Z"/>
        <path class="cls-1" d="M13.1,8.63h.38v1.29h-.38v-1.29Z"/>
        <path class="cls-7" d="M13.67,8.35c0-.09.25-.09.38-.16h-1.53c.13.07.37.08.37.16l.05.17.63.03.1-.19Z"/>
        <path class="cls-6" d="M13.97,7.45c0-.21,0-.29.07-.29v.66c-.16.06-.27.26-.27.26h-.99s-.11-.2-.27-.26v-.66c.08,0,.08.08.08.29h1.37ZM14.05,7.37c0-.24.21-.27.21-.27v.21c-.08,0-.12.07-.12.17s.06.11.06.11v.6h-.15v-.83Z"/>
        <path class="cls-6" d="M12.52,7.37c0-.24-.21-.27-.21-.27v.21c.08,0,.12.07.12.17s-.06.11-.06.11v.6h.15v-.83Z"/>
        <g>
          <path class="cls-8" d="M12.92,5.72h.73M12.84,5.95h.89M12.75,6.22h1.06M12.66,6.56h1.26M12.63,6.94h1.29"/>
          <path class="cls-11" d="M12.24,8.2h2.07M12.9,8.2h.77v.28h-.77v-.28Z"/>
        </g>
        <path class="cls-6" d="M12.8,7.57c.13.15.12.41.11.56h.74c0-.15-.01-.41.11-.56h-.97ZM13.21,5.83l-.1-.05v-.15s.09.02.09.08c.01-.09.04-.09.08-.13.04.04.07.03.08.13,0-.07.05-.07.09-.08v.15l-.1.05h-.14Z"/>
        <path class="cls-6" d="M13.21,6.07l-.17-.12v-.14c.06.01.12.02.13.09.02-.1.06-.16.12-.2.06.04.09.09.12.2,0-.07.07-.08.13-.09v.14l-.17.12h-.16Z"/>
        <path class="cls-6" d="M13.2,6.45l-.19-.17v-.2c.07.02.14.03.15.13.02-.15.07-.23.13-.29.07.06.11.14.13.29,0-.11.08-.11.15-.13v.2l-.19.17h-.18ZM13.55,6.67l-.17.24h-.2l-.17-.24h.55ZM12.9,7.08c.09.05.12.14.13.32h.49c0-.18.04-.27.13-.32h-.75Z"/>
        <g>
          <path class="cls-7" d="M13.67,6.67v-.24c-.08.02-.14.07-.16.14,0-.08-.11-.27-.22-.36-.12.1-.22.27-.22.36-.02-.06-.08-.12-.16-.14v.24h.76Z"/>
          <path class="cls-7" d="M13.7,7.08v-.24c-.09.02-.15.07-.18.14,0-.08-.12-.27-.24-.36-.13.1-.25.27-.24.36-.02-.06-.09-.12-.18-.14v.24h.84Z"/>
          <path class="cls-7" d="M13.81,7.58v-.28c-.11.03-.18.11-.22.16,0-.15-.17-.38-.3-.46-.13.08-.3.32-.3.46-.04-.05-.11-.13-.22-.16v.28h1.04Z"/>
          <path class="cls-7" d="M13.75,8.2v-.29c-.1.04-.13.14-.16.2.01-.29-.16-.61-.3-.68-.13.08-.31.4-.3.68-.03-.06-.06-.16-.16-.2v.29h.92Z"/>
        </g>
        <path class="cls-6" d="M13.68,8.63v-.29c-.1.02-.11.06-.14.13.01-.17-.11-.37-.25-.45-.13.08-.26.28-.25.45-.03-.06-.04-.1-.14-.13v.29h.78Z"/>
        <g id="a">
          <path class="cls-6" d="M9.19,9.7v-.87c-.03-.11-.12-.21-.19-.23v-.77l.16.09.18.8v.98h-.15Z"/>
          <path class="cls-6" d="M9.19,9.7v-.87c-.03-.11-.12-.21-.19-.23v-.82c.11,0,.16.14.16.14l.18.8v.97h-.15Z"/>
          <path class="cls-6" d="M9.07,9.93c.07-.03.18-.12.18-.22v-1.09l-.05-.09h1.85l-.07.09v1.09c0,.09.07.18.15.22h-2.06Z"/>
          <path class="cls-6" d="M10.75,9.93c-.07-.03-.18-.12-.18-.22v-1.03l.15-.14h-1.26s.15.14.15.14v1.03c0,.09-.11.18-.18.22h1.31Z"/>
          <path class="cls-6" d="M10.58,9.93c-.07-.03-.18-.12-.18-.22v-.93l.1-.14h-.8l.1.14v.93c0,.09-.11.18-.18.22h.96Z"/>
          <path class="cls-6" d="M9.91,8.63h.38v1.29h-.38v-1.29Z"/>
          <path class="cls-7" d="M9.39,8.99h.15v.7h-.15v-.7ZM10.66,8.99h.15v.7h-.15v-.7ZM9.26,7.81h.18v.72h-.18v-.72ZM9.26,7.68h.18v.13h-.18v-.13Z"/>
          <path class="cls-5" d="M10.77,7.97h.26v.56h-.26v-.56Z"/>
          <path class="cls-6" d="M9.44,8.52v-1.23c.05,0,.06.18.18.18.06,0,.06-.07.02-.14-.03-.05-.07-.13-.02-.27.04.11.13.14.11.07-.03-.11-.12-.13-.05-.31.02.15.12.14.09.06-.03-.1-.08-.14-.01-.27.04.16.09.15.09.05,0-.14,0-.3.18-.35,0,0,.01-.13.08-.13s.08.13.08.13c.18.06.18.21.18.35,0,.1.05.11.09-.05.07.14.01.18-.01.27-.02.09.07.09.09-.06.07.18-.02.2-.05.31-.02.07.08.03.11-.07.05.14.01.21-.02.27-.04.06-.04.14.02.14.12,0,.13-.18.18-.18v1.23h-1.34ZM9.15,7.6v.94h.11v-.94s-.07-.02-.11,0h0Z"/>
          <path class="cls-6" d="M9.15,8.2c.13.07.26.15.3.33h-.3v-.33ZM10.99,7.92v.61h.09v-.61s-.06-.01-.09,0Z"/>
          <path class="cls-6" d="M11.08,8.2c-.13.07-.26.15-.3.33h.3v-.33ZM10.2,6.77l.08-.06v-.08s-.04.01-.06.04c-.02-.06-.06-.1-.11-.12-.05.03-.09.07-.11.12-.02-.03-.04-.04-.06-.04v.08l.08.06h.19Z"/>
          <path class="cls-6" d="M10.24,6.98l.04-.08v-.11s-.04.01-.06.04c-.02-.06-.06-.1-.11-.13-.05.03-.09.07-.11.12-.02-.03-.04-.04-.06-.04v.11l.04.08h.28Z"/>
          <path class="cls-6" d="M10.25,7.26l.11-.14v-.14s-.06.02-.1.07c-.03-.09-.08-.12-.16-.16-.08.05-.14.06-.16.16-.03-.05-.05-.06-.1-.06v.14l.11.14h.29Z"/>
          <path class="cls-6" d="M10.28,7.53s.13-.12.14-.18v-.15c-.05,0-.1.02-.14.08-.03-.12-.08-.16-.18-.22-.1.06-.15.09-.18.22-.04-.06-.09-.07-.14-.08v.15c.02.06.14.18.14.18h.35Z"/>
          <path class="cls-6" d="M10.34,8.05s.18-.2.19-.28v-.23c-.07,0-.13.06-.18.15-.04-.19-.11-.32-.24-.42-.13.09-.19.22-.24.42-.05-.09-.12-.14-.18-.15v.23c.01.08.19.28.19.28h.47Z"/>
          <path class="cls-6" d="M10.34,8.35s.16-.16.19-.23v-.23c-.07,0-.13.06-.18.15-.04-.19-.11-.3-.24-.39-.13.09-.19.2-.24.39-.05-.09-.12-.14-.18-.15v.23c.04.07.19.23.19.23h.47Z"/>
          <path class="cls-6" d="M10.41,8.52c-.05-.2-.08-.35-.3-.49-.22.15-.26.3-.3.49h.61Z"/>
          <path class="cls-6" d="M10.52,8.63v-.29c-.1.04-.19.1-.22.16-.04-.16-.11-.23-.2-.33-.09.1-.15.17-.19.33-.03-.06-.12-.12-.22-.16v.29h.83Z"/>
        </g>
        <g id="a-2" data-name="a">
          <path class="cls-6" d="M17.39,9.7v-.87c.03-.11.12-.21.19-.23v-.77l-.16.09-.18.8v.98h.15Z"/>
          <path class="cls-6" d="M17.39,9.7v-.87c.03-.11.12-.21.19-.23v-.82c-.11,0-.16.14-.16.14l-.18.8v.97h.15Z"/>
          <path class="cls-6" d="M17.5,9.93c-.07-.03-.18-.12-.18-.22v-1.09l.05-.09h-1.85l.07.09v1.09c0,.09-.07.18-.15.22h2.06Z"/>
          <path class="cls-6" d="M15.82,9.93c.07-.03.18-.12.18-.22v-1.03l-.15-.14h1.26s-.15.14-.15.14v1.03c0,.09.11.18.18.22h-1.31Z"/>
          <path class="cls-6" d="M15.99,9.93c.07-.03.18-.12.18-.22v-.93l-.1-.14h.8l-.1.14v.93c0,.09.11.18.18.22h-.96Z"/>
          <path class="cls-6" d="M16.66,8.63h-.38v1.29h.38v-1.29Z"/>
          <path class="cls-7" d="M17.18,8.99h-.15v.7h.15v-.7ZM15.91,8.99h-.15v.7h.15v-.7ZM17.31,7.81h-.18v.72h.18v-.72ZM17.31,7.68h-.18v.13h.18v-.13Z"/>
          <path class="cls-5" d="M15.8,7.97h-.26v.56h.26v-.56Z"/>
          <path class="cls-6" d="M17.13,8.52v-1.23c-.05,0-.06.18-.18.18-.06,0-.06-.07-.02-.14.03-.05.07-.13.02-.27-.04.11-.13.14-.11.07.03-.11.12-.13.05-.31-.02.15-.12.14-.09.06.03-.1.08-.14.01-.27-.04.16-.09.15-.09.05,0-.14,0-.3-.18-.35,0,0-.01-.13-.08-.13s-.08.13-.08.13c-.18.06-.18.21-.18.35,0,.1-.05.11-.09-.05-.07.14-.01.18.01.27.02.09-.07.09-.09-.06-.07.18.02.2.05.31.02.07-.08.03-.11-.07-.05.14-.01.21.02.27.04.06.04.14-.02.14-.12,0-.13-.18-.18-.18v1.23h1.34ZM17.42,7.6v.94h-.11v-.94s.07-.02.11,0h0Z"/>
          <path class="cls-6" d="M17.42,8.2c-.13.07-.26.15-.3.33h.3v-.33ZM15.58,7.92v.61h-.09v-.61s.06-.01.09,0Z"/>
          <path class="cls-6" d="M15.5,8.2c.13.07.26.15.3.33h-.3v-.33ZM16.37,6.77l-.08-.06v-.08s.04.01.06.04c.02-.06.06-.1.11-.12.05.03.09.07.11.12.02-.03.04-.04.06-.04v.08l-.08.06h-.19Z"/>
          <path class="cls-6" d="M16.33,6.98l-.04-.08v-.11s.04.01.06.04c.02-.06.06-.1.11-.13.05.03.09.07.11.12.02-.03.04-.04.06-.04v.11l-.04.08h-.28Z"/>
          <path class="cls-6" d="M16.32,7.26l-.11-.14v-.14s.06.02.1.07c.03-.09.08-.12.16-.16.08.05.14.06.16.16.03-.05.05-.06.1-.06v.14l-.11.14h-.29Z"/>
          <path class="cls-6" d="M16.29,7.53s-.13-.12-.14-.18v-.15c.05,0,.1.02.14.08.03-.12.08-.16.18-.22.1.06.15.09.18.22.04-.06.09-.07.14-.08v.15c-.02.06-.14.18-.14.18h-.35Z"/>
          <path class="cls-6" d="M16.23,8.05s-.18-.2-.19-.28v-.23c.07,0,.13.06.18.15.04-.19.11-.32.24-.42.13.09.19.22.24.42.05-.09.12-.14.18-.15v.23c-.01.08-.19.28-.19.28h-.47Z"/>
          <path class="cls-6" d="M16.23,8.35s-.16-.16-.19-.23v-.23c.07,0,.13.06.18.15.04-.19.11-.3.24-.39.13.09.19.2.24.39.05-.09.12-.14.18-.15v.23c-.04.07-.19.23-.19.23h-.47Z"/>
          <path class="cls-6" d="M16.16,8.52c.05-.2.08-.35.3-.49.22.15.26.3.3.49h-.61Z"/>
          <path class="cls-6" d="M16.05,8.63v-.29c.1.04.19.1.22.16.04-.16.11-.23.2-.33.09.1.15.17.19.33.03-.06.12-.12.22-.16v.29h-.83Z"/>
        </g>
        <path class="cls-6" d="M8.78,9.91v.26h9.01v-.26h-9.01ZM8.62,10.18v.34h9.34v-.34h-9.34ZM17.95,10.52h-9.34s-.27,0-.27,0v.45h9.88v-.45h-.27ZM8.07,10.98v.53h10.43v-.53h-10.43ZM18.5,11.51h0s-10.43,0-10.43,0h0s-.27,0-.27,0v.53h10.98v-.53h-.27Z"/>
        <path class="cls-2" d="M9.76,9.92h.68v2.12h-.68v-2.12Z"/>
        <path class="cls-3" d="M9.91,9.92h.38v2.12h-.38v-2.12Z"/>
        <path class="cls-2" d="M12.95,9.92h.68v2.12h-.68v-2.12Z"/>
        <path class="cls-3" d="M13.1,9.92h.38v2.12h-.38v-2.12Z"/>
        <path class="cls-2" d="M16.13,9.92h.68v2.12h-.68v-2.12Z"/>
        <path class="cls-3" d="M16.28,9.92h.38v2.12h-.38v-2.12Z"/>
        <path class="cls-11" d="M9.19,9.7h8.21M9.9,11.77h.39M9.9,11.51h.39M9.9,11.24h.39M9.9,10.97h.39M9.9,10.71h.39M9.9,10.44h.39M9.9,10.18h.39M13.09,11.77h.37M13.09,11.51h.37M13.09,11.24h.37M13.09,10.97h.37M13.09,10.71h.37M13.09,10.44h.37M13.09,10.18h.37M16.27,11.77h.39M16.27,11.51h.39M16.27,11.24h.39M16.27,10.97h.39M16.27,10.71h.39M16.27,10.44h.39M16.27,10.18h.39"/>
      </g>
    </g>
  </g>
</svg>