<?xml version="1.0" encoding="UTF-8"?>
<svg id="Layer_2" data-name="Layer 2" xmlns="http://www.w3.org/2000/svg" viewBox="0 0 25.51 17.01">
  <defs>
    <style>
      .cls-1 {
        fill: #f6eb16;
      }

      .cls-2 {
        fill: #ed2228;
      }
    </style>
  </defs>
  <g id="Layer_1-2" data-name="Layer 1">
    <g>
      <path class="cls-2" d="M0,0h25.51v17.01H0"/>
      <g id="a">
        <path class="cls-1" d="M1.83,3.46L3.68,3.46L4.25,1.70L4.82,3.46L6.68,3.46L5.18,4.55L5.75,6.32L4.25,5.22L2.75,6.31L3.32,4.55Z"/>
      </g>
      <g id="a-2" data-name="a">
        <path class="cls-1" d="M7.87,1.14L8.44,1.38L8.84,0.92L8.79,1.53L9.36,1.77L8.76,1.91L8.70,2.53L8.38,2.00L7.78,2.13L8.19,1.67Z"/>
      </g>
      <g id="a-3" data-name="a">
        <path class="cls-1" d="M9.83,2.64L10.26,3.08L10.82,2.81L10.53,3.36L10.96,3.80L10.35,3.69L10.06,4.24L9.97,3.63L9.37,3.52L9.92,3.25Z"/>
      </g>
      <g id="a-4" data-name="a">
        <path class="cls-1" d="M9.38,5.72L10.00,5.70L10.17,5.10L10.38,5.68L11.00,5.66L10.51,6.04L10.72,6.62L10.21,6.28L9.73,6.66L9.90,6.06Z"/>
      </g>
      <g id="a-5" data-name="a">
        <path class="cls-1" d="M7.83,7.13L8.41,7.35L8.80,6.86L8.77,7.48L9.34,7.70L8.75,7.86L8.72,8.48L8.38,7.96L7.78,8.13L8.17,7.65Z"/>
      </g>
    </g>
  </g>
</svg>