<?xml version="1.0" encoding="UTF-8"?>
<svg id="Layer_2" data-name="Layer 2" xmlns="http://www.w3.org/2000/svg" viewBox="0 0 25.51 17.01">
  <defs>
    <style>
      .cls-1 {
        fill: #f6eb16;
      }

      .cls-2 {
        fill: #ed2228;
      }
    </style>
  </defs>
  <g id="Layer_1-2" data-name="Layer 1">
    <g>
      <path class="cls-2" d="M0,0h25.51v17.01H0"/>
      <path id="a" class="cls-1" d="M4.25,1.7l1.5,4.62L1.83,3.46h4.85l-3.93,2.85,1.5-4.62Z"/>
      <path id="a-2" data-name="a" class="cls-1" d="M8.84.92l-.14,1.61-.83-1.39,1.49.63-1.58.36,1.06-1.22Z"/>
      <path id="a-3" data-name="a" class="cls-1" d="M10.82,2.81l-.76,1.43-.23-1.6,1.13,1.16-1.59-.28,1.45-.71Z"/>
      <path id="a-4" data-name="a" class="cls-1" d="M11,5.66l-1.27,1,.44-1.56.55,1.52-1.34-.9,1.62-.06Z"/>
      <path id="a-5" data-name="a" class="cls-1" d="M8.8,6.86l-.08,1.62-.89-1.35,1.51.57-1.56.43,1.01-1.26Z"/>
    </g>
  </g>
</svg>