<?xml version="1.0" encoding="UTF-8"?>
<svg id="Layer_2" data-name="Layer 2" xmlns="http://www.w3.org/2000/svg" viewBox="0 0 25.51 17.01">
  <defs>
    <style>
      .cls-1 {
        fill: #fff;
      }

      .cls-2 {
        fill: #ed2224;
      }
    </style>
  </defs>
  <g id="Layer_1-2" data-name="Layer 1">
    <g>
      <path class="cls-1" d="M0,0h25.51v17.01H0V0Z"/>
      <path class="cls-2" d="M11.06,0h3.4v17.01h-3.4V0ZM0,6.8h25.51v3.4H0v-3.4Z"/>
      <g id="c">
        <g id="b">
          <path id="a" class="cls-2" d="M4.93,1.66c.4.05.8.05,1.2,0-.23,1.15-.23,2.33,0,3.48-.4-.05-.8-.05-1.2,0,.23-1.15.23-2.33,0-3.48h0Z"/>
          <path id="a-2" data-name="a" class="cls-2" d="M7.27,2.8c-.05.4-.05.8,0,1.2-1.15-.23-2.33-.23-3.48,0,.05-.4.05-.8,0-1.2,1.15.23,2.33.23,3.48,0h0Z"/>
        </g>
        <g id="b-2" data-name="b">
          <path id="a-3" data-name="a" class="cls-2" d="M19.39,1.66c.4.05.8.05,1.2,0-.23,1.15-.23,2.33,0,3.48-.4-.05-.8-.05-1.2,0,.23-1.15.23-2.33,0-3.48h0Z"/>
          <path id="a-4" data-name="a" class="cls-2" d="M21.72,2.8c-.05.4-.05.8,0,1.2-1.15-.23-2.33-.23-3.48,0,.05-.4.05-.8,0-1.2,1.15.23,2.33.23,3.48,0h0Z"/>
        </g>
      </g>
      <g id="c-2" data-name="c">
        <g id="b-3" data-name="b">
          <path id="a-5" data-name="a" class="cls-2" d="M4.93,11.87c.4.05.8.05,1.2,0-.23,1.15-.23,2.33,0,3.48-.4-.05-.8-.05-1.2,0,.23-1.15.23-2.33,0-3.48h0Z"/>
          <path id="a-6" data-name="a" class="cls-2" d="M7.27,13.01c-.05.4-.05.8,0,1.2-1.15-.23-2.33-.23-3.48,0,.05-.4.05-.8,0-1.2,1.15.23,2.33.23,3.48,0h0Z"/>
        </g>
        <g id="b-4" data-name="b">
          <path id="a-7" data-name="a" class="cls-2" d="M19.39,11.87c.4.05.8.05,1.2,0-.23,1.15-.23,2.33,0,3.48-.4-.05-.8-.05-1.2,0,.23-1.15.23-2.33,0-3.48h0Z"/>
          <path id="a-8" data-name="a" class="cls-2" d="M21.72,13.01c-.05.4-.05.8,0,1.2-1.15-.23-2.33-.23-3.48,0,.05-.4.05-.8,0-1.2,1.15.23,2.33.23,3.48,0h0Z"/>
        </g>
      </g>
    </g>
  </g>
</svg>