<?xml version="1.0" encoding="UTF-8"?>
<svg id="Layer_2" data-name="Layer 2" xmlns="http://www.w3.org/2000/svg" viewBox="0 0 25.51 17.01">
  <defs>
    <style>
      .cls-1 {
        fill: #fff;
      }

      .cls-2 {
        fill: #ed2228;
      }
    </style>
  </defs>
  <g id="Layer_1-2" data-name="Layer 1">
    <g>
      <path class="cls-2" d="M0,0h25.51v17.01H0V0Z"/>
      <g id="a">
        <path class="cls-1" d="M13.97,3.55c-.42.13-.65.58-.51.99.02.07.05.13.09.19.39.59.22,1.39-.38,1.77-.06.04-.13.08-.2.11-.56.24-.82.88-.58,1.44.06.15.16.28.28.39-.86-.61-1.07-1.79-.48-2.66-.01,0-.02-.02-.03-.03-.6.88-.39,2.09.47,2.72-1.31-.53-1.95-2.02-1.43-3.33.44-1.11,1.59-1.76,2.77-1.58"/>
        <path class="cls-2" d="M12.32,5.34 12.29,5.01 12.51,5.26 12.81,5.13 12.64,5.41 12.86,5.65 12.54,5.58 12.37,5.86 12.34,5.54 12.03,5.47Z"/>
      </g>
      <g id="b">
        <g id="a-2" data-name="a">
          <path class="cls-1" d="M17.84,8.13c-.26-.35-.75-.44-1.1-.18-.06.04-.11.09-.15.14-.45.55-1.25.63-1.8.19-.06-.05-.11-.1-.16-.16-.4-.46-1.09-.51-1.55-.11-.12.11-.22.24-.28.38.31-1,1.37-1.57,2.38-1.28,0-.01.01-.03.02-.04-1.03-.3-2.11.27-2.44,1.29.09-1.41,1.31-2.48,2.73-2.38,1.19.08,2.17.97,2.36,2.15"/>
          <path class="cls-2" d="M15.44,7.21 15.41,6.88 15.63,7.13 15.92,7.00 15.76,7.27 15.98,7.52 15.65,7.45 15.49,7.73 15.46,7.41 15.14,7.34Z"/>
        </g>
        <g id="a-3" data-name="a">
          <path class="cls-1" d="M8.86,11.8c.42.14.86-.09,1-.5.02-.07.04-.14.04-.21.04-.71.64-1.25,1.35-1.21.07,0,.15.01.22.03.59.14,1.18-.23,1.32-.82.04-.16.04-.32,0-.48.33,1-.19,2.08-1.17,2.44,0,.01,0,.03,0,.04,1.01-.36,1.54-1.46,1.21-2.48.75,1.2.39,2.78-.8,3.53-1.01.63-2.32.49-3.17-.35"/>
          <path class="cls-2" d="M11.02,11.07 10.99,10.74 11.21,10.99 11.50,10.86 11.34,11.13 11.56,11.38 11.24,11.31 11.07,11.59 11.04,11.27 10.73,11.20Z"/>
        </g>
      </g>
      <g id="b-2" data-name="b">
        <g id="a-4" data-name="a">
          <path class="cls-1" d="M14.68,13.23c.26-.35.18-.85-.17-1.11-.06-.04-.12-.08-.18-.1-.66-.25-.99-.99-.74-1.65.03-.07.06-.14.1-.2.31-.52.15-1.19-.37-1.5-.14-.08-.29-.13-.45-.15,1.05-.01,1.92.82,1.96,1.87.01,0,.03,0,.04,0-.03-1.07-.91-1.92-1.98-1.92,1.37-.35,2.76.48,3.11,1.86.29,1.16-.25,2.36-1.31,2.9"/>
          <path class="cls-2" d="M14.64,10.74 14.60,10.41 14.82,10.66 15.12,10.53 14.96,10.81 15.17,11.05 14.85,10.98 14.69,11.26 14.66,10.94 14.34,10.87Z"/>
        </g>
        <g id="a-5" data-name="a">
          <path class="cls-1" d="M8.42,5.82c0,.44.35.79.79.79.07,0,.14,0,.21-.03.68-.18,1.39.22,1.57.91.02.07.03.15.04.22.05.6.58,1.05,1.19,1,.16-.01.31-.06.45-.14-.84.63-2.03.47-2.68-.36-.01,0-.02.01-.04.02.66.84,1.86,1.02,2.73.39-.91,1.09-2.52,1.23-3.61.33-.92-.76-1.18-2.06-.65-3.12"/>
          <path class="cls-2" d="M9.60,7.74 9.57,7.41 9.79,7.66 10.08,7.53 9.92,7.81 10.13,8.05 9.81,7.98 9.65,8.26 9.62,7.94 9.30,7.87Z"/>
        </g>
      </g>
    </g>
  </g>
</svg>