<?xml version="1.0" encoding="UTF-8"?>
<svg id="Layer_2" data-name="Layer 2" xmlns="http://www.w3.org/2000/svg" viewBox="0 0 34.02 17.01">
  <defs>
    <style>
      .cls-1 {
        stroke: #feea2c;
        stroke-miterlimit: 2;
        stroke-width: 0px;
      }

      .cls-1, .cls-2 {
        fill: #feea2c;
      }

      .cls-3 {
        fill: #00abc2;
      }
    </style>
  </defs>
  <g id="Layer_1-2" data-name="Layer 1">
    <g>
      <path class="cls-3" d="M0,0h34.02v17.01H0V0Z"/>
      <g>
        <g>
          <circle class="cls-2" cx="18.38" cy="7.14" r="2.29"/>
          <g id="A">
            <g id="B">
              <path id="C" class="cls-2" d="M18.38,4.54c.14,0,.19-.09.19-.19,0-.14-.19-.78-.19-.78,0,0-.19.65-.19.78,0,.1.05.19.19.19Z"/>
              <path id="C-2" data-name="C" class="cls-2" d="M20.98,7.14c0,.14.09.19.19.19.14,0,.78-.19.78-.19,0,0-.65-.19-.78-.19-.1,0-.19.05-.19.19Z"/>
              <path id="C-3" data-name="C" class="cls-2" d="M18.38,9.74c-.14,0-.19.09-.19.19,0,.14.19.78.19.78,0,0,.19-.65.19-.78,0-.1-.05-.19-.19-.19Z"/>
              <path id="C-4" data-name="C" class="cls-2" d="M15.78,7.14c0-.14-.09-.19-.19-.19-.14,0-.78.19-.78.19,0,0,.65.19.78.19.1,0,.19-.05.19-.19Z"/>
            </g>
            <g id="B-2" data-name="B">
              <path id="C-5" data-name="C" class="cls-2" d="M19.37,4.74c.13.05.21,0,.25-.1.05-.13.13-.8.13-.8,0,0-.42.53-.47.65-.04.09-.03.19.1.25Z"/>
              <path id="C-6" data-name="C" class="cls-2" d="M20.78,8.14c-.05.13,0,.21.1.25.13.05.8.13.8.13,0,0-.53-.42-.65-.47-.09-.04-.19-.03-.25.1Z"/>
              <path id="C-7" data-name="C" class="cls-2" d="M17.38,9.55c-.13-.05-.21,0-.25.1-.05.13-.13.8-.13.8,0,0,.42-.53.47-.65.04-.09.03-.19-.1-.25Z"/>
              <path id="C-8" data-name="C" class="cls-2" d="M15.97,6.15c.05-.13,0-.21-.1-.25-.13-.05-.8-.13-.8-.13,0,0,.53.42.65.47.09.04.19.03.25-.1Z"/>
            </g>
            <g id="B-3" data-name="B">
              <path id="C-9" data-name="C" class="cls-2" d="M20.22,5.3c.1.1.19.07.27,0,.1-.1.42-.69.42-.69,0,0-.59.33-.69.42-.07.07-.1.17,0,.27Z"/>
              <path id="C-10" data-name="C" class="cls-2" d="M20.22,8.98c-.1.1-.07.19,0,.27.1.1.69.42.69.42,0,0-.33-.59-.42-.69-.07-.07-.17-.1-.27,0Z"/>
              <path id="C-11" data-name="C" class="cls-2" d="M16.54,8.98c-.1-.1-.19-.07-.27,0-.1.1-.42.69-.42.69,0,0,.59-.33.69-.42.07-.07.1-.17,0-.27Z"/>
              <path id="C-12" data-name="C" class="cls-2" d="M16.54,5.3c.1-.1.07-.19,0-.27-.1-.1-.69-.42-.69-.42,0,0,.33.59.42.69.07.07.17.1.27,0Z"/>
            </g>
            <g id="B-4" data-name="B">
              <path id="C-13" data-name="C" class="cls-2" d="M20.78,6.15c.05.13.15.14.25.1.13-.05.65-.47.65-.47,0,0-.67.08-.8.13-.09.04-.15.12-.1.25Z"/>
              <path id="C-14" data-name="C" class="cls-2" d="M19.37,9.55c-.13.05-.14.15-.1.25.05.13.47.65.47.65,0,0-.08-.67-.13-.8-.04-.09-.12-.15-.25-.1Z"/>
              <path id="C-15" data-name="C" class="cls-2" d="M15.97,8.14c-.05-.13-.15-.14-.25-.1-.13.05-.65.47-.65.47,0,0,.67-.08.8-.13.09-.04.15-.12.1-.25Z"/>
              <path id="C-16" data-name="C" class="cls-2" d="M17.38,4.74c.13-.05.14-.15.1-.25-.05-.13-.47-.65-.47-.65,0,0,.08.67.13.8.04.09.12.15.25.1Z"/>
            </g>
          </g>
          <g id="A-2" data-name="A">
            <g id="B-5" data-name="B">
              <path id="C-17" data-name="C" class="cls-2" d="M18.88,4.59c.13.02.2-.05.22-.15.03-.13-.03-.81-.03-.81,0,0-.31.6-.34.73-.02.1.01.2.15.22Z"/>
              <path id="C-18" data-name="C" class="cls-2" d="M20.93,7.65c-.02.13.05.2.15.22.13.03.81-.03.81-.03,0,0-.6-.31-.73-.34-.1-.02-.2.01-.22.15Z"/>
              <path id="C-19" data-name="C" class="cls-2" d="M17.87,9.69c-.13-.02-.2.05-.22.15-.03.13.03.81.03.81,0,0,.31-.6.34-.73.02-.1-.01-.2-.15-.22Z"/>
              <path id="C-20" data-name="C" class="cls-2" d="M15.83,6.64c.02-.13-.05-.2-.15-.22-.13-.03-.81.03-.81.03,0,0,.6.31.73.34.1.02.2-.01.22-.15Z"/>
            </g>
            <g id="B-6" data-name="B">
              <path id="C-21" data-name="C" class="cls-2" d="M19.82,4.98c.11.07.2.03.26-.05.08-.11.28-.76.28-.76,0,0-.52.43-.59.55-.06.08-.06.19.05.26Z"/>
              <path id="C-22" data-name="C" class="cls-2" d="M20.54,8.59c-.07.11-.03.2.05.26.11.08.76.28.76.28,0,0-.43-.52-.55-.59-.08-.06-.19-.06-.26.05Z"/>
              <path id="C-23" data-name="C" class="cls-2" d="M16.93,9.31c-.11-.07-.2-.03-.26.05-.08.11-.28.76-.28.76,0,0,.52-.43.59-.55.06-.08.06-.19-.05-.26Z"/>
              <path id="C-24" data-name="C" class="cls-2" d="M16.21,5.7c.07-.11.03-.2-.05-.26-.11-.08-.76-.28-.76-.28,0,0,.43.52.55.59.08.06.19.06.26-.05Z"/>
            </g>
            <g id="B-7" data-name="B">
              <path id="C-25" data-name="C" class="cls-2" d="M20.54,5.7c.08.11.18.11.26.05.11-.08.55-.59.55-.59,0,0-.64.2-.76.28-.08.06-.13.15-.05.26Z"/>
              <path id="C-26" data-name="C" class="cls-2" d="M19.82,9.31c-.11.08-.11.18-.05.26.08.11.59.55.59.55,0,0-.2-.64-.28-.76-.06-.08-.15-.13-.26-.05Z"/>
              <path id="C-27" data-name="C" class="cls-2" d="M16.21,8.59c-.08-.11-.18-.11-.26-.05-.11.08-.55.59-.55.59,0,0,.64-.2.76-.28.08-.06.13-.15.05-.26Z"/>
              <path id="C-28" data-name="C" class="cls-2" d="M16.93,4.98c.11-.08.11-.18.05-.26-.08-.11-.59-.55-.59-.55,0,0,.2.64.28.76.06.08.15.13.26.05Z"/>
            </g>
            <g id="B-8" data-name="B">
              <path id="C-29" data-name="C" class="cls-2" d="M20.93,6.64c.03.13.12.17.22.15.13-.03.73-.34.73-.34,0,0-.67-.06-.81-.03-.1.02-.18.09-.15.22Z"/>
              <path id="C-30" data-name="C" class="cls-2" d="M18.88,9.69c-.13.03-.17.12-.15.22.03.13.34.73.34.73,0,0,.06-.67.03-.81-.02-.1-.09-.18-.22-.15Z"/>
              <path id="C-31" data-name="C" class="cls-2" d="M15.83,7.65c-.03-.13-.12-.17-.22-.15-.13.03-.73.34-.73.34,0,0,.67.06.81.03.1-.02.18-.09.15-.22Z"/>
              <path id="C-32" data-name="C" class="cls-2" d="M17.87,4.59c.13-.03.17-.12.15-.22-.03-.13-.34-.73-.34-.73,0,0-.06.67-.03.81.02.1.09.18.22.15Z"/>
            </g>
          </g>
        </g>
        <g>
          <path class="cls-2" d="M17.97,12.1c-.06,0-.12.01-.18.03-.08.01-.16.04-.24.05h-.03s-.05.01-.05.01c0,.01,0,.03,0,.04s0,.03,0,.04c0,.01-.01.03-.02.04-.01.01-.02.02-.04.03-.01,0-.03,0-.04.01-.02,0-.03,0-.05,0-.02,0-.03-.01-.04-.03-.02,0-.03,0-.05,0-.02,0-.03,0-.04,0-.02,0-.03,0-.05-.02-.02,0-.03-.01-.04-.02-.06.03-.12.07-.16.13-.02.03-.02.06-.03.09,0,.04,0,.08.02.12,0,.01.01-.04.03-.05.03-.03.07-.05.11-.06.03-.02.03,0,.02.03,0,.01-.02.07,0,.04.12-.05.24-.06.37-.07.18-.02.36-.02.54-.02h.51c.08.01.16.03.24.02.02,0,.05,0,.06-.02-.04-.02-.08-.02-.12-.03h-.32c-.09,0-.18-.01-.27-.04-.02,0-.04-.03-.07,0-.03.01-.07.02-.1.02-.06,0-.12,0-.17-.03.04-.05.09-.1.13-.15-.04,0-.07-.01-.1-.02.06-.04.12-.09.18-.14h0Z"/>
          <path class="cls-2" d="M20.62,12.69c-.12.07-.22-.06-.32-.1-.07.04-.08.17-.15.24-.08.09-.18-.03-.18-.12-.1.08-.15.27-.31.25-.08-.06-.13-.19-.19-.04-.05.07-.17.17-.24.07-.02-.1-.07-.21-.12-.06-.04.11-.15.19-.26.14-.06-.05.05-.23-.03-.22-.12.08-.18.27-.34.25-.06-.07.04-.19-.03-.27-.08.1-.17.26-.31.27-.07-.05,0-.21-.04-.24-.14.09-.3.24-.48.19.07-.27.37-.36.61-.39.43-.05.88.04,1.29-.11.07-.04.23-.1.17-.19-.05-.07.13-.05.15-.13-.01-.11.08-.09.18-.1.41-.02.82.07,1.24.08.03.2-.19.34-.37.28-.09.01-.21-.2-.19-.04-.02.08,0,.19-.08.24M17.09,12.28c.1.09.16-.02.25-.05.3-.1.56-.28.82-.47.16-.13.29-.3.5-.34.41-.12.85-.11,1.26-.22.31-.43.85-.58,1.29-.83.1-.03.14-.11.17-.2.17-.27.4-.51.68-.67.13-.07.29-.11.43-.08-.01.18-.11.33-.23.45.1,0,.18-.06.29-.06.03.18-.16.27-.26.39.06.01.28.03.16.09-.15.11-.33.18-.47.3.13.02.15.05.01.1-.07.05-.21.07-.22.16.1.06-.05.12-.1.14-.11.02-.22.07-.08.15-.05.08-.17.1-.26.09.03.09.07.19-.05.23-.27.2-.58.35-.91.38.42.03.85-.05,1.2-.27.05-.06.29-.12.16-.16-.07-.03-.2-.06-.21-.11.19-.12.44-.08.64-.15,0-.07-.16-.05-.22-.06-.15-.01-.14-.05,0-.06.18-.05.38-.06.53-.17-.12-.06-.27,0-.4-.05.22-.1.48-.11.68-.25.09-.1-.11-.07-.17-.07-.12.02-.18-.04-.04-.09.24-.17.53-.29.7-.54.04-.06.09-.23-.03-.17-.16.05-.31.24-.5.18.37-.29.72-.61.97-1.01.01-.11-.17-.13-.21-.04-.24.23-.45.5-.76.64.29-.28.53-.61.74-.96.05-.1.17-.23.1-.34-.11-.09-.24,0-.29.1-.18.24-.32.52-.56.72.21-.4.42-.82.43-1.28,0-.09-.02-.23-.15-.22-.1.02-.08.17-.12.25-.09.31-.14.65-.32.92.04-.25.12-.52.06-.78-.03-.11-.21-.07-.19.05-.22,1.12-.97,2.1-1.96,2.67-.45.25-.95.42-1.46.49-.14.03-.29.01-.42.06-.32.24-.51.65-.92.78-.18.09-.42.11-.55.28-.01.02-.01.05-.01.07"/>
          <path class="cls-2" d="M18.3,11.14c-.06.11-.09.23-.17.33-.23-.21-.56-.2-.86-.22-.24-.01-.5-.04-.69-.21-.2-.16-.36-.37-.58-.5-.2-.05-.4-.12-.56-.26-.34-.28-.54-.7-.88-.99-.06-.06-.14-.11-.21-.17-.07.02-.04.16-.12.09-.05-.03-.16-.04-.17,0,.1.14.21.29.22.46-.07,0-.19-.01-.23.01.09.14.21.26.35.36-.07.01-.19,0-.22.03.13.11.28.22.45.25.04.05-.05.14.02.18.04.02.19.05.09.1-.07.05-.04.15.04.15.05.03.18.03.19.08-.05.05-.2.11-.07.15.12.07.26.11.39.11-.07.06-.15.09-.22.14.32.18.67.31,1.01.42.14.05.28.09.42.12-.41-.02-.82-.15-1.19-.31-.2-.09-.39-.17-.59-.24.09-.05.19-.06.28-.1-.19-.04-.4-.05-.56-.15.03-.05.12-.05.18-.07.1-.02.16-.05.02-.06-.14-.04-.31-.02-.43-.11,0-.05.14-.03.19-.06.07-.01.14-.02.2-.07-.22-.09-.51-.03-.68-.22-.04-.07.12-.01.17-.03.12,0,.25.04.36-.01-.32-.14-.67-.27-.91-.54-.03-.04-.11-.16-.04-.17.19.03.33.23.53.2.03-.04-.12-.1-.16-.15-.3-.26-.59-.53-.8-.87-.01-.11.16-.13.21-.04.23.22.43.48.72.63.1.05-.06-.06-.08-.1-.26-.3-.51-.63-.7-.99-.03-.06-.09-.18.01-.22.1-.05.2.02.25.1.19.24.33.53.58.74-.2-.4-.42-.82-.43-1.27,0-.09.01-.22.13-.22.1-.02.08.11.12.18.1.34.14.7.34,1-.04-.25-.11-.51-.07-.76,0-.08.1-.11.16-.06.05.12.06.27.1.4.26.88.83,1.65,1.58,2.16.62.42,1.35.68,2.1.72.07,0,.14,0,.2.01"/>
          <circle class="cls-2" cx="17.35" cy="12.26" r=".04"/>
          <circle class="cls-1" cx="17.34" cy="12.25" r=".02"/>
          <g id="D">
            <g id="E">
              <path class="cls-2" d="M2.04,1.24s-.16-.14-.22-.07c-.09.11.27.66.27.86,0,.32-.21.41-.48.45-.18.03-.46-.01-.46-.01.05-.07.09-.09.18-.1-.1-.05-.2-.17-.2-.34,0-.27.11-.39.11-.7,0-.17-.14-.39-.14-.39.25.02.37.26.3.44.04,0,.08,0,.11-.03.02.05-.01.11-.05.16.03.02.05,0,.1,0,0,.05-.04.11-.11.16.22-.06.36.1.36.26,0,.12-.09.21-.17.21-.03,0-.07-.01-.09-.03-.02.03,0,.08,0,.11-.06-.02-.1-.05-.07-.13-.05,0-.09-.02-.11-.05.03-.03.07-.05.11-.05-.03-.07,0-.11.06-.14,0,0-.04.14.06.14.04,0,.08-.01.08-.07,0-.05-.05-.13-.15-.12s-.19.07-.19.24c0,.16.13.23.29.24.15,0,.26-.08.26-.23,0-.21-.3-.68-.3-.86,0-.14.12-.21.25-.21.16,0,.29.16.29.16l-.09.12h0Z"/>
              <path id="F" class="cls-2" d="M2.08,4.97c0,.34-.31.52-.55.52-.33,0-.5-.2-.5-.45,0-.15.03-.24.09-.38l.75-1.56c.03-.05.03-.12.03-.21,0-.14-.14-.25-.28-.26-.13,0-.27.12-.27.26,0,.17.09.25.18.25.11,0,.16-.05.16-.13,0-.06-.03-.08-.06-.08-.1,0-.07.13-.07.13-.05-.01-.09-.06-.06-.12-.04,0-.07-.03-.09-.06.03-.03.06-.04.09-.05-.02-.07,0-.11.07-.13-.01.03-.01.06,0,.08.1-.03.26.02.26.19s-.12.32-.35.29c.05.03.08.08.09.14-.04-.02-.09-.02-.09-.02.03.05.06.09.06.18-.04-.02-.08-.06-.14-.03.09.17-.02.4-.29.45.1-.11.15-.24.15-.36,0-.4-.11-.47-.11-.74,0-.12.06-.24.18-.33h0c-.08-.02-.13-.05-.16-.11.18-.05.44-.05.58,0,.16.02.27.14.31.2s.1.29,0,.49l-.76,1.62c-.03.07-.05.15-.05.23,0,.2.19.28.29.28.13,0,.26-.1.26-.22,0-.08-.04-.12-.1-.12-.14,0-.14.12-.11.2-.09-.04-.14-.11-.13-.19-.05,0-.1-.03-.14-.08.04-.04.08-.08.14-.08-.03-.12.05-.17.13-.19-.02.09-.04.19.11.19.11,0,.19.02.24.09v-.46c.02-.14-.17-.13-.29-.09.05-.16.14-.24.36-.22-.05-.02-.11-.07-.11-.17,0-.13.1-.27.17-.31l.03,1.34h0Z"/>
              <path id="F-2" data-name="F" class="cls-2" d="M2.08,6c0-.34-.31-.52-.55-.52-.33,0-.5.2-.5.45,0,.15.03.24.09.38l.75,1.56c.03.05.03.12.03.21,0,.14-.14.25-.28.26-.13,0-.27-.12-.27-.26,0-.17.09-.25.18-.25.11,0,.16.05.16.13,0,.06-.03.08-.06.08-.1,0-.07-.13-.07-.13-.05.01-.09.06-.06.12-.04,0-.07.03-.09.06.03.03.06.04.09.05-.02.07,0,.11.07.13-.01-.03-.01-.06,0-.08.1.03.26-.02.26-.19s-.12-.32-.35-.29c.05-.03.08-.08.09-.14-.04.02-.09.02-.09.02.03-.05.06-.09.06-.18-.04.02-.08.06-.14.03.09-.17-.02-.4-.29-.45.1.11.15.24.15.36,0,.4-.11.47-.11.74,0,.12.06.24.18.33h0c-.08.02-.13.05-.16.11.18.05.44.05.58,0,.16-.02.27-.14.31-.2s.1-.29,0-.49l-.76-1.62c-.03-.07-.05-.15-.05-.23,0-.2.19-.28.29-.28.13,0,.26.1.26.22,0,.08-.04.12-.1.12-.14,0-.14-.12-.11-.2-.09.04-.14.11-.13.19-.05,0-.1.03-.14.08.04.04.08.08.14.08-.03.12.05.17.13.19-.02-.09-.04-.19.11-.19.11,0,.19-.02.24-.09v.46c.02.14-.17.13-.29.09.05.16.14.24.36.22-.05.02-.11.07-.11.17,0,.13.1.27.17.31l.03-1.34h0Z"/>
            </g>
            <g id="E-2" data-name="E">
              <path class="cls-2" d="M2.04,1.24s.16-.14.22-.07c.09.11-.27.66-.27.86,0,.32.21.41.48.45.18.03.46-.01.46-.01-.05-.07-.09-.09-.18-.1.1-.05.2-.17.2-.34,0-.27-.11-.39-.11-.7,0-.17.14-.39.14-.39-.25.02-.37.26-.3.44-.04,0-.08,0-.11-.03-.02.05.01.11.05.16-.03.02-.05,0-.1,0,0,.05.04.11.11.16-.22-.06-.36.1-.36.26,0,.12.09.21.17.21.03,0,.07-.01.09-.03.02.03,0,.08,0,.11.06-.02.1-.05.07-.13.05,0,.09-.02.11-.05-.03-.03-.07-.05-.11-.05.03-.07,0-.11-.06-.14,0,0,.04.14-.06.14-.04,0-.08-.01-.08-.07,0-.05.05-.13.15-.12s.19.07.19.24c0,.16-.13.23-.29.24-.15,0-.26-.08-.26-.23,0-.21.3-.68.3-.86,0-.14-.12-.21-.25-.21-.16,0-.29.16-.29.16l.09.12h0Z"/>
              <path id="F-3" data-name="F" class="cls-2" d="M2.01,4.97c0,.34.31.52.55.52.33,0,.5-.2.5-.45,0-.15-.03-.24-.09-.38l-.75-1.56c-.03-.05-.03-.12-.03-.21,0-.14.14-.25.28-.26.13,0,.27.12.27.26,0,.17-.09.25-.18.25-.11,0-.16-.05-.16-.13,0-.06.03-.08.06-.08.1,0,.07.13.07.13.05-.01.09-.06.06-.12.04,0,.07-.03.09-.06-.03-.03-.06-.04-.09-.05.02-.07,0-.11-.07-.13.01.03.01.06,0,.08-.1-.03-.26.02-.26.19s.12.32.35.29c-.05.03-.08.08-.09.14.04-.02.09-.02.09-.02-.03.05-.06.09-.06.18.04-.02.08-.06.14-.03-.09.17.02.4.29.45-.1-.11-.15-.24-.15-.36,0-.4.11-.47.11-.74,0-.12-.06-.24-.18-.33h0c.08-.02.13-.05.16-.11-.18-.05-.44-.05-.58,0-.16.02-.27.14-.31.2s-.1.29,0,.49l.76,1.62c.03.07.05.15.05.23,0,.2-.19.28-.29.28-.13,0-.26-.1-.26-.22,0-.08.04-.12.1-.12.14,0,.14.12.11.2.09-.04.14-.11.13-.19.05,0,.1-.03.14-.08-.04-.04-.08-.08-.14-.08.03-.12-.05-.17-.13-.19.02.09.04.19-.11.19-.11,0-.19.02-.24.09v-.46c-.02-.14.17-.13.29-.09-.05-.16-.14-.24-.36-.22.05-.02.11-.07.11-.17,0-.13-.1-.27-.17-.31l-.03,1.34h0Z"/>
              <path id="F-4" data-name="F" class="cls-2" d="M2.01,6c0-.34.31-.52.55-.52.33,0,.5.2.5.45,0,.15-.03.24-.09.38l-.75,1.56c-.03.05-.03.12-.03.21,0,.14.14.25.28.26.13,0,.27-.12.27-.26,0-.17-.09-.25-.18-.25-.11,0-.16.05-.16.13,0,.06.03.08.06.08.1,0,.07-.13.07-.13.05.01.09.06.06.12.04,0,.07.03.09.06-.03.03-.06.04-.09.05.02.07,0,.11-.07.13.01-.03.01-.06,0-.08-.1.03-.26-.02-.26-.19s.12-.32.35-.29c-.05-.03-.08-.08-.09-.14.04.02.09.02.09.02-.03-.05-.06-.09-.06-.18.04.02.08.06.14.03-.09-.17.02-.4.29-.45-.1.11-.15.24-.15.36,0,.4.11.47.11.74,0,.12-.06.24-.18.33h0c.08.02.13.05.16.11-.18.05-.44.05-.58,0-.16-.02-.27-.14-.31-.2s-.1-.29,0-.49l.76-1.62c.03-.07.05-.15.05-.23,0-.2-.19-.28-.29-.28-.13,0-.26.1-.26.22,0,.08.04.12.1.12.14,0,.14-.12.11-.2.09.04.14.11.13.19.05,0,.1.03.14.08-.04.04-.08.08-.14.08.03.12-.05.17-.13.19.02-.09.04-.19-.11-.19-.11,0-.19-.02-.24-.09v.46c-.02.14.17.13.29.09-.05.16-.14.24-.36.22.05.02.11.07.11.17,0,.13-.1.27-.17.31l-.03-1.34h0Z"/>
            </g>
          </g>
          <g id="D-2" data-name="D">
            <g id="E-3" data-name="E">
              <path class="cls-2" d="M2.04,15.77s-.16.14-.22.07c-.09-.11.27-.66.27-.86,0-.32-.21-.41-.48-.45-.18-.03-.46.01-.46.01.05.07.09.09.18.1-.1.05-.2.17-.2.34,0,.27.11.39.11.7,0,.17-.14.39-.14.39.25-.02.37-.26.3-.44.04,0,.08,0,.11.03.02-.05-.01-.11-.05-.16.03-.02.05,0,.1,0,0-.05-.04-.11-.11-.16.22.06.36-.1.36-.26,0-.12-.09-.21-.17-.21-.03,0-.07.01-.09.03-.02-.03,0-.08,0-.11-.06.02-.1.05-.07.13-.05,0-.09.02-.11.05.03.03.07.05.11.05-.03.07,0,.11.06.14,0,0-.04-.14.06-.14.04,0,.08.01.08.07,0,.05-.05.13-.15.12s-.19-.07-.19-.24c0-.16.13-.23.29-.24.15,0,.26.08.26.23,0,.21-.3.68-.3.86,0,.14.12.21.25.21.16,0,.29-.16.29-.16l-.09-.12h0Z"/>
              <path id="F-5" data-name="F" class="cls-2" d="M2.08,12.04c0-.34-.31-.52-.55-.52-.33,0-.5.2-.5.45,0,.15.03.24.09.38l.75,1.56c.03.05.03.12.03.21,0,.14-.14.25-.28.26-.13,0-.27-.12-.27-.26,0-.17.09-.25.18-.25.11,0,.16.05.16.13,0,.06-.03.08-.06.08-.1,0-.07-.13-.07-.13-.05.01-.09.06-.06.12-.04,0-.07.03-.09.06.03.03.06.04.09.05-.02.07,0,.11.07.13-.01-.03-.01-.06,0-.08.1.03.26-.02.26-.19s-.12-.32-.35-.29c.05-.03.08-.08.09-.14-.04.02-.09.02-.09.02.03-.05.06-.09.06-.18-.04.02-.08.06-.14.03.09-.17-.02-.4-.29-.45.1.11.15.24.15.36,0,.4-.11.47-.11.74,0,.12.06.24.18.33h0c-.08.02-.13.05-.16.11.18.05.44.05.58,0,.16-.02.27-.14.31-.2s.1-.29,0-.49l-.76-1.62c-.03-.07-.05-.15-.05-.23,0-.2.19-.28.29-.28.13,0,.26.1.26.22,0,.08-.04.12-.1.12-.14,0-.14-.12-.11-.2-.09.04-.14.11-.13.19-.05,0-.1.03-.14.08.04.04.08.08.14.08-.03.12.05.17.13.19-.02-.09-.04-.19.11-.19.11,0,.19-.02.24-.09v.46c.02.14-.17.13-.29.09.05.16.14.24.36.22-.05.02-.11.07-.11.17,0,.13.1.27.17.31l.03-1.34h0Z"/>
              <path id="F-6" data-name="F" class="cls-2" d="M2.08,11.01c0,.34-.31.52-.55.52-.33,0-.5-.2-.5-.45,0-.15.03-.24.09-.38l.75-1.56c.03-.05.03-.12.03-.21,0-.14-.14-.25-.28-.26-.13,0-.27.12-.27.26,0,.17.09.25.18.25.11,0,.16-.05.16-.13,0-.06-.03-.08-.06-.08-.1,0-.07.13-.07.13-.05-.01-.09-.06-.06-.12-.04,0-.07-.03-.09-.06.03-.03.06-.04.09-.05-.02-.07,0-.11.07-.13-.01.03-.01.06,0,.08.1-.03.26.02.26.19s-.12.32-.35.29c.05.03.08.08.09.14-.04-.02-.09-.02-.09-.02.03.05.06.09.06.18-.04-.02-.08-.06-.14-.03.09.17-.02.4-.29.45.1-.11.15-.24.15-.36,0-.4-.11-.47-.11-.74,0-.12.06-.24.18-.33h0c-.08-.02-.13-.05-.16-.11.18-.05.44-.05.58,0,.16.02.27.14.31.2s.1.29,0,.49l-.76,1.62c-.03.07-.05.15-.05.23,0,.2.19.28.29.28.13,0,.26-.1.26-.22,0-.08-.04-.12-.1-.12-.14,0-.14.12-.11.2-.09-.04-.14-.11-.13-.19-.05,0-.1-.03-.14-.08.04-.04.08-.08.14-.08-.03-.12.05-.17.13-.19-.02.09-.04.19.11.19.11,0,.19.02.24.09v-.46c.02-.14-.17-.13-.29-.09.05-.16.14-.24.36-.22-.05-.02-.11-.07-.11-.17,0-.13.1-.27.17-.31l.03,1.34h0Z"/>
            </g>
            <g id="E-4" data-name="E">
              <path class="cls-2" d="M2.04,15.77s.16.14.22.07c.09-.11-.27-.66-.27-.86,0-.32.21-.41.48-.45.18-.03.46.01.46.01-.05.07-.09.09-.18.1.1.05.2.17.2.34,0,.27-.11.39-.11.7,0,.17.14.39.14.39-.25-.02-.37-.26-.3-.44-.04,0-.08,0-.11.03-.02-.05.01-.11.05-.16-.03-.02-.05,0-.1,0,0-.05.04-.11.11-.16-.22.06-.36-.1-.36-.26,0-.12.09-.21.17-.21.03,0,.07.01.09.03.02-.03,0-.08,0-.11.06.02.1.05.07.13.05,0,.09.02.11.05-.03.03-.07.05-.11.05.03.07,0,.11-.06.14,0,0,.04-.14-.06-.14-.04,0-.08.01-.08.07,0,.05.05.13.15.12s.19-.07.19-.24c0-.16-.13-.23-.29-.24-.15,0-.26.08-.26.23,0,.21.3.68.3.86,0,.14-.12.21-.25.21-.16,0-.29-.16-.29-.16l.09-.12h0Z"/>
              <path id="F-7" data-name="F" class="cls-2" d="M2.01,12.04c0-.34.31-.52.55-.52.33,0,.5.2.5.45,0,.15-.03.24-.09.38l-.75,1.56c-.03.05-.03.12-.03.21,0,.14.14.25.28.26.13,0,.27-.12.27-.26,0-.17-.09-.25-.18-.25-.11,0-.16.05-.16.13,0,.06.03.08.06.08.1,0,.07-.13.07-.13.05.01.09.06.06.12.04,0,.07.03.09.06-.03.03-.06.04-.09.05.02.07,0,.11-.07.13.01-.03.01-.06,0-.08-.1.03-.26-.02-.26-.19s.12-.32.35-.29c-.05-.03-.08-.08-.09-.14.04.02.09.02.09.02-.03-.05-.06-.09-.06-.18.04.02.08.06.14.03-.09-.17.02-.4.29-.45-.1.11-.15.24-.15.36,0,.4.11.47.11.74,0,.12-.06.24-.18.33h0c.08.02.13.05.16.11-.18.05-.44.05-.58,0-.16-.02-.27-.14-.31-.2s-.1-.29,0-.49l.76-1.62c.03-.07.05-.15.05-.23,0-.2-.19-.28-.29-.28-.13,0-.26.1-.26.22,0,.08.04.12.1.12.14,0,.14-.12.11-.2.09.04.14.11.13.19.05,0,.1.03.14.08-.04.04-.08.08-.14.08.03.12-.05.17-.13.19.02-.09.04-.19-.11-.19-.11,0-.19-.02-.24-.09v.46c-.02.14.17.13.29.09-.05.16-.14.24-.36.22.05.02.11.07.11.17,0,.13-.1.27-.17.31l-.03-1.34h0Z"/>
              <path id="F-8" data-name="F" class="cls-2" d="M2.01,11.01c0,.34.31.52.55.52.33,0,.5-.2.5-.45,0-.15-.03-.24-.09-.38l-.75-1.56c-.03-.05-.03-.12-.03-.21,0-.14.14-.25.28-.26.13,0,.27.12.27.26,0,.17-.09.25-.18.25-.11,0-.16-.05-.16-.13,0-.06.03-.08.06-.08.1,0,.07.13.07.13.05-.01.09-.06.06-.12.04,0,.07-.03.09-.06-.03-.03-.06-.04-.09-.05.02-.07,0-.11-.07-.13.01.03.01.06,0,.08-.1-.03-.26.02-.26.19s.12.32.35.29c-.05.03-.08.08-.09.14.04-.02.09-.02.09-.02-.03.05-.06.09-.06.18.04-.02.08-.06.14-.03-.09.17.02.4.29.45-.1-.11-.15-.24-.15-.36,0-.4.11-.47.11-.74,0-.12-.06-.24-.18-.33h0c.08-.02.13-.05.16-.11-.18-.05-.44-.05-.58,0-.16.02-.27.14-.31.2s-.1.29,0,.49l.76,1.62c.03.07.05.15.05.23,0,.2-.19.28-.29.28-.13,0-.26-.1-.26-.22,0-.08.04-.12.1-.12.14,0,.14.12.11.2.09-.04.14-.11.13-.19.05,0,.1-.03.14-.08-.04-.04-.08-.08-.14-.08.03-.12-.05-.17-.13-.19.02.09.04.19-.11.19-.11,0-.19.02-.24.09v-.46c-.02-.14.17-.13.29-.09-.05-.16-.14-.24-.36-.22.05-.02.11-.07.11-.17,0-.13-.1-.27-.17-.31l-.03,1.34h0Z"/>
            </g>
          </g>
        </g>
      </g>
    </g>
  </g>
</svg>