<?xml version="1.0" encoding="UTF-8"?>
<svg id="Layer_2" data-name="Layer 2" xmlns="http://www.w3.org/2000/svg" viewBox="0 0 25.51 17.01">
  <defs>
    <style>
      .cls-1 {
        fill: #fcbd17;
      }

      .cls-2 {
        fill: #fff;
      }

      .cls-3 {
        fill: #ec2527;
      }

      .cls-4 {
        fill: #278e44;
      }
    </style>
  </defs>
  <g id="Layer_1-2" data-name="Layer 1">
    <g>
      <path class="cls-2" d="M0,0h25.51v17.01H0V0Z"/>
      <path class="cls-3" d="M0,0h25.51v5.67H0V0Z"/>
      <path class="cls-4" d="M0,11.34h25.51v5.67H0v-5.67Z"/>
      <path class="cls-1" d="M12.76,4.25l.32,2.16.94-1.97-.33,2.16,1.48-1.61-.95,1.97,1.89-1.1-1.49,1.6,2.13-.49-1.9,1.09,2.18.16-2.13.48,2.04.79-2.18-.17,1.71,1.36-2.03-.8,1.24,1.8-1.7-1.37.65,2.09-1.23-1.81v2.19s-.63-2.09-.63-2.09l-.64,2.09v-2.19s-1.22,1.81-1.22,1.81l.65-2.09-1.7,1.37,1.24-1.8-2.03.8,1.71-1.36-2.18.17,2.04-.79-2.13-.48,2.18-.16-1.9-1.09,2.13.49-1.49-1.6,1.89,1.1-.95-1.97,1.48,1.61-.33-2.16.94,1.97.32-2.16Z"/>
    </g>
  </g>
</svg>