<?xml version="1.0" encoding="UTF-8"?>
<svg id="Layer_2" data-name="Layer 2" xmlns="http://www.w3.org/2000/svg" xmlns:xlink="http://www.w3.org/1999/xlink" viewBox="0 0 25.51 17.01">
  <defs>
    <style>
      .cls-1 {
        clip-path: url(#clippath-6);
      }

      .cls-2 {
        clip-path: url(#clippath-7);
      }

      .cls-3 {
        clip-path: url(#clippath-4);
      }

      .cls-4 {
        fill: #fede20;
      }

      .cls-5 {
        clip-path: url(#clippath-9);
      }

      .cls-6 {
        clip-path: url(#clippath-10);
      }

      .cls-7 {
        fill: #fff;
      }

      .cls-8 {
        fill: #107663;
      }

      .cls-9 {
        clip-path: url(#clippath-11);
      }

      .cls-10 {
        fill: none;
      }

      .cls-11 {
        clip-path: url(#clippath-1);
      }

      .cls-12 {
        clip-path: url(#clippath-5);
      }

      .cls-13 {
        clip-path: url(#clippath-8);
      }

      .cls-14 {
        clip-path: url(#clippath-3);
      }

      .cls-15 {
        clip-path: url(#clippath-12);
      }

      .cls-16 {
        clip-path: url(#clippath-2);
      }

      .cls-17 {
        clip-path: url(#clippath);
      }
    </style>
    <clipPath id="clippath">
      <rect class="cls-10" x="10.77" y="8.5" width="3.97" height="3.54"/>
    </clipPath>
    <clipPath id="clippath-1">
      <circle class="cls-10" cx="12.76" cy="8.17" r="5.1"/>
    </clipPath>
    <clipPath id="clippath-2">
      <circle class="cls-10" cx="11.36" cy="7.18" r="2.87"/>
    </clipPath>
    <clipPath id="clippath-3">
      <circle class="cls-10" cx="10.99" cy="7.46" r="2.87"/>
    </clipPath>
    <clipPath id="clippath-4">
      <circle class="cls-10" cx="10.88" cy="7.62" r="2.87"/>
    </clipPath>
    <clipPath id="clippath-5">
      <circle class="cls-10" cx="10.68" cy="7.94" r="2.87"/>
    </clipPath>
    <clipPath id="clippath-6">
      <circle class="cls-10" cx="10.87" cy="7.7" r="2.87"/>
    </clipPath>
    <clipPath id="clippath-7">
      <circle class="cls-10" cx="10.68" cy="7.94" r="2.87"/>
    </clipPath>
    <clipPath id="clippath-8">
      <circle class="cls-10" cx="11.14" cy="7.65" r="2.87"/>
    </clipPath>
    <clipPath id="clippath-9">
      <circle class="cls-10" cx="14.83" cy="7.94" r="2.87"/>
    </clipPath>
    <clipPath id="clippath-10">
      <circle class="cls-10" cx="14.64" cy="7.7" r="2.87"/>
    </clipPath>
    <clipPath id="clippath-11">
      <circle class="cls-10" cx="14.83" cy="7.94" r="2.87"/>
    </clipPath>
    <clipPath id="clippath-12">
      <circle class="cls-10" cx="14.37" cy="7.65" r="2.87"/>
    </clipPath>
  </defs>
  <g id="Layer_1-2" data-name="Layer 1">
    <g>
      <path class="cls-8" d="M0,0h25.51v17.01H0V0Z"/>
      <g class="cls-17">
        <g>
          <circle class="cls-7" cx="10.9" cy="8.44" r="2.87"/>
          <circle class="cls-7" cx="14.61" cy="8.44" r="2.87"/>
        </g>
      </g>
      <circle class="cls-8" cx="14.74" cy="8.16" r="2.87"/>
      <circle class="cls-8" cx="10.77" cy="8.16" r="2.87"/>
      <g class="cls-11">
        <path class="cls-7" d="M8.33,11.03h2.58v.28h-2.58v-.28ZM8.33,11.61h8.86v.14h-8.86v-.14ZM8.33,12.04h8.86v.22h-8.86v-.22ZM8.33,12.49h8.86v.28h-8.86v-.28ZM8.33,12.91h8.86v.44h-8.86v-.44ZM17.19,11.03h-2.58v.28h2.58v-.28Z"/>
      </g>
      <g class="cls-16">
        <circle class="cls-7" cx="14.16" cy="7.18" r="2.87"/>
      </g>
      <g class="cls-14">
        <circle class="cls-8" cx="14.52" cy="7.46" r="2.87"/>
      </g>
      <circle class="cls-8" cx="12.76" cy="5.44" r="1.15"/>
      <g class="cls-3">
        <circle class="cls-7" cx="14.63" cy="7.62" r="2.87"/>
      </g>
      <g id="h">
        <g class="cls-12">
          <circle class="cls-7" cx="9.4" cy="11.22" r="3.38"/>
        </g>
        <g class="cls-1">
          <circle class="cls-8" cx="9.48" cy="11.54" r="3.38"/>
        </g>
        <circle class="cls-8" cx="8.46" cy="8.69" r="1.15"/>
        <g class="cls-2">
          <g>
            <g class="cls-13">
              <circle class="cls-7" cx="9.75" cy="11.8" r="3.38"/>
            </g>
            <path class="cls-7" d="M11.87,8.95l.53.44h.44v.89h-.53l-.44-1.33Z"/>
          </g>
        </g>
        <g id="s">
          <g id="B">
            <g id="A">
              <path class="cls-4" d="M10.08,4.34l.19.62.31-.09-.5-.52Z"/>
            </g>
            <g id="A-2" data-name="A">
              <path class="cls-4" d="M10.08,4.34l.52.39-.19.26-.32-.65Z"/>
            </g>
          </g>
          <g id="C">
            <g id="B-2" data-name="B">
              <g id="A-3" data-name="A">
                <path class="cls-4" d="M10.84,4.35l-.53.37.19.26.34-.64Z"/>
              </g>
              <g id="A-4" data-name="A">
                <path class="cls-4" d="M10.84,4.35l-.21.61-.31-.11.52-.51Z"/>
              </g>
            </g>
            <g id="B-3" data-name="B">
              <g id="A-5" data-name="A">
                <path class="cls-4" d="M10.44,5.52l.21-.61-.31-.11.1.72Z"/>
              </g>
              <g id="A-6" data-name="A">
                <path class="cls-4" d="M10.44,5.52l-.19-.62.31-.09-.12.71Z"/>
              </g>
            </g>
          </g>
          <g id="C-2" data-name="C">
            <g id="B-4" data-name="B">
              <g id="A-7" data-name="A">
                <path class="cls-4" d="M11.06,5.08l-.52-.39-.19.26.71.13Z"/>
              </g>
              <g id="A-8" data-name="A">
                <path class="cls-4" d="M11.06,5.08h-.65s0-.33,0-.33l.64.33Z"/>
              </g>
            </g>
            <g id="B-5" data-name="B">
              <g id="A-9" data-name="A">
                <path class="cls-4" d="M9.83,5.06h.65s0-.31,0-.31l-.65.31Z"/>
              </g>
              <g id="A-10" data-name="A">
                <path class="cls-4" d="M9.83,5.06l.53-.37.19.26-.72.11Z"/>
              </g>
            </g>
          </g>
        </g>
        <g id="s-2" data-name="s">
          <g id="B-6" data-name="B">
            <g id="A-11" data-name="A">
              <path class="cls-4" d="M8.52,6.19l.47.44.22-.24-.69-.2Z"/>
            </g>
            <g id="A-12" data-name="A">
              <path class="cls-4" d="M8.52,6.19l.64.08-.04.32-.6-.4Z"/>
            </g>
          </g>
          <g id="C-3" data-name="C">
            <g id="B-7" data-name="B">
              <g id="A-13" data-name="A">
                <path class="cls-4" d="M9.19,5.82l-.27.59.29.14-.02-.72Z"/>
              </g>
              <g id="A-14" data-name="A">
                <path class="cls-4" d="M9.19,5.82l.12.63-.32.06.19-.7Z"/>
              </g>
            </g>
            <g id="B-8" data-name="B">
              <g id="A-15" data-name="A">
                <path class="cls-4" d="M9.42,7.03l-.12-.63-.32.06.44.57Z"/>
              </g>
              <g id="A-16" data-name="A">
                <path class="cls-4" d="M9.42,7.03l-.47-.44.22-.24.25.68Z"/>
              </g>
            </g>
          </g>
          <g id="C-4" data-name="C">
            <g id="B-9" data-name="B">
              <g id="A-17" data-name="A">
                <path class="cls-4" d="M9.74,6.34l-.64-.08-.04.32.68-.24Z"/>
              </g>
              <g id="A-18" data-name="A">
                <path class="cls-4" d="M9.74,6.34l-.57.31-.16-.28.72-.03Z"/>
              </g>
            </g>
            <g id="B-10" data-name="B">
              <g id="A-19" data-name="A">
                <path class="cls-4" d="M8.67,6.94l.57-.31-.16-.28-.41.6Z"/>
              </g>
              <g id="A-20" data-name="A">
                <path class="cls-4" d="M8.67,6.94l.27-.59.29.14-.57.45Z"/>
              </g>
            </g>
          </g>
        </g>
      </g>
      <g id="h-2" data-name="h">
        <g class="cls-5">
          <circle class="cls-7" cx="16.11" cy="11.22" r="3.38"/>
        </g>
        <g class="cls-6">
          <circle class="cls-8" cx="16.03" cy="11.54" r="3.38"/>
        </g>
        <circle class="cls-8" cx="17.05" cy="8.69" r="1.15"/>
        <g class="cls-9">
          <g>
            <g class="cls-15">
              <circle class="cls-7" cx="15.76" cy="11.8" r="3.38"/>
            </g>
            <path class="cls-7" d="M13.64,8.95l-.53.44h-.44v.89h.53l.44-1.33Z"/>
          </g>
        </g>
        <g id="s-3" data-name="s">
          <g id="B-11" data-name="B">
            <g id="A-21" data-name="A">
              <path class="cls-4" d="M15.44,4.34l-.19.62-.31-.09.5-.52Z"/>
            </g>
            <g id="A-22" data-name="A">
              <path class="cls-4" d="M15.44,4.34l-.52.39.19.26.32-.65Z"/>
            </g>
          </g>
          <g id="C-5" data-name="C">
            <g id="B-12" data-name="B">
              <g id="A-23" data-name="A">
                <path class="cls-4" d="M14.68,4.35l.53.37-.19.26-.34-.64Z"/>
              </g>
              <g id="A-24" data-name="A">
                <path class="cls-4" d="M14.68,4.35l.21.61.31-.11-.52-.51Z"/>
              </g>
            </g>
            <g id="B-13" data-name="B">
              <g id="A-25" data-name="A">
                <path class="cls-4" d="M15.08,5.52l-.21-.61.31-.11-.1.72Z"/>
              </g>
              <g id="A-26" data-name="A">
                <path class="cls-4" d="M15.08,5.52l.19-.62-.31-.09.12.71Z"/>
              </g>
            </g>
          </g>
          <g id="C-6" data-name="C">
            <g id="B-14" data-name="B">
              <g id="A-27" data-name="A">
                <path class="cls-4" d="M14.45,5.08l.52-.39.19.26-.71.13Z"/>
              </g>
              <g id="A-28" data-name="A">
                <path class="cls-4" d="M14.45,5.08h.65s0-.33,0-.33l-.64.33Z"/>
              </g>
            </g>
            <g id="B-15" data-name="B">
              <g id="A-29" data-name="A">
                <path class="cls-4" d="M15.68,5.06h-.65s0-.31,0-.31l.65.31Z"/>
              </g>
              <g id="A-30" data-name="A">
                <path class="cls-4" d="M15.68,5.06l-.53-.37-.19.26.72.11Z"/>
              </g>
            </g>
          </g>
        </g>
        <g id="s-4" data-name="s">
          <g id="B-16" data-name="B">
            <g id="A-31" data-name="A">
              <path class="cls-4" d="M16.99,6.19l-.47.44-.22-.24.69-.2Z"/>
            </g>
            <g id="A-32" data-name="A">
              <path class="cls-4" d="M16.99,6.19l-.64.08.04.32.6-.4Z"/>
            </g>
          </g>
          <g id="C-7" data-name="C">
            <g id="B-17" data-name="B">
              <g id="A-33" data-name="A">
                <path class="cls-4" d="M16.33,5.82l.27.59-.29.14.02-.72Z"/>
              </g>
              <g id="A-34" data-name="A">
                <path class="cls-4" d="M16.33,5.82l-.12.63.32.06-.19-.7Z"/>
              </g>
            </g>
            <g id="B-18" data-name="B">
              <g id="A-35" data-name="A">
                <path class="cls-4" d="M16.09,7.03l.12-.63.32.06-.44.57Z"/>
              </g>
              <g id="A-36" data-name="A">
                <path class="cls-4" d="M16.09,7.03l.47-.44-.22-.24-.25.68Z"/>
              </g>
            </g>
          </g>
          <g id="C-8" data-name="C">
            <g id="B-19" data-name="B">
              <g id="A-37" data-name="A">
                <path class="cls-4" d="M15.77,6.34l.64-.08.04.32-.68-.24Z"/>
              </g>
              <g id="A-38" data-name="A">
                <path class="cls-4" d="M15.77,6.34l.57.31.16-.28-.72-.03Z"/>
              </g>
            </g>
            <g id="B-20" data-name="B">
              <g id="A-39" data-name="A">
                <path class="cls-4" d="M16.85,6.94l-.57-.31.16-.28.41.6Z"/>
              </g>
              <g id="A-40" data-name="A">
                <path class="cls-4" d="M16.85,6.94l-.27-.59-.29.14.57.45Z"/>
              </g>
            </g>
          </g>
        </g>
      </g>
      <g id="s-5" data-name="s">
        <g id="B-21" data-name="B">
          <g id="A-41" data-name="A">
            <path class="cls-4" d="M12.76,3.21l-.29.89.44.14-.16-1.03Z"/>
          </g>
          <g id="A-42" data-name="A">
            <path class="cls-4" d="M12.76,3.21l.29.89-.44.14.16-1.03Z"/>
          </g>
        </g>
        <g id="C-9" data-name="C">
          <g id="B-22" data-name="B">
            <g id="A-43" data-name="A">
              <path class="cls-4" d="M13.64,3.85h-.93v.47s.93-.47.93-.47Z"/>
            </g>
            <g id="A-44" data-name="A">
              <path class="cls-4" d="M13.64,3.85l-.76.55-.27-.38,1.03-.17Z"/>
            </g>
          </g>
          <g id="B-23" data-name="B">
            <g id="A-45" data-name="A">
              <path class="cls-4" d="M12.21,4.9l.76-.55-.27-.38-.48.93Z"/>
            </g>
            <g id="A-46" data-name="A">
              <path class="cls-4" d="M12.21,4.9l.29-.89.44.14-.73.74Z"/>
            </g>
          </g>
        </g>
        <g id="C-10" data-name="C">
          <g id="B-24" data-name="B">
            <g id="A-47" data-name="A">
              <path class="cls-4" d="M13.31,4.9l-.29-.89-.44.14.73.74Z"/>
            </g>
            <g id="A-48" data-name="A">
              <path class="cls-4" d="M13.31,4.9l-.76-.55.27-.38.48.93Z"/>
            </g>
          </g>
          <g id="B-25" data-name="B">
            <g id="A-49" data-name="A">
              <path class="cls-4" d="M11.87,3.85l.76.55.27-.38-1.03-.17Z"/>
            </g>
            <g id="A-50" data-name="A">
              <path class="cls-4" d="M11.87,3.85h.93s0,.47,0,.47l-.93-.47Z"/>
            </g>
          </g>
        </g>
      </g>
    </g>
  </g>
</svg>