<?xml version="1.0" encoding="UTF-8"?>
<svg id="Layer_2" data-name="Layer 2" xmlns="http://www.w3.org/2000/svg" viewBox="0 0 34.02 17.01">
  <defs>
    <style>
      .cls-1 {
        fill: none;
        stroke: #cb2026;
        stroke-miterlimit: 171.43;
        stroke-width: 1.21px;
      }

      .cls-2 {
        fill: #fff;
      }

      .cls-3 {
        fill: #222160;
      }

      .cls-4 {
        fill: #ffcd05;
      }
    </style>
  </defs>
  <g id="Layer_1-2" data-name="Layer 1">
    <g>
      <g>
        <path class="cls-2" d="M0,0h34.02v17.01H0V0Z"/>
        <path class="cls-1" d="M1.21.61h32.8M34.02,3.04H1.21M1.21,5.47h32.8M34.02,7.9H1.21"/>
        <path class="cls-3" d="M0,0h17.01v10.33H0V0Z"/>
        <path class="cls-1" d="M0,10.33h34.02M34.02,12.76H0M0,15.19h34.02"/>
      </g>
      <path class="cls-4" d="M10.63,1.82l.27,1.85,1.05-1.55-.56,1.79,1.62-.94-1.28,1.37,1.87-.15-1.75.68,1.75.68-1.87-.15,1.28,1.37-1.62-.94.56,1.79-1.05-1.55-.27,1.85-.27-1.85-1.05,1.55.56-1.79-1.62.94,1.28-1.37-1.87.15,1.75-.68-1.75-.68,1.87.15-1.28-1.37,1.62.94-.56-1.79,1.05,1.55.27-1.85ZM9.11,1.9c-1.64-.73-3.55.01-4.28,1.65-.73,1.64.01,3.55,1.65,4.28.84.37,1.79.37,2.63,0-1.64,1.17-3.91.8-5.09-.84s-.8-3.91.84-5.09c1.27-.91,2.98-.91,4.25,0Z"/>
    </g>
  </g>
</svg>