<?xml version="1.0" encoding="UTF-8"?>
<svg id="Layer_2" data-name="Layer 2" xmlns="http://www.w3.org/2000/svg" viewBox="0 0 34.02 17.01">
  <defs>
    <style>
      .cls-1 {
        fill: #d91f32;
      }

      .cls-2 {
        fill: #0b67b2;
      }

      .cls-3 {
        fill: #fed307;
      }

      .cls-4 {
        fill: #da1e33;
      }
    </style>
  </defs>
  <g id="Layer_1-2" data-name="Layer 1">
    <g>
      <path class="cls-1" d="M0,0h34.02v17.01H0V0Z"/>
      <path class="cls-2" d="M11.34,0h11.34v17.01h-11.34V0Z"/>
      <circle class="cls-3" cx="5.67" cy="5.81" r="1.56"/>
      <circle class="cls-1" cx="5.67" cy="5.1" r="1.7"/>
      <circle class="cls-3" cx="5.67" cy="5.39" r="1.13"/>
      <path class="cls-3" d="M5.79,1.7c-.14.06-.19.18-.2.29,0,.1.04.21.04.3,0,.16-.17.22-.17.45,0,.08.07.17.07.37-.01.11-.07.13-.14.14-.08,0-.14-.06-.14-.14,0-.04.01-.07.04-.1,0,0,0,0,.01-.01.03-.03.08-.05.08-.13,0-.04-.03-.08-.06-.16-.03-.08,0-.2.05-.28-.1.04-.16.13-.19.22-.03.1,0,.17-.05.25-.03.06-.06.08-.09.13-.04.05-.08.17-.08.23,0,.39.32.71.71.71s.71-.32.71-.71c0-.06-.04-.18-.08-.23-.03-.05-.06-.07-.09-.13-.04-.09-.02-.15-.05-.25-.03-.09-.09-.18-.19-.22.06.07.08.2.05.28-.03.08-.06.12-.06.16,0,.09.04.1.08.13,0,0,0,0,.01.01.03.03.04.06.04.1,0,.08-.06.14-.14.14-.08,0-.13-.05-.14-.14,0-.27.12-.29.12-.49,0-.29-.26-.42-.26-.64,0-.07.02-.19.12-.29h0ZM2.55,7.65h1.42v6.8h-1.42v-6.8ZM7.37,7.65h1.42v6.8h-1.42v-6.8ZM4.25,7.65h2.83l-1.42.85-1.42-.85ZM4.25,8.79h2.83v.57h-2.83v-.57ZM4.25,12.76h2.83v.57h-2.83v-.57ZM4.25,13.61h2.83l-1.42.85-1.42-.85Z"/>
      <circle class="cls-3" cx="5.67" cy="11.06" r="1.42"/>
      <g>
        <circle class="cls-4" cx="5.67" cy="10.3" r=".28"/>
        <circle class="cls-4" cx="5.67" cy="11.81" r=".28"/>
        <path class="cls-4" d="M5.67,9.47c.46,0,.84.37.84.84s-.37.84-.84.84c-.37,0-.67.3-.67.67s.3.67.67.67v.17c-.46,0-.84-.37-.84-.84s.37-.84.84-.84c.37,0,.67-.3.67-.67s-.3-.67-.67-.67v-.17Z"/>
      </g>
    </g>
  </g>
</svg>