<?xml version="1.0" encoding="UTF-8"?>
<svg id="Layer_2" data-name="Layer 2" xmlns="http://www.w3.org/2000/svg" viewBox="0 0 34.02 17.01">
  <defs>
    <style>
      .cls-1 {
        fill: #fff;
      }

      .cls-2 {
        fill: #f9d01a;
      }

      .cls-3 {
        fill: #ce2029;
      }

      .cls-4 {
        fill: #1f4698;
      }
    </style>
  </defs>
  <g id="Layer_1-2" data-name="Layer 1">
    <g>
      <path class="cls-4" d="M0,0h34.02v8.5L5.29,16.82,0,0Z"/>
      <path class="cls-3" d="M5.29,8.5h28.72v8.5H0l5.29-8.5Z"/>
      <path class="cls-1" d="M14.73,8.5L0,17.01V0l14.73,8.5Z"/>
      <circle class="cls-2" cx="5.29" cy="8.5" r="1.7"/>
      <g id="c">
        <g id="b">
          <path id="a" class="cls-2" d="M5.29,8.5l-.6-3.01.18-.18.2-.18.22-.22.22.22.2.18.18.18-.6,3.01Z"/>
          <path id="a-2" data-name="a" class="cls-2" d="M5.29,8.5l.6,3.01-.18.18-.2.18-.22.22-.22-.22-.2-.18-.18-.18.6-3.01Z"/>
        </g>
        <g id="b-2" data-name="b">
          <path id="a-3" data-name="a" class="cls-2" d="M5.29,8.5l3.01-.6.18.18.18.2.22.22-.22.22-.18.2-.18.18-3.01-.6Z"/>
          <path id="a-4" data-name="a" class="cls-2" d="M5.29,8.5l-3.01.6-.18-.18-.18-.2-.22-.22.22-.22.18-.2.18-.18,3.01.6Z"/>
        </g>
      </g>
      <g id="c-2" data-name="c">
        <g id="b-3" data-name="b">
          <path id="a-5" data-name="a" class="cls-2" d="M5.29,8.5l1.7-2.55h.25s.27,0,.27,0h.31s0,.31,0,.31v.27s0,.25,0,.25l-2.55,1.7Z"/>
          <path id="a-6" data-name="a" class="cls-2" d="M5.29,8.5l-1.7,2.55h-.25s-.27,0-.27,0h-.31s0-.31,0-.31v-.27s0-.25,0-.25l2.55-1.7Z"/>
        </g>
        <g id="b-4" data-name="b">
          <path id="a-7" data-name="a" class="cls-2" d="M5.29,8.5l2.55,1.7v.25s0,.27,0,.27v.31s-.31,0-.31,0h-.27s-.25,0-.25,0l-1.7-2.55Z"/>
          <path id="a-8" data-name="a" class="cls-2" d="M5.29,8.5l-2.55-1.7v-.25s0-.27,0-.27v-.31s.31,0,.31,0h.27s.25,0,.25,0l1.7,2.55Z"/>
        </g>
      </g>
      <path id="d" class="cls-2" d="M13.03,8.5l-.64.22v.68s-.42-.54-.42-.54l-.65.2.39-.56-.39-.56.65.2.41-.54v.68s.65.22.65.22Z"/>
      <path id="d-2" data-name="d" class="cls-2" d="M.85,15.53l.13-.66-.58-.35.67-.08.15-.66.29.61.67-.06-.49.46.26.62-.59-.33-.51.44Z"/>
      <path id="d-3" data-name="d" class="cls-2" d="M.85,1.47l.51.44.59-.33-.26.62.49.46-.67-.06-.29.61-.15-.66-.67-.08.58-.35-.13-.66Z"/>
    </g>
  </g>
</svg>