<?xml version="1.0" encoding="UTF-8"?>
<svg id="Layer_2" data-name="Layer 2" xmlns="http://www.w3.org/2000/svg" viewBox="0 0 25.51 17.01">
  <defs>
    <style>
      .cls-1 {
        fill: #fff;
      }

      .cls-2 {
        fill: #ec2d3a;
      }
    </style>
  </defs>
  <g id="Layer_1-2" data-name="Layer 1">
    <g>
      <path class="cls-1" d="M0,0h25.51v17.01H0V0Z"/>
      <path class="cls-2" d="M0,0h25.51v8.5H0V0Z"/>
      <circle class="cls-1" cx="5.39" cy="4.25" r="3.13"/>
      <circle class="cls-2" cx="6.81" cy="4.25" r="3.13"/>
      <g id="s">
        <path class="cls-1" d="M6.32,2.20L6.91,2.20L7.10,1.64L7.28,2.20L7.87,2.20L7.39,2.55L7.57,3.11L7.10,2.76L6.62,3.11L6.80,2.55Z"/>
      </g>
      <g id="t">
        <g id="s-2" data-name="s">
          <path class="cls-1" d="M8.03,3.45L8.62,3.45L8.80,2.89L8.98,3.45L9.58,3.45L9.10,3.80L9.28,4.36L8.80,4.01L8.32,4.36L8.51,3.80Z"/>
        </g>
        <g id="s-3" data-name="s">
          <path class="cls-1" d="M5.27,5.45L5.86,5.45L6.04,4.89L6.23,5.45L6.82,5.45L6.34,5.80L6.52,6.36L6.04,6.01L5.57,6.36L5.75,5.80Z"/>
        </g>
      </g>
      <g id="t-2" data-name="t">
        <g id="s-4" data-name="s">
          <path class="cls-1" d="M7.38,5.45L7.98,5.45L8.16,4.89L8.34,5.45L8.93,5.45L8.45,5.80L8.64,6.36L8.16,6.01L7.68,6.36L7.86,5.80Z"/>
        </g>
        <g id="s-5" data-name="s">
          <path class="cls-1" d="M4.62,3.45L5.21,3.45L5.39,2.89L5.57,3.45L6.16,3.45L5.69,3.80L5.87,4.36L5.39,4.01L4.91,4.36L5.09,3.80Z"/>
        </g>
      </g>
    </g>
  </g>
</svg>