<?xml version="1.0" encoding="UTF-8"?>
<svg id="Layer_2" data-name="Layer 2" xmlns="http://www.w3.org/2000/svg" viewBox="0 0 25.51 17.01">
  <defs>
    <style>
      .cls-1 {
        fill: #fff;
      }

      .cls-2 {
        fill: #ec2d3a;
      }
    </style>
  </defs>
  <g id="Layer_1-2" data-name="Layer 1">
    <g>
      <path class="cls-1" d="M0,0h25.51v17.01H0V0Z"/>
      <path class="cls-2" d="M0,0h25.51v8.5H0V0Z"/>
      <circle class="cls-1" cx="5.39" cy="4.25" r="3.13"/>
      <circle class="cls-2" cx="6.81" cy="4.25" r="3.13"/>
      <path id="s" class="cls-1" d="M7.1,1.64l-.48,1.47,1.25-.91h-1.55l1.25.91-.48-1.47Z"/>
      <g id="t">
        <path id="s-2" data-name="s" class="cls-1" d="M9.58,3.45h-1.55s1.25.91,1.25.91l-.48-1.47-.48,1.47,1.25-.91Z"/>
        <path id="s-3" data-name="s" class="cls-1" d="M5.57,6.36l1.25-.91h-1.55s1.25.91,1.25.91l-.48-1.47-.48,1.47Z"/>
      </g>
      <g id="t-2" data-name="t">
        <path id="s-4" data-name="s" class="cls-1" d="M8.64,6.36l-.48-1.47-.48,1.47,1.25-.91h-1.55s1.25.91,1.25.91Z"/>
        <path id="s-5" data-name="s" class="cls-1" d="M4.62,3.45l1.25.91-.48-1.47-.48,1.47,1.25-.91h-1.55Z"/>
      </g>
    </g>
  </g>
</svg>