<?xml version="1.0" encoding="UTF-8"?>
<svg id="Layer_2" data-name="Layer 2" xmlns="http://www.w3.org/2000/svg" viewBox="0 0 25.51 17.01">
  <defs>
    <style>
      .cls-1 {
        fill: #fff;
      }

      .cls-2 {
        fill: #114b9d;
      }

      .cls-3 {
        fill: #010101;
      }

      .cls-4 {
        fill: #cd2f3a;
      }
    </style>
  </defs>
  <g id="Layer_1-2" data-name="Layer 1">
    <g>
      <path class="cls-1" d="M0,0v17.01h25.51V0H0Z"/>
      <g>
        <path class="cls-3" d="M6.56,1.82l-2.36,3.54M5.09,5.95l2.36-3.54M8.33,3l-2.36,3.54M17.18,14.01l1.08-1.62M18.46,12.09l1.08-1.62M20.42,11.06l-1.08,1.62M19.14,12.98l-1.08,1.62M18.95,15.19l1.08-1.62M20.22,13.27l1.08-1.62M4.21,11.65l2.36,3.54M7.45,14.6l-1.08-1.62M6.17,12.68l-1.08-1.62M5.98,10.47l2.36,3.54M19.54,6.54l-1.08-1.62M18.26,4.62l-1.08-1.62M18.06,2.41l2.36,3.54M21.31,5.36l-1.08-1.62M20.03,3.44l-1.08-1.62"/>
        <path class="cls-3" d="M19.24,15.38l-.59-.39,1.08-1.62.59.39-1.08,1.62ZM6.27,15.38l-2.36-3.54.59-.39,2.36,3.54-.59.39ZM18.36,14.79l-.59-.39,1.08-1.62.59.39-1.08,1.62ZM7.15,14.79l-1.08-1.62.59-.39,1.08,1.62-.59.39ZM8.04,14.2l-2.36-3.54.59-.39,2.36,3.54-.59.39ZM17.47,14.2l-.59-.39,1.08-1.62.59.39-1.08,1.62ZM20.52,13.47l-.59-.39,1.08-1.62.59.39-1.08,1.62ZM19.63,12.88l-.59-.39,1.08-1.62.59.39-1.08,1.62ZM5.88,12.88l-1.08-1.62.59-.39,1.08,1.62-.59.39ZM18.75,12.29l-.59-.39,1.08-1.62.59.39-1.08,1.62ZM6.27,6.73l-.59-.39,2.36-3.54.59.39-2.36,3.54ZM19.24,6.73l-1.08-1.62.59-.39,1.08,1.62-.59.39ZM20.13,6.15l-2.36-3.54.59-.39,2.36,3.54-.59.39ZM5.39,6.15l-.59-.39,2.36-3.54.59.39-2.36,3.54ZM21.01,5.56l-1.08-1.62.59-.39,1.08,1.62-.59.39ZM4.5,5.56l-.59-.39,2.36-3.54.59.39-2.36,3.54ZM17.96,4.82l-1.08-1.62.59-.39,1.08,1.62-.59.39ZM19.73,3.64l-1.08-1.62.59-.39,1.08,1.62-.59.39Z"/>
      </g>
      <path class="cls-4" d="M14.52,9.68c-.98,1.47-2.96,1.86-4.42.88-1.47-.98-1.86-2.96-.88-4.42,1.3-1.96,3.94-2.49,5.89-1.19,1.96,1.3,2.49,3.94,1.19,5.89,0,0,0,.01-.01.02"/>
      <path class="cls-2" d="M12.76,8.5c.65-.98,1.97-1.24,2.95-.59.98.65,1.24,1.97.59,2.95-1.3,1.95-3.94,2.48-5.9,1.18-1.95-1.3-2.48-3.94-1.18-5.9h0c-.65.98-.39,2.3.59,2.95.98.65,2.3.39,2.95-.59"/>
    </g>
  </g>
</svg>