<?xml version="1.0" encoding="UTF-8"?>
<svg id="Layer_2" data-name="Layer 2" xmlns="http://www.w3.org/2000/svg" viewBox="0 0 34.02 17.01">
  <defs>
    <style>
      .cls-1 {
        fill: #8e183b;
      }

      .cls-2 {
        fill: #ea7624;
      }

      .cls-3 {
        fill: #010101;
      }

      .cls-4 {
        fill: #05544f;
      }

      .cls-5 {
        fill: #febe2b;
      }
    </style>
  </defs>
  <g id="Layer_1-2" data-name="Layer 1">
    <g>
      <path class="cls-5" d="M0,0h34.02v17.01H0V0Z"/>
      <path class="cls-2" d="M1.59,1.59h8.84v13.83H1.59V1.59Z"/>
      <path class="cls-4" d="M1.59,1.59h4.42v13.83H1.59V1.59Z"/>
      <path class="cls-1" d="M12.02,1.59h20.41v13.83H12.02V1.59Z"/>
      <g>
        <path class="cls-5" d="M14.24,12.73s-.19.39-.39.55c-.31.24-.94.22-1.2.5-.32.33.02.76.02.79l-.02.23s.22,0,.31.02c.14.02.19.14.44.12.64-.04.61-.63.65-1.14.03-.19.11-.44.15-.64.04-.16.04-.43.04-.43h0Z"/>
        <path class="cls-3" d="M13.34,14.97c-.14,0-.21-.04-.28-.07-.04-.02-.08-.04-.12-.05-.09-.01-.3-.02-.3-.02h-.03v-.03s.02-.23.02-.23h0s-.01-.02-.02-.04c-.07-.13-.27-.49,0-.77.15-.15.4-.22.65-.28.21-.05.42-.11.56-.22.2-.15.39-.54.39-.54h.02s.03.01.03.01h0s-.01.28-.04.43c-.02.08-.04.16-.06.25-.03.13-.07.27-.09.39,0,.04,0,.09,0,.13-.03.46-.06.99-.67,1.03-.02,0-.04,0-.05,0ZM12.67,14.77c.06,0,.21,0,.28.02.05,0,.1.03.14.05.07.04.15.08.3.07.56-.04.59-.51.61-.98,0-.04,0-.09,0-.13.02-.12.06-.26.09-.4.02-.08.04-.17.06-.24.02-.09.03-.2.04-.29-.07.13-.2.33-.34.44-.15.11-.37.17-.58.23-.24.06-.48.13-.62.27-.25.25-.07.57,0,.7.02.04.03.06.03.07v.2Z"/>
      </g>
      <g>
        <g id="A">
          <g>
            <path class="cls-5" d="M19.02,13.68l.13-.07.06.07c.07.1.28.1.41,0l.1-.08.09.08c.11.1.33.1.46,0,.09-.07.11-.07.17-.02.04.03.15.07.24.08.17.02.18.02.28-.13.09-.12.1-.18.08-.3-.02-.1-.03-.19-.03-.29,0-.14,0-.14.2-.21.12-.04.25-.09.3-.12.08-.04.31-.31.31-.36,0-.01-.09-.04-.2-.05-.44-.05-.51-.28-.23-.7.47-.7.75-1.37.75-1.81,0-.19.01-.26.04-.22.1.17-.08.89-.36,1.41l-.11.21.11-.02c.06-.01.41-.16.78-.32,1.01-.45,1.36-.53,2.01-.51.55.02.78.13,1.17.52.2.21.4.36.76.58.77.47.8.51.84,1.06.04.56.02.59-.41.68-.37.08-.6.25-.67.48-.03.13.04.13.22.01l.14-.09.06.09c.08.11.25.11.39,0l.11-.08.11.08c.17.13.39.1.46-.06.01-.03.04-.02.11.03.12.1.44.15.48.07.01-.03-.01-.11-.06-.17-.18-.27-.24-.4-.24-.55,0-.2.06-.3.3-.47.29-.2.38-.46.16-.46-.14,0-.27-.12-.36-.31-.18-.39-.14-.82.12-1.55.27-.74.3-.87.3-1.36,0-.4,0-.47-.1-.69-.06-.13-.17-.33-.26-.44l-.15-.2.2-.16c.6-.48.48-1.28-.24-1.58-.22-.09-.28-.1-.66-.1-.23,0-.59.03-.79.07-.2.04-.55.06-.79.07-.38,0-.44,0-.59-.08-.15-.08-.18-.12-.21-.3,0-.04-.03-.07-.06-.08-.05-.02-.29.19-.32.27-.02.04-.03.04-.08-.02-.03-.04-.08-.13-.1-.2-.06-.18.01-.31.23-.41l.17-.08-.1-.06c-.2-.12-.54-.04-.67.16-.04.06-.07.1-.08.1s-.08-.05-.15-.12c-.26-.25-.17-.61.18-.73.19-.06.35-.01.38.11.05.18.21-.06.19-.28-.02-.15-.02-.15.09-.15.14,0,.45.18.54.33.11.17.1.43-.02.62l-.09.15.12-.02c.18-.04.36-.15.45-.28.09-.14.1-.42.02-.56-.08-.14-.07-.17.05-.12.2.08.31.17.39.33.07.14.08.18.04.32-.02.09-.08.21-.12.26-.07.09-.07.1-.02.1.1,0,.3-.09.37-.17.04-.04.09-.13.12-.21l.05-.14.06.11c.08.15.25.28.45.37.22.09.31.1.19.01-.08-.06-.22-.46-.17-.5.02-.02.32.2.65.49.32.28.52.37.81.37.37,0,.59-.32.42-.61-.1-.17-.31-.2-.44-.05-.06.07-.07.12-.06.19.02.09.01.1-.07.1-.11,0-.32-.13-.7-.44-.58-.47-1.28-.87-1.78-1.01-.32-.09-1.02-.13-1.35-.07-.36.06-.78.26-1.01.48-.41.38-.41.88-.02,1.34l.11.13-.08.12c-.11.17-.1.4.02.57.06.07.11.13.12.13s.03-.05.03-.11c.01-.15.08-.25.19-.28.1-.04.16-.02.62.16.48.19,1.27.2,2.12.03.41-.08.9-.08,1.11.01.39.16.48.58.2.9-.13.14-.25.19-.65.3-.31.08-.38.09-1.08.08-.6,0-.81,0-1.06.06-.27.05-.43.06-1.21.04l-.9-.02.1.08c.05.04.13.1.17.12.07.04.07.04-.04.08-.06.02-.19.04-.29.04h-.18l-.02.15c-.01.08-.01.18,0,.22.02.05.01.06-.04.04-.04-.01-.15-.04-.24-.06s-.22-.06-.28-.09c-.1-.05-.11-.05-.15.02-.03.06-.35.28-.39.28,0,0-.02-.04-.02-.1s-.05-.19-.1-.31-.1-.24-.12-.28c-.02-.06-.03-.06-.06-.02-.02.03-.04.11-.05.18s-.06.18-.1.25l-.08.12-.05-.1c-.06-.11-.15-.23-.18-.23-.01,0-.03.04-.04.08-.03.09-.24.35-.3.35-.02,0-.04-.07-.04-.16s-.02-.16-.04-.16-.04.02-.04.05c0,.07-.19.27-.25.27-.03,0-.07.02-.1.05-.07.08-.12.07-.1-.02.01-.04,0-.13-.02-.2l-.06-.17s-.08-.02-.22.02c-.23.07-.3.06-.19-.03.04-.03.11-.15.14-.25s.09-.2.12-.21c.04-.01.04,0,0,.07-.03.05-.06.11-.06.14s-.03.1-.06.16-.05.11-.04.12.09-.03.19-.07l.18-.08v.07s.02.15.05.24l.05.17.12-.05c.12-.06.24-.25.24-.41,0-.08.04-.06.06.02,0,.02.03.11.06.2l.05.16.08-.1c.05-.05.1-.16.13-.23.04-.13.11-.19.11-.09,0,.07.19.31.23.29.02-.01.05-.1.08-.2.05-.21.14-.36.19-.33.02.01.03.03.02.05s.03.15.1.31l.14.34c.02.06.04.05.18-.07.09-.07.16-.16.17-.18.01-.04.03-.04.11,0,.11.07.49.18.52.15.01-.01.02-.11.02-.22v-.2s.11.02.11.02c.06.01.19.01.28,0l.17-.02-.15-.1c-.08-.06-.17-.13-.19-.16-.02-.03-.1-.06-.18-.07-.23-.02-.63-.24-.63-.35,0-.02.06.01.12.08.15.14.36.22.55.22h.14l-.09-.11c-.05-.06-.09-.18-.1-.28-.02-.16-.03-.18-.2-.3-.1-.07-.23-.17-.28-.23l-.1-.1-.05.12c-.03.07-.06.12-.07.12s-.06-.04-.11-.09-.1-.09-.11-.09-.06.07-.1.15l-.08.15-.06-.08s-.11-.13-.17-.18-.09-.1-.07-.1.1.06.17.12l.13.12.05-.09c.03-.05.04-.14.03-.2-.02-.1-.02-.1.02-.04.02.04.1.11.16.17l.12.1.08-.15c.08-.15.08-.15.12-.06.05.12.41.41.72.58.05.03.03-.06-.06-.27-.02-.05-.04-.15-.04-.22,0-.1-.03-.14-.16-.24-.19-.14-.25-.24-.28-.46-.01-.09-.05-.19-.07-.22-.04-.05-.04-.02-.03.15,0,.11,0,.25-.03.31l-.05.11-.04-.09s-.11-.13-.19-.19-.15-.11-.13-.12.1.04.2.11c.15.11.18.12.2.07.02-.06,0-.3-.05-.48-.02-.09-.02-.09.09.02.08.08.13.17.16.34.04.21.07.24.26.41.12.1.22.18.23.17s.02-.27.03-.58c.02-.6,0-.74-.15-.93l-.08-.1.12-.13c.16-.16.23-.3.26-.48l.03-.15-.14.13c-.11.1-.16.13-.29.13s-.18-.02-.26-.11c-.1-.11-.28-.21-.46-.26-.06-.02-.09-.01-.09.03,0,.03-.04.12-.08.2l-.08.14-.17-.16c-.1-.1-.22-.18-.31-.2-.23-.06-.24-.05-.24.11,0,.25-.11.3-.31.13-.15-.13-.28-.16-.57-.13l-.22.02.04.1c.03.08.03.12-.05.21-.12.15-.27.22-.5.22-.11,0-.24.02-.3.05s-.2.06-.31.07-.24.03-.27.04c-.05.02-.06,0-.04-.12.03-.19-.11-.32-.31-.32-.27,0-.39.24-.29.55.02.07.04.14.06.21.01.06.13.21.28.36.14.14.28.29.3.32s.1.1.16.14l.12.07-.02-.13c-.02-.14.01-.16.09-.06.03.04.1.09.16.13.09.05.11.06.11,0,0-.03.02-.1.04-.15l.04-.1.07.14c.04.07.17.24.29.38.23.26.37.54.29.61-.03.03-.11.02-.27,0-.13-.02-.28-.04-.35-.03-.13.02-.14,0-.06-.1.09-.1.07-.12-.1-.12-.19,0-.68-.09-.86-.16-.18-.07-.22-.05-.27.11l-.1.3-.05.17.2-.02c.11-.01.25-.03.31-.05s.12-.03.12-.02-.02.07-.06.14l-.07.13.12-.02c.07-.01.17-.05.22-.07.1-.05.11-.04.18.08.09.15.17.14.19-.02.02-.16.07-.14.18.08.1.21.2.28.22.16,0-.04.06-.11.12-.15.12-.08.21-.06.26.07.05.13-.07.27-.41.47-.69.41-1.09.97-1.21,1.68-.1.64.22,1.3.87,1.78.31.23.8.47.77.38-.13-.39-.13-1.13,0-1.26.02-.02.01.06-.02.17-.11.42-.06.76.22,1.55.25.72.22,1.02-.14,1.22-.11.06-.19.08-.49.07-.33,0-.37,0-.47.09-.1.08-.24.34-.24.47,0,.07.08.06.22-.03h0ZM24.4,13.66l.14-.09.09.09c.12.11.27.11.39,0,.05-.05.1-.09.1-.08.02.03.03.06.05.09.03.05.09.07.2.08.13,0,.17,0,.22-.08l.06-.09.14.09c.37.24.57-.01.41-.5-.09-.25-.04-.39.24-.71.12-.13.21-.28.21-.32,0-.07-.02-.07-.18-.07-.15,0-.19-.01-.27-.1-.13-.14-.12-.29.02-.46l.11-.14-.2-.13c-.11-.07-.31-.25-.44-.38-.3-.31-.59-.46-.98-.49l-.26-.02v.19c0,.25.12.48.44.88.37.46.39.53.41,1.12v.5s-.09.1-.09.1c-.1.09-.14.1-.45.12-.29.02-.36.03-.44.11-.11.1-.15.15-.18.29-.02.08-.01.1.05.1.04,0,.13-.04.21-.09h0ZM16.57,12.21c0-.06.03-.08.17-.1l.17-.02-.12-.09c-.14-.11-.15-.19-.03-.19.12,0,.32-.12.35-.21.01-.04,0-.1-.02-.13-.07-.07-.19-.06-.22.02-.03.09-.07.09-.16,0-.14-.13-.15-.41,0-.57.07-.08.07-.08-.02-.16-.09-.08-.16-.25-.11-.29.01-.01.09,0,.16.02.11.04.15.04.19,0,.13-.1-.01-.23-.22-.2-.08.01-.12,0-.13-.04,0-.03-.08-.08-.17-.1-.15-.04-.15-.04-.15.06,0,.11-.06.13-.19.06-.1-.06-.2-.01-.2.09,0,.1.1.14.28.13.14,0,.14.09.01.23l-.09.1.07.1c.11.15.1.41-.02.54l-.09.1-.06-.08c-.09-.11-.2-.1-.23.01-.02.08,0,.11.1.19.07.06.16.1.22.1.13,0,.12.1-.01.2l-.11.08.16.02c.09.01.16.04.16.06,0,.07.04.27.15.28.1,0,.16-.14.16-.23h0ZM18.63,11.46c.15-.06.47-.32.47-.39,0-.02-.09-.12-.2-.21-.23-.2-.47-.54-.54-.74-.03-.1-.19-.28-.65-.71l-.6-.57-.17.04c-.1.02-.21.04-.26.04-.08,0-.08,0,.03.09l.11.09.16-.09c.15-.08.16-.08.18-.02.01.04-.01.11-.06.16-.04.05-.07.1-.05.12s-.03.06-.09.09c-.11.05-.19.23-.1.23.08,0,.26-.21.24-.29-.01-.04,0-.08.01-.08.07-.04.06.13,0,.21-.04.05-.07.1-.05.12s-.03.06-.09.09c-.11.05-.19.23-.1.23s.26-.2.24-.28c-.01-.04,0-.08,0-.09.05-.03.07.11.03.17-.02.03-.02.08,0,.12.04.07,0,.2-.07.24-.03.02,0,.05.06.11.11.08.11.09.11.44,0,.29.01.37.07.42.06.06.07.06.07,0,0-.06.11-.13.2-.13.03,0,.19.13.36.3.17.16.35.3.41.31l.12.02s.09-.02.17-.05h0ZM16.79,10.05c0-.09-.2-.19-.44-.22-.19-.02-.2-.02-.2.07,0,.08.03.11.16.16.21.09.47.08.47-.02h0ZM17,10.04c.1-.09.14-.19.08-.19-.07,0-.25.16-.25.21,0,.09.03.09.16-.03ZM16.8,9.77c0-.05-.03-.09-.13-.13-.22-.1-.48-.14-.54-.09-.12.09-.04.21.15.23.08,0,.18.03.23.05.14.05.28.03.29-.05h0ZM16.8,9.48c.01-.08-.04-.1-.44-.24-.3-.1-.44-.05-.34.12.03.06.09.09.22.11.09.01.22.04.29.06.17.05.27.03.28-.05h0ZM17,9.21c.06-.06.11-.13.11-.16,0-.09-.24.07-.27.17-.04.13.02.12.16-.01ZM16.8,9.2c.01-.09-.13-.16-.42-.22-.21-.04-.31-.02-.29.08,0,.05.08.09.28.15.32.1.42.1.43,0h0ZM17.08,8.8c.37-.16.4-.57.05-.67-.15-.04-.24-.02-.29.08-.04.07-.01.21.04.21.02,0,.04.02.04.05,0,.14-.57.2-.8.09-.08-.04-.12-.14-.05-.14.05,0,.09-.11.06-.18-.04-.1-.14-.14-.3-.1-.35.09-.34.49.02.66.29.14.93.15,1.23.02h0ZM16.85,8.48s.01-.05-.02-.08c-.08-.06-.07-.15.01-.25.06-.08.07-.19.1-1.36.04-2.01.19-3.52.39-3.88.08-.14.07-.14-.14,0-.27.18-.47.41-.65.74-.34.62-.46,1.47-.46,3.26,0,1.02,0,1.15.07,1.25.06.09.06.12.02.22-.03.06-.04.12-.03.13.08.07.63.05.71-.02h0ZM19.96,6.57s-.01-.1-.06-.19c-.07-.14-.09-.16-.19-.16-.3,0-.78-.13-1.27-.35-.29-.12-.38-.15-.42-.12-.09.08.06.27.28.37.2.09.76.2,1.01.2.15,0,.15,0,.07.13l-.06.09h.17c.09,0,.22.02.28.04.16.04.17.04.19,0h0Z"/>
            <path class="cls-3" d="M26.05,13.83c-.08,0-.17-.03-.3-.1l-.07-.05-.02.03c-.08.11-.15.12-.29.11-.09,0-.21-.03-.26-.12h0s-.02,0-.02.01c-.15.15-.34.15-.5,0l-.05-.05-.09.06c-.08.05-.19.1-.25.1-.02,0-.08,0-.11-.04-.03-.04-.02-.1-.01-.15.04-.15.08-.22.21-.33.11-.09.2-.11.49-.13.3-.02.33-.03.4-.1l.08-.07v-.47c-.03-.58-.04-.63-.4-1.07-.33-.41-.46-.67-.46-.93v-.13c-.52,0-.88.11-1.77.5-.33.14-.72.31-.79.33l-.14.03c-.07.12-.15.24-.23.37-.13.2-.18.35-.14.44.03.07.14.12.31.14.23.02.27.06.27.12,0,.1-.28.39-.36.43-.05.03-.19.08-.31.12-.07.02-.14.05-.15.06,0,0,0,.04,0,.07,0,.09.02.19.03.28.02.14,0,.21-.09.35-.12.17-.15.19-.35.16-.1-.01-.23-.05-.28-.1-.02-.01-.02-.02-.03-.02,0,0-.04.03-.05.04-.17.12-.42.12-.56,0l-.04-.03-.05.04c-.17.12-.42.12-.52-.01v-.02s-.08.04-.08.04c-.14.08-.22.1-.29.06-.04-.02-.06-.06-.06-.11,0-.15.15-.43.27-.53.13-.1.18-.1.52-.1.3,0,.36,0,.45-.06.28-.16.37-.37.1-1.13-.05-.15-.09-.28-.13-.4,0,0,0,0-.01,0-.18,0-.59-.27-.75-.37-.06.14-.4.38-.51.42h0c-.11.04-.19.06-.21.05l-.13-.02c-.11-.02-.41-.3-.45-.33-.15-.15-.28-.25-.32-.28-.05,0-.1.04-.1.06,0,.02,0,.08-.05.11-.06.03-.1-.01-.15-.06-.08-.07-.09-.17-.09-.48s0-.32-.08-.37c-.03-.02-.06-.05-.08-.08-.07.05-.12.08-.18.06-.02,0-.03-.02-.04-.03-.04.02-.08.03-.13.04,0,0,0,0,0,0,0,0,.02,0,.05,0,.16-.02.31.04.35.14.03.07,0,.15-.07.21-.08.06-.17.04-.26.01-.02,0-.04-.01-.06-.02.01.04.05.11.09.15.11.1.13.15.02.27-.11.13-.11.36,0,.46.01.01.03.02.04.03.02-.06.07-.1.13-.12.08-.02.17,0,.22.07.04.05.06.13.04.2-.04.13-.26.25-.41.27.01.01.03.03.06.05l.26.2-.36.05c-.08.01-.1.02-.11.02h0s0,0,0,0c0,.08-.04.19-.11.26-.04.04-.08.06-.13.05-.15,0-.21-.2-.22-.31-.02,0-.05-.02-.1-.02l-.35-.05.26-.19s.05-.04.06-.06h0c-.08,0-.19-.06-.27-.12-.11-.09-.16-.15-.12-.28.02-.08.07-.13.14-.15.08-.01.16.02.23.11h0s.03-.03.03-.03c.09-.1.1-.31.01-.44l-.11-.16.14-.15c.05-.05.06-.08.07-.1,0,0-.01,0-.02,0-.13,0-.24-.02-.3-.07-.04-.04-.06-.08-.06-.14,0-.07.03-.14.09-.17.07-.04.15-.03.22,0,.04.02.06.03.07.03v-.02s0-.08.02-.11c-.08-.04-.13-.1-.13-.2,0-.04,0-.08.02-.11-.05-.03-.08-.07-.09-.12-.02-.06,0-.12.05-.17-.05-.02-.08-.06-.11-.1-.07-.12-.04-.19,0-.23.02-.03.05-.04.09-.05,0-.02-.02-.03-.02-.05-.01-.07.02-.12.04-.14h0c-.09-.02-.17-.04-.23-.07-.21-.1-.33-.29-.31-.47.02-.16.13-.29.31-.33.08-.02.15-.02.21-.01-.02-.15-.03-.44-.03-1.13,0-1.8.12-2.66.47-3.3.19-.34.4-.58.68-.77.17-.11.22-.15.28-.09.06.05.02.12-.03.2-.2.35-.35,1.86-.38,3.85-.01.75-.02,1.07-.04,1.23.05,0,.12,0,.19.02.18.05.29.18.3.35,0,.17-.09.33-.25.43l.57.54c.21.2.36.35.46.46-.04-.2-.05-.4-.02-.6.12-.73.54-1.31,1.24-1.73.38-.23.4-.32.38-.38-.02-.04-.03-.06-.05-.07-.02,0-.05,0-.09.03-.05.03-.08.08-.08.09-.02.1-.08.12-.11.12-.09.01-.18-.08-.27-.26-.01-.03-.02-.05-.03-.06-.02.09-.05.14-.11.15-.11.02-.19-.1-.21-.14-.01-.02-.04-.06-.05-.07,0,0-.02.02-.03.02-.06.03-.17.06-.24.08l-.29.06.16-.28h0c-.08.02-.21.04-.3.04l-.31.03.19-.58c.03-.09.06-.15.11-.18-.11-.08-.18-.18-.2-.26,0-.06,0-.11.05-.15.07-.07.18-.03.5.11.47.21.95.34,1.23.34-.02-.03-.04-.05-.07-.08-.1-.12-.23-.28-.29-.38,0,.03-.01.06-.01.07,0,.02,0,.07-.05.1-.06.03-.11,0-.18-.04-.04-.02-.08-.06-.12-.09l.03.23-.26-.14c-.07-.04-.16-.11-.19-.17-.02-.03-.14-.16-.29-.31-.05-.05-.28-.28-.3-.4-.02-.07-.04-.13-.06-.2-.07-.19-.05-.37.04-.49.07-.1.19-.16.33-.16.13,0,.24.05.31.13.07.08.09.18.08.28,0,0,0,.01,0,.02.07-.01.16-.03.24-.03.11-.01.24-.04.29-.06.08-.04.23-.06.33-.06.21,0,.34-.05.44-.19.06-.08.06-.08.04-.13l-.08-.2.33-.03c.31-.03.46,0,.63.14.09.08.14.08.15.08,0,0,.03-.04.03-.15,0-.08,0-.15.06-.2.06-.05.14-.03.28,0,.1.03.24.11.35.22l.09.09.03-.05c.04-.08.07-.15.07-.17,0-.05.02-.08.04-.1.04-.03.1-.02.14,0,.19.06.38.17.5.28.07.07.1.09.21.09s.14,0,.24-.1l.31-.28-.06.38c-.03.19-.11.34-.28.52l-.07.08.03.04c.17.21.19.39.17.98-.02.6-.03.61-.06.64-.03.02-.04.04-.08.02,0,0,0,.02,0,.03,0,.05.02.14.04.19.1.24.11.31.06.36-.02.02-.07.03-.11,0-.03-.02-.07-.04-.1-.06,0,.02,0,.04,0,.07,0,.08.05.19.09.24l.17.22.85.02c.77.02.93.01,1.19-.04.25-.05.47-.06,1.07-.06.69.01.76,0,1.06-.08.41-.11.5-.16.61-.28.12-.13.17-.29.14-.44-.03-.15-.14-.26-.31-.33-.2-.08-.67-.08-1.07,0-.86.17-1.67.15-2.16-.04-.44-.17-.5-.18-.57-.16-.08.03-.13.1-.13.22,0,.05-.01.18-.11.18-.03,0-.06,0-.19-.17-.15-.19-.16-.46-.03-.66l.04-.07-.08-.09c-.42-.49-.41-1.04.02-1.45.24-.23.67-.43,1.05-.5.34-.06,1.05-.02,1.38.07.51.15,1.22.55,1.81,1.03.34.28.55.42.64.42,0,0,0,0,0,0-.02-.09,0-.17.07-.26.08-.09.19-.14.3-.12.11.01.21.08.27.19.09.16.09.33,0,.47-.09.16-.28.26-.49.26-.31,0-.53-.1-.86-.39-.23-.2-.41-.34-.51-.41.03.11.1.27.13.3.03.02.11.08.07.16-.04.07-.12.06-.34-.03-.2-.08-.37-.21-.46-.36-.03.08-.09.17-.13.22-.09.09-.31.19-.43.19-.02,0-.08,0-.11-.05-.03-.06.01-.11.06-.17.04-.05.09-.16.11-.24.04-.13.03-.14-.03-.26-.06-.12-.15-.2-.29-.27.09.18.07.47-.04.63-.1.15-.3.27-.5.31l-.3.06.19-.31c.1-.17.11-.4.02-.54-.09-.13-.37-.29-.48-.29h-.02s0,.04,0,.06c.02.17-.06.4-.18.43-.02,0-.12.02-.16-.12,0-.02-.02-.04-.05-.05-.05-.03-.14-.03-.24,0-.14.04-.24.14-.26.26-.03.12.02.24.12.33.03.03.06.06.08.07,0-.01.02-.03.03-.04.15-.24.54-.33.78-.19l.22.13-.3.14c-.22.1-.22.22-.19.31.02.05.05.12.08.15.08-.11.26-.27.36-.27,0,0,.02,0,.02,0,.06.02.1.09.11.15.03.16.04.17.17.24s.18.08.55.07c.23,0,.57-.03.77-.06.2-.04.56-.07.8-.07.4,0,.46,0,.69.11.38.16.62.45.67.8.05.34-.1.67-.4.92l-.14.11.11.14c.09.11.21.32.27.46.1.23.11.31.11.71,0,.5-.03.65-.31,1.39-.26.7-.29,1.12-.13,1.49.07.16.19.26.29.26.14,0,.18.08.19.12.04.13-.08.33-.31.49-.23.16-.27.24-.26.4,0,.13.06.25.23.5.04.06.09.17.06.25-.01.03-.04.07-.11.08-.12.03-.37-.02-.49-.12,0,0,0,0-.01-.01-.04.06-.1.11-.18.13-.12.03-.26,0-.37-.08l-.06-.05-.06.05c-.1.08-.21.12-.31.1-.08-.01-.15-.05-.19-.11l-.02-.02-.07.05c-.13.08-.23.13-.31.07-.01,0-.02-.02-.03-.03-.03.03-.09.05-.17.05ZM25.64,13.47l.2.13c.12.08.23.1.29.05.06-.05.1-.2,0-.46-.09-.28-.04-.45.25-.79.1-.11.16-.21.19-.26-.03,0-.07,0-.09,0h-.03c-.14,0-.2-.02-.3-.12-.09-.09-.2-.29.02-.57l.06-.07-.13-.08c-.11-.07-.32-.25-.45-.39-.28-.29-.56-.43-.93-.47h-.17s0,.09,0,.09c0,.22.12.45.42.83.38.47.41.56.42,1.17v.54s-.12.12-.12.12c-.12.11-.18.12-.5.14-.29.02-.33.03-.4.09-.1.09-.12.13-.16.24.04-.01.09-.03.14-.06l.19-.12.14.13c.09.09.19.08.28,0,.11-.11.14-.11.17-.1h.04s.07.12.07.12c0,.01.02.04.14.05.11,0,.12,0,.15-.04l.11-.15ZM19.17,13.5l.1.13c.04.06.2.06.3-.02l.15-.11.13.11c.09.07.26.07.36,0,.11-.08.16-.1.27-.02.02.01.11.05.2.06.12.02.13.02.2-.09.08-.11.08-.14.07-.24-.02-.1-.03-.2-.03-.29-.01-.2.04-.22.26-.29.12-.04.25-.09.29-.11.05-.03.17-.16.24-.25-.03,0-.06,0-.09-.01-.23-.03-.38-.1-.44-.23-.07-.15-.02-.34.15-.6.46-.68.73-1.34.73-1.76,0-.21,0-.28.08-.3l.06-.02.04.06c.13.22-.08.98-.36,1.49l-.03.05c.12-.05.39-.16.7-.29,1.02-.45,1.38-.53,2.04-.51.57.02.82.14,1.22.55.2.2.39.35.75.57.76.47.83.53.88,1.12.04.58.01.66-.48.77-.33.07-.54.21-.6.41.02-.01.05-.03.1-.06l.2-.12.1.15s.05.04.08.05c.06,0,.13-.02.19-.06l.15-.12.16.12c.07.06.16.08.24.06.03,0,.08-.03.1-.09.02-.05.05-.06.07-.07.07-.02.12.03.17.07.08.07.28.1.35.09,0-.02-.02-.05-.04-.09-.2-.29-.26-.42-.26-.59,0-.23.07-.35.33-.54.21-.15.26-.29.25-.31,0,0-.01,0-.04,0-.17,0-.33-.13-.43-.36-.19-.41-.15-.86.12-1.61.27-.73.3-.85.3-1.34,0-.39,0-.45-.1-.65-.05-.13-.17-.32-.25-.42l-.2-.26.26-.21c.26-.21.38-.49.35-.77-.04-.29-.25-.54-.57-.67-.19-.08-.24-.09-.52-.09-.03,0-.07,0-.11,0-.23,0-.58.03-.77.06-.23.04-.64.07-.87.07-.32,0-.4-.01-.55-.09-.17-.09-.21-.15-.25-.35,0,0,0,0,0,0-.07.04-.21.17-.23.22,0,.02-.03.07-.08.08-.06.01-.1-.04-.13-.07-.04-.05-.09-.15-.12-.23-.05-.15-.04-.36.27-.51h.03c-.17-.09-.43-.01-.53.14-.1.16-.13.15-.16.14-.02,0-.06-.01-.19-.14-.14-.14-.2-.31-.16-.48.04-.17.18-.31.37-.38.14-.04.27-.04.36.01.05.03.09.07.11.12.03-.05.05-.13.04-.22-.01-.09-.02-.15.02-.2.04-.04.09-.04.15-.04.17,0,.5.2.61.36.12.19.12.49-.02.71.14-.04.27-.13.34-.23.08-.12.09-.36.02-.48-.05-.08-.09-.16-.04-.22.05-.06.13-.03.19,0,.22.09.35.19.44.37.08.16.09.21.04.38-.02.08-.06.17-.1.24.08-.03.17-.08.2-.11.03-.03.08-.11.1-.18l.11-.3.14.25c.08.13.23.26.41.33,0,0,.01,0,.02,0-.06-.13-.11-.3-.12-.38,0-.02,0-.07.03-.1.05-.04.1-.09.76.49.3.26.48.35.75.35.16,0,.29-.07.36-.18.06-.1.05-.21,0-.32-.04-.06-.09-.1-.15-.11,0,0-.01,0-.02,0-.05,0-.11.03-.14.07-.05.06-.05.08-.04.12.01.05.03.11-.01.15-.04.05-.09.05-.13.05-.11,0-.28-.08-.75-.46-.57-.46-1.26-.85-1.75-1-.31-.09-.99-.12-1.31-.07-.34.06-.75.25-.97.46-.37.35-.38.81-.01,1.23l.15.18-.11.17c-.09.14-.09.33.02.48,0,0,.01.02.02.03.02-.15.1-.26.23-.31s.21-.02.68.16c.47.18,1.25.19,2.07.03.43-.08.93-.08,1.16.01.21.09.35.25.4.44.04.2-.02.41-.18.58-.14.15-.27.21-.69.33-.32.08-.4.09-1.1.08-.59,0-.81,0-1.04.05-.27.06-.43.06-1.22.04l-.66-.02s.06.04.07.05c.04.02.09.05.09.11l.07.05h-.1s-.06.05-.1.06c-.07.03-.22.04-.32.04h-.12v.09c-.03.08-.02.16-.02.17.01.03.04.09,0,.13-.04.04-.11.02-.14.01-.03-.01-.13-.04-.23-.06-.09-.02-.23-.06-.3-.09,0,0-.03-.01-.04-.02h0c-.04.07-.37.33-.46.33-.08,0-.09-.1-.1-.17,0-.04-.04-.16-.09-.29-.03-.06-.05-.12-.07-.17,0,0,0,.02,0,.03-.02.08-.07.2-.12.28l-.16.24-.11-.23c-.03-.05-.06-.1-.08-.14-.05.11-.26.38-.36.38-.07,0-.1-.06-.11-.19-.07.09-.18.19-.25.19,0,0-.03.01-.04.03-.09.11-.16.08-.19.06-.02-.01-.08-.05-.04-.16,0-.02,0-.09-.02-.15l-.04-.13s-.06.01-.13.03c-.21.07-.3.07-.33,0-.04-.08.04-.14.07-.17.02-.02.08-.1.12-.21.01-.04.03-.09.06-.14-.06.04-.12.08-.19.12-.67.39-1.06.94-1.17,1.62-.1.61.21,1.25.83,1.71.21.15.48.29.62.35-.1-.42-.1-1.09.06-1.23l.04-.04.06.03s.06.07.01.26c-.1.41-.06.73.21,1.51.22.64.27,1.07-.17,1.32-.13.08-.23.08-.53.08-.33,0-.34,0-.42.07-.07.06-.18.25-.2.36.02,0,.05-.02.1-.05l.19-.11ZM26.52,11.99c.08,0,.13,0,.17.04.04.04.04.09.04.11,0,.1-.19.32-.23.37-.27.31-.29.42-.22.63.03.09.05.18.06.26.12-.14.33-.24.6-.3q.39-.08.35-.6c-.03-.51-.04-.53-.8-1-.03-.02-.07-.04-.1-.06l-.1.12c-.15.18-.09.29-.03.36.06.06.08.08.21.07h.05ZM16.14,12.03c.18.03.21.08.21.13,0,.08.05.2.07.2h0s.01,0,.02,0c.03-.03.05-.09.05-.15h0c0-.14.12-.16.23-.18-.09-.08-.13-.15-.1-.22.01-.03.05-.09.15-.09.1,0,.26-.11.28-.16,0-.02,0-.04,0-.05-.02-.02-.05-.03-.07-.02-.02.04-.04.11-.12.13-.07.02-.13-.03-.19-.08-.18-.16-.18-.49-.01-.68,0,0,.01-.01.02-.02,0,0-.02-.02-.03-.03-.08-.08-.15-.22-.15-.31,0-.05.02-.08.04-.1.04-.04.12-.03.24,0,.09.03.1.02.12.01.02-.01.02-.02.02-.02,0-.01-.07-.05-.18-.04-.05,0-.18.03-.22-.1,0,0-.04-.02-.11-.04-.02,0-.04,0-.05-.01h0c0,.1-.04.14-.08.16-.09.05-.19-.01-.23-.03-.03-.02-.05-.02-.06-.01-.01,0-.01.02-.01.03,0,.01,0,.02,0,.02,0,0,.05.04.18.03h.02c.1,0,.14.05.16.08.02.05.03.14-.1.28l-.05.06.04.05c.13.19.12.48-.03.64l-.16.17-.12-.15s-.06-.05-.07-.05c0,0-.02.01-.02.04-.01.04-.01.04.07.11.06.05.14.08.17.08.12,0,.16.07.17.1.02.06-.01.14-.09.21ZM17.57,10.8s.08,0,.41.32c.18.17.33.28.37.29l.12.02s.05-.02.13-.05c.11-.05.34-.23.41-.31-.03-.03-.08-.09-.16-.16-.24-.21-.49-.56-.56-.77-.03-.1-.26-.33-.63-.68l-.43-.41s-.02.07-.04.1c0,0,0,0,.01.01.05.06.03.19-.02.28,0,0,0,0,0,0,.05.06.06.19.02.26,0,.01,0,.03,0,.04.03.05.03.12.01.19-.01.05-.04.09-.06.12,0,0,.01,0,.02.02.14.1.14.15.14.5,0,.18,0,.27.02.32.05-.07.15-.11.23-.11ZM16.23,9.9h0s0,.05.11.1c.15.06.3.06.35.04-.03-.04-.15-.11-.36-.13-.04,0-.08,0-.11,0ZM16.22,9.6s-.04,0-.04,0c-.01.01-.02.02-.02.03,0,.01.04.05.13.06.08,0,.19.03.25.05.1.04.18.02.19,0h.05s0,0,0,0h-.05s-.01-.03-.08-.05c-.17-.08-.34-.11-.42-.11ZM16.06,9.27s0,.02.03.05c.01.03.04.05.16.07.09.01.23.04.3.06.14.04.18.02.18.02h0s-.24-.11-.39-.16c-.21-.07-.27-.04-.27-.04h0ZM16.21,9.03s-.05,0-.05,0c.01,0,.05.03.23.09.23.07.31.08.33.07h0s0,0,0,0c0,0-.03-.07-.36-.14-.07-.01-.12-.02-.15-.02ZM16.81,9l.02.02.06-.03s-.05.01-.08.01ZM15.95,8.19s-.06,0-.09.01c-.11.03-.19.1-.2.19-.01.12.08.24.23.31.27.13.88.14,1.16.02h0c.16-.07.26-.2.25-.32,0-.1-.07-.17-.19-.21-.13-.04-.18,0-.2.04-.01.03-.01.07,0,.09.05.01.09.07.09.13,0,.04-.02.09-.09.13-.16.1-.61.13-.82.03-.09-.04-.14-.14-.12-.21.01-.04.05-.08.09-.08,0-.02.01-.05,0-.08-.02-.05-.06-.06-.11-.06ZM16.22,8.46c.11.03.41.02.53-.02-.03-.04-.05-.08-.06-.12,0-.07.02-.15.08-.22.05-.06.06-.27.08-1.31.04-1.88.17-3.3.35-3.81-.25.17-.43.38-.6.7-.33.61-.45,1.45-.45,3.22,0,.97,0,1.13.05,1.21.07.11.07.17.03.29,0,.02-.02.04-.02.06ZM20.14,7.65v.2s.02.13.04.22l.02.08.04-.02c.1-.04.2-.21.2-.34,0-.11.08-.13.09-.13.05-.01.11.02.13.13,0,.02.03.09.06.19v.02s.09-.14.11-.2c.03-.08.08-.22.18-.19.02,0,.08.02.08.12,0,.03.07.12.12.18,0-.03.02-.06.03-.11.02-.1.09-.33.21-.38.03-.01.07-.01.1,0,.03.02.05.05.06.08,0,.02,0,.04,0,.06,0,.03.04.13.09.26l.13.3s.06-.05.08-.06c.08-.07.14-.14.15-.16.01-.03.03-.06.07-.07.05-.02.11.01.16.04.08.05.31.12.42.14,0-.03,0-.08,0-.14v-.29s.21.04.21.04c.04,0,.14.01.22,0-.07-.05-.16-.12-.19-.17,0,0-.05-.03-.12-.03-.22-.02-.71-.24-.71-.42v-.05l.05-.03s.09,0,.21.09c.13.12.31.19.47.2-.05-.08-.1-.2-.11-.31-.01-.13-.01-.14-.17-.24-.11-.07-.24-.18-.29-.24h0s0,0,0,0c-.06.16-.11.17-.15.17-.02,0-.06,0-.17-.11-.02-.02-.03-.03-.04-.04-.01.02-.03.04-.04.08l-.13.26-.13-.19s-.1-.12-.16-.17c-.09-.08-.12-.13-.1-.18l.02-.05h.06c.06,0,.15.08.22.14l.05.05h0s.03-.1.02-.15c-.02-.08-.03-.14.04-.17.07-.02.1.03.13.07.02.03.08.1.15.15l.05.04.04-.07c.06-.11.09-.16.15-.16h0l-.07-.19s-.08-.1-.16-.15c-.16-.1-.17-.15-.17-.17v-.04s.02-.03.02-.03c.03-.03.08-.07.3.1.03.03.06.04.08.06,0-.08-.02-.24-.05-.38-.01-.05-.03-.12.03-.15.06-.03.1,0,.19.09.09.09.14.2.18.38.04.19.05.21.24.37.04.04.08.07.11.09,0-.1.01-.25.02-.45.02-.62,0-.72-.13-.88l-.12-.15.17-.18c.12-.13.18-.23.22-.35-.1.09-.17.11-.3.11-.15,0-.22-.03-.32-.13-.09-.09-.26-.19-.42-.24-.02.08-.08.19-.08.19l-.13.23-.24-.23c-.09-.09-.2-.16-.28-.18-.04,0-.11-.03-.14-.03,0,.02,0,.05,0,.07,0,.06,0,.24-.12.29-.08.04-.19,0-.32-.1-.13-.11-.22-.14-.51-.11h-.12s0,.01,0,.01c.05.12.02.19-.06.29-.13.17-.31.25-.56.25-.1,0-.22.02-.27.04-.07.03-.23.07-.34.08-.12.01-.23.03-.25.04-.02,0-.08.03-.12-.01-.05-.04-.04-.11-.03-.19,0-.06,0-.12-.04-.16-.04-.05-.11-.08-.2-.08-.09,0-.16.03-.2.09-.06.08-.06.21-.01.35.02.07.04.14.06.22,0,.03.09.15.26.32.13.13.28.29.31.34.01.02.06.07.12.1,0-.06,0-.15.06-.18.08-.04.14.05.17.08.02.02.08.07.13.11,0-.04.02-.08.03-.11l.11-.25.15.28c.04.07.16.23.28.36.17.19.44.58.29.72-.06.05-.16.05-.34.01-.13-.03-.27-.03-.32-.03-.07,0-.15.02-.19-.04h-.02s.01-.02.01-.02c-.02-.06.02-.11.06-.16h-.03c-.2,0-.7-.09-.89-.17-.1-.04-.12-.04-.13-.03,0,0-.02.01-.04.1l-.11.35h.08c.1-.02.24-.04.29-.05.13-.04.17-.03.2,0,.05.04.03.1-.04.22.06-.02.12-.04.16-.06.15-.07.2-.03.28.11.02.02.03.04.04.05,0,0,0-.02,0-.03,0-.05.02-.16.11-.17,0,0,.01,0,.02,0,.08,0,.13.08.2.23.03.07.06.12.08.14.03-.07.09-.13.14-.16.08-.06.16-.08.23-.05.07.02.12.07.15.16.05.12,0,.22-.1.32h0s.06.02.07.04c.04.06,0,.12-.04.16-.03.04-.05.08-.05.09,0,.04-.02.09-.04.14,0,0,.01,0,.02,0l.29-.14ZM19.93,7.95s0,0,0,0h0ZM21.47,7.51s0,0,0,0c0,0,0,0,0,0ZM22.33,6.13s.04.05.05.09c.03.07.28.29.56.46,0-.03-.02-.06-.04-.09-.03-.06-.05-.17-.05-.25,0-.06,0-.08-.12-.17-.15-.11-.23-.21-.27-.35,0,.04-.01.07-.03.09l-.1.22ZM19.9,6.53l.03.02-.03-.02ZM19.47,6.45h.02c.1,0,.23.02.3.03.03,0,.06.01.08.02,0-.03-.02-.06-.04-.1-.06-.12-.06-.12-.12-.12-.07,0-.14,0-.23-.02,0,0,.02.02.02.03.03.05,0,.1-.04.16ZM18.06,5.81h0s.09.15.28.23c.19.08.72.19.97.19-.27-.06-.58-.16-.9-.3-.07-.03-.29-.13-.35-.13Z"/>
          </g>
          <g>
            <path class="cls-3" d="M21.71,7.47c0-.05-.16-.19-.31-.28-.12-.07-.14-.07-.15-.02,0,.09-.08.31-.11.31-.02,0-.04-.04-.06-.1s-.07-.16-.13-.23l-.11-.14-.08.13c-.08.12-.21.23-.27.23-.01,0-.02-.06,0-.14.01-.08,0-.15-.02-.16-.02-.01-.04,0-.04.01,0,.04-.19.25-.23.25-.02,0-.04-.06-.05-.13l-.04-.26c-.01-.07.01-.02.06.1l.08.23.09-.14c.05-.08.09-.16.09-.18s.02-.04.04-.03.05.1.06.2l.03.18.1-.11c.05-.06.12-.14.14-.17.04-.07.04-.07.13,0,.05.04.12.13.16.21.04.07.08.13.09.12s.02-.08.03-.17l.02-.17s.3.16.41.26c.07.06.14.1.15.09s.02-.1.02-.2c0-.15-.02-.19-.11-.28-.11-.1-.11-.1-.15-.03-.05.09-.12.09-.12,0,0-.07-.21-.32-.26-.32-.01,0-.06.06-.1.12s-.08.12-.09.12c-.05,0-.35-.32-.35-.38,0-.05.02-.03.07.04.04.06.12.15.17.19.11.1.16.07.2-.11.01-.05.03-.1.05-.1.05,0,.31.27.34.35l.04.09.03-.1c.03-.12.07-.12.12-.01.02.05.13.14.25.21l.2.13.04-.13c.02-.07.05-.11.07-.09.02.03-.03.24-.07.29,0,0-.07-.03-.15-.08l-.14-.1v.17c0,.09-.01.21-.02.25-.02.09-.09.11-.09.03h0ZM20.69,6.1c-.24-.2-.28-.24-.28-.34v-.1s.02.1.02.1c0,.06.07.14.16.2l.14.11.09-.1c.05-.05.09-.12.09-.14,0-.06.01-.06.18.08.15.12.15.12.17.04.01-.04,0-.13,0-.19-.05-.16-.04-.18.03-.09.04.05.09.12.13.15.06.06.06.06.09-.02.01-.04.02-.13.02-.18v-.1s.13.15.13.15c.12.14.13.14.17.08.02-.04.04-.13.04-.2,0-.1.01-.12.04-.08.04.06.01.23-.06.37l-.06.1-.07-.11c-.09-.14-.12-.14-.18.01-.06.14-.09.15-.15.04-.04-.07-.04-.06-.07.09l-.03.17-.17-.13-.17-.13-.08.08s-.08.1-.08.13c0,.05-.04.05-.1,0h0ZM22.85,5.36c-.09-.08-.15-.15-.14-.17s.03-.02.04,0,.08.08.16.17c.19.19.15.2-.06,0h0ZM19.97,5.07c-.08-.11-.08-.18.02-.29.07-.08.1-.09.23-.08.08,0,.25.08.38.15.15.09.3.14.42.16.1.01.19.02.19.01s-.04-.08-.1-.15c-.13-.18-.12-.2.02-.09.14.11.32.15.71.13h.19s-.11-.11-.11-.11c-.15-.15-.11-.16.06-.02.16.13.15.14-.19.18-.14.01-.29,0-.42-.03-.19-.05-.2-.05-.16.02.02.04.05.07.07.07s.04.02.04.04c0,.07-.41,0-.61-.09-.45-.22-.5-.24-.61-.21-.06.02-.12.07-.14.13-.07.18.19.32.3.16.03-.05.02-.08-.03-.13-.07-.08-.07-.09.03-.05.07.03.08.19.01.25-.08.07-.25.05-.32-.04h0ZM21.73,4.63c-.06-.05-.01-.06.24-.07.31,0,.5-.06.72-.19.18-.11.23-.09.06.03-.15.1-.4.18-.63.21-.11.01-.24.03-.29.04s-.09,0-.11,0h0Z"/>
            <path class="cls-3" d="M21.73,7.6s0,0-.01,0c-.04,0-.09-.04-.09-.11-.02-.04-.13-.14-.28-.22-.01,0-.03-.01-.04-.02-.02.12-.08.33-.18.33-.08,0-.12-.1-.13-.15-.01-.04-.06-.13-.12-.2l-.04-.05-.02.04c-.06.1-.2.23-.3.26l-.04.04v-.04h-.04l-.03-.03s-.04-.04-.02-.17c-.04.05-.1.11-.14.14l-.04.06v-.04s-.02,0-.03,0c-.02,0-.1,0-.13-.2l-.04-.26c-.01-.08.02-.11.06-.12.08-.03.11.05.16.18l.03.08h0c.05-.08.08-.14.08-.16,0-.03.02-.07.05-.09.03-.02.07-.02.1,0,.06.04.09.18.1.26v.02c.06-.06.11-.12.12-.15.02-.04.05-.08.1-.08,0,0,0,0,0,0l.02-.02.02.03s.06.04.1.07c.05.04.11.12.16.19l.03-.2.05-.02c.05,0,.17.05.27.12l-.02-.05s-.02,0-.03,0c-.02,0-.09-.03-.09-.14,0-.04-.11-.17-.17-.22-.01.02-.03.04-.04.06-.09.16-.14.16-.16.16-.11,0-.43-.37-.43-.46,0-.07.04-.09.06-.1.07-.02.11.04.15.1.04.05.11.13.16.18.02.02.03.03.04.03,0-.01.02-.04.03-.1.01-.07.05-.16.12-.16.08,0,.27.19.36.32.02-.03.05-.06.09-.07,0,0,0,0,0,0,.08,0,.12.09.14.12.01.02.1.1.22.18l.12.08v-.03c.04-.09.08-.14.13-.15h.05s.04.04.04.04c.05.08-.03.33-.08.38-.05.05-.11.03-.25-.07h-.01s0,.01,0,.01c0,.09-.01.22-.03.27-.02.08-.08.14-.14.14ZM21.71,7.47h.08s0,0,0,0h-.08ZM21.49,7.11c.09.07.17.13.17.13.01.01.02.02.04.03,0-.02,0-.05,0-.08,0-.14-.01-.15-.08-.22-.01-.01-.03-.02-.04-.04-.02.03-.04.05-.05.06l-.03.11ZM21.33,6.28l-.38-.29-.03.03s-.05.07-.06.09c0,.06-.05.09-.06.1-.05.02-.1,0-.17-.04h0c-.23-.19-.31-.26-.3-.4v-.1s.16,0,.16,0l.02.1s.05.1.12.15l.08.06.04-.04s.06-.09.07-.1c0-.01,0-.07.06-.1.06-.03.11,0,.25.13.02.01.03.03.05.04,0-.03,0-.07-.01-.1-.03-.11-.06-.2.02-.24.07-.04.12.03.16.08.02.03.06.08.09.11,0-.04,0-.08,0-.11v-.3s.27.29.27.29c.01.02.04.04.06.06.01-.04.02-.09.02-.14,0-.07,0-.15.07-.17.02,0,.07-.01.11.05.07.1.02.3-.06.45l-.12.22-.15-.22s-.02-.03-.03-.04c0,0,0,.02-.02.04-.03.08-.07.17-.15.17h0s-.04,0-.06-.02l-.04.26ZM23.04,5.58c-.05,0-.12-.06-.24-.16-.16-.14-.16-.2-.17-.22v-.04l.03-.03s.06-.05.09-.03h.04s.03.04.03.04c.01.02.08.08.15.16.12.12.19.19.12.25-.02.02-.04.03-.06.03ZM20.15,5.23s-.02,0-.03,0c-.09,0-.17-.05-.22-.11h0c-.1-.14-.1-.25.02-.39.09-.1.15-.13.3-.11.1.01.29.09.41.16.14.08.29.13.39.15.01,0,.02,0,.03,0,0,0,0-.02-.02-.02-.09-.13-.14-.2-.08-.26.06-.06.13,0,.21.06.13.1.29.13.66.12h0s-.07-.07-.08-.11c-.03,0-.05-.01-.07-.03h0s-.06-.08-.04-.12c.03-.08.12-.08.33-.08.3,0,.47-.05.68-.18.11-.07.22-.13.27-.04.05.08-.05.15-.13.2-.16.11-.42.2-.67.22-.04,0-.08,0-.13.01,0,0,.02.02.03.02.08.07.15.12.12.2l.06.06h-.11c-.05.03-.15.04-.3.06-.13.01-.28,0-.41-.02,0,.01,0,.02,0,.04v.04l-.05.04c-.11.07-.5-.01-.67-.1-.13-.06-.22-.11-.29-.14,0,0,0,.02,0,.03.02.08,0,.18-.06.25-.04.04-.11.06-.18.06ZM20.1,4.84s-.05.04-.06.07c-.03.07.04.1.05.11.01,0,.07.03.11-.02,0,0,0,0-.02-.03-.03-.04-.07-.08-.07-.12Z"/>
          </g>
        </g>
        <g id="A-2" data-name="A">
          <path class="cls-5" d="M19.02,13.68l.13-.07.06.07c.07.1.28.1.41,0l.1-.08.09.08c.11.1.33.1.46,0,.09-.07.11-.07.17-.02.04.03.15.07.24.08.17.02.18.02.28-.13.09-.12.1-.18.08-.3-.02-.1-.03-.19-.03-.29,0-.14,0-.14.2-.21.12-.04.25-.09.3-.12.08-.04.31-.31.31-.36,0-.01-.09-.04-.2-.05-.44-.05-.51-.28-.23-.7.47-.7.75-1.37.75-1.81,0-.19.01-.26.04-.22.1.17-.08.89-.36,1.41l-.11.21.11-.02c.06-.01.41-.16.78-.32,1.01-.45,1.36-.53,2.01-.51.55.02.78.13,1.17.52.2.21.4.36.76.58.77.47.8.51.84,1.06.04.56.02.59-.41.68-.37.08-.6.25-.67.48-.03.13.04.13.22.01l.14-.09.06.09c.08.11.25.11.39,0l.11-.08.11.08c.17.13.39.1.46-.06.01-.03.04-.02.11.03.12.1.44.15.48.07.01-.03-.01-.11-.06-.17-.18-.27-.24-.4-.24-.55,0-.2.06-.3.3-.47.29-.2.38-.46.16-.46-.14,0-.27-.12-.36-.31-.18-.39-.14-.82.12-1.55.27-.74.3-.87.3-1.36,0-.4,0-.47-.1-.69-.06-.13-.17-.33-.26-.44l-.15-.2.2-.16c.6-.48.48-1.28-.24-1.58-.22-.09-.28-.1-.66-.1-.23,0-.59.03-.79.07-.2.04-.55.06-.79.07-.38,0-.44,0-.59-.08-.15-.08-.18-.12-.21-.3,0-.04-.03-.07-.06-.08-.05-.02-.29.19-.32.27-.02.04-.03.04-.08-.02-.03-.04-.08-.13-.1-.2-.06-.18.01-.31.23-.41l.17-.08-.1-.06c-.2-.12-.54-.04-.67.16-.04.06-.07.1-.08.1s-.08-.05-.15-.12c-.26-.25-.17-.61.18-.73.19-.06.35-.01.38.11.05.18.21-.06.19-.28-.02-.15-.02-.15.09-.15.14,0,.45.18.54.33.11.17.1.43-.02.62l-.09.15.12-.02c.18-.04.36-.15.45-.28.09-.14.1-.42.02-.56-.08-.14-.07-.17.05-.12.2.08.31.17.39.33.07.14.08.18.04.32-.02.09-.08.21-.12.26-.07.09-.07.1-.02.1.1,0,.3-.09.37-.17.04-.04.09-.13.12-.21l.05-.14.06.11c.08.15.25.28.45.37.22.09.31.1.19.01-.08-.06-.22-.46-.17-.5.02-.02.32.2.65.49.32.28.52.37.81.37.37,0,.59-.32.42-.61-.1-.17-.31-.2-.44-.05-.06.07-.07.12-.06.19.02.09.01.1-.07.1-.11,0-.32-.13-.7-.44-.58-.47-1.28-.87-1.78-1.01-.32-.09-1.02-.13-1.35-.07-.36.06-.78.26-1.01.48-.41.38-.41.88-.02,1.34l.11.13-.08.12c-.11.17-.1.4.02.57.06.07.11.13.12.13s.03-.05.03-.11c.01-.15.08-.25.19-.28.1-.04.16-.02.62.16.48.19,1.27.2,2.12.03.41-.08.9-.08,1.11.01.39.16.48.58.2.9-.13.14-.25.19-.65.3-.31.08-.38.09-1.08.08-.6,0-.81,0-1.06.06-.27.05-.43.06-1.21.04l-.9-.02.1.08c.05.04.13.1.17.12.07.04.07.04-.04.08-.06.02-.19.04-.29.04h-.18l-.02.15c-.01.08-.01.18,0,.22.02.05.01.06-.04.04-.04-.01-.15-.04-.24-.06s-.22-.06-.28-.09c-.1-.05-.11-.05-.15.02-.03.06-.35.28-.39.28,0,0-.02-.04-.02-.1s-.05-.19-.1-.31-.1-.24-.12-.28c-.02-.06-.03-.06-.06-.02-.02.03-.04.11-.05.18s-.06.18-.1.25l-.08.12-.05-.1c-.06-.11-.15-.23-.18-.23-.01,0-.03.04-.04.08-.03.09-.24.35-.3.35-.02,0-.04-.07-.04-.16s-.02-.16-.04-.16-.04.02-.04.05c0,.07-.19.27-.25.27-.03,0-.07.02-.1.05-.07.08-.12.07-.1-.02.01-.04,0-.13-.02-.2l-.06-.17s-.08-.02-.22.02c-.23.07-.3.06-.19-.03.04-.03.11-.15.14-.25s.09-.2.12-.21c.04-.01.04,0,0,.07-.03.05-.06.11-.06.14s-.03.1-.06.16-.05.11-.04.12.09-.03.19-.07l.18-.08v.07s.02.15.05.24l.05.17.12-.05c.12-.06.24-.25.24-.41,0-.08.04-.06.06.02,0,.02.03.11.06.2l.05.16.08-.1c.05-.05.1-.16.13-.23.04-.13.11-.19.11-.09,0,.07.19.31.23.29.02-.01.05-.1.08-.2.05-.21.14-.36.19-.33.02.01.03.03.02.05s.03.15.1.31l.14.34c.02.06.04.05.18-.07.09-.07.16-.16.17-.18.01-.04.03-.04.11,0,.11.07.49.18.52.15.01-.01.02-.11.02-.22v-.2s.11.02.11.02c.06.01.19.01.28,0l.17-.02-.15-.1c-.08-.06-.17-.13-.19-.16-.02-.03-.1-.06-.18-.07-.23-.02-.63-.24-.63-.35,0-.02.06.01.12.08.15.14.36.22.55.22h.14l-.09-.11c-.05-.06-.09-.18-.1-.28-.02-.16-.03-.18-.2-.3-.1-.07-.23-.17-.28-.23l-.1-.1-.05.12c-.03.07-.06.12-.07.12s-.06-.04-.11-.09-.1-.09-.11-.09-.06.07-.1.15l-.08.15-.06-.08s-.11-.13-.17-.18-.09-.1-.07-.1.1.06.17.12l.13.12.05-.09c.03-.05.04-.14.03-.2-.02-.1-.02-.1.02-.04.02.04.1.11.16.17l.12.1.08-.15c.08-.15.08-.15.12-.06.05.12.41.41.72.58.05.03.03-.06-.06-.27-.02-.05-.04-.15-.04-.22,0-.1-.03-.14-.16-.24-.19-.14-.25-.24-.28-.46-.01-.09-.05-.19-.07-.22-.04-.05-.04-.02-.03.15,0,.11,0,.25-.03.31l-.05.11-.04-.09s-.11-.13-.19-.19-.15-.11-.13-.12.1.04.2.11c.15.11.18.12.2.07.02-.06,0-.3-.05-.48-.02-.09-.02-.09.09.02.08.08.13.17.16.34.04.21.07.24.26.41.12.1.22.18.23.17s.02-.27.03-.58c.02-.6,0-.74-.15-.93l-.08-.1.12-.13c.16-.16.23-.3.26-.48l.03-.15-.14.13c-.11.1-.16.13-.29.13s-.18-.02-.26-.11c-.1-.11-.28-.21-.46-.26-.06-.02-.09-.01-.09.03,0,.03-.04.12-.08.2l-.08.14-.17-.16c-.1-.1-.22-.18-.31-.2-.23-.06-.24-.05-.24.11,0,.25-.11.3-.31.13-.15-.13-.28-.16-.57-.13l-.22.02.04.1c.03.08.03.12-.05.21-.12.15-.27.22-.5.22-.11,0-.24.02-.3.05s-.2.06-.31.07-.24.03-.27.04c-.05.02-.06,0-.04-.12.03-.19-.11-.32-.31-.32-.27,0-.39.24-.29.55.02.07.04.14.06.21.01.06.13.21.28.36.14.14.28.29.3.32s.1.1.16.14l.12.07-.02-.13c-.02-.14.01-.16.09-.06.03.04.1.09.16.13.09.05.11.06.11,0,0-.03.02-.1.04-.15l.04-.1.07.14c.04.07.17.24.29.38.23.26.37.54.29.61-.03.03-.11.02-.27,0-.13-.02-.28-.04-.35-.03-.13.02-.14,0-.06-.1.09-.1.07-.12-.1-.12-.19,0-.68-.09-.86-.16-.18-.07-.22-.05-.27.11l-.1.3-.05.17.2-.02c.11-.01.25-.03.31-.05s.12-.03.12-.02-.02.07-.06.14l-.07.13.12-.02c.07-.01.17-.05.22-.07.1-.05.11-.04.18.08.09.15.17.14.19-.02.02-.16.07-.14.18.08.1.21.2.28.22.16,0-.04.06-.11.12-.15.12-.08.21-.06.26.07.05.13-.07.27-.41.47-.69.41-1.09.97-1.21,1.68-.1.64.22,1.3.87,1.78.31.23.8.47.77.38-.13-.39-.13-1.13,0-1.26.02-.02.01.06-.02.17-.11.42-.06.76.22,1.55.25.72.22,1.02-.14,1.22-.11.06-.19.08-.49.07-.33,0-.37,0-.47.09-.1.08-.24.34-.24.47,0,.07.08.06.22-.03h0ZM24.4,13.66l.14-.09.09.09c.12.11.27.11.39,0,.05-.05.1-.09.1-.08.02.03.03.06.05.09.03.05.09.07.2.08.13,0,.17,0,.22-.08l.06-.09.14.09c.37.24.57-.01.41-.5-.09-.25-.04-.39.24-.71.12-.13.21-.28.21-.32,0-.07-.02-.07-.18-.07-.15,0-.19-.01-.27-.1-.13-.14-.12-.29.02-.46l.11-.14-.2-.13c-.11-.07-.31-.25-.44-.38-.3-.31-.59-.46-.98-.49l-.26-.02v.19c0,.25.12.48.44.88.37.46.39.53.41,1.12v.5s-.09.1-.09.1c-.1.09-.14.1-.45.12-.29.02-.36.03-.44.11-.11.1-.15.15-.18.29-.02.08-.01.1.05.1.04,0,.13-.04.21-.09h0ZM16.57,12.21c0-.06.03-.08.17-.1l.17-.02-.12-.09c-.14-.11-.15-.19-.03-.19.12,0,.32-.12.35-.21.01-.04,0-.1-.02-.13-.07-.07-.19-.06-.22.02-.03.09-.07.09-.16,0-.14-.13-.15-.41,0-.57.07-.08.07-.08-.02-.16-.09-.08-.16-.25-.11-.29.01-.01.09,0,.16.02.11.04.15.04.19,0,.13-.1-.01-.23-.22-.2-.08.01-.12,0-.13-.04,0-.03-.08-.08-.17-.1-.15-.04-.15-.04-.15.06,0,.11-.06.13-.19.06-.1-.06-.2-.01-.2.09,0,.1.1.14.28.13.14,0,.14.09.01.23l-.09.1.07.1c.11.15.1.41-.02.54l-.09.1-.06-.08c-.09-.11-.2-.1-.23.01-.02.08,0,.11.1.19.07.06.16.1.22.1.13,0,.12.1-.01.2l-.11.08.16.02c.09.01.16.04.16.06,0,.07.04.27.15.28.1,0,.16-.14.16-.23h0ZM18.63,11.46c.15-.06.47-.32.47-.39,0-.02-.09-.12-.2-.21-.23-.2-.47-.54-.54-.74-.03-.1-.19-.28-.65-.71l-.6-.57-.17.04c-.1.02-.21.04-.26.04-.08,0-.08,0,.03.09l.11.09.16-.09c.15-.08.16-.08.18-.02.01.04-.01.11-.06.16-.04.05-.07.1-.05.12s-.03.06-.09.09c-.11.05-.19.23-.1.23.08,0,.26-.21.24-.29-.01-.04,0-.08.01-.08.07-.04.06.13,0,.21-.04.05-.07.1-.05.12s-.03.06-.09.09c-.11.05-.19.23-.1.23s.26-.2.24-.28c-.01-.04,0-.08,0-.09.05-.03.07.11.03.17-.02.03-.02.08,0,.12.04.07,0,.2-.07.24-.03.02,0,.05.06.11.11.08.11.09.11.44,0,.29.01.37.07.42.06.06.07.06.07,0,0-.06.11-.13.2-.13.03,0,.19.13.36.3.17.16.35.3.41.31l.12.02s.09-.02.17-.05h0ZM16.79,10.05c0-.09-.2-.19-.44-.22-.19-.02-.2-.02-.2.07,0,.08.03.11.16.16.21.09.47.08.47-.02h0ZM17,10.04c.1-.09.14-.19.08-.19-.07,0-.25.16-.25.21,0,.09.03.09.16-.03ZM16.8,9.77c0-.05-.03-.09-.13-.13-.22-.1-.48-.14-.54-.09-.12.09-.04.21.15.23.08,0,.18.03.23.05.14.05.28.03.29-.05h0ZM16.8,9.48c.01-.08-.04-.1-.44-.24-.3-.1-.44-.05-.34.12.03.06.09.09.22.11.09.01.22.04.29.06.17.05.27.03.28-.05h0ZM17,9.21c.06-.06.11-.13.11-.16,0-.09-.24.07-.27.17-.04.13.02.12.16-.01ZM16.8,9.2c.01-.09-.13-.16-.42-.22-.21-.04-.31-.02-.29.08,0,.05.08.09.28.15.32.1.42.1.43,0h0ZM17.08,8.8c.37-.16.4-.57.05-.67-.15-.04-.24-.02-.29.08-.04.07-.01.21.04.21.02,0,.04.02.04.05,0,.14-.57.2-.8.09-.08-.04-.12-.14-.05-.14.05,0,.09-.11.06-.18-.04-.1-.14-.14-.3-.1-.35.09-.34.49.02.66.29.14.93.15,1.23.02h0ZM16.85,8.48s.01-.05-.02-.08c-.08-.06-.07-.15.01-.25.06-.08.07-.19.1-1.36.04-2.01.19-3.52.39-3.88.08-.14.07-.14-.14,0-.27.18-.47.41-.65.74-.34.62-.46,1.47-.46,3.26,0,1.02,0,1.15.07,1.25.06.09.06.12.02.22-.03.06-.04.12-.03.13.08.07.63.05.71-.02h0ZM19.96,6.57s-.01-.1-.06-.19c-.07-.14-.09-.16-.19-.16-.3,0-.78-.13-1.27-.35-.29-.12-.38-.15-.42-.12-.09.08.06.27.28.37.2.09.76.2,1.01.2.15,0,.15,0,.07.13l-.06.09h.17c.09,0,.22.02.28.04.16.04.17.04.19,0h0Z"/>
          <path class="cls-3" d="M21.71,7.47c0-.05-.16-.19-.31-.28-.12-.07-.14-.07-.15-.02,0,.09-.08.31-.11.31-.02,0-.04-.04-.06-.1s-.07-.16-.13-.23l-.11-.14-.08.13c-.08.12-.21.23-.27.23-.01,0-.02-.06,0-.14.01-.08,0-.15-.02-.16-.02-.01-.04,0-.04.01,0,.04-.19.25-.23.25-.02,0-.04-.06-.05-.13l-.04-.26c-.01-.07.01-.02.06.1l.08.23.09-.14c.05-.08.09-.16.09-.18s.02-.04.04-.03.05.1.06.2l.03.18.1-.11c.05-.06.12-.14.14-.17.04-.07.04-.07.13,0,.05.04.12.13.16.21.04.07.08.13.09.12s.02-.08.03-.17l.02-.17s.3.16.41.26c.07.06.14.1.15.09s.02-.1.02-.2c0-.15-.02-.19-.11-.28-.11-.1-.11-.1-.15-.03-.05.09-.12.09-.12,0,0-.07-.21-.32-.26-.32-.01,0-.06.06-.1.12s-.08.12-.09.12c-.05,0-.35-.32-.35-.38,0-.05.02-.03.07.04.04.06.12.15.17.19.11.1.16.07.2-.11.01-.05.03-.1.05-.1.05,0,.31.27.34.35l.04.09.03-.1c.03-.12.07-.12.12-.01.02.05.13.14.25.21l.2.13.04-.13c.02-.07.05-.11.07-.09.02.03-.03.24-.07.29,0,0-.07-.03-.15-.08l-.14-.1v.17c0,.09-.01.21-.02.25-.02.09-.09.11-.09.03h0ZM20.69,6.1c-.24-.2-.28-.24-.28-.34v-.1s.02.1.02.1c0,.06.07.14.16.2l.14.11.09-.1c.05-.05.09-.12.09-.14,0-.06.01-.06.18.08.15.12.15.12.17.04.01-.04,0-.13,0-.19-.05-.16-.04-.18.03-.09.04.05.09.12.13.15.06.06.06.06.09-.02.01-.04.02-.13.02-.18v-.1s.13.15.13.15c.12.14.13.14.17.08.02-.04.04-.13.04-.2,0-.1.01-.12.04-.08.04.06.01.23-.06.37l-.06.1-.07-.11c-.09-.14-.12-.14-.18.01-.06.14-.09.15-.15.04-.04-.07-.04-.06-.07.09l-.03.17-.17-.13-.17-.13-.08.08s-.08.1-.08.13c0,.05-.04.05-.1,0h0ZM22.85,5.36c-.09-.08-.15-.15-.14-.17s.03-.02.04,0,.08.08.16.17c.19.19.15.2-.06,0h0ZM19.97,5.07c-.08-.11-.08-.18.02-.29.07-.08.1-.09.23-.08.08,0,.25.08.38.15.15.09.3.14.42.16.1.01.19.02.19.01s-.04-.08-.1-.15c-.13-.18-.12-.2.02-.09.14.11.32.15.71.13h.19s-.11-.11-.11-.11c-.15-.15-.11-.16.06-.02.16.13.15.14-.19.18-.14.01-.29,0-.42-.03-.19-.05-.2-.05-.16.02.02.04.05.07.07.07s.04.02.04.04c0,.07-.41,0-.61-.09-.45-.22-.5-.24-.61-.21-.06.02-.12.07-.14.13-.07.18.19.32.3.16.03-.05.02-.08-.03-.13-.07-.08-.07-.09.03-.05.07.03.08.19.01.25-.08.07-.25.05-.32-.04h0ZM21.73,4.63c-.06-.05-.01-.06.24-.07.31,0,.5-.06.72-.19.18-.11.23-.09.06.03-.15.1-.4.18-.63.21-.11.01-.24.03-.29.04s-.09,0-.11,0h0Z"/>
        </g>
      </g>
      <g>
        <g>
          <path class="cls-5" d="M30.21,12.74s.19.39.39.55c.31.24.94.22,1.2.49.32.32-.02.75-.02.79l.02.23s-.22,0-.31.02c-.14.02-.19.14-.44.12-.64-.04-.61-.63-.65-1.14-.03-.19-.11-.44-.15-.63-.04-.16-.04-.43-.04-.43h0Z"/>
          <path class="cls-3" d="M31.11,14.97s-.04,0-.05,0c-.61-.04-.64-.57-.67-1.03,0-.04,0-.09,0-.13-.02-.12-.06-.26-.09-.4-.02-.08-.04-.16-.06-.23-.04-.17-.04-.42-.04-.43h.06s.19.37.39.53c.14.11.35.16.56.22.25.06.5.13.65.28.28.28.08.64,0,.77,0,.02-.02.04-.02.04l.02.25h-.03s-.21,0-.3.02c-.04,0-.08.03-.12.05-.07.03-.14.07-.28.07ZM30.25,12.87c0,.09.02.2.04.29.02.07.04.15.06.23.04.14.07.28.09.41,0,.05,0,.09,0,.14.03.46.06.94.61.97.15,0,.23-.03.3-.07.04-.02.08-.04.14-.05.07-.01.22-.02.28-.02v-.2s0-.03.01-.07c.07-.13.25-.45,0-.7-.14-.14-.38-.21-.62-.27-.21-.05-.43-.11-.58-.23-.14-.11-.27-.31-.34-.44Z"/>
        </g>
        <g>
          <path class="cls-5" d="M30.21,4.27s.19-.39.39-.55c.31-.24.94-.22,1.2-.5.32-.33-.02-.75-.02-.79l.02-.23s-.22,0-.31-.02c-.14-.02-.19-.14-.44-.12-.64.04-.61.63-.65,1.14-.03.19-.11.44-.15.64-.04.16-.04.43-.04.43h0ZM14.24,4.27s-.19-.39-.39-.55c-.31-.24-.94-.22-1.2-.5-.32-.33.02-.76.02-.79l-.02-.23s.22,0,.31-.02c.14-.02.19-.14.44-.12.64.04.61.63.65,1.14.03.19.11.44.15.64.04.16.04.43.04.43h0Z"/>
          <path class="cls-3" d="M14.21,4.29s-.19-.39-.39-.54c-.14-.11-.35-.16-.56-.22-.25-.06-.5-.13-.65-.28-.28-.28-.08-.64,0-.77,0-.02.02-.04.02-.04l-.02-.25h.03s.21,0,.3-.02c.05,0,.08-.03.12-.05.07-.04.14-.07.28-.07.02,0,.03,0,.05,0,.61.04.64.57.67,1.03,0,.04,0,.09,0,.13.02.11.05.25.09.38.02.09.04.17.06.25.04.17.04.42.04.43h-.06ZM12.67,2.24v.2s0,.03-.01.07c-.07.13-.25.45,0,.7.14.14.38.21.62.27.21.05.43.11.58.23.14.11.27.31.34.44,0-.09-.02-.2-.04-.29-.02-.08-.04-.16-.06-.25-.03-.13-.07-.27-.09-.39,0-.05,0-.09,0-.14-.03-.46-.06-.94-.61-.98-.16,0-.23.03-.3.07-.04.02-.08.04-.14.05-.07.01-.22.02-.28.02ZM30.24,4.29h-.06s0-.28.04-.45c.02-.07.04-.16.06-.24.03-.13.07-.27.09-.39,0-.04,0-.09,0-.13.03-.46.06-.99.67-1.03.02,0,.04,0,.05,0,.14,0,.21.04.28.07.04.02.08.04.12.05.09.01.3.02.3.02h.03l-.02.26h0s.01.02.02.04c.07.13.27.49,0,.77-.15.15-.4.22-.65.28-.21.05-.42.11-.56.21-.2.15-.38.54-.39.54ZM31.1,2.1s-.03,0-.05,0c-.56.04-.59.51-.61.97,0,.05,0,.09,0,.14-.02.12-.06.26-.09.4-.02.08-.04.17-.06.24-.02.09-.03.2-.04.29.07-.13.2-.33.34-.44.15-.11.37-.17.58-.23.24-.06.48-.12.62-.27.25-.25.07-.57,0-.7-.02-.04-.03-.06-.03-.07v-.2s-.19,0-.26-.02c-.05,0-.1-.03-.14-.05-.06-.03-.13-.07-.25-.07Z"/>
        </g>
      </g>
    </g>
  </g>
</svg>