<?xml version="1.0" encoding="UTF-8"?>
<svg id="Layer_2" data-name="Layer 2" xmlns="http://www.w3.org/2000/svg" viewBox="0 0 34.02 17.01">
  <defs>
    <style>
      .cls-1 {
        fill: #8e183b;
      }

      .cls-2, .cls-3, .cls-4, .cls-5 {
        stroke: #010101;
      }

      .cls-2, .cls-3, .cls-6, .cls-5 {
        fill: #febe2b;
      }

      .cls-2, .cls-4 {
        stroke-width: .16px;
      }

      .cls-3 {
        stroke-width: .06px;
      }

      .cls-4, .cls-7 {
        fill: #010101;
      }

      .cls-8 {
        fill: #ea7624;
      }

      .cls-9 {
        fill: #05544f;
      }

      .cls-5 {
        stroke-width: .06px;
      }
    </style>
  </defs>
  <g id="Layer_1-2" data-name="Layer 1">
    <g>
      <path class="cls-6" d="M0,0h34.02v17.01H0V0Z"/>
      <path class="cls-8" d="M1.59,1.59h8.84v13.83H1.59V1.59Z"/>
      <path class="cls-9" d="M1.59,1.59h4.42v13.83H1.59V1.59Z"/>
      <path class="cls-1" d="M12.02,1.59h20.41v13.83H12.02V1.59Z"/>
      <path class="cls-3" d="M14.24,12.73s-.19.39-.39.55c-.31.24-.94.22-1.2.5-.32.33.02.76.02.79l-.02.23s.22,0,.31.02c.14.02.19.14.44.12.64-.04.61-.63.65-1.14.03-.19.11-.44.15-.64.04-.16.04-.43.04-.43h0Z"/>
      <g>
        <g id="A">
          <path class="cls-2" d="M19.02,13.68l.13-.07.06.07c.07.1.28.1.41,0l.1-.08.09.08c.11.1.33.1.46,0,.09-.07.11-.07.17-.02.04.03.15.07.24.08.17.02.18.02.28-.13.09-.12.1-.18.08-.3-.02-.1-.03-.19-.03-.29,0-.14,0-.14.2-.21.12-.04.25-.09.3-.12.08-.04.31-.31.31-.36,0-.01-.09-.04-.2-.05-.44-.05-.51-.28-.23-.7.47-.7.75-1.37.75-1.81,0-.19.01-.26.04-.22.1.17-.08.89-.36,1.41l-.11.21.11-.02c.06-.01.41-.16.78-.32,1.01-.45,1.36-.53,2.01-.51.55.02.78.13,1.17.52.2.21.4.36.76.58.77.47.8.51.84,1.06.04.56.02.59-.41.68-.37.08-.6.25-.67.48-.03.13.04.13.22.01l.14-.09.06.09c.08.11.25.11.39,0l.11-.08.11.08c.17.13.39.1.46-.06.01-.03.04-.02.11.03.12.1.44.15.48.07.01-.03-.01-.11-.06-.17-.18-.27-.24-.4-.24-.55,0-.2.06-.3.3-.47.29-.2.38-.46.16-.46-.14,0-.27-.12-.36-.31-.18-.39-.14-.82.12-1.55.27-.74.3-.87.3-1.36,0-.4,0-.47-.1-.69-.06-.13-.17-.33-.26-.44l-.15-.2.2-.16c.6-.48.48-1.28-.24-1.58-.22-.09-.28-.1-.66-.1-.23,0-.59.03-.79.07-.2.04-.55.06-.79.07-.38,0-.44,0-.59-.08-.15-.08-.18-.12-.21-.3,0-.04-.03-.07-.06-.08-.05-.02-.29.19-.32.27-.02.04-.03.04-.08-.02-.03-.04-.08-.13-.1-.2-.06-.18.01-.31.23-.41l.17-.08-.1-.06c-.2-.12-.54-.04-.67.16-.04.06-.07.1-.08.1s-.08-.05-.15-.12c-.26-.25-.17-.61.18-.73.19-.06.35-.01.38.11.05.18.21-.06.19-.28-.02-.15-.02-.15.09-.15.14,0,.45.18.54.33.11.17.1.43-.02.62l-.09.15.12-.02c.18-.04.36-.15.45-.28.09-.14.1-.42.02-.56-.08-.14-.07-.17.05-.12.2.08.31.17.39.33.07.14.08.18.04.32-.02.09-.08.21-.12.26-.07.09-.07.1-.02.1.1,0,.3-.09.37-.17.04-.04.09-.13.12-.21l.05-.14.06.11c.08.15.25.28.45.37.22.09.31.1.19.01-.08-.06-.22-.46-.17-.5.02-.02.32.2.65.49.32.28.52.37.81.37.37,0,.59-.32.42-.61-.1-.17-.31-.2-.44-.05-.06.07-.07.12-.06.19.02.09.01.1-.07.1-.11,0-.32-.13-.7-.44-.58-.47-1.28-.87-1.78-1.01-.32-.09-1.02-.13-1.35-.07-.36.06-.78.26-1.01.48-.41.38-.41.88-.02,1.34l.11.13-.08.12c-.11.17-.1.4.02.57.06.07.11.13.12.13s.03-.05.03-.11c.01-.15.08-.25.19-.28.1-.04.16-.02.62.16.48.19,1.27.2,2.12.03.41-.08.9-.08,1.11.01.39.16.48.58.2.9-.13.14-.25.19-.65.3-.31.08-.38.09-1.08.08-.6,0-.81,0-1.06.06-.27.05-.43.06-1.21.04l-.9-.02.1.08c.05.04.13.1.17.12.07.04.07.04-.04.08-.06.02-.19.04-.29.04h-.18l-.02.15c-.01.08-.01.18,0,.22.02.05.01.06-.04.04-.04-.01-.15-.04-.24-.06s-.22-.06-.28-.09c-.1-.05-.11-.05-.15.02-.03.06-.35.28-.39.28,0,0-.02-.04-.02-.1s-.05-.19-.1-.31-.1-.24-.12-.28c-.02-.06-.03-.06-.06-.02-.02.03-.04.11-.05.18s-.06.18-.1.25l-.08.12-.05-.1c-.06-.11-.15-.23-.18-.23-.01,0-.03.04-.04.08-.03.09-.24.35-.3.35-.02,0-.04-.07-.04-.16s-.02-.16-.04-.16-.04.02-.04.05c0,.07-.19.27-.25.27-.03,0-.07.02-.1.05-.07.08-.12.07-.1-.02.01-.04,0-.13-.02-.2l-.06-.17s-.08-.02-.22.02c-.23.07-.3.06-.19-.03.04-.03.11-.15.14-.25s.09-.2.12-.21c.04-.01.04,0,0,.07-.03.05-.06.11-.06.14s-.03.1-.06.16-.05.11-.04.12.09-.03.19-.07l.18-.08v.07s.02.15.05.24l.05.17.12-.05c.12-.06.24-.25.24-.41,0-.08.04-.06.06.02,0,.02.03.11.06.2l.05.16.08-.1c.05-.05.1-.16.13-.23.04-.13.11-.19.11-.09,0,.07.19.31.23.29.02-.01.05-.1.08-.2.05-.21.14-.36.19-.33.02.01.03.03.02.05s.03.15.1.31l.14.34c.02.06.04.05.18-.07.09-.07.16-.16.17-.18.01-.04.03-.04.11,0,.11.07.49.18.52.15.01-.01.02-.11.02-.22v-.2s.11.02.11.02c.06.01.19.01.28,0l.17-.02-.15-.1c-.08-.06-.17-.13-.19-.16-.02-.03-.1-.06-.18-.07-.23-.02-.63-.24-.63-.35,0-.02.06.01.12.08.15.14.36.22.55.22h.14l-.09-.11c-.05-.06-.09-.18-.1-.28-.02-.16-.03-.18-.2-.3-.1-.07-.23-.17-.28-.23l-.1-.1-.05.12c-.03.07-.06.12-.07.12s-.06-.04-.11-.09-.1-.09-.11-.09-.06.07-.1.15l-.08.15-.06-.08s-.11-.13-.17-.18-.09-.1-.07-.1.1.06.17.12l.13.12.05-.09c.03-.05.04-.14.03-.2-.02-.1-.02-.1.02-.04.02.04.1.11.16.17l.12.1.08-.15c.08-.15.08-.15.12-.06.05.12.41.41.72.58.05.03.03-.06-.06-.27-.02-.05-.04-.15-.04-.22,0-.1-.03-.14-.16-.24-.19-.14-.25-.24-.28-.46-.01-.09-.05-.19-.07-.22-.04-.05-.04-.02-.03.15,0,.11,0,.25-.03.31l-.05.11-.04-.09s-.11-.13-.19-.19-.15-.11-.13-.12.1.04.2.11c.15.11.18.12.2.07.02-.06,0-.3-.05-.48-.02-.09-.02-.09.09.02.08.08.13.17.16.34.04.21.07.24.26.41.12.1.22.18.23.17s.02-.27.03-.58c.02-.6,0-.74-.15-.93l-.08-.1.12-.13c.16-.16.23-.3.26-.48l.03-.15-.14.13c-.11.1-.16.13-.29.13s-.18-.02-.26-.11c-.1-.11-.28-.21-.46-.26-.06-.02-.09-.01-.09.03,0,.03-.04.12-.08.2l-.08.14-.17-.16c-.1-.1-.22-.18-.31-.2-.23-.06-.24-.05-.24.11,0,.25-.11.3-.31.13-.15-.13-.28-.16-.57-.13l-.22.02.04.1c.03.08.03.12-.05.21-.12.15-.27.22-.5.22-.11,0-.24.02-.3.05s-.2.06-.31.07-.24.03-.27.04c-.05.02-.06,0-.04-.12.03-.19-.11-.32-.31-.32-.27,0-.39.24-.29.55.02.07.04.14.06.21.01.06.13.21.28.36.14.14.28.29.3.32s.1.1.16.14l.12.07-.02-.13c-.02-.14.01-.16.09-.06.03.04.1.09.16.13.09.05.11.06.11,0,0-.03.02-.1.04-.15l.04-.1.07.14c.04.07.17.24.29.38.23.26.37.54.29.61-.03.03-.11.02-.27,0-.13-.02-.28-.04-.35-.03-.13.02-.14,0-.06-.1.09-.1.07-.12-.1-.12-.19,0-.68-.09-.86-.16-.18-.07-.22-.05-.27.11l-.1.3-.05.17.2-.02c.11-.01.25-.03.31-.05s.12-.03.12-.02-.02.07-.06.14l-.07.13.12-.02c.07-.01.17-.05.22-.07.1-.05.11-.04.18.08.09.15.17.14.19-.02.02-.16.07-.14.18.08.1.21.2.28.22.16,0-.04.06-.11.12-.15.12-.08.21-.06.26.07.05.13-.07.27-.41.47-.69.41-1.09.97-1.21,1.68-.1.64.22,1.3.87,1.78.31.23.8.47.77.38-.13-.39-.13-1.13,0-1.26.02-.02.01.06-.02.17-.11.42-.06.76.22,1.55.25.72.22,1.02-.14,1.22-.11.06-.19.08-.49.07-.33,0-.37,0-.47.09-.1.08-.24.34-.24.47,0,.07.08.06.22-.03h0ZM24.4,13.66l.14-.09.09.09c.12.11.27.11.39,0,.05-.05.1-.09.1-.08.02.03.03.06.05.09.03.05.09.07.2.08.13,0,.17,0,.22-.08l.06-.09.14.09c.37.24.57-.01.41-.5-.09-.25-.04-.39.24-.71.12-.13.21-.28.21-.32,0-.07-.02-.07-.18-.07-.15,0-.19-.01-.27-.1-.13-.14-.12-.29.02-.46l.11-.14-.2-.13c-.11-.07-.31-.25-.44-.38-.3-.31-.59-.46-.98-.49l-.26-.02v.19c0,.25.12.48.44.88.37.46.39.53.41,1.12v.5s-.09.1-.09.1c-.1.09-.14.1-.45.12-.29.02-.36.03-.44.11-.11.1-.15.15-.18.29-.02.08-.01.1.05.1.04,0,.13-.04.21-.09h0ZM16.57,12.21c0-.06.03-.08.17-.1l.17-.02-.12-.09c-.14-.11-.15-.19-.03-.19.12,0,.32-.12.35-.21.01-.04,0-.1-.02-.13-.07-.07-.19-.06-.22.02-.03.09-.07.09-.16,0-.14-.13-.15-.41,0-.57.07-.08.07-.08-.02-.16-.09-.08-.16-.25-.11-.29.01-.01.09,0,.16.02.11.04.15.04.19,0,.13-.1-.01-.23-.22-.2-.08.01-.12,0-.13-.04,0-.03-.08-.08-.17-.1-.15-.04-.15-.04-.15.06,0,.11-.06.13-.19.06-.1-.06-.2-.01-.2.09,0,.1.1.14.28.13.14,0,.14.09.01.23l-.09.1.07.1c.11.15.1.41-.02.54l-.09.1-.06-.08c-.09-.11-.2-.1-.23.01-.02.08,0,.11.1.19.07.06.16.1.22.1.13,0,.12.1-.01.2l-.11.08.16.02c.09.01.16.04.16.06,0,.07.04.27.15.28.1,0,.16-.14.16-.23h0ZM18.63,11.46c.15-.06.47-.32.47-.39,0-.02-.09-.12-.2-.21-.23-.2-.47-.54-.54-.74-.03-.1-.19-.28-.65-.71l-.6-.57-.17.04c-.1.02-.21.04-.26.04-.08,0-.08,0,.03.09l.11.09.16-.09c.15-.08.16-.08.18-.02.01.04-.01.11-.06.16-.04.05-.07.1-.05.12s-.03.06-.09.09c-.11.05-.19.23-.1.23.08,0,.26-.21.24-.29-.01-.04,0-.08.01-.08.07-.04.06.13,0,.21-.04.05-.07.1-.05.12s-.03.06-.09.09c-.11.05-.19.23-.1.23s.26-.2.24-.28c-.01-.04,0-.08,0-.09.05-.03.07.11.03.17-.02.03-.02.08,0,.12.04.07,0,.2-.07.24-.03.02,0,.05.06.11.11.08.11.09.11.44,0,.29.01.37.07.42.06.06.07.06.07,0,0-.06.11-.13.2-.13.03,0,.19.13.36.3.17.16.35.3.41.31l.12.02s.09-.02.17-.05h0ZM16.79,10.05c0-.09-.2-.19-.44-.22-.19-.02-.2-.02-.2.07,0,.08.03.11.16.16.21.09.47.08.47-.02h0ZM17,10.04c.1-.09.14-.19.08-.19-.07,0-.25.16-.25.21,0,.09.03.09.16-.03ZM16.8,9.77c0-.05-.03-.09-.13-.13-.22-.1-.48-.14-.54-.09-.12.09-.04.21.15.23.08,0,.18.03.23.05.14.05.28.03.29-.05h0ZM16.8,9.48c.01-.08-.04-.1-.44-.24-.3-.1-.44-.05-.34.12.03.06.09.09.22.11.09.01.22.04.29.06.17.05.27.03.28-.05h0ZM17,9.21c.06-.06.11-.13.11-.16,0-.09-.24.07-.27.17-.04.13.02.12.16-.01ZM16.8,9.2c.01-.09-.13-.16-.42-.22-.21-.04-.31-.02-.29.08,0,.05.08.09.28.15.32.1.42.1.43,0h0ZM17.08,8.8c.37-.16.4-.57.05-.67-.15-.04-.24-.02-.29.08-.04.07-.01.21.04.21.02,0,.04.02.04.05,0,.14-.57.2-.8.09-.08-.04-.12-.14-.05-.14.05,0,.09-.11.06-.18-.04-.1-.14-.14-.3-.1-.35.09-.34.49.02.66.29.14.93.15,1.23.02h0ZM16.85,8.48s.01-.05-.02-.08c-.08-.06-.07-.15.01-.25.06-.08.07-.19.1-1.36.04-2.01.19-3.52.39-3.88.08-.14.07-.14-.14,0-.27.18-.47.41-.65.74-.34.62-.46,1.47-.46,3.26,0,1.02,0,1.15.07,1.25.06.09.06.12.02.22-.03.06-.04.12-.03.13.08.07.63.05.71-.02h0ZM19.96,6.57s-.01-.1-.06-.19c-.07-.14-.09-.16-.19-.16-.3,0-.78-.13-1.27-.35-.29-.12-.38-.15-.42-.12-.09.08.06.27.28.37.2.09.76.2,1.01.2.15,0,.15,0,.07.13l-.06.09h.17c.09,0,.22.02.28.04.16.04.17.04.19,0h0Z"/>
          <path class="cls-4" d="M21.71,7.47c0-.05-.16-.19-.31-.28-.12-.07-.14-.07-.15-.02,0,.09-.08.31-.11.31-.02,0-.04-.04-.06-.1s-.07-.16-.13-.23l-.11-.14-.08.13c-.08.12-.21.23-.27.23-.01,0-.02-.06,0-.14.01-.08,0-.15-.02-.16-.02-.01-.04,0-.04.01,0,.04-.19.25-.23.25-.02,0-.04-.06-.05-.13l-.04-.26c-.01-.07.01-.02.06.1l.08.23.09-.14c.05-.08.09-.16.09-.18s.02-.04.04-.03.05.1.06.2l.03.18.1-.11c.05-.06.12-.14.14-.17.04-.07.04-.07.13,0,.05.04.12.13.16.21.04.07.08.13.09.12s.02-.08.03-.17l.02-.17s.3.16.41.26c.07.06.14.1.15.09s.02-.1.02-.2c0-.15-.02-.19-.11-.28-.11-.1-.11-.1-.15-.03-.05.09-.12.09-.12,0,0-.07-.21-.32-.26-.32-.01,0-.06.06-.1.12s-.08.12-.09.12c-.05,0-.35-.32-.35-.38,0-.05.02-.03.07.04.04.06.12.15.17.19.11.1.16.07.2-.11.01-.05.03-.1.05-.1.05,0,.31.27.34.35l.04.09.03-.1c.03-.12.07-.12.12-.01.02.05.13.14.25.21l.2.13.04-.13c.02-.07.05-.11.07-.09.02.03-.03.24-.07.29,0,0-.07-.03-.15-.08l-.14-.1v.17c0,.09-.01.21-.02.25-.02.09-.09.11-.09.03h0ZM20.69,6.1c-.24-.2-.28-.24-.28-.34v-.1s.02.1.02.1c0,.06.07.14.16.2l.14.11.09-.1c.05-.05.09-.12.09-.14,0-.06.01-.06.18.08.15.12.15.12.17.04.01-.04,0-.13,0-.19-.05-.16-.04-.18.03-.09.04.05.09.12.13.15.06.06.06.06.09-.02.01-.04.02-.13.02-.18v-.1s.13.15.13.15c.12.14.13.14.17.08.02-.04.04-.13.04-.2,0-.1.01-.12.04-.08.04.06.01.23-.06.37l-.06.1-.07-.11c-.09-.14-.12-.14-.18.01-.06.14-.09.15-.15.04-.04-.07-.04-.06-.07.09l-.03.17-.17-.13-.17-.13-.08.08s-.08.1-.08.13c0,.05-.04.05-.1,0h0ZM22.85,5.36c-.09-.08-.15-.15-.14-.17s.03-.02.04,0,.08.08.16.17c.19.19.15.2-.06,0h0ZM19.97,5.07c-.08-.11-.08-.18.02-.29.07-.08.1-.09.23-.08.08,0,.25.08.38.15.15.09.3.14.42.16.1.01.19.02.19.01s-.04-.08-.1-.15c-.13-.18-.12-.2.02-.09.14.11.32.15.71.13h.19s-.11-.11-.11-.11c-.15-.15-.11-.16.06-.02.16.13.15.14-.19.18-.14.01-.29,0-.42-.03-.19-.05-.2-.05-.16.02.02.04.05.07.07.07s.04.02.04.04c0,.07-.41,0-.61-.09-.45-.22-.5-.24-.61-.21-.06.02-.12.07-.14.13-.07.18.19.32.3.16.03-.05.02-.08-.03-.13-.07-.08-.07-.09.03-.05.07.03.08.19.01.25-.08.07-.25.05-.32-.04h0ZM21.73,4.63c-.06-.05-.01-.06.24-.07.31,0,.5-.06.72-.19.18-.11.23-.09.06.03-.15.1-.4.18-.63.21-.11.01-.24.03-.29.04s-.09,0-.11,0h0Z"/>
        </g>
        <g id="A-2" data-name="A">
          <path class="cls-6" d="M19.02,13.68l.13-.07.06.07c.07.1.28.1.41,0l.1-.08.09.08c.11.1.33.1.46,0,.09-.07.11-.07.17-.02.04.03.15.07.24.08.17.02.18.02.28-.13.09-.12.1-.18.08-.3-.02-.1-.03-.19-.03-.29,0-.14,0-.14.2-.21.12-.04.25-.09.3-.12.08-.04.31-.31.31-.36,0-.01-.09-.04-.2-.05-.44-.05-.51-.28-.23-.7.47-.7.75-1.37.75-1.81,0-.19.01-.26.04-.22.1.17-.08.89-.36,1.41l-.11.21.11-.02c.06-.01.41-.16.78-.32,1.01-.45,1.36-.53,2.01-.51.55.02.78.13,1.17.52.2.21.4.36.76.58.77.47.8.51.84,1.06.04.56.02.59-.41.68-.37.08-.6.25-.67.48-.03.13.04.13.22.01l.14-.09.06.09c.08.11.25.11.39,0l.11-.08.11.08c.17.13.39.1.46-.06.01-.03.04-.02.11.03.12.1.44.15.48.07.01-.03-.01-.11-.06-.17-.18-.27-.24-.4-.24-.55,0-.2.06-.3.3-.47.29-.2.38-.46.16-.46-.14,0-.27-.12-.36-.31-.18-.39-.14-.82.12-1.55.27-.74.3-.87.3-1.36,0-.4,0-.47-.1-.69-.06-.13-.17-.33-.26-.44l-.15-.2.2-.16c.6-.48.48-1.28-.24-1.58-.22-.09-.28-.1-.66-.1-.23,0-.59.03-.79.07-.2.04-.55.06-.79.07-.38,0-.44,0-.59-.08-.15-.08-.18-.12-.21-.3,0-.04-.03-.07-.06-.08-.05-.02-.29.19-.32.27-.02.04-.03.04-.08-.02-.03-.04-.08-.13-.1-.2-.06-.18.01-.31.23-.41l.17-.08-.1-.06c-.2-.12-.54-.04-.67.16-.04.06-.07.1-.08.1s-.08-.05-.15-.12c-.26-.25-.17-.61.18-.73.19-.06.35-.01.38.11.05.18.21-.06.19-.28-.02-.15-.02-.15.09-.15.14,0,.45.18.54.33.11.17.1.43-.02.62l-.09.15.12-.02c.18-.04.36-.15.45-.28.09-.14.1-.42.02-.56-.08-.14-.07-.17.05-.12.2.08.31.17.39.33.07.14.08.18.04.32-.02.09-.08.21-.12.26-.07.09-.07.1-.02.1.1,0,.3-.09.37-.17.04-.04.09-.13.12-.21l.05-.14.06.11c.08.15.25.28.45.37.22.09.31.1.19.01-.08-.06-.22-.46-.17-.5.02-.02.32.2.65.49.32.28.52.37.81.37.37,0,.59-.32.42-.61-.1-.17-.31-.2-.44-.05-.06.07-.07.12-.06.19.02.09.01.1-.07.1-.11,0-.32-.13-.7-.44-.58-.47-1.28-.87-1.78-1.01-.32-.09-1.02-.13-1.35-.07-.36.06-.78.26-1.01.48-.41.38-.41.88-.02,1.34l.11.13-.08.12c-.11.17-.1.4.02.57.06.07.11.13.12.13s.03-.05.03-.11c.01-.15.08-.25.19-.28.1-.04.16-.02.62.16.48.19,1.27.2,2.12.03.41-.08.9-.08,1.11.01.39.16.48.58.2.9-.13.14-.25.19-.65.3-.31.08-.38.09-1.08.08-.6,0-.81,0-1.06.06-.27.05-.43.06-1.21.04l-.9-.02.1.08c.05.04.13.1.17.12.07.04.07.04-.04.08-.06.02-.19.04-.29.04h-.18l-.02.15c-.01.08-.01.18,0,.22.02.05.01.06-.04.04-.04-.01-.15-.04-.24-.06s-.22-.06-.28-.09c-.1-.05-.11-.05-.15.02-.03.06-.35.28-.39.28,0,0-.02-.04-.02-.1s-.05-.19-.1-.31-.1-.24-.12-.28c-.02-.06-.03-.06-.06-.02-.02.03-.04.11-.05.18s-.06.18-.1.25l-.08.12-.05-.1c-.06-.11-.15-.23-.18-.23-.01,0-.03.04-.04.08-.03.09-.24.35-.3.35-.02,0-.04-.07-.04-.16s-.02-.16-.04-.16-.04.02-.04.05c0,.07-.19.27-.25.27-.03,0-.07.02-.1.05-.07.08-.12.07-.1-.02.01-.04,0-.13-.02-.2l-.06-.17s-.08-.02-.22.02c-.23.07-.3.06-.19-.03.04-.03.11-.15.14-.25s.09-.2.12-.21c.04-.01.04,0,0,.07-.03.05-.06.11-.06.14s-.03.1-.06.16-.05.11-.04.12.09-.03.19-.07l.18-.08v.07s.02.15.05.24l.05.17.12-.05c.12-.06.24-.25.24-.41,0-.08.04-.06.06.02,0,.02.03.11.06.2l.05.16.08-.1c.05-.05.1-.16.13-.23.04-.13.11-.19.11-.09,0,.07.19.31.23.29.02-.01.05-.1.08-.2.05-.21.14-.36.19-.33.02.01.03.03.02.05s.03.15.1.31l.14.34c.02.06.04.05.18-.07.09-.07.16-.16.17-.18.01-.04.03-.04.11,0,.11.07.49.18.52.15.01-.01.02-.11.02-.22v-.2s.11.02.11.02c.06.01.19.01.28,0l.17-.02-.15-.1c-.08-.06-.17-.13-.19-.16-.02-.03-.1-.06-.18-.07-.23-.02-.63-.24-.63-.35,0-.02.06.01.12.08.15.14.36.22.55.22h.14l-.09-.11c-.05-.06-.09-.18-.1-.28-.02-.16-.03-.18-.2-.3-.1-.07-.23-.17-.28-.23l-.1-.1-.05.12c-.03.07-.06.12-.07.12s-.06-.04-.11-.09-.1-.09-.11-.09-.06.07-.1.15l-.08.15-.06-.08s-.11-.13-.17-.18-.09-.1-.07-.1.1.06.17.12l.13.12.05-.09c.03-.05.04-.14.03-.2-.02-.1-.02-.1.02-.04.02.04.1.11.16.17l.12.1.08-.15c.08-.15.08-.15.12-.06.05.12.41.41.72.58.05.03.03-.06-.06-.27-.02-.05-.04-.15-.04-.22,0-.1-.03-.14-.16-.24-.19-.14-.25-.24-.28-.46-.01-.09-.05-.19-.07-.22-.04-.05-.04-.02-.03.15,0,.11,0,.25-.03.31l-.05.11-.04-.09s-.11-.13-.19-.19-.15-.11-.13-.12.1.04.2.11c.15.11.18.12.2.07.02-.06,0-.3-.05-.48-.02-.09-.02-.09.09.02.08.08.13.17.16.34.04.21.07.24.26.41.12.1.22.18.23.17s.02-.27.03-.58c.02-.6,0-.74-.15-.93l-.08-.1.12-.13c.16-.16.23-.3.26-.48l.03-.15-.14.13c-.11.1-.16.13-.29.13s-.18-.02-.26-.11c-.1-.11-.28-.21-.46-.26-.06-.02-.09-.01-.09.03,0,.03-.04.12-.08.2l-.08.14-.17-.16c-.1-.1-.22-.18-.31-.2-.23-.06-.24-.05-.24.11,0,.25-.11.3-.31.13-.15-.13-.28-.16-.57-.13l-.22.02.04.1c.03.08.03.12-.05.21-.12.15-.27.22-.5.22-.11,0-.24.02-.3.05s-.2.06-.31.07-.24.03-.27.04c-.05.02-.06,0-.04-.12.03-.19-.11-.32-.31-.32-.27,0-.39.24-.29.55.02.07.04.14.06.21.01.06.13.21.28.36.14.14.28.29.3.32s.1.1.16.14l.12.07-.02-.13c-.02-.14.01-.16.09-.06.03.04.1.09.16.13.09.05.11.06.11,0,0-.03.02-.1.04-.15l.04-.1.07.14c.04.07.17.24.29.38.23.26.37.54.29.61-.03.03-.11.02-.27,0-.13-.02-.28-.04-.35-.03-.13.02-.14,0-.06-.1.09-.1.07-.12-.1-.12-.19,0-.68-.09-.86-.16-.18-.07-.22-.05-.27.11l-.1.3-.05.17.2-.02c.11-.01.25-.03.31-.05s.12-.03.12-.02-.02.07-.06.14l-.07.13.12-.02c.07-.01.17-.05.22-.07.1-.05.11-.04.18.08.09.15.17.14.19-.02.02-.16.07-.14.18.08.1.21.2.28.22.16,0-.04.06-.11.12-.15.12-.08.21-.06.26.07.05.13-.07.27-.41.47-.69.41-1.09.97-1.21,1.68-.1.64.22,1.3.87,1.78.31.23.8.47.77.38-.13-.39-.13-1.13,0-1.26.02-.02.01.06-.02.17-.11.42-.06.76.22,1.55.25.72.22,1.02-.14,1.22-.11.06-.19.08-.49.07-.33,0-.37,0-.47.09-.1.08-.24.34-.24.47,0,.07.08.06.22-.03h0ZM24.4,13.66l.14-.09.09.09c.12.11.27.11.39,0,.05-.05.1-.09.1-.08.02.03.03.06.05.09.03.05.09.07.2.08.13,0,.17,0,.22-.08l.06-.09.14.09c.37.24.57-.01.41-.5-.09-.25-.04-.39.24-.71.12-.13.21-.28.21-.32,0-.07-.02-.07-.18-.07-.15,0-.19-.01-.27-.1-.13-.14-.12-.29.02-.46l.11-.14-.2-.13c-.11-.07-.31-.25-.44-.38-.3-.31-.59-.46-.98-.49l-.26-.02v.19c0,.25.12.48.44.88.37.46.39.53.41,1.12v.5s-.09.1-.09.1c-.1.09-.14.1-.45.12-.29.02-.36.03-.44.11-.11.1-.15.15-.18.29-.02.08-.01.1.05.1.04,0,.13-.04.21-.09h0ZM16.57,12.21c0-.06.03-.08.17-.1l.17-.02-.12-.09c-.14-.11-.15-.19-.03-.19.12,0,.32-.12.35-.21.01-.04,0-.1-.02-.13-.07-.07-.19-.06-.22.02-.03.09-.07.09-.16,0-.14-.13-.15-.41,0-.57.07-.08.07-.08-.02-.16-.09-.08-.16-.25-.11-.29.01-.01.09,0,.16.02.11.04.15.04.19,0,.13-.1-.01-.23-.22-.2-.08.01-.12,0-.13-.04,0-.03-.08-.08-.17-.1-.15-.04-.15-.04-.15.06,0,.11-.06.13-.19.06-.1-.06-.2-.01-.2.09,0,.1.1.14.28.13.14,0,.14.09.01.23l-.09.1.07.1c.11.15.1.41-.02.54l-.09.1-.06-.08c-.09-.11-.2-.1-.23.01-.02.08,0,.11.1.19.07.06.16.1.22.1.13,0,.12.1-.01.2l-.11.08.16.02c.09.01.16.04.16.06,0,.07.04.27.15.28.1,0,.16-.14.16-.23h0ZM18.63,11.46c.15-.06.47-.32.47-.39,0-.02-.09-.12-.2-.21-.23-.2-.47-.54-.54-.74-.03-.1-.19-.28-.65-.71l-.6-.57-.17.04c-.1.02-.21.04-.26.04-.08,0-.08,0,.03.09l.11.09.16-.09c.15-.08.16-.08.18-.02.01.04-.01.11-.06.16-.04.05-.07.1-.05.12s-.03.06-.09.09c-.11.05-.19.23-.1.23.08,0,.26-.21.24-.29-.01-.04,0-.08.01-.08.07-.04.06.13,0,.21-.04.05-.07.1-.05.12s-.03.06-.09.09c-.11.05-.19.23-.1.23s.26-.2.24-.28c-.01-.04,0-.08,0-.09.05-.03.07.11.03.17-.02.03-.02.08,0,.12.04.07,0,.2-.07.24-.03.02,0,.05.06.11.11.08.11.09.11.44,0,.29.01.37.07.42.06.06.07.06.07,0,0-.06.11-.13.2-.13.03,0,.19.13.36.3.17.16.35.3.41.31l.12.02s.09-.02.17-.05h0ZM16.79,10.05c0-.09-.2-.19-.44-.22-.19-.02-.2-.02-.2.07,0,.08.03.11.16.16.21.09.47.08.47-.02h0ZM17,10.04c.1-.09.14-.19.08-.19-.07,0-.25.16-.25.21,0,.09.03.09.16-.03ZM16.8,9.77c0-.05-.03-.09-.13-.13-.22-.1-.48-.14-.54-.09-.12.09-.04.21.15.23.08,0,.18.03.23.05.14.05.28.03.29-.05h0ZM16.8,9.48c.01-.08-.04-.1-.44-.24-.3-.1-.44-.05-.34.12.03.06.09.09.22.11.09.01.22.04.29.06.17.05.27.03.28-.05h0ZM17,9.21c.06-.06.11-.13.11-.16,0-.09-.24.07-.27.17-.04.13.02.12.16-.01ZM16.8,9.2c.01-.09-.13-.16-.42-.22-.21-.04-.31-.02-.29.08,0,.05.08.09.28.15.32.1.42.1.43,0h0ZM17.08,8.8c.37-.16.4-.57.05-.67-.15-.04-.24-.02-.29.08-.04.07-.01.21.04.21.02,0,.04.02.04.05,0,.14-.57.2-.8.09-.08-.04-.12-.14-.05-.14.05,0,.09-.11.06-.18-.04-.1-.14-.14-.3-.1-.35.09-.34.49.02.66.29.14.93.15,1.23.02h0ZM16.85,8.48s.01-.05-.02-.08c-.08-.06-.07-.15.01-.25.06-.08.07-.19.1-1.36.04-2.01.19-3.52.39-3.88.08-.14.07-.14-.14,0-.27.18-.47.41-.65.74-.34.62-.46,1.47-.46,3.26,0,1.02,0,1.15.07,1.25.06.09.06.12.02.22-.03.06-.04.12-.03.13.08.07.63.05.71-.02h0ZM19.96,6.57s-.01-.1-.06-.19c-.07-.14-.09-.16-.19-.16-.3,0-.78-.13-1.27-.35-.29-.12-.38-.15-.42-.12-.09.08.06.27.28.37.2.09.76.2,1.01.2.15,0,.15,0,.07.13l-.06.09h.17c.09,0,.22.02.28.04.16.04.17.04.19,0h0Z"/>
          <path class="cls-7" d="M21.71,7.47c0-.05-.16-.19-.31-.28-.12-.07-.14-.07-.15-.02,0,.09-.08.31-.11.31-.02,0-.04-.04-.06-.1s-.07-.16-.13-.23l-.11-.14-.08.13c-.08.12-.21.23-.27.23-.01,0-.02-.06,0-.14.01-.08,0-.15-.02-.16-.02-.01-.04,0-.04.01,0,.04-.19.25-.23.25-.02,0-.04-.06-.05-.13l-.04-.26c-.01-.07.01-.02.06.1l.08.23.09-.14c.05-.08.09-.16.09-.18s.02-.04.04-.03.05.1.06.2l.03.18.1-.11c.05-.06.12-.14.14-.17.04-.07.04-.07.13,0,.05.04.12.13.16.21.04.07.08.13.09.12s.02-.08.03-.17l.02-.17s.3.16.41.26c.07.06.14.1.15.09s.02-.1.02-.2c0-.15-.02-.19-.11-.28-.11-.1-.11-.1-.15-.03-.05.09-.12.09-.12,0,0-.07-.21-.32-.26-.32-.01,0-.06.06-.1.12s-.08.12-.09.12c-.05,0-.35-.32-.35-.38,0-.05.02-.03.07.04.04.06.12.15.17.19.11.1.16.07.2-.11.01-.05.03-.1.05-.1.05,0,.31.27.34.35l.04.09.03-.1c.03-.12.07-.12.12-.01.02.05.13.14.25.21l.2.13.04-.13c.02-.07.05-.11.07-.09.02.03-.03.24-.07.29,0,0-.07-.03-.15-.08l-.14-.1v.17c0,.09-.01.21-.02.25-.02.09-.09.11-.09.03h0ZM20.69,6.1c-.24-.2-.28-.24-.28-.34v-.1s.02.1.02.1c0,.06.07.14.16.2l.14.11.09-.1c.05-.05.09-.12.09-.14,0-.06.01-.06.18.08.15.12.15.12.17.04.01-.04,0-.13,0-.19-.05-.16-.04-.18.03-.09.04.05.09.12.13.15.06.06.06.06.09-.02.01-.04.02-.13.02-.18v-.1s.13.15.13.15c.12.14.13.14.17.08.02-.04.04-.13.04-.2,0-.1.01-.12.04-.08.04.06.01.23-.06.37l-.06.1-.07-.11c-.09-.14-.12-.14-.18.01-.06.14-.09.15-.15.04-.04-.07-.04-.06-.07.09l-.03.17-.17-.13-.17-.13-.08.08s-.08.1-.08.13c0,.05-.04.05-.1,0h0ZM22.85,5.36c-.09-.08-.15-.15-.14-.17s.03-.02.04,0,.08.08.16.17c.19.19.15.2-.06,0h0ZM19.97,5.07c-.08-.11-.08-.18.02-.29.07-.08.1-.09.23-.08.08,0,.25.08.38.15.15.09.3.14.42.16.1.01.19.02.19.01s-.04-.08-.1-.15c-.13-.18-.12-.2.02-.09.14.11.32.15.71.13h.19s-.11-.11-.11-.11c-.15-.15-.11-.16.06-.02.16.13.15.14-.19.18-.14.01-.29,0-.42-.03-.19-.05-.2-.05-.16.02.02.04.05.07.07.07s.04.02.04.04c0,.07-.41,0-.61-.09-.45-.22-.5-.24-.61-.21-.06.02-.12.07-.14.13-.07.18.19.32.3.16.03-.05.02-.08-.03-.13-.07-.08-.07-.09.03-.05.07.03.08.19.01.25-.08.07-.25.05-.32-.04h0ZM21.73,4.63c-.06-.05-.01-.06.24-.07.31,0,.5-.06.72-.19.18-.11.23-.09.06.03-.15.1-.4.18-.63.21-.11.01-.24.03-.29.04s-.09,0-.11,0h0Z"/>
        </g>
      </g>
      <g>
        <path class="cls-5" d="M30.21,12.74s.19.39.39.55c.31.24.94.22,1.2.49.32.32-.02.75-.02.79l.02.23s-.22,0-.31.02c-.14.02-.19.14-.44.12-.64-.04-.61-.63-.65-1.14-.03-.19-.11-.44-.15-.63-.04-.16-.04-.43-.04-.43h0Z"/>
        <path class="cls-3" d="M30.21,4.27s.19-.39.39-.55c.31-.24.94-.22,1.2-.5.32-.33-.02-.75-.02-.79l.02-.23s-.22,0-.31-.02c-.14-.02-.19-.14-.44-.12-.64.04-.61.63-.65,1.14-.03.19-.11.44-.15.64-.04.16-.04.43-.04.43h0ZM14.24,4.27s-.19-.39-.39-.55c-.31-.24-.94-.22-1.2-.5-.32-.33.02-.76.02-.79l-.02-.23s.22,0,.31-.02c.14-.02.19-.14.44-.12.64.04.61.63.65,1.14.03.19.11.44.15.64.04.16.04.43.04.43h0Z"/>
      </g>
    </g>
  </g>
</svg>