<?xml version="1.0" encoding="UTF-8"?>
<svg id="Layer_2" data-name="Layer 2" xmlns="http://www.w3.org/2000/svg" viewBox="0 0 25.51 17.01">
  <defs>
    <style>
      .cls-1 {
        fill: #ed2024;
      }

      .cls-2 {
        fill: #fff;
      }

      .cls-3 {
        fill: #2b2f84;
      }
    </style>
  </defs>
  <g id="Layer_1-2" data-name="Layer 1">
    <g>
      <path class="cls-1" d="M0,0h25.51v17.01H0V0Z"/>
      <path class="cls-3" d="M0,0h12.76v8.5H0V0Z"/>
      <g id="a">
        <path class="cls-2" d="M6.38,1.06l.85,3.19-.85,3.19-.85-3.19.85-3.19ZM3.19,4.25l3.19.85,3.19-.85-3.19-.85-3.19.85Z"/>
      </g>
      <g>
        <circle class="cls-2" cx="6.38" cy="4.25" r="1.7"/>
        <path class="cls-3" d="M6.38,6.06c-1,0-1.81-.81-1.81-1.81s.81-1.81,1.81-1.81,1.81.81,1.81,1.81-.81,1.81-1.81,1.81ZM6.38,2.66c-.88,0-1.59.71-1.59,1.59s.72,1.59,1.59,1.59,1.59-.71,1.59-1.59-.72-1.59-1.59-1.59Z"/>
      </g>
    </g>
  </g>
</svg>