<?xml version="1.0" encoding="UTF-8"?>
<svg id="Layer_2" data-name="Layer 2" xmlns="http://www.w3.org/2000/svg" viewBox="0 0 34.02 17.01">
  <defs>
    <style>
      .cls-1 {
        fill: #fff;
      }

      .cls-2 {
        fill: #cb2026;
      }

      .cls-3 {
        fill: #f6c315;
      }

      .cls-4 {
        fill: #186734;
      }
    </style>
  </defs>
  <g id="Layer_1-2" data-name="Layer 1">
    <g>
      <path class="cls-4" d="M0,0h34.02v17.01H0V0Z"/>
      <path class="cls-1" d="M0,0h34.02v12.15H0V0Z"/>
      <path class="cls-2" d="M0,0h34.02v4.86H0V0Z"/>
      <g>
        <g>
          <path class="cls-3" d="M16.4,8.26c.08-.13.24-.17.37-.1.08.05.13.13.14.23v1.09h.21v-1.09c0-.15.13-.27.28-.26.09,0,.18.05.23.14.11-.34-.07-.7-.41-.81s-.7.07-.81.41c-.04.13-.04.27,0,.41"/>
          <path class="cls-1" d="M16.54,7.97c.18-.04.37.05.46.21.09-.16.28-.25.46-.21-.04-.26-.27-.44-.53-.4-.21.03-.37.19-.4.4"/>
          <g id="a">
            <path class="cls-3" d="M16.91,9.04c-.04.46-.44.79-.9.75-.18-.02-.36-.09-.49-.22-.18.44-.68.66-1.12.48-.07-.03-.13-.06-.18-.1.08.79,1.27.63,1.36-.14.37.66,1.2.47,1.44-.34l-.1-.44Z"/>
          </g>
          <g id="a-2" data-name="a">
            <path class="cls-3" d="M17.11,9.04c.04.46.44.79.9.75.18-.02.36-.09.49-.22.18.44.68.66,1.12.48.07-.03.13-.06.18-.1-.08.79-1.27.63-1.36-.14-.37.66-1.2.47-1.44-.34l.1-.44Z"/>
          </g>
          <g id="b">
            <path class="cls-3" d="M16.11,10.45c-.17.36-.5.42-.79.13,0,0,.12-.08.24-.11-.02-.1.02-.24.09-.31.07.05.17.15.2.26.18-.02.26.03.26.03h0Z"/>
          </g>
          <g id="b-2" data-name="b">
            <path class="cls-3" d="M17.41,10.41c-.22.33-.56.33-.8,0,0,0,.13-.06.26-.06,0-.1.06-.23.14-.29.06.06.14.17.15.29.18,0,.25.07.25.07h0Z"/>
          </g>
          <g id="b-3" data-name="b">
            <path class="cls-3" d="M18.7,10.58c-.27.29-.61.24-.79-.13,0,0,.14-.04.26-.02,0-.1.1-.22.19-.27.05.07.11.19.1.31.17.03.24.11.24.11h0Z"/>
          </g>
          <path class="cls-3" d="M19.07,11.42c-1.35-.4-2.78-.4-4.13,0l-.1-.33c1.42-.42,2.92-.42,4.33,0l-.1.33Z"/>
        </g>
        <g>
          <path class="cls-3" d="M20.12,8.7l.12.38h.4l-.32.23.12.38-.32-.23-.32.23.12-.38-.32-.23h.4l.12-.38Z"/>
          <path class="cls-3" d="M19.7,7.14l.12.38h.4l-.32.23.12.38-.32-.23-.32.23.12-.38-.32-.23h.4l.12-.38Z"/>
          <path class="cls-3" d="M18.56,6l.12.38h.4l-.32.23.12.38-.32-.23-.32.23.12-.38-.32-.23h.4l.12-.38Z"/>
          <path class="cls-3" d="M17.01,5.59l.12.38h.4l-.32.23.12.38-.32-.23-.32.23.12-.38-.32-.23h.4l.12-.38Z"/>
          <path class="cls-3" d="M15.45,6l.12.38h.4l-.32.23.12.38-.32-.23-.32.23.12-.38-.32-.23h.4l.12-.38Z"/>
          <path class="cls-3" d="M14.32,7.14l.12.38h.4l-.32.23.12.38-.32-.23-.32.23.12-.38-.32-.23h.4l.12-.38Z"/>
          <path class="cls-3" d="M13.9,8.7l.12.38h.4l-.32.23.12.38-.32-.23-.32.23.12-.38-.32-.23h.4l.12-.38Z"/>
        </g>
      </g>
    </g>
  </g>
</svg>