<?xml version="1.0" encoding="UTF-8"?>
<svg id="Layer_2" data-name="Layer 2" xmlns="http://www.w3.org/2000/svg" viewBox="0 0 34.69 28.37">
  <defs>
    <style>
      .cls-1 {
        fill: #fff;
      }

      .cls-2 {
        fill: #010101;
      }
    </style>
  </defs>
  <g id="Layer_1-2" data-name="Layer 1">
    <g id="_2945ee0f70" data-name="2945ee0f70">
      <g>
        <path class="cls-1" d="M6.3,27.46l-.99-4.88.95-2.91-1.13-3.51-.4.43c-.47.52-1.13.78-1.79.78-.6,0-1.19-.21-1.66-.64l.75-.82c.25.24.57.36.9.36h.07c.36-.02.68-.17.93-.43l.86-.94,1.74-2.85L17.7,1.03l9.78,3.04,1.79,2.19.68.26c.15.06.31.09.47.09.19,0,.38-.04.55-.12.33-.15.57-.42.7-.75l1.04.39c-.24.61-.69,1.09-1.29,1.36-.31.15-.65.22-.99.22l.55.68c.07.02.15.02.23.02.55,0,1.06-.33,1.26-.87l1.03.39c-.37.98-1.3,1.58-2.29,1.58-.16,0-.33-.02-.49-.06l-.53,1.83-2.35,1.52-1.14,1.43-2.35-.95v-2.63l-2.07,1.17,2.14,2.41.41,1.97-3.24,3.24-1.83-.86-.51.69-1.79-.5,1.18-1.97,2.41.68.77-1.71-3.47-1.72-5.52,3.12-1.21,2.78-2.85,1.79-.71,1.92-.07,1.73h.77l.35,2.05h-2.8Z"/>
        <path class="cls-2" d="M5.32,19.66l-.61-1.89c-.52.33-1.13.5-1.76.5-.85,0-1.66-.31-2.27-.88L.01,16.78l.61-.66.75-.82.61-.66.66.61c.08.07.19.12.29.12h.02c.12,0,.23-.06.31-.15l.8-.87,1.69-2.76.06-.1.08-.07L17.07.39l.38-.38.52.15,9.78,3.04.26.08.17.21,1.63,2.01.46.17s.11.02.15.02c.07,0,.12,0,.18-.04.11-.05.19-.13.24-.24l.32-.84.84.32,1.04.39.84.32-.32.84c-.06.16-.13.31-.21.46l.5.19.84.32-.32.84c-.46,1.24-1.65,2.09-2.96,2.16l-.33,1.13-.1.32-.29.19-2.22,1.43-1.05,1.32-.42.52-.62-.25-.93-.38.27,1.33.1.47-.34.34-3.24,3.24-.45.45-.57-.27-1.15-.54-.07.1-.38.51-.6-.17-1.8-.5-1.14-.32.61-1.02,1.19-1.96.35-.6.66.19,1.66.47.09-.21-2.26-1.13-4.84,2.74-1.08,2.5-.11.26-.24.15-2.58,1.62-.55,1.49-.02.65h.59l.12.74.35,2.05.18,1.05h-4.61l-.15-.72-.99-4.88-.05-.23.07-.23.86-2.63ZM5.32,22.57l.99,4.88h2.8l-.35-2.05h-.77l.07-1.73.71-1.92,2.85-1.79,1.21-2.78,5.52-3.12,3.47,1.72-.77,1.71-2.41-.68-1.18,1.97,1.79.5.51-.69,1.83.86,3.24-3.24-.41-1.97-2.14-2.41,2.07-1.17v2.63l2.35.95,1.14-1.43,2.35-1.52.53-1.83c.16.04.33.06.49.06.99,0,1.92-.6,2.29-1.58l-1.03-.39c-.2.54-.72.87-1.26.87-.07,0-.15,0-.23-.02l-.55-.68c.33,0,.68-.07.99-.22.6-.27,1.05-.75,1.29-1.36l-1.04-.39c-.13.33-.38.6-.7.75-.18.08-.37.12-.55.12-.16,0-.32-.03-.47-.09l-.68-.26-1.79-2.19-9.78-3.04L6.53,12.06l-1.74,2.85-.86.94c-.24.26-.57.42-.93.43h-.07c-.33,0-.65-.12-.9-.36l-.75.82c.47.43,1.07.64,1.66.64.66,0,1.32-.26,1.79-.78l.4-.43,1.13,3.51-.95,2.91Z"/>
      </g>
    </g>
  </g>
</svg>