<?xml version="1.0" encoding="UTF-8"?>
<svg id="Layer_2" data-name="Layer 2" xmlns="http://www.w3.org/2000/svg" viewBox="0 0 35.07 28.66">
  <defs>
    <style>
      .cls-1 {
        fill: #231f20;
      }

      .cls-2 {
        fill: none;
        stroke: #fff;
        stroke-miterlimit: 10;
        stroke-width: .3px;
      }
    </style>
  </defs>
  <g id="Layer_1-2" data-name="Layer 1">
    <g id="_2945ee0f70" data-name="2945ee0f70">
      <g>
        <g>
          <path class="cls-1" d="M1.48,16.88l.75-.82c.24.24.57.36.9.36h.06c.36-.02.69-.17.94-.43l.86-.94,1.74-2.85L17.9,1.19l9.77,3.04,1.79,2.19.68.26c.15.06.32.09.48.09.19,0,.38-.04.55-.12.33-.15.58-.42.71-.75l1.03.39c-.23.61-.68,1.09-1.28,1.36-.32.15-.65.21-.99.22l.55.68c.08.02.16.02.24.02.55,0,1.05-.33,1.26-.87l1.04.39c-.37.98-1.3,1.58-2.29,1.58-.16,0-.33-.02-.49-.06l-.53,1.83-2.35,1.52-1.14,1.43-2.35-.95v-2.63l-2.07,1.17,2.14,2.41.4,1.97-3.24,3.24-1.83-.86-.51.69-1.79-.5,1.18-1.97,2.41.68.77-1.71-3.47-1.72-5.52,3.12-1.21,2.78-2.85,1.79-.71,1.92-.07,1.73h.77l.35,2.05h-2.8l-.99-4.88.95-2.91-1.13-3.51-.4.43c-.48.52-1.13.78-1.8.78-.59,0-1.18-.21-1.66-.64Z"/>
          <path class="cls-1" d="M1.57,15.46l.62-.66.66.61c.08.07.19.11.29.11h.02c.11,0,.22-.05.3-.14l.81-.87,1.69-2.76.06-.1.08-.07L17.27.54l.38-.38.52.15,9.77,3.04.26.08.17.21,1.63,2.01.46.18s.1.02.15.02.12,0,.18-.04c.11-.05.19-.13.23-.24l.32-.84.85.32,1.04.39.84.32-.32.84c-.06.15-.13.31-.21.46l.49.19.85.32-.32.84c-.47,1.24-1.65,2.09-2.96,2.16l-.33,1.13-.09.32-.29.19-2.22,1.43-1.05,1.31-.42.53-.63-.25-.92-.38.27,1.33.1.47-.34.34-3.24,3.24-.45.45-.57-.27-1.16-.54-.07.1-.37.51-.6-.17-1.79-.51-1.14-.31.61-1.02,1.18-1.96.36-.6.66.19,1.66.47.09-.21-2.27-1.13-4.84,2.74-1.08,2.5-.11.26-.24.15-2.59,1.62-.55,1.49-.03.65h.59l.13.74.35,2.05.18,1.05h-4.61l-.15-.72-.99-4.88-.04-.23.07-.23.86-2.63-.61-1.89c-.52.33-1.13.5-1.77.5-.84,0-1.65-.31-2.27-.88l-.66-.61.61-.66.74-.82ZM2.23,16.07l-.75.82c.47.43,1.07.64,1.66.64.67,0,1.32-.26,1.8-.78l.4-.43,1.13,3.51-.95,2.91.99,4.88h2.8l-.35-2.05h-.77l.07-1.73.71-1.92,2.85-1.79,1.21-2.78,5.52-3.12,3.47,1.72-.77,1.71-2.41-.68-1.18,1.97,1.79.5.51-.69,1.83.86,3.24-3.24-.4-1.97-2.14-2.41,2.07-1.17v2.63l2.35.95,1.14-1.43,2.35-1.52.53-1.83c.16.04.33.06.49.06.99,0,1.92-.6,2.29-1.58l-1.04-.39c-.2.54-.71.87-1.26.87-.07,0-.15,0-.24-.02l-.55-.68c.33,0,.67-.07.99-.22.6-.27,1.05-.75,1.28-1.36l-1.03-.39c-.13.33-.38.6-.71.75-.17.08-.36.12-.55.12-.16,0-.33-.03-.48-.09l-.68-.26-1.79-2.19-9.77-3.04L6.73,12.21l-1.74,2.85-.86.94c-.24.26-.58.42-.94.43h-.06c-.33,0-.66-.12-.9-.36Z"/>
        </g>
        <g>
          <path class="cls-2" d="M17.9,1.19l9.77,3.04,1.79,2.19.68.26c.15.06.32.09.48.09.19,0,.38-.04.55-.12.33-.15.58-.42.71-.75l1.03.39c-.23.61-.68,1.09-1.28,1.36-.32.15-.65.21-.99.22l.55.68c.08.02.16.02.24.02.55,0,1.05-.33,1.26-.87l1.04.39c-.37.98-1.3,1.58-2.29,1.58-.16,0-.33-.02-.49-.06l-.53,1.83-2.35,1.52-1.14,1.43-2.35-.95v-2.63l-2.07,1.17,2.14,2.41.4,1.97-3.24,3.24-1.83-.86-.51.69-1.79-.5,1.18-1.97,2.41.68.77-1.71-3.47-1.72-5.52,3.12-1.21,2.78-2.85,1.79-.71,1.92-.07,1.73h.77l.35,2.05h-2.8l-.99-4.88.95-2.91-1.13-3.51-.4.43c-.48.52-1.13.78-1.8.78-.59,0-1.18-.21-1.66-.64l.75-.82c.24.24.57.36.9.36h.06c.36-.02.69-.17.94-.43l.86-.94,1.74-2.85L17.9,1.19Z"/>
          <path class="cls-2" d="M17.65.17l-.38.38L6.1,11.57l-.08.07-.06.1-1.69,2.76-.81.87c-.08.09-.19.14-.3.14h-.02c-.11,0-.21-.04-.29-.11l-.66-.61-.62.66-.74.82-.61.66.66.61c.62.57,1.43.88,2.27.88.64,0,1.25-.17,1.77-.5l.61,1.89-.86,2.63-.07.23.04.23.99,4.88.15.72h4.61l-.18-1.05-.35-2.05-.13-.74h-.59l.03-.65.55-1.49,2.59-1.62.24-.15.11-.26,1.08-2.5,4.84-2.74,2.27,1.13-.09.21-1.66-.47-.66-.19-.36.6-1.18,1.96-.61,1.02,1.14.31,1.79.51.6.17.37-.51.07-.1,1.16.54.57.27.45-.45,3.24-3.24.34-.34-.1-.47-.27-1.33.92.38.63.25.42-.53,1.05-1.31,2.22-1.43.29-.19.09-.32.33-1.13c1.31-.07,2.49-.92,2.96-2.16l.32-.84-.85-.32-.49-.19c.08-.15.15-.3.21-.46l.32-.84-.84-.32-1.04-.39-.85-.32-.32.84c-.04.11-.12.2-.23.24-.06.03-.12.04-.18.04s-.11,0-.15-.02l-.46-.18-1.63-2.01-.17-.21-.26-.08L18.17.32l-.52-.15Z"/>
        </g>
      </g>
    </g>
  </g>
</svg>