<?xml version="1.0" encoding="UTF-8"?>
<svg id="Layer_2" data-name="Layer 2" xmlns="http://www.w3.org/2000/svg" viewBox="0 0 33.95 28.7">
  <defs>
    <style>
      .cls-1 {
        fill: #231f20;
        stroke: #fff;
        stroke-miterlimit: 10;
        stroke-width: .35px;
      }
    </style>
  </defs>
  <g id="Layer_1-2" data-name="Layer 1">
    <g id="_7b3ed05a18" data-name="7b3ed05a18">
      <g>
        <path class="cls-1" d="M16.98,8.08c.76,0,1.34.51,1.51,1.18-.55.51-1.04,1-1.51,1.51-.47-.51-.96-1-1.52-1.51.17-.67.8-1.18,1.52-1.18Z"/>
        <path class="cls-1" d="M32.65,9c.21,2.39-.71,5.29-2.27,7.1-.59.67-2.65,2.85-5.25,2.85h-.17c-1.3,0-2.53-.29-3.45-.76-.26-.13-.59-.04-.72.25-.13.25-.04.58.25.71,1.05.55,2.39.85,3.78.88,1.68.92,2.43,2.98,1.76,4.83-.37.96-1.09,1.76-2.05,2.22-.97.42-2.02.47-2.99.13-1.68-.76-3.03-2.39-4.04-4.83v-10.61c.92-1.05,2.01-2.06,3.24-2.99,2.31-1.71,8.19-4.82,10.67-2.68.88.75,1.18,1.97,1.22,2.89Z"/>
        <path class="cls-1" d="M16.51,11.73v10.58h-.08c-1.01,2.43-2.35,4.07-4,4.82-1,.38-2.05.34-3.03-.13-.96-.42-1.68-1.22-2.05-2.22-.68-1.8.08-3.86,1.76-4.83,1.43-.04,2.73-.33,3.78-.88.25-.13.38-.47.25-.72s-.47-.37-.72-.25c-.92.47-2.14.76-3.45.76h-.13c-2.56,0-4.66-2.18-5.25-2.85-1.51-1.81-2.47-4.7-2.27-7.05.09-.92.34-2.14,1.22-2.9,2.48-2.09,8.37.96,10.68,2.69.42.34.84.67,1.26,1,.05.05.09.13.17.13.68.59,1.3,1.22,1.85,1.85Z"/>
        <path class="cls-1" d="M16.98,10.77c.47-.51.96-1,1.51-1.51-.17-.67-.75-1.18-1.51-1.18-.72,0-1.35.51-1.52,1.18.55.51,1.05,1,1.52,1.51ZM17.52,22.39c1.01,2.43,2.35,4.07,4.04,4.83.96.34,2.01.29,2.99-.13.96-.46,1.68-1.26,2.05-2.22.67-1.85-.08-3.9-1.76-4.83-1.39-.04-2.73-.34-3.78-.88-.29-.13-.38-.46-.25-.71.13-.29.46-.38.72-.25.92.47,2.14.76,3.45.76h.17c2.61,0,4.66-2.18,5.25-2.85,1.56-1.81,2.48-4.7,2.27-7.1-.04-.92-.33-2.14-1.22-2.89-2.48-2.14-8.37.96-10.67,2.68-1.22.92-2.32,1.94-3.24,2.99v10.61ZM16.51,22.31v-10.58c-.55-.63-1.17-1.26-1.85-1.85-.08,0-.12-.08-.17-.13-.42-.33-.84-.66-1.26-1-2.32-1.72-8.2-4.78-10.68-2.69-.88.76-1.13,1.98-1.22,2.9-.21,2.35.76,5.24,2.27,7.05.59.67,2.69,2.85,5.25,2.85h.13c1.3,0,2.53-.29,3.45-.76.25-.12.59,0,.72.25s0,.59-.25.72c-1.05.55-2.35.84-3.78.88-1.68.96-2.44,3.03-1.76,4.83.37,1,1.09,1.8,2.05,2.22.97.47,2.02.51,3.03.13,1.64-.75,2.99-2.39,4-4.82h.08ZM10.88.19c2.95.55,5.01,3.02,5.72,6.84.13-.05.25-.05.38-.05s.25.05.38.05c.71-3.82,2.77-6.34,5.71-6.84.29-.09.59.13.63.42.09.29-.13.58-.42.63-2.48.46-4.25,2.69-4.88,6.12.42.29.8.67,1,1.14.21-.21.47-.43.72-.59,2.06-1.55,8.74-5.41,12.02-2.64.92.79,1.47,2.05,1.6,3.65.21,2.64-.8,5.87-2.52,7.89-.55.67-2.35,2.56-4.8,3.11,1.35,1.38,1.9,3.44,1.18,5.33-.46,1.26-1.38,2.27-2.6,2.81-.68.3-1.39.47-2.1.47-.59,0-1.18-.13-1.77-.34-1.68-.75-3.07-2.26-4.16-4.41-1.1,2.14-2.48,3.61-4.16,4.37-.59.21-1.22.33-1.81.33-.67,0-1.38-.17-2.05-.46-1.22-.55-2.15-1.56-2.61-2.81-.71-1.89-.21-3.99,1.18-5.33-2.39-.55-4.24-2.43-4.79-3.11C1.05,14.8,0,11.56.2,8.93c.13-1.6.67-2.86,1.6-3.65,3.23-2.77,9.92,1.09,12.02,2.64.25.21.47.38.71.59.21-.47.59-.88,1.01-1.14-.63-3.45-2.39-5.7-4.88-6.12-.29-.05-.47-.34-.42-.63.04-.29.33-.47.62-.42Z"/>
      </g>
    </g>
  </g>
</svg>