<?xml version="1.0" encoding="UTF-8"?>
<svg id="Layer_2" data-name="Layer 2" xmlns="http://www.w3.org/2000/svg" viewBox="0 0 33.53 28.35">
  <defs>
    <style>
      .cls-1 {
        fill: #231f20;
      }

      .cls-2 {
        fill: #fff;
      }
    </style>
  </defs>
  <g id="Layer_1-2" data-name="Layer 1">
    <g id="_7b3ed05a18" data-name="7b3ed05a18">
      <g>
        <g>
          <path class="cls-1" d="M16.77,7.98c.75,0,1.33.5,1.49,1.16-.54.5-1.03.99-1.49,1.49-.46-.5-.95-.99-1.5-1.49.16-.66.79-1.16,1.5-1.16Z"/>
          <path class="cls-2" d="M16.77,10.89l-.13-.14c-.47-.51-.96-1-1.49-1.48l-.08-.07.02-.1c.19-.75.89-1.29,1.67-1.29s1.47.52,1.66,1.29l.02.1-.07.07c-.54.5-1.02.98-1.48,1.48l-.13.14ZM15.47,9.09c.46.42.89.85,1.3,1.29.41-.43.83-.86,1.3-1.29-.18-.56-.69-.94-1.3-.94s-1.12.39-1.3.94Z"/>
        </g>
        <g>
          <path class="cls-1" d="M32.25,8.9c.21,2.36-.7,5.22-2.24,7.01-.59.66-2.61,2.82-5.19,2.82h-.16c-1.29,0-2.5-.29-3.4-.75-.26-.12-.59-.04-.71.25-.12.25-.04.58.25.7,1.04.54,2.36.84,3.74.87,1.66.91,2.4,2.94,1.74,4.77-.37.95-1.08,1.74-2.03,2.19-.96.41-2,.46-2.95.12-1.66-.75-2.99-2.36-3.99-4.77v-10.48c.91-1.04,1.99-2.04,3.2-2.95,2.28-1.69,8.09-4.76,10.54-2.65.87.74,1.16,1.94,1.2,2.86Z"/>
          <path class="cls-2" d="M22.59,27.28c-.46,0-.92-.08-1.36-.23-1.69-.76-3.07-2.4-4.09-4.87v-.07s-.01-10.55-.01-10.55l.04-.05c.94-1.07,2.02-2.07,3.23-2.97,2.42-1.8,8.24-4.81,10.76-2.64,1.06.9,1.24,2.38,1.26,2.98.21,2.39-.73,5.32-2.28,7.13-.95,1.08-2.9,2.88-5.32,2.88h-.16c-1.27,0-2.51-.27-3.48-.77-.09-.04-.19-.05-.29-.01-.06.02-.14.07-.19.18-.05.1-.05.2-.02.29.02.06.07.14.18.19,1,.52,2.3.82,3.67.86l.08.02c1.72.95,2.51,3.09,1.82,4.98-.39,1.01-1.14,1.83-2.12,2.29-.56.24-1.15.36-1.73.36ZM17.48,22.08c.99,2.37,2.3,3.93,3.89,4.65.89.31,1.89.27,2.81-.13.89-.42,1.58-1.17,1.94-2.1.62-1.72-.08-3.66-1.63-4.53-1.41-.05-2.75-.36-3.77-.89-.16-.07-.29-.21-.36-.38-.07-.18-.05-.38.03-.55.07-.16.21-.29.38-.36.18-.07.38-.06.56.03.93.47,2.11.73,3.33.73h.16c2.29,0,4.15-1.73,5.06-2.76,1.5-1.74,2.4-4.57,2.2-6.88h0c-.02-.56-.18-1.93-1.14-2.74-2.34-2.02-8.07.98-10.33,2.65-1.16.88-2.22,1.85-3.13,2.88v10.38Z"/>
        </g>
        <g>
          <path class="cls-1" d="M16.31,11.59v10.45h-.08c-1,2.4-2.33,4.02-3.95,4.76-.99.37-2.03.34-2.99-.12-.95-.41-1.66-1.2-2.03-2.19-.67-1.78.08-3.82,1.74-4.77,1.41-.04,2.7-.33,3.74-.87.25-.12.37-.46.25-.71s-.46-.37-.71-.25c-.91.46-2.12.75-3.4.75h-.12c-2.53,0-4.6-2.15-5.19-2.82-1.49-1.79-2.44-4.64-2.24-6.96.09-.91.34-2.12,1.2-2.86,2.45-2.07,8.27.95,10.55,2.65.41.34.83.66,1.24.99.05.05.09.12.16.12.67.59,1.29,1.2,1.83,1.83Z"/>
          <path class="cls-2" d="M10.92,27.23c-.58,0-1.15-.13-1.7-.4-.97-.42-1.73-1.24-2.12-2.29-.7-1.85.08-3.99,1.82-4.98l.08-.02c1.4-.04,2.67-.33,3.66-.85.09-.04.15-.12.19-.22.03-.09.03-.18-.01-.26-.08-.17-.32-.25-.48-.17-.97.49-2.21.77-3.48.77h-.12c-2.51,0-4.56-2.01-5.32-2.88-1.55-1.86-2.49-4.77-2.28-7.09.13-1.38.54-2.36,1.26-2.98,2.53-2.13,8.45.92,10.77,2.65.42.34.83.67,1.24.99.03.03.05.05.06.06,0,.01.02.03.03.03h.07l.02.03c.68.59,1.3,1.21,1.84,1.84l.04.05v10.69h-.14c-1.02,2.4-2.36,4-3.99,4.75-.48.18-.96.27-1.43.27ZM9.05,19.89c-1.56.92-2.26,2.86-1.63,4.54.36.96,1.04,1.71,1.94,2.1.92.44,1.91.48,2.86.12,1.56-.71,2.86-2.29,3.85-4.67l.07-.11v-10.21c-.51-.59-1.09-1.17-1.73-1.73-.09-.03-.15-.1-.19-.14-.42-.34-.84-.67-1.25-1.01-2.24-1.67-7.96-4.66-10.33-2.66-.65.56-1.02,1.46-1.14,2.75-.2,2.24.71,5.05,2.2,6.83.57.64,2.62,2.76,5.06,2.76h.12c1.22,0,2.4-.26,3.32-.73.34-.16.78,0,.94.33.08.16.09.34.03.52-.06.18-.19.34-.36.42-1.03.53-2.33.84-3.77.88Z"/>
        </g>
        <g>
          <path class="cls-1" d="M16.77,10.64c.46-.5.95-.99,1.49-1.49-.16-.66-.74-1.16-1.49-1.16-.71,0-1.33.5-1.5,1.16.55.5,1.04.99,1.5,1.49ZM17.31,22.12c1,2.4,2.33,4.02,3.99,4.77.95.34,1.99.29,2.95-.12.95-.45,1.66-1.24,2.03-2.19.66-1.83-.08-3.86-1.74-4.77-1.37-.04-2.7-.34-3.74-.87-.29-.12-.37-.45-.25-.7.12-.29.45-.37.71-.25.91.46,2.12.75,3.4.75h.16c2.58,0,4.6-2.15,5.19-2.82,1.54-1.79,2.45-4.64,2.24-7.01-.04-.91-.33-2.12-1.2-2.86-2.45-2.12-8.27.95-10.54,2.65-1.21.91-2.29,1.91-3.2,2.95v10.48ZM16.31,22.04v-10.45c-.54-.62-1.16-1.24-1.83-1.83-.08,0-.12-.08-.16-.12-.41-.33-.83-.66-1.24-.99-2.29-1.7-8.1-4.72-10.55-2.65-.87.75-1.12,1.95-1.2,2.86-.2,2.32.75,5.17,2.24,6.96.59.66,2.66,2.82,5.19,2.82h.12c1.29,0,2.5-.29,3.4-.75.25-.12.59,0,.71.25s0,.59-.25.71c-1.04.54-2.33.83-3.74.87-1.66.95-2.41,2.99-1.74,4.77.37.99,1.08,1.78,2.03,2.19.96.46,2,.5,2.99.12,1.62-.74,2.95-2.36,3.95-4.76h.08ZM10.74.19c2.91.54,4.95,2.98,5.65,6.76.12-.05.25-.05.37-.05s.25.05.37.05c.7-3.78,2.74-6.26,5.64-6.76.29-.09.59.12.62.41.09.29-.12.58-.41.62-2.45.45-4.2,2.65-4.82,6.05.41.29.79.66.99,1.12.21-.21.46-.42.71-.59,2.04-1.53,8.63-5.35,11.87-2.61.91.78,1.45,2.03,1.58,3.61.21,2.61-.79,5.8-2.49,7.79-.54.66-2.33,2.53-4.74,3.07,1.33,1.37,1.87,3.4,1.16,5.26-.45,1.25-1.37,2.24-2.57,2.78-.67.3-1.37.46-2.08.46-.59,0-1.16-.12-1.75-.34-1.66-.74-3.03-2.23-4.11-4.36-1.08,2.12-2.45,3.57-4.11,4.32-.59.2-1.2.33-1.79.33-.66,0-1.37-.16-2.03-.45-1.21-.54-2.12-1.54-2.58-2.78-.7-1.87-.21-3.94,1.16-5.26-2.36-.54-4.19-2.4-4.73-3.07C1.03,14.62,0,11.42.2,8.82c.12-1.58.66-2.83,1.58-3.61,3.19-2.74,9.8,1.08,11.87,2.61.25.21.46.37.7.59.21-.46.59-.87,1-1.12-.62-3.4-2.36-5.64-4.82-6.05-.29-.05-.46-.34-.41-.62.04-.29.33-.46.62-.41Z"/>
          <path class="cls-2" d="M22.62,28.35c-.57,0-1.16-.11-1.81-.35-1.6-.71-2.96-2.1-4.05-4.15-1.08,2-2.44,3.38-4.04,4.1-.65.23-1.29.34-1.86.34-.67,0-1.4-.16-2.1-.47-1.25-.56-2.2-1.58-2.67-2.88-.68-1.81-.29-3.83.99-5.23-2.08-.58-3.81-2.17-4.53-3.05C.86,14.68-.18,11.45.03,8.8c.13-1.63.7-2.92,1.64-3.72,3.24-2.78,9.82.93,12.09,2.6.11.09.21.17.3.25.08.07.16.13.25.2.21-.37.52-.7.86-.93-.63-3.29-2.33-5.4-4.65-5.8-.37-.06-.62-.43-.56-.82.02-.17.11-.32.26-.42.16-.12.36-.16.56-.13h0c2.92.54,5.01,2.99,5.76,6.72.16-.02.31-.01.46.02,0,0,.01,0,.02,0C17.75,2.98,19.84.52,22.76.02c.16-.05.36-.02.52.09.17.11.28.28.31.48.05.15.02.34-.08.5-.11.17-.28.29-.48.32-2.34.43-4.03,2.54-4.65,5.8.37.28.66.58.85.91.19-.17.38-.32.57-.44,2.07-1.56,8.77-5.39,12.08-2.59.94.81,1.51,2.09,1.64,3.72.22,2.67-.83,5.92-2.53,7.92-.2.24-1.97,2.36-4.54,3.05,1.27,1.45,1.67,3.47,1,5.23-.47,1.3-1.41,2.32-2.66,2.87-.71.32-1.44.48-2.15.48ZM16.77,23.1l.15.3c1.08,2.13,2.43,3.57,4.02,4.28.6.21,1.15.32,1.68.32.66,0,1.34-.15,2.01-.45,1.16-.52,2.04-1.47,2.48-2.68.65-1.72.21-3.71-1.12-5.08l-.22-.22.3-.07c2.61-.58,4.44-2.76,4.64-3.01,1.65-1.93,2.66-5.09,2.45-7.67-.12-1.54-.65-2.74-1.52-3.49-3.14-2.65-9.63,1.09-11.66,2.61-.23.15-.48.35-.69.57l-.18.18-.1-.23c-.17-.39-.48-.74-.93-1.05l-.09-.06.02-.11c.63-3.47,2.44-5.72,4.95-6.19.1-.02.19-.08.24-.16.05-.08.06-.16.04-.25-.02-.12-.07-.2-.16-.26-.08-.05-.17-.06-.25-.04-2.82.49-4.83,2.9-5.52,6.63l-.03.14h-.14c-.07,0-.15-.01-.22-.03-.17-.03-.33-.04-.47.02l-.19.07-.04-.2c-.69-3.69-2.69-6.1-5.51-6.62-.11-.02-.22,0-.3.07-.05.03-.11.1-.12.2-.02.1,0,.21.06.29.05.08.13.13.21.14,2.51.42,4.31,2.68,4.96,6.19l.02.12-.1.06c-.39.24-.74.63-.93,1.05l-.1.21-.17-.15c-.14-.12-.27-.23-.41-.34-.1-.08-.19-.16-.3-.24-2.19-1.61-8.57-5.24-11.65-2.61-.88.74-1.4,1.95-1.52,3.49-.2,2.56.81,5.69,2.46,7.63.72.89,2.51,2.53,4.64,3.01l.31.07-.23.22c-1.35,1.3-1.79,3.29-1.12,5.08.44,1.21,1.32,2.17,2.48,2.68.66.29,1.34.44,1.96.44.53,0,1.13-.11,1.73-.32,1.59-.72,2.94-2.14,4.02-4.23l.15-.3ZM22.59,27.28c-.46,0-.92-.08-1.36-.23-1.69-.76-3.07-2.4-4.09-4.87v-.07s-.01-10.55-.01-10.55l.04-.05c.94-1.07,2.02-2.07,3.23-2.97,2.42-1.8,8.24-4.81,10.76-2.64,1.06.9,1.24,2.38,1.26,2.98.21,2.39-.73,5.32-2.28,7.13-.95,1.08-2.9,2.88-5.32,2.88h-.16c-1.27,0-2.51-.27-3.48-.77-.09-.04-.19-.05-.29-.01-.06.02-.14.07-.19.18-.05.1-.05.2-.02.29.02.06.07.14.18.19,1,.52,2.3.82,3.67.86l.08.02c1.72.95,2.51,3.09,1.82,4.98-.39,1.01-1.14,1.83-2.12,2.29-.56.24-1.15.36-1.73.36ZM17.48,22.08c.99,2.37,2.3,3.93,3.89,4.65.89.31,1.89.27,2.81-.13.89-.42,1.58-1.17,1.94-2.1.62-1.72-.08-3.66-1.63-4.53-1.41-.05-2.75-.36-3.77-.89-.16-.07-.29-.21-.36-.38-.07-.18-.05-.38.03-.55.07-.16.21-.29.38-.36.18-.07.38-.06.56.03.93.47,2.11.73,3.33.73h.16c2.29,0,4.15-1.73,5.06-2.76,1.5-1.74,2.4-4.57,2.2-6.88-.02-.56-.18-1.93-1.14-2.74-2.34-2.02-8.07.98-10.33,2.65-1.16.88-2.22,1.85-3.13,2.88v10.38ZM10.92,27.23c-.58,0-1.15-.13-1.7-.4-.97-.42-1.73-1.24-2.12-2.29-.7-1.85.08-3.99,1.82-4.98l.08-.02c1.4-.04,2.67-.33,3.66-.85.09-.04.15-.12.19-.22.03-.09.03-.18-.01-.26-.08-.17-.32-.25-.48-.17-.97.49-2.21.77-3.48.77h-.12c-2.51,0-4.56-2.01-5.32-2.88-1.55-1.86-2.49-4.77-2.28-7.09.13-1.38.54-2.36,1.26-2.98,2.53-2.13,8.45.92,10.77,2.65.42.34.83.67,1.24.99.03.03.05.05.06.06,0,.01.02.03.03.03h.07l.02.03c.68.59,1.3,1.21,1.84,1.84l.04.05v10.69h-.14c-1.02,2.4-2.36,4-3.99,4.75-.48.18-.96.27-1.43.27ZM9.05,19.89c-1.56.92-2.26,2.86-1.63,4.54.36.97,1.04,1.71,1.94,2.1.92.44,1.91.48,2.86.12,1.56-.71,2.86-2.29,3.85-4.67l.07-.11v-10.21c-.51-.59-1.09-1.17-1.73-1.73-.09-.03-.15-.1-.19-.14-.42-.34-.84-.67-1.25-1.01-2.24-1.67-7.96-4.66-10.33-2.66-.65.56-1.02,1.46-1.14,2.75-.2,2.24.71,5.05,2.2,6.83.57.64,2.62,2.76,5.06,2.76h.12c1.22,0,2.4-.26,3.32-.73.34-.16.78,0,.94.33.08.16.09.34.03.52-.06.18-.19.34-.36.42-1.03.53-2.33.84-3.77.88ZM16.77,10.89l-.13-.14c-.47-.51-.96-1-1.49-1.48l-.08-.07.02-.1c.19-.75.89-1.29,1.67-1.29s1.47.52,1.66,1.29l.02.1-.07.07c-.54.5-1.02.98-1.48,1.48l-.13.14ZM15.47,9.09c.46.42.89.85,1.3,1.29.41-.43.83-.86,1.3-1.29-.18-.56-.69-.94-1.3-.94s-1.12.39-1.3.94Z"/>
        </g>
      </g>
    </g>
  </g>
</svg>