<?xml version="1.0" encoding="UTF-8"?>
<svg id="Layer_2" data-name="Layer 2" xmlns="http://www.w3.org/2000/svg" viewBox="0 0 28.88 28.7">
  <defs>
    <style>
      .cls-1 {
        fill: #231f20;
        stroke: #fff;
        stroke-miterlimit: 10;
        stroke-width: .35px;
      }
    </style>
  </defs>
  <g id="Layer_1-2" data-name="Layer 1">
    <g>
      <path class="cls-1" d="M14.22,14.55c-.09.54-.54,1.42-.85,1.99.83-1.92.83-2.42.79-2.46l.09-5.45c0-.09.09-.19.19-.19s.19.09.19.19l.1,5.41c0,.07-.03.57.72,2.4-.29-.57-.7-1.36-.79-1.86-.03-.16-.06-.35-.22-.35s-.19.16-.22.32Z"/>
      <path class="cls-1" d="M12.29,7.9s-.69-.56-.76-2.01c0,0,.07-.25.38-.25,0,0,.25-.03.34.19-.03-.03-.09,1.54.22,2.05,0,0,.09.15.03.19,0,0-.03.03-.22-.16Z"/>
      <path class="cls-1" d="M17.38,5.86c-.07,1.48-.76,2.02-.76,2.02-.19.15-.22.15-.22.15-.06-.03.03-.19.03-.19.28-.47.22-2.05.22-2.05.09-.22.34-.19.34-.19.29,0,.38.25.38.25Z"/>
      <path class="cls-1" d="M18.73,22.7c.54-.09,1.07-.19,1.64-.32-.41.66-.72,1.32-.92,1.99-.19.03-.38.09-.56.13v-.09c0-.51-.25-.92-.66-1.17.22-.13.38-.32.5-.54Z"/>
      <path class="cls-1" d="M18.89,15.08c0-.44-.22-.82-.54-1.07,4.64-.66,7.7-2.26,8.14-2.52-.03,1.19-.6,2.27-1.26,3.27-.38.19-2.84,1.36-6.57,1.95-.09-.19-.25-.35-.44-.47.38-.25.66-.66.66-1.17Z"/>
      <path class="cls-1" d="M18.8,20.24c1.7-.28,2.97-.66,3.6-.85-.15.32-.28.56-.41.82-.48.56-.91,1.13-1.29,1.66-.6.16-1.23.25-1.8.35,0-.07.03-.13.03-.22,0-.5-.25-.91-.66-1.17.21-.12.41-.34.54-.6Z"/>
      <path class="cls-1" d="M22.62,18.95c-.35.13-1.74.6-3.72.95v-.16c0-.5-.25-.91-.66-1.16.38-.25.66-.66.66-1.17,0-.09,0-.19-.03-.28,3.09-.47,5.18-1.32,5.9-1.67-.06.09-.13.16-.15.25,0,.03-.98,1.29-1.99,3.24Z"/>
      <path class="cls-1" d="M17.22,3.09c1.01-1.64,1.99-1.11,1.99-1.11-.22,2.3-1.99,1.11-1.99,1.11Z"/>
      <path class="cls-1" d="M17.53,21.13c.54,0,.95.44.95.97,0,.5-.41.95-.95.95h-6.09c-.54,0-.95-.44-.95-.98s.44-.94.95-.94h6.09Z"/>
      <path class="cls-1" d="M17.53,18.79c.54,0,.95.44.95.98,0,.5-.41.95-.95.95h-6.09c-.54,0-.95-.44-.95-.98s.44-.95.95-.95h6.09Z"/>
      <path class="cls-1" d="M17.53,14.11c.51,0,.95.44.95.97s-.44.95-.95.95h-1.93c-.38-.98-.5-1.51-.56-1.76.88-.03,1.7-.06,2.49-.15Z"/>
      <path class="cls-1" d="M18.48,24.4c0,.53-.44.94-.95.94h-6.09c-.54,0-.95-.44-.95-.97s.44-.95.95-.95h6.09c.54,0,.95.44.95.98Z"/>
      <path class="cls-1" d="M16.27,4.79c.63-1.01.95-.19.95-.19.13.47-.91.19-.95.19Z"/>
      <path class="cls-1" d="M17.22,3.09s1.77,1.19,1.99-1.11c0,0-.98-.53-1.99,1.11ZM16.27,4.79s1.07.28.95-.19c0,0-.32-.82-.95.19ZM17.12,5.14c-.25-.07-.32.09-.63.03-.19-.03-.38-.06-.66-.09.32-.44.44-1.01.54-1.42.89.63,1.87.76,2.59.76.6,0,1.04-.09,1.07-.13.09-.03.13-.09.09-.19s-.09-.13-.19-.09c-.03,0-1.93.47-3.5-.7.03-.19.03-.31.03-.38.13-.34.92-1.1,1.58-1.66,1.01-.48,2.05,1.16,2.08,1.19l.09.15.16.03c.57.13,1.13.28,1.64.44-.16.66.19,1.13,1.07,1.48.56.22,1.19.19,1.7-.28.38.22.76.47,1.07.76-.25.38-.13.78.35,1.29.28.32.66.5,1.1.44.13.25.25.47.35.72,1.33,3.97-2.46,8.82-2.52,8.88-.76,1.01-1.52,1.92-2.27,2.8-.03.02-.05.06-.07.09,1.03-2.03,2.03-3.37,2.06-3.37.98-1.38,2.05-2.9,1.99-4.69,0-1.82-.73-5.7-6.41-5.45,0,0-.28,0-.32.32,0,0-.09,1.17-.25,1.51-.13.29-.44.48-.44.48-.13.09-.07.13-.07.13.03.06.13,0,.13,0,.82-.35.95-1.32.95-1.32.03-.25.35-.25.35-.25.83-.09,2.5.22,2.5.22.79.19,1.42.6,1.87,1.07-.79.35-3.88,1.7-7.08,1.93.29-.51.6-.85.79-1.04.06-.07.06-.19,0-.25-.06-.06-.19-.06-.25,0-.38.38-1.29,1.42-1.45,2.93,0,0-.19.98-2.18,1.07v-.6c1.77-.16,1.83-1.26,1.83-1.26.19-2.11,1.99-3.46,1.99-3.46.63-.6.75-1.48.75-1.48.35-.16.7-.76.7-.76,0,0,.06-.09.03-.15,0,0-.07-.07-.13.03,0,0-1.14,1.2-2.62.54-.06-.03-.15-.19-.41-.25Z"/>
      <path class="cls-1" d="M17.53,13.7c-.82.09-1.64.15-2.52.15l-.03-1.01c2.31-.13,2.53-1.32,2.53-1.39.06-.47.19-.88.34-1.25,3.51-.19,6.95-1.73,7.55-2.01.72.91,1.01,2.07,1.07,2.86-.47.29-3.88,2.08-8.94,2.65Z"/>
      <path class="cls-1" d="M14.19,1.55s.06-.16.28-.16c.19,0,.25.13.25.16l-.19,1.07s-.03.13-.06.13-.06-.09-.06-.13c-.03-.03-.25-.91-.22-1.07Z"/>
      <path class="cls-1" d="M14.44,5.11c-.35,0-.66-.03-.89-.03-.38-.41-.56-1.01-.63-1.48.29-.03.7-.03,1.2-.03h.63c.51,0,.92,0,1.2.03-.06.47-.25,1.07-.63,1.48-.25,0-.54,0-.89.03Z"/>
      <path class="cls-1" d="M11.44,14.14c.76.09,1.58.13,2.4.16-.03.22-.19.75-.57,1.76h-1.83c-.54,0-.95-.44-.95-.97s.44-.95.95-.95Z"/>
      <path class="cls-1" d="M15.73,16.44h1.74c.54,0,.95.44.95.97.06.54-.35.98-.89.98h-6.09c-.54,0-.95-.44-.95-.98s.44-.95.95-.95h1.68c-.07.19-.16.38-.25.57-.16.34-.16.5-.03.56l.06.03h.03c.16,0,.29-.13.42-.41.03-.03.21-.35.44-.78h1.33c.22.44.41.75.41.78.16.28.29.41.41.41h.07l.03-.03c.13-.06.13-.22-.03-.6-.09-.22-.16-.41-.25-.56Z"/>
      <path class="cls-1" d="M14.19,1.55c-.03.15.19,1.04.22,1.07,0,.03.03.13.06.13s.06-.13.06-.13l.19-1.07s-.07-.16-.25-.16c-.22,0-.28.13-.28.16ZM14.51,1.01c1.45-.06,2.49.13,2.93.22-.56.5-1.32,1.23-1.42,1.64v.34c-.32-.03-.72-.03-1.26-.03h-.63c-.54,0-.95,0-1.26.03v-.34c-.09-.41-.85-1.13-1.42-1.64.44-.09,1.48-.28,2.94-.22h.13Z"/>
      <path class="cls-1" d="M11.66,4.6s.32-.82.95.19c0,0-1.07.28-.95-.19Z"/>
      <path class="cls-1" d="M13.9,12.85l-.03,1.01c-6.29-.09-10.74-2.4-11.5-2.8.07-.78.32-1.95,1.07-2.86.6.28,4.05,1.82,7.55,2.01.16.38.28.78.35,1.25,0,.07.22,1.29,2.56,1.39Z"/>
      <path class="cls-1" d="M13.3,27.7c-1.11,0-1.96-.15-2.56-.5-.19-.13-.28-.28-.28-.56,0-.48.44-.89.95-.89h6.1c.54,0,.95.41.95.89.03.25-.03.38-.19.5-.16.09-.32.15-.48.25-.03,0-.06.03-.09.03-.54.19-1.23.28-2.11.28h-2.27Z"/>
      <path class="cls-1" d="M11.66,3.09s-1.77,1.19-1.99-1.11c0,0,.98-.53,1.99,1.11Z"/>
      <path class="cls-1" d="M10.74,23.23c-.38.25-.66.66-.66,1.17v.09c-.29-.07-.51-.16-.66-.19-.19-.66-.5-1.29-.92-1.95.44.09,1.05.21,1.74.34.13.22.29.41.5.54Z"/>
      <path class="cls-1" d="M10.71,20.87c-.38.25-.66.66-.66,1.17v.19c-.82-.13-1.48-.28-1.93-.41-.35-.5-.76-1.04-1.23-1.6-.12-.29-.25-.54-.38-.79.6.19,1.93.57,3.66.85.13.25.32.47.54.6Z"/>
      <path class="cls-1" d="M6.07,19.3s-.05-.09-.06-.13c.03.03.06.06.06.13Z"/>
      <path class="cls-1" d="M4.08,15.46c.73.35,2.84,1.2,6,1.7-.03.09-.03.19-.03.28,0,.5.25.91.66,1.16-.38.25-.66.66-.66,1.17v.13c-2.09-.35-3.54-.82-3.82-.91-.98-1.99-1.93-3.27-1.96-3.27-.07-.09-.13-.16-.19-.25Z"/>
      <path class="cls-1" d="M10.71,16.25c-.19.12-.35.28-.48.47-3.78-.6-6.31-1.8-6.66-1.95-.66-.97-1.2-2.05-1.26-3.24.63.32,3.7,1.86,8.27,2.48-.32.25-.54.63-.54,1.07,0,.5.25.91.66,1.17Z"/>
      <path class="cls-1" d="M9.67,1.99c.22,2.3,1.99,1.11,1.99,1.11-1.01-1.64-1.99-1.11-1.99-1.11ZM11.66,4.6c-.13.47.95.19.95.19-.63-1.01-.95-.19-.95-.19ZM12.55,3.62c.06.44.22.98.54,1.42-.29.03-.48.06-.66.09-.32.06-.38-.07-.63-.03-.29.06-.35.22-.41.25-1.49.66-2.62-.53-2.62-.53-.09-.09-.13-.03-.13-.03-.03.03.03.15.03.15,0,0,.35.57.69.76,0,0,.13.88.76,1.48,0,0,1.83,1.36,1.99,3.47,0,0,.03,1.1,1.83,1.25v.6c-2.02-.09-2.21-1.07-2.21-1.07-.15-1.51-1.07-2.55-1.45-2.93-.07-.07-.19-.07-.25,0-.06.06-.06.19,0,.25.19.19.51.54.79,1.04-3.19-.22-6.29-1.54-7.07-1.92.47-.48,1.07-.85,1.87-1.07,0,0,1.67-.34,2.49-.22,0,0,.32,0,.35.25,0,0,.13.97.95,1.32,0,0,.09.03.13,0,0,0,.06-.03-.06-.13,0,0-.32-.19-.44-.47-.16-.35-.25-1.52-.25-1.52-.03-.31-.32-.31-.32-.31-5.68-.25-6.44,3.62-6.41,5.44-.07,1.8,1.01,3.34,1.99,4.72,0,.03.97,1.29,1.98,3.25-.76-.88-1.51-1.78-2.26-2.78-.03-.06-3.85-4.91-2.44-8.9.09-.29.22-.54.35-.79.5.16.95-.03,1.26-.38.51-.54.6-.97.29-1.38.28-.22.6-.44.95-.66.5.48,1.13.5,1.7.28.89-.34,1.23-.78,1.07-1.48.5-.15,1.07-.32,1.64-.44l.15-.03.09-.16s.83-1.29,1.71-1.29c.12,0,.25.03.38.09.66.56,1.48,1.36,1.58,1.67,0,.06,0,.19.03.38-1.58,1.16-3.48.69-3.5.69-.09-.03-.16.03-.19.09-.03.09.03.16.1.19.03,0,.47.13,1.07.13.69,0,1.67-.15,2.56-.76Z"/>
      <path class="cls-1" d="M6.01,19.18s.04.09.06.13c0-.07-.03-.1-.06-.13ZM10.05,22.04c0-.5.28-.91.66-1.17-.22-.13-.41-.34-.54-.6-1.74-.28-3.07-.66-3.66-.85.13.25.25.5.38.79.48.56.89,1.1,1.23,1.6.44.13,1.11.28,1.93.41v-.19ZM10.08,24.4c0-.51.28-.92.66-1.17-.21-.13-.38-.32-.5-.54-.69-.13-1.29-.25-1.74-.34.42.66.73,1.29.92,1.95.15.03.38.13.66.19v-.09ZM10.08,26.64c0-.44.25-.85.66-1.07-.21-.15-.41-.35-.54-.6-.25-.06-.47-.13-.66-.19.03.19.06.38.09.56.03.5.19.95.44,1.29ZM10.08,17.16c-3.16-.5-5.27-1.36-6-1.7.07.09.13.16.19.25.03,0,.98,1.29,1.96,3.27.28.09,1.73.56,3.82.91v-.13c0-.5.28-.91.66-1.17-.41-.25-.66-.66-.66-1.16,0-.09,0-.19.03-.28ZM10.59,14.01c-4.58-.62-7.64-2.17-8.27-2.48.06,1.19.6,2.27,1.26,3.24.35.15,2.88,1.36,6.66,1.95.13-.19.29-.35.48-.47-.41-.25-.66-.66-.66-1.17,0-.44.22-.82.54-1.07ZM26.5,11.49c-.44.25-3.5,1.86-8.14,2.52.32.25.54.63.54,1.07,0,.5-.29.91-.66,1.17.19.12.35.28.44.47,3.72-.6,6.19-1.76,6.57-1.95.66-1.01,1.23-2.08,1.26-3.27ZM14.44,14.92c-.13.35-.28.76-.47,1.13h.95c-.19-.38-.35-.78-.48-1.13ZM11.92,5.64c-.32,0-.38.25-.38.25.07,1.45.76,2.01.76,2.01.19.19.22.16.22.16.06-.03-.03-.19-.03-.19-.32-.5-.25-2.08-.22-2.05-.09-.22-.34-.19-.34-.19ZM13.87,13.86l.03-1.01c-2.33-.09-2.56-1.32-2.56-1.39-.07-.47-.19-.88-.35-1.25-3.5-.19-6.94-1.73-7.55-2.01-.76.91-1.01,2.07-1.07,2.86.76.41,5.21,2.71,11.5,2.8ZM14.47,7.88c-.32,0-.57.25-.57.56,0,.13.03.22.09.32v-.15c0-.29.22-.48.48-.48s.44.22.47.48v.15c.07-.09.1-.19.1-.32,0-.32-.25-.56-.57-.56ZM13.37,16.53c.32-.57.76-1.45.85-1.99.03-.15.07-.32.22-.32s.19.19.22.35c.09.5.5,1.29.79,1.86-.76-1.82-.72-2.33-.72-2.4l-.1-5.41c0-.09-.09-.19-.19-.19s-.19.09-.19.19l-.09,5.45s.03.54-.79,2.46ZM17.53,20.72c.54,0,.95-.44.95-.95,0-.54-.41-.98-.95-.98h-6.09c-.5,0-.95.41-.95.95s.41.98.95.98h6.09ZM17.53,23.05c.54,0,.95-.44.95-.95,0-.54-.41-.97-.95-.97h-6.09c-.5,0-.95.41-.95.94s.41.98.95.98h6.09ZM17.53,25.34c.51,0,.95-.41.95-.94s-.41-.98-.95-.98h-6.09c-.5,0-.95.41-.95.95s.41.97.95.97h6.09ZM18.89,19.9c1.99-.35,3.37-.82,3.72-.95,1.01-1.95,1.99-3.21,1.99-3.24.03-.09.09-.16.15-.25-.72.35-2.81,1.2-5.9,1.67.03.09.03.19.03.28,0,.5-.29.91-.66,1.17.41.25.66.66.66,1.16v.16ZM22.4,19.4c-.63.19-1.89.56-3.6.85-.13.25-.32.48-.54.6.41.25.66.66.66,1.17,0,.09-.03.15-.03.22.56-.09,1.19-.19,1.8-.35.38-.54.82-1.1,1.29-1.66.13-.25.25-.5.41-.82ZM18.89,26.51c.22-.32.34-.69.38-1.17,0-.19.03-.34.09-.54-.19.03-.38.1-.56.13-.13.25-.32.48-.57.63.38.19.6.54.66.95ZM20.38,22.38c-.57.13-1.11.22-1.64.32-.13.22-.28.41-.5.54.41.25.66.66.66,1.17v.09c.19-.03.38-.09.56-.13.19-.66.51-1.32.92-1.99ZM10.74,27.2c.6.35,1.46.5,2.56.5h2.27c.88,0,1.58-.09,2.11-.28.03,0,.06-.03.09-.03.16-.09.32-.15.48-.25.15-.13.21-.25.19-.5,0-.48-.41-.89-.95-.89h-6.1c-.5,0-.95.41-.95.89,0,.28.09.44.28.56ZM13.08,5.05c-.32-.44-.48-.98-.54-1.42-.89.6-1.87.76-2.56.76-.6,0-1.05-.13-1.07-.13-.07-.03-.13-.09-.1-.19.03-.06.1-.13.19-.09.03,0,1.93.47,3.5-.69-.03-.19-.03-.32-.03-.38-.09-.32-.91-1.11-1.58-1.67-.13-.06-.25-.09-.38-.09-.89,0-1.71,1.29-1.71,1.29l-.09.16-.15.03c-.57.13-1.14.29-1.64.44.16.69-.19,1.13-1.07,1.48-.57.22-1.2.19-1.7-.28-.35.22-.66.44-.95.66.32.41.22.85-.29,1.38-.32.35-.76.54-1.26.38-.13.25-.25.5-.35.79-1.42,3.99,2.4,8.84,2.44,8.9.75,1,1.5,1.91,2.26,2.78-1.01-1.97-1.98-3.22-1.98-3.25-.98-1.38-2.05-2.93-1.99-4.72-.03-1.82.72-5.7,6.41-5.44,0,0,.28,0,.32.31,0,0,.09,1.17.25,1.52.13.28.44.47.44.47.12.09.06.13.06.13-.03.03-.13,0-.13,0-.82-.35-.95-1.32-.95-1.32-.03-.25-.35-.25-.35-.25-.82-.12-2.49.22-2.49.22-.79.22-1.4.6-1.87,1.07.78.38,3.88,1.7,7.07,1.92-.28-.5-.6-.85-.79-1.04-.06-.06-.06-.19,0-.25.07-.07.19-.07.25,0,.38.38,1.29,1.42,1.45,2.93,0,0,.19.97,2.21,1.07v-.6c-1.8-.15-1.83-1.25-1.83-1.25-.16-2.11-1.99-3.47-1.99-3.47-.63-.6-.76-1.48-.76-1.48-.34-.19-.69-.76-.69-.76,0,0-.06-.12-.03-.15,0,0,.03-.06.13.03,0,0,1.13,1.19,2.62.53.06-.03.12-.19.41-.25.25-.03.32.09.63.03.19-.03.38-.07.66-.09ZM11.44,16.06h1.83c.38-1.01.54-1.54.57-1.76-.83-.03-1.64-.07-2.4-.16-.5,0-.95.41-.95.95s.41.97.95.97ZM15.32,5.07c.38-.41.57-1.01.63-1.48-.28-.03-.69-.03-1.2-.03h-.63c-.5,0-.91,0-1.2.03.07.47.25,1.07.63,1.48.22,0,.54.03.89.03.35-.03.63-.03.89-.03ZM20.09,25.41c-.19,2.07-1.7,3.11-4.48,3.11h-2.3c-2.78,0-4.27-1.07-4.45-3.11-.19-1.89-1.7-3.68-3.44-5.73-.76-.89-1.54-1.8-2.3-2.83-.16-.19-4.14-5.26-2.56-9.67.89-2.54,3.48-4.34,7.68-5.29.32-.5,1.48-1.95,2.87-1.42.41-.12,1.58-.38,3.35-.28,1.77-.06,2.94.19,3.35.28,1.36-.5,2.52.95,2.87,1.42,4.2.95,6.79,2.74,7.68,5.29,1.58,4.44-2.37,9.48-2.5,9.67-.76,1.03-1.55,1.95-2.3,2.83-1.77,2.05-3.29,3.84-3.45,5.73ZM17.47,16.44h-1.74c.09.15.16.34.25.56.15.38.15.54.03.6l-.03.03h-.07c-.12,0-.25-.13-.41-.41,0-.03-.19-.35-.41-.78h-1.33c-.22.44-.41.75-.44.78-.13.28-.25.41-.42.41h-.03l-.06-.03c-.13-.06-.13-.22.03-.56.09-.19.19-.38.25-.57h-1.68c-.5,0-.95.41-.95.95s.41.98.95.98h6.09c.54,0,.95-.44.89-.98,0-.54-.41-.97-.95-.97ZM16.02,2.87c.1-.41.86-1.13,1.42-1.64-.44-.09-1.48-.28-2.93-.22h-.13c-1.46-.06-2.5.13-2.94.22.57.5,1.33,1.23,1.42,1.64v.34c.32-.03.72-.03,1.26-.03h.63c.54,0,.95,0,1.26.03v-.34ZM16.99,5.61s-.25-.03-.34.19c0,0,.06,1.58-.22,2.05,0,0-.09.15-.03.19,0,0,.03,0,.22-.15,0,0,.69-.54.76-2.02,0,0-.09-.25-.38-.25ZM15.01,13.86c.89,0,1.7-.06,2.52-.15,5.05-.57,8.47-2.36,8.94-2.65-.06-.78-.35-1.95-1.07-2.86-.6.28-4.04,1.82-7.55,2.01-.15.38-.28.78-.34,1.25,0,.07-.22,1.26-2.53,1.39l.03,1.01ZM16.49,5.17c.32.07.38-.09.63-.03.25.06.35.21.41.25,1.48.66,2.62-.54,2.62-.54.06-.09.13-.03.13-.03.03.06-.03.15-.03.15,0,0-.35.6-.7.76,0,0-.12.88-.75,1.48,0,0-1.8,1.36-1.99,3.46,0,0-.06,1.1-1.83,1.26v.6c1.99-.09,2.18-1.07,2.18-1.07.15-1.51,1.07-2.54,1.45-2.93.07-.06.19-.06.25,0,.06.07.06.19,0,.25-.19.19-.5.53-.79,1.04,3.19-.22,6.29-1.58,7.08-1.93-.44-.47-1.07-.88-1.87-1.07,0,0-1.67-.32-2.5-.22,0,0-.32,0-.35.25,0,0-.13.97-.95,1.32,0,0-.09.06-.13,0,0,0-.06-.03.07-.13,0,0,.32-.19.44-.48.15-.34.25-1.51.25-1.51.03-.32.32-.32.32-.32,5.68-.25,6.41,3.62,6.41,5.45.06,1.79-1.01,3.31-1.99,4.69-.03,0-1.03,1.34-2.06,3.37.03-.03.05-.07.07-.09.76-.89,1.52-1.8,2.27-2.8.06-.06,3.85-4.91,2.52-8.88-.09-.25-.22-.47-.35-.72-.44.06-.82-.13-1.1-.44-.48-.5-.6-.91-.35-1.29-.32-.29-.7-.54-1.07-.76-.51.47-1.14.5-1.7.28-.89-.34-1.23-.82-1.07-1.48-.51-.16-1.07-.32-1.64-.44l-.16-.03-.09-.15s-1.07-1.67-2.08-1.19c-.66.56-1.46,1.32-1.58,1.66,0,.07,0,.19-.03.38,1.58,1.17,3.47.7,3.5.7.09-.03.15,0,.19.09s0,.15-.09.19c-.03.03-.48.13-1.07.13-.72,0-1.7-.13-2.59-.76-.09.41-.22.98-.54,1.42.29.03.48.07.66.09ZM17.53,14.11c-.78.09-1.61.12-2.49.15.06.25.19.78.56,1.76h1.93c.51,0,.95-.41.95-.95s-.44-.97-.95-.97Z"/>
    </g>
  </g>
</svg>