<?xml version="1.0" encoding="UTF-8"?>
<svg id="Layer_2" data-name="Layer 2" xmlns="http://www.w3.org/2000/svg" viewBox="0 0 28.53 28.35">
  <defs>
    <style>
      .cls-1 {
        fill: #231f20;
      }

      .cls-2 {
        fill: #fff;
      }
    </style>
  </defs>
  <g id="Layer_1-2" data-name="Layer 1">
    <g>
      <g>
        <path class="cls-1" d="M14.05,14.37c-.09.53-.53,1.4-.84,1.96.82-1.9.82-2.39.78-2.43l.09-5.38c0-.09.09-.19.19-.19s.19.09.19.19l.1,5.35c0,.07-.03.56.72,2.37-.28-.56-.69-1.34-.78-1.84-.03-.16-.06-.34-.22-.34s-.19.16-.22.31Z"/>
        <path class="cls-2" d="M13.35,16.41l-.31-.15c.69-1.61.77-2.15.78-2.28h-.01s.09-5.46.09-5.46c0-.18.17-.36.36-.36s.36.17.36.36l.1,5.34c0,.19.06.76.7,2.3l-.31.14-.06-.11c-.29-.57-.65-1.28-.74-1.77-.02-.08-.04-.19-.06-.21,0,.02-.03.12-.04.18h0c-.1.58-.58,1.51-.86,2.01ZM14.26,13.89s.08,0,.11.02v-.02l-.1-5.35-.12,5.37s.07-.01.11-.01Z"/>
      </g>
      <g>
        <path class="cls-1" d="M12.14,7.81s-.68-.56-.75-1.99c0,0,.07-.25.38-.25,0,0,.25-.03.34.19-.03-.03-.09,1.52.22,2.02,0,0,.09.15.03.19,0,0-.03.03-.22-.16Z"/>
        <path class="cls-2" d="M12.35,8.14c-.09,0-.18-.06-.33-.21-.09-.08-.74-.69-.8-2.11v-.03s0-.03,0-.03c.04-.13.19-.37.54-.37.11-.02.38.02.5.29l.48,1.13-.49-.61c0,.47.04,1.19.22,1.47.04.07.1.19.07.3l-.02.07-.09.08h-.08ZM11.57,5.85c.04.77.27,1.27.46,1.55-.11-.52-.15-1.25-.09-1.6-.05-.06-.14-.05-.14-.05-.15,0-.21.06-.23.1Z"/>
      </g>
      <g>
        <path class="cls-1" d="M17.17,5.79c-.07,1.46-.75,1.99-.75,1.99-.19.15-.22.15-.22.15-.06-.03.03-.19.03-.19.28-.46.22-2.02.22-2.02.09-.22.34-.19.34-.19.28,0,.38.25.38.25Z"/>
        <path class="cls-2" d="M16.2,8.11h-.04l-.1-.06-.04-.1c-.03-.11.03-.23.07-.3.21-.34.21-1.51.19-1.92v-.04s.01-.04.01-.04c.11-.27.4-.31.52-.29h0c.29,0,.46.22.51.35v.03s.01.04.01.04c-.07,1.53-.79,2.1-.82,2.12-.21.17-.27.19-.32.19ZM16.62,5.77c0,.23.02,1.03-.09,1.61.18-.27.42-.77.46-1.56-.03-.04-.08-.11-.2-.11-.04,0-.12,0-.16.05Z"/>
      </g>
      <g>
        <path class="cls-1" d="M18.51,22.42c.53-.09,1.06-.19,1.62-.31-.4.66-.72,1.31-.91,1.96-.19.03-.37.09-.56.13v-.09c0-.5-.25-.91-.66-1.15.22-.13.37-.31.5-.53Z"/>
        <path class="cls-2" d="M18.49,24.4v-.3c0-.42-.2-.78-.57-1.01l-.25-.15.25-.15c.17-.1.31-.25.43-.47l.04-.07.11-.02c.51-.09,1.04-.18,1.59-.31l.4-.09-.22.35c-.42.68-.71,1.31-.89,1.92l-.03.1-.11.02c-.09.02-.18.04-.27.06-.1.02-.19.05-.29.07l-.2.04ZM18.3,22.95c.31.26.5.62.53,1.03.02,0,.05-.01.07-.02.06-.02.12-.03.18-.04.16-.5.38-1.02.69-1.56-.4.08-.79.15-1.17.22-.09.15-.2.27-.31.37Z"/>
      </g>
      <g>
        <path class="cls-1" d="M18.66,14.9c0-.44-.22-.81-.53-1.06,4.59-.65,7.61-2.23,8.05-2.49-.03,1.18-.6,2.24-1.25,3.23-.38.19-2.81,1.34-6.49,1.93-.09-.19-.25-.34-.44-.46.37-.25.66-.66.66-1.15Z"/>
        <path class="cls-2" d="M18.35,16.71l-.06-.11c-.07-.15-.2-.29-.38-.4l-.22-.14.22-.15c.37-.25.58-.62.58-1.01,0-.35-.17-.68-.47-.93l-.31-.25.39-.06c4.85-.69,7.95-2.45,7.98-2.46l.27-.15v.31c-.04,1.26-.67,2.39-1.28,3.32l-.03.04-.04.02c-.45.22-2.89,1.36-6.54,1.94l-.13.02ZM18.29,16.05c.1.08.18.18.24.28,3.43-.57,5.75-1.62,6.28-1.87.52-.81,1.06-1.76,1.17-2.8-.85.44-3.54,1.7-7.49,2.3.22.27.34.6.34.94,0,.44-.2.84-.54,1.15Z"/>
      </g>
      <g>
        <path class="cls-1" d="M18.57,20c1.68-.28,2.93-.65,3.55-.84-.15.31-.28.56-.4.81-.47.56-.9,1.11-1.28,1.64-.6.16-1.22.25-1.78.34,0-.07.03-.13.03-.22,0-.5-.25-.9-.65-1.15.21-.12.4-.34.53-.59Z"/>
        <path class="cls-2" d="M18.49,22.16v-.2s0-.08.01-.12c0-.03.01-.06.01-.1,0-.42-.2-.78-.57-1.01l-.25-.15.25-.14c.18-.1.35-.29.46-.52l.04-.08h.09c1.67-.29,2.93-.66,3.53-.84l.38-.11-.17.35c-.1.21-.2.4-.28.57l-.12.24c-.48.57-.9,1.12-1.29,1.67l-.04.05-.06.02c-.52.14-1.07.23-1.56.31l-.43.07ZM18.34,20.59c.34.29.53.69.53,1.15h0s0,.01,0,.01c.48-.08.98-.16,1.47-.29.39-.54.81-1.08,1.25-1.6l.1-.21c.03-.07.07-.14.11-.21-.67.2-1.75.49-3.11.71-.1.17-.22.32-.35.43Z"/>
      </g>
      <g>
        <path class="cls-1" d="M22.34,18.72c-.34.13-1.72.59-3.68.93v-.16c0-.5-.25-.9-.66-1.15.37-.25.66-.66.66-1.15,0-.09,0-.19-.03-.28,3.06-.46,5.12-1.31,5.83-1.65-.06.09-.13.16-.15.25,0,.03-.97,1.27-1.97,3.2Z"/>
        <path class="cls-2" d="M18.49,19.86v-.37c0-.42-.2-.77-.57-1l-.23-.14.22-.15c.37-.25.58-.62.58-1.01,0-.08,0-.16-.02-.22l-.07-.2.21-.03c3.32-.5,5.4-1.45,5.78-1.64l.55-.26-.33.51s-.04.06-.06.09c-.03.04-.05.07-.07.1,0,.04-.03.07-.12.2-.26.37-1.05,1.48-1.86,3.04l-.03.06-.06.02c-.16.06-1.58.57-3.71.94l-.2.04ZM18.3,18.35c.33.28.53.67.54,1.1,1.81-.33,3.07-.76,3.38-.87.74-1.42,1.47-2.47,1.78-2.92-.87.36-2.67,1-5.17,1.4,0,.05,0,.09,0,.13,0,.43-.19.84-.54,1.15Z"/>
      </g>
      <g>
        <path class="cls-1" d="M17.01,3.06c1-1.62,1.97-1.09,1.97-1.09-.22,2.27-1.97,1.09-1.97,1.09Z"/>
        <path class="cls-2" d="M17.94,3.54c-.52,0-1-.32-1.03-.34l-.14-.09.09-.14c1.07-1.74,2.15-1.18,2.2-1.15l.1.05v.11c-.08.77-.34,1.26-.76,1.46-.15.07-.31.1-.46.1ZM17.25,3c.22.11.65.29,1,.13.29-.14.47-.49.54-1.05-.24-.06-.86-.09-1.54.92Z"/>
      </g>
      <g>
        <path class="cls-1" d="M17.32,20.87c.53,0,.93.43.93.96,0,.5-.4.93-.93.93h-6.02c-.53,0-.93-.44-.93-.97s.44-.93.93-.93h6.02Z"/>
        <path class="cls-2" d="M17.32,22.94h-6.02c-.62,0-1.11-.5-1.11-1.14s.5-1.1,1.11-1.1h6.02c.62,0,1.11.5,1.11,1.13s-.5,1.11-1.11,1.11ZM11.3,21.04c-.42,0-.76.34-.76.76,0,.45.33.79.76.79h6.02c.42,0,.76-.34.76-.76,0-.44-.33-.79-.76-.79h-6.02Z"/>
      </g>
      <g>
        <path class="cls-1" d="M17.32,18.56c.53,0,.93.44.93.97,0,.5-.4.93-.93.93h-6.02c-.53,0-.93-.44-.93-.97s.44-.93.93-.93h6.02Z"/>
        <path class="cls-2" d="M17.32,20.64h-6.02c-.62,0-1.11-.5-1.11-1.14s.5-1.11,1.11-1.11h6.02c.62,0,1.11.5,1.11,1.14s-.5,1.11-1.11,1.11ZM11.3,18.74c-.42,0-.76.34-.76.76,0,.45.33.79.76.79h6.02c.42,0,.76-.34.76-.76,0-.45-.33-.79-.76-.79h-6.02Z"/>
      </g>
      <g>
        <path class="cls-1" d="M17.32,13.94c.5,0,.93.43.93.96s-.43.93-.93.93h-1.9c-.37-.97-.5-1.49-.56-1.74.87-.03,1.68-.06,2.46-.15Z"/>
        <path class="cls-2" d="M17.32,16.01h-2.02l-.04-.11c-.38-.99-.5-1.51-.56-1.76l-.05-.2h.38c.8-.05,1.56-.07,2.27-.16h.02c.6,0,1.11.52,1.11,1.13s-.5,1.11-1.11,1.11ZM15.54,15.66h1.78c.42,0,.76-.34.76-.76s-.34-.78-.75-.79c-.72.08-1.46.11-2.25.14.07.27.2.72.46,1.41Z"/>
      </g>
      <g>
        <path class="cls-1" d="M18.25,24.1c0,.52-.43.93-.93.93h-6.02c-.53,0-.93-.43-.93-.96s.44-.93.93-.93h6.02c.53,0,.93.44.93.97Z"/>
        <path class="cls-2" d="M17.32,25.21h-6.02c-.62,0-1.11-.5-1.11-1.13s.5-1.11,1.11-1.11h6.02c.62,0,1.11.5,1.11,1.14s-.5,1.1-1.11,1.1ZM11.3,23.31c-.42,0-.76.34-.76.76,0,.44.33.79.76.79h6.02c.42,0,.76-.34.76-.75,0-.45-.33-.79-.76-.79h-6.02Z"/>
      </g>
      <g>
        <path class="cls-1" d="M16.07,4.73c.62-.99.93-.19.93-.19.13.46-.9.19-.93.19Z"/>
        <path class="cls-2" d="M16.67,4.99c-.15,0-.35-.03-.58-.08h-.31l.16-.27c.26-.41.52-.6.77-.57.32.03.46.38.48.42.05.2-.02.31-.07.37-.09.09-.23.14-.43.14ZM16.37,4.61c.4.06.48,0,.48,0-.03-.06-.11-.19-.19-.2-.03,0-.13,0-.29.2Z"/>
      </g>
      <g>
        <path class="cls-1" d="M17.01,3.06s1.75,1.18,1.97-1.09c0,0-.97-.52-1.97,1.09ZM16.07,4.73s1.06.28.93-.19c0,0-.31-.81-.93.19ZM16.91,5.08c-.25-.07-.31.09-.62.03-.19-.03-.37-.06-.66-.09.31-.43.44-.99.53-1.4.87.62,1.84.75,2.56.75.59,0,1.03-.09,1.06-.13.09-.03.13-.09.09-.19s-.09-.13-.19-.09c-.03,0-1.9.46-3.46-.69.03-.19.03-.3.03-.37.13-.34.91-1.09,1.56-1.64.99-.47,2.02,1.15,2.05,1.18l.09.15.16.03c.56.13,1.12.28,1.62.44-.16.65.19,1.12,1.06,1.46.56.22,1.18.19,1.68-.28.37.22.75.46,1.06.75-.25.37-.13.78.34,1.27.28.31.65.5,1.09.44.13.25.25.46.34.71,1.31,3.92-2.43,8.71-2.49,8.77-.75.99-1.5,1.9-2.25,2.77-.03.02-.05.06-.07.09,1.02-2,2-3.33,2.03-3.33.97-1.37,2.03-2.86,1.97-4.63,0-1.8-.72-5.63-6.34-5.38,0,0-.28,0-.31.31,0,0-.09,1.15-.25,1.49-.13.28-.44.47-.44.47-.13.09-.07.13-.07.13.03.06.13,0,.13,0,.81-.34.93-1.31.93-1.31.03-.25.34-.25.34-.25.82-.09,2.47.22,2.47.22.78.19,1.4.59,1.84,1.05-.78.34-3.84,1.68-6.99,1.9.28-.5.6-.84.78-1.03.06-.07.06-.19,0-.25-.06-.06-.19-.06-.25,0-.37.38-1.28,1.4-1.43,2.89,0,0-.19.97-2.15,1.06v-.59c1.75-.16,1.81-1.25,1.81-1.25.19-2.08,1.97-3.42,1.97-3.42.62-.59.74-1.46.74-1.46.34-.16.69-.75.69-.75,0,0,.06-.09.03-.15,0,0-.07-.07-.13.03,0,0-1.13,1.19-2.59.53-.06-.03-.15-.19-.4-.25Z"/>
        <path class="cls-2" d="M21.62,20.43l.75-1.47c.54-1.06,1.64-2.93,2.06-3.34h-.01c.93-1.33,1.99-2.82,1.94-4.54,0-.92-.19-2.62-1.46-3.84-1.05-1-2.63-1.46-4.7-1.38-.05,0-.13.03-.15.16,0,.08-.06.67-.14,1.12.09-.21.11-.37.11-.38.04-.32.36-.4.52-.4.81-.1,2.43.21,2.5.22.95.23,1.58.73,1.94,1.1l.17.18-.22.1c-3.17,1.4-5.59,1.81-7.05,1.92l-.32.02.16-.28c.22-.39.49-.74.81-1.06-.57.56-1.26,1.5-1.39,2.78-.01.06-.24,1.12-2.32,1.22h-.18s0-.92,0-.92h.16c1.57-.16,1.65-1.06,1.65-1.1.19-2.14,1.96-3.49,2.04-3.55.55-.53.67-1.34.67-1.34v-.09s.1-.04.1-.04c.08-.04.16-.1.24-.18-.51.3-1.31.57-2.23.15-.05-.03-.08-.05-.11-.08-.06-.05-.13-.12-.27-.15h0c-.08-.02-.11-.01-.19,0-.09.03-.22.06-.43.02l-.16-.02c-.13-.02-.28-.04-.48-.07l-.29-.03.17-.24c.29-.4.41-.93.5-1.32l.06-.24h0s.01-.1.01-.1c.03-.17.03-.28.03-.35v-.06c.19-.47,1.29-1.43,1.62-1.71l.04-.02c.67-.32,1.47.11,2.24,1.2l.03.05.05.09.09.02c.54.12,1.11.27,1.64.44l.15.05-.04.16c-.09.38-.07.86.95,1.26.33.13.95.27,1.5-.24l.09-.09.11.07c.32.19.74.45,1.09.77l.11.1-.08.12c-.13.19-.21.49.33,1.06.19.21.5.44.94.38l.12-.02.14.27c.1.19.19.36.27.56,1.35,4.02-2.49,8.91-2.53,8.95-.8,1.06-1.61,2.03-2.24,2.76l-.03.04s-.02.03-.04.05l-1.04,1.28ZM24.63,15.88c-.13.16-.55.75-1.1,1.68.37-.46.77-.96,1.17-1.49.05-.06,3.75-4.76,2.47-8.61-.07-.17-.15-.34-.25-.52l-.03-.06c-.42.02-.81-.16-1.12-.5-.18-.19-.71-.75-.44-1.35-.27-.23-.57-.42-.82-.57-.49.39-1.13.48-1.76.23-.88-.34-1.28-.85-1.2-1.5-.48-.15-.98-.28-1.46-.39l-.23-.05-.13-.21s-.01-.02-.02-.03c-.31-.43-1.09-1.4-1.79-1.1-.76.65-1.36,1.27-1.48,1.53,0,.06,0,.14-.01.26,1.28.89,2.78.69,3.21.61h.02c.17-.06.33.02.39.2.06.18-.01.34-.2.41h0c-.21.09-.76.14-1.12.14-.62,0-1.18-.09-1.69-.28.09.1.13.21.14.23.05.2-.02.31-.07.37-.03.03-.06.05-.1.07.2.06.31.17.38.23,1.34.61,2.36-.43,2.41-.48.04-.07.13-.1.17-.1.08,0,.16.03.2.07l.04.05c.06.13-.02.28-.05.32-.03.05-.33.55-.68.77-.05.25-.23.95-.78,1.47-.03.03-1.74,1.33-1.91,3.31,0,.04-.08,1.16-1.81,1.39v.25c1.62-.13,1.81-.9,1.81-.91.14-1.35.88-2.37,1.48-2.97.14-.13.37-.13.5,0,.13.14.13.36,0,.49-.23.23-.42.46-.59.71,1.42-.13,3.58-.56,6.36-1.76-.34-.31-.86-.66-1.58-.83,0,0-1.62-.3-2.41-.22-.02,0-.18,0-.19.1,0,.04-.15,1.06-1.04,1.44,0,0-.1.06-.2.03l-.07-.02-.04-.05s-.06-.08-.07-.14c0-.13.11-.22.15-.25.02-.01.28-.17.38-.4.12-.26.21-1.12.23-1.43.04-.37.33-.47.48-.47,2.16-.1,3.83.4,4.95,1.47,1.36,1.3,1.56,3.12,1.56,4.08.06,1.82-1.03,3.37-2,4.73l-.06.07ZM20.06,4.89s0,0,0,0c0,0,0,0,0,0ZM16.37,4.61c.4.06.48,0,.48,0-.03-.06-.11-.19-.19-.2-.03,0-.13,0-.29.2ZM16.28,3.89c-.03.14-.07.29-.12.44.15-.16.29-.25.43-.27-.11-.05-.21-.11-.31-.17ZM17.94,3.54c-.52,0-1-.32-1.03-.34l-.14-.09.09-.14c1.07-1.74,2.15-1.18,2.2-1.15l.1.05v.11c-.08.77-.34,1.26-.76,1.46-.15.07-.31.1-.46.1ZM17.25,3c.22.11.65.29,1,.13.29-.14.47-.49.54-1.05-.24-.06-.86-.09-1.54.92Z"/>
      </g>
      <g>
        <path class="cls-1" d="M17.32,13.53c-.81.09-1.62.15-2.49.15l-.03-.99c2.28-.13,2.5-1.31,2.5-1.37.06-.46.19-.87.34-1.24,3.47-.19,6.87-1.71,7.46-1.99.72.9,1,2.05,1.06,2.82-.46.28-3.84,2.05-8.83,2.62Z"/>
        <path class="cls-2" d="M14.83,13.86h-.17l-.04-1.33h.17c2.15-.13,2.33-1.21,2.34-1.22.06-.44.17-.85.35-1.29l.04-.1h.11c3.52-.19,7.01-1.8,7.39-1.98l.12-.06.09.11c.9,1.13,1.07,2.52,1.1,2.92v.11s-.08.05-.08.05c-.85.52-4.3,2.12-8.9,2.64h0c-.91.1-1.71.15-2.51.15ZM14.97,12.85l.02.66c.73,0,1.47-.05,2.3-.15h0c4.83-.55,8.09-2.23,8.66-2.54-.05-.46-.23-1.57-.93-2.51-.75.34-3.98,1.74-7.28,1.94-.15.38-.24.73-.29,1.09h0s-.15,1.32-2.49,1.51Z"/>
      </g>
      <g>
        <path class="cls-1" d="M14.02,1.53s.06-.16.28-.16c.19,0,.25.13.25.16l-.19,1.05s-.03.13-.06.13-.06-.09-.06-.13c-.03-.03-.25-.9-.22-1.05Z"/>
        <path class="cls-2" d="M14.3,2.88c-.16,0-.22-.17-.23-.27-.11-.26-.22-.89-.22-1.08h0c0-.13.14-.33.45-.33.27,0,.42.2.42.33l-.19,1.08c-.04.18-.11.27-.23.27ZM14.19,1.57c0,.08.04.3.09.51l.09-.52s-.03-.02-.07-.02c-.06,0-.1.02-.11.03Z"/>
      </g>
      <g>
        <path class="cls-1" d="M14.26,5.04c-.34,0-.66-.03-.87-.03-.37-.4-.56-.99-.62-1.46.28-.03.69-.03,1.19-.03h.62c.5,0,.91,0,1.19.03-.06.46-.25,1.05-.62,1.46-.25,0-.53,0-.87.03Z"/>
        <path class="cls-2" d="M14.27,5.22h0c-.2,0-.38-.01-.54-.02-.12,0-.24-.01-.33-.01h-.08l-.05-.06c-.48-.52-.62-1.26-.67-1.55l-.03-.18.18-.02c.29-.03.7-.03,1.21-.03h.62c.51,0,.92,0,1.21.03l.17.02-.02.17c-.08.6-.33,1.18-.67,1.55l-.05.06h-.08c-.25,0-.52,0-.86.03h0ZM13.47,4.84c.08,0,.17,0,.27.01.16,0,.33.02.52.02.31-.03.57-.03.8-.03.24-.28.42-.69.5-1.13-.25-.02-.59-.02-.99-.02h-.62c-.4,0-.73,0-.98.02.06.3.2.77.5,1.13Z"/>
      </g>
      <g>
        <path class="cls-1" d="M11.3,13.97c.75.09,1.56.13,2.37.16-.03.22-.19.74-.56,1.74h-1.81c-.53,0-.93-.43-.93-.96s.44-.93.93-.93Z"/>
        <path class="cls-2" d="M13.23,16.03h-1.93c-.62,0-1.11-.5-1.11-1.13s.5-1.11,1.11-1.11h.02c.75.09,1.57.13,2.36.16h.19s-.03.2-.03.2c-.04.28-.25.91-.57,1.77l-.04.11ZM11.29,14.14c-.42,0-.75.34-.75.76,0,.44.33.79.76.79h1.69c.29-.76.41-1.18.47-1.4-.73-.03-1.48-.07-2.17-.15Z"/>
      </g>
      <g>
        <path class="cls-1" d="M15.54,16.24h1.72c.53,0,.93.43.93.96.06.53-.34.97-.87.97h-6.02c-.53,0-.93-.44-.93-.97s.44-.93.93-.93h1.66c-.07.19-.16.38-.25.56-.16.34-.16.5-.03.56l.06.03h.03c.16,0,.28-.13.41-.4.03-.03.21-.34.43-.78h1.31c.22.43.4.74.4.78.16.28.28.4.4.4h.07l.03-.03c.13-.06.13-.22-.03-.59-.09-.22-.16-.4-.25-.56Z"/>
        <path class="cls-2" d="M17.32,18.34h-6.02c-.62,0-1.11-.5-1.11-1.14s.5-1.11,1.11-1.11h1.9l-.08.23c-.07.2-.16.39-.26.58-.13.27-.11.34-.11.35h0c.1-.01.18-.12.26-.3l.02-.04s.2-.33.41-.74l.05-.09h1.52l.05.09c.1.2.2.38.27.51.08.16.12.23.14.27.15.27.23.3.24.3l.02-.02s0,0,0,0c0,0,0-.08-.11-.37l-.07-.16c-.06-.15-.11-.27-.17-.37l-.16-.26h2.02c.62,0,1.11.5,1.11,1.13.03.28-.06.57-.25.79-.2.22-.49.35-.79.35ZM11.3,16.44c-.42,0-.76.34-.76.76,0,.45.33.79.76.79h6.02c.21,0,.4-.08.54-.23.13-.15.19-.34.17-.54,0-.46-.34-.81-.76-.81h-1.44c.02.05.04.1.07.16l.07.16c.09.22.26.62-.02.79l-.03.04-.18.03c-.24,0-.42-.25-.55-.49l-.02-.06s-.06-.11-.11-.21c-.06-.11-.14-.26-.23-.43h-1.1c-.17.32-.33.6-.39.69-.1.22-.26.49-.56.49h-.04l-.13-.05c-.33-.16-.12-.61-.04-.78.06-.11.11-.22.15-.32h-1.4Z"/>
      </g>
      <g>
        <path class="cls-1" d="M14.02,1.53c-.03.15.19,1.03.22,1.05,0,.03.03.13.06.13s.06-.13.06-.13l.19-1.05s-.07-.16-.25-.16c-.22,0-.28.13-.28.16ZM14.33,1c1.43-.06,2.46.13,2.9.22-.56.5-1.31,1.21-1.4,1.62v.34c-.31-.03-.72-.03-1.25-.03h-.62c-.53,0-.93,0-1.25.03v-.34c-.09-.4-.84-1.12-1.4-1.62.44-.09,1.46-.28,2.9-.22h.13Z"/>
        <path class="cls-2" d="M15.99,3.36l-.19-.02c-.3-.03-.71-.03-1.23-.03h-.62c-.52,0-.93,0-1.23.03l-.19.02v-.53c-.03-.12-.26-.52-1.35-1.49l-.26-.23.34-.07c.89-.19,1.91-.26,2.95-.22h.11c1.03-.04,2.05.03,2.94.22l.33.07-.25.23c-1.03.92-1.31,1.34-1.35,1.53v.02s0,.47,0,.47ZM13.95,2.98h.62c.43,0,.78,0,1.07.01v-.15c.08-.35.47-.83,1.21-1.51-.78-.14-1.64-.19-2.52-.15h-.13c-.89-.04-1.75.02-2.53.15.73.67,1.13,1.16,1.2,1.47v.19c.29-.01.65-.01,1.08-.01ZM14.3,2.88c-.16,0-.22-.17-.23-.27-.11-.26-.22-.89-.22-1.08h0c0-.13.14-.33.45-.33.27,0,.42.2.42.33l-.19,1.08c-.04.18-.11.27-.23.27ZM14.19,1.57c0,.08.04.3.09.51l.09-.52s-.03-.02-.07-.02c-.06,0-.1.02-.11.03Z"/>
      </g>
      <g>
        <path class="cls-1" d="M11.52,4.55s.31-.81.93.19c0,0-1.06.28-.93-.19Z"/>
        <path class="cls-2" d="M11.89,4.99c-.18,0-.35-.03-.46-.14-.05-.05-.13-.16-.08-.35v-.02s.16-.39.48-.42c.26-.02.51.16.77.57l.12.2-.23.06c-.11.03-.37.09-.61.09ZM11.68,4.6s0,.02,0,.02c.04.04.25.03.48,0-.16-.2-.26-.21-.29-.21-.08,0-.16.13-.19.19Z"/>
      </g>
      <g>
        <path class="cls-1" d="M13.73,12.69l-.03.99c-6.21-.09-10.61-2.37-11.36-2.77.07-.78.31-1.92,1.06-2.82.6.28,4,1.8,7.46,1.99.16.37.28.78.34,1.24,0,.07.22,1.28,2.52,1.37Z"/>
        <path class="cls-2" d="M13.88,13.86h-.17c-5.98-.09-10.27-2.16-11.44-2.79l-.1-.05v-.11c.07-.66.28-1.93,1.11-2.92l.09-.1.12.06c.64.3,3.99,1.79,7.39,1.97h.11s.04.1.04.1c.18.41.29.83.36,1.28,0,.03.19,1.14,2.36,1.22h.17s-.04,1.34-.04,1.34ZM2.53,10.82c1.27.67,5.35,2.57,11.01,2.69l.02-.65c-2.37-.16-2.52-1.52-2.52-1.54-.05-.37-.15-.72-.29-1.07-3.25-.2-6.42-1.55-7.29-1.94-.66.85-.86,1.89-.93,2.51Z"/>
      </g>
      <g>
        <path class="cls-1" d="M13.14,27.37c-1.09,0-1.94-.15-2.53-.5-.19-.13-.28-.28-.28-.56,0-.47.44-.87.93-.87h6.02c.53,0,.93.4.93.87.03.25-.03.37-.19.5-.16.09-.31.15-.47.25-.03,0-.06.03-.09.03-.53.19-1.22.28-2.09.28h-2.25Z"/>
        <path class="cls-2" d="M15.39,27.54h-2.25c-1.16,0-2.01-.17-2.62-.52-.26-.17-.36-.39-.36-.71,0-.57.51-1.05,1.11-1.05h6.02c.61,0,1.11.47,1.11,1.05.03.27-.04.46-.25.63-.11.06-.19.1-.27.14-.07.04-.15.07-.22.12l-.06.02s-.05.02-.08.03c-.55.19-1.25.28-2.13.28ZM11.27,25.61c-.41,0-.76.33-.76.7,0,.23.07.33.2.41.54.31,1.34.47,2.43.47h2.25c.85,0,1.51-.09,2.03-.27h.03s.04-.03.06-.03c.07-.04.15-.08.22-.11.07-.04.15-.07.22-.12.08-.07.12-.14.1-.33,0-.41-.34-.72-.76-.72h-6.02Z"/>
      </g>
      <g>
        <path class="cls-1" d="M11.52,3.06s-1.75,1.18-1.97-1.09c0,0,.97-.52,1.97,1.09Z"/>
        <path class="cls-2" d="M10.59,3.54c-.15,0-.31-.03-.46-.1-.43-.2-.68-.69-.75-1.46v-.11s.09-.05.09-.05c.05-.03,1.12-.58,2.2,1.15l.09.14-.14.09s-.5.34-1.03.34ZM9.74,2.08c.07.56.26.91.54,1.05.34.16.77-.01,1-.13-.68-1.01-1.3-.98-1.54-.92Z"/>
      </g>
      <g>
        <path class="cls-1" d="M10.61,22.95c-.37.25-.65.65-.65,1.15v.09c-.28-.07-.5-.16-.66-.19-.19-.65-.5-1.27-.91-1.92.44.09,1.03.21,1.72.34.13.22.28.4.5.53Z"/>
        <path class="cls-2" d="M10.14,24.42l-.21-.05c-.16-.04-.31-.08-.43-.12-.09-.03-.16-.05-.22-.07l-.1-.02-.03-.1c-.17-.59-.45-1.19-.89-1.88l-.22-.35.4.08c.44.09,1.03.21,1.71.34h.08s.04.08.04.08c.12.21.27.37.44.47l.24.14-.23.15c-.36.24-.57.61-.57,1.01v.31ZM9.44,23.86s.1.03.16.05c.06.02.12.04.19.06.03-.39.22-.75.53-1.02-.12-.1-.22-.23-.32-.38-.47-.09-.89-.17-1.25-.24.32.54.54,1.04.69,1.53Z"/>
      </g>
      <g>
        <path class="cls-1" d="M10.59,20.62c-.38.25-.66.66-.66,1.15v.19c-.81-.13-1.46-.28-1.9-.4-.34-.5-.75-1.03-1.22-1.58-.12-.28-.25-.53-.37-.78.59.19,1.9.56,3.62.84.13.25.31.46.53.59Z"/>
        <path class="cls-2" d="M10.1,22.16l-.2-.03c-.95-.15-1.61-.32-1.92-.41l-.06-.02-.04-.05c-.36-.51-.76-1.04-1.21-1.57l-.03-.04c-.11-.26-.22-.48-.33-.7l-.22-.43.39.12c.62.19,1.91.56,3.59.84h.09s.04.09.04.09c.11.23.28.41.46.52l.24.14-.23.15c-.37.25-.58.61-.58,1.01v.39ZM8.13,21.4c.3.08.85.22,1.62.35,0-.43.2-.83.54-1.13-.14-.12-.26-.27-.35-.44-1.37-.23-2.48-.51-3.17-.72.06.13.13.27.19.41.43.51.83,1.03,1.18,1.53Z"/>
      </g>
      <g>
        <path class="cls-1" d="M6,19.07s-.05-.09-.06-.13c.03.03.06.06.06.13Z"/>
        <path class="cls-2" d="M6.17,19.78l-.33-.64.15-.08-.17.06s-.04-.09-.06-.13l-.23-.69.51.51s.11.11.11.25v.72ZM5.83,19.07h.17-.17Z"/>
      </g>
      <g>
        <path class="cls-1" d="M4.03,15.27c.72.34,2.81,1.19,5.93,1.68-.03.09-.03.19-.03.28,0,.5.25.9.66,1.15-.38.25-.66.66-.66,1.15v.13c-2.06-.34-3.49-.81-3.77-.9-.97-1.96-1.91-3.23-1.94-3.23-.07-.09-.13-.16-.19-.25Z"/>
        <path class="cls-2" d="M10.1,19.86l-.2-.03c-2.01-.34-3.41-.78-3.8-.91l-.07-.02-.03-.06c-.85-1.72-1.67-2.89-1.86-3.14h-.01l-.05-.07s-.06-.08-.09-.12c-.03-.04-.07-.08-.1-.13l-.39-.54.6.29c.38.18,2.47,1.13,5.88,1.67l.21.03-.07.2c-.02.06-.02.14-.02.22,0,.42.2.77.57,1l.23.14-.23.15c-.37.25-.58.61-.58,1.01v.33ZM6.28,18.62c.38.12,1.68.52,3.48.84.02-.41.21-.78.54-1.07-.34-.29-.54-.7-.54-1.15,0-.04,0-.09,0-.14-2.51-.41-4.29-1.04-5.2-1.4.46.62,1.24,1.96,1.72,2.92Z"/>
      </g>
      <g>
        <path class="cls-1" d="M10.59,16.05c-.19.12-.34.28-.47.46-3.74-.59-6.24-1.78-6.58-1.93-.66-.96-1.19-2.02-1.25-3.2.62.31,3.65,1.84,8.17,2.45-.31.25-.53.62-.53,1.06,0,.5.25.9.66,1.15Z"/>
        <path class="cls-2" d="M10.2,16.7l-.11-.02c-2.33-.37-4.6-1.03-6.56-1.91l-.11-.05-.03-.04c-.82-1.2-1.22-2.24-1.28-3.29v-.3s.25.13.25.13c2.36,1.18,5.24,2.04,8.12,2.44l.4.05-.31.25c-.3.24-.47.57-.47.93,0,.42.2.78.57,1.01l.23.14-.23.15c-.16.1-.31.24-.42.42l-.06.09ZM3.65,14.45h.03c1.9.87,4.09,1.51,6.36,1.88.08-.1.16-.19.26-.27-.34-.29-.54-.7-.54-1.16,0-.34.12-.67.34-.94-2.69-.4-5.37-1.21-7.61-2.28.11.87.48,1.76,1.16,2.77Z"/>
      </g>
      <g>
        <path class="cls-1" d="M9.55,1.96c.22,2.27,1.97,1.09,1.97,1.09-1-1.62-1.97-1.09-1.97-1.09ZM11.52,4.55c-.13.46.93.19.93.19-.62-.99-.93-.19-.93-.19ZM12.39,3.58c.06.44.22.97.53,1.4-.28.03-.47.06-.66.09-.31.06-.38-.07-.62-.03-.28.06-.34.22-.4.25-1.47.66-2.59-.52-2.59-.52-.09-.09-.13-.03-.13-.03-.03.03.03.15.03.15,0,0,.34.56.68.75,0,0,.13.87.75,1.46,0,0,1.81,1.34,1.97,3.43,0,0,.03,1.09,1.81,1.24v.59c-1.99-.09-2.19-1.05-2.19-1.05-.15-1.49-1.06-2.52-1.43-2.89-.07-.07-.19-.07-.25,0-.06.06-.06.19,0,.25.19.19.5.53.78,1.03-3.15-.22-6.21-1.52-6.99-1.9.46-.47,1.06-.84,1.84-1.06,0,0,1.65-.34,2.46-.22,0,0,.31,0,.34.25,0,0,.13.96.93,1.31,0,0,.09.03.13,0,0,0,.06-.03-.06-.13,0,0-.31-.19-.44-.46-.16-.34-.25-1.5-.25-1.5-.03-.3-.31-.3-.31-.3-5.61-.25-6.36,3.57-6.33,5.37-.07,1.78.99,3.3,1.96,4.67,0,.03.95,1.27,1.96,3.21-.75-.87-1.49-1.76-2.23-2.75-.03-.06-3.8-4.85-2.41-8.79.09-.28.22-.53.34-.78.5.16.93-.03,1.25-.37.5-.53.6-.96.28-1.37.28-.22.59-.44.93-.66.5.47,1.12.5,1.68.28.87-.34,1.22-.78,1.06-1.46.5-.15,1.06-.31,1.62-.44l.15-.03.09-.16s.82-1.27,1.69-1.27c.12,0,.25.03.37.09.66.56,1.46,1.34,1.56,1.65,0,.06,0,.19.03.37-1.56,1.15-3.43.68-3.46.68-.09-.03-.16.03-.19.09-.03.09.03.16.1.19.03,0,.46.13,1.06.13.68,0,1.65-.15,2.52-.75Z"/>
        <path class="cls-2" d="M6.75,20.14l-.95-1.1c-.9-1.04-1.59-1.89-2.24-2.76h0s-.03-.04-.03-.04c-.88-1.19-3.67-5.35-2.4-8.92.09-.28.21-.52.33-.76l.09-.18.14.05c.52.17.89-.13,1.06-.32.56-.59.46-.91.28-1.14l-.1-.14.13-.11c.28-.22.6-.44.95-.67l.11-.07.1.09c.54.51,1.17.37,1.5.24.81-.31,1.09-.68.95-1.26l-.04-.16.15-.05c.59-.18,1.14-.33,1.64-.44h.08s.05-.1.05-.1c.04-.06.88-1.36,1.84-1.36.14,0,.29.04.45.11l.04.02c.15.13,1.47,1.26,1.61,1.73v.05c0,.06,0,.17.04.34l.02.11h-.02s.03.24.03.24c.04.29.16.85.5,1.33l.17.24-.3.03c-.28.03-.46.06-.64.09-.21.04-.33,0-.43-.01-.07-.02-.12-.03-.2-.02-.14.03-.2.09-.25.14-.03.03-.06.07-.11.09-.9.4-1.69.16-2.19-.12.07.07.14.12.2.16l.07.04v.09s.14.82.71,1.36c.06.04,1.86,1.4,2.02,3.54,0,.04.07.94,1.65,1.08h.16v.94h-.18c-2.11-.11-2.34-1.16-2.35-1.2-.14-1.38-.93-2.35-1.38-2.8.32.32.59.68.8,1.07l.16.28-.32-.02c-3.53-.25-6.91-1.84-7.05-1.91l-.22-.1.17-.17c.51-.52,1.16-.89,1.92-1.1.08-.02,1.7-.35,2.53-.22h0c.14,0,.45.09.49.4,0,0,.03.18.12.4-.09-.46-.14-1.05-.15-1.14-.01-.12-.1-.14-.14-.15-2.09-.09-3.69.38-4.75,1.4-1.31,1.28-1.42,3.08-1.41,3.79-.07,1.75.99,3.25,1.93,4.57l.03.05s.04.06.08.11c.29.41,1.05,1.51,1.86,3.07l.67,1.3ZM1.72,6.8c-.1.21-.2.41-.27.63-1.24,3.5,1.74,7.78,2.35,8.6.03.03.04.05.04.06.32.43.66.86,1.03,1.32-.42-.69-.77-1.19-.94-1.43-.06-.09-.1-.14-.12-.18-.92-1.3-2.05-2.9-1.98-4.76-.01-.75.11-2.67,1.51-4.04,1.12-1.09,2.8-1.6,5-1.5h0c.14,0,.44.1.48.46.03.32.12,1.18.24,1.44.1.22.37.39.37.39.05.04.17.13.16.26v.09s-.07.04-.07.04c-.1.1-.24.06-.3.04-.9-.38-1.04-1.4-1.05-1.45-.01-.1-.17-.1-.17-.1-.79-.11-2.41.21-2.42.22-.61.17-1.13.45-1.57.84.79.35,3.49,1.48,6.36,1.75-.17-.25-.36-.49-.58-.71-.06-.06-.1-.15-.1-.25,0-.1.04-.18.1-.24.13-.13.37-.13.5,0,.49.49,1.33,1.53,1.48,2.99h0s.21.76,1.84.89v-.25c-1.75-.21-1.81-1.34-1.81-1.39-.15-1.97-1.88-3.28-1.9-3.29-.57-.53-.75-1.25-.8-1.49-.35-.23-.66-.74-.67-.76-.08-.16-.08-.27-.02-.35l.04-.05.1-.03c.08-.01.16.02.24.1.05.05,1.06,1.09,2.4.49.05-.06.15-.16.33-.23-.02-.01-.05-.03-.07-.05-.05-.05-.13-.16-.08-.35v-.02s.07-.16.19-.28c-.67.25-1.29.29-1.67.29-.51,0-.92-.09-1.05-.12l-.08-.02c-.17-.07-.25-.23-.2-.39.1-.19.25-.26.4-.21h.01c.44.09,1.93.3,3.22-.59-.02-.12-.02-.21-.02-.26-.1-.24-.73-.9-1.48-1.53-.1-.04-.19-.07-.28-.07-.37,0-.74.28-1.03.56l.1-.05s1.12-.58,2.2,1.15l.09.14-.14.09s-.83.55-1.48.24c-.43-.2-.68-.69-.75-1.46v-.11c-.31.31-.52.62-.52.63l-.13.22-.23.04c-.44.1-.93.23-1.46.39.12.88-.62,1.28-1.2,1.5-.65.26-1.27.17-1.76-.22-.25.16-.48.32-.68.48.25.44.12.91-.39,1.45-.35.39-.81.55-1.28.45ZM11.68,4.6s0,.02,0,.02c.04.04.25.03.48,0-.16-.2-.26-.21-.29-.21-.08,0-.16.13-.19.19ZM11.89,4.06c.18,0,.35.11.53.32-.07-.19-.12-.37-.15-.52-.13.08-.25.14-.38.2ZM9.74,2.08c.07.56.26.91.54,1.05.34.16.77-.01,1-.13-.68-1.01-1.3-.98-1.54-.92Z"/>
      </g>
      <g>
        <path class="cls-1" d="M5.94,18.94s.04.09.06.13c0-.07-.03-.1-.06-.13ZM9.93,21.77c0-.5.28-.9.66-1.15-.22-.13-.4-.34-.53-.59-1.72-.28-3.03-.66-3.62-.84.13.25.25.5.37.78.47.56.87,1.09,1.22,1.58.44.13,1.09.28,1.9.4v-.19ZM9.96,24.1c0-.5.28-.91.65-1.15-.21-.13-.37-.31-.5-.53-.68-.13-1.28-.25-1.72-.34.41.65.72,1.27.91,1.92.15.03.37.13.66.19v-.09ZM9.96,26.31c0-.44.25-.84.65-1.06-.21-.15-.4-.34-.53-.59-.25-.06-.46-.13-.65-.19.03.19.06.37.09.56.03.5.19.93.44,1.28ZM9.96,16.95c-3.12-.5-5.21-1.34-5.93-1.68.07.09.13.16.19.25.03,0,.97,1.27,1.94,3.23.28.09,1.71.56,3.77.9v-.13c0-.5.28-.9.66-1.15-.4-.25-.66-.65-.66-1.15,0-.09,0-.19.03-.28ZM10.46,13.84c-4.52-.62-7.55-2.14-8.17-2.45.06,1.18.59,2.24,1.25,3.2.34.15,2.84,1.34,6.58,1.93.13-.19.28-.34.47-.46-.4-.25-.66-.66-.66-1.15,0-.44.22-.81.53-1.06ZM26.18,11.35c-.44.25-3.46,1.84-8.05,2.49.31.25.53.62.53,1.06,0,.5-.28.9-.66,1.15.19.12.34.28.44.46,3.68-.59,6.11-1.74,6.49-1.93.65-.99,1.21-2.05,1.25-3.23ZM14.26,14.74c-.13.34-.28.75-.46,1.12h.93c-.19-.37-.34-.78-.47-1.12ZM11.77,5.58c-.31,0-.38.25-.38.25.07,1.43.75,1.99.75,1.99.19.19.22.16.22.16.06-.03-.03-.19-.03-.19-.31-.5-.25-2.05-.22-2.02-.09-.22-.34-.19-.34-.19ZM13.71,13.69l.03-.99c-2.31-.09-2.52-1.31-2.52-1.37-.07-.46-.19-.87-.34-1.24-3.46-.19-6.86-1.71-7.46-1.99-.75.9-.99,2.05-1.06,2.82.75.4,5.15,2.68,11.36,2.77ZM14.3,7.78c-.31,0-.56.25-.56.56,0,.13.03.22.09.31v-.15c0-.28.22-.47.47-.47s.44.22.46.47v.15c.07-.09.1-.19.1-.31,0-.31-.25-.56-.56-.56ZM13.2,16.33c.31-.56.75-1.43.84-1.96.03-.15.07-.31.22-.31s.19.19.22.34c.09.5.5,1.27.78,1.84-.75-1.8-.72-2.3-.72-2.37l-.1-5.35c0-.09-.09-.19-.19-.19s-.19.09-.19.19l-.09,5.38s.03.53-.78,2.43ZM17.32,20.47c.53,0,.93-.44.93-.93,0-.53-.4-.97-.93-.97h-6.02c-.5,0-.93.4-.93.93s.4.97.93.97h6.02ZM17.32,22.77c.53,0,.93-.44.93-.93,0-.53-.4-.96-.93-.96h-6.02c-.5,0-.93.4-.93.93s.4.97.93.97h6.02ZM17.32,25.03c.5,0,.93-.4.93-.93s-.4-.97-.93-.97h-6.02c-.5,0-.93.4-.93.93s.4.96.93.96h6.02ZM18.66,19.66c1.96-.34,3.33-.81,3.68-.93,1-1.93,1.97-3.17,1.97-3.2.03-.09.09-.16.15-.25-.72.34-2.78,1.19-5.83,1.65.03.09.03.19.03.28,0,.5-.28.9-.66,1.15.4.25.66.65.66,1.15v.16ZM22.12,19.16c-.62.19-1.87.56-3.55.84-.13.25-.32.47-.53.59.4.25.65.66.65,1.15,0,.09-.03.15-.03.22.56-.09,1.18-.19,1.78-.34.38-.53.81-1.09,1.28-1.64.13-.25.25-.5.4-.81ZM18.66,26.19c.22-.31.34-.68.37-1.15,0-.19.03-.34.09-.53-.19.03-.37.1-.56.13-.13.25-.32.47-.56.62.37.19.59.53.66.93ZM20.13,22.11c-.56.13-1.09.22-1.62.31-.13.22-.28.4-.5.53.4.25.66.65.66,1.15v.09c.19-.03.37-.09.56-.13.19-.66.5-1.31.91-1.96ZM10.61,26.87c.6.34,1.44.5,2.53.5h2.25c.87,0,1.56-.09,2.09-.28.03,0,.06-.03.09-.03.16-.09.31-.15.47-.25.15-.13.21-.25.19-.5,0-.47-.4-.87-.93-.87h-6.02c-.5,0-.93.4-.93.87,0,.28.09.43.28.56ZM12.93,4.99c-.31-.44-.47-.97-.53-1.4-.87.6-1.84.75-2.52.75-.6,0-1.03-.13-1.06-.13-.07-.03-.13-.09-.1-.19.03-.06.1-.13.19-.09.03,0,1.9.46,3.46-.68-.03-.19-.03-.31-.03-.37-.09-.31-.9-1.09-1.56-1.65-.13-.06-.25-.09-.37-.09-.87,0-1.69,1.27-1.69,1.27l-.09.16-.15.03c-.56.13-1.13.28-1.62.44.16.68-.19,1.12-1.06,1.46-.56.22-1.19.19-1.68-.28-.34.22-.66.44-.93.66.31.4.22.84-.28,1.37-.31.34-.75.53-1.25.37-.13.25-.25.5-.34.78-1.4,3.94,2.37,8.73,2.41,8.79.74.99,1.48,1.88,2.23,2.75-1-1.94-1.96-3.18-1.96-3.21-.97-1.37-2.03-2.89-1.96-4.67-.03-1.8.72-5.63,6.33-5.37,0,0,.28,0,.31.3,0,0,.09,1.15.25,1.5.13.28.44.46.44.46.12.09.06.13.06.13-.03.03-.13,0-.13,0-.81-.34-.93-1.31-.93-1.31-.03-.25-.34-.25-.34-.25-.81-.12-2.46.22-2.46.22-.78.22-1.38.59-1.84,1.06.78.37,3.84,1.68,6.99,1.9-.28-.5-.6-.84-.78-1.03-.06-.06-.06-.19,0-.25.07-.07.19-.07.25,0,.37.37,1.28,1.4,1.43,2.89,0,0,.19.96,2.19,1.05v-.59c-1.78-.15-1.81-1.24-1.81-1.24-.16-2.09-1.97-3.43-1.97-3.43-.62-.59-.75-1.46-.75-1.46-.34-.19-.68-.75-.68-.75,0,0-.06-.12-.03-.15,0,0,.03-.06.13.03,0,0,1.12,1.18,2.59.52.06-.03.12-.19.4-.25.25-.03.31.09.62.03.19-.03.37-.07.66-.09ZM11.3,15.86h1.81c.38-.99.53-1.52.56-1.74-.82-.03-1.62-.07-2.37-.16-.5,0-.93.4-.93.93s.4.96.93.96ZM15.14,5.01c.37-.4.56-.99.62-1.46-.28-.03-.68-.03-1.19-.03h-.62c-.5,0-.9,0-1.19.03.07.46.25,1.05.62,1.46.22,0,.53.03.87.03.34-.03.62-.03.87-.03ZM19.84,25.1c-.19,2.05-1.68,3.08-4.43,3.08h-2.27c-2.74,0-4.21-1.05-4.4-3.08-.19-1.87-1.68-3.64-3.4-5.66-.75-.87-1.52-1.78-2.27-2.8-.16-.19-4.09-5.2-2.53-9.55.87-2.51,3.43-4.29,7.58-5.22.31-.5,1.46-1.92,2.84-1.4.4-.12,1.56-.37,3.31-.28,1.75-.06,2.9.19,3.31.28,1.34-.5,2.49.93,2.84,1.4,4.15.93,6.71,2.71,7.58,5.22,1.56,4.39-2.34,9.36-2.47,9.55-.75,1.02-1.53,1.92-2.27,2.8-1.75,2.02-3.25,3.79-3.41,5.66ZM17.26,16.24h-1.72c.09.15.16.34.25.56.15.37.15.53.03.59l-.03.03h-.07c-.12,0-.25-.13-.4-.4,0-.03-.19-.34-.4-.78h-1.31c-.22.43-.4.74-.43.78-.13.28-.25.4-.41.4h-.03l-.06-.03c-.13-.06-.13-.22.03-.56.09-.19.19-.37.25-.56h-1.66c-.5,0-.93.4-.93.93s.4.97.93.97h6.02c.53,0,.93-.44.87-.97,0-.53-.4-.96-.93-.96ZM15.82,2.84c.1-.4.85-1.12,1.4-1.62-.44-.09-1.46-.28-2.9-.22h-.13c-1.44-.06-2.47.13-2.9.22.56.5,1.31,1.21,1.4,1.62v.34c.31-.03.72-.03,1.25-.03h.62c.53,0,.93,0,1.25.03v-.34ZM16.79,5.54s-.25-.03-.34.19c0,0,.06,1.56-.22,2.02,0,0-.09.15-.03.19,0,0,.03,0,.22-.15,0,0,.68-.53.75-1.99,0,0-.09-.25-.38-.25ZM14.83,13.69c.87,0,1.68-.06,2.49-.15,4.99-.56,8.36-2.33,8.83-2.62-.06-.78-.34-1.92-1.06-2.82-.59.28-3.99,1.8-7.46,1.99-.15.37-.28.78-.34,1.24,0,.07-.22,1.25-2.5,1.37l.03.99ZM16.29,5.1c.31.07.38-.09.62-.03.25.06.34.21.4.25,1.46.66,2.59-.53,2.59-.53.06-.09.13-.03.13-.03.03.06-.03.15-.03.15,0,0-.34.59-.69.75,0,0-.12.87-.74,1.46,0,0-1.78,1.34-1.97,3.42,0,0-.06,1.09-1.81,1.25v.59c1.97-.09,2.15-1.06,2.15-1.06.15-1.49,1.06-2.51,1.43-2.89.07-.06.19-.06.25,0,.06.07.06.19,0,.25-.19.19-.5.52-.78,1.03,3.15-.22,6.21-1.56,6.99-1.9-.44-.46-1.06-.87-1.84-1.05,0,0-1.65-.31-2.47-.22,0,0-.31,0-.34.25,0,0-.13.96-.93,1.31,0,0-.09.06-.13,0,0,0-.06-.03.07-.13,0,0,.31-.19.44-.47.15-.34.25-1.49.25-1.49.03-.31.31-.31.31-.31,5.61-.25,6.34,3.58,6.34,5.38.06,1.77-1,3.27-1.97,4.63-.03,0-1.01,1.33-2.03,3.33.03-.03.05-.07.07-.09.75-.87,1.5-1.78,2.25-2.77.06-.06,3.8-4.85,2.49-8.77-.09-.25-.22-.46-.34-.71-.44.06-.81-.13-1.09-.44-.47-.5-.6-.9-.34-1.27-.31-.28-.69-.53-1.06-.75-.5.46-1.13.5-1.68.28-.87-.34-1.22-.81-1.06-1.46-.5-.16-1.06-.31-1.62-.44l-.16-.03-.09-.15s-1.06-1.65-2.05-1.18c-.66.56-1.44,1.31-1.56,1.64,0,.07,0,.19-.03.37,1.56,1.15,3.43.69,3.46.69.09-.03.15,0,.19.09s0,.15-.09.19c-.03.03-.47.13-1.06.13-.72,0-1.68-.13-2.56-.75-.09.4-.22.97-.53,1.4.28.03.47.07.66.09ZM17.32,13.94c-.78.09-1.59.12-2.46.15.06.25.19.78.56,1.74h1.9c.5,0,.93-.4.93-.93s-.43-.96-.93-.96Z"/>
        <path class="cls-2" d="M15.42,28.35h-2.24c-3.57,0-4.47-1.76-4.61-3.23-.18-1.82-1.65-3.56-3.36-5.56l-.07-.08c-.73-.85-1.48-1.73-2.22-2.73-.03-.04-4.18-5.18-2.55-9.71.9-2.58,3.47-4.36,7.64-5.32.23-.35,1.42-1.96,2.95-1.43.38-.11,1.53-.37,3.31-.27.82-.03,2.06,0,3.29.27,1.28-.44,2.38.67,2.95,1.42,4.17.95,6.75,2.74,7.64,5.32,1.41,3.96-1.52,8.39-2.45,9.65l-.04.05c-.67.92-1.37,1.73-2.04,2.52l-.25.29c-1.65,1.91-3.21,3.71-3.37,5.56h0c-.19,2.15-1.74,3.23-4.6,3.23ZM10.35.53c-1.17,0-2.04,1.37-2.08,1.43l-.04.06-.07.02C4.07,2.96,1.56,4.68.7,7.15c-1.56,4.36,2.46,9.33,2.5,9.38.73,1,1.48,1.87,2.21,2.72l.07.08c1.74,2.05,3.25,3.83,3.44,5.76.18,1.94,1.6,2.92,4.23,2.92h2.27c2.65,0,4.08-.98,4.25-2.92.17-1.97,1.76-3.81,3.45-5.76l.25-.29c.67-.78,1.36-1.59,2.02-2.5l.04-.05c.9-1.23,3.75-5.53,2.4-9.33-.86-2.47-3.37-4.19-7.46-5.11h-.06s-.04-.07-.04-.07c-.5-.68-1.51-1.76-2.64-1.34l-.05.02h-.05c-1.21-.29-2.44-.31-3.26-.29-1.89-.1-3.05.21-3.26.27l-.06.02-.05-.02c-.19-.07-.37-.1-.55-.1ZM15.39,27.54h-2.25c-1.16,0-2.01-.17-2.62-.52h-.01c-.25-.17-.35-.39-.35-.71,0-.57.51-1.05,1.11-1.05h6.02c.61,0,1.11.47,1.11,1.05.03.27-.04.46-.25.63-.11.06-.19.1-.27.14-.07.04-.15.07-.22.12l-.06.02s-.05.02-.08.03c-.55.19-1.25.28-2.13.28ZM10.7,26.72c.55.32,1.35.47,2.44.47h2.25c.85,0,1.51-.09,2.03-.27h.03s.04-.03.06-.03c.07-.04.15-.08.22-.11.07-.04.15-.07.22-.12.08-.07.12-.14.1-.33,0-.41-.34-.72-.76-.72h-6.02c-.41,0-.76.33-.76.7,0,.23.07.32.2.41ZM10.14,26.84l-.31-.43c-.28-.38-.44-.86-.47-1.37-.03-.19-.07-.36-.09-.54l-.04-.27.26.08c.18.06.4.12.64.18l.08.02.04.07c.1.2.26.37.48.53l.22.16-.24.13c-.34.19-.56.53-.56.91v.53ZM9.65,24.72c.01.08.03.17.04.25v.05c.02.29.09.56.19.8.09-.23.24-.43.44-.59-.15-.13-.26-.27-.35-.43-.11-.03-.22-.06-.32-.09ZM18.56,26.63l-.07-.42c-.06-.37-.26-.66-.56-.81l-.28-.14.26-.16c.21-.13.38-.32.5-.55l.04-.08h.09c.1-.03.19-.05.29-.08.09-.02.18-.05.26-.06l.28-.05-.08.27c-.05.17-.08.31-.08.48-.04.51-.17.92-.4,1.25l-.24.35ZM18.31,25.24c.17.13.3.3.4.5.08-.21.13-.45.15-.72,0-.1,0-.19.03-.28-.07.02-.14.03-.21.05-.1.17-.22.33-.37.46ZM17.32,25.21h-6.02c-.62,0-1.11-.5-1.11-1.13s.5-1.11,1.11-1.11h6.02c.62,0,1.11.5,1.11,1.14s-.5,1.1-1.11,1.1ZM11.3,23.31c-.42,0-.76.34-.76.76,0,.44.33.79.76.79h6.02c.42,0,.76-.34.76-.75,0-.45-.33-.79-.76-.79h-6.02ZM10.14,24.42l-.21-.05c-.16-.04-.31-.08-.43-.12-.09-.03-.16-.05-.22-.07l-.1-.02-.03-.1c-.17-.59-.45-1.19-.89-1.88l-.22-.35.4.08c.44.09,1.03.21,1.71.34h.08s.04.08.04.08c.12.21.27.37.44.47l.24.14-.23.15c-.36.24-.57.61-.57,1.01v.31ZM9.44,23.86s.1.03.16.05c.06.02.12.04.19.06.03-.39.22-.75.53-1.02-.12-.1-.22-.23-.32-.38-.47-.09-.89-.17-1.25-.24.32.54.54,1.04.69,1.53ZM18.49,24.4v-.3c0-.42-.2-.78-.57-1.01l-.25-.15.25-.15c.17-.1.31-.25.43-.47l.04-.07h.08c.54-.11,1.07-.2,1.62-.32l.4-.09-.22.35c-.42.68-.71,1.31-.89,1.92l-.03.1-.11.02c-.09.02-.18.04-.27.06-.1.02-.19.05-.29.07l-.2.04ZM18.3,22.95c.31.26.5.62.53,1.03.02,0,.05-.01.07-.02.06-.02.12-.03.18-.04.16-.5.38-1.02.69-1.56-.4.08-.79.15-1.17.22-.09.15-.2.27-.31.37ZM17.32,22.94h-6.02c-.62,0-1.11-.5-1.11-1.14s.5-1.1,1.11-1.1h6.02c.62,0,1.11.5,1.11,1.13s-.5,1.11-1.11,1.11ZM11.3,21.04c-.42,0-.76.34-.76.76,0,.45.33.79.76.79h6.02c.42,0,.76-.34.76-.76,0-.44-.33-.79-.76-.79h-6.02ZM18.49,22.16v-.2s0-.08.01-.12c0-.03.01-.06.01-.1,0-.42-.2-.78-.57-1.01l-.25-.15.05-.03c-.13.06-.28.09-.43.09h-6.02c-.62,0-1.11-.5-1.11-1.14s.5-1.11,1.11-1.11h6.02c.62,0,1.11.5,1.11,1.14,0,.37-.18.7-.46.9.18-.1.34-.29.45-.51l.04-.08h.04v-.34c0-.42-.2-.77-.57-1l-.23-.14.22-.15c.37-.25.58-.62.58-1.01,0-.08,0-.16-.02-.22l-.07-.2.21-.03c3.32-.5,5.4-1.45,5.78-1.64l.55-.26-.1.15c.06-.09.12-.17.18-.26h0c-.45.23-2.89,1.36-6.54,1.95l-.13.02-.06-.11c-.07-.15-.2-.29-.38-.4l-.22-.14.22-.15c.37-.25.58-.62.58-1.01,0-.35-.17-.68-.47-.93l-.31-.25.39-.06c4.85-.69,7.95-2.45,7.98-2.46l.26-.15c0-.92-.2-2.61-1.46-3.81-1.05-1-2.63-1.46-4.7-1.38-.05,0-.13.03-.15.16,0,.08-.06.67-.14,1.12.09-.21.11-.37.11-.38.04-.32.36-.4.52-.4.81-.1,2.43.21,2.5.22.95.23,1.58.73,1.94,1.1l.17.18-.22.1c-3.17,1.4-5.59,1.81-7.05,1.92l-.32.02.16-.28c.22-.39.49-.74.81-1.06-.33.33-.7.78-.98,1.35h.09c3.52-.19,7.01-1.79,7.39-1.98l.12-.06.09.11c.9,1.13,1.07,2.52,1.1,2.92v.11s-.08.05-.08.05c-.85.52-4.3,2.12-8.9,2.64-.91.1-1.71.15-2.51.15h-.11s0,.04,0,.06h.3c.8-.04,1.56-.07,2.27-.16h.02c.6,0,1.11.52,1.11,1.13s-.5,1.11-1.11,1.11h-1.96s.02.04.02.06h1.88c.62,0,1.11.5,1.11,1.13.03.28-.06.57-.25.79-.2.22-.49.35-.79.35h-6.02c-.62,0-1.11-.5-1.11-1.14s.5-1.11,1.11-1.11h1.82s.02-.04.02-.06h-1.84c-.62,0-1.11-.5-1.11-1.13s.5-1.11,1.11-1.11c.77.09,1.59.13,2.38.16h.13s0-.09,0-.09h-.11c-5.98-.09-10.27-2.16-11.44-2.79l-.08-.04v.02s0,.07,0,.1l.19.09c2.36,1.18,5.24,2.04,8.12,2.44l.4.05-.31.25c-.3.24-.47.57-.47.93,0,.42.2.78.57,1.01l.23.14-.23.15c-.16.1-.31.24-.42.42l-.06.09-.11-.02c-2.33-.37-4.6-1.03-6.55-1.91.02.03.04.06.06.1l.51.24c.38.18,2.47,1.13,5.88,1.67l.21.03-.07.2c-.02.06-.02.14-.02.22,0,.42.2.77.57,1l.23.14-.23.15c-.37.25-.58.61-.58,1.01v.33h.07s.04.09.04.09c.11.23.28.41.46.52l.24.14-.23.15c-.37.25-.58.61-.58,1.01v.39l-.2-.03c-.95-.15-1.61-.32-1.92-.41l-.06-.02-.04-.05c-.36-.51-.76-1.04-1.21-1.57l-.03-.04s0-.01,0-.02l-.47-.54v.31l-.33-.64c-.03-.05-.05-.09-.06-.12-.89-1.04-1.58-1.88-2.23-2.75h0s-.03-.04-.03-.04c-.88-1.19-3.67-5.35-2.4-8.92.09-.28.21-.52.33-.76l.09-.18.14.05c.52.17.89-.13,1.06-.32.56-.59.46-.91.28-1.14l-.1-.14.13-.11c.28-.22.6-.44.95-.67l.11-.07.1.09c.54.51,1.17.37,1.5.24.81-.31,1.09-.68.95-1.26l-.04-.16.15-.05c.59-.18,1.14-.33,1.64-.44h.08s.05-.1.05-.1c.04-.06.88-1.36,1.84-1.36.14,0,.29.04.45.11l.04.02c.15.13,1.47,1.26,1.61,1.73v.05c0,.06,0,.17.04.34h0s0-.37,0-.37c-.03-.12-.26-.52-1.35-1.49l-.26-.23.34-.07c.89-.19,1.91-.26,2.95-.22h.12c1.02-.04,2.04.03,2.93.22l.33.07-.25.23c-1,.9-1.29,1.32-1.35,1.51v.5l-.19-.02c-.3-.03-.71-.03-1.23-.03h-.62c-.52,0-.93,0-1.23.03l-.18.02.03.19c.04.29.16.85.5,1.33l.17.24-.3.03c-.28.03-.46.06-.64.09-.21.04-.33,0-.43-.01-.07-.02-.12-.03-.2-.02-.14.03-.2.09-.25.14-.03.03-.06.07-.11.09-.9.4-1.69.16-2.19-.12.07.07.14.12.2.16l.07.04v.08s.14.82.71,1.36c.06.04,1.86,1.4,2.02,3.54,0,.04.07.94,1.65,1.08h.07s.04-2.51.04-2.51l-.21-.33c-.08-.13-.12-.25-.12-.41,0-.4.33-.73.74-.73s.74.33.74.73c0,.16-.04.29-.13.41l-.27.37.05,2.51h.1c1.57-.15,1.65-1.06,1.65-1.09.19-2.14,1.96-3.49,2.04-3.55.55-.53.67-1.34.67-1.34v-.09s.1-.04.1-.04c.08-.04.16-.1.24-.18-.51.3-1.31.57-2.23.15-.05-.03-.08-.05-.11-.08-.06-.05-.13-.12-.27-.15-.08-.02-.12-.01-.19,0-.09.03-.22.06-.42.02l-.16-.02c-.13-.02-.28-.04-.48-.07l-.29-.03.17-.24c.29-.4.41-.93.5-1.32l.06-.24h0s.01-.1.01-.1c.03-.17.03-.28.03-.35v-.06c.19-.47,1.29-1.43,1.62-1.71l.04-.02c.67-.32,1.47.11,2.24,1.2l.03.05.05.09.09.02c.54.12,1.11.27,1.64.44l.15.05-.04.16c-.09.38-.07.86.95,1.26.33.13.95.27,1.5-.24l.09-.09.11.07c.32.19.74.45,1.09.77l.11.1-.08.12c-.13.19-.21.49.33,1.06.19.21.5.44.94.38l.12-.02.14.27c.1.19.19.36.27.56,1.35,4.02-2.49,8.91-2.53,8.95-.8,1.06-1.61,2.03-2.24,2.76l-.03.04s-.02.03-.04.05l-1.04,1.28.09-.18c-.41.5-.78.98-1.13,1.47l-.04.05-.06.02c-.52.14-1.07.23-1.56.31l-.43.07ZM8.13,21.4c.3.08.85.22,1.62.35,0-.43.2-.83.54-1.13-.14-.12-.26-.27-.35-.44-1.37-.23-2.48-.51-3.17-.72.06.13.13.27.19.41.43.51.83,1.03,1.18,1.53ZM18.34,20.59c.34.29.53.69.53,1.15h0s0,.01,0,.01c.48-.08.98-.16,1.47-.29.39-.54.81-1.08,1.25-1.6l.1-.21c.03-.07.07-.14.11-.21-.67.19-1.75.49-3.11.71-.1.17-.22.32-.35.43ZM11.3,18.74c-.42,0-.76.34-.76.76,0,.45.33.79.76.79h6.02c.42,0,.76-.34.76-.76,0-.45-.33-.79-.76-.79h-6.02ZM6.28,18.62c.38.12,1.68.52,3.48.84.02-.41.21-.78.54-1.07-.34-.29-.54-.7-.54-1.15,0-.04,0-.09,0-.14-2.51-.41-4.29-1.04-5.2-1.4.46.62,1.24,1.96,1.72,2.92ZM18.3,18.35c.33.28.53.67.54,1.1,1.81-.33,3.07-.76,3.38-.87.74-1.42,1.47-2.47,1.78-2.92-.87.36-2.67,1-5.17,1.4,0,.05,0,.09,0,.13,0,.43-.19.84-.54,1.15ZM22.12,19.16l.05.17-.05-.17ZM22.4,18.88h0s-.11.04-.24.08l.23-.07h0ZM11.3,16.44c-.42,0-.76.34-.76.76,0,.45.33.79.76.79h6.02c.21,0,.4-.08.54-.23.13-.15.19-.34.17-.54,0-.46-.34-.81-.76-.81h-1.44c.02.05.04.1.07.16l.07.16c.09.22.26.62-.02.79l-.03.04-.18.03c-.24,0-.42-.25-.55-.49l-.02-.06s-.06-.11-.11-.21c-.06-.11-.14-.26-.23-.43h-1.1c-.17.32-.33.6-.39.69-.1.22-.26.49-.56.49h-.04l-.13-.05c-.33-.16-.12-.61-.04-.78.06-.11.11-.22.15-.32h-1.4ZM24.63,15.88c-.13.16-.55.75-1.1,1.68.37-.46.77-.96,1.17-1.49.05-.06,3.75-4.76,2.47-8.61-.07-.17-.15-.34-.25-.52l-.03-.06c-.42.02-.81-.16-1.12-.5-.18-.19-.71-.75-.44-1.35-.27-.23-.57-.42-.82-.57-.49.39-1.13.48-1.76.23-.88-.34-1.28-.85-1.2-1.5-.48-.15-.98-.28-1.46-.39l-.23-.05-.13-.21s-.01-.02-.02-.03c-.31-.43-1.09-1.4-1.79-1.1-.76.65-1.36,1.27-1.48,1.53,0,.06,0,.14-.01.26,1.28.89,2.78.69,3.21.61h.02c.17-.06.33.02.39.2.06.18-.01.34-.2.41h0c-.21.09-.76.14-1.12.14-.94,0-1.76-.22-2.45-.64-.08.31-.18.66-.35.98.08.01.15.02.22.03l.18.03c.12.03.18,0,.26-.01.09-.02.2-.06.37-.01.22.05.35.17.42.24,1.34.61,2.36-.43,2.41-.48.04-.07.13-.1.17-.1.08,0,.16.03.2.07l.04.05c.06.13-.02.28-.05.32-.03.05-.33.55-.68.77-.05.25-.23.95-.78,1.47-.03.03-1.74,1.33-1.91,3.31,0,.04-.08,1.16-1.81,1.39v.25c1.62-.13,1.81-.9,1.81-.91.14-1.35.88-2.37,1.48-2.97.14-.13.37-.13.5,0,.13.14.13.36,0,.49-.23.23-.42.46-.59.71,1.42-.13,3.58-.56,6.36-1.76-.34-.31-.86-.66-1.58-.83,0,0-1.62-.3-2.41-.22-.02,0-.18,0-.19.1,0,.04-.15,1.06-1.04,1.44,0,0-.1.06-.2.03l-.07-.02-.04-.05s-.06-.08-.07-.14c0-.13.11-.22.15-.25.02-.01.28-.17.38-.4.12-.26.21-1.12.23-1.43.04-.37.33-.47.48-.47,2.16-.1,3.83.4,4.95,1.47,1.36,1.3,1.56,3.12,1.56,4.08.06,1.82-1.03,3.37-2,4.73l-.06.07ZM1.72,6.8c-.1.21-.2.41-.27.63-1.24,3.5,1.74,7.78,2.35,8.6.03.03.04.05.04.06.32.43.66.86,1.03,1.32-.42-.69-.77-1.19-.94-1.43-.06-.09-.1-.14-.12-.18-.92-1.3-2.05-2.9-1.98-4.76-.01-.75.11-2.67,1.51-4.04,1.12-1.09,2.8-1.6,5-1.5h0c.14,0,.44.1.48.46.03.32.12,1.18.24,1.44.1.22.37.39.37.39.05.04.17.13.16.26v.09s-.07.04-.07.04c-.1.1-.24.06-.3.04-.9-.38-1.04-1.4-1.05-1.45-.01-.1-.17-.1-.17-.1-.79-.11-2.41.21-2.42.22-.61.17-1.13.45-1.57.84.79.35,3.49,1.48,6.36,1.75-.17-.25-.36-.49-.58-.71-.06-.06-.1-.15-.1-.25,0-.1.04-.18.1-.24.13-.13.37-.13.5,0,.49.49,1.33,1.53,1.48,2.99h0s.21.76,1.84.89v-.25c-1.75-.21-1.81-1.34-1.81-1.39-.15-1.97-1.88-3.28-1.9-3.29-.57-.53-.75-1.25-.8-1.49-.35-.23-.66-.74-.67-.76-.08-.16-.08-.27-.02-.35l.04-.05.1-.03c.08-.01.16.02.24.1.05.05,1.06,1.09,2.4.49.06-.08.18-.2.44-.26.15-.02.25,0,.34.02.09.02.15.04.29.01.12-.02.25-.04.39-.06-.2-.35-.3-.71-.36-.98-.93.55-1.89.64-2.4.64s-.92-.09-1.05-.12l-.08-.02c-.17-.07-.25-.23-.2-.39.1-.19.25-.26.4-.21h.01c.44.09,1.93.3,3.22-.59-.02-.12-.02-.21-.02-.26-.1-.24-.73-.9-1.48-1.53-.1-.04-.19-.07-.28-.07-.77,0-1.54,1.18-1.54,1.19l-.13.22-.23.04c-.44.1-.93.23-1.46.39.12.88-.62,1.28-1.2,1.5-.65.26-1.27.17-1.76-.22-.25.16-.48.32-.68.48.25.44.12.91-.39,1.45-.35.39-.81.55-1.28.45ZM15.49,16.95c.15.27.23.3.24.3l.02-.02s0,0,0,0c0,0,0-.08-.11-.37l-.07-.16c-.06-.15-.11-.27-.17-.37l-.07-.11-.18.08c.08.14.14.27.2.37.08.16.12.23.14.27ZM13.13,16.3v.02c-.07.2-.17.39-.26.58-.13.27-.11.34-.11.34h0c.1-.01.18-.11.26-.3l.02-.04s.13-.22.29-.5l-.2-.1ZM3.65,14.45h.03c1.9.87,4.09,1.51,6.36,1.88.08-.1.16-.19.26-.27-.34-.29-.54-.7-.54-1.16,0-.34.12-.67.34-.94-2.69-.4-5.37-1.21-7.61-2.28.11.87.48,1.76,1.16,2.77ZM18.29,16.05c.1.08.18.18.24.28,3.43-.57,5.75-1.62,6.28-1.87.52-.81,1.06-1.76,1.17-2.8-.85.44-3.54,1.7-7.49,2.3.22.27.34.6.34.94,0,.44-.2.84-.54,1.15ZM13.54,16.07h1.44s-.01-.02-.02-.03h-1.41s-.01.02-.02.03ZM14.07,15.69h.39c-.06-.14-.13-.29-.2-.46-.06.15-.12.31-.19.46ZM11.28,14.14c-.4,0-.74.34-.74.76,0,.44.33.79.76.79h1.69c.29-.76.41-1.18.47-1.4-.74-.03-1.49-.07-2.18-.15ZM15.54,15.66h1.78c.42,0,.76-.34.76-.76s-.34-.78-.75-.79c-.72.08-1.46.11-2.25.14.07.27.2.72.46,1.41ZM14.25,14.22s-.01.06-.02.1l.03-.09s0-.01,0-.02ZM14.26,13.89s.08,0,.11.02v-.02l-.1-5.35-.12,5.37s.07-.01.11-.01ZM14.97,12.85l.02.66c.73,0,1.47-.05,2.3-.15,4.83-.55,8.09-2.23,8.66-2.54-.05-.46-.23-1.57-.93-2.51-.75.34-3.98,1.74-7.28,1.94-.15.38-.24.73-.29,1.09h0s-.15,1.32-2.49,1.51ZM2.53,10.82c1.27.67,5.35,2.57,11.01,2.69l.02-.65c-2.37-.16-2.52-1.52-2.52-1.54-.05-.37-.15-.72-.29-1.07-3.25-.2-6.42-1.55-7.29-1.94-.65.85-.86,1.89-.93,2.51ZM3.36,7.88l.12.06c.64.3,3.99,1.79,7.39,1.97h.11s.04.1.04.1c.18.41.29.83.36,1.28,0,.03.19,1.14,2.36,1.22h.05s-.03,0-.03,0c-2.11-.1-2.34-1.15-2.35-1.19-.14-1.38-.93-2.35-1.38-2.8.32.32.59.68.8,1.07l.16.28-.32-.02c-3.53-.25-6.91-1.84-7.05-1.91l-.22-.1.17-.17c.51-.52,1.16-.89,1.92-1.1.08-.02,1.7-.35,2.53-.22h0c.14,0,.45.09.49.4,0,0,.03.18.12.4-.09-.46-.14-1.05-.15-1.14-.01-.12-.1-.14-.14-.15-2.09-.09-3.69.38-4.75,1.4-1.19,1.16-1.39,2.76-1.41,3.58.07-.68.3-1.89,1.09-2.84l.09-.1ZM17.32,10.44c-.07.21-.13.43-.16.67.04-.23.09-.44.16-.67ZM20.06,4.89s0,0,0,0c0,0,0,0,0,0ZM13.95,2.98h.62c.43,0,.78,0,1.07.01v-.19c.08-.32.47-.79,1.21-1.47-.78-.14-1.64-.19-2.52-.15h-.13c-.89-.04-1.75.02-2.53.15.73.67,1.13,1.16,1.2,1.47v.19c.29-.01.65-.01,1.08-.01ZM12.35,8.14c-.09,0-.19-.06-.33-.21-.01-.01-.73-.61-.8-2.1v-.03s0-.03,0-.03c.03-.13.19-.37.53-.37.14-.01.4.03.51.29l.48,1.13-.49-.61c0,.47.04,1.19.22,1.47.04.07.1.19.07.3l-.02.07-.09.08h-.08ZM11.57,5.85c.04.77.27,1.27.46,1.55-.11-.52-.15-1.25-.09-1.6-.05-.06-.14-.05-.14-.05h-.02c-.13,0-.18.06-.2.1ZM16.2,8.11h-.04l-.1-.06-.04-.1c-.03-.11.03-.23.07-.3.21-.34.21-1.51.19-1.92v-.04s.01-.04.01-.04c.11-.26.37-.31.51-.29.31,0,.48.23.53.36v.03s.01.04.01.04c-.07,1.53-.79,2.1-.82,2.12-.21.17-.27.19-.32.19ZM16.62,5.77c0,.23.02,1.03-.09,1.61.18-.27.42-.77.46-1.56-.02-.04-.08-.11-.2-.11h-.02s-.1,0-.14.05ZM14.26,5.22c-.2,0-.38-.01-.54-.02-.12,0-.24-.01-.33-.01h-.08l-.05-.06c-.48-.52-.62-1.26-.67-1.55l-.03-.18.18-.02c.29-.03.7-.03,1.21-.03h.62c.51,0,.92,0,1.21.03l.17.02-.02.17c-.08.6-.33,1.18-.67,1.55l-.05.06h-.08c-.25,0-.52,0-.86.03h-.02ZM13.47,4.84c.08,0,.17,0,.27.01.16,0,.34.02.52.02.3-.03.56-.03.8-.03.24-.28.42-.69.5-1.13-.25-.02-.59-.02-.99-.02h-.62c-.4,0-.73,0-.98.02.06.3.2.77.5,1.13Z"/>
      </g>
    </g>
  </g>
</svg>