<?xml version="1.0" encoding="UTF-8"?>
<svg id="Layer_2" data-name="Layer 2" xmlns="http://www.w3.org/2000/svg" viewBox="0 0 21.96 28.35">
  <defs>
    <style>
      .cls-1 {
        fill: #231f20;
      }

      .cls-2 {
        fill: #fff;
      }
    </style>
  </defs>
  <g id="Layer_1-2" data-name="Layer 1">
    <g id="ed2419687c">
      <g>
        <g>
          <path class="cls-1" d="M18.17,8.93c.32-1.42-.2-2.63-.82-3.72-.03-.05-.1-.07-.15-.05-.05.03-.07.1-.05.15h0c.6,1.06,1.1,2.22.8,3.57-.01.06.03.12.09.13,0,0,.01,0,.03,0,.05,0,.09-.03.11-.09ZM16.85,10.64c.24-1.24.01-2.56-.65-3.81-.03-.05-.1-.07-.15-.05-.06.03-.08.1-.05.15.64,1.2.85,2.47.63,3.66-.01.07.03.12.09.14h.02c.05,0,.1-.04.11-.09ZM13.61,9.01c0-.35,0-.67.07-.89l.08.02c.16.05.35.11.41.2,0,.03.01.05.03.09.04.11.15.16.26.14s.18-.14.16-.26c0-.05-.02-.11-.05-.14-.2-.74,0-1.88.36-2.62.17.15.39.4.44.55.04.1.14.16.25.14.11-.02.18-.11.18-.22,0-.64.16-1.65.5-2.19.02.02.03.04.05.05.14.14.28.3.3.51,0,.12.11.21.23.2s.22-.11.22-.22v-.27c0-.8-.01-1.49.47-2.03.09,1.74.71,2.82,1.31,3.87.9,1.57,1.67,2.93.48,6.29-.25-.06-.51-.06-.74,0-.86.23-1.39.71-1.82,1.1-.31.28-.57.53-.89.6-.17.04-.35,0-.53-.1-.31-.2-.55-.61-.66-1.15-.14-.72-.65-1.37-1.35-1.97.18-.59.2-1.18.2-1.7h0Z"/>
          <path class="cls-2" d="M15.79,14.14c-.17,0-.34-.05-.49-.14-.36-.23-.63-.7-.75-1.28-.12-.61-.54-1.22-1.28-1.85l-.1-.08.04-.12c.17-.54.19-1.07.2-1.65v-.2c.01-.28.03-.55.09-.75l.05-.18.33.09c.18.06.36.12.46.25l.03.07s.01.04.02.06h0s.05-.02.05-.02c0-.04-.02-.06-.02-.06l-.03-.06c-.23-.83.02-2.01.37-2.75l.11-.23.2.17c.14.12.42.41.49.63h.05c0-.6.14-1.69.53-2.31l.13-.21.21.21c.17.17.35.37.38.65h.05v-.27c0-.81-.01-1.57.52-2.16l.32-.35.03.47c.09,1.69.7,2.75,1.28,3.78.88,1.54,1.72,3,.49,6.45l-.06.17-.17-.04c-.22-.05-.44-.05-.65,0-.82.22-1.33.68-1.74,1.05-.33.31-.61.56-.97.65-.06.01-.13.02-.19.02ZM13.63,10.64c.75.66,1.18,1.32,1.32,1.99.09.47.3.85.57,1.02.12.08.25.1.38.07.26-.07.5-.29.79-.55.43-.39,1-.91,1.92-1.15.21-.05.44-.06.66-.03,1.08-3.17.34-4.47-.52-5.97-.54-.94-1.09-1.9-1.28-3.34-.14.4-.14.88-.13,1.41v.27c0,.22-.18.41-.4.42-.11.01-.22-.03-.3-.1-.08-.07-.13-.18-.14-.29,0-.09-.05-.16-.11-.24-.23.51-.35,1.29-.35,1.85,0,.2-.15.38-.35.41-.2.04-.39-.07-.47-.26-.02-.07-.1-.17-.19-.28-.25.65-.41,1.56-.24,2.19.03.05.05.12.06.2.03.21-.1.42-.32.47-.2.05-.42-.06-.49-.26,0-.02-.01-.04-.02-.05-.03-.02-.1-.05-.16-.07-.02.18-.03.41-.03.64v.2c-.02.41-.04.93-.18,1.44ZM16.74,10.93h-.06c-.17-.04-.27-.2-.24-.38.22-1.14,0-2.36-.61-3.52-.04-.06-.05-.15-.03-.24.03-.08.09-.15.16-.19.14-.07.31-.02.4.12.69,1.3.92,2.66.68,3.95h0c-.03.15-.16.25-.3.25ZM16.83,10.63s0,0,0,0c0,0,0,0,0,0ZM16.17,6.84h0s0,0,0,0ZM18.07,9.22h-.08l-.03-.03c-.14-.05-.22-.2-.19-.35.29-1.3-.2-2.41-.78-3.42l-.03-.07c-.04-.13.02-.28.14-.35.16-.08.34-.03.42.11.64,1.13,1.18,2.38.85,3.87-.03.15-.15.25-.3.25Z"/>
        </g>
        <g>
          <path class="cls-1" d="M19.65,13.48c0-.25-.2-.45-.45-.45s-.45.2-.45.45.2.45.45.45.45-.2.45-.45ZM12.05,12.98c.05,0,.1-.03.11-.09.01-.07-.02-.12-.08-.13-.28-.08-.7-.16-1.18-.26-1.68-.34-4.5-.92-6.15-1.93-.05-.03-.12-.02-.16.03s-.01.12.04.16c1.69,1.03,4.42,1.58,6.22,1.96.48.1.89.18,1.17.26h.03ZM7.15,22.33s-.12-.04-.16,0c-.18.2-.44.36-.77.57-.53.34-1.27.8-2.07,1.72-.04.05-.04.12,0,.16.03.02.05.03.08.03s.06-.01.08-.04c.79-.89,1.47-1.33,2.02-1.68.33-.2.61-.38.82-.6.04-.05.04-.12,0-.16ZM9.58,10.37c-1.62-.31-4.58-1.3-5.71-2.29-.05-.05-.11-.04-.16,0-.04.05-.03.12.01.16,1.16,1.03,4.12,2.02,5.81,2.34,0,0,.01,0,.02,0,.05,0,.11-.04.11-.09.01-.07-.03-.12-.09-.13ZM7.71,8.95s.08-.02.1-.06c.03-.06,0-.12-.05-.15l-.14-.07c-1.26-.6-3.36-1.6-4.72-3.33-.04-.05-.11-.06-.16-.02-.05.04-.06.11-.02.16,1.39,1.78,3.53,2.79,4.81,3.39l.14.07s.03,0,.05,0ZM9.08,22.68c-.08.1-.49.48-.96.93-2.02,1.9-2.21,2.13-2.2,2.25,0,.06.05.11.11.11h.01c.05,0,.09-.05.1-.09.11-.2,1.37-1.39,2.13-2.1.49-.47.89-.83.98-.94.04-.05.03-.12-.01-.16-.05-.05-.11-.04-.16,0ZM10.77,22.59c-.78,1.5-1.83,2.6-2.39,3.19-.2.2-.35.35-.42.46-.03.05-.03.12.03.16.02.01.05.02.07.02.03,0,.07-.02.09-.05.07-.09.21-.24.39-.44.58-.6,1.64-1.71,2.43-3.23.03-.05.01-.12-.05-.15-.05-.03-.12,0-.15.05ZM11.45,25.71c.49-.89.59-1.19.72-1.6.05-.14.11-.32.18-.53.02-.06-.01-.12-.07-.14-.06-.02-.12,0-.14.07-.09.22-.14.39-.18.53-.13.41-.22.69-.7,1.57-.03.05-.01.12.04.15.02,0,.04.01.05.01.04,0,.08-.02.1-.06ZM11.56,21.21c-.02-.08-.07-.14-.14-.19-.16-.09-.37-.02-.61.05-.06.02-.14.05-.2.06-.03-.03-.09-.05-.14-.05-.12,0-.22.1-.22.22,0,.09.04.18.11.23.15.11.34.05.59-.03.06-.02.14-.05.2-.07.3,1.29.45,1.49.7,1.49.3-.01.35-.41.43-1.01.22.37.47.81.51.84.2.2.35.16.44.12.17-.09.26-.32.17-1.14-.02-.16-.04-.31-.06-.44.05,0,.09.01.13.01.37,1.28.07,3.51-.63,4.54-.01.03-.03.06-.03.09-.03.14-.49.08-.69.05-.11-.01-.19-.03-.26-.03-.1,0-.18.07-.21.15-.15.44-.32.85-.5.91-.18.06-.53-.18-.79-.36-.06-.05-.14-.05-.21-.03-.07.02-.12.08-.14.15-.12.49-.25.58-.28.59-.09.03-.28-.1-.44-.2-.22-.14-.47-.32-.76-.34-.02,0-.04,0-.05,0-.07,0-.11.05-.18.11-.74.71-1.18.79-1.42.73s-.44-.3-.59-.72c-.03-.07-.09-.13-.16-.14-.02,0-.03,0-.05,0-.07,0-.12.03-.16.07-.17.18-.32.26-.47.23-.28-.07-.55-.51-.68-.92-.02-.07-.09-.13-.16-.15s-.16,0-.21.07c-.38.41-.8.59-1.12.5-.16-.05-.28-.17-.31-.33-.05-.27.13-.59.49-.87.09-.07.12-.2.05-.3-.06-.1-.18-.13-.28-.09-.18.07-1.06.12-1.29,0,.52-1.8,3.12-2.87,5.03-3.66.93-.38,1.66-.69,2.01-1.01l.02-.02c.07-.09.12-.22.2-.46.2-.55.57-1.58,1.42-2.47.06-.07.08-.16.04-.25s-.12-.13-.22-.12c-.85.07-1.7-.57-2.08-1.21-.01-.03-.03-.05-.05-.06-.25-.21-.6-.28-.97-.34-.78-.14-1.72-.31-2.4-1.89.34-.04.73-.14.99-.29.09-.05.13-.15.11-.25s-.11-.17-.22-.17c-.66,0-2.3-1.45-2.9-2.29.37-.04.72-.13.93-.19.11-.03.17-.12.16-.24-.01-.11-.09-.19-.2-.2-.53-.05-1.24-.47-1.7-1.05-.35-.42-.55-.88-.57-1.31l1.01.04c.11,0,.2-.07.22-.16.03-.1-.01-.2-.1-.26-.93-.54-1.81-1.52-1.98-2.17-.05-.17-.03-.31.03-.41.08-.13.8-.17,1.35.16.11.07.24.03.3-.07.07-.1.04-.24-.06-.3-.72-.5-1.1-1.11-1.1-1.78,0-.62.35-1.27.95-1.77.2,2.27,1.99,3.92,3.44,5.27.2.19.39.37.58.54.71.68,1.94,1.35,3.24,2.06,2.16,1.16,4.6,2.49,4.91,4.04.13.66.44,1.18.85,1.44.28.18.58.23.88.15.41-.11.74-.39,1.07-.7.41-.37.88-.8,1.64-1,.4-.11.91.05,1.28.4.26.25.67.8.49,1.72,0,.03,0,.08,0,.11.03.07.08.15.24.39.09.13.21.3.32.46-.07-.03-.14-.07-.2-.09-.31-.15-.62-.32-.91-.32-1.59-.22-2.17,1.11-2.72,2.4-.46,1.07-.94,2.18-1.97,2.68-.47.24-1.18.47-1.66.48h0c-.19,0-.34-.03-.43-.1-.07-.07-.18-.07-.26-.03-.08.05-.12.14-.11.24.08.41.14.92.15,1.24-.21-.35-.58-.99-.61-1.04-.03-.06-.09-.1-.16-.11s-.12,0-.18.05c-.11.08-.13.22-.19.68-.01.1-.03.23-.05.35-.06-.2-.14-.49-.24-.95Z"/>
          <path class="cls-2" d="M7.01,27.9c-.06,0-.13,0-.18-.02-.31-.08-.56-.36-.73-.85-.13.08-.39.35-.7.28-.42-.1-.72-.71-.83-1.05-.48.45-.96.66-1.36.54-.24-.08-.4-.25-.45-.48-.07-.35.14-.73.56-1.06h0s-.03-.04-.03-.04c-.22.09-1.16.14-1.45,0l-.15-.07.05-.16c.55-1.9,3.2-2.99,5.14-3.78.91-.37,1.64-.68,1.95-.97.05-.06.1-.19.17-.4.22-.6.6-1.64,1.46-2.54-.02,0-.04,0-.06,0-.93,0-1.83-.68-2.22-1.35-.22-.19-.56-.25-.88-.31-.77-.14-1.82-.32-2.55-2l-.1-.24.26-.03c.36-.04.7-.14.91-.26v-.05c-.79,0-2.51-1.58-3.07-2.37l-.2-.27.34-.04c.27-.03.57-.09.89-.18-.6-.1-1.35-.56-1.85-1.17-.38-.46-.59-.95-.61-1.43v-.21s1.21.05,1.21.05l.12-.22-.1.17c-.96-.56-1.89-1.59-2.07-2.29-.07-.27-.01-.45.05-.56.05-.08.13-.13.26-.16.32-.08.91-.02,1.36.26h0s.03-.04.03-.04c-.78-.54-1.19-1.21-1.18-1.95,0-.68.37-1.38,1.02-1.92l.29-.24.03.38c.2,2.2,1.96,3.83,3.37,5.14l.58.54c.68.66,1.87,1.3,3.12,1.99l.09.05c2.19,1.18,4.67,2.52,5.01,4.18.12.6.4,1.08.77,1.31.23.15.48.19.72.13.38-.1.69-.38.99-.66.41-.37.91-.83,1.72-1.04.47-.12,1.04.05,1.47.45.29.28.75.9.55,1.9.02.05.07.14.22.36.09.13.21.3.32.46l.38.57-.89-.41c-.27-.13-.54-.27-.76-.27-1.45-.19-1.99,1-2.54,2.28-.45,1.05-.96,2.24-2.06,2.78-.46.23-1.21.49-1.74.5-.25.02-.44-.04-.57-.14h0s-.05.02-.05.02c.09.46.15.96.16,1.28v.42c.07-.12.07-.42.02-.88-.02-.15-.04-.3-.06-.43l-.04-.26.26.04s.07.01.1.01h.15l.04.14c.39,1.35.07,3.63-.66,4.7-.06.33-.51.29-.92.22h-.06c-.07-.02-.13-.02-.18-.02-.23.61-.39.97-.65,1.05-.23.08-.56-.1-.96-.39-.15.44-.28.68-.44.74-.18.06-.38-.07-.61-.21-.22-.15-.45-.3-.69-.32-.02.01-.05.04-.08.06-.56.54-1.04.81-1.43.81ZM6.08,26.61l.11.02c.11.02.23.12.28.26.08.25.23.55.45.6.16.04.53,0,1.24-.68.08-.08.16-.14.28-.16.04-.01.07-.01.1-.01.36.03.64.22.87.37.08.05.2.13.27.16.03-.05.09-.17.16-.43.04-.14.14-.25.27-.29.13-.05.28-.03.39.06.44.31.57.33.61.33.04-.02.15-.15.37-.78.05-.17.22-.28.4-.28.06,0,.14,0,.23.02h.06c.3.06.44.05.49.05.01-.03.02-.05.03-.07.43-.63.7-1.74.76-2.78-.03.03-.06.05-.1.07-.23.11-.47.05-.67-.15-.03-.03-.06-.08-.26-.41-.08.37-.21.61-.54.63,0,0-.01,0-.02,0-.41,0-.58-.37-.84-1.43-.26.08-.53.17-.76,0-.13-.09-.2-.23-.2-.39,0-.29.32-.5.58-.39.03-.01.07-.02.1-.03.3-.09.55-.16.78-.04.12.08.2.18.23.31h0s0,.03,0,.04c.04-.1.09-.17.17-.23.11-.07.23-.1.34-.08.12.02.23.1.29.21,0,.01.07.11.15.25-.02-.11-.04-.22-.06-.33-.03-.17.04-.35.19-.44.17-.1.36-.08.5.05,0,0,.09.05.29.05.47-.01,1.15-.24,1.59-.46.97-.48,1.43-1.55,1.87-2.58.55-1.29,1.17-2.75,2.93-2.52.16,0,.34.05.51.13-.1-.15-.15-.23-.17-.3-.04-.09-.02-.2-.02-.22.15-.77-.16-1.26-.44-1.53-.09-.08-.19-.16-.29-.21.15.12.24.3.24.51,0,.36-.29.65-.65.65s-.64-.29-.64-.65.29-.65.64-.65c0,0,0,0,.01,0-.14-.03-.28-.03-.4,0-.71.19-1.16.6-1.56.95-.32.29-.68.63-1.16.75-.35.09-.71.03-1.04-.18-.47-.3-.8-.85-.94-1.57-.3-1.47-2.8-2.82-4.81-3.91l-.09-.05c-1.28-.7-2.48-1.35-3.2-2.04l-.58-.54c-1.39-1.29-3.08-2.86-3.45-5.01-.39.42-.61.9-.61,1.37,0,.6.34,1.16,1.01,1.62.19.12.24.38.11.57-.12.2-.38.25-.57.13-.45-.27-1-.25-1.11-.2,0,.02,0,.11.03.22.15.61,1.02,1.54,1.89,2.05.17.11.25.31.19.49-.04.17-.21.3-.41.3l-.78-.03c.06.33.23.67.49.98.43.52,1.09.93,1.57.97.2.01.36.16.38.37.03.21-.1.4-.31.45-.21.06-.42.11-.61.15.71.85,2.04,1.94,2.54,1.94.19,0,.36.13.41.32.05.19-.04.39-.2.48-.19.11-.48.21-.79.27.62,1.27,1.43,1.41,2.15,1.54.38.07.76.14,1.06.38.04.03.08.07.1.13.34.57,1.12,1.16,1.88,1.1.19-.02.34.08.41.24.07.15.04.34-.07.46-.81.85-1.17,1.84-1.37,2.37-.1.29-.15.44-.25.55l-.04.04c-.37.34-1.09.64-2.07,1.04-1.79.74-4.22,1.73-4.85,3.33.3.03.84,0,.96-.05.18-.09.42-.01.53.17.12.17.08.41-.1.55-.29.23-.45.49-.42.68.02.11.11.16.18.18.24.07.59-.1.92-.45.1-.11.25-.16.4-.12.15.04.27.15.31.29.14.42.39.75.54.78.07.02.21-.1.28-.17.07-.08.19-.14.31-.14ZM12.62,25.9s0,0,0,0c0,0,0,0,0,0ZM12.17,21.33l.4.68c.14.24.34.58.38.63.04.04.07.06.09.07l-.57-.97c-.13-.22-.24-.4-.25-.43l-.17-.17.11.16s-.07.23-.11.54v.09c-.02.08-.03.18-.05.27l-.08.49c.09-.11.13-.45.18-.79l.08-.57ZM11.3,21.19l.05.2c.19.82.31,1.14.4,1.27l-.13-.44c-.07-.25-.15-.53-.25-.96,0-.03-.03-.05-.05-.07-.07-.04-.25.01-.43.07-.08.03-.17.05-.23.07l-.09.02-.07-.06c-.04.06-.03.08,0,.1.06.04.2,0,.41-.06.06-.02.14-.05.21-.07l.2-.06ZM19.2,13.23c-.13,0-.25.12-.25.26s.11.26.25.26c.14,0,.26-.11.26-.26s-.11-.26-.26-.26ZM8.05,26.62c-.06,0-.12-.02-.18-.05-.14-.1-.17-.28-.08-.43.09-.13.23-.28.45-.5.56-.59,1.6-1.67,2.36-3.14h0c.09-.15.26-.21.41-.13.07.03.13.1.16.18.03.08.01.18-.03.25-.8,1.55-1.92,2.71-2.46,3.27l-.06.06c-.14.15-.27.29-.32.36-.06.08-.16.13-.25.13ZM10.79,22.61s0,0,0,0c0,0,0,0,0,0ZM6.06,26.16c-.2,0-.34-.14-.34-.3-.02-.2-.03-.25,2.26-2.4l.15-.14c.37-.35.73-.69.79-.76v-.02c.07-.06.14-.09.22-.1.07-.01.17.03.23.09.11.1.13.28.03.42-.09.1-.34.34-.72.7l-.28.27c-1.3,1.21-1.97,1.89-2.08,2.04-.04.11-.14.19-.26.21h0ZM11.35,25.97s-.08-.01-.12-.02c-.19-.11-.23-.3-.14-.44.47-.86.55-1.13.68-1.53.06-.18.11-.34.19-.54.05-.15.23-.24.39-.18.16.06.24.24.19.39-.08.21-.14.38-.18.52-.14.44-.25.76-.74,1.64-.05.1-.16.16-.27.16ZM11.43,25.69h0s0,0,0,0ZM12.33,23.56h0s0,0,0,0ZM4.24,25.01c-.07,0-.14-.02-.2-.07-.14-.12-.15-.31-.04-.44.83-.95,1.6-1.44,2.12-1.76.32-.2.56-.35.73-.53.05-.06.13-.1.21-.1h0c.08,0,.15.03.21.08.06.05.1.13.1.22,0,.08-.03.16-.08.22-.23.26-.55.45-.86.64-.54.34-1.2.76-1.98,1.64-.05.06-.14.11-.23.11ZM4.17,24.64s0,0,0,.01c0,0,0,0,0-.01ZM7.14,22.47s0,0,0,0c0,0,0,0,0,0ZM12.05,13.17h-.08c-.27-.08-.68-.16-1.16-.26l-.08-.02c-1.8-.37-4.51-.94-6.21-1.97-.15-.09-.19-.29-.1-.43.04-.07.11-.12.19-.14.08-.02.17,0,.24.04,1.64,1,4.53,1.59,6.08,1.9l.45.1c.3.06.55.12.75.17.15.03.25.19.22.36-.04.15-.16.25-.31.25ZM12.04,12.95s0,0,0,0c0,0,0,0,0,0ZM4.65,10.74s0,0,0,0c0,0,0,0,0,0ZM9.56,10.79l-.1-.02c-1.66-.33-4.63-1.29-5.86-2.38-.06-.05-.1-.13-.1-.21,0-.08.02-.16.07-.22.14-.14.33-.14.45-.02,1.09.95,4,1.92,5.6,2.23.08.01.15.05.2.12.05.07.07.16.05.25-.02.14-.15.25-.31.25ZM3.75,8.23h0s0,0,0,0ZM3.86,8.1s0,0,0,0c0,0,0,0,0,0ZM7.71,9.14h-.05l-.23-.1c-1.28-.6-3.44-1.61-4.87-3.45-.05-.07-.08-.15-.07-.23.01-.08.05-.16.12-.21.05-.04.14-.07.22-.06.08,0,.16.05.21.12,1.33,1.69,3.4,2.68,4.64,3.27l.15.07c.07.03.13.09.16.17.03.08.03.16,0,.24-.06.11-.16.18-.28.18ZM7.7,8.86v.09s0-.1,0-.1h0ZM7.67,8.92s0,0,0,0h0ZM2.73,5.46s0,0,0,0c0,0,0,0,0,0Z"/>
        </g>
        <g>
          <path class="cls-1" d="M19.2,13.48s0,0,0,0c0,0,0,0,0,0ZM19.2,13.03c.25,0,.45.2.45.45s-.2.45-.45.45-.45-.2-.45-.45.2-.45.45-.45Z"/>
          <path class="cls-2" d="M19.2,14.13c-.36,0-.64-.29-.64-.65s.29-.65.64-.65.65.29.65.65-.29.65-.65.65ZM19.05,13.68c.09.07.23.07.31,0h-.31ZM19.2,13.23c-.14,0-.25.12-.25.26,0,.06.02.11.05.16v-.24s.15-.15.15-.15l.25.1v.29s.05-.1.05-.16c0-.14-.11-.26-.26-.26ZM19.21,13.48h.19-.19Z"/>
        </g>
        <g>
          <path class="cls-1" d="M17.35,5.21c.62,1.09,1.14,2.3.82,3.72-.01.06-.06.09-.11.09-.01,0-.02,0-.03,0-.06-.01-.1-.07-.09-.13.3-1.35-.2-2.51-.8-3.56h0c-.03-.06,0-.12.05-.16.05-.03.12,0,.15.05Z"/>
          <path class="cls-2" d="M18.07,9.22h-.08l-.03-.03c-.14-.05-.22-.2-.19-.35.29-1.3-.2-2.41-.78-3.42l-.03-.07c-.04-.13.02-.28.14-.35.16-.08.34-.03.42.11h0c.64,1.13,1.18,2.38.84,3.87-.03.14-.15.25-.3.25ZM17.98,8.88h0s0,0,0,0Z"/>
        </g>
        <g>
          <path class="cls-1" d="M16.2,6.84c.66,1.25.89,2.56.65,3.81-.01.05-.06.09-.11.09h-.02c-.06-.01-.1-.07-.09-.14.22-1.18,0-2.45-.63-3.66-.03-.05-.01-.12.05-.15.05-.03.12,0,.15.05Z"/>
          <path class="cls-2" d="M16.74,10.93h-.06c-.17-.04-.27-.2-.24-.38.22-1.14,0-2.36-.61-3.52-.04-.06-.05-.15-.03-.24.03-.08.09-.15.16-.19.14-.07.31-.02.4.12h0c.68,1.3.92,2.66.67,3.95-.04.15-.16.25-.31.25ZM16.83,10.63s0,0,0,0c0,0,0,0,0,0ZM16.17,6.84h0s0,0,0,0Z"/>
        </g>
        <g>
          <path class="cls-1" d="M12.17,24.11c-.13.41-.23.71-.72,1.6-.02.04-.06.06-.1.06-.01,0-.03,0-.05-.01-.05-.03-.07-.1-.04-.15.48-.88.57-1.16.7-1.57.05-.14.1-.32.18-.53.02-.06.09-.09.14-.07.05.02.09.09.07.14-.08.21-.14.38-.18.53Z"/>
          <path class="cls-2" d="M11.35,25.97s-.08-.01-.12-.02c-.11-.06-.16-.13-.18-.2-.02-.08,0-.17.04-.24.47-.86.55-1.13.68-1.53.06-.18.11-.34.19-.54.05-.15.23-.24.39-.18.16.06.24.24.19.39-.08.21-.14.38-.18.52h0c-.14.44-.25.76-.74,1.64-.05.1-.16.16-.27.16ZM11.43,25.69h0s0,0,0,0ZM11.28,25.62s0,0,0,0c0,0,0,0,0,0ZM12.33,23.56h0s0,0,0,0Z"/>
        </g>
        <g>
          <path class="cls-1" d="M8.38,25.78c.57-.59,1.62-1.69,2.39-3.19.03-.05.1-.07.15-.05.06.03.08.1.05.15-.79,1.53-1.85,2.64-2.43,3.23-.18.2-.33.35-.39.44-.02.03-.06.05-.09.05-.02,0-.05,0-.07-.02-.05-.04-.06-.11-.03-.16.07-.11.22-.26.42-.46Z"/>
          <path class="cls-2" d="M8.05,26.62c-.06,0-.12-.02-.18-.05-.14-.1-.17-.28-.08-.43.09-.13.23-.28.45-.49h0c.56-.59,1.59-1.67,2.35-3.14.1-.15.27-.2.42-.13.07.03.13.1.16.18.03.08.01.18-.03.25-.8,1.55-1.92,2.71-2.46,3.27l-.06.06c-.14.15-.27.29-.32.36-.06.08-.16.13-.25.13ZM10.79,22.61s0,0,0,0c0,0,0,0,0,0Z"/>
        </g>
        <g>
          <path class="cls-1" d="M8.12,23.61c.47-.45.88-.83.96-.93.05-.05.11-.05.16,0,.05.04.05.11.01.16-.09.11-.49.47-.98.94-.76.71-2.02,1.91-2.13,2.1,0,.05-.05.09-.1.09h-.01c-.05,0-.11-.05-.11-.11-.01-.12.17-.35,2.2-2.25Z"/>
          <path class="cls-2" d="M6.06,26.16c-.2,0-.34-.14-.34-.3-.02-.2-.03-.25,2.26-2.4l.15-.14c.37-.35.73-.69.79-.76.14-.14.33-.14.45-.02.11.1.13.28.03.42-.09.1-.34.34-.72.7l-.28.27c-1.3,1.21-1.97,1.89-2.08,2.04-.04.11-.14.19-.26.21h0Z"/>
        </g>
        <g>
          <path class="cls-1" d="M10.9,12.5c.48.11.9.18,1.18.26.06.01.09.07.08.13-.01.05-.06.09-.11.09h-.03c-.28-.07-.69-.16-1.17-.26-1.8-.37-4.53-.93-6.22-1.96-.05-.03-.07-.11-.04-.16s.11-.07.16-.03c1.65,1.01,4.46,1.58,6.15,1.93Z"/>
          <path class="cls-2" d="M12.05,13.17h-.08c-.27-.08-.68-.16-1.16-.26l-.08-.02c-1.8-.37-4.51-.94-6.21-1.97-.15-.09-.19-.29-.1-.43.04-.07.11-.12.19-.14.08-.02.17,0,.24.04,1.64,1,4.53,1.59,6.08,1.9h0s.45.1.45.1c.3.06.55.12.75.17.15.03.25.19.22.36-.04.15-.16.25-.31.25ZM12.04,12.95s0,0,0,0c0,0,0,0,0,0ZM4.65,10.74s0,0,0,0c0,0,0,0,0,0Z"/>
        </g>
        <g>
          <path class="cls-1" d="M6.22,22.9c.33-.2.59-.37.77-.57.04-.05.11-.05.16,0s.05.11,0,.16c-.2.22-.49.4-.82.6-.55.35-1.24.78-2.02,1.68-.02.03-.05.04-.08.04s-.05,0-.08-.03c-.05-.04-.05-.11,0-.16.8-.92,1.54-1.39,2.07-1.72Z"/>
          <path class="cls-2" d="M4.24,25.01c-.07,0-.14-.02-.2-.07-.07-.06-.11-.14-.11-.23,0-.08.03-.16.08-.22.83-.95,1.6-1.44,2.12-1.76h0c.32-.2.56-.35.73-.53.05-.06.13-.1.21-.1h0c.08,0,.15.03.21.08.06.05.1.13.1.22,0,.08-.03.16-.08.22-.23.26-.55.45-.86.64-.54.34-1.2.76-1.98,1.64-.05.06-.14.11-.23.11ZM4.17,24.64s0,0,0,.01c0,0,0,0,0-.01ZM7.14,22.47s0,0,0,0c0,0,0,0,0,0Z"/>
        </g>
        <g>
          <path class="cls-1" d="M9.54,10.59c-1.69-.32-4.65-1.31-5.81-2.34-.05-.04-.05-.11-.01-.16.05-.05.11-.05.16,0,1.12.99,4.09,1.98,5.71,2.29.07,0,.11.07.09.13,0,.05-.06.09-.11.09,0,0-.01,0-.02,0Z"/>
          <path class="cls-2" d="M9.56,10.79l-.1-.02c-1.66-.33-4.63-1.29-5.86-2.38-.06-.05-.1-.13-.1-.21,0-.08.02-.16.07-.22.14-.14.33-.14.45-.02,1.09.95,4.01,1.93,5.6,2.23.07,0,.14.05.19.12.05.07.07.16.05.25-.02.14-.15.25-.31.25ZM3.75,8.23h0s0,0,0,0ZM3.86,8.1s0,0,0,0c0,0,0,0,0,0Z"/>
        </g>
        <g>
          <path class="cls-1" d="M7.75,8.74c.06.03.08.09.05.15-.02.04-.06.06-.1.06-.02,0-.03,0-.05,0l-.14-.07c-1.28-.6-3.41-1.61-4.81-3.39-.04-.05-.03-.12.02-.16.05-.04.12-.03.16.02,1.36,1.74,3.46,2.73,4.72,3.33l.14.07Z"/>
          <path class="cls-2" d="M7.71,9.14h-.05l-.23-.1c-1.28-.6-3.44-1.61-4.87-3.45-.05-.07-.08-.15-.07-.23.01-.08.05-.16.12-.21.05-.04.14-.07.22-.06.08,0,.16.05.21.12,1.33,1.69,3.4,2.68,4.64,3.27l.15.07c.07.03.13.09.16.17.03.08.03.16,0,.24-.06.11-.16.18-.28.18ZM2.73,5.46s0,0,0,0c0,0,0,0,0,0Z"/>
        </g>
        <g>
          <path class="cls-1" d="M13.68,8.11c-.07.22-.07.54-.07.89h0c0,.52-.02,1.11-.2,1.7.7.6,1.2,1.25,1.35,1.97.11.54.35.95.66,1.15.17.11.35.14.53.1.32-.08.58-.32.89-.6.43-.39.96-.87,1.82-1.1.24-.06.49-.06.74,0,1.19-3.36.42-4.72-.48-6.29-.6-1.05-1.22-2.13-1.31-3.87-.49.54-.48,1.24-.47,2.03v.27c0,.12-.1.22-.22.22s-.22-.09-.23-.2c-.02-.22-.16-.37-.3-.51-.02-.01-.03-.03-.05-.05-.34.54-.5,1.55-.5,2.19,0,.11-.07.2-.18.22-.11.02-.21-.04-.25-.14-.05-.15-.27-.4-.44-.55-.35.74-.57,1.87-.36,2.62.03.04.04.09.05.14.02.12-.05.23-.16.26s-.22-.03-.26-.14c-.01-.03-.02-.06-.03-.09-.07-.09-.26-.14-.41-.2l-.08-.02ZM11.42,21.02c.07.05.12.11.14.19.1.46.18.76.24.95.02-.12.03-.26.05-.35.06-.46.08-.6.19-.68.06-.04.12-.06.18-.05s.12.05.16.11c.03.05.4.68.61,1.04,0-.32-.07-.83-.15-1.24-.02-.1.03-.19.11-.24.08-.05.18-.04.26.03.09.07.24.11.43.1h0c.49-.01,1.19-.24,1.66-.48,1.03-.51,1.51-1.61,1.97-2.68.55-1.29,1.13-2.62,2.72-2.4.28,0,.6.17.91.32.06.03.12.06.2.09-.11-.16-.22-.33-.32-.46-.16-.24-.22-.33-.24-.39-.01-.03-.01-.08,0-.11.18-.91-.24-1.47-.49-1.72-.37-.35-.88-.51-1.28-.4-.76.2-1.22.62-1.64,1-.34.31-.66.6-1.07.7-.3.08-.6.03-.88-.15-.41-.26-.72-.78-.85-1.44-.32-1.55-2.75-2.88-4.91-4.04-1.3-.71-2.53-1.37-3.24-2.06-.18-.17-.37-.35-.58-.54-1.45-1.35-3.23-3-3.44-5.27-.6.51-.95,1.15-.95,1.77,0,.67.37,1.28,1.1,1.78.1.07.12.2.06.3-.07.11-.2.14-.3.07-.55-.34-1.27-.3-1.35-.16-.06.1-.07.24-.03.41.16.65,1.05,1.63,1.98,2.17.09.05.13.16.1.26-.03.1-.12.16-.22.16l-1.01-.04c.02.43.22.89.57,1.31.47.57,1.17,1,1.7,1.05.11,0,.19.09.2.2.01.11-.05.21-.16.24-.2.06-.55.15-.93.19.6.84,2.24,2.29,2.9,2.29.11,0,.19.07.22.17s-.02.2-.11.25c-.26.15-.65.25-.99.29.68,1.58,1.62,1.75,2.4,1.89.37.07.72.13.97.34.02.01.04.03.05.06.37.64,1.23,1.28,2.08,1.21.09,0,.18.04.22.12s.02.18-.04.25c-.85.89-1.22,1.91-1.42,2.47-.09.24-.13.37-.2.46l-.02.02c-.35.32-1.08.62-2.01,1.01-1.91.78-4.51,1.85-5.03,3.66.23.11,1.11.07,1.29,0,.1-.05.22-.01.28.09.07.1.04.22-.05.3-.35.28-.54.6-.49.87.03.16.14.28.31.33.33.09.74-.09,1.12-.5.05-.06.13-.09.21-.07s.14.08.16.15c.13.41.41.85.68.92.14.03.3-.05.47-.23.04-.05.1-.07.16-.07.01,0,.03,0,.05,0,.08.01.14.07.16.14.14.42.34.66.59.72s.68-.02,1.42-.73c.07-.07.11-.11.18-.11.01,0,.03,0,.05,0,.29.03.55.2.76.34.16.11.35.23.44.2.03-.01.16-.1.28-.59.02-.07.07-.13.14-.15.07-.03.15-.02.21.03.26.18.61.42.79.36.18-.06.35-.47.5-.91.03-.09.11-.15.21-.15.07,0,.16.01.26.03.2.03.66.1.69-.05,0-.03.02-.07.03-.09.7-1.03,1-3.25.63-4.54-.05,0-.09,0-.13-.01.02.13.04.28.06.44.09.82,0,1.05-.17,1.14-.09.04-.24.08-.44-.12-.03-.03-.29-.47-.51-.84-.08.6-.13.99-.43,1.01-.26,0-.41-.2-.7-1.49-.07.02-.14.05-.2.07-.24.08-.43.14-.59.03-.07-.05-.11-.14-.11-.23,0-.12.1-.22.22-.22.05,0,.11.02.14.05.06-.01.14-.04.2-.06.24-.07.45-.14.61-.05ZM12.01,26.44c-.21.58-.4.91-.73,1.02-.28.09-.58-.03-.93-.25-.12.33-.27.51-.47.59-.3.11-.57-.07-.84-.25-.16-.1-.32-.2-.47-.25-.26.24-.9.85-1.56.85-.09,0-.16,0-.25-.03-.32-.08-.59-.32-.78-.71-.25.17-.48.17-.64.14-.4-.09-.7-.48-.89-.9-.43.36-.91.51-1.31.39-.34-.1-.57-.35-.63-.68-.05-.26.02-.55.19-.82-.41.03-.89-.01-1.1-.18-.12-.1-.17-.24-.13-.39.54-2.04,3.29-3.18,5.31-4.01.83-.35,1.56-.64,1.86-.9.03-.05.08-.19.12-.32.18-.51.51-1.41,1.2-2.26-.83-.13-1.59-.74-1.98-1.37-.16-.12-.43-.17-.74-.22-.87-.16-2.08-.37-2.85-2.46-.03-.07-.01-.14.03-.2.05-.06.11-.09.18-.09.14,0,.31-.02.48-.05-1.06-.55-2.48-1.99-2.76-2.63-.03-.07-.03-.15.02-.22.04-.06.11-.1.18-.1.11,0,.23-.01.36-.03-.42-.22-.83-.54-1.15-.93-.48-.59-.72-1.24-.66-1.86.01-.12.11-.2.23-.2l.47.02c-.71-.56-1.37-1.32-1.54-2.01-.07-.29-.05-.55.09-.75.15-.25.53-.34.95-.3-.42-.53-.53-1.06-.53-1.46,0-.88.56-1.77,1.48-2.39.07-.05.16-.05.23-.01.08.04.12.12.12.2,0,2.3,1.84,4,3.32,5.38.2.19.4.37.58.55.67.64,1.87,1.29,3.15,1.99,1.18.63,2.43,1.31,3.41,2.07.12-.48.13-.96.14-1.4,0-.53.01-.97.22-1.3.06-.1.19-.13.29-.08.05.03.14.05.23.08.05.01.11.03.18.05-.08-.95.25-2.07.6-2.66.06-.1.18-.14.28-.09.13.06.3.2.46.36.09-.75.32-1.64.77-2.08.05-.05.13-.07.2-.05.07.01.14.07.16.14.01.03.07.1.13.16.03-.8.17-1.57,1-2.14.07-.05.16-.05.24-.01.07.04.12.11.12.2,0,1.91.64,3.03,1.27,4.12.91,1.6,1.77,3.11.51,6.66.19.09.37.21.53.36.54.51.78,1.26.64,2.04.04.06.11.16.16.25.21.3.49.72.6,1,.03.07.02.13-.01.19s-.09.1-.16.11c-.26.04-.55-.11-.88-.28-.26-.12-.55-.27-.72-.27,0,0-.02,0-.03,0-1.2-.17-1.64.7-2.26,2.14-.47,1.08-1,2.32-2.18,2.91-.01,0-.82.4-1.56.5.35,1.4.04,3.65-.69,4.77-.13.52-.82.43-1.19.37-.01,0-.03,0-.05,0Z"/>
          <path class="cls-2" d="M7.02,28.35c-.11,0-.2,0-.29-.03-.32-.08-.6-.3-.81-.63-.19.08-.39.11-.6.06-.35-.08-.68-.35-.92-.79-.44.3-.89.4-1.3.28-.4-.12-.69-.43-.77-.83-.04-.21-.02-.43.06-.65-.3,0-.69-.06-.9-.24-.18-.14-.26-.36-.2-.59.56-2.14,3.37-3.3,5.42-4.14l.15-.06c.69-.29,1.35-.56,1.63-.78.03-.06.06-.16.1-.26.16-.45.45-1.26,1.04-2.07-.7-.2-1.37-.71-1.78-1.35-.13-.08-.37-.12-.62-.17-.88-.16-2.2-.4-3.01-2.59-.05-.12-.03-.27.05-.38.06-.08.15-.14.23-.16-.99-.68-2.09-1.83-2.35-2.42-.06-.13-.05-.29.04-.41.03-.05.08-.1.14-.13-.27-.2-.53-.43-.74-.68-.52-.63-.76-1.34-.7-2,.02-.19.16-.34.35-.37C.61,6.35.18,5.72.04,5.18c-.08-.36-.04-.66.11-.9.13-.22.4-.35.74-.39-.23-.39-.35-.82-.35-1.26,0-.95.59-1.9,1.57-2.55.14-.09.3-.1.43-.02.13.07.22.21.22.37,0,2.21,1.8,3.88,3.24,5.22l.18.17c.15.14.29.27.42.4.63.6,1.79,1.23,3.01,1.9l.09.05c1.15.62,2.26,1.23,3.18,1.9.06-.35.07-.7.07-1.06,0-.55.01-1.03.25-1.4.11-.18.36-.25.55-.15.02.01.06.03.11.04,0-.92.3-1.92.64-2.49.11-.19.33-.26.53-.17.08.04.16.09.24.15.1-.56.31-1.38.78-1.83.1-.1.25-.14.39-.1.03,0,.05.01.07.02.08-.67.31-1.33,1.05-1.83.14-.09.29-.1.44-.03.14.08.23.22.23.37,0,1.85.63,2.96,1.24,4.02.92,1.62,1.79,3.15.58,6.66.16.09.31.2.43.31.57.54.83,1.32.71,2.14v.02c.05.05.09.11.12.16.33.46.53.81.62,1.04.05.11.04.24-.03.35-.06.11-.17.18-.29.21-.33.05-.63-.11-.99-.29-.25-.12-.53-.26-.65-.26h-.07c-1.01-.15-1.4.5-2.05,2.01-.48,1.12-1.03,2.39-2.27,3,0,0-.69.34-1.41.48.29,1.46-.04,3.59-.75,4.69-.18.6-.89.55-1.29.5-.2.52-.42.87-.8.99-.32.1-.63,0-.89-.15-.13.25-.28.41-.49.49-.39.15-.74-.08-1.02-.26l-.05-.03c-.09-.06-.18-.12-.27-.16-.31.29-.94.82-1.61.82ZM6.07,27.12l.1.2c.17.34.38.54.65.61.06.01.12.02.2.02.59,0,1.2-.58,1.43-.79l.08-.08.11.03c.16.05.32.15.47.24l.05.03c.3.19.48.3.67.23.09-.04.23-.12.35-.47l.08-.23.21.13c.33.22.56.28.76.23.23-.07.39-.32.6-.9l.05-.13h.21c.53.08.9.07.97-.22l.03-.06c.69-1.05,1-3.25.66-4.61l-.05-.21.22-.03c.72-.09,1.5-.48,1.5-.48,1.11-.55,1.63-1.75,2.08-2.81.57-1.32,1.05-2.46,2.47-2.25h.05c.18,0,.46.15.74.28l.05.02c.27.14.5.26.7.26l-.75-.35c-.27-.13-.54-.27-.76-.27-1.45-.2-1.99,1-2.54,2.28-.45,1.05-.96,2.24-2.06,2.78-.46.23-1.21.49-1.74.5-.25.02-.44-.04-.57-.14h0s-.05.02-.05.02c.09.46.15.96.16,1.28v.42c.07-.12.07-.42.02-.88-.02-.15-.04-.3-.06-.43l-.04-.26.26.04s.07.01.1.01h.15l.04.14c.39,1.35.07,3.63-.66,4.7-.06.33-.51.29-.92.22h-.06c-.07-.02-.13-.02-.18-.02-.23.61-.39.97-.65,1.05-.23.08-.56-.1-.96-.39-.15.44-.28.68-.44.74-.18.06-.38-.07-.61-.21-.22-.15-.45-.3-.69-.32-.02.01-.05.04-.08.06-.65.63-1.19.89-1.61.79-.31-.08-.56-.36-.73-.85-.13.08-.39.35-.7.28-.42-.1-.72-.71-.83-1.05-.48.45-.96.66-1.36.54-.24-.08-.4-.25-.45-.48-.07-.35.14-.73.56-1.06h0s-.03-.04-.03-.04c-.22.09-1.16.14-1.45,0l-.15-.07.05-.16c.55-1.9,3.2-2.99,5.14-3.78.91-.37,1.64-.68,1.95-.97.05-.06.1-.19.17-.4.22-.6.6-1.64,1.46-2.54-.02,0-.04,0-.06,0-.93,0-1.83-.68-2.22-1.35-.22-.19-.56-.25-.88-.31-.77-.14-1.82-.32-2.55-2l-.1-.24.26-.03c.28-.03.55-.1.76-.19l-.55.1c-.19.04-.37.06-.52.06.71,2.01,1.8,2.2,2.68,2.36.32.06.62.11.82.26l.05.05c.33.54,1.03,1.15,1.84,1.28l.34.05-.21.27c-.67.84-.99,1.73-1.17,2.21-.1.28-.13.33-.14.35l-.04.05c-.3.26-.95.53-1.76.87l-.15.06c-1.97.81-4.68,1.92-5.19,3.88-.02.08,0,.13.06.18.14.11.52.17.96.14l.39-.02-.21.33c-.14.23-.2.46-.16.68.05.25.23.44.49.52.33.1.75-.03,1.13-.35l.2-.17.11.24c.2.44.47.73.75.79.17.04.33,0,.49-.11l.19-.13ZM6.08,26.61l.11.02c.11.02.23.12.28.26.08.25.23.55.45.6.16.04.53,0,1.24-.68.08-.08.16-.14.28-.16.04-.01.07-.01.1-.01.36.03.64.22.87.37.08.05.2.13.27.16.03-.05.09-.17.15-.43.04-.14.14-.25.27-.29.13-.05.28-.03.39.06.44.31.57.33.61.33.04-.02.15-.15.37-.78.05-.17.22-.28.4-.28.06,0,.14,0,.23.02h.06c.3.06.44.05.49.05.01-.03.02-.05.03-.07.43-.63.7-1.74.76-2.78-.03.03-.06.05-.1.07-.23.11-.47.05-.67-.15-.03-.03-.06-.08-.26-.41-.08.37-.21.61-.54.63,0,0-.01,0-.02,0-.41,0-.58-.37-.84-1.43-.26.08-.53.17-.76,0-.13-.09-.2-.23-.2-.39,0-.29.32-.5.58-.39.03-.01.07-.02.1-.03.3-.09.55-.17.78-.04h.01c.11.08.19.18.22.31,0,.01,0,.02,0,.04.04-.1.09-.17.17-.23.11-.07.23-.1.34-.08.12.02.23.1.29.21,0,.01.07.11.15.25-.02-.11-.04-.22-.06-.33-.03-.17.04-.35.19-.44.17-.1.36-.08.5.05,0,0,.09.05.29.05.47-.01,1.15-.24,1.59-.46.97-.48,1.43-1.55,1.87-2.58.55-1.29,1.17-2.75,2.93-2.52.16,0,.34.05.51.13-.1-.15-.15-.23-.17-.3-.04-.09-.02-.2-.02-.22.15-.77-.16-1.26-.44-1.53-.32-.3-.76-.44-1.09-.35-.71.19-1.16.6-1.56.95-.32.29-.68.63-1.16.75-.35.09-.71.03-1.04-.18-.47-.3-.8-.85-.94-1.57-.3-1.47-2.8-2.82-4.81-3.91l-.09-.05c-1.28-.7-2.48-1.35-3.2-2.04l-.58-.54c-1.39-1.29-3.08-2.86-3.45-5.01-.39.42-.61.9-.61,1.37,0,.6.34,1.16,1.01,1.62.19.12.24.38.11.57-.12.2-.38.25-.57.13-.45-.27-1-.25-1.11-.2,0,.02,0,.11.03.22.15.61,1.02,1.54,1.89,2.05.17.11.25.31.19.49-.04.17-.21.3-.41.3l-.78-.03c.06.33.23.67.49.98.43.52,1.09.93,1.57.97.2.01.36.16.38.37.03.21-.1.4-.31.45-.21.06-.42.11-.61.15.71.85,2.04,1.94,2.54,1.94.19,0,.36.13.41.32.05.19-.04.39-.2.48-.19.11-.48.21-.79.27.62,1.27,1.43,1.41,2.15,1.54.38.07.76.14,1.06.38.04.03.08.07.1.13.34.57,1.12,1.16,1.88,1.1.19-.02.34.08.41.24.07.15.04.34-.07.46-.81.85-1.17,1.84-1.37,2.37-.1.29-.15.44-.25.55l-.04.04c-.37.34-1.09.64-2.07,1.04-1.79.74-4.22,1.73-4.85,3.33.3.03.84,0,.96-.05.18-.09.42-.01.53.17.12.17.08.41-.1.55-.29.23-.45.49-.42.68.02.11.11.16.18.18.24.07.59-.1.92-.45.1-.11.25-.16.4-.12.15.04.27.15.31.29.14.42.39.75.54.78.07.02.21-.1.28-.17.07-.08.19-.14.31-.14ZM12.62,25.9s0,0,0,0c0,0,0,0,0,0ZM12.17,21.33l.4.68c.14.24.34.58.38.63.04.04.07.06.09.07l-.57-.97c-.13-.22-.24-.4-.25-.43l-.17-.17.11.16s-.07.23-.11.54v.09c-.02.08-.03.18-.05.27l-.08.49c.09-.11.13-.45.18-.79l.08-.57ZM11.3,21.19l.05.2c.19.82.31,1.14.4,1.27l-.13-.44c-.07-.25-.15-.53-.25-.97,0-.02-.02-.04-.05-.06-.08-.04-.26.01-.44.07-.08.03-.17.05-.23.07l-.09.02-.07-.06c-.04.06-.03.08,0,.1.06.04.2,0,.41-.06.06-.02.14-.05.21-.07l.2-.06ZM19.02,12.42c.4,0,.82.17,1.16.49.29.28.75.9.55,1.9.02.05.07.14.22.36.09.13.21.3.32.46l.24.36c-.09-.22-.26-.5-.51-.84-.04-.06-.08-.12-.11-.17l-.1-.15v-.08c.13-.72-.08-1.4-.57-1.87-.13-.13-.29-.24-.48-.33l-.16-.08.06-.17c1.22-3.46.39-4.93-.5-6.49-.64-1.12-1.3-2.26-1.3-4.22l-.16-.18.11.16c-.72.5-.89,1.15-.91,1.99l-.02.46-.32-.33c-.13-.13-.16-.18-.17-.22-.02.02-.05.04-.07.06l.2.2c.17.17.35.37.38.65h.05v-.27c0-.81-.01-1.57.52-2.16l.32-.35.03.47c.09,1.69.7,2.75,1.28,3.78.88,1.54,1.72,3,.49,6.45l-.06.17-.17-.04c-.22-.05-.44-.05-.65,0-.82.22-1.33.68-1.74,1.05-.33.31-.61.56-.97.65-.23.05-.47,0-.68-.12-.36-.23-.63-.7-.75-1.28-.12-.61-.54-1.22-1.28-1.85l-.1-.08.04-.12c.17-.54.19-1.07.2-1.65v-.2c.01-.28.03-.55.09-.75l.05-.18.33.09c.18.06.36.12.46.25l.03.07s.01.04.02.06h0s.05-.02.05-.02c0-.04-.02-.06-.02-.06l-.03-.06c-.23-.83.02-2.01.37-2.75l.11-.23.2.17c.14.12.42.41.49.63h.05c0-.6.14-1.69.53-2.31l.09-.15c-.32.35-.55,1.02-.64,1.83l-.05.42-.29-.3c-.15-.15-.3-.27-.4-.32-.36.57-.68,1.65-.6,2.55l.02.29-.34-.1s-.07-.02-.1-.03c-.11-.03-.21-.06-.27-.09-.21.28-.21.71-.22,1.2,0,.48-.02.96-.14,1.44l-.07.29-.24-.18c-.95-.73-2.14-1.39-3.38-2.05l-.09-.05c-1.25-.68-2.43-1.33-3.1-1.97-.13-.13-.27-.26-.41-.39l-.17-.16c-1.51-1.41-3.38-3.14-3.38-5.52-.02.01-.04.03-.06.04l.03.37c.2,2.2,1.96,3.83,3.37,5.14l.58.54c.68.66,1.87,1.3,3.12,1.99l.09.05c2.19,1.18,4.67,2.52,5.01,4.18.12.6.4,1.08.77,1.31.23.15.48.19.72.13.38-.1.69-.38.99-.66.41-.37.91-.83,1.72-1.04.1-.03.2-.04.31-.04ZM13.63,10.64c.75.66,1.18,1.32,1.32,1.99.09.47.3.85.57,1.02.12.08.25.1.38.07.26-.07.5-.29.79-.55.43-.39,1-.91,1.92-1.15.21-.05.44-.06.66-.03,1.08-3.17.34-4.47-.52-5.97-.54-.94-1.09-1.9-1.28-3.34-.14.4-.14.88-.13,1.41v.27c0,.22-.18.41-.4.42-.11.01-.22-.03-.3-.1-.08-.07-.13-.18-.14-.29,0-.09-.05-.16-.11-.24-.23.51-.35,1.29-.35,1.85,0,.2-.15.38-.35.41-.2.04-.39-.07-.47-.26-.02-.07-.1-.17-.19-.28-.25.65-.41,1.56-.24,2.19.03.05.05.12.06.2.03.21-.1.42-.32.47-.2.05-.42-.06-.49-.26,0-.02-.01-.04-.02-.05-.03-.02-.1-.05-.16-.07-.02.18-.03.41-.03.64v.2c-.02.41-.04.93-.18,1.44ZM2.56,10.4c.31.68,1.65,2,2.62,2.51l.5.26c.05-.02.1-.05.14-.07v-.05c-.79,0-2.51-1.58-3.07-2.37l-.19-.27ZM3.55,10.24l-.64.07c-.15.02-.27.03-.38.03,0,.02.02.04.03.06l.34-.04c.2-.02.42-.06.66-.12ZM1.3,7.32c-.08.59.14,1.2.59,1.74.3.36.68.67,1.09.88l.59.3c.07-.02.14-.04.22-.06-.6-.1-1.35-.56-1.85-1.17-.38-.46-.59-.95-.61-1.43v-.21s1.21.05,1.21.05l.12-.22-.1.17c-.96-.56-1.89-1.59-2.07-2.29-.07-.27-.01-.45.05-.56.05-.08.13-.13.26-.16.32-.08.91-.02,1.36.26h0s.03-.04.03-.04c-.78-.54-1.19-1.21-1.18-1.95,0-.68.37-1.38,1.02-1.92l.27-.23c-.86.55-1.35,1.36-1.35,2.15,0,.48.16.93.48,1.34l.29.36-.46-.04c-.37-.04-.66.05-.76.21-.1.15-.12.35-.06.6.14.56.71,1.29,1.48,1.89l.48.38-1.08-.05Z"/>
        </g>
      </g>
    </g>
  </g>
</svg>