<?xml version="1.0" encoding="UTF-8"?>
<svg id="Layer_2" data-name="Layer 2" xmlns="http://www.w3.org/2000/svg" viewBox="0 0 22.27 28.75">
  <defs>
    <style>
      .cls-1 {
        fill: #231f20;
        stroke: #fff;
        stroke-miterlimit: 10;
        stroke-width: .4px;
      }
    </style>
  </defs>
  <g id="Layer_1-2" data-name="Layer 1">
    <g id="ed2419687c">
      <g>
        <path class="cls-1" d="M18.43,9.05c.33-1.44-.21-2.67-.83-3.77-.03-.05-.1-.07-.15-.05-.05.03-.07.1-.05.15h0c.61,1.07,1.12,2.25.81,3.62-.01.06.03.12.09.13,0,0,.01,0,.03,0,.05,0,.09-.03.11-.09ZM17.09,10.79c.24-1.26.01-2.59-.66-3.86-.03-.05-.1-.07-.15-.05-.06.03-.08.1-.05.15.65,1.22.87,2.51.64,3.71-.01.07.03.13.09.14h.02c.05,0,.1-.04.11-.09ZM13.8,9.13c0-.36,0-.68.07-.91l.08.02c.16.05.35.11.42.2,0,.03.01.05.03.09.04.11.15.17.27.14s.19-.14.17-.26c0-.05-.02-.11-.05-.15-.21-.75,0-1.91.37-2.65.17.15.39.41.45.56.04.1.15.16.25.14.11-.02.19-.11.19-.22,0-.65.16-1.67.51-2.22.02.02.03.04.05.05.14.15.29.3.31.52,0,.12.11.21.23.21s.22-.11.22-.23v-.27c0-.81-.01-1.51.48-2.06.09,1.76.72,2.86,1.33,3.92.91,1.59,1.69,2.97.49,6.38-.25-.06-.51-.06-.75,0-.87.23-1.41.72-1.85,1.11-.31.29-.58.53-.9.61-.17.04-.36,0-.53-.1-.31-.2-.56-.62-.67-1.17-.15-.73-.66-1.39-1.37-1.99.19-.6.2-1.2.21-1.73h0Z"/>
        <path class="cls-1" d="M19.93,13.67c0-.25-.21-.46-.46-.46s-.45.21-.45.46.21.46.45.46.46-.21.46-.46ZM12.22,13.16c.05,0,.1-.03.11-.09.01-.07-.02-.12-.08-.13-.29-.08-.71-.16-1.2-.27-1.71-.35-4.56-.93-6.23-1.95-.05-.03-.13-.02-.16.03s-.01.13.04.16c1.71,1.04,4.48,1.61,6.31,1.99.49.1.91.19,1.19.26h.03ZM7.25,22.65s-.12-.04-.16,0c-.19.2-.45.37-.78.57-.54.34-1.29.81-2.1,1.75-.04.05-.04.12,0,.16.03.02.05.03.08.03s.06-.01.08-.04c.8-.91,1.49-1.35,2.05-1.7.33-.21.62-.39.83-.61.04-.05.04-.12,0-.16ZM9.72,10.52c-1.64-.31-4.65-1.32-5.79-2.32-.05-.05-.11-.04-.16,0-.04.05-.03.12.01.16,1.18,1.05,4.18,2.05,5.89,2.37,0,0,.01,0,.02,0,.05,0,.11-.04.11-.09.01-.07-.03-.13-.09-.13ZM7.82,9.07s.08-.02.1-.06c.03-.06,0-.13-.05-.15l-.15-.07c-1.27-.61-3.41-1.62-4.79-3.38-.04-.05-.11-.06-.16-.02-.05.04-.06.11-.02.16,1.41,1.81,3.58,2.83,4.87,3.44l.15.07s.03,0,.05,0ZM9.21,23c-.08.1-.49.49-.97.94-2.05,1.93-2.24,2.16-2.23,2.29,0,.06.05.11.11.11h.01c.05,0,.09-.05.1-.09.11-.2,1.39-1.41,2.16-2.13.5-.47.9-.85.99-.95.04-.05.03-.12-.01-.16-.05-.05-.11-.04-.16,0ZM10.92,22.91c-.79,1.52-1.85,2.63-2.43,3.23-.21.21-.35.36-.43.47-.03.05-.03.12.03.16.02.01.05.02.07.02.03,0,.07-.02.09-.05.07-.09.21-.25.4-.45.59-.61,1.67-1.73,2.47-3.28.03-.05.01-.13-.05-.15-.05-.03-.12,0-.15.05ZM11.61,26.07c.5-.91.6-1.21.73-1.63.05-.15.11-.32.19-.53.02-.06-.01-.13-.07-.15-.06-.02-.13,0-.15.07-.09.22-.14.39-.19.54-.13.41-.23.7-.71,1.59-.03.05-.01.12.04.15.02,0,.04.01.05.01.04,0,.08-.02.1-.06ZM11.72,21.51c-.02-.08-.07-.15-.14-.19-.16-.09-.37-.02-.62.05-.06.02-.14.05-.2.06-.03-.03-.09-.05-.14-.05-.13,0-.23.1-.23.23,0,.09.04.18.11.23.15.11.35.05.59-.03.06-.02.14-.05.21-.07.3,1.31.45,1.51.71,1.51.31-.01.36-.41.44-1.02.22.37.48.82.51.85.2.2.36.16.45.12.17-.09.27-.32.17-1.15-.02-.16-.04-.31-.06-.45.05,0,.09.01.13.01.37,1.3.07,3.56-.64,4.6-.01.03-.03.06-.03.09-.03.15-.49.08-.7.05-.11-.01-.19-.03-.27-.03-.1,0-.19.07-.21.15-.15.45-.32.86-.51.92-.18.06-.54-.18-.8-.37-.06-.05-.14-.05-.21-.03-.07.02-.12.08-.14.15-.13.5-.25.59-.29.6-.09.03-.28-.1-.45-.21-.22-.15-.48-.32-.77-.35-.02,0-.04,0-.05,0-.07,0-.11.05-.19.11-.75.72-1.19.8-1.44.74s-.45-.31-.59-.73c-.03-.07-.09-.13-.17-.15-.02,0-.03,0-.05,0-.07,0-.13.03-.17.07-.17.19-.33.27-.47.23-.28-.07-.56-.52-.69-.93-.02-.07-.09-.13-.17-.15s-.16,0-.21.07c-.39.41-.81.6-1.14.51-.17-.05-.28-.17-.31-.33-.05-.27.13-.6.49-.88.09-.07.12-.2.05-.3-.06-.1-.19-.13-.29-.09-.18.07-1.07.12-1.31,0,.53-1.83,3.17-2.91,5.1-3.71.95-.39,1.69-.7,2.04-1.02l.02-.02c.07-.09.12-.22.21-.47.21-.56.58-1.6,1.44-2.5.06-.07.08-.17.04-.25s-.13-.13-.22-.13c-.86.07-1.73-.58-2.11-1.23-.01-.03-.03-.05-.05-.06-.25-.21-.61-.28-.98-.35-.79-.14-1.75-.31-2.43-1.91.34-.04.74-.14,1-.29.09-.05.13-.15.11-.25s-.11-.17-.22-.17c-.67,0-2.33-1.47-2.94-2.32.38-.04.73-.13.94-.19.11-.03.17-.13.16-.24-.01-.11-.09-.19-.21-.2-.54-.05-1.25-.48-1.73-1.06-.35-.43-.55-.89-.57-1.33l1.02.04c.11,0,.2-.07.23-.17.03-.1-.01-.21-.1-.26-.94-.55-1.84-1.54-2.01-2.2-.05-.17-.03-.31.03-.41.08-.13.81-.17,1.37.17.11.07.24.03.31-.07.07-.1.04-.24-.06-.31-.73-.51-1.12-1.13-1.11-1.81,0-.63.35-1.29.97-1.8.21,2.31,2.01,3.98,3.49,5.35.21.19.4.37.59.55.72.69,1.97,1.37,3.29,2.09,2.19,1.18,4.66,2.53,4.98,4.1.13.67.45,1.19.87,1.46.28.18.59.23.89.15.42-.11.75-.4,1.09-.71.42-.38.89-.81,1.66-1.01.41-.11.92.05,1.3.41.26.25.68.81.5,1.74,0,.03,0,.08,0,.11.03.07.08.15.25.4.09.13.21.31.32.47-.07-.03-.14-.07-.2-.09-.31-.15-.63-.32-.92-.33-1.61-.22-2.2,1.13-2.76,2.43-.47,1.09-.95,2.21-1.99,2.72-.48.24-1.19.47-1.69.49h0c-.19,0-.35-.03-.44-.1-.07-.07-.18-.07-.26-.03-.08.05-.13.15-.11.25.08.42.15.93.15,1.26-.21-.36-.59-1-.62-1.05-.03-.06-.09-.1-.16-.11s-.13,0-.19.05c-.11.08-.13.22-.19.69-.01.1-.03.23-.05.36-.06-.2-.15-.5-.25-.97Z"/>
        <path class="cls-1" d="M19.47,13.67s0,0,0,0c0,0,0,0,0,0ZM19.47,13.21c.25,0,.46.21.46.46s-.21.46-.46.46-.45-.21-.45-.46.21-.46.45-.46Z"/>
        <path class="cls-1" d="M17.6,5.28c.63,1.11,1.16,2.33.83,3.77-.01.06-.06.09-.11.09-.01,0-.02,0-.03,0-.06-.01-.1-.07-.09-.13.31-1.37-.21-2.55-.81-3.61h0c-.03-.06,0-.13.05-.16.05-.03.12,0,.15.05Z"/>
        <path class="cls-1" d="M16.43,6.93c.67,1.27.9,2.6.66,3.86-.01.05-.06.09-.11.09h-.02c-.06-.01-.1-.07-.09-.14.23-1.2,0-2.49-.64-3.71-.03-.05-.01-.13.05-.15.05-.03.12,0,.15.05Z"/>
        <path class="cls-1" d="M12.34,24.45c-.13.42-.23.72-.73,1.63-.02.04-.06.06-.1.06-.01,0-.03,0-.05-.01-.05-.03-.07-.1-.04-.15.49-.89.58-1.18.71-1.59.05-.15.1-.32.19-.54.02-.06.09-.09.15-.07.05.02.09.09.07.15-.08.21-.14.39-.19.53Z"/>
        <path class="cls-1" d="M8.5,26.15c.57-.6,1.64-1.71,2.43-3.23.03-.05.1-.07.15-.05.06.03.08.1.05.15-.8,1.55-1.88,2.67-2.47,3.28-.19.2-.33.35-.4.45-.02.03-.06.05-.09.05-.02,0-.05,0-.07-.02-.05-.04-.06-.11-.03-.16.07-.11.22-.26.43-.47Z"/>
        <path class="cls-1" d="M8.24,23.94c.48-.45.89-.84.97-.94.05-.05.11-.05.16,0,.05.04.05.11.01.16-.09.11-.49.48-.99.95-.77.72-2.05,1.93-2.16,2.13,0,.05-.05.09-.1.09h-.01c-.05,0-.11-.05-.11-.11-.01-.13.17-.36,2.23-2.29Z"/>
        <path class="cls-1" d="M11.06,12.67c.49.11.91.19,1.2.27.06.01.09.07.08.13-.01.05-.06.09-.11.09h-.03c-.28-.07-.7-.16-1.19-.26-1.83-.38-4.59-.95-6.31-1.99-.05-.03-.07-.11-.04-.16s.11-.07.16-.03c1.67,1.02,4.53,1.61,6.23,1.95Z"/>
        <path class="cls-1" d="M6.31,23.23c.33-.21.59-.37.78-.57.04-.05.11-.05.16,0s.05.11,0,.16c-.21.23-.49.41-.83.61-.56.35-1.25.79-2.05,1.7-.02.03-.05.04-.08.04s-.05,0-.08-.03c-.05-.04-.05-.11,0-.16.81-.93,1.56-1.41,2.1-1.75Z"/>
        <path class="cls-1" d="M9.68,10.74c-1.71-.33-4.71-1.33-5.89-2.37-.05-.04-.05-.11-.01-.16.05-.05.11-.05.16,0,1.14,1,4.15,2.01,5.79,2.32.07,0,.11.07.09.13,0,.05-.06.09-.11.09,0,0-.01,0-.02,0Z"/>
        <path class="cls-1" d="M7.86,8.86c.06.03.08.09.05.15-.02.04-.06.06-.1.06-.02,0-.03,0-.05,0l-.15-.07c-1.29-.61-3.46-1.63-4.87-3.44-.04-.05-.03-.12.02-.16.05-.04.12-.03.16.02,1.38,1.76,3.51,2.77,4.79,3.38l.15.07Z"/>
        <path class="cls-1" d="M13.88,8.23c-.07.23-.07.55-.07.91h0c0,.53-.02,1.13-.21,1.73.71.61,1.22,1.27,1.37,1.99.11.55.35.97.67,1.17.17.11.36.14.53.1.32-.08.59-.33.9-.61.43-.39.97-.88,1.85-1.11.24-.06.5-.06.75,0,1.21-3.41.43-4.79-.49-6.38-.61-1.06-1.23-2.16-1.33-3.92-.49.55-.49,1.25-.48,2.06v.27c0,.12-.1.22-.22.23s-.23-.09-.23-.21c-.02-.22-.17-.37-.31-.52-.02-.01-.03-.03-.05-.05-.35.55-.51,1.57-.51,2.22,0,.11-.07.2-.19.22-.11.02-.21-.04-.25-.14-.05-.15-.27-.41-.45-.56-.36.75-.57,1.9-.37,2.65.03.04.04.09.05.15.02.12-.05.23-.17.26s-.23-.03-.27-.14c-.01-.03-.02-.06-.03-.09-.07-.09-.26-.15-.42-.2l-.08-.02ZM11.58,21.32c.07.05.12.11.14.19.1.47.19.77.25.97.02-.13.03-.26.05-.36.06-.47.08-.61.19-.69.06-.04.12-.06.19-.05s.13.05.16.11c.03.05.41.69.62,1.05,0-.33-.07-.84-.15-1.26-.02-.1.03-.19.11-.25.08-.05.19-.04.26.03.09.07.25.11.44.1h0c.49-.01,1.21-.25,1.69-.49,1.04-.51,1.53-1.63,1.99-2.72.56-1.31,1.15-2.65,2.76-2.43.29,0,.61.17.92.33.06.03.13.06.2.09-.11-.16-.23-.33-.32-.47-.17-.25-.22-.33-.25-.4-.01-.03-.01-.08,0-.11.18-.93-.24-1.49-.5-1.74-.38-.35-.89-.51-1.3-.41-.77.21-1.24.63-1.66,1.01-.34.31-.67.61-1.09.71-.31.08-.61.03-.89-.15-.42-.27-.73-.79-.87-1.46-.32-1.57-2.79-2.92-4.98-4.1-1.32-.72-2.57-1.39-3.29-2.09-.19-.17-.38-.35-.59-.55-1.47-1.37-3.28-3.04-3.49-5.35-.61.51-.97,1.17-.97,1.8,0,.68.38,1.3,1.11,1.81.1.07.13.21.06.31-.07.11-.2.14-.31.07-.56-.34-1.29-.3-1.37-.17-.06.1-.07.24-.03.41.17.66,1.07,1.65,2.01,2.2.09.05.13.16.1.26-.03.1-.12.17-.23.17l-1.02-.04c.02.44.22.91.57,1.33.47.58,1.19,1.01,1.73,1.06.11,0,.19.09.21.2.01.11-.05.21-.16.24-.21.06-.56.15-.94.19.61.85,2.27,2.32,2.94,2.32.11,0,.19.07.22.17s-.02.21-.11.25c-.26.15-.66.25-1,.29.69,1.6,1.65,1.77,2.43,1.91.37.07.73.13.98.35.02.01.04.03.05.06.38.65,1.25,1.29,2.11,1.23.09,0,.18.04.22.13s.02.19-.04.25c-.86.9-1.23,1.94-1.44,2.5-.09.25-.13.38-.21.47l-.02.02c-.35.32-1.09.63-2.04,1.02-1.93.79-4.57,1.88-5.1,3.71.23.11,1.13.07,1.31,0,.1-.05.23-.01.29.09.07.1.04.23-.05.3-.36.28-.55.61-.49.88.03.16.15.28.31.33.33.09.75-.09,1.14-.51.05-.06.13-.09.21-.07s.15.08.17.15c.13.41.41.87.69.93.15.03.3-.05.47-.23.04-.05.1-.07.17-.07.01,0,.03,0,.05,0,.08.01.14.07.17.15.15.43.35.67.59.73s.69-.02,1.44-.74c.07-.07.11-.11.19-.11.01,0,.03,0,.05,0,.29.03.55.2.77.35.17.11.36.23.45.21.03-.01.16-.1.29-.6.02-.07.07-.13.14-.15.07-.03.15-.02.21.03.26.19.62.43.8.37.19-.06.35-.47.51-.92.03-.09.11-.15.21-.15.07,0,.16.01.27.03.21.03.67.1.7-.05,0-.03.02-.07.03-.09.71-1.04,1.01-3.3.64-4.6-.05,0-.09,0-.13-.01.02.13.04.29.06.45.09.83,0,1.06-.17,1.15-.09.04-.25.08-.45-.12-.03-.03-.29-.48-.51-.85-.08.61-.13,1.01-.44,1.02-.26,0-.41-.2-.71-1.51-.07.02-.15.05-.21.07-.25.08-.44.14-.59.03-.07-.05-.11-.14-.11-.23,0-.13.1-.23.23-.23.05,0,.11.02.14.05.06-.01.14-.04.2-.06.25-.07.46-.14.62-.05ZM12.18,26.81c-.21.59-.41.93-.74,1.03-.28.09-.59-.03-.94-.25-.12.33-.27.52-.47.6-.3.11-.58-.07-.85-.25-.16-.1-.32-.21-.47-.25-.26.25-.91.86-1.59.86-.09,0-.17,0-.25-.03-.33-.08-.59-.33-.79-.72-.25.17-.49.17-.65.14-.41-.09-.71-.49-.91-.91-.44.37-.92.51-1.33.39-.34-.1-.57-.35-.64-.69-.05-.27.02-.55.19-.83-.42.03-.91-.01-1.11-.19-.13-.1-.17-.24-.13-.39.55-2.07,3.34-3.23,5.38-4.07.85-.35,1.59-.65,1.89-.91.03-.05.08-.19.13-.33.19-.52.52-1.43,1.21-2.29-.85-.13-1.61-.75-2.01-1.39-.17-.13-.44-.17-.75-.23-.89-.16-2.11-.38-2.89-2.49-.03-.07-.01-.15.03-.21.05-.06.11-.09.19-.09.14,0,.31-.02.49-.05-1.08-.56-2.51-2.01-2.8-2.67-.03-.07-.03-.15.02-.22.04-.06.11-.1.19-.1.11,0,.23-.01.37-.03-.43-.22-.84-.55-1.17-.94-.49-.59-.73-1.26-.67-1.89.01-.12.11-.21.23-.21l.47.02c-.72-.57-1.39-1.34-1.57-2.03-.07-.29-.05-.55.09-.76.15-.25.54-.35.96-.31-.43-.54-.53-1.07-.53-1.48,0-.89.57-1.8,1.5-2.42.07-.05.16-.05.23-.01.08.04.12.12.12.2,0,2.33,1.87,4.06,3.37,5.45.21.19.41.37.59.55.68.65,1.9,1.31,3.19,2.01,1.19.64,2.46,1.33,3.45,2.1.12-.49.13-.97.14-1.42,0-.53.01-.99.22-1.31.06-.1.19-.13.29-.08.05.03.14.05.23.08.05.01.11.03.18.05-.08-.96.25-2.1.61-2.69.06-.1.18-.14.29-.09.13.06.31.2.47.37.09-.76.32-1.67.78-2.11.05-.05.13-.07.21-.05.07.01.14.07.16.15.01.03.07.1.13.16.03-.81.17-1.59,1.01-2.17.07-.05.16-.05.24-.01.07.04.12.11.12.2,0,1.93.65,3.07,1.29,4.18.92,1.62,1.79,3.15.52,6.75.19.09.38.21.54.37.55.52.79,1.27.65,2.07.04.06.11.17.17.25.21.3.5.73.61,1.01.03.07.02.13-.01.19s-.09.1-.16.11c-.26.04-.55-.11-.89-.29-.26-.13-.55-.27-.73-.27,0,0-.02,0-.03,0-1.21-.17-1.67.71-2.29,2.17-.47,1.1-1.01,2.35-2.21,2.95-.01,0-.83.41-1.59.51.35,1.42.04,3.7-.7,4.83-.13.53-.83.43-1.21.38-.01,0-.03,0-.05,0Z"/>
      </g>
    </g>
  </g>
</svg>