<?xml version="1.0" encoding="UTF-8"?>
<svg id="Layer_2" data-name="Layer 2" xmlns="http://www.w3.org/2000/svg" viewBox="0 0 31.93 28.35">
  <defs>
    <style>
      .cls-1 {
        fill: #fff;
      }

      .cls-2 {
        fill: #010101;
      }
    </style>
  </defs>
  <g id="Layer_1-2" data-name="Layer 1">
    <g id="b0c1811637">
      <g>
        <path class="cls-1" d="M1.21,14.73c-.29-4.42,4.47-4.87,4.69-4.89.81-.11,1.62-.16,2.44-.15,2.08.04,4.16.18,6.22.43h.04l4.2.14c.11,0,.2-.02.29-.08,1.38-.79,2.45-3.24,2.45-3.24.23-.58.53-1.1.91-1.58.38-.49.82-.9,1.33-1.25.04-.03.08-.07.1-.11s.04-.09.05-.14c0-.05-.02-.11-.03-.15-.02-.05-.05-.08-.1-.11-.47-.38-1-.56-1.59-.56-.81.04-1.53.29-2.18.78l-.05.05c-.45.49-.96.92-1.52,1.27.73-2.06,2.39-2.79,3.69-3.02.08-.02.14-.05.19-.11s.08-.13.08-.2c0-.08-.03-.16-.08-.22s-.12-.09-.2-.11c-.21-.02-.42-.04-.64-.05-1.16.04-2.25.35-3.27.91,1.08-1.12,2.23-1.69,3.42-1.69,2.17,0,3.8,1.9,4.1,2.28.05.06.11.1.19.11s.14,0,.21-.03c.23-.11.47-.17.74-.16.11,0,.21,0,.32.02.12.02.23.05.35.09.26.09.53.14.8.13.28,0,.56-.04.83-.11-.26.29-.56.54-.89.76-.1.05-.37.22-.4.47-.02.16.02.29.14.41.54.86,2.49,2.41,3.06,2.87.07.04.11.09.13.16.02.08.02.14,0,.21l-.03.08c-.05.09-.05.18,0,.27.11.18.15.38.12.59-.03.07-.08.11-.14.14-.09.04-.14.11-.17.2-.05.15-.14.28-.25.38s-.24.18-.39.23c-.08.02-.15.02-.22,0-.49-.04-.98-.02-1.46.05-.09.02-.16.05-.21.12-.29.35-.64.61-1.05.8.14-.26.21-.52.22-.8,0-.08-.02-.14-.07-.2-.05-.06-.11-.1-.18-.12l-1.39-.32h-.12c-1.11,0-1.79,2.25-1.83,2.37-.21.75-.48,1.48-.82,2.18-.67.95-.3,2.17-.17,2.46l2.55,6.23s.02.08.03.13c.02.68-.07,1.35-.25,2.01-.02.09,0,.17.04.24.83,1.43.24,2.18-.03,2.42l-1.34-1.27c-.07-.06-.08-.14-.05-.21.09-.2.2-.36.35-.51.06-.07.09-.14.08-.23l-.06-1.37c0-.34-.08-.67-.2-.98-.13-.32-.3-.6-.53-.86l-2.38-2.49s-.08-.06-.12-.08c-.05-.02-.11-.03-.15-.02-.05,0-.1.03-.14.06-.04.03-.08.07-.1.11l-1.53,2.87s-.05.1-.05.15c.02.96.29,2.88.36,3.34.02.12.09.21.21.25.92.32,1,.98,1,1.22-.56.08-1.13.11-1.69.11h-.57s-.08-.02-.12-.05c-.03-.03-.05-.08-.06-.12l-1.15-7.58c-.02-.09-.06-.17-.14-.22-.08-.05-.17-.07-.26-.05-.86.22-2.42.32-4.63.32-1.98,0-3.93-.09-4.51-.12-.08,0-.15.02-.2.06-.06.05-.11.11-.12.18-.14.83-.17,1.67-.1,2.51,0,.06.03.15.05.23l1.19,3.61c.03.09.09.15.17.19.23.09.43.23.59.41.16.19.26.41.32.65l-2.01.04c-.05,0-.1-.02-.14-.05-.04-.03-.06-.07-.07-.12l-.07-.64s0-.05-.02-.08l-.03-.09s-.02-.04-.02-.05l-1.78-3.27s-.03-.07-.04-.1l-.44-2.46c-.03-.13-.11-.21-.23-.25-.13-.03-.23,0-.32.1l-2.04,2.31c-.05.05-.07.12-.08.19l-.12,3.21c0,.14.05.24.17.3.78.38.87.92.87,1.13-.42.08-.85.12-1.28.1-.35,0-.68-.02-.91-.02-.05,0-.1-.02-.13-.06-.04-.04-.06-.08-.06-.14l-.13-4.93c0-.05.09-.59,2.19-3.43.02-.02.03-.04.04-.07l.02-.06s.02-.08.02-.13c-.08-1.04-.23-2.08-.47-3.1-.08-.35-.05-.68.08-1l.48-1.19c.02-.07.04-.14.04-.2,0-.07-.02-.13-.05-.2-.03-.06-.07-.12-.11-.17-.05-.05-.11-.08-.17-.11-.06-.02-.11-.04-.18-.04-.11,0-.2.03-.29.09-.08.06-.15.14-.19.23l-.75,1.87.17.07-.23-.08v-.02c-.03-.1-.05-.2-.05-.3Z"/>
        <path class="cls-2" d="M1.77,15.48c-.13.15-.29.23-.5.23-.08,0-.14,0-.22-.04-.07-.02-.14-.06-.19-.11-.06-.05-.11-.1-.15-.17-.04-.06-.07-.13-.08-.2-.03-.14-.05-.28-.07-.41-.32-5.05,5.03-5.54,5.26-5.56.84-.12,1.67-.17,2.52-.15,2.1.03,4.2.17,6.29.42l4.15.14c1.02-.62,1.95-2.47,2.14-2.93.45-1.13,1.15-2.08,2.09-2.85-.26-.13-.54-.2-.83-.2-.65.04-1.23.26-1.75.64-.57.6-1.21,1.12-1.91,1.55-.09.06-.19.08-.3.08-.11,0-.2-.04-.29-.1-.09-.07-.16-.15-.2-.26-.04-.11-.04-.22,0-.32.16-.6.41-1.15.77-1.64.36-.5.79-.93,1.3-1.27-.68.22-1.31.52-1.91.91-.11.08-.22.1-.35.09-.12-.02-.23-.08-.32-.17-.09-.1-.14-.21-.14-.34,0-.13.03-.24.11-.34,1.37-1.66,2.85-2.5,4.42-2.5,2.21,0,3.88,1.67,4.45,2.33.38-.13.77-.16,1.16-.1.17.02.33.06.49.13.19.06.38.09.59.09.33,0,.65-.07.95-.18.11-.05.22-.06.33-.03.11.02.2.08.28.17.07.08.11.17.11.29,0,.11,0,.2-.06.3-.37.51-.81.93-1.34,1.27l-.04.02c.38.6,1.8,1.82,2.91,2.67.16.13.26.29.32.49s.06.39,0,.58c.16.31.19.63.08.96-.06.19-.18.34-.35.45-.09.21-.22.39-.38.55-.17.15-.36.27-.57.35-.17.06-.33.08-.5.07-.4-.04-.79-.02-1.19.03-.5.53-1.09.9-1.77,1.13-.03,0-.06.02-.1.02-.12.03-.24,0-.35-.05-.11-.07-.19-.16-.23-.27-.05-.12-.05-.24,0-.36s.12-.2.23-.27c.17-.11.26-.26.29-.47l-1.1-.26c-.4,0-.98,1.12-1.22,1.88-.21.8-.5,1.58-.86,2.32,0,.02-.02.04-.03.06-.54.74-.15,1.79-.13,1.85l2.55,6.24c.04.1.06.2.07.29.03.72-.05,1.43-.23,2.12,1.12,2.05-.2,3.09-.36,3.21h-.02c-.1.07-.21.09-.33.08-.12-.02-.22-.07-.31-.15l-1.41-1.34c-.13-.12-.2-.26-.24-.43s-.02-.33.04-.49c.1-.21.23-.4.38-.57l-.05-1.25c0-.55-.19-1.02-.54-1.43l-2.07-2.15-1.28,2.41c.03.85.23,2.37.32,2.99.2.08.38.17.53.3s.29.28.41.45.19.36.24.56c.05.2.07.41.05.61-.02.11-.06.2-.13.27-.08.08-.16.13-.26.15-.64.11-1.28.16-1.91.15h-.59c-.1,0-.19-.02-.28-.06s-.17-.08-.25-.15c-.07-.07-.13-.14-.17-.23-.05-.08-.08-.17-.1-.27l-1.1-7.25c-1.47.21-2.94.29-4.43.26-1.75,0-3.48-.07-4.27-.11-.08.67-.09,1.34-.04,2.02,0,.02.02.09.03.14l1.14,3.45c.17.08.32.17.45.29s.26.25.36.4c.1.15.18.31.24.48.05.17.09.35.11.53,0,.14-.05.26-.15.36s-.21.15-.35.16l-2.16.05c-.11,0-.2-.02-.3-.05-.11-.04-.19-.09-.27-.16-.08-.07-.14-.15-.19-.25-.05-.09-.08-.19-.08-.29l-.08-.65-1.78-3.25c-.05-.09-.09-.2-.11-.3l-.32-1.79-1.52,1.73-.11,2.9c.17.08.32.18.45.3.13.13.24.27.34.43.09.15.16.32.2.5.05.18.06.36.05.54,0,.1-.05.19-.11.26-.06.08-.14.14-.23.17-.51.14-1.02.18-1.55.15-.36,0-.7,0-.93-.02-.11,0-.21-.03-.3-.08-.1-.04-.19-.1-.26-.17s-.13-.17-.17-.26c-.04-.1-.06-.2-.07-.3l-.13-4.95c0-.2,0-.68,2.27-3.75-.08-.98-.23-1.95-.44-2.91-.03-.14-.05-.28-.05-.42ZM1.31,15.06l.75-1.87c.04-.1.11-.17.19-.23.09-.06.19-.09.29-.09.07,0,.12.02.18.04.07.03.12.07.17.11.05.05.08.11.11.17.03.07.04.13.05.2,0,.07-.02.14-.04.2l-.48,1.19c-.13.32-.16.65-.08,1,.24,1.02.39,2.06.47,3.1,0,.05,0,.09-.02.13l-.02.06s-.02.05-.04.07c-2.1,2.85-2.19,3.38-2.19,3.43l.13,4.93c0,.05.02.1.06.14.03.04.08.05.13.06.23,0,.56.02.91.02.43.02.86-.02,1.28-.1,0-.21-.09-.75-.87-1.13-.12-.06-.18-.16-.17-.3l.12-3.21c0-.07.03-.14.08-.19l2.04-2.31c.09-.1.2-.13.32-.1.13.04.2.12.23.25l.44,2.46s.02.07.04.1l1.78,3.27s.02.03.02.05l.03.09s.02.05.02.08l.07.64c0,.05.03.09.07.12.04.04.08.05.14.05l2.01-.04c-.05-.24-.16-.46-.32-.65-.16-.18-.35-.32-.59-.41-.08-.04-.14-.1-.17-.19l-1.19-3.61c-.02-.08-.05-.17-.05-.23-.08-.84-.05-1.67.1-2.51.02-.07.06-.14.12-.18.05-.05.13-.07.2-.06.58.03,2.53.12,4.51.12,2.22,0,3.78-.11,4.63-.32.09-.02.17,0,.26.05.08.05.12.13.14.22l1.15,7.58s.03.09.06.12c.04.03.08.05.12.05h.57c.56,0,1.13-.04,1.69-.11,0-.24-.08-.9-1-1.22-.12-.04-.19-.13-.21-.25-.07-.47-.34-2.38-.36-3.34,0-.05.02-.11.05-.15l1.53-2.87s.06-.08.1-.11c.05-.03.09-.05.14-.06.05,0,.1,0,.15.02.05.02.09.04.12.08l2.38,2.49c.23.26.41.54.53.86.12.32.19.65.2.98l.06,1.37c0,.09-.02.17-.08.23-.15.15-.26.32-.35.51-.03.08-.02.15.05.21l1.34,1.27c.27-.24.86-.98.03-2.42-.05-.08-.06-.15-.04-.24.18-.66.26-1.33.25-2.01,0-.05-.02-.08-.03-.13l-2.55-6.23c-.13-.29-.5-1.52.17-2.46.34-.7.61-1.43.82-2.18.04-.12.72-2.37,1.83-2.37h.12l1.39.32c.08.02.14.06.18.12.05.06.07.13.07.2,0,.29-.08.55-.22.8.41-.2.76-.46,1.05-.8.05-.07.12-.11.21-.12.48-.07.97-.09,1.46-.05.07.02.14.02.22,0,.15-.05.28-.13.39-.23s.2-.23.25-.38c.03-.09.08-.16.17-.2.07-.03.11-.08.14-.14.03-.22,0-.41-.12-.59-.05-.09-.05-.18,0-.27l.03-.08c.02-.07.02-.14,0-.21-.02-.07-.06-.12-.13-.16-.58-.46-2.52-2-3.06-2.87-.11-.12-.15-.26-.14-.41.03-.25.3-.41.4-.47.32-.22.62-.47.89-.76-.27.08-.55.11-.83.11-.28,0-.54-.04-.8-.13-.11-.05-.23-.08-.35-.09-.11-.02-.21-.02-.32-.02-.26,0-.5.05-.74.16-.07.03-.14.05-.21.03s-.14-.05-.19-.11c-.3-.38-1.93-2.28-4.1-2.28-1.19,0-2.34.57-3.42,1.69,1.02-.56,2.11-.87,3.27-.91.22,0,.43.02.64.05.08.02.15.05.2.11s.08.14.08.22c0,.08-.02.14-.08.2s-.11.1-.19.11c-1.3.23-2.96.96-3.69,3.02.56-.35,1.07-.78,1.52-1.27l.05-.05c.65-.49,1.37-.74,2.18-.78.59,0,1.13.18,1.59.56.05.03.08.07.1.11.02.05.03.1.03.15,0,.05-.02.1-.05.14s-.06.08-.1.11c-.51.35-.95.77-1.33,1.25-.38.48-.68,1.01-.91,1.58,0,0-1.07,2.46-2.45,3.24-.09.05-.19.08-.29.08l-4.2-.14h-.04c-2.06-.25-4.14-.39-6.22-.43-.82,0-1.63.04-2.44.15-.23.02-4.98.47-4.69,4.89,0,.1.02.2.05.3v.02l.23.08-.17-.07Z"/>
      </g>
    </g>
  </g>
</svg>