<?xml version="1.0" encoding="UTF-8"?>
<svg id="Layer_2" data-name="Layer 2" xmlns="http://www.w3.org/2000/svg" viewBox="0 0 25.98 28.9">
  <defs>
    <style>
      .cls-1 {
        fill: #231f20;
        stroke: #fff;
        stroke-miterlimit: 10;
        stroke-width: .35px;
      }
    </style>
  </defs>
  <g id="Layer_1-2" data-name="Layer 1">
    <g id="_605b45e58c" data-name="605b45e58c">
      <g>
        <path class="cls-1" d="M16.97,10.85c.07.27-.04.48-.23.66-.19.17-.47.21-.68.08-.12-.07-.22-.17-.35-.27.11-.13.18-.21.25-.3.09.1.15.2.23.27.11.1.25.13.38.05.08-.05.15-.15.18-.24.03-.07,0-.19-.13-.13-.08.04-.15.11-.2-.01-.05-.11-.04-.23.08-.3.18-.11.39-.02.45.19Z"/>
        <path class="cls-1" d="M10.34,11.25s.01.08,0,.11c-.13.23-.5.36-.75.26-.3-.11-.5-.45-.44-.74.03-.19.21-.31.38-.24.08.03.14.11.18.19.01.04-.03.15-.06.16-.06.01-.13-.03-.21-.04-.09.11-.09.23.03.34.17.16.38.08.69-.28.06.08.13.15.19.24Z"/>
        <path class="cls-1" d="M19.44,4.71c1.17,0,2.01.88,1.96,2.05-.03.85-.41,1.49-1.19,1.84-.17.07-.36.09-.59.15.09-.21.17-.35.22-.51.1-.29.21-.58.27-.89.18-.86-.61-1.64-1.51-1.52-.57.08-1.13.23-1.69.35-.03,0-.07.01-.1.03-.01-.01-.02-.03-.03-.04.11-.13.19-.29.31-.41.65-.66,1.41-1.07,2.35-1.07Z"/>
        <path class="cls-1" d="M4.7,10.99v.05c-1.23.85-2.32,1.85-3.25,3.03.14-1,.48-1.93,1-2.78.52-.86,1.23-1.53,2.15-2.01-.79-.51-1.59-.79-2.55-.63.41-.7.92-1.28,1.61-1.73.05.65.24,1.21.62,1.71.39.49.88.83,1.51,1.02-.77.46-1.55.79-2.41,1.06.46.1.88.19,1.3.29Z"/>
        <path class="cls-1" d="M3.58,12.77c.82-.46,1.63-.92,2.45-1.38-.17.57-.42,1.11-.77,1.61-.35.5-.79.91-1.31,1.28.35.03,1.19-.35,1.99-.85-.15.22-.3.44-.46.65-.33.44-.67.87-.99,1.31-.07.09-.12.19-.15.3-.39,1.14-.59,2.32-.61,3.53,0,.01,0,.03-.01.1-.53-1.07-.81-2.13-.75-3.29.07-1.19.58-2.17,1.43-3.01-.3-.09-.55-.17-.81-.25Z"/>
        <path class="cls-1" d="M6.97,16.05c-.13.32-.27.61-.37.92-.41,1.19-.55,2.42-.43,3.67.07.73.21,1.45.43,2.14.07.21-.05.37-.13.6-.19-.31-.36-.56-.51-.83-.6-1.05-.98-2.19-1.13-3.39-.13-1.09,0-2.15.35-3.18.02-.06.05-.13.1-.16.37-.2.74-.39,1.13-.56-.3.63-.57,1.26-.62,1.97.3-.48.65-.91,1.17-1.19Z"/>
        <path class="cls-1" d="M11.5,23.78c.05.93-.07,1.85-.39,2.73,0,0,0,0-.01,0-1.21-.97-2.34-2.02-3.04-3.44-.83-1.69-.91-3.43-.23-5.19.01-.03.03-.07.06-.13.15.61.41,1.13.82,1.57.04.05.05.13.05.2-.07,2.19.83,3.97,2.27,5.53,0,0,.02.01.03.02-.17-.44-.35-.87-.51-1.33s-.22-.92-.17-1.41c.02,0,.04,0,.04.01.21.53.55.95,1.01,1.29.04.03.08.09.08.15Z"/>
        <path class="cls-1" d="M15.98,20.04c.13.15.15.41,0,.55-.45.41-.69.95-.97,1.47-.02.03-.04.07-.07.09,0,0-.02,0-.04.02-.02-.27,0-.55-.18-.8-.63.43-1.2.91-1.68,1.52-.47-.6-1.04-1.09-1.67-1.51-.15.17-.17.25-.21.82-.07-.1-.12-.17-.15-.24-.11-.21-.19-.44-.33-.64-.15-.22-.33-.43-.51-.63-.17-.2-.21-.46-.07-.64.03-.04.11-.08.15-.07.67.21,1.29.05,1.89-.27.3-.16.6-.28.96-.27.26.01.49.07.71.2.39.21.77.41,1.22.42.25,0,.5-.05.75-.07.07,0,.15.02.19.06Z"/>
        <path class="cls-1" d="M18.57,18.76c.45,2.09-.05,3.94-1.35,5.6-.63.81-1.39,1.47-2.17,2.12-.01.01-.03.02-.09.05-.11-.47-.24-.93-.31-1.41-.06-.43-.05-.87-.06-1.31,0-.06.04-.15.09-.19.46-.33.79-.75.99-1.27.01-.01.03-.03.06-.09.09,1.04-.29,1.93-.69,2.79,0,.01.02.02.03.03.23-.28.47-.56.69-.85.72-.95,1.25-2.01,1.45-3.19.09-.51.09-1.03.13-1.55,0-.08.04-.18.09-.23.34-.39.59-.84.73-1.34.01-.05.03-.11.05-.2.06.14.11.25.15.35.04.11.08.23.11.34s.07.23.09.35Z"/>
        <path class="cls-1" d="M21.1,16.53c.43,1.66.23,3.27-.4,4.85-.26.65-.58,1.27-.98,1.85-.03.03-.05.07-.09.11-.13-.22-.16-.42-.09-.67.29-.97.47-1.96.45-2.98-.02-1.25-.27-2.45-.86-3.55,0-.02-.01-.04-.03-.07.37.15.71.49,1.19,1.17.03-.16-.04-.54-.23-1.02-.13-.33-.28-.64-.44-1,.24.12.45.22.65.32.64.31.65.31.82,1Z"/>
        <path class="cls-1" d="M21.95,13.27c.97,1.05,1.33,2.29,1.19,3.7-.08.82-.35,1.58-.73,2.36-.01-.09-.02-.14-.02-.19-.02-1.18-.22-2.33-.61-3.44-.05-.13-.12-.25-.2-.35-.44-.59-.88-1.17-1.32-1.76-.03-.05-.07-.1-.09-.17.59.44,1.25.71,1.97.89-.32-.29-.65-.53-.91-.82-.27-.29-.51-.63-.72-.97-.2-.35-.33-.73-.51-1.13.87.48,1.69.93,2.51,1.39-.24.08-.49.16-.78.25.08.1.15.17.21.25Z"/>
        <path class="cls-1" d="M23.64,11.3c.53.85.87,1.77,1.01,2.77-.95-1.17-2.01-2.2-3.27-3.03v-.06c.41-.09.83-.19,1.27-.29-.83-.26-1.61-.61-2.38-1.05.63-.2,1.13-.53,1.51-1.03.37-.49.58-1.05.61-1.71.71.45,1.23,1.04,1.65,1.77-.95-.19-1.75.08-2.55.59.92.49,1.62,1.17,2.15,2.03Z"/>
        <path class="cls-1" d="M25.81,11.03s0,.05,0,.1c-.64-.73-1.3-1.38-2.29-1.55,1.85,2.16,2.41,4.69,2.19,7.48-.29-.47-.56-.92-.85-1.35s-.65-.83-1.07-1.15c.07.33.15.65.21.97.15.89.07,1.77-.17,2.65-.05.16-.05.34-.04.51.16,1.5-.19,2.87-.98,4.14-.03.04-.05.08-.09.11,0,.01-.02.01-.05.03.23-1.01.46-2.01.47-3.08-.05.06-.08.09-.11.13-.29.3-.58.61-.89.89-.14.13-.23.26-.3.43-.39,1.11-.94,2.13-1.67,3.05-.59.75-1.29,1.38-2.14,1.83-.04.03-.09.05-.13.07,0,0-.02,0-.06,0,.16-.19.32-.37.46-.55.35-.43.69-.87.85-1.42.11-.38.03-.74-.15-1.09-.02,0-.03,0-.04.01-.74,1.47-1.82,2.63-3.12,3.6-.39.29-.58.66-.57,1.13,0,.17,0,.34-.03.54-.15-.17-.32-.33-.45-.51-.53-.72-.8-1.55-.97-2.42-.12-.67-.14-1.33-.03-2v-.14c-.41.66-.57,1.35-.73,2.06-.15-.71-.34-1.4-.72-2.02.21,1.52-.08,2.93-.84,4.25-.21.37-.48.65-.7.76,0-.26.02-.51,0-.77-.04-.37-.23-.65-.53-.88-1.14-.84-2.09-1.85-2.85-3.06-.11-.17-.21-.36-.31-.55-.19.27-.25.69-.15,1.06.12.49.41.88.71,1.27.19.24.39.47.62.74-.09-.04-.13-.06-.18-.08-1.19-.61-2.05-1.55-2.77-2.65-.47-.72-.83-1.49-1.12-2.29-.05-.15-.15-.25-.26-.35-.35-.31-.67-.65-1-.98,0,1,.24,1.99.41,2.99-.05-.07-.1-.14-.15-.21-.79-1.29-1.07-2.69-.9-4.19.01-.12-.01-.25-.05-.37-.33-1.19-.33-2.36.04-3.53v-.08c-.85.69-1.43,1.55-1.91,2.54-.1-.93-.1-1.81.03-2.69.13-.89.37-1.75.72-2.56.36-.82.82-1.57,1.43-2.25-1,.13-1.65.79-2.29,1.54.02-.11.03-.19.05-.26l.06-.22c.35-1.28.9-2.46,1.79-3.45.41-.47.89-.87,1.44-1.15.05-.03.11-.07.13-.12.1-.27.19-.55.29-.84-.45-.08-.77.21-1.13.41.34-.69.82-1.26,1.41-1.73.61-.48,1.29-.79,2.08-.94-.4-.21-.79-.3-1.18-.33-.39-.03-.79,0-1.17,0,1.23-1.08,3.93-2.07,6.08-.72-.25-.69-.72-1.17-1.29-1.57,1.15-.15,3.16.3,4.21,2.46C13.93.91,15.33.11,17.26.19c-.56.4-1.05.86-1.28,1.54,2.22-1.17,4.2-.58,6.09.77-.63-.08-1.26-.05-1.87.13-.15.05-.3.11-.45.18.75.17,1.43.48,2.03.95s1.08,1.05,1.43,1.75c-.37-.22-.7-.49-1.15-.42.1.29.19.57.29.85.01.04.06.08.1.1,1.11.58,1.88,1.5,2.47,2.59.41.76.69,1.57.89,2.41ZM24.65,14.07c-.15-1-.49-1.92-1.01-2.77-.53-.86-1.23-1.54-2.15-2.03.8-.51,1.61-.79,2.55-.59-.42-.73-.93-1.31-1.65-1.77-.03.67-.24,1.23-.61,1.71-.38.5-.88.83-1.51,1.03.77.45,1.55.79,2.38,1.05-.44.1-.86.19-1.27.29v.06c1.26.83,2.32,1.86,3.27,3.03ZM23.15,16.97c.13-1.41-.22-2.65-1.19-3.7-.06-.07-.13-.15-.21-.25.29-.09.54-.17.78-.25-.82-.45-1.64-.91-2.51-1.39.18.4.31.79.51,1.13.21.35.45.68.72.97.26.29.59.53.91.82-.73-.19-1.39-.45-1.97-.89.02.07.05.12.09.17.44.59.88,1.17,1.32,1.76.08.11.15.23.2.35.39,1.11.59,2.26.61,3.44,0,.05,0,.09.02.19.37-.78.65-1.54.73-2.36ZM21.53,4.57s.01-.04.02-.07c-1.22-.99-2.61-1.17-4.16-.85.43-.8,1.11-1.23,1.89-1.61-1.03-.25-1.96-.15-2.83.4-.52.33-.89.81-1.21,1.32-.05.07-.09.13-.15.21-.2-.84-.02-1.63.16-2.45-1.31,1.26-1.85,2.85-2.19,4.53-.35-1.69-.89-3.28-2.18-4.49.17.79.31,1.58.12,2.43-.47-.77-.97-1.43-1.77-1.79-.79-.35-1.59-.39-2.41-.18.35.23.71.43,1.04.67.33.25.62.55.81.94-.38-.05-.75-.11-1.11-.12-.95-.02-1.85.19-2.65.73-.12.09-.23.19-.34.29,0,.03,0,.05.01.07,2.13-.84,4-.43,5.65,1.14-.15-.89-.49-1.69-.9-2.47.03,0,.05.01.07.03.49.43.97.87,1.47,1.28.57.47,1.14.93,1.57,1.54.23.33.43.69.63,1.05,0,0,.01-.03.02-.04.33-.79.85-1.43,1.48-1.97.47-.41.97-.78,1.44-1.17.27-.23.51-.47.77-.71-.41.78-.78,1.57-.9,2.46.06-.03.09-.08.13-.12,1.07-1.02,2.33-1.53,3.81-1.41.45.03.89.17,1.34.27.13.03.25.07.38.1ZM21.4,6.76c.05-1.17-.79-2.06-1.96-2.05-.94,0-1.71.41-2.35,1.07-.12.12-.21.27-.31.41.01.01.02.03.03.04.03-.01.07-.02.1-.03.56-.12,1.11-.27,1.69-.35.9-.12,1.69.66,1.51,1.52-.06.31-.17.6-.27.89-.05.15-.13.3-.22.51.23-.06.43-.08.59-.15.79-.35,1.16-.99,1.19-1.84ZM20.7,21.38c.63-1.57.83-3.19.4-4.85-.17-.69-.18-.69-.82-1-.21-.1-.41-.2-.65-.32.16.36.31.67.44,1,.19.48.26.86.23,1.02-.47-.68-.82-1.01-1.19-1.17.01.03.02.05.03.07.59,1.11.84,2.31.86,3.55.02,1.02-.15,2.01-.45,2.98-.07.25-.05.45.09.67.03-.04.06-.08.09-.11.4-.58.72-1.2.98-1.85ZM18.4,10.11c.51.19,1.03.27,1.6.12-.23-.23-.41-.45-.63-.63-.23-.21-.33-.43-.33-.75.02-.96-.63-1.77-1.53-1.97-.52-.11-1.05-.03-1.55.12-.46.13-.91.33-1.35.49.14-.48.28-.99.43-1.51-1.13,1.03-1.7,2.33-1.99,3.81-.27-1.49-.89-2.8-2.01-3.88.15.57.29,1.09.43,1.63-.62-.36-1.25-.57-1.93-.67-.48-.07-.95-.07-1.39.16-.8.41-1.13,1.1-1.1,1.97,0,.2-.05.33-.19.47-.25.23-.48.49-.73.76.57.17,1.08.06,1.59-.09-.17.23-.36.42-.52.65-.11.15-.2.33-.23.51-.07.44.05.88.17,1.31.07.29.07.56-.11.81-.05.06-.07.14-.11.21.07.05.13.11.2.16.69.48,1.05,1.14,1.06,1.99.01.58.39.93.81,1.31-.04-.51.05-.94.25-1.33.27-.51.57-1.02.87-1.52.22-.39.42-.78.5-1.22.09-.53-.17-.87-.7-.89-.11,0-.23-.02-.33-.05-.73-.23-1.25-.73-1.81-1.29.01,0,.03-.01.05-.03.02.05.05.09.09.13.23.22.49.41.75.61.05.03.13.02.19.03,0-.07.01-.15-.01-.21-.11-.19-.22-.38-.35-.55-.07-.09-.11-.17-.13-.27.17-.08.34-.16.51-.22.71-.25,1.3-.08,1.75.54.65.91.74,1.91.32,2.94-.15.38-.41.73-.6,1.09-.24.46-.49.91-.69,1.39-.17.39-.02.66.37.82.23.09.46.18.69.27.06.02.12.05.18.09,0,.02,0,.05-.01.07-.23,0-.46.03-.69,0-.22-.03-.43-.11-.65-.17.01.2.14.36.31.45.21.11.43.19.66.26.21.07.42.11.63.16-.55.08-1.08.05-1.6-.15.38.57,1.01.59,1.58.73-.49.07-.98.07-1.47-.13.09.31.26.53.51.66.28.14.57.19.89.16.53-.04,1-.29,1.43-.59.11-.08.21-.25.23-.39.03-.25.02-.51,0-.77-.06-.49-.33-.79-.82-.89-.11-.02-.24-.03-.34-.09-.14-.07-.29-.15-.38-.27-.23-.29-.29-.64-.23-1,.02-.09.07-.17.13-.29.16.36.29.43.64.34.05-.01.09-.02.13-.04.28-.11.55-.11.84-.03.21.05.41.12.63.05.39-.13.77-.13,1.15.01.1.04.22.05.33.04.21,0,.28-.17.35-.34.14.15.18.29.17.57-.03.55-.31.89-.83,1.02-.12.03-.24.07-.35.11-.27.09-.45.27-.54.55-.11.33-.12.67-.09,1.01.01.19.1.35.27.44.26.15.51.31.79.42.49.21,1,.21,1.49-.03.26-.13.43-.33.51-.64-.49.17-.97.22-1.47.11,1.05-.19,1.46-.37,1.57-.73-.53.21-1.05.25-1.6.18.05-.03.11-.04.17-.05.35-.11.69-.2,1.03-.33.23-.09.38-.26.43-.55-.46.26-.91.29-1.44.19.09-.04.13-.07.17-.08.27-.11.53-.21.79-.31.38-.15.51-.41.37-.8-.07-.21-.16-.43-.27-.62-.28-.49-.58-.97-.86-1.47-.55-.95-.59-1.94-.13-2.94.25-.56.65-.98,1.3-1.04.67-.07,1.21.29,1.79.63-.68.62-1.29,1.28-2.28,1.33-.39.02-.58.3-.56.69.01.41.17.79.37,1.15.23.41.5.8.72,1.21.19.37.35.75.48,1.13.07.22.06.47.09.71.47-.32.74-.79.77-1.34.04-.8.37-1.43,1.02-1.89.08-.05.15-.12.24-.19-.05-.09-.1-.18-.16-.27-.13-.21-.16-.43-.1-.67.07-.27.13-.53.18-.8.09-.47.04-.91-.33-1.25-.15-.15-.27-.33-.41-.49l.02-.04ZM17.22,24.36c1.3-1.66,1.8-3.51,1.35-5.6-.02-.12-.05-.23-.09-.35s-.07-.23-.11-.34c-.04-.1-.09-.21-.15-.35-.03.09-.04.15-.05.2-.14.5-.39.95-.73,1.34-.05.05-.09.15-.09.23-.04.51-.03,1.04-.13,1.55-.2,1.19-.73,2.24-1.45,3.19-.22.29-.46.57-.69.85-.01,0-.03-.01-.03-.03.41-.87.78-1.75.69-2.79-.03.05-.05.07-.06.09-.21.52-.53.94-.99,1.27-.05.03-.09.13-.09.19.01.44,0,.88.06,1.31.07.47.2.93.31,1.41.07-.03.08-.03.09-.05.78-.65,1.54-1.31,2.17-2.12ZM16.74,11.51c.19-.18.3-.39.23-.66-.06-.21-.27-.29-.45-.19-.12.07-.13.19-.08.3.05.13.12.05.2.01.13-.06.15.06.13.13-.03.09-.1.19-.18.24-.13.08-.27.05-.38-.05-.08-.07-.15-.17-.23-.27-.07.09-.15.17-.25.3.13.1.23.21.35.27.21.13.49.09.68-.08ZM15.99,20.59c.15-.14.13-.4,0-.55-.03-.04-.12-.07-.19-.06-.25.02-.51.07-.75.07-.45-.01-.83-.21-1.22-.42-.22-.13-.45-.19-.71-.2-.36,0-.66.11-.96.27-.59.32-1.21.49-1.89.27-.04-.01-.13.03-.15.07-.14.18-.1.44.07.64.17.21.36.41.51.63.13.2.21.43.33.64.03.07.09.14.15.24.03-.57.05-.65.21-.82.63.43,1.2.91,1.67,1.51.48-.61,1.05-1.09,1.68-1.52.19.25.16.53.18.8.02-.01.04-.01.04-.02.03-.03.05-.06.07-.09.27-.52.52-1.05.97-1.47ZM11.11,26.51c.32-.88.45-1.79.39-2.73,0-.05-.04-.11-.08-.15-.46-.33-.81-.75-1.01-1.29,0,0-.02,0-.04-.01-.05.49.02.95.17,1.41s.34.89.51,1.33c0,0-.02-.01-.03-.02-1.43-1.57-2.33-3.35-2.27-5.53,0-.07-.01-.15-.05-.2-.41-.44-.67-.95-.82-1.57-.03.07-.05.1-.06.13-.67,1.77-.59,3.5.23,5.19.7,1.42,1.83,2.47,3.04,3.44,0,0,.01,0,.01,0ZM10.33,11.36s.02-.08,0-.11c-.06-.09-.13-.16-.19-.24-.31.36-.53.44-.69.28-.12-.11-.12-.23-.03-.34.08.01.15.05.21.04.03,0,.07-.12.06-.16-.04-.08-.1-.17-.18-.19-.17-.07-.35.05-.38.24-.06.29.14.63.44.74.25.1.62-.03.75-.26ZM9.32,6.22c-.03-.05-.04-.08-.06-.11-.03-.05-.06-.1-.09-.15-.33-.44-.77-.75-1.26-.97-.41-.19-.84-.29-1.29-.29-.9.01-1.59.54-1.83,1.41-.27.95.13,1.97.93,2.41.23.12.47.19.75.18-.05-.11-.09-.19-.11-.27-.11-.29-.25-.57-.32-.87-.25-.99.4-1.79,1.39-1.74.27.02.55.07.83.13.35.07.7.17,1.08.27ZM6.6,16.97c.11-.31.24-.6.37-.92-.52.28-.87.71-1.17,1.19.05-.71.32-1.34.62-1.97-.39.17-.77.36-1.13.56-.05.03-.08.1-.1.16-.35,1.03-.48,2.09-.35,3.18.15,1.21.53,2.34,1.13,3.39.15.27.33.52.51.83.08-.23.19-.39.13-.6-.23-.69-.36-1.41-.43-2.14-.13-1.25.01-2.48.43-3.67ZM6.04,11.39c-.82.46-1.63.92-2.45,1.38.26.08.51.16.81.25-.85.85-1.36,1.83-1.43,3.01-.07,1.15.22,2.22.75,3.29,0-.07.01-.09.01-.1.01-1.21.21-2.39.61-3.53.03-.11.09-.21.15-.3.33-.44.67-.87.99-1.31.16-.21.31-.43.46-.65-.8.49-1.64.87-1.99.85.52-.37.96-.78,1.31-1.28.35-.49.61-1.04.77-1.61ZM4.7,11.05v-.05c-.42-.1-.84-.19-1.3-.29.85-.27,1.64-.6,2.41-1.06-.63-.19-1.13-.53-1.51-1.02-.38-.49-.57-1.06-.62-1.71-.69.45-1.2,1.03-1.61,1.73.95-.15,1.76.13,2.55.63-.93.49-1.63,1.15-2.15,2.01-.52.85-.86,1.78-1,2.78.93-1.17,2.02-2.17,3.25-3.03Z"/>
        <path class="cls-1" d="M21.55,4.51s-.01.05-.02.07c-.13-.03-.25-.07-.38-.1-.45-.09-.89-.23-1.34-.27-1.48-.12-2.74.39-3.81,1.41-.04.04-.07.09-.13.12.12-.89.49-1.68.9-2.46-.26.24-.51.48-.77.71-.47.39-.97.77-1.44,1.17-.63.55-1.15,1.19-1.48,1.97,0,.01-.02.03-.02.04-.21-.35-.4-.71-.63-1.05-.43-.61-1-1.07-1.57-1.54-.5-.41-.98-.85-1.47-1.28-.02-.01-.03-.02-.07-.03.41.78.75,1.57.9,2.47-1.65-1.57-3.53-1.98-5.65-1.14,0-.03-.01-.05-.01-.07.11-.09.22-.2.34-.29.8-.55,1.7-.75,2.65-.73.36,0,.73.07,1.11.12-.19-.39-.47-.69-.81-.94-.33-.23-.69-.44-1.04-.67.82-.21,1.63-.17,2.41.18.8.36,1.3,1.02,1.77,1.79.19-.85.05-1.64-.12-2.43,1.29,1.21,1.83,2.8,2.18,4.49.35-1.69.88-3.27,2.19-4.53-.18.83-.36,1.61-.16,2.45.06-.09.11-.15.15-.21.33-.51.69-.99,1.21-1.32.87-.55,1.8-.65,2.83-.4-.78.38-1.46.81-1.89,1.61,1.55-.32,2.94-.13,4.16.85Z"/>
        <path class="cls-1" d="M20,10.23c-.57.15-1.09.07-1.6-.12l-.02.04c.13.16.25.34.41.49.37.35.42.78.33,1.25-.05.27-.11.53-.18.8-.06.24-.03.46.1.67.06.09.11.17.16.27-.09.07-.16.13-.24.19-.65.46-.98,1.09-1.02,1.89-.03.55-.31,1.02-.77,1.34-.03-.24-.01-.49-.09-.71-.13-.39-.29-.77-.48-1.13-.22-.41-.49-.81-.72-1.21-.21-.35-.36-.73-.37-1.15-.02-.39.17-.67.56-.69.99-.05,1.6-.71,2.28-1.33-.57-.34-1.11-.69-1.79-.63-.65.06-1.05.48-1.3,1.04-.45,1-.41,1.99.13,2.94.28.49.58.97.86,1.47.11.19.21.41.27.62.13.39,0,.65-.37.8-.26.11-.53.21-.79.31-.04.01-.08.04-.17.08.53.1.98.07,1.44-.19-.05.29-.21.46-.43.55-.34.13-.69.22-1.03.33-.05.01-.11.03-.17.05.55.07,1.07.03,1.6-.18-.11.37-.52.55-1.57.73.49.11.97.07,1.47-.11-.08.31-.25.51-.51.64-.49.24-.99.23-1.49.03-.27-.11-.53-.27-.79-.42-.17-.09-.25-.25-.27-.44-.03-.34-.02-.68.09-1.01.09-.27.27-.46.54-.55.11-.04.23-.08.35-.11.52-.13.81-.47.83-1.02.01-.28-.03-.41-.17-.57-.07.17-.14.33-.35.34-.11.01-.23,0-.33-.04-.39-.15-.77-.15-1.15-.01-.21.07-.42,0-.63-.05-.29-.07-.56-.08-.84.03-.04.02-.09.03-.13.04-.35.09-.48.02-.64-.34-.05.11-.11.19-.13.29-.07.36,0,.71.23,1,.09.12.24.2.38.27.1.05.23.07.34.09.49.1.76.41.82.89.03.25.04.51,0,.77-.02.13-.11.31-.23.39-.43.3-.89.55-1.43.59-.31.03-.61-.02-.89-.16-.25-.13-.42-.35-.51-.66.49.2.98.21,1.47.13-.57-.14-1.2-.16-1.58-.73.52.2,1.05.23,1.6.15-.21-.05-.43-.09-.63-.16-.23-.07-.45-.15-.66-.26-.17-.09-.3-.25-.31-.45.21.06.43.15.65.17.23.03.46,0,.69,0,0-.02,0-.05.01-.07-.06-.03-.12-.07-.18-.09-.23-.09-.47-.18-.69-.27-.39-.16-.53-.43-.37-.82.2-.47.45-.93.69-1.39.19-.37.45-.71.6-1.09.42-1.03.33-2.03-.32-2.94-.45-.62-1.03-.79-1.75-.54-.17.06-.34.14-.51.22-.03-.13-.01-.26.05-.4.08-.17.18-.34.25-.51.02-.06,0-.14,0-.21-.06.01-.15,0-.19.05-.2.2-.4.39-.57.61-.03.03-.04.06-.06.1h-.09c-.51.15-1.03.25-1.59.09.25-.27.49-.53.73-.76.14-.13.19-.27.19-.47-.03-.87.3-1.56,1.1-1.97.44-.23.91-.23,1.39-.16.68.09,1.31.31,1.93.67-.15-.55-.29-1.07-.43-1.63,1.13,1.08,1.74,2.39,2.01,3.88.29-1.47.85-2.78,1.99-3.81-.15.52-.29,1.03-.43,1.51.45-.17.89-.36,1.35-.49.5-.15,1.03-.23,1.55-.12.9.19,1.55,1.01,1.53,1.97,0,.33.1.55.33.75.21.19.4.4.63.63ZM13.45,10.53c-.05-.15-.06-.29-.13-.39-.2-.25-.43-.49-.65-.73-.03-.03-.11-.03-.17-.03,0,.06-.03.14-.01.19.07.17.17.32.25.48.15.27.12.51-.08.75-.13.16-.23.34-.32.51-.03.06,0,.15-.01.21.07-.01.15,0,.2-.04.25-.18.5-.37.72-.57.11-.1.14-.26.21-.39Z"/>
        <path class="cls-1" d="M13.32,10.15c.07.09.08.23.13.39-.07.13-.1.29-.21.39-.22.21-.47.39-.72.57-.05.03-.13.03-.2.04,0-.07-.01-.15.01-.21.09-.17.19-.35.32-.51.2-.24.23-.49.08-.75-.09-.16-.18-.31-.25-.48-.02-.05,0-.13.01-.19.06,0,.14,0,.17.03.22.23.45.47.65.73Z"/>
        <path class="cls-1" d="M9.89,12.13c.53.02.79.36.7.89-.08.44-.28.83-.5,1.22-.29.5-.59,1.01-.87,1.52-.2.39-.29.83-.25,1.33-.41-.39-.79-.73-.81-1.31-.01-.85-.37-1.51-1.06-1.99-.07-.05-.13-.11-.2-.16.04-.07.07-.15.11-.21.19-.25.19-.52.11-.81-.11-.43-.23-.87-.17-1.31.03-.18.13-.36.23-.51.16-.23.35-.42.52-.65h.09c-.05.11-.09.23-.13.36.05.09.07.19.11.27-.01.01-.03.02-.05.03.57.55,1.09,1.06,1.81,1.29.11.03.22.04.33.05Z"/>
        <path class="cls-1" d="M9.26,6.11s.03.05.06.11c-.38-.09-.73-.19-1.08-.27-.27-.06-.55-.11-.83-.13-.99-.05-1.63.75-1.39,1.74.07.3.21.59.32.87.03.08.07.16.11.27-.28,0-.52-.06-.75-.18-.81-.44-1.21-1.47-.93-2.41.25-.87.93-1.4,1.83-1.41.45,0,.89.11,1.29.29.49.23.93.53,1.26.97.03.05.07.1.09.15Z"/>
        <path class="cls-1" d="M8.81,11.33c.03.06,0,.14.01.21-.07-.01-.15,0-.19-.03-.26-.19-.52-.39-.75-.61-.04-.03-.07-.08-.09-.13.19-.09.36-.17.53-.26.02.09.07.18.13.27.13.17.25.37.35.55Z"/>
        <path class="cls-1" d="M8.62,9.39c0,.07.03.15,0,.21-.07.17-.17.34-.25.51-.07.14-.09.27-.05.4-.17.09-.35.17-.53.26-.04-.08-.07-.18-.11-.27.05-.13.08-.25.13-.35.02-.04.03-.07.06-.1.17-.22.37-.41.57-.61.04-.04.13-.03.19-.05Z"/>
      </g>
    </g>
  </g>
</svg>