<?xml version="1.0" encoding="UTF-8"?>
<svg id="Layer_2" data-name="Layer 2" xmlns="http://www.w3.org/2000/svg" viewBox="0 0 25.49 28.35">
  <defs>
    <style>
      .cls-1 {
        fill: #231f20;
      }

      .cls-2 {
        fill: #fff;
      }
    </style>
  </defs>
  <g id="Layer_1-2" data-name="Layer 1">
    <g id="_605b45e58c" data-name="605b45e58c">
      <g>
        <g>
          <path class="cls-1" d="M16.64,10.64c.07.26-.04.47-.22.65-.19.17-.46.2-.67.08-.12-.07-.22-.17-.34-.27.1-.12.18-.21.25-.29.09.1.15.2.23.27.1.1.25.13.37.05.08-.05.14-.14.18-.24.03-.07,0-.18-.12-.12-.08.04-.15.11-.2-.01-.05-.11-.04-.22.08-.29.18-.1.39-.02.44.18Z"/>
          <path class="cls-2" d="M16.03,11.61c-.13,0-.25-.03-.36-.1-.09-.05-.17-.12-.25-.19-.04-.03-.07-.06-.11-.09l-.14-.11.49-.58.13.15s.06.08.09.11c.04.05.08.1.12.14.02.02.08.07.14.04-.01,0-.02,0-.04-.01-.07-.03-.12-.08-.15-.17-.08-.2-.03-.39.15-.5.13-.08.28-.09.42-.04.14.05.24.17.28.32h0c.08.29-.01.57-.27.82-.15.13-.33.2-.51.2ZM15.66,11.07l.03.02s-.02-.02-.02-.03h0ZM16.28,10.83s0,0,0,0c0,0,0,0,0,0Z"/>
        </g>
        <g>
          <path class="cls-1" d="M10.14,11.04s.01.08,0,.1c-.13.23-.49.35-.74.26-.29-.11-.49-.44-.43-.73.03-.18.2-.3.37-.24.08.03.14.11.18.19.01.04-.03.15-.06.16-.06.01-.13-.03-.21-.04-.09.1-.09.23.03.33.16.16.37.08.68-.27.06.08.12.15.18.24Z"/>
          <path class="cls-2" d="M9.59,11.6c-.09,0-.17-.01-.25-.05-.37-.14-.61-.55-.54-.92.03-.14.11-.27.23-.33.11-.06.24-.07.37-.03.1.03.19.13.27.27.04.12,0,.24-.04.29l-.04.07-.11.04s-.06,0-.09,0c.03.03.05.03.06.03.04,0,.15-.03.37-.29l.14-.16.19.25s.08.1.12.16v.02c.05.08.05.2-.01.29-.12.21-.41.35-.68.35ZM9.95,11.06c-.07.07-.14.13-.21.17.09-.03.18-.08.23-.15l-.02-.02ZM9.99,11.06s0,0,0,.01c0,0,0,0,0-.01ZM9.34,10.66s0,0,0,0h0s0,0,0,0Z"/>
        </g>
        <g>
          <path class="cls-1" d="M19.07,4.61c1.14,0,1.97.86,1.92,2.01-.03.83-.4,1.46-1.17,1.8-.16.07-.35.09-.58.15.09-.2.17-.35.22-.5.1-.28.2-.57.26-.87.18-.84-.6-1.61-1.48-1.49-.56.08-1.11.23-1.65.35-.03,0-.07.01-.1.03-.01-.01-.02-.03-.03-.04.1-.13.19-.28.31-.4.63-.65,1.39-1.05,2.31-1.05Z"/>
          <path class="cls-2" d="M18.93,8.84l.23-.49c.05-.12.1-.21.13-.31l.03-.07c.09-.25.18-.51.23-.78.07-.33-.03-.67-.27-.92-.26-.28-.64-.41-1.02-.37-.38.05-.76.14-1.13.23-.17.04-.34.08-.51.12-.03,0-.05,0-.07.02l-.11.04-.22-.23.1-.12s.07-.09.11-.14c.06-.09.13-.19.21-.27.72-.74,1.52-1.1,2.43-1.1h.01c.59,0,1.13.22,1.52.62.39.41.59.97.56,1.57-.04.93-.48,1.6-1.27,1.95-.12.05-.25.08-.39.11-.07.01-.14.03-.22.05l-.35.09ZM18.42,5.54c.42,0,.83.17,1.12.49.32.34.44.79.35,1.22-.06.29-.15.56-.24.82l-.02.07c-.02.06-.05.13-.08.2.08-.02.15-.04.21-.06.68-.3,1.04-.85,1.07-1.65.02-.51-.14-.98-.47-1.32-.32-.33-.77-.52-1.27-.52h-.01c-.82,0-1.53.33-2.19.99-.02.02-.04.04-.06.06.08-.02.15-.04.23-.05.38-.09.76-.18,1.16-.23.07,0,.14-.01.2-.01Z"/>
        </g>
        <g>
          <path class="cls-1" d="M4.62,10.78v.05c-1.2.84-2.28,1.82-3.18,2.97.14-.98.47-1.89.98-2.73.51-.84,1.2-1.5,2.11-1.97-.77-.5-1.56-.77-2.5-.62.41-.69.9-1.26,1.58-1.7.05.63.24,1.19.61,1.67.38.48.86.81,1.48,1-.75.45-1.52.78-2.36,1.04.45.1.86.19,1.28.29Z"/>
          <path class="cls-2" d="M1.18,14.4l.09-.63c.14-.99.48-1.93,1-2.79.48-.8,1.11-1.42,1.92-1.89-.74-.42-1.4-.56-2.13-.44l-.36.06.19-.31c.44-.75.98-1.33,1.64-1.76l.24-.16.02.29c.05.63.24,1.15.57,1.58.36.45.81.76,1.4.94l.37.11-.33.2c-.56.34-1.15.62-1.81.86.23.05.45.1.68.16l.13.03v.28l-.07.05c-1.22.85-2.28,1.84-3.15,2.93l-.39.5ZM2.96,10.59c-.15.18-.28.37-.4.58-.39.64-.67,1.31-.84,2.02.74-.84,1.59-1.62,2.54-2.31-.31-.07-.62-.14-.96-.21l-.34-.07ZM4.74,9.18l-.13.07c-.57.3-1.06.67-1.46,1.12l.15-.05c.75-.23,1.4-.5,2.01-.84-.2-.09-.39-.19-.56-.31ZM2.53,8.27c.56,0,1.11.15,1.69.45-.05-.05-.09-.11-.14-.16-.32-.42-.52-.9-.61-1.48-.43.32-.79.7-1.11,1.19.06,0,.11,0,.17,0Z"/>
        </g>
        <g>
          <path class="cls-1" d="M3.52,12.53c.8-.45,1.6-.9,2.41-1.35-.16.56-.41,1.09-.76,1.58-.35.49-.78.9-1.29,1.26.34.03,1.16-.35,1.95-.83-.15.22-.29.43-.45.63-.32.43-.65.86-.97,1.29-.07.09-.12.19-.15.29-.39,1.12-.58,2.28-.6,3.47,0,.01,0,.03-.01.1-.52-1.05-.8-2.09-.73-3.22.07-1.16.57-2.13,1.41-2.96-.29-.09-.54-.17-.8-.25Z"/>
          <path class="cls-2" d="M3.75,19.56l-.26-.53c-.57-1.15-.81-2.23-.75-3.31.07-1.08.48-2.02,1.26-2.86l-.91-.28,3.12-1.76-.12.4c-.18.6-.44,1.15-.78,1.63-.19.27-.42.53-.68.77.31-.13.69-.33,1.11-.59l.7-.43-.57.83c-.12.17-.23.34-.35.49-.16.22-.33.44-.5.66-.16.21-.32.42-.47.62-.05.07-.1.15-.12.24-.38,1.09-.57,2.24-.59,3.42v.05s-.01.03-.01.06l-.06.59ZM3.51,14.15c-.25.5-.39,1.02-.43,1.59-.05.83.09,1.63.43,2.49.07-.99.26-1.97.58-2.9.04-.12.1-.24.18-.34.16-.21.31-.42.47-.63.17-.22.33-.44.5-.66,0,0,0,0,0,0-.53.27-1.08.49-1.37.47l-.36-.03ZM3.95,12.48l.69.22-.2.2c-.35.35-.64.72-.85,1.1l.19-.14c.52-.37.93-.76,1.25-1.21.24-.33.44-.71.59-1.11l-1.67.94Z"/>
        </g>
        <g>
          <path class="cls-1" d="M6.84,15.74c-.13.31-.26.6-.37.9-.41,1.17-.54,2.37-.42,3.6.07.71.2,1.42.43,2.1.07.21-.05.36-.12.59-.18-.3-.35-.55-.5-.81-.59-1.03-.96-2.14-1.11-3.33-.12-1.07,0-2.11.35-3.12.02-.06.05-.13.1-.16.36-.2.73-.38,1.11-.55-.29.62-.56,1.24-.61,1.94.29-.47.63-.89,1.14-1.16Z"/>
          <path class="cls-2" d="M6.4,23.34l-.19-.31c-.08-.12-.15-.24-.22-.35-.1-.16-.2-.31-.28-.46-.6-1.06-.98-2.2-1.13-3.39-.12-1.07,0-2.14.35-3.2.02-.06.06-.19.18-.25.39-.21.75-.39,1.12-.55l.42-.19-.2.42c-.17.37-.35.75-.46,1.16.2-.23.45-.45.76-.61l.43-.23-.29.68c-.1.22-.19.44-.26.66-.39,1.14-.53,2.32-.41,3.53.08.76.21,1.44.42,2.06.07.22,0,.39-.07.55-.02.05-.04.09-.06.15l-.12.35ZM5.28,15.67s0,.02-.02.06c-.34,1.01-.46,2.03-.34,3.05.14,1.15.5,2.25,1.08,3.26.09.15.18.29.28.45.01.02.03.04.04.06.01-.05.02-.1,0-.15-.21-.65-.35-1.34-.43-2.13-.13-1.26.02-2.49.43-3.68.04-.12.09-.24.14-.36-.21.19-.4.44-.61.76l-.37.59.05-.69c.04-.57.22-1.09.43-1.57-.22.11-.45.22-.68.35,0,0,0,0,0,0Z"/>
        </g>
        <g>
          <path class="cls-1" d="M11.29,23.32c.05.92-.07,1.81-.39,2.67,0,0,0,0-.01,0-1.19-.95-2.3-1.98-2.98-3.37-.81-1.66-.89-3.36-.23-5.09.01-.03.03-.07.06-.13.15.6.41,1.11.8,1.54.04.05.05.13.05.2-.07,2.14.82,3.89,2.22,5.43,0,0,.02.01.03.02-.16-.43-.35-.86-.5-1.3s-.22-.9-.17-1.38c.02,0,.04,0,.04.01.2.52.54.94.99,1.26.04.03.08.09.08.14Z"/>
          <path class="cls-2" d="M10.89,26.18h-.06l-.05-.04c-1.09-.87-2.3-1.95-3.03-3.43-.83-1.7-.91-3.46-.23-5.23.02-.04.03-.08.07-.15l.21-.42.11.45c.15.59.4,1.06.76,1.46.09.1.1.24.1.31-.05,1.62.46,3.12,1.55,4.55-.04-.12-.09-.23-.13-.35-.17-.49-.22-.97-.18-1.45l.02-.22.34.1v.1c.2.47.5.85.94,1.17.07.06.15.16.15.28.05.94-.08,1.85-.39,2.71v.14h-.18ZM7.72,17.93c-.51,1.56-.4,3.12.34,4.63.66,1.34,1.7,2.32,2.75,3.17.08-.25.14-.5.19-.75l-.32-.29c-1.59-1.74-2.33-3.55-2.27-5.55,0-.04,0-.08-.01-.08-.3-.32-.52-.69-.69-1.12ZM10.35,22.55c.03.22.08.45.16.68.1.29.21.56.32.84.06.15.12.3.18.45l.06.15c.06-.44.08-.88.06-1.34-.31-.23-.57-.49-.76-.79Z"/>
        </g>
        <g>
          <path class="cls-1" d="M15.68,19.65c.13.14.15.4,0,.54-.44.41-.68.93-.95,1.44-.02.03-.04.07-.07.09,0,0-.02,0-.04.02-.02-.27,0-.54-.18-.78-.61.43-1.18.89-1.65,1.49-.46-.59-1.02-1.07-1.64-1.48-.15.17-.17.24-.2.8-.07-.1-.12-.16-.15-.24-.11-.21-.19-.43-.32-.63-.14-.22-.33-.42-.5-.62-.17-.2-.21-.45-.07-.63.03-.04.11-.08.15-.07.66.21,1.27.05,1.85-.27.29-.16.59-.27.94-.27.26.01.48.07.69.2.38.21.76.4,1.2.41.24,0,.49-.05.74-.07.07,0,.15.02.18.06Z"/>
          <path class="cls-2" d="M12.81,22.72l-.14-.17c-.39-.49-.87-.94-1.47-1.35-.04.08-.05.22-.07.58l-.03.51-.33-.49c-.05-.07-.09-.13-.12-.19-.04-.07-.08-.15-.11-.24-.06-.13-.12-.25-.19-.37-.11-.17-.25-.33-.38-.49l-.1-.12c-.23-.27-.26-.61-.08-.84.06-.08.21-.16.34-.12.53.17,1.08.09,1.72-.26.27-.15.63-.29,1.03-.29.3.02.54.09.78.22.36.2.71.38,1.11.39.14,0,.29-.01.45-.03.09-.01.18-.02.28-.03.11-.01.25.03.33.12.18.2.22.56,0,.77-.37.34-.59.77-.82,1.22l-.09.18s-.03.05-.05.07v.06l-.13.05-.24.16v-.29s-.02-.1-.02-.15c0-.15-.01-.28-.05-.4-.63.45-1.08.87-1.45,1.35l-.13.17ZM11.13,20.74l.12.08c.62.42,1.13.86,1.54,1.35.4-.48.89-.9,1.55-1.36l.14-.09.1.13c.09.12.14.24.16.37.21-.41.45-.82.81-1.15.07-.06.06-.2-.01-.29-.01,0-.03-.01-.04,0-.09,0-.18.02-.26.03-.16.02-.33.04-.5.04-.48-.01-.88-.21-1.27-.43-.19-.11-.38-.16-.62-.18h-.02c-.32,0-.59.12-.83.25-.71.38-1.33.48-1.94.29-.08.11-.06.27.06.4l.1.12c.14.17.29.34.41.52.09.13.15.27.21.4.03-.15.09-.24.19-.36l.1-.11ZM10.02,19.75s0,0,0,0c0,0,0,0,0,0Z"/>
        </g>
        <g>
          <path class="cls-1" d="M18.21,18.4c.44,2.05-.05,3.86-1.32,5.49-.61.79-1.36,1.45-2.13,2.08-.01.01-.03.02-.09.05-.1-.46-.24-.92-.3-1.38-.06-.42-.05-.85-.06-1.28,0-.06.04-.15.09-.18.45-.32.77-.73.97-1.24.01-.01.03-.03.06-.09.09,1.02-.28,1.89-.68,2.74,0,.01.02.02.03.03.23-.27.46-.55.68-.84.71-.94,1.23-1.97,1.43-3.13.09-.5.09-1.01.12-1.52,0-.08.04-.18.09-.23.33-.39.58-.82.71-1.31.01-.05.03-.1.05-.2.06.14.1.24.14.34.04.11.08.22.11.33s.07.22.09.34Z"/>
          <path class="cls-2" d="M14.55,26.25l-.04-.2c-.03-.14-.07-.28-.1-.42-.08-.32-.16-.65-.2-.98-.05-.32-.05-.65-.05-.97,0-.11,0-.22,0-.33,0-.11.06-.26.16-.33.42-.3.72-.68.91-1.17l.04-.06s.02-.02.04-.06l.27-.44.04.52c.06.67-.07,1.27-.28,1.84h0c.76-1.01,1.22-2.01,1.39-3.06.06-.33.08-.67.09-1.01,0-.16.02-.33.03-.49,0-.1.05-.25.14-.34.31-.36.54-.78.67-1.24.02-.07.03-.12.05-.2l.14-.46.23.54c.04.09.07.17.1.24.04.12.08.23.12.35.03.12.07.23.09.36.44,2.03-.02,3.92-1.35,5.63-.65.84-1.45,1.53-2.15,2.11-.03.03-.07.05-.14.07l-.19.07ZM15.25,22.54c-.2.3-.45.55-.75.77,0,0-.01.03-.01.05,0,.11,0,.22,0,.33,0,.32,0,.62.05.92.05.32.12.62.2.94.01.06.03.12.04.18.65-.54,1.38-1.18,1.97-1.95,1.29-1.65,1.71-3.4,1.29-5.35h0c-.02-.12-.05-.22-.08-.33-.02-.07-.04-.14-.07-.21-.15.41-.37.78-.66,1.11-.02.02-.05.08-.05.13-.01.16-.02.32-.03.48-.02.35-.03.7-.1,1.05-.19,1.1-.66,2.15-1.46,3.2-.18.24-.38.47-.57.7l-.21.25-.17-.09-.09-.15.04-.08c.3-.64.57-1.28.65-1.97Z"/>
        </g>
        <g>
          <path class="cls-1" d="M20.7,16.21c.42,1.63.22,3.21-.39,4.75-.26.63-.57,1.24-.96,1.81-.03.03-.05.07-.09.11-.13-.22-.16-.41-.09-.65.29-.95.46-1.92.44-2.92-.02-1.22-.26-2.4-.84-3.49,0-.02-.01-.04-.03-.07.36.15.7.48,1.16,1.14.03-.16-.04-.53-.22-1-.12-.32-.27-.63-.43-.98.24.12.44.22.64.31.63.31.63.31.8.98Z"/>
          <path class="cls-2" d="M19.24,23.19l-.13-.21c-.16-.26-.19-.5-.1-.79.31-1.01.45-1.95.43-2.87-.02-1.3-.29-2.41-.82-3.41l-.18-.47.37.15c.27.11.53.32.82.65-.03-.09-.06-.18-.1-.29-.09-.22-.18-.43-.29-.66l-.34-.75.43.21c.23.12.44.22.64.31.67.33.72.38.9,1.09.41,1.58.27,3.17-.4,4.86-.27.67-.6,1.3-.98,1.84l-.04.05s-.03.05-.05.07l-.15.19ZM19.17,16.26c.39.9.6,1.91.61,3.05.02.95-.13,1.93-.45,2.98-.03.09-.04.17-.03.24.32-.48.6-1.03.84-1.62.65-1.62.77-3.14.39-4.65h0q-.15-.59-.7-.87c-.07-.04-.15-.07-.22-.11.09.19.17.37.24.55.19.48.27.89.23,1.1l-.08.39-.23-.33c-.22-.32-.42-.56-.6-.74Z"/>
        </g>
        <g>
          <path class="cls-1" d="M21.53,13.01c.95,1.03,1.3,2.25,1.17,3.63-.08.8-.35,1.55-.71,2.31-.01-.09-.02-.14-.02-.18-.02-1.16-.22-2.28-.6-3.37-.05-.12-.12-.24-.2-.35-.43-.58-.86-1.15-1.29-1.73-.03-.05-.07-.1-.09-.16.58.43,1.22.69,1.94.88-.31-.28-.63-.52-.89-.8-.27-.29-.5-.61-.71-.95-.2-.34-.33-.72-.5-1.11.86.47,1.66.92,2.47,1.36-.24.08-.48.16-.77.24.08.1.14.17.2.24Z"/>
          <path class="cls-2" d="M21.9,19.54l-.08-.56c-.02-.1-.02-.16-.02-.21-.02-1.14-.22-2.26-.59-3.32-.03-.09-.09-.19-.17-.3-.28-.38-.57-.76-.85-1.13l-.45-.59c-.04-.05-.09-.12-.11-.22l-.14-.49.41.31c.32.24.67.43,1.09.6-.09-.09-.19-.18-.27-.27-.26-.28-.5-.61-.73-.98-.14-.24-.24-.49-.35-.75-.05-.12-.1-.25-.16-.38l-.21-.47.45.25c.86.47,1.66.92,2.47,1.36l.34.19-.37.12c-.17.06-.34.11-.52.17l.03.04c.94,1.02,1.35,2.28,1.21,3.76-.07.74-.3,1.47-.73,2.37l-.24.51ZM20.41,13.74l.06.08c.28.38.57.75.85,1.13.1.13.17.26.22.39.33.93.53,1.9.59,2.9.23-.58.36-1.1.41-1.61.08-.85-.02-1.61-.32-2.28l-.53-.14c-.49-.12-.91-.28-1.28-.47ZM19.98,11.56c.09.23.19.44.3.64.21.35.44.66.68.92.17.19.36.35.57.53.1.09.2.17.31.26l.29.26c-.18-.37-.42-.72-.73-1.04l-.08-.09s-.09-.1-.14-.16l-.16-.2.24-.07c.14-.04.26-.08.39-.12-.55-.31-1.11-.61-1.68-.93Z"/>
        </g>
        <g>
          <path class="cls-1" d="M23.19,11.08c.52.84.85,1.74.99,2.72-.93-1.14-1.97-2.16-3.2-2.97v-.06c.41-.09.82-.18,1.25-.28-.81-.26-1.58-.6-2.33-1.03.61-.2,1.11-.52,1.48-1.01.37-.48.57-1.03.6-1.68.7.44,1.2,1.02,1.62,1.73-.93-.19-1.72.08-2.5.58.9.48,1.59,1.15,2.11,1.99Z"/>
          <path class="cls-2" d="M24.44,14.4l-.39-.49c-1-1.23-2.04-2.19-3.17-2.93l-.08-.05v-.29l.79-.18c-.61-.23-1.2-.51-1.79-.85l-.34-.19.37-.12c.6-.19,1.05-.5,1.39-.95.35-.46.54-.98.57-1.59v-.29s.26.16.26.16c.69.44,1.22,1.01,1.67,1.79l.19.33-.37-.08c-.71-.14-1.38-.02-2.13.41.79.47,1.42,1.1,1.91,1.91h0c.53.86.87,1.8,1.02,2.78l.09.62ZM21.34,10.87c.9.62,1.74,1.39,2.55,2.32-.17-.71-.46-1.38-.85-2.01h0c-.13-.21-.27-.41-.42-.59l-1.29.29ZM20.3,9.49c.65.35,1.3.62,1.98.84l.19.06c-.41-.47-.9-.84-1.46-1.15l-.13-.07c-.17.12-.37.23-.57.32ZM22.12,7.08c-.07.56-.27,1.04-.61,1.48-.04.05-.08.11-.13.16.64-.34,1.25-.49,1.87-.43-.33-.49-.69-.89-1.13-1.21Z"/>
        </g>
        <g>
          <path class="cls-1" d="M25.31,10.82s0,.05,0,.1c-.63-.71-1.28-1.35-2.24-1.52,1.82,2.12,2.37,4.6,2.14,7.34-.29-.46-.55-.9-.84-1.33s-.63-.81-1.05-1.13c.07.33.15.63.2.95.14.88.07,1.74-.16,2.6-.05.16-.05.33-.04.5.16,1.47-.19,2.82-.96,4.06-.03.04-.05.08-.09.11,0,.01-.02.01-.05.03.23-.99.45-1.97.46-3.02-.05.06-.08.09-.1.12-.29.29-.57.6-.87.88-.14.12-.23.26-.29.43-.39,1.09-.92,2.09-1.64,2.99-.58.73-1.27,1.35-2.1,1.8-.04.03-.09.05-.12.07,0,0-.02,0-.06,0,.16-.18.31-.36.45-.54.34-.43.68-.85.83-1.39.1-.37.03-.73-.14-1.07-.02,0-.03,0-.04.01-.73,1.44-1.79,2.58-3.06,3.53-.38.29-.57.65-.56,1.11,0,.17,0,.33-.03.53-.15-.16-.31-.32-.44-.5-.52-.71-.78-1.52-.95-2.37-.12-.65-.14-1.31-.03-1.96v-.14c-.41.65-.56,1.33-.72,2.02-.15-.69-.33-1.37-.71-1.98.2,1.49-.08,2.88-.82,4.17-.21.36-.47.63-.69.75,0-.26.02-.5,0-.75-.04-.36-.22-.64-.52-.86-1.12-.82-2.05-1.82-2.79-3-.1-.17-.2-.35-.3-.54-.18.26-.24.68-.15,1.04.12.48.41.86.7,1.24.18.24.38.46.61.73-.09-.04-.13-.06-.18-.08-1.16-.6-2.01-1.52-2.71-2.6-.46-.71-.82-1.46-1.1-2.25-.05-.14-.14-.24-.26-.35-.34-.31-.65-.64-.98-.96,0,.98.24,1.95.41,2.94-.05-.07-.1-.14-.14-.21-.77-1.27-1.05-2.64-.88-4.11.01-.12-.01-.25-.05-.36-.32-1.16-.32-2.31.04-3.47v-.08c-.83.67-1.4,1.52-1.88,2.49-.1-.92-.1-1.78.03-2.64.12-.87.36-1.71.71-2.51.35-.8.8-1.54,1.4-2.2-.98.12-1.62.78-2.25,1.51.02-.1.03-.18.05-.26l.06-.22c.35-1.26.88-2.41,1.75-3.39.41-.46.87-.85,1.41-1.13.05-.03.1-.07.12-.12.1-.27.18-.54.28-.82-.44-.08-.76.2-1.11.4.33-.68.8-1.24,1.39-1.7.6-.47,1.26-.77,2.04-.92-.39-.2-.77-.29-1.16-.33-.38-.03-.77,0-1.14,0,1.2-1.06,3.86-2.03,5.96-.71-.24-.68-.71-1.14-1.27-1.54,1.13-.14,3.1.29,4.13,2.41C13.66.89,15.04.1,16.93.19c-.55.39-1.03.84-1.26,1.51,2.18-1.15,4.12-.57,5.98.75-.62-.08-1.24-.05-1.83.13-.15.05-.29.1-.44.18.73.17,1.4.47,1.99.93s1.06,1.03,1.4,1.71c-.36-.22-.69-.48-1.13-.41.1.29.19.56.29.83.01.04.06.08.1.1,1.09.57,1.84,1.47,2.42,2.54.41.75.68,1.54.87,2.37ZM24.18,13.8c-.14-.98-.48-1.88-.99-2.72-.52-.84-1.2-1.51-2.11-1.99.78-.5,1.58-.77,2.5-.58-.41-.71-.92-1.29-1.62-1.73-.03.65-.24,1.2-.6,1.68-.37.49-.86.81-1.48,1.01.76.44,1.52.78,2.33,1.03-.43.1-.84.19-1.25.28v.06c1.24.81,2.28,1.82,3.2,2.97ZM22.7,16.64c.13-1.38-.22-2.6-1.17-3.63-.06-.07-.12-.14-.2-.24.28-.09.53-.16.77-.24-.8-.44-1.61-.89-2.47-1.36.18.39.31.77.5,1.11.2.34.44.67.71.95.26.29.58.52.89.8-.71-.18-1.36-.44-1.94-.88.02.07.05.12.09.16.43.58.86,1.14,1.29,1.73.08.1.15.22.2.35.39,1.09.58,2.22.6,3.37,0,.05,0,.09.02.18.37-.77.63-1.51.71-2.31ZM21.12,4.48s.01-.04.02-.07c-1.2-.97-2.56-1.15-4.08-.84.43-.78,1.09-1.21,1.86-1.58-1.01-.24-1.92-.15-2.77.39-.51.33-.87.79-1.19,1.29-.05.07-.09.12-.15.21-.2-.82-.02-1.6.16-2.41-1.29,1.24-1.81,2.79-2.15,4.45-.34-1.66-.87-3.22-2.14-4.41.16.78.31,1.55.12,2.39-.46-.75-.95-1.4-1.73-1.75-.77-.35-1.56-.39-2.37-.18.35.22.7.43,1.02.65.33.24.61.54.79.92-.37-.05-.73-.11-1.09-.12-.94-.02-1.82.18-2.6.72-.12.09-.22.19-.33.28,0,.03,0,.05.01.07,2.09-.82,3.92-.42,5.55,1.12-.14-.88-.48-1.65-.88-2.42.03,0,.05.01.07.03.48.42.95.85,1.44,1.26.56.46,1.12.91,1.54,1.51.23.33.42.68.62,1.03,0,0,.01-.03.02-.04.33-.77.83-1.4,1.45-1.94.46-.4.95-.77,1.41-1.15.26-.22.5-.46.76-.69-.4.77-.77,1.54-.88,2.41.06-.03.09-.08.12-.12,1.05-1,2.28-1.5,3.73-1.39.44.03.88.17,1.31.26.12.03.25.07.37.1ZM20.99,6.63c.05-1.15-.78-2.02-1.92-2.01-.92,0-1.67.4-2.31,1.05-.12.12-.2.27-.31.4.01.01.02.03.03.04.03-.01.07-.02.1-.03.55-.12,1.09-.27,1.65-.35.88-.12,1.65.65,1.48,1.49-.06.3-.16.59-.26.87-.05.15-.12.29-.22.5.23-.06.42-.08.58-.15.77-.34,1.14-.97,1.17-1.8ZM20.31,20.97c.61-1.54.81-3.13.39-4.75-.17-.67-.18-.67-.8-.98-.2-.1-.41-.2-.64-.31.16.35.31.66.43.98.18.47.26.84.22,1-.46-.67-.8-.99-1.16-1.14.01.03.02.05.03.07.58,1.09.82,2.26.84,3.49.02,1-.15,1.97-.44,2.92-.07.24-.05.44.09.65.03-.04.06-.08.09-.11.39-.57.71-1.18.96-1.81ZM18.05,9.92c.5.19,1.01.27,1.57.12-.22-.23-.41-.44-.61-.62-.22-.2-.33-.42-.32-.74.02-.94-.62-1.74-1.5-1.93-.51-.11-1.03-.03-1.52.12-.45.13-.89.32-1.33.48.14-.47.27-.97.42-1.48-1.11,1.01-1.67,2.29-1.95,3.73-.27-1.46-.87-2.75-1.97-3.81.14.56.28,1.07.43,1.6-.61-.35-1.23-.56-1.9-.65-.47-.07-.94-.07-1.37.16-.78.41-1.11,1.08-1.08,1.94,0,.2-.05.33-.18.46-.24.23-.47.48-.72.75.56.16,1.06.06,1.56-.09-.16.22-.35.41-.51.63-.1.14-.2.32-.23.5-.07.43.05.86.16,1.28.07.29.07.55-.11.8-.05.06-.07.14-.11.21.07.05.13.11.2.16.67.47,1.03,1.12,1.04,1.95.01.57.39.91.79,1.29-.04-.5.05-.92.25-1.31.27-.5.56-1,.85-1.49.22-.38.41-.77.49-1.2.09-.52-.16-.85-.69-.87-.11,0-.22-.02-.33-.05-.71-.22-1.22-.72-1.78-1.26.01,0,.03-.01.05-.03.02.05.05.09.09.12.23.22.48.41.74.6.05.03.12.02.19.03,0-.07.01-.14-.01-.2-.1-.18-.22-.37-.35-.54-.07-.09-.11-.17-.13-.26.17-.08.33-.16.5-.22.7-.25,1.28-.08,1.71.53.64.89.73,1.87.31,2.88-.15.37-.4.71-.59,1.07-.24.45-.48.9-.68,1.36-.16.39-.02.65.36.8.22.09.45.18.68.27.06.02.12.05.18.09,0,.02,0,.05-.01.07-.22,0-.45.03-.67,0-.22-.03-.43-.11-.63-.17.01.2.14.35.31.44.21.1.43.19.65.26.2.07.41.1.62.16-.54.08-1.06.05-1.57-.15.37.56.99.58,1.55.71-.48.07-.96.07-1.45-.13.09.31.26.52.5.65.27.14.56.18.87.16.52-.04.98-.28,1.4-.58.11-.08.2-.25.22-.38.03-.25.02-.5,0-.75-.06-.48-.33-.78-.8-.88-.11-.02-.24-.03-.33-.09-.14-.07-.28-.15-.37-.27-.22-.29-.29-.63-.22-.98.02-.09.07-.17.12-.28.16.35.29.42.63.33.05-.01.09-.02.13-.04.27-.11.54-.1.82-.03.2.05.41.12.61.05.38-.13.75-.13,1.13.01.1.04.22.05.32.04.2,0,.27-.17.34-.33.14.15.18.28.16.56-.03.54-.31.88-.82,1-.12.03-.24.07-.35.1-.27.09-.44.27-.53.54-.11.33-.12.66-.09.99.01.18.1.34.26.43.26.14.5.3.77.41.48.2.98.21,1.46-.03.26-.12.43-.33.5-.63-.48.17-.95.22-1.44.1,1.03-.18,1.43-.36,1.54-.72-.52.21-1.03.25-1.57.18.05-.03.11-.04.16-.05.34-.1.68-.2,1.01-.32.22-.09.37-.26.43-.54-.45.26-.9.28-1.41.18.09-.04.12-.07.16-.08.26-.1.52-.2.78-.31.37-.15.5-.41.37-.78-.07-.21-.16-.42-.27-.61-.27-.48-.57-.95-.84-1.44-.54-.94-.58-1.9-.13-2.88.24-.55.64-.96,1.28-1.02.66-.07,1.19.28,1.75.61-.67.61-1.27,1.26-2.24,1.3-.38.02-.57.29-.55.68.01.41.16.78.37,1.12.23.4.49.78.71,1.19.18.36.35.73.47,1.11.07.22.06.46.09.7.46-.31.73-.77.76-1.31.04-.78.37-1.41,1-1.86.08-.05.15-.12.24-.18-.05-.09-.1-.18-.16-.26-.13-.2-.16-.42-.1-.65.07-.26.12-.52.18-.78.09-.46.04-.89-.33-1.23-.15-.14-.27-.32-.4-.48l.02-.04ZM16.89,23.89c1.28-1.63,1.77-3.45,1.32-5.49-.02-.12-.05-.23-.09-.34s-.07-.22-.11-.33c-.04-.1-.09-.2-.14-.34-.03.09-.04.14-.05.2-.14.49-.38.93-.71,1.31-.05.05-.09.15-.09.23-.04.5-.03,1.02-.12,1.52-.2,1.16-.72,2.2-1.43,3.13-.22.29-.45.56-.68.84-.01,0-.03-.01-.03-.03.4-.85.77-1.72.68-2.74-.03.05-.05.07-.06.09-.2.51-.52.92-.97,1.24-.05.03-.09.12-.09.18.01.43,0,.86.06,1.28.07.46.2.92.3,1.38.07-.03.08-.03.09-.05.77-.63,1.51-1.29,2.13-2.08ZM16.42,11.28c.18-.18.29-.39.22-.65-.06-.2-.27-.29-.44-.18-.12.07-.12.18-.08.29.05.12.12.05.2.01.13-.06.15.06.12.12-.03.09-.1.19-.18.24-.12.08-.27.05-.37-.05-.08-.07-.14-.17-.23-.27-.07.09-.14.17-.25.29.12.1.22.2.34.27.21.12.48.09.67-.08ZM15.68,20.19c.14-.14.12-.39,0-.54-.03-.04-.12-.07-.18-.06-.25.02-.5.07-.74.07-.44-.01-.82-.2-1.2-.41-.22-.12-.44-.18-.69-.2-.35,0-.65.11-.94.27-.58.31-1.19.48-1.85.27-.04-.01-.12.03-.15.07-.14.18-.1.43.07.63.17.2.35.41.5.62.13.2.21.42.32.63.03.07.09.14.15.24.03-.56.05-.63.2-.8.62.42,1.18.9,1.64,1.48.47-.6,1.03-1.07,1.65-1.49.18.24.16.52.18.78.02-.01.04-.01.04-.02.03-.03.05-.06.07-.09.27-.51.51-1.03.95-1.44ZM10.9,26c.31-.86.44-1.76.39-2.67,0-.05-.04-.11-.08-.14-.45-.33-.79-.74-.99-1.26,0,0-.02,0-.04-.01-.05.48.02.94.17,1.38s.33.87.5,1.3c0,0-.02-.01-.03-.02-1.41-1.54-2.29-3.28-2.22-5.43,0-.07-.01-.15-.05-.2-.4-.43-.65-.94-.8-1.54-.03.07-.05.1-.06.13-.66,1.73-.58,3.43.23,5.09.69,1.39,1.79,2.43,2.98,3.37,0,0,.01,0,.01,0ZM10.14,11.14s.02-.08,0-.1c-.06-.09-.12-.16-.18-.24-.31.35-.52.43-.68.27-.12-.1-.12-.23-.03-.33.08.01.15.05.21.04.03,0,.07-.12.06-.16-.04-.08-.1-.16-.18-.19-.17-.07-.34.05-.37.24-.06.28.14.61.43.73.25.1.61-.03.74-.26ZM9.14,6.1c-.03-.05-.04-.08-.06-.1-.03-.05-.06-.1-.09-.14-.33-.43-.75-.73-1.24-.95-.4-.18-.82-.29-1.27-.29-.88.01-1.56.53-1.8,1.39-.27.93.12,1.94.92,2.37.22.12.46.18.73.18-.05-.1-.09-.18-.11-.26-.1-.28-.24-.56-.31-.86-.24-.97.39-1.76,1.36-1.71.27.02.54.07.81.12.35.07.69.17,1.06.26ZM6.48,16.65c.1-.3.24-.59.37-.9-.51.27-.85.69-1.14,1.16.05-.7.31-1.31.61-1.94-.39.17-.75.35-1.11.55-.05.03-.08.1-.1.16-.35,1.01-.47,2.05-.35,3.12.14,1.18.52,2.3,1.11,3.33.15.26.32.51.5.81.08-.23.19-.38.12-.59-.22-.68-.35-1.39-.43-2.1-.12-1.23.01-2.43.42-3.6ZM5.93,11.17c-.8.45-1.6.9-2.41,1.35.26.08.5.16.8.25-.84.83-1.33,1.79-1.41,2.96-.07,1.13.22,2.18.73,3.22,0-.07.01-.09.01-.1.01-1.19.21-2.35.6-3.47.03-.1.09-.21.15-.29.32-.43.65-.86.97-1.29.16-.2.3-.42.45-.63-.78.48-1.61.86-1.95.83.51-.36.94-.77,1.29-1.26.35-.48.6-1.02.76-1.58ZM4.62,10.83v-.05c-.41-.1-.82-.19-1.28-.29.84-.26,1.61-.59,2.36-1.04-.62-.19-1.11-.52-1.48-1-.37-.48-.56-1.04-.61-1.67-.68.44-1.18,1.01-1.58,1.7.94-.15,1.73.12,2.5.62-.91.48-1.6,1.13-2.11,1.97-.51.84-.84,1.75-.98,2.73.91-1.15,1.98-2.13,3.18-2.97Z"/>
          <path class="cls-2" d="M15.06,28.35l-.35-.38c-.12-.12-.24-.25-.35-.4-.47-.63-.78-1.41-.98-2.44-.08-.42-.11-.83-.1-1.24-.14.39-.23.78-.31,1.16l-.17.76-.16-.76c-.09-.41-.18-.78-.3-1.12,0,1.18-.3,2.3-.91,3.36-.22.38-.5.68-.76.81l-.25.13v-.28c0-.09,0-.17,0-.26,0-.16,0-.32,0-.48-.03-.29-.18-.54-.45-.74-1.15-.84-2.1-1.87-2.83-3.05-.05-.08-.09-.16-.14-.24-.05.19-.05.41,0,.61.11.43.36.79.67,1.18.14.18.3.36.47.56l.62.72-.85-.37c-1.09-.56-1.98-1.41-2.79-2.67-.45-.69-.82-1.46-1.12-2.28-.04-.1-.1-.18-.21-.28-.23-.21-.45-.43-.66-.65,0,0,0,0-.01-.01.04.59.15,1.18.27,1.8.04.23.09.45.13.68l.12.72-.43-.59c-.05-.08-.1-.14-.15-.22-.78-1.28-1.08-2.7-.91-4.23,0-.07,0-.17-.04-.29-.29-1.05-.32-2.09-.08-3.1-.55.54-1.01,1.21-1.43,2.08l-.26.53-.06-.59c-.1-.96-.09-1.84.03-2.68.13-.89.37-1.75.72-2.55.3-.7.66-1.3,1.09-1.85-.66.23-1.15.75-1.66,1.34l-.42.48.23-1.11c.39-1.41.98-2.54,1.79-3.46.45-.51.93-.89,1.46-1.17.02-.01.04-.03.05-.04.06-.16.11-.33.17-.51l.03-.08c-.2.03-.38.14-.58.26-.07.04-.14.09-.21.13l-.48.26.24-.49c.33-.68.8-1.25,1.43-1.76.48-.38,1-.65,1.59-.83-.19-.06-.4-.1-.62-.11-.25-.02-.52-.02-.78-.01-.12,0-.24,0-.35,0h-.45l.34-.3c1.18-1.04,3.63-1.94,5.7-.98-.22-.36-.54-.68-.99-.99l-.36-.25.44-.06c1.03-.13,3.02.2,4.16,2.22C13.69.68,15.07-.07,16.94.02l.5.02-.41.29c-.36.25-.74.57-1,1.01,1.84-.8,3.67-.48,5.72.97l.56.4-.68-.09c-.61-.08-1.18-.04-1.71.11.57.19,1.09.46,1.56.82.61.47,1.1,1.07,1.45,1.77l.26.53-.65-.4c-.23-.14-.43-.27-.65-.3.07.21.14.41.21.6,1.03.53,1.85,1.39,2.51,2.61.39.72.68,1.5.88,2.41.01.04,0,.08,0,.11v.45l-.3-.31c-.49-.55-.98-1.06-1.64-1.32,1.47,1.92,2.07,4.23,1.85,7.04l-.04.51-.27-.44c-.09-.14-.18-.29-.26-.43-.19-.31-.37-.6-.57-.9-.19-.28-.39-.53-.62-.75.03.15.06.3.09.45.14.85.08,1.72-.17,2.67-.04.12-.05.27-.03.44.16,1.46-.18,2.86-.99,4.17-.03.05-.06.09-.09.12l-.02.04-.08.04-.3.12.05-.31c.18-.77.38-1.63.44-2.52l-.04.04c-.2.21-.41.43-.63.63-.12.11-.19.22-.25.36-.4,1.13-.96,2.15-1.67,3.03-.64.81-1.35,1.41-2.15,1.84-.02.01-.06.04-.1.05-.05.04-.12.04-.14.03l-.33-.03.28-.37c.12-.14.24-.28.35-.41.34-.42.66-.82.8-1.33.06-.21.06-.43-.01-.65-.69,1.26-1.66,2.34-2.96,3.31-.34.26-.5.57-.49.97,0,.17,0,.35-.03.56l-.06.35ZM7,22.47l.13.25c.1.18.19.36.3.53.71,1.14,1.64,2.13,2.75,2.95.35.26.54.59.59.98.01.14.01.28,0,.42.11-.11.24-.27.36-.48.73-1.26,1-2.63.8-4.06l-.11-.81.43.69c.26.42.43.88.56,1.34.13-.46.29-.93.57-1.38l.32-.5v.73c-.1.63-.09,1.28.03,1.93.19.99.47,1.7.92,2.3.05.07.11.14.17.2,0-.04,0-.09,0-.13,0-.51.2-.92.63-1.25,1.36-1.01,2.34-2.14,3.01-3.47l.07-.08.2-.05.08.11c.22.41.27.8.16,1.19-.14.5-.43.9-.73,1.28.52-.37.99-.82,1.43-1.37.68-.86,1.23-1.84,1.61-2.94.08-.2.18-.35.34-.5.21-.19.42-.41.62-.61l.25-.25s.05-.06.1-.12l.3-.34v.45c0,.71-.11,1.39-.24,2.03.47-1.02.65-2.09.53-3.19-.02-.21,0-.4.05-.56.24-.89.29-1.72.16-2.52-.04-.23-.09-.45-.14-.67l-.16-.74.37.29c.41.32.77.71,1.08,1.17.19.28.37.58.56.88.12-2.68-.59-4.87-2.14-6.68l-.31-.36.47.08c.81.14,1.4.59,1.92,1.11-.19-.66-.42-1.26-.72-1.81-.63-1.16-1.4-1.97-2.35-2.47-.07-.03-.15-.1-.18-.19-.08-.23-.16-.47-.25-.72l-.11-.31.2-.03c.26-.04.48.02.69.11-.28-.42-.62-.79-1.04-1.11-.56-.43-1.2-.73-1.93-.9l-.48-.11.44-.21c.17-.08.32-.14.47-.19.4-.12.82-.18,1.25-.18-1.88-1.17-3.57-1.29-5.27-.39l-.38.2.14-.41c.19-.56.55-.97.92-1.28-1.59.06-2.73.83-3.47,2.33l-.16.31-.15-.31c-.88-1.81-2.45-2.32-3.5-2.34.47.4.77.82.95,1.33l.17.47-.42-.26c-1.8-1.13-4.06-.52-5.36.38.21,0,.43,0,.65.02.45.04.84.15,1.22.35l.44.23-.49.09c-.75.15-1.39.44-1.97.89-.42.33-.75.7-1.03,1.1.2-.09.42-.15.68-.1l.2.04-.17.49c-.06.18-.12.35-.18.53-.05.13-.17.19-.21.21-.49.25-.94.61-1.36,1.09-.74.83-1.29,1.86-1.66,3.13.52-.54,1.1-.97,1.91-1.07l.46-.06-.31.34c-.56.62-1,1.32-1.37,2.16-.34.78-.57,1.61-.69,2.47-.09.64-.12,1.31-.07,2.01.48-.85,1.01-1.5,1.65-2.02l.28-.23v.49c-.35,1.1-.36,2.21-.05,3.37.05.16.07.3.05.42-.14,1.18.03,2.3.5,3.33-.12-.64-.23-1.3-.22-1.96v-.41s.29.28.29.28c.11.11.22.21.32.32.21.22.43.43.65.64.12.11.23.23.3.42.28.8.65,1.55,1.08,2.21.61.95,1.26,1.65,2.01,2.16,0,0,0,0,0-.01-.33-.42-.61-.81-.73-1.31-.1-.41-.03-.88.18-1.18l.16-.23ZM14.55,26.25l-.04-.2c-.03-.14-.07-.28-.1-.42-.08-.32-.16-.65-.2-.98-.05-.32-.05-.65-.05-.97,0-.11,0-.22,0-.33,0-.11.06-.26.16-.33.42-.3.72-.68.91-1.17l.04-.06s.02-.02.04-.06l.27-.44.04.52c.06.67-.07,1.27-.28,1.84h0c.76-1.01,1.22-2.01,1.39-3.06.06-.33.08-.67.09-1.01,0-.16.02-.33.03-.49,0-.1.05-.25.14-.34.31-.36.54-.78.67-1.24.02-.07.03-.12.05-.2l.14-.46.23.54c.04.09.07.17.1.24.04.12.08.23.12.35.03.12.07.24.09.36.44,2.02-.02,3.92-1.36,5.63-.65.84-1.45,1.53-2.15,2.11-.03.03-.07.05-.14.07l-.19.07ZM15.25,22.54c-.2.3-.45.55-.75.77,0,0-.01.03-.01.05,0,.11,0,.22,0,.33,0,.32,0,.62.05.92.05.32.12.62.2.94.01.06.03.12.04.18.65-.54,1.38-1.18,1.97-1.95h0c1.29-1.65,1.71-3.4,1.29-5.35-.02-.12-.05-.22-.08-.33-.02-.07-.04-.14-.07-.21-.15.41-.37.78-.66,1.11-.02.02-.05.08-.05.13-.01.16-.02.32-.03.48-.02.35-.03.7-.1,1.05-.19,1.1-.66,2.15-1.46,3.2-.18.24-.38.47-.57.7l-.21.25-.17-.09-.09-.15.04-.08c.3-.64.57-1.28.65-1.97ZM10.89,26.18h-.06l-.05-.04c-1.09-.87-2.3-1.95-3.03-3.43-.83-1.7-.91-3.46-.23-5.23.02-.04.03-.08.07-.15l.21-.42.11.45c.15.59.4,1.06.76,1.46.09.1.1.24.1.31-.05,1.62.46,3.12,1.55,4.55-.04-.12-.09-.23-.13-.35-.17-.49-.22-.97-.18-1.45l.02-.22.34.1v.1c.2.47.5.85.94,1.17.07.06.15.17.15.28.05.93-.08,1.84-.39,2.7v.14h-.18ZM7.72,17.93c-.51,1.56-.4,3.12.34,4.63.66,1.34,1.7,2.32,2.75,3.17.08-.25.14-.5.19-.75l-.32-.29c-1.59-1.74-2.33-3.55-2.27-5.55,0-.04,0-.08-.01-.08-.3-.32-.52-.69-.69-1.12ZM10.35,22.55c.03.22.08.45.16.68.1.29.21.56.32.84.06.15.12.3.18.45l.06.15c.06-.44.08-.89.06-1.34-.31-.23-.57-.49-.76-.78ZM6.4,23.34l-.19-.31c-.08-.12-.15-.24-.22-.35-.1-.16-.2-.31-.28-.46-.6-1.06-.98-2.2-1.13-3.39-.12-1.07,0-2.14.35-3.2.02-.06.06-.19.18-.25.39-.21.75-.39,1.12-.55l.42-.19-.2.42c-.17.37-.35.75-.46,1.16.2-.23.45-.45.76-.61l.43-.23-.29.68c-.1.22-.19.44-.26.66-.39,1.14-.53,2.32-.41,3.53.08.76.21,1.44.42,2.06.07.22,0,.39-.07.55-.02.05-.04.09-.06.15l-.12.35ZM5.28,15.67s0,.02-.02.06c-.34,1.01-.46,2.03-.34,3.05.14,1.15.5,2.25,1.08,3.26.09.15.18.29.28.45.01.02.03.04.04.06.01-.05.02-.1,0-.15-.21-.65-.35-1.34-.43-2.13-.13-1.26.02-2.49.43-3.68h0c.04-.12.09-.24.14-.36-.21.19-.4.44-.61.76l-.37.59.05-.69c.04-.57.22-1.09.43-1.57-.22.11-.45.22-.68.35,0,0,0,0,0,0ZM19.24,23.19l-.13-.21c-.16-.26-.19-.5-.1-.79.31-1.01.45-1.95.43-2.87-.02-1.3-.29-2.41-.82-3.41l-.18-.47.37.15c.27.11.53.32.82.65-.03-.09-.06-.18-.1-.29-.09-.22-.18-.43-.29-.66l-.34-.75.43.21c.23.12.44.22.64.31.67.33.72.38.9,1.09.41,1.58.27,3.17-.4,4.86h0c-.27.67-.6,1.3-.98,1.84l-.04.05s-.03.05-.05.07l-.15.19ZM19.17,16.26c.39.9.6,1.91.61,3.05.02.95-.13,1.93-.45,2.98-.03.09-.04.17-.03.24.32-.48.6-1.03.84-1.62h0c.65-1.62.77-3.14.39-4.65q-.15-.59-.7-.87c-.07-.04-.15-.07-.22-.11.09.19.17.37.24.55.19.48.27.89.23,1.1l-.08.39-.23-.33c-.22-.32-.42-.56-.6-.74ZM12.81,22.72l-.14-.17c-.39-.49-.87-.94-1.47-1.35-.04.08-.05.22-.07.58l-.03.51-.33-.49c-.05-.07-.09-.13-.12-.19-.04-.07-.08-.15-.11-.24-.06-.13-.12-.25-.19-.37-.11-.17-.25-.33-.38-.49l-.1-.12c-.23-.27-.26-.61-.08-.84.06-.08.21-.16.34-.12.53.17,1.08.09,1.72-.26.28-.15.63-.29,1.03-.29.3.02.54.09.78.22.36.2.71.38,1.11.39.14,0,.29-.01.45-.03.09-.01.18-.02.28-.03.11-.01.25.03.33.12.18.2.22.56,0,.77h0c-.37.34-.59.77-.82,1.22l-.09.18s-.03.05-.05.07v.06l-.13.05-.24.16v-.29s-.02-.1-.02-.15c0-.15-.01-.28-.05-.4-.63.45-1.08.87-1.45,1.35l-.13.17ZM11.13,20.74l.12.08c.62.42,1.13.86,1.54,1.35.4-.48.89-.9,1.55-1.36l.14-.09.1.13c.09.12.14.24.16.37.21-.41.45-.82.81-1.15.07-.07.06-.21-.02-.3,0,0,0,0,0,0,0,0-.02,0-.04,0-.09,0-.18.02-.26.03-.16.02-.33.04-.5.04-.48-.01-.88-.21-1.27-.43-.19-.11-.38-.16-.62-.18,0,0-.02,0-.02,0-.32,0-.59.12-.83.25-.71.38-1.33.48-1.94.29-.08.11-.06.27.06.4l.1.12c.14.17.29.34.41.52.09.13.15.27.21.4.03-.15.09-.24.19-.36l.1-.11ZM10.02,19.75s0,0,0,0c0,0,0,0,0,0ZM3.75,19.56l-.26-.53c-.57-1.15-.81-2.23-.75-3.31.07-1.08.48-2.02,1.26-2.86l-.91-.28,3.12-1.76-.12.4c-.18.6-.44,1.15-.78,1.63-.19.27-.42.53-.68.77.31-.13.69-.33,1.11-.59l.7-.43-.57.83c-.12.17-.23.34-.35.49-.16.22-.33.44-.5.66-.16.21-.32.42-.47.62-.05.07-.1.15-.12.24-.38,1.09-.57,2.24-.59,3.42v.05s-.01.03-.01.06l-.06.59ZM3.51,14.15c-.25.5-.39,1.02-.43,1.59-.05.83.09,1.63.43,2.49.07-.99.26-1.97.58-2.9.04-.12.1-.24.18-.34.16-.21.31-.42.47-.63.17-.22.33-.44.5-.66,0,0,0,0,0,0-.53.27-1.08.49-1.37.47l-.36-.03ZM3.95,12.48l.69.22-.2.2c-.35.35-.64.72-.85,1.1l.19-.14c.52-.37.93-.76,1.25-1.21.24-.33.44-.71.59-1.11l-1.67.94ZM21.9,19.54l-.08-.56c-.02-.1-.02-.16-.02-.21-.02-1.14-.22-2.26-.59-3.32-.03-.09-.09-.19-.17-.3-.28-.38-.57-.76-.85-1.13l-.45-.59c-.04-.05-.09-.12-.11-.22l-.14-.49.41.31c.32.24.67.43,1.09.6-.09-.09-.19-.18-.27-.27-.26-.28-.5-.61-.73-.98-.14-.24-.24-.49-.35-.75-.05-.12-.1-.25-.16-.38l-.21-.47.45.25c.86.47,1.66.92,2.47,1.36l.34.19-.37.12c-.17.06-.34.11-.52.17l.04.04c.94,1.01,1.35,2.28,1.21,3.75h0c-.07.74-.3,1.47-.73,2.37l-.24.51ZM20.41,13.74l.06.08c.28.38.57.75.85,1.13.1.13.17.26.22.39.33.93.53,1.9.59,2.9.23-.58.36-1.1.41-1.61h0c.08-.85-.02-1.61-.32-2.28l-.53-.14c-.49-.12-.91-.28-1.28-.47ZM19.98,11.56c.09.23.19.44.3.64.21.35.44.66.68.92.17.19.36.35.57.53.1.09.2.17.31.26l.29.26c-.18-.37-.42-.72-.73-1.04l-.08-.09s-.09-.1-.14-.16l-.16-.2.24-.07c.14-.04.26-.08.39-.12-.55-.31-1.11-.61-1.68-.93ZM14.93,19.26c-.26,0-.52-.05-.78-.16-.22-.09-.42-.21-.62-.32l-.17-.1c-.21-.12-.33-.32-.35-.57-.02-.29-.03-.67.1-1.06.1-.32.32-.54.64-.65.11-.04.24-.08.36-.11.44-.11.66-.38.68-.84,0-.08,0-.14,0-.18-.07.08-.18.14-.32.14-.12.01-.27,0-.39-.05-.33-.13-.67-.13-1.01-.01-.22.08-.43.03-.62-.02l-.09-.02c-.28-.07-.51-.06-.72.02-.03.02-.08.03-.11.04-.32.08-.52.05-.67-.11-.04.29.03.56.2.78.07.09.21.16.32.22.06.03.14.04.23.06h.06c.55.12.88.48.95,1.03.02.22.04.51,0,.8-.03.16-.13.38-.29.5-.34.24-.86.56-1.49.61-.34.03-.66-.03-.96-.17-.3-.16-.49-.4-.59-.75l-.1-.34.32.13c-.11-.08-.21-.19-.3-.32l-.3-.45.51.19c.06.02.12.05.19.06,0,0-.02,0-.02-.01-.24-.13-.39-.34-.4-.59l-.02-.24.23.07c.06.02.13.04.19.06.11.04.22.07.33.09-.06-.02-.12-.05-.17-.07-.25-.1-.41-.25-.49-.43-.07-.18-.06-.38.03-.6.16-.37.35-.74.54-1.09l.15-.28c.07-.14.15-.27.24-.41.13-.22.26-.43.35-.65.4-.98.3-1.89-.29-2.72-.39-.54-.89-.69-1.52-.47-.12.04-.23.09-.34.14.01.02.03.05.05.07.14.18.25.38.36.56.04.09.04.16.04.22,0,.02,0,.03,0,.05v.12c.19.11.39.2.6.27.08.02.17.03.29.04.3.01.54.12.69.31.16.19.21.46.15.77-.08.43-.26.81-.51,1.25l-.05.09c-.27.46-.55.93-.8,1.4-.19.37-.26.77-.23,1.21l.03.44-.32-.3c-.44-.41-.83-.78-.85-1.41-.01-.77-.33-1.37-.97-1.81-.05-.03-.09-.07-.14-.11l-.18-.14.07-.13s.02-.05.03-.07c.02-.05.05-.11.09-.16.13-.17.15-.36.08-.65-.12-.44-.24-.89-.17-1.35.04-.24.17-.44.26-.57.06-.08.12-.16.19-.24-.39.07-.75.08-1.15-.04l-.27-.08.37-.4c.18-.2.36-.39.55-.56.1-.1.13-.18.13-.33-.03-.97.36-1.68,1.17-2.09.51-.26,1.05-.23,1.47-.17.57.08,1.1.24,1.6.49-.11-.4-.21-.8-.32-1.22l-.15-.58.44.42c.9.86,1.51,1.9,1.86,3.16.36-1.3.95-2.3,1.83-3.1l.44-.4-.3,1.07c-.06.22-.12.44-.18.66.02,0,.04-.02.06-.02.31-.12.63-.25.95-.34.63-.18,1.13-.22,1.6-.12.97.21,1.66,1.09,1.64,2.1,0,.26.07.43.27.61.15.13.29.28.44.44l.39.4-.28.08c-.39.1-.78.11-1.2.02.03.03.06.06.09.09.48.45.45,1,.38,1.38-.06.28-.11.54-.18.8-.05.19-.02.36.08.52.05.07.1.15.14.23l.07.13-.1.13-.09.07c-.05.04-.11.09-.16.12-.58.42-.89.98-.92,1.72-.04.59-.33,1.1-.83,1.45l-.24.16-.03-.28c0-.08-.01-.15-.02-.23,0-.16-.02-.31-.06-.43-.11-.34-.26-.7-.46-1.09-.12-.23-.26-.46-.4-.68-.1-.17-.2-.33-.3-.5-.25-.43-.38-.82-.39-1.2-.02-.5.25-.83.71-.86.81-.04,1.36-.54,1.94-1.08l.02-.02c-.47-.28-.92-.53-1.45-.47-.51.05-.89.36-1.14.92-.42.93-.38,1.85.12,2.73.14.24.28.48.42.72.14.24.29.48.42.72.11.19.21.42.28.64.16.46,0,.81-.47,1-.07.03-.14.06-.21.09.19-.03.36-.09.54-.19l.32-.18-.07.36c-.05.26-.17.45-.36.58.03-.01.07-.02.1-.04l.34-.14-.11.35c-.05.15-.13.28-.26.38l.24-.08-.08.31c-.09.34-.29.59-.59.74-.26.13-.54.19-.82.19ZM14.75,14.58l.18.2c.17.18.22.36.21.68-.03.61-.36,1.02-.95,1.16-.11.03-.23.06-.33.1-.22.07-.35.21-.42.43-.09.26-.11.55-.08.93,0,.14.07.24.17.3l.17.1c.2.11.38.22.58.3.46.19.9.18,1.32-.02.11-.05.2-.12.26-.2-.4.09-.78.09-1.16,0l-.82-.19.83-.15c.35-.06.62-.12.83-.19-.27.03-.55.02-.85-.02l-.56-.08.51-.25c.07-.03.13-.05.19-.06l.27-.08c.25-.07.49-.15.73-.23.01,0,.03-.01.04-.02-.3.07-.63.07-1,0l-.53-.1.49-.22s.06-.03.08-.04c.04-.02.07-.03.1-.04l.32-.13c.15-.06.3-.12.44-.18.29-.12.37-.28.27-.57-.07-.21-.15-.4-.25-.58-.14-.24-.28-.48-.42-.72-.14-.24-.29-.48-.42-.72-.56-.98-.61-2-.14-3.04.3-.67.79-1.06,1.42-1.12.68-.06,1.22.26,1.75.58l.3.18-.36.33c-.6.55-1.22,1.13-2.15,1.17-.36.02-.39.32-.39.5.01.33.12.66.34,1.05.09.17.19.33.29.49.14.23.29.47.42.71.21.41.36.78.48,1.14.05.13.06.27.07.41.27-.27.42-.6.44-.98.04-.84.4-1.51,1.07-1.99.04-.03.08-.06.11-.09-.03-.05-.05-.08-.08-.12-.15-.24-.2-.51-.12-.79.07-.25.12-.5.17-.78.09-.48,0-.81-.27-1.07-.11-.11-.2-.22-.29-.34-.04-.05-.08-.11-.12-.16l-.07-.09.14-.28.14.05c.43.16.8.22,1.17.17-.13-.14-.25-.27-.39-.38-.27-.25-.39-.52-.38-.87.02-.84-.56-1.58-1.37-1.76-.41-.09-.86-.05-1.43.11-.31.09-.62.21-.93.33-.13.05-.26.1-.39.15l-.32.12.1-.33c.08-.27.16-.55.24-.84-.72.82-1.18,1.85-1.43,3.17l-.17.89-.16-.9c-.23-1.28-.72-2.35-1.47-3.23.06.24.13.47.19.71l.17.65-.36-.21c-.58-.34-1.18-.54-1.83-.63-.55-.08-.93-.03-1.27.14-.69.36-1.01.94-.99,1.78,0,.25-.06.42-.24.59-.17.16-.34.34-.5.52.39.05.76-.03,1.18-.15l.49-.15-.3.41c-.08.11-.17.21-.25.31-.09.1-.18.21-.26.32-.1.14-.18.3-.2.43-.06.39.05.79.16,1.19.07.28.11.62-.14.96-.01.02-.02.04-.04.06.03.02.05.04.08.06.72.51,1.1,1.21,1.11,2.09,0,.36.19.63.45.89.02-.35.11-.67.27-.98.26-.48.54-.96.81-1.42l.05-.08c.23-.41.4-.76.47-1.14.02-.14.03-.35-.08-.49-.11-.14-.3-.17-.44-.18-.14,0-.25-.02-.36-.05-.76-.24-1.29-.76-1.86-1.31l-.17-.16.21-.11.18-.18.11.24s.03.05.04.06c.18.16.36.31.55.45-.07-.11-.14-.23-.22-.33-.09-.11-.14-.22-.16-.33l-.03-.14.2-.09c.15-.07.3-.14.45-.19.77-.27,1.43-.07,1.91.59.67.93.78,1.95.33,3.05-.1.24-.24.47-.37.7-.08.13-.16.26-.23.39l-.15.28c-.18.35-.37.71-.53,1.07-.06.13-.07.25-.03.33.04.1.14.18.3.24.12.05.25.1.38.15l.3.12c.06.02.12.05.19.09l.13.07-.04.14s0,.05-.01.07l-.04.12h-.12c-.07,0-.13,0-.2,0-.16,0-.33.01-.5-.01-.07,0-.14-.02-.21-.04.19.09.39.17.6.23.14.05.27.08.4.11.07.02.14.03.21.05l.84.21-.85.13c-.29.04-.57.05-.84.03.16.06.34.09.52.13.11.02.21.04.31.07l.85.21-.87.13c-.43.06-.8.06-1.14-.02.07.09.15.16.26.21.23.12.49.16.77.14.42-.03.82-.2,1.32-.54.07-.05.14-.17.15-.27.03-.25.01-.51,0-.71-.05-.41-.27-.64-.67-.73h-.05c-.11-.03-.22-.04-.33-.1-.13-.07-.31-.16-.43-.31-.24-.32-.33-.7-.25-1.12.02-.09.05-.16.09-.23l.2-.43.15.35c.13.29.18.3.43.24.06-.02.08-.02.09-.03.3-.12.59-.14.94-.05l.09.02c.16.04.3.07.43.03.43-.15.83-.14,1.25.02.07.03.16.04.24.03.09,0,.13-.05.2-.23l.1-.25ZM1.18,14.4l.09-.63c.14-.99.48-1.93,1-2.79.48-.8,1.11-1.42,1.92-1.89-.74-.42-1.4-.56-2.13-.44l-.36.06.19-.31c.44-.75.98-1.33,1.64-1.76l.24-.16.02.29c.05.63.24,1.15.57,1.58.36.45.81.76,1.4.94l.37.11-.33.2c-.56.34-1.15.62-1.81.86.23.05.45.1.68.16l.13.03v.28l-.07.05c-1.22.85-2.28,1.84-3.15,2.93l-.39.5ZM2.96,10.59c-.15.18-.28.37-.4.58-.39.64-.67,1.31-.84,2.02.74-.84,1.59-1.62,2.54-2.31-.31-.07-.62-.14-.96-.21l-.34-.07ZM4.74,9.18l-.13.07c-.57.3-1.06.67-1.46,1.12l.15-.05c.75-.23,1.4-.5,2.01-.84-.2-.09-.39-.19-.56-.31ZM2.53,8.27c.56,0,1.11.15,1.69.45-.05-.05-.09-.11-.14-.16-.32-.42-.52-.9-.61-1.48-.43.32-.79.7-1.11,1.19.06,0,.11,0,.17,0ZM24.44,14.4l-.39-.49c-1-1.23-2.04-2.19-3.17-2.93l-.08-.05v-.29l.79-.18c-.61-.23-1.2-.51-1.79-.85l-.34-.19.37-.12c.6-.19,1.05-.5,1.39-.95.35-.46.54-.98.57-1.59v-.29s.26.16.26.16c.69.44,1.22,1.01,1.67,1.79l.19.33-.37-.08c-.72-.15-1.38-.02-2.13.41.79.47,1.42,1.1,1.91,1.91.53.86.87,1.8,1.02,2.78l.09.62ZM21.34,10.87c.9.62,1.74,1.39,2.55,2.32-.17-.71-.46-1.38-.85-2.01-.13-.21-.27-.41-.42-.59l-1.29.29ZM20.3,9.49c.65.35,1.3.62,1.98.84l.19.06c-.41-.47-.9-.85-1.46-1.15l-.13-.07c-.17.12-.37.23-.57.32ZM22.12,7.08c-.07.56-.27,1.04-.61,1.48-.04.05-.08.11-.13.16.64-.34,1.25-.49,1.87-.43-.33-.49-.69-.89-1.13-1.21ZM16.03,11.61c-.13,0-.25-.03-.36-.1-.09-.05-.17-.12-.25-.19-.04-.03-.07-.06-.11-.09l-.14-.11.49-.58.13.15s.06.08.09.11c.04.05.08.1.12.14.02.02.08.07.14.04-.01,0-.02,0-.04-.01-.07-.03-.12-.08-.15-.17-.08-.2-.03-.39.15-.5.13-.08.28-.09.42-.04.14.05.24.17.28.32.08.29,0,.57-.27.82h0c-.15.13-.33.2-.51.2ZM15.66,11.07l.03.02s-.02-.02-.02-.03h0ZM16.28,10.83s0,0,0,0c0,0,0,0,0,0ZM9.58,11.6c-.09,0-.17-.01-.25-.05-.37-.14-.61-.55-.54-.92.03-.14.11-.27.23-.33.11-.06.24-.07.37-.03.1.03.19.13.27.27.04.12,0,.24-.04.29l-.04.07-.11.04s-.06,0-.09,0c.03.03.05.03.06.03.04,0,.15-.03.37-.29l.14-.16.19.25s.08.1.12.16c.05.09.05.21,0,.29-.13.23-.42.37-.7.37ZM9.95,11.06c-.07.07-.14.13-.21.17.09-.03.18-.08.23-.15,0,0-.01-.01-.02-.02ZM9.34,10.66s0,0,0,0h0s0,0,0,0ZM18.93,8.84l.23-.49c.05-.12.1-.21.13-.31l.03-.07c.09-.25.18-.51.23-.78.07-.33-.03-.67-.27-.92-.26-.28-.64-.41-1.02-.37-.38.05-.76.14-1.13.23-.17.04-.34.08-.51.12-.03,0-.05,0-.07.02l-.11.04-.22-.23.1-.12s.07-.09.11-.14c.06-.09.13-.19.21-.27.73-.74,1.52-1.12,2.44-1.1.59,0,1.13.22,1.52.62.39.41.59.97.56,1.57h0c-.04.93-.48,1.6-1.27,1.95-.12.05-.25.08-.39.11-.07.01-.14.03-.22.05l-.35.09ZM18.42,5.54c.42,0,.83.17,1.12.49.32.34.44.79.35,1.22-.06.29-.15.56-.24.82l-.02.07c-.02.06-.05.13-.08.2.08-.02.15-.04.21-.06.68-.3,1.04-.85,1.07-1.65h0c.02-.51-.14-.98-.47-1.32-.32-.33-.77-.52-1.27-.52h-.01c-.82,0-1.53.33-2.19.99-.02.02-.04.04-.06.06.08-.02.15-.04.23-.05.38-.09.76-.18,1.16-.23.07,0,.14-.01.2-.01ZM6.3,8.71c-.27,0-.52-.06-.77-.2-.87-.48-1.29-1.55-1-2.57.26-.93,1-1.5,1.96-1.51.45,0,.91.1,1.34.3.55.25.98.58,1.3,1.01.04.06.07.11.1.16,0,0,.02.02.03.05,0,.01.01.03.03.05l.22.36-.41-.1c-.13-.03-.26-.07-.38-.1-.23-.06-.45-.12-.67-.16-.29-.06-.55-.1-.79-.12-.4-.02-.75.12-.98.39-.23.28-.31.68-.2,1.1.05.19.12.38.2.56.04.09.08.18.11.27.02.06.04.11.07.17l.14.32h-.26s-.03,0-.04,0ZM6.49,4.78c-.8.01-1.41.48-1.63,1.26-.24.85.11,1.78.83,2.17.13.07.25.11.38.14,0,0,0-.01,0-.02-.03-.08-.07-.17-.1-.26-.08-.2-.16-.4-.22-.61-.13-.52-.03-1.03.27-1.4.29-.36.75-.55,1.26-.52.26.02.53.06.84.13.21.04.41.1.63.15-.27-.31-.62-.57-1.06-.77-.39-.18-.79-.27-1.2-.27ZM12.98,7.67l-.46-.8c-.15-.26-.3-.52-.47-.76-.39-.56-.89-.97-1.43-1.42l-.07-.06c-.3-.25-.6-.51-.89-.77.23.52.44,1.1.55,1.75l.08.5-.37-.35c-1.61-1.52-3.36-1.88-5.36-1.08l-.18.07-.05-.19s-.02-.07-.02-.11v-.08l.06-.05s.08-.07.12-.1c.07-.06.14-.13.22-.19.78-.53,1.68-.78,2.71-.75.25,0,.51.04.76.07-.14-.2-.33-.39-.57-.57-.21-.15-.43-.29-.66-.43-.12-.07-.23-.15-.35-.22l-.33-.21.38-.1c.87-.23,1.7-.16,2.48.19.7.31,1.17.85,1.57,1.44.06-.62-.05-1.23-.19-1.88l-.11-.53.4.37c1.16,1.09,1.7,2.46,2.02,3.75.33-1.3.87-2.67,2.03-3.79l.41-.39-.13.61c-.14.64-.27,1.24-.21,1.86.28-.42.63-.87,1.15-1.2.85-.54,1.8-.68,2.91-.41l.47.11-.43.21c-.66.32-1.19.66-1.58,1.19,1.51-.23,2.77.08,3.84.94l.09.07-.03.11s-.02.06-.02.08l-.05.15-.28-.07c-.08-.02-.16-.05-.24-.06-.14-.03-.27-.06-.41-.09-.3-.07-.59-.14-.89-.16-1.35-.11-2.56.34-3.6,1.34-.05.06-.09.12-.17.15l-.28.13.04-.31c.08-.59.27-1.14.5-1.65-.03.03-.06.05-.09.08-.19.16-.39.32-.59.48-.28.22-.56.44-.82.67-.65.56-1.11,1.17-1.41,1.87,0,0,0,0,0,.01v.59ZM8.83,2.98l.35.07c.06.01.09.03.13.05l.44.39c.33.3.67.59,1.01.88l.07.06c.53.44,1.08.89,1.5,1.49.16.23.3.47.44.71l-.13-.65c-.26-1.29-.67-2.73-1.69-3.9.11.63.15,1.23,0,1.89l-.09.41-.22-.36c-.47-.78-.93-1.36-1.66-1.69-.58-.26-1.2-.35-1.84-.25.23.14.45.28.66.43.39.29.67.61.85.99l.13.28-.31-.04c-.1-.01-.2-.03-.3-.04-.27-.04-.52-.07-.76-.08-.83-.01-1.52.14-2.15.47,1.62-.4,3.13-.04,4.5,1.08-.18-.7-.48-1.33-.76-1.87l-.16-.31ZM14.66,2.05c-1.02,1.2-1.43,2.64-1.69,3.92l-.12.57c.31-.59.74-1.12,1.32-1.61.27-.24.55-.46.83-.68.2-.16.39-.31.58-.47.19-.16.36-.32.54-.49l.94-.87-.45.87c-.3.58-.6,1.19-.77,1.85,1.06-.9,2.27-1.31,3.6-1.2.32.02.64.1.94.17h.03c-.94-.52-2.03-.64-3.32-.38l-.36.07.18-.32c.37-.68.91-1.1,1.49-1.42-.81-.1-1.52.05-2.16.46-.52.33-.86.81-1.14,1.24l-.06.09s-.06.08-.09.13l-.22.32-.09-.38c-.16-.65-.09-1.26.03-1.88Z"/>
        </g>
        <g>
          <path class="cls-1" d="M21.14,4.42s-.01.05-.02.07c-.12-.03-.25-.07-.37-.1-.44-.09-.87-.23-1.31-.26-1.45-.12-2.69.39-3.73,1.39-.04.04-.07.09-.12.12.12-.87.48-1.65.88-2.41-.26.24-.5.47-.76.69-.46.39-.95.75-1.41,1.15-.62.54-1.12,1.16-1.45,1.94,0,.01-.02.03-.02.04-.2-.35-.39-.7-.62-1.03-.42-.6-.98-1.05-1.54-1.51-.49-.41-.96-.84-1.44-1.26-.02-.01-.03-.02-.07-.03.4.77.74,1.54.88,2.42-1.62-1.54-3.46-1.94-5.55-1.12,0-.03-.01-.05-.01-.07.11-.09.22-.2.33-.28.78-.54,1.67-.74,2.6-.72.35,0,.71.07,1.09.12-.18-.39-.46-.68-.79-.92-.32-.23-.67-.43-1.02-.65.8-.21,1.6-.17,2.37.18.78.35,1.28,1,1.73,1.75.19-.84.05-1.61-.12-2.39,1.27,1.19,1.8,2.75,2.14,4.41.34-1.65.86-3.21,2.15-4.45-.18.81-.35,1.58-.16,2.41.06-.09.1-.14.15-.21.32-.5.68-.97,1.19-1.29.85-.54,1.77-.63,2.77-.39-.77.37-1.43.8-1.86,1.58,1.52-.31,2.88-.13,4.08.84Z"/>
          <path class="cls-2" d="M12.98,7.67l-.46-.8c-.15-.26-.3-.52-.47-.76-.39-.56-.89-.97-1.43-1.42l-.07-.06c-.3-.25-.6-.51-.89-.77.23.52.44,1.1.55,1.75l.08.5-.37-.35c-1.61-1.52-3.36-1.88-5.36-1.08l-.18.07-.05-.19s-.02-.07-.02-.11v-.08l.06-.05s.08-.07.12-.1c.07-.06.14-.13.22-.19.78-.53,1.68-.78,2.71-.75.25,0,.51.04.76.07-.14-.2-.33-.39-.57-.57-.21-.15-.43-.29-.66-.43-.12-.07-.23-.15-.35-.22l-.33-.21.38-.1c.87-.23,1.7-.16,2.48.19.7.31,1.17.85,1.57,1.44.06-.62-.05-1.23-.19-1.88l-.11-.53.4.37c1.16,1.09,1.7,2.46,2.02,3.75.33-1.3.87-2.67,2.03-3.79l.41-.39-.13.61c-.14.64-.27,1.24-.21,1.86.28-.42.63-.87,1.15-1.2.85-.54,1.8-.68,2.91-.41l.47.11-.43.21c-.66.32-1.19.66-1.58,1.19,1.51-.23,2.77.08,3.84.94l.09.07-.03.11s-.02.06-.02.08l-.05.15-.28-.07c-.08-.02-.16-.05-.24-.06-.14-.03-.27-.06-.41-.09-.3-.07-.59-.14-.89-.16-1.35-.11-2.56.34-3.6,1.34-.05.06-.09.12-.17.15l-.28.13.04-.31c.08-.59.27-1.14.5-1.65-.03.03-.06.05-.09.08-.19.16-.39.32-.59.48-.28.22-.56.44-.82.67-.65.56-1.11,1.17-1.41,1.87,0,0,0,0,0,.01v.59ZM8.83,2.98l.35.07c.06.01.09.03.13.05l.44.39c.33.3.67.59,1.01.88l.07.06c.53.44,1.08.89,1.5,1.49.16.23.3.47.44.71l-.13-.65c-.26-1.29-.67-2.73-1.69-3.9.11.63.15,1.23,0,1.89l-.09.41-.22-.36c-.47-.78-.93-1.36-1.66-1.69-.58-.26-1.2-.35-1.84-.25.23.14.45.28.66.43.39.29.67.61.85.99l.13.28-.31-.04c-.1-.01-.2-.03-.3-.04-.27-.04-.52-.07-.76-.08-.83-.01-1.52.14-2.15.47,1.62-.4,3.13-.04,4.5,1.08-.18-.7-.48-1.33-.76-1.87l-.16-.31ZM14.66,2.05c-1.02,1.2-1.43,2.64-1.69,3.92l-.12.57c.31-.59.74-1.12,1.32-1.61.27-.24.55-.46.83-.68.2-.16.39-.31.58-.47.19-.16.36-.32.54-.49l.94-.87-.45.87c-.3.58-.6,1.19-.77,1.85,1.06-.9,2.27-1.31,3.6-1.2.32.02.64.1.94.17h.03c-.94-.52-2.03-.64-3.32-.38l-.36.07.18-.32c.37-.68.91-1.1,1.49-1.42-.81-.1-1.52.05-2.16.46-.52.33-.86.81-1.14,1.24l-.06.09s-.06.08-.09.13l-.22.32-.09-.38c-.16-.65-.09-1.26.03-1.88Z"/>
        </g>
        <g>
          <path class="cls-1" d="M19.62,10.04c-.56.15-1.07.07-1.57-.12l-.02.04c.13.16.25.33.4.48.37.34.41.77.33,1.23-.05.26-.1.52-.18.78-.06.24-.03.45.1.65.06.09.1.17.16.26-.09.07-.16.13-.24.18-.63.45-.96,1.07-1,1.86-.03.54-.3,1-.76,1.31-.03-.24-.01-.48-.09-.7-.12-.38-.29-.75-.47-1.11-.22-.41-.48-.79-.71-1.19-.2-.35-.35-.72-.37-1.12-.02-.39.17-.66.55-.68.97-.05,1.57-.69,2.24-1.3-.56-.33-1.09-.68-1.75-.61-.63.06-1.03.47-1.28,1.02-.44.98-.41,1.95.13,2.88.27.48.57.95.84,1.44.11.19.2.4.27.61.13.38,0,.63-.37.78-.26.1-.52.2-.78.31-.04.01-.08.04-.16.08.52.1.96.07,1.41-.18-.05.28-.2.45-.43.54-.33.12-.67.22-1.01.32-.05.01-.11.03-.16.05.54.07,1.05.03,1.57-.18-.11.36-.51.54-1.54.72.48.11.95.07,1.44-.1-.08.3-.25.5-.5.63-.48.24-.97.23-1.46.03-.27-.11-.52-.27-.77-.41-.16-.09-.25-.25-.26-.43-.03-.33-.02-.67.09-.99.09-.27.26-.45.53-.54.11-.04.23-.08.35-.1.51-.12.79-.46.82-1,.01-.27-.03-.41-.16-.56-.07.16-.14.33-.34.33-.1.01-.22,0-.32-.04-.38-.14-.75-.14-1.13-.01-.21.07-.41,0-.61-.05-.28-.07-.55-.08-.82.03-.04.02-.09.03-.13.04-.34.09-.47.02-.63-.33-.05.11-.1.19-.12.28-.07.35,0,.69.22.98.09.12.24.2.37.27.1.05.22.07.33.09.48.1.75.4.8.88.03.25.04.5,0,.75-.02.13-.11.3-.22.38-.42.29-.88.54-1.4.58-.31.03-.6-.02-.87-.16-.25-.13-.41-.34-.5-.65.48.2.96.2,1.45.13-.56-.14-1.18-.16-1.55-.71.51.2,1.03.23,1.57.15-.21-.05-.42-.09-.62-.16-.22-.07-.44-.15-.65-.26-.17-.09-.29-.25-.31-.44.21.06.42.14.63.17.22.03.45,0,.67,0,0-.02,0-.05.01-.07-.06-.03-.12-.07-.18-.09-.23-.09-.46-.18-.68-.27-.38-.16-.52-.42-.36-.8.2-.46.44-.91.68-1.36.19-.36.44-.7.59-1.07.41-1.01.33-1.99-.31-2.88-.44-.61-1.01-.78-1.71-.53-.17.06-.33.14-.5.22-.03-.12-.01-.26.05-.39.08-.17.18-.33.25-.5.02-.06,0-.14,0-.2-.06.01-.14,0-.18.05-.2.2-.39.39-.56.6-.03.03-.04.06-.06.1h-.09c-.5.14-1.01.25-1.56.09.25-.26.48-.52.72-.75.14-.13.19-.26.18-.46-.03-.86.29-1.53,1.08-1.94.43-.22.9-.22,1.37-.16.67.09,1.29.3,1.9.65-.14-.54-.28-1.05-.43-1.6,1.11,1.06,1.71,2.34,1.97,3.81.28-1.45.84-2.73,1.95-3.73-.14.51-.28,1.01-.42,1.48.44-.16.88-.35,1.33-.48.49-.14,1.01-.23,1.52-.12.88.19,1.52.99,1.5,1.93,0,.32.1.54.32.74.21.18.39.39.61.62ZM13.2,10.33c-.05-.15-.06-.29-.13-.38-.2-.25-.42-.48-.63-.71-.03-.03-.11-.03-.17-.03,0,.06-.03.14-.01.18.07.16.16.31.25.47.14.26.12.5-.08.74-.12.16-.22.33-.31.5-.03.06,0,.14-.01.21.07-.01.14,0,.2-.04.24-.18.49-.36.71-.56.1-.1.14-.26.2-.38Z"/>
          <path class="cls-2" d="M14.93,19.26c-.26,0-.52-.05-.78-.16-.22-.09-.42-.21-.62-.32l-.17-.1c-.21-.12-.33-.32-.35-.57-.02-.29-.03-.67.1-1.06.1-.32.32-.54.64-.65.11-.04.24-.08.36-.11.44-.11.66-.38.68-.84,0-.08,0-.14,0-.18-.07.08-.18.14-.32.14-.12.01-.27,0-.39-.05-.33-.13-.67-.13-1.01-.01-.22.08-.43.03-.62-.02l-.09-.02c-.28-.07-.51-.06-.72.02-.03.02-.08.03-.11.04-.32.08-.52.05-.67-.11-.04.29.03.55.2.78.07.09.21.16.32.22.06.03.14.04.23.06h.06c.55.12.88.48.95,1.03.02.22.04.51,0,.8-.03.16-.13.38-.29.5-.34.24-.86.56-1.49.61-.34.03-.66-.03-.96-.17-.3-.16-.49-.4-.59-.75l-.1-.34.32.13c-.11-.08-.21-.19-.3-.32l-.3-.45.51.19c.06.02.12.05.19.06,0,0-.02,0-.02-.01-.24-.13-.39-.34-.4-.59l-.02-.24.23.07c.06.02.13.04.19.06.11.04.22.07.33.09-.06-.02-.12-.05-.17-.07-.25-.1-.41-.25-.49-.43-.07-.18-.06-.38.03-.6.16-.37.35-.74.54-1.09l.15-.28c.07-.14.15-.27.24-.41.13-.22.26-.43.35-.65.4-.98.3-1.89-.29-2.72-.39-.54-.89-.69-1.52-.47-.14.05-.28.11-.42.18l-.26.12-.05-.2c-.04-.16-.02-.33.06-.51.04-.08.07-.15.11-.23,0-.01.01-.02.02-.03-.12.12-.24.25-.34.38l-.08.16h-.12s-.06,0-.06,0c-.57.17-1.07.25-1.63.08l-.27-.08.37-.4c.18-.2.36-.39.55-.56.1-.1.13-.18.13-.33-.03-.97.36-1.68,1.17-2.09.51-.26,1.05-.23,1.47-.17.57.08,1.1.24,1.6.49-.11-.4-.21-.8-.32-1.22l-.15-.58.44.42c.9.86,1.51,1.9,1.86,3.16.36-1.3.95-2.3,1.83-3.1l.44-.4-.3,1.07c-.06.22-.12.44-.18.66.02,0,.04-.02.06-.02.31-.12.63-.25.95-.34.63-.18,1.13-.22,1.6-.12.97.21,1.66,1.09,1.64,2.1,0,.26.07.43.27.61.15.13.29.28.44.44l.39.4-.28.08c-.39.1-.78.11-1.2.02.03.03.06.06.09.09.48.45.45,1,.38,1.38-.06.28-.11.54-.18.8-.05.19-.02.36.08.52.05.07.1.15.14.23l.07.13-.1.13-.09.07c-.05.04-.11.09-.16.12-.58.41-.89.98-.92,1.72-.04.59-.33,1.1-.83,1.45l-.24.16-.03-.28c0-.08-.01-.15-.02-.23,0-.16-.02-.31-.06-.43-.11-.34-.26-.7-.46-1.09-.12-.23-.26-.46-.4-.68-.1-.17-.2-.33-.3-.5-.25-.43-.38-.82-.39-1.2-.02-.5.25-.83.71-.86.81-.04,1.36-.54,1.94-1.08l.02-.02c-.47-.28-.92-.53-1.45-.47-.51.05-.89.36-1.14.92-.42.93-.38,1.85.12,2.73.14.24.28.48.42.72.14.24.29.48.42.72.11.19.21.42.28.64.16.46,0,.81-.47,1-.07.03-.14.06-.21.09.19-.03.36-.09.54-.19l.32-.18-.07.36c-.05.26-.17.45-.36.58.03-.01.07-.02.1-.04l.34-.14-.11.35c-.05.15-.13.28-.26.38l.24-.08-.08.31c-.09.34-.29.59-.59.74-.26.13-.54.19-.82.19ZM14.75,14.58l.18.2c.17.18.22.36.21.68-.03.61-.36,1.02-.95,1.16-.11.03-.23.06-.33.1-.22.07-.35.21-.42.43-.09.26-.11.55-.08.93,0,.14.07.24.17.3l.17.1c.2.11.38.22.58.3.46.19.9.18,1.32-.02.11-.05.2-.12.26-.2-.4.09-.78.09-1.16,0l-.82-.19.83-.15c.35-.06.62-.12.83-.19-.27.03-.55.02-.85-.02l-.56-.08.51-.25c.07-.03.13-.05.19-.06l.27-.08c.25-.07.49-.15.73-.23.01,0,.03-.01.04-.02-.3.07-.63.07-1,0l-.53-.1.49-.22s.06-.03.08-.04c.04-.02.07-.03.1-.04l.32-.13c.15-.06.3-.12.44-.18.29-.12.37-.28.27-.57-.07-.21-.15-.4-.25-.58-.14-.24-.28-.48-.42-.72-.14-.24-.29-.48-.42-.72-.56-.98-.61-2-.14-3.04.3-.67.79-1.06,1.42-1.12.68-.06,1.22.26,1.75.58l.3.18-.36.33c-.6.55-1.22,1.13-2.15,1.17-.36.02-.39.32-.39.5.01.33.12.66.34,1.05.09.17.19.33.29.49.14.23.29.47.42.71.21.41.36.78.48,1.14.05.13.06.27.07.41.27-.26.42-.6.44-.98.04-.84.4-1.51,1.07-1.99.04-.03.08-.06.11-.09-.03-.05-.05-.08-.08-.12-.15-.24-.2-.51-.12-.79.07-.25.12-.5.17-.78.09-.48,0-.81-.27-1.07-.11-.11-.2-.22-.29-.34-.04-.05-.08-.11-.12-.16l-.07-.09.14-.28.14.05c.43.16.8.22,1.17.17-.13-.14-.25-.27-.39-.38-.27-.25-.39-.52-.38-.87.02-.84-.56-1.58-1.37-1.76-.41-.09-.86-.05-1.43.11-.31.09-.62.21-.93.33-.13.05-.26.1-.39.15l-.32.12.1-.33c.08-.27.16-.55.24-.84-.71.81-1.17,1.82-1.43,3.12.07.09.15.17.22.26.07.09.09.19.12.29.01.04.02.09.04.14l.02.07-.03.07s-.03.07-.05.11c-.04.1-.09.22-.19.31-.22.21-.47.39-.72.58-.08.05-.15.06-.21.06-.02,0-.03,0-.05,0l-.23.04.02-.23s0-.03,0-.05c0-.06,0-.14.03-.21.11-.2.21-.38.34-.54.15-.19.17-.35.06-.55l-.07-.13c-.07-.12-.13-.23-.19-.36-.03-.08-.02-.17,0-.23l.02-.17.18-.02c.09,0,.17,0,.24.05-.26-1.04-.71-1.93-1.35-2.69.06.24.13.47.19.71l.17.65-.36-.21c-.58-.34-1.18-.54-1.83-.63-.55-.08-.93-.03-1.27.14-.69.36-1.01.94-.99,1.78,0,.25-.06.42-.24.59-.17.16-.34.34-.5.52.39.05.76-.03,1.18-.15h.03s.01,0,.01,0c0-.01.02-.03.03-.04.14-.19.32-.37.5-.54l.06-.06c.07-.07.16-.08.23-.09l.19-.04.06.19c.01.11.03.19,0,.27-.05.11-.1.21-.15.31-.04.07-.07.14-.11.22,0,.02-.01.03-.02.05.09-.04.17-.07.26-.1.77-.27,1.43-.07,1.91.59.67.93.78,1.95.33,3.05-.1.24-.24.47-.37.7-.08.13-.16.26-.23.39l-.15.28c-.18.35-.37.71-.53,1.07-.06.13-.07.25-.03.33.04.1.14.18.3.24.12.05.25.1.38.15l.3.12c.06.02.12.05.19.09l.13.07-.04.14s0,.05-.01.07l-.04.12h-.12c-.07,0-.13,0-.2,0-.16,0-.33.01-.5-.01-.07,0-.14-.02-.21-.04.19.09.39.17.6.23.14.05.27.08.4.11.07.02.14.03.21.05l.84.21-.85.13c-.29.04-.57.05-.84.03.16.06.34.09.52.13.11.02.21.04.31.07l.85.21-.87.13c-.43.06-.8.06-1.14-.02.07.09.15.16.26.21.23.12.49.16.77.14.42-.03.82-.2,1.32-.54.07-.05.14-.17.15-.27.03-.25.01-.51,0-.71-.05-.41-.27-.64-.67-.73h-.05c-.11-.03-.22-.04-.33-.1-.13-.07-.31-.16-.43-.31-.24-.32-.33-.7-.25-1.12.02-.09.05-.16.09-.23l.2-.43.15.35c.13.29.18.3.43.24.06-.02.08-.02.09-.03.3-.12.59-.14.94-.05l.09.02c.16.04.3.07.43.03.43-.15.83-.14,1.25.02.07.03.16.04.24.03.09,0,.13-.05.2-.23l.1-.25ZM12.75,10.27c-.02.15-.09.3-.2.44-.07.09-.14.2-.2.31.18-.14.37-.28.53-.43.04-.04.07-.11.1-.19.01-.03.02-.05.03-.08,0-.03-.02-.07-.03-.1-.02-.07-.03-.13-.06-.16-.01-.01-.02-.03-.03-.04l-.1.51-.05-.25ZM12.57,9.64s0,0,0,0l.07.13.02.04-.02-.09s-.06-.06-.08-.09Z"/>
        </g>
        <g>
          <path class="cls-1" d="M13.07,9.95c.07.09.08.23.13.38-.07.12-.1.28-.2.38-.22.2-.46.39-.71.56-.05.03-.13.03-.2.04,0-.07-.01-.15.01-.21.09-.17.19-.35.31-.5.2-.24.22-.48.08-.74-.09-.16-.18-.31-.25-.47-.02-.05,0-.12.01-.18.06,0,.14,0,.17.03.22.23.44.46.63.71Z"/>
          <path class="cls-2" d="M11.9,11.52l.02-.23s0-.03,0-.05c0-.06,0-.14.03-.21.11-.2.21-.38.34-.54.15-.19.17-.35.06-.55l-.07-.13c-.07-.12-.13-.23-.19-.36-.03-.08-.02-.17,0-.23l.02-.17.18-.02c.11,0,.2.01.27.08.23.24.45.48.65.73h0c.07.09.09.19.12.29.01.04.02.09.04.14l.02.07-.03.07s-.03.07-.05.11c-.04.1-.09.22-.19.31-.22.21-.47.39-.72.58-.08.05-.15.06-.21.06-.02,0-.03,0-.05,0l-.23.04ZM12.57,9.64s0,0,0,0l.07.13c.18.32.14.64-.1.93-.07.09-.14.2-.2.31.18-.14.37-.28.53-.43.04-.04.07-.11.1-.19.01-.03.02-.05.03-.08,0-.03-.02-.07-.03-.1-.02-.07-.03-.13-.06-.16-.11-.14-.23-.28-.36-.42Z"/>
        </g>
        <g>
          <path class="cls-1" d="M9.71,11.89c.52.02.78.35.69.87-.08.43-.27.82-.49,1.2-.29.49-.58.99-.85,1.49-.2.39-.29.81-.25,1.31-.41-.38-.78-.72-.79-1.29-.01-.83-.37-1.48-1.04-1.95-.07-.05-.13-.1-.2-.16.04-.07.07-.15.11-.21.18-.25.18-.51.11-.8-.11-.42-.23-.85-.16-1.28.03-.18.12-.35.23-.5.16-.22.35-.41.51-.63h.09c-.05.1-.09.23-.13.35.05.09.07.18.11.26-.01.01-.03.02-.05.03.56.54,1.07,1.04,1.78,1.26.1.03.22.04.33.05Z"/>
          <path class="cls-2" d="M9.01,17.18l-.32-.3c-.44-.41-.83-.78-.85-1.41-.01-.77-.33-1.37-.97-1.81-.05-.03-.09-.07-.14-.11l-.18-.14.07-.13s.02-.05.03-.07c.02-.05.05-.11.09-.16.13-.17.15-.36.08-.65-.12-.44-.24-.89-.17-1.35.04-.24.17-.44.26-.57.08-.12.18-.23.27-.34.08-.1.16-.19.24-.29l.06-.08.45.03-.12.23c-.03.06-.05.13-.08.2l-.02.05s.03.06.04.1c.01.03.03.07.04.1l.05.11h0c.5.49.96.9,1.58,1.09.08.02.17.03.29.04.3.01.54.12.69.31.16.19.21.46.15.77-.08.43-.26.81-.51,1.25l-.05.09c-.27.46-.55.93-.8,1.4-.19.37-.26.77-.23,1.21l.03.44ZM6.99,13.32s.05.04.08.06c.72.51,1.1,1.21,1.11,2.09,0,.36.19.63.45.89.02-.35.11-.67.27-.98.26-.48.54-.96.81-1.42l.05-.08c.23-.41.4-.76.47-1.14.02-.14.03-.35-.08-.49-.11-.14-.3-.17-.44-.18h0c-.14,0-.25-.02-.36-.05-.76-.24-1.29-.76-1.86-1.31l-.17-.16.12-.06s-.02-.04-.02-.06c-.07.08-.14.17-.2.25-.1.14-.18.3-.2.43-.06.39.05.79.16,1.19.07.28.11.62-.14.96-.01.02-.02.04-.04.06Z"/>
        </g>
        <g>
          <path class="cls-1" d="M9.08,5.99s.03.05.06.1c-.37-.09-.71-.19-1.06-.26-.27-.06-.54-.1-.81-.12-.97-.05-1.6.74-1.36,1.71.07.29.21.58.31.86.03.08.07.16.11.26-.27,0-.51-.06-.73-.18-.79-.43-1.18-1.44-.92-2.37.24-.86.92-1.37,1.8-1.39.44,0,.87.1,1.27.29.48.22.91.52,1.24.95.03.05.07.1.09.14Z"/>
          <path class="cls-2" d="M6.3,8.71c-.27,0-.52-.06-.77-.2-.87-.48-1.29-1.55-1-2.57.26-.93,1-1.5,1.96-1.51.45,0,.91.1,1.34.3.55.25.98.58,1.3,1.01.04.05.07.11.1.15.01.02.02.04.03.06,0,.01.01.03.03.05l.22.36-.41-.1c-.13-.03-.26-.07-.38-.1-.23-.06-.45-.12-.67-.16-.29-.06-.55-.1-.79-.12-.4-.02-.75.12-.98.39-.23.28-.31.68-.2,1.1.05.19.12.38.2.56.04.09.08.18.11.27.02.06.04.11.07.17l.14.32h-.26s-.03,0-.04,0ZM6.49,4.78c-.8.01-1.41.48-1.63,1.26-.24.85.11,1.78.83,2.17.13.07.25.11.38.14,0,0,0-.01,0-.02-.03-.08-.07-.17-.1-.26-.08-.2-.16-.4-.22-.61-.13-.52-.03-1.03.27-1.4.29-.36.75-.55,1.26-.52.26.02.53.06.84.13.21.04.41.1.63.15-.27-.31-.62-.57-1.06-.77-.39-.18-.79-.27-1.2-.27Z"/>
        </g>
        <g>
          <path class="cls-1" d="M8.65,11.11c.03.06,0,.14.01.2-.07-.01-.14,0-.19-.03-.26-.19-.51-.38-.74-.6-.04-.03-.07-.08-.09-.12.18-.09.35-.17.52-.26.02.09.07.18.13.26.13.17.24.36.35.54Z"/>
          <path class="cls-2" d="M8.85,11.52l-.23-.04s-.03,0-.05,0c-.06,0-.14,0-.21-.06-.25-.19-.52-.38-.76-.61-.06-.05-.1-.13-.12-.18l-.07-.15.15-.07c.18-.08.35-.17.52-.25l.2-.1.05.22c.01.06.05.12.1.19.14.18.25.38.36.56v.02c.04.07.04.15.04.2,0,.02,0,.03,0,.05l.02.23ZM7.92,10.62c.15.14.31.26.47.38-.07-.11-.14-.23-.22-.33-.03-.04-.06-.09-.09-.13-.05.03-.11.05-.16.08Z"/>
        </g>
        <g>
          <path class="cls-1" d="M8.46,9.21c0,.07.03.14,0,.2-.07.17-.17.33-.25.5-.07.14-.09.27-.05.39-.17.09-.34.17-.52.26-.04-.08-.07-.18-.11-.26.05-.12.08-.25.13-.35.02-.04.03-.07.06-.1.16-.22.36-.41.56-.6.04-.04.12-.03.18-.05Z"/>
          <path class="cls-2" d="M7.57,10.78l-.07-.15s-.04-.09-.06-.13c-.02-.04-.03-.09-.05-.12l-.04-.07.07-.18c.03-.09.06-.18.1-.26.02-.05.05-.09.09-.14.14-.19.32-.37.5-.54l.06-.06c.07-.07.16-.08.23-.09l.19-.04.07.23c0,.07.02.15,0,.23-.05.11-.1.21-.15.31-.04.07-.07.14-.11.22-.05.11-.06.2-.04.28l.04.13-.12.06c-.17.09-.34.17-.53.26l-.15.07ZM7.72,10.29s.01.03.02.04c.08-.04.17-.08.25-.12,0-.12.02-.24.08-.37.04-.08.07-.15.11-.23,0-.01.01-.02.02-.03-.12.12-.24.25-.34.38l-.03.05c-.04.08-.07.15-.09.23l-.02.05Z"/>
        </g>
      </g>
    </g>
  </g>
</svg>