<?xml version="1.0" encoding="UTF-8"?>
<svg id="Layer_2" data-name="Layer 2" xmlns="http://www.w3.org/2000/svg" viewBox="0 0 46.56 28.35">
  <defs>
    <style>
      .cls-1 {
        fill: #fff;
      }

      .cls-2 {
        fill: #010101;
      }
    </style>
  </defs>
  <g id="Layer_1-2" data-name="Layer 1">
    <g>
      <polygon class="cls-1" points="11.7 18.91 13.64 16.8 15.31 16.55 14.62 18.07 14.47 18.27 13.54 18.47 11.7 18.92 11.7 18.92 11.7 18.91"/>
      <path class="cls-2" d="M42.67,4.08l.3.05.34.25-.3-.55c0,.15-.15.25-.3.25h-.05ZM42.32,4.57l-.79-1.57,1.63.15.69,1.23-.44.73-.65-.49-.44-.05Z"/>
      <polygon class="cls-2" points="40.84 4.91 41.68 6.19 40.04 4.91 40.1 3.83 39.85 3 40.98 3.49 40.84 4.91"/>
      <polygon class="cls-2" points="40.19 6.33 38.71 6.19 38.86 4.72 39.36 3.78 39.55 5.74 40.64 6.09 41.92 7.71 40.19 6.33"/>
      <path class="cls-1" d="M41.53,3l.79,1.57.44.05.65.49.44-.73-.69-1.23-1.63-.15ZM38.86,4.72l-.15,1.47,1.48.15,1.73,1.38-1.28-1.62-1.09-.35-.19-1.96-.5.93ZM40.84,4.91l.15-1.42-1.14-.49.25.83-.06,1.08,1.64,1.28-.84-1.28ZM36.83,11.89l-.24-3.44-.84-4.13.05-1.52.15-.06.89-.83,1.14,1.42-.93,2.12.69,1.71,1.23.44.19-.44-.98-.39-.55-1.32.99-2.22-1.49-1.77-.19-.88,4.24.39.3.15-.64.83,1.08-.58,2.47,1.22.15,1.63.99,1.57.3.49-.3-.05-.93-.35-.2.2.55,1.57h.2l-.16.29-.44-.24-.44-.05-1.29-.74-.24.44,1.33.73.59.1-.05.4-.69.54-.84-.25-1.23-1.17-2.02,1.38-1.04.98-.35,1.53-.79,1.51-.35-.18-.3-1.03Z"/>
      <polygon class="cls-2" points="35.06 5.55 35.75 2.8 35.8 2.8 35.75 4.32 36.59 8.45 36.83 11.89 37.13 12.92 35.9 11.83 35.85 9.09 35.06 5.55"/>
      <polygon class="cls-2" points="34.17 7.22 35.31 13.17 33.58 7.46 34.51 3.34 34.17 7.22"/>
      <path class="cls-1" d="M34.81,26.97l-.19.64-.93.19-.45-.19.5-.59-.4-.3-.84.69-.74.19-.69-1.04-.59-.49-.49-3.98.84.1-.99-.69-.3-2.36,1.48.15-1.58-.79-.09-.93-.84.3-2.47-1.42-.15-2.71-1.09,2.86,2.08,1.81-.8.25-1.33-.1-1.43-2.02,1.29-2.85.34-3.44-1.33,3.2-.44,1.66-1.33,1.28,1.14,2.02h-.65l-1.33-.68-.59-1.42.1-.99.3-2.94.04-.53.55.04.15,3.29,1.18-3.59,1.29-5.35,2.27.05-.34,3.59.74,2.85.35-3.74.09-2.75,1.98-.74.84,3,.09,2.75.65,2.9-.35-6.09-.54-2.8h.05l1.63-1.08v1.33l.15,3.14.99,4.23-.79-6.43.68-2.85,3.26-.79-.69,2.75.8,3.54.05,2.75,1.23,1.08.35.18-.44.85-.5,1.37-1.23,1.14-1.68,6.19.1,2.12-.64-.3.05-2.85.4-2.46.68-.68-.59.15.3-1.78,1.19-2.16-.45-.24-.49.98-.59-.49-.15-3.83-.34,3.68.79,1.33-.3.58-.84,4.92-.05,3.19,1.88.89.24,1.28ZM34.17,7.22l.34-3.88-.93,4.12,1.73,5.7-1.14-5.94Z"/>
      <polygon class="cls-2" points="17.83 12.08 20.05 8.35 18.81 12.62 17.53 14.78 17.83 12.08"/>
      <path class="cls-1" d="M20.05,8.35l-2.23,3.74-.3,2.7,1.29-2.16,1.24-4.27ZM20.94,10.41l-1.43,4.82-.15,1.67-2.27-1.18-1.48.24-.05-.29.05-.1-.34-.93,1.28-5.6,1.43-2.85-.89-.09v-.19s.8-.06.8-.06l1.58.1-.89,1.03-1.93,3.29,1.88-1.72,1.63-2.55,1.29.05-.69.84-.24,2.36,1.63-3.2,1.73.1-1.29,2.6-1.18,3.15-.55-.04.11-1.44Z"/>
      <polygon class="cls-2" points="15.56 15.67 14.52 14.19 15.86 8.99 17.09 6.09 17.97 6.19 16.54 9.03 15.26 14.64 15.61 15.57 15.56 15.67"/>
      <polygon class="cls-1" points="17.09 6.09 15.86 8.99 14.52 14.19 15.56 15.67 15.61 15.96 13.43 16.31 13.29 14.89 13.43 13.7 14.23 7.76 15.61 5.99 17.08 5.9 17.09 6.09"/>
      <polygon class="cls-1" points="13.83 7.52 12.99 13.66 12.89 14.34 13.29 16.25 13.24 16.25 11.89 17.7 11.81 17.63 10.33 12.23 11.9 6.53 11.88 6.24 12.89 6.19 12.55 9.62 13.48 6.14 15.12 6.04 13.83 7.52"/>
      <polygon class="cls-2" points="10.03 10.36 11.9 6.53 10.33 12.23 11.81 17.63 11.01 15.62 9.83 12.57 10.03 10.36"/>
      <polygon class="cls-1" points="14.62 25.99 14.42 26.87 13.92 26.97 13.98 26.48 13.48 26.42 13.43 27.02 11.36 26.57 9.68 23.93 9.24 22.06 9.63 20.73 11.36 19.26 11.7 18.92 11.7 18.92 13.88 19.11 12.8 20.64 11.21 20.34 12.44 21.13 11.41 22.6 11.31 23.87 12.5 25.89 13.39 25.64 14.62 25.99"/>
      <polygon class="cls-1" points="8.25 12.57 8.2 10.9 7.56 11.49 7.02 10.9 6.77 9.82 7.41 8.2 9.73 6.97 9.29 7.81 9.04 10.26 10.97 6.33 11.07 6.29 11.88 6.24 11.9 6.53 10.03 10.36 9.83 12.57 11.01 15.62 11.81 17.63 11.89 17.7 10.86 18.81 10.57 19.05 10.12 18.37 9.78 17.83 9.09 16.75 9.49 18.86 9.63 19.79 9.13 20.43 8.39 21.07 7.8 21.02 6.28 20.39 6.03 20.24 5.78 20.14 5.39 19.99 6.13 19.35 6.62 18.96 6.72 18.47 7.71 18.56 9.09 19.75 8.3 17.63 7.02 17.48 8.25 12.57"/>
      <polygon class="cls-1" points="4.74 26.77 3.9 21.22 4.84 20.43 5.39 19.99 6.18 20.64 7.17 21.42 8.35 21.13 6.03 23.19 6.52 26.23 8.89 25.93 8.89 27.12 8.39 27.16 8.45 26.53 7.95 26.48 7.9 27.21 5.33 27.41 4.74 26.77"/>
      <polygon class="cls-1" points="6.03 18.81 3.41 21.02 3.37 20.99 4.7 19.7 5.39 13.46 6.37 10.9 6.47 11.49 7.56 11.59 6.72 14.25 5.73 13.9 6.18 14.64 6.62 14.98 6.03 18.81"/>
      <polygon class="cls-1" points="1.09 21.02 2.33 22 3.37 20.99 3.41 21.02 3.61 22.4 2.38 23.04 .55 21.37 .75 19.5 1.98 18.81 2.23 19.26 1.19 19.94 1.09 21.02"/>
      <path class="cls-2" d="M45.23,7.12h.15l.3-.34-.39-.05-.25-.1.19.49ZM7.21,14.39l-.19,1.08.69-2.75-.5,1.66ZM34.76,25.25l.25,1.42.69.15.09-.83-.99-.93-.79-.15.74.34ZM34.17,15.42l.49-.98.45.24-1.19,2.16-.3,1.78.59-.15-.68.68-.4,2.46-.05,2.85.64.3-.1-2.12,1.68-6.19,1.23-1.14.5-1.37.44-.85.79-1.51.35-1.53,1.04-.98,2.02-1.38,1.23,1.17.84.25.69-.54.05-.4-.59-.1-1.33-.73.24-.44,1.29.74.44.05.44.24.16-.29h-.2l-.55-1.57.2-.2.93.35.3.05-.3-.49-.99-1.57-.15-1.63-2.47-1.22-1.08.58.64-.83-.3-.15-4.24-.39.19.88,1.49,1.77-.99,2.22.55,1.32.98.39-.19.44-1.23-.44-.69-1.71.93-2.12-1.14-1.42-.89.83-.15.06h-.05l-3.26.79-.68,2.85.79,6.43-.99-4.23-.15-3.14v-1.33l-1.63,1.08h-.05l.54,2.8.35,6.09-.65-2.9-.09-2.75-.84-3-1.98.74-.09,2.75-.35,3.74-.74-2.85.34-3.59-2.27-.05-1.29,5.35-1.18,3.59-.15-3.29,1.18-3.15,1.29-2.6-1.73-.1-1.63,3.2.24-2.36.69-.84-1.29-.05-1.63,2.55-1.88,1.72,1.93-3.29.89-1.03-1.58-.1-.8.06-1.47.09-1.38,1.77-.8,5.94-.15,1.18.15,1.42,2.17-.35,1.48-.24,2.27,1.18.15-1.67,1.43-4.82-.11,1.44-.04.53-.3,2.94-.1.99.59,1.42,1.33.68h.65l-1.14-2.02,1.33-1.28.44-1.66,1.33-3.2-.34,3.44-1.29,2.85,1.43,2.02,1.33.1.8-.25-2.08-1.81,1.09-2.86.15,2.71,2.47,1.42.84-.3.09.93,1.58.79-1.48-.15.3,2.36.99.69-.84-.1.49,3.98.59.49.69,1.04.74-.19.84-.69.4.3-.5.59.45.19.93-.19.19-.64-.24-1.28-1.88-.89.05-3.19.84-4.92.3-.58-.79-1.33.34-3.68.15,3.83.59.49ZM4.84,20.43l-.94.79.84,5.56.59.64,2.57-.2.05-.73.5.05-.06.64.5-.05v-1.18l-2.38.3-.49-3.04,2.32-2.06-1.18.3-.99-.79-.79-.65.39.15.25.1.25.15,1.53.64.59.05.74-.64.5-.64-.15-.93-.4-2.11.69,1.08.34.54.44.68.3-.24,1.03-1.11,1.35-1.45h.05l-.4-1.91.1-.68.84-6.14,1.29-1.48-1.64.1-.93,3.49.34-3.44-1.01.06-.81.05-.1.05-1.92,3.93.25-2.45.43-.84-2.31,1.23-.65,1.62.25,1.08.55.59.64-.59.05,1.67-1.23,4.91,1.29.15.79,2.12-1.38-1.18-.99-.09-.1.49-.49.39-.74.64-.55.44ZM14.62,18.07l.69-1.53-1.67.25-1.94,2.11h0s-.33.35-.33.35l-1.73,1.47-.4,1.33.44,1.87,1.68,2.64,2.07.44.05-.59.5.06-.06.49.5-.1.19-.88-1.23-.35-.89.25-1.19-2.02.1-1.28,1.04-1.47-1.23-.79,1.58.3,1.08-1.53-2.17-.19,1.83-.44.93-.2.15-.19ZM2.82,19.35l-1.18.84-.06.58.69.55,1.92-1.87.69-6.14,2.13-5.41,3.99-2.11,6.87-.4,8.78.49,2.97-1.08,2.51-1.62,3.56-.89.89-.83-.3-1.47,5.03.49,3.5,1.77.2,1.82,1.53,2.51-.83.88-.44,1.14-.31-.1-.05.39-1.08.84-1.24-.4-.99-.93-1.67,1.13-.94.84-.34,1.47-1.24,2.36-.54,1.42-1.24,1.14-1.67,6.04.09,1.78.94.09,1.29,1.23-.15,1.62-1.14-.19-.25.74-1.38.3-.84-.35-1.09.25-.89-1.28-.69-.55-1.04-8.1-2.81.93-3.95-.3-5.19-2.65-1.18.19-.74,1.91-3.22,4.43-.09.98.89,1.57.64-.19,1.73.49-.15,1.66-1.18.25-2.62-.54-1.88-2.95-.49-2.06v-.06l.19-.64-2.32,2.02.4,2.31,2.47-.3v2.16l-4.24.34-.84-.93-.59-4.08-1.39.74-2.27-2.07.25-2.4,1.88-1.04.69,1.23ZM.55,21.37l1.83,1.67,1.23-.64-.19-1.38,2.62-2.21.59-3.84-.44-.34-.44-.74.99.35.84-2.65-1.09-.1-.1-.59-.98,2.56-.69,6.24-1.32,1.29-1.04,1.02-1.24-.98.1-1.08,1.04-.68-.25-.44-1.23.68-.2,1.87Z"/>
    </g>
  </g>
</svg>