<?xml version="1.0" encoding="UTF-8"?>
<svg id="Layer_2" data-name="Layer 2" xmlns="http://www.w3.org/2000/svg" viewBox="0 0 46.96 28.73">
  <defs>
    <style>
      .cls-1 {
        fill: #231f20;
        stroke: #fff;
        stroke-miterlimit: 10;
        stroke-width: .35px;
      }
    </style>
  </defs>
  <g id="Layer_1-2" data-name="Layer 1">
    <g>
      <polygon class="cls-1" points="11.88 19.1 13.82 17 15.49 16.75 14.8 18.27 14.65 18.47 13.72 18.67 11.89 19.11 11.88 19.11 11.88 19.1"/>
      <path class="cls-1" d="M42.85,4.27l.3.05.34.25-.3-.55c0,.15-.15.25-.3.25h-.05ZM42.5,4.76l-.79-1.57,1.63.15.69,1.23-.44.73-.65-.49-.44-.05Z"/>
      <polygon class="cls-1" points="41.02 5.11 41.86 6.38 40.23 5.11 40.28 4.02 40.03 3.19 41.17 3.68 41.02 5.11"/>
      <polygon class="cls-1" points="40.37 6.53 38.89 6.38 39.04 4.91 39.54 3.98 39.74 5.94 40.83 6.29 42.1 7.91 40.37 6.53"/>
      <path class="cls-1" d="M41.71,3.19l.79,1.57.44.05.65.49.44-.73-.69-1.23-1.63-.15ZM39.04,4.91l-.15,1.47,1.48.15,1.73,1.38-1.28-1.62-1.09-.35-.19-1.96-.5.93ZM41.02,5.11l.15-1.42-1.14-.49.25.83-.06,1.08,1.64,1.28-.84-1.28ZM37.02,12.09l-.24-3.44-.84-4.13.05-1.52.15-.06.89-.83,1.14,1.42-.93,2.12.69,1.71,1.23.44.19-.44-.98-.39-.55-1.32.99-2.22-1.49-1.77-.19-.88,4.24.39.3.15-.64.83,1.08-.58,2.47,1.22.15,1.63.99,1.57.3.49-.3-.05-.93-.35-.2.2.55,1.57h.2l-.16.29-.44-.24-.44-.05-1.29-.74-.24.44,1.33.73.59.1-.05.4-.69.54-.84-.25-1.23-1.17-2.02,1.38-1.04.98-.35,1.53-.79,1.51-.35-.18-.3-1.03Z"/>
      <polygon class="cls-1" points="35.24 5.74 35.94 3 35.98 3 35.94 4.51 36.78 8.65 37.02 12.09 37.31 13.11 36.08 12.03 36.04 9.29 35.24 5.74"/>
      <polygon class="cls-1" points="34.35 7.42 35.49 13.36 33.76 7.66 34.7 3.53 34.35 7.42"/>
      <path class="cls-1" d="M34.99,27.17l-.19.64-.93.19-.45-.19.5-.59-.4-.3-.84.69-.74.19-.69-1.04-.59-.49-.49-3.98.84.1-.99-.69-.3-2.36,1.48.15-1.58-.79-.09-.93-.84.3-2.47-1.42-.15-2.71-1.09,2.86,2.08,1.81-.8.25-1.33-.1-1.43-2.02,1.29-2.85.34-3.44-1.33,3.2-.44,1.66-1.33,1.28,1.14,2.02h-.65l-1.33-.68-.59-1.42.1-.99.3-2.94.04-.53.55.04.15,3.29,1.18-3.59,1.29-5.35,2.27.05-.34,3.59.74,2.85.35-3.74.09-2.75,1.98-.74.84,3,.09,2.75.65,2.9-.35-6.09-.54-2.8h.05l1.63-1.08v1.33l.15,3.14.99,4.23-.79-6.43.68-2.85,3.26-.79-.69,2.75.8,3.54.05,2.75,1.23,1.08.35.18-.44.85-.5,1.37-1.23,1.14-1.68,6.19.1,2.12-.64-.3.05-2.85.4-2.46.68-.68-.59.15.3-1.78,1.19-2.16-.45-.24-.49.98-.59-.49-.15-3.83-.34,3.68.79,1.33-.3.58-.84,4.92-.05,3.19,1.88.89.24,1.28ZM34.35,7.42l.34-3.88-.93,4.12,1.73,5.7-1.14-5.94Z"/>
      <polygon class="cls-1" points="18.01 12.28 20.24 8.55 19 12.82 17.71 14.98 18.01 12.28"/>
      <path class="cls-1" d="M20.24,8.55l-2.23,3.74-.3,2.7,1.29-2.16,1.24-4.27ZM21.12,10.61l-1.43,4.82-.15,1.67-2.27-1.18-1.48.24-.05-.29.05-.1-.34-.93,1.28-5.6,1.43-2.85-.89-.09v-.19s.8-.06.8-.06l1.58.1-.89,1.03-1.93,3.29,1.88-1.72,1.63-2.55,1.29.05-.69.84-.24,2.36,1.63-3.2,1.73.1-1.29,2.6-1.18,3.15-.55-.04.11-1.44Z"/>
      <polygon class="cls-1" points="15.74 15.87 14.7 14.39 16.04 9.18 17.27 6.29 18.16 6.38 16.72 9.23 15.45 14.83 15.79 15.77 15.74 15.87"/>
      <polygon class="cls-1" points="17.27 6.29 16.04 9.18 14.7 14.39 15.74 15.87 15.79 16.15 13.62 16.51 13.47 15.08 13.62 13.9 14.41 7.95 15.79 6.19 17.26 6.1 17.27 6.29"/>
      <polygon class="cls-1" points="14.01 7.71 13.17 13.85 13.07 14.54 13.47 16.45 13.42 16.45 12.07 17.9 11.99 17.83 10.51 12.43 12.08 6.72 12.06 6.44 13.07 6.38 12.73 9.82 13.66 6.34 15.3 6.23 14.01 7.71"/>
      <polygon class="cls-1" points="10.21 10.56 12.08 6.72 10.51 12.43 11.99 17.83 11.19 15.81 10.01 12.77 10.21 10.56"/>
      <polygon class="cls-1" points="14.8 26.19 14.61 27.06 14.11 27.17 14.16 26.68 13.66 26.62 13.62 27.21 11.55 26.77 9.86 24.12 9.42 22.26 9.82 20.93 11.55 19.46 11.88 19.11 11.89 19.11 14.06 19.31 12.98 20.83 11.4 20.54 12.63 21.32 11.59 22.79 11.49 24.07 12.68 26.08 13.57 25.83 14.8 26.19"/>
      <polygon class="cls-1" points="8.43 12.77 8.38 11.1 7.75 11.69 7.2 11.1 6.95 10.02 7.6 8.4 9.91 7.17 9.47 8.01 9.23 10.46 11.15 6.53 11.25 6.48 12.06 6.44 12.08 6.72 10.21 10.56 10.01 12.77 11.19 15.81 11.99 17.83 12.07 17.9 11.05 19.01 10.75 19.25 10.31 18.57 9.96 18.03 9.27 16.95 9.67 19.06 9.82 19.99 9.32 20.63 8.58 21.27 7.99 21.22 6.46 20.58 6.21 20.44 5.96 20.33 5.57 20.19 6.31 19.55 6.8 19.16 6.9 18.67 7.89 18.76 9.27 19.95 8.49 17.83 7.2 17.68 8.43 12.77"/>
      <polygon class="cls-1" points="4.93 26.97 4.08 21.42 5.03 20.63 5.57 20.19 6.36 20.83 7.35 21.62 8.53 21.32 6.21 23.38 6.7 26.43 9.08 26.13 9.08 27.31 8.58 27.36 8.63 26.72 8.13 26.68 8.09 27.41 5.52 27.61 4.93 26.97"/>
      <polygon class="cls-1" points="6.21 19.01 3.59 21.22 3.56 21.18 4.88 19.9 5.57 13.66 6.55 11.1 6.65 11.69 7.75 11.79 6.9 14.44 5.92 14.09 6.36 14.83 6.8 15.17 6.21 19.01"/>
      <polygon class="cls-1" points="1.27 21.22 2.51 22.2 3.56 21.18 3.59 21.22 3.79 22.6 2.56 23.24 .73 21.56 .93 19.7 2.16 19.01 2.41 19.46 1.38 20.14 1.27 21.22"/>
      <path class="cls-1" d="M45.41,7.32h.15l.3-.34-.39-.05-.25-.1.19.49ZM7.39,14.58l-.19,1.08.69-2.75-.5,1.66ZM34.95,25.45l.25,1.42.69.15.09-.83-.99-.93-.79-.15.74.34ZM34.35,15.62l.49-.98.45.24-1.19,2.16-.3,1.78.59-.15-.68.68-.4,2.46-.05,2.85.64.3-.1-2.12,1.68-6.19,1.23-1.14.5-1.37.44-.85.79-1.51.35-1.53,1.04-.98,2.02-1.38,1.23,1.17.84.25.69-.54.05-.4-.59-.1-1.33-.73.24-.44,1.29.74.44.05.44.24.16-.29h-.2l-.55-1.57.2-.2.93.35.3.05-.3-.49-.99-1.57-.15-1.63-2.47-1.22-1.08.58.64-.83-.3-.15-4.24-.39.19.88,1.49,1.77-.99,2.22.55,1.32.98.39-.19.44-1.23-.44-.69-1.71.93-2.12-1.14-1.42-.89.83-.15.06h-.05l-3.26.79-.68,2.85.79,6.43-.99-4.23-.15-3.14v-1.33l-1.63,1.08h-.05l.54,2.8.35,6.09-.65-2.9-.09-2.75-.84-3-1.98.74-.09,2.75-.35,3.74-.74-2.85.34-3.59-2.27-.05-1.29,5.35-1.18,3.59-.15-3.29,1.18-3.15,1.29-2.6-1.73-.1-1.63,3.2.24-2.36.69-.84-1.29-.05-1.63,2.55-1.88,1.72,1.93-3.29.89-1.03-1.58-.1-.8.06-1.47.09-1.38,1.77-.8,5.94-.15,1.18.15,1.42,2.17-.35,1.48-.24,2.27,1.18.15-1.67,1.43-4.82-.11,1.44-.04.53-.3,2.94-.1.99.59,1.42,1.33.68h.65l-1.14-2.02,1.33-1.28.44-1.66,1.33-3.2-.34,3.44-1.29,2.85,1.43,2.02,1.33.1.8-.25-2.08-1.81,1.09-2.86.15,2.71,2.47,1.42.84-.3.09.93,1.58.79-1.48-.15.3,2.36.99.69-.84-.1.49,3.98.59.49.69,1.04.74-.19.84-.69.4.3-.5.59.45.19.93-.19.19-.64-.24-1.28-1.88-.89.05-3.19.84-4.92.3-.58-.79-1.33.34-3.68.15,3.83.59.49ZM5.03,20.63l-.94.79.84,5.56.59.64,2.57-.2.05-.73.5.05-.06.64.5-.05v-1.18l-2.38.3-.49-3.04,2.32-2.06-1.18.3-.99-.79-.79-.65.39.15.25.1.25.15,1.53.64.59.05.74-.64.5-.64-.15-.93-.4-2.11.69,1.08.34.54.44.68.3-.24,1.03-1.11,1.35-1.45h.05l-.4-1.91.1-.68.84-6.14,1.29-1.48-1.64.1-.93,3.49.34-3.44-1.01.06-.81.05-.1.05-1.92,3.93.25-2.45.43-.84-2.31,1.23-.65,1.62.25,1.08.55.59.64-.59.05,1.67-1.23,4.91,1.29.15.79,2.12-1.38-1.18-.99-.09-.1.49-.49.39-.74.64-.55.44ZM14.8,18.27l.69-1.53-1.67.25-1.94,2.11h0s-.33.35-.33.35l-1.73,1.47-.4,1.33.44,1.87,1.68,2.64,2.07.44.05-.59.5.06-.06.49.5-.1.19-.88-1.23-.35-.89.25-1.19-2.02.1-1.28,1.04-1.47-1.23-.79,1.58.3,1.08-1.53-2.17-.19,1.83-.44.93-.2.15-.19ZM3,19.55l-1.18.84-.06.58.69.55,1.92-1.87.69-6.14,2.13-5.41,3.99-2.11,6.87-.4,8.78.49,2.97-1.08,2.51-1.62,3.56-.89.89-.83-.3-1.47,5.03.49,3.5,1.77.2,1.82,1.53,2.51-.83.88-.44,1.14-.31-.1-.05.39-1.08.84-1.24-.4-.99-.93-1.67,1.13-.94.84-.34,1.47-1.24,2.36-.54,1.42-1.24,1.14-1.67,6.04.09,1.78.94.09,1.29,1.23-.15,1.62-1.14-.19-.25.74-1.38.3-.84-.35-1.09.25-.89-1.28-.69-.55-1.04-8.1-2.81.93-3.95-.3-5.19-2.65-1.18.19-.74,1.91-3.22,4.43-.09.98.89,1.57.64-.19,1.73.49-.15,1.66-1.18.25-2.62-.54-1.88-2.95-.49-2.06v-.06l.19-.64-2.32,2.02.4,2.31,2.47-.3v2.16l-4.24.34-.84-.93-.59-4.08-1.39.74L.18,21.76l.25-2.4,1.88-1.04.69,1.23ZM.73,21.56l1.83,1.67,1.23-.64-.19-1.38,2.62-2.21.59-3.84-.44-.34-.44-.74.99.35.84-2.65-1.09-.1-.1-.59-.98,2.56-.69,6.24-1.32,1.29-1.04,1.02-1.24-.98.1-1.08,1.04-.68-.25-.44-1.23.68-.2,1.87Z"/>
    </g>
  </g>
</svg>