<?xml version="1.0" encoding="UTF-8"?>
<svg id="Layer_2" data-name="Layer 2" xmlns="http://www.w3.org/2000/svg" viewBox="0 0 46.34 28.35">
  <defs>
    <style>
      .cls-1 {
        fill: #231f20;
      }

      .cls-2 {
        fill: #fff;
      }
    </style>
  </defs>
  <g id="Layer_1-2" data-name="Layer 1">
    <g>
      <g>
        <polygon class="cls-1" points="11.72 18.85 13.64 16.77 15.29 16.53 14.61 18.03 14.46 18.22 13.54 18.42 11.73 18.86 11.72 18.86 11.72 18.85"/>
        <path class="cls-2" d="M11.75,19.03h-.2v-.24l.05-.06,1.96-2.12,2.03-.3-.82,1.79-.2.28-.98.21-1.82.44ZM13.72,16.93l-1.51,1.63,1.28-.31.86-.19.11-.14.53-1.18-1.28.19Z"/>
      </g>
      <g>
        <path class="cls-1" d="M42.29,4.22l.29.05.34.25-.29-.54c0,.15-.15.25-.29.25h-.05ZM41.94,4.7l-.78-1.55,1.61.15.68,1.21-.44.72-.64-.48-.44-.05Z"/>
        <path class="cls-2" d="M43.06,5.48l-.75-.57-.48-.05-.96-1.91,2.01.18.78,1.38-.29.47.06.12-.09-.07-.27.45ZM42.05,4.54l.39.04.52.4.09-.15-.55-.4-.25-.04.03-.34h.05c.06,0,.12-.04.12-.07v-.53l-.99-.09.59,1.19ZM42.53,3.45l.64,1.18.08-.13-.59-1.05h-.13Z"/>
      </g>
      <g>
        <polygon class="cls-1" points="40.48 5.04 41.31 6.3 39.69 5.04 39.75 3.97 39.5 3.15 40.62 3.63 40.48 5.04"/>
        <path class="cls-2" d="M42.03,7.08l-2.52-1.96.06-1.13-.34-1.15,1.58.68-.15,1.47,1.38,2.09ZM39.87,4.96l.71.56-.29-.43.14-1.34-.67-.29.15.49-.05,1.01Z"/>
      </g>
      <g>
        <polygon class="cls-1" points="39.84 6.44 38.38 6.3 38.53 4.85 39.02 3.93 39.21 5.86 40.29 6.21 41.55 7.8 39.84 6.44"/>
        <path class="cls-2" d="M42.61,8.87l-2.83-2.26-1.58-.16.18-1.69.76-1.42.24,2.39,1.02.33,2.22,2.81ZM38.57,6.14l1.34.13.58.46-.3-.38-1.14-.37-.15-1.48-.21.39-.13,1.24Z"/>
      </g>
      <g>
        <path class="cls-1" d="M41.16,3.15l.78,1.55.44.05.64.48.44-.72-.68-1.21-1.61-.15ZM38.53,4.85l-.15,1.45,1.46.15,1.71,1.36-1.26-1.6-1.08-.35-.19-1.93-.49.92ZM40.48,5.04l.15-1.4-1.12-.48.25.82-.05,1.07,1.61,1.26-.83-1.26ZM36.53,11.93l-.24-3.39-.83-4.08.05-1.5.15-.05.88-.82,1.12,1.4-.92,2.09.68,1.69,1.21.44.19-.44-.97-.38-.54-1.3.98-2.19-1.47-1.74-.19-.87,4.19.38.29.15-.63.82,1.07-.57,2.44,1.2.15,1.61.98,1.55.29.48-.29-.05-.92-.35-.2.2.54,1.55h.2l-.16.28-.44-.24-.44-.05-1.27-.73-.24.44,1.31.72.58.1-.05.39-.68.53-.83-.25-1.21-1.16-2,1.36-1.02.97-.35,1.51-.78,1.49-.35-.18-.29-1.01Z"/>
        <path class="cls-2" d="M37.24,13.36l-.57-.3-.32-1.12-.24-3.39-.83-4.06.05-1.65.22-.08.99-.93,1.3,1.63-.93,2.12.63,1.55.99.36.05-.13-.87-.34-.59-1.44.96-2.16-1.44-1.73-.24-1.1,4.48.42.48.24-.27.35.44-.24,2.6,1.29.15,1.66,1.44,2.32-.66-.1-.85-.32-.05.05.46,1.33h.37l-.38.69-.56-.3-.47-.06-1.11-.64-.07.13,1.14.62.72.12-.07.63-.81.63-.99-.31-1.11-1.06-1.88,1.28-.96.91-.35,1.5-.86,1.64ZM36.97,12.82l.13.07.69-1.31.35-1.53,1.06-1,1.95-1.33-1.37-1.09-1.58-.16.18-1.69.76-1.42.24,2.39,1.02.33,2.01,2.55.21.2.71.21.56-.43.02-.16-.48-.09-1.46-.8.4-.74,1.39.8.47.06.11.06-.54-1.55.36-.36.9.34-.08-.14-1-1.62-.14-1.51-2.27-1.12-1.7.91.99-1.29-.08-.04-3.92-.36.13.59,1.51,1.79-.99,2.22.48,1.17,1.06.42-.33.75-1.44-.52-.74-1.83.91-2.06-.94-1.18-.83.74-.04,1.38.83,4.04.24,3.4.27.92ZM38.57,6.14l1.34.13.58.46-.3-.38-1.14-.37-.15-1.48-.21.39-.13,1.24ZM42.03,7.08l-2.52-1.96.06-1.13-.34-1.15,1.58.68-.15,1.47,1.38,2.09ZM39.87,4.96l.71.56-.29-.43.14-1.34-.67-.29.15.49-.05,1.01ZM43.06,5.48l-.75-.57-.48-.05-.96-1.91,2.01.18.78,1.38-.59.97ZM42.05,4.54l.39.04.52.4.29-.47-.59-1.05-1.21-.11.59,1.19Z"/>
      </g>
      <g>
        <polygon class="cls-1" points="34.78 5.67 35.46 2.96 35.51 2.96 35.46 4.46 36.29 8.53 36.53 11.93 36.82 12.94 35.61 11.87 35.56 9.16 34.78 5.67"/>
        <path class="cls-2" d="M37.15,13.46l-1.71-1.51-.05-2.79-.79-3.5v-.04s.73-2.84.73-2.84h.36l-.05,1.67.83,4.04.24,3.42.45,1.54ZM35.78,11.79l.71.63-.13-.44-.24-3.43-.83-4.06v-.17s-.34,1.36-.34,1.36l.78,3.45.05,2.67Z"/>
      </g>
      <g>
        <polygon class="cls-1" points="33.9 7.32 35.02 13.19 33.32 7.56 34.24 3.49 33.9 7.32"/>
        <path class="cls-2" d="M34.86,13.24l-1.72-5.67v-.04s.93-4.07.93-4.07l.34.05-.34,3.81,1.12,5.84-.33.08ZM33.5,7.55l.74,2.45-.51-2.67.12-1.31-.35,1.53Z"/>
      </g>
      <g>
        <path class="cls-1" d="M34.53,26.81l-.19.63-.92.19-.45-.19.49-.58-.39-.29-.83.68-.73.19-.68-1.02-.58-.48-.48-3.92.83.1-.98-.68-.29-2.33,1.46.15-1.56-.78-.09-.92-.83.29-2.44-1.4-.15-2.67-1.08,2.82,2.05,1.79-.78.25-1.31-.1-1.41-1.99,1.27-2.81.34-3.39-1.31,3.16-.44,1.64-1.31,1.26,1.12,1.99h-.64l-1.31-.68-.58-1.4.1-.98.29-2.9.04-.52.55.04.15,3.25,1.17-3.54,1.27-5.28,2.24.05-.34,3.54.73,2.81.35-3.69.09-2.71,1.95-.73.83,2.96.09,2.71.64,2.86-.35-6.01-.53-2.76h.05l1.61-1.07v1.31l.15,3.1.98,4.17-.78-6.35.68-2.81,3.22-.78-.68,2.71.78,3.49.05,2.71,1.21,1.07.35.18-.44.84-.49,1.35-1.21,1.12-1.66,6.1.1,2.09-.63-.29.05-2.81.39-2.43.68-.68-.58.15.29-1.75,1.18-2.13-.45-.24-.48.97-.58-.48-.15-3.78-.34,3.63.78,1.31-.29.57-.83,4.85-.05,3.15,1.85.88.24,1.26ZM33.9,7.32l.34-3.83-.92,4.07,1.71,5.63-1.12-5.87Z"/>
        <path class="cls-2" d="M33.4,27.81l-.71-.3.52-.62-.14-.1-.79.63-.85.22-.74-1.1-.62-.51-.52-4.21.37.04-.47-.33-.33-2.62.74.07-.8-.4-.08-.8-.7.25-2.59-1.49-.11-1.96-.74,1.95,2.19,1.91-1.11.35-1.43-.11-1.52-2.14.04-.09,1.26-2.78.22-2.21-.87,2.08-.44,1.67-1.25,1.2,1.2,2.13-1.01-.02-1.37-.7-.63-1.5.11-1.02.34-3.59.87.06.11,2.46.87-2.65,1.3-5.4,2.56.05-.35,3.69.48,1.83.26-2.71.09-2.81,2.24-.84.88,3.14.1,2.75.17.77-.22-3.9-.57-2.95h.2l1.83-1.22v1.64l.04.76.67-2.79,3.6-.87-.74,2.95.78,3.45.05,2.67,1.16,1.02.47.24-.52.99-.53,1.4-1.18,1.09-1.64,6.03.11,2.35-.99-.46.05-2.92.4-2.51.27-.27-.23.06.35-2.07,1.09-1.98-.14-.07-.5,1-.77-.64.61,1.04-.32.64-.83,4.83-.04,3.01,1.83.87.26,1.39-.23.77-1.07.22ZM33.25,27.37l.18.08.77-.16.15-.49-.21-1.13-1.87-.89.05-3.26.85-4.93.25-.49-.76-1.28v-.06s.34-3.63.34-3.63h.34s.14,3.71.14,3.71l.36.3.47-.93.76.4-1.25,2.26-.24,1.46.8-.2.49-1.8,1.22-1.13.48-1.31.37-.71-.19-.1-1.3-1.14-.05-2.79-.79-3.5v-.04s.62-2.43.62-2.43l-1.1.26.29.04-.34,3.81,1.12,5.84-.33.08-1.72-5.67v-.04s.93-4.05.93-4.05l-1.68.4-.64,2.68.77,6.32-.34.06-.98-4.17-.15-3.13v-1l-1.28.85.5,2.63.35,6.03-.34.05-.64-2.86-.1-2.74-.77-2.73-1.67.62-.09,2.59-.44,4.68-.98-3.79.32-3.39-1.91-.04-1.24,5.15-1.47,4.44-.18-4.03h-.22s-.02.33-.02.33l-.39,3.84.54,1.31,1.22.63h.3l-1.04-1.85,1.38-1.32.42-1.6,1.77-4.25-.47,4.6-1.23,2.72,1.31,1.84,1.2.09.46-.14-1.91-1.67,1.41-3.69.19,3.39,2.29,1.32.96-.34.1,1.05,2.32,1.15-2.18-.22.26,2.04,1.48,1.04-1.3-.16.45,3.64.56.48.62.92.57-.15.91-.75.65.48-.46.55ZM33.01,24.23l.27.12-.09-1.83v-.03s1.16-4.22,1.16-4.22l-.91.91-.38,2.37-.04,2.67ZM33.01,14.74l.13.23-.05-1.19-.09.96ZM33.5,7.55l.74,2.45-.51-2.67.12-1.31-.35,1.53ZM31.46,7.12l.08,1.59.25,1.06-.32-2.65Z"/>
      </g>
      <g>
        <polygon class="cls-1" points="17.77 12.12 19.97 8.43 18.75 12.65 17.48 14.78 17.77 12.12"/>
        <path class="cls-2" d="M17.22,15.56l.4-3.53,2.89-4.84-1.62,5.55-1.67,2.82ZM17.94,12.17l-.2,1.83.85-1.43.84-2.9-1.49,2.5Z"/>
      </g>
      <g>
        <path class="cls-1" d="M19.97,8.43l-2.2,3.69-.29,2.66,1.27-2.13,1.22-4.21ZM20.85,10.47l-1.41,4.75-.15,1.65-2.24-1.17-1.46.24-.05-.28.05-.1-.34-.92,1.26-5.53,1.41-2.81-.88-.09v-.19s.78-.05.78-.05l1.56.1-.88,1.01-1.91,3.25,1.85-1.7,1.61-2.52,1.27.05-.68.83-.24,2.33,1.61-3.16,1.71.1-1.27,2.56-1.17,3.11-.55-.04.11-1.42Z"/>
        <path class="cls-2" d="M19.44,17.14l-2.42-1.26-1.57.26-.08-.5.04-.08-.33-.9v-.05s1.27-5.53,1.27-5.53l1.32-2.63-.77-.08-.03-.51.96-.07,1.93.12-1.1,1.28-1.31,2.23.99-.91,1.65-2.58,1.72.06-.87,1.06-.14,1.35,1.24-2.43,2.08.12-1.38,2.8-1.21,3.22-.85-.06-.96,3.22-.16,1.87ZM17.07,15.52l2.07,1.07.12-1.39,1.88-6.34-.22,2.87.24.02,1.12-2.99,1.16-2.35-1.33-.08-1.98,3.88.28-2.7-1.52,5.23-1.67,2.82.4-3.53,2.82-4.72.04-.4.5-.6-.82-.03-1.58,2.47-2.29,2.1-.86,3.77.34.94-.05.12v.06s1.36-.22,1.36-.22ZM17.94,12.17l-.2,1.83.85-1.43.84-2.9-1.49,2.5ZM18.18,6.16l-1.53,3.03-.26,1.14,1.96-3.34.67-.78-.85-.05Z"/>
      </g>
      <g>
        <polygon class="cls-1" points="15.54 15.66 14.5 14.2 15.83 9.06 17.04 6.21 17.92 6.3 16.5 9.11 15.24 14.64 15.58 15.56 15.54 15.66"/>
        <path class="cls-2" d="M15.57,16l-1.25-1.77.02-.08,1.32-5.14,1.27-3,1.25.13-1.53,3.03-1.23,5.44.34.94-.2.44ZM14.69,14.16l.41.57-.03-.09v-.05s1.27-5.53,1.27-5.53l1.32-2.63-.5-.05-1.16,2.74-1.3,5.03Z"/>
      </g>
      <g>
        <polygon class="cls-1" points="17.04 6.21 15.83 9.06 14.5 14.2 15.54 15.66 15.58 15.94 13.44 16.29 13.29 14.88 13.44 13.72 14.22 7.85 15.58 6.11 17.03 6.02 17.04 6.21"/>
        <path class="cls-2" d="M13.28,16.49l-.16-1.59.15-1.21.79-5.91,1.43-1.84,1.7-.11.02.41-1.23,2.89-1.3,5.03,1.01,1.47.07.45-2.49.4ZM14.39,7.92l-.92,6.99.13,1.18,1.79-.29v-.07s-1.07-1.49-1.07-1.49l.02-.08,1.32-5.14,1.2-2.82-1.19.07-1.28,1.64Z"/>
      </g>
      <g>
        <polygon class="cls-1" points="13.83 7.61 13 13.67 12.9 14.34 13.29 16.23 13.25 16.23 11.91 17.67 11.83 17.59 10.37 12.26 11.92 6.64 11.9 6.35 12.9 6.3 12.56 9.69 13.48 6.25 15.1 6.15 13.83 7.61"/>
        <path class="cls-2" d="M11.93,17.91l-.25-.22-1.49-5.42,1.56-5.65-.03-.43,1.37-.08-.15,1.49.41-1.51,2.15-.13-1.51,1.73-.92,6.65.43,2.07h-.18l-1.4,1.5ZM10.55,12.26l1.4,5.11,1.15-1.23-.37-1.79.11-.71.84-6.11,1.03-1.19-1.08.07-.89,3.32-.34-.06.32-3.19-.62.03v.14s-1.54,5.61-1.54,5.61Z"/>
      </g>
      <g>
        <polygon class="cls-1" points="10.08 10.42 11.92 6.64 10.37 12.26 11.83 17.59 11.05 15.6 9.88 12.6 10.08 10.42"/>
        <path class="cls-2" d="M11.67,17.66l-1.97-5.03.22-2.28,1.84-3.79.32.12-1.54,5.58,1.45,5.28-.33.11ZM10.05,12.58l.76,1.94-.62-2.25,1.07-3.87-1.01,2.08-.19,2.11Z"/>
      </g>
      <g>
        <polygon class="cls-1" points="14.61 25.84 14.41 26.71 13.92 26.81 13.98 26.32 13.48 26.27 13.44 26.85 11.39 26.41 9.73 23.81 9.3 21.96 9.69 20.65 11.39 19.2 11.72 18.86 11.73 18.86 13.88 19.05 12.81 20.56 11.25 20.27 12.46 21.04 11.44 22.49 11.34 23.75 12.52 25.74 13.39 25.49 14.61 25.84"/>
        <path class="cls-2" d="M13.59,27.06l-2.31-.49-1.72-2.72-.45-1.89v-.04s.42-1.36.42-1.36l1.75-1.48.37-.38h.07l2.47.22-1.31,1.84-.8-.15.62.39-1.1,1.56-.09,1.16,1.08,1.83.8-.22,1.42.41-.25,1.14-.84.17.06-.55-.14-.02-.05.6ZM11.5,26.26l1.78.38.04-.57.84.09-.05.42.15-.03.13-.6-1.01-.29-.96.27-1.27-2.15.11-1.36.95-1.34-1.59-1.01-.79.67-.37,1.22.42,1.77,1.61,2.52ZM10.73,19.99l2,.38.83-1.17-1.77-.16-.27.28-.79.67Z"/>
      </g>
      <g>
        <polygon class="cls-1" points="8.32 12.6 8.27 10.95 7.64 11.53 7.11 10.95 6.86 9.88 7.5 8.29 9.78 7.07 9.35 7.9 9.1 10.32 11 6.44 11.1 6.4 11.9 6.35 11.92 6.64 10.08 10.42 9.88 12.6 11.05 15.6 11.83 17.59 11.91 17.67 10.9 18.76 10.61 19 10.17 18.32 9.83 17.79 9.15 16.73 9.54 18.81 9.69 19.73 9.2 20.36 8.47 20.99 7.88 20.94 6.38 20.31 6.13 20.17 5.88 20.06 5.5 19.92 6.23 19.29 6.71 18.91 6.81 18.42 7.79 18.51 9.15 19.68 8.37 17.59 7.11 17.45 8.32 12.6"/>
        <path class="cls-2" d="M8.52,21.16l-.71-.06-1.51-.63-.27-.16-.87-.34.95-.82.44-.35.12-.57,1.18.11.9.77-.51-1.36-1.36-.16,1.25-5.01-.03-1.25-.48.44-.69-.74-.27-1.17.68-1.71,2.83-1.5-.67,1.29-.15,1.42,1.5-3.06.22-.09.97-.05.03.5-.02.04-1.83,3.76-.19,2.11,1.92,4.91.18.16-1.13,1.22-.46.38-1.08-1.68.23,1.21.16,1-.34.43v.04s-.01-.02-.01-.02l-.19.24-.81.7ZM7.92,20.77l.48.04.68-.58.17-.23-1.54-1.32-.77-.07-.08.39-.53.42-.5.44.36.15.27.16,1.46.61ZM7.32,17.3l1.18.14.89,2.4.12-.15-.13-.85-.56-2.95,1.83,2.86.14-.12.88-.96h0s-1.97-5.04-1.97-5.04l.22-2.28,1.82-3.74v-.07s-.62.04-.62.04l-2.3,4.69.36-3.44.17-.34-1.74.92-.6,1.49.22.97.39.42.78-.73.06,2.06-1.17,4.68Z"/>
      </g>
      <g>
        <polygon class="cls-1" points="4.86 26.62 4.03 21.13 4.96 20.36 5.5 19.92 6.28 20.56 7.25 21.33 8.42 21.04 6.13 23.08 6.61 26.08 8.96 25.79 8.96 26.95 8.47 27 8.52 26.37 8.03 26.32 7.98 27.04 5.45 27.24 4.86 26.62"/>
        <path class="cls-2" d="M5.38,27.42l-.68-.73v-.05s-.85-5.58-.85-5.58l1.65-1.37,1.79,1.45,1.77-.44-2.74,2.44.44,2.74,2.37-.3v1.52l-.85.08.06-.66h-.14s-.04.68-.04.68l-2.77.22ZM5.02,26.54l.49.53,2.3-.18.05-.75.84.08-.05.59h.13v-.83l-2.32.29-.53-3.26,1.83-1.63-.57.14-1.71-1.38-1.28,1.06.81,5.33Z"/>
      </g>
      <g>
        <polygon class="cls-1" points="6.13 18.76 3.55 20.94 3.51 20.9 4.82 19.64 5.5 13.48 6.47 10.95 6.57 11.53 7.64 11.64 6.81 14.25 5.84 13.91 6.28 14.64 6.71 14.97 6.13 18.76"/>
        <path class="cls-2" d="M3.54,21.17l-.27-.27,1.39-1.35.69-6.14,1.19-3.12.18,1.07,1.16.11-.95,2.99-.69-.25.17.29.49.38-.61,3.95-2.75,2.32ZM5.63,13.89l-.62,5.59.96-.81.56-3.62-.4-.32-.5-.83ZM5.65,13.66l1.05.37.71-2.24-1-.09-.02-.09-.73,1.92-.02.14Z"/>
      </g>
      <g>
        <polygon class="cls-1" points="1.26 20.94 2.48 21.91 3.51 20.9 3.55 20.94 3.74 22.3 2.53 22.93 .72 21.28 .92 19.44 2.13 18.76 2.38 19.2 1.36 19.87 1.26 20.94"/>
        <path class="cls-2" d="M2.5,23.14l-1.96-1.79.22-2.02,1.44-.8.41.73-1.09.72-.08.89,1.03.81,1.04-1.02.2.2.22,1.54-1.43.74ZM.9,21.21l1.65,1.51,1-.52-.14-.96-.92.9-1.42-1.12.12-1.24.96-.63-.08-.15-.98.55-.18,1.67Z"/>
      </g>
      <g>
        <path class="cls-1" d="M44.81,7.22h.15l.29-.34-.38-.05-.25-.1.19.48ZM7.3,14.39l-.19,1.07.68-2.71-.49,1.64ZM34.48,25.11l.25,1.4.68.15.09-.82-.98-.92-.78-.15.73.34ZM33.9,15.41l.48-.97.45.24-1.18,2.13-.29,1.75.58-.15-.68.68-.39,2.43-.05,2.81.63.29-.1-2.09,1.66-6.1,1.21-1.12.49-1.35.44-.84.78-1.49.35-1.51,1.02-.97,2-1.36,1.21,1.16.83.25.68-.53.05-.39-.58-.1-1.31-.72.24-.44,1.27.73.44.05.44.24.16-.28h-.2l-.54-1.55.2-.2.92.35.29.05-.29-.48-.98-1.55-.15-1.61-2.44-1.2-1.07.57.63-.82-.29-.15-4.19-.38.19.87,1.47,1.74-.98,2.19.54,1.3.97.38-.19.44-1.21-.44-.68-1.69.92-2.09-1.12-1.4-.88.82-.15.05h-.05l-3.22.78-.68,2.81.78,6.35-.98-4.17-.15-3.1v-1.31l-1.61,1.07h-.05l.53,2.76.35,6.01-.64-2.86-.09-2.71-.83-2.96-1.95.73-.09,2.71-.35,3.69-.73-2.81.34-3.54-2.24-.05-1.27,5.28-1.17,3.54-.15-3.25,1.17-3.11,1.27-2.56-1.71-.1-1.61,3.16.24-2.33.68-.83-1.27-.05-1.61,2.52-1.85,1.7,1.91-3.25.88-1.01-1.56-.1-.79.05-1.45.09-1.36,1.74-.78,5.87-.15,1.17.15,1.4,2.14-.35,1.46-.24,2.24,1.17.15-1.65,1.41-4.75-.11,1.42-.04.52-.29,2.9-.1.98.58,1.4,1.31.68h.64l-1.12-1.99,1.31-1.26.44-1.64,1.31-3.16-.34,3.39-1.27,2.81,1.41,1.99,1.31.1.78-.25-2.05-1.79,1.08-2.82.15,2.67,2.44,1.4.83-.29.09.92,1.56.78-1.46-.15.29,2.33.98.68-.83-.1.48,3.92.58.48.68,1.02.73-.19.83-.68.39.29-.49.58.45.19.92-.19.19-.63-.24-1.26-1.85-.88.05-3.15.83-4.85.29-.57-.78-1.31.34-3.63.15,3.78.58.48ZM4.96,20.36l-.93.78.83,5.48.58.63,2.54-.2.05-.72.49.05-.05.63.49-.05v-1.17l-2.34.29-.48-3,2.29-2.03-1.17.29-.98-.78-.78-.64.38.15.25.1.25.15,1.51.63.58.05.73-.63.49-.63-.15-.92-.39-2.08.68,1.07.34.53.44.68.29-.24,1.01-1.09,1.33-1.43h.05l-.39-1.89.1-.68.83-6.06,1.27-1.46-1.61.1-.92,3.44.34-3.39-.99.05-.8.05-.1.05-1.9,3.88.25-2.42.43-.83-2.28,1.21-.64,1.6.25,1.07.54.58.63-.58.05,1.65-1.21,4.84,1.27.15.78,2.09-1.36-1.17-.98-.09-.1.48-.48.38-.73.63-.54.44ZM14.61,18.03l.68-1.51-1.65.25-1.92,2.08h0s-.33.35-.33.35l-1.71,1.45-.39,1.31.44,1.84,1.66,2.61,2.04.44.05-.58.49.05-.05.48.49-.1.19-.87-1.21-.35-.88.25-1.18-1.99.1-1.26,1.02-1.45-1.21-.78,1.56.29,1.07-1.51-2.14-.19,1.81-.44.92-.2.15-.19ZM2.96,19.29l-1.17.83-.05.57.68.54,1.9-1.84.68-6.06,2.1-5.34,3.94-2.08,6.78-.39,8.67.48,2.93-1.07,2.48-1.6,3.51-.88.88-.82-.29-1.45,4.96.48,3.46,1.74.2,1.8,1.51,2.47-.82.87-.44,1.12-.3-.1-.05.38-1.07.83-1.22-.39-.98-.92-1.65,1.11-.93.83-.34,1.45-1.22,2.33-.53,1.4-1.22,1.12-1.65,5.96.09,1.75.93.09,1.27,1.21-.15,1.6-1.12-.19-.25.73-1.36.29-.83-.35-1.08.25-.88-1.26-.68-.54-1.02-7.99-2.77.92-3.9-.29-5.12-2.62-1.17.19-.73,1.89-3.17,4.37-.09.97.88,1.55.63-.19,1.71.48-.15,1.64-1.17.25-2.58-.53-1.85-2.91-.48-2.03v-.05l.19-.63-2.29,1.99.39,2.28,2.44-.29v2.13l-4.19.34-.83-.92-.58-4.02-1.37.73L.18,21.47l.25-2.37,1.85-1.02.68,1.21ZM.72,21.28l1.81,1.65,1.21-.63-.19-1.36,2.58-2.18.58-3.79-.44-.34-.44-.73.98.35.83-2.62-1.08-.1-.1-.58-.97,2.53-.68,6.16-1.3,1.27-1.03,1-1.22-.97.1-1.07,1.02-.68-.25-.44-1.21.68-.2,1.84Z"/>
        <path class="cls-2" d="M33.11,28.35l-.83-.35-1.14.26-.93-1.33-.72-.57v-.07s-1-7.78-1-7.78l-2.61.87h-.03s-3.96-.31-3.96-.31l-5.07-2.59-1.01.17-.72,1.84-3.15,4.33-.08.87.78,1.38.55-.17,1.89.54-.17,1.91-1.33.28-2.69-.55-1.91-3.02-.49-2.15.02-.08-1.76,1.53.35,2.02,2.47-.3v2.49l-4.43.36-.92-1.02v-.05s-.56-3.78-.56-3.78l-1.26.67-2.4-2.18.27-2.55,2.08-1.15.84,1.5-1.23.87-.04.4.49.39,1.74-1.69.69-6.04,2.12-5.4.06-.03,4.01-2.1,6.78-.39,8.65.48,2.9-1.06,2.5-1.6,3.47-.86.77-.72-.32-1.58,5.26.52,3.54,1.78.21,1.85,1.55,2.55-.89.94-.49,1.24-.26-.09-.03.24-1.2.93-1.38-.46-.88-.83-1.54,1.04-.87.78-.34,1.44-1.22,2.33-.57,1.45-1.19,1.09-1.63,5.88.08,1.57.84.08,1.37,1.31-.17,1.86-1.16-.2-.23.68-1.51.32ZM32.31,27.64l.83.35,1.21-.26.04-.12-1,.21-.71-.3.52-.62-.14-.1-.79.63-.85.22-.74-1.1-.62-.51-.52-4.21.37.04-.47-.33-.33-2.62.74.07-.8-.4-.08-.8-.7.25-2.59-1.49-.11-1.96-.74,1.95,2.19,1.91-1.11.35-1.43-.11-1.52-2.14.04-.09,1.26-2.78.22-2.21-.87,2.08-.44,1.67-1.25,1.2,1.2,2.13-1.01-.02-1.37-.7-.63-1.5.11-1.02.32-3.23-.95,3.21-.16,1.87-2.42-1.26-3.73.6v-.04s-2.23,2.4-2.23,2.4l.56-.14,1.94-2.1,2.03-.3h0s1.31-.2,1.31-.2l5.14,2.63,3.83.29,2.94-.98,1.04,8.13.66.53.81,1.16,1.02-.23ZM4.54,26.73l.74.82,3.94-.32v-1.78l-2.41.29-.44-2.54,2.82-2.45-.36,1.21.47,1.97,1.8,2.82,2.47.51,1.01-.21.05-.57-.08.38-.84.17.06-.55-.14-.02-.05.6-2.31-.49-1.72-2.72-.45-1.89v-.04s.42-1.36.42-1.36l1.81-1.55-.42-.04-.36.29-1.08-1.68.23,1.21.16,1-.34.43v.04s-.01-.02-.01-.02l-.19.24-.28.24h0s-2.74,2.44-2.74,2.44l.44,2.74,2.37-.3v1.52l-.85.08.06-.66h-.14s-.04.68-.04.68l-2.77.22-.68-.73v-.05s-.85-5.58-.85-5.58l1.38-1.14-.1-.08-1.39,1.18.2,1.39-1.43.74-1.96-1.79.22-2.02,1.44-.8.41.73-1.09.72-.08.89,1.03.81,2.18-2.12v-.1s-.07-.07-.07-.07l.09.03.67-6,1.19-3.12.18,1.07.6.06-.37-.4-.27-1.17.68-1.71,2.83-1.5-.67,1.29-.15,1.42,1.5-3.06.22-.09,2-.11-.15,1.49.41-1.51,4.47-.3,1.93.12-1.1,1.28-1.31,2.23.99-.91,1.65-2.58,1.72.06-.87,1.06-.14,1.35,1.24-2.43,2.08.12-.04.09,2.34.05-.35,3.69.48,1.83.26-2.71.09-2.81,2.24-.84.88,3.14.1,2.75.17.77-.22-3.9-.57-2.95h.2l1.83-1.22v1.64l.04.76.67-2.79,3.46-.84.99-.93,1.3,1.63-.93,2.12.63,1.55.99.36.05-.13-.87-.34-.59-1.44.96-2.16-1.44-1.73-.24-1.1,4.48.42.48.24-.27.35.44-.24,2.6,1.29.15,1.66,1.44,2.32-.66-.1-.85-.32-.05.05.46,1.33h.37l-.38.69-.56-.3-.47-.06-1.11-.64-.07.13,1.14.62.72.12-.07.63-.81.63-.99-.31-1.11-1.06-1.88,1.28-.96.91-.35,1.5-1.21,2.33-.53,1.4-1.18,1.09-1.64,6.03v.09s0,0,0,0l1.66-6.01,1.23-1.13.51-1.37,1.22-2.33.34-1.48.97-.87,1.78-1.21,1.05.99,1.1.35.94-.73.06-.52.35.12.41-1.02.73-.77-1.46-2.43-.19-1.7-3.35-1.69-4.7-.46.27,1.32-.98.92-3.53.88-2.46,1.58-3,1.1-8.7-.49-6.72.39-3.85,2.03-2.07,5.26-.69,6.1-2.05,1.99-.88-.69.07-.75,1.11-.79-.52-.93-1.62.9-.23,2.2,2.09,1.9,1.48-.79.61,4.21ZM33.25,27.37l.18.08.77-.16.15-.49-.21-1.13-1.87-.89.05-3.26.85-4.93.25-.49-.76-1.28v-.06s.34-3.63.34-3.63h.34s.14,3.71.14,3.71l.36.3.47-.93.76.4-1.25,2.26-.24,1.46.8-.2.49-1.8,1.22-1.13.48-1.31,1.21-2.33.35-1.53,1.06-1,2.13-1.46,1.28,1.23.71.21.56-.43.02-.16-.48-.09-1.46-.8.4-.74,1.39.8.47.06.11.06-.54-1.55.36-.36.9.34-.08-.14-1-1.62-.14-1.51-2.27-1.12-1.7.91.99-1.29-.08-.04-3.92-.36.13.59,1.51,1.79-.99,2.22.48,1.17,1.06.42-.33.75-1.44-.52-.74-1.83.91-2.06-.94-1.18-.8.73-.25.07-3.08.75-.64,2.68.77,6.32-.34.06-.98-4.17-.15-3.13v-1l-1.28.85.5,2.63.35,6.03-.34.05-.64-2.86-.1-2.74-.77-2.73-1.67.62-.09,2.59-.44,4.68-.98-3.79.32-3.39-1.91-.04-1.24,5.15-1.47,4.44-.19-4.22,1.18-3.14,1.16-2.35-1.33-.08-1.98,3.88.34-3.3.5-.6-.82-.03-1.58,2.47-2.7,2.47,2.49-4.24.67-.78-1.21-.08-2.14.14-1.28,1.64-.92,6.99.13,1.18,3.48-.56,2.07,1.07.12-1.39,1.88-6.34-.27,3.56-.39,3.84.54,1.31,1.22.63h.3l-1.04-1.85,1.38-1.32.42-1.6,1.77-4.25-.47,4.6-1.23,2.72,1.31,1.84,1.2.09.46-.14-1.91-1.67,1.41-3.69.19,3.39,2.29,1.32.96-.34.1,1.05,2.32,1.15-2.18-.22.26,2.04,1.48,1.04-1.3-.16.45,3.64.56.48.62.92.57-.15.91-.75.65.48-.46.55ZM34.67,26.96l1.03.18.12-1.33-1.17-1.11-.82-.08.78.15,1.08,1.02-.12,1.1-.88-.19.03.14-.04.14ZM5.02,26.54l.49.53,2.3-.18.05-.75.84.08-.05.59h.13v-.83l-2.32.29-.53-3.26,1.83-1.63-.57.14-1.71-1.38-1.28,1.06.81,5.33ZM11.5,26.26l1.78.38.04-.57.84.09-.05.42.15-.03.13-.6-1.01-.29-.96.27-1.27-2.15.11-1.36.95-1.34-1.59-1.01-.79.67-.37,1.22.42,1.77,1.61,2.52ZM34.88,26.37l.38.08.06-.55-.63-.6.19,1.06ZM13.39,25.31l1.32.38v-.02s-1.52-.43-1.52-.43l-.65.2.06.09.8-.22ZM32.62,24.56l1.74.82-.03-.16-1.71-.79v.13ZM33.63,24.57h0l-.02-.32.02.32ZM32.62,24.38h.04s.05-2.86.05-2.86l.4-2.51.27-.27-.23.06.35-2.07,1.09-1.98-.14-.07-.5,1-.77-.64.61,1.04-.32.64-.83,4.83-.04,2.83ZM33.01,24.23l.27.12-.09-1.83v-.03s1.16-4.22,1.16-4.22l-.91.91-.38,2.37-.04,2.67ZM11.61,22.55l-.07.91.07-.79,3.19-4.39.68-1.76-.73,1.61-.18.24-1.77.4,1.4.13-1.31,1.84-.8-.15.62.39-1.1,1.56ZM.9,21.21l1.65,1.51,1-.52-.14-.96-.92.9-1.42-1.12.12-1.24.96-.63-.08-.15-.98.55-.18,1.67ZM6.59,20.59l.7.56.39-.1-1.09-.46ZM7.92,20.77l.48.04.68-.58.17-.23-1.54-1.32-.77-.07-.08.39-.53.42-.5.44.36.15.27.16,1.46.61ZM10.73,19.99l2,.38.83-1.17-1.77-.16-.27.28-.79.67ZM7.32,17.3l1.18.14.89,2.4.12-.15-.13-.85-.56-2.95,1.83,2.86.14-.12,2.3-2.49-.37-1.79.11-.71.84-6.11,1.03-1.19-1.08.07-.89,3.32-.34-.06.32-3.19-1.58.09-2.3,4.69.36-3.44.17-.34-1.74.92-.6,1.49.22.97.39.42.78-.73.06,2.06-1.17,4.68ZM5.32,19.67l.14.05.65-.56.44-.35.12-.57,1.18.11.9.77-.51-1.36-1.36-.16,1.25-5.01-.03-1.25-.27.25-.92,2.89-.69-.25.17.29.49.38-.61,3.95-.97.82ZM5.63,13.89l-.62,5.59.96-.81.56-3.62-.4-.32-.5-.83ZM13.72,16.93l-1.5,1.63,2.14-.5.1-.13.54-1.2-1.28.19ZM33.01,14.74l.13.23-.05-1.19-.09.96ZM13.07,14.34l.07.34.12-.99.79-5.91,1.27-1.63-1.34,1.54-.92,6.65ZM21.46,11.95l.1,2.27.87-2.65,1.09-4.54-.92,1.85-1.15,3.06ZM5.65,13.66l1.05.37.71-2.24-1-.09-.02-.09-.73,1.92-.02.14ZM31.46,7.12l.08,1.59.25,1.06-.32-2.65ZM7.27,15.5l-.34-.07.2-1.09.49-1.64.33.09-.68,2.71ZM45.04,7.39h-.34l-.38-.97.6.24.68.08-.56.64Z"/>
      </g>
    </g>
  </g>
</svg>