<?xml version="1.0" encoding="UTF-8"?>
<svg id="Layer_2" data-name="Layer 2" xmlns="http://www.w3.org/2000/svg" viewBox="0 0 25.51 17.01">
  <defs>
    <style>
      .cls-1 {
        fill: #263678;
      }

      .cls-2 {
        fill: #ffc829;
      }

      .cls-3 {
        fill: #010101;
      }
    </style>
  </defs>
  <g id="Layer_1-2" data-name="Layer 1">
    <g>
      <path class="cls-1" d="M0,0h25.51v17.01H0V0Z"/>
      <path class="cls-2" d="M8.55,0h8.5v17.01h-8.5V0Z"/>
      <path id="A" class="cls-3" d="M12.8,4.38c-.28.75-.56,1.54-1.16,2.14.19-.06.51-.12.72-.11v3.17l-.9.13s-.04-.05-.04-.12c-.09-.98-.32-1.81-.59-2.67-.02-.12-.36-.56-.1-.48.03,0,.38.15.33.08-.48-.49-1.17-.85-1.85-.95-.06-.01-.09.01-.04.08.9,1.38,1.65,3.01,1.64,4.94.35,0,1.19-.21,1.54-.21v2.24h.44l.1-6.25-.11-1.99Z"/>
      <path id="A-2" data-name="A" class="cls-3" d="M12.8,4.38c.28.75.56,1.54,1.16,2.14-.19-.06-.51-.12-.72-.11v3.17l.9.13s.04-.05.04-.12c.09-.98.32-1.81.59-2.67.02-.12.36-.56.1-.48-.03,0-.38.15-.33.08.48-.49,1.17-.85,1.85-.95.06-.01.09.01.04.08-.9,1.38-1.65,3.01-1.64,4.94-.35,0-1.19-.21-1.54-.21v2.24h-.44l-.1-6.25.11-1.99Z"/>
    </g>
  </g>
</svg>