<?xml version="1.0" encoding="UTF-8"?>
<svg id="Layer_2" data-name="Layer 2" xmlns="http://www.w3.org/2000/svg" viewBox="0 0 34.02 17.01">
  <defs>
    <style>
      .cls-1 {
        stroke-linejoin: round;
        stroke-width: .03px;
      }

      .cls-1, .cls-2, .cls-3, .cls-4, .cls-5, .cls-6, .cls-7, .cls-8, .cls-9, .cls-10, .cls-11 {
        stroke: #010101;
      }

      .cls-1, .cls-12 {
        fill: #c8202f;
      }

      .cls-2, .cls-4, .cls-5, .cls-9, .cls-10, .cls-13 {
        stroke-width: .02px;
      }

      .cls-2, .cls-13 {
        fill: #66b4d2;
      }

      .cls-3 {
        stroke-width: .01px;
      }

      .cls-3, .cls-4, .cls-14 {
        fill: #794523;
      }

      .cls-15 {
        fill: #222d65;
      }

      .cls-5, .cls-6, .cls-16, .cls-17 {
        stroke-miterlimit: 10;
      }

      .cls-5, .cls-6, .cls-7, .cls-9, .cls-11, .cls-17 {
        fill: none;
      }

      .cls-18, .cls-16 {
        fill: #fff;
      }

      .cls-6, .cls-16, .cls-7, .cls-8, .cls-17 {
        stroke-width: .03px;
      }

      .cls-16, .cls-13, .cls-17 {
        stroke: #222d65;
      }

      .cls-7, .cls-8, .cls-9, .cls-10, .cls-13 {
        stroke-miterlimit: 2.61;
      }

      .cls-8 {
        fill: #f5ce11;
      }

      .cls-10 {
        fill: #e4cb5d;
      }

      .cls-11 {
        stroke-width: .07px;
      }

      .cls-19 {
        fill: #329044;
      }

      .cls-20 {
        fill: #010101;
      }
    </style>
  </defs>
  <g id="Layer_1-2" data-name="Layer 1">
    <g>
      <path class="cls-12" d="M0,0h34.02v17.01H0V0Z"/>
      <path class="cls-15" d="M0,0h17.01v8.5H0V0Z"/>
      <g>
        <path class="cls-18" d="M0,0v.95l15.11,7.55h1.9v-.95L1.9,0H0ZM17.01,0v.95L1.9,8.5H0v-.95L15.11,0h1.9Z"/>
        <path class="cls-18" d="M7.09,0v8.5h2.83V0h-2.83ZM0,2.83v2.83h17.01v-2.83H0Z"/>
        <g>
          <path class="cls-12" d="M0,3.4v1.7h17.01v-1.7H0ZM7.65,0v8.5h1.7V0h-1.7Z"/>
          <path class="cls-12" d="M0,8.5l5.67-2.83h1.27l-5.67,2.83H0ZM0,0l5.67,2.83h-1.27L0,.63v-.63ZM10.07,2.83L15.74,0h1.27l-5.67,2.83h-1.27ZM17.01,8.5l-5.67-2.83h1.27l4.4,2.2v.63Z"/>
        </g>
      </g>
      <path class="cls-18" d="M29.44,3.63v7.2c0,1.92-3.85,2.55-3.85,2.55,0,0-3.85-.63-3.85-2.55V3.63h7.69Z"/>
      <path class="cls-19" d="M29.44,10.83c0,1.92-3.85,2.55-3.85,2.55,0,0-3.85-.63-3.85-2.55,0,0,0-.15.08-.24,0,0-.04.32.2.56,0,0-.19-.34,0-.68,0,0-.07.43.2.68,0,0-.15-.35.02-.75,0,0-.08.64.21.77,0,0,.08-.37-.04-.61,0,0,.2.08.19.62,0,0,.06-.08.08-.47,0,0,0,.44.16.54,0,0,.05-.04-.02-.25s.03-.27.04-.27c0,0-.03.22.15.39,0,0-.08-.35.03-.4,0,0-.02.29.21.36,0,0,.02-.09-.03-.18,0,0-.04-.11-.01-.2,0,0,.07.27.18.31,0,0-.06-.16,0-.31,0,0,.01.22.21.31,0,0-.13-.17-.08-.36l1.28.06.66.03,1.99-.14.34-.29s.14.19-.08.49c0,0,.21-.04.28-.37,0,0,.09.18-.03.39,0,0,.24-.24.27-.5,0,0,.09.26-.13.54,0,0,.2-.07.28-.36,0,0,.07.18-.13.43,0,0,.36-.19.35-.59,0,0,.15.22-.02.52,0,0,.18-.16.2-.41,0,0,.1.11,0,.42,0,0,.22-.21.26-.44,0,0,.05.21-.14.48,0,0,.13-.03.26-.29,0,0,.03.1-.08.29,0,0,.12-.02.21-.26,0,0,.01.14-.02.27,0,0,.1-.06.12-.33,0,0,.05.09.05.2,0,.11,0,.04,0,.04h0Z"/>
      <g>
        <path class="cls-1" d="M27.46,6.67s-.13.02-.31-.03c-.17-.05-.24-.03-.29,0,0,0,.07-.14-.1-.25,0,0,.06.14-.02.2,0,0-.03.03-.07-.02,0,0-.06-.06-.12-.11,0,0,.14-.05.12-.2s-.1-.17-.15-.18c0,0,.01.07,0,.11,0,0-.16-.09.06-.21s.17-.2.14-.26c-.04-.06-.12-.13-.16-.16,0,0,.04.07.03.12s-.1.09-.08,0c.02-.1,0-.08,0-.19,0,0,.19.06.26-.12,0,0,.07-.19-.17-.29,0,0,.06.08.03.14,0,0-.05.1-.11.02s-.1-.09-.09-.18c0,0,.22.03.16-.21,0,0-.03.16-.32-.05,0,0,.18-.19.11-.34,0,0-.02-.07-.22-.03,0,0,.17-.11.1-.2,0,0-.04-.06-.2.02,0,0,.06-.11-.1-.22,0,0-.11.06-.16.11,0,0-.11-.14-.18-.19,0,0-.13.05-.16.19,0,0-.06-.07-.19-.1,0,0-.06.12.02.22,0,0-.06,0-.17-.05,0,0-.13-.06-.11.05s.03.13.05.19c0,0-.29-.07-.28.09,0,.11.05.2.14.28,0,0-.16.21-.3.05,0,0-.05.05.06.19,0,0,.1.11.02.18,0,0-.11.09-.17-.09,0,0-.18.18.03.32,0,0,.14.08.28-.04,0,0-.04.35-.18.28,0,0-.08-.06.06-.13,0,0-.21-.03-.24.18,0,0-.03.16.16.22,0,0,.14.05,0,.16,0,0-.1.08-.04.2,0,0,.08.13-.13.14,0,0-.11,0-.15-.02,0,0-.05.08-.01.18,0,0-.1-.08-.34,0-.23.08-.22.03-.24.05s-.06.11-.06.11c0,0,.12.15.13.15s-.02.17-.02.17l.06.03.48-.21.49-.26.39.02.25.06.33.02.23-.13h.34l.37.19.43.25.22.04h.17v-.35l-.08-.13Z"/>
        <path class="cls-1" d="M23.57,7.07s.19.1.26-.02c0,0,.1-.19-.12-.26,0,0,.12-.15,0-.28,0,0-.07-.07-.19-.02,0,0-.05-.1-.17-.1,0,0-.1,0-.14.11,0,0-.14-.06-.22.03,0,0-.13.14.05.26h.13s.13-.05.13-.05l.14.04s-.04.14.12.29h0Z"/>
        <path class="cls-2" d="M27.74,6.73c.22-.02.3.17.3.17.12.28-.13.42-.13.42.02.06.02.14.02.14.35.04.29.44.29.44l-.12-.1c-.2-.08-.41.09-.56.38s-.08.43-.05.77c.03.34.58.55.58.55,0,0-.26.68-.44,1.12s-.53.26-.63.16c-.1-.09-.13-.04-.18,0s.24.27-.29.48-.61.37-.7.43-.45.02-.49-.03c-.04-.04-.01-.04-.15-.13-.14-.08-.36-.16-.61-.28-.25-.12-.24-.28-.24-.31,0-.03.09-.29-.21-.09s-.54-.1-.54-.1c-.06-.08-.3-.73-.3-.73-.07-.24-.19-.53-.19-.53,0,0-.01.03.2-.09s.31-.33.39-.53,0-.55-.03-.62c-.03-.07-.19-.39-.39-.46s-.33.1-.33.1c0,0-.06-.4.29-.44,0,0,0-.08.02-.14,0,0-.25-.15-.13-.42,0,0,.08-.19.3-.17l-.05.1s-.06.56.77.19.8-.45,1.27-.21h.34s.5-.24.65-.14c.16.1.73.42.73.42,0,0,.55.21.66-.18l-.06-.18Z"/>
      </g>
      <path class="cls-16" d="M25.25,9.18s-.03-.17-.06-.29c0,0-.06-.18.04-.3l.13-.15s.08-.11.18-.12c0,0,.1,0,.11-.02s.12-.2.38,0c0,0,.08-.13.21-.15,0,0,.14-.04.2.06,0,0,.15-.12.29.07,0,0,.18-.1.32.1,0,0,.18-.09.29.1s.09.27.09.27l.08.3.29.36-.68.26h-.31l-.61.16-1.08.08-.3-.36.43-.37Z"/>
      <g>
        <path class="cls-1" d="M24.33,10.98s-.16,0-.24.05-.15.09-.24.15c0,0-.04.06-.23.02,0,0-.32-.08-.32.18,0,0-.39.03-.23.37,0,0,.11.27.33.08,0,0-.14.21.13.29,0,0,.2.05.25-.15,0,0,.03-.08-.04-.18,0,0,.1-.02.16-.12,0,0-.2.26.02.35,0,0,.28.07.3-.22,0,0-.02-.13.09-.18,0,0,.22-.05.32-.3,0,0-.32-.17-.29-.32h0Z"/>
        <path class="cls-1" d="M23.68,8.42s-.25-.12-.37,0c0,0-.17-.1-.34,0,0,0-.17.11-.28.23,0,0-.08.07-.05.29,0,0,.04.15.02.23,0,0-.06-.01-.17.12,0,0-.14.16-.26.02,0,0,.04.2.27.17,0,0-.11.09-.01.31,0,0,.07.16-.04.36,0,0,.2-.08.19-.32,0,0-.02-.16.04-.27,0,0-.06.1.08.32,0,0,.11.16.02.32,0,0,.2-.07.18-.31s-.14-.14-.06-.36c0,0,.02.11.08.17s.14.15.1.31c0,0,.12-.15.09-.3s-.06-.2-.06-.2l.38-.21.19-.34v-.54Z"/>
        <g>
          <path class="cls-6" d="M23.11,9.37s-.15-.01-.18-.13"/>
          <path class="cls-6" d="M22.66,9.16s.05,0,.1.05c0,0,.04.06.09.05"/>
        </g>
      </g>
      <path class="cls-20" d="M23.34,8.92s-.08,0-.13-.04c0,0-.05-.03-.07.02,0,0-.04.07.04.1,0,0,.1.05-.06.15,0,0,.18-.07.11-.16,0,0-.08-.06-.05-.08,0,0,0-.02.04,0,.03.02.1.01.12,0Z"/>
      <path class="cls-4" d="M25.87,9.33l-.62-2.14h-.02s.55,2.17.55,2.17l.09-.03Z"/>
      <path class="cls-20" d="M23.71,11.73s-.15-.08-.27.01c0,0,.01-.05.1-.08,0,0,.05-.14.19-.13,0,0-.06.07-.13.13,0,0,.08,0,.11.07Z"/>
      <path class="cls-13" d="M23.19,12.07s-.23-.15-.11-.39c0,0,.04-.07.11-.06,0,0,.14.04.03.25,0,0-.06.13-.03.2h0Z"/>
      <path class="cls-13" d="M23.66,12.3s-.33-.15-.23-.41c0,0,.03-.09.1-.08,0,0,.13,0,.1.18,0,0-.04.17.02.31h0Z"/>
      <path class="cls-20" d="M23.59,11.34s-.1.07-.14.12c0,0-.04-.05-.09-.08,0,0,.06,0,.09.02,0,0,.05-.05.14-.06Z"/>
      <path class="cls-13" d="M23.89,12.23s.26-.07.21-.33c0,0-.03-.12-.14-.1,0,0-.13.03-.05.2,0,0,.05.12-.03.23h0Z"/>
      <path class="cls-8" d="M25.06,6.57s.17.05.26.09c0,0,.24.11.55,0,0,0,.21-.08.24-.09l-.16.24v.13s.09.15.09.15c0,0-.06.02-.24-.08,0,0-.2-.15-.43,0,0,0-.13.09-.24.08l.15-.17-.06-.15-.16-.19Z"/>
      <path class="cls-18" d="M23.99,11.91s0-.01,0-.02c0,0-.01,0-.02.01,0,0-.03.04,0,.1,0,0,.02.04.01.08,0,0,0,.01,0,.01,0,0,0,0,.01-.01,0,0,.01-.04,0-.08,0,0-.03-.06,0-.1h0Z"/>
      <g>
        <path class="cls-1" d="M27.58,7.07s-.19.1-.26-.02c0,0-.1-.19.12-.26,0,0-.12-.15,0-.28,0,0,.07-.07.19-.02,0,0,.05-.1.17-.1,0,0,.1,0,.14.11,0,0,.14-.06.22.03,0,0,.13.14-.05.26h-.13s-.13-.05-.13-.05l-.14.04s.04.14-.12.29h0Z"/>
        <path class="cls-8" d="M26.1,6.92s0,.04-.04.04c0,0-.04.01-.06-.04,0,0,0-.01,0-.02,0-.02-.01-.09.06-.14,0,0,.12-.1.34.02,0,0,.18.09.3.16,0,0,.32.17.36.18,0,0,.14.07.35.08,0,0,.29.02.42-.18,0,0,.09-.16,0-.26,0,0-.04-.04-.1-.04-.03,0-.06.02-.08.05,0,0-.05.07,0,.12,0,0,.07.04.09-.05,0,0,0,0,0,0,0,0,.02.07-.02.13,0,0-.18.27-.66,0l-.64-.36s-.32-.16-.51.09c0,0-.15.21.04.35,0,0,.15.09.24-.05,0,0,.08-.14-.04-.2,0,0-.11-.05-.15.06s.08.13.09.06c0,0,0-.02,0,0h0Z"/>
        <g>
          <path class="cls-10" d="M23.56,8.02v-.4s0-.06.05-.1.1-.1.17.07c0,0,.14-.15.19-.17,0,0,.08-.07.14.03,0,0,.08-.12.14-.14,0,0,.14-.09.15.19l.11-.1s.09-.07.18.03c0,0,.16.16.18.2,0,0,.04.05.04.13,0,0,0,.09.04.13,0,0,.05.04.1.05,0,0,.12,0,.16.11,0,0,.02-.02.08.5v.95l-.64.77-1.03-.29-.41-.17-.09-.3.4-.26.22-.58-.07-.41-.1-.23Z"/>
          <path class="cls-4" d="M26.4,8.53l.05-.07.12-.09s.18.47.19.57v.14s.27.07.31.48l-.22.41-.35-.19-.1-.07v-1.17h0Z"/>
        </g>
      </g>
      <path class="cls-18" d="M23.13,11.74s.01-.02,0-.02c0,0,0,0-.02.01,0,0-.07.08-.01.2,0,0,0,.02.02.01,0,0,0,0,0-.02,0,0-.05-.1.01-.18Z"/>
      <g>
        <path class="cls-6" d="M24.17,11.66s.01-.04-.01-.07c0,0-.02-.03-.01-.06"/>
        <path class="cls-5" d="M24.4,7.5s0,.1.03.17.13.2.13.27"/>
        <path class="cls-1" d="M26.82,10.98s.16,0,.24.05.15.09.24.15c0,0,.04.06.23.02,0,0,.32-.08.32.18,0,0,.39.03.23.37,0,0-.11.27-.33.08,0,0,.14.21-.13.29,0,0-.2.05-.25-.15,0,0-.03-.08.04-.18,0,0-.1-.02-.16-.12,0,0,.2.26-.02.35,0,0-.28.07-.3-.22,0,0,.02-.13-.09-.18,0,0-.22-.05-.32-.3,0,0,.32-.17.29-.32h0Z"/>
        <g>
          <g>
            <path class="cls-5" d="M24.27,7.94l.26,2.14"/>
            <path class="cls-5" d="M24.33,7.94l.3,1.99"/>
            <path class="cls-5" d="M24.39,7.93l.34,1.97"/>
          </g>
          <path class="cls-4" d="M25.02,9.7l-.62-2.14h-.02s.55,2.17.55,2.17l.09-.03Z"/>
          <g>
            <path class="cls-5" d="M24.58,7.85l.63,1.58"/>
            <path class="cls-5" d="M24.53,7.88l.6,1.65"/>
          </g>
        </g>
      </g>
      <path class="cls-18" d="M23.54,12.15s-.07-.07-.06-.19c0,0,0-.03,0-.03,0,0-.01,0-.02.03,0,0-.02.13.07.21,0,0,0,0,.02,0,0,0,.01,0,0-.01Z"/>
      <g>
        <path class="cls-5" d="M24.6,7.83l.65,1.44"/>
        <path class="cls-5" d="M24.43,7.92l.4,1.94"/>
        <path class="cls-8" d="M27.67,9.36c-.28-.16-.34-.52-.34-.52-.07-.35.07-.63.07-.63.18-.39.5-.46.5-.46,0,0-.31.21-.39.5,0,0-.07.24-.03.48.04.24.02.18.08.36l.12.27Z"/>
        <path class="cls-3" d="M26.45,8.46l-1.19.38-.06.53c-.28.41-.85.48-.85.48l.45.47.86.18.45-.35.41-.38c-.04-.2-.02-.5-.02-.5,0-.05.02-.17.02-.17,0,0-.07-.48-.05-.65h0Z"/>
        <g>
          <path class="cls-5" d="M25.21,9.23s.78-.24,1.25-.44"/>
          <path class="cls-5" d="M24.84,9.67s.98-.18,1.66-.57l.25-.17"/>
          <path class="cls-5" d="M26.75,9.08l-.27.19s-1.09.5-1.92.52"/>
          <path class="cls-5" d="M26.48,9.63s-.84.43-1.32.44"/>
        </g>
        <path class="cls-1" d="M27.48,8.42s.25-.12.37,0c0,0,.17-.1.34,0,0,0,.17.11.28.23,0,0,.08.07.05.29,0,0-.04.15-.02.23,0,0,.06-.01.17.12,0,0,.14.16.26.02,0,0-.04.2-.27.17,0,0,.11.09.01.31,0,0-.07.16.04.36,0,0-.2-.08-.19-.32,0,0,.02-.16-.04-.27,0,0,.06.1-.08.32,0,0-.11.16-.02.32,0,0-.2-.07-.18-.31.02-.24.14-.14.06-.36,0,0-.02.11-.08.17-.06.06-.14.15-.1.31,0,0-.12-.15-.09-.3s.06-.2.06-.2l-.38-.21-.19-.34v-.54Z"/>
      </g>
      <path class="cls-16" d="M23.23,9.77s.03-.17.19-.1c0,0,.05-.27.34-.28.29,0,.31.28.31.3,0,0,.08-.13.23-.11,0,0,.24-.01.15.38l.05.05s.19-.44.57-.32c0,0,.38.11.13.48,0,0,.19.24.34.22s.3-.07.45-.35.52-.32.61-.3.17.08.18.14c0,0,.19-.64.88-.54l.28.14.1.05-.16.44-.38.86-.29.09-.3-.17-.1.06v.26s-.41.29-.41.29l-.28.11-.31.21-.07.19s-.17-.07-.36,0l-.06-.15-.18-.17-.69-.33-.12-.4-.13-.06-.14.16-.21.02-.31-.21-.33-.95Z"/>
      <g>
        <g>
          <g>
            <path class="cls-7" d="M26.24,6.64s-.26-.01-.25.26"/>
            <path class="cls-8" d="M27.98,9.54c-.46-.14-.58-.63-.58-.63-.09-.37.06-.69.06-.69.21-.49.56-.49.56-.49.18,0,.2.15.2.15.02.11-.06.15-.06.15-.12.07-.2-.02-.2-.02-.05-.07-.01-.13-.01-.13.03-.04.09-.02.09-.02.05.01.04.07.04.07,0,0,0,0,0,0,0,0,0,0,0,0,0,0,.01-.07-.06-.08,0,0-.14-.03-.3.17,0,0-.21.27-.21.63,0,0-.03.66.66.83,0,0-.07.11-.21.5,0,0-.15.5-.29.77,0,0-.19.38-.61.23,0,0-.25-.11-.25-.29,0,0-.02-.17.13-.18,0,0,.15-.01.15.12,0,0,0,.14-.16.11,0,0-.06-.01-.05-.07,0,0,0-.05.08-.03,0,0,0,0,0,0,0,0,0,0,0,0,0,0-.03-.01-.05,0,0,0-.02,0-.03.05,0,0,0,.03.03.05,0,0,.04.01.07.01,0,0,.04.09.14.12.13.04.25,0,.31-.05.07-.06.12-.16.14-.19s.14-.3.23-.6c0,0,.08-.26.15-.39l.03-.05Z"/>
            <path class="cls-8" d="M26.68,10.8s.09-.01.09.06c0,0,0,.11-.14.09,0,0-.13-.03-.09-.18,0,0,.03-.11.16-.09,0,0,.12,0,.18.17,0,0,.04.14-.03.26-.08.14-.28.23-.38.26,0,0-.39.15-.5.24,0,0-.18.13-.1.25,0,0,.03.05.08.05,0,0,.05,0,.06-.05,0,0,0,0,0,0,0,0,0,0,0,0,0,0,0,.03-.03.04,0,0-.04.02-.08-.01,0,0-.04-.04,0-.1,0,0,.05-.08.15-.03,0,0,.09.05.06.15,0,0-.03.09-.15.09,0,0-.09,0-.14-.06-.09-.09-.09-.26-.01-.35,0,0,.07-.1.21-.15.08-.03.24-.1.4-.17.11-.04.22-.1.29-.18,0,0,.06-.07.08-.18,0,0,.02-.09-.04-.11,0,0-.03-.01-.06,0,0,0,0,0,0,0,0,0,0,0,0,0Z"/>
            <path class="cls-7" d="M26.69,10.8s.09-.02.15.1c0,0,.03.07.04.11"/>
            <path class="cls-7" d="M26.92,10.61s-.09.02-.05.15c.05.13.13.17.16.19"/>
            <path class="cls-8" d="M25.06,6.92s0,.04.04.04c0,0,.04.01.06-.04,0,0,0-.01,0-.02,0-.02.01-.09-.06-.14,0,0-.12-.1-.34.02,0,0-.18.09-.3.16,0,0-.32.17-.36.18,0,0-.14.07-.35.08,0,0-.29.02-.42-.18,0,0-.09-.16,0-.26,0,0,.04-.04.1-.04.03,0,.06.02.08.05,0,0,.05.07,0,.12,0,0-.07.04-.09-.05,0,0,0,0,0,0,0,0-.02.07.02.13,0,0,.18.27.66,0l.64-.36s.32-.16.51.09c0,0,.15.21-.04.35,0,0-.15.09-.24-.05,0,0-.08-.14.04-.2,0,0,.11-.05.15.06s-.08.13-.09.06c0,0,0-.02,0,0h0Z"/>
            <path class="cls-8" d="M23.49,9.36c.28-.16.34-.52.34-.52.07-.35-.07-.63-.07-.63-.18-.39-.5-.46-.5-.46,0,0,.31.21.39.5,0,0,.07.24.03.48-.04.24-.02.18-.08.36l-.12.27Z"/>
            <path class="cls-7" d="M24.91,6.64s.26-.01.25.26"/>
            <path class="cls-8" d="M23.18,9.54c.46-.14.58-.63.58-.63.09-.37-.06-.69-.06-.69-.21-.49-.56-.49-.56-.49-.18,0-.2.15-.2.15-.02.11.06.15.06.15.12.07.2-.02.2-.02.05-.07.01-.13.01-.13-.03-.04-.09-.02-.09-.02-.05.01-.04.07-.04.07,0,0,0,0,0,0,0,0,0,0,0,0,0,0-.01-.07.06-.08,0,0,.14-.03.3.17,0,0,.21.27.21.63,0,0,.03.66-.66.83,0,0,.07.11.21.5,0,0,.15.5.29.77,0,0,.19.38.61.23,0,0,.25-.11.25-.29,0,0,.02-.17-.13-.18,0,0-.15-.01-.15.12,0,0,0,.14.16.11,0,0,.06-.01.05-.07,0,0,0-.05-.08-.03,0,0,0,0,0,0,0,0,0,0,0,0,0,0,.03-.01.05,0,0,0,.02,0,.03.05,0,0,0,.03-.03.05,0,0-.04.01-.07.01,0,0-.04.09-.14.12-.13.04-.25,0-.31-.05-.07-.06-.12-.16-.14-.19s-.14-.3-.23-.6c0,0-.08-.26-.15-.39l-.03-.05Z"/>
            <path class="cls-8" d="M24.47,10.8s-.09-.01-.09.06c0,0,0,.11.14.09,0,0,.13-.03.09-.18,0,0-.03-.11-.16-.09,0,0-.12,0-.18.17,0,0-.04.14.03.26.08.14.28.23.38.26,0,0,.39.15.5.24,0,0,.18.13.1.25,0,0-.03.05-.08.05,0,0-.05,0-.06-.05,0,0,0,0,0,0,0,0,0,0,0,0,0,0,0,.03.03.04,0,0,.04.02.08-.01,0,0,.04-.04,0-.1,0,0-.05-.08-.15-.03,0,0-.09.05-.06.15,0,0,.03.09.15.09,0,0,.09,0,.14-.06.09-.09.09-.26.01-.35,0,0-.07-.1-.21-.15-.08-.03-.24-.1-.4-.17-.11-.04-.22-.1-.29-.18,0,0-.06-.07-.08-.18,0,0-.02-.09.04-.11,0,0,.03-.01.06,0,0,0,0,0,0,0,0,0,0,0,0,0Z"/>
            <g>
              <path class="cls-7" d="M24.47,10.8s-.09-.02-.15.1c0,0-.03.07-.04.11"/>
              <path class="cls-7" d="M24.24,10.61s.09.02.05.15c-.05.13-.13.17-.16.19"/>
              <path class="cls-7" d="M25.35,6.88s.23-.14.46.02"/>
            </g>
          </g>
          <g>
            <path class="cls-9" d="M24.04,8.29s.03-.13-.11-.35c0,0-.1-.21-.15-.34"/>
            <path class="cls-9" d="M24.11,7.46s.08.2.11.29c0,0,.1.25.12.3"/>
          </g>
        </g>
        <g>
          <g>
            <path class="cls-5" d="M24.15,8.43s.09.09.08.25"/>
            <path class="cls-5" d="M23.87,8.33s.1.05.09.3c0,0,0,.18.13.28"/>
            <path class="cls-5" d="M23.85,8.97s.3-.03.31.15c0,0,0,.18.11.2,0,0,.15.01.18.16"/>
            <path class="cls-5" d="M23.95,9.18s.05.08.1.11"/>
            <path class="cls-5" d="M24.33,8.98s.08.11.09.18"/>
            <path class="cls-5" d="M24.66,7.6s.07.1.14.14"/>
            <path class="cls-5" d="M24.94,8.16s.15.07.12.45c0,0-.02.22.04.34"/>
          </g>
          <path class="cls-4" d="M24.24,7.91v.04s.28.01.42-.17l-.02-.03s-.23-.01-.4.17h0Z"/>
          <path class="cls-5" d="M25.2,9.34s.92-.27,1.27-.43"/>
        </g>
        <path class="cls-3" d="M25.09,7.61l.45-.17v.03s-.44.17-.44.17v-.03Z"/>
      </g>
      <g>
        <g>
          <path class="cls-5" d="M25.14,7.62l.3,1.48"/>
          <path class="cls-5" d="M25.19,7.6l.35,1.47"/>
          <path class="cls-5" d="M25.25,7.58l.38,1.46"/>
          <path class="cls-5" d="M25.4,7.53l.52,1.1"/>
          <path class="cls-5" d="M25.47,7.5l.55,1.09"/>
          <path class="cls-5" d="M25.52,7.48l.59,1.08"/>
          <path class="cls-5" d="M25.42,9.12l.23-.08"/>
          <path class="cls-5" d="M25.24,8.97s.68-.2,1.2-.41"/>
          <path class="cls-5" d="M25.23,9.05s.87-.23,1.21-.4"/>
          <path class="cls-5" d="M25.5,9.75l.05.14.12-.04-.04-.14"/>
          <path class="cls-5" d="M25.85,9.65l.05.14.12-.04-.04-.14"/>
          <path class="cls-5" d="M25.26,8.83v-.19s1.13-.35,1.13-.35l.06.16"/>
          <path class="cls-5" d="M25.73,8.5l.06.17"/>
          <path class="cls-5" d="M26.13,8.38l.07.16"/>
          <path class="cls-5" d="M26.22,8.35l.07.15"/>
          <path class="cls-5" d="M26.31,8.32l.07.16"/>
          <path class="cls-5" d="M26.39,8.3l.13-.07.05.14"/>
          <path class="cls-5" d="M26.45,8.26l.06.14"/>
        </g>
        <g>
          <path class="cls-17" d="M23.63,10.43s-.22-.23,0-.45c0,0-.24-.12-.2-.31"/>
          <path class="cls-17" d="M24.03,10.61s-.23.03-.16-.42c0,0-.1.18-.13.27-.02.07,0,.18.09.24.04.02.25.08.31-.06"/>
          <path class="cls-17" d="M23.77,9.92s-.09.09-.03.25"/>
          <path class="cls-17" d="M23.87,9.94s.01.15.09.24"/>
          <path class="cls-17" d="M23.93,9.88s0,.18.13.29"/>
          <path class="cls-17" d="M24,9.82s0,.2.15.33"/>
          <path class="cls-17" d="M24.75,10.11s.08-.17.24-.16c0,0-.08.04-.08.11,0,0,0,.13.13.14,0,0,.11.01.17-.05"/>
          <path class="cls-17" d="M25.13,10.88s-.4-.19-.35-.45c0,0,.02-.16.18-.24"/>
          <path class="cls-17" d="M24.86,10.35s-.03.12.04.2"/>
          <path class="cls-17" d="M24.95,10.27s-.05.13.03.22"/>
          <path class="cls-17" d="M25.05,10.21s-.06.1.01.2"/>
          <path class="cls-17" d="M24.69,10.9s.22.19.38.19"/>
          <path class="cls-17" d="M24.62,10.96s.2.16.33.19"/>
          <path class="cls-17" d="M24.54,11.01s.25.22.4.24"/>
          <path class="cls-17" d="M25.56,11.45s-.25.13-.06.27"/>
          <path class="cls-17" d="M25.4,11.3s.28-.15.4-.2"/>
          <path class="cls-17" d="M25.5,11.38s.4-.25.52-.3"/>
          <path class="cls-17" d="M25.71,11.39s.34-.23.53-.33"/>
          <path class="cls-17" d="M25.94,11.38s.24-.19.47-.32"/>
          <path class="cls-17" d="M26.48,10.83s-.12-.17-.5,0c0,0,.14-.13.42-.23"/>
          <path class="cls-17" d="M26.79,9.88s.03.14,0,.22"/>
          <path class="cls-17" d="M26.17,10.54s.08-.12.28-.17c0,0,.05.14.21.11,0,0,.24-.05.17-.31,0,0-.05-.19-.32-.21"/>
          <path class="cls-17" d="M27.31,9.63s.27.05.27.27c0,0,.02.34-.33.4"/>
          <path class="cls-17" d="M27.54,9.77s.08-.16.24-.23"/>
          <path class="cls-17" d="M27.58,9.44s.08.12.13.14"/>
          <path class="cls-17" d="M27.54,9.54s.07.09.09.1"/>
          <path class="cls-17" d="M27.52,9.62s.04.06.07.07"/>
          <path class="cls-17" d="M26.11,8.32s.05-.09.19-.05"/>
          <path class="cls-17" d="M26.83,8.97s.08-.35.38-.22"/>
          <path class="cls-17" d="M27.09,8.72s.03-.16-.04-.24"/>
          <path class="cls-17" d="M26.89,8.71s.04.07,0,.12"/>
        </g>
      </g>
      <path class="cls-13" d="M27.49,12.3s.33-.15.23-.41c0,0-.03-.09-.1-.08,0,0-.13,0-.1.18,0,0,.04.17-.02.31h0Z"/>
      <path class="cls-18" d="M27.61,12.15s.07-.07.06-.19c0,0,0-.03,0-.03,0,0,.01,0,.02.03,0,0,.02.13-.07.21,0,0,0,0-.02,0,0,0-.01,0,0-.01Z"/>
      <path class="cls-13" d="M27.96,12.07s.23-.15.11-.39c0,0-.04-.07-.11-.06,0,0-.14.04-.03.25,0,0,.06.13.03.2h0Z"/>
      <path class="cls-18" d="M28.02,11.74s-.01-.02,0-.02c0,0,0,0,.02.01,0,0,.07.08.01.2,0,0,0,.02-.02.01,0,0,0,0,0-.02,0,0,.05-.1-.01-.18Z"/>
      <path class="cls-13" d="M27.27,12.23s-.26-.07-.21-.33c0,0,.03-.12.14-.1,0,0,.13.03.05.2,0,0-.05.12.03.23h0Z"/>
      <path class="cls-18" d="M27.17,11.91s0-.01,0-.02c0,0,.01,0,.02.01,0,0,.03.04,0,.1,0,0-.02.04-.01.08,0,0,0,.01,0,.01,0,0,0,0-.01-.01,0,0-.01-.04,0-.08,0,0,.03-.06,0-.1h0Z"/>
      <path class="cls-20" d="M27.45,11.73s.15-.08.27.01c0,0-.01-.05-.1-.08,0,0-.05-.14-.19-.13,0,0,.06.07.13.13,0,0-.08,0-.11.07Z"/>
      <path class="cls-20" d="M27.56,11.34s.1.07.14.12c0,0,.04-.05.09-.08,0,0-.06,0-.09.02,0,0-.05-.05-.14-.06Z"/>
      <g>
        <path class="cls-6" d="M26.98,11.66s-.01-.04.01-.07c0,0,.02-.03.01-.06"/>
        <path class="cls-6" d="M28.05,9.37s.15-.01.18-.13"/>
        <path class="cls-6" d="M28.5,9.16s-.05,0-.1.05c0,0-.04.06-.09.05"/>
      </g>
      <path class="cls-20" d="M27.82,8.92s.08,0,.13-.04c0,0,.05-.03.07.02,0,0,.04.07-.04.1,0,0-.1.05.06.15,0,0-.18-.07-.11-.16,0,0,.08-.06.05-.08,0,0,0-.02-.04,0-.03.02-.1.01-.12,0Z"/>
      <path class="cls-13" d="M27.93,6.97s.04-.05.02-.2.11-.17.16-.12c0,0,.05.04,0,.14-.03.05-.07.12-.19.18Z"/>
      <path class="cls-18" d="M27.98,6.86s.05-.05.03-.16c0,0,0-.01,0-.01,0,0,.01,0,.01,0,0,0,.03.12-.03.19,0,0,0,0-.02,0,0,0,0,0,0-.02h0Z"/>
      <path class="cls-13" d="M27.89,6.92s0-.06-.11-.16-.02-.2.04-.19c0,0,.07,0,.09.1.01.06.03.14-.03.26h0Z"/>
      <path class="cls-18" d="M27.87,6.79s0-.07-.09-.15c0,0,0,0,0-.01,0,0,0,0,.02,0,0,0,.1.08.1.17,0,0,0,.01-.01.01,0,0-.01,0-.01-.01h0Z"/>
      <path class="cls-13" d="M27.75,6.87s-.03-.05-.15-.09-.09-.16-.04-.18c0,0,.06-.02.12.05.03.04.08.11.08.22h0Z"/>
      <path class="cls-18" d="M27.69,6.78s-.03-.07-.15-.1c0,0-.01,0,0-.01,0,0,0-.01.01,0,0,0,.13.03.16.11,0,0,0,.01,0,.02,0,0,0,0-.02,0h0Z"/>
      <path class="cls-13" d="M27.83,6.92s-.06.02-.2-.05-.2.05-.17.11c0,0,.03.06.13.05.06,0,.14-.02.24-.11Z"/>
      <path class="cls-18" d="M27.51,6.97s.06.04.17,0c0,0,.01,0,.01,0,0,0,0,.01,0,.02,0,0-.12.05-.2,0,0,0-.01,0,0-.02,0,0,0,0,.02,0h0Z"/>
      <path class="cls-7" d="M27.63,6.49s.07.03.05.11"/>
      <path class="cls-6" d="M27.93,6.5s.03.08,0,.13"/>
      <path class="cls-13" d="M23.22,6.97s-.04-.05-.02-.2-.11-.17-.16-.12c0,0-.05.04,0,.14.03.05.07.12.19.18Z"/>
      <path class="cls-18" d="M23.17,6.86s-.05-.05-.03-.16c0,0,0-.01,0-.01,0,0-.01,0-.01,0,0,0-.03.12.03.19,0,0,0,0,.02,0,0,0,0,0,0-.02h0Z"/>
      <path class="cls-13" d="M23.26,6.92s0-.06.11-.16.02-.2-.04-.19c0,0-.07,0-.09.1-.01.06-.03.14.03.26h0Z"/>
      <path class="cls-18" d="M23.27,6.79s0-.07.09-.15c0,0,0,0,0-.01,0,0,0,0-.02,0,0,0-.1.08-.1.17,0,0,0,.01.01.01,0,0,.01,0,.01-.01h0Z"/>
      <path class="cls-13" d="M23.4,6.87s.03-.05.15-.09.09-.16.04-.18c0,0-.06-.02-.12.05-.03.04-.08.11-.08.22h0Z"/>
      <path class="cls-18" d="M23.45,6.78s.03-.07.15-.1c0,0,.01,0,0-.01,0,0,0-.01-.01,0,0,0-.13.03-.16.11,0,0,0,.01,0,.02,0,0,0,0,.02,0h0Z"/>
      <path class="cls-13" d="M23.32,6.92s.06.02.2-.05.2.05.17.11c0,0-.03.06-.13.05-.06,0-.14-.02-.24-.11Z"/>
      <path class="cls-18" d="M23.64,6.97s-.06.04-.17,0c0,0-.01,0-.01,0,0,0,0,.01,0,.02,0,0,.12.05.2,0,0,0,.01,0,0-.02,0,0,0,0-.02,0h0Z"/>
      <path class="cls-7" d="M23.52,6.49s-.07.03-.05.11"/>
      <path class="cls-6" d="M23.22,6.5s-.03.08,0,.13"/>
      <path class="cls-20" d="M26.18,5.72s.04.12.02.24c-.02.1,0,.13.04.15.03.02.1-.01.11-.09,0,0,.09.17-.08.28,0,0-.12.07-.22-.02-.04-.03-.05-.13-.03-.22,0,0,.03-.12-.02-.24,0,0,.07.07.05.22,0,0-.03.26.16.25,0,0,.13,0,.14-.16,0,0-.05.06-.11.04-.04-.01-.08-.06-.08-.12,0-.07.03-.19.02-.3h0Z"/>
      <path class="cls-20" d="M25.96,6.15s-.01.21-.2.26c0,0,.03-.04-.02-.14,0,0-.04-.06-.04-.15,0,0-.06.05,0,.17.04.07,0,.16,0,.17-.01,0,.31-.04.25-.3h0Z"/>
      <path class="cls-20" d="M25.72,5.95s-.05-.05-.05-.17c0-.12-.03-.15-.04-.16,0,0,.02.1.02.17s0,.1.01.13c0,0-.1.02-.17-.13-.06-.14-.12-.13-.15-.13,0,0,.04,0,.11.13.07.13.09.16.27.17Z"/>
      <path class="cls-20" d="M25.24,5.64s.06.14.06.22c0,0-.14-.05-.17-.17,0,0-.15.05-.09.22,0,0-.13-.04-.18-.15,0,0,.07.05.14.08,0,0,0-.14.16-.19,0,0,.03.12.11.15,0,0,0-.08-.02-.16h0Z"/>
      <path class="cls-20" d="M25.47,5.39s.05.07.15.07c.05,0,.1,0,.15-.07,0,0,0,.12-.15.12,0,0-.15,0-.15-.12Z"/>
      <path class="cls-20" d="M24.86,6.22s.07.07.09.09c0,0,.05.05.09-.01,0,0,.06-.1.12-.1,0,0-.05.03-.1.13,0,0-.01.04-.06.04-.02,0-.04,0-.08-.03,0,0-.03-.04-.07-.11Z"/>
      <path class="cls-20" d="M25.61,4.91c-.15,0-.02.11-.02.11,0,.18-.14.23-.24.18-.1-.05-.02-.18-.02-.18,0,0-.11.07-.04.18s.25.06.32-.04c.07.1.25.14.32.04s-.04-.18-.04-.18c0,0,.08.13-.02.18-.1.05-.24,0-.24-.18,0,0,.12-.11-.02-.11Z"/>
      <path class="cls-20" d="M25.7,4.72s.05.09.04.22c0,0,.05-.13-.04-.22Z"/>
      <path class="cls-20" d="M25.25,4.92s-.01-.09-.1-.1c0,0,.08.06.1.1Z"/>
      <path class="cls-20" d="M25.97,4.92s.01-.09.1-.1c0,0-.08.06-.1.1Z"/>
      <path class="cls-20" d="M25.11,5.07s.07.02.12-.03c0,0-.08.02-.12.03Z"/>
      <path class="cls-20" d="M24.87,4.48s.09,0,.17.12c0,0-.08.04-.1.07,0,0,0-.04.04-.08,0,0-.02-.06-.11-.11h0Z"/>
      <path class="cls-20" d="M26.29,4.48s-.09,0-.17.12c0,0,.08.04.1.07,0,0,0-.04-.04-.08,0,0,.02-.06.11-.11h0Z"/>
      <path class="cls-20" d="M25.64,4.58s.08.02.17-.03c0,0,.12-.06.19,0,0,0-.07-.03-.19.03,0,0-.13.07-.17,0Z"/>
      <path class="cls-18" d="M25.72,4.66s.07-.11.26-.09c0,0-.05.16-.26.09Z"/>
      <ellipse class="cls-14" cx="25.85" cy="4.62" rx=".04" ry=".05"/>
      <ellipse class="cls-20" cx="25.85" cy="4.62" rx=".02" ry=".03"/>
      <path class="cls-20" d="M25.29,4.41s.13,0,.2.06c0,0,.08.05.17-.02,0,0,.1-.06.16-.14,0,0-.15.11-.21.12,0,0-.05-.04-.07-.1,0,0,0-.04.09-.12,0,0-.11.03-.13.13,0,0,.02.06.06.1,0,0-.02,0-.07-.02,0,0-.12-.04-.2,0h0Z"/>
      <path class="cls-20" d="M25.61,5.17c-.11.09,0,.08,0,.08,0,0,.11,0,0-.08Z"/>
      <path class="cls-20" d="M25.55,4.58s-.08.02-.17-.03c0,0-.12-.06-.19,0,0,0,.07-.03.19.03,0,0,.13.07.17,0Z"/>
      <path class="cls-18" d="M25.47,4.66s-.07-.11-.26-.09c0,0,.05.16.26.09Z"/>
      <ellipse class="cls-14" cx="25.33" cy="4.62" rx=".04" ry=".05"/>
      <ellipse class="cls-20" cx="25.33" cy="4.62" rx=".02" ry=".03"/>
      <path class="cls-11" d="M29.45,3.63v7.2c0,1.92-3.85,2.55-3.85,2.55,0,0-3.85-.63-3.85-2.55V3.63h7.69Z"/>
    </g>
  </g>
</svg>