<?xml version="1.0" encoding="UTF-8"?>
<svg id="Layer_2" data-name="Layer 2" xmlns="http://www.w3.org/2000/svg" viewBox="0 0 34.02 17.01">
  <defs>
    <style>
      .cls-1 {
        fill: #66b4d2;
      }

      .cls-2 {
        fill: #222d65;
      }

      .cls-3 {
        fill: #fff;
      }

      .cls-4 {
        fill: #e4cb5d;
      }

      .cls-5 {
        fill: #f5ce11;
      }

      .cls-6 {
        fill: #c8202f;
      }

      .cls-7 {
        fill: #329044;
      }

      .cls-8 {
        fill: #010101;
      }

      .cls-9 {
        fill: #794523;
      }
    </style>
  </defs>
  <g id="Layer_1-2" data-name="Layer 1">
    <g>
      <path class="cls-6" d="M0,0h34.02v17.01H0V0Z"/>
      <path class="cls-2" d="M0,0h17.01v8.5H0V0Z"/>
      <g>
        <path class="cls-3" d="M0,0v.95l15.11,7.55h1.9v-.95L1.9,0H0ZM17.01,0v.95L1.9,8.5H0v-.95L15.11,0h1.9Z"/>
        <path class="cls-3" d="M7.09,0v8.5h2.83V0h-2.83ZM0,2.83v2.83h17.01v-2.83H0Z"/>
        <g>
          <path class="cls-6" d="M0,3.4v1.7h17.01v-1.7H0ZM7.65,0v8.5h1.7V0h-1.7Z"/>
          <path class="cls-6" d="M0,8.5l5.67-2.83h1.27l-5.67,2.83H0ZM0,0l5.67,2.83h-1.27L0,.63v-.63ZM10.07,2.83L15.74,0h1.27l-5.67,2.83h-1.27ZM17.01,8.5l-5.67-2.83h1.27l4.4,2.2v.63Z"/>
        </g>
      </g>
      <path class="cls-3" d="M29.44,3.63v7.2c0,1.92-3.85,2.55-3.85,2.55,0,0-3.85-.63-3.85-2.55V3.63h7.69Z"/>
      <path class="cls-7" d="M29.44,10.83c0,1.92-3.85,2.55-3.85,2.55,0,0-3.85-.63-3.85-2.55,0,0,0-.15.08-.24,0,0-.04.32.2.56,0,0-.19-.34,0-.68,0,0-.07.43.2.68,0,0-.15-.35.02-.75,0,0-.08.64.21.77,0,0,.08-.37-.04-.61,0,0,.2.08.19.62,0,0,.06-.08.08-.47,0,0,0,.44.16.54,0,0,.05-.04-.02-.25s.03-.27.04-.27c0,0-.03.22.15.39,0,0-.08-.35.03-.4,0,0-.02.29.21.36,0,0,.02-.09-.03-.18,0,0-.04-.11-.01-.2,0,0,.07.27.18.31,0,0-.06-.16,0-.31,0,0,.01.22.21.31,0,0-.13-.17-.08-.36l1.28.06.66.03,1.99-.14.34-.29s.14.19-.08.49c0,0,.21-.04.28-.37,0,0,.09.18-.03.39,0,0,.24-.24.27-.5,0,0,.09.26-.13.54,0,0,.2-.07.28-.36,0,0,.07.18-.13.43,0,0,.36-.19.35-.59,0,0,.15.22-.02.52,0,0,.18-.16.2-.41,0,0,.1.11,0,.42,0,0,.22-.21.26-.44,0,0,.05.21-.14.48,0,0,.13-.03.26-.29,0,0,.03.1-.08.29,0,0,.12-.02.21-.26,0,0,.01.14-.02.27,0,0,.1-.06.12-.33,0,0,.05.09.05.2,0,.11,0,.04,0,.04h0Z"/>
      <g>
        <g>
          <path class="cls-6" d="M27.46,6.67s-.13.02-.31-.03c-.17-.05-.24-.03-.29,0,0,0,.07-.14-.1-.25,0,0,.06.14-.02.2,0,0-.03.03-.07-.02,0,0-.06-.06-.12-.11,0,0,.14-.05.12-.2s-.1-.17-.15-.18c0,0,.01.07,0,.11,0,0-.16-.09.06-.21s.17-.2.14-.26c-.04-.06-.12-.13-.16-.16,0,0,.04.07.03.12s-.1.09-.08,0c.02-.1,0-.08,0-.19,0,0,.19.06.26-.12,0,0,.07-.19-.17-.29,0,0,.06.08.03.14,0,0-.05.1-.11.02s-.1-.09-.09-.18c0,0,.22.03.16-.21,0,0-.03.16-.32-.05,0,0,.18-.19.11-.34,0,0-.02-.07-.22-.03,0,0,.17-.11.1-.2,0,0-.04-.06-.2.02,0,0,.06-.11-.1-.22,0,0-.11.06-.16.11,0,0-.11-.14-.18-.19,0,0-.13.05-.16.19,0,0-.06-.07-.19-.1,0,0-.06.12.02.22,0,0-.06,0-.17-.05,0,0-.13-.06-.11.05s.03.13.05.19c0,0-.29-.07-.28.09,0,.11.05.2.14.28,0,0-.16.21-.3.05,0,0-.05.05.06.19,0,0,.1.11.02.18,0,0-.11.09-.17-.09,0,0-.18.18.03.32,0,0,.14.08.28-.04,0,0-.04.35-.18.28,0,0-.08-.06.06-.13,0,0-.21-.03-.24.18,0,0-.03.16.16.22,0,0,.14.05,0,.16,0,0-.1.08-.04.2,0,0,.08.13-.13.14,0,0-.11,0-.15-.02,0,0-.05.08-.01.18,0,0-.1-.08-.34,0-.23.08-.22.03-.24.05s-.06.11-.06.11c0,0,.12.15.13.15s-.02.17-.02.17l.06.03.48-.21.49-.26.39.02.25.06.33.02.23-.13h.34l.37.19.43.25.22.04h.17v-.35l-.08-.13Z"/>
          <path class="cls-8" d="M23.83,7.17s0,0,0,0l-.06-.03s0,0,0-.01c0-.05.02-.14.02-.16-.01-.01-.04-.05-.12-.14,0,0,0-.01,0-.02,0,0,.05-.09.07-.11.01-.01.02-.01.03-.01.02,0,.06.01.21-.04.17-.06.27-.04.32-.02-.02-.09.02-.16.02-.16,0,0,0,0,.02,0,.03.01.12.01.15.02.07,0,.11-.02.12-.05.02-.03,0-.07,0-.07-.07-.13.04-.22.04-.22.04-.03.06-.06.06-.09,0-.03-.05-.05-.05-.05-.19-.06-.17-.23-.17-.24.03-.17.18-.19.24-.19.01,0,.02,0,.02,0,0,0,.01,0,.01.01,0,0,0,.01,0,.01-.06.03-.08.06-.08.07,0,.02.02.03.02.03.02,0,.03,0,.05,0,.06-.03.09-.16.1-.24-.14.09-.27.02-.27.02-.07-.04-.11-.1-.11-.16-.01-.1.07-.19.08-.19,0,0,0,0,.01,0,0,0,0,0,.01,0,.02.05.04.09.07.1,0,0,.01,0,.02,0,.03,0,.06-.02.06-.02.02-.01.03-.03.03-.05,0-.05-.05-.11-.05-.11-.11-.14-.06-.2-.05-.21,0,0,0,0,.01,0h0s0,0,.01,0c.03.04.07.05.1.05h0c.07,0,.14-.07.16-.1-.08-.07-.12-.17-.13-.28,0-.03,0-.06.03-.08.06-.05.18-.04.23-.03-.02-.04-.03-.07-.04-.16,0-.03,0-.06.02-.07.03-.03.1,0,.11,0,.06.03.11.04.14.04-.06-.1,0-.2,0-.21,0,0,.01,0,.02,0,.1.02.15.06.18.09.04-.13.15-.18.16-.18,0,0,0,0,.01,0,.06.05.14.15.17.18.06-.05.15-.1.15-.1,0,0,0,0,.02,0,.11.08.12.17.11.21.14-.07.18,0,.19,0,.02.02.02.05.02.07,0,.04-.04.09-.08.11.02,0,.04,0,.06,0,.1,0,.12.04.12.05.06.14-.07.3-.1.34.14.1.21.11.24.09.03-.01.04-.04.04-.04,0,0,0-.01.01-.01h0s.01,0,.01,0c.02.08.01.14-.02.18-.04.05-.11.05-.13.05,0,.05.02.08.05.12.01.01.02.03.04.04.01.02.03.03.04.03h0s.05-.04.05-.04c.02-.05-.03-.12-.03-.12,0,0,0-.01,0-.02,0,0,.01,0,.02,0,.25.1.17.3.17.3-.07.16-.21.15-.26.13,0,.03,0,.05,0,.06,0,.03,0,.05,0,.11,0,.02,0,.04,0,.04,0,0,.02,0,.02,0,.01,0,.03-.02.03-.04,0-.05-.03-.11-.03-.11,0,0,0-.01,0-.02s.01,0,.02,0c.04.03.13.1.16.16.02.03.04.07.03.11-.01.05-.07.11-.17.17-.07.04-.11.08-.1.12,0,.03.02.05.03.06,0-.04,0-.08,0-.08,0,0,0-.01,0-.01s0,0,.01,0h.01s.12.05.14.19c.02.12-.06.18-.1.2.05.04.1.09.1.1.01.01.02.02.03.02h0s.02,0,.02,0c.07-.06.02-.19.02-.19,0,0,0-.01,0-.02,0,0,.01,0,.02,0,.13.08.13.18.12.23.06-.02.14-.03.27.01.17.05.3.03.3.03h0s0,0,.01,0l.08.12s0,0,0,0v.35s0,.01-.01.01h-.17s-.23-.03-.23-.03c0,0,0,0,0,0l-.43-.25-.37-.18h-.33l-.23.12s0,0,0,0h0l-.33-.02-.25-.06-.39-.02-.49.25-.48.21s0,0,0,0ZM23.78,7.12l.04.02.48-.21.49-.25s0,0,0,0h0l.39.02.25.06.32.02.23-.12s0,0,0,0h.34s0,0,0,0l.37.19.43.25.22.04h.16v-.34l-.08-.11s-.15.01-.3-.03c-.17-.05-.24-.03-.28,0,0,0-.01,0-.02,0,0,0,0-.01,0-.02,0,0,.05-.11-.06-.21.01.05.02.13-.04.18,0,0-.01.01-.04.01h0s-.04-.01-.05-.03h0s-.06-.06-.12-.11c0,0,0,0,0-.01s0,0,0-.01c0,0,.13-.05.11-.18-.02-.12-.07-.15-.12-.17,0,.03,0,.06,0,.09,0,0,0,0,0,0,0,0,0,0-.01,0,0,0-.06-.04-.06-.09,0-.05.04-.1.12-.14.09-.05.14-.1.16-.15,0-.03,0-.06-.03-.09-.03-.04-.07-.09-.11-.12,0,.02.02.05.01.08,0,.03-.03.06-.05.06-.02,0-.04,0-.05,0-.01,0-.02-.03-.01-.07.01-.06,0-.07,0-.1,0-.02,0-.04,0-.08,0,0,0,0,0-.01,0,0,0,0,.01,0,0,0,.18.06.25-.11,0,0,.06-.16-.12-.25.01.03.03.07,0,.11,0,0-.03.05-.07.06h0s-.04-.01-.06-.04c-.01-.02-.03-.03-.04-.04-.04-.04-.06-.07-.06-.15,0,0,0,0,0,0,0,0,0,0,.01,0,0,0,.08,0,.12-.04.02-.03.03-.06.02-.12,0,0-.02.02-.04.02-.06.03-.16-.01-.28-.11,0,0,0,0,0-.01,0,0,0,0,0-.01,0,0,.18-.18.11-.32,0,0-.02-.06-.21-.02,0,0-.01,0-.02,0,0,0,0-.01,0-.02,0,0,.1-.06.11-.13,0-.02,0-.04-.01-.05,0,0-.04-.05-.18.02,0,0-.01,0-.02,0,0,0,0-.01,0-.02,0,0,.05-.1-.08-.2-.03.01-.11.06-.15.1,0,0,0,0,0,0h0s0,0,0,0c0,0-.1-.13-.17-.18-.03.01-.12.06-.14.18,0,0,0,.01-.01.01,0,0,0,0-.01,0,0,0-.05-.06-.17-.09-.01.03-.04.12.02.19,0,0,0,0,0,.01s0,0-.01,0h0s-.07,0-.18-.05c-.01,0-.04-.02-.06-.02,0,0-.02,0-.02,0-.01,0,0,.03,0,.04.02.11.03.13.05.18,0,0,0,.01,0,.02,0,0,0,0-.01,0,0,0-.17-.04-.24.01-.02.01-.02.03-.02.06,0,.11.05.2.13.27,0,0,0,.01,0,.02,0,0-.09.11-.19.12h0s-.08-.02-.11-.05c0,.02,0,.07.06.15,0,0,.06.07.05.13,0,.03-.02.05-.04.07,0,0-.05.04-.1.02-.03,0-.06-.04-.08-.09-.02.03-.06.09-.05.15,0,.05.04.1.1.13,0,0,.13.07.26-.04,0,0,.01,0,.02,0s0,0,0,.01c0,0-.03.24-.12.29-.03.01-.05.01-.08,0,0,0-.03-.02-.03-.06,0-.02.02-.05.05-.07-.06,0-.16.04-.18.17,0,0-.02.15.15.21,0,0,.06.02.07.07,0,.04-.02.07-.07.11,0,0-.09.07-.03.18,0,0,.03.05,0,.1-.02.04-.07.06-.15.06,0,0-.1,0-.15-.01,0,.02-.03.09,0,.16,0,0,0,.01,0,.02,0,0-.01,0-.02,0,0,0-.1-.07-.32,0-.17.06-.21.05-.23.04-.02.02-.05.08-.06.1.04.05.1.12.12.14,0,0,0,.01-.01.17Z"/>
        </g>
        <g>
          <path class="cls-6" d="M23.57,7.07s.19.1.26-.02c0,0,.1-.19-.12-.26,0,0,.12-.15,0-.28,0,0-.07-.07-.19-.02,0,0-.05-.1-.17-.1,0,0-.1,0-.14.11,0,0-.14-.06-.22.03,0,0-.13.14.05.26h.13s.13-.05.13-.05l.14.04s-.04.14.12.29h0Z"/>
          <path class="cls-8" d="M23.72,7.12c-.07,0-.15-.04-.15-.04,0,0,0,0,0,0-.14-.13-.14-.25-.13-.29l-.13-.04-.12.06s0,0,0,0h-.13s0-.01,0-.01c-.06-.04-.09-.08-.1-.13-.01-.08.04-.14.05-.15.07-.07.18-.05.22-.03.04-.1.14-.11.15-.11h0s0,0,0,0c.1,0,.15.07.17.1.12-.05.19.02.19.03.11.12.05.24.02.28.06.02.1.06.12.11.03.08,0,.17-.01.17-.03.05-.08.06-.13.06ZM23.58,7.06s.18.08.25-.02h0s.04-.08,0-.14c-.02-.04-.06-.08-.12-.09,0,0,0,0,0,0,0,0,0,0,0-.01,0,0,.11-.14,0-.26,0,0-.06-.06-.17-.02,0,0-.02,0-.02,0,0,0-.04-.09-.15-.09h0s-.09,0-.12.1c0,0,0,0,0,0s0,0-.01,0c0,0-.13-.05-.2.02,0,0-.05.06-.04.12,0,.04.03.08.08.11h.12s.12-.05.12-.05c0,0,0,0,0,0l.14.04s.01,0,0,.02c0,0-.03.14.12.28Z"/>
        </g>
        <g>
          <path class="cls-1" d="M27.74,6.73c.22-.02.3.17.3.17.12.28-.13.42-.13.42.02.06.02.14.02.14.35.04.29.44.29.44l-.12-.1c-.2-.08-.41.09-.56.38s-.08.43-.05.77c.03.34.58.55.58.55,0,0-.26.68-.44,1.12s-.53.26-.63.16c-.1-.09-.13-.04-.18,0s.24.27-.29.48-.61.37-.7.43-.45.02-.49-.03c-.04-.04-.01-.04-.15-.13-.14-.08-.36-.16-.61-.28-.25-.12-.24-.28-.24-.31,0-.03.09-.29-.21-.09s-.54-.1-.54-.1c-.06-.08-.3-.73-.3-.73-.07-.24-.19-.53-.19-.53,0,0-.01.03.2-.09s.31-.33.39-.53,0-.55-.03-.62c-.03-.07-.19-.39-.39-.46s-.33.1-.33.1c0,0-.06-.4.29-.44,0,0,0-.08.02-.14,0,0-.25-.15-.13-.42,0,0,.08-.19.3-.17l-.05.1s-.06.56.77.19.8-.45,1.27-.21h.34s.5-.24.65-.14c.16.1.73.42.73.42,0,0,.55.21.66-.18l-.06-.18Z"/>
          <path class="cls-8" d="M25.66,11.74c-.13,0-.29-.03-.32-.06,0,0-.01-.02-.02-.02-.02-.02-.02-.04-.13-.1-.07-.04-.17-.09-.29-.13-.1-.04-.21-.09-.32-.14-.23-.11-.25-.26-.25-.32,0,0,0-.01,0-.02,0-.04.02-.11,0-.13-.02-.02-.07-.01-.18.07-.08.05-.15.07-.21.07-.2,0-.34-.17-.34-.17-.06-.08-.29-.71-.3-.73-.06-.24-.19-.52-.2-.53h0s.01-.02.01-.02h0s.03,0,.19-.09c.22-.13.31-.34.38-.53.07-.2,0-.54-.03-.62-.03-.08-.19-.39-.38-.46-.03-.01-.06-.02-.09-.02-.14,0-.22.11-.23.11v.02s-.02-.02-.02-.02c0,0-.03-.2.07-.33.05-.07.12-.11.22-.12,0-.02,0-.08.02-.13-.04-.03-.24-.18-.13-.43,0,0,.08-.18.28-.18.01,0,.02,0,.04,0h.02s0,.02,0,.02l-.05.1h0s-.01.17.1.25c.13.09.34.06.65-.08.13-.06.23-.11.32-.15.51-.24.56-.26.96-.06h.34s.5-.24.66-.14c.16.1.72.42.73.42,0,0,.31.11.5.01.07-.04.12-.1.14-.18l-.07-.19h.01s.02,0,.04,0c.2,0,.28.17.28.18.11.25-.09.41-.13.43.01.05.02.11.02.13.1.01.17.05.22.12.1.13.07.32.07.33v.02s-.13-.11-.13-.11c-.03-.01-.06-.02-.09-.02-.16,0-.32.14-.45.4-.11.22-.1.35-.07.56,0,.06.02.13.02.21.02.33.57.54.58.54h0s0,.01,0,.01l-.44,1.12c-.06.16-.15.25-.27.28-.03,0-.05,0-.08,0-.13,0-.25-.07-.3-.12-.08-.07-.11-.05-.15-.02l-.02.02s0,.03,0,.05c.04.09.1.27-.3.43-.4.16-.54.29-.63.37-.03.02-.05.04-.07.06-.03.02-.1.03-.18.03ZM24.3,10.78s.02,0,.03,0c.04.03.03.11.02.15,0,0,0,.01,0,.02,0,.05.01.19.24.3.11.06.22.1.32.14.12.05.22.09.29.14.11.07.12.08.14.11,0,0,0,.01.02.02.03.04.39.08.47.03.02-.01.04-.03.07-.05.09-.08.24-.21.64-.37.38-.15.32-.31.29-.4-.01-.03-.02-.06,0-.08,0,0,.01-.01.02-.02.04-.03.08-.07.18.02.07.06.22.14.36.11.11-.03.2-.12.26-.27l.43-1.11c-.08-.03-.56-.23-.58-.55,0-.08-.01-.15-.02-.21-.03-.21-.04-.34.08-.57.17-.32.38-.47.58-.39l.1.08c0-.05,0-.19-.07-.29-.05-.06-.12-.1-.21-.11h0s0-.09-.02-.15h0s0-.01,0-.01c.01,0,.24-.15.13-.41,0,0-.07-.16-.26-.16,0,0-.01,0-.02,0l.06.17h0c-.03.09-.08.16-.16.2-.21.1-.51,0-.52-.01,0,0-.58-.32-.73-.42-.03-.02-.06-.02-.11-.02-.2,0-.54.15-.54.16h-.35s0,0,0,0c-.39-.2-.43-.18-.94.06-.09.04-.2.09-.32.15-.32.14-.54.17-.67.08-.13-.09-.11-.27-.11-.27l.05-.09s-.01,0-.02,0c-.19,0-.26.16-.26.16-.11.26.13.41.13.41h0s0,.01,0,.01c-.02.06-.02.14-.02.14h0s0,.01,0,.01c-.09.01-.17.05-.21.11-.08.1-.07.24-.07.29.04-.04.17-.14.33-.08.2.07.36.38.39.47.03.08.1.43.03.63-.07.19-.17.41-.39.54-.12.07-.17.09-.19.1.03.06.13.3.19.51,0,0,.24.65.3.72,0,.01.24.3.53.1.08-.05.13-.08.17-.08Z"/>
        </g>
      </g>
      <g>
        <path class="cls-3" d="M25.25,9.18s-.03-.17-.06-.29c0,0-.06-.18.04-.3l.13-.15s.08-.11.18-.12c0,0,.1,0,.11-.02s.12-.2.38,0c0,0,.08-.13.21-.15,0,0,.14-.04.2.06,0,0,.15-.12.29.07,0,0,.18-.1.32.1,0,0,.18-.09.29.1s.09.27.09.27l.08.3.29.36-.68.26h-.31l-.61.16-1.08.08-.3-.36.43-.37Z"/>
        <path class="cls-2" d="M25.12,9.92h0s-.31-.37-.31-.37h0s.42-.38.42-.38c0-.03-.03-.18-.06-.28,0,0-.06-.18.05-.31l.13-.15s.08-.11.19-.13c.05,0,.09,0,.1-.02h0s.04-.07.12-.1c.08-.02.17.01.26.08.02-.03.1-.13.21-.15,0,0,.14-.04.21.06.02-.01.06-.03.11-.03,0,0,.02,0,.03,0,.06,0,.11.04.15.1.04-.02.2-.07.32.1.04-.01.2-.06.3.11.1.17.09.25.09.27l.08.29.3.37h-.02s-.69.26-.69.26h-.31l-.61.16-1.09.08ZM24.84,9.55l.29.34,1.08-.08.61-.16h.31l.66-.25-.28-.35-.08-.3h0s.02-.08-.09-.26c-.1-.17-.27-.1-.27-.09h-.01s0,0,0,0c-.12-.19-.29-.1-.3-.1h-.01s0,0,0,0c-.04-.06-.09-.09-.14-.1,0,0-.02,0-.02,0-.06,0-.1.03-.1.03h-.01s0,0,0,0c-.06-.09-.18-.06-.19-.06-.12.02-.2.15-.2.15h0s-.01,0-.01,0c-.1-.07-.18-.1-.25-.09-.07.02-.11.08-.11.08-.01.02-.07.03-.12.03-.09.01-.17.12-.17.12l-.13.15c-.1.12-.04.28-.04.29.03.11.06.29.06.29h0s0,.01,0,.01l-.42.36Z"/>
      </g>
      <g>
        <g>
          <path class="cls-6" d="M24.33,10.98s-.16,0-.24.05-.15.09-.24.15c0,0-.04.06-.23.02,0,0-.32-.08-.32.18,0,0-.39.03-.23.37,0,0,.11.27.33.08,0,0-.14.21.13.29,0,0,.2.05.25-.15,0,0,.03-.08-.04-.18,0,0,.1-.02.16-.12,0,0-.2.26.02.35,0,0,.28.07.3-.22,0,0-.02-.13.09-.18,0,0,.22-.05.32-.3,0,0-.32-.17-.29-.32h0Z"/>
          <path class="cls-8" d="M23.58,12.13s-.05,0-.05,0c-.09-.03-.15-.07-.17-.13-.02-.04,0-.09,0-.12-.05.03-.1.05-.15.03-.1-.02-.15-.14-.15-.15-.05-.1-.05-.19-.01-.25.06-.1.2-.13.24-.13,0-.06.02-.11.07-.14.1-.08.27-.04.28-.04.17.03.22-.02.22-.02.03-.02.05-.03.07-.05.06-.04.11-.07.17-.1.08-.04.24-.05.25-.05h0s0,0,.01,0c0,0,0,0,0,.01-.03.14.28.31.28.31,0,0,0,.01,0,.02-.1.25-.32.31-.33.31-.09.04-.08.16-.08.17,0,.09-.04.16-.09.2-.09.07-.22.04-.22.04-.06-.03-.1-.06-.11-.11-.01-.05,0-.11.02-.16-.03.02-.05.03-.07.03.06.1.04.17.03.18-.04.14-.15.17-.22.17ZM23.39,11.81s0,0,0,0c0,0,0,.01,0,.02,0,0-.05.08-.03.15.02.05.07.09.15.11,0,0,.18.04.24-.14,0,0,.03-.08-.04-.17,0,0,0,0,0-.01,0,0,0,0,.01,0,0,0,.08-.02.14-.09,0-.01.02-.02.02-.02,0,0,.01,0,.02,0,0,0,0,.01,0,.02,0,0-.01.02-.02.02-.03.04-.08.14-.06.21.01.04.04.07.09.09h0s.12.03.2-.03c.05-.04.07-.09.08-.18h0s-.02-.14.09-.19c0,0,.21-.05.31-.28-.06-.03-.29-.17-.29-.31-.04,0-.16.02-.22.05-.06.03-.11.06-.17.1-.02.01-.04.03-.07.04-.01.01-.07.06-.25.03,0,0-.17-.04-.25.03-.04.03-.06.07-.06.13,0,0,0,.01-.01.01,0,0-.17.02-.23.12-.03.06-.03.14.01.23,0,0,.05.11.14.13.05.02.11,0,.17-.06,0,0,0,0,0,0Z"/>
        </g>
        <g>
          <path class="cls-6" d="M23.68,8.42s-.25-.12-.37,0c0,0-.17-.1-.34,0,0,0-.17.11-.28.23,0,0-.08.07-.05.29,0,0,.04.15.02.23,0,0-.06-.01-.17.12,0,0-.14.16-.26.02,0,0,.04.2.27.17,0,0-.11.09-.01.31,0,0,.07.16-.04.36,0,0,.2-.08.19-.32,0,0-.02-.16.04-.27,0,0-.06.1.08.32,0,0,.11.16.02.32,0,0,.2-.07.18-.31s-.14-.14-.06-.36c0,0,.02.11.08.17s.14.15.1.31c0,0,.12-.15.09-.3s-.06-.2-.06-.2l.38-.21.19-.34v-.54Z"/>
          <path class="cls-8" d="M22.77,10.21s0,0-.01,0c0,0,0-.01,0-.02.08-.16-.02-.31-.02-.31-.06-.09-.08-.16-.09-.21-.01.08,0,.15,0,.15,0,.25-.2.33-.2.33,0,0-.01,0-.02,0,0,0,0-.01,0-.02.11-.19.04-.35.04-.35-.07-.17-.04-.26,0-.3h-.02c-.2,0-.23-.18-.23-.18,0,0,0-.01,0-.02s.01,0,.02,0c.03.04.07.05.1.05h0c.07,0,.14-.07.14-.07.09-.1.14-.12.17-.12.02-.08-.02-.21-.02-.21-.03-.22.05-.3.06-.3.11-.12.28-.23.28-.23.16-.09.31-.03.34,0,.12-.11.37,0,.38,0,0,0,0,0,0,.01v.54s0,0,0,0l-.19.34h0s-.36.21-.36.21c.01.02.03.08.05.19.03.16-.09.31-.09.31,0,0-.01,0-.02,0,0,0,0,0,0-.02.03-.15-.04-.25-.1-.3-.04-.03-.06-.09-.07-.13-.02.08,0,.09.01.12.02.03.05.07.06.19.02.25-.19.33-.19.33h0ZM22.69,9.56s-.05.11.08.31c0,0,.1.14.04.3.05-.03.15-.11.14-.28,0-.1-.04-.14-.06-.17-.03-.04-.05-.07,0-.2,0,0,0,0,.01,0h0s.01,0,.01.01c0,0,.02.11.07.16.03.03.12.12.12.27.03-.05.07-.15.06-.24-.03-.15-.06-.19-.06-.19,0,0,0,0,0-.01,0,0,0,0,0,0l.37-.21.18-.33v-.53s-.24-.09-.34,0c0,0-.01,0-.02,0,0,0-.16-.09-.32,0,0,0-.16.11-.28.23,0,0-.07.07-.05.27,0,0,.04.16.02.24,0,0,0,0-.02,0h0s-.06,0-.15.11c0,0-.07.08-.16.08-.03,0-.06,0-.08-.03.02.05.08.11.19.11.01,0,.03,0,.05,0,0,0,.01,0,.01,0s0,.01,0,.02c0,0-.1.09-.01.3,0,0,.06.15-.02.33.06-.04.15-.12.15-.28,0,0-.02-.16.04-.28,0,0,0,0,0,0,0,0,.01,0,.02,0,0,0,0,.01,0,.02h0Z"/>
        </g>
        <g>
          <path class="cls-8" d="M23.11,9.39s-.17-.01-.19-.14h.03c.02.1.17.11.17.11v.03Z"/>
          <path class="cls-8" d="M22.84,9.28c-.05,0-.09-.05-.09-.06-.04-.04-.08-.04-.09-.04h0v-.03s.06,0,.11.05c0,0,.03.04.07.04h0v.03s0,0,0,0Z"/>
        </g>
      </g>
      <path class="cls-8" d="M23.34,8.92s-.08,0-.13-.04c0,0-.05-.03-.07.02,0,0-.04.07.04.1,0,0,.1.05-.06.15,0,0,.18-.07.11-.16,0,0-.08-.06-.05-.08,0,0,0-.02.04,0,.03.02.1.01.12,0Z"/>
      <g>
        <path class="cls-9" d="M25.87,9.33l-.62-2.14h-.02s.55,2.17.55,2.17l.09-.03Z"/>
        <path class="cls-8" d="M25.76,9.37h0s-.55-2.19-.55-2.19h.04s0,0,0,0l.62,2.15h0s-.11.04-.11.04ZM25.24,7.2l.54,2.14.07-.03-.61-2.12h0Z"/>
      </g>
      <path class="cls-8" d="M23.71,11.73s-.15-.08-.27.01c0,0,.01-.05.1-.08,0,0,.05-.14.19-.13,0,0-.06.07-.13.13,0,0,.08,0,.11.07Z"/>
      <g>
        <path class="cls-1" d="M23.19,12.07s-.23-.15-.11-.39c0,0,.04-.07.11-.06,0,0,.14.04.03.25,0,0-.06.13-.03.2h0Z"/>
        <path class="cls-2" d="M23.19,12.08s-.24-.15-.11-.41c0,0,.03-.06.1-.06,0,0,.01,0,.02,0,0,0,.05.02.07.07.02.05,0,.11-.04.19,0,0-.05.13-.03.19h-.02ZM23.17,11.63c-.05,0-.08.05-.08.05-.1.19.03.32.08.36,0-.08.04-.18.04-.18.04-.07.05-.13.04-.17-.02-.04-.06-.06-.06-.06,0,0-.01,0-.02,0Z"/>
      </g>
      <g>
        <path class="cls-1" d="M23.66,12.3s-.33-.15-.23-.41c0,0,.03-.09.1-.08,0,0,.13,0,.1.18,0,0-.04.17.02.31h0Z"/>
        <path class="cls-2" d="M23.66,12.31s-.34-.16-.23-.42c0,0,.03-.09.11-.09h0s.05,0,.08.04c.03.03.04.08.03.14,0,0-.04.17.02.31h-.01ZM23.53,11.82c-.06,0-.09.07-.09.07-.08.2.13.34.2.38-.05-.14-.01-.29-.01-.29,0-.05,0-.1-.02-.13-.03-.03-.07-.04-.07-.04,0,0,0,0,0,0Z"/>
      </g>
      <path class="cls-8" d="M23.59,11.34s-.1.07-.14.12c0,0-.04-.05-.09-.08,0,0,.06,0,.09.02,0,0,.05-.05.14-.06Z"/>
      <g>
        <path class="cls-1" d="M23.89,12.23s.26-.07.21-.33c0,0-.03-.12-.14-.1,0,0-.13.03-.05.2,0,0,.05.12-.03.23h0Z"/>
        <path class="cls-2" d="M23.89,12.25v-.02c.07-.1.02-.22.02-.22-.03-.06-.04-.12-.02-.16.02-.05.07-.06.07-.06,0,0,.01,0,.02,0,.1,0,.13.11.13.11.05.27-.22.34-.22.35ZM23.97,11.81s-.04.01-.06.05c-.02.04,0,.08.02.14,0,0,.04.11-.01.22.06-.03.21-.11.17-.31,0,0-.02-.09-.1-.09,0,0-.01,0-.02,0h0Z"/>
      </g>
      <g>
        <path class="cls-5" d="M25.06,6.57s.17.05.26.09c0,0,.24.11.55,0,0,0,.21-.08.24-.09l-.16.24v.13s.09.15.09.15c0,0-.06.02-.24-.08,0,0-.2-.15-.43,0,0,0-.13.09-.24.08l.15-.17-.06-.15-.16-.19Z"/>
        <path class="cls-8" d="M26.01,7.1s-.1-.01-.23-.09c0,0-.2-.14-.42,0,0,0-.13.09-.24.09h-.04l.17-.19-.06-.15-.16-.19v-.02s.18.05.27.09c0,0,.24.11.54,0,0,0,.21-.08.24-.09l.02.02-.16.24v.12s.1.16.1.16h-.02s0,0-.02,0ZM25.58,6.92c.13,0,.22.07.23.07.11.07.17.08.2.08l-.09-.13h0s0-.14,0-.14l.14-.21c-.06.02-.15.06-.2.08-.31.11-.55,0-.56,0-.06-.02-.15-.05-.21-.07l.13.15.06.17h0s-.13.15-.13.15c.09-.01.19-.08.2-.08.08-.05.16-.07.22-.07Z"/>
      </g>
      <path class="cls-3" d="M23.99,11.91s0-.01,0-.02c0,0-.01,0-.02.01,0,0-.03.04,0,.1,0,0,.02.04.01.08,0,0,0,.01,0,.01,0,0,0,0,.01-.01,0,0,.01-.04,0-.08,0,0-.03-.06,0-.1h0Z"/>
      <g>
        <g>
          <path class="cls-6" d="M27.58,7.07s-.19.1-.26-.02c0,0-.1-.19.12-.26,0,0-.12-.15,0-.28,0,0,.07-.07.19-.02,0,0,.05-.1.17-.1,0,0,.1,0,.14.11,0,0,.14-.06.22.03,0,0,.13.14-.05.26h-.13s-.13-.05-.13-.05l-.14.04s.04.14-.12.29h0Z"/>
          <path class="cls-8" d="M27.43,7.12s-.1-.01-.13-.06c0,0-.05-.09-.01-.17.02-.05.06-.08.12-.11-.03-.04-.09-.17.02-.28,0,0,.07-.07.19-.03.02-.03.07-.1.17-.1,0,0,0,0,0,0h0s.1,0,.14.11c.04-.01.15-.04.22.03,0,0,.06.07.05.15,0,.05-.04.1-.1.13,0,0,0,0,0,0h-.13s0,.01,0,.01c0,0,0,0,0,0l-.12-.06-.12.04s0,.17-.13.29c0,0,0,0,0,0,0,0-.08.04-.15.04ZM27.54,6.48c-.06,0-.09.03-.09.03-.12.12-.01.26,0,.26,0,0,0,0,0,.01,0,0,0,0,0,0-.06.02-.11.05-.12.09-.03.07,0,.14.01.15.07.1.23.02.24.02.15-.14.12-.27.12-.28,0,0,0-.01,0-.02l.14-.04s0,0,0,0l.12.06h.12c.05-.04.08-.08.08-.12,0-.07-.04-.12-.04-.12-.07-.08-.2-.02-.2-.02,0,0,0,0-.01,0s0,0,0,0c-.03-.1-.12-.1-.12-.1h0c-.1,0-.15.09-.15.09,0,0-.01,0-.02,0-.03-.01-.06-.02-.08-.02Z"/>
        </g>
        <g>
          <path class="cls-5" d="M26.1,6.92s0,.04-.04.04c0,0-.04.01-.06-.04,0,0,0-.01,0-.02,0-.02-.01-.09.06-.14,0,0,.12-.1.34.02,0,0,.18.09.3.16,0,0,.32.17.36.18,0,0,.14.07.35.08,0,0,.29.02.42-.18,0,0,.09-.16,0-.26,0,0-.04-.04-.1-.04-.03,0-.06.02-.08.05,0,0-.05.07,0,.12,0,0,.07.04.09-.05,0,0,0,0,0,0,0,0,.02.07-.02.13,0,0-.18.27-.66,0l-.64-.36s-.32-.16-.51.09c0,0-.15.21.04.35,0,0,.15.09.24-.05,0,0,.08-.14-.04-.2,0,0-.11-.05-.15.06s.08.13.09.06c0,0,0-.02,0,0h0Z"/>
          <path class="cls-8" d="M27.43,7.22s-.03,0-.03,0c-.21,0-.35-.08-.36-.08-.04-.01-.34-.18-.36-.18-.12-.07-.3-.16-.3-.16-.21-.11-.32-.03-.33-.02,0,0-.01,0-.02.01,0,0,0,0,0,0,.05-.02.1,0,.1,0,.04.02.06.04.07.08.02.07-.02.14-.02.14-.1.15-.26.06-.26.06-.06-.04-.1-.09-.11-.15-.02-.11.05-.21.06-.22.2-.27.53-.1.53-.1l.64.36c.46.26.63.03.64.01.02-.03.02-.06.02-.08,0,0-.02.02-.03.02-.04.01-.06,0-.07,0-.05-.05-.03-.11-.01-.13.03-.03.06-.05.09-.05,0,0,.01,0,.02,0,.06,0,.09.04.1.04.1.11,0,.27,0,.27-.11.18-.33.19-.4.19ZM26.19,6.71c.06,0,.13.01.21.06,0,0,.18.09.3.16.09.05.32.17.35.18,0,0,.14.07.35.08,0,0,.29.02.4-.18,0,0,.09-.15,0-.24,0,0-.03-.03-.07-.03,0,0,0,0-.01,0-.03,0-.05.02-.07.04,0,0-.04.05,0,.09h0s.02,0,.04,0c.01,0,.02-.02.03-.04h0s.01-.01.01-.01h.02s.02.1-.02.16c0,0-.19.28-.68,0l-.64-.36s-.31-.16-.49.09c0,0-.07.1-.05.2,0,.05.04.1.09.14,0,0,.14.08.22-.05h0s.03-.06.02-.12c0-.03-.03-.05-.06-.06,0,0-.04-.02-.08,0-.02,0-.04.03-.05.05,0,.01,0,.02,0,.03h0s0,.02,0,.02c0,0,0,.02.02.02,0,0,.02,0,.03,0,.01,0,.02-.01.02-.03,0,0,0-.02.02-.02h0s.02.01.02.02h0s0,0,0,0c0,.02-.01.05-.05.06,0,0-.03,0-.04,0,0,0-.01,0-.02-.01-.01-.01-.02-.03-.02-.05,0-.03,0-.09.07-.15,0,0,.05-.04.14-.04Z"/>
        </g>
        <g>
          <g>
            <path class="cls-4" d="M23.56,8.02v-.4s0-.06.05-.1.1-.1.17.07c0,0,.14-.15.19-.17,0,0,.08-.07.14.03,0,0,.08-.12.14-.14,0,0,.14-.09.15.19l.11-.1s.09-.07.18.03c0,0,.16.16.18.2,0,0,.04.05.04.13,0,0,0,.09.04.13,0,0,.05.04.1.05,0,0,.12,0,.16.11,0,0,.02-.02.08.5v.95l-.64.77-1.03-.29-.41-.17-.09-.3.4-.26.22-.58-.07-.41-.1-.23Z"/>
            <path class="cls-8" d="M24.65,10.28l-1.04-.3-.42-.17h0s-.09-.31-.09-.31h0s.39-.26.39-.26l.21-.58-.07-.41-.1-.24v-.4s0-.06.05-.1h0s.04-.04.07-.04c0,0,0,0,.01,0,.03,0,.06.04.09.11.03-.04.14-.15.18-.17h0s.04-.03.08-.02c.02,0,.05.02.06.05.02-.03.08-.11.13-.13,0,0,.05-.03.09,0,.04.02.07.08.07.18l.09-.09s.1-.07.2.03c0,0,.16.16.19.21,0,0,.04.05.04.13,0,0,0,.08.04.13h0s.05.04.09.05h0s.12,0,.16.12c.01.01.03.08.08.51v.96h0s-.65.77-.65.77ZM23.22,9.8l.41.17,1.02.29.64-.76v-.95c-.04-.36-.06-.46-.07-.49h0s0-.01,0-.01c-.04-.1-.14-.11-.15-.11-.05,0-.1-.05-.11-.06-.05-.05-.05-.14-.05-.14,0-.07-.04-.12-.04-.12-.02-.04-.13-.15-.18-.2-.08-.09-.16-.03-.17-.03l-.13.12v-.02c0-.13-.04-.17-.06-.18-.03-.02-.07,0-.07,0-.06.03-.13.14-.13.14h0s0,0,0,0c-.02-.03-.04-.04-.06-.05-.03,0-.07.02-.07.02-.04.02-.14.12-.19.17h-.01s0,0,0,0c-.03-.07-.05-.1-.08-.11,0,0,0,0,0,0-.02,0-.04.02-.06.03h0s-.04.07-.04.1v.4l.1.23.07.42h0s-.22.59-.22.59l-.39.25.09.29Z"/>
          </g>
          <g>
            <path class="cls-9" d="M26.4,8.53l.05-.07.12-.09s.18.47.19.57v.14s.27.07.31.48l-.22.41-.35-.19-.1-.07v-1.17h0Z"/>
            <path class="cls-8" d="M26.85,9.98h0s-.34-.2-.34-.2l-.11-.08v-1.18s.05-.07.05-.07l.13-.1h0s.18.48.19.59v.14s.27.11.31.49h0s-.23.42-.23.42ZM26.41,9.69l.09.07.33.19.21-.39c-.05-.39-.3-.47-.31-.47h0v-.16c0-.09-.15-.48-.18-.55l-.1.08-.04.07v1.16Z"/>
          </g>
        </g>
      </g>
      <path class="cls-3" d="M23.13,11.74s.01-.02,0-.02c0,0,0,0-.02.01,0,0-.07.08-.01.2,0,0,0,.02.02.01,0,0,0,0,0-.02,0,0-.05-.1.01-.18Z"/>
      <g>
        <path class="cls-8" d="M24.18,11.66h-.03s.01,0,.01,0h-.01s0-.04-.01-.07c0,0-.02-.03-.01-.08h.03s0,.06,0,.06c.03.04.02.08.02.09Z"/>
        <path class="cls-8" d="M24.55,7.95s-.04-.11-.08-.16c-.02-.04-.04-.08-.06-.1-.03-.08-.03-.17-.03-.18h.02s0,.1.03.17c.01.03.03.06.05.1.04.06.07.13.08.17h-.02Z"/>
        <g>
          <path class="cls-6" d="M26.82,10.98s.16,0,.24.05.15.09.24.15c0,0,.04.06.23.02,0,0,.32-.08.32.18,0,0,.39.03.23.37,0,0-.11.27-.33.08,0,0,.14.21-.13.29,0,0-.2.05-.25-.15,0,0-.03-.08.04-.18,0,0-.1-.02-.16-.12,0,0,.2.26-.02.35,0,0-.28.07-.3-.22,0,0,.02-.13-.09-.18,0,0-.22-.05-.32-.3,0,0,.32-.17.29-.32h0Z"/>
          <path class="cls-8" d="M27.58,12.13c-.07,0-.18-.02-.22-.17,0,0-.03-.08.03-.18-.02,0-.04-.02-.07-.03.02.05.04.1.02.16-.01.05-.05.09-.11.11,0,0-.13.03-.23-.04-.05-.04-.08-.11-.09-.2,0,0,.02-.13-.08-.17,0,0-.23-.05-.33-.31,0,0,0-.01,0-.02,0,0,.31-.17.28-.31,0,0,0,0,0-.01,0,0,0,0,.01,0h0s.17,0,.25.05c.06.03.12.07.18.11.02.01.04.03.06.04,0,0,0,0,0,0,0,0,.05.05.22.02,0,0,.18-.04.28.04.04.03.06.08.07.14.04,0,.18.03.24.13.04.07.03.15-.01.26,0,0-.05.12-.15.15-.05.02-.1,0-.15-.03.01.03.02.08,0,.12-.02.06-.08.1-.17.13,0,0-.02,0-.05,0ZM27.28,11.67c.06.08.14.09.14.09,0,0,0,0,.01,0,0,0,0,0,0,.01-.07.09-.04.16-.04.17.05.19.23.15.24.14.08-.02.13-.06.15-.11.03-.07-.03-.15-.03-.15,0,0,0-.01,0-.02,0,0,.01,0,.02,0,.05.04.1.06.14.06.01,0,.02,0,.03,0,.09-.02.13-.13.13-.13.04-.09.05-.17.01-.23-.06-.11-.23-.12-.23-.12,0,0-.01,0-.01-.01,0-.06-.02-.1-.06-.13-.09-.07-.25-.03-.25-.03-.18.04-.23-.01-.25-.03-.02-.01-.04-.03-.06-.04-.06-.04-.12-.07-.18-.11s-.18-.04-.22-.05c0,.14-.23.28-.29.31.1.23.31.28.31.28.12.05.1.2.1.2,0,.08.03.14.08.17.08.06.2.03.2.03.05-.02.08-.05.09-.09.02-.08-.04-.17-.06-.21,0,0-.01-.01-.02-.02,0,0,0-.01,0-.02,0,0,.01,0,.02,0,0,0,0,0,.02.02Z"/>
        </g>
        <g>
          <g>
            <polygon class="cls-8" points="24.52 10.08 24.26 7.94 24.28 7.94 24.55 10.08 24.52 10.08"/>
            <polygon class="cls-8" points="24.62 9.93 24.32 7.94 24.34 7.94 24.64 9.93 24.62 9.93"/>
            <polygon class="cls-8" points="24.72 9.91 24.38 7.93 24.4 7.93 24.74 9.9 24.72 9.91"/>
          </g>
          <g>
            <path class="cls-9" d="M25.02,9.7l-.62-2.14h-.02s.55,2.17.55,2.17l.09-.03Z"/>
            <path class="cls-8" d="M24.92,9.75h0s-.55-2.19-.55-2.19h.04s0,0,0,0l.62,2.15h0s-.11.04-.11.04ZM24.39,7.58l.54,2.14.07-.03-.61-2.12h0Z"/>
          </g>
          <g>
            <polygon class="cls-8" points="25.19 9.44 24.57 7.86 24.59 7.85 25.21 9.43 25.19 9.44"/>
            <polygon class="cls-8" points="25.13 9.53 24.53 7.88 24.54 7.87 25.15 9.53 25.13 9.53"/>
          </g>
        </g>
      </g>
      <path class="cls-3" d="M23.54,12.15s-.07-.07-.06-.19c0,0,0-.03,0-.03,0,0-.01,0-.02.03,0,0-.02.13.07.21,0,0,0,0,.02,0,0,0,.01,0,0-.01Z"/>
      <g>
        <polygon class="cls-8" points="25.24 9.28 24.6 7.83 24.62 7.83 25.26 9.27 25.24 9.28"/>
        <polygon class="cls-8" points="24.81 9.86 24.42 7.92 24.44 7.92 24.83 9.86 24.81 9.86"/>
        <g>
          <path class="cls-5" d="M27.67,9.36c-.28-.16-.34-.52-.34-.52-.07-.35.07-.63.07-.63.18-.39.5-.46.5-.46,0,0-.31.21-.39.5,0,0-.07.24-.03.48.04.24.02.18.08.36l.12.27Z"/>
          <path class="cls-8" d="M27.66,9.37c-.29-.16-.35-.51-.35-.53-.07-.36.07-.64.07-.64.18-.39.5-.46.51-.47v.03s-.29.21-.38.49c0,0-.07.24-.03.47v.07q.03.13.06.22l.02.06.12.26-.02.02ZM27.81,7.8c-.1.05-.28.17-.4.42,0,0-.14.28-.07.63,0,0,.06.32.3.48l-.1-.22-.02-.06q-.03-.1-.05-.23v-.07c-.05-.24.02-.48.02-.49.06-.2.23-.37.32-.45Z"/>
        </g>
        <g>
          <path class="cls-9" d="M26.45,8.46l-1.19.38-.06.53c-.28.41-.85.48-.85.48l.45.47.86.18.45-.35.41-.38c-.04-.2-.02-.5-.02-.5,0-.05.02-.17.02-.17,0,0-.07-.48-.05-.65h0Z"/>
          <path class="cls-8" d="M25.65,10.5h0s-.86-.18-.86-.18l-.46-.49h.01s.57-.08.85-.48l.06-.53h0s1.2-.38,1.2-.38h0c-.02.17.05.65.05.66,0,0-.02.12-.02.17,0,0-.02.3.02.5h0s0,0,0,0l-.41.38-.45.35ZM24.35,9.84l.44.46.85.18.45-.34.4-.37c-.04-.2-.02-.49-.02-.5,0-.05.02-.16.02-.17,0,0-.07-.46-.05-.64l-1.17.37-.06.53c-.26.38-.76.47-.85.48Z"/>
        </g>
        <g>
          <path class="cls-8" d="M25.22,9.24v-.02s.78-.25,1.24-.44v.02c-.45.19-1.23.44-1.24.44Z"/>
          <path class="cls-8" d="M24.84,9.68v-.02s.98-.18,1.66-.57l.25-.17v.02s-.24.17-.24.17c-.68.39-1.66.57-1.67.57Z"/>
          <path class="cls-8" d="M24.56,9.8v-.02c.82-.01,1.91-.51,1.92-.52l.27-.19v.02s-.26.19-.26.19c-.01,0-1.1.5-1.93.52Z"/>
          <path class="cls-8" d="M25.16,10.08v-.02c.47,0,1.31-.43,1.32-.44v.02s-.84.43-1.32.44Z"/>
        </g>
        <g>
          <path class="cls-6" d="M27.48,8.42s.25-.12.37,0c0,0,.17-.1.34,0,0,0,.17.11.28.23,0,0,.08.07.05.29,0,0-.04.15-.02.23,0,0,.06-.01.17.12,0,0,.14.16.26.02,0,0-.04.2-.27.17,0,0,.11.09.01.31,0,0-.07.16.04.36,0,0-.2-.08-.19-.32,0,0,.02-.16-.04-.27,0,0,.06.1-.08.32,0,0-.11.16-.02.32,0,0-.2-.07-.18-.31.02-.24.14-.14.06-.36,0,0-.02.11-.08.17-.06.06-.14.15-.1.31,0,0-.12-.15-.09-.3s.06-.2.06-.2l-.38-.21-.19-.34v-.54Z"/>
          <path class="cls-8" d="M28.39,10.21h0s-.21-.08-.19-.33c0-.11.04-.15.06-.19.02-.03.04-.05.02-.12-.01.04-.03.09-.07.13-.06.06-.13.15-.1.3,0,0,0,.01,0,.02,0,0-.01,0-.02,0,0,0-.12-.15-.09-.31.02-.11.04-.17.05-.19l-.36-.21h0s-.19-.34-.19-.34c0,0,0,0,0,0v-.54s0-.01,0-.01c0,0,.25-.11.38,0,.04-.02.19-.09.34,0,0,0,.17.11.28.23,0,0,.08.08.05.3,0,0-.04.14-.02.21.02,0,.08.02.17.12,0,0,.06.07.14.07.04,0,.07-.02.1-.05,0,0,0,0,.02,0,0,0,0,0,0,.02,0,0-.04.18-.23.18h-.02s.07.14,0,.3c0,0-.07.16.04.35,0,0,0,.01,0,.02,0,0-.01,0-.02,0,0,0-.21-.09-.2-.33,0,0,0-.08,0-.16,0,.05-.03.12-.09.21,0,0-.1.15-.02.31,0,0,0,.01,0,.02,0,0,0,0-.01,0ZM28.27,9.51s.01,0,.01,0c.04.12.03.16,0,.2-.02.03-.05.07-.06.17-.01.17.08.25.14.28-.06-.16.03-.29.04-.3.12-.2.08-.3.08-.31,0,0,0,0,0,0,0,0,0-.02,0-.02,0,0,.02,0,.02,0,0,0,0,0,0,0,.06.12.04.27.04.28,0,.16.09.25.15.28-.09-.19-.03-.33-.02-.33.09-.21,0-.29-.01-.3,0,0,0-.01,0-.02,0,0,0,0,.01,0,.02,0,.03,0,.05,0,.11,0,.16-.06.19-.11-.02.02-.05.03-.08.03h0c-.09,0-.16-.08-.16-.08-.09-.11-.14-.11-.15-.11h0s-.01,0-.01,0c-.03-.08.02-.23.02-.24.03-.2-.05-.27-.05-.27-.11-.12-.28-.23-.28-.23-.17-.1-.32,0-.32,0,0,0-.01,0-.02,0-.1-.09-.3-.02-.34,0v.53s.19.33.19.33l.37.21s0,0,0,0c0,0,0,0,0,.01,0,0-.03.05-.05.19-.02.09.02.18.06.24,0-.13.06-.21.12-.27.06-.05.08-.16.08-.16,0,0,0-.01.01-.01h0Z"/>
        </g>
      </g>
      <g>
        <path class="cls-3" d="M23.23,9.77s.03-.17.19-.1c0,0,.05-.27.34-.28.29,0,.31.28.31.3,0,0,.08-.13.23-.11,0,0,.24-.01.15.38l.05.05s.19-.44.57-.32c0,0,.38.11.13.48,0,0,.19.24.34.22s.3-.07.45-.35.52-.32.61-.3.17.08.18.14c0,0,.19-.64.88-.54l.28.14.1.05-.16.44-.38.86-.29.09-.3-.17-.1.06v.26s-.41.29-.41.29l-.28.11-.31.21-.07.19s-.17-.07-.36,0l-.06-.15-.18-.17-.69-.33-.12-.4-.13-.06-.14.16-.21.02-.31-.21-.33-.95Z"/>
        <path class="cls-2" d="M25.77,11.87h-.01s-.16-.07-.35,0h-.01s-.07-.16-.07-.16l-.18-.17-.69-.33h0s-.12-.4-.12-.4l-.11-.05-.14.16h0l-.21.03h0s-.31-.22-.31-.22l-.33-.95h0s.02-.08.08-.12c.03-.02.07-.02.12,0,.02-.06.1-.27.35-.28,0,0,0,0,.01,0,.08,0,.15.03.21.08.07.07.09.16.1.2.03-.04.1-.09.19-.09,0,0,.02,0,.02,0,0,0,0,0,0,0,.02,0,.08,0,.13.06.06.07.07.18.03.33l.03.03c.04-.07.19-.33.45-.33.04,0,.08,0,.13.02,0,0,.16.05.21.19.03.09,0,.19-.07.3.03.04.18.21.3.21,0,0,.01,0,.02,0,.15-.02.29-.06.44-.34.14-.25.45-.31.58-.31.02,0,.03,0,.04,0,.08.01.15.06.18.11.05-.12.25-.52.74-.52.04,0,.09,0,.14.01l.28.14.12.05h0s-.16.45-.16.45l-.38.87h0s-.29.09-.29.09h0s-.29-.17-.29-.17l-.09.05v.26s-.01,0-.01,0l-.4.29-.28.12-.3.2-.08.2ZM24.48,11.19l.69.32.18.18.06.14c.16-.06.3-.02.34,0l.07-.18h0s.3-.21.3-.21l.28-.12.39-.28v-.26s.02,0,.02,0l.11-.06.3.17.28-.08.38-.86.15-.43-.09-.04-.28-.14c-.67-.09-.85.51-.86.53l-.02.05v-.05c-.03-.06-.1-.12-.18-.13-.01,0-.02,0-.04,0-.12,0-.42.06-.55.3-.16.29-.31.33-.46.35,0,0-.02,0-.02,0-.16,0-.32-.21-.33-.22h0s0-.02,0-.02c.07-.11.1-.21.07-.29-.04-.12-.19-.17-.19-.17-.37-.11-.55.31-.55.32v.02s-.08-.07-.08-.07h0c.03-.15.02-.26-.02-.32-.05-.05-.11-.05-.11-.05,0,0-.01,0-.02,0-.12,0-.19.1-.19.11l-.03.04v-.05s0-.13-.09-.22c-.05-.04-.11-.07-.19-.07h-.01c-.27,0-.33.26-.33.27v.02s-.02,0-.02,0c-.04-.02-.08-.02-.11,0-.04.02-.06.08-.06.09l.33.94.3.2.2-.02.14-.17h0s.13.06.13.06h0s.12.4.12.4Z"/>
      </g>
      <g>
        <g>
          <g>
            <path class="cls-8" d="M25.98,6.9c0-.09.02-.16.07-.2.08-.08.19-.07.2-.07v.03s-.11,0-.18.07c-.04.04-.06.1-.06.18h-.03Z"/>
            <g>
              <path class="cls-5" d="M27.98,9.54c-.46-.14-.58-.63-.58-.63-.09-.37.06-.69.06-.69.21-.49.56-.49.56-.49.18,0,.2.15.2.15.02.11-.06.15-.06.15-.12.07-.2-.02-.2-.02-.05-.07-.01-.13-.01-.13.03-.04.09-.02.09-.02.05.01.04.07.04.07,0,0,0,0,0,0,0,0,0,0,0,0,0,0,.01-.07-.06-.08,0,0-.14-.03-.3.17,0,0-.21.27-.21.63,0,0-.03.66.66.83,0,0-.07.11-.21.5,0,0-.15.5-.29.77,0,0-.19.38-.61.23,0,0-.25-.11-.25-.29,0,0-.02-.17.13-.18,0,0,.15-.01.15.12,0,0,0,.14-.16.11,0,0-.06-.01-.05-.07,0,0,0-.05.08-.03,0,0,0,0,0,0,0,0,0,0,0,0,0,0-.03-.01-.05,0,0,0-.02,0-.03.05,0,0,0,.03.03.05,0,0,.04.01.07.01,0,0,.04.09.14.12.13.04.25,0,.31-.05.07-.06.12-.16.14-.19s.14-.3.23-.6c0,0,.08-.26.15-.39l.03-.05Z"/>
              <path class="cls-8" d="M27.25,11.01c-.06,0-.13-.01-.2-.04-.01,0-.26-.12-.26-.31,0,0,0-.08.04-.14.03-.03.06-.05.11-.05,0,0,.08,0,.13.04.02.02.04.05.04.09,0,0,0,.06-.04.1-.01.01-.03.02-.05.02.02.03.06.07.12.09.16.05.26-.02.3-.05.06-.05.1-.13.12-.17,0,0,0-.01,0-.01.01-.03.14-.31.23-.6,0,0,.08-.26.15-.39l.02-.04c-.45-.15-.58-.63-.58-.64-.09-.37.06-.7.06-.7.21-.5.57-.5.58-.5,0,0,0,0,0,0,.18,0,.2.16.2.16.02.12-.06.16-.07.16-.13.07-.22-.03-.22-.03-.04-.06-.03-.11-.01-.14-.05.02-.12.06-.2.16,0,0-.21.27-.21.62,0,0-.02.65.65.82h.02s-.01.02-.01.02c0,0-.08.11-.21.49,0,0-.15.5-.29.77,0,0-.14.27-.43.27ZM26.95,10.5h0s-.07.02-.09.04c-.04.05-.03.12-.03.12,0,.17.24.28.24.28.07.03.13.04.19.04.27,0,.4-.25.4-.26.14-.27.29-.76.29-.77.1-.31.17-.44.2-.48-.67-.18-.66-.84-.65-.84,0-.35.21-.63.22-.63.17-.21.31-.18.31-.18.02,0,.04.01.05.03.02.02.02.05.02.06h0s-.03.02-.03.02v-.02s0-.05-.03-.06c0,0-.05-.02-.08.02,0,0-.03.05.01.11,0,0,.07.08.18.02,0,0,.07-.04.05-.13,0,0-.02-.14-.18-.14h0s-.35,0-.55.49c0,0-.15.32-.06.68,0,0,.13.49.58.62h.02s-.03.07-.03.07c-.06.13-.14.39-.15.39-.09.3-.22.58-.23.6,0,0,0,0,0,.01-.02.04-.07.12-.13.18-.03.03-.11.07-.21.07-.04,0-.07,0-.11-.02-.08-.03-.13-.09-.14-.12h0s-.06-.01-.07-.01c-.04-.02-.04-.06-.04-.06,0-.05.03-.06.04-.06.03,0,.05,0,.06,0h.01v.02s0,.01,0,.01h-.01s-.04-.01-.04,0c-.01,0-.01.02-.01.02,0,.04.03.05.04.05.05,0,.08,0,.11-.02.03-.03.03-.07.03-.08,0-.03,0-.05-.03-.07-.03-.03-.08-.03-.1-.03Z"/>
            </g>
            <g>
              <path class="cls-5" d="M26.68,10.8s.09-.01.09.06c0,0,0,.11-.14.09,0,0-.13-.03-.09-.18,0,0,.03-.11.16-.09,0,0,.12,0,.18.17,0,0,.04.14-.03.26-.08.14-.28.23-.38.26,0,0-.39.15-.5.24,0,0-.18.13-.1.25,0,0,.03.05.08.05,0,0,.05,0,.06-.05,0,0,0,0,0,0,0,0,0,0,0,0,0,0,0,.03-.03.04,0,0-.04.02-.08-.01,0,0-.04-.04,0-.1,0,0,.05-.08.15-.03,0,0,.09.05.06.15,0,0-.03.09-.15.09,0,0-.09,0-.14-.06-.09-.09-.09-.26-.01-.35,0,0,.07-.1.21-.15.08-.03.24-.1.4-.17.11-.04.22-.1.29-.18,0,0,.06-.07.08-.18,0,0,.02-.09-.04-.11,0,0-.03-.01-.06,0,0,0,0,0,0,0,0,0,0,0,0,0Z"/>
              <path class="cls-8" d="M25.95,12.02s-.09,0-.15-.06c-.09-.09-.1-.28-.02-.37,0,0,.07-.1.22-.16.03-.01.07-.03.12-.05.08-.03.18-.08.28-.11.14-.05.22-.11.28-.17,0,0,.05-.06.07-.15,0,0,0,0-.01.01-.02.02-.05.02-.08.02-.01,0-.02,0-.04,0,0,0-.06-.01-.09-.07-.02-.04-.02-.08,0-.13,0,0,.03-.1.15-.1,0,0,.02,0,.03,0,0,0,.13,0,.19.18,0,0,.04.15-.03.27-.06.1-.19.19-.38.27,0,0-.39.15-.5.24,0,0-.12.09-.11.18,0,0,0-.02.01-.03,0,0,.06-.09.17-.04.04.02.1.08.06.16,0,0-.04.1-.16.1ZM26.7,10.78s.05,0,.05,0c.06.02.04.12.04.12-.02.12-.08.19-.08.19-.06.07-.15.13-.29.18-.1.04-.2.08-.28.12-.05.02-.09.04-.12.05-.14.06-.21.15-.21.15-.07.09-.07.25.01.33.05.05.13.06.13.06.1,0,.13-.08.13-.08.03-.09-.05-.13-.05-.13-.09-.04-.13.02-.13.03-.03.05,0,.08,0,.08.03.03.06.01.06.01.02,0,.02-.03.02-.03h0s.02-.01.02-.01v.02c0,.05-.04.06-.07.06,0,0,0,0,0,0-.05,0-.08-.05-.09-.05-.08-.13.09-.27.1-.27.12-.09.49-.23.51-.24.19-.08.31-.17.37-.26.07-.12.03-.25.03-.25-.05-.16-.16-.16-.16-.16,0,0-.02,0-.02,0-.1,0-.12.08-.12.08-.01.04-.01.08,0,.11.02.04.07.05.07.05.04,0,.07,0,.09-.01.03-.02.03-.06.03-.06,0-.02,0-.03-.01-.04-.02-.02-.05-.01-.06-.01h-.01v-.02s0,0,0,0h0s.01,0,.01,0c0,0,0,0,.01,0Z"/>
            </g>
            <path class="cls-8" d="M26.87,11.01s-.04-.11-.04-.11c-.04-.08-.1-.09-.13-.09h-.01v-.03s0,0,.01,0c.03,0,.1.01.15.1,0,0,.04.08.04.12h-.03Z"/>
            <path class="cls-8" d="M27.02,10.95s0,0-.01,0c-.04-.02-.11-.07-.15-.19-.02-.05-.02-.1,0-.13.02-.04.06-.04.06-.04v.03s-.02,0-.03.03c-.01.02-.01.06,0,.1.04.11.11.15.14.17,0,0,0,0,.01,0l-.02.02ZM26.92,10.62h0s0,0,0,0h0Z"/>
            <g>
              <path class="cls-5" d="M25.06,6.92s0,.04.04.04c0,0,.04.01.06-.04,0,0,0-.01,0-.02,0-.02.01-.09-.06-.14,0,0-.12-.1-.34.02,0,0-.18.09-.3.16,0,0-.32.17-.36.18,0,0-.14.07-.35.08,0,0-.29.02-.42-.18,0,0-.09-.16,0-.26,0,0,.04-.04.1-.04.03,0,.06.02.08.05,0,0,.05.07,0,.12,0,0-.07.04-.09-.05,0,0,0,0,0,0,0,0-.02.07.02.13,0,0,.18.27.66,0l.64-.36s.32-.16.51.09c0,0,.15.21-.04.35,0,0-.15.09-.24-.05,0,0-.08-.14.04-.2,0,0,.11-.05.15.06s-.08.13-.09.06c0,0,0-.02,0,0h0Z"/>
              <path class="cls-8" d="M23.73,7.22c-.08,0-.3-.02-.4-.19,0,0-.1-.17,0-.27,0,0,.04-.04.09-.04,0,0,.01,0,.02,0,.03,0,.07.02.09.05.02.03.04.09,0,.14,0,0-.04.02-.07,0-.01,0-.02-.01-.03-.02,0,.02,0,.05.02.08,0,.01.17.25.64-.01l.64-.36s.33-.17.53.1c0,0,.08.11.06.22-.01.06-.05.11-.11.15,0,0-.16.09-.26-.06,0,0-.04-.08-.02-.14.01-.03.03-.06.07-.08,0,0,.05-.03.1,0h0s-.01,0-.02-.01c0,0-.12-.09-.33.02,0,0-.18.09-.3.16-.01,0-.32.17-.36.19,0,0-.14.07-.36.08,0,0-.01,0-.03,0ZM23.42,6.74s-.07.03-.07.03c-.09.09,0,.24,0,.24.12.19.4.18.4.18.21,0,.35-.08.35-.08.03-.01.27-.14.36-.18.12-.07.3-.16.3-.16.23-.12.35-.02.36-.02.08.06.07.13.07.16h0s0,.01,0,.02h0s0,.02-.02.03c-.02.02-.05.03-.07.02,0,0,0,0,0,0-.03,0-.05-.04-.05-.05h0s0,0,0,0c0,0,0-.02.02-.02h0s.01,0,.02.02c0,.01,0,.02.02.03,0,0,0,0,0,0,0,0,.03.01.05-.03,0,0,0,0,0,0,0,0,0,0,0-.01,0-.01,0-.03,0-.04-.01-.03-.03-.04-.05-.05-.04-.01-.08,0-.08,0-.03.01-.05.04-.05.06-.02.06.02.12.02.12.08.13.21.05.22.05.05-.04.08-.08.09-.14.02-.1-.05-.2-.05-.2-.18-.25-.48-.1-.49-.09l-.64.36c-.49.28-.68,0-.68,0-.04-.06-.03-.13-.02-.14h0s.01-.01.01-.01h.01s0,.01,0,.01c0,.02.02.04.03.04.02,0,.04,0,.04,0,.04-.04,0-.09,0-.1-.02-.02-.05-.04-.07-.04,0,0,0,0-.01,0Z"/>
            </g>
            <g>
              <path class="cls-5" d="M23.49,9.36c.28-.16.34-.52.34-.52.07-.35-.07-.63-.07-.63-.18-.39-.5-.46-.5-.46,0,0,.31.21.39.5,0,0,.07.24.03.48-.04.24-.02.18-.08.36l-.12.27Z"/>
              <path class="cls-8" d="M23.5,9.37l-.02-.02.12-.27.02-.06q.03-.09.05-.22v-.07c.05-.23-.02-.47-.02-.47-.08-.28-.38-.49-.39-.49v-.03s.33.08.52.47c0,0,.14.29.07.64,0,.01-.07.36-.35.53ZM23.35,7.8c.1.08.26.25.32.45,0,0,.07.25.03.49v.07q-.03.13-.06.23l-.02.06-.1.23c.24-.16.3-.48.3-.48.07-.35-.07-.62-.07-.63-.12-.25-.3-.37-.4-.42Z"/>
            </g>
            <path class="cls-8" d="M25.18,6.9h-.03c0-.08-.02-.14-.06-.18-.06-.06-.16-.07-.17-.07h0v-.03s0,0,0,0c.03,0,.12,0,.19.07.05.05.07.12.07.2Z"/>
            <g>
              <path class="cls-5" d="M23.18,9.54c.46-.14.58-.63.58-.63.09-.37-.06-.69-.06-.69-.21-.49-.56-.49-.56-.49-.18,0-.2.15-.2.15-.02.11.06.15.06.15.12.07.2-.02.2-.02.05-.07.01-.13.01-.13-.03-.04-.09-.02-.09-.02-.05.01-.04.07-.04.07,0,0,0,0,0,0,0,0,0,0,0,0,0,0-.01-.07.06-.08,0,0,.14-.03.3.17,0,0,.21.27.21.63,0,0,.03.66-.66.83,0,0,.07.11.21.5,0,0,.15.5.29.77,0,0,.19.38.61.23,0,0,.25-.11.25-.29,0,0,.02-.17-.13-.18,0,0-.15-.01-.15.12,0,0,0,.14.16.11,0,0,.06-.01.05-.07,0,0,0-.05-.08-.03,0,0,0,0,0,0,0,0,0,0,0,0,0,0,.03-.01.05,0,0,0,.02,0,.03.05,0,0,0,.03-.03.05,0,0-.04.01-.07.01,0,0-.04.09-.14.12-.13.04-.25,0-.31-.05-.07-.06-.12-.16-.14-.19s-.14-.3-.23-.6c0,0-.08-.26-.15-.39l-.03-.05Z"/>
              <path class="cls-8" d="M23.9,11.01c-.29,0-.43-.27-.43-.27-.14-.27-.29-.77-.29-.77-.13-.38-.2-.49-.2-.49v-.02s0,0,0,0c.67-.17.65-.81.65-.82,0-.34-.21-.61-.21-.62-.08-.1-.15-.14-.2-.16.02.02.03.08-.01.14,0,0-.09.1-.22.03,0,0-.08-.04-.07-.16,0,0,.02-.16.21-.16,0,0,0,0,0,0,0,0,.37,0,.58.5,0,0,.15.33.06.7,0,0-.13.49-.58.64l.02.04c.07.13.15.39.15.39.09.29.22.57.23.6,0,0,0,0,0,.02.02.04.06.12.12.17.04.03.15.1.3.05.07-.02.11-.07.12-.09-.02,0-.04-.01-.05-.02-.04-.04-.04-.09-.04-.1,0-.04.01-.07.04-.09.05-.04.12-.04.13-.04.05,0,.08.02.11.05.05.06.04.14.04.14,0,.19-.25.3-.26.3-.07.03-.14.04-.2.04ZM23.01,9.48s.09.17.2.48c0,0,.15.5.29.77,0,.01.13.26.4.26.06,0,.12-.01.19-.04,0,0,.24-.11.24-.28,0,0,0-.08-.03-.12-.02-.02-.05-.04-.09-.04h0s-.07,0-.1.03c-.02.02-.03.04-.03.07,0,0,0,.05.03.08.02.02.06.03.11.02,0,0,.04-.01.04-.05,0,0,0-.01-.01-.02,0,0-.03,0-.05,0h0s-.02-.01-.02-.01v-.02h.02s.03,0,.06,0c0,0,.03.01.04.06,0,0,0,.04-.04.06,0,0-.04.01-.07.01h0s-.06.09-.14.12c-.17.05-.28-.02-.33-.06-.07-.05-.11-.14-.13-.18,0,0,0-.01,0-.01-.01-.03-.14-.31-.23-.6,0,0-.08-.26-.15-.39l-.03-.07h.02c.45-.14.57-.62.58-.63.09-.36-.06-.68-.06-.68-.2-.48-.55-.49-.55-.49h0c-.16,0-.18.13-.18.14-.01.1.05.13.05.13.11.06.18-.02.18-.02.04-.06.01-.11,0-.11-.02-.03-.07-.02-.08-.02-.04.01-.03.06-.03.06h0s0,0,0,0h0s-.02,0-.02,0h-.01s0-.01,0-.01c0,0,0-.04.02-.06.01-.02.03-.03.06-.03,0,0,0,0,.02,0,.05,0,.16.02.29.18,0,0,.22.28.22.63,0,0,.02.66-.65.84Z"/>
            </g>
            <g>
              <path class="cls-5" d="M24.47,10.8s-.09-.01-.09.06c0,0,0,.11.14.09,0,0,.13-.03.09-.18,0,0-.03-.11-.16-.09,0,0-.12,0-.18.17,0,0-.04.14.03.26.08.14.28.23.38.26,0,0,.39.15.5.24,0,0,.18.13.1.25,0,0-.03.05-.08.05,0,0-.05,0-.06-.05,0,0,0,0,0,0,0,0,0,0,0,0,0,0,0,.03.03.04,0,0,.04.02.08-.01,0,0,.04-.04,0-.1,0,0-.05-.08-.15-.03,0,0-.09.05-.06.15,0,0,.03.09.15.09,0,0,.09,0,.14-.06.09-.09.09-.26.01-.35,0,0-.07-.1-.21-.15-.08-.03-.24-.1-.4-.17-.11-.04-.22-.1-.29-.18,0,0-.06-.07-.08-.18,0,0-.02-.09.04-.11,0,0,.03-.01.06,0,0,0,0,0,0,0,0,0,0,0,0,0Z"/>
              <path class="cls-8" d="M25.21,12.02c-.12,0-.16-.1-.16-.1-.03-.09.03-.15.06-.16.11-.05.17.04.17.04,0,0,0,.02.01.03,0-.09-.11-.18-.11-.18-.11-.08-.49-.24-.5-.24-.19-.08-.32-.17-.38-.27-.07-.13-.03-.27-.03-.27.06-.18.18-.18.19-.18,0,0,.02,0,.03,0,.12,0,.15.1.15.1.02.05.01.09,0,.13-.03.05-.09.07-.09.07-.05,0-.09,0-.12-.02,0,0,0,0-.01-.01.02.1.07.15.07.15.06.07.14.12.28.17.11.04.21.08.29.12.04.02.08.03.11.05.15.06.22.15.22.16.08.1.07.28-.02.37-.06.06-.15.06-.15.06ZM25.18,11.77s-.04,0-.06.01c0,0-.08.04-.05.13,0,0,.03.08.13.08,0,0,.08,0,.13-.06.08-.08.08-.25.01-.33,0,0-.07-.09-.21-.15-.03-.01-.07-.03-.11-.04-.08-.04-.19-.08-.29-.12-.14-.05-.23-.11-.29-.18,0,0-.06-.07-.08-.19,0,0-.02-.1.04-.12,0,0,.03-.01.06,0h.01s0,0,0,0h0s0,.02,0,.02h-.01s-.04,0-.06.01c0,0-.01.02-.01.04h0s0,.04.03.06c.02.02.06.02.09.01,0,0,.05-.01.07-.05.02-.03.02-.06,0-.11,0,0-.03-.08-.12-.08,0,0-.01,0-.02,0,0,0-.12,0-.17.16,0,0-.04.14.03.25.06.09.18.18.37.26.02,0,.39.15.5.24,0,0,.19.14.1.27,0,0-.04.05-.09.05,0,0,0,0,0,0-.02,0-.06-.01-.07-.06h0s.02-.04.02-.04v.03s.02.02.04.03c0,0,.03.01.06-.01,0,0,.03-.03,0-.08,0,0-.02-.04-.08-.04Z"/>
            </g>
            <g>
              <path class="cls-8" d="M24.29,11.01h-.03s.04-.12.04-.12c.05-.09.12-.1.15-.1,0,0,.02,0,.02,0v.03s0,0-.02,0c-.03,0-.09,0-.13.09,0,0-.03.07-.04.11Z"/>
              <path class="cls-8" d="M24.14,10.95l-.02-.02s0,0,.01,0c.03-.02.1-.06.14-.17.02-.04.02-.08,0-.1-.01-.02-.04-.03-.04-.03v-.03s.04,0,.06.04c.02.03.02.07,0,.13-.04.12-.12.16-.15.19,0,0,0,0-.01,0Z"/>
              <path class="cls-8" d="M25.81,6.91c-.23-.15-.45-.02-.45-.02l-.02-.02s.24-.15.48.02l-.02.02Z"/>
            </g>
          </g>
          <g>
            <path class="cls-8" d="M24.05,8.29h-.02s.03-.13-.11-.35c0,0-.1-.21-.15-.34h.02c.05.12.15.33.15.33.15.22.12.35.12.36Z"/>
            <path class="cls-8" d="M24.34,8.06c-.02-.05-.12-.3-.12-.3-.03-.09-.11-.29-.11-.29h.02s.08.2.11.29c0,0,.1.25.12.3h-.02Z"/>
          </g>
        </g>
        <g>
          <g>
            <path class="cls-8" d="M24.24,8.68h-.02c0-.15-.07-.24-.07-.24h.02s.09.08.08.24Z"/>
            <path class="cls-8" d="M24.08,8.92c-.15-.09-.14-.28-.14-.29,0-.24-.08-.29-.08-.29v-.02s.11.05.11.31c0,0,0,.18.13.27v.02Z"/>
            <path class="cls-8" d="M24.45,9.48c-.03-.13-.17-.15-.17-.15-.11-.02-.12-.2-.12-.21,0-.04-.02-.07-.05-.09-.08-.07-.25-.05-.26-.05v-.02s.18-.02.27.06c.03.03.05.06.05.1,0,0,0,.17.1.19,0,0,.16.02.19.16h-.02Z"/>
            <path class="cls-8" d="M24.05,9.3c-.05-.03-.1-.11-.11-.11h.02s.05.07.1.1v.02Z"/>
            <path class="cls-8" d="M24.41,9.17c-.01-.06-.09-.18-.09-.18h.02s.08.11.09.17h-.02Z"/>
            <path class="cls-8" d="M24.79,7.75c-.07-.04-.14-.14-.14-.14h.02s.07.08.13.12v.02Z"/>
            <path class="cls-8" d="M25.1,8.95c-.06-.12-.04-.34-.04-.34.02-.36-.12-.44-.12-.44v-.02s.16.08.14.46c0,0-.02.22.04.33h-.02Z"/>
          </g>
          <g>
            <path class="cls-9" d="M24.24,7.91v.04s.28.01.42-.17l-.02-.03s-.23-.01-.4.17h0Z"/>
            <path class="cls-8" d="M24.26,7.95h-.02s-.01-.05-.01-.05h0c.16-.17.36-.18.4-.18h.01l.02.05h0c-.13.17-.35.18-.41.18ZM24.26,7.93h0s.26,0,.39-.16v-.02h-.01s-.23,0-.38.16v.02Z"/>
          </g>
          <path class="cls-8" d="M25.2,9.34v-.02s.92-.28,1.27-.43v.02c-.34.16-1.26.43-1.27.43Z"/>
        </g>
        <g>
          <path class="cls-9" d="M25.09,7.61l.45-.17v.03s-.44.17-.44.17v-.03Z"/>
          <path class="cls-8" d="M25.1,7.65v-.04s0,0,0,0l.46-.18v.04s0,0,0,0l-.46.18ZM25.1,7.61v.02s.45-.17.45-.17v-.02s-.45.17-.45.17Z"/>
        </g>
      </g>
      <g>
        <g>
          <polygon class="cls-8" points="25.43 9.11 25.13 7.63 25.15 7.62 25.45 9.1 25.43 9.11"/>
          <polygon class="cls-8" points="25.53 9.08 25.18 7.61 25.2 7.6 25.55 9.08 25.53 9.08"/>
          <polygon class="cls-8" points="25.62 9.05 25.24 7.59 25.26 7.58 25.64 9.04 25.62 9.05"/>
          <polygon class="cls-8" points="25.9 8.63 25.39 7.53 25.41 7.52 25.92 8.62 25.9 8.63"/>
          <polygon class="cls-8" points="26.01 8.6 25.46 7.5 25.48 7.5 26.03 8.59 26.01 8.6"/>
          <polygon class="cls-8" points="26.1 8.57 25.51 7.49 25.53 7.48 26.12 8.56 26.1 8.57"/>
          <polygon class="cls-8" points="25.42 9.13 25.42 9.11 25.65 9.03 25.66 9.05 25.42 9.13"/>
          <path class="cls-8" d="M25.25,8.98v-.02s.68-.2,1.2-.41v.02c-.5.21-1.19.41-1.2.41Z"/>
          <path class="cls-8" d="M25.24,9.05v-.02s.86-.23,1.2-.4v.02c-.33.17-1.2.39-1.2.4Z"/>
          <polygon class="cls-8" points="25.54 9.9 25.54 9.89 25.49 9.75 25.51 9.75 25.55 9.88 25.66 9.84 25.62 9.71 25.64 9.71 25.68 9.86 25.67 9.86 25.54 9.9"/>
          <polygon class="cls-8" points="25.89 9.8 25.89 9.79 25.84 9.65 25.86 9.65 25.9 9.78 26.01 9.74 25.97 9.62 25.99 9.61 26.03 9.76 26.02 9.76 25.89 9.8"/>
          <polygon class="cls-8" points="25.25 8.83 25.24 8.63 25.25 8.63 26.39 8.28 26.4 8.29 26.46 8.45 26.44 8.46 26.38 8.31 25.26 8.65 25.27 8.83 25.25 8.83"/>
          <polygon class="cls-8" points="25.79 8.67 25.72 8.5 25.74 8.49 25.8 8.66 25.79 8.67"/>
          <polygon class="cls-8" points="26.19 8.54 26.12 8.38 26.14 8.37 26.21 8.53 26.19 8.54"/>
          <polygon class="cls-8" points="26.28 8.5 26.21 8.35 26.23 8.34 26.3 8.49 26.28 8.5"/>
          <polygon class="cls-8" points="26.38 8.48 26.3 8.32 26.32 8.31 26.4 8.47 26.38 8.48"/>
          <polygon class="cls-8" points="26.56 8.37 26.51 8.24 26.39 8.31 26.38 8.29 26.52 8.21 26.52 8.22 26.58 8.36 26.56 8.37"/>
          <polygon class="cls-8" points="26.5 8.41 26.44 8.27 26.46 8.26 26.52 8.4 26.5 8.41"/>
        </g>
        <g>
          <path class="cls-2" d="M23.62,10.44s-.22-.23-.01-.45c-.06-.03-.23-.14-.19-.32h.03c-.04.18.19.3.2.3h.02s-.01.02-.01.02c-.21.21,0,.42,0,.43l-.02.02Z"/>
          <path class="cls-2" d="M23.97,10.74c-.07,0-.13-.02-.15-.03-.1-.06-.12-.18-.09-.25.03-.09.12-.26.13-.27l.04-.07v.08c-.05.22,0,.32.04.36.04.05.1.04.1.04v.03s0,0,0,0c-.02,0-.07,0-.11-.05-.06-.06-.08-.16-.07-.31-.03.06-.07.15-.09.2-.02.07,0,.17.08.22.02.02.12.04.2.02.04-.01.07-.04.09-.07h.03c-.02.06-.06.09-.11.1-.02,0-.05,0-.07,0Z"/>
          <path class="cls-2" d="M23.73,10.17c-.07-.17.03-.26.03-.26l.02.02s-.09.08-.02.23h-.03Z"/>
          <path class="cls-2" d="M23.94,10.19c-.08-.09-.09-.24-.09-.25h.03s.01.15.08.23l-.02.02Z"/>
          <path class="cls-2" d="M24.05,10.18c-.13-.12-.13-.3-.13-.3h.03s0,.18.12.28l-.02.02Z"/>
          <path class="cls-2" d="M24.14,10.16c-.15-.13-.16-.33-.16-.34h.03s0,.2.15.32l-.02.02Z"/>
          <path class="cls-2" d="M25.07,10.23s-.03,0-.03,0c-.15-.01-.14-.16-.14-.16,0-.04.02-.07.04-.09-.12.02-.17.15-.17.15h-.03s.08-.18.24-.18c0,0,0,0,.01,0h.06s-.05.03-.05.03c0,0-.07.03-.07.1,0,0,0,.12.12.13,0,0,.11.01.16-.04l.02.02s-.11.05-.15.05Z"/>
          <path class="cls-2" d="M25.12,10.89s-.4-.19-.36-.47c0,0,.02-.17.18-.25v.03c-.14.07-.16.23-.16.23-.04.25.34.44.35.44v.03Z"/>
          <path class="cls-2" d="M24.9,10.56c-.08-.08-.05-.2-.05-.21h.03s-.03.12.04.19l-.02.02Z"/>
          <path class="cls-2" d="M24.97,10.5c-.08-.1-.04-.23-.04-.24h.03s-.04.13.03.22l-.02.02Z"/>
          <path class="cls-2" d="M25.05,10.42c-.07-.1-.01-.21-.01-.21h.03s-.05.11,0,.2l-.02.02Z"/>
          <path class="cls-2" d="M25.07,11.11c-.17,0-.38-.18-.39-.19l.02-.02s.22.18.38.19v.03Z"/>
          <path class="cls-2" d="M24.94,11.16c-.13-.02-.33-.18-.33-.19l.02-.02s.2.16.32.18v.03Z"/>
          <path class="cls-2" d="M24.95,11.26c-.16-.02-.4-.23-.41-.24l.02-.02s.25.22.4.23v.03Z"/>
          <path class="cls-2" d="M25.49,11.73c-.05-.04-.08-.08-.08-.13,0-.09.13-.16.13-.16v.03s-.1.06-.11.14c0,.04.02.07.07.11l-.02.02Z"/>
          <path class="cls-2" d="M25.41,11.31v-.03s.27-.15.39-.2v.03c-.11.05-.38.2-.39.2Z"/>
          <path class="cls-2" d="M25.51,11.39l-.02-.02s.41-.25.52-.3v.03c-.11.05-.5.3-.51.3Z"/>
          <path class="cls-2" d="M25.72,11.4l-.02-.02s.35-.23.53-.33v.03c-.17.1-.51.33-.51.33Z"/>
          <path class="cls-2" d="M25.95,11.39l-.02-.02s.24-.19.47-.32v.02c-.21.13-.45.32-.45.32Z"/>
          <path class="cls-2" d="M25.91,10.88l.06-.06s.15-.13.42-.23v.03c-.14.05-.25.11-.32.16.31-.1.41.04.42.04l-.02.02s-.11-.16-.48,0l-.08.04Z"/>
          <path class="cls-2" d="M26.8,10.1h-.03c.03-.09,0-.22,0-.22h.03s.03.14,0,.22Z"/>
          <path class="cls-2" d="M26.18,10.55l-.02-.02s.08-.12.29-.18h.01s0,0,0,0c0,0,.05.12.2.1,0,0,.09-.02.14-.1.03-.05.04-.12.01-.19,0,0-.05-.19-.31-.2v-.03c.28.02.33.22.33.22.02.08.02.16-.02.21-.05.09-.15.11-.16.11-.02,0-.03,0-.05,0-.11,0-.16-.08-.18-.11-.19.06-.26.17-.26.17Z"/>
          <path class="cls-2" d="M27.25,10.32v-.03c.33-.06.32-.38.32-.39,0-.21-.25-.26-.26-.26v-.03s.29.05.29.29c0,0,.02.35-.34.42Z"/>
          <path class="cls-2" d="M27.56,9.77h-.03s.08-.18.25-.25v.03c-.15.06-.23.22-.23.22Z"/>
          <path class="cls-2" d="M27.7,9.59c-.05-.02-.13-.13-.13-.14l.02-.02s.08.12.12.13v.03Z"/>
          <path class="cls-2" d="M27.63,9.65s-.09-.09-.1-.1l.02-.02s.08.09.09.1l-.02.02Z"/>
          <path class="cls-2" d="M27.58,9.71s-.07-.08-.08-.08l.02-.02s.04.06.06.07v.03Z"/>
          <path class="cls-2" d="M26.12,8.33l-.02-.02s.06-.09.2-.06v.03s-.05,0-.07,0c-.08,0-.11.05-.11.05Z"/>
          <path class="cls-2" d="M26.85,8.97h-.03s.04-.18.17-.25c.07-.03.14-.03.23,0v.03c-.09-.03-.16-.04-.21,0-.12.06-.16.22-.16.22Z"/>
          <path class="cls-2" d="M27.11,8.72h-.03s.03-.16-.04-.24l.02-.02c.08.09.05.25.05.26Z"/>
          <path class="cls-2" d="M26.91,8.84h-.02c.03-.06,0-.12,0-.12h.03s.04.06,0,.12Z"/>
        </g>
      </g>
      <g>
        <path class="cls-1" d="M27.49,12.3s.33-.15.23-.41c0,0-.03-.09-.1-.08,0,0-.13,0-.1.18,0,0,.04.17-.02.31h0Z"/>
        <path class="cls-2" d="M27.49,12.31h-.01c.06-.15.02-.32.02-.32,0-.06,0-.11.03-.14.03-.04.08-.04.08-.04h0c.07,0,.11.08.11.09.1.26-.23.42-.24.42ZM27.62,11.82s0,0,0,0c0,0-.04,0-.07.04-.02.03-.03.07-.02.13,0,0,.03.15-.01.29.07-.04.28-.18.2-.38,0,0-.03-.07-.09-.07Z"/>
      </g>
      <path class="cls-3" d="M27.61,12.15s.07-.07.06-.19c0,0,0-.03,0-.03,0,0,.01,0,.02.03,0,0,.02.13-.07.21,0,0,0,0-.02,0,0,0-.01,0,0-.01Z"/>
      <g>
        <path class="cls-1" d="M27.96,12.07s.23-.15.11-.39c0,0-.04-.07-.11-.06,0,0-.14.04-.03.25,0,0,.06.13.03.2h0Z"/>
        <path class="cls-2" d="M27.97,12.08h-.02c.02-.08-.03-.21-.03-.21-.04-.08-.05-.14-.03-.19.02-.05.07-.07.07-.07.08-.02.12.06.12.06.13.25-.11.4-.11.41ZM27.96,11.63s-.04.01-.06.06c-.02.04,0,.1.03.17,0,0,.05.11.04.18.05-.04.18-.17.08-.36,0,0-.03-.05-.08-.05,0,0-.01,0-.02,0h0Z"/>
      </g>
      <path class="cls-3" d="M28.02,11.74s-.01-.02,0-.02c0,0,0,0,.02.01,0,0,.07.08.01.2,0,0,0,.02-.02.01,0,0,0,0,0-.02,0,0,.05-.1-.01-.18Z"/>
      <g>
        <path class="cls-1" d="M27.27,12.23s-.26-.07-.21-.33c0,0,.03-.12.14-.1,0,0,.13.03.05.2,0,0-.05.12.03.23h0Z"/>
        <path class="cls-2" d="M27.26,12.25s-.27-.07-.22-.35c0,0,.03-.11.13-.11,0,0,.01,0,.02,0,0,0,.05.01.07.06.02.04.01.09-.02.16,0,0-.05.12.03.22v.02ZM27.17,11.81c-.08,0-.1.09-.1.09-.04.21.11.29.18.31-.06-.1-.02-.21-.01-.21.03-.06.04-.1.02-.14-.02-.04-.06-.05-.06-.05,0,0-.01,0-.02,0Z"/>
      </g>
      <path class="cls-3" d="M27.17,11.91s0-.01,0-.02c0,0,.01,0,.02.01,0,0,.03.04,0,.1,0,0-.02.04-.01.08,0,0,0,.01,0,.01,0,0,0,0-.01-.01,0,0-.01-.04,0-.08,0,0,.03-.06,0-.1h0Z"/>
      <path class="cls-8" d="M27.45,11.73s.15-.08.27.01c0,0-.01-.05-.1-.08,0,0-.05-.14-.19-.13,0,0,.06.07.13.13,0,0-.08,0-.11.07Z"/>
      <path class="cls-8" d="M27.56,11.34s.1.07.14.12c0,0,.04-.05.09-.08,0,0-.06,0-.09.02,0,0-.05-.05-.14-.06Z"/>
      <g>
        <path class="cls-8" d="M26.97,11.66s-.01-.04.02-.09h0s.01-.02,0-.05h.03s-.01.07-.01.07c-.02.03-.01.06-.01.06h-.03Z"/>
        <path class="cls-8" d="M28.05,9.39v-.03s.14-.01.17-.12h.03c-.03.13-.19.15-.19.15Z"/>
        <path class="cls-8" d="M28.32,9.28s0,0-.01,0v-.03h.01s.07-.04.07-.04c.06-.06.12-.05.12-.05v.03h0s-.05,0-.09.04c0,0-.04.05-.09.05Z"/>
      </g>
      <path class="cls-8" d="M27.82,8.92s.08,0,.13-.04c0,0,.05-.03.07.02,0,0,.04.07-.04.1,0,0-.1.05.06.15,0,0-.18-.07-.11-.16,0,0,.08-.06.05-.08,0,0,0-.02-.04,0-.03.02-.1.01-.12,0Z"/>
      <g>
        <path class="cls-1" d="M27.93,6.97s.04-.05.02-.2.11-.17.16-.12c0,0,.05.04,0,.14-.03.05-.07.12-.19.18Z"/>
        <path class="cls-2" d="M27.94,6.98v-.02s.02-.05,0-.19c0-.09.03-.13.06-.14.04-.02.09-.02.12,0,0,0,.06.05,0,.15-.03.06-.08.13-.19.19ZM28.06,6.64s-.03,0-.04.01c-.04.02-.05.06-.05.12,0,.09,0,.15-.01.18.09-.05.13-.11.16-.16.04-.08,0-.12,0-.13-.01,0-.03-.02-.05-.02Z"/>
      </g>
      <path class="cls-3" d="M27.98,6.86s.05-.05.03-.16c0,0,0-.01,0-.01,0,0,.01,0,.01,0,0,0,.03.12-.03.19,0,0,0,0-.02,0,0,0,0,0,0-.02h0Z"/>
      <g>
        <path class="cls-1" d="M27.89,6.92s0-.06-.11-.16-.02-.2.04-.19c0,0,.07,0,.09.1.01.06.03.14-.03.26h0Z"/>
        <path class="cls-2" d="M27.9,6.92h-.02s0-.06-.1-.16c-.06-.06-.05-.12-.04-.15.02-.04.06-.07.09-.07h0s.07,0,.1.11c.02.07.02.15-.03.26ZM27.83,6.57s-.06.02-.08.05c-.02.04,0,.08.04.12.06.06.09.11.1.14.04-.09.03-.16.01-.22-.02-.09-.08-.09-.08-.09h0Z"/>
      </g>
      <path class="cls-3" d="M27.87,6.79s0-.07-.09-.15c0,0,0,0,0-.01,0,0,0,0,.02,0,0,0,.1.08.1.17,0,0,0,.01-.01.01,0,0-.01,0-.01-.01h0Z"/>
      <g>
        <path class="cls-1" d="M27.75,6.87s-.03-.05-.15-.09-.09-.16-.04-.18c0,0,.06-.02.12.05.03.04.08.11.08.22h0Z"/>
        <path class="cls-2" d="M27.74,6.88s-.03-.05-.15-.09c-.08-.03-.09-.08-.09-.11,0-.04.02-.08.06-.09,0,0,.06-.03.13.05.04.05.08.11.08.23h-.02ZM27.58,6.61s-.02,0-.02,0c-.02,0-.04.04-.04.07,0,.04.03.07.08.09.08.03.12.06.14.08,0-.09-.04-.15-.08-.19-.03-.04-.07-.05-.08-.05Z"/>
      </g>
      <path class="cls-3" d="M27.69,6.78s-.03-.07-.15-.1c0,0-.01,0,0-.01,0,0,0-.01.01,0,0,0,.13.03.16.11,0,0,0,.01,0,.02,0,0,0,0-.02,0h0Z"/>
      <g>
        <path class="cls-1" d="M27.83,6.92s-.06.02-.2-.05-.2.05-.17.11c0,0,.03.06.13.05.06,0,.14-.02.24-.11Z"/>
        <path class="cls-2" d="M27.57,7.05c-.09,0-.12-.06-.12-.06-.01-.04,0-.09.03-.12.02-.02.07-.05.16,0,.13.06.19.05.19.05v.02c-.08.09-.16.11-.23.12,0,0-.02,0-.02,0ZM27.56,6.86s-.05,0-.06.02c-.03.02-.04.06-.02.09,0,0,.03.05.12.05.06,0,.13-.02.21-.09-.03,0-.09-.01-.17-.05-.03-.01-.05-.02-.07-.02Z"/>
      </g>
      <path class="cls-3" d="M27.51,6.97s.06.04.17,0c0,0,.01,0,.01,0,0,0,0,.01,0,.02,0,0-.12.05-.2,0,0,0-.01,0,0-.02,0,0,0,0,.02,0h0Z"/>
      <path class="cls-8" d="M27.7,6.61h-.03c.01-.07-.04-.1-.04-.1v-.03s.09.06.07.13Z"/>
      <path class="cls-8" d="M27.94,6.64l-.02-.02s0-.1,0-.12h.03s.03.08,0,.13Z"/>
      <g>
        <path class="cls-1" d="M23.22,6.97s-.04-.05-.02-.2-.11-.17-.16-.12c0,0-.05.04,0,.14.03.05.07.12.19.18Z"/>
        <path class="cls-2" d="M23.21,6.98c-.12-.06-.16-.13-.19-.19-.05-.1,0-.15,0-.15.03-.03.08-.03.12,0,.03.01.07.05.06.14-.01.14.02.19.02.19v.02ZM23.09,6.64s-.04,0-.05.02c0,0-.04.04,0,.13.03.05.07.11.16.16,0-.03-.02-.08-.01-.18,0-.06-.01-.1-.05-.12-.01,0-.03-.01-.04-.01Z"/>
      </g>
      <path class="cls-3" d="M23.17,6.86s-.05-.05-.03-.16c0,0,0-.01,0-.01,0,0-.01,0-.01,0,0,0-.03.12.03.19,0,0,0,0,.02,0,0,0,0,0,0-.02h0Z"/>
      <g>
        <path class="cls-1" d="M23.26,6.92s0-.06.11-.16.02-.2-.04-.19c0,0-.07,0-.09.1-.01.06-.03.14.03.26h0Z"/>
        <path class="cls-2" d="M23.25,6.92c-.05-.12-.04-.19-.03-.26.03-.11.1-.11.1-.11h0s.08.03.09.07c.01.03.02.08-.04.15-.1.1-.1.15-.1.16h-.02ZM23.32,6.57h0s-.06,0-.08.09c-.01.06-.02.13.01.22.01-.03.04-.08.1-.14.04-.04.06-.08.04-.12-.01-.03-.04-.05-.08-.05Z"/>
      </g>
      <path class="cls-3" d="M23.27,6.79s0-.07.09-.15c0,0,0,0,0-.01,0,0,0,0-.02,0,0,0-.1.08-.1.17,0,0,0,.01.01.01,0,0,.01,0,.01-.01h0Z"/>
      <g>
        <path class="cls-1" d="M23.4,6.87s.03-.05.15-.09.09-.16.04-.18c0,0-.06-.02-.12.05-.03.04-.08.11-.08.22h0Z"/>
        <path class="cls-2" d="M23.41,6.88h-.02c0-.12.04-.19.08-.24.06-.08.12-.05.13-.05.03.01.06.05.05.09,0,.03-.01.08-.09.11-.12.04-.15.09-.15.09ZM23.57,6.61s-.05,0-.08.05c-.03.04-.07.1-.08.19.02-.02.06-.05.14-.08.05-.02.08-.05.08-.09,0-.03-.02-.06-.04-.07,0,0,0,0-.02,0Z"/>
      </g>
      <path class="cls-3" d="M23.45,6.78s.03-.07.15-.1c0,0,.01,0,0-.01,0,0,0-.01-.01,0,0,0-.13.03-.16.11,0,0,0,.01,0,.02,0,0,0,0,.02,0h0Z"/>
      <g>
        <path class="cls-1" d="M23.32,6.92s.06.02.2-.05.2.05.17.11c0,0-.03.06-.13.05-.06,0-.14-.02-.24-.11Z"/>
        <path class="cls-2" d="M23.58,7.05s-.02,0-.02,0c-.07,0-.15-.03-.24-.12v-.02s.07.01.2-.05c.09-.04.13-.01.16,0,.03.03.04.08.03.12,0,0-.02.06-.12.06ZM23.35,6.93c.08.07.15.08.21.09.1,0,.12-.04.12-.05.01-.03,0-.07-.02-.09-.03-.03-.08-.03-.13,0-.08.04-.14.05-.17.05Z"/>
      </g>
      <path class="cls-3" d="M23.64,6.97s-.06.04-.17,0c0,0-.01,0-.01,0,0,0,0,.01,0,.02,0,0,.12.05.2,0,0,0,.01,0,0-.02,0,0,0,0-.02,0h0Z"/>
      <path class="cls-8" d="M23.45,6.61c-.01-.07.03-.12.06-.13v.03s-.05.03-.03.1h-.03Z"/>
      <path class="cls-8" d="M23.21,6.64c-.03-.05,0-.14,0-.14h.03s-.02.09,0,.13l-.02.02Z"/>
      <path class="cls-8" d="M26.18,5.72s.04.12.02.24c-.02.1,0,.13.04.15.03.02.1-.01.11-.09,0,0,.09.17-.08.28,0,0-.12.07-.22-.02-.04-.03-.05-.13-.03-.22,0,0,.03-.12-.02-.24,0,0,.07.07.05.22,0,0-.03.26.16.25,0,0,.13,0,.14-.16,0,0-.05.06-.11.04-.04-.01-.08-.06-.08-.12,0-.07.03-.19.02-.3h0Z"/>
      <path class="cls-8" d="M25.96,6.15s-.01.21-.2.26c0,0,.03-.04-.02-.14,0,0-.04-.06-.04-.15,0,0-.06.05,0,.17.04.07,0,.16,0,.17-.01,0,.31-.04.25-.3h0Z"/>
      <path class="cls-8" d="M25.72,5.95s-.05-.05-.05-.17c0-.12-.03-.15-.04-.16,0,0,.02.1.02.17s0,.1.01.13c0,0-.1.02-.17-.13-.06-.14-.12-.13-.15-.13,0,0,.04,0,.11.13.07.13.09.16.27.17Z"/>
      <path class="cls-8" d="M25.24,5.64s.06.14.06.22c0,0-.14-.05-.17-.17,0,0-.15.05-.09.22,0,0-.13-.04-.18-.15,0,0,.07.05.14.08,0,0,0-.14.16-.19,0,0,.03.12.11.15,0,0,0-.08-.02-.16h0Z"/>
      <path class="cls-8" d="M25.47,5.39s.05.07.15.07c.05,0,.1,0,.15-.07,0,0,0,.12-.15.12,0,0-.15,0-.15-.12Z"/>
      <path class="cls-8" d="M24.86,6.22s.07.07.09.09c0,0,.05.05.09-.01,0,0,.06-.1.12-.1,0,0-.05.03-.1.13,0,0-.01.04-.06.04-.02,0-.04,0-.08-.03,0,0-.03-.04-.07-.11Z"/>
      <path class="cls-8" d="M25.61,4.91c-.15,0-.02.11-.02.11,0,.18-.14.23-.24.18-.1-.05-.02-.18-.02-.18,0,0-.11.07-.04.18s.25.06.32-.04c.07.1.25.14.32.04s-.04-.18-.04-.18c0,0,.08.13-.02.18-.1.05-.24,0-.24-.18,0,0,.12-.11-.02-.11Z"/>
      <path class="cls-8" d="M25.7,4.72s.05.09.04.22c0,0,.05-.13-.04-.22Z"/>
      <path class="cls-8" d="M25.25,4.92s-.01-.09-.1-.1c0,0,.08.06.1.1Z"/>
      <path class="cls-8" d="M25.97,4.92s.01-.09.1-.1c0,0-.08.06-.1.1Z"/>
      <path class="cls-8" d="M25.11,5.07s.07.02.12-.03c0,0-.08.02-.12.03Z"/>
      <path class="cls-8" d="M24.87,4.48s.09,0,.17.12c0,0-.08.04-.1.07,0,0,0-.04.04-.08,0,0-.02-.06-.11-.11h0Z"/>
      <path class="cls-8" d="M26.29,4.48s-.09,0-.17.12c0,0,.08.04.1.07,0,0,0-.04-.04-.08,0,0,.02-.06.11-.11h0Z"/>
      <path class="cls-8" d="M25.64,4.58s.08.02.17-.03c0,0,.12-.06.19,0,0,0-.07-.03-.19.03,0,0-.13.07-.17,0Z"/>
      <path class="cls-3" d="M25.72,4.66s.07-.11.26-.09c0,0-.05.16-.26.09Z"/>
      <ellipse class="cls-9" cx="25.85" cy="4.62" rx=".04" ry=".05"/>
      <ellipse class="cls-8" cx="25.85" cy="4.62" rx=".02" ry=".03"/>
      <path class="cls-8" d="M25.29,4.41s.13,0,.2.06c0,0,.08.05.17-.02,0,0,.1-.06.16-.14,0,0-.15.11-.21.12,0,0-.05-.04-.07-.1,0,0,0-.04.09-.12,0,0-.11.03-.13.13,0,0,.02.06.06.1,0,0-.02,0-.07-.02,0,0-.12-.04-.2,0h0Z"/>
      <path class="cls-8" d="M25.61,5.17c-.11.09,0,.08,0,.08,0,0,.11,0,0-.08Z"/>
      <path class="cls-8" d="M25.55,4.58s-.08.02-.17-.03c0,0-.12-.06-.19,0,0,0,.07-.03.19.03,0,0,.13.07.17,0Z"/>
      <path class="cls-3" d="M25.47,4.66s-.07-.11-.26-.09c0,0,.05.16.26.09Z"/>
      <ellipse class="cls-9" cx="25.33" cy="4.62" rx=".04" ry=".05"/>
      <ellipse class="cls-8" cx="25.33" cy="4.62" rx=".02" ry=".03"/>
      <path class="cls-8" d="M25.6,13.41h0c-.16-.03-3.87-.65-3.87-2.58V3.59h7.76v7.24c0,1.93-3.72,2.56-3.87,2.58h0ZM21.79,3.66v7.17c0,1.84,3.65,2.49,3.81,2.52.17-.03,3.81-.68,3.81-2.52V3.66h-7.62Z"/>
    </g>
  </g>
</svg>