<?xml version="1.0" encoding="UTF-8"?>
<svg id="Layer_2" data-name="Layer 2" xmlns="http://www.w3.org/2000/svg" viewBox="0 0 25.51 17.01">
  <defs>
    <style>
      .cls-1 {
        stroke-width: .01px;
      }

      .cls-1, .cls-2, .cls-3, .cls-4, .cls-5, .cls-6, .cls-7, .cls-8, .cls-9, .cls-10, .cls-11, .cls-12, .cls-13, .cls-14, .cls-15, .cls-16, .cls-17, .cls-18, .cls-19, .cls-20 {
        stroke: #010101;
      }

      .cls-1, .cls-3, .cls-5, .cls-8, .cls-13, .cls-21, .cls-18 {
        fill: none;
      }

      .cls-1, .cls-4, .cls-5, .cls-8, .cls-9, .cls-10, .cls-12, .cls-14, .cls-15, .cls-16, .cls-17, .cls-18, .cls-19, .cls-20 {
        stroke-miterlimit: 4.46;
      }

      .cls-2 {
        fill: #ab2423;
        stroke-width: 0px;
      }

      .cls-22, .cls-23 {
        fill: #186433;
      }

      .cls-24 {
        stroke-width: 0px;
      }

      .cls-24, .cls-25, .cls-26, .cls-27 {
        fill: #ed2224;
      }

      .cls-24, .cls-25, .cls-26, .cls-27, .cls-21 {
        stroke: #186433;
      }

      .cls-24, .cls-25, .cls-27 {
        stroke-miterlimit: 10;
      }

      .cls-28, .cls-6, .cls-7, .cls-11, .cls-15 {
        fill: #ce2028;
      }

      .cls-29, .cls-4, .cls-10 {
        fill: #1e3160;
      }

      .cls-3 {
        stroke-width: 0px;
      }

      .cls-30 {
        fill: #f6eb16;
      }

      .cls-31 {
        fill: #098843;
      }

      .cls-32, .cls-9, .cls-12, .cls-19, .cls-20 {
        fill: #fff;
      }

      .cls-4 {
        stroke-width: 0px;
      }

      .cls-5 {
        stroke-width: 0px;
      }

      .cls-25 {
        stroke-width: .01px;
      }

      .cls-6 {
        stroke-width: 0px;
      }

      .cls-7 {
        stroke-width: 0px;
      }

      .cls-8 {
        stroke-width: 0px;
      }

      .cls-10, .cls-15 {
        stroke-width: 0px;
      }

      .cls-33 {
        fill: #00904d;
      }

      .cls-11 {
        stroke-width: 0px;
      }

      .cls-34 {
        fill: #0c8643;
      }

      .cls-26 {
        stroke-width: .06px;
      }

      .cls-12 {
        stroke-width: 0px;
      }

      .cls-27 {
        stroke-width: 0px;
      }

      .cls-13 {
        stroke-width: 0px;
      }

      .cls-35 {
        fill: #211c19;
      }

      .cls-21 {
        stroke-miterlimit: 4.26;
        stroke-width: .02px;
      }

      .cls-14, .cls-36, .cls-17 {
        fill: #e9c11e;
      }

      .cls-37, .cls-16 {
        fill: #010101;
      }

      .cls-17 {
        stroke-width: 0px;
      }

      .cls-23 {
        stroke: #808233;
        stroke-width: 0px;
      }

      .cls-18 {
        stroke-width: .01px;
      }

      .cls-19 {
        stroke-width: 0px;
      }

      .cls-20 {
        stroke-width: 0px;
      }
    </style>
  </defs>
  <g id="Layer_1-2" data-name="Layer 1">
    <g>
      <path class="cls-32" d="M0,0h25.51v17.01H0V0Z"/>
      <path class="cls-29" d="M0,0h11.06v6.8H0V0Z"/>
      <path class="cls-28" d="M0,10.2h11.06v6.8H0v-6.8Z"/>
      <path class="cls-29" d="M14.46,10.2h11.06v6.8h-11.06v-6.8Z"/>
      <path class="cls-28" d="M14.46,0h11.06v6.8h-11.06V0Z"/>
      <g>
        <g>
          <path class="cls-35" d="M12.31,6.97c-.24,0-.47.05-.67.17-.09.06-.11.08-.06.17-.01,0-.09.03-.12.04-.08.03-.15.06-.22.1-.04.02-.06.04-.09.07h.19s-.02.02-.03.03c-.03.05-.05.08-.08.13.05-.04.1-.07.16-.1.14-.07.38-.07.48-.19.03-.03.01-.05-.01-.1.07-.02.1-.04.19-.06.22-.05.37,0,.47-.02.03,0,.06-.03.07-.06l-.02-.11h.35c0,.06-.06.14.05.17.1.03.3-.03.47.02l.19.06s-.01.03-.02.05c0,.02,0,.03,0,.05.02.02.05.04.07.06.06.03.13.05.2.07.2.05.22.06.37.16-.01-.03-.08-.14-.11-.17h.19s-.13-.09-.19-.11l-.23-.08s.04-.07.02-.11c-.03-.05-.22-.14-.27-.16-.08-.02-.17-.04-.25-.05-.08-.01-.24-.02-.24-.02-.01-.01.02-.07-.03-.12-.03-.02-.07-.03-.12-.04-.17-.02-.41-.01-.59,0-.05,0-.09,0-.12.04-.04.03-.04.05-.04.12h0Z"/>
          <g>
            <path class="cls-29" d="M12.36,7.09s.03-.03.07-.04c.09-.03.23-.03.33-.03.08,0,.15,0,.23,0,.08,0,.12.02.17.06,0-.05.02-.1.02-.16,0-.06-.03-.08-.09-.09-.09-.02-.25-.02-.35-.02-.07,0-.3,0-.35.02-.04.02-.08.05-.07.11,0,.03.02.13.04.15h0Z"/>
            <path class="cls-29" d="M11.67,7.4s0-.03.08-.07c.09-.05.22-.1.33-.12.09-.02.19-.02.28-.01.04,0,.1,0,.14,0,0,0,.05-.01.06-.02.02-.01.02-.05.02-.05-.03-.02-.12.06-.2.03-.03,0-.03-.05-.04-.08l-.03-.1c-.15-.02-.4.04-.53.1-.06.03-.16.08-.2.12-.03.03,0,.08.02.11.02.03.06.07.07.09h0ZM12.93,7.12c0,.05.03.07.08.07.09.01.24-.03.42,0,.08.02.16.04.23.07.03.01.13.06.15.08l.04.04s.06-.07.08-.08c.02-.03.05-.07.02-.11-.03-.03-.15-.09-.2-.12-.07-.03-.19-.06-.27-.07-.09-.02-.27-.03-.27-.03,0,0-.01.17-.06.18-.09.03-.13-.05-.2-.04h0Z"/>
            <path class="cls-29" d="M13.64,7.33s-.02.03.03.07c.11.09.3.1.41.15.06.03.09.05.14.08,0-.02-.07-.11-.09-.14.05,0,.12,0,.17,0,0,0,0,0,0,0-.08-.07-.28-.13-.38-.16-.03.03-.06.07-.09.1-.01.01-.02.02-.04.01-.03,0-.06-.04-.07-.05-.02-.02-.06-.05-.08-.05h0ZM12.94,7.11c.06,0,.06.01.11.03.02,0,.04.01.06,0,.03,0,.03,0,.04-.03.01-.03-.05-.06-.07-.06l-.12-.02v.07ZM12.58,7.11v-.07s-.22.03-.21.08c0,.02.01.03.04.03.08,0,.09-.04.17-.04ZM11.68,7.41s.09-.04.13-.06c.02-.02.03-.02.05-.03v-.02s-.09.03-.11.04c-.03.02-.06.04-.07.07h0Z"/>
            <path class="cls-29" d="M13.65,7.32s.02,0,.03.01c.06.03.12.12.15.09.02-.02-.04-.06-.06-.07l-.1-.05s-.01.01-.02.02h0ZM11.87,7.33s.02.03-.03.07c-.11.09-.3.1-.41.15-.06.03-.09.05-.14.08,0-.02.07-.11.09-.14-.05,0-.12,0-.17,0,0,0,0,0,0,0,.08-.07.28-.13.38-.16.01.01.02.02.03.03.01.01.05.05.06.07.01.01.02.02.04.01.03,0,.06-.04.07-.05.02-.02.06-.05.08-.05h0Z"/>
          </g>
          <path class="cls-36" d="M11.89,7.08s-.03,0-.04.01c0,0-.02,0,0,.01,0,0,0,.01.01.02,0,.01,0,.02.01.03,0,.02.01.03.02.05,0,0,0,.02,0,.01,0,0,.02,0,.03-.01.01,0,.02-.01.03-.02,0,0,0-.01,0-.02,0,0,0-.01,0-.02,0,0,0-.02,0-.02,0,0,0-.02-.02-.03,0,0-.01-.01-.02-.02,0,0,0,0-.01,0h0ZM11.89,7.09s.02,0,.02.02c0,0,0,.02.01.03,0,.01,0,.03,0,.04,0,0,0,.01-.02.02,0,0-.01,0-.01,0,0,0,0-.01,0-.02,0-.01,0-.03-.01-.04,0,0,0-.02,0-.03,0,0,0-.01.01-.01,0,0,0,0,0,0h0ZM11.95,7.06s0,0,0,.01c0,0,0,.01,0,.02,0,0,0,.01,0,.02,0,0,0,.02,0,.02,0,0,0,.01,0,.02,0,0,0,.01,0,.02,0,0,0,0,0,0,0,0,.01,0,.02,0,0,0,.01,0,.01,0,0,0,0,0,0-.01,0,0,0-.02,0-.03,0,0,0-.01,0-.02,0,0,0-.01,0-.01,0-.01,0-.02,0-.03,0,0,0,0,0-.01,0,0,0,0-.01,0,0,0-.01,0-.02,0ZM12.05,7.03s-.02,0-.02.01c0,0-.01.02-.01.03,0,0,0,.02,0,.03,0,.02.01.03.02.04,0,0,.01.01.02.01,0,0,.02,0,.02,0,.01,0,.02-.01.02-.03,0,0,0-.02,0-.03,0,0,0-.02,0-.02,0,0,0-.02-.01-.02,0,0-.01-.01-.02-.02,0,0-.02,0-.03,0h0s0,0,0,0ZM12.05,7.04s.02.01.02.02c0,.01,0,.03.01.04,0,0,0,.01,0,.02,0,0,0,.02,0,.03,0,0-.02,0-.02,0,0,0,0-.01-.01-.02,0,0,0-.02,0-.03,0,0,0-.01,0-.02,0-.01,0-.02,0-.04,0,0,0,0,.01,0h0ZM12.14,7.02s0,.01,0,.02c0,0,0,.01,0,.02,0,0,0,.01.01.02,0,0,.02.01.03.02,0,0,.01,0,.02.01,0,0,0,.01,0,.02,0,0,0,.01-.01,0,0,0-.01,0-.02,0,0,0-.01-.01-.01-.02,0,0,0,0,0,0,0,0,0,.01,0,.02,0,0,0,0,.01,0,0,0,.01,0,.02,0,0,0,.01,0,.02,0,0,0,.01,0,.01-.01,0,0,0-.02,0-.03,0-.01-.01-.03-.02-.03,0,0-.01,0-.02,0,0,0-.02,0-.02-.02,0,0,0-.02,0-.02,0,0,.01,0,.02,0,0,0,0,0,0,.01,0,0,0,0,0,0,0,0,0-.01,0-.02,0,0-.01,0-.02,0,0,0-.02,0-.02,0,0,0,0,0,0,0h0ZM12.53,6.86s-.02,0-.03,0c0,0-.01,0-.02,0,0,0,0,0,0,.02,0,0,0,.02,0,.03,0,0,0,.01,0,.02,0,.01,0,.02,0,.03,0,0,0,.01,0,.02,0,0,0,0,0,0,0,0,.01,0,.02,0,0,0,0,0,0,0,0,0,0-.02,0-.02,0,0,0-.01,0-.02,0,0,.02,0,.02,0,.01,0,.03-.01.03-.03,0-.01,0-.03-.01-.04,0,0-.02,0-.03,0h0ZM12.53,6.88s.02,0,.02.01c0,0,0,.01,0,.02,0,.01,0,.02-.02.02,0,0-.01,0-.01,0,0,0,0-.02,0-.02,0,0,0-.02,0-.02,0,0,0,0,.01,0h0ZM12.62,6.86s-.01,0-.01.01c0,0,0,.02,0,.02,0,.01,0,.02,0,.04,0,.01,0,.03-.01.04,0,0,0,0,0,.01,0,0,.01,0,.02,0,0,0,0,0,0-.01,0,0,0-.01,0-.02,0,0,0,0,0,0h.03s0,.01,0,.02c0,0,0,.01,0,0,0,0,.02,0,.03,0,0,0,0,0,0-.01,0,0,0-.02,0-.02,0-.01,0-.02,0-.03,0,0,0-.01,0-.02,0-.01,0-.02,0-.04,0,0,0,0-.01,0h0ZM12.62,6.89s0,.03.01.05c0,0,0,0,0,0,0,0-.02,0-.02,0,0,0,0-.01,0-.02,0,0,0-.02,0-.02,0,0,0,0,0,0h0ZM12.72,6.85h-.04s0,0,0,.01h0s0,0,0,0c0,0,0-.01.02-.01,0,0,0,0,0,0,0,0,0,.01,0,.02,0,.03,0,.05,0,.08,0,0,0,0,0,0,0,0,0,0,.01,0,0,0,.01,0,.02,0,0,0,0,0,0,0,0,0,0-.01,0-.02,0-.03,0-.06,0-.09,0,0,0,0,.01,0,0,0,0,0,.01,0h0s0,.01,0,0c0,0,0-.01,0-.02,0,0,0-.01,0,0-.01,0-.02,0-.04,0h0ZM12.82,6.85s-.02,0-.03,0c0,0,0,0,0,0,0,0,0,.01,0,.02,0,.03,0,.06,0,.09,0,0,0,.01,0,.01,0,0,0,0,.01,0,0,0,.02,0,.02,0,0,0,0,0,0-.01v-.04s.01,0,.01,0c0,0,0,.01,0,.02,0,0,0,.01.01.02,0,0,0,0,.02.01,0,0,0,0,.01,0,0,0,0,0,0-.01,0,0,0-.02-.01-.03,0,0,0-.01,0-.02,0,0,0,0,0,0,0,0,.01,0,.01-.02,0,0,0-.01,0-.02,0,0,0-.01,0-.02,0,0-.01,0-.02-.01,0,0-.01,0-.02,0,0,0,0,0,0,0h0ZM12.83,6.86s.01,0,.02,0c0,0,0,0,0,.01,0,0,0,.01,0,.02,0,0,0,.01-.02.01,0,0-.01,0-.02,0,0,0,0,0,0-.01,0-.01,0-.02,0-.03,0,0,0,0,.01,0h0ZM12.91,6.87s0,.01,0,.02c0,0,0,.02,0,.03,0,.02,0,.03,0,.05,0,0,0,0,0,.01,0,0,0,0,0,0,0,0,0,0,.01,0,0,0,.01,0,.02,0,0,0,0,0,0,0,0,0,0-.01,0-.02,0-.02,0-.03,0-.05,0,0,0-.02,0-.03,0,0,0-.01,0-.02,0,0,0,0,0,0,0,0-.01,0-.02,0,0,0-.01,0-.01,0,0,0,0,0,0,.01h0ZM13,6.87s0,.02,0,.03c0,0,0,.01,0,.02,0,0,0,.02,0,.03,0,.01,0,.03-.02.04,0,0,0,0,0,0,0,0,.01,0,.02,0,0,0,0,0,0,0,0,0,0-.01,0-.02,0,0,0-.01.01,0,0,0,.01,0,.02,0,0,0,0,.01,0,.02,0,0,0,.01,0,.01,0,0,.01,0,.02,0,0,0,0,0,0,0,0,0,0-.02,0-.03,0-.01,0-.02,0-.03,0-.01,0-.02,0-.03,0,0,0-.01,0-.02,0,0,0,0,0,0,0,0,0,0-.01,0h0ZM13,6.89s0,.02,0,.02c0,0,0,.02,0,.03,0,.01-.01,0-.02,0,0,0-.01,0,0,0,0,0,0-.01,0-.02,0,0,0-.01,0-.02,0,0,0-.01,0-.02h0s0,0,0,0ZM13.23,7.02s0,0,0,.01c0,.01,0,.03,0,.04,0,.02,0,.04,0,.06,0,0,0,0,0,0,0,0,0,0,0,0h.06s0-.02,0-.03c0,0,0,0,0,0,0,0-.01.02-.02.02,0,0-.01,0-.02,0,0,0,0-.01,0-.02,0-.03,0-.06,0-.08,0,0,0-.01,0-.02h-.03ZM13.31,7.15h.03s0,0,0-.01c0,0,0-.1,0-.1,0-.01,0,0,0-.01h-.03s0,0,0,.01c0,0,0,.01,0,.02,0,.01,0,.08,0,.09,0,0,0,0,0,.01h0ZM13.37,7.02s0,0,0,.01c0,.01,0,.03,0,.04,0,.02,0,.03,0,.05,0,0,0,.01,0,.02,0,0,0,0,0,0,.01,0,.03,0,.04,0,.01,0,.02,0,.03,0,.01,0,.02-.02.01-.04,0,0,0-.01-.01-.01,0,0,0,0-.01-.01.01,0,.02,0,.02-.02,0,0,0-.02,0-.03,0,0,0,0,0,0,0,0-.01,0-.02,0-.02,0-.03,0-.05,0h0ZM13.4,7.03s.01,0,.02,0c0,0,0,.02,0,.03,0,0,0,0,0,0,0,0-.01,0-.02,0,0-.01,0-.02,0-.03,0,0,0-.01,0-.01h0ZM13.39,7.08s.02,0,.03,0c0,0,0,.02,0,.03,0,.01-.01.02-.02.02,0,0,0,0,0-.01,0-.02,0-.03,0-.05h0ZM13.45,7.15s0,0,.01,0c.01,0,.02,0,.03,0,0,0,.02,0,.03,0,0,0,0-.01,0-.02,0,0,0,0,0,0,0,0-.02,0-.03,0,0,0-.01,0,0-.01,0-.01,0-.03,0-.04,0,0,.01,0,.01,0,0,0,0,0,.01.01,0,0,0,0,0,0,0,0,0-.02,0-.03,0,0,0,.01-.02,0,0,0-.02,0-.01,0,0-.01,0-.02,0-.03.01,0,.02,0,.03.01,0,0,0,.01.01.01,0,0,0-.02,0-.03,0,0-.01,0-.02,0-.02,0-.03,0-.05-.01,0,0,0,0,0,.01,0,.02,0,.04,0,.06,0,.01,0,.03,0,.04,0,0,0,0,0,.01h0ZM13.56,7.05s0,.02,0,.02c0,.02,0,.04-.01.06,0,.01,0,.02,0,.03,0,0-.01,0,0,.01,0,0,.02,0,.02,0,0,0,0,0,0-.01,0,0,0-.02,0-.03,0,0,0-.01,0-.01,0,0,0,0,0,.01,0,.01,0,.03.01.04,0,0,.01.01.02.02,0,0,0-.01,0-.02,0,0,0-.02,0-.03v-.02s.01,0,.02,0c0,0,.01-.02,0-.03,0-.01-.01-.02-.02-.03-.01,0-.03,0-.04-.01,0,0,0,0,0,0h0ZM13.58,7.07s.02,0,.02.01c0,.01,0,.03,0,.04,0,0-.01,0-.02,0,0,0-.01,0,0,0,0-.01,0-.02,0-.04,0,0,0,0,0,0h0ZM13.64,7.11s0,0,.02,0c0,0,.01,0,.02,0,0,0,0,.01,0,.01,0,0,0,.02,0,.02v.06s-.02.01-.02.01c0,0,0,0,.01,0,0,0,.01,0,.02,0,0,0,0,0,0-.02,0-.01,0-.03.01-.04,0-.02,0-.04.01-.05,0,0,.01,0,.02.01,0,0,0,.01,0,.02,0,0,0,0,0-.01h0s-.02-.02-.03-.03c0,0-.01,0-.02,0h-.02s0,0-.01.01c0,0,0,0,0,0h0ZM13.76,7.14s0,0,0,.01c0,0,0,.01-.01.02-.01.02-.02.03-.03.05,0,0,0,.01-.02.01,0,0,0,0,0,0,0,0,0,0,.01,0,0,0,0-.01,0-.02,0,0,0-.02.01-.01,0,0,.02,0,.02.01,0,0,0,.01,0,.02,0,0,0,.01,0,.01,0,0,.01,0,.02,0,0,0,.01,0,0,0,0,0,0-.02,0-.02,0,0,0-.01,0-.02,0,0,0-.02,0-.03,0-.01,0-.03,0-.04,0,0,0-.01,0-.01,0,0,0,0-.01,0h0ZM13.75,7.16s0,0,0,0c0,.02,0,.03,0,.05,0,0,0,0-.01,0,0,0-.01,0,0-.01,0,0,.01-.01.02-.02,0,0,0-.01,0-.02h0ZM13.83,7.18s0,.02,0,.02c0,0,0,.01-.01.02,0,0,0,.02-.01.02,0,.01-.01.02-.02.03,0,0-.01,0,0,0,0,0,.01.01.02.02,0,0,.01.01.02.02.01,0,.03.01.04,0,0,0,.01-.01.02-.02,0,0,0-.02.01-.02,0-.01,0-.02,0-.03,0-.02-.01-.03-.02-.05,0,0-.01-.01-.02-.02,0,0,0,0,0,0h0ZM13.85,7.21s.02.02.01.03c0,.02,0,.04-.02.05,0,0-.01.02-.02.02,0,0-.02,0-.02-.01,0,0,0-.02,0-.02,0-.02.02-.03.03-.05,0,0,0-.01.01-.02,0,0,0,0,0,0h0Z"/>
        </g>
        <g>
          <path class="cls-22" d="M12.36,9.89s.07.03.09.04c0,0,.06.12.06.12.02.02.02.01.05.02l-.15.06s-.03.06,0,.06c.02,0,.07-.01.09-.02.08-.03.14-.07.21-.11.01,0,.06-.04.07-.04l.27.15s.06.03.08.02c0,0,.02-.02.02-.03,0-.02-.01-.02-.03-.02-.02,0-.14-.06-.15-.06h.03s0-.04,0-.03l.07-.11.08-.03c0-.08-.63-.13-.79,0Z"/>
          <path class="cls-30" d="M12.4,10.15s-.02.05.03.04c.03-.01,0-.05-.03-.04h0ZM13.07,10.15s0,.02,0,.03c.02,0,.03,0,.04,0,.01-.01,0-.02,0-.03-.01,0,0,0-.01,0,0,0-.01,0-.02,0Z"/>
        </g>
        <path class="cls-23" d="M13.67,7.65s0,0,0,.01c.06.11.04.06.08.21,0,0-.02-.03-.03-.04-.02-.03-.05-.07-.07-.11,0-.01,0-.01-.02-.02,0,.01.02.07.02.09.02.07.08.16.12.22-.01,0-.02-.02-.03-.02-.04-.03-.03-.02-.05-.06-.02-.03-.04-.07-.05-.11,0-.03-.02-.05-.03-.08,0,0,0,0,0,0,0,.01,0,.02,0,.03,0,.04.01.09.02.13-.03-.01-.02-.01-.05-.03,0,0-.01-.02-.02-.02l-.02-.03s.03.09.04.09c.01.02.06.06.07.07.02.05.04.09.08.13l.03.04-.07-.07s-.07-.06-.12-.1c0,.02.02.03.03.04l.08.09s.06.06.08.1l.05.09s-.02-.03-.03-.04l-.08-.1s-.06-.06-.09-.09c-.03-.02-.07-.05-.07-.05,0,.01.07.1.11.12.02.01.03.03.04.04.01.02.03.03.04.04.02.03.05.07.07.11l.03.06s-.14-.14-.17-.17c-.02-.02-.03-.04-.06-.05,0,.01.08.1.1.12,0,0,.01.01.02.02l.03.04s.06.08.08.11l.02.05s-.05-.07-.05-.07c0-.01-.02-.02-.03-.04-.03-.03-.07-.08-.1-.1l-.08-.05s.01.02.02.03l.03.03s.08.08.11.12c.02.02.03.04.05.07,0,0-.02-.02-.02-.02-.01-.01-.02-.01-.03-.02-.01-.02-.03-.03-.05-.04l-.13-.06s.04.04.06.04c.02.02.07.04.09.07,0,.01.01.02.02.03.02.02.03.04.05.06s.03.04.04.06c.01.02.02.04.04.07l.04.16c-.01-.05-.04-.11-.06-.16-.01-.04-.05-.14-.1-.12-.02,0-.03.03-.04.04-.01.02-.03,0-.07.07-.02.05-.04.1-.05.15,0,0,0,.02,0,.02,0,0,.02-.03.02-.04.02-.05.04-.08.07-.13l-.04.17s.02-.02.02-.04c.02-.04.03-.09.05-.13.06.04.07.25.08.33,0-.03-.03-.08-.04-.11l-.06-.1s-.04.05-.05.07c0-.01-.02-.04-.04-.03-.02,0-.03.03-.03.05,0,.02,0,.05,0,.08,0,0,0,.06,0,.06h0s.01-.14.01-.14c.02.01.06.1.06.14-.02.14-.03.19-.11.3-.01.02-.03.04-.04.06,0,.01-.01.02-.02.03l-.02.03c.04-.07.06-.09.08-.17.02-.06.04-.12.04-.18,0,0,0-.02,0-.03,0,0-.01.01-.01.02-.07.2-.07.21-.18.39l.02-.12s0,0-.01.02c0,0,0,.01,0,.02-.01.04-.03.09-.05.13,0-.01,0-.03.01-.04.01-.04.02-.08.02-.12v-.03s-.01.02-.02.04c-.01.04-.03.08-.05.12h0s.01-.08,0-.1c0,0,0,0,0,0,0,0-.01.02-.01.03,0,.01,0,.02-.01.04-.02.07-.06.11-.09.18-.02,0,0,0,0,0,0,0,0,0,0,0,.01,0,.01,0,0,0,.03,0,.2.04.2.04.1,0,.16-.01.26,0,.01,0,.08.01.08,0-.03-.02-.06-.02-.09-.03l-.09-.02h.27s-.02-.02-.02-.02c-.04-.02-.16-.02-.21-.03.09,0,.15-.02.24-.02.02,0,.1.02.07-.02-.03-.02-.13-.02-.16-.02h.16s.19.02.13-.01c-.04-.02-.14-.04-.19-.05.03-.02.05-.03.08-.04.06-.03.13-.04.19-.06.07-.01.12-.04.03-.03-.06,0-.13.02-.17.03l.04-.02s.09-.03.14-.05c0,0,0,0,0,0h0s-.02,0-.03,0c.03-.02.11-.03.14-.04.04,0,.07-.02.11-.03.01,0,.03,0,.03-.01h0s-.2.02-.22.02c-.02,0-.05.01-.07.01.06-.02.12-.05.18-.07.01,0,.06-.01.06-.02-.01,0-.02,0-.04,0-.06,0-.11.02-.17.04-.02,0-.04.02-.06.02.2-.08.12-.05.31-.09.02,0,.04,0,.04-.02h-.11s-.07,0-.1,0l.08-.07s.01-.02.05-.02c.01,0,.06,0,.07,0-.03-.03-.03-.01-.06-.03l.03-.04s.02-.02.02-.03c0,0,0,0,0,0h-.01s-.08.07-.08.07c-.01.01-.01,0-.03.01-.04,0-.07.01-.1.02.04-.03.06-.05.11-.07.02-.01.04-.02.06-.03.02,0,.06-.02.06-.03l-.13.03s-.09.04-.11.05c.06-.06.14-.13.21-.18,0,0,.03-.02.03-.03,0,0,0,0-.01,0-.03,0-.11.06-.14.08-.04.03-.09.06-.13.1.02-.03.05-.05.07-.07,0,0,.01-.01.02-.02,0,0,.01-.01.02-.02.01-.01.02-.02.04-.03.03-.02.05-.05.08-.07l.04-.03s.04-.02.03-.04c-.05.03-.11.06-.16.1-.03.02-.05.04-.07.05-.02.01-.06.05-.07.05.03-.05.06-.1.1-.14.05-.05.11-.11.17-.16.01-.01.03-.03.04-.04h0s-.06.03-.07.03c-.06.04-.12.09-.17.14,0,0-.02.02-.02.03-.03.02-.05.06-.07.09-.03.04-.06.08-.08.13.02-.08.07-.14.11-.18l.1-.11s.01-.01.02-.02c.06-.07.09-.12.11-.21-.01.02-.03.03-.05.06,0,0-.01.02-.02.03l-.19.22s.05-.1.06-.12c.02-.04.05-.07.08-.11.02-.03.1-.14.12-.16h0s.01-.03.03-.04c.02-.01.02-.02.04-.03-.02-.02-.08.02-.1.03-.08.06-.15.14-.21.22,0-.04.06-.17.08-.2.02-.03.04-.06.06-.09l.06-.09s-.03.02-.04.03l-.02.02c-.07.08-.12.17-.17.27,0-.05.05-.13.07-.17.03-.05.07-.1.1-.15-.02,0-.07.06-.08.07-.02.03-.05.06-.07.09-.04.06-.07.13-.09.2h0s.07-.2.1-.25c.02-.03.03-.05.05-.08,0,0,.01-.02.02-.03.01-.02.03-.03.04-.05l.04-.05s-.11.09-.13.11c-.02.03-.04.06-.06.09,0-.05.05-.12.07-.16.02-.04.05-.07.08-.1,0-.01.02-.02.02-.03-.03,0-.14.13-.16.16,0,.01-.02.03-.03.04l-.04.06s0,0,0,.01h0s.03-.13.05-.18c.02-.05.05-.1.07-.16-.02,0-.06.05-.07.06l-.04.09s.07-.18.09-.23c-.01,0-.02.02-.03.04-.03.04-.05.09-.08.13,0-.04.03-.09.05-.13-.04.02-.1.15-.11.19,0,.02-.01.04-.02.06v.02c0-.1.01-.2.03-.3,0,0-.01.01-.01.02v.03s-.02.04-.03.06l-.03.12c-.04-.06-.05-.17-.14-.3-.03-.04-.04-.04-.07-.07h0ZM13.71,8.85c.03.1.05.13.07.23,0,0,0,0,0,.01,0,.01,0,.03-.01.04l-.03-.09s0-.1,0-.11c0,.02,0,.02,0,.05,0,0-.01-.03-.02-.04-.02-.05-.02-.04,0-.07,0,0,0-.03.02-.03h0Z"/>
        <g>
          <path class="cls-33" d="M13.98,8.68c.01-.13.18-.45.23-.46,0,0-.05.09-.1.18-.04.09-.09.2-.1.26-.01.05-.03.09-.03.09,0,0,0-.03,0-.07h0ZM14.34,8.6s-.03.03-.07.07c-.13.12-.27.32-.34.49-.07.18-.05.13-.03.05.05-.19.2-.42.34-.54.05-.04.1-.07.1-.06h0ZM13.92,8.3c0-.12.01-.17.08-.31.05-.09.06-.13.07-.12,0,0,0,.02,0,.04-.04.08-.11.31-.12.41,0,.03-.01.06-.01.06,0,0,0-.04,0-.08h0ZM13.72,8.98c0,.1,0,.2-.05.31-.03.07-.13.22-.15.23-.01,0,0,0,.02-.03.1-.12.17-.31.18-.48,0-.09,0-.1,0-.03Z"/>
          <path class="cls-33" d="M14.03,8.87s.02.14,0,.2c-.04.13-.13.22-.26.26-.03,0-.05.01-.05.01,0,0,.02-.01.04-.02.16-.07.26-.23.26-.39,0-.03,0-.05,0-.05,0-.01,0-.02,0-.03,0,0,0,0,0,.03h0Z"/>
          <path class="cls-33" d="M14.37,9.14s-.07.01-.15.03c-.08.01-.19.03-.24.04-.07.02-.09.02-.09.01,0,0,0,0,0-.01,0,0,.23-.04.35-.06.09-.01.14-.02.14-.01h0ZM13.72,7.73c.05.06.07.09.09.2.02.07.02.09.02.09,0,0,0-.01-.01-.02-.01-.06-.08-.21-.11-.27-.01-.02-.02-.04-.02-.04,0,0,.02.02.04.04h0Z"/>
          <path class="cls-33" d="M13.66,7.81c.03.08.04.11.12.19.05.05.07.07.07.06,0,0,0-.01-.01-.02-.04-.04-.14-.18-.16-.24,0-.02-.02-.04-.02-.04,0,0,0,.02.01.05h0ZM14.14,8.06c-.08.08-.22.32-.2.36,0,0,.04-.05.08-.13.04-.08.09-.17.12-.21.03-.04.05-.07.05-.07,0,0-.02.02-.04.04h0ZM14.18,8.12c-.09.09-.25.36-.22.41,0,0,.04-.06.09-.14.04-.08.1-.19.14-.23.03-.04.06-.07.05-.07,0,0-.03.02-.05.04h0ZM13.63,7.87c.01.08.03.11.09.2.04.06.06.08.06.07,0,0,0-.01-.01-.02-.04-.05-.11-.2-.13-.26,0-.02-.01-.04-.02-.04,0,0,0,.02,0,.06h0Z"/>
          <path class="cls-33" d="M13.76,8.03c.07.02.09.03.09.02,0,0-.01-.01-.02-.01-.06-.02-.23-.09-.23-.12,0-.01-.04-.05-.04-.05,0,0,.14.15.2.17h0ZM14.34,8.33c-.13.09-.36.4-.34.45,0,0,.06-.06.13-.16.07-.1.16-.21.2-.26.05-.05.08-.08.08-.08,0,0-.03.02-.07.04h0ZM14.32,8.52c-.06.11-.27.33-.32.32,0,0,.04-.06.11-.12.07-.06.15-.15.18-.19.03-.04.06-.07.06-.07,0,0-.01.03-.03.06h0ZM13.56,9.29c-.02.11-.16.35-.2.35,0,0,.02-.06.07-.13.04-.07.09-.16.11-.21.02-.04.03-.08.03-.07,0,0,0,.03,0,.06ZM13.91,8.63c-.02-.07-.09-.16-.17-.23-.09-.08-.11-.09-.04-.02.07.07.16.19.19.26.01.03.03.05.03.05,0,0,0-.03-.01-.06h0ZM13.98,9.53c-.1-.03-.35-.03-.37,0,0,0,.06,0,.13,0,.08,0,.17,0,.21,0,.04,0,.07,0,.07,0,0,0-.02,0-.05-.02h0ZM13.87,9.57c-.1-.02-.35-.01-.37.02,0,0,.06,0,.13,0,.08,0,.17,0,.21,0,.04,0,.07,0,.07,0,0,0-.02,0-.05-.02ZM13.76,9.63c-.1-.02-.35,0-.37.03,0,0,.06,0,.13,0,.08,0,.17-.01.21-.01.04,0,.07,0,.07,0,0,0-.02,0-.05-.01Z"/>
          <path class="cls-33" d="M13.69,9.69c-.09-.03-.31-.04-.32,0,0,0,.05,0,.12,0,.07,0,.15,0,.19.01.04,0,.06.01.06,0,0,0-.02-.01-.04-.02h0ZM14.09,9.38c-.21.06-.46.1-.47.14,0,0,.09,0,.18-.04.09-.04.21-.07.27-.08.05-.01.1-.02.09-.03,0,0-.04.01-.07.01h0ZM14.36,9.24s-.08.02-.18.03c-.1.02-.23.04-.28.05-.09.02-.1.02-.11.01,0,0,0-.01,0-.01,0,0,.27-.05.42-.07.11-.02.17-.02.16-.01h0Z"/>
          <path class="cls-33" d="M14.29,9.19s-.07.02-.15.04c-.08.02-.19.05-.23.07-.07.02-.09.03-.09.02,0,0,0,0,0,0,0,0,.22-.07.35-.1.09-.02.14-.03.13-.03h0Z"/>
          <path class="cls-33" d="M14.24,8.94c-.14.06-.43.31-.42.37,0,0,.07-.05.16-.13.08-.08.2-.17.25-.21.05-.03.09-.06.09-.06,0,0-.04.01-.07.03h0Z"/>
          <path class="cls-33" d="M14.35,9.01c-.14,0-.47.16-.48.21,0,0,.08-.02.17-.07.1-.05.22-.1.28-.11.06-.01.1-.03.1-.03,0,0-.04,0-.07,0h0Z"/>
          <path class="cls-33" d="M14.34,9.03c-.37.31-.57.46-.65.43-.01,0,.13-.09.26-.17.12-.08.27-.19.33-.25.06-.06.11-.1.11-.1s-.02.04-.05.09h0ZM13.95,9.13c.07-.12.11-.15.27-.25.1-.06.14-.08.14-.07,0,0-.01.02-.03.03-.09.05-.29.23-.37.33-.02.03-.05.05-.05.05,0,0,.02-.04.04-.08h0ZM13.99,8.78c.01-.13.24-.58.29-.59,0,0-.05.09-.1.18-.04.09-.09.2-.1.26-.01.05-.1.25-.1.25,0,0,0-.06,0-.09h0ZM13.9,8.26c-.04-.09-.04-.13-.01-.25.02-.08.03-.11.03-.11,0,0,0,.02,0,.03-.02.07-.02.26,0,.34,0,.03,0,.05,0,.05,0,0-.02-.02-.03-.06h0ZM13.97,8.75c-.02-.06-.08-.14-.16-.21-.08-.07-.1-.08-.03-.02.06.06.14.17.17.23.01.03.02.05.03.05,0,0,0-.03-.01-.05h0ZM13.61,8.86c.07-.26.13-.22.13-.22.16.15.08.66.08.66,0-1.05-.21-.45-.21-.45h0Z"/>
          <path class="cls-33" d="M13.67,8.84c.07-.26.09-.25.09-.25.13.03.12.6.12.6-.06-.99-.21-.35-.21-.35h0ZM13.6,9.04c0-.19.03-.16.03-.16.11.09.15.46.15.46-.16-.74-.18-.3-.18-.3h0ZM13.92,8.49c-.03-.1-.13-.2-.23-.34-.12-.11-.16-.13-.05-.02.07.04.21.25.26.37.02.04.04.07.04.07,0,0,0-.04-.02-.08h0Z"/>
          <path class="cls-33" d="M13.91,8.4c-.02-.08-.09-.18-.18-.26l-.06-.05c.06.07.19.25.22.32.01.03.03.06.03.05,0,0,0-.03-.01-.06h0ZM13.39,9.44c0,.06-.07.18-.09.18,0,0,0-.03.03-.07.02-.04.04-.09.05-.11,0-.02.01-.04.01-.04,0,0,0,.01,0,.03h0ZM13.33,9.47c0,.06-.07.18-.09.18,0,0,0-.03.03-.07.02-.04.04-.09.05-.11,0-.02.01-.04.01-.04s0,.01,0,.03h0ZM13.41,9.48c0,.06-.07.18-.09.18,0,0,0-.03.03-.07.02-.04.04-.09.05-.11,0-.02.01-.04.01-.04,0,0,0,.01,0,.03h0Z"/>
        </g>
        <path class="cls-31" d="M11.48,8.04s0,.04.02.05v-.06s-.01,0-.02,0h0Z"/>
        <g>
          <path class="cls-21" d="M11.4,8.45l-.03-.02M11.43,8.29s-.02-.03-.02-.03M11.35,8.67c0-.06-.04-.08-.04-.08M11.65,9.49c-.16-.18-.22-.51-.22-.51.05-.14.12-.17.12-.17M11.44,8.99c-.05-.21-.04-.43-.04-.43.02-.27.1-.51.1-.51M11.39,8.63c.04-.2.21-.17.21-.17"/>
          <path class="cls-21" d="M11.39,8.67c.15-.06.13-.19.16-.24.04-.08.07-.1.07-.1M11.54,9.31c-.05-.13,0-.15,0-.15M11.52,9.27c-.06-.08-.15-.08-.15-.08M11.49,8.88c.04-.07,0-.14,0-.14M11.51,9.23l-.11-.15M11.46,8.16c.02-.06-.03-.09-.03-.09"/>
          <path id="a" class="cls-24" d="M11.44,8.06s-.01.03-.03.03-.03-.01-.03-.03h0s.01-.03.03-.03c.02,0,.03.01.03.03Z"/>
          <path id="a-2" data-name="a" class="cls-26" d="M11.51,8.71s-.01.03-.03.03-.03-.01-.03-.03h0s.01-.03.03-.03c.02,0,.03.01.03.03Z"/>
          <path id="a-3" data-name="a" class="cls-24" d="M11.49,8.79s-.01.03-.03.03-.03-.01-.03-.03h0s.01-.03.03-.03c.02,0,.03.01.03.03Z"/>
          <path id="a-4" data-name="a" class="cls-25" d="M11.41,9.06s-.01.03-.03.03-.03-.01-.03-.03h0s.01-.03.03-.03c.02,0,.03.01.03.03Z"/>
          <path id="a-5" data-name="a" class="cls-25" d="M11.37,9.19s-.01.03-.03.03-.03-.01-.03-.03h0s.01-.03.03-.03c.02,0,.03.01.03.03Z"/>
          <path id="a-6" data-name="a" class="cls-25" d="M11.42,9.24s-.01.03-.03.03-.03-.01-.03-.03h0s.01-.03.03-.03c.02,0,.03.01.03.03Z"/>
          <path id="a-7" data-name="a" class="cls-27" d="M11.98,9.49s0,.02-.02.02-.02,0-.02-.02h0s0-.02.02-.02c.01,0,.02,0,.02.02Z"/>
          <path id="a-8" data-name="a" class="cls-27" d="M12.02,9.53s0,.02-.02.02-.02,0-.02-.02h0s0-.02.02-.02c.01,0,.02,0,.02.02Z"/>
          <path class="cls-21" d="M11.51,8.84s-.03-.04-.03-.04M11.92,9.53s.06.01.06.01"/>
        </g>
        <g>
          <path class="cls-22" d="M11.98,9.63c-.03-.11-.02-.13-.02-.13M11.73,9.44s-.02-.04.01-.06c.02-.01.09.03.13-.14,0,0-.02,0-.08.02h0s-.01-.05,0-.1c0,0,.03-.04.03-.05,0,0-.05-.02-.14.1,0,0,0-.03-.08-.07,0,0-.04.1-.02.16.01.05.02.06.06.1,0,0,.04.02.04.07.02,0,.04,0,.04,0,0,0,0,0,0-.02h0ZM11.66,9.56s-.02.02-.05.02c-.12.02-.19-.14-.19-.14,0-.03.01-.01.04,0,.03.01.04,0,.08,0,.05,0,.1.04.1.04.03.03.03.08.03.08,0,0-.02,0-.02,0h0ZM11.52,9.28c-.13-.05-.2,0-.2,0,0,0,0,.01,0,.01.08,0,.05,0,.09.05.06.08.15.06.15.06.02,0,.04.03.04.03,0-.07-.09-.16-.09-.16h0ZM11.3,8.78s-.02.02-.02.02c-.05-.09-.19-.1-.19-.1-.01,0-.02,0-.02,0-.02,0,0,.05,0,.05.04.11.08.12.08.12-.05.03-.12-.03-.1.01.07.08.12.09.12.09.09.02.13,0,.13,0,.02.04.03.04.03.04.08.02.1.07.1.07,0-.09-.03-.2-.03-.2-.03-.04-.11-.09-.11-.09h0Z"/>
          <path class="cls-22" d="M11.95,9.66s-.05.05-.05.05c-.04.06-.2,0-.2,0-.05-.01-.04-.03-.04-.03.04-.02.06-.04.06-.04-.08-.07-.1-.17-.1-.17.13-.03.17,0,.17,0,0-.05-.05-.05-.05-.05-.01-.02.01-.02.01-.02.11.01.17.08.17.08.04.06.03.12.03.12.01.06-.01.06-.01.06h0ZM11.42,9.14c-.06-.02-.1,0-.1,0-.03.01-.09-.02-.09-.02-.08-.07-.09-.11-.09-.11,0-.01.07,0,.07,0,.09,0,.11.02.11.02.05.03.04.05.06.06.04.02.05.03.05.03.01.02.02.03,0,.03h0ZM11.54,9.17s.1-.02.1-.02c.09.01.12-.09.12-.09.02-.04.04-.06.04-.06,0-.02-.04,0-.04,0-.08.02-.08.03-.08.03.01-.12.01-.12.01-.12,0-.02-.02,0-.02,0-.11.06-.12.11-.12.11l-.05-.09s-.02,0-.02,0c-.02.1-.01.11-.01.11.01.06.03.07.03.07.03.03.03.05.03.05h.02Z"/>
          <path class="cls-22" d="M12.2,9.46s-.06.08-.06.08c-.06-.1-.13-.12-.13-.12-.01,0,0,.03,0,.03.02.06,0,.1,0,.1,0,.04,0,.05,0,.05-.09-.05-.09-.04-.09-.04,0,.06.07.16.07.16.15-.04.16-.04.16-.04.05,0,.05,0,.05,0,.04-.13.01-.21.01-.21h0ZM11.48,8.89c.06.03.06.06.06.06.01.05.15.06.15.06.11-.01.1-.03.1-.03-.06-.05-.04-.05-.07-.08-.05-.05-.11-.05-.11-.05-.08.01-.1,0-.1,0-.03.02-.02.03-.02.03h0ZM11.35,8.7c-.03-.1.06-.22.06-.22.07.14.06.17.06.17-.03.09-.06.16-.06.16-.01-.07-.05-.08-.06-.11h0Z"/>
          <path class="cls-22" d="M11.31,8.73c-.09,0-.18-.1-.18-.1.14-.04.17-.02.17-.02.08.04.13.09.13.09-.06,0-.08.03-.12.03h0Z"/>
          <path class="cls-22" d="M11.23,8.6c-.06,0-.11-.05-.11-.05-.08-.1-.05-.14-.05-.14,0,0,.02,0,.02,0,.02.02.07.03.07.03-.13-.08-.04-.25-.04-.25.02-.02.02.02.02.02.02.05.07.07.07.07.03.04.03.05.03.05.01-.06.03-.04.03-.04.02.05.07.08.07.11.02.09,0,.1,0,.1-.01.05-.01.09-.01.09-.05-.02-.09,0-.09,0h0ZM11.53,8.81s0-.12,0-.12c-.01-.08.11-.16.11-.16.04.07.03.1.03.1.09-.02.11-.03.11-.03,0,.05-.05.13-.05.13.08.02.1-.01.1-.01-.04.17-.2.13-.2.13-.07-.04-.11-.05-.11-.05h0Z"/>
          <path class="cls-22" d="M11.28,8.32c0-.1.03-.11.03-.11.01,0,.02.05.03.06.06.03.06.1.06.1,0,.08-.01.07-.01.07-.09,0-.11-.12-.11-.12h0ZM11.57,8.34c.03-.12.01-.13.01-.13-.01,0-.04.05-.06.05-.08,0-.11.08-.11.08-.03.09-.02.09-.02.09.1.03.16-.05.17-.09h0Z"/>
          <path class="cls-22" d="M11.28,8.13c.01-.12.03-.12.03-.12.01,0,.02.06.04.07.07.03.07.11.07.11,0,.1-.02.09-.02.09-.1,0-.13-.1-.13-.14h0ZM11.61,8.16c.03-.11.02-.13.02-.13-.01,0-.04.05-.06.05-.08,0-.11.08-.11.08-.03.09-.02.09-.02.09.1.04.16-.05.17-.09h0ZM11.75,8.48c.09-.07.09-.09.09-.09-.01,0-.06.01-.07,0-.07-.04-.14,0-.14,0-.08.05-.06.06-.06.06.06.09.15.06.19.03Z"/>
          <path class="cls-22" d="M11.75,8.54c.09-.04.09-.06.09-.06,0,0-.05,0-.06,0-.05-.04-.11-.02-.11-.02-.07.03-.06.04-.06.04.03.08.12.07.15.05h0ZM11.44,8c-.04-.11.07-.25.07-.25.01.04.03.08.04.12.09-.09.16-.1.16-.1v.07c.05,0,.08-.02.08-.02-.01.09-.12.17-.12.17-.04.03-.09.02-.09.02-.08.02-.1.08-.1.08,0-.05-.01,0-.04-.08h0ZM11.59,8.35c.05-.06.13-.04.13-.04.07,0,.13-.07.13-.07.03-.05.05-.06.05-.06,0-.02-.02-.01-.02-.01-.04,0-.04.01-.04.01.03-.12.01-.12.01-.12-.01,0-.02,0-.02,0-.02.05-.09.05-.09.05,0-.08-.02-.07-.02-.07-.01.02-.04.03-.04.03-.07.07-.07.1-.07.1,0,.09-.02.16-.02.16h0Z"/>
        </g>
        <g>
          <path class="cls-34" d="M11.58,8.78s.03-.03.05-.04c.02,0,.01,0,.02-.02,0-.02,0-.01.02-.03v.03s.01-.02.04-.03c0,0-.02.02-.03.03-.01,0-.02.02-.04.02l-.07.06c.06-.01.05,0,.08,0,.07-.01.1-.1.12-.16-.05,0-.09.02-.13.04-.04.03-.04.05-.07.1h0ZM11.41,9.01s-.02-.03-.02-.04c-.02-.03-.02-.04-.04-.08-.01-.02,0-.01-.02-.04,0,0,.02.03.03.04v-.04s0,.01,0,.02c0,.04,0,.03.02.07l.05.08s0-.02-.01-.04c-.01-.05.02-.11-.11-.18l-.03-.02c0,.06,0,.16.06.19,0,0,.02,0,.03.01.01,0,.02.01.03.01h0ZM11.38,8.25s-.01-.03-.02-.05c0-.02,0-.01-.01-.02v-.02s0,0,0,0c0-.01,0-.02-.01-.03-.01-.02,0,0-.02-.03.02,0,.04.06.05.08.01.05.01.04.04.08,0,0-.01-.02-.01-.03,0-.03.02-.06,0-.12-.02-.03-.05-.04-.07-.07l-.02-.03s-.01.05-.01.06c0,.04,0,.1.04.12.01,0,.04.02.05.03ZM11.54,7.95s.02-.02.03-.03l.03-.03v-.03s0,0,0,.02c0,0,.03-.04.03-.05,0,0-.01.03-.02.04,0,.01-.02.02-.03.03l-.06.07s.02,0,.03-.01c.04,0,.05-.01.08-.05.02-.04.03-.09.04-.13-.05.02-.11.04-.14.09-.01.02,0,.03,0,.07h0ZM11.2,8.46s-.06-.09-.06-.11v-.05s0,0,0,0c0,0,0,.03,0,.03l.02.03s0-.01,0-.03c0,.01,0,.03,0,.05,0,.01.02.03.03.04,0-.03.02-.08-.01-.13-.01-.02-.03-.02-.04-.04l-.03-.05c-.02.05-.02.16.03.2,0,0,.02,0,.03.01,0,0,0,0,.01,0,0,0,0,0,.01,0h0ZM11.44,8.25s.01-.02.06-.06c.01,0,.02-.02.03-.03.02-.02.01-.01.03-.03,0,0-.03.04-.04.06h.02s-.01,0-.03,0c-.01,0-.05.05-.06.06,0,0,.02,0,.03,0,.03,0,.05,0,.08-.04.03-.04.04-.08.05-.12-.04.01-.09.03-.12.06-.03.03-.03.06-.04.09,0,.01-.01.02-.02.03h0ZM11.28,8.57s-.02-.02-.03-.03c-.02-.01-.02-.01-.04-.01l-.07-.04s.01,0,.03.01h.03s0,0,0,0c0,0,0,0,0,0h0s.03.02.06.04c0-.01,0-.01-.01-.02,0,0,0-.01-.02-.02-.01-.01,0,0-.02-.02-.03-.04-.06-.02-.08-.03l-.05-.02s.03.08.06.11c.01.01.03.03.05.03,0,0,.07,0,.08,0h0ZM11.25,8.84s-.02-.02-.03-.03c0,0-.01,0-.03,0h-.02s.03,0,.03,0c0,0,0,0-.01,0-.02-.01-.02-.01-.03-.03,0,0,0,0,.02,0,.02.02.06.05.08.06l.04.02s-.04-.09-.07-.1l-.13-.04s.04.08.05.1c.04.05.04.03.07.03.01,0,.02,0,.04,0h0ZM11.31,8.55l-.05-.16s0,.01.01.03v.03s.01,0,.02-.02c0,0,0,.02,0,.03,0,.02,0,.01,0,.03l.02.06s0-.02,0-.03c0-.04.01-.06,0-.1-.02-.04-.04-.06-.07-.09,0,0-.01.05-.01.06,0,.04,0,.1.03.12.03.02.01,0,.04.04ZM11.4,8.76s0-.09,0-.13c0,0,0-.01,0-.02,0-.01,0,0,0-.02,0,0,0,0,0,.01v.05s.01-.03.01-.03c0,0,0,.01,0,.02,0,0-.01.02-.01.03v.08s0,0,0,0c0,0,0-.02.01-.03.02-.03.03-.06.03-.1l-.04-.12s-.02.04-.03.06c0,.02-.02.04-.02.07,0,.06,0,.07.02.1,0,0,0,.02.01.03h0ZM11.47,8.04s0-.09,0-.09c0,0,0-.01,0-.01v-.03s0,0,0,.02h0s0-.02,0-.02c0-.01,0,0,0-.02,0,0,0,0,0,0,0,0,0,0,0,.01,0,.05,0,.1,0,.15,0,0,0-.02.01-.03.01-.03.04-.07.03-.1l-.03-.15s-.02.04-.03.06c-.02.04-.04.1-.02.14l.02.06s0,0,0,0h0ZM11.08,8.88s.03.03.04.04c.02.02.08.04.11.04h.07s-.01-.04-.01-.04c-.01,0-.02,0-.04,0-.01,0-.03,0-.04,0-.01,0-.02,0-.04,0-.02,0-.01,0-.03-.01h.07s-.01,0-.02-.01c0,0,.03.02.04.02h.06s0-.04,0-.04c-.03-.01-.07-.01-.1,0-.06.02-.04.02-.1.01h0ZM11.16,9.03s.07.08.08.09h.14s-.04-.01-.06-.02c-.03-.01-.03,0-.07,0,0,0,.01,0,.03-.01,0,0-.05-.02-.05-.02h0s0,0,0,0c0,0,0,0,.01,0,.06.02.08.03.14.05-.02-.01-.02-.02-.04-.04-.05-.07-.11-.05-.18-.04h0ZM11.63,8.27l.02-.04s0-.02,0-.05c0,0,0,0,0,.03l.03-.06s-.03.09-.04.11v.04s.06-.05.06-.08v-.15s-.05.05-.07.08c-.02.04-.02.07-.01.12h0ZM11.57,9.13s.02-.01.03-.02c.05-.01.03.01.07-.04v.03s.02-.02.04-.04c0,0,0,.02-.02.03-.03.03-.06.02-.08.03l-.04.02s.04,0,.07,0c.07.01.09-.06.11-.1l.02-.03s-.09.03-.11.04c-.02.01-.03.02-.05.03,0,0-.01.01-.02.02-.01,0-.02,0-.02.02h0Z"/>
          <path class="cls-34" d="M11.56,8.77s.02-.08.04-.11c0,0,0,0,0-.01,0,0,0,0,.01,0,0,0-.01.01-.02.02v.03s0,0,0,0c0,0,0,0,0,0,.02-.02.03-.03.06-.04l-.02-.09-.04.04s-.03.03-.04.04c-.03.05,0,.08,0,.13h0ZM11.55,9.12l.06-.09v-.04s0,0,.01.03c.02-.03,0-.02.03-.04,0,0-.02.05-.02.05-.02.03-.03.05-.06.09.01,0,.03-.02.04-.03,0,0,.01-.01.02-.02,0,0,.02,0,.02-.01l.02-.13s-.08.05-.1.07c-.03.04-.04.06-.03.13h0ZM11.68,8.8h.07s-.01,0-.03,0c-.03,0-.09,0-.13,0,.01,0,.02,0,.03.02.01,0,.02.01.03.02.02.01.05.01.07,0l.09-.09s-.02.01-.09,0c-.01,0-.01.02-.04.03,0,0-.01,0-.01,0h0ZM11.16,8.63s.08.09.13.09c.02,0,.03-.01.04-.02,0,0,0,0,0,0,0,0,0,0,0,0-.04,0-.05,0-.09,0h.02s-.02-.02-.03-.02c-.02,0-.01,0-.03-.01,0,0,0,0,.01,0,.05.02.07.02.13.03,0-.02-.05-.04-.08-.04-.04,0-.05.02-.1,0h0ZM11.52,9.11l-.02-.12s0,0,.01.03l.02.11s.02-.07,0-.11l-.04-.08s-.01.07-.01.1c0,.04,0,.05.03.07,0,0,0,0,0,0h0ZM11.68,7.91s.01,0,.02-.02h.02s-.01,0-.02.02c-.01.02-.02.02-.03.03-.03.03-.02.03-.07.05.09,0,.13-.09.17-.15-.08.01-.07.02-.08.04,0,.01,0,.02-.01.03ZM11.7,8.28l.02-.04s.02,0,.05-.03c0,0,0,0-.03,0l.04-.05s-.07.08-.08.1l-.03.03s.01-.09.03-.12l.13-.08s-.02.08-.03.11c-.02.04-.06.06-.11.08h0ZM11.38,8.44s-.03-.04-.04-.06l-.02-.08s.01.02.01.03v.03s0,0,.02-.03c0,.01,0,.04,0,.05,0,.01.01.01.03.03,0-.04.01-.08-.01-.1l-.06-.07s-.01.09,0,.12c.01.04.03.04.05.05,0,0,.01,0,.02.01h0ZM11.43,8.43s.05-.03.06-.05l.05-.07s-.02.02-.02.03l-.02.03s0,0,0-.03c-.01.01,0,.04-.02.05-.02.01-.02,0-.04.03,0-.04.02-.09.05-.11l.09-.05s-.02.1-.04.13c-.03.03-.04.03-.07.04-.01,0-.02,0-.03,0h0ZM11.59,8.44s.09,0,.11-.01h.03s0,0-.01,0c.03,0,.01,0,.04,0,0,0,0,0-.02,0-.03,0-.04,0-.07,0h-.1c.06.03.07.07.14.04.06-.02.07-.04.1-.09-.09.02-.1-.05-.18,0-.01,0-.03.03-.04.04h0Z"/>
          <path class="cls-34" d="M11.71,8.49s.01,0,.03,0c0,0-.05,0-.06,0h-.06s.05.04.1.04c.05,0,.06-.02.1-.04l-.07-.02-.03.02ZM11.68,8.9s-.02-.01-.03-.02c-.04-.01-.07,0-.09,0h-.05s.06.03.08.03c.06,0,.02.03.08-.01h0ZM11.69,8.94l.02.02s-.01,0-.02,0v.04s.08-.01.08-.01c-.03-.03-.04-.05-.07-.08,0,.01,0,.02,0,.04h0ZM11.58,8.97l.05-.04s-.04,0-.05-.01l-.05-.02s.01.01.03.04c0,.01.01.03.03.04h0ZM11.82,8.24s-.04.03-.06.04c-.03.01-.07,0-.09.02.05,0,.09.02.13-.02.03-.02.05-.06.07-.09,0,0-.04,0-.04.01,0,0,0,.01-.01.02,0,.02,0,0,0,.02h0ZM11.64,9.48l.04.08.05.07s.02-.01.04-.02l.04-.02s-.03-.02-.04-.02c-.03,0-.01,0-.06,0,0,0,0,0,.03,0h.03s-.04-.03-.06-.04l.06.03v-.04s0,.02.01.05c0,0,.02.02.03.03.02,0,.03,0,.05.01h.05s-.01.02-.04-.05c-.01-.03-.02-.04-.05-.06-.05-.03-.12-.01-.18-.01h0ZM11.71,9.4s0-.06,0-.09c0-.02,0-.06,0-.08,0,0,0,0,0,.02v.02s.02-.03.03-.06c0,0-.02.03-.02.07v.1s0,0,0-.01c0,0,0,0,0-.01,0,0,.01-.01.02-.02.05-.07.02-.11.02-.13v-.07s-.04.03-.05.04c-.04.04-.07.1-.05.15,0,.01.01.02.02.04,0,.01,0,.03.02.04h0Z"/>
          <path class="cls-34" d="M11.68,9.67s.05.02.06.02c.04.01.11.02.14-.02.02-.02.03-.03.05-.04-.03,0-.05.01-.08.02-.02,0-.02.02-.04.03h-.02s.02-.02.03-.03h-.06s.02,0,.05,0c.05,0,.06-.02.12-.03,0,0,0,0,.01,0-.09,0-.1-.06-.21.02l-.05.04ZM12.07,9.62v-.04s-.02-.02-.03-.04c.01,0,.01.02.03.03,0-.02-.01-.06-.01-.08,0,0,.01.03.02.04.01.05,0,.09.01.11l.02.03s.04-.06,0-.14c-.03-.05-.05-.06-.09-.09,0,.02.01.03,0,.06,0,.02-.01.04-.01.06,0,.05,0,.04.02.05.02,0,.03.02.04.03h0ZM11.65,9.54v-.03s-.06.02-.11-.02c-.01,0-.01,0-.02-.02l.06.03s0-.01-.02-.04c0,0,0,0,0,0,0,0,0,0,0,0l.03.04h.04s0-.02,0-.03c0-.01,0-.01-.01-.02-.01,0-.03-.02-.05-.02-.02,0-.04,0-.06,0h-.06s.02.03.03.04c.02.03.09.08.14.06,0,0,.03,0,.03-.01h0ZM11.35,9.27h0s0,0,0,0c.02,0,.03.01.04.03.01.02.02.02.04.04.04.03.08.03.12.04,0,0-.02-.02-.02-.03-.04-.04-.03-.04-.06-.04h-.04s.03,0,.04-.01c0,0-.02,0-.03,0-.02,0,0,0-.03,0,.01-.01.06,0,.09.03.02.02.04.04.06.06l-.03-.06c-.03-.05-.1-.07-.16-.06,0,0-.03,0-.04,0h0ZM11.69,9.41c-.02-.06-.05-.09-.06-.13,0-.03,0-.03,0-.05.01.02-.01.03.03.09,0-.02,0-.03,0-.05,0,0,.01-.05.01-.05,0-.01-.05-.05-.06-.07,0,.06-.02.11,0,.16.02.06.05.04.09.1h0ZM11.99,9.7h.04s-.02-.03-.03-.04c-.02-.03-.02-.03,0-.04,0,0,0,0,0,0,0,0,0,0,0,.02,0,0,0,.01.01.02,0,.01.02.02.03.03,0-.02,0-.03,0-.04,0,0,0,0,0,0v.03s.05-.01.05-.01c-.03-.05-.09-.07-.14-.09,0,.02,0,.04.01.06,0,.02.01.04.02.06h0ZM11.92,9.58s-.01-.02-.02-.04c-.01-.03-.01-.05-.04-.07,0,0,0-.01-.01-.01,0,0-.01,0-.01,0,0,0,0,0,0,0h0s.03.02.04.02c.02.02.06.1.07.13,0-.01,0-.03,0-.04.01-.03-.02-.08-.04-.09l-.12-.06s.02.02.03.05c0,.02.01,0,.04.04.03.04.03.08.07.09h0Z"/>
          <path class="cls-34" d="M12.15,9.58s0-.01,0-.02c0-.01,0,0,.01-.02,0,0,0,.01,0,.03-.01.03-.02.06-.03.09.03,0,.03,0,.04-.02,0-.01.01-.03.02-.05v-.12s-.04.05-.04.05c-.02.03,0,.01,0,.06ZM11.77,9.32s.03-.03.04-.04c0,0-.02.03-.02.04-.02.02,0,0-.03.03.05,0,.08-.06.09-.1-.01,0-.04.01-.05.02,0,0,0,0,0,.01,0,0,0,0,0,.01,0,0,0,.02,0,.03h0Z"/>
        </g>
        <g>
          <path class="cls-7" d="M12.32,9.99l.07.03-.04.08s.13-.04.16-.05c0-.02-.01-.03,0-.06v-.05s-.09.03-.09.03c-.03,0-.06.02-.09.02h0ZM13.2,9.97l-.07.03.04.08s-.13-.04-.16-.05c0-.02.01-.03,0-.06v-.05s.09.03.09.03c.03,0,.06.02.09.02h0Z"/>
          <path class="cls-11" d="M12.56,10.09c.08-.01.14-.05.14-.05.01.01.07,0,.07,0,.03,0,.04,0,.04,0,.08.05.13.06.13.06.07,0,.07-.06.07-.06,0-.05,0-.05,0-.05.04-.06,0-.1,0-.1-.02-.02-.12.01-.12.01-.07.03-.07.02-.07.02-.02-.03-.09-.03-.12,0-.08-.02-.09-.02-.09-.02-.08-.03-.09-.01-.09-.01-.03.03-.02.07-.02.07,0,.02,0,.04,0,.04-.02.1.06.1.06.1h0Z"/>
          <path class="cls-6" d="M12.81,10.01c.17.04.15.06.15.06-.01.02-.06,0-.06,0-.13-.05-.1-.06-.1-.06h0ZM12.71,10.01c-.17.04-.15.06-.15.06.01.02.06,0,.06,0,.13-.05.1-.06.1-.06h0Z"/>
          <path class="cls-2" d="M12.72,9.9c-.07.01-.02.07-.01.1,0,.02-.02.05,0,.06.02,0,.06,0,.08,0,.03,0,.05,0,.04-.03,0-.03-.01-.04-.01-.07,0-.02,0-.05-.02-.05-.02,0-.06,0-.07,0h0Z"/>
          <path class="cls-13" d="M12.82,9.94c.19,0,.18-.03.18-.03M12.82,9.99c.19.03.16.05.16.05"/>
          <path class="cls-3" d="M12.7,9.99c-.17.04-.16.07-.16.07M12.68,9.93c-.18.01-.16-.02-.16-.02"/>
        </g>
        <g>
          <path class="cls-37" d="M11.98,9.71c-.1.03-.16.05-.25.11-.03-.05-.08-.13-.12-.18-.02-.02-.05-.05-.08-.07-.05-.02-.07-.02-.1.01l-.02-.04c-.05-.08-.1-.12-.15-.19l-.05-.05s0-.01-.02-.02c.02.07.03.13.05.2-.03-.02-.05-.03-.08-.04-.02,0-.08-.02-.11-.02l.03.03c.06.05.1.12.12.2.03.08.08.17.15.23.01.01.05.05.07.05.07.03.07,0,.09-.01.05.09.09.14.15.21.07.07.17.09.27.07.04-.01.07-.02.1-.04.12-.07.06-.13.05-.18.04-.01.2-.06.25-.07.2-.04.57-.04.8,0,.02,0,.26.07.28.08-.02.04-.02.06-.02.1,0,.04.04.06.07.08.03.02.06.03.1.04.04,0,.09.01.13,0,.09-.01.14-.07.17-.11.06-.07.08-.12.12-.17,0,0,.02.02.03.02.01,0,.05,0,.06,0,.03-.01.05-.03.07-.05.07-.06.12-.14.15-.23.03-.1.08-.15.15-.22-.1,0-.13.03-.19.06l.02-.1s.02-.07.03-.1c-.05.05-.09.1-.13.14-.02.03-.04.05-.06.07-.04.06-.03.06-.05.08-.14-.08-.2.11-.3.23-.18-.1-.33-.13-.54-.17-.05,0-.09-.01-.13-.02-.26-.03-.55-.03-.81,0-.13.02-.22.04-.33.07h0Z"/>
          <g>
            <path class="cls-28" d="M11.8,10.12s.04-.06.08-.08c.13-.06.19-.08.34-.12.08-.02.17-.04.26-.05.04,0,.06,0,.13-.01.12,0,.18,0,.3,0,.05,0,.09,0,.13.01.09.01.18.03.26.05.13.03.22.07.34.12.05.03.05.03.08.08.04-.03.07-.08.09-.12.01-.02.03-.05.04-.07.01-.04-.01-.05-.03-.07-.07-.06-.19-.11-.29-.14-.45-.12-1.07-.13-1.52,0-.11.03-.22.08-.29.13,0,0-.02.02-.03.03-.03.03.02.09.03.11.01.02.02.05.04.07.02.02.04.04.05.06h0Z"/>
            <path class="cls-28" d="M11.36,9.72c.05,0,.07.02.1.07.07.1.08.17.2.31.03.03.05.06.09.08.05.02.09.03.15.02.05,0,.09-.02.13-.04,0,0,.05-.03.06-.04.01-.02.01-.05.01-.05-.04-.01-.1.06-.15.09-.08.05-.11.03-.17-.02-.05-.04-.07-.09-.1-.14-.01-.02-.04-.06-.03-.09l.06-.06s-.05-.08-.07-.11c-.03-.05-.05-.08-.08-.1-.02-.02-.07-.04-.1-.03-.03.02-.05.05-.07.07-.01.01-.03.04-.03.06h0Z"/>
            <path class="cls-28" d="M11.27,9.52s-.05-.04-.08-.05l-.09-.03s.03.03.05.06c.06.08.06.14.11.23.02.03.04.07.07.1.02.02.07.07.08.08.03.03.07.03.08,0,0-.02-.04-.04-.06-.06-.03-.02-.05-.03-.07-.05-.05-.06-.01-.12.03-.17l.03-.03s-.04-.09-.06-.12c-.03-.03-.09-.1-.12-.14,0,.03.01.06.02.09,0,.02.02.07.02.08h0ZM12.09,10.03l-.02-.05s-.18.07-.22.09c-.01,0-.05.04-.03.06.06.06.15-.03.2-.07.02-.01.04-.03.07-.03h0Z"/>
            <path class="cls-28" d="M11.51,9.91s0-.02-.04-.05c-.01-.01-.09-.05-.1-.06,0,0-.03-.02-.02-.04,0-.02.02-.02.02-.02.07,0,.15.17.15.18h0ZM14.16,9.72c-.05,0-.07.02-.1.07-.07.1-.08.17-.2.31-.03.03-.05.06-.09.08-.05.02-.09.03-.15.02-.05,0-.09-.02-.13-.04,0,0-.05-.03-.06-.04-.01-.02-.01-.05-.01-.05.04-.01.1.06.15.09.08.05.11.03.17-.02.05-.04.07-.09.1-.14.01-.02.04-.06.03-.09l-.06-.06s.05-.08.07-.11c.03-.05.05-.08.08-.1.02-.02.07-.04.1-.03.03.02.05.05.07.07.01.01.03.04.03.06h0Z"/>
            <path class="cls-28" d="M14.24,9.53s.05-.04.08-.05l.09-.03s-.03.03-.05.06c-.06.08-.06.14-.11.23-.02.03-.04.07-.07.1-.02.02-.07.07-.08.08-.03.03-.07.03-.08,0,0-.02.04-.04.06-.06.03-.02.05-.03.07-.05.06-.06.01-.12-.03-.17l-.03-.03s.04-.09.06-.12c.03-.03.09-.1.12-.14,0,.03-.01.06-.02.09,0,.03-.01.06-.02.08h0ZM13.42,10.03l.02-.05s.18.07.22.09c.01,0,.05.04.03.06-.06.06-.15-.03-.2-.07-.02-.01-.04-.03-.07-.03h0Z"/>
            <path class="cls-28" d="M14,9.91s0-.02.04-.05c.01-.01.09-.05.1-.06,0,0,.03-.02.02-.04,0-.02-.02-.02-.02-.02-.07,0-.15.17-.15.18Z"/>
          </g>
          <path class="cls-36" d="M11.96,9.81s-.01,0-.02,0c-.01,0-.02,0-.03.01,0,0,0,0,0,0,0,0,0,.01,0,.02,0,0,0,.01,0,.02,0,0,0,.02,0,.03,0,0,0,.02,0,.03,0,0,0,.01,0,.01,0,0,.02,0,.02,0,0,0,0,0,0,0,0,0,0-.01,0-.02,0,0,0-.01,0-.02,0,0,.01,0,.01,0,0,0,0,.01.02.02,0,0,.01.01.02.01,0,0,.01,0,.02,0,0,0-.02-.01-.02-.02,0,0-.01-.02-.02-.02,0,0,.02-.02.02-.03,0-.01,0-.02-.02-.03,0,0-.01,0-.02,0h0ZM11.95,9.82s.01,0,.02.01c0,0,0,.01,0,.02,0,0,0,.01-.01.02,0,0-.02.01-.02,0,0-.01,0-.02,0-.04,0,0,0-.01.01-.01,0,0,0,0,0,0h0ZM12,9.8s0,0,0,.01c0,0,0,.02,0,.03,0,0,0,.02,0,.02,0,0,0,.01,0,.02,0,0,0,.02,0,.02,0,0,0,.01,0,.01.02,0,.04-.01.06-.02,0,0,0,0,0,0v-.02s0,0-.01.01c0,0-.02.01-.03.02,0,0,0,0,0-.01,0,0,0-.01,0-.02,0,0,0-.02,0-.02,0,0,.02,0,.02,0,0,0,0,0,.01,0,0,0,0-.01,0-.02,0,0,0-.01,0-.01,0,0,0,.01,0,.01,0,0-.01,0-.02,0,0,0,0-.01,0-.02,0,0,0-.02,0-.02,0,0,.02,0,.03,0,0,0,.01,0,.01,0,0,0,0-.02,0-.02,0,0-.01,0-.02,0-.02,0-.03,0-.05.01h0ZM12.14,9.76s-.02,0-.03,0c0,0-.02,0-.03,0,0,0,0,0,0,.01,0,0,0,.01,0,.02,0,0,0,.01,0,.02,0,0,0,.02,0,.03,0,0,0,.02,0,.03,0,0,0,.01,0,.02,0,0,.02,0,.03,0,0,0,0,0,0,0,0,0,0-.01,0-.02,0,0,0-.01,0-.02.01,0,.03,0,.04-.02,0,0,.01-.01.01-.02,0,0,0-.02,0-.02,0,0,0,0-.01,0,0,0,0,0-.02,0h0ZM12.13,9.77s.02,0,.02.01c0,0,0,.02,0,.02,0,0,0,.01,0,.01,0,0-.01,0-.02,0,0,0,0-.01,0-.02,0,0,0-.02,0-.03,0,0,0,0,0-.01,0,0,0,0,0,0h0ZM12.25,9.73s0,0,0,.01c0,0,0,.01,0,.02,0,0,0,.02,0,.02,0,0,0,.01,0,.02,0,0,0,.02,0,.02,0,.01-.01.02-.03.02,0,0,0,0-.01,0,0,0,0-.01,0-.02,0,0,0-.02,0-.02,0,0,0-.02,0-.02,0,0,0-.01,0-.02,0,0,0-.01,0-.01,0,0-.02,0-.03,0,0,0,0,0,0,.01,0,0,0,.01,0,.02,0,.01,0,.02,0,.04,0,0,0,.01,0,.02,0,0,0,.01,0,.02,0,0,.01.01.02.01.01,0,.03,0,.04-.01,0,0,0-.01,0-.02,0,0,0-.02,0-.03,0,0,0-.02,0-.03,0,0,0-.02,0-.02,0,0,0,0,0-.01,0,0,0,0,0-.01,0,0-.01,0-.02,0,0,0,0,0,0,0h0ZM12.34,9.72s-.03,0-.04,0c0,0-.01,0-.02,0,0,0,0,0,0,.01,0,.01,0,.03,0,.04,0,0,0,.02,0,.02,0,0,0,.02,0,.03,0,0,0,.01,0,0,0,0,.01,0,.02,0,0,0,.01,0,.02,0,0,0,.02,0,.03,0,0,0,0,0,.01-.01,0,0,0,0,0-.01,0,0,0-.02,0-.03,0,0-.01,0-.02,0,0,0,0,0,0,0,0,0,.01,0,.01-.02,0,0,0-.02,0-.02,0,0,0,0-.02-.01,0,0,0,0-.01,0h0ZM12.32,9.73s.02,0,.02,0c0,0,0,.01,0,.02,0,0,0,.01-.01.01,0,0-.02,0-.01,0,0,0,0-.01,0-.02,0,0,0-.01,0-.02h0ZM12.33,9.78s.01,0,.02,0c0,0,0,.01,0,.02,0,0,0,.01,0,.02,0,0-.01,0-.02,0,0,0,0-.01,0-.02,0,0,0-.01,0-.02,0,0,0-.01,0-.01,0,0,0,0,0,0ZM12.39,9.71s0,0,0,.01c0,0,0,.01,0,.02,0,0,0,.01,0,.02,0,0,0,.02,0,.02,0,0,0,.02,0,.02,0,0,0,.01,0,.02,0,0,0,0,0,0,0,0,.02,0,.03,0,0,0,.01,0,.02,0h.02s0-.02,0-.03c0,0,0,0,0,0,0,0,0,0,0,.01,0,0,0,0-.01,0,0,0,0,0-.01,0,0,0-.01,0-.01,0,0,0,0-.02,0-.02,0-.01,0-.03,0-.04,0,0,0-.02,0-.03,0,0,0-.01,0,0,0,0,0,0-.01,0,0,0,0,0-.01,0,0,0,0,0,0,0h0ZM12.48,9.7s0,0,0,0c0,0,0,.01,0,.01,0,0,0,.01,0,.02v.05s0,0,0,.01c0,0,0,0,0,.01.01,0,.02,0,.03,0,0,0,0,0,0,0,0,0,0,0,0-.01,0,0,0-.02,0-.03,0,0,0-.01,0-.02,0,0,0-.02,0-.03,0,0,0-.01,0-.02,0,0,0,0,0,0-.01,0-.02,0-.03,0,0,0,0,0,0,0h0ZM12.62,9.77s0,0-.01,0c0,0-.01,0-.02,0,0,0-.01,0-.02,0,0,0,0-.01,0-.02,0,0,0-.01,0-.02,0,0,0-.02,0-.03,0,0,0-.01.01-.02,0,0,.02,0,.02,0,0,0,0,.01,0,.02,0,0,0,0,0,0,0,0,0,0,0-.01,0,0-.01,0-.02,0-.01,0-.03,0-.04,0,0,0,0,0,0,.01,0,0,0,0,0,.01,0,0,0,.01,0,.02,0,.01,0,.03,0,.04,0,0,0,.01.01.02,0,0,.01,0,.02,0,0,0,.02,0,.02,0,0,0,.01-.01.01-.02,0,0,0,0,0-.01,0,0,0,0,0,0h0ZM12.67,9.68s-.01,0-.02,0c0,0,0,.02,0,.03,0,0,0,.01,0,.02,0,.02,0,.03-.01.05,0,0,0,.01,0,.02,0,0,0,0,0,0h.02s0,0,0-.01c0,0,0-.01,0-.02,0,0,0,0,.01,0h.02s0,.01,0,.02c0,0,0,.01,0,.01,0,0,.02,0,.03,0,0,0,0,0,0-.01,0,0,0-.02,0-.03,0-.01,0-.03-.01-.04,0-.01,0-.02,0-.03,0,0,0,0,0,0h0,0ZM12.66,9.71s0,.03.01.05c0,0,0,0,0,0,0,0,0,0-.01,0,0,0,0-.01,0-.02,0,0,0-.01,0-.02,0,0,0-.01,0-.01h0ZM12.81,9.68h-.03s0,0,0,.01c0,0,0,.02,0,.03,0,.03,0,.05,0,.08,0,0,0,.01,0,0,.02,0,.03,0,.05,0,0,0,0,0,.01,0,0,0,0-.01.01-.02,0,0,0-.02,0-.02,0,0,0-.02,0-.03,0,0,0-.01,0-.02,0,0,0,0,0-.01,0,0,0,0-.02-.01,0,0-.01,0-.02,0h0ZM12.82,9.69s.01,0,.02.01c0,0,0,0,0,.01,0,0,0,.01,0,.02,0,.01,0,.02,0,.03,0,0,0,.02,0,.02,0,0,0,0-.01,0,0,0-.01,0-.02,0,0,0,0-.01,0-.02,0-.02,0-.05,0-.07,0,0,0,0,.01,0h0ZM12.92,9.68s-.01,0-.02,0c0,0-.01.01-.02.02,0,0,0,.02,0,.03,0,0,0,.02,0,.03,0,0,0,.01,0,.02,0,0,0,.02.02.02,0,0,.01,0,.02,0,.01,0,.02,0,.03-.02,0,0,.01-.02.01-.02,0,0,0-.01,0-.02,0,0,0-.01,0-.02,0,0,0-.01,0-.02,0,0,0-.02-.02-.02,0,0-.01,0-.02,0h0ZM12.92,9.69s.01,0,.02.02c0,0,0,.01,0,.02,0,.01,0,.02,0,.03,0,0,0,.01,0,.02,0,0,0,.01,0,.02,0,0-.01,0-.02,0,0,0,0,0,0-.01,0,0,0-.02,0-.03,0-.01,0-.03,0-.04,0,0,0-.01,0-.02,0,0,0,0,.01,0h0ZM12.97,9.81s.01,0,.02,0c0,0,0,0,0-.02,0,0,0-.02,0-.02,0,0,0-.01,0-.02,0,0,0-.01,0-.02,0,0,0-.02,0-.02,0,0,0,.01,0,.02,0,0,0,.01,0,.02,0,0,0,.02,0,.02,0,0,0,.01,0,.02,0,0,0,.02,0,.01,0,0,0,0,0-.01,0-.01,0-.02,0-.03,0,0,0-.01,0-.02,0-.01,0-.02,0-.03,0,.03,0,.06,0,.09,0,0,0,0,0,0,0,0,.02,0,.02,0,0,0,0,0,0,0,0,0,0-.02,0-.02,0-.01,0-.03,0-.04,0-.01,0-.03,0-.04,0,0,0,0,0,0h-.03s0,.01,0,.02c0,0,0,.02,0,.03,0,0,0,.02,0,.02,0,0,0,0,0,0,0,0,0-.01,0-.02,0,0,0-.01,0-.02,0-.01,0-.02,0-.03,0,0,0,0-.01,0,0,0,0,0-.01,0,0,0,0,.02,0,.02,0,0,0,.01,0,.02,0,.02,0,.03,0,.05,0,0,0,.01,0,.02,0,0,0,0,0,.01,0,0,0,0,0,0h0ZM13.08,9.82s.01,0,.02,0c0,0,.01,0,.01,0,0,0,0,0,0-.01,0,0,0-.01,0-.02,0,0,0-.01,0-.02,0-.01,0-.03,0-.04,0,0,0-.01,0-.02,0,0,0,0,0,0,0,0,0,0-.01,0,0,0-.01,0-.02,0,0,0,0,0,0,0,0,0,0,.01,0,.02,0,0,0,.02,0,.02,0,0,0,.01,0,.02,0,0,0,.01,0,.02,0,0,0,.01,0,.02,0,0,0,0,0,.01,0,0,0,0,0,0h0ZM13.13,9.83s.01,0,.02,0c0,0,0,0,0,0,0,0,0-.01,0-.02,0-.01,0-.02,0-.03,0,0,0-.01,0-.02,0,0,0-.01,0-.02,0,0,0,.01,0,.02,0,.02.02.05.03.07,0,0,0,.01,0,.01,0,0,0,0,0,0,0,0,0-.01,0-.02,0,0,0-.01,0-.02,0,0,0-.01,0-.02,0,0,0-.01,0-.02,0,0,0-.01,0-.02,0,0,.01,0,0-.01,0,0-.02,0-.02,0,0,0,0,0,0,.02,0,.01,0,.03,0,.04,0,0,0,.01,0,.02,0,0,0-.01,0-.02,0,0,0-.02,0-.02,0,0,0-.01,0-.02,0,0,0-.02-.01-.03,0,0-.02,0-.02,0,0,0,0,0,0,.01,0,.01,0,.02,0,.03,0,0,0,.01,0,.02,0,0,0,.01,0,.02,0,0,0,.01,0,.02,0,0,0,0,0,.01,0,0,0,0,0,0h0ZM13.23,9.73s0,0,0,.01c0,0,0,.01,0,.02,0,0,0,.01,0,.02,0,0,0,.02,0,.03,0,0,0,.01,0,.02,0,0,0,0,0,.01,0,0,0,0,0,.01,0,0,0,0,0,0,0,0,0,0,.01,0,0,0,.01,0,.02,0,0,0,0,0,0,0,0,0,0-.01,0-.02,0,0,0,0,0-.01,0,0,0-.01,0-.02,0,0,0-.01,0-.01,0,0,0-.01,0-.02,0,0,0-.01,0-.02,0,0,0-.01,0-.01,0,0,0,0-.01,0,0,0,0,0-.01,0,0,0,0,0,0,0h0ZM13.27,9.81s0,.01,0,.02c0,0,0,.02.01.02,0,0,0,0,.01.01,0,0,.02,0,.02,0,0,0,0,0,.01,0,0,0,.01-.01.01-.02,0,0,0,0-.01,0,0,0-.02,0-.03,0,0,0,0,0-.01-.02,0,0,0-.01,0-.02,0,0,0-.02,0-.02,0,0,0-.01,0-.02,0,0,0-.01,0-.02,0,0,0,0,.01,0,0,0,0,0,.01,0,0,0,0,.01,0,.02,0,0,0,.01,0,0,0,0,0-.01,0-.02,0,0,0,0-.01-.01,0,0,0,0-.01,0,0,0-.02,0-.03,0,0,0,0,0-.01,0,0,0,0,.01-.01.02,0,0,0,.02,0,.02,0,0,0,0,0,.01h0ZM13.39,9.77s-.01.03-.02.05c0,0,0,.01,0,.02,0,0,0,.02-.01.02,0,0,0,.01-.01.02,0,0,0,0,0,0,0,0,.01,0,.02,0,0,0,0,0,0-.01,0,0,0-.01,0-.02,0,0,.01,0,.02,0,0,0,.01,0,.01,0,0,0,0,.02,0,.03,0,0,0,0,0,0,0,0,.01,0,.02,0,0,0,0,0,0,0,0,0,0-.02,0-.03,0,0,0-.01,0-.02,0,0,0-.01,0-.02,0-.01,0-.03,0-.04,0,0,0-.01,0-.02,0,0-.01,0-.02,0h0s0,0,0,0ZM13.39,9.79v.06s-.01,0-.02,0c0,0,0-.01,0-.02,0,0,0-.02.01-.03,0,0,0,0,0,0h0ZM13.45,9.91s0-.01,0-.02c0,0,0-.02,0-.03,0,0,0-.01,0-.02,0,0,0-.02,0-.02,0,0,0,0,0,0,0,.01,0,.03.01.04,0,0,0,.01,0,.02,0,.01,0,.02,0,.03,0,0,0,.01.01.01,0,0,0-.02,0-.02,0,0,0-.01,0-.02,0-.01,0-.02,0-.03,0,0,0-.02,0-.03,0,0,.01,0,0-.01,0,0-.01,0-.02,0,0,0,0,0,0,.01,0,0,0,.01,0,.02,0,0,0,.01,0,.02,0,0,0,.01,0,.02,0,0,0-.01,0-.02,0,0,0-.02,0-.02,0,0,0-.02,0-.02,0,0,0-.01,0-.02,0,0-.01,0-.02,0,0,0-.01,0,0,0,0,.01,0,.03,0,.04,0,.01,0,.02,0,.03,0,0,0,.01,0,.02,0,0,0,.01,0,.02,0,0,0,0,.01,0,0,0,0,0,.01,0h0ZM13.57,9.83s0,.02-.01.03c0,0,0,.02-.01.02,0,.01-.02.03-.03.04,0,0-.01,0,0,0,0,0,.01,0,.02,0,0,0,0,0,0-.01,0,0,0-.01,0-.02,0,0,0,0,.01,0,0,0,.02,0,.01,0,0,0,0,.02,0,.02,0,0,0,0,0,0,0,0,0,0,.01,0,0,0,0,0,.01,0,0,0,0-.01,0-.02,0,0,0-.02,0-.03,0,0,0-.01,0-.02v-.06s0,0-.02,0h0ZM13.56,9.85v.06s0,0-.01,0c0,0-.01,0,0,0,0,0,0-.01.01-.02,0,0,0-.01.01-.02h0Z"/>
        </g>
        <g>
          <path class="cls-32" d="M11.98,7.71s0,1.16,0,1.28,0,.19.06.26c.04.06.12.11.19.13.05.01.24,0,.31,0,.15,0,.16.03.22.1.06-.1.13-.1.26-.1.07,0,.21,0,.27,0,.07-.02.12-.05.17-.11.07-.09.07-.19.07-.3v-1.21c0-.05,0-.04.02-.07l.18-.19h-1.95s.2.21.2.21h0Z"/>
          <path class="cls-29" d="M12.59,8.28v-.78h-.81l.2.21v.57h.61Z"/>
          <path class="cls-28" d="M12.91,8.28v-.78h.82l-.21.22v.56h-.61ZM12.59,8.6h-.61v.49c.03.22.19.29.33.29.1,0,.13,0,.28,0v-.78Z"/>
          <path class="cls-29" d="M12.91,8.6h.61v.49c-.02.21-.19.29-.33.29h-.28s0-.78,0-.78Z"/>
          <path class="cls-18" d="M11.98,7.71s0,1.16,0,1.28,0,.18.06.26c.04.06.11.11.19.13.05.01.24,0,.31,0,.08,0,.12,0,.18.05.02.02.02.02.04.05.03-.04.06-.07.1-.09.04-.02.12-.01.17-.01.07,0,.21,0,.27,0,.07-.02.13-.06.17-.11.07-.09.07-.19.07-.3v-1.21c0-.05,0-.04.02-.07l.18-.19h-1.95s.2.21.2.21h0Z"/>
          <path class="cls-17" d="M12.72,7.69v.09h-.09v.07h.09v.31h.07v-.31h.09v-.07h-.09v-.09h-.07Z"/>
          <g id="b">
            <path class="cls-32" d="M12.21,7.8v.14s-.06-.06-.06-.06v1.01c0,.15.12.27.25.27s.24-.12.24-.27v-.52s-.07-.07-.07-.07v-.05s-.36-.45-.36-.45Z"/>
            <path class="cls-29" d="M12.21,7.81v.14s-.06-.06-.06-.06v.58s.27.25.27.25v-.55s0-.01,0-.01v-.09l-.2-.25Z"/>
            <path class="cls-28" d="M12.49,8.17l.08.1v.03s-.08-.08-.08-.08v-.05ZM12.64,8.39v.36c-.03.07-.11.03-.11.03v-.5s.11.11.11.11Z"/>
            <path class="cls-29" d="M12.65,8.93c-.1.07-.13-.04-.13-.04.07,0,.11-.05.13-.09v.13Z"/>
            <path class="cls-28" d="M12.16,8.62c.14.15.25.24.25.24.03.24.17.16.23.12-.03.11-.12.2-.23.2-.13,0-.24-.12-.24-.27v-.29Z"/>
            <path class="cls-8" d="M12.57,8.3v-.04s-.36-.45-.36-.45v.13s.36.37.36.37Z"/>
            <path class="cls-1" d="M12.15,7.89v1.01c0,.15.12.27.25.27s.24-.12.24-.27v-.52s-.49-.49-.49-.49Z"/>
            <g>
              <path class="cls-14" d="M12.35,7.72s-.02-.07,0-.08l-.09-.1.03.13s.05,0,.07.05ZM12.25,7.54l.09.18"/>
              <path class="cls-14" d="M12.72,8.33h-.02s-.38-.64-.38-.64h.02s.38.64.38.64Z"/>
              <path class="cls-14" d="M12.31,7.7s0-.02.01-.02c.01,0,.02,0,.03,0,0,0,0,.02-.01.02-.01,0-.02,0-.03,0h0ZM12.19,7.75s-.03-.06-.01-.08l-.1-.08.04.13s.04,0,.07.04ZM12.07,7.58l.12.16"/>
              <path class="cls-14" d="M12.64,8.31h-.02s-.46-.58-.46-.58l.02-.02.46.59Z"/>
              <path class="cls-14" d="M12.15,7.73s0-.02.01-.02c.01,0,.02,0,.03,0,0,0,0,.02-.01.02-.01,0-.02,0-.03,0ZM12.16,7.88s-.03-.06-.02-.08l-.11-.07.06.12s.04-.01.08.03ZM12.02,7.73l.13.15"/>
              <path class="cls-14" d="M12.65,8.4l-.52-.53.02-.02.52.54h-.02Z"/>
              <path class="cls-14" d="M12.12,7.87s0-.02,0-.03.02-.01.03,0c0,0,0,.02,0,.03s-.02.01-.03,0Z"/>
            </g>
          </g>
          <g id="b-2" data-name="b">
            <path class="cls-32" d="M13.3,7.8v.14s.06-.06.06-.06v1.01c0,.15-.12.27-.25.27s-.24-.12-.24-.27v-.52s.07-.07.07-.07v-.05s.36-.45.36-.45Z"/>
            <path class="cls-29" d="M13.3,7.81v.14s.06-.06.06-.06v.58s-.27.25-.27.25v-.55s0-.01,0-.01v-.09l.2-.25Z"/>
            <path class="cls-28" d="M13.02,8.17l-.08.1v.03s.08-.08.08-.08v-.05ZM12.88,8.39v.36c.03.07.11.03.11.03v-.5s-.11.11-.11.11Z"/>
            <path class="cls-29" d="M12.87,8.93c.1.07.13-.04.13-.04-.07,0-.11-.05-.13-.09v.13Z"/>
            <path class="cls-28" d="M13.36,8.62c-.14.15-.25.24-.25.24-.03.24-.17.16-.23.12.03.11.12.2.23.2.13,0,.24-.12.24-.27v-.29Z"/>
            <path class="cls-8" d="M12.95,8.3v-.04s.36-.45.36-.45v.13s-.36.37-.36.37Z"/>
            <path class="cls-1" d="M13.36,7.89v1.01c0,.15-.12.27-.25.27s-.24-.12-.24-.27v-.52s.49-.49.49-.49Z"/>
            <g>
              <path class="cls-14" d="M13.17,7.72s.02-.07,0-.08l.09-.1-.03.13s-.05,0-.07.05ZM13.26,7.54l-.09.18"/>
              <path class="cls-14" d="M12.79,8.33h.02s.38-.64.38-.64h-.02s-.38.64-.38.64Z"/>
              <path class="cls-14" d="M13.21,7.7s0-.02-.01-.02c-.01,0-.02,0-.03,0,0,0,0,.02.01.02.01,0,.02,0,.03,0h0ZM13.33,7.75s.03-.06.01-.08l.1-.08-.04.13s-.04,0-.07.04ZM13.45,7.58l-.12.16"/>
              <path class="cls-14" d="M12.88,8.31h.02s.46-.58.46-.58l-.02-.02-.46.59Z"/>
              <path class="cls-14" d="M13.37,7.73s0-.02-.01-.02c-.01,0-.02,0-.03,0,0,0,0,.02.01.02.01,0,.02,0,.03,0ZM13.36,7.88s.03-.06.02-.08l.11-.07-.06.12s-.04-.01-.08.03ZM13.49,7.73l-.13.15"/>
              <path class="cls-14" d="M12.87,8.4l.52-.53-.02-.02-.52.54h.02Z"/>
              <path class="cls-14" d="M13.4,7.87s0-.02,0-.03-.02-.01-.03,0c0,0,0,.02,0,.03s.02.01.03,0Z"/>
            </g>
          </g>
          <g>
            <path class="cls-15" d="M12.68,8.77l-.02.32s-.06,0-.06-.03c0-.01.04-.28.04-.3.01,0,.03.01.04.01h0Z"/>
            <path class="cls-10" d="M12.65,8.76s0,.09,0,.1c0,.03.04.03.06.03v-.16s-.05.04-.06.04Z"/>
            <path class="cls-10" d="M12.66,9.16c.05-.07.15-.02.15-.02.11.02.08-.1.08-.1-.02-.25-.05-.42-.05-.42l-.16.11-.03.43Z"/>
            <path class="cls-4" d="M12.66,9.17c-.01.07.06.06.06.06.09,0,.06-.09.06-.09-.09-.03-.12.03-.12.03Z"/>
            <path class="cls-15" d="M12.72,8.71c0,.26,0,.28,0,.28,0,.07.08.03.08.03.02,0,.04,0,.04,0v-.09c.12,0,.09-.08.09-.08-.05-.24-.06-.23-.06-.23l-.15.09Z"/>
            <path class="cls-5" d="M12.83,8.94c-.08,0-.11.03-.11.03h0"/>
            <path class="cls-19" d="M12.82,9.15l-.03-.48.06-.04.05.45h0c0,.09-.08.07-.08.07Z"/>
          </g>
          <g>
            <path class="cls-16" d="M12.41,8.38l.21.39.46-.31-.24-.36-.44.27Z"/>
            <path class="cls-12" d="M12.42,8.38l.44-.25.24.34-.46.3-.21-.38Z"/>
            <path class="cls-16" d="M12.64,8.74l.43-.28-.03-.05-.22-.29-.16.13-.2.11-.04-.02v.05s.21.36.21.36Z"/>
            <path class="cls-20" d="M12.67,8.24c-.06-.03-.14.07-.16.08-.02.02-.06,0-.06,0l.2.35c.06.02.09-.05.12-.07.05-.04.11-.04.11-.04l-.2-.33Z"/>
            <path class="cls-20" d="M12.67,8.24c0-.08.09-.1.12-.11.02-.01.03-.06.03-.06l.22.33c0,.07-.08.07-.11.09-.06.03-.06.08-.06.08l-.19-.33Z"/>
            <path class="cls-9" d="M12.63,8.68c-.13-.23-.19-.35-.19-.35,0,.04,0,.04,0,.04.15.24.21.36.21.36,0-.02,0-.03-.01-.05Z"/>
            <g>
              <path class="cls-37" d="M12.5,8.38h0s0,0,0,0c0,0,0,0,0,0,0,0,0,0,0,0h0s0,0,0,0c0,0,0,0,0,0,0,0,0,0,0,0,0,0,0,0,0,0,0,0,0,0,0,0,0,0,0,0,0,0h0s-.01.01-.01.01c0,0,0,0,0,0,0,0,0,0,0,0h0s0-.01,0-.01c0,0,0,0,0,0h.01s0,0,0,0c0,0,0,0,0,0,0,0,0,0,0,0h0ZM12.51,8.37h0s0,.01,0,.01c0,0,0,0,0,0,0,0,0,0,0,0h0s0,0,0,0c0,0,0,0,0,0h0s0,0,0,0c0,0,0,0,0,0,0,0,0,0,0,0h0ZM12.53,8.36h0s0,0,0,0c0,0,0,0,0,0,0,0,0,0,0,0,0,0,0,0,0,0,0,0,0,0,0,0,0,0,0,0,0,0,0,0,0,0,0,0,0,0,0,0,0,0,0,0,0,0,0,0h0s0,0,0,0c0,0,0,0,0,0,0,0,0,0,0,0,0,0,0,0,0,0,0,0,0,0,0,0,0,0,0,0,0,0,0,0,0,0,0,0,0,0,0,0,0,0h0s0,0,0,0ZM12.54,8.37s0,0,0,0c0,0,0,0,0,0,0,0,0,0,0,0,0,0,0,0,0,0,0,0,0,0,0,0,0,0,0,0,0,0,0,0,0,0,0,0,0,0,0,0,0,0,0,0,0,0,0,0,0,0,0,0,0,0,0,0,0,0,0,0,0,0,0,0,0,0,0,0,0,0,0,0,0,0,0,0,0,0,0,0,0,0,0,0,0,0,0,0,0,0h0ZM12.54,8.37h0s0,0,0,0c0,0,0,0,0,0h0s0,0,0,0ZM12.55,8.35h0s0,0,0,0c0,0,0,0,0,0,0,0,0,0,0,0,0,0,0,0,0,0,0,0,0,0,0,0h0s0,0,0,0c0,0,0,0,0,0,0,0,0,0,0,0,0,0,0,0,0,0h0s0,0,0,0c0,0,0,0,0,0h0s0,0,0,0c0,0,0,0,0,0,0,0,0,0,0,0,0,0,0,0,0,0h0s0,0,0,0ZM12.56,8.34h0s0,0,0,0h0s0,0,0,0c0,0,0,0,0,0,0,0,0,0,0,0,0,0,0,0,0,0,0,0,0,0,0,0,0,0,0,0,0,0h0s0,0,0,0c0,0,0,0,0,0,0,0,0,0,0,0h0ZM12.57,8.34s0,0,0,0c0,0,0,0,0,0,0,0,0,0,0,0,0,0,0,0,0,0,0,0,0,0,0,0,0,0,0,0,0,0h0ZM12.57,8.34s0,0,0,0c0,0,0,0,0,0,0,0,0,0,0,0,0,0,0,0,0,0,0,0,0,0,0,0,0,0,0,0,0,0ZM12.51,8.41h0s0,0,0,0c0,0,0,0,0,0,0,0,0,0,0,0h0s0,0,0,0c0,0,0,0,0,0,0,0,0,0,0,0,0,0,0,0,0,0,0,0,0,0,0,0,0,0,0,0,0,0h0s-.01.01-.01.01c0,0,0,0,0,0,0,0,0,0,0,0h0s0-.01,0-.01c0,0,0,0,0,0h.01s0,0,0,0c0,0,0,0,0,0,0,0,0,0,0,0h0ZM12.54,8.41h0s0,0,0,0c0,0,0,0,0,0h0s0,0,0,0c0,0,0,0,0,0h0s0,0,0,0c0,0,0,0,0,0,0,0,0,0,0,0h0s0,0,0,0c0,0,0,0,0,0h0s0,0,0,0ZM12.55,8.4s0,0,0,0c0,0,0,0,0,0,0,0,0,0,0,0,0,0,0,0,0,0,0,0,0,0,0,0,0,0,0,0,0,0,0,0,0,0,0,0,0,0,0,0,0,0,0,0,0,0,0,0,0,0,0,0,0,0,0,0,0,0,0,0h0s0,0,0,0c0,0,0,0,0,0,0,0,0,0,0,0,0,0,0,0,0,0h0ZM12.55,8.4h0s0,0,0,0c0,0,0,0,0,0h0s0,0,0,0ZM12.55,8.39h0s0,0,0,0c0,0,0,0,0,0,0,0,0,0,0,0,0,0,0,0,0,0,0,0,0,0,0,0h0s0,0,0,0c0,0,0,0,0,0,0,0,0,0,0,0,0,0,0,0,0,0h0s0,0,0,0c0,0,0,0,0,0h0s0,0,0,0c0,0,0,0,0,0,0,0,0,0,0,0,0,0,0,0,0,0h0s0,0,0,0ZM12.57,8.38h0s0,0,0,0h0s0,0,0,0c0,0,0,0,0,0,0,0,0,0,0,0,0,0,0,0,0,0,0,0,0,0,0,0,0,0,0,0,0,0,0,0,0,0,0,0,0,0,0,0,0,0,0,0,0,0,0,0,0,0,0,0,0,0,0,0,0,0,0,0,0,0,0,0,0,0,0,0,0,0,0,0,0,0,0,0,0,0,0,0,0,0,0,0h0ZM12.56,8.38s0,0,0,0c0,0,0,0,0,0,0,0,0,0,0,0,0,0,0,0,0,0,0,0,0,0,0,0h0ZM12.57,8.39s0,0,0,0c0,0,0,0,0,0,0,0,0,0,0,0,0,0,0,0,0,0h0ZM12.58,8.37h0s0,0,0,0c0,0,0,0,0,0,0,0,0,0,0,0,0,0,0,0,0,0,0,0,0,0,0,0,0,0,0,0,0,0,0,0,0,0,0,0,0,0,0,0,0,0,0,0,0,0,0,0,0,0,0,0,0,0h0ZM12.58,8.38s0,0,0,0c0,0,0,0,0,0,0,0,0,0,0,0h0s0,0,0,0ZM12.58,8.36h0s0,.01,0,.01c0,0,0,0,0,0,0,0,0,0,0,0h0s0,0,0,0c0,0,0,0,0,0h0s0,0,0,0c0,0,0,0,0,0,0,0,0,0,0,0h0s0,0,0,0ZM12.58,8.36s0,0,0,0c0,0,0,0,0,0,0,0,0,0,0,0,0,0,0,0,0,0ZM12.59,8.36h0s0,0,0,0c0,0,0,0,0,0,0,0,0,0,0,0h0s0,0,0,0c0,0,0,0,0,0h0s0,0,0,0c0,0,0,0,0,0h0s0,0,0,0ZM12.6,8.36s0,0,0,0c0,0,0,0,0,0,0,0,0,0,0,0,0,0,0,0,0,0,0,0,0,0,0,0,0,0,0,0,0,0ZM12.6,8.36s0,0,0,0c0,0,0,0,0,0,0,0,0,0,0,0,0,0,0,0,0,0,0,0,0,0,0,0,0,0,0,0,0,0ZM12.53,8.43h0s0,0,0,0c0,0,0,0,0,0,0,0,0,0,0,0,0,0,0,0,0,0,0,0,0,0,0,0,0,0,0,0,0,0,0,0,0,0,0,0,0,0,0,0,0,0,0,0,0,0,0,0h0s0,0,0,0c0,0,0,0,0,0,0,0,0,0,0,0,0,0,0,0,0,0,0,0,0,0,0,0,0,0,0,0,0,0,0,0,0,0,0,0,0,0,0,0,0,0,0,0,0,0,0,0h0ZM12.55,8.43h0s0,0,0,0c0,0,0,0,0,0,0,0,0,0,0,0,0,0,0,0,0,0,0,0,0,0,0,0,0,0,0,0,0,0,0,0,0,0,0,0,0,0,0,0,0,0,0,0,0,0,0,0,0,0,0,0,0,0h0ZM12.55,8.43s0,0,0,0c0,0,0,0,0,0,0,0,0,0,0,0h0s0,0,0,0ZM12.56,8.42h0s0,0,0,0h0s0,0,0,0c0,0,0,0,0,0,0,0,0,0,0,0,0,0,0,0,0,0,0,0,0,0,0,0,0,0,0,0,0,0,0,0,0,0,0,0,0,0,0,0,0,0,0,0,0,0,0,0,0,0,0,0,0,0h0s0,0,0,0c0,0,0,0,0,0,0,0,0,0,0,0,0,0,0,0,0,0h0ZM12.55,8.42s0,0,0,0c0,0,0,0,0,0,0,0,0,0,0,0,0,0,0,0,0,0,0,0,0,0,0,0h0ZM12.56,8.44s0,0,0,0c0,0,0,0,0,0,0,0,0,0,0,0,0,0,0,0,0,0h0ZM12.57,8.41h0s0,0,0,0c0,0,0,0,0,0,0,0,0,0,0,0h0s0,0,0,0c0,0,0,0,0,0,0,0,0,0,0,0,0,0,0,0,0,0,0,0,0,0,0,0,0,0,0,0,0,0h0s0,0,0,0c0,0,0,0,0,0,0,0,0,0,0,0h0s0,0,0,0c0,0,0,0,0,0,0,0,0,0,0,0h0ZM12.58,8.41h0s0,0,0,0c0,0,0,0,0,0,0,0,0,0,0,0,0,0,0,0,0,0,0,0,0,0,0,0h0s0,0,0,0c0,0,0,0,0,0,0,0,0,0,0,0,0,0,0,0,0,0h0s0,0,0,0c0,0,0,0,0,0h0s0,0,0,0c0,0,0,0,0,0,0,0,0,0,0,0,0,0,0,0,0,0h0s0,0,0,0ZM12.6,8.39h0s0,0,0,0c0,0,0,0,0,0,0,0,0,0,0,0,0,0,0,0,0,0,0,0,0,0,0,0,0,0,0,0,0,0,0,0,0,0,0,0,0,0,0,0,0,0,0,0,0,0,0,0h0s0,0,0,0c0,0,0,0,0,0,0,0,0,0,0,0,0,0,0,0,0,0,0,0,0,0,0,0,0,0,0,0,0,0,0,0,0,0,0,0,0,0,0,0,0,0h0s0,0,0,0ZM12.61,8.4s0,0,0,0c0,0,0,0,0,0,0,0,0,0,0,0,0,0,0,0,0,0,0,0,0,0,0,0,0,0,0,0,0,0,0,0,0,0,0,0,0,0,0,0,0,0,0,0,0,0,0,0,0,0,0,0,0,0,0,0,0,0,0,0h0s0,0,0,0c0,0,0,0,0,0,0,0,0,0,0,0,0,0,0,0,0,0h0ZM12.61,8.4h0s0,0,0,0c0,0,0,0,0,0h0s0,0,0,0ZM12.62,8.38h0s0,0,0,0c0,0,0,0,0,0,0,0,0,0,0,0,0,0,0,0,0,0,0,0,0,0,0,0h0s0,0,0,0c0,0,0,0,0,0,0,0,0,0,0,0,0,0,0,0,0,0h0s0,0,0,0c0,0,0,0,0,0h0s0,0,0,0c0,0,0,0,0,0,0,0,0,0,0,0,0,0,0,0,0,0h0s0,0,0,0ZM12.63,8.37s0,0,0,0h0s0,0,0,0c0,0,0,0,0,0h0s0,.01,0,.01c0,0,0,0,0,0,0,0,0,0,0,0,0,0,0,0,0,0,0,0,0,0,0,0,0,0,0,0,0,0,0,0,0,0,0,0,0,0,0,0,0,0,0,0,0,0,0,0h0s0,0,0,0ZM12.65,8.36h0s0,0,0,0c0,0,0,0,0,0,0,0,0,0,0,0h0s0,0,0,0c0,0,0,0,0,0,0,0,0,0,0,0,0,0,0,0,0,0,0,0,0,0,0,0,0,0,0,0,0,0h0s0,0,0,0c0,0,0,0,0,0,0,0,0,0,0,0h0s0,0,0,0c0,0,0,0,0,0,0,0,0,0,0,0h0ZM12.66,8.37s0,0,0,0c0,0,0,0,0,0,0,0,0,0,0,0,0,0,0,0,0,0,0,0,0,0,0,0,0,0,0,0,0,0,0,0,0,0,0,0,0,0,0,0,0,0,0,0,0,0,0,0,0,0,0,0,0,0,0,0,0,0,0,0h0s0,0,0,0c0,0,0,0,0,0,0,0,0,0,0,0,0,0,0,0,0,0h0ZM12.66,8.37h0s0,0,0,0c0,0,0,0,0,0h0s0,0,0,0ZM12.67,8.35h0s0,0,0,0c0,0,0,0,0,0,0,0,0,0,0,0,0,0,0,0,0,0,0,0,0,0,0,0h0s0,0,0,0c0,0,0,0,0,0,0,0,0,0,0,0,0,0,0,0,0,0h0s0,0,0,0c0,0,0,0,0,0h0s0,0,0,0c0,0,0,0,0,0,0,0,0,0,0,0,0,0,0,0,0,0h0s0,0,0,0ZM12.58,8.5h0s0,0,0,0c0,0,0,0,0,0,0,0,0,0,0,0,0,0,0,0,0,0,0,0,0,0,0,0,0,0,0,0,0,0,0,0,0,0,0,0,0,0,0,0,0,0,0,0,0,0,0,0,0,0,0,0,0,0,0,0,0,0,0-.01,0,0,0,0,0,0,0,0,0,0,0,0h0ZM12.6,8.5h0s0,0,0,0c0,0,0,0,0,0,0,0,0,0,0,0h0s0,0,0,0c0,0,0,0,0,0h0s0-.01,0-.01h.01s0,0,0,0c0,0,0,0,0,0h0s0,0,0,0c0,0,0,0,0,0h0s0,0,0,0ZM12.6,8.5h0s0,0,0,0h0s0,0,0,0ZM12.61,8.5s0,0,0,0c0,0,0,0,0,0,0,0,0,0,0,0h0s0,0,0,0c0,0,0,0,0,0h0s0-.01,0-.01c0,0,0,0,0,0,0,0,0,0,0,0,0,0,0,0,0,0,0,0,0,0,0,0,0,0,0,0,0,0,0,0,0,0,0,0h0ZM12.61,8.5s0,0,0,0c0,0,0,0,0,0,0,0,0,0,0,0h0s0,0,0,0ZM12.63,8.49s0,0,0,0h0s0,0,0,0c0,0,0,0,0,0h0s0-.01,0-.01c0,0,0,0,0,0h0s0,0,0,0c0,0,0,0,0,0h0s0,.01,0,.01h0s0,0,0,0ZM12.63,8.47h0s0,0,0,0c0,0,0,0,0,0h0s0,.01,0,.01c0,0,0,0,0,0,0,0,0,0,0,0h0s0,0,0,0c0,0,0,0,0,0h0s0,0,0,0c0,0,0,0,0,0,0,0,0,0,0,0h0s.01-.01.01-.01h0ZM12.64,8.46s0,0,0,0h0s0,0,0,0c0,0,0,0,0,0,0,0,0,0,0,0,0,0,0,0,0,0,0,0,0,0,0,0,0,0,0,0,0,0,0,0,0,0,0,0,0,0,0,0,0,0,0,0,0,0,0,0,0,0,0,0,0,0h0s0,0,0,0c0,0,0,0,0,0,0,0,0,0,0,0,0,0,0,0,0,0,0,0,0,0,0,0,0,0,0,0,0,0,0,0,0,0,0,0,0,0,0,0,0,0,0,0,0,0,0,0h0ZM12.66,8.46s0,0,0,0c0,0,0,0,0,0h-.01s0,0,0,0c0,0,0,0,0,0h0s0-.01,0-.01c0,0,0,0,0,0,0,0,0,0,0,0h0s0,0,0,0c0,0,0,0,0,0,0,0,0,0,0,0,0,0,0,0,0,0,0,0,0,0,0,0,0,0,0,0,0,0h0ZM12.67,8.45s0,0,.01,0c0,0,0,0,0,0,0,0,0,0,0,0,0,0,0,0,0,0,0,0,0,0,0,0,0,0,0,0,0,0ZM12.67,8.45s0,0,0,0c0,0,0,0,0,0,0,0,0,0,0,0,0,0,0,0,0,0,0,0,0,0,0,0,0,0,0,0,0,0,0,0,0,0,0,0h0ZM12.69,8.43s0,0,0,0c0,0,0,0,0,0h0s0,.01,0,.01h-.01s0,0,0,0c0,0,0,0,0,0h0s0,0,0,0c0,0,0,0,0,0h0s0,0,0,0c0,0,0,0,0,0,0,0,0,0,0,0h0ZM12.71,8.44s0,0,0,0h0s0,0,0,0c0,0,0,0,0,0h0s0-.01,0-.01c0,0,0,0,0,0h0s0,0,0,0c0,0,0,0,0,0h0s0,.01,0,.01h0s0,0,0,0ZM12.72,8.43s0,0,0,0h0s0,0,0,0c0,0,0,0,0,0h0s0-.01,0-.01c0,0,0,0,0,0h0s0,0,0,0c0,0,0,0,0,0h0s0,.01,0,.01h0s0,0,0,0ZM12.72,8.43s0,0,0,0h0s0,0,0,0c0,0,0,0,0,0h0s0-.01,0-.01c0,0,0,0,0,0h0s0,0,0,0c0,0,0,0,0,0h0s0,.01,0,.01h0s0,0,0,0ZM12.6,8.56s0,0,0,0c0,0,0,0,0,0,0,0,0,0,0,0,0,0,0,0,0,0,0,0,0,0,0,0,0,0,0,0,0,0,0,0,0,0,0,0,0,0,0,0,0,0,0,0,0,0,0,0,0,0,0,0,0,0,0,0,0,0,0,0,0,0,0,0,0,0,0,0,0,0,0,0,0,0,0,0,0,0,0,0,0,0,0,0,0,0,0,0,0,0,0,0,0,0,0,0h0ZM12.61,8.55h0s0,0,0,0h0s0,.01,0,.01c0,0,0,0,0,0h0s0,0,0,0c0,0,0,0,0,0,0,0,0,0,0,0,0,0,0,0,0,0,0,0,0,0,0,0h0ZM12.64,8.54h0s0,0,0,0c0,0,0,0,0,0h0s0,0,0,.01c0,0,0,0,0,0,0,0,0,0,0,0h0s0,0,0,0c0,0,0,0,0,0h0s0,0,0,0c0,0,0,0,0,0,0,0,0,0,0,0h0s0,0,0,0c0,0,0,0,0,0h0s0,0,0,0c0,0,0,0,0,0,0,0,0,0,0,0,0,0,0,0,0,0h0ZM12.66,8.54s0,0,0,0c0,0,0,0,0,0,0,0,0,0,0,0,0,0,0,0,0,0,0,0,0,0,0,0,0,0,0,0,0,0,0,0,0,0,0,0,0,0,0,0,0,0,0,0,0,0,0,0,0,0,0,0,0,.01,0,0,0,0,0,0,0,0,0,0,0,0h0s0,0,0,0h0s0,0,0,0ZM12.66,8.54h0s0,0,0,0c0,0,0,0,0,0,0,0,0,0,0,0,0,0,0,0,0,0,0,0,0,0,0,0ZM12.66,8.53s0,0,0,0c0,0,0,0,0,0,0,0,0,0,0,0,0,0,0,0,0,0,0,0,0,0,0,0,0,0,0,0,0,0,0,0,0,0,0,0,0,0,0,0,0,0,0,0,0,0,0,0,0,0,0,0,0,0h0ZM12.66,8.53h0s0,0,0,0c0,0,0,0,0,0,0,0,0,0,0,0ZM12.68,8.52s0,0,0,0c0,0,0,0,0,0,0,0,0,0,0,0,0,0,0,0,0,0,0,0,0,0,0,0,0,0,0,0,0,0,0,0,0,0,0,0,0,0,0,0,0,0,0,0,0,0,0,0,0,0,0,0,0,0,0,0,0,0,0,0h0ZM12.68,8.51s0,0,0,0c0,0,0,0,0,0ZM12.68,8.51s0,0,0,0c0,0,0,0,0,0,0,0,0,0,0,0h0s0,0,0,0c0,0,0,0,0,0,0,0,0,0,0,0,0,0,0,0,0,0,0,0,0,0,0,0,0,0,0,0,0,0h0ZM12.7,8.51s0,0,0,0c0,0,0,0,0,0,0,0,0,0,0,0,0,0,0,0,0,0,0,0,0,0,0,0,0,0,0,0,0,0,0,0,0,0,0,0,0,0,0,0,0,0,0,0,0,0,0,0,0,0,0,0,0,0,0,0,0,0,0,0,0,0,0,0,0,0,0,0,0,0,0,0,0,0,0,0,0,0,0,0,0,0,0,0,0,0,0,0,0,0,0,0,0,0,0,0h0ZM12.69,8.51h0s0,0,0,0c0,0,0,0,0,0,0,0,0,0,0,0h0ZM12.7,8.49s0,0,0,0h0s0,0,0,0c0,0,0,0,0,0h0s0,.01,0,.01c0,0,0,0,0,0,0,0,0,0,0,0,0,0,0,0,0,0,0,0,0,0,0,0h0s0-.01,0-.01h0ZM12.71,8.5s0,0,0,0c0,0,0,0,0,0,0,0,0,0,0,0,0,0,0,0,0,0,0,0,0,0,0,0,0,0,0,0,0,0,0,0,0,0,0,0,0,0,0,0,0,0,0,0,0,0,0,0,0,0,0,0,0,0h0ZM12.71,8.5h0s0,0,0,0c0,0,0,0,0,0,0,0,0,0,0,0ZM12.72,8.48h0s0,0,0,0c0,0,0,0,0,0h0s0,0,0,0c0,0,0,0,0,0,0,0,0,0,0,0,0,0,0,0,0,0,0,0,0,0,0,0,0,0,0,0,0,0h0s0,0,0,0c0,0,0,0,0,0,0,0,0,0,0,0,0,0,0,0,0,0,0,0,0,0,0,0,0,0,0,0,0,0,0,0,0,0,0,0h0s0,0,0,0ZM12.73,8.48s0,0,0,0c0,0,0,0,0,0,0,0,0,0,0,0,0,0,0,0,0,0,0,0,0,0,0,0h0s0,0,0,0c0,0,0,0,0,0,0,0,0,0,0,0,0,0,0,0,0,0,0,0,0,0,0,0,0,0,0,0,0,0h0s0,0,0,0c0,0,0,0,0,0,0,0,0,0,0,0h0s0,0,0,0c0,0,0,0,0,0h0ZM12.74,8.47h0s0,0,0,0c0,0,0,0,0,0h0s0,0,0,0c0,0,0,0,0,0,0,0,0,0,0,0,0,0,0,0,0,0,0,0,0,0,0,0,0,0,0,0,0,0h0s0,0,0,0c0,0,0,0,0,0,0,0,0,0,0,0,0,0,0,0,0,0,0,0,0,0,0,0,0,0,0,0,0,0,0,0,0,0,0,0h0ZM12.76,8.47s0,0,0,0c0,0,0,0,0,0,0,0,0,0,0,0,0,0,0,0,0,0,0,0,0,0,0,0,0,0,0,0,0,0,0,0,0,0,0,0,0,0,0,0,0,0,0,0,0,0,0,0,0,0,0,0,0,0,0,0,0,0,0,0,0,0,0,0,0,0,0,0,0,0,0,0,0,0,0,0,0,0,0,0,0,0,0,0,0,0,0,0,0,0h0s0,0,0,0h0ZM12.76,8.47h0s0,0,0,0c0,0,0,0,0,0,0,0,0,0,0,0h0ZM12.62,8.58h0s0,.01,0,.01c0,0,0,0,0,0h0s0,0,0,0c0,0,0,0,0,0,0,0,0,0,0,0,0,0,0,0,0,0,0,0,0,0,0,0,0,0,0,0,0,0h0s0,0,0,0ZM12.63,8.58s0,0,0,0c0,0,0,0,0,0,0,0,0,0,0,0,0,0,0,0,0,0,0,0,0,0,0,0,0,0,0,0,0,0h0ZM12.63,8.58s0,0,0,0c0,0,0,0,0,0,0,0,0,0,0,0,0,0,0,0,0,0,0,0,0,0,0,0,0,0,0,0,0,0h0ZM12.64,8.58h0s0,0,0,0c0,0,0,0,0,0,0,0,0,0,0,0,0,0,0,0,0,0,0,0,0,0,0,0,0,0,0,0,0,0,0,0,0,0,0,0,0,0,0,0,0,0h0s0,0,0,0c0,0,0,0,0,0,0,0,0,0,0,0,0,0,0,0,0,0,0,0,0,0,0,0,0,0,0,0,0,0,0,0,0,0,0,0h0s0,0,0,0ZM12.65,8.56s0,0,0,0c0,0,0,0,0,0ZM12.65,8.57h0s0,.01,0,.02c0,0,0,0,0,0,0,0,0,0,0,0,0,0,0,0,0,0,0,0,0,0,0,0,0,0,0,0,0,0,0,0,0,0,0,0,0,0,0,0,0,0,0,0,0,0,0,0,0,0,0,0,0,0h0ZM12.66,8.56s0,0,0,0c0,0,0,0,0,0,0,0,0,0,0,0,0,0,0,0,0,0,0,0,0,0,0,0h0s0,0,0,0c0,0,0,0,0,0,0,0,0,0,0,0,0,0,0,0,0,0,0,0,0,0,0,0,0,0,0,0,0,0h0s0,0,0,0c0,0,0,0,0,0,0,0,0,0,0,0h0s0,0,0,0c0,0,0,0,0,0h0ZM12.68,8.56s0,0,0,0c0,0,0,0,0,0,0,0,0,0,0,0,0,0,0,0,0,0,0,0,0,0,0,0,0,0,0,0,0,0,0,0,0,0,0,0,0,0,0,0,0,0,0,0,0,0,0,0,0,0,0,0,0,.01,0,0,0,0,0,0,0,0,0,0,0,0,0,0,0,0,0,0,0,0,0,0,0,0h0s0,0,0,0ZM12.68,8.56h0s0,0,0,0c0,0,0,0,0,0,0,0,0,0,0,0,0,0,0,0,0,0,0,0,0,0,0,0ZM12.67,8.55s0,0,0,0c0,0,0,0,0,0ZM12.68,8.55s0,0,0,0c0,0,0,0,0,0,0,0,0,0,0,0h0s0,0,0,0c0,0,0,0,0,0,0,0,0,0,0,0,0,0,0,0,0,0,0,0,0,0,0,0,0,0,0,0,0,0h0ZM12.69,8.55s0,0,0,0c0,0,0,0,0,0,0,0,0,0,0,0,0,0,0,0,0,0,0,0,0,0,0,0,0,0,0,0,0,0h0ZM12.69,8.55s0,0,0,0c0,0,0,0,0,0,0,0,0,0,0,0,0,0,0,0,0,0,0,0,0,0,0,0,0,0,0,0,0,0h0ZM12.7,8.54h0s0,0,0,0c0,0,0,0,0,0,0,0,0,0,0,0,0,0,0,0,0,0,0,0,0,0,0,0,0,0,0,0,0,0,0,0,0,0,0,0h0s0,0,0,0c0,0,0,0,0,0,0,0,0,0,0,0,0,0,0,0,0,0,0,0,0,0,0,0,0,0,0,0,0,0,0,0,0,0,0,0,0,0,0,0,0,0h0ZM12.71,8.53h0s0,.01,0,.01c0,0,0,0,0,0h0s0,0,0,0c0,0,0,0,0,0h0s0,0,0,0c0,0,0,0,0,0,0,0,0,0,0,0,0,0,0,0,0,0,0,0,0,0,0,0h0ZM12.72,8.54s0,0,0,0c0,0,0,0,0,0,0,0,0,0,0,0,0,0,0,0,0,0,0,0,0,0,0,0,0,0,0,0,0,0h0ZM12.73,8.52s0,0,0,0c0,0,0,0,0,0,0,0,0,0,0,0,0,0,0,0,0,0,0,0,0,0,0,0h0s0,0,0,0c0,0,0,0,0,0,0,0,0,0,0,0,0,0,0,0,0,0,0,0,0,0,0,0,0,0,0,0,0,0h0s0,0,0,0c0,0,0,0,0,0,0,0,0,0,0,0h0s0,0,0,0c0,0,0,0,0,0h0ZM12.73,8.52s0,0,0,0c0,0,0,0,0,0,0,0,0,0,0,0,0,0,0,0,0,0,0,0,0,0,0,0,0,0,0,0,0,0,0,0,0,0,0,0,0,0,0,0,0,0,0,0,0,0,0,0,0,0,0,0,0,0h0s0,0,0,0ZM12.73,8.52h0s0,0,0,0c0,0,0,0,0,0,0,0,0,0,0,0ZM12.74,8.5h0s0,.01,0,.01c0,0,0,0,0,0h0s0,0,0,0c0,0,0,0,0,0,0,0,0,0,0,0,0,0,0,0,0,0,0,0,0,0,0,0,0,0,0,0,0,0h0s0,0,0,0ZM12.75,8.51s0,0,0,0c0,0,0,0,0,0,0,0,0,0,0,0,0,0,0,0,0,0,0,0,0,0,0,0,0,0,0,0,0,0,0,0,0,0,0,0,0,0,0,0,0,0,0,0,0,0,0,0,0,0,0,0,0,0h0ZM12.75,8.51h0s0,0,0,0c0,0,0,0,0,0,0,0,0,0,0,0ZM12.63,8.61h0s0,0,0,0c0,0,0,0,0,0,0,0,0,0,0,0,0,0,0,0,0,0,0,0,0,0,0,0h0s0,0,0,0c0,0,0,0,0,0,0,0,0,0,0,0,0,0,0,0,0,0,0,0,0,0,0,0,0,0,0,0,0,0,0,0,0,0,0,0,0,0,0,0,0,0h0s0,0,0,0c0,0,0,0,0,0,0,0,0,0,0,0,0,0,0,0,0,0,0,0,0,0,0,0,0,0,0,0,0,0h0s0,0,0,0ZM12.66,8.62s0,0,0,0c0,0,0,0,0,0,0,0,0,0,0,0,0,0,0,0,0,0,0,0,0,0,0,0,0,0,0,0,0,0,0,0,0,0,0,0,0,0,0,0,0,0,0,0,0,0,0,0,0,0,0,0,0,0,0,0,0,0,0,0,0,0,0,0,0,0,0,0,0,0,0,0,0,0,0,0,0,0,0,0,0,0,0,0,0,0,0,0,0,0h0s0,0,0,0h0ZM12.66,8.61h0s0,0,0,0c0,0,0,0,0,0,0,0,0,0,0,0ZM12.66,8.6s0,0,0,0c0,0,0,0,0,0,0,0,0,0,0,0,0,0,0,0,0,0,0,0,0,0,0,0h0s0-.01,0-.01c0,0,0,0,0,0,0,0,0,0,0,0,0,0,0,0,0,0h0ZM12.66,8.6h0s0,0,0,0c0,0,0,0,0,0,0,0,0,0,0,0,0,0,0,0,0,0ZM12.66,8.59s0,0,0,0c0,0,0,0,0,0ZM12.67,8.6s0,0,0,0c0,0,0,0,0,0,0,0,0,0,0,0h0s0,0,0,0c0,0,0,0,0,0,0,0,0,0,0,0,0,0,0,0,0,0,0,0,0,0,0,0,0,0,0,0,0,0h0s0,0,0,0ZM12.68,8.6s0,0,0,0c0,0,0,0,0,0,0,0,0,0,0,0,0,0,0,0,0,0,0,0,0,0,0,0,0,0,0,0,0,0,0,0,0,0,0,0,0,0,0,0,0,0,0,0,0,0,0,0,0,0,0,0,0,0,0,0,0,0,0,0,0,0,0,0,0,0,0,0,0,0,0,0,0,0,0,0,0,0,0,0,0,0,0,0,0,0,0,0,0,0,0,0,0,0,0,0h0ZM12.68,8.6h0s0,0,0,0c0,0,0,0,0,0,0,0,0,0,0,0ZM12.69,8.59s0,0,0,0c0,0,0,0,0,0,0,0,0,0,0,0,0,0,0,0,0,0,0,0,0,0,0,0h0s0,0,0,0c0,0,0,0,0,0,0,0,0,0,0,0,0,0,0,0,0,0,0,0,0,0,0,0,0,0,0,0,0,0h0s0,0,0,0c0,0,0,0,0,0h0s0,0,0,0c0,0,0,0,0,0,0,0,0,0,0,0,0,0,0,0,0,0,0,0,0,0,0,0,0,0,0,0,0,0,0,0,0,0,0,0h0ZM12.71,8.58s0,0,0,0c0,0,0,0,0,0,0,0,0,0,0,0,0,0,0,0,0,0,0,0,0,0,0,0,0,0,0,0,0,0,0,0,0,0,0,0,0,0,0,0,0,0,0,0,0,0,0,0,0,0,0,0,0,0,0,0,0,0,0,0h0ZM12.71,8.57h0s0,0,0,0c0,0,0,0,0,0,0,0,0,0,0,0,0,0,0,0,0,0,0,0,0,0,0,0,0,0,0,0,0,0,0,0,0,0,0,0h0s0,0,0,0c0,0,0,0,0,0,0,0,0,0,0,0,0,0,0,0,0,0,0,0,0,0,0,0h0s0,0,0,0h0ZM12.72,8.57s0,0,0,0c0,0,0,0,0,0,0,0,0,0,0,0,0,0,0,0,0,0,0,0,0,0,0,0,0,0,0,0,0,0,0,0,0,0,0,0,0,0,0,0,0,0,0,0,0,0,0,0,0,0,0,0,0,0h0ZM12.72,8.57h0s0,0,0,0c0,0,0,0,0,0,0,0,0,0,0,0h0ZM12.72,8.55s0,0,0,0c0,0,0,0,0,0ZM12.73,8.56s0,0,0,0c0,0,0,0,0,0,0,0,0,0,0,0h0s0,0,0,0c0,0,0,0,0,0,0,0,0,0,0,0,0,0,0,0,0,0,0,0,0,0,0,0,0,0,0,0,0,0h0s0,0,0,0ZM12.74,8.56s0,0,0,0c0,0,0,0,0,0,0,0,0,0,0,0,0,0,0,0,0,0,0,0,0,0,0,0,0,0,0,0,0,0,0,0,0,0,0,0,0,0,0,0,0,0,0,0,0,0,0,0,0,0,0,0,0,.01,0,0,0,0,0,0,0,0,0,0,0,0,0,0,0,0,0,0,0,0,0,0,0,0h0s0,0,0,0ZM12.74,8.56h0s0,0,0,0c0,0,0,0,0,0,0,0,0,0,0,0,0,0,0,0,0,0,0,0,0,0,0,0ZM12.74,8.55s0,0,0,0c0,0,0,0,0,0,0,0,0,0,0,0,0,0,0,0,0,0,0,0,0,0,0,0,0,0,0,0,0,0ZM12.74,8.55s0,0,0,0c0,0,0,0,0,0,0,0,0,0,0,0,0,0,0,0,0,0,0,0,0,0,0,0,0,0,0,0,0,0h0ZM12.71,8.25h0s0,0,0,0c0,0,0,0,0,0,0,0,0,0,0,0,0,0,0,0,0,0,0,0,0,0,0,0,0,0,0,0,0,0,0,0,0,0,0,0,0,0,0,0,0,0h0s0,0,0,0c0,0,0,0,0,0,0,0,0,0,0,0,0,0,0,0,0,0,0,0,0,0,0,0,0,0,0,0,0,0,0,0,0,0,0,0,0,0,0,0,0,0ZM12.72,8.25s0,0,0,0c0,0,0,0,0,0ZM12.72,8.26h0s0,0,0,0c0,0,0,0,0,0h0s0,0,0,0c0,0,0,0,0,0,0,0,0,0,0,0,0,0,0,0,0,0,0,0,0,0,0,0h0s0,0,0,0h0ZM12.73,8.25h0s0,0,0,0c0,0,0,0,0,0h0s0,0,0,0c0,0,0,0,0,0,0,0,0,0,0,0h0s0,0,0,0c0,0,0,0,0,0h0s0,0,0,0h0s0,0,0,0c0,0,0,0,0,0h0ZM12.74,8.24s0,0,0,0c0,0,0,0,0,0,0,0,0,0,0,0,0,0,0,0,0,0,0,0,0,0,0,0,0,0,0,0,0,0h0ZM12.74,8.24s0,0,0,0c0,0,0,0,0,0,0,0,0,0,0,0,0,0,0,0,0,0,0,0,0,0,0,0h0ZM12.75,8.24h0s0,0,0,0c0,0,0,0,0,0,0,0,0,0,0,0,0,0,0,0,0,0,0,0,0,0,0,0,0,0,0,0,0,0,0,0,0,0,0,0h0s0,0,0,0c0,0,0,0,0,0,0,0,0,0,0,0,0,0,0,0,0,0,0,0,0,0,0,0,0,0,0,0,0,0,0,0,0,0,0,0,0,0,0,0,0,0h0ZM12.76,8.23s0,0,0,0c0,0,0,0,0,0,0,0,0,0,0,0,0,0,0,0,0,0,0,0,0,0,0,0,0,0,0,0,0,0h0ZM12.76,8.23s0,0,0,0c0,0,0,0,0,0,0,0,0,0,0,0,0,0,0,0,0,0,0,0,0,0,0,0h0ZM12.76,8.22h0s0,0,0,0c0,0,0,0,0,0h0s0,0,0,0c0,0,0,0,0,0,0,0,0,0,0,0,0,0,0,0,0,0,0,0,0,0,0,0h0s0,0,0,0c0,0,0,0,0,0,0,0,0,0,0,0h0ZM12.77,8.22h0s0,0,0,0c0,0,0,0,0,0,0,0,0,0,0,0,0,0,0,0,0,0h0s0,0,0,0c0,0,0,0,0,0h0s0,0,0,0c0,0,0,0,0,0,0,0,0,0,0,0,0,0,0,0,0,0,0,0,0,0,0,0h0s0,0,0,0ZM12.78,8.22s0,0,0,0c0,0,0,0,0,0,0,0,0,0,0,0,0,0,0,0,0,0,0,0,0,0,0,0,0,0,0,0,0,0h0ZM12.78,8.22s0,0,0,0c0,0,0,0,0,0,0,0,0,0,0,0,0,0,0,0,0,0,0,0,0,0,0,0h0ZM12.79,8.21h0s0,0,0,0c0,0,0,0,0,0,0,0,0,0,0,0,0,0,0,0,0,0,0,0,0,0,0,0,0,0,0,0,0,0,0,0,0,0,0,0,0,0,0,0,0,0,0,0,0,0,0,0,0,0,0,0,0,0,0,0,0,0,0,0,0,0,0,0,0,0,0,0,0,0,0,0,0,0,0,0,0,0,0,0,0,0,0,0,0,0,0,0,0,0h0ZM12.72,8.29s0,0,0,0c0,0,0,0,0,0h0s0,0,0,0c0,0,0,0,0,0,0,0,0,0,0,0,0,0,0,0,0,0,0,0,0,0,0,0,0,0,0,0,0,0,0,0,0,0,0,0,0,0,0,0,0,0h0s0,0,0,0c0,0,0,0,0,0h0s0,0,0,0h0s0,0,0,0ZM12.72,8.29s0,0,0,0c0,0,0,0,0,0,0,0,0,0,0,0,0,0,0,0,0,0,0,0,0,0,0,0h0ZM12.73,8.28s0,0,0,0c0,0,0,0,0,0,0,0,0,0,0,0,0,0,0,0,0,0,0,0,0,0,0,0,0,0,0,0,0,0,0,0,0,0,0,0,0,0,0,0,0,0,0,0,0,0,0,0,0,0,0,0,0,0h0ZM12.73,8.28h0s0,0,0,0c0,0,0,0,0,0h0ZM12.74,8.27h0s0,0,0,0c0,0,0,0,0,0,0,0,0,0,0,0,0,0,0,0,0,0,0,0,0,0,0,0,0,0,0,0,0,0,0,0,0,0,0,0h0s0,0,0,0c0,0,0,0,0,0,0,0,0,0,0,0,0,0,0,0,0,0,0,0,0,0,0,0h0s0,0,0,0Z"/>
              <path class="cls-37" d="M12.75,8.27s0,0,0,0c0,0,0,0,0,0,0,0,0,0,0,0,0,0,0,0,0,0,0,0,0,0,0,0,0,0,0,0,0,0,0,0,0,0,0,0h0s0,0,0,0c0,0,0,0,0,0,0,0,0,0,0,0,0,0,0,0,0,0,0,0,0,0,0,0,0,0,0,0,0,0,0,0,0,0,0,0,0,0,0,0,0,0h0s0,0,0,0c0,0,0,0,0,0,0,0,0,0,0,0,0,0,0,0,0,0,0,0,0,0,0,0,0,0,0,0,0,0,0,0,0,0,0,0,0,0,0,0,0,0,0,0,0,0,0,0,0,0,0,0,0,0,0,0,0,0,0,0,0,0,0,0,0,0,0,0,0,0,0,0,0,0,0,0,0,0,0,0,0,0,0,0h0s0,0,0,0ZM12.77,8.27s0,0,0,0c0,0,0,0,0,0,0,0,0,0,0,0,0,0,0,0,0,0,0,0,0,0,0,0,0,0,0,0,0,0,0,0,0,0,0,0,0,0,0,0,0,0,0,0,0,0,0,0,0,0,0,0,0,0h0s0,0,0,0c0,0,0,0,0,0,0,0,0,0,0,0,0,0,0,0,0,0,0,0,0,0,0,0h0ZM12.77,8.27h0s0,0,0,0c0,0,0,0,0,0,0,0,0,0,0,0h0ZM12.77,8.26s0,0,0,0c0,0,0,0,0,0,0,0,0,0,0,0,0,0,0,0,0,0,0,0,0,0,0,0h0s0,0,0,0c0,0,0,0,0,0h0s0,0,0,0c0,0,0,0,0,0,0,0,0,0,0,0,0,0,0,0,0,0,0,0,0,0,0,0h0s0,0,0,0c0,0,0,0,0,0,0,0,0,0,0,0,0,0,0,0,0,0,0,0,0,0,0,0,0,0,0,0,0,0,0,0,0,0,0,0h0ZM12.78,8.25s0,0,0,0c0,0,0,0,0,0,0,0,0,0,0,0,0,0,0,0,0,0,0,0,0,0,0,0,0,0,0,0,0,0,0,0,0,0,0,0,0,0,0,0,0,0,0,0,0,0,0,0,0,0,0,0,0,0h0ZM12.78,8.25h0s0,0,0,0c0,0,0,0,0,0h0ZM12.79,8.25s0,0,0,0c0,0,0,0,0,0,0,0,0,0,0,0,0,0,0,0,0,0,0,0,0,0,0,0,0,0,0,0,0,0,0,0,0,0,0,0,0,0,0,0,0,0,0,0,0,0,0,0,0,0,0,0,0,0,0,0,0,0,0,0h0ZM12.8,8.24s0,0,0,0c0,0,0,0,0,0,0,0,0,0,0,0,0,0,0,0,0,0,0,0,0,0,0,0,0,0,0,0,0,0,0,0,0,0,0,0,0,0,0,0,0,0,0,0,0,0,0,0,0,0,0,0,0,0h0ZM12.8,8.24h0s0,0,0,0c0,0,0,0,0,0h0ZM12.8,8.23h0s0,0,0,0c0,0,0,0,0,0,0,0,0,0,0,0,0,0,0,0,0,0h0s0,0,0,0c0,0,0,0,0,0h0s0,0,0,0c0,0,0,0,0,0,0,0,0,0,0,0,0,0,0,0,0,0,0,0,0,0,0,0,0,0,0,0,0,0h0ZM12.81,8.23s0,0,0,0c0,0,0,0,0,0,0,0,0,0,0,0,0,0,0,0,0,0,0,0,0,0,0,0,0,0,0,0,0,0,0,0,0,0,0,0,0,0,0,0,0,0,0,0,0,0,0,0,0,0,0,0,0,0h0ZM12.81,8.23h0s0,0,0,0c0,0,0,0,0,0h0ZM12.81,8.22s0,0,0,0c0,0,0,0,0,0ZM12.82,8.23h0s0,0,0,0c0,0,0,0,0,0h0s0,0,0,0c0,0,0,0,0,0,0,0,0,0,0,0,0,0,0,0,0,0,0,0,0,0,0,0h0s0,0,0,0h0ZM12.82,8.22h0s0,0,0,0c0,0,0,0,0,0,0,0,0,0,0,0,0,0,0,0,0,0,0,0,0,0,0,0,0,0,0,0,0,0,0,0,0,0,0,0h0s0,0,0,0c0,0,0,0,0,0,0,0,0,0,0,0,0,0,0,0,0,0,0,0,0,0,0,0,0,0,0,0,0,0,0,0,0,0,0,0,0,0,0,0,0,0h0ZM12.74,8.31s0,0,0,0c0,0,0,0,0,0,0,0,0,0,0,0,0,0,0,0,0,0,0,0,0,0,0,0,0,0,0,0,0,0,0,0,0,0,0,0,0,0,0,0,0,0,0,0,0,0,0,0,0,0,0,0,0,0h0ZM12.74,8.31h0s0,0,0,0c0,0,0,0,0,0h0ZM12.75,8.3s0,0,0,0c0,0,0,0,0,0,0,0,0,0,0,0,0,0,0,0,0,0,0,0,0,0,0,0h0s0,0,0,0c0,0,0,0,0,0h0s0,0,0,0c0,0,0,0,0,0,0,0,0,0,0,0,0,0,0,0,0,0,0,0,0,0,0,0h0s0,0,0,0c0,0,0,0,0,0,0,0,0,0,0,0,0,0,0,0,0,0,0,0,0,0,0,0,0,0,0,0,0,0,0,0,0,0,0,0h0ZM12.76,8.3s0,0,0,0c0,0,0,0,0,0,0,0,0,0,0,0,0,0,0,0,0,0,0,0,0,0,0,0,0,0,0,0,0,0,0,0,0,0,0,0h0s0,0,0,0c0,0,0,0,0,0,0,0,0,0,0,0,0,0,0,0,0,0,0,0,0,0,0,0h0s0,0,0,0c0,0,0,0,0,0,0,0,0,0,0,0,0,0,0,0,0,0,0,0,0,0,0,0,0,0,0,0,0,0,0,0,0,0,0,0,0,0,0,0,0,0,0,0,0,0,0,0,0,0,0,0,0,0,0,0,0,0,0,0h0s0,0,0,0c0,0,0,0,0,0,0,0,0,0,0,0,0,0,0,0,0,0,0,0,0,0,0,0,0,0,0,0,0,0h0ZM12.77,8.28s0,0,0,0c0,0,0,0,0,0ZM12.77,8.29h0s0,0,0,0c0,0,0,0,0,0h0s0,0,0,0c0,0,0,0,0,0,0,0,0,0,0,0,0,0,0,0,0,0,0,0,0,0,0,0h0s0,0,0,0h0ZM12.78,8.28s0,0,0,0c0,0,0,0,0,0h0s0,0,0,0c0,0,0,0,0,0,0,0,0,0,0,0,0,0,0,0,0,0,0,0,0,0,0,0,0,0,0,0,0,0,0,0,0,0,0,0,0,0,0,0,0,0h0s0,0,0,0c0,0,0,0,0,0h0s0,0,0,0h0s0,0,0,0ZM12.78,8.28s0,0,0,0c0,0,0,0,0,0,0,0,0,0,0,0,0,0,0,0,0,0,0,0,0,0,0,0h0ZM12.8,8.28s0,0,0,0c0,0,0,0,0,0,0,0,0,0,0,0,0,0,0,0,0,0,0,0,0,0,0,0,0,0,0,0,0,0,0,0,0,0,0,0,0,0,0,0,0,0,0,0,0,0,0,0,0,0,0,0,0,0,0,0,0,0,0,0,0,0,0,0,0,0,0,0,0,0,0,0,0,0,0,0,0,0,0,0,0,0,0,0,0,0,0,0,0,0ZM12.8,8.28h0s0,0,0,0c0,0,0,0,0,0,0,0,0,0,0,0h0ZM12.8,8.26h0s0,.01,0,.01c0,0,0,0,0,0h0s0,0,0,0c0,0,0,0,0,0h0s0,0,0,0c0,0,0,0,0,0,0,0,0,0,0,0,0,0,0,0,0,0h0ZM12.81,8.27s0,0,0,0c0,0,0,0,0,0,0,0,0,0,0,0,0,0,0,0,0,0,0,0,0,0,0,0,0,0,0,0,0,0,0,0,0,0,0,0,0,0,0,0,0,0,0,0,0,0,0,0,0,0,0,0,0,0h0s0,0,0,0c0,0,0,0,0,0,0,0,0,0,0,0,0,0,0,0,0,0,0,0,0,0,0,0h0ZM12.81,8.27h0s0,0,0,0c0,0,0,0,0,0,0,0,0,0,0,0h0ZM12.81,8.26s0,0,0,0c0,0,0,0,0,0,0,0,0,0,0,0,0,0,0,0,0,0,0,0,0,0,0,0h0s0-.01,0,0c0,0,0,0,0,0,0,0,0,0,0,0,0,0,0,0,0,0h0ZM12.82,8.26h0s0,0,0,0c0,0,0,0,0,0,0,0,0,0,0,0,0,0,0,0,0,0h0ZM12.82,8.25h0s0,0,0,0c0,0,0,0,0,0,0,0,0,0,0,0,0,0,0,0,0,0h0s0,0,0,0c0,0,0,0,0,0h0s0,0,0,0c0,0,0,0,0,0,0,0,0,0,0,0,0,0,0,0,0,0,0,0,0,0,0,0h0s0,0,0,0ZM12.84,8.26s0,0,0,0c0,0,0,0,0,0,0,0,0,0,0,0,0,0,0,0,0,0,0,0,0,0,0,0,0,0,0,0,0,0,0,0,0,0,0,0,0,0,0,0,0,0,0,0,0,0,0,0,0,0,0,0,0,0,0,0,0,0,0,0,0,0,0,0,0,0,0,0,0,0,0,0,0,0,0,0,0,0,0,0,0,0,0,0,0,0,0,0,0,0ZM12.84,8.26h0s0,0,0,0c0,0,0,0,0,0,0,0,0,0,0,0h0ZM12.75,8.33h0s0,0,0,0c0,0,0,0,0,0,0,0,0,0,0,0,0,0,0,0,0,0,0,0,0,0,0,0,0,0,0,0,0,0,0,0,0,0,0,0,0,0,0,0,0,0,0,0,0,0,0,0,0,0,0,0,0,0,0,0,0,0,0,0,0,0,0,0,0,0,0,0,0,0,0,0,0,0,0,0,0,0,0,0,0,0,0,0,0,0,0,0,0,0h0ZM12.76,8.33s0,0,0,0c0,0,0,0,0,0,0,0,0,0,0,0,0,0,0,0,0,0,0,0,0,0,0,0,0,0,0,0,0,0,0,0,0,0,0,0,0,0,0,0,0,0,0,0,0,0,0,0,0,0,0,0,0,0h0ZM12.76,8.33h0s0,0,0,0c0,0,0,0,0,0h0ZM12.77,8.32h0s0,0,0,0c0,0,0,0,0,0,0,0,0,0,0,0,0,0,0,0,0,0h0s0,0,0,0c0,0,0,0,0,0,0,0,0,0,0,0,0,0,0,0,0,0,0,0,0,0,0,0,0,0,0,0,0,0,0,0,0,0,0,0,0,0,0,0,0,0h0s0,0,0,0ZM12.77,8.32s0,0,0,0c0,0,0,0,0,0,0,0,0,0,0,0,0,0,0,0,0,0,0,0,0,0,0,0,0,0,0,0,0,0,0,0,0,0,0,0,0,0,0,0,0,0,0,0,0,0,0,0,0,0,0,0,0,0h0ZM12.77,8.32h0s0,0,0,0c0,0,0,0,0,0h0ZM12.78,8.31s0,0,0,0c0,0,0,0,0,0ZM12.78,8.31h0s0,0,0,0c0,0,0,0,0,0h0s0,0,0,0c0,0,0,0,0,0,0,0,0,0,0,0,0,0,0,0,0,0,0,0,0,0,0,0h0s0,0,0,0h0ZM12.79,8.31h0s0,0,0,0c0,0,0,0,0,0,0,0,0,0,0,0,0,0,0,0,0,0,0,0,0,0,0,0,0,0,0,0,0,0,0,0,0,0,0,0h0s0,0,0,0c0,0,0,0,0,0,0,0,0,0,0,0,0,0,0,0,0,0,0,0,0,0,0,0,0,0,0,0,0,0,0,0,0,0,0,0,0,0,0,0,0,0h0ZM12.8,8.3h0s0,0,0,0c0,0,0,0,0,0h0s0,0,0,0c0,0,0,0,0,0,0,0,0,0,0,0h0s0,0,0,0c0,0,0,0,0,0h0s0,0,0,0h0s0,0,0,0h0s0,0,0,0ZM12.81,8.3s0,0,0,0c0,0,0,0,0,0,0,0,0,0,0,0,0,0,0,0,0,0,0,0,0,0,0,0,0,0,0,0,0,0,0,0,0,0,0,0,0,0,0,0,0,0,0,0,0,0,0,0,0,0,0,0,0,0h0ZM12.81,8.3h0s0,0,0,0c0,0,0,0,0,0h0ZM12.82,8.29h0s0,0,0,0c0,0,0,0,0,0,0,0,0,0,0,0,0,0,0,0,0,0,0,0,0,0,0,0,0,0,0,0,0,0,0,0,0,0,0,0h0s0,0,0,0c0,0,0,0,0,0,0,0,0,0,0,0,0,0,0,0,0,0,0,0,0,0,0,0h0s0,0,0,0ZM12.83,8.29s0,0,0,0c0,0,0,0,0,0,0,0,0,0,0,0,0,0,0,0,0,0,0,0,0,0,0,0,0,0,0,0,0,0,0,0,0,0,0,0h0s0,0,0,0h0s0,.01,0,.01c0,0,0,0,0,0h0s0,0,0,0h0ZM12.83,8.29h0s0,0,0,0c0,0,0,0,0,0,0,0,0,0,0,0,0,0,0,0,0,0h0ZM12.84,8.29s0,0,0,0c0,0,0,0,0,0,0,0,0,0,0,0,0,0,0,0,0,0,0,0,0,0,0,0,0,0,0,0,0,0,0,0,0,0,0,0,0,0,0,0,0,0,0,0,0,0,0,0,0,0,0,0,0,0h0s0,0,0,0c0,0,0,0,0,0,0,0,0,0,0,0,0,0,0,0,0,0,0,0,0,0,0,0h0ZM12.84,8.29h0s0,0,0,0c0,0,0,0,0,0,0,0,0,0,0,0h0ZM12.85,8.28s0,0,0,0c0,0,0,0,0,0,0,0,0,0,0,0,0,0,0,0,0,0,0,0,0,0,0,0,0,0,0,0,0,0,0,0,0,0,0,0h0s0,0,0,0h0s0,.01,0,.01c0,0,0,0,0,0h0s0,0,0,0h0ZM12.85,8.28h0s0,0,0,0c0,0,0,0,0,0,0,0,0,0,0,0,0,0,0,0,0,0h0ZM12.85,8.27s0,0,0,0c0,0,0,0,0,0,0,0,0,0,0,0,0,0,0,0,0,0,0,0,0,0,0,0,0,0,0,0,0,0,0,0,0,0,0,0,0,0,0,0,0,0,0,0,0,0,0,0,0,0,0,0,0,0h0ZM12.85,8.27h0s0,0,0,0c0,0,0,0,0,0h0ZM12.86,8.27h0s0,0,0,0c0,0,0,0,0,0,0,0,0,0,0,0,0,0,0,0,0,0,0,0,0,0,0,0,0,0,0,0,0,0,0,0,0,0,0,0h0s0,0,0,0c0,0,0,0,0,0,0,0,0,0,0,0,0,0,0,0,0,0,0,0,0,0,0,0h0s0,0,0,0ZM12.87,8.27s0,0,0,0c0,0,0,0,0,0,0,0,0,0,0,0,0,0,0,0,0,0,0,0,0,0,0,0,0,0,0,0,0,0,0,0,0,0,0,0,0,0,0,0,0,0,0,0,0,0,0,0,0,0,0,0,0,0,0,0,0,0,0,0,0,0,0,0,0,0,0,0,0,0,0,0,0,0,0,0,0,0,0,0,0,0,0,0,0,0,0,0,0,0ZM12.87,8.27h0s0,0,0,0c0,0,0,0,0,0,0,0,0,0,0,0h0ZM12.87,8.26s0,0,0,0c0,0,0,0,0,0,0,0,0,0,0,0,0,0,0,0,0,0,0,0,0,0,0,0,0,0,0,0,0,0,0,0,0,0,0,0h0s0,0,0,0c0,0,0,0,0,0,0,0,0,0,0,0,0,0,0,0,0,0,0,0,0,0,0,0,0,0,0,0,0,0,0,0,0,0,0,0,0,0,0,0,0,0h0s0,0,0,0c0,0,0,0,0,0,0,0,0,0,0,0,0,0,0,0,0,0,0,0,0,0,0,0,0,0,0,0,0,0,0,0,0,0,0,0,0,0,0,0,0,0h0s0,0,0,0c0,0,0,0,0,0,0,0,0,0,0,0,0,0,0,0,0,0,0,0,0,0,0,0,0,0,0,0,0,0h0ZM12.89,8.25s0,0,0,0c0,0,0,0,0,0,0,0,0,0,0,0,0,0,0,0,0,0,0,0,0,0,0,0,0,0,0,0,0,0,0,0,0,0,0,0,0,0,0,0,0,0,0,0,0,0,0,0,0,0,0,0,0,0h0ZM12.89,8.25h0s0,0,0,0c0,0,0,0,0,0h0ZM12.89,8.24s0,0,0,0c0,0,0,0,0,0,0,0,0,0,0,0,0,0,0,0,0,0,0,0,0,0,0,0h0s0,0,0,0c0,0,0,0,0,0h0s0,0,0,0c0,0,0,0,0,0,0,0,0,0,0,0,0,0,0,0,0,0,0,0,0,0,0,0h0s0,0,0,0c0,0,0,0,0,0,0,0,0,0,0,0,0,0,0,0,0,0,0,0,0,0,0,0h0s0,0,0,0h0ZM12.9,8.23h0s0,0,0,0c0,0,0,0,0,0h0s0,0,0,0c0,0,0,0,0,0,0,0,0,0,0,0,0,0,0,0,0,0,0,0,0,0,0,0h0s0,0,0,0c0,0,0,0,0,0,0,0,0,0,0,0h0ZM12.91,8.24s0,0,0,0c0,0,0,0,0,0,0,0,0,0,0,0,0,0,0,0,0,0,0,0,0,0,0,0,0,0,0,0,0,0,0,0,0,0,0,0,0,0,0,0,0,0,0,0,0,0,0,0,0,0,0,0,0,0h0ZM12.91,8.24h0s0,0,0,0c0,0,0,0,0,0h0ZM12.77,8.36s0,0,0,0c0,0,0,0,0,0,0,0,0,0,0,0,0,0,0,0,0,0,0,0,0,0,0,0,0,0,0,0,0,0,0,0,0,0,0,0h0s0,0,0,0c0,0,0,0,0,0,0,0,0,0,0,0,0,0,0,0,0,0,0,0,0,0,0,0h0s0,0,0,0c0,0,0,0,0,0,0,0,0,0,0,0,0,0,0,0,0,0,0,0,0,0,0,0,0,0,0,0,0,0,0,0,0,0,0,0,0,0,0,0,0,0,0,0,0,0,0,0,0,0,0,0,0,0,0,0,0,0,0,0h0s0,0,0,0c0,0,0,0,0,0,0,0,0,0,0,0,0,0,0,0,0,0h0s0,0,0,0h0ZM12.78,8.34s0,0,0,0c0,0,0,0,0,0ZM12.78,8.35h0s0,0,0,0c0,0,0,0,0,0h0s0,0,0,0c0,0,0,0,0,0,0,0,0,0,0,0,0,0,0,0,0,0,0,0,0,0,0,0h0s0,0,0,0h0ZM12.79,8.34h0s0,0,0,0c0,0,0,0,0,0,0,0,0,0,0,0,0,0,0,0,0,0,0,0,0,0,0,0,0,0,0,0,0,0,0,0,0,0,0,0,0,0,0,0,0,0,0,0,0,0,0,0,0,0,0,0,0,0,0,0,0,0,0,0,0,0,0,0,0,0,0,0,0,0,0,0,0,0,0,0,0,0,0,0,0,0,0,0,0,0,0,0,0,0h0ZM12.81,8.34s0,0,0,0c0,0,0,0,0,0,0,0,0,0,0,0,0,0,0,0,0,0,0,0,0,0,0,0,0,0,0,0,0,0,0,0,0,0,0,0h0s0,0,0,0h0s0,.01,0,.01c0,0,0,0,0,0h0s0,0,0,0h0ZM12.8,8.34h0s0,0,0,0c0,0,0,0,0,0,0,0,0,0,0,0,0,0,0,0,0,0h0ZM12.8,8.33s0,0,0,0c0,0,0,0,0,0ZM12.81,8.33h0s0,0,0,0c0,0,0,0,0,0h0s0,0,0,0c0,0,0,0,0,0,0,0,0,0,0,0,0,0,0,0,0,0,0,0,0,0,0,0h0s0,0,0,0h0ZM12.81,8.32h0s0,0,0,0c0,0,0,0,0,0,0,0,0,0,0,0,0,0,0,0,0,0,0,0,0,0,0,0,0,0,0,0,0,0,0,0,0,0,0,0h0s0,0,0,0c0,0,0,0,0,0,0,0,0,0,0,0,0,0,0,0,0,0,0,0,0,0,0,0,0,0,0,0,0,0,0,0,0,0,0,0,0,0,0,0,0,0h0ZM12.83,8.32s0,0,0,0c0,0,0,0,0,0,0,0,0,0,0,0,0,0,0,0,0,0,0,0,0,0,0,0,0,0,0,0,0,0,0,0,0,0,0,0,0,0,0,0,0,0,0,0,0,0,0,0,0,0,0,0,0,0,0,0,0,0,0,0h0ZM12.82,8.31s0,0,0,0c0,0,0,0,0,0ZM12.83,8.32h0s0,0,0,0c0,0,0,0,0,0h0s0,0,0,0c0,0,0,0,0,0,0,0,0,0,0,0,0,0,0,0,0,0,0,0,0,0,0,0h0s0,0,0,0h0ZM12.83,8.32s0,0,0,0c0,0,0,0,0,0h0s0,0,0,0c0,0,0,0,0,0,0,0,0,0,0,0,0,0,0,0,0,0,0,0,0,0,0,0,0,0,0,0,0,0,0,0,0,0,0,0,0,0,0,0,0,0h0s0,0,0,0c0,0,0,0,0,0h0s0,0,0,0h0s0,0,0,0ZM12.83,8.32s0,0,0,0c0,0,0,0,0,0,0,0,0,0,0,0,0,0,0,0,0,0,0,0,0,0,0,0h0ZM12.84,8.3s0,0,0,0c0,0,0,0,0,0ZM12.84,8.31h0s0,0,0,0c0,0,0,0,0,0h0s0,0,0,0c0,0,0,0,0,0,0,0,0,0,0,0,0,0,0,0,0,0,0,0,0,0,0,0h0s0,0,0,0h0ZM12.84,8.3h0s0,.01,0,.01c0,0,0,0,0,0h0s0,0,0,0c0,0,0,0,0,0h0s0,0,0,0c0,0,0,0,0,0h0s0,0,0,0h0ZM12.85,8.3s0,0,0,0c0,0,0,0,0,0,0,0,0,0,0,0,0,0,0,0,0,0,0,0,0,0,0,0,0,0,0,0,0,0h0ZM12.85,8.3s0,0,0,0c0,0,0,0,0,0,0,0,0,0,0,0,0,0,0,0,0,0,0,0,0,0,0,0h0ZM12.86,8.29h0s0,0,0,0c0,0,0,0,0,0,0,0,0,0,0,0,0,0,0,0,0,0,0,0,0,0,0,0,0,0,0,0,0,0,0,0,0,0,0,0,0,0,0,0,0,0,0,0,0,0,0,0,0,0,0,0,0,0,0,0,0,0,0,0,0,0,0,0,0,0,0,0,0,0,0,0,0,0,0,0,0,0,0,0,0,0,0,0,0,0,0,0,0,0h0ZM12.81,8.43s0,0,0,0c0,0,0,0,0,0,0,0,0,0,0,0,0,0,0,0,0,0,0,0,0,0,0,0,0,0,0,0,0,0,0,0,0,0,0,0,0,0,0,0,0,0,0,0,0,0,0,0,0,0,0,0,0,0,0,0,0,0,0,0,0,0,0,0,0,0,0,0,0,0,0,0,0,0,0,0,0,0,0,0,0,0,0,0h0s0,0,0,0ZM12.83,8.42h0s0,0,0,0c0,0,0,0,0,0,0,0,0,0,0,0,0,0,0,0,0,0,0,0,0,0,0,0,0,0,0,0,0,0,0,0,0,0,0,0,0,0,0,0,0,0,0,0,0,0,0,0,0,0,0,0,0,0,0,0,0,0,0,0,0,0,0,0,0,0,0,0,0,0,0,0h0s0,0,0,0ZM12.83,8.42s0,0,0,0c0,0,0,0,0,0,0,0,0,0,0,0h0s0,0,0,0h0ZM12.84,8.4h0s0,0,0,0c0,0,0,0,0,0h0s0,0,0,0c0,0,0,0,0,0,0,0,0,0,0,0h0s0,0,0,0c0,0,0,0,0,0h0s0,0,0,0c0,0,0,0,0,0,0,0,0,0,0,0h0s0,0,0,0c0,0,0,0,0,0h0s0,0,0,0c0,0,0,0,0,0h0s0,0,0,0ZM12.86,8.4s0,0,0,0c0,0,0,0,0,0,0,0,0,0,0,0,0,0,0,0,0,0,0,0,0,0,0,0,0,0,0,0,0,0,0,0,0,0,0,0,0,0,0,0,0,0,0,0,0,0,0,0,0,0,0,0,0,0,0,0,0,0,0,0h0ZM12.87,8.39s0,0,0,0c0,0,0,0,0,0,0,0,0,0,0,0,0,0,0,0,0,0,0,0,0,0,0,0,0,0,0,0,0,0h0ZM12.87,8.39s0,0,0,0c0,0,0,0,0,0,0,0,0,0,0,0,0,0,0,0,0,0,0,0,0,0,0,0h0ZM12.87,8.39s0,0,0,0c0,0,0,0,0,0,0,0,0,0,0,0,0,0,0,0,0,0,0,0,0,0,0,0h0s0,0,0,0c0,0,0,0,0,0h0s0,0,0,0c0,0,0,0,0,0,0,0,0,0,0,0,0,0,0,0,0,0,0,0,0,0,0,0h0s0,0,0,0c0,0,0,0,0,0,0,0,0,0,0,0,0,0,0,0,0,0,0,0,0,0,0,0,0,0,0,0,0,0,0,0,0,0,0,0h0ZM12.88,8.38s0,0,0,0c0,0,0,0,0,0,0,0,0,0,0,0,0,0,0,0,0,0,0,0,0,0,0,0,0,0,0,0,0,0h0ZM12.88,8.38s0,0,0,0c0,0,0,0,0,0,0,0,0,0,0,0,0,0,0,0,0,0,0,0,0,0,0,0h0ZM12.9,8.38s0,0,0,0c0,0,0,0,0,0,0,0,0,0,0,0,0,0,0,0,0,0,0,0,0,0,0,0,0,0,0,0,0,0,0,0,0,0,0,0,0,0,0,0,0,0,0,0,0,0,0,0,0,0,0,0,0,0,0,0,0,0,0,0h0ZM12.9,8.38s0,0,0,0c0,0,0,0,0,0,0,0,0,0,0,0,0,0,0,0,0,0,0,0,0,0,0,0,0,0,0,0,0,0,0,0,0,0,0,0,0,0,0,0,0,0,0,0,0,0,0,0,0,0,0,0,0,0h0ZM12.9,8.37h0s0,0,0,0c0,0,0,0,0,0h0ZM12.91,8.37h0s0,0,0,0c0,0,0,0,0,0,0,0,0,0,0,0,0,0,0,0,0,0,0,0,0,0,0,0,0,0,0,0,0,0,0,0,0,0,0,0h0s0,0,0,0c0,0,0,0,0,0,0,0,0,0,0,0,0,0,0,0,0,0,0,0,0,0,0,0h0s0,0,0,0ZM12.91,8.37s0,0,0,0c0,0,0,0,0,0,0,0,0,0,0,0,0,0,0,0,0,0,0,0,0,0,0,0,0,0,0,0,0,0,0,0,0,0,0,0,0,0,0,0,0,0,0,0,0,0,0,0,0,0,0,0,0,0h0ZM12.91,8.37h0s0,0,0,0c0,0,0,0,0,0h0ZM12.92,8.35s0,0,0,0c0,0,0,0,0,0ZM12.92,8.36h0s0,0,0,0c0,0,0,0,0,0h0s0,0,0,0c0,0,0,0,0,0,0,0,0,0,0,0,0,0,0,0,0,0,0,0,0,0,0,0h0s0,0,0,0h0ZM12.93,8.35h0s0,0,0,0c0,0,0,0,0,0,0,0,0,0,0,0,0,0,0,0,0,0,0,0,0,0,0,0,0,0,0,0,0,0,0,0,0,0,0,0h0s0,0,0,0c0,0,0,0,0,0,0,0,0,0,0,0,0,0,0,0,0,0,0,0,0,0,0,0,0,0,0,0,0,0,0,0,0,0,0,0,0,0,0,0,0,0h0ZM12.94,8.34h0s0,.01,0,.01c0,0,0,0,0,0h0s0,0,0,0c0,0,0,0,0,0,0,0,0,0,0,0,0,0,0,0,0,0,0,0,0,0,0,0,0,0,0,0,0,0,0,0,0,0,0,0h0ZM12.95,8.35s0,0,0,0c0,0,0,0,0,0,0,0,0,0,0,0,0,0,0,0,0,0,0,0,0,0,0,0,0,0,0,0,0,0,0,0,0,0,0,0,0,0,0,0,0,0,0,0,0,0,0,0,0,0,0,0,0,0,0,0,0,0,0,0,0,0,0,0,0,0,0,0,0,0,0,0,0,0,0,0,0,0,0,0,0,0,0,0,0,0,0,0,0,0,0,0,0,0,0,0h0ZM12.95,8.35h0s0,0,0,0c0,0,0,0,0,0,0,0,0,0,0,0h0ZM12.82,8.45h0s0,0,0,0c0,0,0,0,0,0h0s0,0,0,0c0,0,0,0,0,0,0,0,0,0,0,0h0s0,0,0,0c0,0,0,0,0,0h0s0,0,0,0h0s0,0,0,0h0ZM12.83,8.45s0,0,0,0c0,0,0,0,0,0,0,0,0,0,0,0,0,0,0,0,0,0,0,0,0,0,0,0,0,0,0,0,0,0,0,0,0,0,0,0,0,0,0,0,0,0,0,0,0,0,0,0,0,0,0,0,0,0h0ZM12.83,8.45h0s0,0,0,0c0,0,0,0,0,0h0ZM12.84,8.44h0s0,0,0,0c0,0,0,0,0,0,0,0,0,0,0,0,0,0,0,0,0,0,0,0,0,0,0,0,0,0,0,0,0,0,0,0,0,0,0,0h0s0,0,0,0c0,0,0,0,0,0,0,0,0,0,0,0,0,0,0,0,0,0,0,0,0,0,0,0h0s0,0,0,0ZM12.86,8.44s0,0,0,0c0,0,0,0,0,0,0,0,0,0,0,0,0,0,0,0,0,0,0,0,0,0,0,0,0,0,0,0,0,0,0,0,0,0,0,0h0s0,0,0,0h0s0,.01,0,.01c0,0,0,0,0,0h0s0,0,0,0h0ZM12.86,8.44h0s0,0,0,0c0,0,0,0,0,0,0,0,0,0,0,0,0,0,0,0,0,0h0ZM12.86,8.44s0,0,0,0c0,0,0,0,0,0,0,0,0,0,0,0,0,0,0,0,0,0,0,0,0,0,0,0,0,0,0,0,0,0,0,0,0,0,0,0,0,0,0,0,0,0,0,0,0,0,0,0,0,0,0,0,0,0h0s0,0,0,0c0,0,0,0,0,0,0,0,0,0,0,0,0,0,0,0,0,0,0,0,0,0,0,0ZM12.86,8.44h0s0,0,0,0c0,0,0,0,0,0,0,0,0,0,0,0h0ZM12.87,8.43s0,0,0,0c0,0,0,0,0,0,0,0,0,0,0,0,0,0,0,0,0,0,0,0,0,0,0,0,0,0,0,0,0,0,0,0,0,0,0,0h0s0,0,0,0h0s0,.01,0,.01c0,0,0,0,0,0h0s0,0,0,0h0ZM12.87,8.43h0s0,0,0,0c0,0,0,0,0,0,0,0,0,0,0,0,0,0,0,0,0,0h0ZM12.88,8.43h0s0,0,0,0c0,0,0,0,0,0,0,0,0,0,0,0,0,0,0,0,0,0,0,0,0,0,0,0,0,0,0,0,0,0h0ZM12.88,8.42h0s0,0,0,0c0,0,0,0,0,0h0s0,0,0,0c0,0,0,0,0,0,0,0,0,0,0,0h0s0,0,0,0c0,0,0,0,0,0,0,0,0,0,0,0,0,0,0,0,0,0,0,0,0,0,0,0,0,0,0,0,0,0,0,0,0,0,0,0h0s0,0,0,0h0s0,0,0,0ZM12.89,8.4h0s0,.01,0,.01c0,0,0,0,0,0h0s0,0,0,0c0,0,0,0,0,0h0s0,0,0,0c0,0,0,0,0,0h0s0,0,0,0h0ZM12.91,8.41s0,0,0,0c0,0,0,0,0,0,0,0,0,0,0,0,0,0,0,0,0,0,0,0,0,0,0,0,0,0,0,0,0,0,0,0,0,0,0,0,0,0,0,0,0,0,0,0,0,0,0,0,0,0,0,0,0,0,0,0,0,0,0,0,0,0,0,0,0,0,0,0,0,0,0,0,0,0,0,0,0,0,0,0,0,0,0,0,0,0,0,0,0,0ZM12.91,8.41h0s0,0,0,0c0,0,0,0,0,0,0,0,0,0,0,0h0ZM12.91,8.4h0s0,0,0,0c0,0,0,0,0,0h0s0,0,0,0c0,0,0,0,0,0,0,0,0,0,0,0h0s0,0,0,0c0,0,0,0,0,0h0s0,0,0,0h0s0,0,0,0h0ZM12.92,8.39s0,0,0,0c0,0,0,0,0,0,0,0,0,0,0,0,0,0,0,0,0,0,0,0,0,0,0,0,0,0,0,0,0,0,0,0,0,0,0,0,0,0,0,0,0,0,0,0,0,0,0,0,0,0,0,0,0,0h0ZM12.92,8.39h0s0,0,0,0c0,0,0,0,0,0h0ZM12.93,8.38h0s0,0,0,0c0,0,0,0,0,0,0,0,0,0,0,0,0,0,0,0,0,0,0,0,0,0,0,0,0,0,0,0,0,0,0,0,0,0,0,0h0s0,0,0,0c0,0,0,0,0,0,0,0,0,0,0,0,0,0,0,0,0,0,0,0,0,0,0,0h0s0,0,0,0ZM12.95,8.38s0,0,0,0c0,0,0,0,0,0,0,0,0,0,0,0,0,0,0,0,0,0,0,0,0,0,0,0,0,0,0,0,0,0,0,0,0,0,0,0h0s0,0,0,0h0s0,.01,0,.01c0,0,0,0,0,0h0s0,0,0,0h0s0,0,0,0ZM12.95,8.38h0s0,0,0,0c0,0,0,0,0,0,0,0,0,0,0,0,0,0,0,0,0,0h0ZM12.95,8.38s0,0,0,0c0,0,0,0,0,0,0,0,0,0,0,0,0,0,0,0,0,0,0,0,0,0,0,0,0,0,0,0,0,0,0,0,0,0,0,0,0,0,0,0,0,0,0,0,0,0,0,0,0,0,0,0,0,0,0,0,0,0,0,0,0,0,0,0,0,0,0,0,0,0,0,0,0,0,0,0,0,0,0,0,0,0,0,0h0ZM12.95,8.38h0s0,0,0,0c0,0,0,0,0,0,0,0,0,0,0,0h0ZM12.96,8.37s0,0,0,0c0,0,0,0,0,0,0,0,0,0,0,0,0,0,0,0,0,0,0,0,0,0,0,0,0,0,0,0,0,0,0,0,0,0,0,0h0s0,0,0,0h0s0,.01,0,.01c0,0,0,0,0,0h0s0,0,0,0h0ZM12.96,8.37h0s0,0,0,0c0,0,0,0,0,0,0,0,0,0,0,0,0,0,0,0,0,0h0ZM12.97,8.36s0,0,0,0c0,0,0,0,0,0,0,0,0,0,0,0,0,0,0,0,0,0,0,0,0,0,0,0,0,0,0,0,0,0h0ZM12.97,8.36s0,0,0,0c0,0,0,0,0,0,0,0,0,0,0,0,0,0,0,0,0,0,0,0,0,0,0,0h0ZM12.98,8.35h0s0,0,0,0c0,0,0,0,0,0,0,0,0,0,0,0,0,0,0,0,0,0,0,0,0,0,0,0,0,0,0,0,0,0,0,0,0,0,0,0,0,0,0,0,0,0,0,0,0,0,0,0,0,0,0,0,0,0,0,0,0,0,0,0,0,0,0,0,0,0,0,0,0,0,0,0,0,0,0,0,0,0,0,0,0,0,0,0,0,0,0,0,0,0h0ZM12.84,8.47h0s0,0,0,0c0,0,0,0,0,0,0,0,0,0,0,0,0,0,0,0,0,0,0,0,0,0,0,0h0s0,0,0,0c0,0,0,0,0,0,0,0,0,0,0,0,0,0,0,0,0,0,0,0,0,0,0,0,0,0,0,0,0,0,0,0,0,0,0,0,0,0,0,0,0,0h0s0,0,0,0c0,0,0,0,0,0,0,0,0,0,0,0,0,0,0,0,0,0,0,0,0,0,0,0h0s0,0,0,0h0ZM12.85,8.47s0,0,0,0c0,0,0,0,0,0,0,0,0,0,0,0,0,0,0,0,0,0,0,0,0,0,0,0,0,0,0,0,0,0,0,0,0,0,0,0,0,0,0,0,0,0,0,0,0,0,0,0,0,0,0,0,0,0h0s0,0,0,0c0,0,0,0,0,0,0,0,0,0,0,0,0,0,0,0,0,0,0,0,0,0,0,0h0ZM12.85,8.47h0s0,0,0,0c0,0,0,0,0,0,0,0,0,0,0,0h0Z"/>
              <path class="cls-37" d="M12.86,8.46h0s0,0,0,0c0,0,0,0,0,0,0,0,0,0,0,0,0,0,0,0,0,0h0s0,0,0,0c0,0,0,0,0,0h0s0,0,0,0c0,0,0,0,0,0,0,0,0,0,0,0,0,0,0,0,0,0,0,0,0,0,0,0h0s0,0,0,0ZM12.87,8.47s0,0,0,0c0,0,0,0,0,0,0,0,0,0,0,0,0,0,0,0,0,0,0,0,0,0,0,0,0,0,0,0,0,0,0,0,0,0,0,0,0,0,0,0,0,0,0,0,0,0,0,0,0,0,0,0,0,0,0,0,0,0,0,0,0,0,0,0,0,0,0,0,0,0,0,0,0,0,0,0,0,0,0,0,0,0,0,0,0,0,0,0,0,0h0ZM12.87,8.47h0s0,0,0,0c0,0,0,0,0,0,0,0,0,0,0,0h0ZM12.87,8.45h0s0,.01,0,.01c0,0,0,0,0,0h0s0,0,0,0c0,0,0,0,0,0,0,0,0,0,0,0,0,0,0,0,0,0,0,0,0,0,0,0,0,0,0,0,0,0,0,0,0,0,0,0h0ZM12.88,8.44s0,0,0,0c0,0,0,0,0,0ZM12.88,8.45h0s0,0,0,0c0,0,0,0,0,0h0s0,0,0,0c0,0,0,0,0,0,0,0,0,0,0,0,0,0,0,0,0,0,0,0,0,0,0,0h0s0,0,0,0h0ZM12.89,8.45s0,0,0,0c0,0,0,0,0,0,0,0,0,0,0,0,0,0,0,0,0,0,0,0,0,0,0,0h0s0-.01,0,0c0,0,0,0,0,0h0s0,0,0,0h0ZM12.89,8.45h0s0,0,0,0c0,0,0,0,0,0,0,0,0,0,0,0,0,0,0,0,0,0h0ZM12.89,8.44h0s0,0,0,0c0,0,0,0,0,0,0,0,0,0,0,0,0,0,0,0,0,0,0,0,0,0,0,0,0,0,0,0,0,0,0,0,0,0,0,0,0,0,0,0,0,0,0,0,0,0,0,0,0,0,0,0,0,0,0,0,0,0,0,0,0,0,0,0,0,0,0,0,0,0,0,0h0s0,0,0,0ZM12.9,8.44s0,0,0,0c0,0,0,0,0,0,0,0,0,0,0,0,0,0,0,0,0,0,0,0,0,0,0,0,0,0,0,0,0,0,0,0,0,0,0,0,0,0,0,0,0,0,0,0,0,0,0,0,0,0,0,0,0,0h0ZM12.9,8.44h0s0,0,0,0c0,0,0,0,0,0h0ZM12.91,8.43h0s0,0,0,0c0,0,0,0,0,0,0,0,0,0,0,0,0,0,0,0,0,0,0,0,0,0,0,0,0,0,0,0,0,0,0,0,0,0,0,0h0s0,0,0,0c0,0,0,0,0,0,0,0,0,0,0,0,0,0,0,0,0,0,0,0,0,0,0,0,0,0,0,0,0,0,0,0,0,0,0,0,0,0,0,0,0,0h0ZM12.92,8.43s0,0,0,0c0,0,0,0,0,0,0,0,0,0,0,0,0,0,0,0,0,0h0s0,0,0,0h0Z"/>
            </g>
          </g>
        </g>
      </g>
    </g>
  </g>
</svg>