<?xml version="1.0" encoding="UTF-8"?>
<svg id="Layer_2" data-name="Layer 2" xmlns="http://www.w3.org/2000/svg" viewBox="0 0 34.02 17.01">
  <defs>
    <style>
      .cls-1 {
        fill: #ffce04;
      }

      .cls-2 {
        fill: #fff;
      }

      .cls-3 {
        fill: #086b38;
      }

      .cls-4 {
        fill: #9c4d23;
      }

      .cls-5 {
        fill: #010101;
      }

      .cls-6 {
        fill: #d51f36;
      }

      .cls-7 {
        fill: #8565ac;
      }
    </style>
  </defs>
  <g id="Layer_1-2" data-name="Layer 1">
    <g>
      <g>
        <path class="cls-3" d="M0,0h34.02v17.01H0V0Z"/>
        <path class="cls-1" d="M0,6.38h34.02v2.13H0v-2.13ZM14.88,0h2.13v17.01h-2.13V0Z"/>
        <path class="cls-2" d="M0,8.5h34.02v2.13H0v-2.13ZM17.01,0h2.13v17.01h-2.13V0Z"/>
        <path class="cls-5" d="M0,7.8h34.02v1.42H0v-1.42ZM16.3,0h1.42v17.01h-1.42V0Z"/>
        <circle class="cls-6" cx="17.01" cy="8.5" r="4.25"/>
      </g>
      <g id="b">
        <g id="a">
          <g id="s">
            <path class="cls-3" d="M17.01,4.72l.13.41h.43l-.35.25.13.41-.35-.25-.35.25.13-.41-.35-.25h.43l.13-.41Z"/>
            <path class="cls-5" d="M17.38,5.83l-.04-.03-.34-.25-.38.27v-.04s.14-.4.14-.4l-.38-.27h.46l.14-.44.14.44h.46l-.04.03-.34.25.14.44ZM17.01,5.52h0s.31.23.31.23l-.12-.38h0s.31-.23.31-.23h-.4s-.12-.38-.12-.38l-.12.38h-.4l.32.23h0s-.12.38-.12.38l.32-.23Z"/>
          </g>
          <g id="s-2" data-name="s">
            <path class="cls-3" d="M19.23,5.45l-.13.41.35.25h-.43s-.13.41-.13.41l-.13-.41h-.43s.35-.25.35-.25l-.13-.41.35.25.35-.25Z"/>
            <path class="cls-5" d="M18.88,6.56l-.14-.44h-.46l.04-.03.34-.25-.14-.44.04.03.34.25.38-.27v.04s-.14.4-.14.4l.38.27h-.46l-.14.44ZM18.36,6.09h.4s.12.38.12.38l.12-.38h.4l-.32-.23h0s.12-.38.12-.38l-.32.23h0s-.31-.23-.31-.23l.12.38h0s-.31.23-.31.23Z"/>
          </g>
        </g>
        <g id="s-3" data-name="s">
          <path class="cls-3" d="M20.6,7.34l-.35.25.13.41-.35-.25-.35.25.13-.41-.35-.25h.43s.13-.41.13-.41l.13.41h.43Z"/>
          <path class="cls-5" d="M19.67,8.03v-.04s.14-.4.14-.4l-.38-.27h.46l.14-.44.14.44h.46l-.04.03-.34.25.14.44-.04-.03-.34-.25-.38.27ZM20.04,7.73h0s.31.23.31.23l-.12-.38h0s.31-.23.31-.23h-.4s-.12-.38-.12-.38l-.12.38h-.4l.32.23h0s-.12.38-.12.38l.32-.23Z"/>
        </g>
        <g id="a-2" data-name="a">
          <g id="s-4" data-name="s">
            <path class="cls-3" d="M20.6,9.67h-.43s-.13.41-.13.41l-.13-.41h-.43s.35-.25.35-.25l-.13-.41.35.25.35-.25-.13.41.35.25Z"/>
            <path class="cls-5" d="M20.04,10.13l-.14-.44h-.46l.04-.03.34-.25-.14-.44.04.03.34.25.38-.27v.04s-.14.4-.14.4l.38.27h-.46l-.14.44ZM19.52,9.66h.4s.12.38.12.38l.12-.38h.4l-.32-.23h0s.12-.38.12-.38l-.32.23h0s-.31-.23-.31-.23l.12.38h0s-.31.23-.31.23Z"/>
          </g>
          <g id="s-5" data-name="s">
            <path class="cls-3" d="M19.23,11.56l-.35-.25-.35.25.13-.41-.35-.25h.43s.13-.41.13-.41l.13.41h.43s-.35.25-.35.25l.13.41Z"/>
            <path class="cls-5" d="M19.26,11.6l-.04-.03-.34-.25-.38.27v-.04s.14-.4.14-.4l-.38-.27h.46l.14-.44.14.44h.46l-.04.03-.34.25.14.44ZM18.88,11.29h0s.31.23.31.23l-.12-.38h0s.31-.23.31-.23h-.4s-.12-.38-.12-.38l-.12.38h-.4l.32.23h0s-.12.38-.12.38l.32-.23Z"/>
          </g>
        </g>
      </g>
      <g id="b-2" data-name="b">
        <g id="a-3" data-name="a">
          <g id="s-6" data-name="s">
            <path class="cls-3" d="M17.01,12.28l-.13-.41h-.43l.35-.25-.13-.41.35.25.35-.25-.13.41.35.25h-.43l-.13.41Z"/>
            <path class="cls-5" d="M17.01,12.33l-.14-.44h-.46l.04-.03.34-.25-.14-.44.04.03.34.25.38-.27v.04s-.14.4-.14.4l.38.27h-.46l-.14.44ZM16.49,11.86h.4s.12.38.12.38l.12-.38h.4l-.32-.23h0s.12-.38.12-.38l-.32.23h0s-.31-.23-.31-.23l.12.38h0s-.31.23-.31.23Z"/>
          </g>
          <g id="s-7" data-name="s">
            <path class="cls-3" d="M14.79,11.56l.13-.41-.35-.25h.43s.13-.41.13-.41l.13.41h.43s-.35.25-.35.25l.13.41-.35-.25-.35.25Z"/>
            <path class="cls-5" d="M14.76,11.6v-.04s.14-.4.14-.4l-.38-.27h.46l.14-.44.14.44h.46l-.04.03-.34.25.14.44-.04-.03-.34-.25-.38.27ZM14.61,10.92l.32.23h0s-.12.38-.12.38l.32-.23h0s.31.23.31.23l-.12-.38h0s.31-.23.31-.23h-.4s-.12-.38-.12-.38l-.12.38h-.4Z"/>
          </g>
        </g>
        <g id="s-8" data-name="s">
          <path class="cls-3" d="M13.41,9.67l.35-.25-.13-.41.35.25.35-.25-.13.41.35.25h-.43s-.13.41-.13.41l-.13-.41h-.43Z"/>
          <path class="cls-5" d="M13.97,10.13l-.14-.44h-.46l.04-.03.34-.25-.14-.44.04.03.34.25.38-.27v.04s-.14.4-.14.4l.38.27h-.46l-.14.44ZM13.46,9.66h.4s.12.38.12.38l.12-.38h.4l-.32-.23h0s.12-.38.12-.38l-.32.23h0s-.31-.23-.31-.23l.12.38h0s-.31.23-.31.23Z"/>
        </g>
        <g id="a-4" data-name="a">
          <g id="s-9" data-name="s">
            <path class="cls-3" d="M13.41,7.34h.43s.13-.41.13-.41l.13.41h.43s-.35.25-.35.25l.13.41-.35-.25-.35.25.13-.41-.35-.25Z"/>
            <path class="cls-5" d="M14.35,8.03l-.04-.03-.34-.25-.38.27v-.04s.14-.4.14-.4l-.38-.27h.46l.14-.44.14.44h.46l-.04.03-.34.25.14.44ZM13.97,7.73h0s.31.23.31.23l-.12-.38h0s.31-.23.31-.23h-.4s-.12-.38-.12-.38l-.12.38h-.4l.32.23h0s-.12.38-.12.38l.32-.23Z"/>
          </g>
          <g id="s-10" data-name="s">
            <path class="cls-3" d="M14.79,5.45l.35.25.35-.25-.13.41.35.25h-.43s-.13.41-.13.41l-.13-.41h-.43s.35-.25.35-.25l-.13-.41Z"/>
            <path class="cls-5" d="M15.13,6.56l-.14-.44h-.46l.04-.03.34-.25-.14-.44.04.03.34.25.38-.27v.04s-.14.4-.14.4l.38.27h-.46l-.14.44ZM14.61,6.09h.4s.12.38.12.38l.12-.38h.4l-.32-.23h0s.12-.38.12-.38l-.32.23h0s-.31-.23-.31-.23l.12.38h0s-.31.23-.31.23Z"/>
          </g>
        </g>
      </g>
      <g>
        <g>
          <ellipse class="cls-3" cx="17.59" cy="9.63" rx=".26" ry="1.25" transform="translate(-.63 1.25) rotate(-4)"/>
          <path class="cls-5" d="M17.67,10.89c-.15,0-.3-.54-.35-1.24-.05-.71.03-1.27.17-1.28,0,0,0,0,0,0,.09,0,.16.2.21.36.06.23.11.55.14.88h0c.05.71-.03,1.27-.17,1.28,0,0,0,0,0,0ZM17.51,8.39h0c-.12,0-.21.52-.16,1.26.05.67.2,1.22.33,1.22h0c.13-.01.21-.59.16-1.26h0c-.02-.33-.07-.64-.14-.88-.06-.22-.13-.35-.19-.35Z"/>
        </g>
        <g>
          <ellipse class="cls-3" cx="17.84" cy="9.63" rx=".27" ry="1.25" transform="translate(-.63 1.27) rotate(-4)"/>
          <path class="cls-5" d="M17.92,10.88s-.04,0-.06-.03c-.13-.12-.26-.62-.3-1.21-.05-.71.03-1.27.19-1.28,0,0,0,0,0,0,.15,0,.31.54.36,1.24h0c.04.6,0,1.11-.13,1.24-.02.02-.04.03-.06.03,0,0,0,0,0,0ZM17.76,8.38h0c-.14.01-.22.59-.17,1.26.04.58.17,1.09.29,1.2.02.01.03.02.05.02h0s.03-.01.05-.03c.11-.13.17-.65.12-1.23h0c-.05-.67-.2-1.22-.34-1.22Z"/>
        </g>
        <g>
          <ellipse class="cls-3" cx="17.72" cy="9.69" rx=".21" ry="1.38" transform="translate(-.63 1.26) rotate(-4)"/>
          <path class="cls-5" d="M17.82,11.08s-.02,0-.04-.02c-.11-.1-.23-.67-.28-1.36-.05-.68-.01-1.4.12-1.41,0,0,0,0,0,0,.14,0,.27.7.32,1.37.05.69.01,1.27-.09,1.38-.01.02-.03.02-.04.02ZM17.63,8.32h0c-.1,0-.17.57-.11,1.39.05.67.16,1.25.27,1.35,0,0,.02.01.03.01h0s.02,0,.03-.02c.09-.11.13-.7.08-1.37-.06-.82-.2-1.36-.3-1.36Z"/>
        </g>
      </g>
      <g>
        <path class="cls-4" d="M18.04,10.55c-.38.04-2.04.06-2.11,0s-.18-.27-.18-.28c.22,0,.12-.13.23-.19.11-.06.26-.02.31.05.05.08,0,.15.07.16.06,0,1.24-.06,1.68-.03.07,0,.13.07.13.14s-.05.13-.13.14Z"/>
        <path class="cls-5" d="M16.67,10.6c-.39,0-.71,0-.75-.03-.07-.05-.18-.28-.18-.29h0s0,0,0,0c.13,0,.14-.05.16-.09.01-.03.03-.07.07-.09.11-.07.27-.02.32.06.02.04.03.07.03.1,0,.04,0,.05.03.05.01,0,.06,0,.13,0,.33-.01,1.19-.05,1.54-.02.07,0,.13.07.13.15s-.06.14-.13.15h0c-.2.02-.85.04-1.37.04ZM15.76,10.29s.11.22.17.27c.07.05,1.72.03,2.11,0h0c.07,0,.12-.06.12-.13s-.05-.13-.12-.13c-.09,0-.22,0-.37,0-.41,0-.94.02-1.18.03-.07,0-.12,0-.13,0-.04,0-.04-.03-.05-.07,0-.03,0-.06-.03-.09-.05-.07-.2-.11-.3-.05-.04.02-.05.05-.06.08-.02.05-.04.1-.16.1Z"/>
      </g>
      <g id="c">
        <path class="cls-1" d="M16.91,10.44c0,.17.24.12.24.26,0,.14-.41,0-.41-.26.02-.26.41-.39.41-.24,0,.13-.24.08-.24.25Z"/>
        <path class="cls-5" d="M17.07,10.76h0c-.13,0-.33-.13-.34-.32.01-.2.22-.32.34-.32h0c.05,0,.09.03.09.07,0,.06-.06.09-.11.11-.06.03-.13.05-.13.13h0c0,.08.06.11.12.13.06.02.12.05.12.12,0,.04-.03.07-.09.07ZM17.07,10.13c-.11,0-.31.11-.32.3,0,.19.21.3.32.31h0s.07,0,.07-.05c0-.06-.05-.08-.11-.11-.06-.03-.13-.06-.13-.15h0c0-.09.08-.12.14-.15.06-.02.1-.04.1-.1,0-.05-.05-.05-.07-.06h0Z"/>
      </g>
      <g id="c-2" data-name="c">
        <path class="cls-1" d="M17.05,10.44c0,.17.24.12.24.26,0,.14-.41,0-.41-.26.02-.26.41-.39.41-.24,0,.13-.24.08-.24.25Z"/>
        <path class="cls-5" d="M17.22,10.76h0c-.13,0-.33-.13-.34-.32.01-.2.22-.32.34-.32h0c.05,0,.09.03.09.07,0,.06-.06.09-.11.11-.06.03-.13.05-.13.13h0c0,.08.06.11.12.13.06.02.12.05.12.12,0,.04-.03.07-.09.07ZM17.21,10.13c-.11,0-.31.11-.32.3,0,.19.21.3.32.31h0s.07,0,.07-.05c0-.06-.05-.08-.11-.11-.06-.03-.13-.06-.13-.15h0c0-.09.08-.12.14-.15.06-.02.1-.04.1-.1,0-.05-.05-.05-.07-.06h0Z"/>
      </g>
      <g id="c-3" data-name="c">
        <path class="cls-1" d="M17.21,10.44c0,.17.24.12.24.26,0,.14-.41,0-.41-.26.02-.26.41-.39.41-.24,0,.13-.24.08-.24.25Z"/>
        <path class="cls-5" d="M17.37,10.76h0c-.13,0-.33-.13-.34-.32.01-.2.22-.32.34-.32h0c.05,0,.09.03.09.07,0,.06-.06.09-.11.11-.06.03-.13.05-.13.13h0c0,.08.06.11.12.13.06.02.12.05.12.12,0,.04-.03.07-.09.07ZM17.37,10.13c-.11,0-.31.11-.32.3,0,.19.21.3.32.31h0s.07,0,.07-.05c0-.06-.05-.08-.11-.11-.06-.03-.13-.06-.13-.15h0c0-.09.08-.12.14-.15.06-.02.1-.04.1-.1,0-.05-.05-.05-.07-.06h0Z"/>
      </g>
      <g id="c-4" data-name="c">
        <path class="cls-1" d="M17.35,10.44c0,.17.24.12.24.26,0,.14-.41,0-.41-.26.02-.26.41-.39.41-.24,0,.13-.24.08-.24.25Z"/>
        <path class="cls-5" d="M17.51,10.76h0c-.13,0-.33-.13-.34-.32.01-.2.22-.32.34-.32h0c.05,0,.09.03.09.07,0,.06-.06.09-.11.11-.06.03-.13.05-.13.13h0c0,.08.06.11.12.13.06.02.12.05.12.12,0,.04-.03.07-.09.07ZM17.51,10.13c-.11,0-.31.11-.32.3,0,.19.21.3.32.31h0s.07,0,.07-.05c0-.06-.05-.08-.11-.11-.06-.03-.13-.06-.13-.15h0c0-.09.08-.12.14-.15.06-.02.11-.04.1-.1,0-.05-.05-.05-.07-.06h0Z"/>
      </g>
      <g>
        <g>
          <g>
            <path class="cls-3" d="M17.29,9.78c.05.12.05.29,0,.38s-.13.07-.18-.05-.05-.29,0-.38.13-.07.18.05Z"/>
            <path class="cls-5" d="M17.22,10.32h0s-.13-.03-.19-.17c-.06-.15-.06-.35,0-.46.04-.07.09-.11.16-.11h0s.13.03.19.17h0c.06.15.06.35,0,.46-.04.07-.09.11-.16.11ZM17.19,9.8c-.02.07-.02.18.02.27,0,0,0,.01,0,.02.02-.07.02-.18-.02-.27h0s0-.01,0-.02Z"/>
          </g>
          <g>
            <path class="cls-3" d="M17.08,9.76c.05.12.05.29,0,.38s-.13.07-.18-.05-.05-.29,0-.38.13-.07.18.05Z"/>
            <path class="cls-5" d="M17.01,10.3h0s-.13-.03-.19-.17c-.06-.15-.06-.35,0-.46.04-.07.1-.12.17-.11.05,0,.13.03.19.17h0c.06.15.06.35,0,.46-.05.1-.12.11-.16.11ZM16.98,9.79c-.02.07-.02.18.02.27,0,0,0,.01,0,.01.02-.07.02-.18-.02-.27,0,0,0-.01,0-.02Z"/>
          </g>
          <g>
            <path class="cls-3" d="M16.93,9.49c.05.12.05.29,0,.38s-.13.07-.18-.05-.05-.29,0-.38.13-.07.18.05Z"/>
            <path class="cls-5" d="M16.86,10.03h0s-.13-.03-.19-.17c-.06-.15-.06-.35,0-.46.04-.07.09-.11.16-.11h0s.13.03.19.17h0c.06.15.06.35,0,.46-.05.1-.12.11-.16.11ZM16.83,9.52c-.02.07-.02.19.02.27,0,0,0,.01,0,.02.02-.07.02-.18-.02-.27,0,0,0-.01,0-.02Z"/>
          </g>
        </g>
        <g>
          <path class="cls-3" d="M17.16,9.54c.04.15.02.33-.04.39s-.13-.01-.17-.17-.02-.33.04-.39.13.01.17.17Z"/>
          <path class="cls-5" d="M17.08,10.05s-.03,0-.04,0c-.08-.02-.15-.11-.19-.26-.04-.16-.03-.38.06-.48.04-.04.1-.06.15-.05.08.02.15.11.19.26h0c.04.16.03.38-.06.48-.03.03-.07.05-.12.05ZM17.04,9.5c0,.05-.01.14,0,.24,0,.03.01.05.02.06,0-.05.01-.14,0-.24h0s-.01-.05-.02-.06Z"/>
        </g>
        <g>
          <g>
            <path class="cls-3" d="M17.08,9.29c.04.14.03.31-.02.38s-.13.02-.17-.12-.03-.31.02-.38.13-.02.17.12Z"/>
            <path class="cls-5" d="M17.01,9.79s-.02,0-.03,0c-.08-.01-.15-.09-.19-.22-.04-.15-.04-.36.04-.47.04-.05.1-.08.16-.07.08.01.15.09.19.22h0c.04.14.04.36-.04.47-.03.05-.08.07-.13.07ZM16.97,9.27c-.01.06-.02.15.01.24,0,.02,0,.03.01.04.01-.06.02-.15-.01-.24h0s0-.03-.01-.04Z"/>
          </g>
          <g>
            <path class="cls-3" d="M16.9,9.2c.04.14.03.31-.02.38s-.13.02-.17-.12-.03-.31.02-.38.13-.02.17.12Z"/>
            <path class="cls-5" d="M16.82,9.71s-.02,0-.03,0c-.08-.01-.15-.09-.19-.22-.04-.15-.05-.35.04-.47.04-.05.1-.08.16-.07.08.02.15.09.19.22h0c.04.14.04.35-.04.46-.04.05-.08.07-.13.07ZM16.79,9.19c-.01.06-.02.15.01.24,0,.02,0,.03.01.04.01-.06.02-.15-.01-.24h0s0-.03-.01-.04Z"/>
          </g>
        </g>
      </g>
      <g>
        <path class="cls-7" d="M16.59,7.01s-.42.36-.37,1.33c.05.98.92,1.44.92,1.44h.14v-2.78h-.69Z"/>
        <path class="cls-5" d="M17.29,9.8h-.15s-.88-.47-.93-1.45c-.05-.97.37-1.34.37-1.34h0s.7,0,.7,0v2.79ZM16.59,7.02s-.41.4-.36,1.33c.05.97.91,1.43.92,1.44h.13v-2.76h-.68Z"/>
      </g>
      <g>
        <g>
          <g>
            <path class="cls-3" d="M17.61,9.76c.05.09.05.26,0,.38s-.13.15-.18.06-.05-.26,0-.38.13-.15.18-.06Z"/>
            <path class="cls-5" d="M17.51,10.35c-.06,0-.12-.04-.16-.1-.06-.12-.07-.32,0-.46.06-.14.15-.17.19-.17,0,0,0,0,0,0,.06,0,.12.04.16.1h0c.06.11.07.31,0,.46-.06.14-.15.17-.19.17,0,0,0,0,0,0ZM17.54,9.83s0,.01,0,.02c-.04.09-.04.2-.02.27,0,0,0-.01,0-.02.04-.09.04-.2.02-.27Z"/>
          </g>
          <g>
            <path class="cls-3" d="M17.41,9.7c.05.09.05.26,0,.38s-.13.15-.18.06-.05-.26,0-.38.13-.15.18-.06Z"/>
            <path class="cls-5" d="M17.31,10.29s-.11-.01-.16-.1c-.06-.12-.07-.32,0-.46.06-.14.15-.17.19-.17.05,0,.13.03.17.1h0c.06.12.07.32,0,.47-.06.14-.14.17-.19.17h0ZM17.34,9.78s0,.01,0,.02c-.04.09-.04.2-.02.27,0,0,0-.01,0-.02.04-.09.04-.2.02-.27Z"/>
          </g>
          <g>
            <path class="cls-3" d="M17.31,9.42c.05.09.05.26,0,.38s-.13.15-.18.06-.05-.26,0-.38.13-.15.18-.06Z"/>
            <path class="cls-5" d="M17.2,10.01c-.06,0-.12-.04-.16-.1-.06-.11-.06-.31,0-.46.06-.14.14-.17.19-.17,0,0,0,0,0,0,.06,0,.12.04.16.1h0c.06.12.07.32,0,.47-.06.14-.14.17-.19.17,0,0,0,0,0,0ZM17.24,9.49s0,.01,0,.02c-.04.09-.04.2-.02.27,0,0,0-.01,0-.02.03-.09.04-.2.02-.27Z"/>
          </g>
        </g>
        <g>
          <path class="cls-3" d="M17.49,9.38c.06.06.08.23.05.38s-.11.24-.17.18-.08-.23-.05-.38.11-.24.17-.18Z"/>
          <path class="cls-5" d="M17.41,10.06s-.08-.02-.11-.04c-.1-.09-.11-.31-.08-.48.02-.09.07-.24.18-.27.05-.02.11,0,.15.04h0c.1.09.11.31.08.48-.02.09-.07.24-.18.27-.01,0-.03,0-.04,0ZM17.45,9.5s-.02.04-.02.08c-.02.09-.01.18,0,.24,0-.02.02-.04.02-.08.02-.1.02-.18,0-.24ZM17.49,9.37l-.07.07h0l.07-.07Z"/>
        </g>
        <g>
          <g>
            <path class="cls-3" d="M17.79,9.46c.05.07.07.23.03.38s-.11.2-.17.13-.07-.23-.03-.38.11-.2.17-.13Z"/>
            <path class="cls-5" d="M17.7,10.1s-.09-.02-.12-.06c-.09-.11-.09-.31-.05-.46.04-.13.1-.21.18-.23.06-.02.11,0,.16.06.09.11.09.31.05.46-.04.13-.1.21-.18.23-.01,0-.02,0-.03,0ZM17.73,9.57s-.01.03-.02.05c-.02.09-.02.18,0,.24,0-.01.01-.03.02-.05.02-.09.02-.18,0-.24ZM17.79,9.46l-.08.06h0l.08-.06Z"/>
          </g>
          <g>
            <path class="cls-3" d="M17.65,9.34c.05.07.07.23.03.38s-.11.2-.17.13-.07-.23-.03-.38.11-.2.17-.13Z"/>
            <path class="cls-5" d="M17.56,9.97s-.09-.02-.12-.06c-.09-.1-.09-.31-.05-.46.04-.13.1-.21.18-.23.06-.01.12,0,.16.06.09.11.09.31.05.46-.04.13-.1.21-.18.23-.01,0-.02,0-.03,0ZM17.59,9.45s-.01.03-.02.05c-.02.09-.02.18,0,.24,0-.01.01-.03.02-.05.02-.09.02-.18,0-.24ZM17.65,9.34l-.08.06h0s.08-.06.08-.06Z"/>
          </g>
          <g>
            <path class="cls-3" d="M17.48,9.16c.05.07.07.23.03.38s-.11.2-.17.13-.07-.23-.03-.38.11-.2.17-.13Z"/>
            <path class="cls-5" d="M17.39,9.8s-.09-.02-.12-.06c-.09-.11-.09-.31-.05-.46.04-.13.1-.21.18-.23.06-.01.12,0,.16.06.09.11.09.31.05.46-.04.13-.1.21-.18.23-.01,0-.02,0-.03,0ZM17.42,9.27s-.01.03-.02.05c-.02.09-.02.18,0,.24,0-.01.01-.03.02-.05.02-.09.02-.18,0-.24ZM17.48,9.16l-.08.06h0s.08-.06.08-.06Z"/>
          </g>
          <g>
            <path class="cls-3" d="M17.31,9.05c.05.07.07.23.03.38s-.11.2-.17.13-.07-.23-.03-.38.11-.2.17-.13Z"/>
            <path class="cls-5" d="M17.22,9.68s-.09-.02-.12-.06c-.09-.11-.09-.31-.05-.47.04-.13.1-.21.18-.23.06-.02.12,0,.16.06.09.11.09.31.05.46-.04.13-.1.21-.18.23-.01,0-.02,0-.03,0ZM17.25,9.16s-.01.03-.02.05c-.02.09-.02.18,0,.24,0-.01.01-.03.02-.05.02-.09.02-.18,0-.24ZM17.3,9.05l-.08.06h0l.08-.06Z"/>
          </g>
        </g>
      </g>
      <g>
        <ellipse class="cls-6" cx="17.47" cy="8.69" rx=".35" ry="1.08" transform="translate(-2.01 7.69) rotate(-23.5)"/>
        <path class="cls-5" d="M17.85,9.69s-.05,0-.07-.01c-.19-.08-.45-.42-.63-.85-.19-.43-.26-.85-.19-1.04.02-.05.04-.08.08-.09.02,0,.03-.01.05-.01.08,0,.19.07.31.2.14.16.28.39.4.66.24.55.29,1.06.11,1.13-.02,0-.03.01-.05.01ZM17.09,7.69s-.03,0-.05,0c-.03.01-.06.04-.08.09-.08.19,0,.6.19,1.03s.44.77.63.84c.04.02.08.02.12,0,.17-.08.12-.58-.11-1.12h0c-.11-.26-.25-.5-.4-.66-.12-.13-.22-.2-.3-.2Z"/>
      </g>
      <g>
        <g>
          <ellipse class="cls-3" cx="17.17" cy="7.34" rx=".14" ry=".13"/>
          <path class="cls-5" d="M17.17,7.57c-.13,0-.24-.1-.24-.23s.11-.23.24-.23.24.1.24.23-.11.23-.24.23ZM17.17,7.31s-.04.01-.04.03c0,.02.09.02.09,0,0-.01-.02-.03-.04-.03Z"/>
        </g>
        <g>
          <ellipse class="cls-3" cx="17.16" cy="7.18" rx=".14" ry=".13"/>
          <path class="cls-5" d="M17.16,7.41c-.13,0-.24-.1-.24-.23s.11-.23.24-.23.24.1.24.23-.11.23-.24.23ZM17.16,7.16s-.04.02-.04.03c0,.03.09.03.09,0,0-.01-.02-.03-.04-.03Z"/>
        </g>
        <g>
          <circle class="cls-3" cx="16.95" cy="7.37" r=".14"/>
          <path class="cls-5" d="M16.95,7.61c-.13,0-.24-.11-.24-.23s.11-.23.24-.23.24.11.24.23-.11.23-.24.23ZM16.95,7.34s-.04.02-.04.04c0,.04.07.04.07,0,0-.02-.02-.04-.04-.04Z"/>
        </g>
        <g>
          <circle class="cls-3" cx="17" cy="7.2" r=".14"/>
          <path class="cls-5" d="M17,7.43c-.13,0-.24-.1-.24-.23s.11-.23.24-.23.24.1.24.23-.11.23-.24.23ZM17,7.17s-.04.01-.04.03c0,.04.07.04.07,0,0-.02-.02-.03-.04-.03Z"/>
        </g>
        <g>
          <ellipse class="cls-3" cx="16.77" cy="7.2" rx=".15" ry=".13"/>
          <path class="cls-5" d="M16.77,7.44c-.14,0-.25-.11-.25-.23s.11-.23.25-.23.25.11.25.23-.11.23-.25.23ZM16.77,7.17s-.05.02-.05.04c0,.03.11.03.11,0,0-.02-.02-.04-.05-.04Z"/>
        </g>
        <g>
          <ellipse class="cls-3" cx="17.05" cy="6.98" rx=".14" ry=".13"/>
          <path class="cls-5" d="M17.05,7.21c-.13,0-.24-.1-.24-.23s.11-.23.24-.23.24.1.24.23-.11.23-.24.23ZM17.05,6.95s-.04.01-.04.03c0,.02.09.02.09,0,0-.01-.02-.03-.04-.03Z"/>
        </g>
        <g>
          <circle class="cls-3" cx="16.86" cy="7.01" r=".14"/>
          <path class="cls-5" d="M16.86,7.24c-.13,0-.24-.1-.24-.23s.11-.23.24-.23.24.1.24.23-.11.23-.24.23ZM16.86,6.97s-.04.01-.04.03c0,.04.07.04.07,0,0-.02-.02-.03-.04-.03Z"/>
        </g>
        <g>
          <circle class="cls-3" cx="16.57" cy="7.21" r=".14"/>
          <path class="cls-5" d="M16.57,7.45c-.13,0-.24-.11-.24-.23s.11-.23.24-.23.24.1.24.23-.11.23-.24.23ZM16.57,7.18s-.04.02-.04.03c0,.04.07.04.07,0,0-.02-.02-.03-.04-.03Z"/>
        </g>
        <g>
          <circle class="cls-3" cx="16.62" cy="7.11" r=".14"/>
          <path class="cls-5" d="M16.62,7.34c-.13,0-.24-.1-.24-.23s.11-.23.24-.23.24.1.24.23-.11.23-.24.23ZM16.62,7.08s-.04.01-.04.03c0,.04.07.04.07,0,0-.02-.02-.03-.04-.03Z"/>
        </g>
        <g>
          <circle class="cls-3" cx="16.67" cy="7" r=".14"/>
          <path class="cls-5" d="M16.67,7.23c-.13,0-.24-.1-.24-.23s.11-.23.24-.23.24.1.24.23-.11.23-.24.23ZM16.67,6.97s-.04.01-.04.03c0,.04.07.04.07,0,0-.02-.02-.03-.04-.03Z"/>
        </g>
      </g>
      <g>
        <g>
          <ellipse class="cls-3" cx="17.57" cy="8.52" rx=".44" ry="1.28" transform="translate(-1.94 7.82) rotate(-23.8)"/>
          <path class="cls-5" d="M18.02,9.72s-.06,0-.1-.02c-.24-.09-.55-.49-.77-.99-.29-.65-.33-1.26-.11-1.36.05-.02.1-.02.17,0,.24.09.55.49.77.99h0c.29.65.33,1.26.11,1.36-.02,0-.05.01-.07.01ZM17.12,7.34s-.04,0-.07.01c-.22.1-.17.7.12,1.34.22.5.52.89.76.98.06.02.11.02.16,0,.22-.1.17-.7-.12-1.34h0c-.22-.5-.52-.89-.76-.98-.03-.01-.06-.02-.09-.02Z"/>
        </g>
        <g>
          <ellipse class="cls-3" cx="17.94" cy="8.73" rx=".09" ry=".27" transform="translate(-2 7.98) rotate(-23.8)"/>
          <path class="cls-5" d="M18.04,8.98c-.06,0-.13-.11-.18-.22-.05-.11-.07-.22-.05-.26,0-.01.01-.02.02-.03,0,0,0,0,.01,0,.05,0,.13.11.18.22h0c.05.12.08.27.03.29,0,0-.01,0-.02,0ZM17.84,8.49s0,0,0,0c0,0,0,0-.01.02-.02.04,0,.15.05.25.06.13.13.21.17.21,0,0,0,0,0,0,.03-.01.03-.13-.04-.27h0c-.06-.13-.13-.21-.17-.21Z"/>
        </g>
      </g>
      <g>
        <path class="cls-3" d="M17.9,8.73c.36.44.32.72.28.96l-.51-.55v-.55l.23.14Z"/>
        <path class="cls-5" d="M18.19,9.7h-.01s-.51-.57-.51-.57v-.57h.01s.24.15.24.15c.36.44.32.73.28.96v.02ZM17.67,9.13l.5.54c.04-.24.07-.51-.28-.93l-.22-.14v.54Z"/>
      </g>
      <g>
        <path class="cls-3" d="M17.93,9.08c.36.44.32.72.28.96l-.7-1.08v-.73c.05.14.05.4.42.85Z"/>
        <path class="cls-5" d="M18.22,10.06v-.02s-.71-1.08-.71-1.08v-.77s.01.04.01.04c.01.03.02.07.03.11.04.16.1.39.38.74h0c.36.44.32.73.28.96v.02ZM17.52,8.29v.67l.68,1.06c.04-.24.07-.51-.28-.93h0c-.29-.35-.35-.58-.39-.74,0-.02,0-.04-.02-.06Z"/>
      </g>
      <g>
        <path class="cls-3" d="M17.94,9.37c.37.43.33.72.3.95-.12-.27-.18-.44-.56-.88-.37-.43-.2-.75-.17-.91.06.14.06.4.43.84Z"/>
        <path class="cls-5" d="M18.25,10.35v-.02s-.03-.03-.03-.03c-.11-.25-.19-.43-.54-.84-.31-.37-.24-.64-.2-.83,0-.04.02-.07.02-.09v-.03s.02.03.02.03c.01.03.02.07.04.11.04.15.11.39.4.72h0c.37.43.33.72.3.96v.03ZM17.51,8.57s0,.04-.02.07c-.04.18-.11.45.19.81.36.42.44.6.54.85h0c.03-.23.05-.5-.3-.91h0c-.29-.34-.36-.58-.4-.73,0-.03-.02-.06-.02-.08Z"/>
      </g>
      <g>
        <ellipse class="cls-3" cx="17.69" cy="8.31" rx=".16" ry=".48" transform="translate(-1.85 8.25) rotate(-25)"/>
        <path class="cls-5" d="M17.86,8.75s-.02,0-.03,0c-.09-.03-.21-.18-.29-.37-.09-.19-.13-.38-.09-.46,0-.02.02-.04.04-.05.08-.04.24.12.35.37h0c.09.19.13.38.09.46,0,.02-.02.04-.04.05,0,0-.02,0-.03,0ZM17.51,7.88s-.01,0-.02,0c-.01,0-.02.02-.03.04-.03.08,0,.27.09.45.09.19.2.33.28.36.02,0,.04,0,.05,0,.01,0,.02-.02.03-.04.03-.08,0-.26-.09-.45h0c-.1-.21-.23-.37-.31-.37Z"/>
      </g>
      <g>
        <ellipse class="cls-3" cx="17.54" cy="8.55" rx=".14" ry=".39" transform="translate(-1.97 7.98) rotate(-24.3)"/>
        <path class="cls-5" d="M17.68,8.92s-.08-.02-.12-.07c-.05-.06-.11-.14-.15-.24-.09-.2-.11-.39-.03-.42,0,0,.02,0,.03,0,.08,0,.19.13.27.31h0c.09.21.11.39.03.43,0,0-.02,0-.02,0ZM17.4,8.2s-.01,0-.02,0c-.06.03-.04.21.04.4.04.09.1.18.15.23.05.05.1.08.13.06.06-.03.04-.21-.04-.4h0c-.08-.17-.19-.3-.26-.3Z"/>
      </g>
      <g>
        <ellipse class="cls-3" cx="17.37" cy="8.72" rx=".14" ry=".39" transform="translate(-2.03 7.55) rotate(-23.2)"/>
        <path class="cls-5" d="M17.5,9.09c-.08,0-.19-.13-.27-.32-.07-.16-.09-.31-.06-.38,0-.02.02-.04.04-.04.01,0,.03,0,.06,0,.07.03.17.15.24.31h0c.04.1.07.19.07.27,0,.08-.01.14-.05.15,0,0-.01,0-.02,0ZM17.23,8.37s-.01,0-.02,0c-.01,0-.02.02-.03.03-.03.07,0,.22.06.37.08.17.19.31.25.31,0,0,.01,0,.02,0,.03-.01.04-.06.04-.14,0-.08-.03-.17-.07-.27h0c-.06-.15-.16-.27-.23-.3,0,0-.02,0-.03,0Z"/>
      </g>
      <g>
        <ellipse class="cls-3" cx="17.51" cy="8.12" rx=".11" ry=".3" transform="translate(-1.76 9.17) rotate(-28)"/>
        <path class="cls-5" d="M17.63,8.39c-.06,0-.15-.09-.22-.22-.06-.12-.09-.23-.07-.29,0-.02.01-.03.03-.04.01,0,.03,0,.05,0,.06.02.14.1.2.22.08.15.1.3.04.33,0,0-.02,0-.02,0ZM17.39,7.85s-.01,0-.02,0c0,0-.02.01-.02.03-.02.06.01.17.07.28.08.16.19.24.23.21.04-.02.03-.15-.05-.3-.06-.11-.14-.19-.19-.21,0,0-.01,0-.02,0Z"/>
      </g>
      <g>
        <ellipse class="cls-3" cx="17.37" cy="8.23" rx=".11" ry=".3" transform="translate(-1.85 7.91) rotate(-24.4)"/>
        <path class="cls-5" d="M17.47,8.51s-.02,0-.03,0c-.06-.02-.13-.11-.19-.23-.05-.12-.07-.24-.05-.29,0-.02.02-.03.03-.04.01,0,.03,0,.05,0,.06.02.13.11.19.23h0c.05.12.07.23.05.29,0,.02-.02.03-.03.04,0,0-.01,0-.02,0ZM17.26,7.96s-.01,0-.01,0c0,0-.02.01-.02.03-.02.05,0,.17.05.28.05.11.12.2.18.22.01,0,.03,0,.03,0,0,0,.02-.01.02-.03.02-.05,0-.17-.05-.28h0c-.05-.11-.12-.2-.18-.22,0,0-.01,0-.02,0Z"/>
      </g>
      <g>
        <path class="cls-5" d="M18.05,10.56c-.08,0-.15-.07-.15-.15s.07-.15.15-.15c0,0,0,0,0,0s0,0,0,0c-.07,0-.13.06-.13.13s.06.13.13.13c0,0,0,0,0,0s0,0,0,0Z"/>
        <g>
          <path class="cls-3" d="M17.06,8.16c.11.26.24.45.29.42.05-.03,0-.26-.1-.53"/>
          <path class="cls-5" d="M17.34,8.59s0,0-.02,0c-.07-.02-.18-.2-.27-.43,0,0,0,0,0-.01,0,0,0,0,.01,0,.09.22.2.4.26.42,0,0,.01,0,.02,0,.04-.02.01-.24-.1-.52,0,0,0,0,0-.01,0,0,0,0,.01,0,.1.23.16.5.09.54,0,0,0,0-.02,0Z"/>
        </g>
        <g>
          <ellipse class="cls-3" cx="17.35" cy="7.92" rx=".11" ry=".3" transform="translate(-1.72 7.87) rotate(-24.4)"/>
          <path class="cls-5" d="M17.45,8.2c-.06,0-.15-.1-.21-.24-.05-.12-.07-.24-.05-.29,0-.02.02-.03.03-.04,0,0,.01,0,.02,0,.06,0,.15.1.21.24h0c.07.16.08.3.02.33,0,0-.01,0-.02,0ZM17.24,7.65s0,0-.01,0c0,0-.02.01-.02.03-.02.05,0,.17.05.28.07.16.17.24.21.22.04-.02.04-.15-.03-.31h0c-.06-.14-.15-.23-.2-.23Z"/>
        </g>
        <g>
          <ellipse class="cls-3" cx="17.17" cy="8.01" rx=".11" ry=".3" transform="translate(-1.77 7.41) rotate(-23.2)"/>
          <path class="cls-5" d="M17.27,8.29c-.06,0-.15-.1-.21-.24-.03-.07-.05-.15-.05-.21,0-.06.01-.11.04-.12.01,0,.03,0,.05,0,.06.02.13.12.18.24h0c.05.12.07.24.05.29,0,.02-.02.03-.03.04,0,0-.01,0-.02,0ZM17.07,7.74s0,0-.01,0c-.02,0-.03.05-.03.1,0,.06.02.13.05.21.06.15.15.23.19.23,0,0,0,0,.01,0,0,0,.02-.01.02-.03.02-.05,0-.17-.05-.28h0c-.05-.11-.12-.2-.17-.23,0,0-.01,0-.02,0Z"/>
        </g>
        <g>
          <path class="cls-3" d="M16.94,7.8c.11.18.22.3.25.27s-.02-.19-.13-.37"/>
          <path class="cls-5" d="M17.18,8.08s0,0,0,0c-.05,0-.15-.12-.24-.28,0,0,0,0,0-.01,0,0,0,0,.01,0,.1.17.19.26.23.27,0,0,0,0,.01,0,.03-.02-.02-.17-.13-.36,0,0,0,0,0-.01,0,0,0,0,.01,0,.1.16.17.35.12.38,0,0,0,0-.02,0Z"/>
        </g>
        <g>
          <path class="cls-3" d="M17.01,7.68c.09.17.2.29.25.28s0-.16-.09-.32"/>
          <path class="cls-5" d="M17.25,7.96c-.06,0-.17-.14-.25-.28,0,0,0,0,0-.01,0,0,0,0,.01,0,.09.17.19.27.23.27,0,0,0,0,.01,0,.01-.04-.02-.15-.1-.3,0,0,0,0,0-.01,0,0,0,0,.01,0,.08.14.12.27.11.32,0,.01-.01.02-.02.02,0,0,0,0,0,0Z"/>
        </g>
        <g>
          <path class="cls-3" d="M17.28,7.74c.15.24.3.41.35.37.05-.04-.03-.26-.17-.5"/>
          <path class="cls-5" d="M17.62,8.13s0,0,0,0c-.07-.01-.21-.17-.33-.38,0,0,0,0,0-.01,0,0,0,0,.01,0,.12.2.26.36.32.37.01,0,.01,0,.02,0,.04-.03-.02-.24-.18-.49,0,0,0,0,0-.01,0,0,0,0,.01,0,.13.21.23.47.17.51,0,0-.01,0-.02,0Z"/>
        </g>
        <g>
          <path class="cls-3" d="M17.12,7.59c.1.19.21.32.25.3.04-.02,0-.19-.1-.37,0-.01-.01-.03-.02-.04"/>
          <path class="cls-5" d="M17.36,7.9c-.06,0-.17-.15-.25-.31,0,0,0,0,0-.01,0,0,0,0,.01,0,.1.19.2.3.23.3,0,0,.01,0,.01-.01.01-.04-.02-.17-.11-.35l-.02-.04s0,0,0-.01c0,0,0,0,.01,0l.02.04c.08.16.13.31.12.36,0,0,0,.02-.02.02,0,0,0,0-.01,0Z"/>
        </g>
      </g>
      <g>
        <g id="n">
          <path class="cls-7" d="M17.24,7.2c-.07.07,0,.2.06.25.07.06.47.49.76.13-.23,0-.65-.54-.82-.38Z"/>
          <path class="cls-5" d="M17.8,7.73c-.2,0-.39-.17-.47-.25-.01-.01-.02-.02-.03-.02-.04-.04-.09-.11-.1-.18,0-.04,0-.06.03-.09h0c.1-.09.28.04.46.18.13.1.27.2.36.2h.02,0c-.07.1-.15.15-.25.16,0,0-.02,0-.03,0ZM17.24,7.2s-.03.04-.03.07c0,.06.05.13.09.17,0,0,.02.01.03.02.08.08.27.25.46.25,0,0,.02,0,.02,0,.08,0,.16-.05.22-.12-.1-.01-.22-.11-.36-.21-.17-.13-.35-.26-.44-.18Z"/>
        </g>
        <g id="n-2" data-name="n">
          <path class="cls-7" d="M17.19,6.99c-.07.07,0,.2.06.25.07.06.47.49.76.13-.23,0-.65-.54-.82-.38Z"/>
          <path class="cls-5" d="M17.74,7.52c-.2,0-.39-.17-.47-.25-.01-.01-.02-.02-.03-.02-.04-.04-.09-.11-.09-.18,0-.03,0-.06.03-.09h0s.05-.03.08-.03c.1,0,.25.11.38.21.13.1.27.2.36.2h.02,0c-.07.1-.15.15-.25.16,0,0-.02,0-.03,0ZM17.19,6.99s-.03.04-.03.08c0,.06.05.13.09.16,0,0,.02.01.03.02.08.08.27.25.46.25,0,0,.02,0,.03,0,.08,0,.16-.05.22-.12-.1-.01-.22-.11-.36-.21-.13-.1-.27-.2-.37-.2-.03,0-.05,0-.07.03Z"/>
        </g>
        <g id="n-3" data-name="n">
          <path class="cls-7" d="M17.12,6.79c-.07.07,0,.2.06.25.07.06.47.49.76.13-.23,0-.65-.54-.82-.38Z"/>
          <path class="cls-5" d="M17.68,7.32c-.2,0-.39-.17-.47-.25-.01-.01-.02-.02-.03-.02-.04-.04-.09-.11-.1-.18,0-.04,0-.06.03-.09h0c.1-.09.29.04.46.18.13.1.27.2.36.2h.02,0c-.07.1-.15.15-.25.16,0,0-.02,0-.03,0ZM17.13,6.79s-.03.04-.03.07c0,.06.05.13.09.17,0,0,.02.01.03.02.08.08.27.25.46.25,0,0,.02,0,.02,0,.08,0,.16-.05.22-.12-.1-.01-.22-.11-.36-.21-.14-.1-.27-.21-.37-.21-.03,0-.05,0-.07.03Z"/>
        </g>
        <g id="n-4" data-name="n">
          <path class="cls-7" d="M16.98,6.56c-.07.07,0,.2.06.25.07.06.47.49.76.13-.23,0-.65-.54-.82-.38Z"/>
          <path class="cls-5" d="M17.54,7.09c-.2,0-.39-.17-.47-.25-.01-.01-.02-.02-.03-.02-.04-.04-.09-.11-.09-.18,0-.04,0-.06.03-.09h0c.1-.09.29.05.46.18.13.1.27.2.36.2h.02,0c-.07.1-.15.15-.24.16,0,0-.02,0-.03,0ZM16.99,6.56s-.03.04-.03.07c0,.06.05.13.09.17,0,0,.02.01.03.02.08.08.27.25.46.25,0,0,.02,0,.02,0,.08,0,.16-.05.22-.12-.1-.01-.22-.11-.36-.21-.17-.13-.35-.26-.44-.18Z"/>
        </g>
        <g>
          <path class="cls-7" d="M16.49,6.34c.14-.11.41-.14.61-.04.17.09.46.43.67.51-.15.03-.24,0-.34-.04-.19.14-.26.16-.45.19-.27.04-.5-.03-.58-.17-.08-.13-.04-.35.08-.45Z"/>
          <path class="cls-5" d="M16.84,6.98c-.21,0-.37-.07-.44-.19-.08-.14-.04-.36.08-.46h0c.16-.12.43-.13.62-.04.08.04.18.13.28.22.13.12.27.24.39.29h.03s-.03.02-.03.02c-.15.03-.25,0-.34-.04-.19.13-.26.16-.45.18-.05,0-.1.01-.14.01ZM16.5,6.34c-.12.1-.16.3-.08.44.08.14.3.21.57.17.19-.03.26-.05.45-.19h0s0,0,0,0c.09.04.18.07.31.05-.11-.05-.24-.17-.37-.28-.1-.09-.2-.18-.28-.22-.21-.11-.47-.07-.61.03Z"/>
        </g>
      </g>
      <g>
        <g>
          <ellipse class="cls-6" cx="16.8" cy="6.55" rx=".13" ry=".07"/>
          <path class="cls-5" d="M16.8,6.72c-.13,0-.23-.07-.23-.17s.1-.17.23-.17.23.07.23.17-.1.17-.23.17Z"/>
        </g>
        <ellipse class="cls-5" cx="16.79" cy="6.55" rx=".04" ry=".04"/>
      </g>
      <g>
        <g>
          <ellipse class="cls-1" cx="16.42" cy="6.84" rx=".17" ry=".11" transform="translate(-1.35 6.15) rotate(-20.4)"/>
          <path class="cls-5" d="M16.37,6.97c-.06,0-.1-.02-.12-.06-.02-.06.04-.14.13-.17.06-.02.12-.02.16,0,.02.01.04.03.05.05h0s0,.04,0,.07c-.02.04-.07.08-.12.1-.03.01-.06.02-.09.02ZM16.47,6.73s-.06,0-.08.02c-.08.03-.14.1-.12.15.02.05.11.07.19.04.05-.02.1-.06.12-.09,0-.02,0-.04,0-.05h0s-.02-.03-.04-.04c-.02,0-.04-.01-.06-.01Z"/>
        </g>
        <g>
          <path class="cls-1" d="M16.52,6.65c.01.05-.03.13-.12.16-.09.04-.16.12-.2.26-.14-.32-.05-.45.1-.48.13-.04.2-.04.22.07Z"/>
          <path class="cls-5" d="M16.21,7.09v-.02c-.08-.17-.1-.3-.05-.39.03-.05.08-.09.15-.11.09-.03.14-.03.18,0,.03.02.04.04.05.08h0c.01.06-.03.14-.12.17-.09.04-.15.12-.19.26v.02ZM16.42,6.57s-.07,0-.11.02c-.07.01-.11.05-.14.1-.04.08-.03.2.04.35.04-.13.11-.21.2-.25.08-.02.12-.1.11-.15h0s-.02-.06-.04-.07c-.01,0-.03-.01-.05-.01Z"/>
        </g>
      </g>
      <circle class="cls-5" cx="16.39" cy="6.72" r=".03"/>
    </g>
  </g>
</svg>