<?xml version="1.0" encoding="UTF-8"?>
<svg id="Layer_2" data-name="Layer 2" xmlns="http://www.w3.org/2000/svg" viewBox="0 0 28.35 17.01">
  <defs>
    <style>
      .cls-1 {
        fill: #ce2028;
      }

      .cls-2 {
        fill: #077b5f;
      }

      .cls-3 {
        fill: #fbd118;
      }
    </style>
  </defs>
  <g id="Layer_1-2" data-name="Layer 1">
    <g>
      <path class="cls-1" d="M0,0h28.35v17.01H0V0Z"/>
      <path class="cls-2" d="M2.38,2.38h23.58v12.25H2.38V2.38Z"/>
      <path class="cls-3" d="M2.38,2.38h23.58L2.38,14.63h23.58L2.38,2.38Z"/>
      <circle class="cls-1" cx="14.17" cy="8.5" r="2.04"/>
      <path class="cls-1" d="M3.85,8.51c.24.48.72,1.01,1.15,1.21.02-.48-.13-1.11-.35-1.61l-.8.4Z"/>
      <path class="cls-3" d="M3.42,6.89c.36.78-.99,2.6,1.22,3.06-.27-.38-.42-1.01-.34-1.5.46.2.92.65,1.1,1.08.76-2.13-1.5-1.92-1.97-2.64Z"/>
      <path id="a" class="cls-3" d="M8.5,14.71L8.75,15.47L9.55,15.47L8.9,15.94L9.15,16.71L8.5,16.24L7.85,16.71L8.1,15.94L7.45,15.47L8.25,15.47Z"/>
      <path id="a-2" data-name="a" class="cls-3" d="M14.17,14.71L14.42,15.47L15.22,15.47L14.57,15.94L14.82,16.71L14.17,16.24L13.52,16.71L13.77,15.94L13.12,15.47L13.92,15.47Z"/>
      <path id="a-3" data-name="a" class="cls-3" d="M19.84,14.71L20.09,15.47L20.89,15.47L20.24,15.94L20.49,16.71L19.84,16.24L19.19,16.71L19.44,15.94L18.79,15.47L19.59,15.47Z"/>
      <path id="a-4" data-name="a" class="cls-3" d="M19.84,0.09L20.09,0.85L20.89,0.85L20.24,1.32L20.49,2.09L19.84,1.62L19.19,2.09L19.44,1.32L18.79,0.85L19.59,0.85Z"/>
      <path id="a-5" data-name="a" class="cls-3" d="M14.17,0.09L14.42,0.85L15.22,0.85L14.57,1.32L14.82,2.09L14.17,1.62L13.52,2.09L13.77,1.32L13.12,0.85L13.92,0.85Z"/>
      <path id="a-6" data-name="a" class="cls-3" d="M8.5,0.09L8.75,0.85L9.55,0.85L8.9,1.32L9.15,2.09L8.5,1.62L7.85,2.09L8.1,1.32L7.45,0.85L8.25,0.85Z"/>
      <path class="cls-3" d="M14.17,6.63L14.59,7.92L15.95,7.92L14.85,8.72L15.27,10.01L14.17,9.21L13.07,10.01L13.49,8.72L12.39,7.92L13.75,7.92Z"/>
    </g>
  </g>
</svg>