<?xml version="1.0" encoding="UTF-8"?>
<svg id="Layer_2" data-name="Layer 2" xmlns="http://www.w3.org/2000/svg" viewBox="0 0 28.35 17.01">
  <defs>
    <style>
      .cls-1, .cls-2, .cls-3, .cls-4, .cls-5, .cls-6, .cls-7, .cls-8, .cls-9, .cls-10, .cls-11, .cls-12, .cls-13, .cls-14, .cls-15, .cls-16, .cls-17, .cls-18, .cls-19, .cls-20, .cls-21, .cls-22, .cls-23, .cls-24, .cls-25, .cls-26, .cls-27, .cls-28, .cls-29, .cls-30, .cls-31, .cls-32, .cls-33, .cls-34, .cls-35, .cls-36, .cls-37 {
        stroke-miterlimit: 10.9;
      }

      .cls-1, .cls-3, .cls-14, .cls-27, .cls-29 {
        stroke-width: .01px;
      }

      .cls-1, .cls-6, .cls-38, .cls-7, .cls-39, .cls-10, .cls-11, .cls-12, .cls-13, .cls-40, .cls-15, .cls-16, .cls-17, .cls-18, .cls-41, .cls-19, .cls-42, .cls-20, .cls-21, .cls-43, .cls-22, .cls-44, .cls-27, .cls-45, .cls-29, .cls-46, .cls-33, .cls-34, .cls-35, .cls-47, .cls-37, .cls-48 {
        stroke: #312e2b;
      }

      .cls-1, .cls-33, .cls-37 {
        fill: #826b2e;
      }

      .cls-2, .cls-8, .cls-19, .cls-28, .cls-34, .cls-37 {
        stroke-width: .01px;
      }

      .cls-2, .cls-10, .cls-11, .cls-14, .cls-15, .cls-30, .cls-49, .cls-35 {
        fill: #b21f31;
      }

      .cls-2, .cls-14, .cls-30 {
        stroke: #b21f31;
      }

      .cls-3, .cls-8, .cls-28, .cls-32 {
        stroke: #243c7e;
      }

      .cls-3, .cls-50, .cls-28, .cls-32 {
        fill: #224093;
      }

      .cls-4 {
        stroke: #fff;
      }

      .cls-4, .cls-38, .cls-51, .cls-42 {
        fill: #fff;
      }

      .cls-4, .cls-11, .cls-18, .cls-24 {
        stroke-width: 0px;
      }

      .cls-5 {
        stroke-width: .01px;
      }

      .cls-5, .cls-52, .cls-53, .cls-54, .cls-25, .cls-26, .cls-31, .cls-55 {
        stroke: #010101;
      }

      .cls-5, .cls-13, .cls-22, .cls-44, .cls-25, .cls-26, .cls-31, .cls-47 {
        fill: #8e5c24;
      }

      .cls-6, .cls-9, .cls-41, .cls-23, .cls-45, .cls-36 {
        fill: #7f8080;
      }

      .cls-6, .cls-31 {
        stroke-width: .01px;
      }

      .cls-38, .cls-39, .cls-41 {
        stroke-miterlimit: 10.91;
        stroke-width: 0px;
      }

      .cls-7, .cls-17, .cls-19, .cls-56, .cls-29, .cls-57, .cls-58, .cls-48 {
        fill: none;
      }

      .cls-7, .cls-25 {
        stroke-width: .01px;
      }

      .cls-8, .cls-59, .cls-16, .cls-20, .cls-21 {
        fill: #243c7e;
      }

      .cls-9, .cls-13, .cls-36 {
        stroke-width: .01px;
      }

      .cls-9, .cls-23 {
        stroke: #565656;
      }

      .cls-39, .cls-43 {
        fill: #5b391a;
      }

      .cls-10, .cls-20 {
        stroke-width: .01px;
      }

      .cls-12, .cls-60, .cls-27, .cls-61, .cls-34, .cls-55 {
        fill: #c19c2e;
      }

      .cls-12, .cls-17, .cls-30, .cls-32, .cls-33 {
        stroke-width: 0px;
      }

      .cls-60 {
        stroke-width: 0px;
      }

      .cls-60, .cls-40, .cls-56, .cls-44, .cls-62, .cls-63, .cls-57, .cls-58, .cls-48 {
        stroke-miterlimit: 10.91;
      }

      .cls-60, .cls-61 {
        stroke: #8e5c24;
      }

      .cls-52 {
        fill: #1a1a1a;
        stroke-miterlimit: 5.5;
        stroke-width: 0px;
      }

      .cls-40, .cls-53, .cls-64, .cls-54 {
        fill: #d31f36;
      }

      .cls-40, .cls-56, .cls-44, .cls-62, .cls-48 {
        stroke-width: 0px;
      }

      .cls-15, .cls-16 {
        stroke-width: 0px;
      }

      .cls-18 {
        fill: #312e2b;
      }

      .cls-53 {
        stroke-width: .02px;
      }

      .cls-53, .cls-54 {
        stroke-miterlimit: 12.9;
      }

      .cls-42, .cls-43, .cls-45 {
        stroke-miterlimit: 10.91;
        stroke-width: 0px;
      }

      .cls-21, .cls-35 {
        stroke-width: .01px;
      }

      .cls-65 {
        fill: #cb7929;
      }

      .cls-22 {
        stroke-width: .01px;
      }

      .cls-56, .cls-62, .cls-63, .cls-57, .cls-58 {
        stroke: #38793c;
      }

      .cls-23 {
        stroke-width: .01px;
      }

      .cls-24 {
        fill: #f5e103;
        stroke: #826b2e;
      }

      .cls-54 {
        stroke-width: .02px;
      }

      .cls-26 {
        stroke-width: .01px;
      }

      .cls-62, .cls-63, .cls-66 {
        fill: #379445;
      }

      .cls-67 {
        fill: #404040;
      }

      .cls-63, .cls-58 {
        stroke-width: .01px;
      }

      .cls-57 {
        stroke-width: .01px;
      }

      .cls-61 {
        stroke-miterlimit: 4.36;
        stroke-width: 0px;
      }

      .cls-46 {
        fill: #8e5a32;
      }

      .cls-46, .cls-47 {
        stroke-miterlimit: 4.36;
        stroke-width: 0px;
      }

      .cls-36 {
        stroke: #555554;
      }

      .cls-55 {
        stroke-miterlimit: 4.36;
        stroke-width: .02px;
      }
    </style>
  </defs>
  <g id="Layer_1-2" data-name="Layer 1">
    <g>
      <path class="cls-64" d="M0,0h28.35v17.01H0V0Z"/>
      <path class="cls-50" d="M0,0h28.35v8.5H0V0Z"/>
      <g>
        <path class="cls-51" d="M10.63,4.89h7.09v7.23h-7.09v-7.23Z"/>
        <g>
          <path class="cls-55" d="M10.9,9.24l.04-.09,1.31.67-.04.09-1.31-.67Z"/>
          <path class="cls-55" d="M17.45,9.22l-.04-.09-1.31.67.04.09,1.31-.67Z"/>
          <g>
            <g>
              <path class="cls-8" d="M11.97,9.01s.15.57.37.95c0,0-.36-.29-.37-.95Z"/>
              <path class="cls-3" d="M11.44,8.46s-.27,2.84,2.4,2.36v-.24s.07-.35.07-.35l-2.47-1.77Z"/>
            </g>
            <path class="cls-14" d="M12.39,9.2s-.12.3.07.74c0,0,.27.87,1.38.69l.1-.35-1.56-1.08Z"/>
          </g>
          <path class="cls-49" d="M11.37,8.44s-.14.25-.08.47c0,0-.08-.04-.12-.08,0,0-.05.06-.08.08,0,0-.04-.29.15-.41,0,0-.15.03-.32.3,0,0-.01-.02-.03-.08,0,0-.06,0-.1.02,0,0,.07-.22.33-.27,0,0,.09-.03.14-.04,0,0,.03,0,.05-.04l.05.04Z"/>
          <path class="cls-59" d="M11.34,8.43s.03.03-.09.09c0,0-.15.03-.32.3,0,0-.01-.02-.03-.08,0,0-.06,0-.1.02,0,0,.07-.22.33-.27,0,0,.09-.03.14-.04,0,0,.03,0,.05-.04l.03.02Z"/>
          <path class="cls-1" d="M11.37,8.33l2.7,1.96-.07.09-2.7-1.96.07-.09Z"/>
          <g>
            <path class="cls-42" d="M14.22,9.09l-.56-.78-.04.03.54.79.06-.04Z"/>
            <g>
              <path class="cls-43" d="M14.25,9.18l-.61-.85-.04.03.6.88.05-.06Z"/>
              <path class="cls-43" d="M13.91,8.68s.02-.01.03,0l.02.02s.01.01,0,.02l-.06.04s-.01,0-.02,0l-.02-.03s0-.01,0-.02l.06-.04h0Z"/>
            </g>
            <g>
              <path class="cls-45" d="M13.58,8.26l-.1-.14h.01s.1.14.1.14h0s.02.03.02.03h-.02s-.02-.02-.02-.02h0Z"/>
              <path class="cls-45" d="M13.58,8.29l.03.05s.04-.03.04-.03v-.09s0-.03,0-.03h0s-.28-.38-.28-.38l.24.39v.02s.03.02.02.04c0,0-.01.01-.04.02h0Z"/>
            </g>
          </g>
          <g>
            <path class="cls-38" d="M14.11,9.14l.52-.81.04.02-.49.82-.06-.04Z"/>
            <g>
              <path class="cls-39" d="M14.13,9.16l.52-.81.04.02-.49.82-.06-.04Z"/>
              <path class="cls-39" d="M14.39,8.71s-.02-.01-.03,0l-.02.02s-.01.01,0,.02l.07.04s.01,0,.02,0l.02-.03s0-.01,0-.02l-.06-.04h0Z"/>
            </g>
            <g>
              <path class="cls-41" d="M14.69,8.27l.09-.15h-.01s-.09.14-.09.14h0s-.02.03-.02.03h.02s.02-.02.02-.02h0Z"/>
              <path class="cls-41" d="M14.7,8.3l-.03.05s-.04-.02-.04-.02v-.09s0-.03,0-.03h0s.26-.39.26-.39l-.22.41v.02s-.03.02-.01.04c0,0,.01.01.04.02h0Z"/>
            </g>
          </g>
          <g>
            <g>
              <path class="cls-27" d="M11.09,8.38l.2-.03-.04-.2-.49-.19.33.41Z"/>
              <path class="cls-29" d="M10.76,7.97l.53.38"/>
            </g>
            <g>
              <path class="cls-10" d="M11.35,8.26s-.04-.03-.07,0l-.07.1s-.03.04.01.07c0,0,.05.05.08,0,0,0,.04-.06.08-.11,0,0,.04-.03-.03-.07Z"/>
              <path class="cls-20" d="M11.36,8.27s-.04.06-.04.06c-.05.03-.07.07-.07.07,0,0-.02.04-.03.04-.01,0-.05-.03-.02-.07s.02-.02.07-.09c0,0,.03-.05.09,0Z"/>
            </g>
            <path class="cls-29" d="M11.3,8.5s-.05.08-.06.13M11.22,8.49s-.06,0-.11.04"/>
            <g>
              <path class="cls-28" d="M11.93,7.93s-.64,3.07,2.04,2.95v-.56s-.11-.56-.11-.56l-1.93-1.83Z"/>
              <path class="cls-2" d="M12.76,8.78s-.15.28-.02.73c0,0,.37,1.19,1.21,1.01l.13-.59-1.31-1.16Z"/>
            </g>
          </g>
          <path class="cls-49" d="M11.86,7.9s-.17.23-.14.46c0,0-.07-.05-.1-.09,0,0-.05.05-.08.07,0,0,0-.29.2-.38,0,0-.16.01-.35.26,0,0-.01-.02-.02-.09,0,0-.06,0-.1,0,0,0,.09-.2.36-.22,0,0,.1-.01.14-.02,0,0,.03,0,.05-.03l.05.04Z"/>
          <path class="cls-59" d="M11.84,7.88s.03.03-.1.07c0,0-.16.01-.35.26,0,0-.01-.02-.02-.09,0,0-.06,0-.1,0,0,0,.09-.2.36-.22,0,0,.1-.01.14-.02,0,0,.03,0,.05-.03l.02.02Z"/>
          <g>
            <g>
              <path class="cls-37" d="M14.03,9.99l.08-.08-2.24-2.12-.08.08,2.24,2.12Z"/>
              <path class="cls-34" d="M11.6,7.81h.2s-.01-.2-.01-.2l-.46-.25.27.45Z"/>
              <path class="cls-19" d="M11.33,7.36l.47.45"/>
            </g>
            <g>
              <path class="cls-35" d="M11.87,7.72s-.03-.03-.07,0l-.08.09s-.04.03,0,.07c0,0,.05.05.08.02,0,0,.05-.05.09-.1,0,0,.04-.03-.02-.08h0Z"/>
              <path class="cls-21" d="M11.88,7.73s-.05.06-.05.06c-.05.03-.08.06-.08.06,0,0-.03.04-.03.03-.01-.01-.04-.04,0-.08s.02-.02.08-.08c0,0,.03-.05.09,0h0Z"/>
            </g>
            <path class="cls-19" d="M11.79,7.95s-.06.07-.08.12M11.71,7.93s-.06,0-.11.02"/>
            <g>
              <path class="cls-32" d="M12.51,7.61s-.95,2.72,1.51,2.93l.06-.51-.03-.52-1.54-1.9Z"/>
              <path class="cls-30" d="M13.16,8.48s-.17.24-.11.67c0,0,.19,1.13.98,1.07v-.75s-.87-.98-.87-.98Z"/>
            </g>
          </g>
          <path class="cls-49" d="M12.44,7.58s-.18.19-.18.4c0,0-.06-.06-.08-.1,0,0-.06.04-.09.06,0,0,.03-.26.23-.32,0,0-.14,0-.35.19,0,0,0-.02,0-.08,0,0-.05-.01-.09,0,0,0,.11-.17.35-.16,0,0,.09,0,.13,0,0,0,.02.01.05-.02l.04.05Z"/>
          <path class="cls-59" d="M12.42,7.55s.02.03-.1.05c0,0-.14,0-.35.19,0,0,0-.02,0-.08,0,0-.05-.01-.09,0,0,0,.11-.17.35-.16,0,0,.09,0,.13,0,0,0,.02.01.05-.02l.02.02Z"/>
          <g>
            <g>
              <g>
                <path class="cls-33" d="M14.17,9.58l-1.7-2.1-.08.07,1.7,2.1.08-.07"/>
                <path class="cls-12" d="M12.21,7.45l.19.02v-.18s-.38-.28-.38-.28l.19.44Z"/>
                <path class="cls-17" d="M12.02,7.01l.38.46"/>
              </g>
              <g>
                <path class="cls-15" d="M12.47,7.41s-.03-.03-.06,0l-.09.07s-.04.02,0,.06c0,0,.03.05.07.03,0,0,.05-.04.1-.08,0,0,.04-.02-.01-.07h0Z"/>
                <path class="cls-16" d="M12.48,7.42s-.05.05-.05.05c-.05.02-.08.05-.08.05,0,0-.03.03-.03.03,0-.01-.04-.04,0-.07s.02-.02.08-.06c0,0,.04-.04.08.01h0Z"/>
              </g>
              <path class="cls-17" d="M12.37,7.6s-.06.06-.09.1M12.3,7.58s-.05,0-.1,0"/>
            </g>
            <g>
              <path class="cls-8" d="M16.38,9s-.15.57-.37.95c0,0,.36-.29.37-.95Z"/>
              <path class="cls-3" d="M16.91,8.46s.27,2.84-2.4,2.36v-.24s-.07-.35-.07-.35l2.47-1.77Z"/>
            </g>
            <path class="cls-14" d="M15.97,9.19s.11.3-.07.74c0,0-.27.87-1.38.69l-.1-.35,1.56-1.08Z"/>
          </g>
          <path class="cls-49" d="M16.98,8.44s.14.25.08.47c0,0,.08-.04.12-.08,0,0,.05.06.08.08,0,0,.04-.29-.15-.41,0,0,.15.03.32.3,0,0,.01-.02.03-.08,0,0,.06,0,.1.02,0,0-.07-.22-.33-.27,0,0-.09-.03-.14-.04,0,0-.03,0-.05-.04l-.05.04Z"/>
          <path class="cls-59" d="M17.01,8.42s-.03.03.09.09c0,0,.15.03.32.3,0,0,.01-.02.03-.08,0,0,.06,0,.1.02,0,0-.07-.22-.33-.27,0,0-.09-.03-.14-.04,0,0-.03,0-.05-.04l-.03.02Z"/>
          <g>
            <g>
              <path class="cls-1" d="M16.99,8.32l-2.7,1.96.07.09,2.7-1.96-.07-.09Z"/>
              <path class="cls-27" d="M17.26,8.38l-.2-.03.04-.2.49-.19-.33.41Z"/>
              <path class="cls-29" d="M17.59,7.97l-.53.38"/>
            </g>
            <g>
              <path class="cls-10" d="M17,8.26s.04-.03.07,0l.07.1s.03.04-.01.07c0,0-.05.05-.08,0,0,0-.04-.06-.08-.11,0,0-.04-.03.03-.07Z"/>
              <path class="cls-20" d="M16.99,8.27s.04.06.04.06c.05.03.07.07.07.07,0,0,.02.04.03.04.01,0,.05-.03.02-.07s-.02-.02-.07-.09c0,0-.03-.05-.09,0Z"/>
            </g>
            <path class="cls-29" d="M17.05,8.49s.05.08.06.13M17.13,8.48s.06,0,.11.04"/>
            <g>
              <path class="cls-28" d="M16.42,7.93s.64,3.07-2.04,2.95v-.56s.11-.56.11-.56l1.93-1.83Z"/>
              <path class="cls-2" d="M15.59,8.77s.15.28.02.73c0,0-.37,1.19-1.21,1.01l-.13-.59,1.31-1.16Z"/>
            </g>
          </g>
          <path class="cls-49" d="M16.49,7.9s.17.23.14.46c0,0,.07-.05.1-.09,0,0,.05.05.08.07,0,0,0-.29-.2-.38,0,0,.16.01.35.26,0,0,.01-.02.02-.09,0,0,.06,0,.1,0,0,0-.09-.2-.36-.22,0,0-.1-.01-.14-.02,0,0-.03,0-.05-.03l-.05.04Z"/>
          <path class="cls-59" d="M16.51,7.88s-.03.03.1.07c0,0,.16.01.35.26,0,0,.01-.02.02-.09,0,0,.06,0,.1,0,0,0-.09-.2-.36-.22,0,0-.1-.01-.14-.02,0,0-.03,0-.05-.03l-.02.02Z"/>
          <g>
            <g>
              <path class="cls-37" d="M14.32,9.99l-.08-.08,2.24-2.12.08.08-2.24,2.12Z"/>
              <path class="cls-34" d="M16.75,7.8h-.2s.01-.2.01-.2l.46-.25-.27.45Z"/>
              <path class="cls-19" d="M17.02,7.36l-.47.45"/>
            </g>
            <g>
              <path class="cls-35" d="M16.48,7.72s.03-.03.07,0l.08.09s.04.03,0,.07c0,0-.05.05-.08.02,0,0-.05-.05-.09-.1,0,0-.04-.03.02-.08h0Z"/>
              <path class="cls-21" d="M16.47,7.73s.05.06.05.06c.05.03.08.06.08.06,0,0,.03.04.03.03.01-.01.04-.04,0-.08s-.02-.02-.08-.08c0,0-.03-.05-.09,0h0Z"/>
            </g>
            <path class="cls-19" d="M16.56,7.94s.06.07.08.12M16.64,7.92s.06,0,.11.02"/>
            <g>
              <path class="cls-32" d="M15.85,7.6s.95,2.72-1.51,2.93l-.06-.51.03-.52,1.54-1.9Z"/>
              <path class="cls-30" d="M15.19,8.47s.17.24.11.67c0,0-.19,1.13-.98,1.07v-.75s.87-.98.87-.98Z"/>
            </g>
          </g>
          <path class="cls-49" d="M15.91,7.57s.18.19.18.4c0,0,.06-.06.08-.1,0,0,.06.04.09.06,0,0-.03-.26-.23-.32,0,0,.14,0,.35.19,0,0,0-.02,0-.08,0,0,.05-.01.09,0,0,0-.11-.17-.35-.16,0,0-.09,0-.13,0,0,0-.02.01-.05-.02l-.04.05Z"/>
          <path class="cls-59" d="M15.93,7.55s-.02.03.1.05c0,0,.14,0,.35.19,0,0,0-.02,0-.08,0,0,.05-.01.09,0,0,0-.11-.17-.35-.16,0,0-.09,0-.13,0,0,0-.02.01-.05-.02l-.02.02Z"/>
          <g>
            <g>
              <path class="cls-33" d="M14.18,9.57l1.7-2.1.08.07-1.7,2.1-.08-.07"/>
              <path class="cls-12" d="M16.14,7.45l-.19.02v-.18s.38-.28.38-.28l-.19.44Z"/>
              <path class="cls-17" d="M16.33,7.01l-.38.46"/>
            </g>
            <g>
              <path class="cls-15" d="M15.88,7.41s.03-.03.06,0l.09.07s.04.02,0,.06c0,0-.03.05-.07.03,0,0-.05-.04-.1-.08,0,0-.04-.02.01-.07h0Z"/>
              <path class="cls-16" d="M15.87,7.42s.05.05.05.05c.05.02.08.05.08.05,0,0,.03.03.03.03,0-.01.04-.04,0-.07s-.02-.02-.08-.06c0,0-.04-.04-.08.01h0Z"/>
            </g>
            <path class="cls-17" d="M15.98,7.6s.06.06.09.1M16.05,7.57s.05,0,.1,0"/>
          </g>
          <path class="cls-66" d="M11.06,11.08s0,.04.43.09c.43.04.54.37.8.37s.43.11.82.23.72.54,2.39-.08c0,0,.38-.42,1.14-.52,0,0,1,.39.52-.02,0,0,.26-.55-1.33-.98l-3.11-.03s-.54-.11-1.66.95h0Z"/>
          <g>
            <g>
              <path class="cls-54" d="M12.4,11.31h-1.67s.34-.24.34-.24l-.3-.22,1.61.03c.05.13.06.28.02.43h0ZM15.84,11.37h1.67s-.34-.24-.34-.24l.3-.22-1.61.03c-.05.13-.06.28-.02.43h0Z"/>
              <g>
                <path class="cls-53" d="M12.38,10.97c-.94.16-.5.41,0,.43,0,0,.04-.2.04-.21.02-.06.03-.23-.03-.22ZM15.87,11.01c.94.16.5.41,0,.43,0,0-.04-.2-.04-.21-.02-.06-.03-.23.03-.22Z"/>
                <path class="cls-53" d="M11.82,11.17c1.89.66,3.49.48,4.61.06l.1.43c-1.37.5-3.22.57-4.75,0l.04-.49Z"/>
              </g>
            </g>
            <path class="cls-65" d="M11.96,11.32h.04s-.08.25-.08.25l.13.04v.03s-.18-.06-.18-.06l.09-.27ZM12.2,11.39l-.03.1h-.03s.03-.11.03-.11h.03ZM12.26,11.41h.04s-.05.18-.05.18c0,.03,0,.05,0,.07,0,.02.02.03.05.03.02,0,.04,0,.06,0,.01-.01.03-.03.03-.06l.05-.17h.04s-.05.18-.05.18c0,.04-.03.06-.05.07-.02.01-.05.02-.09,0-.04,0-.06-.03-.07-.05-.01-.02-.01-.05,0-.09l.05-.17ZM12.53,11.48h.05s.07.28.07.28l.06-.23h.04s-.07.29-.07.29h-.05s-.07-.28-.07-.28l-.06.23h-.04s.07-.29.07-.29ZM12.82,11.55h.04s-.06.29-.06.29h-.04s.06-.29.06-.29ZM13.03,11.62s-.05,0-.07.02c-.02.02-.03.04-.04.08,0,.04,0,.07,0,.09.01.02.03.04.06.04s.05,0,.07-.02c.02-.02.03-.04.04-.08,0-.04,0-.07,0-.09-.01-.02-.03-.04-.06-.04h0ZM13.04,11.59s.07.03.09.06c.02.03.02.07.02.11,0,.04-.03.08-.06.1-.03.02-.06.03-.1.02-.04,0-.07-.03-.09-.06-.02-.03-.02-.07-.02-.11,0-.04.03-.08.06-.1.03-.02.06-.03.1-.02h0ZM13.22,11.62h.05s.09.26.09.26l.03-.24h.04s-.04.29-.04.29h-.05s-.09-.26-.09-.26l-.03.24h-.04s.04-.29.04-.29ZM13.62,11.67h.16s0,.05,0,.05h-.13s0,.07,0,.07h.11s0,.04,0,.04h-.11s-.01.13-.01.13h-.04s.03-.29.03-.29ZM13.89,11.73l-.06.14h.11s-.05-.14-.05-.14ZM13.87,11.69h.04s.09.3.09.3h-.04s-.02-.08-.02-.08h-.13s-.03.07-.03.07h-.04s.13-.28.13-.28ZM14.06,11.7h.04s0,.29,0,.29h-.04s0-.29,0-.29ZM14.13,11.7h.24s0,.03,0,.03h-.1s0,.26,0,.26h-.04s0-.26,0-.26h-.1s0-.03,0-.03ZM14.52,11.7h.04s.01.25.01.25h.14s0,.03,0,.03h-.18s-.02-.28-.02-.28ZM14.84,11.71l-.04.15h.11s-.07-.15-.07-.15ZM14.81,11.68h.04s.14.27.14.27h-.04s-.03-.07-.03-.07h-.13s-.02.09-.02.09h-.04s.08-.29.08-.29ZM15.12,11.64l.16-.03v.03s-.12.02-.12.02v.08s.13-.02.13-.02v.03s-.11.02-.11.02l.02.14h-.04s-.04-.28-.04-.28ZM15.45,11.61s-.05.02-.06.04c-.01.02-.01.05,0,.09,0,.04.02.06.04.08.02.02.04.02.07.02.03,0,.05-.02.06-.04.01-.02.01-.05,0-.09,0-.04-.02-.06-.04-.08-.02-.02-.04-.02-.07-.02h0ZM15.44,11.58s.07,0,.1.02c.03.02.05.05.06.1,0,.04,0,.08-.01.11-.02.03-.05.05-.09.06-.04,0-.07,0-.1-.02-.03-.02-.05-.05-.06-.1s0-.08.01-.11c.02-.03.05-.05.09-.06h0ZM15.79,11.67s.02,0,.03.01c0,0,.02.02.03.03l.06.07h-.04s-.05-.05-.05-.05c-.01-.02-.03-.03-.04-.03-.01,0-.02,0-.04,0h-.04s.03.13.03.13h-.04s-.07-.27-.07-.27l.09-.02s.06,0,.08,0c.02,0,.03.03.04.05,0,.02,0,.03,0,.05,0,.01-.02.02-.03.03h0ZM15.66,11.57l.02.1h.05s.03-.02.04-.03c0-.01,0-.02,0-.04s-.01-.03-.02-.03c-.01,0-.03,0-.04,0h-.05ZM16.07,11.45v.04s-.02-.01-.04-.01c-.02,0-.03,0-.05,0-.03,0-.05.03-.06.05-.01.02-.01.05,0,.09.01.04.03.06.05.08.02.01.05.02.08,0,.02,0,.03-.01.04-.02.01-.01.02-.02.03-.04v.04s-.01.02-.02.03c-.01,0-.03.02-.04.02-.04.01-.08,0-.11,0-.03-.02-.05-.05-.07-.09-.01-.04-.01-.08,0-.12.02-.03.05-.06.09-.07.02,0,.03,0,.05,0,.02,0,.03,0,.05,0h0ZM16.1,11.41l.17-.06v.03s-.12.05-.12.05l.03.08.13-.05v.03s-.12.05-.12.05l.03.1.14-.05v.03s-.16.06-.16.06l-.1-.27Z"/>
          </g>
          <g>
            <g>
              <path class="cls-62" d="M14.05,7.09s0-.17-.18-.33c0,0,.02.06.02.13,0,0-.07-.22-.21-.31,0,0,.05.09.06.16,0,0-.09-.18-.2-.23,0,0,.02.05.02.1,0,0-.08-.15-.24-.23,0,0,.06.09.06.12,0,0-.13-.21-.24-.24,0,0,.11.13.12.21,0,0-.13-.2-.28-.27,0,0,.12.12.17.24,0,0-.15-.24-.37-.22,0,0,.19.08.26.2,0,0-.12-.15-.41-.12,0,0,.17.03.23.1,0,0-.35-.13-.46,0,0,0,.22-.04.28.03,0,0-.3-.03-.42.09,0,0,.2-.04.28-.04,0,0-.21.03-.27.23,0,0,.17-.15.37-.2,0,0-.24.12-.25.25,0,0,.27-.22.36-.26,0,0-.19.11-.19.27,0,0,.18-.19.29-.24,0,0-.18.14-.19.26,0,0,.24-.22.35-.24,0,0-.21.12-.24.25,0,0,.25-.21.31-.2,0,0-.13.08-.16.18,0,0,.14-.13.27-.14,0,0-.08.04-.1.13,0,0,.16-.13.29-.11,0,0-.11.04-.16.13,0,0,.16-.06.23-.04,0,0-.07.05-.09.11,0,0,.18-.07.25-.06,0,0-.12.07-.15.12,0,0,.14-.05.24-.03,0,0-.12.08-.15.13,0,0,.23-.07.28-.05,0,0-.11.06-.14.1,0,0,.19-.05.3.06l.04-.03Z"/>
              <path class="cls-62" d="M14.05,8.41s.02-.37,0-.56h.1v.63l-.06.02-.04-.09Z"/>
              <path class="cls-62" d="M14.27,8.32s0-.32,0-.51c0,0-.16-.06-.15.74l.04.1.11-.33Z"/>
              <path class="cls-62" d="M14,8.22s.07.5.07.68l.07.16s.11-.56-.14-.84Z"/>
              <path class="cls-62" d="M14.34,8.16s-.25.15-.25.83l.07.29.08-.27s-.03-.62.1-.85h0Z"/>
              <path class="cls-62" d="M14.07,9.47c.08-.3-.11-.73-.11-.73,0,0,.23.13.27.65l-.08.24-.08-.16Z"/>
              <path class="cls-62" d="M14.34,8.71s-.25.39-.19,1.03l.14-.04v-.34s0-.47.06-.65Z"/>
              <path class="cls-62" d="M14.03,10.5s.05-1.05-.12-1.25c0,0,.27.05.31.63v.6l-.19.03Z"/>
              <path class="cls-62" d="M14.34,10.47s.02-1.06.1-1.27c0,0-.3.09-.27,1.3l.18-.03ZM14.19,7.35s0-.14-.02-.24"/>
              <path class="cls-62" d="M13.1,7.59s.1-.15.2-.16c0,0-.13.21-.18.28,0,0,.13-.04.2-.16,0,0-.1.23-.09.29,0,0,.1-.1.14-.22,0,0,0,.12-.01.19,0,0,.09-.14.12-.24,0,0-.01.13,0,.19,0,0,.05-.19.1-.27,0,0-.03.27-.06.33,0,0,.07-.06.09-.2,0,0,.02-.13.06-.17,0,0-.05.21-.05.25,0,0,.07-.06.13-.26,0,0-.04.15,0,.23,0,0,.03-.19.09-.25,0,0,0,.04.03.11,0,0,0-.13.04-.18,0,0,.01.1.03.13,0,0,.01-.12.04-.18,0,0,0,.07.03.11,0,0,0-.11.04-.21l-.02-.13s-.08.03-.12,0c0,0,.01.04.02.05,0,0-.08-.03-.11-.03,0,.02.02.04.03.06,0,0-.05-.03-.13-.02,0,0,.05.03.06.05,0,0-.09-.04-.2-.04,0,0,.04.04.05.08,0,0-.08-.05-.18-.02,0,0,.05.04.06.07,0,0-.13-.02-.22,0,0,0,.1.02.17.07,0,0-.38-.11-.41.09,0,0,.09-.09.18-.05,0,0-.16.07-.15.21h0ZM14.31,7.13s.05-.11.11-.16c0,0,0,.03,0,.08,0,0,.07-.15.19-.19,0,0-.08.1-.1.17,0,0,.1-.15.19-.15,0,0-.08.07-.09.11,0,0,.11-.13.26-.14,0,0-.07.04-.1.1,0,0,.17-.14.34-.1,0,0-.1.02-.15.08,0,0,.17-.1.37-.09,0,0-.15.04-.23.11,0,0,.3-.12.43,0,0,0-.14-.02-.17.02,0,0,.19.03.26.11,0,0-.18-.01-.25-.05,0,0,.1.13.15.18,0,0-.13-.04-.25-.14,0,0,.08.13.12.17l-.24-.18s.16.22.2.25c0,0-.26-.14-.33-.24,0,0,.1.13.12.26,0,0-.15-.21-.3-.28,0,0,.16.12.14.27,0,0-.14-.21-.27-.23,0,0,.13.06.13.18,0,0-.1-.12-.24-.17,0,0,.11.07.11.15,0,0-.08-.11-.18-.12,0,0,.08.04.09.13,0,0-.1-.1-.15-.1,0,0,.03.08.07.12,0,0-.17-.05-.23-.09v-.05ZM14.19,7.08s-.01-.37-.1-.45c0,0,0,.06-.03.11,0,0,.02-.2-.07-.29,0,0,0,.07-.03.1,0,0,.03-.21-.04-.28,0,0,0,.13-.04.18,0,0,.02-.21-.05-.29,0,0,0,.07-.02.15,0,0,.01-.15-.07-.23,0,0,.02.07,0,.15,0,0,0-.22-.13-.28,0,0,.06.09.04.17,0,0-.08-.23-.2-.24,0,0,.06.07.07.14,0,0-.19-.19-.34-.17,0,0,.14.08.19.16,0,0-.31-.11-.36.12,0,0,.18-.14.35-.05,0,0-.28-.02-.27.22,0,0,.16-.21.39-.12,0,0-.32,0-.15.24,0,0,0-.31.29-.11,0,0-.27-.06-.21.16,0,0,.11-.2.36.02,0,0-.26-.14-.25.05,0,0,.11-.11.32.07,0,0-.18-.12-.26.03,0,0,.2-.06.32.11,0,0-.19-.04-.25.03,0,0,.24-.02.32.09,0,0-.16-.07-.25,0,0,0,.21.02.31.09,0,0-.1-.01-.15.02,0,0,.2.03.25.13l.05-.02Z"/>
            </g>
            <g>
              <path class="cls-58" d="M13.38,7.39s.23,0,.37-.1c0,0,.15-.13.36-.13"/>
              <path class="cls-63" d="M15.27,7.62s-.11-.15-.21-.16c0,0,.14.22.2.28,0,0-.14-.04-.21-.16,0,0,.12.24.11.3,0,0-.11-.1-.15-.23,0,0,0,.13.02.2,0,0-.1-.15-.14-.25,0,0,.02.13,0,.2,0,0-.06-.2-.12-.28,0,0,.04.28.07.35,0,0-.07-.06-.1-.21,0,0-.03-.13-.07-.17,0,0,.06.22.06.26,0,0-.08-.06-.15-.27,0,0,.05.16,0,.24,0,0-.04-.2-.11-.26,0,0,0,.04-.03.12,0,0-.02-.14-.05-.19,0,0,0,.1-.03.14,0,0-.02-.13-.05-.18,0,0,0,.07-.03.12,0,0-.03-.13-.07-.24v-.08s.12-.01.15-.04c0,0-.01.04-.02.06,0,0,.08-.04.11-.04,0,0-.02.03-.03.06,0,0,.06-.03.14-.03,0,0-.05.04-.06.05,0,0,.1-.05.2-.05,0,0-.04.04-.05.08,0,0,.08-.05.19-.03,0,0-.06.05-.06.07,0,0,.14-.02.23,0,0,0-.1.03-.18.08,0,0,.4-.13.43.08,0,0-.1-.09-.19-.05,0,0,.17.07.16.22h0Z"/>
            </g>
            <g>
              <path class="cls-56" d="M12.81,6.44s.9.04,1.22.66M13.36,6.02s.65.43.8,1.08"/>
              <path class="cls-44" d="M14.11,5.9h.09v1.27h-.09v-1.27Z"/>
              <g>
                <path class="cls-62" d="M14.01,7.05s-.07-.19-.19-.25c0,0,.09.12.08.17,0,0-.07-.15-.19-.19,0,0,.08.1.1.17,0,0-.1-.15-.19-.15,0,0,.08.07.09.11,0,0-.11-.13-.26-.14,0,0,.07.04.1.1,0,0-.17-.14-.34-.1,0,0,.1.02.15.08,0,0-.17-.1-.37-.09,0,0,.15.04.23.11,0,0-.3-.12-.43,0,0,0,.14-.02.17.02,0,0-.19.03-.26.11,0,0,.18-.01.25-.05,0,0-.1.13-.15.18,0,0,.13-.04.25-.14,0,0-.08.13-.12.17l.24-.18s-.16.22-.2.25c0,0,.26-.14.33-.24,0,0-.1.13-.12.26,0,0,.15-.21.3-.28,0,0-.16.12-.14.27,0,0,.14-.21.27-.23,0,0-.13.06-.13.18,0,0,.1-.12.24-.17,0,0-.11.07-.11.15,0,0,.08-.11.18-.12,0,0-.08.04-.09.13,0,0,.1-.1.15-.1,0,0-.03.08-.07.12,0,0,.23-.06.29-.1l-.06-.04Z"/>
                <path class="cls-62" d="M13.07,6.91s.63,0,.91.14"/>
              </g>
              <path class="cls-56" d="M15.26,6.98s-.72-.02-.97.14"/>
            </g>
            <path class="cls-58" d="M14.25,7.19c.21,0,.36.13.36.13.14.11.37.1.37.1"/>
            <g>
              <path class="cls-62" d="M14.23,7.13s.04-.18.22-.33c0,0-.03.06-.03.13,0,0,.08-.21.22-.3,0,0-.06.09-.07.15,0,0,.1-.18.21-.22,0,0-.02.05-.03.1,0,0,.09-.15.26-.22,0,0-.06.08-.07.12,0,0,.14-.21.26-.23,0,0-.12.12-.13.2,0,0,.14-.19.29-.25,0,0-.13.11-.18.23,0,0,.16-.23.38-.2,0,0-.2.07-.27.19,0,0,.13-.15.41-.1,0,0-.18.03-.23.09,0,0,.35-.11.46.02,0,0-.22-.05-.28.01,0,0,.3-.02.41.12,0,0-.2-.06-.28-.06,0,0,.21.05.25.24,0,0-.17-.16-.36-.22,0,0,.23.13.23.27,0,0-.26-.23-.35-.28,0,0,.18.12.18.28,0,0-.17-.2-.28-.25,0,0,.17.15.18.27,0,0-.22-.23-.33-.26,0,0,.2.13.23.26,0,0-.24-.22-.3-.21,0,0,.13.09.15.19,0,0-.14-.14-.27-.16,0,0,.08.05.1.13,0,0-.16-.14-.29-.12,0,0,.11.05.15.13,0,0-.16-.07-.22-.05,0,0,.07.06.09.11,0,0-.17-.08-.24-.08,0,0,.11.07.15.13,0,0-.14-.06-.24-.04,0,0,.12.08.14.14,0,0-.22-.08-.27-.07,0,0,.11.07.13.11,0,0-.19-.06-.3.04l-.07-.02Z"/>
              <path class="cls-56" d="M15.52,6.52s-.7-.04-1.24.6"/>
              <path class="cls-62" d="M14.16,7.15s.02-.45.11-.53c0,0,0,.06.03.11,0,0-.02-.2.07-.29,0,0,0,.07.03.1,0,0-.03-.21.04-.28,0,0,0,.13.04.18,0,0-.02-.21.05-.29,0,0,0,.07.02.15,0,0-.01-.15.07-.23,0,0-.02.07,0,.15,0,0,0-.22.13-.28,0,0-.06.09-.04.17,0,0,.08-.23.2-.24,0,0-.06.07-.07.14,0,0,.19-.19.34-.17,0,0-.14.08-.19.16,0,0,.31-.11.36.12,0,0-.18-.14-.35-.05,0,0,.28-.02.27.22,0,0-.16-.21-.39-.12,0,0,.32,0,.15.24,0,0,0-.31-.29-.11,0,0,.27-.06.21.16,0,0-.11-.2-.36.02,0,0,.26-.14.25.05,0,0-.11-.11-.32.07,0,0,.18-.12.26.03,0,0-.2-.06-.32.11,0,0,.19-.04.25.03,0,0-.24-.02-.32.09,0,0,.16-.07.25,0,0,0-.21.02-.31.09,0,0,.1-.01.15.02,0,0-.22.05-.27.15l-.04.03Z"/>
            </g>
            <path class="cls-57" d="M15.01,6.01s-.54.27-.84,1.13"/>
            <g>
              <path class="cls-62" d="M14.17,7.09s.1-.21.24-.07c0,0-.11-.02-.19.08,0,0,.21-.06.23.08,0,0-.13-.07-.2,0,0,0,.15.02.22.09,0,0-.17-.03-.2,0,0,0,.21.08.16.23,0,0-.02-.09-.11-.14,0,0,.11.12.1.28,0,0-.05-.17-.14-.22,0,0,.13.15.11.3,0,0-.05-.16-.13-.23,0,0,.16.24.09.39,0,0-.03-.19-.11-.31,0,0,.06.16.06.23,0,0,.02.15.06.18,0,0-.13.02-.15-.27,0,0,.03.36-.01.45,0,0-.1-.05-.05-.56,0,0-.03.39-.01.45,0,0-.21-.13,0-.62,0,0-.17.19-.14.35,0,0-.14-.15.08-.43,0,0-.15.09-.17.31,0,0-.15-.14.16-.37,0,0-.16.09-.21.17,0,0-.02-.14.21-.25,0,0-.14-.01-.21.07,0,0,0-.16.23-.13,0,0-.02-.08-.22-.09,0,0,.17-.1.31.05h0Z"/>
              <g>
                <path class="cls-40" d="M13.93,5.68s-.1.09-.02.16.33.18.36.19.11,0,.11-.21-.03-.49-.21-.55-.25-.04-.32.04-.07.2.17.13c0,0,0,.13-.1.24h0Z"/>
                <g>
                  <path class="cls-48" d="M13.84,5.34s0,.08.05.08.09,0,.14-.08M14.19,5.52s-.07-.07-.16-.07c0,0,.05-.04.06-.1"/>
                  <path class="cls-48" d="M14.16,5.42s-.04-.02-.13.03"/>
                </g>
                <path class="cls-40" d="M13.93,5.68s-.1.09-.02.16.33.18.36.19c.02,0,.07,0,.09-.07,0,0-.04.01-.11-.08-.06-.08-.15-.14-.2-.15,0,0-.08-.02-.12-.05h0Z"/>
                <path class="cls-48" d="M14.21,5.91s-.12-.08-.16-.13-.06-.07-.08-.08M13.88,5.77s.01-.05.07.02.13.17.23.2M14.22,5.77s.11.04.16.13M14.32,5.62s.06.09.06.14"/>
              </g>
            </g>
          </g>
          <g>
            <circle class="cls-61" cx="13.92" cy="9.75" r=".08"/>
            <g>
              <circle class="cls-47" cx="12.95" cy="10.25" r=".17"/>
              <circle class="cls-46" cx="12.95" cy="10.25" r=".08"/>
            </g>
            <path class="cls-60" d="M11.65,9.63v.12"/>
          </g>
          <g>
            <circle class="cls-61" cx="14.46" cy="9.75" r=".08"/>
            <g>
              <circle class="cls-47" cx="15.43" cy="10.25" r=".17"/>
              <circle class="cls-46" cx="15.43" cy="10.25" r=".08"/>
            </g>
            <path class="cls-60" d="M16.74,9.63v.12"/>
          </g>
          <g>
            <g>
              <path class="cls-18" d="M13.27,9.56s0,.04-.02.03l-.17-.02s.04,0,.06-.03.13.02.13.02h0Z"/>
              <path class="cls-11" d="M13.17,9.23s-.1-.17-.11-.25.07-.09.09-.02.03.2.03.27-.01,0-.01,0Z"/>
              <path class="cls-18" d="M13.46,9.61s0-.22.02-.28c0,0,0-.08-.31-.1,0,0,.02.27-.02.32,0,0,.24.02.32.06h0Z"/>
            </g>
            <g>
              <path class="cls-24" d="M13.16,9.3v-.07c.32.02.31.1.31.1,0,.01,0,.03,0,.05,0,0-.09-.07-.31-.07ZM13.46,9.55v.06c-.09-.04-.32-.06-.32-.06,0-.01.02-.04.02-.07,0,0,.27.02.3.07h0Z"/>
              <path class="cls-24" d="M13.16,9.47s.09.01.11-.03c0-.02-.02-.03-.03-.02,0,0-.02.02-.02,0,0,0,0,0,0,0,0,0,0,0,0,0s0,0-.01,0c0,0-.01,0-.02,0,0,0-.01,0,0-.01s-.01-.01,0-.01.01,0,.02.02c0,0,0,.01.01,0,.01-.02.01-.08,0-.06,0,0,0,0,0,0,0,0,0,0,0,0,0,0,0,0,0,0,0,0,0,0,0,0s0-.01,0-.01c0,0-.01,0-.01,0,0,0,0,0,0,0,0,0,0,.07,0,.12h0Z"/>
            </g>
            <path class="cls-4" d="M13.37,9.35s-.01.08.02.14c0,0,0,0,.01,0,0,0,0,0,0,0,0,0-.02-.04-.02-.14,0,0,0,0,0-.01,0,0,0,0-.01,0Z"/>
            <path class="cls-18" d="M14.91,9.64s.04-.06.02-.16c0,0-.04-.14.08-.2,0,0,.17-.08.26.18,0,0,.03.11.09.13,0,0-.19.03-.27-.11,0,0,0,.13-.19.16h0Z"/>
          </g>
          <path class="cls-51" d="M15.28,9.58s.02,0,.02,0c0,0,0-.01,0-.02,0,0-.05-.02-.08-.09,0,0,0-.06-.09-.15,0,0-.01-.01-.02,0,0,0,0,0,0,.02s.07.07.09.14c0,0,0,.07.09.11h0ZM14.96,9.6s0,0,0,.01c0,0,0,0,.02,0,0,0,.08-.05.07-.11h-.03s0,.04-.06.09Z"/>
          <g>
            <path class="cls-24" d="M14.93,9.57s.08-.07.36-.06l-.02-.06s-.09,0-.16,0c0,0-.02-.1-.08-.17,0,0-.02,0-.05.03,0,0,.05.08.06.15,0,0-.05,0-.11.04,0,0,0,.03,0,.07h0Z"/>
            <path class="cls-24" d="M15.11,9.28s0-.09.11-.11c0,0-.08-.1-.21-.03,0,0-.12.06-.07.22,0,0,.04-.1.17-.08h0Z"/>
          </g>
          <g>
            <circle class="cls-52" cx="13.31" cy="10.72" r=".12"/>
            <circle class="cls-67" cx="13.28" cy="10.68" r=".03"/>
            <circle class="cls-52" cx="13.43" cy="10.93" r=".12"/>
            <circle class="cls-67" cx="13.4" cy="10.89" r=".03"/>
            <circle class="cls-52" cx="13.19" cy="10.93" r=".12"/>
            <circle class="cls-67" cx="13.16" cy="10.89" r=".03"/>
            <circle class="cls-52" cx="13.55" cy="11.14" r=".12"/>
            <circle class="cls-67" cx="13.52" cy="11.1" r=".03"/>
            <circle class="cls-52" cx="13.31" cy="11.14" r=".12"/>
            <circle class="cls-67" cx="13.28" cy="11.1" r=".03"/>
            <circle class="cls-52" cx="13.07" cy="11.14" r=".12"/>
            <circle class="cls-67" cx="13.05" cy="11.1" r=".03"/>
          </g>
          <g>
            <g>
              <g>
                <path class="cls-9" d="M14.58,10.02c-.02.07-.09.11-.16.09s-.11-.09-.09-.16.09-.11.16-.09.11.09.09.16ZM14.48,9.91s-.09.01-.1.06.01.09.06.1.09-.01.1-.06-.01-.09-.06-.1Z"/>
                <path class="cls-36" d="M15.12,10.77s.23.07.37.19c0,0-.05-.37-.34-.58,0,0,.05.18-.03.39h0Z"/>
              </g>
              <path class="cls-23" d="M14.55,10.06l.57,1.01-.08.04-.57-1.01s-.04-.05,0-.08c0,0,.04-.02.07.04h0Z"/>
              <g>
                <path class="cls-36" d="M15.22,11.33s.08-.47.08-.59c0,0,0-.1-.03-.1,0,0-.03,0-.04.05,0,0-.03.18-.12.33l-.06.04s-.11.08-.37-.02l-.02.09s.19.1.56.2h0Z"/>
                <path class="cls-36" d="M14.7,11.34s-.02-.26.1-.36c0,0-.28-.06-.4-.17,0,0-.02.27.3.53h0Z"/>
              </g>
            </g>
            <g>
              <path class="cls-22" d="M14.44,10.34c.17-.06.34-.19.34-.19.01,0,.01-.03.01-.03,0-.07-.06-.1-.06-.1-.02-.01-.04,0-.04,0-.22.08-.34.18-.34.18,0,0-.03.02-.02.05,0,.03.02.05.04.07,0,0,.02.03.06.02Z"/>
              <path class="cls-13" d="M14.44,10.34s-.06-.01-.06-.01c-.03-.03-.04-.07-.04-.07-.01-.03,0-.05,0-.05,0,0,.02-.02.05,0,0,0,.03.03.05.07,0,0,.01.04,0,.05h0Z"/>
            </g>
            <g>
              <path class="cls-31" d="M14.61,11.23s-.1-.07-.46-.07c-.22,0-.43,0-.43.07,0,.14.87.19.88,0Z"/>
              <path class="cls-6" d="M13.76,10.67h.82v.68h-.82v-.68Z"/>
            </g>
            <g>
              <path class="cls-7" d="M14.44,10.75l-.1.58M14.18,10.76l-.18.57M13.92,10.76l-.16.51M14,11.34l-.08-.58"/>
              <path class="cls-7" d="M14.18,10.77l.16.57M14.43,10.75l.15.51"/>
            </g>
            <g>
              <g>
                <path class="cls-31" d="M13.73,10.53s.04.1.44.1c0,0,.33.01.44-.1,0,0,.09-.12-.44-.13,0,0-.48,0-.44.13Z"/>
                <path class="cls-31" d="M13.83,10.57s.03.08.33.08c0,0,.26,0,.34-.08,0,0,.07-.09-.33-.1,0,0-.37,0-.33.1Z"/>
              </g>
              <path class="cls-26" d="M13.73,10.53s.04.1.44.1c0,0,.34.01.44-.1v.13c-.1.11-.44.1-.44.1-.4,0-.44-.1-.44-.1v-.13Z"/>
              <path class="cls-5" d="M13.73,11.23s.04.11.44.11c0,0,.34.01.44-.11v.15c-.1.13-.44.11-.44.11-.4,0-.44-.11-.44-.11v-.15Z"/>
              <path class="cls-25" d="M14,11.34v.15"/>
              <path class="cls-26" d="M14.21,10.76v-.13"/>
              <path class="cls-25" d="M14.34,11.34v.15"/>
              <path class="cls-26" d="M13.88,10.74v-.13M14.15,10.76v-.13M14.41,10.75v-.13M13.94,10.75v-.13M14.46,10.74v-.13"/>
            </g>
          </g>
        </g>
      </g>
    </g>
  </g>
</svg>