<?xml version="1.0" encoding="UTF-8"?>
<svg id="Layer_2" data-name="Layer 2" xmlns="http://www.w3.org/2000/svg" viewBox="0 0 28.35 17.01">
  <defs>
    <style>
      .cls-1 {
        fill: #5b391a;
      }

      .cls-2 {
        fill: #c19c2e;
      }

      .cls-3 {
        fill: #7f8080;
      }

      .cls-4 {
        fill: #8e5c24;
      }

      .cls-5 {
        fill: #fff;
      }

      .cls-6 {
        fill: #243c7e;
      }

      .cls-7 {
        fill: #312e2b;
      }

      .cls-8 {
        fill: #826b2e;
      }

      .cls-9 {
        fill: #d31f36;
      }

      .cls-10 {
        fill: #cb7929;
      }

      .cls-11 {
        fill: #1a1a1a;
      }

      .cls-12 {
        fill: #565656;
      }

      .cls-13 {
        fill: #224093;
      }

      .cls-14 {
        fill: #404040;
      }

      .cls-15 {
        fill: #555554;
      }

      .cls-16 {
        fill: #010101;
      }

      .cls-17 {
        fill: #8e5a32;
      }

      .cls-18 {
        fill: #f5e103;
      }

      .cls-19 {
        fill: #379445;
      }

      .cls-20 {
        fill: #b21f31;
      }

      .cls-21 {
        fill: #38793c;
      }
    </style>
  </defs>
  <g id="Layer_1-2" data-name="Layer 1">
    <g>
      <path class="cls-9" d="M0,0h28.35v17.01H0V0Z"/>
      <path class="cls-13" d="M0,0h28.35v8.5H0V0Z"/>
      <g>
        <path class="cls-5" d="M10.63,4.89h7.09v7.23h-7.09v-7.23Z"/>
        <g>
          <g>
            <path class="cls-2" d="M10.9,9.24l.04-.09,1.31.67-.04.09-1.31-.67Z"/>
            <path class="cls-16" d="M12.22,9.93h0s-1.32-.68-1.32-.68h0s.05-.1.05-.1h0s1.32.68,1.32.68h0s-.05.1-.05.1ZM10.91,9.24l1.3.67.04-.07-1.3-.67-.04.07Z"/>
          </g>
          <g>
            <path class="cls-2" d="M17.45,9.22l-.04-.09-1.31.67.04.09,1.31-.67Z"/>
            <path class="cls-16" d="M16.13,9.9h0s-.05-.1-.05-.1h0s1.32-.68,1.32-.68h0s.05.1.05.1h0s-1.32.68-1.32.68ZM16.1,9.81l.04.07,1.3-.67-.04-.07-1.3.67Z"/>
          </g>
          <g>
            <g>
              <g>
                <path class="cls-6" d="M11.97,9.01s.15.57.37.95c0,0-.36-.29-.37-.95Z"/>
                <path class="cls-6" d="M12.35,9.98l-.02-.02s-.36-.29-.37-.96v-.04.04s.16.58.38.95v.02ZM11.98,9.05c.02.52.26.8.34.88-.17-.31-.3-.74-.34-.88Z"/>
              </g>
              <g>
                <path class="cls-13" d="M11.44,8.46s-.27,2.84,2.4,2.36v-.24s.07-.35.07-.35l-2.47-1.77Z"/>
                <path class="cls-6" d="M13.27,10.88c-.5,0-.9-.14-1.2-.42-.75-.69-.63-1.99-.63-2h0s0,0,0,0l2.47,1.78h0s-.07.36-.07.36v.24h0c-.2.04-.39.05-.57.05ZM11.45,8.47c0,.12-.08,1.33.62,1.99.41.38,1,.5,1.76.36v-.23s.07-.35.07-.35l-2.46-1.77Z"/>
              </g>
            </g>
            <g>
              <path class="cls-20" d="M12.39,9.2s-.12.3.07.74c0,0,.27.87,1.38.69l.1-.35-1.56-1.08Z"/>
              <path class="cls-20" d="M13.56,10.65c-.87,0-1.1-.71-1.11-.72-.19-.43-.07-.74-.07-.74h0s0,0,0,0l1.56,1.08h0s-.1.36-.1.36h0c-.1.02-.2.02-.29.02ZM12.39,9.2s-.09.33.08.72c0,0,.23.71,1.1.71.09,0,.18,0,.28-.02l.1-.34-1.55-1.07Z"/>
            </g>
          </g>
          <path class="cls-20" d="M11.37,8.44s-.14.25-.08.47c0,0-.08-.04-.12-.08,0,0-.05.06-.08.08,0,0-.04-.29.15-.41,0,0-.15.03-.32.3,0,0-.01-.02-.03-.08,0,0-.06,0-.1.02,0,0,.07-.22.33-.27,0,0,.09-.03.14-.04,0,0,.03,0,.05-.04l.05.04Z"/>
          <path class="cls-6" d="M11.34,8.43s.03.03-.09.09c0,0-.15.03-.32.3,0,0-.01-.02-.03-.08,0,0-.06,0-.1.02,0,0,.07-.22.33-.27,0,0,.09-.03.14-.04,0,0,.03,0,.05-.04l.03.02Z"/>
          <g>
            <path class="cls-8" d="M11.37,8.33l2.7,1.96-.07.09-2.7-1.96.07-.09Z"/>
            <path class="cls-7" d="M14,10.39h0s-2.71-1.97-2.71-1.97l.07-.1h0s2.71,1.97,2.71,1.97l-.07.1ZM11.31,8.42l2.69,1.96.06-.08-2.69-1.96-.06.08Z"/>
          </g>
          <g>
            <g>
              <path class="cls-5" d="M14.22,9.09l-.56-.78-.04.03.54.79.06-.04Z"/>
              <path class="cls-7" d="M14.16,9.14h0s-.55-.8-.55-.8l.05-.03h0s.57.79.57.79h0s-.06.05-.06.05ZM13.63,8.34l.54.79.05-.04-.56-.77-.03.02Z"/>
            </g>
            <g>
              <g>
                <path class="cls-1" d="M14.25,9.18l-.61-.85-.04.03.6.88.05-.06Z"/>
                <path class="cls-7" d="M14.19,9.24h0s-.6-.89-.6-.89l.05-.03h0s.62.85.62.85h0s-.06.07-.06.07ZM13.6,8.36l.59.87.05-.05-.61-.84-.03.02Z"/>
              </g>
              <g>
                <path class="cls-1" d="M13.91,8.68s.02-.01.03,0l.02.02s.01.01,0,.02l-.06.04s-.01,0-.02,0l-.02-.03s0-.01,0-.02l.06-.04h0Z"/>
                <path class="cls-7" d="M13.88,8.78s-.01,0-.02,0l-.02-.03s0-.02,0-.03l.06-.04s0,0,.01,0h0s.01,0,.02,0l.02.02h0s0,0,0,.01c0,0,0,.01-.01.02l-.06.04s0,0-.01,0ZM13.92,8.68s0,0,0,0l-.06.04s0,.01,0,.01l.02.03s0,0,.01,0l.06-.04s0,0,0,0c0,0,0,0,0,0l-.02-.02s0,0-.01,0Z"/>
              </g>
            </g>
            <g>
              <g>
                <path class="cls-3" d="M13.58,8.26l-.1-.14h.01s.1.14.1.14h0s.02.03.02.03h-.02s-.02-.02-.02-.02h0Z"/>
                <path class="cls-7" d="M13.6,8.3l-.03-.04h0s-.1-.15-.1-.15h.02s0,0,0,0l.1.14h0s.03.04.03.04l-.03.02ZM13.59,8.26l.02.03h.01s-.02-.04-.02-.04h0s-.1-.14-.1-.14h0s.1.15.1.15h0Z"/>
              </g>
              <g>
                <path class="cls-3" d="M13.58,8.29l.03.05s.04-.03.04-.03v-.09s0-.03,0-.03h0s-.28-.38-.28-.38l.24.39v.02s.03.02.02.04c0,0-.01.01-.04.02h0Z"/>
                <path class="cls-7" d="M13.62,8.34l-.04-.06h0s.03-.03.03-.03c.01-.01,0-.03,0-.03v-.02s-.26-.39-.26-.39h0s.29.37.29.37c0,0,.01.02,0,.04v.09s-.02.02-.05.03h0ZM13.59,8.29l.03.04s.03-.02.03-.02v-.08s0-.03,0-.03h0s-.23-.3-.23-.3l.21.33s.02.03,0,.04c0,0-.01.01-.03.02Z"/>
              </g>
            </g>
          </g>
          <g>
            <g>
              <path class="cls-5" d="M14.11,9.14l.52-.81.04.02-.49.82-.06-.04Z"/>
              <path class="cls-7" d="M14.17,9.19l-.07-.04h0s.52-.82.52-.82l.05.03-.5.83ZM14.11,9.14l.05.03.49-.82-.03-.02-.51.8Z"/>
            </g>
            <g>
              <g>
                <path class="cls-1" d="M14.13,9.16l.52-.81.04.02-.49.82-.06-.04Z"/>
                <path class="cls-7" d="M14.19,9.2l-.07-.04h0s.52-.82.52-.82l.05.03-.5.83ZM14.14,9.15l.05.03.49-.82-.03-.02-.51.8Z"/>
              </g>
              <g>
                <path class="cls-1" d="M14.39,8.71s-.02-.01-.03,0l-.02.02s-.01.01,0,.02l.07.04s.01,0,.02,0l.02-.03s0-.01,0-.02l-.06-.04h0Z"/>
                <path class="cls-7" d="M14.43,8.81s0,0,0,0l-.07-.04s-.01,0-.01-.01c0,0,0-.01,0-.01l.02-.02s.01-.01.02-.01c0,0,.01,0,.01,0l.06.04s0,.02,0,.03l-.02.03s-.01.01-.02.01ZM14.38,8.71h0s0,0,0,0l-.02.02s0,0,0,0c0,0,0,0,0,0l.07.04s0,0,.01,0l.02-.03s0,0,0-.01l-.06-.04s0,0,0,0Z"/>
              </g>
            </g>
            <g>
              <g>
                <path class="cls-3" d="M14.69,8.27l.09-.15h-.01s-.09.14-.09.14h0s-.02.03-.02.03h.02s.02-.02.02-.02h0Z"/>
                <path class="cls-7" d="M14.68,8.32l-.03-.02.03-.04h0s.09-.15.09-.15h.02s-.09.16-.09.16h0s-.03.05-.03.05ZM14.66,8.3h.01s.02-.02.02-.02h0s.09-.15.09-.15h0s-.09.15-.09.15h0s-.02.02-.02.02Z"/>
              </g>
              <g>
                <path class="cls-3" d="M14.7,8.3l-.03.05s-.04-.02-.04-.02v-.09s0-.03,0-.03h0s.26-.39.26-.39l-.22.41v.02s-.03.02-.01.04c0,0,.01.01.04.02h0Z"/>
                <path class="cls-7" d="M14.67,8.36h0s-.04-.03-.04-.03v-.09s0-.04,0-.04l.27-.39h0s-.23.43-.23.43c0,0-.01.02,0,.03,0,0,.01.01.04.02h0s-.04.06-.04.06ZM14.63,8.33s.01.01.03.02l.03-.04s-.03-.02-.03-.02c-.02-.02,0-.04,0-.04v-.02s.19-.32.19-.32l-.22.32h0s0,.01,0,.03v.09h0Z"/>
              </g>
            </g>
          </g>
          <g>
            <g>
              <g>
                <path class="cls-2" d="M11.09,8.38l.2-.03-.04-.2-.49-.19.33.41Z"/>
                <path class="cls-7" d="M11.09,8.39h0s-.34-.43-.34-.43h.02s.49.19.49.19h0s.04.21.04.21h0s-.21.03-.21.03ZM10.78,7.98l.31.39.2-.03-.04-.19-.47-.18Z"/>
              </g>
              <polygon class="cls-7" points="11.29 8.36 10.76 7.97 10.77 7.97 11.3 8.35 11.29 8.36"/>
            </g>
            <g>
              <g>
                <path class="cls-20" d="M11.35,8.26s-.04-.03-.07,0l-.07.1s-.03.04.01.07c0,0,.05.05.08,0,0,0,.04-.06.08-.11,0,0,.04-.03-.03-.07Z"/>
                <path class="cls-7" d="M11.27,8.47s-.05-.02-.06-.02c-.01-.01-.02-.02-.03-.04,0-.02.01-.04.01-.04l.07-.1s.07,0,.07,0c.03.02.04.03.04.05,0,.02,0,.03,0,.03-.04.05-.08.11-.08.11,0,.01-.02.02-.03.02h0ZM11.32,8.26s-.02,0-.03.02l-.07.1s-.01.01,0,.03c0,.01,0,.02.02.03,0,0,.03.02.05.02h0s.02,0,.02-.01c0,0,.04-.06.08-.11,0,0,0,0,0-.02s-.02-.03-.04-.04h0s-.01,0-.03,0Z"/>
              </g>
              <g>
                <path class="cls-6" d="M11.36,8.27s-.04.06-.04.06c-.05.03-.07.07-.07.07,0,0-.02.04-.03.04-.01,0-.05-.03-.02-.07s.02-.02.07-.09c0,0,.03-.05.09,0Z"/>
                <path class="cls-7" d="M11.23,8.45h0s-.05-.04-.02-.08c.01-.02.02-.03.03-.04,0,0,.02-.02.04-.05,0,0,.01-.02.04-.03.02,0,.04,0,.06.02h0s0,0,0,.01c0,.02-.04.05-.04.06-.05.03-.07.07-.07.07,0,.01-.02.04-.03.04h0ZM11.32,8.26s0,0,0,0c-.02,0-.03.02-.03.02-.02.03-.03.04-.04.05,0,0-.01.02-.03.04-.02.04,0,.06.02.07,0,0,.01-.02.02-.03,0,0,.02-.04.07-.08.02-.01.04-.03.04-.05,0,0,0,0,0,0-.02-.01-.03-.02-.04-.02Z"/>
              </g>
            </g>
            <path class="cls-7" d="M11.24,8.63h0c.02-.05.06-.13.06-.13h0s-.05.08-.06.13ZM11.12,8.53h0c.05-.04.11-.05.11-.05h0s-.06.02-.11.05Z"/>
            <g>
              <g>
                <path class="cls-13" d="M11.93,7.93s-.64,3.07,2.04,2.95v-.56s-.11-.56-.11-.56l-1.93-1.83Z"/>
                <path class="cls-6" d="M13.82,10.88c-.65,0-1.14-.2-1.47-.59-.73-.85-.42-2.36-.42-2.37h0s0,0,0,0l1.93,1.83.11.56v.56s0,0,0,0c-.05,0-.11,0-.16,0ZM11.94,7.94c-.02.13-.27,1.54.42,2.35.33.39.82.58,1.46.58.05,0,.1,0,.15,0v-.55s-.11-.56-.11-.56l-1.93-1.82Z"/>
              </g>
              <g>
                <path class="cls-20" d="M12.76,8.78s-.15.28-.02.73c0,0,.37,1.19,1.21,1.01l.13-.59-1.31-1.16Z"/>
                <path class="cls-20" d="M13.78,10.54c-.71,0-1.04-1.02-1.04-1.03-.13-.45.02-.73.02-.74h0s0,0,0,0l1.31,1.16h0s-.13.59-.13.59h0c-.06.01-.12.02-.17.02ZM12.77,8.78s-.14.31-.02.72c0,.01.32,1.03,1.03,1.03.05,0,.11,0,.17-.02l.13-.58-1.3-1.15Z"/>
              </g>
            </g>
          </g>
          <path class="cls-20" d="M11.86,7.9s-.17.23-.14.46c0,0-.07-.05-.1-.09,0,0-.05.05-.08.07,0,0,0-.29.2-.38,0,0-.16.01-.35.26,0,0-.01-.02-.02-.09,0,0-.06,0-.1,0,0,0,.09-.2.36-.22,0,0,.1-.01.14-.02,0,0,.03,0,.05-.03l.05.04Z"/>
          <path class="cls-6" d="M11.84,7.88s.03.03-.1.07c0,0-.16.01-.35.26,0,0-.01-.02-.02-.09,0,0-.06,0-.1,0,0,0,.09-.2.36-.22,0,0,.1-.01.14-.02,0,0,.03,0,.05-.03l.02.02Z"/>
          <g>
            <g>
              <g>
                <path class="cls-8" d="M14.03,9.99l.08-.08-2.24-2.12-.08.08,2.24,2.12Z"/>
                <path class="cls-7" d="M14.03,10h0s-2.24-2.13-2.24-2.13h0s.08-.09.08-.09h0s2.24,2.13,2.24,2.13h0s-.08.09-.08.09ZM11.8,7.87l2.23,2.11.07-.08-2.23-2.11-.07.07Z"/>
              </g>
              <g>
                <path class="cls-2" d="M11.6,7.81h.2s-.01-.2-.01-.2l-.46-.25.27.45Z"/>
                <path class="cls-7" d="M11.81,7.81h-.21s-.28-.47-.28-.47h.02s.46.26.46.26v.21ZM11.6,7.8h.2v-.19s-.45-.24-.45-.24l.26.43Z"/>
              </g>
              <polygon class="cls-7" points="11.8 7.81 11.32 7.36 11.33 7.36 11.81 7.8 11.8 7.81"/>
            </g>
            <g>
              <g>
                <path class="cls-20" d="M11.87,7.72s-.03-.03-.07,0l-.08.09s-.04.03,0,.07c0,0,.05.05.08.02,0,0,.05-.05.09-.1,0,0,.04-.03-.02-.08h0Z"/>
                <path class="cls-7" d="M11.77,7.91h0s-.05-.03-.05-.03c-.01-.01-.02-.03-.02-.04,0-.02.02-.04.02-.04l.08-.09s.06-.01.07,0c.02.02.04.04.04.05,0,.02-.01.03-.01.03-.04.04-.09.1-.09.1,0,0-.02.01-.03.01ZM11.83,7.71s-.02,0-.03.01l-.08.09s-.01.01-.01.03c0,.01,0,.02.02.03,0,0,.02.03.05.03h0s.02,0,.02-.01c0,0,.05-.05.09-.1,0,0,.01,0,.01-.02,0-.01-.01-.03-.03-.05h0s-.01-.01-.03-.01Z"/>
              </g>
              <g>
                <path class="cls-6" d="M11.88,7.73s-.05.06-.05.06c-.05.03-.08.06-.08.06,0,0-.03.04-.03.03-.01-.01-.04-.04,0-.08s.02-.02.08-.08c0,0,.03-.05.09,0h0Z"/>
                <path class="cls-7" d="M11.72,7.89h0s-.04-.04-.01-.08c.02-.02.02-.03.03-.03,0,0,.02-.02.05-.05,0,0,.01-.02.04-.02h0s.04,0,.05.03c0,0,0,0,0,.01,0,.02-.05.05-.05.05-.05.03-.08.06-.08.06,0,.01-.02.03-.03.04h0ZM11.83,7.71h0s-.03.02-.03.02c-.03.03-.04.04-.05.05,0,0-.01.01-.03.03-.03.03,0,.05,0,.07h0s.02-.01.03-.03c0,0,.03-.04.08-.07.02,0,.04-.03.05-.04,0,0,0,0,0,0-.02-.02-.03-.02-.04-.02Z"/>
              </g>
            </g>
            <path class="cls-7" d="M11.72,8.07h0c.02-.05.08-.12.08-.12h0s-.06.08-.08.12ZM11.6,7.96h0c.05-.03.11-.03.11-.03h0s-.06.01-.11.03Z"/>
            <g>
              <g>
                <path class="cls-13" d="M12.51,7.61s-.95,2.72,1.51,2.93l.06-.51-.03-.52-1.54-1.9Z"/>
                <path class="cls-6" d="M14.02,10.54h0c-.66-.06-1.14-.3-1.42-.73-.56-.86-.1-2.2-.1-2.21h0s0,0,0,0l1.54,1.9.03.52-.07.51ZM12.51,7.62c-.04.12-.43,1.37.1,2.2.27.42.75.67,1.41.72l.06-.51-.03-.52-1.54-1.89Z"/>
              </g>
              <g>
                <path class="cls-20" d="M13.16,8.48s-.17.24-.11.67c0,0,.19,1.13.98,1.07v-.75s-.87-.98-.87-.98Z"/>
                <path class="cls-20" d="M13.97,10.22c-.73,0-.92-1.06-.92-1.07-.06-.43.11-.67.11-.67h0s0,0,0,0l.85.98.02.76h0s-.04,0-.06,0ZM13.16,8.49s-.16.27-.11.66c0,.01.19,1.07.91,1.07.02,0,.04,0,.06,0l-.02-.75-.85-.97Z"/>
              </g>
            </g>
          </g>
          <path class="cls-20" d="M12.44,7.58s-.18.19-.18.4c0,0-.06-.06-.08-.1,0,0-.06.04-.09.06,0,0,.03-.26.23-.32,0,0-.14,0-.35.19,0,0,0-.02,0-.08,0,0-.05-.01-.09,0,0,0,.11-.17.35-.16,0,0,.09,0,.13,0,0,0,.02.01.05-.02l.04.05Z"/>
          <path class="cls-6" d="M12.42,7.55s.02.03-.1.05c0,0-.14,0-.35.19,0,0,0-.02,0-.08,0,0-.05-.01-.09,0,0,0,.11-.17.35-.16,0,0,.09,0,.13,0,0,0,.02.01.05-.02l.02.02Z"/>
          <g>
            <g>
              <g>
                <g>
                  <path class="cls-8" d="M14.17,9.58l-1.7-2.1-.08.07,1.7,2.1.08-.07"/>
                  <path class="cls-7" d="M14.09,9.65h0s-1.71-2.11-1.71-2.11h0s.08-.07.08-.07h0s1.71,2.11,1.71,2.11h0s-.08.07-.08.07ZM12.39,7.54l1.7,2.1.07-.06-1.7-2.1-.07.06Z"/>
                </g>
                <g>
                  <path class="cls-2" d="M12.21,7.45l.19.02v-.18s-.38-.28-.38-.28l.19.44Z"/>
                  <path class="cls-7" d="M12.4,7.48h0s-.19-.03-.19-.03h0s-.2-.46-.2-.46h.01s.39.29.39.29v.19ZM12.22,7.45l.18.02v-.18s-.36-.26-.36-.26l.18.42Z"/>
                </g>
                <polygon class="cls-7" points="12.4 7.48 12.02 7.02 12.03 7.01 12.4 7.47 12.4 7.48"/>
              </g>
              <g>
                <g>
                  <path class="cls-20" d="M12.47,7.41s-.03-.03-.06,0l-.09.07s-.04.02,0,.06c0,0,.03.05.07.03,0,0,.05-.04.1-.08,0,0,.04-.02-.01-.07h0Z"/>
                  <path class="cls-7" d="M12.36,7.57h0s-.04-.03-.05-.04c-.01-.01-.02-.03-.01-.04,0-.02.02-.03.02-.03l.09-.07s.06,0,.07.01c.02.02.03.04.03.05,0,.02-.02.02-.02.02-.05.03-.09.08-.09.08,0,0-.02,0-.02,0ZM12.43,7.4s-.01,0-.02,0l-.09.07s-.01,0-.02.02c0,0,0,.02.01.03,0,0,.02.03.04.03,0,0,.02,0,.02,0,0,0,.05-.04.1-.08,0,0,.01,0,.01-.02s0-.03-.02-.05h0s-.01-.02-.03-.02Z"/>
                </g>
                <g>
                  <path class="cls-6" d="M12.48,7.42s-.05.05-.05.05c-.05.02-.08.05-.08.05,0,0-.03.03-.03.03,0-.01-.04-.04,0-.07s.02-.02.08-.06c0,0,.04-.04.08.01h0Z"/>
                  <path class="cls-7" d="M12.32,7.55h0s-.04-.04,0-.08c.02-.02.02-.02.03-.03,0,0,.02-.01.05-.04,0,0,.01-.02.04-.02h0s.03.01.05.03h0s0,0,0,.01c0,.02-.05.04-.05.04-.05.02-.08.05-.08.05-.01.01-.03.03-.03.03ZM12.43,7.4s-.03.01-.03.01c-.03.02-.04.03-.05.04,0,0-.01,0-.03.03-.03.03-.01.05,0,.06,0,0,.01-.01.02-.02,0,0,.03-.03.08-.05.02,0,.04-.02.05-.03,0,0,0,0,0,0h0s-.03-.03-.04-.03c0,0,0,0,0,0Z"/>
                </g>
              </g>
              <path class="cls-7" d="M12.29,7.71h0s.08-.1.08-.11h0s-.06.07-.08.11ZM12.2,7.59h0s.1-.02.11-.02h0s-.06,0-.1.02Z"/>
            </g>
            <g>
              <g>
                <path class="cls-6" d="M16.38,9s-.15.57-.37.95c0,0,.36-.29.37-.95Z"/>
                <path class="cls-6" d="M16,9.98v-.02c.23-.37.38-.94.38-.95v-.04s.01.04.01.04c0,.66-.36.95-.37.96l-.02.02ZM16.37,9.05c-.04.14-.16.57-.34.88.08-.08.32-.36.34-.88Z"/>
              </g>
              <g>
                <path class="cls-13" d="M16.91,8.46s.27,2.84-2.4,2.36v-.24s-.07-.35-.07-.35l2.47-1.77Z"/>
                <path class="cls-6" d="M15.08,10.88c-.18,0-.37-.02-.57-.05h0s0-.24,0-.24l-.07-.35h0s2.47-1.78,2.47-1.78h0s.12,1.33-.63,2.01c-.3.28-.71.42-1.2.42ZM14.52,10.81c.76.14,1.35.01,1.76-.36.71-.65.63-1.87.62-1.99l-2.46,1.77.07.35v.23Z"/>
              </g>
            </g>
            <g>
              <path class="cls-20" d="M15.97,9.19s.11.3-.07.74c0,0-.27.87-1.38.69l-.1-.35,1.56-1.08Z"/>
              <path class="cls-20" d="M14.79,10.65c-.09,0-.18,0-.29-.02h0s-.1-.36-.1-.36h0s1.57-1.09,1.57-1.09h0s.11.31-.07.75c0,0-.24.72-1.11.72ZM14.51,10.62c.1.02.19.02.28.02.86,0,1.09-.71,1.1-.71.17-.39.09-.68.08-.72l-1.55,1.07.1.34Z"/>
            </g>
          </g>
          <path class="cls-20" d="M16.98,8.44s.14.25.08.47c0,0,.08-.04.12-.08,0,0,.05.06.08.08,0,0,.04-.29-.15-.41,0,0,.15.03.32.3,0,0,.01-.02.03-.08,0,0,.06,0,.1.02,0,0-.07-.22-.33-.27,0,0-.09-.03-.14-.04,0,0-.03,0-.05-.04l-.05.04Z"/>
          <path class="cls-6" d="M17.01,8.42s-.03.03.09.09c0,0,.15.03.32.3,0,0,.01-.02.03-.08,0,0,.06,0,.1.02,0,0-.07-.22-.33-.27,0,0-.09-.03-.14-.04,0,0-.03,0-.05-.04l-.03.02Z"/>
          <g>
            <g>
              <g>
                <path class="cls-8" d="M16.99,8.32l-2.7,1.96.07.09,2.7-1.96-.07-.09Z"/>
                <path class="cls-7" d="M14.35,10.39h0s-.07-.1-.07-.1h0s2.71-1.97,2.71-1.97h0s.07.1.07.1h0s-2.71,1.97-2.71,1.97ZM14.29,10.29l.06.08,2.69-1.96-.06-.08-2.69,1.96Z"/>
              </g>
              <g>
                <path class="cls-2" d="M17.26,8.38l-.2-.03.04-.2.49-.19-.33.41Z"/>
                <path class="cls-7" d="M17.26,8.38h0l-.21-.03h0s.04-.21.04-.21h0s.51-.19.51-.19h-.01s-.33.43-.33.43ZM17.06,8.34l.2.03.31-.39-.47.18-.04.19Z"/>
              </g>
              <polygon class="cls-7" points="17.06 8.35 17.05 8.34 17.58 7.96 17.59 7.97 17.06 8.35"/>
            </g>
            <g>
              <g>
                <path class="cls-20" d="M17,8.26s.04-.03.07,0l.07.1s.03.04-.01.07c0,0-.05.05-.08,0,0,0-.04-.06-.08-.11,0,0-.04-.03.03-.07Z"/>
                <path class="cls-7" d="M17.08,8.46h0s-.02,0-.03-.02c0,0-.04-.06-.08-.11,0,0-.01-.01,0-.03,0-.02.02-.04.04-.05,0,0,.04-.02.07,0l.07.1s.01.02.01.04c0,.01-.01.03-.03.04,0,0-.03.03-.05.03ZM17.03,8.25s-.03,0-.03,0h0s-.04.03-.04.04c0,.01,0,.02,0,.02.04.05.08.11.08.11,0,0,.01.01.02.01h0s.05-.02.05-.02c.01,0,.02-.02.02-.03,0-.02,0-.03,0-.03l-.07-.1s-.02-.01-.03-.01Z"/>
              </g>
              <g>
                <path class="cls-6" d="M16.99,8.27s.04.06.04.06c.05.03.07.07.07.07,0,0,.02.04.03.04.01,0,.05-.03.02-.07s-.02-.02-.07-.09c0,0-.03-.05-.09,0Z"/>
                <path class="cls-7" d="M17.12,8.45s-.02-.03-.03-.04c0,0-.02-.04-.07-.07,0,0-.05-.03-.05-.06,0,0,0-.01,0-.01.02-.02.04-.03.06-.02.02,0,.04.03.04.03.02.03.03.04.04.05,0,0,.01.02.03.04.03.05,0,.07-.02.08h0ZM17.03,8.25s-.03,0-.04.02h0s0,0,0,0c0,.01.03.04.04.05.05.03.07.07.07.08,0,.02.02.03.02.03.01-.01.04-.03.02-.07-.01-.02-.02-.03-.03-.04s-.02-.02-.04-.05c0,0-.01-.02-.03-.02,0,0,0,0,0,0Z"/>
              </g>
            </g>
            <path class="cls-7" d="M17.11,8.62s-.06-.13-.06-.13h0s.05.07.06.12h0ZM17.24,8.53s-.11-.04-.11-.04h0s.06,0,.11.03h0Z"/>
            <g>
              <g>
                <path class="cls-13" d="M16.42,7.93s.64,3.07-2.04,2.95v-.56s.11-.56.11-.56l1.93-1.83Z"/>
                <path class="cls-6" d="M14.53,10.88c-.05,0-.1,0-.16,0h0s0-.56,0-.56l.11-.56,1.94-1.84h0s.31,1.53-.42,2.38c-.33.39-.83.59-1.47.59ZM14.38,10.87c.05,0,.1,0,.15,0,.64,0,1.13-.2,1.46-.58.69-.81.44-2.22.42-2.35l-1.93,1.82-.11.55v.55Z"/>
              </g>
              <g>
                <path class="cls-20" d="M15.59,8.77s.15.28.02.73c0,0-.37,1.19-1.21,1.01l-.13-.59,1.31-1.16Z"/>
                <path class="cls-20" d="M14.57,10.54c-.05,0-.11,0-.17-.02h0s-.13-.59-.13-.59h0s1.32-1.17,1.32-1.17h0s.15.29.02.74c0,.01-.33,1.03-1.04,1.03ZM14.41,10.51c.06.01.11.02.17.02.71,0,1.03-1.02,1.03-1.03.12-.41,0-.68-.02-.72l-1.3,1.15.13.58Z"/>
              </g>
            </g>
          </g>
          <path class="cls-20" d="M16.49,7.9s.17.23.14.46c0,0,.07-.05.1-.09,0,0,.05.05.08.07,0,0,0-.29-.2-.38,0,0,.16.01.35.26,0,0,.01-.02.02-.09,0,0,.06,0,.1,0,0,0-.09-.2-.36-.22,0,0-.1-.01-.14-.02,0,0-.03,0-.05-.03l-.05.04Z"/>
          <path class="cls-6" d="M16.51,7.88s-.03.03.1.07c0,0,.16.01.35.26,0,0,.01-.02.02-.09,0,0,.06,0,.1,0,0,0-.09-.2-.36-.22,0,0-.1-.01-.14-.02,0,0-.03,0-.05-.03l-.02.02Z"/>
          <g>
            <g>
              <g>
                <path class="cls-8" d="M14.32,9.99l-.08-.08,2.24-2.12.08.08-2.24,2.12Z"/>
                <path class="cls-7" d="M14.32,10h0s-.08-.09-.08-.09h0s2.24-2.13,2.24-2.13h0s.08.09.08.09h0s-2.24,2.13-2.24,2.13ZM14.25,9.9l.07.08,2.23-2.11-.07-.08-2.23,2.11Z"/>
              </g>
              <g>
                <path class="cls-2" d="M16.75,7.8h-.2s.01-.2.01-.2l.46-.25-.27.45Z"/>
                <path class="cls-7" d="M16.76,7.81h-.21s.02-.21.02-.21l.48-.25v.02s-.28.45-.28.45ZM16.56,7.8h.2l.26-.43-.44.24v.19Z"/>
              </g>
              <polygon class="cls-7" points="16.55 7.81 16.55 7.8 17.02 7.35 17.03 7.36 16.55 7.81"/>
            </g>
            <g>
              <g>
                <path class="cls-20" d="M16.48,7.72s.03-.03.07,0l.08.09s.04.03,0,.07c0,0-.05.05-.08.02,0,0-.05-.05-.09-.1,0,0-.04-.03.02-.08h0Z"/>
                <path class="cls-7" d="M16.58,7.91s-.02,0-.03-.01c0,0-.05-.06-.09-.1,0,0-.01-.01-.01-.03,0-.02.01-.04.04-.05.01-.01.05-.03.07,0l.08.09s.02.01.02.04c0,.01,0,.03-.02.04,0,0-.03.03-.05.03h0ZM16.52,7.71s-.03.01-.03.01h0s-.03.03-.03.05c0,.01,0,.02,0,.02.05.04.09.1.09.1,0,0,.01.01.02.01h0s.05-.03.05-.03c.01-.01.02-.02.02-.03,0-.02-.01-.03-.01-.03l-.08-.09s-.02-.01-.03-.01Z"/>
              </g>
              <g>
                <path class="cls-6" d="M16.47,7.73s.05.06.05.06c.05.03.08.06.08.06,0,0,.03.04.03.03.01-.01.04-.04,0-.08s-.02-.02-.08-.08c0,0-.03-.05-.09,0h0Z"/>
                <path class="cls-7" d="M16.62,7.89h0s-.03-.02-.03-.04c0,0-.03-.04-.08-.06,0,0-.05-.03-.05-.05,0,0,0-.01,0-.02h0s.04-.03.05-.03h0s.04.02.04.02c.03.03.04.04.04.05,0,0,.01.01.03.03.04.04,0,.07,0,.08,0,0,0,0,0,0ZM16.48,7.73h0s0,0,0,0c0,.01.03.03.05.04.05.03.08.06.08.07.01.02.02.03.03.03.01-.01.03-.03,0-.07-.02-.02-.02-.02-.03-.03,0,0-.02-.02-.05-.05,0,0-.01-.02-.03-.02h0s-.03,0-.04.02Z"/>
              </g>
            </g>
            <path class="cls-7" d="M16.64,8.06s-.08-.12-.08-.12h0s.06.07.08.11h0ZM16.75,7.95c-.05-.02-.11-.02-.11-.02h0s.06,0,.11.01h0Z"/>
            <g>
              <g>
                <path class="cls-13" d="M15.85,7.6s.95,2.72-1.51,2.93l-.06-.51.03-.52,1.54-1.9Z"/>
                <path class="cls-6" d="M14.33,10.54h0s-.06-.51-.06-.51l.03-.52,1.55-1.91h0s.46,1.36-.1,2.22c-.28.43-.75.67-1.42.73h0ZM15.84,7.61l-1.54,1.9-.03.52.06.5c.66-.06,1.13-.3,1.41-.72.53-.82.14-2.08.1-2.2Z"/>
              </g>
              <g>
                <path class="cls-20" d="M15.19,8.47s.17.24.11.67c0,0-.19,1.13-.98,1.07v-.75s.87-.98.87-.98Z"/>
                <path class="cls-20" d="M14.38,10.22s-.04,0-.06,0h0s.01-.76.01-.76l.86-.99h0s.17.25.11.67c0,.01-.19,1.08-.92,1.08ZM14.33,10.2s.04,0,.06,0c.72,0,.91-1.06.91-1.07.06-.39-.08-.62-.11-.66l-.85.98v.74Z"/>
              </g>
            </g>
          </g>
          <path class="cls-20" d="M15.91,7.57s.18.19.18.4c0,0,.06-.06.08-.1,0,0,.06.04.09.06,0,0-.03-.26-.23-.32,0,0,.14,0,.35.19,0,0,0-.02,0-.08,0,0,.05-.01.09,0,0,0-.11-.17-.35-.16,0,0-.09,0-.13,0,0,0-.02.01-.05-.02l-.04.05Z"/>
          <path class="cls-6" d="M15.93,7.55s-.02.03.1.05c0,0,.14,0,.35.19,0,0,0-.02,0-.08,0,0,.05-.01.09,0,0,0-.11-.17-.35-.16,0,0-.09,0-.13,0,0,0-.02.01-.05-.02l-.02.02Z"/>
          <g>
            <g>
              <g>
                <path class="cls-8" d="M14.18,9.57l1.7-2.1.08.07-1.7,2.1-.08-.07"/>
                <path class="cls-7" d="M14.26,9.64h0s-.08-.07-.08-.07h0s1.71-2.11,1.71-2.11h0s.08.07.08.07h0s-1.71,2.11-1.71,2.11ZM14.19,9.57l.07.06,1.7-2.1-.07-.06-1.7,2.1Z"/>
              </g>
              <g>
                <path class="cls-2" d="M16.14,7.45l-.19.02v-.18s.38-.28.38-.28l-.19.44Z"/>
                <path class="cls-7" d="M15.95,7.48h0s-.01-.19-.01-.19l.41-.29v.02s-.2.44-.2.44h0l-.19.03ZM16.32,7.02l-.38.27v.17s.19-.02.19-.02l.18-.42Z"/>
              </g>
              <polygon class="cls-7" points="15.96 7.48 15.95 7.47 16.33 7.01 16.33 7.01 15.96 7.48"/>
            </g>
            <g>
              <g>
                <path class="cls-20" d="M15.88,7.41s.03-.03.06,0l.09.07s.04.02,0,.06c0,0-.03.05-.07.03,0,0-.05-.04-.1-.08,0,0-.04-.02.01-.07h0Z"/>
                <path class="cls-7" d="M15.99,7.57s-.02,0-.02,0c0,0-.05-.04-.1-.08,0,0-.01,0-.02-.02,0-.02,0-.04.03-.05,0,0,.03-.04.07-.01l.09.07s.02.01.02.03c0,.01,0,.03-.01.04,0,0-.02.03-.05.04h0ZM15.92,7.39s-.03.02-.03.02h0s-.03.03-.02.05.01.02.01.02c.05.03.1.08.1.08,0,0,.01,0,.02,0,.02,0,.04-.03.04-.03,0-.01.01-.02.01-.03,0-.02-.02-.02-.02-.02l-.09-.07s-.02,0-.02,0Z"/>
              </g>
              <g>
                <path class="cls-6" d="M15.87,7.42s.05.05.05.05c.05.02.08.05.08.05,0,0,.03.03.03.03,0-.01.04-.04,0-.07s-.02-.02-.08-.06c0,0-.04-.04-.08.01h0Z"/>
                <path class="cls-7" d="M16.03,7.54s-.02-.02-.03-.03c0,0-.03-.03-.08-.05,0,0-.05-.02-.05-.04,0,0,0-.01,0-.01h0s.03-.03.05-.03h0s.04.02.04.02c.03.02.04.03.05.04,0,0,.01.01.03.03.04.04.01.07,0,.08h0ZM15.92,7.39s0,0,0,0c-.01,0-.03,0-.04.03h0s0,0,0,0c0,.01.03.03.05.03.05.02.08.05.08.05,0,.01.02.02.03.02,0-.01.03-.03,0-.06-.02-.02-.02-.02-.03-.03,0,0-.02-.01-.05-.04,0,0-.01-.01-.03-.01Z"/>
              </g>
            </g>
            <path class="cls-7" d="M16.06,7.7s-.08-.1-.08-.1h0s.06.05.08.09h0ZM16.15,7.59c-.05-.01-.1,0-.1,0h0s.06-.02.11,0h0Z"/>
          </g>
          <path class="cls-19" d="M11.06,11.08s0,.04.43.09c.43.04.54.37.8.37s.43.11.82.23.72.54,2.39-.08c0,0,.38-.42,1.14-.52,0,0,1,.39.52-.02,0,0,.26-.55-1.33-.98l-3.11-.03s-.54-.11-1.66.95h0Z"/>
          <g>
            <g>
              <g>
                <path class="cls-9" d="M12.4,11.31h-1.67s.34-.24.34-.24l-.3-.22,1.61.03c.05.13.06.28.02.43h0ZM15.84,11.37h1.67s-.34-.24-.34-.24l.3-.22-1.61.03c-.05.13-.06.28-.02.43h0Z"/>
                <path class="cls-16" d="M17.54,11.38h-1.71s0,0,0,0c-.04-.14-.03-.3.02-.43h0s0,0,0,0l1.64-.03-.03.02-.29.21.36.25ZM15.85,11.36h1.62s-.33-.22-.33-.22h.01s.28-.21.28-.21l-1.56.03c-.05.13-.05.27-.02.4ZM10.7,11.32l.03-.02.33-.23-.32-.24h.03s1.61.03,1.61.03h0c.05.14.06.3.02.44h0s-1.71,0-1.71,0ZM10.81,10.86l.29.21h-.01s-.31.23-.31.23h1.62c.04-.14.03-.28-.02-.41l-1.56-.03Z"/>
              </g>
              <g>
                <g>
                  <path class="cls-9" d="M12.38,10.97c-.94.16-.5.41,0,.43,0,0,.04-.2.04-.21.02-.06.03-.23-.03-.22ZM15.87,11.01c.94.16.5.41,0,.43,0,0-.04-.2-.04-.21-.02-.06-.03-.23.03-.22Z"/>
                  <path class="cls-16" d="M15.87,11.45s-.01,0-.04-.15c0-.03-.01-.06-.01-.07-.02-.05-.03-.18,0-.23.01-.01.02-.01.04-.01h0c.37.06.57.15.56.25,0,.11-.29.2-.55.21h0ZM15.86,11.02s0,0-.01,0c-.03.03-.02.15,0,.2,0,0,0,.03.01.07,0,.04.02.11.03.13.28-.02.52-.1.52-.19,0-.04-.05-.14-.54-.22h0s0,0,0,0ZM12.37,11.41c-.27-.01-.55-.1-.55-.21,0-.1.19-.18.56-.25h0s.03,0,.04.01c.04.04.03.17,0,.23,0,0,0,.05-.02.09q-.02.13-.04.13ZM12.38,10.98c-.5.08-.54.18-.54.22,0,.09.24.17.52.19,0-.02.01-.07.02-.11.01-.06.02-.08.02-.09.02-.05.02-.17,0-.2,0,0,0,0-.01,0h0Z"/>
                </g>
                <g>
                  <path class="cls-9" d="M11.82,11.17c1.89.66,3.49.48,4.61.06l.1.43c-1.37.5-3.22.57-4.75,0l.04-.49Z"/>
                  <path class="cls-16" d="M14.15,12.07c-.83,0-1.66-.13-2.38-.4h0s0-.01,0-.01l.04-.51h.01c2.05.72,3.64.43,4.61.06h.01s.1.45.1.45h0c-.73.27-1.56.4-2.39.4ZM11.79,11.66c1.43.53,3.29.53,4.73,0l-.09-.41c-.97.36-2.56.65-4.59-.06l-.04.47Z"/>
                </g>
              </g>
            </g>
            <path class="cls-10" d="M11.96,11.32h.04s-.08.25-.08.25l.13.04v.03s-.18-.06-.18-.06l.09-.27ZM12.2,11.39l-.03.1h-.03s.03-.11.03-.11h.03ZM12.26,11.41h.04s-.05.18-.05.18c0,.03,0,.05,0,.07,0,.02.02.03.05.03.02,0,.04,0,.06,0,.01-.01.03-.03.03-.06l.05-.17h.04s-.05.18-.05.18c0,.04-.03.06-.05.07-.02.01-.05.02-.09,0-.04,0-.06-.03-.07-.05-.01-.02-.01-.05,0-.09l.05-.17ZM12.53,11.48h.05s.07.28.07.28l.06-.23h.04s-.07.29-.07.29h-.05s-.07-.28-.07-.28l-.06.23h-.04s.07-.29.07-.29ZM12.82,11.55h.04s-.06.29-.06.29h-.04s.06-.29.06-.29ZM13.03,11.62s-.05,0-.07.02c-.02.02-.03.04-.04.08,0,.04,0,.07,0,.09.01.02.03.04.06.04s.05,0,.07-.02c.02-.02.03-.04.04-.08,0-.04,0-.07,0-.09-.01-.02-.03-.04-.06-.04h0ZM13.04,11.59s.07.03.09.06c.02.03.02.07.02.11,0,.04-.03.08-.06.1-.03.02-.06.03-.1.02-.04,0-.07-.03-.09-.06-.02-.03-.02-.07-.02-.11,0-.04.03-.08.06-.1.03-.02.06-.03.1-.02h0ZM13.22,11.62h.05s.09.26.09.26l.03-.24h.04s-.04.29-.04.29h-.05s-.09-.26-.09-.26l-.03.24h-.04s.04-.29.04-.29ZM13.62,11.67h.16s0,.05,0,.05h-.13s0,.07,0,.07h.11s0,.04,0,.04h-.11s-.01.13-.01.13h-.04s.03-.29.03-.29ZM13.89,11.73l-.06.14h.11s-.05-.14-.05-.14ZM13.87,11.69h.04s.09.3.09.3h-.04s-.02-.08-.02-.08h-.13s-.03.07-.03.07h-.04s.13-.28.13-.28ZM14.06,11.7h.04s0,.29,0,.29h-.04s0-.29,0-.29ZM14.13,11.7h.24s0,.03,0,.03h-.1s0,.26,0,.26h-.04s0-.26,0-.26h-.1s0-.03,0-.03ZM14.52,11.7h.04s.01.25.01.25h.14s0,.03,0,.03h-.18s-.02-.28-.02-.28ZM14.84,11.71l-.04.15h.11s-.07-.15-.07-.15ZM14.81,11.68h.04s.14.27.14.27h-.04s-.03-.07-.03-.07h-.13s-.02.09-.02.09h-.04s.08-.29.08-.29ZM15.12,11.64l.16-.03v.03s-.12.02-.12.02v.08s.13-.02.13-.02v.03s-.11.02-.11.02l.02.14h-.04s-.04-.28-.04-.28ZM15.45,11.61s-.05.02-.06.04c-.01.02-.01.05,0,.09,0,.04.02.06.04.08.02.02.04.02.07.02.03,0,.05-.02.06-.04.01-.02.01-.05,0-.09,0-.04-.02-.06-.04-.08-.02-.02-.04-.02-.07-.02h0ZM15.44,11.58s.07,0,.1.02c.03.02.05.05.06.1,0,.04,0,.08-.01.11-.02.03-.05.05-.09.06-.04,0-.07,0-.1-.02-.03-.02-.05-.05-.06-.1s0-.08.01-.11c.02-.03.05-.05.09-.06h0ZM15.79,11.67s.02,0,.03.01c0,0,.02.02.03.03l.06.07h-.04s-.05-.05-.05-.05c-.01-.02-.03-.03-.04-.03-.01,0-.02,0-.04,0h-.04s.03.13.03.13h-.04s-.07-.27-.07-.27l.09-.02s.06,0,.08,0c.02,0,.03.03.04.05,0,.02,0,.03,0,.05,0,.01-.02.02-.03.03h0ZM15.66,11.57l.02.1h.05s.03-.02.04-.03c0-.01,0-.02,0-.04s-.01-.03-.02-.03c-.01,0-.03,0-.04,0h-.05ZM16.07,11.45v.04s-.02-.01-.04-.01c-.02,0-.03,0-.05,0-.03,0-.05.03-.06.05-.01.02-.01.05,0,.09.01.04.03.06.05.08.02.01.05.02.08,0,.02,0,.03-.01.04-.02.01-.01.02-.02.03-.04v.04s-.01.02-.02.03c-.01,0-.03.02-.04.02-.04.01-.08,0-.11,0-.03-.02-.05-.05-.07-.09-.01-.04-.01-.08,0-.12.02-.03.05-.06.09-.07.02,0,.03,0,.05,0,.02,0,.03,0,.05,0h0ZM16.1,11.41l.17-.06v.03s-.12.05-.12.05l.03.08.13-.05v.03s-.12.05-.12.05l.03.1.14-.05v.03s-.16.06-.16.06l-.1-.27Z"/>
          </g>
          <g>
            <g>
              <g>
                <path class="cls-19" d="M14.05,7.09s0-.17-.18-.33c0,0,.02.06.02.13,0,0-.07-.22-.21-.31,0,0,.05.09.06.16,0,0-.09-.18-.2-.23,0,0,.02.05.02.1,0,0-.08-.15-.24-.23,0,0,.06.09.06.12,0,0-.13-.21-.24-.24,0,0,.11.13.12.21,0,0-.13-.2-.28-.27,0,0,.12.12.17.24,0,0-.15-.24-.37-.22,0,0,.19.08.26.2,0,0-.12-.15-.41-.12,0,0,.17.03.23.1,0,0-.35-.13-.46,0,0,0,.22-.04.28.03,0,0-.3-.03-.42.09,0,0,.2-.04.28-.04,0,0-.21.03-.27.23,0,0,.17-.15.37-.2,0,0-.24.12-.25.25,0,0,.27-.22.36-.26,0,0-.19.11-.19.27,0,0,.18-.19.29-.24,0,0-.18.14-.19.26,0,0,.24-.22.35-.24,0,0-.21.12-.24.25,0,0,.25-.21.31-.2,0,0-.13.08-.16.18,0,0,.14-.13.27-.14,0,0-.08.04-.1.13,0,0,.16-.13.29-.11,0,0-.11.04-.16.13,0,0,.16-.06.23-.04,0,0-.07.05-.09.11,0,0,.18-.07.25-.06,0,0-.12.07-.15.12,0,0,.14-.05.24-.03,0,0-.12.08-.15.13,0,0,.23-.07.28-.05,0,0-.11.06-.14.1,0,0,.19-.05.3.06l.04-.03Z"/>
                <path class="cls-21" d="M14.01,7.12h0c-.11-.11-.29-.06-.29-.06h-.01s0,0,0,0c.02-.03.1-.08.13-.1,0,0,0,0-.01,0-.06,0-.2.04-.25.06h-.01s0,0,0,0c.02-.04.11-.1.14-.12-.09-.01-.22.03-.22.03h-.01s0,0,0,0c.03-.04.11-.09.14-.11-.08,0-.22.06-.23.07h0s0,0,0,0c.02-.05.07-.09.09-.11,0,0-.02,0-.03,0-.07,0-.19.04-.19.04h-.01s0,0,0,0c.04-.07.11-.11.14-.12h0c-.12,0-.26.11-.26.11h-.01s0,0,0,0c.01-.06.06-.1.08-.12-.12.02-.24.14-.25.14h-.01s0,0,0,0c.02-.08.11-.15.14-.17-.07.02-.21.13-.29.2h-.01s0,0,0,0c.02-.1.14-.19.21-.23-.12.05-.3.22-.3.22h0s0,0,0,0c0-.09.11-.18.16-.23-.11.07-.25.21-.25.21h0s0,0,0,0c0-.1.07-.18.12-.22-.11.08-.28.21-.29.21h0s0,0,0,0c0-.1.14-.2.21-.24-.17.06-.32.18-.33.19h-.01s0,0,0,0c.04-.14.16-.2.23-.22-.09,0-.23.04-.23.04h-.02s.01,0,.01,0c.1-.11.34-.11.41-.1-.07-.05-.26-.02-.26-.02h-.01s0,0,0,0c.1-.11.37-.03.44,0-.06-.05-.21-.08-.21-.08h-.03s.03,0,.03,0c.03,0,.06,0,.08,0,.15,0,.25.06.3.09-.08-.1-.23-.16-.24-.16h-.02s.02,0,.02,0c.17-.01.29.12.35.19-.05-.11-.15-.2-.15-.2l-.02-.02h.03c.12.07.23.2.26.26-.03-.08-.11-.18-.11-.18h0s.01,0,.01,0c.09.02.19.15.23.21-.02-.04-.05-.09-.05-.09h0s.02,0,.02,0c.13.06.21.17.23.21,0-.04-.02-.07-.02-.07h0s.01,0,.01,0c.08.04.15.14.18.2-.02-.05-.05-.11-.05-.12v-.02s0,.01,0,.01c.11.07.17.22.2.28,0-.05-.02-.1-.02-.1v-.02s0,.01,0,.01c.17.16.18.33.18.34h0s-.05.03-.05.03ZM13.81,7.04c.06,0,.14.01.2.07l.04-.02s-.02-.17-.16-.31c0,.02.02.07.02.11v.03-.03s-.07-.2-.2-.3c.02.03.04.09.05.14v.03s0-.03,0-.03c0,0-.09-.17-.18-.22,0,.02.02.05.02.09v.02s0-.02,0-.02c0,0-.08-.14-.23-.22.02.03.05.08.05.11v.02s0-.02,0-.02c0,0-.12-.19-.23-.23.03.03.1.13.11.2v.02s0-.02,0-.02c0,0-.12-.18-.25-.25.04.04.11.13.15.22l.02.04-.03-.04s-.14-.22-.34-.22h0c.05.02.19.09.25.2h0s-.1-.12-.32-.12c-.02,0-.03,0-.05,0,.05.01.16.04.2.09h.01s-.02,0-.02,0c0,0-.32-.12-.44-.01.05,0,.21-.03.27.03h0s-.01,0-.01,0c0,0-.28-.03-.4.08.05,0,.19-.04.26-.04h.06s-.05,0-.05,0c0,0-.2.04-.26.21.04-.04.19-.15.36-.19h.04s-.04,0-.04,0c0,0-.22.11-.24.24.05-.04.27-.22.35-.25h0s-.18.11-.19.26c.04-.04.18-.19.28-.23h.03s-.03,0-.03,0c0,0-.16.13-.18.24.05-.04.24-.21.34-.23h.03s-.02,0-.02,0c0,0-.19.11-.23.23.05-.04.24-.19.3-.19h.02s-.01,0-.01,0c0,0-.12.07-.15.16.04-.03.15-.12.26-.13h.03s-.02,0-.02,0c0,0-.07.04-.1.11.04-.03.15-.1.26-.1,0,0,.02,0,.03,0h.02s-.02,0-.02,0c0,0-.1.04-.15.11.04-.01.16-.05.22-.03h0s0,0,0,0c0,0-.06.04-.09.1.04-.01.16-.06.23-.06,0,0,0,0,0,0h.02s-.01,0-.01,0c0,0-.1.06-.14.11.04-.01.15-.04.23-.03h.01s0,0,0,0c0,0-.1.07-.14.12.04-.01.17-.05.24-.05.01,0,.02,0,.03,0h0s0,0,0,0c0,0-.09.05-.13.09.02,0,.05,0,.09,0Z"/>
              </g>
              <g>
                <path class="cls-19" d="M14.05,8.41s.02-.37,0-.56h.1v.63l-.06.02-.04-.09Z"/>
                <path class="cls-21" d="M14.09,8.5h0s-.04-.09-.04-.09c0,0,.02-.37,0-.56h0s0,0,0,0h.11v.64l-.07.02ZM14.06,8.4l.04.08.06-.02v-.61h-.09c.02.18,0,.52,0,.55Z"/>
              </g>
              <g>
                <path class="cls-19" d="M14.27,8.32s0-.32,0-.51c0,0-.16-.06-.15.74l.04.1.11-.33Z"/>
                <path class="cls-21" d="M14.16,8.66l-.04-.11c0-.57.08-.71.12-.74.02-.02.04,0,.04,0h0c0,.2,0,.52,0,.52h0s-.12.34-.12.34ZM14.26,7.81s-.01,0-.02,0c-.04.03-.12.17-.12.73l.03.09.11-.32s0-.32,0-.51h0Z"/>
              </g>
              <g>
                <path class="cls-19" d="M14,8.22s.07.5.07.68l.07.16s.11-.56-.14-.84Z"/>
                <path class="cls-21" d="M14.14,9.08h0s-.07-.17-.07-.17c0-.19-.07-.68-.07-.68v-.02s0,.01,0,.01c.25.28.14.84.14.85h0ZM14.01,8.24c.01.09.07.5.07.67l.07.14c.01-.09.08-.56-.13-.81Z"/>
              </g>
              <g>
                <path class="cls-19" d="M14.34,8.16s-.25.15-.25.83l.07.29.08-.27s-.03-.62.1-.85h0Z"/>
                <path class="cls-21" d="M14.16,9.31v-.02s-.07-.29-.07-.29c0-.68.24-.83.25-.84h.02s0,0,0,0c-.13.24-.1.85-.1.85l-.09.29ZM14.33,8.18c-.06.05-.23.25-.23.82l.06.27.08-.25s-.03-.58.09-.84Z"/>
              </g>
              <g>
                <path class="cls-19" d="M14.07,9.47c.08-.3-.11-.73-.11-.73,0,0,.23.13.27.65l-.08.24-.08-.16Z"/>
                <path class="cls-21" d="M14.15,9.64h0s-.08-.17-.08-.17c.08-.29-.11-.72-.11-.73h0s.01,0,.01,0c0,0,.23.13.27.65l-.08.25ZM14.07,9.47l.08.15.07-.23c-.03-.44-.2-.6-.25-.63.03.08.17.45.1.71Z"/>
              </g>
              <g>
                <path class="cls-19" d="M14.34,8.71s-.25.39-.19,1.03l.14-.04v-.34s0-.47.06-.65Z"/>
                <path class="cls-21" d="M14.15,9.74h0c-.06-.64.19-1.03.2-1.04l.02-.03v.04c-.07.18-.06.64-.06.65v.34s-.02,0-.02,0l-.14.04ZM14.33,8.74c-.06.11-.22.46-.17.98l.13-.04v-.33s0-.41.05-.61Z"/>
              </g>
              <g>
                <path class="cls-19" d="M14.03,10.5s.05-1.05-.12-1.25c0,0,.27.05.31.63v.6l-.19.03Z"/>
                <path class="cls-21" d="M14.03,10.51h0s.05-1.06-.12-1.25h0s.01,0,.01,0c0,0,.28.06.32.63v.6h0s-.2.03-.2.03ZM13.92,9.26c.16.22.12,1.14.12,1.24l.18-.03v-.59c-.03-.48-.24-.59-.3-.62Z"/>
              </g>
              <g>
                <path class="cls-19" d="M14.34,10.47s.02-1.06.1-1.27c0,0-.3.09-.27,1.3l.18-.03ZM14.19,7.35s0-.14-.02-.24"/>
                <path class="cls-21" d="M14.16,10.51h0c-.03-1.2.26-1.31.28-1.31h0s0,0,0,0c-.08.21-.1,1.25-.1,1.26h0s0,0,0,0l-.18.04ZM14.43,9.21c-.05.03-.28.23-.26,1.29l.17-.03c0-.08.02-1.03.09-1.25ZM14.2,7.35h0s0-.14-.02-.24h0c.03.09.02.23.02.24Z"/>
              </g>
              <g>
                <path class="cls-19" d="M13.1,7.59s.1-.15.2-.16c0,0-.13.21-.18.28,0,0,.13-.04.2-.16,0,0-.1.23-.09.29,0,0,.1-.1.14-.22,0,0,0,.12-.01.19,0,0,.09-.14.12-.24,0,0-.01.13,0,.19,0,0,.05-.19.1-.27,0,0-.03.27-.06.33,0,0,.07-.06.09-.2,0,0,.02-.13.06-.17,0,0-.05.21-.05.25,0,0,.07-.06.13-.26,0,0-.04.15,0,.23,0,0,.03-.19.09-.25,0,0,0,.04.03.11,0,0,0-.13.04-.18,0,0,.01.1.03.13,0,0,.01-.12.04-.18,0,0,0,.07.03.11,0,0,0-.11.04-.21l-.02-.13s-.08.03-.12,0c0,0,.01.04.02.05,0,0-.08-.03-.11-.03,0,.02.02.04.03.06,0,0-.05-.03-.13-.02,0,0,.05.03.06.05,0,0-.09-.04-.2-.04,0,0,.04.04.05.08,0,0-.08-.05-.18-.02,0,0,.05.04.06.07,0,0-.13-.02-.22,0,0,0,.1.02.17.07,0,0-.38-.11-.41.09,0,0,.09-.09.18-.05,0,0-.16.07-.15.21h0ZM14.31,7.13s.05-.11.11-.16c0,0,0,.03,0,.08,0,0,.07-.15.19-.19,0,0-.08.1-.1.17,0,0,.1-.15.19-.15,0,0-.08.07-.09.11,0,0,.11-.13.26-.14,0,0-.07.04-.1.1,0,0,.17-.14.34-.1,0,0-.1.02-.15.08,0,0,.17-.1.37-.09,0,0-.15.04-.23.11,0,0,.3-.12.43,0,0,0-.14-.02-.17.02,0,0,.19.03.26.11,0,0-.18-.01-.25-.05,0,0,.1.13.15.18,0,0-.13-.04-.25-.14,0,0,.08.13.12.17l-.24-.18s.16.22.2.25c0,0-.26-.14-.33-.24,0,0,.1.13.12.26,0,0-.15-.21-.3-.28,0,0,.16.12.14.27,0,0-.14-.21-.27-.23,0,0,.13.06.13.18,0,0-.1-.12-.24-.17,0,0,.11.07.11.15,0,0-.08-.11-.18-.12,0,0,.08.04.09.13,0,0-.1-.1-.15-.1,0,0,.03.08.07.12,0,0-.17-.05-.23-.09v-.05ZM14.19,7.08s-.01-.37-.1-.45c0,0,0,.06-.03.11,0,0,.02-.2-.07-.29,0,0,0,.07-.03.1,0,0,.03-.21-.04-.28,0,0,0,.13-.04.18,0,0,.02-.21-.05-.29,0,0,0,.07-.02.15,0,0,.01-.15-.07-.23,0,0,.02.07,0,.15,0,0,0-.22-.13-.28,0,0,.06.09.04.17,0,0-.08-.23-.2-.24,0,0,.06.07.07.14,0,0-.19-.19-.34-.17,0,0,.14.08.19.16,0,0-.31-.11-.36.12,0,0,.18-.14.35-.05,0,0-.28-.02-.27.22,0,0,.16-.21.39-.12,0,0-.32,0-.15.24,0,0,0-.31.29-.11,0,0-.27-.06-.21.16,0,0,.11-.2.36.02,0,0-.26-.14-.25.05,0,0,.11-.11.32.07,0,0-.18-.12-.26.03,0,0,.2-.06.32.11,0,0-.19-.04-.25.03,0,0,.24-.02.32.09,0,0-.16-.07-.25,0,0,0,.21.02.31.09,0,0-.1-.01-.15.02,0,0,.2.03.25.13l.05-.02Z"/>
                <path class="cls-21" d="M13.22,7.85h0c0-.05.04-.18.07-.25-.07.08-.17.11-.17.12h-.02s.01,0,.01,0c.05-.06.15-.23.18-.27-.09.02-.18.16-.18.16h0s0,0,0,0c0-.12.1-.19.14-.21-.01,0-.02,0-.03,0-.07,0-.13.06-.13.06h-.01s0,0,0,0c0-.04.02-.07.06-.09.09-.06.26-.03.33-.01-.07-.04-.14-.06-.14-.06h-.02s.02,0,.02,0c.08-.02.18,0,.21,0,0-.02-.04-.05-.05-.06h0s0,0,0,0c.02,0,.04,0,.06,0,.05,0,.09.02.11.03-.02-.03-.04-.06-.05-.06h0s.01,0,.01,0h0c.07,0,.14.02.17.04-.01-.01-.03-.03-.04-.03h-.01s.02,0,.02,0h0c.05,0,.09.01.11.02,0-.01-.02-.03-.02-.04h0s0,0,0,0c.03,0,.08.02.1.03,0-.02-.01-.04-.01-.04h0s.01,0,.01,0c.03.02.12,0,.12,0h0s0,0,0,0l.02.13c-.03.1-.04.21-.04.21v.02s0-.01,0-.01c-.02-.03-.03-.07-.03-.1-.02.06-.04.16-.04.16h0s0,0,0,0c-.02-.03-.03-.09-.03-.12-.02.06-.03.16-.03.17v.02s0-.02,0-.02c-.03-.05-.03-.08-.04-.1-.05.07-.08.24-.08.24h0s0,0,0,0c-.03-.04-.02-.11-.02-.16-.05.14-.11.19-.11.19h0s0,0,0,0c0-.04.03-.18.04-.23-.03.05-.05.15-.05.15-.02.14-.09.2-.09.2h-.02s0,0,0,0c.02-.05.05-.25.06-.31-.05.08-.09.25-.09.25v.02s0-.02,0-.02c0-.04,0-.11,0-.16-.04.09-.11.21-.11.21v.02s0-.02,0-.02c0-.04,0-.12.01-.16-.04.11-.13.19-.13.19h0ZM13.31,7.55h0s-.09.21-.09.28c.02-.03.1-.11.13-.21v-.04s0,.04,0,.04c0,0,0,.1,0,.17.03-.04.08-.15.11-.22v-.04s0,.04,0,.04c0,0,0,.1,0,.16.01-.05.05-.19.1-.25h.01s0,0,0,0c0,0-.03.23-.05.31.02-.03.06-.08.07-.18,0,0,.02-.13.06-.17h.01s0,0,0,0c0,0-.04.18-.05.24.02-.02.08-.09.12-.25h0s-.04.14,0,.22c0-.05.04-.19.09-.24h0s0,0,0,0c0,0,0,.04.03.09,0-.04.01-.12.04-.17h0s0,0,0,0c0,0,0,.08.02.12,0-.04.02-.12.04-.16v-.02s0,.02,0,.02c0,0,0,.05.03.1,0-.03.01-.12.04-.19v-.12s-.09.02-.12,0c0,.01.01.04.01.04h0s-.01,0-.01,0c0,0-.07-.03-.1-.03,0,.02.02.03.03.05v.02s0,0,0,0c0,0-.05-.02-.12-.03.02.01.04.03.05.04h0s-.01,0-.01,0c0,0-.09-.04-.18-.04.01.01.03.04.05.07h0s-.01,0-.01,0c0,0-.08-.05-.17-.03.02.01.05.04.05.06h0s0,0,0,0c0,0-.11-.01-.2,0,.03,0,.1.03.16.07l.03.02h-.03s-.24-.08-.35,0c-.03.02-.04.04-.05.07.03-.02.1-.07.17-.04h0s0,0,0,0c0,0-.14.07-.14.19.03-.04.11-.14.19-.15h.01s0,0,0,0c0,0-.11.19-.17.26.04-.02.13-.06.18-.15ZM15.16,7.34v-.02s-.14-.17-.27-.26c.05.04.12.14.1.24h0s0,0,0,0c0,0-.12-.18-.24-.22.04.03.1.08.11.17h0s0,0,0,0c0,0-.08-.1-.21-.15.03.03.09.08.08.14h0s0,0,0,0c0,0-.07-.09-.16-.12.03.02.06.06.07.12h0s0,0,0,0c0,0-.09-.08-.14-.1,0,.02.03.08.07.11h.01s-.02,0-.02,0c0,0-.17-.05-.23-.09v-.05s.05-.11.11-.16h.01s0,0,0,0c0,0,0,.02,0,.06.02-.04.09-.15.19-.18h.02s0,0,0,0c0,0-.06.07-.08.14.03-.04.11-.12.17-.12h.01,0s-.05.06-.08.1c.04-.04.13-.12.24-.12h.02-.02s-.05.04-.09.08c.04-.03.15-.09.26-.09.02,0,.04,0,.06,0h.02s-.02,0-.02,0c0,0-.08.02-.13.06.05-.02.18-.08.34-.08h.05s-.04,0-.04,0c0,0-.13.03-.21.09.08-.03.3-.09.41,0h.01s-.02,0-.02,0c0,0-.12-.02-.16.01.04,0,.2.04.26.12h0s-.01,0-.01,0c0,0-.15-.01-.23-.04.03.04.1.12.14.16h.01s-.02,0-.02,0c0,0-.12-.03-.23-.12.03.04.08.11.1.14h0s-.22-.16-.22-.16c.04.06.15.2.18.22h0s0,0,0,0h0s-.19-.11-.28-.19c.03.05.07.13.08.21v.02ZM14.81,7.02l.04.02c.13.06.25.21.29.26-.02-.11-.1-.21-.11-.23,0,0,0,0,0,0h0s0,0,0,0c.05.07.21.17.28.21-.06-.07-.16-.21-.17-.22l-.02-.03.24.18c-.04-.05-.09-.14-.1-.14l-.02-.03.03.02c.09.08.19.12.23.14-.05-.06-.14-.16-.14-.16v-.02s0,0,0,0c.06.03.19.04.23.05-.07-.08-.25-.1-.25-.1h0s0,0,0,0c.03-.04.12-.03.16-.03-.13-.08-.4.02-.41.02h-.02s.02,0,.02,0c.05-.05.15-.08.2-.1-.18,0-.33.09-.33.09h-.02s.01,0,.01,0c.03-.04.1-.07.13-.08-.01,0-.03,0-.04,0-.14,0-.27.1-.28.1l-.02.02v-.02s.08-.07.1-.09c-.13.01-.23.13-.23.13h-.01s0,0,0,0c0-.03.06-.08.08-.11-.08.01-.17.14-.17.14l-.02.02v-.03c.02-.05.07-.13.1-.16-.11.05-.17.18-.17.18h0s0,0,0,0c0-.03,0-.05,0-.07-.05.05-.09.14-.09.15v.05s.17.06.21.08c-.03-.04-.06-.11-.06-.11h0s0,0,0,0c.04,0,.11.07.14.1-.01-.07-.08-.11-.08-.11h-.03s.03,0,.03,0c.09,0,.15.08.18.11,0-.07-.1-.13-.1-.14l-.03-.02h.04c.12.05.21.14.24.17-.01-.1-.13-.16-.13-.16h-.03s.03,0,.03,0c.12.02.24.18.27.22.01-.13-.13-.25-.14-.25l-.04-.03ZM14.13,7.11h0c-.04-.1-.25-.13-.25-.13h-.01s.01,0,.01,0c.03-.02.07-.02.1-.02.01,0,.02,0,.03,0-.11-.06-.29-.08-.29-.08h-.01s0,0,0,0c.07-.05.19-.02.23,0-.09-.09-.3-.07-.3-.07h-.01s0,0,0,0c.06-.06.2-.04.24-.04-.11-.15-.3-.1-.3-.1h-.01s0,0,0,0c.02-.04.05-.06.08-.07.05-.02.1,0,.14.02-.17-.14-.27-.05-.27-.04h0s0,0,0,0c0-.05,0-.08.03-.09.05-.03.13,0,.18.02-.06-.05-.12-.07-.18-.07,0,0-.02,0-.03,0-.07.01-.11.08-.11.08h0s0,0,0,0c-.02-.06-.01-.1.01-.13.04-.05.13-.04.17-.04-.08-.05-.15-.06-.19-.04-.07.04-.07.16-.07.16v.02h0c-.05-.09-.07-.15-.04-.19.03-.06.12-.07.16-.07-.21-.06-.36.13-.36.13h0s0,0,0,0c0-.06.02-.12.06-.15.06-.06.15-.07.19-.07-.16-.06-.32.06-.32.06h-.01s0,0,0,0c.01-.06.04-.1.09-.12.09-.05.22-.02.27,0-.06-.08-.18-.14-.18-.15h-.01s.01,0,.01,0c.13-.02.28.12.33.16-.02-.06-.07-.13-.07-.13h0s.01,0,.01,0c.1.01.18.17.2.23,0-.07-.04-.14-.04-.14v-.02s0,0,0,0c.1.05.13.19.13.25,0-.07,0-.12,0-.12v-.02s0,.01,0,.01c.06.06.07.16.07.21.02-.06.01-.12.01-.12h0s0,0,0,0c.06.06.06.22.06.27.03-.06.03-.16.03-.16h0s0,0,0,0c.06.06.05.22.04.27.02-.03.02-.09.02-.09h0s0,0,0,0c.08.07.08.22.08.27.02-.04.02-.09.02-.09h0s0,0,0,0c.09.08.1.44.1.46h0s0,0,0,0l-.06.02ZM13.9,6.97s.19.04.24.12l.05-.02s-.02-.35-.09-.44c0,.02,0,.07-.03.1h-.01s0,0,0,0c0,0,.02-.19-.06-.28,0,.02,0,.07-.04.1h0s0,0,0,0c0,0,.03-.19-.03-.26,0,.03,0,.13-.04.17h-.01s0,0,0,0c0,0,.02-.19-.04-.27,0,.03,0,.08-.03.14v.03s0-.03,0-.03c0,0,0-.13-.05-.22,0,.03.01.08,0,.14v.03s0-.03,0-.03c0,0,0-.2-.12-.26.02.03.04.1.03.15v.02s0-.02,0-.02c0,0-.07-.21-.18-.24.02.02.06.08.07.14v.02s0-.01,0-.01c0,0-.17-.17-.31-.17h0s.13.09.18.15h0s-.01,0-.01,0c0,0-.17-.06-.27,0-.04.02-.07.06-.08.1.04-.03.2-.12.34-.04h.02s-.02,0-.02,0h-.02s-.13,0-.2.06c-.04.03-.05.08-.05.13.04-.04.19-.19.39-.12h.03s-.03,0-.03,0h0s-.14,0-.18.07c-.02.04,0,.09.03.15,0-.03.02-.12.08-.15.05-.03.13-.01.22.05h.02s-.03,0-.03,0c0,0-.13-.03-.19.03-.02.03-.03.06-.02.11.01-.02.05-.06.11-.07,0,0,.02,0,.03,0,.06,0,.14.04.21.1l.03.03-.04-.02s-.15-.08-.21-.04c-.02.01-.03.04-.03.08.03-.02.14-.08.31.08h0s-.07-.04-.14-.04c-.01,0-.02,0-.04,0-.03,0-.05.03-.07.06.04,0,.21-.03.31.12h0s-.01,0-.01,0c0,0-.17-.03-.23.02.05,0,.24,0,.31.09v.02s0,0,0,0c0,0-.14-.07-.23-.02.05,0,.21.03.3.09h.02s-.02,0-.02,0c0,0-.08,0-.13,0Z"/>
              </g>
            </g>
            <g>
              <path class="cls-21" d="M13.39,7.39h-.01s.23,0,.37-.11c0,0,.15-.13.36-.13h0c-.21.01-.35.14-.36.14-.12.1-.32.1-.36.1Z"/>
              <g>
                <path class="cls-19" d="M15.27,7.62s-.11-.15-.21-.16c0,0,.14.22.2.28,0,0-.14-.04-.21-.16,0,0,.12.24.11.3,0,0-.11-.1-.15-.23,0,0,0,.13.02.2,0,0-.1-.15-.14-.25,0,0,.02.13,0,.2,0,0-.06-.2-.12-.28,0,0,.04.28.07.35,0,0-.07-.06-.1-.21,0,0-.03-.13-.07-.17,0,0,.06.22.06.26,0,0-.08-.06-.15-.27,0,0,.05.16,0,.24,0,0-.04-.2-.11-.26,0,0,0,.04-.03.12,0,0-.02-.14-.05-.19,0,0,0,.1-.03.14,0,0-.02-.13-.05-.18,0,0,0,.07-.03.12,0,0-.03-.13-.07-.24v-.08s.12-.01.15-.04c0,0-.01.04-.02.06,0,0,.08-.04.11-.04,0,0-.02.03-.03.06,0,0,.06-.03.14-.03,0,0-.05.04-.06.05,0,0,.1-.05.2-.05,0,0-.04.04-.05.08,0,0,.08-.05.19-.03,0,0-.06.05-.06.07,0,0,.14-.02.23,0,0,0-.1.03-.18.08,0,0,.4-.13.43.08,0,0-.1-.09-.19-.05,0,0,.17.07.16.22h0Z"/>
                <path class="cls-21" d="M15.17,7.9h0s-.09-.09-.14-.2c0,.04,0,.12.02.16v.02s0-.02,0-.02c0,0-.08-.12-.13-.22,0,.04.01.12,0,.16v.02s0-.02,0-.02c0,0-.05-.17-.11-.26.01.07.04.27.07.32v.02s0-.01,0-.01c0,0-.08-.06-.1-.21,0,0-.02-.1-.06-.15.02.06.05.2.06.24h0s0,0,0,0c0,0-.06-.05-.12-.2,0,.05.01.12-.01.17h0s0,0,0,0c0,0-.04-.18-.09-.25,0,.02,0,.05-.03.1v.02s0-.02,0-.02c0,0-.01-.11-.04-.17,0,.03-.01.1-.03.12h0s0,0,0,0c0,0-.02-.11-.04-.17,0,.02-.01.07-.03.1h0s0,0,0,0c0,0-.03-.13-.07-.24l.02-.08h0s.1-.01.14-.04h.01s0,0,0,0c0,0,0,.03-.01.05.02-.01.08-.03.1-.03h.01s0,0,0,0c0,0-.02.02-.03.05.02,0,.07-.03.13-.03h.02-.01s-.03.03-.04.04c.04-.01.11-.04.18-.04h.01,0s-.03.04-.04.08c.03-.01.1-.04.18-.03h.01s0,0,0,0c-.01.01-.05.04-.05.06.03,0,.14-.02.22,0h.02s-.02,0-.02,0c0,0-.08.02-.15.06.07-.02.25-.06.34,0,.03.02.06.05.06.09v.02s0-.01,0-.01c0,0-.06-.06-.13-.06-.01,0-.03,0-.04,0,.04.02.16.09.15.22h0s0,0,0,0c0,0-.1-.14-.2-.16.03.04.14.21.2.27h.01s-.02,0-.02,0c0,0-.11-.03-.18-.11.03.07.09.21.08.25h0ZM15,7.62v.04c.05.11.13.19.15.22,0-.07-.11-.28-.11-.29h0c.05.08.15.13.19.14-.06-.08-.19-.27-.19-.27h0s.01,0,.01,0c.09,0,.18.12.21.15,0-.13-.16-.2-.16-.2h-.01s.01,0,.01,0c.07-.03.15.01.18.04,0-.03-.03-.05-.05-.07-.12-.07-.37.01-.37.01h-.03s.03,0,.03,0c.05-.04.12-.07.16-.08-.02,0-.03,0-.05,0-.08,0-.15.01-.15.01h0s0,0,0,0c0-.02.03-.05.05-.07-.1-.01-.17.03-.17.03h-.01s0,0,0,0c.01-.03.03-.06.04-.07-.1,0-.19.05-.19.05h-.01s0,0,0,0c0-.01.03-.03.05-.04-.07,0-.12.03-.12.03h-.01s0,0,0,0c0-.02.02-.04.03-.05-.04,0-.1.04-.1.04h-.02s0,0,0,0c0,0,.01-.03.01-.04-.04.02-.11.03-.13.03v.07c.02.08.04.18.05.22.02-.04.03-.1.03-.1v-.02s0,.01,0,.01c.02.04.04.13.05.17.01-.04.02-.12.02-.12v-.02s0,.01,0,.01c.03.04.04.13.05.17.02-.06.02-.09.02-.1h0s0,0,0,0c.05.05.09.2.1.25.03-.08-.01-.22-.01-.22h0c.06.16.12.23.14.25,0-.06-.06-.25-.06-.25v-.02s0,.01,0,.01c.04.04.07.17.07.17.02.1.06.16.08.19-.03-.09-.06-.31-.07-.33v-.02s0,.02,0,.02c.05.06.09.2.11.25,0-.07,0-.17,0-.17v-.04s0,.04,0,.04c.03.08.1.18.12.23-.01-.07-.02-.18-.02-.18v-.04Z"/>
              </g>
            </g>
            <g>
              <path class="cls-21" d="M14.02,7.1c-.31-.61-1.2-.66-1.21-.66h0s.91.04,1.22.65h0ZM14.15,7.1c-.14-.64-.79-1.07-.79-1.08h0s.66.43.8,1.07h0Z"/>
              <g>
                <path class="cls-4" d="M14.11,5.9h.09v1.27h-.09v-1.27Z"/>
                <path class="cls-7" d="M14.2,7.18h-.1v-1.28h.1v1.28ZM14.11,7.17h.08v-1.26h-.08v1.26Z"/>
              </g>
              <g>
                <g>
                  <path class="cls-19" d="M14.01,7.05s-.07-.19-.19-.25c0,0,.09.12.08.17,0,0-.07-.15-.19-.19,0,0,.08.1.1.17,0,0-.1-.15-.19-.15,0,0,.08.07.09.11,0,0-.11-.13-.26-.14,0,0,.07.04.1.1,0,0-.17-.14-.34-.1,0,0,.1.02.15.08,0,0-.17-.1-.37-.09,0,0,.15.04.23.11,0,0-.3-.12-.43,0,0,0,.14-.02.17.02,0,0-.19.03-.26.11,0,0,.18-.01.25-.05,0,0-.1.13-.15.18,0,0,.13-.04.25-.14,0,0-.08.13-.12.17l.24-.18s-.16.22-.2.25c0,0,.26-.14.33-.24,0,0-.1.13-.12.26,0,0,.15-.21.3-.28,0,0-.16.12-.14.27,0,0,.14-.21.27-.23,0,0-.13.06-.13.18,0,0,.1-.12.24-.17,0,0-.11.07-.11.15,0,0,.08-.11.18-.12,0,0-.08.04-.09.13,0,0,.1-.1.15-.1,0,0-.03.08-.07.12,0,0,.23-.06.29-.1l-.06-.04Z"/>
                  <path class="cls-21" d="M13.15,7.26v-.02c.01-.08.05-.16.08-.21-.1.09-.27.19-.28.19h0,0s.14-.17.18-.23l-.22.16h0s.08-.11.1-.15c-.11.09-.23.12-.23.12h-.02s.02,0,.02,0c.04-.04.11-.12.14-.16-.08.03-.22.04-.23.04h-.01s0,0,0,0c.06-.08.22-.11.26-.12-.04-.03-.16-.01-.16-.01h-.02s.01,0,.01,0c.11-.09.33-.03.41,0-.08-.06-.2-.09-.2-.09h-.04s.04,0,.04,0h.01c.15,0,.29.05.34.08-.05-.04-.13-.06-.13-.06h-.02s.02,0,.02,0c.02,0,.04,0,.07,0,.11,0,.21.06.26.09-.03-.04-.08-.07-.09-.07h-.02s.02,0,.02,0c.11,0,.2.08.24.12-.02-.04-.08-.09-.08-.09h0s.01,0,.01,0c.07,0,.14.08.18.12-.03-.06-.08-.14-.08-.14h0s.02,0,.02,0c.1.03.16.13.19.17-.01-.05-.08-.14-.08-.14v-.02s0,0,0,0c.12.06.18.23.19.25l.07.04h0c-.06.04-.28.1-.29.1h-.02s.01,0,.01,0c.03-.03.06-.09.07-.11-.05.02-.14.1-.14.1h0s0,0,0,0c0-.06.04-.1.07-.12-.09.02-.16.12-.16.12h0s0,0,0,0c0-.06.05-.11.08-.14-.12.05-.21.15-.21.16h0s0,0,0,0c0-.08.07-.14.11-.17-.12.04-.24.22-.24.22h0s0,0,0,0c-.02-.1.06-.2.11-.24-.13.08-.26.25-.26.26v.02ZM13.28,7s-.09.12-.11.23c.04-.05.17-.21.29-.26l.04-.02-.04.03s-.15.11-.14.25c.03-.04.15-.21.27-.22h.03s-.03,0-.03,0c0,0-.12.06-.13.16.03-.03.12-.12.24-.16h.04s-.03,0-.03,0c0,0-.1.06-.11.14.02-.03.09-.1.18-.11h.03s-.02,0-.02,0c0,0-.07.04-.08.11.03-.02.1-.09.14-.1h0s0,0,0,0c0,0-.03.07-.06.11.05-.01.21-.05.26-.09l-.06-.04s-.06-.17-.17-.24c.03.04.08.11.07.15v.02s0-.01,0-.01c0,0-.07-.14-.17-.18.02.03.07.1.09.16v.03s0-.02,0-.02c0,0-.09-.13-.17-.14.02.02.08.07.08.11v.02s0-.01,0-.01c0,0-.1-.12-.23-.13.02.02.07.05.09.09v.02s0-.02,0-.02c0,0-.13-.1-.28-.1-.01,0-.03,0-.04,0,.03.01.1.04.13.08v.02s0-.01,0-.01c0,0-.15-.08-.33-.09.05.02.14.05.19.1l.02.02h-.02s-.28-.12-.41-.03c.04,0,.13-.01.16.02h0s0,0,0,0c0,0-.18.03-.25.1.04,0,.17-.02.23-.05h.02s-.01,0-.01,0c0,0-.08.11-.14.16.04-.01.14-.06.23-.14l.03-.02-.02.03s-.05.09-.1.14l.24-.17-.02.03s-.11.15-.17.22c.07-.04.23-.14.28-.21,0,0,0,0,0,0h0s0,0,0,0Z"/>
                </g>
                <g>
                  <path class="cls-19" d="M13.07,6.91s.63,0,.91.14"/>
                  <path class="cls-21" d="M13.98,7.06c-.27-.14-.89-.14-.9-.14h0s.64,0,.91.13h0Z"/>
                </g>
              </g>
              <path class="cls-21" d="M14.29,7.13h0c.25-.17.97-.15.98-.15h0s-.03,0-.08,0c-.19,0-.69.01-.89.14Z"/>
            </g>
            <path class="cls-21" d="M14.96,7.43s-.24,0-.36-.1c0,0-.15-.13-.36-.13h0c.21,0,.36.12.36.13.12.09.31.1.36.1h.01s0,0-.01,0Z"/>
            <g>
              <g>
                <path class="cls-19" d="M14.23,7.13s.04-.18.22-.33c0,0-.03.06-.03.13,0,0,.08-.21.22-.3,0,0-.06.09-.07.15,0,0,.1-.18.21-.22,0,0-.02.05-.03.1,0,0,.09-.15.26-.22,0,0-.06.08-.07.12,0,0,.14-.21.26-.23,0,0-.12.12-.13.2,0,0,.14-.19.29-.25,0,0-.13.11-.18.23,0,0,.16-.23.38-.2,0,0-.2.07-.27.19,0,0,.13-.15.41-.1,0,0-.18.03-.23.09,0,0,.35-.11.46.02,0,0-.22-.05-.28.01,0,0,.3-.02.41.12,0,0-.2-.06-.28-.06,0,0,.21.05.25.24,0,0-.17-.16-.36-.22,0,0,.23.13.23.27,0,0-.26-.23-.35-.28,0,0,.18.12.18.28,0,0-.17-.2-.28-.25,0,0,.17.15.18.27,0,0-.22-.23-.33-.26,0,0,.2.13.23.26,0,0-.24-.22-.3-.21,0,0,.13.09.15.19,0,0-.14-.14-.27-.16,0,0,.08.05.1.13,0,0-.16-.14-.29-.12,0,0,.11.05.15.13,0,0-.16-.07-.22-.05,0,0,.07.06.09.11,0,0-.17-.08-.24-.08,0,0,.11.07.15.13,0,0-.14-.06-.24-.04,0,0,.12.08.14.14,0,0-.22-.08-.27-.07,0,0,.11.07.13.11,0,0-.19-.06-.3.04l-.07-.02Z"/>
                <path class="cls-21" d="M14.31,7.15l-.08-.02h0s.05-.18.23-.34h.02s0,0,0,0c0,0-.02.04-.03.09.03-.06.1-.2.21-.27h.02s-.01,0-.01,0c0,0-.04.06-.06.11.04-.05.11-.16.19-.19h.01s0,0,0,0c0,0-.02.03-.02.07.03-.04.11-.15.24-.2h.02s-.01,0-.01,0c0,0-.04.05-.05.09.04-.06.15-.19.24-.2h.02s-.01,0-.01,0c0,0-.09.1-.12.17.04-.05.16-.18.28-.23h.03s-.02,0-.02,0c0,0-.1.09-.16.19.05-.06.17-.17.32-.17.01,0,.02,0,.04,0h.02s-.02,0-.02,0c0,0-.16.05-.24.15.06-.04.18-.1.38-.07h.03s-.03,0-.03,0c0,0-.15.02-.21.07.08-.02.35-.09.44.03h0s-.01,0-.01,0c0,0-.19-.04-.27,0h.02c.08,0,.29.01.38.12h0s-.01,0-.01,0c0,0-.14-.04-.23-.05.06.03.18.09.21.23v.02s0-.01,0-.01c0,0-.14-.14-.32-.2.07.04.2.15.2.25h0s0,0,0,0c0,0-.16-.14-.27-.23.05.05.11.13.11.23h0s0,0,0,0c0,0-.13-.16-.24-.23.05.05.14.15.15.24h0s0,0,0,0c0,0-.18-.19-.29-.24.06.04.18.14.2.24h0s0,0,0,0c-.07-.07-.22-.19-.28-.21.04.03.12.1.13.18v.02s0-.01,0-.01c0,0-.12-.12-.24-.15.03.02.07.06.08.12h0s-.01,0-.01,0c0,0-.14-.12-.26-.12.03.02.1.06.14.13h0s-.01,0-.01,0c0,0-.12-.05-.2-.05,0,0-.01,0-.02,0,.02.02.07.06.08.11h0s0,0,0,0c0,0-.15-.07-.22-.08.03.02.11.08.13.12h0s-.01,0-.01,0c0,0-.11-.04-.2-.04,0,0-.01,0-.02,0,.03.02.11.08.13.13h0s-.01,0-.01,0c-.07-.03-.2-.07-.25-.07h0s.1.07.12.1h0s-.01,0-.01,0c0,0-.18-.06-.3.04ZM14.24,7.12l.07.02c.09-.08.24-.06.29-.05-.04-.04-.12-.09-.12-.1h0s0,0,0,0c0,0,.01,0,.02,0,.06,0,.2.05.25.06-.03-.05-.13-.12-.13-.12h0s.01,0,.01,0c.08-.01.18.02.22.04-.04-.05-.13-.11-.13-.11h-.01s.02,0,.02,0h0c.06,0,.19.06.23.07-.02-.05-.08-.1-.08-.1h0s0,0,0,0c0,0,.02,0,.03,0,.06,0,.15.04.19.05-.04-.08-.14-.12-.14-.12h-.02s.02,0,.02,0c0,0,0,0,.01,0,.11,0,.23.09.26.12-.02-.07-.09-.12-.09-.12h-.02s.03,0,.03,0c.11.02.22.11.26.15-.03-.09-.14-.17-.14-.17h-.01s.01,0,.01,0h0c.06,0,.24.16.29.21-.03-.12-.22-.24-.22-.24l-.02-.02h.03c.1.03.28.21.33.25-.02-.11-.17-.25-.17-.25l-.03-.02.03.02c.09.05.23.2.27.24,0-.15-.18-.26-.18-.27h0c.08.03.29.22.34.26-.01-.12-.23-.25-.23-.25l-.04-.02h.04c.16.06.31.18.35.22-.05-.18-.24-.22-.25-.22h-.05s.05,0,.05,0c.07,0,.21.04.26.05-.09-.09-.29-.1-.37-.1-.02,0-.03,0-.03,0h-.01s0,0,0,0c.06-.05.22-.03.27-.02-.11-.11-.44-.01-.44,0h-.02s.01,0,.01,0c.04-.05.15-.07.2-.08-.03,0-.06,0-.08,0-.2,0-.3.1-.3.11h0c.06-.1.2-.17.26-.19h-.01c-.2,0-.34.2-.34.2l-.03.04.02-.04c.04-.09.12-.18.16-.22-.14.07-.26.24-.26.24v.02s0-.02,0-.02c.01-.07.09-.16.12-.19-.11.04-.24.22-.24.22v.02s0-.02,0-.02c0-.03.04-.08.06-.11-.15.07-.24.21-.24.21v.02s0-.02,0-.02c0-.04.02-.07.02-.08-.1.05-.2.21-.2.22l-.02.03v-.03s.05-.11.07-.14c-.13.09-.2.28-.2.29v.03s0-.03,0-.03c0-.04.02-.09.02-.11-.15.13-.2.28-.21.31Z"/>
              </g>
              <path class="cls-21" d="M14.28,7.12h0c.49-.58,1.11-.6,1.23-.6h.02s0,0-.02,0c-.12,0-.74.03-1.22.59Z"/>
              <g>
                <path class="cls-19" d="M14.16,7.15s.02-.45.11-.53c0,0,0,.06.03.11,0,0-.02-.2.07-.29,0,0,0,.07.03.1,0,0-.03-.21.04-.28,0,0,0,.13.04.18,0,0-.02-.21.05-.29,0,0,0,.07.02.15,0,0-.01-.15.07-.23,0,0-.02.07,0,.15,0,0,0-.22.13-.28,0,0-.06.09-.04.17,0,0,.08-.23.2-.24,0,0-.06.07-.07.14,0,0,.19-.19.34-.17,0,0-.14.08-.19.16,0,0,.31-.11.36.12,0,0-.18-.14-.35-.05,0,0,.28-.02.27.22,0,0-.16-.21-.39-.12,0,0,.32,0,.15.24,0,0,0-.31-.29-.11,0,0,.27-.06.21.16,0,0-.11-.2-.36.02,0,0,.26-.14.25.05,0,0-.11-.11-.32.07,0,0,.18-.12.26.03,0,0-.2-.06-.32.11,0,0,.19-.04.25.03,0,0-.24-.02-.32.09,0,0,.16-.07.25,0,0,0-.21.02-.31.09,0,0,.1-.01.15.02,0,0-.22.05-.27.15l-.04.03Z"/>
                <path class="cls-21" d="M14.16,7.16h0s.02-.46.11-.54h0s0,0,0,0c0,0,0,.05.02.09,0-.05,0-.2.08-.27h0s0,0,0,0c0,0,0,.05.02.09,0-.05-.02-.21.04-.27h0s0,0,0,0c0,0,0,.11.03.16,0-.05,0-.21.06-.27h.01s0,0,0,0c0,0,0,.06.01.12,0-.05.01-.15.07-.21h.01s0,0,0,0c0,0-.02.05,0,.12,0-.06.04-.2.13-.25h.02s0,0,0,0c0,0-.05.08-.04.14.02-.06.09-.22.2-.23h.01s0,0,0,0c0,0-.05.06-.07.13.04-.04.18-.16.3-.16,0,0,.02,0,.03,0h.01s-.01,0-.01,0c0,0-.12.07-.18.15.04-.01.17-.05.27,0,.04.02.07.06.09.12h0s-.01,0-.01,0c0,0-.1-.08-.22-.08-.03,0-.07,0-.1.02.04,0,.13,0,.19.07.04.04.06.09.06.15h0s0,0,0,0c0,0-.15-.19-.36-.13.05,0,.13.02.16.07.02.04,0,.1-.04.18h0s0,0,0,0c0,0,0-.12-.07-.16-.05-.02-.11-.01-.19.04.04,0,.13-.01.17.04.03.03.03.07.01.13h0s0,0,0,0c0,0-.04-.06-.11-.08-.06-.01-.13.01-.21.07.05-.02.13-.05.18-.02.03.02.04.05.03.09h0s0,0,0,0c0,0-.1-.09-.27.04.04-.02.09-.03.14-.02.04,0,.06.04.08.07h0s0,0,0,0c0,0-.2-.05-.3.1.04,0,.19-.03.24.04h0s-.01,0-.01,0c0,0-.21-.02-.3.07.05-.02.16-.05.23,0h0s-.01,0-.01,0c0,0-.18.02-.29.08.03,0,.09,0,.13.02h0s-.01,0-.01,0c0,0-.22.05-.27.15l-.05.04ZM14.27,6.63c-.07.09-.09.44-.1.5l.03-.03c.04-.09.21-.14.26-.15-.05-.02-.13-.01-.13-.01h-.02s.02,0,.02,0c.09-.06.25-.08.3-.09-.09-.05-.23.02-.23.02h-.02s.01,0,.01,0c.07-.1.26-.1.31-.09-.07-.05-.23-.02-.23-.02h-.01s0,0,0,0c.1-.15.27-.12.31-.12-.02-.03-.04-.05-.07-.06-.01,0-.02,0-.04,0-.07,0-.14.04-.14.04h0c.17-.17.28-.11.31-.09,0-.04,0-.06-.03-.08-.01,0-.03-.01-.05-.01-.07,0-.16.05-.16.05l-.04.02.03-.03c.08-.07.15-.1.21-.1.01,0,.02,0,.03,0,.06.01.1.05.11.07.01-.05,0-.09-.01-.11-.05-.06-.19-.03-.19-.03h-.03s.02,0,.02,0c.1-.06.17-.08.22-.05.06.03.07.12.08.15.04-.07.05-.12.03-.16-.04-.07-.16-.07-.18-.07h-.03s.03,0,.03,0c.04-.01.08-.02.11-.02.14,0,.25.1.28.14,0-.06-.02-.1-.05-.13-.08-.07-.21-.06-.21-.06h-.02s.02,0,.02,0c.04-.02.08-.03.13-.03.1,0,.19.05.22.07-.01-.05-.04-.08-.08-.1-.11-.06-.27,0-.27,0h-.01s0,0,0,0c.04-.07.14-.13.18-.15h0c-.13,0-.31.17-.31.17h-.01s0,0,0,0c0-.06.05-.11.07-.14-.11.03-.18.24-.18.24v.02s0-.02,0-.02c-.01-.06.02-.12.03-.15-.11.07-.12.26-.12.26v.03s0-.03,0-.03c-.02-.06,0-.11,0-.14-.06.08-.05.21-.05.22v.03s0-.03,0-.03c-.02-.06-.03-.11-.03-.14-.06.08-.04.27-.04.27h0s-.01,0-.01,0c-.04-.04-.04-.13-.04-.17-.06.07-.03.26-.03.26h0s0,0,0,0c-.03-.03-.04-.08-.04-.1-.08.08-.06.27-.06.28v.02s0-.01,0-.01c-.03-.04-.03-.08-.03-.1Z"/>
              </g>
            </g>
            <path class="cls-21" d="M14.17,7.14h0c.3-.85.84-1.13.84-1.13h0s-.54.29-.84,1.13Z"/>
            <g>
              <g>
                <path class="cls-19" d="M14.17,7.09s.1-.21.24-.07c0,0-.11-.02-.19.08,0,0,.21-.06.23.08,0,0-.13-.07-.2,0,0,0,.15.02.22.09,0,0-.17-.03-.2,0,0,0,.21.08.16.23,0,0-.02-.09-.11-.14,0,0,.11.12.1.28,0,0-.05-.17-.14-.22,0,0,.13.15.11.3,0,0-.05-.16-.13-.23,0,0,.16.24.09.39,0,0-.03-.19-.11-.31,0,0,.06.16.06.23,0,0,.02.15.06.18,0,0-.13.02-.15-.27,0,0,.03.36-.01.45,0,0-.1-.05-.05-.56,0,0-.03.39-.01.45,0,0-.21-.13,0-.62,0,0-.17.19-.14.35,0,0-.14-.15.08-.43,0,0-.15.09-.17.31,0,0-.15-.14.16-.37,0,0-.16.09-.21.17,0,0-.02-.14.21-.25,0,0-.14-.01-.21.07,0,0,0-.16.23-.13,0,0-.02-.08-.22-.09,0,0,.17-.1.31.05h0Z"/>
                <path class="cls-21" d="M14.19,8.16h0s-.05-.03-.06-.23c0,.05,0,.09,0,.11h0s-.01,0-.01,0c0,0-.2-.13-.01-.59-.04.06-.14.19-.12.32v.02s0-.01,0-.01c0,0-.13-.14.06-.41-.04.04-.13.13-.14.29h0s0,0,0,0c0,0-.04-.04-.04-.11,0-.07.05-.14.13-.21-.05.03-.11.08-.14.12h0s0,0,0,0c0,0-.02-.13.2-.25h0s-.13,0-.18.07h0s0,0,0,0c0,0,0-.05.04-.09.04-.04.1-.05.19-.05,0-.02-.05-.07-.21-.08h-.02s.01,0,.01,0c0,0,.17-.09.32.05.01-.02.06-.1.13-.11.04,0,.08,0,.12.05h.01s-.02,0-.02,0c0,0-.1-.02-.17.07.04,0,.12-.02.18.01.02.02.04.04.04.07h0s0,0,0,0c0,0-.12-.06-.18,0,.03,0,.15.03.22.09h.01s-.02,0-.02,0c-.04,0-.15-.02-.19,0,.04.02.2.1.16.23v.02s0-.02,0-.02c0,0-.02-.07-.09-.12.03.04.09.14.08.26v.03s0-.03,0-.03c0,0-.04-.13-.12-.2.04.05.11.16.09.27v.02s0-.02,0-.02c0,0-.04-.12-.1-.2.04.07.12.24.07.36h0s0,0,0,0c0,0-.02-.15-.09-.27.02.05.04.14.04.19,0,0,.02.14.05.18h0s0,0,0,0c0,0-.03,0-.07-.02-.02-.02-.05-.05-.07-.12,0,.11,0,.27-.02.32h0ZM14.13,7.7c-.02.35.04.43.05.45.03-.08.02-.3.01-.4,0-.01,0-.03,0-.04h0s0,.02,0,.04c.01.12.05.18.08.2.02.02.04.02.05.02-.03-.04-.05-.17-.05-.17,0-.07-.06-.23-.06-.23v-.04s0,.03,0,.03c.07.1.1.25.11.3.06-.14-.09-.37-.09-.37l-.02-.03.02.02c.06.05.1.16.12.21,0-.14-.11-.27-.11-.27l-.02-.02h.02c.07.05.12.16.14.21,0-.14-.09-.25-.1-.25l-.02-.02.03.02c.07.04.1.1.11.13.02-.13-.16-.2-.16-.21h0s0,0,0,0c.03-.02.14-.01.19,0-.08-.05-.21-.08-.21-.08h0s0,0,0,0c.06-.06.16-.02.19,0,0-.02-.02-.04-.04-.05-.06-.04-.18,0-.19,0h-.01s0,0,0,0c.05-.08.13-.09.17-.09h0s-.06-.04-.1-.03c-.07.01-.12.11-.12.11h0s0,0,0,0c-.12-.12-.25-.08-.29-.06.19.02.2.09.2.09h0s0,0,0,0c-.09,0-.15,0-.19.04-.03.02-.03.05-.04.07.07-.07.2-.06.21-.06h.02s-.02,0-.02,0c-.18.09-.21.19-.21.23.06-.08.2-.15.2-.16h0c-.12.1-.19.18-.19.26,0,.05.02.08.03.09.02-.22.17-.3.17-.31h.02s-.02,0-.02,0c-.17.23-.12.36-.09.41-.01-.16.14-.33.14-.33l.02-.02v.03c-.2.42-.07.57-.03.61,0-.06,0-.22,0-.33,0-.03,0-.07,0-.1h0s0,0,0,0c0,0,0,.05,0,.11Z"/>
              </g>
              <g>
                <g>
                  <path class="cls-9" d="M13.93,5.68s-.1.09-.02.16.33.18.36.19.11,0,.11-.21-.03-.49-.21-.55-.25-.04-.32.04-.07.2.17.13c0,0,0,.13-.1.24h0Z"/>
                  <path class="cls-7" d="M14.29,6.04s0,0-.01,0c-.03,0-.28-.12-.36-.19-.02-.02-.04-.04-.04-.07,0-.05.05-.1.05-.1.09-.09.1-.2.1-.22-.14.04-.19,0-.2-.02-.02-.03,0-.08.03-.12.07-.08.14-.1.33-.04.13.05.2.23.21.56,0,.09-.02.16-.05.19-.02.01-.03.02-.05.02ZM14.03,5.44h0s0,.14-.1.25h0s-.05.05-.05.1c0,.02.01.04.03.06.09.07.33.18.36.19.02,0,.04,0,.06-.02.03-.03.05-.09.05-.18,0-.33-.07-.5-.2-.55-.18-.06-.25-.03-.32.04-.04.04-.05.08-.03.11.01.02.05.05.2.01h0Z"/>
                </g>
                <g>
                  <path class="cls-7" d="M14.19,5.52s-.07-.07-.16-.07h-.01.01s.04-.04.05-.11h0c0,.05-.03.09-.05.1.08,0,.15.07.15.07h0ZM13.88,5.43s-.02,0-.03-.01c-.02-.02-.02-.07-.02-.07h0s0,.04.02.06c0,0,.01,0,.02,0h0c.05,0,.09,0,.14-.08h0c-.05.08-.09.08-.15.09h0Z"/>
                  <path class="cls-7" d="M14.03,5.45h0c.09-.05.13-.04.13-.04h0s-.04,0-.12.04Z"/>
                </g>
                <g>
                  <path class="cls-9" d="M13.93,5.68s-.1.09-.02.16.33.18.36.19c.02,0,.07,0,.09-.07,0,0-.04.01-.11-.08-.06-.08-.15-.14-.2-.15,0,0-.08-.02-.12-.05h0Z"/>
                  <path class="cls-7" d="M14.28,6.04h0s-.28-.12-.36-.19c-.02-.02-.04-.04-.04-.07,0-.05.05-.1.05-.1h0s0,0,0,0c.04.03.12.05.12.05.05.01.15.08.2.16.07.09.11.08.11.08h0s0,0,0,0c-.02.06-.07.07-.09.07ZM13.93,5.69s-.05.05-.05.09c0,.02.01.04.03.06.09.07.33.18.36.19h0s.06,0,.08-.06c-.02,0-.06-.01-.11-.08-.06-.08-.15-.14-.2-.15,0,0-.08-.02-.12-.05Z"/>
                </g>
                <path class="cls-7" d="M14.18,6c-.09-.04-.16-.12-.22-.19h-.01s-.04-.05-.05-.05c0,0-.01.01-.01.01h0s0-.02.02-.02h0s.04.01.06.04h.01c.06.08.13.17.21.2h0ZM14.2,5.92s-.12-.08-.16-.13c-.04-.05-.06-.07-.08-.08h0s.04.02.08.07c.04.05.16.13.16.13h0ZM14.38,5.9c-.05-.09-.16-.13-.16-.13h0s.11.03.16.13h0ZM14.38,5.76s-.06-.13-.06-.13h0s.06.09.06.13h0Z"/>
              </g>
            </g>
          </g>
          <g>
            <g>
              <circle class="cls-2" cx="13.92" cy="9.75" r=".08"/>
              <path class="cls-4" d="M13.92,9.84s-.08-.03-.09-.08c0-.05.03-.09.08-.1h0s.05,0,.07.02c.02.01.03.04.03.06,0,.02,0,.05-.02.07s-.04.03-.06.03c0,0,0,0,0,0ZM13.91,9.67h0s-.08.04-.07.09c0,.04.04.07.08.07h0s.04-.01.05-.03c.01-.02.02-.04.02-.06,0-.02-.01-.04-.03-.05-.02-.01-.04-.02-.06-.02h0Z"/>
            </g>
            <g>
              <g>
                <circle class="cls-4" cx="12.95" cy="10.25" r=".17"/>
                <path class="cls-7" d="M12.95,10.42c-.1,0-.17-.08-.17-.17s.08-.17.17-.17.17.08.17.17c0,.1-.08.17-.17.17ZM12.95,10.08c-.09,0-.16.07-.16.16s.07.16.17.16.16-.07.16-.16c0-.09-.07-.16-.17-.16Z"/>
              </g>
              <g>
                <circle class="cls-17" cx="12.95" cy="10.25" r=".08"/>
                <path class="cls-7" d="M12.95,10.34s-.09-.04-.09-.09.04-.09.09-.09.09.04.09.09-.04.09-.09.09ZM12.95,10.17s-.08.04-.08.08.04.08.08.08.08-.04.08-.08-.04-.08-.08-.08Z"/>
              </g>
            </g>
            <g>
              <path class="cls-2" d="M11.65,9.63v.12"/>
              <rect class="cls-4" x="11.64" y="9.63" width="0" height=".12"/>
            </g>
          </g>
          <g>
            <g>
              <circle class="cls-2" cx="14.46" cy="9.75" r=".08"/>
              <path class="cls-4" d="M14.46,9.84s0,0,0,0c-.02,0-.05-.02-.06-.03s-.02-.04-.02-.07c0-.02.01-.04.03-.06.02-.02.04-.02.07-.02.05,0,.08.05.08.1,0,.04-.04.08-.09.08ZM14.46,9.67s-.04,0-.05.02c-.02.01-.03.03-.03.05,0,.02,0,.04.02.06.01.02.03.03.05.03h0s.08-.03.08-.07c0-.04-.03-.08-.07-.09h0s0,0,0,0Z"/>
            </g>
            <g>
              <g>
                <circle class="cls-4" cx="15.43" cy="10.25" r=".17"/>
                <path class="cls-7" d="M15.43,10.42c-.1,0-.17-.08-.17-.17,0-.1.08-.17.17-.17s.17.08.17.17c0,.1-.08.17-.17.17ZM15.43,10.08c-.09,0-.16.07-.17.16,0,.09.07.16.16.16s.16-.07.17-.16c0-.09-.07-.16-.16-.16Z"/>
              </g>
              <g>
                <circle class="cls-17" cx="15.43" cy="10.25" r=".08"/>
                <path class="cls-7" d="M15.43,10.34s-.09-.04-.09-.09.04-.09.09-.09.09.04.09.09-.04.09-.09.09ZM15.43,10.17s-.08.04-.08.08.04.08.08.08.08-.04.08-.08-.04-.08-.08-.08Z"/>
              </g>
            </g>
            <g>
              <path class="cls-2" d="M16.74,9.63v.12"/>
              <rect class="cls-4" x="16.73" y="9.63" width="0" height=".12"/>
            </g>
          </g>
          <g>
            <g>
              <g>
                <path class="cls-7" d="M13.27,9.56s0,.04-.02.03l-.17-.02s.04,0,.06-.03.13.02.13.02h0Z"/>
                <path class="cls-7" d="M13.25,9.6h0l-.21-.02h.04s.04-.01.06-.04c.03-.03.12.01.14.01h0s0,.03-.01.04c0,0,0,0-.01,0ZM13.1,9.58h.14s0,.01,0,.01c0,0,0-.01,0-.02-.03-.01-.1-.04-.12-.02-.01.01-.03.02-.04.03Z"/>
              </g>
              <g>
                <path class="cls-20" d="M13.17,9.23s-.1-.17-.11-.25.07-.09.09-.02.03.2.03.27-.01,0-.01,0Z"/>
                <path class="cls-7" d="M13.18,9.26s0,0-.01-.03c0-.01-.1-.17-.11-.25,0-.04.02-.07.04-.07.03,0,.05.01.06.05.02.07.03.2.03.27,0,.02,0,.03,0,.03h0ZM13.1,8.92h0s-.04.02-.03.06c0,.08.11.25.11.25h0s0,.01,0,.02c0,0,0,0,0-.01,0-.07,0-.2-.03-.27,0-.03-.03-.04-.05-.04Z"/>
              </g>
              <g>
                <path class="cls-7" d="M13.46,9.61s0-.22.02-.28c0,0,0-.08-.31-.1,0,0,.02.27-.02.32,0,0,.24.02.32.06h0Z"/>
                <path class="cls-7" d="M13.47,9.62h0c-.09-.04-.32-.07-.32-.07h0s0,0,0,0c.04-.05.02-.31.02-.32h0s0,0,0,0c.32.02.32.1.32.1-.02.07-.02.28-.02.28h0ZM13.15,9.54s.23.02.31.06c0-.04,0-.22.02-.28h0s0-.07-.31-.09c0,.04.01.25-.02.31Z"/>
              </g>
            </g>
            <g>
              <g>
                <path class="cls-18" d="M13.16,9.3v-.07c.32.02.31.1.31.1,0,.01,0,.03,0,.05,0,0-.09-.07-.31-.07ZM13.46,9.55v.06c-.09-.04-.32-.06-.32-.06,0-.01.02-.04.02-.07,0,0,.27.02.3.07h0Z"/>
                <path class="cls-8" d="M13.47,9.62h0c-.09-.04-.32-.07-.32-.07h0s0,0,0,0c0-.01.02-.03.02-.06h0s0,0,0,0c.01,0,.28.02.31.07h0s0,.07,0,.07ZM13.15,9.54s.23.02.31.06v-.05s-.22-.06-.29-.06c0,.02,0,.04-.02.06ZM13.47,9.38h0s-.09-.08-.3-.08h0s0-.08,0-.08h0c.32.02.32.1.32.1,0,.01,0,.03,0,.05h0ZM13.17,9.3c.18,0,.27.05.3.07,0-.01,0-.03,0-.04h0s0-.07-.31-.09v.06Z"/>
              </g>
              <g>
                <path class="cls-18" d="M13.16,9.47s.09.01.11-.03c0-.02-.02-.03-.03-.02,0,0-.02.02-.02,0,0,0,0,0,0,0,0,0,0,0,0,0s0,0-.01,0c0,0-.01,0-.02,0,0,0-.01,0,0-.01s-.01-.01,0-.01.01,0,.02.02c0,0,0,.01.01,0,.01-.02.01-.08,0-.06,0,0,0,0,0,0,0,0,0,0,0,0,0,0,0,0,0,0,0,0,0,0,0,0s0-.01,0-.01c0,0-.01,0-.01,0,0,0,0,0,0,0,0,0,0,.07,0,.12h0Z"/>
                <path class="cls-8" d="M13.19,9.48s-.03,0-.03,0h0s0,0,0,0c0-.05,0-.12,0-.12h0s0,0,0,0h0s0-.01,0-.01c0,0,.01,0,.01,0,0,0,.01,0,.01,0,0,0,0,.01,0,.01h0s0,0,0,0c0,0,0,0,0,0,0,0,0,0,0,0,0,0,.02,0,.02,0,.01,0,0,.05,0,.07,0,0,0,0,0,0,0,0,0,0,0,0h0s0,.01,0,.01c0,0,0,0,0,0h0s0,0,.01,0c0,0,.02,0,.03,0,0,0,.01.01,0,.03-.01.03-.05.04-.08.04ZM13.17,9.47s.08,0,.1-.03c0,0,0-.01,0-.02,0,0-.01,0-.02,0,0,0-.01.01-.02.01,0,0,0,0,0,0,0,0,0,0,0-.01,0,0,0,0,.01,0,0,0-.01,0-.03,0,0,0,0,0-.01,0,0,0,0-.01,0-.02,0,0,0,0,0,0h0s0,0,0,0h0s0,0,.01,0c0,0,0,0,.01.02h0s0,0,0,0c0-.01,0-.05,0-.05h0s0,0,0,0h0s0,.01,0,.01c0,0-.01,0-.02,0h0s0,0-.01,0h0s0,0,0,0h0s0,0,0,0h0s0,0,0,0c0,0,0,0,0,.01,0,0,0,0,0,0,0,.02,0,.07,0,.11ZM13.2,9.39s0,0,0,.01c0,0,0,0,0,0,0,0,0,0,.01,0h0s0-.01,0-.01Z"/>
              </g>
            </g>
            <g>
              <path class="cls-5" d="M13.37,9.35s-.01.08.02.14c0,0,0,0,.01,0,0,0,0,0,0,0,0,0-.02-.04-.02-.14,0,0,0,0,0-.01,0,0,0,0-.01,0Z"/>
              <path class="cls-5" d="M13.4,9.51s-.01,0-.01,0c-.04-.06-.03-.14-.03-.15h0s0,0,0,0c0,0,0,0,0,0,0,0,.01.01.01.02,0,.09.02.13.02.13,0,0,0,.01,0,.02,0,0,0,0,0,0ZM13.37,9.35s-.01.08.02.14c0,0,0,0,0,0,0,0-.02-.04-.02-.14,0,0,0,0,0,0,0,0,0,0,0,0Z"/>
            </g>
            <g>
              <path class="cls-7" d="M14.91,9.64s.04-.06.02-.16c0,0-.04-.14.08-.2,0,0,.17-.08.26.18,0,0,.03.11.09.13,0,0-.19.03-.27-.11,0,0,0,.13-.19.16h0Z"/>
              <path class="cls-7" d="M14.9,9.65h0s.03-.07.02-.16c0,0-.04-.14.08-.2,0,0,.06-.03.13,0,.06.02.11.08.14.18,0,0,.03.11.08.12h.02s-.02,0-.02,0c0,0-.19.03-.27-.1,0,.03-.04.12-.19.15h0ZM15.07,9.28s-.06.01-.06.01c-.12.06-.08.19-.08.19,0,.07-.01.13-.02.15.17-.03.17-.14.17-.15v-.02s0,.02,0,.02c.06.11.2.11.25.11-.05-.03-.07-.12-.08-.12-.03-.09-.08-.15-.14-.17-.02,0-.04-.01-.06-.01Z"/>
            </g>
          </g>
          <path class="cls-5" d="M15.28,9.58s.02,0,.02,0c0,0,0-.01,0-.02,0,0-.05-.02-.08-.09,0,0,0-.06-.09-.15,0,0-.01-.01-.02,0,0,0,0,0,0,.02s.07.07.09.14c0,0,0,.07.09.11h0ZM14.96,9.6s0,0,0,.01c0,0,0,0,.02,0,0,0,.08-.05.07-.11h-.03s0,.04-.06.09Z"/>
          <g>
            <g>
              <path class="cls-18" d="M14.93,9.57s.08-.07.36-.06l-.02-.06s-.09,0-.16,0c0,0-.02-.1-.08-.17,0,0-.02,0-.05.03,0,0,.05.08.06.15,0,0-.05,0-.11.04,0,0,0,.03,0,.07h0Z"/>
              <path class="cls-8" d="M14.92,9.58h0s0-.08,0-.08h0s.09-.04.11-.05c-.01-.07-.06-.14-.06-.14h0s0,0,0,0c.03-.02.05-.03.05-.03h0s0,0,0,0c.05.06.08.14.08.16.06,0,.15,0,.15,0h0l.03.07h0s-.04,0-.05,0c-.24,0-.3.06-.3.06h-.01ZM14.94,9.5s0,.03,0,.05c.03-.02.11-.05.3-.05.01,0,.03,0,.05,0l-.02-.05s-.1,0-.15,0h0s-.02-.1-.08-.17c0,0-.02,0-.04.02.01.02.05.09.06.15h0s0,0,0,0c0,0-.05,0-.11.04Z"/>
            </g>
            <g>
              <path class="cls-18" d="M15.11,9.28s0-.09.11-.11c0,0-.08-.1-.21-.03,0,0-.12.06-.07.22,0,0,.04-.1.17-.08h0Z"/>
              <path class="cls-8" d="M14.94,9.37h0c-.05-.17.07-.24.08-.24.13-.07.21.03.21.03h0s0,0,0,0c-.1.02-.11.1-.11.11h0s0,0,0,0c-.01,0-.02,0-.03,0-.1,0-.13.08-.13.08h0ZM15.1,9.12s-.05,0-.09.02c0,0-.11.06-.07.2.01-.02.05-.08.14-.08,0,0,.02,0,.03,0,0-.02.02-.08.11-.11-.01-.01-.05-.05-.11-.05Z"/>
            </g>
          </g>
          <g>
            <g>
              <circle class="cls-11" cx="13.31" cy="10.72" r=".12"/>
              <path class="cls-16" d="M13.31,10.84c-.07,0-.12-.05-.12-.12s.05-.12.12-.12.12.05.12.12-.05.12-.12.12ZM13.31,10.6c-.06,0-.12.05-.12.12s.05.12.12.12.12-.05.12-.12-.05-.12-.12-.12Z"/>
            </g>
            <circle class="cls-14" cx="13.28" cy="10.68" r=".03"/>
            <g>
              <circle class="cls-11" cx="13.43" cy="10.93" r=".12"/>
              <path class="cls-16" d="M13.43,11.05c-.07,0-.12-.05-.12-.12s.05-.12.12-.12.12.05.12.12-.05.12-.12.12ZM13.43,10.81c-.06,0-.12.05-.12.12s.05.12.12.12.12-.05.12-.12-.05-.12-.12-.12Z"/>
            </g>
            <circle class="cls-14" cx="13.4" cy="10.89" r=".03"/>
            <g>
              <circle class="cls-11" cx="13.19" cy="10.93" r=".12"/>
              <path class="cls-16" d="M13.19,11.05c-.07,0-.12-.05-.12-.12s.05-.12.12-.12.12.05.12.12-.05.12-.12.12ZM13.19,10.81c-.06,0-.12.05-.12.12s.05.12.12.12.12-.05.12-.12-.05-.12-.12-.12Z"/>
            </g>
            <circle class="cls-14" cx="13.16" cy="10.89" r=".03"/>
            <g>
              <circle class="cls-11" cx="13.55" cy="11.14" r=".12"/>
              <path class="cls-16" d="M13.55,11.26c-.07,0-.12-.05-.12-.12s.05-.12.12-.12.12.05.12.12-.05.12-.12.12ZM13.55,11.02c-.06,0-.12.05-.12.12s.05.12.12.12.12-.05.12-.12-.05-.12-.12-.12Z"/>
            </g>
            <circle class="cls-14" cx="13.52" cy="11.1" r=".03"/>
            <g>
              <circle class="cls-11" cx="13.31" cy="11.14" r=".12"/>
              <path class="cls-16" d="M13.31,11.26c-.07,0-.12-.05-.12-.12s.05-.12.12-.12.12.05.12.12-.05.12-.12.12ZM13.31,11.02c-.06,0-.12.05-.12.12s.05.12.12.12.12-.05.12-.12-.05-.12-.12-.12Z"/>
            </g>
            <circle class="cls-14" cx="13.28" cy="11.1" r=".03"/>
            <g>
              <circle class="cls-11" cx="13.07" cy="11.14" r=".12"/>
              <path class="cls-16" d="M13.07,11.26c-.07,0-.12-.05-.12-.12s.05-.12.12-.12.12.05.12.12-.05.12-.12.12ZM13.07,11.02c-.06,0-.12.05-.12.12s.05.12.12.12.12-.05.12-.12-.05-.12-.12-.12Z"/>
            </g>
            <circle class="cls-14" cx="13.05" cy="11.1" r=".03"/>
          </g>
          <g>
            <g>
              <g>
                <g>
                  <path class="cls-3" d="M14.58,10.02c-.02.07-.09.11-.16.09s-.11-.09-.09-.16.09-.11.16-.09.11.09.09.16ZM14.48,9.91s-.09.01-.1.06.01.09.06.1.09-.01.1-.06-.01-.09-.06-.1Z"/>
                  <path class="cls-12" d="M14.46,10.12s-.02,0-.03,0c-.07-.02-.11-.09-.09-.16.02-.07.09-.11.16-.09.03,0,.06.03.08.06.02.03.02.07.01.1h0c-.02.06-.07.1-.13.1ZM14.46,9.87c-.05,0-.1.04-.12.09-.02.06.02.13.09.15.06.02.13-.02.15-.09h0s0-.06-.01-.09-.04-.05-.07-.06c-.01,0-.02,0-.03,0ZM14.46,10.07s-.02,0-.02,0c-.02,0-.04-.02-.05-.04-.01-.02-.01-.04,0-.06,0-.02.02-.04.04-.05.02-.01.04-.01.06,0,.04.01.07.06.06.1-.01.04-.04.06-.08.06ZM14.46,9.91s-.03,0-.04,0c-.02,0-.03.03-.04.05,0,.02,0,.04,0,.06,0,.02.03.03.04.03.04.01.08-.01.09-.05.01-.04-.01-.08-.05-.09,0,0-.01,0-.02,0Z"/>
                </g>
                <g>
                  <path class="cls-3" d="M15.12,10.77s.23.07.37.19c0,0-.05-.37-.34-.58,0,0,.05.18-.03.39h0Z"/>
                  <path class="cls-15" d="M15.49,10.98h-.01c-.13-.13-.36-.2-.37-.2h0s0,0,0,0c.08-.21.03-.39.03-.39h0s.01,0,.01,0c.28.21.34.58.34.59v.02ZM15.12,10.77s.23.07.35.18c-.01-.07-.08-.37-.32-.55,0,.05.03.2-.03.37Z"/>
                </g>
              </g>
              <g>
                <path class="cls-3" d="M14.55,10.06l.57,1.01-.08.04-.57-1.01s-.04-.05,0-.08c0,0,.04-.02.07.04h0Z"/>
                <path class="cls-12" d="M15.04,11.13h0s-.57-1.02-.57-1.02c0,0-.02-.03-.01-.06,0-.01,0-.02.02-.03,0,0,.01,0,.04,0,.02,0,.03.02.04.04l.58,1.02-.09.05ZM14.5,10.03s-.02,0-.02,0c0,0-.01.01-.02.02,0,.02.01.05.01.05l.57,1.01.07-.04-.57-1.01s-.02-.03-.04-.04c0,0,0,0-.01,0Z"/>
              </g>
              <g>
                <g>
                  <path class="cls-3" d="M15.22,11.33s.08-.47.08-.59c0,0,0-.1-.03-.1,0,0-.03,0-.04.05,0,0-.03.18-.12.33l-.06.04s-.11.08-.37-.02l-.02.09s.19.1.56.2h0Z"/>
                  <path class="cls-15" d="M15.22,11.34h0c-.38-.1-.56-.2-.57-.2h0s0,0,0,0l.03-.1h0c.25.1.37.02.37.02l.06-.04c.08-.15.11-.32.11-.32,0-.03.02-.05.03-.05,0,0,.02,0,.02,0,.04,0,.04.1.04.11,0,.12-.08.58-.08.6h0ZM14.66,11.13s.21.1.55.19c.01-.06.08-.48.08-.59,0-.04,0-.09-.03-.1,0,0,0,0-.01,0,0,0-.02.02-.02.05,0,0-.03.18-.12.33l-.06.05s-.12.08-.37-.02l-.02.08Z"/>
                </g>
                <g>
                  <path class="cls-3" d="M14.7,11.34s-.02-.26.1-.36c0,0-.28-.06-.4-.17,0,0-.02.27.3.53h0Z"/>
                  <path class="cls-15" d="M14.71,11.35h-.01c-.31-.26-.3-.54-.3-.54h0s0,0,0,0c.12.11.39.17.39.17h.01s0,0,0,0c-.11.09-.09.35-.09.35h0ZM14.4,10.82c0,.05.02.29.29.5,0-.05,0-.25.09-.34-.05-.01-.27-.07-.38-.16Z"/>
                </g>
              </g>
            </g>
            <g>
              <g>
                <path class="cls-4" d="M14.44,10.34c.17-.06.34-.19.34-.19.01,0,.01-.03.01-.03,0-.07-.06-.1-.06-.1-.02-.01-.04,0-.04,0-.22.08-.34.18-.34.18,0,0-.03.02-.02.05,0,.03.02.05.04.07,0,0,.02.03.06.02Z"/>
                <path class="cls-7" d="M14.42,10.34s-.04-.02-.04-.02c-.02-.02-.03-.05-.04-.07-.01-.03,0-.05.02-.06,0,0,.12-.1.34-.18,0,0,.02,0,.04,0,0,0,.07.04.06.11,0,0,0,.03-.01.04,0,0-.18.13-.34.19h0s-.01,0-.02,0ZM14.71,10.02s-.01,0-.01,0c-.22.08-.34.18-.34.18,0,0-.03.02-.02.04,0,.03.02.05.04.07,0,0,.01.02.03.02,0,0,.01,0,.02,0h0c.16-.06.34-.18.34-.19,0,0,0-.02,0-.03,0-.06-.06-.1-.06-.1,0,0-.01,0-.02,0Z"/>
              </g>
              <g>
                <path class="cls-4" d="M14.44,10.34s-.06-.01-.06-.01c-.03-.03-.04-.07-.04-.07-.01-.03,0-.05,0-.05,0,0,.02-.02.05,0,0,0,.03.03.05.07,0,0,.01.04,0,.05h0Z"/>
                <path class="cls-7" d="M14.42,10.35s-.04-.01-.04-.02c-.03-.03-.04-.07-.04-.07-.01-.02,0-.05,0-.06,0,0,0,0,.02,0h0s.02,0,.03.02c0,0,.03.03.05.08,0,0,.01.04,0,.05h0s-.02,0-.02,0ZM14.36,10.2s-.01,0-.01,0c0,0-.02.02,0,.04,0,0,.01.04.04.06,0,0,.02.02.04.02,0,0,.01,0,.02,0h0s0-.03,0-.04c-.02-.04-.05-.07-.05-.07,0,0-.02-.01-.03-.01h0Z"/>
              </g>
            </g>
            <g>
              <g>
                <path class="cls-4" d="M14.61,11.23s-.1-.07-.46-.07c-.22,0-.43,0-.43.07,0,.14.87.19.88,0Z"/>
                <path class="cls-16" d="M14.22,11.36s-.03,0-.04,0c-.22,0-.45-.05-.45-.13s.2-.08.43-.08c.28,0,.42.02.45.05,0,0,.01.02,0,.03h0c0,.1-.21.13-.4.13ZM14.16,11.16c-.16,0-.42,0-.42.07,0,.06.2.11.44.12h.04c.2,0,.38-.04.39-.12h0s0-.01,0-.02c-.03-.03-.17-.05-.44-.05Z"/>
              </g>
              <g>
                <path class="cls-3" d="M13.76,10.67h.82v.68h-.82v-.68Z"/>
                <path class="cls-7" d="M14.58,11.35h-.83v-.69h.83v.69ZM13.77,11.34h.8v-.67h-.8v.67Z"/>
              </g>
            </g>
            <g>
              <path class="cls-7" d="M14,11.34h0s0,0,0,0l-.08-.55-.15.48h-.01s.16-.51.16-.51h.01s.08.55.08.55l.17-.54h.01s-.18.58-.18.58ZM14.35,11.34h-.01s.1-.58.1-.58h.01s-.1.58-.1.58Z"/>
              <path class="cls-7" d="M14.33,11.34l-.16-.57h.01s.16.56.16.56h-.01ZM14.57,11.27l-.15-.51h.01s.15.51.15.51h-.01Z"/>
            </g>
            <g>
              <g>
                <g>
                  <path class="cls-4" d="M13.73,10.53s.04.1.44.1c0,0,.33.01.44-.1,0,0,.09-.12-.44-.13,0,0-.48,0-.44.13Z"/>
                  <path class="cls-16" d="M14.2,10.63s-.03,0-.03,0c-.4,0-.44-.1-.44-.11h0s0-.03,0-.05c.06-.09.42-.09.44-.09.26,0,.42.04.44.1.01.02,0,.04,0,.04-.09.09-.32.1-.41.1ZM13.74,10.52s.05.1.43.1c0,0,.33.01.43-.1,0,0,0-.01,0-.03-.01-.03-.09-.08-.43-.09,0,0-.37,0-.43.08,0,.01,0,.02,0,.04Z"/>
                </g>
                <g>
                  <path class="cls-4" d="M13.83,10.57s.03.08.33.08c0,0,.26,0,.34-.08,0,0,.07-.09-.33-.1,0,0-.37,0-.33.1Z"/>
                  <path class="cls-16" d="M14.19,10.65s-.02,0-.02,0c-.3,0-.34-.08-.34-.08h0s0-.03,0-.04c.05-.07.32-.07.34-.07.2,0,.32.03.34.08,0,.02,0,.03,0,.03-.07.07-.25.08-.32.08ZM13.84,10.56s.04.07.33.07h.02c.06,0,.25,0,.31-.08h0s0,0,0-.02c-.01-.02-.07-.06-.33-.07,0,0-.28,0-.33.06,0,0,0,.02,0,.03Z"/>
                </g>
              </g>
              <g>
                <path class="cls-4" d="M13.73,10.53s.04.1.44.1c0,0,.34.01.44-.1v.13c-.1.11-.44.1-.44.1-.4,0-.44-.1-.44-.1v-.13Z"/>
                <path class="cls-16" d="M14.2,10.77s-.03,0-.03,0c-.4,0-.44-.1-.45-.11v-.17.03s.06.1.45.1h.03c.08,0,.32,0,.41-.1h.01s0,.14,0,.14c-.09.1-.33.11-.42.11ZM13.74,10.66s.05.09.43.1h.03c.08,0,.32,0,.41-.1v-.12c-.12.1-.42.09-.44.09-.31,0-.4-.06-.43-.09v.12h0Z"/>
              </g>
              <g>
                <path class="cls-4" d="M13.73,11.23s.04.11.44.11c0,0,.34.01.44-.11v.15c-.1.13-.44.11-.44.11-.4,0-.44-.11-.44-.11v-.15Z"/>
                <path class="cls-16" d="M14.2,11.5h-.03c-.4,0-.45-.11-.45-.12v-.19s.01.03.01.03c0,0,.05.11.43.11,0,0,0,0,.03,0,.08,0,.33,0,.41-.11h.01s0,.15,0,.15c-.09.11-.33.12-.42.12ZM13.74,11.38s.05.1.43.11c0,0,0,0,.03,0,.08,0,.33,0,.41-.11v-.13c-.1.1-.32.1-.41.1h-.03c-.3,0-.4-.07-.43-.1v.13h0Z"/>
              </g>
              <rect class="cls-16" x="13.99" y="11.34" width=".01" height=".15"/>
              <rect class="cls-16" x="14.2" y="10.63" width=".01" height=".13"/>
              <rect class="cls-16" x="14.33" y="11.34" width=".01" height=".15"/>
              <g>
                <path class="cls-4" d="M13.88,10.74v-.13M14.15,10.76v-.13M14.41,10.75v-.13M13.94,10.75v-.13M14.46,10.74v-.13"/>
                <path class="cls-16" d="M14.15,10.76h-.01v-.13h.01v.13ZM14.41,10.75h-.01v-.13h.01v.13ZM13.95,10.75h-.01v-.13h.01v.13ZM14.46,10.74h-.01v-.13h.01v.13ZM13.89,10.74h-.01v-.13h.01v.13Z"/>
              </g>
            </g>
          </g>
        </g>
      </g>
    </g>
  </g>
</svg>