<?xml version="1.0" encoding="UTF-8"?>
<svg id="Layer_2" data-name="Layer 2" xmlns="http://www.w3.org/2000/svg" viewBox="0 0 34.02 17.01">
  <defs>
    <style>
      .cls-1 {
        fill: #fff;
      }

      .cls-2 {
        fill: #ed2224;
      }
    </style>
  </defs>
  <g id="Layer_1-2" data-name="Layer 1">
    <g>
      <path class="cls-2" d="M0,0h8.5l.35.35h16.31l.35-.35h8.5v17.01h-8.5l-.35-.35H8.85l-.35.35H0V0Z"/>
      <path class="cls-1" d="M8.5,0h17.01v17.01H8.5V0ZM17.33,15.7l-.16-3.06c0-.19.14-.34.32-.35.02,0,.05,0,.07,0l3.04.54-.41-1.13c-.03-.09,0-.2.07-.26l3.33-2.7-.75-.35c-.1-.05-.16-.17-.12-.28l.66-2.03-1.92.41c-.11.02-.22-.03-.26-.13l-.37-.88-1.5,1.61c-.09.09-.23.1-.33,0-.06-.05-.08-.13-.07-.21l.72-3.73-1.16.67c-.11.06-.25.03-.32-.08,0,0,0,0,0-.01l-1.18-2.31-1.18,2.31c-.06.11-.2.16-.31.1,0,0,0,0-.01,0l-1.16-.67.72,3.73c.02.12-.06.25-.18.27-.08.01-.16-.01-.21-.07l-1.5-1.61-.37.88c-.04.1-.15.16-.26.13l-1.92-.41.66,2.03c.04.11-.02.23-.12.28l-.75.35,3.33,2.7c.08.06.11.17.07.26l-.41,1.13,3.04-.54c.18-.03.36.09.39.27,0,.02,0,.05,0,.07l-.16,3.06h.64Z"/>
    </g>
  </g>
</svg>