<?xml version="1.0" encoding="UTF-8"?>
<svg id="Layer_2" data-name="Layer 2" xmlns="http://www.w3.org/2000/svg" xmlns:xlink="http://www.w3.org/1999/xlink" viewBox="0 0 34.02 17.01">
  <defs>
    <style>
      .cls-1 {
        fill: #222d65;
      }

      .cls-2 {
        fill: #fff;
      }

      .cls-3 {
        fill: none;
      }

      .cls-4 {
        clip-path: url(#clippath-1);
      }

      .cls-5 {
        fill: #c8202f;
      }

      .cls-6 {
        clip-path: url(#clippath);
      }
    </style>
    <clipPath id="clippath">
      <rect class="cls-3" y="0" width="17.01" height="9.92"/>
    </clipPath>
    <clipPath id="clippath-1">
      <path class="cls-3" d="M0,0v4.25h15.59v4.25h-.71L0,0ZM14.88,0h-7.44v9.21H0v-.71L14.88,0Z"/>
    </clipPath>
  </defs>
  <g id="Layer_1-2" data-name="Layer 1">
    <g>
      <path class="cls-1" d="M0,0h34.02v17.01H0V0Z"/>
      <g class="cls-6">
        <g>
          <path class="cls-1" d="M0,0l19.84,11.34M14.88,0L0,8.5"/>
          <polygon class="cls-2" points="19.42 12.08 7.44 5.23 .42 9.24 -.42 7.77 5.73 4.25 -.42 .74 .42 -.74 7.44 3.27 14.46 -.74 15.3 .74 9.15 4.25 20.26 10.6 19.42 12.08"/>
        </g>
      </g>
      <g class="cls-4">
        <g>
          <path class="cls-1" d="M0,0l19.84,11.34M14.88,0L0,8.5"/>
          <polygon class="cls-5" points="19.56 11.83 7.44 4.91 .28 9 -.28 8.01 6.3 4.25 -.28 .49 .28 -.49 7.44 3.6 14.6 -.49 15.16 .49 8.58 4.25 20.12 10.85 19.56 11.83"/>
        </g>
      </g>
      <g>
        <path class="cls-1" d="M7.44,0v9.92M0,4.25h17.01"/>
        <polygon class="cls-2" points="8.86 9.92 6.02 9.92 6.02 5.67 0 5.67 0 2.83 6.02 2.83 6.02 0 8.86 0 8.86 2.83 17.01 2.83 17.01 5.67 8.86 5.67 8.86 9.92"/>
      </g>
      <path class="cls-2" d="M34.02,0v2.83H15.59l-.71-.71V0h19.13ZM34.02,6.38v2.83H14.88v-2.83h19.13ZM34.02,12.76v4.25H0v-4.25h34.02Z"/>
      <path class="cls-5" d="M34.02,2.13v2.98H0v-1.7h14.88v-1.28h19.13ZM34.02,8.5v2.13H0v-2.13h34.02ZM34.02,14.88v2.13H0v-2.13h34.02ZM6.59,0h1.7v9.21h-1.7V0Z"/>
      <path class="cls-1" d="M34.02,4.25v1.77H14.88v-1.77h19.13Z"/>
    </g>
  </g>
</svg>