<?xml version="1.0" encoding="UTF-8"?>
<svg id="Layer_2" data-name="Layer 2" xmlns="http://www.w3.org/2000/svg" viewBox="0 0 34.02 17.01">
  <defs>
    <style>
      .cls-1 {
        fill: #222d65;
      }

      .cls-2 {
        fill: #fff;
      }

      .cls-5 {
        fill: #c8202f;
      }
    </style>
  </defs>
  <g id="Layer_1-2" data-name="Layer 1">
    <g>
      <path class="cls-1" d="M0,0h34.02v17.01H0V0Z"/>
      <path class="cls-2" d="M17.01,9.92L15.64,9.92L7.44,5.23L0.42,9.24L0,8.50L0,7.53L5.73,4.25L0,0.98L0,0L1.72,0L7.44,3.27L13.16,0L14.88,0L15.30,0.74L9.15,4.25L17.01,8.74Z"/>
      <path class="cls-5" d="M17.01,9.92L16.21,9.92L7.44,4.91L0.28,9.00L0,8.50L0,7.85L6.30,4.25L0,0.65L0,0L1.14,0L7.44,3.60L13.74,0L14.88,0L15.16,0.49L8.58,4.25L17.01,9.07Z"/>
      <g>
        <path class="cls-1" d="M7.44,0v9.92M0,4.25h17.01"/>
        <polygon class="cls-2" points="8.86 9.92 6.02 9.92 6.02 5.67 0 5.67 0 2.83 6.02 2.83 6.02 0 8.86 0 8.86 2.83 17.01 2.83 17.01 5.67 8.86 5.67 8.86 9.92"/>
      </g>
      <path class="cls-2" d="M34.02,0v2.83H15.59l-.71-.71V0h19.13ZM34.02,6.38v2.83H14.88v-2.83h19.13ZM34.02,12.76v4.25H0v-4.25h34.02Z"/>
      <path class="cls-5" d="M34.02,2.13v2.98H0v-1.7h14.88v-1.28h19.13ZM34.02,8.5v2.13H0v-2.13h34.02ZM34.02,14.88v2.13H0v-2.13h34.02ZM6.59,0h1.7v9.21h-1.7V0Z"/>
      <path class="cls-1" d="M34.02,4.25v1.77H14.88v-1.77h19.13Z"/>
    </g>
  </g>
</svg>