<?xml version="1.0" encoding="UTF-8"?>
<svg id="Layer_2" data-name="Layer 2" xmlns="http://www.w3.org/2000/svg" viewBox="0 0 32.31 17.01">
  <defs>
    <style>
      .cls-1 {
        fill: #fff;
      }

      .cls-2 {
        fill: #b41e44;
      }

      .cls-3 {
        fill: #1b3460;
      }

      .cls-4 {
        fill: #010101;
      }
    </style>
  </defs>
  <g id="Layer_1-2" data-name="Layer 1">
    <g>
      <path class="cls-2" d="M0,0h32.31v17.01H0"/>
      <g>
        <path class="cls-4" d="M0,1.96h32.31M32.31,4.58H0M0,7.2h32.31M32.31,9.81H0M0,12.43h32.31M32.31,15.05H0"/>
        <path class="cls-1" d="M32.31,15.7H0v-1.31h32.31v1.31ZM32.31,13.08H0v-1.31h32.31v1.31ZM32.31,10.47H0v-1.31h32.31v1.31ZM32.31,7.85H0v-1.31h32.31v1.31ZM32.31,5.23H0v-1.31h32.31v1.31ZM32.31,2.62H0v-1.31h32.31v1.31Z"/>
      </g>
      <path class="cls-3" d="M0,0h12.93v9.16H0"/>
      <g>
        <g id="d">
          <g id="c">
            <g id="e">
              <g id="b">
                <g id="a">
                  <path class="cls-1" d="M1.08,0.39L1.2,0.75L1.58,0.75L1.27,0.98L1.39,1.34L1.08,1.11L0.77,1.34L0.89,0.98L0.58,0.75L0.96,0.75Z"/>
                </g>
                <g id="a-2" data-name="a">
                  <path class="cls-1" d="M1.08,2.22L1.2,2.58L1.58,2.58L1.27,2.81L1.39,3.17L1.08,2.94L0.77,3.17L0.89,2.81L0.58,2.58L0.96,2.58Z"/>
                </g>
                <g id="a-3" data-name="a">
                  <path class="cls-1" d="M1.08,4.06L1.2,4.42L1.58,4.42L1.27,4.65L1.39,5.01L1.08,4.78L0.77,5.01L0.89,4.65L0.58,4.42L0.96,4.42Z"/>
                </g>
                <g id="a-4" data-name="a">
                  <path class="cls-1" d="M1.08,5.89L1.2,6.25L1.58,6.25L1.27,6.48L1.39,6.84L1.08,6.61L0.77,6.84L0.89,6.48L0.58,6.25L0.96,6.25Z"/>
                </g>
              </g>
              <g id="a-5" data-name="a">
                <path class="cls-1" d="M1.08,7.72L1.2,8.08L1.58,8.08L1.27,8.31L1.39,8.67L1.08,8.44L0.77,8.67L0.89,8.31L0.58,8.08L0.96,8.08Z"/>
              </g>
            </g>
            <g id="b-2" data-name="b">
              <g id="a-6" data-name="a">
                <path class="cls-1" d="M2.15,1.31L2.27,1.67L2.65,1.67L2.34,1.9L2.46,2.26L2.15,2.03L1.84,2.26L1.96,1.9L1.65,1.67L2.03,1.67Z"/>
              </g>
              <g id="a-7" data-name="a">
                <path class="cls-1" d="M2.15,3.14L2.27,3.5L2.65,3.5L2.34,3.73L2.46,4.09L2.15,3.86L1.84,4.09L1.96,3.73L1.65,3.5L2.03,3.5Z"/>
              </g>
              <g id="a-8" data-name="a">
                <path class="cls-1" d="M2.15,4.97L2.27,5.33L2.65,5.33L2.34,5.56L2.46,5.92L2.15,5.69L1.84,5.92L1.96,5.56L1.65,5.33L2.03,5.33Z"/>
              </g>
              <g id="a-9" data-name="a">
                <path class="cls-1" d="M2.15,6.8L2.27,7.16L2.65,7.16L2.34,7.39L2.46,7.75L2.15,7.52L1.84,7.75L1.96,7.39L1.65,7.16L2.03,7.16Z"/>
              </g>
            </g>
          </g>
          <g id="c-2" data-name="c">
            <g id="e-2" data-name="e">
              <g id="b-3" data-name="b">
                <g id="a-10" data-name="a">
                  <path class="cls-1" d="M3.23,0.39L3.35,0.75L3.73,0.75L3.42,0.98L3.54,1.34L3.23,1.11L2.92,1.34L3.04,0.98L2.73,0.75L3.11,0.75Z"/>
                </g>
                <g id="a-11" data-name="a">
                  <path class="cls-1" d="M3.23,2.22L3.35,2.58L3.73,2.58L3.42,2.81L3.54,3.17L3.23,2.94L2.92,3.17L3.04,2.81L2.73,2.58L3.11,2.58Z"/>
                </g>
                <g id="a-12" data-name="a">
                  <path class="cls-1" d="M3.23,4.06L3.35,4.42L3.73,4.42L3.42,4.65L3.54,5.01L3.23,4.78L2.92,5.01L3.04,4.65L2.73,4.42L3.11,4.42Z"/>
                </g>
                <g id="a-13" data-name="a">
                  <path class="cls-1" d="M3.23,5.89L3.35,6.25L3.73,6.25L3.42,6.48L3.54,6.84L3.23,6.61L2.92,6.84L3.04,6.48L2.73,6.25L3.11,6.25Z"/>
                </g>
              </g>
              <g id="a-14" data-name="a">
                <path class="cls-1" d="M3.23,7.72L3.35,8.08L3.73,8.08L3.42,8.31L3.54,8.67L3.23,8.44L2.92,8.67L3.04,8.31L2.73,8.08L3.11,8.08Z"/>
              </g>
            </g>
            <g id="b-4" data-name="b">
              <g id="a-15" data-name="a">
                <path class="cls-1" d="M4.31,1.31L4.43,1.67L4.81,1.67L4.5,1.9L4.62,2.26L4.31,2.03L4.0,2.26L4.12,1.9L3.81,1.67L4.19,1.67Z"/>
              </g>
              <g id="a-16" data-name="a">
                <path class="cls-1" d="M4.31,3.14L4.43,3.5L4.81,3.5L4.5,3.73L4.62,4.09L4.31,3.86L4.0,4.09L4.12,3.73L3.81,3.5L4.19,3.5Z"/>
              </g>
              <g id="a-17" data-name="a">
                <path class="cls-1" d="M4.31,4.97L4.43,5.33L4.81,5.33L4.5,5.56L4.62,5.92L4.31,5.69L4.0,5.92L4.12,5.56L3.81,5.33L4.19,5.33Z"/>
              </g>
              <g id="a-18" data-name="a">
                <path class="cls-1" d="M4.31,6.8L4.43,7.16L4.81,7.16L4.5,7.39L4.62,7.75L4.31,7.52L4.0,7.75L4.12,7.39L3.81,7.16L4.19,7.16Z"/>
              </g>
            </g>
          </g>
        </g>
        <g id="d-2" data-name="d">
          <g id="c-3" data-name="c">
            <g id="e-3" data-name="e">
              <g id="b-5" data-name="b">
                <g id="a-19" data-name="a">
                  <path class="cls-1" d="M5.39,0.39L5.51,0.75L5.89,0.75L5.58,0.98L5.7,1.34L5.39,1.11L5.08,1.34L5.2,0.98L4.89,0.75L5.27,0.75Z"/>
                </g>
                <g id="a-20" data-name="a">
                  <path class="cls-1" d="M5.39,2.22L5.51,2.58L5.89,2.58L5.58,2.81L5.7,3.17L5.39,2.94L5.08,3.17L5.2,2.81L4.89,2.58L5.27,2.58Z"/>
                </g>
                <g id="a-21" data-name="a">
                  <path class="cls-1" d="M5.39,4.06L5.51,4.42L5.89,4.42L5.58,4.65L5.7,5.01L5.39,4.78L5.08,5.01L5.2,4.65L4.89,4.42L5.27,4.42Z"/>
                </g>
                <g id="a-22" data-name="a">
                  <path class="cls-1" d="M5.39,5.89L5.51,6.25L5.89,6.25L5.58,6.48L5.7,6.84L5.39,6.61L5.08,6.84L5.2,6.48L4.89,6.25L5.27,6.25Z"/>
                </g>
              </g>
              <g id="a-23" data-name="a">
                <path class="cls-1" d="M5.39,7.72L5.51,8.08L5.89,8.08L5.58,8.31L5.7,8.67L5.39,8.44L5.08,8.67L5.2,8.31L4.89,8.08L5.27,8.08Z"/>
              </g>
            </g>
            <g id="b-6" data-name="b">
              <g id="a-24" data-name="a">
                <path class="cls-1" d="M6.46,1.31L6.58,1.67L6.96,1.67L6.65,1.9L6.77,2.26L6.46,2.03L6.15,2.26L6.27,1.9L5.96,1.67L6.34,1.67Z"/>
              </g>
              <g id="a-25" data-name="a">
                <path class="cls-1" d="M6.46,3.14L6.58,3.5L6.96,3.5L6.65,3.73L6.77,4.09L6.46,3.86L6.15,4.09L6.27,3.73L5.96,3.5L6.34,3.5Z"/>
              </g>
              <g id="a-26" data-name="a">
                <path class="cls-1" d="M6.46,4.97L6.58,5.33L6.96,5.33L6.65,5.56L6.77,5.92L6.46,5.69L6.15,5.92L6.27,5.56L5.96,5.33L6.34,5.33Z"/>
              </g>
              <g id="a-27" data-name="a">
                <path class="cls-1" d="M6.46,6.8L6.58,7.16L6.96,7.16L6.65,7.39L6.77,7.75L6.46,7.52L6.15,7.75L6.27,7.39L5.96,7.16L6.34,7.16Z"/>
              </g>
            </g>
          </g>
          <g id="c-4" data-name="c">
            <g id="e-4" data-name="e">
              <g id="b-7" data-name="b">
                <g id="a-28" data-name="a">
                  <path class="cls-1" d="M7.54,0.39L7.66,0.75L8.04,0.75L7.73,0.98L7.85,1.34L7.54,1.11L7.23,1.34L7.35,0.98L7.04,0.75L7.42,0.75Z"/>
                </g>
                <g id="a-29" data-name="a">
                  <path class="cls-1" d="M7.54,2.22L7.66,2.58L8.04,2.58L7.73,2.81L7.85,3.17L7.54,2.94L7.23,3.17L7.35,2.81L7.04,2.58L7.42,2.58Z"/>
                </g>
                <g id="a-30" data-name="a">
                  <path class="cls-1" d="M7.54,4.06L7.66,4.42L8.04,4.42L7.73,4.65L7.85,5.01L7.54,4.78L7.23,5.01L7.35,4.65L7.04,4.42L7.42,4.42Z"/>
                </g>
                <g id="a-31" data-name="a">
                  <path class="cls-1" d="M7.54,5.89L7.66,6.25L8.04,6.25L7.73,6.48L7.85,6.84L7.54,6.61L7.23,6.84L7.35,6.48L7.04,6.25L7.42,6.25Z"/>
                </g>
              </g>
              <g id="a-32" data-name="a">
                <path class="cls-1" d="M7.54,7.72L7.66,8.08L8.04,8.08L7.73,8.31L7.85,8.67L7.54,8.44L7.23,8.67L7.35,8.31L7.04,8.08L7.42,8.08Z"/>
              </g>
            </g>
            <g id="b-8" data-name="b">
              <g id="a-33" data-name="a">
                <path class="cls-1" d="M8.62,1.31L8.74,1.67L9.12,1.67L8.81,1.9L8.93,2.26L8.62,2.03L8.31,2.26L8.43,1.9L8.12,1.67L8.5,1.67Z"/>
              </g>
              <g id="a-34" data-name="a">
                <path class="cls-1" d="M8.62,3.14L8.74,3.5L9.12,3.5L8.81,3.73L8.93,4.09L8.62,3.86L8.31,4.09L8.43,3.73L8.12,3.5L8.5,3.5Z"/>
              </g>
              <g id="a-35" data-name="a">
                <path class="cls-1" d="M8.62,4.97L8.74,5.33L9.12,5.33L8.81,5.56L8.93,5.92L8.62,5.69L8.31,5.92L8.43,5.56L8.12,5.33L8.5,5.33Z"/>
              </g>
              <g id="a-36" data-name="a">
                <path class="cls-1" d="M8.62,6.8L8.74,7.16L9.12,7.16L8.81,7.39L8.93,7.75L8.62,7.52L8.31,7.75L8.43,7.39L8.12,7.16L8.5,7.16Z"/>
              </g>
            </g>
          </g>
        </g>
        <g id="c-5" data-name="c">
          <g id="e-5" data-name="e">
            <g id="b-9" data-name="b">
              <g id="a-37" data-name="a">
                <path class="cls-1" d="M9.69,0.39L9.81,0.75L10.19,0.75L9.88,0.98L10.0,1.34L9.69,1.11L9.38,1.34L9.5,0.98L9.19,0.75L9.57,0.75Z"/>
              </g>
              <g id="a-38" data-name="a">
                <path class="cls-1" d="M9.69,2.22L9.81,2.58L10.19,2.58L9.88,2.81L10.0,3.17L9.69,2.94L9.38,3.17L9.5,2.81L9.19,2.58L9.57,2.58Z"/>
              </g>
              <g id="a-39" data-name="a">
                <path class="cls-1" d="M9.69,4.06L9.81,4.42L10.19,4.42L9.88,4.65L10.0,5.01L9.69,4.78L9.38,5.01L9.5,4.65L9.19,4.42L9.57,4.42Z"/>
              </g>
              <g id="a-40" data-name="a">
                <path class="cls-1" d="M9.69,5.89L9.81,6.25L10.19,6.25L9.88,6.48L10.0,6.84L9.69,6.61L9.38,6.84L9.5,6.48L9.19,6.25L9.57,6.25Z"/>
              </g>
            </g>
            <g id="a-41" data-name="a">
              <path class="cls-1" d="M9.69,7.72L9.81,8.08L10.19,8.08L9.88,8.31L10.0,8.67L9.69,8.44L9.38,8.67L9.5,8.31L9.19,8.08L9.57,8.08Z"/>
            </g>
          </g>
          <g id="b-10" data-name="b">
            <g id="a-42" data-name="a">
              <path class="cls-1" d="M10.77,1.31L10.89,1.67L11.27,1.67L10.96,1.9L11.08,2.26L10.77,2.03L10.46,2.26L10.58,1.9L10.27,1.67L10.65,1.67Z"/>
            </g>
            <g id="a-43" data-name="a">
              <path class="cls-1" d="M10.77,3.14L10.89,3.5L11.27,3.5L10.96,3.73L11.08,4.09L10.77,3.86L10.46,4.09L10.58,3.73L10.27,3.5L10.65,3.5Z"/>
            </g>
            <g id="a-44" data-name="a">
              <path class="cls-1" d="M10.77,4.97L10.89,5.33L11.27,5.33L10.96,5.56L11.08,5.92L10.77,5.69L10.46,5.92L10.58,5.56L10.27,5.33L10.65,5.33Z"/>
            </g>
            <g id="a-45" data-name="a">
              <path class="cls-1" d="M10.77,6.8L10.89,7.16L11.27,7.16L10.96,7.39L11.08,7.75L10.77,7.52L10.46,7.75L10.58,7.39L10.27,7.16L10.65,7.16Z"/>
            </g>
          </g>
        </g>
        <g id="e-6" data-name="e">
          <g id="b-11" data-name="b">
            <g id="a-46" data-name="a">
              <path class="cls-1" d="M11.85,0.39L11.97,0.75L12.35,0.75L12.04,0.98L12.16,1.34L11.85,1.11L11.54,1.34L11.66,0.98L11.35,0.75L11.73,0.75Z"/>
            </g>
            <g id="a-47" data-name="a">
              <path class="cls-1" d="M11.85,2.22L11.97,2.58L12.35,2.58L12.04,2.81L12.16,3.17L11.85,2.94L11.54,3.17L11.66,2.81L11.35,2.58L11.73,2.58Z"/>
            </g>
            <g id="a-48" data-name="a">
              <path class="cls-1" d="M11.85,4.06L11.97,4.42L12.35,4.42L12.04,4.65L12.16,5.01L11.85,4.78L11.54,5.01L11.66,4.65L11.35,4.42L11.73,4.42Z"/>
            </g>
            <g id="a-49" data-name="a">
              <path class="cls-1" d="M11.85,5.89L11.97,6.25L12.35,6.25L12.04,6.48L12.16,6.84L11.85,6.61L11.54,6.84L11.66,6.48L11.35,6.25L11.73,6.25Z"/>
            </g>
          </g>
          <g id="a-50" data-name="a">
            <path class="cls-1" d="M11.85,7.72L11.97,8.08L12.35,8.08L12.04,8.31L12.16,8.67L11.85,8.44L11.54,8.67L11.66,8.31L11.35,8.08L11.73,8.08Z"/>
          </g>
        </g>
      </g>
    </g>
  </g>
</svg>