<?xml version="1.0" encoding="UTF-8"?>
<svg id="Layer_2" data-name="Layer 2" xmlns="http://www.w3.org/2000/svg" viewBox="0 0 23.81 17.01">
  <defs>
    <style>
      .cls-1 {
        fill: #ed2224;
      }

      .cls-2 {
        fill: #010101;
      }
    </style>
  </defs>
  <g id="Layer_1-2" data-name="Layer 1">
    <g>
      <path class="cls-1" d="M0,0h23.81v17.01H0V0Z"/>
      <path class="cls-2" d="M10.21,3.31c-.17,0-.44.05-.43.18-.46-.08-.51.11-.48.28.04-.07.1-.1.14-.11.06-.01.13,0,.19.05.07.04.14.11.17.15-.16.04-.29.01-.42,0-.06-.01-.15-.05-.2-.08-.05-.04-.07-.07-.15-.16-.1-.1-.2-.07-.17.08.07.14.2.21.36.23.08.01.19.04.31.04s.27-.02.35,0c-.05.03-.1.08-.2.1-.11.02-.27-.06-.37-.09.01.08.12.16.32.2.34.07.62.13.81.23.19.1.3.23.39.33.17.2.18.35.19.38.03.31-.08.49-.28.55-.1.03-.28-.02-.35-.1-.07-.08-.13-.21-.11-.42.02-.08.11-.3.03-.34-.37-.2-.82-.41-1.14-.53-.09-.03-.16.09-.19.13-.55-.07-1.05-.44-1.27-.84-.15-.27-.4,0-.36.26.07.29.29.49.55.64.27.15.6.29.94.28.18.03.18.27-.04.31-.43,0-.77,0-1.09-.32-.24-.22-.38.04-.31.19.12.46.78.59,1.45.44.26-.04.1.24.03.24-.28.2-.78.4-1.22,0-.2-.15-.34-.02-.26.2.2.58.95.46,1.46.17.13-.07.25.1.09.23-.64.45-.96.45-1.25.28-.36-.14-.39.26-.18.39.24.15.85.04,1.29-.24.19-.14.2.08.08.17-.53.46-.74.58-1.29.5-.27-.02-.27.32-.05.45.29.18.87-.12,1.31-.49.19-.1.22.06.13.26-.27.34-.53.55-.77.64-.25.09-.48.08-.65.02-.2-.07-.23.14-.12.33.07.12.35.15.65.05.3-.11.63-.36.85-.66.2-.17.17.06.08.22-.45.71-.86.97-1.4.93-.24-.04-.29.15-.14.32.27.22.6.22.9,0,.26-.25.76-.79,1.02-1.08.18-.15.24,0,.19.3-.05.17-.17.35-.51.48-.23.13-.06.31.11.31.09,0,.29-.11.43-.27.19-.22.2-.36.31-.7.1-.17.28-.09.28.09-.09.34-.16.4-.33.54-.17.16.12.21.21.14.28-.19.38-.43.47-.65.07-.16.26-.08.17.18-.21.62-.57.86-1.18.98-.06.01-.1.05-.08.12.08.09.17.16.25.25-.38.11-.69.17-1.07.28-.19-.12-.34-.23-.52-.35-.05-.12-.07-.29-.35-.17-.19-.09-.27-.05-.38.03.15,0,.21.05.27.11.08.2.25.22.43.16.12.1.18.17.3.27-.22,0-.37-.01-.59-.02-.21-.22-.38-.21-.53-.04-.11.02-.16.02-.24.16.12-.05.2-.07.25-.01.22.13.37.1.48,0,.21.01.41.02.62.04-.08.07-.19.1-.27.17-.32-.09-.49.03-.55.29-.04.11-.06.22-.04.33.03-.1.08-.19.17-.25.29.07.39-.04.41-.22.14-.11.35-.14.48-.25.16.05.24.08.4.13.06.18.19.25.4.2.25,0,.21.11.23.19.07-.12.07-.23-.09-.34-.06-.15-.18-.22-.35-.14-.15-.04-.2-.11-.35-.15.39-.12.67-.15,1.06-.28.1.09.17.16.27.24.05.03.1.04.13,0,.24-.35.35-.67.58-.9.09-.1.2-.23.32-.26.06-.02.14,0,.18.05s.08.15.07.29c-.02.2-.07.27-.13.39-.06.12-.13.2-.2.29-.14.19-.33.3-.45.37-.23.15-.32.08-.5.07-.23.03-.29.14-.1.29.17.09.33.1.45.08.11-.02.23-.16.33-.23.1-.12.27.02.16.16-.21.25-.42.41-.68.41-.27.04-.22.19-.04.26.32.13.62-.12.76-.28.11-.13.2-.13.18.06-.11.35-.27.49-.52.5-.21-.02-.21.14-.06.25.34.24.59-.17.71-.41.08-.22.21-.12.22.07,0,.24-.11.44-.4.69.22.36.49.72.71,1.08l.68-7.58-.68-1.2c-.07-.07-.31-.35-.37-.39-.02-.02-.04-.04,0-.05.03-.01.11-.03.16-.04-.14-.14-.27-.19-.54-.27.07-.03.13-.01.33-.02-.08-.11-.25-.28-.48-.36.15-.11.18-.11.32-.24-.25-.02-.47-.07-.69-.13-.14-.06-.33-.12-.42-.12h0ZM10.23,3.6c.13,0,.22.05.22.1s-.08.1-.22.1-.22-.05-.22-.11.08-.1.22-.1"/>
      <path class="cls-2" d="M13.6,3.31c.17,0,.44.05.43.18.46-.08.51.11.48.28-.04-.07-.1-.1-.14-.11-.06-.01-.13,0-.19.05-.07.04-.14.11-.17.15.16.04.29.01.42,0,.06-.01.15-.05.2-.08.05-.04.07-.07.15-.16.1-.1.2-.07.17.08-.07.14-.2.21-.36.23-.08.01-.19.04-.31.04s-.27-.02-.35,0c.05.03.1.08.2.1.11.02.27-.06.37-.09-.01.08-.12.16-.32.2-.34.07-.62.13-.81.23-.19.1-.3.23-.39.33-.17.2-.18.35-.19.38-.03.31.08.49.28.55.1.03.28-.02.35-.1.07-.08.13-.21.11-.42-.02-.08-.11-.3-.03-.34.37-.2.82-.41,1.14-.53.09-.03.16.09.19.13.55-.07,1.05-.44,1.27-.84.15-.27.4,0,.36.26-.07.29-.29.49-.55.64-.27.15-.6.29-.94.28-.18.03-.18.27.04.31.43,0,.77,0,1.09-.32.24-.22.38.04.31.19-.12.46-.78.59-1.45.44-.26-.04-.1.24-.03.24.28.2.78.4,1.22,0,.2-.15.34-.02.26.2-.2.58-.95.46-1.46.17-.13-.07-.25.1-.09.23.64.45.96.45,1.25.28.36-.14.39.26.18.39-.24.15-.85.04-1.29-.24-.19-.14-.2.08-.08.17.53.46.74.58,1.29.5.27-.02.27.32.05.45-.29.18-.87-.12-1.31-.49-.19-.1-.22.06-.13.26.27.34.53.55.77.64.25.09.48.08.65.02.2-.07.23.14.12.33-.07.12-.35.15-.65.05-.3-.11-.63-.36-.85-.66-.2-.17-.17.06-.08.22.45.71.86.97,1.4.93.24-.04.29.15.14.32-.27.22-.6.22-.9,0-.26-.25-.76-.79-1.02-1.08-.18-.15-.24,0-.19.3.05.17.17.35.51.48.23.13.06.31-.11.31-.09,0-.29-.11-.43-.27-.19-.22-.2-.36-.31-.7-.1-.17-.28-.09-.28.09.09.34.16.4.33.54.17.16-.12.21-.21.14-.28-.19-.38-.43-.47-.65-.07-.16-.26-.08-.17.18.21.62.57.86,1.18.98.06.01.1.05.08.12-.08.09-.17.16-.25.25.38.11.69.17,1.07.28.19-.12.34-.23.52-.35.05-.12.07-.29.35-.17.19-.09.27-.05.38.03-.15,0-.21.05-.27.11-.08.2-.25.22-.43.16-.12.1-.18.17-.3.27.22,0,.37-.01.59-.02.21-.22.38-.21.53-.04.11.02.16.02.24.16-.12-.05-.2-.07-.25-.01-.22.13-.37.1-.48,0-.21.01-.41.02-.62.04.08.07.19.1.27.17.32-.09.49.03.55.29.04.11.06.22.04.33-.03-.1-.08-.19-.17-.25-.29.07-.39-.04-.41-.22-.14-.11-.35-.14-.48-.25-.16.05-.24.08-.4.13-.06.18-.19.25-.4.2-.25,0-.21.11-.23.19-.07-.12-.07-.23.09-.34.06-.15.18-.22.35-.14.15-.04.2-.11.35-.15-.39-.12-.67-.15-1.06-.28-.1.09-.17.16-.27.24-.05.03-.1.04-.13,0-.24-.35-.35-.67-.58-.9-.09-.1-.2-.23-.32-.26-.06-.02-.14,0-.18.05s-.08.15-.07.29c.02.2.07.27.13.39.06.12.13.2.2.29.14.19.33.3.45.37.23.15.32.08.5.07.23.03.29.14.1.29-.17.09-.33.1-.45.08-.11-.02-.23-.16-.33-.23-.1-.12-.27.02-.16.16.21.25.42.41.68.41.27.04.22.19.04.26-.32.13-.62-.12-.76-.28-.11-.13-.2-.13-.18.06.11.35.27.49.52.5.21-.02.21.14.06.25-.34.24-.59-.17-.71-.41-.08-.22-.21-.12-.22.07,0,.24.11.44.4.69-.22.36-.49.72-.71,1.08l-.68-7.58.68-1.2c.07-.07.31-.35.37-.39.02-.02.04-.04,0-.05-.03-.01-.11-.03-.16-.04.14-.14.27-.19.54-.27-.07-.03-.13-.01-.33-.02.08-.11.25-.28.48-.36-.15-.11-.18-.11-.32-.24.25-.02.47-.07.69-.13.14-.06.33-.12.42-.12h0ZM13.58,3.6c-.13,0-.22.05-.22.1s.08.1.22.1.22-.05.22-.11-.08-.1-.22-.1"/>
    </g>
  </g>
</svg>