<?xml version="1.0" encoding="UTF-8"?>
<svg id="Layer_2" data-name="Layer 2" xmlns="http://www.w3.org/2000/svg" viewBox="0 0 24.3 17.01">
  <defs>
    <style>
      .cls-1, .cls-2, .cls-3, .cls-4, .cls-5, .cls-6, .cls-7, .cls-8, .cls-9, .cls-10, .cls-11, .cls-12, .cls-13, .cls-14, .cls-15, .cls-16, .cls-17, .cls-18, .cls-19, .cls-20, .cls-21 {
        fill: none;
      }

      .cls-1, .cls-2, .cls-4, .cls-5, .cls-6, .cls-7, .cls-22, .cls-10, .cls-11, .cls-12, .cls-13, .cls-14, .cls-16, .cls-17, .cls-18, .cls-19, .cls-20, .cls-21 {
        stroke: #72402b;
      }

      .cls-1, .cls-5, .cls-6, .cls-9, .cls-11, .cls-15 {
        stroke-linecap: round;
      }

      .cls-1, .cls-10 {
        stroke-width: .03px;
      }

      .cls-23, .cls-24 {
        fill: #c6aa77;
      }

      .cls-2 {
        stroke-width: .03px;
      }

      .cls-3, .cls-8, .cls-9, .cls-11, .cls-12, .cls-15, .cls-19 {
        stroke-width: .02px;
      }

      .cls-3, .cls-9, .cls-24 {
        stroke: #c6aa77;
      }

      .cls-4 {
        stroke-width: .02px;
      }

      .cls-5, .cls-16 {
        stroke-width: .03px;
      }

      .cls-6, .cls-13 {
        stroke-width: .03px;
      }

      .cls-7 {
        stroke-width: .02px;
      }

      .cls-25 {
        fill: #fff;
      }

      .cls-8, .cls-26, .cls-15 {
        stroke: #fedd00;
      }

      .cls-22 {
        stroke-width: 0px;
      }

      .cls-22, .cls-27 {
        fill: #72402b;
      }

      .cls-28 {
        stroke: #d92e27;
      }

      .cls-28, .cls-26, .cls-24 {
        stroke-width: .01px;
      }

      .cls-28, .cls-29 {
        fill: #d92e27;
      }

      .cls-26 {
        fill: #fddb00;
      }

      .cls-10 {
        stroke-linejoin: round;
      }

      .cls-30 {
        fill: #2160ad;
      }

      .cls-31 {
        fill: #fedd00;
      }

      .cls-14 {
        stroke-width: .03px;
      }

      .cls-32 {
        fill: #2c318c;
      }

      .cls-33 {
        fill: #d51f36;
      }

      .cls-17 {
        stroke-width: .03px;
      }

      .cls-18 {
        stroke-width: .03px;
      }

      .cls-19 {
        stroke-linecap: square;
      }

      .cls-20 {
        stroke-width: .02px;
      }

      .cls-21 {
        stroke-width: .02px;
      }
    </style>
  </defs>
  <g id="Layer_1-2" data-name="Layer 1">
    <g>
      <path class="cls-33" d="M0,0h24.3v17.01H0V0Z"/>
      <path class="cls-31" d="M0,0h16.52v17.01H0V0Z"/>
      <path class="cls-32" d="M0,0h7.78v17.01H0V0Z"/>
      <path class="cls-23" d="M11.4,4.58c.29,0,.41.25.71.25.18,0,.29-.06.44-.15.11-.06.18-.1.31-.1s.21.04.27.15c.04.06.07.19.05.26-.02.11-.06.21-.1.31-.03.06-.05.09-.05.16,0,.16.21.21.36.21.03,0,.29,0,.46-.16-.09,0-.19-.07-.19-.16,0-.1.07-.17.16-.2.02,0,.05.01.07,0,.02-.01.01-.04.03-.05.05-.04.08-.06.14-.06.03,0,.07,0,.09.03.02.01.02.03.04.03.04,0,.06-.03.11-.03.03,0,.06,0,.09.02.03.01.03.06.05.06.01,0,.09-.03.13-.03.08,0,.13.03.18.09.01.02.02.05.04.05.05,0,.1.03.14.06.02.01.03.03.04.05,0,.02.03.05.04.06.02,0,.04.01.06.02.06.04.1.11.11.18,0,.03,0,.05-.02.08-.07.25-.24.33-.41.54-.07.09-.13.16-.13.28,0,.03.03.08.05.1,0-.06.02-.12.07-.13.08,0,.15.06.15.14,0,.02,0,.05-.01.07.05-.03.1-.05.15-.05.02,0,.05,0,.07,0,.13,0,.27.07.35.15.26.22.29.55.28.64-.03.2-.01.56-.52.71.09.04.16.11.16.2,0,.1-.07.17-.17.18-.05,0-.1-.02-.13-.05-.11.11-.13.22-.13.37,0,.08.02.16.05.22.04.09.07.14.14.2.04-.06.08-.1.15-.1s.12.02.15.08c0,.02,0,.03.01.05.01.02.03.03.04.05.02.04,0,.07.02.1.01.02.03.03.04.05.01.03.02.07.02.1,0,.11-.1.2-.22.2-.03,0-.05-.01-.09-.01.07.07.12.09.16.17.07.11.09.19.11.33,0,.02,0,.04,0,.07,0,.17-.03.27-.1.43-.07.15-.14.23-.27.32-.21.15-.36.19-.61.24-.14.03-.28.05-.42.05l-.54.03c-.27.02-.46.06-.66.25.09.07.15.13.15.25s-.07.2-.18.24c-.03,0-.04,0-.07.01-.03.02-.03.05-.05.07-.04.03-.09.04-.14.04-.1,0-.17-.02-.24-.1-.08.07-.11.13-.21.19-.03.02-.05.04-.08.04-.06,0-.08-.04-.13-.07-.06-.04-.12-.1-.17-.15-.09.05-.14.09-.24.09-.05,0-.11-.01-.15-.04-.03-.02-.03-.04-.06-.06-.03-.02-.05-.01-.08-.02-.11-.05-.19-.13-.19-.26,0-.11.07-.18.17-.22-.19-.19-.38-.22-.65-.24l-.53-.03c-.14-.01-.28-.03-.42-.05-.12-.02-.2-.03-.31-.08-.39-.18-.64-.43-.69-.86,0-.03,0-.06,0-.09,0-.22.09-.36.24-.51-.04,0-.07,0-.11-.01-.1-.04-.17-.1-.17-.21,0-.03,0-.07.02-.1.01-.02.04-.03.04-.05,0-.04,0-.06.01-.09.01-.02.03-.03.04-.05.03-.07.08-.13.15-.13.07,0,.11.04.14.09.07-.03.08-.08.12-.14.06-.1.09-.17.09-.29,0-.07,0-.14-.03-.21-.02-.06-.03-.1-.07-.14-.03.04-.08.05-.13.05-.11,0-.2-.09-.19-.2,0-.08.04-.15.11-.18-.06-.05-.11-.05-.18-.1-.1-.06-.13-.13-.2-.23-.04-.06-.05-.11-.08-.18-.03-.08-.04-.15-.04-.23,0-.02,0-.04,0-.06.02-.19.06-.3.18-.45.07-.09.12-.14.22-.19.09-.04.14-.07.24-.07.02,0,.05,0,.07,0,.04,0,.08.01.11.03.01,0,.04.03.04.02,0-.02-.01-.03-.01-.05,0-.08.06-.15.14-.15.06,0,.08.05.11.1.02-.03.03-.06.03-.09,0-.13-.07-.2-.15-.3-.18-.22-.4-.32-.4-.61,0-.08.04-.14.11-.19.02-.01.05,0,.07-.01.02-.01.02-.03.03-.05.02-.02.04-.04.06-.06.04-.04.08-.02.12-.06.02-.02.03-.04.04-.06.05-.06.09-.09.17-.09.03,0,.07,0,.1.01.01,0,.04.02.04.02.02-.02.03-.03.05-.04.03-.02.05-.02.08-.02.04,0,.07.02.11.02.02,0,.02-.02.03-.02.04-.03.06-.04.1-.04.04,0,.08.01.1.04.03.02.04.05.08.07.02.01.04,0,.06.01.1.03.17.1.17.2,0,.05-.02.1-.05.13-.03.03-.06.02-.11.04.14.11.26.14.43.14.16,0,.36-.07.36-.22,0-.07-.04-.11-.07-.18-.05-.12-.08-.19-.08-.33,0-.1.01-.17.07-.25.06-.09.14-.11.25-.11h0s0,0,0,0Z"/>
      <g>
        <path class="cls-10" d="M10.34,5.43s.05.08.09.09c.05.01.11,0,.15-.05.03-.04.04-.1.02-.15-.01-.03-.04-.06-.07-.08l-.19.2h0s0,0,0,0Z"/>
        <path class="cls-5" d="M15.22,8.36c-.05-.11-.16-.06-.17,0-.02.14.11.18.19.16.04-.01.07-.04.09-.07.02-.04.03-.09.01-.14-.01-.04-.04-.08-.08-.11-.03-.02-.07-.02-.13-.02-.21,0-.4.25-.46.51-.03.15-.04.31,0,.46.03.16.11.31.22.43.07.06.14.11.22.16.05.03.1.05.16.07.05.01.1.01.15,0,.13-.03.18-.14.12-.26-.05-.1-.2-.15-.28-.03,0,.02-.02.04-.02.06,0,.03.01.07.04.09.05.03.14.02.14-.07"/>
        <path class="cls-17" d="M14.57,9.79c.07-.07.15-.12.25-.14.11-.01.21.02.31.07.2.11.31.22.38.43.02.07.03.14.03.22,0,.14-.04.29-.08.36-.03.06-.12.34-.58.53-.27.11-.69.14-.97.15-.39.02-.76.03-.97.29"/>
        <g>
          <path class="cls-13" d="M14.67,10.24s0-.08.03-.13c.04-.06.14-.08.22-.03.04.02.07.05.1.08l.04.06s.03.06.04.09c.09.27-.06.55-.25.67-.15.09-.33.13-.55.15-.1.01-.15.01-.25.02-.08,0-.15,0-.21,0h-.15c-.09,0-.18,0-.27,0-.11,0-.19.01-.29.03-.06.01-.13.02-.21.04-.02,0-.05,0-.07.02h-.05c-.13.05-.25.1-.37.17-.03.02-.06.04-.09.07-.02.02-.04.03-.05.05-.07.07-.15.15-.16.25,0,.02,0,.04,0,.06,0,.07.06.16.2.19M12.55,5.57c.03.06.05.09.03.15-.02.07-.07.11-.13.11-.15,0-.24-.18-.17-.29.12-.2.35-.09.57.01-.01-.05-.03-.07-.03-.13,0-.16.12-.23.17-.38.03-.09.04-.16-.02-.23-.06-.05-.12-.05-.19-.02-.15.06-.32.22-.63.23-.31,0-.49-.17-.63-.23-.07-.03-.14-.03-.19.02-.06.06-.05.14-.02.23.05.15.17.22.17.38,0,.06-.02.08-.03.13.22-.1.46-.22.57-.01.06.12-.02.29-.17.29-.07,0-.11-.04-.13-.11-.02-.05,0-.11.03-.15"/>
          <path class="cls-6" d="M11.94,5.46c.06.04.1.1.09.19,0,.1-.03.12-.11.17M12.02,5.68c0,.05-.03.1-.09.12"/>
        </g>
      </g>
      <path class="cls-23" d="M10.51,5.21l.03.02.03.03.02.04v.03s.01.04.01.04v.03s-.01.03-.01.03l-.02.02-.02.02-.03.02h-.04s-.04.02-.04.02l-.04-.02-.03-.02-.02-.03-.02-.04v-.02l.19-.18h0,0Z"/>
      <g>
        <path class="cls-1" d="M10.45,5.36c-.01-.06-.08-.08-.11-.04-.04.06-.01.15.08.18.05.01.11,0,.15-.05.05-.07.04-.18-.04-.23h0c-.1-.08-.27-.07-.32.07-.07.17.08.3.22.39.18.12.38.14.53.14.35,0,.61-.17.78-.26.04-.02.08-.02.1,0,.03.03.02.08,0,.1"/>
        <path class="cls-2" d="M9.42,10.07l-.08.03-.08.06-.03.05-.04.08-.02.06-.02.07v.05M9.86,10.07v.07s-.02.05-.02.05l-.03.08-.05.07-.06.05-.04.02h-.06"/>
        <path class="cls-14" d="M12.14,11.89c-.01.06-.07.13-.2.16h-.02"/>
        <path class="cls-18" d="M15.35,9.88c.08.08.15.18.18.29.02.07.03.14.03.22,0,.14-.04.29-.08.36-.03.06-.12.34-.58.53-.27.11-.69.14-.97.15-.39.02-.75.03-.96.28"/>
        <path class="cls-20" d="M14.71,10.13s.13-.09.22-.04c.04.02.07.05.09.08"/>
        <path class="cls-18" d="M15.25,9.79l.05.02s.1.02.15,0c.11-.03.18-.13.12-.26-.02-.03-.04-.06-.07-.08"/>
        <path class="cls-1" d="M9.12,6.98c-.07.04-.13.06-.18.12-.04.08-.08.17-.1.26M10.59,5.39c0,.07-.05.11-.11.12"/>
        <path class="cls-21" d="M15.08,6.68c.18,0,.7.14.7.75,0,.61-.37.7-.52.74"/>
        <path class="cls-16" d="M15.12,6.68c.31-.01.63.21.64.78.01.44-.3.65-.46.69"/>
        <path class="cls-4" d="M14.95,8.82v-.06s.03-.1.03-.1l.03-.08.03-.06.04-.05M15.37,8.35v.06s-.02.04-.02.04l-.03.04-.03.02-.05.02h-.04s-.03,0-.03,0M14.63,6.52v-.06s.04-.06.04-.06l.04-.06.06-.08.05-.06.08-.08.07-.07.04-.05.06-.07.05-.08.03-.06.02-.08v-.1s0-.03,0-.03M14.71,10.43h.06s.05-.04.05-.04l.03-.03.02-.03v-.05s.01-.03.01-.03M8.87,9.8h.05s.06,0,.06,0l.06-.02M9.22,8.39v.05s-.02.02-.02.02l-.02.02-.02.02h-.03s-.04.02-.04.02h-.02M9.44,7.94v.08s-.03.04-.03.04l-.03.05-.04.03-.05.02-.09.02M9.79,6.67l-.02.05-.02.04-.03.04-.04.04-.05.02h-.04s-.02,0-.02,0M9.58,6.62v.04"/>
        <g>
          <path class="cls-11" d="M9.65,7.9s-.05.04-.08.05M15.29,9.65s.01,0,.02,0c.05.03.16,0,.13-.09"/>
          <path class="cls-12" d="M15.1,8.49s.11.06.17.05c.04-.01.07-.04.09-.07.02-.04.03-.09.01-.14,0-.02-.02-.04-.03-.06-.01-.02-.03-.04-.05-.05,0,0,0,0-.01,0M15.53,9.49c0-.05,0-.1-.05-.14,0-.01-.02-.02-.03-.03M15.46,9.34c0-.07-.06-.12-.13-.13M15.17,9.31s-.03-.03-.05-.04c-.1-.11-.16-.25-.16-.41,0-.16.06-.32.14-.38M12.95,11.7l.07-.06.05-.04.09-.05.08-.04.06-.02.12-.03.14-.02M12.43,12.18c-.05.08-.17.19-.29.23-.12-.05-.24-.16-.29-.23"/>
          <path class="cls-11" d="M11.94,12.02c-.02.06-.04.11-.08.16"/>
          <path class="cls-12" d="M11.95,11.94l-.02.08M11.84,12.18l-.04.04-.06.04-.07.02M11.46,5.53s.02-.06.02-.1c0-.16-.12-.23-.17-.38-.03-.09-.04-.16.02-.23.06-.05.12-.05.19-.02.15.06.32.22.63.23-.31,0-.49-.17-.63-.23-.07-.03-.14-.04-.2.02-.06.06-.05.15-.02.23.05.15.16.22.16.38,0,.03,0,.07-.02.1M12.15,5.01c.3-.02.56-.22.65-.24.07-.01.12,0,.17.04-.06-.05-.12-.05-.19-.02-.15.06-.32.22-.63.23M15.18,9.31c-.15-.11-.23-.28-.24-.47,0-.16.06-.32.14-.38M12.42,12.17c-.05.08-.17.19-.29.23-.12-.05-.24-.16-.29-.23"/>
          <path class="cls-11" d="M11.64,5.61l.09-.05s.09-.02.11,0c.03.03.02.08,0,.11"/>
          <path class="cls-12" d="M11.19,5.82c.21-.04.38-.14.51-.21M12.92,11.84s.02.02.03.04c0,.01,0,.02.01.03,0,.04-.02.09-.06.1,0,0,0,0-.01,0-.06,0-.11-.02-.13-.08M11.18,5.81c.21-.04.38-.14.51-.21M15.39,9.66s-.06.01-.11,0c-.02,0-.04-.02-.07-.04-.1-.05-.21-.14-.32-.34-.03-.05-.05-.11-.06-.17-.01-.04-.02-.08-.02-.13,0-.08,0-.16.02-.24.02-.13.08-.24.15-.34.04-.06.08-.1.16-.1M9.69,6.8c.07.05.1.13.1.22,0,.12-.1.31-.34.38-.08.02-.17.01-.24-.03M9.73,7.2s.07.07.06.12c0,.04-.03.09-.07.14-.09.09-.21.15-.33.15-.08,0-.16-.02-.23-.07-.07-.05-.12-.12-.15-.2"/>
          <path class="cls-12" d="M9.73,7.45s.06.1.06.17c0,.1-.04.18-.14.27-.02.02-.05.04-.07.05M14.49,7.11v.13M14.48,7.08v.19M14.49,6.67v.25M14.48,6.61v.34M14.41,10.06c-.04.08-.09.15-.16.22-.06.06-.14.12-.22.15-.08.04-.16.07-.25.08-.09.02-.17.03-.26.03-.08,0-.16,0-.24,0-.1,0-.16-.02-.26-.03-.07,0-.14-.01-.21-.01-.07,0-.15,0-.22.02-.07.01-.13.03-.2.05-.1.04-.22.11-.24.15-.02-.03-.14-.1-.24-.15-.06-.03-.13-.04-.2-.05-.07-.01-.15-.02-.22-.02-.07,0-.14,0-.21.01-.1,0-.16.02-.26.03-.08,0-.16,0-.24,0-.09,0-.18-.01-.26-.03-.09-.02-.17-.04-.25-.08-.08-.04-.16-.09-.22-.15l-.02-.02M11.63,12.28h.07M12.85,12.18h.07s.07-.03.07-.03l.05-.03.06-.07v-.03s.02-.06.02-.06v-.03M14.9,6.74c.03-.1,0-.21-.1-.2M9.79,8.3c-.02.07-.07.14-.14.18M9.79,6.71c-.02.07-.07.12-.14.15-.07.03-.15,0-.19-.03"/>
          <path class="cls-11" d="M9.26,7.08c.06.03.12-.01.11-.09-.01-.05-.05-.08-.1-.08"/>
          <path class="cls-12" d="M9.5,10.27s.02.03.03.03c.03,0,.05.01.07-.02.03-.04.01-.11-.02-.15-.06-.06-.15-.07-.22-.04-.04.02-.07.05-.1.08l-.04.06s-.03.06-.04.09c-.08.22.01.45.16.6"/>
          <path class="cls-11" d="M12.92,11.84s.02.02.02.03c0,.01,0,.02.01.03,0,.04-.02.09-.06.1,0,0,0,0-.01,0-.06,0-.11-.02-.13-.08"/>
          <path class="cls-12" d="M14.78,5.27c.13.02.23.13.24.27,0,.17-.06.23-.15.35-.09.13-.4.36-.4.63,0,.16.05.27.16.32.08.03.16,0,.2-.04.1-.09.06-.24-.04-.26-.12-.02-.15.17-.03.16M15.45,9.32c-.01-.08-.08-.13-.16-.12-.07.01-.12.07-.12.14,0,.04.01.07.04.1M14.57,6.8c-.07.05-.1.13-.1.22,0,.12.1.31.34.38.09.03.18.02.24-.01M9.13,6.99c-.07.02-.14.07-.18.13-.05.06-.07.15-.09.23-.01.08-.01.17,0,.25.01.08.04.15.09.21.01.02.02.03.04.05.01.01.03.02.04.03M11.46,11.4c.18.08.32.14.43.32.03.06.05.12.05.19,0,.11-.05.22-.13.29-.07.06-.16.09-.25.08-.07,0-.14-.06-.15-.1M9.64,7.9c.1.08.15.16.15.29,0,.11-.05.22-.15.28"/>
          <path class="cls-11" d="M9.55,8.37c.15.19.24.31.24.54,0,.22-.06.36-.19.52"/>
          <path class="cls-12" d="M12.52,5.82s.05-.05.06-.08c.02-.06.02-.1-.01-.15.04.05.04.09.03.15,0,.04-.03.06-.06.08M14.49,9.09v.61h0s0,.06,0,.09v.07"/>
          <path class="cls-12" d="M14.48,9.03v.66h0s0,.06,0,.09l-.02.1M14.48,8.26v.55M14.49,8.3v.45M14.49,7.73v.34M14.48,7.69v.41M14.49,7.39v.13M14.48,7.36v.19M14.41,10.03v.03c-.05.08-.11.15-.17.22-.06.06-.14.12-.22.15-.08.04-.16.07-.25.08-.09.02-.17.03-.26.03-.08,0-.16,0-.24,0-.1,0-.16-.02-.26-.03-.07,0-.14-.01-.21-.01-.07,0-.15,0-.22.02-.07.01-.13.03-.2.05-.1.04-.22.11-.24.15-.02-.03-.14-.1-.24-.15-.06-.03-.13-.04-.2-.05-.07-.01-.15-.02-.22-.02-.07,0-.14,0-.21.01-.1,0-.16.02-.26.03-.08,0-.16,0-.24,0-.09,0-.18-.01-.26-.03-.09-.02-.17-.04-.25-.08-.08-.04-.16-.09-.22-.15-.03-.03-.07-.07-.09-.11M9.87,10.04c.01.11-.02.21-.09.29-.03.03-.1.1-.19.1-.14,0-.19-.1-.2-.12M9.7,9.98s.05.06.07.1c.04.07.02.18,0,.23,0,0,0,.01-.01.02M8.99,11.01c.09.09.21.19.41.27.27.11.69.14.97.15.38.02.73.03.95.27M11.99,11.54c.06.06.13.13.15.21M11.86,12.19c-.07.08-.18.11-.28.1-.07,0-.12-.04-.16-.1M11.22,12.08s0,0,.01.01c.05.05.12.09.19.09M12.44,12.19c-.05.08-.17.19-.29.23-.12-.05-.24-.16-.29-.23v-.02M12.44,12.19s.02.02.03.03c.07.06.16.09.25.08.06,0,.12-.04.15-.1,0,0,.01-.02.02-.03"/>
          <path class="cls-12" d="M12.87,12.17l-.03.05-.04.04-.06.03h-.06"/>
          <path class="cls-12" d="M13.02,11.74s.07.07.09.11c.01.03.02.06.02.09,0,.06-.02.11-.05.16-.05.06-.13.09-.2.09h-.02M12.86,12.18c-.07,0-.15-.03-.2-.08M15.08,9.52c-.07-.07-.14-.15-.18-.24-.03-.05-.05-.11-.06-.17-.01-.04-.02-.08-.02-.13,0-.08,0-.16.02-.24.02-.13.08-.24.15-.34.02-.03.05-.06.08-.08M15.02,5.44c.1,0,.19.11.18.21,0,.15-.05.21-.17.35-.1.12-.4.34-.39.55,0,.04.02.08.04.11M14.57,6.8s.05.04.08.05c.05.02.11.02.16-.01M14,5.2s.07.06.08.1c.07.17-.08.3-.22.39-.1.06-.2.11-.32.12M13.84,5.53s-.09-.02-.12-.06c-.01-.01-.02-.02-.03-.04M13.13,5.62s-.04-.02-.05-.04c-.04-.04-.05-.11-.03-.17.02-.07.14-.27.15-.41,0-.21-.07-.34-.2-.39"/>
          <path class="cls-11" d="M13.19,4.95v.08s-.03.08-.03.08l-.04.11-.03.07-.03.07-.02.05v.04s0,.04,0,.04M14.48,10.29s.01.02.02.03c.02.04.12.11.21.11.14,0,.18-.1.18-.12.02-.11-.02-.14-.08-.17-.02-.01-.05-.01-.07-.01"/>
          <path class="cls-12" d="M9,9.81s-.09.01-.14,0c-.11-.03-.19-.14-.15-.26M9.21,8.34s.02.03.02.04c.02.14-.11.18-.19.16-.05-.01-.09-.05-.11-.09-.02-.03-.02-.06-.02-.09M9.74,7.46s.04.04.05.07M9.74,7.21s.03.03.04.05"/>
          <path class="cls-11" d="M9.79,7.38s-.03.06-.06.09c-.09.09-.21.15-.33.15-.08,0-.16-.02-.23-.07-.08-.05-.13-.12-.15-.21"/>
          <path class="cls-12" d="M9.7,6.81s.07.08.09.13"/>
          <path class="cls-11" d="M9.79,7.11c-.05.15-.17.26-.33.3-.09.02-.21,0-.25-.04"/>
          <path class="cls-12" d="M9.11,7.08c.01.1.08.18.2.18.18,0,.29-.26.13-.44"/>
          <path class="cls-11" d="M8.71,7.95s.06.06.09.09c.07.06.14.1.23.13M9.22,8.19c.16-.02.25-.14.23-.28-.01-.11-.11-.19-.18-.19"/>
          <path class="cls-12" d="M9.49,6.53c.06,0,.11.05.11.11h0"/>
          <path class="cls-11" d="M9.47,5.58c.04.09.1.17.19.22M15.13,6.98c.07.09.02.27-.15.27-.07,0-.13-.04-.17-.1"/>
          <path class="cls-12" d="M14.49,5.81v.6"/>
          <path class="cls-11" d="M9.25,7.07c.05.04.13-.03.1-.1-.02-.05-.09-.1-.18-.04-.1.07-.08.29.12.3.18,0,.29-.26.13-.44-.15-.18-.43-.13-.61,0-.14.11-.23.27-.27.44-.01.06-.02.13-.02.19,0,.16.05.31.14.44.01.02.03.04.05.06.02.03.05.05.07.07.1.09.23.15.4.15.18,0,.28-.13.26-.28-.02-.14-.16-.21-.26-.15-.06.05-.09.19.03.22.06.02.12-.06.08-.11M14.2,5.12c.1-.06.18-.05.24.04.05.08.08.18.06.27-.02.1-.05.14-.13.22M14.45,5.16c.12-.08.24-.04.31.06.05.08.06.14.06.23,0,.15-.09.28-.22.35"/>
          <path class="cls-12" d="M15,5.43c.1.01.17.1.17.2,0,.15-.04.21-.16.35-.1.12-.4.34-.39.55,0,.08.07.15.13.16"/>
          <path class="cls-11" d="M15.01,7.07c-.05.04-.12-.02-.09-.09.02-.05.08-.11.18-.04.1.07.08.29-.12.3-.18,0-.3-.25-.13-.44.16-.17.44-.14.63,0,.08.06.23.23.27.45.04.27.04.6-.24.8-.12.08-.26.12-.4.11-.18,0-.28-.13-.26-.28.02-.14.16-.2.26-.15.1.06.09.21-.03.22-.07,0-.12-.06-.08-.11"/>
          <path class="cls-12" d="M14.91,6.98c.03-.13.14-.14.23-.14.25,0,.42.3.43.59,0,.36-.15.58-.42.59-.07,0-.19-.03-.19-.11"/>
          <path class="cls-19" d="M15.07,6.92c.26.06.36.3.36.52,0,.19-.02.44-.38.53"/>
          <path class="cls-12" d="M15.5,9.47c.02-.08-.04-.16-.12-.17s-.16.04-.17.12c-.01.05.01.11.05.14"/>
          <g>
            <path class="cls-11" d="M14.97,9.24c.06.09.14.17.24.22M15.16,9.87c-.12-.08-.36-.19-.57-.08-.08.04-.13.09-.16.17-.04.12-.02.26.07.36.03.03.1.1.19.1.14,0,.18-.1.18-.12.02-.1-.04-.15-.08-.16-.02,0-.1,0-.12.05,0,.03,0,.05,0,.08"/>
            <path class="cls-11" d="M12.93,11.86c.04.08,0,.12-.06.13-.08,0-.12-.05-.13-.11,0-.09.06-.17.15-.18h.01c.08,0,.16.05.19.13.01.03.02.06.02.09,0,.06-.02.11-.05.16-.05.06-.13.09-.2.09-.16,0-.29-.14-.29-.3,0-.29.43-.45.61-.49.21-.05.34-.07.68-.09.14,0,.24,0,.39-.02.12,0,.23-.03.34-.05.18-.04.34-.12.48-.24.11-.1.17-.17.22-.31.04-.12.06-.35-.05-.53-.09-.14-.23-.23-.39-.26-.14-.02-.27.04-.34.18-.04.07-.02.18,0,.23.04.07.11.11.18.11.14,0,.18-.1.18-.12.02-.1-.04-.15-.08-.16-.02,0-.1,0-.12.05,0,.03,0,.05,0,.08M12.8,11.4c-.18.08-.32.14-.43.32-.03.06-.05.12-.05.19,0,.11.05.22.13.29.07.06.16.09.25.08.07,0,.14-.06.15-.1"/>
          </g>
          <path class="cls-12" d="M14.62,7.9c-.09.03-.15.16-.15.29,0,.11.05.22.15.28"/>
          <path class="cls-11" d="M14.71,8.37c-.15.19-.24.31-.24.54,0,.22.06.36.19.52"/>
          <path class="cls-12" d="M13.89,5.17v-.02c.08-.09.19-.12.27-.06.1.08.13.2.1.34-.02.09-.08.16-.15.21"/>
          <path class="cls-11" d="M10.06,5.12c-.1-.05-.18-.04-.24.04-.07.08-.07.21-.06.27.02.1.05.14.13.22"/>
          <path class="cls-12" d="M9.82,5.16c-.12-.08-.24-.04-.31.06-.05.08-.06.14-.06.23,0,.15.09.28.22.35"/>
          <path class="cls-12" d="M9.48,5.27c-.13.02-.23.12-.23.25,0,.17.04.24.14.36.09.13.4.36.4.63,0,.16-.05.27-.16.32-.08.03-.16,0-.2-.04-.1-.09-.06-.24.04-.26.12-.02.15.17.03.16M9.27,5.43c-.1,0-.19.09-.19.19,0,.15.06.21.17.36.1.12.38.34.38.55,0,.08-.06.18-.11.16"/>
          <path class="cls-11" d="M9.04,8.36c.05-.11.16-.06.17,0,.02.14-.11.18-.19.16-.04-.01-.07-.04-.09-.07-.02-.04-.03-.09-.01-.14,0-.02.02-.04.03-.06.01-.02.03-.03.05-.05.03-.02.07-.02.13-.02.21,0,.4.25.46.51.03.15.04.31,0,.46-.03.16-.11.31-.22.43-.07.06-.14.11-.22.16-.05.03-.1.05-.16.07-.05.02-.1.02-.15,0-.11-.03-.18-.13-.12-.26.04-.1.2-.15.28-.03,0,.02.02.04.02.06,0,.03-.01.07-.04.09-.05.03-.14.02-.14-.07"/>
          <path class="cls-12" d="M8.87,9.66s.06.01.11,0c.02,0,.04-.02.07-.04.1-.05.21-.14.32-.34.03-.05.05-.11.06-.17.01-.04.02-.08.02-.13,0-.08,0-.16-.02-.24-.02-.13-.08-.24-.15-.34-.04-.06-.08-.1-.16-.1M8.76,9.47c-.02-.08.04-.16.12-.17s.16.04.17.12c.01.05-.01.11-.05.14M8.82,9.32c.01-.08.08-.13.16-.12.07.01.12.07.12.14,0,.04-.01.07-.04.1"/>
          <path class="cls-12" d="M9.09,9.31c.15-.11.23-.28.24-.47,0-.16-.06-.32-.14-.38"/>
          <path class="cls-11" d="M9.29,9.24c-.06.09-.14.17-.24.22"/>
          <path class="cls-12" d="M9.67,9.78c-.04-.08-.11-.12-.22-.13-.11-.01-.21.02-.31.07-.2.11-.31.22-.38.43-.02.07-.03.14-.03.22,0,.14.04.29.08.36.03.06.12.34.58.53.27.11.69.14.97.15.39.02.76.03.97.29"/>
          <path class="cls-11" d="M9.1,9.87c.12-.08.36-.19.57-.08.08.04.13.09.16.17.04.12.02.26-.07.36-.03.03-.1.1-.19.1-.14,0-.18-.1-.18-.12-.02-.1.04-.15.08-.16.02,0,.1,0,.12.05,0,.03,0,.05,0,.08"/>
          <path class="cls-12" d="M9.59,10.24s0-.09-.03-.13c-.06-.06-.15-.07-.22-.03-.04.02-.07.05-.1.08l-.04.06s-.03.06-.04.09c-.09.27.06.55.25.67.17.11.34.14.55.15.1,0,.15.01.25.02.08,0,.15,0,.21,0h.15c.09,0,.18,0,.27,0,.11,0,.19.01.29.03.06.01.13.02.21.04.02,0,.05,0,.07.02h.05c.13.05.25.1.37.17.03.02.07.04.09.07.02.02.04.03.05.05.07.07.15.15.16.25,0,.02,0,.04,0,.06,0,.07-.06.16-.2.19"/>
          <path class="cls-12" d="M11.34,11.86c-.04.08,0,.12.06.13.08,0,.12-.05.13-.11,0-.09-.06-.17-.15-.18h-.01c-.08,0-.16.05-.19.13-.01.03-.02.06-.02.09,0,.06.02.11.05.16.05.06.13.09.2.09.16,0,.29-.14.29-.3,0-.29-.43-.45-.61-.49-.21-.05-.34-.07-.68-.09-.14,0-.24,0-.39-.02-.12,0-.23-.03-.34-.05-.18-.04-.34-.12-.48-.24-.11-.1-.17-.17-.22-.31-.04-.12-.06-.35.05-.53.09-.14.23-.23.39-.26.14-.02.27.04.34.18.04.07.02.18,0,.23-.04.07-.11.11-.18.11-.14,0-.18-.1-.18-.12-.02-.1.04-.15.08-.16.02,0,.1,0,.12.05,0,.03,0,.05,0,.08"/>
          <path class="cls-11" d="M10.37,5.17v-.02c-.08-.09-.19-.12-.27-.06-.1.08-.13.2-.1.34.02.09.08.16.15.21"/>
          <path class="cls-12" d="M13.92,5.45c-.15.17-.31.22-.53.23-.07,0-.21-.02-.29-.08-.05-.04-.11-.1-.07-.21.02-.07.14-.27.15-.41,0-.21-.07-.33-.2-.38-.24-.08-.49.15-.65.2-.06.02-.13.03-.19.03-.07,0-.13,0-.2-.03-.15-.05-.41-.29-.65-.2-.13.05-.21.16-.2.38,0,.14.12.34.15.41.04.11-.02.17-.07.21-.08.06-.22.08-.29.08-.23,0-.38-.06-.53-.23"/>
          <path class="cls-11" d="M11.29,11.33s0,0,.2.08c.18.08.31.15.43.33.03.06.05.12.05.19,0,.03,0,.06-.01.09"/>
          <path class="cls-12" d="M11.3,12.15s.08.03.12.03c.16,0,.29-.14.29-.3,0-.11-.06-.2-.14-.27"/>
          <path class="cls-11" d="M11.34,11.86c-.04.09.02.13.07.14.07,0,.12-.04.13-.11,0,0,0,0,0,0h0c0-.07-.03-.13-.08-.17"/>
          <path class="cls-12" d="M14.81,5.27c.12,0,.23.14.23.27,0,.16-.09.26-.15.33-.05.06-.1.11-.17.18"/>
          <path class="cls-11" d="M14.67,5.14s.08.05.11.09c.05.08.06.14.06.23,0,.16-.12.27-.22.34M14.43,5.14s.02.02.02.02c.07.08.08.21.06.27-.03.1-.06.15-.14.21M14.17,5.1c.1.08.13.21.1.34-.02.1-.08.15-.16.2M14.53,7.2s.03.05.06.07c.06.06.15.11.23.13.08.02.17.01.24-.03M8.88,9.42s.09.03.12.08c0,.02.02.04.02.06,0,.03-.01.06-.04.08-.05.03-.15.02-.15-.08"/>
          <path class="cls-12" d="M9.17,8.17c.19.03.37.26.43.51.03.15.04.31,0,.46-.03.16-.11.31-.22.43-.02.03-.05.05-.08.07l-.04.03M8.96,9.2c.08,0,.14.07.14.15,0,.04-.01.07-.04.1M8.91,9.29c.09,0,.15.07.16.16,0,.05-.02.09-.06.12"/>
          <path class="cls-11" d="M9.64,8.48c.07.1.12.18.14.29M9.78,9.1c-.01.05-.03.1-.06.15-.03.07-.08.13-.13.18"/>
          <path class="cls-12" d="M9.65,7.91c.06.04.11.11.13.18"/>
          <path class="cls-11" d="M9.79,7.72c-.02.06-.06.11-.13.17M9.31,7.25l.08-.02.05-.04.03-.04.03-.07v-.06"/>
          <path class="cls-12" d="M9.15,6.96s-.06.02-.09.03c-.05.02-.1.06-.13.11-.05.06-.07.15-.09.23-.01.08-.01.17,0,.25.01.08.04.15.09.21.01.02.02.04.04.05.05.05.09.08.17.06"/>
          <path class="cls-11" d="M9.61,6.6s-.04.11-.12.1"/>
          <path class="cls-12" d="M9.33,6.93c-.07-.07-.23-.09-.38,0-.02.01-.04.03-.06.05-.02.02-.04.04-.05.06-.02.03-.04.06-.05.09-.02.03-.03.07-.04.1-.02.08-.03.16-.02.24,0,.04,0,.07.01.1.01.08.04.16.08.23.03.06.12.19.29.2.07,0,.18-.02.19-.11"/>
          <path class="cls-11" d="M13.81,5.36c.01-.06.09-.07.12-.04.04.06.01.16-.07.18-.05.01-.11,0-.15-.05-.05-.07-.04-.18.04-.23h0c.1-.08.27-.07.32.07.07.17-.08.3-.22.39-.18.12-.38.14-.53.14-.35,0-.61-.17-.78-.26-.04-.02-.08-.02-.1,0-.03.03-.02.08,0,.1M13.88,5.3s.05.01.06.03c.04.06.01.16-.08.18M14.54,7.47c-.13.14-.01.39.09.45.03.03.05.01.08.03"/>
          <path class="cls-12" d="M14.54,7.19s-.06.06-.06.12c0,.06.01.11.05.15.07.08.21.14.35.14.08,0,.16-.02.23-.07.07-.05.12-.12.15-.2M14.47,9.68s0,.06,0,.09c-.02.18-.11.35-.24.48-.06.06-.14.12-.22.15-.08.04-.16.07-.25.08-.09.02-.17.03-.26.03-.08,0-.16,0-.24,0-.1,0-.16-.02-.26-.03-.07,0-.14-.01-.21-.01-.07,0-.15,0-.22.02-.07.01-.13.03-.2.05-.1.04-.22.11-.24.15-.02-.03-.14-.1-.24-.15-.06-.03-.13-.04-.2-.05-.07-.01-.15-.02-.22-.02-.07,0-.14,0-.21.01-.1,0-.16.02-.26.03-.08,0-.16,0-.24,0-.09,0-.18-.01-.26-.03-.09-.02-.17-.04-.25-.08-.08-.04-.16-.09-.22-.15-.13-.13-.22-.3-.24-.48,0-.03,0-.06,0-.09v-3.86h4.68v3.86h0,0Z"/>
        </g>
      </g>
      <g>
        <path class="cls-24" d="M9.41,10.24c0-.05.04-.09.09-.1.05,0,.09.04.1.09h0c0,.05-.04.1-.1.1-.05,0-.09-.04-.09-.09h0ZM8.83,9.57s.03-.09.07-.09.07.04.07.09-.03.09-.07.09-.07-.04-.07-.09h0Z"/>
        <path class="cls-23" d="M9.16,7.88s.03-.06.07-.06.06.03.06.07c0,.03-.03.06-.06.06-.04,0-.07-.03-.06-.07h0ZM10.32,5.39s.03-.06.06-.06c.03,0,.06.03.06.06,0,.03-.02.05-.05.06-.04,0-.07-.03-.07-.06h0Z"/>
      </g>
      <g>
        <path class="cls-9" d="M9.09,8.27s-.04.03-.05.05c0,.01,0,.03,0,.05M9.2,9.39l.03-.04s.02-.02.03-.04c0-.01.01-.02.02-.03l.03-.05M9.26,9.76l-.06.03-.04.02-.05.03-.05.04M9.64,8.44l-.03-.03-.03-.03s-.02-.02-.04-.03"/>
        <path class="cls-3" d="M9.65,7.93s-.03.01-.05.02c-.02,0-.04.01-.06.01"/>
        <path class="cls-9" d="M9.01,7.31s0,.04.02.06c0,.02.02.04.04.06.01.02.03.04.05.06.02.02.03.03.05.04.02.01.04.02.06.03M9.19,7.34s.03.02.05.03c.01,0,.03.01.05.01.02,0,.04,0,.07,0,.02,0,.05,0,.07,0M9.69,5.83l-.08-.05s-.05-.04-.07-.06c-.02-.01-.03-.03-.04-.05-.01-.02-.02-.03-.03-.05M9.75,5.46s.01.04.02.07c.01.03.03.05.05.08.03.04.06.05.1.08M9.99,5.46s.01.04.02.06c0,.02.02.03.03.05.01.02.03.04.05.05.02.02.05.03.07.04"/>
      </g>
      <g>
        <path class="cls-22" d="M12.65,5.15c0-.06-.07-.07-.09-.07-.07,0-.09.04-.18.09-.11.06-.16.07-.25.07-.1,0-.15-.01-.26-.07-.09-.05-.1-.09-.17-.09-.05,0-.09.04-.09.09h0s0,.02,0,.03c0,0,0,0,0,0,0-.02,0-.05.02-.06.01-.02.04-.03.06-.03.07,0,.1.04.18.09.11.06.16.07.25.07.1,0,.15-.01.26-.07.09-.05.11-.1.18-.1.02,0,.04.02.05.04,0,.01,0,.02,0,.03,0,0,0,0,0,0,0-.01,0-.03,0-.04h0Z"/>
        <path class="cls-27" d="M10.04,10.56s.03-.01.04-.02c0,0,0,0-.01-.01-.01,0-.02,0-.03-.01-.01,0-.02,0-.03-.01,0,0-.02,0-.02,0,0,.01.04.01.02.05,0,.02-.02.03-.03.05l-.1.11s0,0,0,0,0,0,0-.01v-.16s0-.04,0-.06c0-.02.03,0,.03-.01,0,0,0,0-.01-.01,0,0-.02,0-.04-.01l-.04-.02s-.02,0-.02,0c0,0,0,0,0,0,.01,0,.02.02.02.04v.28s0,.03,0,.03c0,0,0,0,.02,0l.2-.22h0s0,0,0,0Z"/>
        <path class="cls-27" d="M10.15,10.6s.04-.02.04-.03c0,0,0,0-.01-.01h-.05s-.04-.03-.04-.03c0,0-.01,0-.02,0,0,.02.04.02.03.06l-.07.21s-.04.02-.04.04c0,0,0,0,0,0h.04s.06.03.06.03c0,0,.01,0,.01,0,0-.01-.05,0-.03-.06l.07-.21h0ZM10.3,10.64s.02-.02.03-.02c.04.01.05.05.04.09,0,.03-.02.05-.08.03-.01,0-.03,0-.02-.02l.03-.09h0ZM10.19,10.83c-.02.05-.04.03-.05.04,0,0,0,0,.01.01l.06.02s.03,0,.03.01c0,0,.01,0,.01,0,0-.02-.04,0-.03-.06l.02-.08s0-.02.02-.01c.02,0,.03.01.03.03v.08s.02.06.05.07c.02,0,.04,0,.05-.01,0,0,0,0,0,0,0,0,0,0-.01,0,0,0-.01,0-.01-.01l-.03-.14s.01,0,.03-.01c.02,0,.03-.03.04-.05,0-.02.02-.08-.07-.11l-.08-.02-.05-.02s0,0-.01,0c0,.02.04.01.03.06l-.06.19h0ZM10.51,10.92c-.01.05-.05.02-.06.04,0,0,0,.01.01.01h.06s.06.03.06.03c.01,0,.02,0,.02,0,0-.01-.05-.01-.04-.07l.05-.2s0-.02.03-.02h.03s.02.06.04.07c.01,0,.01-.02.01-.02v-.04s0-.01,0-.01l-.12-.03-.12-.03s0,0,0,0l-.02.06s0,.01,0,.02c.02,0,.02-.06.06-.05h.03s.02.02.01.04l-.05.2h0ZM10.99,10.8s.03-.02.03-.03c0,0,0,0-.01,0-.01,0-.02,0-.03,0-.01,0-.02,0-.03,0,0,0-.02,0-.02,0,0,.02.04,0,.03.05,0,.02-.01.04-.02.05l-.08.13s0,0,0,0,0,0,0-.01l-.03-.15s0-.04,0-.06c0-.02.03,0,.03-.02,0,0,0,0-.01,0,0,0-.02,0-.04,0h-.04s-.02-.02-.02,0c0,0,0,0,0,0,.01,0,.02.02.02.03l.05.28s0,.03.01.03c0,0,0,0,.01-.01l.16-.25h0ZM11.01,11.05s0,.01,0,.02c.02.01.04.02.07.03.05,0,.1-.02.11-.08,0-.06-.01-.08-.05-.11-.05-.04-.07-.04-.07-.07,0-.02.02-.04.05-.04,0,0,0,0,0,0,.07.01.06.1.07.1,0,0,.01,0,.01-.01v-.06s0-.02,0-.02c0,0-.02,0-.02,0-.01,0-.03-.02-.06-.03-.05,0-.09.02-.09.08,0,.05.01.07.04.09.06.04.08.05.08.09,0,.03-.03.05-.06.05,0,0,0,0,0,0-.04,0-.06-.05-.07-.1,0,0,0-.01,0-.01-.01,0,0,.01,0,.02v.06h0,0ZM11.61,10.88s.03-.02.03-.03c0,0,0,0-.01,0-.01,0-.02,0-.03,0-.01,0-.02,0-.03,0,0,0-.02,0-.02,0,0,.02.04,0,.04.04,0,.02,0,.04-.02.05l-.07.13s0,0,0,0,0,0,0,0l-.04-.15s-.01-.04-.01-.06c0-.02.03-.01.03-.02,0,0,0,0-.01,0,0,0-.02,0-.04,0h-.04s-.02-.01-.02,0c0,0,0,0,0,0,.01,0,.02.01.03.03l.08.27s0,.02.01.02c0,0,0,0,.01-.01l.13-.26h0Z"/>
        <path class="cls-27" d="M11.68,11.1s-.04.04-.04.06c0,0,0,0,.01,0h.04s.05,0,.05,0c0,0,.02,0,.02,0,0-.02-.05,0-.05-.08v-.15s0,0,0,0c0,0,0,0,0,0l.19.24s0,0,.01,0c0,0,0,0,0-.01v-.25s.04-.04.04-.05c0,0,0,0,0,0,0,0-.02,0-.04,0h-.05s0,0,0,0c0,.01.05,0,.05.05v.15s0,.02,0,.02,0,0-.01-.01l-.16-.2s0-.01-.02-.01c-.02,0-.03,0-.04,0,0,0-.02,0-.02,0,0,0,0,0,0,0,0,0,0,0,0,0,0,.02.05,0,.04.08v.17s0,0,0,0ZM12.07,10.9s.03-.03.03-.04c0,0,0,0-.01,0-.02,0-.04,0-.05,0-.01,0-.03,0-.05,0,0,0-.01,0-.01,0,0,.02.04,0,.04.04v.22s-.03.03-.03.05c0,0,0,0,0,0,.01,0,.03,0,.05,0h.06s.01,0,.01,0c0-.01-.05,0-.05-.05v-.22ZM12.24,11.11c0,.05-.05.03-.05.05,0,0,0,0,.01,0h.06s.06,0,.06,0c.01,0,.02,0,.02,0,0-.01-.05,0-.05-.05v-.2s0-.02.02-.02h.03s.03.05.05.05c.01,0,0-.02,0-.02v-.04s0-.01-.01-.01h-.12c-.06,0-.09,0-.12,0,0,0,0,0,0,.01v.06s0,.02,0,.02c.02,0,0-.06.05-.06h.03s.02,0,.02.02v.21h0ZM12.48,11.02s-.01,0-.01,0c0,0,0-.01,0-.02l.03-.08s0,0,0,0c0,0,0,0,0,0l.04.08s0,.01,0,.02c0,0,0,0-.01,0h-.06ZM12.55,11.04s.01,0,.03.04c0,0,0,.02,0,.03,0,.03-.03.02-.03.04,0,0,0,0,.01,0h.04s.05,0,.05,0c.01,0,.01,0,.01,0,0-.01-.02,0-.04-.03l-.13-.27s0-.01-.01-.01c0,0,0,0,0,.02l-.09.28s-.03.03-.03.04c0,0,0,0,.01,0,.01,0,.02,0,.04,0h.04s.02,0,.02,0c0-.01-.04,0-.05-.03,0-.01,0-.02,0-.04,0-.03.02-.03.02-.03h.08s0,0,0,0h0ZM12.87,10.86s0-.03.05-.04c.08-.01.05.05.07.04,0,0,0-.02,0-.02v-.04s-.01,0-.02,0h-.09s-.11.03-.11.03c0,0,0,0,0,0h0s.05,0,.05.04l.03.21c0,.05-.03.03-.02.06,0,0,0,0,0,0h.05s.05-.01.05-.01c.01,0,.02,0,.02,0,0-.01-.05,0-.05-.04v-.07s-.01-.03,0-.03h.03s.04.04.05.04c0,0,0-.02,0-.02v-.08s-.02-.01-.02-.01c0,0,0,.04-.04.05h-.03s-.02,0-.02-.02v-.06h0ZM13.02,10.96c.02.09.08.14.16.13.13-.02.13-.14.12-.2-.02-.09-.09-.14-.17-.13-.1.02-.14.1-.12.2h0ZM13.06,10.92c-.01-.06,0-.13.06-.14.05-.01.11.03.13.13.01.07,0,.14-.07.15-.07.01-.11-.07-.13-.14ZM13.38,10.77s0-.03.02-.03c.04,0,.07.02.08.06,0,.03,0,.05-.05.07-.01,0-.03,0-.03,0l-.02-.09h0ZM13.38,10.98c.01.06-.02.05-.02.06,0,0,.01,0,.01,0l.06-.02s.03,0,.03,0c0,0,.01,0,.01,0,0-.02-.04.01-.05-.04l-.02-.08s0-.02.01-.02c.02,0,.03,0,.04.01l.05.06s.04.05.07.04c.02,0,.04-.02.04-.03,0,0,0,0,0,0h0s0,0-.01,0c0,0-.01,0-.02,0l-.09-.11s0-.01.02-.02c.01-.02.02-.04,0-.06,0-.02-.03-.08-.11-.06l-.08.02h-.05s0,.01,0,.02c0,.02.04-.01.06.04l.05.19h0ZM13.7,10.91c.01.05-.04.04-.03.06,0,0,0,0,.02,0l.05-.02h.06s.02-.02.02-.03c0-.01-.05.01-.06-.04l-.05-.2s0-.02.01-.03h.03s.04.03.06.03c.01,0,0-.02,0-.02v-.04s-.02-.01-.02,0l-.12.03-.12.03s0,0,0,.01v.06s0,.02.02.01c.02,0,0-.06.04-.07h.03s.02-.01.03,0l.05.2h0ZM13.91,10.63s.02-.03.02-.05c0,0,0,0-.02,0l-.05.02h-.04s-.01.01-.01.02c0,.02.05,0,.06.03l.06.21s-.02.04-.02.05c0,0,0,0,0,0h.04s.06-.03.06-.03c0,0,.01,0,.01-.01,0-.01-.04.02-.06-.04l-.06-.21h0ZM14,10.73c.03.09.1.13.18.1.12-.04.11-.15.09-.21-.03-.09-.11-.13-.18-.1-.09.03-.12.12-.09.21h0ZM14.04,10.69c-.02-.06-.02-.13.04-.15.05-.02.11.02.15.11.02.07.02.14-.04.16-.07.02-.12-.06-.14-.12ZM14.33,10.49s0-.03.02-.04c.04-.02.07,0,.09.05,0,.02.02.05-.04.07-.01,0-.03.01-.03,0l-.03-.09h0ZM14.36,10.7c.02.05-.02.05,0,.06,0,0,.01,0,.01,0l.06-.02s.03,0,.03-.01c0,0,.01,0,0-.01,0-.02-.04.02-.05-.03l-.03-.07s0-.02.01-.02c.01,0,.03,0,.04,0l.06.05s.04.04.07.03c.02,0,.04-.03.03-.04,0,0,0,0,0,0h0s0,0-.01,0c0,0-.01,0-.02,0l-.11-.09s0-.01.02-.03c0-.02,0-.04,0-.06,0-.02-.04-.08-.12-.04l-.08.03-.05.02s0,0,0,0c0,.02.04-.02.06.03l.07.19h0Z"/>
      </g>
      <path class="cls-29" d="M10.03,6.06h2v1.99h-2v-1.99Z"/>
      <path class="cls-25" d="M10.96,7.63s0,.09-.02.13q-.02.07-.04.1s-.06.07-.09.09c-.04.03-.09.04-.14.04-.13-.01-.2-.16-.23-.27-.03-.12-.12-.19-.18-.15-.03.03-.04.07,0,.11.03.03.06.06.1.07l-.07.09c-.09-.02-.17-.09-.18-.18-.01-.06.02-.17.12-.21.13-.04.21.05.25.13.05.11.08.3.23.27.08-.02.12-.14.12-.19l.06-.06.09.03h0s0,0,0,0h0ZM11.09,7.63s0,.09.02.13q.02.07.04.1s.06.07.09.09c.04.03.09.04.14.04.13-.01.2-.16.23-.27.03-.12.12-.19.18-.15.03.03.04.07,0,.11-.03.03-.06.06-.1.07l.07.09c.09-.02.17-.09.18-.18.01-.06-.02-.17-.12-.21-.13-.04-.21.05-.25.13-.05.11-.08.3-.23.27-.08-.02-.12-.14-.12-.19l-.06-.06-.09.03h0s0,0,0,0h0Z"/>
      <path class="cls-31" d="M11.2,6.78l.26-.28s.04-.05.04-.08h-.05s-.01-.02-.01-.02v-.03s.07-.02.07-.02c0-.01,0-.02,0-.03,0-.01,0-.02,0-.03h-.08s0-.02,0-.03c0,0,0-.02.01-.03h.05s.03,0,.05,0c.04-.08.22-.15.35-.02.09.1.07.27-.05.32-.06.03-.12.01-.17-.03l.05-.09c.07.04.12,0,.12-.06,0-.06-.05-.11-.11-.11-.05,0-.09.03-.12.08-.02.03,0,.05-.01.09,0,.03,0,.06-.01.09-.01.03-.03.06-.06.09l-.27.29-1.04,1.13-.08-.07,1.05-1.14h0Z"/>
      <path class="cls-25" d="M10.44,6.88s.07.32.29.81c.11-.04.18-.07.3-.07s.19.02.3.07c.22-.49.29-.81.29-.81l-.59-.76-.59.76Z"/>
      <path class="cls-31" d="M11.08,6.38l.41.53s-.05.26-.22.64c-.06-.02-.12-.03-.19-.03v-1.13s0,0,0,0ZM10.97,6.38l-.41.53s.05.26.22.64c.06-.02.12-.03.19-.03v-1.13s0,0,0,0ZM12.24,6.06h2v1.99h-2v-1.99Z"/>
      <path class="cls-29" d="M12.52,6.06h.3v1.99h-.3v-1.99ZM13.09,6.06h.3v1.99h-.3v-1.99h0ZM13.66,6.06h.3v1.99h-.3v-1.99h0Z"/>
      <path class="cls-31" d="M10.03,9.78c0,.06.03.11.05.16.04.06.02.06.1.15.04.04.1.08.15.11.05.03.11.05.17.06.13.03.27.05.4.04.08,0,.17-.01.25-.03.09-.01.18-.02.27-.02.05,0,.1,0,.15,0,.06,0,.12.01.18.02.09.02.18.05.27.08v-2.08s-2,0-2,0v1.42s0,.07,0,.09h0Z"/>
      <path class="cls-28" d="M10.27,10.14l.09.05.13.05v-1.98h-.22v1.88s0,0,0,0ZM11.38,10.23v-1.97s-.22,0-.22,0v2l.22-.02h0ZM11.82,8.26h-.22v1.98c.07,0,.15.02.22.04v-2.02ZM10.93,8.26v2.02c-.07,0-.15,0-.22,0v-2.02s.22,0,.22,0Z"/>
      <path class="cls-31" d="M14.23,9.78c0,.06-.03.11-.05.16-.04.06-.02.06-.1.15-.04.04-.1.08-.15.11-.05.03-.11.05-.17.06-.13.03-.27.05-.4.04-.08,0-.17-.01-.25-.03-.09-.01-.18-.02-.27-.02-.05,0-.1,0-.15,0-.06,0-.12.01-.18.02-.09.02-.18.05-.27.08v-2.08s2,0,2,0v1.42s0,.07,0,.09h0s0,0,0,0Z"/>
      <path id="B" class="cls-29" d="M12.75,8.43h-.01s-.01.02-.02.03c0,0-.02.01-.03.02,0,0-.01,0-.01.01,0,0,0,.02,0,.02,0,0,0,.02-.02.02,0,0-.02.02-.03.02,0,0-.02.02-.03.02,0,0,0,0,0,0,0,0,0,0-.01,0,0,0-.01.01-.02.02,0,0,0,0,0,.01,0,0,.02.03.02.03,0,0,0,.02.01.02.01,0,.02,0,.03,0,.02,0,.03,0,.05.01.01,0,.02.01.04.02,0,0,.02,0,.03.01,0,0,.02,0,.02,0,0,0,0,0,.02,0,0,0,0,0,0,0h0s0,0,0,0h0s0,0,0,0l.05.02s0,.02,0,.03c.02.05.03.07.04.08.01,0,.02.02.03.04,0,0,0,0,0,0-.02.01-.03.03-.04.04-.02.03-.03.03,0,.07.01.02.02.03.04.06,0,.02.01.03.02.05,0,.02,0,.03,0,.05h.02s.02,0,.02,0l.02-.03v-.02s0-.01,0-.02c0,0,.01,0,.02-.02,0-.01,0-.02-.02-.03-.01-.02-.03-.02-.04-.04,0,0,0-.01,0-.02l.05-.04s.02,0,.02,0c0,0,.01,0,.03,0,0,0,.02,0,.03,0h0s0,0,0,.01c0,.03,0,.07,0,.09,0,0,0,0,0,.01,0,0,0,.01,0,.02v.05s0,.03,0,.04c0,0,0,.02-.01.03,0,0-.01.01-.02.02v.02s.03.01.03.01h.03s.02,0,.02,0c0,0,0-.01,0-.02,0,0,0-.01.01-.01,0,0,.02,0,.02,0,0,0,0,0,0-.02,0-.02,0-.02,0-.04,0-.02,0-.04,0-.07,0-.01,0-.03,0-.04,0-.02.01-.03.02-.05,0-.02,0-.04,0-.06.08.01.15,0,.23,0,0,0,.02,0,.02,0,.02.02.04.03.07.04,0,0,0,.02,0,.02,0,0,0,.01,0,.02,0,0,0,0,0,0,0,0,.01,0,.02,0,0,0,0-.01,0-.02,0,0,0-.01,0-.02,0,0,.01,0,.02,0,0,0,.01,0,.02,0h0s0,.02,0,.03c0,0,0,0,.01,0,0,0,0,0,.01,0,0,0,0-.01,0-.02,0,0,0-.02,0-.02h.03s0,0,0,.01c0,0,0,.02,0,.02,0,.01-.01.02-.02.03,0,.01-.02.03-.03.04v.02s-.02.01-.03.02c0,0-.01.02-.02.03-.02.01-.03,0-.05.02v.03s.03.01.03.01h.03s.01,0,.01,0c0,0,0-.01,0-.02,0,0,.01,0,.02,0,0,0,.02,0,.03,0,0,0,0-.02.02-.04.02-.04.04-.07.07-.09.01-.01.03-.02.04-.03,0,0,.01-.01.01-.02,0,0,0-.01,0-.02,0,0,0-.02,0-.02.04.02.02.02.03.03,0,.01,0,.03,0,.04,0,.02.01.03.01.05,0,.02,0,.04,0,.06,0,.02,0,.03-.01.05,0,.01-.02.03-.03.04,0,0,0,0-.01,0v.03s.02,0,.02,0h.04s0,0,0,0c0-.02,0-.04,0-.04,0,0,.02,0,.02,0,0,0,0-.01,0-.02l.02-.11v-.05s.01-.03.02-.04c.02-.05,0-.06-.03-.09,0-.01-.01-.02-.02-.04,0-.02,0-.04,0-.07v-.07s0,0,0,0c.03-.01.05-.03.06-.06,0-.01,0-.02,0-.04,0,0,0-.02,0-.03,0,0,0-.02,0-.02,0,0,0-.01-.01-.02-.02-.02-.04-.03-.07-.04-.03,0-.07-.01-.1-.01-.03,0-.07,0-.1,0-.05,0-.08.01-.12.02-.04,0-.08,0-.12,0-.05,0-.11-.01-.14,0-.06,0-.06.02-.15.03h-.09s-.05-.01-.05-.01c.01,0,.03-.01.04-.03,0,0,0-.02.01-.03,0,0,.01-.02.02-.02,0,0-.01,0-.02-.01,0,0-.02,0-.02,0-.01,0-.02,0-.03,0,0,0-.01,0-.02.01-.02-.01-.03-.02-.05-.03-.02-.01-.05-.02-.07-.02h0s0,0,0,0ZM12.79,8.72h0s0,0,0,0h0Z"/>
      <g>
        <path id="C" class="cls-15" d="M13.82,8.74h-.02s-.04.02-.06.02c-.06,0-.1-.03-.17-.02-.03,0-.05.03-.08.04-.01,0-.03,0-.04,0v-.03s-.02,0-.04,0c-.01,0-.02,0-.04,0l.02-.02s-.02,0-.03,0c0,0-.02,0-.03-.02h.04s.05-.04.09-.04c.03,0,.07,0,.19.02.07.01.11,0,.13,0,.02,0,.03-.03.03-.04,0-.02,0-.03-.02-.04,0,0-.02,0-.03,0"/>
        <path id="D" class="cls-26" d="M12.75,8.52s-.02,0-.03,0c-.01,0-.01.02-.02.03.01,0,.02,0,.03,0,0,0,.01,0,.02-.01,0,0,.01-.02.01-.03h0s0,0,0,0Z"/>
        <g>
          <path id="E" class="cls-15" d="M13.02,8.84v.02s.02.02.02.04c0,.02,0,.03,0,.05h0s0,.04,0,.04M13.22,8.81v.03s-.03.08-.03.08v.02M12.92,8.85s.01.08.04.1"/>
          <path class="cls-8" d="M13.61,8.98h0s.05-.03.07-.05"/>
          <g>
            <path class="cls-15" d="M13.42,8.94h0c.09-.02.14-.06.18-.07"/>
            <path id="F" class="cls-15" d="M13.51,8.83s.01,0,.02,0c.04,0,.04.02.07.03.05.03.05.06.1.08h0s.02.01.02.01"/>
          </g>
        </g>
        <path id="G" class="cls-26" d="M12.58,8.61s.01,0,.02,0c0,0,.01,0,.02,0,0,0,.01,0,.02,0,0,0,0,0,0,0,0,0,0,0,0,.01,0,0,0,.01-.01.01,0,0-.01,0-.01,0,0,0,0,0,0,0-.01,0-.03,0-.03-.01h0Z"/>
      </g>
      <path class="cls-30" d="M12.76,8.85s-.03-.01-.05-.02c0,0,.01,0,.02-.01,0,0,0-.02.01-.03,0-.01,0-.02.02-.03,0,0,.02,0,.03,0,0,0,.02,0,.02.02,0,.01,0,.02,0,.04,0,.01,0,.02,0,.04,0,0,0,.01,0,.02-.02,0-.03,0-.05,0h0s0,0,0,0ZM12.74,8.87s0-.02.02-.02.02,0,.02.02,0,.02-.02.02-.02,0-.02-.01h0ZM12.69,8.47h0s-.01-.02-.01-.03c0,0,0-.02,0-.03,0,0,0-.02,0-.03,0,0,0-.02,0-.02,0,0,0-.02,0-.02,0,0,0,0,0-.01,0,0,0,0,.01,0,0,0,.02,0,.02.01,0,0,.01.02.02.03v.04s.01.01.02.02c0,0,0,.01.01.02h0s-.01.01-.02.02c0,0-.01.01-.02.01h0s0,0,0,0h0ZM12.78,8.73l.05.03s.07-.06.08-.1c.02-.03.03-.07.03-.1h-.04s0-.01,0-.01c0,.04-.02.07-.04.1-.02.03-.04.05-.06.07h-.02s0,.01,0,.01ZM12.9,9.17s.01-.02.02-.03c0-.01.02-.02.03-.03,0,0,0,0,.01,0,0,.01,0,.03,0,.04,0,0,0,.02,0,.03,0,0,0,.02,0,.02,0,0,0,0-.01.01-.01-.02-.03-.03-.03-.05h0s0,0,0,0ZM13.7,9.21s.05.02.07.04c0,0,0,0,0,.01-.01,0-.02,0-.04,0-.01,0-.02,0-.03,0,0,0-.02,0-.03,0,0,0-.01,0-.02,0,.01-.02.02-.04.04-.04h0ZM13.46,9.16s.05.02.07.04c0,0,0,0,0,.01-.01,0-.02,0-.04,0-.01,0-.02,0-.03,0,0,0-.02,0-.03,0,0,0-.01,0-.02,0,.01-.02.02-.04.04-.04ZM13.04,9.22s.02,0,.04.01c.01,0,.02.01.04.02,0,0,0,0,0,.01-.01,0-.02,0-.04,0-.01,0-.02,0-.03,0,0,0-.02,0-.03,0,0,0-.01,0-.02,0,.01-.02.02-.04.04-.04h0ZM12.83,8.49s-.03-.03-.02-.04c0,0,.01,0,.01,0,0,0,0-.01,0-.02,0,0,0-.02,0-.02,0,0,0-.02,0-.03,0-.01,0-.03,0-.04,0,0,.01-.01.02-.01,0,0,0,.01,0,.02,0,0,0,.02,0,.03,0,.01.01.02.02.03,0,.01,0,.02.01.03,0,0,0,.02,0,.03,0,0,0,.02-.01.02,0,0-.01,0-.02.01,0,0-.01,0-.02,0h0Z"/>
      <path id="B-2" data-name="B" class="cls-29" d="M12.75,9.32h-.01s-.01.02-.02.03c0,0-.02.01-.03.02,0,0-.01,0-.01.01,0,0,0,.02,0,.02,0,0,0,.02-.02.02,0,0-.02.02-.03.02,0,0-.02.02-.03.02,0,0,0,0,0,0,0,0,0,0-.01,0,0,0-.01.01-.02.02,0,0,0,0,0,.01,0,0,.02.03.02.03,0,0,0,.02.01.02.01,0,.02,0,.03,0,.02,0,.03,0,.05.01.01,0,.02.01.04.02,0,0,.02,0,.03.01,0,0,.02,0,.02,0,0,0,0,0,.02,0,0,0,0,0,0,0h0s0,0,0,0h0s0,0,0,0l.05.02s0,.02,0,.03c.02.05.03.07.04.08.01,0,.02.02.03.04,0,0,0,0,0,0-.02.01-.03.03-.04.04-.02.03-.03.03,0,.07.01.02.02.03.04.06,0,.02.01.03.02.05,0,.02,0,.03,0,.05h.02s.02,0,.02,0l.02-.03v-.02s0-.01,0-.02c0,0,.01,0,.02-.02,0-.01,0-.02-.02-.03-.01-.02-.03-.02-.04-.04,0,0,0-.01,0-.02l.05-.04s.02,0,.02,0c0,0,.01,0,.03,0,0,0,.02,0,.03,0h0s0,0,0,.01c0,.03,0,.07,0,.09,0,0,0,0,0,.01,0,0,0,.01,0,.02v.05s0,.03,0,.04c0,0,0,.02-.01.03,0,0-.01.01-.02.02v.02s.03.01.03.01h.03s.02,0,.02,0c0,0,0-.01,0-.02,0,0,0-.01.01-.01,0,0,.02,0,.02,0,0,0,0,0,0-.02,0-.02,0-.02,0-.04,0-.02,0-.04,0-.07,0-.01,0-.03,0-.04,0-.02.01-.03.02-.05,0-.02,0-.04,0-.06.08.01.15,0,.23,0,0,0,.02,0,.02,0,.02.02.04.03.07.04,0,0,0,.02,0,.02,0,0,0,.01,0,.02,0,0,0,0,0,0,0,0,.01,0,.02,0,0,0,0-.01,0-.02,0,0,0-.01,0-.02,0,0,.01,0,.02,0,0,0,.01,0,.02,0h0s0,.02,0,.03c0,0,0,0,.01,0,0,0,0,0,.01,0,0,0,0-.01,0-.02,0,0,0-.02,0-.02h.03s0,0,0,.01c0,0,0,.02,0,.02,0,.01-.01.02-.02.03,0,.01-.02.03-.03.04v.02s-.02.01-.03.02c0,0-.01.02-.02.03-.02.01-.03,0-.05.02v.03s.03.01.03.01h.03s.01,0,.01,0c0,0,0-.01,0-.02,0,0,.01,0,.02,0,0,0,.02,0,.03,0,0,0,0-.02.02-.04.02-.04.04-.07.07-.09.01-.01.03-.02.04-.03,0,0,.01-.01.01-.02,0,0,0-.01,0-.02,0,0,0-.02,0-.02.04.02.02.02.03.03,0,.01,0,.03,0,.04,0,.02.01.03.01.05,0,.02,0,.04,0,.06,0,.02,0,.03-.01.05,0,.01-.02.03-.03.04,0,0,0,0-.01,0v.03s.02,0,.02,0h.04s0,0,0,0c0-.02,0-.04,0-.04,0,0,.02,0,.02,0,0,0,0-.01,0-.02l.02-.11v-.05s.01-.03.02-.04c.02-.05,0-.06-.03-.09,0-.01-.01-.02-.02-.04,0-.02,0-.04,0-.07v-.07s0,0,0,0c.03-.01.05-.03.06-.06,0-.01,0-.02,0-.04,0,0,0-.02,0-.03,0,0,0-.02,0-.02,0,0,0-.01-.01-.02-.02-.02-.04-.03-.07-.04-.03,0-.07-.01-.1-.01-.03,0-.07,0-.1,0-.05,0-.08.01-.12.02-.04,0-.08,0-.12,0-.05,0-.11-.01-.14,0-.06,0-.06.02-.15.03h-.09s-.05-.01-.05-.01c.01,0,.03-.01.04-.03,0,0,0-.02.01-.03,0,0,.01-.02.02-.02,0,0-.01,0-.02-.01,0,0-.02,0-.02,0-.01,0-.02,0-.03,0,0,0-.01,0-.02.01-.02-.01-.03-.02-.05-.03-.02-.01-.05-.02-.07-.02h0s0,0,0,0ZM12.79,9.61h0s0,0,0,0h0Z"/>
      <g>
        <path id="C-2" data-name="C" class="cls-15" d="M13.82,9.62h-.02s-.04.02-.06.02c-.06,0-.1-.03-.17-.02-.03,0-.05.03-.08.04-.01,0-.03,0-.04,0v-.03s-.02,0-.04,0c-.01,0-.02,0-.04,0l.02-.02s-.02,0-.03,0c0,0-.02,0-.03-.02h.04s.05-.04.09-.04c.03,0,.07,0,.19.02.07.01.11,0,.13,0,.02,0,.03-.03.03-.04,0-.02,0-.03-.02-.04,0,0-.02,0-.03,0"/>
        <path id="D-2" data-name="D" class="cls-26" d="M12.75,9.41s-.02,0-.03,0c-.01,0-.01.02-.02.03.01,0,.02,0,.03,0,0,0,.01,0,.02-.01,0,0,.01-.02.01-.03h0s0,0,0,0Z"/>
        <g>
          <path id="E-2" data-name="E" class="cls-15" d="M13.02,9.73v.02s.02.02.02.04c0,.02,0,.03,0,.05h0s0,.04,0,.04M13.22,9.7v.03s-.03.08-.03.08v.02M12.92,9.74s.01.08.04.1"/>
          <path class="cls-8" d="M13.61,9.87h0s.05-.03.07-.05"/>
          <g>
            <path class="cls-15" d="M13.42,9.83h0c.09-.02.14-.06.18-.07"/>
            <path id="F-2" data-name="F" class="cls-15" d="M13.51,9.72s.01,0,.02,0c.04,0,.04.02.07.03.05.03.05.06.1.08h0s.02.01.02.01"/>
          </g>
        </g>
        <path id="G-2" data-name="G" class="cls-26" d="M12.58,9.5s.01,0,.02,0c0,0,.01,0,.02,0,0,0,.01,0,.02,0,0,0,0,0,0,0,0,0,0,0,0,.01,0,0,0,.01-.01.01,0,0-.01,0-.01,0,0,0,0,0,0,0-.01,0-.03,0-.03-.01h0Z"/>
      </g>
      <path class="cls-30" d="M12.76,9.74s-.03-.01-.05-.02c0,0,.01,0,.02-.01,0,0,0-.02.01-.03,0-.01,0-.02.02-.03,0,0,.02,0,.03,0,0,0,.02,0,.02.02,0,.01,0,.02,0,.04,0,.01,0,.02,0,.04,0,0,0,.01,0,.02-.02,0-.03,0-.05,0h0s0,0,0,0ZM12.74,9.76s0-.02.02-.02.02,0,.02.02,0,.02-.02.02-.02,0-.02-.01h0ZM12.69,9.36h0s-.01-.02-.01-.03c0,0,0-.02,0-.03,0,0,0-.02,0-.03,0,0,0-.02,0-.02,0,0,0-.02,0-.02,0,0,0,0,0-.01,0,0,0,0,.01,0,0,0,.02,0,.02.01,0,0,.01.02.02.03v.04s.01.01.02.02c0,0,0,.01.01.02h0s-.01.01-.02.02c0,0-.01.01-.02.01h0s0,0,0,0h0ZM12.78,9.62l.05.03s.07-.06.08-.1c.02-.03.03-.07.03-.1h-.04s0-.01,0-.01c0,.04-.02.07-.04.1-.02.03-.04.05-.06.07h-.02s0,.01,0,.01ZM12.9,10.06s.01-.02.02-.03c0-.01.02-.02.03-.03,0,0,0,0,.01,0,0,.01,0,.03,0,.04,0,0,0,.02,0,.03,0,0,0,.02,0,.02,0,0,0,0-.01.01-.01-.02-.03-.03-.03-.05h0s0,0,0,0ZM13.7,10.1s.05.02.07.04c0,0,0,0,0,.01-.01,0-.02,0-.04,0-.01,0-.02,0-.03,0,0,0-.02,0-.03,0,0,0-.01,0-.02,0,.01-.02.02-.04.04-.04ZM13.46,10.05s.05.02.07.04c0,0,0,0,0,.01-.01,0-.02,0-.04,0-.01,0-.02,0-.03,0,0,0-.02,0-.03,0,0,0-.01,0-.02,0,.01-.02.02-.04.04-.04ZM13.04,10.11s.02,0,.04.01c.01,0,.02.01.04.02,0,0,0,0,0,.01-.01,0-.02,0-.04,0-.01,0-.02,0-.03,0,0,0-.02,0-.03,0,0,0-.01,0-.02,0,.01-.02.02-.04.04-.04h0ZM12.83,9.38s-.03-.03-.02-.04c0,0,.01,0,.01,0,0,0,0-.01,0-.02,0,0,0-.02,0-.02,0,0,0-.02,0-.03,0-.01,0-.03,0-.04,0,0,.01-.01.02-.01,0,0,0,.01,0,.02,0,0,0,.02,0,.03,0,.01.01.02.02.03,0,.01,0,.02.01.03,0,0,0,.02,0,.03,0,0,0,.02-.01.02,0,0-.01,0-.02.01,0,0-.01,0-.02,0h0Z"/>
      <path class="cls-7" d="M10.03,6.06h2v1.99h-2v-1.99ZM12.24,6.06h2v1.99h-2v-1.99ZM10.03,9.78c0,.06.03.11.05.16.04.06.02.06.1.15.04.04.1.08.15.11.05.03.11.05.17.06.13.03.27.05.4.04.08,0,.17-.01.25-.03.09-.01.18-.02.27-.02.05,0,.1,0,.15,0,.06,0,.12.01.18.02.09.02.18.05.27.08v-2.08s-2,0-2,0v1.42s0,.07,0,.09h0ZM14.23,9.78c0,.06-.03.11-.05.16-.04.06-.02.06-.1.15-.04.04-.1.08-.15.11-.05.03-.11.05-.17.06-.13.03-.27.05-.4.04-.08,0-.17-.01-.25-.03-.09-.01-.18-.02-.27-.02-.05,0-.1,0-.15,0-.06,0-.12.01-.18.02-.09.02-.18.05-.27.08v-2.08s2,0,2,0v1.42s0,.07,0,.09h0s0,0,0,0Z"/>
    </g>
  </g>
</svg>