<?xml version="1.0" encoding="UTF-8"?>
<svg id="Layer_2" data-name="Layer 2" xmlns="http://www.w3.org/2000/svg" viewBox="0 0 24.3 17.01">
  <defs>
    <style>
      .cls-1 {
        fill: #c6aa77;
      }

      .cls-2 {
        fill: #fddb00;
      }

      .cls-3 {
        fill: #fff;
      }

      .cls-4 {
        fill: #2160ad;
      }

      .cls-5 {
        fill: #72402b;
      }

      .cls-6 {
        fill: #d92e27;
      }

      .cls-7 {
        fill: #fedd00;
      }

      .cls-8 {
        fill: #2c318c;
      }

      .cls-9 {
        fill: #d51f36;
      }
    </style>
  </defs>
  <g id="Layer_1-2" data-name="Layer 1">
    <g>
      <path class="cls-9" d="M0,0h24.3v17.01H0V0Z"/>
      <path class="cls-7" d="M0,0h16.52v17.01H0V0Z"/>
      <path class="cls-8" d="M0,0h7.78v17.01H0V0Z"/>
      <path class="cls-1" d="M11.4,4.58c.29,0,.41.25.71.25.18,0,.29-.06.44-.15.11-.06.18-.1.31-.1s.21.04.27.15c.04.06.07.19.05.26-.02.11-.06.21-.1.31-.03.06-.05.09-.05.16,0,.16.21.21.36.21.03,0,.29,0,.46-.16-.09,0-.19-.07-.19-.16,0-.1.07-.17.16-.2.02,0,.05.01.07,0,.02-.01.01-.04.03-.05.05-.04.08-.06.14-.06.03,0,.07,0,.09.03.02.01.02.03.04.03.04,0,.06-.03.11-.03.03,0,.06,0,.09.02.03.01.03.06.05.06.01,0,.09-.03.13-.03.08,0,.13.03.18.09.01.02.02.05.04.05.05,0,.1.03.14.06.02.01.03.03.04.05,0,.02.03.05.04.06.02,0,.04.01.06.02.06.04.1.11.11.18,0,.03,0,.05-.02.08-.07.25-.24.33-.41.54-.07.09-.13.16-.13.28,0,.03.03.08.05.1,0-.06.02-.12.07-.13.08,0,.15.06.15.14,0,.02,0,.05-.01.07.05-.03.1-.05.15-.05.02,0,.05,0,.07,0,.13,0,.27.07.35.15.26.22.29.55.28.64-.03.2-.01.56-.52.71.09.04.16.11.16.2,0,.1-.07.17-.17.18-.05,0-.1-.02-.13-.05-.11.11-.13.22-.13.37,0,.08.02.16.05.22.04.09.07.14.14.2.04-.06.08-.1.15-.1s.12.02.15.08c0,.02,0,.03.01.05.01.02.03.03.04.05.02.04,0,.07.02.1.01.02.03.03.04.05.01.03.02.07.02.1,0,.11-.1.2-.22.2-.03,0-.05-.01-.09-.01.07.07.12.09.16.17.07.11.09.19.11.33,0,.02,0,.04,0,.07,0,.17-.03.27-.1.43-.07.15-.14.23-.27.32-.21.15-.36.19-.61.24-.14.03-.28.05-.42.05l-.54.03c-.27.02-.46.06-.66.25.09.07.15.13.15.25s-.07.2-.18.24c-.03,0-.04,0-.07.01-.03.02-.03.05-.05.07-.04.03-.09.04-.14.04-.1,0-.17-.02-.24-.1-.08.07-.11.13-.21.19-.03.02-.05.04-.08.04-.06,0-.08-.04-.13-.07-.06-.04-.12-.1-.17-.15-.09.05-.14.09-.24.09-.05,0-.11-.01-.15-.04-.03-.02-.03-.04-.06-.06-.03-.02-.05-.01-.08-.02-.11-.05-.19-.13-.19-.26,0-.11.07-.18.17-.22-.19-.19-.38-.22-.65-.24l-.53-.03c-.14-.01-.28-.03-.42-.05-.12-.02-.2-.03-.31-.08-.39-.18-.64-.43-.69-.86,0-.03,0-.06,0-.09,0-.22.09-.36.24-.51-.04,0-.07,0-.11-.01-.1-.04-.17-.1-.17-.21,0-.03,0-.07.02-.1.01-.02.04-.03.04-.05,0-.04,0-.06.01-.09.01-.02.03-.03.04-.05.03-.07.08-.13.15-.13.07,0,.11.04.14.09.07-.03.08-.08.12-.14.06-.1.09-.17.09-.29,0-.07,0-.14-.03-.21-.02-.06-.03-.1-.07-.14-.03.04-.08.05-.13.05-.11,0-.2-.09-.19-.2,0-.08.04-.15.11-.18-.06-.05-.11-.05-.18-.1-.1-.06-.13-.13-.2-.23-.04-.06-.05-.11-.08-.18-.03-.08-.04-.15-.04-.23,0-.02,0-.04,0-.06.02-.19.06-.3.18-.45.07-.09.12-.14.22-.19.09-.04.14-.07.24-.07.02,0,.05,0,.07,0,.04,0,.08.01.11.03.01,0,.04.03.04.02,0-.02-.01-.03-.01-.05,0-.08.06-.15.14-.15.06,0,.08.05.11.1.02-.03.03-.06.03-.09,0-.13-.07-.2-.15-.3-.18-.22-.4-.32-.4-.61,0-.08.04-.14.11-.19.02-.01.05,0,.07-.01.02-.01.02-.03.03-.05.02-.02.04-.04.06-.06.04-.04.08-.02.12-.06.02-.02.03-.04.04-.06.05-.06.09-.09.17-.09.03,0,.07,0,.1.01.01,0,.04.02.04.02.02-.02.03-.03.05-.04.03-.02.05-.02.08-.02.04,0,.07.02.11.02.02,0,.02-.02.03-.02.04-.03.06-.04.1-.04.04,0,.08.01.1.04.03.02.04.05.08.07.02.01.04,0,.06.01.1.03.17.1.17.2,0,.05-.02.1-.05.13-.03.03-.06.02-.11.04.14.11.26.14.43.14.16,0,.36-.07.36-.22,0-.07-.04-.11-.07-.18-.05-.12-.08-.19-.08-.33,0-.1.01-.17.07-.25.06-.09.14-.11.25-.11h0s0,0,0,0Z"/>
      <g>
        <path class="cls-5" d="M10.46,5.54s-.02,0-.03,0c-.05-.01-.09-.05-.1-.1,0,0,0,0,0,0h0s0,0,0-.01l.19-.2s.01,0,.02,0c.03.02.06.05.07.09.02.05.01.12-.02.16-.03.04-.08.06-.12.06ZM10.35,5.43s.04.07.08.08c.05.01.1,0,.13-.05.03-.04.03-.09.02-.14-.01-.03-.03-.05-.05-.07l-.18.18Z"/>
        <path class="cls-5" d="M15.36,9.81s-.06,0-.08-.01c-.06-.02-.11-.04-.16-.07-.08-.04-.16-.1-.22-.16-.12-.12-.19-.27-.23-.43-.03-.16-.03-.31,0-.46.06-.25.25-.52.47-.52.06,0,.1,0,.13.03.04.03.07.07.08.12.02.05,0,.1-.02.15-.02.04-.06.07-.1.08-.05.02-.12,0-.16-.03-.03-.02-.05-.06-.05-.14,0-.04.04-.07.09-.08.04,0,.09.02.11.07,0,0,0,.01,0,.02,0,0-.01,0-.02,0-.02-.06-.06-.06-.08-.06-.03,0-.06.03-.06.05,0,.05,0,.09.04.12.03.03.08.04.14.03.04,0,.07-.03.09-.07.02-.04.03-.09.01-.13-.01-.04-.04-.08-.08-.1-.03-.02-.07-.02-.12-.02-.21,0-.39.26-.45.5-.04.15-.04.3,0,.45.03.16.11.3.22.42.06.06.13.11.21.15.05.03.1.05.16.06.05.01.1.01.14,0,.06-.01.1-.04.12-.09s.02-.1,0-.15c-.03-.05-.09-.09-.14-.09,0,0,0,0,0,0-.03,0-.08.01-.11.07,0,.02-.01.03-.01.05,0,.03,0,.06.03.08.03.02.07.02.09,0,.02-.01.03-.04.03-.07,0,0,0-.01.01-.01h0s.01,0,.01.01c0,.04-.01.07-.04.09-.03.02-.08.01-.12,0-.03-.03-.04-.06-.04-.1,0-.02,0-.04.02-.06.03-.05.08-.08.13-.08h0c.07,0,.13.04.17.11.03.06.04.12.01.18-.02.05-.07.09-.14.1-.02,0-.05,0-.07,0Z"/>
        <path class="cls-5" d="M12.95,11.71l-.02-.02c.22-.27.59-.28.98-.3.32-.01.71-.04.97-.15.42-.17.52-.41.56-.5,0,0,0-.02.01-.02.03-.06.07-.21.07-.35,0-.07,0-.14-.03-.21-.07-.2-.17-.31-.37-.42-.11-.06-.21-.08-.3-.07-.09.02-.18.06-.24.13l-.02-.02c.07-.08.16-.13.26-.14.11-.01.2.01.32.07.21.11.31.23.38.44.02.07.03.15.03.22,0,.15-.04.29-.08.36,0,0,0,.01-.01.02-.04.09-.15.34-.58.52-.26.11-.66.14-.98.15-.39.01-.75.03-.96.28Z"/>
        <g>
          <path class="cls-5" d="M12.33,12.04c-.15-.03-.21-.12-.21-.2,0-.02,0-.04,0-.06.02-.11.09-.18.17-.26,0,0,.02-.02.03-.02,0,0,.02-.02.03-.02.03-.02.06-.05.1-.07.12-.07.24-.12.37-.16h.05s.04-.02.06-.03h.01c.06-.02.11-.02.16-.03h.05c.07-.02.14-.02.21-.03.02,0,.05,0,.08,0,.1,0,.19,0,.28,0h.18c.06,0,.11,0,.18,0,.03,0,.05,0,.07,0,.06,0,.11,0,.18-.01.25-.03.41-.07.54-.15.19-.11.33-.39.24-.65-.01-.03-.02-.06-.04-.09l-.04-.06s-.05-.06-.09-.08c-.08-.04-.16-.03-.21.03-.03.04-.04.08-.03.12h-.03s0-.08.04-.13c.05-.07.15-.09.24-.04.04.02.07.05.1.08l.04.06s.03.06.04.1c.1.27-.06.57-.25.68-.14.08-.3.13-.55.16-.07,0-.12.01-.18.01-.02,0-.04,0-.07,0-.07,0-.12,0-.18,0h-.18c-.09,0-.18,0-.27,0-.03,0-.05,0-.08,0-.07,0-.14,0-.21.02h-.05s-.1.02-.16.04h-.01s-.04.01-.05.02h-.05c-.13.05-.25.1-.37.17-.03.02-.07.04-.09.06,0,0-.02.02-.03.02,0,0-.02.01-.02.02-.08.07-.14.15-.16.25,0,.02,0,.04,0,.06,0,.07.06.15.19.18v.03ZM12.44,5.84c-.07,0-.14-.04-.18-.11-.04-.07-.04-.15,0-.2.12-.21.35-.1.56,0,0,0,0-.01,0-.02,0-.02-.02-.05-.01-.09,0-.1.05-.16.09-.23.03-.05.06-.09.08-.15.03-.09.04-.16-.02-.21-.05-.05-.1-.05-.18-.02-.04.02-.08.04-.13.07-.12.07-.28.16-.51.16-.23,0-.38-.09-.51-.16-.05-.03-.09-.05-.13-.07-.08-.03-.13-.02-.18.02-.06.05-.05.12-.02.21.02.06.05.11.08.15.04.07.09.13.09.23,0,.04,0,.07-.02.09,0,0,0,.01,0,.02h0c.21-.1.45-.21.56,0,.03.06.03.14-.01.21-.04.06-.1.1-.17.1s-.12-.04-.15-.11c-.02-.06,0-.12.03-.16l.02.02s-.04.09-.03.14c.02.06.06.1.12.1.06,0,.12-.03.15-.09.04-.06.04-.13.01-.19-.1-.19-.32-.09-.53,0l-.05.02v-.03s.01-.03.02-.05c0-.02.01-.04.01-.08,0-.09-.04-.15-.09-.22-.03-.05-.06-.1-.08-.16-.03-.08-.04-.17.03-.24.05-.05.12-.06.21-.03.04.02.09.04.13.07.12.07.27.15.49.16.22,0,.37-.09.49-.16.05-.03.09-.05.13-.07.09-.03.15-.03.21.03.07.07.06.14.03.24-.02.06-.05.11-.08.16-.04.06-.08.13-.09.22,0,.04,0,.06.01.08,0,.01,0,.03.01.05v.03s-.03-.02-.03-.02c-.21-.1-.43-.2-.54-.01-.03.05-.03.12,0,.18.03.06.09.09.16.09.06,0,.1-.03.12-.1.02-.05,0-.08-.03-.14h.02s.05.08.03.15c-.02.07-.08.12-.15.12Z"/>
          <path class="cls-5" d="M11.93,5.84s0,0-.01,0c0,0,0-.01,0-.02,0,0,0,0,0,0,0,0,0,0,0,0,0,0,0-.02,0-.02.05-.02.08-.06.08-.11,0,0,0-.01.01-.01,0,0,0,0,0-.01,0-.07-.02-.13-.09-.18,0,0,0-.01,0-.02,0,0,.01,0,.02,0,.07.06.1.12.1.2,0,.1-.03.13-.11.18,0,0,0,0,0,0Z"/>
        </g>
      </g>
      <path class="cls-1" d="M10.51,5.21l.03.02.03.03.02.04v.03s.01.04.01.04v.03s-.01.03-.01.03l-.02.02-.02.02-.03.02h-.04s-.04.02-.04.02l-.04-.02-.03-.02-.02-.03-.02-.04v-.02l.19-.18h0,0Z"/>
      <g>
        <path class="cls-5" d="M10.93,5.83c-.21,0-.38-.05-.53-.14-.15-.1-.3-.23-.23-.41.02-.06.07-.1.13-.12.07-.02.15,0,.21.04h0c.08.06.1.17.04.25-.04.05-.1.07-.16.06-.05-.02-.09-.05-.1-.09-.01-.04,0-.08.02-.1.01-.02.03-.03.05-.03,0,0,.01,0,.02,0,.03,0,.06.03.06.07,0,0,0,.01-.01.01,0,0,0,0,0,0,0,0-.01,0-.01-.01,0-.02-.02-.04-.04-.05-.01,0-.04,0-.05.01-.02.02-.02.05-.01.08.01.04.04.07.08.08.05.01.1,0,.13-.05.05-.07.03-.16-.04-.21h0c-.05-.04-.12-.06-.19-.04-.05.02-.1.05-.12.1-.07.16.07.28.22.38.14.09.31.14.51.14h.02c.31,0,.57-.14.73-.24l.05-.03s.09-.02.12.01c.03.04.02.09-.01.12,0,0-.01,0-.02,0,0,0,0-.01,0-.02.03-.02.03-.06,0-.09-.02-.02-.05-.02-.09,0l-.04.03c-.17.09-.42.24-.75.24h-.02Z"/>
        <path class="cls-5" d="M9.15,10.46h-.03s0-.06,0-.06v-.07s.04-.06.04-.06l.04-.08.03-.05.08-.06.08-.03v.02s-.07.03-.07.03l-.08.06-.03.04-.04.07-.02.05v.07s-.02.05-.02.05ZM9.61,10.43v-.03s.05-.01.05-.01l.04-.02.06-.04.05-.07.03-.08v-.05s.02-.07.02-.07h.03s0,.07,0,.07v.05s-.05.08-.05.08l-.05.07-.06.05-.04.02h-.06Z"/>
        <path class="cls-5" d="M11.92,12.07v-.03s.02,0,.02,0c.15-.03.18-.12.19-.15h.03s-.04.14-.21.18h-.03Z"/>
        <path class="cls-5" d="M12.98,11.72l-.03-.02c.22-.26.58-.27.97-.29.32-.01.71-.04.97-.15.41-.17.52-.41.56-.5,0-.01,0-.02.01-.03.04-.07.07-.22.07-.35,0-.07,0-.15-.03-.21-.03-.11-.09-.21-.18-.29l.02-.02c.09.08.15.19.19.3.02.07.04.15.03.22,0,.13-.04.29-.08.36,0,0,0,.01-.01.02-.04.09-.15.34-.58.51-.26.11-.66.14-.98.15-.38.01-.74.03-.95.27Z"/>
        <path class="cls-5" d="M15.01,10.17s-.05-.06-.08-.07c-.08-.04-.18,0-.21.04h-.02c.03-.06.14-.11.23-.06.04.02.07.05.09.08h-.02Z"/>
        <path class="cls-5" d="M15.38,9.83s-.06,0-.09-.01l-.06-.02v-.03s.07.02.07.02c.04.02.09.02.14,0,.05-.02.09-.05.11-.09.02-.04.02-.09,0-.15-.01-.03-.04-.06-.06-.07l.02-.03s.05.05.07.09c.03.06.03.12,0,.18s-.07.09-.13.11c-.02,0-.05,0-.07,0Z"/>
        <path class="cls-5" d="M8.84,7.37s0,0,0,0c0,0-.01,0,0-.02.02-.09.06-.18.1-.26.04-.05.08-.07.12-.09.02-.01.04-.02.06-.04,0,0,.01,0,.02,0,0,0,0,.01,0,.02-.02.01-.04.03-.07.04-.04.02-.08.04-.11.08-.04.08-.07.16-.1.25,0,0,0,0-.01,0ZM10.48,5.53s-.01,0-.01-.01c0,0,0-.01,0-.01.07-.01.1-.05.1-.11,0,0,0-.01.01-.01s.01,0,.01.01c0,.07-.05.12-.12.13,0,0,0,0,0,0Z"/>
        <path class="cls-5" d="M15.26,8.19v-.02c.15-.04.51-.14.51-.73,0-.22-.07-.4-.21-.53-.17-.16-.38-.2-.48-.2h0v-.02h0c.1,0,.33.04.5.21.14.14.21.32.21.55,0,.61-.39.72-.53.76Z"/>
        <path class="cls-5" d="M15.31,8.16v-.02c.12-.03.45-.22.44-.67,0-.27-.09-.49-.23-.63-.1-.09-.23-.15-.37-.15,0,0-.02,0-.03,0v-.03s.02,0,.03,0c.15,0,.28.05.39.15.15.14.23.36.24.64.01.47-.33.66-.47.7Z"/>
        <path class="cls-5" d="M14.71,10.44v-.02s.06-.01.06-.01l.04-.02.02-.02.02-.03v-.04s.01-.03.01-.03h.02s0,.03,0,.03v.05s-.03.03-.03.03l-.03.03-.05.03h-.06ZM8.91,9.82h-.05s0-.02,0-.02h.04s.06,0,.06,0l.06-.02v.02s-.05.02-.05.02h-.06ZM14.96,8.82h-.02s0-.06,0-.06l.02-.1.03-.08.03-.06.04-.05h.02s-.04.06-.04.06l-.03.06-.03.07-.02.1v.06ZM15.21,8.54h-.03s0-.03,0-.03h.03s.04,0,.04,0l.04-.02.03-.02.02-.04.02-.04v-.06s.02,0,.02,0v.06s-.02.04-.02.04l-.03.04-.03.03-.05.02h-.04ZM9.07,8.54v-.02s.02,0,.02,0h.03s.03-.02.03-.02l.02-.02.02-.02v-.02s.02-.05.02-.05h.02s0,.06,0,.06v.03s-.03.02-.03.02l-.03.02h-.03s-.06.02-.06.02ZM9.21,8.19v-.02s.08-.02.08-.02l.04-.02.04-.03.03-.04v-.03s.03-.08.03-.08h.02s-.01.08-.01.08l-.02.04-.03.05-.05.04-.05.02-.09.02ZM9.59,6.87h-.03s0-.02,0-.02h.02s.04,0,.04,0l.04-.02.04-.03.03-.04.02-.04.02-.05h.02s-.02.06-.02.06l-.02.04-.03.04-.04.04-.05.02h-.04ZM9.57,6.66v-.04s.02,0,.02,0v.04s-.02,0-.02,0ZM14.65,6.52h-.02s.01-.07.01-.07l.03-.06.04-.06.06-.08.05-.06.15-.15.04-.05.06-.07.05-.08.03-.06.02-.08v-.1s0-.03,0-.03h.02s0,.02,0,.02v.11s-.02.08-.02.08l-.03.07-.05.08-.1.12-.15.15-.05.06-.06.08-.04.06-.03.06v.06Z"/>
        <g>
          <path class="cls-5" d="M15.35,9.68s-.04,0-.05-.01c0,0,0,0,0,0,0,0-.01,0-.01,0,0,0,0-.01,0-.02,0,0,.01,0,.02,0,0,0,.01,0,.02,0,.03.02.07,0,.09-.01.01-.01.03-.03.02-.07,0,0,0-.01,0-.02,0,0,.01,0,.01,0,.01.04,0,.07-.02.09-.02.02-.05.03-.07.03ZM9.57,7.96s0,0-.01,0c0,0,0-.01,0-.02.03-.01.05-.03.08-.05,0,0,.01,0,.02,0,0,0,0,.01,0,.02-.02.02-.05.04-.08.05,0,0,0,0,0,0Z"/>
          <path class="cls-5" d="M12.14,12.42h0c-.12-.05-.24-.16-.29-.24h.02c.05.07.17.17.28.22.11-.04.23-.15.28-.23h.02c-.04.08-.16.2-.29.25h0ZM12.96,11.71l-.02-.02.07-.06.05-.04.09-.06.08-.04.06-.02.12-.03.14-.02v.02s-.13.02-.13.02l-.17.04-.08.04-.09.05-.05.04-.07.06ZM15.54,9.49h-.02c0-.05,0-.1-.04-.13-.01-.01-.02-.02-.03-.03h0c-.01-.06-.06-.1-.12-.11v-.02c.08.01.14.07.14.14,0,0,0,0,.01.01.04.04.06.09.05.15ZM15.17,9.32s-.03-.03-.05-.04c-.11-.11-.17-.26-.17-.41,0-.15.06-.32.14-.39h.01s0,0,0,0c.04.05.1.06.15.04.04,0,.07-.03.09-.07.02-.04.03-.09.01-.13,0-.02-.02-.04-.03-.06-.01-.02-.03-.04-.05-.05,0,0,0,0-.01,0v-.02s.02,0,.02,0c.02.02.04.04.06.06.01.02.03.04.03.07.01.05,0,.1-.02.15-.02.04-.06.07-.1.08-.05.02-.13,0-.18-.05-.06.06-.12.21-.12.36,0,.15.06.29.16.4.01.01.03.03.05.04v.02Z"/>
          <path class="cls-5" d="M11.85,12.19s0,0,0,0c0,0,0-.01,0-.02.04-.04.07-.09.08-.15,0,0,0,0,.01,0,0,0,.01,0,0,.01-.02.06-.05.12-.09.16,0,0,0,0,0,0Z"/>
          <path class="cls-5" d="M12.13,12.41h0c-.11-.04-.22-.14-.28-.22l-.03.03-.07.04-.08.02v-.02s.07-.02.07-.02l.06-.03.03-.03s0,0,0,0h.02c.05.07.17.17.28.22.11-.04.23-.15.28-.23h.02c-.05.1-.17.21-.29.25h0ZM11.94,12.03h-.02s.02-.09.02-.09h.02s-.02.09-.02.09ZM15.17,9.32c-.15-.11-.24-.29-.24-.48,0-.15.06-.32.14-.39l.02.02c-.07.06-.13.21-.13.37,0,.18.09.35.23.46v.02ZM11.46,5.53h-.02s.02-.07.02-.1c0-.09-.04-.15-.08-.22-.03-.05-.06-.1-.08-.16-.03-.08-.05-.18.02-.25.07-.06.16-.04.21-.02.04.02.09.04.13.07.12.07.28.15.5.16h0c.21-.02.4-.12.52-.19.06-.03.1-.05.13-.06.08-.02.13,0,.18.04l-.02.02s-.1-.05-.18-.02c-.04.02-.08.04-.13.07-.12.07-.28.16-.51.16h0s0,0,0,0c-.23,0-.38-.09-.51-.16-.05-.03-.09-.05-.13-.07-.08-.03-.14-.02-.18.02-.06.06-.05.12-.02.21h0c.02.06.05.11.08.15.04.07.09.13.09.23,0,.03,0,.07-.02.1h0s0,0,0,0Z"/>
          <path class="cls-5" d="M11.83,5.68s0,0,0,0c0,0,0-.01,0-.02.03-.02.03-.06,0-.09-.02-.02-.06-.02-.09,0l-.09.05s-.01,0-.02,0c0,0,0-.01,0-.02l.09-.05s.1-.02.12,0c.03.04.03.09,0,.12,0,0,0,0,0,0Z"/>
          <path class="cls-5" d="M12.87,12.02c-.06,0-.11-.03-.13-.08h.02s.07.07.12.06c0,0,0,0,.01,0,.04,0,.06-.05.05-.08,0,0,0-.02-.01-.03,0-.01-.01-.02-.03-.03l.02-.02s.02.02.03.04c0,.01,0,.02.01.03.01.05-.02.1-.07.11-.01,0-.02,0-.03,0ZM15.34,9.68s-.04,0-.07-.02c-.02,0-.03-.02-.05-.03h-.02c-.09-.06-.21-.15-.32-.36-.03-.05-.05-.11-.07-.17-.01-.04-.02-.08-.02-.13,0-.08,0-.16.02-.24.02-.13.08-.25.16-.35.05-.06.09-.1.17-.1v.02c-.07,0-.11.03-.15.09-.08.1-.13.21-.15.34-.02.08-.03.15-.02.23,0,.04,0,.09.02.12.01.06.04.12.06.17.11.2.22.29.31.34h.02s.04.03.05.04c.05.02.07.02.1,0v.02s-.02.01-.04.01ZM9.38,7.63c-.08,0-.16-.02-.22-.07-.07-.05-.13-.12-.15-.21h.02c.02.08.07.15.14.19.06.04.14.06.21.06,0,0,0,0,.01,0,.12,0,.24-.06.32-.15.04-.05.07-.1.07-.13,0-.04-.01-.08-.05-.11-.05.08-.14.15-.28.19-.08.02-.17.01-.25-.03v-.02c.08.04.17.05.24.03.24-.07.33-.26.33-.37,0-.08-.03-.16-.1-.21l.02-.02c.07.06.11.14.1.23,0,.05-.02.11-.06.18.04.03.06.08.06.13,0,.04-.03.1-.07.15-.09.1-.21.15-.34.16h-.01ZM11.19,5.83h0s0-.01,0-.01v-.02c.21-.04.37-.14.5-.21h0s0,.01,0,.01v.02c-.11.07-.29.17-.5.21Z"/>
          <path class="cls-5" d="M11.63,12.29v-.02s.06,0,.06,0v.02s-.06,0-.06,0ZM12.85,12.2v-.02s.07,0,.07,0l.06-.03.04-.03.06-.07v-.02s.02-.09.02-.09h.02s0,.03,0,.03v.06s-.02.03-.02.03l-.06.08-.05.03-.07.03h-.07ZM12.15,10.73h0s-.14-.11-.24-.15c-.06-.03-.13-.04-.19-.05-.07-.01-.14-.02-.22-.02-.07,0-.14,0-.21.01-.04,0-.08,0-.12.01-.04,0-.08.01-.14.02-.08,0-.16,0-.24,0-.09,0-.18-.01-.26-.03-.08-.02-.17-.04-.25-.08-.08-.04-.16-.09-.22-.16l-.02-.02.02-.02.02.02c.06.06.14.11.22.15.08.04.16.07.25.08.09.02.17.03.26.03.08,0,.16,0,.24,0,.05,0,.09,0,.14-.02.04,0,.07-.01.12-.01.07,0,.14-.01.21-.01.07,0,.15,0,.22.02.07.01.13.03.2.06.09.04.2.1.24.14.04-.04.15-.1.24-.14.07-.03.13-.04.2-.06.07-.01.15-.02.22-.02.07,0,.14,0,.21.01.05,0,.08,0,.12.01.04,0,.08.01.14.02.08,0,.16.01.24,0,.09,0,.18-.01.26-.03.08-.02.17-.04.25-.08.08-.04.15-.09.22-.15.07-.06.12-.13.16-.21h.02c-.04.09-.09.17-.16.23-.06.07-.14.12-.22.16-.08.04-.17.07-.25.08-.08.02-.17.03-.26.03-.08,0-.16,0-.24,0-.05,0-.1,0-.14-.02-.04,0-.07-.01-.12-.01-.08,0-.16-.01-.24-.01-.06,0-.12,0-.19.02-.07.01-.13.03-.19.05-.1.04-.21.11-.24.14h0ZM9.66,8.49v-.02c.05-.04.1-.1.12-.17h.02c-.02.08-.07.15-.14.19ZM9.58,7.96v-.02s.04-.03.06-.05c.09-.08.14-.16.14-.26,0-.08-.02-.13-.06-.16l.02-.02s.07.1.07.18c0,.11-.04.19-.14.28-.02.02-.05.04-.08.05ZM14.49,7.27h-.02v-.19h.02v.03h.01v.13h-.01v.02ZM14.49,6.95h-.02v-.34h.02v.05h.01v.25h-.01v.04ZM9.58,6.89c-.05,0-.1-.02-.14-.05v-.02c.06.03.13.06.2.03.06-.03.11-.08.13-.15h.02c-.02.08-.08.14-.15.17-.02.01-.05.01-.07.01ZM14.91,6.74h-.02c.02-.07.01-.12-.02-.16-.02-.02-.04-.03-.07-.03,0,0,0,0,0,0v-.02h0s.07.02.09.04c.03.04.04.11.02.18Z"/>
          <path class="cls-5" d="M9.29,7.1s-.03,0-.04-.01c0,0,0-.01,0-.02,0,0,0,0,.02,0,.02.01.05.01.06,0,.02-.01.03-.04.02-.08,0-.04-.04-.07-.08-.07,0,0-.01,0-.01-.01,0,0,0-.01.01-.01,0,0,0,0,0,0,.05,0,.09.04.11.09,0,.04,0,.08-.03.1-.01,0-.03.01-.05.01Z"/>
          <path class="cls-5" d="M9.33,10.94c-.13-.13-.25-.36-.16-.61.01-.04.03-.07.04-.1l.04-.06s.06-.06.1-.08c.08-.04.17-.03.24.04.04.05.05.12.02.16-.03.04-.05.03-.07.03h0s-.02-.02-.03-.02c0,0,0,0,0-.01l.02-.02s0,.01.01.02c0,0,0,.01.01.01h0s.03,0,.05-.02c.03-.04.01-.1-.02-.13-.05-.05-.14-.07-.21-.03-.04.02-.07.04-.09.08l-.04.06s-.03.06-.04.09c-.08.24.03.46.16.58l-.02.02Z"/>
          <path class="cls-5" d="M12.86,12.01c-.05,0-.1-.03-.12-.09,0,0,0-.01,0-.02,0,0,.01,0,.02,0,.02.05.06.07.11.07,0,0,0,0,.01,0,.04,0,.06-.05.05-.08,0,0,0-.02,0-.03,0,0-.01-.02-.02-.03,0,0,0-.01,0-.02,0,0,.01,0,.02,0,.01.01.02.02.03.03,0,.01,0,.02.01.04,0,.02,0,.05-.01.07-.01.02-.03.04-.06.04-.01,0-.02,0-.03,0Z"/>
          <path class="cls-5" d="M11.6,12.29s-.03,0-.04,0c-.08,0-.15-.06-.16-.11h.02s.07.08.14.08c.09.01.18-.02.24-.07.08-.07.12-.17.12-.28,0-.06-.01-.12-.04-.18-.11-.18-.25-.24-.43-.32v-.02c.19.08.33.14.45.33.03.06.05.12.05.19,0,.11-.05.22-.13.3-.06.05-.14.08-.22.08ZM15.2,9.45s-.04-.07-.04-.11c0-.08.05-.14.13-.15,0,0,.01,0,.02,0,.07,0,.14.05.15.13h-.02c0-.06-.06-.1-.13-.1,0,0-.01,0-.02,0-.06,0-.11.06-.11.13,0,.04.01.07.04.09l-.02.02ZM9.64,8.48v-.02c.08-.06.14-.16.13-.27,0-.12-.04-.2-.14-.28l.02-.02c.11.09.15.17.15.29,0,.12-.05.23-.16.29ZM9.02,7.91s-.03-.02-.04-.04c-.02-.02-.03-.03-.04-.05-.04-.07-.07-.14-.09-.22-.02-.08-.02-.17,0-.26.02-.1.05-.18.09-.24.05-.06.11-.11.19-.14v.02c-.06.02-.13.07-.17.13-.04.05-.06.13-.09.23-.01.08,0,.17,0,.25.01.08.04.15.08.21.01.02.02.03.04.04.01.01.03.02.04.03v.02ZM14.93,7.42s-.08,0-.12-.02c-.25-.07-.35-.28-.35-.39,0-.08.03-.16.09-.22-.06-.06-.09-.15-.09-.28,0-.21.18-.39.31-.53.04-.04.08-.08.1-.11l.02-.03c.08-.1.12-.17.12-.32,0-.13-.1-.24-.23-.26v-.02c.14.02.25.14.25.28,0,.16-.05.23-.13.33l-.02.03s-.06.07-.1.12c-.13.13-.3.31-.3.51,0,.16.05.26.16.31.07.03.15,0,.19-.04.05-.05.06-.11.05-.16-.01-.05-.04-.08-.08-.08,0,0-.01,0-.02,0-.03,0-.05.02-.06.03-.02.02-.02.06,0,.08.01.02.03.03.06.02v.02s-.06,0-.08-.04c-.02-.03-.02-.08,0-.11.02-.03.05-.04.08-.04,0,0,.01,0,.02,0,.05,0,.09.05.1.1.02.07,0,.14-.05.18-.04.04-.13.08-.22.04-.02,0-.04-.02-.06-.03-.06.05-.09.12-.09.2,0,.11.09.3.33.37.09.03.17.02.23,0v.02s-.06.03-.11.03Z"/>
          <path class="cls-5" d="M9.6,9.43s0,0,0,0c0,0,0-.01,0-.02.14-.17.19-.32.19-.51,0-.23-.09-.34-.24-.53,0,0,0-.01,0-.02,0,0,.01,0,.02,0,.15.19.24.31.24.54,0,.2-.05.35-.2.53,0,0,0,0,0,0Z"/>
          <path class="cls-5" d="M14.49,9.87h-.02s.01-.07.01-.07c0-.03,0-.06,0-.08h0v-.62h.02v.61s0,.06,0,.1v.07ZM12.55,5.83h0s0,0-.01,0v-.02s.03-.05.04-.08c.02-.06.02-.1,0-.14h.02s.04.09.03.14c0,.04-.03.06-.06.09h0Z"/>
          <path class="cls-5" d="M12.15,12.44h0c-.11-.04-.23-.15-.29-.23-.08.07-.18.11-.28.1-.07,0-.13-.05-.17-.1-.07,0-.14-.04-.19-.1,0,0,0,0-.01-.01h.02s0,0,.01,0c.05.05.11.08.19.09h0s0,0,0,0c.04.05.09.08.16.09.01,0,.02,0,.03,0,.08,0,.17-.03.23-.1h0s.02-.02.02-.02v.02c.06.08.18.19.29.23.11-.04.23-.15.28-.23h.01s0,0,0,0c0,0,.02.02.03.03.07.06.16.09.24.08.06,0,.12-.04.15-.09,0,0,.01-.02.02-.03h.02s0,.03-.02.04c-.03.06-.09.1-.16.1-.09.02-.19-.02-.26-.08,0,0-.01-.01-.02-.02-.06.08-.17.19-.29.23h0ZM12.13,11.76c-.03-.08-.09-.15-.15-.21l.02-.02c.06.06.13.13.16.22h-.02ZM11.32,11.7c-.21-.23-.57-.25-.94-.26-.32-.01-.71-.04-.98-.15-.17-.07-.31-.16-.42-.27l.02-.02c.1.11.24.2.41.27.26.11.66.14.97.15.38.02.74.03.96.27l-.02.02ZM12.14,10.72h0s-.14-.11-.24-.15c-.06-.03-.13-.04-.19-.05-.06-.01-.12-.02-.18-.02-.08,0-.16,0-.25.01-.04,0-.08,0-.12.01-.04,0-.08.01-.14.02-.08,0-.16.01-.24,0-.09,0-.18-.01-.26-.03-.09-.02-.17-.04-.25-.08-.08-.04-.16-.09-.22-.16-.03-.03-.07-.07-.09-.11h.02s.06.06.09.09c.06.06.14.12.22.15.08.04.16.07.25.08.09.02.17.03.26.03.09,0,.16,0,.24,0,.05,0,.09,0,.14-.02.04,0,.07,0,.12-.01.09-.01.17-.02.25-.01.06,0,.12,0,.19.02.07,0,.13.03.2.06.09.04.2.1.24.14.04-.04.15-.1.24-.14.06-.03.13-.05.2-.06.07-.01.15-.02.22-.02.07,0,.14,0,.21.01.05,0,.08,0,.12.01.04,0,.08.01.14.02.08,0,.16.01.24,0,.09,0,.18-.01.26-.03.09-.02.17-.04.25-.08.08-.04.15-.09.22-.15.07-.06.12-.13.16-.21v-.03s.03.01.03.01v.03c-.05.08-.11.16-.17.22-.06.07-.14.12-.22.16-.08.04-.17.07-.25.08-.08.02-.17.03-.26.03-.08,0-.16,0-.24,0-.05,0-.1,0-.14-.02-.04,0-.07,0-.12-.01-.09,0-.17-.01-.25-.01-.06,0-.12,0-.18.02-.07,0-.13.03-.19.05-.1.04-.21.11-.24.14h0ZM9.6,10.45c-.14,0-.19-.1-.2-.13h.02s.05.1.18.1c0,0,0,0,0,0,.07,0,.14-.05.18-.1.06-.08.09-.18.08-.28h.02c.01.1-.02.21-.09.3-.04.05-.11.1-.2.1h0ZM9.77,10.34l-.02-.02s0-.01,0-.02c.03-.05.04-.16,0-.22-.02-.03-.04-.07-.07-.09l.02-.02s.05.06.07.1c.04.07.02.19,0,.25,0,0,0,.01-.01.02ZM14.47,9.89h-.02s.02-.1.02-.1c0-.03,0-.06,0-.08h0v-.67h.02v.66s0,.06,0,.1l-.02.1ZM14.49,8.81h-.02v-.55h.02v.04h.01v.45h-.01v.06ZM14.49,8.11h-.02v-.41h.02v.04h.01v.34h-.01v.04ZM14.49,7.55h-.02v-.19h.02v.03h.01v.13h-.01v.03Z"/>
          <polygon class="cls-5" points="12.68 12.3 12.68 12.27 12.73 12.27 12.8 12.24 12.84 12.21 12.86 12.17 12.88 12.18 12.85 12.22 12.81 12.26 12.74 12.29 12.68 12.3"/>
          <path class="cls-5" d="M12.87,12.2h-.02c-.08-.01-.15-.04-.2-.1l.02-.02c.05.05.11.08.18.08,0,0,0,0,0,0h0s.01.01.01.01c.08,0,.15-.03.2-.09.04-.04.05-.09.05-.15,0-.03,0-.06-.02-.09-.02-.04-.05-.08-.08-.1v-.02c.05.03.08.07.11.11.01.03.02.06.02.09,0,.06-.02.12-.06.17-.06.06-.13.1-.21.1ZM15.07,9.53c-.08-.07-.14-.16-.18-.25-.03-.05-.05-.11-.07-.17-.01-.04-.02-.08-.02-.13,0-.08,0-.16.02-.24.02-.13.08-.25.16-.35.02-.03.05-.06.08-.09l.02.02s-.05.05-.08.08c-.08.1-.13.22-.15.34-.02.08-.03.15-.02.23,0,.04,0,.09.02.12.01.06.04.12.06.17.04.09.11.17.18.24l-.02.02ZM14.71,6.87s-.05,0-.07-.01c-.03-.01-.06-.03-.08-.06l.02-.02s.05.04.07.05c.05.02.11.02.15-.01v.02s-.05.02-.09.02ZM14.68,6.67s-.04-.07-.05-.11c0-.16.16-.32.29-.45.04-.04.08-.08.11-.11.12-.14.16-.2.17-.35,0-.1-.08-.19-.17-.2v-.02c.1,0,.2.12.2.22,0,.15-.05.22-.17.36-.03.04-.07.07-.11.12-.12.12-.29.28-.28.43,0,.04.02.07.04.1h-.02ZM13.55,5.83v-.02c.11-.02.21-.06.31-.12.15-.1.29-.22.22-.38-.02-.04-.04-.07-.08-.09v-.02c.05.03.08.06.1.1.07.17-.08.31-.23.41-.1.06-.21.11-.32.13ZM13.13,5.63s-.04-.02-.05-.04c-.04-.05-.06-.12-.03-.18,0-.02.02-.05.04-.09.04-.09.1-.22.11-.32,0-.19-.06-.33-.19-.38v-.02c.15.05.23.2.22.4,0,.1-.06.24-.11.33-.02.04-.03.06-.04.08-.02.05-.01.11.03.15.01.01.03.03.05.03v.02ZM13.84,5.54c-.05,0-.1-.02-.13-.06-.01-.01-.02-.02-.03-.04h.02s.01.01.02.02c.03.03.07.05.11.05v.02Z"/>
          <path class="cls-5" d="M14.71,10.45h0c-.09,0-.19-.07-.22-.12,0,0-.01-.02-.02-.03,0,0,0-.01,0-.02,0,0,.01,0,.02,0,0,.01.01.02.02.03.03.04.12.11.2.11,0,0,0,0,0,0,.15,0,.17-.11.17-.11.02-.1-.02-.13-.07-.16-.02,0-.04-.01-.06,0,0,0,0,0,0,0,0,0-.01,0-.01-.01,0-.01.02-.02.03-.02.02,0,.04,0,.06.01.06.03.1.07.08.18,0,.04-.05.13-.19.13ZM13.03,5.51s-.01,0-.01-.01v-.04s0-.04,0-.04l.02-.05.07-.15.04-.11.02-.08v-.08s.01-.01.02-.01h0s.01,0,.01.01v.08s-.03.08-.03.08l-.04.11-.07.15-.02.05v.04s0,.03,0,.03c0,0,0,.01-.01.01Z"/>
          <path class="cls-5" d="M8.92,9.83s-.05,0-.07,0c-.07-.02-.12-.06-.15-.12-.03-.05-.03-.1,0-.16h.02c-.02.06-.01.11,0,.15.03.05.08.09.13.11.04.01.09.01.13,0v.02s-.04.01-.07.01ZM9.08,8.55s-.03,0-.05,0c-.05-.02-.09-.05-.12-.09-.02-.03-.03-.06-.03-.09h.02s0,.06.02.08c.02.04.06.07.11.08.05.01.11,0,.14-.03.03-.03.04-.07.04-.12,0-.01,0-.02-.01-.03h.02s.02.02.02.03c0,.07-.02.11-.04.14-.03.03-.07.04-.11.04ZM9.77,7.53s-.02-.04-.04-.06l.02-.02s.04.04.05.07h-.02ZM9.77,7.26s-.02-.03-.04-.05v-.02s.05.03.06.05h-.02Z"/>
          <path class="cls-5" d="M9.39,7.64c-.08,0-.16-.02-.22-.07-.08-.05-.14-.13-.16-.22,0,0,0-.01,0-.01,0,0,.01,0,.01,0,.02.08.08.16.15.2.06.04.14.06.21.06,0,0,0,0,.01,0,.12,0,.24-.06.32-.15.02-.03.04-.05.06-.09,0,0,0,0,.02,0,0,0,0,0,0,.02-.01.03-.04.07-.06.09-.09.1-.21.15-.34.16h-.01Z"/>
          <path class="cls-5" d="M9.78,6.94s-.05-.09-.09-.12l.02-.02s.08.08.09.13h-.02Z"/>
          <path class="cls-5" d="M9.39,7.43c-.08,0-.15-.02-.19-.05,0,0,0-.01,0-.02,0,0,.01,0,.02,0,.03.03.15.06.24.04.15-.03.27-.14.32-.29,0,0,.01-.01.02,0,0,0,0,0,0,.02-.05.15-.18.27-.34.31-.02,0-.05,0-.08,0Z"/>
          <path class="cls-5" d="M9.32,7.27h0c-.12,0-.2-.07-.22-.19h.02c.01.1.08.16.19.16,0,0,0,0,0,0,.07,0,.13-.04.17-.12.05-.1.03-.22-.05-.3l.02-.02c.08.09.1.22.05.33-.04.08-.11.13-.19.13Z"/>
          <path class="cls-5" d="M9.22,8.2s-.01,0-.01-.01c0,0,0-.01.01-.01.08,0,.14-.04.18-.09.04-.05.05-.11.04-.17-.01-.1-.11-.18-.17-.18,0,0-.01,0-.01-.01,0,0,0-.01.01-.01h0c.08,0,.17.09.19.2,0,.07,0,.14-.05.19-.04.06-.11.09-.19.1,0,0,0,0,0,0ZM9.02,8.18s0,0,0,0c-.08-.03-.16-.07-.23-.13-.03-.03-.06-.06-.09-.09,0,0,0-.01,0-.02,0,0,.01,0,.02,0,.03.03.05.06.09.09.07.06.14.1.22.12,0,0,0,0,0,.01,0,0,0,0-.01,0Z"/>
          <path class="cls-5" d="M9.58,6.65s0-.05-.03-.07c-.02-.02-.04-.03-.07-.03v-.02s.06.01.08.04c.02.02.04.05.03.08h-.02Z"/>
          <path class="cls-5" d="M14.98,7.26c-.07,0-.14-.04-.18-.1,0,0,0-.01,0-.02,0,0,.01,0,.02,0,.04.06.09.09.16.09.1,0,.14-.06.15-.09.03-.05.02-.12,0-.16,0,0,0-.01,0-.02,0,0,.01,0,.02,0,.04.05.04.13.01.19-.02.04-.07.1-.18.1ZM9.66,5.82s0,0,0,0c-.09-.05-.16-.13-.2-.23,0,0,0-.01,0-.02,0,0,.01,0,.01,0,.04.09.1.17.19.22,0,0,0,.01,0,.02,0,0,0,0-.01,0Z"/>
          <rect class="cls-5" x="14.48" y="5.81" width=".02" height=".6"/>
          <path class="cls-5" d="M9.15,8.18c-.13,0-.26-.05-.38-.15-.02-.02-.05-.05-.07-.08-.02-.02-.04-.04-.05-.06-.09-.13-.13-.29-.14-.45,0-.07,0-.13.02-.2.04-.17.14-.33.27-.45.18-.15.47-.19.63,0,.08.09.1.22.05.33-.04.08-.11.13-.19.13h0c-.09,0-.16-.05-.19-.13-.02-.07,0-.15.06-.19.06-.04.1-.04.13-.03.04.01.06.04.07.07.02.05,0,.09-.03.11-.03.02-.06.02-.09,0,0,0,0-.01,0-.02,0,0,.01,0,.02,0,.02.01.04.01.06,0,.02-.02.04-.05.02-.08,0-.02-.03-.04-.06-.05-.03-.01-.07,0-.11.02-.05.03-.07.1-.05.16.02.07.08.11.16.11h0c.07,0,.13-.04.17-.12.04-.08.04-.2-.05-.3-.15-.17-.42-.13-.6.01-.13.11-.23.27-.26.43-.01.06-.02.12-.02.19,0,.16.05.31.13.44.01.02.03.04.05.06.02.03.05.05.07.07.11.09.24.14.37.14,0,0,.01,0,.02,0,.08,0,.16-.03.2-.09.04-.05.06-.11.05-.18,0-.07-.05-.12-.11-.15-.04-.02-.09-.02-.13.01-.03.02-.05.08-.05.12,0,.03.02.06.07.08.03.01.06,0,.07-.03.01-.02.01-.04,0-.06,0,0,0-.01,0-.02,0,0,.01,0,.02,0,.02.02.03.06,0,.09-.02.03-.05.05-.09.04-.05-.01-.08-.05-.09-.1,0-.05.02-.12.06-.15.04-.03.1-.04.15-.01.07.03.11.09.12.17,0,.07,0,.14-.05.2-.05.06-.13.09-.22.1,0,0-.02,0-.02,0ZM14.6,5.82s0,0-.01,0c0,0,0-.01,0-.02.12-.07.2-.2.21-.34,0-.1-.01-.15-.06-.23-.07-.1-.19-.12-.29-.06.05.08.06.17.05.26-.02.11-.05.15-.13.23,0,0-.01,0-.02,0,0,0,0-.01,0-.02.08-.07.11-.11.13-.21.02-.09,0-.19-.06-.26-.05-.08-.12-.09-.22-.03,0,0-.01,0-.02,0,0,0,0-.01,0-.02.11-.06.19-.05.25.04,0,0,0,0,0,0,.11-.07.25-.04.32.07.05.07.07.14.06.24,0,.15-.09.29-.22.36,0,0,0,0,0,0Z"/>
          <path class="cls-5" d="M14.75,6.71c-.07,0-.13-.09-.14-.17,0-.16.16-.32.29-.45.04-.04.08-.08.11-.11.12-.15.16-.2.16-.35,0-.09-.07-.17-.16-.19v-.02c.11.01.19.1.19.21,0,.15-.04.21-.16.36-.03.03-.07.07-.11.12-.12.12-.29.28-.28.43,0,.07.07.14.12.15v.02Z"/>
          <path class="cls-5" d="M15.12,8.18s-.02,0-.04,0c-.09,0-.17-.04-.22-.1-.04-.05-.06-.12-.05-.2,0-.07.05-.13.11-.16.05-.03.12-.03.17,0,.06.04.08.1.07.15-.01.05-.05.09-.1.09,0,0,0,0-.01,0-.04,0-.07-.02-.09-.05-.01-.03,0-.06.01-.08,0,0,.01,0,.02,0,0,0,0,.01,0,.02-.02.02-.01.04,0,.05,0,.02.03.04.06.04,0,0,0,0,0,0,.04,0,.08-.03.08-.07,0-.04,0-.09-.06-.12-.05-.02-.1-.02-.15,0-.05.03-.08.08-.09.14,0,.07,0,.13.05.18.04.05.12.09.2.09.01,0,.02,0,.03,0,.13,0,.25-.04.36-.11.21-.16.29-.42.24-.79-.03-.21-.18-.38-.26-.44-.17-.14-.45-.18-.61,0-.09.1-.09.22-.06.3.03.07.1.12.17.12h0c.08,0,.14-.04.17-.11.02-.06,0-.13-.05-.16-.03-.02-.07-.03-.1-.02-.03,0-.05.04-.06.06-.01.03,0,.06.02.08.02.01.04.02.06,0,0,0,.01,0,.02,0,0,0,0,.01,0,.02-.03.02-.06.02-.09,0-.03-.02-.04-.06-.02-.1,0-.01.03-.06.08-.07.04,0,.07,0,.12.03.05.04.08.12.06.19-.02.08-.09.13-.19.13h0c-.08,0-.16-.05-.2-.14-.04-.08-.04-.21.06-.32.16-.18.46-.14.64,0,.08.07.24.24.27.46.06.38-.02.65-.25.81-.11.08-.24.12-.37.12Z"/>
          <path class="cls-5" d="M15.15,8.03s-.12-.02-.16-.05c-.02-.02-.03-.04-.03-.07h.02s0,.04.03.05c.03.03.09.05.14.05,0,0,0,0,0,0,.26-.01.41-.22.41-.58,0-.27-.17-.57-.41-.58,0,0,0,0-.01,0-.09,0-.19.02-.21.13h-.02c.03-.14.14-.16.23-.16h.01c.26,0,.43.31.44.6,0,.36-.16.59-.43.6h0Z"/>
          <path class="cls-5" d="M15.04,7.99v-.02s0,0,0,0c.34-.08.37-.31.37-.51,0-.13-.03-.44-.35-.51h-.01s0-.03,0-.03h.01c.33.08.37.4.37.54,0,.15,0,.44-.39.54h-.01Z"/>
          <path class="cls-5" d="M15.26,9.56s-.07-.1-.06-.16c0-.04.03-.08.07-.1.04-.02.08-.03.12-.03.04,0,.08.03.1.07.02.04.03.08.02.12h-.02s0-.08-.02-.11c-.02-.03-.05-.05-.09-.06-.04,0-.07,0-.1.02-.03.02-.05.05-.06.09,0,.05,0,.1.05.13l-.02.02Z"/>
          <g>
            <path class="cls-5" d="M14.69,10.42h0c-.08,0-.15-.06-.2-.1-.09-.11-.11-.25-.07-.38.03-.08.08-.13.17-.17.24-.12.49.02.59.08,0,0,0,.01,0,.02s-.01,0-.02,0c-.09-.06-.34-.19-.56-.08-.08.04-.13.09-.16.16-.04.12-.02.25.07.35.04.04.11.1.18.1h0c.12,0,.16-.08.17-.11.02-.11-.05-.14-.07-.14-.01,0-.05,0-.08,0-.02,0-.03.02-.03.03,0,.02,0,.05,0,.07,0,0,0,.01,0,.02,0,0-.01,0-.02,0-.01-.03-.02-.06,0-.09,0-.02.02-.04.04-.05.04-.02.08-.02.09,0,.02,0,.1.04.08.17,0,0-.02.13-.19.13ZM15.21,9.48s0,0,0,0c-.1-.05-.18-.13-.24-.23,0,0,0-.01,0-.02,0,0,.01,0,.02,0,.06.09.14.17.23.22,0,0,0,.01,0,.02,0,0,0,0-.01,0Z"/>
            <path class="cls-5" d="M12.66,12.29c-.08,0-.16-.03-.22-.08-.08-.08-.13-.18-.13-.3,0-.07.01-.13.05-.19.12-.19.26-.25.44-.33,0,0,.01,0,.02,0,0,0,0,.01,0,.02-.18.08-.32.14-.43.32-.03.05-.04.12-.04.18,0,.11.04.21.12.28.07.06.16.09.24.07.06,0,.12-.05.14-.08-.07,0-.13-.03-.19-.08-.06-.06-.1-.15-.1-.23,0-.35.59-.5.62-.5.21-.05.33-.07.68-.09.05,0,.1,0,.14,0,.08,0,.15,0,.24-.01.11,0,.23-.03.34-.05.18-.04.34-.12.47-.24.11-.1.17-.17.22-.31.04-.11.07-.35-.04-.52-.08-.14-.23-.23-.39-.25-.14-.02-.26.04-.33.17-.04.07-.02.18,0,.22.04.06.1.1.17.11h0c.12,0,.16-.08.16-.11.02-.1-.05-.14-.07-.14-.01,0-.05,0-.08,0-.02,0-.03.02-.03.03,0,.02,0,.05,0,.07,0,0,0,.01,0,.02,0,0-.01,0-.02,0-.01-.03-.02-.06,0-.09,0-.02.02-.04.04-.05.03-.02.08-.02.09,0,.02,0,.1.04.08.17,0,0-.02.13-.19.13h0c-.08,0-.15-.05-.19-.12-.03-.05-.04-.17,0-.25.07-.12.17-.19.3-.19.02,0,.04,0,.05,0,.17.02.31.12.4.26.12.18.09.42.05.54-.05.14-.11.21-.23.31-.14.12-.3.21-.48.24-.11.03-.23.04-.34.05-.09.01-.17.01-.25.01-.04,0-.09,0-.14,0-.35.02-.47.04-.68.09-.21.05-.6.21-.6.48,0,.08.04.16.09.21.05.05.11.07.17.07,0,0,0,0,0,0,.08,0,.15-.03.2-.09.04-.04.05-.09.05-.15,0-.03,0-.06-.02-.09-.03-.07-.1-.12-.18-.12h-.01s-.08.02-.11.05c-.03.03-.04.07-.04.11,0,.03.02.06.04.08.02.01.04.02.06.02,0,0,0,0,.02,0,.03,0,.05-.02.06-.03.01-.02,0-.05,0-.08,0,0,0-.01,0-.02,0,0,.01,0,.02,0,.02.05.02.08,0,.1-.01.02-.04.04-.08.04s-.07,0-.09-.02c-.03-.02-.05-.06-.05-.1,0-.1.07-.18.17-.19h.01c.09,0,.17.06.2.14.01.03.02.06.02.09,0,.06-.02.12-.06.17-.05.06-.12.09-.2.1-.02.04-.09.09-.16.1-.01,0-.03,0-.04,0Z"/>
          </g>
          <path class="cls-5" d="M14.62,8.48c-.1-.06-.16-.17-.16-.29,0-.14.07-.27.16-.3v.02c-.07.03-.13.15-.13.27,0,.11.05.22.15.27v.02Z"/>
          <path class="cls-5" d="M14.67,9.43s0,0,0,0c-.14-.17-.2-.32-.2-.53,0-.23.09-.35.24-.54,0,0,.01,0,.02,0,0,0,0,.01,0,.02-.15.19-.24.3-.24.53,0,.19.05.34.19.51,0,0,0,.01,0,.02,0,0,0,0,0,0Z"/>
          <path class="cls-5" d="M14.11,5.65v-.02c.06-.04.12-.12.14-.2.03-.14,0-.26-.09-.33-.04-.03-.07-.04-.12-.03-.05,0-.09.04-.12.08v.02s-.03-.01-.03-.01v-.02c.05-.05.1-.08.15-.09.05,0,.1,0,.14.03.1.07.13.2.1.35-.02.09-.08.17-.16.21Z"/>
          <path class="cls-5" d="M9.9,5.66s0,0,0,0c-.08-.07-.11-.12-.14-.23-.02-.08,0-.2.06-.28.06-.08.15-.09.25-.04,0,0,0,0,0,.02s-.01,0-.02,0c-.1-.04-.17-.03-.23.03-.07.08-.07.2-.06.26.02.1.05.14.13.21,0,0,0,.01,0,.02,0,0,0,0,0,0Z"/>
          <path class="cls-5" d="M9.65,5.81c-.13-.07-.22-.21-.22-.36,0-.1.01-.17.06-.24.08-.12.21-.14.33-.06v.02c-.12-.07-.24-.05-.31.06-.05.07-.06.13-.06.23,0,.14.09.27.21.34v.02Z"/>
          <path class="cls-5" d="M9.56,6.86c-.06,0-.12-.03-.15-.06-.05-.05-.07-.12-.05-.18.02-.05.05-.09.1-.1.04,0,.08,0,.1.04.01.02.02.04.02.07.01-.03.02-.06.03-.1,0-.15-.15-.31-.27-.43-.04-.04-.08-.08-.1-.11h0c-.11-.15-.17-.22-.17-.36,0-.11.1-.19.2-.2.04-.09.12-.16.22-.17v.02c-.12.01-.21.12-.22.24,0,.17.04.23.13.36.02.03.06.07.1.11.13.14.31.32.31.53,0,.18-.05.28-.17.33-.02.01-.05.01-.07.01ZM9.49,6.55s-.01,0-.02,0c-.04,0-.07.04-.08.08-.01.04,0,.11.05.16.04.03.12.07.19.04.11-.05.16-.14.16-.31,0-.2-.17-.38-.3-.51-.04-.04-.08-.08-.1-.12-.09-.12-.14-.2-.14-.37,0-.03,0-.05.01-.07-.08.01-.16.09-.16.18,0,.14.05.2.16.34h0s.06.08.1.12c.13.13.28.29.28.45,0,.06-.03.13-.07.16-.02.01-.04.02-.05.01h0s-.01,0-.02,0v-.02s.05,0,.06-.02c.01-.02.01-.06,0-.08,0-.01-.03-.03-.06-.03Z"/>
          <path class="cls-5" d="M8.9,9.81s-.05,0-.07,0c-.06-.02-.11-.06-.13-.11-.02-.05-.02-.11,0-.17.02-.06.09-.1.15-.11h0c.05,0,.1.03.13.08,0,.02.02.04.02.06,0,.04-.01.07-.04.1-.04.02-.09.03-.12,0-.03-.02-.04-.05-.04-.09,0,0,0-.01.01-.01h0s.01,0,.01.01c0,.03,0,.06.03.07.02.01.06,0,.09,0,.02-.02.03-.05.03-.08,0-.02,0-.04-.01-.05-.03-.04-.06-.07-.11-.07h0c-.06,0-.11.04-.13.09-.02.05-.03.11,0,.15.02.04.06.08.12.09.04.01.09.01.14,0,.05-.02.11-.04.16-.06.08-.04.15-.09.21-.15.11-.12.19-.26.22-.42.03-.15.03-.3,0-.45-.06-.24-.24-.5-.45-.5-.05,0-.09,0-.12.02-.02.01-.03.02-.05.04-.01.02-.02.04-.03.06-.01.04,0,.09.01.13.02.03.05.06.09.07.05.01.11,0,.14-.03.03-.03.04-.07.04-.12,0-.02-.03-.05-.06-.05,0,0,0,0-.01,0-.03,0-.06.02-.07.06,0,0,0,0-.02,0,0,0,0,0,0-.02.02-.05.05-.07.1-.07,0,0,0,0,.01,0,.04,0,.08.04.08.07,0,.07-.02.12-.05.14-.04.04-.11.05-.16.03-.04-.01-.08-.04-.1-.08-.03-.05-.03-.1-.02-.15,0-.02.02-.05.03-.07.02-.02.03-.04.05-.05.04-.02.08-.03.13-.03.22,0,.41.27.47.52.04.15.04.31,0,.46-.03.16-.11.31-.23.43-.07.06-.14.12-.22.16-.05.03-.11.05-.16.07-.03,0-.06.01-.08.01Z"/>
          <path class="cls-5" d="M8.92,9.68s-.03,0-.05-.01v-.02s.06.01.11,0c.02,0,.04-.02.06-.03h0c.09-.05.21-.14.31-.34.03-.05.05-.11.06-.17.01-.04.02-.08.02-.12,0-.08,0-.16-.02-.23-.02-.12-.08-.24-.15-.34-.05-.06-.08-.09-.15-.09v-.02c.09,0,.13.05.17.1.08.1.13.22.16.35.02.08.02.16.02.24,0,.04,0,.09-.02.13-.01.06-.04.12-.07.17-.11.21-.23.3-.32.35h0s-.04.03-.06.04c-.03.01-.05.02-.07.02ZM9.01,9.56l-.02-.02s.06-.08.05-.13c-.01-.07-.09-.12-.16-.11-.04,0-.07.03-.09.06-.02.03-.03.07-.02.1h-.02s0-.08.03-.12c0-.01.02-.02.03-.03.01-.07.08-.13.15-.13,0,0,.01,0,.02,0,.08.01.13.08.13.15,0,.04-.01.08-.04.1,0,.05-.02.09-.06.12ZM8.91,9.28c.08,0,.14.05.16.13h0s.02-.04.02-.07c0-.06-.04-.12-.11-.13,0,0-.01,0-.02,0-.05,0-.1.03-.12.08.01,0,.03-.01.04-.01,0,0,.02,0,.03,0Z"/>
          <path class="cls-5" d="M9.09,9.32v-.02c.13-.11.22-.28.22-.46,0-.16-.07-.31-.13-.37l.02-.02c.08.07.14.24.14.39,0,.19-.09.37-.24.48Z"/>
          <path class="cls-5" d="M9.05,9.48s0,0-.01,0c0,0,0-.01,0-.02.09-.05.17-.13.23-.22,0,0,0,0,.02,0,0,0,0,.01,0,.02-.06.1-.14.18-.24.23,0,0,0,0,0,0Z"/>
          <path class="cls-5" d="M11.32,11.71c-.21-.26-.57-.27-.96-.29-.32-.01-.71-.04-.98-.15-.42-.17-.53-.42-.58-.51,0-.01,0-.02-.01-.02-.04-.08-.07-.23-.08-.36,0-.08,0-.15.03-.22.07-.21.17-.32.38-.44.12-.06.22-.09.32-.07.12.01.19.06.23.14h-.02c-.03-.07-.1-.1-.21-.12-.1,0-.19.01-.3.07-.2.11-.3.22-.37.42-.02.07-.03.14-.03.21,0,.14.04.29.07.35,0,0,0,.02.01.03.04.09.15.33.56.5.26.11.66.14.97.15.39.02.77.03.98.3h-.02Z"/>
          <path class="cls-5" d="M9.57,10.42c-.13,0-.18-.09-.19-.13-.02-.13.07-.16.08-.17.02,0,.06,0,.09,0,.02.01.04.03.04.05,0,.03,0,.06,0,.09,0,0-.01,0-.02,0,0,0,0-.01,0-.02.01-.02.01-.04,0-.07,0-.01-.01-.03-.03-.03-.03-.01-.06-.01-.08,0-.01,0-.09.04-.07.14,0,0,.02.11.17.11h0c.08,0,.14-.05.18-.1.08-.1.11-.23.06-.35-.03-.07-.07-.12-.16-.16-.22-.11-.47.02-.56.08,0,0-.01,0-.02,0,0,0,0-.01,0-.02.07-.05.22-.13.39-.13.07,0,.13.01.2.05.09.04.14.1.17.17.04.13.02.27-.07.38-.04.05-.11.1-.2.1h0Z"/>
          <path class="cls-5" d="M11.93,12.04v-.02c.13-.03.19-.11.19-.18,0-.02,0-.04,0-.06-.02-.1-.09-.17-.16-.25,0,0-.01-.01-.02-.02,0,0-.02-.02-.03-.02-.03-.02-.06-.05-.09-.06-.12-.07-.24-.12-.37-.16h-.05s-.04-.02-.05-.03h-.01c-.05-.02-.11-.02-.16-.03h-.05c-.07-.02-.13-.02-.21-.03-.02,0-.05,0-.08,0-.09,0-.18,0-.27,0h-.18c-.06,0-.12,0-.18,0h-.03c-.08,0-.13,0-.22-.02-.22-.02-.39-.05-.55-.16-.2-.13-.35-.42-.25-.68.01-.04.03-.07.04-.1l.04-.06s.06-.06.1-.08c.08-.04.17-.02.24.04.04.04.05.09.04.14h-.02s0-.09-.03-.12c-.05-.05-.14-.07-.21-.03-.04.02-.07.04-.09.08l-.04.06s-.03.06-.04.09c-.09.26.05.53.24.65.16.1.33.13.54.15.09,0,.14.01.22.01h.03c.07,0,.13,0,.18,0h.18c.09,0,.18,0,.28,0,.03,0,.05,0,.08,0,.08,0,.14,0,.21.02h.05s.1.02.16.04h.01s.04.01.06.02h.05c.13.05.26.1.37.17.03.02.07.04.1.07,0,.01.02.02.03.02,0,0,.02.01.03.02.08.08.15.15.17.26,0,.02,0,.04,0,.06,0,.08-.07.17-.21.2Z"/>
          <path class="cls-5" d="M11.42,12.18h0c-.08,0-.16-.04-.21-.1-.04-.05-.06-.1-.06-.17,0-.03,0-.06.02-.09.03-.08.11-.14.2-.14h.01s.09.03.12.06.05.08.04.13c0,.04-.02.08-.05.1-.03.02-.06.03-.09.02-.04,0-.06-.02-.08-.04-.01-.02-.02-.05,0-.1h.02s-.02.07,0,.09c0,.02.03.03.06.03.03,0,.05,0,.08-.02.02-.02.04-.05.04-.08,0-.08-.06-.16-.14-.17h-.01c-.08,0-.15.05-.18.12-.01.03-.02.06-.02.09,0,.06.02.11.05.15.05.06.12.09.2.09,0,0,0,0,0,0,.06,0,.12-.03.17-.07.06-.06.09-.14.09-.21,0-.27-.39-.43-.6-.48-.2-.05-.33-.07-.68-.09-.05,0-.1,0-.14,0-.08,0-.15,0-.25-.01-.11,0-.23-.03-.34-.05-.18-.04-.34-.12-.48-.24-.11-.1-.18-.18-.23-.31-.04-.12-.07-.36.05-.54.09-.14.23-.24.4-.26.02,0,.04,0,.05,0,.13,0,.23.07.3.19.04.07.02.19,0,.25-.04.07-.11.11-.19.12,0,0,0,0,0,0-.13,0-.18-.09-.19-.13-.02-.13.07-.16.08-.17.02,0,.06,0,.09,0,.02.01.04.03.04.05,0,.03,0,.06,0,.09h-.02s.01-.06,0-.08c0-.01-.01-.03-.03-.03-.03-.01-.06-.01-.08,0-.02,0-.08.04-.07.14,0,0,.02.11.17.11,0,0,0,0,0,0,.07,0,.13-.04.17-.11.03-.05.04-.16,0-.22-.06-.12-.16-.18-.28-.18-.02,0-.03,0-.05,0-.16.02-.3.11-.38.25-.11.17-.09.4-.05.52.05.13.11.2.22.31.13.12.3.2.47.24.11.03.23.04.34.05.09,0,.17.01.24.01.04,0,.09,0,.14,0,.35.02.48.04.68.09.03,0,.62.15.62.5,0,.08-.04.17-.1.23-.05.05-.12.08-.19.08Z"/>
          <path class="cls-5" d="M10.16,5.65s0,0,0,0c-.08-.05-.14-.12-.16-.21-.03-.15,0-.28.1-.35.03-.02.07-.04.11-.04,0,0,.02,0,.03,0,.05,0,.1.04.14.09v.02s.02.01.01.02c0,0-.01,0-.02,0v-.02s-.09-.08-.14-.08c-.04,0-.09,0-.12.03-.09.07-.12.18-.09.33.02.08.07.16.15.2,0,0,0,.01,0,.02,0,0,0,0-.01,0Z"/>
          <path class="cls-5" d="M10.88,5.69h0c-.25,0-.4-.07-.54-.23l.02-.02c.14.15.29.22.53.22,0,0,0,0,0,0,.07,0,.2-.02.27-.08.07-.05.09-.11.07-.19,0-.02-.02-.05-.04-.08-.04-.1-.11-.23-.11-.33-.01-.25.11-.35.21-.39.17-.06.35.04.5.12.06.03.11.06.16.08.06.02.12.03.19.03,0,0,.01,0,.02,0,.06,0,.12,0,.17-.03.04-.01.1-.04.15-.08.15-.08.33-.19.5-.12.1.04.22.13.21.39,0,.1-.06.24-.11.33-.02.04-.03.06-.04.08-.03.08,0,.14.07.19.08.05.2.08.27.08,0,0,0,0,0,0,.24,0,.38-.07.53-.22l.02.02c-.15.16-.29.22-.54.23h0c-.07,0-.21-.02-.28-.08-.08-.06-.11-.13-.08-.22,0-.02.02-.05.04-.09.04-.09.1-.22.11-.32,0-.19-.06-.32-.19-.36-.17-.06-.34.04-.48.12-.06.03-.11.06-.16.08-.06.02-.12.03-.18.03-.02,0-.03,0-.04,0-.06,0-.12-.01-.18-.03-.05-.02-.1-.05-.16-.08-.14-.08-.32-.18-.48-.12-.13.05-.2.17-.19.36,0,.1.07.23.11.32.02.04.03.07.04.09.03.09,0,.16-.08.22-.08.06-.21.08-.29.08Z"/>
          <path class="cls-5" d="M11.95,12.03s0,0,0,0c0,0-.01,0,0-.01,0-.03.01-.06.01-.09,0-.06-.01-.13-.04-.18-.11-.18-.25-.25-.42-.33-.14-.06-.17-.07-.18-.07,0,0-.01,0-.02,0,0,0,0,0,0-.02,0,0,0,0,.01,0,0,0,.01,0,.02,0,.02,0,.04,0,.18.07.18.08.32.15.43.34.03.06.05.12.05.19,0,.04,0,.07-.01.1,0,0,0,0-.01,0Z"/>
          <path class="cls-5" d="M11.43,12.19h0s-.09-.01-.13-.03v-.02s.09.03.13.03c0,0,0,0,0,0,.06,0,.12-.03.17-.07.06-.06.09-.14.09-.21,0-.09-.05-.18-.13-.26l.02-.02c.09.08.14.18.14.28,0,.08-.04.17-.1.23-.05.05-.12.08-.19.08Z"/>
          <path class="cls-5" d="M11.42,12.01s-.01,0-.02,0c-.04,0-.07-.02-.08-.05-.01-.02-.02-.05,0-.1,0,0,0-.01.02,0,0,0,0,0,0,.02-.01.03-.02.06,0,.08.01.02.04.04.06.04.03,0,.06,0,.08-.02.02-.02.04-.04.04-.07h0c0-.07-.02-.12-.07-.15,0,0,0-.01,0-.02,0,0,0,0,.02,0,.06.04.09.1.09.17h0s-.02.07-.05.1c-.02.02-.05.03-.08.03Z"/>
          <path class="cls-5" d="M14.73,6.06l-.02-.02.03-.03c.05-.05.1-.1.14-.15h0c.06-.08.14-.17.14-.33,0-.14-.11-.26-.22-.26v-.02c.13,0,.24.14.24.29,0,.16-.08.26-.15.34h0c-.04.06-.09.1-.14.16l-.03.03Z"/>
          <path class="cls-5" d="M8.92,9.68s-.04,0-.05-.01c-.03-.02-.05-.05-.04-.09,0,0,0-.01.01-.01h0s.01,0,.01.01c0,.03.01.06.03.07.03.02.07.01.1,0,.02-.02.04-.04.03-.07,0-.02,0-.04-.01-.05-.03-.05-.07-.08-.11-.08h0s-.01,0-.01-.01c0,0,0-.01.01-.01.05,0,.1.03.13.09,0,.02.02.04.02.06,0,.04-.01.07-.04.09-.02.01-.04.02-.07.02ZM14.91,7.43s-.06,0-.09-.01c-.09-.02-.17-.07-.24-.14,0,0-.01-.01-.02-.02-.02-.02-.03-.03-.04-.06,0,0,0-.01,0-.02,0,0,.01,0,.02,0,0,.02.02.04.04.05,0,0,.01.01.02.02.06.06.14.11.23.13.08.02.16.01.23-.03,0,0,.01,0,.02,0,0,0,0,.01,0,.02-.05.03-.11.05-.16.05ZM14.61,5.82s0,0,0,0c0,0,0-.01,0-.02.1-.06.21-.17.22-.33,0-.1-.01-.16-.06-.23-.03-.04-.06-.07-.1-.09,0,0,0,0,0-.02,0,0,.01-.01.02,0,.04.02.08.05.11.1.05.07.07.14.06.24,0,.17-.13.28-.23.35,0,0,0,0,0,0ZM14.37,5.66s0,0,0,0c0,0,0-.01,0-.02.08-.06.11-.11.14-.2.01-.06.01-.18-.06-.26,0,0-.01-.02-.02-.02,0,0,0-.01,0-.02,0,0,.01,0,.02,0,.01,0,.02.02.03.03.07.08.08.21.06.28-.02.1-.06.15-.15.21,0,0,0,0,0,0ZM14.11,5.65s0,0,0,0c0,0,0-.01,0-.02.09-.05.13-.11.15-.19.03-.14,0-.26-.09-.33,0,0,0-.01,0-.02,0,0,.01,0,.02,0,.1.08.14.21.1.35-.03.11-.1.17-.17.21,0,0,0,0,0,0Z"/>
          <path class="cls-5" d="M9.27,9.67v-.02s.03-.03.03-.03c.03-.02.05-.04.08-.07.11-.12.19-.26.22-.42.03-.15.03-.3,0-.45-.06-.25-.24-.47-.42-.5v-.02c.19.03.38.26.44.52.04.15.04.31,0,.46-.03.16-.11.31-.23.43-.02.03-.05.05-.08.07l-.04.03ZM9.02,9.57l-.02-.02s.05-.07.05-.11c0-.08-.07-.14-.15-.15v-.02c.08,0,.15.07.17.14.01-.02.02-.04.02-.07,0-.07-.06-.14-.13-.14v-.02c.08,0,.16.08.16.16,0,.04-.01.08-.04.11,0,.05-.02.09-.06.12Z"/>
          <path class="cls-5" d="M9.59,9.44s0,0,0,0c0,0,0-.01,0-.02.05-.05.1-.11.13-.17.02-.05.04-.1.05-.15,0,0,0,0,.01,0,0,0,0,0,0,.01-.01.06-.03.11-.06.16-.03.07-.08.13-.14.18,0,0,0,0,0,0ZM9.79,8.79s-.01,0-.01,0c-.02-.11-.07-.2-.14-.29,0,0,0-.01,0-.02,0,0,.01,0,.02,0,.07.09.12.18.15.3,0,0,0,.01,0,.01,0,0,0,0,0,0Z"/>
          <path class="cls-5" d="M9.78,8.09c-.02-.07-.07-.13-.13-.18v-.02c.08.05.13.11.15.19h-.02Z"/>
          <path class="cls-5" d="M9.66,7.91s0,0,0,0c0,0,0-.01,0-.02.06-.06.11-.11.12-.17,0,0,0,0,.01,0,0,0,.01,0,0,.02-.02.07-.07.12-.13.18,0,0,0,0,0,0ZM9.31,7.26s0,0-.01,0c0,0,0-.01,0-.01l.08-.02.04-.03.03-.04.03-.07v-.05s.02,0,.02,0c0,0,0,0,0,0,0,0,.01,0,0,.01v.06s-.04.07-.04.07l-.03.05-.05.04-.09.02s0,0,0,0Z"/>
          <path class="cls-5" d="M9.1,7.93c-.06,0-.1-.03-.14-.07-.02-.02-.03-.03-.04-.05-.04-.07-.07-.14-.09-.22-.02-.08-.02-.17,0-.26.02-.1.05-.18.09-.24.04-.05.08-.09.14-.11.03-.01.06-.03.09-.03v.02s-.06.02-.08.03c-.05.02-.1.06-.13.11-.04.05-.07.13-.08.23-.01.08-.01.17,0,.25.01.07.04.14.08.21.01.02.02.03.04.05.05.05.09.07.16.06v.02s-.02,0-.04,0Z"/>
          <path class="cls-5" d="M9.5,6.71s-.03,0-.02-.01c0,0,0-.01.01-.01,0,0,0,0,.01,0,.06,0,.08-.05.09-.09,0,0,0,0,.01,0,0,0,.01,0,0,.02,0,.03-.03.11-.12.11Z"/>
          <path class="cls-5" d="M9.13,8.03s-.01,0-.02,0c-.19-.02-.27-.16-.3-.21-.04-.07-.07-.15-.09-.24,0-.02,0-.04,0-.07,0-.01,0-.02,0-.04,0-.08,0-.16.03-.24,0-.04.02-.07.04-.1.02-.03.03-.07.05-.09.02-.02.04-.04.06-.06.02-.02.04-.03.06-.05.16-.1.32-.08.4,0l-.02.02c-.07-.07-.22-.09-.37,0-.02.01-.04.03-.06.04s-.04.04-.05.06c-.02.03-.04.06-.05.09-.01.03-.03.06-.03.1-.02.08-.03.16-.03.23,0,.01,0,.02,0,.03,0,.02,0,.04,0,.06.01.08.04.16.08.23.03.04.11.18.28.2,0,0,.01,0,.02,0,.04,0,.09-.01.13-.04.02-.02.03-.04.03-.06h.02s-.01.06-.04.08c-.04.03-.1.05-.14.05Z"/>
          <path class="cls-5" d="M14.7,7.96s0,0,0,0c0,0-.02,0-.03,0-.01,0-.03,0-.05-.02-.06-.03-.13-.14-.15-.25,0-.06,0-.15.06-.22,0,0,.01,0,.02,0,0,0,0,.01,0,.02-.06.06-.06.14-.05.2.02.11.08.2.14.23.02.01.03.02.04.02,0,0,.02,0,.04.01,0,0,0,.01,0,.02,0,0,0,0-.01,0ZM13.33,5.83h-.02c-.32,0-.57-.15-.74-.24l-.05-.03s-.07-.02-.09,0c-.02.03-.02.06,0,.09,0,0,0,.01,0,.02,0,0-.01,0-.02,0-.04-.03-.04-.08-.01-.12.03-.03.07-.03.12-.01l.05.03c.18.1.42.23.73.24,0,0,.01,0,.02,0,.2,0,.38-.05.51-.14.15-.1.29-.22.22-.38-.02-.05-.06-.09-.12-.1-.06-.02-.14,0-.19.04h0s-.05.06-.06.1c0,.04,0,.08.03.11.03.04.08.06.13.05.04-.01.07-.04.08-.08,0-.03,0-.06-.01-.09,0-.01-.03-.02-.05-.01-.02,0-.04.02-.04.05,0,0,0,0-.01,0,0,0-.01,0,0-.01,0-.03.03-.06.06-.07,0,0,.01,0,.02,0,0,0,0,0,0,0h0s.05.01.07.04c.02.03.03.07.01.1-.01.04-.05.08-.1.1,0,0-.01,0-.02,0h0s-.02,0-.03,0c-.05,0-.09-.02-.12-.06-.03-.04-.04-.09-.03-.13s.03-.09.07-.11h0c.06-.05.14-.07.21-.05.06.02.11.06.13.12.07.17-.08.3-.23.41-.14.1-.32.14-.52.14Z"/>
          <path class="cls-5" d="M12.13,10.71h0s-.14-.11-.24-.15c-.06-.03-.12-.04-.19-.05-.06-.01-.12-.02-.18-.02-.08,0-.16,0-.25.01-.05,0-.08,0-.12.01-.04,0-.08.01-.13.02-.08,0-.16,0-.24,0-.09,0-.18-.01-.26-.03-.09-.02-.17-.04-.25-.08-.08-.04-.16-.09-.22-.16-.13-.13-.22-.3-.24-.48,0-.03,0-.06,0-.1v-3.88h4.7v1.45s.03-.05.06-.07v.02s-.04.06-.04.11c0,.05.01.1.05.14.06.07.2.14.34.14,0,0,0,0,.01,0,.08,0,.15-.02.21-.06.07-.05.12-.12.14-.2h.02c-.02.09-.08.17-.15.22-.07.04-.14.07-.22.07h-.01c-.13,0-.28-.06-.36-.15-.02-.02-.04-.05-.05-.08v2.29s0,.06,0,.1c-.02.19-.11.36-.24.49-.06.06-.14.12-.22.16-.08.04-.16.07-.25.08-.08.02-.17.03-.26.03-.08,0-.16,0-.24,0-.05,0-.09,0-.14-.02-.04,0-.07-.01-.12-.01-.08,0-.14-.01-.21-.01-.01,0-.02,0-.03,0-.06,0-.12,0-.18.02-.07,0-.13.03-.19.05-.1.04-.21.11-.24.14h0ZM11.51,10.47c.06,0,.12,0,.19.02.07.01.14.03.2.06.09.04.2.1.24.14.04-.04.15-.1.24-.14.07-.03.13-.05.2-.06.06-.01.12-.02.19-.02.01,0,.02,0,.03,0,.07,0,.14,0,.21.01.05,0,.08,0,.12.01.04,0,.08.01.14.02.08,0,.16,0,.24,0,.09,0,.17-.01.26-.03.09-.02.17-.04.25-.08.08-.04.16-.09.22-.15.13-.12.21-.29.24-.47,0-.03,0-.06,0-.08h0v-3.86h-4.65v3.85s0,.07,0,.09c.02.18.1.35.24.47.06.06.14.12.22.15.08.04.16.07.25.08.09.02.17.03.26.03.08,0,.16,0,.24,0,.05,0,.09,0,.13-.02.04,0,.07-.01.12-.01.07,0,.14-.01.21-.01.01,0,.02,0,.03,0Z"/>
        </g>
      </g>
      <g>
        <g>
          <path class="cls-1" d="M9.41,10.24c0-.05.04-.09.09-.1.05,0,.09.04.1.09h0c0,.05-.04.1-.1.1-.05,0-.09-.04-.09-.09h0ZM8.83,9.57s.03-.09.07-.09.07.04.07.09-.03.09-.07.09-.07-.04-.07-.09h0Z"/>
          <path class="cls-1" d="M9.51,10.34c-.06,0-.1-.05-.1-.1s.04-.1.1-.1.1.05.1.1-.04.1-.1.1ZM9.51,10.15s-.09.04-.09.09.04.09.09.09c.05,0,.09-.04.09-.09s-.04-.09-.09-.09ZM8.9,9.66s-.07-.04-.07-.09.03-.09.07-.09.07.04.07.09-.03.09-.07.09ZM8.9,9.49s-.06.04-.06.08.03.08.06.08c.03,0,.06-.04.06-.08s-.03-.08-.06-.08Z"/>
        </g>
        <path class="cls-1" d="M9.16,7.88s.03-.06.07-.06.06.03.06.07c0,.03-.03.06-.06.06-.04,0-.07-.03-.06-.07h0ZM10.32,5.39s.03-.06.06-.06c.03,0,.06.03.06.06,0,.03-.02.05-.05.06-.04,0-.07-.03-.07-.06h0Z"/>
      </g>
      <g>
        <path class="cls-1" d="M9.07,9.89s0,0,0,0c0,0,0-.01,0-.02l.05-.04.05-.03.04-.02.06-.03s.01,0,.02,0c0,0,0,.01,0,.02l-.06.03-.04.02-.05.03-.04.04s0,0,0,0ZM9.2,9.4s0,0,0,0c0,0,0-.01,0-.02l.03-.04s.02-.02.03-.03c0,0,0-.01.01-.02,0,0,0,0,0-.01l.03-.05s.01,0,.02,0c0,0,0,.01,0,.02l-.03.05s0,0,0,.01c0,0,0,.01-.01.02,0,.01-.02.02-.03.04l-.03.04s0,0,0,0ZM9.63,8.45s0,0,0,0l-.06-.06s-.01-.01-.02-.02h-.01s0-.02,0-.03c0,0,.01,0,.02,0h.01s.01.02.02.03l.07.07s0,.01,0,.02c0,0,0,0,0,0ZM9.02,8.39h0s-.01,0-.01-.01c0-.02,0-.03.01-.05,0-.03.03-.05.06-.06,0,0,.01,0,.02,0,0,0,0,.01,0,.02-.02,0-.04.03-.04.05,0,.01,0,.03,0,.04,0,0,0,.01-.01.01Z"/>
        <path class="cls-1" d="M9.55,7.98v-.02s.03,0,.05-.01c.01,0,.03-.01.04-.02v.02s-.02.01-.04.02c-.02,0-.04.01-.06.01Z"/>
        <path class="cls-1" d="M9.22,7.57s0,0,0,0c-.02,0-.04-.02-.06-.03-.02-.01-.04-.03-.06-.04-.02-.02-.03-.04-.05-.06-.01-.02-.03-.04-.04-.07,0-.02-.01-.04-.02-.06,0,0,0-.01,0-.01,0,0,.01,0,.01,0,0,.02,0,.04.02.06,0,.02.02.04.03.06.01.02.03.04.05.06.01.01.03.03.05.04.02.01.04.02.05.03,0,0,0,0,0,.02,0,0,0,0-.01,0ZM9.36,7.4s-.05,0-.08,0c-.02,0-.03,0-.05-.02-.02,0-.03-.02-.05-.03,0,0,0-.01,0-.02,0,0,0,0,.02,0,.01,0,.03.02.04.02.01,0,.03.01.04.01.02,0,.05,0,.07,0,.02,0,.04,0,.06,0,0,0,.01,0,.01,0,0,0,0,.01,0,.01-.02,0-.04,0-.06,0ZM9.69,5.85s0,0,0,0l-.08-.04s-.05-.04-.07-.06c-.02-.02-.03-.03-.04-.05,0-.01-.01-.02-.02-.03,0,0,0-.01-.01-.02,0,0,0-.01,0-.02,0,0,.01,0,.02,0,0,0,0,.02.01.02,0,0,0,.02.02.03.01.01.02.03.04.05.02.02.04.04.07.06l.08.04s0,.01,0,.02c0,0,0,0-.01,0ZM9.93,5.69s0,0,0,0c-.01-.01-.03-.02-.04-.03-.02-.01-.04-.03-.07-.05-.02-.02-.04-.05-.06-.08,0-.02-.02-.04-.03-.07,0,0,0-.01,0-.01,0,0,0,0,0,0,0,0,0,0,.01,0,0,.02.01.04.02.06.01.03.03.05.05.07.02.02.04.04.06.05.01,0,.03.02.04.03,0,0,0,.01,0,.02,0,0,0,0,0,0ZM10.16,5.67s0,0,0,0c-.02-.01-.05-.03-.07-.04-.02-.02-.04-.03-.05-.05-.01-.02-.02-.03-.03-.05,0-.02-.02-.04-.03-.06,0,0,0-.01,0-.02,0,0,.01,0,.02,0,0,.02.01.04.02.06,0,.02.02.03.03.04.01.02.03.03.05.05.02.02.05.03.07.04,0,0,0,.01,0,.02,0,0,0,0-.01,0Z"/>
      </g>
      <g>
        <g>
          <path class="cls-5" d="M12.65,5.15c0-.06-.07-.07-.09-.07-.07,0-.09.04-.18.09-.11.06-.16.07-.25.07-.1,0-.15-.01-.26-.07-.09-.05-.1-.09-.17-.09-.05,0-.09.04-.09.09h0s0,.02,0,.03c0,0,0,0,0,0,0-.02,0-.05.02-.06.01-.02.04-.03.06-.03.07,0,.1.04.18.09.11.06.16.07.25.07.1,0,.15-.01.26-.07.09-.05.11-.1.18-.1.02,0,.04.02.05.04,0,.01,0,.02,0,.03,0,0,0,0,0,0,0-.01,0-.03,0-.04h0Z"/>
          <path class="cls-5" d="M12.15,5.28c-.1,0-.15-.01-.26-.07-.03-.02-.05-.03-.07-.05-.04-.03-.06-.04-.11-.04-.02,0-.04.01-.06.03-.01.02-.02.04-.02.06h0s0,0,0,0c0-.01,0-.02,0-.03,0-.05.04-.09.09-.1.04,0,.07.02.1.04.02.01.04.03.07.05.11.06.16.07.25.07.1,0,.14-.01.25-.07.03-.02.05-.03.08-.05.03-.02.06-.04.1-.04.02,0,.09,0,.09.07h0s0,.03,0,.04h0s0,0,0,0c0-.01,0-.02,0-.03,0-.02-.02-.04-.05-.04-.04,0-.07.02-.1.04-.02.02-.04.03-.08.05-.11.06-.16.07-.26.07ZM11.71,5.11s.07.02.11.05c.02.01.04.03.07.05.11.06.15.07.25.07.1,0,.15-.01.25-.07.03-.02.06-.03.08-.05.04-.03.06-.05.11-.05.03,0,.05.02.05.04,0,0,0,.02,0,.03h0s0-.02,0-.04h0c0-.06-.06-.07-.09-.07-.04,0-.07.02-.1.04-.02.01-.04.03-.08.05-.11.06-.16.07-.26.07-.1,0-.15-.01-.26-.07-.03-.02-.05-.03-.07-.05-.03-.02-.05-.04-.1-.04-.05,0-.08.04-.08.09,0,.01,0,.02,0,.03,0,0,0,0,0,0,0-.02,0-.04.02-.06.02-.02.04-.03.06-.03Z"/>
        </g>
        <path class="cls-5" d="M10.04,10.56s.03-.01.04-.02c0,0,0,0-.01-.01-.01,0-.02,0-.03-.01-.01,0-.02,0-.03-.01,0,0-.02,0-.02,0,0,.01.04.01.02.05,0,.02-.02.03-.03.05l-.1.11s0,0,0,0,0,0,0-.01v-.16s0-.04,0-.06c0-.02.03,0,.03-.01,0,0,0,0-.01-.01,0,0-.02,0-.04-.01l-.04-.02s-.02,0-.02,0c0,0,0,0,0,0,.01,0,.02.02.02.04v.28s0,.03,0,.03c0,0,0,0,.02,0l.2-.22h0s0,0,0,0Z"/>
        <path class="cls-5" d="M10.15,10.6s.04-.02.04-.03c0,0,0,0-.01-.01h-.05s-.04-.03-.04-.03c0,0-.01,0-.02,0,0,.02.04.02.03.06l-.07.21s-.04.02-.04.04c0,0,0,0,0,0h.04s.06.03.06.03c0,0,.01,0,.01,0,0-.01-.05,0-.03-.06l.07-.21h0ZM10.3,10.64s.02-.02.03-.02c.04.01.05.05.04.09,0,.03-.02.05-.08.03-.01,0-.03,0-.02-.02l.03-.09h0ZM10.19,10.83c-.02.05-.04.03-.05.04,0,0,0,0,.01.01l.06.02s.03,0,.03.01c0,0,.01,0,.01,0,0-.02-.04,0-.03-.06l.02-.08s0-.02.02-.01c.02,0,.03.01.03.03v.08s.02.06.05.07c.02,0,.04,0,.05-.01,0,0,0,0,0,0,0,0,0,0-.01,0,0,0-.01,0-.01-.01l-.03-.14s.01,0,.03-.01c.02,0,.03-.03.04-.05,0-.02.02-.08-.07-.11l-.08-.02-.05-.02s0,0-.01,0c0,.02.04.01.03.06l-.06.19h0ZM10.51,10.92c-.01.05-.05.02-.06.04,0,0,0,.01.01.01h.06s.06.03.06.03c.01,0,.02,0,.02,0,0-.01-.05-.01-.04-.07l.05-.2s0-.02.03-.02h.03s.02.06.04.07c.01,0,.01-.02.01-.02v-.04s0-.01,0-.01l-.12-.03-.12-.03s0,0,0,0l-.02.06s0,.01,0,.02c.02,0,.02-.06.06-.05h.03s.02.02.01.04l-.05.2h0ZM10.99,10.8s.03-.02.03-.03c0,0,0,0-.01,0-.01,0-.02,0-.03,0-.01,0-.02,0-.03,0,0,0-.02,0-.02,0,0,.02.04,0,.03.05,0,.02-.01.04-.02.05l-.08.13s0,0,0,0,0,0,0-.01l-.03-.15s0-.04,0-.06c0-.02.03,0,.03-.02,0,0,0,0-.01,0,0,0-.02,0-.04,0h-.04s-.02-.02-.02,0c0,0,0,0,0,0,.01,0,.02.02.02.03l.05.28s0,.03.01.03c0,0,0,0,.01-.01l.16-.25h0ZM11.01,11.05s0,.01,0,.02c.02.01.04.02.07.03.05,0,.1-.02.11-.08,0-.06-.01-.08-.05-.11-.05-.04-.07-.04-.07-.07,0-.02.02-.04.05-.04,0,0,0,0,0,0,.07.01.06.1.07.1,0,0,.01,0,.01-.01v-.06s0-.02,0-.02c0,0-.02,0-.02,0-.01,0-.03-.02-.06-.03-.05,0-.09.02-.09.08,0,.05.01.07.04.09.06.04.08.05.08.09,0,.03-.03.05-.06.05,0,0,0,0,0,0-.04,0-.06-.05-.07-.1,0,0,0-.01,0-.01-.01,0,0,.01,0,.02v.06h0,0ZM11.61,10.88s.03-.02.03-.03c0,0,0,0-.01,0-.01,0-.02,0-.03,0-.01,0-.02,0-.03,0,0,0-.02,0-.02,0,0,.02.04,0,.04.04,0,.02,0,.04-.02.05l-.07.13s0,0,0,0,0,0,0,0l-.04-.15s-.01-.04-.01-.06c0-.02.03-.01.03-.02,0,0,0,0-.01,0,0,0-.02,0-.04,0h-.04s-.02-.01-.02,0c0,0,0,0,0,0,.01,0,.02.01.03.03l.08.27s0,.02.01.02c0,0,0,0,.01-.01l.13-.26h0Z"/>
        <path class="cls-5" d="M11.68,11.1s-.04.04-.04.06c0,0,0,0,.01,0h.04s.05,0,.05,0c0,0,.02,0,.02,0,0-.02-.05,0-.05-.08v-.15s0,0,0,0c0,0,0,0,0,0l.19.24s0,0,.01,0c0,0,0,0,0-.01v-.25s.04-.04.04-.05c0,0,0,0,0,0,0,0-.02,0-.04,0h-.05s0,0,0,0c0,.01.05,0,.05.05v.15s0,.02,0,.02,0,0-.01-.01l-.16-.2s0-.01-.02-.01c-.02,0-.03,0-.04,0,0,0-.02,0-.02,0,0,0,0,0,0,0,0,0,0,0,0,0,0,.02.05,0,.04.08v.17s0,0,0,0ZM12.07,10.9s.03-.03.03-.04c0,0,0,0-.01,0-.02,0-.04,0-.05,0-.01,0-.03,0-.05,0,0,0-.01,0-.01,0,0,.02.04,0,.04.04v.22s-.03.03-.03.05c0,0,0,0,0,0,.01,0,.03,0,.05,0h.06s.01,0,.01,0c0-.01-.05,0-.05-.05v-.22ZM12.24,11.11c0,.05-.05.03-.05.05,0,0,0,0,.01,0h.06s.06,0,.06,0c.01,0,.02,0,.02,0,0-.01-.05,0-.05-.05v-.2s0-.02.02-.02h.03s.03.05.05.05c.01,0,0-.02,0-.02v-.04s0-.01-.01-.01h-.12c-.06,0-.09,0-.12,0,0,0,0,0,0,.01v.06s0,.02,0,.02c.02,0,0-.06.05-.06h.03s.02,0,.02.02v.21h0ZM12.48,11.02s-.01,0-.01,0c0,0,0-.01,0-.02l.03-.08s0,0,0,0c0,0,0,0,0,0l.04.08s0,.01,0,.02c0,0,0,0-.01,0h-.06ZM12.55,11.04s.01,0,.03.04c0,0,0,.02,0,.03,0,.03-.03.02-.03.04,0,0,0,0,.01,0h.04s.05,0,.05,0c.01,0,.01,0,.01,0,0-.01-.02,0-.04-.03l-.13-.27s0-.01-.01-.01c0,0,0,0,0,.02l-.09.28s-.03.03-.03.04c0,0,0,0,.01,0,.01,0,.02,0,.04,0h.04s.02,0,.02,0c0-.01-.04,0-.05-.03,0-.01,0-.02,0-.04,0-.03.02-.03.02-.03h.08s0,0,0,0h0ZM12.87,10.86s0-.03.05-.04c.08-.01.05.05.07.04,0,0,0-.02,0-.02v-.04s-.01,0-.02,0h-.09s-.11.03-.11.03c0,0,0,0,0,0h0s.05,0,.05.04l.03.21c0,.05-.03.03-.02.06,0,0,0,0,0,0h.05s.05-.01.05-.01c.01,0,.02,0,.02,0,0-.01-.05,0-.05-.04v-.07s-.01-.03,0-.03h.03s.04.04.05.04c0,0,0-.02,0-.02v-.08s-.02-.01-.02-.01c0,0,0,.04-.04.05h-.03s-.02,0-.02-.02v-.06h0ZM13.02,10.96c.02.09.08.14.16.13.13-.02.13-.14.12-.2-.02-.09-.09-.14-.17-.13-.1.02-.14.1-.12.2h0ZM13.06,10.92c-.01-.06,0-.13.06-.14.05-.01.11.03.13.13.01.07,0,.14-.07.15-.07.01-.11-.07-.13-.14ZM13.38,10.77s0-.03.02-.03c.04,0,.07.02.08.06,0,.03,0,.05-.05.07-.01,0-.03,0-.03,0l-.02-.09h0ZM13.38,10.98c.01.06-.02.05-.02.06,0,0,.01,0,.01,0l.06-.02s.03,0,.03,0c0,0,.01,0,.01,0,0-.02-.04.01-.05-.04l-.02-.08s0-.02.01-.02c.02,0,.03,0,.04.01l.05.06s.04.05.07.04c.02,0,.04-.02.04-.03,0,0,0,0,0,0h0s0,0-.01,0c0,0-.01,0-.02,0l-.09-.11s0-.01.02-.02c.01-.02.02-.04,0-.06,0-.02-.03-.08-.11-.06l-.08.02h-.05s0,.01,0,.02c0,.02.04-.01.06.04l.05.19h0ZM13.7,10.91c.01.05-.04.04-.03.06,0,0,0,0,.02,0l.05-.02h.06s.02-.02.02-.03c0-.01-.05.01-.06-.04l-.05-.2s0-.02.01-.03h.03s.04.03.06.03c.01,0,0-.02,0-.02v-.04s-.02-.01-.02,0l-.12.03-.12.03s0,0,0,.01v.06s0,.02.02.01c.02,0,0-.06.04-.07h.03s.02-.01.03,0l.05.2h0ZM13.91,10.63s.02-.03.02-.05c0,0,0,0-.02,0l-.05.02h-.04s-.01.01-.01.02c0,.02.05,0,.06.03l.06.21s-.02.04-.02.05c0,0,0,0,0,0h.04s.06-.03.06-.03c0,0,.01,0,.01-.01,0-.01-.04.02-.06-.04l-.06-.21h0ZM14,10.73c.03.09.1.13.18.1.12-.04.11-.15.09-.21-.03-.09-.11-.13-.18-.1-.09.03-.12.12-.09.21h0ZM14.04,10.69c-.02-.06-.02-.13.04-.15.05-.02.11.02.15.11.02.07.02.14-.04.16-.07.02-.12-.06-.14-.12ZM14.33,10.49s0-.03.02-.04c.04-.02.07,0,.09.05,0,.02.02.05-.04.07-.01,0-.03.01-.03,0l-.03-.09h0ZM14.36,10.7c.02.05-.02.05,0,.06,0,0,.01,0,.01,0l.06-.02s.03,0,.03-.01c0,0,.01,0,0-.01,0-.02-.04.02-.05-.03l-.03-.07s0-.02.01-.02c.01,0,.03,0,.04,0l.06.05s.04.04.07.03c.02,0,.04-.03.03-.04,0,0,0,0,0,0h0s0,0-.01,0c0,0-.01,0-.02,0l-.11-.09s0-.01.02-.03c0-.02,0-.04,0-.06,0-.02-.04-.08-.12-.04l-.08.03-.05.02s0,0,0,0c0,.02.04-.02.06.03l.07.19h0Z"/>
      </g>
      <path class="cls-6" d="M10.03,6.06h2v1.99h-2v-1.99Z"/>
      <path class="cls-3" d="M10.96,7.63s0,.09-.02.13q-.02.07-.04.1s-.06.07-.09.09c-.04.03-.09.04-.14.04-.13-.01-.2-.16-.23-.27-.03-.12-.12-.19-.18-.15-.03.03-.04.07,0,.11.03.03.06.06.1.07l-.07.09c-.09-.02-.17-.09-.18-.18-.01-.06.02-.17.12-.21.13-.04.21.05.25.13.05.11.08.3.23.27.08-.02.12-.14.12-.19l.06-.06.09.03h0s0,0,0,0h0ZM11.09,7.63s0,.09.02.13q.02.07.04.1s.06.07.09.09c.04.03.09.04.14.04.13-.01.2-.16.23-.27.03-.12.12-.19.18-.15.03.03.04.07,0,.11-.03.03-.06.06-.1.07l.07.09c.09-.02.17-.09.18-.18.01-.06-.02-.17-.12-.21-.13-.04-.21.05-.25.13-.05.11-.08.3-.23.27-.08-.02-.12-.14-.12-.19l-.06-.06-.09.03h0s0,0,0,0h0Z"/>
      <path class="cls-7" d="M11.2,6.78l.26-.28s.04-.05.04-.08h-.05s-.01-.02-.01-.02v-.03s.07-.02.07-.02c0-.01,0-.02,0-.03,0-.01,0-.02,0-.03h-.08s0-.02,0-.03c0,0,0-.02.01-.03h.05s.03,0,.05,0c.04-.08.22-.15.35-.02.09.1.07.27-.05.32-.06.03-.12.01-.17-.03l.05-.09c.07.04.12,0,.12-.06,0-.06-.05-.11-.11-.11-.05,0-.09.03-.12.08-.02.03,0,.05-.01.09,0,.03,0,.06-.01.09-.01.03-.03.06-.06.09l-.27.29-1.04,1.13-.08-.07,1.05-1.14h0Z"/>
      <path class="cls-3" d="M10.44,6.88s.07.32.29.81c.11-.04.18-.07.3-.07s.19.02.3.07c.22-.49.29-.81.29-.81l-.59-.76-.59.76Z"/>
      <path class="cls-7" d="M11.08,6.38l.41.53s-.05.26-.22.64c-.06-.02-.12-.03-.19-.03v-1.13s0,0,0,0ZM10.97,6.38l-.41.53s.05.26.22.64c.06-.02.12-.03.19-.03v-1.13s0,0,0,0ZM12.24,6.06h2v1.99h-2v-1.99Z"/>
      <path class="cls-6" d="M12.52,6.06h.3v1.99h-.3v-1.99ZM13.09,6.06h.3v1.99h-.3v-1.99h0ZM13.66,6.06h.3v1.99h-.3v-1.99h0Z"/>
      <path class="cls-7" d="M10.03,9.78c0,.06.03.11.05.16.04.06.02.06.1.15.04.04.1.08.15.11.05.03.11.05.17.06.13.03.27.05.4.04.08,0,.17-.01.25-.03.09-.01.18-.02.27-.02.05,0,.1,0,.15,0,.06,0,.12.01.18.02.09.02.18.05.27.08v-2.08s-2,0-2,0v1.42s0,.07,0,.09h0Z"/>
      <g>
        <path class="cls-6" d="M10.27,10.14l.09.05.13.05v-1.98h-.22v1.88s0,0,0,0ZM11.38,10.23v-1.97s-.22,0-.22,0v2l.22-.02h0ZM11.82,8.26h-.22v1.98c.07,0,.15.02.22.04v-2.02ZM10.93,8.26v2.02c-.07,0-.15,0-.22,0v-2.02s.22,0,.22,0Z"/>
        <path class="cls-6" d="M10.82,10.3s-.07,0-.11,0h0v-2.04h.23s0,2.04,0,2.04h0s-.07,0-.11,0ZM10.71,10.28c.07,0,.14,0,.21,0v-2.01h-.21v2.01ZM11.82,10.29h0c-.07-.02-.15-.04-.22-.04h0v-1.99h.23v2.03ZM11.6,10.23c.07,0,.14.02.21.04v-2h-.21v1.97ZM11.15,10.27v-2.02h.23v1.99h0s-.23.03-.23.03ZM11.16,8.27v1.99l.21-.02v-1.96h-.21ZM10.49,10.25l-.14-.05-.1-.06v-1.89h.23v2ZM10.27,10.14l.09.05.12.04v-1.97h-.21v1.87Z"/>
      </g>
      <path class="cls-7" d="M14.23,9.78c0,.06-.03.11-.05.16-.04.06-.02.06-.1.15-.04.04-.1.08-.15.11-.05.03-.11.05-.17.06-.13.03-.27.05-.4.04-.08,0-.17-.01-.25-.03-.09-.01-.18-.02-.27-.02-.05,0-.1,0-.15,0-.06,0-.12.01-.18.02-.09.02-.18.05-.27.08v-2.08s2,0,2,0v1.42s0,.07,0,.09h0s0,0,0,0Z"/>
      <g id="B">
        <path class="cls-6" d="M12.75,8.43h-.01s-.01.02-.02.03c0,0-.02.01-.03.02,0,0-.01,0-.01.01,0,0,0,.02,0,.02,0,0,0,.02-.02.02,0,0-.02.02-.03.02,0,0-.02.02-.03.02,0,0,0,0,0,0,0,0,0,0-.01,0,0,0-.01.01-.02.02,0,0,0,0,0,.01,0,0,.02.03.02.03,0,0,0,.02.01.02.01,0,.02,0,.03,0,.02,0,.03,0,.05.01.01,0,.02.01.04.02,0,0,.02,0,.03.01,0,0,.02,0,.02,0,0,0,0,0,.02,0,0,0,0,0,0,0h0s0,0,0,0h0s0,0,0,0l.05.02s0,.02,0,.03c.02.05.03.07.04.08.01,0,.02.02.03.04,0,0,0,0,0,0-.02.01-.03.03-.04.04-.02.03-.03.03,0,.07.01.02.02.03.04.06,0,.02.01.03.02.05,0,.02,0,.03,0,.05h.02s.02,0,.02,0l.02-.03v-.02s0-.01,0-.02c0,0,.01,0,.02-.02,0-.01,0-.02-.02-.03-.01-.02-.03-.02-.04-.04,0,0,0-.01,0-.02l.05-.04s.02,0,.02,0c0,0,.01,0,.03,0,0,0,.02,0,.03,0h0s0,0,0,.01c0,.03,0,.07,0,.09,0,0,0,0,0,.01,0,0,0,.01,0,.02v.05s0,.03,0,.04c0,0,0,.02-.01.03,0,0-.01.01-.02.02v.02s.03.01.03.01h.03s.02,0,.02,0c0,0,0-.01,0-.02,0,0,0-.01.01-.01,0,0,.02,0,.02,0,0,0,0,0,0-.02,0-.02,0-.02,0-.04,0-.02,0-.04,0-.07,0-.01,0-.03,0-.04,0-.02.01-.03.02-.05,0-.02,0-.04,0-.06.08.01.15,0,.23,0,0,0,.02,0,.02,0,.02.02.04.03.07.04,0,0,0,.02,0,.02,0,0,0,.01,0,.02,0,0,0,0,0,0,0,0,.01,0,.02,0,0,0,0-.01,0-.02,0,0,0-.01,0-.02,0,0,.01,0,.02,0,0,0,.01,0,.02,0h0s0,.02,0,.03c0,0,0,0,.01,0,0,0,0,0,.01,0,0,0,0-.01,0-.02,0,0,0-.02,0-.02h.03s0,0,0,.01c0,0,0,.02,0,.02,0,.01-.01.02-.02.03,0,.01-.02.03-.03.04v.02s-.02.01-.03.02c0,0-.01.02-.02.03-.02.01-.03,0-.05.02v.03s.03.01.03.01h.03s.01,0,.01,0c0,0,0-.01,0-.02,0,0,.01,0,.02,0,0,0,.02,0,.03,0,0,0,0-.02.02-.04.02-.04.04-.07.07-.09.01-.01.03-.02.04-.03,0,0,.01-.01.01-.02,0,0,0-.01,0-.02,0,0,0-.02,0-.02.04.02.02.02.03.03,0,.01,0,.03,0,.04,0,.02.01.03.01.05,0,.02,0,.04,0,.06,0,.02,0,.03-.01.05,0,.01-.02.03-.03.04,0,0,0,0-.01,0v.03s.02,0,.02,0h.04s0,0,0,0c0-.02,0-.04,0-.04,0,0,.02,0,.02,0,0,0,0-.01,0-.02l.02-.11v-.05s.01-.03.02-.04c.02-.05,0-.06-.03-.09,0-.01-.01-.02-.02-.04,0-.02,0-.04,0-.07v-.07s0,0,0,0c.03-.01.05-.03.06-.06,0-.01,0-.02,0-.04,0,0,0-.02,0-.03,0,0,0-.02,0-.02,0,0,0-.01-.01-.02-.02-.02-.04-.03-.07-.04-.03,0-.07-.01-.1-.01-.03,0-.07,0-.1,0-.05,0-.08.01-.12.02-.04,0-.08,0-.12,0-.05,0-.11-.01-.14,0-.06,0-.06.02-.15.03h-.09s-.05-.01-.05-.01c.01,0,.03-.01.04-.03,0,0,0-.02.01-.03,0,0,.01-.02.02-.02,0,0-.01,0-.02-.01,0,0-.02,0-.02,0-.01,0-.02,0-.03,0,0,0-.01,0-.02.01-.02-.01-.03-.02-.05-.03-.02-.01-.05-.02-.07-.02h0s0,0,0,0ZM12.79,8.72h0s0,0,0,0h0Z"/>
      </g>
      <g>
        <g id="C">
          <path class="cls-7" d="M13.42,8.79v-.02s0,0-.02,0h0s-.03,0-.04,0h-.02s.03-.03.03-.03c0,0,0,0-.01,0,0,0-.02,0-.03-.02l-.02-.02h.07s.02-.02.04-.03c.02,0,.03-.02.06-.02.02,0,.07,0,.19.02.07.01.1,0,.13,0,.01,0,.02-.02.02-.03s0-.03-.02-.03c0,0-.01,0-.02,0,0,0-.01,0-.01-.01s0-.01.01-.01c.01,0,.03,0,.03.01.02.01.03.03.03.05,0,.02-.01.04-.03.05-.03.01-.07.02-.14,0-.12-.02-.16-.02-.18-.02-.02,0-.04,0-.05.02-.01,0-.02.01-.04.02h-.01s.02,0,.03,0h.02s-.02.03-.02.03c.02,0,.04,0,.06,0h.02s-.01.02-.01.02c0,0,.01,0,.02,0,.01,0,.02-.01.04-.02.01,0,.03-.02.05-.02,0,0,.01,0,.02,0,.03,0,.05,0,.07.01.02,0,.04.01.07.01.03,0,.05,0,.07-.01h.02s0,0,0,0c0,0,0,0,.01,0,0,0,0,.01,0,.01h-.02s-.05.02-.08.02c-.03,0-.05,0-.07-.01s-.04-.01-.07-.01c0,0,0,0-.01,0-.02,0-.03,0-.04.02-.01,0-.03.02-.04.02-.02,0-.03,0-.04,0h-.02Z"/>
        </g>
        <g id="D">
          <path class="cls-2" d="M12.75,8.52s-.02,0-.03,0c-.01,0-.01.02-.02.03.01,0,.02,0,.03,0,0,0,.01,0,.02-.01,0,0,.01-.02.01-.03h0s0,0,0,0Z"/>
          <path class="cls-7" d="M12.72,8.57s0,0-.01,0c0,0,0,0,0,0h-.01s0,0,0,0c0,0,0,0,0-.01,0,0,0-.01.02-.02,0,0,.02-.01.04,0h0s0,.03-.01.04c0,0-.01.01-.02.01,0,0,0,0,0,0ZM12.71,8.55s0,0,0,0c0,0,0,0,.01,0,0,0,0,0,.01-.01,0,0,0-.01,0-.02,0,0,0,0,0,0,0,0-.01,0-.02,0,0,0,0,0-.01.02h0ZM12.75,8.52h0s0,0,0,0Z"/>
        </g>
        <g>
          <g id="E">
            <path class="cls-7" d="M13.05,8.99s0,0,0,0c0,0-.01,0-.01-.01v-.03s0,0,0,0c0-.02,0-.04,0-.05,0-.01,0-.02-.01-.03v-.02s-.01-.01,0-.02c0,0,.01,0,.02,0v.02s.02.02.02.04c0,.02,0,.04,0,.05h0s0,.04,0,.04c0,0,0,.01-.01.01ZM12.96,8.96s0,0,0,0c-.02-.01-.03-.04-.03-.07,0-.01,0-.03,0-.03,0,0,0,0,0-.01s0,0,.02,0c.02,0,.02.02.02.05,0,.02,0,.05.02.05,0,0,0,.01,0,.02,0,0,0,0-.01,0ZM13.18,8.96s0,0,0,0c0,0-.01,0-.01-.01v-.02s.03-.12.03-.12c0,0,0,0,.01,0,0,0,.01,0,0,.01l-.03.13s0,.01-.01.01Z"/>
          </g>
          <path class="cls-7" d="M13.62,8.99v-.02s0,0,0,0c.03-.01.05-.02.06-.04l.02.02s-.04.04-.07.05h0Z"/>
          <g>
            <path class="cls-7" d="M13.42,8.95s-.01,0-.01,0c0,0,0-.01,0-.01.04-.01.08-.03.11-.04.03-.01.05-.02.07-.03,0,0,.01,0,.01.01,0,0,0,.01,0,.01-.02,0-.04.01-.07.02-.03.01-.07.03-.12.04,0,0,0,0,0,0Z"/>
            <g id="F">
              <path class="cls-7" d="M13.73,8.97s0,0,0,0h-.03s-.05-.05-.06-.06c-.01-.01-.02-.02-.04-.04,0,0-.02-.01-.02-.02,0,0-.02-.01-.03-.01-.01,0-.02,0-.03,0h0s-.01,0-.01-.01c0,0,0-.01.01-.01.01,0,.02,0,.03,0,.02,0,.03.01.04.02,0,0,.01,0,.02.01.02.01.04.03.05.04.01.01.03.03.06.04h.03s0,.02,0,.03c0,0,0,0-.01,0Z"/>
            </g>
          </g>
        </g>
        <g id="G">
          <path class="cls-2" d="M12.58,8.61s.01,0,.02,0c0,0,.01,0,.02,0,0,0,.01,0,.02,0,0,0,0,0,0,0,0,0,0,0,0,.01,0,0,0,.01-.01.01,0,0-.01,0-.01,0,0,0,0,0,0,0-.01,0-.03,0-.03-.01h0Z"/>
          <path class="cls-7" d="M12.63,8.65s-.01,0-.02,0c0,0,0,0,0,0-.01,0-.03,0-.03-.02h0s.01,0,.01,0c0,0,0,0,.01,0,0,0,0,0,0,0,0,0,0,0,.01,0,0,0,.01,0,.02,0,0,0,0,0,0,.01,0,0,0,0,0,.02,0,0-.01.02-.02.02h0ZM12.62,8.62h0s0,.02,0,.02c0,0,0,0,0,0h0s0,0,0,0c0,0,0,0,0,0,0,0,0,0,0,0,0,0,0,0-.01,0,0,0,0,0,0,0,0,0,0,0,0,0,0,0,0,0,.01,0h.01Z"/>
        </g>
      </g>
      <path class="cls-4" d="M12.76,8.85s-.03-.01-.05-.02c0,0,.01,0,.02-.01,0,0,0-.02.01-.03,0-.01,0-.02.02-.03,0,0,.02,0,.03,0,0,0,.02,0,.02.02,0,.01,0,.02,0,.04,0,.01,0,.02,0,.04,0,0,0,.01,0,.02-.02,0-.03,0-.05,0h0s0,0,0,0ZM12.74,8.87s0-.02.02-.02.02,0,.02.02,0,.02-.02.02-.02,0-.02-.01h0ZM12.69,8.47h0s-.01-.02-.01-.03c0,0,0-.02,0-.03,0,0,0-.02,0-.03,0,0,0-.02,0-.02,0,0,0-.02,0-.02,0,0,0,0,0-.01,0,0,0,0,.01,0,0,0,.02,0,.02.01,0,0,.01.02.02.03v.04s.01.01.02.02c0,0,0,.01.01.02h0s-.01.01-.02.02c0,0-.01.01-.02.01h0s0,0,0,0h0ZM12.78,8.73l.05.03s.07-.06.08-.1c.02-.03.03-.07.03-.1h-.04s0-.01,0-.01c0,.04-.02.07-.04.1-.02.03-.04.05-.06.07h-.02s0,.01,0,.01ZM12.9,9.17s.01-.02.02-.03c0-.01.02-.02.03-.03,0,0,0,0,.01,0,0,.01,0,.03,0,.04,0,0,0,.02,0,.03,0,0,0,.02,0,.02,0,0,0,0-.01.01-.01-.02-.03-.03-.03-.05h0s0,0,0,0ZM13.7,9.21s.05.02.07.04c0,0,0,0,0,.01-.01,0-.02,0-.04,0-.01,0-.02,0-.03,0,0,0-.02,0-.03,0,0,0-.01,0-.02,0,.01-.02.02-.04.04-.04h0ZM13.46,9.16s.05.02.07.04c0,0,0,0,0,.01-.01,0-.02,0-.04,0-.01,0-.02,0-.03,0,0,0-.02,0-.03,0,0,0-.01,0-.02,0,.01-.02.02-.04.04-.04ZM13.04,9.22s.02,0,.04.01c.01,0,.02.01.04.02,0,0,0,0,0,.01-.01,0-.02,0-.04,0-.01,0-.02,0-.03,0,0,0-.02,0-.03,0,0,0-.01,0-.02,0,.01-.02.02-.04.04-.04h0ZM12.83,8.49s-.03-.03-.02-.04c0,0,.01,0,.01,0,0,0,0-.01,0-.02,0,0,0-.02,0-.02,0,0,0-.02,0-.03,0-.01,0-.03,0-.04,0,0,.01-.01.02-.01,0,0,0,.01,0,.02,0,0,0,.02,0,.03,0,.01.01.02.02.03,0,.01,0,.02.01.03,0,0,0,.02,0,.03,0,0,0,.02-.01.02,0,0-.01,0-.02.01,0,0-.01,0-.02,0h0Z"/>
      <g id="B-2" data-name="B">
        <path class="cls-6" d="M12.75,9.32h-.01s-.01.02-.02.03c0,0-.02.01-.03.02,0,0-.01,0-.01.01,0,0,0,.02,0,.02,0,0,0,.02-.02.02,0,0-.02.02-.03.02,0,0-.02.02-.03.02,0,0,0,0,0,0,0,0,0,0-.01,0,0,0-.01.01-.02.02,0,0,0,0,0,.01,0,0,.02.03.02.03,0,0,0,.02.01.02.01,0,.02,0,.03,0,.02,0,.03,0,.05.01.01,0,.02.01.04.02,0,0,.02,0,.03.01,0,0,.02,0,.02,0,0,0,0,0,.02,0,0,0,0,0,0,0h0s0,0,0,0h0s0,0,0,0l.05.02s0,.02,0,.03c.02.05.03.07.04.08.01,0,.02.02.03.04,0,0,0,0,0,0-.02.01-.03.03-.04.04-.02.03-.03.03,0,.07.01.02.02.03.04.06,0,.02.01.03.02.05,0,.02,0,.03,0,.05h.02s.02,0,.02,0l.02-.03v-.02s0-.01,0-.02c0,0,.01,0,.02-.02,0-.01,0-.02-.02-.03-.01-.02-.03-.02-.04-.04,0,0,0-.01,0-.02l.05-.04s.02,0,.02,0c0,0,.01,0,.03,0,0,0,.02,0,.03,0h0s0,0,0,.01c0,.03,0,.07,0,.09,0,0,0,0,0,.01,0,0,0,.01,0,.02v.05s0,.03,0,.04c0,0,0,.02-.01.03,0,0-.01.01-.02.02v.02s.03.01.03.01h.03s.02,0,.02,0c0,0,0-.01,0-.02,0,0,0-.01.01-.01,0,0,.02,0,.02,0,0,0,0,0,0-.02,0-.02,0-.02,0-.04,0-.02,0-.04,0-.07,0-.01,0-.03,0-.04,0-.02.01-.03.02-.05,0-.02,0-.04,0-.06.08.01.15,0,.23,0,0,0,.02,0,.02,0,.02.02.04.03.07.04,0,0,0,.02,0,.02,0,0,0,.01,0,.02,0,0,0,0,0,0,0,0,.01,0,.02,0,0,0,0-.01,0-.02,0,0,0-.01,0-.02,0,0,.01,0,.02,0,0,0,.01,0,.02,0h0s0,.02,0,.03c0,0,0,0,.01,0,0,0,0,0,.01,0,0,0,0-.01,0-.02,0,0,0-.02,0-.02h.03s0,0,0,.01c0,0,0,.02,0,.02,0,.01-.01.02-.02.03,0,.01-.02.03-.03.04v.02s-.02.01-.03.02c0,0-.01.02-.02.03-.02.01-.03,0-.05.02v.03s.03.01.03.01h.03s.01,0,.01,0c0,0,0-.01,0-.02,0,0,.01,0,.02,0,0,0,.02,0,.03,0,0,0,0-.02.02-.04.02-.04.04-.07.07-.09.01-.01.03-.02.04-.03,0,0,.01-.01.01-.02,0,0,0-.01,0-.02,0,0,0-.02,0-.02.04.02.02.02.03.03,0,.01,0,.03,0,.04,0,.02.01.03.01.05,0,.02,0,.04,0,.06,0,.02,0,.03-.01.05,0,.01-.02.03-.03.04,0,0,0,0-.01,0v.03s.02,0,.02,0h.04s0,0,0,0c0-.02,0-.04,0-.04,0,0,.02,0,.02,0,0,0,0-.01,0-.02l.02-.11v-.05s.01-.03.02-.04c.02-.05,0-.06-.03-.09,0-.01-.01-.02-.02-.04,0-.02,0-.04,0-.07v-.07s0,0,0,0c.03-.01.05-.03.06-.06,0-.01,0-.02,0-.04,0,0,0-.02,0-.03,0,0,0-.02,0-.02,0,0,0-.01-.01-.02-.02-.02-.04-.03-.07-.04-.03,0-.07-.01-.1-.01-.03,0-.07,0-.1,0-.05,0-.08.01-.12.02-.04,0-.08,0-.12,0-.05,0-.11-.01-.14,0-.06,0-.06.02-.15.03h-.09s-.05-.01-.05-.01c.01,0,.03-.01.04-.03,0,0,0-.02.01-.03,0,0,.01-.02.02-.02,0,0-.01,0-.02-.01,0,0-.02,0-.02,0-.01,0-.02,0-.03,0,0,0-.01,0-.02.01-.02-.01-.03-.02-.05-.03-.02-.01-.05-.02-.07-.02h0s0,0,0,0ZM12.79,9.61h0s0,0,0,0h0Z"/>
      </g>
      <g>
        <g id="C-2" data-name="C">
          <path class="cls-7" d="M13.42,9.68v-.02s-.01,0-.03,0c-.01,0-.02,0-.03,0h-.02s.03-.03.03-.03c0,0,0,0-.01,0-.01,0-.02-.01-.03-.02l-.02-.02h.07s.02-.02.04-.03c.02,0,.03-.02.06-.02.02,0,.07,0,.19.02.07.01.1,0,.13,0,.01,0,.02-.02.02-.03s0-.03-.02-.03c0,0-.01,0-.02,0,0,0,0,0,0,0,0,0-.01,0-.01-.01,0,0,0-.01.01-.01.01,0,.02,0,.03.01.02.01.03.03.03.05,0,.02-.01.04-.03.05-.03.01-.07.02-.14,0-.12-.02-.16-.02-.18-.02-.02,0-.04,0-.05.02-.01,0-.02.01-.04.02h-.01s.02,0,.03,0h.02s-.02.03-.02.03c0,0,0,0,0,0,.01,0,.03,0,.05,0h.02s-.01.02-.01.02c0,0,.01,0,.02,0,.01,0,.02-.01.04-.02.01,0,.03-.02.05-.02,0,0,.01,0,.02,0,.03,0,.05,0,.07.01.02,0,.04.01.07.01.03,0,.05,0,.07-.01h.02s0,0,0,0c0,0,0,0,.01,0,0,0,0,.01,0,.01h-.02s-.05.02-.08.02c-.03,0-.05,0-.07-.01s-.04-.01-.07-.01c0,0,0,0-.01,0-.02,0-.03,0-.04.02-.01,0-.03.02-.04.02-.02,0-.03,0-.04,0h-.02Z"/>
        </g>
        <g id="D-2" data-name="D">
          <path class="cls-2" d="M12.75,9.41s-.02,0-.03,0c-.01,0-.01.02-.02.03.01,0,.02,0,.03,0,0,0,.01,0,.02-.01,0,0,.01-.02.01-.03h0s0,0,0,0Z"/>
          <path class="cls-7" d="M12.72,9.46s0,0-.01,0c0,0,0,0,0,0h-.01s0,0,0,0c0,0,0,0,0-.01,0,0,0-.01.02-.02,0,0,.02,0,.04,0h0s0,0,0,0h0s0,.03-.01.04c0,0-.01.01-.02.01,0,0,0,0,0,0ZM12.71,9.44s0,0,0,0c0,0,0,0,.01,0,0,0,.01,0,.01-.01,0,0,0-.01,0-.02,0,0,0,0,0,0,0,0-.01,0-.02,0,0,0,0,0-.01.02h0ZM12.75,9.41h0s0,0,0,0Z"/>
        </g>
        <g>
          <g id="E-2" data-name="E">
            <path class="cls-7" d="M13.05,9.88s0,0,0,0c0,0-.01,0-.01-.01v-.03s0,0,0,0c0-.02,0-.04,0-.05,0-.01,0-.02-.01-.03v-.02s-.01-.01,0-.02c0,0,.01,0,.02,0v.02s.02.03.02.04c0,.02,0,.04,0,.05h0s0,.04,0,.04c0,0,0,.01-.01.01ZM12.96,9.85s0,0,0,0c-.02-.01-.03-.04-.03-.07,0-.01,0-.03,0-.03,0,0,0,0,0-.01,0,0,0,0,.02,0,.02,0,.02.02.02.05,0,.02,0,.05.02.05,0,0,0,.01,0,.02,0,0,0,0-.01,0ZM13.18,9.85s0,0,0,0c0,0-.01,0,0-.01v-.02s.03-.12.03-.12c0,0,0,0,.01,0,0,0,.01,0,0,.01l-.03.13s0,.01-.01.01Z"/>
          </g>
          <path class="cls-7" d="M13.62,9.88v-.02s0,0,0,0c.02-.01.05-.02.06-.04l.02.02s-.04.04-.07.05h0Z"/>
          <g>
            <path class="cls-7" d="M13.42,9.84s-.01,0-.01,0c0,0,0-.01,0-.01.04-.01.08-.03.11-.04.03-.01.05-.02.07-.03,0,0,.01,0,.01.01,0,0,0,.01,0,.01-.02,0-.04.01-.07.02-.03.01-.07.03-.12.04,0,0,0,0,0,0Z"/>
            <g id="F-2" data-name="F">
              <path class="cls-7" d="M13.73,9.86s0,0,0,0h-.03s-.05-.05-.06-.06c-.01-.01-.02-.02-.04-.04,0,0-.02-.01-.02-.02,0,0-.02-.01-.03-.01,0,0-.02,0-.03,0,0,0,0,0,0,0,0,0-.01,0-.01-.01,0,0,0-.01.01-.01.01,0,.02,0,.03,0,.02,0,.03.01.04.02,0,0,.01,0,.02.01.02.01.04.03.05.04.01.01.03.03.06.04h0s.02.01.02.01c0,0,0,.01,0,.02,0,0,0,0-.01,0Z"/>
            </g>
          </g>
        </g>
        <g id="G-2" data-name="G">
          <path class="cls-2" d="M12.58,9.5s.01,0,.02,0c0,0,.01,0,.02,0,0,0,.01,0,.02,0,0,0,0,0,0,0,0,0,0,0,0,.01,0,0,0,.01-.01.01,0,0-.01,0-.01,0,0,0,0,0,0,0-.01,0-.03,0-.03-.01h0Z"/>
          <path class="cls-7" d="M12.62,9.54s-.01,0-.02,0c0,0,0,0,0,0-.01,0-.03,0-.03-.02h0s.01,0,.01,0c0,0,0,0,.01,0,0,0,0,0,0,0,0,0,0,0,.01,0,0,0,.01,0,.02,0,0,0,0,0,0,.01,0,0,0,0,0,.01,0,.01-.01.01-.02.02h0ZM12.62,9.5h0s0,.02,0,.02c0,0,0,0,0,0h0s0,0,0,0c0,0,0,0,0,0,0,0,0,0,0,0,0,0,0,0-.01,0,0,0,0,0,0,0,0,0,0,0,0,0,0,0,0,0,.01,0h.01Z"/>
        </g>
      </g>
      <path class="cls-4" d="M12.76,9.74s-.03-.01-.05-.02c0,0,.01,0,.02-.01,0,0,0-.02.01-.03,0-.01,0-.02.02-.03,0,0,.02,0,.03,0,0,0,.02,0,.02.02,0,.01,0,.02,0,.04,0,.01,0,.02,0,.04,0,0,0,.01,0,.02-.02,0-.03,0-.05,0h0s0,0,0,0ZM12.74,9.76s0-.02.02-.02.02,0,.02.02,0,.02-.02.02-.02,0-.02-.01h0ZM12.69,9.36h0s-.01-.02-.01-.03c0,0,0-.02,0-.03,0,0,0-.02,0-.03,0,0,0-.02,0-.02,0,0,0-.02,0-.02,0,0,0,0,0-.01,0,0,0,0,.01,0,0,0,.02,0,.02.01,0,0,.01.02.02.03v.04s.01.01.02.02c0,0,0,.01.01.02h0s-.01.01-.02.02c0,0-.01.01-.02.01h0s0,0,0,0h0ZM12.78,9.62l.05.03s.07-.06.08-.1c.02-.03.03-.07.03-.1h-.04s0-.01,0-.01c0,.04-.02.07-.04.1-.02.03-.04.05-.06.07h-.02s0,.01,0,.01ZM12.9,10.06s.01-.02.02-.03c0-.01.02-.02.03-.03,0,0,0,0,.01,0,0,.01,0,.03,0,.04,0,0,0,.02,0,.03,0,0,0,.02,0,.02,0,0,0,0-.01.01-.01-.02-.03-.03-.03-.05h0s0,0,0,0ZM13.7,10.1s.05.02.07.04c0,0,0,0,0,.01-.01,0-.02,0-.04,0-.01,0-.02,0-.03,0,0,0-.02,0-.03,0,0,0-.01,0-.02,0,.01-.02.02-.04.04-.04ZM13.46,10.05s.05.02.07.04c0,0,0,0,0,.01-.01,0-.02,0-.04,0-.01,0-.02,0-.03,0,0,0-.02,0-.03,0,0,0-.01,0-.02,0,.01-.02.02-.04.04-.04ZM13.04,10.11s.02,0,.04.01c.01,0,.02.01.04.02,0,0,0,0,0,.01-.01,0-.02,0-.04,0-.01,0-.02,0-.03,0,0,0-.02,0-.03,0,0,0-.01,0-.02,0,.01-.02.02-.04.04-.04h0ZM12.83,9.38s-.03-.03-.02-.04c0,0,.01,0,.01,0,0,0,0-.01,0-.02,0,0,0-.02,0-.02,0,0,0-.02,0-.03,0-.01,0-.03,0-.04,0,0,.01-.01.02-.01,0,0,0,.01,0,.02,0,0,0,.02,0,.03,0,.01.01.02.02.03,0,.01,0,.02.01.03,0,0,0,.02,0,.03,0,0,0,.02-.01.02,0,0-.01,0-.02.01,0,0-.01,0-.02,0h0Z"/>
      <path class="cls-5" d="M12.03,10.36h-.01c-.09-.04-.17-.06-.26-.08-.06-.01-.12-.02-.18-.02-.04,0-.09,0-.15,0-.09,0-.18.01-.27.02-.08.01-.17.02-.25.03-.14,0-.27,0-.41-.04-.06-.01-.12-.03-.17-.06-.06-.03-.11-.07-.15-.11-.06-.07-.07-.08-.08-.11,0,0-.01-.02-.02-.04-.03-.05-.05-.11-.05-.16h0s0-.09,0-.09v-1.43h2.02s0,2.11,0,2.11ZM11.51,10.23s.05,0,.07,0c.06,0,.12.01.18.02.09.02.17.04.25.07v-2.06s-1.98,0-1.98,0v1.41s0,.07,0,.09h0c0,.06.02.11.05.16,0,.02.02.03.02.04.01.03.02.04.08.11.04.04.09.08.15.11.05.03.11.05.16.06.1.03.21.04.32.04.03,0,.06,0,.08,0,.08,0,.17-.01.25-.03.09-.01.18-.02.27-.02.03,0,.06,0,.08,0ZM12.22,10.36v-2.1s2.02,0,2.02,0v1.43s0,.07,0,.09h0c0,.06-.03.11-.05.16-.01.02-.02.03-.02.04-.01.03-.02.04-.08.11-.04.04-.1.08-.15.11-.05.03-.11.05-.17.06-.13.04-.27.05-.41.04-.08,0-.17-.01-.25-.03-.09-.01-.18-.02-.27-.02-.06,0-.11,0-.15,0-.06,0-.12.01-.18.02-.09.02-.18.04-.27.08h-.01ZM12.25,8.27v2.06c.08-.03.17-.05.25-.07.06-.01.12-.02.18-.02.04,0,.09,0,.15,0,.09,0,.18.01.27.02.08.01.17.02.25.03.13.01.27,0,.4-.04.06-.01.11-.03.17-.06.06-.03.11-.06.15-.11.06-.06.07-.08.08-.11,0-.01.01-.02.02-.04.02-.05.04-.1.05-.16,0-.02,0-.09,0-.09v-1.41h-1.98ZM14.24,8.06h-2.02v-2.01h2.02v2.01ZM12.25,8.04h1.98v-1.97h-1.98v1.97ZM12.03,8.06h-2.02v-2.01h2.02v2.01ZM10.04,8.04h1.98v-1.97h-1.98v1.97Z"/>
    </g>
  </g>
</svg>