<?xml version="1.0" encoding="UTF-8"?>
<svg id="Layer_2" data-name="Layer 2" xmlns="http://www.w3.org/2000/svg" viewBox="0 0 34.02 17.01">
  <defs>
    <style>
      .cls-1 {
        fill: #079a48;
      }

      .cls-2 {
        fill: #fff;
      }

      .cls-3 {
        fill: #cb2026;
      }
    </style>
  </defs>
  <g id="Layer_1-2" data-name="Layer 1">
    <g>
      <rect id="rect4" class="cls-3" width="34.02" height="17.01"/>
      <path id="path6" class="cls-2" d="M.19,0h3.78v17.01H.19V0Z"/>
      <g id="a">
        <path id="b" class="cls-3" d="M2.16,0v.62h-.17v-.62h.17ZM.04,1.08h.3v-.25h.15v-.3h.21v-.26h.17v-.27h.53v.27h.17v.26h.21v.3h.15v.25h.23v.38h-.23v.25h-.15v.3h-.21v.26h-.17v.28h-.12v.23h-.28v-.23h-.12v-.28h-.17v-.26h-.21v-.3h-.15v-.25H.04M.04.13h.3v.34H.04M1.21.57h-.15v.23h-.15v.29h-.14v.36h.14v.29h.15v.23h.15v-.23h.15v-.29h.15v-.36h-.15v-.29h-.15v-.23ZM1.22,1.1v.34h-.19v-.34h.19ZM.04,1.99h.3v.37H.04M2.16,2.02v.52h-.17v-.52h.17ZM1.75,2.6v.26h.18v.26h.23v.35h-.23v.27h-.18v.26h-.21v-.26h-.18v-.27h-.15v-.35h.15v-.26h.18v-.26h.21ZM.04,3.12h.3v-.26h.18v-.26h.21v.26h.18v.26h.15v.35h-.15v.27h-.18v.26h-.21v-.26h-.18v-.27H.04M1.73,3.13h-.15v.33h.15v-.33ZM.7,3.13h-.15v.33h.15v-.33ZM.76,8.57v-.18h-.13v-.27h-.17v-.16h-.13v-.26H.04v-.6h.3v.17h.13v.25h.17v.3h.24v-.27h.18v-.2h.13v-.24h.17v-.25h.12v-.26h.12v-.26h.16v-.36h-.22v-.32h-.23v-.19h-.39v.28h.23v.25h-.15v.31h-.18v.27h-.22v-.27h-.19v-.31h-.11v-.25H.04v-.48h.3v-.31h.11v-.24h.11v-.27h.15v-.27h.15v-.18h.18v-.27h.22v.27h.18v.18h.15v.27h.15v.27h.12v.23h.12v.2h.2v1.5h-.22v.25h-.06v.26h-.17v.26h-.1v.19h-.11v.2h-.18v.2h-.26v.55M2.16,3.99v.52h-.17v-.52h.17ZM.04,4.09h.3v.37H.04M.04,6.29h.3v.37H.04v-.37ZM2.15,7.22v.33h-.16v-.33h.16ZM1.94,8.57v-.21h-.1v-.16h-.14v-.49h.14v.2h.15v.29h.17v.37M1.35,8.57v-.24h.16v.24"/>
        <g id="use9">
          <path id="b-2" data-name="b" class="cls-3" d="M2,0v.62h.17v-.62h-.17ZM4.12,1.08h-.3v-.25h-.15v-.3h-.21v-.26h-.17v-.27h-.53v.27h-.17v.26h-.21v.3h-.15v.25h-.23v.38h.23v.25h.15v.3h.21v.26h.17v.28h.12v.23h.28v-.23h.12v-.28h.17v-.26h.21v-.3h.15v-.25h.3M4.12.13h-.3v.34h.3M2.95.57h.15v.23h.15v.29h.14v.36h-.14v.29h-.15v.23h-.15v-.23h-.15v-.29h-.15v-.36h.15v-.29h.15v-.23ZM2.93,1.1v.34h.19v-.34h-.19ZM4.12,1.99h-.3v.37h.3M2,2.02v.52h.17v-.52h-.17ZM2.4,2.6v.26h-.18v.26h-.23v.35h.23v.27h.18v.26h.21v-.26h.18v-.27h.15v-.35h-.15v-.26h-.18v-.26h-.21ZM4.12,3.12h-.3v-.26h-.18v-.26h-.21v.26h-.18v.26h-.15v.35h.15v.27h.18v.26h.21v-.26h.18v-.27h.3M2.43,3.13h.15v.33h-.15v-.33ZM3.45,3.13h.15v.33h-.15v-.33ZM3.39,8.57v-.18h.13v-.27h.17v-.16h.13v-.26h.3v-.6h-.3v.17h-.13v.25h-.17v.3h-.24v-.27h-.18v-.2h-.13v-.24h-.17v-.25h-.12v-.26h-.12v-.26h-.16v-.36h.22v-.32h.23v-.19h.39v.28h-.23v.25h.15v.31h.18v.27h.22v-.27h.19v-.31h.11v-.25h.26v-.48h-.3v-.31h-.11v-.24h-.11v-.27h-.15v-.27h-.15v-.18h-.18v-.27h-.22v.27h-.18v.18h-.15v.27h-.15v.27h-.12v.23h-.12v.2h-.2v1.5h.22v.25h.06v.26h.17v.26h.1v.19h.11v.2h.18v.2h.26v.55M2,3.99v.52h.17v-.52h-.17ZM4.12,4.09h-.3v.37h.3M4.12,6.29h-.3v.37h.3v-.37ZM2,7.22v.33h.16v-.33h-.16ZM2.22,8.57v-.21h.1v-.16h.14v-.49h-.14v.2h-.15v.29h-.17v.37M2.81,8.57v-.24h-.16v.24"/>
        </g>
      </g>
      <g id="use12">
        <g id="a-2" data-name="a">
          <path id="b-3" data-name="b" class="cls-3" d="M2.16,17.01v-.62h-.17v.62h.17ZM.04,15.93h.3v.25h.15v.3h.21v.26h.17v.27h.53v-.27h.17v-.26h.21v-.3h.15v-.25h.23v-.38h-.23v-.25h-.15v-.3h-.21v-.26h-.17v-.28h-.12v-.23h-.28v.23h-.12v.28h-.17v.26h-.21v.3h-.15v.25H.04M.04,16.88h.3v-.34H.04M1.21,16.44h-.15v-.23h-.15v-.29h-.14v-.36h.14v-.29h.15v-.23h.15v.23h.15v.29h.15v.36h-.15v.29h-.15v.23ZM1.22,15.91v-.34h-.19v.34h.19ZM.04,15.02h.3v-.37H.04M2.16,14.99v-.52h-.17v.52h.17ZM1.75,14.41v-.26h.18v-.26h.23v-.35h-.23v-.27h-.18v-.26h-.21v.26h-.18v.27h-.15v.35h.15v.26h.18v.26h.21ZM.04,13.89h.3v.26h.18v.26h.21v-.26h.18v-.26h.15v-.35h-.15v-.27h-.18v-.26h-.21v.26h-.18v.27H.04M1.73,13.88h-.15v-.33h.15v.33ZM.7,13.88h-.15v-.33h.15v.33ZM.76,8.44v.18h-.13v.27h-.17v.16h-.13v.26H.04v.6h.3v-.17h.13v-.25h.17v-.3h.24v.27h.18v.2h.13v.24h.17v.25h.12v.26h.12v.26h.16v.36h-.22v.32h-.23v.19h-.39v-.28h.23v-.25h-.15v-.31h-.18v-.27h-.22v.27h-.19v.31h-.11v.25H.04v.48h.3v.31h.11v.24h.11v.27h.15v.27h.15v.18h.18v.27h.22v-.27h.18v-.18h.15v-.27h.15v-.27h.12v-.23h.12v-.2h.2v-1.5h-.22v-.25h-.06v-.26h-.17v-.26h-.1v-.19h-.11v-.2h-.18v-.2h-.26v-.55M2.16,13.02v-.52h-.17v.52h.17ZM.04,12.92h.3v-.37H.04M.04,10.72h.3v-.37H.04v.37ZM2.15,9.79v-.33h-.16v.33h.16ZM1.94,8.44v.21h-.1v.16h-.14v.49h.14v-.2h.15v-.29h.17v-.37M1.35,8.44v.24h.16v-.24"/>
          <g id="use9-2" data-name="use9">
            <path id="b-4" data-name="b" class="cls-3" d="M2,17.01v-.62h.17v.62h-.17ZM4.12,15.93h-.3v.25h-.15v.3h-.21v.26h-.17v.27h-.53v-.27h-.17v-.26h-.21v-.3h-.15v-.25h-.23v-.38h.23v-.25h.15v-.3h.21v-.26h.17v-.28h.12v-.23h.28v.23h.12v.28h.17v.26h.21v.3h.15v.25h.3M4.12,16.88h-.3v-.34h.3M2.95,16.44h.15v-.23h.15v-.29h.14v-.36h-.14v-.29h-.15v-.23h-.15v.23h-.15v.29h-.15v.36h.15v.29h.15v.23ZM2.93,15.91v-.34h.19v.34h-.19ZM4.12,15.02h-.3v-.37h.3M2,14.99v-.52h.17v.52h-.17ZM2.4,14.41v-.26h-.18v-.26h-.23v-.35h.23v-.27h.18v-.26h.21v.26h.18v.27h.15v.35h-.15v.26h-.18v.26h-.21ZM4.12,13.89h-.3v.26h-.18v.26h-.21v-.26h-.18v-.26h-.15v-.35h.15v-.27h.18v-.26h.21v.26h.18v.27h.3M2.43,13.88h.15v-.33h-.15v.33ZM3.45,13.88h.15v-.33h-.15v.33ZM3.39,8.44v.18h.13v.27h.17v.16h.13v.26h.3v.6h-.3v-.17h-.13v-.25h-.17v-.3h-.24v.27h-.18v.2h-.13v.24h-.17v.25h-.12v.26h-.12v.26h-.16v.36h.22v.32h.23v.19h.39v-.28h-.23v-.25h.15v-.31h.18v-.27h.22v.27h.19v.31h.11v.25h.26v.48h-.3v.31h-.11v.24h-.11v.27h-.15v.27h-.15v.18h-.18v.27h-.22v-.27h-.18v-.18h-.15v-.27h-.15v-.27h-.12v-.23h-.12v-.2h-.2v-1.5h.22v-.25h.06v-.26h.17v-.26h.1v-.19h.11v-.2h.18v-.2h.26v-.55M2,13.02v-.52h.17v.52h-.17ZM4.12,12.92h-.3v-.37h.3M4.12,10.72h-.3v-.37h.3v.37ZM2,9.79v-.33h.16v.33h-.16ZM2.22,8.44v.21h.1v.16h.14v.49h-.14v-.2h-.15v-.29h-.17v-.37M2.81,8.44v.24h-.16v-.24"/>
          </g>
        </g>
      </g>
      <path id="path14" class="cls-1" d="M3.97,11.34h30.05v5.67H3.97v-5.67Z"/>
    </g>
  </g>
</svg>