<?xml version="1.0" encoding="UTF-8"?>
<svg id="Layer_2" data-name="Layer 2" xmlns="http://www.w3.org/2000/svg" viewBox="0 0 34.01 17.01">
  <defs>
    <style>
      .cls-1 {
        fill: #fff;
      }

      .cls-2 {
        fill: #293789;
      }

      .cls-3 {
        fill: #fecc08;
      }
    </style>
  </defs>
  <g id="Layer_1-2" data-name="Layer 1">
    <g>
      <rect class="cls-2" y="0" width="34.01" height="17.01"/>
      <path class="cls-3" d="M9.01,0h17.01v17.01L9.01,0Z"/>
      <g id="g">
        <polyline class="cls-1" points="5.37 0 5 1.12 5.95 .43 6.9 1.12 6.54 0"/>
        <path id="s" class="cls-1" d="M6.54,1.43L7.72,1.43L8.08,0.32L8.44,1.43L9.61,1.43L8.67,2.12L9.03,3.24L8.08,2.55L7.13,3.24L7.49,2.12Z"/>
        <path id="s-2" data-name="s" class="cls-1" d="M8.66,3.56L9.84,3.56L10.20,2.45L10.56,3.56L11.73,3.56L10.79,4.25L11.15,5.37L10.20,4.68L9.25,5.37L9.61,4.25Z"/>
      </g>
      <g id="g-2" data-name="g">
        <path id="s-3" data-name="s" class="cls-1" d="M10.79,5.68L11.97,5.68L12.33,4.57L12.69,5.68L13.86,5.68L12.92,6.37L13.28,7.49L12.33,6.80L11.38,7.49L11.74,6.37Z"/>
        <path id="s-4" data-name="s" class="cls-1" d="M12.92,7.81L14.10,7.81L14.46,6.70L14.82,7.81L15.99,7.81L15.05,8.50L15.41,9.62L14.46,8.93L13.51,9.62L13.87,8.50Z"/>
        <path id="s-5" data-name="s" class="cls-1" d="M15.04,9.94L16.22,9.94L16.58,8.83L16.94,9.94L18.11,9.94L17.17,10.63L17.53,11.75L16.58,11.06L15.63,11.75L15.99,10.63Z"/>
      </g>
      <g id="g-3" data-name="g">
        <path id="s-6" data-name="s" class="cls-1" d="M17.17,12.06L18.35,12.06L18.71,10.95L19.07,12.06L20.24,12.06L19.30,12.75L19.66,13.87L18.71,13.18L17.76,13.87L18.12,12.75Z"/>
        <path id="s-7" data-name="s" class="cls-1" d="M19.29,14.19L20.47,14.19L20.83,13.08L21.19,14.19L22.36,14.19L21.42,14.88L21.78,16.00L20.83,15.31L19.88,16.00L20.24,14.88Z"/>
        <polyline class="cls-1" points="23.55 17.01 24.5 16.32 23.32 16.32 22.96 15.2 22.6 16.32 21.42 16.32 22.37 17.01"/>
      </g>
    </g>
  </g>
</svg>