<?xml version="1.0" encoding="UTF-8"?>
<svg id="Layer_2" data-name="Layer 2" xmlns="http://www.w3.org/2000/svg" viewBox="0 0 34.02 17.01">
  <defs>
    <style>
      .cls-1 {
        fill: #2691d0;
      }

      .cls-2 {
        fill: #fff;
      }

      .cls-3, .cls-4 {
        fill: #f6db14;
      }

      .cls-5, .cls-6 {
        fill: #010101;
      }

      .cls-5, .cls-4 {
        fill-rule: evenodd;
      }

      .cls-7 {
        fill: #2c318a;
      }

      .cls-8 {
        fill: #ed2224;
      }
    </style>
  </defs>
  <g id="Layer_1-2" data-name="Layer 1">
    <g>
      <path class="cls-7" d="M0,0h34.02v17.01H0V0Z"/>
      <path class="cls-2" d="M0,0h34.02v11.34H0V0Z"/>
      <path class="cls-8" d="M0,0h34.02v5.67H0V0Z"/>
      <path class="cls-8" d="M17.01,12.9c1.82,0,3.31-1.49,3.31-3.31v-3.93h-6.61v3.93c0,1.82,1.49,3.31,3.31,3.31h0Z"/>
      <path class="cls-2" d="M17.01,12.85c1.78,0,3.24-1.46,3.24-3.24v-3.88h-6.49v3.88c0,1.78,1.46,3.24,3.24,3.24h0Z"/>
      <g>
        <path class="cls-8" d="M15.13,5.85h-1.25v1.37h1.25v-1.37ZM15.13,8.6h1.25v-1.37h-1.25v1.37ZM13.89,9.6c0,.12,0,.25.02.37h1.23v-1.37h-1.25v1h0ZM17.63,8.6h-1.25v1.37h1.25v-1.37ZM17.63,11.34h1.25v-1.37h-1.25v1.37ZM18.88,12.09c.28-.21.52-.46.71-.75h-.71v.75ZM15.13,11.34h1.25v-1.37h-1.25v1.37ZM14.42,11.34c.19.29.44.54.71.75v-.75h-.71Z"/>
        <path class="cls-8" d="M17.22,12.71c.14,0,.27-.03.41-.06v-1.32h-1.25v1.32c.13.03.27.05.41.06.15,0,.29,0,.44,0h0ZM20.1,9.97c.01-.12.02-.24.02-.37v-1h-1.25v1.37h1.22ZM17.63,8.6h1.25v-1.37h-1.25v1.37ZM17.63,5.85h-1.25v1.37h1.25v-1.37ZM20.13,7.22v-1.37h-1.25v1.37h1.25Z"/>
      </g>
      <path class="cls-2" d="M20.2,5.63l.77-1.75-.59-.95-.98.36-.69-.78-.9.52-.81-.66-.81.66-.9-.52-.69.78-.98-.36-.59.95.77,1.75c.97-.44,2.05-.69,3.19-.69s2.21.25,3.19.69h0Z"/>
      <path class="cls-1" d="M14.63,3.36h0s-.97-.36-.97-.36l-.54.88.21.47.53,1.19c.4-.18.81-.32,1.23-.42l-.45-1.76h0Z"/>
      <g>
        <path class="cls-2" d="M14.58,4.23c.04.07.05.14.05.22,0,.26-.21.47-.47.47-.23,0-.42-.17-.46-.38.08.14.24.24.41.24.26,0,.48-.21.48-.48,0-.03,0-.05,0-.08h0Z"/>
        <path class="cls-6" d="M14.16,4.92c-.23,0-.42-.16-.46-.38.08.15.24.24.41.24.26,0,.48-.21.48-.48,0-.02,0-.05,0-.08h0c.04.07.05.14.05.22,0,.26-.21.47-.47.47ZM13.69,4.54c.04.22.24.38.46.38.26,0,.47-.21.47-.47,0-.08-.02-.15-.05-.22,0,.03,0,.05,0,.08,0,.26-.21.48-.48.48-.17,0-.33-.09-.41-.24Z"/>
      </g>
      <path class="cls-6" d="M14.14,3.57h0s-.03.18-.03.18l.13.11h0s0,0,0,0l-.16.06-.03.17h0s0,0,0,0l-.13-.11-.16.06h0s0,0,0,0l.03-.17-.13-.11h0s0,0,0,0l.16-.06.03-.17h0s0,0,0,0l.13.11.16-.06h0Z"/>
      <path class="cls-3" d="M13.95,3.81l.12.11.15-.05-.28-.05ZM13.95,3.81l.28.05-.12-.11-.15.05ZM13.65,3.75l.28.05-.12-.11-.15.05ZM13.93,3.81l-.28-.05.12.11.15-.05ZM13.94,3.8l.18-.21-.15.05-.03.16ZM13.75,4.02l.18-.21-.15.05-.03.16ZM13.93,3.82l-.18.21.15-.05.03-.16ZM14.13,3.59l-.18.21.15-.05.03-.16ZM13.93,3.8l-.09-.27-.03.16.12.11ZM14.03,4.08l-.09-.27-.03.16.12.11ZM13.94,3.82l.09.27.03-.16-.12-.11ZM13.85,3.53l.09.27.03-.16-.12-.11Z"/>
      <path class="cls-7" d="M16.21,3.1h0s-.9-.51-.9-.51l-.68.78.45,1.76c.42-.11.85-.18,1.28-.21l-.15-1.81h0Z"/>
      <path class="cls-8" d="M14.97,4.68c.44-.11.9-.19,1.35-.23l-.04-.46c-.48.04-.96.12-1.43.24l.11.45h0ZM14.75,3.8c.49-.13,1-.21,1.5-.25l-.04-.45c-.53.04-1.06.13-1.58.26l.11.44Z"/>
      <g>
        <path class="cls-1" d="M17.8,3.1h0s-.8-.65-.8-.65l-.8.65.15,1.81c.21-.02.43-.03.65-.03s.44,0,.65.03l.15-1.81h0Z"/>
        <g id="a">
          <path class="cls-6" d="M16.99,3.91s0,0,0,0c-.02.02-.03.04-.05.06-.02,0-.02.02-.01.03-.02,0-.02.02-.03.04-.02-.03-.04-.04-.07-.03,0-.02-.02-.03-.04-.03-.02,0-.03,0-.04-.01,0,0,0,0-.01,0-.01,0-.02,0-.01,0,.02.04.04.07.07.11,0,0,0,.01,0,.02,0,.01,0,.02.01.03,0,0,0,0,0,0-.02,0-.04,0-.06-.01-.01,0-.02,0-.03-.01,0,0,0,0,0,0,0,.04.01.09.05.13-.02,0-.04,0-.06,0,0,0,0,0,0,0,.01.03.03.05.07.06-.02,0-.03.02-.03.04,0,.02,0,.03-.02.04,0,0,0,0,0,0,.02.02.05.02.08,0-.01.02-.02.05-.02.07.02,0,.03,0,.05,0,0,0,0,.01,0,.03,0,0,0,.02,0,.03,0,0,0,0,0,0,.03,0,.05,0,.08,0,0,.02,0,.04,0,.06,0,0,0,0,.01,0,.01-.02.03-.03.04-.04,0,0,0,.01.01.02,0,0,.01.01.01.03,0,0,0,0,0,0,.01,0,.04-.03.05-.05.02.01.02.02.04.04,0,0,0,0,.01,0,0-.02,0-.04,0-.06.02,0,.05.01.08,0,0,0,0,0,0,0,0,0,0-.02,0-.03,0-.01,0-.02,0-.02.02,0,.03,0,.05,0,0-.02,0-.05-.02-.07.03,0,.05,0,.08,0,0,0,0,0,0,0-.01,0-.02-.02-.02-.04,0-.02-.01-.03-.03-.04.04-.02.06-.04.07-.06,0,0,0,0,0,0-.02,0-.04,0-.06,0,.04-.04.05-.08.05-.13,0,0,0-.01,0,0,0,0-.02.01-.03.01-.02,0-.04,0-.06.01,0,0,0,0,0,0,0-.01,0-.02.01-.03,0,0,0-.01,0-.02.02-.04.04-.07.07-.11,0,0,0-.01-.01,0,0,0,0,0-.01,0,0,0-.02.01-.04.01-.02,0-.03.01-.04.03-.02-.01-.05,0-.07.03,0-.02,0-.04-.03-.04,0-.01,0-.02-.01-.03-.02-.02-.04-.04-.05-.06,0,0,0,0,0,0h0Z"/>
          <g>
            <path class="cls-3" d="M17.21,4.03s-.01,0-.01,0,0,.01,0,.02c0,0,0,0,0,0h0s0,0,0,0c0,0,0-.01,0-.02h0ZM16.79,4.03s.01,0,.01,0,0,.01,0,.02,0,0-.01,0,0-.01,0-.02h0ZM17.17,4.1s0,0,0,0,0,0,0,0,0,0,0,0,0,0,0,0ZM16.83,4.1s0,0,0,0,0,0,0,0,0,0,0,0,0,0,0,0ZM17.19,4.08c-.06,0-.13-.01-.19-.01s-.13,0-.19,0c0,0,0,0,0,0,.06,0,.13,0,.19,0s.12,0,.19.01c0,0,0,0,0,0h0Z"/>
            <path class="cls-3" d="M16.81,4.07c.06,0,.13,0,.19,0,.06,0,.13,0,.19.01v-.02s0,0,0,0c0,0,0-.01,0-.02,0,0,.01-.01.02-.01,0,0,0,0,0,0l.04-.06s-.03.02-.05.02c-.02,0-.03.01-.03.03,0,.01,0,.01-.02,0-.03-.01-.05,0-.05.03,0,.02-.01.02-.01,0,0,0,0-.01,0-.02,0-.02,0-.02-.02-.02-.01,0-.01,0-.01,0,0,0,0-.01,0-.02,0,0,0,0-.01,0-.02-.02-.04-.04-.05-.06-.02.02-.03.04-.05.06,0,0-.01,0-.01,0,0,0,0,.01,0,.02,0,0,0,.01-.01,0-.01,0-.02,0-.02.02,0,0,0,.01,0,.02,0,.02,0,.02-.01,0,0-.02-.03-.04-.06-.03-.01,0-.02,0-.02,0,0-.01,0-.02-.03-.03-.02,0-.03-.01-.05-.02l.04.06s0,0,0,0c0,0,.02,0,.02.01,0,0,0,.02,0,.02,0,0,0,0,0,0h0s0,.01,0,.01ZM17.18,4.15s0,0,0,0c0,0,0,0-.01.01,0,0-.01.01-.02.02,0,0,0,0,0,0s0,0,0,0c0,0,.01-.01.02-.02,0,0,0,0,0,0,0,0-.02,0-.02,0,0,0-.01,0-.02,0,0,0,0,0-.01.01,0,0,0,0,0,0,0,0,0,0,0,0,0,0,0,0,.01-.01,0,0,0,0,0,0,0,0-.02,0-.03,0,0,0,0,0,0,0,0,0,0,0,0,0,0,0,0,0,0,0s0,0,0,0c0,0,0,0,0,0h0s-.01,0-.02,0c0,0,0,0,0,0,0,0,0,0,0,0s0,0,0,0c0,0,0,0,0,0,0,0,0,0,0,0,0,0,0,0,0,0,0,0,0,0,0,0,0,0-.02,0-.03,0,0,0,0,0,0,0,0,0,0,0,0,0s0,0,0,0c0,0,0,0,0,0,0,0,0,0,0,0,0,0,0,0,0,0,0,0,0,0,0,0-.01,0-.02,0-.03,0s-.02,0-.03,0c0,0,0,0,0,0,0,0,0,0,0,0,0,0,0,0,0,0s0,0,0,0c0,0,0,0,0,0s0,0,0,0c0,0,0,0,0,0,0,0-.02,0-.03,0,0,0,0,0,0,0,0,0,0,0,0,0,0,0,0,0,0,0s0,0,0,0c0,0,0,0,0,0,0,0,0,0,0,0,0,0,0,0,0,0,0,0-.01,0-.02,0,0,0,0,0,0,0,0,0,0,0,0,0,0,0,0,0,0,0s0,0,0,0c0,0,0,0,0,0s0,0,0,0c0,0,0,0,0,0,0,0-.02,0-.03,0,0,0,0,0,.01,0,0,0,.01,0,.01.01,0,0,0,0,0,0,0,0,0,0,0,0,0,0,0,0-.01-.01,0,0-.01,0-.02,0h0s-.02,0-.02,0c0,0,0,0,0,0,0,0,.01.01.02.02,0,0,0,0,0,0s0,0,0,0c0,0-.01-.01-.02-.02,0,0,0,0-.01-.01-.02,0-.03-.01-.05-.01-.01,0-.03,0-.04,0,0,0,0,.01.01.02,0,0,.01.01.02.01,0,0,0,0,0,0,0,.01,0,.02.01.03,0,0,0,0,.02.01,0,0-.01-.01-.01-.02,0-.01,0-.02,0-.04,0,0,0,0,0,0,0,0,0,0,0,0,0,.01,0,.02,0,.03,0,0,.01.02.02.03,0,0,0,0,0,0-.01,0-.02-.01-.03-.02,0,0-.01-.02-.02-.03,0,0-.01,0-.02-.01,0,0,0-.01,0-.02,0,.04.02.07.04.1,0,0,.01.02.02.02,0,0,0,0,0,0,0,0,0,0,0,0,0,0,.01,0,.02,0,.01,0,.02.01.02.02,0,0,0,0,0,0,0,0,0,0,0,0,0,0,0-.01-.02-.02,0,0-.02,0-.03-.01-.01,0-.03,0-.04,0,0,0,0,0,.01,0,0,0,.02,0,.03.01,0,0,.01,0,.02,0,0,0,.01,0,.01.01,0,0,0,0,0,0s0,0,0,0c0,0,0,0-.01-.01,0,0-.01,0-.02,0-.01,0-.02,0-.03-.01,0,0-.01,0-.02-.01.02.03.04.05.07.06,0,0,0,0,0,0,0,0,0,0,0,0,0,0,.01,0,.02,0,0,0,.01,0,.02,0,0,0,0,0,0,0,0,0,0,0,0,0,0,0-.01,0-.02,0,0,0,0,0-.01,0,0,0,0,0,0,0-.02,0-.04.02-.04.04,0,0,0,0,0,0,0,0,.02-.01.02-.02,0,0,.02,0,.03,0,0,0,0,0,0,0,0,0,0,0,0,0,0,0-.02,0-.03,0,0,0-.02.01-.03.02,0,.01,0,.02-.02.03,0,0,0,0,.01,0,0,0,.01,0,.02,0,0,0,.02,0,.02,0,0,0,0,0,0,0s0,0,0,0c0,0-.02,0-.02,0,0,0-.01,0-.02,0,.02,0,.04,0,.06,0,0,0,0,0,.01,0,0,0,0,0,.01,0,0,0,.01,0,.02,0,0,0,0,0,0,0,0,0,0,0,0,0,0,0-.01,0-.02,0,0,0,0,0-.01,0,0,0,0,0,0,0,0,0-.01.02-.02.02,0,0,0,.01,0,.02,0,0,.01-.02.02-.03,0,0,.02-.02.03-.02,0,0,0,0,0,0,0,0,0,0,0,0-.01,0-.02.01-.03.02,0,0-.01.02-.02.03,0,0,0,0,0,0,0-.01.02-.02.03-.03.01,0,.02-.01.04-.01,0,0,0,0,0,0s0,0,0,0c0,0-.02,0-.03.01-.01,0-.02.02-.03.03.02,0,.03,0,.05,0,0,0,.02-.01.02-.01,0,0,0,0,0,0,0,0,0,0,0,0,0,0,0,0,0,0s0,0,0,0c0,0,0,0,0,0,0,0,0,0,0,0,0,0,0,0,0,0,0,0-.01.01-.01.02,0,.02,0,.03-.01.05,0,0,.01,0,.01-.01,0,0,0-.01.01-.02,0,0,0-.02.01-.02,0,0,.01-.01.02-.01,0,0,0,0,0,0s0,0,0,0c0,0-.01,0-.02.01,0,0,0,.01-.01.02,0,0,0,.02-.01.02,0,0,0,0-.01.01,0,0,0,0,.01,0,0,0,.02,0,.02,0,0,0,0-.01.01-.02,0,0,0,0,0,0s0,0,0,0c0,0,0,.01-.01.02,0,0-.01,0-.02,0,.01,0,.03,0,.04,0,0,0,0-.01.01-.02,0,0,0,0,0-.01,0,0,0,0,.01-.01,0,0,0,0,0,0,0,0,0,0,0,0,0,0,0,0-.01,0,0,0,0,0,0,.01,0,0,0,.02,0,.03,0,.02,0,.03,0,.05,0,0,0-.01.01-.02,0,0,0,0,0,0,0,0,0-.02,0-.03,0,0,0-.02,0-.03,0,0,0,0,0,0,0,0,0,0,0,0,0,0,0,.02,0,.03,0,0,0,.02,0,.02,0,0,0,0,0,0,0,0,0-.01,0-.02,0,0,0-.01,0-.02,0,0,0,0,0,0s0,0,0,0c0,0,0,.01,0,.02,0,0,0,.01,0,.02,0,0,0,0,.01-.01,0,0,0-.01,0-.02,0,0,0-.01,0-.02,0,0,0,0,0,0s0,0,0,0c0,0,0,0,0,.01,0,0,0,.01,0,.02,0,0,0,.02.01.02,0,0,.01.01.02.02,0-.01,0-.02,0-.03,0-.01,0-.02,0-.03,0,0,0,0,0,0,0,0,0,0,0,0,0,0,0,.02.01.03,0,.01,0,.03,0,.04,0,0,.03-.02.03-.05,0,0,0,0,0,0,0,0,0,0,0,0s0,0,0,0c0,0,0,0,0,0,0,0,0,0,0,0,0,0,0,0,0,0,0,0,0,0,0,0,0,0,0-.01,0-.01,0,0,0-.01,0-.02,0,0,0,0,0,0s0,0,0,0c0,0,0,.01,0,.02,0,0,0,.01,0,.02,0,0,0,0,0,0,0,0,0,0,0,0,0,0,0-.01,0-.02,0,0,0-.02,0-.03,0,0,0,0,0,0s0,0,0,0c0,0,0,.02,0,.03,0,0,0,.02,0,.03,0,0,0,0,0,0,0,0,0,.01.01.02,0-.02,0-.03,0-.05,0,0,0-.02,0-.03,0,0,0,0,0-.01,0,0,0,0-.01,0,0,0,0,0,0,0,0,0,0,0,0,0,0,0,0,0,.01.01,0,0,0,0,0,.01,0,0,0,.02.01.02.01,0,.03,0,.04,0,0,0-.01,0-.02,0,0,0-.01-.01-.01-.02,0,0,0,0,0,0s0,0,0,0c0,0,0,.01.01.02,0,0,.02.01.03.01,0,0,0,0-.01-.01,0,0,0-.01-.01-.02,0,0,0-.02-.01-.02,0,0-.01-.01-.02-.01,0,0,0,0,0,0,0,0,0,0,0,0,0,0,.02,0,.02.01,0,0,.01.01.01.02,0,0,0,.01.01.02,0,0,0,0,.01.01,0-.02,0-.03-.01-.05,0-.01-.02-.02-.02-.03,0,0,.01,0,.02.01.01,0,.03,0,.05,0-.01-.01-.02-.02-.03-.03,0,0-.02-.01-.03-.01,0,0,0,0,0,0,0,0,0,0,0,0,.01,0,.02,0,.03.01,0,0,.02.01.03.03,0,0,0,0,0,0,0-.01-.01-.02-.02-.03,0,0-.02-.02-.03-.02,0,0,0,0,0,0,0,0,0,0,0,0,.01,0,.02.01.03.02,0,0,.01.02.02.03,0,0,0-.01,0-.02,0,0,0-.02-.02-.02,0,0-.02-.01-.02-.02,0,0,0,0,0,0,0,0-.01,0-.01,0,0,0,0,0,0,0,0,0,0,0,0,0,0,0,0,0,.02,0,0,0,0,0,0,0,0,0,.01,0,.02,0,.02,0,.04.01.06,0,0,0-.01,0-.02,0,0,0-.01,0-.02,0,0,0,0,0,0,0s0,0,0,0c0,0,.02,0,.02,0,0,0,.01,0,.02,0,0,0,0,0,.01,0-.01,0-.02-.02-.02-.03h0s-.02-.02-.03-.02c0,0-.02,0-.03,0,0,0,0,0,0,0,0,0,0,0,0,0,.01,0,.02,0,.03,0,0,0,.02.01.02.02,0,0,0,0,0,0,0-.02-.02-.04-.04-.04,0,0-.02,0-.02,0,0,0,0,0,.02,0,.03,0,.05-.02.07-.06,0,0,0,0-.02.01,0,0-.02,0-.03.01,0,0-.01,0-.02,0,0,0,0,0-.01.01,0,0,0,0,0,0s0,0,0,0c0,0,0,0,.01-.01,0,0,.01,0,.02,0,.01,0,.02,0,.03-.01,0,0,0,0,.01,0-.01,0-.03,0-.04,0-.01,0-.02,0-.03.01,0,0-.02.01-.02.02,0,0,0,0,0,0,0,0,0,0,0,0,0,0,0-.02.02-.02,0,0,.01,0,.02,0,0,0,0,0,0,0,0,0,0,0,0,0,0,0,.02-.01.02-.02.02-.03.03-.06.04-.09,0,0,0,.01,0,.02,0,0-.01.01-.02.01,0,.01,0,.02-.02.03,0,0-.02.02-.03.02,0,0,0,0,0,0,.01,0,.02-.02.02-.03,0-.01,0-.02,0-.03,0,0,0,0,0,0,0,0,0,0,0,0,0,.01,0,.02,0,.04,0,0,0,.01-.01.02,0,0,.01,0,.02-.01,0,0,.01-.02.01-.03,0,0,0,0,0,0,0,0,.01,0,.02-.01,0,0,0-.01.01-.02-.01,0-.03,0-.04,0-.02,0-.03,0-.05.01h0Z"/>
            <path class="cls-3" d="M17.17,4.13c-.06,0-.11,0-.17,0-.06,0-.11,0-.17,0,0,0,0,0,0,0,0,0,0,0,.01,0,.05,0,.11,0,.16,0s.11,0,.17,0c0,0,0,0,0,0h0Z"/>
            <path class="cls-4" d="M16.83,4.12c.06,0,.11,0,.17,0s.11,0,.17.01h0s0,0,0,0c0,0-.01,0-.01-.01s0-.01.01-.01c0,0,0,0,0,0h0c-.06-.02-.12-.02-.18-.02s-.12,0-.18,0h0s0,0,0,0c0,0,.01,0,.01.01s0,.01-.01.01c0,0,0,0,0,0h0s0,0,0,0h0ZM17.09,4.09s-.01,0-.01.01,0,.01.01.01.01,0,.01-.01,0-.01-.01-.01ZM17.09,4.1s0,0,0,0,0,0,0,0,0,0,0,0,0,0,0,0ZM17,4.09s-.01,0-.01.01,0,.01.01.01.01,0,.01-.01,0-.01-.01-.01ZM17,4.09s0,0,0,0,0,0,0,0,0,0,0,0,0,0,0,0ZM16.91,4.09s-.01,0-.01.01,0,.01.01.01.01,0,.01-.01,0-.01-.01-.01ZM16.91,4.1s0,0,0,0,0,0,0,0,0,0,0,0,0,0,0,0Z"/>
          </g>
          <path class="cls-6" d="M17,4.03s0-.01,0-.01c0,0,0,0-.02,0,0,0,0,0,0,0,0,0,0,0,.01-.01,0,0,0-.01,0-.02,0,0,0,0,0,0,0,0,0,.01,0,.02,0,0,.01,0,.02.01,0,0,0,0,0,0,0,0,0,0-.01,0,0,0,0,.01,0,.02,0,0,0,0,0,0h0ZM17,4.02s0,0,0-.01c0,0,0,0,0,0,0,0,0,0-.01-.01,0,0,0,0,0,0,0,0,0,0,0,.01,0,0,0,0,0,0,0,0,0,0,.01,0,0,0,0,0,0,0ZM17.07,4.44l-.04.02s0,0,0,0c0,0,0,0,0,0l.04-.02s0,0,0,0c0,0,0,0,0,0ZM17.07,4.42l-.05.03s0,0,0,0,0,0,0,0l.05-.03s0,0,0,0,0,0,0,0ZM16.92,4.41l.05.03s0,0,0,0,0,0,0,0l-.05-.03s0,0,0,0,0,0,0,0ZM16.93,4.44l.04.02s0,0,0,0c0,0,0,0,0,0l-.04-.02s0,0,0,0c0,0,0,0,0,0h0ZM16.94,4.48s.02,0,.03,0c0,0,.01,0,.02-.01v-.04s-.02,0-.03,0c0,0-.01,0-.02-.01,0,0,0-.02,0-.03,0,0,0,0,0,0s0,0,0,0c0,0,0,.02,0,.02,0,0,0,0,.01.01,0,0,.02,0,.03,0s.02,0,.03,0c0,0,.01,0,.02-.01s0,0,0-.01c0,0,0,0,0,0,0,0,0,0-.01,0,0,0,0,0-.01,0,0,0,0,0,0,0,0,0,0,0,0,0s0,0,0,0c0,0,0,0,0,0,0,0,0,0,.01,0,0,0,.01,0,.01,0,0,0,0,0,0,.01,0,0,0,.01,0,.02,0,0-.01,0-.02.01,0,0-.01,0-.02,0v.04s0,0,0,0c0,0,0,.01.02.01,0,0,.02,0,.03,0,0,0,0,0,0,0,0,0,0,0,0,0-.01,0-.02,0-.03,0,0,0-.01,0-.02-.01,0,0-.01,0-.02.01,0,0-.02,0-.03,0,0,0,0,0,0,0,0,0,0,0,0,0h0ZM16.97,4.49h.03s0,0,0,0c0,0,0,0,0,0h-.03s0,0,0,0,0,0,0,0ZM17.02,4.23s.02-.02.04-.02c.01,0,.02,0,.03,0,0,0,0,0,0,0,0,0,0,0,0,0,0,0-.02,0-.03,0-.01,0-.02.01-.03.02,0,0,0,0,0,0s0,0,0,0h0ZM16.97,4.24s-.03-.02-.04-.03c-.01,0-.02,0-.03,0,0,0,0,0,0,0,0,0,0,0,0,0,0,0,.02,0,.03,0,.01,0,.03.02.04.03,0,0,0,0,0,0,0,0,0,0,0,0h0ZM16.95,4.32s0-.01.01-.02c0,0,0,0,.01-.01,0,0,0,0,0,0,0,0,0,0,0,0,0,0,0,0-.01.01,0,0,0,.01-.01.02,0,0,0,0,0,0s0,0,0,0ZM16.99,4.18s0,.01,0,.02c0,0,0,.01,0,.02,0,0,0,.01,0,.02,0,0,0,.01,0,.02,0,0,0,0-.01,0,0,0,0,0-.01,0,0,0,0,.02,0,.03,0,0,0,0,0,0,0,0,0,0-.01,0s0,0-.01,0h0s-.01,0-.02,0c0,0,0,0-.01-.01h0s0,0,0-.01c0,0,0,0,0-.01,0,0-.01,0-.02,0,0,0,0,0-.01-.01,0,0,0,0,0,0s0,0,0,0c0,0,0,0,.01.01,0,0,.01,0,.02.01.01,0,.02,0,.03,0,0,0,.02,0,.03.02,0,0,0,0,0,0,0,0,0,0,0,0,0,0,0,0,.01,0,0,0,0,0,.01,0,0,0,0-.01,0-.02,0,0,0-.01,0-.02h0s0-.02,0-.02c0,0,0-.01,0-.02,0,0,0,0,0,0s0,0,0,0h0ZM16.95,4.27s-.02-.01-.03-.02c0,0-.02,0-.03,0,0,0,0,0,0,.01,0,0,0,0,0,.01h0s0,0,.01,0c0,0,.01,0,.02,0h0s0,0,.01,0c0,0,0,0,0,0,0,0,0-.02,0-.02,0,0,0,0,0,0h0ZM17.02,4.18s0,.01,0,.02c0,0,0,.01,0,.02h0s0,.01,0,.02c0,0,0,.01,0,.02,0,0,0,0,.01,0,0,0,0,0,.01,0,0,0,0,0,0,0,0,0,0,0,0,0,0,0,.02-.01.03-.02.01,0,.02,0,.03,0,0,0,.01,0,.02-.01s0,0,.01-.01c0,0,0,0,0,0s0,0,0,0c0,0,0,0-.01.01,0,0-.01,0-.02,0,0,0,0,0,0,.01,0,0,0,.01,0,.01h0s0,0-.01.01c0,0-.01,0-.02,0h0s0,0-.01,0c0,0,0,0-.01,0,0,0,0,0,0,0,0,0,0-.02,0-.03,0,0,0,0-.01,0,0,0-.01,0-.01,0,0,0,0-.01,0-.02,0,0,0-.01,0-.02,0,0,0-.02,0-.02,0,0,0-.01,0-.02,0,0,0,0,0,0,0,0,0,0,0,0h0ZM17.1,4.24s-.02,0-.03,0c0,0-.02,0-.03.02,0,0,0,0,0,0,0,0,0,.02,0,.02,0,0,0,0,0,0,0,0,0,0,.01,0h0s.01,0,.02,0c0,0,0,0,.01,0h0s0,0,0-.01c0,0,0,0,0-.01h0Z"/>
          <path class="cls-5" d="M17.07,4.25s-.02,0-.02.02,0,.02.02.02.02,0,.02-.02,0-.02-.02-.02ZM17.07,4.25s-.01,0-.01.01,0,.01.01.01.01,0,.01-.01,0-.01-.01-.01ZM17.07,4.26s0,0,0,0,0,0,0,0,0,0,0,0,0,0,0,0ZM16.93,4.25s.02,0,.02.02,0,.02-.02.02-.02,0-.02-.02,0-.02.02-.02ZM16.93,4.25s.01,0,.01.01,0,.01-.01.01-.01,0-.01-.01,0-.01.01-.01ZM16.93,4.26s0,0,0,0,0,0,0,0,0,0,0,0,0,0,0,0Z"/>
        </g>
        <g id="a-2" data-name="a">
          <path class="cls-6" d="M16.63,3.09s0,0,0,0c-.01.02-.03.04-.04.06-.02,0-.02.02-.01.03-.02,0-.02.02-.02.04-.02-.03-.05-.04-.07-.02,0-.02-.02-.03-.04-.03-.02,0-.03,0-.04-.01,0,0,0,0-.01,0-.01,0-.02,0-.01,0,.02.04.05.07.07.11,0,0,0,.01,0,.02,0,.01,0,.02.01.03,0,0,0,0,0,0-.02,0-.04,0-.06,0-.01,0-.02,0-.03-.01,0,0,0,0,0,0,0,.04.02.08.05.12-.02,0-.04,0-.06,0,0,0,0,0,0,0,.01.03.03.05.07.06-.02.01-.03.02-.03.04,0,.02,0,.03-.02.04,0,0,0,0,0,0,.02.01.05.01.08,0-.01.02-.02.05-.01.07.02,0,.03,0,.05,0,0,0,0,.01,0,.03,0,0,0,.02,0,.03,0,0,0,0,0,0,.03,0,.05,0,.08,0,0,.02,0,.04,0,.06,0,0,0,0,.01,0,.01-.02.03-.03.04-.05,0,0,0,.01.01.02,0,0,.01.01.01.03,0,0,0,0,0,0,.01,0,.04-.03.05-.05.02,0,.02.02.04.04,0,0,0,0,.01,0,0-.02,0-.04,0-.06.02,0,.05,0,.08,0,0,0,0,0,0,0,0,0,0-.02-.01-.03,0-.01,0-.02,0-.02.02,0,.03,0,.05,0,0-.02,0-.05-.02-.07.03,0,.06,0,.08-.01,0,0,0,0,0,0-.01,0-.02-.02-.02-.04,0-.02-.01-.03-.03-.04.04-.02.06-.04.07-.07,0,0,0,0,0,0-.02,0-.04,0-.06,0,.04-.04.05-.08.05-.13,0,0,0-.01,0,0,0,0-.01.01-.03.01-.02,0-.04,0-.05.01,0,0,0,0,0,0,0-.01,0-.02.01-.03,0,0,0-.01,0-.02.02-.04.04-.07.06-.11,0,0,0-.01-.01,0,0,0,0,0-.01,0,0,0-.02.01-.04.01-.02,0-.03.02-.03.03-.03-.01-.05,0-.07.03,0-.02,0-.04-.03-.04,0-.01,0-.02-.02-.03-.02-.02-.04-.04-.06-.06,0,0,0,0,0,0h0Z"/>
          <g>
            <path class="cls-3" d="M16.85,3.2s-.01,0-.01,0,0,.01,0,.02c0,0,0,0,0,0h0s0,0,0,0c0,0,0-.01,0-.02h0ZM16.43,3.22s.01,0,.01,0,0,.01,0,.02,0,0-.01,0,0-.01,0-.02h0ZM16.81,3.28s0,0,0,0,0,0,0,0,0,0,0,0,0,0,0,0ZM16.47,3.29s0,0,0,0,0,0,0,0,0,0,0,0,0,0,0,0ZM16.83,3.25c-.06,0-.13,0-.19,0s-.13,0-.19.02c0,0,0,0,0,0,.06,0,.13-.01.19-.02s.12,0,.19,0c0,0,0,0,0,0h0Z"/>
            <path class="cls-3" d="M16.45,3.26c.06,0,.13-.01.19-.02.06,0,.13,0,.19,0v-.02s0,0,0,0c0,0,0-.01,0-.02,0,0,.01-.02.02-.01,0,0,0,0,0,0l.04-.06s-.03.02-.05.02c-.02,0-.03.01-.03.03,0,.01,0,.01-.02,0-.03-.01-.05,0-.05.03,0,.02-.01.02-.01,0,0,0,0-.01,0-.02,0-.02,0-.02-.02-.02-.01,0-.01,0-.01,0,0,0,0-.01,0-.02,0,0,0,0-.01,0-.02-.02-.04-.04-.06-.06-.01.02-.03.04-.04.06,0,0-.01,0-.01,0,0,0,0,.01,0,.02,0,0,0,.01-.01,0-.01,0-.02,0-.02.02,0,0,0,.01,0,.02,0,.02,0,.02-.01,0-.01-.02-.03-.04-.06-.03-.01,0-.02,0-.02,0,0-.01,0-.02-.03-.02-.02,0-.03,0-.05-.02l.04.06s0,0,0,0c0,0,.02,0,.02.01,0,0,0,.02,0,.02,0,0,0,0,0,0h0s0,.01,0,.01ZM16.82,3.32s0,0,0,0c0,0,0,0-.01.01,0,0-.01.01-.02.02,0,0,0,0,0,0s0,0,0,0c0,0,.01-.01.02-.02,0,0,0,0,0,0,0,0-.02,0-.02,0,0,0-.01,0-.02,0,0,0,0,0-.01.01,0,0,0,0,0,0,0,0,0,0,0,0,0,0,0,0,.01-.01,0,0,0,0,0,0,0,0-.02,0-.03,0,0,0,0,0,0,0,0,0,0,0,0,0,0,0,0,0,0,0s0,0,0,0c0,0,0,0,0,0h0s-.01,0-.02,0c0,0,0,0,0,0,0,0,0,0,0,0s0,0,0,0c0,0,0,0,0,0,0,0,0,0,0,0,0,0,0,0,0,0,0,0,0,0,0,0,0,0-.02,0-.03,0,0,0,0,0,0,0,0,0,0,0,0,0s0,0,0,0c0,0,0,0,0,0,0,0,0,0,0,0,0,0,0,0,0,0,0,0,0,0,0,0-.01,0-.02,0-.03,0s-.02,0-.03,0c0,0,0,0,0,0,0,0,0,0,0,0,0,0,0,0,0,0s0,0,0,0c0,0,0,0,0,0s0,0,0,0c0,0,0,0,0,0,0,0-.02,0-.03,0,0,0,0,0,0,0,0,0,0,0,0,0,0,0,0,0,0,0s0,0,0,0c0,0,0,0,0,0,0,0,0,0,0,0,0,0,0,0,0,0,0,0-.01,0-.02,0,0,0,0,0,0,0,0,0,0,0,0,0,0,0,0,0,0,0s0,0,0,0c0,0,0,0,0,0s0,0,0,0c0,0,0,0,0,0,0,0-.02,0-.03,0,0,0,0,0,.01,0,0,0,.01,0,.01.01,0,0,0,0,0,0,0,0,0,0,0,0,0,0,0,0-.01-.01,0,0-.01,0-.02,0h0s-.01,0-.02,0c0,0,0,0,0,0,0,0,.01,0,.02.01,0,0,0,0,0,0s0,0,0,0c0,0-.01-.01-.02-.02,0,0,0,0-.01-.01-.02,0-.03,0-.05-.01-.01,0-.03,0-.04,0,0,0,0,.01.01.02,0,0,.01,0,.02.01,0,0,0,0,0,0,0,.01,0,.02.02.03,0,0,0,0,.02.01,0,0-.01-.01-.02-.02,0-.01,0-.02,0-.03,0,0,0,0,0,0,0,0,0,0,0,0,0,.01,0,.02,0,.03,0,0,.01.02.03.03,0,0,0,0,0,0-.01,0-.02,0-.03-.02,0,0-.01-.02-.02-.03,0,0-.01,0-.02-.01,0,0,0-.01-.01-.02,0,.04.02.07.04.09,0,0,.01.01.02.02,0,0,0,0,0,0,0,0,0,0,0,0,0,0,.01,0,.02,0,.01,0,.02.01.02.02,0,0,0,0,0,0,0,0,0,0,0,0,0,0,0-.01-.02-.02,0,0-.02,0-.03-.01-.01,0-.03,0-.04,0,0,0,0,0,.01,0,0,0,.02,0,.03,0,0,0,.01,0,.02,0,0,0,.01,0,.02.01,0,0,0,0,0,0s0,0,0,0c0,0,0,0-.01-.01,0,0-.01,0-.02,0-.01,0-.02,0-.03,0,0,0-.01,0-.02,0,.02.03.04.05.07.06,0,0,0,0,0,0,0,0,0,0,0,0,0,0,.01,0,.02,0,0,0,.01,0,.02,0,0,0,0,0,0,0,0,0,0,0,0,0,0,0-.01,0-.02,0,0,0,0,0-.01,0,0,0,0,0,0,0-.02,0-.03.02-.03.04,0,0,0,0,0,0,0,0,.01-.01.02-.02,0,0,.02,0,.03,0,0,0,0,0,0,0,0,0,0,0,0,0,0,0-.02,0-.03,0,0,0-.02.01-.03.02,0,.01,0,.02-.02.03,0,0,0,0,.01,0,0,0,.01,0,.02,0,0,0,.02,0,.02,0,0,0,0,0,0,0s0,0,0,0c0,0-.01,0-.02,0,0,0-.01,0-.02,0,.02,0,.04,0,.06,0,0,0,0,0,.01,0,0,0,0,0,.01,0,0,0,.01,0,.02,0,0,0,0,0,0,0,0,0,0,0,0,0,0,0-.01,0-.02,0,0,0,0,0-.01,0,0,0,0,0,0,0,0,0-.01.02-.01.02,0,0,0,.01,0,.02,0,0,0-.02.02-.03,0,0,.02-.02.03-.02,0,0,0,0,0,0,0,0,0,0,0,0-.01,0-.02.01-.03.02,0,0-.01.02-.02.03,0,0,0,0,0,0,0-.01.02-.02.03-.03.01,0,.02-.01.03-.01,0,0,0,0,0,0s0,0,0,0c0,0-.02,0-.03.01,0,0-.02.02-.03.03.02,0,.03,0,.05,0,0,0,.01-.01.02-.01,0,0,0,0,0,0,0,0,0,0,0,0,0,0,0,0,0,0s0,0,0,0c0,0,0,0,0,0,0,0,0,0,0,0,0,0,0,0,0,0,0,0-.01.01-.01.02,0,.02,0,.03,0,.05,0,0,.01,0,.01-.01,0,0,0-.01.01-.02,0,0,0-.02.01-.02,0,0,.01-.01.02-.02,0,0,0,0,0,0s0,0,0,0c0,0-.01,0-.02.01,0,0,0,.01-.01.02,0,0,0,.02-.01.02,0,0,0,0-.01.01,0,0,0,0,.01,0,0,0,.02,0,.02-.01,0,0,0-.01.01-.02,0,0,0,0,0,0s0,0,0,0c0,0,0,.01-.01.02,0,0,0,0-.02,0,.01,0,.03,0,.04,0,0,0,0-.01,0-.02,0,0,0,0,0-.01,0,0,0,0,.01-.01,0,0,0,0,0,0,0,0,0,0,0,0,0,0,0,0-.01,0,0,0,0,0,0,.01,0,0,0,.02,0,.03,0,.02,0,.03,0,.05,0,0,0-.01.01-.02,0,0,0,0,0,0,0,0,0-.02,0-.03,0,0,0-.02,0-.03,0,0,0,0,0,0,0,0,0,0,0,0,0,0,0,.02,0,.03,0,0,0,.02,0,.02,0,0,0,0,0,0,0,0,0-.01,0-.02,0,0,0-.01,0-.02,0,0,0,0,0,0s0,0,0,0c0,0,0,.01,0,.02,0,0,0,.01,0,.02,0,0,0,0,.01-.01,0,0,0-.01,0-.02,0,0,0-.01,0-.02,0,0,0,0,0,0s0,0,0,0c0,0,0,0,0,.01,0,0,0,.01,0,.02,0,0,0,.02.01.02,0,0,.01.01.02.02,0-.01,0-.02,0-.03,0-.01,0-.02-.01-.03,0,0,0,0,0,0,0,0,0,0,0,0,0,0,0,.02.01.03,0,.01,0,.03,0,.04,0,0,.03-.02.03-.05,0,0,0,0,0,0,0,0,0,0,0,0s0,0,0,0c0,0,0,0,0,0,0,0,0,0,0,0,0,0,0,0,0,0,0,0,0,0,0,0,0,0,0,0,0-.01,0,0,0-.01,0-.02,0,0,0,0,0,0s0,0,0,0c0,0,0,.01,0,.02,0,0,0,.01,0,.02,0,0,0,0,0,0,0,0,0,0,0,0,0,0,0-.01,0-.02,0,0,0-.02,0-.03,0,0,0,0,0,0s0,0,0,0c0,0,0,.02,0,.03,0,0,0,.02,0,.03,0,0,0,0,0,0,0,0,0,0,.01.02,0-.02,0-.03,0-.05,0,0,0-.02,0-.03,0,0,0,0,0-.01,0,0,0,0-.01,0,0,0,0,0,0,0,0,0,0,0,0,0,0,0,.01,0,.01.01,0,0,0,0,0,.01,0,0,0,.01.01.02.01,0,.03,0,.04,0,0,0-.01,0-.02,0,0,0-.01-.01-.02-.02,0,0,0,0,0,0s0,0,0,0c0,0,0,.01.01.02,0,0,.02,0,.03,0,0,0,0,0-.01-.01,0,0,0-.01-.01-.02,0,0,0-.01-.01-.02,0,0-.01,0-.02-.01,0,0,0,0,0,0,0,0,0,0,0,0,0,0,.02,0,.02.01,0,0,.01.01.01.02,0,0,0,.01.01.02,0,0,0,0,.02.01,0-.02,0-.03-.01-.05,0-.01-.02-.02-.02-.03,0,0,.01,0,.02,0,.01,0,.03,0,.05,0-.01-.01-.02-.02-.03-.03-.01,0-.02-.01-.03,0,0,0,0,0,0,0,0,0,0,0,0,0,.01,0,.02,0,.03,0,0,0,.02.01.03.02,0,0,0,0,0,0,0-.01-.01-.02-.02-.03,0,0-.02-.02-.03-.02,0,0,0,0,0,0,0,0,0,0,0,0,.01,0,.02.01.03.02,0,0,.01.02.02.03,0,0,0-.01,0-.02,0,0,0-.02-.02-.02,0,0-.02-.01-.02-.01,0,0,0,0,0,0,0,0-.01,0-.01,0,0,0,0,0,0,0,0,0,0,0,0,0,0,0,0,0,.02,0,0,0,0,0,0,0,0,0,.01,0,.02,0,.02,0,.04,0,.06,0,0,0-.01,0-.02,0,0,0-.01,0-.02,0,0,0,0,0,0,0s0,0,0,0c0,0,.02,0,.02,0,0,0,.01,0,.02,0,0,0,0,0,.01,0-.01,0-.02-.02-.02-.03h0s-.02-.02-.03-.02c0,0-.02,0-.03,0,0,0,0,0,0,0,0,0,0,0,0,0,.01,0,.02,0,.03,0,0,0,.02.01.02.02,0,0,0,0,0,0,0-.02-.02-.04-.04-.04,0,0-.02,0-.02,0,0,0,0,0,.02,0,.03-.01.05-.03.07-.06,0,0,0,0-.02.01,0,0-.02,0-.03.01,0,0-.01,0-.02,0,0,0,0,0-.01.01,0,0,0,0,0,0s0,0,0,0c0,0,0,0,.01-.01,0,0,.01,0,.02,0,.01,0,.02,0,.03-.01,0,0,0,0,.01,0-.01,0-.03,0-.04,0-.01,0-.02,0-.03.01,0,0-.02.01-.02.02,0,0,0,0,0,0,0,0,0,0,0,0,0,0,0-.02.02-.02,0,0,.01,0,.02,0,0,0,0,0,0,0,0,0,0,0,0,0,0,0,.02-.01.02-.02.02-.03.03-.06.03-.1,0,0,0,.01,0,.02,0,0-.01.01-.02.01,0,.01,0,.02-.01.03,0,0-.02.02-.03.02,0,0,0,0,0,0,.01,0,.02-.02.02-.03,0-.01,0-.02,0-.03,0,0,0,0,0,0,0,0,0,0,0,0,0,.01,0,.02,0,.04,0,0,0,.01-.01.02,0,0,.01,0,.02-.01,0,0,.01-.02.01-.03,0,0,0,0,0,0,0,0,.01,0,.02-.01,0,0,0-.01,0-.02-.01,0-.03,0-.04,0-.02,0-.03,0-.05.01h0Z"/>
            <path class="cls-3" d="M16.81,3.31c-.06,0-.11,0-.17,0-.06,0-.11,0-.17.02,0,0,0,0,0,0,0,0,0,0,.01,0,.05,0,.11-.01.16-.01s.11,0,.17,0c0,0,0,0,0,0h0Z"/>
            <path class="cls-4" d="M16.47,3.32c.06,0,.11-.01.17-.02s.11,0,.17,0h0s0,0,0,0c0,0-.01,0-.01,0s0-.01,0-.01c0,0,0,0,0,0h0c-.06-.02-.12-.02-.18-.02s-.12,0-.18.02h0s0,0,0,0c0,0,.01,0,.01,0s0,.01,0,.01c0,0,0,0,0,0h0s0,0,0,0h0ZM16.73,3.27s-.01,0,0,.01,0,.01.01,0,.01,0,0-.01,0-.01-.01,0ZM16.73,3.28s0,0,0,0,0,0,0,0,0,0,0,0,0,0,0,0ZM16.64,3.27s-.01,0,0,.01,0,.01.01,0,.01,0,0-.01,0-.01-.01,0ZM16.64,3.28s0,0,0,0,0,0,0,0,0,0,0,0,0,0,0,0ZM16.55,3.28s-.01,0,0,.01,0,.01.01,0,.01,0,0-.01,0-.01-.01,0ZM16.55,3.28s0,0,0,0,0,0,0,0,0,0,0,0,0,0,0,0Z"/>
          </g>
          <path class="cls-6" d="M16.64,3.21s0-.01,0-.01c0,0,0,0-.02,0,0,0,0,0,0,0,0,0,0,0,.01-.01,0,0,0-.01,0-.02,0,0,0,0,0,0,0,0,0,.01,0,.02,0,0,.01,0,.02.01,0,0,0,0,0,0,0,0,0,0-.01,0,0,0,0,.01,0,.02,0,0,0,0,0,0h0ZM16.64,3.2s0,0,0-.01c0,0,0,0,0,0,0,0,0,0-.01,0,0,0,0,0,0,0,0,0,0,0,0,.01,0,0,0,0,0,.01,0,0,0,0,.01,0,0,0,0,0,0,0ZM16.72,3.63l-.04.02s0,0,0,0c0,0,0,0,0,0l.04-.02s0,0,0,0c0,0,0,0,0,0ZM16.73,3.6l-.05.03s0,0,0,0,0,0,0,0l.05-.03s0,0,0,0,0,0,0,0ZM16.58,3.6l.05.03s0,0,0,0,0,0,0,0l-.05-.03s0,0,0,0,0,0,0,0ZM16.58,3.63l.04.02s0,0,0,0c0,0,0,0,0,0l-.04-.02s0,0,0,0c0,0,0,0,0,0h0ZM16.6,3.66s.02,0,.03,0c0,0,.01,0,.02-.01v-.04s-.02,0-.03,0c0,0-.01,0-.02-.01,0,0,0-.02,0-.03,0,0,0,0,0,0s0,0,0,0c0,0,0,.02,0,.02,0,0,0,0,.01.01,0,0,.02,0,.03,0s.02,0,.03,0c0,0,.01,0,.02-.01s0-.01,0-.01c0,0,0,0,0,0,0,0,0,0-.01,0,0,0,0,0-.01,0,0,0,0,0,0,0,0,0,0,0,0,0s0,0,0,0c0,0,0,0,0,0,0,0,0,0,.01,0,0,0,.01,0,.01,0,0,0,0,0,0,.01,0,0,0,.01,0,.02,0,0-.01.01-.02.01,0,0-.01,0-.02,0v.04s0,0,0,0c0,0,0,.01.02.01,0,0,.02,0,.03,0,0,0,0,0,0,0,0,0,0,0,0,0-.01,0-.02,0-.03,0,0,0-.01,0-.02-.01,0,0-.01.01-.02.01,0,0-.02,0-.03,0,0,0,0,0,0,0,0,0,0,0,0,0h0ZM16.63,3.68h.03s0,0,0,0c0,0,0,0,0,0h-.03s0,0,0,0,0,0,0,0ZM16.67,3.42s.02-.02.03-.03c.01,0,.02-.01.03-.01,0,0,0,0,0,0,0,0,0,0,0,0,0,0-.02,0-.03,0-.01,0-.02.01-.03.03,0,0,0,0,0,0s0,0,0,0h0ZM16.62,3.43s-.03-.02-.04-.02c-.01,0-.02,0-.03,0,0,0,0,0,0,0,0,0,0,0,0,0,0,0,.02,0,.03,0,.01,0,.03.02.04.03,0,0,0,0,0,0,0,0,0,0,0,0h0ZM16.61,3.51s0-.01.01-.02c0,0,0-.01.01-.01,0,0,0,0,0,0,0,0,0,0,0,0,0,0,0,0-.01.01,0,0,0,.01,0,.02,0,0,0,0,0,0s0,0,0,0ZM16.63,3.36s0,.01.01.02c0,0,0,.01,0,.02,0,0,0,.01,0,.02,0,0,0,.01,0,.02,0,0,0,0-.01,0,0,0,0,0-.01,0,0,0,0,.02,0,.03,0,0,0,0,0,0,0,0,0,0-.01,0s0,0-.01,0h0s-.01,0-.02,0c0,0,0,0-.01,0h0s0,0,0-.01c0,0,0,0,0-.01,0,0-.01,0-.02,0,0,0-.01,0-.01-.01,0,0,0,0,0,0s0,0,0,0c0,0,0,0,.01,0,0,0,.01,0,.02,0,.01,0,.02,0,.03,0,0,0,.02,0,.03.02,0,0,0,0,0,0,0,0,0,0,0,0,0,0,0,0,.01,0,0,0,0,0,0,0,0,0,0-.01,0-.02,0,0,0-.01,0-.02h0s0-.02,0-.02c0,0,0-.01,0-.02,0,0,0,0,0,0s0,0,0,0h0ZM16.6,3.45s-.02-.01-.03-.01c0,0-.02,0-.03,0,0,0,0,0,0,.01,0,0,0,0,0,.01h0s0,0,.01,0c0,0,.01,0,.02,0h0s0,0,.01,0c0,0,0,0,0,0,0,0,0-.01,0-.02,0,0,0,0,0,0h0ZM16.67,3.37s0,.01,0,.02c0,0,0,.01,0,.02h0s0,.01,0,.02c0,0,0,.01,0,.02,0,0,0,0,.01,0,0,0,0,0,.01,0,0,0,0,0,0,0,0,0,0,0,0,0,0,0,.02-.01.03-.02.01,0,.02,0,.03-.01,0,0,.01,0,.02-.01s0,0,.01-.01c0,0,0,0,0,0s0,0,0,0c0,0,0,0-.01.01,0,0,0,0-.02.01,0,0,0,.01,0,.01,0,0,0,.01,0,.01h0s0,0-.01.01c0,0-.01,0-.02.01h0s0,0-.01,0c0,0,0,0-.01,0,0,0,0,0,0,0,0,0,0-.02,0-.03,0,0,0,0-.01,0,0,0-.01,0-.01,0,0,0,0-.01,0-.02,0,0,0-.01,0-.02,0,0,0-.02,0-.02,0,0,0-.01,0-.02,0,0,0,0,0,0,0,0,0,0,0,0h0ZM16.75,3.42s-.02,0-.03,0c0,0-.02.01-.03.02,0,0,0,0,0,0,0,0,0,.02,0,.02,0,0,0,0,0,0,0,0,0,0,.01,0h0s.01,0,.02,0c0,0,0,0,.01,0h0s0,0,0-.01c0,0,0,0,0-.01h0Z"/>
          <path class="cls-5" d="M16.72,3.43s-.02,0-.02.02,0,.02.02.02.02,0,.02-.02,0-.02-.02-.02ZM16.72,3.43s-.01,0-.01.01,0,.01.01.01.01,0,.01-.01,0-.01-.01-.01ZM16.72,3.44s0,0,0,0,0,0,0,0,0,0,0,0,0,0,0,0ZM16.58,3.43s.02,0,.02.02,0,.02-.02.02-.02,0-.02-.02,0-.02.02-.02ZM16.58,3.44s.01,0,.01.01,0,.01-.01.01-.01,0-.01-.01,0-.01.01-.01ZM16.58,3.44s0,0,0,0,0,0,0,0,0,0,0,0,0,0,0,0Z"/>
        </g>
        <g id="a-3" data-name="a">
          <path class="cls-6" d="M17.36,3.09s0,0,0,0c-.02.02-.03.04-.05.06-.02,0-.02.01-.02.03-.02,0-.03.02-.03.04-.02-.03-.04-.04-.07-.03,0-.02-.01-.03-.04-.03-.02,0-.03,0-.04-.01,0,0,0,0-.01,0-.01,0-.02,0-.01,0,.02.04.04.07.06.11,0,0,0,.01,0,.02,0,.01,0,.02.01.03,0,0,0,0,0,0-.02,0-.04-.01-.06-.01-.01,0-.02,0-.03-.01,0,0,0,0,0,0,0,.04.01.09.05.13-.02,0-.04,0-.06,0,0,0,0,0,0,0,0,.03.03.05.07.07-.02,0-.03.02-.03.04,0,.02,0,.03-.02.04,0,0,0,0,0,0,.02.02.05.02.07.01-.01.02-.02.05-.02.07.02,0,.03,0,.05,0,0,0,0,.01,0,.03,0,0,0,.02,0,.03,0,0,0,0,0,0,.03,0,.05,0,.08,0,0,.02,0,.04,0,.06,0,0,0,0,.01,0,.01-.02.03-.03.05-.04,0,0,0,.01.01.02,0,0,.01.01.01.03,0,0,0,0,0,0,.01,0,.04-.03.05-.05.02.01.02.02.04.04,0,0,0,0,.01,0,0-.02,0-.04,0-.06.02,0,.05.01.08,0,0,0,0,0,0,0,0,0,0-.02,0-.03,0-.01,0-.02,0-.02.02,0,.03.01.05,0,0-.02,0-.05-.01-.07.03,0,.05,0,.08,0,0,0,0,0,0,0-.01,0-.02-.02-.02-.04,0-.02-.01-.03-.03-.04.04-.01.06-.04.07-.06,0,0,0,0,0,0-.02,0-.04,0-.06,0,.04-.04.05-.08.06-.12,0,0,0-.01,0,0,0,0-.02.01-.03.01-.02,0-.04,0-.06,0,0,0,0,0,0,0,0-.01,0-.02.01-.03,0,0,0,0,0-.02.02-.04.05-.07.07-.11,0,0,0-.01-.01,0,0,0,0,0-.01,0-.01,0-.02.01-.04.01-.02,0-.04.01-.04.03-.02-.02-.05,0-.07.02,0-.02,0-.04-.02-.04,0-.01,0-.02-.01-.03-.01-.02-.04-.04-.05-.06,0,0,0,0,0,0h0Z"/>
          <g>
            <path class="cls-3" d="M17.57,3.22s-.01,0-.01,0,0,.01,0,.02c0,0,0,0,.01,0h0s0,0,0,0c0,0,0-.01,0-.02h0ZM17.15,3.2s.01,0,.01,0,0,.01,0,.02,0,0-.01,0,0-.01,0-.02h0ZM17.53,3.29s0,0,0,0,0,0,0,0,0,0,0,0,0,0,0,0ZM17.19,3.28s0,0,0,0,0,0,0,0,0,0,0,0,0,0,0,0ZM17.55,3.27c-.06-.01-.13-.02-.19-.02s-.13,0-.19,0c0,0,0,0,0,0,.06,0,.13,0,.19,0s.12,0,.19.02c0,0,0,0,0,0h0Z"/>
            <path class="cls-3" d="M17.17,3.25c.06,0,.13,0,.19,0,.06,0,.13,0,.19.02v-.02s0,0,0,0c0,0,0-.01,0-.02,0,0,.01-.01.02-.01,0,0,0,0,0,0l.04-.06s-.03.02-.05.02c-.02,0-.03.01-.03.02,0,.01,0,.01-.02,0-.03-.02-.05,0-.06.03,0,.02-.01.01-.01,0,0,0,0-.01,0-.02,0-.02,0-.02-.02-.02-.01,0-.01,0-.01,0,0,0,0-.01,0-.02,0,0,0,0-.01,0-.01-.02-.04-.04-.05-.06-.02.02-.03.04-.05.06,0,0-.01,0-.01,0,0,0,0,.01,0,.02,0,0,0,.01-.01,0-.01,0-.02,0-.02.02,0,0,0,.01,0,.02,0,.02,0,.02-.01,0,0-.02-.03-.05-.05-.03-.01,0-.02,0-.02,0,0-.01,0-.02-.03-.03-.02,0-.03-.01-.05-.02l.03.06s0,0,0,0c0,0,.02,0,.02.01,0,0,0,.02,0,.02,0,0,0,0,0,0h0s0,.01,0,.01ZM17.53,3.34s0,0,0,0c0,0,0,0-.01,0,0,0-.01.01-.02.02,0,0,0,0,0,0s0,0,0,0c0,0,.01,0,.02-.01,0,0,0,0,0,0,0,0-.02,0-.02,0,0,0-.01,0-.02,0,0,0,0,0-.01.01,0,0,0,0,0,0,0,0,0,0,0,0,0,0,0,0,.01-.01,0,0,0,0,0,0,0,0-.02,0-.03,0,0,0,0,0,0,0,0,0,0,0,0,0,0,0,0,0,0,0s0,0,0,0c0,0,0,0,0,0h0s-.01,0-.02,0c0,0,0,0,0,0,0,0,0,0,0,0s0,0,0,0c0,0,0,0,0,0,0,0,0,0,0,0,0,0,0,0,0,0,0,0,0,0,0,0,0,0-.02,0-.03,0,0,0,0,0,0,0,0,0,0,0,0,0s0,0,0,0c0,0,0,0,0,0,0,0,0,0,0,0,0,0,0,0,0,0,0,0,0,0,0,0-.01,0-.02,0-.03,0s-.02,0-.03,0c0,0,0,0,0,0,0,0,0,0,0,0,0,0,0,0,0,0s0,0,0,0c0,0,0,0,0,0s0,0,0,0c0,0,0,0,0,0,0,0-.02,0-.03,0,0,0,0,0,0,0,0,0,0,0,0,0,0,0,0,0,0,0s0,0,0,0c0,0,0,0,0,0,0,0,0,0,0,0,0,0,0,0,0,0,0,0-.01,0-.02,0,0,0,0,0,0,0,0,0,0,0,0,0,0,0,0,0,0,0s0,0,0,0c0,0,0,0,0,0s0,0,0,0c0,0,0,0,0,0,0,0-.02,0-.03,0,0,0,0,0,.01,0,0,0,.01,0,.01.01,0,0,0,0,0,0,0,0,0,0,0,0,0,0,0,0-.01-.01,0,0-.01,0-.02,0h0s-.02,0-.02,0c0,0,0,0,0,0,0,0,.01.01.02.02,0,0,0,0,0,0s0,0,0,0c0,0-.01-.01-.02-.02,0,0,0,0-.01-.01-.02,0-.03-.01-.05-.01-.01,0-.03,0-.04,0,0,0,0,.01,0,.02,0,0,0,.01.02.01,0,0,0,0,0,0,0,.01,0,.02.01.03,0,0,0,0,.02.01,0,0-.01-.01-.01-.02,0-.01,0-.02,0-.04,0,0,0,0,0,0,0,0,0,0,0,0,0,.01,0,.02,0,.03,0,.01.01.02.02.03,0,0,0,0,0,0-.01,0-.02-.01-.03-.02,0,0-.01-.02-.01-.03,0,0-.01,0-.02-.01,0,0,0-.01,0-.02,0,.04.01.07.03.1,0,0,.01.02.02.02,0,0,0,0,0,0,0,0,0,0,0,0,0,0,.01,0,.02,0,.01,0,.02.01.02.02,0,0,0,0,0,0,0,0,0,0,0,0,0,0,0-.01-.02-.02,0,0-.02-.01-.03-.01-.01,0-.03,0-.04,0,0,0,0,0,.01,0,0,0,.02,0,.03.01,0,0,.01,0,.02,0,0,0,.01,0,.01.01,0,0,0,0,0,0s0,0,0,0c0,0,0,0-.01-.01,0,0-.01,0-.02,0-.01,0-.02,0-.03-.01,0,0-.01,0-.02-.01.01.03.04.05.07.06,0,0,0,0,0,0,0,0,0,0,0,0,0,0,.01,0,.02,0,0,0,.01,0,.02,0,0,0,0,0,0,0,0,0,0,0,0,0,0,0-.01,0-.02,0,0,0,0,0-.01,0,0,0,0,0,0,0-.02,0-.04.02-.04.04,0,0,0,0,0,0,0,0,.02-.01.02-.02.01,0,.02,0,.03,0,0,0,0,0,0,0,0,0,0,0,0,0,0,0-.02,0-.03,0,0,0-.02.01-.03.02,0,.01,0,.02-.02.03,0,0,0,0,.01,0,0,0,.01,0,.02,0,0,0,.02,0,.02,0,0,0,0,0,0,0s0,0,0,0c0,0-.02,0-.02,0,0,0-.01,0-.02,0,.02,0,.04,0,.06,0,0,0,0,0,.01,0,0,0,0,0,.01,0,0,0,.01,0,.02,0,0,0,0,0,0,0,0,0,0,0,0,0,0,0-.01,0-.02,0,0,0,0,0-.01,0,0,0,0,0,0,0,0,0-.01.01-.02.02,0,0,0,.01,0,.02,0,0,.01-.02.02-.02,0,0,.02-.02.03-.02,0,0,0,0,0,0,0,0,0,0,0,0-.01,0-.02.01-.03.02,0,0-.01.02-.02.03,0,0,0,0,0,0,0,0,.02-.02.03-.02.01,0,.02-.01.04,0,0,0,0,0,0,0s0,0,0,0c0,0-.02,0-.03,0-.01,0-.02.02-.03.03.02,0,.03,0,.05,0,0,0,.02-.01.02-.01,0,0,0,0,0,0,0,0,0,0,0,0,0,0,0,0,0,0s0,0,0,0c0,0,0,0,0,0,0,0,0,0,0,0,0,0,0,0,0,0,0,0-.01.01-.02.02,0,.02,0,.03-.01.05,0,0,.01,0,.02-.01,0,0,0-.01.01-.02,0,0,0-.02.01-.02,0,0,.01-.01.02-.01,0,0,0,0,0,0s0,0,0,0c0,0-.01,0-.02.01,0,0-.01.01-.01.02,0,0,0,.02-.01.02,0,0,0,0-.01.01,0,0,0,0,.01,0,0,0,.02,0,.02,0,0,0,.01,0,.01-.02,0,0,0,0,0,0s0,0,0,0c0,0,0,.01-.02.02,0,0-.01,0-.02,0,.01,0,.03,0,.04,0,0,0,0-.01.01-.02,0,0,0,0,0-.01,0,0,0,0,.01-.01,0,0,0,0,0,0,0,0,0,0,0,0,0,0,0,0-.01,0,0,0,0,0,0,.01,0,0,0,.02,0,.03,0,.02,0,.03,0,.05,0,0,0-.01.01-.02,0,0,0,0,0,0,0,0,0-.02,0-.03,0,0,0-.02,0-.03,0,0,0,0,0,0,0,0,0,0,0,0,0,0,0,.02,0,.03,0,0,0,.02,0,.02,0,0,0,0,0,0,0,0,0-.01,0-.02,0,0,0-.01,0-.02,0,0,0,0,0,0s0,0,0,0c0,0,0,.01,0,.02,0,0,0,.01,0,.02,0,0,0,0,.02,0,0,0,0-.01,0-.02,0,0,0-.01,0-.02,0,0,0,0,0,0s0,0,0,0c0,0,0,0,0,.01,0,0,0,.01,0,.02,0,0,0,.02,0,.02,0,0,.01.01.01.02,0-.01,0-.02,0-.03,0-.01,0-.02,0-.03,0,0,0,0,0,0,0,0,0,0,0,0,0,0,0,.02,0,.03,0,.01,0,.03,0,.04,0,0,.03-.02.03-.05,0,0,0,0,0,0,0,0,0,0,0,0s0,0,0,0c0,0,0,0,0,0,0,0,0,0,0,0,0,0,0,0,0,0,0,0,0,0,0,0,0,0,0-.01,0-.02,0,0,0-.01,0-.02,0,0,0,0,0,0s0,0,0,0c0,0,0,.01,0,.02,0,0,0,.01,0,.02,0,0,0,0,0,0,0,0,0,0,0,0,0,0,0-.01,0-.02,0,0,0-.02,0-.03,0,0,0,0,0,0s0,0,0,0c0,0,0,.02,0,.03,0,0,0,.02,0,.03,0,0,0,0,0,0,0,0,0,.01.01.02,0-.02,0-.03,0-.05,0,0,0-.02,0-.03,0,0,0,0,0-.01,0,0,0,0-.01,0,0,0,0,0,0,0,0,0,0,0,0,0,0,0,0,0,.01.01,0,0,0,0,0,.01,0,0,0,.02.01.02.01,0,.02,0,.04,0,0,0-.01,0-.02,0,0,0-.01-.01-.01-.02,0,0,0,0,0,0s0,0,0,0c0,0,0,.01.01.02,0,0,.02.01.03.01,0,0,0,0-.01-.01,0,0,0-.01-.01-.02,0,0,0-.02-.01-.02,0,0-.01-.01-.02-.01,0,0,0,0,0,0,0,0,0,0,0,0,0,0,.02,0,.02.02,0,0,.01.01.01.02,0,0,0,.01,0,.02,0,0,0,0,.01.01,0-.02,0-.03,0-.05,0-.01-.02-.02-.02-.03,0,0,.01,0,.02.01.01,0,.03.01.05,0,0-.01-.02-.02-.03-.03,0,0-.02-.01-.03-.01,0,0,0,0,0,0,0,0,0,0,0,0,.01,0,.02,0,.03.01,0,0,.02.02.03.03,0,0,0,0,0,0,0-.01-.01-.02-.02-.03,0,0-.02-.02-.03-.02,0,0,0,0,0,0,0,0,0,0,0,0,.01,0,.02.01.03.02,0,0,.01.02.02.03,0,0,0-.01,0-.02,0,0,0-.02-.01-.02,0,0-.02-.01-.02-.02,0,0,0,0,0,0,0,0,0,0-.01,0,0,0,0,0,0,0,0,0,0,0,0,0,0,0,0,0,.02,0,0,0,0,0,0,0,0,0,.01,0,.02,0,.02,0,.04.01.06,0,0,0-.01,0-.02,0,0,0-.01,0-.02,0,0,0,0,0,0,0s0,0,0,0c0,0,.02,0,.02,0,0,0,.01,0,.02,0,0,0,0,0,.01,0-.01,0-.01-.02-.02-.03h0s-.02-.02-.03-.02c0,0-.02,0-.03,0,0,0,0,0,0,0,0,0,0,0,0,0,.01,0,.02,0,.03,0,0,0,.02.01.02.02,0,0,0,0,0,0,0-.02-.02-.04-.03-.04,0,0-.02,0-.02,0,0,0,0,0,.02,0,.03,0,.06-.02.07-.06,0,0,0,0-.02,0,0,0-.02,0-.03,0,0,0-.01,0-.02,0,0,0-.01,0-.01.01,0,0,0,0,0,0s0,0,0,0c0,0,0,0,.02-.01,0,0,.01,0,.02,0,.01,0,.02,0,.03,0,0,0,0,0,.01,0-.01,0-.03,0-.04,0-.01,0-.02,0-.03.01,0,0-.02.01-.02.02,0,0,0,0,0,0,0,0,0,0,0,0,0,0,0-.02.02-.02,0,0,.01,0,.02,0,0,0,0,0,0,0,0,0,0,0,0,0,0,0,.02-.01.02-.02.02-.03.04-.06.04-.09,0,0,0,.01-.01.02,0,0-.01.01-.02.01,0,.01,0,.02-.02.03,0,0-.02.01-.03.02,0,0,0,0,0,0,.01,0,.02-.02.02-.03,0-.01,0-.02,0-.03,0,0,0,0,0,0,0,0,0,0,0,0,0,.01,0,.02,0,.03,0,0,0,.01-.02.02,0,0,.01,0,.02-.01,0,0,.01-.02.02-.03,0,0,0,0,0,0,0,0,.01,0,.02-.01,0,0,0-.01.01-.02-.01,0-.03,0-.04,0-.02,0-.03,0-.05.01h0Z"/>
            <path class="cls-3" d="M17.53,3.32c-.06,0-.11-.01-.17-.02-.06,0-.11,0-.17,0,0,0,0,0,0,0,0,0,0,0,.01,0,.05,0,.11,0,.16,0s.11,0,.17.02c0,0,0,0,0,0h0Z"/>
            <path class="cls-4" d="M17.19,3.3c.06,0,.11,0,.17,0s.11,0,.17.02h0s0,0,0,0c0,0-.01,0,0-.01s0-.01.01,0c0,0,0,0,0,0h0c-.06-.02-.12-.03-.18-.03s-.12,0-.18,0h0s0,0,0,0c0,0,.01,0,0,.01s0,.01-.01,0c0,0,0,0,0,0h0s0,0,0,0h0ZM17.45,3.28s-.01,0-.01,0,0,.01,0,.01.01,0,.01,0,0-.01,0-.01ZM17.44,3.28s0,0,0,0,0,0,0,0,0,0,0,0,0,0,0,0ZM17.35,3.27s-.01,0-.01,0,0,.01,0,.01.01,0,.01,0,0-.01,0-.01ZM17.35,3.28s0,0,0,0,0,0,0,0,0,0,0,0,0,0,0,0ZM17.27,3.27s-.01,0-.01,0,0,.01,0,.01.01,0,.01,0,0-.01,0-.01ZM17.26,3.28s0,0,0,0,0,0,0,0,0,0,0,0,0,0,0,0Z"/>
          </g>
          <path class="cls-6" d="M17.36,3.21s0-.01,0-.01c0,0,0,0-.02,0,0,0,0,0,0,0,0,0,0,0,.01-.01,0,0,0-.01,0-.02,0,0,0,0,0,0,0,0,0,.01,0,.02,0,0,.01,0,.02.01,0,0,0,0,0,0,0,0,0,0-.01,0,0,0,0,.01,0,.02,0,0,0,0,0,0h0ZM17.36,3.2s0,0,0-.01c0,0,0,0,0,0,0,0,0,0-.01-.01,0,0,0,0,0,0,0,0,0,0,0,.01,0,0,0,0,0,0,0,0,0,0,.01,0,0,0,0,0,0,0ZM17.41,3.63l-.04.02s0,0,0,0c0,0,0,0,0,0l.04-.02s0,0,0,0c0,0,0,0,0,0ZM17.42,3.61l-.05.03s0,0,0,0,0,0,0,0l.05-.03s0,0,0,0,0,0,0,0ZM17.27,3.59l.05.03s0,0,0,0,0,0,0,0l-.05-.03s0,0,0,0,0,0,0,0ZM17.27,3.62l.04.02s0,0,0,0c0,0,0,0,0,0l-.04-.02s0,0,0,0c0,0,0,0,0,0h0ZM17.29,3.66s.02,0,.03,0c0,0,.01,0,.02-.01v-.04s-.02,0-.02,0c0,0-.01,0-.02-.02,0,0,0-.02,0-.03,0,0,0,0,0,0s0,0,0,0c0,0,0,.02,0,.02,0,0,0,0,.01.01,0,0,.02,0,.03,0s.02,0,.03,0c0,0,.01,0,.02,0s0,0,0-.01c0,0,0,0,0,0,0,0,0,0-.01,0,0,0,0,0-.01,0,0,0,0,0,0,0,0,0,0,0,0,0s0,0,0,0c0,0,0,0,0,0,0,0,0,0,.01,0,0,0,.01,0,.01,0,0,0,0,0,0,.01,0,0,0,.01,0,.02,0,0-.01,0-.02.01,0,0-.02,0-.02,0v.04s0,0,0,0c0,0,0,.01.02.01,0,0,.02,0,.03,0,0,0,0,0,0,0,0,0,0,0,0,0-.01,0-.02,0-.03,0,0,0-.01,0-.02-.01,0,0-.01,0-.02.01,0,0-.02,0-.03,0,0,0,0,0,0,0,0,0,0,0,0,0h0ZM17.32,3.68h.03s0,0,0,0c0,0,0,0,0,0h-.03s0,0,0,0,0,0,0,0ZM17.38,3.42s.03-.02.04-.02c.01,0,.02,0,.03,0,0,0,0,0,0,0,0,0,0,0,0,0,0,0-.02,0-.03,0-.01,0-.02.01-.04.02,0,0,0,0,0,0s0,0,0,0h0ZM17.33,3.42s-.02-.02-.04-.03c-.01,0-.02,0-.03,0,0,0,0,0,0,0,0,0,0,0,0,0,0,0,.02,0,.03.01.01,0,.03.02.04.03,0,0,0,0,0,0,0,0,0,0,0,0h0ZM17.3,3.51s0-.01.01-.02c0,0,0,0,.02-.01,0,0,0,0,0,0,0,0,0,0,0,0,0,0,0,0-.01.01,0,0,0,.01-.01.02,0,0,0,0,0,0s0,0,0,0ZM17.34,3.36s0,.01,0,.02c0,0,0,.01,0,.02,0,0,0,.01,0,.02,0,0,0,.01,0,.02,0,0,0,0-.01,0,0,0,0,0-.01,0,0,0,0,.02,0,.03,0,0,0,0,0,0,0,0,0,0-.01,0s0,0-.01,0h0s-.01,0-.02-.01c0,0,0,0-.01-.01h0s0,0,0-.01c0,0,0,0,0-.01,0,0-.01,0-.02-.01,0,0,0,0-.01-.01,0,0,0,0,0,0s0,0,0,0c0,0,0,0,.01.01,0,0,.01,0,.02.01.01,0,.02,0,.03.01,0,0,.02.01.03.02,0,0,0,0,0,0,0,0,0,0,0,0,0,0,0,0,.01,0,0,0,0,0,.01,0,0,0,0-.01,0-.02,0,0,0-.01,0-.02h0s0-.02,0-.02c0,0,0-.01,0-.02,0,0,0,0,0,0s0,0,0,0h0ZM17.31,3.45s-.02-.01-.03-.02c0,0-.02,0-.03,0,0,0,0,0,0,.01,0,0,0,0,0,.01h0s0,0,.01,0c0,0,.01,0,.02,0h0s0,0,.01,0c0,0,0,0,0,0,0,0,0-.02,0-.02,0,0,0,0,0,0h0ZM17.38,3.37s0,.01,0,.02c0,0,0,.01,0,.02h0s0,.01,0,.02c0,0,0,.01,0,.02,0,0,0,0,0,0,0,0,0,0,.01,0,0,0,0,0,0,0,0,0,0,0,0,0,0,0,.02-.01.03-.02.01,0,.02,0,.03,0,0,0,.01,0,.02,0s0,0,.01,0c0,0,0,0,0,0s0,0,0,0c0,0,0,0-.01.01,0,0-.01,0-.02,0,0,0,0,0,0,.01,0,0,0,.01,0,.01h0s0,0-.01,0c0,0-.01,0-.02,0h0s0,0-.01,0c0,0,0,0-.01,0,0,0,0,0,0,0,0,0,0-.02,0-.03,0,0,0,0-.01,0,0,0-.01,0-.01-.01,0,0,0-.01,0-.02,0,0,0-.01,0-.02,0,0,0-.02,0-.02,0,0,0-.01.01-.02,0,0,0,0,0,0,0,0,0,0,0,0h0ZM17.45,3.43s-.02,0-.03,0c0,0-.02,0-.03.01,0,0,0,0,0,0,0,0,0,.02,0,.02,0,0,0,0,0,0,0,0,0,0,.01,0h0s.01,0,.02,0c0,0,0,0,.01,0h0s0,0,0-.01c0,0,0,0,0-.01h0Z"/>
          <path class="cls-5" d="M17.42,3.43s-.02,0-.02.02,0,.02.02.02.02,0,.02-.02,0-.02-.02-.02ZM17.42,3.44s-.01,0-.01.01,0,.01.01.01.01,0,.01-.01,0-.01-.01-.01ZM17.42,3.44s0,0,0,0,0,0,0,0,0,0,0,0,0,0,0,0ZM17.28,3.43s.02,0,.02.02,0,.02-.02.02-.02,0-.02-.02,0-.02.02-.02ZM17.28,3.43s.01,0,.01.01,0,.01-.01.01-.01,0-.01-.01,0-.01.01-.01ZM17.28,3.44s0,0,0,0,0,0,0,0,0,0,0,0,0,0,0,0Z"/>
        </g>
      </g>
      <path class="cls-7" d="M19.39,3.36h0s-.68-.78-.68-.78l-.89.51-.15,1.81c.43.04.86.11,1.28.21l.45-1.76h0Z"/>
      <path class="cls-6" d="M17.99,3.47s.06,0,.09,0c.01,0,.02.01.03.02.01-.01.03-.02.04-.03.02-.02.04-.03.06-.04.03-.02.06-.03.1-.03.03,0,.07,0,.1,0,.03,0,.06,0,.08.02.02.01.05.02.07.04.03.01.05.03.08.04.03.01.07.02.11.02.02,0,.04,0,.05,0,.01,0,.02,0,0,.02-.12.07-.21,0-.29-.02.03.02.05.04.08.06.03.03.06.06.12.08.04.02.07.03.13.03.02,0,.04,0,.06,0,0,0,.01,0,.01,0,0,0,0,.01,0,.01-.03.02-.06.03-.09.03-.06,0-.13-.02-.18-.05-.05-.03-.08-.06-.12-.08-.04-.03-.07-.04-.11-.05-.03,0-.07,0-.1,0,0,0,.02,0,.02.01.02,0,.04.01.07.02.02,0,.01.01-.01.03-.01.02-.03.03-.06.03-.03.02-.05,0-.06,0,0,0,0,.02,0,.03,0,0,0,.01,0,.02,0,0,0,.02,0,.03,0,0,0,.01,0,.01,0,0,.01.01.01.02,0,0,0,.01,0,.02,0,0,.01.01.02.02.02,0,.03.02.03.04.02,0,.02.02.03.03,0,0,.02,0,.02.02.03,0,.06,0,.09,0,.03,0,.05.02.07.04.01,0,.03,0,.04,0,.01,0,.03-.01.05-.01.03,0,.06,0,.08,0,.02,0,.03.01.04.03.02.02.04.02.06,0,.03-.01.05-.01.08,0,.01,0,.03,0,.04,0,.01-.01.02-.01.03-.02.02,0,.03,0,.03.03,0,0,0,.01-.01.02,0,.02-.03.03-.05.02,0,.01,0,.02-.02.03,0,.03,0,.04-.02.04,0,0-.01.01-.02.01,0,0-.02.02-.03.02,0,0,0,.01.01.02.02.02,0,.03-.03.03,0,.02,0,.03,0,.05.02.01.02.03,0,.04.01.03,0,.04-.02.06,0,.01,0,.03-.01.04,0,0-.02,0,0,.02.01.02,0,.04,0,.04,0,0,0,0,0,0,0,0,0,0,0,0-.02.01-.04.02-.06.04,0,0,0,0,0,0-.01.03-.04.05-.06.08,0,.02-.02.03-.03.04,0,0,0,.01-.01.01.01.01.01.02,0,.03-.01.01-.03.03-.05.03-.04,0-.06,0-.07,0-.01-.01,0-.02,0-.02-.02,0-.03,0-.03-.03,0,0,0,0,.01,0,.01,0,.02,0,.03,0,0,0,.01-.01.02-.02,0-.02.02-.04.04-.05.02,0,.03-.02.05-.04,0-.02.02-.03.03-.05,0,0,0-.02,0-.03,0,0-.01-.01-.02-.02-.02,0-.02,0-.02-.02,0,0,0,0-.01,0,0,0-.02,0-.02,0-.01.01-.02.02-.04.03,0,.01-.01.02-.02.02-.03,0-.05.04-.07.06,0,0-.01.01-.01.03,0,.02,0,.04-.02.04-.01,0-.01,0-.01,0,0,0,0,0-.01,0,0,0,0,.02,0,.03,0,.01-.02.01-.03.01-.02,0-.04,0-.06,0-.02,0-.02-.02-.02-.03-.01,0-.01-.01-.01-.02,0,0,0-.01.02,0,0,0,.01,0,.02,0,.02-.02.04-.04.06-.05,0,0,.01-.02.02-.02,0-.02.02-.04.03-.05,0,0,0-.01,0-.02,0,0,0,0,0-.01,0-.01-.01-.03,0-.04,0,0,0-.01,0-.02-.04.02-.05.01-.05,0-.01.01-.03.02-.04,0-.01,0-.03,0-.04,0,0,0-.02,0-.03,0,0,0,0,.02-.02.02,0,.02,0,.03-.02.05,0,.02-.01.04-.02.05,0,0,0,.01,0,.02,0,.02,0,.03-.02.04,0,0,0,.02-.01.03,0,0,0,0,0,0,0,.01,0,.02,0,.04-.01,0-.02.01-.03.02-.01,0-.02,0-.04,0-.02,0-.02-.01-.01-.02,0,0-.01,0-.02,0,0,0,0,0-.01,0,0,0,0-.01,0-.02.01,0,.02,0,.03-.02,0,0,0-.01.01-.01,0-.01.01-.02.02-.03,0-.02.01-.04.02-.05,0,0,0-.01,0-.02,0,0,0,0,0-.01,0,0,0,0,0,0,0-.01,0-.03,0-.04,0-.01.02-.05.01-.07,0,0,0-.02,0-.03,0,0,0,0,0,0,0,0-.01,0-.02,0,0,.01,0,.02-.01.02,0,.03-.02.05-.03.06,0,.01,0,.03,0,.04,0,.01,0,.02,0,.03,0,0-.01,0-.02.02,0,0,0,0,0,.01.01.01,0,.02,0,.03-.02.02-.05.02-.08.01-.02,0-.03-.02-.02-.03-.03,0-.02-.03,0-.03.03,0,.05-.02.07-.05,0-.03,0-.05.02-.05,0-.02,0-.03.01-.05,0-.01.01-.03,0-.05-.02-.01-.02-.02,0-.03,0,0,0,0,0,0-.01,0,0-.01,0-.02,0,0,0,0,0,0-.02,0-.02-.01,0-.02,0,0,0-.01,0-.01,0,0,0,0,0-.02-.01-.01,0-.02,0-.03,0,0-.01-.02-.01-.03-.03,0-.03-.01-.02-.03,0,0,.01-.02.02-.02,0,0,.01-.02,0-.03,0-.02.02-.03.04-.05,0,0,0,0,0-.01-.01-.01,0-.02,0-.03,0,0,0,0,0-.01-.03,0-.03-.01-.01-.04-.02,0-.01-.03.02-.05,0,0,0-.01,0-.01-.01,0-.02,0-.04.01-.01,0-.02,0-.03,0,0,0,0-.01-.01-.01,0,0,0-.01,0-.02-.03,0-.04-.02-.02-.04.01,0,.02-.02.02-.03,0-.02.03-.04.05-.05,0,0,0-.01,0-.02,0,0-.02,0-.03-.01,0,0-.01-.02-.02-.02,0,0,0,0,0-.02-.02-.02-.01-.03,0-.03h0Z"/>
      <g>
        <path class="cls-3" d="M18.58,4.32s0,0,0,0c0,0-.02.02-.03.02,0,0-.02,0,0,0h0s0,.02-.02.02c0,0,0,0,0,0,0,0,0,0,0-.01,0,0,0-.01,0-.01,0,0,0,0,0,0s0,0,0,0c0,0,0,.01,0,.02,0,0,0,0,0,.01-.03,0-.05.04-.07.06,0,0-.01.02-.02.03,0,0,0,.03,0,.03,0,0,0,0,0,0,0,0,0,0-.01,0-.01,0-.02,0-.04,0,0,0,.01,0,.02.01,0,0,0,0,0,.02,0,.02-.06.02-.08,0,0,0,0,0,0-.02,0,0,0,0,.01,0,0,0,.01,0,.02,0,0,0,0,0,0,0s0,0,0,0c0,0-.01,0-.02,0,0,0-.01,0-.02,0,0,0,0,0,0,0,0,0,0,0,0,0,0,0,0,0,0,0,0,0,.02,0,.03,0,.02-.02.04-.04.07-.05,0,0,.02-.02.03-.02,0-.02.01-.04.03-.05,0,0,0-.02,0-.02,0,0,0,0,0-.01,0-.01-.01-.02,0-.04,0,0,0-.02,0-.03,0,0,0,0,0,0,0,0,.02-.01.03-.02,0,0,0,.02,0,.03h0s0,0,0,0c0,0,0,0,0,0,0,0,0,0,0,0,0,0,0,0,0,0,0,0,0,0,0,0,0,0,0,0,0,0,0,0,0,0,0,0,0,0,.02,0,.03-.01,0,0,.02-.01.02-.02,0,.01,0,.03,0,.04,0,0-.01.02-.02.02,0,0,0,0,0,0,0,0,0,0,0,0,0,0,.01-.02.02-.02h0s0,0,0,0h0s.02-.01.03-.02c0,.01,0,.02,0,.03,0,.01,0,.02.02.03,0,0,0,0,0,0h0Z"/>
        <path class="cls-3" d="M18.03,4s0,0,0,0h0s0-.01.01-.02c0,0,.01-.02.02-.02,0,0,0,0,0,0,0,0,0,0,0,0,0,0-.01.01-.02.02,0,0,0,.01-.01.02,0,0,0,0,0,0,0,.01,0,.02,0,.02,0,0,0,0,0,0,0,0,0,0,0-.01,0,0,0,0,.02-.01,0,0,0,0,.01-.01,0,0,0,0,0-.01,0,0,0,0,0,0,0,0,0,0,0,0,0,0,0,0,0,.01,0,0,0,0-.01.01,0,0,0,0,0,0,0,0-.01,0-.02.01,0,0,0,0,0,.01,0,0,0,0,0,.01,0,.01-.02.02,0,.03,0,0,0,.01,0,.02,0,0,0,.02,0,.02,0,0,0,0,0,0,0,0,0,0,0,0h0s0-.01,0-.02c0,0,0,0,.01-.01,0,0,.01-.01.01-.02,0,0,0-.01,0-.02,0,0,0,0,0,0,0,0,0,0,0,0,0,0,0,.01,0,.02,0,0,0,.01-.01.02,0,0,0,0-.01.01,0,0,0,0,0,.01,0,0,0,.02,0,.03,0,0,0,0,0,0,0,0,0,0,0,0h0s0-.02,0-.02c0,0,0,0,0,0,0,0,0,0,0,0h0s0,.02,0,.02c0,0,0,0,0,0,0,0,0,.01,0,.02-.01.01-.01.01,0,.02,0,.01,0,.02,0,.03,0,0,0,0,0,0,0,0,0,0,0,.01h0s0,.01,0,.01,0,0,0,0h0s0-.01,0-.01c0,0,0,0,0,0,0,.02-.02.04-.02.06-.02,0-.02.03-.02.05-.02.02-.04.04-.07.05,0,0-.02,0-.02.01,0,0,0,0,.01,0,.02-.02.02,0,0,0,0,0,0,0,0,0,.02.01.06.02.08,0,.01,0,.02-.02,0-.03,0-.02,0-.04.03-.04,0,0,0-.01,0-.02,0-.02,0-.03,0-.05,0,0,0,0,0,0,0,0,.02-.02.03-.04,0,0,0,0,0-.01,0,0,0,0,0,0,0,0,0,0,0-.01,0-.01.02-.02.03-.01,0,0,0-.02,0-.03,0-.01,0-.02,0-.04,0,0,0,0,0,0v-.03s.02-.02.02-.03c0,0,0,0,0,0s0,0,0,0v.03s-.02.02-.02.03c0,0,0,0,0,0,0,.01,0,.02,0,.03,0,.01,0,.02,0,.03,0,0,0,0,0,0,0,0,0,0,0,.01,0,0,0,.01,0,.02.01.02,0,.06-.01.08,0,0,0,.02,0,.03,0,0,0,.01,0,.02,0,0,0,0,0,0,0,0,0,.01,0,.02,0,.02-.02.04-.03.06-.01,0-.02.01-.02.03,0,0,0,0-.01.01,0,0-.02.02-.03.02-.01,0,0,0,0,.01,0,0,.01,0,.02-.01,0,0,.01,0,0,0,0,0,0,.02,0,.02,0,0,.02.01.02.01.01,0,.03-.01.04-.02,0,0,0-.02,0-.03h0s-.01,0-.02,0c0,0-.01,0-.02,0,0,0,0,0,0,0,0,0,0,0,0,0,0,0,.01,0,.02,0,0,0,.01,0,.02,0h0s.01-.03.02-.04c.02,0,.02-.01.01-.03,0,0,0-.01,0-.02.01-.02.02-.04.03-.06.01-.02.02-.03.02-.05,0,0,0-.01,0-.01,0,0,0-.01.01-.02,0,0,0,0,0,0,0,0,0,0,0,0,0,0,0,0,0-.01,0,0,0,0,0,0,0,0,0-.01,0-.02,0,0,0-.01,0-.02,0,0,0,0,0,0,0,0,0,0,0,0,0,0,0,0,0,0,0,0,0,0,0,0,0,0,0,0,0,0,0,0,0,0,0,0h0s0,.01,0,.02,0,.01,0,.02c0,0,0,0,0,0,0,0,0,0,0,0,0,0,0,0,0,.01,0,0,0,0,0,0,0,0,.02,0,.02,0h0s0,0,.01-.02c0,0,0-.01,0-.02,0,0,0,0,0,0,0,0,0,0,0,0,0,0,0,.01,0,.02,0,0,0,0,0,.01.01,0,.03,0,.04,0,0-.02,0-.03,0-.04,0-.01,0-.02.01-.03,0,0,0,0,0,0,0,0,0,0,0,0,0,0,0,.01-.01.02,0,.01,0,.02,0,.04,0,0,0,0,0,0,0,0,0,.02.02,0,0,0,0,0,.01,0,0,0,0,0,0,0,.01-.01.02-.02.03-.03.01,0,.02-.02.03-.02,0,0,0,0,0,0s0,0,0,0c-.01,0-.02.01-.03.02,0,0-.02.02-.03.03,0,0,0,0,0,0,0,.01,0,.02.02.01,0,0,.01,0,.02,0,0,0,0,0,.01,0,0,0,.01,0,.02-.01,0,0,.01,0,.02-.01,0,0,0-.01,0-.02,0-.02.01-.03.03-.05h0s.02-.01.02-.02c0,0,.01-.01.01-.02,0,0,0,0,0,0,0,0,0,0,0,0,0,0,0,.02-.02.02,0,0-.01.01-.02.02-.01.01-.02.03-.03.04,0,0,0,.01,0,.02,0,0,0,0,0,0,0,0,0,0,0,0,0,0,0,0,0,0,0,0,0,.02,0,.03,0,0,.02,0,.02-.01,0,0,.02-.02.03-.03,0,0,0,0,0,0,0,0,0-.01,0-.02,0,0,0,0,.01-.01,0,0,0,0,0,0,0,0,0,0,0,0,0,0,0,0-.01.01,0,0,0,.01,0,.02v.04s0,0,0,0c0,0,.02-.01.03-.02,0,0,0,0,0,0,0,.01,0,.02,0,.03,0,.01,0,.02.02.03,0,0,.01-.02.02-.02,0,0,0,0,0,0,0,0,0,0,.01,0,0,0,0,0,0,0,0,0,0,0,0,0,0,0,0,0,0,0s0,0,0,0c0,0,0,0,0,0,0,0,0,0,0,0h0s0,0,0,0c0,0,0,0,0,.01,0,0,0,0,0,0,0,0,.01,0,.02,0,0,.02,0,.02.02.02,0,0,0-.01,0-.02,0,0,0-.01,0-.02,0,0,0,0,0,0,0,0,0,0,0,0,0,0,0,.01,0,.02,0,0,0,.01,0,.02h0s.01.02.02.02c0,0,0-.01,0-.02,0,0,0-.01,0-.02,0,0,0,0,0,0,0,0,0,0,0,0,0,0,0,.01,0,.02s0,.01,0,.02c0,0,0,0,0,0,0,0,0,.01,0,.02,0,0,0,0,0-.01,0,0,0,0,0-.01,0,0,0,0,0,0,0,0,0,0,0,0,0,0,0,0,0,.01,0,0,0,0,0,.01,0,0,0,0,0,0-.02.04-.04.09-.09.1-.02,0-.03.02-.04.04,0,0-.01.01-.02.02-.01,0-.03.01-.04.01,0,0,0,.01.01.01.02,0,.02-.01.03,0,0,0,0,.02-.02.03,0,0,0,0,0,0,.01.02.05.01.07,0,.01,0,.04-.02.04-.03,0,0,0-.01,0-.02-.03,0-.02-.02,0-.01,0,0,0,0,.01-.01.02,0,.03-.02.03-.04.02-.02.04-.05.06-.07,0,0,0-.01,0-.02,0,0,0,0,0-.01,0,0,0-.01,0-.02,0,0,0,0,0,0s0,0,0,0c0,0,0,.01,0,.02,0,0,0,0,0,.01,0,0,0,0,0,0,.02-.01.04-.02.06-.04,0,0,0-.01.01-.01,0,0,0,0,0,0,0-.01,0-.02,0-.03,0-.01,0-.02.01-.02,0,0,0-.03,0-.04h0s0,0,0,0c0,0,0,0,0-.01,0,0,0,0,0,0,0,0,0,0,0,0,0,0,0,0,0,.01,0,0,0,0,0,0,0,0,.02,0,.02-.02,0-.01,0-.02,0-.03,0,0-.01,0-.02,0,0,0,0,0,0,0s0,0,0,0c0,0,.02,0,.02-.01,0,0,0,0,.01,0,0,0-.01-.02-.02-.02,0,0,0,0,0,0,0,0-.02-.02-.03-.02,0,0,0,0,0,0s0,0,0,0l.02.02s0-.03,0-.04c0,0,0,0,0-.01,0,0-.01,0-.02-.01,0,0,0-.01,0-.02,0,0,0,0,0,0,0,0,0,0,0,0,0,0,0,.01,0,.02,0,0,0,0,.01.01,0,0,.02,0,.03,0,.01,0,0-.02,0-.03,0,0,0-.01,0-.02,0,0,0,0,0,0,0,0,0,0,0,0,0,0,0,0,0,0,0,0,0,0,0,0,0,0,0,0,0,0,0,0,0,0,0,0,0,0,0,0,0,0,0,0,0,0,0,0,.01,0,.02,0,.03-.02,0,0,0,0-.01-.01,0,0,0,0-.02-.01,0,0,0,0,0,0s0,0,0,0c0,0,.01,0,.02.01,0,0,0,0,.01.01,0,0,0,0,0,0,.01,0,.01,0,.02-.01,0,0,0,0,0-.01,0,0,0,0-.01-.01,0,0,0,0,0,0,0,0,0,0,0,0,0,0,0,0,.01.01,0,0,0,0,0,.02,0,0,.01,0,.02,0,0,0,0-.03,0-.03,0,0,0,0,0,0,0,0,0,0,0,0,0,0,0,0,0,0,0,0,0,0,0,0,0,0,0,0,0,0h0s0,0,0,0h0s0-.02.01-.02c0-.01,0,0,.02,0,.02,0,.02,0,.03-.02,0,0,0,0,0-.01,0-.01,0-.02-.01-.02-.02,0-.03,0-.04.01,0,0,0,0,0,0,0,0,0,0,0,0,0,0,0,0,0,0h0s-.03,0-.04,0h0s0,0,0,0c0,0,0,.01,0,.02,0,0,0,0,0,0s0,0,0,0c0,0,0,0,0-.01s0-.01-.01-.02h0s-.02,0-.03,0c0,0,0,0,0,0,0,0,0,0,0,0,0,0,0,0,0,0,0,0,0,0,0,0,0,0,0,0,0,0,0,0,0,0,0,0,0,0,0,0,0,0-.01,0-.02,0-.03,0,0,0-.01,0-.02,0,0,0,0,.01.01.02,0,0,0,.01,0,.02,0,0,0,0,0,0s0,0,0,0c0,0,0-.01,0-.02s0-.01-.01-.02c0,0,0,0,0,0,0,0-.01,0-.02,0h0s0,.01,0,.01c0,0,0,0,0,0h0s-.01-.02-.02-.02c0,0,0,.01,0,.02,0,.01,0,.02,0,.03,0,0,0,0,0,0s0,0,0,0c0-.01,0-.02,0-.03,0,0,0-.02,0-.03,0,0,0,0,0,0,0,0-.01-.01-.02-.02,0,0,0,.02,0,.03,0,0,0,0,0,0,0,0,0,0,0,0,0,0,0-.02,0-.03-.01,0-.02,0-.04,0,0,0,.01.02.02.03,0,0,0,0,0,.02,0,0,0,.01,0,.02,0,0,0,0,0,0s0,0,0,0c0,0,0-.01,0-.02,0,0,0-.01,0-.01,0,0,0,0,0,0,0,0,0-.01,0-.02,0,0,0-.01-.01-.02h0s0,0-.01,0c0,0,0,0,0,0,0,0,0,0,0,0,0,0,0,0,0,0s0,0,0,0c0,0,0,0,0,0,0,0,0,0,0,0,0,0-.02,0-.03,0,0,.01.02.02.02.04,0,.01.01.03.01.04,0,0,0,0,0,0,0,0,0,0,0,0,0-.01,0-.03-.01-.04,0-.01-.01-.03-.02-.04h0s-.01,0-.02,0c0,0,0,0,0,0,0,0,0,0,0,0,0,0,0,0,0,0s0,0,0,0c0,0,0,0,0,0,0,0,0,0-.01,0,0,0,0,0-.01,0,0,0,0,0,0,0,0,0,.01,0,.02.01,0,0,.01.01.02.02,0,0,0,0,0,0s0,0,0,0c0,0-.01-.02-.02-.02,0,0-.01-.01-.02-.02,0,0-.02,0-.02,0,0,0,0,.02.01.03,0,.01,0,.02,0,.03,0,0,0,0,0,0s0,0,0,0c0-.01,0-.02,0-.03,0-.01,0-.02-.01-.03,0,0,0,0-.01,0,0,0,0,.02,0,.03,0,.01,0,.02,0,.03,0,0,0,0,0,0,0,0,0,0,0,0,0-.01,0-.02,0-.03,0,0,0-.02,0-.03-.01-.01-.03-.03-.05-.04,0,.01.01.03.01.04,0,0,0,0,0,0,0,0,0,0,0,0,0,0,0-.02,0-.02,0,0,0-.01-.01-.02,0,0,0,0-.01,0-.01,0-.02,0-.04,0,0,0,.02.02.02.02,0,0,0,0,0,0s0,0,0,0c0,0,0-.02-.02-.02,0,0-.01,0-.02,0,0,0,0,0,0,.01,0,0,0,.01,0,.02h0s0,.02,0,.02c0,0,0,.01.02.01,0,0,0,0,0,0s0,0,0,0c0,0-.01,0-.02-.02,0,0,0-.01,0-.02,0,0,0-.01,0-.01,0,0,0,0-.01-.01,0,0-.02,0-.02,0,0,0,0,.02,0,.03,0,.01,0,.02,0,.04,0,0,0,0,0,0s0,0,0,0c0-.01,0-.02,0-.04,0,0,0-.02,0-.03h0s0-.01-.02-.02c0,0,0,0,0,0,0,0,0,0,0,0s0,0,0,0c0,0,0,0,0,0,0,0,0,0,0,0,0-.02,0-.02-.02-.03,0,0,0,0,0,.01,0,0,0,.01,0,.02,0,0,0,0,0,0,0,0,0,0,0,0,0,0,0-.01,0-.02,0,0,0,0,0-.01h0s0-.04-.03-.04c0,0,0,0,0,0,0,0,0,.01,0,.02,0,0,0,0,0,0s0,0,0,0c0,0,0,0,0-.01,0,0,0,0,0-.01,0,0-.01-.01-.02-.02,0,0,0,.02,0,.02,0,.01,0,.02-.01.03,0,0,0,0,0,0,0,0,0,0,0,0,0,0,.01-.02.01-.03,0,0,0-.02,0-.03,0,0,0,0,0,0,0,0,0,0,0,0h0s0,0,0,0c0,0,0,0,0,0,0,0,0,0,0,0,0,0,0,0,0,0,0,0,0,0,0,0,0,0,0-.01,0-.02h0s0,0,0,0c0,0,0,0,0,.01,0,0,0,0,0,0,0,0,0,0,0,0,0,0,0,0,0,0,0,0,0,0,0,0,0,0,0,0,0,0,0,0,0,0,0,0,0,0,0,0,0,0,0,0,0,0,0,0s0,0,0,0c0,0,0,0,0,0s0,0,0,0c0,0,0,0,0,0,0-.01,0-.02,0-.03,0,0,0,0,0,0,0,0,0,0-.01,0,0,0-.01,0-.02,0,0,0,0,0,0,0,0,0,0,0,0,0,0,0,.01,0,.02,0,0,0,0,0,.01,0,0,0,0,0,0,0-.02,0-.03,0-.04,0,0,0-.02,0-.03,0,0,0,0,0,0,0,0,0,0,0,0,0,0,0,.01,0,.03,0,.01,0,.02,0,.04,0h0s0-.01,0-.02c0,0-.01,0-.02,0h0s0,0,0,0,0,0,0,0h0s.01,0,.02,0c0,0,0,0,0,0,0,0,0,0,.02,0,0,0,0,.01.01.01.01,0,.02,0,.03,0h0s0,0,0,0c0,0,0,0,0,0,0,0,0,0,0,0h0s.03,0,.05-.02c-.01,0-.02,0-.03,0-.01,0-.02,0-.02,0,0,0,0,0,0,0,0,0,0,0,0,0,0,0,.01,0,.02,0,0,0,.02,0,.03,0h0s0,0,0,0c0,0,.01,0,.02,0-.02,0-.05,0-.07-.02,0,0-.01,0-.02-.01-.02,0-.03,0-.05,0,0,0,0,0-.01-.01,0,0-.01,0-.02,0,0,0-.02,0-.02,0,0,0,0,0,0,0,0,0,0,0,0,0,0,0,.02,0,.02,0,0,0,.01,0,.02,0,.02,0,.04-.01.06-.01.02,0,.04,0,.06,0,0,0,0,0,0,0,0,0,0,0,0,0,.01-.01.01-.02.01-.03,0,0-.01-.02-.03-.03-.01,0-.03,0-.05,0,0,0-.02,0-.03,0,0,0,.01,0,.02.01,0,0,.01.02.01.03,0,0,0,0,0,0,0,0,0,0,0,0,0-.01,0-.02-.01-.03,0,0-.02-.01-.03-.02-.02,0-.03,0-.05,0-.01,0-.02,0-.03.01.01,0,.02,0,.03,0,0,0,.02.01.02.03,0,0,0,0,0,0s0,0,0,0c0-.01-.01-.02-.02-.02-.01,0-.04,0-.06,0,0,0-.01.01-.02.02,0,0,0,0,0,0,0,0,0,0,0,0,0,0,.02-.02.02-.02,0,0,.02,0,.02-.01,0,0,.02-.01.04-.02.01,0,.03,0,.05,0,0,0-.01-.02-.02-.02,0,0-.02,0-.03,0-.02,0-.04.02-.05.03,0,0,0,0,0,0,0,0,0,0,.01,0,0,0,0,0,0,0,0,0-.01,0-.02,0,0,0,0,0-.01,0,0,0,0,0,0,0-.02.01-.04.03-.05.04h0s-.03,0-.03,0c0,0,0,.01,0,.02,0,0,0,.02,0,.03-.02.02-.04.03-.05.05,0,0,0,.01,0,.02,0,0,0,0,0,0,0,0,0,0,0,0,0,0,0,0,0-.01,0,0,0-.01,0-.01,0,0,0,0,0,0,0,0,0,0,0,0,0,0,0,0,0,.01,0,0,0,.01,0,.02,0,0,0,0,0,0,0,0,0,0,0,0,0,0,0,0,0,0,0,0,0,0-.01.01,0,0,0,0,0,.01,0,0,0,0,.02.01.02,0,0,.01.02.02,0,0,.01,0,.02.01,0,0,.01,0,.02,0,0-.01,0-.02,0-.02h0s0,0,0,0c0,0,0,0,0,0,0,0,0,0,0,0s0,0,0,0c0,0,0,0,0,0,0,0,0,0,0,0,0,0,0,0,0,.01.01,0,.02,0,.04,0,.02-.03.03-.02.01,0h0s0,.02,0,.03c0,0-.04.03-.02.04,0,0,.01,0,0,0,0,0-.01.02-.01.03,0,0,0,0,.01,0h0s.02-.01.02-.02c0,0,.01-.02.02-.03,0,0,0,0,0,0,0,0,0-.02,0-.03,0,0,0-.02.01-.03,0,0,0,0,0,0,0,0,0,0,0,.01,0,0,0,0,0,0s0,0,0,0c0,0,0,0,0,0,0,0,0,0,0,0s0,0,0,0c0,0,0,0-.01.01s0,0-.01,0c0,0,0,0-.01,0,0,0,0,0,0,0,0,0,0,.02,0,.02,0,0,0,.02,0,.03,0,0,0,0,0,0,0,.01-.01.02-.02.03,0,0-.01.01-.02.02,0,0,0,.01,0,.02.01-.01.02-.02.03-.03.01-.01.02-.02.03-.04,0,0,0,0,0,0s0,0,0,0c0,0,0,.01-.01.02,0,0,0,0,0,0,0,0,0,0,0,.01,0,0,0,.02,0,.02,0,0,0,0,0,0s0,0,0,0c0,0,0-.02,0-.02,0,0,0,0,0,0,0,0,0,0,0,0-.01.01-.02.02-.04.03h0s0,0,0,0c-.01,0-.02.01,0,.02h.01s.01-.02.01-.02c0,0,0,0,0,0s0,0,0,0h-.01s-.01.02-.01.02c0,0,0,0,0,.01,0,0,0,0,0,0l.03-.02s0,0,0,0,0,0,0,0c0,0-.02.01-.03.02,0,0,0,0,0,0,0,0-.04.03-.04.04h0s.02,0,.02,0c0,0,.02,0,.02-.02,0,0,0,0,0,0,0,0,0,0,0,0,0,0-.02.01-.02.02h0s0,0,0,0,0,0,0,0c0,0,0,0,0,0s0,0,0,0c0,0,0,0,0,0,0,0,0,0,0,0,0,0-.01,0-.02,0,0,.01,0,.02-.01.04,0,0-.04.03-.02.04,0,0,0,0,.01,0h0Z"/>
        <path class="cls-3" d="M18.05,3.55s-.02,0-.02-.01c0,0-.01-.01-.02-.02,0,0,0,0,0,0,0,0,.01,0,.01,0,0,0,0,0,0,0,0,0,0,0,0,0,0,0,0,0,0,0,0,0,0,0,0,0,0,0,0,0,0,0,0,0,0,0-.01,0,0,0,0,0,0,0,0,0,0,0-.01,0,0,0,0,0,0-.02,0,0,0,0,0,0,0,0,0,0,.01,0,0,0,0,0,0,0,0,0,0,0,0,0s0,0,0,0c0,0,0,0,0,0,0,0,0,0,0,0,.03,0,.05,0,.08,0,.01,0,.02.01.03.02h0s-.03,0-.04.01c0,0,0,.01,0,.02h0Z"/>
      </g>
      <path class="cls-6" d="M18.6,4.31s0,0-.02,0c0,0,0,0,0,0,0,0,0-.01.01-.02h0s0,0,0,0h0s0,0,0,0ZM18.67,4.46s0,.01-.01.02c0,0-.01,0-.02.01,0,0,0,0,0,0s0,0,0,0c0,0,.01,0,.02-.01,0,0,0,0,.01-.01,0,0,0,0,0,0,0,0,0,0,0,0h0ZM18.71,4.41h0s0,.01,0,.01c0,0,0,0,0,0,0,0,0,0,0-.01,0,0,0,0,0,0,0,0,0,0,0,0h0ZM18.69,4.4s0,.01,0,.01,0,0-.02.01c0,0,0,0,0,0s0,0,0,0c0,0,.01,0,.01-.01,0,0,0,0,0-.01,0,0,0,0,0,0s0,0,0,0h0ZM18.73,4.35s0,0,0,0c0,0,0,0,0,0,0,0,0,0,0,0s0,0,0,0c0,0,0-.01,0-.02,0,0,0,0,0,0,0,0,0,0,0,0h0ZM18.77,4.35s0,.01,0,.02c0,0,0,.01,0,.02,0,0,0,0,0,0s0,0,0,0c0,0,0-.01,0-.02,0,0,0-.01,0-.02,0,0,0,0,0,0s0,0,0,0h0ZM18.75,4.14s.01.03.01.05c0,0,0-.01,0-.02h0s0-.01,0-.02,0-.01,0-.02c0,0,0,0,0,0,0,0,0,0,0,0,0,0,0,.01,0,.02,0,0,0,.01,0,.02,0,.01,0,.02,0,.04h0s0,0,0,0c0,0,0,0,0,0,0-.02,0-.04-.01-.06,0,0,0,0,0,0,0,0,0,0,0,0h0ZM18.73,4.17s0,0,0,0c0,0,0,0,0,0,0,0,0,0,0,0s0,0,0,0c0,0,0,0,0,0,0,0,0,0,0,0,0,0,0,0,0,0s0,0,0,0ZM18.72,4.22s0,.02,0,.03c0,0,0,.01,0,.02,0,0,0,0,0,0,0,0,0,0,.01,0,0,0,0,0,0,0s0,0,0,0c0,0,0,0-.01,0,0,0,0,0,0,.01,0,0,0,0,0,0,0-.01,0-.02,0-.03s0-.02,0-.03c0,0,0,0,0,0s0,0,0,0h0ZM18.76,4.24s0,.03,0,.04c0,0,0,0,0,0s0,0,0,0c0,0,0-.01,0-.02,0,0,0-.01,0-.02,0,0,0,0,0,0,0,0,0,0,0,0h0ZM18.79,4.23s0,.01,0,.02c0,0,0,.01,0,.02,0,0,0,.01,0,.02,0,0,0,.01,0,.02,0,0,0,0,0,0s0,0,0,0c0,0,0-.01,0-.02,0,0,0-.02,0-.02h0s0-.01,0-.02c0,0,0-.01,0-.02,0,0,0,0,0,0s0,0,0,0h0ZM18.81,4.18s0,0,0,.01c0,0,0,0,0,.01,0,0,0,0,0,0s0,0,0,0c0,0,0,0,0-.01,0,0,0,0,0-.01,0,0,0,0,0,0,0,0,0,0,0,0h0ZM18.79,4.09s0,0,0,0c0,0,0,0,0,0,0,0,0,0,0,0h0s0-.01,0-.01,0,0,0,0h0ZM18.8,4.02s0,0,0,.03c0,0,0,0,0,.01,0,0,0,.01,0,.02,0,0,0,0,0,0s0,0,0,0c0,0,0-.02,0-.02,0,0,0-.01,0-.02h0s0-.02,0-.02c0,0,0,0,0,0s0,0,0,0h0ZM18.73,3.99s.02.01.03.02c0,0,.01.02,0,.03,0,0,0,0,0,0,0,0,0,0,0,0h-.02s0,.04,0,.06c0,.02-.02.03-.03.03,0,0,0,0,0,0,0,0,0,0,0,0,0,0,0-.02,0-.03s0-.02,0-.03c0,0,0,0,0,0,0,0,0,0,0,0,0,.01,0,.02,0,.03,0,0,0,.02,0,.03.01,0,.02-.02.03-.03,0-.02,0-.04,0-.06,0,0,0,0,0,0h.02s0-.01,0-.02c0,0-.01-.02-.03-.02,0,0,0,0,0,0,0,0,0,0,0,0h0ZM18.91,3.96h0s0,0,0,0c0,0,0,0,0,0s0,0,0,0h0s0,0,0,0c0,0,0,0,0,0s0,0,0,0ZM18.87,3.96s0,0,0,0c0,0,0,0,0,0,0,0,0,0,0,0,0,0,0,0,0,0,0,0,0,0,0,0s0,0,0,0c0,0,0,0,0,0s0,0,0,0h0ZM18.81,3.97s0,.01,0,.02c0,0,0,.01,0,.02,0,0,0,0,0,0s0,0,0,0c0,0,0-.01,0-.02,0,0,0-.01,0-.02,0,0,0,0,0,0,0,0,0,0,0,0h0ZM18.59,3.99h0s0,.01,0,.01c0,0,0,0,0,0s0,0,0,0c0,0,0,0,0,0h0s0,0,0,0,0,0,0,0h0ZM18.63,3.97s0,0,0,.01h0s0,0,0,0,0,0,0,0h0s0,0,0-.01c0,0,0,0,0,0s0,0,0,0h0ZM18.71,4.03s0,0,0,0c0,0,0,0,0,0,0,0,0,0,0,0s0,0,0,0c0,0,0,0,0,0,0,0,0,0,0,0,0,0,0,0,0,0s0,0,0,0h0ZM18.74,3.97s0,0,0,0c0,0,0,0,0,0,0,0,0,0,0,0,0,0,0,0,0,0,0,0,0,0,0,0s0,0,0,0c0,0,0,0,0,0,0,0,0,0,0,0h0ZM18.55,3.98s0,0,0,.01c0,0,0,0,0,.01,0,0,0,0,0,.01,0,0,0,0,0,.01,0,0,0,0,0,0s0,0,0,0c0,0,0,0,0-.01,0,0,0,0,0-.01,0,0,0,0,0-.01,0,0,0,0,0-.01,0,0,0,0,0,0s0,0,0,0h0ZM18.62,4.03s0,.02,0,.02c0,0,0,.02,0,.02,0,0,0,.02,0,.03,0,0,.01.02.02.02,0-.01,0-.02,0-.03,0-.01,0-.02.01-.03,0,0,0,0,0-.01,0,0,0-.01,0-.01,0,0,0,0,0,0,0,0,0,0,0,0,0,0,0,.01,0,.02s0,.01,0,.02c0,0-.01.02-.01.03,0,.01,0,.02,0,.04,0,0,0,0,0,0-.01,0-.02-.02-.03-.03,0,0,0-.02,0-.03,0,0,0-.02,0-.02s0-.02,0-.02c0,0,0,0,0,0,0,0,0,0,0,0h0ZM18.59,4.08s0,.02,0,.03c0,0,0,.01-.01.02,0,0,0,0,0,0,0,0,.02-.01.02-.02,0,0,0,0,.01-.01,0,0,0,0,0,0s0,0,0,0c0,0,0,0-.01.01,0,0,0,0,0,0,0,0,0,0,0,.01,0,0,0,0,0,0,0,0,0,0,0,0h0s0,0,0-.01c0,0,0,0-.01,0,0,0,0,0-.01,0,0,0,0,0,0,0,0,0,.01-.02.02-.03,0,0,0-.02,0-.02,0,0,0,0,0,0s0,0,0,0h0ZM18.55,4.07h0s0,.01,0,.01,0,0,0,0h0s0-.01,0-.01,0,0,0,0Z"/>
      <path class="cls-6" d="M18.53,4.03s0,.02,0,.03c0,.01,0,.02-.01.03h0s-.01.01-.02.02c0,0,0,.01,0,.02,0,0,0,0,0,0,0,0,.01,0,.02-.01,0,0,.01,0,.02-.01,0,0,.01-.01.02-.02,0,0,0,0,0,0s0,0,0,0c0,0-.01.01-.02.02s-.01.01-.02.01h0s-.01,0-.02.01,0,0-.01.02c0,0,0,0,0,0,0-.01,0-.02,0-.03s0-.02.02-.02c0,0,.01-.02.01-.03s0-.02,0-.03c0,0,0,0,0,0,0,0,0,0,0,0h0ZM18.61,4.15s0,0,0,.01h0s0,.02,0,.03c0,.01,0,.02,0,.03,0,0,0,0,0,0,0-.01,0-.02-.01-.03,0,0-.02-.02-.03-.02,0,0,0,0,0,0,0,0,0,0,0,0,.01,0,.02.02.03.03,0,0,.01.01.01.02,0,0,0-.01,0-.02,0,0,0-.02,0-.03,0,0,0,0,0,0,0,0,0-.01,0-.02,0,0,0,0,0,0s0,0,0,0h0ZM18.64,4.15s0,0,0,0c0,0,0,0,0,0,0,0,0,0,0,0s0,0,0,0c0,0,0,0,0,0,0,0,0,0,0,0,0,0,0,0,0,0s0,0,0,0h0ZM18.68,4.16s0,.02,0,.02c0,0,0,.02,0,.02,0,0,0,0,0,0,0,0,0,0,0,0,0,0,0-.02,0-.02,0,0,0-.02,0-.02,0,0,0,0,0,0,0,0,0,0,0,0ZM18.71,4.3s0,0,0,0c0,0,0,0,0,0,0,0,0,0,0,0,0,0,0,0,0,0,0,0,0,0,0,0,0,0,0,0,0,0h0ZM18.68,4.26s0,0,0,.01c0,0,0,0,0,.01,0,0,0,0,0,0,0,0,0,0,0,0h0s0-.02,0-.03c0,0,0,0,0,0,0,0,0,0,0,0ZM18.65,4.26h0s0,0,0,0c0,0,0,0,0,0h0s0,0,0,0c0,0,0,0,0,0ZM18.61,4.24s0,0,0,0c0,0,0,0,0,0,0,0,0,0,0,0,0,0,0,0,0,0,0,0,0,0,0,0,0,0,0,0,0,0,0,0,0,0,0,0s0,0,0,0h0ZM18.55,4.3s0,0,0,0c0,0,0,0,0,0,0,0,0,0,0,0,0,0,0,0,0,0,0,0,0,0,0,0,0,0,0,0,0,0,0,0,0,0,0,0s0,0,0,0h0ZM18.38,4.47s0,0,0,0c0,0,0,0,0,0,0,0,0,0,0,0,0,0,0,0,0,0,0,0,0,0,0,0,0,0,0,0,0,0,0,0,0,0,0,0h0ZM18.4,4.45s0,0,0,0c0,0,0,0,0,0,0,0,0,0,0,0,0,0,0,0,0,0,0,0,0,0,0,0s0,0,0,0c0,0,0,0,0,0s0,0,0,0h0ZM18.44,4.43s0,0,0,0,0,0,0,0c0,0,0,0,0,0s0,0,0,0c0,0,0,0,0,0,0,0,0,0,0,0,0,0,0,0,0,0h0ZM18.49,4.3s0,0,0,.01,0,0,0,.01c0,0,0,0,0,0s0,0,0,0c0,0,0-.01,0-.02s0-.01,0-.02c0,0,0,0,0,0s0,0,0,0h0ZM18.53,3.93s0,0,0,.01,0,0,0,.01c0,0,0,0,0,0s0,0,0,0c0,0,0,0,0-.01,0,0,0,0,0-.01,0,0,0,0,0,0s0,0,0,0h0ZM18.49,3.9s0,.01,0,.02c0,0,0,.01,0,.02,0,0,0,0,0,0s0,0,0,0c0,0,0-.01,0-.02,0,0,0-.01,0-.02,0,0,0,0,0,0s0,0,0,0h0ZM18.44,3.96s-.01,0-.01-.01c0,0,0-.01,0-.02,0,0,0,0,0,0,0,0,0,0,0,0,0,0,0,0,0,.01,0,0,0,0,.01.01,0,0,0,0,0,0s0,0,0,0h0ZM18.5,4.05h0s0,0,0,0,0,0,0,0h0s0,0,0,0,0,0,0,0ZM18.43,3.98s.02.02.02.04c0,0,0,.02,0,.03,0,0,0,0,0,0,0,0,0,0,.01-.01,0,0,0-.02,0-.03,0,0,0,0,0,0,0,0,0-.01,0-.02s0-.01,0-.02c0,0,0,0,0,0,0,0,.01.02.02.03s0,.02,0,.03c0,0,0,0,0,0s0,0,0,0c0-.01,0-.02,0-.03,0,0,0-.02-.01-.02,0,0,0,0,0,.01,0,0,0,.01,0,.02,0,.01,0,.02,0,.03,0,0,0,.01-.01.02,0,0,0,0,0,0,0,0,0,0,0,.01,0,0,0,0,0,0s0,0,0,0c0-.02,0-.03,0-.04,0-.01,0-.03-.02-.03,0,0,0,0,0,0s0,0,0,0h0ZM18.47,4.15h0s0,.03,0,.03c0,0,0,0,0,0,0,0,0,0,0,0h0s0-.03,0-.03c0,0,0,0,0,0,0,0,0,0,0,0ZM18.39,4.19h0s0,.01,0,.01c0,0,0,0,0,0h0s0-.01,0-.01c0,0,0,0,0,0h0ZM18.46,4.1s0,.01,0,.02c0,0,0,.01-.01.02h0s0,.01-.01.02,0,.02,0,.02c0,0,0,0,0,0,0,0,0,0,0,0,0,0,0-.02,0-.03,0,0,0-.02.01-.02,0,0,0-.01.01-.02,0,0,0-.01,0-.02,0,0,0,0,0,0,0,0,0,0,0,0h0ZM18.44,4.07s0,.01,0,.02c0,0,0,.01-.01.02h0s-.01.01-.01.02c0,0,0,.01,0,.02,0,0,0,0,0,0,0,0,0,0,0,0,0,0,0-.01,0-.02s0-.01.01-.02c0,0,.01-.01.01-.02,0,0,0-.01,0-.02,0,0,0,0,0,0,0,0,0,0,0,0h0ZM18.35,4.11s0,.03,0,.04c0,.01-.01.02-.02.03,0,0,0,0,0,0,0,0,0,0,0,0,0,0,.02-.02.02-.03s0-.02,0-.03c0,0,0,0,0,0s0,0,0,0h0ZM18.25,4.17s0,0,0,0c0,0,0,0,0,0,0,0,0,0,0,0,0,0,0,0,0,0,0,0,0,0,0,0,0,0,0,0,0,0,0,0,0,0,0,0,0,0,0,0,0,0h0ZM18.2,4.17s0,.02,0,.02c0,0,0,.02.01.02h0s0,.01,0,.02c0,0,0,0,0,.01,0,0,0-.01.01-.02,0,0,0-.01,0-.02,0,0,0,0,0,0,0,0,0,0,0,0,0,0,0,.02,0,.02,0,0,0,.01-.02.02,0,0,0,0,0,0,0,0,0-.01,0-.02s0-.01,0-.02c0,0,0-.02-.01-.02s0-.02,0-.03c0,0,0,0,0,0s0,0,0,0h0ZM18.21,4.32s0-.02,0-.03c0,0,0,0,0,0,0,0,0,0,0,0,0,0,0,.02,0,.03,0,0,0,0,0,0,0,0,0,0,0,0h0ZM18.2,4.36v-.02s0,0,0,0,0,0,0,0v.02s0,0,0,0,0,0,0,0ZM18.17,4.43s0,0,0,0c0,0,0,0,0-.01,0,0,0,0,0,0,0,0,0,0,0,0,0,0,0,0,0,.01,0,0,0,0,0,0,0,0,0,0,0,0s0,0,0,0h0ZM18.13,4.2h0s0,0,0,0,0,0,0,0h0s0,0,0,0,0,0,0,0ZM18.06,4.36s0,0,0,0h0s0,0,0,0,0,0,0,0h0s0,0,0,.01c0,0,0,0,0,0s0,0,0,0h0ZM18.24,4.08s0,.02,0,.04c0,.01,0,.02.01.02,0,0,.01.01.02.02,0,0,0,0,0,0,0,0,0,0,0-.01,0,0,0-.01,0-.02,0,0,0,0,0,0,0,0,0,0,0,0,0,0,0,.01,0,.02,0,0,0,.01,0,.02,0,0,0,0,0,0,0,0,0,0,0,0,0,0,0-.02-.02-.02,0,0-.01-.02-.01-.03,0-.01,0-.02,0-.04,0,0,0,0,0,0s0,0,0,0h0ZM18.23,4.03s0,.02,0,.03c0,0,0,.02,0,.03,0,.01,0,.02,0,.04,0,.01,0,.02,0,.04,0,0,0,0,0,0,0,0,0,0,0,0-.01-.02-.01-.05,0-.07,0,0,0-.02,0-.03,0,0,0-.02,0-.03,0,0,0,0,0,0,0,0,0,0,0,0h0ZM18.15,4.14s0,.01,0,.02c0,0,0,.01,0,.02,0,0,0,0,0,0,0,0,0,0,0,0,0,0,0-.01,0-.02,0,0,0-.01,0-.02,0,0,0,0,0,0s0,0,0,0h0ZM18.11,4.13s0,0,0,.01c0,0,0,0,0,0h0s0,0,0,0c0,0,0,0,0,0,0,0,0,0,0,0s0,0,0,0c0,0,0,0,0-.01,0,0,0,0,0-.01,0,0,0,0,0,0,0,0,0,0,0-.01,0,0,0,0,0,0,0,0,0,0,0,0h0ZM18.32,3.83s0,.04.01.05c0,0,0,0,0,0s0,0,0,0c0,0,0-.02-.01-.03s0-.02,0-.03c0,0,0,0,0,0,0,0,0,0,0,0h0ZM18.29,3.85s0,.02.01.03,0,.02,0,.03c0,0,0,0,0,0s0,0,0,0c0-.02,0-.04-.02-.06,0,0,0,0,0,0s0,0,0,0h0ZM18.16,3.86s-.02.03-.02.04c0,.01,0,.02,0,.03h0s0,.02,0,.03c0,0,0,.02,0,.03,0,0,0,0,0,0,0,0,0,0,0,0,0,0,0-.02,0-.03,0,0,0-.02,0-.03,0,0,0-.02,0-.03s0-.03.02-.05c0,0,0,0,0,0,0,0,0,0,0,0h0ZM18.28,3.8s0,.01,0,.02c0,0,0,0-.01.01,0,0,0,.01-.01.02,0,0,0,.02,0,.02,0,0,0,0,0,0,0,0,0,0,0,0,0,0,0-.02,0-.03,0,0,0-.01.01-.02,0,0,0,0,.01-.01,0,0,0,0,0-.01,0,0,0,0,0,0,0,0,0,0,0,0h0ZM18.16,3.82s0,.02,0,.02c0,0,0,.02-.01.02h0s-.01.01-.01.02c0,0,0,.02,0,.03,0,0,0,0,0,0s0,0,0,0c0,0,0-.02,0-.03s0-.02.01-.02c0,0,.01-.01.01-.02,0,0,0-.01,0-.02,0,0,0,0,0,0s0,0,0,0h0ZM18.23,3.82s0,0,0,0c0,0,0,0,0,0,0,0,0,0,0,0,0,0,0,0,0,0,0,0,0,0,0,0,0,0,0,0,0,0,0,0,0,0,0,0s0,0,0,0h0ZM18.22,3.8s-.01,0-.02.01c0,0,0,.02,0,.03,0,0,0,0,0,0,0,0,0,.01,0,.02,0,0,0,.01,0,.02,0,0,0,0,0,0s0,0,0,0c0,0,0-.02,0-.02,0,0,0-.01,0-.01-.01.01-.02.03-.02.04,0,.02,0,.03.02.05,0,0,0,0,0,0s0,0,0,0c-.01-.02-.02-.04-.02-.05,0-.02,0-.03.02-.05h0s0-.02,0-.03c0,0,0-.01.02-.02,0,0,0,0,0,0,0,0,0,0,0,0h0ZM18.2,3.77s0,0,0,0c0,0,0,.02,0,.02,0,0,0,0,0,.01,0,0,0,0,0,.01,0,0,0,0,0,0,0,0,0,0,0,0,0,0,0-.01,0-.01,0,0,0,0,0-.01,0,0,0-.01,0-.02,0,0,0,0,0,0,0,0,0,0,0,0s0,0,0,0h0ZM18.4,3.99s0,0,0,.01,0,0,0,.01c0,0,0,0,0,0s0,0,0,0c0,0,0,0,0-.01,0,0,0,0,0-.01,0,0,0,0,0,0s0,0,0,0h0ZM18.4,4.05s0,.02,0,.02,0,.02,0,.02c0,0,0,.01,0,.02,0,0,0,0,0,0s0,0,0,0c0,0,0-.01,0-.02h0s0-.02,0-.02c0,0,0-.01,0-.02,0,0,0,0,0,0,0,0,0,0,0,0h0ZM18.36,3.99s.02.03.02.04c0,.01,0,.03,0,.05,0,0,0,0,0,0s0,0,0,0c0-.02,0-.03,0-.04s-.01-.03-.02-.04c0,0,0,0,0,0s0,0,0,0h0ZM18.36,4.07s-.02.03-.03.05c0,0-.02.02-.02.03,0,0,0,0,0,0,0,0,0-.01,0-.02s0-.01,0-.02h0s0-.02,0-.03c0,0,0-.02.01-.03,0,0,0-.01,0-.02s0-.01,0-.02c0,0,0,0,0,0s0,0,0,0c0,.02,0,.03-.01.04h0s-.01.02-.01.03c0,0,0,.02,0,.03h0s0,.01,0,.02c0,0,0,0,0,0,0,0,0-.02.02-.03,0,0,.01-.01.02-.02,0,0,0-.02.01-.02,0,0,0,0,0,0s0,0,0,0h0ZM18.25,4.03s0,.02,0,.03c0,0,0,.02,0,.02,0,0,0,0,0,0,0,0,0,0,0,0,0,0,0-.02,0-.02,0,0,0-.02,0-.03,0,0,0,0,0,0,0,0,0,0,0,0h0ZM18.19,4.06h0s0,.01,0,.01,0,0,0,0h0s0-.01,0-.01,0,0,0,0h0ZM18.21,4.01s0,.01,0,.02c0,0,0,.01,0,.02,0,0,0,0,0,0,0,0,0,0,0,0,0,0,0,0,0-.02,0,0,0-.01,0-.02,0,0,0,0,0,0s0,0,0,0h0ZM18.15,4.12s-.01-.05,0-.06c0-.01,0-.03.02-.04,0,0,.01-.01.02-.02s0-.02,0-.03c0,0,0,0,0,0s0,0,0,0c0,.01,0,.02,0,.03,0,0,0,.02-.02.02-.01,0-.02.02-.02.04,0,.02,0,.03,0,.06,0,0,0,0,0,0s0,0,0,0h0ZM18.12,4.08s0,0,0,.01c0,0,0,0,0,.01,0,0,0,0,0,0,0,0,0,0,0,0,0,0,0,0,0-.01s0,0,0-.01c0,0,0,0,0,0,0,0,0,0,0,0h0ZM18.28,3.96s.01.02.01.03,0,.02,0,.03c0,0,0,0,0,0,0,0,0,0,0,0,0-.01,0-.02,0-.03,0,0,0-.02-.01-.03,0,0,0,0,0,0s0,0,0,0h0ZM18.33,3.92s0,.04,0,.06c0,0,0,0,0,0,0,0,0-.02,0-.02s0-.01-.02-.02c0,0,0,0,0,0s0,0,0,0c0,0,.01.01.02.02,0,0,0,.01,0,.02,0,0,0-.01,0-.02,0,0,0-.02,0-.03,0,0,0,0,0,0,0,0,0,0,0,0h0ZM18.36,3.88s.01.02.01.03c0,.01,0,.02,0,.04h0s0,.01,0,.02c0,0,0,.01,0,.01,0,0,0,0,0,0,0,0,0,0,0,0,0,0,0-.01,0-.02,0,0,0-.01,0-.02h0s0-.03,0-.04c0,0,0-.02-.01-.02,0,0,0,0,0,0,0,0,0,0,0,0h0ZM18.28,3.88s0,.01,0,.02c0,0,0,.02,0,.02,0,0,0,0,0,0,0,0,0,0,0,0,0,0,0-.02,0-.02,0,0,0-.01,0-.02,0,0,0,0,0,0s0,0,0,0h0ZM18.13,3.98s0,.03-.01.04c0,.01-.02.02-.03.02,0,0,0,0,0,0s0,0,0,0c.01,0,.02-.01.03-.02,0,0,.01-.02.01-.04,0,0,0,0,0,0s0,0,0,0h0ZM18.12,3.93s0,.01,0,.02c0,0,0,.01,0,.02,0,0,0,0,0,0,0,0,0,0,0,0,0,0,0-.01,0-.02s0-.01,0-.02c0,0,0,0,0,0s0,0,0,0h0ZM18.23,3.92h0s0,.03,0,.03h0s0,0,0,0h0s0,0,0,0c0,0,0,0,0,0v-.03h0s0,0,0,0c0,0,0,0,0,0h0s0,0,0,0h0ZM18.25,3.87s-.01.02-.01.03,0,.02,0,.03c0,.01.01.03.01.04,0,.01,0,.03-.01.04,0,0,0,0,0,0s0,0,0,0c0-.01.01-.03.01-.04,0-.01,0-.03-.01-.04h0s0-.02,0-.03c0,0,0-.02.01-.03,0,0,0,0,0,0s0,0,0,0h0ZM18.09,3.58s.02-.01.04-.02c.01,0,.03,0,.04,0h.01s0,0,.01,0c0,0,0,0,0,0s0,0,0,0c0,0,0,0-.01,0h-.01s0,0,0,0c-.01.01-.03.02-.04.02-.01,0-.02,0-.03,0,0,0,0,0,0,0s0,0,0,0c0,0,.02,0,.03,0,0,0,.02,0,.03-.02-.01,0-.02,0-.03,0-.01,0-.02,0-.03.02,0,0,0,0,0,0,0,0,0,0,0,0h0Z"/>
      <path class="cls-6" d="M18.13,3.58s0,0,0,0c0,0,0,0,0,0,0,0,0,0,0,0s0,0,0,0h0ZM18.19,3.63s.01,0,.02-.01c0,0,0,0,.01-.01,0,0,0,0,0,0s0,0,0,0c0,0,0,0-.01.01,0,0,0,0-.02.01,0,0,0,0,0,0,0,0,0,0,0,0h0ZM18.32,3.58s0,0,.01,0c0,0,0,0,0,0,0,0,0,0,0,0s0,0,0,0c0,0,0,0,0,0s0,0,0,0c0,0,0,0,0,0,0,0,0,0,0,0h0ZM18.25,3.58s0-.01.01-.02c0,0,.01,0,.02,0,0,0,0,0,0,0s0,0,0,0c0,0-.02,0-.02,0,0,0,0,0-.01.01,0,0,0,0,0,0s0,0,0,0h0ZM18.25,3.59s0,0,0,0c0,0,0,0,0,0,0,0,0,0,0,0s0,0,0,0c0,0,0,0,0,0,0,0,0,0,0,0,0,0,0,0,0,0s0,0,0,0h0ZM18.13,3.64s0,0,0,0c0,0,0,0,0,.01,0,0,0,0,0,0s0,0,0,0c0,0,0,0,0-.01,0,0,0,0,0-.01,0,0,0,0,0,0,0,0,0,0,0,0h0ZM18.17,3.65h0s0,0,0,0,0,0,0,0h0s0,0,0,0,0,0,0,0ZM18.14,3.61s0,0,.01,0c0,0,0,0,.01,0,0,0,0,0,0,0s0,0,0,0c0,0,0,0-.01,0,0,0,0,0-.01,0,0,0,0,0,0,0,0,0,0,0,0,0h0ZM18.17,3.55s0,0,0,0c0,0,0,0,0,0,0,0,0,0,0,0s0,0,0,0c0,0,0,0,0,0,0,0,0,0,0,0,0,0,0,0,0,0s0,0,0,0h0ZM18.13,3.55s0,0,0,0c0,0,0,0,0,0,0,0,0,0,0,0s0,0,0,0c0,0,0,0,0,0,0,0,0,0,0,0,0,0,0,0,0,0,0,0,0,0,0,0ZM18.1,3.55s0,0,0,0,0,0,0,0c0,0,0,0,0,0,0,0,0,0,0,0,0,0,0,0,0,0s0,0,0,0c0,0,0,0,0,0s0,0,0,0ZM18.08,3.57s0,0,0,0,0,0,0,0c0,0,0,0,0,0s0,0,0,0c0,0,0,0,0,0s0,0,0,0c0,0,0,0,0,0,0,0,0,0,0,0h0ZM18.08,3.61s0,0,0,0h0s0,0,0,0,0,0,0,0h0s0,0,0-.01c0,0,0,0,0,0s0,0,0,0h0ZM18.05,3.61h0s0,.01,0,.01,0,0,0,0h0s0-.01,0-.01,0,0,0,0ZM18.09,3.66s0,.01,0,.02h0s0,0,0,0,0,0,0,0c0,0,0,0,0,0v-.02s0,0,0,0,0,0,0,0h0ZM18.06,3.65s0,0,0,.01c0,0,0,0,0,0s0,0,0,0c0,0,0,0,0-.01,0,0,0,0,0,0s0,0,0,0h0ZM18.04,3.49s.01,0,.02.02c0,0,0,0,0,0s0,0,0,0c0,0,0,0,0,0,0,0,0,0,0,0,0,0,0,0,0,0,0,0,0,0,0,0h0ZM18.23,3.73s0,.02,0,.02c0,0,0,.02,0,.02,0,0,0,0,0,0s0,0,0,0c0,0,0-.01,0-.02,0,0,0-.02,0-.02,0,0,0,0,0,0s0,0,0,0ZM18.17,3.8s0-.02.01-.02,0-.01.01-.02c0,0,0-.02.01-.02,0,0,0-.02,0-.03,0,0,0,0,0,0,0,0,0,0,0,0,0,0,0,.02,0,.03,0,0,0,.02-.01.03,0,0,0,.01-.01.02,0,0,0,.01-.01.02,0,0,0,0,0,0s0,0,0,0h0ZM18.09,3.78s0,0,0,0,0,0,0,0c0,0,0,0,0,0,0,0,0,0,0,0,0,0,0,0,0,0,0,0,0,0,0,0,0,0,0,0,0,0,0,0,0,0,0,0h0ZM18.08,3.77s0,0,0-.01c0,0,0,0,.01,0,0,0,0,0,0,0,0,0,0,0,0,0,0,0,0,0-.01,0,0,0,0,0,0,0,0,0,0,0,0,0,0,0,0,0,0,0h0ZM18.15,3.69s0,0,0,0,0,0,0,0c0,0,0,0,0,0s0,0,0,0c0,0-.01,0-.02,0,0,0,0,0,0,0s0,0,0,0h0ZM18.12,3.69h0s0,0,0,0c0,0,0,0,0,0,0,0,0,0,0,0h0s0,0,0,0c0,0,0,0,0,0,0,0,0,0,0,0h0ZM18.97,3.93s0,0,0,0c0,0,0,0,0,0,0,0,0,0,0,0,0,0,0,0,0,0,0,0,0,0,0,0,0,0,0,0,0,0,0,0,0,0,0,0s0,0,0,0h0ZM18.02,4.38s0,0,.01,0c0,0,0,0,.02,0,0,0,0,0,0,0s0,0,0,0c0,0-.01,0-.02,0,0,0,0,0-.01,0,0,0,0,0,0,0s0,0,0,0h0Z"/>
      <g>
        <path class="cls-8" d="M18.74,3.53s.04,0,.06,0c-.02.01-.04.02-.07.03,0,0,0,0,0-.01,0,0,0,0,0-.01ZM18.69,3.52s.03,0,.04,0c0,0,0,0,0,0,0,0,0,0,0,0,0,0,0,0,0,.01,0,0,0,0,0,0-.01,0-.03,0-.04,0,0,0,0,0,0,0,0,0,0-.01,0-.02,0,0,0,0,0-.01h0ZM18.32,3.42s.05,0,.07,0c0,0,.01,0,.02.01,0,0,0,.02,0,.03,0,0,0,0,0,0,0,0,0,0,0,0,0-.01,0-.02,0-.03,0,0,0,0,0-.01,0,0,0,0,0,0,.03,0,.05,0,.07.02,0,0,0,0,0,0,0,0,0,.01,0,.02,0,0,0,.01-.01.02,0,0,0,0,0,0,0,0,0,0,0,0,0,0,.01-.02.01-.02,0,0,0,0,0-.01.02.01.04.02.06.03,0,0,0,0,0,0,0,0,0,0,0,0,0,0,0,.01,0,.02,0,0,0,0-.02.01,0,0,0,0,0,0,0,0,0,0,0,0,0,0,.02,0,.02-.01,0,0,0-.01,0-.02.01,0,.03.01.04.02h0s0,0,0,.01c0,0,0,0-.01.01,0,0,0,0,0,0s0,0,0,0c0,0,.01,0,.02-.02,0,0,0,0,0-.01,0,0,0,0,.01,0,.01,0,.03,0,.05.01,0,0,0,0,0,0,0,0,0,0,0,.01,0,0,0,0,0,.01,0,0,0,0,0,0,0,0,0,0,0,0-.05,0-.1-.03-.15-.05,0,0-.01,0-.02,0-.02,0-.04-.02-.05-.02,0,0,0,0,0,0,0,0,0,0,0,0,0,0,0,0,0,0,0,0,0,0,0,0-.02,0-.03,0-.05-.01-.02,0-.04,0-.06,0h0s0-.02,0-.03c0,0,0-.01-.02-.01h0Z"/>
        <path class="cls-8" d="M18.23,3.44s.05-.02.07-.02c.01,0,.02.01.02.02,0,0,0,.01,0,.02-.02,0-.04,0-.07,0,0-.01-.01-.02-.02-.02,0,0,0,0-.01,0h0ZM18.49,3.57s-.01,0-.02-.01c-.03-.02-.07-.03-.11-.03,0,0,0,0,0,0,.01-.01.02-.03.01-.04,0,0-.01-.02-.02-.03.01,0,.02,0,.04,0,.02,0,.04,0,.06.02,0,.01,0,.02,0,.03,0,0,0,.02-.02.02,0,0,0,0,0,0s0,0,0,0c.01,0,.02-.02.02-.03,0,0,0-.02,0-.03.01,0,.03.01.04.02.01,0,.02.02.04.03,0,.01,0,.02-.01.03,0,0-.02,0-.03,0,0,0,0,0,0,0h0Z"/>
        <path class="cls-8" d="M18.57,3.63s-.04-.03-.07-.05c.01,0,.02,0,.03,0,0,0,.01-.01.01-.03.01.01.03.02.04.03,0,0,.01.01.02.02,0,0,0,0,0,0,0,0,0,0,0,.01,0,0,0,0,0,0,0,0,0,0,0,0,0,0-.01,0-.02,0,0,0,0,0,0,0h0Z"/>
        <path class="cls-8" d="M18.64,3.68s-.01,0-.02-.01c-.02,0-.03-.02-.05-.03,0,0,.02,0,.02,0,0,0,0,0,.01,0,0,0,0,0,0-.01,0,0,0,0,0,0,.02.01.03.02.05.04,0,0,.02.01.03.02,0,0,0,0,0,0,0,0,0,.01,0,.01,0,0-.02,0-.03,0,0,0,0,0,0,0h0Z"/>
        <path class="cls-8" d="M18.72,3.71s-.05-.02-.07-.03c.01,0,.02,0,.03,0,0,0,.01,0,.01-.02.01,0,.03.01.05.02,0,0,0,.01,0,.01,0,0,0,0-.02.01,0,0,0,0,0,0h0s0,0,0,0Z"/>
        <path class="cls-8" d="M18.89,3.69s.02,0,0,0c-.05.03-.11.03-.17.02,0,0,.02,0,.02-.02,0,0,0,0,0-.02.02,0,.04.01.06.01,0,0,0,0,0,0,0,0,0,0-.02.01,0,0,0,0,0,0,0,0,0,0,0,0,0,0,.02,0,.02-.01,0,0,0,0,0-.01.02,0,.05,0,.08,0h0ZM18.55,4.54s0,0,0,.01c-.01,0-.03.01-.04.01,0,.01,0,.01.01.01.02,0,.02-.01.03-.01,0,0,0,.02-.02.03,0,0,0,0,0,0,.01.02.05.01.07,0,.01,0,.04-.02.04-.03,0,0,0-.01,0-.02-.01,0-.02,0-.02,0-.02,0-.03,0-.05,0h0ZM18.01,4.37s-.02.02-.04.02c0,0-.02,0-.02.01,0,0,0,0,.01,0,.02-.02.02,0,0,0,0,0,0,0,0,0,.02.01.06.02.08,0,.01,0,.02-.02,0-.03,0,0,0,0,0,0h-.02s-.01-.01-.01-.01h-.01ZM18.36,4.5s0,0,0,0c0,0,.01,0,.02.01,0,0,0,0,0,.02,0,.02-.06.02-.08,0,0,0,0,0,0-.02,0,0,0,0,.01,0,0,0,.01,0,.02,0,0,0,0,0,0,0,0,0,0,0,0,0,0,0-.01,0-.02,0,0,0-.01,0-.02,0h0s0,0,0,0c0,0,0,0,0,0,0,0,.02,0,.03,0,0,0,0,0,0,0,.02,0,.03,0,.04,0h0ZM18.11,4.48s0,0,0,.01c0,0-.02.02-.03.02-.01,0,0,0,0,.01,0,0,.01,0,.02-.01,0,0,.01,0,0,0,0,0,0,.02,0,.02,0,0,.02.01.02.01.01,0,.03-.01.04-.02,0,0,0-.02,0-.03h0s-.01,0-.02,0c0,0-.01,0-.02,0,0,0,0,0,0,0,0,0,0,0,0,0h-.02s0,0,0,0ZM18.21,3.55s0,0,.01,0c0,0,.01,0,.02,0,.02,0,.04-.01.06-.01.02,0,.04,0,.06,0,0,0,0,0,0,0,0,0,0,0,0,0,.01-.01.01-.02.01-.03,0,0-.01-.02-.03-.03-.01,0-.03,0-.05,0,0,0-.02,0-.03,0,0,0,.01,0,.02.01,0,0,.01.02.01.03,0,0,0,0,0,0s0,0,0,0c0-.01,0-.02-.01-.03,0,0-.02-.01-.03-.02-.02,0-.03,0-.05,0-.01,0-.02,0-.03.01.01,0,.02,0,.03,0,0,0,.02.01.02.03,0,0,0,0,0,0s0,0,0,0c0-.01-.01-.02-.02-.02-.01,0-.04,0-.06,0,0,0-.01.01-.02.02,0,0,0,0,0,0,.03,0,.05,0,.08.01h0ZM18.13,3.53s0,0,0,0c0,0,.02-.02.02-.02,0,0,.02,0,.02-.01,0,0,.02-.01.04-.02.01,0,.03,0,.05,0,0,0-.01-.02-.02-.02,0,0-.02,0-.03,0-.02,0-.04.02-.05.03,0,0,0,0,0,0,0,0,0,0,.01,0,0,0,0,0,0,0,0,0-.01,0-.02,0,0,0,0,0-.01,0,0,0,0,0,0,0-.02.01-.03.02-.05.03.01,0,.02,0,.02.01h0Z"/>
      </g>
      <path class="cls-1" d="M20.16,5.54l.73-1.67-.54-.88-.97.36-.45,1.76c.42.11.83.25,1.22.42h0Z"/>
      <path class="cls-2" d="M19.22,4c.48.12.95.28,1.4.49l-.28.64c-.42-.18-.85-.33-1.29-.45l.17-.68Z"/>
      <path class="cls-8" d="M20.39,5.03l.19-.43c-.45-.2-.91-.36-1.38-.48l-.11.44c.45.11.89.27,1.31.45h0s0,.01,0,.01Z"/>
      <path class="cls-6" d="M19.33,4.46s.03,0,.04,0c.01,0,.02,0,.04,0,0,0,.01,0,.02,0,0,0,0,0,0-.01,0,0,0,0,0-.01-.02-.01-.03-.03-.04-.05-.01,0-.02,0-.02-.01,0,0-.01,0-.02,0-.03,0-.04,0-.05-.01,0,0-.02,0-.02-.02,0,0,0,0,0-.01,0,0,0-.02,0-.02,0,0,.02,0,.02,0,0,0,.02,0,.03,0,.01,0,.02,0,.03-.02h0s0-.02,0-.02c.02,0,.02,0,.03.02.02,0,.03.01.04.03.02,0,.04,0,.04.02,0,0,0,.01-.02.02,0,0,0,0,0,0,0,0,.01.01.01.02.01,0,.03.01.04.02.03,0,.09.02.17.07.05,0,.1.02.15.04,0,0,.02,0,.03,0,.08-.01.17,0,.24.05.03,0,.05.01.08.02.02,0,.04.01.06.01.03,0,.06.01.09.02.03,0,.07.02.09.04.01.02.01.03,0,.04-.01.02-.03.02-.07.01-.02,0-.05-.01-.07-.03-.03,0-.06-.03-.09-.05-.01-.01-.03-.02-.04-.02-.01,0-.02,0-.03,0,0,0,0,0,0,0,0,0,.01.02.02.03,0,.01,0,.02,0,.04,0,.01,0,.02.02.03,0,0,.02.01.04.01,0,0,0,0,0,.01,0,.02,0,.04.02.06,0,0,0,0,.01.01.02.01,0,.03,0,.04-.02.01-.03.02-.05.03-.01,0-.02,0-.02,0,0,0-.01,0-.02,0-.02-.01,0-.03.04-.02,0,0,0,0,0,0,0-.01,0-.02,0-.03,0,0,0,0-.01,0-.01,0-.03-.01-.04-.02-.02-.02-.05-.04-.08-.05-.03,0-.04-.01-.06-.02h-.03s-.01,0-.02,0c0,0-.02,0-.03,0-.01,0-.03,0-.04,0,0,0-.01,0-.02,0-.01,0-.03,0-.04,0,0,0-.02,0-.02,0,0,0-.01,0-.01,0,0,0-.02,0-.02,0-.02,0-.02,0-.02-.01-.02,0-.01-.02,0-.02.02,0,.03,0,.05,0,.01,0,.03,0,.04,0,0,0,0-.01.02-.02-.03,0-.05,0-.06-.02-.04-.03-.07-.03-.1-.01,0,0-.01,0-.02,0,0,0-.01,0-.02,0-.01,0-.03,0-.04,0-.02,0-.04,0-.07,0-.02,0-.03.01-.04,0,0,0-.02,0-.02-.01-.01,0-.02,0-.02,0-.01,0-.02,0-.02-.01,0,0,0-.01,0-.02.01,0,.02,0,.04,0,0,0,.01,0,.02.01,0,0,.02,0,.02,0,0,0,.02,0,.03,0,0,0,.02,0,.03,0,0,0,0,0,0,0-.01,0-.02-.01-.03-.03-.02,0-.04,0-.05-.02-.01,0-.02,0-.03,0,0,0-.02,0-.03,0-.02,0-.03,0-.05,0-.01,0-.02,0-.03,0-.01.01-.02.01-.03,0,0,0-.02-.01-.03-.02,0,0-.01,0-.01-.01-.01,0,0-.01,0-.02,0,0,.02,0,.03,0,0,0,.01,0,.02,0h0Z"/>
      <path class="cls-2" d="M19.88,4.62s0,0-.01,0c-.03,0-.06,0-.08-.01-.02-.01-.05-.03-.07-.03,0,0,.02-.01.03-.01.01,0,.03,0,.05,0,.03,0,.05,0,.07.02.02,0,.03.01.04.03,0,0,0,0,0,0,0,0,.01,0,.02.01,0,0,0,0,.01.01,0,0-.02,0-.03,0,0,0-.02,0-.03,0h0Z"/>
      <path class="cls-6" d="M19.94,3.36h0s.03.18.03.18l-.13.11h0s0,0,0,0l.16.06.03.17h0s0,0,0,0l.13-.11.17.06h0s0,0,0,0l-.03-.17.13-.11h0s0,0,0,0l-.16-.06-.03-.17h0s0,0,0,0l-.13.11-.17-.06h0Z"/>
      <path class="cls-3" d="M19.86,3.65l.12-.11.15.05-.28.05ZM20.16,3.59l.12-.11.15.05-.28.05ZM20.44,3.54l-.12.11-.15-.05.28-.05ZM20.14,3.6l-.12.11-.15-.05.28-.05ZM19.96,3.37l.15.05.03.16-.19-.21ZM20.16,3.6l.15.05.03.16-.19-.21ZM20.34,3.82l-.15-.05-.03-.16.19.21ZM20.14,3.59l-.15-.05-.03-.16.19.21ZM20.25,3.32l.03.16-.12.11.09-.27ZM20.15,3.6l.03.16-.12.11.09-.27ZM20.05,3.87l-.03-.16.12-.11-.09.27ZM20.15,3.58l-.03-.16.12-.11-.09.27Z"/>
    </g>
  </g>
</svg>