<?xml version="1.0" encoding="UTF-8"?>
<svg id="Layer_2" data-name="Layer 2" xmlns="http://www.w3.org/2000/svg" viewBox="0 0 25.51 17.01">
  <defs>
    <style>
      .cls-1 {
        fill: #fff;
      }

      .cls-2 {
        fill: #d57b28;
      }

      .cls-3 {
        fill: #4e5c2d;
      }
    </style>
  </defs>
  <g id="Layer_1-2" data-name="Layer 1">
    <g>
      <path class="cls-1" d="M0,0h25.51v17.01H0V0Z"/>
      <path class="cls-2" d="M10.54,10.94s0-.03,0-.09c0-.05,0-.1,0-.12,0-.06-.01-.21-.02-.23,0,0,0-.02,0-.03s0-.03-.01-.04c0-.01-.02-.04-.03-.06,0-.02-.02-.03-.03-.05-.01-.02-.08-.09-.09-.09,0,0-.01,0-.02-.02,0,0-.02-.02-.02-.02s-.01,0-.02-.01c0,0-.02-.01-.02-.01s-.01,0-.02,0c-.03-.02-.06-.04-.11-.07l-.05-.03h-.07s-.09.01-.12.02c-.03,0-.07.01-.1.01s-.04,0-.05,0c0,0-.03,0-.05,0-.08,0-.16.03-.19.06,0,0-.02.01-.02.01s-.01,0-.02.01c-.02.02-.06.03-.13.03-.03,0-.06,0-.06,0,0,0-.01,0-.02,0,0,0-.03,0-.04.01-.03.01-.09.03-.12.03-.02,0-.07,0-.1-.03-.01,0-.02-.02-.04-.02,0,0-.02-.02-.04-.03-.02-.02-.04-.03-.07-.05-.01,0-.02-.01-.04-.02-.02,0-.03,0-.08,0-.08,0-.11,0-.14,0-.04,0-.09-.05-.09-.08,0-.03-.08-.1-.12-.1,0,0-.02,0-.03,0l-.1-.03s-.1-.03-.12-.05c-.02-.01-.04-.02-.05-.02,0,0-.02,0-.03-.01s-.03-.01-.03-.01-.01,0-.02,0c0,0-.04,0-.08-.01-.04,0-.07,0-.09-.01-.01,0-.04,0-.07-.01-.05,0-.09-.02-.12-.04-.01,0-.03-.02-.04-.02,0,0-.02-.01-.03-.02,0,0-.01-.01-.02-.01s-.04-.03-.08-.07c-.04-.04-.07-.07-.08-.07,0,0-.02-.01-.03-.02-.01-.01-.03-.02-.03-.02,0,0-.06-.05-.08-.08-.01-.02-.04-.07-.07-.12-.02-.05-.05-.1-.06-.12,0-.01-.03-.06-.05-.09-.03-.06-.03-.07-.03-.11,0-.02,0-.04,0-.05-.01-.01-.01-.18,0-.19s0-.05,0-.07c0-.01-.05-.04-.08-.06-.02-.01-.08-.02-.11-.02-.08,0-.11-.04-.13-.15,0-.05-.02-.08-.04-.17-.01-.04-.02-.08-.02-.09,0,0,0-.02,0-.02,0,0,0,0,0-.02,0-.02-.02-.08-.04-.12,0,0,0-.02,0-.02,0,0,0-.01,0-.02,0,0,0-.02,0-.04s0-.04,0-.04c0,0,0-.03,0-.07,0-.07-.01-.11-.03-.13,0,0,0-.01,0-.02,0,0-.03-.04-.04-.04s-.09-.08-.09-.09c0,0,0-.01-.01-.02,0,0-.01-.02-.02-.03,0-.01,0-.02,0-.02,0,0,0-.01,0-.02s0-.02,0-.02,0,0,0-.01c0-.01-.03-.08-.05-.1,0,0-.01-.02-.02-.03,0,0,0-.02-.01-.03,0-.01-.01-.02-.02-.03,0-.01-.02-.04-.03-.06s-.02-.04-.02-.05,0,0,0,0,0,0,0-.02,0-.02,0-.02c0,0,0-.01,0-.03,0-.05-.03-.15-.05-.16,0,0,0-.05-.01-.15,0-.1,0-.14-.01-.14,0,0-.01-.12,0-.12.01,0,.03,0,.04.03,0,.01.02.03.03.04,0,0,.01.02.01.02s0,.01.02.02c0,0,.02.02.02.02,0,0,.03.04.04.04,0,0,.02.01.04.03.04.04.1.08.11.08,0,0,.01,0,.02.02,0,0,.02.02.02.02s.02,0,.03.02.02.02.02.02.02,0,.03.02.02.02.03.02.02,0,.03.02c.04.03.06.03.14.06.16.05.21.06.33.07.09,0,.2,0,.24-.03.01,0,.03-.01.04-.02.03-.01.12-.1.13-.11,0,0,.01-.02.03-.04.02-.02.03-.03.03-.04s.01-.02.02-.03c.01-.01.02-.03.02-.03,0,0,0-.01.02-.03.01-.01.02-.02.02-.03,0,0,0-.01.02-.02,0,0,.02-.02.02-.02s0-.01.01-.02c0,0,.01-.02.01-.02s0-.01,0-.02c0,0,.02-.02.03-.04,0-.02.02-.04.03-.05,0-.01.02-.04.04-.06.01-.02.03-.05.03-.06.03-.04.06-.1.06-.11,0,0,0,0,.01-.02,0,0,.01-.01.01-.02s0-.02.02-.03c0-.01.02-.02.02-.03s0-.01.01-.02c0,0,.01-.01.01-.02s.02-.03.05-.05c.03-.02.05-.05.06-.06.01-.02.02-.02.06-.02.03,0,.05,0,.05,0,0,0,.02,0,.03,0,.01,0,.03,0,.03.01.01,0,.09,0,.12,0,.01,0,.04-.02.06-.03s.04-.02.05-.02,0,0,.01,0c0,0,.1-.05.13-.06.02,0,.06,0,.12,0,.05,0,.11,0,.14,0,.07,0,.14.01.2.03.03,0,.06.02.08.02.02,0,.04.01.06.02.02,0,.03.01.04.02.02,0,.11.05.13.06,0,0,.02,0,.03,0s.01,0,.02,0c0,0,.01,0,.01,0,0,0,.02,0,.05.02.01,0,.03.01.04.02.01,0,.03.01.04.01,0,0,.02,0,.03,0s.02,0,.02,0c0,0,.04,0,.11,0s.1,0,.11,0c0,0,.04,0,.11,0s.1,0,.11,0c0,0,.02,0,.03,0s.03,0,.04,0c0,0,.02,0,.03-.01.01,0,.03-.02.05-.03.02-.01.04-.02.04-.02s.01-.01.03-.02c.01-.01.02-.02.03-.02,0,0,.07-.07.07-.07,0,0,0-.01.02-.02,0,0,.02-.03.03-.04.04-.08.07-.16.07-.18,0,0,0-.02,0-.02,0,0,0-.03.01-.05,0-.03,0-.06.01-.07,0-.01,0-.04,0-.07,0-.06,0-.09.02-.12,0,0,.01-.02.01-.02s.01-.02.03-.04c.02-.02.03-.04.03-.05,0-.02,0-.03-.01-.05,0-.02-.01-.04-.01-.05,0-.02.02-.1.02-.11,0,0,0-.04,0-.08,0-.08,0-.09-.04-.13-.01-.01-.02-.02-.02-.03s0-.01-.01-.02c0,0-.02-.03-.04-.06l-.02-.05v-.14c0-.07,0-.14,0-.15,0-.02.02-.14.02-.22,0-.07,0-.08.01-.08,0,0,.02,0,.03.02,0,0,.02.02.03.02s0,0,0,0,0,.01.02.02c.01,0,.03.02.05.03.02.01.03.02.04.03,0,0,.02.01.03.02.01,0,.03.02.04.02.01,0,.03.01.03.02.01.01.19.1.2.1,0,0,.01,0,.02,0,0,0,.08.03.1.04,0,0,.02,0,.02,0,0,0,.01,0,.02,0,.01,0,.02,0,.03,0,.03.01.12.04.15.04.01,0,.1,0,.19,0,.16,0,.22.01.3.03.03,0,.08.02.1.02.01,0,.02,0,.03,0,0,0,.02,0,.04,0,.01,0,.05,0,.07.01s.06.01.07.01c.01,0,.03,0,.04,0,0,0,.03,0,.04,0,.02,0,.05,0,.06,0,.02,0,.06,0,.09.01.03,0,.06,0,.07.01,0,0,.03,0,.05,0h.07s.04.01.05.02c0,0,.03,0,.06,0s.08,0,.11.01c.04,0,.09.01.12.01s.06,0,.07,0c0,0,.04,0,.08,0,.18,0,.26.02.3.04.01,0,.03.01.04.01s.02,0,.02,0c0,0,.03,0,.04,0,0,0,.02,0,.04,0s.04,0,.04,0c0,0,.03,0,.07,0,.08,0,.16-.01.24-.03.03,0,.07-.01.09-.01.02,0,.03,0,.04,0,0,0,.03,0,.04,0,.07,0,.15-.02.16-.02,0,0,.05,0,.1,0,.05,0,.09,0,.09,0,0,0,.03,0,.06,0s.06,0,.06,0c0,0,.02,0,.04,0s.04,0,.05,0c.01,0,.04-.01.07-.02.04-.01.08-.02.13-.03.07-.02.08-.02.18-.02.08,0,.12,0,.12,0,0,0,.04,0,.06,0s.05,0,.05,0c0,0,0,0,.02,0s.01,0,.01,0,0,0,.01,0c0,0,.02,0,.03-.01.01,0,.02-.01.03-.02,0,0,.02-.01.03-.02.07-.06.13-.11.13-.11,0,0,.01,0,.02-.02,0,0,.02-.02.02-.02s.01,0,.02,0c0,0,.03-.02.1-.06.03-.01.1-.04.1-.04,0,0,.02,0,.04-.02.02,0,.03-.02.04-.02,0,0,.07-.03.09-.04,0,0,.02,0,.03,0s.02,0,.02,0c.01-.01.16-.05.19-.05.01,0,.02,0,.02,0,0,0,.01,0,.03,0,.03,0,.13-.03.16-.04.01,0,.03,0,.04,0s.02,0,.03,0c0,0,.01,0,.02,0s.03,0,.04,0c.01,0,.04,0,.05,0s.03,0,.03,0c0,0,.01,0,.03,0s.03,0,.03,0c0,0,.05-.02.09-.03.04-.01.09-.03.1-.03.03-.01.06-.03.1-.04,0,0,.03-.01.04-.02.01,0,.03-.01.04-.02.04-.02.11-.05.13-.06.02-.01.03-.02.05-.03.01,0,.03-.01.03-.02,0,0,.01-.01.02-.02s.03-.02.05-.03c.02-.01.04-.02.04-.03,0,0,.02,0,.02-.01,0,0,.01-.01.03-.02.01,0,.02-.01.02-.02s0,0,.01,0,.01,0,.02,0c0,0,.04-.02.08-.04.04-.02.08-.04.08-.04,0,0,.01,0,.01,0,0,0,.02-.01.03-.02s.03-.02.03-.02.02-.01.03-.02c.01-.01.03-.02.03-.02s.02,0,.03-.02c.03-.02.09-.06.13-.07.02,0,.05-.01.17-.02.04,0,.08-.02.09-.04,0,0,0,0,.01,0s.02,0,.04-.02.05-.03.08-.04c.02-.01.05-.02.05-.03.02-.01.17-.08.18-.08,0,0,0,0,0,0s0,0,0,0,.01,0,.02,0c0,0,.06-.03.11-.05.05-.03.12-.06.14-.07.02-.01.06-.03.08-.04s.05-.03.05-.03c0,0,.01-.01.03-.02.01,0,.04-.02.06-.03.02-.01.04-.02.04-.02s.01,0,.02-.01c0,0,.02-.01.02-.01s.01,0,.01,0,.01-.01.02-.02c.02,0,.03-.02.04-.02.01,0,.03-.02.04-.02.01,0,.03-.02.03-.02,0,0,.01,0,.02,0s.02,0,.03,0c.02-.01.09-.01.1,0,0,.01.02.01.04,0,.01,0,.07-.03.08-.03.03,0,.14-.08.14-.1,0,0,.05-.06.06-.06,0,0,.01,0,.02-.02s.02-.02.03-.02.01,0,.02-.01c0,0,.03-.03.05-.05.02-.02.05-.04.06-.05.03-.03.1-.09.11-.09,0,0,.02-.02.03-.03.01-.01.02-.02.03-.02s.01,0,.01,0c0,0,.02-.01.02-.02.03-.02.05-.03.07-.04.03-.02.08-.03.11-.03.02,0,.1,0,.14,0,.01,0,.04-.01.05-.02s.05-.02.06-.03c.02,0,.03-.02.03-.02,0,0,0,0,.01,0,0,0,.01,0,.01,0,0,0,.02-.02.04-.03.06-.03.09-.05.11-.06.01,0,.02-.01.03-.01s0,0,.01,0c0,0,.03-.02.05-.03.03-.01.05-.03.05-.03.01,0,.03-.02.15-.08.02,0,.04-.02.05-.02h.02v.11c0,.06-.01.12-.02.14,0,.02,0,.04,0,.06,0,.02,0,.03,0,.04,0,0,0,.01,0,.02s-.02.03-.04.06c-.02.02-.04.05-.04.05s0,0,0,0,0,0-.01.02c0,0-.01.02-.02.03,0,0-.05.09-.08.14,0,0-.01.02-.02.02,0,0,0,.01,0,.02,0,0-.03.04-.05.05-.05.03-.08.04-.12.05-.02,0-.05,0-.07.01-.04,0-.12.03-.15.05-.06.03-.07.03-.09.05,0,0-.02.02-.02.02,0,0-.02.01-.03.02-.01.01-.03.02-.03.02s-.01,0-.02.01-.03.02-.05.03c-.05.02-.07.05-.07.1,0,.02,0,.03,0,.03,0,0,0,.02,0,.05s0,.05,0,.05c0,0,0,.01,0,.02,0,.02-.06.09-.09.09,0,0-.01,0-.01,0s0,0-.01,0c0,0-.02,0-.03,0-.01,0-.02,0-.03,0s-.01,0-.02,0c0,0,0,0-.02,0s-.02,0-.04.01c-.01,0-.04.02-.05.02-.01,0-.03.01-.04.02s-.01,0-.01,0c0,0,0,0-.01,0,0,0-.01,0-.02,0s-.01,0-.01,0,0,0-.01,0-.02,0-.02,0c0,0-.01,0-.02,0s-.01,0-.02.01c0,0-.01.01-.02.01,0,0-.02.01-.04.03-.02.02-.03.03-.04.03,0,0-.04.03-.07.06-.04.04-.07.06-.07.06s-.02.01-.03.02-.02.02-.03.02-.01,0-.02.02-.02.02-.02.02-.01,0-.02.01c0,0-.02.01-.02.02,0,0-.02.01-.04.02-.07.04-.22.12-.24.12,0,0-.01,0-.02,0,0,0-.01,0-.01,0,0,0-.14.06-.15.08,0,0-.02.01-.04.02-.04.02-.07.04-.1.07-.01.01-.03.02-.03.02,0,0-.03.02-.06.05-.03.03-.06.05-.06.05s-.03.02-.05.04c-.03.02-.05.04-.05.04,0,0-.12.12-.14.14-.01.02-.04.07-.04.08,0,.01-.03.06-.04.08,0,0-.02.02-.04.03-.06.04-.1.09-.12.14-.02.03-.03.06-.03.07,0,.02-.08.08-.11.08-.01,0-.06.03-.06.03,0,0,0,0-.01,0s-.02,0-.03.02c-.04.03-.06.05-.08.06-.06.04-.07.05-.1.06-.02.01-.04.02-.07.03-.02,0-.04.01-.05.02,0,0-.02,0-.04,0s-.03,0-.04,0c0,0-.02,0-.03,0-.03,0-.08.02-.11.03-.01,0-.02,0-.03,0,0,0-.01,0-.01,0s0,0-.01,0c-.01,0-.05.04-.07.06,0,.02-.02.03-.03.04,0,.01-.02.02-.02.03,0,0,0,.01-.02.02,0,0-.02.02-.02.02s0,.01,0,.02c-.01,0-.11.2-.11.21,0,0,0,.01,0,.01,0,0-.01.03-.02.06,0,.03-.02.06-.02.07,0,.02,0,.19,0,.19,0,0,0,.02,0,.03,0,.04.03.17.05.22.02.06.06.13.08.16.01.01.02.02.02.03s.01.02.03.04c.02.02.03.03.03.04,0,0,.01.02.02.03.01.01.02.02.02.03s.01.02.03.04c.02.02.03.03.03.03s.02.02.04.04c.02.02.04.04.04.05s.01.02.03.04c.02.02.03.03.03.04s.02.02.04.04.04.04.04.04.02.03.04.05c.02.02.04.05.04.05,0,0,.02.03.04.05.02.02.05.05.06.07,0,.01.03.04.06.06.02.02.04.05.04.05,0,0,.02.02.03.03.01.01.03.03.03.04,0,0,.02.02.02.03,0,0,.01.02.01.02,0,0,.02.03.04.05.04.04.07.09.09.11,0,0,.01.02.02.02.01.01.04.07.04.08,0,0,0,.02.02.04.02.05.04.11.05.14v.03s-.16,0-.16,0c-.1,0-.17,0-.17,0,0,0-.02,0-.04,0-.04,0-.06,0-.11-.03-.06-.03-.12-.06-.13-.06,0,0-.01,0-.02,0,0-.01-.15-.02-.18-.01-.01,0-.04.01-.06.01-.02,0-.04.01-.04.01,0,0,0,0-.01,0-.02,0-.11.05-.14.08-.02.01-.03.03-.03.03s-.03.02-.06.05c-.03.03-.06.05-.06.05,0,0-.02.01-.03.02-.01.01-.03.02-.03.02,0,0-.01,0-.02.01,0,0-.01.01-.02,0,0,0-.02,0-.04.01-.03.01-.05.02-.1.03,0,0-.02,0-.04,0s-.02-.01-.03-.01-.01,0-.02-.01c0,0-.01-.01-.02-.01,0,0-.02,0-.03-.02-.01-.01-.02-.02-.03-.02s-.01,0-.02-.01c-.01,0-.03-.02-.04-.03-.01,0-.03-.01-.04-.02-.02-.01-.15-.08-.22-.11-.02,0-.04-.02-.05-.02s-.01,0-.02,0c0,0-.02,0-.05-.01-.04,0-.09,0-.15,0-.02,0-.04,0-.06.01h-.05s-.03.02-.04.02c0,0-.03,0-.05,0s-.03,0-.04,0c0,0-.03,0-.07,0s-.07,0-.07,0c0,0-.02,0-.03,0-.03,0-.09.02-.12.04-.02.01-.07.06-.08.08,0,0-.01.02-.02.04,0,.01-.02.03-.02.04,0,0-.01.02-.02.04,0,.01-.02.03-.02.04,0,0,0,.02-.01.03-.03.07-.03.09-.04.19,0,.06,0,.11,0,.11,0,.02-.03.1-.03.11,0,0,0,.02.02.02.03.01.03.04.03.09,0,.05,0,.08-.02.1,0,0-.01.03-.02.04,0,.02-.02.03-.02.04,0,0-.01.02-.02.02,0,0-.02.03-.03.04-.03.04-.04.07-.04.12,0,.05,0,.06-.09.05-.04,0-.08,0-.11,0-.07-.01-.13.01-.2.08-.02.03-.08.07-.11.1-.04.03-.08.06-.09.07-.01.01-.03.02-.03.02s-.01,0-.02.02-.02.02-.02.02-.01,0-.01,0c0,0-.01,0-.02,0,0,0-.02,0-.03,0-.01,0-.03,0-.04,0s-.02,0-.03,0c0,0-.02,0-.04,0s-.03,0-.04,0c0,0-.02,0-.03,0-.03,0-.16.04-.17.05,0,0,0,0,0,0s-.01,0-.03,0c-.02,0-.04.02-.04.02-.08.03-.18.09-.19.1,0,0,0,0-.01,0s-.02,0-.02,0c0,0-.01,0-.02,0s-.01,0-.02.01c0,0-.01.01-.02.02-.01,0-.02.01-.07.04-.04.03-.07.05-.08.06,0,0-.02.01-.02.01s-.01,0-.02,0c0,0-.01,0-.02,0s-.02,0-.02,0c0,0-.02,0-.03,0s-.03,0-.03,0c0,0-.01,0-.03,0-.01,0-.04,0-.05.01-.06.01-.12.03-.14.03-.01,0-.03,0-.03,0,0,0,0,0-.01,0-.01,0-.09.04-.1.05,0,0-.01,0-.02,0s-.02.01-.03.02c-.01.01-.03.02-.03.02s-.02,0-.03.02c-.02.01-.02.02-.07.02-.03,0-.07,0-.09,0-.03,0-.05,0-.08,0-.03,0-.06,0-.08,0-.06,0-.18-.02-.3-.02-.1,0-.14,0-.21.02-.09.02-.11.02-.12.03,0,0-.02,0-.04.01-.02,0-.04.01-.05.01-.03,0-.05.02-.08.02-.05.01-.08.02-.1.03-.01,0-.03.01-.03.01-.01,0-.14.07-.16.08,0,0-.02.01-.02.01-.01,0-.11.1-.11.11,0,0-.01.02-.03.04-.05.06-.06.08-.08.13-.01.04-.01.18,0,.19,0,0,0,.02,0,.04s0,.03,0,.03c0,0,0,.02,0,.03,0,.03.02.08.04.11.01.02.02.03.05.1,0,.02.02.04.02.05.01.02,0,.03-.02.05-.02.01-.03.02-.07.02-.02,0-.05,0-.05,0-.04-.02-.07-.03-.16-.02-.09,0-.13.01-.17.03-.04.02-.05.02-.07.03h-.04s-.04.02-.05.02c-.03,0-.06,0-.07,0h0Z"/>
      <path id="a" class="cls-3" d="M7.12,11.12s.06.13.13.28c.08.15.17.34.25.45.05.07.12.14.19.2.1.07.32.14.32.14,0,0,0-.21-.05-.32-.04-.1-.14-.22-.22-.3-.19-.17-.35-.28-.46-.36-.11-.07-.16-.09-.16-.09h0ZM8.03,11.35s0,.09.02.2c.01.11.03.25.05.33.03.09.07.18.12.27.04.07.16.18.16.18,0,0,.04-.14.04-.21,0-.11-.03-.22-.07-.31-.04-.08-.09-.21-.16-.3-.07-.09-.15-.15-.15-.15h0ZM7.25,12.2s.25.25.4.34c.07.04.15.07.23.09.08.01.23,0,.23,0,0,0-.01-.1-.11-.21-.07-.08-.21-.14-.32-.17-.2-.08-.44-.04-.44-.04h0ZM8.07,12.29s.15.3.24.43c.07.09.14.18.23.25.28.22.44.2.44.2,0,0-.01-.15-.04-.22-.07-.14-.17-.27-.29-.37-.16-.13-.57-.29-.57-.29h0ZM8.02,13.1s.18.17.29.24c.08.05.16.1.25.13.08.03.16.04.24.04.19,0,.29-.02.29-.02,0,0,0-.1-.17-.23-.1-.08-.22-.12-.34-.15-.18-.04-.55-.02-.55-.02h0ZM8.72,12.16s.07.25.11.36c.04.1.08.2.14.29.05.08.11.16.18.22.06.05.2.1.2.1,0,0,0-.18-.03-.26-.03-.1-.07-.2-.13-.29-.08-.11-.19-.2-.29-.29-.14-.13-.19-.13-.19-.13h0ZM9.05,13.22s.15.17.23.24c.1.09.21.17.33.24.07.04.14.08.21.1.08.02.16.03.24.03.05,0,.14-.01.14-.01,0,0-.09-.17-.15-.24-.08-.08-.18-.14-.27-.19-.13-.07-.27-.11-.41-.14-.11-.02-.32-.02-.32-.02h0ZM9.78,13.11s.13.2.21.28c.08.08.17.15.27.21.09.06.17.12.27.14.08.02.26.01.26.01,0,0-.03-.14-.07-.2-.06-.09-.13-.17-.22-.23-.11-.08-.25-.14-.38-.18-.11-.03-.34-.05-.34-.05ZM9.21,14.02s.12.1.32.15c.1.03.2.05.3.06.09,0,.26,0,.34-.01.11-.01.22-.08.22-.08,0,0-.08-.12-.16-.15-.15-.07-.36-.09-.52-.08-.32.01-.5.13-.5.13h0ZM10.28,13.87s.28.22.42.3c.13.07.27.13.41.16.25.05.49.01.49.01,0,0-.04-.11-.08-.16-.1-.11-.24-.19-.39-.25-.17-.06-.35-.06-.53-.07-.1,0-.33,0-.33,0h0ZM11.2,13.67s.23.34.38.48c.1.09.21.16.33.2.1.04.34.06.34.06,0,0,0-.08-.02-.13-.04-.11-.14-.22-.24-.29-.15-.11-.31-.19-.49-.25-.1-.04-.31-.06-.31-.06h0ZM10.83,14.61s.3.08.46.1c.1.01.21.02.31,0,.09,0,.19-.01.28-.05.13-.06.2-.13.2-.13-.07-.09-.2-.11-.3-.12-.11-.02-.23-.01-.35,0-.13.02-.26.04-.39.09-.07.03-.21.11-.21.11h0ZM12.2,14.53s.03.02.04.03c0,0,.21.06.32.09.08.03.16.05.23.1.08.05.14.12.2.18.07.07.2.24.2.24l.03.05h.02s.01-.14.04-.21c.02-.06.09-.1.09-.1v-.03c-.2-.12-.42-.25-.64-.3-.1-.02-.21-.04-.31-.05-.07,0-.21,0-.21,0h0ZM8.04,12.83s0,.1.02.14c.03.04.08.07.13.08.02,0,.05,0,.07,0,.02-.01.05-.03.05-.06.01-.04,0-.08-.02-.12-.02-.04-.06-.07-.1-.09-.03-.01-.08-.02-.11,0-.02,0-.04.03-.05.05h0ZM8.51,12.14s-.05.1-.04.16c0,.06.04.11.08.15.02.02.04.03.06.03.03,0,.06,0,.08-.03.03-.03.04-.09.04-.13,0-.05-.02-.1-.05-.14-.02-.03-.06-.06-.1-.06-.02,0-.05,0-.07.02h0ZM9.07,13.75s.07.08.12.09c.05.01.12,0,.17-.02.02,0,.04-.03.05-.05.01-.02.02-.06,0-.08-.02-.04-.06-.06-.1-.08-.05-.02-.1-.02-.15,0-.04.01-.08.03-.09.07-.01.02-.02.05,0,.07h0ZM10.41,14.43s.08.07.13.07c.05,0,.11-.02.16-.05.02-.01.04-.03.04-.06,0-.03,0-.06-.01-.08-.02-.03-.07-.05-.11-.06-.05,0-.1,0-.14.02-.03.02-.07.05-.08.08,0,.02,0,.05,0,.07h0ZM9.41,12.98c-.02.05,0,.11.03.16.03.05.09.08.14.09.02,0,.08,0,.11,0,.03-.01.02-.04.03-.06.01-.04,0-.09-.02-.13-.02-.04-.06-.08-.11-.1-.04-.01-.08-.02-.12,0-.02,0-.05.03-.05.05h0ZM10.87,13.58s-.02.11,0,.15c.02.05.07.09.12.12.02.01.05.02.07.01.03,0,.05-.02.06-.05.02-.04.01-.09,0-.13-.02-.04-.05-.09-.09-.11-.03-.02-.07-.04-.11-.03-.02,0-.05.02-.06.04Z"/>
      <path id="a-2" data-name="a" class="cls-3" d="M18.39,11.12s-.06.13-.13.28c-.08.15-.17.34-.25.45-.05.07-.12.14-.19.2-.1.07-.32.14-.32.14,0,0,0-.21.05-.32.04-.1.14-.22.22-.3.19-.17.35-.28.46-.36.11-.07.16-.09.16-.09h0ZM17.48,11.35s0,.09-.02.2c-.01.11-.03.25-.05.33-.03.09-.07.18-.12.27-.04.07-.16.18-.16.18,0,0-.04-.14-.04-.21,0-.11.03-.22.07-.31.04-.08.09-.21.16-.3.07-.09.15-.15.15-.15h0ZM18.26,12.2s-.25.25-.4.34c-.07.04-.15.07-.23.09-.08.01-.23,0-.23,0,0,0,.01-.1.11-.21.07-.08.21-.14.32-.17.2-.08.44-.04.44-.04h0ZM17.44,12.29s-.15.3-.24.43c-.07.09-.14.18-.23.25-.28.22-.44.2-.44.2,0,0,.01-.15.04-.22.07-.14.17-.27.29-.37.16-.13.57-.29.57-.29h0ZM17.5,13.1s-.18.17-.29.24c-.08.05-.16.1-.25.13-.08.03-.16.04-.24.04-.19,0-.29-.02-.29-.02,0,0,0-.1.17-.23.1-.08.22-.12.34-.15.18-.04.55-.02.55-.02h0ZM16.8,12.16s-.07.25-.11.36c-.04.1-.08.2-.14.29-.05.08-.11.16-.18.22-.06.05-.2.1-.2.1,0,0,0-.18.03-.26.03-.1.07-.2.13-.29.08-.11.19-.2.29-.29.14-.13.19-.13.19-.13h0ZM16.46,13.22s-.15.17-.23.24c-.1.09-.21.17-.33.24-.07.04-.14.08-.21.1-.08.02-.16.03-.24.03-.05,0-.14-.01-.14-.01,0,0,.09-.17.15-.24.08-.08.18-.14.27-.19.13-.07.27-.11.41-.14.11-.02.32-.02.32-.02h0ZM15.73,13.11s-.13.2-.21.28c-.08.08-.17.15-.27.21-.09.06-.17.12-.27.14-.08.02-.26.01-.26.01,0,0,.03-.14.07-.2.06-.09.13-.17.22-.23.11-.08.25-.14.38-.18.11-.03.34-.05.34-.05ZM16.3,14.02s-.12.1-.32.15c-.1.03-.2.05-.3.06-.09,0-.26,0-.34-.01-.11-.01-.22-.08-.22-.08,0,0,.08-.12.16-.15.15-.07.36-.09.52-.08.32.01.5.13.5.13h0ZM15.24,13.87s-.28.22-.42.3c-.13.07-.27.13-.41.16-.25.05-.49.01-.49.01,0,0,.04-.11.08-.16.1-.11.24-.19.39-.25.17-.06.35-.06.53-.07.1,0,.33,0,.33,0h0ZM14.31,13.67s-.23.34-.38.48c-.1.09-.21.16-.33.2-.1.04-.34.06-.34.06,0,0,0-.08.02-.13.04-.11.14-.22.24-.29.15-.11.31-.19.49-.25.1-.04.31-.06.31-.06h0ZM14.68,14.61s-.3.08-.46.1c-.1.01-.21.02-.31,0-.09,0-.19-.01-.28-.05-.13-.06-.2-.13-.2-.13.07-.09.2-.11.3-.12.11-.02.23-.01.35,0,.13.02.26.04.39.09.07.03.21.11.21.11h0ZM13.31,14.53s-.03.02-.04.03c0,0-.21.06-.32.09-.08.03-.16.05-.23.1-.08.05-.14.12-.2.18-.07.07-.2.24-.2.24l-.03.05h-.02s-.01-.14-.04-.21c-.02-.06-.09-.1-.09-.1v-.03c.2-.12.42-.25.64-.3.1-.02.21-.04.31-.05.07,0,.21,0,.21,0h0ZM17.47,12.83s0,.1-.02.14c-.03.04-.08.07-.13.08-.02,0-.05,0-.07,0-.02-.01-.05-.03-.05-.06-.01-.04,0-.08.02-.12.02-.04.06-.07.1-.09.03-.01.08-.02.11,0,.02,0,.04.03.05.05h0ZM17,12.14s.05.1.04.16c0,.06-.04.11-.08.15-.02.02-.04.03-.06.03-.03,0-.06,0-.08-.03-.03-.03-.04-.09-.04-.13,0-.05.02-.1.05-.14.02-.03.06-.06.1-.06.02,0,.05,0,.07.02h0ZM16.44,13.75s-.07.08-.12.09c-.05.01-.12,0-.17-.02-.02,0-.04-.03-.05-.05-.01-.02-.02-.06,0-.08.02-.04.06-.06.1-.08.05-.02.1-.02.15,0,.04.01.08.03.09.07.01.02.02.05,0,.07h0ZM15.1,14.43s-.08.07-.13.07c-.05,0-.11-.02-.16-.05-.02-.01-.04-.03-.04-.06,0-.03,0-.06.01-.08.02-.03.07-.05.11-.06.05,0,.1,0,.14.02.03.02.07.05.08.08,0,.02,0,.05,0,.07h0ZM16.1,12.98c.02.05,0,.11-.03.16-.03.05-.09.08-.14.09-.02,0-.08,0-.11,0-.03-.01-.02-.04-.03-.06-.01-.04,0-.09.02-.13.02-.04.06-.08.11-.1.04-.01.08-.02.12,0,.02,0,.05.03.05.05h0ZM14.64,13.58s.02.11,0,.15c-.02.05-.07.09-.12.12-.02.01-.05.02-.07.01-.03,0-.05-.02-.06-.05-.02-.04-.01-.09,0-.13.02-.04.05-.09.09-.11.03-.02.07-.04.11-.03.02,0,.05.02.06.04Z"/>
    </g>
  </g>
</svg>