<?xml version="1.0" encoding="UTF-8"?>
<svg id="Layer_2" data-name="Layer 2" xmlns="http://www.w3.org/2000/svg" viewBox="0 0 23.62 17.01">
  <defs>
    <style>
      .cls-1 {
        fill: #dc1e36;
      }

      .cls-2 {
        fill: #fff;
      }

      .cls-3 {
        fill: #06539b;
      }

      .cls-4 {
        fill: #010101;
      }
    </style>
  </defs>
  <g id="Layer_1-2" data-name="Layer 1">
    <g>
      <path class="cls-3" d="M0,0h23.62v17.01H0V0Z"/>
      <g>
        <path class="cls-4" d="M0,8.5h23.62M8.5,0v17.01"/>
        <polygon class="cls-2" points="10.39 17.01 6.61 17.01 6.61 10.39 0 10.39 0 6.61 6.61 6.61 6.61 0 10.39 0 10.39 6.61 23.62 6.61 23.62 10.39 10.39 10.39 10.39 17.01"/>
      </g>
      <g>
        <path class="cls-4" d="M0,8.5h23.62M8.5,0v17.01"/>
        <polygon class="cls-1" points="9.45 17.01 7.56 17.01 7.56 9.45 0 9.45 0 7.56 7.56 7.56 7.56 0 9.45 0 9.45 7.56 23.62 7.56 23.62 9.45 9.45 9.45 9.45 17.01"/>
      </g>
    </g>
  </g>
</svg>