<?xml version="1.0" encoding="UTF-8"?>
<svg id="Layer_2" data-name="Layer 2" xmlns="http://www.w3.org/2000/svg" viewBox="0 0 23.81 17.01">
  <defs>
    <style>
      .cls-1 {
        fill: #fff;
      }

      .cls-2 {
        fill: #d1a850;
      }

      .cls-3 {
        fill: #294da1;
      }
    </style>
  </defs>
  <g id="Layer_1-2" data-name="Layer 1">
    <g id="g132">
      <path id="path5" class="cls-3" d="M0,0h23.81v17.01H0V0Z"/>
      <path id="path26" class="cls-2" d="M12.03,5.39c.1.12.17.23.17.37-.08.04-.2.06-.27.13.42-.06.5.42.96.24.02.07.08.12.17.1l.05-.13c.18-.05.13.25.33.19.1.08.03.22.1.32,0,.12.05.22.1.32.05-.06.08-.14.2-.12.08.09.15.17.17.27-.03.19-.08.36.12.46v.06c.13.06.43-.06.43.17-.02.08.08,0,.12.06.08-.03.2-.02.3-.02.08.17-.1.3-.15.46.08.08.05.23.03.33l-.05.02c.13.02.3-.02.42.06l.22.08c.1-.06.22-.07.35-.06.1.07-.03.2.05.26.12,0,.22.02.23.12l.02.03c.08-.15.32-.05.42-.16.17,0,.2.18.28.28.03.26-.28.37-.18.63-.07.12-.2.22-.3.34.03.02.02.06.02.08-.1.06-.02.23-.15.25-.02.11-.22.07-.15.18.13.17-.07.28-.07.44-.08.09-.25-.08-.25.09-.1.02-.2-.09-.27,0-.03.12.07.16.05.27.17-.02.22.15.28.25l.17.17c-.17.13-.38-.02-.58.06-.05-.02,0-.09-.05-.12-.05-.06-.15-.06-.23-.07.02.07-.13.1-.07.19,0,.02.03.1-.03.1-.13.04-.12-.12-.23-.06-.15.06-.03.28-.25.26.03.2-.33.33-.08.51.03.03.02.1.02.15-.15.13-.41.08-.58.03-.13-.03-.05-.2-.1-.29-.05-.08-.2-.14-.2-.26-.1-.04-.18-.07-.25-.15-.23.22-.51.44-.85.45-.15.07-.23.37-.47.25-.09.15-.37,0-.38.22-.11.04-.06.18-.12.25-.02.17,0,.31.14.41.06.12-.12.12-.05.24.02.04,0,.1-.02.12-.05.02-.07.05-.05.1-.04,0-.06.02-.09.06-.04.08-.17.12-.27.18-.09.02-.16-.04-.22-.1-.02.09-.09.14-.18.14-.13,0-.11-.12-.21-.17.04-.15-.09-.22-.05-.35.11-.08.29-.14.24-.32-.12-.14-.07-.35-.19-.51-.07-.07-.2-.17-.16-.32.11-.12,0-.27-.06-.41-.02-.11-.09-.21-.09-.33-.18-.11-.19-.39-.45-.42-.18,0-.22-.23-.4-.22-.02-.03-.06-.06-.09-.09-.13.09-.3-.02-.46.02-.11-.18.09-.43-.2-.54v-.12s.05-.02.06-.03c.02-.12-.21-.14-.12-.28-.05-.04-.11-.06-.07-.14-.12-.26-.5-.23-.58-.49.07-.06.07-.12.09-.17-.06-.1-.07-.21-.06-.31.06-.02.09-.09.12-.15-.07-.05-.17-.12-.25-.1-.15-.02-.26-.14-.39-.21-.03-.03-.02-.09-.02-.13.18-.06-.02-.32.2-.28.06-.07.18-.1.27-.16.09-.02.17.02.26.04.07.1.21.06.28.14.07-.02.17-.06.26-.02,0-.14.07-.22.17-.32.02-.06.11-.1.18-.13.14.03.31.03.41-.07.07.04.12-.04.2-.04.09-.02.17,0,.23.05,0-.17.3-.02.36-.22.07-.13-.18-.18-.17-.3-.04-.13.06-.2.11-.29.06-.02.12-.06.2-.04.19-.07.04-.46.35-.32,0,.04-.02.09,0,.1.11,0,.12-.12.2-.17.03-.12-.04-.26.06-.35.05,0,.09-.02.12-.07,0-.09-.05-.14-.12-.2-.02.04-.09,0-.13.02,0-.1-.06-.17-.07-.26-.05-.02-.07-.07-.06-.12.07-.07,0-.26.17-.22.07-.06.18-.02.25-.12.17-.1.41-.1.54-.28.06,0,.12-.05.18,0,.02.11.17.07.17.17"/>
      <path id="polygon37" class="cls-1" d="M13.32,3.14l-.23-.71-.23.71h-.74l.6.44-.23.71.6-.44.6.44-.23-.71.6-.44h-.74Z"/>
      <path id="polygon39" class="cls-1" d="M15.66,3.55l-.23-.7-.23.7h-.74l.6.44-.23.71.6-.44.6.44-.23-.71.6-.44h-.74Z"/>
      <path id="polygon41" class="cls-1" d="M17.88,4.36l-.23-.7-.23.7h-.74l.6.44-.23.71.6-.44.6.44-.23-.71.6-.44h-.74Z"/>
      <path id="polygon43" class="cls-1" d="M10.95,3.14l-.23-.71-.23.71h-.74l.6.44-.23.71.6-.44.6.44-.23-.71.6-.44h-.74Z"/>
      <path id="polygon45" class="cls-1" d="M8.61,3.55l-.23-.7-.23.7h-.74l.6.44-.23.71.6-.44.6.44-.23-.71.6-.44h-.74Z"/>
      <path id="polygon47" class="cls-1" d="M6.38,4.36l-.23-.7-.23.7h-.74l.6.44-.23.71.6-.44.6.44-.23-.71.6-.44h-.74Z"/>
    </g>
  </g>
</svg>