<?xml version="1.0" encoding="UTF-8"?>
<svg id="Layer_2" data-name="Layer 2" xmlns="http://www.w3.org/2000/svg" viewBox="0 0 28.35 17.01">
  <defs>
    <style>
      .cls-1 {
        fill: #ce2028;
      }

      .cls-2 {
        fill: #263779;
      }

      .cls-3, .cls-4, .cls-5, .cls-6 {
        stroke: #010101;
        stroke-linecap: round;
        stroke-linejoin: round;
      }

      .cls-3, .cls-4, .cls-6 {
        stroke-width: .04px;
      }

      .cls-3, .cls-5, .cls-7 {
        fill: #ffd83e;
      }

      .cls-4 {
        fill: none;
      }

      .cls-5 {
        stroke-width: .06px;
      }

      .cls-8, .cls-6 {
        fill: #010101;
      }
    </style>
  </defs>
  <g id="Layer_1-2" data-name="Layer 1">
    <g>
      <rect class="cls-2" width="28.35" height="17.01"/>
      <rect class="cls-1" y="8.5" width="28.35" height="8.5"/>
      <g>
        <g id="half">
          <path class="cls-7" d="M6.13,3.47l-.05,1.77h-1.8c-.22-.43-.4-.8-.4-1.29,0-.41.33-.74.79-.74.5,0,1.04.17,1.46.26Z"/>
          <g>
            <path class="cls-3" d="M4.09,3.55v1.02"/>
            <path class="cls-3" d="M4.24,3.44v1.36"/>
            <path class="cls-3" d="M4.38,3.37v1.62"/>
            <path class="cls-3" d="M4.53,3.34v1.27"/>
            <path class="cls-3" d="M4.67,3.33v1.28"/>
            <path class="cls-3" d="M4.82,3.29v1.33"/>
            <path class="cls-3" d="M4.96,3.29v1.33"/>
            <path class="cls-3" d="M5.11,3.3v1.33"/>
            <path class="cls-3" d="M5.25,3.31v1.33"/>
            <path class="cls-3" d="M5.39,3.4v1.33"/>
            <path class="cls-3" d="M5.54,3.41v1.5"/>
            <path class="cls-3" d="M5.68,3.41v1.33"/>
            <path class="cls-3" d="M5.83,3.41v1.33"/>
            <path class="cls-6" d="M5,3.34c.31.05.98.36.9.79-.11.6-.46.36-.92.27l-.35.12c-.13.13-.31.25-.44.09h-.21v.81h2.31v-1.97l-1.28-.12Z"/>
          </g>
          <circle class="cls-5" cx="6.03" cy="3.2" r=".14"/>
          <circle class="cls-5" cx="5.72" cy="3.13" r=".14"/>
          <circle class="cls-5" cx="5.4" cy="3.05" r=".14"/>
          <circle class="cls-5" cx="5.08" cy="2.99" r=".14"/>
          <circle class="cls-5" cx="4.76" cy="2.96" r=".14"/>
          <circle class="cls-5" cx="4.44" cy="2.98" r=".14"/>
          <circle class="cls-5" cx="4.14" cy="3.08" r=".14"/>
          <circle class="cls-5" cx="3.89" cy="3.27" r=".14"/>
          <circle class="cls-5" cx="3.71" cy="3.53" r=".14"/>
          <circle class="cls-5" cx="3.63" cy="3.83" r=".14"/>
          <circle class="cls-5" cx="3.63" cy="4.15" r=".14"/>
          <circle class="cls-5" cx="3.69" cy="4.46" r=".14"/>
          <path class="cls-5" d="M6.09,3.39v.18c-.36-.05-.86-.25-1.32-.25-.43,0-.76.17-.76.6s.18.81.42,1.2l-.25.12c-.22-.43-.4-.8-.4-1.29,0-.41.33-.82.89-.82.5,0,1,.17,1.42.26Z"/>
        </g>
        <g id="half-2" data-name="half">
          <path class="cls-7" d="M6.45,3.47l.05,1.77h1.8c.22-.43.4-.8.4-1.29,0-.41-.33-.74-.79-.74-.5,0-1.04.17-1.46.26Z"/>
          <g>
            <path class="cls-3" d="M8.49,3.55v1.02"/>
            <path class="cls-3" d="M8.34,3.44v1.36"/>
            <path class="cls-3" d="M8.2,3.37v1.62"/>
            <path class="cls-3" d="M8.06,3.34v1.27"/>
            <path class="cls-3" d="M7.91,3.33v1.28"/>
            <path class="cls-3" d="M7.77,3.29v1.33"/>
            <path class="cls-3" d="M7.62,3.29v1.33"/>
            <path class="cls-3" d="M7.48,3.3v1.33"/>
            <path class="cls-3" d="M7.33,3.31v1.33"/>
            <path class="cls-3" d="M7.19,3.4v1.33"/>
            <path class="cls-3" d="M7.05,3.41v1.5"/>
            <path class="cls-3" d="M6.9,3.41v1.33"/>
            <path class="cls-3" d="M6.76,3.41v1.33"/>
            <path class="cls-6" d="M7.58,3.34c-.31.05-.98.36-.9.79.11.6.46.36.92.27l.35.12c.13.13.31.25.44.09h.21v.81h-2.31v-1.97l1.28-.12Z"/>
          </g>
          <circle class="cls-5" cx="6.55" cy="3.2" r=".14"/>
          <circle class="cls-5" cx="6.87" cy="3.13" r=".14"/>
          <circle class="cls-5" cx="7.19" cy="3.05" r=".14"/>
          <circle class="cls-5" cx="7.51" cy="2.99" r=".14"/>
          <circle class="cls-5" cx="7.83" cy="2.96" r=".14"/>
          <circle class="cls-5" cx="8.14" cy="2.98" r=".14"/>
          <circle class="cls-5" cx="8.44" cy="3.08" r=".14"/>
          <circle class="cls-5" cx="8.69" cy="3.27" r=".14"/>
          <circle class="cls-5" cx="8.87" cy="3.53" r=".14"/>
          <circle class="cls-5" cx="8.96" cy="3.83" r=".14"/>
          <circle class="cls-5" cx="8.95" cy="4.15" r=".14"/>
          <circle class="cls-5" cx="8.89" cy="4.46" r=".14"/>
          <path class="cls-5" d="M6.49,3.39v.18c.36-.05.86-.25,1.32-.25.43,0,.76.17.76.6s-.18.81-.42,1.2l.25.12c.22-.43.4-.8.4-1.29,0-.41-.33-.82-.89-.82-.5,0-1,.17-1.42.26Z"/>
        </g>
        <path class="cls-5" d="M6.29,1.51l-.15.27.15.27.15-.27-.15-.27ZM6.29,2.2l-.15.27.15.27.15-.27-.15-.27Z"/>
        <path class="cls-5" d="M5.77,2.12l.23.15.23-.15-.23-.15-.23.15ZM6.35,2.12l.23.15.23-.15-.23-.15-.23.15Z"/>
        <circle class="cls-5" cx="6.29" cy="2.13" r=".11"/>
        <circle class="cls-5" cx="6.29" cy="2.83" r=".3"/>
        <path class="cls-4" d="M6.22,2.55c0,.09,0,.14,0,.19-.07,0-.14.01-.21.02M6.58,2.76c-.07-.01-.14-.02-.21-.02v-.19M6.01,2.91c.09-.02.19-.02.29-.02s.19,0,.29.02"/>
        <path class="cls-5" d="M6,3.34c-.03.48-.09.98-.27,1.34l.31-.12c.11-.41.13-.93.16-1.18l-.19-.03ZM6.58,3.34l-.19.03c.03.25.06.77.16,1.18l.31.12c-.19-.36-.25-.85-.27-1.34Z"/>
        <path class="cls-5" d="M6.29,4.38c-.37,0-.63.17-.65.61-.09-.16-.47-.65-.82-.59-.21.04-.4.33-.36.66-.17-.5-.68-.58-1.06-.29.33.27.48,1.07.75,1.42h4.27c.28-.35.43-1.15.76-1.42-.37-.3-.88-.21-1.06.29.03-.33-.15-.62-.36-.66-.35-.07-.73.43-.82.59-.02-.44-.29-.61-.65-.61Z"/>
        <g>
          <path class="cls-6" d="M8.42,6.21c0,.16-.95.33-2.13.33s-2.13-.17-2.13-.33.95-.24,2.13-.24,2.13.08,2.13.24Z"/>
          <circle class="cls-3" cx="6.29" cy="3.24" r=".1"/>
          <circle class="cls-3" cx="6.29" cy="3.46" r=".11"/>
          <circle class="cls-3" cx="6.29" cy="3.69" r=".12"/>
          <circle class="cls-3" cx="6.29" cy="3.95" r=".13"/>
          <circle class="cls-3" cx="6.29" cy="4.23" r=".14"/>
          <path class="cls-8" d="M6.23,4.51s-.03.01-.03.04c0,.03.01.08.02.12,0,.04.03.03.04,0,0-.03,0-.05,0-.12,0-.03-.02-.04-.03-.04ZM6.35,4.51s-.03.01-.03.04c0,.06,0,.08,0,.12,0,.03.03.04.04,0,0-.04.01-.09.02-.12,0-.03-.01-.04-.03-.04ZM6.13,4.53s-.03.02-.03.03c0,.03,0,.06.01.1,0,.04.03.03.04,0,0-.03,0-.06,0-.11,0-.02,0-.03-.02-.03,0,0,0,0,0,0ZM6.45,4.53s-.02,0-.02.03c0,.05,0,.09,0,.11,0,.03.03.04.04,0,0-.04.01-.08.01-.1,0-.02-.01-.03-.03-.03,0,0,0,0,0,0ZM6.01,4.58s-.03.02-.02.04c0,.04.02.08.02.11,0,.03.03.02.03,0,0-.02,0-.07,0-.11,0-.03-.01-.04-.03-.04ZM6.57,4.58s-.02.01-.02.04c0,.04,0,.09,0,.11,0,.02.03.03.03,0,0-.04,0-.08.02-.11,0-.02,0-.03-.02-.04,0,0,0,0,0,0ZM4.89,4.58s-.03.02-.02.04c.02.04.04.06.05.1.02.04.04.01.03-.01,0-.03-.02-.05-.04-.11,0-.02-.02-.03-.03-.03ZM7.69,4.58s-.02,0-.03.03c-.02.05-.03.08-.04.11,0,.03.02.05.03.01.02-.04.04-.06.05-.1.01-.02,0-.04-.02-.04ZM5,4.59s-.02.02-.01.04c.01.03.03.07.05.11.01.03.04.02.03,0,0-.03-.01-.05-.03-.1,0-.03-.03-.04-.04-.03ZM7.57,4.59s-.02.01-.03.03c-.02.06-.02.07-.03.1,0,.03.02.04.03,0,.01-.04.03-.07.05-.11,0-.02,0-.03-.01-.04,0,0,0,0,0,0ZM5.15,4.61s-.03.03-.02.05c.01.03.03.07.05.11s.04.03.04,0c0-.03-.01-.07-.03-.13,0-.03-.02-.04-.03-.04ZM7.44,4.61s-.02,0-.03.04c-.02.06-.03.1-.03.13,0,.03.02.03.04,0s.03-.07.05-.11c0-.03,0-.05-.02-.05ZM4.8,4.63s-.03.03-.02.05c.02.03.03.04.04.08.02.03.03,0,.03-.01,0-.02-.01-.05-.02-.08,0-.02-.02-.03-.02-.03ZM7.79,4.63s-.02,0-.02.03c0,.03-.02.06-.02.08s.01.05.03.01c.02-.03.03-.04.04-.08,0-.02,0-.05-.02-.05ZM5.89,4.71s-.03.02-.03.04c0,.03.02.06.03.1,0,.04.04.02.03,0,0-.03,0-.06-.02-.11,0-.02-.01-.03-.02-.03ZM6.7,4.71s-.02,0-.02.03c-.01.05-.02.09-.02.11,0,.03.03.04.03,0,.01-.04.03-.07.03-.1,0-.02-.01-.04-.03-.04ZM6.29,4.75s-.02.03-.02.05c0,.07-.03.14-.06.18-.03.04-.06.03-.1,0s-.06-.03-.09-.06c-.04-.03-.07-.01-.02.05.13.19.27.35.27.65,0,.04,0,.05.02.05s.02-.01.02-.05c0-.3.14-.46.27-.65.04-.06.02-.08-.02-.05-.04.03-.06.04-.09.06-.04.02-.07.03-.1,0-.03-.04-.06-.11-.06-.18,0-.02,0-.05-.02-.05ZM5.29,4.7s0,0,0,0c0,0-.01.01,0,.03,0,.03.02.08.03.11,0,.03.04.02.03-.02,0-.04,0-.05-.02-.09,0-.02-.02-.04-.03-.04ZM7.29,4.7s-.03.01-.03.04c0,.04,0,.05-.02.09,0,.04.02.04.03.02,0-.03.03-.08.03-.11,0-.02,0-.03,0-.03,0,0,0,0,0,0ZM4.7,4.71s-.03.02-.01.05c.02.03.05.07.06.1s.04,0,.02-.02c-.02-.03-.02-.06-.04-.11,0-.02-.02-.02-.03-.02ZM7.89,4.71s-.02,0-.03.02c-.02.04-.03.08-.04.11-.02.03,0,.05.02.02s.04-.06.06-.1c.02-.03,0-.05-.01-.05ZM3.8,4.81s-.02.03,0,.06c.03.03.04.05.07.08.02.02.03,0,.02-.03-.01-.02-.03-.04-.05-.08-.01-.02-.02-.03-.03-.03ZM8.78,4.81s-.02,0-.03.03c-.02.04-.04.06-.05.08-.01.02,0,.05.02.03.03-.03.05-.04.07-.08.02-.02.01-.06,0-.06ZM3.94,4.83s-.03.01-.01.04c.02.04.04.08.05.11.01.03.06.04.04,0-.02-.04-.02-.07-.04-.11,0-.02-.03-.03-.04-.03ZM8.64,4.83s-.04.01-.04.03c-.02.04-.02.06-.04.11-.02.04.03.03.04,0,.01-.03.04-.07.05-.11.01-.03,0-.04-.01-.04ZM3.67,4.84s-.02.02,0,.04c.03.02.06.04.09.06.04.03.05,0,.03-.02-.02-.02-.04-.05-.08-.07-.01,0-.02,0-.03,0ZM8.92,4.84s-.02,0-.03,0c-.05.02-.07.05-.08.07-.02.02,0,.05.03.02.03-.02.06-.04.09-.06.02-.01.02-.04,0-.04ZM5.81,4.86s-.02.02-.02.03c0,.03.02.07.03.1,0,.03.04.03.04,0,0-.03,0-.07-.02-.11,0-.02-.01-.03-.02-.03,0,0,0,0,0,0ZM6.77,4.86s-.02,0-.02.03c-.01.05-.01.08-.02.11,0,.03.03.03.04,0,0-.03.02-.07.03-.1,0-.02,0-.03-.02-.03,0,0,0,0,0,0ZM4.96,4.81s-.02.02,0,.05c.04.14.05.22.05.25,0,.04-.03.04-.05.03-.03-.01-.06-.03-.08-.05-.02-.02-.05,0-.01.03.17.14.29.3.34.5,0,.04.03.04.03,0-.04-.25-.05-.45.01-.58.02-.05,0-.09-.04-.02-.02.05-.06.07-.09.03-.03-.04-.09-.16-.11-.22,0-.02-.02-.03-.02-.03,0,0,0,0,0,0ZM7.62,4.81s-.02.01-.02.03c-.02.05-.08.17-.11.22-.03.04-.07.02-.09-.03-.04-.08-.06-.03-.04.02.06.13.05.33.01.58,0,.04.02.04.03,0,.05-.2.16-.36.34-.5.03-.03,0-.05-.01-.03-.02.02-.05.03-.08.05-.03.01-.05,0-.05-.03,0-.04,0-.11.05-.25,0-.03,0-.04,0-.05,0,0,0,0,0,0ZM4.09,4.88s-.03.01-.02.03c.01.04.03.08.04.1,0,.02.03.01.03-.02s0-.05-.01-.09c0-.02-.02-.03-.04-.03ZM8.49,4.88s-.03,0-.04.03c0,.04,0,.06-.01.09s.02.04.03.02c0-.02.03-.06.04-.1,0-.02,0-.03-.02-.03ZM4.63,4.83s-.02.04,0,.06c.02.03.05.06.08.09.02.03.04,0,.02-.02-.01-.02-.04-.05-.07-.11,0-.01-.02-.02-.02-.02ZM7.96,4.83s-.01,0-.02.02c-.04.06-.06.08-.07.11-.01.02,0,.05.02.02.03-.03.06-.06.08-.09.02-.02.01-.07,0-.06ZM4.22,4.94s-.02,0-.02.03c0,.03.02.06.02.09,0,.03.03.02.03,0s0-.06,0-.09c0-.01-.02-.02-.03-.03ZM8.37,4.94s-.02.01-.03.03c0,.03,0,.06,0,.09s.02.03.03,0c0-.03.02-.06.02-.09,0-.02,0-.03-.02-.03ZM4.59,4.98s-.03.02-.01.05c.03.04.07.07.08.09.01.02.04,0,.02-.02-.02-.03-.05-.07-.07-.1,0,0-.02-.01-.03-.01ZM7.99,4.98s-.02,0-.02.01c-.01.03-.05.07-.07.1-.02.03.01.04.02.02.01-.02.05-.05.08-.09.02-.03,0-.04-.01-.05,0,0,0,0,0,0ZM4,5.1s-.02,0,0,.04c.04.06.09.15.09.18,0,.04-.02.04-.03.04-.05,0-.08-.04-.12-.05-.05-.01-.05.01-.02.04.17.13.35.27.41.39.03.05.07.07.05.02-.06-.15-.08-.28-.07-.36.01-.08.03-.13.03-.17,0-.04-.03-.04-.04,0,0,.03-.02.07-.03.08,0,.01-.05.02-.08-.03-.04-.05-.13-.14-.16-.17-.01,0-.02-.01-.03-.02ZM8.58,5.1s-.02,0-.03.02c-.03.02-.12.12-.16.17-.04.05-.07.04-.08.03,0-.01-.02-.05-.03-.08-.01-.04-.04-.04-.04,0,0,.04.02.1.03.17.01.08,0,.21-.07.36-.02.05.02.03.05-.02.07-.13.24-.27.41-.39.03-.02.03-.05-.02-.04-.05.01-.07.05-.12.05-.02,0-.04,0-.03-.04,0-.04.05-.13.09-.18.02-.03.01-.04,0-.04Z"/>
          <path class="cls-3" d="M4.26,6.03l.06.18M4.37,5.99l.05.18M4.49,5.97l.03.18M4.61,5.95l.04.18M4.75,5.94l.03.18M4.91,5.94l.03.18M5.06,5.89l.02.18M5.2,5.9l.02.18M5.34,5.88l.02.18M5.48,5.86v.18M5.63,5.86v.18M5.76,5.85v.18M5.91,5.84v.18M6.08,5.84v.18M8.33,6.03l-.06.18M8.21,5.99l-.05.18M8.09,5.97l-.03.18M7.98,5.95l-.04.18M7.83,5.94l-.03.18M7.68,5.94l-.03.18M7.52,5.89l-.02.18M7.38,5.9l-.02.18M7.24,5.88l-.02.18M7.11,5.86v.18M6.96,5.86v.18M6.82,5.85v.18M6.67,5.84v.18M6.5,5.84v.18M6.29,5.83v.2"/>
        </g>
      </g>
    </g>
  </g>
</svg>