<?xml version="1.0" encoding="UTF-8"?>
<svg id="Layer_2" data-name="Layer 2" xmlns="http://www.w3.org/2000/svg" viewBox="0 0 28.35 17.01">
  <defs>
    <style>
      .cls-1 {
        fill: #ce2028;
      }

      .cls-2 {
        fill: #263779;
      }

      .cls-3 {
        fill: #010101;
      }

      .cls-4 {
        fill: #ffd83e;
      }
    </style>
  </defs>
  <g id="Layer_1-2" data-name="Layer 1">
    <g>
      <rect class="cls-2" width="28.35" height="17.01"/>
      <rect class="cls-1" y="8.5" width="28.35" height="8.5"/>
      <g>
        <g id="half">
          <path class="cls-4" d="M6.13,3.47l-.05,1.77h-1.8c-.22-.43-.4-.8-.4-1.29,0-.41.33-.74.79-.74.5,0,1.04.17,1.46.26Z"/>
          <g>
            <path class="cls-3" d="M4.09,4.59s-.02,0-.02-.02v-1.02s0-.02.02-.02.02,0,.02.02v1.02s0,.02-.02.02Z"/>
            <path class="cls-3" d="M4.24,4.83s-.02,0-.02-.02v-1.36s0-.02.02-.02.02,0,.02.02v1.36s0,.02-.02.02Z"/>
            <path class="cls-3" d="M4.38,5.02s-.02,0-.02-.02v-1.62s0-.02.02-.02.02,0,.02.02v1.62s0,.02-.02.02Z"/>
            <path class="cls-3" d="M4.53,4.63s-.02,0-.02-.02v-1.27s0-.02.02-.02.02,0,.02.02v1.27s0,.02-.02.02Z"/>
            <path class="cls-3" d="M4.67,4.64s-.02,0-.02-.02v-1.29s0-.02.02-.02.02,0,.02.02v1.29s0,.02-.02.02Z"/>
            <path class="cls-3" d="M4.82,4.64s-.02,0-.02-.02v-1.33s0-.02.02-.02.02,0,.02.02v1.33s0,.02-.02.02Z"/>
            <path class="cls-3" d="M4.96,4.64s-.02,0-.02-.02v-1.33s0-.02.02-.02.02,0,.02.02v1.33s0,.02-.02.02Z"/>
            <path class="cls-3" d="M5.11,4.65s-.02,0-.02-.02v-1.33s0-.02.02-.02.02,0,.02.02v1.33s0,.02-.02.02Z"/>
            <path class="cls-3" d="M5.25,4.66s-.02,0-.02-.02v-1.33s0-.02.02-.02.02,0,.02.02v1.33s0,.02-.02.02Z"/>
            <path class="cls-3" d="M5.39,4.75s-.02,0-.02-.02v-1.33s0-.02.02-.02.02,0,.02.02v1.33s0,.02-.02.02Z"/>
            <path class="cls-3" d="M5.54,4.93s-.02,0-.02-.02v-1.5s0-.02.02-.02.02,0,.02.02v1.5s0,.02-.02.02Z"/>
            <path class="cls-3" d="M5.68,4.76s-.02,0-.02-.02v-1.33s0-.02.02-.02.02,0,.02.02v1.33s0,.02-.02.02Z"/>
            <path class="cls-3" d="M5.83,4.76s-.02,0-.02-.02v-1.33s0-.02.02-.02.02,0,.02.02v1.33s0,.02-.02.02Z"/>
            <g>
              <path class="cls-3" d="M5,3.34c.31.05.98.36.9.79-.11.6-.46.36-.92.27l-.35.12c-.13.13-.31.25-.44.09h-.21v.81h2.31v-1.97l-1.28-.12Z"/>
              <path class="cls-3" d="M6.28,5.45h-2.31s-.02,0-.02-.02v-.81s0-.02.02-.02h.21s.01,0,.02,0c.03.04.07.06.12.07h0c.11,0,.22-.1.28-.16,0,0,0,0,0,0l.35-.12s0,0,.01,0c.09.02.17.04.26.06.19.05.36.1.48.02.08-.05.14-.16.17-.34.02-.1,0-.2-.08-.3-.18-.25-.58-.42-.8-.46-.01,0-.02-.01-.02-.02,0-.01.01-.02.02-.02l1.28.12s.02,0,.02.02v1.97s0,.02-.02.02ZM4,5.41h2.26v-1.93l-1.03-.09c.22.08.47.22.6.41.08.11.11.22.08.34-.03.19-.09.31-.19.37-.13.08-.31.04-.51-.02-.08-.02-.16-.04-.25-.06l-.34.11c-.08.08-.19.17-.3.17h0c-.06,0-.1-.03-.14-.07h-.18v.77Z"/>
            </g>
          </g>
          <g>
            <circle class="cls-4" cx="6.03" cy="3.2" r=".14"/>
            <path class="cls-3" d="M6.03,3.37c-.09,0-.17-.08-.17-.17s.08-.17.17-.17.17.08.17.17-.08.17-.17.17ZM6.03,3.09c-.06,0-.11.05-.11.11s.05.11.11.11.11-.05.11-.11-.05-.11-.11-.11Z"/>
          </g>
          <g>
            <circle class="cls-4" cx="5.72" cy="3.13" r=".14"/>
            <path class="cls-3" d="M5.72,3.3c-.09,0-.17-.08-.17-.17s.08-.17.17-.17.17.08.17.17-.08.17-.17.17ZM5.72,3.02c-.06,0-.11.05-.11.11s.05.11.11.11.11-.05.11-.11-.05-.11-.11-.11Z"/>
          </g>
          <g>
            <circle class="cls-4" cx="5.4" cy="3.05" r=".14"/>
            <path class="cls-3" d="M5.4,3.22c-.09,0-.17-.08-.17-.17s.08-.17.17-.17.17.08.17.17-.08.17-.17.17ZM5.4,2.93c-.06,0-.11.05-.11.11s.05.11.11.11.11-.05.11-.11-.05-.11-.11-.11Z"/>
          </g>
          <g>
            <circle class="cls-4" cx="5.08" cy="2.99" r=".14"/>
            <path class="cls-3" d="M5.08,3.16c-.09,0-.17-.08-.17-.17s.08-.17.17-.17.17.08.17.17-.08.17-.17.17ZM5.08,2.88c-.06,0-.11.05-.11.11s.05.11.11.11.11-.05.11-.11-.05-.11-.11-.11Z"/>
          </g>
          <g>
            <circle class="cls-4" cx="4.76" cy="2.96" r=".14"/>
            <path class="cls-3" d="M4.76,3.13c-.09,0-.17-.08-.17-.17s.08-.17.17-.17.17.08.17.17-.08.17-.17.17ZM4.76,2.85c-.06,0-.11.05-.11.11s.05.11.11.11.11-.05.11-.11-.05-.11-.11-.11Z"/>
          </g>
          <g>
            <circle class="cls-4" cx="4.44" cy="2.98" r=".14"/>
            <path class="cls-3" d="M4.44,3.15c-.09,0-.17-.08-.17-.17s.08-.17.17-.17.17.08.17.17-.08.17-.17.17ZM4.44,2.87c-.06,0-.11.05-.11.11s.05.11.11.11.11-.05.11-.11-.05-.11-.11-.11Z"/>
          </g>
          <g>
            <circle class="cls-4" cx="4.14" cy="3.08" r=".14"/>
            <path class="cls-3" d="M4.14,3.25c-.09,0-.17-.08-.17-.17s.08-.17.17-.17.17.08.17.17-.08.17-.17.17ZM4.14,2.97c-.06,0-.11.05-.11.11s.05.11.11.11.11-.05.11-.11-.05-.11-.11-.11Z"/>
          </g>
          <g>
            <circle class="cls-4" cx="3.89" cy="3.27" r=".14"/>
            <path class="cls-3" d="M3.89,3.44c-.09,0-.17-.08-.17-.17s.08-.17.17-.17.17.08.17.17-.08.17-.17.17ZM3.89,3.16c-.06,0-.11.05-.11.11s.05.11.11.11.11-.05.11-.11-.05-.11-.11-.11Z"/>
          </g>
          <g>
            <circle class="cls-4" cx="3.71" cy="3.53" r=".14"/>
            <path class="cls-3" d="M3.71,3.7c-.09,0-.17-.08-.17-.17s.08-.17.17-.17.17.08.17.17-.08.17-.17.17ZM3.71,3.41c-.06,0-.11.05-.11.11s.05.11.11.11.11-.05.11-.11-.05-.11-.11-.11Z"/>
          </g>
          <g>
            <circle class="cls-4" cx="3.63" cy="3.83" r=".14"/>
            <path class="cls-3" d="M3.63,4c-.09,0-.17-.08-.17-.17s.08-.17.17-.17.17.08.17.17-.08.17-.17.17ZM3.63,3.72c-.06,0-.11.05-.11.11s.05.11.11.11.11-.05.11-.11-.05-.11-.11-.11Z"/>
          </g>
          <g>
            <circle class="cls-4" cx="3.63" cy="4.15" r=".14"/>
            <path class="cls-3" d="M3.63,4.32c-.09,0-.17-.08-.17-.17s.08-.17.17-.17.17.08.17.17-.08.17-.17.17ZM3.63,4.04c-.06,0-.11.05-.11.11s.05.11.11.11.11-.05.11-.11-.05-.11-.11-.11Z"/>
          </g>
          <g>
            <circle class="cls-4" cx="3.69" cy="4.46" r=".14"/>
            <path class="cls-3" d="M3.69,4.62c-.09,0-.17-.08-.17-.17s.08-.17.17-.17.17.08.17.17-.08.17-.17.17ZM3.69,4.34c-.06,0-.11.05-.11.11s.05.11.11.11.11-.05.11-.11-.05-.11-.11-.11Z"/>
          </g>
          <g>
            <path class="cls-4" d="M6.09,3.39v.18c-.36-.05-.86-.25-1.32-.25-.43,0-.76.17-.76.6s.18.81.42,1.2l-.25.12c-.22-.43-.4-.8-.4-1.29,0-.41.33-.82.89-.82.5,0,1,.17,1.42.26Z"/>
            <path class="cls-3" d="M4.19,5.27s-.02,0-.03-.02c-.21-.41-.41-.79-.41-1.3,0-.41.32-.85.91-.85.38,0,.77.1,1.12.19.11.03.21.05.31.08.01,0,.02.02.02.03v.18s-.02.02-.02.02c0,0-.01,0-.02,0-.13-.02-.27-.06-.42-.1-.27-.07-.58-.15-.88-.15-.27,0-.73.07-.73.57,0,.45.21.85.41,1.18,0,0,0,.02,0,.02,0,0,0,.01-.02.02l-.25.12s0,0-.01,0ZM4.67,3.16c-.56,0-.86.41-.86.79,0,.49.18.84.39,1.25l.19-.09c-.2-.34-.4-.74-.4-1.19,0-.4.29-.63.78-.63.3,0,.61.08.89.15.14.04.27.07.39.09v-.13c-.08-.02-.18-.05-.28-.07-.34-.09-.73-.18-1.1-.18Z"/>
          </g>
        </g>
        <g id="half-2" data-name="half">
          <path class="cls-4" d="M6.45,3.47l.05,1.77h1.8c.22-.43.4-.8.4-1.29,0-.41-.33-.74-.79-.74-.5,0-1.04.17-1.46.26Z"/>
          <g>
            <path class="cls-3" d="M8.49,4.59s-.02,0-.02-.02v-1.02s0-.02.02-.02.02,0,.02.02v1.02s0,.02-.02.02Z"/>
            <path class="cls-3" d="M8.34,4.83s-.02,0-.02-.02v-1.36s0-.02.02-.02.02,0,.02.02v1.36s0,.02-.02.02Z"/>
            <path class="cls-3" d="M8.2,5.02s-.02,0-.02-.02v-1.62s0-.02.02-.02.02,0,.02.02v1.62s0,.02-.02.02Z"/>
            <path class="cls-3" d="M8.06,4.63s-.02,0-.02-.02v-1.27s0-.02.02-.02.02,0,.02.02v1.27s0,.02-.02.02Z"/>
            <path class="cls-3" d="M7.91,4.64s-.02,0-.02-.02v-1.29s0-.02.02-.02.02,0,.02.02v1.29s0,.02-.02.02Z"/>
            <path class="cls-3" d="M7.77,4.64s-.02,0-.02-.02v-1.33s0-.02.02-.02.02,0,.02.02v1.33s0,.02-.02.02Z"/>
            <path class="cls-3" d="M7.62,4.64s-.02,0-.02-.02v-1.33s0-.02.02-.02.02,0,.02.02v1.33s0,.02-.02.02Z"/>
            <path class="cls-3" d="M7.48,4.65s-.02,0-.02-.02v-1.33s0-.02.02-.02.02,0,.02.02v1.33s0,.02-.02.02Z"/>
            <path class="cls-3" d="M7.33,4.66s-.02,0-.02-.02v-1.33s0-.02.02-.02.02,0,.02.02v1.33s0,.02-.02.02Z"/>
            <path class="cls-3" d="M7.19,4.75s-.02,0-.02-.02v-1.33s0-.02.02-.02.02,0,.02.02v1.33s0,.02-.02.02Z"/>
            <path class="cls-3" d="M7.05,4.93s-.02,0-.02-.02v-1.5s0-.02.02-.02.02,0,.02.02v1.5s0,.02-.02.02Z"/>
            <path class="cls-3" d="M6.9,4.76s-.02,0-.02-.02v-1.33s0-.02.02-.02.02,0,.02.02v1.33s0,.02-.02.02Z"/>
            <path class="cls-3" d="M6.76,4.76s-.02,0-.02-.02v-1.33s0-.02.02-.02.02,0,.02.02v1.33s0,.02-.02.02Z"/>
            <g>
              <path class="cls-3" d="M7.58,3.34c-.31.05-.98.36-.9.79.11.6.46.36.92.27l.35.12c.13.13.31.25.44.09h.21v.81h-2.31v-1.97l1.28-.12Z"/>
              <path class="cls-3" d="M8.61,5.45h-2.31s-.02,0-.02-.02v-1.97s0-.02.02-.02l1.28-.12s.02,0,.02.02c0,.01,0,.02-.02.02-.22.04-.62.21-.8.46-.07.1-.1.2-.08.3.03.18.09.29.17.34.11.07.28.03.48-.02.08-.02.17-.04.26-.06,0,0,0,0,.01,0l.35.12s0,0,0,0c.06.06.17.16.28.16h0s.09-.02.12-.07c0,0,0,0,.02,0h.21s.02,0,.02.02v.81s0,.02-.02.02ZM6.32,5.41h2.26v-.77h-.18s-.09.07-.14.07h0c-.11,0-.23-.09-.3-.17l-.34-.11c-.09.02-.17.04-.25.06-.2.05-.38.1-.51.02-.09-.06-.15-.18-.19-.37-.02-.11,0-.23.08-.34.13-.19.39-.33.6-.41l-1.03.09v1.93Z"/>
            </g>
          </g>
          <g>
            <circle class="cls-4" cx="6.55" cy="3.2" r=".14"/>
            <path class="cls-3" d="M6.55,3.37c-.09,0-.17-.08-.17-.17s.08-.17.17-.17.17.08.17.17-.08.17-.17.17ZM6.55,3.09c-.06,0-.11.05-.11.11s.05.11.11.11.11-.05.11-.11-.05-.11-.11-.11Z"/>
          </g>
          <g>
            <circle class="cls-4" cx="6.87" cy="3.13" r=".14"/>
            <path class="cls-3" d="M6.87,3.3c-.09,0-.17-.08-.17-.17s.08-.17.17-.17.17.08.17.17-.08.17-.17.17ZM6.87,3.02c-.06,0-.11.05-.11.11s.05.11.11.11.11-.05.11-.11-.05-.11-.11-.11Z"/>
          </g>
          <g>
            <circle class="cls-4" cx="7.19" cy="3.05" r=".14"/>
            <path class="cls-3" d="M7.19,3.22c-.09,0-.17-.08-.17-.17s.08-.17.17-.17.17.08.17.17-.08.17-.17.17ZM7.19,2.93c-.06,0-.11.05-.11.11s.05.11.11.11.11-.05.11-.11-.05-.11-.11-.11Z"/>
          </g>
          <g>
            <circle class="cls-4" cx="7.51" cy="2.99" r=".14"/>
            <path class="cls-3" d="M7.51,3.16c-.09,0-.17-.08-.17-.17s.08-.17.17-.17.17.08.17.17-.08.17-.17.17ZM7.51,2.88c-.06,0-.11.05-.11.11s.05.11.11.11.11-.05.11-.11-.05-.11-.11-.11Z"/>
          </g>
          <g>
            <circle class="cls-4" cx="7.83" cy="2.96" r=".14"/>
            <path class="cls-3" d="M7.83,3.13c-.09,0-.17-.08-.17-.17s.08-.17.17-.17.17.08.17.17-.08.17-.17.17ZM7.83,2.85c-.06,0-.11.05-.11.11s.05.11.11.11.11-.05.11-.11-.05-.11-.11-.11Z"/>
          </g>
          <g>
            <circle class="cls-4" cx="8.14" cy="2.98" r=".14"/>
            <path class="cls-3" d="M8.14,3.15c-.09,0-.17-.08-.17-.17s.08-.17.17-.17.17.08.17.17-.08.17-.17.17ZM8.14,2.87c-.06,0-.11.05-.11.11s.05.11.11.11.11-.05.11-.11-.05-.11-.11-.11Z"/>
          </g>
          <g>
            <circle class="cls-4" cx="8.44" cy="3.08" r=".14"/>
            <path class="cls-3" d="M8.44,3.25c-.09,0-.17-.08-.17-.17s.08-.17.17-.17.17.08.17.17-.08.17-.17.17ZM8.44,2.97c-.06,0-.11.05-.11.11s.05.11.11.11.11-.05.11-.11-.05-.11-.11-.11Z"/>
          </g>
          <g>
            <circle class="cls-4" cx="8.69" cy="3.27" r=".14"/>
            <path class="cls-3" d="M8.69,3.44c-.09,0-.17-.08-.17-.17s.08-.17.17-.17.17.08.17.17-.08.17-.17.17ZM8.69,3.16c-.06,0-.11.05-.11.11s.05.11.11.11.11-.05.11-.11-.05-.11-.11-.11Z"/>
          </g>
          <g>
            <circle class="cls-4" cx="8.87" cy="3.53" r=".14"/>
            <path class="cls-3" d="M8.87,3.7c-.09,0-.17-.08-.17-.17s.08-.17.17-.17.17.08.17.17-.08.17-.17.17ZM8.87,3.41c-.06,0-.11.05-.11.11s.05.11.11.11.11-.05.11-.11-.05-.11-.11-.11Z"/>
          </g>
          <g>
            <circle class="cls-4" cx="8.96" cy="3.83" r=".14"/>
            <path class="cls-3" d="M8.96,4c-.09,0-.17-.08-.17-.17s.08-.17.17-.17.17.08.17.17-.08.17-.17.17ZM8.96,3.72c-.06,0-.11.05-.11.11s.05.11.11.11.11-.05.11-.11-.05-.11-.11-.11Z"/>
          </g>
          <g>
            <circle class="cls-4" cx="8.95" cy="4.15" r=".14"/>
            <path class="cls-3" d="M8.96,4.32c-.09,0-.17-.08-.17-.17s.08-.17.17-.17.17.08.17.17-.08.17-.17.17ZM8.96,4.04c-.06,0-.11.05-.11.11s.05.11.11.11.11-.05.11-.11-.05-.11-.11-.11Z"/>
          </g>
          <g>
            <circle class="cls-4" cx="8.89" cy="4.46" r=".14"/>
            <path class="cls-3" d="M8.89,4.62c-.09,0-.17-.08-.17-.17s.08-.17.17-.17.17.08.17.17-.08.17-.17.17ZM8.89,4.34c-.06,0-.11.05-.11.11s.05.11.11.11.11-.05.11-.11-.05-.11-.11-.11Z"/>
          </g>
          <g>
            <path class="cls-4" d="M6.49,3.39v.18c.36-.05.86-.25,1.32-.25.43,0,.76.17.76.6s-.18.81-.42,1.2l.25.12c.22-.43.4-.8.4-1.29,0-.41-.33-.82-.89-.82-.5,0-1,.17-1.42.26Z"/>
            <path class="cls-3" d="M8.39,5.27s0,0-.01,0l-.25-.12s-.01,0-.02-.02c0,0,0-.02,0-.02.2-.34.41-.74.41-1.18,0-.5-.46-.57-.73-.57-.29,0-.6.08-.88.15-.15.04-.3.08-.42.1,0,0-.02,0-.02,0,0,0,0-.01-.01-.02v-.18s0-.03,0-.03c.1-.02.2-.05.31-.08.34-.09.73-.19,1.12-.19.59,0,.91.44.91.85,0,.51-.2.9-.41,1.3,0,0-.01.02-.03.02ZM8.18,5.11l.19.09c.21-.41.39-.77.39-1.25,0-.38-.3-.79-.86-.79-.37,0-.76.1-1.1.18-.1.02-.2.05-.29.07v.13c.12-.02.26-.05.4-.09.28-.07.59-.15.89-.15.5,0,.78.23.78.63,0,.45-.2.85-.4,1.19Z"/>
          </g>
        </g>
        <g>
          <path class="cls-4" d="M6.29,1.51l-.15.27.15.27.15-.27-.15-.27ZM6.29,2.2l-.15.27.15.27.15-.27-.15-.27Z"/>
          <path class="cls-3" d="M6.29,2.77s-.02,0-.03-.02l-.15-.27s0-.02,0-.03l.15-.27s.04-.02.05,0l.15.27s0,.02,0,.03l-.15.27s-.01.02-.03.02ZM6.18,2.47l.11.21.11-.21-.11-.21-.11.21ZM6.29,2.08s-.02,0-.03-.02l-.15-.27s0-.02,0-.03l.15-.27s.04-.02.05,0l.15.27s0,.02,0,.03l-.15.27s-.01.02-.03.02ZM6.18,1.78l.11.21.11-.21-.11-.21-.11.21Z"/>
        </g>
        <g>
          <path class="cls-4" d="M5.77,2.12l.23.15.23-.15-.23-.15-.23.15ZM6.35,2.12l.23.15.23-.15-.23-.15-.23.15Z"/>
          <path class="cls-3" d="M6.58,2.3s-.01,0-.02,0l-.23-.15s-.01-.01-.01-.02,0-.02.01-.02l.23-.15s.02,0,.03,0l.23.15s.01.01.01.02,0,.02-.01.02l-.23.15s-.01,0-.02,0ZM6.41,2.12l.18.11.18-.11-.18-.11-.18.11ZM6,2.3s-.01,0-.02,0l-.23-.15s-.01-.01-.01-.02,0-.02.01-.02l.23-.15s.02,0,.03,0l.23.15s.01.01.01.02,0,.02-.01.02l-.23.15s-.01,0-.02,0ZM5.82,2.12l.18.11.18-.11-.18-.11-.18.11Z"/>
        </g>
        <g>
          <circle class="cls-4" cx="6.29" cy="2.13" r=".11"/>
          <path class="cls-3" d="M6.29,2.27c-.08,0-.14-.06-.14-.14s.06-.14.14-.14.14.06.14.14-.06.14-.14.14ZM6.29,2.05s-.08.04-.08.08.04.08.08.08.08-.04.08-.08-.04-.08-.08-.08Z"/>
        </g>
        <g>
          <circle class="cls-4" cx="6.29" cy="2.83" r=".3"/>
          <path class="cls-3" d="M6.29,3.16c-.18,0-.32-.15-.32-.32s.15-.32.32-.32.33.15.33.32-.15.32-.33.32ZM6.29,2.57c-.15,0-.27.12-.27.27s.12.27.27.27.27-.12.27-.27-.12-.27-.27-.27Z"/>
        </g>
        <path class="cls-3" d="M6.58,2.93s0,0,0,0c-.19-.03-.38-.03-.57,0,0,0,0,0,0,0,0,0-.02,0-.02-.02,0-.01,0-.02.02-.02.19-.03.39-.03.58,0,.01,0,.02.01.02.02,0,.01-.01.02-.02.02ZM6.58,2.78s0,0,0,0c-.07-.01-.14-.02-.21-.02-.01,0-.02,0-.02-.02v-.19s0-.02.02-.02.02,0,.02.02v.17c.06,0,.13.01.19.02.01,0,.02.01.02.02,0,.01-.01.02-.02.02ZM6.01,2.78s-.02,0-.02-.02c0-.01,0-.02.02-.02.06-.01.13-.02.19-.02,0-.01,0-.03,0-.05v-.12s0-.02.02-.02.02,0,.02.02c0,.05,0,.09,0,.12v.07s0,.02-.02.02c-.07,0-.14.01-.21.02,0,0,0,0,0,0Z"/>
        <g>
          <path class="cls-4" d="M6,3.34c-.03.48-.09.98-.27,1.34l.31-.12c.11-.41.13-.93.16-1.18l-.19-.03ZM6.58,3.34l-.19.03c.03.25.06.77.16,1.18l.31.12c-.19-.36-.25-.85-.27-1.34Z"/>
          <path class="cls-3" d="M6.86,4.7s0,0-.01,0l-.31-.12s-.01-.01-.02-.02c-.08-.3-.11-.66-.14-.93,0-.1-.02-.18-.03-.25,0-.01,0-.03.02-.03l.2-.03s.02,0,.02,0c0,0,.01.01.01.02.03.45.08.96.27,1.32,0,.01,0,.02,0,.03,0,0-.01,0-.02,0ZM6.57,4.53l.22.09c-.17-.36-.22-.83-.24-1.25l-.14.02c0,.06.01.14.02.23.02.26.06.62.13.91ZM5.73,4.7s-.02,0-.02,0c0,0,0-.02,0-.03.19-.37.25-.88.27-1.32,0,0,0-.02.01-.02,0,0,.01,0,.02,0l.2.03s.03.02.02.03c0,.07-.02.15-.03.25-.02.27-.06.63-.14.93,0,0,0,.02-.02.02l-.31.12s0,0-.01,0ZM6.03,3.37c-.02.42-.08.89-.24,1.25l.22-.09c.08-.29.11-.65.13-.91,0-.09.01-.16.02-.23l-.14-.02Z"/>
        </g>
        <g>
          <path class="cls-4" d="M6.29,4.38c-.37,0-.63.17-.65.61-.09-.16-.47-.65-.82-.59-.21.04-.4.33-.36.66-.17-.5-.68-.58-1.06-.29.33.27.48,1.07.75,1.42h4.27c.28-.35.43-1.15.76-1.42-.37-.3-.88-.21-1.06.29.03-.33-.15-.62-.36-.66-.35-.07-.73.43-.82.59-.02-.44-.29-.61-.65-.61Z"/>
          <path class="cls-3" d="M8.43,6.24h-4.27s-.02,0-.02-.01c-.12-.16-.22-.4-.32-.65-.12-.3-.25-.62-.43-.77,0,0-.01-.01-.01-.02,0,0,0-.02.01-.02.2-.16.44-.22.66-.15.16.05.3.16.39.32.02-.3.2-.52.39-.55.02,0,.05,0,.07,0,.31,0,.61.35.73.53.04-.36.28-.55.67-.55s.63.2.67.55c.13-.18.42-.53.73-.53.02,0,.05,0,.07,0,.19.04.37.26.39.55.09-.16.22-.28.39-.32.21-.06.46,0,.66.15,0,0,.01.01.01.02,0,0,0,.02-.01.02-.18.15-.3.46-.43.77-.1.25-.2.49-.32.65,0,0-.01.01-.02.01ZM4.17,6.18h4.25c.12-.15.21-.38.31-.62.12-.3.24-.6.42-.77-.18-.13-.4-.17-.58-.12-.19.05-.33.2-.41.42,0,.01-.02.02-.03.02-.01,0-.02-.02-.02-.03.03-.33-.16-.6-.34-.63-.02,0-.04,0-.06,0-.33,0-.66.46-.73.58,0,.01-.02.02-.03.01-.01,0-.02-.01-.02-.03-.02-.48-.35-.58-.62-.58s-.61.1-.62.58c0,.01,0,.02-.02.03-.01,0-.03,0-.03-.01-.07-.12-.4-.58-.73-.58-.02,0-.04,0-.06,0-.19.04-.37.3-.34.63,0,.01,0,.03-.02.03-.01,0-.03,0-.03-.02-.08-.21-.22-.36-.41-.42-.18-.05-.4,0-.58.12.17.16.3.47.42.77.1.24.19.47.31.62Z"/>
        </g>
        <g>
          <g>
            <path class="cls-3" d="M8.42,6.21c0,.16-.95.33-2.13.33s-2.13-.17-2.13-.33.95-.24,2.13-.24,2.13.08,2.13.24Z"/>
            <path class="cls-3" d="M6.29,6.56c-1.15,0-2.15-.17-2.15-.35,0-.24,1.65-.26,2.15-.26s2.15.02,2.15.26c0,.19-1.01.35-2.15.35ZM6.29,5.99c-1.38,0-2.11.11-2.11.22,0,.12.88.31,2.11.31s2.11-.19,2.11-.31c0-.11-.72-.22-2.11-.22Z"/>
          </g>
          <g>
            <circle class="cls-4" cx="6.29" cy="3.24" r=".1"/>
            <path class="cls-3" d="M6.29,3.37c-.07,0-.12-.05-.12-.12s.05-.12.12-.12.12.05.12.12-.05.12-.12.12ZM6.29,3.17s-.08.03-.08.08.04.08.08.08.08-.04.08-.08-.04-.08-.08-.08Z"/>
          </g>
          <g>
            <circle class="cls-4" cx="6.29" cy="3.46" r=".11"/>
            <path class="cls-3" d="M6.29,3.59c-.07,0-.13-.06-.13-.13s.06-.13.13-.13.13.06.13.13-.06.13-.13.13ZM6.29,3.37s-.08.04-.08.08.04.08.08.08.08-.04.08-.08-.04-.08-.08-.08Z"/>
          </g>
          <g>
            <circle class="cls-4" cx="6.29" cy="3.69" r=".12"/>
            <path class="cls-3" d="M6.29,3.83c-.08,0-.14-.06-.14-.14s.06-.14.14-.14.14.06.14.14-.06.14-.14.14ZM6.29,3.6c-.05,0-.09.04-.09.09s.04.09.09.09.09-.04.09-.09-.04-.09-.09-.09Z"/>
          </g>
          <g>
            <circle class="cls-4" cx="6.29" cy="3.95" r=".13"/>
            <path class="cls-3" d="M6.29,4.1c-.08,0-.15-.07-.15-.15s.07-.15.15-.15.15.07.15.15-.07.15-.15.15ZM6.29,3.84c-.06,0-.11.05-.11.11s.05.11.11.11.11-.05.11-.11-.05-.11-.11-.11Z"/>
          </g>
          <g>
            <circle class="cls-4" cx="6.29" cy="4.23" r=".14"/>
            <path class="cls-3" d="M6.29,4.4c-.09,0-.17-.07-.17-.17s.07-.17.17-.17.17.07.17.17-.07.17-.17.17ZM6.29,4.11c-.07,0-.12.06-.12.12s.05.12.12.12.12-.06.12-.12-.05-.12-.12-.12Z"/>
          </g>
          <path class="cls-3" d="M6.23,4.51s-.03.01-.03.04c0,.03.01.08.02.12,0,.04.03.03.04,0,0-.03,0-.05,0-.12,0-.03-.02-.04-.03-.04ZM6.35,4.51s-.03.01-.03.04c0,.06,0,.08,0,.12,0,.03.03.04.04,0,0-.04.01-.09.02-.12,0-.03-.01-.04-.03-.04ZM6.13,4.53s-.03.02-.03.03c0,.03,0,.06.01.1,0,.04.03.03.04,0,0-.03,0-.06,0-.11,0-.02,0-.03-.02-.03,0,0,0,0,0,0ZM6.45,4.53s-.02,0-.02.03c0,.05,0,.09,0,.11,0,.03.03.04.04,0,0-.04.01-.08.01-.1,0-.02-.01-.03-.03-.03,0,0,0,0,0,0ZM6.01,4.58s-.03.02-.02.04c0,.04.02.08.02.11,0,.03.03.02.03,0,0-.02,0-.07,0-.11,0-.03-.01-.04-.03-.04ZM6.57,4.58s-.02.01-.02.04c0,.04,0,.09,0,.11,0,.02.03.03.03,0,0-.04,0-.08.02-.11,0-.02,0-.03-.02-.04,0,0,0,0,0,0ZM4.89,4.58s-.03.02-.02.04c.02.04.04.06.05.1.02.04.04.01.03-.01,0-.03-.02-.05-.04-.11,0-.02-.02-.03-.03-.03ZM7.69,4.58s-.02,0-.03.03c-.02.05-.03.08-.04.11,0,.03.02.05.03.01.02-.04.04-.06.05-.1.01-.02,0-.04-.02-.04ZM5,4.59s-.02.02-.01.04c.01.03.03.07.05.11.01.03.04.02.03,0,0-.03-.01-.05-.03-.1,0-.03-.03-.04-.04-.03ZM7.57,4.59s-.02.01-.03.03c-.02.06-.02.07-.03.1,0,.03.02.04.03,0,.01-.04.03-.07.05-.11,0-.02,0-.03-.01-.04,0,0,0,0,0,0ZM5.15,4.61s-.03.03-.02.05c.01.03.03.07.05.11s.04.03.04,0c0-.03-.01-.07-.03-.13,0-.03-.02-.04-.03-.04ZM7.44,4.61s-.02,0-.03.04c-.02.06-.03.1-.03.13,0,.03.02.03.04,0s.03-.07.05-.11c0-.03,0-.05-.02-.05ZM4.8,4.63s-.03.03-.02.05c.02.03.03.04.04.08.02.03.03,0,.03-.01,0-.02-.01-.05-.02-.08,0-.02-.02-.03-.02-.03ZM7.79,4.63s-.02,0-.02.03c0,.03-.02.06-.02.08s.01.05.03.01c.02-.03.03-.04.04-.08,0-.02,0-.05-.02-.05ZM5.89,4.71s-.03.02-.03.04c0,.03.02.06.03.1,0,.04.04.02.03,0,0-.03,0-.06-.02-.11,0-.02-.01-.03-.02-.03ZM6.7,4.71s-.02,0-.02.03c-.01.05-.02.09-.02.11,0,.03.03.04.03,0,.01-.04.03-.07.03-.1,0-.02-.01-.04-.03-.04ZM6.29,4.75s-.02.03-.02.05c0,.07-.03.14-.06.18-.03.04-.06.03-.1,0s-.06-.03-.09-.06c-.04-.03-.07-.01-.02.05.13.19.27.35.27.65,0,.04,0,.05.02.05s.02-.01.02-.05c0-.3.14-.46.27-.65.04-.06.02-.08-.02-.05-.04.03-.06.04-.09.06-.04.02-.07.03-.1,0-.03-.04-.06-.11-.06-.18,0-.02,0-.05-.02-.05ZM5.29,4.7s0,0,0,0c0,0-.01.01,0,.03,0,.03.02.08.03.11,0,.03.04.02.03-.02,0-.04,0-.05-.02-.09,0-.02-.02-.04-.03-.04ZM7.29,4.7s-.03.01-.03.04c0,.04,0,.05-.02.09,0,.04.02.04.03.02,0-.03.03-.08.03-.11,0-.02,0-.03,0-.03,0,0,0,0,0,0ZM4.7,4.71s-.03.02-.01.05c.02.03.05.07.06.1s.04,0,.02-.02c-.02-.03-.02-.06-.04-.11,0-.02-.02-.02-.03-.02ZM7.89,4.71s-.02,0-.03.02c-.02.04-.03.08-.04.11-.02.03,0,.05.02.02s.04-.06.06-.1c.02-.03,0-.05-.01-.05ZM3.8,4.81s-.02.03,0,.06c.03.03.04.05.07.08.02.02.03,0,.02-.03-.01-.02-.03-.04-.05-.08-.01-.02-.02-.03-.03-.03ZM8.78,4.81s-.02,0-.03.03c-.02.04-.04.06-.05.08-.01.02,0,.05.02.03.03-.03.05-.04.07-.08.02-.02.01-.06,0-.06ZM3.94,4.83s-.03.01-.01.04c.02.04.04.08.05.11.01.03.06.04.04,0-.02-.04-.02-.07-.04-.11,0-.02-.03-.03-.04-.03ZM8.64,4.83s-.04.01-.04.03c-.02.04-.02.06-.04.11-.02.04.03.03.04,0,.01-.03.04-.07.05-.11.01-.03,0-.04-.01-.04ZM3.67,4.84s-.02.02,0,.04c.03.02.06.04.09.06.04.03.05,0,.03-.02-.02-.02-.04-.05-.08-.07-.01,0-.02,0-.03,0ZM8.92,4.84s-.02,0-.03,0c-.05.02-.07.05-.08.07-.02.02,0,.05.03.02.03-.02.06-.04.09-.06.02-.01.02-.04,0-.04ZM5.81,4.86s-.02.02-.02.03c0,.03.02.07.03.1,0,.03.04.03.04,0,0-.03,0-.07-.02-.11,0-.02-.01-.03-.02-.03,0,0,0,0,0,0ZM6.77,4.86s-.02,0-.02.03c-.01.05-.01.08-.02.11,0,.03.03.03.04,0,0-.03.02-.07.03-.1,0-.02,0-.03-.02-.03,0,0,0,0,0,0ZM4.96,4.81s-.02.02,0,.05c.04.14.05.22.05.25,0,.04-.03.04-.05.03-.03-.01-.06-.03-.08-.05-.02-.02-.05,0-.01.03.17.14.29.3.34.5,0,.04.03.04.03,0-.04-.25-.05-.45.01-.58.02-.05,0-.09-.04-.02-.02.05-.06.07-.09.03-.03-.04-.09-.16-.11-.22,0-.02-.02-.03-.02-.03,0,0,0,0,0,0ZM7.62,4.81s-.02.01-.02.03c-.02.05-.08.17-.11.22-.03.04-.07.02-.09-.03-.04-.08-.06-.03-.04.02.06.13.05.33.01.58,0,.04.02.04.03,0,.05-.2.16-.36.34-.5.03-.03,0-.05-.01-.03-.02.02-.05.03-.08.05-.03.01-.05,0-.05-.03,0-.04,0-.11.05-.25,0-.03,0-.04,0-.05,0,0,0,0,0,0ZM4.09,4.88s-.03.01-.02.03c.01.04.03.08.04.1,0,.02.03.01.03-.02s0-.05-.01-.09c0-.02-.02-.03-.04-.03ZM8.49,4.88s-.03,0-.04.03c0,.04,0,.06-.01.09s.02.04.03.02c0-.02.03-.06.04-.1,0-.02,0-.03-.02-.03ZM4.63,4.83s-.02.04,0,.06c.02.03.05.06.08.09.02.03.04,0,.02-.02-.01-.02-.04-.05-.07-.11,0-.01-.02-.02-.02-.02ZM7.96,4.83s-.01,0-.02.02c-.04.06-.06.08-.07.11-.01.02,0,.05.02.02.03-.03.06-.06.08-.09.02-.02.01-.07,0-.06ZM4.22,4.94s-.02,0-.02.03c0,.03.02.06.02.09,0,.03.03.02.03,0s0-.06,0-.09c0-.01-.02-.02-.03-.03ZM8.37,4.94s-.02.01-.03.03c0,.03,0,.06,0,.09s.02.03.03,0c0-.03.02-.06.02-.09,0-.02,0-.03-.02-.03ZM4.59,4.98s-.03.02-.01.05c.03.04.07.07.08.09.01.02.04,0,.02-.02-.02-.03-.05-.07-.07-.1,0,0-.02-.01-.03-.01ZM7.99,4.98s-.02,0-.02.01c-.01.03-.05.07-.07.1-.02.03.01.04.02.02.01-.02.05-.05.08-.09.02-.03,0-.04-.01-.05,0,0,0,0,0,0ZM4,5.1s-.02,0,0,.04c.04.06.09.15.09.18,0,.04-.02.04-.03.04-.05,0-.08-.04-.12-.05-.05-.01-.05.01-.02.04.17.13.35.27.41.39.03.05.07.07.05.02-.06-.15-.08-.28-.07-.36.01-.08.03-.13.03-.17,0-.04-.03-.04-.04,0,0,.03-.02.07-.03.08,0,.01-.05.02-.08-.03-.04-.05-.13-.14-.16-.17-.01,0-.02-.01-.03-.02ZM8.58,5.1s-.02,0-.03.02c-.03.02-.12.12-.16.17-.04.05-.07.04-.08.03,0-.01-.02-.05-.03-.08-.01-.04-.04-.04-.04,0,0,.04.02.1.03.17.01.08,0,.21-.07.36-.02.05.02.03.05-.02.07-.13.24-.27.41-.39.03-.02.03-.05-.02-.04-.05.01-.07.05-.12.05-.02,0-.04,0-.03-.04,0-.04.05-.13.09-.18.02-.03.01-.04,0-.04Z"/>
          <g>
            <path class="cls-4" d="M4.26,6.03l.06.18M4.37,5.99l.05.18M4.49,5.97l.03.18M4.61,5.95l.04.18M4.75,5.94l.03.18M4.91,5.94l.03.18M5.06,5.89l.02.18M5.2,5.9l.02.18M5.34,5.88l.02.18M5.48,5.86v.18M5.63,5.86v.18M5.76,5.85v.18M5.91,5.84v.18M6.08,5.84v.18M8.33,6.03l-.06.18M8.21,5.99l-.05.18M8.09,5.97l-.03.18M7.98,5.95l-.04.18M7.83,5.94l-.03.18M7.68,5.94l-.03.18M7.52,5.89l-.02.18M7.38,5.9l-.02.18M7.24,5.88l-.02.18M7.11,5.86v.18M6.96,5.86v.18M6.82,5.85v.18M6.67,5.84v.18M6.5,5.84v.18M6.29,5.83v.2"/>
            <path class="cls-3" d="M8.27,6.22s0,0,0,0c-.01,0-.02-.02-.01-.03l.05-.17s.02-.02.03-.01c.01,0,.02.02.01.03l-.05.17s-.01.02-.02.02ZM4.31,6.22s-.02,0-.02-.02l-.05-.17s0-.02.01-.03c0,0,.02,0,.03.01l.05.17s0,.02-.01.03c0,0,0,0,0,0ZM8.17,6.19s0,0,0,0c-.01,0-.02-.01-.01-.03l.05-.18s.02-.02.03-.01c.01,0,.02.01.01.03l-.05.18s-.01.02-.02.02ZM4.42,6.19s-.02,0-.02-.02l-.05-.18s0-.02.01-.03c.01,0,.02,0,.03.01l.05.18s0,.02-.01.03c0,0,0,0,0,0ZM8.06,6.18s0,0,0,0c-.01,0-.02-.01-.02-.02l.03-.18s.01-.02.02-.02c.01,0,.02.01.02.02l-.03.18s-.01.02-.02.02ZM4.53,6.18s-.02,0-.02-.02l-.03-.18s0-.02.02-.02c0,0,0,0,0,0,0,0,.02,0,.02.02l.03.18s0,.02-.02.02c0,0,0,0,0,0ZM7.94,6.15s0,0,0,0c-.01,0-.02-.01-.02-.03l.04-.18s.01-.02.02-.02c0,0,0,0,0,0,.01,0,.02.01.02.03l-.04.18s-.01.02-.02.02ZM4.64,6.15s-.02,0-.02-.02l-.04-.18s0-.02.02-.02c.01,0,.02,0,.02.02l.04.18s0,.02-.02.02c0,0,0,0,0,0ZM7.64,6.14s0,0,0,0c-.01,0-.02-.01-.02-.02l.03-.18s.01-.02.02-.02c0,0,0,0,0,0,.01,0,.02.01.02.02l-.03.18s-.01.02-.02.02ZM4.94,6.14s-.02,0-.02-.02l-.03-.18s0-.02.02-.02c.01,0,.02,0,.02.02l.03.18s0,.02-.02.02c0,0,0,0,0,0ZM7.8,6.14s0,0,0,0c-.01,0-.02-.01-.02-.02l.03-.18s0-.02.02-.02c0,0,0,0,0,0,.01,0,.02.01.02.02l-.03.18s0,.02-.02.02ZM4.78,6.14s-.02,0-.02-.02l-.03-.18s0-.02.02-.02c0,0,0,0,0,0,.01,0,.02,0,.02.02l.03.18s0,.02-.02.02c0,0,0,0,0,0ZM7.36,6.1s0,0,0,0c-.01,0-.02-.01-.02-.02l.02-.18s.01-.02.02-.02c.01,0,.02.01.02.02l-.02.18s-.01.02-.02.02ZM5.22,6.1s-.02,0-.02-.02l-.02-.18s0-.02.02-.02c.01,0,.02,0,.02.02l.02.18s0,.02-.02.02c0,0,0,0,0,0ZM7.5,6.09s0,0,0,0c-.01,0-.02-.01-.02-.02l.02-.18s.01-.02.02-.02c0,0,0,0,0,0,.01,0,.02.01.02.02l-.02.18s-.01.02-.02.02ZM5.08,6.09s-.02,0-.02-.02l-.02-.18s0-.02.02-.02c0,0,0,0,0,0,.01,0,.02,0,.02.02l.02.18s0,.02-.02.02c0,0,0,0,0,0ZM5.36,6.08s-.02,0-.02-.02l-.02-.18s0-.02.02-.02c0,0,0,0,0,0,.01,0,.02,0,.02.02l.02.18s0,.02-.02.02c0,0,0,0,0,0ZM7.22,6.08s0,0,0,0c-.01,0-.02-.01-.02-.02l.02-.18s.01-.02.02-.02c0,0,0,0,0,0,.01,0,.02.01.02.02l-.02.18s-.01.02-.02.02ZM6.95,6.07s0,0,0,0c-.01,0-.02-.01-.02-.02v-.18s.02-.02.03-.02c.01,0,.02.01.02.02v.18s-.02.02-.03.02ZM5.64,6.07s-.02,0-.02-.02v-.18s0-.02,0-.02c0,0,0,0,0,0,.01,0,.02,0,.02.02v.18s0,.02,0,.02c0,0,0,0,0,0ZM5.49,6.07s-.02,0-.02-.02v-.18s0-.02,0-.02c0,0,0,0,0,0,.01,0,.02,0,.02.02v.18s0,.02,0,.02c0,0,0,0,0,0ZM7.09,6.07s0,0,0,0c-.01,0-.02-.01-.02-.02v-.18s.02-.02.03-.02c0,0,0,0,0,0,.01,0,.02.01.02.02v.18s-.02.02-.03.02ZM6.81,6.06s0,0,0,0c-.01,0-.02-.01-.02-.02v-.18s.02-.02.03-.02c0,0,0,0,0,0,.01,0,.02.01.02.02v.18s-.02.02-.03.02ZM5.77,6.06s-.02,0-.02-.02v-.18s0-.02.01-.02c0,0,0,0,0,0,.01,0,.02,0,.02.02v.18s0,.02-.01.02c0,0,0,0,0,0ZM6.29,6.05s-.02,0-.02-.02v-.2s0-.02.02-.02.02,0,.02.02v.2s0,.02-.02.02ZM6.67,6.05h0s-.02-.01-.02-.02v-.18s.02-.02.03-.02h0s.02.01.02.02v.18s-.02.02-.03.02ZM5.92,6.05s-.02,0-.02-.02v-.18s0-.02.01-.02h0s.02,0,.02.02v.18s0,.02-.01.02h0ZM6.5,6.04s0,0,0,0c-.01,0-.02-.01-.02-.02v-.18s.02-.02.03-.02c0,0,0,0,0,0,.01,0,.02.01.02.02v.18s-.02.02-.03.02ZM6.09,6.04s-.02,0-.02-.02v-.18s0-.02.01-.02c0,0,0,0,0,0,.01,0,.02,0,.02.02v.18s0,.02-.01.02c0,0,0,0,0,0Z"/>
          </g>
        </g>
      </g>
    </g>
  </g>
</svg>