<?xml version="1.0" encoding="UTF-8"?>
<svg id="Layer_2" data-name="Layer 2" xmlns="http://www.w3.org/2000/svg" viewBox="0 0 34.02 17.01">
  <defs>
    <style>
      .cls-1 {
        fill: #d82328;
      }

      .cls-2 {
        fill: #f7e82b;
      }
    </style>
  </defs>
  <g id="Layer_1-2" data-name="Layer 1">
    <g>
      <path class="cls-1" d="M0,0h34.02v17.01H0V0Z"/>
      <path class="cls-2" d="M0,10.2v-3.4l34.02,3.4v-3.4L0,10.2ZM15.31,0h3.4l-1.7,6.68-1.7-6.68ZM18.71,17.01h-3.4l1.7-6.68,1.7,6.68ZM0,0h5.1l13.47,9.44L0,0ZM0,17.01h5.1l13.47-9.44L0,17.01ZM34.02,0h-5.1l-13.47,9.44L34.02,0ZM34.02,17.01h-5.1L15.45,7.57l18.57,9.44Z"/>
      <circle class="cls-1" cx="17.01" cy="8.5" r="3.04"/>
      <circle class="cls-2" cx="17.01" cy="8.5" r="2.43"/>
    </g>
  </g>
</svg>