<?xml version="1.0" encoding="UTF-8"?>
<svg id="Layer_2" data-name="Layer 2" xmlns="http://www.w3.org/2000/svg" viewBox="0 0 25.51 17.01">
  <defs>
    <style>
      .cls-1 {
        fill: #d0202d;
      }

      .cls-2 {
        fill: #fff;
      }

      .cls-3 {
        fill: #010101;
      }
    </style>
  </defs>
  <g id="Layer_1-2" data-name="Layer 1">
    <g>
      <path class="cls-2" d="M0,0h25.51v17.01H0V0Z"/>
      <path class="cls-1" d="M12.76,0h12.76v17.01h-12.76V0Z"/>
      <g>
        <path class="cls-1" d="M3.82,5.4h-1.27v-1.2s-.01,0-.02,0c-.17,0-.32-.13-.35-.3,0-.03,0-.06,0-.08H.98v-1.27h1.2c0-.17.12-.34.3-.37.03,0,.06,0,.08,0V.98h1.27v1.2s.01,0,.02,0c.17,0,.32.13.35.3,0,.03,0,.06,0,.08h1.2v1.27h-1.2c0,.17-.12.34-.3.37-.03,0-.05,0-.08,0v1.2ZM2.56,5.39h1.25v-1.2h0s.06,0,.08,0c.17-.03.3-.2.29-.37h0s1.2,0,1.2,0v-1.25h-1.2s0-.06,0-.09c-.03-.17-.18-.29-.35-.29,0,0-.01,0-.02,0h0s0-1.2,0-1.2h-1.25v1.2h0s-.06,0-.08,0c-.17.03-.3.2-.29.37h0s-1.2,0-1.2,0v1.25h1.2s0,.06,0,.09c.03.17.18.29.35.29,0,0,.01,0,.02,0h0s0,1.2,0,1.2Z"/>
        <path class="cls-2" d="M3.81,2.18c.17-.02.34.11.38.29,0,.03,0,.07,0,.1v1.25c.02.17-.11.34-.29.38-.03,0-.07,0-.1,0h-1.25c-.17.02-.34-.11-.38-.29,0-.03,0-.07,0-.1v-1.25c-.02-.17.11-.34.29-.38.03,0,.07,0,.1,0h1.25Z"/>
        <g>
          <path class="cls-2" d="M2.57.99h1.25v4.39h-1.25V.99ZM.99,2.57h4.39v1.25H.99v-1.25Z"/>
          <path class="cls-3" d="M2.57,5.39v-1.57H.99v-1.25h1.57V.99h1.25v1.57h1.58v1.25h-1.58v1.57h-1.25ZM2.57,3.81v1.57h1.25v-1.57h-1.25ZM.99,2.57v1.24h1.57v-1.24H.99ZM2.57,2.57v1.24h1.25v-1.25h-1.25ZM3.81,2.57v1.24h1.58v-1.24h-1.58ZM2.57,2.57h1.25V.99h-1.25v1.57Z"/>
        </g>
        <g>
          <path class="cls-2" d="M2.64,1.06h1.1v4.25h-1.1V1.06ZM1.06,2.64h4.25v1.1H1.06v-1.1Z"/>
          <path class="cls-3" d="M2.64,5.32v-1.58h-1.58s0-1.1,0-1.1h1.58v-1.57h1.1v1.57h1.58v1.1s-1.57,0-1.57,0v1.57h-1.1ZM2.64,3.74v1.57h1.1v-1.57h-1.1ZM1.06,2.64v1.1h1.57s0-1.1,0-1.1h-1.57ZM2.64,2.64v1.1h1.1v-1.1h-1.1ZM3.74,2.64v1.1s1.58,0,1.58,0v-1.1s-1.58,0-1.58,0ZM2.64,2.64h1.1v-1.57h-1.1v1.57Z"/>
        </g>
        <g>
          <circle class="cls-2" cx="3.19" cy="3.19" r=".98"/>
          <path class="cls-3" d="M3.19,4.17c-.54,0-.99-.44-.99-.99s.44-.99.99-.99.99.44.99.99-.44.99-.99.99ZM3.19,2.21c-.54,0-.98.44-.98.98s.44.98.98.98.98-.44.98-.98-.44-.98-.98-.98Z"/>
        </g>
        <g>
          <circle class="cls-2" cx="3.19" cy="3.19" r=".73"/>
          <path class="cls-3" d="M3.19,3.92c-.4,0-.73-.33-.73-.73s.33-.73.73-.73.73.33.73.73-.33.73-.73.73ZM3.19,2.46c-.4,0-.73.33-.73.73s.33.73.73.73.73-.33.73-.73-.33-.73-.73-.73Z"/>
        </g>
        <g id="a">
          <g>
            <path class="cls-2" d="M4.14,2.4s-.1.09-.14.14l-.04-.02c.05-.04.12-.11.16-.15l.02.03ZM4.11,2.34c-.06.02-.18.05-.23.08v-.02s.03-.16.03-.19h.04s-.02.11-.03.15c.04,0,.13-.04.16-.06l.03.03Z"/>
            <path class="cls-3" d="M4,2.54l-.04-.02c.05-.05.12-.11.16-.15l.02.03h0s-.1.09-.14.14ZM4.12,2.37s-.11.11-.16.15l.04.02s.1-.12.14-.14l-.02-.03ZM3.88,2.43v-.02s.03-.16.03-.19h.04s-.02.1-.03.15c.04,0,.13-.04.16-.06l.03.03h0c-.06.02-.18.05-.23.09ZM3.91,2.22s-.02.16-.04.19v.02c.06-.03.18-.07.24-.08l-.03-.03s-.12.05-.16.06c0-.05.02-.11.03-.14h-.04Z"/>
          </g>
          <g>
            <path class="cls-2" d="M4.19,2.48h-.05c.01-.06-.05-.16-.13-.21-.08-.05-.16-.04-.17.02s.05.16.13.21c.03.02.06.03.09.03l.03-.04.04.04-.05.05c-.17-.03-.31-.18-.3-.35,0-.01,0-.03,0-.04.16-.03.34.09.39.26,0,.01,0,.02,0,.04Z"/>
            <path class="cls-3" d="M4.09,2.59c-.17-.03-.31-.18-.3-.35,0-.02,0-.03,0-.04.02,0,.03,0,.05,0,.15,0,.29.11.34.26,0,.01,0,.02,0,.04h0s-.05,0-.05,0c.01-.06-.05-.16-.13-.21-.05-.03-.1-.04-.13-.03-.02,0-.03.02-.04.05-.01.06.05.16.13.21.03.02.06.03.09.03l.04-.04.04.04-.05.05ZM3.84,2.19s-.03,0-.05,0c0,.01,0,.03,0,.04,0,.17.13.33.3.35l.05-.05-.04-.04-.04.04s-.06-.01-.09-.03c-.08-.05-.14-.15-.13-.21,0-.02.02-.04.04-.05.03-.01.08,0,.13.03.08.05.14.15.13.21h.05s0-.02,0-.04c-.04-.15-.19-.26-.34-.26Z"/>
          </g>
        </g>
        <g id="a-2" data-name="a">
          <g>
            <path class="cls-2" d="M3.98,4.14s-.09-.1-.14-.14l.02-.04c.04.05.11.12.15.16l-.03.02ZM4.03,4.11c-.02-.06-.05-.18-.08-.23h.02s.16.03.19.03v.04s-.11-.02-.15-.03c0,.04.04.13.06.16l-.03.03Z"/>
            <path class="cls-3" d="M3.98,4.14h0s-.09-.1-.14-.14l.02-.04s.11.12.15.16l-.03.02h0ZM3.86,3.96l-.02.04s.12.1.14.14l.03-.02s-.11-.11-.15-.16ZM4.03,4.11h0c-.03-.12-.06-.19-.08-.23h.02s.16.03.19.03v.04s-.11-.02-.15-.03c0,.04.04.13.06.16l-.03.03h0ZM3.97,3.87h-.02s.05.12.08.24l.03-.03s-.05-.12-.06-.16c.04,0,.11.02.14.03v-.04s0,0,0,0c-.04,0-.16-.02-.19-.04Z"/>
          </g>
          <g>
            <path class="cls-2" d="M3.89,4.19v-.05c.06.01.16-.05.21-.13.05-.08.04-.16-.02-.17s-.16.05-.21.13c-.02.03-.03.06-.03.09l.04.03-.04.04-.05-.05c.03-.17.18-.31.35-.3.01,0,.03,0,.04,0,.03.16-.09.34-.26.39-.01,0-.02,0-.04,0Z"/>
            <path class="cls-3" d="M3.89,4.19h0v-.05s0,0,.01,0c.06,0,.15-.05.2-.13.03-.05.04-.1.03-.13,0-.02-.02-.03-.05-.04-.07-.01-.16.05-.21.13-.02.03-.03.06-.03.09l.04.03-.04.04-.05-.05c.02-.17.18-.3.35-.3.02,0,.03,0,.05,0,.03.16-.09.34-.26.39-.01,0-.02,0-.04,0h0ZM3.89,4.14v.05s.02,0,.04,0c.17-.05.28-.22.26-.38-.02,0-.03,0-.05,0-.17,0-.32.13-.35.3l.05.05.04-.04-.04-.03s.01-.06.03-.09c.05-.08.13-.13.19-.13,0,0,.01,0,.02,0,.02,0,.04.02.05.04.01.03,0,.08-.03.13-.05.08-.13.13-.19.13,0,0-.01,0-.02,0Z"/>
          </g>
        </g>
        <g id="a-3" data-name="a">
          <g>
            <path class="cls-2" d="M2.24,3.98s.1-.09.14-.14l.04.02c-.05.04-.12.11-.16.15l-.02-.03ZM2.27,4.03c.06-.02.18-.05.23-.08v.02s-.03.16-.03.19h-.04s.02-.11.03-.15c-.04,0-.13.04-.16.06l-.03-.03Z"/>
            <path class="cls-3" d="M2.47,4.16h-.04s.02-.1.03-.15c-.04,0-.13.04-.16.06l-.03-.03h0c.05-.02.18-.05.23-.09v.02s-.03.16-.03.19ZM2.46,4.01s-.02.11-.03.14h.04s.02-.15.04-.18v-.02c-.06.03-.19.07-.24.08l.03.03s.12-.05.16-.06ZM2.26,4.01l-.02-.03h0s.1-.09.14-.14l.04.02c-.05.05-.12.11-.16.15ZM2.24,3.98l.02.03s.11-.11.16-.15l-.04-.02s-.1.12-.14.14Z"/>
          </g>
          <g>
            <path class="cls-2" d="M2.19,3.89h.05c-.01.06.05.16.13.21.08.05.16.04.17-.02s-.05-.16-.13-.21c-.03-.02-.06-.03-.09-.03l-.03.04-.04-.04.05-.05c.17.03.31.18.3.35,0,.01,0,.03,0,.04-.16.03-.34-.09-.39-.26,0-.01,0-.02,0-.04Z"/>
            <path class="cls-3" d="M2.54,4.19c-.15,0-.29-.11-.34-.26,0-.01,0-.02,0-.04h0s.05,0,.05,0c-.01.06.05.16.13.21.05.03.1.04.13.03.02,0,.03-.02.04-.05.01-.06-.05-.16-.13-.21-.03-.02-.06-.03-.09-.03l-.04.04-.04-.04.05-.05c.17.03.31.18.3.35,0,.02,0,.03,0,.04-.02,0-.03,0-.05,0ZM2.19,3.89s0,.02,0,.04c.05.17.22.28.38.26,0-.01,0-.03,0-.04,0-.17-.13-.33-.3-.35l-.05.05.04.04.04-.04s.06.01.09.03c.08.05.14.15.13.21,0,.02-.02.04-.04.05-.03.02-.08,0-.13-.03-.08-.05-.14-.15-.13-.21h-.05Z"/>
          </g>
        </g>
        <g id="a-4" data-name="a">
          <g>
            <path class="cls-2" d="M2.4,2.24s.09.1.14.14l-.02.04c-.04-.05-.11-.12-.15-.16l.03-.02ZM2.34,2.27c.02.06.05.18.08.23h-.02s-.16-.03-.19-.03v-.04s.11.02.15.03c0-.04-.04-.13-.06-.16l.03-.03Z"/>
            <path class="cls-3" d="M2.41,2.51s-.15-.04-.19-.04h0v-.04s.11.02.15.03c0-.04-.04-.13-.06-.16l.03-.03h0c.03.12.06.19.08.23h-.02ZM2.22,2.47s.16.02.19.04h.02s-.05-.12-.08-.24l-.03.03s.05.12.06.16c-.04,0-.11-.02-.14-.03v.04s0,0,0,0ZM2.52,2.42s-.11-.12-.15-.16l.03-.02h0s.09.1.14.14l-.02.04ZM2.4,2.24l-.03.02s.11.11.15.16l.02-.04s-.12-.1-.14-.14Z"/>
          </g>
          <g>
            <path class="cls-2" d="M2.48,2.19v.05c-.06-.01-.16.05-.21.13-.05.08-.04.16.02.17s.16-.05.21-.13c.02-.03.03-.06.03-.09l-.04-.03.04-.04.05.05c-.03.17-.18.31-.35.3-.01,0-.03,0-.04,0-.03-.16.09-.34.26-.39.01,0,.02,0,.04,0Z"/>
            <path class="cls-3" d="M2.24,2.59s-.03,0-.05,0c-.03-.16.09-.34.26-.39,0,0,.02,0,.03,0h0s0,0,0,0v.05s0,0-.01,0c-.06,0-.15.05-.2.13-.03.05-.04.1-.03.13,0,.02.02.03.05.04,0,0,.01,0,.02,0,.06,0,.14-.05.19-.13.02-.03.03-.06.04-.09l-.04-.03.04-.04.05.05c-.02.17-.18.3-.35.3ZM2.48,2.19h0s-.02,0-.03,0c-.17.05-.28.22-.26.38.02,0,.03,0,.05,0,.17,0,.32-.13.35-.3l-.05-.05-.04.04.04.03s-.01.06-.04.09c-.05.08-.13.13-.19.13,0,0-.01,0-.02,0-.02,0-.04-.02-.05-.04-.01-.03,0-.08.03-.13.05-.08.13-.13.19-.13,0,0,.01,0,.02,0v-.05Z"/>
          </g>
        </g>
      </g>
      <g>
        <path class="cls-3" d="M2.41,3.74s-.05-.09-.07-.1c0,0,.02-.02.03-.02,0,.02.04.08.04.08l.05-.04s-.03-.04-.04-.05c.01,0,.03-.02.03-.02,0,.01,0,.03.03.06,0,0,.05-.03.07-.05l.02.04s-.13.07-.16.1ZM2.33,3.27c-.06.01-.09.06-.08.11,0,.06.06.09.11.08.05,0,.09-.06.08-.12s-.06-.09-.11-.08ZM2.34,3.31s.08.01.09.05-.02.07-.07.08-.08-.02-.09-.05c0-.03.02-.07.07-.08ZM2.45,2.97s-.06.06-.1.08c0-.03-.02-.04-.05-.04-.02,0-.05.02-.05.03,0,.02-.01.09-.01.09.05,0,.15,0,.19.02v-.04s-.07,0-.07,0v-.02s.06-.04.06-.04c0,0,.05-.04.05-.07,0,0,0,0,0,0ZM2.34,3.1s-.07,0-.08,0c0-.04.02-.06.04-.06.02,0,.04.01.04.06ZM2.55,2.56s-.09.04-.09.08c0,.02,0,.04.03.06.02.02.05.02.07.02.02,0,.05-.03.05-.04,0-.01-.03-.05-.05-.05l.03-.04s.04.05.06.06c-.02.04-.03.07-.07.09-.04.02-.08.02-.12-.02-.04-.03-.02-.1,0-.12.02-.03.07-.04.07-.06l.03.03ZM2.75,2.35v.14s.01.05,0,.08l.04-.03s-.01-.06-.01-.06l.07-.04s.03.02.03.05l.06-.02s-.08-.04-.08-.04l-.11-.08ZM2.77,2.39l.06.04-.06.03v-.08ZM3.08,2.25s0,.1.01.16c.04,0,.08,0,.09-.03v.05s-.09,0-.13.01c0-.06,0-.15-.02-.18h.05ZM3.41,2.27s-.04.09-.05.15c.04.01.07.02.1,0v.04c-.05-.02-.1-.03-.14-.04.02-.06.05-.14.04-.18h.05ZM3.74,2.42l-.12.07s-.04.02-.08.03l.05.02s.04-.04.04-.04l.07.05s0,.04-.03.05l.05.04s0-.09,0-.09l.02-.13ZM3.71,2.46v.08s-.07-.04-.07-.04l.07-.04ZM3.8,2.74l-.02-.04s.13-.06.17-.09h0s-.04.2-.04.2c.04-.01.09-.04.11-.06l.02.04s-.12.03-.17.07h0s.03-.19.03-.19c0,0-.09.04-.1.07ZM4.09,3.01s0-.05-.02-.05h0s.03-.02.03-.02c.01.04.03.14.03.16h-.03s0,0,0,0c.01-.01,0-.06,0-.06-.05,0-.14.02-.15.04v-.05s.1,0,.15-.02ZM3.92,3.42s.06-.06.1-.08c0,.03.02.04.05.04.02,0,.05-.02.05-.03,0-.02.01-.09.01-.09-.05,0-.15,0-.19-.02v.04s.07,0,.07,0v.02s-.06.04-.06.04c0,0-.05.04-.05.07,0,0,0,0,0,0ZM4.04,3.29s.07,0,.08,0c0,.04-.02.06-.04.06-.02,0-.04-.01-.04-.07ZM3.86,3.54l-.03.05s.05.01.08.03c0,.02.04.08.04.13l.04-.06s-.04-.02-.05-.07c.05-.02.08-.02.1-.02l.03-.06s-.13.05-.14.04c-.02,0-.06-.02-.07-.05Z"/>
        <circle class="cls-3" cx="3.64" cy="3.92" r=".04"/>
        <circle class="cls-3" cx="2.74" cy="3.92" r=".04"/>
      </g>
      <g>
        <path class="cls-3" d="M3.25,4.13s-.01,0-.02-.01c0,0,0,.01,0,.02-.01.01-.03,0-.04,0s-.02,0-.04,0c0,0,0-.01,0-.02,0,0-.01.01-.02.01,0,0,0-.01,0-.02,0,0-.01,0-.02,0-.02,0-.01-.02-.02-.03s-.01-.02,0-.04c0,0,.01,0,.01-.01,0,0-.02,0-.02-.01,0,0,.01,0,.02,0,0,0,0,0,0-.02,0-.02.02-.02.03-.03,0,0,.02-.02.03-.02,0,0,.01,0,.01,0,0,0,0-.02,0-.02s.01.01,0,.02c0,0,0,0,.01,0,.02,0,.02.01.03.02,0,0,.02,0,.03.03,0,0,0,.01,0,.02,0,0,.02,0,.02,0,0,0,0,.01-.02.01,0,0,.01,0,.01.01,0,.02,0,.03,0,.04s0,.02-.02.03c0,0-.01,0-.02,0,0,0,0,.02,0,.02ZM3.16,4.08s0,.01,0,.03c0,.02.02.01.03.01s.03,0,.03-.01c0-.01,0-.02,0-.03s.01.01.03.01c.02,0,.02-.02.02-.03,0,0,.01-.02,0-.03-.01,0-.03,0-.03,0s.02,0,.02-.02c0-.02-.01-.02-.02-.03,0,0-.02-.02-.03,0-.01,0,0,.03-.01.03s0-.02-.01-.03c-.01,0-.02,0-.03,0,0,0-.02.01-.02.03,0,.01.02.02.02.02s-.02,0-.03,0c-.01.01,0,.02,0,.03,0,0,0,.03.02.03.01,0,.02-.02.03-.01Z"/>
        <path class="cls-3" d="M3.19,4.11s0,0,0-.01c0,0,0,0,0,0-.01,0-.01,0-.02,0,0,0-.01,0-.02-.02,0,0,0,0,0-.01,0,0-.01,0-.01,0,0,0,0,0,0,0,0,0,0,0,0,0,0,0,0-.02,0-.02,0,0,0-.02.01-.02,0,0,0,0,.01,0,0,0,0-.01,0-.01,0,0,0,0,.01,0,0,0,0,0,0,0,0,0,.02,0,.02,0s.01,0,.02,0c0,0,0,0,0,0,0,0,0,0,.01,0,0,0,0,0,0,.01,0,0,0,0,.01,0,0,0,0,.01.01.02,0,0,0,.01,0,.02,0,0,0,0,0,0,0,0,.01,0,0,0,0,0,0,0-.01,0,0,0,0,0,0,.01,0,.01-.01.01-.02.02,0,0,0,.01-.02,0,0,0,0,0,0,0,0,0,0,.01,0,.01ZM3.19,4.07s0,0,0,.01c0,0,.01,0,.02,0s.01,0,.01-.02c0,0-.01,0-.01-.01,0,0,0,0,.02,0,0,0,0-.01,0-.02,0,0,0-.01-.01-.01,0,0-.01,0-.01,0s0,0,0-.02c0,0-.01,0-.02,0s-.01,0-.02,0c0,0,0,.01,0,.02s0,0-.01,0c0,0,0,0-.01.01,0,0,0,.01,0,.02,0,0,.01,0,.02,0,0,0,0,0-.01.01,0,0,0,.01.01.02s0,.01.02,0c0,0,0-.01,0-.01Z"/>
        <circle class="cls-3" cx="3.19" cy="4.05" r=".01"/>
      </g>
      <g>
        <path class="cls-3" d="M2.69,3.72h0c.33-.01.67-.01,1,0-.33-.01-.67-.01-1,0h0Z"/>
        <path class="cls-3" d="M3.22,3.33s0-.04,0-.07h0s0,.05,0,.07ZM3.18,3.33s-.01-.05-.02-.06h0s.02.05.02.06ZM3.18,2.86s0,0-.02-.03h0s.02.03.02.03h0Z"/>
        <g>
          <path class="cls-2" d="M3.36,3.71s-.03.02-.03.03c0,.01.02.01.03.01-.01,0-.06.01-.07,0-.01,0-.11-.01-.13-.01-.01,0-.03-.01-.03-.03,0,0,0-.02.02-.02,0-.01.02-.03.05-.05-.04,0-.1-.01-.11-.03-.03-.01-.05,0-.06.03,0,.05-.03.07-.06.07-.02,0-.03,0-.03.01l.07.02s.02.08,0,.08c0,0-.04,0-.05,0s-.02,0-.02,0c-.01,0-.02,0-.03,0,0,0,0-.03.03-.04.01,0,.03,0,.03-.02,0-.01-.04,0-.07-.02-.02,0-.03-.02-.02-.06,0-.04.06-.05.08-.05,0-.02,0-.05.02-.07.03-.03.08-.02.13-.02.02-.01.07-.03.12-.04.04,0,.22-.05.3-.04-.02-.03-.01-.09.02-.11.04-.02.09.04.1.03.01-.01-.01-.03-.05-.06,0-.01,0-.01,0-.02,0-.01,0-.02,0-.03,0,0,.03,0,.04.02,0,.01.02.02.03.01.01,0,0,0,0-.02,0,0-.01-.02,0-.02,0,0,.03-.03.05-.03,0,0,.01.02.02.03.02.02.03.02.04.03,0,0,0,.02.01.04.01.03.04.05.07.08,0,0,.01,0,.01.02,0,0,0,.02,0,.02,0,0-.02,0-.03,0-.02-.01-.03-.02-.04-.01-.03,0-.05.05-.09.05-.04,0-.06-.06-.09-.04-.02.02.05.06.04.08,0,0,.02.02.01.04.04,0,.07-.03.08-.06.02-.03.04-.04.05-.05.01,0,.03,0,.03.01,0,0,.01,0,.02,0,.01,0,0,.02,0,.02,0,0,0,0-.01,0,0,0-.02,0-.02.01,0,0-.02.02-.02.04,0,.01-.03.03-.04.04,0,0,0,.02,0,.03,0,0,0,0,.01,0,0,0,0,0,0,.01,0,.01-.04.06-.05.06-.02,0-.03-.02-.03-.03-.02,0-.03-.01-.03-.02,0,0-.04.02-.05.03,0,0-.01,0-.02,0,0,0-.03.02-.03.02-.03,0-.07.02-.1.02h-.08s0,0,0,0Z"/>
          <path class="cls-3" d="M2.91,3.84s0,0,0,0c0,0,0,0,0,0,0-.01,0-.03.02-.03.01,0,.03,0,.03-.02,0,0-.01,0-.03-.01-.01,0-.03,0-.04,0-.02,0-.03-.02-.02-.06,0-.03.03-.05.08-.05,0-.02,0-.05.02-.07.03-.03.07-.02.11-.02,0,0,.02,0,.02,0,.02-.01.07-.03.12-.04.01,0,.04,0,.08-.01.07-.01.17-.03.22-.03-.01-.02-.01-.04,0-.07,0-.02.01-.03.03-.04.03-.01.06,0,.08.02.01,0,.02.01.02.01,0,0,0,0,0,0,0,0-.01-.02-.03-.03,0,0-.01-.01-.02-.02,0-.01,0-.01,0-.01,0-.01,0-.03,0-.03h0s.03,0,.03.02c0,0,.01.01.02.01h0s0,0,0,0c0,0,0,0,0,0,0,0-.01-.01-.01-.02,0,0,0,0,0,0,0,0,0-.01,0-.02,0,0,.03-.03.05-.03,0,0,.01.01.02.02h0s.02.02.02.02c0,0,.01,0,.02.01,0,0,0,0,0,.01,0,0,0,.02,0,.02.02.03.04.06.07.07,0,0,.01,0,.01.02,0,0,0,.02,0,.02,0,0-.02,0-.04,0h0s-.02-.02-.03-.01c-.01,0-.02.01-.04.02-.02.01-.03.03-.05.03-.02,0-.03-.02-.05-.03-.02-.01-.03-.03-.04-.02,0,0,0,0,0,0,0,0,.01.02.02.04.01.02.03.03.02.04,0,0,.02.02.01.04.04,0,.07-.03.08-.06.02-.03.04-.04.05-.05,0,0,.01,0,.02,0,0,0,0,0,0,0,0,0,0,0,0,0,0,0,0,0,.01,0,0,0,0,0,0,0,0,0,0,.01,0,.01,0,0,0,0,0,0h0s-.01,0-.02,0c0,0,0,.01-.01.02,0,0,0,.01-.01.02,0,0-.01.01-.02.02s-.02.02-.02.02c0,0,0,.02,0,.02h0s0,0,0,0c0,0,0,0,.01,0,0,0,0,0,0,.02,0,.01-.04.06-.05.06s-.02,0-.02-.01c0,0,0-.01,0-.02,0,0-.01,0-.02,0,0,0,0-.01,0-.02,0,0-.04.03-.05.03,0,0,0,0-.01,0,0,0,0,0,0-.01,0,0-.03.02-.03.02-.01,0-.02,0-.04,0-.02,0-.04.01-.06.01h-.08s0,0,0,0h0s-.03.02-.03.03c0,0,.02.01.03.01,0,0,0,0,0,0-.01,0-.05.01-.07,0,0,0-.05,0-.09,0-.02,0-.04,0-.04,0,0,0-.01,0-.02-.01,0,0,0-.01,0-.02,0,0,0-.02.02-.02,0-.01.02-.03.05-.05-.05,0-.1-.01-.11-.03-.03-.01-.05,0-.06.03,0,.03,0,.05-.02.06-.01,0-.03.01-.04.01,0,0,0,0,0,0-.01,0-.02,0-.02,0,0,0,0,0,0,0l.07.02s.03.03.03.05c0,.02-.01.03-.02.03,0,0-.02,0-.04,0-.02,0-.02,0-.03,0,0,0,0,0,0,0,0,0-.01,0-.02,0ZM3.04,3.57s-.05,0-.07.02c-.02.02-.02.05-.02.07-.05,0-.08.02-.08.05,0,.04,0,.05.02.06.01,0,.03,0,.04,0,.02,0,.03,0,.03.01,0,.01-.02.02-.03.02-.01,0-.02.02-.02.03,0,0,0,0,0,0,0,0,.01,0,.03,0,0,0,0,0,0,0,0,0,.01,0,.03,0,.01,0,.03,0,.04,0,0,0,.02-.01.02-.03,0-.02,0-.03-.03-.05l-.07-.02s0,0,0,0c0,0,.01,0,.02,0,0,0,.01,0,.01,0,.01,0,.03,0,.03-.01.01-.01.02-.03.02-.06.01-.03.02-.04.06-.03.01.02.06.03.1.03,0,0,.01,0,.02,0-.03.02-.06.04-.05.05-.01,0-.02.02-.02.02,0,0,0,.02,0,.02,0,0,.01,0,.02,0,0,0,.02,0,.04,0,.04,0,.08.02.09,0,.02.01.06,0,.07,0h0s0,0,0,0c0,0-.03,0-.03-.01,0-.01.02-.02.03-.03h0s.08,0,.08,0h0s.04,0,.06-.01c.01,0,.02,0,.04,0,0,0,.03-.01.03-.02,0,0,0,0,0,.01,0,0,0,0,.01,0,.01,0,.04-.02.05-.03,0,0,0,.01.01.02,0,0,.01,0,.02,0,0,0,0,.01,0,.02,0,0,0,.01.02.01.01,0,.05-.04.05-.06,0,0,0-.01,0-.01,0,0-.01,0-.01,0,0,0,0,0,0,0,0,0,0-.02,0-.02,0,0,.01-.01.02-.02,0,0,.02-.02.02-.02,0,0,0-.01,0-.02,0,0,0-.02.01-.02,0,0,.02-.01.02-.01,0,0,0,0,0,0h0s0,0,0,0c0,0,0,0,0-.01,0,0,0,0,0,0,0,0,0,0-.01,0s0,0,0,0c0,0,0,0,0,0,0,0,0,0,0,0,0,0-.01,0-.02,0-.01,0-.03.02-.05.05-.01.02-.04.05-.08.06,0-.02,0-.03-.01-.04,0,0,0-.02-.02-.04-.01-.01-.03-.03-.03-.04,0,0,0,0,0,0,.01,0,.03,0,.04.02.01.01.03.03.05.03.02,0,.04-.01.05-.03.01-.01.02-.02.04-.02.01,0,.02,0,.03,0h0s.03.01.04,0c0,0,0-.01,0-.02,0,0,0-.01-.01-.01-.03-.02-.06-.05-.07-.08,0,0,0-.02,0-.02,0,0,0-.01,0-.01,0,0,0,0-.02-.01,0,0-.02,0-.02-.02h0s0-.02-.02-.03c-.02,0-.04.03-.05.03,0,0,0,.01,0,.02,0,0,0,0,0,0,0,0,0,.01,0,.01h0s0,0,0,0c0,0,0,0,0,0h0s-.01,0-.02-.02c0,0-.03-.02-.03-.02t0,0s0,.01,0,.03c0,0,0,0,0,.02,0,0,.02.02.02.02.01.01.03.02.03.03,0,0,0,0,0,0,0,0,0,0,0,0,0,0-.01,0-.02-.01-.02-.01-.05-.04-.08-.02-.01,0-.02.02-.03.04,0,.02,0,.05,0,.07,0,0-.01,0-.02,0-.06,0-.14.02-.2.03-.04,0-.07.01-.08.01-.05,0-.09.02-.12.04-.02,0-.04,0-.06,0Z"/>
        </g>
        <g>
          <path class="cls-2" d="M3.47,3.42s-.02.04,0,.07c.02.01.04.02.05.04,0,.01,0,.03,0,.03-.02,0-.04.03-.05.05,0-.03-.03-.02-.05-.02,0-.03-.02-.05-.05-.05,0,0,0-.02-.01-.02,0,0-.04,0-.04,0s.01-.02,0-.03c0-.01-.04,0-.05-.01,0-.02,0-.03,0-.04,0-.02-.05-.01-.07-.01.02-.01.02-.03.01-.05,0-.02-.05,0-.05-.02,0,0,.05-.02.07-.02.02,0,.08.01.14.03.01.01.1.04.1.07Z"/>
          <path class="cls-3" d="M3.48,3.6s-.02-.02-.04-.02h0s0-.02,0-.03c0-.01-.03-.02-.05-.02h0s0-.02-.01-.02c0,0-.04,0-.04,0,0,0,0,0,0-.01,0,0,0-.01,0-.02s-.02,0-.03,0h0s-.02,0-.02,0c0-.02,0-.03,0-.04,0-.01-.05-.01-.07-.01.02-.01.02-.03.01-.05,0,0-.01,0-.02,0h0s-.01,0-.02,0c0,0,0,0,0,0,0,0,.05-.02.07-.02h0s.09.02.13.03c0,0,.01,0,.03.01.03.01.08.04.08.06,0,0,0,0,0,.01,0,.01,0,.04.01.05,0,0,.01,0,.02.01.01,0,.03.02.03.03,0,.01,0,.02,0,.02h0s0-.01,0-.02c0-.01-.02-.02-.03-.03,0,0-.01,0-.02-.01-.02-.02-.01-.04-.01-.06,0,0,0,0,0-.01,0-.03-.05-.05-.08-.06-.01,0-.02,0-.03-.01-.05-.01-.11-.03-.13-.03h0s-.07,0-.07.02c0,0,0,0,0,0,0,0,.01,0,.02,0,0,0,0,0,0,0,0,0,.02,0,.02,0,0,.02,0,.03-.01.05.02,0,.06,0,.07.01,0,.01,0,.02,0,.04,0,0,.01,0,.02,0h0s.03,0,.03,0c0,0,0,.02,0,.02,0,0,0,0,0,.01,0,0,.03,0,.04,0,0,0,.01.01.01.02,0,0,0,0,0,0,.02,0,.04.01.05.02,0,0,0,.02,0,.03h0s.04,0,.04.02c0-.02.02-.04.04-.05-.02,0-.03.03-.04.05Z"/>
        </g>
        <path class="cls-3" d="M3.35,3.71s-.02,0-.02-.02c0,0,.01-.02.02-.02,0,0-.03,0-.05,0-.01,0-.02,0-.03,0-.01,0-.03,0-.04,0-.02,0-.03,0-.05,0,.05-.02.09-.03.09-.05,0-.01,0-.02,0-.03-.02-.02-.07-.03-.1-.03h0s.08,0,.1.03c0,0,.01.02,0,.03,0,.02-.04.04-.09.05.01,0,.03,0,.05,0,.02,0,.04,0,.05,0,0,0,0,0,.02,0,.02,0,.04,0,.05,0,0,0-.02,0-.03.02s0,.01.02.02ZM3.56,3.67s-.04-.03-.07-.03c-.01,0-.02,0-.03,0h0s.02,0,.03,0c.03,0,.06,0,.07.03ZM3.63,3.65h0s.06-.04.09-.06c-.03.02-.05.04-.09.06h0Z"/>
        <path class="cls-3" d="M3.66,3.37s0,0-.01,0h0s-.04-.03-.05-.04h0s.03.02.05.04h0s.02.01.02,0c0,0,0-.02,0-.03.01.02,0,.03,0,.03,0,0,0,0,0,0Z"/>
        <path class="cls-3" d="M3.43,3.58h0s.03-.03.04-.04h.02s-.02,0-.02,0c-.02.01-.03.03-.04.04h0ZM3.37,3.53h0s.05-.02.08-.03c-.03,0-.07.02-.08.03h0ZM3.32,3.5h0s.09-.02.13-.01c0,0,0,0,0,0-.03,0-.08,0-.12.02h0ZM3.27,3.45h0s.1-.01.14,0c0,0,.02,0,.03,0,0,0-.02,0-.03,0-.04,0-.09,0-.14,0h0ZM3.44,3.41s-.02,0-.03,0c-.05,0-.14-.02-.2-.01h0c.07-.02.16,0,.2.01.01,0,.02,0,.03,0h0ZM3.54,3.38s-.01-.02-.01-.02c0-.01,0-.02.01-.04,0,.01,0,.02-.01.04,0,0,0,.01.01.02ZM3.37,3.34h0s.04-.03.06-.03c.01,0,.03,0,.04-.02.01,0,.03-.02.04-.04,0,0,.01-.02.02-.03.01,0,.02-.02.04-.01.01,0,.02,0,.02,0,0,0,0,0-.03,0-.02,0-.02.01-.03.03h0s0,.04,0,.05h0s-.01-.03,0-.05h0s.01-.03.03-.03c.02,0,.02,0,.02,0,0,0,0,0-.02,0-.03,0-.03,0-.04.01,0,0-.02.02-.03.03-.01.02-.03.03-.04.04-.01,0-.03.01-.04.02-.02,0-.04.01-.07.03h0Z"/>
        <path class="cls-3" d="M3.65,3.67h0s.04-.02.05-.03c0,0,.01,0,.02-.01,0,0-.01,0-.02.01-.01.01-.02.02-.05.03h0ZM3.73,3.53h0s.02-.02.03-.02c0-.01.02-.02.04-.03-.02,0-.03.02-.04.03,0,0-.01.02-.03.02h0ZM3.7,3.43h0s-.02,0-.02-.02c0,0,0-.01,0-.01,0,0,.01,0,.02,0,0,0,.01,0,.02,0s0,0,.02,0h0s-.01,0-.02,0c0,0,0,0-.02,0,0,0-.02,0-.02,0,0,0,0,0,0,.01,0,.01.01.02.02.02,0,0,0,0,.01,0,0,0,.02,0,.03,0,0,0,0,0,0,0,0,0-.02,0-.02,0,0,0,0,0-.01,0ZM3.73,3.34h0s0,0-.01,0c0,0,0-.01,0-.02,0,0,0,0,.02,0,0,0,0,.02,0,.02h0ZM3.72,3.31s0,0,0,0c0,0,0,.01,0,.02,0,0,0,0,.01,0h0s0-.01,0-.02c0,0,0,0-.01,0ZM3.68,3.27s0,0-.01,0h0s0,0,0,0h0s.02,0,.03,0c0,0-.01,0-.02,0Z"/>
        <g>
          <path class="cls-2" d="M3.21,2.98s0,0,0,0c0,0,0,0,0,0,0,0,0,0,0,0,0,0,0,0,0,0h0s0,0,0,0c0,0,0,0,0,0,0,0,0,0,0,0,0,0,0,0,0,0,0,0,0,0,0,0,0,0,0,0,0,0,0,0,0,0,0,0,0,0,0,0,0,0,0,0,0,0,0,0,0,0,0,0,0,0h0s0,0,0,0c0,0,0,0,0,0h0s0,0,0,0c0,0,0,0,0,0,0,0,0,0,0,0,0,0,0,0,0,0,0,0,0,0,0,0s0,0,0,0c0,0,0,0,0,0s0,0,0,0c0,0,0,0,0,0,0,0,0,0,0,0,0,0,0,0,0,0,0,0,0,0,0,0h0s0,0,0,0c0,0,0,0,0,0,0,0,0,0,0,0,0,0,0,0,0,0,0,0,0,0,0,0,0,0,0,0,0,0,0,0,0,0,0,0,0,0,0,0,0,0,0,0,0,0,0,0,0,0,0,0,0,0,0,0,0,0,0,0,0,0,0,0,0,0,0,0,0,0,0,0,0,0,0,0,0,0,0,0,0,0,0,0,0,0,0,0,0,0,0,0,0,0,0,0,0,0,0,0,0,0,0,0,0,0,0,0,0,0,0,0,.01,0h0"/>
          <path class="cls-3" d="M3.21,2.98s0,0,0,0c0,0,0,0,0,0h0s0,.01,0,.01h0,0ZM3.2,2.97s0,0,0,0c0,0,0,0,0,0,0,0,0,0,0,0s0,0,0,0ZM3.2,2.95h0s0,0,0,0c0,0,0,0,0,0,0,0,0,0,0,0,0,0,0,0,0,0h0ZM3.19,2.94s0,0,0,0c0,0,0,0,0,0,0,0,0,0,0,0s0,0,0,0ZM3.19,2.92s0,0,0,0c0,0,0,0,0,0h0s0,0,0,0c0,0,0,0,0,0ZM3.19,2.91s0,0,0,0c0,0,0,0,0,0h0s0,.01,0,.01h0ZM3.18,2.89s0,0,0,0h0s0,0,0,0c0,0,0,0,0,0ZM3.18,2.88h0s0,0,0,0h0ZM3.18,2.86s0,0,0,0c0,0,0,0,0,0h0s0,0,0,0ZM3.18,2.85s0,0,0,0,0,0,0,0c0,0,0,0,0,0,0,0,0,0,0,0ZM3.18,2.83s0,0,0,0c0,0,0,0,0,0h0s0,0,0,0c0,0,0,0,0,0h0s0,0,0,0c0,0,0,0,0,0h0s0,0,0,0c0,0,0,0,0,0,0,0,0,0,0,0,0,0,0,0,0,0,0,0,0,0,0,0,0,0,0,0,0,0,0,0,0,0,0,0s0,0,0,0c0,0,0,0,0,0,0,0,0,0,0,0ZM3.18,2.77h0s0,0,0,0c0,0,0,0,0,0h0ZM3.18,2.75s0,0,0,0c0,0,0,0,0,0,0,0,0,0,0,0,0,0,0,0,0,0,0,0,0,0,0,0,0,0,0,0,0,0,0,0,0,0,0,0h0ZM3.19,2.72s0,0,0,0c0,0,0,0,0,0,0,0,0,0,0,0,0,0,0,0,0,0ZM3.19,2.71s0,0,0,0c0,0,0,0,0,0,0,0,0,0,0,0,0,0,0,0,0,0h0ZM3.2,2.69s0,0,0,0c0,0,0,0,0,0,0,0,0,0,0,0,0,0,0,0,0,0ZM3.21,2.68h0,0ZM3.21,2.67s0,0,0,0c0,0,0,0,0,0h0s0,0,0,0ZM3.22,2.66h0,0ZM3.22,2.66s0,0,0,0c0,0,0,0,0,0,0,0,0,0,0,0s0,0,0,0ZM3.23,2.65h0,0ZM3.23,2.64s0,0,0,0c0,0,0,0,0,0,0,0,0,0,0,0,0,0,.01,0,.01,0,0,0,0,0-.01,0,0,0,0,0,0,0,0,0,0,0,0,0,0,0,0,0,0,0Z"/>
        </g>
        <path class="cls-3" d="M3.21,2.98h.02s-.02,0-.02,0ZM3.2,2.97h.02s-.02,0-.02,0ZM3.2,2.95h.02s-.02,0-.02,0ZM3.19,2.94h.02s-.02,0-.02,0ZM3.19,2.92h.02s-.02,0-.02,0ZM3.19,2.91h.02s-.02,0-.02,0ZM3.19,2.89h.03s-.03,0-.03,0ZM3.18,2.88h.03s-.03,0-.03,0ZM3.18,2.86h.03s-.03,0-.03,0ZM3.18,2.85h.03s-.03,0-.03,0ZM3.18,2.83h.03s-.03,0-.03,0ZM3.21,2.82h-.03s.03,0,.03,0h0ZM3.21,2.8h-.03s.03,0,.03,0h0ZM3.21,2.79h-.03s.03,0,.03,0h0ZM3.22,2.77h-.04s.04,0,.04,0h0ZM3.22,2.76h-.04s.04,0,.04,0h0ZM3.22,2.75h-.04s.04,0,.04,0h0ZM3.23,2.73h-.04s.04,0,.04,0h0ZM3.23,2.72h0l-.04-.02.04.02h0ZM3.24,2.71h0l-.04-.02.04.02h0ZM3.25,2.7h0l-.04-.02.04.02h0ZM3.25,2.69h0l-.04-.03.04.03h0ZM3.26,2.68h0l-.04-.03.04.03h0ZM3.27,2.67h0l-.03-.03.03.03h0ZM3.28,2.66h0l-.03-.04.03.04h0Z"/>
        <g>
          <path class="cls-2" d="M3.42,2.77s-.03,0-.05,0c0,.01,0,.04,0,.05.05.05.1.11.1.16.02.01.03.02.03.05.04-.02.07-.05.1-.06.02,0,.05,0,.07,0,0,0,.09.06.12.07.02.02.04.04.05.05s.01.05,0,.06l-.07-.02s0-.03,0-.04c0-.01,0-.01,0-.02,0,0-.02,0-.02,0,0,0-.02,0-.02-.01,0-.01-.08-.04-.09-.04-.01,0-.03,0-.05.01,0,.01-.03.05-.05.07,0,0,0,.01,0,.02,0,0,.05,0,.08,0,.03,0,.06.03.08.05.07.07.1.1.12.12.01.01.02.02.02.04h-.07s0-.04,0-.06c0-.01-.02,0-.03,0,0,0-.01-.01-.02-.02,0-.02-.05-.05-.06-.06s-.02,0-.04,0c-.01,0-.04,0-.05,0s-.07.02-.12.03c-.02,0-.07.02-.13.03-.04,0-.14.02-.16.02,0,.05-.05.11-.07.12-.01.02-.01.03,0,.04,0,0,.08,0,.1,0,.02,0,.05,0,.06,0,.01,0,.03.02.05.03.01,0,.02.01.02.03,0,0,.01.02.02.02h-.08s0-.03-.02-.03c-.01,0-.03.02-.04.01-.07,0-.11,0-.17,0-.02,0-.03-.03-.03-.05,0-.02,0-.04,0-.06,0,0-.03.03-.04.05-.02.02,0,.05,0,.06.01.01.08.08.09.1,0,.01.03.03.06.06,0,.02.03.03.04.04h-.11s0-.01,0-.03c0,0,0-.02-.02-.02-.01,0-.03-.01-.03-.03,0-.01-.05-.07-.07-.09-.01-.01-.06-.06-.06-.06,0,0,0-.02,0-.03,0,0,.04-.05.04-.08,0-.02,0-.02,0-.03-.05-.03-.09-.08-.11-.12,0,0-.06,0-.09,0-.02,0-.05-.01-.06,0,0,.01,0,.04,0,.05.02.02.04.04.07.07s0,.05-.03.07c0,.01,0,0,0,.03,0,.01,0,.05,0,.06-.01,0-.03.02-.04.03-.01.02-.02,0-.01-.03,0-.02-.01-.03-.02-.05-.01-.01,0-.06,0-.07,0-.01.02-.04,0-.05s-.05-.06-.05-.11c0-.07.07-.09.11-.07.06.03.1.02.12.02.02-.03.04-.06.08-.08.04-.02.11-.05.17-.06l.17-.06s.02-.03.02-.04c-.02-.12-.02-.24.08-.3,0,0,0-.03.02-.05,0,0,.02.03.03.05.04.01.11.04.14.05.01,0,.03,0,.04.01,0,0,.01.01.02.02,0,.01,0,.03,0,.03,0,0-.04,0-.05,0,0,0,.01.02.03.02,0,0,0,.02-.01.02,0,0-.01,0-.02,0-.02,0-.04-.01-.06-.02Z"/>
          <path class="cls-3" d="M3.02,3.71s0-.01,0-.03c0,0,0,0,0-.01,0,0,0,0-.01,0,0,0,0,0,0,0-.01,0-.02-.01-.03-.03,0-.01-.05-.07-.07-.09,0,0-.01-.01-.02-.02-.02-.02-.04-.04-.04-.04,0,0,0,0,0,0,0,0,0-.01,0-.02,0,0,.04-.05.04-.08,0-.02,0-.02,0-.02-.05-.04-.09-.08-.11-.13,0,0-.06,0-.08,0-.02,0-.05-.01-.06,0,0,.01,0,.04,0,.05.02.01.04.04.07.07.02.03,0,.05-.03.07,0,0,0,0,0,.01s0,0,0,.02c0,0,0,.03,0,.04,0,0,0,.01,0,.02h0s-.02.02-.04.03c0,0-.01,0-.01,0,0,0,0-.02,0-.04s-.01-.04-.02-.05c-.01-.01,0-.06,0-.07,0-.01.02-.04,0-.05-.01-.01-.05-.05-.05-.1,0-.03.02-.05.04-.06.02-.01.05-.01.07,0,.07.03.1.02.12.02.02-.02.04-.06.08-.08.04-.02.11-.05.17-.06l.17-.06s.02-.02.02-.04c-.02-.1-.02-.23.08-.3,0,0,0-.01,0-.02,0-.01,0-.02.01-.03,0,0,0,0,0,.02,0,0,.01.02.02.03.04.01.11.04.14.05,0,0,.02,0,.02,0,0,0,0,0,.01,0,0,0,.01.01.02.02,0,.01,0,.03,0,.03,0,0,0,0-.02,0-.01,0-.02,0-.03,0,0,0,.01.02.03.02,0,0,0,0,0,0,0,0,0,.01-.02.02h0s-.01,0-.02,0c-.01,0-.02,0-.03-.01,0,0-.02,0-.03,0-.02,0-.03,0-.05,0,0,.01,0,.04,0,.05.04.04.1.1.1.17.02.01.03.03.03.05.01,0,.03-.02.04-.02.02-.01.04-.03.06-.03.02,0,.05,0,.07,0,0,0,.09.06.12.07.03.02.04.04.05.05.01.02.01.05,0,.06l-.07-.02s0-.02,0-.04c0-.01,0-.01,0-.02,0,0-.02,0-.02,0,0,0-.02,0-.02-.01,0,0-.08-.04-.09-.04-.02,0-.04,0-.05.01,0,0-.03.05-.05.07,0,0,0,.01,0,.02,0,0,.05,0,.08,0,.03,0,.07.03.08.05.05.04.08.07.1.1,0,.01.02.02.03.03.01.01.02.02.02.04h-.07s0-.05,0-.06c0,0-.02,0-.02,0,0,0,0,0,0,0,0,0,0,0,0,0,0,0,.02,0,.03,0,0,.01,0,.03,0,.06h.07s0-.02-.02-.04c0,0-.02-.02-.03-.03-.02-.02-.05-.05-.1-.1-.02-.02-.05-.05-.08-.05-.03,0-.08,0-.08,0,0,0,0-.01,0-.02.02-.02.05-.06.05-.07.01-.01.03-.02.05-.01.01,0,.09.03.09.04s.02.01.02.01c0,0,.02,0,.02,0,0,0,0,0,0,.02,0,.01,0,.03,0,.04l.07.02s0-.04,0-.06c0-.01-.03-.04-.05-.05-.02-.01-.11-.07-.12-.07-.02-.01-.05,0-.07,0-.02,0-.04.02-.06.03-.01,0-.03.02-.04.02,0-.02-.02-.04-.03-.05,0-.06-.06-.12-.1-.17,0-.01,0-.04,0-.05.02,0,.03,0,.05,0h.03s.02.02.03.02c0,0,.01,0,.02,0,0,0,.02,0,.02-.01,0,0,0,0,0,0-.02,0-.03-.02-.03-.02,0,0,.02,0,.03,0,0,0,.01,0,.02,0,0,0,.02-.02,0-.03,0,0-.01-.02-.02-.02,0,0,0,0-.01,0,0,0-.02,0-.02,0-.03-.01-.1-.04-.14-.05,0,0,0-.02-.02-.03,0,0,0-.01,0-.02,0,.01-.01.02-.01.03,0,0,0,.02,0,.02-.1.07-.1.2-.08.3,0,.02,0,.03-.02.04l-.17.06c-.07.01-.13.04-.17.06-.04.02-.06.05-.08.08-.02,0-.05.01-.12-.02-.02,0-.05,0-.07,0-.02.01-.04.04-.04.06,0,.05.03.09.05.1.02.02,0,.04,0,.05,0,.01-.02.05,0,.07.01.01.03.03.02.05,0,.02,0,.03,0,.04,0,0,0,0,.01,0,.01-.01.02-.02.04-.03h0s0-.01,0-.02c0-.01,0-.03,0-.04,0,0,0-.01,0-.02s0,0,0-.01c.03-.03.05-.04.03-.07-.02-.03-.05-.05-.07-.07-.02-.01-.01-.04,0-.05.01-.02.04-.02.06-.01.03.01.07.01.08,0,.03.04.07.09.11.12,0,0,0,.01,0,.03,0,.03-.03.07-.04.08,0,0,0,.01,0,.02,0,0,0,0,0,0,0,0,.03.02.04.04,0,0,.02.02.02.02.01.01.06.07.07.09,0,.01.02.03.03.03,0,0,0,0,0,0,0,0,0,0,.01,0,0,0,0,0,0,.01,0,.02,0,.02,0,.03h.11s0,0-.01,0c0,0-.02-.02-.03-.03h-.02s-.04-.05-.04-.06c0-.02-.08-.09-.09-.1-.02-.02-.01-.04,0-.06.01-.02.04-.04.04-.05,0,.02,0,.03,0,.06,0,.01,0,.03,0,.04,0,0,.01.01.02.01.06,0,.1,0,.17,0,.02,0,.03,0,.04-.01h0s.02.01.02.03h.08s0,0,0-.01c0,0,0,0,0-.01h0s0-.02-.02-.03c0,0-.01,0-.02-.01,0,0-.02-.01-.03-.01,0,0-.05,0-.06,0h0s-.08,0-.09,0c0,0-.01-.02,0-.04.01,0,.06-.07.07-.12.02,0,.11-.02.16-.02h.02s.09-.02.1-.03c.05,0,.1-.02.12-.03.02,0,.04,0,.05,0,0,0,0,0,.01,0h0s.01,0,.02,0c.02.01.06.04.06.06,0,0,0,.01.01.02,0,0,0-.01-.01-.02,0-.02-.05-.05-.06-.06-.01,0-.02,0-.02,0,0,0,0,0,0,0h0s-.04,0-.05,0c-.02,0-.07.02-.12.03-.01,0-.05.01-.1.02h-.02s-.14.03-.16.03c0,.05-.05.11-.07.12-.01.02-.01.04,0,.04,0,0,.07,0,.09,0h0s.05,0,.06,0c0,0,.02,0,.03.01,0,0,.01,0,.02.01.01,0,.01.01.02.02h0s0,.01,0,.02c0,0,0,0,0,.01h-.08s0-.03-.02-.03c-.01,0-.03.02-.04.01-.07,0-.11,0-.17,0,0,0-.01,0-.02-.01,0-.01-.01-.02,0-.04,0-.02,0-.04,0-.06,0,0-.03.03-.04.05-.02.02-.02.04,0,.06.01,0,.08.08.09.1,0,0,.02.02.04.04h.02s.02.04.03.05c0,0,0,0,.01.01h-.11Z"/>
        </g>
        <path class="cls-3" d="M2.98,3.4h0c.05-.02.1-.09.1-.12,0-.02-.02-.05-.06-.05.05,0,.06.04.06.05.02,0,.05,0,.07,0-.02,0-.05,0-.07,0,0,.04-.05.1-.1.12h0ZM3.48,3.22s-.05,0-.06-.01c0,0-.01,0-.03,0h0s.02,0,.03,0c.01,0,.03.02.08.01,0,0-.02,0-.02,0ZM3.54,3.14s-.03,0-.05-.01c-.02,0-.05-.01-.07-.01h0s.05,0,.07.01c.02,0,.04.01.05.01h0s0,0,0,0ZM3.5,3.13s0-.06,0-.08h0s0,0,0,0c0,.03,0,.06,0,.08ZM3.47,2.99h0s-.04-.03-.08-.03h0s.06.02.08.03h0ZM3.36,2.83s-.06-.07-.06-.13h0s0,0,0,0c0,.06.02.1.06.13Z"/>
        <path class="cls-3" d="M3.07,3.31h0s.05,0,.06-.03c-.01.02-.03.03-.06.03ZM3.37,2.78s-.07-.02-.07-.08h0c0,.06.02.07.07.08Z"/>
        <path class="cls-3" d="M3.02,3.22h0c0-.07,0-.15-.04-.16h0s.04.1.04.15h0ZM3.5,2.75s-.02-.02-.04-.03c-.03-.01-.05-.03-.04-.05h0s.02.04.04.05c.02,0,.03.02.04.03ZM3.54,2.73s-.01,0-.01,0c0,0,0-.01,0-.02h0s0,.02,0,.02c0,0,0,0,.02,0h0Z"/>
        <g>
          <path class="cls-2" d="M3.48,2.75s-.05.07-.08.1c-.05.04-.1.06-.17.08,0,0-.02,0-.03,0-.01,0-.03-.01-.04-.03,0,0,0-.06.01-.06.02,0,.03,0,.05,0,0,0,.02,0,.02.02,0,.01-.01.02-.02.01-.01,0-.03-.01-.04,0,0,0-.01.03,0,.03,0,.01.02.02.02.02,0,0,.02,0,.03,0,.06-.02.11-.04.16-.07.03-.02.06-.07.08-.09h.01ZM3.23,2.84s-.05,0-.05,0c.01,0,.03,0,.05,0,0,0,0,0,0,0ZM3.35,2.69h0s0-.05.03-.03,0,.03,0,.04c0,0,0,.01,0,.01"/>
          <path class="cls-3" d="M3.2,2.93s0,0-.01,0c-.02,0-.03-.01-.04-.03,0,0,0-.03,0-.05,0,0,0-.01.01-.02.02,0,.03-.01.05,0,0,0,.01,0,.02,0,0,0,0,0,0,0,0,0,0,0,0,.01,0,0,0,0-.01,0h0s-.03,0-.04,0c0,0,0,0,0,.02,0,0,0,.02,0,.02,0,.01.01.02.02.02,0,0,.02,0,.03,0,.06-.01.11-.04.16-.07.03-.02.06-.07.08-.09h.01s-.05.08-.08.11c-.05.04-.11.06-.17.08,0,0-.01,0-.02,0ZM3.22,2.83s-.03,0-.04,0c0,0,0,0-.01.02,0,.02,0,.04,0,.05,0,.02.02.03.04.03s.03,0,.03,0c.06-.02.12-.04.17-.08.03-.02.06-.07.08-.1h-.01s-.04.06-.08.08c-.05.04-.1.06-.16.07,0,0-.02,0-.03,0,0,0-.02,0-.02-.02,0,0,0-.01,0-.02,0,0,0-.01,0-.02,0,0,.03,0,.04,0h0s0,0,.01,0c0,0,0,0,0-.01,0,0,0,0,0,0,0,0-.01,0-.02,0h0ZM3.23,2.85h0s-.04,0-.05,0c0,0,.03-.01.05,0h0s0,0,0,0c0,0,0,0,0,0,0,0,0,0,0,0-.02,0-.05,0-.05,0,.01,0,.03,0,.05,0h0,0ZM3.39,2.7s0-.01,0-.01c0,0,.01-.01.01-.02,0,0,0-.01-.02-.02s-.02,0-.02,0c0,0,0,.01,0,.02h0s0-.02,0-.02c0,0,.01,0,.02,0,.01,0,.02.01.02.02,0,0,0,.01-.01.02v.02ZM3.35,2.69h0s0,0,0,0h0Z"/>
        </g>
        <polygon class="cls-3" points="3.49 2.76 3.29 2.66 3.29 2.66 3.29 2.66 3.29 2.66 3.49 2.76"/>
        <g>
          <g>
            <path class="cls-2" d="M3.04,2.66s-.1,0-.13,0c-.02,0-.06.07-.09.07s-.05-.05-.09-.04c-.02.01,0,.08,0,.09-.01,0-.04-.03-.06-.02s.02.11,0,.12c0,0-.06-.04-.07-.03s.02.15,0,.16c-.01,0-.08-.04-.09-.02s.09.06.12.07h.03s.09,0,.1,0l.05-.05c.07-.09.15-.17.24-.17v-.17Z"/>
            <path class="cls-3" d="M2.75,3.05s-.09,0-.1-.01h-.03s-.1-.03-.12-.05c0,0,0,0,0,0,0,0,0,0,0,0,0,0,.02,0,.04.01.02,0,.03.01.04.01,0,0,0-.04,0-.08,0-.04,0-.08,0-.08,0,0,0,0,0,0,0,0,.02,0,.03.02s.02.02.03.01c0,0,0-.02,0-.04,0-.03-.01-.06,0-.07,0,0,.03,0,.04.01,0,0,.02.01.02,0,0,0,0-.02,0-.04,0-.02,0-.05,0-.05.02,0,.04,0,.05.02,0,0,.02.02.03.02h0s.03-.02.05-.04c.02-.02.03-.03.04-.03,0,0,0,0,0,0,.04,0,.1.01.13,0h0v.17h0c-.1,0-.17.09-.24.17l-.04.05ZM2.65,3.04s.09.01.1.01l.04-.05c.06-.08.14-.17.24-.17,0,0,0,0,0,0v-.17s-.01,0-.02,0c-.04,0-.08,0-.11-.01h0s-.03.02-.04.03c-.02.02-.04.04-.05.04,0,0,0,0,0,0-.01,0-.02,0-.03-.02-.01-.01-.03-.03-.05-.02,0,0,0,.03,0,.05,0,.02,0,.03,0,.04,0,0,0,0,0,0,0,0-.01,0-.02-.01-.01,0-.03-.02-.04-.01-.01,0,0,.04,0,.07,0,.02,0,.04,0,.04,0,0-.02,0-.03-.01-.01,0-.03-.02-.04-.02,0,0,0,.04,0,.08,0,.04,0,.07,0,.08,0,0-.02,0-.04-.01-.01,0-.03-.01-.04-.01,0,0,0,0,0,0,0,0,0,0,0,0,.01.02.09.06.12.06h.03Z"/>
          </g>
          <path class="cls-3" d="M2.66,3.03h0c.04-.06.11-.13.16-.16-.05.03-.13.1-.16.16h0ZM2.6,3h0c.05-.06.19-.16.24-.17-.04,0-.19.11-.24.17h0ZM2.51,2.98h0l.08-.07-.08.07h0ZM2.66,2.87h0c.09-.05.16-.09.24-.11-.08.02-.15.06-.24.11h0ZM2.6,2.84h0l.06-.03-.06.03h0ZM2.72,2.78h0c.05-.02.12-.03.18-.03h.03s-.03,0-.03,0c-.06,0-.13,0-.18.03h0ZM2.66,2.76h0l.06-.02-.06.02h0ZM2.81,2.72h0c.09-.01.13-.01.15-.01,0,0,0,0,0,0-.02,0-.06,0-.14.01h0ZM2.74,2.69h.13s-.13,0-.13,0Z"/>
        </g>
        <g>
          <path class="cls-2" d="M3.32,3.83s.01.02.01.02c0,0-.01,0-.02,0l-.62-.18s-.01-.03,0-.03l.61.19ZM2.73,2.97s-.01-.02-.02-.03c0,0-.02.01-.02.02,0,0,.02.02.03.02h.01ZM2.79,2.99l-.05.05s0,.02.01.01l.05-.05s0-.02-.01-.01ZM2.77,3.04l.16.17h.03s0-.03,0-.03l-.17-.16-.02.02Z"/>
          <path class="cls-3" d="M3.32,3.85s0,0,0,0l-.62-.18s0,0-.01,0c0,0,0-.01,0-.01,0,0,0,0,0,0,0,0,0,0,0,0l.61.19s.01.01.01.01-.01,0-.02,0ZM2.71,3.64s0,0,0,0c0,0,0,0,0,.01s0,0,0,.01l.62.18h0s.02,0,.02,0h0s0-.01-.01-.01h0l-.61-.19s0,0,0,0ZM2.96,3.21h-.03s-.16-.17-.16-.17h-.01s0,.02-.01.01c0,0,0,0,0-.01l.05-.05s0,0,.01,0,0,0,0,.01v.02s.15.16.15.16v.03ZM2.77,3.04l.16.17h.03s0-.03,0-.03l-.17-.16-.02.02ZM2.8,2.99s0,0,0,0l-.05.05s0,0,0,0c0,0,0,0,.01,0h.01s.02-.04.02-.04h0s.02-.01.02-.01c0,0,0,0,0,0,0,0,0,0,0,0ZM2.77,3.04l.02-.02-.02.02ZM2.72,2.99s-.03-.01-.03-.02c0,0,0,0,0-.01,0,0,.01,0,.01,0,0,0,.02.01.02.03h-.01ZM2.71,2.95s0,0,0,0c0,0,0,0,0,.01,0,0,.02.02.03.02h.01s-.01-.04-.02-.04t0,0Z"/>
        </g>
        <polygon class="cls-3" points="2.94 3.19 2.94 3.19 2.78 3.03 2.94 3.19 2.94 3.19 2.94 3.19"/>
        <g>
          <path class="cls-2" d="M3.15,2.73s0-.01,0-.02c.01,0,0,0,.01,0,0,0,.01,0,.02.01,0,0,0,0,0,0,0,0,0-.01,0-.02,0,0,0,0,0,0,0,0,0,0,0,0,0,0,0,0,0,0,0,0,.01,0,.01,0,0,0,0-.02,0-.03.01,0,0-.01.01-.01.01,0,.02-.02.01-.02,0-.02.01-.02.03-.02,0-.01-.02-.02-.03-.03-.01-.02-.04-.03-.08-.03-.04,0-.07.03-.08.05s-.04.02-.05.02c0,0-.01,0-.02,0,0,0-.02,0-.04,0-.01,0-.02,0-.03,0,0,0-.04,0-.05,0s0,.03.01.03c0,0,.03,0,.04,0,.01,0,.04,0,.06,0,.03,0,.04,0,.07.02h0s0,.03,0,.03c0,0-.02,0-.03,0,0,0-.02-.01-.03-.01-.01,0-.02,0-.03,0-.03.01-.16.11-.17.14-.01.02-.03.04-.05.08-.01.02-.03.05-.04.08-.02,0-.04.03-.05.03,0,0,0,.01,0,.01,0,0,0,.01.01.01,0,0,0,.01.01,0,0,0,0,.01,0,.01l.05-.05s.01-.05.02-.06c.03-.03.06-.09.07-.1,0,0,.07-.03.08-.05,0,.04,0,.07,0,.1,0,.04.02.07.03.1,0,.04,0,.06,0,.07,0,.01,0,.01.02.02.01,0,.06,0,.08,0,.03,0,.05,0,.07.01.04,0,.06,0,.07.01.01,0,.03.06.04.08,0,.02.05.05.06.06,0,.01.02.04.02.06,0,.01,0,.02.01.02.01,0,.05,0,.06.01,0,0,.03.02.03.02s.04,0,.05,0,.01-.02,0-.02c0,0-.03,0-.04,0-.01,0-.04-.03-.06-.04-.01-.02-.02-.04-.03-.05,0-.02-.05-.08-.07-.09,0,0-.03-.07-.03-.08,0-.01-.02-.02-.03-.02-.04-.01-.05-.02-.09-.02-.03,0-.03,0-.04-.03,0-.02-.01-.05,0-.07,0,0,0-.03,0-.04,0,0,0-.03,0-.04,0-.01,0-.05,0-.06,0-.02,0-.03,0-.05ZM3.18,2.9s-.02,0-.03,0c0,0,0,0,0,0,0,0,0,0,0,0,0,0,0,0,0-.01,0,0,0,0,0,0,0,0,.02,0,.03,0,0,0,0,.03,0,.04Z"/>
          <path class="cls-3" d="M3.51,3.36s-.03,0-.04,0c0,0-.01,0-.02-.01,0,0-.01,0-.01,0,0,0-.04-.01-.06-.01,0,0,0,0,0,0,0,0,0,0,0,0,0,0,0,0,0-.02,0-.01,0-.05-.01-.06,0,0-.01,0-.02-.02-.02-.01-.04-.03-.04-.04h0s-.03-.07-.04-.08c-.01,0-.04-.02-.07-.01,0,0,0,0-.01,0-.01,0-.03,0-.05-.01,0,0-.02,0-.03,0-.02,0-.04,0-.04,0-.01,0-.02,0-.02-.02,0,0,0-.01,0-.02,0-.01,0-.03,0-.06,0-.02,0-.03-.01-.04,0-.02-.01-.04-.02-.06,0-.03,0-.06,0-.1,0,0-.03.02-.05.03-.02,0-.03.02-.03.02h0s-.04.07-.07.1c0,.02-.02.04-.02.06l-.05.05h0s0,0,0,0,0,0,0,0c0,0,0,0,0,0,0,0,0,0-.01-.01,0,0,0,0,0,0,0,0,0,0,0,0,0,0,.03-.02.05-.03,0-.02.02-.04.03-.06,0,0,0-.02.01-.02.01-.02.02-.03.03-.05,0,0,.02-.02.02-.03.01-.02.14-.12.17-.14,0,0,.02,0,.03,0,0,0,.01,0,.02,0,0,0,0,0,.01,0,0,0,.01,0,.02,0-.01,0-.02,0-.02,0,0,0,0,0-.01,0,0,0-.02,0-.02,0,0,0-.01,0-.02,0-.04.02-.16.11-.18.14,0,.01-.01.02-.02.03-.01.01-.02.03-.03.05,0,0,0,.01-.01.02-.01.02-.02.04-.03.06-.02,0-.04.03-.05.03,0,0,0,0,0,0,0,0,0,0,0,0h0s0,.01.01.01h0s0,0,0,0c0,0,0,0,0,0,0,0,0,0,0,0,0,0,0,0,0,0l.05-.05s.01-.04.02-.06c.02-.03.06-.08.07-.1h0s.02-.02.03-.02c.02,0,.04-.02.05-.03,0,.04,0,.07,0,.1,0,.02.01.04.02.06,0,.01,0,.03.01.04,0,.02,0,.04,0,.06,0,0,0,.01,0,.02,0,.01,0,.01.01.02,0,0,.03,0,.05,0,.01,0,.03,0,.03,0,.03,0,.05,0,.07.01.04,0,.06,0,.07.01.01,0,.03.06.04.08h0s.03.03.04.05c0,0,.02.01.02.02,0,.01.02.04.01.06,0,0,0,.01,0,.02,0,0,0,0,0,0,0,0,0,0,0,0,.01,0,.05,0,.06.01,0,0,0,0,.01,0,0,0,.01,0,.02,0,.01,0,.04,0,.05,0,0,0,.01,0,.01-.01,0,0,0,0,0,0,0,0-.03,0-.04,0-.01,0-.04-.03-.06-.05,0-.01-.02-.03-.02-.04h0s-.05-.09-.07-.11c0,0-.02-.04-.03-.06v-.02s-.02-.02-.03-.02h-.02s-.04-.02-.08-.02c-.03,0-.04,0-.04-.03,0,0,0-.01,0-.02,0-.02,0-.04,0-.05,0,0,0-.02,0-.03h0s0-.02,0-.03c0,0,0-.01,0-.02,0-.01,0-.05,0-.06,0-.01,0-.03,0-.04h0s0-.03,0-.03c0,0,0,0,.01,0,0,0,.01,0,.02.01,0,0,0,0,0,0h0s0,0,0,0c0,0-.01,0-.02-.01,0,0,0,0-.01,0,0,0-.01,0,0,.02h0s0,.03,0,.05c0,0,0,.05,0,.06,0,0,0,.01,0,.02,0,0,0,.01,0,.02h0s0,.03,0,.04c0,.01,0,.03,0,.05,0,0,0,.01,0,.02,0,.02,0,.02.04.03.03,0,.05.01.08.02h.02s.02.01.03.02v.02s.03.06.03.06c.01.01.06.08.07.09h0s.01.04.02.05c.01.01.04.04.06.04s.04,0,.04,0c0,0,0,0,0,.01,0,0,0,.02-.02.02ZM3.16,2.9s0,0-.01,0c0,0,0,0,0,0,0,0,0,0,0,0,0,0,0,0,0,0s0,0,0,0c0,0,0,0,0,0,0,0,.02,0,.03,0,0,.01,0,.03,0,.04h0s0,0-.02,0ZM3.17,2.86s-.02,0-.02,0c0,0,0,0,0,0,0,0,0,0,0,0,0,0,0,.01,0,.01,0,0,0,0,0,0,0,0,0,0,0,0,0,0,.03,0,.03,0h0s0-.03,0-.04h0ZM3.18,2.9h0,0ZM3.19,2.72s0,0,0,0c0,0,0,0,0,0,0,0,0,0,0,0,0,0,0,0,0,0,0,0,0,0,0,0,0,0,0,0,0,0,0,0,0,0,0,0,0,0,0,0,0,0,0,0,0,0,0,0,0,0,0,0,0,0s0,0,0,0c0,0,0,0,0,0ZM3.23,2.69s0,0,0,0c0,0,0,0,0,0h0ZM3.23,2.69s0-.02,0-.02h0s0-.01,0-.02c0,0,0,0,0,0,0,0,0,0,0,0,0,0,0-.02,0-.02,0-.02.01-.02.03-.02h0s0,0-.01-.01c0,0-.01,0-.02-.02,0-.01-.04-.03-.08-.03h0s-.06.03-.08.05c-.01.02-.04.02-.05.02,0,0,0,0-.01,0,0,0,0,0-.01,0,0,0-.02,0-.04,0,0,0,0,0-.01,0,0,0,0,0-.02,0,0,0-.04,0-.05,0,0,0,0,0,0,0,0,0,0,.02.01.02.01,0,.03,0,.04,0,.01,0,.04,0,.06,0,.02,0,.03,0,.05,0,0,0,.02,0,.03,0h0s0,.02,0,.03c0,0,0,0,0,0,0,0,0,0,0-.02h0s-.02-.01-.03-.02c-.02,0-.03-.01-.05,0-.01,0-.05,0-.06,0,0,0-.03,0-.04,0,0,0-.02-.01-.02-.02,0,0,0,0,0,0,0,0,.04,0,.05,0,0,0,.01,0,.02,0,0,0,0,0,.01,0,.01,0,.04,0,.04,0,0,0,0,0,.01,0,0,0,0,0,.01,0,0,0,.03,0,.05-.02.02-.02.04-.05.08-.05h0s.07.02.08.03c0,0,.01.01.02.01,0,0,.01,0,.01.02h0s-.03,0-.03.02c0,0,0,.01,0,.02,0,0,0,0-.01,0,0,0,0,0,0,0,0,0,0,0,0,0h0s0,.03,0,.03c0,0,0,0,0,0Z"/>
        </g>
        <path class="cls-3" d="M2.97,2.78h0s.04-.02.04-.02l-.04.02h0ZM3.17,2.7s-.01,0-.02,0c0,0,0-.01,0-.02,0,0,0-.01,0-.02,0,0-.01,0-.02,0,0,0,0,0-.01,0,0,0,0,0-.01,0h0s0,0,.01,0c0,0,0,0,.01,0s.01,0,.02,0c0,0,0,.01,0,.02,0,0,0,.01,0,.02,0,0,0,0,.01,0,.01,0,.02,0,.02-.02,0,0,0,0,0-.01s0,0,0,0c0-.02.02-.01.03-.01-.01,0-.03,0-.03.01,0,0,0,0,0,0,0,0,0,0,0,0,0,.01,0,.02-.02.02ZM3.1,2.65s0,0,0-.01h0s0,0,.02,0c0,0,0-.01,0-.03h0s.05-.04.07-.04.03,0,.04.03c0,0,.01.02.02.02,0,0,0,0,.01,0h0s0,0,0,0c0,0,0,0,0,0,0,0-.02-.01-.02-.02,0-.02-.02-.03-.04-.03-.02,0-.06.01-.07.04h0s0,.03,0,.03c0,0-.02,0-.02,0h0s0,.02,0,.02Z"/>
        <path class="cls-3" d="M3.25,3.1s-.06-.02-.09-.02c-.02,0-.04,0-.05,0-.01,0-.02,0-.04-.01-.02,0-.04-.02-.06-.02h0s.04,0,.06.02c.01,0,.02.01.04.01.01,0,.03,0,.05,0,.03,0,.06,0,.09.02ZM3.14,3s-.07-.02-.09-.04h0s.06.04.09.04ZM3.11,2.94s-.03-.02-.05-.03h0s.04.01.05.03ZM3.04,2.91s-.03,0-.04-.01h0s.03.01.04.01h0ZM3.1,2.85s-.01,0-.02,0h0s.03,0,.04,0h0s0,0,0,0c0,0-.02,0-.02,0ZM3.05,2.83s-.02-.02-.03-.05c0,0,0-.01,0-.02h0s0,.01,0,.02c0,.02.02.04.03.05Z"/>
        <path class="cls-3" d="M3.4,3.3h0s-.01-.01-.02-.03l-.02-.03h-.01s0,0,0,0c0,0,0,0,0,0,0,0,0,0,0,0h0s0,0,0,0h0s0,0,0,0c0,0,0,0,0,0,0,0,0,0,0,0h.01s.02.03.02.03c0,.01,0,.02.02.03,0-.01,0-.01,0-.03l-.02-.04h0s0,0,0,0l.02.04s0,.02,0,.03h0ZM3.38,3.23s0,0,0,0h-.01s-.01-.02-.01-.02c0,0,0,0,0,0h0s0,0,0,0c0,0,0,0,0,0v.03s.02,0,.02,0h0s0,0,0,0h0ZM3.15,2.78s-.05-.03-.06-.08v-.02h0v.02s.03.07.07.08ZM3.15,2.78s-.07-.05-.09-.1h0c.02.06.04.1.09.1ZM3.15,2.78s-.08-.04-.1-.11h0c.02.07.06.11.1.11Z"/>
        <path class="cls-3" d="M3.35,3.25l.05-.03h0l-.05.03ZM3.3,3.21h0l.07-.03-.07.03h0ZM3.29,3.2h0l.07-.04-.07.04h0Z"/>
        <path class="cls-3" d="M2.73,3.03h0l.02-.02-.02.02h0ZM2.73,3.02h0l.02-.02-.02.02h0ZM2.71,3.01h0l.02-.02-.02.02h0ZM3.15,2.89h.02s-.02,0-.02,0ZM3.15,2.89h.02s-.02,0-.02,0h0ZM3.15,2.88h.02s-.02,0-.02,0ZM3.21,2.7s0,0-.01,0h0s0,0,.01,0Z"/>
      </g>
    </g>
  </g>
</svg>