<?xml version="1.0" encoding="UTF-8"?>
<svg id="Layer_2" data-name="Layer 2" xmlns="http://www.w3.org/2000/svg" viewBox="0 0 25.51 17.01">
  <defs>
    <style>
      .cls-1 {
        fill: #d0202d;
      }

      .cls-2 {
        stroke: #d0202d;
        stroke-width: 0px;
      }

      .cls-2, .cls-3 {
        stroke-miterlimit: 10;
      }

      .cls-2, .cls-4 {
        fill: none;
      }

      .cls-5, .cls-6, .cls-7, .cls-3 {
        fill: #fff;
      }

      .cls-6, .cls-7, .cls-3, .cls-4 {
        stroke: #010101;
      }

      .cls-6, .cls-7, .cls-4 {
        stroke-linejoin: round;
      }

      .cls-6, .cls-4 {
        stroke-linecap: round;
      }

      .cls-8 {
        fill: #010101;
      }
    </style>
  </defs>
  <g id="Layer_1-2" data-name="Layer 1">
    <g>
      <path class="cls-5" d="M0,0h25.51v17.01H0V0Z"/>
      <path class="cls-1" d="M12.76,0h12.76v17.01h-12.76V0Z"/>
      <g>
        <path class="cls-2" d="M2.56.98h1.26v1.2c.17-.01.34.12.37.29,0,.03,0,.06,0,.08h1.2v1.26h-1.2c.01.17-.12.34-.29.37-.03,0-.06,0-.08,0v1.2h-1.26v-1.2c-.17.01-.34-.12-.37-.29,0-.03,0-.06,0-.08H.98v-1.26h1.2c-.01-.17.12-.34.29-.37.03,0,.06,0,.08,0V.98Z"/>
        <path class="cls-5" d="M3.81,2.18c.17-.02.34.11.38.29,0,.03,0,.07,0,.1v1.25c.02.17-.11.34-.29.38-.03,0-.07,0-.1,0h-1.25c-.17.02-.34-.11-.38-.29,0-.03,0-.07,0-.1v-1.25c-.02-.17.11-.34.29-.38.03,0,.07,0,.1,0h1.25Z"/>
        <path class="cls-3" d="M2.57.99h1.25v4.39h-1.25V.99ZM.99,2.57h4.39v1.25H.99v-1.25Z"/>
        <path class="cls-3" d="M2.64,1.06h1.1v4.25h-1.1V1.06ZM1.06,2.64h4.25v1.1H1.06v-1.1Z"/>
        <circle class="cls-3" cx="3.19" cy="3.19" r=".98"/>
        <circle class="cls-3" cx="3.19" cy="3.19" r=".73"/>
        <g id="a">
          <path class="cls-7" d="M4.14,2.4s-.1.09-.14.14l-.04-.02c.05-.04.12-.11.16-.15l.02.03ZM4.11,2.34c-.06.02-.18.05-.23.08v-.02s.03-.16.03-.19h.04s-.02.11-.03.15c.04,0,.13-.04.16-.06l.03.03Z"/>
          <path class="cls-7" d="M4.19,2.48h-.05c.01-.06-.05-.16-.13-.21-.08-.05-.16-.04-.17.02s.05.16.13.21c.03.02.06.03.09.03l.03-.04.04.04-.05.05c-.17-.03-.31-.18-.3-.35,0-.01,0-.03,0-.04.16-.03.34.09.39.26,0,.01,0,.02,0,.04Z"/>
        </g>
        <g id="a-2" data-name="a">
          <path class="cls-7" d="M3.98,4.14s-.09-.1-.14-.14l.02-.04c.04.05.11.12.15.16l-.03.02ZM4.03,4.11c-.02-.06-.05-.18-.08-.23h.02s.16.03.19.03v.04s-.11-.02-.15-.03c0,.04.04.13.06.16l-.03.03Z"/>
          <path class="cls-7" d="M3.89,4.19v-.05c.06.01.16-.05.21-.13.05-.08.04-.16-.02-.17s-.16.05-.21.13c-.02.03-.03.06-.03.09l.04.03-.04.04-.05-.05c.03-.17.18-.31.35-.3.01,0,.03,0,.04,0,.03.16-.09.34-.26.39-.01,0-.02,0-.04,0Z"/>
        </g>
        <g id="a-3" data-name="a">
          <path class="cls-7" d="M2.24,3.98s.1-.09.14-.14l.04.02c-.05.04-.12.11-.16.15l-.02-.03ZM2.27,4.03c.06-.02.18-.05.23-.08v.02s-.03.16-.03.19h-.04s.02-.11.03-.15c-.04,0-.13.04-.16.06l-.03-.03Z"/>
          <path class="cls-7" d="M2.19,3.89h.05c-.01.06.05.16.13.21.08.05.16.04.17-.02s-.05-.16-.13-.21c-.03-.02-.06-.03-.09-.03l-.03.04-.04-.04.05-.05c.17.03.31.18.3.35,0,.01,0,.03,0,.04-.16.03-.34-.09-.39-.26,0-.01,0-.02,0-.04Z"/>
        </g>
        <g id="a-4" data-name="a">
          <path class="cls-7" d="M2.4,2.24s.09.1.14.14l-.02.04c-.04-.05-.11-.12-.15-.16l.03-.02ZM2.34,2.27c.02.06.05.18.08.23h-.02s-.16-.03-.19-.03v-.04s.11.02.15.03c0-.04-.04-.13-.06-.16l.03-.03Z"/>
          <path class="cls-7" d="M2.48,2.19v.05c-.06-.01-.16.05-.21.13-.05.08-.04.16.02.17s.16-.05.21-.13c.02-.03.03-.06.03-.09l-.04-.03.04-.04.05.05c-.03.17-.18.31-.35.3-.01,0-.03,0-.04,0-.03-.16.09-.34.26-.39.01,0,.02,0,.04,0Z"/>
        </g>
      </g>
      <g>
        <path class="cls-8" d="M2.41,3.74s-.05-.09-.07-.1c0,0,.02-.02.03-.02,0,.02.04.08.04.08l.05-.04s-.03-.04-.04-.05c.01,0,.03-.02.03-.02,0,.01,0,.03.03.06,0,0,.05-.03.07-.05l.02.04s-.13.07-.16.1ZM2.33,3.27c-.06.01-.09.06-.08.11,0,.06.06.09.11.08.05,0,.09-.06.08-.12s-.06-.09-.11-.08ZM2.34,3.31s.08.01.09.05-.02.07-.07.08-.08-.02-.09-.05c0-.03.02-.07.07-.08ZM2.45,2.97s-.06.06-.1.08c0-.03-.02-.04-.05-.04-.02,0-.05.02-.05.03,0,.02-.01.09-.01.09.05,0,.15,0,.19.02v-.04s-.07,0-.07,0v-.02s.06-.04.06-.04c0,0,.05-.04.05-.07,0,0,0,0,0,0ZM2.34,3.1s-.07,0-.08,0c0-.04.02-.06.04-.06.02,0,.04.01.04.06ZM2.55,2.56s-.09.04-.09.08c0,.02,0,.04.03.06.02.02.05.02.07.02.02,0,.05-.03.05-.04,0-.01-.03-.05-.05-.05l.03-.04s.04.05.06.06c-.02.04-.03.07-.07.09-.04.02-.08.02-.12-.02-.04-.03-.02-.1,0-.12.02-.03.07-.04.07-.06l.03.03ZM2.75,2.35v.14s.01.05,0,.08l.04-.03s-.01-.06-.01-.06l.07-.04s.03.02.03.05l.06-.02s-.08-.04-.08-.04l-.11-.08ZM2.77,2.39l.06.04-.06.03v-.08ZM3.08,2.25s0,.1.01.16c.04,0,.08,0,.09-.03v.05s-.09,0-.13.01c0-.06,0-.15-.02-.18h.05ZM3.41,2.27s-.04.09-.05.15c.04.01.07.02.1,0v.04c-.05-.02-.1-.03-.14-.04.02-.06.05-.14.04-.18h.05ZM3.74,2.42l-.12.07s-.04.02-.08.03l.05.02s.04-.04.04-.04l.07.05s0,.04-.03.05l.05.04s0-.09,0-.09l.02-.13ZM3.71,2.46v.08s-.07-.04-.07-.04l.07-.04ZM3.8,2.74l-.02-.04s.13-.06.17-.09h0s-.04.2-.04.2c.04-.01.09-.04.11-.06l.02.04s-.12.03-.17.07h0s.03-.19.03-.19c0,0-.09.04-.1.07ZM4.09,3.01s0-.05-.02-.05h0s.03-.02.03-.02c.01.04.03.14.03.16h-.03s0,0,0,0c.01-.01,0-.06,0-.06-.05,0-.14.02-.15.04v-.05s.1,0,.15-.02ZM3.92,3.42s.06-.06.1-.08c0,.03.02.04.05.04.02,0,.05-.02.05-.03,0-.02.01-.09.01-.09-.05,0-.15,0-.19-.02v.04s.07,0,.07,0v.02s-.06.04-.06.04c0,0-.05.04-.05.07,0,0,0,0,0,0ZM4.04,3.29s.07,0,.08,0c0,.04-.02.06-.04.06-.02,0-.04-.01-.04-.07ZM3.86,3.54l-.03.05s.05.01.08.03c0,.02.04.08.04.13l.04-.06s-.04-.02-.05-.07c.05-.02.08-.02.1-.02l.03-.06s-.13.05-.14.04c-.02,0-.06-.02-.07-.05Z"/>
        <circle class="cls-8" cx="3.64" cy="3.92" r=".04"/>
        <circle class="cls-8" cx="2.74" cy="3.92" r=".04"/>
      </g>
      <g>
        <path class="cls-8" d="M3.25,4.13s-.01,0-.02-.01c0,0,0,.01,0,.02-.01.01-.03,0-.04,0s-.02,0-.04,0c0,0,0-.01,0-.02,0,0-.01.01-.02.01,0,0,0-.01,0-.02,0,0-.01,0-.02,0-.02,0-.01-.02-.02-.03s-.01-.02,0-.04c0,0,.01,0,.01-.01,0,0-.02,0-.02-.01,0,0,.01,0,.02,0,0,0,0,0,0-.02,0-.02.02-.02.03-.03,0,0,.02-.02.03-.02,0,0,.01,0,.01,0,0,0,0-.02,0-.02s.01.01,0,.02c0,0,0,0,.01,0,.02,0,.02.01.03.02,0,0,.02,0,.03.03,0,0,0,.01,0,.02,0,0,.02,0,.02,0,0,0,0,.01-.02.01,0,0,.01,0,.01.01,0,.02,0,.03,0,.04s0,.02-.02.03c0,0-.01,0-.02,0,0,0,0,.02,0,.02ZM3.16,4.08s0,.01,0,.03c0,.02.02.01.03.01s.03,0,.03-.01c0-.01,0-.02,0-.03s.01.01.03.01c.02,0,.02-.02.02-.03,0,0,.01-.02,0-.03-.01,0-.03,0-.03,0s.02,0,.02-.02c0-.02-.01-.02-.02-.03,0,0-.02-.02-.03,0-.01,0,0,.03-.01.03s0-.02-.01-.03c-.01,0-.02,0-.03,0,0,0-.02.01-.02.03,0,.01.02.02.02.02s-.02,0-.03,0c-.01.01,0,.02,0,.03,0,0,0,.03.02.03.01,0,.02-.02.03-.01Z"/>
        <path class="cls-8" d="M3.19,4.11s0,0,0-.01c0,0,0,0,0,0-.01,0-.01,0-.02,0,0,0-.01,0-.02-.02,0,0,0,0,0-.01,0,0-.01,0-.01,0,0,0,0,0,0,0,0,0,0,0,0,0,0,0,0-.02,0-.02,0,0,0-.02.01-.02,0,0,0,0,.01,0,0,0,0-.01,0-.01,0,0,0,0,.01,0,0,0,0,0,0,0,0,0,.02,0,.02,0s.01,0,.02,0c0,0,0,0,0,0,0,0,0,0,.01,0,0,0,0,0,0,.01,0,0,0,0,.01,0,0,0,0,.01.01.02,0,0,0,.01,0,.02,0,0,0,0,0,0,0,0,.01,0,0,0,0,0,0,0-.01,0,0,0,0,0,0,.01,0,.01-.01.01-.02.02,0,0,0,.01-.02,0,0,0,0,0,0,0,0,0,0,.01,0,.01ZM3.19,4.07s0,0,0,.01c0,0,.01,0,.02,0s.01,0,.01-.02c0,0-.01,0-.01-.01,0,0,0,0,.02,0,0,0,0-.01,0-.02,0,0,0-.01-.01-.01,0,0-.01,0-.01,0s0,0,0-.02c0,0-.01,0-.02,0s-.01,0-.02,0c0,0,0,.01,0,.02s0,0-.01,0c0,0,0,0-.01.01,0,0,0,.01,0,.02,0,0,.01,0,.02,0,0,0,0,0-.01.01,0,0,0,.01.01.02s0,.01.02,0c0,0,0-.01,0-.01Z"/>
        <circle class="cls-8" cx="3.19" cy="4.05" r=".01"/>
      </g>
      <g>
        <path class="cls-4" d="M2.69,3.72c.33-.01.67-.01,1,0"/>
        <path class="cls-4" d="M3.15,2.83s.03.03.03.03M3.22,3.26s0,.05,0,.07M3.16,3.26s.02.05.02.06"/>
        <path class="cls-6" d="M3.36,3.71s-.03.02-.03.03c0,.01.02.01.03.01-.01,0-.06.01-.07,0-.01,0-.11-.01-.13-.01-.01,0-.03-.01-.03-.03,0,0,0-.02.02-.02,0-.01.02-.03.05-.05-.04,0-.1-.01-.11-.03-.03-.01-.05,0-.06.03,0,.05-.03.07-.06.07-.02,0-.03,0-.03.01l.07.02s.02.08,0,.08c0,0-.04,0-.05,0s-.02,0-.02,0c-.01,0-.02,0-.03,0,0,0,0-.03.03-.04.01,0,.03,0,.03-.02,0-.01-.04,0-.07-.02-.02,0-.03-.02-.02-.06,0-.04.06-.05.08-.05,0-.02,0-.05.02-.07.03-.03.08-.02.13-.02.02-.01.07-.03.12-.04.04,0,.22-.05.3-.04-.02-.03-.01-.09.02-.11.04-.02.09.04.1.03.01-.01-.01-.03-.05-.06,0-.01,0-.01,0-.02,0-.01,0-.02,0-.03,0,0,.03,0,.04.02,0,.01.02.02.03.01.01,0,0,0,0-.02,0,0-.01-.02,0-.02,0,0,.03-.03.05-.03,0,0,.01.02.02.03.02.02.03.02.04.03,0,0,0,.02.01.04.01.03.04.05.07.08,0,0,.01,0,.01.02,0,0,0,.02,0,.02,0,0-.02,0-.03,0-.02-.01-.03-.02-.04-.01-.03,0-.05.05-.09.05-.04,0-.06-.06-.09-.04-.02.02.05.06.04.08,0,0,.02.02.01.04.04,0,.07-.03.08-.06.02-.03.04-.04.05-.05.01,0,.03,0,.03.01,0,0,.01,0,.02,0,.01,0,0,.02,0,.02,0,0,0,0-.01,0,0,0-.02,0-.02.01,0,0-.02.02-.02.04,0,.01-.03.03-.04.04,0,0,0,.02,0,.03,0,0,0,0,.01,0,0,0,0,0,0,.01,0,.01-.04.06-.05.06-.02,0-.03-.02-.03-.03-.02,0-.03-.01-.03-.02,0,0-.04.02-.05.03,0,0-.01,0-.02,0,0,0-.03.02-.03.02-.03,0-.07.02-.1.02h-.08s0,0,0,0Z"/>
        <path class="cls-6" d="M3.47,3.42s-.02.04,0,.07c.02.01.04.02.05.04,0,.01,0,.03,0,.03-.02,0-.04.03-.05.05,0-.03-.03-.02-.05-.02,0-.03-.02-.05-.05-.05,0,0,0-.02-.01-.02,0,0-.04,0-.04,0s.01-.02,0-.03c0-.01-.04,0-.05-.01,0-.02,0-.03,0-.04,0-.02-.05-.01-.07-.01.02-.01.02-.03.01-.05,0-.02-.05,0-.05-.02,0,0,.05-.02.07-.02.02,0,.08.01.14.03.01.01.1.04.1.07Z"/>
        <path class="cls-4" d="M3.63,3.65s.06-.03.09-.06M3.18,3.57s.08,0,.1.03c.02.02.03.06-.08.08.03,0,.08,0,.1,0,.02,0,.05-.01.07,0,0,0-.02,0-.03.02s0,.01.02.02M3.46,3.63s.09,0,.1.04"/>
        <path class="cls-4" d="M3.59,3.32s.04.03.06.04c.02.01.03,0,.01-.03"/>
        <path class="cls-4" d="M3.32,3.5s.09-.02.13-.01M3.27,3.45c.06-.02.13,0,.17,0M3.43,3.58s.04-.04.06-.05M3.37,3.53s.05-.02.08-.03M3.37,3.34s.07-.03.11-.05c.02-.01.04-.04.06-.06.01,0,.02-.02.04-.01.03,0,.03.01,0,.01-.02,0-.03.02-.04.03,0,.02,0,.03,0,.05,0,.01-.01.03-.02.05,0,0,0,.01.01.02M3.2,3.4c.09-.02.21.01.23.02"/>
        <path class="cls-4" d="M3.73,3.53s.03-.04.07-.06M3.65,3.67s.04-.03.06-.05M3.73,3.34s-.01,0-.02,0c0,0,0-.01,0-.02,0,0,0,0,.02,0s0,.02,0,.02ZM3.74,3.4s-.02-.01-.04-.01c-.02,0-.03,0-.03.02s.01.02.02.02.02,0,.04,0M3.66,3.27s.03,0,.04,0"/>
        <path class="cls-6" d="M3.21,2.98s0,0,0,0c0,0,0,0,0,0,0,0,0,0,0,0,0,0,0,0,0,0h0s0,0,0,0c0,0,0,0,0,0,0,0,0,0,0,0,0,0,0,0,0,0,0,0,0,0,0,0,0,0,0,0,0,0,0,0,0,0,0,0,0,0,0,0,0,0,0,0,0,0,0,0,0,0,0,0,0,0h0s0,0,0,0c0,0,0,0,0,0h0s0,0,0,0c0,0,0,0,0,0,0,0,0,0,0,0,0,0,0,0,0,0,0,0,0,0,0,0s0,0,0,0c0,0,0,0,0,0s0,0,0,0c0,0,0,0,0,0,0,0,0,0,0,0,0,0,0,0,0,0,0,0,0,0,0,0h0s0,0,0,0c0,0,0,0,0,0,0,0,0,0,0,0,0,0,0,0,0,0,0,0,0,0,0,0,0,0,0,0,0,0,0,0,0,0,0,0,0,0,0,0,0,0,0,0,0,0,0,0,0,0,0,0,0,0,0,0,0,0,0,0,0,0,0,0,0,0,0,0,0,0,0,0,0,0,0,0,0,0,0,0,0,0,0,0,0,0,0,0,0,0,0,0,0,0,0,0,0,0,0,0,0,0,0,0,0,0,0,0,0,0,0,0,.01,0h0"/>
        <path class="cls-4" d="M3.23,2.98h-.02M3.22,2.96h-.02M3.22,2.95h-.02M3.22,2.93h-.02M3.21,2.92h-.02M3.21,2.91h-.02M3.21,2.89h-.03M3.21,2.88h-.03M3.21,2.86h-.03M3.21,2.85h-.03M3.21,2.83h-.03M3.21,2.82h-.03M3.21,2.8h-.03M3.21,2.79h-.03M3.22,2.77h-.04M3.22,2.76h-.04M3.22,2.75h-.04M3.23,2.73h-.04M3.23,2.72l-.04-.02M3.24,2.71l-.04-.02M3.25,2.7l-.04-.02M3.25,2.69l-.04-.03M3.26,2.68l-.04-.03M3.27,2.67l-.03-.03M3.28,2.66l-.03-.04"/>
        <path class="cls-6" d="M3.42,2.77s-.03,0-.05,0c0,.01,0,.04,0,.05.05.05.1.11.1.16.02.01.03.02.03.05.04-.02.07-.05.1-.06.02,0,.05,0,.07,0,0,0,.09.06.12.07.02.02.04.04.05.05s.01.05,0,.06l-.07-.02s0-.03,0-.04c0-.01,0-.01,0-.02,0,0-.02,0-.02,0,0,0-.02,0-.02-.01,0-.01-.08-.04-.09-.04-.01,0-.03,0-.05.01,0,.01-.03.05-.05.07,0,0,0,.01,0,.02,0,0,.05,0,.08,0,.03,0,.06.03.08.05.07.07.1.1.12.12.01.01.02.02.02.04h-.07s0-.04,0-.06c0-.01-.02,0-.03,0,0,0-.01-.01-.02-.02,0-.02-.05-.05-.06-.06s-.02,0-.04,0c-.01,0-.04,0-.05,0s-.07.02-.12.03c-.02,0-.07.02-.13.03-.04,0-.14.02-.16.02,0,.05-.05.11-.07.12-.01.02-.01.03,0,.04,0,0,.08,0,.1,0,.02,0,.05,0,.06,0,.01,0,.03.02.05.03.01,0,.02.01.02.03,0,0,.01.02.02.02h-.08s0-.03-.02-.03c-.01,0-.03.02-.04.01-.07,0-.11,0-.17,0-.02,0-.03-.03-.03-.05,0-.02,0-.04,0-.06,0,0-.03.03-.04.05-.02.02,0,.05,0,.06.01.01.08.08.09.1,0,.01.03.03.06.06,0,.02.03.03.04.04h-.11s0-.01,0-.03c0,0,0-.02-.02-.02-.01,0-.03-.01-.03-.03,0-.01-.05-.07-.07-.09-.01-.01-.06-.06-.06-.06,0,0,0-.02,0-.03,0,0,.04-.05.04-.08,0-.02,0-.02,0-.03-.05-.03-.09-.08-.11-.12,0,0-.06,0-.09,0-.02,0-.05-.01-.06,0,0,.01,0,.04,0,.05.02.02.04.04.07.07s0,.05-.03.07c0,.01,0,0,0,.03,0,.01,0,.05,0,.06-.01,0-.03.02-.04.03-.01.02-.02,0-.01-.03,0-.02-.01-.03-.02-.05-.01-.01,0-.06,0-.07,0-.01.02-.04,0-.05s-.05-.06-.05-.11c0-.07.07-.09.11-.07.06.03.1.02.12.02.02-.03.04-.06.08-.08.04-.02.11-.05.17-.06l.17-.06s.02-.03.02-.04c-.02-.12-.02-.24.08-.3,0,0,0-.03.02-.05,0,0,.02.03.03.05.04.01.11.04.14.05.01,0,.03,0,.04.01,0,0,.01.01.02.02,0,.01,0,.03,0,.03,0,0-.04,0-.05,0,0,0,.01.02.03.02,0,0,0,.02-.01.02,0,0-.01,0-.02,0-.02,0-.04-.01-.06-.02Z"/>
        <path class="cls-4" d="M3.3,2.7c0,.07.02.11.06.13M3.5,3.04s0,.06,0,.09M2.98,3.4c.05-.03.1-.09.1-.12,0-.02-.02-.05-.07-.06M3.08,3.28s.05,0,.07,0M3.42,3.11s.1.03.12.02M3.4,3.19s.04.02.11.02M3.38,2.96s.06.02.09.04"/>
        <path class="cls-4" d="M3.07,3.31s.05,0,.06-.03M3.3,2.7c0,.06.02.07.07.08"/>
        <path class="cls-4" d="M3.53,2.71s0,.03.02.02M3.42,2.67s.07.05.08.08M2.98,3.06s.04.11.04.16"/>
        <path class="cls-6" d="M3.48,2.75s-.05.07-.08.1c-.05.04-.1.06-.17.08,0,0-.02,0-.03,0-.01,0-.03-.01-.04-.03,0,0,0-.06.01-.06.02,0,.03,0,.05,0,0,0,.02,0,.02.02,0,.01-.01.02-.02.01-.01,0-.03-.01-.04,0,0,0-.01.03,0,.03,0,.01.02.02.02.02,0,0,.02,0,.03,0,.06-.02.11-.04.16-.07.03-.02.06-.07.08-.09h.01ZM3.23,2.84s-.05,0-.05,0c.01,0,.03,0,.05,0,0,0,0,0,0,0ZM3.35,2.69h0s0-.05.03-.03,0,.03,0,.04c0,0,0,.01,0,.01"/>
        <path class="cls-4" d="M3.29,2.66l.2.1"/>
        <g>
          <path class="cls-6" d="M3.04,2.66s-.1,0-.13,0c-.02,0-.06.07-.09.07s-.05-.05-.09-.04c-.02.01,0,.08,0,.09-.01,0-.04-.03-.06-.02s.02.11,0,.12c0,0-.06-.04-.07-.03s.02.15,0,.16c-.01,0-.08-.04-.09-.02s.09.06.12.07h.03s.09,0,.1,0l.05-.05c.07-.09.15-.17.24-.17v-.17Z"/>
          <path class="cls-4" d="M2.74,2.69h.13M2.66,2.76l.06-.02M2.6,2.84l.06-.03M2.51,2.98l.08-.07M2.66,3.03c.03-.06.11-.13.16-.16M2.6,3c.05-.06.19-.16.24-.17M2.72,2.78c.06-.03.14-.03.21-.04M2.81,2.72s.11-.01.15-.01M2.66,2.87c.08-.05.16-.08.24-.11"/>
        </g>
        <path class="cls-6" d="M3.32,3.83s.01.02.01.02c0,0-.01,0-.02,0l-.62-.18s-.01-.03,0-.03l.61.19ZM2.73,2.97s-.01-.02-.02-.03c0,0-.02.01-.02.02,0,0,.02.02.03.02h.01ZM2.79,2.99l-.05.05s0,.02.01.01l.05-.05s0-.02-.01-.01ZM2.77,3.04l.16.17h.03s0-.03,0-.03l-.17-.16-.02.02Z"/>
        <path class="cls-4" d="M2.94,3.19l-.16-.16"/>
        <path class="cls-6" d="M3.15,2.73s0-.01,0-.02c.01,0,0,0,.01,0,0,0,.01,0,.02.01,0,0,0,0,0,0,0,0,0-.01,0-.02,0,0,0,0,0,0,0,0,0,0,0,0,0,0,0,0,0,0,0,0,.01,0,.01,0,0,0,0-.02,0-.03.01,0,0-.01.01-.01.01,0,.02-.02.01-.02,0-.02.01-.02.03-.02,0-.01-.02-.02-.03-.03-.01-.02-.04-.03-.08-.03-.04,0-.07.03-.08.05s-.04.02-.05.02c0,0-.01,0-.02,0,0,0-.02,0-.04,0-.01,0-.02,0-.03,0,0,0-.04,0-.05,0s0,.03.01.03c0,0,.03,0,.04,0,.01,0,.04,0,.06,0,.03,0,.04,0,.07.02h0s0,.03,0,.03c0,0-.02,0-.03,0,0,0-.02-.01-.03-.01-.01,0-.02,0-.03,0-.03.01-.16.11-.17.14-.01.02-.03.04-.05.08-.01.02-.03.05-.04.08-.02,0-.04.03-.05.03,0,0,0,.01,0,.01,0,0,0,.01.01.01,0,0,0,.01.01,0,0,0,0,.01,0,.01l.05-.05s.01-.05.02-.06c.03-.03.06-.09.07-.1,0,0,.07-.03.08-.05,0,.04,0,.07,0,.1,0,.04.02.07.03.1,0,.04,0,.06,0,.07,0,.01,0,.01.02.02.01,0,.06,0,.08,0,.03,0,.05,0,.07.01.04,0,.06,0,.07.01.01,0,.03.06.04.08,0,.02.05.05.06.06,0,.01.02.04.02.06,0,.01,0,.02.01.02.01,0,.05,0,.06.01,0,0,.03.02.03.02s.04,0,.05,0,.01-.02,0-.02c0,0-.03,0-.04,0-.01,0-.04-.03-.06-.04-.01-.02-.02-.04-.03-.05,0-.02-.05-.08-.07-.09,0,0-.03-.07-.03-.08,0-.01-.02-.02-.03-.02-.04-.01-.05-.02-.09-.02-.03,0-.03,0-.04-.03,0-.02-.01-.05,0-.07,0,0,0-.03,0-.04,0,0,0-.03,0-.04,0-.01,0-.05,0-.06,0-.02,0-.03,0-.05ZM3.18,2.9s-.02,0-.03,0c0,0,0,0,0,0,0,0,0,0,0,0,0,0,0,0,0-.01,0,0,0,0,0,0,0,0,.02,0,.03,0,0,0,0,.03,0,.04Z"/>
        <path class="cls-4" d="M3.11,2.66s0,0,.02,0c.02,0,.03,0,.02.02,0,.01,0,.02.01.02s.02-.01.02-.02c0,0,.01,0,.02-.01,0-.02.02-.01.03-.01M3.26,2.61s-.03-.01-.03-.02c0-.02-.02-.03-.04-.03-.02,0-.06.01-.07.04,0,.02,0,.03,0,.03,0,0-.02,0-.02,0,0,0,0,.01,0,.02M2.97,2.78l.04-.02"/>
        <path class="cls-4" d="M3.01,2.76s.02.05.04.06M3.07,2.84s.03,0,.05,0M3.02,3.04s.06.02.1.03c.04.01.09,0,.14.03M3,2.9s.03.01.04.01M3.06,2.91s.04.01.05.03M3.05,2.96s.06.04.09.04"/>
        <path class="cls-4" d="M3.09,2.68c.02.06.02.09.07.1M3.07,2.67c.02.06.04.1.09.1M3.05,2.67c.02.06.05.11.1.11M3.4,3.3s-.01-.01-.02-.03l-.02-.03h-.01s0,0,0,0h0s-.01-.03-.01-.03c0,0,0,0,0,0,0,0,.01,0,0,0v.02s.02,0,.02,0c0,0,0,0,0,0h-.01s.02.04.02.04c0,.01,0,.02,0,.03Z"/>
        <path class="cls-4" d="M3.4,3.23l-.05.03M3.3,3.21l.07-.03M3.29,3.2l.07-.04"/>
        <path class="cls-4" d="M2.73,3.03l.02-.02M2.72,3.02l.02-.02M2.71,3.01l.02-.02M3.15,2.89h.02M3.15,2.88h.02M3.15,2.89h.02M3.2,2.69s0,0,.01,0"/>
      </g>
    </g>
  </g>
</svg>