<?xml version="1.0" encoding="UTF-8"?>
<svg id="Layer_2" data-name="Layer 2" xmlns="http://www.w3.org/2000/svg" viewBox="0 0 34.31 17.01">
  <defs>
    <style>
      .cls-1 {
        fill: #fed208;
      }

      .cls-2 {
        fill: #b07f5c;
      }

      .cls-3 {
        fill: #224ca1;
      }

      .cls-4 {
        fill: #cd2031;
      }

      .cls-5 {
        fill: #010101;
      }

      .cls-6 {
        fill: #047b51;
      }
    </style>
  </defs>
  <g id="Layer_1-2" data-name="Layer 1">
    <path class="cls-4" d="M.72.1h33.59v16.8H.72V.1Z"/>
    <path class="cls-1" d="M.72.1h22.4v16.8H.72V.1Z"/>
    <path class="cls-3" d="M0,0h11.68v17.01H0V0Z"/>
    <path class="cls-5" d="M16.61,3.52c-.05,0-.1.01-.14.04.05.01.08.06.08.11v.14h-.14c-.05,0-.1-.03-.11-.08-.05.09-.05.2,0,.29.01-.05.06-.08.11-.08h.14v.67c0,.05-.03.1-.08.11.07,0,.12.1.14.15.02-.05.07-.14.14-.15-.05-.02-.08-.06-.08-.11v-.67h.14c.05,0,.1.03.11.08.05-.09.05-.2,0-.29-.01.05-.06.08-.11.08h-.14v-.14c0-.05.03-.1.08-.11-.04-.03-.09-.04-.14-.04h0Z"/>
    <path class="cls-1" d="M16.61,3.55s-.06,0-.08.01c.03.03.05.07.05.11v.14s0,0,0,0v.02h-.02s0,0,0,0h-.14s-.08-.02-.11-.05c0,.03-.01.05-.01.08,0,.03,0,.06.01.08.03-.03.07-.05.11-.05h.17s0,0,0,0h0s0,.02,0,.02v.67s-.02.08-.05.1c.02.01.04.03.05.05.01.02.02.03.03.05,0-.02.02-.03.03-.05.02-.02.03-.03.05-.05-.03-.03-.05-.06-.05-.11v-.69h.02s0,0,0,0h.14s.08.02.11.05c0-.03.01-.05.01-.08,0-.03,0-.06-.01-.08-.03.03-.07.05-.11.05h-.14s0,0,0,0h-.02v-.02s0,0,0,0v-.14s.02-.08.05-.11c-.03,0-.05-.01-.08-.01"/>
    <path class="cls-5" d="M18.35,5.96c-.08-.05-.15-.13-.2-.21-.12-.19-.17-.43-.17-.66,0-.1.11-.21.11-.3,0-.07,0-.13-.01-.2.04,0,.11.08.11.08,0,0,0-.2-.07-.24,0,0,.03-.03.12-.03-.03-.07-.16-.15-.16-.15,0-.01.02-.02.03-.03.04-.02.07-.03.11-.04-.04,0-.09-.02-.13-.04-.12-.04-.24-.09-.36-.15-.15-.07-.31-.11-.48-.11-.07,0-.16,0-.22.04-.05.03-.05.08-.07.1-.04.04-.12.04-.15.04-.23,0-.24.25-.24.25,0,0,.06-.09.16-.09.17,0,.31.1.31.13,0,.01-.02.02-.02.02-.11,0-.29-.07-.38-.07v.04c.2.07.41.17.41.61,0,.28-.03.56-.17.79-.05.08-.12.15-.2.21l.83.15.83-.15h0Z"/>
    <path class="cls-5" d="M17.52,5.78l-.83.19s-.21-.07-.34-.14c-.22-.12-.33-.24-.59-.26v-.2c0-.11.04-.2.04-.3-.11-.03-.41-.4-.69-.57-.41.27-.73.71-.73.91v5.85c0,.09-.05.21-.05.21.15-.06.43-.44.49-.59v.07c.23-.1.39-.38.47-.52v.07c.21-.18.47-1.23.47-1.23l.43.42s-.16.32-.22.37c.03,0,.06,0,.09,0-.03.04-.25.35-.31.47-.06.11-.11.06-.21.06-.08,0-.27.13-.3.18-.03.05-.05.11-.06.18,0,.06.06.14.06.14,0-.01,0-.03.02-.04l.19.24s.11.04.14,0c.08-.07.15-.12.22-.22.03-.05.04-.11.08-.17l.46-.62v.06c.08-.14.41-.41.41-.41l.35.16s-.65,1.49-1.22,1.72c0,0,.25.11.56.27l.14.07s.08-.1.12-.15c.18-.25.36-.53.36-.53.01.07-.08.3-.25.58l-.1.17.12.07c.3.18.59.39.7.59l.07-.19-.07-.19v-6.53l.04-.09-.04-.15Z"/>
    <path class="cls-2" d="M17.52,12.56c-.11-.12-.33-.26-.58-.39.3-.55.46-1.41.39-1.58,0,0-.13.45-.28.7-.14.24-.32.5-.48.7-.13-.05-.26-.1-.39-.14.5-.39,1.02-1.67,1.02-1.67l-.53-.25s-.2.23-.26.28c0,0-.03-.12-.04-.16,0,0-.08.06-.12.06l-.02-.13c-.05.04-.14.03-.14.03.08-.04.17-.26.17-.26l-.51-.68s-.18.86-.38,1.04v-3.71l.16.15.24-.23v-.17l-.22.2v-.52s.05-.08.07-.12c.04.06.15.25.28.36.02-.09.17-.17.17-.17,0,0,.05.14.13.17.03-.05.19-.16.19-.16,0,0-.14.02-.2.08-.05-.01-.06-.21-.06-.21,0,0-.21.1-.25.17-.04-.01-.1-.17-.13-.23.05,0,.1,0,.16,0,.06,0,.14.03.22.07.09.04.18.09.26.13.11.05.26.06.31.06-.06.04-.11.07-.17.1,0,0,.25,0,.43-.09.06-.04.13-.08.18-.13-.03.08-.07.15-.12.21.26-.02.39-.17.42-.22.02.06.06.12.1.18h.09v6.35l-.09.19h0ZM15.61,5.09v.12s0,.35,0,.35c-.09-.03-.21-.19-.27-.27v-.05s.02-.07.05-.1l-.06-.02s-.04.07-.04.11v.03l-.17.18-.17-.25v-.06s.03-.09.06-.12l-.06-.02s-.06.09-.06.13v.05l-.19.2-.1-.21c.12-.16.3-.34.48-.47,0,0,.38.35.51.4h0ZM14.64,5.43v.29l-.13.12v-.43c0-.05.02-.1.05-.14l.09.16h0ZM15.06,5.54v.18l-.15.14v-.56l.15.23h0ZM14.85,5.86l-.15-.14v-.21l.15-.16v.51ZM15.55,5.65c-.04.05-.13.17-.23.23v-.49s.13.21.23.26ZM15.27,5.41v.45l-.15-.14v-.16l.15-.15ZM14.64,5.89v.45l-.13-.13v-.2l.13-.13ZM14.85,6.04v.16l-.15.14v-.45l.15.14ZM15.06,5.89v.45l-.15-.14v-.16l.15-.14ZM15.27,6.04v.16l-.15.14v-.45l.15.14h0ZM15.48,6.34l-.15-.14v-.15c.05-.03.11-.09.15-.15v.45h0ZM15.09,6.54l.16-.15v3.71l.02.3-.34.35v-4.36l.16.15h0ZM14.83,10.61c0,.12-.22.4-.32.46v-4.68l.16.15.16-.15v4.22Z"/>
    <path class="cls-4" d="M16.18,10.21l.12-.08.02.09-.49.66s-.07.17-.07.17c0,0-.05-.02-.05-.07s0-.1,0-.1c-.03.03-.07.04-.11.04,0-.05.1-.11.11-.19-.08.06-.15.03-.24.06-.1.03-.13.07-.16.07-.02,0-.03-.03-.03-.05.01-.03.14-.13.22-.14.02,0,.18.04.22-.02l.38-.58s.03,0,.04-.01c0,0,0,.11.03.15h0ZM15.42,10.86s0,.02,0,.02l-.05.05s-.02,0-.02,0c0,0,0-.02,0-.02l.05-.05s0,0,.01,0c0,0,0,0,.01,0h0ZM15.5,10.92s.02.04,0,.06h0s-.13.11-.13.11c-.02.01-.05.01-.06,0-.01-.02-.01-.04,0-.06l.13-.11s.01,0,.02,0c.01,0,.03,0,.04.02ZM15.57,11.01s.02.04,0,.06h0s0,0,0,0l-.13.11s-.04.01-.06,0h0s-.02-.04,0-.06l.13-.11s.01,0,.02,0c.01,0,.03,0,.04.02h0ZM15.62,11.08s.03,0,.04.02c.02.02.02.04,0,.06l-.13.11s-.05,0-.06-.01c-.01-.02-.01-.04,0-.06l.13-.11s.01,0,.02,0h0Z"/>
    <path class="cls-5" d="M17.52,5.78l.83.19s.21-.07.34-.14c.22-.12.33-.24.59-.26v-.2c0-.11-.04-.2-.04-.3.11-.03.41-.4.69-.57.41.27.73.71.73.91v5.85c0,.09.05.21.05.21-.15-.06-.43-.44-.49-.59v.07c-.23-.1-.39-.38-.47-.52v.07c-.21-.18-.47-1.23-.47-1.23l-.43.42s.16.32.22.37c-.03,0-.06,0-.09,0,.03.04.25.35.31.47.06.11.11.06.21.06.08,0,.27.13.3.18.03.05.05.11.06.18,0,.06-.06.14-.06.14,0-.01,0-.03-.02-.04l-.19.24s-.11.04-.14,0c-.08-.07-.15-.12-.22-.22-.03-.05-.04-.11-.08-.17l-.46-.62v.06c-.08-.14-.41-.41-.41-.41l-.35.16s.65,1.49,1.22,1.72c0,0-.25.11-.56.27l-.14.07s-.08-.1-.12-.15c-.18-.25-.36-.53-.36-.53-.01.07.08.3.25.58l.1.17-.12.07c-.3.18-.59.39-.7.59l-.07-.19.07-.19v-6.53l-.04-.09.04-.15h0Z"/>
    <path class="cls-2" d="M17.52,12.56c.11-.12.33-.26.58-.39-.3-.55-.46-1.41-.39-1.58,0,0,.13.45.28.7.14.24.32.5.48.7.13-.05.26-.1.39-.14-.5-.39-1.02-1.67-1.02-1.67l.53-.25s.2.23.26.28c0,0,.03-.12.04-.16,0,0,.08.06.12.06l.02-.13c.05.04.14.03.14.03-.08-.04-.17-.26-.17-.26l.51-.68s.18.86.38,1.04v-3.71l-.16.15-.24-.23v-.17l.22.2v-.52s-.05-.08-.07-.12c-.04.06-.15.25-.28.36-.02-.09-.17-.17-.17-.17,0,0-.05.14-.13.17-.03-.05-.19-.16-.19-.16,0,0,.14.02.2.08.05-.01.06-.21.06-.21,0,0,.21.1.25.17.04-.01.1-.17.13-.23-.05,0-.1,0-.16,0-.06,0-.14.03-.22.07-.09.04-.18.09-.26.13-.11.05-.26.06-.31.06.06.04.11.07.17.1,0,0-.25,0-.43-.09-.06-.04-.13-.08-.18-.13.03.08.07.15.12.21-.26-.02-.39-.17-.42-.22-.02.06-.06.12-.1.18h-.09v6.35l.09.19h0ZM19.42,5.09v.12s0,.35,0,.35c.09-.03.21-.19.27-.27v-.05s-.02-.07-.05-.1l.06-.02s.04.07.04.11v.03l.17.18.17-.25v-.06s-.03-.09-.06-.12l.06-.02s.06.09.06.13v.05l.19.2.1-.21c-.12-.16-.3-.34-.48-.47,0,0-.38.35-.51.4h0ZM20.39,5.43v.29l.13.12v-.43c0-.05-.02-.1-.05-.14l-.09.16h0ZM19.98,5.54v.18l.15.14v-.56l-.15.23h0ZM20.18,5.86l.15-.14v-.21l-.15-.16v.51ZM19.48,5.65c.04.05.13.17.23.23v-.49s-.13.21-.23.26ZM19.77,5.41v.45l.15-.14v-.16l-.15-.15h0ZM20.39,5.89v.45l.13-.13v-.2l-.13-.13ZM20.18,6.04v.16l.15.14v-.45l-.15.14ZM19.98,5.89v.45l.15-.14v-.16l-.15-.14ZM19.77,6.04v.16l.15.14v-.45l-.15.14h0ZM19.56,6.34l.15-.14v-.15c-.05-.03-.11-.09-.15-.15v.45h0ZM19.95,6.54l-.16-.15v3.71l-.02.3.34.35v-4.36l-.16.15h0ZM20.2,10.61c0,.12.22.4.32.46v-4.68l-.16.15-.16-.15v4.22h0Z"/>
    <path class="cls-4" d="M18.85,10.21l-.12-.08-.02.09.49.66s.07.17.07.17c0,0,.05-.02.05-.07s0-.1,0-.1c.03.03.07.04.11.04,0-.05-.1-.11-.11-.19.08.06.15.03.24.06.1.03.13.07.16.07.02,0,.03-.03.03-.05-.01-.03-.14-.13-.22-.14-.02,0-.18.04-.22-.02l-.38-.58s-.03,0-.04-.01c0,0,0,.11-.03.15h0ZM19.62,10.86s0,.02,0,.02l.05.05s.02,0,.02,0c0,0,0-.02,0-.02l-.05-.05s0,0-.01,0c0,0,0,0-.01,0h0ZM19.54,10.92s-.02.04,0,.06h0s.13.11.13.11c.02.01.05.01.06,0,.01-.02.01-.04,0-.06l-.13-.11s-.01,0-.02,0c-.01,0-.03,0-.04.02ZM19.46,11.01s-.02.04,0,.06h0s0,0,0,0l.13.11s.04.01.06,0h0s.02-.04,0-.06l-.13-.11s-.01,0-.02,0c-.01,0-.03,0-.04.02h0ZM19.42,11.08s-.03,0-.04.02c-.02.02-.02.04,0,.06l.13.11s.05,0,.06-.01c.01-.02.01-.04,0-.06l-.13-.11s-.01,0-.02,0h0Z"/>
    <path class="cls-2" d="M17.33,3.96c.21,0,.36.1.57.19.05.02.1.04.15.06-.02.02-.04.04-.05.07,0,0,.09.02.13.09,0,0-.09,0-.1.06.05,0,.1.06.1.12l-.12-.04c.02.09.03.19.03.29,0,.08-.11.17-.11.3,0,.41.1.56.17.69.03.05.05.11.1.15-.21-.11-.36-.25-.36-.38v-.49h-.05v.49c0,.09.02.14.02.14.03.1.1.26.14.33-.19-.1-.29-.23-.29-.28v-.67h-.05v.73s-.04.08-.06.09c-.02-.01-.05-.06-.07-.09v-.05s.01-.68.01-.68h-.05v.67s-.1.18-.29.28c.04-.06.11-.22.14-.33,0,0,.02-.04.02-.14v-.49h-.05v.49c0,.13-.16.27-.36.38.05-.04.07-.1.1-.15.08-.14.18-.31.18-.81,0-.19-.03-.31-.08-.4-.01-.03-.03-.11.08-.11.06,0,.19.1.19.1,0-.05-.03-.1-.07-.13-.02-.01-.03-.03-.03-.05,0-.03.03-.05.05-.07.02,0-.23-.05-.23-.16,0-.02.01-.04.06-.04.07,0,.17.08.27.08.07,0,.1-.02.17-.02.09,0,.27.17.34.16-.07-.04-.18-.21-.36-.21-.06,0-.11.01-.17.01-.07,0-.14-.07-.22-.07-.05,0-.11,0-.12-.01-.02-.02,0-.04.01-.06.03-.04.1-.05.17-.05.02,0,.04,0,.06,0h.06s0,0,0,0Z"/>
    <path class="cls-4" d="M16.63,4.22c.03-.05.09-.09.16-.09.05,0,.21,0,.21,0,.02.05.12.15.12.24,0,0-.1-.18-.37-.18-.04,0-.08,0-.11.02h0s0,0,0,0ZM17.07,4.41s-.06.06-.07.09c-.06-.02-.16-.12-.16-.12,0,0,.08.05.23.03h0Z"/>
    <path class="cls-5" d="M16.98,4.25s-.07-.02-.07-.04c0-.03.03-.03.05,0,0,.02.01.03.01.05h0s0,0,0,0Z"/>
    <ellipse class="cls-5" cx="17.29" cy="4.28" rx=".14" ry=".1"/>
    <circle class="cls-1" cx="17.29" cy="4.28" r=".1"/>
    <circle class="cls-5" cx="17.29" cy="4.28" r=".04"/>
    <path class="cls-5" d="M15.75,11.15l.3.16-.07.34-.3-.16.07-.34Z"/>
    <path class="cls-5" d="M14.34,7.92l-.11.05,1.23,2.7h.13l-1.25-2.75ZM15.79,11.1l-.09.09.06.12.11-.05-.07-.16Z"/>
    <path class="cls-5" d="M14.72,10.04s.1.21.18.24c-.04-.01-.17.04-.17.04,0,0,.23.21.43.22.17.01.25-.07.25-.07l-.03-.18c-.07-.08-.16-.14-.27-.18-.17-.06-.39-.07-.39-.07h0s0,0,0,0ZM15.5,9.66s-.14.12-.18.26.03.3.03.3l.12.22s.17-.09.24-.22.04-.31.04-.31c0,0-.13.05-.15.07.03-.15-.1-.33-.1-.33h0ZM15.04,9.6s-.16.06-.32.05c-.15,0-.28-.14-.28-.14,0,0,.12-.08.19-.07-.07-.02-.17-.19-.17-.19,0,0,.14-.04.26,0s.23.18.23.18l.08.17h0ZM15.1,8.81s.08.17.06.23c.03-.04.12-.1.12-.1,0,0,.06.27,0,.44s-.22.23-.22.23l-.19-.36s-.03-.13.03-.24.19-.2.19-.2h0ZM14.04,8.36s.18-.02.34.05c.13.06.18.16.18.16l.07.18s-.19.07-.34.02-.26-.24-.26-.24c0,0,.11-.04.15-.03-.06-.03-.12-.14-.12-.14h0s0,0,0,0h0ZM14.59,8.03s.08.1.08.21c.02-.06.12-.13.12-.13,0,0,.1.24.08.41s-.16.27-.16.27l-.18-.34s-.06-.14-.04-.25.11-.18.11-.18h0s0,0,0,0ZM13.98,7.39s-.03.18.02.29c.05.09.08.12.08.12-.09-.06-.23-.07-.23-.07,0,0,.05.2.17.29s.3.07.3.07c0,0,.12-.16.11-.33s-.15-.36-.15-.36c0,0-.05.11-.06.2-.04-.09-.25-.2-.25-.2h0ZM15.42,10.47v.07c.11,0,.13,0,.16.02.03.03.07.04.11.02.04-.02.06-.07.04-.12-.02-.04-.06-.05-.1-.05-.02,0-.04.02-.06.04-.04.02-.15.02-.15.02h0Z"/>
    <path class="cls-5" d="M15.41,10.42l.05.04c-.06.09-.08.1-.06.14.01.04,0,.08-.04.1-.04.03-.1.02-.12-.03-.03-.04-.01-.08.01-.11.02-.02.04-.02.06-.03.04-.02.09-.12.09-.12h0s0,0,0,0ZM15.04,9.63v.07c.11,0,.13,0,.16.02.03.03.07.04.11.02.04-.02.06-.07.04-.12-.02-.04-.06-.05-.1-.05-.02,0-.04.02-.06.04-.04.02-.15.02-.15.02h0s0,0,0,0Z"/>
    <path class="cls-5" d="M15.06,9.66l.05.05c-.07.08-.09.09-.08.13,0,.04-.02.08-.05.1-.05.02-.1,0-.12-.04-.02-.04,0-.08.03-.11.02-.02.05-.01.07-.02.04-.02.11-.1.11-.1h0ZM14.67,8.85v.07c.11,0,.13,0,.16.02.03.03.07.04.11.02.04-.02.06-.07.04-.12-.02-.04-.06-.05-.1-.05-.02,0-.04.02-.06.04-.04.02-.15.02-.15.02h0Z"/>
    <path class="cls-5" d="M14.7,8.84l.05.05c-.07.08-.09.09-.08.13,0,.04-.02.08-.05.1-.05.02-.1,0-.12-.04-.02-.04,0-.08.03-.11.02-.02.05-.01.07-.02.04-.02.11-.1.11-.1h0ZM14.28,8.03v.07c.11,0,.13,0,.16.02.03.03.07.04.11.02.04-.02.06-.07.04-.12-.02-.04-.06-.05-.1-.05-.02,0-.04.02-.06.04-.04.02-.15.02-.15.02h0Z"/>
    <path class="cls-5" d="M14.31,8.01l.05.05c-.07.08-.09.09-.08.13,0,.04-.02.08-.05.1-.05.02-.1,0-.12-.04-.02-.04,0-.08.03-.11.02-.02.05-.01.07-.02.04-.02.11-.1.11-.1h0Z"/>
    <g>
      <path class="cls-1" d="M15.79,11.25l.19.1-.05.21-.19-.1.05-.21ZM14.97,9.44s-.1-.15-.14-.25c-.04-.1-.13-.24-.11-.26.03-.01.06.07.11.16s.18.33.14.34h0s0,0,0,0ZM14.57,8.54s-.08-.1-.13-.19c-.04-.1-.09-.16-.06-.18.03-.01.07.07.1.15.03.08.12.2.08.21h0s0,0,0,0ZM15.5,10.58s-.17-.27-.27-.51-.19-.43-.16-.44c.03-.01.12.21.22.45s.24.5.21.5h0Z"/>
      <circle class="cls-1" cx="15.65" cy="10.5" r=".05"/>
      <circle class="cls-1" cx="15.32" cy="10.63" r=".05"/>
      <circle class="cls-1" cx="15.27" cy="9.66" r=".05"/>
      <circle class="cls-1" cx="14.93" cy="9.85" r=".05"/>
      <circle class="cls-1" cx="14.9" cy="8.88" r=".05"/>
      <circle class="cls-1" cx="14.57" cy="9.03" r=".05"/>
      <circle class="cls-1" cx="14.51" cy="8.06" r=".05"/>
      <circle class="cls-1" cx="14.18" cy="8.21" r=".05"/>
    </g>
    <path class="cls-6" d="M14.04,7.5s0,.13.04.21.14.11.14.11c0,0,0-.13-.04-.21s-.14-.11-.14-.11ZM13.94,7.8s.12,0,.18.06.09.16.09.16c-.05,0-.1-.01-.14-.04-.07-.05-.13-.17-.13-.17ZM14.31,7.53c-.02.06-.04.12-.03.18,0,.1.06.2.06.2,0,0,.05-.12.05-.21s-.06-.15-.07-.18h0ZM14.11,8.4c.04.05.09.09.15.12.09.04.22.05.22.05-.04-.05-.09-.1-.15-.13-.09-.04-.21-.04-.21-.04h0s0,0,0,0ZM14.14,8.58s.04.08.12.12.23.03.23.03c-.04-.05-.08-.08-.14-.11-.08-.04-.22-.04-.22-.04h0ZM14.59,8.14s-.04.11-.04.16c0,.08.06.18.06.18,0,0,.04-.11.03-.19,0-.05-.02-.1-.05-.15h0ZM14.76,8.25s-.08.11-.09.22.05.22.05.22c0,0,.1-.1.11-.21s-.06-.23-.06-.23h0s0,0,0,0ZM14.54,9.27s.02.06.04.08c.03.03.06.06.09.09.04-.01.08-.01.12,0,.07.01.16.08.16.08,0,0-.1-.15-.2-.2-.07-.03-.14-.05-.22-.04h0s0,0,0,0ZM14.53,9.52s.13-.05.23-.04.2.1.2.1c0,0-.14.05-.25.03-.07-.01-.13-.04-.18-.09h0ZM15.06,8.93s-.11.12-.12.22.09.2.09.2c0-.04,0-.07.01-.11.01-.03.03-.06.05-.09,0-.03.01-.06,0-.1,0-.04-.02-.09-.05-.13h0ZM15.22,9.06s-.11.11-.13.22.02.24.02.24c0,0,.1-.08.12-.19s-.01-.27-.01-.27h0ZM15.49,9.75c.03.06.05.12.06.18.01.08,0,.11,0,.11,0,0-.05.05-.07.08-.03.04-.03.1-.03.1,0,0-.1-.15-.08-.26s.13-.22.13-.22h0s0,0,0,0ZM15.7,9.99s-.13.08-.18.17c-.03.05-.04.12-.02.17.06,0,.11-.04.14-.09.05-.09.06-.25.06-.25h0s0,0,0,0ZM14.86,10.34s.18,0,.3.02.15.09.15.09c0,0-.13.06-.24.03s-.21-.14-.21-.14h0ZM14.83,10.12s.08.13.19.17c.15.06.32.03.32.03,0,0-.09-.11-.22-.16s-.29-.04-.29-.04h0Z"/>
    <path class="cls-5" d="M21.11,7.6l.02.05s-.04.03-.06.05c-.02.03.01.08.01.08,0,0-.2-.02-.23,0-.03.02.01.16,0,.28-.03.16-.09.15-.09.18,0,.03.02.08.02.08,0,0-.04.01-.05.03-.01.03,0,.07,0,.1l-.3.59s-.04.03-.06.06c0,.02,0,.05,0,.07,0,0-.06,0-.08.04-.01.03-.02.06,0,.1-.02,0-.04.02-.05.04-.02.04.01.06,0,.07l-.33.65c-.03.06-.14.07-.2.19-.04.07-.03.15.03.2,0,0-.09,0-.11.05-.02.05,0,.12.06.15s.13,0,.16-.04c.02-.05-.02-.12-.02-.12.08,0,.15-.03.18-.1.06-.12,0-.21.04-.27l.33-.65s.04,0,.06-.04c.01-.02.01-.05,0-.07.03-.01.06-.04.07-.06.02-.04-.01-.09-.01-.09.02,0,.04-.02.06-.04.02-.03,0-.06.02-.09l.3-.59s.07-.04.08-.07c0-.02,0-.05,0-.05,0,0,.06,0,.08-.03.02-.02-.02-.07.09-.18.08-.08.22-.13.22-.17,0-.04-.13-.19-.13-.19,0,0,.06,0,.07-.04.01-.02.01-.05,0-.07h.06v-.27l-.21.15h0ZM19.28,11.26s0,.04,0,.06c0,0-.07-.02-.09,0-.02.01,0,.33,0,.33,0,0,.27-.17.26-.19,0-.03-.06-.07-.06-.07.02,0,.04-.02.05-.03,0-.02,0-.07-.05-.1-.02-.01-.04-.01-.06-.01-.02,0-.04.01-.05.03h0Z"/>
    <path class="cls-1" d="M21.16,7.62l.13.06v-.15s-.13.09-.13.09ZM21.11,7.71s-.01.08.02.1.08.01.1-.02.01-.08-.02-.1c0,0,0,0,0,0-.01,0-.03,0-.04,0-.02,0-.04.01-.05.03h0ZM20.89,7.82s0,.12,0,.22c0,.09-.03.12-.05.15-.01.03-.07.06-.07.06l.04.04s.03-.04.07-.13c.05-.1.05-.29.07-.3.04-.01.08-.03.12-.04,0,0-.1,0-.16,0-.01,0-.02,0-.04,0h0ZM20.9,8.35s.04-.1.07-.14c.06-.12.19-.21.2-.23,0-.02-.05-.13-.05-.13,0,0-.12.02-.13.04-.02.02,0,.17-.07.29-.02.05-.05.09-.08.14l.06.03h0ZM21.2,7.98s-.15.13-.21.23c-.04.09-.06.14-.06.14h.06s0-.05.01-.08c.02-.03.02-.07.09-.13.08-.06.18-.11.18-.13,0-.01-.11-.16-.11-.16.02.04.03.08.04.12h0ZM20.75,8.66c.09-.18.12-.19.13-.22.01-.02,0-.06-.03-.08-.01,0-.03,0-.04,0-.02,0-.03.01-.04.03-.01.02,0,.05-.1.23l-.21.41s0,.05.02.06h0s0,0,0,0c.02.01.05,0,.06-.02,0,0,0,0,0,0l.21-.41h0ZM20.38,9.13s0,.06.04.07.07.01.09,0,0-.06-.04-.07c-.02,0-.03-.01-.05-.01-.01,0-.03,0-.03.02h0ZM20.31,9.25s0,.07.05.09.09.02.11-.01,0-.07-.05-.09c-.01,0-.03-.01-.05-.01-.02,0-.04,0-.06.03h0ZM20.26,9.38s0,.06.04.07.07.01.09,0,0-.06-.04-.07c-.02,0-.03-.01-.05-.01-.01,0-.03,0-.03.02h0ZM20.23,9.51l-.31.62c-.03.05-.14.08-.18.17-.04.09-.01.17.04.19.06.03.14,0,.18-.08.04-.08,0-.19.03-.24l.31-.62s0-.05-.01-.06c0,0,0,0,0,0,0,0-.02,0-.03,0-.01,0-.03.01-.03.03h0ZM19.64,10.57s0,.08.04.1.09.01.11-.02,0-.08-.05-.1c-.01,0-.03-.01-.05-.01-.02,0-.05.01-.06.03h0ZM19.33,11.27s-.02,0-.03.01c0,.02,0,.05.04.06s.06.01.07,0,0-.05-.04-.06c-.01,0-.03-.01-.04-.01h0s0,0,0,0ZM19.22,11.35v.23l.18-.13c-.04-.06-.11-.1-.18-.09h0ZM19.34,6.33c0-.12.16-.25.16-.25h-3.96s.16.12.16.25v2.95c0,.06.02.13.06.18.04.05.12.13.2.18.26.17.7.35,1.02.5.27.12.39.18.53.35.14-.18.26-.23.53-.35.33-.15.76-.33,1.02-.5.08-.05.17-.13.2-.18.04-.05.06-.11.06-.18v-2.95h0Z"/>
    <path class="cls-4" d="M15.79,8v-1.67c0-.05-.02-.11-.05-.15h3.54s-.05.1-.05.15v1.67s-1.72.52-1.72.52l-1.73-.52h0Z"/>
    <path class="cls-3" d="M19.24,8l-1.07-.02h-1.31l-1.07.02v1.28c0,.06.07.22.45.41.64.32,1.13.47,1.27.65.15-.18.64-.33,1.27-.65.39-.19.45-.34.45-.41v-1.28s0,0,0,0Z"/>
    <path class="cls-5" d="M18.15,7.93s.62-.16.62-.81c0-.51-.62-.77-.64-.89-.06.21.21.51.21.85,0,.45-.33.47-.33.47-.08,0-.11.06-.14.06-.07,0-.1-.09-.16-.09-.06,0-.11.09-.19.09s-.13-.09-.19-.09c-.06,0-.1.08-.16.09-.03,0-.06-.06-.14-.06,0,0-.33-.02-.33-.47,0-.35.27-.64.21-.85-.02.12-.64.38-.64.89,0,.66.62.81.62.81l-.18.32s.25.01.39.13c.16.14.15.43.15.65,0,.17-.02.35-.11.42-.12.1-.19.11-.19.22,0,.1.07.12.19.18.15.08.15.19.38.19s.22-.11.38-.19c.12-.06.19-.08.19-.18,0-.12-.08-.12-.19-.22-.09-.07-.11-.25-.11-.42,0-.21-.02-.51.15-.65.14-.12.39-.13.39-.13l-.18-.32h0ZM17.52,6.27l-.11.3-.29-.14.14.29-.3.11.3.11-.14.29.29-.14.11.3.11-.3.29.14-.14-.29.3-.11-.3-.11.14-.29-.29.14-.11-.3ZM16.86,7.98s-.38-.09-.52-.28c-.16.14-.34.24-.55.3,0,0,.31.14.55.32.11-.16.52-.34.52-.34h0Z"/>
    <path class="cls-5" d="M18.17,7.98s.41.18.52.34c.24-.18.55-.32.55-.32-.2-.06-.39-.16-.55-.3-.14.19-.52.28-.52.28h0ZM17.02,8.38l-.15.15.15.15.15-.15-.15-.15ZM18.02,8.38l-.15.15.15.15.15-.15-.15-.15ZM16.98,9.25c0,.1,0,.19-.02.29,0,0,.21-.06.25-.27.02-.1.04-.47-.06-.53l-.27-.05c.07.18.1.37.1.57h0ZM17.88,8.73c-.1.06-.08.43-.06.53.04.21.25.27.25.27-.01-.09-.02-.19-.02-.29,0-.19.03-.39.1-.57l-.27.05h0ZM16.34,8.74c-.09.02-.15.12-.13.21,0,.02,0,.03.02.04-.01,0-.03,0-.04,0,0,0-.01,0-.02,0-.1,0-.17.08-.17.18s.08.17.18.17c0,0,.02,0,.02,0,0,.01-.02.02-.02.04-.04.09,0,.19.1.23.09.04.19,0,.23-.1h0s0-.03.01-.04c0,.01.02.02.03.03.07.06.18.05.25-.02s.05-.18-.02-.25c-.01-.01-.03-.02-.04-.03.01,0,.03-.01.04-.02.08-.05.11-.16.06-.24-.03-.05-.1-.09-.16-.08-.03,0-.06.01-.08.03-.01,0-.02.02-.03.03,0-.1-.08-.18-.18-.18-.01,0-.03,0-.04,0h0ZM18.2,9.25c.02.18.16.33.34.37-.03-.05-.05-.11-.06-.17-.02-.21.14-.38.37-.38.03,0,.07,0,.1.01-.08-.14-.23-.22-.39-.22-.22,0-.39.17-.37.39h0Z"/>
    <g>
      <path class="cls-1" d="M16.61,7.08c0,.34.18.54.42.54.05,0,.1.06.14.06.07,0,.12-.08.16-.08.05,0,.09.09.19.09s.13-.09.19-.09c.04,0,.09.08.16.08.04,0,.09-.06.14-.06.24,0,.42-.2.42-.54,0-.28-.23-.61-.21-.67,0,0,.45.32.45.71,0,.62-.62.77-.62.77l.14.32s-.19.03-.31.12c-.16.13-.16.47-.16.7,0,.27.01.39.11.46.1.08.18.1.18.17,0,.07-.08.1-.19.14-.12.05-.13.14-.3.14s-.18-.09-.3-.14c-.11-.05-.19-.07-.19-.14,0-.08.08-.1.18-.17.1-.07.11-.19.11-.46,0-.23,0-.58-.16-.7-.12-.1-.31-.12-.31-.12l.14-.32s-.62-.15-.62-.77c0-.38.45-.71.45-.71.03.05-.21.39-.21.67h0ZM17.28,9.62c-.12,0-.2.03-.2.06s.08.06.2.06c.03,0,.07-.02.07-.06,0-.04-.03-.06-.07-.06,0,0,0,0,0,0h0ZM17.75,9.62s-.07.02-.07.06h0s0,0,0,0c0,.04.04.06.07.06.12,0,.2-.02.2-.06s-.08-.06-.2-.06h0ZM17.52,6.47l.07.19.19-.09-.09.19.19.07-.19.07.09.19-.19-.09-.07.19-.07-.19-.19.09.09-.19-.19-.07.19-.07-.09-.19.19.09.07-.19h0ZM15.97,8s.24.12.35.22h0s0,0,0,0c.11-.13.32-.24.32-.24,0,0-.2-.05-.32-.2-.13.14-.36.21-.36.21ZM19.06,8s-.24.12-.35.22h0s0,0,0,0c-.11-.13-.32-.24-.32-.24,0,0,.2-.05.32-.2.13.14.36.21.36.21ZM17.02,8.45l.08.08-.08.08-.08-.08.08-.08ZM18.02,8.45l.08.08-.08.08-.08-.08.08-.08ZM17.12,8.79c.05.07.04.2.04.36,0,.1-.05.18-.13.23,0-.41-.04-.5-.06-.63l.15.03h0ZM18.06,8.76c-.02.12-.06.22-.06.63-.08-.05-.13-.14-.13-.23,0-.17,0-.29.04-.36l.15-.03h0ZM16.52,8.91s0,.03,0,.04c0,.01,0,.02,0,.03-.08-.03-.16,0-.22.06,0,0-.02-.02-.02-.03,0-.01-.01-.03-.02-.04-.02-.07.03-.15.1-.17.07-.02.15.03.17.1h0ZM16.72,9.17s-.03.01-.04.02c-.01,0-.02,0-.04,0,0-.08-.05-.16-.12-.19,0-.01.01-.02.02-.03,0-.01.02-.02.03-.03.06-.04.15-.02.19.04.04.06.02.15-.04.19h0ZM16.55,9.44s-.02-.02-.03-.03c0-.01-.01-.02-.01-.03.08-.02.13-.09.14-.17.01,0,.03,0,.04,0,.01,0,.03.01.04.02.06.05.06.13.02.19-.05.06-.13.06-.19.02h0ZM16.23,9.36s.01-.03.02-.04c0,0,.02-.02.03-.02.05.07.13.1.21.08,0,.01,0,.03,0,.04,0,.01,0,.03,0,.04-.03.07-.11.1-.18.08-.07-.03-.1-.11-.08-.18h0ZM16.22,9.03s.03,0,.04.01c.01,0,.02.01.03.02-.05.06-.06.15-.01.22-.01,0-.02.01-.03.01-.01,0-.03,0-.04,0-.08,0-.13-.07-.13-.15,0-.08.07-.13.15-.13h0Z"/>
      <circle class="cls-1" cx="16.45" cy="9.18" r=".13"/>
      <path class="cls-1" d="M18.76,9c-.22.04-.38.24-.35.46-.07-.06-.12-.14-.13-.22-.02-.17.1-.3.29-.3.07,0,.14.02.2.06h0Z"/>
    </g>
    <path class="cls-5" d="M19.42,6.11h-3.81c.05.05.11.13.11.22v2.56h0v.39h0s0,.06.01.09c0,.03.02.05.04.07h0s.08.09.13.13c.01,0,.02.02.03.02.01,0,.02.02.03.02h0c.2.13.51.27.8.4l.22.1h0s0,0,0,0h0s0,0,0,0c.26.12.38.17.51.33.14-.16.25-.21.51-.33h0s0,0,0,0l.22-.1c.28-.13.6-.26.8-.4h0c.06-.04.11-.08.16-.13,0,0,.01-.02.02-.02,0,0,.01-.01.02-.02h0s0,0,0,0h0s.03-.05.04-.07c.01-.03.02-.06.01-.09h0v-.39h0v-2.56c0-.08.06-.17.11-.22h0ZM19.37,6.33v2.56h0v.39h0s0,.07-.02.11c-.01.03-.03.06-.05.09h0s-.01.02-.02.03c0,0-.02.02-.02.03-.05.05-.11.1-.17.14h0c-.21.13-.52.27-.81.4l-.22.1h0s0,0,0,0c-.27.12-.38.17-.51.34l-.02.03-.02-.03c-.14-.17-.25-.22-.51-.34h0s0,0,0,0h0s0,0,0,0h0s-.22-.1-.22-.1c-.29-.13-.6-.27-.81-.4h0s0,0,0,0h0s-.02-.02-.04-.02-.02-.02-.03-.03c-.05-.04-.1-.09-.14-.14h0s-.04-.05-.05-.09c-.01-.04-.02-.07-.02-.11h0v-.39h0v-2.56c0-.11-.15-.22-.15-.22v-.05h4v.05s-.15.11-.15.22h0ZM19.28,6.15h0s.01,0,.01,0h.06s-.04.05-.04.05c-.03.04-.04.09-.04.13v2.56h0v.39h0c0,.05-.04.15-.21.28h0s-.07.05-.11.07c-.04.03-.09.05-.15.08h0s0,0,0,0h0c-.23.12-.44.21-.63.29-.32.14-.55.24-.63.35h0s0,0,0,0l-.02.03-.02-.03c-.09-.11-.32-.21-.63-.35-.18-.08-.4-.17-.63-.29h0s0,0,0,0h0c-.16-.08-.27-.16-.34-.22-.01-.01-.03-.02-.04-.04-.07-.08-.09-.14-.09-.18h0s0,0,0,0v-.39h0v-2.56s-.01-.09-.04-.13l-.04-.05h.13s3.41,0,3.41,0h0s.05,0,.05,0h0ZM19.22,6.21h0s-3.41,0-3.41,0h0s-.01,0-.01,0c.02.04.03.08.03.12v2.56h0v.39h0s0,0,0,0c0,.03.02.07.07.14.01.01.02.02.03.03.07.06.17.13.33.21h0s0,0,0,0h0c.23.12.44.21.63.29.3.13.53.23.63.34.11-.11.33-.21.63-.34.18-.08.39-.17.63-.29h0s0,0,0,0h0c.05-.03.1-.05.14-.08.04-.02.08-.05.11-.07h0c.15-.11.19-.19.19-.23h0v-.39h0v-2.56s0-.08.03-.12h-.01Z"/>
  </g>
</svg>