<?xml version="1.0" encoding="UTF-8"?>
<svg id="Layer_2" data-name="Layer 2" xmlns="http://www.w3.org/2000/svg" viewBox="0 0 35.81 17.9">
  <defs>
    <style>
      .cls-1, .cls-2 {
        fill: #e11e26;
      }

      .cls-3 {
        fill: #fdc010;
      }

      .cls-4 {
        fill: #d17728;
      }

      .cls-2 {
        stroke: #fdc010;
        stroke-width: .9px;
      }

      .cls-5 {
        fill: #1172ba;
      }

      .cls-6 {
        fill: #3db54a;
      }
    </style>
  </defs>
  <g id="Layer_1-2" data-name="Layer 1">
    <g>
      <rect class="cls-2" x=".45" y=".45" width="34.91" height="17.01"/>
      <g>
        <path class="cls-4" d="M18.78,6.01c-.13.07-.2.05-.19.1,0,.05.12.09.12.09,0,0-.11.12-.2.18-.09.06-.19.09-.19.09,0,0-.04,0-.02.06.02.06.06.09.08.11.03.02.04.02.04.02,0,0-.16.17-.22.22-.07.05-.11.07-.16.09-.06.02-.03.12-.02.16.01.04.06.1.09.1.03,0,.04.03,0,.08-.03.04-.12.15-.16.22h0c-.04-.06-.13-.17-.16-.22-.04-.06-.03-.08,0-.08.03,0,.08-.06.09-.1.01-.04.04-.13-.02-.16-.06-.02-.09-.04-.16-.09-.07-.05-.22-.22-.22-.22,0,0,.02,0,.04-.02.03-.02.06-.05.08-.11.02-.06-.02-.06-.02-.06,0,0-.1-.04-.19-.09-.09-.06-.2-.18-.2-.18,0,0,.11-.04.12-.09,0-.05-.07-.04-.19-.1-.12-.07-.17-.16-.17-.16,0,0,.15-.05.22-.19.03-.05.03-.1.03-.14h0c.23.08.5.11.75.11s.51-.03.74-.11h0s0,.08.03.14c.07.15.22.19.22.19,0,0-.04.09-.17.16M17.09,4.8s-.1.01-.15,0c-.05-.02-.1-.03-.1-.03,0,0,.01-.01.03-.04.01-.02.01-.07,0-.13-.01-.07-.02-.14-.01-.18.01-.04,0-.08.08-.16.07-.08.19-.14.19-.14,0,0-.02.03-.04.08-.03.05-.1.2-.09.35.01.15.1.17.12.19.02.02.01.04-.02.07M17.54,4.09c.13-.12.22-.14.22-.14,0,.13-.03.23-.05.35-.02.14,0,.21.02.28.03.07.1.11.1.11,0,0-.02,0-.06.02-.04.02-.08.05-.14.05-.06,0-.09-.01-.13-.04-.04-.03-.09-.05-.09-.05,0,0,.02-.05.02-.11,0-.06-.04-.13-.04-.19s.03-.18.16-.29M18.16,4.58c.03-.07.04-.14.02-.28-.02-.12-.04-.22-.05-.35,0,0,.09.02.22.14.13.12.16.24.16.29s-.03.13-.04.19c0,.06.02.11.02.11,0,0-.05.02-.09.05-.04.03-.07.05-.13.04-.06,0-.1-.03-.14-.05-.04-.02-.06-.02-.06-.02,0,0,.07-.04.1-.11M18.81,4.19c-.03-.05-.04-.08-.04-.08,0,0,.12.06.19.14.07.08.07.12.08.16.01.04,0,.11-.01.18-.01.07-.01.11,0,.13.01.02.03.04.03.04,0,0-.05.01-.1.03-.05.02-.12.04-.15,0-.04-.03-.05-.05-.02-.07.02-.02.11-.04.12-.19.01-.15-.06-.29-.09-.35M16.25,11.05c-.06.11-.22.23-.34.28-.12.05-.25.07-.3.07-.05,0,0,.07,0,.07l.06.08s0,.02-.09.05c-.09.02-.19.04-.28.07-.09.02.02.1.07.12.05.03.04.06.01.08-.03.03-.13.08-.18.1-.05.02-.04.04,0,.06.05.02.19.05.19.05,0,0,0,0-.09.07-.09.06-.24.11-.33.11-.1,0-.26.01-.45,0-.2,0-.22-.01-.22-.01,0,0,0-.07-.02-.16-.01-.1-.07-.24-.12-.3-.05-.06-.14-.19-.14-.19,0,0,0-.03,0-.06,0-.03,0-.07-.02-.13-.02-.06-.14-.15-.14-.15,0,0,0-.06,0-.13s-.04-.3-.08-.41c-.04-.11-.22-.4-.3-.54-.08-.14-.13-.34-.16-.5-.03-.16-.02-.21,0-.25,0-.02.01-.04.02-.05.03.04.08.09.13.12.24.15.72.16.72.16,0,0-.05.02-.23.02-.17,0-.4-.06-.4-.06,0,0,0,.01,0,.05s.01.22.26.35c.25.13.53.04.53.04,0,0-.02.02-.09.05-.07.03-.27.07-.27.07,0,.16.14.24.24.28.18.06.38.02.49,0,.11-.02.05.01-.05.06-.1.04-.24.05-.24.05.02.11.25.21.33.23.21.05.37.02.43,0,.06-.02.05,0,.03.02-.04.04-.1.05-.1.11,0,.02,0,.08.32.1.32.02.42-.16.48-.21.06-.05.05-.02.04,0-.01.02-.07.08-.12.15-.05.07-.02.13.19.13.16,0,.26-.17.3-.26h0s0,.01,0,.02c-.02.05-.05.13-.09.2M13.29,9.32s-.1.06-.1.06c0,0-.04-.08-.05-.1-.01-.02,0-.03,0-.03s.05-.01.09-.02c0,0,0,0,.01,0,.01.03.02.06.04.1,0,0,0,0,0,0M21.97,8.76c.11-.03.49-.14.75-.36.27-.22.32-.39.34-.48.02-.09.03-.17-.04-.11-.07.05-.27.22-.41.29-.14.08-.27.11-.35.14-.08.02-.14.04-.06,0,.07-.03.31-.11.5-.3.18-.18.33-.46.33-.63,0-.17,0-.16-.06-.12-.05.04-.25.28-.36.37-.11.09-.29.21-.37.26-.09.05-.21.11-.04,0,.17-.12.5-.4.63-.76.13-.36.11-.57.11-.61,0-.04-.03-.11-.06-.04-.03.07-.25.5-.43.69-.18.19-.13.15-.17.18-.04.03-.11.09-.02-.02.09-.11.26-.35.35-.6.09-.24.12-.49.12-.63,0-.14-.06-.33-.09-.39-.03-.06-.05-.1-.06-.03,0,.07-.15.5-.22.71-.08.21-.23.45-.26.49-.03.05-.11.14-.02-.02.09-.16.25-.62.27-1.06.02-.44-.04-.68-.1-.8-.06-.12-.11-.16-.11-.16,0,0,.01.3-.08.73-.09.43-.22.66-.22.66,0,0-.06.06-.02-.04.03-.07.08-.22.1-.48.03-.27.03-.58-.05-.85-.09-.29-.24-.43-.24-.43-.04.41-.03.95-.18,1.38-.03-.03-.07-.07-.08.02-.03.14-.08.41-.27.75-.19.34-.26.38-.26.38,0,0-.03-.08-.06-.13-.02-.04-.04-.07-.07,0-.03.06-.13.3-.36.56-.23.26-.36.39-.35.59,0,.2.11.3.25.39.14.09.16.14.14.25-.02.11-.14.15-.25.15-.11,0-.24,0-.29.02-.05.03-.05.1-.1.15-.05.05-.07.08-.11.08-.02,0-.03,0-.04,0,0-.52.19-.75.19-.75l-.56-.66s-.06.03-.09.04c0,0,0-.02-.02-.02-.07-.1-.1-.18-.1-.3.03,0,.08.02.14.01.05-.01.01-.06,0-.11-.02-.05-.03-.22-.02-.28.01-.06.02-.09.02-.09,0,0,.08.09.13.09s.05-.05.05-.11c.01-.08.05-.19.12-.25,0,0,.09.06.19.06s.24-.03.35-.13c.11-.1.11-.13.11-.13,0,0,.2.07.36.08.16,0,.32-.02.4-.18.08-.16-.02-.31-.04-.34-.02-.03-.07-.05-.07,0s0,.17-.09.23c-.09.06-.17.06-.26.03-.09-.03-.21-.06-.36-.04-.13.02-.15.03-.15.03,0,0,.12-.13.24-.16.12-.04.19.01.22.06.04.05.07.12.1.01.03-.11.01-.23-.04-.31-.05-.08-.16-.13-.28-.12-.11.01-.16.03-.16.03,0,0-.06-.17-.21-.2-.18-.04-.38.03-.54.12,0,0-.12.03-.25,0-.08-.02-.16-.07-.21-.1.01-.05.04-.14.04-.14,0,0,.04-.01.07-.02.04-.01.03-.03.03-.06,0-.03-.07-.09-.07-.09,0,0-.01-.09.11-.16.12-.06.11-.05.11-.05,0,0,.07.01.1,0,.03-.02.03-.03.03-.03,0,0,.05-.02.07-.05.02-.03.02-.08,0-.12-.01-.04-.03-.05-.01-.06.02-.02.04-.06.04-.09,0-.03,0-.04,0-.04,0,0,.04-.01.04-.08,0-.06-.04-.09-.06-.09-.02,0-.03,0-.03,0,0,0,0-.04-.04-.09-.03-.05-.05-.07-.05-.07,0,0,.02-.02.01-.06-.01-.04-.04-.07-.07-.08-.03,0-.06,0-.06,0,0,0-.1-.06-.14-.08-.05-.02-.06-.03-.06-.03,0,0,0-.04-.02-.06-.02-.02-.05-.03-.07-.03s-.04.01-.04.01c0,0-.16-.04-.23-.05-.07-.01-.07-.02-.07-.02,0,0-.15-.07-.2-.08-.06-.01-.07-.02-.07-.02,0,0,.06-.07.06-.15,0-.08-.05-.16-.11-.19-.03-.02-.05-.02-.06-.03v-.06s.11.01.11.01v-.18s-.1.01-.1.01l.02-.11h-.22s.02.1.02.1h-.11s0,.17,0,.17h.11s-.01.05-.01.05c0,0-.04,0-.08.03-.06.03-.11.1-.1.18,0,.08.05.16.05.16,0,0-.01,0-.07.01-.06.01-.2.08-.2.08,0,0,0,0-.07.02-.07.01-.23.05-.23.05,0,0-.02-.01-.04-.01s-.06,0-.07.03c-.02.02-.02.06-.02.06,0,0-.01,0-.06.03-.05.02-.14.08-.14.08,0,0-.03,0-.06,0-.03,0-.06.03-.07.08-.01.04.01.06.01.06,0,0-.02.02-.05.07-.03.05-.04.09-.04.09,0,0-.01,0-.03,0-.02,0-.05.03-.06.09,0,.06.04.08.04.08,0,0,0,0,0,.04,0,.03.02.07.04.09.02.02,0,.03-.01.06-.01.04-.01.09,0,.12.02.03.07.05.07.05,0,0,0,.01.03.03.03.02.1,0,.1,0,0,0-.01-.01.11.05.12.06.11.16.11.16,0,0-.07.05-.07.09,0,.03,0,.04.03.06.04.01.07.02.07.02,0,0,.03.09.04.14-.05.03-.13.08-.21.1-.12.04-.25,0-.25,0-.16-.09-.35-.16-.54-.12-.15.03-.21.2-.21.2,0,0-.04-.02-.16-.03-.11-.01-.22.04-.28.12-.05.08-.07.2-.04.31.03.11.06.03.1-.01.04-.05.11-.09.22-.06.11.03.23.15.24.16,0,0-.02-.01-.15-.03-.14-.02-.27.02-.36.04-.09.03-.16.03-.26-.03-.09-.06-.09-.18-.09-.23s-.05-.03-.07,0c-.02.03-.12.18-.04.34.08.16.24.19.4.18.16,0,.36-.08.36-.08,0,0,0,.03.11.13.11.1.25.13.35.13s.19-.06.19-.06c.07.06.11.17.12.25,0,.06,0,.11.05.11s.13-.09.13-.09c0,0,0,.03.02.09.01.06,0,.23-.02.28-.02.05-.05.1,0,.11.05.01.11,0,.14-.01,0,.12-.02.2-.1.3,0,0-.01.02-.02.02-.03-.01-.06-.03-.08-.04l-.56.66s.2.23.19.76h0s-.02,0-.04,0c-.04,0-.07-.03-.11-.08-.05-.05-.05-.12-.1-.15-.05-.03-.18-.02-.29-.02-.11,0-.23-.04-.25-.15-.02-.11,0-.16.14-.25.14-.09.24-.19.25-.39,0-.2-.12-.32-.35-.59-.23-.26-.33-.5-.36-.56-.03-.06-.04-.04-.07,0-.02.04-.06.13-.06.13,0,0-.08-.04-.26-.38-.19-.34-.24-.6-.27-.75-.01-.1-.05-.05-.08-.02-.15-.43-.14-.96-.18-1.38,0,0-.15.15-.24.43-.08.26-.08.57-.05.85.02.26.08.41.1.48.04.1-.02.04-.02.04,0,0-.13-.23-.22-.66-.09-.43-.08-.73-.08-.73,0,0-.05.04-.11.16-.06.12-.12.36-.1.8.02.44.19.91.27,1.06.09.16,0,.06-.02.02-.03-.05-.18-.28-.26-.49-.08-.21-.22-.64-.22-.71,0-.07-.04-.02-.06.03-.03.06-.09.25-.09.39,0,.14.03.38.12.63.09.24.27.49.35.6.09.11.02.05-.02.02-.04-.03,0,0-.17-.18-.18-.19-.39-.63-.43-.69-.03-.07-.06,0-.06.04,0,.04-.03.25.11.61.13.36.46.64.63.76.17.12.05.06-.04,0-.09-.05-.26-.17-.37-.26-.11-.09-.3-.33-.36-.37-.05-.04-.07-.05-.06.12,0,.17.15.45.33.63.18.18.42.27.5.3.07.03.01.02-.06,0-.08-.02-.21-.06-.35-.14-.14-.08-.35-.24-.41-.29-.07-.05-.06.02-.04.11.02.09.07.27.34.48.27.22.64.33.75.36.11.03.03.03.03.03,0,0-.04,0-.26-.06-.22-.05-.55-.22-.64-.28-.09-.06-.1-.08-.09.04.01.12.14.37.34.49.2.12.57.18.66.18.09,0,.07.02.03.02-.04,0-.15,0-.32-.02-.14-.02-.35-.08-.42-.11,0-.03-.02-.06-.02-.08,0-.05-.03-.04-.05-.03-.02,0-.02.02-.07.04-.05.03-.05,0-.05-.02,0-.02-.01-.08-.01-.11,0-.03-.02-.04-.04-.03-.02.01-.14.06-.18.08-.04.02,0,.05.02.09.02.04.06.1.06.1,0,0-.11.03-.14.04-.03,0-.02.03-.02.06,0,.02.06.14.07.18.01.03.04.01.04.01l.11-.06.04.14s-.05.01-.1.05c-.05.04-.04.09.02.1.06.02.14.05.22.2.08.15.1.42.15.85.05.43.32.64.36.67.04.03.02.05.02.05,0,0-.04.05-.02.14.02.08.09.13.13.14.04.01.03.05.03.05,0,0-.02.09,0,.26.02.17.15.35.19.39.04.03.04.05.03.06,0,.01-.03,0-.07.04-.05.03-.1.08-.13.14-.03.06-.02.09-.01.17.01.08.13.15.13.15,0,0-.02,0-.03.06,0,.06.04.13.09.17.05.04.15.06.15.06,0,0,0,.05.01.09,0,.03.07.07.11.09.04.02.13.01.16,0,.03-.02.06,0,.08.04.02.03.01.17.01.22s-.03.11-.01.14c.02.03.07,0,.12-.02.05-.03.06,0,.11.02.05.03.12.06.14.05.02,0,.01-.05.01-.09s0-.13.03-.14c0,0,.09-.01.15-.04.03-.01.06-.02.07-.05,0-.03-.04-.03-.13-.07-.09-.05-.1-.07-.16-.11-.06-.04-.03-.05-.03-.07s.03-.03.04-.06c.01-.02,0-.07,0-.07,0,0,.05-.05.07-.07.02-.02.05-.06.08-.09.03-.02.07-.14.1-.18.03-.04.1-.08.14-.13.04-.05.15-.13.21-.17.06-.04.23-.12.23-.12,0,0,0,.1.04.15.04.05.1-.04.29-.17.19-.13.33-.18.33-.18,0,0,.04.06.09.13.05.06.1,0,.33-.32.18-.25.42-.49.52-.57.02,0,.03.02.05.02,0,.01,0,.03-.01.04-.02.07-.06.11-.1.2-.05.09-.11.11-.19.24-.08.13-.09.21-.1.34,0,.13.06.15.06.15,0,0-.12.11-.15.2-.03.09-.05.26-.05.26,0,0-.02,0-.06.1-.04.09-.12.1-.23.21-.11.11-.24.16-.3.19-.06.03-.04.07-.03.11.02.05.1.09.19.13.09.03.13.02.19.02.06,0,.01.05-.01.07-.03.03-.06.12-.06.22,0,.1.08.08.18.06.1-.02.21-.06.21-.06v.03s-.03.05-.03.13.01.12.04.14c.02.02.07-.02.11-.03.03-.01.09-.05.18-.06.09-.02.12-.06.12-.06,0,0-.02.03-.03.09,0,.06,0,.15.01.2.01.05.05.11.11.16.06.05.07.03.11-.04.04-.07.13-.15.13-.15,0,0,0,.02.06.21.06.19.25.35.25.35,0,0,.19-.16.25-.35.06-.19.06-.21.06-.21,0,0,.09.09.13.15.04.07.06.09.11.04.06-.05.1-.11.11-.16.01-.05.02-.14.01-.2,0-.06-.03-.09-.03-.09,0,0,.03.04.12.06.09.02.14.05.18.06.03.01.08.06.11.03.02-.02.04-.06.04-.14s0-.1-.02-.13v-.03s.1.05.2.06c.1.02.17.04.18-.06,0-.1-.03-.2-.06-.22-.03-.03-.08-.08-.01-.07.06,0,.1.02.19-.02.09-.03.17-.08.19-.13.02-.05.03-.08-.03-.11-.06-.03-.18-.08-.3-.19-.11-.11-.19-.13-.23-.21-.04-.09-.06-.1-.06-.1,0,0-.02-.17-.05-.26-.03-.09-.15-.2-.15-.2,0,0,.07-.03.06-.15,0-.13-.02-.21-.1-.34-.08-.13-.15-.15-.19-.24-.05-.09-.08-.14-.1-.2,0-.01,0-.03-.01-.04.02-.01.05-.02.07-.03.09.09.34.32.52.57.23.32.28.39.33.32.05-.06.09-.13.09-.13,0,0,.14.05.33.18.19.13.25.22.29.17.02-.03.03-.07.03-.1,0,0,.11.03.23.08.07.03.16.06.22.09.16.07.18.11.31.21.13.1.32.09.49.04.18-.05.65-.21.83-.29.19-.08.32-.15.34-.19.02-.04.04-.14.04-.18s-.04-.09-.06-.1c-.01,0,0-.04,0-.06,0-.02,0-.1-.04-.13-.03-.03-.03-.04-.02-.14,0-.19-.13-.44-.33-.52,0,0,0-.02-.02-.04-.02-.01-.04-.03-.04-.03,0,0,0-.11,0-.14,0-.02,0-.02.02-.01.01,0,.03.03.07.04.03,0,.05-.01.06-.05,0-.04.03-.11.04-.14.01-.04,0-.04-.02-.05-.01,0-.06,0-.08-.01-.02,0-.02,0-.02-.02,0-.01.01-.03.04-.08.03-.05,0-.05-.03-.06-.03,0-.15-.05-.19-.05-.03,0-.04.02-.04.04s0,.08,0,.1c0,.02-.02.02-.03.01-.01,0-.04-.03-.07-.04-.02-.02-.04,0-.05.03,0,.03-.04.14-.05.17,0,.03,0,.06,0,.06.01,0,.08,0,.11,0s.02.02.02.02c0,0-.04.06-.05.09-.01.03-.04.03-.07.03s-.08,0-.08,0c0,0-.2,0-.35.12-.15.11-.19.2-.21.26-.02.05-.05.04-.07.06-.02.02-.09.09-.09.13s.02.07-.05.11c-.07.04-.12.23-.03.32.09.1.12.19.15.24.03.05,0,.07-.02.07s-.07-.04-.11-.07c-.04-.03-.24-.19-.33-.25-.09-.07-.02-.06-.02-.06,0,0,.02,0,.07-.02.05-.02.06-.05,0-.06-.05-.02-.15-.07-.18-.1-.03-.03-.04-.06.01-.08.05-.03.16-.1.07-.12-.09-.02-.19-.04-.28-.07-.09-.02-.09-.05-.09-.05l.06-.08s.05-.06,0-.07c-.05,0-.18-.02-.3-.08-.23-.1-.38-.27-.44-.48h0c.04.08.15.24.3.25.21,0,.23-.06.19-.13-.05-.07-.1-.13-.12-.15-.01-.02-.02-.05.04,0s.16.23.48.21c.32-.02.32-.08.32-.1,0-.06-.06-.07-.1-.11-.02-.02-.03-.05.03-.02.06.02.22.05.43,0,.08-.02.31-.12.33-.23,0,0-.14,0-.24-.05-.1-.04-.16-.08-.05-.06.11.02.31.06.49,0,.11-.04.24-.12.24-.28,0,0-.2-.04-.27-.07-.07-.03-.09-.05-.09-.05,0,0,.28.09.53-.04.25-.13.26-.3.26-.35s0-.05,0-.05c0,0-.23.06-.4.06-.17,0-.23-.02-.23-.02,0,0,.48-.01.72-.16.24-.15.26-.44.26-.44,0,0-.27.1-.45.12-.17.02-.28.02-.32.02-.04,0-.07-.02.03-.02.09,0,.46-.07.66-.18.2-.12.33-.37.34-.49.01-.12,0-.1-.09-.04-.09.06-.42.23-.64.28-.22.05-.26.06-.26.06,0,0-.08,0,.03-.03"/>
        <path class="cls-1" d="M16.21,6.21s-.18-.09-.32-.1c-.14-.01-.25,0-.37.04-.08.02-.15.03-.22,0-.1-.03-.18-.12-.2-.23,0,0-.09.12,0,.25.05.06.1.1.17.11.2.04.39-.08.55-.09.16-.01.28.09.28.09,0,0,.04.03.09,0,.05-.03.07-.05.02-.08"/>
        <path class="cls-1" d="M20.79,5.94c-.03.11-.1.2-.2.23-.07.02-.13.01-.22,0-.12-.03-.22-.05-.37-.04-.14.01-.27.07-.32.1-.05.03-.03.05.02.08.05.03.09,0,.09,0,0,0,.12-.1.28-.09.16.01.36.13.55.09.06-.01.12-.05.17-.11.09-.13,0-.25,0-.25"/>
        <path class="cls-3" d="M19.53,8.83c0-.39.18-.64.18-.64l-.49-.56c-.47.18-.9.19-1.28,0-.38.19-.81.18-1.28,0l-.49.56s.18.25.18.64-.08.68-.12.87c-.04.19-.08.54.02.8.1.25.21.47.65.66.44.18.66.28.82.4.15.13.23.23.23.23,0,0,.08-.1.23-.23.15-.13.38-.22.82-.4.44-.18.54-.41.65-.66.1-.25.06-.61.02-.8-.04-.19-.12-.48-.12-.87"/>
        <path class="cls-3" d="M15.77,11.96s-.16.08-.21.09c-.05.01-.06.01-.06.01,0,0-.11.1-.19.15-.08.05-.18.08-.27.1-.12.01-.46,0-.62,0-.15,0-.25.03-.31.1-.07.07-.08.18,0,.26.08.08.18.04.21,0,.03-.05.02-.11,0-.14-.01-.03.03-.04.07-.04.04,0,.11,0,.18.01.07,0,.18.05.23.08.05.03.02.03-.01.03-.03,0-.07-.02-.14-.04-.06-.02-.11-.03-.15-.04-.04,0-.03.02-.02.03,0,.01.03.05.03.06,0,.02-.01.07-.01.07l.02.04s.02-.04.03-.06c0-.02,0-.06,0-.07,0-.02.04-.02.07.01.03.03.05.06.07.14.01.07-.01.13-.01.13,0,0,.03.03.04.04,0,.02,0,.09,0,.09,0,0,.02.01.04-.03.02-.04.04-.11.05-.14,0-.03.02-.07.05-.04.03.03.05.08.06.1,0,.02,0,.04,0,.04,0,0,.07-.07.09-.11.02-.04.07-.1.14-.15.07-.05.18-.16.24-.2.06-.04.2-.11.24-.14s.05-.03.06-.1c0-.08.04-.14.06-.2.02-.05.02-.07.02-.07"/>
        <path class="cls-3" d="M15.64,11.9s-.02,0-.05,0c-.03,0-.09-.02-.1-.03-.02,0-.04,0-.06,0-.02.02-.16.1-.16.1h.23c.08,0,.14-.08.14-.08"/>
        <path class="cls-3" d="M16.3,11.86v-.02l-.03-.07s-.04.02-.07.06c-.05.05-.09.11-.12.14-.04.05-.09.1-.05.02.05-.08.06-.11.1-.17.04-.05.07-.08.06-.08,0,0-.03,0-.13-.02-.1-.01-.16-.05-.2-.08-.05-.03-.13-.07-.13-.07,0,0-.17.07-.23.09-.06.02-.1.02-.04.05.06.03.11.04.14.06.03.02.12.05.18.05s.15,0,.11.04c-.04.04-.08.11-.12.23-.04.11-.04.22-.04.27s0,.1,0,.1c0,0,.07-.08.25-.19.18-.12.25-.15.29-.17.03-.02.05-.02.05-.06,0-.04-.02-.15-.02-.17"/>
        <path class="cls-3" d="M17.01,11.3s-.02-.01-.03-.02c0,0,0,0,0,0-.02.01-.13.09-.18.16-.05.07-.09.08-.04,0,.05-.08.09-.13.13-.16.01-.01.03-.02.04-.03-.09-.04-.19-.1-.28-.16-.01.02-.04.07-.06.1-.04.04-.13.08-.13.08,0,0,.07-.07.09-.13.02-.03.02-.07.03-.09-.07-.05-.13-.11-.19-.18-.01.05-.05.16-.16.28-.14.16-.43.24-.43.24,0,0-.1.01-.02.03.08.02.14.06.3.03.16-.03.17-.03.19-.04.02,0,.08,0,0,.03-.08.03-.27.06-.34.05-.07,0-.17-.02-.07.03.1.05.14.08.21.08s.09.02.15.02.08-.01.12-.02c.04,0,.07,0,.07.02s-.06.06-.06.18c0,.12.01.2.02.23.01.03.04.09.05.12.02.03.02.06.04,0,.02-.07.06-.17.07-.24.02-.07.02-.07.03-.1,0-.03.04-.06.03,0-.02.06-.04.14-.05.2-.01.06-.04.16,0,.08.05-.08.25-.3.28-.34.03-.04.06-.08.08-.11.02-.03.09-.08.12-.12.03-.04.11-.13.15-.16-.05-.02-.11-.05-.17-.07"/>
        <path class="cls-3" d="M13.23,9.12s-.03-.06-.03-.08c0-.02-.03,0-.03,0,0,0-.05.03-.09.04-.04.01-.04,0-.05-.02,0-.02-.01-.08-.02-.12,0-.04-.02-.04-.03-.03-.02,0-.06.02-.09.04-.03.01-.02.03-.01.05.01.02.05.09.06.12.02.03,0,.04-.02.05-.02,0-.05.01-.09.03-.04.01-.04.02-.03.03,0,.01.03.07.04.09.01.02.03,0,.03,0,0,0,.04-.04.08-.05.03-.02.04-.01.05.01,0,.03.05.16.06.19,0,.03.02.02.04.02.02,0,.04-.01.06-.02.02,0,.03-.05.03-.05,0,0-.08-.14-.1-.17-.02-.03,0-.04.02-.05.02,0,.06,0,.1-.02.04,0,.03-.03.03-.04"/>
        <path class="cls-3" d="M14.09,12.84s0-.07-.03-.09c-.03-.03-.06-.08-.07-.12-.01-.04,0-.06,0-.08,0-.02-.03-.02-.07,0-.03.03-.07.05-.07.12s.03.16.13.19c.1.03.1,0,.09-.03"/>
        <path class="cls-3" d="M14.2,12.81s-.02-.01-.03,0c0,.02,0,.03.02.07s.04.05.08.07c.03.02,0-.02,0-.03,0-.01,0-.03,0-.04,0,0-.01-.02-.01-.05,0-.03-.05-.03-.05-.03"/>
        <path class="cls-3" d="M14.32,13.16s.04-.04.08-.06c.05-.02.13-.03.16-.03.03,0,.09-.06.09-.12,0-.06-.05-.08-.09-.09-.04,0-.07,0-.08,0-.01.02-.03.04-.07.05-.04.01-.05.03-.07.03-.03,0,0,.02-.03.04-.02.02-.05,0-.08,0-.03,0-.03-.02-.07-.02-.04,0-.13,0-.13,0,0,0,0,0-.03,0s-.02,0-.03.03c0,.02,0,.08.03.11.02.03.1.04.15.06.05.02.08.02.12.03.04,0,.05,0,.07-.03"/>
        <path class="cls-3" d="M14.79,13.2s.02-.07,0-.1c0-.03-.07-.03-.09-.03s-.04,0-.06.01c-.02.01-.04.03-.08.05-.04.01-.08.03-.13.05-.06.02-.08.06-.1.08-.03.02-.07,0-.07,0,0,0-.03,0-.05,0-.01,0,0,.03.02.05.02.03.07.02.12.04.05.02.06,0,.08,0,.02-.01.03-.04.07-.06.03-.02.11-.03.15-.03.04,0,.1-.02.14-.04"/>
        <path class="cls-3" d="M14.79,13.03s.04.04.05.01c.02-.03.04-.08.02-.11-.02-.03-.04-.06-.04-.06,0,0-.03.09-.04.11-.01.02-.01.03,0,.04"/>
        <path class="cls-3" d="M14.64,12.76c0-.05-.03-.11-.03-.11,0,0-.01.05-.03.09-.02.04-.04.06-.04.06,0,0,.05.01.07.01s.04,0,.04-.05"/>
        <path class="cls-3" d="M14.35,12.86c.05-.01.08-.03.11-.05.02-.02.04-.07.02-.1-.02-.03-.05-.06-.07-.06h-.03s-.02.05-.04.08c-.02.03-.05.04-.04.08,0,.03,0,.07.05.06"/>
        <path class="cls-3" d="M14.46,12.62s0-.05-.03-.07c-.02-.02-.03-.03-.03-.03,0,0,0,.04,0,.06,0,.02,0,.03,0,.03,0,0,.02.02.03.02.01,0,.04.02.04,0"/>
        <path class="cls-3" d="M13.79,11.24s.06,0,.04-.23c-.03-.23-.15-.44-.24-.59-.09-.15-.19-.38-.23-.51-.04-.12-.07-.3-.07-.39s.04-.14.04-.14c0,0,.02-.02,0-.04-.02-.02-.04,0-.06.02-.02.02-.05.07-.06.1-.01.03-.01.04-.01.04,0,0-.05-.01-.13,0-.08,0-.11.01-.12.03,0,.02.01.03.07.05.06.02.09.03.12.07.03.03.1.2.12.28.02.08.07.3.09.47.02.17.08.38.16.55.03.06.17.33.29.27"/>
        <path class="cls-3" d="M13.93,11.64c-.05.03-.05.25-.03.36.02.11.13.25.17.29.03.04.04.04.06.03.02,0,.03,0,.03,0,0,0,.05-.02.08-.04.04-.03.02-.1.02-.16,0-.06-.05-.18-.14-.32-.09-.14-.13-.17-.18-.14"/>
        <path class="cls-3" d="M13.99,11.47c0-.07-.06-.12-.13-.12-.03,0-.06,0-.08.02-.07.06-.03.22.07.22.04,0,.08,0,.11-.03.02-.02.03-.06.03-.09"/>
        <path class="cls-3" d="M15.01,13.5s-.04-.02-.09-.04c-.04-.03-.11-.09-.12-.11-.01-.03-.01-.03-.05-.02-.04.01-.1.01-.14.01-.04,0,0,.05.03.09.03.04.02.2.02.2,0,0,0,.01,0,.03,0,.02,0,.04,0,.04.01,0,.02,0,.05-.04.03-.03.08-.13.08-.13,0,0,0,0,.05.01.05.01.12,0,.16,0,.04-.01.02-.04,0-.04"/>
        <path class="cls-3" d="M14.83,13.62s-.03,0-.04,0c0,.01-.02.04-.02.05,0,.01,0,.02,0,.03.01,0,.03.02.03.02,0,0,.02.02.03.03.02,0,.02-.02.02-.03s0-.05,0-.07-.02-.03-.04-.03"/>
        <path class="cls-3" d="M14.32,6.33c0,.12.14.35.21.47.07.12.1.17.08.18-.01,0-.04-.05-.09-.11-.04-.05-.12-.18-.19-.28-.07-.1-.17-.32-.18-.34-.01-.02-.02-.03-.05,0-.03.03-.1.28-.02.45.08.17.19.29.24.35.05.06.11.15.1.16-.01,0-.03-.02-.09-.08-.06-.06-.16-.17-.22-.25-.05-.06-.12-.19-.15-.24,0-.02-.02-.01-.03,0-.02.02-.06.07-.04.21.02.19.12.3.21.39.09.1.18.18.16.19-.01.01-.1-.07-.17-.13-.06-.06-.21-.21-.25-.25-.03-.04-.08-.02-.08.14,0,.16.18.33.26.42.07.09.17.14.16.16,0,.02-.08-.03-.13-.06-.05-.03-.23-.15-.27-.18-.04-.03-.05.02,0,.18.05.15.18.28.26.34.08.06.21.13.2.14,0,.02-.06,0-.14-.04-.07-.04-.17-.07-.23-.09-.06-.02-.06.03-.06.03,0,0-.01.13.08.24.1.11.2.15.31.17.1.02.12.02.12.04,0,.02-.01.02-.04.02s-.12.01-.21.01-.13.02-.13.06,0,.09.13.18c.13.09.28.1.34.11.06.01.06.02.05.04-.01.02-.04.02-.14.03-.1.01-.16.05-.17.07-.01.03,0,.1.09.16.08.05.18.07.34.06.15-.01.19-.01.2.01,0,.03-.05.03-.12.05-.08.01-.14.01-.18.05-.04.04-.01.11.06.17.07.05.26.05.34.05.08,0,.2-.03.2-.01,0,.02-.06.05-.14.08-.08.03-.1.05-.12.08-.02.03,0,.06.09.1.1.04.23.04.31,0,.07-.03.11-.05.12-.03.01.01,0,.03-.02.04-.02.02-.08.07-.16.09-.08.02-.09.02-.12.09-.03.06.04.12.19.12.14,0,.34-.05.4-.09.06-.04.09-.04.1-.03.01.01,0,.02-.02.04-.03.02-.13.09-.18.11-.05.01-.05.05-.05.08s-.01.1.12.13c.13.03.28,0,.42-.09.04-.03.07-.06.09-.08-.01-.13,0-.22.01-.31-.03,0-.08-.01-.13-.03-.08-.03-.11-.1-.13-.14-.02-.04-.04-.04-.07-.03-.03.01-.06.02-.11.02-.04,0-.14-.03-.2-.11-.07-.08-.05-.16-.06-.2,0-.04-.06-.01-.1-.01s-.12-.01-.2-.07c-.08-.06-.08-.13-.09-.17,0-.03-.04-.05-.07-.06-.03-.01-.07-.02-.12-.07-.06-.05-.08-.14-.08-.17,0-.03-.04-.03-.15-.09-.12-.06-.11-.18-.1-.23,0-.05.06-.09.06-.11s-.04-.02-.08-.05c-.04-.02-.14-.06-.14-.21,0-.14.09-.16.09-.16,0,0-.02,0-.06-.03-.04-.02-.14-.1-.14-.18s.04-.12.07-.14c.03-.02.11-.04.11-.04,0,0-.05-.03-.07-.1s-.03-.15.02-.21c.05-.06.13-.06.18-.06s.08.02.1.01c.02-.01.02-.02,0-.06-.02-.03-.02-.12,0-.14.01-.03.02-.09.13-.12.11-.04.23.04.26.06.04.02.02-.03.02-.06s-.07-.13-.16-.26c-.09-.13-.12-.2-.22-.39-.1-.2-.16-.45-.17-.51-.01-.06-.04-.03-.04-.03,0,0-.03.01-.09.16-.06.15-.07.29-.06.41"/>
        <path class="cls-3" d="M16.27,8.97c-.07,0-.15-.04-.22-.14-.07-.1-.17-.12-.34-.12-.17,0-.25-.08-.3-.2-.04-.12,0-.26.18-.34.18-.09.26-.18.26-.33,0-.15-.18-.34-.36-.55-.18-.21-.33-.51-.33-.51,0,0-.05.07-.05.14s.03.14,0,.16c-.03.02-.04-.03-.14-.08-.11-.05-.19-.05-.26.02-.07.08,0,.21.06.27.06.06.11.11.09.13-.02.02-.11-.04-.14-.06-.03-.02-.1-.1-.2-.09-.1,0-.14.04-.15.13,0,.09.09.16.16.2.07.03.09.06.08.08-.02.01-.03,0-.06,0-.03-.01-.11-.02-.17,0-.05.02-.14.09-.06.18.08.09.25.12.28.13.03,0,.05,0,.05.02,0,.03-.07.03-.16.03-.09,0-.12.09-.1.16.01.07.16.14.25.15.08.01.11,0,.12.02,0,.02,0,.03-.06.05-.05.01-.14.02-.15.1-.02.07-.02.11.05.17.07.06.18.05.22.05.03,0,.07-.04.11,0,.03.03-.03.06-.09.1-.06.04-.05.12.04.17.1.05.19.03.23.02.04-.01.09-.08.12-.04.03.04-.08.05-.13.11-.05.06-.03.15.06.21.09.06.25.02.27,0,.03-.02.06-.03.08-.01.02.02,0,.07-.03.12-.02.05-.06.18.08.24.14.05.27-.07.29-.09.02-.02.05-.03.07-.02.02.01.01.03,0,.05-.02.02-.05.12.05.19.07.05.14.04.18.04.02-.08.05-.16.08-.28,0,0-.06.05-.08.06-.02.01-.03.03-.04.02,0,0,.04-.03.05-.05.01-.01.04-.04.04-.05,0-.02,0-.03.03-.05,0,0,.01-.01.02-.02.02-.08.03-.17.05-.28,0-.07.02-.14.02-.21h-.04Z"/>
        <path class="cls-3" d="M13.43,6.89c.15.3.36.47.36.47,0,0-.03-.07-.04-.13-.01-.05,0-.11,0-.11,0,0-.05-.07-.15-.22-.1-.15-.15-.37-.15-.37,0,0,.09.22.16.34.07.12.15.21.15.21,0,0,.03-.1.05-.11.02,0,.04.01.05.03.02.02.03.02.03.02,0,0-.02-.05-.06-.11-.02-.03-.04-.06-.06-.08-.06-.09-.17-.25-.24-.42-.06-.17-.19-.58-.22-.71-.02-.12-.05-.06-.07.04-.02.09-.06.22-.03.41.02.19.07.43.22.73"/>
        <path class="cls-3" d="M13.62,7.71c.06.04.14.1.14.1,0,0-.01-.03-.02-.07,0-.04-.01-.11-.01-.11,0,0-.07-.06-.11-.1-.05-.04-.1-.09-.22-.23-.11-.14-.02-.06.07.04.09.1.27.25.27.25,0,0,0,0,0-.03,0-.03.01-.05.03-.07.02-.02,0-.02-.09-.1-.1-.08-.36-.36-.46-.54-.1-.17-.22-.41-.22-.41,0,0-.06.34.15.72.21.38.42.5.47.54"/>
        <path class="cls-3" d="M14.72,9.87c.11-.04.08-.16.08-.16s-.07.02-.14.05c-.06.02-.22.07-.29.07-.06,0-.06,0-.06-.02,0,0,.05,0,.14-.02.09-.02.25-.1.28-.12.03-.02.02-.02-.02-.03-.04,0-.08-.02-.09-.04-.01-.01-.06,0-.16.03-.1.02-.32.06-.48.06s-.32-.03-.34-.03c-.03,0-.05,0,.03.14.08.13.36.21.55.2.19,0,.39-.11.5-.15"/>
        <path class="cls-3" d="M14.21,9.6c.2,0,.28-.06.28-.06,0,0,0-.01-.03-.05-.03-.04-.02-.11-.02-.11,0,0-.05,0-.13.02-.08.01-.18.02-.29,0-.11-.02-.06-.03.02-.02.09.01.25-.02.3-.04.05-.02.03-.04,0-.05-.04-.01-.13-.07-.13-.07,0,0-.24.03-.47,0-.23-.03-.37-.08-.41-.09-.05,0-.04.01-.04.01,0,0-.01.02.07.14.08.12.23.2.36.24.13.04.31.06.51.06"/>
        <path class="cls-3" d="M14.15,9.13s0-.01-.02-.05c-.01-.04.02-.07.02-.07,0,0-.05-.01-.2-.03-.15-.02-.16-.03-.25-.05-.09-.02-.15-.05-.15-.06,0-.01.03,0,.09.03.05.02.28.04.38.06.1.01.15.02.17.01.02-.01.08-.03.08-.03,0,0-.04-.01-.09-.02-.05,0-.1-.03-.12-.05-.03-.02-.04-.02-.16-.04-.12-.01-.22-.05-.44-.13-.22-.08-.38-.18-.43-.21-.04-.04-.04-.01-.03.04.01.05.01.1.12.23.11.13.16.19.44.29.28.1.59.09.59.09"/>
        <path class="cls-3" d="M13.33,8.45c.25.17.54.24.6.25.01-.02-.01-.07,0-.11.02-.04.04-.04.1-.05.06,0,.02-.02,0-.02s-.02,0-.12-.03c-.1-.03-.2-.04-.33-.09-.14-.05-.18-.09-.17-.1,0-.01.06.03.19.08.13.05.27.07.35.08.08.02.01-.02-.03-.04-.04-.02-.09-.1-.09-.1,0,0-.09-.02-.23-.06-.14-.04-.27-.09-.39-.16-.04-.02-.08-.05-.12-.08-.08-.06-.17-.12-.2-.14-.05-.04-.03,0-.03.02,0,.02.04.12.12.24.08.11.1.15.35.32"/>
        <path class="cls-3" d="M13.29,7.96c.24.19.45.25.49.27.04.02.03,0,.03-.03,0-.02-.01-.09-.01-.09,0,0-.09-.05-.18-.11-.1-.06-.2-.13-.28-.18-.07-.05-.03-.05,0-.03.02.02.12.08.22.14.1.06.25.15.25.15,0,0,0-.03.02-.05.02-.02.07-.02.07-.02,0,0-.03-.03-.04-.05-.02-.02-.1-.05-.19-.09-.09-.04-.25-.16-.37-.26-.12-.1-.35-.35-.37-.37-.02-.02-.03-.02-.03,0,0,.03-.01.04.02.16.03.12.13.36.38.55"/>
        <path class="cls-3" d="M14.15,6.14c.03.06.06.1.08.14.03.06.05.09.05.09,0,0,0-.02,0-.05,0-.03-.01-.08,0-.14,0-.03.01-.06,0-.09,0-.03-.01-.06-.02-.07,0-.03-.04-.17-.06-.27-.02-.1-.04-.24-.03-.37,0-.13.02-.06.02,0s0,.15.03.3c.02.14.08.36.08.36,0,0,0-.03.02-.08.02-.05.05-.1.07-.16.02-.06.02-.07.02-.07,0,0-.09-.41-.11-.6-.02-.19-.06-.7-.06-.7-.12.13-.22.46-.23.77-.01.24.03.45.04.54.02.18.05.31.1.41"/>
        <path class="cls-3" d="M13.87,6.79c0-.09.03-.16.08-.18,0,0-.05-.09-.1-.22-.03-.09-.06-.21-.07-.3-.03-.22-.06-.44,0-.08.07.37.14.5.14.5l.09.15c-.01-.07-.02-.11-.01-.19,0-.07.01-.17.04-.25,0,0-.11-.23-.19-.5-.07-.27-.11-.52-.11-.67,0-.14,0-.2,0-.2,0,0-.12.09-.16.54-.04.45.08.88.14,1.04.06.16.15.37.15.37"/>
        <path class="cls-3" d="M15.15,10.2s-.02-.01-.07-.05c-.06-.04-.04-.14-.04-.14,0,0-.01.01-.06.04-.04.03-.09.06-.14.08-.06.02-.08.04-.12.05-.04.01-.03,0,0-.02.03-.02.04-.03.11-.06.07-.03.22-.16.22-.16,0,0-.04,0-.1,0-.06,0-.14-.03-.14-.03,0,0-.06.06-.31.16-.25.11-.46.13-.46.13,0,0,.03.13.14.17.1.04.23.07.5,0,.26-.06.45-.17.45-.17"/>
        <path class="cls-3" d="M15.48,10.45c.02-.1-.04-.18-.04-.18,0,0-.01,0-.05.04-.04.03-.09.1-.19.15s-.14.05-.04,0c.1-.05.25-.21.25-.21h-.04s-.11,0-.38.16c-.28.17-.44.17-.44.17,0,0,.12.15.46.14.34-.01.46-.17.48-.28"/>
        <path class="cls-3" d="M16.12,10.33s-.04.05-.09.09c-.05.03-.18.05-.18.05,0,0,0,.01-.03.05-.03.03-.08.11-.14.16-.06.04-.15.07-.16.06s.05-.03.11-.07c.06-.04.11-.1.15-.14.04-.04-.02-.04-.02-.04,0,0-.07,0-.14,0-.06,0-.05,0-.07.03-.02.03-.04.06-.09.12-.06.07-.11.13-.17.2-.04.04,0,.06,0,.06,0,0,.02.03.17.04.09.01.19,0,.3-.06.07-.04.13-.1.2-.17.18-.2.17-.36.17-.36"/>
        <path class="cls-3" d="M16.2,10.74s-.06.07-.06.07c0,0,.03-.08.05-.12.01-.02.02-.04.03-.05-.02-.06-.05-.12-.06-.18-.02.05-.07.21-.13.31-.08.12-.15.17-.1.2.04.03.13.04.23,0,.09-.05.12-.13.14-.19-.02-.03-.03-.05-.05-.08-.01,0-.03.02-.05.05"/>
        <path class="cls-3" d="M21.83,8.04c.08-.06.21-.18.26-.34.05-.16.03-.2,0-.18-.04.03-.22.14-.27.18-.05.03-.12.08-.13.06,0-.02.09-.07.16-.16.07-.09.26-.26.26-.42,0-.16-.05-.18-.08-.14-.03.04-.19.19-.25.25-.06.06-.15.14-.17.13-.01-.01.07-.09.16-.19.09-.1.19-.2.21-.39.01-.14-.02-.19-.04-.21,0,0-.02-.01-.03,0-.02.05-.1.17-.15.24-.06.08-.16.18-.22.25-.06.06-.08.09-.09.08-.01,0,.05-.1.1-.16.05-.06.17-.18.24-.35.08-.17.01-.42-.02-.45-.03-.03-.04-.01-.05,0-.01.02-.11.25-.18.34-.07.1-.15.22-.19.28-.04.05-.07.12-.09.11-.01,0,0-.06.08-.18.07-.12.21-.35.21-.47,0-.12,0-.26-.06-.41-.06-.15-.09-.16-.09-.16,0,0-.03-.03-.04.03-.01.06-.07.32-.17.51-.1.2-.13.26-.22.39-.09.13-.16.22-.16.26s-.02.09.02.06c.04-.02.15-.1.26-.06.11.04.11.09.13.12.01.03.01.11,0,.14-.02.03-.01.04,0,.06.02.01.05-.01.1-.01s.13,0,.18.06c.05.06.04.14.02.21-.02.07-.07.1-.07.1,0,0,.08.02.11.04.03.02.07.06.07.14s-.11.16-.14.18c-.04.02-.06.03-.06.03,0,0,.1.02.09.16,0,.14-.1.18-.14.21-.04.02-.08.03-.08.05s.05.06.06.11c0,.05.02.17-.1.23-.12.06-.15.06-.15.09,0,.03-.02.12-.08.17-.06.05-.1.06-.12.07-.03.01-.06.03-.07.06,0,.03,0,.11-.09.17-.08.06-.17.07-.2.07s-.09-.03-.1.01c0,.04.01.12-.06.2-.07.08-.16.1-.2.11-.04,0-.07-.01-.11-.02-.03-.01-.06-.01-.07.03-.02.04-.05.11-.13.14-.05.02-.1.03-.13.03.02.08.02.17.01.31.01.02.04.05.09.08.14.1.29.12.42.09.13-.03.12-.1.12-.13s0-.07-.05-.08c-.05-.01-.15-.08-.18-.11-.03-.02-.03-.03-.02-.04.01-.01.03,0,.1.03.06.04.26.09.4.09.14,0,.22-.06.19-.12-.03-.06-.04-.06-.12-.09-.08-.02-.14-.07-.16-.09-.02-.02-.03-.03-.02-.04.01-.01.05,0,.12.03.07.03.21.03.31,0,.1-.04.11-.07.09-.1-.02-.03-.04-.05-.12-.08-.08-.03-.14-.06-.14-.08,0-.02.13,0,.2.01.08,0,.26,0,.34-.05.07-.05.11-.13.06-.17-.04-.04-.1-.04-.18-.05-.08-.01-.13-.02-.12-.05,0-.03.04-.02.2-.01.15.01.26,0,.34-.06.08-.05.1-.13.09-.16-.01-.03-.07-.06-.17-.07-.1-.01-.13,0-.14-.03-.01-.02-.01-.02.05-.04.06-.01.21-.03.34-.11.13-.09.13-.14.13-.18s-.05-.06-.13-.06-.18-.01-.21-.01-.03,0-.04-.02c0-.02.01-.02.12-.04.1-.02.21-.06.31-.17.1-.11.08-.24.08-.24,0,0,0-.05-.06-.03-.06.02-.15.05-.23.09-.07.04-.13.06-.14.04,0-.02.12-.09.2-.14"/>
        <path class="cls-3" d="M21.5,7.69c-.05-.02-.14-.01-.17,0-.03,0-.05.02-.06,0-.02-.01,0-.04.08-.08.07-.03.17-.11.16-.2-.01-.09-.05-.12-.15-.13-.1,0-.17.07-.2.09-.03.02-.12.08-.14.06-.02-.02.03-.07.09-.13.06-.06.13-.2.06-.27-.07-.08-.15-.07-.26-.02-.11.05-.12.1-.14.08-.03-.02,0-.09,0-.16s-.05-.14-.05-.14c0,0-.14.3-.33.51-.18.21-.37.4-.36.55,0,.15.09.25.26.33.18.09.23.22.18.34-.04.12-.12.2-.3.2-.17,0-.27.02-.34.12-.07.1-.15.13-.22.14h-.04c0,.07,0,.14.02.21.01.11.03.2.05.28,0,0,.01.01.02.02.02.02.03.03.03.05,0,.02.03.04.04.05.01.01.06.04.05.05,0,0-.03,0-.04-.02-.02-.01-.04-.03-.06-.05l-.02-.02c.03.12.05.2.08.28.04,0,.11.01.18-.04.1-.07.06-.17.05-.19-.02-.02-.03-.04,0-.05.02,0,.04,0,.07.02.02.02.15.14.29.09.14-.05.1-.19.08-.24-.02-.05-.05-.1-.03-.12s.05-.01.08.01c.03.02.18.06.27,0,.09-.06.11-.15.06-.21-.05-.06-.16-.07-.13-.11.03-.04.08.02.12.04.04.01.14.03.23-.02.1-.05.1-.13.04-.17-.06-.04-.12-.07-.09-.1.03-.03.07,0,.11,0,.03,0,.15.02.22-.05.07-.06.07-.1.05-.17-.02-.07-.11-.08-.15-.1-.05-.01-.06-.02-.06-.05,0-.02.04,0,.12-.02.08-.01.23-.09.25-.15.01-.07-.01-.15-.1-.16-.09,0-.16,0-.16-.03,0-.03.02-.02.05-.02.03,0,.2-.04.28-.13.08-.09,0-.16-.06-.18"/>
        <path class="cls-3" d="M22.1,7.36s.21-.17.36-.47c.15-.3.2-.54.22-.73.02-.19-.01-.32-.03-.41-.02-.09-.05-.16-.07-.04-.02.12-.16.54-.22.71-.06.17-.18.33-.24.42-.02.03-.04.06-.06.08-.04.06-.06.11-.06.11,0,0,.01,0,.03-.02.02-.02.03-.04.05-.03.02,0,.05.11.05.11,0,0,.08-.1.15-.21.07-.12.16-.34.16-.34,0,0-.05.22-.15.37-.1.15-.15.22-.15.22,0,0,0,.06,0,.11-.01.05-.04.13-.04.13"/>
        <path class="cls-3" d="M22.89,6.44s-.11.23-.22.41c-.1.17-.36.46-.46.54-.1.08-.11.08-.09.1.02.02.03.04.03.07,0,.03,0,.03,0,.03,0,0,.18-.15.27-.25.09-.1.18-.18.07-.04-.11.14-.17.19-.21.23-.05.04-.11.1-.11.1,0,0,0,.07-.01.11,0,.04-.02.07-.02.07,0,0,.08-.06.14-.1.06-.04.26-.16.47-.54.21-.38.15-.72.15-.72"/>
        <path class="cls-3" d="M21.88,5.19c-.02-.31-.11-.64-.23-.77,0,0-.04.51-.06.7-.02.19-.11.6-.11.6,0,0,0,.01.02.07.02.06.05.11.07.16.02.05.02.08.02.08,0,0,.06-.22.08-.36.02-.14.03-.24.03-.3s.02-.12.02,0c0,.13-.02.27-.03.37-.02.1-.05.24-.06.27,0,.02-.01.04-.02.07,0,.03,0,.06,0,.09,0,.06,0,.1,0,.14,0,.03,0,.05,0,.05,0,0,.02-.04.05-.09.02-.04.05-.08.08-.14.05-.1.08-.23.1-.41.01-.09.05-.31.04-.54"/>
        <path class="cls-3" d="M22.17,6.42c.06-.16.18-.59.14-1.04-.04-.45-.16-.54-.16-.54,0,0,0,.06,0,.2,0,.15-.04.4-.11.67-.07.27-.19.5-.19.5.02.08.03.18.04.25,0,.07,0,.12-.01.19l.09-.15s.08-.13.14-.5c.07-.37.04-.14,0,.08-.01.09-.04.2-.07.3-.05.13-.1.22-.1.22.06.02.08.09.08.18,0,0,.09-.2.15-.37"/>
        <path class="cls-3" d="M22.25,9.68s-.18.03-.34.03-.38-.04-.48-.06c-.1-.02-.15-.04-.16-.03-.01.01-.05.03-.09.04-.04,0-.04,0-.02.03.03.02.19.1.28.12.09.02.14,0,.14.02,0,0,0,.02-.06.02-.06,0-.22-.05-.29-.07-.06-.02-.14-.05-.14-.05s-.03.12.08.16c.11.04.31.15.5.15.19,0,.47-.07.55-.2.08-.13.05-.15.03-.14"/>
        <path class="cls-3" d="M22.58,9.14s-.19.06-.41.09c-.23.03-.47,0-.47,0,0,0-.1.06-.13.07-.04.01-.06.03,0,.05.05.02.22.05.3.04.09-.01.13,0,.02.02-.11.02-.2,0-.29,0-.08-.01-.13-.02-.13-.02,0,0,0,.07-.02.11-.03.04-.03.05-.03.05,0,0,.07.06.28.06.2,0,.38-.03.51-.06.13-.04.28-.12.36-.24.08-.12.07-.14.07-.14,0,0,0-.02-.04-.01"/>
        <path class="cls-3" d="M22.86,8.48s-.21.13-.43.21c-.22.08-.32.12-.44.13-.12.01-.13.02-.16.04-.03.02-.07.04-.12.05-.05,0-.09.02-.09.02,0,0,.06.02.08.03.02.01.07,0,.17-.01.1-.01.33-.04.38-.06.05-.02.08-.04.08-.03,0,.01-.06.04-.15.06-.09.02-.1.03-.25.05-.15.02-.2.03-.2.03,0,0,.03.03.02.07-.01.04-.02.05-.02.05,0,0,.31.01.59-.09.28-.1.33-.16.44-.29.11-.13.11-.19.12-.23.01-.05.02-.07-.03-.04"/>
        <path class="cls-3" d="M23,7.88s-.12.08-.2.14c-.04.03-.08.06-.12.08-.12.07-.24.12-.39.16-.14.04-.23.06-.23.06,0,0-.05.08-.09.1-.04.02-.11.06-.03.04.08-.02.23-.04.35-.08.13-.05.19-.09.19-.08,0,.01-.04.05-.17.1-.14.05-.24.07-.33.09-.1.03-.1.03-.12.03s-.05.01,0,.02c.06,0,.09,0,.1.05.01.04-.02.09,0,.11.06,0,.35-.07.6-.25.25-.17.27-.21.35-.32.08-.11.11-.21.12-.24,0-.02.02-.05-.03-.02"/>
        <path class="cls-3" d="M22.08,8.04s.02.05.02.05c0,0,.15-.09.25-.15.1-.06.2-.12.22-.14.02-.02.06-.02,0,.03-.07.05-.18.13-.28.18-.1.06-.18.11-.18.11,0,0,0,.07-.01.09,0,.02-.01.04.03.03.04-.02.24-.07.49-.27.24-.19.35-.43.38-.55.03-.12.02-.13.02-.16,0-.03-.01-.03-.03,0-.02.02-.25.27-.37.37-.12.1-.28.22-.37.26-.09.04-.17.07-.19.09-.02.02-.04.05-.04.05,0,0,.05,0,.07.02"/>
        <path class="cls-3" d="M21.06,9.91s-.08.03-.14.03c-.06,0-.1,0-.1,0,0,0,.15.13.22.16.07.03.08.04.11.06.03.02.04.03,0,.02-.04-.01-.06-.03-.12-.05-.06-.02-.1-.05-.14-.08-.04-.03-.06-.04-.06-.04,0,0,.02.11-.04.14-.06.04-.07.05-.07.05,0,0,.18.11.45.17.26.06.4.04.5,0,.12-.04.14-.17.14-.17,0,0-.21-.03-.46-.13-.25-.11-.31-.16-.31-.16"/>
        <path class="cls-3" d="M20.53,10.24h-.04s.15.17.25.22c.1.05.06.06-.04,0-.1-.05-.16-.11-.19-.15-.04-.03-.05-.04-.05-.04,0,0-.06.07-.04.18.02.1.14.27.48.28.34.01.46-.14.46-.14,0,0-.16,0-.44-.17-.28-.17-.34-.19-.38-.18"/>
        <path class="cls-3" d="M20.43,10.63c-.05-.06-.07-.08-.09-.12-.02-.03,0-.04-.07-.03-.06,0-.14,0-.14,0,0,0-.06,0-.02.04.04.04.09.11.15.14.06.04.12.06.11.07,0,.01-.1-.02-.16-.06-.06-.04-.12-.12-.14-.16-.03-.03-.03-.05-.03-.05,0,0-.13-.02-.18-.05-.05-.03-.09-.09-.09-.09,0,0,0,.16.17.36.07.08.14.14.2.17.11.06.21.07.3.06.15-.02.17-.04.17-.04,0,0,.03-.01,0-.06-.06-.07-.11-.13-.17-.2"/>
        <path class="cls-3" d="M19.73,10.46c-.01.06-.04.12-.06.18,0,.01.02.03.03.05.02.04.05.12.05.12,0,0-.02-.02-.06-.07-.02-.03-.04-.04-.05-.05-.01.03-.03.05-.05.08.01.07.04.15.14.19.1.05.19.04.23,0,.04-.03-.02-.08-.1-.2-.06-.1-.12-.26-.13-.31"/>
        <path class="cls-3" d="M19.65,5.78s.03.06.07.06.07-.03.07-.06-.03-.06-.07-.06-.07.03-.07.06"/>
        <path class="cls-3" d="M18.88,5.74s.07.04.11.05c.13.04.27.01.38-.03.13-.07.25-.12.33-.13.07,0,.1.02.17.02.02,0,.04,0,.05-.02.01-.03,0-.09-.09-.15-.1-.05-.24-.05-.36-.01-.13.04-.2.09-.25.12-.05.04-.11.09-.12.08-.01-.01.03-.04.05-.06.02-.02.03-.03.03-.03-.14,0-.29-.04-.41-.12,0,0-.04.18.12.28"/>
        <path class="cls-3" d="M20.29,5.66c-.09-.04-.19-.04-.3,0-.11.04-.17.08-.17.08,0,0,.02.1-.05.14-.07.05-.14.02-.16-.03-.02-.05-.02-.07-.02-.07,0,0-.11.06-.26.09-.08.02-.24.03-.34,0,0,0-.09.09-.16.14-.07.05-.14.1-.14.1,0,0,0,.02.04.03.03.01.04.02.02.05-.02.03-.17.17-.24.22-.07.05-.16.08-.16.08,0,0,.03.06.08.08.04.02.05.05.03.08-.02.03-.18.21-.24.27-.07.06-.12.07-.15.08-.03,0-.08.04-.02.1.06.07.2.09.33.05.14-.04.27-.2.27-.2,0,0-.03.23-.03.34s.01.23.03.3c.02.06.04.1.04.1,0,0,.09-.05.16-.21.06-.16.08-.25.08-.3s0-.07.04-.05c.04.02.07.04.09.05.02,0,.03,0,.03,0,0,0-.03-.12-.03-.2s.03-.28.07-.31c.04-.03.04.01.05.03,0,.04.05.1.1.12.02-.13.05-.23.15-.35.02-.02.03-.05.1-.02.1.04.22.06.32.03.1-.04.17-.14.15-.15,0,0-.15.07-.26.03-.11-.04-.17-.07-.1-.14.07-.07.1-.08.23-.19.13-.11.24-.16.35-.15.12.02.14.09.15.1.01.01.06.05.06-.04s-.04-.22-.14-.27"/>
        <path class="cls-3" d="M19.05,7.54s-.06-.13-.06-.13c0,0,0,.02-.03.09-.02.07-.09.16-.09.16,0,0,.05-.01.12-.03.06-.02.1-.05.1-.05,0,0-.01,0-.03-.04"/>
        <path class="cls-3" d="M18.58,7.18s-.04.1-.12.18c-.08.08-.15.07-.15.07,0,0,0,0,.07-.05.06-.04.13-.17.13-.17-.07.04-.23.08-.31.06,0,0-.01.03-.03.08-.02.05-.08.15-.11.19-.03.04,0,.05,0,.05,0,0,.02.02.22.07.2.06.38.02.38.02,0,0,0-.02-.04-.15-.03-.14-.02-.36-.02-.36"/>
        <path class="cls-3" d="M16.1,5.78s.03.06.07.06.07-.03.07-.06-.03-.06-.07-.06-.07.03-.07.06"/>
        <path class="cls-3" d="M16.03,5.66c.06,0,.1-.03.17-.02.08,0,.19.06.33.13.11.05.24.07.38.03.04-.01.07-.03.11-.05.16-.09.12-.28.12-.28-.12.09-.27.13-.41.12,0,0,.01,0,.03.03.02.02.07.05.05.06-.01.01-.07-.05-.12-.08-.05-.04-.12-.09-.25-.12-.13-.04-.27-.04-.36.01-.1.05-.1.12-.09.15,0,.01.02.02.05.02"/>
        <path class="cls-3" d="M17.81,7s-.08-.02-.15-.08c-.07-.06-.22-.24-.24-.27-.02-.03-.01-.06.03-.08.04-.02.08-.08.08-.08,0,0-.1-.04-.16-.08-.07-.05-.22-.19-.24-.22-.02-.03-.01-.04.02-.05.03-.01.04-.03.04-.03,0,0-.07-.05-.14-.1-.07-.05-.16-.14-.16-.14-.1.04-.25.02-.34,0-.15-.03-.26-.09-.26-.09,0,0,0,.02-.02.07-.02.05-.09.07-.16.03-.07-.05-.05-.14-.05-.14,0,0-.06-.03-.17-.08-.11-.04-.21-.05-.3,0-.09.04-.14.17-.14.27s.05.06.06.04c.01-.01.03-.08.15-.1.12-.02.22.04.35.15.13.11.16.12.23.19.07.07.01.11-.1.14-.11.04-.26-.04-.26-.03-.02.01.05.11.15.15.1.04.22.01.32-.03.07-.03.08,0,.1.02.11.11.14.22.15.35.05-.02.09-.07.1-.12,0-.02.01-.07.05-.03.04.03.07.23.07.31s-.03.2-.03.2c0,0,.01,0,.03,0,.02,0,.05-.02.09-.05.04-.02.04,0,.04.05s.02.14.08.3c.06.16.16.21.16.21,0,0,.02-.03.04-.1.02-.06.03-.19.03-.3s-.03-.34-.03-.34c0,0,.13.16.27.2.14.04.27.02.33-.05.06-.07,0-.1-.02-.1"/>
        <path class="cls-3" d="M16.91,7.41s-.04.09-.06.13c-.02.03-.03.04-.03.04,0,0,.04.04.1.05.06.02.12.03.12.03,0,0-.07-.09-.09-.16-.02-.07-.03-.09-.03-.09"/>
        <path class="cls-3" d="M17.73,7.36c-.02-.05-.03-.08-.03-.08-.08.02-.24-.02-.31-.06,0,0,.06.13.13.17.06.04.07.05.07.05,0,0-.06.01-.15-.07-.08-.08-.12-.18-.12-.18,0,0,.02.22-.02.36-.03.14-.04.15-.04.15,0,0,.18.03.38-.02.2-.06.22-.07.22-.07,0,0,.02,0,0-.05-.03-.04-.09-.14-.11-.19"/>
        <path class="cls-3" d="M17.03,12.37s.12-.02.16-.06c.04-.05.05-.12.08-.16.03-.04.05-.07.05-.07,0,0,0,.07-.04.16-.04.09-.04.21-.03.26.02.1.08.12.12.11.03-.01.08-.06.12-.13.01-.02.02-.05.04-.08.03-.05.05-.13.06-.13.03,0,0,.06,0,.1-.02.08-.06.19-.06.26,0,.07,0,.2.08.2.07,0,.11-.06.15-.2.04-.14.05-.19.06-.19s.02.1.02.14c0,.01,0,.05,0,.09.01.08.03.17.06.19.03.03.06.03.06.03,0,0,.03,0,.06-.03.03-.03.06-.24.06-.28s0-.14.02-.14.03.05.06.19c.04.14.08.21.15.2.07,0,.08-.13.08-.2s-.04-.19-.06-.26c-.02-.08,0-.07.06.03.02.03.03.07.05.1.04.06.07.1.1.11.04.01.11,0,.12-.11.02-.1-.06-.4-.06-.4,0,0,0,0,.03.05.03.04.04.12.08.16.04.05.12.08.16.06.04-.01.05-.09.02-.23-.03-.14-.16-.22-.25-.33-.08-.1-.15-.29-.16-.31-.11.06-.21.12-.3.21-.19.19-.23.24-.23.24,0,0-.04-.05-.23-.24-.09-.09-.19-.16-.3-.21-.01.02-.09.2-.17.3-.04.05-.1.09-.14.14-.05.06-.08.13-.09.2-.03.14-.03.22.02.23"/>
        <path class="cls-3" d="M17.02,12.85c.05-.05.08-.07.08-.07,0,0,.04-.03.03.03,0,.06-.03.19-.02.25.01.06.02.1.09.06.07-.04.09-.07.12-.1.03-.03.07-.05.06,0,0,.05-.03.14-.02.25.01.11.07.13.14.03.07-.09.11-.18.14-.23.02-.05.06-.09.06,0,0,.18.04.45.25.52.2-.07.25-.34.25-.52,0-.09.04-.05.06,0,.02.05.06.13.14.23.07.09.13.08.14-.03.01-.11-.01-.19-.02-.25,0-.05.03-.04.06,0,.03.03.05.06.12.1.07.04.08,0,.09-.06.01-.06,0-.18-.02-.25,0-.06.03-.03.03-.03,0,0,.03.03.08.07.05.05.13.05.13.05,0,0,.04-.19-.05-.31-.08-.12-.11-.15-.11-.15,0,0-.05,0-.08-.02-.03-.01-.07-.04-.07-.04v.11s.1.09.12.12c.02.03.07.08,0,.03-.07-.05-.12-.09-.12-.09,0,0-.01.1-.04.12-.03.02-.07.03-.08.02h-.02s0,.03,0,.03c0,0,.06.11.07.16,0,.05,0,.04-.03-.02-.03-.06-.08-.14-.11-.18-.02-.04-.06-.07-.06-.02,0,.05-.02.15-.04.18-.02.03-.03.05-.03.05,0,0,.04.13.04.16,0,.02,0,.05-.02.02-.02-.03-.08-.16-.08-.16,0,0-.08,0-.1-.03-.02-.02-.06-.11-.06-.11,0,0-.03.11-.06.15-.03.04-.09.07-.09.07,0,0,0,.2,0,.23,0,.03,0,.05-.02.05s-.02-.02-.02-.05c0-.03,0-.23,0-.23,0,0-.06-.04-.09-.07-.03-.04-.06-.15-.06-.15,0,0-.04.09-.06.11-.02.02-.1.03-.1.03,0,0-.06.13-.08.16-.02.03-.02,0-.02-.02,0-.02.04-.16.04-.16,0,0-.01-.01-.03-.05-.02-.03-.04-.13-.04-.18,0-.05-.03-.02-.06.02-.02.04-.08.12-.11.18-.03.06-.04.06-.03.02,0-.05.07-.16.07-.16v-.04s-.02,0-.02,0c-.02,0-.06,0-.08-.02-.03-.02-.04-.12-.04-.12,0,0-.06.05-.12.09-.07.05-.02,0,0-.03.02-.03.12-.12.12-.12v-.11s-.03.03-.07.04c-.03.01-.08.02-.08.02,0,0-.03.04-.11.15-.08.12-.05.31-.05.31,0,0,.07,0,.13-.05"/>
        <path class="cls-3" d="M16.81,13.51s.09-.07.2-.14c.11-.07.15-.15.15-.15h-.04s-.04-.03-.04-.06c0-.03,0-.09,0-.16,0-.07-.01-.13-.01-.13,0,0-.05.04-.12.08-.07.04-.1.02-.1.02l-.02-.07s-.03.07-.07.14c-.04.08-.16.16-.25.22-.08.06-.18.13-.25.15-.07.02-.03.06-.03.06,0,0,.07.07.25.1.18.03.27-.04.31-.07"/>
        <path class="cls-3" d="M17.44,13.44c-.06,0-.1-.03-.12-.1,0-.05,0-.22,0-.22,0,0-.02.02-.05.05-.02.03-.08.04-.08.04,0,0,0,.02-.03.06-.02.04-.06.09-.12.13-.06.04-.13.08-.18.12-.05.04-.1.08-.16.12-.06.03-.12.09-.14.18-.02.09,0,.12.07.12.07,0,.08,0,.19-.03.12-.03.28-.16.4-.23.12-.08.21-.23.21-.23"/>
        <path class="cls-3" d="M17.75,13.54s-.05-.06-.07-.13c-.02-.07-.05-.21-.05-.21,0,0-.02.04-.06.13-.04.08-.11.1-.11.1,0,0,0,.04-.06.11-.06.07-.14.13-.22.18-.08.05-.19.12-.25.2-.06.08-.06.17-.04.21.03.04.07,0,.12-.03.06-.03.21-.05.43-.17.22-.12.29-.38.29-.38"/>
        <path class="cls-3" d="M17.85,14.03c.06-.09.07-.31.07-.31,0,0-.02-.01-.05-.04-.03-.02-.09-.11-.09-.11,0,0-.04.07-.07.14-.04.07-.06.09-.14.17-.08.07-.19.15-.24.23-.05.08-.02.24,0,.29.03.05.07.04.12,0,.05-.04.06-.06.14-.12.08-.07.19-.16.25-.25"/>
        <path class="cls-3" d="M19.62,13.42c-.07-.02-.16-.09-.25-.15-.08-.06-.2-.15-.25-.22-.04-.08-.07-.14-.07-.14l-.02.07s-.03.02-.1-.02c-.07-.04-.12-.08-.12-.08,0,0-.02.06-.01.13,0,.07,0,.13,0,.16,0,.03-.02.06-.04.06h-.04s.04.08.15.15c.11.07.15.11.2.14.05.03.13.1.31.07.18-.03.25-.1.25-.1,0,0,.04-.03-.03-.06"/>
        <path class="cls-3" d="M19.19,13.63c-.06-.03-.12-.08-.16-.12-.05-.04-.12-.08-.18-.12-.06-.04-.09-.09-.12-.13-.02-.04-.03-.06-.03-.06,0,0-.06,0-.08-.04-.02-.03-.05-.05-.05-.05,0,0,.01.17,0,.22-.01.07-.05.09-.12.1,0,0,.09.15.21.23.12.08.28.2.4.23.12.03.12.02.19.03.07,0,.09-.02.07-.12-.02-.09-.08-.15-.14-.18"/>
        <path class="cls-3" d="M18.69,13.72c-.08-.05-.16-.11-.22-.18-.06-.07-.06-.11-.06-.11,0,0-.07-.02-.11-.1-.04-.08-.06-.13-.06-.13,0,0-.03.14-.05.21-.02.07-.07.13-.07.13,0,0,.07.27.29.38.22.12.37.14.43.17.06.03.09.07.12.03.03-.04.02-.12-.04-.21-.06-.08-.17-.15-.25-.2"/>
        <path class="cls-3" d="M18.33,13.89c-.08-.07-.1-.1-.14-.17-.04-.07-.07-.14-.07-.14,0,0-.06.09-.09.11-.03.02-.05.04-.05.04,0,0,0,.22.07.31.06.09.17.18.25.25.08.07.09.08.14.12.05.04.09.06.12,0,.03-.05.06-.21,0-.29-.05-.08-.16-.15-.24-.23"/>
        <path class="cls-3" d="M18.02,14.14c-.05-.06-.07-.09-.07-.09,0,0-.02.03-.07.09-.05.06-.17.16-.17.16,0,0,.01.16.07.25.05.07.1.14.17.19.08-.05.12-.12.17-.19.06-.09.07-.25.07-.25,0,0-.12-.1-.17-.16"/>
        <path class="cls-5" d="M22.38,12.16s-.07-.03-.07-.03c0,0-.02,0-.04.03-.02.03-.08.07-.08.07,0,0-.09.02-.1.08-.01.06.03.08.07.07.04,0,.14-.03.19-.08.04-.05.05-.08.06-.1,0-.02.01-.03-.03-.04"/>
        <path class="cls-5" d="M22.51,11.68c-.03-.13-.12-.3-.28-.38,0,0-.06.22-.08.29-.02.07-.02.07.03.08.05.01.22.05.26.06.03,0,.09.04.07-.05"/>
        <path class="cls-5" d="M21.72,11.56s.03,0,.05-.06c.01-.05.08-.32.08-.32,0,0-.18,0-.33.07-.15.07-.22.21-.22.21,0,0,.04.02.14.04.1.02.23.06.27.06"/>
        <path class="cls-5" d="M21.32,11.92c-.06-.01-.09-.02-.09-.02,0,0,.04.15.1.23.06.08.14.12.27.13.13,0,.24-.07.25-.13.02-.06.04-.1.04-.1,0,0-.24-.03-.34-.06-.1-.02-.18-.04-.24-.06"/>
        <path class="cls-4" d="M19.38,8.99c-.06-.37.15-.7.15-.7l-.42-.49c-.32.18-.77.16-1.17-.02-.39.18-.84.2-1.17.02l-.42.49s.22.33.15.7c-.06.37-.19.97-.16,1.21.03.24.2.52.38.67.18.15.44.27.62.34.19.07.37.19.45.26.09.07.14.12.14.12,0,0,.06-.06.14-.12s.27-.19.45-.26c.19-.07.45-.19.62-.34.18-.15.35-.43.38-.67.03-.24-.1-.83-.16-1.21"/>
        <path class="cls-4" d="M18.52,6.87c-.06.07-.21.14-.21.14h0s.06,0,.12-.03c.06-.03.15-.11.17-.14.02-.03,0-.05,0-.05,0,0,0,.02-.07.09"/>
        <path class="cls-4" d="M18.78,7.01s-.02.32-.02.32c0,.01,0,.1-.03.11.01,0,.03,0,.04-.04,0-.05.06-.41.06-.41h-.03s-.03-.02-.03.02"/>
        <path class="cls-4" d="M19.25,6.3s-.09.06-.13.08c-.03.03-.06.03-.09.04-.03.02-.02-.06,0-.11.02-.06.08-.13.13-.18.05-.06,0-.04-.02-.02-.02.02-.08.08-.14.18-.06.1-.1.33-.1.33,0,0,.04-.02.08-.05.04-.03.08-.05.15-.1.07-.05.11-.09.15-.14.04-.04,0-.05-.04-.04"/>
        <path class="cls-4" d="M17.37,6.87c-.06-.07-.07-.09-.07-.09,0,0-.02.02,0,.05.02.03.11.11.17.14.06.03.12.04.12.04h0s-.15-.08-.21-.15"/>
        <path class="cls-4" d="M17.12,7.34s-.02-.28-.02-.32-.03-.03-.03-.03h-.03s.05.37.06.42c0,.04.03.04.04.04-.02-.01-.03-.1-.03-.11"/>
        <path class="cls-4" d="M16.75,6.12s-.07-.04-.02.02c.05.06.11.12.13.18.02.06.03.13,0,.11-.03-.02-.06-.02-.09-.04-.03-.03-.1-.08-.13-.08-.03,0-.07,0-.04.04.04.04.08.08.15.14.07.05.11.08.15.1.04.03.08.05.08.05,0,0-.03-.23-.1-.33-.06-.1-.12-.16-.14-.18"/>
        <path class="cls-4" d="M17.94,12.62s0-.02,0-.05c0-.03,0-.11.01-.16,0-.05-.01-.04-.02-.04-.01,0-.02.04-.02.06s0,.14,0,.16c0,.02,0,.03.01.03"/>
        <path class="cls-4" d="M18.76,12.2c.03.07.04.06.03,0-.01-.05-.03-.1-.06-.15-.03-.05-.11-.12-.11-.12,0,0,.02.05.05.09.03.04.07.12.1.18"/>
        <path class="cls-4" d="M18.45,12.26s.08.16.08.16c0,0-.03-.11-.05-.18-.02-.07-.06-.12-.06-.12,0,0,0,.04,0,.04,0,0,0,.05.02.1"/>
        <path class="cls-4" d="M18.21,12.46s.03.07.04.06c0,0-.02-.07-.02-.09,0-.02,0-.06-.03-.1-.02-.04-.03-.02-.03,0s.03.1.03.1c0,0,0,0,.01.03"/>
        <path class="cls-4" d="M17.14,12.2c.03-.07.07-.14.1-.18.03-.04.05-.09.05-.09,0,0-.08.07-.11.12-.03.05-.05.1-.06.15-.01.05,0,.06.03,0"/>
        <path class="cls-4" d="M17.44,12.26s.02-.07.02-.07c0,0,.01-.04,0-.04,0,0-.04.03-.06.1-.02.07-.06.17-.05.18,0,0,.07-.12.08-.16"/>
        <path class="cls-4" d="M17.69,12.46s.01-.03.01-.03c0,0,.02-.08.02-.1s0-.04-.03,0c-.02.04-.02.08-.03.1,0,.02-.03.08-.02.09,0,0,.02-.03.04-.06"/>
        <path class="cls-4" d="M16.93,13.2l-.03-.02s-.02.03-.05.06c-.03.03-.06.04-.08.07-.02.03-.05.06-.1.09-.05.03-.07.03-.06.04,0,0,.04-.01.04-.01,0,0,.01,0,.07-.04.06-.04.07-.06.11-.09.04-.03.09-.1.09-.1"/>
        <path class="cls-4" d="M17.2,13.51s.05-.04.03-.05c-.01-.01-.03-.01-.05,0-.02.02-.08.07-.11.1-.03.02-.05.04-.08.06-.03.02-.09.05-.12.07-.03.02,0,.02,0,.02,0,0,.02-.01.05-.02.02,0,.09-.04.09-.04,0,0,.03-.01.06-.04.04-.03.09-.08.12-.1"/>
        <path class="cls-4" d="M17.5,13.72s0-.03-.03-.01c-.03.01-.11.09-.15.12-.04.03-.08.04-.11.06-.04.02-.04.03-.03.04,0,0,.02,0,.03,0,.01,0,.06-.04.06-.04,0,0,.02,0,.04,0,.02,0,.05-.02.09-.06.04-.04.08-.06.1-.1"/>
        <path class="cls-4" d="M17.64,13.99c-.05.03-.15.11-.17.15-.02.05-.04.08-.03.09,0,0,.03,0,.05-.03.01-.02.04-.05.04-.05,0,0,.09-.09.13-.11.03-.02.09-.08.1-.12.01-.04,0-.06,0-.06,0,0-.06.08-.11.12"/>
        <path class="cls-4" d="M19.22,13.39c-.05-.03-.08-.06-.1-.09-.02-.03-.05-.04-.08-.07-.03-.03-.05-.06-.05-.06l-.03.02s.05.06.09.1c.04.03.05.05.11.09.06.04.07.04.07.04,0,0,.03.02.04.01,0,0,0-.02-.06-.04"/>
        <path class="cls-4" d="M19.02,13.69s-.09-.05-.12-.07c-.03-.02-.05-.04-.08-.06-.03-.02-.09-.08-.11-.1-.02-.02-.04-.02-.05,0-.01.01.01.03.03.05.02.02.08.08.12.1.04.03.06.04.06.04,0,0,.07.03.09.04.02,0,.05.02.05.02,0,0,.03,0,0-.02"/>
        <path class="cls-4" d="M18.69,13.88s-.07-.03-.11-.06c-.04-.03-.12-.11-.15-.12-.03-.01-.05-.02-.03.01.02.04.06.06.1.1.04.04.07.06.09.06.02,0,.04,0,.04,0,0,0,.05.03.06.04.01,0,.03,0,.03,0,0,0,0-.02-.03-.04"/>
        <path class="cls-4" d="M18.25,13.99c-.05-.03-.11-.12-.11-.12,0,0,0,.02,0,.06.01.04.07.1.1.12.03.02.13.11.13.11,0,0,.02.03.04.05.01.02.04.04.05.03,0,0,0-.04-.03-.09-.02-.05-.12-.12-.17-.15"/>
        <path class="cls-4" d="M17.92,14.33s0,.13.02.13.02-.09.02-.13c0-.04,0-.13,0-.13h-.06s0,.09,0,.13"/>
        <path class="cls-5" d="M19.34,9.03c-.06-.4.12-.73.12-.73l-.38-.42c-.32.16-.71.12-1.14-.03-.42.15-.81.19-1.14.03l-.38.42s.18.33.12.73c-.06.4-.15.86-.14,1.13,0,.02,0,.04,0,.06h.35s.02-.02.06-.04c.04-.02.05-.03.05-.03,0,0,0-.07.05-.08.04-.01.06-.01.08-.01s.03,0,.05-.02c.02-.02.08-.07.1-.14.02-.07.04-.1.04-.14s.02-.12.02-.12c0,0,0-.02-.04,0-.03.01-.04-.02-.04-.06,0-.03,0-.11.02-.14.02-.03.03-.04.03-.04v-.06s-.23.04-.27-.13c-.04-.17-.05-.25-.05-.27,0-.02-.01-.03-.04-.03-.03,0-.09-.02-.14-.11-.04-.09-.05-.12-.03-.16.01-.03.04-.02.04-.01,0,.01.07.1.09.07.02-.02.01-.02-.02-.09-.03-.07-.02-.09-.02-.12,0-.03-.01-.08-.01-.1s.02-.03.04-.02c.02,0,.04.02.05.03,0,.01.01.03.03.02.02-.01,0-.07,0-.09s.02-.03.05-.02c.03.02.04.05.04.07s0,.04.01.04.02-.03.03-.06c0-.02.01-.06.03-.03.02.03.03.07.02.11,0,.04,0,.02,0,.09-.01.07-.02.11-.02.16,0,.06,0,.09.03.15.03.07.05.15.1.15.05,0,.07,0,.07,0,0,0,.06-.11.1-.14.04-.03.11-.03.15-.03.04,0,.06-.02.06-.03s-.01-.01-.07-.02c-.05,0-.1-.02-.1-.06,0-.04,0-.08-.03-.08-.03,0-.12-.03-.15-.09-.03-.06-.02-.07-.02-.1,0-.03.04-.09.07-.03.03.06.04.07.06.08.02.01.05.02.04-.02-.01-.04-.02-.07-.02-.1,0-.03.02-.04.05-.05.02,0,.1-.03.13-.03.04,0,.04-.01.04-.01,0,0,0-.03.05-.04.05-.01.08-.02.11-.02s.06,0,.11-.02c.05-.02.08-.03.11-.02.03,0,.05.01.07.03.02.01.01.03.01.06s0,.03.03.03.06,0,.09.01c.03.01.07.03.04.06-.03.03-.03.07-.04.06-.02,0-.01.02-.02.03,0,.01-.01.02,0,.03.02.01.02.02.05.05.03.02.06.05.03.09-.04.04-.11.07-.11.07,0,0-.04.02,0,.04.04.03.06.08.08.09.02,0,.03.02.04.03.01,0,0,.04,0,.04,0,0-.02.02-.06.03-.03.01-.07.03-.1.03s-.05,0-.03.03c.01.03.03.06.04.08,0,.02.01.05.01.05,0,0,.05.01.1.01s.07,0,.17,0c.1-.01.13-.01.23,0,.1.01.11,0,.14.02.03,0,.05.02.05.02,0,0,.14,0,.21-.02.08-.02.09-.06.08-.09-.01-.03,0-.06-.14-.08-.13-.02-.18-.01-.29-.03-.1-.02-.27-.07-.3-.2-.03-.13.08-.19.13-.21.05-.03.17-.07.22-.09.05-.02.15-.04.25-.03.1.01.16.04.2.02.04-.02.07,0,.07.03,0,.04-.05.11-.16.15-.12.03-.25.04-.33.02-.08-.02-.13-.05-.18-.03-.05.02-.1.07-.05.14.05.07.3.09.37.1.07,0,.32-.01.39.11.07.12.01.26-.07.3-.08.03-.16.05-.22.06h-.06s.03.08.03.1,0,.08.03.1c.03.02.08.03.13.03.05,0,.12.03.12.08,0,.05.02.11.02.21,0,.1,0,.17,0,.17,0,0,0,.04-.02.07-.01.03-.08.17-.08.17h.37s0-.04,0-.06c.02-.27-.08-.73-.14-1.13"/>
        <path class="cls-6" d="M16.47,10.4c.07.21.22.42.45.55.32.19.45.16.75.36.3.19.28.23.28.23s-.01-.03.28-.23c.3-.19.43-.17.75-.36.23-.14.38-.35.45-.55h-2.96Z"/>
        <path class="cls-3" d="M16.72,8.81s.06.05.11.04c.05,0,.06.03.07.07,0,.04,0,.14.05.23.04.09.16.09.16.09,0-.04.02-.1.04-.15,0,0,.02-.05-.02-.05s-.04-.02-.07-.06c-.03-.04-.08-.16-.09-.23-.01-.07.01-.18.02-.22.01-.04.01-.07,0-.07-.01,0-.04,0-.04,0,0,0,.01.03,0,.04-.01,0-.02-.02-.03-.04,0-.02-.02-.02-.04-.02-.02,0-.02.02,0,.04.01.02,0,.05,0,.05,0,0-.04-.03-.06-.04-.02,0-.05,0-.06.03,0,.02.01.08.05.11.03.03.03.09.02.11-.01.03-.06.02-.07.01-.01-.01-.03-.02-.05,0-.01.02-.03.02,0,.06"/>
        <path class="cls-3" d="M16.71,8.71s-.02-.02-.03-.02c0,0-.02-.03-.02-.03,0,0,0,0,0,.03s.02.04.02.04l.03-.02Z"/>
        <path class="cls-3" d="M16.78,8.47s.03-.01.02-.03c-.01-.02-.02-.04-.04-.04-.01,0-.02,0-.02,0,0,0,.01.03.02.05,0,.02,0,.03.02.02"/>
        <path class="cls-3" d="M16.87,8.39s0,.02.02.02c.01,0,.02-.03.01-.04,0-.01-.02-.02-.02-.02h-.01s0,.03,0,.05"/>
        <path class="cls-3" d="M17.01,8.41s0-.04,0-.04c0,0,0,.02,0,.03,0,.01,0,0,0,.02,0,.01.01,0,.01-.02"/>
        <path class="cls-3" d="M17.22,9.32c.03.06.09-.03.15-.11.06-.08.06-.02.05.04,0,.06.02.13.04.17.02.04.04.02.05-.01.01-.03.02-.09.04-.12.02-.03.04,0,.04.02,0,.03.03.08.06.12.03.03.04-.01.05-.05.01-.04.02-.11.03-.13,0-.03.04,0,.04,0,0,0,.02.02.06.06.04.04.04-.02.05-.05,0-.03,0-.1,0-.11.01-.01.05.01.1.04.05.03.05-.02.04-.05,0-.03-.04-.09-.08-.13-.04-.04-.05-.08-.03-.1.01-.02.06,0,.1,0,.03,0,.05,0,.07-.01.02,0,.02-.03.02-.03,0,0-.02-.03-.05-.06-.03-.03-.05-.05-.1-.06-.04-.01-.1,0-.1,0h0s-.02-.02-.03-.01c0,.01-.03.03-.04.04-.02.01-.03.02-.04.02-.01,0,0-.02,0-.02,0,0,.02-.02.04-.06.02-.04.03-.08.01-.1-.02-.02-.06,0-.08,0s-.04,0-.04,0c0-.01.02,0,.05-.01.03,0,.05-.04.06-.07.01-.03.02-.03.04,0,.02.02.03.01.04,0,0-.01.02-.04.04-.07.02-.03.03-.07.01-.1-.02-.03-.08-.02-.1,0-.02.02-.04.04-.04.08,0,.04-.02.02-.02,0s-.02-.04-.01-.05c0-.02,0-.04,0-.04,0,0,0-.04-.05-.05-.04,0-.09,0-.13.01-.04.01-.03.05-.03.05,0,0-.03,0-.07,0-.03,0-.07.02-.11.03-.03,0-.04.01-.04.03s0,.04,0,.04c0,0,.03,0,.04,0,.01,0,0,.02-.01.03-.02,0-.02,0-.02.03s0,.02.02.02.05,0,.09.02c.04.02.05.05.05.07,0,.02-.06.05-.09.05s-.04,0-.04.02.03.02.03.02c0,0,.03,0,.1,0,.07,0,.08.02.11.05.03.03,0,.03,0,.04-.01,0-.04.03-.06.03-.02,0-.04.02-.06.03-.02,0-.07,0-.16.04-.09.04-.12.16-.12.16,0,0,.01,0,.05-.03.04-.02.09-.05.14-.08.05-.03.05.01.02.06-.02.04.02.03.04.02.01-.01.03-.02.08-.05.05-.02.03.01.03.01,0,0-.01.03-.02.1,0,.07.07,0,.1-.04.03-.04.05,0,.02.05-.02.05-.07.09-.1.09s-.05-.03-.05-.04c0-.02,0-.06,0-.08-.02-.01-.06,0-.1.02-.03.02-.04,0-.05-.01,0-.02.01-.02,0-.04,0-.01-.03,0-.04,0-.01,0-.05.02-.11.06-.06.03-.06.05-.06.1s.01.05.04.12"/>
        <path class="cls-3" d="M17.82,8.31s.04-.02.04-.02c0,0,.03,0,.06-.01.03,0,.02-.02.02-.03,0-.01-.02-.02-.05-.02s-.06.02-.08.03c-.02,0-.04.01-.04.01,0,0,0,0,.02.03.01.02.03.02.05.01"/>
        <path class="cls-3" d="M17.97,8.45s.03,0,.03,0c0,0,.03-.01.05-.02.02,0,.03-.01.05-.04.01-.03-.02-.03-.06-.04-.04-.01-.06,0-.07.02,0,.02,0,.03-.02.06-.02.03,0,.03.02.03"/>
        <path class="cls-3" d="M17.95,8.49s-.09.06-.1.07c-.02.01,0,.02,0,.02,0,0,.01.02.02.05,0,.02,0,.06,0,.06,0,0,0,0,.03,0s.04-.01.06-.03c.02-.02.04-.02.07-.03.03,0,.05-.01.08-.03.04-.02-.02-.05-.06-.08-.04-.03-.06-.04-.1-.04"/>
        <path class="cls-3" d="M17.41,8.63s.05-.02.05-.04-.02-.04-.06-.03c-.1,0-.2-.03-.22-.13,0,0-.03.06.03.13.06.07.17.07.2.07"/>
        <path class="cls-3" d="M17.07,10.2s.01.01.02.02h.15s.03-.03.03-.05c0-.02.02-.08.04-.18.02-.1.06-.18.07-.22s-.02-.05-.03-.08c-.01-.03-.03-.07-.03-.09,0-.02-.04-.02-.06-.02-.02,0-.02.03-.03.06,0,.03-.02.12-.03.2-.02.08-.1.18-.13.2-.02.02-.04.03-.06.03s-.05,0-.07.01c-.02.01-.04.04-.04.06,0,.02.03.04.03.04,0,0,.03-.02.04-.03.01-.01.03-.02.06-.02.02,0,.03,0,.02.02,0,.01,0,.02.01.05"/>
        <path class="cls-3" d="M16.84,10.2s-.02.02-.03.03h.1s0-.02,0-.03c-.01-.02-.04,0-.07,0"/>
        <path class="cls-3" d="M16.97,10.19s-.03.02-.03.03h.11s0-.02,0-.03c-.02-.02-.05,0-.07,0"/>
        <path class="cls-3" d="M17.91,10.15s-.02.01-.04.02c-.02.01-.02.03-.02.04,0,0,0,0,0,0h.05s0,0,0,0c0-.01,0-.02.02-.04.02-.02,0-.02-.01-.02"/>
        <path class="cls-3" d="M18,10.2s0-.03-.02-.03c-.01,0-.03.02-.04.03,0,0-.01.01-.02.02h.07s0-.02,0-.02"/>
        <path class="cls-3" d="M18.42,9.7s.03-.03.03-.05c0-.02,0-.03-.01-.04-.01,0-.06-.03-.11-.03s-.13.01-.16.03c-.03.02-.05.1-.05.14s0,.05.02.05.03-.03.03-.03c0,0,.04.06.07.1.03.04.01.05,0,.08-.01.03-.05.11-.09.13-.03.02-.06,0-.1,0-.04,0-.06,0-.09.03-.02.02,0,.04.01.04s.03,0,.05.02c.01.01,0,.04,0,.06h.2s.06-.06.07-.09c.01-.03.05-.07.07-.09.02-.02.02-.03.02-.08s-.01-.07-.03-.1c-.02-.03-.03-.07-.02-.1,0-.02.05-.05.08-.08"/>
        <path class="cls-3" d="M18.09,9.2s.01.04-.02.04c-.03,0-.06.01-.1,0-.04,0-.04,0-.04.02,0,.02,0,.07-.03.1-.03.03-.06.02-.08,0-.02-.01-.03-.01-.04.01s-.02.04-.04.08c-.02.04-.03.04-.05.03-.01,0-.03-.03-.04-.03-.01,0-.04-.03-.06-.07-.02-.04-.03,0-.05.03-.02.03-.03.05-.06.05-.03,0-.06-.06-.08-.09-.02-.03-.03-.06-.05-.06-.02,0-.07.05-.09.07-.03.01-.03,0-.05,0-.01-.02-.03,0-.04.05-.02.04,0,.08.02.09.02.01.07-.02.1-.04.03-.02.04-.01.07-.01s.03.05.04.13c.01.07.06.08.06.08,0,0,.01.01.05-.04.03-.06.04-.11.07-.11s.03,0,.07.05c.03.04.06.08.08.04.02-.03.03-.08.06-.1.02-.02.04-.02.02,0-.02.03-.03.07.01.05.05-.01.22-.08.29-.1,0,0,.08-.01.18-.02.1,0,.12-.01.16-.01s.04,0,.04-.03c0-.02-.02-.02-.09-.02s-.12,0-.17.02c-.05,0-.07,0-.06,0,0-.01.02-.02.08-.03.06,0,.17-.02.23-.02.06,0,.04.02.04.06,0,.04,0,.1,0,.14,0,.04,0,.05.04.1.03.05.14.08.18.1.03.02.03,0,.03-.03,0-.03.02-.03.05-.01.03.02.08.03.11.04.03,0,.04.01.04.03s0,.06,0,.09c0,.04,0,.05-.01.07-.01.02-.08.09-.08.09,0,0-.03,0-.09.02-.06.01-.08.04-.09.07,0,.02.01.03.01.04,0,0,0,.02,0,.03h.01s.01-.02.02-.03c.02-.03.07-.03.11-.02.02.01.02.03.02.05h.14s.06-.12.08-.15c.01-.03.02-.05.02-.1,0-.05,0-.22,0-.23,0-.01,0-.04,0-.09,0-.05,0-.09-.09-.1-.09,0-.12-.05-.15-.08-.03-.03-.02-.1-.05-.19-.02-.09-.09-.1-.19-.12-.11-.02-.19-.02-.27-.02-.08,0-.18.02-.24.01-.06,0-.05.01-.03.04"/>
        <path class="cls-3" d="M18.61,10.2s-.02.01-.02.02h.09s0-.02,0-.03c-.01-.02-.04,0-.07,0"/>
        <path class="cls-3" d="M18.78,10.2s-.03.02-.03.03h.1s0,0,0-.01c0-.02-.03-.03-.06-.02"/>
        <path class="cls-3" d="M16.43,10.26s.01.06.02.09h2.99s.02-.06.02-.09h-3.04Z"/>
        <path class="cls-3" d="M18.45,8.83c.09.06.39.07.54.09.14.03.13.14.09.19-.04.06-.24.06-.28.07.02.01.05.05.05.05,0,0,.02,0,.08,0,.06,0,.16-.02.24-.08.07-.06.07-.16,0-.22-.06-.06-.17-.07-.27-.08-.11-.01-.19-.02-.31-.04-.12-.02-.18-.07-.18-.14s.06-.11.11-.12c.05-.01.12-.03.19,0,.07.02.14.03.28.01.13-.02.16-.11.16-.11,0,0-.02,0-.08,0-.07,0-.11-.03-.24-.03-.12,0-.16.04-.22.06-.06.02-.21.03-.25.13-.04.1,0,.14.1.21"/>
        <path class="cls-4" d="M17.66,8.32s-.06.02-.06.06.03.06.06.06.06-.02.06-.06c0-.03-.03-.06-.06-.06"/>
        <path class="cls-4" d="M18.87,8.47c-.07,0-.17.01-.17.01,0,0,.02.01.04.01.02,0,.07,0,.14,0,.07.01.13-.02.13-.02,0,0-.06,0-.14-.01"/>
        <path class="cls-3" d="M21.27,11.83c.06.01.55.11.59.12.04,0,.08.02.09,0,.01-.01.02-.02.06-.03.04-.02.04-.06.04-.06,0,0,.01-.04.02-.08,0-.04.03-.06.08,0,.05.05.06.12.07.2,0,.07.12.09.17.1.04,0,.06,0,.09-.05.03-.04.04-.12.05-.18,0-.05,0-.05-.05-.06-.06-.01-.31-.07-.36-.08-.05-.01-.04-.04-.03-.07,0-.03.11-.36.11-.36-.07-.04-.17-.07-.3-.09,0,0-.07.33-.09.38-.01.05-.05.05-.1.04-.05,0-.44-.1-.44-.1l-.03.07c-.03.07-.04.16-.04.2s.02.04.08.06"/>
        <path class="cls-3" d="M22.58,12.12c-.05-.03-.09-.04-.11.02-.03.06-.03.15-.09.22-.07.06-.16.13-.25.12-.09,0-.15-.03-.12-.13.02-.11.16-.14.2-.19.03-.06.02-.12-.02-.16-.05-.04-.12-.05-.14-.04-.02.01-.08.06-.11.14-.03.08-.05.14-.11.19-.06.05-.22.1-.34.07-.12-.03-.17-.07-.21-.19-.05-.12-.1-.32-.13-.34-.02-.02-.06-.04-.11,0-.05.04-.06.09-.06.14,0,.04,0,.1.05.16.05.06.11.13.13.19.02.07.08.17,0,.17-.08,0-.12,0-.19-.06-.06-.06-.31-.23-.38-.29-.07-.06-.1-.07-.1-.07-.12,0-.23-.05-.35-.13,0,0,.07.17.08.23.01.06.01.1.01.1,0,0,.25.13.35.18.1.05.3.16.4.22.1.06.18.15.35.12.17-.04.52-.14.63-.17.11-.03.42-.11.54-.19.11-.08.13-.08.15-.15.02-.08,0-.12-.05-.16"/>
        <path class="cls-3" d="M21.92,10.93s.03,0,.09-.01c.06,0,.04.05.03.07-.01.02-.03.07-.05.11-.02.04,0,.05.02.05.02,0,.04,0,.09.02.05.01.04-.02.04-.04,0-.02,0-.11,0-.14,0-.03.04-.02.05-.02.01,0,.04.02.07.04.02.01.04,0,.04-.02,0-.01.02-.04.03-.08.01-.04-.01-.03-.04-.03s-.06,0-.09,0c-.04,0-.01-.04-.01-.04,0,0,.03-.05.05-.08.02-.03.01-.04,0-.05-.02,0-.09-.02-.11-.03-.02,0-.03,0-.03.01s0,.08,0,.1,0,.04-.04.04c-.03,0-.05-.02-.08-.05-.03-.03-.04-.02-.04,0,0,.01-.02.1-.03.12,0,.02,0,.02.03.02"/>
        <path class="cls-3" d="M20,11.87s.06-.04.11-.04.15-.03.18-.05c.03-.02.08-.03.14-.06.06-.03.02-.04-.04-.05-.06-.02-.23-.09-.23-.09,0,0-.08.04-.13.07-.05.03-.11.06-.2.08-.1.01-.13.02-.13.02,0,0,.02.03.06.08.04.05.05.09.1.17.05.08,0,.03-.05-.02-.02-.03-.07-.09-.12-.14-.04-.04-.07-.06-.07-.06l-.03.07v.02s-.02.13-.02.17c0,.04.01.04.05.06.03.02.1.05.29.17.18.12.25.19.25.19,0,0,0-.05,0-.1s0-.15-.04-.27c-.04-.11-.08-.19-.12-.23"/>
        <path class="cls-3" d="M19.58,11.62s.06.02.12.02.09-.02.15-.02.11-.02.21-.08c.1-.05,0-.04-.07-.03-.07,0-.26-.02-.34-.05-.08-.03-.02-.03,0-.03.02,0,.03.01.19.04.16.03.22,0,.3-.03.08-.02-.02-.03-.02-.03,0,0-.29-.08-.43-.24-.11-.12-.15-.24-.16-.28-.06.07-.12.13-.19.18,0,.02.01.06.03.09.02.05.09.13.09.13,0,0-.09-.03-.12-.08-.03-.03-.05-.07-.06-.1-.09.07-.19.12-.28.16.01,0,.02.02.04.03.04.03.08.08.13.16.05.08,0,.07-.04,0-.05-.07-.16-.15-.18-.16,0,0,0,0,0,0-.01,0-.02.01-.03.02-.06.03-.12.05-.17.07.04.03.12.11.15.16.03.05.1.09.12.12.02.03.05.07.08.11.03.04.23.26.28.34.05.08.02-.02,0-.08-.01-.06-.03-.14-.05-.2-.02-.06.02-.04.03,0,0,.03.02.04.03.1.02.07.05.17.07.23.02.07.02.04.04,0,.02-.03.04-.09.05-.12.01-.03.02-.11.02-.23,0-.12-.06-.17-.06-.18,0-.02.03-.03.07-.02"/>
        <path class="cls-3" d="M20.41,11.87s-.08.03-.1.03c-.03,0-.05,0-.05,0,0,0,.05.08.14.08h.23s-.14-.08-.16-.1c-.02-.02-.04-.02-.06,0"/>
        <path class="cls-3" d="M22.1,11.77s0,.07,0,.09c0,.02-.02.06,0,.07.03,0,.05.02.07.02.02,0,0-.04,0-.06,0-.03-.02-.06-.04-.09l-.02-.02Z"/>
        <path class="cls-3" d="M22.51,12.04s.03.03.04.03c.01,0,.03,0,.03-.02s0-.06-.02-.09c-.02-.03-.03-.05-.04,0-.01.04-.02.06-.01.08"/>
        <path class="cls-3" d="M21.1,11.77s.06.02.06.02c0,0,0-.06,0-.11,0-.04.03-.07.01-.07s-.03.01-.04.03c-.01.02-.04.02-.06.08-.01.05,0,.06.02.06"/>
        <path class="cls-4" d="M15.51,9.95s-.11.05-.11.05c0,0-.03,0-.03,0s.03,0,.07,0c.04,0,.08-.04.1-.05.02-.01.04-.03.04-.05,0-.02-.02.02-.07.05"/>
        <path class="cls-4" d="M15.91,10.16s-.09.07-.09.07c0,0-.02.02-.05.03-.03,0-.03.02-.03.02,0,0,0,0,.03,0,.03,0,.11-.06.13-.09.03-.02.04-.03.03-.04,0,0-.01,0-.02,0"/>
        <path class="cls-4" d="M14.3,7.29s.03.04.04.03c0,0,0-.02-.02-.04-.02-.02-.03-.03-.03-.03,0,0-.03-.04-.04-.06-.02-.02-.04-.02,0,.01.03.04.05.07.06.08"/>
        <path class="cls-4" d="M14.17,7.56s.03.03.05.05.03.04.04.03c.01-.01-.03-.03-.05-.06-.02-.02-.03-.04-.05-.05-.02-.02-.05-.03-.05-.03,0,0,.04.04.05.06"/>
        <path class="cls-4" d="M14.22,8s.08.04.08.03c0-.01,0-.02-.03-.04-.03-.01-.07-.04-.09-.05-.02-.01-.04-.03-.06-.04-.01-.01-.03-.03-.04-.02,0,0,.04.06.06.06.01,0,.04.03.07.06"/>
        <path class="cls-4" d="M14.31,8.34s0-.02-.02-.02c-.03,0-.06,0-.06,0,0,0-.05-.02-.05,0,0,0,.04.03.06.03.02,0,.04,0,.05.02.01,0,.02,0,.02-.01"/>
        <path class="cls-4" d="M14.35,8.72c-.05,0-.1-.01-.1,0,0,0,.03.02.05.03.03,0,.08.01.11.01.04,0,.04,0,.04-.02,0-.02-.05-.02-.1-.02"/>
        <path class="cls-4" d="M14.77,9.13s-.03,0-.06,0c-.03,0-.08.02-.11.01-.03,0-.09,0-.09,0,0,0-.04,0-.04,0s.05,0,.11.01c.07,0,.11,0,.14-.01.03,0,.04-.02.04-.03"/>
        <path class="cls-4" d="M14.95,9.43s-.06.02-.08.02-.09.01-.09.01c0,0-.03,0-.02.01,0,.01.01,0,.04,0,.03,0,.04,0,.09,0,.04,0,.07-.01.1-.02.03,0,.06-.02.04-.04-.01-.02-.04,0-.08.02"/>
        <path class="cls-4" d="M15.29,9.65s-.09.07-.09.07c0,0-.01.01-.04.03-.03.01-.03.02-.02.03,0,0,.02-.01.04-.02.02,0,.07-.04.1-.06.03-.02.06-.04.06-.06,0-.02-.01,0-.03.01"/>
        <path class="cls-4" d="M14.72,6.77s0,.01.07.09c.06.07.03,0,.01-.01-.01-.02-.1-.14-.13-.18-.03-.03-.03-.02-.02,0,.01.02.07.1.07.1"/>
        <path class="cls-4" d="M14.59,7.15s-.01-.02-.04-.06c-.03-.04-.1-.13-.1-.13,0,0-.02-.04-.03-.04,0,0,.02.07.05.09.03.03.06.08.08.1.02.02.03.03.04.03"/>
        <path class="cls-4" d="M14.76,7.86s-.07-.02-.1-.02c-.03,0-.08-.02-.08-.02,0,0-.06-.01-.07,0,0,0,.01.02.05.02.03,0,.09.02.13.03s.07.01.07,0"/>
        <path class="cls-4" d="M14.59,7.47s.07.05.1.07.04.03.05.02c.01-.01-.01-.03-.05-.04-.04-.02-.06-.03-.06-.03,0,0-.02-.01-.04-.02-.02-.01-.05-.02,0,.01"/>
        <path class="cls-4" d="M14.98,7.22s-.05-.04-.05-.04c0,0-.03-.03-.04-.02,0,.01.04.04.06.06.02.02.06.07.08.06.02-.01-.02-.04-.05-.07"/>
        <path class="cls-4" d="M14.73,8.21s-.04,0-.06.02c-.02,0-.03.02.02.02s.06-.01.1-.02c.04,0,.06-.01.05-.03,0-.01-.03,0-.05,0-.02,0-.07.02-.07.02"/>
        <path class="cls-4" d="M14.79,8.57s.03,0,.05,0c.02,0,.07-.03.1-.04.03,0,.03-.01.03-.03s-.03,0-.06,0c-.04.01-.08.05-.08.05,0,0-.03.01-.03.02"/>
        <path class="cls-4" d="M15.26,8.79s.04-.03.03-.04c-.01,0-.02,0-.05.01-.03.02-.08.06-.08.06,0,0-.03,0-.04.02-.02,0-.04.03-.04.04,0,0,.05,0,.07-.02.02-.02.08-.04.11-.06"/>
        <path class="cls-4" d="M15.47,9.08s.05-.02.07-.04c.02-.01.03-.05.01-.06-.01,0-.02.02-.05.04-.03.02-.13.09-.13.09,0,0,0,0-.03.01-.03.01-.02.02,0,.02.02,0,.04,0,.07-.03.03-.02.04-.03.05-.04"/>
        <path class="cls-4" d="M15.8,9.35s.07-.05.09-.06c.02-.02.04-.04.03-.05-.01-.01-.03,0-.05.02-.02.02-.08.08-.08.08,0,0,0,0-.04.03-.03.03,0,.02.01,0,.01-.01.02-.02.05-.03"/>
        <path class="cls-4" d="M20.49,10s-.06-.01-.11-.05c-.05-.04-.06-.08-.07-.05,0,.02.02.04.04.05.02.01.07.05.1.05.04,0,.07.02.07,0s-.03,0-.03,0"/>
        <path class="cls-4" d="M20.12,10.26s-.05-.03-.05-.03c0,0-.08-.06-.09-.07,0-.01-.01-.02-.02,0,0,0,0,.02.03.04.03.02.11.08.13.09.03,0,.03,0,.03,0,0,0,0-.01-.03-.02"/>
        <path class="cls-4" d="M21.6,7.29s.03-.05.06-.08c.03-.04,0-.03,0-.01-.02.02-.04.06-.04.06,0,0-.01.01-.03.03-.02.02-.03.03-.02.04,0,0,.03-.02.04-.03"/>
        <path class="cls-4" d="M21.62,7.64s.03-.01.04-.03c.02-.02.03-.03.05-.05.02-.02.05-.06.05-.06,0,0-.03.01-.05.03-.02.02-.04.03-.05.05-.02.02-.06.05-.05.06"/>
        <path class="cls-4" d="M21.8,7.87s-.02,0-.04.02c-.01.01-.04.03-.06.04-.02.01-.06.04-.09.05-.03.01-.04.02-.03.04,0,.01.05,0,.08-.03.03-.03.06-.06.07-.06.01,0,.06-.06.06-.06"/>
        <path class="cls-4" d="M21.67,8.32s-.04,0-.06,0c-.03,0-.02,0-.02.02s0,.02.02.01c.01,0,.04-.01.05-.02.02,0,.06-.02.06-.03,0,0-.05,0-.05,0"/>
        <path class="cls-4" d="M21.55,8.72c-.05,0-.1,0-.1.02,0,.02,0,.03.04.02.04,0,.09,0,.11-.01.03,0,.06-.02.05-.03,0,0-.05,0-.1,0"/>
        <path class="cls-4" d="M21.38,9.15s-.06,0-.09,0c-.03,0-.08,0-.11-.01-.03,0-.05-.01-.06,0,0,0,0,.02.04.03.03,0,.08.02.14.01.07,0,.11,0,.11-.01s-.04,0-.04,0"/>
        <path class="cls-4" d="M21.12,9.46s-.06-.01-.09-.01-.05,0-.08-.02-.06-.04-.08-.02c-.01.02.02.03.04.04.03,0,.05.02.1.02.04,0,.06,0,.09,0,.03,0,.04.01.04,0,0-.01-.02-.01-.02-.01"/>
        <path class="cls-4" d="M20.74,9.75s-.04-.03-.04-.03c0,0-.07-.05-.09-.07-.02-.02-.03-.03-.03-.01,0,.02.03.03.06.06.03.02.08.06.1.06.02,0,.03.03.04.02,0,0,0-.01-.02-.03"/>
        <path class="cls-4" d="M21.11,6.86c.06-.07.07-.09.07-.09,0,0,.06-.08.07-.1.01-.02.01-.04-.02,0-.03.03-.12.16-.13.18-.01.02-.05.09.01.01"/>
        <path class="cls-4" d="M21.47,6.92s-.03.04-.03.04c0,0-.07.09-.1.13-.03.04-.05.05-.04.06,0,0,.02,0,.04-.03.02-.02.05-.08.08-.1.03-.03.06-.09.05-.09"/>
        <path class="cls-4" d="M21.13,7.86s.03.01.07,0c.04,0,.09-.02.13-.03.03,0,.05-.01.05-.02,0,0-.07,0-.07,0,0,0-.05.01-.08.02s-.1,0-.1.02"/>
        <path class="cls-4" d="M21.29,7.46s-.04.02-.04.02c0,0-.02.01-.06.03-.04.02-.06.03-.05.04.01.01.03,0,.05-.02.02-.01.05-.03.1-.07.04-.04.01-.02,0-.01"/>
        <path class="cls-4" d="M20.87,7.29s.06-.04.08-.06c.02-.02.07-.05.06-.06,0-.01-.04.02-.04.02,0,0-.02.01-.05.04-.03.02-.07.06-.05.07"/>
        <path class="cls-4" d="M21.1,8.23s.06.02.1.02.04-.01.02-.02c-.02,0-.06-.02-.06-.02,0,0-.05-.01-.07-.02-.02,0-.04,0-.05,0,0,.01,0,.02.05.03"/>
        <path class="cls-4" d="M21.07,8.55s-.04-.04-.08-.05c-.04-.01-.06-.02-.06,0s0,.02.03.03c.03,0,.07.03.1.04.02,0,.06.02.05,0,0,0-.03-.02-.03-.02"/>
        <path class="cls-4" d="M20.77,8.83s-.04-.02-.04-.02c0,0-.05-.04-.08-.06-.03-.02-.04-.02-.05-.01-.01,0,0,.02.03.04.03.02.09.04.11.06.02.02.06.03.07.02,0,0-.02-.03-.04-.04"/>
        <path class="cls-4" d="M20.55,9.13s-.03-.01-.03-.01c0,0-.1-.07-.13-.09-.03-.02-.04-.04-.05-.04-.01,0,0,.04.01.06.02.01.06.03.07.04.01.01.03.02.05.04.03.02.04.02.07.03.02,0,.04,0,0-.02"/>
        <path class="cls-4" d="M20.15,9.37s-.04-.03-.04-.03c0,0-.06-.06-.08-.08-.02-.02-.04-.04-.05-.02-.01.01,0,.03.03.05.02.02.06.05.09.06.03.01.04.02.05.03.01.01.04.02.01,0"/>
        <path class="cls-3" d="M17.95,5.5c-.22,0-.47-.03-.61-.08-.05.01-.1.02-.15.03.23.09.43.12.76.12.34,0,.53-.04.76-.12-.05-.01-.1-.02-.15-.03-.14.05-.4.08-.61.08"/>
        <path class="cls-3" d="M18.74,5.31s-.12-.09-.14-.1c-.03-.01,0-.05,0-.06,0-.01.12-.05.18-.06.06-.02.05-.03.05-.03,0,0-.04-.04-.26-.07-.22-.02-.62-.02-.62-.02,0,0-.39,0-.62.02-.22.02-.26.07-.26.07,0,0-.01.01.05.03.06.02.17.05.18.06,0,.01.02.05,0,.06-.03.01-.12.08-.14.1-.02.01-.02.04,0,.04.03,0,.03,0,.1-.01.23-.05.45-.06.68-.06.23,0,.45.02.68.06.08.02.08.02.1.01.03,0,.03-.02,0-.04"/>
        <path class="cls-3" d="M17.09,5.12l-.1.08.12.05.13-.09-.15-.04Z"/>
        <path class="cls-3" d="M18.8,5.12l-.15.04.13.09.12-.05-.1-.08Z"/>
        <path class="cls-3" d="M18.48,5.41c-.15-.02-.25-.04-.54-.04-.28,0-.38.02-.54.04.1.04.25.06.54.06s.44-.02.54-.06"/>
        <path class="cls-5" d="M18.16,9.86s-.02-.03-.04,0c-.02.02-.04-.04-.04-.08,0-.04.02-.16.02-.16,0,0-.1.02-.16.04-.05.02-.11.02-.15.03-.04.01-.07.02-.09.02-.02,0-.07,0-.11,0s-.04,0-.08.05c-.04.04-.05.06-.08.13-.03.07-.04.14-.05.23,0,.06-.02.1-.03.12h.47s.01-.03.02-.05c.01-.03.04-.04.06-.05.02,0,.03,0,.04-.03,0-.02.03-.04.06-.05.02-.01.07,0,.11,0,.04.01.05-.02.06-.03.01-.01.02-.04.04-.06.02-.03,0-.05,0-.05,0,0-.02-.01-.04-.04"/>
        <path class="cls-5" d="M18.91,9.88s0-.03-.02-.03c-.02,0-.04,0-.07-.02-.02,0-.02.05-.02.05,0,0-.06,0-.12,0-.06,0-.14-.06-.16-.08-.03-.02-.05-.06-.05-.06,0,0-.02.02-.04.03s-.03.05-.03.09c0,.04.05.09.05.13,0,.04-.04.12-.07.15-.02.02-.04.07-.05.1h.23s.01-.03.02-.04c.02-.02.06-.03.06-.03,0,0,0,0,0-.03,0-.02.03-.05.09-.07.06-.02.12-.03.12-.03,0,0,.03-.02.05-.05.02-.03,0-.08,0-.1"/>
        <path class="cls-3" d="M17.9,3.3h.12s-.01-.11-.01-.11l.13.02v-.1s-.13.01-.13.01l.02-.11h-.15s.03.11.03.11h-.13s0,.09,0,.09h.13s0,.09,0,.09Z"/>
        <path class="cls-3" d="M18.15,3.47h-.16v-.13s-.03,0-.05,0c-.01,0-.03,0-.04,0v.14h-.16s0,.04,0,.05c0,0,0,.02,0,.02h.42s0-.02,0-.02c0-.02,0-.04,0-.05"/>
        <path class="cls-5" d="M17.95,3.71c.09,0,.17-.06.2-.13h-.4c.03.08.11.13.2.13"/>
        <path class="cls-5" d="M18.04,3.34v.09h.1s-.06-.07-.1-.09"/>
        <path class="cls-5" d="M17.86,3.34s-.08.05-.1.09h.1v-.09Z"/>
        <path class="cls-4" d="M18.07,5.06s-.13-.06-.13-.06c0,0-.08.04-.13.06-.04.02-.04.02-.05.05-.01.03,0,.04.02.05.02,0,.16.08.16.08,0,0,.14-.07.17-.08.03-.02.03-.03.02-.06,0-.02-.03-.03-.07-.05"/>
        <path class="cls-4" d="M18.36,5.02c.07,0,.12.05.12.12s-.06.12-.12.12-.12-.05-.12-.12.06-.12.12-.12"/>
        <path class="cls-4" d="M17.53,5.02c.07,0,.12.05.12.12s-.06.12-.12.12-.12-.05-.12-.12.06-.12.12-.12"/>
        <path class="cls-3" d="M17.81,5.1l.14.07.14-.07-.14-.07-.14.07Z"/>
        <path class="cls-3" d="M18.36,5.04s-.07.03-.07.07.03.07.07.07.07-.03.07-.07-.03-.07-.07-.07"/>
        <path class="cls-3" d="M17.53,5.04s-.07.03-.07.07.03.07.07.07.07-.03.07-.07-.03-.07-.07-.07"/>
        <path class="cls-3" d="M17.27,4.73s.07,0,.07,0c0,0,.01-.06-.02-.08-.03-.03-.06-.05-.08-.06-.02-.02-.02-.02-.02-.02,0,0,0,.05,0,.08,0,.03.01.07.04.09"/>
        <path class="cls-3" d="M17.34,4.77s-.02,0-.02.02.01.02.02.02.02,0,.02-.02-.01-.02-.02-.02"/>
        <path class="cls-3" d="M17.17,4.77s-.03.03-.03.03c0,0,.03,0,.05.02.02.01.05.03.07.02.02,0,.03-.03.03-.04,0-.02-.02-.03-.06-.05-.04-.01-.05,0-.06.02"/>
        <path class="cls-3" d="M17.25,4.91c-.08,0-.18-.08-.18-.08,0,.07-.05.11-.12.12h0s.06.03.13.05c.03,0,.06,0,.1,0,.04,0,.09-.02.12-.04.05-.03.03-.1.03-.1,0,0,0,.06-.08.06"/>
        <path class="cls-3" d="M16.95,4.83s-.08-.04-.1-.04c-.02,0-.05,0-.04.03,0,.04.04.06.08.06.04,0,.06-.01.08-.02.02-.01.02-.01-.01-.03"/>
        <path class="cls-3" d="M16.71,4.7s-.07-.03-.07-.03c0,0-.02.06,0,.1.01.04.04.05.07.05.03,0,.08-.02.07-.04-.01-.03-.03-.04-.06-.07"/>
        <path class="cls-3" d="M16.74,4.85s.03,0,.03.02-.01.02-.03.02-.03,0-.03-.02.01-.02.03-.02"/>
        <path class="cls-3" d="M16.81,4.57c-.02-.1-.02-.21.08-.36.1-.14.27-.2.27-.2,0,0,0-.01.06-.07.05-.06.16-.13.16-.13,0,0-.13.03-.2.05,0,0,0,0,0,0,0,.05-.04.09-.09.09-.02,0-.04,0-.05-.02-.04,0-.17.09-.2.11,0,.01.01.03.01.05,0,.05-.04.09-.09.09-.01,0-.03,0-.04,0,0,0,0,.01-.01.02-.03.05-.05.1-.06.14.02.02.04.04.04.08,0,.05-.03.09-.07.09,0,.03,0,.05,0,.06,0,.03.01.05.06.06.05.01.12.1.12.1,0,0,.04-.06.01-.17"/>
        <path class="cls-3" d="M17.12,3.91s.02-.04,0-.05c-.01-.01-.04-.01-.06,0-.02.02-.02.04,0,.05.01.01.04.01.06,0"/>
        <path class="cls-3" d="M16.8,4.13s.02-.05,0-.06c-.02-.02-.05-.01-.07,0-.02.02-.02.05,0,.06.02.02.05.01.07,0"/>
        <path class="cls-3" d="M16.65,4.41s-.02-.05-.05-.05-.05.02-.05.05.02.05.05.05.05-.02.05-.05"/>
        <path class="cls-3" d="M17.69,3.71s-.07.02-.15.06h0c.05,0,.09.03.09.07s-.05.09-.1.09-.08-.04-.08-.09c0,0,0-.02,0-.03-.02.01-.04.03-.07.04-.16.11-.2.16-.28.31-.08.15-.11.31-.07.4.03.1.16.12.16.12s-.01-.01-.02-.03c0-.02,0-.03,0-.06,0-.04,0-.08,0-.08,0,0,.03,0,.04.02.02.02.04.04.06.06.02.02.06.06.06.06,0,0,.03-.04.03-.08s-.03-.09-.03-.17c0-.08.03-.21.11-.31.07-.1.21-.19.25-.21.04-.02.05-.05.05-.07,0-.02,0-.03,0-.08,0-.05-.04-.04-.08-.03"/>
        <path class="cls-3" d="M17.53,3.88s.05-.03.05-.05-.02-.04-.05-.04-.05.02-.05.04.02.05.05.05"/>
        <path class="cls-3" d="M17.77,4.82s.08,0,.1,0c.02-.01.03-.05,0-.07-.02-.02-.06-.02-.08,0-.02.01-.07.05-.07.05,0,0,.01.02.05.03"/>
        <path class="cls-3" d="M17.89,4.87s-.02.03-.07.04c-.04,0-.09,0-.12-.03-.03-.03-.05-.07-.05-.07h-.05s-.02.07-.04.09c-.02.02-.1.02-.13,0-.03-.02-.06-.05-.07-.05,0,0,0,.03.03.06.03.03.06.05.11.05h.31s.06,0,.08-.03c.02-.04.02-.06.01-.07,0,0-.01,0-.03.03"/>
        <path class="cls-3" d="M17.42,4.82s.07.01.09-.01c.02-.02.02-.03.02-.03,0,0-.04-.02-.06-.03-.02-.01-.04-.02-.06-.02-.02,0-.02,0-.02,0,0,0,0,.06.04.08"/>
        <path class="cls-3" d="M18.02,4.75s-.02.06,0,.07c.02.01.06.02.1,0,.04-.02.05-.03.05-.03,0,0-.05-.04-.07-.05-.02-.01-.06-.01-.08,0"/>
        <path class="cls-3" d="M18.45,4.89s-.11.02-.13,0c-.02-.02-.04-.09-.04-.09h-.05s-.02.04-.05.07c-.03.03-.07.03-.12.03-.04,0-.05-.01-.07-.04-.01-.02-.02-.04-.03-.03,0,0,0,.03.01.07.02.04.08.03.08.03h.31c.05,0,.08-.02.11-.05.03-.03.04-.05.03-.06,0,0-.04.03-.07.05"/>
        <path class="cls-3" d="M18.42,4.75s-.06.03-.06.03c0,0,0,0,.02.03.02.02.04.04.09.01.05-.03.04-.08.04-.08,0,0,0,0-.02,0-.02,0-.04,0-.06.02"/>
        <path class="cls-3" d="M18.66,4.64s0-.08,0-.08c0,0,0,0-.02.02-.02.02-.05.04-.08.06-.03.03-.02.08-.02.08,0,0,.04,0,.07,0,.03-.01.05-.06.04-.09"/>
        <path class="cls-3" d="M18.58,4.79s-.01-.02-.02-.02-.02,0-.02.02.01.02.02.02.02,0,.02-.02"/>
        <path class="cls-3" d="M18.64,4.84s.05,0,.07-.02c.02-.01.05-.02.05-.02,0,0-.02-.02-.03-.03,0-.01-.02-.03-.06-.02-.04.01-.05.03-.06.05,0,.02,0,.04.03.04"/>
        <path class="cls-3" d="M18.82,4.83s-.1.09-.18.08c-.08,0-.08-.06-.08-.06,0,0-.01.08.03.1.03.02.07.03.12.04.04,0,.06.01.1,0,.07-.01.13-.04.13-.04h0c-.07-.02-.11-.05-.12-.12"/>
        <path class="cls-3" d="M19.04,4.8s-.07.02-.1.04c-.03.01-.04.02-.01.03.02.01.04.03.08.02.04,0,.07-.02.08-.06,0-.04-.02-.03-.04-.03"/>
        <path class="cls-3" d="M19.18,4.7s-.05.04-.07.07c-.01.03.03.04.07.04.03,0,.06,0,.07-.05.01-.04-.01-.1-.01-.1,0,0-.03,0-.07.03"/>
        <path class="cls-3" d="M19.15,4.85s-.03,0-.03.02.01.02.03.02.03,0,.03-.02-.01-.02-.03-.02"/>
        <path class="cls-3" d="M19.2,4.43s.02-.06.04-.08c-.01-.04-.04-.09-.06-.14,0,0,0-.01-.01-.02-.01,0-.03,0-.04,0-.05,0-.09-.04-.09-.09,0-.02,0-.03.01-.05-.03-.03-.16-.11-.2-.11-.01,0-.03.02-.05.02-.05,0-.09-.04-.09-.09,0,0,0,0,0,0-.07-.02-.2-.05-.2-.05,0,0,.11.07.16.13.05.06.06.07.06.07,0,0,.17.06.27.2.1.14.1.25.08.36-.03.1,0,.17.01.17,0,0,.07-.09.12-.1.05-.01.06-.03.06-.06,0,0,0-.03,0-.06-.04,0-.07-.04-.07-.09"/>
        <path class="cls-3" d="M18.77,3.91s.05.02.06,0c.01-.01.01-.04,0-.05-.02-.02-.05-.02-.06,0-.01.01-.01.04,0,.05"/>
        <path class="cls-3" d="M19.09,4.13s.05.02.07,0c.02-.02.01-.04,0-.06-.02-.02-.05-.02-.07,0-.02.02-.01.04,0,.06"/>
        <path class="cls-3" d="M19.29,4.36s-.05.02-.05.05.02.05.05.05.05-.02.05-.05-.02-.05-.05-.05"/>
        <path class="cls-3" d="M18.13,3.82s0,.05.05.07c.04.02.18.11.25.21.07.1.11.23.11.31,0,.08-.03.12-.03.17s.03.08.03.08c0,0,.04-.04.06-.06.02-.02.04-.04.06-.06.02-.02.04-.02.04-.02,0,0,0,.04,0,.08,0,.04.01.04,0,.06,0,.02-.02.03-.02.03,0,0,.13-.02.16-.12.03-.1,0-.26-.07-.4-.08-.15-.12-.2-.28-.31-.02-.02-.05-.03-.07-.04,0,0,0,.02,0,.03,0,.04-.03.09-.08.09s-.1-.05-.1-.09.04-.07.09-.07h0c-.07-.04-.12-.05-.15-.06-.04,0-.08-.01-.08.03,0,.04,0,.06,0,.08"/>
        <path class="cls-3" d="M17.95,4.56s-.01.05-.03.07c-.02.02-.03.04-.02.06,0,.03.03.04.05.04s.05-.02.05-.04c0-.03,0-.04-.02-.06-.02-.02-.03-.07-.03-.07"/>
        <path class="cls-3" d="M17.95,4.76s-.03.01-.03.03.01.03.03.03.03-.01.03-.03-.01-.03-.03-.03"/>
        <path class="cls-3" d="M17.85,4.65s.05-.05.06-.08c.02-.03.03-.06.03-.06,0,0,.01.03.03.06.02.03.06.08.06.08,0,0,.06-.03.1-.16.04-.12,0-.25-.03-.39-.02-.14-.03-.38-.03-.38-.05.03-.09.04-.14.04-.04,0-.09-.01-.14-.04,0,0-.01.24-.03.38-.02.14-.06.27-.03.39.04.12.1.16.1.16"/>
        <path class="cls-3" d="M18.31,3.83s.03.05.05.05.05-.02.05-.05-.02-.04-.05-.04-.05.02-.05.04"/>
        <path class="cls-4" d="M17.2,4.26c.06,0,.1.05.1.1s-.05.1-.1.1-.1-.05-.1-.1.05-.1.1-.1"/>
        <path class="cls-4" d="M17.38,4.01s-.1-.02-.13.02c-.03.04-.03.1.01.12.04.03.1.02.13-.02.03-.04.03-.1-.01-.12"/>
        <path class="cls-3" d="M17.2,4.29s-.06.03-.06.06.03.06.06.06.06-.03.06-.06-.03-.06-.06-.06"/>
        <path class="cls-3" d="M17.34,4.02s-.06,0-.07.03c-.01.02,0,.05.04.06.06.01.1-.07.04-.08"/>
        <path class="cls-4" d="M17.94,4.27c-.06,0-.11.05-.11.11s.05.11.11.11.11-.05.11-.11-.05-.11-.11-.11"/>
        <path class="cls-4" d="M17.94,4.03c.06,0,.11.05.11.1s-.05.1-.11.1-.11-.05-.11-.1.05-.1.11-.1"/>
        <path class="cls-4" d="M17.94,3.8c.06,0,.1.04.1.1s-.04.1-.1.1-.1-.04-.1-.1.04-.1.1-.1"/>
        <path class="cls-4" d="M18.69,4.26c-.06,0-.1.05-.1.1s.05.1.1.1.1-.05.1-.1c0-.06-.05-.1-.1-.1"/>
        <path class="cls-4" d="M18.65,4.03s-.09-.05-.13-.02c-.04.03-.05.08-.01.12.03.04.09.05.13.02.04-.03.05-.08.01-.12"/>
        <path class="cls-3" d="M18.69,4.29s-.06.03-.06.06.03.06.06.06.06-.03.06-.06-.03-.06-.06-.06"/>
        <path class="cls-3" d="M18.55,4.02c-.06.02-.03.1.04.08.04,0,.05-.03.04-.06-.01-.02-.05-.04-.07-.03"/>
        <path class="cls-3" d="M17.94,4.3s-.06.03-.06.06.03.06.06.06.06-.02.06-.06-.03-.06-.06-.06"/>
        <path class="cls-3" d="M17.94,4.16s.06-.02.06-.05-.03-.05-.06-.05-.06.02-.06.05.03.05.06.05"/>
        <path class="cls-3" d="M17.94,3.92s.05-.02.05-.05-.02-.05-.05-.05-.05.02-.05.05.02.05.05.05"/>
        <path class="cls-4" d="M21.37,11.57s-.09.04-.09.09.04.09.09.09.09-.04.09-.09-.04-.09-.09-.09"/>
        <path class="cls-4" d="M21.63,11.63c-.05,0-.09.04-.09.09s.04.09.09.09.09-.04.09-.09-.04-.09-.09-.09"/>
        <path class="cls-4" d="M22.36,11.79c-.05,0-.09.04-.09.09s.04.09.09.09.09-.04.09-.09-.04-.09-.09-.09"/>
        <path class="cls-4" d="M21.88,11.69c-.05,0-.09.04-.09.09s.04.09.09.09.09-.04.09-.09-.04-.09-.09-.09"/>
        <path class="cls-4" d="M21.95,11.47c-.05,0-.09.04-.09.09s.04.09.09.09.09-.04.09-.09-.04-.09-.09-.09"/>
        <path class="cls-4" d="M22.01,11.25c-.05,0-.09.04-.09.09s.04.09.09.09.09-.04.09-.09-.04-.09-.09-.09"/>
        <path class="cls-3" d="M21.38,11.6s.04.02.04.04-.02.04-.04.04-.04-.02-.04-.04.02-.04.04-.04"/>
        <path class="cls-3" d="M21.63,11.67s-.05.02-.05.05.02.05.05.05.05-.02.05-.05c0-.03-.02-.05-.05-.05"/>
        <path class="cls-3" d="M22.37,11.82s-.05.02-.05.05.02.05.05.05.05-.02.05-.05c0-.03-.02-.05-.05-.05"/>
        <path class="cls-3" d="M21.89,11.73s-.05.02-.05.05.02.05.05.05.05-.02.05-.05-.02-.05-.05-.05"/>
        <path class="cls-3" d="M21.95,11.5s-.05.02-.05.05.02.05.05.05.05-.02.05-.05-.02-.05-.05-.05"/>
        <path class="cls-3" d="M22.02,11.28s-.05.02-.05.05.02.05.05.05.05-.02.05-.05-.02-.05-.05-.05"/>
      </g>
    </g>
  </g>
</svg>