<?xml version="1.0" encoding="UTF-8"?>
<svg id="Layer_2" data-name="Layer 2" xmlns="http://www.w3.org/2000/svg" viewBox="0 0 34.02 17.01">
  <defs>
    <style>
      .cls-1 {
        fill: #a4afb8;
      }

      .cls-1, .cls-2, .cls-3, .cls-4, .cls-5, .cls-6, .cls-7, .cls-8, .cls-9, .cls-10, .cls-11, .cls-12, .cls-13 {
        fill-rule: evenodd;
      }

      .cls-14 {
        fill: #aa685e;
      }

      .cls-15 {
        fill: #f4d8bc;
      }

      .cls-2 {
        fill: #cba72c;
      }

      .cls-2, .cls-3, .cls-4, .cls-5, .cls-6, .cls-16, .cls-17, .cls-18, .cls-19, .cls-9, .cls-10, .cls-11, .cls-12, .cls-13 {
        stroke: #010101;
      }

      .cls-3 {
        fill: #b3a091;
      }

      .cls-20 {
        fill: #151418;
      }

      .cls-20, .cls-16, .cls-17, .cls-21, .cls-19, .cls-22, .cls-23, .cls-24, .cls-25 {
        stroke-linejoin: round;
      }

      .cls-20, .cls-7, .cls-24, .cls-25 {
        stroke: #151418;
      }

      .cls-4 {
        fill: rgba(255, 205, 5, .94);
      }

      .cls-26, .cls-27 {
        fill: #fff;
      }

      .cls-28 {
        fill: #717c8b;
      }

      .cls-5 {
        fill: #9f1d20;
      }

      .cls-6, .cls-17, .cls-7, .cls-24, .cls-9, .cls-10 {
        fill: #ffcd05;
      }

      .cls-29, .cls-30 {
        fill: #cb2026;
      }

      .cls-27 {
        stroke-miterlimit: 3.45;
      }

      .cls-27, .cls-30 {
        stroke: #181313;
      }

      .cls-16 {
        fill: #2c3582;
      }

      .cls-21 {
        fill: #926d69;
        stroke: #4e3226;
      }

      .cls-18 {
        fill: none;
      }

      .cls-19 {
        fill: #0e6646;
      }

      .cls-22 {
        stroke-width: 0px;
      }

      .cls-22, .cls-23 {
        fill: #eeedee;
        stroke: #1e1e1e;
      }

      .cls-8 {
        fill: #010101;
      }

      .cls-31 {
        fill: #cfcfc2;
      }

      .cls-9 {
        stroke-miterlimit: 1.3;
      }

      .cls-32 {
        fill: #913330;
      }

      .cls-10 {
        stroke-miterlimit: 1.3;
      }

      .cls-33 {
        fill: #e2a494;
      }

      .cls-11 {
        fill: #f6cb22;
      }

      .cls-25 {
        fill: #f0ddcb;
      }

      .cls-12 {
        fill: #eae9e3;
      }

      .cls-13 {
        fill: #b02624;
      }
    </style>
  </defs>
  <g id="Layer_1-2" data-name="Layer 1">
    <g>
      <rect class="cls-26" width="34.02" height="17.01"/>
      <rect id="a" class="cls-29" y="6.8" width="34.02" height="3.4"/>
      <rect id="a-2" data-name="a" class="cls-29" x="15.31" width="3.4" height="17.01"/>
      <path class="cls-12" d="M18.26,5.19c.11-.17.04-.28-.12-.32,0,0-.53.17-1.1.19-.57.02-1.24-.14-1.24-.14-.12.08-.09.26-.03.37,0,0,.6.2,1.27.18.43-.01.84-.12,1.07-.2.13-.04.15-.08.15-.08Z"/>
      <path class="cls-27" d="M17.01,12.67l-1.09-2.27-2.51.19,1.42-2.08-1.42-2.08,2.51.19,1.09-2.27,1.09,2.27,2.51-.19-1.42,2.08,1.42,2.08-2.51-.19-1.09,2.27h0Z"/>
      <g>
        <path class="cls-30" d="M17.69,9.58c.09-.09.23-.18.31-.39.07-.2.11-.55.18-.74.09-.31.26-.62.05-.59-.2.02-.27.21-.34.35-.04.08-.07.16-.08.24,0,.04-.01.08-.05.1.06-.47-.08-.83-.12-1.53-.02-.29-.07-.59-.22-.59-.11,0-.13.15-.15.26,0-.16,0-.5-.19-.5-.23,0-.16.47-.19.71,0-.08,0-.27-.03-.39,0-.04-.02-.07-.05-.1-.01-.01-.03-.02-.06-.02-.21,0-.21.3-.2.59,0,.03,0,.17,0,.26,0-.16,0-.47-.17-.46-.14.01-.15.36-.16.55,0,.19-.06.62-.08.75,0,.09-.04.2-.06.33-.03.26,0,.57.03.73.07.25.25.36.24.53,0,.17,0,.47,0,.6s.12.14.36.09c.39-.08.61.08.93-.04-.04-.37.05-.64.04-.77h0Z"/>
        <path class="cls-30" d="M17.47,8.92c.08-.22.18-.31.28-.36M17.62,9.7s.04-.08.08-.12M16.53,7.21c0,.2.02.58.02.67M17.26,6.67c-.01.11,0,.19,0,.3,0,.07.01.2.02.36,0,.06.02.35,0,.45M16.88,6.87s0,.09,0,.14c0,.25,0,.63.01.82"/>
      </g>
      <path class="cls-13" d="M16.99,4.33c1.37.23,1.32.29,1.32.29l.36-1.07s.04-.21-.06-.34c-.1-.13-.37-.06-.37-.06,0,0-.04-.17-.16-.22s-.57.16-.71.21c-.14.05-.21.09-.41.09-.2,0-.55-.18-.61-.21-.06-.03-.16-.07-.25-.06-.09,0-.18.03-.22.09-.05.06-.05.14-.05.14,0,0-.07-.05-.18-.05s-.18.02-.23.08c-.05.06-.12.23-.12.23l.13.29v.4s.28.42.28.42l1.28-.22Z"/>
      <path class="cls-12" d="M18.27,4.94s.07.08.07.11-.03.06-.03.06c0,0,.02.02.02.05s-.05.03-.05.03c0,0,0,.03-.02.04-.03.01-.14.04-.14.04,0,0-.53-.15-1.1-.15s-1.24.18-1.24.18c0,0-.07-.02-.07-.07,0-.05,0-.08,0-.08,0,0-.04,0-.05-.03-.01-.05,0-.08,0-.08,0,0-.03,0,0-.05.02-.05.05-.06.05-.06,0,0,.6-.21,1.27-.22.68,0,1.27.22,1.27.22h0Z"/>
      <path class="cls-18" d="M15.46,3.6s-.02-.08.03-.15c.05-.07.14-.06.17-.05.03.01.02.05.06.05s.06-.02.06-.02"/>
      <path class="cls-4" d="M18.77,3.78l-.21.43h-.08s-.05-.02-.19,0c-.1,0-.13.03-.13.03l.18-.43s.01.09.04.15c.03.07.13.13.13.13,0,0,.01-.08-.01-.18-.03-.11-.1-.26-.1-.26l.37.13h0Z"/>
      <path class="cls-20" d="M16.88,2.45h.23v.98h-.23v-.98Z"/>
      <path class="cls-11" d="M15.47,4.26l.15.32s.63-.25,1.38-.24c1.12,0,1.43.23,1.43.23l.17-.39-.12.07-.13.08-.14.06h-.18s-.16-.13-.16-.13l-.08-.17-.13.12-.23.05-.23-.06-.2-.25s-.15.28-.34.3c-.27.02-.43-.13-.43-.13,0,0-.1.23-.27.27-.27.07-.49-.12-.49-.12h0Z"/>
      <g>
        <g>
          <path class="cls-23" d="M18.02,2.33c0,.07-.05.12-.12.12-.07,0-.12-.05-.12-.12,0-.07.05-.12.12-.12.07,0,.12.05.12.12"/>
          <path class="cls-1" d="M17.84,2.39s.1,0,.11-.04c0-.04,0-.09,0-.09,0,0,.05.05.03.09-.01.04-.03.05-.06.06-.02,0-.06,0-.07-.02Z"/>
        </g>
        <g>
          <path class="cls-23" d="M17.73,2.46c0,.07-.05.12-.12.12-.07,0-.12-.05-.12-.12,0-.07.05-.12.12-.12.07,0,.12.05.12.12"/>
          <path class="cls-1" d="M17.55,2.52s.1,0,.11-.04c0-.04,0-.09,0-.09,0,0,.05.05.03.09-.01.04-.03.05-.06.06-.02,0-.06,0-.07-.02Z"/>
        </g>
        <g>
          <path class="cls-23" d="M18.35,2.25c0,.07-.05.12-.12.12-.07,0-.12-.05-.12-.12,0-.07.05-.12.12-.12.07,0,.12.05.12.12"/>
          <path class="cls-1" d="M18.18,2.31s.1,0,.11-.04c0-.04,0-.09,0-.09,0,0,.05.05.03.09-.01.04-.03.05-.06.06-.02,0-.06,0-.07-.02Z"/>
        </g>
        <g>
          <path class="cls-23" d="M18.73,2.32c0,.07-.05.12-.12.12-.07,0-.12-.05-.12-.12,0-.07.05-.12.12-.12.07,0,.12.05.12.12"/>
          <path class="cls-1" d="M18.56,2.38s.1,0,.11-.04c0-.04,0-.09,0-.09,0,0,.05.05.03.09-.01.04-.03.05-.06.06-.02,0-.06,0-.07-.02Z"/>
        </g>
        <g>
          <path class="cls-23" d="M19.02,2.56c0,.07-.05.12-.12.12-.07,0-.12-.05-.12-.12,0-.07.05-.12.12-.12.07,0,.12.05.12.12"/>
          <path class="cls-1" d="M18.84,2.62s.1,0,.11-.04c0-.04,0-.09,0-.09,0,0,.05.05.03.09-.01.04-.03.05-.06.06-.02,0-.06,0-.07-.02Z"/>
        </g>
        <g>
          <path class="cls-23" d="M19.14,2.95c0,.07-.05.12-.12.12-.07,0-.12-.05-.12-.12,0-.07.05-.12.12-.12.07,0,.12.05.12.12"/>
          <path class="cls-1" d="M18.97,3.01s.1,0,.11-.04c0-.04,0-.09,0-.09,0,0,.05.05.03.09-.01.04-.03.05-.06.06-.02,0-.06,0-.07-.02Z"/>
        </g>
        <g>
          <path class="cls-23" d="M19.1,3.35c0,.07-.05.12-.12.12-.07,0-.12-.05-.12-.12,0-.07.05-.12.12-.12.07,0,.12.05.12.12"/>
          <path class="cls-1" d="M18.92,3.41s.1,0,.11-.04c0-.04,0-.09,0-.09,0,0,.05.05.03.09-.01.04-.03.05-.06.06-.02,0-.06,0-.07-.02Z"/>
        </g>
        <g>
          <path class="cls-23" d="M18.92,3.69c0,.07-.05.12-.12.12-.07,0-.12-.05-.12-.12,0-.07.05-.12.12-.12.07,0,.12.05.12.12"/>
          <path class="cls-1" d="M18.75,3.75s.1,0,.11-.04c0-.04,0-.09,0-.09,0,0,.05.05.03.09-.01.04-.03.05-.06.06-.02,0-.06,0-.07-.02Z"/>
        </g>
        <g>
          <path class="cls-23" d="M17.44,2.57c0,.07-.05.12-.12.12-.07,0-.12-.05-.12-.12,0-.07.05-.12.12-.12.07,0,.12.05.12.12"/>
          <path class="cls-1" d="M17.27,2.63s.1,0,.11-.04c0-.04,0-.09,0-.09,0,0,.05.05.03.09-.01.04-.03.05-.06.06-.02,0-.06,0-.07-.02Z"/>
        </g>
        <g>
          <path class="cls-23" d="M17.08,2.53c0,.06-.04.1-.1.1-.05,0-.1-.04-.1-.1,0-.06.04-.1.1-.1.05,0,.1.04.1.1"/>
          <path class="cls-1" d="M16.94,2.59s.08,0,.09-.03c0-.03,0-.08,0-.08,0,0,.04.04.03.08-.01.03-.02.04-.05.05-.02,0-.05,0-.06-.01Z"/>
        </g>
        <g>
          <path class="cls-23" d="M17.09,2.66c0,.06-.04.1-.1.1-.05,0-.1-.04-.1-.1,0-.06.04-.1.1-.1.05,0,.1.04.1.1"/>
          <path class="cls-1" d="M16.94,2.71s.08,0,.09-.03c0-.03,0-.08,0-.08,0,0,.04.04.03.08-.01.03-.02.04-.05.05-.02,0-.05,0-.06-.01Z"/>
        </g>
        <g>
          <path class="cls-23" d="M17.09,2.85c0,.06-.04.1-.1.1-.05,0-.1-.04-.1-.1,0-.06.04-.1.1-.1.05,0,.1.04.1.1"/>
          <path class="cls-1" d="M16.95,2.9s.08,0,.09-.03c0-.03,0-.08,0-.08,0,0,.04.04.03.08-.01.03-.02.04-.05.05-.02,0-.05,0-.06-.01Z"/>
        </g>
        <g>
          <path class="cls-23" d="M17.1,3.04c0,.06-.05.11-.11.11-.06,0-.11-.05-.11-.11,0-.06.05-.11.11-.11.06,0,.11.05.11.11"/>
          <path class="cls-1" d="M16.94,3.1s.09,0,.1-.04c0-.04,0-.08,0-.08,0,0,.04.05.03.08-.01.04-.02.04-.05.05-.02,0-.05,0-.07-.01Z"/>
        </g>
        <g>
          <path class="cls-23" d="M17.11,3.3c0,.07-.05.12-.12.12-.07,0-.12-.05-.12-.12,0-.07.05-.12.12-.12.07,0,.12.05.12.12"/>
          <path class="cls-1" d="M16.94,3.37s.1,0,.11-.04c0-.04,0-.09,0-.09,0,0,.05.05.03.09-.01.04-.03.05-.06.06-.02,0-.06,0-.07-.02Z"/>
        </g>
        <g>
          <path class="cls-23" d="M17.1,3.85c0,.06-.05.11-.11.11-.06,0-.11-.05-.11-.11,0-.06.05-.11.11-.11.06,0,.11.05.11.11"/>
          <path class="cls-1" d="M16.94,3.9s.09,0,.1-.04c0-.04,0-.08,0-.08,0,0,.04.05.03.08-.01.04-.02.05-.06.05-.02,0-.05,0-.07-.02Z"/>
        </g>
        <g>
          <path class="cls-23" d="M16.78,2.56c0,.07-.05.12-.12.12-.07,0-.12-.05-.12-.12,0-.07.05-.12.12-.12.07,0,.12.05.12.12"/>
          <path class="cls-1" d="M16.6,2.62s.1,0,.11-.04c0-.04,0-.09,0-.09,0,0,.05.05.03.09-.01.04-.03.05-.06.06-.02,0-.06,0-.07-.02Z"/>
        </g>
        <g>
          <path class="cls-23" d="M16.48,2.45c0,.07-.05.12-.12.12-.07,0-.12-.05-.12-.12,0-.07.05-.12.12-.12.07,0,.12.05.12.12"/>
          <path class="cls-1" d="M16.31,2.51s.1,0,.11-.04c0-.04,0-.09,0-.09,0,0,.05.05.03.09-.01.04-.03.05-.06.06-.02,0-.06,0-.07-.02Z"/>
        </g>
        <g>
          <path class="cls-23" d="M16.2,2.31c0,.07-.05.12-.12.12-.07,0-.12-.05-.12-.12,0-.07.05-.12.12-.12.07,0,.12.05.12.12"/>
          <path class="cls-1" d="M16.03,2.37s.1,0,.11-.04c0-.04,0-.09,0-.09,0,0,.05.05.03.09-.01.04-.03.05-.06.06-.02,0-.06,0-.07-.02Z"/>
        </g>
        <g>
          <path class="cls-23" d="M15.88,2.24c0,.07-.05.12-.12.12-.07,0-.12-.05-.12-.12,0-.07.05-.12.12-.12.07,0,.12.05.12.12"/>
          <path class="cls-1" d="M15.7,2.3s.1,0,.11-.04c0-.04,0-.09,0-.09,0,0,.05.05.03.09-.01.04-.03.05-.06.06-.02,0-.06,0-.07-.02Z"/>
        </g>
        <g>
          <path class="cls-23" d="M15.49,2.33c0,.07-.05.12-.12.12-.07,0-.12-.05-.12-.12,0-.07.05-.12.12-.12.07,0,.12.05.12.12"/>
          <path class="cls-1" d="M15.32,2.4s.1,0,.11-.04c0-.04,0-.09,0-.09,0,0,.05.05.03.09-.01.04-.03.05-.06.06-.02,0-.06,0-.07-.02Z"/>
        </g>
        <g>
          <path class="cls-23" d="M15.22,2.6c0,.07-.05.12-.12.12-.07,0-.12-.05-.12-.12,0-.07.05-.12.12-.12.07,0,.12.05.12.12"/>
          <path class="cls-1" d="M15.05,2.67s.1,0,.11-.04c0-.04,0-.09,0-.09,0,0,.05.05.03.09-.01.04-.03.05-.06.06-.02,0-.06,0-.07-.02Z"/>
        </g>
        <g>
          <path class="cls-23" d="M15.11,2.98c0,.07-.05.12-.12.12-.07,0-.12-.05-.12-.12,0-.07.05-.12.12-.12.07,0,.12.05.12.12"/>
          <path class="cls-1" d="M14.93,3.04s.1,0,.11-.04c0-.04,0-.09,0-.09,0,0,.05.05.03.09-.01.04-.03.05-.06.06-.02,0-.06,0-.07-.02Z"/>
        </g>
        <g>
          <path class="cls-23" d="M15.16,3.38c0,.07-.05.12-.12.12-.07,0-.12-.05-.12-.12,0-.07.05-.12.12-.12.07,0,.12.05.12.12"/>
          <path class="cls-1" d="M14.98,3.44s.1,0,.11-.04c0-.04,0-.09,0-.09,0,0,.05.05.03.09-.01.04-.03.05-.06.06-.02,0-.06,0-.07-.02Z"/>
        </g>
        <g>
          <path class="cls-23" d="M15.34,3.74c0,.07-.05.12-.12.12-.07,0-.12-.05-.12-.12,0-.07.05-.12.12-.12.07,0,.12.05.12.12"/>
          <path class="cls-1" d="M15.17,3.8s.1,0,.11-.04c0-.04,0-.09,0-.09,0,0,.05.05.03.09-.01.04-.03.05-.06.06-.02,0-.06,0-.07-.02Z"/>
        </g>
        <g>
          <path class="cls-22" d="M15.55,4.19c.02.06,0,.13-.04.14-.04.01-.09-.03-.1-.1-.02-.06,0-.13.04-.14.04-.01.09.03.1.1"/>
          <path class="cls-1" d="M15.46,4.28s.06-.02.05-.06c0-.04-.03-.09-.03-.09,0,0,.04.04.04.08,0,.04,0,.05-.02.06-.01,0-.03,0-.05,0Z"/>
        </g>
        <g>
          <path class="cls-22" d="M18.63,4.21c-.02.06-.06.11-.1.1-.04,0-.06-.07-.04-.13.02-.06.06-.11.1-.1.04,0,.06.07.04.13"/>
          <path class="cls-1" d="M18.51,4.24s.06.01.07-.02c.02-.04.02-.09.02-.09,0,0,.02.06,0,.09-.02.04-.03.04-.05.05-.01,0-.03-.01-.04-.03Z"/>
        </g>
      </g>
      <path class="cls-3" d="M16.89,1.91v.2s-.23.02-.24.04c-.05.1.06.24.06.24,0,0,.08-.06.28-.06s.29.05.29.05c0,0,.05-.08.05-.14s-.02-.12-.02-.12c0,0-.1-.01-.13-.01h-.09v-.21s-.21,0-.21,0h0Z"/>
      <path class="cls-25" d="M17.23,2.22s-.02.04-.04.04c-.02,0-.04-.02-.04-.04,0-.02.02-.04.04-.04.02,0,.04.02.04.04M17.33,2.24s-.02.04-.04.04c-.02,0-.04-.02-.04-.04,0-.02.02-.04.04-.04.02,0,.04.02.04.04M17.13,2.22s-.02.04-.04.04c-.02,0-.04-.02-.04-.04,0-.02.02-.04.04-.04.02,0,.04.02.04.04M16.94,2.22s-.02.04-.04.04c-.02,0-.04-.02-.04-.04,0-.02.02-.04.04-.04.02,0,.04.02.04.04M16.83,2.23s-.02.04-.04.04c-.02,0-.04-.02-.04-.04,0-.02.02-.04.04-.04.02,0,.04.02.04.04M17.03,2.1s-.02.04-.04.04c-.02,0-.04-.02-.04-.04,0-.02.02-.04.04-.04.02,0,.04.02.04.04M17.03,1.94s-.02.04-.04.04c-.02,0-.04-.02-.04-.04,0-.02.02-.04.04-.04.02,0,.04.02.04.04M17.03,2.03s-.02.04-.04.04c-.02,0-.04-.02-.04-.04,0-.02.02-.04.04-.04.02,0,.04.02.04.04"/>
      <path class="cls-25" d="M16.71,2.26s-.02.04-.04.04c-.02,0-.04-.02-.04-.04,0-.02.02-.04.04-.04.02,0,.04.02.04.04"/>
      <path class="cls-21" d="M17.04,2.21s-.02.05-.05.05c-.03,0-.05-.02-.05-.04,0-.02.02-.05.05-.05.03,0,.05.02.05.04"/>
      <g>
        <path class="cls-23" d="M17.08,1.61s-.04.09-.09.09c-.05,0-.09-.04-.09-.09,0-.05.04-.09.09-.09.05,0,.09.04.09.09"/>
        <path class="cls-1" d="M16.95,1.66s.07,0,.08-.03,0-.07,0-.07c0,0,.03.04.02.07,0,.03-.02.04-.04.04-.02,0-.04,0-.05-.01Z"/>
      </g>
      <path class="cls-6" d="M15.59,4.61s.08.07.1.14c.02.07.05.24.05.24,0,0,.82-.23,1.23-.21.4.02,1.34.22,1.34.22,0,0,.02-.1.03-.2.02-.1.09-.22.09-.22,0,0-.89-.28-1.45-.25s-.84.09-.97.13c-.13.04-.43.16-.43.16h0Z"/>
      <path class="cls-6" d="M16.82,1.28h.35s-.09.06-.11.12c-.02.05-.01.13-.01.13,0,0,.1,0,.14-.04s.13-.1.13-.1v.45s-.09-.08-.14-.11c-.04-.02-.08-.04-.13-.05,0,0,0,.07.03.12s.15.21.15.21l-.51.02s.12-.13.17-.22c.03-.06.02-.12.02-.12,0,0-.09,0-.13.03-.04.03-.12.12-.12.12v-.43s.03.08.1.12c.07.03.14.02.14.02,0,0,.01-.09-.02-.14-.03-.05-.09-.12-.09-.11Z"/>
      <path class="cls-7" d="M16.79,2.71s-.25,0-.47-.13c-.22-.13-.43-.26-.75-.19-.07.02-.31.12-.41.46-.07.24.01.53.09.66.08.13.2.26.2.26l.13-.09s-.33-.28-.29-.65.22-.45.22-.45c0,0,.22-.18.53,0,.3.17.6.24.6.24,0,0,.28.07.3.06s-.14-.19-.13-.19h0Z"/>
      <path class="cls-6" d="M15.4,4.08l-.13-.26.4-.16s-.1.13-.12.22c-.03.11-.02.21-.02.21,0,0,.04-.03.08-.1.04-.06.09-.26.09-.26l.18.58s-.09-.09-.16-.1c-.07-.01-.16.01-.16.01l-.11.03-.06-.17h0Z"/>
      <path class="cls-7" d="M17.25,2.7s.25,0,.47-.13c.22-.13.43-.26.75-.19.07.02.31.12.41.46.07.24-.01.53-.09.66-.08.13-.13.21-.13.21l-.16-.06s.29-.26.25-.62c-.04-.36-.22-.45-.22-.45,0,0-.22-.18-.53,0-.3.17-.6.24-.6.24,0,0-.28.07-.3.06-.02,0,.14-.19.13-.19h0Z"/>
      <path class="cls-24" d="M17.12,2.45h.11v.98h-.11v-.98ZM16.76,2.45h.12v.98h-.12v-.98Z"/>
      <path class="cls-24" d="M17.33,2.22c0,.17-.15.32-.34.32-.19,0-.34-.14-.34-.31,0-.17.15-.32.34-.32.19,0,.34.14.35.31"/>
      <path class="cls-6" d="M16.69,3.43h.59s-.07.04-.13.14-.05.17-.05.17c0,0,.09,0,.15-.05.06-.05.13-.13.13-.13v.54s-.05-.07-.12-.11c-.07-.04-.17-.04-.17-.04h-.2s-.09,0-.13.03c-.06.04-.13.11-.13.11v-.51s.02.09.11.13c.09.04.15.03.15.03,0,0,0-.12-.05-.18-.05-.06-.16-.14-.16-.14h0Z"/>
      <path class="cls-11" d="M17.02,3.86s.09.2.19.29c.06.05.23.09.31.07.18-.05.3-.19.3-.19,0,0,0,.16.11.24.11.09.2.11.29.08.09-.03.36-.22.36-.22l.05.05s-.15.15-.31.22c-.08.04-.33.02-.41-.05-.08-.06-.13-.22-.13-.22,0,0-.05.1-.15.13-.11.04-.25.03-.39,0-.09-.03-.21-.15-.23-.19-.02-.04-.02-.06-.02-.06,0,0-.07.19-.2.24-.13.05-.28.05-.41.01-.13-.04-.14-.11-.14-.11,0,0,0,.2-.29.26-.28.06-.5-.15-.5-.15l.04-.06s.16.18.4.16c.24-.02.32-.32.32-.32,0,0,.11.16.39.16.28,0,.36-.36.36-.36h.05s0,0,0,0Z"/>
      <g>
        <path class="cls-9" d="M16.32,3.97s0-.1.02-.13c.03-.04.07-.04.09-.04.03,0,.05.03.05.1,0,.07-.02.1,0,.13.02.03.02.04.06.04.04,0,.06-.02.05-.06,0-.04-.02,0-.03-.03,0-.03.04-.16.03-.24,0-.08-.04-.14-.1-.16-.06-.01-.11-.01-.16.02-.05.04-.12.16-.12.16v.26s.11,0,.11,0v-.06s0,0,0,0Z"/>
        <path class="cls-9" d="M16.12,4.04s-.04-.09-.07-.11c-.04-.03-.08-.01-.1,0-.02.02-.04.05,0,.11.03.06.06.08.05.12,0,.03,0,.05-.04.06-.04.01-.06,0-.07-.03,0-.04.02,0,.01-.04,0-.03-.1-.13-.12-.21-.03-.08-.02-.15.03-.19.05-.04.09-.06.16-.04.06.01.17.1.17.1l.11.24-.1.04-.02-.05Z"/>
        <path class="cls-9" d="M16.1,3.26s-.1.18-.08.31c.02.13.16.42.16.42v.04s.08,0,.08,0l-.02-.04s.04-.35.01-.46c-.02-.08-.15-.27-.15-.27h0ZM16.27,4.07s.05.06.11.09c.07.03.1.03.12.01.02-.01.01-.08-.01-.1s-.05,0-.05,0c0,.03-.02.03-.04.02-.03-.02-.1-.06-.1-.06l-.03.03ZM16.19,4.08s-.02.08-.07.13c-.05.06-.07.07-.11.06-.02,0-.04-.07-.03-.09.01-.03.04-.03.05-.01.02.02.03.02.04,0,.02-.03.07-.1.07-.1h.04s0,.01,0,.01Z"/>
        <path class="cls-17" d="M16.38,4.02s-.07.05-.15.07-.16,0-.17-.01c0-.02.06-.05.15-.07.09-.02.16,0,.17.01"/>
      </g>
      <g>
        <path class="cls-10" d="M17.92,4.01s.04-.09.07-.11c.04-.03.08-.02.1,0,.02.02.04.05.01.11-.03.06-.06.09-.05.12,0,.03,0,.05.05.06.04,0,.06,0,.06-.03,0-.04-.02,0-.02-.04,0-.03.09-.14.11-.22.02-.08.02-.15-.04-.18-.05-.03-.09-.05-.16-.03-.06.02-.17.11-.17.11l-.09.25.1.03.02-.05h0Z"/>
        <path class="cls-10" d="M17.7,4.01s0-.1-.03-.13c-.03-.04-.07-.04-.09-.03-.03,0-.05.03-.04.1,0,.07.03.1,0,.13-.02.03-.02.04-.06.04-.04,0-.06-.02-.05-.05,0-.04.02,0,.03-.03,0-.03-.05-.16-.04-.24,0-.08.03-.15.09-.16.06-.02.1-.02.16.02.05.03.13.15.13.15l.02.26h-.11s0-.06,0-.06h0Z"/>
        <path class="cls-10" d="M17.96,3.27s-.16.13-.18.26c-.03.13,0,.45,0,.45v.04s.06.02.06.02v-.04s.15-.31.17-.42c.01-.08-.05-.3-.05-.31h0ZM17.83,4.08s.03.08.07.13c.05.05.08.06.11.06.02,0,.04-.07.02-.09s-.04-.03-.05-.01c-.02.02-.02.02-.04,0-.02-.03-.07-.09-.07-.09h-.04s0,.01,0,.01ZM17.75,4.07s-.05.07-.11.1c-.07.04-.09.04-.12.02-.02-.01-.02-.08,0-.1.02-.02.05-.01.05,0,0,.03.02.03.04.01.03-.02.1-.07.1-.07l.03.02h0Z"/>
        <path class="cls-17" d="M17.96,4.08s-.08.03-.17.01-.16-.05-.15-.07c0-.02.08-.03.17-.01.09.02.16.05.15.07"/>
      </g>
      <path class="cls-2" d="M15.56,4.6s.02.07.06.03c.04-.04.61-.26,1.41-.26s1.33.22,1.36.23c.03.01.04.03.07,0,.03-.03-.03-.08-.03-.08,0,0-.56-.24-1.43-.23-.87,0-1.44.25-1.44.25,0,0-.04.03-.01.06h0Z"/>
      <path class="cls-8" d="M16.58,4.94s.03-.07.07-.09c.04-.01.09.02.09.02,0,0-.07,0-.09,0-.02.01-.02.04-.02.04,0,0,.01-.03.07-.02.05,0,.06,0,.06,0,0,0-.09,0-.11.03-.02.03.08.04.08.04,0,0-.16,0-.18,0s-.03-.04-.07-.03c-.04.01-.07.04-.07.04,0,0,.04-.07.07-.07s.04,0,.06,0,.04.02.04.02ZM15.98,5.06s.01-.07.05-.1c.03-.02.09,0,.09,0,0,0-.07,0-.09.02-.02.01-.02.05-.02.05,0,0,0-.03.06-.04.05,0,.06,0,.06,0,0,0-.09.02-.1.05-.02.03.09.02.09.02,0,0-.16.03-.18.02-.02,0-.04-.04-.07-.02-.03.02-.06.05-.06.05,0,0,.03-.07.05-.08.02,0,.04,0,.06,0,.02,0,.05.01.05.01h0ZM17.08,4.91s.03-.07.08-.08c.04,0,.09.03.09.03,0,0-.07-.01-.09,0-.02,0-.03.04-.03.04,0,0,.02-.02.07-.02.05,0,.06,0,.06,0,0,0-.09,0-.11.03-.02.02.08.04.08.04,0,0-.16,0-.18-.02-.02-.01-.03-.04-.07-.04-.04,0-.07.04-.07.04,0,0,.04-.07.07-.06.03,0,.04,0,.06.01.02.01.04.02.04.02ZM17.58,4.97s.04-.07.08-.07c.04,0,.09.04.09.04,0,0-.07-.02-.09,0-.02,0-.03.04-.03.04,0,0,.02-.02.07-.01.05.01.06.01.06.01,0,0-.09,0-.11.01-.02.02.08.05.08.05,0,0-.16-.03-.18-.04-.02-.01-.03-.05-.06-.04-.04,0-.08.03-.08.03,0,0,.05-.06.08-.06.03,0,.04,0,.06.02s.04.03.04.03h0ZM18.08,5.06s.04-.05.07-.05c.03,0,.07.04.07.04,0,0-.05-.02-.07-.01-.02,0-.03.03-.03.03,0,0,.02-.02.06,0,.04.01.04.01.04.01,0,0-.07-.01-.09,0-.02.02.06.05.06.05,0,0-.12-.03-.14-.04-.01-.01-.02-.04-.05-.04-.03,0-.06.02-.06.02,0,0,.05-.04.07-.04.02,0,.03,0,.05.02.02.01.03.03.03.03h0Z"/>
      <path class="cls-19" d="M16.48,4.6c.01.06-.06.12-.16.14-.1.02-.19-.01-.2-.07-.01-.06.06-.12.16-.14.1-.02.19.01.2.07h0Z"/>
      <path class="cls-31" d="M16.25,4.59s-.01.03-.03.03c-.02,0-.04,0-.04-.02,0-.01.01-.03.03-.03.02,0,.04,0,.04.02Z"/>
      <path class="cls-19" d="M17.86,4.67c-.02.06-.11.08-.21.05-.1-.03-.16-.1-.14-.16.02-.06.11-.08.21-.05.1.03.16.1.14.16Z"/>
      <path class="cls-31" d="M17.67,4.55s-.02.02-.05.01c-.02,0-.03-.02-.03-.04,0-.01.02-.02.05-.01.02,0,.03.02.03.04h0Z"/>
      <path class="cls-16" d="M16.82,4.46h.36v.18h-.36v-.18Z"/>
      <path class="cls-28" d="M16.97,4.5s-.02.01-.03.01-.03,0-.03-.01.02-.01.03-.01.03,0,.03.01Z"/>
      <path class="cls-5" d="M15.8,4.64l.06.18-.11.06s-.05.04-.1,0c-.05-.03-.08-.11-.05-.14.05-.07.2-.11.2-.1h0Z"/>
      <path class="cls-32" d="M15.71,4.77s-.02.05-.05.05-.05-.02-.05-.05.02-.05.05-.05.05.02.05.05h0Z"/>
      <path class="cls-33" d="M15.66,4.75s0,.02,0,.02c0,0-.01,0-.02,0,0,0-.01-.01-.01-.02,0,0,0-.02,0-.02,0,0,.01,0,.02,0,0,0,.01.01.01.02h0Z"/>
      <path class="cls-5" d="M18.21,4.67l-.06.16.14.07s.06.03.1,0c.03-.03.04-.1.01-.13-.03-.03-.2-.09-.2-.09Z"/>
      <path class="cls-14" d="M18.38,4.79s-.02.03-.04.03-.04-.02-.04-.03.02-.03.04-.03.04.02.04.03Z"/>
      <path class="cls-33" d="M18.33,4.79s0,.02-.01.02c0,0-.01,0-.02,0,0,0-.01-.01-.01-.02,0,0,0-.02.01-.02,0,0,.01,0,.02,0,0,0,.01.01.01.02Z"/>
      <path class="cls-15" d="M17.31,4.48s-.01.02-.03.02-.03-.01-.03-.02c0-.01.01-.02.03-.02s.03.01.03.02Z"/>
      <path class="cls-15" d="M17.46,4.49s-.01.02-.03.02-.03-.01-.03-.02c0-.01.01-.02.03-.02s.03.01.03.02Z"/>
      <path class="cls-15" d="M17.39,4.55s-.01.03-.03.03-.03-.01-.03-.03c0-.02.01-.03.03-.03s.03.01.03.03Z"/>
      <path class="cls-15" d="M17.46,4.65s-.01.02-.03.02-.03-.01-.03-.02c0-.01.01-.02.03-.02s.03.01.03.02Z"/>
      <path class="cls-15" d="M17.31,4.63s-.01.02-.03.02-.03-.01-.03-.02c0-.01.01-.02.03-.02s.03.01.03.02Z"/>
      <path class="cls-15" d="M16.57,4.5s0,.03-.02.03-.03,0-.03-.02c0-.01,0-.03.02-.03s.03,0,.03.02Z"/>
      <path class="cls-15" d="M16.72,4.48s0,.03-.02.03-.03,0-.03-.02c0-.01,0-.03.02-.03s.03,0,.03.02Z"/>
      <path class="cls-15" d="M16.66,4.55s0,.03-.02.04-.03,0-.04-.02c0-.02,0-.03.02-.04s.03,0,.04.02Z"/>
      <path class="cls-15" d="M16.76,4.63s0,.03-.02.03-.03,0-.03-.02c0-.01,0-.03.02-.03s.03,0,.03.02Z"/>
      <path class="cls-15" d="M16.61,4.65s0,.03-.02.03-.03,0-.03-.02c0-.01,0-.03.02-.03s.03,0,.03.02Z"/>
      <path class="cls-15" d="M15.93,4.64s0,.03-.01.03-.03,0-.03-.01c0-.01,0-.03.01-.03s.03,0,.03.01Z"/>
      <path class="cls-15" d="M16.07,4.6s0,.03-.01.03-.03,0-.03-.01c0-.01,0-.03.01-.03s.03,0,.03.01Z"/>
      <path class="cls-15" d="M16.02,4.68s0,.03-.02.04-.03,0-.04-.02c0-.02,0-.03.02-.04s.03,0,.04.02Z"/>
      <path class="cls-15" d="M16.13,4.75s0,.03-.01.03-.03,0-.03-.01c0-.01,0-.03.01-.03s.03,0,.03.01Z"/>
      <path class="cls-15" d="M15.98,4.78s0,.03-.01.03-.03,0-.03-.01c0-.01,0-.03.01-.03s.03,0,.03.01Z"/>
      <path class="cls-15" d="M17.97,4.57s-.02.02-.03.02-.02-.02-.02-.03c0-.01.02-.02.03-.02s.02.02.02.03Z"/>
      <path class="cls-15" d="M18.13,4.62s-.02.02-.03.02-.02-.02-.02-.03c0-.01.02-.02.03-.02s.02.02.02.03Z"/>
      <path class="cls-15" d="M18.04,4.66s-.02.03-.04.02-.03-.02-.03-.04c0-.02.02-.03.04-.02s.03.02.03.04Z"/>
      <path class="cls-15" d="M18.09,4.79s-.02.02-.03.02-.02-.02-.02-.03c0-.01.02-.02.03-.02s.02.02.02.03Z"/>
      <path class="cls-15" d="M17.94,4.73s-.02.02-.03.02-.02-.02-.02-.03c0-.01.02-.02.03-.02s.02.02.02.03Z"/>
      <path class="cls-18" d="M18.28,3.15s-.07.07-.16.07-.14-.04-.16-.05c-.03-.02,0-.07,0-.07"/>
      <path class="cls-18" d="M16.76,3.29s-.13-.02-.19-.04c-.05-.02-.04-.05-.1-.05-.06,0-.13.05-.11.11.01.06.06.07.1.06.05-.01.03-.09-.03-.09-.06,0,0,.05,0,.05"/>
      <path class="cls-18" d="M15.85,3.19s.04.05.13.05c.1,0,.13-.06.14-.08,0-.02,0-.06-.02-.08-.02-.02-.08-.03-.08-.03"/>
    </g>
  </g>
</svg>