<?xml version="1.0" encoding="UTF-8"?>
<svg id="Layer_2" data-name="Layer 2" xmlns="http://www.w3.org/2000/svg" viewBox="0 0 34.02 17.01">
  <defs>
    <style>
      .cls-1 {
        fill: #926d69;
      }

      .cls-2 {
        fill: #a4afb8;
      }

      .cls-2, .cls-3, .cls-4, .cls-5, .cls-6, .cls-7, .cls-8, .cls-9, .cls-10 {
        fill-rule: evenodd;
      }

      .cls-11 {
        fill: #0e6646;
      }

      .cls-12 {
        fill: #181313;
      }

      .cls-13 {
        fill: #aa685e;
      }

      .cls-14 {
        fill: #f4d8bc;
      }

      .cls-3, .cls-15 {
        fill: #ffcd05;
      }

      .cls-16 {
        fill: #2c3582;
      }

      .cls-17 {
        fill: #fff;
      }

      .cls-4 {
        fill: #b3a091;
      }

      .cls-18 {
        fill: #151418;
      }

      .cls-19 {
        fill: #717c8b;
      }

      .cls-20 {
        fill: #f0ddcb;
      }

      .cls-21 {
        fill: #cb2026;
      }

      .cls-22 {
        fill: #eeedee;
      }

      .cls-5 {
        fill: #cba72c;
      }

      .cls-23 {
        fill: #1e1e1e;
      }

      .cls-6, .cls-24 {
        fill: #010101;
      }

      .cls-25 {
        fill: #cfcfc2;
      }

      .cls-7 {
        fill: #f6cb22;
      }

      .cls-8 {
        fill: #eae9e3;
      }

      .cls-26 {
        fill: #913330;
      }

      .cls-9 {
        fill: #b02624;
      }

      .cls-27 {
        fill: #e2a494;
      }

      .cls-10 {
        fill: #9f1d20;
      }

      .cls-28 {
        fill: #4e3226;
      }

      .cls-29 {
        opacity: .94;
      }
    </style>
  </defs>
  <g id="Layer_1-2" data-name="Layer 1">
    <g>
      <rect class="cls-17" width="34.02" height="17.01"/>
      <g id="a">
        <rect class="cls-21" y="6.8" width="34.02" height="3.4"/>
      </g>
      <g id="a-2" data-name="a">
        <rect class="cls-21" x="15.31" width="3.4" height="17.01"/>
      </g>
      <g>
        <path class="cls-8" d="M18.26,5.19c.11-.17.04-.28-.12-.32,0,0-.53.17-1.1.19-.57.02-1.24-.14-1.24-.14-.12.08-.09.26-.03.37,0,0,.6.2,1.27.18.43-.01.84-.12,1.07-.2.13-.04.15-.08.15-.08Z"/>
        <path class="cls-24" d="M16.94,5.47c-.63,0-1.18-.18-1.18-.18-.06-.11-.09-.29.03-.37,0,0,.61.14,1.15.14.03,0,.06,0,.09,0,.56-.02,1.09-.19,1.1-.19.08.02.14.06.17.11.02.06,0,.13-.04.21h0s-.02.04-.15.08c-.26.08-.65.18-1.07.2-.03,0-.06,0-.09,0ZM15.79,4.92c-.12.08-.09.26-.03.37,0,0,.55.18,1.18.18.03,0,.06,0,.09,0,.41-.01.81-.11,1.07-.2.14-.04.15-.08.15-.08h0c.05-.08.07-.15.04-.21-.02-.05-.08-.09-.16-.11,0,0-.53.17-1.1.19-.56.02-1.24-.14-1.25-.14Z"/>
      </g>
      <g>
        <path class="cls-17" d="M17.01,12.67l-1.09-2.27-2.51.19,1.42-2.08-1.42-2.08,2.51.19,1.09-2.27,1.09,2.27,2.51-.19-1.42,2.08,1.42,2.08-2.51-.19-1.09,2.27h0Z"/>
        <path class="cls-12" d="M17.01,12.67h0s-1.09-2.27-1.09-2.27l-2.51.19,1.42-2.08-1.42-2.08,2.51.19,1.09-2.27,1.09,2.27,2.51-.19-1.42,2.08,1.42,2.08-2.52-.19-1.09,2.27ZM15.91,10.4l1.09,2.27,1.09-2.27,2.52.19-1.42-2.08,1.42-2.08-2.51.19-1.09-2.27-1.09,2.27-2.51-.19,1.42,2.08-1.42,2.08,2.51-.19Z"/>
      </g>
      <g>
        <g>
          <path class="cls-21" d="M17.69,9.58c.09-.09.23-.18.31-.39.07-.2.11-.55.18-.74.09-.31.26-.62.05-.59-.2.02-.27.21-.34.35-.04.08-.07.16-.08.24,0,.04-.01.08-.05.1.06-.47-.08-.83-.12-1.53-.02-.29-.07-.59-.22-.59-.11,0-.13.15-.15.26,0-.16,0-.5-.19-.5-.23,0-.16.47-.19.71,0-.08,0-.27-.03-.39,0-.04-.02-.07-.05-.1-.01-.01-.03-.02-.06-.02-.21,0-.21.3-.2.59,0,.03,0,.17,0,.26,0-.16,0-.47-.17-.46-.14.01-.15.36-.16.55,0,.19-.06.62-.08.75,0,.09-.04.2-.06.33-.03.26,0,.57.03.73.07.25.25.36.24.53,0,.17,0,.47,0,.6s.12.14.36.09c.39-.08.61.08.93-.04-.04-.37.05-.64.04-.77h0Z"/>
          <path class="cls-12" d="M16.5,10.42c-.05,0-.08,0-.11-.03-.02-.02-.04-.05-.04-.09,0-.04,0-.09,0-.15,0-.15,0-.33,0-.45,0-.09-.04-.16-.1-.25-.05-.08-.11-.16-.14-.28-.03-.14-.07-.46-.03-.73,0-.06.02-.11.03-.17.01-.06.02-.11.03-.16.03-.14.09-.57.08-.75,0-.19.02-.54.16-.55.03,0,.06,0,.08.03.06.06.08.19.08.31v-.03c0-.05,0-.09,0-.11,0-.22-.01-.45.08-.54.03-.03.07-.05.12-.05.03,0,.05,0,.06.02.03.03.04.06.05.1.02.09.03.22.03.31,0,.03,0,.06,0,.08,0-.06,0-.14.01-.22,0-.23,0-.5.18-.5.08,0,.14.06.16.18.02.1.02.22.02.31h0s0,0,0,0c.02-.11.04-.25.15-.25h0c.12,0,.19.2.22.59.02.28.05.51.08.7.04.3.08.54.04.82.03-.02.04-.05.04-.08,0,0,0-.02,0-.02.02-.09.05-.17.08-.24.01-.02.02-.04.03-.06.06-.13.14-.28.31-.29.04,0,.07,0,.08.02.04.05,0,.19-.06.34-.03.07-.05.15-.08.23-.03.09-.06.22-.08.35-.03.14-.06.28-.09.39-.06.17-.17.26-.25.34-.02.02-.04.03-.05.05,0,.05,0,.11-.02.19-.02.14-.05.34-.03.58-.17.07-.31.05-.47.03-.14-.02-.28-.03-.47,0-.09.02-.16.03-.21.03ZM16.38,6.81s0,0-.01,0c-.14.01-.15.36-.16.55,0,.18-.05.61-.08.75,0,.05-.01.1-.03.16-.01.05-.02.11-.03.17-.03.28,0,.59.03.73.03.12.09.2.14.28.06.09.11.16.1.25,0,.12,0,.3,0,.45,0,.06,0,.11,0,.15,0,.04.01.07.04.09.05.04.14.04.32,0,.19-.04.33-.02.47,0,.15.02.3.03.47-.03-.03-.24,0-.43.03-.58.01-.08.02-.14.02-.19h0s.04-.03.05-.05c.08-.08.19-.17.25-.34.04-.1.07-.25.09-.39.03-.13.05-.26.08-.35.02-.08.05-.15.08-.23.06-.15.1-.29.06-.34-.02-.02-.04-.03-.08-.02-.17.02-.25.16-.31.29-.01.02-.02.04-.03.06-.04.08-.07.16-.08.24,0,0,0,.02,0,.02,0,.03-.01.06-.04.08.03-.28,0-.52-.04-.82-.03-.2-.06-.42-.08-.71-.03-.4-.1-.59-.22-.59h0c-.11,0-.13.14-.15.25h0s0,0,0,0c0-.08,0-.2-.02-.31-.03-.12-.08-.18-.16-.18-.17,0-.18.26-.18.5,0,.08,0,.15-.01.22,0-.02,0-.05,0-.08,0-.09,0-.22-.03-.31,0-.04-.02-.07-.05-.1-.01-.01-.04-.02-.06-.02-.05,0-.09.02-.12.05-.09.1-.09.32-.08.54,0,.02,0,.06,0,.11v.03s0,.08,0,.12h0s0-.07,0-.12c0-.12-.02-.25-.08-.31-.02-.02-.04-.03-.07-.03ZM16.53,7.15s0,.08,0,.11c0-.03,0-.07,0-.11Z"/>
        </g>
        <g>
          <path class="cls-21" d="M17.47,8.92c.08-.22.18-.31.28-.36M17.62,9.7s.04-.08.08-.12M16.53,7.21c0,.2.02.58.02.67M17.26,6.67c-.01.11,0,.19,0,.3,0,.07.01.2.02.36,0,.06.02.35,0,.45M16.88,6.87s0,.09,0,.14c0,.25,0,.63.01.82"/>
          <path class="cls-12" d="M17.62,9.7h0s.04-.09.08-.12c-.03.04-.07.07-.08.12ZM17.47,8.92h0c.09-.24.2-.32.28-.36-.09.04-.2.12-.28.36ZM16.55,7.88c0-.08-.01-.39-.02-.6v-.07s0,0,0,0v.07c0,.21.02.52.02.6ZM16.89,7.83c0-.09,0-.23,0-.37,0-.16,0-.32,0-.45,0-.02,0-.04,0-.05,0-.03,0-.06,0-.08h0s0,.05,0,.08c0,.02,0,.04,0,.05,0,.13,0,.29,0,.45,0,.15,0,.28,0,.37ZM17.28,7.79c.01-.07,0-.23,0-.34,0-.05,0-.09,0-.11,0-.05,0-.09,0-.13,0-.1-.01-.18-.01-.23,0-.04,0-.08,0-.12,0-.06,0-.12,0-.18h0c0,.07,0,.12,0,.18,0,.04,0,.07,0,.12,0,.05,0,.13.01.23,0,.04,0,.08,0,.13,0,.02,0,.06,0,.11,0,.11,0,.27,0,.34Z"/>
        </g>
      </g>
      <g>
        <path class="cls-9" d="M16.99,4.33c1.37.23,1.32.29,1.32.29l.36-1.07s.04-.21-.06-.34c-.1-.13-.37-.06-.37-.06,0,0-.04-.17-.16-.22s-.57.16-.71.21c-.14.05-.21.09-.41.09-.2,0-.55-.18-.61-.21-.06-.03-.16-.07-.25-.06-.09,0-.18.03-.22.09-.05.06-.05.14-.05.14,0,0-.07-.05-.18-.05s-.18.02-.23.08c-.05.06-.12.23-.12.23l.13.29v.4s.28.42.28.42l1.28-.22Z"/>
        <path class="cls-24" d="M18.32,4.62s-.1-.09-1.33-.29l-1.28.22-.27-.42v-.4s-.14-.29-.14-.29c0,0,.07-.17.12-.23.06-.06.12-.08.23-.08s.18.04.19.04c0,0,0-.08.04-.14.05-.07.15-.08.22-.09,0,0,0,0,.01,0,.1,0,.2.04.23.06,0,0,.4.21.61.21h.02c.14,0,.22-.03.31-.06.02,0,.05-.02.08-.03.03-.01.09-.03.15-.06.17-.06.41-.16.52-.16.02,0,.03,0,.04,0,.12.04.16.21.16.22,0,0,.28-.07.37.06.1.13.06.34.06.34l-.36,1.07ZM16.99,4.33h0c1.23.2,1.32.28,1.33.29l.36-1.07s.04-.21-.06-.34-.37-.06-.37-.06c0,0-.04-.17-.16-.21-.01,0-.03,0-.04,0-.12,0-.36.09-.52.16-.06.02-.11.04-.15.06-.03,0-.05.02-.08.03-.09.03-.17.06-.31.06h-.02c-.21,0-.61-.21-.61-.21-.04-.02-.13-.06-.23-.06h-.01c-.07,0-.17.02-.22.09-.04.06-.04.13-.04.14h0s-.08-.04-.19-.04-.17.01-.23.07c-.05.06-.12.23-.12.23l.13.29v.4s.28.42.28.42l1.28-.22Z"/>
      </g>
      <g>
        <path class="cls-8" d="M18.27,4.94s.07.08.07.11-.03.06-.03.06c0,0,.02.02.02.05s-.05.03-.05.03c0,0,0,.03-.02.04-.03.01-.14.04-.14.04,0,0-.53-.15-1.1-.15s-1.24.18-1.24.18c0,0-.07-.02-.07-.07,0-.05,0-.08,0-.08,0,0-.04,0-.05-.03-.01-.05,0-.08,0-.08,0,0-.03,0,0-.05.02-.05.05-.06.05-.06,0,0,.6-.21,1.27-.22.68,0,1.27.22,1.27.22h0Z"/>
        <path class="cls-24" d="M15.78,5.3s-.07-.02-.07-.07c0-.04,0-.08,0-.08,0,0-.04,0-.05-.03-.01-.04,0-.08,0-.08,0,0,0,0,0,0,0,0,0-.02.01-.05.02-.05.05-.06.05-.06,0,0,.6-.21,1.27-.22h.01c.66,0,1.25.21,1.26.22h0s0,0,0,0c0,0,.07.08.07.11,0,.03-.03.06-.03.06h0s.02.02.02.05c0,.03-.05.04-.05.04,0,0,0,.03-.02.04s-.13.04-.14.04c0,0-.54-.15-1.1-.15s-1.23.18-1.24.18ZM15.72,5.16s-.01.03,0,.08c0,.04.07.07.07.07,0,0,.68-.18,1.24-.18s1.1.15,1.1.15c0,0,.11-.02.14-.04.03-.01.02-.04.02-.04s.04,0,.05-.03-.02-.05-.02-.05c0,0,.03-.03.03-.06,0-.03-.07-.11-.07-.11h0s-.6-.22-1.26-.22h-.01c-.67,0-1.27.21-1.27.22,0,0-.03.02-.05.06-.02.03-.01.05-.01.05,0,0,0,0,0,0,0,0-.02.04,0,.08,0,.03.03.03.04.03,0,0,0,0,0,0Z"/>
      </g>
      <path class="cls-24" d="M15.46,3.6s-.02-.08.03-.15c.05-.07.14-.06.17-.05.01,0,.02.02.02.03,0,.01.01.02.03.03,0,0,.01,0,.01,0,.03,0,.05-.02.05-.02,0,0-.03.03-.06.02-.02,0-.03-.02-.04-.03,0,0-.01-.02-.02-.02-.03-.01-.12-.02-.17.05-.05.07-.03.14-.03.14h0Z"/>
      <g>
        <g class="cls-29">
          <path class="cls-3" d="M18.77,3.78l-.21.43h-.08s-.05-.02-.19,0c-.1,0-.13.03-.13.03l.18-.43s.01.09.04.15c.03.07.13.13.13.13,0,0,.01-.08-.01-.18-.03-.11-.1-.26-.1-.26l.37.13h0Z"/>
        </g>
        <path class="cls-24" d="M18.17,4.23l.18-.43s.02.09.04.15c.03.07.13.13.13.13,0,0,.01-.08-.01-.18-.03-.11-.1-.26-.1-.26l.38.13-.21.43h-.08s-.05-.02-.19,0c-.1,0-.13.03-.13.03ZM18.35,3.81l-.18.43s.04-.03.13-.03c.14,0,.19.02.19.02h.08s.21-.44.21-.44l-.37-.13s.07.15.1.26c.03.1.01.18.01.18,0,0-.1-.06-.13-.13-.02-.05-.04-.15-.04-.15Z"/>
      </g>
      <g>
        <path class="cls-18" d="M16.88,2.45h.23v.98h-.23v-.98Z"/>
        <path class="cls-18" d="M16.88,3.43v-.98s0,0,0,0h.23v.98s-.23,0-.23,0ZM16.88,2.45v.98h.23s0-.98,0-.98h-.23Z"/>
      </g>
      <g>
        <path class="cls-7" d="M15.47,4.26l.15.32s.63-.25,1.38-.24c1.12,0,1.43.23,1.43.23l.17-.39-.12.07-.13.08-.14.06h-.18s-.16-.13-.16-.13l-.08-.17-.13.12-.23.05-.23-.06-.2-.25s-.15.28-.34.3c-.27.02-.43-.13-.43-.13,0,0-.1.23-.27.27-.27.07-.49-.12-.49-.12h0Z"/>
        <path class="cls-24" d="M15.62,4.58l-.15-.32h0s0,0,0,0c.06.04.2.13.37.13.04,0,.07,0,.11-.01.17-.04.27-.27.27-.27,0,0,.14.13.38.13.02,0,.04,0,.06,0,.19-.02.34-.29.34-.3l.2.25.23.06.23-.05.13-.12.08.17.15.11h.18s.14-.04.14-.04l.13-.08.12-.07-.16.39s-.33-.22-1.44-.23c0,0-.01,0-.02,0-.73,0-1.35.24-1.36.24ZM15.47,4.26l.15.31s.63-.24,1.36-.24h.02c1.1,0,1.43.23,1.43.23l.16-.39-.25.15-.14.06h-.18s-.16-.13-.16-.13l-.08-.17-.13.12-.23.05-.23-.06-.2-.25s-.15.28-.34.3c-.02,0-.04,0-.06,0-.24,0-.37-.13-.38-.13,0,0-.1.23-.27.27-.22.06-.41-.07-.48-.12,0,0,0,0,0,0Z"/>
      </g>
      <g>
        <g>
          <g>
            <path class="cls-22" d="M18.02,2.33c0,.07-.05.12-.12.12-.07,0-.12-.05-.12-.12,0-.07.05-.12.12-.12.07,0,.12.05.12.12"/>
            <path class="cls-23" d="M17.9,2.45c-.07,0-.12-.05-.12-.12,0-.03.01-.06.03-.09.02-.02.05-.04.08-.04h0c.07,0,.12.05.12.12,0-.07-.06-.12-.12-.12h0s-.06.01-.08.04c-.02.02-.04.05-.03.08,0,.07.05.12.12.12s.12-.05.12-.12h0c0,.07-.05.12-.12.12Z"/>
          </g>
          <path class="cls-2" d="M17.84,2.39s.1,0,.11-.04c0-.04,0-.09,0-.09,0,0,.05.05.03.09-.01.04-.03.05-.06.06-.02,0-.06,0-.07-.02Z"/>
        </g>
        <g>
          <g>
            <path class="cls-22" d="M17.73,2.46c0,.07-.05.12-.12.12-.07,0-.12-.05-.12-.12,0-.07.05-.12.12-.12.07,0,.12.05.12.12"/>
            <path class="cls-23" d="M17.61,2.58s-.06-.01-.08-.03c-.02-.02-.04-.05-.04-.09,0-.07.05-.12.12-.12h0s.06.01.08.03c.02.02.04.05.04.09,0-.03-.01-.06-.04-.08-.02-.02-.05-.03-.08-.03h0c-.06,0-.12.05-.12.12,0,.03.01.06.04.08.02.02.05.03.08.03h0c.07,0,.12-.05.12-.12h0c0,.07-.05.12-.12.12h0Z"/>
          </g>
          <path class="cls-2" d="M17.55,2.52s.1,0,.11-.04c0-.04,0-.09,0-.09,0,0,.05.05.03.09-.01.04-.03.05-.06.06-.02,0-.06,0-.07-.02Z"/>
        </g>
        <g>
          <g>
            <path class="cls-22" d="M18.35,2.25c0,.07-.05.12-.12.12-.07,0-.12-.05-.12-.12,0-.07.05-.12.12-.12.07,0,.12.05.12.12"/>
            <path class="cls-23" d="M18.23,2.37s-.06-.01-.08-.03c-.02-.02-.04-.05-.04-.09,0-.07.05-.12.12-.12h0s.06.01.08.03c.02.02.04.05.04.09,0-.03-.01-.06-.04-.09-.02-.02-.05-.03-.08-.03h0c-.07,0-.12.05-.12.12,0,.03.01.06.04.08.02.02.05.03.08.03h0c.06,0,.12-.05.12-.12h0c0,.07-.05.12-.12.12h0Z"/>
          </g>
          <path class="cls-2" d="M18.18,2.31s.1,0,.11-.04c0-.04,0-.09,0-.09,0,0,.05.05.03.09-.01.04-.03.05-.06.06-.02,0-.06,0-.07-.02Z"/>
        </g>
        <g>
          <g>
            <path class="cls-22" d="M18.73,2.32c0,.07-.05.12-.12.12-.07,0-.12-.05-.12-.12,0-.07.05-.12.12-.12.07,0,.12.05.12.12"/>
            <path class="cls-23" d="M18.61,2.44s-.06-.01-.08-.03c-.02-.02-.04-.05-.04-.09,0-.07.05-.12.12-.12.07,0,.12.05.12.12,0-.07-.06-.12-.12-.12-.06,0-.12.05-.12.12,0,.03.01.06.04.08.02.02.05.03.08.03h0c.07,0,.12-.05.12-.12h0c0,.07-.05.12-.12.12h0Z"/>
          </g>
          <path class="cls-2" d="M18.56,2.38s.1,0,.11-.04c0-.04,0-.09,0-.09,0,0,.05.05.03.09-.01.04-.03.05-.06.06-.02,0-.06,0-.07-.02Z"/>
        </g>
        <g>
          <g>
            <path class="cls-22" d="M19.02,2.56c0,.07-.05.12-.12.12-.07,0-.12-.05-.12-.12,0-.07.05-.12.12-.12.07,0,.12.05.12.12"/>
            <path class="cls-23" d="M18.9,2.68c-.07,0-.12-.05-.12-.12,0-.03.01-.06.04-.09.02-.02.05-.04.08-.04h0c.07,0,.12.05.12.12,0-.07-.06-.12-.12-.12h0s-.06.01-.08.04c-.02.02-.04.05-.03.08,0,.07.05.12.12.12.07,0,.12-.05.12-.12h0c0,.07-.05.12-.12.12Z"/>
          </g>
          <path class="cls-2" d="M18.84,2.62s.1,0,.11-.04c0-.04,0-.09,0-.09,0,0,.05.05.03.09-.01.04-.03.05-.06.06-.02,0-.06,0-.07-.02Z"/>
        </g>
        <g>
          <g>
            <path class="cls-22" d="M19.14,2.95c0,.07-.05.12-.12.12-.07,0-.12-.05-.12-.12,0-.07.05-.12.12-.12.07,0,.12.05.12.12"/>
            <path class="cls-23" d="M19.02,3.07s-.06-.01-.08-.03c-.02-.02-.04-.05-.04-.09s.01-.06.03-.09c.02-.02.05-.04.08-.04h0c.07,0,.12.05.12.12,0-.07-.06-.12-.12-.12h0s-.06.01-.08.04c-.02.02-.04.05-.03.08,0,.03.01.06.04.08.02.02.05.03.08.03h0c.07,0,.12-.05.12-.12h0c0,.07-.05.12-.12.12h0Z"/>
          </g>
          <path class="cls-2" d="M18.97,3.01s.1,0,.11-.04c0-.04,0-.09,0-.09,0,0,.05.05.03.09-.01.04-.03.05-.06.06-.02,0-.06,0-.07-.02Z"/>
        </g>
        <g>
          <g>
            <path class="cls-22" d="M19.1,3.35c0,.07-.05.12-.12.12-.07,0-.12-.05-.12-.12,0-.07.05-.12.12-.12.07,0,.12.05.12.12"/>
            <path class="cls-23" d="M18.98,3.47c-.07,0-.12-.05-.12-.12s.05-.12.12-.12h0s.06.01.08.03c.02.02.04.05.04.09,0-.03-.01-.06-.04-.09-.02-.02-.05-.03-.08-.03h0c-.07,0-.12.05-.12.12s.05.12.12.12.12-.05.12-.12h0c0,.07-.05.12-.12.12Z"/>
          </g>
          <path class="cls-2" d="M18.92,3.41s.1,0,.11-.04c0-.04,0-.09,0-.09,0,0,.05.05.03.09-.01.04-.03.05-.06.06-.02,0-.06,0-.07-.02Z"/>
        </g>
        <g>
          <g>
            <path class="cls-22" d="M18.92,3.69c0,.07-.05.12-.12.12-.07,0-.12-.05-.12-.12,0-.07.05-.12.12-.12.07,0,.12.05.12.12"/>
            <path class="cls-23" d="M18.8,3.81c-.07,0-.12-.05-.12-.12,0-.07.05-.12.12-.12h0c.07,0,.12.05.12.12,0-.07-.06-.12-.12-.12h0c-.07,0-.12.05-.12.12,0,.07.05.12.12.12s.12-.05.12-.12h0c0,.07-.05.12-.12.12Z"/>
          </g>
          <path class="cls-2" d="M18.75,3.75s.1,0,.11-.04c0-.04,0-.09,0-.09,0,0,.05.05.03.09-.01.04-.03.05-.06.06-.02,0-.06,0-.07-.02Z"/>
        </g>
        <g>
          <g>
            <path class="cls-22" d="M17.44,2.57c0,.07-.05.12-.12.12-.07,0-.12-.05-.12-.12,0-.07.05-.12.12-.12.07,0,.12.05.12.12"/>
            <path class="cls-23" d="M17.33,2.69c-.07,0-.12-.05-.12-.12,0-.03.01-.06.03-.09.02-.02.05-.04.08-.04h0c.07,0,.12.05.12.12,0-.07-.06-.12-.12-.12h0s-.06.01-.08.04c-.02.02-.04.05-.03.08,0,.07.05.12.12.12s.12-.05.12-.12h0c0,.07-.05.12-.12.12Z"/>
          </g>
          <path class="cls-2" d="M17.27,2.63s.1,0,.11-.04c0-.04,0-.09,0-.09,0,0,.05.05.03.09-.01.04-.03.05-.06.06-.02,0-.06,0-.07-.02Z"/>
        </g>
        <g>
          <g>
            <path class="cls-22" d="M17.08,2.53c0,.06-.04.1-.1.1-.05,0-.1-.04-.1-.1,0-.06.04-.1.1-.1.05,0,.1.04.1.1"/>
            <path class="cls-23" d="M16.98,2.64s-.05-.01-.07-.03c-.02-.02-.03-.05-.03-.07s0-.05.03-.07c.02-.02.04-.03.07-.03.06,0,.1.04.1.1,0-.06-.05-.1-.1-.1-.03,0-.05.01-.07.03s-.03.04-.03.07c0,.03.01.05.03.07.02.02.04.03.07.03h0c.05,0,.1-.04.1-.1h0c0,.06-.04.1-.1.1h0Z"/>
          </g>
          <path class="cls-2" d="M16.94,2.59s.08,0,.09-.03c0-.03,0-.08,0-.08,0,0,.04.04.03.08-.01.03-.02.04-.05.05-.02,0-.05,0-.06-.01Z"/>
        </g>
        <g>
          <g>
            <path class="cls-22" d="M17.09,2.66c0,.06-.04.1-.1.1-.05,0-.1-.04-.1-.1,0-.06.04-.1.1-.1.05,0,.1.04.1.1"/>
            <path class="cls-23" d="M16.99,2.76c-.06,0-.1-.05-.1-.1s.04-.1.1-.1h0s.05.01.07.03c.02.02.03.04.03.07,0-.03-.01-.05-.03-.07-.02-.02-.04-.03-.07-.03h0c-.05,0-.1.04-.1.1s.04.1.1.1c.06,0,.1-.04.1-.1h0c0,.06-.04.1-.1.1Z"/>
          </g>
          <path class="cls-2" d="M16.94,2.71s.08,0,.09-.03c0-.03,0-.08,0-.08,0,0,.04.04.03.08-.01.03-.02.04-.05.05-.02,0-.05,0-.06-.01Z"/>
        </g>
        <g>
          <g>
            <path class="cls-22" d="M17.09,2.85c0,.06-.04.1-.1.1-.05,0-.1-.04-.1-.1,0-.06.04-.1.1-.1.05,0,.1.04.1.1"/>
            <path class="cls-23" d="M16.99,2.95c-.06,0-.1-.05-.1-.1s.04-.1.1-.1c.06,0,.1.05.1.1,0-.06-.05-.1-.1-.1-.05,0-.1.05-.1.1s.04.1.1.1.1-.04.1-.1h0c0,.06-.04.1-.1.1Z"/>
          </g>
          <path class="cls-2" d="M16.95,2.9s.08,0,.09-.03c0-.03,0-.08,0-.08,0,0,.04.04.03.08-.01.03-.02.04-.05.05-.02,0-.05,0-.06-.01Z"/>
        </g>
        <g>
          <g>
            <path class="cls-22" d="M17.1,3.04c0,.06-.05.11-.11.11-.06,0-.11-.05-.11-.11,0-.06.05-.11.11-.11.06,0,.11.05.11.11"/>
            <path class="cls-23" d="M17,3.15c-.06,0-.11-.05-.11-.11s.05-.11.11-.11c.06,0,.11.05.11.11,0-.06-.05-.11-.11-.11-.06,0-.11.05-.11.11s.05.11.11.11.11-.05.11-.11h0c0,.06-.05.11-.11.11Z"/>
          </g>
          <path class="cls-2" d="M16.94,3.1s.09,0,.1-.04c0-.04,0-.08,0-.08,0,0,.04.05.03.08-.01.04-.02.04-.05.05-.02,0-.05,0-.07-.01Z"/>
        </g>
        <g>
          <g>
            <path class="cls-22" d="M17.11,3.3c0,.07-.05.12-.12.12-.07,0-.12-.05-.12-.12,0-.07.05-.12.12-.12.07,0,.12.05.12.12"/>
            <path class="cls-23" d="M17,3.43c-.07,0-.12-.05-.12-.12,0-.07.05-.12.12-.12h0c.07,0,.12.05.12.12,0-.07-.06-.12-.12-.12h0c-.07,0-.12.05-.12.12,0,.07.05.12.12.12s.12-.05.12-.12h0c0,.07-.05.12-.12.12Z"/>
          </g>
          <path class="cls-2" d="M16.94,3.37s.1,0,.11-.04c0-.04,0-.09,0-.09,0,0,.05.05.03.09-.01.04-.03.05-.06.06-.02,0-.06,0-.07-.02Z"/>
        </g>
        <g>
          <g>
            <path class="cls-22" d="M17.1,3.85c0,.06-.05.11-.11.11-.06,0-.11-.05-.11-.11,0-.06.05-.11.11-.11.06,0,.11.05.11.11"/>
            <path class="cls-23" d="M16.99,3.96c-.06,0-.11-.05-.11-.11s.05-.11.11-.11h0s.06.01.08.03c.02.02.03.05.03.08,0-.03-.01-.06-.04-.08s-.05-.03-.08-.03h0c-.06,0-.11.05-.11.11s.05.11.11.11.11-.05.11-.11h0c0,.06-.05.11-.11.11Z"/>
          </g>
          <path class="cls-2" d="M16.94,3.9s.09,0,.1-.04c0-.04,0-.08,0-.08,0,0,.04.05.03.08-.01.04-.02.05-.06.05-.02,0-.05,0-.07-.02Z"/>
        </g>
        <g>
          <g>
            <path class="cls-22" d="M16.78,2.56c0,.07-.05.12-.12.12-.07,0-.12-.05-.12-.12,0-.07.05-.12.12-.12.07,0,.12.05.12.12"/>
            <path class="cls-23" d="M16.66,2.68c-.07,0-.12-.05-.12-.12,0-.03.01-.06.03-.09.02-.02.05-.04.08-.04.07,0,.12.05.12.12,0-.07-.06-.12-.12-.12-.03,0-.06.01-.08.04-.02.02-.04.05-.03.08,0,.07.05.12.12.12.07,0,.12-.05.12-.12h0c0,.07-.05.12-.12.12Z"/>
          </g>
          <path class="cls-2" d="M16.6,2.62s.1,0,.11-.04c0-.04,0-.09,0-.09,0,0,.05.05.03.09-.01.04-.03.05-.06.06-.02,0-.06,0-.07-.02Z"/>
        </g>
        <g>
          <g>
            <path class="cls-22" d="M16.48,2.45c0,.07-.05.12-.12.12-.07,0-.12-.05-.12-.12,0-.07.05-.12.12-.12.07,0,.12.05.12.12"/>
            <path class="cls-23" d="M16.36,2.57c-.07,0-.12-.05-.12-.12s.05-.12.12-.12h0s.06.01.08.03c.02.02.04.05.04.09,0-.03-.01-.06-.04-.08-.02-.02-.05-.03-.08-.03h0c-.06,0-.12.05-.12.12s.05.12.12.12.12-.05.12-.12h0c0,.07-.05.12-.12.12Z"/>
          </g>
          <path class="cls-2" d="M16.31,2.51s.1,0,.11-.04c0-.04,0-.09,0-.09,0,0,.05.05.03.09-.01.04-.03.05-.06.06-.02,0-.06,0-.07-.02Z"/>
        </g>
        <g>
          <g>
            <path class="cls-22" d="M16.2,2.31c0,.07-.05.12-.12.12-.07,0-.12-.05-.12-.12,0-.07.05-.12.12-.12.07,0,.12.05.12.12"/>
            <path class="cls-23" d="M16.08,2.43c-.07,0-.12-.05-.12-.12s.05-.12.12-.12h0s.06.01.08.03c.02.02.04.05.04.09,0-.03-.01-.06-.04-.08-.02-.02-.05-.03-.08-.03h0c-.06,0-.12.05-.12.12s.05.12.12.12.12-.05.12-.12h0c0,.07-.05.12-.12.12Z"/>
          </g>
          <path class="cls-2" d="M16.03,2.37s.1,0,.11-.04c0-.04,0-.09,0-.09,0,0,.05.05.03.09-.01.04-.03.05-.06.06-.02,0-.06,0-.07-.02Z"/>
        </g>
        <g>
          <g>
            <path class="cls-22" d="M15.88,2.24c0,.07-.05.12-.12.12-.07,0-.12-.05-.12-.12,0-.07.05-.12.12-.12.07,0,.12.05.12.12"/>
            <path class="cls-23" d="M15.76,2.36c-.07,0-.12-.05-.12-.12,0-.07.05-.12.12-.12h0c.07,0,.12.05.12.12,0-.07-.06-.12-.12-.12h0c-.07,0-.12.05-.12.12,0,.07.05.12.12.12s.12-.05.12-.12h0c0,.07-.05.12-.12.12Z"/>
          </g>
          <path class="cls-2" d="M15.7,2.3s.1,0,.11-.04c0-.04,0-.09,0-.09,0,0,.05.05.03.09-.01.04-.03.05-.06.06-.02,0-.06,0-.07-.02Z"/>
        </g>
        <g>
          <g>
            <path class="cls-22" d="M15.49,2.33c0,.07-.05.12-.12.12-.07,0-.12-.05-.12-.12,0-.07.05-.12.12-.12.07,0,.12.05.12.12"/>
            <path class="cls-23" d="M15.37,2.46c-.07,0-.12-.05-.12-.12s.05-.12.12-.12c.07,0,.12.05.12.12,0-.07-.05-.12-.12-.12-.07,0-.12.05-.12.12s.05.12.12.12c.07,0,.12-.05.12-.12h0c0,.07-.05.12-.12.12Z"/>
          </g>
          <path class="cls-2" d="M15.32,2.4s.1,0,.11-.04c0-.04,0-.09,0-.09,0,0,.05.05.03.09-.01.04-.03.05-.06.06-.02,0-.06,0-.07-.02Z"/>
        </g>
        <g>
          <g>
            <path class="cls-22" d="M15.22,2.6c0,.07-.05.12-.12.12-.07,0-.12-.05-.12-.12,0-.07.05-.12.12-.12.07,0,.12.05.12.12"/>
            <path class="cls-23" d="M15.1,2.73c-.07,0-.12-.05-.12-.12s.05-.12.12-.12h0s.06.01.08.03c.02.02.04.05.04.09,0-.03-.01-.06-.04-.08-.02-.02-.05-.03-.08-.03h0c-.06,0-.12.05-.12.12s.05.12.12.12c.07,0,.12-.05.12-.12h0c0,.07-.05.12-.12.12Z"/>
          </g>
          <path class="cls-2" d="M15.05,2.67s.1,0,.11-.04c0-.04,0-.09,0-.09,0,0,.05.05.03.09-.01.04-.03.05-.06.06-.02,0-.06,0-.07-.02Z"/>
        </g>
        <g>
          <g>
            <path class="cls-22" d="M15.11,2.98c0,.07-.05.12-.12.12-.07,0-.12-.05-.12-.12,0-.07.05-.12.12-.12.07,0,.12.05.12.12"/>
            <path class="cls-23" d="M14.99,3.1c-.07,0-.12-.05-.12-.12s.05-.12.12-.12h0s.06.01.08.03c.02.02.04.05.04.09,0-.03-.01-.06-.04-.08-.02-.02-.05-.03-.08-.03h0c-.06,0-.12.05-.12.12s.05.12.12.12.12-.05.12-.12h0c0,.07-.05.12-.12.12Z"/>
          </g>
          <path class="cls-2" d="M14.93,3.04s.1,0,.11-.04c0-.04,0-.09,0-.09,0,0,.05.05.03.09-.01.04-.03.05-.06.06-.02,0-.06,0-.07-.02Z"/>
        </g>
        <g>
          <g>
            <path class="cls-22" d="M15.16,3.38c0,.07-.05.12-.12.12-.07,0-.12-.05-.12-.12,0-.07.05-.12.12-.12.07,0,.12.05.12.12"/>
            <path class="cls-23" d="M15.04,3.5c-.07,0-.12-.05-.12-.12s.05-.12.12-.12h0s.06.01.08.03c.02.02.04.05.04.09,0-.03-.01-.06-.04-.08-.02-.02-.05-.03-.08-.03h0c-.06,0-.12.05-.12.12s.05.12.12.12.12-.05.12-.12h0c0,.07-.05.12-.12.12Z"/>
          </g>
          <path class="cls-2" d="M14.98,3.44s.1,0,.11-.04c0-.04,0-.09,0-.09,0,0,.05.05.03.09-.01.04-.03.05-.06.06-.02,0-.06,0-.07-.02Z"/>
        </g>
        <g>
          <g>
            <path class="cls-22" d="M15.34,3.74c0,.07-.05.12-.12.12-.07,0-.12-.05-.12-.12,0-.07.05-.12.12-.12.07,0,.12.05.12.12"/>
            <path class="cls-23" d="M15.22,3.86s-.06-.01-.08-.03c-.02-.02-.04-.05-.04-.09s.01-.06.03-.09c.02-.02.05-.04.08-.04h0c.07,0,.12.05.12.12,0-.07-.06-.12-.12-.12h0s-.06.01-.08.04c-.02.02-.04.05-.03.08,0,.03.01.06.04.08.02.02.05.03.08.03h0c.07,0,.12-.05.12-.12h0c0,.07-.05.12-.12.12h0Z"/>
          </g>
          <path class="cls-2" d="M15.17,3.8s.1,0,.11-.04c0-.04,0-.09,0-.09,0,0,.05.05.03.09-.01.04-.03.05-.06.06-.02,0-.06,0-.07-.02Z"/>
        </g>
        <g>
          <g>
            <path class="cls-22" d="M15.55,4.19c.02.06,0,.13-.04.14-.04.01-.09-.03-.1-.1-.02-.06,0-.13.04-.14.04-.01.09.03.1.1"/>
            <path class="cls-23" d="M15.5,4.33s-.08-.04-.09-.1c-.02-.07,0-.13.04-.14.02,0,.03,0,.05,0,.03.02.05.05.06.09h0s-.03-.07-.06-.09c-.01,0-.03-.01-.04,0-.04.01-.05.07-.04.13.02.06.06.1.1.09.04-.01.06-.07.04-.13h0c.02.06,0,.13-.04.14,0,0,0,0-.01,0Z"/>
          </g>
          <path class="cls-2" d="M15.46,4.28s.06-.02.05-.06c0-.04-.03-.09-.03-.09,0,0,.04.04.04.08,0,.04,0,.05-.02.06-.01,0-.03,0-.05,0Z"/>
        </g>
        <g>
          <g>
            <path class="cls-22" d="M18.63,4.21c-.02.06-.06.11-.1.1-.04,0-.06-.07-.04-.13.02-.06.06-.11.1-.1.04,0,.06.07.04.13"/>
            <path class="cls-23" d="M18.54,4.32s0,0-.01,0c-.01,0-.03-.01-.04-.03-.02-.03-.02-.07,0-.11,0-.04.03-.08.06-.09.01,0,.03-.01.04,0,.01,0,.03.01.04.03.02.03.02.07.01.11h0s0-.08-.01-.11c0-.01-.02-.02-.03-.02-.01,0-.03,0-.04,0-.03.02-.05.05-.06.09,0,.04,0,.08,0,.1,0,.01.02.02.03.03,0,0,0,0,0,0,.04,0,.07-.04.09-.1h0c-.02.06-.05.11-.09.11Z"/>
          </g>
          <path class="cls-2" d="M18.51,4.24s.06.01.07-.02c.02-.04.02-.09.02-.09,0,0,.02.06,0,.09-.02.04-.03.04-.05.05-.01,0-.03-.01-.04-.03Z"/>
        </g>
      </g>
      <g>
        <path class="cls-4" d="M16.89,1.91v.2s-.23.02-.24.04c-.05.1.06.24.06.24,0,0,.08-.06.28-.06s.29.05.29.05c0,0,.05-.08.05-.14s-.02-.12-.02-.12c0,0-.1-.01-.13-.01h-.09v-.21s-.21,0-.21,0h0Z"/>
        <path class="cls-24" d="M16.71,2.4s-.1-.14-.06-.25c0-.02.24-.04.25-.04v-.2s0,0,0,0h.2s0,.2,0,.2h.08s.13.01.13.01c0,0,.02.06.02.12s-.05.14-.05.14c0,0-.1-.05-.29-.05-.2,0-.28.06-.28.06ZM16.89,1.91v.2c-.07,0-.23.03-.24.04-.05.1.05.24.06.24,0,0,.08-.06.28-.06s.29.05.29.05c0,0,.05-.08.05-.14s-.02-.12-.02-.12h0s-.1-.01-.13-.01h-.09v-.21s-.21,0-.21,0Z"/>
      </g>
      <g>
        <path class="cls-20" d="M17.23,2.22s-.02.04-.04.04c-.02,0-.04-.02-.04-.04,0-.02.02-.04.04-.04.02,0,.04.02.04.04M17.33,2.24s-.02.04-.04.04c-.02,0-.04-.02-.04-.04,0-.02.02-.04.04-.04.02,0,.04.02.04.04M17.13,2.22s-.02.04-.04.04c-.02,0-.04-.02-.04-.04,0-.02.02-.04.04-.04.02,0,.04.02.04.04M16.94,2.22s-.02.04-.04.04c-.02,0-.04-.02-.04-.04,0-.02.02-.04.04-.04.02,0,.04.02.04.04M16.83,2.23s-.02.04-.04.04c-.02,0-.04-.02-.04-.04,0-.02.02-.04.04-.04.02,0,.04.02.04.04M17.03,2.1s-.02.04-.04.04c-.02,0-.04-.02-.04-.04,0-.02.02-.04.04-.04.02,0,.04.02.04.04M17.03,1.94s-.02.04-.04.04c-.02,0-.04-.02-.04-.04,0-.02.02-.04.04-.04.02,0,.04.02.04.04M17.03,2.03s-.02.04-.04.04c-.02,0-.04-.02-.04-.04,0-.02.02-.04.04-.04.02,0,.04.02.04.04"/>
        <path class="cls-18" d="M17.29,2.29s-.04-.02-.04-.04.02-.04.04-.04c.02,0,.04.02.04.04h0s-.02.04-.04.04ZM17.29,2.2s-.04.02-.04.04.02.04.04.04.04-.02.04-.04c0-.02-.02-.04-.04-.04ZM16.78,2.27s-.04-.02-.04-.04.02-.04.04-.04.04.02.04.04c0-.02-.02-.04-.04-.04s-.04.02-.04.04.02.04.04.04.04-.02.04-.04h0s-.02.04-.04.04ZM16.89,2.26s-.04-.02-.04-.04.02-.04.04-.04.04.02.04.04c0-.02-.02-.04-.04-.04s-.04.02-.04.04.02.04.04.04.04-.02.04-.04h0s-.02.04-.04.04ZM17.19,2.26s-.04-.02-.04-.04.02-.04.04-.04.04.02.04.04h0s-.02.04-.04.04ZM17.19,2.18s-.04.02-.04.04.02.04.04.04.04-.02.04-.04c0-.02-.02-.04-.04-.04ZM17.09,2.26s-.04-.02-.04-.04.02-.04.04-.04.04.02.04.04c0-.02-.02-.04-.04-.04s-.04.02-.04.04.02.04.04.04.04-.02.04-.04h0s-.02.04-.04.04ZM16.99,2.14s-.02,0-.03-.01c0,0-.01-.02-.01-.03s0-.02.01-.03c0,0,.02-.01.03-.01h0s.04.02.04.04h0s-.02.04-.04.04h0ZM16.99,2.07s-.02,0-.03.01c0,0-.01.02-.01.03s0,.02.01.02c0,0,.02.01.03.01h0s.04-.02.04-.04c0-.02-.02-.04-.04-.04h0ZM16.99,2.06s-.02,0-.03-.01c0,0-.01-.02-.01-.03s0-.02.01-.03c0,0,.02-.01.03-.01h0s.04.02.04.04c0-.02-.02-.04-.04-.04h0s-.02,0-.02.01c0,0-.01.02-.01.03s0,.02.01.03c0,0,.02.01.03.01h0s.04-.02.04-.04h0s-.02.04-.04.04h0ZM16.99,1.97s-.02,0-.03-.01c0,0-.01-.02-.01-.03,0-.02.02-.04.04-.04h0s.04.02.04.04c0-.02-.02-.04-.04-.04h0s-.04.02-.04.04c0,0,0,.02.01.02,0,0,.02.01.03.01h0s.04-.02.04-.04h0s-.02.04-.04.04h0Z"/>
      </g>
      <g>
        <path class="cls-20" d="M16.71,2.26s-.02.04-.04.04c-.02,0-.04-.02-.04-.04,0-.02.02-.04.04-.04.02,0,.04.02.04.04"/>
        <path class="cls-18" d="M16.67,2.3s-.04-.02-.04-.04.02-.04.04-.04c.02,0,.04.02.04.04,0-.02-.02-.04-.04-.04-.02,0-.04.02-.04.04s.02.04.04.04.04-.02.04-.04h0s-.02.04-.04.04Z"/>
      </g>
      <g>
        <path class="cls-1" d="M17.04,2.21s-.02.05-.05.05c-.03,0-.05-.02-.05-.04,0-.02.02-.05.05-.05.03,0,.05.02.05.04"/>
        <path class="cls-28" d="M16.99,2.26s-.05-.02-.05-.05.02-.05.05-.05c.03,0,.05.02.05.05,0-.02-.02-.04-.05-.04-.03,0-.05.02-.05.04s.02.04.05.04.05-.02.05-.04h0s-.02.05-.05.05Z"/>
      </g>
      <g>
        <g>
          <path class="cls-22" d="M17.08,1.61s-.04.09-.09.09c-.05,0-.09-.04-.09-.09,0-.05.04-.09.09-.09.05,0,.09.04.09.09"/>
          <path class="cls-23" d="M16.99,1.7s-.09-.04-.09-.09.04-.09.09-.09h0s.09.04.09.09c0-.05-.04-.09-.09-.09h0s-.09.04-.09.09.04.09.09.09.09-.04.09-.09h0s-.04.09-.09.09Z"/>
        </g>
        <path class="cls-2" d="M16.95,1.66s.07,0,.08-.03,0-.07,0-.07c0,0,.03.04.02.07,0,.03-.02.04-.04.04-.02,0-.04,0-.05-.01Z"/>
      </g>
      <g>
        <path class="cls-3" d="M15.59,4.61s.08.07.1.14c.02.07.05.24.05.24,0,0,.82-.23,1.23-.21.4.02,1.34.22,1.34.22,0,0,.02-.1.03-.2.02-.1.09-.22.09-.22,0,0-.89-.28-1.45-.25s-.84.09-.97.13c-.13.04-.43.16-.43.16h0Z"/>
        <path class="cls-24" d="M18.31,5s-.94-.2-1.34-.22c-.02,0-.03,0-.05,0-.41,0-1.17.21-1.18.21,0,0-.03-.18-.05-.24-.02-.06-.1-.13-.1-.14h0s0,0,0,0c.02,0,.32-.12.43-.16.11-.04.39-.1.97-.13.03,0,.05,0,.08,0,.56,0,1.37.25,1.38.25,0,0-.08.12-.09.22-.02.1-.03.2-.03.2ZM16.92,4.78s.03,0,.05,0c.4.02,1.33.22,1.34.22,0,0,.02-.1.03-.2.02-.1.09-.22.09-.22,0,0-.82-.25-1.38-.25-.03,0-.05,0-.08,0-.58.03-.85.09-.97.13-.12.04-.41.15-.42.16,0,0,.08.08.1.14.02.06.05.24.05.24,0,0,.77-.21,1.18-.21Z"/>
      </g>
      <g>
        <path class="cls-3" d="M16.82,1.28h.35s-.09.06-.11.12c-.02.05-.01.13-.01.13,0,0,.1,0,.14-.04s.13-.1.13-.1v.45s-.09-.08-.14-.11c-.04-.02-.08-.04-.13-.05,0,0,0,.07.03.12s.15.21.15.21l-.51.02s.12-.13.17-.22c.03-.06.02-.12.02-.12,0,0-.09,0-.13.03-.04.03-.12.12-.12.12v-.43s.03.08.1.12c.07.03.14.02.14.02,0,0,.01-.09-.02-.14-.03-.05-.09-.12-.09-.11Z"/>
        <path class="cls-24" d="M16.74,2.03s.12-.13.17-.22c.03-.06.02-.12.02-.12,0,0-.08,0-.13.03-.04.03-.12.12-.12.12v-.43s.03.08.1.12c.07.03.13.01.14.02,0,0,.01-.09-.02-.14-.02-.04-.05-.08-.07-.1-.01-.01-.01-.02-.01-.02h0s0,0,0,0h.35s-.09.06-.1.12c-.01.05-.01.13-.01.13,0,0,.1,0,.14-.04.04-.04.13-.1.13-.1v.45s-.09-.08-.14-.11c-.04-.02-.08-.04-.13-.04,0,0,0,.07.03.11.03.04.15.2.15.21l-.51.02ZM16.93,1.68s.01.06-.02.12c-.05.09-.17.22-.17.22l.51-.02s-.12-.16-.15-.2c-.03-.04-.03-.12-.03-.12.05,0,.09.02.13.04.05.03.14.11.14.11v-.45s-.09.07-.13.1c-.04.04-.14.04-.14.04,0,0,0-.08,0-.13.02-.06.11-.12.11-.12h-.35s0,0,0,0h0s0,0,.01.02c.02.02.05.06.07.1.03.05.02.14.02.14,0,0-.07.02-.14-.01-.07-.03-.1-.12-.1-.12v.43s.08-.09.12-.12c.04-.03.13-.03.13-.03Z"/>
      </g>
      <g>
        <path class="cls-3" d="M16.79,2.71s-.25,0-.47-.13c-.22-.13-.43-.26-.75-.19-.07.02-.31.12-.41.46-.07.24.01.53.09.66.08.13.2.26.2.26l.13-.09s-.33-.28-.29-.65.22-.45.22-.45c0,0,.22-.18.53,0,.3.17.6.24.6.24,0,0,.28.07.3.06s-.14-.19-.13-.19h0Z"/>
        <path class="cls-18" d="M15.44,3.78s-.12-.13-.2-.26c-.07-.13-.16-.42-.09-.66.12-.39.41-.46.41-.47.32-.08.53.06.74.18h0c.21.13.46.14.47.14h0s.01.02.03.04c.06.07.11.14.11.15h0s-.07-.1-.11-.15c-.02-.03-.03-.03-.03-.04-.02,0-.26,0-.47-.13h-.01c-.21-.13-.43-.26-.74-.19,0,0-.29.07-.41.46-.08.24.01.53.09.66.08.13.2.26.2.26l.13-.09s-.33-.28-.29-.65.22-.45.22-.45c0,0,.23-.17.53,0,.3.17.59.24.6.24,0,0,.24.06.29.06-.06,0-.28-.06-.29-.06,0,0-.3-.08-.6-.24-.3-.17-.52,0-.52,0,0,0-.18.09-.22.45-.04.36.29.64.29.65l-.13.09Z"/>
      </g>
      <g>
        <path class="cls-3" d="M15.4,4.08l-.13-.26.4-.16s-.1.13-.12.22c-.03.11-.02.21-.02.21,0,0,.04-.03.08-.1.04-.06.09-.26.09-.26l.18.58s-.09-.09-.16-.1c-.07-.01-.16.01-.16.01l-.11.03-.06-.17h0Z"/>
        <path class="cls-24" d="M15.88,4.3s-.1-.09-.16-.1c-.08-.01-.16.01-.17.01l-.11.03-.06-.17-.13-.26.4-.16s-.1.13-.12.22c-.03.11-.02.2-.02.21,0,0,.04-.03.08-.1.04-.05.09-.26.09-.26l.16.52-.16-.52s-.06.2-.09.26c-.05.07-.08.1-.08.1,0,0-.01-.1.02-.21.02-.09.12-.22.12-.22l-.4.16.13.26.06.17.11-.03s.09-.02.17-.01c.06.01.16.1.16.1Z"/>
      </g>
      <g>
        <path class="cls-3" d="M17.25,2.7s.25,0,.47-.13c.22-.13.43-.26.75-.19.07.02.31.12.41.46.07.24-.01.53-.09.66-.08.13-.13.21-.13.21l-.16-.06s.29-.26.25-.62c-.04-.36-.22-.45-.22-.45,0,0-.22-.18-.53,0-.3.17-.6.24-.6.24,0,0-.28.07-.3.06-.02,0,.14-.19.13-.19h0Z"/>
        <path class="cls-18" d="M18.67,3.72l-.16-.06s.29-.26.25-.62c-.04-.36-.22-.45-.22-.45,0,0-.23-.17-.53,0-.3.17-.59.24-.6.24-.01,0-.26.06-.3.06,0,0,0,0,0,0,0,0,0,0,0,0,.04,0,.3-.06.3-.06,0,0,.3-.08.6-.24.29-.17.52,0,.53,0,0,0,.18.09.22.45s-.24.62-.25.62l.16.05s.05-.08.13-.21c.07-.13.16-.42.09-.66-.12-.39-.41-.46-.41-.46-.32-.07-.53.05-.74.18h-.01c-.21.13-.45.14-.47.14,0,0,0,0-.02.03-.03.04-.09.11-.11.14.01-.03.06-.08.11-.14,0-.01.02-.02.02-.03h0,0s.26,0,.47-.13h.01c.21-.13.43-.26.74-.19,0,0,.29.07.41.47.07.24-.01.54-.09.66-.08.13-.13.21-.13.21Z"/>
      </g>
      <g>
        <path class="cls-15" d="M17.12,2.45h.11v.98h-.11v-.98ZM16.76,2.45h.12v.98h-.12v-.98Z"/>
        <path class="cls-18" d="M17.12,3.44v-.98s0,0,0,0h.1v.98s-.1,0-.1,0ZM17.12,2.46v.98h.1s0-.98,0-.98h-.1ZM16.76,3.43v-.98s0,0,0,0h.12v.98s-.12,0-.12,0ZM16.76,2.45v.98h.12s0-.98,0-.98h-.12Z"/>
      </g>
      <g>
        <path class="cls-15" d="M17.33,2.22c0,.17-.15.32-.34.32-.19,0-.34-.14-.34-.31,0-.17.15-.32.34-.32.19,0,.34.14.35.31"/>
        <path class="cls-18" d="M16.99,2.54c-.19,0-.34-.14-.34-.32,0-.08.04-.16.1-.22.07-.06.15-.09.24-.09h0c.09,0,.19.04.25.1.06.06.09.13.09.21,0-.08-.04-.15-.09-.21-.06-.06-.16-.1-.25-.1h0c-.09,0-.18.03-.24.09s-.1.14-.1.22c0,.17.15.31.34.31h0c.19,0,.34-.14.34-.31h0c0,.17-.15.32-.34.32h0Z"/>
      </g>
      <g>
        <path class="cls-3" d="M16.69,3.43h.59s-.07.04-.13.14-.05.17-.05.17c0,0,.09,0,.15-.05.06-.05.13-.13.13-.13v.54s-.05-.07-.12-.11c-.07-.04-.17-.04-.17-.04h-.2s-.09,0-.13.03c-.06.04-.13.11-.13.11v-.51s.02.09.11.13c.09.04.15.03.15.03,0,0,0-.12-.05-.18-.05-.06-.16-.14-.16-.14h0Z"/>
        <path class="cls-24" d="M17.38,4.11s-.04-.07-.11-.11c-.07-.04-.17-.04-.17-.04h-.2s-.09,0-.13.03c-.06.04-.13.11-.13.11v-.51s.02.09.11.13c.08.03.12.03.14.03,0,0,0,0,0,0,0,0,0-.11-.05-.17-.04-.04-.11-.1-.14-.13-.02-.01-.02-.02-.02-.02h0s.59,0,.59,0c0,0-.07.04-.13.15-.06.1-.05.17-.05.17,0,0,.09,0,.15-.05.06-.05.13-.13.13-.13v.55ZM16.9,3.95h.2s.1,0,.17.04c.07.04.11.11.11.11v-.54s-.07.09-.13.13c-.06.05-.15.05-.15.05,0,0,0-.07.05-.17.06-.1.13-.15.13-.15h-.59s0,.01.02.02c.03.03.1.08.14.13.05.06.05.17.05.18,0,0-.06,0-.15-.03-.09-.04-.12-.13-.12-.13v.51s.08-.08.14-.11c.04-.03.13-.03.13-.03Z"/>
      </g>
      <g>
        <path class="cls-7" d="M17.02,3.86s.09.2.19.29c.06.05.23.09.31.07.18-.05.3-.19.3-.19,0,0,0,.16.11.24.11.09.2.11.29.08.09-.03.36-.22.36-.22l.05.05s-.15.15-.31.22c-.08.04-.33.02-.41-.05-.08-.06-.13-.22-.13-.22,0,0-.05.1-.15.13-.11.04-.25.03-.39,0-.09-.03-.21-.15-.23-.19-.02-.04-.02-.06-.02-.06,0,0-.07.19-.2.24-.13.05-.28.05-.41.01-.13-.04-.14-.11-.14-.11,0,0,0,.2-.29.26-.28.06-.5-.15-.5-.15l.04-.06s.16.18.4.16c.24-.02.32-.32.32-.32,0,0,.11.16.39.16.28,0,.36-.36.36-.36h.05s0,0,0,0Z"/>
        <path class="cls-24" d="M15.86,4.43c-.23,0-.4-.16-.4-.16l.04-.06s.15.16.37.16c0,0,.02,0,.03,0,.24-.02.32-.32.32-.32,0,0,.11.16.39.16h0c.27,0,.36-.36.36-.36h.05s.09.21.19.3c.06.05.23.09.31.07.18-.05.3-.19.3-.19,0,0,0,.16.11.24.11.08.2.11.29.08.09-.03.35-.22.35-.22l.05.05s-.15.15-.31.22c-.08.04-.33.02-.41-.05-.08-.06-.13-.22-.13-.22,0,0-.05.1-.15.14-.1.04-.25.03-.39,0-.09-.03-.21-.15-.23-.19-.02-.04-.02-.06-.02-.06,0,.02-.07.19-.2.24-.12.05-.27.05-.41.01-.12-.03-.14-.1-.14-.11,0,0-.02.2-.29.26-.03,0-.07.01-.1.01ZM15.5,4.21l-.04.06s.22.2.5.15c.27-.06.29-.26.29-.26,0,0,.01.07.14.11.13.04.28.03.41-.01.14-.05.2-.24.2-.24,0,0,0,.02.02.06.02.04.14.17.23.19.13.04.28.04.39,0,.1-.03.15-.13.15-.14,0,0,.05.16.13.22.08.07.33.08.41.05.16-.08.31-.22.31-.22l-.05-.05s-.26.2-.35.22c-.09.03-.19,0-.29-.08-.11-.09-.11-.24-.11-.24,0,0-.12.14-.3.19-.08.02-.26-.02-.31-.07-.1-.09-.18-.28-.19-.29h-.05s-.08.36-.36.36c0,0,0,0,0,0-.28,0-.39-.16-.39-.16,0,0-.08.31-.32.32,0,0-.02,0-.03,0-.22,0-.37-.16-.37-.16Z"/>
      </g>
      <g>
        <g>
          <path class="cls-3" d="M16.32,3.97s0-.1.02-.13c.03-.04.07-.04.09-.04.03,0,.05.03.05.1,0,.07-.02.1,0,.13.02.03.02.04.06.04.04,0,.06-.02.05-.06,0-.04-.02,0-.03-.03,0-.03.04-.16.03-.24,0-.08-.04-.14-.1-.16-.06-.01-.11-.01-.16.02-.05.04-.12.16-.12.16v.26s.11,0,.11,0v-.06s0,0,0,0Z"/>
          <path class="cls-24" d="M16.53,4.07s-.03-.01-.04-.03c0,0,0,0,0-.01-.01-.02,0-.04,0-.07,0-.02,0-.04,0-.06,0-.07-.02-.09-.05-.1,0,0-.06-.01-.09.04-.02.03-.02.12-.02.13v.06s-.11,0-.11,0v-.26s.07-.12.12-.16c.05-.03.09-.04.16-.03.06.01.09.07.1.16,0,.05,0,.11-.02.16,0,.04-.01.07-.01.08,0,0,0,.01,0,.01,0,0,0,0,0,0,0,0,0,0,0,0,0,0,0,0,0,.02,0,.02,0,.03,0,.04,0,.01-.02.02-.05.02,0,0,0,0-.01,0ZM16.42,3.8s.01,0,.02,0c.02,0,.05.03.05.1,0,.02,0,.04,0,.06,0,.03,0,.05,0,.07,0,0,0,0,0,.01.01.02.02.03.05.02.02,0,.04,0,.04-.02,0,0,0-.02,0-.03,0,0,0-.01,0-.02,0,0,0,0,0,0,0,0,0,0,0,0,0,0,0,0,0-.01,0-.01,0-.04.01-.08,0-.05.02-.11.02-.16,0-.09-.04-.14-.1-.16-.06-.02-.11-.02-.16.02-.05.04-.12.16-.12.16v.26s.1,0,.1,0v-.06s0-.1.02-.13c.02-.03.05-.04.07-.04Z"/>
        </g>
        <g>
          <path class="cls-3" d="M16.12,4.04s-.04-.09-.07-.11c-.04-.03-.08-.01-.1,0-.02.02-.04.05,0,.11.03.06.06.08.05.12,0,.03,0,.05-.04.06-.04.01-.06,0-.07-.03,0-.04.02,0,.01-.04,0-.03-.1-.13-.12-.21-.03-.08-.02-.15.03-.19.05-.04.09-.06.16-.04.06.01.17.1.17.1l.11.24-.1.04-.02-.05Z"/>
          <path class="cls-24" d="M15.93,4.23s-.02,0-.02,0c0,0-.01-.02-.02-.03,0,0,0-.02,0-.02,0,0,.01,0,.01,0,0,0,0,0,0-.01,0-.01-.02-.04-.04-.07-.03-.04-.07-.1-.08-.14-.03-.08-.02-.15.03-.19.05-.04.1-.06.16-.04.06.01.17.1.17.1l.11.24-.1.04-.02-.05s-.04-.09-.07-.11c-.04-.03-.08-.01-.1,0-.03.02-.03.06,0,.11.01.02.02.04.03.05.02.03.03.04.02.06,0,0,0,.01,0,.02,0,.02,0,.04-.04.05-.01,0-.02,0-.03,0ZM15.92,3.71s-.07.01-.11.05c-.04.03-.05.1-.03.18.01.04.05.1.08.14.02.03.04.06.04.07,0,0,0,.01,0,.01,0,0,0,0-.01,0,0,0,0,0,0,.02,0,.02,0,.02.02.03.01,0,.02,0,.05,0,.03,0,.03-.02.04-.04,0,0,0,0,0-.01,0-.02,0-.04-.02-.06,0-.01-.02-.03-.03-.05-.03-.05-.02-.09,0-.11.02-.02.06-.03.1,0,.03.02.07.1.07.11l.02.05.1-.04-.11-.24s-.11-.09-.17-.1c-.01,0-.03,0-.04,0Z"/>
        </g>
        <g>
          <path class="cls-3" d="M16.1,3.26s-.1.18-.08.31c.02.13.16.42.16.42v.04s.08,0,.08,0l-.02-.04s.04-.35.01-.46c-.02-.08-.15-.27-.15-.27h0ZM16.27,4.07s.05.06.11.09c.07.03.1.03.12.01.02-.01.01-.08-.01-.1s-.05,0-.05,0c0,.03-.02.03-.04.02-.03-.02-.1-.06-.1-.06l-.03.03ZM16.19,4.08s-.02.08-.07.13c-.05.06-.07.07-.11.06-.02,0-.04-.07-.03-.09.01-.03.04-.03.05-.01.02.02.03.02.04,0,.02-.03.07-.1.07-.1h.04s0,.01,0,.01Z"/>
          <path class="cls-24" d="M16.03,4.28s-.01,0-.02,0c0,0-.02-.01-.03-.03,0-.02-.01-.05,0-.06,0-.01.02-.02.03-.02,0,0,.02,0,.02,0,0,.01.01.02.02.02h0s.01,0,.02-.02c.02-.03.07-.1.07-.1h.04s-.02.09-.07.14c-.04.05-.06.06-.09.06ZM16.02,4.16s0,0,0,0c-.01,0-.02,0-.03.02,0,.02,0,.04,0,.06,0,.02.02.03.02.03.04,0,.06,0,.11-.06.04-.05.06-.12.07-.13h-.04s-.05.06-.07.09c0,.01-.01.02-.02.02h0s-.01,0-.02-.02c0,0,0,0-.02,0ZM16.47,4.19s-.05,0-.08-.03c-.06-.03-.11-.09-.12-.09h0s.03-.03.03-.03h0s.07.04.1.06c.01,0,.02,0,.03,0,0,0,0,0,.01-.02,0,0,0-.01.02-.02.01,0,.03,0,.04,0,.01.01.02.04.02.06,0,.02,0,.03-.01.04-.01,0-.02.01-.04.01ZM16.27,4.07s.06.06.11.09c.07.03.1.03.12.01,0,0,.01-.02.01-.04,0-.02,0-.05-.02-.06-.01,0-.02-.01-.04,0,0,0-.01,0-.01.02,0,.01,0,.02-.01.02,0,0-.01,0-.03,0-.03-.02-.1-.06-.1-.06l-.03.03ZM16.18,4.04v-.04s-.14-.29-.16-.42c-.02-.13.08-.31.08-.31h0,0s0,0,0,0c.02.03.14.19.15.27.02.11-.01.45-.01.46l.02.04h-.08ZM16.1,3.27s-.1.18-.08.31c.02.13.16.42.16.42v.04s.08,0,.08,0l-.02-.04s.04-.35.01-.46c-.01-.07-.13-.24-.15-.27h0Z"/>
        </g>
        <g>
          <path class="cls-15" d="M16.38,4.02s-.07.05-.15.07-.16,0-.17-.01c0-.02.06-.05.15-.07.09-.02.16,0,.17.01"/>
          <path class="cls-24" d="M16.14,4.09s-.08,0-.08-.02c0,0,0,0,0-.01.01-.02.08-.05.15-.06.09-.01.17,0,.17.02h0s0,0,0,.01c-.02.02-.08.05-.15.06-.03,0-.06,0-.09,0ZM16.3,4s-.06,0-.09,0c-.07.01-.13.04-.15.06,0,0,0,0,0,.01,0,.02.08.03.17.01.07-.01.13-.04.15-.06,0,0,0,0,0-.01h0s-.03-.02-.08-.02Z"/>
        </g>
      </g>
      <g>
        <g>
          <path class="cls-3" d="M17.92,4.01s.04-.09.07-.11c.04-.03.08-.02.1,0,.02.02.04.05.01.11-.03.06-.06.09-.05.12,0,.03,0,.05.05.06.04,0,.06,0,.06-.03,0-.04-.02,0-.02-.04,0-.03.09-.14.11-.22.02-.08.02-.15-.04-.18-.05-.03-.09-.05-.16-.03-.06.02-.17.11-.17.11l-.09.25.1.03.02-.05h0Z"/>
          <path class="cls-24" d="M18.11,4.19s-.02,0-.03,0c-.03,0-.04-.02-.04-.04,0,0,0,0,0-.01,0-.02,0-.04.02-.07,0-.01.02-.03.03-.05.03-.06,0-.09-.01-.11-.01-.01-.05-.02-.1,0-.03.02-.06.11-.07.11l-.02.05-.1-.03.09-.25s.11-.09.17-.11c.06-.02.11,0,.16.03.05.03.06.1.04.18-.01.05-.05.1-.07.14-.02.03-.04.06-.04.07,0,0,0,.01,0,.01,0,0,0,0,.01,0,0,0,0,0,0,.02,0,.02,0,.03-.02.03,0,0-.01,0-.02,0ZM18.04,3.88s.04,0,.05.01c.02.01.04.05.01.11,0,.02-.02.04-.03.05-.02.03-.03.04-.02.06,0,0,0,.01,0,.02,0,.02,0,.03.04.04.02,0,.04,0,.05,0,0,0,.01-.02.01-.03,0,0,0-.01,0-.02,0,0,0,0-.01,0,0,0,0,0,0-.01,0-.01.02-.04.04-.07.03-.04.06-.1.07-.14.02-.08.01-.15-.04-.18-.03-.02-.07-.04-.11-.04-.01,0-.03,0-.05,0-.06.02-.16.11-.17.11l-.09.25.1.03.02-.05s.04-.09.07-.11c.02-.01.04-.02.05-.02Z"/>
        </g>
        <g>
          <path class="cls-3" d="M17.7,4.01s0-.1-.03-.13c-.03-.04-.07-.04-.09-.03-.03,0-.05.03-.04.1,0,.07.03.1,0,.13-.02.03-.02.04-.06.04-.04,0-.06-.02-.05-.05,0-.04.02,0,.03-.03,0-.03-.05-.16-.04-.24,0-.08.03-.15.09-.16.06-.02.1-.02.16.02.05.03.13.15.13.15l.02.26h-.11s0-.06,0-.06h0Z"/>
          <path class="cls-24" d="M17.5,4.12s0,0,0,0c-.02,0-.04,0-.05-.02,0,0,0-.02,0-.04,0,0,0-.02,0-.02,0,0,0,0,0,0s0,0,0,0c0,0,0,0,0-.01,0-.01,0-.05-.02-.08-.01-.05-.03-.11-.03-.16,0-.09.04-.15.09-.17.05-.01.1-.02.16.02.05.03.12.15.13.15v.26s-.09,0-.09,0v-.06s0-.1-.03-.13c-.03-.04-.07-.04-.09-.03-.02,0-.05.03-.04.1,0,.02,0,.04.01.06,0,.03.01.05,0,.07,0,0,0,0,0,.01-.01.02-.02.03-.04.03ZM17.45,4.05s0,0,0,0c0,0,0,0,0,.02,0,.02,0,.03,0,.03,0,0,.02.01.04.02,0,0,0,0,.01,0,.02,0,.03-.01.04-.03,0,0,0,0,0-.01.01-.02,0-.04,0-.07,0-.02,0-.04-.01-.06,0-.07.02-.09.04-.1.03,0,.06,0,.09.03.02.03.03.12.03.13v.06h.11s-.02-.26-.02-.26c0,0-.07-.12-.12-.15-.05-.03-.09-.04-.16-.02-.05.02-.09.08-.09.16,0,.05.01.11.03.16,0,.04.02.07.02.08,0,0,0,.01,0,.01t0,0s0,0,0,0Z"/>
        </g>
        <g>
          <path class="cls-3" d="M17.96,3.27s-.16.13-.18.26c-.03.13,0,.45,0,.45v.04s.06.02.06.02v-.04s.15-.31.17-.42c.01-.08-.05-.3-.05-.31h0ZM17.83,4.08s.03.08.07.13c.05.05.08.06.11.06.02,0,.04-.07.02-.09s-.04-.03-.05-.01c-.02.02-.02.02-.04,0-.02-.03-.07-.09-.07-.09h-.04s0,.01,0,.01ZM17.75,4.07s-.05.07-.11.1c-.07.04-.09.04-.12.02-.02-.01-.02-.08,0-.1.02-.02.05-.01.05,0,0,.03.02.03.04.01.03-.02.1-.07.1-.07l.03.02h0Z"/>
          <path class="cls-24" d="M18,4.27s-.05-.02-.09-.06c-.05-.05-.07-.13-.07-.13h0s.04-.01.04-.01c0,0,.05.07.08.09,0,0,.01.01.02.01h0s.01,0,.02-.02c0,0,.01-.01.02-.01h0s.03,0,.03.02c0,.02,0,.04,0,.07,0,.02-.01.03-.02.03,0,0-.01,0-.02,0ZM17.83,4.08s.03.08.07.13c.05.05.08.06.11.05,0,0,.02-.01.02-.03,0-.02.01-.05,0-.06,0-.01-.02-.02-.03-.02h0s-.01,0-.02,0c0,.01-.01.02-.02.02h0s-.01,0-.02-.02c-.02-.03-.07-.09-.08-.09h-.04ZM17.56,4.2s-.03,0-.04-.01c0,0-.01-.02-.02-.03,0-.02,0-.05.02-.06.01,0,.03-.01.04-.01,0,0,.02,0,.02.02,0,.01,0,.02.01.02,0,0,0,0,0,0,0,0,.01,0,.02,0,.03-.02.1-.07.1-.07l.04.02s-.05.07-.11.1c-.04.02-.06.03-.09.03ZM17.55,4.08s-.02,0-.03.01c-.01.01-.02.04-.02.06,0,.02,0,.03.01.03.03.02.05.02.12-.02.05-.03.1-.09.11-.1l-.03-.02s-.07.05-.1.07c0,0-.02.01-.03,0,0,0-.01,0-.01-.02,0,0,0-.01-.02-.01,0,0,0,0,0,0ZM17.84,4.04l-.07-.02v-.04s-.02-.32,0-.45c.03-.13.18-.26.18-.26h0s.06.22.05.31c-.02.11-.17.42-.17.42v.04ZM17.96,3.27s-.16.13-.18.26c-.03.13,0,.45,0,.45v.04s.06.02.06.02v-.04s.15-.31.17-.42c.01-.08-.04-.29-.05-.31Z"/>
        </g>
        <g>
          <path class="cls-15" d="M17.96,4.08s-.08.03-.17.01-.16-.05-.15-.07c0-.02.08-.03.17-.01.09.02.16.05.15.07"/>
          <path class="cls-24" d="M17.89,4.1s-.06,0-.1-.01c-.09-.02-.16-.05-.15-.07,0,0,0,0,0-.01.02-.02.09-.02.16,0,.09.02.16.05.15.07h0s-.03.02-.07.02ZM17.71,3.99s-.05,0-.06.01c0,0,0,0,0,0,0,.02.06.05.15.07.09.02.16.01.17,0h0s-.06-.05-.15-.07c-.04,0-.07-.01-.1-.01Z"/>
        </g>
      </g>
      <g>
        <path class="cls-5" d="M15.56,4.6s.02.07.06.03c.04-.04.61-.26,1.41-.26s1.33.22,1.36.23c.03.01.04.03.07,0,.03-.03-.03-.08-.03-.08,0,0-.56-.24-1.43-.23-.87,0-1.44.25-1.44.25,0,0-.04.03-.01.06h0Z"/>
        <path class="cls-24" d="M15.59,4.65s0,0,0,0c-.02,0-.03-.04-.03-.04,0,0-.01-.02,0-.02,0-.02.02-.03.02-.03,0,0,.58-.25,1.44-.25h.02c.85,0,1.41.23,1.41.23,0,0,.03.03.04.06,0,0,0,.02,0,.02-.02.03-.04.02-.06,0,0,0,0,0-.02,0-.02,0-.54-.23-1.36-.23s-1.37.22-1.41.26c0,0-.02.01-.02.01ZM17.03,4.3h-.02c-.86,0-1.43.25-1.44.25,0,0-.02.01-.02.03,0,0,0,.02,0,.02h0s0,.04.03.04c0,0,.02,0,.03-.01.04-.04.61-.26,1.41-.26s1.34.23,1.36.23c0,0,.01,0,.02,0,.02.01.03.02.06,0,0,0,0-.01,0-.02,0-.03-.04-.06-.04-.06,0,0-.56-.23-1.41-.23Z"/>
      </g>
      <path class="cls-6" d="M16.58,4.94s.03-.07.07-.09c.04-.01.09.02.09.02,0,0-.07,0-.09,0-.02.01-.02.04-.02.04,0,0,.01-.03.07-.02.05,0,.06,0,.06,0,0,0-.09,0-.11.03-.02.03.08.04.08.04,0,0-.16,0-.18,0s-.03-.04-.07-.03c-.04.01-.07.04-.07.04,0,0,.04-.07.07-.07s.04,0,.06,0,.04.02.04.02ZM15.98,5.06s.01-.07.05-.1c.03-.02.09,0,.09,0,0,0-.07,0-.09.02-.02.01-.02.05-.02.05,0,0,0-.03.06-.04.05,0,.06,0,.06,0,0,0-.09.02-.1.05-.02.03.09.02.09.02,0,0-.16.03-.18.02-.02,0-.04-.04-.07-.02-.03.02-.06.05-.06.05,0,0,.03-.07.05-.08.02,0,.04,0,.06,0,.02,0,.05.01.05.01h0ZM17.08,4.91s.03-.07.08-.08c.04,0,.09.03.09.03,0,0-.07-.01-.09,0-.02,0-.03.04-.03.04,0,0,.02-.02.07-.02.05,0,.06,0,.06,0,0,0-.09,0-.11.03-.02.02.08.04.08.04,0,0-.16,0-.18-.02-.02-.01-.03-.04-.07-.04-.04,0-.07.04-.07.04,0,0,.04-.07.07-.06.03,0,.04,0,.06.01.02.01.04.02.04.02ZM17.58,4.97s.04-.07.08-.07c.04,0,.09.04.09.04,0,0-.07-.02-.09,0-.02,0-.03.04-.03.04,0,0,.02-.02.07-.01.05.01.06.01.06.01,0,0-.09,0-.11.01-.02.02.08.05.08.05,0,0-.16-.03-.18-.04-.02-.01-.03-.05-.06-.04-.04,0-.08.03-.08.03,0,0,.05-.06.08-.06.03,0,.04,0,.06.02s.04.03.04.03h0ZM18.08,5.06s.04-.05.07-.05c.03,0,.07.04.07.04,0,0-.05-.02-.07-.01-.02,0-.03.03-.03.03,0,0,.02-.02.06,0,.04.01.04.01.04.01,0,0-.07-.01-.09,0-.02.02.06.05.06.05,0,0-.12-.03-.14-.04-.01-.01-.02-.04-.05-.04-.03,0-.06.02-.06.02,0,0,.05-.04.07-.04.02,0,.03,0,.05.02.02.01.03.03.03.03h0Z"/>
      <g>
        <path class="cls-11" d="M16.48,4.6c.01.06-.06.12-.16.14-.1.02-.19-.01-.2-.07-.01-.06.06-.12.16-.14.1-.02.19.01.2.07h0Z"/>
        <path class="cls-24" d="M16.26,4.75s-.08,0-.11-.03c-.02-.01-.03-.03-.04-.05-.01-.06.06-.12.16-.14.06-.01.12,0,.16.02.02.01.03.03.04.05h0s0,.04-.01.06c-.03.04-.08.07-.14.08-.02,0-.04,0-.06,0ZM16.34,4.52s-.04,0-.06,0c-.1.02-.17.08-.16.14,0,.02.02.04.04.05.04.03.1.03.16.02.06-.01.12-.04.14-.08.01-.02.02-.04.01-.06,0-.02-.02-.04-.04-.05-.03-.02-.06-.03-.1-.03Z"/>
      </g>
      <path class="cls-25" d="M16.25,4.59s-.01.03-.03.03c-.02,0-.04,0-.04-.02,0-.01.01-.03.03-.03.02,0,.04,0,.04.02Z"/>
      <g>
        <path class="cls-11" d="M17.86,4.67c-.02.06-.11.08-.21.05-.1-.03-.16-.1-.14-.16.02-.06.11-.08.21-.05.1.03.16.1.14.16Z"/>
        <path class="cls-24" d="M17.74,4.73s-.05,0-.08-.01c-.06-.02-.11-.06-.13-.1-.01-.02-.01-.04,0-.06.02-.06.11-.08.21-.05.09.03.16.1.14.16h0s-.06.06-.12.06ZM17.64,4.5c-.06,0-.11.02-.12.06,0,.02,0,.04,0,.06.02.04.07.08.13.1.1.03.19,0,.21-.05h0c.02-.06-.04-.13-.14-.16-.03,0-.06-.01-.08-.01Z"/>
      </g>
      <path class="cls-25" d="M17.67,4.55s-.02.02-.05.01c-.02,0-.03-.02-.03-.04,0-.01.02-.02.05-.01.02,0,.03.02.03.04h0Z"/>
      <g>
        <path class="cls-16" d="M16.82,4.46h.36v.18h-.36v-.18Z"/>
        <path class="cls-24" d="M16.82,4.64v-.18s0,0,0,0h.36v.18s-.36,0-.36,0ZM16.82,4.46v.18h.36s0-.18,0-.18h-.36Z"/>
      </g>
      <path class="cls-19" d="M16.97,4.5s-.02.01-.03.01-.03,0-.03-.01.02-.01.03-.01.03,0,.03.01Z"/>
      <g>
        <path class="cls-10" d="M15.8,4.64l.06.18-.11.06s-.05.04-.1,0c-.05-.03-.08-.11-.05-.14.05-.07.2-.11.2-.1h0Z"/>
        <path class="cls-24" d="M15.69,4.9s-.03,0-.04,0c-.03-.02-.06-.06-.06-.09,0-.02,0-.04,0-.05.05-.06.2-.1.21-.1h0s.06.18.06.18l-.11.06s-.03.02-.06.02ZM15.8,4.64s-.15.04-.2.1c0,.01-.01.03,0,.05,0,.03.03.07.06.09.05.03.1,0,.1,0l.11-.06-.06-.17s0,0,0,0Z"/>
      </g>
      <path class="cls-26" d="M15.71,4.77s-.02.05-.05.05-.05-.02-.05-.05.02-.05.05-.05.05.02.05.05h0Z"/>
      <path class="cls-27" d="M15.66,4.75s0,.02,0,.02c0,0-.01,0-.02,0,0,0-.01-.01-.01-.02,0,0,0-.02,0-.02,0,0,.01,0,.02,0,0,0,.01.01.01.02h0Z"/>
      <g>
        <path class="cls-10" d="M18.21,4.67l-.06.16.14.07s.06.03.1,0c.03-.03.04-.1.01-.13-.03-.03-.2-.09-.2-.09Z"/>
        <path class="cls-24" d="M18.34,4.91s-.05-.01-.05-.01l-.14-.07.06-.16h0s.17.06.2.09c.03.03.02.1-.01.13-.01.01-.03.02-.05.02ZM18.21,4.67l-.06.16.14.07s.06.03.1,0c.03-.03.04-.1.01-.13-.03-.03-.19-.09-.2-.09Z"/>
      </g>
      <path class="cls-13" d="M18.38,4.79s-.02.03-.04.03-.04-.02-.04-.03.02-.03.04-.03.04.02.04.03Z"/>
      <path class="cls-27" d="M18.33,4.79s0,.02-.01.02c0,0-.01,0-.02,0,0,0-.01-.01-.01-.02,0,0,0-.02.01-.02,0,0,.01,0,.02,0,0,0,.01.01.01.02Z"/>
      <path class="cls-14" d="M17.31,4.48s-.01.02-.03.02-.03-.01-.03-.02c0-.01.01-.02.03-.02s.03.01.03.02Z"/>
      <path class="cls-14" d="M17.46,4.49s-.01.02-.03.02-.03-.01-.03-.02c0-.01.01-.02.03-.02s.03.01.03.02Z"/>
      <path class="cls-14" d="M17.39,4.55s-.01.03-.03.03-.03-.01-.03-.03c0-.02.01-.03.03-.03s.03.01.03.03Z"/>
      <path class="cls-14" d="M17.46,4.65s-.01.02-.03.02-.03-.01-.03-.02c0-.01.01-.02.03-.02s.03.01.03.02Z"/>
      <path class="cls-14" d="M17.31,4.63s-.01.02-.03.02-.03-.01-.03-.02c0-.01.01-.02.03-.02s.03.01.03.02Z"/>
      <path class="cls-14" d="M16.57,4.5s0,.03-.02.03-.03,0-.03-.02c0-.01,0-.03.02-.03s.03,0,.03.02Z"/>
      <path class="cls-14" d="M16.72,4.48s0,.03-.02.03-.03,0-.03-.02c0-.01,0-.03.02-.03s.03,0,.03.02Z"/>
      <path class="cls-14" d="M16.66,4.55s0,.03-.02.04-.03,0-.04-.02c0-.02,0-.03.02-.04s.03,0,.04.02Z"/>
      <path class="cls-14" d="M16.76,4.63s0,.03-.02.03-.03,0-.03-.02c0-.01,0-.03.02-.03s.03,0,.03.02Z"/>
      <path class="cls-14" d="M16.61,4.65s0,.03-.02.03-.03,0-.03-.02c0-.01,0-.03.02-.03s.03,0,.03.02Z"/>
      <path class="cls-14" d="M15.93,4.64s0,.03-.01.03-.03,0-.03-.01c0-.01,0-.03.01-.03s.03,0,.03.01Z"/>
      <path class="cls-14" d="M16.07,4.6s0,.03-.01.03-.03,0-.03-.01c0-.01,0-.03.01-.03s.03,0,.03.01Z"/>
      <path class="cls-14" d="M16.02,4.68s0,.03-.02.04-.03,0-.04-.02c0-.02,0-.03.02-.04s.03,0,.04.02Z"/>
      <path class="cls-14" d="M16.13,4.75s0,.03-.01.03-.03,0-.03-.01c0-.01,0-.03.01-.03s.03,0,.03.01Z"/>
      <path class="cls-14" d="M15.98,4.78s0,.03-.01.03-.03,0-.03-.01c0-.01,0-.03.01-.03s.03,0,.03.01Z"/>
      <path class="cls-14" d="M17.97,4.57s-.02.02-.03.02-.02-.02-.02-.03c0-.01.02-.02.03-.02s.02.02.02.03Z"/>
      <path class="cls-14" d="M18.13,4.62s-.02.02-.03.02-.02-.02-.02-.03c0-.01.02-.02.03-.02s.02.02.02.03Z"/>
      <path class="cls-14" d="M18.04,4.66s-.02.03-.04.02-.03-.02-.03-.04c0-.02.02-.03.04-.02s.03.02.03.04Z"/>
      <path class="cls-14" d="M18.09,4.79s-.02.02-.03.02-.02-.02-.02-.03c0-.01.02-.02.03-.02s.02.02.02.03Z"/>
      <path class="cls-14" d="M17.94,4.73s-.02.02-.03.02-.02-.02-.02-.03c0-.01.02-.02.03-.02s.02.02.02.03Z"/>
      <path class="cls-24" d="M18.12,3.22c-.08,0-.13-.03-.16-.05h0s-.01-.03,0-.05c0-.02.01-.03.01-.03,0,0-.03.06,0,.07h0s.08.05.16.05c.09,0,.16-.07.16-.07h0s-.07.07-.16.07Z"/>
      <path class="cls-24" d="M16.42,3.38s-.03,0-.04,0c-.02-.01-.03-.03-.04-.06,0-.02,0-.05.01-.07.02-.03.06-.05.1-.05h0s.04.01.05.02c0,0,.02.02.04.03.05.02.19.04.19.04h0s-.13-.02-.19-.04c-.02,0-.03-.02-.04-.03-.01-.01-.02-.02-.05-.02,0,0,0,0,0,0-.04,0-.08.02-.1.05-.01.02-.02.04-.01.06,0,.03.02.04.03.05.03.01.05,0,.07,0,.02,0,.03-.03.03-.05,0-.02-.02-.04-.05-.04,0,0,0,0,0,0-.01,0-.02,0-.03.01,0,.02.02.04.02.04h0s-.03-.02-.02-.04c0,0,.01-.01.03-.01h0s.05.02.05.04c0,.02,0,.04-.03.05-.01,0-.02,0-.03,0Z"/>
      <path class="cls-24" d="M15.96,3.24c-.08,0-.11-.05-.11-.05h0s.04.05.13.04c.1,0,.13-.06.13-.08,0-.02,0-.06-.02-.08-.02-.02-.08-.03-.08-.03t0,0s.06,0,.08.03c.02.02.02.06.02.08,0,.02-.04.07-.14.08,0,0-.01,0-.02,0Z"/>
    </g>
  </g>
</svg>