<?xml version="1.0" encoding="UTF-8"?>
<svg id="Layer_2" data-name="Layer 2" xmlns="http://www.w3.org/2000/svg" viewBox="0 0 25.51 17.01">
  <defs>
    <style>
      .cls-1, .cls-2, .cls-3, .cls-4 {
        fill: #f6eb16;
      }

      .cls-2, .cls-5, .cls-3, .cls-6, .cls-4 {
        stroke: #010101;
      }

      .cls-5 {
        fill: #fff;
        stroke-linejoin: bevel;
      }

      .cls-3 {
        stroke-miterlimit: 4;
      }

      .cls-7, .cls-6 {
        fill: #ed2224;
      }

      .cls-8, .cls-9 {
        fill: #010101;
      }

      .cls-4 {
        fill-rule: evenodd;
        stroke-linejoin: round;
      }

      .cls-4, .cls-9 {
        stroke-linecap: round;
      }

      .cls-9 {
        stroke: #fff;
        stroke-width: 0px;
      }

      .cls-10 {
        fill: #243e90;
      }

      .cls-11 {
        fill: #186734;
      }
    </style>
  </defs>
  <g id="Layer_1-2" data-name="Layer 1">
    <g>
      <path class="cls-7" d="M0,0h25.51v17.01H0V0Z"/>
      <path class="cls-11" d="M0,0h10.2v17.01H0V0Z"/>
      <g>
        <path class="cls-4" d="M13.53,11.14c-1.28-.04-7.17-3.72-7.22-4.3l.33-.54c.58.85,6.61,4.42,7.2,4.3l-.31.55"/>
        <path class="cls-4" d="M6.57,6.22c-.12.31,1.54,1.33,3.53,2.54,1.99,1.21,3.7,1.96,3.83,1.85,0-.01.06-.11.06-.11-.02.04-.08.05-.17.02-.54-.15-1.94-.8-3.67-1.85-1.73-1.05-3.24-2.02-3.48-2.43-.02-.03-.03-.08-.03-.12h0s-.05.09-.05.09h0ZM13.56,11.16s-.06.04-.14.03c-.48-.05-1.94-.76-3.66-1.79-2.01-1.2-3.67-2.3-3.49-2.58l.05-.09h0c-.16.49,3.27,2.45,3.47,2.58,1.99,1.23,3.66,1.95,3.81,1.76l-.05.09h0s0,0,0,0Z"/>
        <path class="cls-4" d="M10.21,7.2c1.29-.01,2.87-.18,3.79-.54l-.2-.32c-.54.3-2.13.5-3.6.52-1.73-.02-2.95-.18-3.57-.59l-.19.34c1.13.48,2.28.58,3.76.58"/>
        <path class="cls-4" d="M14.05,6.66c-.03.05-.63.26-1.5.41-.59.09-1.37.17-2.34.17-.92,0-1.67-.06-2.24-.14-.92-.14-1.4-.35-1.57-.42.02-.03.03-.06.04-.09.51.2.98.32,1.54.41.57.08,1.31.14,2.22.14.96,0,1.73-.08,2.32-.17.9-.15,1.39-.33,1.46-.42l.06.11h0ZM13.88,6.34c-.1.08-.58.25-1.44.39-.57.08-1.3.15-2.22.16-.88,0-1.6-.06-2.15-.14-.87-.11-1.33-.32-1.5-.38.02-.03.03-.06.05-.09.13.07.58.25,1.46.37.54.08,1.26.13,2.14.13.92,0,1.64-.08,2.21-.16.86-.12,1.32-.34,1.39-.39l.06.1h0ZM5.99,8.74c.79.43,2.55.64,4.21.65,1.51,0,3.48-.23,4.22-.62l-.02-.43c-.23.36-2.34.71-4.22.69-1.87-.01-3.62-.3-4.2-.68v.38"/>
        <path class="cls-4" d="M14.46,8.68v.1c-.11.13-.81.33-1.68.47-.66.1-1.53.18-2.6.18s-1.84-.07-2.47-.17c-1-.15-1.64-.4-1.77-.48v-.12c.39.26,1.43.44,1.78.5.63.1,1.44.17,2.46.17,1.07,0,1.93-.08,2.59-.18.63-.09,1.52-.33,1.69-.48h0ZM14.46,8.32v.1c-.11.13-.81.33-1.68.47-.66.1-1.53.18-2.6.18s-1.84-.07-2.47-.17c-1-.15-1.64-.4-1.77-.48v-.12c.39.26,1.43.44,1.78.5.63.1,1.44.17,2.46.17,1.07,0,1.93-.08,2.59-.18.63-.09,1.52-.33,1.69-.48h0ZM10.2,11.07c-1.82-.01-3.38-.5-3.71-.58l.24.38c.58.24,2.1.61,3.48.57s2.59-.15,3.44-.56l.25-.39c-.58.27-2.55.58-3.7.58"/>
        <path class="cls-4" d="M13.75,10.79c-.04.05-.07.11-.11.16-.4.14-1.03.29-1.3.33-.55.11-1.39.2-2.14.2-1.61-.02-2.93-.34-3.55-.61l-.05-.09h0s.08.02.08.02c1.1.39,2.34.55,3.52.58.75,0,1.49-.09,2.1-.19.93-.19,1.3-.33,1.41-.39l.03-.02ZM13.96,10.44h0s-.06.1-.08.14c-.21.08-.8.25-1.64.37-.56.08-.91.15-2.02.17-2.08-.05-3.43-.46-3.75-.56l-.05-.09c1.21.32,2.44.54,3.8.56,1.02-.02,1.45-.1,2-.17.99-.15,1.49-.32,1.64-.36,0,0,0,0,0,0l.11-.04h0Z"/>
        <path class="cls-4" d="M13.98,8.41c0,1.2-.61,2.27-1.1,2.74-.7.67-1.62,1.1-2.7,1.12-1.21.02-2.34-.76-2.65-1.11-.6-.68-1.08-1.53-1.1-2.69.07-1.31.59-2.22,1.33-2.84s1.73-.93,2.56-.91c.95.03,2.06.49,2.83,1.42.5.61.72,1.26.83,2.26M10.19,4.31c2.32,0,4.22,1.89,4.22,4.2s-1.91,4.2-4.22,4.2-4.21-1.89-4.21-4.2,1.89-4.2,4.21-4.2"/>
        <path class="cls-4" d="M10.2,4.3c2.32,0,4.21,1.89,4.21,4.21s-1.89,4.21-4.21,4.21-4.21-1.89-4.21-4.21,1.89-4.21,4.21-4.21M6.08,8.51c0,2.26,1.86,4.12,4.12,4.12s4.12-1.85,4.12-4.12-1.86-4.12-4.12-4.12-4.12,1.85-4.12,4.12"/>
        <path class="cls-4" d="M10.2,4.65c2.11,0,3.86,1.74,3.86,3.86s-1.74,3.86-3.86,3.86-3.86-1.74-3.86-3.86,1.74-3.86,3.86-3.86M6.44,8.5c0,2.07,1.7,3.76,3.76,3.76s3.76-1.69,3.76-3.76-1.7-3.76-3.76-3.76-3.76,1.69-3.76,3.76"/>
        <path class="cls-4" d="M10.37,4.28h-.36v8.46h.36V4.28Z"/>
        <path class="cls-4" d="M10.34,4.23h.09v8.56s-.09,0-.09,0V4.23ZM9.98,4.23h.09v8.56s-.09,0-.09,0V4.23Z"/>
        <path class="cls-4" d="M14.41,8.67v-.31l-.25-.24-1.45-.38-2.08-.21-2.51.13-1.79.43-.36.27v.31l.91-.41,2.17-.34h2.08l1.53.17,1.06.26.68.34Z"/>
        <path class="cls-4" d="M10.2,7.86c.99,0,1.96.09,2.72.24.79.16,1.35.36,1.54.58v.11c-.23-.28-.98-.48-1.55-.59-.76-.15-1.72-.24-2.71-.24-1.04,0-2.01.1-2.76.25-.6.12-1.4.36-1.5.59v-.11c.05-.16.65-.4,1.49-.57.75-.15,1.73-.24,2.78-.25M10.2,7.5c.99,0,1.96.09,2.72.24.79.16,1.35.36,1.54.58v.11c-.23-.28-.98-.48-1.55-.59-.76-.15-1.72-.24-2.71-.24-1.04,0-2.01.1-2.76.25-.58.11-1.41.36-1.51.59v-.11c.05-.16.66-.41,1.49-.57.75-.15,1.73-.24,2.78-.25h0ZM10.18,5.65c1.57,0,2.93.22,3.56.54l.23.39c-.54-.29-2.02-.6-3.78-.55-1.44,0-2.98.16-3.75.57l.27-.46c.63-.33,2.13-.5,3.47-.5"/>
        <path class="cls-4" d="M10.2,5.98c.89,0,1.76.05,2.44.17.64.12,1.25.3,1.34.39l.07.12c-.21-.14-.74-.29-1.42-.42-.68-.13-1.54-.17-2.43-.17-1.01,0-1.79.05-2.46.17-.71.13-1.2.32-1.33.41l.07-.13c.24-.12.61-.27,1.24-.38.7-.13,1.49-.17,2.48-.17h0ZM10.2,5.62c.86,0,1.7.05,2.36.16.52.1,1.03.26,1.22.4l.1.16c-.17-.19-.8-.36-1.36-.46-.65-.11-1.46-.16-2.32-.16-.9,0-1.73.06-2.37.17-.61.12-1.01.26-1.18.36l.09-.13c.23-.12.61-.23,1.08-.33.65-.12,1.48-.17,2.39-.17h0ZM12.29,10.26c-.77-.14-1.55-.17-2.09-.16-2.61.03-3.45.54-3.56.69l-.2-.32c.66-.48,2.09-.75,3.77-.72.87.01,1.63.07,2.26.19l-.18.32"/>
        <path class="cls-4" d="M10.19,10.05c.73.01,1.44.04,2.13.17l-.05.09c-.64-.12-1.32-.16-2.08-.16-.96,0-1.94.08-2.79.33-.27.07-.71.25-.76.39l-.05-.08c.01-.08.28-.26.78-.4.97-.28,1.88-.33,2.81-.33h0ZM10.22,9.69c.75.01,1.53.05,2.29.2l-.05.09c-.68-.14-1.33-.18-2.23-.19-.97,0-1.99.07-2.92.34-.3.09-.82.28-.84.43l-.05-.09c.01-.14.46-.31.87-.43.94-.27,1.97-.34,2.94-.35h0Z"/>
        <path class="cls-4" d="M13.93,10.52l-.31.49-.9-.8-2.34-1.57-2.64-1.45-1.37-.47.29-.54.1-.05.85.21,2.81,1.45,1.62,1.02,1.36.98.55.64-.02.1Z"/>
        <path class="cls-4" d="M6.32,6.73c.24-.16,2,.62,3.85,1.74,1.84,1.12,3.6,2.38,3.44,2.61l-.05.08-.02.02s.03-.04,0-.12c-.08-.26-1.33-1.25-3.4-2.5-2.02-1.2-3.7-1.93-3.87-1.72l.05-.1ZM13.99,10.51c.15-.3-1.48-1.53-3.51-2.73-2.08-1.18-3.57-1.87-3.84-1.66l-.06.11s0,0,.02-.02c.05-.04.13-.04.17-.04.47,0,1.81.63,3.7,1.71.83.48,3.49,2.19,3.48,2.67,0,.04,0,.05-.01.07l.07-.1h0Z"/>
      </g>
      <path class="cls-5" d="M7.68,8.97c0,.69.28,1.32.74,1.77.46.46,1.08.75,1.78.75s1.33-.28,1.79-.74c.46-.46.74-1.09.74-1.78h0v-3.37h-5.05s0,3.36,0,3.36h0Z"/>
      <path class="cls-6" d="M7.77,8.98h0c0,.66.27,1.27.71,1.7.44.44,1.05.71,1.71.71s1.27-.27,1.71-.71c.44-.44.71-1.04.71-1.7h0v-3.27h-4.84s0,3.26,0,3.26M11.64,6.69v2.08s0,.22,0,.22c0,.06,0,.12-.01.18-.04.33-.19.62-.41.84-.26.26-.62.42-1.02.42s-.75-.17-1.01-.43c-.27-.27-.43-.64-.43-1.02v-2.3s2.89,0,2.89,0h0Z"/>
      <g id="e">
        <g id="d">
          <path class="cls-1" d="M8.09,6.57c0-.23.17-.29.17-.29s.18.06.18.29h-.35Z"/>
          <path class="cls-2" d="M7.94,6.28l-.03.27h.18c0-.22.17-.26.17-.26,0,0,.17.05.17.26h.18l-.03-.27h-.64ZM7.9,6.55h.72s.03.02.03.03-.01.03-.03.03h-.72s-.03-.01-.03-.03.01-.03.03-.03Z"/>
          <path class="cls-2" d="M8.16,6.55c0-.14.1-.18.1-.18,0,0,.1.04.1.18h-.2M7.92,6.17h.69s.03.01.03.03-.01.03-.03.03h-.69s-.03-.01-.03-.03.01-.03.03-.03ZM7.93,6.23h.66s.03.01.03.03-.01.03-.03.03h-.66s-.03-.01-.03-.03.01-.03.03-.03ZM8.15,5.78h.05v.04h.04v-.04h.05v.04h.04v-.04h.05v.09s-.01.02-.02.02h-.19s-.02-.01-.02-.02v-.08s0,0,0,0ZM8.34,5.89v.27s-.17,0-.17,0v-.27s.17,0,.17,0"/>
          <path id="a" class="cls-2" d="M8.12,6.02v.15s-.17,0-.17,0v-.15h.17,0Z"/>
          <path id="a-2" data-name="a" class="cls-2" d="M8.57,6.02v.15s-.17,0-.17,0v-.15h.17,0Z"/>
          <path id="b" class="cls-2" d="M7.92,5.91h.05v.04h.04v-.04h.05v.04h.04v-.04h.05s0,.09,0,.09c0,.01-.01.02-.02.02h-.18s-.02,0-.02-.02v-.08s0,0,0,0Z"/>
          <path id="b-2" data-name="b" class="cls-2" d="M8.37,5.91h.05v.04h.04v-.04h.05v.04h.04v-.04h.05s0,.09,0,.09c0,.01-.01.02-.02.02h-.18s-.02,0-.02-.02v-.08s0,0,0,0Z"/>
          <path class="cls-8" d="M8.24,5.98s.04-.03.04,0v.07h-.04v-.07Z"/>
          <path id="c" class="cls-8" d="M8.02,6.07s.04-.03.04,0v.05h-.04v-.05Z"/>
          <path id="c-2" data-name="c" class="cls-8" d="M8.47,6.07s.04-.03.04,0v.05h-.04v-.05Z"/>
        </g>
        <g id="d-2" data-name="d">
          <path class="cls-1" d="M8.09,8.54c0-.23.17-.29.17-.29s.18.06.18.29h-.35Z"/>
          <path class="cls-2" d="M7.94,8.25l-.03.27h.18c0-.22.17-.26.17-.26,0,0,.17.05.17.26h.18l-.03-.27h-.64ZM7.9,8.52h.72s.03.02.03.03-.01.03-.03.03h-.72s-.03-.01-.03-.03.01-.03.03-.03Z"/>
          <path class="cls-2" d="M8.16,8.52c0-.14.1-.18.1-.18,0,0,.1.04.1.18h-.2M7.92,8.14h.69s.03.01.03.03-.01.03-.03.03h-.69s-.03-.01-.03-.03.01-.03.03-.03ZM7.93,8.2h.66s.03.01.03.03-.01.03-.03.03h-.66s-.03-.01-.03-.03.01-.03.03-.03ZM8.15,7.75h.05v.04h.04v-.04h.05v.04h.04v-.04h.05v.09s-.01.02-.02.02h-.19s-.02-.01-.02-.02v-.08s0,0,0,0ZM8.34,7.86v.27s-.17,0-.17,0v-.27s.17,0,.17,0"/>
          <path id="a-3" data-name="a" class="cls-2" d="M8.12,7.99v.15s-.17,0-.17,0v-.15h.17,0Z"/>
          <path id="a-4" data-name="a" class="cls-2" d="M8.57,7.99v.15s-.17,0-.17,0v-.15h.17,0Z"/>
          <path id="b-3" data-name="b" class="cls-2" d="M7.92,7.88h.05v.04h.04v-.04h.05v.04h.04v-.04h.05s0,.09,0,.09c0,.01-.01.02-.02.02h-.18s-.02,0-.02-.02v-.08s0,0,0,0Z"/>
          <path id="b-4" data-name="b" class="cls-2" d="M8.37,7.88h.05v.04h.04v-.04h.05v.04h.04v-.04h.05s0,.09,0,.09c0,.01-.01.02-.02.02h-.18s-.02,0-.02-.02v-.08s0,0,0,0Z"/>
          <path class="cls-8" d="M8.24,7.95s.04-.03.04,0v.07h-.04v-.07Z"/>
          <path id="c-3" data-name="c" class="cls-8" d="M8.02,8.04s.04-.03.04,0v.05h-.04v-.05Z"/>
          <path id="c-4" data-name="c" class="cls-8" d="M8.47,8.04s.04-.03.04,0v.05h-.04v-.05Z"/>
        </g>
        <g id="d-3" data-name="d">
          <path class="cls-1" d="M8.85,10.59c-.16-.17-.08-.33-.08-.33s.17-.09.33.08l-.25.25Z"/>
          <path class="cls-3" d="M8.55,10.49l.17.21.12-.12c-.16-.16-.07-.3-.06-.31,0,0,.15-.09.31.06l.12-.13-.22-.17-.45.45h0ZM8.71,10.71l.51-.51s.03,0,.04,0,.01.03,0,.04l-.51.51s-.03,0-.04,0-.01-.03,0-.04Z"/>
          <path class="cls-3" d="M8.9,10.52c-.1-.1-.06-.2-.06-.2,0,0,.1-.04.2.06l-.14.14M8.45,10.42l.49-.49s.03,0,.04,0,.01.03,0,.04l-.49.49s-.03,0-.04,0-.01-.03,0-.04ZM8.51,10.46l.47-.47s.03,0,.04,0,.01.03,0,.04l-.47.47s-.03,0-.04,0-.01-.03,0-.04ZM8.34,9.99l.04-.04.03.03.03-.03-.03-.03.04-.04.03.03.03-.03-.03-.03.04-.04.06.06s0,.02,0,.03l-.13.13s-.02.01-.03,0l-.06-.06h0ZM8.56,9.93l.2.18-.13.13-.19-.2.11-.11"/>
          <path id="a-5" data-name="a" class="cls-3" d="M8.49,10.18l.11.1-.12.12-.1-.11.12-.12h0Z"/>
          <path id="a-6" data-name="a" class="cls-3" d="M8.81,9.86l.11.1-.12.12-.1-.11.12-.12h0Z"/>
          <path id="b-5" data-name="b" class="cls-3" d="M8.27,10.24l.04-.04.03.03.03-.03-.03-.03.04-.04.03.03.03-.03-.03-.03.04-.04.06.06s0,.02,0,.03l-.13.13s-.02,0-.03,0l-.06-.06h0Z"/>
          <path id="b-6" data-name="b" class="cls-3" d="M8.59,9.92l.04-.04.03.03.03-.03-.03-.03.04-.04.03.03.03-.03-.03-.03.04-.04.06.06s0,.02,0,.03l-.13.13s-.02,0-.03,0l-.06-.06h0Z"/>
          <path class="cls-8" d="M8.55,10.06s0-.05.03-.03l.05.05-.03.03-.05-.05Z"/>
          <path id="c-5" data-name="c" class="cls-8" d="M8.46,10.29s0-.04.02-.02l.04.04-.02.02-.04-.04Z"/>
          <path id="c-6" data-name="c" class="cls-8" d="M8.78,9.97s0-.04.02-.02l.04.04-.02.02-.04-.04Z"/>
        </g>
      </g>
      <g id="d-4" data-name="d">
        <path class="cls-1" d="M10.03,6.57c0-.23.17-.29.17-.29s.18.06.18.29h-.35Z"/>
        <path class="cls-2" d="M9.89,6.28l-.03.27h.18c0-.22.17-.26.17-.26,0,0,.17.05.17.26h.18l-.03-.27h-.64ZM9.85,6.55h.72s.03.02.03.03-.01.03-.03.03h-.72s-.03-.01-.03-.03.01-.03.03-.03Z"/>
        <path class="cls-2" d="M10.11,6.55c0-.14.1-.18.1-.18,0,0,.1.04.1.18h-.2M9.86,6.17h.69s.03.01.03.03-.01.03-.03.03h-.69s-.03-.01-.03-.03.01-.03.03-.03ZM9.88,6.23h.66s.03.01.03.03-.01.03-.03.03h-.66s-.03-.01-.03-.03.01-.03.03-.03ZM10.09,5.78h.05v.04h.04v-.04h.05v.04h.04v-.04h.05v.09s-.01.02-.02.02h-.19s-.02-.01-.02-.02v-.08s0,0,0,0ZM10.29,5.89v.27s-.17,0-.17,0v-.27s.17,0,.17,0"/>
        <path id="a-7" data-name="a" class="cls-2" d="M10.06,6.02v.15s-.17,0-.17,0v-.15h.17,0Z"/>
        <path id="a-8" data-name="a" class="cls-2" d="M10.51,6.02v.15s-.17,0-.17,0v-.15h.17,0Z"/>
        <path id="b-7" data-name="b" class="cls-2" d="M9.87,5.91h.05v.04h.04v-.04h.05v.04h.04v-.04h.05s0,.09,0,.09c0,.01-.01.02-.02.02h-.18s-.02,0-.02-.02v-.08s0,0,0,0Z"/>
        <path id="b-8" data-name="b" class="cls-2" d="M10.32,5.91h.05v.04h.04v-.04h.05v.04h.04v-.04h.05s0,.09,0,.09c0,.01-.01.02-.02.02h-.18s-.02,0-.02-.02v-.08s0,0,0,0Z"/>
        <path class="cls-8" d="M10.19,5.98s.04-.03.04,0v.07h-.04v-.07Z"/>
        <path id="c-7" data-name="c" class="cls-8" d="M9.96,6.07s.04-.03.04,0v.05h-.04v-.05Z"/>
        <path id="c-8" data-name="c" class="cls-8" d="M10.41,6.07s.04-.03.04,0v.05h-.04v-.05Z"/>
      </g>
      <g id="e-2" data-name="e">
        <g id="d-5" data-name="d">
          <path class="cls-1" d="M12.31,6.57c0-.23-.17-.29-.17-.29s-.18.06-.18.29h.35Z"/>
          <path class="cls-2" d="M12.46,6.28l.03.27h-.18c0-.22-.17-.26-.17-.26,0,0-.17.05-.17.26h-.18l.03-.27h.64ZM12.5,6.55h-.72s-.03.02-.03.03.01.03.03.03h.72s.03-.01.03-.03-.01-.03-.03-.03Z"/>
          <path class="cls-2" d="M12.24,6.55c0-.14-.1-.18-.1-.18,0,0-.1.04-.1.18h.2M12.48,6.17h-.69s-.03.01-.03.03.01.03.03.03h.69s.03-.01.03-.03-.01-.03-.03-.03ZM12.47,6.23h-.66s-.03.01-.03.03.01.03.03.03h.66s.03-.01.03-.03-.01-.03-.03-.03ZM12.26,5.78h-.05v.04h-.04v-.04h-.05v.04h-.04v-.04h-.05v.09s.01.02.02.02h.19s.02-.01.02-.02v-.08s0,0,0,0ZM12.06,5.89v.27s.17,0,.17,0v-.27s-.17,0-.17,0"/>
          <path id="a-9" data-name="a" class="cls-2" d="M12.28,6.02v.15s.17,0,.17,0v-.15h-.17,0Z"/>
          <path id="a-10" data-name="a" class="cls-2" d="M11.83,6.02v.15s.17,0,.17,0v-.15h-.17,0Z"/>
          <path id="b-9" data-name="b" class="cls-2" d="M12.48,5.91h-.05v.04h-.04v-.04h-.05v.04h-.04v-.04h-.05s0,.09,0,.09c0,.01.01.02.02.02h.18s.02,0,.02-.02v-.08s0,0,0,0Z"/>
          <path id="b-10" data-name="b" class="cls-2" d="M12.03,5.91h-.05v.04h-.04v-.04h-.05v.04h-.04v-.04h-.05s0,.09,0,.09c0,.01.01.02.02.02h.18s.02,0,.02-.02v-.08s0,0,0,0Z"/>
          <path class="cls-8" d="M12.16,5.98s-.04-.03-.04,0v.07h.04v-.07Z"/>
          <path id="c-9" data-name="c" class="cls-8" d="M12.38,6.07s-.04-.03-.04,0v.05h.04v-.05Z"/>
          <path id="c-10" data-name="c" class="cls-8" d="M11.93,6.07s-.04-.03-.04,0v.05h.04v-.05Z"/>
        </g>
        <g id="d-6" data-name="d">
          <path class="cls-1" d="M12.31,8.54c0-.23-.17-.29-.17-.29s-.18.06-.18.29h.35Z"/>
          <path class="cls-2" d="M12.46,8.25l.03.27h-.18c0-.22-.17-.26-.17-.26,0,0-.17.05-.17.26h-.18l.03-.27h.64ZM12.5,8.52h-.72s-.03.02-.03.03.01.03.03.03h.72s.03-.01.03-.03-.01-.03-.03-.03Z"/>
          <path class="cls-2" d="M12.24,8.52c0-.14-.1-.18-.1-.18,0,0-.1.04-.1.18h.2M12.48,8.14h-.69s-.03.01-.03.03.01.03.03.03h.69s.03-.01.03-.03-.01-.03-.03-.03ZM12.47,8.2h-.66s-.03.01-.03.03.01.03.03.03h.66s.03-.01.03-.03-.01-.03-.03-.03ZM12.26,7.75h-.05v.04h-.04v-.04h-.05v.04h-.04v-.04h-.05v.09s.01.02.02.02h.19s.02-.01.02-.02v-.08s0,0,0,0ZM12.06,7.86v.27s.17,0,.17,0v-.27s-.17,0-.17,0"/>
          <path id="a-11" data-name="a" class="cls-2" d="M12.28,7.99v.15s.17,0,.17,0v-.15h-.17,0Z"/>
          <path id="a-12" data-name="a" class="cls-2" d="M11.83,7.99v.15s.17,0,.17,0v-.15h-.17,0Z"/>
          <path id="b-11" data-name="b" class="cls-2" d="M12.48,7.88h-.05v.04h-.04v-.04h-.05v.04h-.04v-.04h-.05s0,.09,0,.09c0,.01.01.02.02.02h.18s.02,0,.02-.02v-.08s0,0,0,0Z"/>
          <path id="b-12" data-name="b" class="cls-2" d="M12.03,7.88h-.05v.04h-.04v-.04h-.05v.04h-.04v-.04h-.05s0,.09,0,.09c0,.01.01.02.02.02h.18s.02,0,.02-.02v-.08s0,0,0,0Z"/>
          <path class="cls-8" d="M12.16,7.95s-.04-.03-.04,0v.07h.04v-.07Z"/>
          <path id="c-11" data-name="c" class="cls-8" d="M12.38,8.04s-.04-.03-.04,0v.05h.04v-.05Z"/>
          <path id="c-12" data-name="c" class="cls-8" d="M11.93,8.04s-.04-.03-.04,0v.05h.04v-.05Z"/>
        </g>
        <g id="d-7" data-name="d">
          <path class="cls-1" d="M11.55,10.59c.16-.17.08-.33.08-.33s-.17-.09-.33.08l.25.25Z"/>
          <path class="cls-3" d="M11.85,10.49l-.17.21-.12-.12c.16-.16.07-.3.06-.31,0,0-.15-.09-.31.06l-.12-.13.22-.17.45.45h0ZM11.69,10.71l-.51-.51s-.03,0-.04,0-.01.03,0,.04l.51.51s.03,0,.04,0,.01-.03,0-.04Z"/>
          <path class="cls-3" d="M11.5,10.52c.1-.1.06-.2.06-.2,0,0-.1-.04-.2.06l.14.14M11.95,10.42l-.49-.49s-.03,0-.04,0-.01.03,0,.04l.49.49s.03,0,.04,0,.01-.03,0-.04ZM11.9,10.46l-.47-.47s-.03,0-.04,0-.01.03,0,.04l.47.47s.03,0,.04,0,.01-.03,0-.04ZM12.06,9.99l-.04-.04-.03.03-.03-.03.03-.03-.04-.04-.03.03-.03-.03.03-.03-.04-.04-.06.06s0,.02,0,.03l.13.13s.02.01.03,0l.06-.06h0ZM11.84,9.93l-.2.18.13.13.19-.2-.11-.11"/>
          <path id="a-13" data-name="a" class="cls-3" d="M11.91,10.18l-.11.1.12.12.1-.11-.12-.12h0Z"/>
          <path id="a-14" data-name="a" class="cls-3" d="M11.59,9.86l-.11.1.12.12.1-.11-.12-.12h0Z"/>
          <path id="b-13" data-name="b" class="cls-3" d="M12.13,10.24l-.04-.04-.03.03-.03-.03.03-.03-.04-.04-.03.03-.03-.03.03-.03-.04-.04-.06.06s0,.02,0,.03l.13.13s.02,0,.03,0l.06-.06h0Z"/>
          <path id="b-14" data-name="b" class="cls-3" d="M11.81,9.92l-.04-.04-.03.03-.03-.03.03-.03-.04-.04-.03.03-.03-.03.03-.03-.04-.04-.06.06s0,.02,0,.03l.13.13s.02,0,.03,0l.06-.06h0Z"/>
          <path class="cls-8" d="M11.85,10.06s0-.05-.03-.03l-.05.05.03.03.05-.05Z"/>
          <path id="c-13" data-name="c" class="cls-8" d="M11.94,10.29s0-.04-.02-.02l-.04.04.02.02.04-.04Z"/>
          <path id="c-14" data-name="c" class="cls-8" d="M11.63,9.97s0-.04-.02-.02l-.04.04.02.02.04-.04Z"/>
        </g>
      </g>
      <g id="f">
        <path class="cls-10" d="M9.89,8.61h0c0,.09.04.18.09.24.06.06.14.1.23.1s.17-.04.23-.1c.06-.06.09-.15.09-.24v-.46h-.64s0,.46,0,.46Z"/>
        <path class="cls-9" d="M10.04,8.32h0M10.39,8.32h0M10.21,8.49h0M10.04,8.67h0M10.39,8.67h0"/>
      </g>
      <g id="f-2" data-name="f">
        <path class="cls-10" d="M9.89,7.5h0c0,.09.04.18.09.24.06.06.14.1.23.1s.17-.04.23-.1c.06-.06.09-.15.09-.24v-.46h-.64s0,.46,0,.46Z"/>
        <path class="cls-9" d="M10.04,7.22h0M10.39,7.22h0M10.21,7.39h0M10.04,7.56h0M10.39,7.56h0"/>
      </g>
      <g id="f-3" data-name="f">
        <path class="cls-10" d="M9.01,8.61h0c0,.09.04.18.09.24.06.06.14.1.23.1s.17-.04.23-.1c.06-.06.09-.15.09-.24v-.46h-.64s0,.46,0,.46Z"/>
        <path class="cls-9" d="M9.15,8.32h0M9.51,8.32h0M9.33,8.49h0M9.15,8.67h0M9.51,8.67h0"/>
      </g>
      <g id="f-4" data-name="f">
        <path class="cls-10" d="M10.77,8.61h0c0,.09.04.18.09.24.06.06.14.1.23.1s.17-.04.23-.1c.06-.06.09-.15.09-.24v-.46h-.64s0,.46,0,.46Z"/>
        <path class="cls-9" d="M10.92,8.32h0M11.27,8.32h0M11.1,8.49h0M10.92,8.67h0M11.27,8.67h0"/>
      </g>
      <g id="f-5" data-name="f">
        <path class="cls-10" d="M9.89,9.7h0c0,.09.04.18.09.24.06.06.14.1.23.1s.17-.04.23-.1c.06-.06.09-.15.09-.24v-.46h-.64s0,.46,0,.46Z"/>
        <path class="cls-9" d="M10.04,9.42h0M10.39,9.42h0M10.21,9.59h0M10.04,9.77h0M10.39,9.77h0"/>
      </g>
    </g>
  </g>
</svg>