<?xml version="1.0" encoding="UTF-8"?>
<svg id="Layer_2" data-name="Layer 2" xmlns="http://www.w3.org/2000/svg" viewBox="0 0 25.51 17.01">
  <defs>
    <style>
      .cls-1, .cls-2 {
        fill: #f6eb16;
      }

      .cls-3 {
        fill: #fff;
      }

      .cls-4 {
        fill: #ed2224;
      }

      .cls-5 {
        fill: #010101;
      }

      .cls-6 {
        fill: #243e90;
      }

      .cls-2 {
        fill-rule: evenodd;
      }

      .cls-7 {
        fill: #186734;
      }
    </style>
  </defs>
  <g id="Layer_1-2" data-name="Layer 1">
    <g>
      <path class="cls-4" d="M0,0h25.51v17.01H0V0Z"/>
      <path class="cls-7" d="M0,0h10.2v17.01H0V0Z"/>
      <g>
        <g>
          <path class="cls-2" d="M13.53,11.14c-1.28-.04-7.17-3.72-7.22-4.3l.33-.54c.58.85,6.61,4.42,7.2,4.3l-.31.55"/>
          <path class="cls-5" d="M13.53,11.14h0c-.68-.02-2.62-1.06-4.07-1.95-1.54-.94-3.12-2.05-3.14-2.36l.33-.54c.3.44,2.02,1.58,3.6,2.51,1.52.9,3.17,1.79,3.56,1.79.01,0,.03,0,.04,0l-.31.55h0s0,0,0,0ZM6.64,6.3l-.32.54c.02.3,1.6,1.41,3.14,2.35,1.45.88,3.39,1.92,4.07,1.95,0,0,0,0,0,0l.31-.55s-.02,0-.04,0c-.39,0-2.05-.88-3.56-1.79-1.57-.94-3.3-2.08-3.6-2.51Z"/>
        </g>
        <g>
          <path class="cls-2" d="M6.57,6.22c-.12.31,1.54,1.33,3.53,2.54,1.99,1.21,3.7,1.96,3.83,1.85,0-.01.06-.11.06-.11-.02.04-.08.05-.17.02-.54-.15-1.94-.8-3.67-1.85-1.73-1.05-3.24-2.02-3.48-2.43-.02-.03-.03-.08-.03-.12h0s-.05.09-.05.09h0ZM13.56,11.16s-.06.04-.14.03c-.48-.05-1.94-.76-3.66-1.79-2.01-1.2-3.67-2.3-3.49-2.58l.05-.09h0c-.16.49,3.27,2.45,3.47,2.58,1.99,1.23,3.66,1.95,3.81,1.76l-.05.09h0s0,0,0,0Z"/>
          <path class="cls-5" d="M13.48,11.2s-.04,0-.06,0c-.49-.05-1.96-.78-3.66-1.79-2.28-1.36-3.42-2.18-3.5-2.5,0-.03,0-.06,0-.08l.05-.09h.01c-.07.2.46.8,3.34,2.5.07.04.11.07.13.08,1.76,1.09,3.31,1.79,3.71,1.79.05,0,.08,0,.09-.03l-.05.09s-.04.04-.08.04ZM6.32,6.73l-.05.09s-.02.05,0,.08c.08.32,1.22,1.14,3.49,2.5,1.7,1.02,3.17,1.74,3.66,1.79.08,0,.12,0,.14-.03h0l.05-.09s-.05.03-.1.03c-.41,0-1.93-.69-3.71-1.79-.02-.01-.06-.04-.13-.08-2.88-1.7-3.41-2.29-3.34-2.5h0ZM13.88,10.63c-.31,0-1.98-.76-3.79-1.86-2.13-1.3-3.64-2.24-3.53-2.54h0s0-.01,0-.01l.05-.09h0s0,.09.03.12c.25.44,1.9,1.47,3.48,2.43,1.63.99,3.08,1.68,3.67,1.85.08.02.15.02.17-.02,0,0,0,.02-.05.1h0s-.02.02-.04.02ZM6.57,6.23c-.11.3,1.39,1.24,3.52,2.54,1.81,1.1,3.48,1.86,3.79,1.86.02,0,.04,0,.04-.01h0c.05-.09.05-.1.05-.11-.02.04-.09.05-.17.02-.59-.17-2.04-.86-3.67-1.85-1.58-.96-3.23-2-3.48-2.43-.02-.03-.03-.08-.03-.12h0s-.06.1-.06.1Z"/>
        </g>
        <g>
          <path class="cls-2" d="M10.21,7.2c1.29-.01,2.87-.18,3.79-.54l-.2-.32c-.54.3-2.13.5-3.6.52-1.73-.02-2.95-.18-3.57-.59l-.19.34c1.13.48,2.28.58,3.76.58"/>
          <path class="cls-5" d="M10.21,7.2c-1.49,0-2.63-.1-3.76-.58l.18-.34c.57.38,1.71.57,3.57.59,1.33-.03,3.02-.2,3.6-.52l.2.32c-.96.38-2.59.53-3.79.54ZM6.63,6.27l-.18.34c1.13.48,2.28.58,3.76.58,1.2,0,2.82-.16,3.79-.54l-.2-.32c-.58.32-2.27.5-3.6.52-1.86-.02-2.99-.2-3.57-.59Z"/>
        </g>
        <g>
          <path class="cls-2" d="M14.05,6.66c-.03.05-.63.26-1.5.41-.59.09-1.37.17-2.34.17-.92,0-1.67-.06-2.24-.14-.92-.14-1.4-.35-1.57-.42.02-.03.03-.06.04-.09.51.2.98.32,1.54.41.57.08,1.31.14,2.22.14.96,0,1.73-.08,2.32-.17.9-.15,1.39-.33,1.46-.42l.06.11h0ZM13.88,6.34c-.1.08-.58.25-1.44.39-.57.08-1.3.15-2.22.16-.88,0-1.6-.06-2.15-.14-.87-.11-1.33-.32-1.5-.38.02-.03.03-.06.05-.09.13.07.58.25,1.46.37.54.08,1.26.13,2.14.13.92,0,1.64-.08,2.21-.16.86-.12,1.32-.34,1.39-.39l.06.1h0ZM5.99,8.74c.79.43,2.55.64,4.21.65,1.51,0,3.48-.23,4.22-.62l-.02-.43c-.23.36-2.34.71-4.22.69-1.87-.01-3.62-.3-4.2-.68v.38"/>
          <path class="cls-5" d="M10.22,9.4h-.02c-1.47-.01-3.35-.19-4.21-.65t0,0v-.38c.58.38,2.35.66,4.19.68h.11c1.83,0,3.88-.34,4.11-.69l.02.43c-.74.39-2.71.62-4.2.62ZM5.99,8.74c.86.46,2.74.64,4.21.65h.02c1.49,0,3.46-.23,4.2-.62l-.02-.43c-.23.36-2.24.69-4.1.69-.04,0-.08,0-.12,0-1.84-.01-3.61-.3-4.2-.68v.38ZM10.19,7.24c-.78,0-1.52-.05-2.22-.14-.89-.14-1.35-.33-1.55-.41h-.02s.01-.04.01-.04c0-.02.02-.04.03-.06.49.19.96.32,1.54.41.7.09,1.44.14,2.2.14h.02c.79,0,1.55-.06,2.32-.17.89-.14,1.39-.33,1.46-.42l.07.11h0c-.03.05-.63.26-1.5.41-.73.11-1.52.17-2.34.17h-.02ZM6.44,6.59s-.02.04-.03.06l-.02.03h.02c.2.09.66.28,1.55.42.7.09,1.44.14,2.22.14h.02c.82,0,1.61-.06,2.34-.17.87-.15,1.47-.36,1.5-.41l-.06-.11c-.07.09-.57.27-1.46.42-.77.12-1.53.17-2.32.17h-.02c-.77,0-1.51-.05-2.2-.14-.58-.09-1.06-.22-1.54-.41ZM10.21,6.88c-.78,0-1.51-.05-2.14-.14-.77-.1-1.21-.27-1.43-.35-.03-.01-.05-.02-.07-.03.02-.03.03-.06.05-.09.08.04.5.24,1.46.37.43.06,1.14.13,2.12.13h.02c.77,0,1.47-.05,2.21-.16.83-.11,1.31-.33,1.39-.39l.06.1s0,0,0,0c-.09.08-.57.25-1.44.39-.73.1-1.45.16-2.22.16h-.01ZM6.63,6.28s-.03.06-.05.09c.02,0,.04.01.07.02.21.08.66.25,1.43.35.62.09,1.36.14,2.14.14h.01c.77,0,1.5-.05,2.22-.16.87-.14,1.34-.31,1.44-.39l-.06-.1c-.08.07-.56.28-1.39.39-.74.11-1.44.16-2.21.16h-.02c-.97,0-1.69-.07-2.12-.13-.95-.13-1.38-.33-1.46-.37Z"/>
        </g>
        <g>
          <path class="cls-2" d="M14.46,8.68v.1c-.11.13-.81.33-1.68.47-.66.1-1.53.18-2.6.18s-1.84-.07-2.47-.17c-1-.15-1.64-.4-1.77-.48v-.12c.39.26,1.43.44,1.78.5.63.1,1.44.17,2.46.17,1.07,0,1.93-.08,2.59-.18.63-.09,1.52-.33,1.69-.48h0ZM14.46,8.32v.1c-.11.13-.81.33-1.68.47-.66.1-1.53.18-2.6.18s-1.84-.07-2.47-.17c-1-.15-1.64-.4-1.77-.48v-.12c.39.26,1.43.44,1.78.5.63.1,1.44.17,2.46.17,1.07,0,1.93-.08,2.59-.18.63-.09,1.52-.33,1.69-.48h0ZM10.2,11.07c-1.82-.01-3.38-.5-3.71-.58l.24.38c.58.24,2.1.61,3.48.57s2.59-.15,3.44-.56l.25-.39c-.58.27-2.55.58-3.7.58"/>
          <path class="cls-5" d="M10,11.44c-1.3,0-2.7-.33-3.27-.57l-.24-.38s.1.02.17.04c.53.14,1.94.52,3.54.53,1.16,0,3.13-.31,3.71-.58l-.25.39c-.89.43-2.18.52-3.44.56-.07,0-.14,0-.21,0ZM6.49,10.49l.24.37c.6.25,2.12.61,3.48.57,1.26-.04,2.55-.13,3.44-.56l.25-.39c-.57.27-2.54.58-3.7.58h0c-1.6,0-3.01-.39-3.54-.53-.07-.02-.13-.03-.17-.04ZM10.18,9.44c-.91,0-1.74-.06-2.47-.17-.96-.14-1.62-.39-1.77-.48v-.12c.38.25,1.37.43,1.78.5.73.11,1.56.17,2.46.17.95,0,1.83-.06,2.59-.18.62-.09,1.51-.32,1.69-.48h0s0,0,0,0v.1c-.11.14-.82.34-1.68.47-.77.12-1.65.18-2.61.18ZM5.94,8.67v.12c.15.09.81.34,1.77.48.73.11,1.57.17,2.47.17.96,0,1.83-.06,2.61-.18.86-.14,1.56-.34,1.68-.47v-.1c-.18.16-1.07.39-1.69.48-.77.12-1.64.18-2.59.18-.9,0-1.73-.06-2.46-.17-.41-.07-1.41-.25-1.78-.5ZM10.18,9.08c-.9,0-1.74-.06-2.47-.17-1.05-.15-1.67-.42-1.77-.48v-.12c.39.26,1.46.45,1.78.5.73.11,1.56.17,2.46.17.95,0,1.82-.06,2.59-.18.62-.09,1.51-.32,1.69-.48h0s0,0,0,0v.1c-.11.14-.82.34-1.68.47-.77.12-1.65.18-2.6.18ZM5.94,8.31v.12c.1.06.72.32,1.77.48.74.11,1.57.17,2.47.17.95,0,1.83-.06,2.6-.18.86-.14,1.56-.34,1.68-.47v-.1c-.18.16-1.07.39-1.69.48-.77.12-1.64.18-2.59.18-.9,0-1.73-.06-2.46-.17-.32-.05-1.39-.24-1.78-.5Z"/>
        </g>
        <g>
          <path class="cls-2" d="M13.75,10.79c-.04.05-.07.11-.11.16-.4.14-1.03.29-1.3.33-.55.11-1.39.2-2.14.2-1.61-.02-2.93-.34-3.55-.61l-.05-.09h0s.08.02.08.02c1.1.39,2.34.55,3.52.58.75,0,1.49-.09,2.1-.19.93-.19,1.3-.33,1.41-.39l.03-.02ZM13.96,10.44h0s-.06.1-.08.14c-.21.08-.8.25-1.64.37-.56.08-.91.15-2.02.17-2.08-.05-3.43-.46-3.75-.56l-.05-.09c1.21.32,2.44.54,3.8.56,1.02-.02,1.45-.1,2-.17.99-.15,1.49-.32,1.64-.36,0,0,0,0,0,0l.11-.04h0Z"/>
          <path class="cls-5" d="M10.2,11.48c-1.54-.02-2.89-.32-3.55-.61l-.05-.09h0s.09.02.09.02c.99.35,2.17.55,3.52.58h.03c.81,0,1.57-.1,2.06-.19,1.03-.21,1.34-.35,1.42-.39l.03-.02h0s0,0,0,0c-.03.05-.07.1-.11.16-.4.14-1.03.29-1.3.33-.57.12-1.42.2-2.14.2ZM6.61,10.77h0s.05.1.05.1c.66.29,2.01.59,3.55.61.71,0,1.57-.08,2.14-.2.28-.04.9-.19,1.3-.33.04-.06.08-.11.11-.16l-.03.02c-.07.04-.38.18-1.42.39-.5.09-1.25.19-2.07.19h-.03c-1.35-.03-2.53-.23-3.52-.58l-.08-.03ZM10.22,11.12c-1.93-.05-3.27-.41-3.75-.56l-.05-.09c1.38.36,2.59.54,3.8.56.91-.02,1.36-.08,1.83-.15.06,0,.12-.02.17-.02.95-.15,1.46-.31,1.62-.36h.02s0,0,0,0h0s0,0,0,0h-.02c-.17.06-.67.22-1.62.36-.06,0-.12.02-.17.02-.47.07-.92.13-1.83.15-1.21-.02-2.42-.2-3.8-.56l.05.09c.48.15,1.82.51,3.75.56.95-.02,1.33-.07,1.78-.14.08-.01.16-.02.24-.03.75-.11,1.36-.26,1.64-.36v-.02s.06-.08.08-.12h0s0,0,0,0h-.03s.03,0,.03,0h0s-.05.08-.07.12v.02c-.3.1-.9.26-1.66.36-.08.01-.16.02-.24.03-.45.06-.83.12-1.78.14Z"/>
        </g>
        <g>
          <path class="cls-2" d="M13.98,8.41c0,1.2-.61,2.27-1.1,2.74-.7.67-1.62,1.1-2.7,1.12-1.21.02-2.34-.76-2.65-1.11-.6-.68-1.08-1.53-1.1-2.69.07-1.31.59-2.22,1.33-2.84s1.73-.93,2.56-.91c.95.03,2.06.49,2.83,1.42.5.61.72,1.26.83,2.26M10.19,4.31c2.32,0,4.22,1.89,4.22,4.2s-1.91,4.2-4.22,4.2-4.21-1.89-4.21-4.2,1.89-4.2,4.21-4.2"/>
          <path class="cls-5" d="M10.19,12.71c-2.32,0-4.21-1.88-4.21-4.2s1.89-4.2,4.21-4.2,4.22,1.88,4.22,4.2-1.89,4.2-4.22,4.2ZM10.19,4.31c-2.32,0-4.21,1.88-4.21,4.2s1.89,4.2,4.21,4.2,4.22-1.88,4.22-4.2-1.89-4.2-4.22-4.2ZM10.13,12.27c-1.23,0-2.33-.81-2.6-1.11-.72-.82-1.08-1.7-1.1-2.69.07-1.2.52-2.16,1.33-2.84.67-.56,1.61-.91,2.47-.91.03,0,.06,0,.08,0,1.04.03,2.13.57,2.83,1.42.48.58.71,1.21.83,2.26h0c0,1.15-.57,2.23-1.1,2.74-.74.71-1.68,1.1-2.7,1.12-.02,0-.03,0-.05,0ZM10.23,4.73c-.86,0-1.8.34-2.47.91-.81.68-1.26,1.64-1.33,2.84.01.99.37,1.87,1.1,2.69.26.3,1.37,1.11,2.6,1.11.02,0,.03,0,.05,0,1.02-.02,1.96-.41,2.7-1.12.53-.51,1.1-1.59,1.1-2.74h0c-.12-1.05-.35-1.68-.83-2.26-.7-.85-1.79-1.39-2.83-1.42-.03,0-.06,0-.08,0Z"/>
        </g>
        <g>
          <path class="cls-2" d="M10.2,4.3c2.32,0,4.21,1.89,4.21,4.21s-1.89,4.21-4.21,4.21-4.21-1.89-4.21-4.21,1.89-4.21,4.21-4.21M6.08,8.51c0,2.26,1.86,4.12,4.12,4.12s4.12-1.85,4.12-4.12-1.86-4.12-4.12-4.12-4.12,1.85-4.12,4.12"/>
          <path class="cls-5" d="M10.2,12.72c-2.32,0-4.21-1.89-4.21-4.21s1.89-4.21,4.21-4.21,4.21,1.89,4.21,4.21-1.89,4.21-4.21,4.21ZM10.2,4.3c-2.32,0-4.21,1.89-4.21,4.21s1.89,4.21,4.21,4.21,4.21-1.89,4.21-4.21-1.89-4.21-4.21-4.21ZM10.2,12.63c-2.27,0-4.12-1.85-4.12-4.12s1.85-4.12,4.12-4.12c.54,0,1.07.11,1.56.31-.48-.2-1.01-.31-1.56-.31-2.27,0-4.12,1.85-4.12,4.12s1.85,4.12,4.12,4.12c.55,0,1.08-.11,1.56-.31-.49.2-1.02.31-1.56.31ZM13.98,10.15c.22-.5.34-1.06.34-1.64s-.12-1.14-.34-1.64c.22.51.34,1.07.34,1.64s-.12,1.13-.34,1.64Z"/>
        </g>
        <g>
          <path class="cls-2" d="M10.2,4.65c2.11,0,3.86,1.74,3.86,3.86s-1.74,3.86-3.86,3.86-3.86-1.74-3.86-3.86,1.74-3.86,3.86-3.86M6.44,8.5c0,2.07,1.7,3.76,3.76,3.76s3.76-1.69,3.76-3.76-1.7-3.76-3.76-3.76-3.76,1.69-3.76,3.76"/>
          <path class="cls-5" d="M10.2,12.36c-2.13,0-3.86-1.73-3.86-3.86s1.73-3.86,3.86-3.86,3.86,1.73,3.86,3.86-1.73,3.86-3.86,3.86ZM10.2,4.65c-2.13,0-3.86,1.73-3.86,3.86s1.73,3.86,3.86,3.86,3.86-1.73,3.86-3.86-1.73-3.86-3.86-3.86ZM10.2,12.27c-2.08,0-3.76-1.69-3.76-3.76s1.69-3.76,3.76-3.76,3.76,1.69,3.76,3.76-1.69,3.76-3.76,3.76ZM10.2,4.74c-2.08,0-3.76,1.69-3.76,3.76s1.69,3.76,3.76,3.76,3.76-1.69,3.76-3.76-1.69-3.76-3.76-3.76Z"/>
        </g>
        <g>
          <path class="cls-2" d="M10.37,4.28h-.36v8.46h.36V4.28Z"/>
          <path class="cls-5" d="M10.01,12.74V4.28s.36,0,.36,0c0,0,0,0,0,0v8.46s-.36,0-.36,0ZM10.01,4.28v8.46s.36,0,.36,0V4.28h-.36Z"/>
        </g>
        <g>
          <path class="cls-2" d="M10.34,4.23h.09v8.56s-.09,0-.09,0V4.23ZM9.98,4.23h.09v8.56s-.09,0-.09,0V4.23Z"/>
          <path class="cls-5" d="M10.34,12.79V4.23s0,0,0,0h.09v8.56s-.09,0-.09,0ZM10.34,4.23v8.56s.09,0,.09,0V4.23s-.09,0-.09,0ZM9.98,12.79V4.23s0,0,0,0h.09v8.56s-.09,0-.09,0ZM9.98,4.23v8.56h.09s0-8.56,0-8.56h-.09Z"/>
        </g>
        <g>
          <path class="cls-2" d="M14.41,8.67v-.31l-.25-.24-1.45-.38-2.08-.21-2.51.13-1.79.43-.36.27v.31l.91-.41,2.17-.34h2.08l1.53.17,1.06.26.68.34Z"/>
          <path class="cls-5" d="M14.41,8.67h0l-.68-.34-1.06-.25-1.53-.17h-2.08l-2.17.34-.91.41v-.31s.36-.27.36-.27l1.79-.43,2.51-.13,2.08.21,1.45.38.25.24v.31s0,0,0,0h0ZM11.14,7.91l1.53.17,1.06.25.68.34v-.31l-.25-.24-1.45-.38-2.08-.21-2.51.13-1.79.43-.36.27v.31s.91-.41.91-.41l2.17-.34h2.08Z"/>
        </g>
        <g>
          <path class="cls-2" d="M10.2,7.86c.99,0,1.96.09,2.72.24.79.16,1.35.36,1.54.58v.11c-.23-.28-.98-.48-1.55-.59-.76-.15-1.72-.24-2.71-.24-1.04,0-2.01.1-2.76.25-.6.12-1.4.36-1.5.59v-.11c.05-.16.65-.4,1.49-.57.75-.15,1.73-.24,2.78-.25M10.2,7.5c.99,0,1.96.09,2.72.24.79.16,1.35.36,1.54.58v.11c-.23-.28-.98-.48-1.55-.59-.76-.15-1.72-.24-2.71-.24-1.04,0-2.01.1-2.76.25-.58.11-1.41.36-1.51.59v-.11c.05-.16.66-.41,1.49-.57.75-.15,1.73-.24,2.78-.25h0ZM10.18,5.65c1.57,0,2.93.22,3.56.54l.23.39c-.54-.29-2.02-.6-3.78-.55-1.44,0-2.98.16-3.75.57l.27-.46c.63-.33,2.13-.5,3.47-.5"/>
          <path class="cls-5" d="M5.94,8.79v-.11c.06-.17.68-.41,1.49-.57.8-.16,1.79-.24,2.78-.25h.03c.93,0,1.89.09,2.7.24.82.16,1.35.36,1.54.58v.11c-.25-.29-1.08-.5-1.55-.59-.8-.16-1.75-.24-2.68-.24h-.02c-.97,0-1.96.09-2.76.25-.51.1-1.39.34-1.5.59ZM10.23,7.86h-.03c-.99,0-1.97.09-2.78.25-.8.16-1.43.4-1.49.57v.11c.11-.25.99-.49,1.5-.59.81-.16,1.79-.25,2.76-.25h.02c.93,0,1.88.09,2.68.24.47.1,1.31.3,1.55.59v-.11c-.18-.21-.72-.41-1.54-.58-.81-.16-1.76-.24-2.7-.24ZM5.94,8.43v-.11c.06-.17.71-.42,1.49-.57.8-.16,1.79-.24,2.78-.25h.03c.93,0,1.89.09,2.69.24.82.16,1.35.36,1.54.58v.11c-.25-.29-1.08-.5-1.55-.59-.8-.16-1.75-.24-2.68-.24h-.03c-.97,0-1.95.09-2.76.25-.53.1-1.41.35-1.5.59ZM10.23,7.5h-.03c-.99,0-1.98.09-2.78.25-.78.15-1.43.4-1.49.57v.11c.09-.24.95-.49,1.5-.59.81-.16,1.79-.25,2.76-.25h.03c.93,0,1.88.09,2.68.24.47.1,1.31.3,1.55.59v-.11c-.18-.21-.71-.41-1.54-.58-.81-.16-1.76-.24-2.69-.24ZM6.44,6.61l.27-.46c.66-.34,2.22-.5,3.47-.5,0,0,0,0,0,0,.03,0,.05,0,.08,0,1.48,0,2.84.21,3.48.54l.23.39c-.53-.29-1.86-.56-3.43-.56-.12,0-.24,0-.35,0-1.01,0-2.85.09-3.75.57ZM10.18,5.65c-1.26,0-2.82.16-3.47.5l-.27.46c.9-.48,2.74-.57,3.75-.57.12,0,.24,0,.35,0,1.58,0,2.9.27,3.43.56l-.23-.39c-.64-.33-2-.54-3.48-.54h-.08s0,0,0,0h0Z"/>
        </g>
        <g>
          <path class="cls-2" d="M10.2,5.98c.89,0,1.76.05,2.44.17.64.12,1.25.3,1.34.39l.07.12c-.21-.14-.74-.29-1.42-.42-.68-.13-1.54-.17-2.43-.17-1.01,0-1.79.05-2.46.17-.71.13-1.2.32-1.33.41l.07-.13c.24-.12.61-.27,1.24-.38.7-.13,1.49-.17,2.48-.17h0ZM10.2,5.62c.86,0,1.7.05,2.36.16.52.1,1.03.26,1.22.4l.1.16c-.17-.19-.8-.36-1.36-.46-.65-.11-1.46-.16-2.32-.16-.9,0-1.73.06-2.37.17-.61.12-1.01.26-1.18.36l.09-.13c.23-.12.61-.23,1.08-.33.65-.12,1.48-.17,2.39-.17h0ZM12.29,10.26c-.77-.14-1.55-.17-2.09-.16-2.61.03-3.45.54-3.56.69l-.2-.32c.66-.48,2.09-.75,3.77-.72.87.01,1.63.07,2.26.19l-.18.32"/>
          <path class="cls-5" d="M6.65,10.79l-.2-.32c.67-.48,2.07-.75,3.77-.73.92.01,1.66.08,2.26.19l-.18.32s0,0,0,0c0,0,0,0,0,0h0c-.57-.11-1.22-.16-1.93-.16-.06,0-.11,0-.17,0-2.55.03-3.44.52-3.56.69ZM9.98,9.74c-1.59,0-2.9.27-3.53.73l.2.32c.11-.17,1.01-.66,3.56-.69.06,0,.11,0,.17,0,.71,0,1.36.05,1.93.16h0l.18-.32c-.6-.11-1.34-.18-2.26-.19-.08,0-.16,0-.24,0ZM14.05,6.66c-.21-.14-.73-.29-1.42-.42-.59-.11-1.39-.17-2.36-.17-.05,0-.11,0-.16,0-.96,0-1.72.05-2.37.17-.71.13-1.2.32-1.33.41l.07-.13c.32-.16.72-.29,1.24-.38.63-.12,1.35-.16,2.48-.17.02,0,.04,0,.06,0,.94,0,1.76.06,2.38.17.64.12,1.25.3,1.34.39l.07.12ZM10.27,6.07c.97,0,1.77.06,2.36.17.69.13,1.21.28,1.42.42l-.07-.12c-.08-.09-.7-.27-1.33-.39-.62-.11-1.45-.17-2.38-.17h-.06c-1.13,0-1.85.06-2.48.17-.52.09-.93.22-1.24.38l-.07.13c.12-.09.62-.28,1.33-.41.65-.11,1.41-.17,2.37-.17.05,0,.11,0,.16,0ZM13.88,6.34c-.18-.19-.84-.37-1.36-.46-.59-.1-1.35-.16-2.32-.16-.94,0-1.76.06-2.37.17-.54.1-.98.24-1.18.36l.09-.13c.23-.12.6-.23,1.08-.33.62-.11,1.42-.17,2.39-.17.02,0,.04,0,.06,0,.91,0,1.7.06,2.29.16.55.11,1.05.27,1.22.4l.1.16ZM10.2,5.71c.97,0,1.72.06,2.32.16.52.09,1.18.27,1.36.46l-.1-.16c-.17-.13-.67-.29-1.22-.4-.61-.11-1.43-.17-2.36-.16-.96,0-1.77.06-2.39.17-.48.09-.85.21-1.08.33l-.09.13c.19-.12.63-.26,1.18-.36.61-.11,1.43-.17,2.37-.17Z"/>
        </g>
        <g>
          <path class="cls-2" d="M10.19,10.05c.73.01,1.44.04,2.13.17l-.05.09c-.64-.12-1.32-.16-2.08-.16-.96,0-1.94.08-2.79.33-.27.07-.71.25-.76.39l-.05-.08c.01-.08.28-.26.78-.4.97-.28,1.88-.33,2.81-.33h0ZM10.22,9.69c.75.01,1.53.05,2.29.2l-.05.09c-.68-.14-1.33-.18-2.23-.19-.97,0-1.99.07-2.92.34-.3.09-.82.28-.84.43l-.05-.09c.01-.14.46-.31.87-.43.94-.27,1.97-.34,2.94-.35h0Z"/>
          <path class="cls-5" d="M6.65,10.87l-.05-.08c.01-.08.27-.26.78-.4.93-.27,1.79-.32,2.81-.33h0c.69,0,1.42.04,2.13.17l-.05.09c-.59-.11-1.23-.16-2-.16-.06,0-.13,0-.19,0-1.02,0-1.92.11-2.68.33-.27.08-.71.25-.75.39ZM10.19,10.05c-1.01,0-1.88.07-2.81.33-.52.15-.77.32-.78.4l.05.08c.04-.14.49-.31.75-.39.75-.22,1.66-.33,2.68-.33.06,0,.13,0,.19,0,.77,0,1.41.05,2,.16l.05-.09c-.71-.13-1.44-.16-2.13-.17h0ZM6.46,10.55l-.05-.09c.01-.14.46-.31.87-.43.8-.23,1.74-.34,2.94-.35h0c.73.01,1.52.05,2.29.2l-.05.09c-.73-.14-1.42-.18-2.23-.19-1.2,0-2.13.11-2.92.34-.3.09-.82.28-.84.43ZM10.22,9.69c-1.2,0-2.14.11-2.94.35-.41.12-.85.3-.87.43l.05.09c.02-.15.53-.34.84-.43.8-.23,1.73-.34,2.92-.34.81.01,1.5.05,2.23.19l.05-.09c-.77-.15-1.55-.18-2.28-.2h0Z"/>
        </g>
        <g>
          <path class="cls-2" d="M13.93,10.52l-.31.49-.9-.8-2.34-1.57-2.64-1.45-1.37-.47.29-.54.1-.05.85.21,2.81,1.45,1.62,1.02,1.36.98.55.64-.02.1Z"/>
          <path class="cls-5" d="M13.62,11.01l-.9-.8-2.34-1.57-2.64-1.45-1.37-.47.29-.54.1-.05.85.21,2.81,1.45,1.62,1.02,1.36.98.55.64-.02.1h0s-.31.49-.31.49ZM6.76,6.12l-.1.05-.29.54,1.37.47,2.64,1.45,2.34,1.57.9.8.31-.49.02-.1-.55-.64-1.36-.98-1.62-1.02-2.81-1.45-.85-.21ZM13.93,10.52h0,0Z"/>
        </g>
        <g>
          <path class="cls-2" d="M6.32,6.73c.24-.16,2,.62,3.85,1.74,1.84,1.12,3.6,2.38,3.44,2.61l-.05.08-.02.02s.03-.04,0-.12c-.08-.26-1.33-1.25-3.4-2.5-2.02-1.2-3.7-1.93-3.87-1.72l.05-.1ZM13.99,10.51c.15-.3-1.48-1.53-3.51-2.73-2.08-1.18-3.57-1.87-3.84-1.66l-.06.11s0,0,.02-.02c.05-.04.13-.04.17-.04.47,0,1.81.63,3.7,1.71.83.48,3.49,2.19,3.48,2.67,0,.04,0,.05-.01.07l.07-.1h0Z"/>
          <path class="cls-5" d="M13.54,11.18h0s.03-.03,0-.12c-.08-.27-1.38-1.28-3.4-2.5-1.71-1.02-3.3-1.76-3.75-1.76-.06,0-.09.01-.11.04l.05-.1h0s.05-.02.1-.02c.46,0,2.1.76,3.75,1.76,1.66,1,3.37,2.2,3.45,2.56,0,.02,0,.04,0,.06l-.05.08-.03.02h0ZM6.39,6.8c.46,0,2.02.72,3.75,1.76,2.02,1.22,3.31,2.23,3.4,2.5.04.09,0,.12,0,.12l.02-.02.05-.08s.01-.03,0-.06c-.08-.35-1.79-1.55-3.45-2.56-1.65-.99-3.29-1.76-3.75-1.76-.04,0-.08,0-.1.02l-.05.1s.06-.04.12-.04ZM13.93,10.62h0s0-.03,0-.05v-.02c0-.48-2.71-2.22-3.48-2.67-1.88-1.08-3.23-1.7-3.7-1.71h-.01s-.11,0-.16.04c0,0,0,.01-.01.02h0s0-.01,0-.02c.04-.04.12-.04.16-.04h.01c.47,0,1.82.63,3.7,1.71.77.45,3.49,2.19,3.48,2.67v.02s0,.03,0,.04l.06-.09c.14-.29-1.37-1.46-3.51-2.73-1.97-1.12-3.24-1.7-3.7-1.7-.07,0-.12.01-.15.04l-.04.07.04-.07c.32-.24,2.27.77,3.85,1.66,2.15,1.27,3.66,2.45,3.51,2.73h0l-.06.09s0,0,0,.01ZM13.99,10.51h0,0ZM6.58,6.23s0,0,0-.01h0Z"/>
        </g>
      </g>
      <g>
        <path class="cls-3" d="M7.68,8.97c0,.69.28,1.32.74,1.77.46.46,1.08.75,1.78.75s1.33-.28,1.79-.74c.46-.46.74-1.09.74-1.78h0v-3.37h-5.05s0,3.36,0,3.36h0Z"/>
        <path class="cls-5" d="M10.2,11.5c-.66,0-1.29-.27-1.78-.75-.48-.48-.74-1.11-.74-1.78v-3.37h5.05s0,3.37,0,3.37c0,.67-.26,1.3-.74,1.78-.48.48-1.11.74-1.79.74ZM7.68,5.6v3.37c0,.67.26,1.3.74,1.77.48.48,1.11.75,1.78.75s1.31-.26,1.79-.74c.48-.48.74-1.11.74-1.78v-3.37h-5.05Z"/>
      </g>
      <g>
        <path class="cls-4" d="M7.77,8.98h0c0,.66.27,1.27.71,1.7.44.44,1.05.71,1.71.71s1.27-.27,1.71-.71c.44-.44.71-1.04.71-1.7h0v-3.27h-4.84s0,3.26,0,3.26M11.64,6.69v2.08s0,.22,0,.22c0,.06,0,.12-.01.18-.04.33-.19.62-.41.84-.26.26-.62.42-1.02.42s-.75-.17-1.01-.43c-.27-.27-.43-.64-.43-1.02v-2.3s2.89,0,2.89,0h0Z"/>
        <path class="cls-5" d="M10.2,11.39c-.64,0-1.25-.25-1.71-.71s-.71-1.06-.71-1.7h0s0-3.27,0-3.27h4.84s0,3.27,0,3.27c0,.64-.25,1.25-.71,1.7-.46.46-1.06.71-1.71.71ZM7.77,8.98h0c0,.64.25,1.25.71,1.7.46.46,1.07.71,1.71.71s1.25-.25,1.71-.71c.46-.46.71-1.06.71-1.7v-3.27s-4.84,0-4.84,0v3.26ZM10.2,10.43c-.38,0-.74-.15-1.01-.43-.27-.27-.43-.64-.43-1.02v-2.3h2.89s0,2.3,0,2.3c0,.06,0,.13,0,.18-.04.32-.18.61-.42.84-.27.27-.64.42-1.02.42ZM8.75,6.69v2.3c0,.38.16.75.43,1.02.28.28.64.43,1.01.43s.75-.15,1.02-.42c.23-.23.38-.52.41-.84,0-.05,0-.12,0-.18v-.22s0-2.08,0-2.08h-2.89Z"/>
      </g>
      <g id="e">
        <g id="d">
          <path class="cls-1" d="M8.09,6.57c0-.23.17-.29.17-.29s.18.06.18.29h-.35Z"/>
          <g>
            <path class="cls-1" d="M7.94,6.28l-.03.27h.18c0-.22.17-.26.17-.26,0,0,.17.05.17.26h.18l-.03-.27h-.64ZM7.9,6.55h.72s.03.02.03.03-.01.03-.03.03h-.72s-.03-.01-.03-.03.01-.03.03-.03Z"/>
            <path class="cls-5" d="M8.62,6.62h-.72s-.03-.01-.03-.03.01-.03.03-.03h.01l.03-.27h.64s.03.27.03.27h-.12s.12,0,.12,0c.02,0,.03.02.03.03s-.01.03-.03.03ZM7.9,6.55s-.03.01-.03.03.01.03.03.03h.72s.03-.01.03-.03-.01-.03-.03-.03h-.72ZM7.98,6.55h.46c0-.21-.17-.26-.17-.26h0s-.04,0-.08.04c-.04.03-.09.1-.09.21h-.11ZM7.94,6.28l-.03.27h.17c0-.12.05-.19.1-.22.04-.03.07-.04.08-.04h0s.17.05.18.26h.17s-.03-.27-.03-.27h-.64Z"/>
          </g>
          <g>
            <path class="cls-1" d="M8.16,6.55c0-.14.1-.18.1-.18,0,0,.1.04.1.18h-.2M7.92,6.17h.69s.03.01.03.03-.01.03-.03.03h-.69s-.03-.01-.03-.03.01-.03.03-.03ZM7.93,6.23h.66s.03.01.03.03-.01.03-.03.03h-.66s-.03-.01-.03-.03.01-.03.03-.03ZM8.15,5.78h.05v.04h.04v-.04h.05v.04h.04v-.04h.05v.09s-.01.02-.02.02h-.19s-.02-.01-.02-.02v-.08s0,0,0,0ZM8.34,5.89v.27s-.17,0-.17,0v-.27s.17,0,.17,0"/>
            <path class="cls-5" d="M8.16,6.55h0c0-.14.1-.18.1-.18,0,0,.1.04.1.18h-.2ZM8.17,6.55h.2c0-.14-.1-.18-.1-.18,0,0-.09.04-.1.18ZM8.59,6.29h-.66s-.03-.01-.03-.03c0-.01,0-.03.02-.03h0s-.03-.01-.03-.03.01-.03.03-.03h.69s.03.01.03.03-.01.03-.03.03h0s.02.02.02.03c0,.02-.01.03-.03.03ZM7.93,6.23s-.02.01-.02.03.01.03.02.03h.66s.02-.01.02-.03-.01-.03-.02-.03h-.66ZM7.92,6.17s-.03.01-.03.03.01.03.03.03h.69s.03-.01.03-.03-.01-.03-.03-.03h-.69ZM8.35,6.17h-.18s.01-.27.01-.27h.16s.01.27.01.27ZM8.18,5.89v.27s.17,0,.17,0v-.27s-.17,0-.17,0ZM8.36,5.89h-.19s-.03-.01-.03-.02v-.08h.05v.04s.04,0,.04,0v-.04s.05,0,.05,0v.04s.04,0,.04,0v-.04s.05,0,.05,0v.09s0,.02-.02.02ZM8.15,5.78v.08s.01.02.02.02h.19s.02,0,.02-.02v-.09h-.05s0,.04,0,.04h-.04s0-.04,0-.04h-.05v.04s-.04,0-.04,0v-.04s-.05,0-.05,0Z"/>
          </g>
          <g id="a">
            <path class="cls-1" d="M8.12,6.02v.15s-.17,0-.17,0v-.15h.17,0Z"/>
            <path class="cls-5" d="M7.95,6.17v-.15s.17,0,.17,0h0s0,.15,0,.15h-.18ZM7.95,6.02v.15s.17,0,.17,0v-.15h-.17Z"/>
          </g>
          <g id="a-2" data-name="a">
            <path class="cls-1" d="M8.57,6.02v.15s-.17,0-.17,0v-.15h.17,0Z"/>
            <path class="cls-5" d="M8.4,6.17v-.15s.17,0,.17,0h0s0,.15,0,.15h-.18ZM8.41,6.02v.15s.17,0,.17,0v-.15h-.17Z"/>
          </g>
          <g id="b">
            <path class="cls-1" d="M7.92,5.91h.05v.04h.04v-.04h.05v.04h.04v-.04h.05s0,.09,0,.09c0,.01-.01.02-.02.02h-.18s-.02,0-.02-.02v-.08s0,0,0,0Z"/>
            <path class="cls-5" d="M8.13,6.02h-.18s-.02-.01-.03-.02v-.08h.05v.04s.04,0,.04,0v-.04s.05,0,.05,0v.04s.04,0,.04,0v-.04s.05,0,.05,0v.09s-.01.02-.02.02ZM7.92,5.91v.08s.01.02.02.02h.18s.02,0,.02-.02v-.09h-.05v.04s-.04,0-.04,0v-.04h-.05v.04s-.04,0-.04,0v-.04s-.05,0-.05,0Z"/>
          </g>
          <g id="b-2" data-name="b">
            <path class="cls-1" d="M8.37,5.91h.05v.04h.04v-.04h.05v.04h.04v-.04h.05s0,.09,0,.09c0,.01-.01.02-.02.02h-.18s-.02,0-.02-.02v-.08s0,0,0,0Z"/>
            <path class="cls-5" d="M8.58,6.02h-.18s-.03-.01-.03-.02v-.08h.05v.04s.04,0,.04,0v-.04s.05,0,.05,0v.04s.04,0,.04,0v-.04s.05,0,.05,0v.09s-.01.02-.02.02ZM8.37,5.91v.08s.01.02.02.02h.18s.02,0,.02-.02v-.09h-.05v.04s-.04,0-.04,0v-.04h-.05v.04s-.04,0-.04,0v-.04s-.05,0-.05,0Z"/>
          </g>
          <path class="cls-5" d="M8.24,5.98s.04-.03.04,0v.07h-.04v-.07Z"/>
          <g id="c">
            <path class="cls-5" d="M8.02,6.07s.04-.03.04,0v.05h-.04v-.05Z"/>
          </g>
          <g id="c-2" data-name="c">
            <path class="cls-5" d="M8.47,6.07s.04-.03.04,0v.05h-.04v-.05Z"/>
          </g>
        </g>
        <g id="d-2" data-name="d">
          <path class="cls-1" d="M8.09,8.54c0-.23.17-.29.17-.29s.18.06.18.29h-.35Z"/>
          <g>
            <path class="cls-1" d="M7.94,8.25l-.03.27h.18c0-.22.17-.26.17-.26,0,0,.17.05.17.26h.18l-.03-.27h-.64ZM7.9,8.52h.72s.03.02.03.03-.01.03-.03.03h-.72s-.03-.01-.03-.03.01-.03.03-.03Z"/>
            <path class="cls-5" d="M8.62,8.59h-.72s-.03-.01-.03-.03.01-.03.03-.03h.01l.03-.27h.64s.03.27.03.27h0s.03.02.03.03-.01.03-.03.03ZM7.9,8.52s-.03.01-.03.03.01.03.03.03h.72s.03-.02.03-.03-.01-.03-.03-.03h-.72ZM8.44,8.52h.17s-.03-.27-.03-.27h-.64s-.03.27-.03.27h.17c0-.12.05-.19.1-.22.04-.03.07-.04.08-.04h0s.04.01.08.05c.04.04.09.1.09.21ZM8.09,8.52h.35c0-.11-.05-.17-.08-.21-.04-.04-.09-.05-.09-.05h0s-.04,0-.08.04c-.04.03-.09.1-.09.21Z"/>
          </g>
          <g>
            <path class="cls-1" d="M8.16,8.52c0-.14.1-.18.1-.18,0,0,.1.04.1.18h-.2M7.92,8.14h.69s.03.01.03.03-.01.03-.03.03h-.69s-.03-.01-.03-.03.01-.03.03-.03ZM7.93,8.2h.66s.03.01.03.03-.01.03-.03.03h-.66s-.03-.01-.03-.03.01-.03.03-.03ZM8.15,7.75h.05v.04h.04v-.04h.05v.04h.04v-.04h.05v.09s-.01.02-.02.02h-.19s-.02-.01-.02-.02v-.08s0,0,0,0ZM8.34,7.86v.27s-.17,0-.17,0v-.27s.17,0,.17,0"/>
            <path class="cls-5" d="M8.16,8.52h0c0-.14.1-.18.1-.18,0,0,.1.04.1.18h-.2ZM8.17,8.52h.2c0-.14-.1-.18-.1-.18,0,0-.09.04-.1.18ZM8.59,8.26h-.66s-.03-.01-.03-.03c0-.01,0-.03.02-.03h0s-.03-.01-.03-.03.01-.03.03-.03h.69s.03.01.03.03-.01.03-.03.03h0s.02.02.02.03c0,.02-.01.03-.03.03ZM7.93,8.2s-.02.01-.02.03.01.03.02.03h.66s.02-.01.02-.03-.01-.03-.02-.03h-.66ZM8.59,8.2h.02s.03-.01.03-.03-.01-.03-.03-.03h-.69s-.03.01-.03.03.01.03.03.03h.68ZM8.17,8.14v-.27s.17,0,.17,0v.27s-.17,0-.17,0ZM8.18,7.86v.27s.17,0,.17,0v-.27s-.17,0-.17,0ZM8.36,7.85h-.19s-.03-.01-.03-.02v-.09h.05v.04s.04,0,.04,0v-.04s.05,0,.05,0v.04s.04,0,.04,0v-.04s.05,0,.05,0v.09s0,.02-.02.02ZM8.15,7.75v.08s.01.02.02.02h.19s.02,0,.02-.02v-.09h-.05s0,.04,0,.04h-.04s0-.04,0-.04h-.05s0,.04,0,.04h-.04s0-.04,0-.04h-.05Z"/>
          </g>
          <g id="a-3" data-name="a">
            <path class="cls-1" d="M8.12,7.99v.15s-.17,0-.17,0v-.15h.17,0Z"/>
            <path class="cls-5" d="M7.95,8.14v-.15s.17,0,.17,0h0s0,.15,0,.15h-.18ZM7.95,7.99v.15s.17,0,.17,0v-.15h-.17Z"/>
          </g>
          <g id="a-4" data-name="a">
            <path class="cls-1" d="M8.57,7.99v.15s-.17,0-.17,0v-.15h.17,0Z"/>
            <path class="cls-5" d="M8.4,8.14v-.15s.17,0,.17,0h0s0,.15,0,.15h-.18ZM8.41,7.99v.15s.17,0,.17,0v-.15h-.17Z"/>
          </g>
          <g id="b-3" data-name="b">
            <path class="cls-1" d="M7.92,7.88h.05v.04h.04v-.04h.05v.04h.04v-.04h.05s0,.09,0,.09c0,.01-.01.02-.02.02h-.18s-.02,0-.02-.02v-.08s0,0,0,0Z"/>
            <path class="cls-5" d="M8.13,7.99h-.18s-.02,0-.03-.02v-.09s.05,0,.05,0v.04s.04,0,.04,0v-.04s.05,0,.05,0v.04s.04,0,.04,0v-.04s.05,0,.05,0v.09s-.01.02-.02.02ZM7.92,7.88v.08s.01.02.02.02h.18s.02,0,.02-.02v-.09h-.05s0,.04,0,.04h-.04s0-.04,0-.04h-.05s0,.04,0,.04h-.04s0-.04,0-.04h-.05Z"/>
          </g>
          <g id="b-4" data-name="b">
            <path class="cls-1" d="M8.37,7.88h.05v.04h.04v-.04h.05v.04h.04v-.04h.05s0,.09,0,.09c0,.01-.01.02-.02.02h-.18s-.02,0-.02-.02v-.08s0,0,0,0Z"/>
            <path class="cls-5" d="M8.58,7.99h-.18s-.03-.01-.03-.02v-.09s.05,0,.05,0v.04s.04,0,.04,0v-.04s.05,0,.05,0v.04s.04,0,.04,0v-.04s.05,0,.05,0v.09s-.01.02-.02.02ZM8.37,7.88v.08s.01.02.02.02h.18s.02,0,.02-.02v-.09h-.05s0,.04,0,.04h-.04s0-.04,0-.04h-.05s0,.04,0,.04h-.04s0-.04,0-.04h-.05Z"/>
          </g>
          <path class="cls-5" d="M8.24,7.95s.04-.03.04,0v.07h-.04v-.07Z"/>
          <g id="c-3" data-name="c">
            <path class="cls-5" d="M8.02,8.04s.04-.03.04,0v.05h-.04v-.05Z"/>
          </g>
          <g id="c-4" data-name="c">
            <path class="cls-5" d="M8.47,8.04s.04-.03.04,0v.05h-.04v-.05Z"/>
          </g>
        </g>
        <g id="d-3" data-name="d">
          <path class="cls-1" d="M8.85,10.59c-.16-.17-.08-.33-.08-.33s.17-.09.33.08l-.25.25Z"/>
          <g>
            <path class="cls-1" d="M8.55,10.49l.17.21.12-.12c-.16-.16-.07-.3-.06-.31,0,0,.15-.09.31.06l.12-.13-.22-.17-.45.45h0ZM8.71,10.71l.51-.51s.03,0,.04,0,.01.03,0,.04l-.51.51s-.03,0-.04,0-.01-.03,0-.04Z"/>
            <path class="cls-5" d="M8.74,10.76s-.02,0-.03-.01c-.01-.01-.02-.03,0-.04h0s0,0,0,0l.11-.11-.1.1-.17-.21h0s.45-.45.45-.45l.21.17h0s.03-.02.04,0c.01.01.02.03,0,.04l-.51.51s-.01,0-.02,0ZM8.71,10.71s0,.03,0,.04c.01.01.03.01.04,0l.51-.51s0-.03,0-.04c-.01-.01-.03-.01-.04,0l-.51.51ZM8.55,10.49l.17.21.12-.12c-.09-.09-.1-.18-.09-.23,0-.04.03-.07.03-.07,0,0,.15-.09.31.06l.12-.12-.21-.17-.45.45ZM8.89,10.24c-.07,0-.11.03-.11.03,0,0-.02.04-.03.08,0,.05,0,.13.09.22l.24-.25c-.07-.07-.14-.08-.2-.08Z"/>
          </g>
          <g>
            <path class="cls-1" d="M8.9,10.52c-.1-.1-.06-.2-.06-.2,0,0,.1-.04.2.06l-.14.14M8.45,10.42l.49-.49s.03,0,.04,0,.01.03,0,.04l-.49.49s-.03,0-.04,0-.01-.03,0-.04ZM8.51,10.46l.47-.47s.03,0,.04,0,.01.03,0,.04l-.47.47s-.03,0-.04,0-.01-.03,0-.04ZM8.34,9.99l.04-.04.03.03.03-.03-.03-.03.04-.04.03.03.03-.03-.03-.03.04-.04.06.06s0,.02,0,.03l-.13.13s-.02.01-.03,0l-.06-.06h0ZM8.56,9.93l.2.18-.13.13-.19-.2.11-.11"/>
            <path class="cls-5" d="M8.9,10.52h0c-.09-.09-.07-.18-.06-.2,0,0,.1-.04.2.06l-.14.14ZM8.89,10.31s-.05,0-.05,0c0,.02-.03.1.06.19l.14-.14c-.05-.05-.11-.06-.15-.06ZM8.53,10.51s-.02,0-.02,0c-.01-.01-.01-.03,0-.04h0s-.03.02-.04,0c-.01-.01-.01-.03,0-.04l.49-.49s0,0,.02,0h0s.02,0,.02,0c.01.01.01.03,0,.04h0s0,0,.01,0h0s.02,0,.02,0c.01.01.01.03,0,.04l-.47.47s0,0-.02,0ZM8.99,9.98h0s-.01,0-.02,0l-.46.47s0,.03,0,.04c.01.01.03.01.04,0l.47-.47s0-.03,0-.04c0,0-.01,0-.02,0ZM8.45,10.43h0s0,.03,0,.04c.01.01.03.01.04,0l.49-.49s0-.03,0-.04c0,0-.01,0-.02,0h0s-.01,0-.02,0l-.49.49ZM8.63,10.24l-.19-.2.11-.11h0s.2.19.2.19l-.13.13ZM8.56,9.93l-.11.11.19.2.13-.13-.2-.18ZM8.41,10.05s-.01,0-.02,0l-.06-.06h0s.04-.04.04-.04l.03.03.03-.03-.03-.03.04-.04.03.03.03-.03-.03-.03.04-.04.06.06s0,.02,0,.03l-.13.13s-.01,0-.02,0ZM8.34,9.99l.06.06s.02,0,.03,0l.13-.13s0-.02,0-.03l-.06-.06-.04.04.03.03-.03.03-.03-.03-.04.04.03.03-.03.03-.03-.03-.04.04Z"/>
          </g>
          <g id="a-5" data-name="a">
            <path class="cls-1" d="M8.49,10.18l.11.1-.12.12-.1-.11.12-.12h0Z"/>
            <path class="cls-5" d="M8.47,10.4l-.1-.11.12-.12h0s.11.1.11.1l-.12.13ZM8.49,10.18l-.12.12.1.11.12-.12-.11-.1Z"/>
          </g>
          <g id="a-6" data-name="a">
            <path class="cls-1" d="M8.81,9.86l.11.1-.12.12-.1-.11.12-.12h0Z"/>
            <path class="cls-5" d="M8.79,10.08l-.1-.11.12-.12h0s0,0,0,0l.11.1-.12.13ZM8.81,9.86l-.12.12.1.11.12-.12-.11-.1Z"/>
          </g>
          <g id="b-5" data-name="b">
            <path class="cls-1" d="M8.27,10.24l.04-.04.03.03.03-.03-.03-.03.04-.04.03.03.03-.03-.03-.03.04-.04.06.06s0,.02,0,.03l-.13.13s-.02,0-.03,0l-.06-.06h0Z"/>
            <path class="cls-5" d="M8.35,10.31s-.01,0-.02,0l-.06-.06h0s.04-.04.04-.04l.03.03.03-.03-.03-.03.04-.04.03.03.03-.03-.03-.03.04-.04.06.06s0,.02,0,.03l-.13.13s-.01,0-.02,0ZM8.27,10.24l.06.06s.01,0,.02,0c0,0,.01,0,.02,0l.13-.13s0-.02,0-.03l-.06-.06-.04.04.03.03-.03.03-.03-.03-.04.04.03.03-.03.03-.03-.03-.04.04Z"/>
          </g>
          <g id="b-6" data-name="b">
            <path class="cls-1" d="M8.59,9.92l.04-.04.03.03.03-.03-.03-.03.04-.04.03.03.03-.03-.03-.03.04-.04.06.06s0,.02,0,.03l-.13.13s-.02,0-.03,0l-.06-.06h0Z"/>
            <path class="cls-5" d="M8.67,9.99s-.01,0-.02,0l-.06-.06h0s.04-.04.04-.04l.03.03.03-.03-.03-.03.04-.04.03.03.03-.03-.03-.03.04-.04.06.06s0,.02,0,.03l-.13.13s-.01,0-.02,0ZM8.59,9.92l.06.06s.02,0,.03,0l.13-.13s0-.02,0-.03l-.06-.06-.04.04.03.03-.03.03-.03-.03-.04.04.03.03-.03.03-.03-.03-.04.04Z"/>
          </g>
          <path class="cls-5" d="M8.55,10.06s0-.05.03-.03l.05.05-.03.03-.05-.05Z"/>
          <g id="c-5" data-name="c">
            <path class="cls-5" d="M8.46,10.29s0-.04.02-.02l.04.04-.02.02-.04-.04Z"/>
          </g>
          <g id="c-6" data-name="c">
            <path class="cls-5" d="M8.78,9.97s0-.04.02-.02l.04.04-.02.02-.04-.04Z"/>
          </g>
        </g>
      </g>
      <g id="d-4" data-name="d">
        <path class="cls-1" d="M10.03,6.57c0-.23.17-.29.17-.29s.18.06.18.29h-.35Z"/>
        <g>
          <path class="cls-1" d="M9.89,6.28l-.03.27h.18c0-.22.17-.26.17-.26,0,0,.17.05.17.26h.18l-.03-.27h-.64ZM9.85,6.55h.72s.03.02.03.03-.01.03-.03.03h-.72s-.03-.01-.03-.03.01-.03.03-.03Z"/>
          <path class="cls-5" d="M10.57,6.62h-.72s-.03-.02-.03-.03.01-.03.03-.03h.01l.03-.27h.64s.03.27.03.27h-.12s.12,0,.12,0c.02,0,.03.01.03.03s-.01.03-.03.03ZM9.85,6.55s-.03.02-.03.03.01.03.03.03h.72s.03-.01.03-.03-.01-.03-.03-.03h-.72ZM9.93,6.55h.46c0-.21-.17-.26-.17-.26h0s-.04,0-.09.04c-.04.03-.09.1-.09.21h-.11ZM9.89,6.28l-.03.27h.18c0-.12.05-.19.09-.22.04-.03.08-.04.08-.04h0s.17.05.17.26h.18s-.03-.27-.03-.27h-.64Z"/>
        </g>
        <g>
          <path class="cls-1" d="M10.11,6.55c0-.14.1-.18.1-.18,0,0,.1.04.1.18h-.2M9.86,6.17h.69s.03.01.03.03-.01.03-.03.03h-.69s-.03-.01-.03-.03.01-.03.03-.03ZM9.88,6.23h.66s.03.01.03.03-.01.03-.03.03h-.66s-.03-.01-.03-.03.01-.03.03-.03ZM10.09,5.78h.05v.04h.04v-.04h.05v.04h.04v-.04h.05v.09s-.01.02-.02.02h-.19s-.02-.01-.02-.02v-.08s0,0,0,0ZM10.29,5.89v.27s-.17,0-.17,0v-.27s.17,0,.17,0"/>
          <path class="cls-5" d="M10.11,6.55h0c0-.14.1-.18.1-.18,0,0,.1.04.1.18h-.2ZM10.11,6.55h.2c0-.14-.1-.18-.1-.18,0,0-.09.04-.1.18ZM10.54,6.29h-.66s-.03-.01-.03-.03c0-.02,0-.03.02-.03h0s-.03-.01-.03-.03.01-.03.03-.03h.69s.03.01.03.03-.01.03-.03.03h0s.02.02.02.03c0,.02-.01.03-.03.03ZM9.88,6.23s-.02.01-.02.03.01.03.02.03h.66s.02-.01.02-.03-.01-.03-.02-.03h-.66ZM9.86,6.17s-.03.01-.03.03.01.03.03.03h.69s.03-.01.03-.03-.01-.03-.03-.03h-.69ZM10.3,6.17h-.18s.01-.27.01-.27h.16s.01.27.01.27ZM10.13,5.89v.27s.17,0,.17,0v-.27s-.17,0-.17,0ZM10.3,5.89h-.19s-.03-.01-.03-.02v-.08h.05v.04s.04,0,.04,0v-.04s.05,0,.05,0v.04s.04,0,.04,0v-.04s.05,0,.05,0v.09s0,.02-.02.02ZM10.09,5.78v.08s.01.02.02.02h.19s.02,0,.02-.02v-.09h-.05s0,.04,0,.04h-.04s0-.04,0-.04h-.05v.04s-.04,0-.04,0v-.04s-.05,0-.05,0Z"/>
        </g>
        <g id="a-7" data-name="a">
          <path class="cls-1" d="M10.06,6.02v.15s-.17,0-.17,0v-.15h.17,0Z"/>
          <path class="cls-5" d="M9.89,6.17v-.15s.17,0,.17,0h0s0,.15,0,.15h-.18ZM9.9,6.02v.15s.17,0,.17,0v-.15h-.17Z"/>
        </g>
        <g id="a-8" data-name="a">
          <path class="cls-1" d="M10.51,6.02v.15s-.17,0-.17,0v-.15h.17,0Z"/>
          <path class="cls-5" d="M10.34,6.17v-.15s.17,0,.17,0h0s0,.15,0,.15h-.18ZM10.35,6.02v.15s.17,0,.17,0v-.15h-.17Z"/>
        </g>
        <g id="b-7" data-name="b">
          <path class="cls-1" d="M9.87,5.91h.05v.04h.04v-.04h.05v.04h.04v-.04h.05s0,.09,0,.09c0,.01-.01.02-.02.02h-.18s-.02,0-.02-.02v-.08s0,0,0,0Z"/>
          <path class="cls-5" d="M10.07,6.02h-.18s-.02-.01-.02-.02v-.08h.05v.04s.04,0,.04,0v-.04s.05,0,.05,0v.04s.04,0,.04,0v-.04s.05,0,.05,0v.09s0,.02-.02.02ZM9.87,5.91v.08s.01.02.02.02h.18s.02,0,.02-.02v-.09h-.05v.04s-.04,0-.04,0v-.04h-.05v.04s-.04,0-.04,0v-.04s-.05,0-.05,0Z"/>
        </g>
        <g id="b-8" data-name="b">
          <path class="cls-1" d="M10.32,5.91h.05v.04h.04v-.04h.05v.04h.04v-.04h.05s0,.09,0,.09c0,.01-.01.02-.02.02h-.18s-.02,0-.02-.02v-.08s0,0,0,0Z"/>
          <path class="cls-5" d="M10.52,6.02h-.18s-.02-.01-.02-.02v-.08h.05v.04s.04,0,.04,0v-.04s.05,0,.05,0v.04s.04,0,.04,0v-.04s.05,0,.05,0v.09s0,.02-.02.02ZM10.32,5.91v.08s.01.02.02.02h.18s.02,0,.02-.02v-.09s-.05,0-.05,0v.04s-.04,0-.04,0v-.04h-.05v.04s-.04,0-.04,0v-.04s-.05,0-.05,0Z"/>
        </g>
        <path class="cls-5" d="M10.19,5.98s.04-.03.04,0v.07h-.04v-.07Z"/>
        <g id="c-7" data-name="c">
          <path class="cls-5" d="M9.96,6.07s.04-.03.04,0v.05h-.04v-.05Z"/>
        </g>
        <g id="c-8" data-name="c">
          <path class="cls-5" d="M10.41,6.07s.04-.03.04,0v.05h-.04v-.05Z"/>
        </g>
      </g>
      <g id="e-2" data-name="e">
        <g id="d-5" data-name="d">
          <path class="cls-1" d="M12.31,6.57c0-.23-.17-.29-.17-.29s-.18.06-.18.29h.35Z"/>
          <g>
            <path class="cls-1" d="M12.46,6.28l.03.27h-.18c0-.22-.17-.26-.17-.26,0,0-.17.05-.17.26h-.18l.03-.27h.64ZM12.5,6.55h-.72s-.03.02-.03.03.01.03.03.03h.72s.03-.01.03-.03-.01-.03-.03-.03Z"/>
            <path class="cls-5" d="M12.5,6.62h-.72s-.03-.02-.03-.03.01-.03.03-.03h0l.03-.27h.64s.03.27.03.27h-.12s.13,0,.13,0c.02,0,.03.01.03.03s-.01.03-.03.03ZM11.78,6.55s-.03.02-.03.03.01.03.03.03h.72s.03-.01.03-.03-.01-.03-.03-.03h-.72ZM11.86,6.55h.46c0-.12-.05-.18-.09-.22-.04-.03-.08-.04-.08-.04h0s-.17.05-.17.26h-.11ZM11.82,6.28l-.03.27h.17c0-.21.17-.26.17-.26h0s.04,0,.08.04c.04.03.1.1.1.22h.17s-.03-.27-.03-.27h-.64Z"/>
          </g>
          <g>
            <path class="cls-1" d="M12.24,6.55c0-.14-.1-.18-.1-.18,0,0-.1.04-.1.18h.2M12.48,6.17h-.69s-.03.01-.03.03.01.03.03.03h.69s.03-.01.03-.03-.01-.03-.03-.03ZM12.47,6.23h-.66s-.03.01-.03.03.01.03.03.03h.66s.03-.01.03-.03-.01-.03-.03-.03ZM12.26,5.78h-.05v.04h-.04v-.04h-.05v.04h-.04v-.04h-.05v.09s.01.02.02.02h.19s.02-.01.02-.02v-.08s0,0,0,0ZM12.06,5.89v.27s.17,0,.17,0v-.27s-.17,0-.17,0"/>
            <path class="cls-5" d="M12.24,6.55h-.2c0-.14.1-.18.1-.18,0,0,.1.04.1.18h0ZM12.14,6.37s-.1.04-.1.18h.2c0-.14-.09-.18-.1-.18ZM12.47,6.29h-.66s-.03-.01-.03-.03c0-.01,0-.03.02-.03h0s-.03-.01-.03-.03.01-.03.03-.03h.25v-.28s.17,0,.17,0v.27s-.14,0-.14,0h.41s.03.01.03.03-.01.03-.03.03h0s.02.02.02.03c0,.02-.01.03-.03.03ZM11.81,6.23s-.02.01-.02.03.01.03.02.03h.66s.02-.01.02-.03-.01-.03-.02-.03h-.66ZM11.79,6.17s-.03.01-.03.03.01.03.03.03h.69s.03-.01.03-.03-.01-.03-.03-.03h-.69ZM12.06,5.89v.27s.17,0,.17,0v-.27s-.17,0-.17,0ZM12.23,5.89h-.19s-.02,0-.02-.02v-.09h.05s0,.04,0,.04h.04s0-.04,0-.04h.05s0,.04,0,.04h.04s0-.04,0-.04h.05s0,.08,0,.08c0,.01-.01.02-.03.02ZM12.07,5.78h-.05s0,.09,0,.09c0,.01,0,.02.02.02h.19s.02-.01.02-.02v-.08h-.05v.04s-.04,0-.04,0v-.04s-.05,0-.05,0v.04s-.04,0-.04,0v-.04Z"/>
          </g>
          <g id="a-9" data-name="a">
            <path class="cls-1" d="M12.28,6.02v.15s.17,0,.17,0v-.15h-.17,0Z"/>
            <path class="cls-5" d="M12.28,6.17v-.15h.17v.15s-.17,0-.17,0ZM12.28,6.02v.15s.17,0,.17,0v-.15s-.17,0-.17,0Z"/>
          </g>
          <g id="a-10" data-name="a">
            <path class="cls-1" d="M11.83,6.02v.15s.17,0,.17,0v-.15h-.17,0Z"/>
            <path class="cls-5" d="M11.83,6.17v-.15h.17v.15s-.17,0-.17,0ZM11.83,6.02v.15s.17,0,.17,0v-.15s-.17,0-.17,0Z"/>
          </g>
          <g id="b-9" data-name="b">
            <path class="cls-1" d="M12.48,5.91h-.05v.04h-.04v-.04h-.05v.04h-.04v-.04h-.05s0,.09,0,.09c0,.01.01.02.02.02h.18s.02,0,.02-.02v-.08s0,0,0,0Z"/>
            <path class="cls-5" d="M12.46,6.02h-.18s-.02,0-.02-.02v-.09h.05s0,.04,0,.04h.04s0-.04,0-.04h.05s0,.04,0,.04h.04s0-.04,0-.04h.05s0,.08,0,.08c0,.01-.01.02-.03.02ZM12.3,5.91h-.05s0,.09,0,.09c0,.01.01.02.02.02h.18s.02,0,.02-.02v-.08h-.05v.04s-.04,0-.04,0v-.04s-.05,0-.05,0v.04s-.04,0-.04,0v-.04Z"/>
          </g>
          <g id="b-10" data-name="b">
            <path class="cls-1" d="M12.03,5.91h-.05v.04h-.04v-.04h-.05v.04h-.04v-.04h-.05s0,.09,0,.09c0,.01.01.02.02.02h.18s.02,0,.02-.02v-.08s0,0,0,0Z"/>
            <path class="cls-5" d="M12,6.02h-.18s-.02,0-.02-.02v-.09h.05s0,.04,0,.04h.04s0-.04,0-.04h.05s0,.04,0,.04h.04s0-.04,0-.04h.05s0,.08,0,.08c0,.01-.01.02-.03.02ZM11.85,5.91h-.05s0,.09,0,.09c0,.01.01.02.02.02h.18s.02-.01.02-.02v-.08h-.05v.04s-.04,0-.04,0v-.04s-.05,0-.05,0v.04s-.04,0-.04,0v-.04Z"/>
          </g>
          <path class="cls-5" d="M12.16,5.98s-.04-.03-.04,0v.07h.04v-.07Z"/>
          <g id="c-9" data-name="c">
            <path class="cls-5" d="M12.38,6.07s-.04-.03-.04,0v.05h.04v-.05Z"/>
          </g>
          <g id="c-10" data-name="c">
            <path class="cls-5" d="M11.93,6.07s-.04-.03-.04,0v.05h.04v-.05Z"/>
          </g>
        </g>
        <g id="d-6" data-name="d">
          <path class="cls-1" d="M12.31,8.54c0-.23-.17-.29-.17-.29s-.18.06-.18.29h.35Z"/>
          <g>
            <path class="cls-1" d="M12.46,8.25l.03.27h-.18c0-.22-.17-.26-.17-.26,0,0-.17.05-.17.26h-.18l.03-.27h.64ZM12.5,8.52h-.72s-.03.02-.03.03.01.03.03.03h.72s.03-.01.03-.03-.01-.03-.03-.03Z"/>
            <path class="cls-5" d="M12.5,8.59h-.72s-.03-.02-.03-.03.01-.03.03-.03h0l.03-.27h.64s.03.27.03.27h-.07s.08,0,.08,0c.02,0,.03.02.03.03s-.01.03-.03.03ZM11.78,8.52s-.03.02-.03.03.01.03.03.03h.72s.03-.01.03-.03-.01-.03-.03-.03h-.72ZM12.31,8.52h.17s-.03-.27-.03-.27h-.64s-.03.27-.03.27h.17c0-.11.05-.18.09-.21.04-.04.08-.05.08-.05h0s.04,0,.08.04c.04.03.09.1.1.22ZM11.96,8.52h.35c0-.12-.05-.18-.09-.21-.04-.03-.08-.04-.08-.04h0s-.05.01-.09.05c-.04.04-.08.1-.08.21Z"/>
          </g>
          <g>
            <path class="cls-1" d="M12.24,8.52c0-.14-.1-.18-.1-.18,0,0-.1.04-.1.18h.2M12.48,8.14h-.69s-.03.01-.03.03.01.03.03.03h.69s.03-.01.03-.03-.01-.03-.03-.03ZM12.47,8.2h-.66s-.03.01-.03.03.01.03.03.03h.66s.03-.01.03-.03-.01-.03-.03-.03ZM12.26,7.75h-.05v.04h-.04v-.04h-.05v.04h-.04v-.04h-.05v.09s.01.02.02.02h.19s.02-.01.02-.02v-.08s0,0,0,0ZM12.06,7.86v.27s.17,0,.17,0v-.27s-.17,0-.17,0"/>
            <path class="cls-5" d="M12.24,8.52h-.2c0-.14.1-.18.1-.18,0,0,.1.04.1.18h0ZM12.14,8.34s-.1.04-.1.18h.2c0-.14-.09-.18-.1-.18ZM12.47,8.26h-.66s-.03-.01-.03-.03c0-.01,0-.03.02-.03h0s-.03-.01-.03-.03.01-.03.03-.03h.69s.03.01.03.03-.01.03-.03.03h0s.02.02.02.03c0,.02-.01.03-.03.03ZM11.81,8.2s-.02.01-.02.03.01.03.02.03h.66s.02-.01.02-.03-.01-.03-.02-.03h-.66ZM12.47,8.2h.01s.03-.01.03-.03-.01-.03-.03-.03h-.69s-.03.01-.03.03.01.03.03.03h.68ZM12.05,8.14v-.27s.17,0,.17,0v.27s-.17,0-.17,0ZM12.06,7.86v.27s.17,0,.17,0v-.27s-.17,0-.17,0ZM12.23,7.85h-.19s-.02,0-.02-.02v-.09h.05s0,.04,0,.04h.04s0-.04,0-.04h.05s0,.04,0,.04h.04s0-.04,0-.04h.05s0,.08,0,.08c0,.01-.01.02-.03.02ZM12.07,7.75h-.05s0,.09,0,.09c0,.01.01.02.02.02h.19s.02,0,.02-.02v-.08h-.05v.04s-.04,0-.04,0v-.04s-.05,0-.05,0v.04s-.04,0-.04,0v-.04Z"/>
          </g>
          <g id="a-11" data-name="a">
            <path class="cls-1" d="M12.28,7.99v.15s.17,0,.17,0v-.15h-.17,0Z"/>
            <path class="cls-5" d="M12.28,8.14v-.15h.17v.15s-.17,0-.17,0ZM12.28,7.99v.15s.17,0,.17,0v-.15s-.17,0-.17,0Z"/>
          </g>
          <g id="a-12" data-name="a">
            <path class="cls-1" d="M11.83,7.99v.15s.17,0,.17,0v-.15h-.17,0Z"/>
            <path class="cls-5" d="M11.83,8.14v-.15h.17v.15s-.17,0-.17,0ZM11.83,7.99v.15s.17,0,.17,0v-.15s-.17,0-.17,0Z"/>
          </g>
          <g id="b-11" data-name="b">
            <path class="cls-1" d="M12.48,7.88h-.05v.04h-.04v-.04h-.05v.04h-.04v-.04h-.05s0,.09,0,.09c0,.01.01.02.02.02h.18s.02,0,.02-.02v-.08s0,0,0,0Z"/>
            <path class="cls-5" d="M12.46,7.99h-.18s-.02,0-.02-.02v-.09h.05s0,.04,0,.04h.04s0-.04,0-.04h.05s0,.04,0,.04h.04s0-.04,0-.04h.05s0,.08,0,.08c0,.01-.01.02-.03.02ZM12.3,7.88h-.05s0,.09,0,.09c0,.01.01.02.02.02h.18s.02,0,.02-.02v-.08h-.05s0,.04,0,.04h-.04s0-.04,0-.04h-.05s0,.04,0,.04h-.04s0-.04,0-.04Z"/>
          </g>
          <g id="b-12" data-name="b">
            <path class="cls-1" d="M12.03,7.88h-.05v.04h-.04v-.04h-.05v.04h-.04v-.04h-.05s0,.09,0,.09c0,.01.01.02.02.02h.18s.02,0,.02-.02v-.08s0,0,0,0Z"/>
            <path class="cls-5" d="M12,7.99h-.18s-.02,0-.02-.02v-.09h.05s0,.04,0,.04h.04s0-.04,0-.04h.05s0,.04,0,.04h.04s0-.04,0-.04h.05s0,.08,0,.08c0,.01-.01.02-.03.02ZM11.85,7.88h-.05s0,.09,0,.09c0,.01.01.02.02.02h.18s.02,0,.02-.02v-.08h-.05s0,.04,0,.04h-.04s0-.04,0-.04h-.05s0,.04,0,.04h-.04s0-.04,0-.04Z"/>
          </g>
          <path class="cls-5" d="M12.16,7.95s-.04-.03-.04,0v.07h.04v-.07Z"/>
          <g id="c-11" data-name="c">
            <path class="cls-5" d="M12.38,8.04s-.04-.03-.04,0v.05h.04v-.05Z"/>
          </g>
          <g id="c-12" data-name="c">
            <path class="cls-5" d="M11.93,8.04s-.04-.03-.04,0v.05h.04v-.05Z"/>
          </g>
        </g>
        <g id="d-7" data-name="d">
          <path class="cls-1" d="M11.55,10.59c.16-.17.08-.33.08-.33s-.17-.09-.33.08l.25.25Z"/>
          <g>
            <path class="cls-1" d="M11.85,10.49l-.17.21-.12-.12c.16-.16.07-.3.06-.31,0,0-.15-.09-.31.06l-.12-.13.22-.17.45.45h0ZM11.69,10.71l-.51-.51s-.03,0-.04,0-.01.03,0,.04l.51.51s.03,0,.04,0,.01-.03,0-.04Z"/>
            <path class="cls-5" d="M11.66,10.76s-.01,0-.02,0l-.51-.51s0-.03,0-.04c.01-.01.03-.01.04,0h0s.21-.16.21-.16l.45.45h0s-.17.21-.17.21l-.08-.08.08.08s0,.03,0,.04c0,0-.02.01-.03.01ZM11.16,10.19s-.02,0-.03.01c-.01.01-.01.03,0,.04l.51.51s.03,0,.04,0c.01-.01.01-.03,0-.04l-.51-.51s-.01,0-.02,0ZM11.56,10.58l.12.12.17-.21-.45-.45-.21.17.12.12c.16-.15.31-.06.31-.06,0,0,.02.03.03.07,0,.06,0,.14-.09.23h0ZM11.31,10.33l.24.25c.08-.09.1-.17.09-.22,0-.05-.03-.08-.03-.08,0,0-.15-.09-.31.06Z"/>
          </g>
          <g>
            <path class="cls-1" d="M11.5,10.52c.1-.1.06-.2.06-.2,0,0-.1-.04-.2.06l.14.14M11.95,10.42l-.49-.49s-.03,0-.04,0-.01.03,0,.04l.49.49s.03,0,.04,0,.01-.03,0-.04ZM11.9,10.46l-.47-.47s-.03,0-.04,0-.01.03,0,.04l.47.47s.03,0,.04,0,.01-.03,0-.04ZM12.06,9.99l-.04-.04-.03.03-.03-.03.03-.03-.04-.04-.03.03-.03-.03.03-.03-.04-.04-.06.06s0,.02,0,.03l.13.13s.02.01.03,0l.06-.06h0ZM11.84,9.93l-.2.18.13.13.19-.2-.11-.11"/>
            <path class="cls-5" d="M11.5,10.52h0s-.14-.14-.14-.14c.1-.1.2-.06.2-.06,0,.02.03.1-.06.2h0ZM11.51,10.31s-.09.01-.15.06l.14.14c.09-.09.07-.18.06-.19,0,0-.02,0-.05,0ZM11.87,10.51s-.01,0-.02,0l-.47-.47s0-.03,0-.04c0,0,.01,0,.02,0h0s0,0,.01,0h0s0-.04,0-.05c0,0,.01,0,.02,0h0s.01,0,.02,0l.49.49s0,.03,0,.04c-.01.01-.03.01-.04,0h0s0,.02,0,.03c0,0-.01,0-.02,0ZM11.41,9.98s-.02,0-.02,0c-.01.01-.01.03,0,.04l.47.47s.03,0,.04,0c.01-.01.01-.03,0-.04l-.46-.47s0,0-.02,0h0ZM11.44,9.93s-.02,0-.02,0c-.01.01-.01.03,0,.04l.49.49s.03,0,.04,0c.01-.01.01-.03,0-.04l-.49-.49s-.01,0-.02,0h0ZM11.77,10.24l-.13-.13.2-.19h0s.11.11.11.11l-.19.2ZM11.84,9.93l-.2.18.13.13.19-.2-.11-.11ZM11.99,10.05s-.01,0-.02,0l-.13-.13s0-.02,0-.03l.06-.06.04.04-.03.03.03.03.03-.03.04.04-.03.03.03.03.03-.03.04.04h0s-.06.06-.06.06c0,0,0,0-.02,0ZM11.9,9.82l-.06.06s0,.02,0,.03l.13.13s.03,0,.03,0l.06-.06-.04-.04-.03.03-.03-.03.03-.03-.04-.04-.03.03-.03-.03.03-.03-.04-.04Z"/>
          </g>
          <g id="a-13" data-name="a">
            <path class="cls-1" d="M11.91,10.18l-.11.1.12.12.1-.11-.12-.12h0Z"/>
            <path class="cls-5" d="M11.93,10.4l-.12-.12.11-.1h0s.12.12.12.12l-.1.11ZM11.91,10.18l-.11.1.12.12.1-.11-.12-.12Z"/>
          </g>
          <g id="a-14" data-name="a">
            <path class="cls-1" d="M11.59,9.86l-.11.1.12.12.1-.11-.12-.12h0Z"/>
            <path class="cls-5" d="M11.61,10.08l-.12-.12.11-.1h0s.12.12.12.12l-.1.11ZM11.59,9.86l-.11.1.12.12.1-.11-.12-.12ZM11.59,9.86h0s0,0,0,0Z"/>
          </g>
          <g id="b-13" data-name="b">
            <path class="cls-1" d="M12.13,10.24l-.04-.04-.03.03-.03-.03.03-.03-.04-.04-.03.03-.03-.03.03-.03-.04-.04-.06.06s0,.02,0,.03l.13.13s.02,0,.03,0l.06-.06h0Z"/>
            <path class="cls-5" d="M12.05,10.31s-.01,0-.02,0l-.13-.13s-.01-.02,0-.03l.06-.06.04.04-.03.03.03.03.03-.03.04.04-.03.03.03.03.03-.03.04.04h0s-.06.06-.06.06c0,0,0,0-.02,0ZM11.96,10.08l-.06.06s0,.02,0,.03l.13.13s.01,0,.02,0c0,0,.01,0,.02,0l.06-.06-.04-.04-.03.03-.03-.03.03-.03-.04-.04-.03.03-.03-.03.03-.03-.04-.04Z"/>
          </g>
          <g id="b-14" data-name="b">
            <path class="cls-1" d="M11.81,9.92l-.04-.04-.03.03-.03-.03.03-.03-.04-.04-.03.03-.03-.03.03-.03-.04-.04-.06.06s0,.02,0,.03l.13.13s.02,0,.03,0l.06-.06h0Z"/>
            <path class="cls-5" d="M11.73,9.99s-.01,0-.02,0l-.13-.13s0-.02,0-.03l.06-.06.04.04-.03.03.03.03.03-.03.04.04-.03.03.03.03.03-.03.04.04h0s-.06.06-.06.06c0,0,0,0-.02,0ZM11.65,9.76l-.06.06s0,.02,0,.03l.13.13s.03,0,.03,0l.06-.06-.04-.04-.03.03-.03-.03.03-.03-.04-.04-.03.03-.03-.03.03-.03-.04-.04Z"/>
          </g>
          <path class="cls-5" d="M11.85,10.06s0-.05-.03-.03l-.05.05.03.03.05-.05Z"/>
          <g id="c-13" data-name="c">
            <path class="cls-5" d="M11.94,10.29s0-.04-.02-.02l-.04.04.02.02.04-.04Z"/>
          </g>
          <g id="c-14" data-name="c">
            <path class="cls-5" d="M11.63,9.97s0-.04-.02-.02l-.04.04.02.02.04-.04Z"/>
          </g>
        </g>
      </g>
      <g id="f">
        <path class="cls-6" d="M9.89,8.61h0c0,.09.04.18.09.24.06.06.14.1.23.1s.17-.04.23-.1c.06-.06.09-.15.09-.24v-.46h-.64s0,.46,0,.46Z"/>
        <polygon class="cls-3" points="10.39 8.67 10.39 8.67 10.04 8.33 10.04 8.32 10.04 8.32 10.39 8.67 10.39 8.67 10.39 8.67"/>
      </g>
      <g id="f-2" data-name="f">
        <path class="cls-6" d="M9.89,7.5h0c0,.09.04.18.09.24.06.06.14.1.23.1s.17-.04.23-.1c.06-.06.09-.15.09-.24v-.46h-.64s0,.46,0,.46Z"/>
        <polygon class="cls-3" points="10.39 7.57 10.39 7.57 10.04 7.22 10.04 7.21 10.04 7.21 10.39 7.56 10.39 7.57 10.39 7.57"/>
      </g>
      <g id="f-3" data-name="f">
        <path class="cls-6" d="M9.01,8.61h0c0,.09.04.18.09.24.06.06.14.1.23.1s.17-.04.23-.1c.06-.06.09-.15.09-.24v-.46h-.64s0,.46,0,.46Z"/>
        <polygon class="cls-3" points="9.51 8.67 9.5 8.67 9.15 8.33 9.15 8.32 9.16 8.32 9.51 8.67 9.51 8.67 9.51 8.67"/>
      </g>
      <g id="f-4" data-name="f">
        <path class="cls-6" d="M10.77,8.61h0c0,.09.04.18.09.24.06.06.14.1.23.1s.17-.04.23-.1c.06-.06.09-.15.09-.24v-.46h-.64s0,.46,0,.46Z"/>
        <polygon class="cls-3" points="11.27 8.67 11.27 8.67 10.92 8.33 10.92 8.32 10.92 8.32 11.28 8.67 11.28 8.67 11.27 8.67"/>
      </g>
      <g id="f-5" data-name="f">
        <path class="cls-6" d="M9.89,9.7h0c0,.09.04.18.09.24.06.06.14.1.23.1s.17-.04.23-.1c.06-.06.09-.15.09-.24v-.46h-.64s0,.46,0,.46Z"/>
        <polygon class="cls-3" points="10.39 9.77 10.39 9.77 10.04 9.42 10.04 9.42 10.04 9.42 10.39 9.76 10.39 9.77 10.39 9.77"/>
      </g>
    </g>
  </g>
</svg>