<?xml version="1.0" encoding="UTF-8"?>
<svg id="Layer_2" data-name="Layer 2" xmlns="http://www.w3.org/2000/svg" viewBox="0 0 25.51 17.01">
  <defs>
    <style>
      .cls-1 {
        stroke: #fff;
      }

      .cls-1, .cls-2, .cls-3, .cls-4 {
        fill: #c7373d;
      }

      .cls-5, .cls-6, .cls-7 {
        fill: #fff;
      }

      .cls-8, .cls-6, .cls-9, .cls-10 {
        stroke-linecap: round;
      }

      .cls-8, .cls-6, .cls-9, .cls-10, .cls-2, .cls-4, .cls-7, .cls-11, .cls-12 {
        stroke: #22231f;
      }

      .cls-8, .cls-12 {
        fill: #ecb92a;
      }

      .cls-9, .cls-10 {
        fill: none;
      }

      .cls-10, .cls-7, .cls-12 {
        stroke-linejoin: round;
      }

      .cls-13 {
        fill: #22231f;
      }

      .cls-4 {
        stroke-miterlimit: 4;
      }

      .cls-11, .cls-14 {
        fill: #184276;
      }
    </style>
  </defs>
  <g id="Layer_1-2" data-name="Layer 1">
    <g>
      <path class="cls-5" d="M0,0h25.51v17.01H0V0Z"/>
      <path class="cls-14" d="M0,0h25.51v11.34H0V0Z"/>
      <path class="cls-3" d="M0,0h25.51v5.67H0V0Z"/>
      <g>
        <circle class="cls-11" cx="9.11" cy="2.31" r=".32"/>
        <g>
          <path class="cls-12" d="M9.17,1.61s.06-.03.06-.06-.03-.06-.06-.06c0-.03-.03-.06-.06-.06s-.06.03-.06.06c-.03,0-.06.03-.06.06s.03.06.06.06v.12h-.1s-.03-.06-.06-.06-.06.03-.06.06c-.03,0-.06.03-.06.06s.03.06.06.06c0,.03.03.06.06.06s.06-.03.06-.06h.1v.41h.11v-.41h.1s.03.06.06.06.06-.03.06-.06c.03,0,.06-.03.06-.06s-.03-.06-.06-.06h0s-.03-.06-.06-.06-.06.03-.06.06h-.1v-.12Z"/>
          <path class="cls-12" d="M9.17,1.99s-.08,0-.11,0v.32h.11v-.32Z"/>
          <path class="cls-12" d="M9.43,2.25s0,.08,0,.11c-.21-.01-.42-.01-.63,0,0-.04,0-.08,0-.11.21-.01.42-.01.63,0ZM11.02,4.99c.08-.15.14-.26.21-.34-.21.16-.33.13-.34-.11-.2.28-.37.25-.51-.08-.24.34-.43.33-.59-.04-.25.31-.48.3-.68-.04-.2.34-.43.35-.68.04-.15.37-.35.38-.59.04-.14.33-.31.35-.51.08-.01.24-.13.28-.34.11.06.08.13.19.21.34h3.82Z"/>
          <path class="cls-12" d="M7.2,5l.11.59h3.59l.11-.59-1.91-.09-1.91.09Z"/>
          <path class="cls-12" d="M11.21,4.45c-.13.34-.25.34-.26.04.02-.02.02-.07.05-.05.02.01.04-.02.03-.04-.03-.03-.08-.03-.11.01,0-.06-.05-.08-.09-.06-.02,0-.02.05,0,.05.04,0,.03.03.04.05-.25.31-.36.27-.32-.13l-.19-.04c-.21.43-.38.45-.49.06.02-.02.02-.06.06-.05.02,0,.04-.03.02-.05-.05-.04-.09-.02-.13.02-.02-.06-.07-.07-.12-.04-.02.02,0,.05.02.05.05-.01.02.05.05.06-.09.38-.59.4-.5-.15h-.25c.09.55-.41.53-.5.15.03-.02,0-.08.05-.06.02,0,.04-.03.02-.05-.05-.03-.11-.02-.12.04-.04-.04-.08-.06-.13-.02-.02.02,0,.05.02.05.04-.02.04.03.06.05-.11.39-.28.37-.49-.06l-.19.04c.04.4-.07.45-.32.13,0-.02,0-.05.04-.05.02,0,.02-.04,0-.05-.05-.02-.09,0-.09.06-.04-.04-.08-.04-.11-.01-.02.02,0,.05.03.04.03-.02.03.03.05.05-.02.3-.13.3-.26-.04l-.08.02c0,.08.03.17.08.23.19.23.34.19.35-.09.26.3.46.26.5-.06.21.42.57.21.58-.04.1.36.63.36.67-.06.04.42.57.42.67.06,0,.25.37.45.58.04.04.32.25.36.5.06,0,.28.16.32.35.09.05-.06.08-.15.08-.23l-.08-.02Z"/>
          <path class="cls-12" d="M7.2,5.06c-.09,0-.09-.09,0-.09,1.27-.13,2.54-.13,3.82,0,.09,0,.09.1,0,.09-1.27-.13-2.54-.13-3.82,0ZM8.92,3.77l-.13-.17c.04-.37.04-.7,0-1-.03-.09,0-.11.08-.08.16.08.33.08.49,0,.08-.04.1-.01.08.08-.04.3-.04.64,0,1l-.13.17h-.38Z"/>
        </g>
        <path class="cls-8" d="M9.55,5.22l-.43.22-.43-.22.43-.22.43.22Z"/>
        <g id="a">
          <g>
            <path class="cls-12" d="M11,3l.52.25.06.23-.21.32.02.26h.17l.28-.76-.36-.3-.82-.28.34.28"/>
            <path class="cls-12" d="M11.4,4.04s.02-.06.02-.09c.01-.05,0-.1-.01-.15.06-.08.12-.17.16-.25.03-.06.06-.13.04-.2-.02-.07-.08-.13-.14-.17-.07-.05-.16-.1-.25-.14-.21-.09-.37-.13-.5-.13l.08.07c.23.07.49.17.62.27.17.13.16.16-.08.51,0,.01-.02.04-.02.05.01.02.03.14,0,.22.02.04.05.02.08.02h0ZM9.83,3.82c-.06,0-.05.11-.04.14.02.03.03.03.05,0,.02-.02.05-.14-.02-.14ZM11.05,3.98c-.06-.02-.07.1-.07.12,0,.04.02.04.05.02.02-.02.08-.12.02-.14Z"/>
          </g>
          <g>
            <circle class="cls-7" cx="10.76" cy="2.74" r=".12"/>
            <circle class="cls-7" cx="10.98" cy="2.82" r=".12"/>
            <circle class="cls-7" cx="11.21" cy="2.89" r=".12"/>
            <circle class="cls-7" cx="11.44" cy="3" r=".12"/>
            <circle class="cls-7" cx="11.64" cy="3.12" r=".12"/>
            <circle class="cls-7" cx="11.55" cy="3.97" r=".12"/>
            <circle class="cls-7" cx="11.66" cy="3.76" r=".12"/>
            <circle class="cls-7" cx="11.76" cy="3.55" r=".12"/>
            <circle class="cls-7" cx="11.79" cy="3.31" r=".12"/>
            <circle class="cls-7" cx="9.56" cy="5.37" r=".06"/>
            <circle class="cls-7" cx="10.49" cy="5.42" r=".06"/>
            <circle class="cls-7" cx="10.53" cy="5.14" r=".06"/>
            <circle class="cls-7" cx="9.58" cy="5.08" r=".06"/>
            <path class="cls-7" d="M9.86,4.21c.04-.06.11-.32-.04-.33s-.11.26-.09.32c.04.08.08.08.13,0ZM10.87,4.34c.02.09.05.1.12.04.05-.05.18-.28.04-.33s-.17.22-.16.29Z"/>
          </g>
          <g>
            <path class="cls-12" d="M9.41,2.65l.66.02.42.13.11.26-.3.59.13.38.4-.34.19-.7-.51-.43-1.08-.08-.02.17Z"/>
            <path class="cls-12" d="M9.45,2.6c.33-.03.66,0,.99.14.28.11.25.44-.09.89.03.06.05.13.05.21-.04,0-.06,0-.09,0,.02-.05,0-.12-.03-.17-.02-.03-.02-.03,0-.06.2-.28.34-.53.26-.68-.1-.18-.47-.28-1.09-.26,0-.02,0-.03,0-.05,0,0,0,0,0,0h0ZM10.77,2.72s-.02.03-.03.05c.18.1.26.21.24.32,0,.02-.06.22-.18.6-.09.06-.15.11-.19.16,0,0-.01.02,0,.03-.01.06.05.05.1.03.02-.06.09-.12.12-.14,0,0,.03-.02.04-.03.07-.21.13-.41.19-.6.06-.19-.07-.32-.27-.41h0Z"/>
          </g>
          <g>
            <circle class="cls-7" cx="9.53" cy="2.46" r=".12"/>
            <circle class="cls-7" cx="9.76" cy="2.46" r=".12"/>
            <circle class="cls-7" cx="10" cy="2.49" r=".12"/>
            <circle class="cls-7" cx="10.23" cy="2.53" r=".12"/>
            <circle class="cls-7" cx="10.45" cy="2.61" r=".12"/>
            <circle class="cls-7" cx="10.66" cy="2.7" r=".12"/>
            <circle class="cls-7" cx="10.79" cy="2.85" r=".12"/>
            <circle class="cls-7" cx="10.55" cy="3.72" r=".12"/>
            <circle class="cls-7" cx="10.64" cy="3.51" r=".12"/>
            <circle class="cls-7" cx="10.74" cy="3.31" r=".12"/>
            <circle class="cls-7" cx="10.81" cy="3.08" r=".12"/>
          </g>
          <g>
            <path class="cls-12" d="M11.45,4.1v.04c.06.01.1.02.14,0-.06-.06-.11-.08-.14-.05Z"/>
            <path class="cls-12" d="M11.47,4.01s-.04.01-.05.02c-.02,0-.04,0-.06-.01-.07-.04-.07.04-.05.09.02.04.04.1.02.13-.02.04-.02.06,0,.07.01,0,.02.01.03.02.02.02.03.02.04-.01.07-.03.07-.11.09-.17.03-.09.15-.11-.02-.15h0Z"/>
            <path class="cls-12" d="M11.44,4.02c-.06.02-.07-.01-.11-.01.02.1.03.15.13.1.06-.03.13.01.14.04,0,.01.04-.01.05-.04.05-.11-.13-.12-.21-.09h0ZM11.21,4.49s-.12.09-.13.09c-.02-.06.02-.2.1-.31.06-.02.06-.05.07-.14,0-.02.05,0,.05.03,0,.05,0,.07,0,.11,0,.02,0,.03.02.04-.09.03-.11.08-.1.17Z"/>
            <path class="cls-12" d="M11.25,4.13s.01.03.01.06c0,.02,0,.04-.02.06-.01.02-.03.03-.06.05-.01,0-.03.03-.04.06-.01.03-.02.05-.02.07,0,.07-.01.13-.05.14-.02,0-.03,0-.04,0,0-.01,0-.03.01-.05.01-.02.03-.05.03-.07,0-.02,0-.03,0-.06,0-.02-.02-.03-.02-.05,0-.04.04-.11.08-.11s.06,0,.09-.06c0-.02.02-.03.02-.04h0Z"/>
            <path class="cls-12" d="M11.42,4.29s-.03-.02-.04-.02c-.02,0-.05-.01-.07,0-.11.03-.15.22-.04.27.02,0,.04-.02.06-.06.02-.06.05-.1.08-.13.02-.02.02-.04,0-.05Z"/>
            <path class="cls-12" d="M11.37,4.3c-.1-.04-.18.16-.08.19.05.02.06-.04.07-.08.01-.05.11-.07.02-.11h0ZM9.26,3.74c.05-.1.11-.16.16-.18-.08-.25-.1-.57-.05-.97,0-.06.02-.08.04-.08.02,0,.03.03.03.1-.01.22-.03.41-.02.57,0,.14.04.26.08.4,0,.02,0,.03-.07.07-.05.03-.08.06-.09.1-.01,0-.02,0-.03,0-.05.01-.07.01-.06,0h0ZM9.56,4.06s-.04-.01-.04-.03c-.01-.02-.01-.04,0-.07.02-.1-.04-.09-.11-.04-.03.02-.07.07-.1.1s-.05.03-.06.04c0,.04,0,.07,0,.09,0,.01,0,.05,0,.09,0,.01.03.01.06.04.03.03.06.08.1.1.07.04.13.06.11-.04,0-.02,0-.05,0-.07,0-.01.02,0,.04-.03.02-.01.03-.03.04-.04,0-.02,0-.03,0-.05s0-.03,0-.05c0-.02-.02-.03-.04-.04Z"/>
            <path class="cls-12" d="M9.51,3.92s-.05.02-.06.04c-.03.03-.01.08.03.13.01.01.02.04.02.07,0,.03,0,.05-.02.07-.04.05-.06.1-.03.13.02.02.04.03.06.04,0-.01,0-.03,0-.05,0-.02,0-.05,0-.07,0-.01.02,0,.04-.03.02-.01.03-.03.04-.04,0-.02,0-.03,0-.05s0-.03,0-.05c0-.02-.02-.03-.04-.04-.03-.02-.04-.01-.04-.03-.01-.02-.01-.04,0-.07,0-.02,0-.03,0-.05h0ZM10.46,3.78s-.02.04-.04.05c-.02.01-.04,0-.06,0-.09-.04-.09.04-.07.12.01.04.05.08.07.12.02.03.01.06.02.07.03,0,.06,0,.07.01.01,0,.04,0,.07,0,.01,0,.02-.03.05-.06.03-.03.08-.06.11-.09.06-.07.09-.13,0-.13-.02,0-.05,0-.06-.02,0-.01,0-.02,0-.06,0-.02-.01-.04-.03-.06-.01-.01-.03-.01-.04-.01-.02,0-.03-.01-.05,0-.02,0-.03.02-.05.04h0Z"/>
            <path class="cls-12" d="M10.32,3.82s0,.06.02.08c.02.04.07.02.12-.01.02-.01.04-.01.07-.01.02,0,.05.01.05.03.03.05.07.08.1.05.02-.02.04-.04.05-.07,0,0-.02,0-.04,0-.02,0-.05,0-.06-.02,0-.01,0-.02,0-.06,0-.02-.01-.04-.03-.06-.01-.01-.03-.01-.04-.01-.02,0-.03-.01-.05,0-.02,0-.03.02-.05.04-.03.03-.02.04-.04.05-.02.01-.04,0-.06,0-.02,0-.03,0-.04,0h0ZM10.82,4.18s-.02-.01-.02-.03c0-.01,0-.04.02-.06.04-.09,0-.08-.07-.05-.02,0-.03.02-.05.04-.02.02-.04.03-.05.04-.03.02-.05.02-.06.03-.01.03-.02.05-.03.08-.01.03-.02.05-.03.08,0,0,.02.01.03.04.01.02.02.07.04.09.02.03.05.05.06.05.02,0,.03-.03.03-.08,0-.02.01-.04.03-.06.01-.01.01,0,.04-.02.02,0,.03-.02.04-.04.01-.01.01-.03.02-.04,0-.01.01-.03.01-.04,0-.01,0-.03-.02-.04h0Z"/>
            <path class="cls-12" d="M10.83,4.04s-.03.02-.05.03c-.02.01-.03.03-.03.06,0,.02,0,.05,0,.07,0,.02,0,.04-.01.07,0,.03-.02.05-.04.07-.05.05-.08.1-.07.13,0,.02.01.02.03.03,0-.01.02-.02.02-.04,0-.02.01-.05.03-.07.01-.01.01-.03.04-.04.02-.01.03,0,.05-.02.02-.03.06-.1.02-.13-.03-.03-.04-.05-.02-.11,0-.02,0-.03.01-.04h0ZM10.02,4.27s.03.02.04.03c0,.02,0,.04,0,.06-.03.09.03.08.09.05.03-.02.07-.06.1-.08.03-.02.05-.02.06-.03,0-.04.02-.07.02-.08,0-.01,0-.05.02-.08,0-.01-.02-.02-.04-.05-.02-.03-.04-.09-.07-.12-.05-.06-.11-.08-.11.03,0,.03,0,.05-.02.07-.01.01-.02,0-.05.02-.02,0-.04.02-.05.04-.01.01,0,.03-.01.05,0,.02-.01.03,0,.05,0,.02.02.03.03.05h0Z"/>
            <path class="cls-12" d="M10.05,4.41s.04-.01.06-.03c.03-.02.02-.07,0-.12,0-.02,0-.04,0-.07,0-.03.01-.05.03-.06.04-.04.07-.09.05-.12-.02-.02-.04-.04-.05-.05,0,.01,0,.03,0,.05,0,.03,0,.05-.02.07-.01.01-.02,0-.05.02-.02,0-.04.02-.05.04-.01.01,0,.03-.01.05,0,.02-.01.03,0,.05,0,.02.02.03.03.05.02.02.03.02.04.03,0,.02,0,.04,0,.06,0,.02,0,.03,0,.04h0Z"/>
          </g>
          <path class="cls-8" d="M10.5,5.27l-.42-.24-.44.19.42.24.44-.19ZM11,5.1l-.45.18.37.24c.1-.03.17-.36.08-.42h0Z"/>
          <path class="cls-13" d="M9.24,4.18c.07,0,.13.04.18.08-.04-.05-.1-.09-.18-.1v.02ZM9.24,4.11c.07,0,.13-.04.18-.08-.04.05-.1.09-.18.1v-.02ZM11.37,4.27s.04-.08.02-.12c.03.03.02.07-.01.12h-.01ZM10.49,4.15c.03-.07.06-.13.12-.18-.06.03-.1.09-.13.18h.02ZM10.43,4.14c0-.07,0-.14-.03-.21.04.05.05.12.04.21h-.01ZM10.54,4.29c.05.01.09.04.11.09-.01-.06-.05-.09-.11-.11v.02ZM10.56,4.23c.06,0,.12-.03.17-.07-.05.05-.11.08-.18.09v-.02ZM10.33,4.19c-.06-.02-.11-.05-.15-.1.02.06.07.1.15.12v-.02ZM10.31,4.25c-.06,0-.12.02-.17.06.04-.05.1-.07.18-.08v.02Z"/>
          <ellipse class="cls-4" cx="10.07" cy="5.24" rx=".13" ry=".19" transform="translate(4.13 14.92) rotate(-86)"/>
          <path class="cls-12" d="M10.46,4.09c-.08,0-.15.06-.16.14-.01.08.04.14.12.15.07,0,.14-.06.15-.14s-.03-.15-.11-.15Z"/>
          <path class="cls-12" d="M10.46,4.13c-.06,0-.11.05-.12.11,0,.06.03.11.08.11.05,0,.1-.04.11-.1.01-.06-.03-.11-.08-.11Z"/>
          <path class="cls-11" d="M11.36,4.33s-.12.1-.06.12c.04.02.08,0,.09-.04s0-.07-.03-.08ZM10.98,5.18c-.11-.01-.2.04-.21.11s.07.14.18.15c.07,0,.11-.04.12-.11s-.02-.14-.09-.15ZM10.45,4.17s-.07.03-.07.07.02.07.05.07c.03,0,.07-.03.07-.06,0-.04-.02-.07-.05-.07h0Z"/>
        </g>
        <g id="a-2" data-name="a">
          <g>
            <path class="cls-12" d="M7.23,3l-.52.25-.06.23.21.32-.02.26h-.17l-.28-.76.36-.3.82-.28-.34.28"/>
            <path class="cls-12" d="M6.82,4.04s-.02-.06-.02-.09c-.01-.05,0-.1.01-.15-.06-.08-.12-.17-.16-.25-.03-.06-.06-.13-.04-.2.02-.07.08-.13.14-.17.07-.05.16-.1.25-.14.21-.09.37-.13.5-.13l-.08.07c-.23.07-.49.17-.62.27-.17.13-.16.16.08.51,0,.01.02.04.02.05-.01.02-.03.14,0,.22-.02.04-.05.02-.08.02h0ZM8.4,3.82c.06,0,.05.11.04.14-.02.03-.03.03-.05,0-.02-.02-.05-.14.02-.14ZM7.18,3.98c.06-.02.07.1.07.12,0,.04-.02.04-.05.02-.02-.02-.08-.12-.02-.14Z"/>
          </g>
          <g>
            <circle class="cls-7" cx="7.47" cy="2.74" r=".12"/>
            <circle class="cls-7" cx="7.24" cy="2.82" r=".12"/>
            <circle class="cls-7" cx="7.01" cy="2.89" r=".12"/>
            <circle class="cls-7" cx="6.79" cy="3" r=".12"/>
            <circle class="cls-7" cx="6.58" cy="3.12" r=".12"/>
            <circle class="cls-7" cx="6.67" cy="3.97" r=".12"/>
            <circle class="cls-7" cx="6.56" cy="3.76" r=".12"/>
            <circle class="cls-7" cx="6.47" cy="3.55" r=".12"/>
            <circle class="cls-7" cx="6.43" cy="3.31" r=".12"/>
            <circle class="cls-7" cx="8.66" cy="5.37" r=".06"/>
            <circle class="cls-7" cx="7.73" cy="5.42" r=".06"/>
            <circle class="cls-7" cx="7.69" cy="5.14" r=".06"/>
            <circle class="cls-7" cx="8.64" cy="5.08" r=".06"/>
            <path class="cls-7" d="M8.36,4.21c-.04-.06-.11-.32.04-.33s.11.26.09.32c-.04.08-.08.08-.13,0ZM7.35,4.34c-.02.09-.05.1-.12.04-.05-.05-.18-.28-.04-.33s.17.22.16.29Z"/>
          </g>
          <g>
            <path class="cls-12" d="M8.81,2.65l-.66.02-.42.13-.11.26.3.59-.13.38-.4-.34-.19-.7.51-.43,1.08-.08.02.17Z"/>
            <path class="cls-12" d="M8.77,2.6c-.33-.03-.66,0-.99.14-.28.11-.25.44.09.89-.03.06-.05.13-.05.21.04,0,.06,0,.09,0-.02-.05,0-.12.03-.17.02-.03.02-.03,0-.06-.2-.28-.34-.53-.26-.68.1-.18.47-.28,1.09-.26,0-.02,0-.03,0-.05,0,0,0,0,0,0h0ZM7.45,2.72s.02.03.03.05c-.18.1-.26.21-.24.32,0,.02.06.22.18.6.09.06.15.11.19.16,0,0,.01.02,0,.03.01.06-.05.05-.1.03-.02-.06-.09-.12-.12-.14,0,0-.03-.02-.04-.03-.07-.21-.13-.41-.19-.6-.06-.19.07-.32.27-.41h0Z"/>
          </g>
          <g>
            <circle class="cls-7" cx="8.7" cy="2.46" r=".12"/>
            <circle class="cls-7" cx="8.46" cy="2.46" r=".12"/>
            <circle class="cls-7" cx="8.22" cy="2.49" r=".12"/>
            <circle class="cls-7" cx="8" cy="2.53" r=".12"/>
            <circle class="cls-7" cx="7.77" cy="2.61" r=".12"/>
            <circle class="cls-7" cx="7.56" cy="2.7" r=".12"/>
            <circle class="cls-7" cx="7.43" cy="2.85" r=".12"/>
            <circle class="cls-7" cx="7.68" cy="3.72" r=".12"/>
            <circle class="cls-7" cx="7.58" cy="3.51" r=".12"/>
            <circle class="cls-7" cx="7.49" cy="3.31" r=".12"/>
            <circle class="cls-7" cx="7.41" cy="3.08" r=".12"/>
          </g>
          <g>
            <path class="cls-12" d="M6.77,4.1v.04c-.06.01-.1.02-.14,0,.06-.06.11-.08.14-.05Z"/>
            <path class="cls-12" d="M6.75,4.01s.04.01.05.02c.02,0,.04,0,.06-.01.07-.04.07.04.05.09-.02.04-.04.1-.02.13.02.04.02.06,0,.07-.01,0-.02.01-.03.02-.02.02-.03.02-.04-.01-.07-.03-.07-.11-.09-.17-.03-.09-.15-.11.02-.15h0Z"/>
            <path class="cls-12" d="M6.79,4.02c.06.02.07-.01.11-.01-.02.1-.03.15-.13.1-.06-.03-.13.01-.14.04,0,.01-.04-.01-.05-.04-.05-.11.13-.12.21-.09h0ZM7.01,4.49s.12.09.13.09c.02-.06-.02-.2-.1-.31-.06-.02-.06-.05-.07-.14,0-.02-.05,0-.05.03,0,.05,0,.07,0,.11,0,.02,0,.03-.02.04.09.03.11.08.1.17Z"/>
            <path class="cls-12" d="M6.97,4.13s-.01.03-.01.06c0,.02,0,.04.02.06.01.02.03.03.06.05.01,0,.03.03.04.06.01.03.02.05.02.07,0,.07.01.13.05.14.02,0,.03,0,.04,0,0-.01,0-.03-.01-.05-.01-.02-.03-.05-.03-.07,0-.02,0-.03,0-.06,0-.02.02-.03.02-.05,0-.04-.04-.11-.08-.11s-.06,0-.09-.06c0-.02-.02-.03-.02-.04h0Z"/>
            <path class="cls-12" d="M6.8,4.29s.03-.02.04-.02c.02,0,.05-.01.07,0,.11.03.15.22.04.27-.02,0-.04-.02-.06-.06-.02-.06-.05-.1-.08-.13-.02-.02-.02-.04,0-.05Z"/>
            <path class="cls-12" d="M6.85,4.3c.1-.04.18.16.08.19-.05.02-.06-.04-.07-.08-.01-.05-.11-.07-.02-.11h0ZM8.97,3.74c-.05-.1-.11-.16-.16-.18.08-.25.1-.57.05-.97,0-.06-.02-.08-.04-.08-.02,0-.03.03-.03.1.01.22.03.41.02.57,0,.14-.04.26-.08.4,0,.02,0,.03.07.07.05.03.08.06.09.1.01,0,.02,0,.03,0,.05.01.07.01.06,0h0ZM8.66,4.06s.04-.01.04-.03c.01-.02.01-.04,0-.07-.02-.1.04-.09.11-.04.03.02.07.07.1.1s.05.03.06.04c0,.04,0,.07,0,.09,0,.01,0,.05,0,.09,0,.01-.03.01-.06.04-.03.03-.06.08-.1.1-.07.04-.13.06-.11-.04,0-.02,0-.05,0-.07,0-.01-.02,0-.04-.03-.02-.01-.03-.03-.04-.04,0-.02,0-.03,0-.05s0-.03,0-.05c0-.02.02-.03.04-.04Z"/>
            <path class="cls-12" d="M8.71,3.92s.05.02.06.04c.03.03.01.08-.03.13-.01.01-.02.04-.02.07,0,.03,0,.05.02.07.04.05.06.1.03.13-.02.02-.04.03-.06.04,0-.01,0-.03,0-.05,0-.02,0-.05,0-.07,0-.01-.02,0-.04-.03-.02-.01-.03-.03-.04-.04,0-.02,0-.03,0-.05s0-.03,0-.05c0-.02.02-.03.04-.04.03-.02.04-.01.04-.03.01-.02.01-.04,0-.07,0-.02,0-.03,0-.05h0ZM7.76,3.78s.02.04.04.05c.02.01.04,0,.06,0,.09-.04.09.04.07.12-.01.04-.05.08-.07.12-.02.03-.01.06-.02.07-.03,0-.06,0-.07.01-.01,0-.04,0-.07,0-.01,0-.02-.03-.05-.06-.03-.03-.08-.06-.11-.09-.06-.07-.09-.13,0-.13.02,0,.05,0,.06-.02,0-.01,0-.02,0-.06,0-.02.01-.04.03-.06.01-.01.03-.01.04-.01.02,0,.03-.01.05,0,.02,0,.03.02.05.04h0Z"/>
            <path class="cls-12" d="M7.91,3.82s0,.06-.02.08c-.02.04-.07.02-.12-.01-.02-.01-.04-.01-.07-.01-.02,0-.05.01-.05.03-.03.05-.07.08-.1.05-.02-.02-.04-.04-.05-.07,0,0,.02,0,.04,0,.02,0,.05,0,.06-.02,0-.01,0-.02,0-.06,0-.02.01-.04.03-.06.01-.01.03-.01.04-.01.02,0,.03-.01.05,0,.02,0,.03.02.05.04.03.03.02.04.04.05.02.01.04,0,.06,0,.02,0,.03,0,.04,0h0ZM7.4,4.18s.02-.01.02-.03c0-.01,0-.04-.02-.06-.04-.09,0-.08.07-.05.02,0,.03.02.05.04.02.02.04.03.05.04.03.02.05.02.06.03.01.03.02.05.03.08.01.03.02.05.03.08,0,0-.02.01-.03.04-.01.02-.02.07-.04.09-.02.03-.05.05-.06.05-.02,0-.03-.03-.03-.08,0-.02-.01-.04-.03-.06-.01-.01-.01,0-.04-.02-.02,0-.03-.02-.04-.04-.01-.01-.01-.03-.02-.04,0-.01-.01-.03-.01-.04,0-.01,0-.03.02-.04h0Z"/>
            <path class="cls-12" d="M7.4,4.04s.03.02.05.03c.02.01.03.03.03.06,0,.02,0,.05,0,.07,0,.02,0,.04.01.07,0,.03.02.05.04.07.05.05.08.1.07.13,0,.02-.01.02-.03.03,0-.01-.02-.02-.02-.04,0-.02-.01-.05-.03-.07-.01-.01-.01-.03-.04-.04-.02-.01-.03,0-.05-.02-.02-.03-.06-.1-.02-.13.03-.03.04-.05.02-.11,0-.02,0-.03-.01-.04h0ZM8.2,4.27s-.03.02-.04.03c0,.02,0,.04,0,.06.03.09-.03.08-.09.05-.03-.02-.07-.06-.1-.08-.03-.02-.05-.02-.06-.03,0-.04-.02-.07-.02-.08,0-.01,0-.05-.02-.08,0-.01.02-.02.04-.05.02-.03.04-.09.07-.12.05-.06.11-.08.11.03,0,.03,0,.05.02.07.01.01.02,0,.05.02.02,0,.04.02.05.04.01.01,0,.03.01.05,0,.02.01.03,0,.05,0,.02-.02.03-.03.05h0Z"/>
            <path class="cls-12" d="M8.18,4.41s-.04-.01-.06-.03c-.03-.02-.02-.07,0-.12,0-.02,0-.04,0-.07,0-.03-.01-.05-.03-.06-.04-.04-.07-.09-.05-.12.02-.02.04-.04.05-.05,0,.01,0,.03,0,.05,0,.03,0,.05.02.07.01.01.02,0,.05.02.02,0,.04.02.05.04.01.01,0,.03.01.05,0,.02.01.03,0,.05,0,.02-.02.03-.03.05-.02.02-.03.02-.04.03,0,.02,0,.04,0,.06,0,.02,0,.03,0,.04h0Z"/>
          </g>
          <path class="cls-8" d="M7.73,5.27l.42-.24.44.19-.42.24-.44-.19ZM7.23,5.1l.45.18-.37.24c-.1-.03-.17-.36-.08-.42h0Z"/>
          <path class="cls-13" d="M8.98,4.18c-.07,0-.13.04-.18.08.04-.05.1-.09.18-.1v.02ZM8.98,4.11c-.07,0-.13-.04-.18-.08.04.05.1.09.18.1v-.02ZM6.85,4.27s-.04-.08-.02-.12c-.03.03-.02.07.01.12h.01ZM7.73,4.15c-.03-.07-.06-.13-.12-.18.06.03.1.09.13.18h-.02ZM7.79,4.14c0-.07,0-.14.03-.21-.04.05-.05.12-.04.21h.01ZM7.69,4.29c-.05.01-.09.04-.11.09.01-.06.05-.09.11-.11v.02ZM7.66,4.23c-.06,0-.12-.03-.17-.07.05.05.11.08.18.09v-.02ZM7.9,4.19c.06-.02.11-.05.15-.1-.02.06-.07.1-.15.12v-.02ZM7.91,4.25c.06,0,.12.02.17.06-.04-.05-.1-.07-.18-.08v.02Z"/>
          <ellipse class="cls-4" cx="8.16" cy="5.24" rx=".19" ry=".13" transform="translate(-.35 .58) rotate(-4)"/>
          <path class="cls-12" d="M7.76,4.09c.08,0,.15.06.16.14.01.08-.04.14-.12.15-.07,0-.14-.06-.15-.14s.03-.15.11-.15Z"/>
          <path class="cls-12" d="M7.76,4.13c.06,0,.11.05.12.11,0,.06-.03.11-.08.11-.05,0-.1-.04-.11-.1-.01-.06.03-.11.08-.11Z"/>
          <path class="cls-11" d="M6.87,4.33s.12.1.06.12c-.04.02-.08,0-.09-.04s0-.07.03-.08ZM7.24,5.18c.11-.01.2.04.21.11s-.07.14-.18.15c-.07,0-.11-.04-.12-.11s.02-.14.09-.15ZM7.77,4.17s.07.03.07.07-.02.07-.05.07c-.03,0-.07-.03-.07-.06,0-.04.02-.07.05-.07h0Z"/>
        </g>
        <g>
          <circle class="cls-7" cx="9.11" cy="3.57" r=".12"/>
          <circle class="cls-7" cx="9.11" cy="3.34" r=".12"/>
          <circle class="cls-7" cx="9.11" cy="3.13" r=".12"/>
          <circle class="cls-7" cx="9.11" cy="2.51" r=".12"/>
          <circle class="cls-7" cx="9.11" cy="2.7" r=".12"/>
          <circle class="cls-7" cx="9.11" cy="2.91" r=".12"/>
        </g>
        <path class="cls-12" d="M9.11,3.65s.03,0,.05,0,.03.02.04.04c.02.03.01.04.03.05.02,0,.04.01.07,0,.1-.02.09.04.04.11-.02.03-.07.07-.1.1s-.03.05-.04.06h-.17s-.01-.03-.04-.06-.08-.06-.1-.1c-.05-.07-.06-.13.04-.11.02,0,.05,0,.07,0,.02,0,0-.02.03-.05.01-.02.03-.03.04-.04s.03,0,.05,0"/>
        <path id="g" class="cls-13" d="M9.14,4.02c0-.07.04-.13.08-.18-.05.04-.09.1-.1.19h.02Z"/>
        <path id="g-2" data-name="g" class="cls-13" d="M9.08,4.02c0-.07-.04-.13-.08-.18.05.04.09.1.1.19h-.02Z"/>
        <g>
          <path class="cls-12" d="M9.11,3.65s.03,0,.05,0,.03.02.04.04c.02.03.01.04.03.05.02,0,.04.01.07,0,.02,0,.03,0,.05,0,0,.02-.02.05-.04.07-.03.03-.07,0-.12-.03-.02-.01-.04-.02-.07-.02s-.05,0-.07.02c-.06.04-.1.06-.12.03-.02-.02-.03-.05-.04-.07.01,0,.03,0,.05,0,.02,0,.05,0,.07,0,.02,0,0-.02.03-.05.01-.02.03-.03.04-.04s.03,0,.05,0ZM9.11,4c.08,0,.15.07.15.15s-.07.15-.15.15-.15-.07-.15-.15.07-.15.15-.15h0ZM10.96,5.6s-.03-.05-.09-.06c-1.17-.1-2.35-.1-3.52,0-.06,0-.09.02-.09.06s.03.05.09.06c1.17.1,2.35.1,3.52,0,.06,0,.09-.02.09-.06"/>
          <circle class="cls-12" cx="9.11" cy="4.15" r=".15"/>
          <circle class="cls-12" cx="9.11" cy="4.15" r=".11"/>
        </g>
        <g>
          <ellipse class="cls-11" cx="9.11" cy="5.22" rx=".19" ry=".13"/>
          <circle class="cls-11" cx="9.11" cy="4.15" r=".07"/>
        </g>
        <path class="cls-9" d="M8.22,5.67c-.13-.01-.28-.02-.43-.04.88-.06,1.76-.06,2.65,0-.16.02-.3.03-.43.04"/>
        <path class="cls-1" d="M12.3,5.69v5.19c0,.85-.38,1.68-.94,2.29s-1.36,1.02-2.24,1.02-1.68-.42-2.24-1.02-.94-1.44-.94-2.29v-5.19h6.38Z"/>
        <g>
          <path class="cls-7" d="M9.08,13.89s-.07,0-.11-.03c-.05-.04-.03-.18-.02-.28.02-.48.04-1.29.07-2.42.04,0,.07,0,.1,0,.03,0,.06,0,.1,0,.02,1.13.04,1.94.07,2.42,0,.09.02.24-.02.28-.04.03-.08.02-.11.03h-.06Z"/>
          <path class="cls-7" d="M8.78,13.87s.07,0,.11-.02c.05-.03.05-.18.06-.28.02-.48.07-1.28.14-2.41-.04,0-.07,0-.1,0,0,0,0,0-.01,0-.18,1.12-.25,1.91-.37,2.39-.02.07-.05.23,0,.29.03.03.08.03.11.04h.06s0,0,0,0Z"/>
          <path class="cls-7" d="M8.43,13.82s.07.01.11,0c.05-.03.05-.18.07-.27.12-.48.19-1.27.37-2.39-.04-.01-.07-.02-.09-.02-.29,1.09-.37,1.85-.59,2.33-.02.07-.08.24-.02.3.03.03.08.04.1.05h.06s0,0,0,0Z"/>
          <path class="cls-7" d="M8.08,13.72s.07.03.12.01c.06-.02.06-.18.1-.27.22-.48.31-1.25.6-2.34-.04-.02-.07-.02-.09-.03-.03-.01-.02-.02-.06-.02-.34,1.08-.45,1.83-.76,2.3-.05.08-.09.23-.05.27.03.04.07.04.1.06l.06.02h0ZM9.44,13.87s-.07,0-.11-.02c-.05-.03-.05-.18-.06-.28-.02-.48-.07-1.28-.14-2.41.04,0,.07,0,.1,0,0,0,0,0,.01,0,.18,1.12.25,1.91.37,2.39.02.07.05.23,0,.29-.03.03-.08.03-.11.04h-.06s0,0,0,0Z"/>
          <path class="cls-7" d="M9.79,13.82s-.07.01-.11,0c-.05-.03-.05-.18-.07-.27-.12-.48-.19-1.27-.37-2.39.04-.01.07-.02.09-.02.29,1.09.37,1.85.59,2.33.02.07.08.24.02.3-.03.03-.08.04-.1.05h-.06s0,0,0,0Z"/>
          <path class="cls-7" d="M10.15,13.72s-.07.03-.12.01c-.06-.02-.06-.18-.1-.27-.22-.48-.31-1.25-.6-2.34.04-.02.07-.02.09-.03.03-.01.02-.02.06-.02.34,1.08.45,1.83.76,2.3.05.08.09.23.05.27-.03.04-.07.04-.1.06l-.06.02h0ZM8.26,12.9s.06.02.1,0c.05-.03.09-.17.12-.26.23-.44.43-1.23.77-2.33-.03-.01-.06-.02-.08-.02-.02,0-.05-.02-.08-.02-.36,1.09-.53,1.87-.88,2.3-.06.07-.1.23-.07.27.02.03.06.04.09.05h.05s0,.01,0,.01Z"/>
          <path class="cls-7" d="M8.55,12.96s.07.01.1-.01c.05-.03.07-.18.09-.27.09-.47.26-1.27.5-2.38-.03-.01-.06-.01-.09-.01-.02,0-.05-.01-.08-.02-.28,1.11-.35,1.94-.61,2.36-.05.08-.08.23-.04.28.02.03.07.03.09.04h.05s0,0,0,0Z"/>
          <path class="cls-7" d="M8.84,12.99s.07,0,.1-.02c.05-.03.05-.18.05-.28.04-.48.11-1.28.22-2.41-.04,0-.06,0-.09,0-.02,0-.05-.01-.09,0-.15,1.13-.24,1.94-.34,2.4-.02.09-.05.24-.01.28.03.03.07.03.09.03h.05Z"/>
          <path class="cls-7" d="M9.96,12.9s-.06.02-.1,0c-.05-.03-.09-.17-.12-.26-.23-.44-.43-1.23-.77-2.33.03-.01.06-.02.08-.02.02,0,.05-.02.08-.02.36,1.09.53,1.87.88,2.3.06.07.1.23.07.27-.02.03-.06.04-.09.05h-.05s0,.01,0,.01Z"/>
          <path class="cls-7" d="M9.67,12.96s-.07.01-.1-.01c-.05-.03-.07-.18-.09-.27-.09-.47-.26-1.27-.5-2.38.03-.01.06-.01.09-.01.02,0,.05-.01.08-.02.28,1.11.35,1.94.61,2.36.05.08.08.23.04.28-.02.03-.07.03-.09.04h-.05s0,0,0,0Z"/>
          <path class="cls-7" d="M9.38,12.99s-.07,0-.1-.02c-.05-.03-.05-.18-.05-.28-.04-.48-.11-1.28-.22-2.41.04,0,.06,0,.09,0,.02,0,.05-.01.09,0,.15,1.13.24,1.94.34,2.4.02.09.05.24.01.28-.03.03-.07.03-.09.03h-.05s0,0,0,0Z"/>
          <path class="cls-7" d="M9.09,13s-.07,0-.1-.03c-.04-.04-.03-.18-.02-.28.02-.48.04-1.29.06-2.42.04,0,.06,0,.09,0,.02,0,.05,0,.09,0,.02,1.13.04,1.94.06,2.42,0,.09.02.24-.02.28-.03.03-.07.02-.1.03h-.05Z"/>
          <path class="cls-7" d="M8.46,12.25s.05.02.08,0c.04-.03.07-.17.09-.26.17-.44.33-1.23.59-2.33l-.13-.04c-.28,1.09-.4,1.87-.67,2.3-.04.07-.08.23-.06.27.02.03.05.04.07.05h.04Z"/>
          <path class="cls-7" d="M8.68,12.3s.05.01.08-.01c.04-.03.05-.18.07-.27.07-.47.2-1.27.38-2.38l-.13-.03c-.22,1.11-.27,1.94-.47,2.36-.04.08-.06.23-.03.28.02.03.05.03.07.04.01,0,.03,0,.04,0h0Z"/>
          <path class="cls-7" d="M8.91,12.33s.05,0,.08-.02c.04-.03.04-.18.04-.28.03-.48.09-1.28.17-2.41h-.13c-.12,1.11-.18,1.93-.26,2.39-.01.09-.04.24,0,.28.02.03.05.03.07.03h.04s0,0,0,0Z"/>
          <path class="cls-7" d="M9.76,12.25s-.05.02-.08,0c-.04-.03-.07-.17-.09-.26-.17-.44-.33-1.23-.59-2.33l.13-.04c.28,1.09.4,1.87.67,2.3.04.07.08.23.06.27-.02.03-.05.04-.07.05h-.04Z"/>
          <path class="cls-7" d="M9.54,12.3s-.05.01-.08-.01c-.04-.03-.05-.18-.07-.27-.07-.47-.2-1.27-.38-2.38l.13-.03c.22,1.11.27,1.94.47,2.36.04.08.06.23.03.28-.02.03-.05.03-.07.04-.01,0-.03,0-.04,0h0Z"/>
          <path class="cls-7" d="M9.32,12.33s-.05,0-.08-.02c-.04-.03-.04-.18-.04-.28-.03-.48-.09-1.28-.17-2.41h.13c.12,1.11.18,1.93.26,2.39.01.09.04.24,0,.28-.02.03-.05.03-.07.03h-.04s0,0,0,0Z"/>
          <path class="cls-7" d="M9.09,12.34s-.05,0-.08-.03c-.03-.04-.02-.18-.02-.28.01-.48.03-1.29.05-2.42h.13c.02,1.13.03,1.94.05,2.42,0,.09.02.24-.02.28-.02.03-.06.02-.08.03h-.04Z"/>
          <path class="cls-7" d="M9.45,10.87c0,.09-.22,1.05-.34,1.05s-.34-.96-.34-1.05h.68Z"/>
        </g>
        <g id="b">
          <g>
            <path class="cls-12" d="M10.66,12.06s.01.01.01.02c.02.06.09.15.15.21.09.09.06.23,0,.3-.06.08-.1.17-.11.24,0,.05-.02.14-.01.29,0,.08.05.11.09.15.02.02-.02.06-.08.11,0,0-.03.02-.04.06,0,0-.04,0-.04,0-.01-.04-.03-.05-.04-.06-.07-.05-.1-.1-.08-.11.04-.03.09-.07.09-.15.01-.15,0-.25-.01-.29-.01-.07-.05-.16-.11-.24-.06-.08-.08-.21,0-.3.06-.06.13-.15.15-.21,0,0,0-.02.01-.02Z"/>
            <path id="c" class="cls-12" d="M10.9,13.25c-.15.11-.29-.16-.15-.52.1-.27.59-.16.31.2-.01.02-.03,0-.03,0,.02-.08-.03-.12-.11-.1-.2.04-.21.42.01.33.04,0,0,.08-.04.11"/>
            <path id="c-2" data-name="c" class="cls-12" d="M10.42,13.25c.15.11.29-.16.15-.52-.1-.27-.59-.16-.31.2.01.02.03,0,.03,0-.02-.08.03-.12.11-.1.2.04.21.42-.01.33-.04,0,0,.08.04.11"/>
            <path class="cls-12" d="M10.55,12.95s-.07.03-.07.07.03.07.07.07h.23s.07-.03.07-.07-.03-.07-.07-.07h-.23ZM10.78,11.26c.09.21.21.4.32.57.06.02.09.05.13.06s.3,0,.31-.01c.09-.07.22,0,.16.07.04.04-.04.14-.09.09s-.25,0-.3-.02c.02.06.21.09.32.09s.09.11.06.21l-.04.02c-.04.08-.15.05-.15-.02s-.26-.17-.3-.23c.04.11.15.23.21.34.06.06.09.06.02.17l-.13.02c-.11,0-.13-.04-.11-.13s-.07-.26-.09-.31c-.02-.05-.03-.09-.05-.12-.04-.05-.24-.14-.29-.12-.09.05-.16.02-.17-.08.02-.02,0-.15.07-.16.06,0,.08.02.13.06.08.06.12.09.14.09.06-.02-.11-.1-.26-.3s-.21-.5.13-.29Z"/>
            <path class="cls-12" d="M11.7,11.99c.08-.04.12-.04.15,0,.02.02.04,0,.02-.02-.05-.12-.13-.13-.2-.08-.02.02-.04.03-.05.05.01.02.07.04.08.06h0ZM10.61,11.88c-.08-.05-.16-.07-.2-.03-.02.02-.05,0-.03-.02.08-.12.18-.12.26-.06.02.02.04.04.05.06-.03.03-.08.06-.08.06h0ZM11.25,12.56s.02-.1.05-.13c.03.02.05.04.08.07.08.08.08.21-.05.32-.03.03-.05,0-.03-.03.02-.05,0-.12-.05-.22ZM11.56,12.3c.07.03.1.07.1.12,0,.03.02.04.03,0,.09-.21,0-.25-.14-.24,0,.04.01.12.01.12Z"/>
          </g>
          <path class="cls-9" d="M10.55,11.41s.07-.07.11-.03.02.08-.04.14c.03-.02.08-.1.11-.05s0,.1-.04.14c.04-.04.08-.09.12-.05s0,.09-.03.12c.04-.03.08-.06.1-.03.03.04,0,.07-.03.1.04-.03.07-.06.1-.03s0,.08-.03.09"/>
          <g>
            <path class="cls-7" d="M10.56,8.86c0,.16.03,1.26.03,1.41,0,.15.08.26.15.32.07-.09.11-.22.12-.36,0-.07,0-1.11-.01-1.32l-.29-.05Z"/>
            <path class="cls-7" d="M11.27,8.6l.05,1.5c.01.13-.16.93-.25,1.08-.24-.1-.28-.64-.24-1.16.04-.52,0-.98-.04-1.07l.49-.35Z"/>
            <path class="cls-7" d="M11.55,8.84l-.03,1.5c0,.13-.21.92-.31,1.07-.24-.19-.19-.94-.15-1.17.07-.46.06-.98.04-1.07l.46-.33Z"/>
            <path class="cls-7" d="M11.76,9.2h-.4c.03.15,0,.66-.06,1.05-.06.36-.15,1.31.23,1.54.24-.5.06-.98.17-1.42l.06-1.17ZM10.25,8.59l.08,1.41c.01.15.09.26.16.31.06-.09.1-.22.1-.37,0-.07-.04-1.11-.05-1.32l-.29-.04ZM10.95,7.7c.01.35.02,1.12.01,1.18,0,.15-.06.33-.13.43-.07-.06-.15-.16-.16-.31-.01-.13-.02-.75-.02-1.06l.29-.24Z"/>
            <path class="cls-7" d="M10.66,7.92c0,.38,0,.98,0,1.03,0,.15-.04.27-.1.37-.07-.06-.15-.16-.17-.32,0-.09-.03-.5-.04-.81l.31-.26ZM10.91,7.66l.27-.39c.05.19.12,1.56.04,1.68,0,.15-.06.27-.12.36-.07-.06-.19-.16-.15-.32.03-.16,0-1.18-.04-1.34Z"/>
            <path class="cls-7" d="M11.46,8.53l.02.43c0,.15-.04.27-.1.37-.07-.06-.17-.16-.16-.31.04-.59-.03-1.15-.1-1.69l.24-.14.11,1.35Z"/>
            <path class="cls-7" d="M11.73,8.92l-.07.28c0,.15-.1.27-.16.36-.07-.06-.14-.15-.12-.31.11-.88.07-1.46-.11-2.17.42.28.61.88.47,1.84h0ZM11.71,9.19l.38-.13c.05.38-.03.86-.13,1.5-.09.54-.04.97.03,1.25-.41-.06-.58-.58-.38-1.57.05-.26.11-.59.1-1.05h0Z"/>
            <path class="cls-7" d="M11.56,7.42c.09.46.16,1,.08,1.59-.03.22-.07.4-.14.54.28-.03.45-.3.43-.77l-.06-1.31-.31-.05Z"/>
            <path class="cls-7" d="M11.76,7.48c.02.12.09.26.11.41.05.5.05,1.13-.1,1.53.28-.03.37-.28.38-.75,0-.39,0-.85-.09-1.37l-.29.18ZM11.19,7.37l.25-.03c.05.24.08.41.09.5.02.17-.03.32-.09.44-.09-.06-.14-.18-.18-.35l-.08-.55ZM10.53,7.91h.23c0,.21.01.35,0,.42,0,.14-.04.26-.1.36-.07-.06-.13-.16-.14-.31-.01-.15.01-.31.01-.47Z"/>
            <path class="cls-7" d="M10.51,8.03c0,.21,0,.35,0,.42-.01.14-.05.26-.12.35-.07-.06-.13-.16-.13-.31l.25-.46ZM10.76,7.79l.22-.02c.02.21.04.35.04.42,0,.14-.02.27-.07.36-.07-.05-.15-.15-.17-.29-.02-.15-.01-.31-.03-.47Z"/>
            <path class="cls-7" d="M11.22,7.45c.04.17.1.72,0,.95-.08-.06-.16-.16-.19-.33-.03-.17-.04-.34-.05-.52l.25-.1ZM10.33,10.74l.37.19c.11.24.21.36.34.48-.19.03-.34,0-.45-.14-.14-.18-.21-.3-.26-.32v-.21Z"/>
            <path class="cls-7" d="M10.41,10.88c.09.19.15.31.18.38.05.13.06.26.04.37-.09-.02-.19-.09-.27-.22l.04-.53Z"/>
            <path class="cls-7" d="M10.36,10.94c.04.2.07.34.08.41.02.14,0,.27-.05.37-.08-.04-.17-.13-.2-.28-.04-.15-.04-.31-.07-.47l.24-.04Z"/>
            <path class="cls-7" d="M9.88,11.06c.13.23.17.39.18.56.14-.13.2-.28.16-.44-.07-.22-.13-.47-.12-.53l-.21.41Z"/>
            <path class="cls-7" d="M10.25,10.47c.08.19.14.32.16.39.04.14.05.26.02.37-.09-.03-.2-.09-.26-.22-.06-.14-.09-.31-.14-.46l.23-.08Z"/>
            <path class="cls-7" d="M10.23,10.08c.05-.01.12.11.19.18.02.02.03.03.05.05.03.05.05.1.06.15.06.25.14.39.24.52-.19,0-.34-.07-.41-.23-.1-.21-.15-.33-.19-.37l.05-.31ZM9.66,11.29c-.16.2-.23.35-.27.52-.12-.15-.16-.31-.08-.46.27-.32.27-.31.35-.06h0Z"/>
            <path class="cls-7" d="M9.62,11.14c-.16.2-.33.36-.37.53-.12-.15-.17-.31-.09-.46l.46-.06Z"/>
            <path class="cls-7" d="M9.91,11.07c-.16.2-.23.35-.27.52-.12-.15-.16-.31-.08-.46l.35-.06Z"/>
          </g>
        </g>
        <g id="b-2" data-name="b">
          <g>
            <path class="cls-12" d="M7.56,12.06s-.01.01-.01.02c-.02.06-.09.15-.15.21-.09.09-.06.23,0,.3.06.08.1.17.11.24,0,.05.02.14.01.29,0,.08-.05.11-.09.15-.02.02.02.06.08.11,0,0,.03.02.04.06,0,0,.04,0,.04,0,.01-.04.03-.05.04-.06.07-.05.1-.1.08-.11-.04-.03-.09-.07-.09-.15-.01-.15,0-.25.01-.29.01-.07.05-.16.11-.24.06-.08.08-.21,0-.3-.06-.06-.13-.15-.15-.21,0,0,0-.02-.01-.02Z"/>
            <path id="c-3" data-name="c" class="cls-12" d="M7.32,13.25c.15.11.29-.16.15-.52-.1-.27-.59-.16-.31.2.01.02.03,0,.03,0-.02-.08.03-.12.11-.1.2.04.21.42-.01.33-.04,0,0,.08.04.11"/>
            <path id="c-4" data-name="c" class="cls-12" d="M7.8,13.25c-.15.11-.29-.16-.15-.52.1-.27.59-.16.31.2-.01.02-.03,0-.03,0,.02-.08-.03-.12-.11-.1-.2.04-.21.42.01.33.04,0,0,.08-.04.11"/>
            <path class="cls-12" d="M7.68,12.95s.07.03.07.07-.03.07-.07.07h-.23s-.07-.03-.07-.07.03-.07.07-.07h.23ZM7.45,11.26c-.09.21-.21.4-.32.57-.06.02-.09.05-.13.06s-.3,0-.31-.01c-.09-.07-.22,0-.16.07-.04.04.04.14.09.09s.25,0,.3-.02c-.02.06-.21.09-.32.09s-.09.11-.06.21l.04.02c.04.08.15.05.15-.02s.26-.17.3-.23c-.04.11-.15.23-.21.34-.06.06-.09.06-.02.17l.13.02c.11,0,.13-.04.11-.13s.07-.26.09-.31c.02-.05.03-.09.05-.12.04-.05.24-.14.29-.12.09.05.16.02.17-.08-.02-.02,0-.15-.07-.16-.06,0-.08.02-.13.06-.08.06-.12.09-.14.09-.06-.02.11-.1.26-.3s.21-.5-.13-.29Z"/>
            <path class="cls-12" d="M6.52,11.99c-.08-.04-.12-.04-.15,0-.02.02-.04,0-.02-.02.05-.12.13-.13.2-.08.02.02.04.03.05.05-.01.02-.07.04-.08.06h0ZM7.61,11.88c.08-.05.16-.07.2-.03.02.02.05,0,.03-.02-.08-.12-.18-.12-.26-.06-.02.02-.04.04-.05.06.03.03.08.06.08.06h0ZM6.98,12.56s-.02-.1-.05-.13c-.03.02-.05.04-.08.07-.08.08-.08.21.05.32.03.03.05,0,.03-.03-.02-.05,0-.12.05-.22ZM6.66,12.3c-.07.03-.1.07-.1.12,0,.03-.02.04-.03,0-.09-.21,0-.25.14-.24,0,.04-.01.12-.01.12Z"/>
          </g>
          <path class="cls-9" d="M7.67,11.41s-.07-.07-.11-.03-.02.08.04.14c-.03-.02-.08-.1-.11-.05s0,.1.04.14c-.04-.04-.08-.09-.12-.05s0,.09.03.12c-.04-.03-.08-.06-.1-.03-.03.04,0,.07.03.1-.04-.03-.07-.06-.1-.03s0,.08.03.09"/>
          <g>
            <path class="cls-7" d="M7.66,8.86c0,.16-.03,1.26-.03,1.41,0,.15-.08.26-.15.32-.07-.09-.11-.22-.12-.36,0-.07,0-1.11.01-1.32l.29-.05Z"/>
            <path class="cls-7" d="M6.95,8.6l-.05,1.5c-.01.13.16.93.25,1.08.24-.1.28-.64.24-1.16-.04-.52,0-.98.04-1.07l-.49-.35Z"/>
            <path class="cls-7" d="M6.67,8.84l.03,1.5c0,.13.21.92.31,1.07.24-.19.19-.94.15-1.17-.07-.46-.06-.98-.04-1.07l-.46-.33Z"/>
            <path class="cls-7" d="M6.47,9.2h.4c-.03.15,0,.66.06,1.05.06.36.15,1.31-.23,1.54-.24-.5-.06-.98-.17-1.42l-.06-1.17ZM7.98,8.59l-.08,1.41c-.01.15-.09.26-.16.31-.06-.09-.1-.22-.1-.37,0-.07.04-1.11.05-1.32l.29-.04ZM7.28,7.7c-.01.35-.02,1.12-.01,1.18,0,.15.06.33.13.43.07-.06.15-.16.16-.31.01-.13.02-.75.02-1.06l-.29-.24Z"/>
            <path class="cls-7" d="M7.56,7.92c0,.38,0,.98,0,1.03,0,.15.04.27.1.37.07-.06.15-.16.17-.32,0-.09.03-.5.04-.81l-.31-.26ZM7.31,7.66l-.27-.39c-.05.19-.12,1.56-.04,1.68,0,.15.06.27.12.36.07-.06.19-.16.15-.32-.03-.16,0-1.18.04-1.34Z"/>
            <path class="cls-7" d="M6.76,8.53l-.02.43c0,.15.04.27.1.37.07-.06.17-.16.16-.31-.04-.59.03-1.15.1-1.69l-.24-.14-.11,1.35Z"/>
            <path class="cls-7" d="M6.49,8.92l.07.28c0,.15.1.27.16.36.07-.06.14-.15.12-.31-.11-.88-.07-1.46.11-2.17-.42.28-.61.88-.47,1.84h0ZM6.52,9.19l-.38-.13c-.05.38.03.86.13,1.5.09.54.04.97-.03,1.25.41-.06.58-.58.38-1.57-.05-.26-.11-.59-.1-1.05h0Z"/>
            <path class="cls-7" d="M6.66,7.42c-.09.46-.16,1-.08,1.59.03.22.07.4.14.54-.28-.03-.45-.3-.43-.77l.06-1.31.31-.05Z"/>
            <path class="cls-7" d="M6.46,7.48c-.02.12-.09.26-.11.41-.05.5-.05,1.13.1,1.53-.28-.03-.37-.28-.38-.75,0-.39,0-.85.09-1.37l.29.18ZM7.04,7.37l-.25-.03c-.05.24-.08.41-.09.5-.02.17.03.32.09.44.09-.06.14-.18.18-.35l.08-.55ZM7.69,7.91h-.23c0,.21-.01.35,0,.42,0,.14.04.26.1.36.07-.06.13-.16.14-.31.01-.15-.01-.31-.01-.47Z"/>
            <path class="cls-7" d="M7.71,8.03c0,.21,0,.35,0,.42.01.14.05.26.12.35.07-.06.13-.16.13-.31l-.25-.46ZM7.46,7.79l-.22-.02c-.02.21-.04.35-.04.42,0,.14.02.27.07.36.07-.05.15-.15.17-.29.02-.15.01-.31.03-.47Z"/>
            <path class="cls-7" d="M7.01,7.45c-.04.17-.1.72,0,.95.08-.06.16-.16.19-.33.03-.17.04-.34.05-.52l-.25-.1ZM7.89,10.74l-.37.19c-.11.24-.21.36-.34.48.19.03.34,0,.45-.14.14-.18.21-.3.26-.32v-.21Z"/>
            <path class="cls-7" d="M7.81,10.88c-.09.19-.15.31-.18.38-.05.13-.06.26-.04.37.09-.02.19-.09.27-.22l-.04-.53Z"/>
            <path class="cls-7" d="M7.86,10.94c-.04.2-.07.34-.08.41-.02.14,0,.27.05.37.08-.04.17-.13.2-.28.04-.15.04-.31.07-.47l-.24-.04Z"/>
            <path class="cls-7" d="M8.35,11.06c-.13.23-.17.39-.18.56-.14-.13-.2-.28-.16-.44.07-.22.13-.47.12-.53l.21.41Z"/>
            <path class="cls-7" d="M7.97,10.47c-.08.19-.14.32-.16.39-.04.14-.05.26-.02.37.09-.03.2-.09.26-.22.06-.14.09-.31.14-.46l-.23-.08Z"/>
            <path class="cls-7" d="M7.99,10.08c-.05-.01-.12.11-.19.18-.02.02-.03.03-.05.05-.03.05-.05.1-.06.15-.06.25-.14.39-.24.52.19,0,.34-.07.41-.23.1-.21.15-.33.19-.37l-.05-.31ZM8.56,11.29c.16.2.23.35.27.52.12-.15.16-.31.08-.46-.27-.32-.27-.31-.35-.06h0Z"/>
            <path class="cls-7" d="M8.61,11.14c.16.2.33.36.37.53.12-.15.17-.31.09-.46l-.46-.06Z"/>
            <path class="cls-7" d="M8.31,11.07c.16.2.23.35.27.52.12-.15.16-.31.08-.46l-.35-.06Z"/>
          </g>
        </g>
        <path class="cls-7" d="M9.11,7.32c-.04-.41-.11-.69-.29-.97.08,0,.17,0,.13-.2-.12-.03-.16.02-.48-.14-.26-.12-.65-.17-.62-.04.05.26.22.45.4.59.09.21.29.61.15.83s-.26.33-.41.42c.03.01.06.02.09.03-.02.03-.21.09-.23.07-.15-.1-.28-.34-.4-.48-.35-.39-.53-.7-.46-.94.08-.27.4-.56-.01-.51s-.75.63-.86,1.29c-.04.25-.06.46-.09.63.22-.08.32-.16.38-.26-.03.09-.05.18-.06.27.18-.03.31-.12.36-.29.02-.06.04-.12.07-.17.06.02.13.02.22,0,.03.08.29.36.42.57.15.23.38.41.46.42h2.46c.08-.01.31-.19.46-.42.14-.21.39-.49.42-.57.09.02.16.02.22,0,.02.05.05.1.07.17.05.16.18.25.36.29-.01-.08-.03-.17-.06-.27.06.1.16.18.38.26-.03-.17-.05-.39-.09-.63-.1-.66-.45-1.24-.86-1.29s-.09.24-.01.51c.07.24-.11.55-.46.94-.12.14-.26.38-.4.48-.02.02-.21-.04-.23-.07.03,0,.06-.02.09-.03-.14-.09-.26-.2-.41-.42s.06-.62.15-.83c.18-.13.35-.32.4-.59.02-.13-.36-.09-.62.04-.32.15-.36.11-.48.14-.04.2.05.21.13.2-.18.28-.25.57-.29.97Z"/>
        <g id="d">
          <g>
            <path class="cls-12" d="M9.87,6.74l.36.05c.28.01.44-.08.48-.26-.1.12-.23.19-.37.15-.19-.05-.31-.09-.35-.08l-.11.12Z"/>
            <path class="cls-12" d="M10.55,6.01c.31.03.3.24,0,.53-.06.06-.07.06-.09,0-.03-.11-.13-.16-.19-.08-.04.05-.03.08-.16.06-.17.14-.3.24-.09.23.09,0,.17.05.3.05-.04.07-.04.08-.06.09-.12.02-.25-.05-.37-.03-.27.05.43-.73.43-.76-.02-.08.17-.22.24-.08Z"/>
          </g>
          <g>
            <path class="cls-13" d="M10.1,6.25l.04-.04s0-.06-.04-.1c-.03.01-.06.02-.08.04.02.06.04.09.08.11"/>
            <circle class="cls-13" cx="10.59" cy="6.16" r=".03"/>
          </g>
          <g>
            <path class="cls-10" d="M11.9,9.39c-.02.34-.04.6-.1.89s-.08.47-.09.76M11.76,9.43c.16-.42.15-1.07.1-1.5s-.33-1-.42-1.06M10.55,6.01c-.01.06-.07.13-.16.2M9.71,7.7c.13.15.31.19.52.12"/>
            <path class="cls-10" d="M9.69,7.58c0,.06.03.16.09.31-.13-.03-.22-.09-.28-.17"/>
            <path class="cls-10" d="M9.52,7.56c-.02.13-.05.23-.1.3-.07-.05-.12-.13-.15-.23M9.92,6.19c.03.06.09.13.15.09.09-.06.11-.13.15-.19"/>
            <path class="cls-10" d="M9.83,6.2s.08-.02.18-.05.2-.08.3-.07M9.58,6.31s-.11.03-.18.04"/>
          </g>
        </g>
        <g id="d-2" data-name="d">
          <g>
            <path class="cls-12" d="M8.35,6.74l-.36.05c-.28.01-.44-.08-.48-.26.1.12.23.19.37.15.19-.05.31-.09.35-.08l.11.12Z"/>
            <path class="cls-12" d="M7.67,6.01c-.31.03-.3.24,0,.53.06.06.07.06.09,0,.03-.11.13-.16.19-.08.04.05.03.08.16.06.17.14.3.24.09.23-.09,0-.17.05-.3.05.04.07.04.08.06.09.12.02.25-.05.37-.03.27.05-.43-.73-.43-.76.02-.08-.17-.22-.24-.08Z"/>
          </g>
          <g>
            <path class="cls-13" d="M8.12,6.25l-.04-.04s0-.06.04-.1c.03.01.06.02.08.04-.02.06-.04.09-.08.11"/>
            <circle class="cls-13" cx="7.64" cy="6.16" r=".03"/>
          </g>
          <g>
            <path class="cls-10" d="M6.32,9.39c.02.34.04.6.1.89s.08.47.09.76M6.46,9.43c-.16-.42-.15-1.07-.1-1.5s.33-1,.42-1.06M7.67,6.01c.01.06.07.13.16.2M8.51,7.7c-.13.15-.31.19-.52.12"/>
            <path class="cls-10" d="M8.54,7.58c0,.06-.03.16-.09.31.13-.03.22-.09.28-.17"/>
            <path class="cls-10" d="M8.7,7.56c.02.13.05.23.1.3.07-.05.12-.13.15-.23M8.3,6.19c-.03.06-.09.13-.15.09-.09-.06-.11-.13-.15-.19"/>
            <path class="cls-10" d="M8.39,6.2s-.08-.02-.18-.05-.2-.08-.3-.07M8.64,6.31s.11.03.18.04"/>
          </g>
        </g>
        <path class="cls-7" d="M8.94,7.53c.01.15.07.29.17.42.1-.13.16-.27.17-.42"/>
        <path class="cls-2" d="M10.39,7.97v2.05c0,.37-.15.7-.38.94s-.56.41-.9.41-.67-.17-.9-.41-.38-.57-.38-.94v-2.05h2.55Z"/>
        <path class="cls-6" d="M10.38,9.23v.53h-1.01v1.57c-.17.04-.34.04-.51,0v-1.57h-1.01v-.53h1.01v-1.25h.51v1.25h1.01Z"/>
        <path id="e" class="cls-7" d="M9.55,9.98c.15-.06.57-.19.57.14,0,.16-.19.26-.25.12-.03-.07,0-.12.04-.13s.08.02.07.07c.17-.09-.16-.27-.29-.03-.04.07.07.14.07.2s-.11.13-.07.2c.14.24.46.06.29-.03.01.05-.03.09-.07.07s-.07-.06-.04-.13c.05-.14.25-.04.25.12,0,.33-.42.2-.57.14v-.74Z"/>
        <path id="e-2" data-name="e" class="cls-7" d="M8.68,8.28c-.15-.06-.57-.19-.57.14,0,.16.19.26.25.12.03-.07,0-.12-.04-.13s-.08.02-.07.07c-.17-.09.16-.27.29-.03.04.07-.07.14-.07.2s.11.13.07.2c-.14.24-.46.06-.29-.03-.01.05.03.09.07.07s.07-.06.04-.13c-.05-.14-.25-.04-.25.12,0,.33.42.2.57.14v-.74Z"/>
        <path id="e-3" data-name="e" class="cls-7" d="M9.55,8.28c.15-.06.57-.19.57.14,0,.16-.19.26-.25.12-.03-.07,0-.12.04-.13s.08.02.07.07c.17-.09-.16-.27-.29-.03-.04.07.07.14.07.2s-.11.13-.07.2c.14.24.46.06.29-.03.01.05-.03.09-.07.07s-.07-.06-.04-.13c.05-.14.25-.04.25.12,0,.33-.42.2-.57.14v-.74Z"/>
        <path id="e-4" data-name="e" class="cls-7" d="M8.68,9.98c-.15-.06-.57-.19-.57.14,0,.16.19.26.25.12.03-.07,0-.12-.04-.13s-.08.02-.07.07c-.17-.09.16-.27.29-.03.04.07-.07.14-.07.2s.11.13.07.2c-.14.24-.46.06-.29-.03-.01.05.03.09.07.07s.07-.06.04-.13c-.05-.14-.25-.04-.25.12,0,.33.42.2.57.14v-.74Z"/>
      </g>
    </g>
  </g>
</svg>