<?xml version="1.0" encoding="UTF-8"?>
<svg id="Layer_2" data-name="Layer 2" xmlns="http://www.w3.org/2000/svg" xmlns:xlink="http://www.w3.org/1999/xlink" viewBox="0 0 34.02 17.01">
  <defs>
    <style>
      .cls-1 {
        fill: #3a53a4;
      }

      .cls-2 {
        fill: #f6eb16;
      }

      .cls-3 {
        fill: #fff;
      }

      .cls-4 {
        fill: none;
      }

      .cls-5 {
        fill: #ed2224;
      }

      .cls-6 {
        clip-path: url(#clippath);
      }
    </style>
    <clipPath id="clippath">
      <rect class="cls-4" width="25.95" height="17.01"/>
    </clipPath>
  </defs>
  <g id="Layer_1-2" data-name="Layer 1">
    <g class="cls-6">
      <g>
        <path class="cls-5" d="M0,0h34.02v17.01H0V0Z"/>
        <path class="cls-1" d="M0,0h34.02v11.34H0V0Z"/>
        <path class="cls-3" d="M0,0h34.02v5.67H0V0Z"/>
        <g>
          <path class="cls-1" d="M6.44,3.27c1.31-.58,2.81-.58,4.12,0,.22,3.05-.47,4.77-2.06,5.18-1.59-.41-2.28-2.13-2.06-5.18Z"/>
          <path id="a" class="cls-2" d="M8.5,3.82l.06.14.15-.02-.09.12.09.12-.15-.02-.06.14-.06-.14-.15.02.09-.12-.09-.12.15.02"/>
          <path id="a-2" data-name="a" class="cls-2" d="M7.92,3.04l.06.14.15-.02-.09.12.09.12-.15-.02-.06.14-.06-.14-.15.02.09-.12-.09-.12.15.02"/>
          <path id="a-3" data-name="a" class="cls-2" d="M9.09,3.04l.06.14.15-.02-.09.12.09.12-.15-.02-.06.14-.06-.14-.15.02.09-.12-.09-.12.15.02"/>
          <path class="cls-3" d="M8.5,4.62l.5,1,.33-.44.83,1.11c0,.05,0,.1-.02.15-.23.81-.85,1.46-1.64,1.73-.8-.27-1.41-.92-1.64-1.73-.01-.05-.02-.1-.02-.15l.83-1.11.33.44.5-1Z"/>
          <path id="b" class="cls-1" d="M6.86,6.44c.08.29.39.47.69.38.04-.01.09-.03.12-.05.17-.1.38-.1.55,0,.17.1.38.1.55,0,.17-.1.38-.1.55,0,.27.15.6.06.76-.2.02-.04.04-.08.05-.12h.02v.41c-.1,0-.19.03-.28.07-.17.1-.38.1-.55,0-.17-.1-.38-.1-.55,0-.17.1-.38.1-.55,0-.17-.1-.38-.1-.55,0-.17.1-.38.1-.55,0-.08-.05-.18-.07-.28-.07v-.41"/>
          <path id="b-2" data-name="b" class="cls-1" d="M6.86,6.76c.08.29.39.47.69.38.04-.01.09-.03.12-.05.17-.1.38-.1.55,0,.17.1.38.1.55,0,.17-.1.38-.1.55,0,.27.15.6.06.76-.2.02-.04.04-.08.05-.12h.02v.41c-.1,0-.19.03-.28.07-.17.1-.38.1-.55,0-.17-.1-.38-.1-.55,0-.17.1-.38.1-.55,0-.17-.1-.38-.1-.55,0-.17.1-.38.1-.55,0-.08-.05-.18-.07-.28-.07v-.41"/>
          <path class="cls-5" d="M6.28,3.34c.05-.02.1-.05.16-.07l.16,2.63c.07,1.12.82,2.09,1.9,2.43,1.07-.34,1.83-1.31,1.9-2.43l.16-2.63c.05.02.1.05.16.07l-.16,2.57c-.08,1.21-.9,2.24-2.06,2.59-1.16-.35-1.98-1.38-2.06-2.59l-.16-2.57Z"/>
        </g>
      </g>
    </g>
  </g>
</svg>