<?xml version="1.0" encoding="UTF-8"?>
<svg id="Layer_2" data-name="Layer 2" xmlns="http://www.w3.org/2000/svg" viewBox="0 0 25.51 17.01">
  <defs>
    <style>
      .cls-1 {
        fill: #fff;
      }

      .cls-2 {
        fill: #294da1;
      }

      .cls-3 {
        fill: #ec2227;
      }
    </style>
  </defs>
  <g id="Layer_1-2" data-name="Layer 1">
    <path class="cls-2" d="M0,11.34h25.51v-5.67H0v5.67Z"/>
    <path class="cls-1" d="M0,5.67h25.51V0H0v5.67Z"/>
    <path class="cls-3" d="M0,17.01h25.51v-5.67H0v5.67Z"/>
    <g>
      <path class="cls-1" d="M7.65,13.04l-.11-.05c-.72-.35-1.6-.86-2.3-1.65s-1.24-1.85-1.24-3.24c0-2.65.13-3.87.13-3.87l.02-.23h7.01l.02.23s.13,1.22.13,3.87c0,1.39-.53,2.45-1.24,3.24-.71.79-1.59,1.3-2.3,1.65l-.11.05Z"/>
      <path class="cls-3" d="M7.65,12.76c-1.4-.67-3.4-2.01-3.4-4.66s.13-3.85.13-3.85h6.55s.13,1.2.13,3.85-2,3.98-3.4,4.66"/>
      <path class="cls-1" d="M7.95,7.41c.38,0,1.12.02,1.78-.2,0,0-.02.24-.02.51s.02.51.02.51c-.6-.2-1.35-.21-1.78-.2v1.46h-.6v-1.46c-.43,0-1.17,0-1.78.2,0,0,.02-.24.02-.51s-.02-.51-.02-.51c.66.22,1.4.21,1.78.2v-.92c-.35,0-.84.01-1.41.2,0,0,.02-.24.02-.51s-.02-.51-.02-.51c.56.19,1.06.2,1.4.2-.02-.58-.19-1.31-.19-1.31,0,0,.35.03.49.03s.49-.03.49-.03c0,0-.17.73-.19,1.31.35,0,.84-.01,1.4-.2,0,0-.02.24-.02.51s.02.51.02.51c-.56-.19-1.06-.2-1.41-.2v.92"/>
      <path class="cls-2" d="M7.65,9.33c-.7,0-1.08.98-1.08.98,0,0-.21-.46-.78-.46-.39,0-.68.35-.86.67.71,1.13,1.84,1.82,2.72,2.25.89-.43,2.02-1.12,2.72-2.25-.18-.32-.47-.67-.86-.67-.33,0-.63.17-.78.46,0,0-.38-.98-1.08-.98h0Z"/>
    </g>
  </g>
</svg>