<?xml version="1.0" encoding="UTF-8"?>
<svg id="Layer_2" data-name="Layer 2" xmlns="http://www.w3.org/2000/svg" viewBox="0 0 25.51 17.01">
  <defs>
    <style>
      .cls-1, .cls-2, .cls-3, .cls-4, .cls-5, .cls-6, .cls-7, .cls-8, .cls-9, .cls-10, .cls-11, .cls-12, .cls-13, .cls-14, .cls-15, .cls-16, .cls-17, .cls-18, .cls-19, .cls-20, .cls-21, .cls-22, .cls-23, .cls-24, .cls-25, .cls-26, .cls-27, .cls-28, .cls-29, .cls-30, .cls-31 {
        stroke: #010101;
      }

      .cls-1, .cls-32, .cls-10, .cls-11, .cls-12, .cls-13, .cls-31 {
        fill: #9e7f2e;
      }

      .cls-1, .cls-5, .cls-12, .cls-14, .cls-30 {
        stroke-linejoin: round;
      }

      .cls-33 {
        fill: rgba(41, 95, 172, .94);
      }

      .cls-34, .cls-14, .cls-19, .cls-25, .cls-26 {
        fill: #b51f2b;
      }

      .cls-2 {
        stroke-linecap: round;
      }

      .cls-2, .cls-17, .cls-21, .cls-23, .cls-30 {
        fill: none;
      }

      .cls-35, .cls-4 {
        fill: #deae26;
      }

      .cls-3, .cls-8, .cls-9 {
        fill: #214ba0;
      }

      .cls-3, .cls-19 {
        stroke-width: 0px;
      }

      .cls-36 {
        fill: #ce2028;
      }

      .cls-5 {
        fill: #d25da3;
      }

      .cls-37, .cls-22 {
        fill: #c8b22e;
      }

      .cls-6 {
        fill: #234ca1;
      }

      .cls-7 {
        fill: #db4546;
      }

      .cls-9, .cls-31 {
        stroke-width: 0px;
      }

      .cls-10, .cls-17, .cls-24 {
        stroke-width: 0px;
      }

      .cls-38, .cls-28 {
        fill: #fff;
      }

      .cls-11 {
        fill-rule: evenodd;
      }

      .cls-12 {
        stroke-width: 0px;
      }

      .cls-15, .cls-20, .cls-39 {
        fill: #037047;
      }

      .cls-15, .cls-25, .cls-27 {
        stroke-width: 0px;
      }

      .cls-40 {
        fill: #ac1f24;
      }

      .cls-16 {
        fill: #e6e6e5;
      }

      .cls-18 {
        fill: #2b170d;
        stroke-miterlimit: 3.86;
      }

      .cls-41 {
        fill: #295fac;
      }

      .cls-42 {
        fill: #b3b3b3;
      }

      .cls-23 {
        stroke-width: 0px;
      }

      .cls-24 {
        fill: #b61f2c;
      }

      .cls-43 {
        fill: #f8bc16;
      }

      .cls-27 {
        fill: #f6cb7e;
      }

      .cls-29 {
        fill: #010101;
      }
    </style>
  </defs>
  <g id="Layer_1-2" data-name="Layer 1">
    <g>
      <path class="cls-40" d="M0,0h25.51v17.01H0V0Z"/>
      <path class="cls-43" d="M0,4.25h25.51v8.5H0V4.25Z"/>
      <path class="cls-34" d="M8.5,7.59c-.36,0-.69-.05-.95-.12.25-.07.58-.11.95-.11.36,0,.7.04.95.11-.25.07-.58.12-.95.12"/>
      <g>
        <path class="cls-21" d="M7.68,6.72s.03-.07.07-.07.07.03.07.07-.03.07-.07.07-.07-.03-.07-.07Z"/>
        <path class="cls-26" d="M8.48,6.08c.22,0,.41.04.54.09.07.04.17.06.28.08.08.01.16.01.23,0,.09,0,.22.03.35.09.11.05.2.12.26.18l-.05.05v.14s-.16.18-.16.18l-.07.07-.17.15h-.09s-.03.09-.03.09l-1.09-.14-1.09.14-.03-.08h-.09s-.17-.15-.17-.15l-.07-.07-.14-.18v-.14s-.07-.05-.07-.05c.06-.06.15-.12.26-.18.13-.06.26-.09.35-.09.07,0,.14,0,.23,0,.11-.02.2-.04.28-.08.13-.05.31-.09.53-.09h0Z"/>
        <g>
          <path class="cls-13" d="M9.26,6.44l-.07-.12c.07-.05.13-.14.13-.23,0-.01,0-.02,0-.03,0-.16-.18-.28-.4-.28-.11,0-.22.03-.29.09,0-.02,0-.04,0-.07.08-.05.18-.08.3-.08.25,0,.45.16.46.34,0,.01,0,.02,0,.03,0,.1-.04.19-.11.25l.04.07-.05.04ZM7.73,6.44l.07-.12c-.07-.05-.13-.14-.13-.23,0-.01,0-.02,0-.03,0-.16.18-.28.4-.28.11,0,.22.03.29.09,0-.02,0-.04,0-.07-.08-.05-.18-.08-.3-.08-.25,0-.45.16-.46.34,0,.01,0,.02,0,.03,0,.1.04.19.11.25l-.04.07.05.04Z"/>
          <path class="cls-13" d="M9.45,6.13c0-.12-.07-.23-.18-.3.07.06.11.14.12.22,0,.01,0,.02,0,.03,0,.1-.04.19-.11.25l.03.07c.09-.07.14-.17.14-.27h0ZM6.92,6.52c-.05-.06-.08-.14-.08-.22,0-.05.01-.1.03-.14.07-.16.29-.27.55-.27.07,0,.14,0,.2.02-.01.02-.02.03-.04.05-.05-.01-.11-.02-.17-.02-.24,0-.44.1-.5.24-.02.04-.02.08-.02.11,0,.08.04.16.09.21l-.09.15-.05-.04.06-.1h0ZM8.5,5.67c.06,0,.11.04.12.1,0,.05.01.11.01.17,0,0,0,.01,0,.02,0,0,0,.01,0,.02,0,.13.02.24.04.31l-.18.18-.18-.18c.02-.07.04-.18.04-.31,0,0,0-.01,0-.02,0,0,0-.01,0-.02,0-.06,0-.12.01-.17.01-.06.06-.1.12-.1h0Z"/>
        </g>
        <g>
          <path class="cls-21" d="M8.66,7.61v-.28M8.59,7.61v-.28"/>
          <path class="cls-21" d="M8.53,7.61v-.28M8.47,7.61v-.28M8.41,7.61v-.28M8.31,7.59v-.25M8.36,7.6v-.26"/>
          <path class="cls-21" d="M8.21,7.58v-.23M8.26,7.59v-.25M8.08,7.57v-.2M8.12,7.57v-.21M8.17,7.58v-.22"/>
          <path class="cls-21" d="M8.04,7.57v-.2M7.99,7.57v-.21M7.95,7.57v-.2M7.85,7.55v-.17M7.9,7.56v-.19"/>
          <path class="cls-21" d="M7.81,7.54v-.15M7.76,7.55v-.15M7.72,7.52v-.11M7.67,7.52v-.1M7.61,7.51v-.07"/>
          <path class="cls-21" d="M8.92,7.59v-.25M8.81,7.6v-.27M8.73,7.61v-.27"/>
        </g>
        <g>
          <g>
            <path class="cls-13" d="M8.5,7.28c-.4,0-.77.05-1.02.14-.02,0-.03.02-.03.04,0,.02,0,.04.03.04.26.08.62.14,1.02.14.4,0,.77-.05,1.02-.14.02,0,.03-.03.03-.04,0-.02,0-.04-.03-.04-.26-.08-.62-.14-1.02-.14h0ZM8.5,7.36c.36,0,.7.04.95.11-.25.07-.58.12-.95.12-.36,0-.69-.05-.95-.12.25-.07.58-.11.95-.11Z"/>
            <path class="cls-13" d="M8.5,7.28c-.41,0-.78.06-1.03.14.02-.01.02-.04,0-.11-.03-.09-.08-.09-.08-.09.29-.09.68-.15,1.13-.15.44,0,.84.06,1.13.15,0,0-.05,0-.08.09-.03.07-.03.1,0,.11-.26-.09-.63-.14-1.04-.14"/>
            <path class="cls-13" d="M8.5,7.07c-.44,0-.84.06-1.13.15-.02,0-.04,0-.05-.02,0-.02,0-.04.02-.05.29-.1.69-.16,1.15-.16.45,0,.86.06,1.15.16.02,0,.03.03.02.05,0,.02-.03.03-.05.02-.29-.09-.69-.15-1.13-.15"/>
          </g>
          <path class="cls-28" d="M8.18,7.18s.02-.04.04-.04.04.02.04.04-.02.04-.04.04-.04-.02-.04-.04"/>
          <path class="cls-26" d="M8.5,7.21h-.11s-.04-.02-.04-.04.02-.04.04-.04h.22s.04.02.04.04-.02.04-.04.04h-.11Z"/>
          <path class="cls-20" d="M7.96,7.25h-.08s-.04,0-.04-.02c0-.02.01-.04.03-.04h.08s.08-.02.08-.02c.02,0,.04.01.04.03,0,.02-.01.04-.03.04h-.08Z"/>
          <path class="cls-28" d="M7.64,7.25s.02-.04.04-.04.04.02.04.04-.02.04-.04.04-.04-.02-.04-.04"/>
          <path class="cls-26" d="M7.4,7.31l.03-.05.11.02-.09.07-.05-.02h-.01s0-.02,0-.02Z"/>
          <path class="cls-20" d="M9.04,7.25h.08s.04,0,.04-.02c0-.02-.01-.04-.03-.04h-.08s-.08-.02-.08-.02c-.02,0-.04.01-.04.03,0,.02.01.04.03.04h.08Z"/>
          <path class="cls-28" d="M8.74,7.18s.02-.04.04-.04.04.02.04.04-.02.04-.04.04-.04-.02-.04-.04M9.29,7.25s.02-.04.04-.04.04.02.04.04-.02.04-.04.04-.04-.02-.04-.04"/>
          <path class="cls-26" d="M9.6,7.32l-.04-.06-.11.02.09.07.06-.02h0s0,0,0,0Z"/>
        </g>
        <path class="cls-13" d="M8.5,5.73s.06.02.06.05c0,.05.01.1.01.16,0,0,0,.01,0,.02,0,0,0,.01,0,.02,0,.12.02.22.04.29l-.12.12-.12-.12c.02-.06.04-.17.04-.29,0,0,0-.01,0-.02,0,0,0-.01,0-.02,0-.06,0-.11.01-.16,0-.03.03-.05.06-.05h0Z"/>
      </g>
      <path class="cls-38" d="M8.43,6.31s.03-.06.06-.06.06.03.06.06-.03.06-.06.06-.06-.03-.06-.06"/>
      <g>
        <path class="cls-21" d="M8.43,6.31s.03-.06.06-.06.06.03.06.06-.03.06-.06.06-.06-.03-.06-.06Z"/>
        <g>
          <path class="cls-28" d="M8.43,6.18s.03-.06.06-.06.06.03.06.06-.03.06-.06.06-.06-.03-.06-.06M8.45,6.04s.02-.05.05-.05.05.02.05.05-.02.05-.05.05-.05-.02-.05-.05M8.46,5.92s.02-.04.04-.04.04.02.04.04-.02.04-.04.04-.04-.02-.04-.04M8.47,5.81s.01-.03.03-.03.03.01.03.03-.01.03-.03.03-.03-.01-.03-.03"/>
          <path class="cls-13" d="M8.5,6.7h.04s0,.05,0,.07c0,.09.07.17.16.17.07,0,.13-.05.15-.12,0,0,.02-.06.02-.06,0,0,0,.06,0,.06.01.08.08.14.16.14.09,0,.16-.07.16-.17,0,0,0-.01,0-.02l.05-.05.03.07s-.02.05-.02.07c0,.09.07.16.15.16.05,0,.1-.03.13-.07l.03-.05v.06c0,.06.02.11.07.11,0,0,.06,0,.13-.06.08-.06.12-.12.12-.12v.06s-.06.11-.12.15c-.04.02-.09.05-.14.04-.05,0-.08-.05-.1-.1-.03.02-.07.03-.12.03-.09,0-.18-.06-.21-.14-.04.05-.1.08-.17.08-.07,0-.14-.04-.18-.09-.04.04-.1.07-.16.07-.08,0-.15-.04-.2-.11-.04.07-.11.11-.2.11-.06,0-.12-.03-.16-.07-.04.06-.11.09-.18.09-.07,0-.13-.03-.17-.08-.03.08-.12.14-.21.14-.04,0-.08-.01-.12-.03-.02.05-.05.09-.1.1-.05,0-.1-.02-.14-.04-.07-.04-.13-.15-.13-.15v-.06s.05.05.12.12c.08.06.13.06.13.06.05,0,.07-.06.07-.11v-.06s.03.05.03.05c.03.04.08.07.13.07.09,0,.15-.07.15-.16,0-.03,0-.05-.02-.07l.03-.07.05.05s0,.01,0,.02c0,.09.07.17.16.17.08,0,.15-.06.16-.14,0,0,0-.06,0-.06,0,0,.02.06.02.06.02.07.08.12.15.12.09,0,.16-.08.16-.17,0-.02,0-.04,0-.06h.04"/>
          <path class="cls-28" d="M9.61,6.92s0-.06-.02-.07c-.02,0-.04.01-.05.04,0,.03,0,.06.02.07.02,0,.04-.01.05-.04M8.91,6.77s-.01-.06-.03-.06c-.02,0-.04.02-.04.05,0,.03,0,.06.03.06.02,0,.04-.02.04-.05M8.09,6.77s.01-.06.03-.06c.02,0,.04.02.04.05,0,.03-.01.06-.03.06-.02,0-.04-.02-.04-.05M7.39,6.92s0-.06.02-.07c.02,0,.04.01.05.04,0,.03,0,.06-.02.07-.02,0-.04-.01-.05-.04"/>
          <g>
            <path class="cls-13" d="M7.71,6.77s-.02-.02-.02-.04c0-.02,0-.03,0-.04,0,0-.03-.02-.06-.02-.02,0-.07,0-.08,0-.01,0-.04,0-.04,0,0,0,0,0,0,.02,0,.02.02.03.02.03-.04.01-.08.04-.1.08.03.02.08.04.12.03,0,0,0,.01,0,.03,0,.02,0,.02,0,.02,0,0,.02,0,.04-.01.01,0,.05-.02.07-.03.03-.02.05-.04.05-.04M7.8,6.75s.01-.03,0-.04c0-.02-.01-.03-.02-.04,0,0,.02-.03.05-.04.02-.01.06-.03.07-.03.01,0,.04-.01.04-.01,0,0,0,0,0,.02,0,.02,0,.03,0,.03.04,0,.09.01.12.04-.02.03-.06.06-.1.07,0,0,0,.01.02.03,0,.01,0,.02,0,.02,0,0-.03,0-.04,0-.01,0-.05,0-.08,0-.03,0-.06-.02-.06-.02"/>
            <path class="cls-13" d="M7.77,6.51s0,0,.02-.02c.02-.01.04-.01.04-.01,0,0,0,.03,0,.05,0,.01,0,.05-.01.08,0,.03-.02.06-.02.06-.01-.01-.03-.02-.05-.01-.02,0-.03.02-.04.03,0,0-.02-.02-.04-.05-.02-.03-.03-.06-.04-.07,0-.01-.02-.04-.02-.04,0,0,.02,0,.04,0,.02,0,.03.01.03.01,0-.05,0-.09.03-.13.03.02.07.06.08.11h0Z"/>
          </g>
          <path class="cls-26" d="M7.68,6.72s.03-.07.07-.07.07.03.07.07-.03.07-.07.07-.07-.03-.07-.07"/>
          <g>
            <path class="cls-13" d="M8.56,6.42s0,0,.03-.02c.02,0,.04,0,.04,0,0,0-.01.04-.02.05,0,.01-.01.05-.03.09-.01.04-.03.06-.03.06-.01-.02-.03-.03-.06-.03s-.04.01-.05.03c0,0-.02-.03-.03-.06-.01-.04-.02-.08-.03-.09,0-.01-.02-.05-.02-.05,0,0,.02,0,.04,0,.02,0,.03.02.03.02,0-.05.03-.1.06-.14.03.03.06.08.06.14Z"/>
            <path class="cls-13" d="M8.44,6.7s-.02-.03-.02-.05,0-.03.02-.05c0,0-.03-.02-.06-.04-.03-.01-.07-.02-.09-.02-.01,0-.04,0-.04,0,0,0,0,0,0,.02,0,.02.01.03.01.03-.05,0-.09.03-.13.06.03.03.08.06.13.06,0,0,0,.01-.01.03,0,.02,0,.02,0,.02,0,0,.03,0,.04,0,.01,0,.06-.01.09-.02.03-.02.06-.04.06-.04M8.55,6.7s.02-.03.02-.05c0-.02,0-.03-.02-.05,0,0,.03-.02.06-.04.03-.01.07-.02.09-.02.01,0,.04,0,.04,0,0,0,0,0,0,.02,0,.02-.01.03-.01.03.05,0,.09.03.13.06-.03.03-.08.06-.13.06,0,0,0,.01.01.03,0,.02,0,.02,0,.02,0,0-.03,0-.04,0-.01,0-.06-.01-.09-.02-.03-.02-.06-.04-.06-.04M9.23,6.51s0,0-.02-.02c-.02-.01-.04-.01-.04-.01,0,0,0,.03,0,.05,0,.01,0,.05.01.08,0,.03.02.06.02.06.01-.01.03-.02.05-.01.02,0,.03.02.04.03,0,0,.02-.02.04-.05.02-.03.03-.06.04-.07,0-.01.02-.04.02-.04,0,0-.02,0-.04,0-.02,0-.03.01-.03.01,0-.05,0-.09-.03-.13-.03.02-.07.06-.08.11h0Z"/>
            <path class="cls-13" d="M9.29,6.77s.02-.02.02-.04c0-.02,0-.03,0-.04,0,0,.03-.02.06-.02.02,0,.07,0,.08,0,.01,0,.04,0,.04,0,0,0,0,0,0,.02,0,.02-.02.03-.02.03.04.01.08.04.1.08-.03.02-.08.04-.12.03,0,0,0,.01,0,.03,0,.02,0,.02,0,.02,0,0-.02,0-.04-.01-.01,0-.05-.02-.07-.03-.03-.02-.05-.04-.05-.04M9.2,6.75s-.01-.03,0-.04c0-.02.01-.03.02-.04,0,0-.02-.03-.05-.04-.02-.01-.06-.03-.07-.03-.01,0-.04-.01-.04-.01,0,0,0,0,0,.02,0,.02,0,.03,0,.03-.04,0-.09.01-.12.04.02.03.06.06.1.07,0,0,0,.01-.02.03,0,.01,0,.02,0,.02,0,0,.03,0,.04,0,.01,0,.05,0,.08,0,.03,0,.06-.02.06-.02"/>
          </g>
          <path class="cls-26" d="M9.18,6.72s.03-.07.07-.07.07.03.07.07-.03.07-.07.07-.07-.03-.07-.07M9.98,6.88s-.05-.02-.08,0c-.03.02-.03.06-.02.08.02.02.05.02.08,0,.03-.02.03-.06.02-.08"/>
          <path class="cls-13" d="M9.88,6.93s.01-.03.02-.04c.03-.02.06-.03.08,0,0,0,0,0,0,0,0,0,.04-.07.08-.1.04-.03.12-.02.12-.02,0-.06-.04-.1-.1-.1-.03,0-.06.01-.08.04v-.04s-.05,0-.07.07c-.02.06,0,.14,0,.14,0,0-.01-.03-.03-.06-.02-.02-.06-.05-.08-.06-.02-.01-.05-.03-.05-.03,0,0,0,0,0,.02,0,.02,0,.03,0,.03-.04,0-.09,0-.13.02.02.03.05.07.09.08,0,0-.01.01-.03.03-.01.01-.01.02-.01.02h.04s.06.02.09.01c.02,0,.04,0,.06,0M7.12,6.93s-.01-.03-.02-.04c-.03-.02-.06-.03-.08,0,0,0,0,0,0,0,0,0-.04-.07-.08-.1-.04-.03-.12-.02-.12-.02,0-.06.04-.1.1-.1.03,0,.06.01.08.04v-.04s.05,0,.07.07c.02.06,0,.14,0,.14,0,0,.01-.03.03-.06.02-.02.06-.05.08-.06.02-.01.05-.03.05-.03,0,0,0,0,0,.02,0,.02,0,.03,0,.03.04,0,.09,0,.13.02-.02.03-.05.07-.09.08,0,0,.01.01.03.03.01.01.01.02.01.02,0,0-.03,0-.04,0-.01,0-.06.01-.09,0-.02,0-.04,0-.06,0"/>
          <path class="cls-26" d="M7.02,6.88s.05-.02.08,0c.03.02.03.06.02.08-.02.02-.05.02-.08,0-.03-.02-.03-.06-.02-.08M8.43,6.65s.03-.07.07-.07.07.03.07.07-.03.07-.07.07-.07-.03-.07-.07"/>
        </g>
        <g>
          <path class="cls-8" d="M8.35,5.53c0-.08.07-.15.15-.15s.15.07.15.15-.07.15-.15.15-.15-.07-.15-.15"/>
          <path class="cls-13" d="M8.46,5.11v.08h-.08v.08h.08v.24h-.1s0,.01,0,.02c0,.02,0,.04.01.06,0,0,0,0,0,0h.27s0,0,0,0c0-.02.01-.04.01-.06,0,0,0-.01,0-.02h-.1v-.24h.08v-.08h-.08v-.08h-.08Z"/>
        </g>
      </g>
      <path class="cls-38" d="M10.14,6.66s.02-.04.04-.04.04.02.04.04-.02.04-.04.04-.04-.02-.04-.04"/>
      <path class="cls-21" d="M10.14,6.66s.02-.04.04-.04.04.02.04.04-.02.04-.04.04-.04-.02-.04-.04Z"/>
      <path class="cls-38" d="M10.19,6.56s.02-.04.04-.04.04.02.04.04-.02.04-.04.04-.04-.02-.04-.04"/>
      <path class="cls-21" d="M10.19,6.56s.02-.04.04-.04.04.02.04.04-.02.04-.04.04-.04-.02-.04-.04Z"/>
      <path class="cls-38" d="M10.23,6.45s.02-.04.04-.04.04.02.04.04-.02.04-.04.04-.04-.02-.04-.04"/>
      <path class="cls-21" d="M10.23,6.45s.02-.04.04-.04.04.02.04.04-.02.04-.04.04-.04-.02-.04-.04h0Z"/>
      <path class="cls-38" d="M10.23,6.33s.02-.04.04-.04.04.02.04.04-.02.04-.04.04-.04-.02-.04-.04"/>
      <path class="cls-21" d="M10.23,6.33s.02-.04.04-.04.04.02.04.04-.02.04-.04.04-.04-.02-.04-.04Z"/>
      <path class="cls-38" d="M10.2,6.22s.02-.04.04-.04.04.02.04.04-.02.04-.04.04-.04-.02-.04-.04"/>
      <path class="cls-21" d="M10.2,6.22s.02-.04.04-.04.04.02.04.04-.02.04-.04.04-.04-.02-.04-.04Z"/>
      <path class="cls-38" d="M10.15,6.11s.02-.04.04-.04.04.02.04.04-.02.04-.04.04-.04-.02-.04-.04"/>
      <path class="cls-21" d="M10.15,6.11s.02-.04.04-.04.04.02.04.04-.02.04-.04.04-.04-.02-.04-.04h0Z"/>
      <path class="cls-38" d="M10.07,6.02s.02-.04.04-.04.04.02.04.04-.02.04-.04.04-.04-.02-.04-.04"/>
      <path class="cls-21" d="M10.07,6.02s.02-.04.04-.04.04.02.04.04-.02.04-.04.04-.04-.02-.04-.04h0Z"/>
      <path class="cls-38" d="M9.99,5.95s.02-.04.04-.04.04.02.04.04-.02.04-.04.04-.04-.02-.04-.04"/>
      <path class="cls-21" d="M9.99,5.95s.02-.04.04-.04.04.02.04.04-.02.04-.04.04-.04-.02-.04-.04h0Z"/>
      <path class="cls-38" d="M9.88,5.89s.02-.04.04-.04.04.02.04.04-.02.04-.04.04-.04-.02-.04-.04"/>
      <path class="cls-21" d="M9.88,5.89s.02-.04.04-.04.04.02.04.04-.02.04-.04.04-.04-.02-.04-.04Z"/>
      <path class="cls-38" d="M9.78,5.85s.02-.04.04-.04.04.02.04.04-.02.04-.04.04-.04-.02-.04-.04"/>
      <path class="cls-13" d="M10.07,6.52c.05-.06.08-.14.08-.22,0-.05-.01-.1-.03-.14-.07-.16-.29-.27-.55-.27-.07,0-.14,0-.2.02.01.02.02.03.04.05.05-.01.11-.02.17-.02.24,0,.44.1.5.24.02.04.02.08.02.11,0,.08-.04.16-.09.21l.09.15.05-.04-.06-.1h0Z"/>
      <path class="cls-21" d="M9.78,5.85s.02-.04.04-.04.04.02.04.04-.02.04-.04.04-.04-.02-.04-.04h0Z"/>
      <path class="cls-38" d="M9.66,5.83s.02-.04.04-.04.04.02.04.04-.02.04-.04.04-.04-.02-.04-.04"/>
      <path class="cls-21" d="M9.66,5.83s.02-.04.04-.04.04.02.04.04-.02.04-.04.04-.04-.02-.04-.04h0Z"/>
      <path class="cls-38" d="M9.54,5.82s.02-.04.04-.04.04.02.04.04-.02.04-.04.04-.04-.02-.04-.04"/>
      <path class="cls-21" d="M9.54,5.82s.02-.04.04-.04.04.02.04.04-.02.04-.04.04-.04-.02-.04-.04h0Z"/>
      <path class="cls-38" d="M9.43,5.82s.02-.04.04-.04.04.02.04.04-.02.04-.04.04-.04-.02-.04-.04"/>
      <path class="cls-21" d="M9.43,5.82s.02-.04.04-.04.04.02.04.04-.02.04-.04.04-.04-.02-.04-.04Z"/>
      <path class="cls-38" d="M9.32,5.82s.02-.04.04-.04.04.02.04.04-.02.04-.04.04-.04-.02-.04-.04"/>
      <g>
        <path class="cls-21" d="M9.32,5.82s.02-.04.04-.04.04.02.04.04-.02.04-.04.04-.04-.02-.04-.04Z"/>
        <path class="cls-28" d="M9.38,5.93s.02-.04.04-.04.04.02.04.04-.02.04-.04.04-.04-.02-.04-.04M9.4,6.04s.02-.04.04-.04.04.02.04.04-.02.04-.04.04-.04-.02-.04-.04M9.4,6.16s.02-.04.04-.04.04.02.04.04-.02.04-.04.04-.04-.02-.04-.04M9.37,6.26s.02-.04.04-.04.04.02.04.04-.02.04-.04.04-.04-.02-.04-.04M9.31,6.36s.02-.04.04-.04.04.02.04.04-.02.04-.04.04-.04-.02-.04-.04"/>
      </g>
      <path class="cls-38" d="M9.24,5.75s.02-.04.04-.04.04.02.04.04-.02.04-.04.04-.04-.02-.04-.04"/>
      <path class="cls-21" d="M9.24,5.75s.02-.04.04-.04.04.02.04.04-.02.04-.04.04-.04-.02-.04-.04h0Z"/>
      <path class="cls-38" d="M9.14,5.69s.02-.04.04-.04.04.02.04.04-.02.04-.04.04-.04-.02-.04-.04"/>
      <path class="cls-21" d="M9.14,5.69s.02-.04.04-.04.04.02.04.04-.02.04-.04.04-.04-.02-.04-.04Z"/>
      <path class="cls-38" d="M9.03,5.66s.02-.04.04-.04.04.02.04.04-.02.04-.04.04-.04-.02-.04-.04"/>
      <path class="cls-21" d="M9.03,5.66s.02-.04.04-.04.04.02.04.04-.02.04-.04.04-.04-.02-.04-.04h0Z"/>
      <path class="cls-38" d="M8.92,5.63s.02-.04.04-.04.04.02.04.04-.02.04-.04.04-.04-.02-.04-.04"/>
      <path class="cls-21" d="M8.92,5.63s.02-.04.04-.04.04.02.04.04-.02.04-.04.04-.04-.02-.04-.04h0Z"/>
      <path class="cls-38" d="M8.81,5.64s.02-.04.04-.04.04.02.04.04-.02.04-.04.04-.04-.02-.04-.04"/>
      <path class="cls-21" d="M8.81,5.64s.02-.04.04-.04.04.02.04.04-.02.04-.04.04-.04-.02-.04-.04h0Z"/>
      <path class="cls-38" d="M8.69,5.66s.02-.04.04-.04.04.02.04.04-.02.04-.04.04-.04-.02-.04-.04"/>
      <path class="cls-21" d="M8.69,5.66s.02-.04.04-.04.04.02.04.04-.02.04-.04.04-.04-.02-.04-.04h0Z"/>
      <path class="cls-38" d="M8.58,5.7s.02-.04.04-.04.04.02.04.04-.02.04-.04.04-.04-.02-.04-.04"/>
      <path class="cls-21" d="M8.58,5.7s.02-.04.04-.04.04.02.04.04-.02.04-.04.04-.04-.02-.04-.04Z"/>
      <path class="cls-38" d="M6.78,6.66s.02-.04.04-.04.04.02.04.04-.02.04-.04.04-.04-.02-.04-.04"/>
      <path class="cls-21" d="M6.78,6.66s.02-.04.04-.04.04.02.04.04-.02.04-.04.04-.04-.02-.04-.04h0Z"/>
      <path class="cls-38" d="M6.73,6.56s.02-.04.04-.04.04.02.04.04-.02.04-.04.04-.04-.02-.04-.04"/>
      <path class="cls-21" d="M6.73,6.56s.02-.04.04-.04.04.02.04.04-.02.04-.04.04-.04-.02-.04-.04h0Z"/>
      <path class="cls-38" d="M6.69,6.45s.02-.04.04-.04.04.02.04.04-.02.04-.04.04-.04-.02-.04-.04"/>
      <path class="cls-21" d="M6.69,6.45s.02-.04.04-.04.04.02.04.04-.02.04-.04.04-.04-.02-.04-.04Z"/>
      <path class="cls-38" d="M6.69,6.33s.02-.04.04-.04.04.02.04.04-.02.04-.04.04-.04-.02-.04-.04"/>
      <path class="cls-21" d="M6.69,6.33s.02-.04.04-.04.04.02.04.04-.02.04-.04.04-.04-.02-.04-.04Z"/>
      <path class="cls-38" d="M6.72,6.22s.02-.04.04-.04.04.02.04.04-.02.04-.04.04-.04-.02-.04-.04"/>
      <path class="cls-21" d="M6.72,6.22s.02-.04.04-.04.04.02.04.04-.02.04-.04.04-.04-.02-.04-.04h0Z"/>
      <path class="cls-38" d="M6.77,6.11s.02-.04.04-.04.04.02.04.04-.02.04-.04.04-.04-.02-.04-.04"/>
      <path class="cls-21" d="M6.77,6.11s.02-.04.04-.04.04.02.04.04-.02.04-.04.04-.04-.02-.04-.04h0Z"/>
      <path class="cls-38" d="M6.85,6.02s.02-.04.04-.04.04.02.04.04-.02.04-.04.04-.04-.02-.04-.04"/>
      <path class="cls-21" d="M6.85,6.02s.02-.04.04-.04.04.02.04.04-.02.04-.04.04-.04-.02-.04-.04Z"/>
      <path class="cls-38" d="M6.93,5.95s.02-.04.04-.04.04.02.04.04-.02.04-.04.04-.04-.02-.04-.04"/>
      <path class="cls-21" d="M6.93,5.95s.02-.04.04-.04.04.02.04.04-.02.04-.04.04-.04-.02-.04-.04h0Z"/>
      <path class="cls-38" d="M7.03,5.89s.02-.04.04-.04.04.02.04.04-.02.04-.04.04-.04-.02-.04-.04"/>
      <path class="cls-21" d="M7.03,5.89s.02-.04.04-.04.04.02.04.04-.02.04-.04.04-.04-.02-.04-.04Z"/>
      <path class="cls-38" d="M7.14,5.85s.02-.04.04-.04.04.02.04.04-.02.04-.04.04-.04-.02-.04-.04"/>
      <path class="cls-21" d="M7.14,5.85s.02-.04.04-.04.04.02.04.04-.02.04-.04.04-.04-.02-.04-.04Z"/>
      <path class="cls-38" d="M7.26,5.83s.02-.04.04-.04.04.02.04.04-.02.04-.04.04-.04-.02-.04-.04"/>
      <path class="cls-21" d="M7.26,5.83s.02-.04.04-.04.04.02.04.04-.02.04-.04.04-.04-.02-.04-.04Z"/>
      <path class="cls-38" d="M7.37,5.82s.02-.04.04-.04.04.02.04.04-.02.04-.04.04-.04-.02-.04-.04"/>
      <path class="cls-21" d="M7.37,5.82s.02-.04.04-.04.04.02.04.04-.02.04-.04.04-.04-.02-.04-.04h0Z"/>
      <path class="cls-38" d="M7.48,5.82s.02-.04.04-.04.04.02.04.04-.02.04-.04.04-.04-.02-.04-.04"/>
      <path class="cls-21" d="M7.49,5.82s.02-.04.04-.04.04.02.04.04-.02.04-.04.04-.04-.02-.04-.04Z"/>
      <path class="cls-38" d="M7.6,5.82s.02-.04.04-.04.04.02.04.04-.02.04-.04.04-.04-.02-.04-.04"/>
      <g>
        <path class="cls-21" d="M7.6,5.82s.02-.04.04-.04.04.02.04.04-.02.04-.04.04-.04-.02-.04-.04h0Z"/>
        <path class="cls-13" d="M7.68,6.4c-.09-.07-.14-.17-.14-.27,0-.12.07-.23.18-.3-.07.06-.11.14-.12.22,0,.01,0,.02,0,.03,0,.1.04.19.11.25l-.03.07"/>
        <path class="cls-28" d="M7.54,5.93s.02-.04.04-.04.04.02.04.04-.02.04-.04.04-.04-.02-.04-.04M7.52,6.04s.02-.04.04-.04.04.02.04.04-.02.04-.04.04-.04-.02-.04-.04M7.51,6.16s.02-.04.04-.04.04.02.04.04-.02.04-.04.04-.04-.02-.04-.04M7.55,6.26s.02-.04.04-.04.04.02.04.04-.02.04-.04.04-.04-.02-.04-.04M7.61,6.36s.02-.04.04-.04.04.02.04.04-.02.04-.04.04-.04-.02-.04-.04"/>
      </g>
      <path class="cls-38" d="M7.68,5.75s.02-.04.04-.04.04.02.04.04-.02.04-.04.04-.04-.02-.04-.04"/>
      <path class="cls-21" d="M7.68,5.75s.02-.04.04-.04.04.02.04.04-.02.04-.04.04-.04-.02-.04-.04Z"/>
      <path class="cls-38" d="M7.78,5.69s.02-.04.04-.04.04.02.04.04-.02.04-.04.04-.04-.02-.04-.04"/>
      <path class="cls-21" d="M7.78,5.69s.02-.04.04-.04.04.02.04.04-.02.04-.04.04-.04-.02-.04-.04Z"/>
      <path class="cls-38" d="M7.89,5.66s.02-.04.04-.04.04.02.04.04-.02.04-.04.04-.04-.02-.04-.04"/>
      <path class="cls-21" d="M7.89,5.66s.02-.04.04-.04.04.02.04.04-.02.04-.04.04-.04-.02-.04-.04h0Z"/>
      <path class="cls-38" d="M8,5.63s.02-.04.04-.04.04.02.04.04-.02.04-.04.04-.04-.02-.04-.04"/>
      <path class="cls-21" d="M8,5.63s.02-.04.04-.04.04.02.04.04-.02.04-.04.04-.04-.02-.04-.04h0Z"/>
      <path class="cls-38" d="M8.11,5.64s.02-.04.04-.04.04.02.04.04-.02.04-.04.04-.04-.02-.04-.04"/>
      <path class="cls-21" d="M8.11,5.64s.02-.04.04-.04.04.02.04.04-.02.04-.04.04-.04-.02-.04-.04Z"/>
      <path class="cls-38" d="M8.23,5.66s.02-.04.04-.04.04.02.04.04-.02.04-.04.04-.04-.02-.04-.04"/>
      <path class="cls-21" d="M8.23,5.66s.02-.04.04-.04.04.02.04.04-.02.04-.04.04-.04-.02-.04-.04h0Z"/>
      <path class="cls-38" d="M8.33,5.7s.02-.04.04-.04.04.02.04.04-.02.04-.04.04-.04-.02-.04-.04"/>
      <g>
        <path class="cls-21" d="M8.33,5.7s.02-.04.04-.04.04.02.04.04-.02.04-.04.04-.04-.02-.04-.04Z"/>
        <path class="cls-13" d="M7.01,6c-.06.04-.11.1-.14.16-.02.04-.03.09-.03.14,0,.08.03.16.08.22l-.05.09c-.05-.07-.08-.15-.08-.24,0-.15.09-.28.22-.37h0ZM9.98,6c.06.04.11.1.14.16.02.04.03.09.03.14,0,.08-.03.16-.08.22l.05.09c.05-.07.08-.15.08-.24,0-.15-.09-.28-.22-.37Z"/>
      </g>
      <path class="cls-34" d="M10.96,7.44s-.02.03-.04.03c-.02,0-.04-.02-.04-.02,0,0-.02.02-.04.02-.02,0-.05-.02-.05-.02,0,0-.02.03-.04.04-.02,0-.04,0-.04,0,0,0,0,.01-.02.02,0,0-.02,0-.02,0h-.02s-.02-.04-.02-.04h-.02s0-.04-.01-.05v-.02s.03-.05.07-.06c.03,0,.05,0,.07,0,.02-.02.06-.03.11-.03.04,0,.08,0,.1.03.02-.02.06-.03.1-.03.05,0,.09.01.11.03.02,0,.04,0,.07,0,.05.01.08.04.08.06,0,0,0,.01,0,.02,0,0-.01.04-.01.04h-.02s-.02.03-.02.03h-.02s0,.02-.02.02c-.01,0-.02-.02-.02-.02,0,0-.02.02-.04,0-.02,0-.04-.04-.04-.04,0,0-.03.03-.05.02-.02,0-.04-.02-.04-.02,0,0-.02.02-.04.02-.02,0-.04-.03-.04-.03"/>
      <g>
        <path class="cls-21" d="M10.96,7.44s-.02.03-.04.03c-.02,0-.04-.02-.04-.02,0,0-.02.02-.04.02-.02,0-.05-.02-.05-.02,0,0-.02.03-.04.04-.02,0-.04,0-.04,0,0,0,0,.01-.02.02,0,0-.02,0-.02,0h-.02s-.02-.04-.02-.04h-.02s0-.04-.01-.05c0,0,0-.02,0-.02,0-.02.03-.05.08-.06.03,0,.05,0,.07,0,.02-.02.06-.03.11-.03.04,0,.08,0,.1.02.02-.02.06-.02.1-.02.05,0,.09.01.11.03.02,0,.04,0,.07,0,.05.01.08.04.08.06,0,0,0,.01,0,.02,0,0-.01.04-.01.04h-.02s-.02.03-.02.03h-.02s0,.02-.02.02c-.01,0-.02-.02-.02-.02,0,0-.02.02-.04,0-.02,0-.04-.04-.04-.04,0,0-.03.03-.05.02-.02,0-.04-.02-.04-.02,0,0-.02.02-.04.02-.02,0-.04-.03-.04-.03h0Z"/>
        <g>
          <path class="cls-13" d="M10.92,7.29s.02-.07.05-.07.05.03.05.07-.02.07-.05.07-.05-.03-.05-.07Z"/>
          <path class="cls-13" d="M10.94,7.29s0-.06.02-.06.02.03.02.06,0,.06-.02.06-.02-.03-.02-.06Z"/>
        </g>
      </g>
      <g>
        <path class="cls-32" d="M10.73,7.57s-.02-.04-.02-.04c.06-.02.15-.03.25-.03.1,0,.19.01.25.03l-.02.03s-.01.03-.01.03c-.06-.02-.13-.03-.22-.03-.09,0-.18.01-.23.03,0,0,0-.01,0-.02h0Z"/>
        <path class="cls-21" d="M10.73,7.57s-.02-.04-.02-.04c.06-.02.15-.03.25-.03.1,0,.19.01.25.03,0,0,0,.01-.02.03,0,0,0,.01-.01.03-.06-.02-.13-.03-.22-.03-.09,0-.18.01-.23.03,0,0,0-.01,0-.02h0"/>
        <path class="cls-37" d="M10.96,7.66c.08,0,.17-.01.2-.02.02,0,.03-.02.03-.03,0,0,0-.01-.01-.01-.05-.02-.13-.03-.22-.03-.09,0-.17.01-.22.03,0,0-.01,0-.01.01,0,.01.01.02.03.03.03,0,.12.02.2.02"/>
      </g>
      <g>
        <path class="cls-13" d="M10.96,7.66c.08,0,.17-.01.2-.02.02,0,.03-.02.03-.03,0,0,0-.01-.01-.01-.05-.02-.13-.03-.22-.03-.09,0-.17.01-.22.03,0,0-.01,0-.01.01,0,.01.01.02.03.03.03,0,.12.02.2.02h0Z"/>
        <path class="cls-16" d="M11.16,7.32s0-.02.01-.02.01,0,.01.02,0,.02-.01.02-.01,0-.01-.02M11.15,7.26s0-.02.01-.02.01,0,.01.02,0,.02-.01.02-.01,0-.01-.02h0ZM11.11,7.23s0-.02.01-.02.01,0,.01.02,0,.02-.01.02-.01,0-.01-.02ZM11.07,7.21s0-.02.01-.02.01,0,.01.02,0,.02-.01.02-.01,0-.01-.02ZM11.02,7.21s0-.02.01-.02.01,0,.01.02,0,.02-.01.02-.01,0-.01-.02Z"/>
        <path class="cls-2" d="M11.31,7.42s0-.02,0-.04c0-.06-.04-.1-.09-.1-.02,0-.03,0-.05.01"/>
        <path class="cls-21" d="M11.14,7.35s0-.02,0-.03c0-.04-.04-.07-.09-.07-.02,0-.04,0-.05.02"/>
        <path class="cls-16" d="M11.32,7.37s0-.02.01-.02.01,0,.01.02,0,.02-.01.02-.01,0-.01-.02ZM11.31,7.32s0-.02.01-.02.01,0,.01.02,0,.02-.01.02-.01,0-.01-.02ZM11.28,7.27s0-.02.01-.02.01,0,.01.02,0,.02-.01.02-.01,0-.01-.02ZM11.24,7.25s0-.02.01-.02.01,0,.01.02,0,.02-.01.02-.01,0-.01-.02h0ZM11.19,7.25s0-.02.01-.02.01,0,.01.02,0,.02-.01.02-.01,0-.01-.02Z"/>
      </g>
      <path class="cls-32" d="M11.22,7.5l-.02-.02s-.02.01-.04,0c-.02,0-.03-.03-.03-.03,0,0-.03.02-.05.02-.02,0-.04-.02-.04-.02,0,0-.02.02-.04.02-.02,0-.04-.03-.04-.03,0,0-.02.03-.04.03-.02,0-.04-.02-.04-.02,0,0,0,.02-.04.03-.03,0-.05-.02-.05-.02,0,0-.01.03-.03.03-.02,0-.04,0-.04,0,0,0,0,0,0,.02s-.01,0-.01,0v.02c.07-.02.16-.03.25-.03.1,0,.19.01.25.03v-.02"/>
      <g>
        <path class="cls-21" d="M11.22,7.5l-.02-.02s-.02.01-.04,0c-.02,0-.03-.03-.03-.03,0,0-.03.02-.05.02-.02,0-.04-.02-.04-.02,0,0-.02.02-.04.02-.02,0-.04-.03-.04-.03,0,0-.02.03-.04.03-.02,0-.04-.02-.04-.02,0,0,0,.02-.04.03-.03,0-.05-.02-.05-.02,0,0-.01.03-.03.03-.02,0-.04,0-.04,0,0,0,0,0,0,.02,0,0-.01,0-.01,0v.02c.07-.02.16-.03.25-.03.1,0,.19.01.25.03v-.02s0,0,0,0Z"/>
        <path class="cls-16" d="M10.74,7.32s0-.02.01-.02.01,0,.01.02,0,.02-.01.02-.01,0-.01-.02h0ZM10.75,7.26s0-.02.01-.02.01,0,.01.02,0,.02-.01.02-.01,0-.01-.02ZM10.78,7.23s0-.02.01-.02.01,0,.01.02,0,.02-.01.02-.01,0-.01-.02ZM10.83,7.21s0-.02.01-.02.01,0,.01.02,0,.02-.01.02-.01,0-.01-.02ZM10.88,7.21s0-.02.01-.02.01,0,.01.02,0,.02-.01.02-.01,0-.01-.02Z"/>
        <path class="cls-2" d="M10.62,7.42s0-.02,0-.04c0-.06.04-.1.09-.1.02,0,.03,0,.05.01"/>
        <path class="cls-21" d="M10.79,7.35s0-.02,0-.03c0-.04.04-.07.09-.07.02,0,.04,0,.05.02"/>
        <path class="cls-16" d="M10.58,7.37s0-.02.01-.02.01,0,.01.02,0,.02-.01.02-.01,0-.01-.02ZM10.58,7.32s0-.02.01-.02.01,0,.01.02,0,.02-.01.02-.01,0-.01-.02ZM10.62,7.27s0-.02.01-.02.01,0,.01.02,0,.02-.01.02-.01,0-.01-.02h0ZM10.66,7.25s0-.02.01-.02.01,0,.01.02,0,.02-.01.02-.01,0-.01-.02h0ZM10.71,7.25s0-.02.01-.02.01,0,.01.02,0,.02-.01.02-.01,0-.01-.02h0Z"/>
        <path class="cls-13" d="M10.96,7.4h0s0,.01,0,.02c0,.02.02.04.04.04.02,0,.03-.01.03-.03,0,0,0-.01,0-.01,0,0,0,.01,0,.01,0,.02.02.03.04.03.02,0,.04-.02.04-.04,0,0,0,0,0,0h.01s0,0,0,0c0,0,0,.01,0,.02,0,.02.02.04.04.04.01,0,.02,0,.03-.02h0s0,0,0,0c0,.01,0,.02.02.03,0,0,.01,0,.03-.01.02-.01.03-.03.03-.03v.02s-.02.03-.03.04c0,0-.02.01-.03,0-.01,0-.02-.01-.02-.02,0,0-.02,0-.03,0-.02,0-.04-.01-.05-.03,0,.01-.02.02-.04.02-.02,0-.03,0-.04-.02,0,0-.02.02-.04.02-.02,0-.03,0-.04-.02,0,.01-.03.02-.04.02-.01,0-.03,0-.04-.02,0,.01-.02.02-.04.02-.02,0-.03,0-.04-.02,0,.02-.03.03-.05.03,0,0-.02,0-.03,0,0,.01-.01.02-.02.02-.01,0-.02,0-.03,0-.02,0-.03-.04-.03-.04v-.02s.01.01.03.03c.02.01.03.01.03.01.01,0,.02-.01.02-.03h0s0,0,0,0c0,.01.02.02.03.02.02,0,.04-.02.04-.04,0,0,0-.01,0-.02v-.02s.02.01.02.01c0,0,0,0,0,0,0,.02.02.04.04.04.02,0,.03-.01.04-.03,0,0,0-.01,0-.01,0,0,0,.01,0,.01,0,.02.02.03.03.03.02,0,.04-.02.04-.04,0,0,0,0,0-.01h0s0,0,0,0h0Z"/>
      </g>
      <g>
        <path class="cls-37" d="M10.96,7.5c-.1,0-.19.01-.25.03,0,0,0,0-.01,0,0,0,0,0,0-.01.06-.02.16-.04.26-.04.1,0,.19.01.26.04,0,0,0,0,0,.01,0,0,0,0-.01,0-.06-.02-.15-.03-.25-.03"/>
        <path class="cls-13" d="M10.96,7.5c-.1,0-.19.01-.25.03,0,0,0,0-.01,0,0,0,0,0,0-.01.06-.02.16-.03.26-.04.1,0,.19.01.26.04,0,0,0,0,0,.01,0,0,0,0-.01,0-.06-.02-.15-.03-.25-.03h0Z"/>
        <path class="cls-38" d="M10.87,7.54s0-.01.01-.01c0,0,.01,0,.01.01,0,0,0,.01-.01.01,0,0-.01,0-.01-.01,0,0,0,0,0,0"/>
        <path class="cls-16" d="M10.87,7.54s0-.01.01-.01.01,0,.01.01,0,.01-.01.01-.01,0-.01-.01h0Z"/>
        <path class="cls-34" d="M10.97,7.55h-.03s-.01,0-.01-.01c0,0,0-.01.01-.01h.06s.01,0,.01.01,0,.01-.01.01h-.03Z"/>
        <path class="cls-21" d="M10.97,7.55h-.03s-.01,0-.01-.01,0-.01.01-.01h.06s.01,0,.01.01,0,.01-.01.01h-.03Z"/>
        <path class="cls-39" d="M10.81,7.56h-.02s-.01,0-.01,0c0,0,0,0,0,0,0,0,0-.01,0-.01h.02s.02,0,.02,0c0,0,.01,0,.01,0,0,0,0,.01,0,.01h-.02Z"/>
        <path class="cls-21" d="M10.81,7.56h-.02s-.01,0-.01,0c0,0,0-.01,0-.01,0,0,0,0,0,0h.02s.02,0,.02,0c0,0,.01,0,.01,0,0,0,0,.01,0,.01h-.02Z"/>
        <path class="cls-34" d="M10.71,7.58v-.02s.03,0,.03,0v.02s-.03,0-.03,0Z"/>
        <path class="cls-21" d="M10.71,7.58v-.02s.03,0,.03,0v.02s-.03,0-.03,0Z"/>
        <path class="cls-38" d="M11.03,7.54s0-.01.01-.01.01,0,.01.01c0,0,0,.01-.01.01h0s-.01,0-.01-.01h0"/>
        <path class="cls-16" d="M11.03,7.54s0-.01.01-.01.01,0,.01.01,0,.01-.01.01-.01,0-.01-.01h0Z"/>
        <path class="cls-39" d="M11.12,7.56h.02s.01,0,.01,0c0,0,0-.01,0-.01h-.02s-.02,0-.02,0c0,0-.01,0-.01,0,0,0,0,.01,0,.01h.02Z"/>
        <path class="cls-21" d="M11.12,7.56h.02s.01,0,.01,0c0,0,0-.01,0-.01,0,0,0,0,0,0h-.02s-.02,0-.02,0c0,0-.01,0-.01,0,0,0,0,.01,0,.01h.02Z"/>
        <path class="cls-34" d="M11.21,7.58v-.02s-.03,0-.03,0v.02s.03,0,.03,0Z"/>
        <path class="cls-21" d="M11.21,7.58v-.02s-.03,0-.03,0v.02s.02,0,.03,0h0Z"/>
        <path class="cls-34" d="M10.96,7.64c-.08,0-.15,0-.21-.02.06-.02.13-.03.21-.03.08,0,.15,0,.21.03-.06.02-.13.02-.21.02"/>
        <path class="cls-30" d="M10.96,7.64c-.08,0-.15,0-.21-.02.06-.02.13-.02.21-.03.08,0,.15,0,.21.03-.06.02-.13.02-.21.02Z"/>
        <path class="cls-37" d="M11.22,7.45s0-.01,0-.02c0,0,0,0-.01,0,0,0,0,.01,0,.02,0,0,0,0,.01,0"/>
        <path class="cls-16" d="M11.22,7.45s0-.01,0-.02c0,0,0,0-.01,0,0,0,0,.01,0,.02,0,0,0,0,.01,0Z"/>
        <path class="cls-37" d="M11.06,7.42s0-.01,0-.01c0,0,0,0,0,.01,0,0,0,.01,0,.01,0,0,0,0,.01-.01"/>
        <path class="cls-16" d="M11.06,7.42s0-.01,0-.01c0,0,0,0,0,.01,0,0,0,.01,0,.01,0,0,0,0,0-.01Z"/>
        <path class="cls-37" d="M10.87,7.42s0-.01,0-.01c0,0,0,0,.01.01,0,0,0,.01,0,.01,0,0,0,0-.01-.01"/>
        <path class="cls-16" d="M10.87,7.42s0-.01,0-.01c0,0,0,0,.01.01,0,0,0,.01,0,.01,0,0,0,0,0-.01h0Z"/>
        <path class="cls-37" d="M10.71,7.45s0-.01,0-.02c0,0,0,0,.01,0,0,0,0,.01,0,.02,0,0,0,0-.01,0"/>
      </g>
      <g>
        <path class="cls-16" d="M10.71,7.45s0-.01,0-.02c0,0,0,0,.01,0,0,0,0,.01,0,.02,0,0,0,0-.01,0h0Z"/>
        <g>
          <path class="cls-13" d="M10.96,7.32l-.03.02.02.05h0s0,0,0,0l.02-.05s-.02-.01-.03-.02Z"/>
          <path class="cls-13" d="M10.9,7.39v.02s.06-.01.06-.01h0s0-.01,0-.01h-.04s0,0-.01,0ZM11.03,7.39v.02s-.06-.01-.06-.01h0s0-.01,0-.01h.04s0,0,.01,0ZM10.78,7.34l-.02.02.03.04h0s0,0,0,0v-.05s0,0-.02-.01h0Z"/>
          <path class="cls-13" d="M10.73,7.42l.02.02.04-.02h0s0-.01,0-.01h-.05s0,.01,0,.02h0ZM10.86,7.4v.02s-.05,0-.05,0h0s0-.01,0-.01l.04-.02s.01.01.02.02ZM10.69,7.43v.02s-.05,0-.05,0h0s0-.01,0-.01l.03-.03s.01,0,.02.01h0Z"/>
        </g>
      </g>
      <path class="cls-37" d="M10.78,7.41s0-.02.02-.02.02,0,.02.02,0,.02-.02.02c0,0-.02,0-.02-.02"/>
      <g>
        <path class="cls-26" d="M10.78,7.41s0-.02.02-.02.02,0,.02.02,0,.02-.02.02-.02,0-.02-.02Z"/>
        <g>
          <path class="cls-13" d="M11.15,7.34l.02.02-.03.04h0s0,0,0,0v-.05s0,0,.02-.01Z"/>
          <path class="cls-13" d="M11.2,7.42l-.02.02-.04-.02h0s0-.01,0-.01h.05s0,.01,0,.02h0ZM11.07,7.4v.02s.05,0,.05,0h0s0-.01,0-.01l-.04-.02s-.01.01-.02.02h0Z"/>
        </g>
      </g>
      <g>
        <path class="cls-37" d="M11.23,7.43v.02s.05,0,.05,0h0s0-.01,0-.01l-.03-.03h-.02Z"/>
        <path class="cls-13" d="M11.23,7.43v.02s.05,0,.05,0h0s0-.01,0-.01l-.03-.03s-.01,0-.02.01h0Z"/>
        <path class="cls-37" d="M10.95,7.39s0-.02.02-.02c0,0,0,0,0,0,0,0,.02,0,.02.02s0,.02-.02.02c0,0-.02,0-.02-.02,0,0,0,0,0,0"/>
        <path class="cls-26" d="M10.95,7.39s0-.02.02-.02.02,0,.02.02,0,.02-.02.02-.02,0-.02-.02Z"/>
        <path class="cls-37" d="M11.12,7.41s0-.02.02-.02.02,0,.02.02,0,.02-.02.02c0,0-.02,0-.02-.02"/>
        <path class="cls-26" d="M11.12,7.41s0-.02.02-.02.02,0,.02.02,0,.02-.02.02-.02,0-.02-.02Z"/>
        <path class="cls-37" d="M10.99,7.19v.02h-.05v-.02h.02v-.05h-.02v-.02h.02v-.02h.02v.02h.02v.02h-.02v.05h.01"/>
      </g>
      <g>
        <path class="cls-21" d="M10.99,7.19v.02h-.05v-.02h.02v-.05h-.02v-.02h.02v-.02h.02v.02h.02v.02h-.02v.05h.01Z"/>
        <path class="cls-8" d="M10.98,7.16s.03.02.03.04c0,.02-.02.04-.04.04s-.04-.02-.04-.04c0-.02.01-.04.03-.04"/>
        <path class="cls-13" d="M10.63,7.46s-.01-.02-.02-.02c0,0-.02-.01-.02-.01,0,0,0-.01.02-.01,0,0,.01,0,.01,0h0s0,0,.01,0c0,.01,0,.03,0,.03,0,0,0,0,0,0h0Z"/>
        <path class="cls-26" d="M10.63,7.45s.01,0,.02,0c0,0,0,.01,0,.02,0,0-.01,0-.02,0,0,0,0-.01,0-.02h0Z"/>
      </g>
      <g>
        <path class="cls-37" d="M11.3,7.46s.01-.02.02-.03c0,0,.02-.01.02-.01,0,0,0-.01-.02-.01,0,0-.01,0-.01,0h0s0,0-.01,0c0,.01,0,.03,0,.03,0,0,0,0,0,.01"/>
        <path class="cls-13" d="M11.3,7.46s.01-.02.02-.03c0,0,.02-.01.02-.01,0,0,0-.01-.02-.01,0,0-.01,0-.01,0h0s0,0-.01,0c0,.01,0,.03,0,.03,0,0,0,0,0,.01h0Z"/>
        <path class="cls-37" d="M11.3,7.45s-.01,0-.02,0c0,0,0,.01,0,.02,0,0,.01,0,.02,0,0,0,0-.01,0-.02"/>
      </g>
      <g>
        <path class="cls-26" d="M11.3,7.45s-.01,0-.02,0c0,0,0,.01,0,.02,0,0,.01,0,.02,0,0,0,0-.01,0-.02h0Z"/>
        <path class="cls-13" d="M11.01,7.19v.02h-.08v-.02h.03v-.05h-.02v-.02h.02v-.02h.02v.02h.02v.02h-.02v.05h.03Z"/>
        <g>
          <path class="cls-21" d="M10.96,7.64v-.05M10.95,7.64v-.05"/>
          <path class="cls-21" d="M10.94,7.64v-.05M10.93,7.64v-.05M10.92,7.64v-.05M10.9,7.64v-.04M10.91,7.64v-.04"/>
          <path class="cls-21" d="M10.89,7.64v-.04M10.9,7.64v-.04M10.86,7.64v-.03M10.87,7.64v-.04M10.88,7.64v-.04"/>
          <path class="cls-21" d="M10.86,7.64v-.03M10.85,7.64v-.04M10.84,7.64v-.03M10.83,7.63v-.03M10.83,7.64v-.03"/>
          <path class="cls-21" d="M10.82,7.63v-.03M10.81,7.63v-.02M10.8,7.63v-.02M10.79,7.63v-.02M10.78,7.63h0"/>
          <path class="cls-21" d="M11.01,7.64v-.04M10.99,7.64v-.04M10.98,7.64v-.04"/>
        </g>
      </g>
      <path class="cls-35" d="M10.59,7.87h.73v-.21h-.73v.21Z"/>
      <path class="cls-13" d="M10.59,7.87h.73v-.21h-.73v.21Z"/>
      <path class="cls-35" d="M11.25,8.01s0,0-.01,0h-.55s-.01,0-.02,0c.02,0,.03-.03.03-.05s-.01-.04-.03-.05c0,0,.01,0,.02,0h.55s.01,0,.02,0h0s-.03.03-.03.05.01.04.03.05"/>
      <path class="cls-1" d="M11.25,8.01s0,0-.01,0h-.55s-.01,0-.02,0c.02,0,.03-.03.03-.05s-.01-.04-.03-.05c0,0,.01,0,.02,0h.55s.01,0,.02,0h0s-.03.03-.03.05.01.04.03.05h0Z"/>
      <path class="cls-35" d="M10.69,8h.55s.03.01.03.03-.02.03-.03.03h-.55s-.03-.01-.03-.03.02-.03.03-.03"/>
      <path class="cls-13" d="M10.69,8.01h.55s.03.01.03.03-.02.03-.03.03h-.55s-.03-.01-.03-.03.02-.03.03-.03Z"/>
      <path class="cls-35" d="M10.69,7.87h.55s.03.01.03.02-.02.02-.03.02h-.55s-.03-.01-.03-.02.02-.02.03-.02"/>
      <path class="cls-13" d="M10.69,7.87h.55s.03.01.03.02-.02.02-.03.02h-.55s-.03-.01-.03-.02.02-.02.03-.02h0Z"/>
      <path class="cls-35" d="M11.25,11.04s0,.01,0,.02c0,.05.04.09.09.09h-.76c.05,0,.09-.04.09-.09,0,0,0-.01,0-.02,0,0,0,0,.01,0h.55s0,0,.01,0"/>
      <path class="cls-1" d="M11.25,11.04s0,.01,0,.02c0,.05.04.09.09.09h-.76c.05,0,.09-.04.09-.09,0,0,0-.01,0-.02,0,0,0,0,.01,0h.55s0,0,.01,0h0,0Z"/>
      <path class="cls-35" d="M10.69,10.99h.55s.03.01.03.03-.02.03-.03.03h-.55s-.03-.01-.03-.03.02-.03.03-.03"/>
      <path class="cls-13" d="M10.69,10.99h.55s.03.01.03.03-.02.03-.03.03h-.55s-.03-.01-.03-.03.02-.03.03-.03h0Z"/>
      <path class="cls-35" d="M10.59,11.37h.75v-.21h-.75v.21Z"/>
      <path class="cls-13" d="M10.59,11.37h.75v-.21h-.75v.21Z"/>
      <path class="cls-36" d="M11.4,10.25c.07.05.13.1.12.12,0,.02-.03.04-.06.06-.05.04-.09.11-.06.15-.05-.04-.07-.1-.07-.16,0-.07.03-.13.08-.17"/>
      <path class="cls-26" d="M11.4,10.25c.07.05.13.1.12.12,0,.02-.03.04-.06.06-.05.04-.09.11-.06.15-.04-.04-.07-.1-.07-.16s.03-.13.08-.17h0Z"/>
      <path class="cls-42" d="M10.7,10.96h.54v-2.86h-.54v2.86Z"/>
      <path class="cls-21" d="M11.08,8.09v2.86M11.14,8.09v2.86M10.7,10.96h.54v-2.86h-.54v2.86Z"/>
      <path class="cls-36" d="M10.15,9.16c.12-.05.32-.09.54-.1.08,0,.17,0,.26.03.32.06.56.2.55.31,0,0,0,0,0,0,0,0,.12-.3.12-.31.02-.13-.25-.28-.6-.35-.1-.02-.21-.03-.32-.03-.23,0-.43.03-.54.08v.35Z"/>
      <path class="cls-14" d="M10.15,9.16c.12-.05.32-.09.54-.1.08,0,.17,0,.26.03.32.06.56.2.55.31,0,0,0,0,0,0,0,0,.12-.3.12-.31.02-.13-.25-.28-.6-.35-.11-.02-.22-.03-.32-.03-.23,0-.43.03-.54.08v.35"/>
      <path class="cls-36" d="M11.23,9.52c.15-.01.25-.05.26-.12,0-.05-.04-.11-.13-.17-.04,0-.09.01-.13.01v.28Z"/>
      <path class="cls-26" d="M11.23,9.52c.15-.01.25-.05.26-.12,0-.05-.04-.11-.13-.17-.04,0-.09.01-.13.01v.28"/>
      <path class="cls-36" d="M10.69,9.31c-.09.02-.16.04-.2.07h0s.07.12.2.21v-.28Z"/>
      <path class="cls-26" d="M10.69,9.31c-.09.02-.16.04-.2.07h0s.06.12.2.21v-.28Z"/>
      <path class="cls-34" d="M11.57,10.08s-.13-.14-.34-.22c-.09-.04-.17-.07-.27-.12-.28-.14-.49-.29-.47-.35h0s-.04.29-.04.29c-.03.05.17.21.43.34.08.04.26.11.34.15.15.06.3.16.28.2l.05-.29"/>
      <g>
        <path class="cls-30" d="M11.57,10.08s-.13-.14-.34-.22c-.09-.04-.17-.07-.27-.12-.28-.14-.49-.29-.47-.35h0s-.04.29-.04.29c-.03.05.17.21.43.34.08.04.26.11.34.15.15.06.3.16.28.2l.05-.29h0Z"/>
        <path class="cls-13" d="M10.48,9.04c.02-.08.05-.16.07-.25,0,0-.01,0-.02,0,0,0-.01,0-.02,0-.01.06-.03.12-.05.18-.03-.05-.07-.1-.09-.15-.01,0-.02,0-.03,0-.01,0-.02,0-.03,0,.05.07.09.14.14.21,0,0,.01,0,.02,0,0,0,.01,0,.02,0M10.69,8.79s-.02,0-.03,0c0,0-.02,0-.03,0v.23s.14,0,.14,0c0,0,0,0,0-.01,0,0,0,0,0-.01-.03,0-.06,0-.09,0v-.21M10.92,8.83s.05,0,.07.01c0,0,0,0,0-.01,0,0,0,0,0-.01l-.2-.02s0,0,0,.01c0,0,0,0,0,.01.02,0,.05,0,.07,0l-.02.21s.02,0,.03,0c0,0,.02,0,.03,0l.02-.21M11,9.06s.02,0,.03,0c0,0,.02,0,.03,0l.02-.11h0s.01.03.02.04l.03.08s.02,0,.03,0c.01,0,.02,0,.03,0v-.02s-.04-.07-.06-.11c.04,0,.07-.01.07-.05,0-.02,0-.04-.02-.06-.01-.01-.04-.02-.06-.02l-.08-.02-.05.23M11.1,8.86s.05,0,.05.04c0,0,0,.01,0,.02,0,.03-.03.05-.07.03l.02-.09M11.38,9.13s0,.05-.01.08c.01,0,.02,0,.03.02,0,0,.02.01.03.02l.02-.26s0,0-.01,0c0,0,0,0-.01,0l-.21.15s.01,0,.02,0c0,0,.01,0,.02.01.02-.02.04-.03.06-.05l.08.05h0ZM11.32,9.07l.07-.05v.09s-.07-.04-.07-.04Z"/>
      </g>
      <path class="cls-41" d="M10.45,11.4c.05,0,.1-.01.13-.03.03-.02.08-.03.13-.03s.1.01.13.03c.03.02.08.03.13.03s.1-.01.13-.03c.03-.02.08-.03.13-.03s.09.01.13.03c.03.02.08.03.13.03v.09c-.05,0-.1-.01-.13-.03-.03-.02-.08-.03-.13-.03s-.09.01-.13.03c-.03.02-.08.03-.13.03s-.1-.01-.13-.03c-.03-.02-.08-.03-.13-.03s-.09.01-.13.03c-.03.02-.08.03-.13.03v-.09Z"/>
      <path class="cls-6" d="M10.45,11.4c.05,0,.1-.01.13-.03.03-.02.08-.03.13-.03s.1.01.13.03c.03.02.08.03.13.03s.1-.01.13-.03c.03-.02.08-.03.13-.03s.09.01.13.03c.03.02.08.03.13.03v.09c-.05,0-.1-.01-.13-.03-.03-.02-.08-.03-.13-.03s-.09.01-.13.03c-.03.02-.08.03-.13.03s-.1-.01-.13-.03c-.03-.02-.08-.03-.13-.03s-.09.01-.13.03c-.03.02-.08.03-.13.03v-.09Z"/>
      <path class="cls-42" d="M10.45,11.49c.05,0,.1-.01.13-.03.03-.02.08-.03.13-.03s.1.01.13.03c.03.02.08.03.13.03s.1-.01.13-.03c.03-.02.08-.03.13-.03s.09.01.13.03c.03.02.08.03.13.03v.09c-.05,0-.1-.01-.13-.03-.03-.02-.08-.03-.13-.03s-.09.01-.13.03c-.03.02-.08.03-.13.03s-.1-.01-.13-.03c-.03-.02-.08-.03-.13-.03s-.09.01-.13.03c-.03.02-.08.03-.13.03v-.09Z"/>
      <path class="cls-21" d="M10.45,11.49c.05,0,.1-.01.13-.03.03-.02.08-.03.13-.03s.1.01.13.03c.03.02.08.03.13.03s.1-.01.13-.03c.03-.02.08-.03.13-.03s.09.01.13.03c.03.02.08.03.13.03v.09c-.05,0-.1-.01-.13-.03-.03-.02-.08-.03-.13-.03s-.09.01-.13.03c-.03.02-.08.03-.13.03s-.1-.01-.13-.03c-.03-.02-.08-.03-.13-.03s-.09.01-.13.03c-.03.02-.08.03-.13.03v-.09"/>
      <path class="cls-41" d="M10.45,11.57c.05,0,.1-.01.13-.03.03-.02.08-.03.13-.03s.1.01.13.03c.03.02.08.03.13.03s.1-.01.13-.03c.03-.02.08-.03.13-.03s.09.01.13.03c.03.02.08.03.13.03v.09c-.05,0-.1-.01-.13-.03-.03-.02-.08-.03-.13-.03s-.09.01-.13.03c-.03.02-.08.03-.13.03s-.1-.01-.13-.03c-.03-.02-.08-.03-.13-.03s-.09.01-.13.03c-.03.02-.08.03-.13.03v-.09Z"/>
      <path class="cls-6" d="M10.45,11.57c.05,0,.1-.01.13-.03.03-.02.08-.03.13-.03s.1.01.13.03c.03.02.08.03.13.03s.1-.01.13-.03c.03-.02.08-.03.13-.03s.09.01.13.03c.03.02.08.03.13.03v.09c-.05,0-.1-.01-.13-.03-.03-.02-.08-.03-.13-.03s-.09.01-.13.03c-.03.02-.08.03-.13.03s-.1-.01-.13-.03c-.03-.02-.08-.03-.13-.03s-.09.01-.13.03c-.03.02-.08.03-.13.03v-.09"/>
      <path class="cls-42" d="M10.45,11.75c.05,0,.1-.01.13-.03.03-.02.08-.03.13-.03s.1.01.13.03c.03.02.08.03.13.03s.1-.01.13-.03c.03-.02.08-.03.13-.03s.09.01.13.03c.03.02.08.03.13.03v-.09c-.05,0-.1-.01-.13-.03-.03-.02-.08-.03-.13-.03s-.09.01-.13.03c-.03.02-.08.03-.13.03s-.1-.01-.13-.03c-.03-.02-.08-.03-.13-.03s-.09.01-.13.03c-.03.02-.08.03-.13.03v.09Z"/>
      <path class="cls-21" d="M10.45,11.75c.05,0,.1-.01.13-.03.03-.02.08-.03.13-.03s.1.01.13.03c.03.02.08.03.13.03s.1-.01.13-.03c.03-.02.08-.03.13-.03s.09.01.13.03c.03.02.08.03.13.03v-.09c-.05,0-.1-.01-.13-.03-.03-.02-.08-.03-.13-.03s-.09.01-.13.03c-.03.02-.08.03-.13.03s-.1-.01-.13-.03c-.03-.02-.08-.03-.13-.03s-.09.01-.13.03c-.03.02-.08.03-.13.03v.09"/>
      <path class="cls-41" d="M10.45,11.83c.05,0,.1-.01.13-.03.03-.02.08-.03.13-.03s.1.01.13.03c.03.02.08.03.13.03s.1-.01.13-.03c.03-.02.08-.03.13-.03s.09.01.13.03c.03.02.08.03.13.03v-.09c-.05,0-.1-.01-.13-.03-.03-.02-.08-.03-.13-.03s-.09.01-.13.03c-.03.02-.08.03-.13.03s-.1-.01-.13-.03c-.03-.02-.08-.03-.13-.03s-.09.01-.13.03c-.03.02-.08.03-.13.03v.09Z"/>
      <path class="cls-6" d="M10.45,11.83c.05,0,.1-.01.13-.03.03-.02.08-.03.13-.03s.1.01.13.03c.03.02.08.03.13.03s.1-.01.13-.03c.03-.02.08-.03.13-.03s.09.01.13.03c.03.02.08.03.13.03v-.09c-.05,0-.1-.01-.13-.03-.03-.02-.08-.03-.13-.03s-.09.01-.13.03c-.03.02-.08.03-.13.03s-.1-.01-.13-.03c-.03-.02-.08-.03-.13-.03s-.09.01-.13.03c-.03.02-.08.03-.13.03v.09Z"/>
      <path class="cls-36" d="M5.8,7.5s-.02,0-.03,0c0,0-.04-.03-.04-.03l-.02-.02-.02-.03s-.02-.04-.01-.07c.01-.03.03-.04.05-.05.02,0,.05-.02.05-.02,0,0,.03-.01.04-.02,0,0,.04-.01.04-.01,0,0,0,0,.02,0,0,0,.02,0,.03,0,0,0,.03,0,.04,0,.02,0,.04,0,.05,0s.04,0,.05,0,.06,0,.07,0,.02,0,.04,0c.01,0,.04.01.05.02,0,0,.05.02.07.03.02,0,.06.01.08.02.02,0,.03.03.04.04,0,.01.01.03.01.04,0,0,0,.03,0,.04,0,0-.02.03-.02.03l-.02.04-.03.02s-.02.02-.03.02c-.01,0-.17-.03-.26-.03s-.25.03-.25.03"/>
      <g>
        <path class="cls-14" d="M5.8,7.5s-.02,0-.03,0c0,0-.04-.03-.04-.03l-.02-.02-.02-.03s-.02-.04-.01-.07c.01-.03.03-.04.05-.05.02,0,.05-.02.05-.02,0,0,.03-.01.04-.02,0,0,.04-.01.04-.01,0,0,0,0,.02,0,0,0,.02,0,.03,0,0,0,.03,0,.04,0,.02,0,.04,0,.05,0s.04,0,.05,0,.06,0,.07,0,.02,0,.04,0c.01,0,.04.01.05.02,0,0,.05.02.07.03.02,0,.06.01.08.02.02,0,.03.03.04.04,0,.01.01.03.01.04,0,0,0,.03,0,.04,0,0-.02.03-.02.03l-.02.04-.03.02s-.02.02-.03.02c-.01,0-.17-.03-.26-.03s-.25.03-.25.03h0Z"/>
        <g>
          <path class="cls-13" d="M6,7.27s.02-.09.05-.09.05.04.05.09-.02.09-.05.09-.05-.04-.05-.09h0Z"/>
          <path class="cls-13" d="M6.03,7.27s0-.08.02-.08.02.04.02.08,0,.08-.02.08-.02-.04-.02-.08Z"/>
          <path class="cls-13" d="M6.05,7.5h-.16v-.04s-.01-.04-.01-.04v-.06c-.05-.06-.09-.1-.11-.1,0-.01,0-.02.02-.03.04-.03.12.04.18.13,0,0,.01.02.02.03h.13s.01-.02.02-.03c.06-.1.14-.16.18-.13,0,0,.01.01.02.03-.01,0-.05.03-.1.1v.06s-.02.04-.02.04v.04h-.16Z"/>
        </g>
        <path class="cls-21" d="M5.78,7.26s.1.04.16.13M6.32,7.26s-.1.04-.16.13"/>
      </g>
      <path class="cls-32" d="M5.82,7.57s-.02-.04-.02-.04c.06-.02.15-.03.25-.03.1,0,.19.01.25.03,0,0,0,.01-.02.03,0,.01-.01.03-.01.03-.06-.02-.13-.03-.22-.03-.09,0-.18.01-.23.03,0,0,0-.01,0-.02h0Z"/>
      <path class="cls-21" d="M5.82,7.57s-.02-.04-.02-.04c.06-.02.15-.03.25-.03.1,0,.19.01.25.03,0,0,0,.01-.02.03,0,0,0,.01-.01.03-.06-.02-.13-.03-.22-.03-.09,0-.18.01-.23.03,0,0,0-.01,0-.02h0"/>
      <path class="cls-37" d="M6.05,7.66c.08,0,.17-.01.2-.02.02,0,.03-.02.03-.03,0,0,0-.01-.01-.01-.05-.02-.13-.03-.22-.03-.09,0-.17.01-.22.03,0,0-.01,0-.01.01,0,.01.01.02.03.03.03,0,.12.02.2.02"/>
      <path class="cls-13" d="M6.05,7.66c.08,0,.17-.01.2-.02.02,0,.03-.02.03-.03,0,0,0-.01-.01-.01-.05-.02-.13-.03-.22-.03-.09,0-.17.01-.22.03,0,0-.01,0-.01.01,0,.01.01.02.03.03.03,0,.12.02.2.02Z"/>
      <path class="cls-32" d="M6.31,7.5l-.02-.02s-.02.01-.04,0c-.02,0-.03-.03-.03-.03,0,0-.03.02-.05.02-.02,0-.04-.02-.04-.02,0,0-.02.02-.04.02-.02,0-.04-.03-.04-.03,0,0-.02.03-.04.03-.02,0-.04-.02-.04-.02,0,0,0,.02-.04.03-.03,0-.05-.02-.05-.02,0,0-.01.03-.03.03-.02,0-.04,0-.04,0,0,0,0,0,0,.02,0,0-.01,0-.01,0v.02c.07-.02.16-.03.25-.03.1,0,.19.01.25.03v-.02"/>
      <path class="cls-21" d="M6.31,7.5l-.02-.02s-.02.01-.04,0c-.02,0-.03-.03-.03-.03,0,0-.03.02-.05.02-.02,0-.04-.02-.04-.02,0,0-.02.02-.04.02-.02,0-.04-.03-.04-.03,0,0-.02.03-.04.03-.02,0-.04-.02-.04-.02,0,0,0,.02-.04.03-.03,0-.05-.02-.05-.02,0,0-.01.03-.03.03-.02,0-.04,0-.04,0,0,0,0,0,0,.02,0,0-.01,0-.01,0v.02c.07-.02.16-.03.25-.03.1,0,.19.01.25.03v-.02s0,0,0,0Z"/>
      <path class="cls-13" d="M6.05,7.4h0s0,.01,0,.02c0,.02.02.04.04.04.02,0,.03-.01.03-.03,0,0,0-.01,0-.01,0,0,0,.01,0,.01,0,.02.02.03.04.03.02,0,.04-.02.04-.04,0,0,0,0,0,0h.01s0,0,0,0c0,0,0,.01,0,.02,0,.02.02.04.04.04.01,0,.02,0,.03-.02h0s0,0,0,0c0,.01,0,.02.02.03,0,0,.01,0,.03-.01.02-.01.03-.03.03-.03v.02s-.02.03-.03.04c0,0-.02.01-.03,0-.01,0-.02-.01-.02-.02,0,0-.02,0-.03,0-.02,0-.04-.01-.05-.03,0,.01-.02.02-.04.02-.02,0-.03,0-.04-.02,0,0-.02.02-.04.02-.02,0-.03,0-.04-.02,0,.01-.03.02-.04.02-.01,0-.03,0-.04-.02,0,.01-.02.02-.04.02-.02,0-.03,0-.04-.02,0,.02-.03.03-.05.03,0,0-.02,0-.03,0,0,.01-.01.02-.02.02-.01,0-.02,0-.03,0-.02,0-.03-.04-.03-.04v-.02s.01.01.03.03c.02.01.03.01.03.01.01,0,.02-.01.02-.03h0s0,0,0,0c0,.01.02.02.03.02.02,0,.04-.02.04-.04,0,0,0-.01,0-.02v-.02s.02.01.02.01c0,0,0,0,0,0,0,.02.02.04.04.04.02,0,.03-.01.04-.03,0,0,0-.01,0-.01,0,0,0,.01,0,.01,0,.02.02.03.03.03.02,0,.04-.02.04-.04,0,0,0,0,0-.01h0s0,0,0,0h0Z"/>
      <path class="cls-37" d="M6.05,7.5c-.1,0-.19.01-.25.03,0,0,0,0-.01,0,0,0,0,0,0-.01.06-.02.16-.04.26-.04.1,0,.19.01.26.04,0,0,0,0,0,.01,0,0,0,0-.01,0-.06-.02-.15-.03-.25-.03"/>
      <path class="cls-13" d="M6.05,7.5c-.1,0-.19.01-.25.03,0,0,0,0-.01,0,0,0,0,0,0-.01.06-.02.16-.03.26-.04.1,0,.19.01.26.04,0,0,0,0,0,.01,0,0,0,0-.01,0-.06-.02-.15-.03-.25-.03Z"/>
      <path class="cls-38" d="M5.95,7.54s0-.01.01-.01c0,0,.01,0,.01.01,0,0,0,.01-.01.01,0,0-.01,0-.01-.01,0,0,0,0,0,0"/>
      <path class="cls-16" d="M5.95,7.54s0-.01.01-.01.01,0,.01.01,0,.01-.01.01-.01,0-.01-.01h0Z"/>
      <path class="cls-36" d="M6.05,7.55h-.03s-.01,0-.01-.01c0,0,0-.01.01-.01h.06s.01,0,.01.01,0,.01-.01.01h-.03Z"/>
      <path class="cls-26" d="M6.05,7.55h-.03s-.01,0-.01-.01,0-.01.01-.01h.06s.01,0,.01.01,0,.01-.01.01h-.03Z"/>
      <path class="cls-39" d="M5.89,7.56h-.02s-.01,0-.01,0c0,0,0,0,0,0,0,0,0-.01,0-.01h.02s.02,0,.02,0c0,0,.01,0,.01,0,0,0,0,.01,0,.01h-.02Z"/>
      <path class="cls-21" d="M5.89,7.56h-.02s-.01,0-.01,0c0,0,0-.01,0-.01h.02s.02,0,.02,0c0,0,.01,0,.01,0,0,0,0,.01,0,.01h-.02Z"/>
      <path class="cls-36" d="M5.8,7.58v-.02s.03,0,.03,0v.02s-.03,0-.03,0Z"/>
      <path class="cls-26" d="M5.8,7.58v-.02s.03,0,.03,0v.02s-.03,0-.03,0Z"/>
      <path class="cls-38" d="M6.12,7.54s0-.01.01-.01.01,0,.01.01c0,0,0,.01-.01.01h0s-.01,0-.01-.01h0"/>
      <path class="cls-16" d="M6.12,7.54s0-.01.01-.01.01,0,.01.01,0,.01-.01.01-.01,0-.01-.01h0Z"/>
      <path class="cls-39" d="M6.21,7.56h.02s.01,0,.01,0c0,0,0-.01,0-.01h-.02s-.02,0-.02,0c0,0-.01,0-.01,0,0,0,0,.01,0,.01h.02Z"/>
      <path class="cls-21" d="M6.21,7.56h.02s.01,0,.01,0c0,0,0-.01,0-.01h-.02s-.02,0-.02,0c0,0-.01,0-.01,0,0,0,0,.01,0,.01h.02Z"/>
      <path class="cls-36" d="M6.3,7.58v-.02s-.03,0-.03,0v.02s.03,0,.03,0Z"/>
      <path class="cls-26" d="M6.3,7.58v-.02s-.03,0-.03,0v.02s.02,0,.03,0Z"/>
      <path class="cls-36" d="M6.05,7.64c-.08,0-.15,0-.21-.02.06-.02.13-.03.21-.03.08,0,.15,0,.21.03-.06.02-.13.02-.21.02"/>
      <path class="cls-14" d="M6.05,7.64c-.08,0-.15,0-.21-.02.06-.02.13-.02.21-.03.08,0,.15,0,.21.03-.06.02-.13.02-.21.02h0Z"/>
      <path class="cls-37" d="M6.3,7.45s0-.01,0-.02c0,0,0,0-.01,0,0,0,0,.01,0,.02,0,0,0,0,.01,0"/>
      <path class="cls-16" d="M6.3,7.45s0-.01,0-.02c0,0,0,0-.01,0,0,0,0,.01,0,.02,0,0,0,0,.01,0Z"/>
      <path class="cls-37" d="M6.14,7.42s0-.01,0-.01c0,0,0,0,0,.01,0,0,0,.01,0,.01,0,0,0,0,.01-.01"/>
      <path class="cls-16" d="M6.14,7.42s0-.01,0-.01c0,0,0,0,0,.01,0,0,0,.01,0,.01,0,0,0,0,0-.01Z"/>
      <path class="cls-37" d="M5.96,7.42s0-.01,0-.01c0,0,0,0,.01.01,0,0,0,.01,0,.01,0,0,0,0-.01-.01"/>
      <path class="cls-16" d="M5.96,7.42s0-.01,0-.01c0,0,0,0,.01.01,0,0,0,.01,0,.01,0,0,0,0,0-.01Z"/>
      <path class="cls-37" d="M5.8,7.45s0-.01,0-.02c0,0,0,0,.01,0,0,0,0,.01,0,.02,0,0,0,0-.01,0"/>
      <g>
        <path class="cls-16" d="M5.8,7.45s0-.01,0-.02c0,0,0,0,.01,0,0,0,0,.01,0,.02,0,0,0,0-.01,0Z"/>
        <g>
          <path class="cls-13" d="M6.05,7.32l-.03.02.02.05h0s0,0,0,0l.02-.05s-.02-.01-.03-.02h0Z"/>
          <path class="cls-13" d="M5.99,7.39v.02s.06-.01.06-.01h0s0-.01,0-.01h-.04s0,0-.01,0ZM6.11,7.39v.02s-.06-.01-.06-.01h0s0-.01,0-.01h.04s0,0,.01,0ZM5.86,7.34l-.02.02.03.04h0s0,0,0,0v-.05s0,0-.02-.01Z"/>
          <path class="cls-13" d="M5.82,7.42l.02.02.04-.02h0s0-.01,0-.01h-.05s0,.01,0,.02ZM5.94,7.4v.02s-.05,0-.05,0h0s0-.01,0-.01l.04-.02s.01.01.02.02ZM5.77,7.43v.02s-.05,0-.05,0h0s0-.01,0-.01l.03-.03s.01,0,.02.01Z"/>
        </g>
      </g>
      <path class="cls-37" d="M5.86,7.41s0-.02.02-.02.02,0,.02.02,0,.02-.02.02c0,0-.02,0-.02-.02"/>
      <g>
        <path class="cls-26" d="M5.86,7.41s0-.02.02-.02.02,0,.02.02,0,.02-.02.02-.02,0-.02-.02Z"/>
        <g>
          <path class="cls-13" d="M6.23,7.34l.02.02-.03.04h0s0,0,0,0v-.05s0,0,.02-.01Z"/>
          <path class="cls-13" d="M6.28,7.42l-.02.02-.04-.02h0s0-.01,0-.01h.05s0,.01,0,.02ZM6.16,7.4v.02s.05,0,.05,0h0s0-.01,0-.01l-.04-.02s-.01.01-.02.02Z"/>
        </g>
      </g>
      <path class="cls-37" d="M6.32,7.43v.02s.05,0,.05,0h0s0-.01,0-.01l-.03-.03h-.02Z"/>
      <path class="cls-13" d="M6.32,7.43v.02s.05,0,.05,0h0s0-.01,0-.01l-.03-.03s-.01,0-.02.01Z"/>
      <path class="cls-37" d="M6.03,7.39s0-.02.02-.02c0,0,0,0,0,0,0,0,.02,0,.02.02s0,.02-.02.02c0,0-.02,0-.02-.02h0"/>
      <path class="cls-26" d="M6.03,7.39s0-.02.02-.02.02,0,.02.02,0,.02-.02.02-.02,0-.02-.02Z"/>
      <path class="cls-37" d="M6.2,7.41s0-.02.02-.02.02,0,.02.02,0,.02-.02.02c0,0-.02,0-.02-.02"/>
      <g>
        <path class="cls-26" d="M6.2,7.41s0-.02.02-.02.02,0,.02.02,0,.02-.02.02-.02,0-.02-.02Z"/>
        <path class="cls-13" d="M5.71,7.46s-.01-.02-.02-.02c0,0-.02-.01-.02-.01,0,0,0-.01.02-.01,0,0,.01,0,.01,0h0s0,0,.01,0c0,.01,0,.03,0,.03,0,0,0,0,0,0h0Z"/>
        <path class="cls-26" d="M5.71,7.45s.01,0,.02,0c0,0,0,.01,0,.02,0,0-.01,0-.02,0,0,0,0-.01,0-.02h0Z"/>
      </g>
      <path class="cls-37" d="M6.38,7.46s.01-.02.02-.03c0,0,.02-.01.02-.01,0,0,0-.01-.02-.01,0,0-.01,0-.01,0h0s0,0-.01,0c0,.01,0,.03,0,.03,0,0,0,0,0,.01"/>
      <path class="cls-13" d="M6.38,7.46s.01-.02.02-.03c0,0,.02-.01.02-.01,0,0,0-.01-.02-.01,0,0-.01,0-.01,0h0s0,0-.01,0c0,.01,0,.03,0,.03,0,0,0,0,0,.01h0Z"/>
      <path class="cls-37" d="M6.38,7.45s-.01,0-.02,0c0,0,0,.01,0,.02,0,0,.01,0,.02,0,0,0,0-.01,0-.02"/>
      <g>
        <path class="cls-26" d="M6.38,7.45s-.01,0-.02,0c0,0,0,.01,0,.02,0,0,.01,0,.02,0,0,0,0-.01,0-.02h0Z"/>
        <path class="cls-8" d="M6.06,7.12s.03.02.03.04c0,.02-.02.04-.04.04s-.04-.02-.04-.04c0-.02.01-.04.03-.04"/>
        <path class="cls-13" d="M6.09,7.15v.02h-.08v-.02h.03v-.05h-.02v-.02h.02v-.02h.02v.02h.02v.02h-.02v.05h.03Z"/>
        <g>
          <path class="cls-21" d="M6.05,7.64v-.05M6.04,7.64v-.05"/>
          <path class="cls-21" d="M6.02,7.64v-.05M6.01,7.64v-.05M6,7.64v-.05M5.99,7.64v-.04M6,7.64v-.04"/>
          <path class="cls-21" d="M5.97,7.64v-.04M5.98,7.64v-.04M5.95,7.64v-.03M5.95,7.64v-.04M5.96,7.64v-.04"/>
          <path class="cls-21" d="M5.94,7.64v-.03M5.93,7.64v-.04M5.92,7.64v-.03M5.91,7.63v-.03M5.92,7.64v-.03"/>
          <path class="cls-21" d="M5.9,7.63v-.03M5.89,7.63v-.02M5.88,7.63v-.02M5.88,7.63v-.02M5.87,7.63h0"/>
          <path class="cls-21" d="M6.09,7.64v-.04M6.07,7.64v-.04M6.06,7.64v-.04"/>
        </g>
      </g>
      <path class="cls-32" d="M5.68,7.87h.73v-.21h-.73v.21Z"/>
      <path class="cls-21" d="M5.68,7.87h.73v-.21h-.73v.21Z"/>
      <path class="cls-35" d="M5.76,8.01s0,0,.01,0h.55s.01,0,.01,0c-.02,0-.03-.03-.03-.05,0-.02.01-.04.03-.05,0,0-.01,0-.02,0h-.55s-.01,0-.02,0h0s.03.03.03.05-.01.04-.03.05"/>
      <g>
        <path class="cls-1" d="M5.76,8.01s0,0,.01,0h.55s.01,0,.01,0c-.02,0-.03-.03-.03-.05s.01-.04.03-.05c0,0-.01,0-.02,0h-.55s-.01,0-.02,0h0s.03.03.03.05-.01.04-.03.05Z"/>
        <path class="cls-32" d="M5.77,8h.55s.03.01.03.03-.02.03-.03.03h-.55s-.03-.01-.03-.03.02-.03.03-.03"/>
        <path class="cls-13" d="M5.77,8.01h.55s.03.01.03.03-.02.03-.03.03h-.55s-.03-.01-.03-.03.02-.03.03-.03Z"/>
      </g>
      <path class="cls-35" d="M5.77,7.87h.55s.03.01.03.02-.02.02-.03.02h-.55s-.03-.01-.03-.02.02-.02.03-.02"/>
      <path class="cls-13" d="M5.77,7.87h.55s.03.01.03.02-.02.02-.03.02h-.55s-.03-.01-.03-.02.02-.02.03-.02Z"/>
      <path class="cls-35" d="M5.76,11.04s0,.01,0,.02c0,.05-.04.09-.09.09h.76c-.05,0-.09-.04-.09-.09,0,0,0-.01,0-.02,0,0,0,0-.01,0h-.55s0,0-.01,0"/>
      <path class="cls-1" d="M5.76,11.04s0,.01,0,.02c0,.05-.04.09-.09.09h.76c-.05,0-.09-.04-.09-.09,0,0,0-.01,0-.02,0,0,0,0-.01,0h-.55s0,0-.01,0Z"/>
      <path class="cls-35" d="M5.77,10.99h.55s.03.01.03.03-.02.03-.03.03h-.55s-.03-.01-.03-.03.02-.03.03-.03"/>
      <path class="cls-13" d="M5.77,10.99h.55s.03.01.03.03-.02.03-.03.03h-.55s-.03-.01-.03-.03.02-.03.03-.03h0Z"/>
      <path class="cls-32" d="M5.67,11.37h.75v-.21h-.75v.21Z"/>
      <path class="cls-21" d="M5.67,11.37h.75v-.21h-.75v.21Z"/>
      <path class="cls-36" d="M5.61,10.25c-.07.05-.13.1-.12.12,0,.02.03.04.06.06.05.04.09.11.06.15.05-.04.07-.1.07-.16,0-.07-.03-.13-.08-.17"/>
      <path class="cls-26" d="M5.61,10.25c-.07.05-.13.1-.12.12,0,.02.03.04.06.06.05.04.09.11.06.15.04-.04.07-.1.07-.16s-.03-.13-.08-.17h0Z"/>
      <path class="cls-42" d="M5.78,10.96h.54v-2.86h-.54v2.86Z"/>
      <path class="cls-21" d="M6.16,8.1v2.86M6.22,8.1v2.86M5.78,10.96h.54v-2.86h-.54v2.86Z"/>
      <path class="cls-34" d="M6.86,9.16c-.12-.05-.32-.09-.54-.1-.08,0-.17,0-.26.03-.32.06-.56.2-.55.31,0,0,0,0,0,0,0,0-.12-.3-.12-.31-.02-.13.25-.28.61-.35.1-.02.21-.03.32-.03.23,0,.43.03.54.08v.35Z"/>
      <path class="cls-30" d="M6.86,9.16c-.12-.05-.32-.09-.54-.1-.08,0-.17,0-.26.03-.32.06-.56.2-.55.31,0,0,0,0,0,0,0,0-.12-.3-.12-.31-.02-.13.25-.28.61-.35.11-.02.22-.03.32-.03.23,0,.43.03.54.08v.35"/>
      <path class="cls-36" d="M5.78,9.52c-.15-.01-.25-.05-.26-.12,0-.05.04-.11.13-.17.04,0,.09.01.13.01v.28Z"/>
      <path class="cls-26" d="M5.78,9.52c-.15-.01-.25-.05-.26-.12,0-.05.04-.11.13-.17.04,0,.09.01.13.01v.28"/>
      <path class="cls-36" d="M6.31,9.31c.09.02.16.04.2.07h0s-.06.12-.2.21v-.28Z"/>
      <path class="cls-26" d="M6.31,9.31c.09.02.16.04.2.07h0s-.06.12-.2.21v-.28"/>
      <path class="cls-34" d="M5.44,10.08s.13-.14.34-.22c.09-.04.17-.07.27-.12.28-.14.49-.29.47-.35h0s.04.29.04.29c.03.05-.17.21-.43.34-.08.04-.26.11-.34.15-.15.06-.3.16-.28.2l-.05-.29"/>
      <g>
        <path class="cls-30" d="M5.44,10.08s.13-.14.34-.22c.09-.04.17-.07.27-.12.28-.14.49-.29.47-.35h0s.04.29.04.29c.03.05-.17.21-.43.34-.08.04-.26.11-.34.15-.15.06-.3.16-.28.2l-.05-.29h0Z"/>
        <path class="cls-13" d="M5.74,9.03c.07-.03.11-.06.09-.11-.01-.04-.05-.04-.1-.02l-.09.04.08.22s.02,0,.03-.01c0,0,.02,0,.03,0l-.04-.09h0s0,0,0,0ZM5.7,8.92h.02s.04,0,.05.02c0,.02,0,.04-.02.06,0,0-.02,0-.02.01l-.03-.09ZM5.95,8.83s-.02,0-.03,0c0,0-.02,0-.03,0l.05.23.14-.03s0,0,0-.01c0,0,0,0,0-.01-.03,0-.05.02-.09.02l-.04-.2M6.24,9.03c.03-.08.06-.16.09-.24,0,0-.01,0-.02,0,0,0-.01,0-.02,0-.02.06-.04.12-.06.17-.03-.05-.06-.11-.08-.16-.01,0-.02,0-.03,0-.01,0-.02,0-.03,0,.04.07.08.15.12.22,0,0,.01,0,.02,0,0,0,.01,0,.02,0M6.54,8.85s.01-.02.02-.03c0,0-.03-.02-.06-.02-.06,0-.09.02-.1.06,0,.08.11.07.1.13,0,.02-.02.03-.05.03-.03,0-.05-.02-.05-.04h0s0,.03-.02.04c.02.01.04.02.06.02.06,0,.11-.02.11-.06,0-.08-.11-.08-.11-.13,0-.02.02-.03.05-.03.02,0,.04.02.04.03h0"/>
      </g>
      <path class="cls-41" d="M6.56,11.4c-.05,0-.1-.01-.13-.03-.03-.02-.08-.03-.13-.03s-.1.01-.13.03c-.03.02-.08.03-.13.03s-.1-.01-.13-.03c-.03-.02-.08-.03-.13-.03s-.09.01-.13.03c-.03.02-.08.03-.13.03v.09c.05,0,.1-.01.13-.03.03-.02.08-.03.13-.03s.09.01.13.03c.03.02.08.03.13.03s.1-.01.13-.03c.03-.02.08-.03.13-.03s.09.01.13.03c.03.02.08.03.13.03v-.09Z"/>
      <path class="cls-8" d="M6.56,11.4c-.05,0-.1-.01-.13-.03-.03-.02-.08-.03-.13-.03s-.1.01-.13.03c-.03.02-.08.03-.13.03s-.1-.01-.13-.03c-.03-.02-.08-.03-.13-.03s-.09.01-.13.03c-.03.02-.08.03-.13.03v.09c.05,0,.1-.01.13-.03.03-.02.08-.03.13-.03s.09.01.13.03c.03.02.08.03.13.03s.1-.01.13-.03c.03-.02.08-.03.13-.03s.09.01.13.03c.03.02.08.03.13.03v-.09Z"/>
      <path class="cls-42" d="M6.56,11.49c-.05,0-.1-.01-.13-.03-.03-.02-.08-.03-.13-.03s-.1.01-.13.03c-.03.02-.08.03-.13.03s-.1-.01-.13-.03c-.03-.02-.08-.03-.13-.03s-.09.01-.13.03c-.03.02-.08.03-.13.03v.09c.05,0,.1-.01.13-.03.03-.02.08-.03.13-.03s.09.01.13.03c.03.02.08.03.13.03s.1-.01.13-.03c.03-.02.08-.03.13-.03s.09.01.13.03c.03.02.08.03.13.03v-.09Z"/>
      <path class="cls-21" d="M6.56,11.49c-.05,0-.1-.01-.13-.03-.03-.02-.08-.03-.13-.03s-.1.01-.13.03c-.03.02-.08.03-.13.03s-.1-.01-.13-.03c-.03-.02-.08-.03-.13-.03s-.09.01-.13.03c-.03.02-.08.03-.13.03v.09c.05,0,.1-.01.13-.03.03-.02.08-.03.13-.03s.09.01.13.03c.03.02.08.03.13.03s.1-.01.13-.03c.03-.02.08-.03.13-.03s.09.01.13.03c.03.02.08.03.13.03v-.09"/>
      <path class="cls-41" d="M6.56,11.57c-.05,0-.1-.01-.13-.03-.03-.02-.08-.03-.13-.03s-.1.01-.13.03c-.03.02-.08.03-.13.03s-.1-.01-.13-.03c-.03-.02-.08-.03-.13-.03s-.09.01-.13.03c-.03.02-.08.03-.13.03v.09c.05,0,.1-.01.13-.03.03-.02.08-.03.13-.03s.09.01.13.03c.03.02.08.03.13.03s.1-.01.13-.03c.03-.02.08-.03.13-.03s.09.01.13.03c.03.02.08.03.13.03v-.09Z"/>
      <path class="cls-8" d="M6.56,11.57c-.05,0-.1-.01-.13-.03-.03-.02-.08-.03-.13-.03s-.1.01-.13.03c-.03.02-.08.03-.13.03s-.1-.01-.13-.03c-.03-.02-.08-.03-.13-.03s-.09.01-.13.03c-.03.02-.08.03-.13.03v.09c.05,0,.1-.01.13-.03.03-.02.08-.03.13-.03s.09.01.13.03c.03.02.08.03.13.03s.1-.01.13-.03c.03-.02.08-.03.13-.03s.09.01.13.03c.03.02.08.03.13.03v-.09"/>
      <path class="cls-42" d="M6.56,11.75c-.05,0-.1-.01-.13-.03-.03-.02-.08-.03-.13-.03s-.1.01-.13.03c-.03.02-.08.03-.13.03s-.1-.01-.13-.03c-.03-.02-.08-.03-.13-.03s-.09.01-.13.03c-.03.02-.08.03-.13.03v-.09c.05,0,.1-.01.13-.03.03-.02.08-.03.13-.03s.09.01.13.03c.03.02.08.03.13.03s.1-.01.13-.03c.03-.02.08-.03.13-.03s.09.01.13.03c.03.02.08.03.13.03v.09Z"/>
      <path class="cls-21" d="M6.56,11.75c-.05,0-.1-.01-.13-.03-.03-.02-.08-.03-.13-.03s-.1.01-.13.03c-.03.02-.08.03-.13.03s-.1-.01-.13-.03c-.03-.02-.08-.03-.13-.03s-.09.01-.13.03c-.03.02-.08.03-.13.03v-.09c.05,0,.1-.01.13-.03.03-.02.08-.03.13-.03s.09.01.13.03c.03.02.08.03.13.03s.1-.01.13-.03c.03-.02.08-.03.13-.03s.09.01.13.03c.03.02.08.03.13.03v.09"/>
      <path class="cls-41" d="M6.56,11.83c-.05,0-.1-.01-.13-.03-.03-.02-.08-.03-.13-.03s-.1.01-.13.03c-.03.02-.08.03-.13.03s-.1-.01-.13-.03c-.03-.02-.08-.03-.13-.03s-.09.01-.13.03c-.03.02-.08.03-.13.03v-.09c.05,0,.1-.01.13-.03.03-.02.08-.03.13-.03s.09.01.13.03c.03.02.08.03.13.03s.1-.01.13-.03c.03-.02.08-.03.13-.03s.09.01.13.03c.03.02.08.03.13.03v.09Z"/>
      <path class="cls-8" d="M6.56,11.83c-.05,0-.1-.01-.13-.03-.03-.02-.08-.03-.13-.03s-.1.01-.13.03c-.03.02-.08.03-.13.03s-.1-.01-.13-.03c-.03-.02-.08-.03-.13-.03s-.09.01-.13.03c-.03.02-.08.03-.13.03v-.09c.05,0,.1-.01.13-.03.03-.02.08-.03.13-.03s.09.01.13.03c.03.02.08.03.13.03s.1-.01.13-.03c.03-.02.08-.03.13-.03s.09.01.13.03c.03.02.08.03.13.03v.09Z"/>
      <path class="cls-42" d="M8.51,11.89c-.43,0-.86-.12-1.22-.31-.26-.14-.44-.43-.44-.76v-1.2h3.31v1.2c0,.33-.18.62-.44.76-.36.19-.78.31-1.21.31"/>
      <path class="cls-17" d="M8.51,11.89c-.43,0-.86-.12-1.22-.31-.26-.14-.44-.43-.44-.76v-1.2h3.31v1.2c0,.33-.18.62-.44.76-.36.19-.78.31-1.21.31h0Z"/>
      <path class="cls-34" d="M8.5,10.82c0,.47-.37.86-.83.86s-.83-.38-.83-.86v-1.2h1.65v1.2Z"/>
      <g>
        <g>
          <path class="cls-10" d="M7.21,11.53c.05.03.12.08.2.1v-2.05h-.2v1.95Z"/>
          <path class="cls-12" d="M6.85,10.8c0,.25.1.44.19.56v-1.78h-.19v1.21Z"/>
          <path class="cls-10" d="M7.58,11.67c.08,0,.13,0,.19,0v-2.09h-.19v2.09ZM7.94,11.63c.08-.02.16-.07.2-.09v-1.95h-.19v2.05ZM8.32,11.35c.08-.08.16-.26.18-.46v-1.31s-.19,0-.19,0v1.77Z"/>
        </g>
        <path class="cls-17" d="M8.5,10.82c0,.47-.37.86-.83.86s-.83-.38-.83-.86v-1.2h1.65v1.2Z"/>
      </g>
      <path class="cls-34" d="M6.85,9.62h1.65v-2h-1.65v2Z"/>
      <g>
        <path class="cls-18" d="M7.18,9.24v-.15h.14v-.26s0-.26,0-.26h-.07s0-.08,0-.08c0-.04,0-.1,0-.13v-.05s.02,0,.02,0c0,0,.03,0,.05,0h.04v-.13h-.07v-.04s0-.06,0-.08v-.03h.06s0,.03.02.03.02,0,.02-.02h0s.08-.01.08-.01h0s0,.03.02.03c.01,0,.02,0,.02-.02h0s.06-.01.06-.01v.15h-.07s0,.06,0,.06v.06s.09,0,.09,0v-.31h-.06v-.15h.06v.02s0,.02,0,.02h.01s.02,0,.02,0c0,0,0,0,0-.02h0s.08-.01.08-.01h0s0,.04.02.04c.02,0,.02,0,.02-.02h0s.06-.01.06-.01v.15h-.07v.31h.08v-.13s-.06,0-.06,0v-.06s0-.07,0-.08v-.02s.03,0,.03,0h.03s0,.02,0,.02c0,.02,0,.02.02.02.02,0,.02,0,.02-.02v-.02h.03s.03,0,.04,0h.01s0,.04,0,.04h.02s.02,0,.03-.02c0-.01,0-.01.04-.02h.02s0,.15,0,.15h-.01s-.02,0-.03,0h-.02v.13h.04s.05,0,.06,0h.02v.07s0,.09,0,.13v.06s-.03,0-.03,0h-.03v.51h.07s.07,0,.07,0v.29h-1v-.15Z"/>
        <path class="cls-13" d="M7.33,8.57v.54h-.14v.28h.97v-.28h-.13v-.54h-.7Z"/>
        <path class="cls-13" d="M7.19,9.38h.96M7.19,9.32h.97M7.19,9.25h.97M7.19,9.18h.97M7.19,9.11h.97M7.33,9.03h.7M7.33,8.96h.7M7.33,8.9h.7M7.33,8.84h.7M7.33,8.77h.7"/>
        <path class="cls-4" d="M7.33,8.7h.7"/>
        <path class="cls-13" d="M7.88,8.64v.06M7.33,8.64h.7"/>
        <path class="cls-4" d="M7.33,9.38v-.07"/>
        <path class="cls-13" d="M7.33,9.25v-.07M7.27,9.25v.07"/>
        <path class="cls-4" d="M7.4,9.31v-.07"/>
        <path class="cls-13" d="M7.47,9.11v-.07M7.47,8.96v-.06M7.4,9.18v-.08"/>
        <path class="cls-4" d="M7.27,9.18v-.08"/>
        <path class="cls-13" d="M7.4,8.96v.07M7.54,8.96v.07M7.68,8.97v.07M7.61,8.97v-.06M7.68,8.84v.07M7.61,8.64v.07M7.68,8.57v.07M7.54,8.57v.07M7.41,8.57v.07M8.03,9.38v-.07M8.03,9.25v-.07M8.09,9.25v.07M7.95,9.31v-.07M7.89,9.11v-.07M7.88,8.96v-.06"/>
        <path class="cls-4" d="M7.95,9.18v-.08"/>
        <path class="cls-13" d="M8.09,9.18v-.08"/>
        <path class="cls-4" d="M7.95,8.96v.07"/>
        <path class="cls-13" d="M7.81,8.96v.07M7.75,8.96v-.06M7.75,8.77v.07"/>
        <path class="cls-4" d="M7.67,8.7v.07"/>
        <g>
          <path class="cls-13" d="M7.75,8.64v.07M7.81,8.57v.06M7.95,8.57v.06M7.61,8.84v-.07"/>
          <g>
            <path class="cls-13" d="M7.81,9.38v-.18s-.01-.14-.14-.14c-.12,0-.14.1-.14.14v.18h.28Z"/>
            <path class="cls-13" d="M7.75,9.25h.14s0-.07,0-.07l-.05-.07-.09.07s0,.05,0,.07h0ZM7.71,9.14l.03-.11h-.14s.03.1.03.1c.03,0,.05,0,.08,0h0ZM7.82,8.91v-.16s.02-.08.07-.08.07.04.07.08v.16h-.13Z"/>
            <path class="cls-13" d="M7.48,9.31h.12s0,0,0,0v.05s0,0,0,0h-.12s0,0,0,0v-.05s0,0,0,0Z"/>
            <path class="cls-13" d="M7.75,9.32h.14v.07h-.14v-.07ZM7.61,9.25h-.13s0-.07,0-.07l.04-.07.1.07s0,.03,0,.07h0Z"/>
          </g>
          <path class="cls-13" d="M7.47,8.64v.06M7.4,8.91v-.16s.03-.08.07-.08.07.04.07.08v.16h-.14Z"/>
        </g>
        <path class="cls-31" d="M7.37,8.18h.14v.39h-.14v-.39ZM7.61,8.01h.14v.57h-.14v-.57ZM7.84,8.18h.14v.39h-.14v-.39Z"/>
        <g>
          <path class="cls-13" d="M7.61,8.36h.14M7.61,8.41h.14M7.84,8.22h.14M7.84,8.3h.14M7.84,8.35h.14M7.84,8.42h.14M7.91,8.22v-.04M7.91,8.35v-.05M7.91,8.47v-.05M7.37,8.36h.14M7.37,8.42h.14"/>
          <path class="cls-11" d="M7.26,8.58v-.25h.1s.03.02.03.02v.12s.09,0,.09,0v-.12s.03-.02.03-.02h.09s.03.02.03.02v.12s.09,0,.09,0v-.12s.02-.03.02-.03h.09s.03.02.03.02v.12s.09,0,.09,0v-.11s.03-.03.03-.03h.11v.25h-.83Z"/>
          <path class="cls-13" d="M7.26,8.51h.83M7.33,8.51v.07M7.47,8.51v.07"/>
        </g>
        <path class="cls-4" d="M7.61,8.51v.07"/>
        <path class="cls-13" d="M7.75,8.51v.07M7.89,8.51v.07M8.03,8.51v.07M7.4,8.44v.07M7.4,8.37h-.13M7.4,8.44h-.13M7.63,8.37h-.15M7.87,8.37h-.14M8.09,8.37h-.14M7.63,8.44h-.15M7.87,8.44h-.14M8.09,8.44h-.14M7.33,8.37v.07M7.54,8.44v.07M7.61,8.37v.07M7.75,8.37v.07M8.03,8.37v.07M7.54,8.33v.04"/>
        <path class="cls-4" d="M7.68,8.47v.03"/>
        <path class="cls-13" d="M7.81,8.44v.06M7.81,8.33v.04"/>
        <path class="cls-4" d="M7.95,8.44v.07"/>
        <g>
          <path class="cls-9" d="M7.75,9.38v-.15s0-.1-.08-.09c-.08,0-.07.07-.07.09v.15h.14Z"/>
          <path class="cls-8" d="M7.92,8.88v-.12s-.01-.06-.04-.06-.04.03-.04.06v.12h.07ZM7.51,8.88v-.12s-.01-.06-.04-.06-.04.03-.04.06v.12h.07Z"/>
        </g>
        <path class="cls-13" d="M7.61,8.3h.14M7.61,8.23h.14M7.61,8.16h.14M7.61,8.1h.14M7.61,8.04h.14M7.68,8.1v-.06"/>
        <path class="cls-4" d="M7.68,8.22v-.06"/>
        <path class="cls-13" d="M7.68,8.36v-.06M7.68,8.47v-.06M7.37,8.22h.14M7.37,8.3h.14M7.44,8.22v-.04M7.44,8.35v-.05"/>
        <g>
          <path class="cls-4" d="M7.44,8.47v-.05"/>
          <g>
            <path class="cls-31" d="M7.55,7.86v.14s.27,0,.27,0v-.14s-.05,0-.05,0v.04s-.05,0-.05,0v-.03h-.07v.03h-.05v-.04s-.05,0-.05,0Z"/>
            <path class="cls-4" d="M7.55,7.95h.27M7.68,8.01v-.06"/>
            <path class="cls-31" d="M7.3,8.05v.14s.27,0,.27,0v-.14s-.05,0-.05,0v.04s-.05,0-.05,0v-.03h-.07v.03h-.05v-.04s-.05,0-.05,0Z"/>
            <path class="cls-4" d="M7.3,8.13h.27M7.43,8.19v-.06"/>
            <path class="cls-31" d="M7.78,8.04v.14s.27,0,.27,0v-.14s-.05,0-.05,0v.04s-.05,0-.05,0v-.03h-.07v.03h-.05v-.04s-.05,0-.05,0Z"/>
            <path class="cls-4" d="M7.78,8.13h.27M7.91,8.19v-.06"/>
          </g>
        </g>
        <g>
          <path class="cls-17" d="M6.85,9.62h1.65v-2h-1.65v2Z"/>
          <path class="cls-21" d="M9.65,10.12l-.06-.03-.11.13.04.06.13-.16ZM9.69,10.16l.04.06-.11.13-.06-.03.13-.16Z"/>
        </g>
        <path class="cls-24" d="M10.16,9.62v1.2c0,.47-.37.86-.83.86s-.83-.38-.83-.86v-1.2h1.66Z"/>
        <g>
          <path class="cls-13" d="M8.75,9.74c-.05,0-.1.04-.1.1,0,.04.03.08.06.09v.15l-.06.02v.17l.06.02v-.06h0v-.1h.06v-.21s0,0,0,0l.19.23-.03.06.11.13.06-.03.15.18s0,0,0,.02h-.1l-.02-.06h-.17l-.02.06h-.11s-.03-.06-.06-.07v-.21h-.06v.06h0v.16s-.06.04-.06.07c0,0,0,0,0,0,0,0,0,.01,0,.02,0,.04.03.08.07.09v.1l-.06.02v.17s.07.02.07.02c0,.05.02.09.04.14h0s-.03.11.01.15c.03.02.06.03.09.02.03.03.06.06.09.09v.07s.08.06.13.08l.05-.05s.08.02.12.03c0,.04.05.08.09.08s.08-.03.09-.08c.04,0,.08-.02.11-.03h0s.03-.01.05-.02l-.03-.06s.06-.03.08-.05l.03.05s-.05.04-.08.05c-.02,0-.03.01-.05.02l.05.05c.05-.02.1-.05.14-.08v-.07s.05-.06.08-.09c.03,0,.07,0,.09-.02.04-.04.05-.1.01-.14h0s.03-.09.04-.14l.06-.02v-.17s-.05-.02-.05-.02v-.1s.07-.05.07-.09c0,0,0-.01,0-.02,0,0,0,0,0,0,0-.04-.03-.06-.07-.07v-.16s.06-.02.06-.02v-.17l-.06-.02v-.15s.07-.05.07-.09c0-.05-.04-.1-.1-.1-.04,0-.08.03-.09.07h-.16v.06h-.1v-.06h-.15s-.05-.07-.09-.07-.08.03-.09.07h-.15v.06h-.1v-.06h-.16s-.05-.07-.09-.07h0Z"/>
          <path class="cls-22" d="M8.97,9.75l-.02.06h.2l-.02-.06h-.17ZM9.54,9.75l-.02.06h.2l-.02-.06h-.17ZM8.75,9.8s.04.02.04.04-.02.04-.04.04-.04-.02-.04-.04.02-.04.04-.04h0Z"/>
          <path class="cls-26" d="M8.84,9.88h.11l.02.06h.17l.02-.06h.09s.03.05.06.06v.07l-.06.02v.17l.06.02v.24s0,0-.01,0l-.15-.18.04-.06-.11-.13-.06.03-.19-.23s0-.01.01-.02Z"/>
          <path class="cls-26" d="M9.43,9.88h.1l.02.06h.17l.02-.06h.11s0,0,0,.01l-.19.24-.06-.03-.11.13.04.06.03-.04.06-.08.05.04-.1.12.06.03.11-.13-.04-.06.19-.23s0,0,.01,0v.15l-.06.02v.17l.06.02v.16s-.05.03-.06.06h-.11l-.02-.06h-.17l-.02.06h-.09s0-.02,0-.02l.14-.18.03-.04-.05-.04-.18.22s0,0-.01,0v-.29h-.06v-.1h.06v.15l.06-.02v-.17l-.06-.02v-.07s.05-.03.06-.06h0Z"/>
          <path class="cls-22" d="M8.78,10.09v.21l.06-.02v-.17l-.06-.02Z"/>
          <path class="cls-26" d="M9.89,10.15h.06v.1h-.06v-.1ZM9.05,10.17l.06.08-.05.04-.06-.08.05-.04Z"/>
          <path class="cls-22" d="M8.74,10.51s.03,0,.04.02c0,0,0,0,0,0,0,0,0,.01,0,.02,0,.02-.02.04-.04.04s-.04-.02-.04-.04c0,0,0-.01,0-.02,0,0,0,0,0,0,0-.01.02-.02.04-.02ZM9.93,10.51s.03.01.04.02h0s0,.01,0,.02c0,.02-.02.04-.04.04s-.04-.02-.04-.04c0,0,0-.01,0-.02,0-.01.02-.02.04-.02h0Z"/>
          <path class="cls-26" d="M9,10.52h.1v.06h.15s0,.01,0,.02l-.14.17-.06-.03-.11.13.04.06-.12.14s-.04,0-.05,0c-.01-.04-.02-.07-.03-.11,0-.02,0-.03,0-.05h-.06s0-.04,0-.06v-.05h.06v.05s0,.04,0,.06c0,.02,0,.03,0,.05l.06-.02s0-.11,0-.09c0,.02,0-.09,0-.09l-.06-.02v-.1s.05-.03.06-.06h.16v-.06ZM9.58,10.52h.1v.06h.16s.03.05.06.06v.1l-.06.02s0,.11,0,.09c0-.03,0,.09,0,.09l.06.02s-.02.08-.03.11c-.02,0-.03,0-.05,0l-.12-.14.03-.06-.11-.13-.06.03-.13-.17s0-.01,0-.02h.15v-.06h0Z"/>
          <g>
            <g>
              <path class="cls-13" d="M9.95,10.8v-.15s.07-.05.07-.09-.03-.08-.07-.1v-.21s-.06,0-.06,0v.21s-.05.03-.06.06h-.16v.06h.16s.03.05.06.06v.15s.06,0,.06,0h0ZM9.95,9.94v.21h-.06v-.21s0,0-.01,0l-.22.27-.05-.04.22-.28s0,0,0-.01h-.16v-.06h.16s.05-.07.09-.07c.05,0,.1.04.1.1,0,.04-.03.08-.07.09h0ZM9.37,9.94v.13h-.06v-.13s-.05-.03-.06-.06h-.15v-.06h.15s.05-.07.09-.07.08.03.09.07h.15v.06h-.15s-.03.05-.06.06h0ZM9.64,10.97l-.06.03-.11-.13.04-.06.13.16Z"/>
              <path class="cls-13" d="M9.15,9.87l-.02.06h-.17l-.02-.06h.2ZM9.15,9.81l-.02-.06h-.17l-.02.06h.2ZM9.03,10.97l.06.03.11-.13-.04-.06-.13.16ZM8.98,10.93l-.04-.06.11-.13.06.03-.13.16Z"/>
              <path class="cls-13" d="M9.02,11.33l-.03.06c-.05-.03-.1-.08-.13-.12-.03,0-.07,0-.09-.02-.04-.04-.05-.1-.01-.14h0c-.02-.07-.04-.13-.05-.2h.06c0,.06.02.11.04.16.02,0,.03,0,.05,0l.15-.18.05.04-.15.18s.02.08,0,.11c.03.04.07.08.11.11h0Z"/>
              <path class="cls-13" d="M8.98,11.29c.05.04.11.08.18.1v-.06s-.09-.05-.13-.08l-.04.04ZM8.95,11.35c.05.04.11.08.18.1l-.05.05c-.05-.02-.1-.05-.14-.08v-.07ZM8.71,10.8v-.15s-.07-.05-.07-.09.03-.08.07-.1v-.21s.06,0,.06,0v.21s.05.03.06.06h.16v.06h-.16s-.03.05-.06.06v.15s-.06,0-.06,0"/>
              <path class="cls-13" d="M8.72,10.96l-.06-.02v-.17s.05-.02.05-.02v.1s0,.07,0,.11h0ZM8.78,10.74l.06.02s0,.11,0,.09c0-.03,0,.09,0,.09l-.06.02s0-.07,0-.11v-.1h0ZM8.72,10.09l-.06.02v.17l.06.02v-.21ZM8.78,10.09l.06.02v.17l-.06.02v-.21ZM8.95,10.52l.02-.06h.17l.02.06h-.2Z"/>
            </g>
            <path class="cls-4" d="M8.95,10.58l.02.06h.17l.02-.06h-.2Z"/>
            <g>
              <path class="cls-13" d="M9.43,11.42s.09-.02.13-.04l.03.05s-.1.04-.16.05c0,.04-.05.08-.09.08s-.08-.03-.09-.08c-.06,0-.11-.03-.17-.05l.03-.05s.09.03.14.04c.01-.03.03-.04.06-.05v-.27h.06v.27s.05.03.06.05h0Z"/>
              <path class="cls-13" d="M9.69,11.29c-.05.04-.11.08-.18.1v-.06s.09-.05.13-.08l.04.04ZM9.72,11.35c-.05.04-.11.08-.18.1l.05.05c.05-.02.1-.05.14-.08v-.07ZM9.37,11.15l.06-.02v-.17l-.06-.02v.21ZM9.31,11.15l-.06-.02v-.17l.06-.02v.21ZM9.52,9.87l.02.06h.17l.02-.06h-.2ZM9.52,9.81l.02-.06h.17l.02.06h-.2Z"/>
            </g>
          </g>
          <path class="cls-13" d="M8.95,10.58l.02.06h.17l.02-.06h-.2Z"/>
          <path class="cls-4" d="M9.52,10.58l.02.06h.17l.02-.06h-.2Z"/>
          <g>
            <path class="cls-26" d="M9.3,10.64s0,0,0,0v.29l-.06.02v.17l.06.02v.22s-.04.03-.06.05c-.03,0-.07-.01-.1-.02v-.07s-.09-.05-.13-.08l-.05.04s.03.02.04.03c-.01-.01-.03-.02-.04-.03-.02-.02-.05-.04-.07-.07.02-.03.02-.08,0-.11l.12-.14.06.03.11-.13-.03-.06.14-.17ZM9.38,10.64l.17.21.05-.04.06.08-.05.04-.06-.08-.03-.04-.04.06.11.13.06-.03.12.14s-.02.08,0,.11c-.02.03-.04.05-.07.07-.01.01-.03.02-.04.03.01,0,.03-.02.04-.03l-.05-.04s-.09.06-.15.08v.07s-.04.02-.07.02c-.01-.03-.03-.05-.06-.05v-.22l.06-.02v-.17l-.06-.02v-.29s0,0,0,0ZM9.95,10.8v.05s0,.04,0,.06h-.06s0-.04,0-.06v-.04h.06Z"/>
            <path class="cls-26" d="M9.08,10.81l.05.04-.06.08-.05-.04.06-.08ZM9.31,10.99h.06v.1h-.06v-.1ZM9.02,11.32s.06.03.09.05l-.03.06s-.06-.03-.08-.05l.03-.06Z"/>
          </g>
          <path class="cls-13" d="M9.25,10.6s0-.01,0-.02h-.15v-.06h.15s0-.01,0-.02l-.18-.22.05-.04.18.22s0,0,0,0v-.29h.06v.29s0,0,0,0l.18-.22.05.04-.18.22s0,.02.01.02h.14v.06h-.15s0,.01,0,.02l.17.21-.05.04-.17-.21s0,0,0,0v.35h-.06v-.35s0,0,0,0l-.18.21-.05-.04.17-.21"/>
          <path class="cls-26" d="M8.8,11.13s.04-.02.06,0c.02.02.02.04,0,.06-.01.02-.04.02-.06,0-.02-.02-.02-.04,0-.06h0ZM8.7,10.55s.02-.04.04-.04.04.02.04.04-.02.04-.04.04-.04-.02-.04-.04Z"/>
          <path class="cls-13" d="M9.65,11.33l.03.06c.05-.03.1-.08.13-.12.03,0,.07,0,.09-.02.04-.04.05-.1.01-.14h0c.02-.07.04-.13.05-.2h-.06c0,.06-.02.11-.04.16-.02,0-.03,0-.05,0l-.15-.18-.05.04.15.18s-.02.08,0,.11c-.03.04-.07.08-.11.11h0Z"/>
          <path class="cls-26" d="M9.87,11.13s-.04-.02-.06,0c-.02.02-.02.04,0,.06.01.02.04.02.06,0,.02-.02.02-.04,0-.06Z"/>
          <path class="cls-13" d="M9.94,10.96l.06-.02v-.17s-.05-.02-.05-.02v.1s0,.07,0,.11h0ZM9.89,10.74l-.06.02s0,.11,0,.09c0-.03,0,.09,0,.09l.06.02s0-.07,0-.11v-.1M9.89,10.09l-.06.02v.17l.06.02v-.21ZM9.95,10.09l.06.02v.17l-.06.02v-.21ZM9.69,10.93l.04-.06-.11-.13-.06.03.13.16Z"/>
          <path class="cls-21" d="M8.71,9.84s.02-.04.04-.04.04.02.04.04-.02.04-.04.04-.04-.02-.04-.04h0Z"/>
          <path class="cls-26" d="M9.88,10.55s.02-.04.04-.04.04.02.04.04-.02.04-.04.04-.04-.02-.04-.04Z"/>
          <path class="cls-13" d="M9.72,10.52l-.02-.06h-.17l-.02.06h.2ZM9.72,10.58l-.02.06h-.17l-.02-.06h.2Z"/>
          <path class="cls-26" d="M9.3,11.46s.02-.04.04-.04.04.02.04.04-.02.04-.04.04-.04-.02-.04-.04ZM9.88,9.84s.02-.04.04-.04.04.02.04.04-.02.04-.04.04-.04-.02-.04-.04ZM9.29,9.84s.02-.04.04-.04.04.02.04.04-.02.04-.04.04-.04-.02-.04-.04Z"/>
          <g>
            <path class="cls-13" d="M8.78,9.94l.22.27.05-.04-.22-.27s0-.02.01-.02h.16v-.06h-.16s-.05-.07-.09-.07c-.05,0-.1.04-.1.1,0,.04.03.08.06.09v.21s.06,0,.06,0v-.21s0,0,0,0Z"/>
            <path class="cls-13" d="M9.02,10.13l.06-.03.11.13-.04.06-.13-.16ZM8.97,10.17l-.04.06.11.13.06-.03-.13-.16Z"/>
          </g>
          <path class="cls-13" d="M9.31,10.01l-.06.02v.17l.06.02v-.21ZM9.37,10.01l.06.02v.17l-.06.02v-.21Z"/>
          <path class="cls-20" d="M9.24,10.55c0-.06.04-.1.1-.1s.1.04.1.1-.04.1-.1.1-.1-.04-.1-.1"/>
        </g>
        <path class="cls-22" d="M8.61,9.62h.14v-.04h-.14v.04Z"/>
        <path class="cls-4" d="M8.61,9.62h.14v-.04h-.14v.04Z"/>
        <g>
          <path class="cls-27" d="M8.59,11.36c.07.02.1.08.1.14,0,.09-.08.15-.17.15s-.18-.06-.18-.15c0-.06.03-.14.1-.14,0,0,0,0,0-.02,0,0-.02-.02-.02-.02,0,0,.03,0,.04,0,.02,0,.03.02.03.02,0,0,0-.02.02-.03.01-.01.02-.02.02-.02,0,0,.02.01.02.02,0,0,0,.02,0,.02,0,0,.01-.01.03-.02.01,0,.03,0,.03,0,0,0,0,.02,0,.02,0,0,0,.01,0,.02h0s0,0,0,0Z"/>
          <path class="cls-15" d="M8.51,11.75s-.13-.1-.19-.11c-.07-.02-.15,0-.19,0,0,0,.04.03.06.05.02.02.08.06.11.07.11.03.2,0,.2,0M8.54,11.75s.08-.1.17-.11c.1-.02.17,0,.21.02,0,0-.03.02-.05.03-.02.01-.07.06-.14.06-.07,0-.15,0-.16,0-.01,0-.02,0-.03,0"/>
          <path class="cls-25" d="M8.5,11.62s-.04-.06-.04-.11.02-.1.05-.13c.03.03.05.08.05.13,0,.05,0,.08-.03.11h-.02s-.02,0-.02,0Z"/>
          <path class="cls-15" d="M8.48,11.82s.02-.05.02-.09c0-.04,0-.08,0-.08h.03s.01.04.01.08,0,.08,0,.08c0,0-.02,0-.02,0,0,0-.02.01-.02.01h0s0,0,0,0Z"/>
        </g>
      </g>
      <path class="cls-42" d="M8.5,9.62h1.66v-2h-1.66v2Z"/>
      <path class="cls-17" d="M8.5,9.62h1.66v-2h-1.66v2Z"/>
      <g>
        <path class="cls-26" d="M9.54,9.36s-.02.02-.01.04c0,.02.02.04.02.04,0,0,0-.03,0-.04.01-.01.03-.01.03-.01,0,0-.02-.02-.02-.02,0,0-.03-.01-.03-.01h0ZM9.64,9.4s-.01.03,0,.05c.02.02.04.02.04.02,0,0-.01-.03-.01-.04,0-.02.02-.03.02-.03,0,0-.02,0-.03,0,0,0-.03.01-.03.01h0ZM9.35,8.15v-.02s0-.01,0-.01c0,0-.05,0-.08,0-.03,0-.05-.02-.08-.05-.03-.02-.04-.04-.05-.04-.04,0-.08.01-.08.01,0,0,.03.01.06.05.03.03.05.05.06.05.02,0,.09,0,.11,0,.02,0,.06,0,.06,0h0Z"/>
        <path class="cls-28" d="M9.26,8.18v-.02s.02.02.02.02h-.02M9.29,8.18v-.02s.03.02.03.02h-.03M9.27,8.06h.03s-.02.02-.02.02v-.02M9.31,8.07h.02s-.02.02-.02.02v-.02Z"/>
        <path class="cls-5" d="M9.6,8.06s0,.03,0,.05c0,.02,0,.04,0,.06,0,.01,0,.02,0,.03,0,0,0,.03,0,.03,0,0-.01,0-.02-.02,0,0-.01-.01-.02-.02,0,0,0,.03,0,.04,0,.01,0,.03.02.04,0,.01.03.03.03.05,0,.02,0,.05,0,.05,0,0-.02-.03-.03-.03-.01,0-.04-.02-.04-.02,0,0,.03.03.03.06s-.01.06-.01.06c0,0-.01-.02-.03-.04-.02-.02-.04-.03-.04-.03,0,0,.02.04.02.07s0,.09,0,.09c0,0-.01-.02-.03-.03-.01-.01-.03-.02-.03-.03,0,0,.02.02.02.04,0,.02.01.08.06.17.03.05.08.14.18.11.1-.03.06-.18.04-.25-.02-.07-.03-.15-.03-.17,0-.03.02-.11.02-.12,0-.01,0-.07,0-.12.01-.05.02-.07.03-.09,0-.02.01-.03.02-.05,0-.02,0-.05,0-.05,0,0,.02.04.02.05,0,.01,0,.05,0,.05,0,0,0-.04.03-.06.03-.02.06-.04.07-.05,0-.01.01-.02.01-.02,0,0,0,.07-.02.1-.01.02-.06.08-.06.08,0,0,.02,0,.04-.01.02,0,.03,0,.03,0,0,0-.02.02-.05.06-.03.04-.02.05-.03.08-.02.03-.03.04-.06.06-.04.03-.02.16-.01.17,0,.02.07.17.07.21,0,.04,0,.12-.05.17-.04.03-.1.03-.12.04-.01,0-.04.04-.04.1s.02.07.04.09c.02.02.04,0,.04.02,0,.01,0,.02.01.03,0,0,.01.02,0,.03,0,.01-.03.04-.04.07,0,.02-.03.08-.03.09s0,.04,0,.05c0,0,.03.04,0,.05-.01,0-.03,0-.03,0-.02,0-.03.02-.03.02-.01,0-.01,0-.01-.03,0-.02,0-.03,0-.03,0,0-.01,0-.01.02,0,0,0,.03,0,.03s-.02-.02-.03-.02c0,0-.03,0-.03-.02,0,0,.01-.03.02-.03.01,0,.03-.01.02-.02,0,0-.02,0-.02,0,0,0-.03,0-.03,0,0-.01,0-.02,0-.03,0,0-.02-.02,0-.03.02-.01.03,0,.05,0,.02,0,.03-.01.04-.02,0-.01,0-.04,0-.05-.01-.02-.03-.02-.03-.03,0,0-.01-.03-.01-.03,0,0,0,.04,0,.05,0,0,0,.03,0,.03,0,0-.01-.02-.02-.03-.01-.01-.02-.05-.02-.05,0,0,0,.03,0,.05s.01.03,0,.03c0,0-.03-.03-.03-.03,0,0-.03-.02-.03-.04,0-.02-.01-.04-.02-.05,0,0,0-.05,0-.06,0-.01.02-.04.02-.04h-.05s-.04,0-.05,0c0,.02,0,.06,0,.1.01.05.02.07.02.08,0,0-.02.03-.02.03,0,0-.02,0-.03,0,0,0-.02,0-.04,0s-.04,0-.05,0c0,0-.03-.01-.04-.01,0,0-.03.01-.02.03,0,.02,0,.03-.02.03,0,0-.02,0-.03,0-.01,0-.03,0-.03-.01,0-.01,0-.02.01-.03,0-.01,0-.02,0-.02,0,0-.02,0-.02,0,0,0-.02.02-.02.01,0,0-.01-.02-.01-.04s-.02-.04,0-.04c.02,0,.05.02.05,0,0-.01,0-.02,0-.03-.01,0-.03-.02-.01-.03.01-.01.02-.01.02-.02,0,0,.01-.03.02-.02.02.01,0,.03.02.05.02.02.03.03.07.03.03,0,.04,0,.04-.02s0-.03,0-.04c0,0,0-.04,0-.04,0,0-.02.01-.02.02,0,.01-.01.03-.01.03,0,0,0-.02,0-.04,0-.01,0-.03,0-.03,0,0,0-.03,0-.03,0,0,0,.03,0,.03,0,0,0,.04,0,.04,0,0-.02-.02-.02-.06,0-.03,0-.06,0-.07,0-.01.02-.06.07-.06.04,0,.08,0,.09,0,.01,0,.07-.01.07-.01,0,0-.1-.05-.12-.07-.02-.02-.06-.06-.07-.08-.01-.02-.02-.06-.02-.06,0,0-.02,0-.03.01-.02,0-.03.02-.04.04,0,.01-.02.04-.02.04,0,0,0-.03,0-.04s0-.03,0-.03c0,0-.01.05-.03.06-.02.02-.05.04-.05.04,0,0,0-.03,0-.03s0-.04,0-.04c0,0-.02.03-.04.03-.02,0-.06,0-.06.02,0,.02,0,.04,0,.05,0,.01-.02.02-.02.02,0,0-.01-.01-.03-.01-.01,0-.02,0-.02,0,0,0-.01-.01,0-.02,0,0,.02-.02.02-.03,0,0-.02,0-.03,0,0,0-.03,0-.03,0,0-.02,0-.03,0-.04,0-.01,0-.02,0-.02,0,0,.04,0,.04,0,0,0,0-.02-.03-.02-.02,0-.03-.02-.02-.03s.01-.01.02-.02,0-.03.02-.02c.02,0,.01.03.03.04.02,0,.06,0,.07,0,0,0,.04-.03.05-.04.01,0,.05-.04.05-.04,0,0-.03-.02-.03-.03,0,0-.03-.03-.03-.04,0,0-.05-.02-.06-.02s-.06-.02-.06-.02c0,0,.02,0,.03-.01s.02-.02.03-.02c0,0,0,0,0,0,0,0-.04,0-.05,0,0,0-.03-.02-.04-.02s-.03,0-.03,0c0,0,.03-.02.05-.02.02,0,.04,0,.04,0,0,0-.03,0-.04-.02,0-.01-.01-.03-.02-.04,0,0,0-.02-.02-.02-.01,0-.03.01-.04.01-.01,0-.02,0-.02-.02,0-.02,0-.01,0-.02,0,0-.02-.03,0-.03.01,0,.04,0,.05,0,0,0-.02-.02-.03-.03-.01,0-.03-.02-.02-.03.01,0,.02-.01.03-.02,0,0,.01-.03.02-.03.01,0,.03.05.04.04,0,0,.01-.03,0-.04,0-.01,0-.03,0-.03,0,0,.02.02.03.02.01,0,.04,0,.04,0,0,.01-.01.03-.02.04,0,.01-.01.04,0,.05,0,.02.02.04.04.05.01.01.04.02.06.03.02.01.06.05.07.05.01,0,.03.01.03.01,0,0,.02,0,.04,0s.07,0,.09,0c.02,0,.04-.02.04-.04,0-.02-.05-.03-.04-.05,0-.01.02-.02.04-.02.03,0,.06,0,.07-.03,0-.04,0-.06-.03-.07-.04,0-.06,0-.07-.04,0-.03-.01-.03,0-.04,0,0,.02-.01.05-.01.03,0,.06,0,.06,0,0,0,.01-.02.02-.03.01,0,.05-.01.05-.01,0,0,.05.03.09.06.04.03.08.08.08.08"/>
        <path class="cls-29" d="M9.26,8.04s0-.02,0-.02c0,0,0-.01,0-.01,0,0,.03,0,.03,0,0,0,0,0-.01.01,0,0,0,0,0,0"/>
        <path class="cls-29" d="M9.39,7.99v-.02s.02,0,.04,0c.02.01.03.04.03.04,0,0-.02,0-.03-.01,0,0,0,0-.01,0s-.01,0-.01,0c0,0,0-.01,0-.01h-.01s0,0,0,0Z"/>
        <path class="cls-2" d="M9.57,8.21s-.01-.02-.01-.02c0,0,0-.02,0-.02"/>
        <path class="cls-7" d="M8.89,8.03s.02.01.03.01c.01,0,.03,0,.03,0s0-.02,0-.03c0-.04-.04-.05-.04-.05,0,0,.01.03,0,.04,0,.02-.02.03-.02.03"/>
        <path class="cls-26" d="M8.89,8.03s.02.01.03.01c.01,0,.03,0,.03,0s0-.02,0-.03c0-.04-.04-.05-.04-.05,0,0,.01.03,0,.04,0,.02-.02.03-.02.03h0Z"/>
        <path class="cls-7" d="M8.81,8.07s-.01-.03-.04-.02c-.03,0-.05.03-.05.03,0,0,.03,0,.04,0,.01,0,.02.03.02.03,0,0,.02-.01.02-.02,0,0,.01-.02.01-.02"/>
        <path class="cls-26" d="M8.81,8.07s-.01-.03-.04-.02c-.03,0-.05.03-.05.03,0,0,.03,0,.04,0,.01,0,.02.03.02.03,0,0,.02-.01.02-.02,0,0,.01-.02.01-.02Z"/>
        <path class="cls-7" d="M8.78,8.18s-.03,0-.04.02c-.01.02-.01.05-.01.05,0,0,.02-.02.03-.02s.04,0,.04,0c0,0,0-.02,0-.03s-.01-.03-.01-.03"/>
        <path class="cls-26" d="M8.78,8.18s-.03,0-.04.02c-.01.02-.01.05-.01.05,0,0,.02-.02.03-.02s.04,0,.04,0c0,0,0-.02,0-.03s-.01-.03-.01-.03Z"/>
        <path class="cls-30" d="M9.12,8.29s-.03,0-.04.02c-.01.02-.01.04-.01.04,0,0,.02-.02.05-.01.03,0,.03.01.04.01.01,0,.04-.01.04-.01,0,0-.02.03-.02.05,0,.02,0,.03,0,.04,0,.03-.02.06-.02.06,0,0,.01,0,.03-.01.02,0,.04-.02.06-.03.01-.01.03-.04.03-.04,0,0,0,.04,0,.05,0,.02,0,.06,0,.06,0,0,.02-.02.03-.02,0,0,.02-.01.03-.02,0,0,.01-.04.01-.04,0,0,0,.03.01.05,0,.02.02.06.02.06,0,0,0-.03.02-.04.01-.01.02-.03.02-.04,0,0,0-.03,0-.03v.03M9.09,8.49s.02-.03.03-.04c.01,0,.04-.03.04-.03,0,0,.03-.02.03-.02M9.22,8.59s.04-.02.05-.03c.02-.01.04-.04.04-.04"/>
        <path class="cls-7" d="M8.86,8.55s-.01-.02-.04-.01c-.02,0-.04.03-.04.03,0,0,.02,0,.03,0,.01,0,.02.02.02.02,0,0,.01-.01.01-.02,0,0,.01-.02.01-.02"/>
        <path class="cls-26" d="M8.86,8.55s-.01-.02-.04-.01c-.02,0-.04.03-.04.03,0,0,.02,0,.03,0,.01,0,.02.02.02.02,0,0,.01-.01.01-.02,0,0,.01-.02.01-.02h0,0Z"/>
        <path class="cls-7" d="M8.84,8.65s-.02,0-.04.01c-.02.02-.02.05-.02.05,0,0,.02-.02.03-.01.01,0,.03,0,.03,0,0,0,0-.02,0-.02,0-.01,0-.03,0-.03"/>
        <path class="cls-26" d="M8.84,8.65s-.02,0-.04.01c-.02.02-.02.05-.02.05,0,0,.02-.02.03-.01.01,0,.03,0,.03,0,0,0,0-.02,0-.02,0-.01,0-.03,0-.03Z"/>
        <path class="cls-7" d="M8.88,8.75s0,.03.01.05c.01.02.04.02.04.02,0,0,0-.02,0-.03,0-.01.01-.03.01-.03,0,0-.01-.01-.02-.01s-.03,0-.03,0"/>
        <path class="cls-26" d="M8.88,8.75s0,.03.01.05c.01.02.04.02.04.02,0,0,0-.02,0-.03,0-.01.01-.03.01-.03,0,0-.01-.01-.02-.01s-.03,0-.03,0h0Z"/>
        <path class="cls-21" d="M9.43,8.8s.07.05.07.08c0,.04-.04.09-.04.09"/>
        <path class="cls-7" d="M9.12,9s-.02-.02-.04-.02c-.02,0-.05.02-.05.02,0,0,.03,0,.04,0,0,.01.01.02.01.02,0,0,.01,0,.02-.01,0,0,.02-.02.02-.02"/>
        <path class="cls-26" d="M9.12,9s-.02-.02-.04-.02c-.02,0-.05.02-.05.02,0,0,.03,0,.04,0,0,.01.01.02.01.02,0,0,.01,0,.02-.01,0,0,.02-.02.02-.02h0Z"/>
        <path class="cls-7" d="M9.05,9.1s-.03,0-.05.01c-.01.02-.01.05-.01.05,0,0,.02-.02.04-.02.02,0,.04.01.04.01,0,0,0-.02,0-.03s0-.02,0-.02"/>
        <path class="cls-26" d="M9.05,9.1s-.03,0-.05.01c-.01.02-.01.05-.01.05,0,0,.02-.02.04-.02.02,0,.04.01.04.01,0,0,0-.02,0-.03s0-.02,0-.02Z"/>
        <path class="cls-7" d="M9.12,9.21s-.01.02,0,.04c.01.02.03.03.03.03,0,0,0-.01,0-.03,0-.01.02-.03.02-.03h-.05"/>
        <g>
          <path class="cls-26" d="M9.12,9.21s-.01.02,0,.04c.01.02.03.03.03.03,0,0,0-.01,0-.03,0-.01.02-.03.02-.03h-.05s0-.01,0-.01ZM9.53,9.25s-.03,0-.04,0c-.01,0-.03.05-.03.05,0,0,.02-.02.04-.02.02,0,.03.01.03.01,0,0,0-.02,0-.03,0,0,0-.02,0-.02"/>
          <path class="cls-26" d="M9.53,9.25s-.03,0-.04,0c-.01,0-.03.05-.03.05,0,0,.02-.02.04-.02.02,0,.03.01.03.01,0,0,0-.02,0-.03,0,0,0-.02,0-.02h0Z"/>
        </g>
        <g>
          <g>
            <path class="cls-13" d="M9.58,7.91h0s0,0,0,.01c0,0-.02,0-.03,0,0,0,0,0,0-.01,0,0-.01,0-.02,0,0,0-.01-.02,0-.03,0,0,0,0,0,0h0s-.01,0-.01,0h0s-.02.02-.02.01c0,0,0,0,0,0,0,0,0,0,0,0-.02,0-.02-.04-.03-.05h0s0,.03,0,.06c0,.02,0,.04,0,.04.02,0,.06.03.1.06.04.03.07.06.08.09,0,0,.02-.01.04-.02.02,0,.04,0,.04,0h0s-.05,0-.05-.02c0,0,0,0,0,0,0,0,0,0-.01,0,0,0,0-.02,0-.02h0s0-.02,0-.02h-.01s0,0,0,0c0,0-.02,0-.03,0,0,0,0-.01,0-.02,0,0-.01,0-.01,0,0,0-.01-.02,0-.03,0,0,0-.01.01-.01h0"/>
            <path class="cls-13" d="M9.54,7.96h-.01s0-.01,0-.01c0,0,0,0,0,0h.01s.01.02.01.02c0,0,0,0,0,0,0,0,0,0,0,0h-.01M9.48,7.92h0s0,0,0-.01c0,0,0,0,0,0h0s0,.01,0,.01c0,0,0,0,0,0,0,0,0,0,0,0h0"/>
          </g>
          <circle class="cls-13" cx="9.57" cy="7.99" r="0" transform="translate(-2.67 10.36) rotate(-50.81)"/>
          <path class="cls-13" d="M9.59,8.01h0s0,0,0,0c0,0,0,0,0,0h0s0-.02,0-.02c0,0,0,0,0,0,0,0,0,0,0,0h0"/>
          <circle class="cls-13" cx="9.62" cy="8.04" r="0" transform="translate(-2.81 6.4) rotate(-32.36)"/>
          <g>
            <path class="cls-13" d="M9.53,7.83h-.02s0,.03,0,.03h0s0,0,0,0l.02-.02s0-.01,0-.02Z"/>
            <path class="cls-13" d="M9.48,7.84v.02s.03,0,.03,0h0s0,0,0,0l-.02-.03s-.01,0-.02,0h0Z"/>
            <path class="cls-13" d="M9.54,7.88h-.02s-.02-.02-.02-.02h0s0,0,0,0h.03s0,.02,0,.02Z"/>
            <circle class="cls-13" cx="9.51" cy="7.86" r=".01"/>
            <path class="cls-13" d="M9.43,7.83s0-.02,0-.03c0,0-.01-.02-.01-.02,0,0,.01,0,.03,0,.01.01,0,.03,0,.03,0,0,0,0,0,0"/>
            <path class="cls-13" d="M9.47,7.84h-.01s-.02,0-.02,0h0s0,0,0,0h.03s0,.01,0,.02h0Z"/>
            <path class="cls-13" d="M9.43,7.83s0-.01,0-.01c0,0,0,0,0,.01,0,0,0,0,0,.01,0,0,0,0,0-.01M9.61,7.88h-.02s0,.03,0,.03h0s0,0,0,0h.03s0-.03,0-.03h0Z"/>
            <path class="cls-13" d="M9.55,7.89v.02s.03,0,.03,0h0s0,0,0,0v-.03s-.03,0-.03,0Z"/>
            <path class="cls-13" d="M9.61,7.93h-.02s-.01-.02-.01-.02h0s0,0,0,0h.03s0,.02,0,.03Z"/>
            <circle class="cls-13" cx="9.58" cy="7.91" r=".01"/>
            <path class="cls-13" d="M9.67,7.94v.02s-.03.01-.03.01h0s0,0,0,0v-.03s.02,0,.03,0Z"/>
            <path class="cls-13" d="M9.67,8h-.02s-.01-.03-.01-.03h0s0,0,0,0h.03s0,.03,0,.03Z"/>
            <path class="cls-13" d="M9.62,7.94v.02s.02.01.02.01h0s0,0,0,0v-.03s-.02,0-.03,0Z"/>
            <circle class="cls-13" cx="9.64" cy="7.97" r=".01"/>
            <path class="cls-13" d="M9.69,8.04s.02,0,.03,0c0,0,.02,0,.02,0,0,0,0-.02,0-.03-.01-.01-.03,0-.03,0,0,0,0,0,0,0"/>
            <path class="cls-13" d="M9.68,8.01v.02s.02.02.02.02h0s0,0,0,0v-.03s-.02,0-.02,0Z"/>
            <path class="cls-13" d="M9.7,8.05s0,0,0,0c0,0,0,0-.01,0,0,0,0,0,0,0,0,0,0,0,.01,0"/>
          </g>
        </g>
      </g>
      <path class="cls-38" d="M9.41,7.99s0,0,0,0c0,0,0,0,0,0,0,0,0,0,.01,0,0,0,0,0,0,0,0,0,0,0,0,0"/>
      <g>
        <circle class="cls-13" cx="9.45" cy="7.9" r="0" transform="translate(-2.51 10.84) rotate(-53.68)"/>
        <circle class="cls-13" cx="9.51" cy="7.94" r="0" transform="translate(-2.52 10.9) rotate(-53.68)"/>
      </g>
      <path class="cls-36" d="M7.97,9.62c0-.36.24-.66.54-.66s.54.29.54.66-.24.66-.54.66-.54-.29-.54-.66"/>
      <path class="cls-19" d="M7.97,9.62c0-.36.24-.66.54-.66s.54.29.54.66-.24.66-.54.66-.54-.29-.54-.66Z"/>
      <path class="cls-33" d="M8.13,9.61c0-.27.17-.48.38-.48s.38.22.38.48-.17.48-.38.48-.38-.22-.38-.48"/>
      <g>
        <path class="cls-3" d="M8.13,9.61c0-.27.17-.48.38-.48s.38.22.38.48-.17.48-.38.48-.38-.22-.38-.48h0Z"/>
        <g>
          <path class="cls-13" d="M8.33,9.28s-.04.05-.04.1.02.09.02.09c0-.02-.03-.03-.05-.03-.03,0-.05.02-.05.05,0,0,0,.02,0,.03l.02.04s.02-.02.03-.02c.02,0,.04.02.04.04,0,0,0,0,0,0h-.04v.04h.04l-.03.06.04-.02.03.03.03-.03.04.02-.03-.06h.04v-.04h-.04s0,0,0,0c0-.02.02-.04.04-.04.01,0,.03,0,.03.02l.02-.04s0-.02,0-.03c0-.03-.02-.05-.05-.05-.02,0-.04.01-.05.03,0,0,.02-.04.02-.09s-.05-.1-.05-.1"/>
          <path class="cls-13" d="M8.26,9.62h.14v-.04h-.14v.04ZM8.68,9.28s-.04.05-.04.1.02.09.02.09c0-.02-.02-.03-.05-.03-.03,0-.05.02-.05.05,0,0,0,.02,0,.03l.02.04s.02-.02.03-.02c.02,0,.04.02.04.04,0,0,0,0,0,0h-.04v.04h.04l-.03.06.04-.02.03.03.03-.03.04.02-.03-.06h.04v-.04h-.04s0,0,0,0c0-.02.02-.04.04-.04.01,0,.03,0,.03.02l.02-.04s0-.02,0-.03c0-.03-.02-.05-.05-.05-.02,0-.04.01-.05.03,0,0,.02-.04.02-.09s-.05-.1-.05-.1M8.51,9.61s-.04.05-.04.1.02.09.02.09c0-.02-.02-.03-.05-.03-.03,0-.05.02-.05.05,0,0,0,.02,0,.03l.02.04s.02-.02.03-.02c.02,0,.04.02.04.04,0,0,0,0,0,0h-.04v.04h.04l-.03.06.04-.02.03.03.03-.03.04.02-.03-.06h.04v-.04h-.04s0,0,0,0c0-.02.02-.04.04-.04.01,0,.03,0,.03.02l.02-.04s0-.02,0-.03c0-.03-.02-.05-.05-.05-.02,0-.04.01-.05.03,0,0,.02-.04.02-.09s-.05-.1-.05-.1"/>
          <path class="cls-13" d="M8.43,9.95h.14v-.04h-.14v.04ZM8.61,9.62h.14v-.04h-.14v.04Z"/>
        </g>
      </g>
      <g>
        <path class="cls-23" d="M8.51,11.89c-.43,0-.86-.12-1.22-.31-.26-.14-.44-.43-.44-.76v-3.2s3.31,0,3.31,0v2s0,1.2,0,1.2c0,.33-.18.62-.44.76-.36.19-.78.31-1.21.31h0Z"/>
        <path class="cls-11" d="M10.58,11.16h.76v.21h-.76v-.21Z"/>
        <path class="cls-13" d="M5.67,11.16h.76v.21h-.76v-.21Z"/>
      </g>
    </g>
  </g>
</svg>