<?xml version="1.0" encoding="UTF-8"?>
<svg id="Layer_2" data-name="Layer 2" xmlns="http://www.w3.org/2000/svg" viewBox="0 0 28.35 17.01">
  <defs>
    <style>
      .cls-1 {
        fill: #0cb14b;
      }

      .cls-2, .cls-3 {
        fill: #fff;
      }

      .cls-4 {
        fill: #010101;
        stroke-linejoin: round;
      }

      .cls-4, .cls-5, .cls-6, .cls-3 {
        stroke: #010101;
      }

      .cls-5 {
        fill: none;
      }

      .cls-6 {
        fill: #c8202f;
      }
    </style>
  </defs>
  <g id="Layer_1-2" data-name="Layer 1">
    <g>
      <path class="cls-1" d="M0,0h28.35v17.01H0V0Z"/>
      <path class="cls-2" d="M0,0h28.35v8.5H0V0Z"/>
      <g>
        <g>
          <g>
            <path class="cls-6" d="M8.74,4.03c-.92.14-3.25.36-4.16.21l.18.43c1.51-.14,2.95.35,4.29-.16l-.3-.48Z"/>
            <path class="cls-6" d="M5.17,5.08c-.58-.17-1.53-1.16-1.68-1.75.45.31,1.53.71,1.91.67-.13.09-.44.33-.68.36.12.22.33.5.45.73Z"/>
          </g>
          <path class="cls-6" d="M7.02,4.78c.17.23,1.05.13,1.49-.14l-.12-.19-.09.16-.14-.15-.04.24-.25-.18-.04.21-.16-.19-.06.23-.23-.18-.09.24c-.07-.08-.11-.19-.11-.29-.09.03-.16.15-.17.23h0ZM7.1,4.04c0,.06.07.23.21.28,0-.07-.09-.25-.03-.32l.12.11.04-.21.16.11.02-.24.17.11v-.27c-.27.02-.61.34-.68.43h0ZM24.07,6.75c-.07-.16-.29-.35-.48-.47.11-.25.21-.5.31-.75-.29.06-.9.1-1.26.06.67-.64,2.07-1.95,2.53-2.55-.17.82-.04,2.65.29,3.29-.36-.14-.77-.43-1-.75-.14.46-.3.96-.39,1.16"/>
          <path class="cls-6" d="M11.01,3.26c.04.21.05.37.21.43.16.06.5.18.72.54-.26-.07-.63-.17-.66.07-.03.23.07.22.25.26.23.05.45.32.46.68-.19-.11-.45-.2-.62-.2s-.21.03-.26.23c-.07.33.06.35.21.37.16.02.49.17.51.72-.18-.15-.53-.23-.75-.27-.12-.02-.14.04-.16.25-.02.21.01.28.22.34.21.06.45.21.51.53-.2-.09-.51-.06-.61-.02s-.15.26.05.69c.43-.14.87-.23,1.32-.27.99-.1.75-.76.75-1.79s2.18-2.19,5.48-4.03c-.8,1.93.29,1.75.9,1.53.61-.22,2.03-.78,3.14-1.24-1.53.98-2.3,2.01-.96,2.47-1.72.52-2.51,1.93-1.57,2.83-.64-.22-1.53.19-1.9.76.67-.06,1.97.1,2.76.31.76.21,2.01-.04,2.12-.68,0-.03,0-.07,0-.1,0-.22-.06-.39-.15-.52-.19-.27-.54-.33-.72-.33-.27,0-.55.11-.55.3s.17.27.5.27c.18,0,.47.03.77-.24.09.12.15.29.15.52,0,.03,0,.07,0,.1-.29.16-.62.24-.95.24-.67,0-1.3-.26-1.3-.96s.75-1.1,1.36-1.1c.84,0,2.01.32,2.01,1.59,0,1.61-2.22,2.37-3.54,2.37.22.18.47.34.74.44.93.35,1.76.78,2.05,1.43-.36,0-.94-.28-1.21-.56.75.88-.16,2.49-.06,3.03.1.58.82.22.82.67,0,.4-.42.33-.58.15-.16-.18-.66-.33-.92-.15-.23.16-.59.24-.74.08-.16-.16-.73-.1-.97.12-.24.22-.58.24-.68.07-.11-.18-.08-.4.37-.47-.2-.2-.8.14-.91-.24-.08-.27.08-.4.61-.36-.05-.13-.44-.19-.39-.46.05-.27.35-.44.71-.04.95,1.06,1.39.47,1.72,0-.1-.24.01-.4.21-.55-.1-.17-.04-.41.03-.57-.16-.09-.25-.49-.08-.63-.14,0-.35-.15-.35-.41-.19.11-.43.09-.59-.06-.2.11-.72.13-.95-.11-.31.12-.87.09-1.01-.14-.28.07-.78-.16-.89-.41-.16-.01-.32-.06-.46-.14-.42.3-.99.88-.42,1.32.56.44,1.74.08,1.76,1.18-.27-.22-.77-.16-.94-.38-.56.8-1.38,1.52-2.58,1.82.18.11.5.12.63.11.26-.02.48.19.28.44-.2.25-.61.04-.85-.17-.35-.3-.58-.13-.67-.06-.09.07-.22.11-.39-.05-.17-.16-.32-.05-.41.05-.14.16-.45-.21-.95.23-.24.21-.82-.06-.59-.37-.24.06-.67-.27-.31-.6.32-.3.94.39,1.44.19-.11-.14-.35-.39-.84-.45-.25-.03-.3-.31-.18-.51.15-.25.6-.08.9.31.24.31.55.31.88.25.23-.14.58-.15.74-.1,0-.15.25-.28.43-.28-.01-.2.05-.38.36-.43.03,0,.05,0,.08-.01-.21,0-.42-.07-.56-.23-.42.1-.88-.09-.95-.47-.66-.05-.73-.71-.57-.93.01-.02.03-.03.04-.05-.2.15-.45.22-.76.11-.29.4-.8.57-1.28.44-.13.2-.33.34-.56.4.02.24-.03.52-.35.84.08-.44-.5-.58-.38-1.3-.04.52-1.62,1.38-1.87,2.51.23.1.48.17.64.14.39-.08.52.32.41.48s-.44.24-.58.1c-.14-.14-.42.05-.55-.21-.14-.26-.51-.17-.67,0s-.68-.22-1.06.17c-.14.15-.62.3-.9.22-.28-.08-.45-.36-.36-.51-.19-.17-.19-.38-.01-.56-.07-.25.15-.76.53-.56.24.12,1.07.71,1.8.04.63-.59.26-1.06.67-1.13-.05-.24.1-.54.27-.6-.05-.1-.06-.21-.02-.32-.1,0-.19-.03-.28-.06-.31.09-.64.14-.96.14,0,.24-.29.82-.54,1.1-.08-2.19-2.18-2.41-2.46-4.16-.01.26-.29.52-.32.74-.03.22-.17.39-.42.29-.25-.1-.31-.52-.06-.58.25-.06.2-.46.36-.51s.18-.21.12-.41c-.06-.2.03-.44.09-.59.06-.15-.03-.4-.25-.49-.22-.09-.29-.31-.21-.5-.23-.16-.16-.5.15-.57.39-.08.38.53.6.6-.03-.12.01-.35.1-.5-.13-.26.03-.47.28-.47.44,0,.29.7.19.92.15-.2.38-.43.55-.27.18.16.15.49-.04.64-.16.12-.48.31-.39.52.19.32.3.7.32,1.19.26.19.43.41.43.59.17.01.5.15.55.34.21-.02.52.02.61.2.07-.03.25-.05.36-.04,0-.16.05-.31.15-.43-.36-.38-.35-.98.02-1.22-.1-.25-.06-.71.28-.95,0-.25.06-.58.41-.79-.05-.27.13-.64.35-.66-.05-.26-.01-.58.29-.73-.07-.07-.11-.18-.1-.28-.53.11-.74.42-.91.71-.02-.12-.05-.28-.13-.4,0,.31-.24.42-.25.85-.18-.18-.24-.47-.23-.67,0-.16-.27-.31-.19-.59.42.37,1.27-.44,2-.18-.72-1.44-1.24-.75-1.61-.5-.37.25-.63-.12-.59-.36-.49-.11-1.08-.09-1.72.03.47-.59,1.58-.85,2.4-.79.36-.63.78-.54,1.2-.48.27.04.59.04.91.02.2-.53,1.36-.58,1.48-1,.1.08.04.38-.06.64.3-.09.56-.18.65-.36.05.17-.03.63-.15.77.12-.03.24-.05.37-.04-.37.2-.83.5-.9.55-.07.05-.12.15.07.25-.21.04-.8.24-1.04.08"/>
          <path class="cls-6" d="M3.06,5.95c.28-.19.66-.05.74.23.05.18-.27.31-.29.14-.04-.22-.19-.36-.44-.37h0ZM4.15,5.37c.32-.11.64.13.64.42,0,.19-.35.23-.32.06.03-.22-.07-.4-.31-.48ZM5.35,5.88c.31.14.36.52.14.73-.14.13-.42-.07-.27-.17.19-.14.24-.33.13-.55h0ZM2.9,9.91c.27.2.65.08.75-.2.06-.18-.25-.32-.29-.16-.05.22-.2.36-.46.36ZM4.79,13.94c.11-.31.51-.4.74-.22.15.12-.03.4-.15.28-.17-.16-.37-.19-.59-.06h0ZM4.43,14.76c.02-.32.48-.53.75-.41.18.07.09.39-.07.31-.21-.11-.52-.08-.69.11ZM4.93,15.53c-.12-.31.13-.62.43-.62.2,0,.24.33.07.31-.24-.03-.42.08-.5.31ZM9.85,15.26c.04-.32-.27-.57-.57-.5-.19.04-.16.37,0,.31.22-.08.43-.02.56.19h0ZM11.74,15.36c-.07-.32.22-.59.52-.55.19.03.19.36.02.31-.23-.06-.43.02-.54.24ZM16.44,15.28c.03-.32-.3-.56-.59-.48-.19.05-.14.38.02.31.22-.09.42-.04.57.17h0ZM11.18,14.68c-.05-.32.28-.6.58-.54.19.04.14.39-.03.33-.23-.07-.43,0-.55.21h0ZM11.62,13.76c.02-.32.41-.53.68-.42.18.07.06.41-.1.32-.21-.11-.42-.09-.58.1h0ZM18.82,15.53c-.07-.32.22-.59.52-.55.19.03.19.36.02.31-.23-.06-.43.02-.54.24h0ZM23.49,15.38c.07-.32-.21-.59-.51-.55-.19.03-.2.36-.02.31.23-.06.43.02.54.24h0ZM18.22,14.79c-.05-.32.26-.58.55-.52.19.04.17.37,0,.31-.23-.07-.43,0-.55.2h0ZM18.39,13.91c0-.32.35-.53.63-.43.18.07.1.39-.05.31-.21-.11-.42-.07-.58.12h0Z"/>
          <path class="cls-5" d="M19.57,3.31c-.8.26-3.87,1.41-4.44,1.59s-.86.22-1.19.96"/>
          <path class="cls-5" d="M18.08,2.45c-2.01,1.24-3.64,2.31-4.1,3.33s-.43,1.63-1.55,1.81M9.21,9.5c.5-.56,1.55-1.24,2.55-1.28-.2.3-.36.62-.5.96"/>
          <path class="cls-5" d="M11.24,9.56c.25-.32.88-1,1.28-1.28-.19.54-.5,1.81-.33,2.69.1-.84.56-2.13,1.05-2.87.36.82.84,1.97.84,2.71.1-.88-.1-2.39-.42-3.05.86.42,1.92,1.61,2.39,2.35-.31-1.04-1.38-2.29-1.95-2.69,1.4.24,3.43,1.1,4.18,1.73-1.23-1.1-2.74-1.95-3.81-2.35,1.67-.14,4.81.22,5.71.56-1.32-.72-4.04-1.1-5.67-1,1.72-.7,4.77-1.49,7.24-1.83-1.88.1-4.31.58-6.8,1.12,1.11-.72,4.54-2.07,5.36-2.31M9.71,2.83c.15-.47.76-.6,1.25-.74M10.54,3.18c-.42-.03-.49-.17-.26-.33.15-.1.45-.26.66-.28-.05,0-.2-.05-.27-.06.22-.09.59-.22.71-.34"/>
          <path class="cls-5" d="M10.05,2.42c-.16.01-.33.03-.5.03M8.97,4.76c-.1,0-.2.02-.3.04M7.27,9.84c0,.29.1.56.29.78.17.18,1.19.24,1.23-.1M7.42,9.41c.36.38,1.51.15,1.51-.13M7.44,8.2c.13.3,1.46.57,1.49.22M7.73,7.25c.01.35,1.23.58,1.27.32M8.13,6.46c.05.27.86.53.97.41M8.48,5.81c.04.19.62.36.82.29M8.77,5.08c.12.14.35.26.75.33M6.76,3.66c.01-.21.22-.24.19-.45M8.96,4.52c.07.11.26.34.28.51.1-.08.19-.25.22-.33.1.08.17.19.21.32.04-.12.12-.33.13-.46.15.03.29.1.41.2.02-.13-.04-.3-.15-.37.12,0,.23-.02.33-.07-.07-.1-.19-.23-.3-.29.1-.03.25-.15.31-.2-.09-.04-.26-.13-.37-.18.06-.06.12-.18.15-.27M7.22,2.9c-.07,0-.1.15.03.24.09.07.09.35-.07.42"/>
          <path class="cls-5" d="M9.67,5.02c-.46,1.02-.88,2.94-.74,4.34M9.43,11.27c0,.21.35.25.33-.25"/>
          <path class="cls-5" d="M9.73,11.27c.04.18.4.22.32-.31"/>
          <path class="cls-5" d="M9.59,11.41c.02.39.28.37.3,0M10.07,11.14c.1.24.4.12.31-.41"/>
          <path class="cls-5" d="M10.39,10.96c.12.2.39.04.42-.31M9.03,9.85c-.18.19-.39.61-.14,1.01.15.23.55.36.59.22M8.9,10.86c-.16.02-.4.36-.28.67.08.22.56.36.64.19M13.81,11.14c.52.06,1.21-.28,1.26-.96"/>
          <path class="cls-5" d="M15.01,10.5c.29.18.9.24,1.15-.22M15.28,10.64c-.27.6-.52,1.23.04,1.69.46.38.8-.19,1.36.38.17.17-.03.49-1.72,1.41M6.91,9.88c.11.22.1.66-.11.6M5.26,14.83c.36-.52.78-.1,1.08-.19"/>
          <path class="cls-3" d="M8.03,2.99c-.06.14.1.35.26.36.18.02.44-.09.39-.28"/>
          <path class="cls-5" d="M7.85,3.01c.09-.12,1.19.27,1.63,0M4.29,6.72c-.04.09-.03.35.14.5M12.06,14.75c.08-.1.39-.2.62-.14.22.05.63-.02.89-.12"/>
          <g>
            <path class="cls-5" d="M9.67,5.02c-.1.98.13,2.48.73,3.14M9.36,5.89c.02.87.24,1.9.68,2.47M9.11,6.83c.09.66.28,1.32.59,1.75M8.96,7.83c.1.39.25.75.44,1.02M8.91,8.78c.06.13.13.25.21.36"/>
            <path class="cls-5" d="M9.65,5.63c-.03.31-.23.55-.41.69M9.67,6.06c-.03.31-.25.59-.54.72M9.73,6.48c-.03.31-.35.69-.7.86M9.82,6.91c-.03.31-.44.78-.85.93M9.95,7.34c-.12.42-.6.91-1.03,1.02M10.14,7.77c-.03.31-.67.94-1.23,1.12"/>
          </g>
          <path class="cls-5" d="M6.3,9.67c.07.28-.16.54-.27.47"/>
          <path class="cls-5" d="M7.5,10.66c-1.09-.22-1.9-.58-2.34-1.43-.12-.22.19-.28.17-.48M4.99,7.56c-.19-.32-.23-.67-.13-.89"/>
          <path class="cls-5" d="M5.75,9.33c0,.18-.22.41-.3.32M7.56,10.62c-.13.29.12.84.65,1.03M8.61,11.53c-.06.04-.11.11-.13.18M9.04,12.12c-.09.15-.46.04-.53-.09M7.57,13.76c-.44.42-.9.44-1.44.5-.54.06-.7-.17-.89.02M11.11,10.64c.06.28.04.56-.21.98-.14.23,0,.48.02.78M13.52,11.45c.24-.18.4-.48.48-.71M12.76,11.56c.27-.36.32-.84.11-1.23M11.49,11.99c.16-.24.26-.57.26-1.01M8.24,12.63c.04.2.37.29.42.19"/>
          <path class="cls-5" d="M10.83,10.23c0,.2-.21.35-.37.23.02.29-.2.38-.36.24.03.41-.32.45-.55.13-.26,1.23-1.14,2.14-1.2,2.74-.02.14-.58.1-.43-.31M14.63,11.36c-.31-.04-.87-.13-1.11.09M14.76,12.29c-.29.11-.52.15-.71.14M15.56,13.13c.29-.01.59-.19.71-.65M15,12.9c.24-.06.45-.22.57-.44"/>
          <path class="cls-5" d="M16.42,13.23c-.18-.05-.57-.13-.86-.1M15.38,13.9c.12-.06-.07-.33-.26-.33M13.19,14.35c.27-.11.52-.24.76-.4M14.69,13.85c.14.05.35.22.28.28M16.03,10.12c.17.28.48.46.9.28.03.08.13.17.25.24M18.34,10.05c.21.16-.16.75-.7.73"/>
          <path class="cls-5" d="M21.27,13.65c.07.17.35.15.45,0,.12-.17.33-.7.21-1.75-.13-1.06-1.19-1.2-2.43-1.43-1.23-.24-1.55-.62-1.8-1.32"/>
          <path class="cls-5" d="M21.48,13.1c.1.17.4.13.44-.04M21.51,12.53c.16.09.46.06.45-.14M21.43,11.9c.14,0,.5.02.48-.14M21.08,11.5c.12-.08.44-.42.26-.52M20.5,11.44c.2-.11.42-.68.18-.73M19.55,11.33c.31-.12.61-.74.4-.78M18.53,11.19c.51-.13.67-.79.47-.85M19.23,14.14c.53.04.83.31,1.04.42M19.11,8.73c.49-.04.96.66,1.63,1.19M24.47,5.59c.09-.31.17-.6.2-.77M19.54,14.73c.12-.02.25-.03.38-.03M24.28,4.58c-.07.19-.22.58-.37.95M11.12,7.86c-.92.3-1.88.88-2.49,1.96.33.08.98,0,1.28-.1.02.26.02.6.02.82.29-.22.65-.54.92-.62-.02.26-.02.72-.02.9.4-.4,1.15-.44,1.36.16.17-.88,1.55-.92,1.88-.16.38-.7,1.34-.96,1.97-.7.27-.74,1.46-1.14,2.24-.96-.26-.34-.21-.71,0-1.03"/>
        </g>
        <path class="cls-4" d="M8.16,3.03l.41.07s-.29.37-.41-.07Z"/>
      </g>
    </g>
  </g>
</svg>