<?xml version="1.0" encoding="UTF-8"?>
<svg id="Layer_2" data-name="Layer 2" xmlns="http://www.w3.org/2000/svg" viewBox="0 0 28.35 17.01">
  <defs>
    <style>
      .cls-1 {
        fill: #0cb14b;
      }

      .cls-2 {
        fill: #fff;
      }

      .cls-3 {
        fill: #c8202f;
      }

      .cls-4 {
        fill: #010101;
      }
    </style>
  </defs>
  <g id="Layer_1-2" data-name="Layer 1">
    <g>
      <path class="cls-1" d="M0,0h28.35v17.01H0V0Z"/>
      <path class="cls-2" d="M0,0h28.35v8.5H0V0Z"/>
      <g>
        <g>
          <g>
            <g>
              <path class="cls-3" d="M8.74,4.03c-.92.14-3.25.36-4.16.21l.18.43c1.51-.14,2.95.35,4.29-.16l-.3-.48Z"/>
              <path class="cls-4" d="M7.55,4.75c-.35,0-.7-.03-1.07-.05-.56-.04-1.14-.08-1.73-.03l-.18-.43c.88.14,3.18-.06,4.17-.21h0s.3.48.3.48c-.49.19-.98.24-1.49.24ZM5.36,4.64c.38,0,.75.03,1.12.05.89.06,1.74.12,2.56-.19l-.3-.48c-.99.15-3.29.35-4.16.21l.18.43c.2-.02.41-.03.61-.03Z"/>
            </g>
            <g>
              <path class="cls-3" d="M5.17,5.08c-.58-.17-1.53-1.16-1.68-1.75.45.31,1.53.71,1.91.67-.13.09-.44.33-.68.36.12.22.33.5.45.73Z"/>
              <path class="cls-4" d="M5.17,5.08h0c-.58-.17-1.53-1.16-1.69-1.75.42.29,1.43.67,1.86.67.02,0,.04,0,.06,0l-.03.03c-.14.1-.42.31-.65.33.06.1.13.22.21.34.09.13.18.27.24.39h0ZM3.49,3.33c.16.6,1.1,1.58,1.68,1.75-.06-.12-.15-.25-.24-.38-.08-.12-.16-.24-.21-.34.22-.03.51-.24.65-.34l.03-.02s-.04,0-.06,0c-.43,0-1.43-.38-1.86-.67Z"/>
            </g>
          </g>
          <g>
            <path class="cls-3" d="M7.02,4.78c.17.23,1.05.13,1.49-.14l-.12-.19-.09.16-.14-.15-.04.24-.25-.18-.04.21-.16-.19-.06.23-.23-.18-.09.24c-.07-.08-.11-.19-.11-.29-.09.03-.16.15-.17.23h0ZM7.1,4.04c0,.06.07.23.21.28,0-.07-.09-.25-.03-.32l.12.11.04-.21.16.11.02-.24.17.11v-.27c-.27.02-.61.34-.68.43h0ZM24.07,6.75c-.07-.16-.29-.35-.48-.47.11-.25.21-.5.31-.75-.29.06-.9.1-1.26.06.67-.64,2.07-1.95,2.53-2.55-.17.82-.04,2.65.29,3.29-.36-.14-.77-.43-1-.75-.14.46-.3.96-.39,1.16"/>
            <path class="cls-4" d="M24.07,6.75c-.07-.17-.3-.36-.48-.47.1-.24.21-.49.31-.75-.31.06-.91.1-1.26.07l.22-.21c.71-.67,1.9-1.8,2.31-2.34-.16.81-.04,2.65.29,3.29-.38-.15-.78-.45-1-.75-.14.49-.31.97-.39,1.16.08-.19.25-.67.39-1.16.22.3.62.6,1,.75-.34-.64-.46-2.48-.29-3.29-.41.54-1.6,1.67-2.31,2.34l-.22.21c.35.04.95,0,1.26-.07-.1.26-.21.51-.31.75.18.11.41.31.48.47h0ZM7.47,4.91c-.21,0-.38-.04-.45-.13h0c.01-.09.08-.2.17-.24,0,.11.04.21.11.29l.09-.24.23.18.06-.23.16.19.04-.21.25.18.04-.24.14.15.09-.16.12.19c-.28.17-.71.27-1.05.27ZM7.03,4.78c.16.22,1.04.14,1.49-.15l-.12-.19-.09.16-.14-.15-.04.24-.25-.18-.04.21-.16-.19-.06.23-.23-.18-.09.24c-.07-.08-.11-.19-.11-.29-.09.04-.16.15-.17.23ZM7.31,4.32c-.14-.05-.21-.22-.21-.28h0c.07-.09.41-.4.68-.43v.27s-.17-.11-.17-.11v.24s-.18-.11-.18-.11l-.04.21-.12-.11s0,.13.01.21c.01.04.02.09.02.11ZM7.1,4.04c0,.06.07.23.21.28,0-.03-.01-.07-.02-.11-.02-.08-.05-.16,0-.21l.12.11.04-.21.16.11v-.24s.18.11.18.11v-.27c-.27.03-.61.34-.68.43Z"/>
          </g>
          <g>
            <path class="cls-3" d="M11.01,3.26c.04.21.05.37.21.43.16.06.5.18.72.54-.26-.07-.63-.17-.66.07-.03.23.07.22.25.26.23.05.45.32.46.68-.19-.11-.45-.2-.62-.2s-.21.03-.26.23c-.07.33.06.35.21.37.16.02.49.17.51.72-.18-.15-.53-.23-.75-.27-.12-.02-.14.04-.16.25-.02.21.01.28.22.34.21.06.45.21.51.53-.2-.09-.51-.06-.61-.02s-.15.26.05.69c.43-.14.87-.23,1.32-.27.99-.1.75-.76.75-1.79s2.18-2.19,5.48-4.03c-.8,1.93.29,1.75.9,1.53.61-.22,2.03-.78,3.14-1.24-1.53.98-2.3,2.01-.96,2.47-1.72.52-2.51,1.93-1.57,2.83-.64-.22-1.53.19-1.9.76.67-.06,1.97.1,2.76.31.76.21,2.01-.04,2.12-.68,0-.03,0-.07,0-.1,0-.22-.06-.39-.15-.52-.19-.27-.54-.33-.72-.33-.27,0-.55.11-.55.3s.17.27.5.27c.18,0,.47.03.77-.24.09.12.15.29.15.52,0,.03,0,.07,0,.1-.29.16-.62.24-.95.24-.67,0-1.3-.26-1.3-.96s.75-1.1,1.36-1.1c.84,0,2.01.32,2.01,1.59,0,1.61-2.22,2.37-3.54,2.37.22.18.47.34.74.44.93.35,1.76.78,2.05,1.43-.36,0-.94-.28-1.21-.56.75.88-.16,2.49-.06,3.03.1.58.82.22.82.67,0,.4-.42.33-.58.15-.16-.18-.66-.33-.92-.15-.23.16-.59.24-.74.08-.16-.16-.73-.1-.97.12-.24.22-.58.24-.68.07-.11-.18-.08-.4.37-.47-.2-.2-.8.14-.91-.24-.08-.27.08-.4.61-.36-.05-.13-.44-.19-.39-.46.05-.27.35-.44.71-.04.95,1.06,1.39.47,1.72,0-.1-.24.01-.4.21-.55-.1-.17-.04-.41.03-.57-.16-.09-.25-.49-.08-.63-.14,0-.35-.15-.35-.41-.19.11-.43.09-.59-.06-.2.11-.72.13-.95-.11-.31.12-.87.09-1.01-.14-.28.07-.78-.16-.89-.41-.16-.01-.32-.06-.46-.14-.42.3-.99.88-.42,1.32.56.44,1.74.08,1.76,1.18-.27-.22-.77-.16-.94-.38-.56.8-1.38,1.52-2.58,1.82.18.11.5.12.63.11.26-.02.48.19.28.44-.2.25-.61.04-.85-.17-.35-.3-.58-.13-.67-.06-.09.07-.22.11-.39-.05-.17-.16-.32-.05-.41.05-.14.16-.45-.21-.95.23-.24.21-.82-.06-.59-.37-.24.06-.67-.27-.31-.6.32-.3.94.39,1.44.19-.11-.14-.35-.39-.84-.45-.25-.03-.3-.31-.18-.51.15-.25.6-.08.9.31.24.31.55.31.88.25.23-.14.58-.15.74-.1,0-.15.25-.28.43-.28-.01-.2.05-.38.36-.43.03,0,.05,0,.08-.01-.21,0-.42-.07-.56-.23-.42.1-.88-.09-.95-.47-.66-.05-.73-.71-.57-.93.01-.02.03-.03.04-.05-.2.15-.45.22-.76.11-.29.4-.8.57-1.28.44-.13.2-.33.34-.56.4.02.24-.03.52-.35.84.08-.44-.5-.58-.38-1.3-.04.52-1.62,1.38-1.87,2.51.23.1.48.17.64.14.39-.08.52.32.41.48s-.44.24-.58.1c-.14-.14-.42.05-.55-.21-.14-.26-.51-.17-.67,0s-.68-.22-1.06.17c-.14.15-.62.3-.9.22-.28-.08-.45-.36-.36-.51-.19-.17-.19-.38-.01-.56-.07-.25.15-.76.53-.56.24.12,1.07.71,1.8.04.63-.59.26-1.06.67-1.13-.05-.24.1-.54.27-.6-.05-.1-.06-.21-.02-.32-.1,0-.19-.03-.28-.06-.31.09-.64.14-.96.14,0,.24-.29.82-.54,1.1-.08-2.19-2.18-2.41-2.46-4.16-.01.26-.29.52-.32.74-.03.22-.17.39-.42.29-.25-.1-.31-.52-.06-.58.25-.06.2-.46.36-.51s.18-.21.12-.41c-.06-.2.03-.44.09-.59.06-.15-.03-.4-.25-.49-.22-.09-.29-.31-.21-.5-.23-.16-.16-.5.15-.57.39-.08.38.53.6.6-.03-.12.01-.35.1-.5-.13-.26.03-.47.28-.47.44,0,.29.7.19.92.15-.2.38-.43.55-.27.18.16.15.49-.04.64-.16.12-.48.31-.39.52.19.32.3.7.32,1.19.26.19.43.41.43.59.17.01.5.15.55.34.21-.02.52.02.61.2.07-.03.25-.05.36-.04,0-.16.05-.31.15-.43-.36-.38-.35-.98.02-1.22-.1-.25-.06-.71.28-.95,0-.25.06-.58.41-.79-.05-.27.13-.64.35-.66-.05-.26-.01-.58.29-.73-.07-.07-.11-.18-.1-.28-.53.11-.74.42-.91.71-.02-.12-.05-.28-.13-.4,0,.31-.24.42-.25.85-.18-.18-.24-.47-.23-.67,0-.16-.27-.31-.19-.59.42.37,1.27-.44,2-.18-.72-1.44-1.24-.75-1.61-.5-.37.25-.63-.12-.59-.36-.49-.11-1.08-.09-1.72.03.47-.59,1.58-.85,2.4-.79.36-.63.78-.54,1.2-.48.27.04.59.04.91.02.2-.53,1.36-.58,1.48-1,.1.08.04.38-.06.64.3-.09.56-.18.65-.36.05.17-.03.63-.15.77.12-.03.24-.05.37-.04-.37.2-.83.5-.9.55-.07.05-.12.15.07.25-.21.04-.8.24-1.04.08"/>
            <path class="cls-4" d="M5.79,15.37c-.06,0-.12,0-.18-.02-.17-.05-.31-.17-.36-.31-.03-.08-.03-.15,0-.2-.09-.08-.14-.18-.14-.27,0-.1.04-.2.13-.29-.04-.15.02-.41.18-.54.07-.06.19-.11.35-.02.02.01.05.03.08.04.32.18,1.06.61,1.72,0,.34-.32.39-.6.43-.8.03-.18.05-.29.24-.32-.05-.25.11-.54.27-.6-.05-.1-.06-.21-.03-.32-.09,0-.19-.03-.28-.06-.31.09-.64.14-.96.14,0,.23-.28.81-.54,1.1-.05-1.19-.69-1.8-1.31-2.39-.53-.5-1.02-.97-1.15-1.76,0,.14-.09.28-.17.42-.07.11-.13.22-.15.32-.02.14-.08.24-.16.29-.07.04-.16.04-.26,0-.16-.06-.23-.24-.22-.37,0-.11.07-.18.16-.21.14-.03.19-.17.23-.3.03-.1.06-.19.13-.21.06-.02.1-.05.12-.1.04-.07.04-.18,0-.31-.06-.19.02-.4.09-.59.03-.07.02-.16-.01-.25-.04-.11-.13-.2-.24-.24-.1-.04-.18-.12-.22-.21-.04-.09-.04-.19,0-.29-.11-.07-.16-.19-.13-.31.03-.13.13-.23.28-.26.23-.05.32.16.4.33.05.12.11.24.19.26-.03-.13.01-.35.1-.5-.06-.12-.06-.24,0-.33.06-.09.16-.14.29-.14.11,0,.18.04.24.12.13.2.04.62-.05.8.1-.14.25-.31.4-.32,0,0,.01,0,.02,0,.05,0,.09.02.13.05.08.07.12.19.12.31,0,.13-.07.26-.16.33-.02.02-.05.03-.07.05-.17.12-.4.28-.32.46.2.33.3.72.32,1.19.27.19.43.41.43.59.17,0,.5.14.55.34.24-.03.53.03.61.2.07-.03.24-.05.36-.04,0-.15.05-.31.15-.43-.19-.2-.29-.48-.25-.74.02-.2.12-.37.28-.47-.1-.23-.08-.7.28-.95,0-.24.06-.57.41-.79-.03-.16.02-.37.13-.51.06-.09.14-.14.22-.14-.03-.16-.07-.55.29-.73-.07-.07-.11-.17-.1-.28-.52.11-.72.4-.91.71-.03-.13-.06-.28-.13-.4,0,.14-.05.25-.11.35-.06.12-.14.26-.14.49-.18-.17-.24-.46-.23-.67,0-.06-.04-.12-.08-.19-.07-.11-.15-.23-.1-.4.21.18.52.08.88-.05.35-.12.75-.26,1.12-.13-.27-.53-.52-.81-.79-.87-.04,0-.07-.01-.11-.01-.22,0-.41.15-.57.28-.05.04-.1.08-.14.11-.14.1-.29.11-.41.03-.12-.08-.2-.25-.18-.39-.47-.1-1.05-.09-1.71.03.47-.59,1.59-.85,2.4-.79.34-.6.75-.54,1.15-.49h.05c.24.04.54.05.91.03.1-.28.46-.42.81-.56.31-.12.61-.24.66-.44.1.08.04.38-.06.64.28-.08.56-.17.65-.36.05.17-.03.63-.14.77.1-.03.21-.04.31-.04.02,0,.03,0,.05,0-.38.21-.84.51-.9.55-.04.03-.06.06-.06.1,0,.05.05.1.13.15-.04,0-.1.02-.16.04-.27.07-.68.17-.88.04.2.13.6.02.88-.04.06-.02.12-.03.16-.04-.09-.04-.13-.09-.14-.15,0-.04.02-.08.06-.1.06-.04.52-.34.9-.55-.01,0-.02,0-.04,0-.11,0-.22.01-.33.04.11-.14.2-.6.15-.77-.09.19-.37.28-.65.36.1-.26.17-.56.06-.64-.05.2-.35.32-.66.44-.35.14-.71.28-.81.56-.38.02-.67,0-.91-.02h-.05c-.4-.06-.81-.12-1.15.48-.08,0-.15,0-.23,0-.78,0-1.73.26-2.16.8.67-.13,1.25-.14,1.71-.03-.02.14.05.31.18.39.12.08.26.07.41-.03.05-.03.09-.07.14-.11.18-.15.42-.33.68-.27.27.06.52.35.79.88-.37-.13-.77,0-1.12.13-.36.13-.67.23-.88.05-.05.17.03.29.11.39.05.07.09.13.08.19-.01.21.06.49.23.67,0-.23.08-.37.14-.49.06-.11.11-.21.11-.35.07.12.1.27.13.4.18-.31.39-.6.91-.71,0,.1.03.21.1.28-.36.18-.32.57-.29.73-.08,0-.15.06-.22.14-.11.14-.16.35-.13.51-.35.21-.42.55-.41.79-.36.25-.38.71-.28.95-.15.1-.25.27-.28.47-.03.26.06.54.25.74-.1.12-.15.27-.15.43-.12,0-.29,0-.36.04-.07-.15-.3-.21-.51-.21-.04,0-.07,0-.1,0-.05-.19-.38-.33-.55-.34,0-.17-.16-.39-.43-.59-.02-.46-.13-.85-.32-1.19-.08-.18.15-.35.32-.47.03-.02.05-.04.07-.05.09-.07.15-.19.16-.33,0-.12-.04-.24-.12-.31-.04-.04-.1-.06-.15-.05-.15.02-.3.18-.4.32.08-.18.17-.6.04-.8-.05-.08-.13-.12-.23-.12-.12,0-.23.05-.28.14-.06.09-.06.21,0,.33-.09.14-.14.37-.1.5-.09-.03-.14-.14-.2-.26-.08-.18-.17-.38-.4-.33-.14.03-.25.13-.28.26-.02.12.03.24.13.31-.04.1-.04.2,0,.29.04.09.11.17.22.21.11.04.2.13.24.24.04.09.04.18.01.25-.08.19-.15.4-.09.59.04.13.04.24,0,.31-.03.05-.07.08-.13.1-.07.02-.1.11-.13.21-.04.12-.09.27-.23.3-.09.02-.15.1-.16.2,0,.13.06.31.22.37.1.04.19.04.26,0,.08-.05.14-.15.16-.29.01-.1.08-.21.15-.32.08-.14.17-.28.17-.42.13.79.63,1.26,1.15,1.76.62.59,1.26,1.2,1.31,2.39.26-.29.54-.86.54-1.1.33,0,.65-.05.96-.14.09.03.18.05.28.06-.03.11-.02.22.03.32-.16.06-.32.35-.27.6-.19.03-.21.15-.24.32-.04.21-.09.49-.43.8-.66.61-1.4.19-1.72,0-.03-.02-.06-.03-.08-.04-.16-.08-.28-.04-.35.02-.16.12-.22.38-.18.53-.09.09-.14.19-.13.29,0,.1.05.19.14.27-.03.05-.04.12,0,.2.05.14.2.26.36.31.29.08.76-.08.9-.22.23-.23.51-.19.73-.15.15.03.26.05.33-.02.09-.1.25-.16.38-.16.02,0,.04,0,.05,0,.11.01.19.07.23.16.08.15.2.15.32.15.09,0,.17,0,.23.06.05.05.14.08.23.07.14-.01.27-.08.34-.17.06-.08.05-.22-.02-.33-.08-.12-.22-.18-.39-.15-.14.03-.38-.02-.64-.14.14-.66.74-1.22,1.21-1.68.32-.31.6-.58.65-.79,0-.01,0-.03,0-.04,0,.01,0,.03,0,.04,0-.01,0-.03,0-.04h0s0,.03,0,.04c-.05.37.09.58.22.77.11.15.2.29.16.48.34-.35.37-.63.35-.84.23-.06.43-.2.56-.4.47.13.99-.04,1.28-.44.28.1.54.06.76-.11-.02.02-.03.04-.04.05-.08.11-.11.35-.01.56.1.22.3.35.58.37.03.15.12.28.26.37.19.13.46.16.7.1.14.15.33.23.53.23.01,0,.02,0,.03,0-.01,0-.03,0-.04,0-.2,0-.38-.08-.52-.23-.24.06-.5.02-.7-.1-.14-.09-.23-.22-.26-.37-.27-.02-.48-.15-.58-.37-.1-.21-.07-.45.01-.56.01-.02.03-.03.04-.05-.22.17-.48.21-.76.11-.29.4-.81.57-1.28.44-.13.2-.33.34-.56.4.02.21,0,.49-.35.84.03-.19-.06-.33-.16-.48-.13-.19-.27-.4-.22-.77-.05.21-.33.48-.65.79-.48.46-1.07,1.02-1.21,1.68.27.11.5.16.64.14.17-.03.31.02.39.15.07.11.08.25.02.33-.07.09-.2.16-.34.17-.1,0-.18-.02-.24-.07-.06-.06-.14-.06-.23-.06-.12,0-.25,0-.33-.15-.05-.09-.13-.14-.23-.16-.02,0-.04,0-.05,0-.14,0-.29.06-.38.16-.06.07-.18.05-.33.02-.22-.04-.5-.09-.73.15-.11.11-.45.24-.72.24ZM19.42,15.32s-.04,0-.06,0c-.08-.01-.15-.05-.19-.11-.04-.06-.08-.16-.04-.26.05-.11.18-.18.4-.22-.09-.08-.24-.07-.41-.06-.22.02-.44.04-.5-.18-.03-.11-.02-.19.03-.25.08-.1.27-.13.58-.11-.02-.05-.08-.08-.15-.12-.13-.08-.27-.16-.24-.33.03-.13.11-.23.22-.27.03,0,.05-.01.08-.01.13,0,.27.08.41.24.36.4.67.59.94.59.01,0,.02,0,.03,0,.34-.02.57-.34.73-.58-.11-.26.04-.42.21-.55-.12-.19-.02-.46.03-.57-.08-.05-.16-.19-.17-.34-.01-.13.02-.23.09-.28h0c-.14,0-.34-.16-.34-.41-.19.11-.43.09-.59-.06-.19.11-.72.13-.95-.11-.33.13-.87.08-1.01-.14-.03,0-.07.01-.11.01-.29,0-.69-.21-.78-.42-.16-.01-.32-.06-.46-.14-.19.14-.65.5-.66.88,0,.16.08.31.24.43.2.15.48.21.75.27.18.04.37.08.53.15-.16-.07-.34-.1-.53-.14-.27-.05-.55-.11-.75-.27-.16-.12-.24-.27-.24-.43,0-.38.46-.75.66-.88.14.08.3.13.46.14.09.22.49.42.78.42.04,0,.08,0,.11-.01.14.22.69.26,1.01.14.23.24.76.22.95.11.16.15.4.17.59.06,0,.25.2.41.35.41-.06.06-.1.16-.08.28.01.15.08.29.17.34-.05.11-.15.38-.03.57-.18.13-.32.29-.21.55-.17.24-.4.56-.74.58-.01,0-.02,0-.03,0-.28,0-.59-.19-.95-.59-.17-.19-.34-.27-.49-.22-.11.03-.2.13-.22.26-.03.17.11.26.23.33.07.04.13.08.15.13-.31-.02-.5.01-.58.11-.05.06-.06.14-.03.25.06.22.28.2.5.18.17-.02.32-.03.41.06-.22.04-.35.11-.4.22-.04.09,0,.19.04.25.04.06.1.1.19.11.16.02.35-.05.49-.18.24-.22.81-.28.97-.12.15.15.51.08.74-.08.25-.18.76-.03.92.15.09.1.28.18.42.13.07-.03.15-.1.15-.27,0-.21-.16-.24-.34-.28-.2-.04-.42-.08-.48-.39-.03-.18.05-.48.14-.82.19-.72.43-1.62-.08-2.21h0c.51.59.27,1.49.08,2.21-.09.35-.17.64-.14.82.05.3.28.35.48.39.18.04.34.07.34.28,0,.18-.08.25-.15.28-.14.05-.33-.02-.42-.13-.16-.18-.67-.33-.92-.15-.24.16-.59.23-.74.08-.16-.16-.74-.09-.97.12-.13.11-.29.18-.44.18ZM15.66,15.24c-.2,0-.44-.14-.6-.28-.35-.3-.57-.13-.67-.06-.08.06-.21.12-.39-.05-.06-.05-.11-.08-.17-.08h-.01c-.1,0-.18.08-.22.13-.05.06-.12.05-.23.03-.17-.03-.41-.07-.72.2-.15.13-.42.08-.56-.05-.1-.09-.11-.21-.03-.32-.02,0-.04,0-.06,0-.13,0-.29-.09-.35-.21-.04-.08-.08-.23.1-.39.17-.15.41-.05.67.06.26.11.53.23.78.13-.14-.16-.38-.39-.84-.45-.1-.01-.17-.06-.21-.14-.05-.1-.04-.25.03-.37.04-.07.11-.11.2-.12,0,0,.01,0,.02,0,.21,0,.48.17.68.43.25.32.58.3.88.25.23-.14.58-.15.74-.1,0-.15.24-.28.43-.28,0-.16.02-.37.36-.43.03,0,.05,0,.08-.01h0s-.05,0-.08.01c-.33.06-.36.27-.36.43-.19,0-.43.13-.43.28-.16-.05-.51-.04-.74.1-.3.05-.63.07-.88-.25-.2-.25-.47-.43-.68-.43,0,0-.02,0-.02,0-.09,0-.16.05-.2.12-.07.12-.08.26-.03.37.04.08.11.13.21.14.46.06.7.28.84.45-.25.1-.52-.01-.78-.13-.26-.11-.5-.21-.67-.06-.18.17-.14.32-.1.39.08.14.28.24.41.21-.08.11-.07.23.03.32.14.13.41.17.55.05.32-.27.55-.23.73-.2.1.02.18.03.23-.03.04-.05.12-.12.22-.13h.01c.06,0,.12.03.18.08.18.17.3.11.39.05.1-.07.32-.24.67.06.16.14.4.28.6.28.01,0,.02,0,.04,0,.09,0,.16-.05.21-.11.08-.1.1-.2.05-.29-.05-.09-.17-.15-.3-.15-.01,0-.02,0-.04,0-.1,0-.44,0-.63-.11,1.04-.26,1.91-.87,2.58-1.83.09.11.26.15.45.19.18.04.36.08.49.19,0-.09-.01-.17-.03-.24.02.07.03.15.03.25-.13-.1-.32-.15-.49-.18-.19-.04-.36-.08-.45-.19-.67.95-1.54,1.57-2.58,1.82.19.11.52.11.63.11.15,0,.28.05.34.15.05.09.03.19-.05.29-.05.07-.12.1-.21.11-.01,0-.02,0-.04,0ZM23.52,11.79c-.35,0-.93-.27-1.21-.56.28.29.87.56,1.21.56-.32-.71-1.26-1.14-2.05-1.43-.23-.09-.48-.23-.74-.44.48,0,1.12-.11,1.73-.33-.63.24-1.28.33-1.72.33.26.21.5.35.74.44.79.29,1.74.72,2.05,1.44h0ZM21.62,8.52c-.21,0-.41-.02-.59-.07-.7-.19-1.74-.33-2.43-.33-.12,0-.23,0-.33.01.35-.54,1.25-.99,1.91-.76-.34-.32-.47-.74-.37-1.17.17-.71.93-1.36,1.94-1.66-.42-.14-.65-.35-.69-.62-.06-.48.53-1.14,1.65-1.85-1.06.44-2.5,1.01-3.14,1.24-.35.13-.81.22-1.04-.02-.22-.23-.18-.75.14-1.52l-.44.25c-3.03,1.68-5.04,2.79-5.04,3.78,0,.18,0,.34.01.5.03.75.05,1.21-.77,1.29-.45.04-.89.13-1.32.27-.18-.38-.14-.56-.12-.62.01-.04.04-.06.06-.08.1-.04.41-.07.61.02-.07-.35-.35-.48-.51-.53-.21-.06-.24-.13-.22-.34,0-.13.02-.21.06-.24.02-.02.05-.02.1-.01.16.03.56.11.75.27-.03-.64-.46-.71-.51-.72-.08,0-.16-.02-.2-.08-.04-.06-.04-.15-.01-.29.04-.2.09-.23.26-.23s.42.08.62.2c-.01-.38-.25-.63-.46-.68-.02,0-.04,0-.05-.01-.15-.03-.23-.04-.2-.25,0-.05.03-.09.07-.11.12-.08.38-.01.59.04h0c-.21-.34-.54-.47-.7-.53h-.02c-.14-.06-.16-.19-.2-.37,0-.02,0-.05-.01-.07h0s0,.05.01.07c.03.18.06.31.2.36h.02c.16.07.49.19.7.54h0c-.21-.06-.46-.12-.59-.04-.04.02-.06.06-.07.11-.03.2.05.22.2.25.02,0,.03,0,.05.01.22.05.45.3.46.68-.2-.11-.46-.2-.62-.2s-.21.03-.25.23c-.03.14-.03.23.01.29.04.06.12.07.2.08.05,0,.49.08.51.72-.2-.16-.59-.24-.75-.27-.05,0-.07,0-.1.01-.04.03-.05.1-.06.23-.02.21,0,.28.22.34.16.05.44.18.51.53-.2-.09-.51-.06-.61-.02-.03.01-.05.04-.06.07-.02.06-.06.24.12.62.43-.14.87-.23,1.32-.27.82-.08.8-.54.77-1.29,0-.16-.01-.32-.01-.5,0-.99,2-2.1,5.04-3.78l.44-.25c-.32.77-.36,1.29-.14,1.52.23.24.69.14,1.04.02.64-.23,2.08-.8,3.14-1.24-1.12.72-1.7,1.37-1.65,1.85.03.27.26.47.68.62-1.01.31-1.77.96-1.93,1.66-.1.43.03.84.37,1.17-.66-.22-1.55.22-1.91.76.65-.06,1.94.09,2.76.31.56.15,1.33.06,1.77-.22.2-.13.32-.28.36-.46-.29.16-.62.24-.95.24-.81,0-1.3-.36-1.3-.96,0-.72.79-1.1,1.36-1.1.47,0,2.01.11,2.01,1.6,0,.21-.04.41-.11.59.07-.18.1-.38.1-.59,0-1.48-1.54-1.59-2.01-1.59-.57,0-1.36.38-1.36,1.1,0,.6.48.96,1.3.96.33,0,.66-.08.95-.24,0-.03,0-.06.01-.1,0-.21-.05-.38-.15-.52-.25.22-.48.24-.66.24-.04,0-.08,0-.11,0-.34,0-.5-.09-.5-.27s.28-.3.55-.3c.11,0,.5.02.72.33.09.13.14.3.15.5v.02s0,.07,0,.1c-.03.18-.15.34-.36.46-.3.19-.75.29-1.18.29ZM22.3,6.82c-.27,0-.55.11-.55.3s.16.27.5.27c.03,0,.07,0,.11,0,.18,0,.41-.02.66-.24-.22-.31-.61-.33-.72-.33Z"/>
          </g>
          <g>
            <path class="cls-3" d="M3.06,5.95c.28-.19.66-.05.74.23.05.18-.27.31-.29.14-.04-.22-.19-.36-.44-.37h0ZM4.15,5.37c.32-.11.64.13.64.42,0,.19-.35.23-.32.06.03-.22-.07-.4-.31-.48ZM5.35,5.88c.31.14.36.52.14.73-.14.13-.42-.07-.27-.17.19-.14.24-.33.13-.55h0ZM2.9,9.91c.27.2.65.08.75-.2.06-.18-.25-.32-.29-.16-.05.22-.2.36-.46.36ZM4.79,13.94c.11-.31.51-.4.74-.22.15.12-.03.4-.15.28-.17-.16-.37-.19-.59-.06h0ZM4.43,14.76c.02-.32.48-.53.75-.41.18.07.09.39-.07.31-.21-.11-.52-.08-.69.11ZM4.93,15.53c-.12-.31.13-.62.43-.62.2,0,.24.33.07.31-.24-.03-.42.08-.5.31ZM9.85,15.26c.04-.32-.27-.57-.57-.5-.19.04-.16.37,0,.31.22-.08.43-.02.56.19h0ZM11.74,15.36c-.07-.32.22-.59.52-.55.19.03.19.36.02.31-.23-.06-.43.02-.54.24ZM16.44,15.28c.03-.32-.3-.56-.59-.48-.19.05-.14.38.02.31.22-.09.42-.04.57.17h0ZM11.18,14.68c-.05-.32.28-.6.58-.54.19.04.14.39-.03.33-.23-.07-.43,0-.55.21h0ZM11.62,13.76c.02-.32.41-.53.68-.42.18.07.06.41-.1.32-.21-.11-.42-.09-.58.1h0ZM18.82,15.53c-.07-.32.22-.59.52-.55.19.03.19.36.02.31-.23-.06-.43.02-.54.24h0ZM23.49,15.38c.07-.32-.21-.59-.51-.55-.19.03-.2.36-.02.31.23-.06.43.02.54.24h0ZM18.22,14.79c-.05-.32.26-.58.55-.52.19.04.17.37,0,.31-.23-.07-.43,0-.55.2h0ZM18.39,13.91c0-.32.35-.53.63-.43.18.07.1.39-.05.31-.21-.11-.42-.07-.58.12h0Z"/>
            <path class="cls-4" d="M4.93,15.53h0c-.05-.14-.04-.29.05-.42.09-.13.23-.2.38-.2h0c.06,0,.12.04.15.1.03.06.03.13,0,.18-.02.02-.04.04-.08.04,0,0,0,0-.01,0-.02,0-.05,0-.07,0-.21,0-.35.11-.42.31h0ZM5.36,14.91c-.15,0-.29.08-.38.2-.08.12-.1.27-.05.41.07-.2.22-.31.42-.31.02,0,.05,0,.07,0,0,0,0,0,.01,0,.03,0,.06-.01.07-.04.03-.04.03-.11,0-.17-.03-.06-.09-.1-.15-.1h0ZM18.82,15.53h0c-.03-.15,0-.29.11-.4.11-.12.26-.17.41-.15.06,0,.11.05.13.12.02.06.02.14-.02.18-.02.03-.06.04-.09.02-.24-.06-.43.02-.54.24h0ZM19.28,14.98c-.13,0-.25.06-.34.15-.1.11-.14.25-.11.4.11-.21.3-.29.54-.23.04,0,.07,0,.09-.02.03-.04.04-.11.02-.17s-.07-.11-.13-.11c-.02,0-.04,0-.06,0ZM23.49,15.38h0c-.11-.22-.3-.3-.54-.24-.04,0-.07,0-.09-.03-.04-.04-.04-.11-.02-.18.02-.06.07-.11.14-.11.02,0,.04,0,.06,0,.13,0,.26.06.35.16.1.11.14.26.11.4h0ZM23.1,15.12c.17,0,.31.09.4.26.03-.14,0-.29-.11-.4-.09-.1-.22-.16-.35-.16-.02,0-.04,0-.06,0-.06,0-.11.05-.13.11s-.02.14.02.17c.02.02.04.03.06.03,0,0,.02,0,.03,0,.05-.01.1-.02.14-.02ZM11.74,15.36h0c-.03-.15,0-.29.11-.4.09-.1.22-.16.35-.16.02,0,.04,0,.06,0,.06,0,.11.05.14.11.02.06.02.14-.02.18-.02.03-.06.04-.1.02-.05-.01-.1-.02-.14-.02-.17,0-.31.09-.39.26h0ZM12.19,14.81c-.13,0-.25.06-.35.15-.1.11-.14.25-.11.4.11-.21.3-.29.54-.23.04,0,.07,0,.09-.02.04-.04.04-.11.02-.17-.02-.06-.07-.11-.13-.11-.02,0-.04,0-.06,0ZM16.44,15.29h0c-.14-.2-.34-.26-.57-.17-.04.02-.07,0-.1-.01-.04-.03-.06-.11-.04-.17.02-.07.06-.11.12-.13.14-.04.3,0,.42.1.12.1.18.24.17.38h0ZM16.07,15.07c.15,0,.27.07.37.21.01-.15-.05-.28-.17-.38-.12-.1-.28-.14-.42-.1-.06.02-.1.06-.12.13-.02.07,0,.14.04.17.03.02.06.03.1.01.07-.03.13-.04.2-.04ZM9.85,15.26h0c-.13-.21-.33-.27-.56-.19-.04.01-.07,0-.1-.02-.04-.04-.05-.11-.03-.17.02-.07.06-.11.12-.12.15-.03.3,0,.42.12.11.1.17.24.15.39h0ZM9.47,15.03c.15,0,.28.08.38.22.02-.14-.04-.28-.15-.39-.12-.11-.28-.15-.42-.12-.06.01-.1.06-.12.12-.02.07,0,.14.03.17.02.02.06.03.1.02.06-.02.12-.03.18-.03ZM18.22,14.79h0c-.02-.15.03-.29.14-.4.11-.11.27-.16.42-.13.06.01.11.06.13.12.02.07,0,.14-.03.18-.03.02-.06.03-.1.02-.23-.08-.43,0-.55.2h0ZM18.68,14.27c-.12,0-.24.05-.33.13-.11.1-.16.24-.14.39.12-.21.32-.28.55-.2.04.01.07,0,.09-.02.04-.04.05-.11.03-.17-.02-.06-.06-.11-.12-.12-.03,0-.06,0-.09,0ZM4.43,14.77h0c0-.13.09-.26.23-.35.17-.11.38-.13.53-.07.06.02.09.07.1.14,0,.07-.02.14-.07.17-.03.02-.06.02-.1,0-.22-.12-.52-.07-.69.11h0ZM5.01,14.32c-.12,0-.24.04-.35.1-.14.09-.22.21-.23.34.16-.18.47-.22.69-.1.04.02.07.02.1,0,.04-.03.07-.1.06-.17,0-.06-.04-.12-.1-.14-.05-.02-.11-.03-.17-.03ZM11.18,14.69h0c-.02-.15.03-.29.15-.4.12-.12.29-.17.44-.14.06.01.1.05.11.11.02.07,0,.16-.04.2-.03.03-.06.04-.1.02-.23-.07-.43,0-.55.21h0ZM11.68,14.14c-.12,0-.25.05-.35.15-.11.11-.17.25-.15.39.12-.21.32-.28.55-.2.04.01.08,0,.1-.02.04-.04.06-.13.04-.2-.02-.06-.06-.1-.11-.11-.03,0-.05,0-.08,0ZM5.44,14.03s-.05-.01-.07-.03c-.17-.17-.38-.19-.59-.06h0c.05-.14.17-.25.32-.29.15-.04.31-.02.42.07.06.05.06.12.05.16-.01.07-.06.13-.11.15,0,0-.02,0-.03,0ZM5.05,13.85c.12,0,.22.05.32.14.03.03.06.04.09.03.05-.02.1-.08.11-.15,0-.04,0-.11-.05-.15-.11-.09-.27-.12-.42-.07-.15.04-.27.15-.32.29h0c.09-.06.18-.08.27-.08ZM18.39,13.92h0c0-.15.08-.29.2-.37.13-.09.29-.11.43-.06.06.02.1.07.1.14,0,.07-.02.14-.06.17-.03.02-.07.02-.1,0-.22-.11-.42-.07-.58.12h0ZM18.87,13.46c-.1,0-.19.03-.27.09-.12.08-.2.22-.2.36.16-.18.37-.22.58-.11.04.02.07.02.1,0,.04-.03.07-.1.06-.17,0-.06-.05-.11-.1-.13-.05-.02-.1-.03-.16-.03ZM11.62,13.76h0c0-.15.09-.28.23-.37.14-.09.32-.11.46-.05.05.02.08.07.09.12,0,.08-.03.16-.08.19-.03.02-.07.02-.11,0-.21-.12-.42-.08-.58.1h0ZM12.13,13.31c-.1,0-.2.03-.29.09-.13.08-.22.22-.23.36.16-.18.37-.21.58-.09.03.02.07.02.1,0,.05-.04.09-.12.08-.19,0-.06-.04-.1-.09-.12-.05-.02-.11-.03-.17-.03ZM3.19,10.01c-.11,0-.21-.03-.3-.1h0s0,0,0,0h0c.25,0,.41-.13.46-.35,0-.04.03-.06.06-.07.05-.02.13.01.18.07.03.03.07.09.04.16-.04.13-.15.23-.3.27-.05.02-.1.02-.15.02ZM2.9,9.91c.13.09.29.12.45.07.14-.04.25-.15.3-.27.02-.07-.02-.13-.04-.16-.05-.05-.13-.08-.18-.07-.03,0-.05.03-.06.07-.05.23-.21.36-.46.36ZM5.38,6.65s-.05,0-.07-.01c-.07-.02-.12-.08-.13-.12,0-.03,0-.06.04-.08.19-.14.24-.34.13-.55h0s0,0,0,0c.15.07.25.19.27.35.02.14-.02.29-.13.38-.03.03-.07.04-.11.04ZM5.35,5.88c.11.21.06.41-.13.55-.03.02-.04.05-.04.08,0,.05.06.1.13.12.07.02.14.01.18-.03.1-.09.15-.24.13-.38-.03-.15-.12-.28-.27-.34ZM3.6,6.4s-.03,0-.04,0c-.03-.01-.05-.04-.06-.07-.04-.23-.19-.36-.44-.37h0,0c.13-.09.3-.11.46-.06.14.05.25.16.28.29.02.08-.02.13-.05.16-.04.04-.1.07-.15.07ZM3.06,5.95c.25.01.41.14.44.37,0,.04.03.06.06.07.06.02.13,0,.19-.06.03-.03.07-.08.05-.16-.04-.13-.14-.24-.28-.29-.16-.06-.32-.03-.45.05ZM4.58,5.96s-.06,0-.09-.02c-.03-.02-.04-.05-.03-.08.03-.23-.08-.4-.31-.48h0s0,0,0,0c.16-.05.33-.02.46.07.12.09.18.22.18.35,0,.06-.04.11-.1.14-.04.02-.07.03-.11.03ZM4.15,5.37c.23.08.34.25.31.48,0,.04,0,.06.03.08.04.03.13.03.19,0,.06-.03.1-.08.1-.14,0-.13-.07-.26-.18-.35-.13-.1-.3-.12-.45-.07Z"/>
          </g>
          <path class="cls-4" d="M13.94,5.86c.31-.68.58-.77,1.07-.92.04-.01.08-.02.12-.04.27-.09,1.12-.4,2.03-.73.98-.36,2-.73,2.41-.87h0c-.41.14-1.43.51-2.41.87-.9.33-1.76.64-2.03.73-.04.01-.08.03-.12.04-.49.15-.76.24-1.07.92Z"/>
          <path class="cls-4" d="M9.21,9.5h0c.54-.61,1.6-1.24,2.55-1.28-.2.3-.36.63-.5.96.13-.33.3-.65.5-.96-.96.04-2.01.67-2.55,1.28ZM12.43,7.59c.89-.15,1.05-.56,1.31-1.24.07-.17.14-.36.23-.57.47-1.03,2.13-2.12,4.1-3.33h0c-1.97,1.21-3.63,2.3-4.1,3.33-.09.21-.17.4-.23.57-.26.69-.42,1.1-1.32,1.24Z"/>
          <path class="cls-4" d="M12.18,10.98c-.16-.82.11-2.06.33-2.69-.4.29-1.04.97-1.27,1.28h0c.24-.31.87-.99,1.28-1.28-.22.63-.49,1.87-.33,2.69.11-.86.58-2.15,1.04-2.87.42.95.84,2.02.84,2.71.1-.88-.11-2.39-.42-3.05.9.44,1.96,1.66,2.39,2.35-.31-1.02-1.36-2.28-1.95-2.69,1.38.23,3.41,1.08,4.19,1.73h0c-.78-.65-2.81-1.5-4.19-1.73.59.41,1.64,1.66,1.95,2.69-.43-.69-1.49-1.91-2.39-2.35.32.66.52,2.17.42,3.05,0-.69-.42-1.76-.84-2.71-.47.72-.94,2.01-1.04,2.87ZM18.27,9.16c-1.33-1.18-2.88-2-3.81-2.35.25-.02.54-.03.85-.03,1.71,0,4.1.3,4.87.59-1.17-.64-3.48-1.01-5.12-1.01-.19,0-.38,0-.55.02,1.81-.74,4.85-1.51,7.24-1.84-1.9.1-4.39.6-6.8,1.12,1.13-.73,4.58-2.09,5.36-2.31-.78.23-4.23,1.58-5.36,2.31,2.41-.52,4.9-1.02,6.8-1.12-2.39.33-5.43,1.1-7.24,1.84,1.63-.1,4.36.28,5.67.99-.91-.34-4.07-.69-5.71-.56.92.34,2.47,1.17,3.81,2.35ZM10.54,3.18c-.23-.02-.37-.07-.39-.15-.01-.05.03-.12.13-.19.14-.1.45-.26.66-.28-.02,0-.05,0-.09-.02-.06-.02-.14-.03-.18-.04.04-.02.08-.03.12-.05.22-.08.49-.19.59-.29-.1.1-.37.21-.59.29-.04.02-.08.03-.12.05.05,0,.12.02.19.04.04,0,.07.02.09.02-.21.02-.52.18-.66.28-.1.07-.14.13-.13.18.02.08.16.13.39.14h0ZM9.71,2.83h0c.14-.43.66-.57,1.12-.7.05-.01.09-.03.14-.04-.05.02-.09.03-.14.04-.46.13-.98.27-1.11.7Z"/>
          <path class="cls-4" d="M8.19,10.76c-.28,0-.56-.06-.64-.15-.19-.22-.29-.49-.29-.78h0c0,.29.1.56.29.78.12.13.7.2,1.02.09.13-.04.2-.11.21-.19,0,.08-.08.15-.21.19-.11.04-.25.05-.38.05ZM8.06,9.61c-.26,0-.5-.06-.64-.2h0c.25.26.9.23,1.26.09.16-.06.25-.14.25-.22,0,.08-.09.16-.25.22-.17.07-.4.11-.62.11ZM8.56,8.58c-.41,0-1.03-.18-1.12-.38h0c.08.2.71.38,1.11.38.06,0,.11,0,.16-.01.13-.02.2-.07.21-.15,0,.08-.08.13-.21.15-.05,0-.1.01-.16.01ZM8.71,7.68s-.05,0-.07,0c-.37-.02-.91-.2-.91-.43h0c0,.23.54.41.91.43.03,0,.05,0,.07,0,.17,0,.27-.04.28-.11,0,.07-.11.11-.28.11ZM8.99,6.9c-.07,0-.17-.02-.28-.05-.26-.08-.55-.23-.58-.39h0c.03.16.32.31.58.39.19.06.35.06.39.02-.02.02-.06.03-.12.03ZM9.17,6.11c-.16,0-.39-.06-.54-.15-.09-.05-.14-.11-.15-.16h0c.01.05.06.11.15.16.2.11.53.18.66.13-.03.01-.07.02-.12.02ZM9.51,5.41c-.44-.07-.65-.22-.75-.33h0c.09.11.3.26.74.33ZM9.24,5.03c-.02-.14-.15-.32-.23-.43-.02-.03-.04-.05-.05-.07h0s.03.04.05.07c.08.12.21.3.23.44.1-.08.18-.24.22-.33.1.08.17.19.21.32.04-.11.11-.33.12-.46.15.03.29.1.41.2.02-.13-.05-.3-.15-.37.12,0,.23-.02.33-.07-.05-.06-.17-.22-.3-.29.1-.03.25-.15.31-.2h0c-.06-.03-.14-.07-.23-.11-.05-.03-.1-.05-.14-.07.07-.07.12-.21.15-.27-.02.06-.07.2-.14.27.04.02.09.04.14.07.08.04.17.08.23.11h0c-.07.06-.21.17-.31.2.13.07.26.22.3.29-.09.05-.2.07-.31.07,0,0-.02,0-.03,0,.1.07.17.23.15.37-.12-.1-.26-.17-.41-.2,0,.13-.08.34-.12.46-.04-.12-.11-.23-.21-.32-.03.08-.12.25-.22.33ZM8.67,4.8c.1-.02.2-.04.3-.04h0c-.1,0-.21.02-.3.04ZM6.76,3.66h0c0-.1.05-.16.1-.21.05-.06.1-.12.09-.23.02.11-.03.17-.08.24-.05.06-.1.11-.1.21ZM7.18,3.57c.07-.03.12-.11.13-.21.01-.09-.01-.18-.06-.21-.08-.06-.1-.15-.08-.2.01-.03.03-.05.05-.05h0s-.04.02-.05.05c-.02.05,0,.14.08.2.04.03.07.12.06.21-.01.1-.06.17-.13.21ZM9.56,2.45c.15,0,.3-.02.5-.04h0c-.19.02-.35.03-.5.04Z"/>
          <path class="cls-4" d="M9.56,11.41s-.04,0-.06-.02c-.04-.02-.07-.07-.07-.13h0c0,.06.03.1.07.13.04.02.09.02.13,0,.09-.05.13-.19.13-.37,0,.19-.04.32-.13.38-.02.01-.05.02-.07.02ZM8.93,9.36c-.15-1.38.26-3.29.74-4.34h0c-.48,1.05-.88,2.96-.74,4.34Z"/>
          <path class="cls-4" d="M9.89,11.39c-.07,0-.14-.05-.15-.12h0c.02.07.08.12.15.12,0,0,.02,0,.03,0,.1-.02.19-.14.15-.43.04.29-.05.41-.14.43,0,0-.02,0-.03,0Z"/>
          <path class="cls-4" d="M9.74,11.69h0c-.07,0-.14-.09-.15-.28h0c.01.2.08.28.15.28h0c.07,0,.14-.09.15-.28,0,.2-.09.28-.15.28ZM10.21,11.26c-.06,0-.11-.04-.14-.12h0c.04.09.11.13.17.11.1-.03.19-.2.14-.52.05.32-.03.49-.14.52-.01,0-.02,0-.03,0Z"/>
          <path class="cls-4" d="M9.09,11.8h-.01c-.18,0-.41-.12-.47-.27-.06-.15-.04-.32.05-.47.06-.11.15-.19.23-.2-.26-.41-.02-.84.14-1.01h0c-.16.17-.39.59-.14,1.01.1.16.34.28.48.28.01,0,.02,0,.03,0,.04,0,.07-.02.08-.06,0,.03-.04.05-.08.06,0,0-.02,0-.03,0-.14,0-.38-.12-.48-.28-.08.01-.17.09-.23.2-.09.15-.11.32-.05.47.06.15.29.26.46.27,0,0,0,0,.01,0,.08,0,.14-.03.16-.07-.02.05-.08.07-.16.07ZM13.94,11.14s-.08,0-.12,0h0s.08,0,.12,0c.28,0,.57-.1.78-.28.21-.18.33-.41.35-.68-.01.27-.13.5-.35.68-.21.18-.51.28-.79.28ZM10.53,11.05c-.05,0-.1-.03-.14-.09h0c.03.06.08.09.13.09.01,0,.02,0,.03,0,.11-.02.23-.17.25-.39-.02.23-.14.37-.25.39-.01,0-.02,0-.03,0Z"/>
          <path class="cls-4" d="M5.26,14.83h0c.24-.34.5-.28.73-.22.12.03.24.06.34.03-.1.03-.22,0-.34-.03-.24-.06-.5-.12-.73.22ZM14.97,14.13c1.17-.64,1.73-1.05,1.76-1.28,0-.05,0-.09-.05-.13-.3-.31-.54-.28-.78-.25-.19.02-.38.04-.58-.13-.55-.45-.33-1.06-.04-1.7h0c-.29.64-.5,1.25.04,1.69.21.17.39.15.58.13.23-.03.47-.06.78.25.04.04.05.08.05.13-.03.23-.59.64-1.76,1.28ZM15.51,10.63c-.2,0-.38-.06-.5-.13h0c.17.1.46.18.73.1.18-.05.33-.16.42-.32-.09.16-.23.28-.42.33-.08.02-.15.03-.23.03ZM6.84,10.49s-.02,0-.04,0c.05.01.09,0,.12-.04.09-.11.07-.4,0-.57h0c.08.16.1.46,0,.57-.02.03-.05.04-.08.04Z"/>
          <g>
            <path class="cls-2" d="M8.03,2.99c-.06.14.1.35.26.36.18.02.44-.09.39-.28"/>
            <path class="cls-4" d="M8.34,3.36s-.03,0-.04,0c-.09,0-.18-.08-.24-.17-.04-.07-.05-.14-.02-.19h0c-.02.06-.02.12.02.19.05.09.15.16.24.17.01,0,.03,0,.04,0,.11,0,.25-.04.31-.12.04-.05.05-.1.03-.15.02.06,0,.11-.03.16-.07.08-.2.13-.31.13Z"/>
          </g>
          <path class="cls-4" d="M12.06,14.75h0c.08-.1.39-.2.62-.15.23.05.63-.02.89-.12-.26.1-.66.18-.89.12-.23-.06-.54.05-.62.14ZM4.43,7.22c-.16-.14-.18-.41-.14-.5h0c-.04.09-.02.36.14.5ZM9,3.1c-.23,0-.48-.04-.69-.07-.24-.04-.43-.07-.46-.02h0c.04-.05.23-.02.47.02.38.06.9.14,1.16-.03-.12.08-.29.1-.48.1Z"/>
          <g>
            <path class="cls-4" d="M9.12,9.13c-.08-.11-.15-.23-.21-.36h0c.06.13.13.25.21.36ZM9.41,8.85c-.18-.25-.33-.6-.44-1.02h0c.11.41.26.76.44,1.02ZM9.71,8.58c-.29-.4-.5-1.02-.59-1.75h0c.1.73.31,1.35.59,1.75ZM10.04,8.35c-.48-.62-.67-1.72-.68-2.47h0c.01.75.2,1.85.68,2.47ZM10.4,8.16c-.59-.65-.84-2.14-.73-3.14h0c-.11,1,.14,2.49.73,3.14Z"/>
            <path class="cls-4" d="M8.91,8.89c.56-.18,1.2-.81,1.23-1.12h0c-.03.31-.67.94-1.23,1.12ZM8.92,8.36c.41-.11.9-.59,1.02-1.02h0c-.12.43-.61.91-1.03,1.02ZM8.96,7.84c.4-.15.82-.61.85-.93h0c-.03.32-.46.78-.86.93ZM9.03,7.34c.36-.17.67-.55.7-.86h0c-.03.31-.34.69-.7.86ZM9.13,6.78c.3-.14.51-.42.54-.72h0c-.03.3-.24.58-.54.72ZM9.24,6.32c.11-.09.37-.33.41-.69h0c-.04.36-.3.6-.41.69Z"/>
          </g>
          <path class="cls-4" d="M6.07,10.16s-.03,0-.04-.01c.04.02.08.01.13-.02.1-.08.19-.26.15-.45h0c.05.19-.04.38-.15.45-.03.02-.06.03-.09.03Z"/>
          <path class="cls-4" d="M7.5,10.66c-1.25-.25-1.95-.68-2.34-1.44-.06-.12,0-.19.07-.27.05-.06.11-.12.1-.21.01.09-.04.15-.1.21-.07.08-.13.15-.07.27.4.75,1.1,1.18,2.34,1.43h0ZM4.99,7.56c-.18-.31-.23-.66-.13-.89-.11.23-.06.57.13.89h0Z"/>
          <path class="cls-4" d="M5.25,14.28c.1-.11.2-.09.34-.06.12.03.3.06.55.03h.1c.49-.06.92-.11,1.33-.5h0c-.42.39-.84.44-1.33.49h-.1c-.25.04-.42,0-.55-.02-.15-.03-.24-.05-.34.05ZM8.56,12.87s-.02,0-.04,0c-.12-.02-.26-.1-.29-.23h0c.03.13.17.21.29.23.06.01.11,0,.13-.04-.01.03-.05.04-.09.04ZM10.92,12.39c0-.09-.03-.18-.04-.26-.04-.19-.07-.36.02-.52.27-.46.26-.74.21-.98h0c.05.24.06.52-.21.98-.1.16-.06.32-.02.52.02.08.03.17.04.26ZM8.87,12.2h0c-.14,0-.31-.08-.36-.16.05.08.21.16.36.16h0c.06,0,.13-.01.17-.07h0c-.04.06-.11.07-.17.07ZM11.49,11.99h0c.17-.25.26-.59.26-1.01,0,.42-.08.76-.25,1.01ZM8.49,11.72c.02-.07.06-.14.13-.19h0c-.06.05-.11.11-.13.19ZM8.21,11.65c-.28-.1-.5-.3-.62-.57-.08-.17-.09-.34-.03-.47h0c-.05.12-.04.29.03.47.11.26.34.47.61.57ZM12.76,11.56h0c.27-.35.32-.84.11-1.23.21.4.17.88-.11,1.23ZM13.52,11.45h0c.28-.21.43-.57.48-.71-.05.14-.19.5-.48.71ZM5.49,9.68s-.03,0-.04-.02c.02.02.05.02.08,0,.1-.04.22-.2.22-.33h0c0,.13-.12.29-.22.33-.01,0-.03,0-.04,0Z"/>
          <path class="cls-4" d="M8.2,13.64c-.08,0-.18-.03-.24-.09-.05-.05-.09-.14-.04-.29-.05.15,0,.24.04.29.08.09.23.11.33.08.04-.01.06-.03.07-.06.03-.27.22-.6.44-.98.28-.48.62-1.08.76-1.76.12.16.28.24.41.2.11-.04.16-.16.15-.33.07.06.16.08.24.04.08-.04.13-.15.12-.28.07.05.14.06.22.02.09-.04.15-.14.15-.25h0c0,.1-.06.21-.15.25-.07.04-.15.03-.22-.02.01.14-.03.24-.12.29-.07.04-.16.02-.24-.05.01.17-.04.29-.15.33-.12.04-.29-.03-.41-.2-.14.68-.49,1.28-.76,1.76-.22.38-.41.72-.44.98,0,.03-.03.05-.07.06-.02,0-.05.01-.08.01ZM15.56,13.13h0c.16,0,.56-.08.71-.65-.15.57-.54.64-.71.65ZM15,12.9h0c.24-.06.45-.22.56-.44-.11.22-.32.38-.56.44ZM14.12,12.43s-.05,0-.07,0c.02,0,.04,0,.06,0,.19,0,.4-.05.65-.14h0c-.24.09-.46.14-.64.14ZM13.52,11.45c.22-.2.7-.14,1.02-.1.03,0,.06,0,.08.01h0s-.05,0-.08,0c-.32-.04-.8-.1-1.02.1Z"/>
          <path class="cls-4" d="M13.19,14.35h0c.26-.11.52-.24.76-.4-.24.16-.5.29-.76.4ZM14.97,14.13s.02-.03.01-.04c-.01-.08-.18-.2-.29-.24h0c.12.03.28.16.29.24,0,.02,0,.03-.01.04ZM15.38,13.9h0s.04-.05.03-.09c-.02-.09-.16-.24-.29-.24h0c.14,0,.27.14.29.24.01.04,0,.08-.03.09ZM16.42,13.23c-.18-.06-.56-.13-.86-.1.05,0,.1,0,.15,0,.27,0,.56.06.72.1h0ZM17.67,10.78s-.02,0-.03,0c0,0,.02,0,.02,0,.37,0,.64-.28.71-.48.04-.11.03-.2-.04-.25h0c.06.05.08.14.04.25-.07.2-.34.48-.71.48ZM17.19,10.64c-.14-.07-.23-.16-.25-.24-.36.16-.7.05-.9-.28h0c.2.33.53.43.9.28.03.08.12.16.25.24Z"/>
          <path class="cls-4" d="M21.48,13.77s-.02,0-.03,0c-.08,0-.15-.05-.18-.12h0c.03.06.09.11.18.12,0,0,.02,0,.03,0,.1,0,.19-.04.24-.12.06-.08.35-.57.21-1.75-.12-.99-1.09-1.18-2.21-1.39-.07-.01-.14-.03-.21-.04-1.22-.24-1.54-.6-1.8-1.32.26.72.58,1.08,1.8,1.31.07.01.14.03.22.04,1.12.21,2.09.4,2.21,1.39.14,1.19-.15,1.67-.21,1.75-.05.07-.15.12-.24.12Z"/>
          <path class="cls-4" d="M19.54,14.73h0c.12-.02.24-.03.36-.03h.02c-.13,0-.25.01-.38.03ZM20.27,14.55s-.09-.05-.15-.09c-.2-.12-.47-.3-.89-.33h0c.42.03.69.2.89.33.06.04.1.07.15.09ZM21.69,13.21c-.09,0-.17-.04-.21-.11h0c.05.08.15.12.26.1.09-.01.16-.07.18-.14-.02.08-.09.13-.18.15-.02,0-.03,0-.05,0ZM21.71,12.58c-.07,0-.14-.02-.2-.05h0c.11.06.27.06.37,0,.05-.03.08-.08.08-.14,0,.06-.02.11-.08.15-.05.03-.11.04-.17.04ZM21.54,11.91s-.04,0-.06,0h-.04s.04,0,.04,0c.02,0,.04,0,.06,0,.13,0,.3,0,.35-.07.02-.02.02-.04.02-.07,0,.03,0,.05-.02.07-.06.07-.23.07-.36.07ZM21.09,11.5h0c.09-.07.32-.3.31-.44,0-.04-.02-.06-.05-.08.04.02.05.04.05.08,0,.14-.22.37-.31.44ZM20.5,11.44h0c.15-.08.31-.42.28-.61,0-.07-.04-.11-.1-.12.06,0,.09.05.1.12.03.18-.13.52-.28.61ZM19.55,11.33h0c.25-.1.48-.51.47-.69,0-.05-.03-.08-.07-.09.04,0,.07.04.07.09.02.18-.21.59-.47.69ZM18.53,11.19h0c.37-.1.55-.46.55-.67,0-.09-.03-.16-.08-.17.06.01.09.08.08.17,0,.22-.18.58-.56.67ZM12.18,10.98c-.08-.23-.25-.38-.48-.43-.06-.01-.12-.02-.18-.02-.25,0-.52.11-.7.3,0-.18,0-.64.02-.9-.21.06-.47.26-.71.46-.07.06-.14.11-.2.16,0-.22,0-.56-.02-.82-.28.1-.93.18-1.28.1.53-.93,1.37-1.59,2.49-1.96h0c-1.12.37-1.96,1.03-2.49,1.96.35.08,1,0,1.28-.1.02.26.02.6.02.82.06-.05.13-.1.2-.16.25-.2.51-.4.72-.46-.02.26-.02.72-.02.9.23-.23.58-.35.88-.28.23.05.4.21.48.44.08-.45.48-.65.81-.69.38-.04.88.1,1.07.53.38-.71,1.35-.95,1.97-.7.27-.73,1.46-1.14,2.24-.96-.24-.31-.24-.67,0-1.03-.23.36-.23.72,0,1.03-.12-.03-.26-.04-.4-.04-.74,0-1.61.38-1.84,1-.62-.25-1.58,0-1.97.7-.19-.42-.68-.57-1.07-.53-.34.04-.73.24-.81.69ZM20.74,9.92c-.21-.17-.4-.35-.59-.53-.36-.35-.68-.66-1-.66-.01,0-.03,0-.04,0h0s.03,0,.04,0c.32,0,.63.31,1,.66.18.18.37.36.59.53ZM24.47,5.59h0c.09-.32.17-.61.2-.77-.03.16-.11.45-.2.77ZM23.9,5.53c.14-.36.3-.75.37-.95h0c-.07.2-.23.59-.37.95Z"/>
        </g>
        <g>
          <path class="cls-4" d="M8.16,3.03l.41.07s-.29.37-.41-.07Z"/>
          <path class="cls-4" d="M8.34,3.24s-.02,0-.03,0c-.07-.01-.12-.09-.16-.22,0,0,0,0,0,0h0l.41.07s-.11.15-.23.15ZM8.16,3.03c.04.13.09.2.16.21,0,0,.02,0,.03,0,.11,0,.23-.14.23-.14l-.41-.07Z"/>
        </g>
      </g>
    </g>
  </g>
</svg>