<?xml version="1.0" encoding="UTF-8"?>
<svg id="Layer_2" data-name="Layer 2" xmlns="http://www.w3.org/2000/svg" viewBox="0 0 25.55 17.01">
  <defs>
    <style>
      .cls-1 {
        fill: #dc1f26;
      }

      .cls-2 {
        fill: #d78430;
      }

      .cls-3 {
        fill: #fff;
      }

      .cls-4 {
        fill: #ad6f2b;
      }

      .cls-5 {
        fill: #1e4384;
      }

      .cls-6 {
        fill: #4fa5db;
      }

      .cls-7 {
        fill: #a06c37;
      }
    </style>
  </defs>
  <g id="Layer_1-2" data-name="Layer 1">
    <g>
      <g id="rect4808">
        <rect class="cls-3" x=".04" width="25.51" height="17.01"/>
      </g>
      <g id="path862-8">
        <path class="cls-5" d="M4.81,0c.17,0,.28.37.34.5.17.39.51.66.87.85.37.19.8.29,1.13.6.37.35.57.82.79,1.26.1.2.25.37.43.53.11.1.21.2.35.29.32.2.67.39.87.72.17.27.21.6.38.88.17.29.5.48.77.69.26.2.33.58.56.79l.9.83c.17.16.26.01.28-.03.03-.07-.09-.19-.27-.28-.05-.03-.1-.06-.14-.09-.3-.23-.43-.61-.5-.96-.06-.26-.18-.49-.35-.66-.14-.14-.34-.23-.47-.38-.19-.23-.31-.5-.37-.8-.06-.29-.21-.56-.42-.8-.22-.24-.53-.35-.74-.6-.2-.23-.26-.56-.39-.83-.09-.18-.12-.37-.2-.55-.08-.19-.2-.39-.28-.59-.07-.17-.14-.34-.3-.42-.36-.19-.74-.38-1.03-.66-.1-.1-.22-.15-.26-.28h-1.91ZM18.82,0c-.05.13-.16.18-.26.28-.3.28-.67.48-1.03.66-.15.08-.23.25-.3.42-.08.2-.2.4-.28.59-.08.18-.11.36-.2.55-.13.28-.19.6-.39.83-.21.24-.53.35-.74.6-.21.24-.36.5-.42.8-.06.3-.18.57-.37.8-.13.16-.33.24-.47.38-.17.17-.3.4-.35.66-.08.35-.2.73-.5.96-.05.04-.1.07-.14.09-.18.09-.3.21-.27.28.02.05.1.2.28.03l.9-.83c.23-.21.31-.59.56-.79.27-.21.6-.4.77-.69.16-.28.21-.61.38-.88.21-.33.55-.53.87-.72.14-.08.23-.19.35-.29.18-.15.33-.32.43-.53.22-.44.42-.91.79-1.26.32-.3.75-.4,1.13-.6.36-.19.71-.46.87-.85.06-.13.17-.5.34-.5h-1.91ZM12.28,8.64c-.06,0-.13.02-.18.05-.17.13-.44.39-.79.42-.43.03-.53.64-.9.86-.3.18-.73.28-1.02.55-.27.25-.4.58-.68.81-.28.23-.64.28-.96.35-.29.06-.56.25-.79.47-.22.21-.34.44-.56.65-.43.4-.95.69-1.52.85-.23.06-.44.12-.66.2-.22.09-.43.2-.64.31-.46.26-.83.72-1.09,1.16-.16.28-.4.52-.69.68-.37.2-.77.35-1.18.46-.27.07-.49.17-.57.53h3.1c.17-.47.46-.92.81-1.28.34-.34.79-.62,1.25-.78.32-.11.64-.22.93-.4.5-.3.83-.81,1.08-1.32.19-.39.58-.7,1.02-.82.42-.11.87-.28,1.09-.69.09-.17.15-.34.27-.51.27-.37.78-.45,1.13-.73.24-.2.29-.56.5-.81.18-.22.62-.36.83-.57.07-.07.44-.3.43-.39,0-.03-.1-.07-.21-.06ZM13.31,8.64c-.11,0-.2.03-.21.06-.01.09.35.33.43.39.21.2.64.35.83.57.21.25.26.61.5.81.35.28.85.36,1.13.73.12.16.18.34.27.51.22.41.67.58,1.09.69.44.12.82.42,1.02.82.25.51.58,1.02,1.08,1.32.29.18.61.29.93.4.46.16.92.43,1.25.78.36.36.64.82.81,1.28h3.1c-.08-.36-.31-.46-.57-.53-.41-.11-.81-.26-1.18-.46-.29-.16-.53-.4-.69-.68-.26-.44-.63-.9-1.09-1.16-.2-.11-.42-.23-.64-.31-.22-.09-.43-.14-.66-.2-.57-.16-1.09-.45-1.52-.85-.22-.2-.34-.44-.56-.65-.23-.21-.5-.4-.79-.47-.33-.07-.68-.12-.96-.35-.28-.23-.42-.56-.68-.81-.28-.26-.72-.37-1.02-.55-.37-.22-.47-.83-.9-.86-.36-.03-.63-.3-.79-.42-.05-.04-.12-.05-.18-.05Z"/>
      </g>
      <g id="path856">
        <path class="cls-1" d="M0,0c.08.36.31.46.57.53.41.11.81.26,1.18.46.29.16.53.4.69.68.26.44.63.9,1.09,1.16.2.11.42.23.64.31.22.09.43.14.66.2.57.16,1.09.45,1.52.85.22.2.34.44.56.65.23.21.5.4.79.47.33.07.68.12.96.35.28.23.42.56.68.81.28.26.72.37,1.02.55.37.22.47.83.9.86.36.03.63.3.79.42.13.1.38.04.39,0,.01-.09-.35-.33-.43-.39-.21-.2-.64-.35-.83-.57-.21-.25-.26-.61-.5-.81-.35-.28-.85-.36-1.13-.73-.12-.16-.18-.34-.27-.51-.22-.41-.67-.58-1.09-.69-.44-.12-.82-.42-1.02-.82-.25-.51-.58-1.02-1.08-1.32-.29-.18-.61-.29-.93-.4-.46-.16-.92-.43-1.25-.78-.36-.36-.64-.82-.81-1.28H0ZM22.45,0c-.17.47-.46.92-.81,1.28-.34.34-.79.62-1.25.78-.32.11-.64.22-.93.4-.5.3-.83.81-1.08,1.32-.19.39-.58.7-1.02.82-.42.11-.87.28-1.09.69-.09.17-.15.34-.27.51-.27.37-.78.45-1.13.73-.24.2-.29.56-.5.81-.18.22-.62.36-.83.57-.07.07-.44.3-.43.39,0,.05.25.11.39,0,.17-.13.44-.39.79-.42.43-.03.53-.64.9-.86.3-.18.73-.28,1.02-.55.27-.25.4-.58.68-.81.28-.23.64-.28.96-.35.29-.06.56-.25.79-.47.22-.21.34-.44.56-.65.43-.4.95-.69,1.52-.85.23-.06.44-.12.66-.2.22-.09.43-.2.64-.31.46-.26.83-.72,1.09-1.16.16-.28.4-.52.69-.68.37-.2.77-.35,1.18-.46.27-.07.49-.17.57-.53h-3.1ZM12.37,9s-.08.02-.14.07l-.9.83c-.23.21-.31.59-.56.79-.27.21-.6.4-.77.69-.16.28-.21.61-.38.88-.21.33-.55.53-.87.72-.14.08-.23.19-.35.29-.18.15-.33.32-.43.53-.22.44-.42.91-.79,1.26-.32.3-.75.4-1.13.6-.36.19-.71.46-.87.85-.06.13-.17.5-.34.5h1.91c.05-.13.16-.18.26-.28.3-.28.67-.48,1.03-.66.15-.08.23-.25.3-.42.08-.2.2-.4.28-.59.08-.18.11-.36.2-.55.13-.28.19-.6.39-.83.21-.24.53-.35.74-.6.21-.24.36-.5.42-.8.06-.3.18-.57.37-.8.13-.16.33-.24.47-.38.17-.17.3-.4.35-.66.08-.35.2-.73.5-.96.05-.04.1-.07.14-.09.18-.09.3-.21.27-.28-.01-.03-.06-.11-.14-.11ZM13.22,9c-.08,0-.13.08-.14.11-.03.07.09.19.27.28.05.03.1.06.14.09.3.23.43.61.5.96.06.26.18.49.35.66.14.14.34.23.47.38.19.23.31.5.37.8.06.29.21.56.42.8.22.24.53.35.74.6.2.23.26.56.39.83.09.18.12.37.2.55.08.19.2.39.28.59.07.17.14.34.3.42.36.19.74.38,1.03.66.1.1.22.15.26.28h1.91c-.17,0-.28-.37-.34-.5-.17-.39-.51-.66-.87-.85-.37-.19-.8-.29-1.13-.6-.37-.35-.57-.82-.79-1.26-.1-.2-.25-.37-.43-.53-.11-.1-.21-.2-.35-.29-.32-.2-.67-.39-.87-.72-.17-.27-.21-.6-.38-.88-.17-.29-.5-.48-.77-.69-.26-.2-.33-.58-.56-.79l-.9-.83c-.05-.05-.1-.07-.14-.07Z"/>
      </g>
      <g id="path4810">
        <path class="cls-6" d="M13.49,9.2l-.69,2.28-.69-2.28-2.28-.69,2.28-.69.69-2.28.69,2.28,2.28.69-2.28.69Z"/>
      </g>
      <g id="path5237">
        <path class="cls-7" d="M12.54,4.82s-.04-.02-.05-.04c-.03-.03-.03-.03-.06-.02-.06.03-.11.02-.15-.02-.03-.03-.03-.03-.1-.03-.07,0-.07,0-.11-.03-.03-.03-.04-.04-.08-.03-.05,0-.09-.02-.12-.07-.01-.03-.02-.03-.07-.03-.07,0-.11-.02-.13-.08v-.04s-.09,0-.09,0c-.07,0-.08,0-.11-.02-.02-.02-.03-.04-.04-.08v-.06s-.06,0-.06,0c-.07,0-.11-.01-.13-.06l-.02-.04h-.07c-.07.01-.09,0-.07-.03,0,0,.01-.03.02-.05,0-.03,0-.03-.03-.03-.07,0-.11-.01-.11-.04,0-.01,0-.03.02-.04.03-.03.02-.04-.04-.04-.03,0-.06-.01-.06-.02,0,0,0-.03.02-.04.02-.02.03-.03.03-.04s-.03,0-.07,0c-.06,0-.07,0-.07-.02,0-.01,0-.02.01-.02s.01-.01.02-.03c0-.03,0-.05-.05-.05-.03,0-.03-.02-.01-.05.01-.02,0-.03-.05-.05h-.04s.03-.05.03-.05c.03-.04.03-.04,0-.06-.01,0-.03-.01-.05-.01-.04,0-.04-.01,0-.04.03-.03.03-.04-.02-.06-.05-.02-.07-.05-.05-.07,0,0,.02-.01.03-.01s.02,0,.03-.01c.01-.01,0-.02-.03-.03-.06-.03-.06-.05,0-.08.07-.04.06-.06-.03-.09-.06-.02-.06-.05,0-.08.03-.01.06-.02.08-.02.03,0,.07-.03.07-.05,0,0-.01-.02-.03-.03-.06-.04-.1-.08-.11-.11,0-.02-.04-.06-.06-.08s-.05-.06-.06-.08c-.01-.04-.04-.05-.13-.05-.06,0-.12-.02-.16-.05-.01-.01-.03-.04-.04-.06-.02-.04-.03-.05-.08-.06-.03-.01-.07-.03-.09-.04-.04-.03-.08-.08-.08-.11,0-.01-.01-.03-.03-.04-.06-.03-.1-.08-.1-.11,0-.02-.02-.05-.07-.09-.07-.07-.08-.09-.05-.13l.02-.03h.51c.51,0,.72,0,.73-.02,0,0,0-.02-.03-.04-.02-.02-.04-.03-.04-.04s-.02-.03-.03-.04-.03-.04-.03-.04c0-.02.06-.02.12,0,.04.02.07.02.1,0,.01,0,.01-.01,0-.03-.03-.02-.08-.09-.08-.11,0-.01.01-.02.07-.02.07,0,.1,0,.1-.02,0,0-.02-.03-.04-.06-.02-.03-.04-.05-.04-.06,0-.02.06-.04.13-.03.08,0,.09,0,.07-.05-.05-.08-.05-.08-.03-.09,0,0,.04,0,.06,0,.09,0,.09,0,.09-.09,0-.09,0-.11.04-.09.01,0,.03.03.05.05.05.06.11.07.08,0-.02-.05-.04-.13-.02-.14,0,0,.03,0,.06.02.03.02.06.03.08.03.04,0,.04,0,.03-.06-.01-.05,0-.08.03-.06,0,0,.04.02.07.03.03.01.08.04.1.06s.05.03.05.03,0-.04,0-.08c0-.06,0-.08.03-.14.03-.06.04-.07.1-.1.08-.04.15-.04.23-.01.05.02.13.09.14.13,0,.02.02.02.04.02.03,0,.05-.01.12-.09.05-.05.09-.09.1-.1s.02-.03.03-.04c.04-.07.08-.03.09.08,0,.03,0,.06,0,.07,0,.01.16-.12.18-.15.03-.05.06-.05.07-.01.02.11.03.11.07.04.02-.03.04-.05.05-.06.02,0,.07.09.07.15,0,.02,0,.04,0,.04,0,0,.06-.05.11-.11l.02-.03.03.03s.05.1.04.16c0,.03-.01.06-.01.07,0,.02.04,0,.05-.02.02-.04.15-.16.17-.16.02,0,.03.04.03.11,0,.05,0,.05.05.02.04-.03.11-.06.12-.05.01.01.02.13,0,.16-.02.05.07.01.13-.05.02-.03.03-.03.05-.02.04.02.05.13.02.2-.02.05-.01.07.01.05.01,0,.04-.02.06-.03s.06-.03.07-.03c.04-.02.06,0,.06.05,0,.03,0,.07-.02.09-.02.05-.01.06.03.05.02,0,.04,0,.05,0,0,0,.05,0,.08,0,.07,0,.07,0,.06.03,0,.06-.05.12-.09.15-.07.04-.06.07.02.05.02,0,.07-.01.1-.01.04,0,.07,0,.08-.02.01,0,.03-.02.03-.02.02,0,.02.08,0,.11-.02.04-.07.08-.09.08-.03,0-.07.03-.06.04,0,0,.03,0,.07,0,.03,0,.08-.02.11-.02.03,0,.05,0,.07-.02.03-.02.05,0,.04.04,0,.05-.07.11-.13.14-.03.01-.05.03-.05.04,0,0,.15.01.64,0,.59,0,.64,0,.66.01.04.03.02.1-.03.15-.02.01-.04.03-.04.03,0,0-.02.02-.03.05-.02.05-.08.11-.12.11-.02,0-.03.01-.04.05-.01.06-.08.12-.16.14-.02,0-.03.02-.04.04,0,.04-.04.07-.11.1-.03.02-.06.02-.18.02s-.14,0-.14.02c-.03.07-.05.1-.1.12-.04.02-.05.03-.06.07-.01.07,0,.1.04.12.02.01.06.04.09.06s.07.05.09.06c.03.02.04.04,0,.05-.01,0-.03.01-.05.02-.02,0-.04.02-.06.02-.06.01-.02.05.05.04.03,0,.05,0,.06,0,.01.02-.03.07-.08.1-.03.02-.06.03-.06.04s.02.01.04.01c.06,0,.07.03.04.06-.01.01-.04.03-.06.05-.04.02-.05.03,0,.04.02,0,.03.01.03.02,0,.03-.05.08-.1.09-.05.01-.06.03,0,.05.03.01.04.02.04.03,0,.03-.08.06-.13.06-.06,0-.06.01,0,.07.04.04.04.05.02.06,0,0-.04.02-.07.02-.06,0-.07.02-.04.05.04.05,0,.1-.07.1-.06,0-.07.01-.04.05.03.03.03.06.01.07,0,0-.04,0-.08,0-.07,0-.08,0-.06.08.02.07-.01.08-.09.05-.02,0-.02,0-.01.06v.07s-.05,0-.05,0c-.03,0-.06,0-.08-.01-.02,0-.02,0-.01.02,0,.02.02.04.03.06.03.04.03.05,0,.05-.05.01-.14-.01-.25-.08-.03-.02-.03-.02-.06.02-.03.03-.03.03-.11.03-.06,0-.08,0-.08.01-.03.09-.1.14-.18.12-.05-.01-.07,0-.08.03-.01.03-.07.07-.1.07-.02,0-.09-.03-.1-.05,0,0-.02,0-.03.01-.01.01-.03.04-.05.06-.02.02-.03.03-.08.03-.03,0-.06,0-.06-.01-.01-.02-.04-.01-.06.01-.04.04-.13.04-.17,0-.02-.02-.06-.03-.06-.01,0,0-.02.02-.04.04-.04.03-.09.04-.13.03h0Z"/>
      </g>
      <g id="path5235">
        <path class="cls-2" d="M12.63,4.74s.04-.04.05-.07c.02-.04.02-.06.02-.22,0-.1-.01-.18-.02-.18-.01-.01-.1-.02-.11,0,0,0-.02.09-.04.22,0,.06-.02.12-.02.14-.01.04,0,.08.03.11.03.03.05.03.09,0h0Z"/>
      </g>
      <g id="path5233">
        <path class="cls-6" d="M12.91,4.7s.02-.04.02-.05c0,0,0-.04,0-.07,0-.06-.01-.1-.04-.27-.02-.09-.03-.12-.09-.11-.02,0-.04,0-.04.01,0,0,0,.09,0,.2,0,.22,0,.26.06.29.05.03.06.03.09-.02h0Z"/>
      </g>
      <g id="path5231">
        <path class="cls-6" d="M12.44,4.64s.02-.06.02-.07c0-.01.02-.1.04-.22,0-.06,0-.07,0-.08-.03,0-.08,0-.08.02,0,0-.01.03-.02.04,0,.01-.01.03-.01.04s0,.04-.01.05c0,.01-.02.05-.02.07,0,.03-.02.06-.02.07,0,.01-.01.04-.01.07,0,.04,0,.05.02.07.03.02.03.02.06,0,.03-.02.04-.03.05-.07h0Z"/>
      </g>
      <g id="path5229">
        <path class="cls-2" d="M13.12,4.68s.03-.04.03-.06c.01-.04,0-.2-.04-.31-.01-.04-.02-.09-.03-.11-.01-.05-.03-.07-.06-.05-.02,0-.04.01-.06.01-.03,0-.04.04-.03.11.01.06.02.1.03.26.01.12.02.15.06.17.04.02.06.02.08-.01h0Z"/>
      </g>
      <g id="path5227">
        <path class="cls-2" d="M12.22,4.64s.04-.05.06-.14c.01-.06.03-.12.04-.13.02-.04.01-.11-.01-.13-.02-.02-.02-.02-.06,0-.02,0-.04.02-.04.03,0,0-.03.08-.06.17-.05.15-.06.24-.04.25.03.01.06,0,.1-.03h0Z"/>
      </g>
      <g id="path5225">
        <path class="cls-6" d="M13.36,4.63s.04-.06.04-.09c0-.02-.05-.17-.09-.27-.01-.04-.03-.09-.03-.11s-.02-.05-.03-.07l-.02-.03-.06.03c-.05.02-.06.03-.05.06.02.07.04.16.05.23.03.19.06.25.1.27.05.02.05.02.08,0h0Z"/>
      </g>
      <g id="path5223">
        <path class="cls-6" d="M12.04,4.59s.03-.03.03-.04c0-.01.04-.15.06-.18.01-.03.04-.11.04-.12,0,0-.05-.03-.07-.03,0,0-.03.04-.06.09-.03.05-.06.1-.07.12-.04.06-.05.1-.05.14.01.06.07.07.11.03h0Z"/>
      </g>
      <g id="path5221">
        <path class="cls-2" d="M13.6,4.53s.05-.03.05-.09c0-.05,0-.07-.03-.1-.02-.02-.03-.04-.03-.05,0-.02-.09-.18-.14-.26l-.04-.05h-.05s-.06.01-.06.02c0,0,0,.05.03.1.04.12.06.19.09.29.03.11.04.13.07.16.04.03.06.03.12,0h0Z"/>
      </g>
      <g id="path5219">
        <path class="cls-2" d="M11.87,4.49s.16-.27.16-.31c0-.04,0-.04-.03-.05-.02,0-.04-.01-.05-.01-.01,0-.03.01-.07.06-.03.04-.05.07-.05.08s-.02.04-.05.08c-.04.06-.05.08-.05.12s0,.05.03.06c.04.01.1,0,.12-.02h0Z"/>
      </g>
      <g id="path5217">
        <path class="cls-2" d="M14.1,4.38s-.02-.06-.02-.09c-.01-.05-.04-.05-.09,0-.03.03-.03.04-.03.06.02.04.12.1.14.08,0,0,0-.03,0-.05h0Z"/>
      </g>
      <g id="path5215">
        <path class="cls-6" d="M13.83,4.42s.03-.02.03-.03,0-.02.01-.03c.02-.02,0-.09-.07-.16-.03-.04-.09-.11-.12-.16-.07-.1-.11-.13-.13-.11,0,0-.02.01-.04.01-.04,0-.03.03.04.17.04.07.08.16.1.19.04.08.07.11.11.12.02,0,.04.01.04.01s.02,0,.03-.01h0Z"/>
      </g>
      <g id="path5213">
        <path class="cls-6" d="M11.63,4.38s.06-.04.09-.08c.02-.03.04-.06.04-.06s.02-.04.05-.07c.07-.08.07-.1,0-.11-.03,0-.06-.01-.08-.02-.03-.02-.03-.02-.08.04-.03.03-.08.08-.11.11-.05.05-.05.06-.05.12,0,.06,0,.07.03.08.04.02.05.02.11,0h0Z"/>
      </g>
      <g id="path5211">
        <path class="cls-2" d="M14.23,4.29c0-.06-.04-.14-.07-.14,0,0-.03,0-.04.02-.02.02-.02.03-.02.06,0,.04.04.08.08.1.05.02.05.02.04-.04Z"/>
      </g>
      <g id="path5209">
        <path class="cls-2" d="M13.96,4.24s.05-.04.07-.06c.05-.03.15-.13.24-.24.02-.03.06-.07.08-.08.02-.02.03-.04.03-.04s.02-.03.04-.06.04-.07.05-.09.02-.04.03-.05c.05-.06.17-.37.19-.5,0-.03.01-.05.01-.06,0-.01.02-.19,0-.19-.01,0-.03.06-.03.11,0,.06-.03.2-.05.23,0,.02-.01.04-.01.06s0,.03-.01.04-.03.06-.05.12c-.06.14-.17.33-.24.41-.04.04-.06.08-.06.08,0,.01-.15.15-.28.27-.06.05-.07.07-.04.07,0,0,.02-.01.04-.02h0Z"/>
      </g>
      <g id="path5207">
        <path class="cls-2" d="M11.49,4.19s.05-.03.05-.04.02-.03.04-.05c.02-.02.06-.07.08-.1.04-.07.04-.09-.02-.09-.02,0-.04,0-.06-.01-.03-.02-.05-.01-.1.03-.02.02-.07.06-.11.09-.1.08-.12.14-.08.18.03.03.13.02.19-.01h0Z"/>
      </g>
      <g id="path5205">
        <path class="cls-2" d="M12.5,4.19s.04-.04.04-.07c0-.11.01-.23.02-.24,0,0,.01-.05.01-.08,0-.05,0-.07-.02-.09-.04-.04-.05-.03-.11.15-.02.07-.05.14-.05.15-.02.04-.04.14-.04.16,0,.02.05.06.09.06.02,0,.04-.01.07-.03h0Z"/>
      </g>
      <g id="path5203">
        <path class="cls-2" d="M14.34,4.21s-.03-.16-.07-.16c-.03,0-.06.04-.05.06,0,.02.09.11.11.11,0,0,.01,0,.02-.01Z"/>
      </g>
      <g id="path5201">
        <path class="cls-6" d="M12.66,4.2c.06-.02.07-.06.05-.21-.01-.07-.02-.15-.02-.18,0-.04,0-.05-.02-.06-.03,0-.05,0-.06.03-.02.07-.04.4-.03.42,0,.02.03.02.08,0h0Z"/>
      </g>
      <g id="path5199">
        <path class="cls-6" d="M12.24,4.18s.05-.05.12-.26c.01-.04.03-.08.03-.09s.01-.03.02-.06c.02-.05,0-.07-.04-.06-.02,0-.04.02-.07.07-.02.04-.06.1-.08.14-.05.09-.1.19-.1.21,0,.02.05.06.08.06,0,0,.03,0,.04-.01h0Z"/>
      </g>
      <g id="path5197">
        <path class="cls-6" d="M12.86,4.13s.01-.03.01-.05c0-.06,0-.15-.02-.16,0,0-.01-.05-.02-.09-.03-.18-.04-.22-.08-.17-.02.03-.03.06-.01.17,0,.06.01.15.02.21,0,.11.02.14.06.12.01,0,.03-.02.03-.03Z"/>
      </g>
      <g id="path5195">
        <path class="cls-2" d="M13.89,4.13c.06-.04.28-.25.33-.32.07-.09.09-.12.16-.24.01-.03.03-.05.03-.05,0,0,.01-.02.01-.03,0-.01.01-.04.02-.06.02-.04.04-.09.05-.14,0-.02.02-.06.03-.09s.02-.08.03-.11c0-.03.01-.06.02-.08,0-.02,0-.03,0-.03-.02,0-.03.02-.03.05-.01.08-.11.37-.14.41,0,.01-.02.03-.02.04,0,.02-.05.11-.08.14-.01.01-.02.03-.02.04s0,.02,0,.02c0,0-.05.05-.09.11-.08.1-.24.26-.31.32-.05.04-.03.06.02.02h0Z"/>
      </g>
      <g id="path5193">
        <path class="cls-6" d="M14.09,4.04s.06-.07.06-.08,0-.02.02-.02c.02-.01.15-.16.15-.17,0,0,.02-.03.03-.04.03-.03.05-.07.03-.07,0,0-.03.03-.06.08-.03.04-.07.09-.08.11-.02.02-.05.05-.07.08-.04.05-.11.11-.18.17-.02.02-.03.03-.03.04,0,.02.08-.04.14-.09h0Z"/>
      </g>
      <g id="path5191">
        <path class="cls-2" d="M11.22,4.12s.02-.02.03-.04c.02-.03.02-.04,0-.05-.02-.02-.06,0-.08.04-.03.05-.02.06,0,.06.01,0,.03,0,.04,0h0Z"/>
      </g>
      <g id="path5189">
        <path class="cls-2" d="M13.02,4.09s.03-.04.03-.08c0-.03,0-.07-.02-.09s-.02-.06-.02-.1c-.01-.08-.01-.08-.02-.11,0-.01-.02-.04-.02-.06-.01-.03-.04-.04-.07-.01-.02.01-.02.02,0,.09,0,.04.02.09.02.12,0,.11.03.24.04.25.02.02.05.02.08-.01h0Z"/>
      </g>
      <g id="path5187">
        <path class="cls-6" d="M12.06,4.08s.21-.35.21-.42-.04-.06-.1.02c-.06.08-.11.16-.11.17,0,0-.01.02-.03.03-.02.01-.03.03-.03.04s0,.02-.02.03c-.05.05-.05.1,0,.13.04.02.03.02.07,0h0Z"/>
      </g>
      <g id="path5185">
        <path class="cls-6" d="M13.83,4.07s.04-.03.06-.04.05-.04.06-.05l.02-.03-.1-.06c-.05-.03-.14-.1-.2-.16-.11-.1-.2-.15-.2-.11,0,.01.02.04.04.06.02.02.05.06.06.08.01.02.03.04.03.04s.01.02.01.04c0,.04.01.05.05.09.01,0,.03.04.05.07.05.09.08.11.11.07h0Z"/>
      </g>
      <g id="path5183">
        <path class="cls-2" d="M14.46,4.06s-.07-.13-.09-.13c-.01,0-.07.06-.07.07,0,.01.05.06.07.07.01,0,.04.01.05.01.02,0,.03,0,.03-.02Z"/>
      </g>
      <g id="path5181">
        <path class="cls-6" d="M13.18,4.02s.03-.05.03-.11c0,0-.01-.04-.02-.07s-.03-.09-.05-.13c-.03-.08-.06-.11-.1-.1-.02,0-.02.01-.02.05.01.08.06.31.07.35.02.06.05.06.09.02h0Z"/>
      </g>
      <g id="path5179">
        <path class="cls-2" d="M11.86,4.02s.05-.03.09-.09c.03-.04.06-.08.06-.08s.01-.02.03-.05.04-.05.05-.07c0-.02.03-.04.04-.06.03-.04.02-.06-.02-.1-.03-.03-.08-.04-.08-.02,0,0-.04.05-.08.1-.05.05-.1.1-.11.12s-.04.06-.06.08c-.05.06-.05.11,0,.15.04.03.04.03.09.02Z"/>
      </g>
      <g id="path5177">
        <path class="cls-2" d="M11.15,4s.05-.04.03-.06c-.03-.02-.06-.01-.09.03-.02.02-.03.04-.03.05,0,.01.05,0,.09,0h0Z"/>
      </g>
      <g id="path5175">
        <path class="cls-2" d="M11.32,4s-.01-.02-.03-.03-.04-.05-.05-.07c-.01-.02-.03-.04-.03-.05-.05-.04-.22-.33-.22-.37,0,0,0-.02-.01-.03-.01-.01-.1-.27-.1-.29,0-.01,0-.03-.01-.03,0,0-.01-.03-.02-.06,0-.03,0-.06-.01-.07,0-.01,0-.02,0-.03,0,0,0,0-.02,0-.02,0-.02,0-.01.04,0,.02.01.07.02.11.01.08.06.23.08.27,0,.02.02.04.02.05s0,.03.02.05c.01.02.04.07.06.12.04.08.12.2.16.25.08.09.1.12.12.13.02.02.04.02.04,0h0Z"/>
      </g>
      <g id="path5173">
        <path class="cls-2" d="M14.58,3.95s-.08-.16-.1-.16c-.02,0-.07.08-.06.11.02.04.14.08.16.05Z"/>
      </g>
      <g id="path5171">
        <path class="cls-6" d="M11.36,3.92s0-.02,0-.02c-.02,0-.24-.3-.25-.35,0-.01-.01-.03-.02-.04-.02-.02-.05-.11-.05-.13,0,0,0-.02-.01-.02s-.01,0-.01-.02,0-.03-.01-.04c0-.02-.05-.15-.08-.23,0,0,0-.01-.01,0,0,0,0,.03,0,.05,0,.02.02.07.02.1.02.08.03.11.08.22.02.03.03.07.04.09,0,.02.03.06.05.09.02.03.03.05.03.06s.01.02.03.04c.01.01.04.05.07.08.05.07.11.14.12.14,0,0,0,0,0-.02h0Z"/>
      </g>
      <g id="path5169">
        <path class="cls-6" d="M13.38,3.92s.02-.02.02-.03c0,0-.02-.04-.04-.07s-.06-.1-.09-.15c-.07-.12-.08-.13-.1-.13-.03,0-.03.05.02.17,0,.02.02.07.03.1.03.09.06.13.1.13.02,0,.04,0,.06-.02Z"/>
      </g>
      <g id="path5167">
        <path class="cls-2" d="M11.44,3.91s-.02-.03-.04-.05c-.02-.02-.05-.05-.06-.07,0-.02-.02-.03-.02-.03-.01,0-.16-.23-.18-.28,0-.01-.02-.04-.03-.06-.02-.04-.03-.07-.05-.12-.02-.05-.02-.05-.03-.1,0-.02-.02-.05-.02-.06-.01,0-.02,0-.01.03,0,.02,0,.06.02.08,0,.02.02.05.02.07,0,.01.01.04.02.06.07.15.1.21.12.23.01.01.02.03.02.03,0,.02.13.19.19.25.03.03.06.04.06.02h0Z"/>
      </g>
      <g id="path5165">
        <path class="cls-2" d="M11.09,3.87s0-.06-.03-.06c-.03,0-.04,0-.07.05l-.03.03h.03s.09,0,.11-.02h0Z"/>
      </g>
      <g id="path5163">
        <path class="cls-6" d="M13.54,3.88s.04-.03.03-.04c0-.02-.11-.15-.13-.18,0,0-.02-.03-.04-.06-.02-.02-.04-.06-.06-.07s-.06-.05-.09-.08c-.04-.03-.06-.04-.06-.03,0,.02.09.2.13.24,0,0,.04.06.07.12.06.1.08.13.1.13,0,0,.03-.01.05-.03h0Z"/>
      </g>
      <g id="path5161">
        <path class="cls-2" d="M14.07,3.86s0-.03-.02-.03c-.03,0-.12-.06-.24-.18-.11-.11-.13-.11-.21-.14-.09-.03-.12-.05-.2-.11-.02-.02-.05-.04-.06-.04-.04,0-.11,0-.11.01,0,0,.04.04.08.08.06.05.11.07.16.09.09.03.16.08.28.18.09.08.14.12.18.14,0,0,.04,0,.07.01.04,0,.06,0,.07-.02Z"/>
      </g>
      <g id="path5159">
        <path class="cls-6" d="M11.72,3.83c.05-.06.08-.1.08-.1,0,0,.02-.03.05-.05s.07-.07.09-.1c.04-.05.04-.05.02-.06-.06-.02-.08-.01-.2.11-.17.16-.2.2-.16.23.02.02.09,0,.12-.02h0Z"/>
      </g>
      <g id="path5157">
        <path class="cls-6" d="M11.51,3.84s.02-.03.03-.05c.02-.04.12-.14.13-.14,0,0,.01,0,.02-.02.01-.03-.03-.02-.08.03-.03.03-.08.06-.1.08-.02.01-.05.03-.05.04,0,0-.02.01-.03.01-.02,0-.02.02,0,.04.02.02.06.02.08,0h0Z"/>
      </g>
      <g id="path5155">
        <path class="cls-2" d="M14.67,3.79s0-.01-.02-.02c0,0-.02-.02-.03-.05,0-.02-.02-.05-.03-.05-.04-.03-.09.02-.07.07.02.04.14.08.14.04h0Z"/>
      </g>
      <g id="path5153">
        <path class="cls-2" d="M11.02,3.77s0-.06-.02-.07c-.03-.01-.13.05-.13.08,0,.01.14,0,.15-.01Z"/>
      </g>
      <g id="path5151">
        <path class="cls-6" d="M14.12,3.77s.03-.01.03-.02-.03-.02-.06-.03c-.06-.02-.11-.06-.23-.19-.06-.06-.07-.07-.17-.09-.07-.02-.12-.04-.14-.06-.06-.05-.12-.08-.14-.06-.01,0,0,.02.03.05.04.03.08.05.2.11.06.02.16.09.17.11.01.02.17.16.21.18.04.02.06.02.1,0h0Z"/>
      </g>
      <g id="path5149">
        <path class="cls-2" d="M11.46,3.72s.07-.04.08-.06c.04-.04.09-.07.22-.15.07-.04.1-.07.1-.08,0-.03-.03-.03-.07,0-.02.02-.07.05-.11.07-.04.02-.09.06-.12.09s-.06.05-.07.05-.01,0-.01,0-.03.02-.07.04c-.06.03-.08.04-.06.05.01.01.05,0,.1-.02h0Z"/>
      </g>
      <g id="path5147">
        <path class="cls-2" d="M14.2,3.69s-.01-.02-.04-.04c-.02-.01-.07-.05-.09-.08-.12-.13-.15-.16-.24-.2-.05-.02-.1-.04-.11-.04s-.05-.01-.08-.03c-.04-.02-.07-.03-.09-.03-.05.01-.04.03.03.07.01,0,.03.02.04.02.01,0,.06.02.11.04.09.03.12.05.24.18.07.08.2.14.23.1Z"/>
      </g>
      <g id="path5145">
        <path class="cls-2" d="M10.92,3.68s.05-.05.03-.06c-.03-.02-.14.04-.12.06,0,.01.05.01.09,0h0Z"/>
      </g>
      <g id="path5143">
        <path class="cls-6" d="M12.69,3.67s.04-.16.04-.25c0-.08,0-.09-.03-.1-.04-.02-.07,0-.08.06,0,.03-.03.09-.05.15-.02.05-.03.1-.03.11s.01.02.03.04c.03.03.1.04.12.01Z"/>
      </g>
      <g id="path5141">
        <path class="cls-6" d="M11.4,3.66c.05-.02.19-.11.2-.13,0,0,.05-.04.1-.07.13-.08.16-.11.14-.14-.01-.02-.05-.02-.07,0-.04.05-.2.19-.22.19-.01,0-.02,0-.03,0,0,0-.05.03-.1.05-.1.05-.13.07-.12.08.01.02.04.01.09-.01h0Z"/>
      </g>
      <g id="path5139">
        <path class="cls-2" d="M12.48,3.63s.03-.05.04-.09c.01-.04.03-.08.03-.09,0,0,.01-.04.02-.07,0-.06,0-.08-.07-.07-.04,0-.04,0-.1.11-.09.16-.1.17-.08.21,0,.02.02.04.04.04.03,0,.09,0,.12-.03h0Z"/>
      </g>
      <g id="path5137">
        <path class="cls-2" d="M14.74,3.64s-.1-.1-.12-.1c-.02,0-.04.05-.02.07.03.03.12.05.14.03h0Z"/>
      </g>
      <g id="path5135">
        <path class="cls-6" d="M14.44,3.58s-.04.03-.04.05c0,0,.01,0,.02-.01.01-.01.02-.03.02-.03h0Z"/>
      </g>
      <g id="path5133">
        <path class="cls-6" d="M14.27,3.6s.03-.04.04-.07c.03-.05.03-.07-.02-.08-.02,0-.1-.03-.17-.07-.08-.04-.15-.06-.19-.07-.06,0-.13-.03-.19-.07-.04-.02-.08-.03-.09,0,0,.01.06.05.09.05.08,0,.27.12.34.22.03.04.08.08.12.1.04.02.04.02.06-.01h0Z"/>
      </g>
      <g id="path5131">
        <path class="cls-2" d="M11.33,3.59s.07-.04.12-.06c.05-.02.1-.05.12-.06.04-.03.19-.16.19-.17,0,0,0-.01-.02-.02-.01,0-.04.01-.07.04-.03.03-.08.06-.12.08-.13.07-.29.17-.29.19s.03.02.07-.01Z"/>
      </g>
      <g id="path5129">
        <path class="cls-6" d="M12.92,3.57s.02-.04.01-.06c0-.02-.01-.05-.02-.08,0-.03-.01-.06-.02-.07,0,0,0-.02,0-.02,0-.02-.04-.04-.06-.04-.04,0-.05.03-.05.13,0,.12.03.17.09.17.02,0,.04,0,.05-.03Z"/>
      </g>
      <g id="path5127">
        <path class="cls-2" d="M10.91,3.57s.01-.02,0-.04c0-.01-.02-.03-.03-.03-.02,0-.08.03-.1.05-.02.02-.02.02,0,.03.03.01.1,0,.13-.02h0Z"/>
      </g>
      <g id="path5125">
        <path class="cls-6" d="M12.26,3.55s.04-.03.04-.04.02-.04.03-.06c.02-.03.03-.06.03-.09,0-.04,0-.04-.04-.05-.07-.02-.07-.01-.13.04-.1.11-.12.17-.06.21.04.02.08.02.12,0h0Z"/>
      </g>
      <g id="path5123">
        <path class="cls-6" d="M14.47,3.53c.07-.16.1-.24.12-.3,0-.03.02-.07.02-.08.01-.02.01-.08,0-.08,0,0-.02.03-.02.07,0,.04-.02.09-.03.1,0,.02-.03.07-.04.11-.01.04-.03.1-.05.12-.01.02-.02.05-.02.06s0,.02-.01.02-.01,0-.01.01c0,.02.02,0,.04-.04h0Z"/>
      </g>
      <g id="path5121">
        <path class="cls-6" d="M13.12,3.5s.02-.05,0-.06c0,0-.01-.03-.01-.05,0-.03,0-.05-.05-.08-.04-.03-.05-.04-.06-.03,0,0-.02.02-.04.02-.02,0-.03.01-.03.03,0,.03.04.2.06.21,0,0,.03.01.06.01.05,0,.05,0,.07-.05h0Z"/>
      </g>
      <g id="path5119">
        <path class="cls-6" d="M11.32,3.49s.07-.05.09-.06c.02,0,.03-.01.03-.02,0,0,.03-.02.06-.03s.06-.04.08-.05c.12-.1.12-.11.11-.12,0,0-.03,0-.07.04-.07.06-.15.11-.21.13-.04.02-.21.13-.21.14,0,.01.01.02.04.02.01,0,.05-.02.08-.05Z"/>
      </g>
      <g id="path5117">
        <path class="cls-2" d="M14.81,3.51l.03-.02-.04-.02s-.05-.02-.05-.03-.02-.02-.03-.02-.02,0-.02-.01c0-.02-.03,0-.04.02-.02.04-.02.06.03.08.06.03.09.03.12,0h0Z"/>
      </g>
      <g id="path5115">
        <path class="cls-2" d="M10.87,3.46s0-.02,0-.04c-.01-.03-.02-.03-.06-.02-.08,0-.12.06-.06.08.02,0,.04,0,.04,0,.01,0,.07-.01.08-.03Z"/>
      </g>
      <g id="path5113">
        <path class="cls-2" d="M11.27,3.42s.08-.05.12-.07c.09-.05.28-.18.28-.2,0-.02-.03-.02-.05,0-.03.03-.09.06-.16.09-.03.01-.1.05-.14.08-.04.03-.09.06-.1.07-.03.02-.04.06,0,.05.01,0,.04-.02.06-.04h0Z"/>
      </g>
      <g id="path5111">
        <path class="cls-6" d="M12.04,3.46s.13-.14.15-.17c.01-.02-.01-.09-.03-.09,0,0-.04.02-.06.06-.03.03-.07.08-.1.1-.05.05-.07.08-.05.1,0,.01.08.01.1,0h0Z"/>
      </g>
      <g id="path5109">
        <path class="cls-2" d="M14.37,3.39s0-.02-.02-.02c-.04,0-.23-.07-.27-.1-.04-.03-.18-.08-.24-.09-.04,0-.09,0-.09.03s.11.06.2.08c.05,0,.1.02.12.03.22.11.29.13.3.08h0Z"/>
      </g>
      <g id="path5107">
        <path class="cls-6" d="M11.24,3.34c.07-.06.1-.08.14-.09.05-.02.18-.08.18-.09,0,0-.03,0-.06,0-.05,0-.07,0-.12.04-.09.05-.25.2-.23.21.02,0,.06-.01.09-.05Z"/>
      </g>
      <g id="path5105">
        <path class="cls-2" d="M14.86,3.36s0-.01,0-.02c0,0-.04-.02-.07-.04-.03-.02-.06-.04-.07-.04-.01,0-.04.07-.03.08.02.03.14.04.17,0h0Z"/>
      </g>
      <g id="path5103">
        <path class="cls-2" d="M10.78,3.36s.06-.03.04-.06c-.02-.03-.06-.03-.11.02-.04.04-.04.04-.02.05.03.01.05.01.09,0Z"/>
      </g>
      <g id="path5101">
        <path class="cls-2" d="M11.96,3.34s.04-.05,0-.04c-.05,0-.06.02-.06.05,0,.04.02.04.07,0Z"/>
      </g>
      <g id="path5099">
        <path class="cls-2" d="M11.19,3.28s.07-.06.1-.08.07-.04.07-.05c0-.02-.09,0-.14.05-.03.03-.07.05-.08.06-.03.01-.05.04-.03.05.03.02.04.01.08-.03Z"/>
      </g>
      <g id="path5097">
        <path class="cls-6" d="M14.41,3.3s0-.03-.1-.05c-.06-.01-.15-.05-.21-.09-.07-.05-.22-.08-.21-.05,0,0,.05.03.1.04s.11.04.14.06c.07.04.19.08.26.09,0,0,.02,0,.03-.01h0Z"/>
      </g>
      <g id="path5095">
        <path class="cls-2" d="M13.44,3.26c.09-.03.09-.03.08-.04,0,0-.19.05-.21.06-.01.01-.01.01.02,0,.02,0,.07-.02.11-.03Z"/>
      </g>
      <g id="path5093">
        <path class="cls-2" d="M12.94,3.25c.06,0,.07,0,.05-.02-.02-.01-.06-.02-.38-.02-.2,0-.37,0-.37,0,0,0,.02.01.04.02.04.02.08.02.32.01.15,0,.31,0,.34,0Z"/>
      </g>
      <g id="path5091">
        <path class="cls-2" d="M10.79,3.23s0-.07-.04-.07c-.03,0-.1.05-.1.07s.12.02.14,0h0Z"/>
      </g>
      <g id="path5089">
        <path class="cls-6" d="M12.02,3.21c.1-.06.11-.07.13-.09.02-.02.02-.03,0-.06-.02-.05,0-.08.03-.12.01-.01.03-.04.03-.06,0-.02.01-.04.02-.04,0,0,.02-.02.02-.03,0-.02,0-.03-.04-.02-.07.01-.15.05-.2.09-.03.02-.07.05-.1.05q-.21.05-.2.18c.01.14.02.15.14.14.08,0,.1,0,.15-.04Z"/>
      </g>
      <g id="path5087">
        <path class="cls-6" d="M13.29,3.23c.06-.02.09-.03.09-.05,0-.02-.06-.07-.1-.08-.09-.03-.11-.04-.15-.07-.03-.03-.04-.03-.08-.02-.03,0-.07.01-.1.01-.03,0-.05.01-.05.02,0,.02.08.11.14.16.04.04.05.04.11.04.04,0,.1,0,.13-.02Z"/>
      </g>
      <g id="path5085">
        <path class="cls-2" d="M14.88,3.21l.03-.02h-.03s-.05-.03-.08-.04-.05-.02-.05-.02,0,.02-.01.04c0,.03,0,.04.01.05.03.02.1.02.13,0h0Z"/>
      </g>
      <g id="path5083">
        <path class="cls-6" d="M11.15,3.2c.07-.05.06-.06-.02-.06-.05,0-.06,0-.06.02,0,.03.02.06.04.06,0,0,.03-.01.05-.02Z"/>
      </g>
      <g id="path5081">
        <path class="cls-2" d="M14.42,3.22s-.02-.02-.04-.02c-.02,0-.05-.02-.05-.02s-.04-.02-.08-.04c-.05-.03-.07-.03-.13-.03h-.06s.1.05.1.05c.05.03.12.05.14.06.05.02.13.02.13,0h0Z"/>
      </g>
      <g id="path5079">
        <path class="cls-2" d="M13.7,3.16c.18-.09.25-.14.38-.25.07-.06.13-.13.14-.15.01-.02.03-.05.05-.06.02-.01.03-.03.03-.04s.01-.03.03-.06c.06-.08.12-.3.08-.3,0,0-.01.02-.02.03-.01.08-.03.13-.05.18-.04.09-.08.16-.09.18,0,0-.03.04-.06.08-.05.07-.09.11-.19.19-.07.06-.19.14-.21.14,0,0-.02,0-.03.01,0,0-.05.03-.1.05-.04.02-.08.04-.08.04,0,.01.04,0,.12-.04h0Z"/>
      </g>
      <g id="path5077">
        <path class="cls-3" d="M12.79,3.17c.07,0,.14,0,.14,0,0,0,0-.01-.01-.02-.01-.02-.04-.02-.3-.02-.16,0-.31,0-.34,0-.07,0-.08.02-.03.04.03.01.27.03.37.02.02,0,.11,0,.18,0Z"/>
      </g>
      <g id="path5075">
        <path class="cls-3" d="M13.54,3.16c.11-.04.1-.05-.03-.05-.06,0-.11,0-.11,0,0,.02.04.07.05.07.01,0,.05-.01.09-.02h0Z"/>
      </g>
      <g id="path5073">
        <path class="cls-6" d="M14.46,3.11s0-.03-.02-.03c0,0-.04,0-.07,0-.03,0-.05,0-.05.01,0,.02.06.04.1.04.04,0,.04,0,.04-.03Z"/>
      </g>
      <g id="path5071">
        <path class="cls-2" d="M10.76,3.06s0-.04-.02-.04c-.03,0-.1.03-.1.03,0,.02.05.05.09.05.02,0,.03,0,.03-.04Z"/>
      </g>
      <g id="path5069">
        <path class="cls-6" d="M11.62,3.09s.04-.01.04-.06c0-.05,0-.05-.03-.06-.05-.01-.69,0-.7.02-.02.02.02.06.07.09.04.03.04.03.31.03.15,0,.29,0,.31-.01h0Z"/>
      </g>
      <g id="path5067">
        <path class="cls-2" d="M12.84,3.06s0-.01-.01-.02c-.02-.01-.06-.01-.13-.02-.12,0-.38-.04-.38-.06,0-.02-.06,0-.06.02-.02.05.02.08.12.09.08,0,.46,0,.47,0Z"/>
      </g>
      <g id="path5065">
        <path class="cls-2" d="M14.89,3.05s.03-.01.03-.02-.03-.03-.07-.05c-.08-.05-.08-.05-.09.02-.01.07.03.08.13.05Z"/>
      </g>
      <g id="path5063">
        <path class="cls-6" d="M13.76,3.03s.05-.03.05-.06v-.03s-.33,0-.33,0c-.21,0-.33,0-.34,0-.02.02.01.04.1.08l.08.03h.2c.2,0,.2,0,.25-.03h0Z"/>
      </g>
      <g id="path5061">
        <path class="cls-2" d="M14.42,3.04s.1-.06.1-.09c0-.02-.03-.03-.22-.03h-.16s-.07.06-.07.06c-.04.03-.06.06-.06.07,0,0,.33,0,.4,0h0Z"/>
      </g>
      <g id="path5059">
        <path class="cls-6" d="M14.64,2.96s0-.02-.01-.02-.01.02-.01.05c0,.04,0,.05.01.02,0-.01,0-.04.01-.05Z"/>
      </g>
      <g id="path5057">
        <path class="cls-6" d="M12.77,2.97s-.07-.09-.09-.1c-.01,0-.08-.01-.15-.02-.07,0-.15-.01-.18-.02h-.05s0,.03,0,.03c0,.04.03.06.11.08.09.02.36.04.36.02Z"/>
      </g>
      <g id="path5274">
        <path class="cls-6" d="M13.07,2.85l-.07-.02s-.02.03-.05.03c-.07,0-.17.01-.17.02,0,0,0,.02.02.03s.03.03.04.05c.02.02.02.02.09.02.04,0,.09-.01.12-.02.05-.02.06-.05.04-.09,0,0,0,0,0,0Z"/>
      </g>
      <g id="path5055">
        <path class="cls-2" d="M13.12,2.75c-.11,0-.13,0-.14.02,0,0,0,.03,0,.04,0,0,0,.02,0,.02l.07.02s.01-.04.05,0c.02.03.04.03.07.03.09,0,.16-.09.09-.12-.02,0-.09-.01-.16-.01Z"/>
      </g>
      <g id="path5053">
        <path class="cls-3" d="M13.92,2.96s.04-.04,0-.04c-.03,0-.04,0-.04.03,0,.02,0,.03,0,.03,0,0,.02-.01.04-.02Z"/>
      </g>
      <g id="path5051">
        <path class="cls-6" d="M11.21,2.91s.01-.01,0-.02c0,0-.02-.03-.02-.06,0-.06-.02-.07-.14-.06-.05,0-.16,0-.24,0-.16,0-.16,0-.16.02,0,.03.07.08.13.1.05.02.4.02.43,0Z"/>
      </g>
      <g id="path5049">
        <path class="cls-2" d="M11.82,2.89s.07-.02.08-.02c.03,0,.09-.04.11-.06l.02-.03h-.38s-.38,0-.38,0v.03s0,.04.03.06c.05.04.1.04.29.04.14,0,.18,0,.24-.02h0Z"/>
      </g>
      <g id="path5047">
        <path class="cls-2" d="M13.88,2.86c.09-.03.13-.08.08-.11-.01,0-.52,0-.57,0-.03,0-.04.01-.04.04,0,.02-.01.05-.01.06v.02s.24,0,.24,0c.2,0,.26,0,.3-.02Z"/>
      </g>
      <g id="path5045">
        <path class="cls-3" d="M14.03,2.87s.11-.11.11-.12c0-.01-.07-.02-.08,0,0,0-.02.03-.03.05,0,.02-.02.05-.03.05-.03.02,0,.04.04.02h0Z"/>
      </g>
      <g id="path5043">
        <path class="cls-2" d="M14.64,2.85c.06-.02.1-.06.09-.09,0-.01-.03-.02-.18-.02-.25,0-.25,0-.29.06-.02.03-.04.06-.04.06s.08,0,.18,0c.14,0,.2,0,.24-.02Z"/>
      </g>
      <g id="path5041">
        <path class="cls-2" d="M12.63,2.81s-.03-.06-.07-.12c-.07-.1-.08-.11-.13-.12-.06-.02-.08,0-.1.07,0,.03-.02.07-.02.08-.02.04,0,.08.06.09.14.02.17.03.21.02.02,0,.04,0,.05-.01h0Z"/>
      </g>
      <g id="path5039">
        <path class="cls-2" d="M12.89,2.82s.03,0,.02-.11c0-.08,0-.11-.02-.12-.02-.01-.31-.01-.32,0-.01,0-.01.01,0,.04,0,.02.02.03.02.03s0,0,0,.01.02.03.03.06.04.06.06.08l.02.03h.07s.09-.01.1-.01h0Z"/>
      </g>
      <g id="path5037">
        <path class="cls-2" d="M11.01,2.72s0-.02-.02-.03c-.02-.02-.04-.04-.04-.06-.01-.03-.02-.03-.06-.03-.02,0-.11,0-.2,0-.18,0-.19,0-.14.07.05.05.07.05.15.06.07,0,.3,0,.31,0h0Z"/>
      </g>
      <g id="path5035">
        <path class="cls-6" d="M11.54,2.71s.02-.01.02-.02c0-.01-.04-.09-.05-.1-.02-.01-.47,0-.49,0-.01,0-.01.01,0,.04.02.04.07.06.14.08.05,0,.35,0,.39,0h0Z"/>
      </g>
      <g id="path5033">
        <path class="cls-6" d="M12.19,2.71h.03s-.03-.03-.03-.03c-.02-.02-.04-.05-.04-.06v-.03s-.27,0-.27,0c-.15,0-.27,0-.28.01-.02.01.02.08.05.09.07.03.09.03.54.02h0Z"/>
      </g>
      <g id="path5031">
        <path class="cls-6" d="M13.34,2.69c.05,0,.11-.05.1-.09,0-.04-.02-.04-.26-.04-.23,0-.23,0-.21.08,0,.03.01.05.03.05.03,0,.3,0,.35,0Z"/>
      </g>
      <g id="path5029">
        <path class="cls-6" d="M14.03,2.68c.08-.02.13-.09.07-.11-.03,0-.55,0-.57,0,0,0-.02.02-.02.03s-.01.04-.02.05c-.01.01-.02.03-.02.04,0,.01.51,0,.57-.01h0Z"/>
      </g>
      <g id="path5027">
        <path class="cls-3" d="M14.23,2.63s.04-.06.02-.07c-.03-.02-.07,0-.07.03,0,.02-.01.04-.02.05-.03.03-.03.04,0,.04.02,0,.04-.01.06-.06h0Z"/>
      </g>
      <g id="path5025">
        <path class="cls-6" d="M14.73,2.67c.09-.02.17-.08.14-.1,0,0-.09,0-.18-.01-.29,0-.26,0-.3.05-.02.03-.03.06-.03.06,0,.02.3.02.38,0Z"/>
      </g>
      <g id="path5023">
        <path class="cls-6" d="M12.28,2.64s.01-.06-.02-.06c-.05,0-.07.05-.03.08.03.02.04.02.05-.02h0Z"/>
      </g>
      <g id="path5021">
        <path class="cls-3" d="M10.76,2.54s0-.01,0-.02c0,0-.03-.03-.04-.05l-.02-.03h-.23c-.13,0-.24,0-.25,0-.05.02,0,.07.09.1.06.01.44.01.46,0h0Z"/>
      </g>
      <g id="path5019">
        <path class="cls-2" d="M11.36,2.53s0-.02,0-.03c0,0-.02-.03-.02-.05v-.03s-.14,0-.14,0c-.08,0-.2,0-.27,0-.11,0-.14,0-.14.02,0,.02.06.07.1.08.05.01.49.01.49,0h0Z"/>
      </g>
      <g id="path5017">
        <path class="cls-6" d="M12.04,2.53s0-.02-.02-.03c-.01-.02-.02-.04-.02-.05s0-.02-.01-.02c-.07,0-.56,0-.57,0-.02.01,0,.05.04.08l.05.03h.27c.15-.01.27-.02.27-.02h0Z"/>
      </g>
      <g id="path5015">
        <path class="cls-6" d="M12.29,2.52s-.1-.09-.15-.1c-.1-.03-.13.03-.04.09.03.02.17.03.18,0Z"/>
      </g>
      <g id="path5260">
        <path class="cls-2" d="M13.08,1.96l.04.03s0,0,0,0c0,0,.02,0,.03,0,.04.02.17.03.35.03.19,0,.23-.01.27-.05.05-.05.04-.06-.34-.06-.35,0-.35,0-.34.02,0,.02,0,.03,0,.04Z"/>
      </g>
      <g id="path5267">
        <path class="cls-6" d="M13.69,2.34l-.02.03s.31-.01.45-.01c.08,0,.09,0,.12-.03.06-.05.03-.08-.06-.09-.06,0-.08,0-.16.03-.07.03-.1.04-.18.05-.05,0-.11.01-.13.01-.01,0-.02,0-.02,0Z"/>
      </g>
      <g id="path5292">
        <path class="cls-6" d="M13.67,2.37h-.47s-.03.03-.06.03c-.02,0-.06.03-.09.05-.06.05-.08.08-.03.07.07-.02.1-.02.11,0,.01.02.27.02.36,0,.08-.01.09-.02.12-.09.01-.03.03-.05.04-.05,0,0,.01,0,.02,0Z"/>
      </g>
      <g id="path5242">
        <path class="cls-3" d="M12.49,1.55s-.01,0-.02.01c0,0-.01.05,0,.14,0,.11,0,.12-.02.15-.03.04-.09.06-.14.04-.05-.02-.07-.04-.07-.07,0-.01,0-.03-.01-.03,0,0,0-.01,0-.02l-.08.05c.08.08.1.13.07.17-.02.03-.02.05.02.12.02.03.06.09.07.12.02.03.05.09.08.12.02.03.04.07.04.07s0,0,.01,0,.02.01.02.03c.02.05.04.05.25.05.15,0,.19,0,.2-.02.04-.07.25-.19.28-.16,0,0,0,.01,0,.02h.47s.02-.02.02-.02c0,0,0,0,0-.03,0-.02,0-.03,0-.03s-.02.01-.04.03c-.08.06-.12.05-.05-.01.03-.03.04-.05.04-.08,0-.07-.07-.12-.16-.12-.06,0-.07,0-.07.04,0,.02,0,.03-.01.03s-.01.01-.02.02c0,.03-.06.08-.08.07-.02,0-.02-.01.02-.06.01-.02.03-.05.03-.06,0-.04,0-.05-.06-.05-.06,0-.18-.08-.18-.11l-.04-.03s-.08.01-.17-.03c-.13-.06-.22-.14-.31-.27-.06-.08-.09-.11-.11-.11Z"/>
      </g>
      <g id="path5253">
        <path class="cls-2" d="M12.22,1.79l-.03-.05s0,0,0,0c0,0-.02-.02-.04-.03-.01-.02-.04-.05-.05-.07s-.03-.04-.03-.04c0-.02-.09-.09-.15-.13-.03-.02-.07-.05-.09-.07-.04-.05-.08-.04-.06,0,.01.05.07.11.16.18.04.03.09.08.11.11.02.03.07.08.1.11,0,0,0,.01.02.02l.07-.05Z"/>
      </g>
      <g id="path5251">
        <path class="cls-6" d="M12.3,1.73l-.02-.02s-.04-.02-.11-.12c-.02-.03-.06-.07-.1-.1-.04-.03-.07-.05-.07-.06s-.01-.02-.02-.03c-.01-.01-.04-.04-.05-.06-.03-.04-.05-.04-.08-.02-.02.02-.02.02,0,.05,0,.02.06.05.11.09.09.06.16.13.2.21.01.02.03.05.03.05.01,0,0,.03,0,.04l.03.05h0s.03-.04.07-.06c0,0,0,0,0,0Z"/>
      </g>
      <g id="path5013">
        <path class="cls-2" d="M12,1.25s-.02,0-.03,0c-.02.03.02.07.13.18.09.08.13.13.16.18.02.03.03.07.03.08,0,0,0,0,0,0l.02.02s.03-.03.05-.07c.01-.03.02-.07.01-.07,0,0-.03-.03-.07-.06-.09-.06-.2-.17-.25-.24-.01-.02-.03-.03-.04-.03Z"/>
      </g>
      <g id="path5011">
        <path class="cls-6" d="M12.75,2.07s-.09-.02-.11-.03c-.03,0-.05,0-.09,0-.06.02-.08.02-.08,0,0-.01,0-.02-.06,0-.06,0-.06,0-.06-.01,0-.03.06-.05.16-.05.1,0,.18,0,.28.04.04.01.09.02.13.02.06,0,.07,0,.07.02,0,.02-.07.04-.13.04-.02,0-.08,0-.11-.02h0Z"/>
      </g>
      <g id="path5009">
        <path class="cls-2" d="M14.11,2.51s.08-.05.08-.08c0-.03-.03-.03-.27-.03-.22,0-.22,0-.24.03,0,.01-.02.03-.03.04,0,0-.01.02-.01.03,0,.02.01.02.23.01.12,0,.23,0,.24,0Z"/>
      </g>
      <g id="path5007">
        <path class="cls-3" d="M14.28,2.51s.03-.05.03-.08c0-.02,0-.03-.03-.03-.02,0-.03,0-.03.02,0,0,0,.03-.02.05-.01.03-.02.03,0,.04,0,0,.02,0,.03,0,0,0,.02,0,.02,0h0Z"/>
      </g>
      <g id="path5005">
        <path class="cls-3" d="M12.41,2.5s0-.03-.02-.04-.02-.03-.02-.04-.03-.05-.06-.1c-.03-.05-.06-.1-.06-.1s-.02-.03-.04-.06c-.02-.03-.04-.06-.04-.07,0-.02-.04-.02-.07,0-.01,0-.04.02-.07.02-.05,0-.06,0-.06-.06,0-.04-.03-.04-.05,0-.01.02,0,.03.03.09.05.08.22.24.31.3.04.02.08.05.1.06.03.02.05.03.06.01h0Z"/>
      </g>
      <g id="path5003">
        <path class="cls-2" d="M14.79,2.5c.09-.03.11-.05.09-.08-.02-.02-.39-.02-.41,0-.02.02-.03.07-.02.08,0,.01.29.01.34,0h0Z"/>
      </g>
      <g id="path5001">
        <path class="cls-6" d="M15.22,2.49c.06-.01.09-.04.08-.07,0-.01-.03-.02-.18-.02h-.17v.04s-.02.05-.02.05c0,.01.2,0,.29-.01h0Z"/>
      </g>
      <g id="path4999">
        <path class="cls-6" d="M11.03,2.38c.12,0,.22,0,.22-.01,0,0,0-.02-.01-.04s-.02-.04-.02-.05,0-.02-.02-.03c-.01,0-.15,0-.32,0-.28,0-.3,0-.3.03,0,.03.07.09.14.1.01,0,.04,0,.06,0,.02,0,.13,0,.25,0h0Z"/>
      </g>
      <g id="path4997">
        <path class="cls-6" d="M10.56,2.38s0-.02-.02-.03c0-.02-.02-.04-.03-.06v-.03s-.24,0-.24,0c-.27,0-.3,0-.32.01-.02.01.03.07.08.09.05.02.06.02.28.02.13,0,.23,0,.23,0h0Z"/>
      </g>
      <g id="path4995">
        <path class="cls-2" d="M11.89,2.36s0-.05-.01-.07c0,0-.06-.01-.12-.01-.06,0-.16,0-.21-.02-.14-.02-.24-.02-.26,0-.01.02,0,.05.04.08.03.02.04.02.29.02.14,0,.26,0,.27,0h0Z"/>
      </g>
      <g id="path4993">
        <path class="cls-6" d="M12.06,2.33c-.04-.06-.1-.09-.09-.04,0,.02.01.03.04.05.06.03.07.02.05-.01Z"/>
      </g>
      <g id="path4991">
        <path class="cls-6" d="M14.8,2.35s.08-.01.1-.02c.04-.02.07-.06.05-.08-.01-.01-.05-.02-.22-.01-.15,0-.21,0-.22.02-.02.01-.03.09-.01.11,0,0,.16,0,.3,0Z"/>
      </g>
      <g id="path4989">
        <path class="cls-2" d="M15.27,2.34c.08,0,.15-.02.16-.02.05-.02.07-.04.07-.06,0-.03-.06-.03-.29-.03h-.19s0,.03,0,.03c0,.01-.01.04-.03.05-.01.02-.02.03-.02.03,0,0,.07.01.12,0,.02,0,.11,0,.18-.01h0Z"/>
      </g>
      <g id="path4987">
        <path class="cls-3" d="M14.35,2.32s-.02-.05-.04,0c0,.02-.01.04-.01.04,0,0,.01,0,.03,0,.02,0,.03-.01.03-.03Z"/>
      </g>
      <g id="path4985">
        <path class="cls-3" d="M13.99,2.22c.08-.04.16-.04.24-.02.02,0,.08.01.13.02h.09s.03-.03.03-.03c.02-.02.03-.04.03-.05,0-.01,0-.02-.03,0-.02,0-.03.02-.02.03,0,.03-.03.05-.05.02-.01-.01-.01-.02,0-.03.01-.01.02-.03.02-.04,0-.02.01-.03.07,0,.01,0,.02,0,.02-.02,0-.03,0-.04-.03-.04-.04,0-.06-.01-.06-.04,0-.04-.01-.09-.03-.09,0,0-.03.02-.04.03-.09.11-.17.15-.27.14-.03,0-.1,0-.17-.01-.1,0-.14,0-.19.01-.05.01-.06.02-.06.04,0,0,.01.04.01.08,0,.06,0,.06.04.05.02,0,.04,0,.05,0,.03.02.14,0,.22-.04h0Z"/>
      </g>
      <g id="path4983">
        <path class="cls-3" d="M11.93,2.22s0-.03-.03-.07c-.02-.03-.04-.07-.04-.08,0-.01-.01-.02-.04-.02-.06-.01-.08,0-.16.03-.08.04-.16.05-.19.04-.02-.01,0-.02.1-.05.05-.02.11-.04.17-.08.07-.05.09-.06.13-.06.06,0,.09.02.1.07,0,.06.03.07.08.05.02,0,.04-.02.05-.02,0,0,.02-.01.03-.01.02,0,.04-.03.04-.06,0-.03-.08-.1-.13-.12-.04-.02-.07-.02-.14-.02-.09,0-.12,0-.25.05-.12.04-.28.16-.33.23-.02.03-.02.03,0,.05.03.02.18.08.22.08.02,0,.04,0,.05,0,.02.01.32,0,.34,0h0Z"/>
      </g>
      <g id="path4981">
        <path class="cls-2" d="M10.99,2.21c.08,0,.16,0,.16,0,.01,0,.01-.02,0-.05,0-.02-.02-.04-.02-.05-.03,0-.65,0-.66,0-.02,0-.02.05.02.08.04.03.05.03.22.03.07,0,.2,0,.28,0h0Z"/>
      </g>
      <g id="path4979">
        <path class="cls-2" d="M10.41,2.16s0-.05-.01-.05c-.01-.01-.55,0-.56,0-.02.01,0,.04.05.07.04.02.04.03.29.02h.25s0-.04,0-.04Z"/>
      </g>
      <g id="path4977">
        <path class="cls-6" d="M11.29,2.17s-.03-.03-.04-.05c-.02-.03-.06-.03-.06,0,0,.04.03.07.08.07h.04l-.02-.02Z"/>
      </g>
      <g id="path4975">
        <path class="cls-2" d="M14.97,2.16s.08-.06.07-.09c0-.01-.03-.02-.14-.01-.07,0-.17,0-.22,0h-.09s-.01.04-.01.04c-.03.08-.04.08.17.07.13,0,.19,0,.22-.02h0Z"/>
      </g>
      <g id="path4973">
        <path class="cls-6" d="M15.58,2.15s.09-.06.08-.08c0,0-.12,0-.27-.01h-.26s-.03.05-.03.05c-.02.03-.03.05-.03.06,0,.01.11.01.3,0,.12,0,.18-.01.22-.02Z"/>
      </g>
      <g id="path4971">
        <path class="cls-6" d="M10.28,2.03s0-.02,0-.02c0,0-.01-.02-.02-.05,0-.04-.01-.04-.04-.04-.1,0-.49,0-.5,0-.03.02.03.09.09.11.01,0,.13,0,.25,0,.19,0,.22,0,.22-.01Z"/>
      </g>
      <g id="path4969">
        <path class="cls-6" d="M11.09,2.03s0-.02,0-.03-.01-.03,0-.05c.01-.05,0-.05-.27-.04-.14,0-.28,0-.31,0-.02,0-.07,0-.11,0-.06,0-.06,0-.06.03,0,.03.04.07.09.09.04.01.67,0,.68,0h0Z"/>
      </g>
      <g id="path4967">
        <path class="cls-2" d="M11.37,1.97l.07-.06h-.03c-.05-.02-.24,0-.26,0-.03.02-.02.07.01.1.03.03.03.03.08.02.05,0,.06-.02.12-.07Z"/>
      </g>
      <g id="path4965">
        <path class="cls-2" d="M14.16,2c.05,0,.09,0,.11-.01.02-.02.06-.07.06-.08,0,0-.1,0-.23,0h-.23s-.03.05-.03.05c-.01.03-.03.05-.03.05,0,0,.17.01.22,0,.02,0,.08,0,.13,0h0Z"/>
      </g>
      <g id="path4963">
        <path class="cls-2" d="M15.02,1.99c.06-.01.11-.04.11-.07,0-.01-.16-.02-.41-.02h-.17s0,.04,0,.04c0,.03,0,.05,0,.05.01.01.39,0,.46,0Z"/>
      </g>
      <g id="path4961">
        <path class="cls-2" d="M15.73,1.98s.06-.06.05-.07c0,0-.52-.02-.55,0-.01,0-.04.02-.05.05l-.03.04h.03c.07.01.53,0,.55-.01Z"/>
      </g>
      <g id="path4959">
        <path class="cls-6" d="M11.88,1.97s.02-.02,0-.03c-.02,0-.07.03-.05.04.02.01.03.01.05-.01Z"/>
      </g>
      <g id="path4957">
        <path class="cls-2" d="M14.48,1.87c-.02-.07-.08-.2-.12-.24-.02-.02-.04-.04-.05-.05-.02-.03-.07-.08-.16-.17-.16-.15-.31-.25-.52-.35-.16-.07-.17-.08-.31-.12-.06-.02-.11-.03-.13-.04-.03-.01-.15-.03-.26-.04-.25-.02-.2-.02-.37,0-.16.02-.16.02-.16.04,0,.01,0,.01.03,0,.11-.03.48-.04.64-.01.18.03.33.07.44.12.03.01.06.03.07.03s.03.01.05.03c.02.01.07.04.11.06.2.09.46.33.63.56.07.1.1.16.1.23,0,.01,0,.03,0,.03.02.01.02-.04,0-.1h0Z"/>
      </g>
      <g id="path4955">
        <path class="cls-2" d="M11.07,1.84s.03-.04.04-.06c.03-.05.04-.06.08-.12.06-.08.08-.1.2-.22.16-.15.23-.2.47-.34.02-.01.03-.02.02-.03-.01-.01-.07.01-.21.1-.17.1-.4.32-.5.45-.01.02-.04.05-.05.06-.03.03-.1.14-.1.16s.02.02.04,0Z"/>
      </g>
      <g id="path4953">
        <path class="cls-6" d="M11.15,1.82s.03-.04.03-.05c0,0,.02-.02.02-.03s0-.02,0-.02c0,0,.04-.04.07-.08.03-.04.12-.13.19-.19.14-.13.21-.18.32-.24.02-.01.06-.03.08-.05.02-.01.04-.03.06-.03.01,0,.02,0,0-.01,0,0-.03,0-.04.01-.1.05-.15.08-.18.1-.02.01-.04.03-.06.04-.03.02-.22.17-.29.24-.07.06-.25.31-.25.33,0,.02.02,0,.04-.03h0Z"/>
      </g>
      <g id="path4951">
        <path class="cls-6" d="M11.41,1.85s.03-.01.03-.02c0-.01-.09-.06-.1-.06-.02,0-.05.06-.04.07,0,.01.06.01.12,0Z"/>
      </g>
      <g id="path4949">
        <path class="cls-6" d="M13.04,1.79c.02-.1.08-.19.22-.3.09-.08.18-.23.16-.29-.01-.04-.04-.02-.08.05-.03.05-.06.09-.12.15-.08.07-.13.13-.13.14,0,0,0,.02-.02.03-.01.02-.03.06-.05.1-.03.07-.03.09-.05.1,0,0,0,.02.01.04.03.05.05.04.06-.03h0Z"/>
      </g>
      <g id="path4947">
        <path class="cls-2" d="M13.16,1.84s.03-.04.04-.07c.04-.09.08-.14.15-.21.04-.04.07-.08.07-.08s.01-.03.03-.05c.04-.05.07-.13.07-.17,0-.05-.03-.04-.04.01-.01.06-.09.18-.18.26-.07.07-.18.2-.18.23,0,0,0,.02-.01.02-.02,0-.01.06,0,.06.03,0,.04,0,.06-.01h0Z"/>
      </g>
      <g id="path4945">
        <path class="cls-2" d="M11.24,1.83s.02-.02.02-.03c0-.01.02-.03.16-.21.06-.07.34-.29.36-.29,0,0,.03-.01.05-.03.04-.03.05-.04.15-.07.05-.02.07-.04.04-.04-.03,0-.27.13-.35.19-.17.13-.36.32-.43.44-.04.06-.04.08,0,.04h0Z"/>
      </g>
      <g id="path4943">
        <path class="cls-2" d="M11.58,1.84s0-.03-.01-.03c0,0-.03-.01-.05-.03-.02-.01-.04-.03-.05-.03s-.02,0-.03-.02c-.02-.02-.06-.03-.06,0,0,.02.02.03.11.08.08.04.07.04.1.03Z"/>
      </g>
      <g id="path4941">
        <path class="cls-6" d="M13.29,1.81c.02-.05.04-.08.05-.11,0-.01,0-.02,0-.03s.05-.06.12-.12c.08-.08.13-.13.15-.18.04-.08.04-.09-.02-.11-.03-.01-.05,0-.05.05,0,.04-.03.12-.07.16-.01.02-.03.04-.05.06s-.04.05-.07.08c-.12.14-.15.18-.14.22,0,0,.01,0,.03,0,.02,0,.03,0,.04-.03Z"/>
      </g>
      <g id="path4939">
        <path class="cls-2" d="M13.4,1.81s.06-.08.1-.12c.04-.04.09-.09.1-.11s.03-.05.05-.07c.05-.06.08-.15.05-.17,0,0-.03.03-.05.07-.05.08-.09.13-.18.22-.1.09-.16.22-.1.22.01,0,.03-.02.04-.04h0Z"/>
      </g>
      <g id="path4937">
        <path class="cls-6" d="M13.56,1.81c.04-.06.06-.09.11-.13.02-.02.07-.06.09-.08.06-.05.11-.13.1-.17,0-.01-.01-.03-.02-.03s-.02,0-.03-.02c-.03-.03-.06-.02-.06.02,0,.06-.09.2-.21.31-.11.1-.12.14-.05.13.04,0,.05,0,.06-.03h0Z"/>
      </g>
      <g id="path4935">
        <path class="cls-2" d="M13.73,1.81s.05-.07.09-.1c.09-.08.14-.17.11-.2-.02-.02-.04-.01-.05.02,0,.02-.04.07-.13.15-.11.1-.15.15-.15.17,0,0,.02,0,.05,0,.05,0,.06,0,.07-.04h0Z"/>
      </g>
      <g id="path4933">
        <path class="cls-2" d="M13.91,1.81s.07-.06.11-.08c.06-.04.08-.07.06-.09-.01-.01-.18.08-.25.13-.06.05-.06.08,0,.08.03,0,.05,0,.09-.04Z"/>
      </g>
      <g id="path4931">
        <path class="cls-6" d="M14.22,1.84s-.08-.13-.09-.13c0,0-.03.02-.06.04-.03.02-.06.05-.08.06-.06.04-.04.05.1.05.08,0,.13,0,.14-.01Z"/>
      </g>
      <g id="path4929">
        <path class="cls-2" d="M14.31,1.8s-.03-.05-.04-.05c0,0-.02-.03-.03-.04-.04-.06-.17-.2-.23-.25-.04-.03-.07-.06-.08-.07,0,0-.03-.03-.05-.04-.02-.01-.04-.02-.04-.03,0,0-.19-.13-.25-.15-.11-.05-.15-.06-.16-.06,0,0-.03,0-.05-.02-.07-.03-.29-.09-.33-.08,0,0-.03,0-.04,0-.05-.01-.35-.01-.48,0-.06,0-.12.02-.15.03-.08.03-.26.02-.31,0-.05-.03-.07-.09-.06-.15,0-.05.08-.12.12-.12.04,0,.1.02.13.04.04.04.06.14.03.18-.02.03.02.03.06,0,.04-.03.02-.15-.03-.21-.05-.06-.2-.08-.25-.04-.02.01-.03.02-.04.02-.02,0-.06.09-.06.14,0,.06.01.11.06.15.06.06.09.07.17.05.04,0,.09-.02.11-.03.02-.01.08-.02.12-.03.04,0,.1-.02.12-.02.06-.01.39-.01.46,0,.16.03.2.03.28.06.15.05.33.12.42.18.05.03.09.06.09.06,0,0,.1.07.14.1.02.01.05.04.07.06.02.02.09.08.14.15.06.06.11.12.12.13,0,0,.01.02.01.03,0,.02.04.06.06.05,0,0,0-.02-.01-.04h0Z"/>
      </g>
      <g id="path4927">
        <path class="cls-6" d="M14.37,1.77s-.07-.1-.11-.14c-.01-.01-.04-.04-.05-.06-.01-.02-.05-.06-.09-.09-.11-.09-.18-.16-.2-.17-.01,0-.03-.02-.03-.02-.04-.04-.2-.13-.3-.17-.02,0-.04-.02-.04-.02-.01-.02-.16-.07-.21-.08-.01,0-.03,0-.04-.01s-.09-.02-.17-.04c-.14-.03-.17-.03-.38-.02-.27,0-.33.01-.33.04,0,.01,0,.01.03,0,.13-.03.44-.04.61-.01.06,0,.13.02.16.03.06.01.22.06.27.09.02,0,.04.02.05.02,0,0,.04.02.08.04s.08.04.1.05c.06.03.11.06.15.09.02.02.07.05.11.08.11.08.35.34.4.44,0,.01.02.02.02.01s0-.03-.01-.05Z"/>
      </g>
      <g id="path4925">
        <path class="cls-2" d="M11,1.79s.02-.04-.06-.04h-.07s.04.03.04.03c.04.03.08.04.1.01h0Z"/>
      </g>
      <g id="path4923">
        <path class="cls-6" d="M11.71,1.79s.03-.03,0-.04c-.05-.01-.23-.1-.23-.11,0-.02-.03-.01-.05,0-.02.02,0,.05.07.08.11.07.14.08.2.06Z"/>
      </g>
      <g id="path4921">
        <path class="cls-2" d="M14.58,1.75s.07-.05.05-.06c-.01,0-.12.01-.14.02-.02.01,0,.07.03.07,0,0,.03-.01.06-.03Z"/>
      </g>
      <g id="path4919">
        <path class="cls-6" d="M12.01,1.75s-.09-.1-.15-.13c-.03-.02-.05-.03-.05-.04,0,0-.01-.02-.03-.03-.02,0-.04-.04-.05-.06s-.03-.05-.04-.05c-.02,0-.11.07-.11.08,0,0,.02.01.04.02.06.02.16.08.24.14.09.07.15.1.15.07h0Z"/>
      </g>
      <g id="path4917">
        <path class="cls-2" d="M12.97,1.68c0-.08.08-.2.23-.34.11-.1.14-.14.13-.18,0-.02-.04-.01-.04,0,0,.01-.08.11-.09.11-.02,0-.17.14-.22.2-.06.08-.08.11-.09.17,0,.05,0,.05.02.08l.03.02v-.02s.03-.04.03-.06Z"/>
      </g>
      <g id="path4915">
        <path class="cls-2" d="M11.82,1.71s-.07-.05-.09-.07c-.04-.03-.19-.08-.21-.07-.02,0,.02.05.06.07.07.03.19.08.22.1.01,0,.04.02.05.02.03,0,.02,0-.02-.04h0Z"/>
      </g>
      <g id="path4913">
        <path class="cls-3" d="M12.85,1.65s0-.06,0-.07c0-.02,0-.03-.04-.06-.02-.02-.05-.05-.05-.07s-.02-.04-.03-.05l-.02-.02-.07.07s-.07.07-.07.08.01.02.03.04c.02.02.04.03.07.03.02,0,.05.01.07.03.02.02.04.03.05.03s.02,0,.03.02c.02.03.03.02.03-.03Z"/>
      </g>
      <g id="path4911">
        <path class="cls-7" d="M12.7,1.55s.04-.09.07-.06c.02.01,0,.04-.03.06-.02.01-.03.01-.03,0Z"/>
      </g>
      <g id="path4909">
        <path class="cls-2" d="M11.11,1.62s.02-.03,0-.04c-.02-.01-.13-.01-.14,0-.01.02.07.08.1.07,0,0,.02-.02.03-.03h0Z"/>
      </g>
      <g id="path4907">
        <path class="cls-6" d="M14,1.61s.02-.05-.01-.05c-.01,0-.02,0-.03.03,0,.02,0,.04-.01.05,0,.02,0,.02.01,0,.01,0,.03-.02.04-.03h0Z"/>
      </g>
      <g id="path4905">
        <path class="cls-2" d="M14.5,1.56c.05-.03.04-.05-.02-.06-.06,0-.13.02-.11.04.03.05.06.06.14.02Z"/>
      </g>
      <g id="path4903">
        <path class="cls-2" d="M11.21,1.49s.02-.06-.07-.07c-.09,0-.1,0-.03.07.05.05.07.05.11,0h0Z"/>
      </g>
      <g id="path4901">
        <path class="cls-3" d="M12.4,1.49s.11-.09.15-.16c.02-.04.03-.07.03-.11,0-.06,0-.06-.04-.1-.05-.04-.06-.04-.12-.02-.08.03-.12.04-.14.04,0,0-.03,0-.05.01-.03.01-.03.02-.03.05,0,.1.07.25.13.29.03.02.03.02.08,0h0Z"/>
      </g>
      <g id="path4899">
        <path class="cls-2" d="M12.87,1.48s0-.04.02-.08c.02-.09.04-.13.13-.22.03-.03.06-.07.06-.07,0-.01-.03-.02-.06-.02-.05,0-.12.12-.14.21,0,.03-.01.05-.02.06-.01.01-.02.1-.01.12,0,.01.03.02.03.01Z"/>
      </g>
      <g id="path4897">
        <path class="cls-6" d="M12.98,1.4s.05-.06.06-.06.02,0,.03-.02c.01-.01.04-.03.06-.04.02-.01.04-.03.05-.04s.02-.01.02-.01c.02,0,.05-.06.05-.08,0,0-.03-.02-.05-.03h-.05s-.07.05-.07.05c-.11.11-.13.14-.14.21-.01.07-.01.08,0,.08,0,0,.03-.03.05-.06Z"/>
      </g>
      <g id="path4895">
        <path class="cls-2" d="M14.33,1.37c.05-.05.04-.07-.02-.08-.06,0-.14.01-.14.03,0,0,.01.03.03.05.04.05.09.05.14,0h0Z"/>
      </g>
      <g id="path4893">
        <path class="cls-2" d="M11.35,1.35l.04-.04-.04-.02s-.13-.03-.14-.01c0,.01.02.08.04.1.02.02.05.02.09-.03Z"/>
      </g>
      <g id="path4889">
        <path class="cls-6" d="M12.82,1.3s.03-.09.05-.13c.02-.04.04-.08.04-.09s-.04-.01-.08-.02c-.09,0-.24,0-.24.02,0,0,.05.07.1.12.01.01.02.02.02.03s0,.02.02.02.02.03.02.04c0,.04.06.1.07.08,0,0,.01-.04.02-.07h0Z"/>
      </g>
      <g id="path4887">
        <path class="cls-6" d="M12.16,1.31s-.01-.05-.01-.07c0-.06,0-.07-.05-.05-.05.02-.05.04.02.11.05.05.06.05.04.01h0Z"/>
      </g>
      <g id="path4885">
        <path class="cls-2" d="M11.48,1.24s.03-.03,0-.04c-.01,0-.03-.01-.04-.01-.03,0-.09-.03-.09-.04,0,0,0-.01-.01-.01-.02,0-.01.04,0,.07.04.07.09.09.13.04h0Z"/>
      </g>
      <g id="path4883">
        <path class="cls-2" d="M14.15,1.17s0-.03-.02-.03c-.02,0-.14.05-.14.06,0,.01.04.05.07.06.02,0,.03,0,.05-.02.02-.02.03-.05.03-.07Z"/>
      </g>
      <g id="path4881">
        <path class="cls-2" d="M11.62,1.14c.06-.04.06-.05.03-.06-.03-.01-.14-.03-.15-.03,0,0,0,.02.02.04.01.02.02.05.03.06,0,.03.02.02.08-.02Z"/>
      </g>
      <g id="path4879">
        <path class="cls-2" d="M13.94,1.13s.04-.17,0-.17c-.01,0-.15.08-.16.09-.01.01,0,.02.06.06.07.04.07.04.09.02h0Z"/>
      </g>
      <g id="path4877">
        <path class="cls-2" d="M11.78,1.04s.01-.02,0-.02c0-.01-.1-.05-.12-.05-.02,0-.01.04.01.08.02.03.03.03.05.02.02,0,.04-.01.04-.02Z"/>
      </g>
      <g id="path4875">
        <path class="cls-2" d="M13.74.97s.02-.05.02-.08c0-.04,0-.04-.03-.04-.04.01-.12.08-.12.1s.06.06.09.06c0,0,.03-.02.04-.04Z"/>
      </g>
      <g id="path4873">
        <path class="cls-6" d="M12.16,1c.08-.03.08-.14-.01-.17-.05-.01-.08,0-.1.03-.03.05-.02.07.01.11.04.04.05.04.1.02Z"/>
      </g>
      <g id="path4871">
        <path class="cls-2" d="M13.57.88c.02-.05.02-.09,0-.09-.01,0-.08.06-.09.08-.02.03-.02.04.01.06.04.02.06,0,.08-.05h0Z"/>
      </g>
      <g id="path4869">
        <path class="cls-2" d="M13.33.83s.02-.06.01-.08v-.04s-.07.06-.07.06c-.04.03-.06.06-.06.07,0,.01.05.03.08.03.01,0,.03-.01.04-.04h0Z"/>
      </g>
      <g id="path4867">
        <path class="cls-2" d="M13.13.79s.02-.08,0-.1c-.01,0-.03,0-.07.05-.03.03-.05.06-.05.07s.02.01.05.01c.05,0,.06,0,.07-.03h0Z"/>
      </g>
      <g id="path4865">
        <path class="cls-2" d="M12.66.79s.05-.12,0-.1c-.02.01-.11.1-.11.11,0,.02.09,0,.1-.01Z"/>
      </g>
      <g id="path1474">
        <path class="cls-2" d="M12.94.78s.03-.09.02-.1c0-.01-.02,0-.05.02-.02.02-.06.05-.07.06-.02.01-.03.02-.03.03,0,.02.12.02.14,0h0Z"/>
      </g>
      <g id="path4812-1">
        <path class="cls-2" d="M13.62,8.5c0,.46-.37.83-.83.83s-.83-.37-.83-.83.37-.83.83-.83.83.37.83.83Z"/>
        <path class="cls-3" d="M12.79,9.41c-.5,0-.91-.41-.91-.91s.41-.91.91-.91.91.41.91.91-.41.91-.91.91ZM12.79,7.75c-.41,0-.75.34-.75.75s.34.75.75.75.75-.34.75-.75-.34-.75-.75-.75Z"/>
      </g>
      <g id="path5246">
        <path class="cls-7" d="M12.14,1.88s-.01,0-.02,0l.02-.02v-.03s.01,0,.1-.05l.02.05c-.09.04-.11.05-.13.05Z"/>
      </g>
      <g id="path5255">
        <polygon class="cls-7" points="12.23 1.83 12.16 1.73 12.18 1.7 12.24 1.78 12.3 1.75 12.24 1.66 12.27 1.64 12.35 1.76 12.23 1.83"/>
      </g>
      <g id="path5262">
        <path class="cls-7" d="M13.2,2.03s-.04-.01-.07-.02c-.04,0-.08-.02-.1-.04l.02-.03s.06.02.1.03c.03,0,.06.01.07.02v.03Z"/>
      </g>
      <g id="path5269">
        <path class="cls-7" d="M13.64,2.41s-.01,0-.01,0l.02-.04s.01,0,.04-.05l.04.02c-.03.06-.06.07-.07.07Z"/>
      </g>
      <g id="path5276">
        <polygon class="cls-4" points="13.08 2.85 12.98 2.84 12.98 2.82 13.08 2.82 13.08 2.85"/>
      </g>
      <g id="path5303">
        <path class="cls-7" d="M13.65,2.39c-.26,0-.48-.03-.48-.03v-.03s.22.02.48.03v.03Z"/>
      </g>
    </g>
  </g>
</svg>