<?xml version="1.0" encoding="UTF-8"?>
<svg id="Layer_2" data-name="Layer 2" xmlns="http://www.w3.org/2000/svg" viewBox="0 0 29.76 17.01">
  <defs>
    <style>
      .cls-1 {
        fill: #d91f26;
      }

      .cls-2 {
        fill: #fff;
      }

      .cls-3 {
        fill: #010101;
      }

      .cls-4 {
        fill: #269f49;
      }

      .cls-5 {
        fill: #fdba28;
      }
    </style>
  </defs>
  <g id="Layer_1-2" data-name="Layer 1">
    <g>
      <g id="rect1">
        <rect class="cls-4" width="29.76" height="17.01"/>
      </g>
      <g id="rect2">
        <rect class="cls-2" y="5.67" width="29.76" height="11.34"/>
      </g>
      <g id="rect3">
        <rect class="cls-1" y="11.34" width="29.76" height="5.67"/>
      </g>
      <g id="g33">
        <g id="path1">
          <path class="cls-5" d="M15.49,8.35l.05-2.52h-.22s.04,2.52.04,2.52h.13Z"/>
          <path class="cls-3" d="M15.52,8.37h-.18v-.02l-.04-2.54h.27s0,.03,0,.03l-.05,2.54ZM15.38,8.32h.09l.04-2.47h-.17s.04,2.47.04,2.47Z"/>
        </g>
        <g id="path2">
          <path class="cls-5" d="M15.72,6.42l-.36,1.91.13.03.43-1.9c-.07-.01-.13-.03-.2-.03Z"/>
          <path class="cls-3" d="M15.51,8.39l-.18-.04v-.02s.37-1.93.37-1.93h.02c.07.01.14.02.2.04h.02s0,.03,0,.03l-.44,1.92ZM15.39,8.31l.08.02.42-1.85s-.1-.02-.15-.03l-.35,1.86Z"/>
        </g>
        <g id="path3-0">
          <path class="cls-5" d="M15.49,8.37l1.05-2.29-.2-.09-.96,2.33.12.05Z"/>
          <path class="cls-3" d="M15.5,8.4h-.02s-.14-.07-.14-.07v-.02s.98-2.35.98-2.35l.25.11-1.07,2.33ZM15.4,8.31l.08.04,1.03-2.25-.16-.07-.95,2.28Z"/>
        </g>
        <g id="path4-9">
          <path class="cls-5" d="M16.49,6.67l-1.12,1.64.11.08,1.19-1.61c-.06-.04-.12-.07-.18-.1Z"/>
          <path class="cls-3" d="M15.49,8.42l-.15-.1v-.02s1.14-1.66,1.14-1.66h.02c.06.04.12.08.18.12h.02s-.02.04-.02.04l-1.2,1.63ZM15.41,8.3l.07.05,1.16-1.57s-.09-.06-.13-.08l-1.09,1.6Z"/>
        </g>
        <g id="path5-4">
          <path class="cls-5" d="M15.47,8.39l1.87-1.68-.15-.16-1.81,1.75.09.1Z"/>
          <path class="cls-3" d="M15.47,8.43l-.12-.13.02-.02,1.83-1.77.18.2-.02.02-1.89,1.7ZM15.42,8.3l.06.06,1.84-1.65-.12-.13-1.78,1.72Z"/>
        </g>
        <g id="path6-8">
          <path class="cls-5" d="M17.07,7.23l-1.67,1.06.07.11,1.71-1-.11-.17Z"/>
          <path class="cls-3" d="M15.45,8.44l-.09-.15h.02s1.7-1.08,1.7-1.08l.13.22h-.02s-1.73,1.02-1.73,1.02ZM15.43,8.3l.05.07,1.67-.97-.08-.13-1.63,1.03Z"/>
        </g>
        <g id="path7-8">
          <path class="cls-5" d="M15.45,8.41l2.46-.82-.07-.21-2.43.91.04.13Z"/>
          <path class="cls-3" d="M15.43,8.44l-.06-.17h.02s2.45-.92,2.45-.92l.09.26h-.02s-2.48.83-2.48.83ZM15.44,8.3l.03.08,2.41-.8-.06-.17-2.38.89Z"/>
        </g>
        <g id="path8-2">
          <path class="cls-5" d="M17.51,7.96l-2.09.32.02.13,2.11-.25c0-.07-.02-.14-.03-.21Z"/>
          <path class="cls-3" d="M15.42,8.44l-.02-.18h.02s2.12-.33,2.12-.33v.02c.02.07.03.14.04.21v.02s-.02,0-.02,0l-2.13.25ZM15.45,8.3v.09s2.07-.24,2.07-.24c0-.05-.01-.11-.03-.16l-2.05.31Z"/>
        </g>
        <g id="path9-4">
          <path class="cls-5" d="M15.13,6.42c-.07,0-.13.02-.2.03l.43,1.9.13-.03-.36-1.91h0Z"/>
          <path class="cls-3" d="M15.34,8.39v-.02s-.44-1.92-.44-1.92h.02c.06-.02.13-.03.2-.04h.02s0,.02,0,.02l.37,1.93-.18.04ZM14.96,6.48l.42,1.85.09-.02-.35-1.86c-.06,0-.11.02-.15.03Z"/>
        </g>
        <g id="path10-5">
          <path class="cls-5" d="M15.49,8.32l-.96-2.33-.2.09,1.04,2.29.12-.05Z"/>
          <path class="cls-3" d="M15.35,8.4l-1.06-2.34.25-.11v.02s.98,2.35.98,2.35l-.17.07ZM14.35,6.09l1.02,2.25.08-.04-.94-2.28-.16.07Z"/>
        </g>
        <g id="path11-5">
          <path class="cls-5" d="M14.37,6.66c-.06.03-.12.07-.18.1l1.18,1.62.11-.08-1.12-1.64Z"/>
          <path class="cls-3" d="M15.37,8.42v-.02s-1.21-1.64-1.21-1.64h.02c.05-.05.11-.08.18-.12h.02s.01,0,.01,0l1.13,1.66-.15.1ZM14.22,6.77l1.16,1.58.07-.05-1.09-1.61s-.09.05-.13.08Z"/>
        </g>
        <g id="path12-1">
          <path class="cls-5" d="M15.47,8.3l-1.16-1.12-.05.21,1.12,1.01.09-.1Z"/>
          <path class="cls-3" d="M15.38,8.43l-.02-.02-1.13-1.02.07-.26.03.03,1.17,1.13-.12.13ZM14.29,7.38l1.09.98.06-.06-1.11-1.07-.04.16Z"/>
        </g>
        <g id="path13-7">
          <path class="cls-5" d="M15.43,7.39c-.58,0-1.05.43-1.05.96s.47.96,1.05.96,1.05-.43,1.05-.96-.48-.96-1.05-.96Z"/>
          <path class="cls-3" d="M15.43,9.33c-.59,0-1.08-.44-1.08-.98s.48-.98,1.08-.98,1.08.44,1.08.98-.48.98-1.08.98ZM15.43,7.41c-.57,0-1.03.42-1.03.93s.46.94,1.03.94,1.03-.42,1.03-.94-.46-.93-1.03-.93Z"/>
        </g>
        <g id="path14-1">
          <path class="cls-5" d="M11.58,8.26h.4c-.03-.82.12-1.17.25-1.39.41-.7,1.22-.89,1.72-.92-.5-.25-1.56-.18-2.1.78-.28.46-.28,1.01-.28,1.53Z"/>
          <path class="cls-3" d="M12.01,8.29h-.45v-.02c0-.5,0-1.07.29-1.54.54-.94,1.58-1.07,2.13-.79l.08.04h-.09c-.37.02-1.26.15-1.71.91-.14.24-.28.59-.25,1.38v.03ZM11.61,8.24h.35c-.02-.79.12-1.14.26-1.38.42-.72,1.23-.89,1.65-.92-.48-.18-1.45-.12-1.98.81-.28.46-.28,1.01-.28,1.49Z"/>
        </g>
        <g id="path15-1">
          <path class="cls-5" d="M11.58,8.26h.4v.86h-.4v-.86Z"/>
          <path class="cls-3" d="M12.01,9.15h-.45v-.91h.45v.91ZM11.61,9.1h.36v-.81h-.36v.81Z"/>
        </g>
        <g id="path16-5">
          <path class="cls-3" d="M12.92,6.07c-.6.13-.93.73-1.04,1.09-.08.26-.13.52-.12,1.1h.06c0-.36,0-.75.11-1.1.14-.44.44-.86.99-1.09Z"/>
        </g>
        <g id="path17-2">
          <path class="cls-5" d="M11.22,8.18h.27l.29-.08.29.08h.27l.13.09-.13.09h-.27l-.29.08-.29-.08h-.27l-.13-.09.13-.09Z"/>
          <path class="cls-3" d="M11.78,8.46l-.29-.08h-.28s-.16-.11-.16-.11l.16-.11h.27l.29-.08.29.08h.28s.16.11.16.11l-.16.11h-.27l-.29.08ZM11.23,8.33h.27s.28.08.28.08l.29-.08h.26l.09-.06-.09-.06h-.27s-.28-.08-.28-.08l-.29.08h-.26l-.09.06.09.06Z"/>
        </g>
        <g id="path18-7">
          <path class="cls-5" d="M11.74,11.31h6.41v-.36h-6.41v.36Z"/>
          <path class="cls-3" d="M18.17,11.34h-6.46v-.41h6.46v.41ZM11.76,11.29h6.36v-.31h-6.36v.31Z"/>
        </g>
        <g id="path19-6">
          <path class="cls-3" d="M11.88,10.95c.01.07.02.17.12.18-.02-.03-.05-.11-.05-.18h-.07ZM12.07,10.95c.01.07.02.17.12.18-.02-.03-.05-.11-.05-.18h-.07ZM12.26,10.95c.01.07.02.17.12.18-.02-.03-.05-.11-.05-.18h-.07ZM12.46,10.95c.01.07.02.17.12.18-.02-.03-.05-.11-.05-.18h-.07ZM12.65,10.95c.01.07.02.17.12.18-.02-.03-.05-.11-.05-.18h-.07ZM12.85,10.95c.01.07.02.17.12.18-.02-.03-.05-.11-.05-.18h-.07ZM13.04,10.95c.01.07.02.17.12.18-.02-.03-.05-.11-.05-.18h-.07ZM13.24,10.95c.01.07.02.17.12.18-.02-.03-.05-.11-.05-.18h-.07ZM13.43,10.95c.01.07.02.17.12.18-.02-.03-.05-.11-.05-.18h-.07ZM13.62,10.95c.01.07.02.17.12.18-.02-.03-.05-.11-.05-.18h-.07ZM13.82,10.95c.01.07.02.17.12.18-.02-.03-.05-.11-.05-.18h-.07ZM14.01,10.95c.01.07.02.17.12.18-.02-.03-.05-.11-.05-.18h-.07ZM14.21,10.95c.01.07.02.17.12.18-.02-.03-.05-.11-.05-.18h-.07ZM14.4,10.95c.01.07.02.17.12.18-.02-.03-.05-.11-.05-.18h-.07ZM14.59,10.95c.01.07.02.17.12.18-.02-.03-.05-.11-.05-.18h-.07ZM14.79,10.95c.01.07.02.17.12.18-.02-.03-.05-.11-.05-.18h-.07ZM14.98,10.95c.01.07.02.17.12.18-.02-.03-.05-.11-.05-.18h-.07ZM15.18,10.95c.01.07.02.17.12.18-.02-.03-.05-.11-.05-.18h-.07ZM15.37,10.95c.01.07.02.17.12.18-.02-.03-.05-.11-.05-.18h-.07ZM15.57,10.95c.01.07.02.17.12.18-.02-.03-.05-.11-.05-.18h-.07ZM15.76,10.95c.01.07.02.17.12.18-.02-.03-.05-.11-.05-.18h-.07ZM15.95,10.95c.01.07.02.17.12.18-.02-.03-.05-.11-.05-.18h-.07ZM16.15,10.95c.01.07.02.17.12.18-.02-.03-.05-.11-.05-.18h-.07ZM16.34,10.95c.01.07.02.17.12.18-.02-.03-.05-.11-.05-.18h-.07ZM16.54,10.95c.01.07.02.17.12.18-.02-.03-.05-.11-.05-.18h-.07ZM16.73,10.95c.01.07.02.17.12.18-.02-.03-.05-.11-.05-.18h-.07ZM16.92,10.95c.01.07.02.17.12.18-.02-.03-.05-.11-.05-.18h-.07ZM17.12,10.95c.01.07.02.17.12.18-.02-.03-.05-.11-.05-.18h-.07ZM17.31,10.95c.01.07.02.17.12.18-.02-.03-.05-.11-.05-.18h-.07ZM17.51,10.95c.01.07.02.17.12.18-.02-.03-.05-.11-.05-.18h-.07ZM17.7,10.95c.01.07.02.17.12.18-.02-.03-.05-.11-.05-.18h-.07ZM17.9,10.95c.01.07.02.17.12.18-.02-.03-.05-.11-.05-.18h-.07Z"/>
        </g>
        <g id="path20-1">
          <path class="cls-5" d="M11.69,9.12c.29.19.39.21.75.1.48.64.59.51.83.74l.02-1.2s-.66-.06-.97-.15c-.1-.03-.18-.08-.29-.1-.24-.05-.52,0-.52.14,0,.05.03.09.13.11l.04.37Z"/>
          <path class="cls-3" d="M13.29,10.01l-.04-.04c-.08-.07-.14-.11-.21-.14-.14-.08-.3-.16-.62-.58-.36.1-.47.09-.76-.11h0s0-.02,0-.02l-.04-.35c-.11-.02-.13-.09-.13-.13s.02-.08.05-.1c.09-.07.29-.1.5-.06.06.01.12.04.17.06.04.02.08.03.12.04.31.09.96.15.97.15h.02s0,.02,0,.02l-.02,1.26ZM12.45,9.19h.01c.32.44.47.52.61.6.06.03.11.06.18.11l.02-1.13c-.12-.01-.67-.07-.95-.15-.04-.01-.08-.03-.12-.05-.05-.02-.1-.04-.16-.06-.19-.03-.38-.01-.46.05-.02.02-.04.04-.04.07,0,.05.04.07.11.08h.02s0,.02,0,.02l.04.36c.28.19.37.2.72.09h.02Z"/>
        </g>
        <g id="path21-4">
          <path class="cls-5" d="M11.96,9.03s.07.09.07.09c0,0-.05.06-.09.08-.08.04-.26.05-.36-.01-.03-.02-.04-.04-.04-.07s.02-.07.02-.07"/>
          <path class="cls-3" d="M11.77,9.25c-.07,0-.15-.01-.21-.05-.03-.02-.05-.05-.05-.09,0-.04.03-.07.03-.08l.04.03s-.02.04-.02.05c0,.02,0,.04.03.05.09.05.26.05.34.01.02-.01.06-.04.07-.06-.01-.02-.03-.05-.05-.06l.02-.04s.08.08.08.1h0s-.01.03-.01.03c0,0-.06.06-.1.08-.04.02-.11.03-.18.03Z"/>
        </g>
        <g id="path22-2">
          <path class="cls-5" d="M11.98,8.88s.07.09.07.09c0,0-.05.06-.09.08-.12.05-.29.06-.39,0-.03-.02-.04-.05-.04-.07,0-.04.04-.08.04-.08"/>
          <path class="cls-3" d="M11.74,9.11c-.07,0-.14-.01-.19-.04-.03-.02-.05-.05-.05-.09s.04-.09.04-.1l.04.03s-.03.05-.03.07c0,0,0,.04.03.05.09.06.26.04.37,0,.02,0,.05-.04.07-.06-.01-.02-.03-.05-.05-.06l.02-.04s.07.08.08.1h0s0,.03,0,.03c0,0-.06.07-.1.09-.06.03-.15.04-.23.04Z"/>
        </g>
        <g id="path23-3">
          <path class="cls-5" d="M11.51,8.64s.03.09.13.11c.17.02.27-.05.34-.03.03.01.05.04.07.09,0,0-.05.06-.09.08-.11.04-.29.06-.39,0-.03-.02-.04-.05-.04-.07,0-.04.02-.06.04-.09"/>
          <path class="cls-3" d="M11.75,8.95c-.07,0-.14-.01-.19-.04-.03-.02-.05-.05-.05-.09,0-.04.01-.06.03-.08-.04-.03-.05-.07-.05-.09h.05s.04.07.11.08c.08,0,.15,0,.21-.02.05-.01.1-.02.14,0,.03.01.06.04.08.1h0s-.01.03-.01.03c0,0-.06.07-.1.09-.06.03-.14.04-.22.04ZM11.58,8.75s0,0,0,0c-.01.02-.02.03-.02.05,0,0,0,.04.03.05.09.05.27.04.37,0,.02,0,.05-.04.07-.06-.02-.03-.03-.05-.05-.06-.03,0-.07,0-.11,0-.06.01-.13.03-.22.02-.02,0-.04,0-.06-.01Z"/>
        </g>
        <g id="path24-2">
          <path class="cls-5" d="M15.69,10.02c-.13.21.05.4-.05.56-.31-.07-.61-.1-.8.18-.09.14.02.27.19.2.15.14.32.05.53-.03.08-.03.22.05.33.01.13-.05.21-.19.29-.42l.12.05c0-.1-.04-.17-.1-.24l.15.05c0-.1-.05-.17-.1-.22l.14.05c-.03-.13,0-.24-.01-.28-.03-.09-.04-.05-.08-.22-.43-.19-.34-.63-.26-.81l-.81.56c-.16.11.06.49.45.55Z"/>
          <path class="cls-3" d="M15.21,11.06c-.06,0-.13-.02-.19-.07-.08.03-.16.02-.21-.04s-.04-.13,0-.2c.2-.3.52-.26.81-.2.03-.06.02-.13,0-.21-.02-.09-.03-.19.02-.3-.26-.05-.45-.25-.49-.42-.02-.08,0-.14.06-.18l.88-.61-.03.08c-.02.06-.23.58.24.78h.01s0,.02,0,.02c.02.1.03.12.05.15,0,.02.02.03.03.07,0,.02,0,.05,0,.09,0,.05,0,.12.01.19v.04s-.1-.04-.1-.04c.03.05.05.1.05.17v.03l-.11-.04c.03.05.06.11.06.19v.04l-.13-.06c-.09.24-.18.36-.3.41-.07.03-.14.01-.21,0-.05,0-.1-.02-.13,0-.02,0-.05.02-.07.03-.1.04-.2.07-.29.07ZM15.03,10.94h.01c.12.12.26.07.44,0,.02,0,.05-.02.07-.02.04-.02.1,0,.15,0,.06.01.13.03.18,0,.11-.04.19-.16.28-.41v-.02s.12.05.12.05c0-.06-.04-.12-.09-.19l-.06-.07.2.07c0-.07-.05-.13-.09-.17l-.06-.07.19.07c0-.06,0-.12,0-.16,0-.03,0-.06,0-.07-.01-.03-.02-.05-.03-.06-.01-.02-.03-.05-.05-.15-.41-.19-.34-.6-.28-.77l-.75.52s-.05.09-.04.13c.03.15.22.34.48.38h.04s-.02.04-.02.04c-.06.1-.04.2-.03.3.02.09.03.17-.02.26h0s-.02.01-.02.01c-.28-.06-.59-.11-.78.17-.04.05-.04.11,0,.15.03.04.1.05.17.02h.01Z"/>
        </g>
        <g id="path25-2">
          <path class="cls-5" d="M17.86,6.77c-.1-.1-.18-.21-.28-.29-.5-.39-1.11.17-.74.71.15.23.64.38.82.52.49.37.35.79-.14.8-.27,0-.53-.23-.8-.27-.5-.07-.64.12-1.1.13-.91.01-1.29-.27-1.29-.27l-.99,1.15c-.3.11-.32.53,0,.75-.23.14-.21.3-.37.52-.33-.08-.61-.09-.8.18-.09.14.02.27.18.2.15.14.32.05.53-.02.08-.03.23.06.33.01.12-.05.18-.18.27-.27.04-.04.12-.13.12-.13l.08.1c.05-.08.06-.17.04-.25l.1.11c.05-.08.05-.17.04-.24l.1.11s.02-.05.05-.11c.03-.04.07-.1.08-.13.02-.06.02-.13.02-.13.06.05.1.07.17.06.01-.1.02-.13.04-.17.34,0,1.19-.12,1.73-.66.02-.02.27-.08.42.1.07.19.25.64.74.74-.13.21.05.4-.05.56-.35-.08-.63-.07-.8.18-.1.14.02.27.18.2.15.14.32.05.53-.03.08-.03.22.05.33.01.13-.05.21-.19.29-.42l.12.05c0-.1-.04-.17-.1-.24l.15.05c0-.1-.05-.17-.1-.22l.14.05c-.03-.12,0-.23-.02-.28-.03-.09-.05-.05-.08-.22-.54-.26-.11-.65-.52-.99.41.01.78-.07.83-.52.02-.66-.98-.83-1.18-1.12-.26-.36.13-.77.49-.5.21.2.42.53.74.37.35-.18-.02-.52.47-.57-.05-.1-.3-.21-.41,0-.13-.17-.37-.09-.42.08.67-.02.3.59,0,.29h0Z"/>
          <path class="cls-3" d="M16.74,11.06c-.06,0-.13-.02-.18-.07-.08.03-.16.01-.21-.04-.04-.06-.04-.13,0-.21.2-.28.52-.26.81-.19.03-.06.02-.13,0-.21-.02-.09-.03-.2.02-.3-.47-.11-.65-.56-.72-.75-.13-.15-.36-.11-.39-.09-.51.51-1.32.66-1.74.66-.02.03-.02.06-.03.15v.02s-.02,0-.02,0c-.06.01-.11,0-.15-.04,0,.03,0,.06-.02.09,0,.02-.03.05-.05.09-.01.02-.03.04-.03.05-.04.06-.05.11-.05.11v.04s-.09-.08-.09-.08c0,.05,0,.11-.05.18l-.02.03-.07-.08c0,.06,0,.13-.05.2l-.02.03-.08-.11s-.07.08-.1.11c-.03.03-.05.06-.08.1-.05.07-.11.14-.2.18-.06.03-.14.01-.2,0-.05-.01-.1-.02-.13,0-.02,0-.04.02-.07.02-.18.07-.34.12-.48,0-.08.03-.16.02-.2-.04-.04-.05-.04-.13,0-.21.19-.27.46-.27.81-.2.05-.07.09-.14.12-.21.05-.11.1-.2.22-.29-.15-.12-.23-.3-.21-.47.02-.14.11-.25.24-.31l1-1.16h.02s.37.27,1.22.27c.02,0,.03,0,.05,0,.2,0,.33-.04.47-.07.18-.05.35-.1.64-.05.12.02.24.08.36.13.14.07.28.13.43.13h0c.21,0,.37-.09.41-.22.05-.16-.05-.36-.28-.53-.06-.05-.17-.1-.27-.15-.21-.1-.45-.22-.55-.37-.2-.29-.12-.58.05-.74.16-.15.45-.22.73,0,.06.05.12.11.18.18.03.04.06.07.1.11h0c.08.08.17.1.24.05.06-.04.1-.11.08-.17-.02-.09-.14-.14-.32-.14,0,0-.02,0-.02,0h-.03v-.03c.03-.09.12-.17.22-.18.09-.01.17.01.23.07.04-.07.11-.11.19-.11h0c.11,0,.21.07.24.13l.02.03h-.04c-.25.03-.26.13-.27.25-.01.11-.02.23-.19.32-.28.14-.48-.07-.65-.25-.04-.04-.07-.08-.11-.12-.17-.14-.34-.09-.43,0-.1.1-.15.28-.02.47.07.09.23.18.41.27.35.19.8.42.78.86-.06.47-.45.54-.78.54h-.01c.15.15.16.32.17.46.01.19.02.35.3.48h.01s0,.02,0,.02c.02.1.03.12.04.14,0,.02.02.03.03.07,0,.02,0,.05,0,.09,0,.05,0,.12.01.19v.04s-.1-.04-.1-.04c.03.05.05.11.05.17v.03l-.11-.04c.03.05.06.11.06.19v.04s-.13-.05-.13-.05c-.09.24-.18.36-.3.41-.07.03-.14.01-.2,0-.05,0-.1-.02-.13,0-.02,0-.05.02-.07.03-.1.04-.2.07-.29.07ZM16.56,10.94h.01c.12.12.26.07.44,0,.02,0,.05-.02.07-.03.04-.02.1,0,.16,0,.06.01.12.03.18,0,.11-.04.19-.17.28-.41v-.02s.12.05.12.05c0-.06-.04-.12-.09-.19l-.06-.07.2.07c0-.07-.05-.13-.09-.17l-.06-.07.19.07c0-.06,0-.12,0-.16,0-.03,0-.06,0-.07,0-.03-.02-.05-.03-.06-.01-.03-.03-.05-.05-.15-.3-.14-.31-.33-.32-.52,0-.16-.02-.32-.2-.47l-.05-.04h.07s.05,0,.07,0c.47,0,.7-.15.74-.5.02-.42-.41-.64-.75-.82-.19-.1-.35-.18-.43-.29-.15-.21-.09-.42.03-.53.1-.1.29-.16.49,0,.04.04.08.08.12.12.17.18.35.37.6.24.15-.08.16-.18.17-.28.01-.12.02-.25.28-.29-.04-.04-.11-.08-.18-.08h0c-.05,0-.12.02-.17.11l-.02.04-.02-.03c-.04-.06-.1-.09-.16-.09-.01,0-.03,0-.04,0-.07.01-.13.06-.16.12.28,0,.34.12.36.17.02.08-.02.18-.1.22-.1.06-.21.03-.3-.06h0s-.07-.07-.1-.11c-.06-.07-.11-.13-.17-.18-.25-.19-.51-.14-.66,0-.15.14-.22.41-.04.67.1.14.33.26.53.36.11.05.22.11.28.16.25.18.36.4.3.58-.05.16-.22.25-.46.26h0c-.16,0-.3-.07-.45-.14-.12-.06-.23-.11-.35-.13-.28-.04-.44,0-.62.05-.14.04-.28.07-.48.08h-.05c-.77,0-1.15-.2-1.23-.26l-.98,1.14h0c-.12.05-.2.15-.21.27-.02.16.06.33.22.44l.03.02-.03.02c-.14.08-.18.17-.24.29-.03.07-.07.14-.13.23h0s-.02,0-.02,0c-.35-.08-.6-.08-.78.17-.03.05-.04.11,0,.15.03.04.09.05.16.02h.01s.01,0,.01,0c.12.11.26.06.44,0,.02,0,.04-.02.07-.02.04-.02.1,0,.16,0,.06.01.12.03.18,0,.08-.03.12-.1.18-.17.03-.03.05-.07.08-.1.04-.04.12-.13.12-.13l.02-.02.08.1c.04-.07.03-.15.02-.21v-.08s.12.14.12.14c.03-.07.03-.14.02-.19l-.02-.09.13.15s.02-.05.04-.08c.01-.02.02-.04.04-.05.02-.03.04-.06.04-.07.02-.05.02-.12.02-.12v-.05s.04.03.04.03c.04.04.08.06.13.06h0c0-.09.02-.12.05-.16h0s.01-.01.01-.01c.4,0,1.21-.14,1.72-.65.02-.02.08-.03.16-.03,0,0,.01,0,.02,0,.08,0,.2.03.28.13h0c.08.2.25.64.72.73h.03s-.02.04-.02.04c-.06.1-.04.2-.03.3.01.09.03.17-.02.26h0s-.02.01-.02.01c-.4-.09-.63-.04-.78.17-.04.05-.04.11,0,.15.03.03.08.06.17.02h.01Z"/>
        </g>
        <g id="path26-1">
          <path class="cls-5" d="M12.96,8.8l-.07.19c-.06.21-.03.4.05.55.05-.02.1-.07.15-.11.02.07.01.18.1.26.1-.05.16-.12.19-.17.02.1.06.18.14.23.08-.05.13-.13.14-.23.04.05.1.13.19.18.08-.08.08-.14.11-.22.04.09.1.13.19.18.08-.08.07-.19.1-.26.04.06.09.1.15.11.04-.05.07-.14.07-.22.08.06.15.07.2.08.02-.1.02-.18,0-.28.07.02.09.04.18.04.06-.2-.01-.43-.22-.58l-1.68.24Z"/>
          <path class="cls-3" d="M13.52,9.79h-.01c-.07-.05-.12-.12-.14-.21-.05.06-.1.1-.17.13h-.02s-.01,0-.01,0c-.07-.07-.08-.14-.09-.21,0-.01,0-.02,0-.03-.04.04-.08.07-.12.09h-.02s-.01-.01-.01-.01c-.09-.17-.11-.37-.06-.57l.08-.2h.01s1.69-.24,1.69-.24h0c.21.16.3.39.23.62v.02h-.02c-.07,0-.1-.01-.14-.03,0,0,0,0-.01,0,0,.07.01.15,0,.24v.02s-.03,0-.03,0c-.04,0-.11-.02-.18-.06,0,.07-.04.14-.07.19h0s-.01,0-.01,0c-.05,0-.09-.04-.13-.08,0,0,0,.01,0,.02-.01.06-.02.14-.09.21h-.01s-.02,0-.02,0c-.08-.04-.13-.08-.17-.14-.02.06-.03.11-.1.18h-.01s-.02,0-.02,0c-.08-.04-.13-.1-.17-.15-.02.09-.07.15-.14.2h-.01ZM13.39,9.46v.06c.02.09.06.16.13.21.07-.05.1-.11.12-.21v-.06s.05.05.05.05c.03.04.08.12.16.16.05-.06.06-.1.08-.15,0-.01,0-.03.01-.05l.02-.06.03.05c.04.08.09.12.17.16.04-.05.05-.11.06-.17,0-.03,0-.05.02-.07l.02-.05.03.04c.04.05.08.08.12.1.04-.05.06-.13.06-.19v-.05s.04.03.04.03c.06.05.12.06.17.07.02-.09,0-.17,0-.25v-.04s.03.01.03.01c.02,0,.04.01.06.02.03.01.05.02.1.02.05-.2-.03-.39-.21-.53l-1.65.23-.07.18c-.05.18-.03.36.04.51.04-.02.08-.06.12-.09l.03-.03.02.03s.01.05.02.08c0,.06.02.11.06.17.07-.04.12-.08.17-.15l.03-.05Z"/>
        </g>
        <g id="path27-6">
          <path class="cls-5" d="M12.81,8.16s-.19.3-.23.46c-.02.1-.02.26-.02.26.06,0,.12-.02.19-.07,0,.09,0,.17.06.26.06-.02.14-.05.2-.16,0,.11.03.17.09.27.08-.02.14-.11.21-.17,0,.08.02.17.1.28.1-.06.16-.18.18-.25.03.07.08.2.18.25.08-.11.1-.2.1-.28.06.06.13.15.21.17.07-.1.09-.16.09-.27.06.11.14.13.2.16.06-.09.05-.17.06-.26.06.06.15.1.21.11.01-.01.06-.16.04-.25.07.06.13.1.24.09.02-.08,0-.17-.02-.24.12.04.24.05.33,0-.21-.36-.54-.41-.91-.47l-1.51.12Z"/>
          <path class="cls-3" d="M13.78,9.33h-.02c-.07-.05-.12-.12-.17-.22-.03.07-.08.16-.17.21h-.02s-.01,0-.01,0c-.06-.08-.09-.16-.1-.24,0,0,0,0-.01.01-.05.05-.1.11-.17.12h-.02s0-.01,0-.01c-.05-.08-.08-.14-.09-.22-.06.07-.12.09-.17.11h-.02s-.01,0-.01,0c-.05-.08-.06-.15-.06-.22h0c-.06.03-.11.04-.16.04h-.02s0-.02,0-.02c0,0,0-.16.02-.27.04-.16.22-.46.23-.47h0s.01-.01.01-.01l1.51-.12c.37.06.71.12.93.49v.02s-.01.01-.01.01c-.08.04-.19.04-.31,0,.01.07.02.14,0,.21v.02s-.02,0-.02,0c-.1,0-.16-.03-.21-.06,0,.09-.03.2-.05.22h0s-.01,0-.01,0c-.06,0-.13-.04-.19-.08h0c0,.07,0,.15-.06.22v.02s-.03,0-.03,0c-.05-.02-.11-.04-.17-.11-.01.08-.04.13-.09.22v.02s-.03,0-.03,0c-.07-.02-.12-.08-.17-.12,0,0,0,0-.01-.01-.01.08-.04.15-.1.24v.02ZM13.33,8.97v.05c0,.08.03.16.08.25.09-.06.14-.19.15-.23l.02-.07.02.06c.05.13.11.2.15.23.06-.09.08-.16.08-.25v-.05s.04.04.04.04c.02.02.03.03.05.05.04.04.08.09.13.11.06-.09.07-.15.08-.24v-.08s.04.07.04.07c.05.09.11.12.17.14.04-.06.04-.12.04-.18,0-.02,0-.03,0-.05v-.05s.04.03.04.03c.06.05.13.09.18.1.01-.04.04-.15.03-.22l-.02-.07.06.04c.07.06.12.08.21.09.01-.08,0-.15-.02-.21v-.04s.03.01.03.01c.11.04.21.04.29.02-.21-.33-.53-.38-.88-.44l-1.49.12c-.03.05-.19.31-.22.44-.02.07-.02.18-.02.23.05,0,.1-.02.14-.06l.04-.03v.05s0,.03,0,.05c0,.06,0,.12.04.18.05-.02.12-.05.17-.14l.04-.07v.08c0,.1.03.15.08.24.05-.02.09-.06.13-.11.02-.02.03-.04.05-.05l.04-.04Z"/>
        </g>
        <g id="path28-8">
          <path class="cls-5" d="M14.23,6.61s0-.12,0-.12c-.23.05-.25.1-.34.21.02-.09,0-.13-.07-.19-.03.04-.07.13-.11.17-.01-.08-.03-.15-.1-.2-.06.06-.1.12-.1.2-.04-.04-.08-.13-.11-.17-.08.06-.09.1-.07.19-.11-.14-.17-.18-.34-.21,0,0,0,.08,0,.12-.02.09-.13.2-.04.34-.26.17-.2.39-.35.63.06,0,.08.01.18,0-.14.11-.15.13-.19.29.05-.02.09,0,.19-.03-.03.07-.1.12-.14.16-.1.08-.14.17-.16.26.06,0,.13-.02.19-.04-.02.08-.03.13,0,.24.1-.04.14-.07.21-.11,0,.07-.01.15.01.23.06-.02.13-.06.19-.12,0,.09.03.16.06.22.06-.03.12-.07.17-.11.02.07.02.12.09.22.11-.04.13-.11.17-.16.01.05.04.11.12.2.1-.07.1-.13.13-.2.02.05.07.13.15.17.06-.06.07-.14.08-.19.05.06.11.11.2.14.04-.08.05-.15.04-.21.07.08.15.1.22.12.02-.07.01-.14,0-.22.08.06.16.08.23.07,0-.08-.02-.14-.05-.21.08.01.15.02.21,0,0,0-.04-.1-.1-.14-.07-.06-.16-.1-.23-.16-.04-.03-.13-.12-.13-.12.07,0,.09,0,.17,0-.04-.16-.05-.22-.19-.32.1.02.12,0,.18,0-.14-.24-.12-.48-.33-.6.07-.16.02-.2-.04-.34h0Z"/>
          <path class="cls-3" d="M13.67,8.85h-.01c-.06-.08-.09-.13-.11-.17-.03.05-.06.1-.15.13h-.02s-.01,0-.01,0c-.06-.08-.07-.14-.09-.19t0,0s-.09.06-.13.08l-.03.02v-.02s-.06-.1-.07-.18c-.05.05-.11.08-.17.09h-.02s0-.02,0-.02c-.02-.06-.02-.13-.02-.19,0,0,0,0,0,0-.05.03-.09.06-.17.08h-.03s0-.02,0-.02c-.02-.1-.02-.16,0-.21-.05.01-.1.03-.16.03h-.04s0-.03,0-.03c.02-.08.06-.18.17-.28h.02s.06-.07.09-.1c-.03,0-.05,0-.07,0-.03,0-.05,0-.07,0l-.04.02v-.04c.05-.14.06-.18.15-.25-.02,0-.03,0-.04,0-.02,0-.04,0-.06,0h-.05s.02-.04.02-.04c.05-.08.08-.17.1-.25.04-.14.08-.26.24-.37-.06-.11-.01-.2.02-.27.01-.02.02-.05.03-.07,0-.03,0-.09,0-.11v-.03s.03,0,.03,0c.15.03.22.07.3.16,0-.05.03-.09.09-.13h.02s.01,0,.01,0c.02.02.03.04.04.07,0,.02.02.03.03.05.01-.06.05-.11.1-.16h.01s.02,0,.02,0c.07.05.09.1.11.17.01-.02.02-.03.03-.05.02-.03.03-.05.04-.07v-.02s.03.01.03.01c.06.05.08.08.09.13.06-.07.11-.12.3-.16h.03s0,.03,0,.03c0,.03,0,.08,0,.11.01.03.02.05.03.07.04.09.06.14.01.27.13.08.17.21.21.34.03.08.06.17.11.26l.02.04h-.05s-.04,0-.06,0c-.01,0-.03,0-.05,0,.09.08.1.15.14.27v.04s-.02,0-.02,0c-.05,0-.08,0-.11,0,.03.03.06.06.08.08.03.03.07.05.11.08.04.03.08.05.12.08.06.05.1.15.1.15v.03s-.02,0-.02,0c-.06.01-.12.01-.18,0,.02.05.04.11.03.18v.02s-.02,0-.02,0c-.07.02-.13,0-.21-.04,0,.07,0,.12,0,.17v.02s-.03,0-.03,0c-.06-.02-.12-.03-.19-.09,0,.05-.01.11-.05.17v.02s-.03,0-.03,0c-.06-.02-.12-.06-.18-.12-.01.05-.03.11-.08.16h-.01s-.02,0-.02,0c-.06-.03-.1-.08-.13-.13-.02.05-.03.11-.12.16h-.02ZM13.56,8.56v.05s.05.1.11.17c.06-.04.07-.08.08-.13,0-.02.01-.03.02-.05l.02-.05.02.05s.06.11.12.15c.03-.04.04-.09.05-.13,0-.01,0-.03.01-.04v-.04s.04.03.04.03c.05.06.11.1.17.13.03-.07.03-.13.03-.18v-.06s.04.05.04.05c.06.07.13.09.19.11,0-.05,0-.11,0-.18v-.06s.04.04.04.04c.07.05.13.07.19.06,0-.06-.02-.11-.04-.17l-.02-.05h.04c.05.02.12.02.17.02-.02-.03-.04-.08-.08-.1-.03-.03-.07-.05-.11-.08-.04-.03-.08-.05-.12-.08-.04-.03-.12-.12-.13-.12l-.04-.04h.06s.03,0,.05,0c.03,0,.05,0,.09,0-.03-.13-.05-.18-.17-.28l-.07-.06h.09c.06.02.09.02.12.02,0,0,.01,0,.02,0-.04-.08-.07-.16-.09-.23-.04-.14-.08-.25-.21-.33h-.02s0-.03,0-.03c.05-.12.04-.16,0-.26,0-.02-.02-.04-.03-.07h0s-.01-.07-.01-.09c-.17.04-.2.08-.27.16,0,.01-.02.02-.03.03l-.06.07.02-.09c.01-.07,0-.11-.04-.15,0,.01-.02.03-.03.05-.02.04-.04.08-.07.1l-.03.03v-.04c-.02-.07-.03-.13-.09-.18-.05.05-.08.11-.08.17v.05s-.04-.04-.04-.04c-.03-.02-.05-.06-.07-.1,0-.02-.02-.03-.03-.05-.05.04-.06.08-.04.15l.02.09-.06-.07c-.1-.12-.15-.17-.29-.2,0,.03,0,.07,0,.09,0,.02-.02.05-.03.08-.03.08-.07.15,0,.25v.02s0,.01,0,.01c-.16.1-.19.22-.23.36-.02.07-.04.15-.08.22.02,0,.04,0,.07,0,.02,0,.04,0,.06,0h.09s-.07.04-.07.04c-.12.09-.14.12-.17.24.01,0,.02,0,.04,0,.03,0,.06,0,.11-.02h.05s-.02.03-.02.03c-.03.07-.09.12-.13.15h-.02c-.07.08-.12.14-.15.23.04,0,.08-.01.12-.03l.07-.02v.04c-.03.06-.04.11-.02.2.06-.02.1-.05.13-.07.01,0,.03-.02.04-.03l.04-.02v.05c-.01.06-.02.13,0,.19.05-.02.11-.05.16-.11l.04-.04v.06c0,.08.02.13.04.19.05-.03.1-.06.14-.09l.03-.02v.04s.02.03.02.04c.01.05.02.09.07.16.07-.03.09-.07.12-.12,0,0,.01-.02.02-.03l.03-.04Z"/>
        </g>
        <g id="path29-5">
          <path class="cls-3" d="M14.68,9.1v.11c-.01-.1-.06-.19-.09-.25.04.05.11.12.19.15h-.1ZM14.59,9.33l-.12-.03-.04.1c.02-.09,0-.27,0-.33.02.06.06.22.16.26ZM14.33,9.45l-.07-.05-.04.09c.02-.07,0-.3-.01-.35.02.06.08.26.13.31h0ZM14.05,9.57l-.09-.08-.06.1c.04-.09.03-.29.03-.34.02.06.05.25.12.32h0ZM13.75,9.6l-.09-.07-.06.11c.04-.08.03-.29.03-.35.02.06.04.22.12.32ZM13.28,9.59l.09-.07.05.09c-.04-.1-.03-.22-.03-.27-.02.06-.04.17-.12.25ZM13,9.47l.08-.04.04.09c-.02-.11-.02-.23-.02-.28-.02.06-.04.17-.11.23Z"/>
        </g>
        <g id="path30-7">
          <path class="cls-3" d="M14.9,8.52v.1c-.02-.12-.08-.22-.11-.27.04.05.13.16.28.17h-.17ZM14.78,8.71l-.11-.04-.02.11c0-.12-.05-.21-.08-.26.04.05.13.15.21.19ZM14.54,8.86l-.11-.05-.03.11c.01-.1-.01-.21-.03-.27.04.05.08.15.17.2h0ZM14.26,8.99l-.09-.07-.04.11c.03-.1,0-.24,0-.29.03.06.06.18.14.25h0ZM13.66,9.14l-.07-.09-.07.1c.04-.08.07-.25.07-.31.01.06.03.22.07.3h0ZM13.97,9.08l-.1-.06-.04.11c.03-.09,0-.26,0-.31.03.06.07.19.15.26ZM13.21,9.09l.1-.07.04.11c-.03-.09,0-.24,0-.3-.03.06-.09.2-.15.25ZM12.92,8.98l.09-.07.04.12c-.03-.1.01-.27.02-.33-.03.06-.1.24-.15.28h0ZM12.67,8.84l.08-.02.03.1c0-.09.04-.22.05-.27-.03.05-.11.18-.16.2h0Z"/>
        </g>
        <g id="path31-6">
          <path class="cls-3" d="M14.14,6.62c-.12.08-.19.1-.19.27.12-.05.16-.04.2.08.1-.17-.02-.18-.01-.35ZM13.01,7.09c-.1.06-.12.21.04.27-.12.1-.1.34.01.45-.05.06-.13.2-.17.27.08-.06.15-.17.21-.24.03.02.05.03.09.05-.03.06-.1.22-.12.31.07-.08.13-.22.17-.29.02,0,.05,0,.07.01-.02.05-.01.1.02.15-.03.06-.1.23-.12.31.06-.07.12-.2.17-.27.03.02.06.04.1.05-.01.07-.03.23-.03.31.04-.09.07-.22.09-.3.03,0,.05,0,.08,0,.02.08.03.22.06.3,0-.08,0-.23,0-.31.03,0,.05-.02.08-.03.04.08.08.21.14.29-.01-.09-.06-.27-.09-.33.05-.04.06-.09.06-.15.08.06.2.18.29.23-.05-.07-.19-.21-.25-.27.07-.01.13-.04.17-.07.07.06.23.2.32.26-.05-.07-.23-.24-.29-.3.1-.11.13-.34,0-.44.16-.06.14-.21.04-.27.02.05.03.09.02.15-.03.08-.12.08-.19.09.05.03.11.07.14.12.08.27-.17.45-.41.42-.09-.01-.1-.03-.1-.11.02,0,.04,0,.06-.02.02,0,.03-.02.03-.03,0,0,.01-.02.02-.02.02-.01.06,0,.06,0h.03s0-.02,0-.02c0-.03,0-.04-.01-.09-.02-.04-.04-.06-.06-.07,0,0-.01,0-.02-.01,0,0,0,0,0,0-.02-.09-.03-.17,0-.24.01-.04.06-.08.12-.09.07,0,.15,0,.19.02-.11-.12-.33-.08-.37.06-.03.08-.02.17,0,.27,0,.02.02.04.05.05.02.01.03.02.04.05.01.02,0,.02,0,.04-.02,0-.03-.02-.06,0-.02,0-.03.02-.04.03,0,.01-.02.02-.01.02,0,0-.03,0-.04,0,0,0-.04,0-.05,0-.01,0-.03,0-.04,0,0,0,0,0-.01-.02,0-.01-.02-.02-.04-.03-.03-.01-.04,0-.06,0,0-.02,0-.02,0-.04.01-.03.03-.03.04-.05.02-.02.04-.03.05-.05.02-.09.03-.18,0-.27-.04-.14-.26-.18-.37-.06.04,0,.12-.03.19-.02.06,0,.11.05.12.09.02.07.02.15,0,.24,0,0,0,0,0,0,0,0,0,0-.02.01-.02.01-.04.03-.06.07-.02.04-.02.06-.01.09v.03s.03,0,.03,0c0,0,.04,0,.06,0,0,0,0,0,.02.02,0,0,.02.02.03.03.02.01.04.01.06.02,0,.08,0,.1-.1.11-.22.04-.48-.15-.41-.42.03-.06.09-.09.14-.12-.07,0-.15-.01-.19-.09-.02-.06,0-.1.02-.15h0ZM13.22,7.24c.01.06.08.14.2.08-.05-.12-.13-.11-.2-.08ZM13.73,7.32c.12.06.19-.02.2-.08-.07-.03-.15-.04-.2.08ZM13.57,7.88c.07.04.13.04.21.04.04.09-.05.18-.21.18s-.25-.08-.21-.18c.09,0,.16-.02.21-.04ZM12.85,7.99c-.1.07-.17.19-.28.22h.09s0,.09,0,.09c.05-.19.16-.2.19-.31ZM13.03,8.03c-.09.08-.17.3-.28.35l.11-.04.02.1c0-.18.14-.29.15-.42ZM14.44,8.07c.03.11.2.15.24.31v-.1s.11-.01.11-.01c-.12,0-.19-.08-.36-.21ZM14.23,8.08c0,.11.24.27.25.44v-.1s.12.03.12.03c-.14-.06-.29-.31-.37-.37ZM13.15,8.21c-.07.09-.08.23-.18.29l.1-.05.03.09c-.03-.17.06-.2.05-.33ZM14.12,8.22c0,.11.15.2.12.4l.03-.1.11.05c-.11-.07-.18-.28-.25-.35ZM13.94,8.25c-.03.13.1.24.04.42l.05-.09.09.05c-.1-.09-.13-.29-.18-.39ZM13.33,8.33c-.05.1-.02.2-.14.27l.1-.04.05.1c-.06-.17.02-.2-.01-.33ZM13.74,8.35c-.04.13.07.17,0,.36l.06-.09.07.07c-.08-.09-.08-.23-.13-.34h0ZM13.56,8.42c-.04.11-.02.17-.08.26l.07-.07.06.08c-.07-.14-.01-.15-.05-.28ZM13.05,6.62c.12.08.19.1.19.27-.12-.05-.16-.04-.2.08-.1-.17.02-.18.01-.35Z"/>
        </g>
        <g id="path32-1">
          <path class="cls-3" d="M12.76,10.64c-.26-.03-.52.08-.43.3l.05-.02c-.06-.21.22-.25.37-.28h0ZM16.7,9.24c.03.2.09.36.21.47.12.12.28.19.49.24-.07-.11-.32-.19-.43-.29-.15-.13-.18-.35-.27-.42ZM17.34,10.55c.03-.06.09-.14.1-.22.01-.08,0-.17-.04-.23-.05.03-.09.44-.07.46ZM16.6,9.14c.01-.1-.04-.13-.1-.16-.08-.03-.17,0-.19.07.09-.05.22,0,.29.08ZM14.58,9.47c-.01.1.19.3.31.3l.13-.03c-.21,0-.4-.18-.44-.27ZM13.5,9.86c.01.07.12.08.18.07.09-.02.13-.1.1-.17-.02.09-.17.13-.28.1ZM13.51,10.05c.01.07.12.08.18.07.08-.02.13-.1.1-.16-.02.09-.17.13-.28.1h0ZM13.15,10.63c.06-.04.16-.08.21-.15.06-.07.1-.14.1-.22-.06,0-.32.34-.31.37ZM16.96,10.69c-.26-.03-.52.08-.43.3l.05-.02c-.06-.21.22-.25.37-.28h0ZM15.44,10.69c-.26-.03-.52.08-.43.3l.05-.02c-.06-.21.22-.25.37-.28ZM15.23,9.08c.03.12.46.36.62.28l.09-.07c-.21.09-.61-.1-.71-.22ZM15.01,9.11c0,.12.5.41.64.38l.11-.07c-.15.08-.69-.19-.75-.32h0ZM14.89,9.25c.02.15.44.39.54.35l.13-.06c-.22.05-.59-.14-.67-.29h0ZM14.76,9.39c-.01.11.26.3.38.32l.15-.05c-.2.03-.49-.17-.53-.27ZM14.44,9.57s.05.19.18.25l.13-.02c-.17-.03-.27-.16-.31-.23ZM14.25,9.66c0,.05.02.14.09.19h.13c-.14-.05-.2-.15-.22-.19h0ZM15.71,9.65s-.12-.05-.15-.11l.06-.03c.02.07.07.12.09.14h0ZM15.61,9.73c-.13-.05-.15-.12-.16-.14l.06-.03s.03.1.1.17h0ZM15.34,9.64l.07-.03c0,.05.06.15.11.2-.07-.04-.15-.09-.18-.17h0ZM15.86,10.67c.04-.06.12-.12.14-.21.03-.08.03-.17,0-.24-.06.02-.17.43-.15.44h0ZM16.17,10.03c-.01.08-.13.08-.19.06-.07-.02-.12-.09-.09-.16.02.09.17.13.28.1ZM16.2,9.82c-.01.07-.12.08-.19.06-.08-.02-.12-.09-.09-.16.02.09.17.13.28.1Z"/>
        </g>
        <g id="path33-8">
          <path class="cls-3" d="M16.97,8.59c.23,0,.28.13.56.12l-.2.03c.1.09.14.17.14.24-.09-.27-.32-.3-.5-.39h0Z"/>
        </g>
      </g>
    </g>
  </g>
</svg>