<?xml version="1.0" encoding="UTF-8"?>
<svg id="Layer_2" data-name="Layer 2" xmlns="http://www.w3.org/2000/svg" viewBox="0 0 29.76 17.01">
  <defs>
    <style>
      .cls-1 {
        fill: #d91f26;
      }

      .cls-2 {
        fill: #fff;
      }

      .cls-3 {
        fill: #269f49;
      }
    </style>
  </defs>
  <g id="Layer_1-2" data-name="Layer 1">
    <g>
      <path class="cls-1" d="M0,0h29.76v17.01H0V0Z"/>
      <path class="cls-2" d="M0,0h29.76v11.34H0V0Z"/>
      <path class="cls-3" d="M0,0h29.76v5.67H0V0Z"/>
      <g>
        <g id="e">
          <g id="c">
            <g id="b">
              <path class="cls-2" d="M.53,5.4h-.13v-.4h.66v.26h.4v-.13h-.26v-.13h.4v.4h-.66v-.26h-.4v.26ZM2.91,5.4h-.66v-.26h-.4v.13h.26v.13h-.4v-.4h.53v-.26h.13v.53h.13v-.53h.13v.53h.13v-.53h.13v.66ZM.79,5.4h-.13v-.13h.13v.13ZM2.12,4.88H.4v-.13h1.72v.13Z"/>
            </g>
            <g id="a">
              <path class="cls-2" d="M2.91,5.8h-1.19v-.26h1.19v.26ZM1.59,5.8H.4v-.26h1.19v.26Z"/>
            </g>
            <g id="a-2" data-name="a">
              <path class="cls-2" d="M2.91,11.47h-1.19v-.26h1.19v.26ZM1.59,11.47H.4v-.26h1.19v.26Z"/>
            </g>
            <g id="b-2" data-name="b">
              <path class="cls-2" d="M.53,12.26h-.13v-.4h.66v.26h.4v-.13h-.26v-.13h.4v.4h-.66v-.26h-.4v.26ZM2.91,12.26h-.66v-.26h-.4v.13h.26v.13h-.4v-.4h.53v-.26h.13v.53h.13v-.53h.13v.53h.13v-.53h.13v.66ZM.79,12.26h-.13v-.13h.13v.13ZM2.12,11.74H.4v-.13h1.72v.13Z"/>
            </g>
          </g>
          <g id="d">
            <g id="c-2" data-name="c">
              <g id="b-3" data-name="b">
                <path class="cls-2" d="M3.17,5.4h-.13v-.4h.66v.26h.4v-.13h-.26v-.13h.4v.4h-.66v-.26h-.4v.26ZM5.56,5.4h-.66v-.26h-.4v.13h.26v.13h-.4v-.4h.53v-.26h.13v.53h.13v-.53h.13v.53h.13v-.53h.13v.66ZM3.44,5.4h-.13v-.13h.13v.13ZM4.76,4.88h-1.72v-.13h1.72v.13Z"/>
              </g>
              <g id="a-3" data-name="a">
                <path class="cls-2" d="M5.56,5.8h-1.19v-.26h1.19v.26ZM4.23,5.8h-1.19v-.26h1.19v.26Z"/>
              </g>
              <g id="a-4" data-name="a">
                <path class="cls-2" d="M5.56,11.47h-1.19v-.26h1.19v.26ZM4.23,11.47h-1.19v-.26h1.19v.26Z"/>
              </g>
              <g id="b-4" data-name="b">
                <path class="cls-2" d="M3.17,12.26h-.13v-.4h.66v.26h.4v-.13h-.26v-.13h.4v.4h-.66v-.26h-.4v.26ZM5.56,12.26h-.66v-.26h-.4v.13h.26v.13h-.4v-.4h.53v-.26h.13v.53h.13v-.53h.13v.53h.13v-.53h.13v.66ZM3.44,12.26h-.13v-.13h.13v.13ZM4.76,11.74h-1.72v-.13h1.72v.13Z"/>
              </g>
            </g>
            <g id="c-3" data-name="c">
              <g id="b-5" data-name="b">
                <path class="cls-2" d="M5.82,5.4h-.13v-.4h.66v.26h.4v-.13h-.26v-.13h.4v.4h-.66v-.26h-.4v.26ZM8.2,5.4h-.66v-.26h-.4v.13h.26v.13h-.4v-.4h.53v-.26h.13v.53h.13v-.53h.13v.53h.13v-.53h.13v.66ZM6.08,5.4h-.13v-.13h.13v.13ZM7.41,4.88h-1.72v-.13h1.72v.13Z"/>
              </g>
              <g id="a-5" data-name="a">
                <path class="cls-2" d="M8.2,5.8h-1.19v-.26h1.19v.26ZM6.88,5.8h-1.19v-.26h1.19v.26Z"/>
              </g>
              <g id="a-6" data-name="a">
                <path class="cls-2" d="M8.2,11.47h-1.19v-.26h1.19v.26ZM6.88,11.47h-1.19v-.26h1.19v.26Z"/>
              </g>
              <g id="b-6" data-name="b">
                <path class="cls-2" d="M5.82,12.26h-.13v-.4h.66v.26h.4v-.13h-.26v-.13h.4v.4h-.66v-.26h-.4v.26ZM8.2,12.26h-.66v-.26h-.4v.13h.26v.13h-.4v-.4h.53v-.26h.13v.53h.13v-.53h.13v.53h.13v-.53h.13v.66ZM6.08,12.26h-.13v-.13h.13v.13ZM7.41,11.74h-1.72v-.13h1.72v.13Z"/>
              </g>
            </g>
            <g id="c-4" data-name="c">
              <g id="b-7" data-name="b">
                <path class="cls-2" d="M8.47,5.4h-.13v-.4h.66v.26h.4v-.13h-.26v-.13h.4v.4h-.66v-.26h-.4v.26ZM10.85,5.4h-.66v-.26h-.4v.13h.26v.13h-.4v-.4h.53v-.26h.13v.53h.13v-.53h.13v.53h.13v-.53h.13v.66ZM8.73,5.4h-.13v-.13h.13v.13ZM10.05,4.88h-1.72v-.13h1.72v.13Z"/>
              </g>
              <g id="a-7" data-name="a">
                <path class="cls-2" d="M10.85,5.8h-1.19v-.26h1.19v.26ZM9.52,5.8h-1.19v-.26h1.19v.26Z"/>
              </g>
              <g id="a-8" data-name="a">
                <path class="cls-2" d="M10.85,11.47h-1.19v-.26h1.19v.26ZM9.52,11.47h-1.19v-.26h1.19v.26Z"/>
              </g>
              <g id="b-8" data-name="b">
                <path class="cls-2" d="M8.47,12.26h-.13v-.4h.66v.26h.4v-.13h-.26v-.13h.4v.4h-.66v-.26h-.4v.26ZM10.85,12.26h-.66v-.26h-.4v.13h.26v.13h-.4v-.4h.53v-.26h.13v.53h.13v-.53h.13v.53h.13v-.53h.13v.66ZM8.73,12.26h-.13v-.13h.13v.13ZM10.05,11.74h-1.72v-.13h1.72v.13Z"/>
              </g>
            </g>
          </g>
        </g>
        <g id="d-2" data-name="d">
          <g id="c-5" data-name="c">
            <g id="b-9" data-name="b">
              <path class="cls-2" d="M11.11,5.4h-.13v-.4h.66v.26h.4v-.13h-.26v-.13h.4v.4h-.66v-.26h-.4v.26ZM13.49,5.4h-.66v-.26h-.4v.13h.26v.13h-.4v-.4h.53v-.26h.13v.53h.13v-.53h.13v.53h.13v-.53h.13v.66ZM11.38,5.4h-.13v-.13h.13v.13ZM12.7,4.88h-1.72v-.13h1.72v.13Z"/>
            </g>
            <g id="a-9" data-name="a">
              <path class="cls-2" d="M13.49,5.8h-1.19v-.26h1.19v.26ZM12.17,5.8h-1.19v-.26h1.19v.26Z"/>
            </g>
            <g id="a-10" data-name="a">
              <path class="cls-2" d="M13.49,11.47h-1.19v-.26h1.19v.26ZM12.17,11.47h-1.19v-.26h1.19v.26Z"/>
            </g>
            <g id="b-10" data-name="b">
              <path class="cls-2" d="M11.11,12.26h-.13v-.4h.66v.26h.4v-.13h-.26v-.13h.4v.4h-.66v-.26h-.4v.26ZM13.49,12.26h-.66v-.26h-.4v.13h.26v.13h-.4v-.4h.53v-.26h.13v.53h.13v-.53h.13v.53h.13v-.53h.13v.66ZM11.38,12.26h-.13v-.13h.13v.13ZM12.7,11.74h-1.72v-.13h1.72v.13Z"/>
            </g>
          </g>
          <g id="c-6" data-name="c">
            <g id="b-11" data-name="b">
              <path class="cls-2" d="M13.76,5.4h-.13v-.4h.66v.26h.4v-.13h-.26v-.13h.4v.4h-.66v-.26h-.4v.26ZM16.14,5.4h-.66v-.26h-.4v.13h.26v.13h-.4v-.4h.53v-.26h.13v.53h.13v-.53h.13v.53h.13v-.53h.13v.66ZM14.02,5.4h-.13v-.13h.13v.13ZM15.34,4.88h-1.72v-.13h1.72v.13Z"/>
            </g>
            <g id="a-11" data-name="a">
              <path class="cls-2" d="M16.14,5.8h-1.19v-.26h1.19v.26ZM14.82,5.8h-1.19v-.26h1.19v.26Z"/>
            </g>
            <g id="a-12" data-name="a">
              <path class="cls-2" d="M16.14,11.47h-1.19v-.26h1.19v.26ZM14.82,11.47h-1.19v-.26h1.19v.26Z"/>
            </g>
            <g id="b-12" data-name="b">
              <path class="cls-2" d="M13.76,12.26h-.13v-.4h.66v.26h.4v-.13h-.26v-.13h.4v.4h-.66v-.26h-.4v.26ZM16.14,12.26h-.66v-.26h-.4v.13h.26v.13h-.4v-.4h.53v-.26h.13v.53h.13v-.53h.13v.53h.13v-.53h.13v.66ZM14.02,12.26h-.13v-.13h.13v.13ZM15.34,11.74h-1.72v-.13h1.72v.13Z"/>
            </g>
          </g>
          <g id="c-7" data-name="c">
            <g id="b-13" data-name="b">
              <path class="cls-2" d="M16.4,5.4h-.13v-.4h.66v.26h.4v-.13h-.26v-.13h.4v.4h-.66v-.26h-.4v.26ZM18.78,5.4h-.66v-.26h-.4v.13h.26v.13h-.4v-.4h.53v-.26h.13v.53h.13v-.53h.13v.53h.13v-.53h.13v.66ZM16.67,5.4h-.13v-.13h.13v.13ZM17.99,4.88h-1.72v-.13h1.72v.13Z"/>
            </g>
            <g id="a-13" data-name="a">
              <path class="cls-2" d="M18.78,5.8h-1.19v-.26h1.19v.26ZM17.46,5.8h-1.19v-.26h1.19v.26Z"/>
            </g>
            <g id="a-14" data-name="a">
              <path class="cls-2" d="M18.78,11.47h-1.19v-.26h1.19v.26ZM17.46,11.47h-1.19v-.26h1.19v.26Z"/>
            </g>
            <g id="b-14" data-name="b">
              <path class="cls-2" d="M16.4,12.26h-.13v-.4h.66v.26h.4v-.13h-.26v-.13h.4v.4h-.66v-.26h-.4v.26ZM18.78,12.26h-.66v-.26h-.4v.13h.26v.13h-.4v-.4h.53v-.26h.13v.53h.13v-.53h.13v.53h.13v-.53h.13v.66ZM16.67,12.26h-.13v-.13h.13v.13ZM17.99,11.74h-1.72v-.13h1.72v.13Z"/>
            </g>
          </g>
        </g>
        <g id="e-2" data-name="e">
          <g id="c-8" data-name="c">
            <g id="b-15" data-name="b">
              <path class="cls-2" d="M19.05,5.4h-.13v-.4h.66v.26h.4v-.13h-.26v-.13h.4v.4h-.66v-.26h-.4v.26ZM21.43,5.4h-.66v-.26h-.4v.13h.26v.13h-.4v-.4h.53v-.26h.13v.53h.13v-.53h.13v.53h.13v-.53h.13v.66ZM19.31,5.4h-.13v-.13h.13v.13ZM20.64,4.88h-1.72v-.13h1.72v.13Z"/>
            </g>
            <g id="a-15" data-name="a">
              <path class="cls-2" d="M21.43,5.8h-1.19v-.26h1.19v.26ZM20.11,5.8h-1.19v-.26h1.19v.26Z"/>
            </g>
            <g id="a-16" data-name="a">
              <path class="cls-2" d="M21.43,11.47h-1.19v-.26h1.19v.26ZM20.11,11.47h-1.19v-.26h1.19v.26Z"/>
            </g>
            <g id="b-16" data-name="b">
              <path class="cls-2" d="M19.05,12.26h-.13v-.4h.66v.26h.4v-.13h-.26v-.13h.4v.4h-.66v-.26h-.4v.26ZM21.43,12.26h-.66v-.26h-.4v.13h.26v.13h-.4v-.4h.53v-.26h.13v.53h.13v-.53h.13v.53h.13v-.53h.13v.66ZM19.31,12.26h-.13v-.13h.13v.13ZM20.64,11.74h-1.72v-.13h1.72v.13Z"/>
            </g>
          </g>
          <g id="d-3" data-name="d">
            <g id="c-9" data-name="c">
              <g id="b-17" data-name="b">
                <path class="cls-2" d="M21.69,5.4h-.13v-.4h.66v.26h.4v-.13h-.26v-.13h.4v.4h-.66v-.26h-.4v.26ZM24.08,5.4h-.66v-.26h-.4v.13h.26v.13h-.4v-.4h.53v-.26h.13v.53h.13v-.53h.13v.53h.13v-.53h.13v.66ZM21.96,5.4h-.13v-.13h.13v.13ZM23.28,4.88h-1.72v-.13h1.72v.13Z"/>
              </g>
              <g id="a-17" data-name="a">
                <path class="cls-2" d="M24.08,5.8h-1.19v-.26h1.19v.26ZM22.75,5.8h-1.19v-.26h1.19v.26Z"/>
              </g>
              <g id="a-18" data-name="a">
                <path class="cls-2" d="M24.08,11.47h-1.19v-.26h1.19v.26ZM22.75,11.47h-1.19v-.26h1.19v.26Z"/>
              </g>
              <g id="b-18" data-name="b">
                <path class="cls-2" d="M21.69,12.26h-.13v-.4h.66v.26h.4v-.13h-.26v-.13h.4v.4h-.66v-.26h-.4v.26ZM24.08,12.26h-.66v-.26h-.4v.13h.26v.13h-.4v-.4h.53v-.26h.13v.53h.13v-.53h.13v.53h.13v-.53h.13v.66ZM21.96,12.26h-.13v-.13h.13v.13ZM23.28,11.74h-1.72v-.13h1.72v.13Z"/>
              </g>
            </g>
            <g id="c-10" data-name="c">
              <g id="b-19" data-name="b">
                <path class="cls-2" d="M24.34,5.4h-.13v-.4h.66v.26h.4v-.13h-.26v-.13h.4v.4h-.66v-.26h-.4v.26ZM26.72,5.4h-.66v-.26h-.4v.13h.26v.13h-.4v-.4h.53v-.26h.13v.53h.13v-.53h.13v.53h.13v-.53h.13v.66ZM24.6,5.4h-.13v-.13h.13v.13ZM25.93,4.88h-1.72v-.13h1.72v.13Z"/>
              </g>
              <g id="a-19" data-name="a">
                <path class="cls-2" d="M26.72,5.8h-1.19v-.26h1.19v.26ZM25.4,5.8h-1.19v-.26h1.19v.26Z"/>
              </g>
              <g id="a-20" data-name="a">
                <path class="cls-2" d="M26.72,11.47h-1.19v-.26h1.19v.26ZM25.4,11.47h-1.19v-.26h1.19v.26Z"/>
              </g>
              <g id="b-20" data-name="b">
                <path class="cls-2" d="M24.34,12.26h-.13v-.4h.66v.26h.4v-.13h-.26v-.13h.4v.4h-.66v-.26h-.4v.26ZM26.72,12.26h-.66v-.26h-.4v.13h.26v.13h-.4v-.4h.53v-.26h.13v.53h.13v-.53h.13v.53h.13v-.53h.13v.66ZM24.6,12.26h-.13v-.13h.13v.13ZM25.93,11.74h-1.72v-.13h1.72v.13Z"/>
              </g>
            </g>
            <g id="c-11" data-name="c">
              <g id="b-21" data-name="b">
                <path class="cls-2" d="M26.99,5.4h-.13v-.4h.66v.26h.4v-.13h-.26v-.13h.4v.4h-.66v-.26h-.4v.26ZM29.37,5.4h-.66v-.26h-.4v.13h.26v.13h-.4v-.4h.53v-.26h.13v.53h.13v-.53h.13v.53h.13v-.53h.13v.66ZM27.25,5.4h-.13v-.13h.13v.13ZM28.57,4.88h-1.72v-.13h1.72v.13Z"/>
              </g>
              <g id="a-21" data-name="a">
                <path class="cls-2" d="M29.37,5.8h-1.19v-.26h1.19v.26ZM28.04,5.8h-1.19v-.26h1.19v.26Z"/>
              </g>
              <g id="a-22" data-name="a">
                <path class="cls-2" d="M29.37,11.47h-1.19v-.26h1.19v.26ZM28.04,11.47h-1.19v-.26h1.19v.26Z"/>
              </g>
              <g id="b-22" data-name="b">
                <path class="cls-2" d="M26.99,12.26h-.13v-.4h.66v.26h.4v-.13h-.26v-.13h.4v.4h-.66v-.26h-.4v.26ZM29.37,12.26h-.66v-.26h-.4v.13h.26v.13h-.4v-.4h.53v-.26h.13v.53h.13v-.53h.13v.53h.13v-.53h.13v.66ZM27.25,12.26h-.13v-.13h.13v.13ZM28.57,11.74h-1.72v-.13h1.72v.13Z"/>
              </g>
            </g>
          </g>
        </g>
      </g>
      <g>
        <g id="f">
          <path class="cls-1" d="M17.04,8.47c0,.61-.34,1.17-.88,1.46.74-.92.59-2.26-.33-3,0,0,0,0,0,0l-.09-.07c.76.16,1.31.83,1.31,1.62"/>
          <path class="cls-1" d="M16.28,8.4c0,1.09-.88,1.97-1.97,1.97-.21,0-.41-.03-.61-.1h.11c1.19,0,2.16-.97,2.15-2.16,0-.43-.13-.85-.37-1.2.44.37.69.92.68,1.49M15.44,6.5c0,.17-.14.3-.3.3-.1,0-.2-.05-.25-.14l-.04-.04.04-.18c.06.14.23.2.37.14.08-.04.14-.11.16-.21.02.04.03.08.03.12"/>
          <path class="cls-1" d="M15.14,6.99c-.1-.04-.19-.12-.26-.2l-.11,1.69.11,2.16.17-.23.02-.53.02-.56v-.07s0-.03,0-.03v-.11s.02-.35.02-.35v-.28s.01-.08.01-.08v-.1s0-1.3,0-1.3Z"/>
        </g>
        <g id="f-2" data-name="f">
          <path class="cls-1" d="M12.72,8.47c0,.61.34,1.17.88,1.46-.74-.92-.59-2.26.33-3,0,0,0,0,0,0l.09-.07c-.76.16-1.31.83-1.31,1.62"/>
          <path class="cls-1" d="M13.49,8.4c0,1.09.88,1.97,1.97,1.97.21,0,.41-.03.61-.1h-.11c-1.19,0-2.16-.97-2.15-2.16,0-.43.13-.85.37-1.2-.44.37-.69.92-.68,1.49M14.32,6.5c0,.17.14.3.3.3.1,0,.2-.05.25-.14l.04-.04-.04-.18c-.06.14-.23.2-.37.14-.08-.04-.14-.11-.16-.21-.02.04-.03.08-.03.12"/>
          <path class="cls-1" d="M14.63,6.99c.1-.04.19-.12.26-.2l.11,1.69-.11,2.16-.17-.23-.02-.53-.02-.56v-.07s0-.03,0-.03v-.11s-.02-.35-.02-.35v-.28s-.01-.08-.01-.08v-.1s0-1.3,0-1.3Z"/>
        </g>
      </g>
    </g>
  </g>
</svg>