<?xml version="1.0" encoding="UTF-8"?>
<svg id="Layer_2" data-name="Layer 2" xmlns="http://www.w3.org/2000/svg" viewBox="0 0 25.51 17.01">
  <defs>
    <style>
      .cls-1 {
        fill: #cd2027;
      }

      .cls-2 {
        fill: #fff;
      }

      .cls-3 {
        fill: #010101;
      }

      .cls-4 {
        fill: #047c3f;
      }
    </style>
  </defs>
  <g id="Layer_1-2" data-name="Layer 1">
    <g>
      <path class="cls-2" d="M0,0h25.51v17.01H0V0Z"/>
      <path class="cls-1" d="M0,0h25.51v5.67H0V0Z"/>
      <path class="cls-3" d="M0,11.34h25.51v5.67H0v-5.67Z"/>
      <path class="cls-4" d="M12.59,9.7h-4.16c-.03.29-.33.51-.67.48-.04,0-.07,0-.11-.02.58-.29.55-.58.18-1.22.2-.07.24-.09.44-.23-.15.44.38.39.76.39,0-.15.02-.33-.1-.35.15-.05.16-.07.4-.27v.59h2.87v-.41s-.04-.09-.09-.09-.09.04-.09.09v.24s-.03.06-.06.06h-2.19v-.39l1.64-1.59c-.01.08.16.3.23.34-.05,0-.11,0-.15.04l-1.35,1.3h1.49c0-.35.32-.35.47-.47.15.12.47.12.47.47v1.04ZM12.9,9.7v-2.72c.15.08.27.18.46.23,0,.11-.11.14-.11.22v1.67c.21.05.26-.08.36-.14.03.27.2.53.19.74h-.9ZM15.74,7.88l.33-.28v1.46h.24v-1.66c.12-.1.27-.2.33-.32v2.62h-2.09c-.03-.54-.03-1.1.6-.98v-.22c0-.05-.08-.01-.08-.06l.43-.36v.98h.24v-1.18ZM15.63,7.13s-.1-.22-.09-.26c.02-.05.07-.05.09-.03.04.04.03.29,0,.29ZM15.24,7.44c-.12-.07-.1-.1,0-.07.18.05.27,0,.4-.12l.1.05c.13.06.2.04.25-.12.01-.05.05-.03.06.02.04.21-.12.28-.29.22-.09-.03-.11-.03-.15,0-.1.08-.24.09-.37.01ZM16.96,9.7v-2.72c.15.08.27.18.46.23,0,.11-.11.14-.11.22v1.67c.21.05.26-.08.36-.14.03.27.2.53.19.74h-.9ZM8.82,10c0-.07.06-.13.13-.13s.13.06.13.13-.06.13-.13.13-.13-.06-.13-.13ZM14.96,9.01s.04.07.1.07.1-.03.1-.07-.04-.07-.1-.07-.1.03-.1.07Z"/>
    </g>
  </g>
</svg>