<?xml version="1.0" encoding="UTF-8"?>
<svg id="Layer_2" data-name="Layer 2" xmlns="http://www.w3.org/2000/svg" viewBox="0 0 23.39 17.01">
  <defs>
    <style>
      .cls-1 {
        fill: #fff;
      }

      .cls-2 {
        fill: #2a499f;
      }
    </style>
  </defs>
  <g id="Layer_1-2" data-name="Layer 1">
    <g>
      <path class="cls-1" d="M0,0h23.39v17.01H0V0Z"/>
      <path class="cls-2" d="M0,1.59h23.39v2.66H0V1.59Z"/>
      <path class="cls-2" d="M0,12.76h23.39v2.66H0v-2.66Z"/>
      <path class="cls-2" d="M11.69,12.19l-1.06-1.84h-2.13l1.06-1.84-1.06-1.84h2.13l1.06-1.84,1.06,1.84h2.13l-1.06,1.84,1.06,1.84h-2.13l-1.06,1.84ZM11.31,10.34l.39.67.39-.67h-.78ZM13.09,9.76h.78l-.39-.67-.39.67ZM10.97,9.76h1.45l.73-1.26-.73-1.26h-1.45l-.73,1.26.73,1.26ZM9.52,9.76h.78l-.39-.67-.39.67ZM13.09,7.25l.39.67.39-.67h-.78ZM9.52,7.25l.39.67.39-.67h-.78ZM11.31,6.66h.78l-.39-.67-.39.67Z"/>
    </g>
  </g>
</svg>