<?xml version="1.0" encoding="UTF-8"?>
<svg id="Layer_2" data-name="Layer 2" xmlns="http://www.w3.org/2000/svg" viewBox="0 0 25.51 17.01">
  <defs>
    <style>
      .cls-1 {
        fill: #d42027;
      }

      .cls-2 {
        fill: #fff;
      }

      .cls-3 {
        fill: #078c45;
      }
    </style>
  </defs>
  <g id="Layer_1-2" data-name="Layer 1">
    <g>
      <path class="cls-1" d="M0,0h25.51v17.01H0V0Z"/>
      <path class="cls-2" d="M0,4.25h25.51v8.5H0V4.25Z"/>
      <path class="cls-3" d="M12.63,4.25c-.12.22-.25.44-.46.59-.04.02-.07.05-.1.08l-.02.02s-.04.03-.06.04l-.02.02c-.06.05-.12.1-.18.16-.01.01-.03.03-.04.04-.07.07-.15.14-.19.23t.08-.02h.02c.06-.03.13-.04.19-.07.05-.02.09-.03.14-.02,0,.02,0,.04,0,.05-.1.15-.3.27-.46.34-.05.02-.1.04-.14.07l-.02.02c-.11.07-.22.14-.3.26l.02.04s.03,0,.05,0h.02s.06,0,.09,0t.04,0h.03s.03,0,.05,0c.03,0,.03.02.05.04.03.05.05.1.04.17-.04.04-.1.05-.16.05-.05,0-.09.01-.14.03-.11.05-.22.13-.26.25v.03q-.17.2-.42.3c-.07.03-.14.07-.2.11-.02.01-.04.02-.05.03-.12.07-.25.15-.35.25-.03.03-.04.05-.04.09t.01.04s.06.03.11.03h.02s.03,0,.04,0c.01,0,.03,0,.04,0,.14,0,.28-.04.41-.09.04-.01.07-.02.11,0q.05.04.08.11v.03s.05.07.06.11c0,.07,0,.13-.03.19l-.02.03s-.07.1-.11.14l-.02.02s-.08.09-.12.13l-.02.02c-.07.06-.16.1-.26.12-.05.01-.1.02-.15.05h-.02c-.12.06-.22.16-.32.25-.02.02-.04.04-.06.06v.02s-.08.06-.11.09c-.02.01-.03.03-.05.04-.05.05-.1.09-.15.13h-.02s-.06.05-.09.06h-.02s0,.03,0,.05c.05.05.13.09.2.11.17.03.31-.05.45-.15.04-.03.07-.05.11-.08l.03-.02s.08-.06.14-.06c.05,0,.09.03.12.08.06.08.1.17.08.27-.03.07-.09.12-.15.16h-.02c-.06.05-.13.09-.2.12-.2.1-.38.22-.55.37,0,0-.02.02-.03.02-.08.06-.15.13-.22.21-.12.13-.25.27-.44.28h-.03s-.06,0-.1,0h-.02s.03.05.05.08c.07.07.14.11.23.11h.02q.11,0,.36-.08h.02c.26-.09.54-.19.77-.34.05-.03.1-.07.15-.1.12-.06.26-.06.38-.02.05.02.09.04.11.09,0,.03,0,.06,0,.09q-.5.38-1.11.54c-.17.05-.34.1-.5.18v.03s.01.07.04.11c.08.06.19.07.29.07h.03c.09,0,.18,0,.28-.02h.02c.12-.02.23-.05.34-.1.04-.02.07-.03.11-.04.23-.09.45-.18.67-.28h.02s.08-.05.12-.06c.09-.04.19-.1.3-.1.13.01.25.08.34.17.09.09.13.18.13.31,0,.36-.29.73-.53.98l-.02.02c-.08.08-.16.15-.26.2h-.03c-.07.05-.15.08-.23.11-.07.02-.15.04-.22.07-.14.08-.3.22-.35.38h.11s.01,0,.02-.01c.11-.15.26-.27.45-.3.03,0,.06,0,.09,0,.3-.01.61-.12.83-.33.16-.14.4-.34.63-.2.09.05.19.04.29,0h.03c.06-.03.12-.04.19-.01.03.03.05.06.05.1,0,.07.04.12.09.17.04.03.08.06.12.09.05.03.1.07.14.11l.02.02c.05.04.1.09.15.14.05.04.09.07.15.07-.02-.1-.06-.18-.11-.26-.02-.03-.01-.05-.01-.09.1-.06.29-.01.4,0h.02c.09.01.18.03.25.06.05.02.1.04.14.08.04.03.07.06.1.1.02.03.05.05.08.08.02.02.03.04.05.06.03.03.06.06.1.09.02.02.02.02.05.04,0,0,0,0,0,0h.24c-.08-.12-.18-.22-.28-.31-.02-.02-.05-.04-.07-.06-.03-.03-.06-.06-.1-.09-.05-.04-.1-.09-.15-.13-.03-.03-.06-.06-.09-.09-.15-.13-.27-.27-.34-.46v-.03c-.04-.07-.05-.13-.05-.2v-.03c-.01-.11-.01-.23-.01-.34,0-.04,0-.07,0-.11,0-.02,0-.05,0-.07v-.03c0-.08,0-.14.03-.22.04-.09.1-.17.2-.21.08-.01.15,0,.23.04h.02s.09.05.14.07c.01,0,.02.01.03.02.02,0,.03.02.05.02.15.08.29.1.46.1.04,0,.08,0,.12,0,.07,0,.15,0,.22,0,.08,0,.16,0,.24,0,.04,0,.07,0,.11,0,.11,0,.22,0,.33.03h.03q.22.11.43.24s.04.03.06.04c.06.04.12.08.18.12.08.06.16.12.26.15.07.01.15.02.2-.02.03-.03.05-.06.05-.1-.02-.12-.13-.22-.22-.29h-.02c-.18-.15-.37-.29-.58-.39-.06-.03-.12-.06-.18-.1-.05-.03-.1-.06-.15-.09-.16-.09-.36-.17-.45-.33,0-.03,0-.06,0-.09.03-.04.07-.06.11-.09h.02s.09-.05.13-.07q.18,0,.34.09c.1.06.21.13.32.14h.02q.09.01.33-.04v-.02h-.01s-.07-.07-.11-.1c-.01,0-.02-.02-.04-.03l-.02-.02s-.04-.03-.06-.05c-.04-.03-.08-.07-.13-.1-.03-.03-.06-.05-.09-.08-.04-.03-.08-.07-.12-.1-.02-.02-.05-.04-.07-.06-.05-.04-.09-.08-.13-.12l-.02-.02s-.07-.07-.11-.11c0-.01-.02-.02-.03-.03-.14-.14-.34-.2-.53-.21-.07,0-.16,0-.22-.05t0-.06c.05-.06.14-.07.2-.09h.03q.19-.03.39-.03h.03s.04,0,.05,0c.04,0,.09,0,.13,0,.02,0,.04,0,.05,0h.02s.02,0,.02,0c.06,0,.12,0,.17-.02.01,0,.03,0,.04,0,.01,0,.03,0,.04,0h.02s.05-.02.07-.02t.03-.04s0-.02,0-.04q-.09-.07-.33-.14s-.04-.01-.05-.02c-.04-.01-.09-.03-.13-.04l-.05-.02c-.09-.03-.19-.06-.28-.08h-.03s-.09-.03-.13-.04c-.02,0-.03,0-.05-.01h-.02c-.08-.02-.16-.05-.21-.12,0-.03,0-.05,0-.07.03-.03.05-.04.1-.04h.02c.09,0,.18.01.27.03.1.02.19.03.29.04h.02c.08.01.16.03.24.02.02,0,.03-.01.04-.03t-.02-.04l-.02-.02q-.06-.06-.23-.15c-.09-.05-.17-.1-.26-.15h-.02c-.22-.14-.44-.28-.62-.46-.11-.11-.23-.21-.35-.3,0,0-.02-.01-.03-.02-.08-.06-.15-.1-.24-.15-.04-.02-.07-.04-.11-.06-.04-.03-.07-.05-.09-.1,0-.03,0-.05.02-.08.04-.03.08-.04.14-.04h.03c.11,0,.19.02.29.07.04.02.08.04.12.05h.02c.08.03.16.03.25.03h.02s.05,0,.08,0c.02,0,.04,0,.05,0,.05,0,.11,0,.16,0t-.06-.04c-.21-.08-.4-.2-.58-.33h-.02c-.09-.08-.23-.15-.27-.26.06,0,.12,0,.18,0,.11,0,.23,0,.34,0h.03s0-.02-.02-.04h-.02s-.02-.03-.02-.03l-.02-.02s-.04-.03-.07-.05c-.02-.01-.03-.03-.05-.04l-.03-.02s-.05-.04-.08-.06c-.09-.07-.18-.14-.27-.2h-.02c-.1-.08-.2-.14-.31-.18h-.02c-.06-.03-.11-.05-.17-.06h-.02s-.1-.03-.14-.04c-.02,0-.04,0-.06-.01-.01,0-.03,0-.04,0-.09-.02-.16-.03-.24-.08h-.02c-.11-.08-.2-.17-.28-.27l-.02-.03c-.09-.12-.17-.26-.23-.4v-.02s-.02-.02-.02-.02c0-.02,0-.03-.03-.04M11.69,5.86s.03,0,.05,0c.04,0,.07.02.1.04,0,.07-.08.13-.13.17q-.07.05-.1.05s-.01,0-.02-.02c0-.03,0-.06,0-.09v-.02c0-.05,0-.08.04-.12.02-.02.05-.02.07-.02M13.09,6s.05,0,.08.02c.03.02.05.04.07.07t0,.04v.02s0,.02-.03.04c-.04.02-.08.02-.12.02h-.02s-.09,0-.13-.04c0-.04,0-.08,0-.11.04-.04.08-.06.13-.06h0ZM13.65,6.04s.05.01.07.04c.02.06,0,.13-.04.18-.03.04-.07.06-.12.07q-.1.01-.14-.01s-.02-.05-.02-.09v-.03s.03-.08.07-.11c.04-.03.08-.04.13-.04h.03ZM12.69,6.04s.02,0,.03,0c.03.02.05.03.06.06,0,.06,0,.12-.03.17-.06.05-.13.08-.21.1h-.02c-.05.02-.11.02-.16.02h-.02s-.02,0-.02,0h-.02s-.02,0-.02,0c-.02-.03-.02-.04-.02-.08.01-.07.08-.11.13-.15.04-.03.09-.05.14-.07h.03s.09-.05.14-.05M12.06,6.33s.01,0,.02,0t.04.04c.01.07-.02.14-.05.19-.08.12-.21.18-.35.22-.02,0-.04,0-.05,0h-.03s-.02,0-.04-.02c0-.05,0-.08.03-.12v-.02s.03-.02.03-.02c.09-.12.25-.28.41-.28h0ZM13.23,6.87s0,0,.01,0c.03.02.05.03.06.06,0,.07,0,.13-.04.19-.05.05-.13.07-.2.07t-.05-.01s-.02-.04-.01-.08c.03-.08.12-.24.22-.24h0ZM12.74,6.89s.06.01.1.04t.02.06c-.02.06-.06.08-.11.11-.05.03-.1.03-.16.02-.06-.02-.13-.04-.19-.07v-.02c.2-.1.28-.14.33-.14M13.78,7.03c.08,0,.16.02.24.07.03.02.04.05.05.08,0,.08-.01.14-.06.2-.05.04-.13.03-.19.03-.05-.01-.11-.03-.16-.04h-.03q-.1-.04-.13-.09s0-.07.02-.1c.07-.1.16-.15.26-.15M11.5,7.07h.04s.04,0,.04,0h.03s.03,0,.03,0c.03,0,.07.01.09.04,0,.04,0,.05-.01.08q-.17.24-.26.26s-.04-.01-.06-.04c-.05-.08-.09-.17-.07-.27.04-.05.08-.07.15-.07h.03ZM10.91,7.16s.09.01.13.03c.07.05.11.12.15.19,0,.02.02.03.03.05.01.02.03.05.04.07-.03.04-.09.05-.14.07h-.02s-.09.04-.14.03c-.09-.05-.14-.15-.19-.24v-.02s-.03-.07-.03-.11c.04-.06.11-.08.18-.08M14.42,7.71s.06,0,.08.02c.04.03.07.05.09.1,0,.06,0,.11-.02.16-.03.04-.06.06-.11.06-.09,0-.13-.02-.2-.08t-.05-.07c.02-.07.06-.13.12-.17.03,0,.06-.01.08-.01h0ZM12.43,7.99s.01,0,.02,0c.03,0,.04.02.05.04.02.05,0,.1,0,.15-.02.04-.03.07-.07.09t-.04,0s-.06-.08-.06-.14c0-.05.01-.08.05-.11.02-.01.04-.02.06-.02M11.78,8.11c.08,0,.16.05.22.11.03.03.04.05.04.09v.03s-.05.02-.08.02c-.09-.02-.16-.09-.21-.16-.01-.03,0-.05,0-.08t.03-.01h0ZM12.81,8.14c.06.01.09.04.12.09.02.03.04.06.05.09v.02c.05.06.06.13.04.2-.02.03-.03.04-.06.05-.07.01-.13-.04-.19-.08-.05-.04-.07-.08-.08-.13,0-.08.03-.16.09-.22l.02-.02ZM13.18,8.35s.04,0,.07.03c.05.06.06.12.05.2t-.02.04s-.05,0-.08-.02c-.04-.04-.05-.09-.05-.15,0-.04,0-.08.04-.11M10.85,8.57c.15,0,.29.02.39.09t.02.05c-.02.07-.09.11-.15.14-.16.08-.32.15-.5.16h-.03q-.06,0-.1-.02s-.05-.06-.06-.09v-.02q-.09-.17-.09-.21s0-.01.02-.02h.02s.02-.01.02-.01h.02s.03-.02.03-.02c.11-.03.26-.05.4-.05h0ZM14.46,9.1c.07,0,.13.02.18.05.03.03.03.06.03.1,0,.04-.03.06-.06.09v.02c-.08.07-.17.12-.28.13-.02,0-.03,0-.05,0h-.02c-.1,0-.17-.03-.25-.1-.02-.03-.02-.04-.02-.07.09-.12.28-.22.45-.22h0ZM15.21,9.26s.03,0,.05.01c.06.03.15.07.18.13,0,.05,0,.08-.04.12h-.01q-.12.17-.18.19c-.13,0-.28-.01-.38-.1t-.01-.04c.05-.13.21-.24.33-.3.02,0,.04-.01.05-.01h0ZM11.45,9.49c.07,0,.13.02.18.08.08.1.07.23.05.35,0,.04-.02.07-.04.1-.03.01-.05.01-.09,0-.12-.09-.15-.3-.17-.43,0-.02,0-.05,0-.07.02-.02.03-.02.07-.02h0ZM12.5,9.57s.01,0,.02,0c.1,0,.23.02.32.08-.01.04-.03.07-.06.11v.02s-.07.09-.11.14v.02s-.06.06-.09.08q-.11-.33-.12-.43s.02-.01.03-.01M12.01,9.67s.09.01.13.05c.04.04.06.07.06.12v.03s0,.03,0,.03c0,.03-.01.05-.04.07t-.06,0c-.07-.06-.12-.16-.14-.25t0-.04s.02,0,.04,0h0Z"/>
    </g>
  </g>
</svg>