<?xml version="1.0" encoding="UTF-8"?>
<svg id="Layer_2" data-name="Layer 2" xmlns="http://www.w3.org/2000/svg" viewBox="0 0 29.76 17.01">
  <defs>
    <style>
      .cls-1 {
        fill: #138140;
      }

      .cls-2, .cls-3 {
        fill: #fff;
      }

      .cls-3 {
        stroke: #fff;
        stroke-width: 0px;
      }

      .cls-4 {
        fill: #da1f26;
      }
    </style>
  </defs>
  <g id="Layer_1-2" data-name="Layer 1">
    <g>
      <path class="cls-1" d="M0,0h29.76v17.01H0V0Z"/>
      <path class="cls-4" d="M0,0h29.76v11.34H0V0Z"/>
      <path class="cls-2" d="M0,0h29.76v5.67H0V0Z"/>
      <path class="cls-4" d="M0,0h9.92v17.01H0V0Z"/>
      <path class="cls-3" d="M6.81.61s-.04.01-.05.03c0,0-.02,0-.02,0,0,0-.01.01-.02.02,0,0-.02,0-.02,0,0,0-.02.02-.02.02l-.05.08c-.04.06-.09.15-.09.16,0,.01,0,0,0,.01,0,0,0,0-.01.02,0,0-.02.02-.03.05-.02.02-.02.02-.03.05-.01.01-.02.03-.04.04-.03.04-.06.07-.09.11-.03.04-.06.08-.09.12-.05.06-.11.13-.15.18-.06.08-.11.14-.16.2l-.06.07c-.04.06-.08.09-.1.12-.04.05-.11.11-.14.17-.03.05-.07.1-.1.14l-.17.26s-.02.03-.05.07c-.01.02-.02.04-.02.06,0,0-.01,0-.02,0,0,0,0,0,0,0l-.02.03v.02s-.02,0-.02,0c0-.02-.01-.01-.01-.06,0-.05,0-.1,0-.15,0-.07,0-.14,0-.21,0-.05.02-.14,0-.17-.01-.02-.03-.03-.05-.04s-.02-.02-.03-.04c-.02-.02-.04-.04-.04-.05-.01-.02-.03-.04-.04-.06,0-.01-.02-.03-.02-.04-.05-.12-.03-.22-.03-.37,0,0,0-.01,0-.02,0-.03.02-.03.01-.04,0,0,0,0,0-.02,0,0,0,0-.01,0,0,0,.01,0,.02-.01,0,0,0-.02,0-.02,0-.02,0-.04.01-.07,0,0,0,0,0,0,0,0,0-.02.01-.03.01,0,.02,0,.02-.01,0,0,0,0,0,0,.02,0,.02-.02.03-.03,0,0,0,.01,0,.01,0,0,0-.02.01-.02,0,0,.01,0,.02,0,0,.01,0,.03,0,.03h0s.05-.04.05-.06c0-.01-.02-.04-.03-.05,0-.02,0-.02-.02-.03,0-.01-.01-.02-.03-.02h0s0-.02,0-.02c0,0-.01-.01-.02-.01h0s0,0,0,0c0-.02,0-.05-.02-.05h0s0,0,0,0c0,0,0-.01,0-.02,0,0-.01,0-.02,0,0,0,0,0,0-.01h0s0,0,0,0c0,0-.02,0-.02,0,0-.02,0-.04-.03-.04,0,0-.01,0-.02,0,0,0-.01,0-.02,0,0,0-.02,0-.03,0,0,0-.01-.02-.03-.02,0,0,0,0,0,0,0-.03-.02-.03-.03-.03s-.03,0-.03.03c0,0,0,0,.01.01-.01,0-.03,0-.03.02-.02,0-.03,0-.05.01h0s-.02,0-.03,0c-.02-.01-.03.01,0,.03h0s-.02,0-.02,0c0,0,0,.02,0,.02,0,0,0,0,0,0-.02,0-.03,0-.03.03-.02,0-.02.02-.02.04,0,0,0,0,0,0-.03,0-.03.02-.03.04,0,0,0,.01,0,.02,0,0,0,0,0,0-.02,0-.03.01-.03.03-.03.02-.04.07-.03.09,0,0,.02.03.03.03.01,0,.02-.02.03-.03,0,0,0,0,0,0,0,.01.02.02.03.02,0,0,0,0,0-.01,0,0,0,.02.02.02,0,0,0,0,0,0,0,0,0,0,.01.01,0,0,0,.01,0,.02.02.02.03.01.04,0,0,.05,0,.11.01.12,0,0,0,0,0,0,0,0-.01.01,0,.03,0,0,0,0,0,0,0,0,0,0,0,0,0,0,0,.02.02.02,0,0,0,0,0,.02v.03c0,.08,0,.14,0,.2v.03s0,0,0,0c0,.02,0,.03,0,.05,0,.03,0,.07-.01.1,0,.01-.01.03-.03.05,0,.02-.04.05-.06.08-.01.01-.02.03-.04.05-.01,0-.02.01-.03.01-.02,0-.03.03-.03.05,0,.03,0,.12,0,.14,0,.14,0,.36,0,.5,0,.02,0,.04,0,.05v.04s0-.02-.01-.02c-.07-.11-.08-.12-.09-.14,0,0,0-.01,0-.02,0,0,0-.01-.01-.02-.04-.07-.23-.36-.24-.38-.01-.02-.03-.05-.05-.09l-.02-.03v-.02s-.03-.03-.05-.07c0-.01-.02-.02-.03-.04,0,0-.01-.01-.03-.04-.03-.04-.07-.08-.1-.12l-.06-.07c-.05-.07-.14-.16-.21-.25,0-.01-.02-.02-.03-.03-.02-.03-.07-.09-.09-.12-.03-.04-.06-.08-.09-.11,0,0-.03-.03-.03-.05-.02-.04-.03-.05-.06-.08,0,0,0-.01,0-.02,0-.01,0-.01-.02-.03,0-.01-.02-.02-.02-.03,0,0,0-.01-.01-.02,0,0,0-.02-.02-.02,0,0,0-.02-.02-.03,0-.01-.01-.02-.02-.02,0,0,0-.01,0-.02,0,0,0,0,0-.02,0-.02-.1-.18-.13-.22-.01-.02-.02-.03-.04-.04,0,0,0,0,0,0,0,0,0,0,0-.01h0s0,0,0,0c0,0-.02-.02-.03-.02h0s0,.01-.02.01c0,0,0,0,0,0-.02-.01-.03-.02-.05-.03h0s-.04.02-.04.04c0,0,0,.02,0,.04,0,0-.02.01-.02.02h0s0,.02,0,.02c0,0,0,.03,0,.03,0,0,0,0,.01,0,0,0,0,.02,0,.02.01.03.08.12.13.19.02.02.04.04.06.04,0,.01.01.02.02.02,0,0,0,0,0,.01,0,0,0,0,0,0,0,0,0,0,.01.01,0,0,0,0,0,0,0,0,0,.02,0,.02,0,.01.01.02.02.03,0,0,0,.02.01.03h0s.04.07.06.1c.06.1.09.19.14.28.02.04.04.07.06.11.09.17.13.27.19.41.03.05.05.1.07.14.03.06.07.12.09.16.01.02.03.04.04.06,0,.01,0,.02.01.03.06.11.13.21.2.32l.03.04.02.03s0,0,0,0c0,0,0,0,.02,0,0,0,0,0,0,0,.03.06.06.1.08.13h-.02s-.01-.03-.01-.04c-.02-.02-.04-.04-.07-.05,0,0-.01,0-.02,0-.02,0-.01.01-.02.02-.01-.01-.03-.02-.04-.01-.03,0-.09.07-.09.1h-.03s0-.02,0-.02v-.05s0-.01,0-.02c0-.04,0-.02,0-.04.01-.02,0-.04-.03-.04-.03,0-.09,0-.22,0-.13,0-.3,0-.4,0h-.18s-.02.05-.02.05c0,.01,0,.02,0,.03-.01.02,0,.03,0,.05,0,.12,0,.27,0,.39,0,0,0,.01,0,.03,0,0,0,.03.01.04,0,0,0,0,.02,0,0,0,.02,0,.05,0,.05,0,.15,0,.37,0,.24,0,.38,0,.39-.01.03-.02.02-.04.01-.06,0-.02,0-.03,0-.06,0,0,.01-.01,0-.02,0,0,0,0,0,0,0-.01.03-.02.03-.04,0,0,0,0,0-.01,0,0,0,0,.02,0,.02,0,.02,0,.03,0,0,.03.02.06.05.07.02,0,.04.02.06,0h0s.03.02.04.02c.03,0,.06-.02.08-.04,0,0,0-.02,0-.03.04,0,.07,0,.09,0,0,0,.02,0,.04,0,0,0,.02,0,.03,0,0,0-.01,0-.01.02,0,0,.01,0,.02.02h0s.01.03.03.03h0s0,0,0,0l-.02.02s.03.02.05.03h0s0,0,.02,0c0,0,0,0,.01,0,0,0,0,0,0,.01,0,0,.02,0,.03,0-.02.01,0,.05,0,.06,0,.01.02.02.03.04,0,0,.02.02.03.02v.08s-.03,0-.06.02c-.04.01-.07.03-.08.03-.03,0-.06,0-.1.01-.02,0-.14.02-.17.02-.02,0-.02,0-.05,0-.01,0-.09,0-.16,0h-.15s0,.03,0,.03c0-.03,0-.03-.03-.01h0s0,0,0,0h-.01s0-.01-.02-.01c0,0-.02,0-.02,0,0,0,0,0-.01,0h0s-.03.06-.03.06h0s0,0,0,0h0s0,0,0,0c.01-.02.03-.03.02-.04h0s0,0,0,0c-.01-.01-.03,0-.04,0-.02,0-.06.04-.05.07-.03,0-.05.06-.05.09,0,.02,0,.03.02.04,0,.02,0,.04.01.06.02.02.04.02.06,0,0,.02,0,.04.01.05.02.02.03.01.05,0,0,0,0,0,0,.01,0,.01.02,0,.03,0,0,.02.02.02.03.02,0,0,0,0,0,0,0,.02.03.03.06.05.08.05.17.08.25.11,0,0,0,0,0,0-.02.02-.04.04-.06.06-.1.11-.21.22-.32.32-.07.06-.13.12-.2.19-.03.03-.06.05-.07.06-.06.05-.12.11-.18.16l-.04.03-.07.06s-.13.11-.25.2c-.04.03-.07.06-.08.07-.02.01-.03.02-.04.03-.02,0-.04,0-.06.02-.02.01-.05.04-.08.06-.03.03-.07.06-.11.08l-.08.06s-.04.03-.06.05c-.11.08-.18.16-.12.22.03.02.06.04.09.04h.03s.03,0,.05,0c.06,0,.12-.03.18-.05.06-.03.23-.12.28-.15.11-.07.25-.17.26-.2,0,0,0,0,.01-.01.04-.03.08-.06.12-.09.02-.02.05-.04.07-.05.02-.01.04-.03.05-.04.03-.03.06-.05.1-.08.09-.07.12-.1.25-.21.18-.15.36-.32.52-.49.09-.1.13-.14.18-.2,0,0,.01-.02.02-.03.01-.02.02-.03.02-.04.03,0,.06,0,.09,0,.07,0,.11,0,.23-.04h.05s.09-.05.13-.08c.03-.02.06-.05.09-.08,0,0,.02.03.03.05.11.12.22.23.33.34l.1.1c.09.08.18.17.27.25,0,0,.04.04.08.07l.08.07.14.12c.16.13.32.26.49.38.01,0,.02.02.04.02,0,.02.02.04.05.06.08.06.24.16.39.23.13.07.2.09.28.11,0,0,.03,0,.06,0,.07,0,.12-.02.14-.07.02-.04,0-.09-.03-.12-.01-.01-.02-.02-.17-.12-.09-.06-.17-.12-.25-.18-.04-.03-.06-.05-.09-.04,0,0,0,0,0,0-.04-.03-.08-.07-.12-.1-.19-.14-.37-.29-.55-.45-.09-.08-.17-.16-.26-.23-.07-.07-.2-.2-.23-.22-.15-.15-.29-.3-.43-.46-.1-.11-.13-.15-.15-.16,0,0-.01,0-.01-.01.01-.04.02-.08.03-.11,0-.11.01-.14-.02-.15,0-.01.03-.02.03-.05,0-.02,0-.04-.01-.06,0,0,0,0,0-.01,0,0,0,0,.01,0,0,0,0,0,0,0,.01,0,.02,0,.03-.01.01,0,.01,0,.02-.02.01,0,.01.01.03.01h.02s.02,0,.04,0c0,.01,0,.03.02.04.02.01.07.01.09,0h0s0,0,0,0h0s.01,0,.02,0c0,0,0,0,0,0,0,0,0,0,.01,0,0,0,0,0,.01,0,.02,0,.05-.03.06-.05,0,0,0-.01,0-.02.01,0,.02,0,.04,0h.02s0,.03,0,.05c0,.03,0,.06,0,.08,0,0,0,0,0,.02,0,.01,0,.03.02.04.01,0,.79,0,.81,0,.01,0,.03-.01.03-.03,0-.03,0-.04,0-.06,0-.02,0-.03,0-.04,0-.07,0-.12,0-.18,0-.08,0-.15,0-.16,0-.02,0-.07,0-.1,0,0,0-.02-.01-.02,0,0-.03,0-.03,0-.1,0-.2,0-.29,0-.21,0-.47,0-.49.01-.03.02-.03.04-.04.06,0,.02,0,.02,0,.04,0,.02,0,.05,0,.08-.01,0-.01,0-.02,0h-.01s0,0,0,0c0-.02-.03-.06-.05-.08-.02-.02-.04-.03-.07-.03.01-.02.02-.03.03-.05,0,0,.01-.01.01-.02,0-.02.02-.03.03-.05l.02-.03c.09-.14.19-.29.28-.44.02-.02.03-.05.04-.07.06-.1.11-.21.16-.31.02-.04.05-.09.06-.12.08-.14.14-.27.21-.39.05-.09.1-.17.14-.25.02-.03.04-.05.05-.09,0,0,.01,0,.02-.02,0-.01.02-.02.03-.05v-.02s.1-.07.2-.22c0-.01.02-.04.02-.06,0,0,0,0,0,0,0,0,.01-.01.01-.02,0,0,0-.02-.01-.03,0,0,0,0,0,0,0,0,0,0,0,0v-.03s0-.04-.01-.05c0,0-.01,0-.02-.01h0s0,0,0,0ZM6.81.63s0,0,.01,0c0,0,.01.01,0,.02,0,0,0,.02,0,.04,0,.01,0,.03,0,.03s-.02,0-.03-.02c-.01,0-.02-.01-.03-.02,0,0,0,0,0,0,0,0,0,0,0,0,0,0,.01,0,.02-.02.02-.02.03-.02.04-.02h0ZM6.74.65s0,0,0,0c0,0,0,0-.01.01-.01,0-.01,0-.01,0,0,0,.01-.01.02-.01ZM2.96.66h0s.03.01.04.02c.01,0,.02.02.02.02s-.01.01-.03.03c-.02.02-.03.02-.03.02,0-.02,0-.05,0-.07,0-.01,0-.02.02-.02ZM6.71.67s0,0,0,0c0,0-.14.24-.15.24,0,0,0,0,0,0,0,0,.05-.08.09-.15l.05-.08s0-.01.01-.01c0,0,0,0,0,0h0ZM3.03.68s0,0,.01,0c0,0,0,0,0,0,0,0,0,0-.01,0,0,0,0,0,0,0,0,0,0,0,0,0h0ZM6.73.7s0,0,0,0c.02,0,.04.02.06.04,0,0,0,.01,0,.02,0,.01-.15.22-.16.22,0,0,0,0-.01,0-.01,0-.02-.01-.03-.02-.02-.01-.02-.02-.02-.03,0-.02.02-.04.03-.06l.05-.08c.05-.07.06-.09.07-.09h0ZM3.06.7s.01,0,.02.03c.03.04.12.2.12.2,0,0,0,0-.01,0,0,0-.02-.03-.06-.1l-.05-.08s-.03-.05-.03-.05c0,0,0,0,0,0ZM3.03.72h0s.01.01.02.03c.01.02.01.03,0,.02,0,0-.01,0-.02,0,0,0-.01.01-.02.02h0s0,0,0,0h0s.02.02.02.03c0,.02,0,.02-.02.01,0,0-.01-.03,0-.04,0,0-.01,0-.01.01,0,.01,0,.02.01.03.01.02.03.02.04,0,0,0,.01-.01.02-.03,0-.02,0-.02.02,0,.07.1.1.15.1.16,0,0-.06.04-.06.04-.02-.02-.04-.05-.06-.08-.02-.03-.04-.05-.06-.08,0,0-.03-.04-.04-.06,0,0,.02-.05.05-.06.01,0,.02,0,.03,0ZM2.93.73h0s0,.01,0,.02c0,.02,0,.03,0,.02,0,0,0-.01,0-.02v-.02s0,0,0,0h0ZM6.84.73s0,0,0,0c0,.01,0,.01,0,0,0,0,0,0,0-.01,0,0,0,0,0,0h0ZM6.73.73s-.02,0-.02.01c-.02.03,0,.07.04.06,0,0,.01,0,.02-.02.01-.03-.01-.06-.04-.05h0ZM6.76.75h0s0,0,0,.02c0,.01,0,.02,0,.02,0,0-.02,0-.03,0,0,0,0,0,0,0,0,0,.03-.04.04-.04h0ZM6.83.76s0,0,0,0c0,0,0,.01-.01.03-.14.19-.16.21-.16.19,0-.01.07-.12.14-.19.02-.03.03-.03.03-.03h0ZM2.94.8s.02.02.09.12c.02.03.05.06.07.1,0,.01-.01,0-.04-.03-.06-.07-.13-.18-.13-.18,0,0,0,0,0,0h0ZM4.88.88h0s0,0,0,0c0,0,0,0,0,0s0,0,0,0c0,0,0,0,0,0ZM4.89.91s.02.01-.01.01c-.02,0-.03,0-.03,0,0,0,.03-.01.04,0h0ZM4.87.93s.06,0,.09.01c.02,0,.03,0,.04,0,0,0,0,0,.01,0,0,0,0,.02,0,.02h-.01s-.06,0-.12,0c-.09,0-.11,0-.12,0,0,0,0,0,0-.01,0,0,0,0,.01,0,0,0,0,0,.03,0,.02-.01.05-.02.08-.02h0ZM6.55.95s.08.05.08.06c0,0,0,0-.02,0-.06-.04-.08-.06-.06-.06ZM6.54.97s.09.05.09.06-.01,0-.05-.02c-.04-.02-.05-.04-.04-.04h0ZM4.99.97h0s.04,0,.04,0c0,0,0,.03,0,.06,0,.04-.02.08-.02.12,0,.04,0,.07,0,.07,0,0,0,0-.02-.02l-.02-.02v-.02s.03-.03.03-.04c.02-.1-.07-.17-.16-.13-.02.01-.03.03-.04.04,0,.02,0,.04-.01.06,0,.03.01.06.03.08h.01s-.02.04-.02.04c-.02.02-.02.02-.02.04,0,.03,0,.04.04.04h.02s0,.02,0,.02c0,.02-.01.03,0,.04,0,0,0,.01,0,.01,0,0-.04.01-.04,0,0,0-.01-.08-.01-.14,0-.09,0-.13-.03-.18-.02-.07-.02-.07,0-.08,0,0,.03,0,.15,0,.05,0,.08,0,.11,0h0ZM3.22.98s-.02.02-.05.04l-.04.02s-.01,0-.01,0c0,0,0-.01.07-.05.01,0,.03-.02.03-.01h0ZM6.52.99s0,0,.01,0c.03.01.08.05.08.06,0,0,0,0-.03-.02-.05-.04-.06-.04-.06-.05,0,0,0,0,0,0ZM4.88,1c.06,0,.1.04.1.11,0,.02,0,.03,0,.05-.03.05-.09.07-.14.04,0,0,0,0,0,0-.04-.02-.05-.06-.05-.1,0-.02,0-.02,0-.04.02-.03.05-.05.09-.05ZM5.05,1s0,.02-.01.06c-.02.07-.02.09-.03.17,0,.07,0,.09,0,.05,0-.05,0-.1,0-.16,0-.03.03-.11.03-.11,0,0,0,0,0,0h0ZM3.23,1h0s0,0,0,0c0,0-.09.07-.1.07,0,0,0,0,0,0,0-.01.05-.04.08-.06,0,0,0,0,.01,0ZM4.71,1s0,0,0,0c0,.02.03.11.04.14,0,.04,0,.12,0,.09,0-.02,0-.04,0-.05,0-.04-.02-.1-.03-.15,0-.02,0-.03,0-.03h0ZM4.87,1.01h0s-.08.05-.08.09c0,.04.02.07.06.09.03,0,.05,0,.08,0,.02,0,.02-.02.03-.03.03-.05,0-.1-.04-.13-.01,0-.03-.01-.05-.01h0ZM6.5,1.01s.1.06.09.06c0,0,0,0-.03,0-.05-.03-.08-.05-.06-.05ZM5.07,1.02s0,.02,0,.04c-.02.05-.02.09-.03.14,0,.03,0,.05,0,.05,0,0,0,0,0-.05,0-.07.02-.16.04-.19,0,0,0,0,0,0ZM3.24,1.02s0,0-.02.03c-.02.02-.07.04-.07.04,0,0,0,0,0,0,0,0,.08-.07.09-.07h0ZM4.88,1.02s.08.04.09.08c0,0,0,0,0,0,0,.04-.03.08-.07.08,0,0,0,0,0,0-.01,0-.02,0-.03,0-.02,0-.05-.05-.05-.08,0-.04.03-.07.06-.08,0,0,.01,0,.02,0h0ZM4.69,1.02s.04.1.05.19c0,.04,0,.05-.01.03,0,0,0-.02,0-.03,0-.03-.01-.09-.02-.14-.02-.06-.02-.06,0-.06ZM4.89,1.03s-.05,0-.06.04c0,.01,0,.02,0,.04,0,.04.03.06.07.06.02,0,.03,0,.04-.02.04-.04.03-.09-.01-.12,0,0-.02,0-.02,0h0ZM6.49,1.03s.01,0,.03.02c.03.02.06.04.06.05,0,0,0,0-.05-.03-.02-.01-.03-.02-.05-.04,0,0,0,0,0,0h0ZM3.25,1.04s0,.01-.05.04q-.05.03-.05.02s.09-.07.1-.06ZM4.67,1.05s.02.03.03.07c0,.03.01.11,0,.11,0,0,0,0,0,0,0,0,0-.02,0-.04,0-.04-.02-.08-.03-.12,0,0,0,0,0,0h0ZM4.87,1.05s.01,0,.02,0c.03,0,.05.03.04.06-.01.03-.04.04-.07.03-.02,0-.03-.03-.03-.05,0-.02.01-.03.03-.04,0,0,.01,0,.02,0h0ZM6.47,1.06s.09.05.09.06c.01.01,0,0-.05-.02-.05-.03-.06-.04-.05-.04ZM4.88,1.06s-.02,0-.02.01c-.01.02-.01.04,0,.05,0,0,.01.01.03.01s.02,0,.03-.01c.01-.02.01-.04,0-.05,0,0-.02-.01-.03-.01h0ZM5.08,1.06s0,.01,0,.02c0,.01-.02.11-.02.13,0,.02,0,.02-.01,0,0-.03.02-.14.03-.15,0,0,0,0,0,0h0ZM3.28,1.06s0,0-.06.04c-.04.03-.05.03-.05.02,0-.01.1-.07.11-.06h0ZM4.66,1.06s.03.07.04.12c0,.02,0,.03,0,.03,0,0,0,0-.01-.02,0,0,0-.03,0-.04,0-.01,0-.04-.01-.05,0-.03,0-.04,0-.04h0ZM5.1,1.07h0s0,0,0,0c0,0,0,.02,0,.05v.06s-.02.03-.03.03c0,0,0-.02,0-.04,0-.04.02-.1.02-.11,0,0,0,0,0,0ZM4.88,1.08s.02.02.01.02c0,.01-.03.01-.03,0,0,0,0-.02,0-.03,0,0,0,0,0,0h0ZM6.45,1.08s0,0,0,0c.01,0,.01.01,0,.02-.01,0-.02,0-.02,0,0,0,0,0,0-.01,0,0,0,0,0,0h0ZM3.28,1.09s0,.01-.04.03c-.06.04-.06.04-.06.04,0,0,.09-.07.1-.07h0ZM5.13,1.09s0,0,0,.01v.03s-.02.06-.02.06c0,0,0-.01,0-.02,0-.03.01-.07.02-.08h0ZM4.64,1.09s0,0,0,0c0,0,.02.06.03.09,0,.02,0,.02,0,.02,0,0,0,0-.01,0,0,0,0-.02,0-.03,0-.02,0-.03,0-.04,0-.02,0-.03,0-.03h0ZM5.15,1.11s0,.01,0,.04c0,.03-.01.04-.01.02,0-.01.01-.06.02-.06ZM3.3,1.11s0,0,0,0c0,0,0,0,0,.02,0,.01,0,.02-.02.01-.01,0,0-.01,0-.02,0,0,0,0,0,0h0ZM4.62,1.12s.01.02.02.05c0,.02,0,.03,0,0-.01-.06-.01-.06,0-.06ZM6.48,1.12s0,0,0,0c0,0,0,.02,0,.02,0,.01,0,.02,0,.02-.01,0-.04.01-.05,0,0,0,0-.01,0-.03,0-.01,0-.02,0-.03,0,0,.01,0,.03,0,0,0,.01,0,.02,0h0ZM6.51,1.12s0,0,.02,0c.02.01.03.02.02.02-.01,0-.03.01-.04,0,0,0,0-.03,0-.04,0,0,0,0,0,0ZM5.16,1.12s.02.03.02.04c0,.01-.01.04-.02.03h0s0-.08,0-.08h0ZM4.6,1.14s.01.04.01.05c0,0-.01.02-.02.02,0,0,0,0,0,0,0-.02,0-.07.02-.07h0ZM6.41,1.14s0,.01,0,.02c0,.02,0,.02,0,.03-.01,0-.04.01-.05.01,0,0,.04-.07.05-.06h0ZM3.25,1.15s0,.04,0,.04c0,0-.01,0-.02,0,0,0-.02,0-.02-.01.01-.01.03-.02.04-.03h0ZM3.28,1.16s.01,0,.02,0c.02,0,.02,0,.02.01,0,0,0,.01,0,.02,0,.02,0,.02-.02.01-.02,0-.02,0-.02-.03,0-.02,0-.03.01-.03ZM3.35,1.17h0s.03.04.04.06c0,0-.01,0-.03,0-.02,0-.03-.02-.03-.04,0-.01,0-.02,0-.02,0,0,0,0,0,0ZM6.52,1.17s.01,0,0,.03c0,.02-.02.02-.02,0,0-.01,0-.03.02-.03h0ZM6.48,1.19s.01.02,0,.04c0,.02,0,.02-.02.03-.02.01-.03.01-.04,0,0-.01,0-.02,0-.04v-.03s.02,0,.02,0c.01,0,.03,0,.03,0h0ZM4.94,1.2s.03,0,.03.02c.01.02.01.02,0,.04,0,.01-.01.01-.02.01h-.03s-.02-.01-.02-.02c0,0,0,0-.02,0-.02.01-.01.04.01.03.01,0,.02,0,.03.02.01.02.02.02.01.03,0,.02-.01.02-.05.03t-.05,0s-.01-.02,0-.04c.01-.01.02-.02.01-.03t-.02,0s-.03,0-.04,0c-.01-.01,0-.03,0-.05.02-.02.02-.02.01,0,0,0,0,.02,0,.02,0,.01,0,.01.02.01.02,0,.02,0,.01-.02,0,0,0-.01,0-.02,0-.01,0-.01.02-.01.02,0,.02,0,.01.02,0,0,0,.01,0,.02,0,0,.01,0,.02,0,0,0,0,0,0-.02v-.02s.02,0,.02,0c0,0,.01,0,.02,0h0ZM3.23,1.21s.02.01.02.02c0,.02-.01.02-.02,0,0-.02,0-.02,0-.02,0,0,0,0,0,0ZM6.41,1.21s0,.02,0,.04c0,.03,0,.03-.01.04,0,0-.02,0-.03,0h-.02s0-.03,0-.03c0-.03,0-.03,0-.04.01,0,.05-.02.05-.01h0ZM4.94,1.22s-.01,0,0,.01c0,.01,0,.01,0,.02-.01.01,0,.02.01.02.01,0,.02,0,.02-.01,0-.02,0-.04-.02-.04ZM3.27,1.22s0,0,.02,0h.02v.04s0,.03,0,.04c0,0-.03,0-.04,0-.01,0-.01-.01-.01-.04,0-.02,0-.03,0-.04,0,0,0,0,0,0h0ZM6.33,1.24s0,.03,0,.05c0,.01,0,.02-.02.02-.02,0-.04.01-.04,0,0,0,.06-.08.06-.08ZM3.33,1.25h0s.05,0,.05.01c0,0,0,.02,0,.04,0,.04,0,.04-.04.03,0,0-.02,0-.03-.01,0-.02,0-.05,0-.07ZM4.99,1.27h0s0,0,0,0c0,.01,0,.08,0,.09,0,0,0,0-.02,0,0,0-.02,0-.02,0,0,0,0,0,0-.02,0-.02,0-.05-.01-.05,0,0,0,0,0,0,0,0,0,0,.01,0,.02,0,.03,0,.04-.02,0,0,0,0,0,0h0ZM3.41,1.27s.07.08.07.09c0,0-.01,0-.02,0h-.03s-.03-.02-.03-.02c0-.01,0-.07,0-.07h0ZM4.89,1.28h0s0,0,0,0,0,0,0,0c0,0,0,0,0,0,0,0,0,0,0,0ZM6.46,1.28s0,0,0,.03c-.01.02-.01.02-.02,0,0-.02,0-.03.01-.03,0,0,.01,0,.01,0h0ZM6.42,1.3v.03c0,.05,0,.07-.03.08-.02,0-.02,0-.03,0,0-.02,0-.03,0-.05v-.04s.01,0,.01,0c.01,0,.02,0,.03-.01h.02ZM4.89,1.31s-.02.01-.02.02c0,0,.01,0,.02,0,0,0,.01,0,.01-.02s0-.01-.01-.01ZM6.33,1.32h0s0,0,0,0c0,.02,0,.09,0,.09-.01,0-.02,0-.03.01h-.04s0,0-.01,0c0-.03,0-.06,0-.08,0-.01.03-.03.07-.03,0,0,.01,0,.01,0ZM3.29,1.33s.02.02.02.03c0,0,0,0-.02,0,0-.01,0-.02,0-.02ZM3.33,1.34s.05.01.06.02c0,0,0,.02,0,.04,0,.04,0,.04-.01.04,0,0-.02,0-.02,0-.03-.02-.04-.04-.03-.08,0-.01,0-.01.01-.01ZM3.41,1.37s.01,0,.03,0h.04s.01.01.01.01v.04c0,.05,0,.05-.04.04-.05-.01-.05-.01-.05-.06,0-.02,0-.04,0-.04h0ZM6.23,1.37s0,.02,0,.04v.04h-.02s-.06.03-.07.03c0,0,0,0,0,0,0,0,.08-.11.09-.1ZM4.93,1.38s.06,0,.06.01c0,0,0,0-.02,0-.06,0-.11,0-.17.01,0,0,0,0-.01,0,0,0,.02-.02.04-.02.03,0,.07,0,.1,0h0ZM3.51,1.4s.08.09.08.1c0,0-.01,0-.03,0,0,0-.02,0-.03-.01h-.02v-.05s0-.04,0-.04ZM4.91,1.41s.05,0,.07,0c.01,0,.01,0-.04,0-.03,0-.06,0-.09,0-.05.01-.05.01-.05,0,0,0,0,0,.04-.02.02,0,.05,0,.08,0h0ZM4.91,1.43s0,0,0,0c0,0-.07.01-.09.01-.01,0-.01,0,0,0,.03,0,.06-.01.09-.01h0ZM6.38,1.43s0,0,0,.02c-.01.02-.02.02-.02,0,0-.01,0-.02.01-.02,0,0,0,0,0,0h0ZM6.33,1.44s0,0,0,0c0,0,0,.02,0,.04,0,.03,0,.04-.01.05,0,.01-.02.02-.02.02h-.03s-.02.01-.03,0c0,0,0-.03,0-.05v-.05s.02,0,.02,0c.02,0,.03,0,.04-.01,0,0,.01,0,.02,0h0ZM3.36,1.46s.02,0,.01.02v.02s-.01-.02-.01-.02c-.01-.02-.01-.02,0-.02ZM6.22,1.47s0,0,.01.02c0,.04,0,.08,0,.09,0,0-.09.03-.1.03,0,0,0,0,0-.02,0-.01,0-.04,0-.05v-.03s.04-.02.04-.02c.02,0,.03-.01.05-.01h0ZM3.4,1.47h0s.03,0,.04,0h.04s0,.03,0,.03c0,0,0,.03,0,.05,0,.01,0,.03,0,.04,0,.01-.02.01-.04,0-.01,0-.02-.01-.03-.04-.01-.03-.02-.03-.01-.06,0-.02,0-.03,0-.03ZM4.9,1.5h0s0,.04,0,.03c0,0,.01,0,.02,0,.02,0,.01,0,0-.01,0,0,0,0,.01,0,.01,0,.03,0,.04,0h.02s0,.04,0,.04c0,.02,0,.04,0,.04-.02,0-.03,0-.05,0-.03,0-.06,0-.08,0-.06,0-.06,0-.06,0,0,0,0-.01,0,0,.01,0,.02,0,.04,0,.01-.01,0-.01,0,0-.01,0-.01,0-.02,0,0,0-.01,0-.01,0s0,0,0-.02c0-.01,0-.02,0-.02.02,0,.05-.01.07-.01h.03ZM3.51,1.51s.08.03.09.03c0,0,0,.03,0,.06,0,.04,0,.05,0,.05-.03,0-.06-.02-.09-.03h-.01s0-.06,0-.06c0-.03,0-.06,0-.06h0ZM6.11,1.51s0,.1,0,.1c-.03.01-.07.02-.1.04,0,0,0,0,0,0,0,0,.1-.13.11-.13h0ZM4.84,1.52s0,0,0,0c0,0,0,0,0,.01,0,0,0,0,0,0,0,0,.01,0,.02,0h.01s0,0,0,0c0,0,0,0,0,0h0ZM4.9,1.54s0,0,0,0c0,0-.02.02-.02.02,0,0,0,0,0,0,.01,0,.02,0,.02,0,0,0,0-.01,0-.02,0,0,0,0,0,0h0ZM4.95,1.54s0,0,0,0c0,0-.01,0-.02.01h-.01s.01,0,.01,0c0,0,.01,0,.02,0,0,0,0,0,0-.01,0,0,0,0,0,0h0ZM3.62,1.55s.11.12.11.14-.01.01-.06,0c-.02,0-.05-.02-.05-.02,0,0,0-.02,0-.06,0-.05,0-.05,0-.05h0ZM6.29,1.58s.01,0,0,.01c0,.01-.03.06-.03.06,0,0,0,0,0,0,0,0,0-.02,0-.03,0-.02,0-.03,0-.03,0,0,.02,0,.02,0h0ZM4.89,1.6s.06,0,.07,0c.03,0,.01.01-.05.01-.04,0-.08,0-.09,0-.03,0-.03,0-.03,0,0,0,0,0,.02-.01.01,0,.05,0,.08,0ZM6.24,1.6h0s0,.02,0,.04c0,.05,0,.05-.01.07v.03s-.05.01-.05.01c-.04.01-.04.01-.05,0,0-.02,0-.04,0-.07,0-.07,0-.07.05-.08.03,0,.05-.01.05,0h0ZM4.9,1.62c.06,0,.08,0,.08.02,0,0-.02,0-.07,0-.04,0-.08,0-.1,0-.03,0-.03,0-.03,0,0-.01.04-.02.11-.02h0ZM3.44,1.63s0,0,.02,0c.02,0,.02.02.01.04,0,.02,0,.01-.02-.01,0-.01-.01-.03,0-.03h0ZM6.11,1.64s0,.04,0,.1v.03s-.02,0-.02,0c-.02,0-.08.03-.09.03,0,0,0,0-.01-.02,0-.02,0-.04,0-.07v-.04s.06-.02.06-.02c.03-.01.06-.02.06-.02ZM3.5,1.64s.04,0,.08.02h.02s0,.05,0,.05c0,.05,0,.09,0,.09,0,0-.02,0-.04-.01-.03-.01-.03-.01-.05-.04v-.03s0-.04,0-.04c0-.02,0-.04,0-.04ZM4.89,1.65c.07,0,.09,0,.09.01,0,0,0,0-.02,0-.05,0-.13,0-.16,0,0,0,0,0,0,0,0-.01.02-.02.09-.02ZM4.89,1.67s0,0,0,0c0,0,0,0,0,0,0,0,0,0,0,0,0,0,0,0,0,0ZM4.87,1.67s0,0,0,0c0,0,0,0,0,0,0,0,0,0,0,0,0,0,0,0,0,0ZM4.92,1.67s0,0,0,0,0,0,0,0c0,0,0,0,0,0,0,0,0,0,0,0ZM4.95,1.67s0,0,0,0c0,0,0,0,0,0s0,0,0,0,0,0,0,0ZM4.99,1.68h0s0,0,0,0c0,0,0,0,0,0h0ZM4.81,1.68s0,0,0,0,0,0,0,0c0,0,0,0,0,0,0,0,0,0,0,0ZM3.62,1.68s.1.03.1.04c0,0,0,.11,0,.12,0,0-.01,0-.06-.01-.03,0-.05-.02-.05-.02,0,0,0-.12,0-.13ZM5.98,1.69h0s0,.03,0,.06c0,.05,0,.06-.01.06,0,0-.03.01-.06.02-.03,0-.05.02-.05.02,0,0,0,0,0,0,0,0,0-.01,0-.02,0-.01,0-.02.03-.05l.06-.07s.03-.03.03-.03ZM4.89,1.7c.06,0,.07,0,.09,0,.03.02.01.02-.05.01-.03,0-.05,0-.08,0-.06,0-.06,0-.06,0,0,0,0-.01.02-.01.01,0,.03,0,.09,0ZM3.76,1.73s.03.03.07.07l.05.06v.02s0,.02,0,.02c0,0-.01,0-.02,0-.01,0-.04-.01-.06-.02l-.04-.02v-.06s0-.06,0-.07c0,0,0,0,0,0h0ZM4.89,1.73s.09,0,.1.02c0,0,0,0-.02,0-.05,0-.09,0-.14,0-.03,0-.03,0-.02,0,.01,0,.05-.02.1-.02ZM4.86,1.75h.03s.03,0,.05,0c0,0,0,.01,0,.02,0,.01,0,.02-.02.03-.01.01-.01.02-.01.02,0,0,0,.01.01,0,.04-.01.06,0,.07.02,0,.04-.02.07-.05.06,0,0,0,0,.01-.01.01,0,.02-.01.02-.02.01-.02,0-.05-.02-.05-.02,0-.02.01-.01.02,0,0,0,.02,0,.04-.01.01-.01.01-.04.01-.02,0-.03,0-.08.01,0,0-.01,0-.02,0-.01,0-.03-.03-.03-.04,0-.02.01-.04.03-.04.01,0,.02,0,.04,0,0,0,0,0,0-.01,0,0,0-.01,0-.01-.01,0-.02-.02-.02-.04,0-.02,0-.03.03-.03h0ZM4.89,1.76s-.02.02-.02.03c0,.02.03.04.05.02,0,0,0-.01,0-.02,0-.01-.01-.02-.03-.02h0ZM4.98,1.76s.02.02.02.05c0,.01,0,.03,0,.03,0,0,0,0-.01,0,0,0-.02,0-.04,0-.01,0-.02,0-.02,0,0,0,0,0,.01-.02,0,0,.01-.02.02-.03,0,0,0-.02.01-.02,0,0,0,0,0,0h0ZM4.82,1.76s0,0,0,.01c0,0,0,.02,0,.03,0,0,0,.02,0,.02,0,0,0,0-.02,0,0,0-.02,0-.03.01,0,0-.01,0-.01,0,0-.03,0-.05,0-.08,0,0,.01,0,.02,0,0,0,.01,0,.01,0ZM6.2,1.77s0,0,0,0c0,0-.02.06-.04.08-.01.02-.01.02-.02,0,0,0,0-.02,0-.04v-.03s.01,0,.01,0c.01,0,.02,0,.03,0,0,0,0,0,.01,0h0ZM4.89,1.78s0,0,0,0,0,0,0,0,0,0,0,0,0,0,0,0ZM6.11,1.79s0,0,0,.03c0,.02,0,.04,0,.06,0,.03,0,.03,0,.05,0,.01-.01.02-.06.03-.05.02-.06.02-.06.01,0,0-.01-.06-.01-.1,0-.05,0-.05.06-.06.03,0,.04-.01.05-.01ZM3.53,1.8h0s0,0,.01,0c.05.01.05.02.04.06,0,.02,0,.03,0,.03s-.01-.02-.02-.04c0-.02-.02-.03-.02-.05,0,0,0-.01,0-.01ZM4.89,1.82s-.01,0-.01.02c0,.01,0,.02.02.02,0,0,.01,0,.01-.01,0,0,0-.01,0-.02,0,0,0,0,0,0h0ZM3.62,1.83s.04.01.06.02c.05.02.05.02.05.03,0,.01,0,.08-.01.11,0,.02,0,.03-.04.01-.08-.03-.08-.04-.07-.13,0-.04,0-.05.01-.05ZM4.89,1.83s0,0,0,0c0,0-.01,0-.01,0,0,0,0,0,0,0ZM5.98,1.84h0s0,.03,0,.05c0,.02,0,.05,0,.07,0,.03,0,.03-.06.05l-.05.02s0,0,0,0c0,0-.01-.09-.02-.12v-.02s.02-.01.02-.01c.03-.02.1-.04.1-.03h0ZM5.84,1.85s0,.02-.02.02c0,0,0,0,0,0,0-.01.02-.02.02-.02ZM4.81,1.86s-.02.03,0,.05c0,.01.02.02.03.02,0,0,0,0,0-.03,0-.01,0-.02,0-.03,0,0-.01,0-.02,0ZM5.02,1.87s0,0,0,.01c.01.02.03.05.04.07.01.02.03.03.04.05.03.03.03.04.02.04-.04,0-.04,0-.06,0,0,0-.02.02-.02.02,0,.02-.01.01-.01-.01,0-.01,0-.02,0-.04,0-.02-.02-.04-.04-.06l-.02-.02.02-.02s.02-.02.02-.04c0-.01,0-.02,0-.02h0ZM4.89,1.87s-.01,0-.01.01c0,.02.02.03.03.01,0,0,0-.02-.02-.02h0ZM3.75,1.88s.08.02.12.04c0,0,0,.02,0,.06,0,.06-.01.09-.02.09,0,0-.02,0-.04-.02-.02,0-.04-.02-.06-.02h-.02s0-.04,0-.04c0-.06.01-.11.02-.11h0ZM5.84,1.89s0,.07.01.1c0,.03,0,.03-.03,0-.03-.02-.07-.05-.07-.05,0,0,.01-.02.03-.03.02-.01.06-.03.07-.03h0ZM3.9,1.89s0,0,.02.01c.02.02.02.02,0,.01-.01,0-.02-.02-.01-.03ZM4.76,1.89s0,0,0,0c0,.01.01.02.02.03l.02.02s0,0-.01.02c-.02.02-.03.04-.03.06,0,.01,0,.02,0,.03v.03s-.01-.01-.01-.01c0,0,0-.01,0-.02,0-.01,0-.02-.04-.02-.02,0-.03,0-.05.01-.01,0,0,0,.03-.04.02-.03.05-.07.06-.08,0-.01.01-.02.02-.03h0ZM4.88,1.93c.05,0,.1.02.13.07,0,0,0,.02,0,.02,0,.03,0,.06,0,.09,0,0-.02.04-.03.05,0,.01-.02.02-.03.03-.02.01-.03.02-.06.02-.04,0-.05,0-.06-.01-.01,0-.03-.02-.04-.03-.02-.01-.03-.03-.03-.05,0-.02,0-.05,0-.07,0-.02.01-.04.03-.06.02-.03.05-.04.08-.04h0ZM3.9,1.93h.02s.06.04.07.05c0,0,0,.02,0,.02l-.11.07s0,0,0-.02c0-.04,0-.07.02-.11h0ZM4.9,1.95s-.03,0-.05,0c-.03.01-.05.03-.06.06-.01.02-.01.08,0,.11.03.06.1.08.16.06,0,0,0,0,0,0,.09-.04.09-.18,0-.22-.02,0-.03-.01-.05-.01ZM4.89,1.95c.06,0,.11.05.11.11,0,.03,0,.06-.03.08-.03.04-.09.05-.13.03-.06-.03-.08-.1-.05-.16.02-.04.06-.07.1-.07ZM4.91,1.96s-.06,0-.08.03c-.02.02-.02.03-.03.05-.01.06.01.1.06.12.02,0,.03,0,.06,0,.03-.01.06-.04.06-.07,0-.03,0-.05-.01-.08-.01-.03-.04-.05-.07-.05h0ZM6.1,1.96s-.03.08-.05.12v.02s-.02-.01-.02-.01c0-.02-.02-.06-.02-.08s0-.02.02-.03c.05-.02.06-.02.06-.02ZM5.72,1.97h0s.02,0,.05.03c.14.09.24.15.24.16,0,0,0,.02-.01.02-.1-.06-.19-.12-.29-.19,0,0,0,0,0-.01,0,0,0,0,0,0h0ZM4.9,1.98s.05.01.06.03c.02.03.02.09,0,.11-.02.02-.05.03-.08.03-.03,0-.06-.04-.06-.07,0-.03,0-.05.03-.08.01-.02.04-.03.06-.03ZM4.88,2s-.03.01-.04.03c0,.01,0,.02,0,.04,0,.03.01.05.03.06.02,0,.05,0,.07,0,.03-.02.04-.06.02-.09-.01-.02-.03-.04-.06-.04,0,0-.01,0-.02,0ZM4.89,2s.03,0,.04.02c.02.02.03.04.02.07-.02.03-.05.05-.08.03-.02,0-.03-.03-.03-.05,0,0,0-.02,0-.03,0-.02.02-.03.05-.03ZM5.7,2s.01.01-.01.03c-.02.02-.03.02-.03.02,0,0,0-.01.02-.03.01-.02.02-.02.03-.02h0ZM6,2.01v.04c.03.08.03.08-.01.06-.06-.04-.09-.06-.09-.06,0,0,.07-.04.08-.04,0,0,.02,0,.02,0ZM3.63,2.01s0,0,0,0c0,0,.02,0,.03.01h.03v.04s0,.07-.02.07c-.01-.02-.02-.04-.03-.06-.01-.03-.03-.06-.03-.06,0,0,0,0,0,0h0ZM4.9,2.01s-.02,0-.03.02c-.02.02-.02.05,0,.07.02.02.04.02.06,0,.01,0,.02-.01.02-.03,0-.02,0-.03-.01-.04-.01-.01-.02-.02-.03-.02h0ZM4.02,2.02s0,.02-.04.04l-.15.09s-.07.05-.11.07c0,0,0,0,0,0,0,0,0-.02.09-.07.14-.09.21-.13.21-.13h0ZM5.74,2.03s.08.04.08.05c0,0-.03.03-.06.05-.02.01-.03.01-.03,0,0,0,0-.1,0-.1ZM5.11,2.04s0,0,0,.01c0,.02,0,.02-.02,0,0-.01,0-.02,0-.02ZM5.16,2.04s.01,0,.02.01h.02s0,.08,0,.08c0,.04,0,.07,0,.07,0,0-.04.01-.14.02-.06,0-.36.01-.43,0-.01,0-.02,0-.03,0,0,0-.01-.11,0-.14,0-.01,0-.02.02-.03,0,0,.02,0,.02,0,0,0,0,0,0,0,0,0,0,.05,0,.06,0,.01.03.02.06.03.02,0,.03,0,.04,0,0,0,.01,0,.01-.01s0,0,0,0,.01,0,.02,0c0,0,0-.01,0-.02,0-.02,0-.02.02,0,.02.03.04.06.07.07.04.02.08.01.12,0,0,0,.03-.02.04-.03,0,0,.02-.03.03-.04,0-.01.01-.02.01-.02,0,0,.01.02.01.02,0,.02.01.02.02.03,0,0,.02,0,.02,0,0,0,.02,0,.03,0,0,0,.01,0,.02,0,.01,0,.03-.01.03-.02,0,0,0-.02,0-.03v-.02s0-.01,0-.01c0-.01-.02-.03,0-.03ZM3.73,2.05s.02,0,.04.01l.05.02s.02,0,.02.01c0,0-.12.08-.13.08,0,0,0-.01,0-.03,0-.03.02-.1.02-.1h0ZM5.71,2.05s0,0,0,.02c0,.03,0,.06-.01.08,0,0-.02,0-.04-.02-.02-.01-.03-.02-.03-.03,0,0,.07-.05.08-.05h0ZM5.14,2.05s0,0,0,0c0,0,0,.01,0,.02-.01.01-.02.01-.02,0,0,0,0-.01,0-.02,0,0,0,0,0,0ZM4.71,2.05s0,0,.01,0c0,0,0,.02-.02.02,0,0,0,0-.01,0,0-.01,0-.02.02-.02ZM4.9,2.05s0,0,0,0c0,.01,0,.02-.01.02-.01,0-.01,0-.01-.01s0-.02.02-.02h0ZM4.04,2.05h0s0,0,0,0c.01.02.03.04.03.06,0,0-.01,0-.02,0-.01,0-.03-.02-.04-.02-.01,0-.01-.01,0-.02,0,0,0,0,.02-.01,0,0,0,0,0,0h0ZM4.67,2.05s.02,0,.02.02c0,.01,0,.01-.02,0-.01-.01,0-.02,0-.02h0ZM5.08,2.05s.01.01.01.02c0,0,0,0-.02,0-.01,0,0-.02,0-.02h0ZM4.63,2.08s.03,0,.03.02c0,0-.03.01-.03,0,0,0,0-.02,0-.02h0ZM3.99,2.08h0s.01.06,0,.09v.02s-.02-.01-.02-.01c-.03-.02-.07-.04-.07-.05,0,0,.06-.05.08-.05h0ZM4.72,2.08s0,0,.01,0c0,0-.02.01-.03,0,0,0,0,0,0-.01,0,0,.01,0,.02,0h0ZM5.06,2.08s0,0,0,0h0s0,0,0,0c0,0-.02,0-.03,0,0,0,0,0,0,0,0,0,0,0,0,0ZM5.16,2.09h0s0,0,0,0c0,0-.02.01-.03,0,0,0,0,0,0,0,0,0,.01,0,.02,0h0ZM5.11,2.1s0,0,0,0c0,0,0,0,0,0,0,0,0,0,0,0,0,0,0,0,0,0ZM4.01,2.1s.08.05.08.05c-.02.02-.05.04-.07.05,0,0,0,0,0,0,0,0,0-.03,0-.05,0-.04,0-.05,0-.05ZM5.85,2.1s.07.04.07.05c0,0-.07.06-.08.06,0-.01,0-.03,0-.04,0-.04,0-.06,0-.07ZM5.08,2.11s.02.01,0,.03c0,0-.01,0-.02,0,0,0,0-.02,0-.03,0,0,0,0,.01,0h0ZM5.83,2.11s0,.11,0,.11c0,0-.02-.01-.04-.02-.01,0-.03-.02-.04-.03,0,0,0,0,.01-.02.03-.02.07-.05.07-.04h0ZM4.72,2.11s.01,0,.02,0c.01,0,.01.01,0,.02,0,0-.02,0-.03,0,0,0,0-.01,0-.01,0,0,0,0,0,0h0ZM4.65,2.11s0,0,0,.01c0,0-.02,0-.02,0,0,0,0-.01.02-.02,0,0,0,0,0,0h0ZM5.13,2.11s.03.01.02.02c0,.01-.02.01-.03,0,0,0,0-.01,0-.02,0,0,0,0,0,0ZM5.61,2.12s.05.02.07.04l.15.1s.06.04.09.06c0,.02-.02.02-.03.01,0,0-.04-.02-.07-.05-.1-.06-.21-.14-.21-.14,0,0,0-.02,0-.02ZM4.67,2.12s0,.01,0,.03c0,.01-.01.01-.02,0,0,0,0,0,0-.01,0,0,.01-.02.02-.02ZM4.69,2.13h0s0,0,.01.01c0,.01,0,.01,0,.02,0,0-.01,0-.02,0,0,0,0-.03,0-.03ZM5.1,2.13s0,0,0,0c0,0,0,0,0,.01,0,0-.01,0-.02,0,0,0,0-.02,0-.02h0ZM5.59,2.15s.13.07.21.13c.08.05.09.06.09.07,0,.01,0,.01-.02,0-.07-.05-.14-.09-.22-.14-.05-.03-.07-.05-.07-.06,0,0,0-.01,0-.01ZM3.88,2.15s0,.03,0,.06c0,.04,0,.05,0,.05,0,0-.02,0-.03-.02-.01,0-.03-.02-.04-.03h-.01s.01-.02.01-.02c.02-.02.07-.05.07-.04ZM3.9,2.16s.02,0,.06.03l.03.02h0s-.02.03-.04.04l-.03.02v-.02s0-.03,0-.06c0-.01,0-.03,0-.04ZM4.11,2.16h0s0,.03-.02.04c-.1.06-.19.12-.29.17,0,0,0,0,0,0,0-.01,0-.02.01-.03.03-.02.07-.04.1-.06.05-.03.11-.07.14-.08l.06-.03ZM5.96,2.17s.02.02.03.03c0,.01-.03.06-.04.06,0,0,0-.01,0-.04,0-.02,0-.04,0-.05,0,0,0,0,0,0h0ZM5.93,2.18s0,.1,0,.1c0,0-.02,0-.04-.02-.01,0-.02-.02-.04-.03.03-.02.05-.04.08-.06h0ZM5.58,2.18s0,0,.01,0c.04.02.25.15.27.17.01.01-.01,0-.05-.02l-.15-.1-.05-.03s-.03-.02-.03-.02h0s0,0,0,0h0ZM4.14,2.2s0,.01,0,.02c-.1.06-.2.13-.3.19,0,0,0,0,0,0,0,0,0-.01.05-.04.07-.05.15-.09.22-.14.01,0,.03-.02.04-.02ZM5.59,2.21s.02,0,.02.01c.04.03.22.14.25.16,0,0,0,0,0,0,0,0-.03-.02-.06-.04-.03-.02-.09-.06-.13-.08-.06-.04-.09-.06-.08-.06h0ZM5.55,2.21h.02s.17.12.2.14l.05.03s.03.02.03.02c0,0-.06.1-.14.22-.07.11-.08.13-.1.14h-.01s-.05-.01-.05-.01c-.03-.02-.06-.03-.08-.05l-.11-.07-.07-.04s0-.02.03-.05l.05-.07.14-.21.03-.05ZM3.76,2.22h0s0,0,0,0c0,0,0,.09,0,.09,0,0-.01-.01-.02-.02-.02-.03-.02-.05,0-.06,0,0,0,0,.01,0ZM3.79,2.23h0s.03.02.05.03c.05.04.05.03,0,.06-.04.02-.04.02-.04.02,0,0,0-.1,0-.11ZM4.15,2.23s0,0-.05.04l-.05.03-.06.04s-.08.05-.12.07c0,0,0,0,0,0,0,0,.02-.01.04-.03l.06-.04s.02-.01.03-.02c.05-.03.11-.06.16-.09h0ZM5.19,2.24s0,0,0,0c0,0,0,0,0,0,0,0,0,0,0,0,0,0,0,0,0,0ZM5.17,2.24s0,.01-.02.01c0,0,0,0,0,0,0,0,.02-.01.02,0h0ZM5.13,2.24h0s0,.01-.02.01c0,0,0,0,0,0,0,0,.02-.01.02,0ZM5.09,2.25s0,0,0,0c0,0,0,0,0,0,0,0,0,0,0,0,0,0,0,0,0,0h0ZM4.17,2.25s0,0-.04.03l-.14.09s-.08.05-.13.08c0,0,0,0,0,0,0,0,.09-.06.25-.16.02-.01.04-.02.06-.03h0ZM5.05,2.25s-.01.01-.02.01c0,0,0,0,0,0,0,0,.02-.01.02,0ZM5.56,2.25s-.03.04-.08.12l-.07.1c-.08.12-.08.12-.07.13.01,0,.02.02.03.02.02.01.04.03.07.04.07.04.14.09.15.09,0,0,.01,0,.04-.05l.1-.15c.09-.13.09-.14.09-.14-.03-.02-.07-.04-.1-.06l-.11-.07s-.03-.02-.05-.03ZM5,2.25s0,0,0,0c0,0,0,0,0,0,0,0,0,.01-.02.01,0,0,0,0,0,0,0,0,0,0,.01,0h0ZM4.63,2.26s0,0,0,0,0,0,0,0,0,0,0,0c0,0,0,0,0,0ZM4.66,2.26s0,0,0,0,0,0,0,0c0,0,0,0,0,0,0,0,0,0,0,0ZM4.71,2.26h0s0,0,0,0c0,0,0,0-.01,0,0,0,0,0,0,0,0,0,0,0,.01,0ZM4.75,2.26s0,.01,0,.02c0,0,0,0-.01,0,0,0,0-.01.02-.01h0ZM4.83,2.26s0,0,0,0c0,0-.02.01-.02,0,0,0,0,0,0,0,0,0,0,0,.01,0h0ZM4.96,2.26h0s.02,0,0,0c0,0-.01,0-.01,0,0,0,0,0,0,0h0ZM4.92,2.26s.01,0,0,0c0,0,0,0-.01,0,0,0-.01,0-.01,0,0,0,0,0,.01,0ZM4.79,2.26s0,0,0,0,0,0,0,0c0,0,0,0,0,0,0,0,0,0,0,0h0ZM4.88,2.26s0,0,0,0c0,0-.02,0-.02,0,0,0,.02-.01.02,0ZM5.2,2.26s0,0,0,.02c0,.01,0,.02-.01.02-.01,0-.01,0,0,.02,0,.01-.02.01-.03,0-.01,0-.01-.01,0-.01.02,0,0-.02-.02-.01-.01,0-.02,0-.02,0,0,0-.01,0-.02,0,0,0-.01.01-.01.02,0,0,0,.02-.02.02,0,0,0,0-.01,0,0-.01-.02-.01-.02,0,0,0,0,0,0,.01,0,0,0,0-.02,0-.01,0-.02-.01,0-.01,0,0,0,0,0,0,0,0-.01-.01-.02,0,0,0-.03,0-.03,0,.02,0,.04,0,.05,0,.03,0,.08,0,.12,0,.02,0,.05,0,.07,0h0ZM5.56,2.27h0s.04.02.16.09c.02.01.04.03.07.04.01,0,.02.01.02.02,0,0-.04.07-.08.13l-.05.08c-.05.07-.08.11-.08.11,0,0-.01,0-.02-.01-.01,0-.04-.02-.06-.04-.03-.02-.04-.03-.03-.03,0,0,.01,0,.02,0,.01,0,.02.01.03.01.03,0,.03,0,.03.02,0,0,0,0,0,.01,0,0,.01,0,.02,0,0-.02,0-.03-.04-.03-.02,0-.03,0-.03-.01,0,0,0,0,0,0,0,0,0,0,0,0,0,0-.01-.01-.02-.01,0,0-.01,0-.02,0,0,0-.02,0-.01,0,0,.01,0,0-.02-.02,0,0-.02-.02-.02-.03,0,0-.01,0-.02,0,0,0-.01.01-.01.02s0,0,0,0c0,0-.04-.03-.04-.03,0-.02.02-.03.03-.05.02-.02.03-.05.03-.05,0,0,0,0,.01,0,0,0,.01.01.02,0,0,0,.01,0,0,.01,0,0,0,.01-.02,0-.02,0-.03,0-.03.03,0,.02,0,.02-.02.02-.01,0,0,.02,0,.02.01,0,.02-.01.03-.03,0-.02.02-.03.02,0,0,0,0,.01,0,.02,0,0,.05.04.1.07.04.02.04.03.05.02.03-.04.06-.09.09-.14,0,0,.02-.02.03-.04l.02-.04h-.01s-.14-.1-.15-.1c0,0-.01.01-.02.02-.02.02-.02.02-.03.02,0,0,0,0,.01-.02.02-.01.02-.02.02-.03,0,0,0-.01,0-.02,0,0,0,0,0,0,0-.01.01-.03.03-.04h0ZM4.18,2.27s.24.37.24.38c0,0-.23.15-.29.18h-.02s-.04-.05-.04-.05c-.07-.11-.14-.22-.2-.33,0,0,.02-.01.17-.11.1-.06.14-.08.14-.08h0ZM4.62,2.28h0s.06,0,.1,0c.07,0,.07,0,.07.01,0,0,0,0,0,0,.01,0,.02,0,0,.02-.01.01-.03.01-.04,0,0,0,0,0,0-.01,0,0,0,0,0,0-.01,0-.02.02,0,.03,0,0,.04,0,.06,0,.02-.01.02-.01.03,0,.01.01.05.02.05,0,0,0,0,0,0,0,0,0,0,0,0-.01s0-.02,0-.02c0,0,0-.01,0-.01.02,0,.04,0,.06,0,0,0,0,0,0,.01,0,0-.01.01-.01.02,0,0,0,.01,0,.01,0,0,0,0,0,.01.01,0,.04,0,.04-.01,0,0,0,0,0,0,0,0-.02,0-.01-.01,0,0,.02,0,.04.01.03.02.05.02.06.02,0,0,.01,0,.02,0,0,0,.02,0,.02,0,.01,0,.02,0,.03,0,0-.01,0-.02,0-.02,0,0-.01,0-.01,0,0-.01.03,0,.05,0,.02.02.03.02.05.01,0,0,.01,0,.01,0,0,0,0,0-.07.02-.14.02-.27.02-.41.02-.09,0-.13,0-.12-.02,0,0,0,0,0,0,0,0,.04,0,.05,0,0,0,.02-.01.02-.02.02-.02.03-.02.03,0,0,0,0,.02-.01.02,0,0,0,0,0,0,0,0,.02.01.04.01.01,0,.01,0,0,0,0,0,0-.01,0-.02,0,0,0-.02,0-.02,0,0-.01,0-.03,0-.01,0-.02,0-.03,0-.02,0-.02,0-.01.01,0,.01,0,.02-.02.02-.02,0-.02,0-.02-.02,0-.01,0-.02,0,0,0,0-.01,0,0-.01,0-.01,0-.02.02-.02ZM4.83,2.28s.01,0,.01,0c0,0-.03.01-.03,0,0,0,0-.01.02-.01ZM5.57,2.29s-.01,0-.01,0c0,0,0,0,.01,0s.01,0,.01,0c0,0,0,0-.01,0h0ZM4.18,2.3s-.01,0-.03.01c-.05.03-.22.13-.23.14h-.01s.02.04.02.04c.01.02.05.08.08.13.03.04.05.08.08.13l.03.04h0s.02,0,.02,0l.06-.04.11-.07s.07-.04.07-.05c0,0-.2-.33-.21-.34h0ZM4.86,2.31s0,0,0,0c0,.01-.01.02-.03.01,0,0,0,0,0-.01,0,0,.01,0,.02,0ZM5.6,2.31s-.02,0-.02.01c0,0,0,.01,0,.02,0,0,.02,0,.02,0,0-.02.01-.02.03,0,.02.03.03.04.04.02,0-.01,0-.03,0-.02,0,0,0,0,0,.01,0,0,0,0-.02-.01-.02-.02-.02-.02-.03-.02h0ZM4.17,2.32s.06.09.06.09c.02.04.05.08.07.12.08.12.07.12.04.13-.02.01-.02.01-.03,0,0-.01-.02-.02-.03-.01,0,0-.02.02-.02.03-.02.02-.02.03-.02.01,0-.01-.01,0-.02,0,0,.01,0,.01-.02,0-.01,0-.02,0-.02,0,0,0,0,0,0,0,0,0,0,0,0,0,0,0,0,0-.03,0-.02,0-.04.01-.04.03,0,.02.02.03.03.01,0,0,0,0,0,0,0,0,0,0,0,0,0,0,.02-.01.04-.01.01,0,.03-.01.03-.02,0,0,0,0,.01,0h.01s-.02.02-.02.02c-.02.02-.1.06-.11.06,0,0-.04-.07-.09-.15-.03-.05-.07-.11-.1-.16,0,0,0-.01,0-.02,0,0,.09-.07.17-.11.05-.03.08-.05.09-.04h0ZM5.51,2.33s0,0,0,0c0,0,0,0-.01.02-.02.02-.03.03-.02.04,0,0,0,0,.01,0,0,0,0,0,0,0,0,0-.04.06-.04.06,0,0,0,0,0-.02,0-.01,0-.02,0-.02.02,0,0-.02,0-.03,0,0,.02-.04.03-.06,0,0,0-.01.01-.01ZM4.16,2.35s0,0,0,0c0,0-.02,0-.03,0-.01,0-.02,0-.03.02-.01.02-.04.04-.03.02,0,0,0,0,0,0-.02,0-.01.04,0,.04,0,0,.02-.01.03-.02.02-.03.03-.03.03-.01,0,0,0,.01,0,.01,0,0,.01-.01.01-.02,0,0,0-.01,0-.01,0,0,0,0,0,0,0,0,0,0,0,0h0ZM5.18,2.36s0,0,0,.01c-.01,0-.01,0-.02,0,0,0,0-.01.02-.01ZM5.14,2.36s0,0,0,0c0,0,0,0-.01,0,0,0,0,0,0,0,0,0,0,0,.01,0h0ZM5.1,2.37s0,0,0,0c0,0,0,0,0,0,0,0-.01,0-.01,0,0,0,0,0,0,0h0ZM5.57,2.37s.03.01.08.05l.04.03s-.13.2-.13.2c0,0-.03-.02-.06-.04-.06-.04-.07-.05-.07-.06,0-.01.13-.19.13-.19h0ZM5.68,2.37h0s-.02.02,0,.03c0,0,.01,0,.03,0,.03,0,.04,0,.04.01,0,0,0,0-.01,0-.02,0-.01.02,0,.02,0,0,0,0,.01,0,0,0,0-.03,0-.03,0,0-.02,0-.04,0-.03,0-.05,0-.04-.02,0,0,0,0,0,0,0,0,0,0,0,0,0,0,0,0-.01,0h0ZM4.19,2.37s0,0-.01,0c0,.01,0,.02.02.04s.03.03.01.03c0,0,0,0,0,0,0,0,.02,0,.02,0,0-.01,0-.03-.02-.04-.02-.01-.02-.02-.02-.02,0,0,0-.01,0-.01h0ZM5.07,2.37s0,0,0,0c0,0,0,0,0,0,0,0,0,0,0,0,0,0,0,0,0,0ZM5.03,2.37s0,0,0,0c0,0,0,0,0,0,0,0,0,0,0,0s0,0,0,0h0ZM5,2.37s0,0,0,0c-.01,0-.02,0-.01,0,0,0,.02-.02.02-.01ZM4.96,2.37s0,0,0,0c0,0-.02,0-.02,0,0,0,.01-.02.02-.01ZM4.68,2.37s0,0,0,0c0,0,0,0,0,0,0,0,0,0,0,0,0,0,0,0,0,0ZM4.91,2.38s0,0,0,0c0,0,0,0,0,0,0,0-.01,0-.01,0,0,0,0,0,0,0ZM4.72,2.38s0,0,0,0c0,0,0,0,0,0,0,0,0,0,0,0,0,0,0,0,0,0ZM4.88,2.38s0,0,0,0,0,0,0,0c0,0,0,0,0,0s0,0,0,0h0ZM4.85,2.38s0,0,0,0,0,0,0,0c0,0,0,0,0,0s0,0,0,0ZM5.18,2.38s0,0,0,0c0,0,0,0-.02,0-.02,0-.05,0-.11,0-.05,0-.33,0-.35,0h-.02s.02,0,.02,0h.17c.14,0,.19,0,.28-.02.01,0,.02,0,.02,0h0ZM4.16,2.39h-.01s-.07.06-.07.06l-.06.04s.01.03.02.04c0,.01.02.03.03.04.01.02.02.03.02.03l.04.06s.02.04.04.05c0,0,.03-.02.08-.05.03-.02.05-.03.07-.05,0,0-.07-.12-.11-.19l-.02-.04ZM5.57,2.4s-.09.14-.1.15c0,0,0,.01.03.03.02.01.04.03.04.03,0,0,.01,0,.03-.03l.03-.05s.02-.03.03-.04c.02-.03.02-.04-.03-.07-.01,0-.03-.02-.04-.02h0ZM4.68,2.4h0s0,0,0,0c0,0,0,0,0,0,0,0,0,0,0,0h0ZM5.2,2.4s0,.02-.02.02c-.08.01-.34.02-.44.02h-.1s-.05-.01-.05-.02,0,0,.03,0c.02,0,.11,0,.22,0,.14,0,.21,0,.27,0,.05,0,.08,0,.09,0h0ZM4.15,2.42h0s.11.19.11.2c0,0-.11.08-.13.08-.02-.03-.05-.06-.06-.1l-.06-.1h.01s.04-.04.06-.05l.05-.03ZM4.03,2.42s-.01,0,0,.01c.01,0,.01.01,0,.02,0,0-.02,0-.04,0-.03,0-.06,0-.06.02,0,0,0,0,0,0,0,0,.01,0,.02,0,.01.01.01.01.03,0t0,0s0,0,0,0c0,0,.02-.01.04-.01.03,0,.04,0,.04-.02,0,0,0-.01-.01-.02h0s0,0,0,0ZM5.57,2.42s.07.04.07.04-.08.12-.08.12c0,0-.02,0-.02,0-.03-.02-.04-.03-.04-.03,0,0,.07-.11.08-.13h0ZM5.45,2.43s0,.03,0,.04c0,0,0,0-.02,0,0,0,0,0,0-.02,0,0,.01-.02.02-.02ZM4.15,2.45s-.02,0-.03.01c-.03.02-.06.04-.06.04,0,.01.09.16.1.16.03-.02.05-.03.08-.05,0,0,0-.02-.04-.08-.02-.03-.03-.05-.04-.08,0,0,0,0-.01,0h0ZM5.77,2.46s-.02,0-.02,0c-.01,0-.02,0-.03.01,0,0,0,.02,0,0,0,0,.02,0,.02,0s-.01.02-.04.03c-.02.01-.03.02-.03.04s.03.02.04.01c0,0,.01-.02,0-.02,0,0,0,0,0,0,0,0-.01,0-.02,0,0-.01,0-.02.03-.03.02,0,.04-.02.04-.04,0,0,0-.02,0-.02,0,0,0,0,0,0h0ZM5.17,2.46s-.04.01-.13.02c-.08,0-.3,0-.38,0-.05,0-.06,0-.06-.01.01,0,.03,0,.04,0,.08,0,.36,0,.44,0,.04,0,.08,0,.09,0h0ZM4.25,2.46s0,0,0,0c0,0-.01.02,0,.02,0,0,0,0,0,0,0-.01.01,0,.01.02,0,.04.02.05.04.04,0,0,0,0,0-.01,0,0,0,0,0,0,0,0-.02,0-.02-.03,0-.02,0-.03-.01-.03h0ZM4.14,2.47s0,0,0,0c0,.01.08.12.08.13,0,0-.05.03-.06.04,0,0-.01,0-.01,0-.03-.04-.06-.08-.08-.13,0,0,.06-.04.06-.04h0ZM5.58,2.48h0s-.04.05-.04.06c0,.01,0,.01.02,0,0,0,.02-.02.02-.03.01-.02.01-.02,0-.02ZM3.96,2.5s0,0,0,.01c0,0,0,.01,0,.02,0,.02,0,.03.03.04.02.01.04.02.03.03,0,0,0,0-.01,0t0,0s.02.02.03.01c.02-.02,0-.04-.04-.06-.02,0-.02,0-.02-.02,0,0,0,0,.02,0,0,0,0,0,0,0,0-.01,0-.02-.02-.02,0,0-.02,0-.02,0,0,0,0,0,0,0h0ZM5.2,2.5s0,0,0,0c-.01.01-.4.02-.51.01-.07,0-.09,0-.09-.01,0,0,.13,0,.21,0,.13,0,.26,0,.39-.01h0ZM4.14,2.53s0,0,0,0c.01.02.02.05.04.07.01,0,.01,0,0-.02-.02-.05-.03-.05-.04-.05h0ZM5.13,2.54s0,0,0,0c0,0,0,0,0,0,0,0,0,0,0,0h0s0,0,0,0ZM4.72,2.54s0,0,0,0c0,0,0,0,0,0,0,0,0,0,0,0,0,0,0,0,0,0ZM5.18,2.55h0s.03,0,.03,0c0,.01,0,.01,0,0-.01,0-.02,0-.01.01,0,.01,0,.02-.02,0,0,0,0,0,0,0,0,0,0-.01,0-.01,0,0,0,0,0,0,0,0,.01,0,.03,0ZM5.14,2.55s0,0,0,0c0,0-.01,0-.03,0-.02,0-.03,0-.03.02v.02s0,.01.02,0c.02,0,.02-.01.01-.02,0,0,0,0,0,0,0,0,.02,0,.05,0,.03.01.03.01.04,0,.01,0,.01,0,.02,0,0,0,0,0,0,.01,0,0-.06.01-.14.02-.03,0-.35,0-.36,0,0,0-.03,0-.05,0-.06,0-.07,0-.06-.04,0,0,0-.02,0-.03,0,0,.09,0,.09,0,0,0-.02.02-.03.01-.02,0-.02,0-.02,0,0,0,0,.02,0,.02s-.01,0,0-.02c0,0,0-.01,0-.01-.01,0-.02.02-.01.03.01.02.03.02.07,0,.02-.01.03-.01.03-.01,0,0,0,0,0,.01,0,0,0,0,0,.01,0,0,.02,0,.02,0,.01,0,.02,0,.02,0,0,0,0,0,0,0,0,0,0,0-.01-.01,0,0,0-.01,0-.02,0,0,0,0,.1,0,.11,0,.28,0,.31-.01,0,0,0,0,0,0h0ZM5,2.57s0,0,0,0c0,0-.02,0-.03,0-.03,0-.03,0-.04.01,0,0,0,.01-.01.01,0,0,0,0,0,0,0,0,.04.01.05,0,0,0,0-.01,0-.01h0s0,0,0,0c.01,0,.03,0,.04.01.03.02.04.02.06,0,.02,0,.01-.04,0-.04,0,0,0,0,0,.01,0,.01,0,.01,0,.01,0,0-.03-.01-.03-.02,0,0,0,0,0,0,0,0,0,0,0,0,0,0,0,0,0,0h0ZM4.31,2.57h0s0,0-.01,0c0,0,0,.01,0,.01,0,0,0,0,0,0,0,0,.01,0,.01.02,0,.01,0,.02,0,.03,0,0,.02,0,.02,0,0,0,0-.01,0-.02,0,0,0,0,0,0,0,.02-.02,0-.02-.02,0-.02,0-.03-.02-.03h0ZM5.67,2.57s0,0-.01,0c0,0-.01,0-.02.03,0,.03-.01.04-.02.03,0,0,0-.01,0-.01,0,0,0,.01,0,.02,0,.01.02.01.03,0,0,0,0-.02,0-.03,0-.03,0-.03.01-.03,0,0,0,0,0,0,0,0,0,0,0,0,0,0,0-.02-.01-.02h0ZM4.85,2.57s-.01,0-.02,0c-.03,0-.03,0-.03.01,0,0,0,.01,0,.02-.01,0-.02,0-.02,0,0,0,0,0,0,0,0,0,0,0,0,0,0,0,0,0-.02,0,0,0,0,.01,0,.02,0,0,0,0,.02,0,.01,0,.03,0,.04-.02.02-.01.03-.02.04,0,0,0,0,0,0,0-.02,0,0,.01.02.01.03,0,.04,0,.02,0,0,0,0,0,0-.01,0-.01,0-.02-.03-.02h0,0ZM5.42,2.61h0s.02.03.02.04c0,0,0,0-.01,0,0,0-.01-.01,0-.01,0,0,0,0,0-.01,0,0,0,0,0,0h0ZM5.29,2.61s.05.02.2.12c.09.06.11.07.11.08s0,0-.02,0c-.04-.02-.29-.18-.29-.19,0,0,0,0,0-.01ZM4.05,2.62s-.02.02-.01.02c0,0,0,0,0,0,0-.01.02,0,.02.03,0,.03,0,.04.02.04,0,0,.01,0,.01-.01,0-.01,0-.02-.01,0,0,0-.01,0-.01-.03,0-.03,0-.04-.03-.04ZM5.17,2.63s0,0,0,0c0,0,0,0,0,0s0,0,0,0c0,0,0,0,0,0ZM5.2,2.63s0,0,0,0c0,0,0,0,0,0s0,0,0,0c0,0,0,0,0,0h0ZM5.28,2.63l.03.02c.06.04.12.07.17.11l.06.04s.04.03.04.03c0,0-.05.1-.07.12,0,0-.02.01-.02,0,0,0,.01-.02.03-.05.04-.07.04-.07.03-.07-.01,0-.26-.17-.26-.17,0,0-.01,0-.02.02,0,.01-.02.02-.02.02,0,0,0-.03.01-.04v-.02s.02,0,.02,0ZM5.13,2.64s0,0,0,0c0,0,0,0,0,0s0,0,0,0c0,0,0,0,0,0ZM5.08,2.64s0,0,0,0c0,0,0,0,0,0,0,0-.01,0-.01,0,0,0,0,0,0,0ZM4.6,2.64s0,0,0,0c0,0,0,0,0,0,0,0,0,0,0,0ZM5.01,2.64s0,0,0,0c0,0-.02.01-.02,0,0,0,0,0,0,0,0,0,0,0,.01,0h0ZM4.67,2.64s0,0,0,0c0,0-.01.02-.01,0,0,0,0,0,0-.01,0,0,0,0,0,0ZM5.05,2.64s0,0,0,0c0,0,0,0-.01,0,0,0,0,0,0,0,0,0,0,0,.01,0h0ZM4.63,2.64h0s0,0,0,0c0,0,0,0,0,0,0,0,0,0,0,0h0ZM4.71,2.65s0,0,0,0,0,0,0,0c0,0-.02,0-.02,0,0,0,0,0,.01,0h0ZM4.74,2.65s0,0,0,0c0,0,0,0,0,0,0,0,0,0,0,0,0,0,0,0,0,0h0ZM4.78,2.65s0,0,0,0c0,0,0,0,0,0,0,0,0,0,0,0,0,0,0,0,0,0ZM4.89,2.65s0,0,0,0c0,0,0,0,0,0,0,0,0,0,0,0,0,0,0,0,0,0h0ZM4.93,2.65s0,0,0,0c0,0,0,0,0,0,0,0,0,0,0,0,0,0,0,0,0,0h0ZM4.82,2.65h0s0,0,0,0c0,0-.02,0-.02,0,0,0,.02-.01.02,0ZM4.86,2.65s0,0,0,0c0,0-.02,0-.02,0,0,0,.01-.01.02,0h0ZM4.97,2.65h0s0,0,0,0c0,0-.02,0-.02,0,0,0,.01-.01.02,0h0ZM5.21,2.65s0,0,0,0c0,0-.03,0-.07.01-.17.02-.35.03-.53.01h-.02s0,0,0-.01c0,0,0,0,.18,0s.34,0,.41-.02c.01,0,.02,0,.03,0ZM4.3,2.66h0s0,0,0,0c0,0,0,0,0,.01,0,0,0,0,0,.02-.02.01-.02.02-.02.01,0-.02.01-.03.02-.04,0,0,0,0,.01,0h0ZM4.43,2.67s-.13.1-.29.19c-.01,0-.02,0-.02,0,0,0,0-.01.05-.04l.15-.09c.06-.03.1-.06.11-.06h0ZM5.61,2.68s-.01,0-.02,0c0,0,0,0,0,.01,0,0,0,0,0,0,0,0,0,0,.02,0,0,0,.01,0,.01,0,0,0,0,0,0,0ZM5.28,2.68l.06.03.06.04.06.04s.06.04.06.04c.01.01,0,0-.05-.02-.03-.02-.05-.03-.08-.05-.02-.01-.05-.04-.07-.05-.02-.01-.04-.03-.04-.03,0,0,0,0,0,0h0ZM4.44,2.69s.01.01.08.13c.04.07.05.08.04.08,0,0-.02-.03-.1-.14,0-.01-.02-.02-.03-.04,0,0-.09.05-.18.11l-.09.06s0,.02.01.03c.03.06.05.1.05.11,0,0,0,0-.02-.01-.05-.07-.08-.13-.08-.14,0,0,.3-.19.31-.19h0ZM5.19,2.69s0,0,0,0c0,.01-.02.01-.02,0,0,0,0-.01.02-.01h0ZM5.15,2.69h0s0,0,0,0c0,0-.02,0-.02,0,0,0,.01-.01.02,0h0ZM5.11,2.7s0,0,0,.01c0,0,0,0,0,0,0,0,0-.01.02-.01ZM5.27,2.7c.08.04.15.09.22.14.02.01.03.02.02.02-.03-.02-.07-.04-.1-.06-.12-.08-.14-.09-.14-.1,0,0,0,0,0,0ZM5.08,2.7s0,0,0,0c0,0-.02,0-.02,0,0,0,.02-.02.02-.01ZM5.03,2.7s.01,0,0,.01c-.01,0-.02,0-.01,0,0,0,0,0,0,0s0,0,0,0h0ZM5,2.7s0,.02-.01.02c0,0,0,0,0,0,0,0,.01-.02.02-.01ZM4.96,2.7s0,0,0,0c0,0,0,0,0,0,0,0-.01,0-.01,0,0,0,0,0,0,0,0,0,0,0,0,0h0ZM4.63,2.71s0,0,0,0c0,0-.01,0-.01,0,0,0,0,0,0,0h0ZM4.66,2.71s0,0,0,0c0,0,0,0,0,0,0,0,0,0,0,0,0,0,0,0,0,0ZM4.76,2.71s0,0,0,0c0,0,0,0,0,.01,0,0,0,0,0,0,0,0,0-.01,0-.01ZM4.7,2.71s0,.02-.01.02c0,0,0,0,0,0,0,0,.02-.02.02-.01ZM4.86,2.71s0,0,0,0c0,0-.01.01-.02,0,0,0,0,0,0,0,0,0,0,0,0,0h0ZM4.89,2.71s0,.02-.01.02c0,0,0,0,0,0,0,0,.01-.01.02,0h0ZM4.92,2.71h0s0,0,0,0c0,0,0,0,0,0s0,0,0,0c0,0,0,0,0,0h0ZM4.82,2.71s0,0,0,0,0,0,0,0c0,0,0,0,0,0,0,0,0,0,0,0h0ZM4.79,2.71s0,0,0,0c0,0,0,0,0,0,0,0,0,0,0,0,0,0,0,0,0,0ZM4.72,2.71s0,0,0,0c0,0,0,0,0,0,0,0-.01,0-.01,0,0,0,0,0,0,0ZM5.2,2.72s.01,0,.02,0c0,.01,0,.01-.06.02-.07.01-.3.02-.49,0-.07,0-.09,0-.08-.02,0,0,.11,0,.24,0,.14,0,.26,0,.29,0,.04,0,.06,0,.07,0h0ZM5.26,2.72s0,0,.02,0c0,0,0,0,0,.02,0,0-.02,0-.02,0,0,0,0,0,0-.02,0,0,0-.01,0-.01h0ZM4.11,2.73s0,0,0,0c0,0,0,0,0,0,0,0,0,0,.01,0,0,0,0,0,.01,0,0,0,0,0,0-.02,0,0-.01,0-.01,0h0ZM4.43,2.74h0s-.1.07-.2.13c-.03.02-.03.02-.03.01,0,0,0,0,.01-.01.07-.05.15-.09.22-.14h0ZM5.3,2.75s0,0,0,0c0,.01,0,.04,0,.05,0,0-.04.01-.04,0,0,0,0-.04,0-.05,0,0,.01,0,.02-.01,0,0,.01,0,.01,0h0ZM4.44,2.76s0,0,0,0c0,0,0,0,0,0-.02.01-.04.02-.06.03-.06.04-.12.08-.19.11,0,0,0,0,0,0,.01-.01.23-.15.24-.15ZM5.2,2.76h.02v.03s0,.05,0,.07v.05s-.1,0-.1,0c-.09,0-.32.01-.38,0-.1,0-.16-.01-.17-.02,0-.02,0-.05,0-.07v-.06s.17,0,.17,0c.13,0,.2,0,.3,0,.07,0,.14,0,.15,0ZM5.32,2.76s.04.02.04.02c0,0-.03.02-.03.02,0,0,0,0,0-.02,0,0,0-.02,0-.02ZM4.45,2.78s0,0,0,.01c0,.01,0,.01,0,.01,0,0-.01,0-.02,0,0,0,0,0,0-.01,0,0,.01,0,.02,0h0ZM5.25,2.79s0,0,0,.01,0,.01,0,.01c0,0,0,0,0-.01,0,0,0-.01,0-.01ZM4.47,2.79s.02.02.02.03c0,0,0,0-.02,0,0,0-.01-.03,0-.03ZM5.37,2.8s0,0,0,0c0,0,0,.02,0,.03,0,.02,0,.02-.01.03,0,0-.02,0-.02,0-.01,0-.01,0-.02,0v-.02s0-.02,0-.02c.01,0,.02-.01.04-.01ZM5.39,2.81s.04.02.04.02c0,0-.04.02-.04.01,0-.02,0-.03,0-.03ZM4.41,2.81s.01,0,.02,0c.01,0,.01,0,.01.03,0,.02,0,.02-.01.03,0,0-.02,0-.02,0-.01,0-.02-.02-.01-.04,0,0,0-.01,0-.01h0ZM4.38,2.82s0,0,0,.02c0,.02,0,.02-.03.02-.02,0-.02-.01,0-.03.01,0,.02-.01.02,0h0ZM5.31,2.82s0,.04,0,.04c0,0-.01,0-.02-.01,0,0-.01-.01-.01-.02,0,0,.02-.02.03-.01h0ZM4.47,2.83s.03,0,.03.01c0,0-.03.02-.03.02,0,0,0,0,0,0,0,0,0-.03.01-.03ZM5.25,2.83s.02.01.11.07c.03.02.06.04.09.06,0,.01-.01,0-.07-.04-.08-.05-.13-.09-.13-.09,0,0,0,0,0,0h0ZM5.44,2.84s.01,0,.01.03c0,.02,0,.03-.04.03h-.02s0-.02,0-.02c0-.02,0-.04.01-.04,0,0,.01,0,.02,0,0,0,0,0,.01,0ZM4.33,2.86s.01,0,.03,0h.02v.04s0,.03-.01.03c0,0-.02,0-.03,0h-.02s0-.03,0-.03c0-.01,0-.03,0-.03ZM5.47,2.86h0s.04.01.04.02c0,0-.02.01-.03.01,0,0,0,0,0-.01,0,0,0-.02,0-.02ZM4.32,2.86s0,.01,0,.02c0,.02,0,.02-.03.01,0,0-.02,0-.02-.01,0,0,.05-.03.05-.03ZM5.25,2.86s.04.02.1.06c.06.04.06.04.06.04,0,0-.04-.02-.08-.05-.03-.02-.05-.04-.08-.06h0ZM5.37,2.87s0,0,.01,0c0,.03,0,.03-.02.01h-.02s.01-.02.01-.02c0,0,.02,0,.02,0ZM4.5,2.87s0,0-.04.03c-.1.07-.15.09-.12.07.02-.02.16-.11.16-.1ZM4.41,2.87s0,0,.01,0c.01,0,.01.02,0,.02-.02,0-.02,0-.02,0,0,0,0-.03,0-.03h0ZM4.53,2.87s0,0,0,0-.01.01-.03.02l-.08.05c-.05.03-.07.04-.07.04,0,0,.02-.02.04-.03.02-.01.06-.04.08-.05.03-.02.05-.03.05-.03ZM5.25,2.89h0s0,0,0,0c0,.01,0,.01,0,0,0,0,0,0,0,0ZM6.49,2.94s0,.01,0,.01c0,0,0-.01,0-.01ZM6.51,2.97s-.04,0-.51.01c-.26,0-.28,0-.28,0,0,0,0,0,.01-.01.01,0,.01,0,0-.02,0,0-.01,0-.01-.01,0,0,0,0,.01-.01.02,0,.02-.02,0-.02,0,0,0,0,0,0,.01,0,.47-.01.66-.01h.12s0,.08,0,.08ZM5.49,2.9s0,.02-.01.03c0,0,0,0,0,0,0,0,0-.02.01-.03,0,0,0,0,0,0ZM3.63,2.9c.2,0,.26,0,.23,0-.01,0,0,0,0,.02,0,0,0,0,0,.02,0,0,0,.01,0,.01.02,0,0,.01-.02.02-.01,0-.16,0-.34,0-.13,0-.25,0-.38,0-.03,0-.06,0-.06,0,0,0,0-.01,0-.02.01,0,.01-.01,0-.02-.01,0-.01,0,0-.03v-.02s.17,0,.17,0c.09,0,.27,0,.4,0h0ZM4.24,2.9s0,0,0,.02c0,.03,0,.03-.02.02,0,0-.01,0-.01-.01,0,0,.03-.03.04-.03h0ZM4.26,2.9s0,0,.01,0c.03,0,.04.01.04.03,0,.03,0,.03-.02.03,0,0-.02,0-.03,0-.02,0-.02-.02-.01-.05,0,0,0,0,0,0ZM6.39,2.9s-.02,0-.02,0c0,0,.02,0,.02,0,0,0,0,0,0,0ZM6.45,2.9s-.01,0-.02,0c-.01,0-.01,0,0,0,.01,0,.02,0,.02,0,0,0,0,0,0,0ZM6.49,2.91s-.02,0-.01,0c0,0,0,0,.01,0,0,0,.01,0,.01,0,0,0,0,0-.01,0ZM4.51,2.91s0,0,0,0,0,0,0,0c0,0,0,0,0,0,0,0,0,0,0,0ZM6.22,2.91s-.01,0-.02,0c0,0,0,0,.01,0s.01,0,.02,0c0,0,0,0-.01,0h0ZM6.27,2.91s-.01,0-.02,0c0,0,0,0,.01,0,0,0,.02,0,.02,0,0,0,0,0-.01,0ZM6.33,2.91s-.01,0-.01,0c0,0,0,0,.01,0s.01,0,.01,0c0,0,0,0-.01,0ZM5.45,2.91s.01,0,.01.02c0,.02,0,.02-.03,0-.02-.01-.02-.02,0-.03,0,0,0,0,.01,0ZM4.55,2.91s0,0,0,0c0,0-.03.02-.06.05-.06.03-.08.04-.08.03,0,0,.13-.09.13-.09h0ZM5.23,2.92s.01.03.01.07c0,.02,0,.02,0,.03-.01.01-.03.01-.06,0-.01,0-.02,0-.03,0-.02,0-.17.02-.17.01,0,0-.06,0-.14,0-.13,0-.24,0-.24-.01,0,0,0-.07,0-.08,0,0,.01,0,.07,0,.11,0,.38,0,.53,0,.01,0,.03,0,.04,0h0ZM6.05,2.92s-.02,0-.02,0c0,0,0,0,.02,0,0,0,.02,0,.02,0,0,0,0,0-.02,0ZM6.11,2.92s-.02,0-.02,0c0,0,0,0,.02,0,.01,0,.02,0,.02,0,0,0-.01,0-.02,0ZM6.17,2.92s-.01,0-.01,0c0,0,0,0,.01,0s.01,0,.01,0c0,0,0,0-.01,0ZM5.99,2.92h0s-.01,0,0,.01c0,0,0,0,.02,0,0,0,0-.01,0-.01ZM5.94,2.92s-.01,0-.01,0c0,0,0,0,0,0,.01,0,.02,0,.02,0,0,0,0,0-.01,0ZM5.26,2.92s.01,0,.03.01c.02.01.03.02.05.03.01,0,.03.02.03.02t-.01,0s-.07-.05-.08-.06c0,0-.01-.01,0-.01ZM5.78,2.92h0s-.01,0-.01,0c0,0,0,0,0,0,0,0,.02,0,.02,0,0,0,0,0,0,0ZM5.82,2.92s0,0,0,0c0,0,.02,0,.02,0,0,0,0,0,0,0,0,0-.01,0-.02,0ZM5.89,2.92h0s-.01,0-.02,0c0,0,0,0,0,0,0,0,.02,0,.03,0,0,0,0,0,0,0h0ZM3.52,2.92s-.02,0-.02,0c0,0,.03.01.03,0,0,0,0,0-.01,0ZM3.59,2.92h0s0,0-.01,0c0,0,0,0,0,0,0,0,.02,0,.01,0,0,0,0,0,0,0ZM3.64,2.92s-.02,0-.02,0c0,0,0,0,.02,0s.02,0,.02,0c0,0,0,0-.02,0ZM3.69,2.92s-.02,0-.01.01c0,0,.02,0,.02,0,0,0,0,0-.01,0ZM3.75,2.92s-.02,0-.02,0c0,0,0,0,.02,0s.02,0,.02,0c0,0,0,0-.02,0ZM3.47,2.92s-.01,0-.02,0c0,0,0,0,0,0,0,0,.03,0,.03,0,0,0,0,0,0,0h0ZM3.42,2.92s0,0-.01,0c0,0-.01,0,0,0,0,0,.02,0,.02,0,0,0,0,0,0,0ZM4.34,2.93s0,0,.01,0h.01s0,.02,0,.02c0,0-.01.01-.02.01,0,0,0,0,0-.01,0,0,0-.01,0-.02,0,0,0,0,0,0h0ZM3.09,2.93s-.01,0-.01,0c0,0,0,0,.01,0,.02,0,.02,0,.02,0,0,0,0,0-.02,0ZM3.15,2.93s-.02,0-.02,0,0,0,.02,0,.02,0,.02,0c0,0,0,0-.02,0ZM3.2,2.93s-.01,0-.01,0,0,0,.01,0,.01,0,.01,0c0,0,0,0-.01,0h0ZM3.26,2.93s-.01,0-.01,0,0,0,.02,0c.01,0,.02,0,.02,0,0,0,0,0-.02,0h0ZM3.31,2.93s-.02,0-.02,0,0,0,.02,0c0,0,.02,0,.02,0,0,0,0,0-.02,0ZM3.36,2.93s-.02,0-.02,0c0,0,0,0,.01,0,0,0,.02,0,.02,0,0,0,0,0-.01,0h0ZM5.33,2.94h0s0,0,0,0c0,0,0,0,0,0,0,0,0,0,0,0ZM5.26,2.94s.02,0,.06.04c0,0,.01.01,0,.01-.01,0-.03-.01-.04-.02-.02-.01-.03-.03-.03-.03h0ZM4.56,2.94s0,0,0,.01c0,0-.03.02-.05.03-.05.04-.06.04-.06.04,0,0,0,0,0,0,0,0,.11-.07.11-.07h0ZM6.35,2.95h0s0,0-.01,0c-.01,0,0,0,0,0,0,0,.01,0,.01,0,0,0,0,0,0,0h0ZM6.41,2.95h0s-.02,0-.02,0c0,0,.02,0,.02,0,0,0,0,0,0,0ZM6.44,2.95s0,.01.01.01c0,0,.02,0,.02,0,0,0-.02,0-.03,0ZM6.16,2.95s-.02,0-.02,0c0,0,0,0,.01,0s.01,0,.02,0c0,0,0,0-.01,0h0ZM6.22,2.95s-.02,0-.02,0c0,0,0,0,.02,0s.02,0,.02,0c0,0,0,0-.02,0h0ZM6.28,2.95s-.02,0-.02,0c0,0,0,0,.02,0,0,0,.02,0,.02,0,0,0,0,0-.02,0ZM5.35,2.95s0,0,0,0c0,0,0,0,0,0,0,0,0,0,0,0,0,0,0,0,0,0ZM4.44,2.95s0,0,0,0c0,0,0,0,0,0,0,0,0,0,0,0,0,0,0,0,0,0ZM4.22,2.96s0,0,.01,0c0,0,0,0,0,.01,0,.01,0,.01-.02,0,0,0,0-.01,0-.02ZM6.09,2.96s-.02,0-.02,0c0,0,.03,0,.03,0,0,0,0,0-.02,0h0ZM3.74,2.96s-.02,0-.02,0c0,0,0,0,.02,0s.02,0,.02,0c0,0,0,0-.02,0ZM5.77,2.96s-.01,0-.01,0c0,0,0,0,.02,0,0,0,.01,0,.01,0,0,0,0,0-.02,0h0ZM5.83,2.96s-.02,0-.02,0c0,0,0,0,.02,0s.02,0,.02,0c0,0,0,0-.02,0ZM5.9,2.96s-.02,0-.02,0c0,0,0,0,.02,0,0,0,.02,0,.02,0,0,0,0,0-.02,0ZM5.96,2.96s-.02,0-.02,0c0,0,0,0,.02,0,.01,0,.02,0,.02,0,0,0,0,0-.02,0ZM6.03,2.96s-.02,0-.02,0c0,0,0,0,.01,0s.01,0,.02,0c0,0,0,0-.01,0h0ZM3.69,2.96s-.01,0-.02,0c0,0,0,0,0,0,0,0,.02,0,.02,0,0,0,0,0,0,0h0ZM3.42,2.96s0,0,0,0c0,0,0,0,.01,0,.01,0,.01,0,0,0,0,0,0,0-.01,0h0ZM3.49,2.96s-.01,0-.01,0c0,0,0,0,.01,0,0,0,.01,0,.01,0,0,0,0,0-.01,0h0ZM3.55,2.96s-.01,0-.01,0c0,0,0,0,.01,0s.01,0,.01,0c0,0,0,0-.01,0h0ZM5.26,2.96s.01,0,.02,0c.02.02.02.03,0,.02-.01,0-.02,0-.02-.02,0,0,0,0,0,0ZM3.35,2.96s0,0,0,0c0,0,0,0,0,0,.02,0,.02,0,0,0,0,0,0,0,0,0h0ZM3.61,2.96s0,0,0,0,.02,0,0,0-.01,0-.02,0h0ZM5.54,2.96s.04.01.06.03.04.05.04.06c0,.01,0,0-.02-.01-.02-.05-.07-.07-.11-.05-.02,0-.03.02-.04.03-.01.01-.02.02-.03.02,0,0-.01,0-.01,0,0-.01.03-.04.05-.05.02-.01.04-.01.07-.01h0ZM4.07,2.96s0,0,.01,0c.02,0,.04.02.06.04.03.03,0,.04-.02,0-.01-.01-.02-.02-.04-.03-.02,0-.02-.02-.01-.02h0ZM3.24,2.96s0,0,0,0c0,0,0,0,0,0,.01,0,.02,0,.01,0,0,0,0,0,0,0ZM3.29,2.97s-.01,0,0,0c.01,0,.02,0,.01,0,0,0-.01,0-.02,0ZM3.12,2.97s-.02,0-.02,0,0,0,.02,0,.02,0,.02,0c0,0,0,0-.01,0h0ZM3.18,2.97s-.01,0-.01,0c0,0,0,0,.01,0s.01,0,.01,0c0,0,0,0-.01,0h0ZM4.26,2.97s.03,0,.03.01c0,.01-.03.02-.04.01,0,0,0-.02,0-.02h0ZM4.56,2.97s0,0,0,0c0,.01-.02.02-.03.03-.03.02-.05.03-.03,0,.02-.01.03-.02.05-.03ZM4.02,2.97s0,0,0,0c0,0,0,0-.01.01-.02.01-.04.03-.06.06,0,.01-.01.02-.01,0,0-.02.05-.07.07-.08,0,0,0,0,.01,0ZM4.39,2.98s0,0,0,0c0,0,0,0,0,0s0,0,0,0c0,0,0,0,0,0ZM5.53,2.98s.03,0,.05.02c.02.01.04.05.03.06,0,0,0,0-.02,0,0,0,0-.01,0-.01,0,0-.02-.02-.03-.03-.02-.01-.05,0-.07,0-.02.02-.03.01,0-.01.01-.01.03-.02.05-.02h0ZM4.03,2.99s.06.01.08.03c0,.02,0,.02-.02,0-.02-.02-.04-.03-.06-.02-.02,0-.03.01-.04.04,0,.02-.02.02-.02.02,0-.01.01-.04.04-.06,0,0,.02,0,.03,0h0ZM6.12,2.99c.2,0,.39,0,.4,0,0,0,0,.07,0,.16,0,.15,0,.15,0,.15-.13,0-.27,0-.4,0-.37,0-.39,0-.4,0,0-.01,0-.03,0-.05,0-.01,0-.01.04-.01.02,0,.04,0,.04,0,0,0,0-.03,0-.09s0-.08,0-.09c0,0-.02,0-.04,0s-.03,0-.04,0c0,0,0-.05,0-.06,0,0,.2,0,.4,0h0ZM3.77,2.99h.09s0,.03,0,.03v.03s-.01,0-.01,0c0,0-.02,0-.02,0,0,0-.02,0-.03,0h-.02v.09c0,.1,0,.09.04.09.01,0,.02,0,.03,0,0,0,0,.01,0,.03,0,.02,0,.02,0,.03,0,0-.15,0-.37,0-.2,0-.38,0-.39,0-.01,0-.02,0-.03,0,0,0,0-.07,0-.16,0-.12,0-.16,0-.16,0,0,.62,0,.71,0ZM4.56,3s0,0,0,.01c0,0,0,.01-.01.01,0,0-.01,0-.02,0,0,0,.02-.02.03-.02h0ZM5.3,3s0,.02-.04.04c-.05.03-.1.06-.15.08-.05.02-.08.02-.08.01,0,0,.02-.01.04-.02.06-.02.12-.05.17-.09.03-.02.05-.03.05-.03h0ZM4.26,3.01s.01,0,.01,0c0,0,0,0-.01,0,0,0-.01,0-.01,0,0,0,0,0,.01,0ZM5.33,3.01s0,0-.03.03c-.06.05-.13.09-.21.11-.06.02-.05.01-.05,0,0,0,0,0,0,0,0,0,0,0,0,0,0,0,.01,0,.02,0,.08-.02.15-.06.22-.12,0,0,.02-.02.03-.02h0ZM5.37,3.01s0,.02-.02.03c-.07.06-.18.12-.28.14-.05,0-.05,0-.05,0,0,0,.03-.02.05-.02.05-.01.1-.03.15-.05.04-.02.09-.05.12-.08,0,0,.02-.02.03-.02h0ZM5.53,3.01s.04.01.05.03c0,.01,0,.02,0,.03,0,.01,0,.02,0,.1v.09h-.01s-.02.02-.02-.09v-.11s-.01-.01-.01-.01c-.02-.02-.02-.02,0-.03,0,0,.01,0,.02,0ZM4.04,3.01h0s.03,0,.04.01h.01s-.02.03-.02.03l-.02.02v.08c0,.08,0,.09.01.12,0,.01,0,0-.02,0-.03-.01-.03-.01-.03-.11,0-.09,0-.09,0-.09-.01,0-.01-.01,0-.03,0-.01.02-.02.04-.02h0ZM4.34,3.01s.01,0,.02.02c.05.05.12.09.19.11.02,0,.02,0,.01,0-.01,0,0,0-.04,0-.04-.01-.07-.02-.11-.05-.03-.02-.08-.07-.08-.08,0,0,0,0,0,0h0ZM4.41,3.02s.05.04.05.05c0,0-.01,0-.03-.02-.03-.02-.03-.03-.02-.03ZM5.4,3.02h0s0,0-.02.02c-.02.02-.09.07-.1.07,0,0,0,0,0,0l.04-.03s.04-.03.06-.05c.01-.01.02-.02.02-.02h0ZM4.32,3.02s0,0,.02.01c.05.05.11.09.17.11.03,0,.07.01.1.01,0,0,.02,0,.02,0,0,0-.07,0-.1,0-.05-.01-.1-.03-.14-.06-.02-.02-.07-.07-.07-.08h0ZM4.61,3.02s.1,0,.23,0c.1,0,.18,0,.18,0,0,0,0,0,0,0,0,0-.07,0-.23,0-.07,0-.18-.01-.19-.02-.02,0-.02-.01.01-.01ZM5.14,3.02s.02,0,.03,0c.02,0,0,.01-.02.01-.05,0-.1.02-.14.06-.05.06-.06.16-.02.21.02.02.06.03.11.04.04,0,.05,0,.04.02-.02.01-.09,0-.12-.01-.01,0-.04-.04-.06-.06,0,0,0,0,0,0,0,0,0,.02.02.04.03.04.08.05.12.05.02,0,.03,0,.02,0,0,0-.07,0-.09,0-.08-.02-.12-.1-.1-.19,0-.04.03-.08.06-.11.04-.04.09-.06.14-.06h0ZM5.23,3.03s0,0-.02.02c-.04.03-.12.07-.16.07-.02,0-.01,0,.02-.01.05-.02.11-.05.13-.07.01,0,.02,0,.02,0ZM6.01,3.04s0,0-.01,0c0,0,0,0-.01.02,0,.02,0,.03,0,.03,0,0,.01,0,.02.01,0,0,0,.01,0,.02,0,0,0,0-.03,0-.03,0-.04,0-.04,0,0,0,0,0,0,0,0,0-.01,0-.02.02-.02.02-.02.03,0,.03,0,0,0,0,.01.01,0,0,0,.01.01.01,0,0,0,0,0,0,0,0,.03,0,.04,0,0,0,.04-.02.04-.01,0,0,0,0,0,0,0,0,0,0,0,.02,0,.01,0,.01-.01.01-.01,0-.01,0-.01,0v.02s0,.01.03.02h.03s0,0,.01,0c0,0,0,0,0-.01,0,0,0,0,0-.02.01-.01.01-.01.02,0,0,0,0,0,.01,0,0,0,0,0,.01.01,0,0,0,.01.02,0,0,0,.01,0,.02,0,0,0,0,0,0,0,0,0,0,0,.01-.01,0-.01.01-.01.03,0h.01s-.01.02-.01.02c-.01,0-.01.01,0,.02.03,0,.07-.02.07-.04,0,0,0,0,0,0s-.01,0-.02-.01c-.01-.02-.01-.02,0-.02,0,0,0,0,.02,0,0,0,.01,0,.01,0,0,0,0,0,.01,0,0,0,.03,0,.05,0,0,0,.01-.01.02-.02,0,0,0-.01.01-.01,0,0,0,0,0,0,0,0,0,0,0,0,0,0,0,0-.01,0,0,0,0,0-.01,0,0,0,0,0-.01,0,0,0,0,0-.02,0-.01,0-.02,0-.02,0-.01.01-.03.01-.03,0,0,0,0,0,.01-.01.01,0,.01,0,0-.03,0-.03,0-.04-.03-.03-.03,0-.04,0-.03.02,0,0,0,.03-.01.03,0,0-.01,0-.02-.02-.02-.02-.04-.02-.06,0-.01.01-.02.02-.02,0,0,0,0,0-.01,0-.01,0-.01,0,0-.02,0,0,0,0-.02-.02,0,0-.01,0-.02,0h0ZM4.52,3.04s.06.01.08.02c.03.01.05.04.07.06.05.06.06.13.03.2-.01.02-.05.06-.05.05,0,0,0-.01,0-.02,0,0,.01-.03.02-.04.02-.07,0-.14-.04-.19-.04-.03-.08-.06-.13-.06-.03,0-.04-.01-.01-.02,0,0,.02,0,.02,0h0ZM3.34,3.04s0,0-.01,0c0,0,0,0-.01.02,0,.02,0,.03,0,.03,0,0,.01,0,.02.01,0,0,0,.01,0,.02,0,0,0,0-.03,0-.02,0-.04,0-.04,0,0,0,0,0,0,0,0,0-.01,0-.02.02-.02.02-.02.03,0,.03,0,0,0,0,.01.01,0,0,0,.01.01.01,0,0,0,0,0,0,0,0,.03,0,.04,0,0,0,.04-.02.04-.01,0,0,0,0,0,0,0,0,0,0,0,.02,0,.01,0,.01-.01.01,0,0-.01,0-.01,0v.02s0,.01.03.02h.03s0,0,.01,0c0,0,0,0,0-.01,0,0,0,0,0-.02.01-.01.01-.01.02,0,0,0,0,0,.01,0,0,0,0,0,.01.01,0,0,0,.01.02,0,0,0,.01,0,.02,0,0,0,0,0,0,0,0,0,0,0,.01-.01,0-.01.01-.01.03,0h.01s-.01.02-.01.02c-.01,0-.01.01,0,.02.03,0,.07-.02.07-.04,0,0,0,0,0,0s-.01,0-.02-.01c-.01-.02-.01-.02,0-.02,0,0,0,0,.02,0,0,0,.01,0,.01,0,0,0,0,0,.01,0,0,0,.03,0,.05,0,0,0,.01-.01.02-.02,0,0,0-.01.01-.01,0,0,0,0,0,0,0,0,0,0,0,0,0,0,0,0-.01,0,0,0,0,0-.01,0,0,0,0,0-.01,0,0,0,0,0-.02,0-.01,0-.02,0-.02,0-.01.01-.03.01-.03,0,0,0,0,0,.01-.01.01,0,.01,0,0-.03,0-.03,0-.04-.03-.03-.03,0-.04,0-.03.02,0,0,0,.03-.01.03,0,0-.01,0-.02-.02-.02-.02-.04-.02-.06,0-.02.01-.02.02-.02,0,0,0,0,0-.01,0-.01,0-.01,0,0-.02,0,0,0,0-.02-.02,0,0-.01,0-.02,0h0ZM4.4,3.04s.01,0,.02.01c.05.03.11.06.17.07,0,0,0,0,0,0,0,0,0,0-.03,0-.05,0-.13-.04-.16-.07-.01,0-.01-.01-.01-.02h0ZM5.45,3.05c.06,0,.05,0-.01.01-.03,0-.05,0-.05,0,0,0,.02,0,.06,0h0ZM6.23,3.05s.01,0,.01.02c0,.01,0,.02,0,.02,0,0-.02.02-.02.03,0,0,.05,0,.05,0,0,0,.02,0,.02,0,0,0,0,0,.01,0,.02,0,.02.04,0,.05,0,0,0,0-.01,0,0,0,0,0-.02,0,0,0-.01,0-.01,0s0,0-.01,0c0,0-.03-.01-.04,0,0,0,0,0,0,.02,0,0,0,.02.02.02,0,0,.02.01.02.01,0,0,0,0,0,.02,0,.01-.02.02-.02,0,0,0,0,0,0-.01,0,0,0,0,0,0,0,0,0,0-.01,0,0-.01-.04-.01-.04,0,0,0,0,0-.01.01,0,0-.01,0-.01.01,0,0,0,0-.01,0,0,0,0,0,0,0,0,0,0,0-.02-.01,0,0-.01-.01-.02-.01-.01,0-.03.03-.03.04,0,0,0,0-.01.01-.02,0-.02,0-.02,0,0,0,0-.02,0-.02.01,0,.03-.03.03-.05,0-.02,0-.02,0-.02-.02,0-.03,0-.05.01,0,0,0,0-.01,0,0,0,0,0-.01,0,0,0,0,0,0,0,0,0-.01,0-.02-.01h-.01s0-.02,0-.02c0,0,.01,0,.01,0,0,0,0,0,.01-.01t.02,0s.06.01.06,0c0,0,0-.01-.02-.02-.01-.01-.02-.02-.02-.03,0-.01,0-.02.02-.01,0,0,0,0,.01,0,0,0,0,0,0,.01,0,0,0,.01,0,.01,0,0,0,0,.01,0,.01.01.03,0,.05-.01.02-.02.02-.02.03,0,0,0,0,0,.01,0,0,0,.01,0,.01,0,0,0,0,0,.02,0,.01,0,.02,0,.02-.02,0-.01,0-.02.02-.02,0,0,0,0,.01,0h0ZM3.56,3.05s.01,0,.01.02c0,.01,0,.02,0,.02,0,0-.02.02-.02.03,0,0,.05,0,.05,0,0,0,.02,0,.02,0,0,0,0,0,.01,0,.02,0,.02.04,0,.05,0,0,0,0-.01,0,0,0,0,0-.02,0,0,0-.01,0-.01,0s0,0-.01,0c0,0-.03-.01-.04,0,0,0,0,0,0,.02,0,0,0,.02.02.02,0,0,.02.01.02.01,0,0,0,0,0,.02,0,.01-.02.02-.02,0,0,0,0,0,0-.01,0,0,0,0,0,0,0,0,0,0-.01,0,0-.01-.04-.01-.04,0,0,0,0,0-.01.01,0,0-.01,0-.01.01,0,0,0,0-.01,0,0,0,0,0,0,0,0,0-.01,0-.02-.01,0,0-.01-.01-.02-.01-.01,0-.03.03-.03.04,0,0,0,0-.01.01-.02,0-.02,0-.02,0,0,0,0-.02,0-.02.01,0,.03-.03.03-.05,0-.02,0-.02,0-.02-.02,0-.03,0-.05.01,0,0,0,0-.01,0,0,0,0,0-.01,0,0,0,0,0,0,0,0,0-.01,0-.02-.01h-.01s0-.02,0-.02c0,0,.01,0,.01,0,0,0,0,0,.01-.01t.02,0s.06.01.06,0c0,0,0-.01-.02-.03-.01-.01-.02-.02-.02-.03,0-.01,0-.02.02-.01,0,0,0,0,.01,0,0,0,0,0,0,.01,0,0,0,.01,0,.01,0,0,0,0,.01,0,.01.01.03,0,.05-.01.02-.02.02-.02.03,0,0,0,0,0,.01,0,0,0,.01,0,.01,0,0,0,0,0,.02,0,.01,0,.02,0,.02-.02,0-.01,0-.02.02-.02,0,0,0,0,.01,0h0ZM4.18,3.05s.09,0,.09,0c0,0-.17,0-.18,0,0,0,0,0,0,0,0,0,.05,0,.09,0h0ZM4.66,3.05c.07,0,.14,0,.21,0,.06,0,.12,0,.12,0,0,0,0,.01-.01.02,0,.01-.02.02-.04.02-.02,0-.09,0-.13,0h-.08c-.05-.01-.06-.01-.07-.03-.02-.02-.03-.02,0-.03h0ZM4.62,3.06s0,0,.01,0c.02.02.04.04.06.06.01.02,0,.02-.01,0,0-.01-.03-.03-.04-.04,0,0-.02-.01-.02-.02,0,0,0,0,0,0h0ZM5.5,3.07s.01,0,.01,0c0,0,0,0-.02,0-.03,0-.11,0-.11,0,0,0,0,0,.01,0,.02,0,.04,0,.06,0,.02,0,.03,0,.04,0h0ZM4.21,3.07c.06,0,.1,0,.1,0,0,0-.23.02-.23,0,0,0,.01,0,.13,0h0ZM3.96,3.08h0s.03,0,.03,0c0,0-.17,0-.17,0,0,0,.09,0,.14,0h0ZM5.67,3.08s.07,0,.07,0-.02,0-.06,0-.06,0-.07,0c0,0,.02,0,.06,0ZM4.5,3.09h0s0,0,.01,0c.04,0,.06.01.06.02,0,0-.02,0-.04,0-.01,0-.02,0-.03-.01,0,0,0,0,0,0ZM4.27,3.09h0s0,0,0,0c0,0,0,.02-.01.02,0,0,0,0,0,0,0,0,0-.01.01-.01h0ZM5.44,3.09s0,0,0,0c0,0-.01,0-.01,0,0,0,0,0,0,0ZM5.49,3.09s0,0,0,0c0,0,0,0,0,0,0,0,0,0,0,0,0,0,0,0,0,0h0ZM5.72,3.09s.02,0,.02,0c0,0-.01,0-.08,0-.07,0-.08,0-.08,0s.01,0,.06,0c.04,0,.06,0,.08,0ZM4.32,3.09s0,0,0,0c0,0-.01,0-.02,0,0,0,0-.01.01-.01h0ZM4.22,3.09s0,.02,0,.02c0,0,0,0,0,0,0,0,0-.01,0,0ZM4.17,3.09s0,0,0,0c0,0,0,0-.01,0,0,0,0-.01,0-.01h0ZM3.92,3.09s.07,0,.07,0-.03,0-.07,0-.07,0-.07,0,.03,0,.07,0h0ZM5.39,3.09h0s0,0,0,0c0,0,0,0-.01,0,0,0,0-.01,0-.01h0ZM4.34,3.1s0,0,0,0c0,0,0,0,0,.01,0,0-.02,0-.02,0,0,0,0,0,0-.01,0,0,0,0,0,0ZM4.08,3.1s0,0,0,0,0,0,0,0c0,0,0,0,0,0,0,0,0,0,0,0ZM5.34,3.1s0,0,0,0c0,0,0,0,0,0,0,0,0,0,0,0,0,0,0,0,0,0ZM6.13,3.1s-.01,0-.02.01c-.02.03,0,.09.02.09,0,0,.01,0,.01,0,0,0,0,0,0-.01,0,0,0-.06,0-.06,0,0,0,0,0,0,0,0,0,0-.01,0h0ZM5.42,3.1h0s0,0,0,0c0,0-.02.01-.02,0,0,0,0-.01.02-.01h0ZM5.47,3.1s0,0,0,0c0,0,0,0,0,.01,0,0,0,0,0,0,0,0,0-.01,0-.01ZM5.37,3.1s0,.02,0,.02c0,0,0,0-.01,0,0,0,0-.02.01-.01ZM5.51,3.1s0,0,0,0,0,0,0,0c0,0,0,0,0,0,0,0,0,0,0,0,0,0,0,0,0,0ZM3.46,3.1s-.01,0-.02.01c-.02.03,0,.09.02.09,0,0,.01,0,.01,0,0,0,0-.01,0-.01,0,0,0-.06,0-.06,0,0,0,0,0,0,0,0,0,0-.01,0h0ZM4.24,3.1s0,0,0,0c0,0,0,0,0,0,0,0,0,0,0,0,0,0,0,0,0,0h0ZM4.7,3.11h0s0,0,0,0c.02,0,.04,0,.06,0h.08s.04,0,.06,0c.04,0,.04,0,.04,0,0,0-.02,0-.03,0h-.1c-.09,0-.12-.01-.12-.02,0,0,0,0,0,0ZM4.29,3.11s0,0,0,0c0,0,0,0,0,0,0,0,0,0,0,0,0,0,0,0,0,0h0ZM4.2,3.11s0,.01,0,.01c0,0,0,0,0,0,0,0,0,0,.01,0h0ZM4.11,3.11s0,0,0,0c0,0,0,0,0,0s0,0,0,0c0,0,0,0,0,0ZM4.15,3.11s0,0,0,0c0,0,0,0,0,0,0,0,0,0,0,0,0,0,0,0,0,0h0ZM3.92,3.12c.07,0,.08,0,.08,0s-.01,0-.09,0c-.05,0-.09,0-.09,0,0,0,.02-.01.1-.01ZM5.63,3.12c.08,0,.14,0,.13.01,0,0-.1,0-.14,0-.03,0-.04,0-.04,0,0,0,.01,0,.05,0ZM6.13,3.12s0,0,0,0c0,0,.01.01.01.02,0,.01,0,.02,0,.03-.01.02-.01.02-.02,0,0,0,0-.02,0-.03,0-.02,0-.02,0-.03,0,0,0,0,.01,0h0ZM5.51,3.12h0s0,.04,0,.05v.02s-.06,0-.06,0c-.03,0-.07,0-.09,0-.04,0-.04,0-.04-.01,0,0,0-.02,0-.03v-.02s.02,0,.02,0c.01,0,.05,0,.1,0h.08ZM3.45,3.12s0,0,0,0c0,0,.01.01.01.02,0,.01,0,.02,0,.03-.01.02-.01.02-.02,0,0,0,0-.02,0-.03,0-.02,0-.02,0-.03,0,0,0,0,.01,0ZM4.3,3.13c.06,0,.06,0,.05.04,0,.02,0,.02-.02.03,0,0-.07,0-.14,0h-.12s0,0,0,0c0,0,0-.06,0-.06h.14s.07,0,.09,0h0ZM4.38,3.13s.01,0,.02,0c.01,0,.01,0,0,.01,0,0-.01,0-.02,0,0,0-.01,0-.01-.01,0,0,0-.01,0-.01h0ZM4.82,3.14c.07,0,.08,0,.07,0,0,0-.05,0-.1,0-.01,0-.02,0-.03,0,0,0,.02,0,.06,0h0ZM6.28,3.14s-.01,0-.01.01c0,0,0,.01,0,.01,0,0,.02,0,.02-.01,0-.01,0-.01,0-.01h0ZM5.97,3.14s-.02,0-.02.02c0,0,0,0,.02,0,.01,0,.01,0,.01-.01s0-.01-.01-.01ZM5.29,3.14s0,0,0,0c0,0,0,.04,0,.05,0,0,0,0-.01,0,0-.02,0-.04,0-.05ZM3.6,3.14s-.01,0-.01.01c0,0,0,.01,0,.01,0,0,.02,0,.02-.01,0-.01,0-.01,0-.01h0ZM3.3,3.14s-.02,0-.02.02c0,0,0,0,.02,0,.01,0,.01,0,.01-.01s0-.01-.01-.01ZM5.68,3.14c.07,0,.1,0,.1,0,0,0,0,0-.01,0-.02,0-.13,0-.17,0-.02,0-.02,0-.02,0,0,0,.01,0,.1,0h0ZM3.95,3.14s.05,0,.05,0c0,.01-.19.02-.2,0,0-.01.02-.02.15-.01ZM4.74,3.15s.03,0,.05,0c.1,0,.14,0,.14.01,0,0-.1,0-.12,0h-.04s-.03,0-.03-.01c0,0,0,0,.01,0h0ZM5.27,3.16s.02.01,0,.02c0,0,0,.01-.02.01-.01,0-.02,0-.02,0,0,0,0,0,0-.02,0-.01,0-.01.02-.02,0,0,0,0,.02,0h0ZM5.66,3.17s.08,0,.08,0c0,0,0,0,0,0-.01,0-.16,0-.16,0,0,0,0,0,0,0,0,0,.04,0,.08,0h0ZM4.41,3.17s.05,0,.07,0c.03.01.08.02.13.03.03,0,.04,0,.04.01,0,0,0,0-.04,0-.02,0-.06,0-.1,0-.07,0-.07,0-.08-.01,0,0-.02-.01-.04-.01-.01,0-.03,0-.03,0,0,0,.02-.01.04-.01h0ZM5.2,3.17s.01,0,.01.02c0,0,0,.02,0,.03,0,.01-.02.01-.03,0,0-.02,0-.05.02-.05ZM3.91,3.17s.08,0,.09,0c0,0,0,0-.04,0-.08,0-.13,0-.13,0,0,0,0,0,0,0,0,0,.04,0,.09,0ZM4.82,3.18h0s.09,0,.09,0c.02,0-.04.01-.11,0-.04,0-.06,0-.06,0,0,0,.04,0,.08,0ZM5.16,3.19s0,0,0,.01c0,0,0,.01,0,.02,0,0-.03,0-.06,0-.03,0-.07,0-.08,0-.02,0-.02,0-.02,0,0,0,.02,0,.04-.01.02,0,.05-.01.08-.02.03,0,.04,0,.05,0ZM5.66,3.2s.08,0,.08,0c.01,0,0,.01-.08.01-.05,0-.08,0-.08,0,0,0,0,0,0,0,0,0,.04,0,.08,0h0ZM3.89,3.2s.06,0,.08,0c.05,0,.02.01-.06.01-.07,0-.08,0-.08,0,0,0,.02,0,.06,0ZM4.89,3.2s.03,0,.03,0c0,0-.13.01-.13,0,0,0,.06,0,.1,0h0ZM4.4,3.2s.01,0,.02,0c0,0,0,.02-.02.02-.01,0-.01,0-.01-.01,0,0,0-.01.01-.01h0ZM5.49,3.2h0s0,0,0,0c0,0-.01.01-.02,0,0,0,0-.01.01-.01ZM5.44,3.2s.01,0,0,0c0,0-.02,0-.02,0,0,0,0,0,0,0ZM5.33,3.2s0,0,0,0c0,0-.01,0-.01,0,0,0,0,0,0,0h0ZM4.24,3.2s.01,0,.01,0c0,0-.01.01-.02,0,0,0,0-.01,0-.01h0ZM4.29,3.2s0,0,0,0c0,0,0,0,0,0,0,0,0,0,0,0,0,0,0,0,0,0ZM5.25,3.2s.02,0,.02,0c0,0,0,.01,0,.02,0,.02-.01.02-.04.01-.01,0-.02-.02,0-.03,0,0,.01,0,.03,0h0ZM5.38,3.2s0,0,0,0c0,0,0,0-.01,0,0,0,0-.01,0-.01h0ZM4.37,3.21s0,0,0,0c0,0,0,.02-.01.02,0,0,0,0,0-.01,0,0,0,0,0,0h0ZM5.3,3.21s0,0,0,0c0,0,0,.01,0,.01,0,0,0,0,0,0,0,0,0-.01,0-.01h0ZM4.18,3.21h0s.02,0,.02,0c0,0-.01,0-.02,0,0,0,0,0,0-.01ZM4.33,3.21s.02,0,.02.01c0,0,0,0-.01,0,0,0,0,0,0,0h0ZM4.14,3.21s.01,0,0,.01c0,0-.01,0-.01,0,0-.01,0-.02.01-.01h0ZM4.09,3.21s.01,0,0,.01c0,0,0,0-.01,0,0,0,0-.02,0-.02h0ZM5.47,3.21h0s0,.01,0,.02c0,0-.01,0-.01,0,0,0,0-.02.01-.02h0ZM5.41,3.21s0,0,0,0c0,0,0,.02,0,.02,0,0-.01,0-.01,0,0,0,0,0,0-.01,0,0,0,0,0,0h0ZM4.32,3.22s0,0,0,0c0,0,0,0,0,0,0,0-.02,0-.02,0,0,0,0-.01.01-.01h0ZM4.74,3.22h.09c.09,0,.09,0,.09.01,0,0,0,.01-.01.01-.07.01-.17.02-.17,0,0,0,0-.01,0-.02h0ZM5.36,3.22s0,.01,0,.02c0,0,0,0,0,0,0,0,0,0,0,0h0ZM5.51,3.22s0,0,0,0c0,0,0,0,0,0,0,0,0,0,0,0h0ZM4.11,3.22s0,0,0,0c0,0,0,0,0,0,0,0-.01,0,0,0,0,0,0,0,0,0h0ZM5.66,3.22c.08,0,.12,0,.11,0,0,0-.05,0-.1,0-.08,0-.09,0-.09,0s.01,0,.08,0ZM3.91,3.22c.07,0,.09,0,.09,0,0,0-.02,0-.1,0-.06,0-.1,0-.1,0,0,0,.02,0,.11,0h0ZM4.17,3.22s0,0,0,0c0,0,0,0,0,0s-.01,0,0,0c0,0,0,0,0,0ZM4.22,3.22s0,0,0,0c0,0,0,0,0,0,0,0,0,0,0,0,0,0,0,0,0,0ZM4.26,3.22s0,0,0,0c0,0,0,0,0,0s0,0,0,0c0,0,0,0,0,0ZM4.54,3.22s.03,0,.05,0c.02,0,.02,0-.01,0-.04,0-.08,0-.12.02-.05.01-.05,0-.04,0,0-.02.07-.03.12-.03ZM5.11,3.23s.08,0,.11.01c.05.02.1.03.1.04,0,0,0,0-.04,0-.07-.03-.17-.04-.22-.03-.04,0-.05,0-.03,0,.01,0,.05-.01.09-.01h0ZM4.41,3.23s0,0,0,0c0,0-.04.03-.05.02,0,0,.01-.01.03-.02,0,0,0,0,0,0ZM5.41,3.24c.05,0,.07,0,.06,0,0,0-.16,0-.16,0,0,0,.04,0,.1,0ZM4.31,3.24s.02,0,.03,0c0,0,0,0-.03,0-.02,0-.04,0-.04,0-.05,0-.17,0-.17,0,0,0,.02,0,.13-.01.04,0,.06,0,.08,0ZM4.58,3.25s.05,0,.05,0c0,0,0,0-.02,0-.02,0-.13.01-.15.02-.02,0-.04.01-.06.02t-.05,0s.09-.04.15-.05c.02,0,.05,0,.08,0h0ZM5.6,3.25h0s0,0,0,.02c0,.01-.03.03-.03.03,0,0,0,0,.01-.02,0-.01.02-.02.02-.03ZM4,3.25s0,0,.02,0c.02.02.04.02.07.02.01,0,.02,0,.01,0,0,0-.03,0-.04,0-.02,0-.04-.02-.05-.03,0,0,0-.01,0-.01h0ZM5.09,3.25s.11,0,.14.02c.03,0,.07.03.07.03,0,0,0,0,0,0-.02,0-.04-.01-.06-.02-.06-.01-.07-.02-.14-.02-.04,0-.08,0-.08,0,.02,0,.05-.01.07-.02ZM3.97,3.25s.01,0,.03.02c.01.01.03.03.04.03,0,0,.02,0,.02,0,0,0-.02,0-.04,0-.02-.01-.05-.04-.04-.05ZM4.9,3.25s0,0,0,0c0,0-.17.02-.17.01,0,0,.02,0,.04,0,.02,0,.06,0,.08,0,.02,0,.03,0,.04,0ZM5.44,3.26h0s.06,0,.06,0c0,0-.11.02-.12.01h-.02s-.03-.01-.01-.01c.02,0,.05,0,.09,0h0ZM4.61,3.27c.07,0,.07.01,0,.01-.06,0-.14.02-.18.03-.03.01-.04.01-.04,0,0,0,.02-.02.07-.03.06-.02.11-.02.16-.02ZM4.91,3.27h0s0,0,0,0c0,0-.05.01-.1.02-.06,0-.06,0-.06,0,0,0,0,0,0,0,0,0,.04,0,.08,0h.08ZM5.57,3.27s-.02.02-.04.03c-.01,0-.02,0-.01,0,0,0,0,0,0,0,0,0-.05,0-.07,0-.04-.02-.03-.03.01-.02.01,0,.02,0,.02,0,0,0,.02,0,.02,0s.03,0,.04-.01c.01,0,.02-.01.03,0h0ZM5.09,3.28s.07,0,.11,0c.05.01.07.02.06.02,0,0,0,0-.04,0-.03,0-.05,0-.11,0-.05,0-.08,0-.08,0,0,0,.03-.01.06-.01h0ZM4.16,3.29s0,0,0,0c0,.01-.04.03-.06.03-.02,0-.02,0,.02-.02.01,0,.03-.01.04-.02ZM4.63,3.29s.02,0,.02,0c-.02,0-.03,0-.05,0-.04,0-.14.02-.17.03,0,0-.01,0-.01,0,0,0,0,0,0,0,.02,0,.03-.01.05-.02.04-.01.06-.02.12-.02.02,0,.04,0,.05,0h0ZM4.91,3.29s.01,0,.01,0c0,.01-.11.03-.17.03-.03,0-.04,0-.04,0,0,0,0,0,.04-.01h.09s.05-.01.06-.01h0ZM5.13,3.3s.05,0,.04,0c0,0-.12,0-.12,0,0,0,.03-.01.07-.01h0ZM4.62,3.31s.03,0,.02,0c0,0-.01,0-.03,0-.02,0-.06.01-.1.02-.08.02-.07.02-.08.01,0,0,0,0,.01-.02.02-.01.05-.02.1-.02.02,0,.05,0,.07,0h0ZM5.18,3.31s0,0,0,0c0,0,0,0,0,0,0,0,0,0,0,0,0,0,0,0,0,0ZM4.91,3.32s.03,0,.03,0c0,.01-.19.03-.19.02,0,0,.02,0,.04,0,.02,0,.05,0,.06,0,.02,0,.04,0,.06,0ZM5.74,3.4s.02,0,.01,0c0,0-.01,0-.02,0-.01,0-.01.02,0,.02ZM5.74,3.36s0,0,0,0c0,0,0,0,0,0ZM5.72,3.34s.06-.02.44-.02c.32,0,.36,0,.36,0v.09s0,0,0,0c-.01,0-.79,0-.79,0,0,0,0,0,0-.01v-.07ZM6.5,3.38s-.01,0,0,0,.01,0,0,0ZM6.5,3.34s-.01,0-.01,0,0,0,.01,0c0,0,.01,0,.01,0,0,0-.01,0-.01,0h0ZM5.24,3.32s0,0,0,0c0,0,0,0,0,0,0,0,0,0,0,0,0,0,0,0,0,0h0ZM3.79,3.32s.06,0,.07,0c0,0,0,.02-.01.02,0,0,0,0,0,.01.01.01.01.03,0,.03s-.02,0,0,.01c.02,0,.02.02,0,.03,0,0-.14,0-.38,0-.44,0-.41,0-.41,0,0,0,0,0,0-.02,0,0,0-.01.01-.02.01,0,.01,0,0-.01-.01,0-.01,0,0-.03v-.03s.06,0,.06,0c.03,0,.21,0,.4,0,.14,0,.22,0,.27,0ZM5.18,3.33s0,0,0,0c0,0,0,0,0,0s0,0,0,0c0,0,0,0,0,0ZM4.94,3.34s0,0,0,0c0,.01-.17.02-.19.02,0,0,0,0,.02,0,.01,0,.06,0,.09,0h.07ZM6.12,3.34s-.01,0-.02,0c0,0,0,0,.02,0s.02,0,.02,0c0,0,0,0-.02,0h0ZM6.24,3.34s-.01,0-.01,0c0,0,0,0,.01,0s.01,0,.01,0c0,0,0,0-.01,0h0ZM6.3,3.34s-.02,0-.02,0c0,0,0,0,.02,0s.02,0,.02,0c0,0,0,0-.02,0h0ZM6.35,3.34s-.01,0-.01,0c0,0,0,0,.02,0s.01,0,.01,0c0,0,0,0-.02,0h0ZM6.41,3.34s-.01,0-.02,0c0,0,0,0,.02,0s.02,0,.02,0c0,0,0,0-.02,0h0ZM6.46,3.34s-.01,0-.01,0c0,0,0,0,.02,0s.01,0,.01,0c0,0,0,0-.02,0h0ZM6.18,3.34s-.01,0-.01,0c0,0,0,0,.02,0,.01,0,.02,0,.01,0,0,0-.01,0-.02,0ZM6.07,3.35s-.01,0-.02,0t0,0s.01,0,.02,0c0,0,0,0,0,0h0ZM6,3.35s0,0,0,0c0,0,0,0,.02,0,.01,0,.01,0,0,0,0,0,0,0-.01,0h0ZM3.75,3.35s-.02,0-.02,0c0,0,0,0,.02,0,0,0,.02,0,.02,0s0,0-.01,0ZM3.8,3.35s0,0,0,0c0,0,0,0,.01,0s0,0,0,0c0,0,0,0-.01,0ZM5.78,3.35s-.01,0-.01,0c0,0,0,0,.01,0,0,0,.01,0,.01,0,0,0,0,0-.01,0ZM5.83,3.35s-.02,0-.01,0c0,0,.02,0,.02,0,0,0,0,0,0,0ZM5.95,3.35s-.01,0-.01,0c0,0,0,0,.01,0,0,0,0,0,.01,0,0,0,0,0-.01,0ZM5.88,3.35s0,0,0,0,.01,0,0,0c0,0-.01,0-.02,0ZM4.53,3.35s0,0,0,0c0,0,0,0-.02.02-.02.01-.04.02-.05,0,0,0,0-.01.04-.02,0,0,.01,0,.01,0h0ZM5.23,3.35s0,0,0,0c0,.01,0,.03,0,.04,0,.04,0,.04-.04.07l-.07.04c-.09.05-.19.1-.28.15l-.04.02h-.02s-.05-.01-.05-.01c-.05-.02-.1-.04-.15-.06h-.02s0-.09,0-.09c0-.04,0-.08,0-.09,0,0,0,0,.02-.01.02,0,.04-.01.05-.02l.04-.02h.08s.1,0,.14-.01h.06s.03.01.03.01t.08.02h.05l.04-.02s.05-.02.06-.02h0ZM4.62,3.36h0s0,0,.01,0c0,0,0,.01-.02.02-.02.02-.02.02-.04.02-.01,0-.02,0-.03,0-.03,0,0-.03.05-.04.01,0,.02,0,.03,0h0ZM3.46,3.36s-.01,0-.01,0c0,0,0,0,.01,0s.01,0,.01,0c0,0,0,0-.01,0ZM3.52,3.36s-.01,0-.01,0c0,0,0,0,.01,0s.01,0,.01,0,0,0-.01,0ZM3.57,3.36s-.01,0-.01,0c0,0,0,0,.01,0,0,0,.01,0,.01,0,0,0,0,0-.01,0ZM3.63,3.36s0,0,0,0c0,0,0,0,.01,0,0,0,0,0,0,0,0,0,0,0-.01,0ZM3.69,3.36s-.01,0-.01,0c0,0,0,0,.01,0,0,0,.01,0,.01,0,0,0,0,0-.01,0ZM3.4,3.36h-.01s0,0,0,0c.01,0,.01,0,.02,0,0,0,0,0,0,0,0,0-.01,0-.02,0ZM3.28,3.36s0,0,0,0c.01,0,.02,0,.01,0,0,0,0,0-.01,0h0ZM3.23,3.36h-.01s0,0,0,0c0,0,.02,0,.02,0,0,0,0,0,0,0ZM3.08,3.36s-.01,0-.01,0c0,0,0,0,.01,0,0,0,.01,0,.01,0,0,0,0,0-.01,0h0ZM3.12,3.36s-.01,0-.01,0c0,0,0,0,.01,0s.01,0,.01,0c0,0,0,0-.01,0ZM3.18,3.36s-.02,0-.02,0c0,0,0,0,.02,0s.01,0,.02,0c0,0,0,0-.02,0ZM3.35,3.36s-.01,0-.01,0c0,0,.01,0,.02,0,0,0,0,0,0,0h0ZM6.01,3.38h0s-.01,0-.02,0c0,0,0,0,0,0,0,0,.02,0,.02,0,0,0,0,0,0,0h0ZM6.12,3.38s-.01,0-.02,0c0,0,0,0,.02,0s.02,0,.02,0c0,0,0,0-.02,0h0ZM6.17,3.38s-.01,0-.01,0c0,0,0,0,.01,0,0,0,.01,0,.01,0,0,0,0,0-.01,0h0ZM6.24,3.38s-.02,0-.02,0c0,0,0,0,.02,0s.02,0,.02,0c0,0,0,0-.02,0h0ZM6.3,3.38s-.02,0-.02,0c0,0,0,0,.02,0,.01,0,.02,0,.01,0,0,0,0,0-.02,0h0ZM6.35,3.38s-.01,0-.02,0c0,0,0,0,.02,0s.02,0,.02,0c0,0,0,0-.02,0h0ZM6.4,3.38s-.01,0-.01,0c0,0,0,0,.01,0s.01,0,.01,0,0,0-.01,0h0ZM6.46,3.38s-.01,0-.01,0c0,0,0,0,.01,0s.01,0,.01,0,0,0-.01,0h0ZM6.06,3.38s-.02,0-.02,0c0,0,.02,0,.02,0,0,0,0,0,0,0ZM3.8,3.39s-.02,0-.02,0c0,0,0,0,.02,0s.02,0,.02,0c0,0,0,0-.02,0ZM5.96,3.39s-.03,0-.02,0c0,0,.03,0,.03,0,0,0,0,0,0,0h0ZM5.83,3.39s0,.01,0,.01c0,0,.02,0,.02,0,0,0-.02,0-.02,0ZM5.9,3.39s-.03,0-.02,0c0,0,.03,0,.03,0,0,0,0,0,0,0h0ZM3.69,3.39s-.02,0-.02,0c0,0,0,0,.02,0s.02,0,.02,0c0,0,0,0-.02,0h0ZM3.74,3.39s-.01,0-.01,0c0,0,0,0,.01,0,0,0,.01,0,.01,0,0,0,0,0-.01,0ZM5.79,3.39s-.01,0-.01,0c0,0,0,0,.01,0,0,0,.01,0,.01,0,0,0,0,0-.01,0ZM3.64,3.39s-.02,0-.02,0c0,0,0,0,.02,0s.02,0,.02,0c0,0,0,0-.02,0ZM3.57,3.4s-.01,0-.01,0c0,0,0,0,.02,0,0,0,.01,0,.01,0,0,0,0,0-.02,0ZM3.52,3.4s-.01,0-.01,0c0,0,0,0,.01,0,0,0,0,0,.01,0,0,0,0,0,0,0,0,0,0,0-.01,0ZM3.36,3.4s-.01,0-.02,0c0,0-.01,0,0,0,0,0,.02,0,.03,0,0,0,0,0,0,0h0ZM3.45,3.4s-.01,0,0,0c.01,0,.01,0,.02,0,0,0,0,0,0,0,0,0-.01,0-.02,0h0ZM3.24,3.4s-.02,0-.02,0c0,0,.02,0,.02,0,0,0,0,0,0,0ZM3.13,3.4s-.02,0-.02,0,0,0,.02,0c0,0,.02,0,.02,0,0,0,0,0-.02,0ZM3.18,3.4s-.02,0-.02,0,0,0,.01,0,.01,0,.02,0c0,0,0,0-.01,0ZM3.28,3.4s-.02,0-.02,0,0,0,.01,0,.01,0,.02,0c0,0,0,0-.01,0ZM3.4,3.4s-.01,0-.01,0c0,0,.02,0,.03,0,0,0,0,0-.01,0ZM4.5,3.41s0,0,0,0c0,0,.05.07.05.07,0,0,0,0-.02-.01,0,0-.02-.03-.03-.04-.01-.01-.02-.02-.01-.02h0ZM4.54,3.41s0,0,.01,0c.01,0,.01,0,.01.02,0,.02,0,.02-.02,0,0-.01-.01-.02,0-.02ZM5.23,3.48s0,0,0,.12c0,.06-.03.16-.05.21-.05.14-.13.26-.23.32-.03.02-.1.05-.12.06h-.01s0-.19,0-.19c0-.12,0-.21,0-.24,0-.04,0-.05,0-.06.03-.02.06-.03.09-.04.09-.04.24-.12.3-.16.02-.01.04-.02.04-.02ZM4.56,3.62s.02,0,.03,0c.01,0,.05.01.07.02l.07.03s.03.01.03.01c.01.01-.19.09-.29.11h-.05s0,.01,0-.01c0-.02.01-.12.01-.13.04-.02.09-.03.13-.04h0ZM4.39,3.66s.01,0,0,.08c0,.05,0,.06-.02.04-.02-.03-.02-.06-.02-.09,0-.02,0-.02.01-.03,0,0,.02,0,.02,0h0ZM4.31,3.68h.02s0,.04,0,.04c0,.05,0,.07.03.1l.02.03v.07c0,.05,0,.1,0,.15,0,.04,0,.09,0,.13v.05s-.02,0-.02,0c0,0-.02,0-.03,0-.1-.02-.19-.04-.21-.05,0,0-.01-.1,0-.19,0-.13.02-.29.03-.3,0,0,.14-.02.16-.02h0ZM3.7,3.7s0,0,0,0c.02,0,.02,0,.01.05,0,.02-.01.05-.01.06,0,.02,0,.02-.02.02,0,0-.01,0-.01,0h0s0-.01,0,0c.01,0,.02,0,.02-.03,0,0,0-.02,0-.02,0,0,0-.02,0-.02-.01,0-.01-.01,0-.02.01,0,0-.02,0-.02,0,0,0,0,0,0,0,0,0,0,0,0h0ZM4.09,3.7s.03,0,.03,0c0,0,0,.05,0,.09,0,.05-.01.15-.01.23,0,.08,0,.14,0,.15,0,0,0,0-.05,0-.09-.03-.17-.07-.25-.11-.05-.03-.05-.03-.05-.11,0-.07.02-.13.04-.2v-.04s.14,0,.14,0c.07,0,.14,0,.16,0h0ZM3.64,3.71s0,.02-.02.03c-.02.01-.02.01-.03,0,0,0,.02-.03.03-.03,0,0,.02,0,.02,0h0ZM4.78,3.71s.02.16.02.26c0,.1,0,.22-.01.23,0,.01-.12.03-.19.04-.05,0-.11,0-.16,0h-.03s0-.06,0-.06c0-.11,0-.22.01-.33h0s0-.02.01-.02c.08-.02.16-.05.24-.08.09-.04.11-.04.11-.04h0ZM3.75,3.72s0,0,0,.04c-.02.07-.03.13-.04.2,0,.01,0,.02,0,.03,0,0,0,0,0-.04,0-.07.02-.13.03-.18,0-.03.02-.05.02-.05h0ZM3.76,3.74h0s0,.02-.01.07c-.01.06-.02.12-.02.17,0,.02,0,.03,0,.04,0,0,0-.01,0-.06,0-.08.02-.18.04-.21,0,0,0,0,0,0ZM5.22,3.74s.03.02.15.16c.14.15.28.31.43.46.08.08.15.15.23.22.09.08.17.16.26.24.18.16.36.31.56.45.06.05.1.07.11.08,0,0,0,0,0,0l-.03-.02c-.24-.17-.47-.36-.7-.56l-.11-.1s-.06-.05-.08-.07l-.11-.1s-.09-.09-.14-.14c-.17-.17-.33-.35-.5-.53l-.05-.07s-.02-.03-.02-.03h0ZM3.67,3.75h0s0,.04,0,.04c0,0-.01,0-.01,0,0,0,0-.01,0-.02h0ZM3.62,3.75h0s0,0,0,0c0,0,0,0-.01.01-.01,0-.02,0-.02,0,0,0,0,0,.01-.01,0,0,0,0,.01,0h0ZM3.63,3.76s0,0,0,0c0,0,0,0,0,.02,0,.02-.01.02-.02,0,0,0,0-.01,0-.02,0,0,0,0,0,0h0ZM3.65,3.77s0,.01,0,.05c0,.03-.01.05-.01.06,0,0,0,.02,0,.02,0,0,0,0,0-.03,0-.03.02-.1.02-.1,0,0,0,0,0,0h0ZM5.22,3.78s.02.01.03.03c.16.18.31.35.48.51l.09.1c.17.16.34.32.52.48.17.15.35.29.52.43.03.02.05.04.05.04,0,0-.02.01-.07.02-.02,0-.04,0-.05.01-.01,0-.02,0-.04,0-.02,0-.05.02-.06.02,0,0-.01,0-.02,0s-.02,0-.03,0c0,0-.02,0-.08-.04-.15-.11-.29-.23-.44-.34l-.06-.05c-.14-.12-.28-.24-.41-.37-.01-.01-.06-.05-.09-.09-.13-.12-.42-.42-.47-.48l-.02-.02.03-.04c.04-.06.07-.13.09-.19,0-.01,0-.02.01-.02h0ZM3.56,3.78s0,.05-.02.06c0,0,0,0,0,0,0-.02.01-.06.02-.06h0ZM3.58,3.79s.02.02.02.03c0,0-.01.01-.03.01,0,0-.01,0-.01,0,0-.01,0-.03.01-.03ZM3.65,3.83s0,0,0,0c.01.02.01.04,0,.05,0,.01,0,.02,0,0,0,0,0-.01,0-.03,0-.01,0-.02,0-.03.01,0,.01,0,0,.04,0,.02,0,.05,0,.06,0,.03,0,.03,0,.03,0,0,0,0,0-.01,0,0,0-.02,0-.02,0-.01,0-.02,0-.01-.02,0-.03-.03-.01-.03,0,0,0-.02,0-.02-.01,0-.01,0,0-.03,0-.01,0-.02,0-.02h0ZM3.61,3.84s0,0,0,.01c0,.02,0,.02-.01,0,0-.01,0-.02,0-.02h0ZM3.86,3.84s0,.02,0,.06c0,.04,0,.04,0,.02,0-.01,0-.02,0-.03,0,0,0-.02,0-.03,0,0,0,0,0-.01h0ZM4.02,3.85s0,.05,0,.07c0,.08,0,.07.01-.01,0-.03,0-.06,0-.06h0ZM3.58,3.85s.02.02.02.03c0,0,0,0-.01,0,0,0,0-.01,0-.02,0,0,0,0,0,0h0ZM3.57,3.87s.02.04.02.05c0,.02,0,.02-.03,0-.01-.02-.02-.02,0-.04,0,0,0-.01,0,0h0ZM3.84,3.87s0,0,0,.01c0,.01,0,.02,0,.02,0,0,0-.01,0-.02,0,0,0,0,0,0h0ZM3.88,3.87s0,0,0,0c0,0,0,.03,0,.03,0,0,0,0,0-.02,0,0,0-.01,0-.01h0ZM4.04,3.88s0,.01,0,.03,0,.03,0,.03c0,0,0-.01,0-.03s0-.03,0-.03ZM3.99,3.88s0,0,0,0c0,.01,0,.05,0,.04,0,0,0-.02,0-.03,0,0,0-.01,0-.02h0ZM4.25,3.89s0,.12,0,.11c0-.02,0-.04,0-.06,0-.03,0-.06,0-.05ZM4.22,3.92s0,0,0,0c0,0,0,.05,0,.04,0,0,0-.01,0-.03s0-.02,0-.02ZM4.27,3.92s0,0,0,.02c0,.02,0,.02,0,.02,0,0,0-.02,0-.03,0,0,0,0,0,0ZM5.2,3.93s-.02.01,0,.02c.06.02.1.07.08.11,0,.01-.02.01-.03,0,0,0-.01,0-.01,0,0,0,0,.02,0,.03,0,0,.04,0,.05,0,0,0,0,0,.02,0,.01,0,.03.01.04,0,0,0,0,0,0-.02,0-.02,0-.02-.01-.03-.01,0-.02,0-.01.01,0,0,0,.02,0,.02,0,0-.02,0-.04-.05-.02-.05-.03-.06-.07-.09-.02-.01-.03-.02-.05-.02h0ZM3.63,3.93s.02.02.02.03c0,.01,0,.01-.02,0,0,0,0-.03,0-.03ZM5.07,4.06h0s.04.03.12.12c.2.21.26.27.41.41.03.03.05.05.08.08.11.1.22.2.33.3.03.03.4.33.48.39.08.06.13.09.13.1,0,0,0,0-.04-.02-.17-.12-.33-.25-.49-.38-.05-.04-.1-.08-.14-.12l-.08-.07s-.05-.05-.08-.07c-.09-.08-.18-.16-.27-.25-.15-.14-.29-.29-.42-.44-.02-.03-.03-.04-.03-.05h0ZM5.4,4.13s0,0-.01,0c-.02.01-.02.03-.01.06,0,.03,0,.03,0,.04,0,.01-.02.01-.03,0,0,0,0-.01,0-.03,0-.02,0-.02,0-.01-.01,0-.02.02-.02.04,0,.02.03.04.04.04,0,0,.02,0,.03-.01.01,0,.02-.01.02,0,0,0,.03.02.06.03.03.01.05.01.08,0,.01,0,.02,0,.03,0,.02,0,.02.02,0,.02-.01,0-.01.01,0,.02.01,0,.02,0,.03,0,.01-.01.01-.04,0-.05,0,0-.01-.02-.02-.03,0,0,0-.02-.01-.03-.01-.01-.04-.02-.05,0,0,0,0,.02,0,.03,0,0,.02,0,.02,0,0,0,0,0,.01,0,0,0,0,.01,0,.02-.01.03-.06.02-.11,0-.03-.02-.04-.02-.05-.04,0-.01-.01-.03-.01-.04,0-.02,0-.02.01-.02.02,0,.02-.02,0-.02,0,0,0,0-.01,0h0ZM4.09,4.2s-.24.26-.42.43c-.27.26-.56.5-.86.73,0,0,0,0,0,0,0,0,0,0,0,0,0,0,0,0,0,0,.02-.02.06-.05.09-.07.12-.09.22-.18.25-.2l.07-.06c.1-.08.19-.17.28-.25.05-.05.14-.13.17-.16.12-.11.24-.23.35-.35.06-.06.08-.09.09-.08ZM4.11,4.21h.05s.07.02.09.03c.02,0,.03,0,.05.01,0,0-.04.04-.05.05-.01,0-.02,0-.03,0,0,0-.02,0-.02-.01,0,0,0-.01,0-.03,0-.02,0-.02,0-.02,0,0-.01,0-.02.02,0,.01-.02.02-.03.03-.01,0-.02.01-.02.02,0,.03,0,.04.02.04.01,0,.01,0,0-.02-.02-.02,0-.03.03-.01.04.02.08,0,.11-.03.01-.01.01-.02,0-.03,0,0,0,0,0-.01,0,0,.02,0,.03,0,.02,0,.03,0,.05,0,.02,0,.03,0,.03,0,0,0-.11.13-.2.23-.11.12-.16.16-.26.26-.11.1-.22.2-.34.3-.03.03-.03.03-.11.09l-.18.15c-.07.06-.14.11-.21.17,0,0-.01,0-.04,0-.01,0-.03,0-.03-.01,0-.01-.03-.02-.06-.03-.02,0-.04,0-.04-.01-.01,0-.03,0-.04,0-.03,0-.06-.01-.06-.02,0,0,.06-.05.25-.21.09-.07.19-.15.28-.23.09-.08.17-.16.26-.24.22-.2.22-.2.37-.36.06-.06.11-.11.12-.12h.02ZM4.44,4.27h0s0,.01-.04.05c-.06.07-.09.1-.18.2-.16.17-.34.34-.52.49-.13.11-.16.13-.25.21-.03.03-.07.05-.1.08,0,0-.03.03-.05.04-.02.02-.05.04-.07.05-.04.03-.08.06-.12.08,0,0,0,0,0,0,0,0,0-.01.02-.02.03-.03.03-.03.09-.07.07-.06.15-.12.22-.17.06-.05.13-.1.19-.16.18-.15.35-.3.51-.46.1-.1.19-.2.28-.3.01-.01.02-.02.02-.02h0ZM5.64,4.37s-.04.02-.04.05c0,.03.04.09.07.11.02,0,.04.02.05.03.03.01.04.02.04.03,0,.01,0,.01-.02,0,0,0-.01,0-.01,0,0,.01.01.03.02.03,0,0,.01,0,.02,0,.01,0,.01-.01.01-.04,0-.02,0-.04,0-.06,0-.02,0-.03,0-.04-.02-.02-.05-.01-.05.01,0,.01,0,.02.01,0,0-.01.02,0,.03.01,0,.01,0,.02,0,.03-.01.02-.02.01-.06,0-.05-.02-.08-.07-.08-.1,0-.02.02-.04.03-.03.01,0,.02,0,.01-.01,0,0-.01,0-.02,0h0ZM4.09,4.37h0s-.03,0-.03.01c0,0,0,0,.02,0,.03,0,.04,0,.04.03,0,.05-.06.12-.12.13-.02,0-.04,0-.04-.02s.01-.04.03-.04,0-.02,0-.02c-.03,0-.05.05-.04.08,0,0,0,.03,0,.04,0,.02,0,.02,0,.03.01,0,.02,0,.03,0,0,0,0,0,0-.01,0,0,0,0-.01,0,0,0-.01,0-.01,0,0-.01,0-.02.03-.02.05-.01.1-.05.12-.1,0-.01,0-.03.01-.05,0-.03,0-.03,0-.04,0,0-.03-.01-.04-.01h0ZM5.85,4.49s-.02.01-.02.03.01.01.02,0c0,0,0,0,.02,0,0,0,0,.01,0,.02,0,.01,0,.01-.03.02-.03,0-.03.02-.03.04,0,.02,0,.04.02.03,0,0,0,0,0-.02,0-.02,0-.03.03-.03s.06.03.08.06c.03.04.03.1.02.12-.01.01-.01.01-.03,0,0-.01-.01-.01-.02,0-.01.01,0,.03.02.04.01,0,.02.01.03.02,0,.01.03.02.04.01,0,0,.01,0,.01-.01,0-.01,0-.02,0-.03,0,0-.02,0-.01,0,0,0,0,0,0,.01,0,0,0,0-.01,0,0,0,0-.02,0-.06v-.06s-.01-.03-.01-.03c0-.01-.03-.04-.05-.06-.03-.03-.03-.03-.03-.05,0-.02,0-.02-.01-.03,0,0-.02-.01-.04-.01h0ZM3.88,4.5s0,0-.01,0c-.02,0-.02.01-.03.04,0,.02,0,.02-.02.03-.03.02-.05.05-.07.08-.01.03-.02.07,0,.11,0,.02,0,.02,0,.03,0,.01-.02,0-.02,0s0-.01-.02,0c0,0,0,.02,0,.03.01.02.03.01.05,0,0,0,.02-.02.03-.02,0,0,.01,0,.01-.01,0,0,0,0-.02,0-.01,0-.02,0-.03-.02-.02-.03,0-.08.03-.12.03-.05.09-.07.11-.05.01,0,.01,0,0,.02,0,.02,0,.02,0,.02.01,0,.02,0,.02-.03s-.01-.04-.04-.05c-.02,0-.02,0-.02-.02,0-.01.01-.03.02-.03.01,0,.01,0,0-.01,0,0,0,0-.01,0h0ZM6.1,4.8h0s-.08.03-.08.07c0,.02.01.04.02.04.01,0,.01-.01,0-.03,0-.02,0-.03,0-.04.03-.03.1-.02.15.03.04.04.06.07.03.09,0,0-.01.01-.03,0-.02,0-.02,0-.02,0,0,.02.04.03.07.01,0,0,.01-.01.02-.02,0,0,.02-.02.03-.02.02,0,.03-.03.01-.05-.01-.02-.03,0-.02,0,0,.01,0,.02,0,.02,0,0-.02-.02-.03-.04-.03-.03-.06-.06-.1-.08-.02,0-.03,0-.05,0h0ZM3.64,4.8h0s-.05.01-.07.02c-.03.02-.05.04-.07.06-.02.03-.03.04-.04.04,0,0,0,0,0-.01s0-.01,0-.01c0,0-.01,0-.01.02,0,.02.01.03.03.03,0,0,.02,0,.02.01,0,.01.03.03.04.03,0,0,.01,0,.02,0,.03-.01.04-.04.02-.06-.01-.01-.02-.01-.02,0,0,0,0,.02,0,.02,0,0-.02,0-.03,0-.01-.01,0-.03.01-.06.04-.06.13-.1.16-.07.02.02.02.02.02.05,0,.02,0,.03.01.02.01,0,.01-.03,0-.06,0-.02-.01-.02-.03-.03-.02,0-.03,0-.05,0h0ZM6.31,4.97s-.01,0-.02.01c0,.01,0,.02,0,.05,0,.04,0,.04,0,.05-.01.01-.03.01-.03,0t-.01-.01s0,.05.04.05c.02,0,.02,0,.03-.01h.01s.02,0,.02,0c.02.02.02.02.07.02.04,0,.05,0,.08-.01.02-.01.03-.01.03,0,0,0,0,.02,0,.03,0,0,0,0,0,.01,0,0,.01,0,.02,0,.02-.02,0-.06-.03-.06-.01,0-.02,0-.03-.02-.02-.02-.03-.02-.05,0,0,0,0,.01,0,.02,0,.01.02.01.02,0,0-.01,0-.01.02,0,0,.02,0,.03-.04.03-.06,0-.12-.03-.13-.08,0-.02,0-.02.01-.03.01,0,.02,0,.01-.01s-.01,0-.02,0h0ZM3.43,5s-.02,0,0,.02c.01,0,.01.01.01.03,0,0,0,.02,0,.03-.02.02-.05.04-.08.04-.03,0-.03,0-.05,0-.02,0-.03-.02-.02-.03,0,0,0,0,.01,0,.01,0,.01,0,0-.02-.01-.01-.02-.01-.03,0,0,0-.02.01-.03.02-.03.01-.04.04-.03.05,0,0,.01,0,.02,0,0,0,0-.01.01-.02,0,0,.01,0,.03,0,.04.04.11.03.17,0,.01,0,.02-.01.02-.01,0,0,.02.02.04.02.02,0,.03,0,.03-.03s0-.02-.02,0c-.01,0-.01,0-.02,0-.01,0-.01,0-.01-.04,0-.03,0-.04-.03-.04h0ZM3.16,5.18s-.02,0-.03,0c-.02,0-.02.02-.02.03,0,0,0,0,.02,0,.01-.01.03-.01.03,0,0,.02,0,.06,0,.08-.02.04-.06.06-.1.07-.01,0-.02,0-.03,0-.02-.01-.02-.03,0-.05v-.02s0,0,0,0c-.02,0-.03.02-.03.05,0,.01,0,.02,0,.03,0,0,0,.02,0,.04,0,0,.02.03.02.03,0,0,0,0,.02,0,.01,0,0-.02,0-.02s-.02,0-.01-.02c0,0,.01-.01.03-.02.01,0,.04-.01.05-.02.06-.03.08-.07.08-.12,0-.02,0-.03-.01-.04,0,0-.01-.01-.02-.01h0ZM6.58,5.18s-.02,0-.03.01c-.03.04,0,.1.07.14.01,0,.03.01.04.01.01,0,.04.01.04.02,0,.01,0,.02-.02.01-.02,0-.02,0-.01.01,0,.01.03.02.05,0,0,0,0-.01,0-.03,0-.02,0-.03,0-.03.01-.02,0-.03,0-.05,0-.02-.02-.02-.04-.02-.01,0,0,.01,0,.02.01,0,.01,0,.01.03,0,.02-.02.03-.05.02-.03,0-.05-.02-.07-.04-.04-.04-.05-.06-.03-.08h0s.01,0,.01,0c.01.01.01.01.02,0,0,0,0-.01,0-.02,0-.02-.02-.02-.03-.02h0ZM6.98,5.37s.04,0,.07.04c.08.07.16.13.25.19.15.1.15.1.16.12.02.03.03.06.02.09-.02.04-.05.05-.12.05-.02,0-.05,0-.05,0-.08-.01-.14-.04-.27-.1-.15-.07-.3-.17-.38-.23-.03-.02-.04-.03-.03-.04,0-.01.02-.03.05-.03.01,0,.03,0,.04-.01.02-.01.02-.01.04-.01.02,0,.03,0,.04-.01.02-.01.04-.02.06-.01,0,0,.02,0,.02,0,0,0,.02,0,.04,0,.01,0,.03,0,.04,0,0,0,.01,0,.02,0h0ZM2.74,5.41s.03,0,.07,0c.02,0,.03,0,.03,0,0,0,0,0,.02,0,.02,0,.04,0,.06.01,0,0,.02.01.02.01.03,0,.04,0,.06.02.01.01.02.02.02.02.01,0,.05,0,.05.02,0,0,0,.01,0,.02,0,.01-.14.11-.25.18-.09.05-.18.1-.28.15-.05.02-.11.04-.17.05-.02,0-.04,0-.04,0h-.03s-.06-.02-.08-.04c-.03-.03,0-.1.12-.17.09-.06.17-.13.25-.2.03-.02.05-.04.08-.06.02-.02.03-.02.05-.02h0ZM7.04,5.44s-.05,0-.08.02l-.14.03s-.08.02-.08.02c0,0,.03.02.11.08.12.08.33.19.41.22.07.02.14.03.17,0,.03-.02.05-.05.04-.07,0-.03-.03-.04-.2-.15-.06-.04-.12-.08-.18-.13-.03-.02-.03-.02-.05-.02h0ZM7.04,5.45s.02,0,.04.02c.03.03.07.05.11.07.17.12.21.14.25.18.02.02.02.04,0,.06-.02.02-.06.03-.11.02-.09-.02-.32-.13-.5-.26l-.04-.03s-.02-.01-.02-.02c0,0,.04-.01.08-.02.13-.03.18-.04.19-.04h0ZM2.67,5.46l-.05.04c-.08.07-.17.14-.26.2-.04.03-.08.07-.09.09-.01.03,0,.05.04.07.04.01.08,0,.15-.02.12-.04.22-.1.4-.21l.11-.07s.05-.04.05-.04c-.05-.01-.1-.02-.15-.03-.02,0-.06-.01-.09-.02-.02,0-.06,0-.07-.01h-.03ZM7.06,5.47h-.07s-.11.04-.11.04c-.04,0-.05.01-.04.02.04.03.33.2.35.2,0,0,.02.01.05.02.07.03.09.04.13.04.04,0,.04,0,.05-.01.01-.01.01-.02.01-.03,0-.03,0-.03-.12-.11-.05-.03-.21-.14-.24-.17h-.01ZM2.68,5.48h0s.03,0,.05,0c.02,0,.05.01.06.01.04,0,.16.03.17.03,0,0-.05.05-.14.1-.08.05-.08.05-.17.1-.13.08-.24.12-.3.12-.03,0-.04,0-.05,0-.02-.01-.03-.03-.02-.05,0-.01.02-.03.08-.08.04-.03.13-.1.2-.15.07-.06.12-.09.13-.09h0ZM7.06,5.49l.08.06c.07.05.08.06.08.07s0,0,0,0c0,0,.06.03.15.09.03.02.04.03.03.05,0,.02-.05.03-.1.01-.08-.03-.15-.07-.22-.11-.02-.01-.02-.01-.01-.02,0,0,0,0,0-.01,0,0,0,0,.02,0,.01.01.01,0,0-.01,0,0-.02-.01-.02-.01-.01,0-.02.01-.02.02,0,0,0,0,0,0,0,0-.13-.07-.13-.08,0,0,0,0,0,0,0,0,0,0,0,0,0,0,0,0,.01,0,.01.01,0,0,0-.02,0-.01-.01-.02,0-.02.02,0,.04-.01.08-.02h.05ZM2.68,5.5s-.02,0-.1.07c-.06.04-.11.09-.17.13-.09.07-.12.1-.12.11,0,.01.01.03.02.03.02,0,.06,0,.09,0,.09-.03.27-.13.44-.24.02-.01.04-.03.05-.03.01,0,.02-.01.02-.02,0,0-.03-.01-.05-.02-.06-.01-.12-.02-.18-.03h0ZM7.02,5.51h0s-.03,0-.05.02c-.01.02-.01.03,0,.05.01.02.04.04.06.03.01,0,.02-.03.02-.04-.01-.03-.05-.02-.05,0,0,.02.02.02.02,0,0,0,0-.01,0-.01,0,0,.01.02,0,.03,0,0-.01,0-.02,0-.02,0-.03-.01-.04-.03,0-.01.01-.03.03-.04.02,0,.04,0,.08.07.04.07.06.08.08.08,0,0,.02,0,.02-.01.01-.01.01-.05,0-.07-.02-.02-.04-.02-.05,0,0,.02,0,.04.02.03,0,0,0,0,0-.01,0,0,0-.02,0-.02,0,0,.02.01.02.03,0,.01,0,.03-.02.03-.01,0-.04-.03-.05-.05,0,0,0-.02,0-.02,0,0,0,0,0-.01.01,0,.02-.01,0-.02-.01-.02-.03,0-.03.02,0,.02,0,.01-.01,0-.01-.02-.03-.04-.05-.05,0,0-.01,0-.02,0h0ZM2.69,5.52s.02,0,.02,0c0,0,0,0-.02,0-.02,0-.04.02-.04.04,0,.03.03.04.05.03.01,0,.01-.03,0-.04,0,0,0-.01,0-.01,0,0,.02,0,.02.01,0,0,.01.02.01.02,0,0-.03.03-.04.04-.02,0-.08,0-.09,0,0,0,0,0,0,0,.01,0,.01-.03,0-.03-.02,0-.04,0-.02.02,0,0,0,.01,0,.01,0,0-.01,0,0,0,0,0,0,0-.02.01-.03,0-.04.02-.04.04,0,.02,0,.02.01.03.01.01.02.01.03.01s.02,0,.03-.01c0,0,.01-.02.01-.02,0-.01-.01-.02-.03-.02-.01,0-.02,0-.02.01,0,.01,0,.01,0,.02,0,0,0,0,0,.01,0,0-.02,0-.03,0-.01-.01-.01-.03,0-.04.01-.01.07-.02.11-.02.06,0,.1-.01.11-.04,0-.02,0-.05-.03-.06-.01,0-.01,0,0,0,.02,0,.08,0,.08.01,0,0,0,0-.01,0-.01,0-.03.02-.03.03,0,0,0,0,.01,0,0,0,0,0,0,0,0,0,0,0,0,0,0,0,.01,0,.01,0,0,0,0,0,0,0-.01,0-.02,0,0,.01.01,0,.03,0,.03-.02,0,0,0-.01,0-.02-.01,0,0-.01.01,0,.04,0,.04,0,.02.02-.01,0-.02.02-.03.02l-.05.03s-.05.03-.09.06c-.04.03-.2.11-.25.13-.02,0-.05.02-.07.02-.04,0-.03,0-.05,0-.02,0-.02-.01-.01-.03,0,0,.01-.02.02-.03.02-.02.02-.02.02,0,0,.02,0,.02,0,.03.02.02.05.01.08,0,0-.01.02-.02.02-.04.01-.03.03-.05.04-.05,0,0,.01.02,0,.02,0,0,0,0,0,0,0,0-.01-.01-.01,0,0,.02.02.03.04.01,0,0,0-.03,0-.04-.01-.02-.03-.01-.05,0-.02.02-.02.02-.02,0,0,0,0,0,0,0s0,0,0,0c0,0,.2-.17.22-.18,0,0,.02,0,.03,0h0ZM6.9,5.52s0,0,0,0c0,0,0,.01,0,.02,0,.02,0,.02-.02,0-.03-.02-.03-.02.01-.03,0,0,.01,0,.01,0ZM2.68,5.57s0,0,0,0,0,0,0,0c0,0,0,0,0,0,0,0,0,.01-.01.01,0,0,0,0,0,0,0,0,0-.02,0-.02ZM2.64,5.64s0,0,0,0c0,0,0,0,0,0,0,0,.01,0,.01,0,0,0,0,0,0,0s0,0,0,0c0,.01.02.01.03,0,0-.01,0-.03-.02-.03,0,0,0,0-.01,0h0ZM7.24,5.65s-.04.01-.04.03c0,0,0,0,0,0,0,0-.02,0-.02.01,0,0,.01.01.02,0,0,0,0,0,.03,0,.02,0,.05,0,.07,0,.04,0,.07,0,.06.02,0,0,0,.01-.02.01-.01,0-.02,0-.02,0,0,0,0,0,0,0,0,0,0,0,0,0,0,0-.02,0-.03,0,0,0,0,.02,0,.03.01,0,.02,0,.04.01,0,0,0,0,.02,0,.01,0,.02-.03.02-.04,0-.02-.03-.02-.08-.02-.06,0-.07,0-.07-.02,0-.01,0-.02.02-.01,0,0,0,0,0,.01,0,0,0,0,0,0,.02,0,.02-.02.01-.03,0,0,0,0-.02,0h0ZM2.59,5.67s0,0,0,0c0,0,0,0,0,0,0,0,0,0-.01,0,0,0,0,0,0,0h0ZM2.42,5.72s0,0,.01,0c0,0,.01,0,.01.01,0,0,0,0,0,0,0,0-.01.04-.02.05-.01.01-.03.01-.04,0,0,0-.01-.02,0-.02,0,0,0,0,0,0,0,.01.03,0,.04,0,0-.01,0-.01,0-.02,0,0,0-.01-.02-.01-.02,0-.02,0,0-.02,0,0,0,0,.01,0h0ZM2.4,5.75s0,0,0,0c0,0,0,0,0,0,0,0,0,0,0,0s0,0,0,0h0ZM3.81,2.92s-.02,0-.02,0c0,0,0,0,.02,0,0,0,.02,0,.02,0,0,0,0,0-.02,0ZM3.8,2.95s-.02,0-.02,0c0,0,0,0,.02,0s.02,0,.02,0c0,0,0,0-.02,0h0Z"/>
    </g>
  </g>
</svg>