<?xml version="1.0" encoding="UTF-8"?>
<svg id="Layer_2" data-name="Layer 2" xmlns="http://www.w3.org/2000/svg" viewBox="0 0 25.51 17.01">
  <defs>
    <style>
      .cls-1 {
        fill: #fff;
      }

      .cls-2 {
        fill: #045531;
      }
    </style>
  </defs>
  <g id="Layer_1-2" data-name="Layer 1">
    <g id="green">
      <path class="cls-2" d="M0,17.01h25.51V0H0v17.01Z"/>
    </g>
    <g id="white">
      <g id="shahada">
        <path class="cls-1" d="M19.13,6.81c0-.3-.12-1.1-.15-1.37-.03-.27-.06-.51-.05-.57,0-.06.09.08.14.09.02,0,.01-.09-.03-.16-.03-.05-.13-.23-.19-.34-.03-.05-.03-.08-.05-.09-.01,0-.12.21-.11.24.03.04.05.07.05.14,0,.08.05.64.1,1.06.04.32.12,1.01.13,1.43,0,.14-.01.27-.03.33-.05.09-.12.17-.4.33-.31.18-.73.33-.91.44-.11.06-.07.07.02.04.1-.03.6-.12.84-.22.23-.1.38-.26.49-.49.14-.29.15-.54.15-.85"/>
        <path class="cls-1" d="M18.17,4.54s.22-.02.28,0c-.04.05-.27.16-.28.18,0,.01.17-.03.22-.05.03-.02.05-.05.08-.08.06-.07.12-.19.11-.2-.03-.02-.3,0-.34,0-.02,0-.08.11-.1.14-.01.03,0,.02.03.02"/>
        <path class="cls-1" d="M18.58,6.32c.04-.14.05-.31,0-.49-.06-.18-.2-.3-.31-.36l-.02.18s.15.07.25.26c.06.12.09.28.04.46,0,.05.02.02.04-.05"/>
        <path class="cls-1" d="M17.03,7.21c.04-.13.05-.28,0-.44-.05-.17-.18-.27-.28-.32l-.02.16s.13.07.22.23c.06.1.08.25.04.42,0,.04.02.02.04-.04"/>
        <path class="cls-1" d="M11.67,4.78c.06.11.09.27.04.44,0,.04.02.02.04-.05.04-.13.05-.3,0-.47-.06-.18-.19-.28-.29-.34l-.02.17s.14.07.23.24"/>
        <path class="cls-1" d="M8.06,4.84c.05.12.05.28-.03.45-.02.04.02.02.06-.04.07-.13.1-.29.07-.47-.03-.18-.17-.31-.28-.38l-.05.17s.15.09.23.27"/>
        <path class="cls-1" d="M9.06,7.48c.06-.12.09-.2.12-.34.02-.12.03-.27.02-.41.19-.08.42-.21.5-.22-.05.18.07.38.33.35.02.2.04.38.05.49.02.22.02.49.02.54,0,.05.03.04.07-.07.05-.14.06-.52.04-.76,0-.06-.01-.15-.02-.24.16-.08.19-.22.25-.29.06.19.36.22.45.18.12-.05.16-.14.19-.36.03-.22-.06-.3-.09-.33,0,.03-.08.28-.08.28,0,0,.07.08.08.11-.06.05-.18.06-.29.02-.1-.03-.14-.1-.13-.14,0-.04.05-.08.05-.13,0-.05-.02-.04-.07,0-.04.05-.07.09-.13.18-.05.08-.12.18-.26.21-.02-.23-.05-.48-.06-.64,0-.08-.1-.8-.1-.88,0-.07-.02-.15-.01-.19,0-.03.02-.02.05.01.03.03.08.09.09.08.03-.01,0-.11-.04-.19-.04-.08-.18-.41-.2-.43-.01,0-.11.2-.11.24.01.02.05.06.05.18,0,.03.02.32.05.6.02.25.06.48.06.51.02.19.05.45.07.71-.15-.03-.19-.13-.18-.18,0-.06.03-.13.02-.15-.03-.02-.2.08-.43.18-.07.03-.14.06-.22.09-.02-.18-.05-.34-.06-.47h0c.15-.02.28-.1.34-.18.07-.09.12-.28.13-.43,0-.15-.11-.41-.14-.5-.03-.09-.04-.14-.05-.17,0-.03.06.03.11.05.03,0,.02-.06-.02-.1-.03-.04-.22-.32-.23-.3,0,.01-.08.22-.09.25.03.02.06.07.07.12,0,.05.04.28.09.4.05.13.14.36.15.43-.07.05-.23.13-.38.13-.03-.22-.06-.47-.08-.65,0-.07,0-.14,0-.18,0-.03.02-.03.05,0,.03.03.08.08.09.07.02,0,0-.08-.04-.16s-.21-.43-.24-.45c-.01,0-.09.19-.09.23.01.02.05.06.06.17,0,.09.05.52.08.91-.15-.08-.21-.19-.23-.39-.01-.13-.01-.38-.06-.59-.03-.12-.08-.23-.15-.3-.02.04-.09.28-.09.28.02.07.1.3.09.5,0,.2-.02.39-.24.53-.22.13-.56.08-.64-.13-.08-.21.1-.73.1-.86,0-.12-.02-.14-.08-.12-.05.02-.16.14-.25.33-.09.19-.13.44-.18.6-.05.16-.13.33-.26.32-.13,0-.2-.13-.24-.3-.04-.17-.02-.39,0-.45.03-.14-.04-.11-.07.11-.02.14-.05.36.04.59.08.23.22.32.35.29.12-.03.23-.32.27-.45.04-.13.21-.7.31-.73.01.06-.08.27-.1.52-.03.24.04.57.35.63.31.06.52-.14.6-.28.08-.14.11-.29.12-.36,0,.19.14.48.39.56h.03c.02.16.04.36.06.57-.05.01-.1.03-.15.04,0-.02-.01-.04-.02-.06-.08-.16-.2-.31-.38-.3-.18.01-.37.25-.36.42,0,.12.07.21.3.24.11.01.22,0,.34-.03.02.05.03.1.03.14-.07.09-.69.55-1.14.59-.46.04-.6-.2-.6-.44,0-.18.11-.37.18-.49.11-.08.2-.18.26-.26.02,0,.03.02.04.03.05.03.08.08.08.08.01-.02.06-.1.04-.14,0-.01-.05-.04-.1-.07.05-.13.05-.26-.02-.29-.08-.03-.17.06-.22.11-.02.03-.03.06-.03.09,0,.03.02.07.06.09.04.03.08.05.11.08-.1.11-.34.26-.48.35,0-.01-.03,0-.06.03l-.04.02c-.12.07-.39.23-.45.26-.05.04-.02.03,0,.02.04-.02.09-.05.15-.07.08-.04.17-.08.26-.13-.03.05-.05.1-.08.16-.11.26-.29.79.1,1.11.36.31.99.19,1.51-.13.52-.32.63-.43.71-.55M7.36,6.22s-.02-.03,0-.04c.02-.02.04-.03.07-.04.06-.01.08.06.06.16-.04-.03-.09-.05-.12-.08M8.56,6.65c-.26,0-.28-.05-.27-.08,0-.03.09-.11.19-.06.04.02.09.07.14.13-.02,0-.04,0-.06,0M7.74,8.04c-.5.14-.99-.07-1.02-.49-.02-.32.09-.56.17-.7.07-.04.14-.07.2-.1-.13.21-.21.49-.16.73.06.27.29.43.69.38.39-.05.93-.43,1.08-.57.05-.05.08-.1.12-.19.02-.04.04-.09.05-.15,0-.04,0-.08,0-.12.05-.01.09-.03.14-.05.02.17.03.34.03.49-.25.29-.81.63-1.31.76"/>
        <path class="cls-1" d="M16.49,6.95c-.02-.28-.06-.79-.08-1.04-.02-.23-.06-.54-.09-.82,0-.07,0-.14,0-.17,0-.03.03-.02.06.01s.08.07.09.07c.03-.02,0-.09-.05-.17-.04-.08-.21-.42-.24-.44-.01,0-.09.2-.1.24.01.02.05.06.06.17,0,.11.06.63.1,1.04.03.29.06.76.09,1.12,0,0,.03.34.03.38.02.22,0,.49,0,.54,0,.05.03.04.07-.07.04-.11.06-.35.06-.57v-.28Z"/>
        <path class="cls-1" d="M15.07,5.97c-.05.02-.13-.04-.13-.15,0-.1.05-.2.07-.26.02-.08.02-.16,0-.12-.04.1-.13.3-.14.43-.02.13.03.22.09.25.07.04.13-.02.16-.11.03-.08.03-.18,0-.16-.02.02-.03.1-.05.11"/>
        <path class="cls-1" d="M14.33,6.38c.03-.07.03-.14.01-.1-.05.09-.14.26-.16.37-.03.12,0,.2.06.23.06.04.11-.01.15-.08.04-.07.04-.16.02-.14-.02.02-.03.09-.05.09-.05.01-.11-.04-.1-.14.01-.09.06-.17.08-.22"/>
        <path class="cls-1" d="M12.19,7.9c.05-.07.07-.15.04-.11-.07.09-.2.25-.26.38-.05.12-.04.22.01.26.06.05.13,0,.18-.06.06-.07.08-.16.05-.15-.03.02-.05.09-.08.09-.05,0-.11-.07-.08-.17.03-.1.1-.18.14-.23"/>
        <path class="cls-1" d="M15.95,5.75c-.05.01-.13-.05-.12-.16.01-.1.06-.2.08-.26.03-.08.03-.16.01-.12-.05.1-.14.29-.17.43-.03.13.01.22.07.25.07.04.13-.02.17-.1.04-.08.04-.18.01-.16-.02.02-.03.1-.06.11"/>
        <path class="cls-1" d="M15.93,7.14c.07.04.13-.02.17-.1.04-.08.04-.18.01-.16-.02.02-.03.1-.06.11-.05.01-.13-.05-.12-.16.01-.1.06-.2.08-.26.03-.08.03-.16.01-.12-.05.1-.14.29-.17.43-.03.13.01.22.07.25"/>
        <path class="cls-1" d="M16.84,5.37c.03-.1.04-.2.01-.14-.06.12-.18.35-.21.52-.03.16.02.27.09.31.09.05.15-.02.2-.12.05-.1.05-.22.02-.19-.03.03-.04.12-.07.13-.06.02-.16-.05-.14-.19.01-.12.07-.24.1-.31"/>
        <path class="cls-1" d="M9.56,7.09c.06-.12.08-.24.04-.18-.09.15-.27.43-.33.62-.06.2-.02.34.07.4.1.07.2,0,.27-.13.07-.12.09-.27.05-.24-.04.03-.07.15-.11.16-.08.01-.19-.09-.15-.26.03-.15.12-.29.17-.38"/>
        <path class="cls-1" d="M17.42,8.3s.42-.24.49-.28c0,0,.07-.11.05-.13-.02-.01-.16.11-.24.12-.09,0-.2-.06-.21-.11.01-.04.11-.1.15-.1.04,0,.03.08.04.09.01.01.06-.06.07-.09,0-.03,0-.15-.07-.13-.11.03-.27.23-.29.29-.02.06.08.12.15.15,0,0-.06.03-.09.06,0,0-.04.04-.05.13"/>
        <path class="cls-1" d="M16.15,8.55s.42-.24.49-.28c0,0,.07-.11.05-.13-.02-.01-.16.11-.24.12-.09,0-.2-.06-.21-.11.01-.04.11-.1.15-.1.04,0,.03.08.04.09.01.01.06-.06.07-.09,0-.03,0-.15-.07-.13-.11.03-.27.23-.29.29-.02.06.08.12.15.15,0,0-.06.03-.09.06,0,0-.04.04-.05.13"/>
        <path class="cls-1" d="M13.27,4.93s.25.32.43.49c.17.18.47.46.68.65.04.04.09.08.13.12.05.42.12.95.14,1.17.03.22.03.49.03.54,0,.05.03.04.07-.07.04-.14.05-.52.03-.76-.01-.15-.05-.44-.08-.7.13.13.25.25.33.35.15.17.28.3.35.49.05.13.05.24.07.26.02.02.04-.14.02-.29-.04-.25-.09-.35-.41-.7-.12-.13-.26-.28-.4-.41,0-.04-.01-.08-.01-.11-.01-.08-.12-.8-.13-.88,0-.07-.02-.15-.02-.19,0-.03.02-.02.05.01.03.03.08.09.09.08.03-.02,0-.11-.05-.19-.04-.08-.19-.41-.21-.42-.01,0-.1.2-.11.24.01.02.05.06.06.17,0,.03.03.32.06.6.03.24.07.48.07.5h0c-.14-.13-.27-.24-.35-.31-.18-.16-.58-.55-.59-.61,0-.02.03,0,.08,0,.06,0,.11.03.1,0,0-.01-.03-.05-.08-.08-.05-.03-.19-.12-.3-.18-.1-.06-.15-.11-.18-.1-.01,0,0,.22,0,.24.03,0,.07.03.1.07"/>
        <path class="cls-1" d="M13.56,4.56s.24,0,.32.01c-.03.02-.24.13-.28.15-.04.02-.05.04-.03.04.06-.02.19-.04.26-.07.06-.03.16-.17.2-.22.04-.05.04-.08.03-.09-.04-.02-.3-.04-.43-.01-.04.02-.1.15-.11.18-.01.03,0,.02.05.02"/>
        <path class="cls-1" d="M14.68,4.54s.2,0,.26,0c-.02.02-.19.1-.22.12-.03.02-.04.03-.02.03.05-.01.15-.03.21-.06.05-.02.13-.13.16-.17.03-.04.03-.06.02-.07-.03-.02-.24-.04-.35-.01-.03.02-.08.12-.09.14,0,.02,0,.02.04.01"/>
        <path class="cls-1" d="M15.59,4.53s.2,0,.26,0c-.02.02-.19.1-.22.12-.03.02-.04.03-.02.03.05-.01.16-.03.21-.06.05-.02.11-.13.14-.17.03-.04.03-.06.02-.07-.03-.02-.23-.04-.33-.01-.03.02-.08.12-.09.14s0,.02.04.01"/>
        <path class="cls-1" d="M15.02,4.97c-.05.08.01.15.04.22-.03.03-.08,0-.1-.02-.04-.05-.02-.17-.07-.18-.01.03-.02.06-.02.06,0,0,.03.08.02.13,0,.03-.03.07-.07.07-.09,0-.05-.14-.08-.22,0,.02-.01.04-.02.06,0,.02.01.05.01.07,0,.03,0,.07,0,.1,0,.04.03.07.06.07.07,0,.1-.05.11-.1.01.05.11.1.15.04.06-.08.01-.14-.02-.22-.02-.05-.02-.09-.03-.07"/>
        <path class="cls-1" d="M12.36,4.75s.02.06.05.06c.06,0,.09-.04.1-.08,0,.04.09.09.13.04.06-.06.02-.12,0-.19-.02-.05,0-.08-.02-.06-.05.07,0,.13.02.19-.03.02-.07,0-.09-.02-.03-.05-.01-.14-.05-.16-.01.03-.02.05-.02.05,0,0,.02.07.01.11,0,.03-.03.06-.06.05-.08,0-.03-.12-.06-.19,0,.02-.01.03-.02.05,0,.02,0,.04,0,.06,0,.03,0,.06,0,.08"/>
        <path class="cls-1" d="M14.29,8.03s.03-.05.02-.08-.04-.14-.1-.17c-.06-.03-.11.03-.14.11h-.02s-.01.03-.02.06c0,.05-.02.08-.1.15-.07.06-.29.21-.44.28-.14.07-.25.13-.29.15-.04.02-.03.02.01.01.04-.01.23-.07.31-.1.08-.03.17-.08.28-.16.12-.08.2-.16.22-.23.02-.05.02-.07.02-.07,0,0,.05.03.13.05.08.02.1.01.11,0M14.18,7.87s.06.05.06.08c-.04,0-.12-.02-.15-.03.02-.04.05-.05.08-.04"/>
        <path class="cls-1" d="M13.45,8.11c-.11-.02-.39-.06-.46-.22.06-.08.32-.19.65-.29.33-.1.68-.23.77-.29.02,0,.06,0,.06,0,.02-.05.1-.22.1-.25-.09,0-.66.05-.91.06-.25.01-.74.01-.9,0,.1-.07.34-.21.67-.33.04-.02.08-.03.12-.04.03.05.05.1.05.14.02-.02.04-.1.03-.17.2-.06.3-.08.34-.1.03-.04.08-.18.08-.29-.03-.05-.12-.12-.2-.18-.11-.08-.23-.15-.36-.12-.17.04-.2.35-.16.41.01.02.04.06.08.1-.12.05-.25.1-.36.16-.25.13-.53.28-.61.41h-.02s-.06.24-.07.26c.05,0,.44,0,.71,0,.27,0,.51-.02.6-.02-.14.03-.5.17-.6.24-.1.08-.17.2-.17.4-.1-.04-.27-.12-.43-.33-.17-.23-.13-.47-.2-.77-.1-.45-.31-.83-.44-.94-.04.16-.05.28-.05.28,0,0,.16.36.25.6.08.23.15.46.15.51-.07.15-.47.46-.81.65-.32.17-.6.19-.7.07-.02-.02-.03-.05-.04-.09.04-.02.09-.04.13-.06.29-.13.8-.41.92-.55.13-.18.13-.42.05-.56-.08-.14-.19-.31-.2-.36,0-.03.08.01.13.01.02,0,.01-.03-.04-.09-.04-.04-.2-.17-.26-.22-.02-.01-.03,0-.03,0-.01.05-.04.17-.05.22v.03s.04.02.05.05c.01.04.06.16.14.3.08.15.19.31.21.39-.09.12-.56.37-1.02.58.03-.09.07-.19.13-.3.02-.02.03-.04.05-.07.05-.08.05-.19.02-.16-.02.02-.04.11-.07.11-.06.01-.13-.05-.11-.17.02-.11.08-.2.1-.27.03-.09.04-.17.02-.12-.06.1-.17.3-.2.44-.03.14,0,.23.06.27.02.01.04.02.06.02-.04.08-.09.17-.13.28-.18.08-.36.16-.51.21-.53.19-.91.3-1.18.39h-.01c.02-.06.02-.11,0-.1-.02.02-.04.11-.07.11-.06.01-.13-.05-.11-.17.02-.11.08-.2.1-.27.03-.09.04-.17.02-.12-.06.1-.17.3-.2.44-.03.14,0,.23.06.27.07.05.14-.01.18-.1l.02-.04s.04,0,.09-.01c.12-.03.43-.07.85-.13.31-.04.52-.13.73-.22,0,.02,0,.05,0,.07.01.28.2.36.45.31.25-.05.59-.28.79-.43.21-.16.34-.3.37-.35.06-.12.07-.25.08-.32.02.17.03.41.2.62.15.19.46.45,1.05.46,0-.07-.03-.29-.03-.29M13.41,6.35c.08-.09.26-.03.4.09-.07.02-.16.04-.26.08-.06-.07-.13-.14-.13-.17"/>
        <path class="cls-1" d="M10.13,5.07s.15-.07.28-.14c.12-.07.24-.16.3-.22.02-.02.04-.04.05-.06.04.02.06.03.08.04.02,0,.06.02.08-.05.02-.07,0-.11-.05-.17-.03-.04-.09-.11-.13-.13-.04-.01-.06.07-.05.07h.03c-.05.03-.09.11-.1.14,0,.03,0,.05.08.07h.03c-.06.08-.18.16-.26.21-.11.08-.27.17-.32.2-.05.03-.04.04-.02.03M10.8,4.53v-.04c.06.06.1.13.09.14-.02,0-.05-.02-.11-.04,0-.02.01-.04.01-.06M10.65,4.53s.02-.04.06-.06c.04-.02.06.03.07.09v.02s-.05-.01-.05-.01c-.04-.01-.07-.02-.08-.04"/>
        <path class="cls-1" d="M12.92,6.19c.06-.04.23-.16.33-.24.07-.06.15-.14.2-.21.03.02.06.04.09.06.05.03.08.08.08.08.01-.02.06-.1.04-.14-.01-.01-.08-.05-.15-.09.03-.08.08-.21.01-.26-.06-.04-.16.03-.2.11-.04.07-.04.13.03.18.02.01.04.03.06.04-.07.08-.21.2-.3.28-.12.1-.23.2-.25.22h0c-.03-.06-.02-.11-.04-.08-.08.13.02.24.06.34-.05.05-.13,0-.16-.04-.06-.08-.04-.26-.1-.28-.02.05-.03.1-.03.1,0,0,.05.12.04.19,0,.05-.05.1-.1.1-.15,0-.07-.21-.13-.33-.01.03-.02.06-.03.09.01.03.02.08.02.1,0,.05,0,.11,0,.15.01.06.05.1.1.11.11,0,.16-.08.17-.15.02.07.16.15.23.06.09-.12.02-.22-.03-.33h0s.03-.02.07-.05M13.35,5.52c.04-.07.11-.07.13-.04.02.03.02.08,0,.14-.07-.04-.13-.08-.13-.1"/>
        <path class="cls-1" d="M10.55,5.77c-.13,0-.2-.13-.24-.3-.04-.17-.02-.39,0-.45.01-.06-.05-.03-.07.11-.02.14-.05.36.04.59.08.23.22.32.35.29.12-.03.23-.32.27-.45.04-.13.21-.66.31-.69.01.06-.08.23-.1.47-.03.24.02.57.33.62.31.06.52-.14.6-.28.08-.14.11-.29.12-.36,0,.19.14.48.39.56.24.08.42,0,.5-.1.07-.09.13-.28.14-.43,0-.15-.12-.41-.15-.5-.03-.09-.04-.14-.05-.17,0-.03.06.03.11.05.03,0,.02-.06-.02-.1-.03-.04-.22-.32-.23-.3,0,.01-.08.22-.09.25.03.02.06.07.07.12,0,.05.05.28.1.4s.13.36.14.43c-.09.06-.29.14-.48.06-.19-.08-.25-.2-.27-.41-.01-.13-.01-.38-.06-.59-.03-.12-.08-.23-.15-.3-.02.04-.09.28-.09.28.02.07.1.3.09.5,0,.2-.02.39-.24.53-.22.13-.54.08-.62-.13-.08-.21.1-.68.1-.8,0-.12-.02-.14-.08-.12-.05.02-.16.14-.25.33-.09.19-.13.39-.18.55-.05.16-.13.33-.26.32"/>
        <path class="cls-1" d="M6.83,5.04c.16-.01.29-.13.32-.16.03-.03.05-.08.03-.06-.18.16-.43.17-.44.14,0-.03.07-.07.16-.13.06-.04.11-.07.15-.12h.01c.07.02.15.05.17.02.04-.04.05-.1,0-.17-.04-.06-.12-.11-.2-.15-.07-.04-.09.02-.1.05,0,.02,0,.04.01.04-.02.03-.04.07-.05.11,0,.02,0,.04,0,.06,0,0,.02.02.04.03h.03c-.06.06-.12.1-.15.12-.06.04-.13.1-.15.17-.02.07-.01.09.14.08M7.11,4.58v-.03s0-.02,0-.02c.05.04.13.11.12.15-.03,0-.09-.02-.15-.03,0-.02.01-.04.02-.06M6.96,4.59s0-.06.03-.08c.04-.02.07,0,.09.06,0,.02-.02.04-.03.05-.03-.01-.08-.03-.09-.04"/>
        <path class="cls-1" d="M7.31,6.82s-.06.17-.05.17c0,0,.15.06.17.07v-.04c.08.06.15.36.17.36.02,0,.04-.03.06-.11.01-.07.03-.19.04-.28.01-.08.04-.13.09-.14.05,0,.09.05.1.1,0,0,.04-.08.04-.14,0-.03-.09-.13-.15-.1-.06.03-.1.18-.12.27-.01.09-.02.2-.04.22-.02-.08-.07-.22-.13-.29-.07-.09-.16-.12-.18-.1"/>
        <path class="cls-1" d="M6.7,6.66c.06-.02.19-.04.26-.07.06-.03.16-.17.2-.22.04-.05.04-.08.03-.09-.04-.02-.3-.04-.43-.01-.03.02-.1.15-.11.18-.01.03,0,.02.05.02.04,0,.24,0,.32.01-.03.02-.24.13-.28.15-.04.02-.05.04-.03.04"/>
        <path class="cls-1" d="M18.9,7.4c0-.15-.08-.39-.37-.75-.1-.12-.24-.29-.38-.45,0-.06,0-.11-.01-.15-.02-.23-.08-.7-.11-.97,0-.07,0-.14,0-.18,0-.03.02-.03.05,0,.03.03.08.08.09.07.02,0,0-.08-.04-.16-.04-.08-.2-.42-.23-.43-.01,0-.09.19-.09.23.01.02.05.06.06.17,0,.11.07.77.11,1.19v.02c-.22-.24-.42-.47-.51-.56-.01-.02-.03-.03-.05-.05-.01-.11-.03-.22-.04-.3,0-.07,0-.14,0-.18,0-.03.02-.03.05,0,.03.03.08.08.09.07.02,0,0-.08-.04-.16-.04-.08-.2-.43-.23-.44-.01,0-.09.21-.1.25.01.02.05.06.06.18,0,.05.01.19.03.37-.15-.17-.29-.35-.3-.39,0-.02.03,0,.08,0,.06,0,.11.03.1,0,0-.01-.03-.05-.08-.08-.05-.03-.19-.12-.3-.18-.1-.06-.15-.11-.18-.1-.01,0,0,.22,0,.24.03,0,.07.02.1.06.03.04.23.32.39.51.05.05.12.14.2.23.02.17.03.35.05.5.03.34.15,1.24.15,1.53-.08.08-.26.19-.43.19-.18,0-.27-.04-.35-.18-.02-.04-.04-.08-.06-.12-.05-.09-.16-.14-.26-.11h-.02s-.03.02-.03.02c-.07.04-.14.1-.21.19-.12.17-.2.35-.29.5-.09.16-.17.27-.33.25-.12-.02-.21-.12-.26-.24.15-.11.27-.25.35-.44.11-.25.14-.53.13-.85,0-.3-.15-1-.18-1.27-.04-.27-.09-.49-.08-.55,0-.06.09.08.14.08.02,0,.01-.09-.03-.16-.03-.05-.12-.27-.19-.37-.03-.05-.04-.08-.05-.08-.01,0-.12.21-.1.24.03.04.05.06.06.14,0,.08.08.65.14,1.07.05.32.15.9.16,1.32,0,.14-.02.24-.03.3-.04.09-.12.18-.37.36-.04-.25,0-.46-.03-.48-.04,0-.05.12-.05.27,0,.07,0,.16.01.26-.31.21-.72.4-.92.5-.11.06-.07.07.02.04.1-.03.62-.17.9-.32l.03-.02s.03.1.05.14c.09.2.23.31.38.3.12,0,.21-.14.29-.3.08-.16.21-.46.34-.57.05-.04.1-.08.15-.1,0,0,.09-.03.17.02.03.02.05.05.07.08.03.07.07.16.15.24.14.13.36.11.53.03.17-.08.25-.2.29-.34.06-.25.05-.5.04-.72-.01-.25-.05-.51-.08-.79,0-.09-.02-.21-.04-.35.16.19.33.38.43.48.04.04.07.08.11.12.03.42.06.94.08,1.16.02.22,0,.49,0,.54,0,.05.02.04.06-.07.05-.14.08-.52.07-.76,0-.15-.02-.41-.04-.67.13.15.25.3.32.4.14.18.26.4.31.53.04.13.05.17.06.2s.05-.07.04-.23"/>
      </g>
      <g id="sword">
        <path class="cls-1" d="M16.57,12.5s-.05-.06-.1-.06-.08.03-.1.06h-.43s0-.1.01-.14h.89s.02.04.02.04c.02.04.05.07.08.1h-.39ZM17.16,12.09h-1.07c.08-.06.13-.15.11-.23,0-.06-.06-.1-.13-.1h-.03c-.08,0-.14.07-.13.13v.02s0,.04,0,.04c0,.05,0,.1-.01.14h-7.93c.12.17.33.28.56.28h7.24c-.08.06-.13.14-.11.23,0,.06.08.11.16.1.08,0,.14-.07.13-.13v-.02s.42,0,.42,0c0,.04.05.07.1.07s.09-.03.1-.07h.43c.09.06.21.1.33.1.11,0,.21-.08.21-.18v-.05c0-.18-.17-.32-.38-.32"/>
      </g>
    </g>
  </g>
</svg>