<?xml version="1.0" encoding="UTF-8"?>
<svg id="Layer_2" data-name="Layer 2" xmlns="http://www.w3.org/2000/svg" viewBox="0 0 25.51 17.01">
  <defs>
    <style>
      .cls-1 {
        fill: #ce2028;
      }

      .cls-2 {
        fill: #fff;
      }

      .cls-3 {
        fill: #010101;
      }

      .cls-4 {
        fill: #067b3f;
      }
    </style>
  </defs>
  <g id="Layer_1-2" data-name="Layer 1">
    <g>
      <path class="cls-3" d="M0,0h25.51v17.01H0V0Z"/>
      <path class="cls-2" d="M0,0h25.51v11.34H0V0Z"/>
      <path class="cls-4" d="M0,0h25.51v5.67H0V0Z"/>
      <path class="cls-1" d="M4.14,8.00L5.85,8.00L6.38,6.38L6.91,8.00L8.61,8.00L7.23,9.00L7.76,10.63L6.38,9.63L5.00,10.63L5.53,9.01ZM10.51,8.00L12.22,8.00L12.75,6.38L13.28,8.00L14.98,8.00L13.60,9.00L14.13,10.63L12.75,9.63L11.37,10.63L11.90,9.01ZM16.89,8.00L18.60,8.00L19.13,6.38L19.66,8.00L21.36,8.00L19.98,9.00L20.51,10.63L19.13,9.63L17.75,10.63L18.28,9.01Z"/>
    </g>
  </g>
</svg>