<?xml version="1.0" encoding="UTF-8"?>
<svg id="Layer_2" data-name="Layer 2" xmlns="http://www.w3.org/2000/svg" viewBox="0 0 25.51 17.01">
  <defs>
    <style>
      .cls-1 {
        fill: #fff;
      }

      .cls-2 {
        fill: #e21f26;
      }
    </style>
  </defs>
  <g id="Layer_1-2" data-name="Layer 1">
    <g>
      <path class="cls-2" d="M0,0h25.51v17.01H0V0Z"/>
      <path class="cls-1" d="M11.83,8.5L13.3,8.02L13.3,6.48L14.21,7.73L15.68,7.25L14.77,8.5L15.68,9.75L14.21,9.27L13.3,10.52L13.3,8.98ZM12.1,10.78c-1.26,1.98-3.88,2.58-5.87,1.32-1.98-1.26-2.58-3.88-1.32-5.87,1.26-1.98,3.88-2.58,5.87-1.32.53.34.98.79,1.32,1.32-1.26-1.4-3.41-1.51-4.8-.26-1.4,1.26-1.51,3.41-.26,4.8,1.26,1.4,3.41,1.51,4.8.26.09-.08.18-.17.26-.26Z"/>
    </g>
  </g>
</svg>