<?xml version="1.0" encoding="UTF-8"?>
<svg id="Layer_2" data-name="Layer 2" xmlns="http://www.w3.org/2000/svg" viewBox="0 0 25.51 17.01">
  <defs>
    <style>
      .cls-1 {
        fill: #fff;
      }

      .cls-2 {
        fill: #c02033;
      }

      .cls-3 {
        fill: #1d2859;
      }
    </style>
  </defs>
  <g id="Layer_1-2" data-name="Layer 1">
    <g>
      <path class="cls-2" d="M0,0h25.51v17.01H0V0Z"/>
      <path class="cls-3" d="M2.13,8.44l10.59,7.15,10.67-7.17L12.71,1.42,2.13,8.44Z"/>
      <path class="cls-1" d="M4.76,8.45l7.96,5.38,8.03-5.39L12.72,3.17l-7.96,5.28Z"/>
      <path class="cls-3" d="M8.4,8.22h.44l.08.25h.27l-.42-1.2h-.29l-.43,1.2h.26l.08-.25h0ZM8.62,7.54h0l.15.48h-.31l.15-.48ZM9.36,8.47h.25v-.47h.26c.09,0,.15.02.17.05.02.04.03.09.03.18,0,.06,0,.11,0,.15,0,.04.01.07.02.1h.28v-.03s-.04-.03-.05-.06c0-.03,0-.09,0-.18,0-.11-.01-.18-.04-.22-.03-.04-.06-.07-.11-.08.06-.02.11-.06.14-.11.03-.05.05-.11.05-.18,0-.04,0-.08-.03-.13-.02-.05-.06-.1-.11-.14-.05-.04-.13-.06-.24-.07h-.61v1.2h0ZM9.6,7.8v-.32h.31c.07,0,.12.02.14.05.02.03.03.07.03.1,0,.06-.02.1-.05.13-.03.03-.08.04-.15.04h-.29ZM10.84,8.06l.12-.12.37.53h.32l-.52-.71.49-.49h-.33l-.46.49v-.49h-.25v1.2h.25v-.41h0ZM12.03,8.22h.44l.08.25h.27l-.42-1.2h-.29l-.43,1.2h.26l.08-.25h0ZM12.26,7.54h0l.15.48h-.31l.15-.48ZM13.73,8.1h0l-.48-.84h-.26v1.2h.23v-.86h0l.49.86h.25v-1.2h-.23v.84h0ZM14.14,8.1c0,.05.01.11.04.17.03.06.08.12.15.16.07.05.18.07.33.07.04,0,.1,0,.17-.02.07-.02.14-.05.2-.11.06-.06.1-.14.1-.26,0-.11-.03-.18-.1-.23-.06-.05-.13-.08-.22-.1l-.29-.07s-.06-.02-.08-.03c-.03-.02-.04-.05-.04-.09,0-.05.03-.09.07-.11.04-.02.09-.03.14-.03.11,0,.17.03.2.07.03.04.04.08.04.11h.24c0-.05-.01-.11-.04-.17-.03-.06-.08-.11-.14-.15-.07-.04-.16-.07-.29-.07-.13,0-.23.02-.29.07s-.11.09-.14.15c-.02.06-.03.11-.03.16,0,.13.04.21.12.26.08.05.16.08.26.09l.13.03c.06.01.12.03.16.05.04.02.06.05.06.1,0,.06-.03.1-.08.13-.05.02-.11.03-.17.03-.11,0-.18-.03-.21-.07-.03-.04-.05-.08-.05-.12h-.24ZM15.58,8.22h.44l.08.25h.27l-.42-1.2h-.29l-.43,1.2h.26l.08-.25h0ZM15.8,7.54h0l.15.48h-.31l.15-.48ZM16.47,8.1c0,.05.01.11.04.17.03.06.08.12.15.16.07.05.18.07.33.07.04,0,.1,0,.17-.02.07-.02.14-.05.2-.11.06-.06.1-.14.1-.26,0-.11-.03-.18-.1-.23-.06-.05-.13-.08-.22-.1l-.29-.07s-.06-.02-.08-.03c-.03-.02-.04-.05-.04-.09,0-.05.03-.09.07-.11.04-.02.09-.03.14-.03.11,0,.17.03.2.07.03.04.04.08.04.11h.24c0-.05-.01-.11-.04-.17-.03-.06-.08-.11-.14-.15-.07-.04-.16-.07-.29-.07-.13,0-.23.02-.29.07s-.11.09-.14.15c-.02.06-.03.11-.03.16,0,.13.04.21.12.26.08.05.16.08.26.09l.13.03c.06.01.12.03.16.05.04.02.06.05.06.1,0,.06-.03.1-.08.13-.05.02-.11.03-.17.03-.11,0-.18-.03-.21-.07-.03-.04-.05-.08-.05-.12h-.24Z"/>
      <path class="cls-1" d="M13.01,2.83l-.31-.23-.31.23.12-.37-.31-.23h.39s.12-.37.12-.37l.12.37h.39s-.31.23-.31.23l.12.37h0Z"/>
      <path class="cls-3" d="M13.32,10.77l-.56.4-.57-.4.22.65-.57.4h.7s.22.65.22.65l.22-.65h.7s-.57-.4-.57-.4l.22-.65Z"/>
      <path id="a" class="cls-3" d="M11.49,10.77l-.56-.4-.57.4.22-.65-.56-.4h.7s.22-.65.22-.65l.22.65h.7s-.57.4-.57.4l.22.65Z"/>
      <path id="b" class="cls-1" d="M12.24,13.81l-.23.31.23.31-.37-.12-.23.31v-.39s-.37-.12-.37-.12l.37-.12v-.39s.23.31.23.31l.37-.12h0Z"/>
      <path id="c" class="cls-1" d="M13.21,13.81l.23.31-.23.31.37-.12.23.31v-.39s.37-.12.37-.12l-.37-.12v-.39s-.23.31-.23.31l-.37-.12h0Z"/>
      <path id="a-2" data-name="a" class="cls-3" d="M15.15,10.77l-.56-.4-.57.4.22-.65-.56-.4h.7s.22-.65.22-.65l.22.65h.7s-.57.4-.57.4l.22.65Z"/>
      <path id="a-3" data-name="a" class="cls-3" d="M13.32,5.95l-.56-.4-.57.4.22-.65-.56-.4h.7s.22-.65.22-.65l.22.65h.7s-.57.4-.57.4l.22.65Z"/>
      <path id="b-2" data-name="b" class="cls-1" d="M20.83,7.06l-.23.31.23.31-.37-.12-.23.31v-.39s-.37-.12-.37-.12l.37-.12v-.39s.23.31.23.31l.37-.12h0Z"/>
      <path id="b-3" data-name="b" class="cls-1" d="M19.3,6.04l-.23.31.23.31-.37-.12-.23.31v-.39s-.37-.12-.37-.12l.37-.12v-.39s.23.31.23.31l.37-.12h0Z"/>
      <path id="b-4" data-name="b" class="cls-1" d="M17.77,5.02l-.23.31.23.31-.37-.12-.23.31v-.39s-.37-.12-.37-.12l.37-.12v-.39s.23.31.23.31l.37-.12h0Z"/>
      <path id="b-5" data-name="b" class="cls-1" d="M16.24,4.06l-.23.31.23.31-.37-.12-.23.31v-.39s-.37-.12-.37-.12l.37-.12v-.39s.23.31.23.31l.37-.12h0Z"/>
      <path id="b-6" data-name="b" class="cls-1" d="M14.71,3.04l-.23.31.23.31-.37-.12-.23.31v-.39s-.37-.12-.37-.12l.37-.12v-.39s.23.31.23.31l.37-.12h0Z"/>
      <path id="b-7" data-name="b" class="cls-1" d="M5.44,9.16l-.23.31.23.31-.37-.12-.23.31v-.39s-.37-.12-.37-.12l.37-.12v-.39s.23.31.23.31l.37-.12h0Z"/>
      <path id="b-8" data-name="b" class="cls-1" d="M6.8,10.07l-.23.31.23.31-.37-.12-.23.31v-.39s-.37-.12-.37-.12l.37-.12v-.39s.23.31.23.31l.37-.12h0Z"/>
      <path id="b-9" data-name="b" class="cls-1" d="M8.16,10.97l-.23.31.23.31-.37-.12-.23.31v-.39s-.37-.12-.37-.12l.37-.12v-.39s.23.31.23.31l.37-.12h0Z"/>
      <path id="b-10" data-name="b" class="cls-1" d="M9.52,11.94l-.23.31.23.31-.37-.12-.23.31v-.39s-.37-.12-.37-.12l.37-.12v-.39s.23.31.23.31l.37-.12h0Z"/>
      <path id="b-11" data-name="b" class="cls-1" d="M10.88,12.84l-.23.31.23.31-.37-.12-.23.31v-.39s-.37-.12-.37-.12l.37-.12v-.39s.23.31.23.31l.37-.12h0Z"/>
      <path id="b-12" data-name="b" class="cls-1" d="M4.08,8.19l-.23.31.23.31-.37-.12-.23.31v-.39s-.37-.12-.37-.12l.37-.12v-.39s.23.31.23.31l.37-.12h0Z"/>
      <path id="c-2" data-name="c" class="cls-1" d="M4.65,7.06l.23.31-.23.31.37-.12.23.31v-.39s.37-.12.37-.12l-.37-.12v-.39s-.23.31-.23.31l-.37-.12h0Z"/>
      <path id="c-3" data-name="c" class="cls-1" d="M6.18,6.04l.23.31-.23.31.37-.12.23.31v-.39s.37-.12.37-.12l-.37-.12v-.39s-.23.31-.23.31l-.37-.12h0Z"/>
      <path id="c-4" data-name="c" class="cls-1" d="M7.71,5.02l.23.31-.23.31.37-.12.23.31v-.39s.37-.12.37-.12l-.37-.12v-.39s-.23.31-.23.31l-.37-.12h0Z"/>
      <path id="c-5" data-name="c" class="cls-1" d="M9.24,4.06l.23.31-.23.31.37-.12.23.31v-.39s.37-.12.37-.12l-.37-.12v-.39s-.23.31-.23.31l-.37-.12h0Z"/>
      <path id="c-6" data-name="c" class="cls-1" d="M10.77,3.04l.23.31-.23.31.37-.12.23.31v-.39s.37-.12.37-.12l-.37-.12v-.39s-.23.31-.23.31l-.37-.12h0Z"/>
      <path id="c-7" data-name="c" class="cls-1" d="M21.37,8.19l.23.31-.23.31.37-.12.23.31v-.39s.37-.12.37-.12l-.37-.12v-.39s-.23.31-.23.31l-.37-.12h0Z"/>
      <path id="c-8" data-name="c" class="cls-1" d="M20.01,9.16l.23.31-.23.31.37-.12.23.31v-.39s.37-.12.37-.12l-.37-.12v-.39s-.23.31-.23.31l-.37-.12h0Z"/>
      <path id="c-9" data-name="c" class="cls-1" d="M18.65,10.07l.23.31-.23.31.37-.12.23.31v-.39s.37-.12.37-.12l-.37-.12v-.39s-.23.31-.23.31l-.37-.12h0Z"/>
      <path id="c-10" data-name="c" class="cls-1" d="M17.29,10.97l.23.31-.23.31.37-.12.23.31v-.39s.37-.12.37-.12l-.37-.12v-.39s-.23.31-.23.31l-.37-.12h0Z"/>
      <path id="c-11" data-name="c" class="cls-1" d="M15.93,11.94l.23.31-.23.31.37-.12.23.31v-.39s.37-.12.37-.12l-.37-.12v-.39s-.23.31-.23.31l-.37-.12h0Z"/>
      <path id="c-12" data-name="c" class="cls-1" d="M14.57,12.84l.23.31-.23.31.37-.12.23.31v-.39s.37-.12.37-.12l-.37-.12v-.39s-.23.31-.23.31l-.37-.12h0Z"/>
    </g>
  </g>
</svg>