<?xml version="1.0" encoding="UTF-8"?>
<svg id="Layer_2" data-name="Layer 2" xmlns="http://www.w3.org/2000/svg" viewBox="0 0 27.21 17.01">
  <defs>
    <style>
      .cls-1 {
        fill: none;
      }

      .cls-2, .cls-3 {
        fill-rule: evenodd;
      }

      .cls-2, .cls-4 {
        fill: #eed117;
      }

      .cls-3, .cls-5 {
        fill: #1d2859;
      }

      .cls-6 {
        fill: #fff;
      }

      .cls-7 {
        fill: #c02033;
      }
    </style>
  </defs>
  <g id="Layer_1-2" data-name="Layer 1">
    <g>
      <path class="cls-7" d="M0,0h27.21v17.01H0V0Z"/>
      <path class="cls-6" d="M0,5.67h27.21v5.67h-15.87L0,5.67Z"/>
      <path class="cls-5" d="M0,0h11.34v11.34H0V0Z"/>
      <path class="cls-6" d="M5.92,1.55l.4-.28h-.49s-.15-.48-.15-.48l-.16.47h-.49s.4.29.4.29l-.16.47.4-.28.4.3-.15-.47ZM3.98,1.9l.23-.44-.44.22-.35-.35.08.49-.44.22.49.08.08.49.23-.44.49.08-.35-.35ZM2.42,3.12v-.49s-.29.4-.29.4l-.47-.15.29.4-.29.4.47-.16.29.4v-.49s.46-.16.46-.16l-.47-.15ZM1.61,4.92l-.23-.44-.07.49-.49.09.45.21-.07.49.34-.36.45.21-.23-.44.34-.36-.49.09ZM1.72,6.89l-.41-.28.17.46-.39.3.49-.02.17.46.14-.48.49-.02-.41-.28.14-.48-.39.3ZM2.74,8.59l-.49-.05.37.33-.2.45.43-.24.37.33-.1-.48.43-.24-.49-.05-.1-.48-.2.45ZM4.44,9.61l-.46.18.48.13.03.49.27-.42.48.13-.31-.38.27-.42-.46.18-.31-.38.03.49ZM6.4,9.73l-.32.37.48-.11.25.42.04-.49.48-.11-.46-.19.04-.49-.32.37-.46-.19.25.42ZM8.21,8.93l-.11.48.37-.32.42.26-.19-.46.37-.32-.49.04-.19-.46-.11.48-.49.04.42.26ZM9.43,7.37l.12.48.18-.46.49.03-.38-.31.18-.46-.42.26-.38-.31.12.48-.42.26.49.03ZM9.21,3.54l.46.17-.27-.41.31-.39-.48.13-.27-.41-.02.49-.48.13.46.17-.02.49.31-.39ZM7.81,2.14l.49-.06-.43-.24.09-.49-.36.34-.43-.24.21.45-.36.34.49-.06.21.45.09-.49ZM9.79,5.43l.33.37-.05-.49.45-.2-.48-.1-.05-.49-.25.43-.48-.1.33.37-.25.43.45-.2Z"/>
      <g>
        <path class="cls-2" d="M3.62,8.23h-.14v-.02s0,0,.02,0c0,0,.01,0,.02,0,0,0,0,0,.01,0,0,0,0,0,0-.01v-.23s0,0,0-.01c0,0,0,0-.01,0,0,0-.01,0-.02,0,0,0-.01,0-.02,0v-.02h.14v.02s-.01,0-.02,0c0,0-.01,0-.02,0,0,0,0,0-.01,0,0,0,0,0,0,.01v.23s0,0,0,.01c0,0,0,0,.01,0,0,0,0,0,.02,0,0,0,.01,0,.02,0v.02h0ZM4.01,7.93s-.01,0-.02,0c0,0-.01,0-.02,0,0,0,0,.01-.01.02,0,.01,0,.02,0,.04v.23h-.02l-.19-.26v.16s0,.03,0,.04c0,0,0,.02.01.02,0,0,.01,0,.02,0,.01,0,.02,0,.02,0v.02h-.13v-.02s.01,0,.02,0c0,0,.02,0,.02,0,0,0,0-.01.01-.02,0,0,0-.02,0-.04v-.16s0-.01,0-.02c0,0,0-.01,0-.02,0,0-.01,0-.02-.01,0,0-.02,0-.02,0v-.02h.09l.18.24v-.15s0-.03,0-.04c0-.01,0-.02-.01-.02,0,0-.01,0-.02,0,0,0-.02,0-.02,0v-.02h.13v.02h0ZM4.48,8.1s0,0-.01,0c0,0-.01,0-.01,0,0,0,0,0,0,0,0,0,0,0,0,.01v.02s0,.03,0,.04c0,0,0,.01,0,.02-.02,0-.04.02-.06.02-.02,0-.04,0-.06,0-.02,0-.04,0-.06-.01-.02,0-.04-.02-.05-.03-.01-.01-.03-.03-.03-.05,0-.02-.01-.04-.01-.07s0-.05.01-.07c0-.02.02-.04.03-.05.01-.01.03-.03.05-.03.02,0,.04-.01.06-.01.02,0,.03,0,.05,0,.01,0,.03,0,.04.02v-.02h.03v.11s-.02,0-.02,0c0-.01,0-.02-.01-.04,0-.01-.01-.02-.02-.03,0,0-.02-.02-.03-.02-.01,0-.02,0-.04,0-.02,0-.03,0-.04,0-.01,0-.02.02-.03.03,0,.01-.02.03-.02.05,0,.02,0,.04,0,.06,0,.02,0,.04,0,.06,0,.02.01.03.02.05,0,.01.02.02.03.03.01,0,.03.01.05.01.01,0,.03,0,.04,0,.01,0,.02,0,.02-.01,0,0,0-.02,0-.02,0,0,0-.01,0-.02v-.02s0-.01,0-.02c0,0,0,0-.01-.01,0,0-.01,0-.02,0,0,0-.01,0-.02,0v-.02h.14v.02h0ZM4.79,7.95s.03.03.03.05c0,.02.01.04.01.07,0,.03,0,.05-.01.07s-.02.04-.03.05c-.01.01-.03.03-.05.03-.02,0-.04.01-.06.01-.02,0-.04,0-.06-.01-.02,0-.03-.02-.05-.03-.01-.01-.02-.03-.03-.05,0-.02-.01-.04-.01-.07,0-.03,0-.05.01-.07,0-.02.02-.04.03-.05.01-.01.03-.03.05-.03.02,0,.04-.01.06-.01.02,0,.04,0,.06.01.02,0,.03.02.05.03h0ZM4.76,8.17s.01-.03.02-.05c0-.02,0-.04,0-.06,0-.02,0-.04,0-.06,0-.02-.01-.03-.02-.05,0-.01-.02-.02-.03-.03-.01,0-.03-.01-.04-.01-.02,0-.03,0-.05.01-.01,0-.02.02-.03.03,0,.01-.01.03-.02.05,0,.02,0,.04,0,.06,0,.02,0,.04,0,.06,0,.02.01.03.02.05,0,.01.02.02.03.03.01,0,.03.01.04.01.02,0,.03,0,.04-.01.01,0,.02-.02.03-.03h0ZM5.19,8.07s0,.05-.02.07c-.01.02-.02.04-.04.05-.02.01-.03.02-.06.03-.02,0-.04,0-.06,0h-.13v-.02s0,0,.02,0c0,0,.01,0,.01,0,0,0,0,0,0,0,0,0,0,0,0-.01v-.23s0,0,0-.01c0,0,0,0-.01,0,0,0,0,0-.02,0,0,0-.01,0-.01,0v-.02h.14s.04,0,.06,0c.02,0,.03.01.05.02.02.01.03.03.04.05.01.02.02.05.02.08h0ZM5.13,8.07s0-.04,0-.06c0-.02-.01-.03-.02-.05-.01-.01-.02-.02-.04-.03-.01,0-.03-.01-.05-.01,0,0-.01,0-.02,0,0,0-.01,0-.02,0v.24s0,.02.01.03c0,0,.02,0,.04,0,.02,0,.04,0,.05-.01.01,0,.03-.02.03-.03,0-.01.02-.03.02-.04,0-.02,0-.04,0-.06h0ZM5.79,7.93s0,0-.01,0c0,0,0,0-.01,0,0,0,0,0-.01.01,0,0,0,.01,0,.02-.01.03-.02.07-.04.12-.02.05-.03.1-.05.15h-.02l-.08-.24-.08.24h-.02c-.02-.05-.03-.11-.05-.16-.02-.06-.03-.09-.03-.11,0,0,0,0,0-.01,0,0,0,0-.01,0,0,0,0,0-.01,0,0,0,0,0-.01,0v-.02h.13v.02s-.02,0-.03,0c0,0-.01,0-.01,0,0,0,0,0,0,0,0,0,0,0,0,0,0,.01,0,.03.02.07,0,.03.02.08.04.14l.08-.24h.02l.08.24s.02-.06.03-.1c0-.03.01-.05.02-.07,0-.01,0-.02,0-.03,0,0,0,0,0-.01,0,0,0,0-.01-.01,0,0-.02,0-.03,0v-.02h.12v.02ZM6.1,8.13v.09h-.27v-.02s.01,0,.02,0c0,0,.01,0,.01,0,0,0,0,0,0,0,0,0,0,0,0-.01v-.23s0,0,0-.01c0,0,0,0-.01,0,0,0,0,0-.02,0,0,0-.01,0-.02,0v-.02h.25v.08h-.02s0-.02-.02-.04c0-.01-.02-.02-.03-.02,0,0-.01,0-.02,0,0,0-.01,0-.02,0h-.05v.13h.04s.02,0,.03,0c0,0,.01,0,.01-.01,0,0,0-.01,0-.02,0,0,0-.01,0-.02h.02v.12h-.02s0-.01,0-.02c0,0,0-.01,0-.02,0,0,0,0-.02-.01,0,0-.01,0-.02,0h-.04v.1s0,.02,0,.02c0,0,0,0,0,.01,0,0,0,0,.02,0,0,0,.02,0,.03,0h.02s.01,0,.02,0c0,0,.01,0,.02,0,0,0,.01,0,.01,0,0,0,.01-.02.02-.03,0-.01.01-.03.01-.03h.02ZM6.57,8h-.02s0-.01,0-.02c0,0,0-.01-.01-.02,0,0,0-.01-.01-.02,0,0-.01,0-.02,0,0,0-.01,0-.02,0,0,0-.01,0-.02,0h-.01v.25s0,0,0,.01c0,0,0,0,.01,0,0,0,0,0,.02,0,0,0,.02,0,.02,0v.02h-.15v-.02s.01,0,.02,0c0,0,.01,0,.02,0,0,0,0,0,.01,0,0,0,0,0,0-.01v-.26h-.01s-.01,0-.02,0c0,0-.01,0-.02,0,0,0-.01,0-.02,0,0,0-.01.01-.01.02s0,.01-.01.02c0,0,0,.01,0,.02h-.02v-.09h.28v.09h0ZM6.93,8.23h-.09s-.04-.06-.05-.08c-.02-.02-.03-.05-.05-.07h-.03v.1s0,0,0,.01c0,0,0,0,.01,0,0,0,0,0,.01,0,0,0,.01,0,.02,0v.02h-.13v-.02s0,0,.02,0c0,0,.01,0,.01,0,0,0,0,0,0,0,0,0,0,0,0-.01v-.23s0,0,0-.01c0,0,0,0-.01,0,0,0,0,0-.01,0,0,0-.01,0-.02,0v-.02h.15s.03,0,.04,0c.01,0,.02,0,.03.01,0,0,.02.01.02.02,0,0,0,.02,0,.03,0,.01,0,.02,0,.03,0,0,0,.02-.02.02,0,0-.01.01-.02.02,0,0-.02,0-.03.01.02.02.03.04.04.05.01.01.02.03.04.05,0,0,.01.02.02.02,0,0,.01,0,.02.01,0,0,0,0,.01,0,0,0,.01,0,.01,0v.02h0ZM6.81,7.99s0-.03-.02-.05c-.01-.01-.03-.02-.05-.02h-.04v.14h.03s.04,0,.05-.02c.01-.01.02-.03.02-.05h0ZM7.26,7.93s-.01,0-.02,0c0,0-.01,0-.02,0,0,0,0,.01-.01.02,0,.01,0,.02,0,.04v.14s0,.03-.01.05c0,.01-.02.02-.03.03-.01,0-.02.01-.04.02-.01,0-.03,0-.04,0-.02,0-.04,0-.05,0-.01,0-.03-.01-.04-.02-.01,0-.02-.02-.02-.03,0-.01,0-.02,0-.03v-.19s0,0,0-.01c0,0,0,0-.01,0,0,0,0,0-.01,0,0,0-.01,0-.01,0v-.02h.13v.02s0,0-.02,0c0,0-.01,0-.01,0,0,0,0,0-.01,0,0,0,0,0,0,.01v.18s0,.02,0,.03c0,0,0,.02.01.03,0,0,.01.01.02.02.01,0,.02,0,.04,0,.02,0,.03,0,.04,0,.01,0,.02-.01.03-.02,0,0,.01-.02.01-.03,0,0,0-.02,0-.03v-.13s0-.03,0-.04c0-.01,0-.02-.01-.02,0,0-.01,0-.02,0,0,0-.02,0-.02,0v-.02h.13v.02h0ZM7.5,8.08s.01.02.01.02c0,0,0,.02,0,.03,0,.03-.01.05-.03.07-.02.02-.05.03-.08.03-.01,0-.03,0-.04,0-.01,0-.03,0-.04-.02v.02h-.03v-.11s.02,0,.02,0c0,.01,0,.03.01.04,0,.01.01.02.02.03,0,0,.02.02.03.02.01,0,.02,0,.04,0,.01,0,.02,0,.03,0,0,0,.01,0,.02-.01,0,0,0-.01.01-.02,0,0,0-.01,0-.02,0-.01,0-.02-.01-.04,0-.01-.02-.02-.03-.03-.01,0-.02,0-.03-.01-.01,0-.02,0-.03-.01-.02,0-.03-.02-.04-.03,0-.01-.01-.03-.01-.05,0-.01,0-.02,0-.03,0-.01.01-.02.02-.03,0,0,.02-.01.03-.02.01,0,.02,0,.04,0,.01,0,.03,0,.04,0,.01,0,.02,0,.03.02v-.02h.03v.11s-.02,0-.02,0c0-.01,0-.02-.01-.03,0-.01,0-.02-.02-.03,0,0-.01-.02-.02-.02,0,0-.02,0-.03,0-.01,0-.03,0-.04.01-.01,0-.02.02-.02.03s0,.03,0,.03c0,0,.02.02.03.02.01,0,.02,0,.03.01.01,0,.02,0,.03.01,0,0,.02,0,.03.01,0,0,.02.01.02.02h0ZM7.84,8h-.02s0-.01,0-.02c0,0,0-.01-.01-.02,0,0,0-.01-.01-.02,0,0-.01,0-.02,0,0,0-.01,0-.02,0,0,0-.01,0-.02,0h-.01v.25s0,0,0,.01c0,0,0,0,.01,0,0,0,0,0,.02,0,0,0,.02,0,.02,0v.02h-.15v-.02s.01,0,.02,0c0,0,.01,0,.02,0,0,0,0,0,.01,0,0,0,0,0,0-.01v-.26h-.01s-.01,0-.02,0c0,0-.01,0-.02,0,0,0-.01,0-.02,0,0,0-.01.01-.01.02s0,.01-.01.02c0,0,0,.01,0,.02h-.02v-.09h.28v.09Z"/>
        <path class="cls-4" d="M7.1,8.24s-.04,0-.05,0c-.02,0-.03-.01-.04-.02-.01,0-.02-.02-.02-.03,0-.01,0-.02,0-.04v-.19s0,0,0-.01c0,0,0,0,0,0,0,0,0,0-.01,0,0,0-.01,0-.01,0h0v-.02h.14v.02h0s0,0-.02,0c0,0-.01,0-.01,0,0,0,0,0,0,0,0,0,0,0,0,.01v.18s0,.02,0,.03c0,0,0,.02.01.02,0,0,.01.01.02.02,0,0,.02,0,.04,0,.02,0,.03,0,.04,0,.01,0,.02-.01.03-.02,0,0,.01-.02.01-.02,0,0,0-.02,0-.03v-.13s0-.03,0-.04c0,0,0-.02,0-.02,0,0-.01,0-.02,0,0,0-.02,0-.02,0h0v-.02h.14v.02h0s-.01,0-.02,0c0,0-.01,0-.02,0,0,0,0,0,0,.02,0,.01,0,.02,0,.04v.14s0,.03-.01.05c0,.01-.02.02-.03.03-.01,0-.03.01-.04.02-.01,0-.03,0-.04,0ZM6.94,7.92s0,0,.01,0c0,0,.01,0,.02,0,0,0,0,0,.01.01,0,0,0,0,0,.01v.19s0,.02,0,.03c0,.01.01.02.02.03,0,0,.02.01.04.02.01,0,.03,0,.05,0,.01,0,.02,0,.04,0,.01,0,.02,0,.04-.02.01,0,.02-.02.03-.03,0-.01.01-.03.01-.04v-.14s0-.03,0-.04c0-.01,0-.02.01-.02,0,0,.01,0,.02,0,0,0,.01,0,.02,0h0s-.12,0-.12,0h0s.01.01.02.01c0,0,.02,0,.02,0,0,0,0,.01.01.02,0,.01,0,.02,0,.04v.13s0,.02,0,.03c0,0,0,.02-.01.03,0,0-.02.02-.03.02-.01,0-.03,0-.04,0-.02,0-.03,0-.04,0-.01,0-.02-.01-.02-.02,0,0,0-.02-.01-.03,0,0,0-.02,0-.03v-.18s0-.01,0-.01c0,0,0,0,.01-.01,0,0,0,0,.01,0,0,0,0,0,.01,0h0s-.13,0-.13,0h0ZM4.68,8.24s-.04,0-.06-.01c-.02,0-.04-.02-.05-.04-.01-.01-.02-.03-.03-.05,0-.02-.01-.04-.01-.07,0-.03,0-.05.01-.07,0-.02.02-.04.03-.05.01-.01.03-.03.05-.03.02,0,.04-.01.06-.01h0s.04,0,.06.01c.02,0,.04.02.05.03.01.01.03.03.03.05,0,.02.01.04.01.07,0,.03,0,.05-.01.07,0,.02-.02.04-.03.05-.01.01-.03.03-.05.03-.02,0-.04.01-.06.01ZM4.68,7.91s-.04,0-.06.01c-.02,0-.03.02-.05.03-.01.01-.02.03-.03.05,0,.02-.01.04-.01.07,0,.02,0,.05.01.07,0,.02.02.04.03.05.01.01.03.03.05.03.02,0,.04.01.06.01.02,0,.04,0,.06-.01.02,0,.03-.02.05-.03.01-.01.03-.03.03-.05,0-.02.01-.04.01-.07,0-.02,0-.05-.01-.07,0-.02-.02-.04-.03-.05h0s-.03-.02-.05-.03c-.02,0-.04-.01-.06-.01h0ZM4.32,8.24s-.04,0-.06-.01c-.02,0-.04-.02-.05-.03-.01-.01-.03-.03-.03-.05,0-.02-.01-.04-.01-.07s0-.05.01-.07c0-.02.02-.04.03-.06.01-.02.03-.03.05-.04.02,0,.04-.01.06-.01.02,0,.03,0,.05,0,.01,0,.02,0,.03.01h0s.02-.01.02-.01v.12s-.02,0-.02,0h0s0-.03-.01-.04c0-.01-.01-.02-.02-.03,0,0-.02-.02-.03-.02,0,0-.02,0-.04,0-.02,0-.03,0-.04,0-.01,0-.02.02-.03.03,0,.01-.02.03-.02.05,0,.02,0,.04,0,.06,0,.02,0,.04,0,.06,0,.02.01.03.02.05,0,.01.02.02.03.03.01,0,.03.01.05.01.01,0,.02,0,.03,0,0,0,.02,0,.02-.01,0,0,0-.01,0-.02,0,0,0-.01,0-.02v-.02s0-.01,0-.02c0,0,0,0,0,0,0,0-.01,0-.02,0,0,0-.01,0-.02,0h0v-.02h.15v.02h0s0,0-.01,0c0,0-.01,0-.01,0,0,0,0,0,0,0,0,0,0,0,0,.01v.02s0,.03,0,.04c0,0,0,.01,0,.02h0s0,0,0,0c-.02,0-.04.02-.06.02-.02,0-.04,0-.06,0ZM4.33,7.91s-.04,0-.06.01c-.02,0-.04.02-.05.03-.01.01-.03.03-.03.05,0,.02-.01.04-.01.07s0,.05.01.07c0,.02.02.04.03.05.01.01.03.02.05.03.04.01.07.01.11,0,.02,0,.04-.01.06-.02,0,0,0,0,0-.01,0,0,0-.02,0-.04v-.02s0-.01,0-.02c0,0,0,0,.01-.01,0,0,0,0,.02,0,0,0,0,0,.01,0h0s-.13-.01-.13-.01h0s0,.01.02.01c0,0,.02,0,.02,0,0,0,.01,0,.01.01,0,0,0,.01,0,.02v.02s0,.01,0,.02c0,0,0,.02,0,.02h0s0,0,0,0c0,0-.01,0-.02.01-.01,0-.02,0-.04,0-.02,0-.03,0-.05-.01-.01,0-.03-.02-.04-.03,0-.01-.02-.03-.02-.05,0-.02,0-.04,0-.06,0-.02,0-.04,0-.06,0-.02.01-.03.02-.05,0-.01.02-.02.03-.03.01,0,.03-.01.04-.01.02,0,.03,0,.04,0,.01,0,.02.01.03.02,0,0,.01.02.02.03,0,.01,0,.02.01.03h.01v-.1h-.01v.02s-.01,0-.01,0c0,0-.02-.01-.03-.02-.01,0-.03,0-.05,0ZM7.41,8.24s-.03,0-.04,0c-.01,0-.02,0-.03-.01v.02h-.03v-.12s.02,0,.02,0h0s0,.03.01.04c0,.01.01.02.02.03,0,0,.02.02.03.02,0,0,.02,0,.03,0,0,0,.02,0,.03,0,0,0,.01,0,.02-.01,0,0,0,0,0-.02,0,0,0-.01,0-.02,0-.01,0-.02-.01-.03,0-.01-.02-.02-.03-.02-.01,0-.02,0-.03-.01-.01,0-.02,0-.03-.01-.02,0-.03-.02-.04-.03-.01-.01-.02-.03-.02-.05,0-.01,0-.02,0-.04,0-.01.01-.02.02-.03,0,0,.02-.01.03-.02.01,0,.02,0,.04,0h0s.03,0,.04,0c.01,0,.02,0,.03.01h0s.02-.01.02-.01v.11s-.02,0-.02,0h0s0-.03-.01-.04c0-.01,0-.02-.02-.03,0,0-.01-.01-.02-.02,0,0-.02,0-.03,0-.01,0-.02,0-.03.01,0,0-.01.02-.01.03,0,.01,0,.02,0,.03,0,0,.02.02.03.02.01,0,.02,0,.03.01.01,0,.02,0,.03.01,0,0,.02,0,.03.01,0,0,.02.01.02.02h0s.01.02.02.03c0,0,0,.02,0,.03,0,.03-.01.05-.03.07-.02.02-.05.03-.08.03ZM7.33,8.21h0s.02.01.04.02c.01,0,.03,0,.04,0,.03,0,.06,0,.08-.03.02-.02.03-.04.03-.07,0-.01,0-.02,0-.03,0,0,0-.02-.01-.02,0,0-.01-.01-.02-.02,0,0-.02,0-.03-.01,0,0-.02,0-.03-.01-.01,0-.02,0-.03-.01-.01,0-.02-.01-.03-.02,0,0-.01-.02-.01-.04s0-.03.02-.04c.01,0,.02-.01.04-.01.01,0,.03,0,.04,0,0,0,.02.01.02.02,0,0,.01.02.02.03,0,.01,0,.02.01.03h.01v-.1h-.01v.02s-.01,0-.01,0c0,0-.02-.01-.03-.02-.01,0-.02,0-.04,0h0s-.02,0-.04,0c-.01,0-.02.01-.03.02,0,0-.02.02-.02.03,0,0,0,.02,0,.03,0,.02,0,.04.01.05,0,.01.02.02.04.03,0,0,.02,0,.03.01.01,0,.02,0,.03.01.01,0,.03.01.03.03,0,.01.01.02.01.04,0,0,0,.02,0,.02,0,0,0,.01-.01.02,0,0-.01,0-.02.01,0,0-.02,0-.03,0-.01,0-.03,0-.04,0-.01,0-.02-.01-.03-.02,0,0-.02-.02-.02-.03,0-.01,0-.02-.01-.03h-.01v.1h.02v-.02ZM5.67,8.24h-.03s-.08-.24-.08-.24l-.08.24h-.03c-.02-.06-.03-.11-.05-.17l-.03-.11s0,0,0-.01c0,0,0,0,0,0,0,0,0,0-.01,0,0,0,0,0-.01,0h0v-.02h.14v.02h0s-.02,0-.03,0c0,0,0,0,0,0,0,0,0,0,0,0,0,0,0,0,0,0,0,.01,0,.03.02.07,0,.03.02.07.04.13l.08-.23h.03s.08.23.08.23c0-.03.02-.06.02-.09,0-.03.01-.05.02-.07,0-.01,0-.02,0-.03,0,0,0,0,0-.01,0,0,0,0,0,0,0,0-.02,0-.03,0h0v-.02h.12v.02h0s0,0-.01,0c0,0,0,0-.01,0,0,0,0,0-.01.01,0,0,0,0,0,.02-.01.03-.02.07-.04.12-.02.05-.03.1-.05.15h0ZM5.65,8.23h.02s.03-.1.04-.15c.01-.05.03-.09.04-.12,0,0,0-.01,0-.02,0,0,0,0,.01-.01,0,0,0,0,.01,0,0,0,0,0,.01,0h0s-.11,0-.11,0h0s.02.01.03.02c0,0,.01,0,.01.02,0,0,0,0,0,.01,0,0,0,.01,0,.03,0,.02-.01.04-.02.07,0,.03-.02.06-.03.1h0s-.08-.24-.08-.24h-.02l-.08.24h0c-.02-.07-.03-.12-.04-.15,0-.03-.01-.05-.02-.07,0,0,0,0,0,0,0,0,0,0,0,0,0,0,0,0,.01-.01,0,0,.02,0,.03,0h0s-.12,0-.12,0h0s0,.01.01.01c0,0,.01,0,.01,0,0,0,0,0,.01.01,0,0,0,0,0,.01l.03.11c.02.05.03.11.05.16h.01l.09-.25.08.25ZM3.96,8.23h-.03s-.19-.25-.19-.25v.15s0,.03,0,.04c0,0,0,.02,0,.02,0,0,0,0,.02,0,.01,0,.02,0,.02,0h0v.02h-.14v-.02h0s0,0,.02,0c.01,0,.02,0,.02,0,0,0,0,0,0-.02,0,0,0-.02,0-.04v-.16s0-.01,0-.02c0,0,0-.01,0-.01,0,0-.01,0-.02-.01,0,0-.02,0-.02,0h0v-.02h.1s.17.24.17.24v-.14s0-.03,0-.04c0,0,0-.02,0-.02,0,0-.01,0-.02,0,0,0-.02,0-.02,0h0v-.02h.14v.02h0s-.01,0-.02,0c0,0-.01,0-.02,0,0,0,0,0,0,.02,0,.01,0,.02,0,.04v.24ZM3.94,8.23h.01v-.23s0-.03,0-.04c0-.01,0-.02.01-.02,0,0,.01,0,.02,0,0,0,.01,0,.02,0h0s-.12,0-.12,0h0s.01.01.02.01c.01,0,.02,0,.02,0,0,0,0,.01.01.02,0,.01,0,.02,0,.04v.16l-.18-.25h-.09s.01.01.02.02c0,0,.02,0,.02.01,0,0,0,0,.01.02,0,0,0,.01,0,.02v.16s0,.04,0,.04c0,0,0,.02-.01.02,0,0,0,0-.02,0,0,0-.01,0-.02,0h0s.12,0,.12,0h0s-.01-.01-.02-.01c-.01,0-.02,0-.02,0,0,0,0-.01-.01-.02,0-.01,0-.02,0-.04v-.17l.2.27ZM7.78,8.23h-.16v-.02h0s.01,0,.02,0c0,0,.01,0,.02,0,0,0,0,0,0,0,0,0,0,0,0-.01v-.25h0s-.01,0-.02,0c0,0-.01,0-.02,0,0,0,0,0-.01,0,0,0,0,.01-.01.02,0,0,0,.01-.01.02,0,0,0,.01,0,.02h0s-.02,0-.02,0v-.09h.28v.09h-.02s0-.01,0-.02c0,0,0-.01-.01-.02,0,0,0-.01-.01-.02,0,0,0,0-.01,0,0,0-.01,0-.02,0,0,0-.01,0-.02,0h0v.25s0,0,0,.01c0,0,0,0,0,0,0,0,0,0,.02,0,0,0,.02,0,.02,0h0v.02ZM7.63,8.23h.14s-.01-.01-.02-.01c0,0-.01,0-.02,0,0,0-.01,0-.01-.01,0,0,0,0,0-.02v-.26h.02s.01,0,.02,0c0,0,.01,0,.02,0,0,0,.01,0,.02,0,0,0,.01.01.02.02,0,0,0,.01.01.02,0,0,0,.01,0,.02h0v-.08h-.27v.08h.01s0-.01,0-.02c0,0,0-.02.01-.02,0,0,0-.01.01-.02,0,0,.01,0,.02,0,0,0,.01,0,.02,0,0,0,.01,0,.02,0h.02v.26s0,.01,0,.02c0,0,0,0-.01,0,0,0,0,0-.02,0,0,0-.01,0-.02,0h0ZM6.51,8.23h-.16v-.02h0s.01,0,.02,0c0,0,.01,0,.02,0,0,0,0,0,0,0,0,0,0,0,0-.01v-.25h0s-.01,0-.02,0c0,0-.01,0-.02,0,0,0,0,0-.01,0,0,0,0,.01-.01.02,0,0,0,.01-.01.02,0,0,0,.01,0,.02h0s-.02,0-.02,0v-.09h.28v.09h-.02s0-.01,0-.02c0,0,0-.01-.01-.02,0,0,0-.01-.01-.02,0,0,0,0-.01,0,0,0-.01,0-.02,0,0,0-.01,0-.02,0h0v.25s0,0,0,.01c0,0,0,0,0,0,0,0,0,0,.02,0,0,0,.02,0,.02,0h0v.02ZM6.36,8.23h.14s-.01-.01-.02-.01c0,0-.01,0-.02,0,0,0-.01,0-.01-.01,0,0,0,0,0-.02v-.26h.02s.01,0,.02,0c0,0,.01,0,.02,0,0,0,.01,0,.02,0,0,0,.01.01.02.02,0,0,0,.01.01.02,0,0,0,.01,0,.02h0v-.08h-.27v.08h.01s0-.01,0-.02c0,0,0-.02.01-.02,0,0,0-.01.01-.02,0,0,.01,0,.02,0,0,0,.01,0,.02,0,0,0,.01,0,.02,0h.02v.26s0,.01,0,.02c0,0,0,0-.01,0,0,0,0,0-.02,0,0,0-.01,0-.02,0h0ZM6.94,8.23h-.09s-.04-.06-.05-.08c-.02-.02-.03-.04-.05-.07h-.03v.1s0,0,0,.01c0,0,0,0,0,0,0,0,0,0,.01,0,0,0,.01,0,.02,0h0v.02h-.14v-.02h0s0,0,.02,0c0,0,.01,0,.01,0,0,0,0,0,0,0,0,0,0,0,0-.01v-.23s0,0,0-.01c0,0,0,0,0,0,0,0,0,0-.01,0,0,0-.01,0-.01,0h0v-.02h.15s.03,0,.04,0c.01,0,.02,0,.03.01,0,0,.02.01.02.02,0,.01,0,.02,0,.04,0,.01,0,.02,0,.03,0,0,0,.02-.02.03,0,0-.02.01-.02.02,0,0-.02,0-.03.01.01.02.03.04.04.05.01.01.02.03.04.05,0,0,.01.02.02.02,0,0,.01,0,.02,0,0,0,0,0,.01,0,0,0,.01,0,.01,0h0v.02ZM6.85,8.23h.08s0-.01-.01-.01c0,0-.01,0-.02,0,0,0-.01,0-.02-.01,0,0-.01-.01-.02-.02-.02-.02-.03-.04-.04-.05-.01-.01-.02-.03-.04-.05h0s0,0,0,0c.01,0,.02,0,.03-.01,0,0,.02-.01.02-.02,0,0,.01-.01.02-.02,0,0,0-.02,0-.03,0-.01,0-.02,0-.03,0,0-.01-.02-.02-.02,0,0-.02-.01-.03-.01-.01,0-.02,0-.04,0h-.14s0,.01.01.01c0,0,.01,0,.02,0,0,0,.01,0,.01.01,0,0,0,0,0,.02v.23s0,.01,0,.02c0,0,0,0-.01,0,0,0,0,0-.02,0,0,0,0,0-.01,0h0s.13,0,.13,0h0s0-.01-.01-.01c0,0-.01,0-.01,0,0,0-.01,0-.01-.01,0,0,0,0,0-.02v-.1h.04s.03.05.05.07c.01.02.03.05.05.08ZM6.1,8.23h-.27v-.02h0s.01,0,.02,0c0,0,.01,0,.01,0,0,0,0,0,0,0,0,0,0,0,0-.01v-.23s0,0,0-.01c0,0,0,0,0,0,0,0,0,0-.02,0,0,0-.01,0-.02,0h0v-.02h.25v.08h-.02s0-.03-.02-.04c0-.01-.02-.02-.03-.02,0,0-.01,0-.02,0,0,0-.01,0-.02,0h-.05v.12h.03s.02,0,.02,0c0,0,0,0,.01,0,0,0,0,0,0-.02,0,0,0-.01,0-.02h0s.02,0,.02,0v.13h-.02s0-.02,0-.02c0,0,0-.01,0-.02,0,0,0,0-.01-.01,0,0-.01,0-.02,0h-.03v.09s0,.02,0,.02c0,0,0,0,0,.01,0,0,0,0,.01,0,0,0,.02,0,.03,0h.02s.01,0,.02,0c0,0,.01,0,.02,0,0,0,0,0,.01,0,0,0,.01-.02.02-.03,0-.01.01-.03.01-.03h0s.02,0,.02,0v.1ZM5.84,8.23h.26v-.09s0,0,0,0c0,0,0,.02-.01.03,0,.01-.01.03-.02.03,0,0,0,0-.01,0,0,0-.01,0-.02,0,0,0-.01,0-.02,0h-.02s-.02,0-.03,0c0,0-.01,0-.02,0,0,0,0,0,0-.01,0,0,0-.01,0-.02v-.1h.04s.02,0,.02,0c0,0,.01,0,.02.01,0,0,0,.01,0,.02,0,0,0,.01,0,.02h.01v-.12h-.01s0,.01,0,.02c0,0,0,.01,0,.02,0,0,0,0-.02.01,0,0-.01,0-.03,0h-.04v-.13h.05s.02,0,.02,0c0,0,.01,0,.02,0,0,0,.02,0,.03.02,0,.01.02.02.02.03h.01v-.07h-.24s0,.01.01.01c0,0,.01,0,.02,0,0,0,0,0,.01.01,0,0,0,0,0,.01v.23s0,.01,0,.02c0,0,0,0-.01.01,0,0,0,0-.02,0,0,0-.01,0-.02,0h0ZM5.01,8.23h-.13v-.02h0s0,0,.02,0c0,0,.01,0,.01,0,0,0,0,0,0,0,0,0,0,0,0-.01v-.23s0,0,0-.01c0,0,0,0,0,0,0,0,0,0-.01,0,0,0,0,0-.01,0h0v-.02h.14s.04,0,.06,0c.02,0,.04.01.05.02.02.01.03.03.04.05.01.02.02.05.02.08h0s0,.05-.02.07c-.01.02-.02.04-.04.05-.02.01-.04.02-.06.03-.02,0-.04,0-.06,0ZM4.89,8.23h.13s.04,0,.06,0c.02,0,.04-.02.05-.03.02-.01.03-.03.04-.05,0-.02.01-.04.01-.07,0-.03,0-.05-.02-.07-.01-.02-.02-.04-.04-.05-.01,0-.03-.02-.05-.02-.02,0-.04,0-.06,0h-.14s0,.01.01.01c0,0,.01,0,.02,0,0,0,0,0,.01.01,0,0,0,0,0,.01v.23s0,.01,0,.02c0,0,0,0-.01,0,0,0,0,0-.01,0,0,0-.01,0-.01,0h0ZM3.62,8.23h-.15v-.02h.02s.01,0,.02,0c0,0,0,0,0,0,0,0,0,0,0-.01v-.23s0,0,0-.01c0,0,0,0,0,0,0,0,0,0-.02,0,0,0-.01,0-.02,0h0v-.02h.15v.02h0s0,0-.02,0c0,0-.01,0-.02,0,0,0,0,0,0,0,0,0,0,0,0,.01v.23s0,0,0,.01c0,0,0,0,0,0,0,0,0,0,.01,0,0,0,.01,0,.02,0h0v.02ZM3.48,8.23h.14s0-.01-.02-.01c0,0-.01,0-.02,0,0,0-.01,0-.01-.01,0,0,0,0,0-.01v-.23s0-.01,0-.01c0,0,0,0,.01-.01,0,0,.01,0,.02,0,0,0,0,0,.01,0h0s-.14,0-.14,0h0s0,.01.01.01c0,0,.01,0,.02,0,0,0,.01,0,.01.01,0,0,0,0,0,.01v.23s0,.01,0,.02c0,0,0,0-.01,0,0,0,0,0-.02,0h-.01ZM4.68,8.22s-.03,0-.05-.01c-.01,0-.02-.02-.03-.03,0-.01-.01-.03-.02-.05,0-.02,0-.04,0-.06,0-.02,0-.04,0-.06,0-.02,0-.03.02-.05,0-.01.02-.03.03-.03.01,0,.03-.01.05-.01.02,0,.03,0,.04.01.01,0,.02.02.03.03,0,.01.01.03.02.05,0,.02,0,.04,0,.06s0,.04,0,.06c0,.02-.01.03-.02.05h0s-.02.02-.03.03c-.01,0-.03.01-.04.01ZM4.68,7.93s-.03,0-.04.01c-.01,0-.02.02-.03.03,0,.01-.01.03-.02.05,0,.02,0,.04,0,.05,0,.02,0,.04,0,.06,0,.02,0,.03.02.05,0,.01.02.02.03.03.01,0,.03.01.04.01.02,0,.03,0,.04-.01s.02-.02.03-.03h0s.01-.03.02-.05c0-.02,0-.04,0-.06s0-.04,0-.06c0-.02-.01-.03-.02-.05,0-.01-.02-.02-.03-.03-.01,0-.03-.01-.04-.01ZM5.02,8.21s-.03,0-.04,0c0,0-.01-.02-.01-.03v-.25h0s0,0,.02,0c0,0,.01,0,.02,0,.02,0,.04,0,.05.01.02,0,.03.02.04.03.01.01.02.03.03.05,0,.02,0,.04,0,.06s0,.04,0,.06c0,.02-.01.03-.02.04,0,.01-.02.02-.04.03-.01,0-.03.01-.05.01ZM4.98,7.93v.24s0,.02.01.03c0,0,.02,0,.03,0,.02,0,.03,0,.05,0,.01,0,.02-.02.03-.03,0-.01.02-.03.02-.04,0-.02,0-.04,0-.06s0-.04,0-.06c0-.02-.01-.03-.02-.04,0-.01-.02-.02-.04-.03-.01,0-.03-.01-.05-.01,0,0-.01,0-.02,0,0,0-.01,0-.01,0ZM6.74,8.07h-.03v-.14h.04s.04,0,.05.02c.01.01.02.03.02.05,0,.02,0,.04-.02.06-.01.01-.03.02-.05.02ZM6.72,8.06h.03s.04,0,.05-.02c.01-.01.02-.03.02-.05,0-.02,0-.03-.02-.04-.01-.01-.03-.02-.04-.02h-.03v.13Z"/>
      </g>
      <path class="cls-4" d="M5.68,4.2s0,0,0,0c0,0,.04.01.04.08.03,0,.05.01.04.06,0,0-.04-.01-.05.01-.01.03,0,.05.02.07,0,0,.04.03.07-.03s.04-.09.04-.09c0-.02.05-.08.09-.09.02,0,.03,0,.05,0,0,0,.04,0,.04.04,0,.03-.01.04-.03.05-.02,0-.05-.01-.05-.01,0,0-.01,0-.02,0,0,0-.01.01-.02.03,0,0-.02.04-.03.07,0,.03-.02.1-.1.11h-.18c-.08-.01-.09-.09-.1-.11,0-.03-.03-.07-.03-.07,0-.01-.02-.03-.02-.03,0,0,0,0-.02,0,0,0-.03.02-.05.01-.02,0-.03-.02-.03-.05s.04-.04.04-.04c.02,0,.03,0,.05,0,.04,0,.09.06.09.09,0,0,0,.02.04.09.03.06.07.03.07.03.03-.02.03-.04.02-.07,0-.02-.05-.01-.05-.01,0-.04,0-.06.04-.06,0-.06.04-.08.04-.08,0,0,0,0,0,0h0Z"/>
      <g>
        <path class="cls-2" d="M5.91,6.27h-.44l.05-1.71h.34l.05,1.71ZM5.9,7.22h-.47v-.78s.47,0,.47,0v.78Z"/>
        <path class="cls-5" d="M5.92,7.24h-.5v-.81s.5,0,.5,0v.81ZM5.46,7.2h.43v-.74h-.43s0,.74,0,.74ZM5.92,6.28h-.47l.05-1.74h.37l.05,1.74ZM5.48,6.25h.4l-.05-1.68h-.3l-.05,1.68Z"/>
      </g>
      <g>
        <path class="cls-4" d="M5.43,6.35h.47s.06.02.06.04-.03.04-.06.04h-.47s-.06-.02-.06-.04.03-.04.06-.04Z"/>
        <path class="cls-5" d="M5.9,6.46h-.47s-.08-.03-.08-.06.03-.06.08-.06h.47s.08.03.08.06-.03.06-.08.06ZM5.43,6.37s-.04.01-.04.03.02.03.04.03h.47s.04-.01.04-.03-.02-.03-.04-.03h-.47Z"/>
      </g>
      <g>
        <path class="cls-2" d="M5.47,6.27h.41s.05.02.05.04-.02.04-.05.04h-.41s-.05-.02-.05-.04.02-.04.05-.04Z"/>
        <path class="cls-5" d="M5.88,6.37h-.41s-.07-.03-.07-.06.03-.06.07-.06h.41s.07.03.07.06-.03.06-.07.06ZM5.47,6.29s-.04.01-.04.03.02.03.04.03h.41s.04-.01.04-.03-.02-.03-.04-.03h-.41Z"/>
      </g>
      <path class="cls-5" d="M5.81,7.12h-.28v-.55h.28v.55ZM5.56,7.08h.22v-.48h-.22v.48Z"/>
      <g>
        <path class="cls-4" d="M5.54,4.5h.29s.04.01.04.03-.02.03-.04.03h-.29s-.04-.01-.04-.03c0-.02.02-.03.04-.03Z"/>
        <path class="cls-5" d="M5.82,4.57h-.29s-.05-.02-.05-.04.02-.04.05-.04h.29s.05.02.05.04-.02.04-.05.04ZM5.54,4.51s-.03,0-.03.02.02.02.03.02h.29s.03,0,.03-.02-.02-.02-.03-.02h-.29Z"/>
      </g>
      <g>
        <path class="cls-2" d="M3.34,7.31h4.75v.16H3.34v-.16Z"/>
        <path class="cls-5" d="M8.1,7.49H3.32v-.2h4.79v.2ZM3.36,7.45h4.71v-.12H3.36v.12Z"/>
      </g>
      <g>
        <path class="cls-4" d="M3.13,7.47h5.16v.17H3.13v-.17Z"/>
        <path class="cls-5" d="M8.3,7.65H3.12v-.19h5.18v.19ZM3.15,7.63h5.13v-.15H3.15v.15Z"/>
      </g>
      <g>
        <path class="cls-2" d="M3.48,3.84h4.43v.1H3.48v-.1Z"/>
        <path class="cls-5" d="M7.93,3.95H3.46v-.14h4.47v.14ZM3.5,3.92h4.39v-.06H3.5v.06Z"/>
      </g>
      <g>
        <path class="cls-2" d="M7.08,3.83c-.23-.55-.76-.93-1.38-.93s-1.15.38-1.38.93h-.55c.25-.85,1.03-1.47,1.93-1.47s1.68.62,1.93,1.47h-.55Z"/>
        <path class="cls-5" d="M7.08,3.84s0,0,0,0c-.24-.56-.77-.93-1.37-.93s-1.14.36-1.37.93c0,0,0,0,0,0h-.55s0,0,0,0c0,0,0,0,0,0,.13-.42.38-.79.73-1.05.35-.27.78-.42,1.22-.42s.86.14,1.22.42c.34.26.6.64.73,1.05,0,0,0,0,0,0,0,0,0,0,0,0h-.55ZM3.77,3.82h.53c.24-.57.78-.93,1.39-.93s1.15.37,1.39.93h.53c-.26-.85-1.05-1.45-1.92-1.45s-1.66.59-1.92,1.45Z"/>
      </g>
      <g>
        <path class="cls-2" d="M3.6,3.94s.08.05.14.18h3.94s.06-.15.15-.18H3.6Z"/>
        <path class="cls-5" d="M3.73,4.13h0c-.06-.14-.14-.18-.14-.18l-.04-.02h4.35s-.07.02-.07.02c-.08.03-.15.17-.15.18h0s-3.96,0-3.96,0ZM3.63,3.95s.07.07.11.16h3.93s.05-.11.12-.16H3.63Z"/>
      </g>
      <g>
        <path class="cls-2" d="M4.58,4.15s.37.63,1.11.62c.73,0,1.11-.6,1.11-.6l.2.29s.07.1-.07.22c-.5.44-.89.52-1.24.52-.51-.03-.93-.2-1.24-.52-.06-.05-.07-.11-.05-.16l.18-.37Z"/>
        <path class="cls-5" d="M5.7,5.22s-.01,0-.02,0c-.51-.03-.93-.2-1.25-.52-.05-.04-.07-.11-.05-.17l.18-.37s0,0,0,0c0,0,0,0,0,0,0,0,.37.61,1.08.61,0,0,0,0,.01,0,.72,0,1.1-.59,1.1-.59,0,0,0,0,0,0,0,0,0,0,0,0l.2.29s.08.11-.07.23c-.52.46-.93.52-1.23.52ZM4.58,4.17l-.18.36c-.02.05,0,.11.05.15.31.32.73.49,1.23.52.3,0,.7-.05,1.23-.52.13-.12.07-.21.07-.21l-.19-.28c-.06.08-.44.58-1.11.59,0,0-.01,0-.02,0-.67,0-1.03-.51-1.09-.61Z"/>
      </g>
      <path class="cls-5" d="M4.37,4.59s0-.04.02-.07c.03-.02.08-.02.16.02v-.39s.04,0,.04,0l-.02.43h-.02c-.1-.06-.13-.05-.15-.04-.02.01-.01.04-.01.04h-.02ZM6.81,4.57l-.03-.39h.02s.03.33.03.33c.02-.03.07-.07.11-.06.03,0,.05.02.07.06h-.02s-.03-.03-.05-.04c-.04,0-.09.06-.11.08l-.02.03Z"/>
      <g>
        <path class="cls-4" d="M3.72,4.13h3.96s.03.01.03.03h0s-.01.04-.03.04h-3.96s-.03-.01-.03-.03h0s.01-.04.03-.04Z"/>
        <path class="cls-5" d="M7.68,4.2h-3.96s-.04-.02-.04-.04h0s.02-.05.04-.05h3.96s.04.02.04.04h0s-.02.05-.04.05ZM3.72,4.14s-.02,0-.02.02h0s0,.03.02.03h3.96s.02,0,.02-.02h0s0-.03-.02-.03h-3.96Z"/>
      </g>
      <path class="cls-4" d="M4.07,4.19s0,0,0,0c0,0,.04.01.04.08.03,0,.05.01.04.06,0,0-.04-.01-.05.01-.01.03,0,.05.02.07,0,0,.04.03.07-.03s.04-.09.04-.09c0-.02.05-.08.09-.09.02,0,.03,0,.05,0,0,0,.04,0,.04.04s-.01.04-.03.05c-.02,0-.05-.01-.05-.01,0,0-.01,0-.02,0,0,0-.01.01-.02.03,0,0-.02.04-.03.07,0,.03-.02.1-.1.11h-.18c-.08-.01-.09-.09-.1-.11,0-.03-.03-.07-.03-.07,0-.01-.02-.03-.02-.03,0,0,0,0-.02,0,0,0-.03.02-.05.01-.02,0-.03-.02-.03-.05,0-.03.04-.04.04-.04.02,0,.03,0,.05,0,.04,0,.09.06.09.09,0,0,0,.02.04.09s.07.03.07.03c.03-.02.03-.04.02-.07,0-.02-.05-.01-.05-.01,0-.04,0-.06.04-.06,0-.06.04-.08.04-.08,0,0,0,0,0,0h0Z"/>
      <g>
        <path class="cls-2" d="M4.29,6.27h-.44l.06-1.71h.32l.06,1.71ZM4.3,7.22h-.47v-.78s.47,0,.47,0v.78Z"/>
        <path class="cls-5" d="M4.32,7.24h-.5v-.81h.5s0,.81,0,.81ZM3.85,7.2h.43v-.74h-.43v.74ZM4.3,6.28h-.47l.06-1.74h.36l.06,1.74ZM3.87,6.25h.4l-.06-1.68h-.29l-.06,1.68Z"/>
      </g>
      <g>
        <path class="cls-2" d="M3.83,6.35h.47s.06.02.06.04-.03.04-.06.04h-.47s-.06-.02-.06-.04c0-.02.03-.04.06-.04ZM3.86,6.27h.41s.05.02.05.04-.02.04-.05.04h-.41s-.05-.02-.05-.04.02-.04.05-.04Z"/>
        <path class="cls-5" d="M4.3,6.46h-.47s-.08-.03-.08-.06c0-.03.02-.05.05-.06,0,0,0-.02,0-.03,0-.03.03-.06.07-.06h.41s.07.03.07.06c0,.01,0,.02,0,.03.03,0,.05.03.05.06,0,.03-.03.06-.08.06ZM3.83,6.37s-.04.01-.04.03.02.03.04.03h.47s.04-.01.04-.03-.02-.03-.04-.03h-.47ZM3.86,6.29s-.04.01-.04.03.02.03.04.03h.41s.04-.01.04-.03-.02-.03-.04-.03h-.41Z"/>
      </g>
      <path class="cls-5" d="M4.21,7.12h-.28v-.55h.28v.55ZM3.96,7.08h.22v-.48h-.22v.48Z"/>
      <g>
        <path class="cls-4" d="M3.92,4.5h.29s.04.01.04.03-.02.03-.04.03h-.29s-.04-.01-.04-.03.02-.03.04-.03Z"/>
        <path class="cls-5" d="M4.21,4.57h-.29s-.05-.02-.05-.04.02-.04.05-.04h.29s.05.02.05.04-.02.04-.05.04ZM3.92,4.51s-.03,0-.03.02.02.02.03.02h.29s.03,0,.03-.02-.02-.02-.03-.02h-.29Z"/>
      </g>
      <g>
        <path class="cls-2" d="M3.74,7.22h.66v.09h-.66v-.09Z"/>
        <path class="cls-5" d="M4.41,7.32h-.68v-.11h.68v.11ZM3.74,7.3h.65v-.07h-.65v.07Z"/>
      </g>
      <path class="cls-4" d="M7.32,4.2s0,0,0,0c0,0,.04.01.04.08.03,0,.05.01.04.06,0,0-.04-.01-.05.01-.01.03,0,.05.02.07,0,0,.04.03.07-.03s.04-.09.04-.09c0-.02.05-.08.09-.09.02,0,.03,0,.05,0,0,0,.04,0,.04.04,0,.03-.01.04-.03.05-.02,0-.05-.01-.05-.01,0,0-.01,0-.02,0,0,0-.01.01-.02.03,0,0-.02.04-.03.07,0,.03-.02.1-.1.11h-.18c-.08-.01-.09-.09-.1-.11,0-.03-.03-.07-.03-.07,0-.01-.02-.03-.02-.03,0,0,0,0-.02,0,0,0-.03.02-.05.01-.02,0-.03-.02-.03-.05s.04-.04.04-.04c.02,0,.03,0,.05,0,.04,0,.09.06.09.09,0,0,0,.02.04.09.03.06.07.03.07.03.03-.02.03-.04.02-.07,0-.02-.05-.01-.05-.01,0-.04,0-.06.04-.06,0-.06.04-.08.04-.08,0,0,0,0,0,0h0Z"/>
      <g>
        <path class="cls-2" d="M7.55,6.27h-.44l.06-1.71h.32l.06,1.71ZM7.57,7.22h-.47v-.78s.47,0,.47,0v.78Z"/>
        <path class="cls-5" d="M7.59,7.24h-.5v-.81s.5,0,.5,0v.81ZM7.12,7.2h.43v-.74h-.44s0,.74,0,.74ZM7.56,6.28h-.47l.06-1.74h.36l.06,1.74ZM7.13,6.25h.4l-.06-1.68h-.29l-.06,1.68Z"/>
      </g>
      <g>
        <path class="cls-4" d="M7.1,6.35h.47s.06.02.06.04-.03.04-.06.04h-.47s-.06-.02-.06-.04.03-.04.06-.04Z"/>
        <path class="cls-5" d="M7.57,6.46h-.47s-.08-.03-.08-.06.03-.06.08-.06h.47s.08.03.08.06-.03.06-.08.06ZM7.1,6.37s-.04.01-.04.03.02.03.04.03h.47s.04-.01.04-.03-.02-.03-.04-.03h-.47Z"/>
      </g>
      <g>
        <path class="cls-2" d="M7.13,6.27h.41s.05.02.05.04-.02.04-.05.04h-.41s-.05-.02-.05-.04.02-.04.05-.04Z"/>
        <path class="cls-5" d="M7.54,6.37h-.41s-.07-.03-.07-.06.03-.06.07-.06h.41s.07.03.07.06-.03.06-.07.06ZM7.13,6.29s-.04.01-.04.03.02.03.04.03h.41s.04-.01.04-.03-.02-.03-.04-.03h-.41Z"/>
      </g>
      <path class="cls-5" d="M7.48,7.12h-.28v-.55h.28v.55ZM7.23,7.08h.22v-.48h-.22v.48Z"/>
      <g>
        <path class="cls-4" d="M7.18,4.5h.29s.04.01.04.03-.02.03-.04.03h-.29s-.04-.01-.04-.03.02-.03.04-.03Z"/>
        <path class="cls-5" d="M7.47,4.57h-.29s-.05-.02-.05-.04.02-.04.05-.04h.29s.05.02.05.04-.02.04-.05.04ZM7.18,4.51s-.03,0-.03.02.02.02.03.02h.29s.03,0,.03-.02-.02-.02-.03-.02h-.29Z"/>
      </g>
      <g>
        <path class="cls-2" d="M5.33,7.22h.66v.09h-.66v-.09Z"/>
        <path class="cls-5" d="M6,7.32h-.68v-.11h.68v.11ZM5.34,7.3h.65v-.07h-.65v.07Z"/>
      </g>
      <g>
        <path class="cls-2" d="M2.87,6.01c-.11-.08-.23-.06-.23-.06,0,0,.09-.11.22-.06.09.04.16.17.38.03s.31-.21.5-.28c.2-.07.36-.08.4-.1.05-.02.12-.04.16-.27,0-.05.21.43.21.43,0,0-.03.16-.23.25s-.53.14-.72.29c-.06.05-.19.14-.26.25-.17.26-.36.28-.36.28,0,0,.16-.14.21-.34,0-.04,0-.2.06-.26-.07.07-.24-.07-.22-.05,0,0-.02-.04-.13-.12h0ZM7.09,5.28s.03.19.41.29.44.22.5.25c.06.03.22.14.39.09.07-.02.26-.07.27-.06,0,0-.05.11-.06.12-.13.15-.17.17-.22.2-.1.05-.11.06-.18.06,0,0,.07.09.08.22s.2.28.2.28c0,0-.25-.06-.36-.21-.11-.15-.29-.27-.35-.3-.07-.03-.4-.15-.47-.17-.07-.03-.29-.14-.32-.33-.03-.19.11-.43.11-.43h0Z"/>
        <path class="cls-5" d="M2.9,6.8l.04-.03s.16-.14.21-.33c0,0,0-.02,0-.04,0-.05,0-.13.03-.18-.04,0-.1-.02-.14-.04v.02s-.06-.06-.06-.06h0s-.05-.05-.12-.11c-.11-.08-.22-.06-.22-.06h-.04s.02-.02.02-.02c0,0,.09-.12.24-.06.02,0,.04.02.06.04.07.05.14.1.31,0,.04-.03.08-.05.12-.08.14-.09.23-.15.39-.2.13-.04.25-.07.32-.08.04,0,.07-.01.08-.02.04-.02.11-.04.15-.26,0-.01,0-.02.02-.02.01,0,.04,0,.23.44h0s0,0,0,0c0,0-.03.17-.23.26-.07.03-.16.06-.25.09-.16.05-.35.11-.47.2,0,0-.02.01-.03.02-.07.05-.17.13-.23.22-.18.26-.36.29-.37.29h-.05ZM3.23,6.18s-.05.15-.05.21c0,.02,0,.04,0,.05-.03.13-.12.24-.17.3.07-.03.18-.1.29-.26.07-.1.17-.18.24-.23.01,0,.02-.02.03-.02.12-.1.31-.16.48-.21.09-.03.18-.06.25-.09.17-.08.21-.21.22-.23-.07-.16-.15-.34-.19-.4-.04.21-.12.24-.16.26-.02,0-.05.01-.09.02-.07.01-.19.04-.32.08-.15.05-.24.11-.38.2-.03.02-.07.05-.12.08-.18.11-.27.05-.34,0-.02-.01-.04-.03-.06-.03-.08-.04-.15,0-.18.03h0s.13,0,.2.07c.1.07.13.11.14.12.09.06.17.08.2.05h0l.02.02ZM8.54,6.76l-.07-.02s-.25-.07-.36-.22c-.11-.14-.28-.27-.35-.3-.04-.02-.19-.07-.32-.12-.07-.02-.13-.05-.15-.06-.1-.04-.3-.16-.33-.34-.03-.19.1-.43.11-.44l.02-.04v.04s.05.19.41.28c.29.08.4.16.46.22.02.02.03.03.05.03,0,0,.02.01.03.02.07.04.21.12.35.07,0,0,.26-.08.29-.06h0s-.06.14-.06.14c-.13.15-.18.17-.22.2h-.02c-.07.05-.09.06-.14.06.02.03.06.11.07.21.01.13.19.27.19.27l.06.04ZM7.08,5.32c-.03.07-.11.25-.09.39.03.21.31.32.31.32.03,0,.08.03.15.06.12.04.28.1.32.12.07.03.25.16.36.31.07.09.2.15.28.18-.06-.05-.14-.15-.15-.24-.01-.13-.07-.22-.08-.22l-.02-.02h.03c.07,0,.07-.01.16-.05h.02s.09-.06.22-.2c0,0,.04-.07.05-.1-.04,0-.18.04-.25.06-.15.05-.3-.03-.37-.07-.01,0-.02-.01-.03-.02-.02,0-.03-.02-.05-.04-.06-.05-.16-.14-.45-.21-.29-.08-.39-.21-.41-.27ZM8.65,5.85h0s0,0,0,0Z"/>
      </g>
      <g>
        <path class="cls-4" d="M3.48,5.43c-.26-.1-.18-.17-.18-.17.06-.11.15-.26.46-.38.42-.16.85-.09.74.1-.07.11-.19.31-.19.31,0,0-.05-.13-.28-.05-.23.09-.3.12-.31.17-.02.07-.01.12.15.09-.11.04-.23,0-.36-.06h-.02Z"/>
        <path class="cls-5" d="M3.78,5.53c-.09,0-.19-.04-.28-.08h-.02c-.12-.06-.19-.11-.2-.15,0-.02,0-.04.01-.05.06-.11.15-.26.47-.38.34-.13.67-.11.75,0,.02.03.04.07,0,.13-.07.11-.19.31-.19.31l-.02.03v-.03s-.06-.12-.27-.04c-.23.08-.29.12-.31.16,0,.03-.01.05,0,.06.02.02.06.02.14,0v.03s-.06.01-.09.01ZM4.22,4.81c-.13,0-.29.03-.45.09-.31.12-.4.27-.45.37h0s0,.01,0,.03c0,.02.03.06.18.12h.02c.06.04.13.06.19.08-.02-.02,0-.06,0-.09.02-.05.08-.09.32-.18.18-.07.26,0,.28.03.03-.05.12-.2.18-.29.02-.04.02-.07,0-.09-.04-.05-.14-.07-.27-.07Z"/>
      </g>
      <g>
        <path class="cls-4" d="M7.42,5.24s.13.05.18.09c.23.17.19.31.13.32-.07,0,.46-.01.52-.04s.09-.07.05-.15-.33-.58-.8-.67c-.47-.09-.66.11-.62.17.04.06.21.28.22.36.05-.09.16-.12.33-.07h0Z"/>
        <path class="cls-5" d="M7.71,5.66h0s0,0-.01,0c0,0,0,0,0-.01,0,0,0,0,.02,0,.02,0,.03-.01.04-.04.02-.05-.02-.15-.17-.26-.05-.03-.13-.07-.17-.08-.16-.04-.27-.02-.31.07,0,0,0,0-.01,0,0,0,0,0,0-.01,0-.06-.1-.19-.16-.28-.02-.03-.04-.06-.06-.08-.01-.02,0-.05.01-.08.05-.08.24-.18.62-.11.52.1.81.67.81.68.04.08.02.13-.05.17-.05.03-.44.05-.53.05,0,0,0,0,0,0,0,0,0,0,0,0ZM7.27,5.21s.09,0,.14.02c0,0,0,0,0,0,.05.01.13.05.18.09.16.11.2.22.18.29,0,.01,0,.02-.01.03.12,0,.43-.02.47-.04.05-.03.08-.06.04-.14,0,0-.29-.56-.79-.66-.36-.07-.54.03-.59.1-.01.02-.02.04-.01.05.01.02.03.05.05.08.06.08.14.19.16.26.04-.05.1-.08.18-.08Z"/>
      </g>
      <g>
        <path class="cls-3" d="M7.19,5.15l-.09-.13.02.14h-.04s-.04-.24-.04-.24h.04s.12.16.12.16l.06-.2h.03s.04.24.04.24h-.05s-.02-.13-.02-.13l-.05.15h-.03ZM7.57,5.05s-.02.07-.04.08c-.02.02-.05.02-.08.02-.03,0-.05-.02-.06-.04-.01-.02-.02-.06,0-.09h0s.02-.08.04-.1c.02-.02.05-.03.08-.02.03,0,.05.02.06.05.01.03.01.06,0,.09h0ZM7.51,5.04h0s0-.06,0-.08c0-.02-.01-.03-.03-.03-.02,0-.03,0-.04.01,0,.01-.02.03-.02.07h0s0,.06,0,.08c0,.01.01.02.03.03.02,0,.03,0,.04-.01,0-.01.02-.03.02-.07h0ZM7.77,5.16s-.04.06-.06.07c-.02.01-.05,0-.07,0l-.08-.04.12-.22.07.04s.05.04.05.07c0,.03,0,.06-.02.09h0ZM7.72,5.13h0s.02-.05.02-.07c0-.02,0-.03-.02-.04h-.02s-.08.15-.08.15h.02s.03.02.04.01c.01,0,.03-.02.04-.05h0ZM7.9,5.17l-.05.05.05.05-.03.03-.05-.05-.05.05.07.07-.03.03-.11-.11.18-.18.1.1-.03.03-.07-.06ZM7.93,5.57l-.03-.05s.06-.04.07-.05c.01-.01.01-.03,0-.04h0s-.1.05-.1.05l-.03-.05.22-.13.05.08s.02.04.01.05c0,.01-.01.02-.03.03h-.01s-.02.02-.04.01c-.01,0-.02-.01-.03-.02,0,.02,0,.04-.01.06-.01.02-.04.04-.07.06h0ZM8.05,5.43h0s.01-.02.02-.02c0,0,0-.02,0-.02v-.02s-.07.03-.07.03h0s.01.03.02.03c0,0,.01,0,.02,0ZM7.25,5.88l-.04-.03.02-.06-.06-.05-.05.04-.04-.03.21-.16.04.03-.08.25ZM7.24,5.75l.03-.09-.08.06.05.03ZM7.53,5.77l-.05-.02-.09.19-.05-.02.09-.19-.05-.02.02-.03.14.07-.02.03ZM7.64,5.78l-.1.23-.05-.02.1-.23.05.02ZM7.83,6.01s-.04.06-.06.07c-.02.01-.05.01-.08,0-.03-.01-.04-.03-.05-.06,0-.03,0-.06.01-.09h0s.03-.07.06-.08c.02-.01.05-.01.08,0,.03.01.05.03.05.06,0,.03,0,.06-.01.09h0ZM7.79,5.98h0s.02-.06.02-.07,0-.03-.02-.04c-.02,0-.03,0-.04,0-.01,0-.02.03-.04.06h0s-.02.06-.02.07c0,.01,0,.02.02.03.01,0,.03,0,.04,0,.01,0,.02-.03.04-.06h0ZM8,6.11l.07-.13.03.02-.13.22h-.02s-.02-.21-.02-.21l-.08.14-.03-.02.13-.22h.02s.02.2.02.2ZM3.72,5.28l-.03.02-.19-.18.05-.03.12.12-.04-.16.03-.02.12.11-.05-.16.04-.02.07.25-.03.02-.13-.11.04.17ZM3.91,4.93l.07.24-.05.02-.07-.24.05-.02ZM4.19,5.05s0,.05-.02.06c-.01.01-.04.02-.07.03-.02,0-.03,0-.04,0-.01,0-.02,0-.03,0v-.04s.01,0,.02,0c.01,0,.03,0,.04,0,.02,0,.03,0,.03-.01,0,0,0-.01,0-.03,0,0,0-.01,0-.02,0,0-.02-.01-.04-.02-.02,0-.03-.01-.04-.02-.01-.01-.02-.03-.02-.05,0-.02,0-.04.02-.05.01-.02.03-.02.06-.03.01,0,.03,0,.04,0,.01,0,.02,0,.02,0v.04s-.01,0-.02,0c0,0-.02,0-.03,0-.01,0-.02,0-.03.01,0,0,0,.01,0,.02,0,0,0,.02,0,.02,0,0,.02,0,.04.01.02,0,.04.01.05.02.01.01.02.03.02.04h0ZM4.97,4.88s-.02.03-.03.03c-.01,0-.03,0-.05,0-.01,0-.02-.01-.03-.02,0,0-.01-.01-.01-.02l.02-.03s0,0,.01.01c0,0,.01,0,.02.01,0,0,.01,0,.02,0,0,0,.01,0,.01-.01l.09-.17.05.02-.09.17ZM5.24,4.98s-.02.04-.04.04c-.02,0-.04,0-.07,0-.03-.01-.05-.03-.05-.04s0-.04,0-.07l.06-.16.05.02-.06.16s0,.02,0,.03c0,0,.01.02.02.02.01,0,.02,0,.03,0,0,0,.02-.01.02-.03l.06-.16h.04s-.06.18-.06.18ZM5.51,5.04s-.01.04-.03.06c-.02.01-.04.01-.07.01-.02,0-.03,0-.04,0s-.02,0-.03-.01v-.04s.02,0,.03.01c.01,0,.02,0,.04,0,.02,0,.03,0,.04,0,0,0,.01-.01.01-.02,0,0,0-.01,0-.02s-.02-.02-.04-.03c-.02,0-.03-.02-.04-.03,0-.01-.01-.03,0-.05,0-.02.01-.03.03-.05.02-.01.04-.02.07-.01.01,0,.03,0,.04,0,.01,0,.02,0,.02,0v.04s-.02,0-.03,0c0,0-.02,0-.03,0-.01,0-.02,0-.03,0,0,0-.01,0-.01.02,0,0,0,.02,0,.02,0,0,.02.01.04.03.02.01.03.02.04.04,0,.01.01.03,0,.05h0ZM5.75,4.91h-.05s0,.21,0,.21h-.05s0-.21,0-.21h-.05s0-.04,0-.04h.16s0,.04,0,.04ZM5.9,4.86l.03.25h-.05s-.03-.24-.03-.24h.05ZM6.2,5.04s0,0-.02.01c0,0-.02,0-.03.01-.03,0-.06,0-.08,0-.03-.01-.04-.04-.06-.08h0s-.01-.08,0-.11c.01-.03.03-.05.06-.06.01,0,.02,0,.03,0,0,0,.02,0,.02,0v.04s0,0,0,0c0,0-.02,0-.03,0-.02,0-.03.02-.04.04,0,.02,0,.04,0,.07h0s.02.05.03.06c.01.01.03.01.05,0,.01,0,.02,0,.03-.01,0,0,.01,0,.02-.01v.04ZM6.28,4.77l.03.06.06-.03.02.03-.06.03.03.06.09-.04.02.03-.13.07-.11-.22.13-.07.02.03-.08.04ZM3.63,5.97s.03.07.02.09c0,.02-.02.04-.04.06l-.08.04-.12-.22.07-.04s.06-.02.08,0c.02.01.04.03.06.07h0ZM3.58,5.99h0s-.03-.05-.04-.05c-.01,0-.03,0-.04,0h-.02s.09.16.09.16h.02s.02-.03.02-.04c0-.01,0-.04-.02-.06h0ZM3.86,5.87s.02.07.01.09c0,.03-.03.04-.05.06-.03.01-.05.01-.08,0-.02-.01-.04-.04-.06-.07h0s-.02-.08-.01-.11c0-.03.02-.05.05-.06.03-.01.06-.01.08,0,.02.02.04.04.06.07h0ZM3.81,5.89h0s-.02-.05-.03-.07c-.01-.01-.02-.01-.04,0-.02,0-.02.02-.02.03,0,.01,0,.04.02.07h0s.03.06.03.07c0,0,.02.01.04,0,.01,0,.02-.02.02-.03,0-.02,0-.04-.02-.07h0ZM4.06,5.94l-.11-.11.05.14h-.03s-.09-.22-.09-.22h.04s.15.13.15.13l.02-.2h.03s.09.22.09.22l-.05.02-.05-.14-.02.16h-.03ZM4.39,3.45s0,.01,0,.02c0,.01-.01.02-.02.03-.02.03-.05.05-.08.06-.03,0-.07,0-.1-.03h0s-.05-.06-.06-.09c0-.03,0-.07.02-.1,0-.01.02-.02.02-.03,0,0,.01-.01.02-.02l.04.03s-.01,0-.02.01c0,0-.01.01-.02.02-.01.02-.02.04,0,.06,0,.02.02.04.05.06h0s.05.03.07.03c.02,0,.04,0,.05-.03,0-.01.01-.02.02-.03,0,0,0-.02,0-.02l.04.02ZM4.52,3.11s.05.06.05.09c0,.03,0,.06-.03.08-.02.02-.05.04-.08.04-.03,0-.06-.02-.09-.05h-.01s-.05-.07-.05-.1c0-.03,0-.06.03-.09.03-.03.05-.04.09-.03.03,0,.06.02.09.05h.01ZM4.48,3.16h0s-.05-.04-.06-.05c-.02,0-.03,0-.05.01-.01.01-.02.03-.01.04,0,.02.02.04.05.06h0s.05.05.06.05c.01,0,.03,0,.04-.02.01-.01.02-.03.01-.04,0-.02-.02-.04-.05-.06h0ZM4.77,2.94l-.1-.13.04-.03.16.23-.02.02-.22-.06.1.14-.04.03-.16-.23.03-.02.2.06ZM5.12,2.8s.01.05,0,.07c-.01.02-.03.04-.07.05-.02,0-.03.01-.05.02-.01,0-.03,0-.03,0l-.02-.04s.02,0,.04,0c.02,0,.03,0,.04-.01.02,0,.03-.02.03-.03,0,0,0-.02,0-.03,0,0,0-.01-.02-.02,0,0-.03,0-.05,0-.02,0-.04,0-.06,0-.02,0-.03-.02-.04-.04,0-.02,0-.04,0-.06.01-.02.03-.04.06-.05.01,0,.03-.01.04-.01.01,0,.02,0,.03,0l.02.04s-.02,0-.03,0c-.01,0-.02,0-.03.01-.02,0-.03.01-.03.02s0,.02,0,.02c0,0,0,.01.02.02,0,0,.03,0,.05,0,.03,0,.05,0,.06,0,.02,0,.03.02.04.04ZM5.36,2.57l-.06.02.06.23-.06.02-.06-.23-.06.02v-.04s.17-.05.17-.05v.04ZM5.52,2.51h.06s.02.27.02.27h-.06s-.02-.27-.02-.27ZM5.92,2.56h-.06s-.02.23-.02.23h-.06s.02-.24.02-.24h-.06s0-.05,0-.05h.19s0,.05,0,.05ZM6.23,2.8s-.02.04-.04.05c-.02,0-.05,0-.08,0-.03-.01-.06-.03-.07-.05-.01-.02-.01-.04,0-.07l.05-.18.06.02-.06.19s0,.03,0,.04c0,0,.01.02.03.02.01,0,.03,0,.04,0,0,0,.02-.01.02-.03l.06-.19h.04s-.06.2-.06.2ZM6.58,2.78l-.05-.03-.11.21-.06-.03.11-.21-.06-.03.02-.04.17.08-.02.04ZM6.73,2.83l.05.04-.16.23-.05-.04.16-.23ZM6.98,3.24s-.06.05-.09.05c-.03,0-.06,0-.08-.03-.02-.02-.04-.05-.03-.08,0-.03.02-.06.05-.09h.01s.06-.06.09-.06c.03,0,.06,0,.09.03.03.03.04.06.03.09,0,.03-.02.06-.05.09h-.01ZM6.93,3.19h0s.04-.05.05-.07,0-.03-.01-.05c-.01-.01-.03-.02-.04-.01-.02,0-.04.02-.06.05h0s-.04.05-.05.07c0,.01,0,.03.01.04.01.01.03.02.04.01.02,0,.04-.02.06-.05ZM7.15,3.48l.13-.1.03.04-.23.16-.02-.02.06-.22-.14.1-.03-.04.23-.16.02.03-.06.2Z"/>
        <g>
          <path class="cls-2" d="M6.59,5.51s.02-.02.02,0,0,.02,0,.03,0,0,0,.02c0,0,0,.01,0,.02s0,0-.01,0v.02s0,.02,0,.02v.02s.01.02.01.02v-.02s0,.02,0,.02c0,.02.09.05.12.06.06.03.05.16.06.18,0,.01.03.19.03.22s-.03.19-.04.23c0,.02,0,.06,0,.1,0,0-.01,0-.02,0,0,0,0,.04,0,.05,0,.02,0,.04,0,.05,0,.04-.04.04-.04.04,0,0,0,.13,0,.16,0,.03-.01.04,0,.12s-.01.19-.01.19c0,0-.03.15-.04.18s0,.04,0,.06c0,.02,0,.04,0,.04h-.29s0-.03.02-.05c0,0,.02-.02.04-.03s.02-.03.03-.05c.01-.03,0-.08,0-.12s-.02-.12-.02-.15-.02-.1-.03-.15c-.02-.05-.03-.15-.03-.16,0,0,0-.01,0-.02,0-.01,0-.03-.01-.05-.02-.05-.02-.1-.02-.15s-.02-.1-.03-.11v-.02s-.06.02-.06.02l-.05.04s-.02.01-.04.01c-.04,0-.08-.04-.09-.11-.01-.07,0-.1.09-.1h.04s.03,0,.03,0h.02s0,.02,0,.02c-.01,0-.02,0-.02,0l.02.02s0,0,.04-.02v-.03s.01-.02.01-.04,0-.12,0-.15,0-.05,0-.08c0-.03,0-.08.01-.11.02-.03.1-.04.1-.04,0,0,.04,0,.04-.01,0,0,.01-.02.02-.03-.02,0-.03-.04-.04-.04,0,0-.01-.04-.01-.05,0,0,0-.04-.01-.05,0-.01,0-.03,0-.03h-.03s-.03,0-.03,0c0,0-.02,0-.02,0,0,0-.02,0-.02,0,0,0-.03-.02,0-.04s.06-.03.06-.04,0,0,0,0h0s-.01-.03-.02-.05c0-.03.06-.04.06-.04.02,0,.09,0,.08,0,.01,0,.02,0,.05,0,.03,0,.06,0,.08.01s.04.02.05.04c.01.02.05.04.06.06.02.02.04.06.05.07.01.02,0,.02,0,.02-.02.01-.15-.02-.14-.01,0,0,0,0,0,0h0s0,.04,0,.04h0Z"/>
          <path class="cls-4" d="M6.64,7.3h-.3s0,0,0,0c0,0,0,0,.02-.05,0-.01.02-.02.04-.03.01,0,.02-.01.02-.03,0,0,0-.01,0-.02.01-.02,0-.08,0-.12-.01-.04-.02-.12-.02-.15s-.02-.1-.03-.14c-.02-.05-.03-.15-.03-.16,0,0,0,0,0-.02,0,0,0-.01,0-.02,0,0,0-.02,0-.04-.01-.04-.02-.09-.02-.13,0,0,0-.02,0-.02,0-.05-.02-.1-.03-.11h0s0-.02,0-.02h-.05s-.05.05-.05.05c-.01.01-.02.01-.04.01-.04,0-.08-.05-.09-.11,0-.04,0-.07.01-.09.01-.02.04-.02.08-.02h.04s.03,0,.03,0h.02s0,.01,0,.02c0,0,0,0,0,0,0,0-.01,0-.01,0v.02s.03,0,.05-.02v-.02s.01,0,.01,0c0-.01,0-.02,0-.03,0-.02,0-.13,0-.15,0-.03,0-.06,0-.08,0,0,0-.01,0-.02,0-.03,0-.07.01-.09.02-.03.1-.05.1-.05.01,0,.04,0,.04-.01,0,0,0-.02.01-.02-.02,0-.03-.03-.03-.04,0,0,0,0,0,0,0,0,0-.02,0-.04,0,0,0,0,0,0h0s0-.04-.01-.05c0-.01,0-.03,0-.03h-.02s-.03,0-.03,0c0,0-.02,0-.02,0,0,0-.02,0-.02,0h0s0,0,0,0c0,0-.01-.01-.01-.03,0,0,0-.01.01-.02.02-.02.05-.03.06-.04,0,0,0,0,0,0,0,0,0,0,0,0h0s-.01-.02-.02-.05c0,0,0,0,0-.01.01-.02.06-.03.06-.03.01,0,.05,0,.07,0,0,0,.01,0,.01,0h0s0,0,0,0c.01,0,.02,0,.04,0h0s0,0,0,0c.02,0,.05,0,.07.01,0,0,0,0,.01,0,.02,0,.04.02.05.04,0,.01.03.03.04.04,0,0,.02.01.02.02.02.02.04.05.05.07h0s0,.02,0,.03c0,0,0,0,0,0,0,0,0,0,0,0-.02.01-.12,0-.14-.01v.02s0,0,0,0c0,0,0,0,0,0,0,0,0,.02,0,.03,0,0,0,0,0,0,0,0,0,0,0,0,0,0,0,0,0,0,0,0,0,0,0,0,0,0,0,0-.01,0,0,0,0,0,0,0v.02s0,.02,0,.02h0s0,.02,0,.02v.02s.07.03.1.05c.01,0,.02,0,.03.01.05.02.06.11.06.15,0,.01,0,.02,0,.03,0,.01.03.19.03.22,0,.02-.01.08-.02.14,0,.04-.01.08-.02.09,0,.01,0,.03,0,.05v.05s0,0,0,0c0,0,0,0,0,0,0,0,0,0,0,0,0,0,0,.04,0,.04,0,.01,0,.02,0,.03,0,0,0,.01,0,.02,0,.03-.03.04-.04.04,0,.02,0,.13,0,.15,0,0,0,0,0,0,0,.02,0,.04,0,.11,0,.08-.01.19-.01.19,0,0-.03.15-.04.18,0,.02,0,.03,0,.05,0,0,0,0,0,.01,0,.02,0,.04,0,.04h0ZM6.35,7.3h.29s0-.03,0-.04c0,0,0,0,0-.01,0-.01,0-.03,0-.05,0-.02.04-.17.04-.18,0,0,.02-.1.01-.19,0-.08,0-.09,0-.11,0,0,0,0,0,0,0-.03,0-.15,0-.16h0s0,0,0,0c0,0,.03,0,.03-.04,0,0,0,0,0-.02,0,0,0-.02,0-.03,0,0,0-.04,0-.05,0,0,0,0,.01,0,0,0,0,0,0,0v-.05s0-.04,0-.05c0-.01,0-.05.02-.09.01-.06.02-.12.02-.14,0-.03-.03-.21-.03-.22,0,0,0-.01,0-.03,0-.04,0-.13-.06-.15,0,0-.02,0-.03-.01-.04-.01-.09-.03-.09-.05h0s0,0,0,0h0s0-.02,0-.02h0s0,0,0,0v-.02s0-.02,0-.02v-.02s0,0,0,0c0,0,0,0,0,0,0,0,0,0,0,0,0,0,0,0,0,0,0,0,0,0,0,0,0,0,0,0,0,0,0,0,0,0,0,0,0,0,0-.01,0-.02,0,0,0,0,0,0,0,0,0,0-.01,0h0s0-.01,0-.01v-.03s0-.01,0-.01h0s.01,0,.01.01c.03,0,.11.02.13.01,0,0,0,0,0,0,0,0,0,0,0,0,0,0,0,0,0-.01h0s-.03-.05-.05-.07c0,0-.01,0-.02-.02-.02-.01-.04-.03-.04-.04-.01-.02-.03-.04-.05-.04,0,0,0,0-.01,0-.02,0-.05-.01-.07-.01h0s-.03,0-.04,0c0,0,0,0-.01,0-.02,0-.06,0-.07,0,0,0-.05,0-.06.02,0,0,0,0,0,0,0,.03.01.04.02.05h0s0,0,0,0h0s0,0,0,.01c0,0,0,0,0,0-.01,0-.04.02-.06.03,0,0,0,0-.01.01,0,0,0,.02,0,.02,0,0,.02,0,.02,0,0,0,.02,0,.02,0h.03s.03,0,.03,0h0s0,.03,0,.04c0,.01,0,.04.01.05h0s0,0,0,0c0,0,0,.03,0,.04,0,0,0,0,0,0,0,.01.01.03.03.04h0s0,0,0,0c0,0-.01.02-.02.03,0,.01-.04.02-.04.02,0,0-.08.01-.1.04,0,.02-.01.06-.01.09,0,0,0,.02,0,.02,0,.02,0,.05,0,.08,0,.03,0,.13,0,.15,0,.02,0,.02,0,.03,0,0,0,0,0,0h0s-.01.03-.01.03h0s-.03.02-.04.02h0s-.03-.02-.03-.02h0s0,0,.02,0c0,0,0,0,0,0,0,0,0,0,0-.01h-.04s-.04,0-.04,0h0s-.06,0-.07.02c-.01.01-.02.04-.01.08,0,.06.05.11.08.11.02,0,.03,0,.04-.01l.05-.04.05-.02v.02s.03.07.03.12c0,0,0,.02,0,.02,0,.04,0,.09.02.13,0,.02,0,.03.01.04,0,0,0,.01,0,.02,0,0,0,.02,0,.02,0,0,0,.11.02.16.02.05.03.11.03.15,0,.03.01.11.02.15.01.04.01.09,0,.12,0,0,0,.01,0,.02,0,.02-.01.03-.03.04-.02,0-.03.02-.04.02-.02.03-.02.04-.02.04Z"/>
        </g>
      </g>
      <path class="cls-5" d="M6.46,5.87h-.02c0-.08.01-.13.02-.17,0,0,0,0,0-.01-.02,0-.03,0-.05-.03h.01s.03,0,.04,0h0s0,0,0,0c0,0,0,.01,0,.03,0,.04-.02.09-.02.17Z"/>
      <path class="cls-5" d="M6.35,6.62h-.02s0-.03,0-.03c0,0,0-.01,0-.04,0-.03,0-.12,0-.17,0-.02.02-.07.04-.12.02-.04.03-.08.04-.09,0-.03,0-.12,0-.14,0,0,0-.02,0-.05h.02s0,.04,0,.05c0,0,0,0,0,0,0,0,0,.11,0,.14,0,.02-.02.05-.04.1-.02.04-.04.09-.04.11,0,.04-.01.13,0,.16,0,.03,0,.05,0,.05v.03Z"/>
      <path class="cls-1" d="M6.28,6.27s.03.07.03.11,0,.11.01.15c0,.03.02.04.02.05,0,0,.02.01.02.02,0,.01,0,.11.03.16.02.05.03.12.03.15s.01.12.02.15.02.09,0,.12c-.01.03-.01.04-.03.05-.01,0-.02,0-.03.02-.01.02-.03.05-.02.05h.28s0-.03,0-.04-.02-.04-.02-.06.05-.17.05-.17c0,0,.02-.1.01-.19s-.01-.08,0-.11c0-.03.01-.15.01-.15,0,0,.05-.01.06-.05s.02-.16.03-.19.04-.2.04-.23-.03-.21-.03-.22c0-.01,0-.12-.06-.15-.03-.01-.11-.07-.12-.09v-.02"/>
      <path class="cls-5" d="M6.27,6.11h-.02s0,0,0,0c0-.01,0-.01,0-.03,0-.02-.01-.13-.01-.15,0,0,0-.17.02-.2.02-.03.12-.06.15-.06v-.02s.03.01.03.01l-.02.03s0,0,0,0c-.05.01-.13.03-.14.05-.01.02-.02.16-.02.19,0,.03,0,.13,0,.15,0,.02,0,.02,0,.03h0Z"/>
      <path class="cls-5" d="M6.71,6.59v-.03s-.04-.04-.04-.07c0-.03,0-.05-.01-.08,0,0,0,0-.02-.01,0,0-.01,0-.02-.01,0,0-.03-.05-.06-.11-.01-.03-.03-.05-.03-.06-.03-.05-.03-.12-.03-.15,0,0,0,0,0-.01h.02s0,0,0,.01c0,.03,0,.09.03.14,0,0,.02.03.04.06.02.04.05.09.06.1,0,0,0,0,.01,0,0,0,.02.01.03.02.01.03.01.06.02.09,0,.03,0,.05.02.05h0s.01.05.01.05h-.02Z"/>
      <path class="cls-5" d="M6.5,5.94h-.02s0-.02,0-.02c0,0,0,0,0,0,0-.02,0-.16,0-.19,0,0,0-.02,0-.02,0-.01,0-.03.01-.03.03,0,.07-.03.07-.03h.01s-.06.05-.09.05c0,0,0,0,0,.01,0,0,0,.02,0,.03,0,.02,0,.17,0,.19,0,0,0,0,0,.01,0,0,0,.01,0,.02Z"/>
      <path class="cls-5" d="M6.76,6.43s0,0,0,0c-.03-.02-.06-.03-.1-.02,0,0,0,0,0,0,0,0,0,0,0,0l.02-.12v-.04s.02-.04.02-.04v-.06s0-.07,0-.07v-.07s-.03-.12-.03-.12l-.02-.07s0-.01,0-.01c0,0,.01,0,.01,0l.02.07.02.12v.08s.01.07.01.07v.06s0,.04,0,.04v.04s-.02.11-.02.11c.04,0,.07,0,.1.02,0,0,0,0,0,.01,0,0,0,0,0,0Z"/>
      <path class="cls-5" d="M6.68,6.22h-.01c-.23-.15-.32-.4-.35-.51h0s0,0,0,0h0s.02-.02.02-.02h0s0,.01,0,.02c.02.08.12.35.35.49h.01s-.01.02-.01.02Z"/>
      <path class="cls-5" d="M6.5,7.3h-.02s.02-.07.04-.09v-.42s-.01-.12-.02-.14c0-.01-.01-.07-.03-.17h.02c.02.13.02.16.03.16,0,.02.01.14.01.14v.26s0,.17,0,.17h0s-.04.05-.04.08ZM6.47,6.24s-.04,0-.07,0v-.02c.05.01.09.01.13,0v.02s-.04,0-.06,0ZM6.67,6.14h0c-.19-.13-.28-.34-.31-.46h.02c.04.11.12.32.31.43h0s0,.02,0,.02h-.02Z"/>
      <path class="cls-5" d="M6.17,6.31s0,0,0,0c-.05,0-.07-.05-.07-.14,0-.05.05-.05.07-.05.01,0,.03,0,.03,0h.01s-.03.02-.05.02c-.03,0-.05,0-.06.03,0,.04,0,.11.05.12l.04-.02h0s.01,0,.01,0h-.01s-.04.04-.04.04c0,0,0,0,0,0Z"/>
      <path class="cls-2" d="M6.16,6.1c-.02-.36-.01-.68.05-.92-.16.24-.1.92-.1.92h.05Z"/>
      <path class="cls-5" d="M6.21,6.16v-.02s0,0,.03-.01v-.03s.03,0,.03,0v.03s-.01,0-.02,0c-.03.02-.04.02-.04.02Z"/>
      <path class="cls-5" d="M6.22,6.28h-.02c.02-.06,0-.14,0-.14h.02s.03.08,0,.14Z"/>
      <path class="cls-5" d="M6.18,6.14h0,0s0-.01.02-.02c0,0,0,0,0,0,0,0,0,0,0,0h-.04s0-.01,0-.01h.05s0,0,0,0c0,0,0,.01,0,.02,0,0,0,0-.01.01-.01,0-.03,0-.03,0Z"/>
      <path class="cls-5" d="M6.13,6.32s-.08-.05-.09-.11c0-.04,0-.07.01-.09.01-.01.03-.02.07-.02h0s-.05.02-.06.03c-.01.01-.01.04,0,.08,0,.06.04.11.08.1.02,0,.03,0,.04-.01h0s-.03.02-.05.03c0,0,0,0,0,0Z"/>
      <path class="cls-5" d="M6.13,6.29l-.02-.02s-.02-.05-.01-.11c0-.03.03-.04.03-.04h0s.05,0,.05,0h0s-.05.01-.05.01c0,0-.02,0-.02.02,0,.05,0,.09.01.1v.02s0,0,0,0Z"/>
      <path class="cls-5" d="M6.37,5.48h-.03s-.03,0-.03,0c0,0-.02,0-.03,0,0,0-.01,0-.02,0h0s0,0,0,0c0-.01-.02-.04,0-.06.02-.02.04-.03.05-.03,0,0,0,0,0,0,0,0,.01,0,.01,0v.02s0,0,0,0c0,0,0,0,0,0,0,0,0,0,0,0-.01,0-.03.02-.05.03-.02.01,0,.03,0,.04,0,0,.01,0,.02,0,0,0,.01,0,.02,0h.06s0,0,0,0v-.02s.01,0,.01,0v.03s0,.02,0,.02Z"/>
      <rect class="cls-5" x="6.36" y="5.44" width="0" height=".03"/>
      <path class="cls-5" d="M6.45,5.65s-.02,0-.03,0c-.03,0-.04-.03-.04-.05,0,0,0,0,0,0,0,0,0-.02-.01-.04,0,0,0,0,0,0h0s0-.04-.01-.05c0-.01,0-.04,0-.04h.01s0,.03,0,.04c0,.01.01.04.01.05h0s0,0,0,0c0,0,0,.03,0,.04,0,0,0,0,0,0,0,.01.01.03.03.04.02,0,.05,0,.07,0h0s-.03.02-.05.02Z"/>
      <path class="cls-5" d="M6.46,5.6s-.03,0-.03,0h0s.03,0,.04,0h0s-.01.01-.02.01ZM6.45,5.58h0s-.01,0-.02,0c0,0,0,0-.01,0h0s.02-.01.02-.01c0,0,.01,0,.01,0,0,0,.02,0,.02,0,0,0,.01,0,.01,0h0s-.01,0-.02,0c0,0-.01,0-.02,0h0ZM6.52,5.48s-.05,0-.05,0h0s.03-.02.06,0h0Z"/>
      <path class="cls-5" d="M6.44,5.55s0,0,0,0h0s0,0,0-.01c0,0,0-.02,0-.02,0,0,0,0,0,0,0,0,0-.01,0-.02,0,0,0-.02,0-.03h0s0,.02,0,.03c0,0,0,0,0,.01,0,0,0,0,0,.01,0,0,0,.01,0,.02,0,0,0,0,0,0,0,0,0,0,0,0h0s0,0,.01,0c0,0,0,0,0,0,0,0,.01,0,.02,0,0,0,0,0,0,0,0,0,0,0,0,0,0,0,0-.01,0-.01,0,0-.01,0-.01,0h0s0,0,.01,0c0,0,0,.02,0,.02,0,0,0,0,0,0,0,0,0,0-.01,0,0,0,0,0-.01,0,0,0,0,0,0,0,0,0,0,0,0,0Z"/>
      <path class="cls-5" d="M6.39,5.47h0s0-.01,0-.01c0,0,.03-.01.05,0h0s-.04,0-.04,0c0,0,0,0,0,0Z"/>
      <g>
        <ellipse class="cls-5" cx="6.41" cy="5.48" rx="0" ry=".02" transform="translate(.81 11.8) rotate(-89)"/>
        <path class="cls-5" d="M6.41,5.49s0,0,0,0c0,0,0,0-.01,0,0,0,0,0,0,0,0,0,.01,0,.02,0,0,0,.02,0,.02,0,0,0,0,0,0,0,0,0,0,0,0,0,0,0-.01,0-.02,0ZM6.4,5.48s0,0,.01,0h0s0,0,.01,0c0,0,0,0-.01,0,0,0,0,0-.01,0Z"/>
      </g>
      <path class="cls-5" d="M6.45,5.65s-.02,0-.03,0c0,0,0,0,0,0h0s0-.01,0-.01c.02,0,.05,0,.07,0h0s-.03.02-.05.02Z"/>
      <path class="cls-5" d="M6.73,5.49s-.12-.01-.13-.02h0s0,0,0,0c-.03-.02-.17-.05-.23-.02,0,0-.01,0-.02,0,0,0,0-.01,0-.02,0,0,0,0,0,0,0,0,0,0,0,0,0-.01-.01-.04-.02-.04,0,0-.01-.02-.02-.05,0,0,0-.01,0-.02.01-.02.06-.04.06-.04h0s.05,0,.08,0c0,0,0,0,0,0h0s0,0,0,0h0s.02,0,.04,0c.02,0,.05,0,.07,0,0,0,0,0,.01,0,.02,0,.05.02.06.04,0,.01.03.03.04.04,0,0,.01,0,.02.01.02.02.05.05.06.07,0,.01.01.02,0,.03,0,0,0,.01,0,.01,0,0-.02,0-.03,0ZM6.62,5.47s.12.02.13.01c0,0,0,0,0,0,0,0,0,0,0-.02,0-.01-.04-.05-.05-.06,0,0,0,0-.02-.01-.02-.01-.04-.03-.05-.04-.01-.02-.04-.03-.05-.03,0,0,0,0-.01,0-.02,0-.05,0-.07,0-.02,0-.03,0-.05,0h0s0,0,0,0c-.02,0-.06,0-.08,0-.01,0-.05.02-.05.03,0,0,0,0,0,0,0,.03.02.04.02.05,0,0,.01.03.02.05,0,0,0,0,0,0,0,0,0,0,0,0,0,0,0,0,0,0,0,0,0,0,0,0,.08-.04.24.01.26.03,0,0,0,0,0,0Z"/>
      <path class="cls-5" d="M6.43,6.75s-.08-.02-.08-.02v-.02s.08.04.16,0v.02s-.05.02-.08.02ZM6.6,6.74s-.08-.02-.08-.02v-.02s.08.04.16,0c0,0,.01,0,.01,0h0s.01,0,.02,0c0,0,0,0,0,0h0s.01,0,.01,0c0,0,0,0,0,.01h0s0,0-.01,0c0,0-.02,0-.03.02-.03.02-.06.02-.09.02Z"/>
      <g>
        <ellipse class="cls-5" cx="6.5" cy="5.49" rx="0" ry=".02" transform="translate(.36 11.37) rotate(-84)"/>
        <path class="cls-5" d="M6.5,5.5s0,0,0,0h0s-.02,0-.02,0c0,0,0,0,0,0,0,0,.02,0,.02,0,0,0,.02,0,.02,0,0,0,0,0,0,0,0,0,0,0-.02,0ZM6.5,5.49s.01,0,.01,0c0,0,0,0-.01,0,0,0-.01,0-.01,0,0,0,0,0,.01,0h0Z"/>
      </g>
      <path class="cls-5" d="M6.47,6.29s-.06,0-.08-.01v-.02c.05.02.13.01.17,0v.02s-.06.01-.09.01Z"/>
      <g>
        <path class="cls-2" d="M7.01,7.22h.66v.09h-.66v-.09Z"/>
        <path class="cls-5" d="M7.67,7.31h-.67v-.09h.67v.09ZM7.01,7.31h.66v-.09h-.66v.09Z"/>
      </g>
      <path class="cls-7" d="M0,11.34h27.21v5.67H0v-5.67Z"/>
    </g>
  </g>
</svg>