<?xml version="1.0" encoding="UTF-8"?>
<svg id="Layer_2" data-name="Layer 2" xmlns="http://www.w3.org/2000/svg" viewBox="0.42 0.74 34.02 17.01">
  <defs>
    <style>
      .cls-2 {
        fill: #c8202f;
      }

      .cls-3 {
        fill: #222d65;
      }

      .cls-5 {
        fill: #fff;
      }
    </style>
  </defs>
  <g id="Layer_1-2" data-name="Layer 1">
    <g>
      <path class="cls-3" d="M.42.74h34.02v17.01H.42V.74Z"/>
      <path class="cls-5" d="M17.43,10.66L16.06,10.66L7.86,5.97L0.84,9.98L0.42,9.25L0.42,8.27L6.15,4.99L0.42,1.72L0.42,0.74L2.14,0.74L7.86,4.01L13.58,0.74L15.30,0.74L15.72,1.48L9.57,4.99L17.43,9.48Z"/>
      <path class="cls-2" d="M17.43,10.66L16.63,10.66L7.86,5.65L0.70,9.74L0.42,9.25L0.42,8.59L6.72,4.99L0.42,1.39L0.42,0.74L1.56,0.74L7.86,4.34L14.16,0.74L15.30,0.74L15.58,1.23L9.00,4.99L17.43,9.81Z"/>
      <g>
        <path class="cls-3" d="M7.86.74v9.92M.42,4.99h17.01"/>
        <polygon class="cls-5" points="9.28 10.66 6.45 10.66 6.45 6.41 .42 6.41 .42 3.57 6.45 3.57 6.45 .74 9.28 .74 9.28 3.57 17.43 3.57 17.43 6.41 9.28 6.41 9.28 10.66"/>
      </g>
      <path class="cls-5" d="M34.44.74v2.83h-18.43l-.71-.71V.74h19.13ZM34.44,7.12v2.83H15.3v-2.83h19.13ZM34.44,13.49v4.25H.42v-4.25h34.02Z"/>
      <path class="cls-2" d="M34.44,2.86v2.98H.42v-1.7h14.88v-1.28h19.13ZM34.44,9.24v2.13H.42v-2.13h34.02ZM34.44,15.62v2.13H.42v-2.13h34.02ZM7.01.74h1.7v9.21h-1.7V.74Z"/>
      <path class="cls-3" d="M34.44,4.99v1.77H15.3v-1.77h19.13Z"/>
    </g>
  </g>
</svg>