<?xml version="1.0" encoding="UTF-8"?>
<svg id="Layer_2" data-name="Layer 2" xmlns="http://www.w3.org/2000/svg" viewBox="0 0 25.51 17.01">
  <defs>
    <style>
      .cls-1 {
        fill: #1e2158;
      }

      .cls-2 {
        fill-rule: evenodd;
      }

      .cls-2, .cls-3 {
        fill: #fdb813;
      }
    </style>
  </defs>
  <g id="Layer_1-2" data-name="Layer 1">
    <g>
      <path class="cls-1" d="M0,0h25.51v17.01H0V0Z"/>
      <g>
        <path class="cls-3" d="M11.79,7.58s0,0,0,0c-.63-.77.03-1.14.02-1.69.41.71-.18.87.52,1.7h-.54s0,0,0,0ZM12.47,7.58c-.23-.31-.38-.84-.3-1.15.06-.25.3-.53.24-.87.05.09.18.32.22.55.2-.51.59-.75,1.09-.74-.97.74.29,1.29-.54,2.21h-.71s0,0,0,0ZM13.36,7.58c.25-.38.31-.59.31-.79,0-.15-.02-.35-.03-.46-.03-.22.13-.51.47-.57-.06.06-.11.19-.14.26-.03.08-.04.16-.02.29.04.16.02.39-.03.49-.05.01.2-.41.34-.42-.13.22-.08.54-.27.84-.07.11-.19.24-.33.36M13.22,9.59c.03-.87.22-1.14.57-1.5-.68,0-1.45,0-2.07,0,.35.36.54.64.57,1.51h.93ZM12.75,11.71l.27.85.15-2.52c-.28,0-.56,0-.84,0l.14,2.52.27-.85ZM12.75,15.52c.12-.11.15-.47.15-.47l.07-1.54-.23-.16-.23.16.07,1.54s.03.36.15.47h0Z"/>
        <path class="cls-3" d="M12.12,9.67h1.28v.28h-1.28v-.28Z"/>
        <g>
          <path class="cls-2" d="M11.73,3.91h.78l.24-.75.24.75h.78l-.63.46.24.75-.63-.46-.63.46.24-.75-.63-.46h0ZM12.04,1.48h.55l.17-.52.17.52h.55l-.44.32.17.52-.44-.32-.44.32.17-.52-.44-.32ZM15.29,2.37h.55l.17-.52.17.52h.55l-.44.32.17.52-.44-.32-.44.32.17-.52-.44-.32ZM17.7,4.5h.55l.17-.52.17.52h.55l-.44.32.17.52-.44-.32-.44.32.17-.52-.44-.32h0ZM11.54,7.71h2.44v.23h-2.44v-.23ZM18.99,7.56h.55l.17-.52.17.52h.55l-.44.32.17.52-.44-.32-.44.32.17-.52-.44-.32h0ZM18.57,10.96h.55l.17-.52.17.52h.55l-.44.32.17.52-.44-.32-.44.32.17-.52-.44-.32h0ZM16.69,13.58h.55s.17-.52.17-.52l.17.52h.55s-.44.32-.44.32l.17.52-.44-.32-.44.32.17-.52-.44-.32ZM13.84,15.21h.55l.17-.52.17.52h.55l-.44.32.17.52-.44-.32-.44.32.17-.52-.44-.32h0ZM15.06,11.4h.55s.17-.52.17-.52l.17.52h.55s-.44.32-.44.32l.17.52-.44-.32-.44.32.17-.52-.44-.32ZM16.36,8.36h.55l.17-.52.17.52h.55l-.44.32.17.52-.44-.32-.44.32.17-.52-.44-.32h0ZM12.04,12.66h.55l.17-.52.17.52h.55l-.44.32.17.52-.44-.32-.44.32.17-.52-.44-.32h0ZM10.22,2.37h-.55l-.17-.52-.17.52h-.55l.44.32-.17.52.44-.32.44.32-.17-.52.44-.32ZM7.82,4.5h-.55l-.17-.52-.17.52h-.55l.44.32-.17.52.44-.32.44.32-.17-.52.44-.32h0ZM6.52,7.56h-.55l-.17-.52-.17.52h-.55l.44.32-.17.52.44-.32.44.32-.17-.52.44-.32h0ZM6.94,10.96h-.55l-.17-.52-.17.52h-.55l.44.32-.17.52.44-.32.44.32-.17-.52.44-.32h0ZM8.82,13.58h-.55s-.17-.52-.17-.52l-.17.52h-.55s.44.32.44.32l-.17.52.44-.32.44.32-.17-.52.44-.32ZM11.67,15.21h-.55l-.17-.52-.17.52h-.55l.44.32-.17.52.44-.32.44.32-.17-.52.44-.32h0ZM10.45,11.4h-.55s-.17-.52-.17-.52l-.17.52h-.55s.44.32.44.32l-.17.52.44-.32.44.32-.17-.52.44-.32h0ZM9.15,8.36h-.55l-.17-.52-.17.52h-.55l.44.32-.17.52.44-.32.44.32-.17-.52.44-.32ZM6.74,7.57v.12s4.46-.51,4.46-.51v-.12s-4.46.51-4.46.51h0Z"/>
          <path class="cls-2" d="M12.69,4.86h.13v.68h-.13v-.68Z"/>
          <path class="cls-2" d="M9.94,3.34l.1-.07,1.6,2.24-.1.07-1.6-2.24Z"/>
          <path class="cls-2" d="M7.63,4.94l.05-.12,3.64,1.42-.05.12-3.64-1.42Z"/>
          <path class="cls-2" d="M18.77,7.57v.12s-4.46-.51-4.46-.51v-.12s4.46.51,4.46.51h0Z"/>
          <path class="cls-2" d="M15.57,3.34l-.1-.07-1.6,2.24.1.07,1.6-2.24h0Z"/>
        </g>
        <path class="cls-3" d="M11.32,3.89l-.55-.28.04-.07.55.28-.04.07ZM11.44,3.65l-.44-.43.06-.07.52.1h.03s.02.01.03.02l-.36-.35.06-.06.44.43-.06.07-.53-.1s-.02,0-.02,0h-.02s.36.34.36.34c0,0-.06.06-.06.06ZM11.95,2.64l-.13.05.17.44.13-.05c.06-.02.09-.06.11-.11.01-.05,0-.11-.02-.18-.03-.07-.06-.12-.11-.14s-.09-.03-.15,0h0ZM11.93,3.23l-.22-.57.22-.09c.08-.03.15-.03.21,0,.06.03.11.09.14.18.04.09.04.17.02.24-.02.07-.07.12-.15.15l-.22.08h0ZM12.54,3.02l-.05-.61h.08s.05.61.05.61h-.08ZM13.02,2.8l.19.04-.04-.28-.15.25ZM12.8,3.02l.34-.56.09.02.11.65-.09-.02-.03-.19-.24-.05-.1.17-.08-.02ZM13.45,3.16l.35-.51.08.05-.02.53v.03s0,.02,0,.03l.28-.41.07.05-.35.51-.07-.05v-.54s.02-.02.02-.02v-.03s-.28.41-.28.41l-.07-.04h0ZM14.23,3.53l.1.16.18-.23-.28.06h0ZM13.92,3.51l.64-.13.05.08-.4.52-.05-.08.12-.15-.13-.2-.19.04-.05-.07Z"/>
        <path class="cls-2" d="M17.88,4.93l-.04-.11-3.37,1.32.04.11,3.37-1.32h0Z"/>
      </g>
    </g>
  </g>
</svg>