<?xml version="1.0" encoding="UTF-8"?>
<svg id="Layer_2" data-name="Layer 2" xmlns="http://www.w3.org/2000/svg" viewBox="0 0 25.46 17.01">
  <defs>
    <style>
      .cls-1 {
        fill: #010101;
      }

      .cls-2 {
        fill: #f9f9fa;
      }

      .cls-3, .cls-4 {
        fill: #23285e;
      }

      .cls-5, .cls-6 {
        fill: #d81f29;
      }

      .cls-7, .cls-8 {
        fill: #232961;
      }

      .cls-7, .cls-4, .cls-6 {
        fill-rule: evenodd;
      }

      .cls-9 {
        fill: #fff;
      }

      .cls-10 {
        fill: #693314;
      }
    </style>
  </defs>
  <g id="Layer_1-2" data-name="Layer 1">
    <g>
      <g>
        <path class="cls-4" d="M14.58,7.05l1.85-.54.82.03v.54l-1.17-.05-.98.47-.42-.08-.09-.38Z"/>
        <g>
          <path class="cls-7" d="M7.91,7.21l1.41-.76.15.58-1.45.81.19.55,1.05-.73,1.52-.71.79.58-1.6.42-2.12,1.57-.24-.71.48-.42.03-.24-.19-.44-.02-.5Z"/>
          <path class="cls-1" d="M7.83,9.54l-.25-.75.49-.42.03-.22-.02-.06-.17-.39-.02-.51,1.44-.78.15.62-1.45.81.09.24.02.05h0s.07.22.07.22l1.03-.71,1.53-.72.83.61-1.63.43-2.13,1.58ZM7.62,8.81l.23.68,2.1-1.55h0s1.56-.41,1.56-.41l-.75-.55-1.51.71-1.07.74-.07-.19-.02.17-.48.42ZM7.94,7.7l.05.12h0s1.44-.8,1.44-.8l-.14-.55-1.38.74.02.49Z"/>
        </g>
      </g>
      <path class="cls-9" d="M0,0h25.46v17.01H0V0Z"/>
      <path class="cls-5" d="M18.97,0h6.48v17.01h-6.48V0Z"/>
      <path class="cls-3" d="M0,0h6.48v17.01H0V0Z"/>
      <g>
        <path class="cls-5" d="M11.45,12.68c-.19,0-.34.14-.34.31v.82c0,.17.15.31.34.31h.4c.19,0,.34-.14.34-.31v-.82c0-.17-.15-.31-.34-.31h-.4ZM11.65,12.89c.11,0,.2.08.2.18v.67c0,.1-.09.18-.2.18,0,0,0,0,0,0-.11,0-.2-.08-.2-.18v-.67c0-.1.09-.18.2-.18h0ZM10.37,12.69v.02c.06.03.1.08.1.15v1.13c0,.06-.04.12-.1.15v.02h.51v-.03s-.07-.08-.07-.13v-1.13c0-.06.03-.1.07-.13v-.03h-.51Z"/>
        <path class="cls-6" d="M14.44,12.7l-.67,1.3s0,.1-.14.14h.35s-.06-.04-.04-.08.05-.1.05-.1h.68l.07.11s-.03.06-.09.06h.6s-.08-.03-.11-.1l-.7-1.33h0ZM14.34,13.27l.26.53h-.54s.28-.53.28-.53h0ZM13.9,12.7s0,0,0,0h.02s0,0-.01,0ZM13.89,12.7h-.32c.07.07.03.12.03.12l-.15.5-.25-.62h-.03l-.3.61-.11-.48s.04-.11.06-.14h-.52c.11.07.11.11.11.11l.33,1.32.3-.77c.03-.07.07.02.07.02l.3.79.4-1.39c.02-.07.05-.08.08-.09h0Z"/>
      </g>
      <path class="cls-9" d="M8.15,9.17s.08-.09.09-.09c.02,0,0-.14-.03-.15,0,0-.03.02-.05.05s-.04.05-.05.06c-.02,0-.1-.19-.11-.27-.02-.09-.04-.1-.09-.06-.04.03-.03.04.05.3l.07.23c0,.06.04.04.13-.06h0ZM8.41,8.92s-.02-.13-.06-.25c-.08-.24-.1-.27-.15-.21-.02.03-.01.08.05.27l.08.24s.07-.02.08-.05h0ZM8.74,8.65s.07-.09.07-.12c0-.08-.03-.13-.07-.14-.03,0-.04-.01-.04-.07,0-.07-.05-.13-.1-.13-.04,0-.21.1-.21.13,0,.01.02.1.05.21l.06.24v.05s.09-.05.09-.05c.05-.04.1-.08.15-.12h0ZM8.57,8.58s-.01-.06.02-.08c.03-.02.05-.03.08-.01.04.02.04.02.02.07-.04.08-.09.09-.11.03h0ZM8.53,8.4s-.03-.05,0-.07c.04-.03.08,0,.06.04-.02.03-.03.04-.05.03h0ZM9.18,8.36s-.01-.13-.05-.11c-.01,0-.04.03-.06.05-.05.05-.09.05-.1,0,0-.04,0-.06.03-.08.02-.02.05-.05.05-.06.01-.05-.03-.08-.06-.05-.01.01-.04.02-.05.02-.05,0-.02-.06.05-.11.06-.04.07-.05.06-.09-.01-.04-.02-.04-.07,0l-.12.08c-.05.03-.07.05-.06.08,0,.04.11.41.12.43,0,.01.22-.11.25-.14h0ZM9.35,8.17c-.03-.12.06-.16.11-.05.01.03.03.03.06.02.06-.02.06-.04.01-.09-.03-.04-.04-.05-.02-.12.03-.09-.01-.2-.08-.22-.06-.02-.16,0-.22.06-.04.03-.04.05-.01.17l.05.22c.02.1.04.12.09.1.02-.01.03-.03.01-.09h0ZM9.31,7.96s-.03-.04-.03-.06c0-.03,0-.05.04-.07.1-.06.14.03.05.11-.04.03-.05.04-.06.02h0ZM11.07,7.4s-.04-.14-.09-.16c-.02,0-.07-.01-.11-.01-.08,0-.12-.03-.07-.06.02,0,.07-.02.11-.02.11,0,.11,0,.09-.06-.02-.05-.1-.05-.22,0-.08.04-.12.11-.09.18.01.03.04.04.09.04.13,0,.14,0,.17.04.04.07-.02.1-.15.08-.03,0-.04,0-.05.04,0,.02,0,.05,0,.06.01.01.11,0,.2,0,.04,0,.11-.08.12-.12h0ZM9.87,7.92s-.02-.1-.04-.16c-.05-.14-.04-.19.01-.22.03-.02.04-.04.03-.07v-.04s-.17.08-.17.08c-.14.08-.18.12-.15.14,0,0,.03,0,.05,0,.06-.03.1,0,.13.14.04.17.06.21.1.19.02,0,.03-.03.03-.06h0ZM10.17,7.79s-.09-.41-.11-.42c-.02-.01-.08.01-.08.04,0,0,.02.08.04.16l.06.22c.02.06.02.07.05.05.02,0,.04-.03.04-.04h0ZM10.65,7.55s-.03-.04-.13,0c-.1.04-.11.04-.13,0-.03-.05.01-.1.1-.13.06-.02.06-.03.06-.06s-.02-.04-.09-.02c-.09.03-.1.02-.1-.02,0-.03.02-.04.1-.07.1-.03.1-.03.08-.07s-.02-.04-.16.02l-.15.06.02.07.04.19c.04.22.03.21.22.13.16-.07.16-.07.14-.11h0ZM17.26,9.64c-.03-.23-.04-.26-.1-.26-.04,0-.04.03-.02.13.01.05.01.09,0,.09-.02.02-.09-.05-.15-.16-.04-.07-.05-.08-.09-.07h-.05s.03.24.03.24c.02.18.03.23.05.24.05.03.06,0,.05-.11,0-.12.02-.14.08-.06.06.09.15.17.19.16.03,0,.03-.02,0-.22h0ZM16.73,9.84s0-.12-.02-.26l-.04-.23h-.05s-.05,0-.05.07c0,.09.05.4.08.43.01.01.03.02.04.02s.03-.01.04-.03ZM16.51,9.84s-.02-.11-.11-.29c-.09-.19-.12-.24-.17-.22-.03,0-.05.05-.08.21-.06.26-.06.3-.01.3.02,0,.05-.02.06-.05.02-.04.03-.04.1-.03.04,0,.09.04.12.06.05.05.08.06.1.03h0ZM16.26,9.64s-.03-.11,0-.12c.03,0,.06.06.05.1s-.02.04-.06.02h0ZM15.9,9.61c0-.2,0-.22.09-.21.05,0,.06,0,.05-.04,0-.04-.02-.05-.05-.05l-.19-.03c-.08-.01-.15-.01-.16,0-.05.03-.02.07.06.1l.08.03v.18c.02.21.03.24.09.23.04,0,.04-.02.03-.19h0ZM15.55,9.48l-.02-.25s-.02,0-.05,0c-.04,0-.04,0-.04.12,0,.06,0,.12,0,.12s-.06-.06-.1-.14c-.09-.14-.14-.18-.17-.13,0,.01,0,.12,0,.23.01.18.02.21.04.24.02.01.04.02.06.02.02,0,.02-.03.01-.11-.01-.06,0-.1,0-.1,0,0,.06.06.11.13.08.11.09.13.14.13h.05s-.02-.25-.02-.25h0ZM14.96,9.59s.03-.45.01-.47c0,0-.03-.01-.05,0-.04,0-.04.02-.04.15,0,.32,0,.33.02.35.04.02.05.02.06-.01ZM14.67,9.26c-.06-.23-.08-.28-.14-.28-.03,0-.03,0-.15.22-.1.18-.1.21,0,.19.09-.01.2.03.22.09.01.03.08.05.11.02,0,0-.01-.12-.05-.25h0ZM14.5,9.3s-.04-.05,0-.12c.04-.07.06-.06.07.05,0,.09,0,.1-.07.07ZM14.21,9.3c0-.07.02-.15.02-.22.01-.16.01-.18-.01-.21s-.04-.02-.13.05c-.06.05-.1.07-.11.06,0,0-.02-.07-.04-.13-.02-.1-.03-.12-.07-.13-.04-.01-.05-.01-.06,0-.03.06-.08.4-.07.43.02.05.07.02.08-.06.02-.1.05-.1.07.03.01.06.03.11.04.11s.04-.03.07-.08.07-.07.08-.08c.03,0,.04.08.02.16-.01.05,0,.07.01.09.04.04.07.03.08-.02h0Z"/>
      <path class="cls-10" d="M13.33,7.5l-2.64-5.42M14.02,3.13s.07,0,.1,0c.02,0,.04,0,.05,0s.03,0,.04.01.03,0,.03,0c0,0,.05,0,.05.01,0,0,.01,0,.02,0,.02,0,.08.01.09.02,0,0,.02,0,.03,0,.01,0,.02,0,.02,0s.01,0,.03,0,.03,0,.04,0h.05s.05.03.05.03c.02,0,.07.02.09.02,0,0,.02,0,.03,0,.05.02.08.02.09.01,0,0,0,0,0,0s0,.01.03.02c.02,0,.04.01.04.01,0,0,.01,0,.02,0,.03.01.05.02.06.02.02,0,.12.03.16.05.05.02.09.03.14.05l.06.02.04.02h.04s.04.03.06.03l.11.03.08.03s.03,0,.03.01c0,0,0,0,0,0,0,0,.02,0,.02,0,0,0,.02.01.05.02l.05.02s.04.01.04.01c0,0,.03,0,.06.02,0,0,.02,0,.03,0,0,0,.03.01.06.02l.11.04s.02,0,.03.01.04.02.05.02.04.01.04.02.01,0,.01,0,0,0,.01,0,.01,0,.01,0c0,0,.02.01.01.02,0,.01-.02.02-.05.02-.01,0-.02,0-.02,0,0,0-.04,0-.06,0-.01,0-.02,0-.02,0-.02,0-.05,0-.07-.01,0,0-.01,0-.01,0s0,0-.01,0-.01,0-.02,0-.02,0-.03,0c-.01,0-.03,0-.04,0-.01,0-.03,0-.03-.01s-.01,0-.02,0-.01,0-.01,0,0,0-.02,0-.03,0-.05-.02c-.03-.01-.06-.02-.09-.03-.03,0-.05-.02-.05-.02s0,0-.01,0-.01,0-.02,0-.02,0-.02,0c-.02,0-.04-.01-.06-.03,0,0-.02-.01-.04-.02s-.03-.01-.03-.02,0,0-.02-.01-.02-.01-.02-.02c0-.01-.03-.02-.07-.02-.07,0-.18,0-.2,0-.01,0-.02,0-.02,0s0,0,0,0-.01,0-.02,0-.02,0-.02,0-.01,0-.02,0c-.01,0-.04,0-.06-.01,0,0-.02,0-.02,0-.01,0-.04,0-.06,0h-.05s-.02-.02-.03-.02-.03-.01-.06-.02-.05-.02-.05-.02,0,0,0,0,0,0-.01,0c0,0,0,0-.02,0,0,0-.02.01-.03.01h-.05c-.05.02-.23.02-.25.01,0,0-.02,0-.03,0s-.03,0-.04,0-.02,0-.03,0h-.04s-.03,0-.04,0c-.02.02-.1.02-.15,0,0,0-.02,0-.02,0s-.02,0-.02-.01c-.02-.01-.05-.02-.08-.02-.03,0-.04,0-.04.03,0,.01,0,.02.03.05l.07.06s.03.03.03.04c0,.01-.02.04-.04.04-.01,0-.02,0-.02-.01,0,0,0,0,0,0,0,0,0,0-.01,0,0,0,0-.01,0-.01,0,0,.01,0,.02,0,0-.01,0-.03-.06-.08-.04-.04-.06-.05-.06-.05-.01,0-.01.01,0,.02,0,0,.02.02.03.04s.02.03.03.04c0,0,.01.02,0,.02,0,0,0,0-.01-.01,0,0-.01-.02-.02-.03,0,0-.01-.01-.01-.02,0,0-.04-.06-.05-.06,0,0-.03,0-.04,0-.02,0-.02,0-.03.02-.01.02-.01.04,0,.06l.02.03s.03.05.07.09c.04.04.04.05.02.07,0,0-.02.01-.03,0-.02,0-.02,0-.06-.03-.03-.02-.08-.07-.1-.1-.03-.04-.07-.06-.1-.04,0,0-.02.01-.02.01s0,0-.01,0c0,0-.01,0,0,.03,0,.04.04.09.07.09.02,0,.03.02.04.03,0,0,0,0,.01.02.01.01.02.04.01.06,0,.01-.02.01-.04,0,0,0-.02,0-.02,0s-.02,0-.03,0-.02,0-.02,0-.02,0-.03,0-.03,0-.04-.01c-.03,0-.08,0-.09,0,0,0,0,.03.03.07.02.04.03.07.03.09,0,.02,0,.02-.01.03,0,0-.02,0-.03,0-.01,0-.05,0-.07,0,0,0,0,0,0,.02,0,0,0,.02,0,.02s.01.02.02.03l.02.04s0,.02,0,.03c0,.02,0,.02-.02.01-.01,0-.02,0-.03-.01,0,0-.02,0-.03,0-.02,0-.06.02-.06.03,0,0,0,.01.02.02.02.02.04.06.04.06,0,0,0,.01,0,.02.01.02,0,.03-.02.02,0,0-.03,0-.04,0-.02,0-.02,0-.02,0,0,0,0,.01,0,.02s0,.01,0,.02,0,.01,0,.02,0,.02.01.04c0,.02.01.02,0,.03,0,0-.01,0-.02,0-.02,0-.03,0-.05,0-.03,0-.04,0-.04,0,0,0,0,.01,0,.02s0,0,0,.01,0,.03.01.06l.02.07s0,.02,0,.03c0,0,0,.01,0,.02,0,0,0,0-.02,0-.02-.02-.02-.02-.03,0s-.02,0-.02.05c0,.06,0,.1-.02.11,0,0,0,.02,0,.02,0,.01,0,.01-.02,0-.02,0-.03,0-.04.04,0,.02-.02.04-.02.05s-.01.02-.01.02c0,0-.01,0-.03,0-.02-.02-.04,0-.04.03,0,.02,0,.02,0,.02,0,0-.01,0-.02,0-.01,0-.03,0-.03,0,0,0,0,.01-.02.02s-.03.03-.04.05c-.02.02-.03.03-.04.03-.01,0-.02,0-.02.01,0,0,0,0-.01,0,0,0-.01,0-.02.01,0,.01,0,.02,0,.05,0,.02.02.05.04.06l.03.05s.01.02.02.02.01.02.02.04.01.03.02.03,0,0,0,.01,0,.03.02.05.02.06.03.07c0,.02,0,.03.01.04,0,.01.02.07.03.11,0,.04.01.06.03.09l.02.05s0,.01-.01.01c0,0-.02,0-.02,0,0,0-.07-.02-.12-.02-.04,0-.06,0-.08.01-.02,0-.04.01-.07.02-.02,0-.04.01-.06.02l-.03.02s0,0-.02.01-.02.01-.03.02c-.02,0-.08.06-.11.1-.04.05-.12.16-.12.17,0,0,0,.01-.01.02-.02.02-.03.05-.05.12-.01.04-.02.07-.02.09h0s0,.03,0,.03c0,0-.02,0-.02-.02,0,0-.01-.03-.02-.04s-.01-.03-.01-.04,0-.01,0-.01,0-.02-.01-.04c0-.06-.01-.06-.03-.04h-.01s-.01,0-.01,0c0,0-.01-.02-.01-.02v-.02s-.02-.11-.02-.15c0-.05,0-.11.02-.14,0-.02,0-.13,0-.14,0,0,0-.04,0-.08,0-.19,0-.19-.05-.24-.03-.03-.03-.04-.02-.05,0,0,.02-.02.04-.05.03-.04.03-.04.03-.08v-.04s.05-.02.1-.03l.09-.02c.08-.02.2-.04.25-.04h.12s0,0,0,0c0,0-.05-.04-.08-.05-.02,0-.02-.02,0-.03,0,0,.01,0,.02,0,0,0,.01,0,.02-.01.01,0,.02,0,.05-.04,0,0,.02-.01.02-.01,0,0,.05-.05.07-.07.01-.01.02-.03.03-.04.02-.02.04-.05.08-.12.01-.03.04-.13.05-.2,0-.04.01-.19.01-.24,0-.02,0-.05,0-.07v-.1s-.02-.1-.02-.1c0-.03,0-.09,0-.13,0-.1.01-.16.03-.21l.03-.06s.03-.05.05-.07c0,0,.02-.02.02-.03,0-.01.14-.16.17-.18.21-.16.32-.2.6-.21h.15s0,0,0,0ZM15.34,3.44s0,0,0,0,0,0,0,0,0,0,0,0h0ZM10.81,3.42s.03,0,.06,0c.05,0,.1,0,.15.02h.06s.06.02.06.02c.02,0,.04,0,.05.01.01,0,.03.01.04.01.02,0,.04.01.05.02.04.02.1.04.11.04,0,0,0,0,.01,0,.02.01.04.02.06.03,0,0,.01,0,.01,0s.01,0,.03.01.03.01.04.02l.06.04c.06.04.13.1.16.14l.03.04s.05.08.1.2c0,.02.02.04.02.06,0,.02.01.04.02.05s.01.04.01.08v.11s.02.07.02.07c0,.04.01.11.02.12,0,0,0,.02,0,.03,0,.01,0,.03.01.05s.01.04.01.04c0,0,.02.05.03.07,0,0,0,.02.01.02.03.06.04.08.06.1,0,.01.02.02.02.03,0,0,.08.09.1.1,0,0,0,0,0,.02,0,.01,0,.02,0,.03,0,.01,0,.02,0,.03,0,0,0,.02,0,.03s0,.02,0,.02-.02,0-.04,0h0c-.07.02-.09.02-.09,0,0-.01-.04-.07-.05-.07,0,0,0,0,0,0,0,0,0-.01-.01-.01-.01,0-.02,0-.03.02-.02.02-.04.02-.03,0,0,0,0-.01,0-.01s0,0,0-.01c0-.01-.01-.04-.02-.04,0,0,0,0-.01.02s-.01.02-.02.02c-.01,0-.01,0-.02-.01,0-.01,0-.02,0-.03,0,0,0-.03,0-.05v-.04h-.02s-.02,0-.02.01,0,0-.01,0,0,0,0-.02c0,0,0-.02,0-.04v-.03s-.02-.02-.04,0c0,0-.02,0-.02,0,0,0,0-.02,0-.02,0-.02,0-.02.02-.03,0,0,.02-.01.02-.02s0,0,0,0c.02,0,.01-.01-.01-.03-.01-.01-.03-.02-.03-.02s-.01,0-.03-.02-.02-.02-.03-.02,0-.01,0-.02c0-.02,0-.03.01-.03,0,0,.02,0,.02,0,.01,0,.03-.02.03-.03,0,0-.02-.03-.03-.03,0,0-.01,0-.02-.02s-.02-.02-.03-.03-.02-.02-.02-.02,0-.01-.01-.02-.02-.02-.03-.03v-.02s0,0,0,0c0,0,.02,0,.03,0,.02,0,.05-.02.05-.03,0,0,0-.01-.02-.02l-.08-.06s-.02-.02-.03-.02c-.03-.02-.03-.03.02-.04.01,0,.03,0,.03,0,0,0,0-.02,0-.02,0,0-.01,0-.03-.01l-.06-.03-.06-.03h-.03s0-.03.01-.02c.02,0,.07,0,.07-.02,0,0-.03-.03-.05-.05,0,0-.02-.01-.03-.02-.02,0-.03-.01-.08-.05h-.02s.01-.03.01-.03c0,0,.01-.01.02-.01,0,0,0-.01-.01-.03-.02-.02-.02-.03-.06-.04l-.05-.02s0-.01,0-.02c0,0,0-.02,0-.03,0-.01-.07-.05-.09-.05,0,0-.02,0-.03,0-.02,0-.02,0-.03,0s-.02,0-.02,0c-.01-.01,0-.02,0-.02s.01-.02,0-.02c0,0-.02,0-.04,0s-.03,0-.04,0-.02,0-.04,0c-.04,0-.07,0-.08,0,0,0,0,0,0-.01.02-.01.02-.02.03-.04v-.02s-.02,0-.02,0c-.01,0-.02,0-.03,0,0,0-.07,0-.09.01,0,0-.02,0-.06,0h-.05s0-.03.02-.04c.02-.02.03-.03,0-.04,0,0-.03,0-.07,0h-.08s-.05.02-.05.02c-.02,0-.04,0-.03-.02,0,0,0-.01,0-.02,0,0-.02,0-.05-.01h-.06s-.14,0-.14,0c-.05,0-.09,0-.09,0,0,0-.02,0-.03,0-.04,0-.13,0-.13-.01s.02-.01.06-.02c.02,0,.05,0,.07-.01.03,0,.06-.01.09-.02h.07s.07-.02.11-.02c.03,0,.07,0,.29,0h.12s0,0,0,0ZM13.7,3.53s-.02,0-.02.01c0,.02.02.05.07.1.03.03.05.05.05.05s0,0,.02.01h.02s0,0,0,0c0-.01,0-.01,0-.03,0,0-.01-.02-.02-.02,0,0-.03-.04-.06-.08-.01-.02-.04-.04-.06-.04h0ZM14.76,3.56s-.1,0-.1.04c.04.01.08.03.12.05.04.01.08.04.12.05.04,0,.08.04.12.04.01.03.06,0,.07.04.04,0,.06.03.1.05l.12.06s.07.04.11.06c.04.02.08.04.12.07.02.04.08.02.1.06.03-.01.07.02.1.03.04,0,.1-.03.09-.08-.01-.04-.06-.07-.09-.09-.03-.03-.07-.04-.11-.07l-.12-.07c-.05-.03-.11-.05-.16-.08-.04-.02-.07-.05-.11-.06-.03-.03-.08-.04-.12-.04-.05,0-.09-.02-.13-.02-.05,0-.09-.02-.14-.04-.03,0-.06-.03-.09-.03h0ZM14.32,3.56c-.06,0-.11.01-.17.02,0,.05.08.05.11.06.07,0,.14.03.2.07.05,0,.1.04.15.05.06.02.11.05.17.06.05.03.1.06.16.07.03.03.07.05.11.06.05.03.1.06.15.09l.13.09s.09.05.14.08c.05,0,.14-.02.1-.09-.03-.05-.08-.08-.13-.11-.04-.02-.07-.04-.1-.05l-.14-.08s-.1-.05-.15-.08l-.44-.19c-.05-.04-.12-.03-.18-.04-.04,0-.07-.01-.11-.02h0ZM9.8,3.53s-.18,0-.35.02l-.31.03-.23.02-.29.04s-.04,0-.05.01c-.07.02-.12.04-.13.05,0,0-.01.01-.02.01-.03,0-.06.04-.06.06,0,0,0,.02,0,.03,0,.02,0,.03.01.03,0,0,.01,0,.02.01,0,0,.02.01.03.01.07,0,.14,0,.21-.01.19-.01.19-.01.39-.05l.08-.02.15-.04s.04,0,.04-.01.03,0,.05-.01l.27-.05.16-.03h.04s.05-.02.07-.02c0,0,.02,0,.03-.01s.01,0,.02-.01.01,0,.01,0c0,0-.02-.01-.03,0,0,0-.13.02-.19.02,0,0,0-.02.01-.02,0,0,.01,0,.02-.01,0,0,.01,0,.02,0s.01,0,.02,0c.02-.01.02-.02,0-.03h0ZM13.98,3.61s0,0,0,0,0,0,0,0,0,0,0,0,0,0,0,0h0ZM15.4,3.64s-.09,0-.11.02c.02.02.06.02.08.05.03.02.07.04.11.06.03.01.06.04.09.05l.12.07s.06.03.08.05c.03.03.06.05.1.06.05.01.1.02.15,0,.03,0,.07,0,.08-.04.02-.03,0-.07-.04-.07-.03,0-.06-.02-.09-.02-.03,0-.06-.03-.1-.03-.05-.02-.1-.04-.16-.05-.04-.01-.07-.04-.11-.04-.03-.01-.06-.02-.09-.04l-.1-.06h0ZM10.09,3.59c-.05.02-.11.02-.17.03-.04,0-.08.03-.12.04-.05,0-.09.02-.14.03-.07.01-.14.02-.21.04-.07,0-.15.02-.22.05-.08,0-.15.03-.23.05-.05.02-.12.03-.12.09.01.05.08.05.13.05.1,0,.2-.02.3-.05l.24-.08.36-.1.15-.04c.07-.02.14-.03.21-.06-.04-.03-.09,0-.14,0-.02,0-.07.02-.04-.02,0,0,.02-.03,0-.03h0ZM14.15,3.65s-.06.08,0,.09c.06.01.11.04.17.05l.16.06c.07.03.15.05.21.09l.15.08.14.08s.08.05.12.07l.14.07s.1.02.14,0c.02-.06-.08-.07-.11-.11l-.4-.23c-.09-.04-.18-.07-.28-.1l-.17-.07c-.07-.03-.14-.04-.2-.06-.02,0-.04,0-.06-.01h0ZM13.49,3.67s-.02,0-.02,0c0,0,0,.01.02.03.01.01.03.02.04.03.01,0,.03.02.04.03s.03.02.03.02h.02s.02-.01.02-.02c-.04-.06-.05-.07-.09-.09-.02,0-.04-.01-.05-.02h0ZM10.39,3.66l-.24.07c-.11.02-.21.06-.31.08-.07.03-.15.04-.23.07-.08.03-.18.04-.25.1-.05.05.01.12.07.11.11,0,.21-.06.32-.1l.26-.09c.1-.03.2-.07.3-.1.07-.04.15-.05.22-.08.05-.01.04-.05-.01-.04-.04,0-.09,0-.13-.01h0ZM15.73,3.72s0,0,0,0,0,0,0,0,0,0,0,0,0,0,0,0h0ZM10.73,3.7s-.01,0-.02,0c-.01,0-.03,0-.04,0-.01,0-.03,0-.03,0s-.02,0-.03,0-.02,0-.03,0-.02,0-.05.02-.05.02-.06.02c0,0-.02,0-.03,0-.01,0-.02,0-.03,0l-.08.03s-.01,0-.02,0c-.01,0-.02,0-.03,0s-.01,0-.02,0c-.01,0-.04,0-.06.02-.04.02-.08.03-.11.04,0,0-.01,0-.02,0,0,0-.02,0-.04.01l-.12.04-.09.03s-.04.01-.06.02l-.04.02s-.07.04-.09.05c-.02.02-.02.04,0,.05,0,0,.01,0,.01.01,0,.01.02.01.04.01,0,0,.03,0,.05,0h.03s.03,0,.07,0c.05,0,.07-.02.09-.03.01,0,.03-.01.04-.02.05-.02.09-.04.13-.06.03-.01.07-.03.13-.05.01,0,.02,0,.04-.01.02-.01.08-.04.13-.05l.06-.02s.02,0,.03,0c0,0,.02,0,.04-.01s.04-.02.07-.02.04-.01.04-.01.02,0,.03-.01c.04,0,.11-.03.11-.04,0,0,.01,0,.02,0,.01,0,.02,0,.03,0,.05-.02-.03-.04-.09-.02-.02,0-.03,0-.04,0-.03,0-.03-.02,0-.03.03-.01.04-.03.03-.03h0ZM14.02,3.75s-.07.08,0,.07c.04,0,.08.02.12.04.04.02.08.03.12.04l.12.06s.08.04.12.06c.03.03.08.04.11.07.04.01.07.05.11.06.03.03.07.06.1.08.05.03.1.06.15.08.04.02.09.03.13,0,.05,0,.05-.06.02-.08-.04-.04-.1-.06-.14-.09-.03-.03-.07-.04-.11-.06l-.13-.07s-.1-.05-.15-.07l-.14-.05-.19-.07c-.06-.02-.11-.05-.17-.06-.03,0-.05,0-.07-.01h0ZM8.31,3.74s-.08,0-.18.03l-.1.03s-.04.01-.06.02c-.03.01-.07.02-.1.03l-.1.03-.06.02-.07.03s-.04.01-.05.02c0,0-.07.03-.21.08l-.07.02s-.04.01-.06.02c-.01,0-.03.01-.03.01,0,0-.09.04-.13.06-.01,0-.03.01-.03.01-.01,0-.02.02-.02.03,0,.02.04.03.1.04h0c.08,0,.2,0,.23-.03,0,0,.03-.01.06-.02s.06-.02.07-.03c.02-.01.21-.09.26-.11.02,0,.04-.01.06-.02.02,0,.04,0,.04-.01s.04-.01.07-.02l.06-.02s.25-.06.26-.05c0,0,.02,0,.03,0,.01,0,.03,0,.04,0,.02,0,.04,0,.04-.01,0,0,0-.01-.02-.02l-.02-.02h-.06c-.06,0-.08,0-.08,0,0,0,.08-.04.09-.04,0,0,.04-.02.05-.03,0,0,0-.03,0-.04h0ZM10.99,3.78c-.1,0-.18.04-.27.07l-.24.08c-.06.03-.12.04-.17.07-.06.02-.11.05-.16.07l-.15.07s-.09.04-.11.09c.02.05.08.06.12.06.06,0,.12-.01.17-.04l.27-.14c.11-.05.21-.1.32-.13l.28-.1s-.06,0-.08-.01c-.04-.01,0-.04.02-.04.03,0,.02-.03,0-.03h0ZM13.82,3.83c-.06,0-.03.07.02.07.04,0,.08.03.12.05.06.03.12.04.18.08.04.02.08.05.12.06.04.03.07.05.11.07.03.03.07.05.11.08.03.02.07.03.1.05.04,0,.09.04.13.03.04,0,.1,0,.09-.06-.02-.04-.06-.06-.1-.08l-.14-.1-.19-.1-.23-.09c-.07-.03-.14-.05-.21-.06-.04,0-.07,0-.11,0h0ZM16.38,3.89c-.07.03-.16.02-.22.07.04.08.16.07.23.12l.27.11c.07.03.14.05.21.08l.19.07c.07.03.15.05.23.08l.23.08.25.08.22.08c.06.03.13.04.2.06.07.01.18.1.23.02-.03-.09-.14-.12-.22-.17-.08-.05-.16-.08-.24-.12-.08-.04-.16-.06-.24-.1l-.32-.12c-.07-.04-.15-.05-.23-.09-.09-.02-.16-.07-.25-.08l-.17-.05-.33-.09s-.02-.02-.04-.02h0ZM13.59,3.9c-.05,0-.03.09,0,.11.06.01.11.03.16.06l.13.06c.07.04.15.07.22.13l.24.16s.1.05.15.02c.07-.02.05-.11,0-.13-.03-.04-.08-.05-.12-.08-.06-.05-.13-.08-.2-.12-.05-.02-.09-.05-.13-.07-.09-.05-.18-.09-.28-.12-.05.01-.11,0-.15-.01h0s0,0,0,0ZM11.12,3.88c-.05,0-.1.03-.15.05l-.44.17s-.07.03-.11.05c-.08.04-.17.08-.24.14-.05.02,0,.08.03.09.05,0,.1,0,.15,0,.04-.02.08-.04.12-.06.03-.02.07-.03.1-.05.04-.02.09-.04.13-.06l.15-.06s.08-.03.12-.04c.07-.02.14-.05.22-.06.04-.03-.07,0-.04-.05.03-.03-.02-.06-.03-.1h0ZM8.66,3.88c-.07,0-.14.02-.21.04-.06.01-.12.02-.18.03-.08.02-.15.03-.23.05l-.35.12-.16.07s-.1.05-.13.09c0,.06.08.06.13.06.05,0,.1,0,.15,0,.05-.02.11,0,.16-.04.05,0,.1-.04.16-.06.05-.02.1-.05.15-.06.08-.04.18-.05.26-.09.05,0,.09-.03.14-.04.07-.01.14-.04.22-.06.02-.01.08,0,.07-.04,0-.03,0-.09-.04-.06-.05.01-.09.04-.14.03,0-.02.1-.04.03-.06h0ZM16.12,4.01c-.05.03-.11.05-.17.04-.08-.02-.12.11-.02.1l.24.09.27.1c.07,0,.13.06.21.07.07.02.14.06.22.08.07.03.14.05.21.08.08.02.14.07.22.08l.24.08c.09.04.18.05.27.09.08.01.16.05.25.02.08-.03.04-.12-.03-.14-.04-.02-.09-.04-.13-.06-.07-.02-.14-.06-.21-.07l-.24-.08c-.07-.05-.16-.05-.23-.08-.08-.03-.16-.05-.23-.08-.09-.03-.19-.06-.28-.1l-.21-.08c-.07-.04-.14-.05-.21-.08-.06-.03-.12-.05-.17-.07h0ZM8.62,3.94s0,0,0,0,0,0,0,0c0,0,0-.01,0-.01h0ZM11.22,4s0,0,0,0,0,0,0,0,0,0,0,0,0,0,0,0h0ZM9.25,3.98c-.08,0-.16.03-.23.05-.04,0-.09.05-.13.03.01-.02.06-.03.01-.05-.07-.01-.14.03-.21.04-.06.02-.13.03-.2.05-.05,0-.09.03-.14.04l-.13.04s-.09.03-.13.05l-.14.06c-.05.02-.06.1,0,.11.06.02.13,0,.19,0,.05,0,.1-.02.15-.03.04-.01.09-.03.13-.04.05-.01.09-.04.13-.05.09-.04.18-.07.27-.1l.36-.12s.11-.05.06-.08h0ZM13.56,4.04s-.07.07-.02.09c.05.03.1.06.15.09.05.02.08.06.13.09.05.02.08.07.13.09.07.06.15.11.24.11.04.01.12-.02.09-.07-.05-.07-.12-.12-.19-.16-.09-.06-.18-.11-.28-.15-.04-.01-.07-.03-.11-.05-.04,0-.08-.04-.13-.04h0ZM11.32,4.03c-.1.02-.19.05-.28.08-.06.02-.11.04-.17.06-.04.02-.09.03-.13.05l-.17.08s-.07.04-.1.06c-.04.02-.07.04-.09.08-.02.04.03.07.07.07.05,0,.09-.01.13-.03.07-.02.13-.05.19-.07.06-.03.12-.07.18-.1.05-.03.1-.05.16-.08.03-.01.07-.03.1-.03.04-.01.08-.02.12-.03.03-.03-.05-.01-.06-.01-.02,0-.07,0-.03-.02.02-.02.09,0,.07-.05,0-.01.05-.04.02-.04ZM9.28,4.07s-.08.02-.12.03l-.34.12-.13.05s-.09.04-.14.06c-.03.02-.08.05-.05.09.07.05.16.04.24.01.04-.01.08-.03.13-.04.05-.02.11-.03.15-.06.08-.02.16-.06.24-.08.08-.03.17-.04.24-.08.02-.01.05-.04.02-.06-.06,0-.11.02-.16.03-.02,0-.05.02-.08.02.01-.02.02-.03.04-.04,0-.02-.02-.04-.04-.04h0ZM15.82,4.15c-.06,0-.18-.02-.17.07.06.04.13.05.2.09l.21.09c.06.03.13.05.19.08.07.02.14.06.21.09.06.03.1.05.16.07l.17.08c.06.03.13.06.19.08.07.04.16.06.24.09.07.03.14.05.22.07.07,0,.18.04.23-.04.06-.08-.08-.12-.14-.15l-.21-.07-.21-.07c-.07-.03-.13-.05-.2-.07l-.2-.07c-.06-.03-.13-.05-.2-.07l-.22-.09-.38-.14s-.06-.02-.09-.03h0ZM13.52,4.19s-.07.05-.06.09c0,0,0,0,0,0,0,.04.02.06.05.08.03.03.06.04.09.07.04.03.07.07.11.11.04.04.06.09.11.12.03.03.08.06.12.04.04,0,.06-.02.07-.06,0-.04,0-.07-.03-.1l-.07-.09-.15-.11-.1-.06s-.06-.04-.1-.06c-.02,0-.03-.02-.05-.03h0ZM11.4,4.19c-.12,0-.24.04-.36.1-.05.02-.1.04-.14.08-.05.04-.1.08-.13.13-.01.04.04.06.07.05.04,0,.09,0,.11-.04.02-.02.05-.03.07-.05.05-.03.11-.05.17-.07.03,0,.07-.03.1-.04.03,0,.05-.02.07-.02.04,0,.07-.03.11-.02.02.01.05-.02.02-.03-.03-.02-.08.01-.09-.01,0-.02.06-.03.04-.06-.02-.01-.03,0-.05,0h0ZM15.61,4.24s-.13-.02-.16.03c.01.04.07.04.1.07.05.04.11.05.16.09.05.04.13.05.18.09.06.02.1.05.16.07.06.04.14.04.19.09.06.01.11.06.18.08.05.03.11.06.17.08.05.02.1.05.15.07.07.03.14.06.21.08.06.01.13,0,.18-.03.04-.07-.06-.09-.1-.11-.05-.03-.11-.05-.16-.07-.06-.03-.13-.05-.18-.08l-.18-.07s-.11-.04-.16-.07l-.18-.08-.22-.1c-.06-.02-.12-.04-.17-.08-.06-.01-.11-.05-.17-.06h0ZM9.59,4.19c-.07,0-.14.03-.2.05l-.12.04-.18.06c-.08.04-.17.06-.24.1-.03.02-.08.04-.07.08.02.03.07.04.11.05.04,0,.07,0,.11,0,.09-.02.17-.03.25-.07.05-.03.11-.05.17-.07.05-.02.1-.03.15-.05.04-.02.09-.03.13-.05.04,0,.07-.04.11-.05,0-.02,0-.05,0-.07-.03,0-.06,0-.09.01-.03,0-.07.03-.09,0,.01,0,.05-.03.01-.03-.02,0-.03,0-.05,0ZM15.41,4.3s-.11.02-.12.06c.07.05.14.09.21.14.04.03.09.05.14.08.05.04.1.06.15.1.07.04.14.09.21.12.11.05.22.11.34.11.04,0,.09,0,.1-.05,0-.07-.08-.08-.12-.11l-.2-.1-.16-.08s-.1-.04-.15-.07c-.06-.02-.11-.05-.17-.08l-.16-.07-.09-.04h0ZM9.85,4.29s-.07.04-.11.05l-.19.08s-.1.04-.15.05l-.15.07s-.05.06-.02.09c.03.02.06.01.09.01.06,0,.13,0,.18-.03.04,0,.07-.02.1-.04l.28-.11c.07-.02.13-.06.19-.08.03,0,.03-.07,0-.05-.04,0-.08.02-.12.04-.01,0-.04,0-.02-.01.03-.02.02-.07-.02-.06-.02,0-.04,0-.06-.01h0ZM15.2,4.36c-.05,0-.04.07,0,.07l.17.15s.06.05.08.08c.03.02.05.05.08.07.03.02.05.06.09.08.05.03.1.07.15.09.06.03.13.03.2.02.03,0,.07-.05.03-.07-.04-.03-.09-.05-.13-.08-.04-.02-.08-.05-.12-.07-.03-.03-.08-.04-.11-.07-.03-.03-.07-.05-.11-.07-.04-.03-.08-.06-.13-.09-.04-.02-.07-.05-.12-.07-.03-.01-.05-.04-.08-.04h0ZM11.53,4.34s-.05.01-.08.01c-.08.02-.17.04-.24.07-.03,0-.05.01-.08.03-.05.02-.1.04-.13.09-.02.03-.04.07-.02.1.01.03.04.04.07.04.03,0,.05.02.07,0,.03-.01.05-.02.08-.04.03-.02.06-.03.09-.04.03-.02.07-.02.11-.04.03-.01.07-.01.1-.02.03,0,.05-.01.08-.01.02-.02-.01-.05-.03-.05-.03,0-.02-.03,0-.04.02-.01.05-.02.06-.04,0-.03-.04-.03-.06-.03h0ZM14.86,4.38s-.01,0-.02,0c-.03.01-.1.02-.11.02,0,0-.02,0-.03,0,0,0-.02,0-.03,0-.02,0-.02,0-.02,0s.08.09.13.13c.01,0,.02.02.02.02s.01.02.03.03l.07.06.06.07s.04.04.06.06c.05.04.15.12.18.14.03.01.03.01.07.01.03,0,.04,0,.05-.02,0,0,.01-.02.01-.02s0,0,0,0c0,0,0-.01,0-.04-.02-.04-.06-.09-.16-.18l-.11-.11s-.02-.02-.03-.02c0,0-.02,0-.02,0,0,0-.05-.05-.06-.05,0,0,0,0,0,0,0,0-.05-.06-.06-.06,0,0-.01,0-.01-.01,0,0,0-.01,0-.02h0ZM13.46,4.37s-.06.07-.07.11c0,.04.04.07.06.1.07.06.13.12.18.2.03.04.07.08.12.09.03,0,.06,0,.07-.03.03-.04.02-.1-.01-.14-.02-.03-.05-.06-.07-.09-.03-.02-.05-.06-.08-.08-.02-.02-.05-.04-.06-.06-.02-.03-.06-.04-.08-.07-.02,0-.03-.02-.05-.03h0ZM15.04,4.4s-.11,0-.05.03c.02.03.04.06.07.08.04.03.07.08.11.11.03.05.09.08.12.13.06.06.13.12.2.18.05.03.1.05.15.02.05-.02.02-.07-.02-.09l-.35-.33s-.08-.05-.11-.09c-.04-.04-.08-.06-.14-.05h0ZM14.6,4.44s0,0-.01,0c-.03.02-.02.05.02.1,0,.01.02.02.02.02,0,0,.03.07.05.1,0,.01.01.02.01.03,0,.01,0,.02.01.03,0,.01.01.03.01.03s0,.01,0,.02c0,.01,0,.02.01.03,0,.03.02.06.04.06,0,0,.01,0,.02.01,0,0,.01,0,.01,0,0,0,.02,0,.02,0,0,0,.03.01.06.02h.04s0,0,0,0c.02,0,.05,0,.07-.01.02-.01.01-.09-.02-.12l-.03-.04s-.04-.05-.07-.07l-.11-.11-.08-.08-.03-.03s-.01-.01-.02-.01,0,0,0,0,0,0-.01,0c0,0,0,0-.01,0h0ZM10.13,4.4l-.46.19s-.09.03-.12.06c-.02.02-.01.06.01.07.03.02.06.02.09.02.11,0,.21-.03.31-.07l.2-.09s.05-.02.08-.03c.02-.01.07-.02.07-.05,0-.02-.02-.05-.04-.03-.01,0-.06.03-.04,0,.01-.01.05-.05,0-.05-.03.01-.05,0-.07-.01h-.03s0,0,0,0ZM14.39,4.47s-.05,0-.05.03c.02-.02-.01.03.01.04.03.04.07.08.09.13.02.04.04.08.06.12,0,.03.04.1.01.11-.03-.07-.06-.14-.1-.21-.04-.04-.05-.09-.1-.13-.03-.03-.07.02-.11,0-.04,0-.1-.03-.12,0-.02.05.03.08.06.12.04.03.05.07.07.11l.08.13c.03.06.05.12.06.19.01.02.01.06,0,.02-.03-.1-.08-.18-.13-.27-.03-.05-.06-.1-.11-.14-.03-.03-.07-.07-.1-.02-.04.04-.1.02-.13.07.02.04.06.05.07.1.03.02.05.07.07.1.03.04.04.08.07.12.03.04.05.1.07.14,0,.03.03.1,0,.1l-.05-.14s-.05-.09-.08-.13c-.02-.04-.05-.08-.07-.12-.03-.04-.05-.09-.1-.11-.05-.02-.06.07-.11.05-.02.02,0,.08,0,.12.04.02.07.07.11.1.03.02.06.06.08.09.03.04.06.08.08.13l.05.13c0,.05.07.06.1.02.02-.05.08-.03.12-.05.05-.02.08-.08.09-.13,0-.05.08-.02.1-.07.04-.05.07-.11.06-.18.02-.04.09-.02.12-.06.04-.05.05-.12.02-.18-.01-.06-.04-.12-.06-.18l-.08-.12s-.08-.02-.12-.04c-.01,0-.02,0-.04,0h0ZM17.66,4.51s0,0,0,0,0,0,0,0,0,0,0,0,0,0,0,0ZM10.71,4.48s-.06.02-.09.03c-.08.03-.16.03-.25.03-.05,0-.09.04-.14.05l-.14.06-.12.05s-.06.04-.08.07c0,0-.02.02-.01.03.01.02.02.05.05.05.06.01.11,0,.16-.02.08-.02.15-.05.22-.08.05-.02.09-.04.14-.06.03-.02.06-.02.08-.03.05-.02.1-.04.15-.07.02,0,.06-.04.02-.05-.01,0-.04,0-.05,0,.01-.02.06-.03.05-.06,0,0,0,0-.01,0h0ZM13.34,4.54s0,0,0,0c0,0,0,.01,0,.04,0,.02,0,.04,0,.06-.02.05-.01.06.05.12.03.03.06.06.06.07,0,0,.01.01.02.02,0,0,.02.02.03.03s.02.02.02.02.01.01.02.03.02.03.02.03,0,0,0,0c0,0,.02.03.06.07.01.01.02.02.03.01,0,0,.02,0,.02,0,0,0,.01,0,.01,0,0,0,0,0,0,0s0,0,.01,0,0-.01.01-.02c0,0,0-.06,0-.08,0,0,0-.02-.02-.03l-.03-.04s-.02-.02-.07-.08l-.04-.05s-.02-.03-.04-.04l-.08-.07c-.06-.06-.08-.08-.09-.08h0ZM11.63,4.55s-.02,0-.05,0c-.03,0-.06,0-.1.01l-.07.02s-.04.01-.06.02l-.05.02s-.03.01-.04.02h-.02s-.09.06-.1.07c-.02.02-.03.05-.03.06,0,0,0,.02,0,.02-.01.02,0,.03,0,.05.01.02.02.03.03.02,0,0,0,0,.01,0,.01,0,.02.01.05.02h0s.03,0,.05,0c.02-.02.1-.07.1-.07,0,0,0,0,.01,0s.03-.02.05-.03l.06-.03s.04-.01.06-.01.05,0,.05-.01.02,0,.04,0c.04,0,.05,0,.05-.03,0-.01,0-.02,0-.03,0-.02,0-.03,0-.05,0-.03,0-.04-.01-.04,0,0-.01,0-.02,0h0ZM10.81,4.59s-.04.02-.07.02c-.03.02-.06.03-.09.04l-.14.06s-.09.03-.13.05c-.05.02-.1.04-.14.06-.02.01-.05.04-.05.07,0,.04.04.06.07.06.06,0,.12-.01.18-.03.03,0,.05-.02.08-.03.06-.01.11-.04.16-.07.03-.02.06-.03.09-.04.04-.02.09-.04.13-.06.03-.01.02-.06,0-.07-.03-.01-.05.01-.08.01-.02-.02.03-.04.04-.05.02-.03-.04,0-.05-.02h0ZM13.21,4.63s0,0,0,0,0,0,0,0,0,0,0,0,0,0,0,0ZM11.83,4.65s-.02,0-.02,0c0,.02.04.05.07.05h0s.07,0,.09-.02c.01-.01.01-.01,0-.02,0,0-.02,0-.07,0-.05,0-.06,0-.06,0,0,0-.01,0-.02,0h0ZM13.26,4.72s0,0,0,.01,0,.03-.01.05-.01.05-.01.07c0,.02,0,.03.02.05.01.02.04.04.06.06s.04.04.04.05c.01.02.03.05.04.06,0,0,.01.01.01.02s0,0,0,.01.01.01.01.02,0,.01.01.01,0,0,0,0c0,0,.02.03.03.03,0,0,0,0,0,0,0,0,0,0,.02,0,.02,0,.03,0,.03,0h0s0,0,0,0c0,0,.03-.03.04-.06s.01-.03,0-.05c0,0,0-.02,0-.02,0-.02-.01-.03-.02-.05,0,0,0,0,0-.01s-.02-.02-.03-.04l-.04-.05s-.21-.2-.21-.2h0ZM11.01,4.72s-.07.01-.09.04c0,0-.01.01-.01.01s-.01,0-.02.01c-.01.01-.01.02-.01.05,0,.02,0,.04,0,.04.02.02.03.02.04.02.02,0,.11,0,.11-.01,0,0,0,0,0,0,0,0,0,0,0-.03v-.07s0-.04,0-.04h-.02s-.02-.01-.03-.01h0ZM11.64,4.75c-.06,0-.12.02-.17.04-.07.03-.14.06-.18.12-.03.04-.03.09-.02.13,0,.02.04.03.06.02.03,0,.05-.02.07-.04.02-.02.04-.04.07-.05l.09-.04s.04,0,.05-.01c.03,0,.06-.01.09-.02.02-.01.02-.04.02-.06,0-.02,0-.04,0-.06s-.04-.02-.06-.02c0,0-.01,0-.02,0h0ZM12.47,4.81s0,0,0,0c0,0-.02.01-.03.02-.02.02-.03.01-.02,0,0-.01.03-.02.05-.02h0ZM12.64,4.81s.02,0,.02.01c0,0-.01,0-.02.01s-.02,0-.03,0c-.02,0-.02,0,0-.02,0,0,.02-.01.03-.01h0ZM12.74,4.83s.02,0,.01.02c0,0-.04.02-.04,0,0,0,.02-.03.03-.03h0ZM10.81,4.81s-.06.02-.09.03c-.05.01-.09.04-.14.07-.02.02-.05.04-.05.07,0,.02.01.05.04.06.03,0,.06.02.09,0,.04,0,.07-.02.11-.03.03,0,.05-.02.07-.04.03-.01.03-.04,0-.06-.02-.02-.04-.05-.04-.08,0,0,0-.01,0-.02h0ZM12.32,4.85s.02,0,.01.02c-.02.01-.05,0-.05,0,0,0,0,0,.02,0,0,0,.01,0,.02,0h0ZM13.2,4.91s-.05.01-.07.03c-.02.01-.03.04-.03.06,0,.02.03.03.04.05l.06.07s.02.03.04.05c.03.03.03.07.06.09,0,.02.02.03.03.05.02.02.04.04.07.03.02.01.03,0,.05-.01.02-.01.03-.04.02-.06,0-.02,0-.04-.02-.05-.01-.02-.03-.04-.04-.06-.01-.02-.03-.04-.04-.06-.02-.02-.04-.04-.05-.06-.03-.03-.05-.06-.09-.09-.02,0,0-.02-.03-.02h0ZM12.42,4.91s0,.03,0,.04c-.01,0-.05.02-.05.01s0-.02,0-.02c0,0,.01,0,.02-.01,0-.01.03-.02.03-.02h0ZM11.1,4.91s-.02,0-.04,0c-.03,0-.07.05-.08.08,0,.01,0,.02,0,.02s0,0,0,.02c0,.02.04.05.05.05,0,0,0,0,0,0s0,0,.01,0c0,0,.02,0,.03,0,0,0,.03,0,.04,0,.03,0,.04,0,.04-.01,0,0,.01,0,.01,0s0,0,.01,0c.01-.01.01-.02.01-.07,0-.04,0-.06,0-.06,0,0-.02,0-.04,0s-.04,0-.04-.01c0,0-.02,0-.03,0h0ZM12.52,4.94s0,0,0,.01,0,.01,0,.02l-.06.03s-.02,0-.02,0c0,0,.03-.05.05-.05.01,0,.02,0,.03,0h0ZM12.66,4.94s0,.02-.01.02h0s-.01,0-.02,0c0,0-.01,0-.02,0h-.01s.01-.01.01-.01c.01-.01.05-.02.06-.01h0ZM11.7,4.93s-.07.01-.11.02c-.03.01-.06.01-.08.03-.03.01-.05.03-.07.05-.02.01-.04.04-.04.06,0,.02,0,.05.02.06.02.01.05.01.08,0,.03,0,.05-.02.06-.04.02,0,.03-.03.06-.04.02-.01.04-.02.06-.02.02,0,.04-.01.06-.02.02,0,.05,0,.07,0,0-.02,0-.04-.02-.06-.02-.02-.03-.05-.06-.04,0,0-.03,0-.03-.01h0ZM10.48,4.97s-.01,0-.01,0c0,0,0,0,0,0s-.02,0-.04,0h-.05s-.01.01,0,.04c0,.04.01.08.03.1h0s.02.02.03.01c0,0,0-.01,0-.02s0-.02.01-.03c0,0,0-.01.01-.02,0,0,0-.02.02-.04s.02-.04.02-.04,0,0-.01,0h0ZM10.92,4.98s-.02,0-.02,0,0,.01-.01.01-.02.01-.02.02c-.02.02-.06.09-.06.11,0,.02.01.06.02.06,0,0,0,0,.01,0,0,0,.02.01.05.02.02,0,.07,0,.11-.01.03,0,.06-.03.07-.05,0-.01,0-.02-.02-.01,0,0-.02,0-.04,0-.03-.01-.03-.01-.03-.03,0-.02,0-.02-.01-.03,0,0-.01-.01-.01-.02s0-.01,0-.01c0,0,0-.01,0-.04.01-.02.01-.03,0-.03s-.02,0-.02,0h0ZM13.03,5.02s-.02,0-.02,0c-.02.02-.06.07-.06.08,0,0,0,.01.01.02s.02.03.04.05.03.04.03.04.01.01.02.02.02.03.05.06.04.04.04.05,0,0,0,.01,0,0,0,.01.01.02.03.03c.01.01.02.02.03.04,0,0,.02.02.04.04s.03.03.04.03c.03,0,.05-.03.06-.05,0-.03,0-.04,0-.05,0,0-.01-.02-.01-.02s0-.01-.02-.02-.01-.02-.01-.03c0,0,0-.01-.02-.02-.01,0-.02-.02-.02-.03,0,0-.01-.02-.02-.03,0,0-.02-.02-.02-.03,0,0,0-.02-.02-.02,0,0-.02-.03-.04-.05l-.05-.06s-.02-.02-.02-.03,0,0-.01,0-.01,0-.02,0-.01,0-.02,0h0ZM13.73,5.06s-.04.03-.06.02c-.02.01-.04.03-.03.06,0,.02-.02.05,0,.07.02.02.04.04.06.06.02.02.03.04.04.06.02.01.03.04.04.05,0,.02.03.04.03.06.02.02.03.03.04.05.01.02.03.04.03.07.02.02.02.06.05.07.03.01.07.02.09,0,.03,0,.04-.05.03-.07,0-.05-.03-.1-.06-.14-.02-.05-.05-.09-.07-.14-.01-.03-.04-.04-.06-.07-.01,0-.02-.02-.03-.03-.02-.03-.06-.06-.09-.09,0,0-.02-.01-.03-.02h0ZM10.51,5.07s-.02,0-.03.02c-.04.07-.06.19-.04.28.01.06.02.09.06.12.01.01.03.02.03.02,0,0,.02-.02.02-.03,0,0,0-.01,0-.02s0-.02,0-.03c0-.01.02-.07.03-.09,0,0,0-.02,0-.02,0-.01.03-.07.06-.13,0-.01.01-.02.02-.03,0,0,0-.01,0-.01s0-.01.01-.02c.01-.02.02-.04.02-.04,0,0-.01,0-.02,0-.02.01-.07.02-.07.01,0,0-.01,0-.03,0-.02,0-.03,0-.04-.01,0,0-.02-.01-.03-.01h0ZM11.85,5.09c-.07,0-.14.02-.2.03-.03.02-.06.04-.09.06-.02.02-.04.05-.02.08.01.02.04.03.06.03.03,0,.05,0,.08,0,.02-.02.04-.05.07-.07.03-.02.06-.04.08-.06,0-.03.05-.02.06-.04-.01-.01-.02-.02-.04-.03h0ZM12.89,5.11s-.03.01-.03.03c.01.03.03.05.05.08,0,0,0,0,0,.02s0,.02.01.03.02.02.02.03.01.02.02.03.01.02.01.03c0,.02.02.04.03.05,0,0,0,0,0,.02,0,0,0,.01.01.02,0,0,0,.01,0,.02s0,.03.02.04.02.03.02.04.01.02.03.03c.02.02.03.03.05.03.03,0,.03,0,.04-.01,0,0,0-.01.01-.02,0,0,0-.01,0-.04,0-.04-.02-.07-.04-.09,0,0-.02-.02-.02-.03-.02-.03-.05-.06-.08-.09-.02-.02-.04-.05-.04-.05,0,0-.06-.07-.07-.07,0,0-.01-.02-.03-.03s-.03-.03-.03-.04h0ZM11.26,5.1s-.06.03-.09.05c-.04.04-.08.08-.11.13-.02.03-.03.06-.04.09-.02.08,0,.15,0,.23.03.03.06.07.11.07.03,0,.07,0,.07-.04v-.17s.02-.08.03-.13c.02-.02.03-.05.05-.08.01-.03.04-.05.04-.08,0-.04-.02-.08-.07-.08h0ZM11.94,5.16s-.01,0-.03,0c-.02,0-.03,0-.04.01,0,0-.01,0-.01,0s0,0,0,0-.01.02-.03.03-.03.03-.03.03,0,0,0,0-.01,0-.02.02c0,0-.01.02-.02.02,0,0-.01.01-.02.02,0,.02-.01.05,0,.05,0,0,0,0,.02.02.01.02.03.03.06.03,0,0,.01,0,.01,0,0,0,.02,0,.04-.01.02-.03.04-.07.06-.11,0,0,0-.01.01-.02.02-.03.05-.07.05-.07,0,0,0-.01,0-.02,0,0,0,0-.01,0h0ZM10.76,5.17s-.04.01-.05.03c0,0,0,.01,0,.01s0,0,0,.01,0,.01,0,.01c0,0-.03.04-.04.07,0,.01-.01.03-.02.04,0,0-.01.02-.01.02s0,.02-.01.04c-.01.03-.02.09-.03.13,0,.04,0,.13.01.15.02.05.05.1.08.14.01.01.02.01.02,0,0,0,.01-.02.01-.05v-.1s.03-.09.03-.09c0-.01,0-.02,0-.03,0,0,0-.02.01-.04s0-.03.01-.03,0,0,0-.01c0-.04.02-.07.05-.1,0,0,.02-.02.02-.02,0,0,.02-.03.03-.04.01,0,0-.03-.02-.03s-.08-.05-.08-.06c0,0,0,0,0,0s0,0,0-.01,0-.01,0-.01h0ZM11.44,5.22s-.06,0-.08.02c-.03.04-.06.09-.08.14-.03.08-.02.17-.01.25,0,.03,0,.05.02.07.01.03.03.06.06.09.02.02.06.02.08,0,.02-.02,0-.05,0-.08,0-.09,0-.19,0-.28,0-.04.02-.07.04-.1.02-.03,0-.06-.01-.08,0-.01-.02-.03-.04-.03h0ZM13.58,5.25s0,0,0,0-.01,0-.03,0c-.02,0-.03,0-.03.01,0,0,0,.02-.01.03s0,.02,0,.02,0,.01-.01.02-.01.02-.01.02c0,.01.02.04.03.05,0,0,.01.01.02.02,0,.02.01.04.03.06,0,0,.02.03.03.05s.02.04.02.04c0,0,.02.02.02.03,0,0,0,.01.01.02s.01.02.01.02,0,.01.01.02c.01.02.03.04.04.06,0,0,.01.01.02.02,0,0,.01,0,.01.01,0,0,.04.03.08.04h0s.02,0,.03,0c0,0,.01,0,.02,0,.02,0,.03-.02.03-.07,0-.05,0-.07-.01-.08,0,0,0-.02,0-.02s0-.02-.01-.03l-.02-.04s-.01-.02-.02-.03c0-.01-.01-.02-.01-.03s0-.01,0-.01,0,0,0,0,0-.01-.01-.02-.02-.02-.02-.04-.02-.03-.03-.05-.02-.03-.02-.04,0,0,0,0,0,0,0,0-.02-.02-.04-.04c-.03-.03-.04-.03-.05-.03,0,0-.02,0-.02,0h0ZM12,5.23s0,0-.01,0c0,0-.02.01-.02.02,0,0-.01.02-.02.02-.02.02-.04.08-.04.1,0,0,0,0,.02,0,.02,0,.04.01.04.02,0,0,0,0,0,0,.01-.01.02-.03.03-.05,0,0,0,0,0-.01s.01-.02.02-.04.02-.03.02-.03c.01,0,0,0-.02-.02,0,0-.02-.01-.03-.02,0,0,0,0-.01,0h0ZM10.99,5.29s0,0-.02,0c-.01,0-.02.01-.02.01s-.02.01-.03.03-.03.03-.03.03,0,0,0,0,0,.01-.01.02c-.02.02-.06.11-.08.17-.04.12-.05.2-.02.31.01.07.02.08.04.1,0,0,.02.02.02.02,0,0,.04.05.06.07.01,0,.02.02.04.03h0s.02.01.02.01c0,0,.01-.02,0-.07,0-.04,0-.09,0-.13,0-.07,0-.09.01-.11l.02-.05s.01-.03.02-.05c.02-.03.02-.03.02-.07,0-.03,0-.05,0-.06-.02-.03-.01-.13,0-.23,0-.03,0-.03,0-.04,0,0,0,0,0,0h0ZM11.57,5.33s-.04.03-.05.06c-.02.02-.02.05-.03.07-.01.05-.02.11-.02.17,0,.05.02.11.03.16.01.05.03.09.06.13.03.01.05-.02.07-.04.04-.03.02-.08.02-.11,0-.06,0-.13,0-.19.01-.04.01-.08.03-.12.01-.03,0-.08-.03-.09,0,.01-.02.04-.04.04-.02-.02.03-.05-.01-.06-.01,0-.02,0-.03,0h0ZM13.44,5.42s-.03.06-.05.08c-.02.02-.04.03-.06.03-.03,0,0,.03,0,.04.02.03.04.07.06.1,0,.02.02.04.04.05.02.03.03.06.05.09.02.03.04.06.06.09.02.01.04.02.06.01.02,0,.02-.03.03-.04.01-.02.02-.05.02-.07-.02-.06-.04-.11-.07-.17-.03-.05-.05-.1-.09-.15-.01,0-.01-.02-.02-.03-.01-.01-.02-.04-.04-.04h0ZM11.85,5.44s-.06.02-.09.01c-.04,0-.05.03-.05.06-.03.1-.02.2-.02.31,0,.04.01.08.04.1.03.02.06-.02.08-.04.03-.04.02-.1.03-.15l.02-.22s.02-.05,0-.08h0ZM12,5.46s-.07,0-.08.02c-.02.02-.04.11-.04.23,0,.08,0,.18.02.2,0,0,0,.01,0,.02s0,.01,0,.02c.01.01.04,0,.06-.02.03-.04.03-.04.02-.2,0-.06,0-.08,0-.1,0,0,0-.02,0-.04s0-.04,0-.04c0-.01,0-.02.01-.04.01-.03,0-.05-.01-.06h0ZM12.06,5.51s-.01.01-.02.04c-.02.06-.02.15-.01.22,0,.03.02.07.04.08.01,0,.01,0,.02,0,0-.01.01-.02.01-.04,0-.03-.01-.11-.02-.12,0,0,0-.13,0-.15,0-.02,0-.02,0-.02,0,0,0,0,0,0h0ZM14.17,5.56s-.03.01-.06.05c-.02.03-.06.07-.09.09-.01,0-.02.01-.03.02,0,.01,0,.01,0,.01.02,0,.03,0,.05.01l.04.02s.03.01.05.02l.05.02s.03.01.06.02.05.02.06.02c.01,0,.05.01.14.06.03.02.06.03.06.04.01,0,.02.02.03.02.02,0,.04.03.06.04s.03.03.04.03c.02,0,.05.03.05.04,0,0,0,0,.01.01.02,0,.08.07.12.11l.11.11s.02.01.02.01,0-.02,0-.04c0-.03,0-.04-.02-.07-.01-.02-.03-.05-.04-.06-.09-.09-.19-.2-.28-.27l-.08-.06s-.09-.07-.15-.11c-.02-.01-.04-.03-.05-.04-.03-.02-.07-.05-.13-.09-.04-.03-.05-.03-.07-.02h0ZM13.27,5.58l-.02.02s-.02.02-.03.03c0,.01,0,.02,0,.03,0,0,0,.02.01.02,0,0,0,.01.01.02,0,0,.01.02.01.02,0,.01.06.1.06.1,0,0,0,.02.01.03l.02.04s0,.02.01.03c0,.02.01.02.03.02.01,0,.02,0,.02,0h0s.03,0,.04-.02c.03-.04.01-.09-.06-.19l-.03-.04s-.01-.02-.03-.04-.03-.04-.03-.04-.01-.01-.02-.03l-.02-.02ZM13.13,5.65s-.01,0-.02,0,0,.01.02.04c.01.02.02.04.02.04s0,0,.01.02c0,0,.04.05.04.06,0,0,0,.01.01.02,0,.01.01.02.01.04,0,.02,0,.03.04.04.02,0,.03,0,.03-.02,0-.02,0-.05-.03-.08l-.02-.04s-.01-.02-.02-.02,0,0,0-.01c0,0-.04-.05-.06-.06-.01,0-.02-.01-.03-.02h0ZM11.03,5.68s0,0-.01,0c0,0,0,.01,0,.02,0,.01,0,.02-.01.03l-.02.04s-.02.19,0,.22c.03.12.16.28.27.32h0s.02,0,.03,0c.01,0,0,0-.02-.06,0-.02-.02-.06-.03-.09-.01-.05-.01-.07-.02-.14v-.14s.01-.09.01-.09c0-.02,0-.04,0-.05,0-.02,0-.02,0-.02,0,0-.01,0-.01,0,0,0-.07.01-.1,0-.01,0-.03,0-.04-.02-.01,0-.02-.02-.03-.03,0,0-.01,0-.01,0h0ZM12.93,5.81s.07,0,.1.02c.04.02.06.04.06.05,0,0,0,.01.01.02,0,.01.02.02.02.04,0,.01.02.02.02.03s.02.02.02.03c.03.04.15.16.19.18,0,0,.02.01.03.03l.05.04.03.02s.01.01.03.02c.04.03.11.1.13.13l.02.03c.04.05.06.17.04.21-.01.02-.03.03-.07.03-.06,0-.1-.02-.15-.06-.02-.02-.03-.04-.04-.06-.01-.03-.02-.05-.06-.08-.02-.02-.05-.04-.06-.05-.03-.01-.08-.07-.09-.09,0-.02-.01-.02-.02-.01,0,.01,0,.03.02.05.02.03.02.03,0,.03-.01,0-.07-.05-.08-.07-.02-.04-.02,0,0,.04.02.04.07.09.1.08.02,0,.04.01.05.03,0,0,0,.02,0,.04s-.01.03-.01.04c0,.01.01.04.03.06.01.02.02.02.05.02.03,0,.04,0,.05,0,.01,0,.01,0,.04.01.01.01.02.02.03.02s.01,0,.02.01.02.01.03.01c0,0,.02,0,.03,0,.02,0,.12,0,.13,0,.01-.01.03-.02.05-.02.02,0,.02.02.01.05-.01.03-.03.04-.08.04-.04,0-.05,0-.08-.02-.04-.02-.05-.01-.02,0,0,0,.01,0,.02,0,0,0,0,0,0,0,0,0,0,.01,0,.01,0,0,.01,0,.01,0s0,0,.01,0c0,0,0,0,.01,0,0,.01.04.02.1,0,.05,0,.07,0,.11.03.03.02.03.03.07.1.04.08.05.11.05.17,0,.03,0,.05-.01.08h0c-.02.06-.03.06-.03,0,0-.04,0-.07-.03-.09,0-.01-.02-.02-.02-.02,0-.01-.03-.05-.05-.06l-.03-.02s-.05-.02-.08-.03c0,0-.02-.01-.04-.02l-.1-.08s-.02,0-.02,0c.01.03.03.05.05.07,0,0,.02.03.04.05.02.03.05.07.08.1.06.06.06.07-.02.02-.06-.03-.1-.05-.19-.07,0,0-.02,0-.03,0s-.03,0-.05-.01c-.05-.01-.08-.02-.13-.05l-.06-.03s-.12-.1-.16-.13c-.01-.01-.03-.04-.04-.06-.02-.03-.02-.03-.03-.03,0,0,0,0,0,.01,0,0,.05.1.06.12,0,0,.01.02.01.02s0,.01.01.02c.02.02.02.03,0,.03,0,0-.02,0-.02,0s-.01,0-.01,0,0,0-.01,0-.02-.01-.03-.02-.04-.02-.06-.04c-.04-.04-.12-.11-.12-.13,0-.01-.02-.02-.02-.02s.03.07.04.09c.01.01.05.08.05.08,0,0,0,0,0,0-.02,0-.14-.1-.18-.17-.04-.05-.06-.07-.06-.06s0,.04.02.07c0,.02.01.03.01.03,0,0-.02,0-.03-.02,0,0-.01-.02-.02-.03,0-.01-.02-.02-.02-.03,0-.01-.01-.02-.02-.03,0,0-.01-.02-.02-.04s0-.03-.01-.03c-.01-.01-.01-.03,0-.05,0,0,0-.01,0-.02-.02,0-.03,0-.02.05,0,.02,0,.04,0,.04-.01,0-.05-.05-.04-.06,0,0,0-.02-.01-.04s-.01-.04-.01-.05c0-.01,0-.02-.01-.03t-.02,0s-.02.04-.01.06c0,.02,0,.02-.02,0l-.02-.02v-.06c0-.06,0-.06.03-.11l.02-.06s.07-.11.1-.16c.02-.02.04-.05.06-.07l.04-.04s.09-.05.16-.08c.04-.02.09-.02.16-.02h0ZM11.27,5.8s0,.06-.01.09c0,.06,0,.12.01.17.01.09.03.17.08.25.03.04.06.08.09.11.04.03.1.04.14.06.05-.01.02-.07,0-.09-.04-.08-.09-.15-.1-.24-.02-.03-.01-.07-.02-.1-.01-.05-.01-.11,0-.17,0-.05-.04-.04-.06,0-.04.04-.07-.03-.09-.05-.01-.01-.03-.04-.05-.03h0ZM13.99,5.84s-.03,0-.04,0c0,.02.03,0,.04.02,0,.01.02,0,0,.02-.03,0-.06,0-.09,0-.02.01.02.01.02.01.01,0,.03.01.04.02.02,0,.03,0,.05,0,.02,0,.03,0,.05.02.02.02.05.01.08.02.03,0,.05,0,.08,0,.02,0,.04,0,.06-.02,0-.01.02-.03.02-.04,0-.02-.02-.03-.04-.04-.02,0-.02-.02-.04-.02-.04-.01-.08,0-.11-.02-.04,0-.08,0-.12,0h0ZM14.42,5.91s0,0,0,0c0,0,0,0,0,0s0,0,0,0,0,0,.01.01.02,0,.02.02c0,.01.04.04.09.08.02.01.03.02.03.03s0,0,0,0c.03.02.05.04.07.07,0,0,.01.02.03.03l.06.06.04.05s.01.02.02.02c0,0,.01.01.01.02s.01.01.02.03.02.02.02.03,0,0,0,0,.01,0,.01,0,.01.01.02.01c.02,0,.03,0,.05-.01s.02-.02.01-.04c-.03-.04-.28-.27-.31-.29,0,0-.02-.01-.02-.02s-.03-.02-.06-.05l-.06-.04s-.01,0-.03-.01-.03-.01-.03-.02-.01,0-.01,0h0ZM13.8,5.91s-.03,0-.05,0c-.03.01-.03.02-.02.02.03.02.04.03.05.03,0,0,0,0,0,0s0,0,0,0,.02,0,.03.02.02.01.03.01c0,0,.02,0,.02.01.02.02.05.03.08.04.02,0,.08,0,.09-.01,0,0,.01,0,.02,0,.01,0,.02-.02.03-.03,0,0,0,0-.02-.01h-.03s-.09-.05-.09-.05c0,0-.03,0-.07-.03-.03-.01-.05-.02-.07-.02h0ZM13.63,5.95s-.02,0-.02,0c0,0-.01,0-.02,0s-.02,0-.02,0c0,0,.01.02.02.02,0,0,.02,0,.03.02l.03.03.05.05s.05.05.07.05c.03,0,.07,0,.1-.02.02,0,.04-.03.04-.03-.02-.01-.05-.03-.07-.04,0,0-.02-.01-.04-.02s-.06-.03-.09-.04-.05-.02-.05-.02-.01,0-.02,0h0ZM14.38,5.98s.01.03.02.03c.01.03.04.04.06.07,0,.03-.04,0-.05,0-.02,0,0,.05-.03.03-.02-.01-.03-.03-.05-.04-.01,0-.02,0-.03,0-.02.01.02.02.03.04.02.02.05.05.07.08.01.02.04.03.05.05.02.03.05.06.07.09.04.05.08.09.12.13.02.02.06.02.09.03.03,0,.07-.03.08-.06,0-.02-.02-.04-.04-.06-.04-.04-.07-.08-.1-.12l-.13-.13s-.04-.03-.06-.05c-.02-.02-.04-.02-.05-.04-.02,0-.02-.02-.04-.03h0ZM12.06,5.97v.04s0,.07,0,.07c0,.03,0,.04-.01.02,0,0,0-.02-.01-.03,0,0,0-.03,0-.06v-.04s.02,0,.02,0h.02ZM13.52,6.01s0,.02,0,.04c0,.03,0,.04,0,.06,0,.01-.01.03-.01.03,0,.01.03.03.06.04.04.01.08.01.11,0,0,0,.02-.02.02-.02,0-.01-.03-.06-.06-.08l-.04-.03s-.06-.04-.07-.03h0ZM11.82,6.01s.01,0,.02.01c0,.02,0,.04,0,.05h0s0,.01,0,.01c0,0-.02-.03-.02-.05,0-.01,0-.02.01-.02h0ZM14.17,6.04s.02.04.03.05c0,.02.03.03.02.05-.02,0-.04-.03-.06-.04-.01,0-.06-.02-.04,0,.02.01.03.02.04.04.01.02.03.04.05.05.01.02.02.04.04.06.03.03.06.07.09.1.02.02.02.04.04.06.03.03.06.05.09.06.03.01.07,0,.08-.02.01-.03,0-.06-.03-.09l-.09-.11-.23-.21s-.02-.02-.03-.02h0ZM11.94,6.1s.02.03.01.06h0s-.01.03-.03-.02c0-.03,0-.03,0-.04,0,0,.01,0,.02,0h0ZM13.98,6.14s0,.02,0,.02c0,0,.05.04.08.07l.04.04s.02.02.02.03.02.02.04.04c.03.03.04.04.04.06.01.05.04.09.09.11h0s.02,0,.05,0h.03v-.02s-.04-.1-.06-.13c-.05-.06-.1-.11-.16-.16-.08-.07-.07-.07-.1-.06-.02,0-.02,0-.04,0,0,0-.02,0-.02-.01s0,0,0,0h0ZM13.93,6.18s0,.03.02.04c.02.02.02.04.04.05,0,0,.02,0,.02.02,0,0,0,.02,0,.03,0,.02-.02,0-.02,0-.01-.02-.03-.03-.05-.05-.01-.01-.04-.02-.05,0,.01,0,.03.01.04.02.01.01.03.02.04.03,0,.01.02.03.03.03.02.02.04.05.06.07.02.03.04.05.05.08,0,0-.03-.01-.04-.01-.02,0-.02,0,0,.02.02.02.05.04.07.05.02,0,.04,0,.06-.01.01-.01.01-.03.01-.05,0-.03-.02-.06-.04-.09-.01-.02-.03-.04-.05-.06-.02-.03-.04-.06-.07-.08l-.07-.07s-.02-.02-.04-.03h0ZM11.81,6.18s.03,0,.03.02h0s0,.02,0,.03v.02s-.01-.01-.01-.01c-.01-.02-.03-.05-.02-.06h0ZM13.83,6.29s.01.02.02.03c.02.03.04.07.05.1,0,.01,0,.03,0,.04-.02-.02-.04-.04-.07-.06-.02,0,0,.01,0,.02,0,.01.02.02.02.03,0,.02.01.04.01.06,0,.02,0,.04.02.05.02,0,.04.02.06.01.02,0,.05-.01.05-.03,0-.02,0-.03,0-.05,0-.01-.01-.02-.01-.03-.02-.03-.04-.07-.06-.1,0-.01-.02-.02-.03-.03,0,0,0-.02-.02-.03-.02,0-.02-.02-.04-.03h0s0,0,0,0ZM12.07,6.32s.01.02.02.04c0,.01.01.03.02.04s0,.01,0,.01,0,0,0,0c0,0-.04-.05-.04-.07,0-.02,0-.03,0-.02h0ZM11.88,6.41s.05.05.05.07c0,0,0,.01,0,.01,0,0-.02,0-.02-.02,0,0,0-.01-.02-.02-.02-.02-.02-.04,0-.05h0ZM12,6.44s0,0,0,0,0,0,0,0,0,0,0,0,0,.02.01.04.01.03,0,.03c0,0-.02,0-.02,0v-.02s-.04-.04-.03-.05c0,0,0,0,.01,0h0ZM13.33,6.53s0,0,.01.01c0,0,0,.02,0,.04,0,.03,0,.04.03.03.02,0,.02,0,.03,0,0,.02,0,.02-.02.03,0,0-.02,0-.02,0-.03,0-.07-.04-.06-.07,0-.02.03-.06.03-.06h0ZM12.21,6.54s.09.07.1.09h0s0,.01,0,.01c0,0,0,0-.01,0s-.02-.01-.03-.02c-.03-.02-.04-.03-.06-.05-.01-.02-.01-.03,0-.03ZM14.01,3.07s-.27,0-.28.01c0,0-.03,0-.07.01l-.08.02s-.04.01-.07.02c-.06.02-.09.03-.11.05-.01,0-.02.02-.04.02-.01,0-.04.02-.05.03l-.12.09s-.09.1-.12.14l-.05.06s-.06.1-.09.18c-.02.08-.03.26-.02.33,0,.02,0,.04,0,.06v.07s.02.14.02.14c0,0,0,.06,0,.12,0,.1,0,.11-.02.15l-.02.06s-.03.09-.06.13c0,0-.02,0-.05,0-.1-.02-.25-.03-.34,0l-.09.02c-.07.01-.16.04-.18.06,0,0-.02,0-.02,0,0,0-.03-.03-.05-.07,0-.02-.02-.04-.03-.04s0-.01,0-.02,0-.02,0-.03c0-.02-.02-.05-.03-.09,0-.02,0-.02,0-.05,0-.01,0-.03,0-.04,0,0,0-.03,0-.06,0-.08-.02-.23-.03-.29-.02-.07-.08-.23-.1-.25,0,0,0-.01,0-.02s0-.01-.02-.03-.02-.03-.03-.05c0-.02-.03-.04-.08-.08-.07-.06-.11-.09-.23-.15l-.1-.05s-.05-.03-.08-.04l-.05-.02s-.04-.01-.06-.02l-.09-.02s-.05-.01-.07-.02h-.07c-.07-.02-.14-.03-.17-.03-.01,0-.03,0-.03,0,0,0-.51.02-.56.03-.02,0-.07.01-.11.02h-.09s-.19.03-.19.03c-.02,0-.02,0-.04.02,0,.01-.01.02,0,.02s.01,0,.02.01.02.01.03.01c.01,0,.02,0,.03,0,.01,0,.02,0,.02,0s.01,0,.03,0c.03,0,.09.02.13.02h.09s.06,0,.06,0c.15,0,.2,0,.2,0,0,0-.02.02-.04.02,0,0-.01.01,0,.01.03,0,.07,0,.1,0,.02,0,.04,0,.05,0s.02,0,.03,0c.02,0,.03,0,.05,0,.02,0,.02,0,.02.02,0,.01,0,.02.01.02,0,0,.02,0,.02,0s0,0,0,0c0,.02.03.02.1.02.08,0,.09,0,.07.02,0,0,0,.01,0,.02,0,0,.01,0,.02,0s.03,0,.04,0c.03,0,.03,0,.05,0,.03,0,.06,0,.09,0h.02s-.02.02-.02.02c0,0-.01.01-.02.02,0,0,.01,0,.02,0,.02,0,.09,0,.13.01.02,0,.07.03.07.04,0,0,0,0-.01,0-.01,0-.03.01-.03.02,0,0,0,0,.01.01,0,0,.02,0,.03.01.01,0,.06.02.1.03s.04.03,0,.05c-.02,0-.02.01-.01.02,0,0,.05.03.07.04.01,0,.03,0,.03.01,0,0,.02.01.03.02.02.01.04.03.04.04,0,0,0,0,0,0s-.01,0-.02,0c0,0-.02,0-.03,0s-.02,0-.02,0c0,.01.04.06.07.06.01,0,.02,0,.03.01,0,0,.02,0,.03.01.02,0,.03.02.02.03,0,0-.01,0-.02,0-.02,0-.02.01,0,.03,0,0,.01.02.01.02s0,0,.01.01.01.01.01.01,0,0,0,0c0,0,.06.04.06.05,0,0,0,.01-.02.02s-.02.02-.02.03c0,.02,0,.05.02.07,0,0,.01.01.02.02,0,0,0,.01.02.02s.03.02.04.03.02.01.02.01c.01,0,0,.02-.01.04,0,0-.02.02-.02.03,0,.03.02.08.05.09,0,0,.01,0,.01.01,0,0,0,0,.01,0,.01,0,.03,0,.03.02,0,0,0,.01-.01.02-.01.01-.02.03-.03.05-.01.03-.01.04,0,.05,0,0,0,.02,0,.02s0,.01,0,.02c.01.01.03.01.04,0,0-.01,0-.01.02,0,0,0,0,.02,0,.03,0,0,0,.02,0,.02,0,0,0,0,0,.02s0,.02,0,.02,0,.01.01.02c0,.02.02.02.03,0,0,0,0,0,.01,0,0,0,0,0,0,.02,0,.02,0,.02.01.03,0,0,.01.01.01.02,0,.01.01.03.02.03,0,0,0,0,0-.01s0-.02,0-.02,0,0,0-.01c0-.02.01,0,.02.01.02.05.02.06.04.06,0,0,.01,0,.01,0,0,0,.02,0,.02,0,0,0,0-.02,0-.02,0,0,0-.01.02-.01s.01,0,.02.02c0,.02,0,.03.03.07,0,.01,0,.03,0,.03,0,.01,0,.01.02,0,.01,0,.02,0,.02,0,0,0,0,.02-.01.04l-.02.03s-.06.07-.07.07c0,0,0,0,0,0s0,.01-.02.02c-.02.02-.02.03,0,.03,0,0,.02,0,.04.02.02.01.03.02.03.03,0,0,0,.01,0,.02,0,0,0,.05,0,.12,0,.05,0,.06.01.11l.02.07s0,.02.01.03c.01.02.01.02,0,.04,0,0-.02.02-.02.03s-.01.02-.02.03-.01.02-.01.02c0,0-.02.02-.03.02-.02,0-.05,0-.07.03l-.03.03s-.02.01-.04.02c-.02,0-.03,0-.04,0-.02-.02-.03-.03-.03-.04,0,0,0,0-.02,0-.01,0-.02,0-.04.01-.03.02-.06.04-.07.04,0,0-.02-.01-.04-.03-.03-.03-.03-.03-.05-.02,0,0-.02,0-.03.01h-.02s-.01.02-.01.03c-.01,0-.03,0-.03,0,0-.02-.03-.03-.04-.02-.02,0,0,.13.02.22,0,.03.04.09.06.12,0,.01.01.03.02.04,0,0,.02.04.04.06s.04.05.04.07c.02.05.07.11.09.11,0,0,.01,0,.01,0,0,0,.1.05.13.06h.05s.04.02.04.02c.03,0,.04.01.07.03.04.02.08.03.16.03.11.01.12.01.22.07.03.02.08.04.1.05l.07.02s.03,0,.03,0,.02,0,.04.01l.06.03.08.04s.1.04.14.04c.02,0,.05,0,.07,0,.02,0,.04,0,.04,0s0,0,.01,0c.02.01.13.05.19.06l.08.02.09.02.1.02c.07.02.21.1.24.14.01.01.04.03.05.03,0,0-.02-.08-.03-.08,0,0-.02-.02-.02-.04-.01-.02-.02-.04-.04-.06-.01-.02-.02-.03-.02-.04,0,0,0,0,.03,0s.08.1.09.16c0,.02.01.05.02.07s0,.03,0,.03c0,0,0,0,0,0h0s.06,0,.06,0h0s-.03,0-.03,0c0,0,.01-.04.03-.08l.04-.08v-.07c0-.06,0-.07-.02-.12-.01-.04-.03-.06-.04-.09-.01-.02-.02-.03-.02-.04,0,0-.05-.05-.09-.08-.03-.02-.04-.04-.04-.05,0,0,0-.01,0-.02-.02-.03-.02-.06-.03-.13,0-.13-.04-.2-.13-.29-.03-.03-.05-.05-.1-.09-.02-.02-.08-.05-.08-.05,0,0-.02-.01-.04-.03s-.04-.03-.04-.03c0,0-.05-.04-.09-.08-.03-.04-.07-.08-.1-.13-.01-.02-.05-.09-.05-.09,0,0,0-.02-.02-.04-.01-.02-.02-.05-.03-.07,0-.02-.02-.04-.02-.04s0-.01-.01-.03,0-.03-.01-.03,0-.01,0-.02c0-.03-.04-.13-.06-.19,0-.02-.01-.04-.01-.04s0,0,0,0c0,0-.02-.03-.02-.04,0,0,0-.02-.02-.03-.01-.01-.02-.02-.03-.04,0,0-.01-.02-.02-.02s0,0,0,0,0,0,0,0,0-.01-.02-.03-.02-.03-.02-.03,0,0-.01-.02,0-.02-.01-.02,0-.01.03-.02c.04-.02.07-.05.09-.07.01-.02.02-.02.02,0,0,.01.02.01.04-.01.01-.01.02-.02.02-.03,0,0,0-.02,0-.02,0,0,0,0,.01-.01,0,0,0,0,.02,0,0,0,0,0,0,.01s0,0,0,0,.02-.02.03-.04c.03-.05.04-.06.06-.06.02,0,.03-.02.05-.05.02-.04.03-.11.02-.12,0-.01,0-.03,0-.03,0,0,.01,0,.02,0,.02,0,.03,0,.04-.02.01-.02.02-.09,0-.13,0-.02,0-.04,0-.05,0-.02,0-.02,0-.02.03,0,.05-.01.06-.02,0,0,0-.06,0-.07,0,0-.02-.02-.02-.03,0,0,0,0,.03,0,.03.02.04.02.05,0,0-.03,0-.11-.03-.14,0,0,0-.01,0-.02,0-.02,0-.02.05,0h.03s.01,0,.01,0c0,0,.01-.02.01-.04,0-.05,0-.06-.02-.08-.02-.03-.03-.03-.02-.03,0,0,.01,0,.02,0s.02,0,.02,0,.01,0,.02,0c.01.01.02,0,.03-.02.02-.04.01-.1-.02-.16,0,0,0-.02,0-.02,0,0,.01,0,.03,0,.01,0,.02,0,.03,0,0,0,.01,0,.02,0s.03.01.05.02c.05.01.1,0,.12-.01.01-.01.01-.01,0-.04,0-.04-.02-.07-.05-.1-.04-.04-.07-.07-.07-.09,0,0,0,0,.02,0,.01,0,.03.02.07.05l.05.05s.03.04.04.04c0,0,0,0,0,0s0,0,.02.01c.01,0,.03.01.05.01.04,0,.04,0,.06-.02.02-.02.02-.02.02-.05,0-.02,0-.04,0-.05,0-.02,0-.03,0-.03,0-.01.03,0,.04,0,.02.03.07.04.1.03.03,0,.04-.06.02-.09,0,0,0-.01,0-.01s0,0-.01-.01c-.01,0-.04-.06-.04-.06s.04,0,.05.01c0,0,.01.01.02.01.02,0,.09.01.11,0,0,0,.01,0,.02,0s.02,0,.02,0c.01,0,.05-.01.06,0,0,0,.02,0,.03,0h.05s.04.01.04.01c.01,0,.02,0,.03,0,.01,0,.03,0,.04,0,.02,0,.03,0,.05,0,.01,0,.03,0,.04,0h.04s.05-.01.08-.02h.05s.02,0,.02,0c.01,0,.02,0,.04.01,0,0,.02,0,.03.01s.02.01.03.01c.02,0,.05,0,.05.01s.02,0,.09.02c.02,0,.04,0,.05,0,.01,0,.05,0,.09.01.02,0,.03,0,.05,0,.02,0,.07,0,.11,0h.09s.02,0,.03.02c0,.01.02.02.02.02,0,0,.02,0,.03.01,0,0,.02.01.03.01,0,0,.01,0,.02.01s.03.02.04.02h.04s.03.02.04.03.04.01.05.02.02,0,.02,0,.01,0,.02,0c.01,0,.02,0,.02,0,0-.01,0,0,.02,0,0,0,.02.01.03.02.02,0,.02,0,.02,0,0,0,0,0,.01,0,.01.02.04.03.06.03,0,0,.02,0,.03,0,.03.01.04.01.06.02,0,0,.02,0,.02,0s.01,0,.02,0,.01,0,.02,0,.03,0,.04.01.02,0,.02,0,.02,0,.03,0h.04s.09,0,.12,0c0,0,.02,0,.03-.02,0,0,0,0,.02-.01.01,0,.03-.03.03-.04,0-.02,0-.03-.02-.04-.01,0-.02-.01-.04-.02-.02,0-.03-.01-.05-.02-.01,0-.03,0-.03-.01s0,0,0,0,0,0,0,0,0,0-.01,0-.02,0-.02,0-.01,0-.03-.01-.03,0-.04-.02-.01,0-.02,0c-.01,0-.06-.02-.07-.02,0,0-.02,0-.03-.01s-.04-.01-.06-.02c-.06-.03-.09-.04-.1-.04s-.07-.02-.08-.02c0,0-.03-.01-.05-.02l-.09-.03s-.03,0-.04,0-.02,0-.02,0,0,0,0,0,0,0,0,0c0,0,0,0-.04-.01,0,0-.02,0-.02,0,0,0-.02,0-.03,0-.01,0-.03,0-.04-.01s-.03-.01-.04-.01-.02,0-.02,0,0,0-.01,0c-.01,0-.02,0-.03-.01-.01,0-.02-.01-.04-.02,0,0-.03,0-.04-.01s-.03-.01-.04-.01c-.02,0-.04-.01-.05-.02,0,0-.01,0-.02,0s-.02,0-.03,0-.02,0-.03,0-.03,0-.05-.01-.04-.01-.05-.01,0,0-.01,0c0,0-.02,0-.02-.01-.01,0-.02,0-.02,0,0,0-.02,0-.03,0-.01,0-.02,0-.04-.01,0,0-.02,0-.02,0-.05,0-.08-.02-.09-.02-.02,0-.06-.02-.08-.02,0,0-.02,0-.02,0h-.03s-.03-.02-.03-.02c-.01,0-.04-.01-.08-.02-.01,0-.02,0-.02,0,0,0-.03-.01-.07-.02h-.05s-.08-.03-.08-.03c-.02,0-.05-.01-.08-.01-.02,0-.04,0-.06-.01,0,0-.02,0-.04,0h-.08s0,0,0,0Z"/>
      <path class="cls-8" d="M9.29,5.54h0c-.09,0-.24.02-.32.05-.07.02-.17.08-.19.09,0,0-.02.02-.04.03-.03.02-.06.05-.09.1-.04.05-.04.08-.05.15,0,.1.01.15.09.23.04.04.07.08.1.12l.06.08s.03.04.03.05-.03.03-.09.06l-.07.04-.07.04-.12.07-.11.07-.06.04s-.04.02-.06.03c-.02,0-.06.04-.1.06l-.08.06s-.03.02-.05.03-.03.02-.04.02-.02.01-.04.03-.04.03-.04.03c-.02,0-.22.21-.24.25l-.03.06c-.04.07-.07.14-.09.21,0,.02,0,.03,0,.05,0,.01,0,.03,0,.04,0,.03,0,.06-.01.08,0,.04,0,.08,0,.12.02.11.08.26.12.32,0,0,.02.04.03.06.03.06.06.1.1.13l.06.04s.04.03.06.03c.04.02.08.04.08.05,0,0,0,.01-.02.02l-.1.09-.16.13s-.02.02-.04.03c-.01.02-.03.03-.05.04-.03.02-.09.09-.11.14-.04.08-.04.14-.02.2.01.03.03.07.05.08,0,0,.01.01.02.02.01.02.03.05.04.07.02.03.04.07.04.09.02.06.02.1.02.13,0,.02,0,.04,0,.04,0,0,0,.02,0,.03,0,0,.01.06.03.12.03.11.05.14.09.16.02,0,.03.01.11,0,.07,0,.1-.01.13-.02l.07-.02.1-.03s.02,0,.05.01.04.03.08.05c0,0,.03.02.04.03.02.01.03.03.05.04.04.03.1.09.11.11l.03.06s.02.04.03.06c.04.1.1.17.15.16,0,0,.03,0,.06,0s.05,0,.07-.01c.01,0,.02,0,.04-.01.02,0,.11-.03.17-.04.02,0,.05-.02.07-.03.04-.02.09-.03.09-.03,0,0,0,0,.01,0,.02-.02.05-.03.07-.04.02,0,.04-.01.04-.02,0,0,.02-.01.03-.02.02,0,.04-.01.09-.05.02-.01.05-.03.05-.03s.02,0,.04-.02l.03-.02s.06-.03.09-.05l.09-.06.11-.07s.03-.02.03-.02.02,0,.03-.01l.12-.07s.03-.02.04-.03.06-.04.1-.06l.08-.05s.02-.02.04-.02.03-.02.04-.02.03-.02.05-.03.06-.03.09-.05l.09-.06s.06-.04.07-.05.03-.02.04-.03.03-.02.05-.03l.08-.06s.05-.02.07-.04c0,0,.03-.02.04-.03l.2-.12s.03-.02.05-.03l.05-.03s.02-.02.03-.02c.01,0,.03-.02.04-.02,0,0,.02-.01.03-.02,0,0,.01,0,.02,0,0,0,.01,0,.02,0s.03-.01.05-.03l.08-.04.06-.03.05-.02.06-.03.06-.03.09-.04c.07-.04.11-.05.12-.04,0,0,0,.02,0,.05,0,.04-.01.06-.04.11,0,.01-.01.03-.01.04s0,.02,0,.02,0,.02-.01.03c-.02.05-.04.11-.07.16,0,0-.03.06-.06.12l-.02.04s-.02,0-.03,0c-.03,0-.05,0-.08,0-.03,0-.06,0-.06,0s-.06,0-.12,0c-.14,0-.3.02-.36.04-.02,0-.05.01-.06.01-.03,0-.14.04-.21.08-.1.06-.15.16-.1.25.03.05.13.16.19.2.05.03.3.29.33.34.02.03.07.07.1.09.04.02.07.02.16-.01.16-.05.32-.12.47-.21l.09-.05s.14-.09.16-.11c0,0,.05-.04.09-.06.1-.07.15-.12.24-.21l.09-.09s.05-.05.11-.12l.12-.14c.08-.08.18-.23.29-.41l.09-.14.05-.08.05-.08.03-.05s.01-.02.02-.03l.02-.04.03-.04s.03-.05.03-.07l.13-.3.04-.08.09-.21.05-.12.07-.16s0-.03.09.04c.02.02.05.04.07.05.03.02.14.07.18.09.06.02.15.04.21.05h.07s.11.03.19.02h.13c.11,0,.21-.01.32-.03.08-.02.19-.05.22-.07.02-.01.04-.02.07-.03.05-.02.11-.05.18-.09,0,0,.02,0,.02,0s.01,0,.02,0c.07-.04.18-.09.26-.12l.06-.02.15-.06.06-.02s.03,0,.04-.01l.08-.02.31-.08.09-.02s.04,0,0,.03c-.08.05-.24.21-.3.29l-.06.08s-.03.04-.03.05c0,.01,0,.01-.05.02l-.21.03-.09.02s-.07.01-.1.02c-.08.02-.27.09-.31.1l-.09.04-.1.04s-.23.11-.29.14l-.08.04-.08.05-.05.03-.04.02-.05.02s-.04.02-.05.03-.03.02-.04.02-.04.02-.07.04l-.06.04s-.02.02-.03.04c-.03.04-.03.06-.02.1,0,.02.06.12.1.18.03.05.05.1.06.15.02.09.03.13.03.13,0,0,0,.02,0,.04,0,.03,0,.03,0,.04,0,0-.01,0-.13-.04-.01,0-.03-.01-.04-.01-.01,0-.03-.01-.05-.02-.01,0-.03-.01-.04-.02,0,0-.02,0-.03-.01s-.02-.01-.03-.01c-.01,0-.03-.01-.04-.02-.01,0-.02-.01-.04-.02,0,0-.02-.01-.03-.02s-.03-.02-.03-.02-.05-.02-.11-.05l-.11-.05s-.02,0-.04-.02c-.08-.04-.16-.06-.2-.04-.03.01-.07.06-.07.08,0,0-.01.03-.02.05s-.02.05-.02.07c0,.01-.01.02-.01.04,0,.02-.07.14-.1.18l-.06.08s-.02.03-.03.04c0,0-.02.04-.04.06-.02.05-.02.05-.02.08,0,.05.02.08.07.13.03.03.06.06.09.1l.06.08s.03.04.04.06.04.06.05.08.04.05.05.07.02.04.04.06.03.05.04.06c.03.05.05.07.09.08.02,0,.06,0,.08.01.1,0,.26.06.38.12.08.04.08.04.1.03,0,0,.03-.02.06-.04s.1-.06.17-.11l.13-.08h.06s.07,0,.09,0c.01,0,.05.01.07.02.04,0,.08.01.12.02l.11.02h.06s.05.02.07.02.05,0,.06,0,.05,0,.08,0h.1s.24.01.24.01c.06,0,.09,0,.08.02,0,0-.02.02-.04.03s-.05.03-.05.04c-.01.01-.02.02-.04.03-.08.05-.2.19-.24.27-.03.06-.02.07.02.04.03-.02.07-.05.1-.07,0,0,.02-.01.03-.02.01,0,.02-.02.04-.02l.09-.04c.11-.05.11-.05.12-.04,0,.01,0,.02-.03.04-.05.03-.13.1-.16.14l-.05.07s-.08.14-.08.14h0s.06,0,.08-.03c.01-.01.16-.08.21-.1.07-.03.1-.03.23-.05.15-.02.26-.01.47,0,.37.03.53-.01.65-.19.02-.03.04-.08.04-.12,0-.02,0-.04.01-.05,0-.02,0-.04.01-.1,0-.08,0-.1-.04-.2l-.03-.08s-.01-.13,0-.16c0-.02,0-.05,0-.08,0-.12-.05-.18-.14-.21-.05-.02-.15-.04-.21-.05-.02,0-.04,0-.06-.01-.03,0-.12-.02-.27-.03h-.12s-.1-.01-.1-.01c-.02,0-.06,0-.09,0-.03,0-.06,0-.09,0-.01,0-.06,0-.1,0h-.1s-.04,0-.06,0c-.03,0-.06,0-.09,0-.03,0-.06,0-.09,0-.05,0-.05,0,0-.05.05-.04.09-.09.11-.12.01-.03.01-.08,0-.11-.01-.02-.05-.06-.09-.08l-.04-.02s-.12-.07-.15-.09l-.04-.03s-.01,0,0-.02c0,0,.01,0,.02-.01.01,0,.02,0,.07-.03.01,0,.04-.02.06-.02s.04-.02.06-.02.04-.02.06-.02l.06-.02s.03-.01.04-.01c.01,0,.02,0,.03-.01,0,0,.05-.02.08-.02l.11-.03s.04-.01.04,0,.02.02.03.05c.03.04.05.07.1.13.03.04.14.12.2.15.11.07.2.07.38,0,.02,0,.06-.02.08-.03.07-.03.14-.05.21-.07,0,0,.03,0,.05-.02.03-.01.04-.01.11-.03.02,0,.05-.01.06-.02.02,0,.1-.02.25-.04.09-.01.14-.03.17-.05.02-.01.09-.07.1-.09.02-.02.03-.08.03-.12,0-.03,0-.09-.02-.12,0-.02,0-.03-.01-.05,0-.02-.01-.03-.02-.05-.01-.02-.03-.07-.05-.12,0-.02,0-.06-.01-.1,0-.11-.03-.2-.07-.23-.03-.02-.06-.03-.09-.03,0,0-.02,0-.02,0-.03-.01-.07-.02-.12-.02h-.12s-.15-.02-.15-.02h-.13s-.11-.02-.11-.02h-.08s-.09,0-.09,0c-.05,0-.06,0-.06-.01,0,0,0-.02.01-.02.1-.07.17-.1.24-.11.11-.02.15-.03.32-.07.03-.01.07-.02.1-.04.05-.02.06-.03.09-.06.04-.04.04-.06.04-.13,0-.05-.02-.09-.06-.15,0-.01-.01-.02-.02-.03,0,0-.02-.03-.02-.04-.04-.05-.06-.11-.08-.17,0-.02-.02-.05-.03-.08l-.03-.08s-.07-.09-.1-.1c-.02,0-.04-.02-.07-.02l-.14-.03s-.02,0-.05,0c-.05,0-.12,0-.16,0-.05,0-.11,0-.13,0-.03,0-.17,0-.25,0l-.34.04s-.18.03-.21.04l-.11.03c-.13.04-.25.07-.33.11l-.12.06s-.03.01-.03.01c-.01,0-.39.23-.4.25,0,0-.03.02-.04.03l-.14.09-.1.06-.09.05-.07.04-.08.04s-.05.03-.08.03l-.2.06-.06.02-.07.02s-.08.02-.08.01c0,0,0,0,0,0h-.04s0,0,0,0c0,0-.02,0-.05,0h-.05s-.03.02-.03.02c-.04.04-.19.22-.29.34l-.11.13-.1.1-.11.11-.11.12-.18.19-.05.05s-.04.04-.05.05c-.02.02-.03.03-.05.05t-.03-.05v-.08s-.02-.05-.02-.05c-.02-.04-.03-.05-.05-.07-.04-.03-.07-.05-.09-.06-.08-.04-.17-.12-.2-.18-.01-.02-.03-.05-.04-.07s-.03-.05-.05-.08c-.04-.06-.07-.09-.13-.11-.03,0-.05-.01-.07,0l-.07.02s-.1.02-.2.06c-.04.01-.09.03-.13.05l-.08.04-.08.04-.08.04-.08.04s-.03.02-.05.03c-.08.04-.32.18-.46.28l-.4.25-.2.12-.09.05-.05.03-.1.06-.09.06s-.02.02-.04.03l-.06.04-.12.07s-.01,0-.01,0-.01.01-.02.02l-.03.02s-.08.04-.12.06c0,0-.01,0-.02.01-.02.01-.03.02-.05.03-.02,0-.04.02-.05.03,0,0-.02.02-.04.02s-.05.03-.09.05l-.1.06s-.03.02-.04,0c0,0,0-.03,0-.09v-.25s.01-.11.01-.11v-.02s-.03-.03-.04-.03c-.01,0-.08-.02-.12-.02-.02,0-.04,0-.04,0s.01-.02.03-.03.03-.02.03-.03.02-.01.03-.03.04-.03.05-.04.02-.02.04-.03c.02-.01.04-.03.06-.04l.15-.11.06-.04.04-.03s.05-.03.07-.04c.04-.03.08-.06.13-.08l.08-.04.13-.07.05-.03s.06-.03.25-.06l.1-.02s.18-.02.36-.03l.54-.06s.19-.04.24-.06c.02,0,.03,0,.05-.01.01,0,.05-.02.15-.06.02,0,.04-.02.05-.03.01-.01.03-.02.04-.03.01,0,.03-.02.05-.03s.03-.02.03-.02,0,0,.01-.01.02-.02.03-.03c.04-.03.05-.05.08-.09.04-.05.04-.06.04-.12,0-.07-.02-.1-.09-.15l-.07-.05s-.05-.04-.07-.05c-.03-.02-.13-.1-.14-.12,0,0-.02-.02-.02-.03-.01-.02-.02-.03-.03-.05-.03-.05-.1-.12-.14-.16-.04-.03-.08-.05-.15-.06-.05,0-.13,0-.15,0,0,0-.03,0-.04.01-.08.01-.21.05-.3.08l-.07.03-.26.1s-.03.01-.05.01c-.02,0-.03,0-.05.02l-.09.04-.11.04-.13.06-.14.06-.09.04c-.11.05-.21.11-.31.18-.02.01-.04.03-.07.04-.02.01-.05.03-.06.03s-.05.03-.08.05l-.12.07-.08.04s-.04.02-.05.03c-.03.02-.05.04-.08.06-.03.02-.08.05-.11.07-.04.03-.07.05-.11.08l-.15.11-.04.04-.15.11s-.08.01-.1,0c-.04,0-.09-.03-.1-.05-.03-.04-.05-.1-.03-.16.03-.1.04-.14.08-.19.03-.03.09-.09.13-.12l.07-.05.05-.04s.02-.01.03-.02c0,0,.02,0,.02-.01l.06-.04.1-.07s.02-.01.03-.02c0,0,.02,0,.02-.01s.04-.02.06-.04l.11-.07.18-.1s.03-.02.04-.02c.01,0,.03-.02.03-.02s.01,0,.02,0c0,0,.16-.09.22-.12.02,0,.1-.06.13-.09.05-.04.1-.09.11-.11,0-.01.02-.03.02-.04,0-.01.01-.03.01-.07,0-.05,0-.1-.01-.15,0-.03-.01-.08-.02-.18,0-.04,0-.06,0-.09,0-.02,0-.05,0-.07,0-.02,0-.04,0-.05,0,0,0-.03,0-.05,0-.06.02-.11.03-.16,0-.03.03-.13.03-.17s0-.07-.03-.12c-.02-.04-.03-.06-.06-.08-.03-.02-.09-.05-.12-.06l-.1-.03s-.02,0-.02,0c-.01,0-.03,0-.06-.01h0ZM9.21,5.6s.03.04.04.17c0,.02,0,.03,0,.03-.01,0-.03-.02-.03-.04,0-.03-.02-.05-.03-.08l-.02-.07s.03-.02.04-.02h0ZM9.32,5.61s.02,0,.03.02c.01.04.03.08.04.13l.03.12.03.14v.05s0,.02,0,.02c-.01.01-.02.02-.03.02,0,0-.02-.03-.03-.08l-.04-.13c-.03-.08-.04-.11-.03-.12,0,0,0-.02,0-.02s0-.03,0-.05,0-.05,0-.06c0-.03,0-.04.03-.04h0ZM9.08,5.62s.03.02.05.1c.02.06.02.07,0,.08s-.01,0-.03,0c-.01-.01-.05-.08-.08-.13,0-.02,0-.02.03-.03,0,0,.02,0,.03,0ZM9.42,5.63s.04.01.05.06l.02.07c.02.07.03.16.04.2,0,.03,0,.04,0,.05-.01.01-.02.02-.02,0-.02-.07-.03-.14-.05-.21,0-.04-.01-.07-.02-.11-.02-.07-.02-.08,0-.08h0ZM8.95,5.66s.06.09.06.1c0,0,0,.02.01.02,0,.01.02.06.02.15,0,.03,0,.03,0,.03,0,0-.01,0-.01-.02s-.02-.04-.03-.06-.03-.06-.04-.08c0-.02-.02-.04-.03-.06-.03-.04-.04-.07-.04-.08.02-.01.04-.02.06-.02h0ZM9.54,5.68s.05.04.06.08c0,.03,0,.09,0,.11,0,0-.01.02-.02.03,0,.01-.01.01-.01,0-.01-.04-.02-.09-.02-.1,0,0,0-.02,0-.03s0-.04-.01-.06c0-.03,0-.04,0-.04h0ZM8.83,5.72s.01,0,.02,0c0,0,0,.02.01.03s.01.02.01.03.02.03.03.06l.05.09.05.09s.02.05.02.05,0,0-.02.01c-.03.02-.04.02-.05,0,0,0-.02-.03-.03-.05l-.04-.07-.04-.08-.04-.08s-.02-.04,0-.05c0,0,.01-.01.02-.01h0ZM8.74,5.79s.02,0,.02,0,0,.01.01.02.02.03.03.05.02.05.03.05c.02.03.08.16.08.18,0,0,0,0,0,.01h0s-.04.01-.06,0c-.01-.02-.02-.03-.03-.05l-.02-.04c-.03-.06-.09-.17-.09-.18,0-.02.02-.04.03-.04h0ZM8.67,5.92s0,0,.01.02.02.04.04.08.04.07.04.08c0,.03,0,.03-.04.01-.03-.01-.06-.05-.07-.07-.01-.02-.01-.11,0-.12,0,0,0,0,.01,0h0ZM9.27,6.02s.02,0,.02.03c0,.02,0,.02-.02,0s-.01-.03,0-.04ZM9.2,6.07s.02.02.05.11c.01.03.01.04,0,.05-.02.02-.03,0-.07-.08,0-.02-.02-.04-.02-.04,0,0,0-.03.02-.03,0,0,.01,0,.01,0h0ZM9.34,6.1s.02.04,0,.06c-.01.01-.01,0-.01-.03,0-.02,0-.03,0-.03ZM9.11,6.12s.02.01.03.03c0,.02.01.05.02.07l.02.05s0,0,0,0c-.01,0-.03-.01-.05-.06l-.02-.05s0-.01,0-.02c0-.01,0-.02.01-.02,0,0,0,0,.01,0h0ZM9.01,6.16s.06.08.08.13c0,.03,0,.04-.01.02-.01-.01-.06-.08-.07-.11-.01-.02-.01-.04,0-.04h0ZM8.92,6.18h.01s0,.01.02.03.02.03.02.03c0,0,.06.12.06.12h0s-.04,0-.07-.06c-.01-.02-.02-.04-.04-.06-.03-.03-.03-.06,0-.06h0ZM8.81,6.2s.02,0,.02.02c.03.03.12.17.12.18,0,.01-.01,0-.04-.01-.03-.03-.12-.15-.12-.17,0,0,0-.01.01-.01h0ZM17.12,6.41s.09.03.11.05c.03.04.05.12.03.13-.01,0-.02,0-.03,0-.02,0-.04,0-.04-.02,0-.01-.04-.06-.05-.06-.04,0-.08.03-.07.06,0,.02.03.04.05.06.01,0,.03.02.04.03s.03.03.04.03c.02.02.05.07.05.11,0,.02,0,.03,0,.05,0,.02-.04.07-.06.07-.02,0-.09.01-.12,0-.05,0-.09-.05-.11-.13,0-.04,0-.04.03-.05.03,0,.05,0,.05.01,0,.01.03.06.05.07.04.02.06,0,.06-.04,0-.02,0-.03-.03-.05-.02-.02-.04-.03-.05-.04-.02-.02-.04-.03-.07-.07-.03-.04-.03-.05-.02-.11.01-.06.08-.11.15-.11h0ZM16.87,6.43s0,.02,0,.05v.04s-.07.01-.07.01h-.07s0,.11,0,.11v.28s-.04,0-.04,0c-.02,0-.04,0-.04,0,0-.01-.02-.18-.02-.29,0-.04,0-.08,0-.08,0,0-.01-.01-.06-.01-.08,0-.07,0-.08-.04,0-.02,0-.04,0-.04s.02,0,.04,0h.05c.06-.01.26-.02.26-.02h0ZM16.4,6.44h0s.01,0,.02,0c.01,0,.01.02.02.1v.13s.02.09.02.09v.12s.02.08,0,.09c0,0-.02.01-.04.01-.03,0-.03,0-.04-.05,0-.06-.02-.13-.02-.15v-.02s-.05,0-.05,0h-.07s-.02.01-.02.01v.09s0,.12,0,.12c0,.03,0,.03,0,.04-.03.01-.05.01-.06,0-.01,0-.02-.06-.03-.15l-.02-.19-.02-.16s0-.04.01-.05c0,0,.03,0,.04,0,.03,0,.03,0,.04.07,0,.05.01.09.02.12v.02s.06,0,.06,0c.07,0,.08-.01.09-.04,0-.03,0-.13,0-.15,0-.02,0-.04.03-.04.01,0,.02,0,.03,0h0ZM9.16,6.48s.02,0,.03.01c.01,0,.02.01.03.02.01,0,.03.05.05.1,0,.01,0,.03,0,.04v.03s-.02.02-.03.04-.02.03-.02.03c0,0,.02.04.09.11.02.03.04.05.04.06,0,0,0,.02-.03.03l-.03.02h-.01s-.06-.07-.07-.1c-.04-.07-.08-.07-.13-.01l-.02.02.02.05c.03.07.05.12.04.13,0,0-.01.02-.02.02s-.03.01-.04.02h-.02s-.03-.06-.03-.06l-.09-.22-.04-.1c-.02-.06-.03-.1-.03-.11,0,0,.02-.02.04-.03l.05-.03s.04-.02.06-.04c.03-.02.06-.03.1-.03.02,0,.04,0,.05,0h0ZM15.77,6.55h0s.05,0,.06,0c.02,0,.06.04.07.06.01.02.03.07.02.07,0,0-.05.02-.06.02,0,0-.01-.01-.02-.03-.03-.05-.08-.07-.1-.04-.03.03-.04.04-.03.08,0,.08.02.15.05.23.02.05.05.07.09.07.04,0,.07-.04.06-.09,0-.04,0-.04-.03-.03-.02,0-.02,0-.03,0-.01,0-.03-.06-.03-.07,0,0,.03-.02.11-.04l.07-.02s.03.03.02.06c0,.02,0,.02-.02.03h-.02s0,.07,0,.07c0,.1-.02.15-.08.18-.06.03-.12.04-.16,0-.04-.03-.09-.13-.11-.25-.03-.13-.03-.14,0-.21.02-.04.05-.08.07-.09.02,0,.04-.01.06-.01h0ZM9.11,6.6s-.01,0-.02,0c-.04.01-.1.05-.11.06,0,.01,0,.02,0,.04,0,.01.01.03.02.04.02.02.03.02.09-.02.06-.04.08-.07.07-.1,0-.02-.01-.02-.02-.03,0,0-.01,0-.02,0h0ZM15.44,6.68s.01.02.02.04c0,.02.02.07.04.11l.08.23s.01.04.03.08c.03.08.03.09,0,.1h-.03s-.01.01-.02,0c-.01-.01-.07-.15-.1-.23l-.05-.15c-.05-.13-.05-.13-.04-.14,0,0,.02-.02.04-.03.02-.01.03-.02.04-.01h0ZM8.71,6.7s.02.02.03.05l.05.13s0,.02.01.03l.04.11s0,.11,0,.14c-.02.05-.05.08-.08.1-.06.03-.12.03-.16,0-.03-.03-.05-.07-.12-.22-.05-.12-.07-.17-.06-.17,0,0,.01,0,.02-.02.02-.02.05-.02.05,0,0,0,0,.01.01.02s0,0,0,.02,0,.03.02.06l.02.05s0,.02.02.03c.01.02.02.04.03.06,0,.02.02.05.03.07.02.03.02.04.04.04.01,0,.02,0,.03,0,.01,0,.07-.04.07-.06.01-.02,0-.11-.03-.14,0,0,0-.02-.01-.03s0-.03-.01-.04c0-.01-.02-.03-.06-.13-.03-.07-.03-.07,0-.08h.03s0-.01.01,0h0ZM15.23,6.84h0s.02,0,.03.01c.04.03.06.06.07.14,0,.02,0,.04-.01.07v.04s0,.02,0,.02c0,0,.02.03.03.04l.05.05.03.04s.01.01.02.03l.02.02h-.01s-.02.02-.02.02c0,0-.02,0-.02,0-.01,0-.02,0-.09-.08-.06-.06-.09-.08-.09-.08-.01,0-.06.03-.07.04,0,0,0,.02.03.09.02.05.04.09.04.1,0,.02,0,.02-.02.03-.01,0-.02.01-.04.02h-.02s-.04-.08-.04-.08l-.07-.17-.05-.12c-.04-.09-.04-.1-.02-.11l.04-.03c.1-.07.14-.08.2-.09.02,0,.03,0,.04,0h0ZM15.2,6.95s0,0-.02,0c-.03,0-.09.04-.11.06-.03.02-.03.03,0,.06,0,.01.01.02.01.02s0,0,0,.01c0,0,.01,0,.03,0,.03-.01.07-.04.09-.05.01,0,.01-.02.02-.05,0-.03,0-.04-.01-.05,0,0,0,0-.01-.01h0ZM8.25,7s.05.02.07.05c.01.02.04.08.07.14.05.11.05.11.05.15,0,.02,0,.05,0,.06-.01.04-.05.08-.08.11-.03.02-.04.03-.07.03-.02,0-.04,0-.05,0-.02,0-.05-.02-.07-.04-.02-.02-.08-.13-.11-.2-.02-.05-.03-.07-.03-.11,0-.04,0-.05,0-.07.02-.04.05-.07.1-.1.04-.02.07-.03.1-.03h0ZM16.96,7.01s.01,0,.01,0c0,.02,0,.24,0,.25,0,0-.02,0-.03.01-.02,0-.03,0-.03,0-.02-.02-.02-.23,0-.25,0,0,.04-.02.06-.01h0ZM17.04,7.02s.06,0,.07.02c0,.03,0,.07,0,.1,0,.08,0,.09-.01.11,0,.02-.01.02-.03.02,0,0-.02,0-.02,0-.02,0-.02,0-.02-.08v-.11s0-.06.02-.06h0ZM17.32,7.02s.01,0,.01.02c0,.03,0,.05,0,.08,0,.07,0,.09-.02.11-.01.01-.02.01-.03,0,0,0-.02-.12-.01-.18,0-.02,0-.03.02-.03s.02,0,.03,0ZM17.18,7.02s.03,0,.03,0c.01,0,.01,0,0,.11v.1s-.02.01-.02.01c-.02.01-.03.02-.04,0,0,0,0-.05,0-.11v-.11s.02,0,.02,0h0ZM17.41,7.03s.01,0,.02,0h.02s0,.06,0,.06c0,.08,0,.1-.03.11h-.02s-.02,0-.02-.08v-.08s.01,0,.01,0c0,0,0,0,.01,0h0ZM17.5,7.05s.01,0,.02.02c.01.01.02.02.02.04,0,.02,0,.03-.01.04-.01.01-.01.01-.02,0,0,0-.01-.1,0-.1ZM16.85,7.06v.04s0,.06,0,.06c0,.02,0,.08,0,.1,0,.01,0,.02-.02.03-.04.03-.05.01-.06-.09,0-.1,0-.1.02-.12.01,0,.03-.02.04-.02h.02ZM8.23,7.09s-.07.01-.1.04c-.01.01-.02.02-.02.04,0,.03.01.08.03.11,0,.01.01.02.01.03s0,.03.02.05c.02.05.04.07.07.09.02,0,.02,0,.05,0,.04-.03.06-.04.06-.07v-.03s0-.04,0-.04c0,0-.01-.02-.02-.04-.02-.06-.06-.14-.08-.15,0,0-.02,0-.03-.01h0ZM16.72,7.14h0s.01.02.02.06c0,.08,0,.11,0,.12-.01,0-.02,0-.03.01-.02,0-.02,0-.03-.07v-.04s.02-.08.04-.09c0,0,0,0,.01,0h0ZM16.61,7.23h0s.02.12,0,.13c0,0-.02.01-.03.01-.02,0-.02,0-.03,0,0,0,0-.03,0-.04v-.03s.03-.03.03-.03c.02-.02.03-.03.04-.03h0ZM16.88,7.35s0,0,.01,0c0,0,0,.02-.03.04-.01.01-.03.02-.04.04l-.03.03h-.12c-.13.02-.14.02-.14.01,0,0,.02-.02.07-.04.09-.04.21-.07.27-.08,0,0,.02,0,.02,0h0ZM16.49,7.35s.01.02.01.04c0,.02-.01.03-.03.03,0,0-.02,0-.02.01-.02.01-.04.01-.04,0,0-.01.07-.09.08-.09h0ZM11.78,7.55s.04,0,.04,0c0,0,0,.02-.04.05-.02.02-.04.03-.04.03,0,0,0,0-.02-.04,0-.02,0-.03,0-.03,0,0,.03,0,.05,0h0ZM11.66,7.57s.03.02.03.07c0,.03,0,.04-.01.05-.02.02-.03.02-.04,0l-.02-.04s-.01-.06,0-.07c.01,0,.02,0,.03,0h0ZM17.5,7.58h0s.02,0,.02,0c0,0,0,.02,0,.09v.2s-.02.12-.02.12h.03s.09.01.09.01c.11,0,.12.01.12.03,0,.02,0,.05,0,.06h0s-.01.02-.1.01h-.22s0-.02,0-.08v-.16s.02-.16.02-.16c0-.1,0-.11.03-.12.01,0,.02,0,.03-.01h0ZM17.1,7.58v.02s0,.1,0,.19v.18s.04.01.14.01c.05,0,.07,0,.08,0,0,.01,0,.09,0,.1h0s-.14.02-.23.02c-.05,0-.06,0-.07-.01,0,0,0-.02,0-.26v-.25s.03,0,.05,0h.04s0,0,0,0ZM16.72,7.59v.02s-.01.13-.03.18c0,.02-.02.07-.02.1-.03.18-.03.19-.05.22-.01.02-.03.02-.05,0-.02-.01-.03-.03-.03-.05,0,0,0-.02,0-.03,0-.01,0-.03-.01-.04,0-.01-.02-.09-.03-.11,0-.01-.01,0-.02.04v.06s-.02.05-.02.08,0,.06-.01.06c0,.01-.06.01-.08,0,0,0-.02-.02-.04-.1,0-.03-.06-.15-.08-.21l-.02-.07-.03-.08s-.01-.04.02-.05c.04,0,.05,0,.07.04.01.03.02.06.03.09.02.07.06.17.06.16,0,0,0-.01,0-.02l.03-.16s.02-.12.02-.13c0,0,.05,0,.06,0,0,0,.02.05.04.12l.04.12s.02,0,.02-.03c0,0,0-.02,0-.02,0,0,.03-.1.03-.14,0-.05,0-.05.05-.05h.04s0,0,0,0ZM11.53,7.59s.03.01.04.07c.01.05.01.07-.01.1-.02.02-.02.02-.03,0-.01-.01-.03-.1-.03-.14,0-.02,0-.03.03-.03h0ZM16.85,7.59s.03,0,.04,0c0,0,0,.03,0,.21v.25s-.01.04-.01.04h-.02s-.05,0-.05-.03c0-.02,0-.05,0-.06v-.21s0-.19,0-.19c0,0,.02,0,.03-.01h0ZM11.44,7.61l.02.07s.02.08.02.1c0,.03,0,.03-.02.04,0,0-.02,0-.03.01-.01,0-.02-.03-.04-.1v-.07s-.01-.03.03-.03h.03s0,0,0,0ZM11.3,7.63v.03s.03.04.03.06c.01.07.02.12.02.12,0,0-.01,0-.02.01-.03,0-.05.01-.06,0,0,0,0-.02-.01-.04s0-.06-.02-.09v-.06s0-.02.03-.02h.02s0,0,0,0ZM11.17,7.67v.03s.03.09.03.09c.02.07.02.09,0,.1-.03.01-.05.01-.06,0,0-.01-.03-.13-.04-.17,0-.03,0-.04.04-.04h.02s0,0,0,0ZM11,7.71s.03,0,.03,0c0,0,.04.13.04.16,0,0,0,.02,0,.02s-.02,0-.03.01c-.03,0-.04,0-.06-.09-.02-.08-.02-.09-.01-.1,0,0,.02,0,.04-.01h0ZM10.9,7.75s.04.1.04.14c0,.01,0,.03,0,.03h0s-.05.01-.06,0c0,0-.02-.04-.03-.08-.02-.07-.02-.07-.01-.08.01-.01.05-.02.06-.02h0ZM15.71,7.76v.02s.02.03.02.04c0,.02,0,.03-.01.04-.01.01-.04.03-.13.05-.08.03-.09.03-.09.06,0,.03.02.08.03.08,0,0,.02,0,.05,0h.05s.03.02.03.05c0,.03,0,.03-.06.05l-.05.02v.02s0,.03,0,.05t.03.03s.03,0,.13-.04c.03-.01.06-.02.08-.02h.02s0,.03,0,.03c0,.02,0,.04,0,.04,0,.02-.01.03-.09.06l-.12.05-.09.03s-.02,0-.04-.06l-.02-.08-.02-.09-.06-.24s-.01-.04.03-.06l.07-.03.17-.06h.04s0-.01,0-.01ZM10.76,7.79s.02,0,.03.01c.03.05.04.12.03.13-.01,0-.05,0-.05,0l-.02-.07s-.02-.06-.01-.07c0,0,.01-.01.03,0ZM10.66,7.83s.01,0,.02.01c.03.07.03.09.02.1-.03.02-.05,0-.06-.07,0-.02,0-.03,0-.04,0,0,.02,0,.02,0h0ZM10.56,7.86s.01,0,.03.04c0,.02.01.03.02.05,0,.02-.02.03-.03.02-.01,0-.04-.06-.04-.08,0-.01.02-.03.03-.03h0ZM11.93,7.87s0,0,0,0c0,0,.02.06.02.07,0,0-.01.01-.03.02-.07.03-.19.08-.2.09-.01.01-.01.03,0,.06.02.06.02.06.09.04.06-.02.07-.02.08,0,0,0,0,.03,0,.05v.03s-.03,0-.03,0c-.02,0-.04.02-.06.02-.03.02-.03.03-.02.06,0,.01.01.03,0,.03s0,.01,0,.02c.01,0,.02,0,.11-.03.13-.05.12-.05.14,0,.01.05.01.05-.05.08l-.14.06-.09.04s-.03-.03-.05-.08c0-.03-.02-.06-.03-.08s-.01-.03-.01-.03,0-.02,0-.03l-.04-.12-.04-.12s0-.03,0-.03c0,0,.02-.02.05-.03.02,0,.06-.02.2-.08.02,0,.04-.01.05-.02,0,0,.01,0,.02,0h0ZM10.46,7.9s.02,0,.03.04c.01.03.01.04,0,.04s-.01,0-.03,0c-.01,0-.02-.02-.03-.05,0-.02,0-.04.03-.03h0ZM10.36,7.94s.02,0,.02.02c0,.01,0,.02,0,.02-.02.01-.05,0-.05-.01s0-.03.03-.03ZM15.29,7.96s.02.01.03.06v.07s.01.03.01.04c0,.01,0,.03,0,.04,0,.01,0,.02,0,.02s0,.02,0,.03c.01.07.03.25.02.27,0,0-.01.01-.05.03-.01,0-.02,0-.03,0-.01-.01-.02-.02-.03-.04l-.08-.12s-.01,0-.01,0c0,0,0,.06,0,.11v.11s-.01.02-.02.02c-.03.02-.04.02-.07-.02l-.04-.05s-.02-.02-.02-.04c0-.02-.07-.11-.11-.16-.02-.02-.04-.05-.04-.06,0-.01-.02-.03-.03-.04,0,0-.02-.02-.02-.02,0,0,.03-.04.06-.05.01,0,.02,0,.04.02.03.03.06.08.12.18.01.02.02.04.03.04.01,0,.01-.07,0-.2v-.09s0-.03.01-.05c.01-.01.02-.02.02-.02,0,0,.06.07.1.13.04.07.06.09.06.08,0,0,0-.12-.02-.2-.01-.06-.01-.07.04-.09,0,0,.02,0,.02,0ZM10.27,7.97h0s0,0,0,.02c0,.01,0,.01-.03.02-.05,0-.06-.01-.01-.03.02,0,.03,0,.04,0h0ZM7.96,7.99s.02,0,.03.03c.03.04.03.05.04.09,0,.02,0,.03.02.05,0,.01,0,.02,0,.02,0,0-.03-.03-.05-.06,0-.01-.01-.03-.02-.03-.03-.03-.05-.06-.04-.07,0-.02.01-.02.02-.02h0ZM13.32,8.01s.01,0,.02,0h0s.02,0,.03,0c.02,0,.03.02.03.02s0,.02.01.03.01.03.01.04c0,.02,0,.02.03.03.01,0,.02,0,.03,0,0,0,0,.01,0,.03,0,.04-.02.04-.06.04h-.03s-.02.02-.02.02c-.02.03-.03.05-.02.06.01.02.02.04.03.06,0,.02-.02.04-.03.05-.01,0-.02,0-.06-.06l-.07-.09s-.03-.04-.04-.06l-.02-.03v-.02s.04-.05.09-.09c.03-.03.05-.04.07-.04h0ZM11.47,8.07s.01,0,.02.02.01.02,0,.03,0,.02.01.03c.01.01.01.01,0,.06,0,.03,0,.06-.01.07s0,.02,0,.03,0,.04,0,.07c-.02.11-.03.21-.02.21,0,0,.05-.02.1-.05l.1-.05s.03.05.03.07c0,0,0,.02-.02.02l-.03.02s-.02.01-.04.02c-.02,0-.1.05-.1.06,0,0-.01.01-.03.02-.02,0-.03.02-.04.03-.03.02-.04.02-.06-.02-.01-.02-.01-.03-.01-.06,0-.02,0-.05,0-.07v-.07c.05-.23.05-.22.04-.23,0,0,0,0-.03,0,0,0-.02.01-.03.01,0,0-.03.02-.06.03l-.06.03s-.04-.05-.04-.07c0-.01,0-.02.01-.03,0,0,.02-.02.02-.02,0,0,.18-.11.22-.13.01,0,.02-.01.03,0h0ZM7.9,8.09s.04.03.07.07l.05.06.12.15s-.01,0-.06-.05c-.1-.1-.2-.23-.17-.23h0ZM13.31,8.09s-.04.02-.06.04c0,.01,0,.02,0,.03,0,0,.02.02.03.02,0,0,.02,0,.02,0,.01,0,.04-.06.05-.08,0-.02-.02-.02-.04-.02h0ZM7.89,8.22s.01.01.02.03.03.03.04.04c.03.02.1.1.1.11,0,.02,0,.01-.04,0-.06-.03-.07-.04-.08-.06-.03-.03-.05-.1-.03-.1h0ZM13.07,8.23s.13.15.15.19c.01.02.01.03.01.07,0,.03,0,.05,0,.07-.01.03-.06.08-.09.1-.03.01-.03.01-.07,0-.04-.02-.08-.05-.12-.11l-.06-.08s-.03-.04.01-.06l.02-.02h.01s.03.06.05.08l.05.07c.04.05.1.05.12,0,.01-.02,0-.07-.02-.1l-.1-.15s.02-.06.03-.06h0ZM17.27,8.24s.03,0,.04,0c0,0,.04.2.04.22,0,0,0,.02,0,.03,0,0-.01.01-.03.01-.02,0-.02,0-.03-.02,0-.01-.01-.04-.02-.07l-.02-.1s0-.05,0-.06c0,0,.02-.02.03-.02h0ZM17.14,8.25s.02,0,.03,0,.01.03.02.05v.05s.03.04.04.12c0,.05,0,.05,0,.06,0,0-.02.01-.03.01-.03,0-.04,0-.04-.05,0-.03,0-.06-.03-.18,0-.04-.01-.07,0-.07,0,0,.01,0,.02,0h0ZM16.93,8.25s0,0,0,0c0,.01.04.31.04.35,0,.01,0,.02,0,.03s-.01,0-.02.01c-.02,0-.04,0-.04-.04,0-.05-.01-.09-.02-.14,0-.02,0-.05,0-.06s0-.05,0-.08c0-.03,0-.05,0-.06s.02,0,.04-.01c.01,0,.02,0,.03,0h0ZM17.04,8.25s.02.01.02.04l.02.07s.03.16.03.2c0,.02,0,.03-.02.04-.01,0-.03.01-.04.02h-.02s0-.02,0-.02c-.01-.05-.02-.15-.02-.29v-.05s.02,0,.02,0c0,0,.01,0,.02,0h0ZM17.38,8.25s.05,0,.06.03.03.11.04.16c0,.03,0,.03,0,.04h0s-.07.02-.07,0c0,0,0-.01,0-.02s0-.02,0-.03c0,0-.01-.03-.02-.08,0-.02,0-.04,0-.06-.01-.04-.01-.04.02-.05h0ZM17.52,8.25s.04,0,.05.03c.02.05.04.16.03.17,0,0-.04.01-.06.01-.01,0-.02,0-.03-.04l-.02-.06c-.02-.1-.02-.09-.01-.1,0,0,.02,0,.04,0h0ZM17.64,8.25h0c.06,0,.06.01.07.08v.07s0,.03,0,.03c-.03.01-.06.01-.06,0-.02-.06-.03-.12-.04-.18,0,0,0,0,.04,0ZM8.12,8.26s0,0,0,0c0,0,.01,0,.03.01.01,0,.03.01.04.01s.02,0,.02,0c0,0,0,0,0,.02,0,.01-.01.02-.03.02-.02,0-.02,0-.05-.03s-.03-.04-.02-.04h0ZM17.76,8.26s.01,0,.02,0c.08.02.1.03.1.07,0,.02-.02.04-.05.06-.04.02-.06.03-.07.02,0,0,0-.02,0-.05s0-.05,0-.07c0-.03,0-.04.01-.04h0ZM16.81,8.27h0s0,0,0,0,0,.02,0,.04v.08s.03.15.04.17c0,0,0,.03,0,.05,0,.03,0,.03,0,.03-.01,0-.04-.03-.05-.06,0-.01,0-.02-.01-.02-.01,0-.03-.07-.04-.15,0-.04,0-.05,0-.08.01-.04.04-.07.05-.07h0ZM16.7,8.27h0s.02,0,.01.02c-.01.12-.01.15,0,.2.01.05.02.07.05.13.01.02.02.04.02.04s0,0-.02,0c-.03,0-.06-.04-.11-.15-.02-.05-.03-.06-.03-.12,0-.08,0-.11.03-.12.01,0,.03,0,.04,0ZM16.57,8.3s0,0,0,.04c0,.04,0,.12.02.16,0,.02.02.05.03.07.01.02.02.05.03.06,0,.03,0,.04-.02.02-.01,0-.03-.01-.04-.02-.02,0-.08-.05-.08-.07,0,0,0-.05.02-.1l.02-.11s.01-.06.02-.06h0ZM16.49,8.31s.01.01,0,.06l-.02.09s0,.04-.02.05c0,.01-.01.01-.03,0-.02-.02-.02-.03,0-.11.01-.07.01-.07.04-.08,0,0,.02,0,.02,0h0ZM11.03,8.33s.01,0,.01,0c0,0,.01.01.02.03,0,.01.01.03.02.05.02.03.03.06.05.1l.05.11s.07.15.07.16c0,0,0,.02-.02.03s-.02.02-.03.02c0,0-.02-.02-.05-.07l-.05-.09-.07-.13-.05-.11s-.02-.05-.02-.06c0,0,.01-.02.03-.02,0,0,.01,0,.02,0h0ZM16.37,8.34s.02.01.02.05c0,.01,0,.03-.01.03,0,0-.04-.05-.04-.06s.02-.02.04-.02h0ZM12.61,8.44s.01.02,0,.04-.02.03-.04.02c-.01,0-.03-.01-.05-.02-.03,0-.04-.02-.04-.03,0,0,.1-.02.12-.01h0ZM12.33,8.49s.03,0,.04,0l.16.05s.02,0,.02,0c.01,0,.02.02,0,.03-.01.01-.02.01-.04,0-.03-.01-.05-.02-.08-.03-.01,0-.02,0-.03,0-.03-.01-.07-.02-.11-.03-.03,0-.04-.01-.01-.03.01,0,.02-.01.04-.01h0ZM10.83,8.5s.06.02.08.06c.03.05.04.08.02.14,0,.02,0,.04,0,.05s.03.04.06.07c.07.07.08.08.07.1,0,.02-.04.04-.05.04-.01,0-.03-.01-.09-.07-.04-.04-.07-.07-.08-.07-.02,0-.04.01-.05.03,0,0,0,0-.01,0-.02,0,0,.04.02.08.05.09.07.13.05.13,0,0,0,0-.01,0-.03.03-.06.02-.07-.02,0-.02-.02-.05-.04-.08,0,0-.01-.02-.01-.03s0-.02-.02-.02-.01-.01-.01-.02,0-.02-.01-.03l-.03-.06s-.02-.04-.03-.05-.01-.02-.01-.02-.01-.03-.03-.06l-.03-.06s.03-.03.07-.05l.06-.03s.04-.02.04-.02.01,0,.02,0c0-.01.07-.02.1-.01h0ZM12.14,8.55s.02,0,.03,0h.05s.03.01.04.02.02,0,.04.01l.07.02.09.02c.07.02.08.02.05.05-.02.02-.01.02-.07,0l-.12-.03s-.02,0-.02,0c0,0-.03,0-.04-.01h-.05s-.07-.03-.07-.03c-.02,0-.04-.01-.04-.02,0-.01.02-.03.04-.03h0ZM12.79,8.58s.07.04.09.08c0,.02.02.04.03.05.02.04.05.11.05.13,0,.03-.02.08-.04.1-.01.01-.03.02-.05.03-.04.02-.07.03-.09.02-.04-.02-.13-.18-.14-.25,0-.02,0-.05.01-.07.03-.06.08-.1.13-.09h0ZM10.79,8.61s-.04,0-.07.03c-.02.01-.04.03-.04.03,0,0,0,.03.03.07.02.03.02.03.04.02,0,0,.03-.02.04-.02.05-.03.07-.05.05-.1-.01-.03-.02-.03-.05-.03h0ZM15.55,8.61s.03,0,.04.02c0,0,0,0,.1.07l.07.05s-.01.02-.05.04c-.05.03-.06.03-.09,0-.07-.07-.11-.13-.1-.14,0-.01.01-.02.03-.02h0ZM12.09,8.65s.01,0,.03,0c.05,0,.14.03.15.04,0,0,.03.01.05.02.12.03.13.03.12.05,0,0-.01.01-.02.02-.02.01-.03.01-.05,0,0,0-.03,0-.05-.01-.05,0-.09-.02-.1-.03,0,0-.03,0-.06-.01-.07-.01-.1-.02-.1-.04,0,0,0-.02,0-.02,0,0,0,0,.01,0h0ZM15.45,8.65s.03,0,.05.03l.04.04s.02.03.03.04c0,.01.02.03.02.03,0,0,.02.02.02.04,0,0,0,.01-.02.02,0,0-.02.01-.03.01-.01,0-.03-.02-.07-.08l-.05-.08s-.02-.04,0-.05c0,0,.01,0,.02,0h0ZM12.76,8.67s-.02,0-.03.01c-.01.01-.02.06-.02.09.02.04.04.08.07.12.03.02.07,0,.08-.04,0-.02,0-.02,0-.06-.01-.05-.05-.1-.07-.11-.01,0-.02-.01-.03,0h0ZM15.35,8.7s.02,0,.03.03c.01.02.02.04.04.06.01.02.03.05.04.07.02.04.02.04-.02.07-.01,0-.03.02-.03.02,0,0-.02-.02-.03-.05-.04-.07-.08-.15-.08-.16,0-.01.03-.03.05-.03h0ZM13.88,8.73s0,0,0,0c0,0,.01,0,.02,0,.04.02.05.03.06.08,0,.04.02.11.05.27.02.09.02.09.07,0l.09-.14c.05-.09.06-.1.1-.07.01,0,.02.02.02.03,0,0,0,.02,0,.02,0,.02-.02.09-.02.09,0,.01,0,.05-.01.14v.14s-.03.1-.03.1c0,.02-.04.02-.06,0-.02-.01-.02-.01-.02-.05,0-.03,0-.07,0-.12,0-.01,0-.03,0-.04v-.02s-.02.02-.02.02c0,.01-.03.05-.04.07-.03.05-.05.08-.07.08,0,0-.02,0-.04-.02-.02-.02-.03-.02-.03-.04,0-.06-.04-.25-.05-.25,0,0-.02.05-.03.09l-.03.13s-.02.01-.05-.01l-.03-.02.02-.09.02-.13.05-.26s0-.02.01-.03h0s0,0,0,0h0ZM10.39,8.75s.03,0,.04,0c.03,0,.07.04.09.09.01.03.02.05.02.08,0,.02,0,.04,0,.05-.01.02-.05.06-.06.06-.01,0-.02,0-.03.02-.01,0-.02.01-.02.01s-.01,0-.02.01l-.02.02s.02.06.03.08c0,.01.02.04.03.06s.02.04.02.05c.02.02,0,.04-.04.06h-.02s-.03-.03-.04-.04l-.05-.1-.05-.1s-.02-.04-.03-.06l-.03-.06s-.02-.03-.03-.05c-.01-.02-.02-.04-.02-.05,0-.01,0-.02.06-.05.01,0,.02-.02.03-.03,0,0,.02-.01.02-.01s.01,0,.02,0c.02-.02.07-.04.11-.04h0ZM15.24,8.75s.02,0,.04.05l.03.06s.04.08.04.09-.02.03-.04.04h0s-.01,0-.02,0c0,0-.04-.06-.04-.07,0-.01-.01-.02-.02-.03-.01-.02-.03-.04-.04-.07-.02-.04-.02-.04,0-.05,0,0,.02-.02.03-.02,0,0,.01,0,.02,0h0ZM12.04,8.76s.05,0,.09.02c0,0,.01,0,.02,0,0,0,.02,0,.03,0s.04.01.05.01c.02,0,.04,0,.06.02,0,0,.02,0,.03,0,.02,0,.02.02,0,.03,0,0-.02.01-.02.02,0,0-.02,0-.03-.01s-.04-.01-.05-.01c-.01,0-.03,0-.04,0-.07-.02-.1-.03-.12-.03h-.02s0-.03,0-.03c0-.02,0-.03,0-.03h0ZM15.84,8.78s.04.01.06.04c.01.02.02.03.02.05,0,.02,0,.04-.02.06,0,.01-.02.03-.02.03-.01,0-.05-.04-.08-.09-.04-.06-.04-.06.02-.07,0,0,.02,0,.03,0h0ZM15.12,8.81s.03.02.08.1c.03.06.04.09.03.1,0,.02-.06.01-.09-.02-.03-.04-.05-.08-.07-.12,0-.03,0-.04.02-.05,0,0,.02-.01.02-.01h0ZM15.71,8.83s.02.01.04.04c.06.09.07.12.05.14,0,0-.02.01-.02.01,0,0-.05-.06-.09-.13-.02-.05-.02-.06,0-.06,0,0,0,0,.01,0ZM8.95,8.84s.02,0,.02.01c0,0,.02.04.03.07.02.06.02.06.01.07,0,0-.01.01-.01.01,0,0,0,0-.01,0,0,0-.01,0-.02-.02l-.02-.04-.03-.06-.02-.05h.01s.02-.02.03-.01h0ZM9.04,8.84s0,0,.01,0c.02,0,.03.02.04.04,0,.01,0,.02,0,.03,0,0-.01,0-.02,0,0,0-.03-.06-.03-.07,0,0,0,0,0,0h0ZM10.39,8.85s-.01,0-.02,0c-.02,0-.09.05-.09.06,0,0,.01.03.02.03,0,0,0,0,0,.01,0,0,0,.02.02.03.02.02.01.02.04,0,.04-.02.07-.04.08-.06,0-.02,0-.02,0-.04s-.02-.03-.04-.03h0ZM8.84,8.86s.03.02.06.09c.04.1.04.12.02.13-.02,0-.02,0-.04,0-.02-.02-.09-.17-.08-.18,0-.01.03-.02.04-.03h0ZM12.01,8.88s.02,0,.03,0c.02,0,.04,0,.04,0s.02,0,.04.01c.05.01.09.03.09.04,0,0,0,.01-.01.02-.02.02-.03.02-.13,0-.08-.02-.09-.03-.07-.06,0,0,0,0,.01,0h0ZM15.61,8.88s.1.14.1.17c0,0,0,.02-.02.02-.02.02-.04.01-.05,0,0-.02-.02-.03-.03-.04-.01-.02-.02-.03-.02-.04s0-.02-.02-.03c-.01-.01-.02-.03-.02-.04,0-.01.04-.04.06-.04h0ZM15.01,8.88h0s.02.02.03.05l.02.05s0,0,0,0c-.02,0-.04,0-.06-.02-.02,0-.03-.01-.05-.02-.04,0-.04-.02.01-.05.03-.02.05-.03.06-.02h0ZM8.73,8.92s.02,0,.04.05c.07.13.08.15.05.16-.01,0-.02.01-.03.02-.03.01-.03.01-.06-.07l-.03-.08s-.01-.06.01-.07c0,0,0,0,.01,0h0ZM15.5,8.94s.01,0,.01,0,.01.02.02.04c.03.06.05.09.05.1h0s0,0-.04,0c-.01,0-.03,0-.03-.01-.01-.01-.05-.07-.05-.08.01-.02.03-.04.05-.05h0ZM11.97,8.99s.08.02.1.03c.01,0,0,.02-.06.06-.07.04-.09.05-.1.04,0,0,0-.03.02-.06.02-.04.03-.06.04-.06ZM14.57,9s.01,0,.02.01.02,0,.02,0c.01-.01.02.03.07.32l.05.29s-.02,0-.05,0h-.03s-.01-.06-.01-.06c-.01-.05-.03-.07-.05-.08h-.04c-.14-.04-.13-.04-.15,0,0,.02-.02.03-.02.03,0,.02-.07.01-.08,0,0-.01.05-.13.11-.24,0-.01.02-.03.03-.05.03-.07.12-.23.12-.23h0ZM15.4,9.01s.04.04.04.05c0,.01-.01.02-.03.01-.01,0-.02,0-.03,0-.02,0-.03,0-.03-.02,0-.01.05-.04.06-.04h0ZM8.63,9.01s0,0,.01,0c.02.02.06.13.06.15,0,.02,0,.02-.02.03,0,0-.02,0-.02,0-.01,0-.03-.03-.05-.09-.03-.08-.03-.09,0-.1,0,0,.01,0,.02,0h0ZM9.07,9.04s0,.02.01.12v.15s-.01.04-.03.02c-.01-.02-.01-.04-.02-.17,0-.08,0-.09.01-.1,0,0,.02-.01.02-.01h0ZM8.53,9.09s.02.02.06.09c.01.03.02.06.01.07,0,0-.01,0-.02,0-.02,0-.02,0-.05-.07-.03-.05-.03-.08-.01-.09,0,0,.01,0,.02,0h0ZM12.28,9.09s.02,0,.03,0c.01,0,.05.03.07.05.03.03.06.12.06.19,0,.04,0,.05-.02.08,0,.02-.02.04-.03.05-.03.04-.07.07-.11.1-.04.02-.05.02-.08-.06l-.02-.06s-.01-.02-.02-.05l-.05-.12-.04-.1s0-.02.03-.03c.02,0,.03-.02.04-.02s.01,0,.02,0c.02-.02.08-.03.12-.03h0ZM8.97,9.12s.01.02.02.09c0,.15,0,.17,0,.18-.02.02-.03,0-.03-.08v-.12s0-.04,0-.05c0,0,.01,0,.02,0h0ZM14.96,9.12s.03,0,.03,0c.01,0,.01,0,0,.12v.1s-.02.03-.02.03l-.03.18c0,.06-.02.1-.02.12h0s-.03.04-.05.02c-.02-.02-.02-.06.02-.3l.02-.11.02-.1s0-.05.04-.05h0ZM8.87,9.18s.01,0,.01.01c.01.03.02.21.01.22,0,.01-.03.02-.03,0,0-.01-.01-.23,0-.24,0,0,0,0,.01,0h0ZM8.43,9.18s0,0,.01,0c.01,0,.03.05.04.08,0,.02,0,.03,0,.04h0s-.03.02-.05,0c-.02-.03-.04-.08-.04-.09,0-.01.01-.03.03-.03h0ZM14.58,9.19s-.09.15-.09.17c0,.01.01.02.09.04h0s.03,0,.04,0c0-.01-.02-.18-.03-.19,0,0,0,0-.01,0h0ZM12.24,9.19s-.06.03-.06.04c0,0,0,.03.02.06l.05.1s.02.05.04.05c.02,0,.05-.03.07-.05.01-.02.02-.03.02-.07,0-.05-.01-.09-.04-.11-.03-.02-.06-.03-.09-.02h0ZM9.67,9.19s.05.06.04.07c0,0-.08.05-.1.06-.01,0-.02,0-.03.02,0,0-.03.02-.04.03-.05.03-.05.03-.03.07.02.04.03.06.05.05,0,0,.02,0,.04-.02.05-.03.05-.03.07.01.01.03.01.03,0,.04-.01.02-.02.02-.05.04-.05.03-.05.03-.04.06.02.05.03.07.04.08.01,0,.01.01.02,0,0,0,.01-.01.02-.02.01,0,.02-.01.03-.02,0,0,.03-.02.05-.03s.05-.03.06-.04c.03-.02.04-.02.06.02s.02.06,0,.06c0,0-.04.02-.07.04l-.13.08c-.09.05-.08.05-.11-.03l-.11-.23s0-.02-.02-.04c0-.02-.01-.03-.02-.05,0,0-.01-.02-.02-.03,0-.01,0-.02-.01-.03-.02-.03-.01-.03.03-.06l.15-.09.06-.03.04-.02h0ZM15.19,9.19s.01,0,.02,0c0,0,.01.02.02.05l.03.09.04.11c.02.06.04.13.05.14s.02,0,.01-.02c0-.01,0-.03,0-.05s0-.04,0-.06,0-.04,0-.05,0-.04,0-.07c0-.06,0-.1.01-.11,0,0,.01,0,.02,0,0,0,.02,0,.02,0,.02,0,.04.01.04.03,0,.01,0,.03,0,.04,0,.03,0,.06,0,.09v.09s-.01.04-.01.05,0,.04,0,.06c0,.05,0,.14-.02.19h0s0,.03-.02.03h-.03s-.03,0-.05-.02c-.02-.02-.02-.02-.04-.08l-.06-.16-.04-.1s-.02.07-.04.19l-.02.12s-.08,0-.09-.03c0,0,0-.02,0-.03,0,0,0-.03,0-.06s0-.06,0-.07l.04-.25.02-.1v-.02s.04,0,.04,0h.03s0,0,0,0ZM8.77,9.22s0,0,.01,0c0,0,.01,0,.01.02,0,.04.01.21,0,.21,0,0-.03.01-.03,0,0-.01-.02-.13-.02-.18,0-.04,0-.05,0-.05,0,0,0,0,.01,0h0ZM11.97,9.24s.02.03.04.06l.03.07.05.12.05.13s.01.05-.01.06c-.01,0-.03.02-.04.02-.02,0-.02,0-.05-.01l-.05-.04s-.04-.03-.06-.05c-.04-.03-.08-.06-.09-.06,0,0,0,0,0,0,0,0,.04.13.05.14.01.03.02.05.03.08,0,.03,0,.04-.03.06-.01,0-.02.01-.03.01,0,0-.03-.03-.04-.07l-.03-.07-.03-.06-.02-.06-.07-.18s.01-.02.04-.04c.02,0,.02,0,.05,0,.02,0,.05.03.07.05.08.06.14.1.15.09,0,0-.03-.1-.05-.14,0-.02-.01-.03-.01-.03s0-.01,0-.03c-.01-.03-.01-.04,0-.05.02-.02.03-.03.04-.02h0ZM11.65,9.24h0c.06,0,.07.02.02.03-.04.02-.05.02-.06,0,0-.01,0-.02,0-.03s.02,0,.04,0h0ZM11.48,9.24s.04,0,.06.02.03.05.02.06c0,0-.01,0-.02,0-.01,0-.02,0-.04-.03-.03-.04-.03-.05-.02-.06h0ZM11.35,9.24s.04,0,.07.05c.04.05.04.08.01.09-.03.02-.04.01-.06-.01-.02-.03-.07-.1-.07-.11s.01-.01.04-.02h0ZM15.55,9.25s0,0,0,0h0s.03,0,.05,0c.06,0,.23.01.25.02.03,0,.03.01.03.05,0,.05,0,.05-.07.06-.04,0-.06,0-.07.01,0,0,0,.03,0,.05v.16s-.02.16-.02.16c0,.02,0,.05,0,.06h0s-.01.02-.03.02c-.01,0-.02,0-.03,0h-.01s0-.07,0-.07c0-.04,0-.07,0-.09,0-.01,0-.03,0-.04,0-.01,0-.04,0-.05s0-.04,0-.06,0-.04,0-.05c0-.03,0-.09,0-.1,0,0-.03-.01-.11-.02-.02,0-.03-.01-.03-.05,0-.03.01-.05.03-.05h0ZM8.34,9.26s.05.09.05.1c0,.01,0,.02-.03.03-.02,0-.02,0-.03,0-.01-.01-.04-.06-.04-.08,0-.02,0-.02.02-.04.01-.02.02-.02.03-.02h0ZM11.22,9.27s.04.02.06.06c.05.08.05.1.03.11-.02.01-.03.01-.05-.01-.1-.14-.1-.15-.07-.16,0,0,.01,0,.02,0ZM8.7,9.27s0,0,0,0c0,.01.01.13.01.18,0,.04,0,.04-.02.04-.01,0-.01,0-.02-.02v-.06s-.02-.06-.02-.09v-.05s.02,0,.02,0c0,0,.01,0,.01,0h0ZM11.08,9.29s.02,0,.03.02c.03.03.1.14.1.16,0,0-.01,0-.02,0-.03,0-.02,0-.09-.08q-.06-.08-.04-.1s.02-.02.02-.01ZM16.47,9.29v.05s.02.13.02.13v.1s0,.05.01.08,0,.06,0,.07,0,.03,0,.05c0,.04,0,.07,0,.08,0,0-.02,0-.03,0-.03,0-.04,0-.04-.1v-.1s0-.04,0-.07v-.1s0-.07-.01-.11,0-.07,0-.08.02,0,.04-.01h.03s0,0,0,0ZM16.05,9.3s.06,0,.07.02c0,0,.01.03.02.06l.03.08s.02.03.02.03,0,0,0,.02,0,.03,0,.04l.04.1.05.13c.04.09.05.11.04.12-.02.02-.08,0-.09-.04,0-.02-.03-.07-.04-.08-.01-.01-.12-.02-.17,0,0,0-.01.02-.02.05v.05s-.03.02-.07.01c-.02,0-.03,0-.03-.01,0-.01,0-.07.06-.32.05-.26.05-.24.07-.24h0ZM16.66,9.31s.04.02.07.07l.04.07.05.07c.03.06.1.15.1.15s0,0,0-.03c0-.01,0-.02,0-.03l-.02-.18v-.09s.02,0,.05-.01h.02s.01.06.01.06l.02.1.03.22c.01.08.02.14,0,.16,0,0-.01.01-.04.01-.06,0-.05,0-.12-.12l-.07-.13c-.06-.1-.07-.11-.07-.06v.1s.03.12.03.12c0,.03,0,.05,0,.06,0,.02-.01.02-.03.02-.02,0-.02,0-.03-.02,0-.01-.01-.02-.01-.06,0-.03,0-.07-.01-.09,0-.02,0-.04-.01-.07,0-.02,0-.06-.01-.09v-.09s-.02-.04-.02-.06c-.01-.06,0-.08.03-.09,0,0,0,0,.01,0h0ZM8.59,9.32s.02.01.03.06v.07s.01.07,0,.07c-.02.01-.02.01-.05-.16,0-.04,0-.05.02-.05h0ZM10.96,9.35s.01,0,.02,0c.01,0,.1.14.1.15,0,0-.03.01-.05,0-.04-.01-.11-.1-.1-.13,0,0,.01-.02.02-.02,0,0,.01,0,.02,0h0ZM8.25,9.35s.01,0,.02.01c0,0,0,.03.01.04.02.04.02.06,0,.08,0,.01-.01.02-.02.02-.01,0-.07-.09-.07-.11,0-.01.04-.04.05-.04h0ZM8.52,9.37s0,0,0,0c0,0,.02.1.02.15,0,.02,0,.03,0,.03-.02,0-.02-.01-.04-.1-.01-.05,0-.07,0-.07,0,0,0,0,.01,0h0ZM13.63,9.39s.02,0,.02,0c.1.05.13.06.15.09.01.02.03.04.03.04,0,.01.01.02.02.04,0,.01.02.03.03.05,0,.02.02.03.03.05.01.02.02.03.03.05,0,.02.02.04.02.04.01,0,0,.03-.01.04,0,0-.02.01-.03.01-.01,0-.04-.03-.06-.07,0-.02-.02-.04-.03-.05-.02-.02-.05-.07-.06-.08,0-.02-.02-.03-.03-.05,0,0-.02-.02-.03-.03l-.08-.1s-.02-.04,0-.03h0ZM10.86,9.42s.06.08.06.08c0,0-.04,0-.06,0-.02-.01-.04-.04-.03-.06,0-.02.02-.03.03-.02h0ZM9.28,9.42s0,0,.01,0c0,0,0,.03.01.07l.02.27v.15s.02.06.02.06c0,0,0,.01-.02.02h-.03s-.04-.01-.1-.09c-.09-.12-.09-.13-.1-.1,0,0,0,.07,0,.13v.14h0s-.01.01-.02.02c-.02,0-.05-.02-.09-.09l-.05-.08-.03-.05-.08-.14s-.05-.09-.05-.1c0,0,.01,0,.02,0,0,0,.02,0,.03,0,0,0,.01,0,.02,0,.02.02.03.04.07.09.03.05.05.08.06.08.01,0,.02-.03.02-.08,0-.09.01-.15.02-.16.01,0,.04,0,.04,0,0,.01.13.19.15.21v.02s.02-.02.02-.02c0-.01,0-.05,0-.09v-.13s-.02-.06-.02-.06l.02-.02s.02-.02.04-.02c0,0,.01,0,.01,0h0ZM8.44,9.44s.02.05.02.11c0,.03,0,.03,0,.03-.02,0-.04-.03-.04-.09,0-.04,0-.05.03-.05h0ZM8.14,9.45s.05.08.07.11c0,.02.01.04.01.09,0,.05,0,.06,0,.06,0,0-.01-.01-.02-.03-.02-.03-.03-.05-.07-.11-.02-.03-.03-.05-.03-.06,0-.01.04-.05.05-.05h0ZM16.1,9.47s-.03.08-.04.12c0,.05,0,.07.01.07,0,0,.03,0,.05,0,.05,0,.05,0,.03-.08s-.04-.11-.05-.11h0ZM11.51,9.47s0,0,.02.01c0,.01.02.03.03.04,0,.01.02.04.03.05l.03.04s.05.08.08.13c0,.01.02.03.02.04,0,.02.02.05.03.07.03.04.03.05-.02.06h-.03s-.02-.02-.02-.02c-.02-.04-.03-.04-.06-.03-.05.02-.08.03-.1.04h-.02s0,.05,0,.05c0,.04,0,.04-.01.06-.01.02-.02.02-.04.01-.01,0-.02-.03-.02-.09,0-.03,0-.05,0-.08,0-.02,0-.09,0-.15v-.13s.02-.08.06-.09c0,0,.01,0,.02,0h0ZM8.36,9.5s.01.01.02.04c0,.02,0,.04,0,.04,0,0-.02,0-.03,0-.01,0-.03-.04-.02-.05,0-.02.02-.03.03-.03h0ZM13.89,9.52s0,0,.02,0h0s.03.01.06.02l.07.03s.04.03.06.09c.01.04.02.05,0,.06,0,0-.02.02-.03.02-.02,0-.02,0-.04,0,0,0-.02-.02-.02-.03l-.05-.08s-.01-.02-.01-.03c0-.02-.02-.03-.03-.05-.01-.01-.02-.03-.02-.03s0,0,0,0h0ZM8.03,9.56s.03.02.09.11c.04.06.05.09.04.1,0,0-.02,0-.03,0-.02,0-.03,0-.04-.02-.02-.02-.1-.15-.1-.17,0-.01.02-.03.03-.03h0ZM14.15,9.63s.02,0,.02,0c.01,0,.01.01,0,.02,0,.02-.03.02-.04,0-.01-.01-.01-.01,0-.02,0,0,.01,0,.02-.01h0ZM11.51,9.64s0,.02,0,.06c0,.07,0,.08.01.09.03,0,.07-.02.07-.05,0-.02-.05-.09-.06-.1,0,0-.01,0-.02,0ZM7.95,9.66s.09.12.09.13c0,0,0,.01-.01.02s-.01,0-.01,0c0,0-.06-.09-.08-.12-.01-.02-.01-.03,0-.04,0,0,.01,0,.01,0h0ZM14.3,9.67s.02,0,.03,0c.02,0,.03.01.05.02l.09.03.09.03.06.02s.05.02.1.03c.08.02.09.03.05.05-.03.02-.05.03-.07.02,0,0-.02,0-.03,0-.01,0-.02,0-.03-.01,0,0-.02,0-.02,0s-.01,0-.01,0c0,0-.11-.05-.13-.06l-.06-.02-.07-.03c-.05-.01-.09-.03-.09-.04,0-.02.02-.02.05-.02h0ZM7.89,9.75s.02,0,.03.03c.01.02.02.04.02.04,0,.01-.03.01-.05,0-.03-.02-.03-.07,0-.07h0ZM14.16,9.75s.03,0,.04,0c.01,0,.02,0,.03,0,.03,0,.08.02.12.03,0,0,.02,0,.02,0s.01,0,.01,0,.01,0,.02.01c.05.02.19.08.21.09.02.01.01.02-.01.04-.03.02-.04.02-.06,0-.01-.01-.03-.02-.04-.02s-.02,0-.02,0-.04-.02-.07-.03l-.08-.03s-.02,0-.03,0-.01,0-.02,0c-.01,0-.03-.01-.04-.02-.04-.01-.1-.04-.11-.04-.01-.01,0-.02.03-.02h0ZM14.04,9.82h.04s.05.02.05.02c0,0,.02,0,.02,0,0,0,.06.02.13.04.01,0,.06.02.1.04.09.04.15.08.15.09,0,0,0,.01-.01.01-.01,0-.08-.03-.12-.06-.01,0-.03-.02-.03-.02s-.02,0-.03-.01c-.05-.02-.07-.03-.08-.03,0,0-.02,0-.02,0s-.02,0-.03,0-.03,0-.04-.01-.03,0-.04,0c0,0-.02,0-.03,0,0,0-.02,0-.03,0h-.04s-.03,0-.03,0c0,0,0,0,0-.01,0,0,0-.02.02-.02h.02s0-.01,0-.01ZM16.39,9.97h0s.01,0,.02,0c.01,0,.02.07.03.19,0,.14,0,.16,0,.17h0s-.02,0-.03,0c-.02,0-.02-.02-.02-.12v-.11s-.01-.13,0-.14c0,0,.01,0,.02,0h0ZM16.25,9.97s.03,0,.04,0c.02,0,.03.02.02.08,0,.03,0,.04-.01.04h0s-.01,0-.04,0c-.03,0-.04-.03-.04-.08v-.03h.02s0,0,0,0ZM16.52,9.97s.02,0,.03,0c0,0,0,.03.01.15v.14s0,.08,0,.08c0,0-.01,0-.02,0-.02,0-.05-.02-.05-.04,0-.05-.02-.27-.02-.3,0-.02.01-.03.04-.03h0ZM16.15,9.98s.02,0,.03.01c.01.02.01.08,0,.09-.02.01-.04.01-.06,0,0,0-.02-.04-.02-.07,0-.02.02-.04.05-.04ZM16.64,9.99h0s.02.02.02.05v.07s.02.1.02.1v.11s.01.03.01.03h-.02s-.04,0-.05,0c0,0,0-.02,0-.05v-.13s-.01-.13-.01-.13v-.05s.02,0,.02,0c0,0,.01,0,.01,0h0ZM16.75,9.99s.01,0,.02,0c0,0,.01.02.02.07v.12s.02.09.02.12v.05s-.03,0-.03,0c-.03,0-.04,0-.05-.04l-.02-.17s0-.04,0-.08v-.06s.02-.02.05-.02h0ZM16.88,10s.03,0,.04,0c0,0,.02.11.02.14,0,.02,0,.04,0,.06,0,.04.02.13.01.15,0,0,0,.01-.03.01-.05,0-.06,0-.07-.15v-.1c-.02-.08-.02-.1-.01-.11,0,0,.01,0,.04,0h0ZM16.98,10.02h0s.01,0,.02,0c.02,0,.03,0,.03.02,0,.01.02.16.02.25,0,.04,0,.05,0,.06-.01,0-.04,0-.05,0,0,0-.01-.02-.01-.07,0-.03,0-.07-.01-.09,0-.02,0-.04,0-.06,0-.02,0-.04,0-.07,0-.03,0-.04.01-.04h0ZM16.05,10.03s0,.01,0,.04c0,.03,0,.04-.01.05,0,.01-.06.03-.06.02,0,0,0-.02,0-.03,0-.03,0-.03.02-.05.02-.02.04-.03.05-.02h0ZM17.1,10.07s.1.06.11.09c0,.03,0,.07,0,.09,0,0-.02.03-.05.04-.02.01-.04.03-.05.03,0,0-.01-.02-.01-.05,0-.01,0-.06,0-.11v-.09s0,0,0,0ZM15.91,10.1s.01,0,.01.02c0,.03-.02.05-.04.06,0,0-.03,0-.04.01-.04.02-.05.03-.05.02s.01-.02.07-.07c.03-.02.04-.03.05-.04h0ZM16.3,10.15s.02,0,.02.03c0,.03,0,.15,0,.15,0,0-.05.02-.06,0s-.01-.03-.02-.11c0-.06,0-.07.04-.08,0,0,0,0,.01,0h0ZM16.2,10.18s0,.02,0,.07c0,.06,0,.08-.01.09h0s-.03.02-.04,0c0,0,0-.03,0-.07v-.06s.02-.01.02-.01h.02s0-.01,0-.01h0ZM16.08,10.25s0,0,0,.01c0,.02,0,.1,0,.11-.01.01-.04.02-.05.01,0,0,0-.02,0-.05,0-.05,0-.06.04-.08,0,0,.01,0,.01,0h0ZM15.97,10.32s0,.02,0,.03c0,.04-.01.06-.06.08-.07.03-.07.03-.05,0,.04-.06.09-.11.1-.11h0Z"/>
      <path class="cls-2" d="M10.97,7.03s-.01,0-.02,0c-.04,0-.05,0-.07.02-.02.01-.04.03-.05.05l-.03.04s-.01.02-.01.04c0,.05.04.13.06.13,0,0,0,0,.01,0,0,0,.08.04.09.04.01,0,.03,0,.04.02.06.03.07.07.04.11-.02.03-.04.04-.08.03-.03,0-.04-.01-.06-.04,0-.02-.01-.02-.04-.02-.04,0-.04,0-.04.04,0,.04.03.07.07.1.05.03.07.03.13,0,.04-.01.09-.06.1-.1,0-.01,0-.04,0-.06,0-.05-.01-.07-.06-.12-.03-.03-.04-.04-.07-.04-.05-.01-.1-.04-.11-.05,0-.01-.01-.06,0-.07,0-.01.04-.03.07-.03.03,0,.04,0,.07.03.02.01.02.01.04,0,.05-.02.02-.1-.05-.13-.02,0-.03-.01-.05-.01h0ZM10.59,7.15s0,0-.02,0c-.02,0-.04,0-.06.02-.02,0-.05.02-.07.02-.05.01-.08.03-.1.03,0,0-.02,0-.03.01-.02,0-.03,0-.03.03,0,.03.02.1.03.15,0,.02.01.04.02.07,0,.03.01.07.02.1l.03.12c.02.09.02.08.05.08.02,0,.04-.01.06-.02h0s.14-.05.18-.07.05-.02.05-.04c0-.02-.02-.06-.02-.06,0,0-.14.04-.17.05-.04.01-.06.02-.07,0-.01-.02-.03-.1-.02-.1,0,0,.03-.01.05-.02s.05-.02.06-.02c.02,0,.02-.01.02-.03,0-.01,0-.03,0-.04t-.04,0h-.07s-.04.02-.05-.03-.01-.07,0-.08c.02,0,.16-.06.17-.06.03,0,.05-.04.03-.07,0-.02,0-.02-.02-.02h0ZM10.1,7.32s-.02,0-.03,0c-.03.01-.04.02-.01.09l.05.15.03.1.04.11s0,.01,0,.02,0,.02.01.03c0,.02.01.02.04,0s.03-.02.02-.06l-.05-.15-.03-.09-.07-.19s-.01-.01-.02-.02h0ZM9.97,7.4s0,0-.01,0c0,0-.02,0-.03,0,0,0-.03.02-.07.03l-.16.07c-.07.03-.07.03-.08.06,0,.02,0,.06.02.07,0,0,.01,0,.02,0s.04-.02.06-.03c.06-.02.06-.03.09.1.03.13.07.23.08.26.01.02.02.02.04,0,0,0,.02-.01.02-.02,0-.01-.02-.08-.03-.14,0-.03-.02-.05-.02-.08v-.05c-.03-.06-.04-.11-.04-.12,0,0,.02-.02.06-.04.07-.04.07-.04.06-.09,0-.02,0-.02-.02-.02h0ZM9.47,7.65s-.09.01-.12.03c-.05.03-.1.06-.15.09h-.01s0,.04,0,.04c0,.04.02.08.03.1,0,.01.06.17.09.3,0,.03.03.06.03.06,0,0,.01,0,.02,0,.02-.01.04-.02.04-.04s-.02-.1-.04-.15c0-.02-.01-.04,0-.04,0-.01.03-.03.07-.06l.03-.02.03.04.06.08s.05.05.08.04.03-.02-.05-.13c-.02-.03-.04-.05-.04-.06,0-.02,0-.04.02-.07.01-.03.02-.05,0-.1-.01-.06-.04-.09-.08-.1,0,0-.02,0-.03,0h0ZM9.45,7.76s0,0,.01,0c0,0,.01,0,.02.01.01.02,0,.05-.01.07-.01.02-.03.03-.07.05-.03.01-.06.03-.06.03,0,0-.02,0-.03-.05-.02-.06-.02-.06.04-.09.04-.02.05-.02.08-.03h.02s0,0,0,0ZM9.11,7.85s-.09.05-.09.05c0,0,0,0-.01,0s-.02.01-.04.03l-.04.03s0,0-.02.01-.03.02-.05.03c-.02.01-.04.02-.04.03,0,.01,0,.07.03.14l.05.17.02.09.02.06s0,.02.01.03c.01.02.02.02.09-.03l.07-.04s.03-.02.04-.03.03-.02.04-.03c.05-.02.06-.04.05-.09,0-.04-.02-.04-.09.02-.02,0-.03.02-.05.03l-.04.03s-.02.01-.03.02h-.02s-.01,0-.01,0c-.02-.04-.03-.08-.03-.09s.04-.04.07-.06c0,0,.01-.01.02-.02,0,0,0-.06-.01-.07,0,0-.03,0-.06.01-.03.02-.03.02-.04,0-.02-.02-.03-.05-.03-.08,0,0,.01-.02.03-.03l.05-.04.07-.04c.06-.03.06-.04.06-.05,0-.02-.01-.08-.02-.08h0ZM8.68,8.18s-.03,0-.08.04c-.07.05-.15.1-.16.12,0,.02,0,.07,0,.12.01.05.02.08.03.13,0,.04.04.16.06.24.01.04,0,.05.1-.03.11-.08.15-.13.17-.18.03-.08.02-.14-.03-.18-.02-.02-.03-.03-.02-.07.01-.04.01-.08,0-.12-.02-.05-.03-.07-.08-.07h-.02s0,0,0,0ZM8.66,8.29s.02,0,.03.02c.01.04,0,.08-.05.12-.03.03-.07.06-.08.05,0,0-.01-.02-.02-.04s0-.05,0-.06c0-.02,0-.02.03-.05.04-.03.07-.05.1-.05h0ZM8.28,8.47s0,0,0,0c-.01,0-.05.04-.05.05,0,0,0,.03.01.05,0,.02.01.04.02.06,0,.01,0,.03,0,.03.01.03.03.07.03.08,0,.02.02.07.04.13,0,.02.01.04.02.06,0,.01,0,.04.02.05.02.04.04.04.06,0,.01-.02.01-.03.01-.05,0-.02,0-.05-.01-.07l-.03-.08-.05-.14-.03-.08s-.02-.05-.03-.08c0-.02-.01-.03-.02-.03h0ZM8.71,8.51s.02,0,.03.01c.01.02.02.05.01.07,0,.02-.01.03-.03.04-.01.01-.03.02-.03.02s-.02,0-.03.01c-.04.02-.04.02-.05,0-.02-.04-.02-.08-.02-.1s.06-.05.08-.06c.01,0,.02,0,.04,0h0ZM7.93,8.76s0,0,0,0c0,0-.01,0-.02.02-.03.03-.03.03,0,.14v.04s.02.03.02.05.02.05.02.06.01.04.02.05.01.04.02.06c0,.04.02.09.04.13v.03s.02,0,.02,0h0s.03-.05.05-.07l.05-.04s.02-.02.04-.04.04-.04.06-.05c.03-.02.03-.03.03-.05,0-.01,0-.03,0-.05,0-.02-.01-.02-.02-.02-.02,0-.05.03-.08.06-.01.01-.02.03-.04.04,0,0-.03.03-.04.04-.03.04-.04.03-.05-.02l-.07-.25c-.02-.08-.03-.11-.04-.12h0s0,0,0,0h0ZM7.95,9.45l-.15-.67"/>
    </g>
  </g>
</svg>