<?xml version="1.0" encoding="UTF-8"?>
<svg id="Layer_2" data-name="Layer 2" xmlns="http://www.w3.org/2000/svg" viewBox="0 0 32.31 17.01">
  <defs>
    <style>
      .cls-1, .cls-2 {
        fill: #30a17f;
      }

      .cls-3 {
        fill: #bc7f5a;
      }

      .cls-4 {
        fill: #6c7588;
      }

      .cls-5 {
        fill: #010101;
      }

      .cls-6 {
        fill: #3a6e4c;
      }

      .cls-6, .cls-7, .cls-2 {
        fill-rule: evenodd;
      }

      .cls-8 {
        fill: #ddbc67;
      }

      .cls-9, .cls-7 {
        fill: #f5c614;
      }

      .cls-10 {
        fill: #3a704c;
      }

      .cls-11 {
        fill: #060606;
      }

      .cls-12 {
        fill: #222160;
      }

      .cls-13 {
        fill: #fff;
      }

      .cls-14 {
        fill: #8c594c;
      }

      .cls-15 {
        fill: #a3bde3;
      }

      .cls-16 {
        fill: #f6dacb;
      }
    </style>
  </defs>
  <g id="Layer_1-2" data-name="Layer 1">
    <g>
      <path class="cls-12" d="M0,17.01h32.31V0H0v17.01Z"/>
      <path class="cls-9" d="M16.16,11.54c1.96,0,3.54-1.58,3.54-3.54s-1.58-3.54-3.54-3.54-3.54,1.59-3.54,3.54,1.59,3.54,3.54,3.54"/>
      <path class="cls-13" d="M16.15,11.42c1.89,0,3.43-1.53,3.43-3.43s-1.54-3.42-3.43-3.42-3.42,1.52-3.42,3.42,1.53,3.43,3.42,3.43"/>
      <g>
        <path class="cls-6" d="M11.61,9.86l-.05.06c.08.03.49.68.52.74.02.02.01-.06.01-.06.02-.05-.43-.73-.49-.74Z"/>
        <path class="cls-2" d="M20.88,8.46l-.04.42s.04-.02.06-.02c0-.06.02-.29.03-.39-.03,0-.02,0-.06,0h0ZM20.87,9.36s-.1,0-.12,0c0,.03-.23.8-.23.8l-.19.45.05.05.21-.48s.3-.83.3-.83h0ZM12.24,10.61s-.12-.03-.12-.02c.05.09.12.17.17.27,0,0-.03,0-.02.03,0,.02.04,0,.06.03.02.02.05.08.05.09,0,.02-.07.02-.1.03-.05.02-.09.04-.14.08l-.03.02c.08,0,.11-.04.17-.05.06,0,.2,0,.2,0l.26.34s-.2-.05-.23-.04v.03c.05,0,.14.01.19.03.07.02.16.13.17.14.03,0,0,.09-.02.11v.02s.04,0,.06-.01c.08-.03.13.04.18.08.02.01.02.02.03.04-.14.01-.14.05-.21.07-.08.02-.23.04-.23.04,0,0,.05.03.07.04.1.02.21.02.32-.02.04-.01.12-.07.12-.07.1.08.11.1.21.16-.23-.04-.23.08-.34.12-.06.02-.12.05-.18.07-.06.02-.17.07-.17.07.21.03.25,0,.38-.01.17-.01.28-.3.51-.06-.04.01-.13.07-.19.12-.05.05-.11.18-.11.18l-.35-.05s.22.15.25.17c-.05.06-.07.1-.11.16.06-.05.1-.11.18-.12.02.01.15.04.22.03.09-.01.17-.06.25-.1.04-.02.08-.05.13-.07.02-.01.05-.02.07-.03.02,0,.1-.05.12-.05.06.02.19.09.19.09-.13.02-.27.11-.35.19-.27.26-.32.2-.68.36.04.03.38,0,.38,0,.29-.03.33-.13.54-.29.04-.03.07-.05.12-.09.05-.03.1-.04.15-.06.06-.02.17.05.17.05,0,0,.04.02.07.05-.09,0-.18.04-.25.1-.1.07-.15.2-.22.28-.03.04-.05.06-.09.09-.1.08-.11.07-.23.11.19,0,.39-.09.55-.2.08-.05.12-.16.21-.21.09-.05.29-.09.29-.09l.16.06c-.18.09-.29.09-.44.36-.07.13-.12.17-.19.26-.04.05-.1.08-.12.13,0,.02-.01.05,0,.07.19-.03.43-.2.52-.3.05-.06.1-.17.16-.25.06-.08.19-.21.19-.21l.28.03c-.06.01-.34.12-.4.22-.08.11-.02.35-.28.53-.04.03-.02,0-.05.04.02,0,.24-.1.27-.12.05-.03.07-.05.11-.08.03-.02.18-.26.2-.3.07-.16.13-.29.34-.26.08,0,.11.02.11.02-.03.02-.15.3-.15.3,0,0-.16.03-.23.07-.05.03-.13.13-.13.13,0,0,.04.05.06.05.07.02.17-.09.29-.16.01.02-.15.4-.2.55-.05.13.14-.17.2-.26.05-.09.11-.18.14-.28,0-.03,0-.05,0-.09.04-.03.02-.02.07-.05l.28-.16s.09-.05.14-.06c.02,0,.03,0,.05,0,.11.09.25.16.36.26.02.02.04.05.05.08,0,.01,0,.03.01.04.02.04.04.08.06.11.03.03.06.06.09.08.02.02.05.03.07.04.07.05.12.08.2.15,0-.11-.11-.31-.2-.43-.05-.07-.17-.14-.19-.16,0-.02-.04-.14-.08-.22.06-.02.17-.04.24-.04.22,0,.18.16.33.35.05.06.12.13.22.18,0,.05.02.1.04.14.04-.02.1-.05.12-.07.05.03.09.08.17.14,0-.08-.15-.21-.15-.21,0,0,.02-.33-.03-.44-.04-.07-.12-.14-.17-.17-.01,0-.02-.01-.05-.02.2-.02.11-.06.24.09.1.12.27.13.42.14.21.02.31.18.51.25l-.16-.2c-.17-.17-.27-.08-.47-.25-.09-.08-.14-.06-.26-.1.22-.03.18-.05.33.05.33.22.55.13.89.08.04,0,.17,0,.2-.02l-.02-.02c-.06-.03-.21-.04-.27-.04-.26-.02-.35-.12-.55-.16-.09-.02-.2-.02-.2-.02.09-.02.2-.09.28-.11.05-.01.09-.04.13-.04.14.04.21.08.35.13.27.07.31.08.54.01,0,0,.31,0,.46-.03.03,0,.05-.02.08-.04-.14,0-.13,0-.2,0-.05,0-.12-.01-.14-.02.01,0,.2-.08.21-.09,0,0-.14.03-.21.04-.08,0-.25,0-.25,0-.09-.04-.08-.13-.13-.2-.1-.15-.11-.12-.18-.15.04-.03.04-.02.08-.05.09-.06.23-.03.26,0,.07.04.11.14.17.18l.08.04c-.02-.06-.04,0-.13-.21-.03-.08-.1-.14-.19-.14-.01,0-.03,0-.04,0,.03-.02.06-.04.07-.05.18-.07.33-.02.48-.09.06-.03.08-.05.14-.12-.08-.01-.14.04-.22.05-.08.01-.25.02-.25.02.01-.02.12-.11.15-.13.06-.04.17-.07.26-.09l-.03-.04-.15.06s.25-.26.29-.31c.05-.02.18-.05.2-.07-.03,0-.02,0-.02-.01l-.15.04s.03-.04.05-.07c.01,0,.07-.03.09-.06.04-.04-.02-.03-.04-.04.04-.06.34-.26.34-.22l-.02-.06s-.22.14-.24.15l.19-.25-.07-.02-.22.3s-.01-.08,0-.12c0-.05.06-.12.06-.15,0-.01-.03-.06-.03-.07,0,0-.06.13-.08.2-.01.06-.01.16-.02.19-.02.04-.18.27-.21.29-.06.05-.09.02-.1,0,0,0,0,.09,0,.11,0,.03-.06.07-.07.1-.02.04-.1.1-.13.13,0-.15-.01-.44-.02-.53-.05.1-.04.44-.04.5,0,.08-.02.12-.07.16-.02.02-.1.08-.13.09,0-.18.03-.3,0-.43-.02-.06-.1-.12-.1-.17,0-.09.05-.2.05-.25,0,0-.06.1-.09.15-.09.16-.21.28-.26.47-.07.26.12.38-.08.58-.03.03-.1.08-.15.09l.08-.28c.04-.09.11-.46.11-.57,0-.05.01-.29,0-.31-.08.13-.12.17-.15.33,0,.03.01.32-.02.47-.03.16-.13.37-.18.46-.16.04-.28.14-.33.15.18-.28.19-.34.26-.52.04-.1.04-.21.07-.32.04-.13.13-.37.13-.37-.02.01-.09.09-.12.14-.1.16-.16.32-.25.5-.07.05-.14.1-.21.15-.05.04-.05.08-.14.13.07-.18.05-.37.03-.44,0-.07.05-.12.06-.18,0,0-.1.08-.13.14-.09.18-.11.58-.12.59-.38.2-.36.32-.47.4-.05.04-.14.06-.22.06l.03-.04s.02-.02.03-.03c.12-.1.05-.05.18-.14.34-.23.29-.67.35-.83.01-.03.02-.04.02-.08l-.09.21c-.08.18-.27.37-.37.51-.04.06-.07.12-.11.19-.08.14-.15.21-.34.24-.04,0-.16.03-.2.03.08-.03.14-.17.28-.26.05-.03.09-.05.14-.08.05-.03.08-.06.13-.09.22-.2.1-.27.35-.64.01-.02.03-.04.04-.06,0,0-.14.17-.21.25-.07.08-.13.19-.21.25-.14.1-.3.16-.4.29-.03.04-.05.1-.08.15-.07.13-.12.16-.21.19-.03.01-.07.02-.09,0-.09-.05-.15-.01-.18-.26-.05-.39-.1-.37-.36-.64-.05-.05-.03-.05-.1-.1.02.18.14.36.22.48.09.13.1.23.15.37.01.04.04.08.05.12-.05,0-.14,0-.13,0l-.19-.05c-.09-.05-.14-.28-.22-.39,0-.01-.05-.08-.05-.09.02-.11,0-.44-.02-.55-.06.06-.04.2-.04.29,0,.05-.02.07-.02.1-.08-.16-.13-.29-.22-.41-.03.08.05.53.1.61,0,.03-.01.05-.03.1,0,.03-.03.1-.03.14,0,.06,0,.14,0,.14-.02,0-.04-.01-.06-.02-.1-.09-.12-.19-.15-.29-.08-.23.03-.43-.12-.71-.02-.04-.04-.08-.08-.09l.05.25c.02.18-.05.29,0,.55.03.13.07.21.07.21l-.2-.12c.03-.1.05-.32-.03-.57-.06-.2-.13-.28-.23-.39,0,0-.03-.02-.03-.02,0,0,0,.08,0,.11.02.08.08.14.11.24.03.1.04.21.05.31,0,.06,0,.11.01.17,0,.04.01.06.01.11-.08-.03-.22-.09-.22-.09,0-.05,0-.06,0-.12,0-.13.05-.31.05-.46,0-.08-.04-.45-.09-.51-.03.28-.03.36-.04.54-.01.09-.03.19-.04.28-.01.11,0,.16.02.23-.05-.02-.12-.06-.14-.06-.13-.06-.08-.34-.09-.45,0-.14-.12-.27-.12-.27.04-.12.06-.31.04-.36,0,.05-.01.12-.03.17,0,.02-.03.13-.11.2-.11.1-.2.26-.17.42l-.14-.1c-.12-.32.2-.33.13-.7-.05.07-.04.2-.14.32-.15.17-.1.19-.1.32-.11-.09-.2-.12-.1-.29.03-.05.06-.23-.02-.31-.02.05-.02.15-.04.22-.01.06-.06.06-.05.19,0,0-.05-.09-.06-.14-.02-.08.03-.19,0-.26-.04.09-.04.19-.05.28-.05-.04-.07-.04-.07-.12h-.02s-.02.02-.02.02l-.06-.07s-.07-.09-.08-.11c-.05-.09-.03-.16,0-.25-.01.01-.07.01-.08.02-.01,0,.04.03.03.14-.06-.08-.03-.04-.1-.13-.02-.03.05-.16.03-.19,0-.01-.07.09-.09.09-.02,0-.02-.05-.03-.05-.02-.04.02-.06.01-.1l-.05.05s-.14-.18-.17-.21c-.03-.04-.09-.11-.11-.14l.07.04ZM19.34,10.94c.03.17.16.22.23.27.03.02.06.06.07.11.02-.07.04-.05.04-.09,0-.05-.16-.17-.25-.22l-.08-.07ZM19,11.5c.05.08.03.2.04.3,0,.1.03.23-.01.29,0,0-.17.13-.2.15.03-.15.09-.44.13-.56.01-.03.03-.11.05-.17h0ZM13.79,11.73l.02.07c.01.06-.02.17-.02.25,0,.1,0,.15,0,.24l-.14-.1c0-.15.07-.33.13-.45h0ZM18.08,12.28s-.01.08-.04.14c-.04.09-.06.2-.12.25-.06.06-.17.1-.26.11,0,0,.05-.07.05-.1,0,0,.11-.08.15-.11.09-.08.11-.19.19-.27.01-.01.03-.02.03-.02h0ZM13.65,12.34s.1.02.18.07c-.04,0-.08.01-.14.03-.09.04-.14.11-.22.13-.04,0-.12-.02-.12-.02.01,0,.02-.03.08-.08.04-.04.07-.06.13-.1.03-.02.06-.03.1-.03ZM18.79,12.38c.17.03.12.22.17.25-.11-.02-.19-.06-.29-.09-.05-.02-.11-.02-.16-.02l.28-.14ZM15.23,12.66s.04.05.07.07c.07.05.15.12.17.22-.11,0-.21-.03-.29-.05v-.06c.03-.06.06-.18.06-.18h0ZM17.58,12.73s-.03.07-.08.09c-.05.02-.18.05-.23.04.04-.02.18-.08.31-.13h0ZM17.17,12.97c.1,0,.14.08.18.15.06.12.02.32.02.32-.15-.17-.23-.39-.48-.42.04-.02.24-.04.28-.05h0ZM15.79,13.06c.09,0,.24.05.24.05-.16.08-.23.13-.38.2,0,0,.04-.19.07-.24,0-.01.03-.01.06-.01h0ZM16.49,13.09s.05.1.05.16c-.07,0-.17-.1-.21-.14l.17-.02Z"/>
        <path class="cls-12" d="M19.65,11.24s-.04-.05-.07-.08c-.04-.04-.09-.06-.12-.08-.03-.03-.07-.07-.1-.1,0,0,.04.04.1.1.03.03.08.05.12.09.02.02.05.05.06.07,0,0,0,0,0,0,0,.01.01.04.02.05,0,0,0,0,0,0,0,0,0,0,0,0,0,0,0,0,0,0,0,0,0,0,0,0,0-.01-.01-.04-.02-.05,0,0,0,0,0,0h0Z"/>
        <path class="cls-7" d="M20.92,7.88s-.05.04-.08.07c-.02.03-.04.06-.06.08-.03.04-.06.07-.08.11-.01.04-.02.08,0,.11.01.03.05.03.06.06.02.02.02.06.03.08.02.03.04.05.07.06.03.01.06.02.09.01.03-.01.05-.05.07-.08.02-.03.06-.06.07-.09,0-.02-.02-.03-.02-.05,0-.04.06-.06.06-.1,0-.05,0-.11-.03-.14-.02-.02-.06,0-.08-.02-.04-.02-.06-.11-.11-.11h0ZM20.37,8.25s0,0,0,0c-.04,0-.08.03-.12.04-.02,0-.03,0-.05,0-.02.01-.05.03-.06.05,0,.03,0,.07.03.09.02,0,.04-.02.07-.02.02,0,.04.03.06.03.03,0,.05,0,.08,0,.03,0,.05.04.08.04.03,0,.07-.02.1,0,.03.02.03.06.05.08.02.03.06.05.06.08,0,.03-.04.05-.04.07,0,.05.01.11.05.15,0,0,0,0,.01,0,.05,0,.11,0,.14-.04.01-.02,0-.05,0-.07,0-.03.01-.06.02-.1,0-.03.01-.07,0-.1,0-.04-.04-.07-.05-.1-.02-.03-.03-.06-.05-.08-.02-.01-.05,0-.07-.02-.03-.02-.05-.06-.08-.08-.03-.01-.07,0-.11,0-.04,0-.07-.02-.11-.02h0ZM21.25,8.36s-.07.03-.1.05c-.04.02-.11.02-.12.06,0,.02.03.03.02.05,0,.02-.03.02-.04.03-.02.01-.04.02-.05.04-.02.03-.05.06-.03.09,0,0,.04-.02.06-.02.02,0,.04,0,.05,0,.03-.01.04-.05.07-.06.03-.01.06,0,.1,0,.05,0,.09-.03.14-.02.05,0,.1.07.15.07.04,0,.09-.01.1-.05.02-.06-.03-.13-.08-.16-.04-.03-.1-.01-.16-.02-.03,0-.06-.04-.09-.04h0ZM20.12,8.67s-.01,0-.02,0c0,0-.01.02-.02.03,0,.03.01.06.01.08,0,.02,0,.04,0,.06,0,.02.02.04.03.06,0,.02,0,.04.02.05.03.02.07,0,.1.02.04.02.06.06.09.07.04.02.1,0,.14.01.03.02.05.05.07.08.04.06.16.18.1.22-.02.02-.07-.06-.09-.07-.04-.03-.08-.07-.13-.07-.05,0-.14.03-.14.09,0,.03.05.03.08.04.04.02.09.02.13.05.07.05.11.2.19.18.02,0,.04-.04.04-.06,0-.04-.02-.05,0-.09.02-.03,0-.05.03-.03,0,0,.01.03.02.03.02,0,.04,0,.06-.02.01,0,.04-.05.04-.05.02-.03.07-.03.09-.06,0-.01,0-.04,0-.05.02-.02.05-.03.07-.05.02-.03,0-.1.03-.12.04-.03.1,0,.14.01.06,0,.13,0,.19.01.05.02.23.19.28.16.03-.02,0-.08,0-.12,0-.04.03-.09,0-.13-.02-.02-.13-.05-.15-.07-.03-.02-.12-.1-.15-.11-.02,0-.04.01-.06,0-.01,0-.02-.02-.04-.03-.02,0-.03.02-.05.01-.03,0-.04-.04-.07-.06-.03-.02-.07-.01-.1-.02-.03-.01-.06-.06-.09-.05-.02,0-.02.04-.04.05,0,.01-.02.02-.03.03-.02.01-.04.02-.06.03,0,0-.02.06-.03.07-.03.03-.05.07-.09.08-.02,0-.04.01-.05,0-.03-.01-.05-.05-.07-.08-.02-.03-.04-.07-.06-.09-.04-.04-.09-.06-.14-.08-.04-.01-.07-.04-.11-.03-.02,0-.02.03-.04.03-.05.01-.1-.05-.15-.05h0ZM21.16,9.44s0,0,0,0c-.02,0-.02.02-.04.03-.01,0-.03,0-.04,0-.01,0-.02.02-.03.02-.02,0-.04,0-.06,0-.03.01-.04.04-.07.06-.02.01-.05,0-.07.02-.01.01-.02.03-.03.05-.02.03-.06.05-.08.09-.01.02-.04.05-.02.07.1.11.28-.1.43-.1.09,0,.18.04.28.05.05,0,.1.04.14.02.02-.02.02-.06.01-.09,0-.03-.03-.06-.05-.08-.03-.03-.08-.02-.11-.04-.03-.02-.04-.05-.08-.06-.03-.01-.07.01-.1.01-.02,0-.04-.02-.06-.02h0ZM20.39,9.57s-.03,0-.04,0c-.02,0-.03.03-.02.05,0,0,.02,0,.03.01.03.02.05.04.06.08,0,.02-.02.05-.01.08,0,.03.03.04.04.07,0,.03-.03.06-.02.1,0,.02.02.03.03.04.02.05-.03.12,0,.16.01.01.04,0,.05,0,0,0,0,.01,0,.02.01,0,.02-.01.03-.02.01-.01.02-.02.03-.04.02-.03.04-.06.05-.1,0-.04,0-.09,0-.13,0-.07,0-.13-.03-.2,0-.02-.02-.03-.03-.04-.05-.03-.11-.08-.16-.08h0ZM19.88,9.62s0,0,0,0c-.02,0-.04.03-.06.04-.03.01-.07,0-.08.02-.02.04.02.09.05.12,0,0,.04.03.06.04.05.02.1,0,.15.02.02,0,.03.01.04.03.13.15.07.52.26.54.02,0,.03,0,.04,0,.06,0,.04-.11.05-.16,0-.04,0-.09,0-.13,0-.03.01-.06.01-.1,0-.03-.02-.05-.03-.08,0-.02,0-.05-.01-.07-.01-.03-.04-.05-.05-.07-.02-.03-.03-.07-.06-.09-.02-.02-.05-.01-.07-.02-.03-.02-.05-.05-.08-.06-.02,0-.05,0-.07,0-.01,0-.03-.01-.04-.02-.02,0-.03,0-.05,0-.02,0-.04-.01-.06-.01h0ZM20.85,9.97s0,0,0,0c-.04.01-.07.05-.1.07-.02,0-.04,0-.06,0-.02,0-.04,0-.06.01-.01,0-.02.03-.02.04-.02.04-.07.08-.06.13,0,.03.05.05.08.06.06,0,.11-.08.17-.08.07,0,.12.07.16.12.02.03,0,.08.02.11,0,.03.03.06.03.1,0,.03-.04.06-.03.09.01.04.06.08.1.09.03.01.07.01.1-.01.03-.02.01-.07.02-.1,0-.03.02-.05.02-.08,0-.04-.02-.08-.02-.13,0-.02.01-.04.01-.06,0-.03-.03-.06-.03-.1,0-.02.03-.03.02-.05,0-.04-.07-.05-.09-.09-.01-.02,0-.05-.02-.07-.03-.03-.08-.03-.12-.04-.03-.01-.07-.03-.1-.03,0,0,0,0,0,0h0ZM19.81,10.28s-.02,0-.03.01c-.03.02-.09.02-.08.06,0,.03.06.02.08.04.01.01.02.03.03.04.02.02.05.03.07.05.02.02.05.05.04.08,0,.01-.03,0-.03.02-.01.04.03.09.05.13.02.05.03.11.07.13.02.01.04,0,.07,0,.03,0,.05-.02.08-.02.02,0,.03.01.05.02.02,0,.04-.01.06,0,.03,0,.08.04.08.04-.02.02-.04.04-.04.07,0,0,0,.02,0,.03.01.02.04.02.06.02.02,0,.03-.02.05-.02.02,0,.04.01.06.01.03,0,.05-.02.07-.02.03,0,.05.04.08.05.02,0,.04,0,.06.01.02,0,.03.04.05.04.02,0,.03-.04.03-.07,0-.03-.01-.06-.03-.08-.03-.05-.08-.08-.14-.1-.01,0-.02-.04,0-.04.05,0,.1.01.14.03.02.01.04.03.06.04.03.02.05.04.07.06.02.02.04.04.06.07.02.02.02.08.05.08.02,0,.04-.03.05-.06,0-.01.02-.03.02-.04,0-.05-.04-.09-.06-.13-.01-.04-.01-.08-.03-.11-.02-.03-.06-.05-.08-.08-.03-.03-.05-.06-.08-.08-.03-.01-.06,0-.09-.02-.03,0-.06-.03-.08-.03-.02,0-.02.03-.04.04-.03.01-.06,0-.09.02-.02,0-.04.01-.06.02-.02,0-.04.01-.05.03,0,.01-.01.03,0,.04,0,0-.03-.06-.05-.08-.03-.04-.07-.09-.11-.1-.04,0-.08.05-.13.04-.04-.01-.06-.06-.09-.09-.02-.02-.03-.06-.06-.08-.03-.03-.07-.03-.11-.05-.01,0-.03-.01-.04-.01h0ZM19.48,10.51s-.05,0-.08,0c-.03,0-.08-.02-.1,0-.02.03-.01.08.01.1.01.01.03,0,.05,0,.02,0,.03.04.05.05.03.02.08.01.11.04.02.02.01.06.03.09.02.04.06.06.07.09.03.06.03.12.04.18,0,.02.01.05,0,.07,0,.03-.04.06-.04.09,0,.04.01.09,0,.14,0,.03-.04.07-.03.1,0,.02.03.03.04.03.03,0,.05-.05.07-.08.02-.04.01-.09.03-.13.01-.04.05-.06.06-.1,0-.04-.03-.08-.02-.13,0-.05.06-.08.06-.12,0-.02-.03-.03-.04-.06,0-.03.02-.07,0-.1-.01-.04-.06-.07-.08-.11-.02-.03,0-.07-.03-.1-.03-.03-.07-.01-.11-.03-.03-.01-.06-.04-.09-.05,0,0-.02,0-.03,0h0ZM20.32,11.1s-.05.02-.07.03c-.02,0-.05-.02-.07-.01-.02,0-.04.03-.06.03-.02,0-.04,0-.06.01-.02,0-.04.02-.06.04-.02.02-.04.05-.03.08,0,.02.04.02.06.03,0,0,.02.01.02.01.12.04.27-.04.37.04.03.03.01.09.04.13,0,.01.02.02.03.03,0,.01,0,.03,0,.04.01.03.04.07.07.07.02,0,.03-.02.04-.04.01-.02.02-.05.02-.08,0-.03-.02-.06-.02-.09,0-.04.02-.08.01-.11,0-.03-.04-.05-.06-.08-.02-.02-.03-.06-.05-.07-.03-.02-.07-.01-.1-.03-.02-.01-.04-.04-.06-.04h0ZM20.07,11.45s-.07.03-.09.03c-.03,0-.07,0-.1,0-.03.01-.04.05-.06.07-.03.02-.09.01-.09.05,0,.03.03.06.05.08.03.03.07.04.11.05.05,0,.09-.03.14-.03.05,0,.09.03.13.04.02,0,.05,0,.06.01.04.04.02.11.04.16.02.04.05.07.06.11,0,.02-.01.04,0,.06.01.02.04.03.06.02.02,0,.02-.03.03-.05.02-.02.04-.02.06-.04.01-.02.03-.03.04-.05,0-.02-.01-.05-.01-.07,0-.03.01-.06,0-.09,0-.03-.04-.04-.06-.06-.02-.03-.02-.08-.05-.11-.02-.02-.06-.02-.08-.03-.02-.02-.04-.05-.06-.06-.03-.02-.07,0-.1-.02-.03-.01-.05-.05-.08-.05h0ZM11.46,7.89s-.04,0-.06,0c-.02.01-.02.04-.03.06-.01.01-.03.02-.04.04-.02.04,0,.09-.02.13,0,.02-.03.04-.03.06,0,.02.02.05,0,.07,0,0-.02-.01-.03,0-.02.02.02.08,0,.1-.05.03-.1-.09-.16-.09-.03,0-.05.03-.07.04-.02,0-.04,0-.06,0-.02,0-.03-.03-.05-.03-.03,0-.04.05-.06.07-.04.02-.09,0-.13.03-.05.04-.15.13-.1.18.02.02.08,0,.09.02.02.05.11-.03.16-.03.06,0,.12,0,.18,0,.05,0,.1.03.14.05.02.01.04.02.06.04.02.02.07.02.07.05,0,.01-.02.02-.03.03-.03.02-.09.02-.11.06-.02.03,0,.07-.02.11,0,.02-.02.05-.04.06-.03.02-.06.01-.09.01-.03,0-.05-.02-.08-.02-.03,0-.05.05-.09.06-.02.01-.05,0-.07.03-.02.02,0,.05-.02.07-.01.02-.04.02-.05.04-.02.04-.02.09.01.12.01.01.04,0,.05,0,.02,0,.03,0,.05,0,.05,0,.1-.06.15-.07.03,0,.07,0,.1,0,.04,0,.09-.02.13-.02.04,0,.09,0,.11.03.03.05-.05.12-.02.17.02.03.06.03.09.03.03,0,.06.01.09,0,.02,0,.03-.02.05-.02.04,0,.08.05.12.05.03,0,.05-.03.08-.04.02-.01.05-.01.08-.03.02-.01.03-.04.05-.05.03-.02.07-.01.09-.03.02-.02.01-.05.03-.07.02-.02.05-.01.06-.03.02-.04-.02-.09-.02-.14,0-.02.02-.05,0-.07,0-.02-.04-.03-.05-.06,0,0,0-.02-.01-.03-.01-.01-.03,0-.04-.02-.02,0-.03-.03-.05-.04-.02,0-.05,0-.07,0-.03,0-.08-.02-.08-.05,0-.01.02-.01.03-.02.04-.02.08-.03.12-.05.03-.01.06-.04.09-.05.06,0,.12.04.19.04.01,0,.02-.01.03-.01.02,0,.04.01.06.01.02,0,.04,0,.05,0,.02-.02.03-.05.02-.07,0-.04-.05-.07-.08-.11-.02-.03-.03-.07-.06-.09-.02,0-.04,0-.05,0-.02,0-.03-.03-.05-.03-.01,0-.02.02-.04.02-.02,0-.04-.02-.06-.02-.03,0-.05.02-.08.03-.04,0-.08.04-.12.02-.03-.01-.03-.05-.04-.08,0-.03,0-.05,0-.08,0-.03-.03-.05-.04-.07,0-.03,0-.05,0-.08-.01-.04-.04-.08-.06-.12,0-.02,0-.04-.02-.05-.02-.02-.05-.02-.07-.03-.01-.01-.01-.04-.03-.05-.02-.01-.04,0-.06,0h0Z"/>
        <path class="cls-12" d="M11.91,10.14l-.02.1.07-.02.05-.08-.07-.04-.03.04Z"/>
        <path class="cls-7" d="M12.35,9.57s-.08,0-.11.02c-.02.01-.01.04-.03.05-.01.01-.04,0-.05.01-.01,0-.02.02-.03.02-.01,0-.03.01-.04.02-.01.02-.01.05-.02.07-.02.02-.05.03-.06.06-.01.03,0,.06-.01.09,0,.02-.03.03-.04.04-.01.03.01.09-.02.1-.03.01-.05-.06-.08-.05-.03,0-.03.05-.04.08-.03.05-.04.11-.09.14-.02,0-.04,0-.06,0-.04,0-.08-.03-.12-.02-.04,0-.06.07-.1.07-.02,0-.03-.03-.06-.03-.03,0-.05.04-.07.06-.03.02-.08,0-.11.03-.02.02,0,.07-.02.1-.01.02-.04,0-.06.02-.04.04-.05.11-.06.17,0,.08-.04.2.03.24.02.01.04-.01.06-.03.03-.03.03-.08.05-.11.03-.04.08-.07.11-.1.04-.04.05-.11.1-.13.04-.02.09,0,.14,0,.06,0,.13.01.19,0,.02,0,.04-.04.06-.04.02,0,.04.02.06.03.03.02.05.05.07.07.02.02.04.03.06.05.04.03.05.09.1.11.02,0,.04,0,.06-.01.02,0,.06,0,.07-.02.02-.02,0-.07.02-.1.03-.09.06-.19.13-.24.1-.06.23,0,.34-.03.01,0,.04,0,.04-.02,0-.08-.1-.13-.18-.16-.04-.02-.08,0-.12,0-.03,0-.05-.01-.08,0-.02,0-.04.04-.06.05-.02,0-.04,0-.06,0-.04.02-.04.1-.08.1-.02,0-.03-.03-.05-.05-.02-.03-.06-.05-.06-.08,0-.05.03-.1.06-.14.03-.05.06-.11.11-.14.04-.02.09-.02.14-.02.03,0,.07.03.1,0,.05-.03.08-.1.06-.15-.01-.04-.07-.04-.11-.06-.03-.01-.06-.04-.1-.04h0ZM11.54,9.96s.05,0,.06-.02c.03-.04.05-.1.03-.14-.02-.05-.07-.08-.12-.12-.04-.04-.08-.08-.13-.1-.04-.02-.1,0-.14-.01-.04-.01-.06-.05-.1-.05-.03,0-.06.03-.09.03-.03,0-.05-.02-.08-.01-.05.01-.08.06-.13.09-.04.02-.09.03-.12.07-.03.04-.09.09-.07.14.02.05.14,0,.16.02.07.11.26-.04.39-.02.12.02.24.06.34.13h0ZM12.88,11.68s.03-.05.01-.08c-.02-.03-.06-.02-.09-.03-.01,0-.03,0-.04,0-.03,0-.07,0-.1.02-.05.02-.1.04-.14.07-.02.01-.03.03-.05.04-.01,0-.03,0-.04.02,0,0,0,.02-.01.03-.03.04-.09.06-.1.11,0,.03.03.05.03.08,0,.03-.04.04-.04.06-.01.05.01.11.01.17,0,.03-.02.06,0,.09.02.06.05.15.11.16.04,0,.06-.06.08-.1.04-.1,0-.21.02-.32.01-.05.03-.11.06-.15.05-.06.14-.07.21-.11.02-.01.07-.01.07-.04,0-.01,0-.02.02-.03h0ZM12.02,10.73s-.06.03-.09.03c-.03,0-.06-.01-.09,0-.02,0-.04.03-.07.04-.02,0-.04,0-.06,0-.02,0-.05,0-.07.03-.04.04-.03.11-.06.15-.01.02-.04.02-.05.03-.02.02-.02.05-.03.08-.02.06-.09.13-.05.18.02.04.09.03.13,0,.04-.02.05-.07.08-.1.06-.06.13-.12.2-.17.04-.02.09-.04.14-.05.07-.01.15,0,.23,0,.02,0,.03,0,.05,0,.02-.01.05-.04.05-.07,0-.02,0-.05-.02-.06-.04-.04-.11-.02-.16-.04-.04-.02-.08-.05-.12-.06h0ZM12.25,11.26s-.04,0-.06.01c-.04.02-.05.06-.08.09-.04.04-.1.06-.14.1-.02.02-.03.05-.05.07-.01.02-.04.02-.05.04-.01.02,0,.05-.02.07-.01.03-.05.04-.05.07-.01.07,0,.2.07.2,0,0,.05,0,.06,0,.03-.01.04-.05.06-.08.02-.04.03-.09.06-.13.03-.04.07-.06.11-.09.03-.03.06-.06.1-.08.05-.03.1-.07.15-.09.03-.01.1.01.11-.03,0-.02.02-.02.05-.03.02,0,.05,0,.05-.03,0-.04-.03-.08-.07-.09-.03-.01-.07.01-.1.01-.06,0-.13-.02-.19-.02h0ZM12.92,10.88c.06-.04.12-.07.18-.09.09-.03.22.05.27-.03,0-.02-.01-.04-.02-.05-.02-.03-.04-.06-.07-.07-.04-.02-.08,0-.12,0-.04,0-.07-.02-.11,0-.01,0-.02.02-.04.02-.03,0-.07-.02-.1,0-.04.02-.06.07-.09.1-.05.05-.1.08-.14.14-.02.03-.02.06-.03.09,0,.03-.03.05-.03.08,0,.04,0,.09.04.1.03,0,.05-.02.07-.04.03-.04.05-.09.08-.13.04-.04.08-.08.13-.11h0ZM13.21,11.26c.06.01.13.08.17.03.05-.07-.05-.18-.12-.23-.03-.03-.08-.01-.13-.02-.03,0-.06-.03-.09-.02-.03,0-.05.03-.07.04-.02,0-.04,0-.06,0-.05.02-.08.08-.09.13,0,.03,0,.06,0,.09,0,.08-.03.17.02.23.01.02.04.03.06.02.08-.04,0-.2.06-.26.03-.02.07-.02.1-.02.05,0,.09.02.14.03h0Z"/>
        <path class="cls-7" d="M11.5,9.44s0,.05,0,.07c0,.01.01.02.02.03,0,0,.02.01.02.02,0,.02,0,.04.01.05.01.02.03.03.05.04.01.02.02.04.03.06.01.03.02.07.03.11.01.06.01.13.02.19.01.07.01.15.04.2,0,0,.02-.01.04-.03,0-.01.02-.04.02-.05,0-.02.01-.03.02-.05.02-.02.03-.05.04-.08.02-.06,0-.13.02-.19.03-.07.1-.11.14-.16.08-.1.13-.25.25-.3.05-.02.11.02.15,0,.03-.02.05-.06.05-.09-.02-.07-.1-.12-.16-.13-.02,0-.04.02-.06.02-.03,0-.06,0-.08,0-.02,0-.05,0-.06.02-.02.01-.02.04-.04.06-.01.01-.03,0-.04.02-.01.01,0,.04-.01.05-.01.02-.04.01-.06.03-.01.02,0,.05,0,.06-.01.02-.03.02-.05.03-.02.02-.02.06-.05.08-.01.01-.03,0-.05.02-.02.01-.03.03-.04.04,0,0,0-.06-.02-.09,0-.01-.01-.02-.02-.03-.02,0-.04.02-.07.01-.03,0-.06-.04-.09-.05-.02,0-.04,0-.05.01h0ZM12.54,10.73s-.07.08-.08.12c0,.03-.01.07.01.08.02.01.05,0,.08-.02.07-.04.11-.11.16-.17.03-.04.09-.07.09-.12,0-.04-.02-.11-.06-.11-.03,0-.02.08-.05.09-.03.02-.06,0-.09,0-.02,0-.04,0-.05.01-.02.03,0,.07,0,.11h0Z"/>
        <path class="cls-12" d="M20.87,7.91l-.02.02s-.02.08,0,.1c.01,0,.03,0,.04,0,.01,0,.03.02.03.04,0,.02-.02.03-.03.04,0,.02,0,.04,0,.06,0,.01.02.01.02,0,0-.01-.01-.03,0-.05,0-.02.03-.03.03-.05,0-.03-.02-.05-.05-.06,0,0-.02,0-.03,0-.03-.02-.01-.1-.01-.1h0ZM20.3,8.33s-.06,0-.09.01c-.03,0-.02.02,0,.02.03,0,.05-.01.08-.01.03,0,.06.02.08.02.03,0,.05,0,.08,0,.04,0,.08,0,.11.03.01.01,0,.04.02.05.02.02.07.02.09.04.02.03.03.07.03.11,0,.02.01.02.02,0,0-.05,0-.09-.03-.12-.02-.03-.07-.02-.09-.04-.01-.01,0-.04-.02-.05-.03-.03-.08-.03-.12-.04-.03,0-.05,0-.08,0-.03,0-.06-.02-.09-.03h0ZM21.25,8.45s-.04.01-.06.01c-.02,0-.04-.01-.07,0-.02,0-.05,0,0,.01.03,0,.04.01.06.01.02,0,.04-.01.06-.01.02,0,.04.03.06.03.02,0,.05-.01.07,0,.02,0,.04.02.05.03.04.04.03.01,0-.01-.02-.02-.03-.04-.05-.04-.02,0-.05.01-.07,0-.02,0-.04-.03-.06-.03h0ZM20.17,8.8s-.03,0,0,.02c.02.01.04.02.06.02.02,0,.04-.02.06-.01.03,0,.04.05.07.06.02,0,.05,0,.07,0,.02,0,.03.02.04.03.02.01.03.03.04.05,0,.01.01.03.02.05.01.03.01.06.03.08.01.02.04.02.05.03,0,0,0,0,.01.01,0,0,.01.02.01.03.01.05.03.04.02,0,0,0,0-.03-.01-.04,0,0-.01-.01-.02-.02-.02-.01-.04-.01-.05-.03-.02-.02-.02-.05-.03-.07,0-.02-.01-.03-.02-.05-.01-.02-.03-.03-.04-.05-.01-.01-.03-.02-.05-.03-.02,0-.05,0-.07,0-.03-.01-.04-.05-.07-.06-.02,0-.04.01-.06.01-.02,0-.03,0-.06-.02h0ZM20.88,8.8s-.02,0-.01,0c0,.03.02.04.03.07,0,.02.02.04.03.06,0,0,0,.01.01.01,0,0,.01,0,.02,0,.01,0,.02,0,.03,0,.01,0,.02-.02.03-.03.01,0,.03-.02.04-.02.03-.02.02-.02,0-.01-.02,0-.03.02-.04.02,0,0-.02.02-.03.02,0,0-.02,0-.03,0,0,0-.01,0-.01,0,0,0,0,0,0-.01,0-.01-.01-.03-.02-.05-.01-.02-.02-.05-.03-.07h0Z"/>
        <path class="cls-12" d="M20.94,8.94s-.01,0-.01.01c0,.02.03.04.05.06.01.02.01.05.03.06.02,0,.02-.03.04-.04.01,0,.03-.02.05-.01.02,0,.03.03.05.03.03,0,.07-.03.08-.07.01-.03.01-.03-.01-.01-.02.02-.04.06-.07.06-.02,0-.03-.02-.04-.02-.02,0-.04,0-.06.02-.01,0-.01.03-.03.03-.01,0-.01-.03-.02-.04-.01-.02-.03-.04-.05-.06h0ZM21.33,8.92s-.03,0,0,.01c.02.01.04.02.05.04,0,.01,0,.03.02.05.01.01.03.02.05.03.01,0,.02.01.03.02.03.02.03,0,0-.01-.01,0-.02-.01-.03-.02-.01,0-.03-.01-.04-.03,0-.01,0-.03-.01-.04-.01-.02-.04-.03-.06-.04h0ZM20.4,9.23s-.02.03-.02.05c0,.04.08.08.08.08.04.03.03,0,.01-.01,0,0-.06-.04-.07-.07,0-.02.02-.05.02-.05,0,0-.01,0-.02,0h0ZM21.18,9.5s-.05.04-.08.05c-.02,0-.05-.02-.07-.01-.03,0-.05.05-.09.07-.02,0-.05-.01-.07,0-.01.01,0,.04-.02.05-.01.01-.04.02-.04.02-.03,0-.05.02,0,.02,0,0,.04,0,.05-.02.01-.01,0-.04.02-.05.02-.01.05,0,.07,0,.03-.01.05-.06.08-.06.02,0,.05.02.07.01.03,0,.05-.04.08-.05.03,0,.06.02.1.03.02,0,.07,0,.07,0,.05,0,.06,0,0-.01,0,0-.05,0-.07,0-.04,0-.07-.04-.1-.03h0ZM20.8,10.11s-.07,0-.11.01c-.04,0-.13.03-.13.03,0,0,0,.01-.01.02,0,0,.09-.03.14-.04.03,0,.07-.02.1-.01.05,0,.12.02.15.06.02.03,0,.08.02.11.02.02.06,0,.07.03.01.02,0,.05,0,.07,0,.03-.01.05-.01.08,0,.03.04.09.04.09.03.05.03.03.01,0,0,0-.03-.06-.04-.09,0-.02,0-.05.01-.07,0-.02.01-.05,0-.07,0,0,0-.02-.01-.03-.02-.02-.05,0-.06-.02-.02-.03,0-.08-.02-.11-.04-.05-.11-.06-.17-.07h0ZM19.89,9.7s-.05,0-.05,0c-.05.01-.06.03,0,.02,0,0,.03,0,.04,0,.03.01.04.05.06.06.04.03.1.02.14.05.02.02.03.06.05.08.02.02.05.03.06.06.01.04-.02.08,0,.12.01.04.06.06.07.1,0,.02-.03.04-.03.06-.01.04,0,.13,0,.13l.02.02s0-.1,0-.14c0-.02.04-.04.03-.07,0-.04-.06-.06-.07-.1-.01-.04.02-.08,0-.12-.01-.03-.04-.04-.06-.06-.02-.03-.02-.06-.05-.09-.04-.03-.1-.02-.14-.05-.03-.02-.03-.05-.06-.07h0ZM20.34,10.85h0s.06.04.08.04c.02,0,.03,0,.05,0,.02,0,.05,0,.07.01.01,0,.04.02.04.02.04.02.06.02,0-.02,0,0-.03-.02-.04-.02-.02,0-.05,0-.08-.01-.02,0-.03,0-.05,0-.03,0-.09-.03-.09-.03h0ZM20.4,10.63s-.03-.03-.01.01c0,0,.01.03.03.04.03.01.07-.02.1-.02.02,0,.04,0,.06.01.03,0,.08-.02.09.01,0,0-.01.01,0,.02.01.03.06.02.09.04.03.02.05.03.07.06,0,0,.01.02.02.03.02.02.07.04.07.04.06.02.04,0,0-.01,0,0-.05-.02-.06-.04,0,0-.01-.02-.02-.03-.02-.02-.05-.04-.08-.06-.02-.01-.07,0-.08-.03,0,0,.02-.02.01-.02-.02-.04-.08,0-.12-.02-.02,0-.04-.01-.06-.01-.03,0-.07.03-.1.02-.01,0-.02-.03-.02-.03ZM20.19,10.57s-.06.05-.1.05c-.02,0-.04-.03-.06-.04-.03,0-.07.03-.07.03-.02.02-.03.03,0,.02,0,0,.04-.03.07-.03.02,0,.04.04.07.04.04,0,.06-.05.1-.05.02,0,.07.03.07.03.03.02.03,0,0-.02,0,0-.05-.03-.07-.03h0ZM19.76,10.34s-.04,0,0,.02c0,0,0,0,.01,0,0,0,.01,0,.02,0,.02,0,.03,0,.05.01.02,0,.03,0,.04.01,0,0,0,.03.01.04,0,.02.01.04.02.06,0,.02.03.03.03.05,0,.02-.02.05-.02.05-.01.03,0,.04.02,0,0,0,.03-.04.03-.06,0-.02-.02-.03-.03-.05,0-.02-.01-.05-.02-.07,0-.01,0-.03-.01-.04-.01-.02-.04-.01-.06-.02-.02,0-.03,0-.05-.01,0,0,0,0-.02,0h-.01s0,0,0,0ZM20.16,11.17s-.07.02-.1.03c-.03.02-.1.07-.1.07h0s.06-.04.09-.05c.03-.01.06-.04.09-.03.03,0,.04.05.07.06.02,0,.05-.01.08,0,.04,0,.06.04.1.06.02.01.05.02.06.04.01.02,0,.08,0,.08,0,.05.02.03.02,0,0,0,0-.06-.01-.09-.01-.02-.04-.03-.07-.04-.03-.02-.06-.05-.1-.06-.02,0-.05.01-.08,0-.03,0-.04-.05-.07-.06h0ZM19.36,10.57s-.04.02,0,.02c0,0,.06-.01.09,0,.03.01.04.05.06.07.03.02.07.01.09.04.04.05,0,.19,0,.19h.02s.04-.14,0-.21c-.02-.03-.06-.02-.09-.04-.03-.02-.04-.06-.07-.07-.03-.01-.09,0-.09,0h0ZM19.82,11.54h-.01s.04.07.07.07c.03,0,.05-.04.08-.05.01,0,.03,0,.04,0,.01,0,0,.04.02.05.04.03.1,0,.15.02.03.01.05.04.08.06.02.01.04.02.05.04.02.02.03.05.04.08,0,.03,0,.1,0,.1,0,.04.02.07.02,0,0,0,0-.07,0-.1,0-.03-.02-.06-.04-.09-.01-.02-.04-.02-.06-.04-.03-.02-.05-.05-.09-.06-.05-.02-.11.01-.15-.02-.01-.01,0-.04-.02-.05-.02-.01-.04,0-.06,0-.03,0-.04.05-.07.05-.03,0-.06-.05-.06-.05h0ZM10.77,8.42s-.09.05-.09.05c-.02.01-.02.04,0,.02,0,0,.05-.04.09-.04.03,0,.06.02.09.03.05,0,.11,0,.17,0,.04,0,.07.03.1.04.03.01.06.03.1.04.03,0,.08,0,.1.01.02.02,0,.08.03.09.02.01.04-.02.06-.01.03,0,.06.04.09.04.03,0,.04-.05.06-.07.02-.02.03-.06.06-.07.03-.02.09-.04.09-.04.03,0,.03-.02,0-.02,0,0-.07.02-.09.04-.02.02-.04.05-.06.08-.02.02-.03.06-.06.06-.03,0-.05-.03-.08-.04-.02,0-.03.02-.05.01-.03-.02,0-.07-.03-.09-.03-.02-.07,0-.11-.02-.03,0-.06-.02-.09-.04-.04-.01-.07-.03-.11-.04-.05-.01-.11,0-.17,0-.03,0-.06-.03-.09-.03h0Z"/>
        <path class="cls-12" d="M11.24,8.32v.02s.02.01.03.02c.02.01.04.03.05.05,0,.02-.01.04,0,.06,0,.01.02.01.02.02.01.02,0,.08,0,.08h.01s.01-.06,0-.09c0,0-.02-.01-.02-.02,0-.02.01-.04,0-.06,0-.03-.04-.04-.06-.06-.01,0-.04-.02-.04-.02h0ZM11.54,7.96s-.02,0-.02,0c0,0,0,.02,0,.02,0,.01,0,.03,0,.04,0,.01,0,.02-.02.04,0,0,0,.01-.01.02-.02.04,0,.02.01.01,0,0,.01-.01.01-.02,0-.01.02-.03.02-.04,0-.02,0-.03,0-.05,0,0,0-.02,0-.03h0ZM11.64,8.27s-.05.03-.06.06c-.02.03-.02.11-.02.11,0,.04.02.03.02,0,0,0,0-.07.02-.1.01-.02.06-.05.06-.05.02-.02,0-.02-.01-.01h0ZM11.34,8.16s-.02,0-.01.01c0,0,.04.03.05.06,0,.02-.02.05-.02.05-.02.04,0,.03.02,0,0,0,.03-.04.02-.06,0-.03-.06-.07-.06-.07h0ZM12,8.6s-.04.02-.07.03c-.03,0-.06-.02-.09-.01-.02,0-.03.03-.04.04-.02,0-.04-.02-.06-.02-.06,0-.15.1-.15.1-.02.02-.01.04,0,.01,0,0,.09-.09.14-.1.02,0,.04.02.06.02.02,0,.03-.03.05-.04.03,0,.06.02.09.01.02,0,.04-.02.07-.03.02,0,.06,0,.06,0,.04,0,.03-.02,0-.02,0,0-.04,0-.06,0h0ZM11.3,8.79s-.02.04-.03.04c0,0-.02-.01-.03,0-.02,0-.02.05-.02.05,0,.03,0,.04.01,0,0,0,0-.03.02-.03,0,0,.02.01.03,0,.02,0,.02-.04.04-.05.02,0,.03,0,.05.01.02,0,.05.02.05.02.03.01.03,0,0-.02,0,0-.03-.01-.05-.02-.02,0-.04-.02-.06-.01h0ZM11.1,9.07s-.04.02-.06.02c-.03,0-.1-.02-.1-.02-.02,0-.04,0,0,.02,0,0,.07.02.1.02.02,0,.04-.02.06-.02.03,0,.08.03.08.03h0s-.06-.05-.09-.05h0Z"/>
        <path class="cls-12" d="M11.47,8.94s-.02.05-.04.06c-.01,0-.03,0-.05.01-.03.01-.05.04-.08.05-.03.01-.06,0-.09.01-.04.01-.1.07-.1.07-.03.03-.01.03,0,.01,0,0,.06-.05.1-.07.03-.01.06,0,.09-.01.03-.01.05-.04.08-.05.02,0,.04,0,.05-.01.02-.02.04-.07.04-.07.01-.05,0-.03-.01,0ZM11.69,8.98s-.03,0-.01.01c0,0,.02.02.02.03.02.03.03.08.02.11,0,.02-.03.04-.05.05-.02,0-.03,0-.05,0-.01,0-.02,0-.04-.01,0,0,0,0-.01,0-.04-.02-.07-.02-.01.01,0,0,.02,0,.02.01.01,0,.02,0,.04.01.02,0,.04.02.06.01.03,0,.05-.03.06-.06.01-.04,0-.09-.02-.13,0-.01-.03-.03-.03-.03h0Z"/>
        <path class="cls-12" d="M11.91,9.05s-.02.02-.03.03c-.01.02,0,.06-.03.08-.02.02-.05.02-.08.01-.03-.02-.04-.09-.04-.09h-.02s.01.09.04.11c.03.02.07,0,.1-.01.02-.02.02-.06.03-.08,0-.01.02-.03.02-.03.01-.02,0-.03-.01-.01h0ZM11.09,9.66s-.06.06-.1.06c-.05.01-.14-.01-.14-.01-.03,0-.06,0,0,.02,0,0,.1.02.15.01.04,0,.06-.06.1-.06.06,0,.1.06.15.07.02,0,.04,0,.05,0,.02,0,.04,0,.05,0,0,0,.02,0,.03.01.01,0,.03.02.04.03.02.01.06.03.06.03.04.02.04,0,0-.01,0,0-.04-.02-.06-.03-.01,0-.03-.02-.04-.03,0,0-.02-.01-.03-.02,0,0-.02,0-.03,0-.01,0-.02,0-.04,0-.02,0-.03,0-.05,0-.06,0-.1-.08-.16-.07h0ZM11.75,9.55s-.05.03-.07.05c-.01.01,0,.04-.02.05-.02.02-.07.03-.07.03v.02s.06-.01.08-.03c.01-.01,0-.04.02-.05.01-.02.06-.03.06-.03v-.02ZM12.29,9.16s-.03.03-.05.04c-.03.01-.07-.01-.1,0-.02.02-.02.06-.04.08-.02.02-.05.03-.07.06,0,.01,0,.03-.01.04-.02.02-.05.02-.06.05,0,.01,0,.03,0,.05-.01.02-.05.03-.06.05-.01.02-.01.04-.03.06-.02.03-.06.04-.08.07-.01.01-.01.03-.02.05,0,.01-.02.02-.02.03,0,.02,0,.05,0,.05,0,.04.02.03.02,0,0,0,0-.03,0-.05,0-.01.01-.02.02-.03,0-.01,0-.03.02-.05.02-.03.06-.04.09-.07.01-.02.01-.04.03-.06.02-.02.05-.03.07-.05,0-.01,0-.03,0-.05.01-.02.05-.02.06-.04,0-.01,0-.03.01-.04.02-.02.05-.03.07-.05.02-.02.01-.06.03-.08.03-.02.06,0,.09,0,.02,0,.06-.04.06-.04.03-.02,0-.03,0-.01h0ZM12.31,9.69s-.1.01-.13.04c-.02.02-.02.06-.04.08,0,.01-.02.02-.03.03-.02.02-.04.04-.06.07-.03.05-.04.16-.04.16-.01.05.01.04.02,0,0,0,.02-.11.05-.16.02-.03.06-.05.08-.08.02-.03.02-.07.04-.09.03-.03.08-.04.12-.04.02,0,.06.01.06.01.04.01.03,0,0-.02,0,0-.04-.02-.07-.02h0ZM12.5,10.18s-.05.03-.08.04c-.03,0-.07,0-.1,0-.04.02-.08.05-.1.09-.02.03,0,.09-.04.1-.01,0-.04-.02-.04-.02-.03-.03-.06-.04,0,.01,0,0,.03.04.05.03.04-.01.02-.08.04-.12.02-.03.06-.07.09-.08.03-.01.07,0,.1,0,.03,0,.05-.04.08-.04.05,0,.14.02.14.02.06.02.04,0,0-.02,0,0-.09-.03-.14-.02h0ZM11.72,10.26s.01.05,0,.06c-.03.03-.09-.03-.13-.02-.06,0-.11.04-.17.07-.04.02-.09.03-.12.05-.03.02-.06.05-.08.08-.03.03-.09.11-.09.11-.03.05,0,.04.01.01,0,0,.06-.07.09-.11.02-.03.05-.06.08-.08.04-.02.08-.03.12-.05.06-.02.11-.06.17-.06.05,0,.11.05.14.02.02-.02,0-.08,0-.08,0-.03-.02-.02-.02,0h0ZM12.09,10.28s-.02.03-.03.04c-.01,0-.03,0-.04.02,0,0,0,.01,0,.01,0,0,0,0,0,0-.02-.02-.03-.01,0,.01,0,0,.01.02.02.02,0,0,0-.02.01-.02.01-.01.03,0,.04-.02.02-.01.04-.05.04-.05.03-.04,0-.02-.01-.01h0ZM12.1,10.81s-.05,0-.07,0c-.03.01-.06.04-.1.05-.04.02-.09.02-.13.03-.03,0-.07,0-.1.02-.04.02-.06.07-.09.1-.02.02-.05.03-.07.06-.03.03-.05.12-.05.12-.01.05,0,.05.01,0,0,0,.03-.08.05-.12.02-.02.05-.04.07-.06.03-.03.05-.07.08-.09.03-.02.06-.01.09-.02.04-.01.09-.02.13-.03.03-.01.06-.04.09-.05.02,0,.07,0,.07,0,.06,0,.03-.02,0-.02h0ZM13.13,10.71s-.09,0-.13.01c0,0-.05.02-.08.03,0,0-.01,0-.02,0,0,0-.01,0-.02,0,0,0-.01,0-.02,0-.02,0-.06.02-.06.02-.02,0-.02.02,0,.02,0,0,.04-.01.06-.02,0,0,.03,0,.04,0,0,0,0,0,0,0,0,0,0,0,.01,0,.01,0,.06-.02.08-.02.04,0,.09,0,.13-.01.02,0,.03-.03.05-.04.02,0,.03.02.05.02.01,0,.02.01.04.02,0,0,.02,0,.02,0,.03.01.03,0,0-.02,0,0-.01,0-.02,0-.01,0-.02-.01-.04-.02-.02,0-.03-.03-.05-.02-.02,0-.04.03-.06.04h0ZM12.27,11.29s-.07.05-.09.08c-.02.02-.03.05-.05.07-.02.03-.06.04-.09.06-.02.02-.03.05-.04.07-.03.03-.06.05-.09.09-.01.02-.03.07-.03.07,0,.02,0,.05.01,0,0,0,.02-.05.03-.07.02-.03.06-.06.08-.09.02-.02.02-.05.04-.07.02-.03.06-.04.09-.06.02-.02.03-.05.05-.07.02-.03.04-.07.08-.07.02,0,0,.03.02.04.07.04.23,0,.23,0,.03,0,.03-.02,0-.02,0,0-.15.04-.22,0-.02,0,0-.05-.03-.05h0ZM13.01,11.08s-.03.05-.06.06c-.02,0-.05,0-.06.01-.03.02-.05.11-.05.11,0,.05.01.03.02,0,0,0,.01-.08.04-.1.02-.01.04,0,.06,0,.02-.01.03-.05.05-.05.03,0,.04.04.06.05.02,0,.03,0,.05,0,.02,0,.04.03.06.05.01,0,.02.01.03.02.01,0,.03.02.03.02.03.02.03,0,0-.01,0,0-.02-.01-.03-.02-.01,0-.02,0-.03-.02-.02-.01-.04-.04-.06-.05-.02,0-.03,0-.05,0-.03,0-.04-.05-.07-.05h0ZM12.79,11.6s-.05.05-.08.06c-.03.02-.08,0-.11.02-.04.02-.07.06-.1.09-.02.02-.05.03-.06.05-.02.03,0,.07-.02.1-.01.03-.05.05-.05.08,0,.03,0,.07,0,.1,0,.04-.02.08-.02.12,0,.03.02.05.02.07,0,.02,0,.06,0,.06,0,.04.01.04.02,0,0,0,0-.04,0-.06,0-.03-.02-.05-.02-.07,0-.04.01-.08.01-.11,0-.03-.02-.07,0-.1,0-.03.04-.05.05-.08.01-.03,0-.07.02-.1.01-.02.04-.03.06-.04.03-.03.06-.07.1-.09.03-.02.08,0,.11-.02.03-.01.08-.06.08-.06.02-.02.01-.03,0-.02h0ZM20.85,9.16s-.04.05-.06.06c-.02,0-.04,0-.06,0,0,0-.01.03-.01.03-.01.05,0,.04.01,0,0,0,0-.01,0-.02.02-.01.04,0,.06,0,.03-.01.04-.05.06-.06.04-.01.12,0,.12,0,.03,0,.03-.01,0-.02,0,0-.08-.02-.12,0Z"/>
        <path class="cls-12" d="M13.06,11.88c-.05.01-.1.04-.14.06-.1.04-.18.02-.18.02,0,0,.08.02.19-.01.04-.02.09-.04.14-.06.02,0,.04-.01.04-.01,0,0-.02,0-.05,0h0ZM13.14,11.69s.03-.08.04-.12c.03-.1,0-.18,0-.18,0,0,.02.08-.02.18-.01.04-.03.08-.04.12,0,.03,0,.06,0,.06,0,0,0-.03,0-.05Z"/>
        <path class="cls-12" d="M13.37,11.75c.03-.05.08-.1.1-.16.02-.05.03-.11.04-.14.01-.05.02-.09.02-.09,0,0,0,.03-.02.09,0,.03-.02.09-.05.14-.02.05-.07.1-.11.15-.01.02-.02.04-.03.06,0,0,0,0,0,0,0,.03,0,.07,0,.09,0,.03,0,.05,0,.05,0,0,0-.02,0-.05,0-.03,0-.06,0-.09,0,0,0,0,0,0,0-.02.01-.04.02-.05ZM13.29,12.1s.05,0,.07,0c.01,0,.02,0,.03,0h0s0,0,0,0c0,0,0,0,0,0h0s-.02,0-.03,0c-.02,0-.05,0-.07,0-.01,0-.03,0-.04,0-.01,0-.02,0-.04.02-.05.03-.08.08-.13.1-.06.03-.14.04-.18.06-.03,0-.05.01-.08.02-.01,0-.02,0-.02,0h0s0,0,0,0h0s0,0,0,0h0s.07-.01.11-.02c.05,0,.12-.02.19-.05.05-.02.08-.07.13-.1.01,0,.02-.01.03-.02.01,0,.02,0,.04,0h0Z"/>
        <path class="cls-12" d="M13.88,11.99s0-.04,0-.06c0-.04,0-.08-.02-.11-.01-.03-.03-.07-.04-.09-.02-.03-.03-.05-.03-.05,0,0,0,.02.02.05,0,.02.03.05.03.09,0,.03.02.07.02.11,0,.02,0,.04,0,.06,0,.04,0,.08,0,.12,0,.01,0,.02,0,.04,0,.04,0,.07.01.1,0,.02,0,.03,0,.04h0s0,.01,0,.02h0s0,0,0,0h0s0-.03,0-.05c0-.03,0-.07,0-.1,0-.01,0-.03,0-.04,0-.04,0-.08,0-.11h0Z"/>
        <path class="cls-10" d="M13.78,11.65l.04.03v.03s-.02.02-.02.02v-.08Z"/>
        <path class="cls-12" d="M13.63,11.98s0-.06.02-.08c.03-.08.1-.13.13-.19.02-.04.04-.09.05-.12,0-.02.01-.04.02-.05v-.02s0,0,0,0h0s0,0,0,0h0s0,.02,0,.02c0,.01-.01.03-.02.05-.01.03-.03.08-.05.12-.03.06-.1.11-.13.19-.01.03-.01.06-.02.09,0,.01,0,.03,0,.04h0s0,.06,0,.09c0,0,0,0,0,0,0,0,0,0,0,0,0,0,0-.04,0-.09h0s0-.03,0-.04h0ZM13.41,12.4c-.07.07-.13.16-.18.22-.03.04-.05.06-.07.09,0,0-.02.02-.02.03,0,0,0,0,0,0,0,0,0,0,0,0,0,0,0,0,0,0,0,0,0,0,0,0,0,0,.01-.01.02-.03.02-.02.04-.05.08-.09.05-.05.12-.15.18-.21,0,0,.01-.02.02-.02.02-.03.07-.04.11-.06.01,0,.03,0,.04-.01h.01s0,0,0,0h0s0,0,0,0c0,0,0,0,0,0,0,0,0,0-.01,0-.01,0-.03,0-.04,0-.04.01-.09.03-.11.06,0,0-.01.01-.02.02h0Z"/>
        <path class="cls-1" d="M13.24,12.54s.08,0,.11.01l-.12.15-.07-.04.09-.12Z"/>
        <path class="cls-12" d="M13.59,12.58c-.06.03-.11.06-.17.06-.09,0-.19-.03-.26-.05-.04-.01-.07-.02-.11-.04-.01,0-.03,0-.03-.01h0s0,0,0,0h0s0,0,0,0h0s.03.01.04.02c.03.01.06.03.11.04.06.02.16.06.26.05.06,0,.12-.03.17-.06h.01s.08-.06.12-.08c0,0,0,0,0,0,.03-.01.07-.03.09-.04.02,0,.03-.01.04-.01h.01s0,0,0,0c0,0,0,0,0,0,0,0,0,0,0,0,0,0,0,0,0,0-.02,0-.04,0-.05.01h0s-.06.02-.1.03c0,0,0,0,0,0-.04.02-.08.05-.12.07,0,0,0,0-.01,0h0ZM14.23,12.07c.01-.06.02-.11.02-.16,0-.09,0-.19,0-.26,0-.09-.01-.16-.01-.16,0,0,0,.06,0,.16,0,.07,0,.17,0,.26,0,.05-.01.11-.02.16-.01.07-.03.15-.03.22,0,0,0,0,0,.01,0,.04,0,.07.01.1,0,.03.01.06.01.06,0,0,0-.02,0-.06,0-.03,0-.06,0-.1,0,0,0,0,0-.01,0-.07.02-.15.03-.22h0ZM13.89,12.82c-.08.07-.13.15-.22.19-.09.04-.2.06-.27.08-.1.02-.17.03-.17.03,0,0,.07,0,.17-.02.07-.01.18-.03.27-.07.09-.04.15-.12.22-.19.02-.02.04-.04.07-.05.02-.01.04-.03.07-.04h0c.07-.03.14-.06.21-.1,0,0-.11.04-.22.09h0s-.05.02-.07.04c-.03.02-.05.03-.07.05ZM14.5,12.08s-.01-.05-.02-.07c-.03-.07-.06-.14-.09-.18-.04-.06-.06-.1-.06-.1,0,0,.02.04.06.11.02.05.06.12.09.18,0,.02.01.04.02.07.02.08.04.16.04.24,0,.04,0,.1,0,.15h0s0,.09,0,.09h0s0-.05,0-.09h0c0-.05,0-.11,0-.15,0-.08-.02-.16-.04-.24h0ZM14.3,13.05c-.05.06-.08.12-.13.16-.04.03-.1.06-.13.08-.02.01-.05.02-.06.03,0,0-.02,0-.02.01h0s0,0,0,0h0s.01,0,.02,0c.01,0,.04-.01.06-.03.04-.02.09-.04.14-.07.06-.04.09-.1.14-.16.02-.03.04-.05.07-.08.04-.03.08-.07.13-.09,0,0,0,0,.01,0,.03-.01.06-.02.09-.03.02,0,.04,0,.06-.02,0,0-.02,0-.06,0-.03,0-.06.01-.09.02,0,0,0,0-.01,0-.05.02-.09.06-.13.09-.03.02-.05.05-.07.08h0ZM14.76,12.39c0-.05,0-.11,0-.16,0-.09,0-.14,0-.21,0-.04-.02-.08-.02-.1-.01-.04-.02-.06-.02-.06,0,0,0,.02.02.06,0,.02.02.06.02.1,0,.07,0,.12,0,.21,0,.05,0,.1,0,.16,0,.01,0,.03,0,.04,0,.05.01.09.03.14,0,.01,0,.03.01.04.01.04.03.07.04.1,0,.02.01.03.02.04,0,0,0,0,0,.01h0s0,0,0,0c0,0,0,0,0,0h0s0-.02,0-.02l-.02-.04s-.02-.06-.03-.1c0-.01,0-.03-.01-.04-.01-.04-.02-.09-.03-.13,0-.01,0-.03,0-.04h0ZM14.62,13.36c-.02.05-.04.1-.07.14-.04.06-.11.1-.15.13-.03.02-.05.04-.07.05,0,0-.02.01-.02.01h0s0,0,0,0c0,0,0,0,0,0h0s0,0,0,0h0s.07-.04.1-.06c.04-.03.11-.07.16-.13.03-.04.05-.09.07-.14,0-.02.02-.04.03-.06.03-.05.05-.1.09-.14.03-.03.08-.06.12-.09.05-.03.08-.05.11-.07,0,0,.02-.01.03-.02h.01s0,0,0,0c0,0,0,0,0,0,0,0,0,0,0,0h0s0,0-.01,0c0,0-.02,0-.03.01-.02.01-.08.04-.12.06-.04.03-.08.05-.12.09-.04.04-.07.1-.1.15-.01.02-.02.04-.03.06h0ZM15.22,12.51s.04-.07.05-.11c.02-.06.03-.13.03-.19,0-.06,0-.13,0-.17,0-.06,0-.1,0-.1,0,0,0,.04,0,.1,0,.04,0,.11,0,.17,0,.06-.01.12-.03.18-.01.04-.03.07-.05.11,0,.02-.02.04-.03.06,0,.01-.01.03-.02.04-.01.04-.03.07-.03.1,0,.03,0,.07,0,.09,0,.03,0,.05,0,.06,0,0,0-.02,0-.05,0-.02,0-.06.01-.09,0-.03.02-.06.04-.1,0-.01.01-.03.02-.04,0-.02.02-.04.03-.06h0Z"/>
        <path class="cls-1" d="M15.24,12.29l.08.15-.08.21s-.08-.1-.11-.16l.11-.19Z"/>
        <path class="cls-12" d="M15.25,12.52s0-.01-.01-.02c-.04-.06-.06-.12-.09-.18-.03-.09-.06-.19-.08-.26-.03-.1-.05-.16-.05-.16,0,0,.02.06.04.16.02.07.04.17.08.26.02.06.05.13.09.19,0,0,0,.01.01.02.03.04.07.07.09.11.03.04.05.07.07.11.01.02.03.05.04.07.01.02.02.03.03.04,0,0,0,.01.01.02h0s0,0,0,0c0,0,0,0,0,0-.01-.02-.02-.05-.04-.07-.01-.02-.03-.05-.04-.07-.02-.04-.05-.07-.07-.11-.03-.04-.07-.07-.09-.11h0ZM15.25,13.11h0s.07-.04.1-.05c.04-.02.06-.03.06-.03,0,0-.03,0-.06.02-.03.01-.07.03-.1.05h0s-.06.04-.08.06c-.02.02-.05.04-.06.07,0,.01,0,.02-.01.03,0,.02,0,.03-.01.04,0,.03-.02.06-.02.08,0,.03-.02.05-.03.07-.02.03-.04.06-.06.09-.04.05-.06.08-.09.1-.03.02-.04.03-.04.03,0,0,.02-.01.04-.03.03-.02.05-.05.09-.1.02-.02.04-.05.06-.09.01-.02.02-.05.03-.07.01-.03.02-.06.03-.08,0-.02,0-.03.01-.04,0-.01,0-.02.01-.03.01-.03.04-.05.06-.07.02-.02.05-.04.08-.06h0ZM15.85,12.54s-.02-.07-.04-.1c-.02-.04-.05-.07-.07-.1-.11-.13-.19-.24-.19-.24,0,0,.08.11.19.24.02.03.05.07.07.1.02.03.02.06.03.09v.03c.03.07.04.13.06.2.01.05.02.09.04.14.01.03.02.05.02.05,0,0,0-.02-.02-.05-.01-.05-.02-.07-.03-.14-.02-.07-.03-.13-.05-.2,0,0,0-.02,0-.03h0ZM15.57,13.37s-.03.01-.04.02c-.07.03-.15.07-.2.09-.03.02-.06.03-.08.04h-.02s0,.01,0,.02c0,0,0,0,0,0h0s0,0,0,0h0s0,0,0,0h.02s.08-.05.08-.05c.05-.02.13-.06.2-.09.01,0,.03-.01.04-.02.02,0,.04-.02.06-.03.03-.01.05-.03.08-.04.01,0,.02-.01.02-.01h0s0,0,0,0c0,0,0,0,0,0,0,0,0,0,0,0h0s-.03.01-.03.01c-.02,0-.05.02-.08.03-.02,0-.04.02-.06.03h0Z"/>
        <path class="cls-1" d="M15.54,13.34l.12-.03v.07s-.13.06-.13.06l.02-.1Z"/>
        <path class="cls-12" d="M15.64,13.2s.03-.08.05-.12c0,0-.03.06-.06.11h0s-.02.06-.03.08c0,.04,0,.08-.01.12,0,0,0,0,0,.01,0,.02,0,.04,0,.06-.02.08-.06.16-.09.22-.01.03-.03.06-.04.09,0,.01-.01.02-.01.03h0s0,0,0,0h0s0,0,0,0h0s.01-.02.02-.04c.01-.02.03-.05.05-.09.03-.06.07-.14.09-.22,0-.02,0-.04,0-.06,0,0,0,0,0-.01,0-.04,0-.08.01-.11,0-.02.02-.05.03-.08h0ZM16.81,12.55s.01,0,.02-.01c.07-.05.13-.09.18-.14.03-.03.06-.08.08-.11.03-.04.05-.09.07-.12.01-.02.02-.04.03-.05,0,0,0-.01,0-.02h0s0,0,0,0h0s0,0,0,0v.02s-.03.03-.04.05c-.02.03-.04.08-.07.12-.02.03-.05.08-.08.11-.05.05-.11.09-.18.14,0,0-.01,0-.02.01-.07.04-.14.08-.2.13-.05.04-.08.1-.11.15h0s-.03.05-.04.08c0,.01-.01.02-.02.03,0,0,0,0,0,0,0,0,0,0,0,0h0s0,0,0,0c0,0,0,0,0,0h0s.01-.03.02-.04c.02-.02.04-.05.05-.07.04-.05.07-.11.11-.15.06-.05.13-.09.2-.13h0ZM16.44,13.23c-.05-.03-.1-.06-.15-.09,0,0,.07.05.15.1h0c.06.04.12.08.16.12.04.03.07.06.1.1.02.02.03.04.05.06.06.07.1.14.14.18.01.01.02.03.03.04v.02s.02,0,.02,0c0,0,0,0,0,0,0,0-.01-.02-.02-.02,0,0-.02-.02-.03-.04-.03-.05-.07-.12-.13-.19-.02-.02-.03-.04-.05-.06-.03-.03-.07-.07-.1-.1-.04-.03-.11-.08-.16-.12h0ZM17.26,12.46s.02-.03.03-.04c.06-.09.1-.19.13-.27.02-.05.04-.11.05-.15.02-.06.03-.09.03-.09,0,0-.01.03-.03.09-.01.03-.03.09-.05.14-.03.08-.08.18-.13.26,0,.01-.02.03-.03.04-.04.06-.09.11-.14.17-.04.05-.07.09-.11.14-.02.03-.04.05-.06.08-.01.02-.03.04-.04.05l-.02.02h0s0,0,0,0c0,0,0,0,0,0,0,0,.01-.01.02-.02.01-.01.03-.03.04-.04.02-.02.04-.05.06-.07.04-.05.07-.09.11-.14.04-.06.1-.11.14-.17h0ZM17.11,13.25c.04.06.08.12.13.16.06.06.14.11.19.14.04.03.08.05.12.08,0,0-.05-.03-.12-.08-.05-.03-.12-.09-.18-.15-.05-.05-.08-.1-.12-.16-.02-.03-.04-.06-.06-.09,0-.01-.02-.02-.02-.03-.02-.02-.03-.04-.05-.06-.01,0-.02,0-.03,0,0,0,0,0-.01,0h0s0,0,0,0c0,0,0,0,0,0,0,0,0,0,0,0,0,0,0,0,0,0,0,0,0,0,.01,0,0,0,.02,0,.03.01.02.01.03.03.05.06,0,.01.02.02.02.03.02.03.04.06.06.09h0Z"/>
        <path class="cls-1" d="M17.37,13.43l.16.06v.14s-.17-.07-.17-.07l.02-.14Z"/>
        <path class="cls-12" d="M17.37,13.04s-.02-.02-.03-.03c-.02-.02-.04-.03-.05-.04,0,0-.02,0-.02-.01,0,0,0,0-.01,0h0s0,0,0,0h0s.01.01.02.02c.01,0,.03.02.05.04,0,0,.02.02.03.03.02.02.04.04.05.06.01.03.01.06.02.09,0,.02,0,.04,0,.05,0,.03,0,.07,0,.1,0,.06,0,.1,0,.15,0,.03-.01.07-.02.09,0,.02,0,.03-.01.05,0,0,0,0,0,0,0,0,0,0,0,0h0s0-.01,0-.02c0,0,0-.02.01-.04,0-.02.02-.06.02-.09,0-.05,0-.09,0-.15,0-.03,0-.07,0-.1,0-.02,0-.04,0-.06,0-.03,0-.06-.02-.09-.01-.03-.03-.05-.05-.07h0ZM17.44,12.69c-.1.06-.2.13-.2.13,0,0,.11-.06.21-.12h0c.06-.04.12-.07.16-.1.05-.04.11-.07.16-.11.03-.02.05-.04.08-.06.05-.04.07-.1.11-.14.06-.05.12-.08.16-.12.02-.01.03-.03.04-.03,0,0,.02-.01.02-.02h0s0,0,0,0c0,0,0,0,0,0h0s-.02.02-.02.02c0,0-.03.02-.04.03-.04.03-.11.06-.17.11-.04.04-.07.1-.11.14-.02.02-.05.04-.07.06-.05.04-.11.07-.16.11-.04.03-.1.06-.16.1h0Z"/>
        <path class="cls-1" d="M17.61,12.48l.15-.09-.05.29-.13.05.03-.25Z"/>
        <path class="cls-12" d="M17.71,12.3s0-.04,0-.07c0-.08,0-.16.02-.23,0-.05.01-.08.02-.11.01-.02.03-.05.04-.06.02-.02.03-.04.03-.04l-.03.03s-.03.04-.04.06c-.02.03-.02.07-.03.11-.01.07-.01.15-.02.23,0,.02,0,.04,0,.07,0,.05-.01.1-.02.14,0,.05,0,.1-.02.15,0,.02,0,.04,0,.05,0,.03-.01.06-.02.1,0,0,.02-.04.03-.09,0-.02,0-.04.01-.06,0-.05.01-.1.02-.15,0-.05.01-.1.02-.14h0ZM17.67,13h-.01c-.08-.05-.15-.09-.15-.09,0,0,.07.05.14.1.04.02.09.04.13.06.05.02.11.04.17.05.03,0,.06.01.08.01.02,0,.05,0,.07.02.05.02.09.06.13.09.02.02.05.04.06.05.01,0,.02.02.03.02h0s0,0,0,0h0s0,0,0,0c-.01-.01-.02-.02-.04-.03h0s-.04-.04-.06-.05c-.03-.03-.08-.07-.13-.09-.02-.01-.05-.02-.07-.02-.03,0-.05,0-.08-.01-.06-.01-.11-.03-.16-.05-.04-.02-.08-.03-.12-.06h0ZM18,12.83s-.1,0-.14-.01c0,0,.07.02.14.02h0s0,0,0,0c.04,0,.07.02.11.04.02,0,.04.03.06.04.02,0,.03.01.05.02.02,0,.04.01.06.02.08.02.16.03.23.03.07,0,.13,0,.18,0,.03,0,.07,0,.09,0h.04s.01,0,.01,0h0s0,0,0,0h0s0,0,0,0h-.01s-.04,0-.04,0c-.02,0-.05,0-.09,0-.05,0-.11,0-.17,0-.07,0-.15-.02-.23-.04-.02,0-.04-.01-.06-.02-.02,0-.03-.01-.05-.02-.02,0-.04-.03-.06-.04-.04-.02-.07-.03-.11-.04h0Z"/>
        <path class="cls-1" d="M18.12,12.08h.08s0,.18,0,.18h-.12s.02-.12.04-.18h0Z"/>
        <path class="cls-12" d="M18.19,12.17s.01-.06.02-.09c.03-.12.06-.21.1-.3.02-.06.06-.11.07-.15.03-.06.05-.09.05-.09,0,0-.02.03-.05.09-.02.03-.05.09-.08.15-.04.09-.07.18-.1.3,0,.03-.02.06-.02.09-.01.06-.03.12-.05.18,0,.02-.02.05-.03.07h0c-.03.06-.06.12-.08.18,0,0,.05-.09.09-.17h0s.02-.05.03-.07c.02-.06.03-.12.05-.18h0ZM18.98,12.4s-.02-.02-.03-.03c-.02-.01-.04-.02-.05-.03,0,0-.02,0-.03-.01,0,0,0,0,0,0h0s0,0,0,0c0,0,.01,0,.02.01.01,0,.03.02.04.03.01,0,.02.02.03.03,0,0,0,0,0,0,0,.02.01.04.02.05,0,.02.02.05.03.08.01.03.02.06.04.09,0,.01.02.03.04.04,0,0,0,0,0,0,.02.01.04.02.07.03.03,0,.06.02.08.02.05,0,.1,0,.14,0,.03,0,.06,0,.08,0h.04s.01,0,.01,0h0s0,0,0,0h0s0,0,0,0h-.01c-.35,0,.31,0-.04,0-.02,0-.05,0-.08,0-.03,0-.09,0-.14,0-.03,0-.05-.01-.08-.02-.02,0-.04-.01-.06-.03,0,0,0,0,0,0-.01,0-.02-.02-.03-.03-.02-.03-.03-.06-.04-.09,0-.02-.02-.05-.03-.08,0-.02-.01-.04-.02-.06,0,0,0,0,0,0h0Z"/>
        <path class="cls-1" d="M19.22,12.63c.08.01.17.03.24.05l-.21.07c-.12-.02-.2-.07-.28-.12h.25Z"/>
        <path class="cls-12" d="M18.61,12.61c-.08-.02-.16-.04-.16-.04,0,0,.08.03.15.05l.13.04c.05.01.11.03.16.04,0,0,0,0,0,0,.06.01.11.03.17.02.09,0,.16-.03.22-.05.06-.01.12-.02.18-.04,0,0-.07.01-.18.03-.06.01-.14.04-.22.04-.06,0-.11-.01-.17-.03h0c-.05-.01-.11-.03-.16-.04-.03,0-.08-.02-.13-.04h0ZM18.62,11.72s0-.06,0-.09c0-.05.01-.1.02-.15.03-.11.04-.18.04-.18,0,0-.02.08-.05.18-.01.05-.02.1-.02.15,0,.03,0,.06,0,.09,0,.02,0,.04,0,.06,0,.07-.01.14-.03.21-.02.08-.06.2-.09.29h0s-.03.09-.04.14c0,0,.03-.07.06-.14h0c.03-.09.07-.21.09-.29.02-.07.02-.14.03-.21,0-.02,0-.04,0-.06ZM19.12,11.66s0-.02,0-.03c0-.03,0-.07-.02-.09-.01-.03-.03-.04-.04-.06-.02-.03-.03-.04-.03-.06,0-.02,0-.04,0-.06,0-.02,0-.04,0-.04,0,0,0,.01,0,.04,0,.01,0,.04,0,.06,0,.03.02.04.03.07.01.02.03.04.04.06.01.03.02.06.02.09,0,.01,0,.02,0,.03,0,.04,0,.09,0,.13,0,.03,0,.05,0,.07,0,.02,0,.05,0,.07,0,.01,0,.03,0,.04,0,0,0,.01,0,.02h0s0,0,0,0c0,0,0,0,0,0h0s0-.04,0-.05c0-.02,0-.05,0-.07s0-.05,0-.08c0-.04,0-.09,0-.13h0Z"/>
        <path class="cls-1" d="M19,11.29h.05s-.05.19-.05.19h-.07s.07-.19.07-.19Z"/>
        <path class="cls-12" d="M18.85,11.73s.04-.08.05-.12c.09-.23.16-.43.16-.43,0,0-.08.2-.17.42-.02.04-.04.08-.05.12,0,.01,0,.02,0,.03-.01.06-.01.12-.02.17,0,.04,0,.08,0,.12,0,.02,0,.04,0,.06,0,.02,0,.05,0,.06v.03s0,0,0,0c0,0,0,0,0,0,0,0,0,0,0-.01,0,0,0-.02,0-.03,0-.02.01-.04.02-.06,0-.02,0-.04,0-.06,0-.04,0-.08,0-.12,0-.06,0-.12.02-.17,0-.01,0-.02,0-.03h0ZM19.22,12.14s-.04,0-.06,0c0,0-.02,0-.02,0,0,0,0,0,0,0h0s0,0,0,0h0s.01,0,.02,0c.02,0,.04,0,.06,0,0,0,0,0,0,0,.02,0,.04.02.06.03h0s.02.02.03.03c.02.02.03.05.04.07.02.02.03.05.05.07,0,0-.02-.03-.04-.08-.01-.02-.02-.05-.04-.07-.01-.01-.02-.03-.04-.04,0,0,0,0,0,0-.02-.01-.04-.03-.06-.03,0,0,0,0,0,0h0Z"/>
        <path class="cls-12" d="M19.39,11.52c0-.12,0-.25,0-.25,0,0,0,.12,0,.25v.13s0,.01,0,.01c0,.03,0,.07,0,.1,0,0,0-.05,0-.1h0s0-.14,0-.14ZM19.45,11.95s-.1.01-.1.01c0,0,.05,0,.1,0h0s.05,0,.07,0c.02,0,.04,0,.05,0,.04,0,.08-.02.11-.03.05-.02.08-.04.08-.04,0,0-.04.01-.08.04-.04.01-.07.02-.11.03-.02,0-.04,0-.05,0-.02,0-.05,0-.07,0h0Z"/>
      </g>
      <path class="cls-9" d="M11.69,7.12s0-.09-.05-.12l.07-.09c.07.06.1.13.08.23-.02.08-.06.13-.13.16-.07.03-.16.03-.26,0-.11-.02-.19-.06-.24-.11-.05-.05-.07-.12-.05-.2.02-.09.08-.15.17-.17l.03.11s-.08.04-.09.09c0,.05,0,.08.04.11.04.03.09.05.16.07.07.01.13.02.18,0,.05-.01.08-.04.09-.09h0ZM11.94,6.63c-.03.07-.07.12-.14.14-.07.02-.16.01-.26-.03-.1-.04-.18-.08-.22-.14-.04-.06-.05-.13-.03-.2.03-.08.08-.12.15-.14.07-.02.16-.01.26.02.11.04.18.09.22.14.04.06.05.13.02.2h0ZM11.39,6.43s0,.08.03.12c.03.03.08.06.15.09.07.03.13.04.18.03.05,0,.08-.03.09-.08.02-.05,0-.09-.02-.12s-.08-.06-.16-.09c-.07-.02-.13-.03-.17-.03-.05,0-.08.03-.09.07h0ZM12.28,5.85l-.05.09-.34-.18.27.31-.42-.04.34.18-.05.09-.6-.3.05-.09.4.03-.26-.31.05-.09.6.3ZM12.63,5.34l-.06.09-.32-.22.23.35-.41-.1.32.22-.06.09-.55-.38.06-.09.4.09-.22-.34.06-.09.55.38ZM12.86,5.11c-.05.06-.12.08-.19.07-.07,0-.15-.05-.23-.13-.08-.07-.13-.15-.14-.22-.02-.07,0-.14.06-.2.05-.06.12-.08.19-.07.07.01.15.05.23.13.08.08.13.15.15.22.02.07,0,.14-.06.19ZM12.42,4.71s-.04.07-.02.12c.02.05.05.09.1.14.06.05.11.09.15.1.04.01.08,0,.11-.04.03-.04.04-.08.02-.12-.02-.04-.05-.09-.11-.14-.06-.05-.11-.08-.15-.09-.04-.01-.08,0-.12.03h0ZM13.42,4.56l-.07.06-.49-.18.29.35-.08.07-.43-.51.08-.07.46.17-.28-.33.08-.07.43.51ZM13.62,3.63l.28.62-.08.05-.32-.3.15.42-.08.05-.44-.51.09-.06.23.27-.12-.34.09-.06.26.25-.15-.32.09-.06ZM14.42,3.99l-.37.18-.29-.6.36-.17.05.1-.26.12.07.15.18-.08.05.1-.18.08.08.16.28-.13.05.1ZM15.02,3.78l-.11.03-.12-.16-.2.07v.2s-.11.04-.11.04v-.71s.11-.03.11-.03l.43.56ZM14.72,3.57l-.12-.16v.2s.12-.04.12-.04ZM15.49,3.69l-.41.08-.13-.66.1-.02.11.55.3-.06.02.11ZM15.96,3.07h-.15s.04.59.04.59h-.11s-.04-.56-.04-.56h-.15s0-.08,0-.08l.41-.03v.09ZM16.56,3.66h-.11s.01-.29.01-.29h-.24s-.01.28-.01.28h-.11s.03-.67.03-.67h.11s-.01.27-.01.27h.24s.01-.26.01-.26h.11s-.03.67-.03.67ZM17.13,3.77c-.08-.02-.13-.06-.16-.13-.03-.07-.03-.16,0-.26.02-.11.06-.18.12-.23.05-.05.12-.07.2-.05.08.02.13.06.16.13.03.07.03.16,0,.26-.02.11-.06.19-.12.24-.05.05-.12.06-.2.05h0ZM17.26,3.2s-.08,0-.11.04c-.03.04-.05.09-.07.16-.02.08-.02.14,0,.18.01.04.04.07.09.08.05,0,.09,0,.12-.04.03-.04.05-.09.07-.16.02-.07.02-.13,0-.18-.01-.04-.04-.07-.09-.09ZM18.04,3.45l-.29-.1-.05.16.18.06-.04.1-.18-.06-.1.27-.1-.04.22-.63.39.14-.04.1ZM18.57,4.35l-.11-.06v-.36s-.09.04-.09.04l-.11.2-.09-.05.33-.58.09.05-.13.23.31-.13.12.07-.31.12v.46ZM18.98,4.65l-.33-.25.4-.54.32.23-.06.09-.23-.17-.1.13.16.12-.06.09-.16-.12-.11.15.25.18-.06.09ZM19.39,5.02l-.07-.06.13-.5-.31.33-.08-.07.46-.49.08.07-.12.48.29-.31.08.07-.46.49ZM20.16,5.05l-.1-.12-.44.37-.07-.08.44-.37-.1-.12.07-.06.26.32-.07.06ZM20.23,5.75s-.09.05-.13.05c-.04,0-.07,0-.11-.02-.04-.02-.07-.05-.09-.08-.02-.03-.04-.07-.04-.11,0-.04,0-.08.02-.11.02-.04.06-.07.1-.1l.36-.23.06.09-.36.23s-.06.05-.07.08c0,.03,0,.07.02.1.02.03.05.05.08.05.03,0,.07,0,.11-.03l.36-.23.06.09-.36.23ZM20.27,6.14s.06.07.11.07v.11c-.09,0-.16-.04-.2-.13-.03-.07-.03-.14,0-.2.04-.06.1-.12.2-.17.1-.05.18-.07.26-.05.07.01.13.05.16.12.04.09.03.17-.02.24l-.09-.07s.04-.08.02-.13c-.02-.04-.06-.06-.1-.06-.05,0-.11.02-.17.05-.06.03-.11.07-.14.1-.03.04-.04.08-.01.12h0ZM20.47,6.9l-.04-.12.25-.26-.1-.04-.22.07-.03-.1.63-.22.03.1-.25.09.32.11.04.13-.31-.11-.32.34ZM21.25,7.4l-.42-.15-.28.06-.02-.1.28-.06.33-.3.02.12-.22.21.28.11.02.12Z"/>
      <g>
        <path class="cls-16" d="M15.85,5.57l-.3.21.03.28.05.03.14.05.04-.02h.1s.02-.08.02-.08v-.11s.04,0,.04,0v-.03s-.02-.11-.02-.11l.02-.05v-.12s-.12-.05-.12-.05Z"/>
        <path class="cls-9" d="M15.9,5.52c-.12-.06-.23-.12-.4.01-.07.1-.15.21-.08.27-.08.21.01.22.05.29.09,0,.1-.08.13-.15,0-.04-.03-.09-.02-.13.02,0,.05-.01.05.02l.05-.03.1-.19s.07-.02.08.03c.05.02.07.03.09,0,.01-.05-.02-.11-.06-.11h0Z"/>
        <path class="cls-8" d="M15.5,6.1c-.1.08-.18.18-.24.28-.02.03-.03.09-.05.2-.01.06-.05.14-.1.23.02.02.06.02.06.05,0,.07.06.06.1.09-.03.15.05.28.06.41,0,.02,0,.03,0,.05l-.1.67s-.03.66-.05.67c-.02,0,.11.08.11.08-.02.19-.07.37-.06.55.02.25.14.49.11.74-.01.1-.05.2.03.27l.38.09c.16.03.24-.04.29-.11.07-.01.16-.05.14-.12-.15-.05-.28-.13-.3-.25l-.28.04c-.03-.21-.03-.42-.03-.63,0-.15.05-.29.09-.42v-.12s.09.02.09.02v.09s0,.06,0,.09c-.08.2-.1.33-.1.68l-.02.31.27-.04c-.02-.18.05-.34.1-.5.05-.22.11-.44.13-.67.01-.03.03-.05.06-.07l-.05-.61c0-.22-.04-.42-.09-.63.04-.03.05-.09.05-.15,0-.05,0-.1-.03-.12l-.04-.03-.02-.22.07-.24c.09,0,.19.02.28,0,.06-.05.12-.1.16-.17v-.05s-.22.07-.22.07c-.11-.06-.2-.15-.26-.21l-.23-.24-.23-.06h-.06Z"/>
        <path class="cls-3" d="M15.9,7.5l-.26-.02-.04.04-.1.06-.05.14c-.04.12-.09.23-.22.25-.08-.04-.1-.14-.06-.31.06-.12.12-.25.23-.23.05.02.08.05.08.1.04,0,.07-.02.1-.05,0,0-.28-.02-.27-.03,0,0,.03-.05.03-.08.06,0,.23.02.29.03.01,0,0,.02,0,.02l.28.09ZM15.76,7.02l.03-.13.04.05-.03.16s-.03-.04-.04-.07h0ZM15.82,6.7c.02-.09.03-.18.04-.28v-.2s.04.04.04.04v.17s0,.17,0,.17l-.03.13s-.03,0-.04-.03h0Z"/>
        <path class="cls-14" d="M16.41,10.12c-.06.07-.15.1-.24.12v.08s.17.03.17.03l-.04.09c.04.08.16.09.29.09.1-.01.19-.05.28-.08l.18-.03v-.19s-.64-.11-.64-.11Z"/>
        <path class="cls-4" d="M16.77,6.24h-.06s-.2.29-.2.29l-.02.09s-.12.13-.18.14c-.05.01-.39,0-.41-.02,0,0-.06-.03-.08-.01-.04.04-.04.16,0,.2l.17.07s.26.05.28.05c.02,0,.16-.03.16-.03-.01.11,0,.22.01.33-.02.02-.02.08-.02.13l-.03,1.33v.23l.05.57v.36s-.02.13-.02.13l.07.04.04.05.02.06c.08-.01.13-.06.14-.07,0,0,.1.05.11.05.01,0,.08.02.08.02h.14s.05-.04.05-.04c.04-.15.06-.29.06-.46.01-.23,0-.46,0-.69l.02-.06c.02-.1.02-.22.03-.33,0,0,0-.73,0-.76,0-.03-.04-.32-.04-.32l-.05-.24v-.26s.05-.14.05-.14l.04-.25c0-.09,0-.17-.02-.27,0-.09-.05-.19-.1-.28l-.06-.06-.24.15Z"/>
        <path class="cls-15" d="M16.98,5.98h-.08s-.29.12-.28.14c0,.01-.13.4-.13.4h.02s.21-.27.21-.27h.04c.09-.06.17-.11.26-.17l-.04-.1ZM16.88,8.69c0,.26.02.53.04.8,0,.25-.01.51-.04.76h.07c.02-.29.02-.57.02-.86-.02-.21-.03-.42-.03-.63l-.06-.07Z"/>
        <path class="cls-16" d="M16.51,5.62l-.02.16-.04.12v.02s.05.02.05.02l.02.09v.08s.07.03.07.03l.04-.04.27-.13-.11-.45-.28.09Z"/>
        <path class="cls-14" d="M16.52,5.62c.07-.03.12-.03.16-.01.02.07.02.14.05.21,0,.03,0,.06,0,.1,0,0,.08,0,.09,0,0,0,.16.06.16.05l.06-.07v-.18s-.04-.16-.05-.16c-.01,0-.16-.09-.16-.09-.1,0-.17.02-.23.05l-.07.11Z"/>
        <path class="cls-16" d="M15.64,6.57s.01.04.02.06c-.07-.02-.15-.04-.19-.02v.02s.02.03.02.03c-.02,0-.04,0-.05.02,0,.02,0,.03.01.04l-.02.02v.08s.16.03.16.03c.06.02.11.06.18.06,0,0,.05-.15.05-.16,0,0-.12-.11-.12-.11-.01-.02-.03-.04-.06-.05h-.02ZM16.4,7.18l-.07.04h-.06s-.19.06-.19.06c0,0,0,.15,0,.15.01,0,.03,0,.04,0l.1.07h.04s.05.02.05.02c0,0,.06-.07.06-.08,0-.01.03-.06.03-.06l.03-.02-.02-.18h-.02Z"/>
        <path class="cls-14" d="M15.71,7.58l.04-.05s.09.07.08.12l-.05.06c0-.05,0-.09-.07-.13ZM15.65,7.62s-.04,0-.06,0c0,.06-.01.1-.04.13.03.02.08.03.13.02,0-.05,0-.1-.03-.16h0ZM15.49,7.58l.04.03s-.03.08-.06.1c-.03-.02-.04-.04-.05-.07.03,0,.05-.03.07-.05ZM15.4,7.51s-.01.04,0,.07c.03,0,.04-.02.05-.03-.02-.02-.04-.04-.05-.04h0Z"/>
        <path class="cls-16" d="M15.45,7.55l.04.04s-.04.05-.07.05l-.02-.05.05-.03ZM15.71,7.58c.07.03.06.08.07.13-.03.03-.06.05-.09.06,0-.05,0-.11-.03-.15.02,0,.03-.02.05-.04h0ZM15.54,7.61l.06.02c0,.06-.01.1-.05.13-.03-.01-.05-.03-.07-.05.03-.03.05-.05.06-.1h0Z"/>
        <path class="cls-5" d="M15.71,5.45c-.05,0-.11,0-.16.03-.04.02-.07.07-.1.11-.03.04-.04.08-.06.13,0,0,0,.02,0,.03,0,.02.01.04.02.06,0,.04-.03.09-.02.13.01.06.04.12.09.16,0,0-.11.12-.16.19-.03.04-.06.09-.08.14-.02.05-.02.11-.03.16-.02.07-.07.18-.08.2-.02.02-.02.04,0,.04.02,0,.04.02.05.03,0,.01,0,.03,0,.04.02.03.08.05.09.06,0,0,0,.03,0,.04,0,.09.02.18.05.26,0,.02.01.08.02.09,0,.02.02.02,0,.06,0,.01-.03.03-.05.06,0,.01-.02.03-.03.04-.03.05-.06.11-.08.17-.02.05-.03.12-.02.17,0,.04.01.05.04.08.01.02.03.04.03.05,0,.01,0,.03,0,.05,0,.02,0,.35-.02.53,0,.06-.02.18-.03.18,0,.02.02.04.03.05.02.02.07.03.07.05,0,.02-.05.29-.06.44,0,.03,0,.06,0,.09,0,.04.01.08.02.12,0,0,0,0,0,0h0c.03.14.07.28.09.42,0,.05.01.11,0,.16,0,.04-.02.08-.02.12,0,.03-.01.06,0,.09,0,.04.02.09.05.12.02.02.06.02.09.03.02,0,.05,0,.07,0,.04,0,.07.02.1.03.05.01.1.04.15.04.04,0,.08,0,.12,0,.04-.01.07-.03.11-.06.05-.04.03-.05.05-.05,0,0,.08-.02.11-.05.01-.01.09.01.09.01h.07s-.04.06-.03.09c.03.07.12.08.19.1.07.01.15,0,.23-.01.04-.01.1-.05.13-.05.01.01,0,.01.02.01.02,0,.19-.04.2-.05,0-.02.01-.22.01-.22,0-.01.02-.07.03-.1.02-.12.03-.25.04-.38.01-.16.01-.32,0-.49,0-.02,0-.05,0-.07,0-.05,0-.13,0-.15.01-.01.02-.05.03-.08.04-.31.05-.62.04-.92,0-.15-.02-.3-.04-.45-.01-.1-.05-.2-.05-.31,0-.21.08-.4.09-.61,0-.04,0-.15-.02-.22-.01-.07-.03-.15-.06-.22-.02-.05-.05-.09-.07-.13,0-.02-.03-.02-.04-.03,0-.02-.02-.05-.03-.08-.01-.03.05-.06.06-.09,0-.02,0-.05,0-.07,0-.03.02-.06.02-.08,0-.03,0-.05-.02-.07,0-.01,0-.02-.01-.04,0-.03-.02-.07-.03-.08,0,0-.08-.08-.14-.09-.04-.01-.08-.01-.12,0-.03,0-.06,0-.08.01-.04.01-.08.03-.11.06-.02.02-.03.04-.04.06,0,.02-.02.03-.02.05,0,.04,0,.1,0,.11,0,.02,0,.02,0,.03,0,.02,0,.04-.01.06-.02.05-.02.08-.01.08,0,0,.03,0,.03.01.02.01,0,.02.01.05,0,0,0,.02,0,.03,0,0,0,.02,0,.04,0,.02,0,.03,0,.05,0,.02,0,.03.03.04.01,0,.05.02.05.03,0,.01-.02.09-.02.09,0,.02-.06.16-.06.17,0,.02-.03.07-.03.09,0,.03-.02.04-.03.05-.01.01-.1.03-.11.03,0,0-.02,0-.03,0-.03.01-.04.01-.05,0,0,0-.08-.05-.14-.11-.03-.02-.05-.06-.07-.08-.03-.03-.06-.05-.09-.08-.05-.06-.1-.11-.1-.12-.03-.03-.11-.1.04-.08.04,0,.04-.03.04-.06,0-.02,0-.05.01-.08,0-.01,0-.04,0-.05,0-.02.02,0,.03-.02.02-.02.02-.03,0-.05,0-.02-.01-.03-.02-.05-.02-.04,0-.02.01-.08,0,0,0-.01,0-.02,0-.01,0-.04,0-.05,0,0,0-.04,0-.07,0-.02,0-.05,0-.07-.03-.04-.11-.06-.12-.07-.04-.03-.09-.03-.13-.03h0ZM15.71,5.46s.04,0,.06,0c.02,0,.05.02.07.03.03.01.07.03.1.05,0,0,.03.02.02.02,0,0,0,.03,0,.05,0,.01,0,.02,0,.03,0,.01,0,.01,0,.02,0,0,0,0,.01,0,0,0,0,.01,0,.04,0,.02,0,.03,0,.04,0,.01-.04.02-.07,0,0,0-.01,0-.02,0-.01,0-.05.02-.05.03,0,0,.03,0,.03.01,0,0,0,.02,0,.02-.01,0-.01.02.03.02.02,0,.02,0,.03,0,0,0,.01-.01.01-.01,0,0,.02,0,.02,0,0,0,0,.02.01.02,0,0,0,.02,0,.03.02.05.02.06,0,.07,0,0-.01,0-.02,0-.02,0-.02,0-.03,0-.01,0,0-.02-.02-.01-.01.01-.03.03-.03.05,0,.02-.01.05,0,.05.01,0,.08,0,.06.02,0,0,0,.02,0,.04,0,.03,0,.03-.01.04-.02.01-.04,0-.06,0-.04,0-.09-.04-.1-.05-.04-.02-.05-.06-.06-.08,0,0,0,0,0-.01,0,0,0,0-.01,0-.02,0-.05-.01-.05-.05,0,0,0-.02,0-.03,0-.02-.02-.02-.02-.04,0-.03.01-.04.03-.03.02,0,.02.03.02.03,0,0,0-.01,0-.02,0-.02,0-.03-.02-.03-.01,0-.01,0-.02,0-.03,0-.03.04-.03.05,0,.02.03.08.02.1,0,.02-.04.03-.06.02,0,0,0,0,0,.01,0,0,0,.01,0,.03,0,.02-.02.06-.05.06,0,0-.05-.02-.05-.04,0,0-.03-.03-.04-.09,0-.03-.01-.1.03-.1.04,0,.03.05.02.06-.01.02,0,.03.01.04,0,0,.01.01.01.02,0,.02,0,.04.02.04.02,0,0-.03,0-.04,0-.01,0-.01,0-.02,0,0,0,0,0-.01,0-.01.02-.02.02-.02s-.01-.08,0-.11c0,0,.02-.03.02-.04s.04-.06.03-.06c-.01,0-.05.09-.07.09-.03,0,.02-.09.04-.11.02-.02.07-.04.07-.05,0,0-.06.02-.08.04-.02.02-.03.04-.04.06,0,.01-.01.03-.02.04,0,.02-.01.05-.03.05,0,0-.01,0-.01-.01,0-.02.02-.06.02-.07,0,0,.04-.08.05-.09,0,0,.01-.02,0-.02-.02,0-.07.12-.08.13-.01.02-.03.01-.04,0-.03-.04.06-.19.07-.18.02.02.02.02.06,0,.02,0,.02-.02.03-.01.01,0,.04.01.05,0,.02-.03.01-.03.08-.05-.06-.02-.09,0-.18.07,0,0-.03,0-.02-.02,0,0,.03-.04.05-.05.03-.02.06-.03.09-.04.02,0,.04,0,.06,0h0ZM16.82,5.46s.05.02.05.03c0,0,0,0,0,0,0,0,0,0,.02,0,.02,0,.03.01.05.02.02,0,.02.01.02.02,0,0,.03.03.03.03,0,.01.01.02.02.04,0,0,0,.02,0,.03,0,0,0,0,0,.02,0,.01-.02.01-.02.02,0,0,0,0,0,.03s.03.04.03.05c0,.02-.08,0-.1,0-.03,0-.04,0-.04.02,0,0,0,0,.01,0,.01,0,.02,0,.03.01,0,0,0,0,.01.01,0,0-.03,0-.02.01,0,0,0,0,.01,0,.01,0,.02,0,.03.02,0,0,0,0,0,0,0,0,0,0,0,0,0,0,.03-.04.04-.03.02.01,0,.06,0,.08,0,0,0,.01,0,.02,0,0-.02,0-.02,0-.01,0,0,.02-.01.03,0,.01-.02.02-.03.02,0,0,0,0,0,0,0,0,0-.01,0-.02,0-.01,0-.01,0-.02,0,0,0,0,0,0s0,.03-.01.04c0,0-.01,0-.02-.02,0,0-.01,0-.02,0,0,0,0,0-.02-.01,0-.01,0-.01,0-.02,0-.03,0-.04-.03-.02-.02.02-.02.02-.03.02-.01,0-.03.02-.04,0,0,0-.01,0-.01,0,0,0,.02-.03.03-.04.02,0,.03-.02.03-.03,0,0,0,0,0,0,0,0-.02,0-.03,0-.02,0-.04.08-.05.07,0,0,.01-.06.01-.07s0-.02,0-.03c0,0,0-.02-.02-.03,0,0,0-.01,0-.02,0-.01,0-.01,0-.02,0,0,0,0,0-.01,0,0,0-.01,0-.02,0-.03,0-.03.01-.04,0,0,0,0,0,0,0,0-.01-.01-.02-.01-.02,0-.04-.02-.03-.03,0,0,.03-.02.05-.02.02,0,.02,0,.01,0-.02,0-.04,0-.05,0,0,0-.02,0-.02,0-.01,0-.02,0-.01.03,0,0,0,.01,0,.02,0,0,0,.01.01.02,0,.01,0,.02,0,.04,0,0,0,0,0,.01.01,0,0,.01,0,.02,0,0,0,.02,0,.03,0,.02,0,.02.03.07,0,.01.01.02,0,.04-.01.03-.01.05.02.05,0,0,.01,0,.02,0,.01,0,.04,0,.05,0,0,.01.03.02.05.02.02,0,.01.02,0,.03,0,0-.05.02-.06.03-.02,0-.03.02-.05.02-.03.01-.05.03-.08.04-.02,0-.04.02-.05.03,0,0-.02.03-.03.03,0,0-.03-.02-.04-.02-.04,0-.02-.04-.02-.07,0-.03,0-.03,0-.04,0,0,.04-.01.05,0,0,0,.02,0,.01-.01,0,0,0,0-.03,0-.02,0-.04,0-.05,0,0,0,0-.04,0-.04,0-.02,0-.01.02-.02,0,0,.01-.05,0-.06,0,0-.01,0-.01.02,0,.03,0,.03-.02.03,0,0-.03,0-.04,0,0-.01.02-.06.02-.06,0,0,0-.03,0-.04,0,0,0-.01.01-.01.01,0,.03,0,.04.01.01.01.02.02.02.03,0,.02,0,.02,0,0,0,0,0-.01.01-.02,0,0,0,0,0-.01,0,0,0,0-.01,0,0,0-.01,0-.01-.02,0,0,0-.02.02-.02.01,0,.02-.01,0-.01,0,0-.05,0-.05,0,0,0,0,0-.01,0-.01,0-.01,0-.02,0,0,0,0,0,0-.02,0-.01,0-.02,0-.03,0,0,0-.02,0-.04,0-.03,0-.03.02-.04,0,0,.02,0,.03-.02,0-.01,0-.01,0-.03,0-.01,0-.02.01-.03,0,0,.05-.04.06-.04h.02s.02-.02.02-.02c.03-.01.04,0,.05,0,0,0,.08,0,.08,0h0ZM16.78,5.51s-.02,0-.03,0c0,0-.08.02-.09.03-.01.01-.02.02-.04.02-.01,0-.02,0-.02.02,0,0,0,0,0,0,0,0,.02,0,.03,0,0,0,.01,0,.02-.01,0,0,.02-.01.02-.01s.02,0,.03,0,.02,0,.02,0c.02,0,.03-.01.04-.01,0,0,.03,0,.04,0,.01,0,.01,0,0,0,0,0-.01,0-.03,0h0ZM15.74,5.58s0,0,0,0c0,0,0,0,0,0,.01.02,0,.03-.01.04,0,0,0,0,0,0,0,0,0,0,0,.01,0,.01-.02.02-.04.02,0,0-.01,0-.01,0,0,0,0,0,0,.01,0,0,0,.01,0,.03,0,0,0,.02,0,.03v.02s0,0,0,0c0,0,0,.02,0,.02,0,0,0,.02,0,.02,0,0,0,0,0,0,0,0,0,0,.01,0,.01,0,.03-.03.04-.05,0,0,0-.02,0-.02,0,0,0,0,0-.01,0,0,0,0,0-.01,0,0,0-.02.01-.02,0,0,.02-.02.02-.03,0-.01.02-.03.03-.03,0,0,.05-.01.05,0,0,0,.01.03.02.03,0,0,0-.01,0-.02,0-.02,0-.02-.01-.03,0,0,0,0,0,0,0,0,0,.01-.01.01,0,0-.01,0-.02,0,0,0-.02,0-.03,0,0,0-.03-.01-.04-.01,0,0,0,0-.01,0h0ZM16.78,5.68s-.02.01-.03.02c0,0,0,.04,0,.05v.02h0s.01,0,.01-.03c0-.01,0-.02,0-.02,0,0,0-.02,0-.02,0-.01,0-.02,0-.02h0ZM15.52,5.8s0,.05,0,.05c0,0-.01.04-.01.05,0,.02-.02.03-.04.02,0,0-.01-.03,0-.06,0,0,0-.06.04-.06h0ZM15.73,5.86s0,0,0,0c0,0,0,.02.02.03,0,0,0,0,0,0,0,0,0-.02,0-.03,0,0-.01-.01-.02,0h0ZM15.9,5.93s.02,0,.03.01c0,.01,0,.03,0,.04-.01,0-.06,0-.05-.02,0-.01.01-.02.02-.03,0,0,0,0,0,0h0ZM15.62,5.96c.06,0,.03.09.1.11.02,0,.02,0,.05.03.01.01,0,.03-.01.03-.08-.01-.14-.05-.17-.06,0,0,.03-.09.03-.11h0ZM16.93,5.99s.04,0,.04,0c0,.03.02.06.03.09-.01,0-.04.03-.06.04,0,0-.06.04-.1.06-.03.02-.06.04-.1.05-.01,0-.04,0-.04,0,0,0-.19.27-.21.29-.03,0,.07-.18.09-.28,0-.04.02-.1.02-.11,0-.03.19-.14.31-.15,0,0,.01,0,.02,0h0ZM17.01,6.1s0,0,0,0c.01,0,.03.03.04.05.03.04.05.08.07.12.02.06.03.12.04.18.01.07.01.15.01.22,0,.03-.02.16-.02.18,0,.03,0,.06-.02.1,0,.02-.02.04-.03.06-.01.03-.07.1-.13.14-.06.05-.08.05-.12.09,0,0-.03.02-.03.03,0,0,.03,0,.04-.01.03-.02.06-.04.09-.06.03-.02.06-.05.09-.08,0,0,.03-.03.03-.02,0,0-.06.08-.1.12-.03.03-.09.06-.09.07,0,0,0,.01,0,.02,0,0,.01,0,.02,0,0,0,.07-.04.1-.06.02-.02.04-.03.06-.05.01-.01.03-.04.03-.04,0,0-.01.03-.02.04-.02.02-.03.05-.05.07-.02.02-.05.04-.06.05-.02.02-.04.04-.03.03.01,0,.02-.02.03-.02.02,0,.03-.02.05-.02.01,0,.03,0,.04,0,.01.01,0,.04-.01.06-.01.04-.04.07-.05.1-.01.05,0,.1,0,.15,0,.03,0,.07,0,.1,0,0,0,.02,0,.02,0,0,0-.01,0-.02,0-.01,0-.02,0-.03,0-.02,0-.04,0-.05,0-.02,0-.03,0-.05,0-.03,0-.07.01-.1,0-.01.02-.03.03-.03.01,0,.04-.01.04,0,0,0,.01.03.01.04.01.05.02.11.03.16,0,.05.01.09.02.14,0,.04,0,.08.01.12,0,.05,0,.09,0,.14,0,.04,0,.08,0,.12,0,.08,0,.16,0,.24,0,.04,0,.07,0,.11,0,.04,0,.08,0,.13,0,.11,0,.21-.02.32,0,.02,0,.05,0,.06,0,.02,0,.02-.02.02,0,0-.02-.08-.03-.12,0-.04-.01-.07-.02-.11,0-.1,0-.19,0-.29,0-.04,0-.07,0-.11,0-.15.01-.29.01-.44,0-.03,0-.07,0-.1,0-.03-.02-.22-.03-.22,0,0,0,.15,0,.23,0,.13,0,.26,0,.39,0,.08,0,.16,0,.24,0,.07,0,.14,0,.21,0,.07,0,.13.02.2,0,.04.04.11.04.11,0,0-.02-.02-.03-.04-.07-.08-.19-.25-.24-.36-.16-.37-.3-1.05-.28-1.17,0-.06,0-.06-.02-.06,0,0-.02,0-.05,0-.04,0-.04,0-.05,0-.01,0-.03-.12-.03-.19,0-.06,0-.13,0-.13,0,0,.08-.05.12-.07.05-.03.1-.06.15-.1.07-.06.15-.11.21-.18.04-.04.07-.09.08-.14,0-.02,0-.06,0-.07,0,0-.01-.02-.02-.03,0,0-.02-.04-.02-.04,0,0-.01,0-.01,0,0,0,0,0,0,.02,0,0-.02.05-.03.07-.01.02-.02.03-.03.05-.01.02-.03.03-.04.04-.02.02-.04.04-.07.05-.03.02-.07.05-.1.07,0,0-.06.04-.07.05-.02.01-.06.03-.07.04,0,0,0,0,0,0,0,0,0,.01,0,.01,0,0,.05-.01.06-.01,0,0,.05-.01.07-.03.03-.01.05-.03.07-.04.04-.02.08-.04.12-.07.02-.01.06-.05.06-.05,0,0,0,0,0,0,0,0-.02.05-.03.07-.02.02-.04.04-.06.06-.03.03-.07.06-.1.08-.05.03-.09.07-.14.1-.02.02-.05.03-.07.04-.04.02-.08.05-.11.05-.03,0-.08.04-.2.01,0,0-.11-.02-.2-.04-.07-.02-.12-.04-.13-.05-.02,0-.03-.03-.04-.04,0,0-.01-.02-.01-.04,0-.04.03-.11.04-.11,0,0,.02-.01.04,0,.01,0,.04.02.06.02.05.01.05,0,.15,0h.09s.04,0,.04.02c0,0,0,.02,0,.03,0,.04,0,.04.01.05.01,0,.01,0,.01-.01,0-.01,0-.03,0-.03,0,0,0,0,0-.02,0-.01.01-.03.02-.03,0,0,.01.03.02.04,0,.02,0,.02.01.03,0,0,.01,0,.01,0,0,0,0-.01,0-.02,0,0,0,0,0-.02,0-.02,0-.02,0-.02,0,0,.02-.02.03-.03.04-.04.08-.07.12-.11.08-.09.15-.2.24-.28.03-.03.1-.07.1-.08,0,0,.04-.01.04-.02.04,0,.03-.02,0-.02,0,0-.06.01-.08.03-.02.01-.04.03-.05.04-.03.03-.11.13-.12.14-.02.03-.05.07-.07.09,0,0,0-.02,0-.03.01-.04.04-.07.07-.1,0-.01.02-.02.02-.04,0-.01.02-.03.03-.04.02-.03.04-.06.06-.08,0,0,0,0,0-.01,0,0,.02,0,.03,0,0,0,.01,0,.02,0,.01,0,.03-.02.04-.02.02-.01.04-.02.05-.03.03-.02.06-.04.09-.05.02-.02.06-.04.06-.04h0ZM15.59,6.1s.07.02.1.03c.02,0,.03,0,.05.01.01,0,.03,0,.04.02.03.02.07.06.07.07,0,.02,0,.15,0,.22,0,.08-.03.23-.04.24-.01,0-.03-.02-.05-.04-.01-.01-.04-.03-.05-.05-.01-.02-.07-.06-.09-.03,0,.01.01.03.02.05-.03-.01-.15-.02-.17-.02-.02,0-.02.03-.01.04.03.01.02.01,0,.02-.02,0-.02.03,0,.04.01.01,0,.01,0,.02,0,0,0,.01,0,.02,0,0,0,.02.01.03,0,0,0,.03,0,.03,0,.02.02.01.03.02.04.01.1,0,.15.03.06.03.11.04.12.05,0,0,.02,0,.03,0,0,.02,0,.06-.02.09-.02.02-.05-.02-.08-.03-.05-.02-.21,0-.21,0,0,0,0-.09,0-.09-.02,0,0,.09-.01.09,0,0-.02,0-.02,0-.01,0-.03,0-.03-.02,0-.03,0-.12,0-.12-.01,0,0,.13-.01.13-.02,0-.1-.01-.1-.02,0,0,.02-.05.02-.08,0-.04.02-.09.02-.09,0,0,.01-.05,0-.06,0,0,0,0,0,.02,0,.02-.02.12-.03.13,0,.03-.01.08-.02.08-.01,0-.03,0-.04-.01,0,0-.04-.02-.04-.02-.02-.03.04-.1.05-.12,0,0,.02-.07.02-.07.01-.03.03-.21.04-.23,0-.01.07-.11.06-.11,0,0-.08.08-.08.11,0,.06-.03.16-.03.16,0,.04-.03.11-.03.12,0,.01-.03.06-.05.07,0,0-.03-.01-.04-.02,0,0,0-.01,0-.01,0,0-.03,0-.02,0,0,0,.06-.11.06-.12,0,0,.04-.1.04-.11,0,0,.01-.11.03-.17.02-.05.05-.09.08-.13.02-.02.05-.07.07-.06,0,0,.03.06.04.05,0,0,0-.07,0-.08,0,0,.01-.02.02-.02.01,0,.03.06.03.07,0,0,0,0,0,0,0,0,0-.02,0-.03,0-.02-.02-.05-.02-.05,0,0,0-.01,0-.01,0,0,.01,0,.02,0,0,0,.05.08.05.09,0,0,.01.02.02.01,0,0,0-.02,0-.03,0-.01-.04-.06-.04-.07,0,0,0,0,0,0,0,0,.01,0,.02,0,.01.01.09.07.13.12.01.02.02.04.03.05.01.02.02.02.01,0,0,0-.02-.04-.03-.05-.02-.03-.07-.07-.07-.07,0-.01,0-.02.02-.01,0,0,.1.08.1.07,0,0-.05-.04-.07-.07-.03-.03-.06-.07-.09-.1,0,0,0,0,0,0h0ZM15.86,6.24s.02.01.02.02c.01.01.02.13.01.2,0,.09-.04.26-.04.26,0,0-.02,0-.03-.02,0,0,.03-.17.04-.25,0-.07,0-.21,0-.21h0ZM15.91,6.3s.02.03.03.04c.02.02.12.1.15.16,0,.02,0,.04,0,.06,0,.01,0,.06-.01.08,0,.01-.01.04,0,.04.02,0,.02-.03.02-.04,0-.02,0-.04,0-.06,0-.01,0-.03.01-.04.01,0,.02-.01.04,0,0,0,.08.05.09.09,0,.01,0,.03,0,.04s0,0,0,.01c0,0,0,0,.01,0,0,0,0-.03,0-.04.06-.04.2-.08.2-.08.01,0-.01.08-.02.08,0,0-.1.1-.12.11-.04.02-.12.02-.18.02-.1,0-.24.01-.29-.05-.02-.02.01-.06.02-.1,0-.03,0-.07,0-.1,0-.01,0-.02,0-.03,0-.01,0-.02,0-.03,0-.04,0-.08,0-.12,0-.01,0-.04,0-.04h0ZM15.96,6.49s-.01,0-.01,0c0,.01.02.02.03.03,0,.02.01.03.02.05,0,.01,0,.03,0,.04,0,0,0,.02,0,.02,0,0,0,0,0,0,0,0,0-.01,0-.02,0-.02,0-.04-.01-.06,0-.02,0-.04-.02-.05,0,0-.02-.02-.03-.02h0ZM15.66,6.57s.04.01.05.04c.02.03.04.04.06.06.02.02.06.05.06.06-.03,0-.06.13-.04.14-.07.01-.09-.03-.15-.05-.04-.01-.08-.02-.13-.03-.02,0-.03,0-.03-.01,0,0,0-.02.01-.02.01,0,.08.02.08,0,0-.02-.05-.02-.08-.03-.01,0-.03,0-.03-.02,0,0,0-.01,0-.01.01,0,.04,0,.05,0,.03,0,.05,0,.05,0,0-.01-.02-.01-.04-.01-.03,0-.07,0-.07-.02,0,0,0-.02,0-.02.01,0,.05,0,.07,0,.03,0,.04.01.04,0,0,0-.02-.01-.05-.02-.02,0-.06,0-.05-.02,0,0,0-.01.01-.02.02,0,.07,0,.09,0,.05.01.07.01.1.03,0,0,0,0,0-.02,0,0-.04-.02-.03-.04,0,0,0,0,.01,0h0ZM17.08,6.63s0,.1-.01.14c0,.06-.01.13-.03.19-.01.04-.07.1-.05.11.03.01.06-.1.08-.16.02-.05.02-.11.02-.16,0-.02,0-.04,0-.06,0-.02,0-.06-.01-.06h0ZM15.79,6.91s.01.02.02.02c0,.02-.02.14-.02.16,0-.01-.03-.04-.03-.05,0,0,.02-.12.02-.13ZM15.84,6.96s.13.04.15.05c0,.02.02.2.02.21,0,0-.14-.07-.16-.07-.02,0-.05-.04-.05-.04,0,0,.02-.14.03-.15,0,0,0,0,0,0h0ZM15.65,6.97s.04,0,.04,0c.04.02.06.05.07.08,0,.01.04.07.05.08,0,0,0,.03,0,.04,0,.01-.04,0-.05.02,0,0,0,.01,0,.01,0,0,.05,0,.06-.02.01,0,.02-.03.02-.03.01,0,.22.11.22.11.01,0,.01.03.01.05,0,.05,0,.1-.01.15,0,0,0,.01,0,.01,0,0,0,0-.01,0,0,0-.01,0-.02,0,0,0,0,.01,0,.02-.01,0-.34-.09-.36-.11-.01-.01-.15-.11-.18-.17-.04-.07-.04-.21-.04-.22-.01-.04.05-.05.06-.03,0,0,.04.05.08.08.05.05.12.09.12.1.02.01.03.01.01,0,0,0-.18-.15-.16-.17,0-.01.08-.01.1-.01h0ZM15.27,6.98s0,0,0,0c.02.01.12.02.13.01,0,0,.02.19.06.27.03.05.13.13.13.12,0,0-.24-.02-.26-.03,0,0,0,0-.01-.01,0-.02-.01-.07-.02-.08-.03-.09-.06-.27-.04-.28h0ZM16.01,7.02s.17.03.21.04c.05,0,.08.01.1,0,.02,0,.09-.02.11-.02,0,.01,0,.13-.01.13-.02,0-.06.02-.07.04-.02.01-.04-.01-.07-.01-.02,0-.04.01-.06.02-.02,0-.06.02-.09.04-.03,0-.09-.02-.1-.02,0,0-.03-.21-.02-.22h0ZM16.55,7.03s-.01,0-.02,0c-.02,0-.03.03-.02.05,0,.02.01.04.03.04.02,0,.04,0,.05-.01.01-.02.01-.05,0-.07,0,0-.02-.01-.04-.01ZM16.54,7.19s0,0-.01,0c-.02,0-.02.03-.02.05,0,.02.01.04.03.04.02,0,.04,0,.05-.01.01-.02.01-.05,0-.07,0-.01-.03-.02-.04-.01ZM16.39,7.2s0,0,.01,0c.01,0,.01.01.01.03,0,0,.03.14,0,.15,0,0-.01,0-.02,0-.01,0-.02-.01-.02-.02,0,0-.02-.04-.03-.05-.02-.02-.04-.02-.06-.03-.01,0-.02,0-.04,0,0,0-.02,0-.03,0-.01,0-.03,0-.03.02,0,0,0,.01-.02.01-.02,0-.02-.03-.02-.04,0-.02.02-.03.03-.03.03-.01.04-.03.08-.02.02,0,.03,0,.05.01,0,0,0,0,.01,0,.01,0,.03-.02.04-.02h0ZM15.62,7.26s0,0,0,0c-.02.01.02.03.03.03.02.02.07.04.07.04.02,0,0,.03.04.04,0,0,.02.02.02.03,0,0,0,0,0,0,0-.02.02-.03.06-.03,0,0,.02,0,.03,0h.02s.03-.01.03-.02c0,0-.02,0-.05,0-.04,0-.12,0-.13,0-.01-.02.02-.03.03-.03.01,0,.04,0,.04-.01,0,0-.02,0-.03,0-.01,0-.02,0-.03,0-.02,0-.03,0-.04,0-.01,0-.06-.05-.09-.05h0ZM16.13,7.27s.02,0,.02.01c0,0,.01.03.01.03,0,0,0,.01.02.01.01,0,.01,0,.02-.02,0,0,.02-.03.04-.03.02,0,.03,0,.04,0,0,0,.02.01.03.01,0,0,.02.01.03.02.01,0,.02.02.02.03,0,.01.01.05.01.06,0,0,0,0,0,0s0,0-.01,0c0,0-.01-.02-.02-.02,0,0,.01.04.02.05v.02s0,.03-.02.02c0,0,0,0-.01,0,0,0-.02-.02-.02-.02s0,0,0,0c0,0,0,.02.01.03,0,.02,0,.04-.01.04-.01,0-.03-.02-.04-.02,0,0-.01,0-.02,0-.02,0-.02,0-.03,0,0,0-.04-.03-.05-.03,0,0-.01-.01-.02-.02,0-.01-.01-.02-.03-.02,0,0-.02,0-.03,0,0,0,0-.03,0-.06,0,0,0-.02,0-.04,0-.01,0-.03,0-.03,0,0,.03-.02.03-.02h0ZM16.04,7.35s0,0-.01.01c0,0-.02.02-.03.03-.01,0-.06.03-.06.03,0,0,0,0,0,0,0,0,.02,0,.04,0,.01,0,.02-.01.03-.02.02-.01.04-.03.05-.04,0,0,0,0,0,0,0,0,0,0,0,0h0ZM15.34,7.37s.27.02.28.03c-.01.02-.03.05-.05.07,0,0,0,0,0,0,0,0-.03.03-.05.04,0,0-.02,0-.03,0,0,0,0-.01,0-.02,0-.01-.02-.04-.03-.05,0,0,0,0,0,0,0,0-.03-.02-.05-.03-.04-.01-.07,0-.07,0-.01,0,0,0,0,0,0-.01.02-.04.02-.04h0ZM16.43,7.39s.08,0,.11,0c0,.01,0,.07,0,.11.05.38.16.79.28,1.1.01.03.04.07.04.08,0,.02,0,.17,0,.26,0,.06,0,.12.01.18,0,.04.02.21.02.31,0,.09,0,.17,0,.26,0,.12-.01.24-.02.35,0,.07-.02.2-.02.2,0,0-.03,0-.03,0,0,0-.04-.01-.05-.02,0,0-.07-.03-.08-.04,0,0,0-.01-.01-.02,0-.01.01-.06.02-.1,0-.03,0-.07.02-.09.02-.02.03-.01.05,0,.01,0,.03.02.03.02,0,0,0-.01,0-.02,0,0-.01-.01-.03-.01-.02,0-.03,0-.04-.01v-.02s-.01-.11-.01-.11c0-.07,0-.14,0-.21,0-.08-.01-.16-.02-.24,0-.06-.01-.12-.02-.18,0-.05-.02-.11-.03-.16-.01-.09-.02-.18-.04-.28-.01-.11-.02-.23-.04-.34-.01-.11-.04-.23-.05-.34-.02-.14-.04-.27-.05-.41,0-.06-.02-.18-.02-.19,0,0,0-.01,0-.01-.01,0-.03,0-.03,0,0,0,0-.05,0-.06h0ZM16.42,7.4s-.02.58-.03.87c0,.25-.02.5-.01.74,0,.19.03.39.04.58,0,.12.01.24,0,.36,0,.05-.03.15-.03.15,0,.02-.04.05-.05.06,0,0-.14.08-.2.05-.02,0-.08-.02-.11-.04-.04-.02-.08-.06-.11-.1-.01-.02-.03-.08-.04-.12,0-.17.07-.33.11-.5.03-.13.06-.26.09-.39,0-.04.02-.07.02-.11,0-.03,0-.07.01-.1,0-.03,0-.06.02-.07,0,0,.03-.02.03-.02,0,0-.04-.45-.05-.68,0-.07,0-.14-.01-.21,0-.04,0-.07-.02-.11-.01-.07-.04-.15-.05-.21,0-.01-.01-.02,0-.03.03-.03.04-.07.05-.09.01-.02.05,0,.11.05.03.03.05.02.07.02.01,0,.04.02.05.02.06-.03.06-.12.09-.13h0ZM15.63,7.42l.04.02s-.04.07-.08.09c-.02.01-.08.04-.09.05h0s0-.04,0-.04c.01,0,.04-.02.06-.03.02,0,.09-.08.08-.08h0ZM15.36,7.43s.01,0,.02,0c.02,0,.03.01.05.02.02.02.04.04.04.07,0,.01,0,.02,0,.04,0,0,0,0-.01,0-.01,0-.02-.02-.03-.03,0,0-.01-.01-.02-.02,0,0,0,0-.01,0,0,0,0,0,0,0,0,0,0,0-.01.01,0,0,0,.02,0,.03.01.05.03.1.06.14,0,.02-.01.04-.02.06-.02.05-.04.1-.08.14-.02.02-.04.04-.06.05-.02.01-.05.02-.08.01-.02,0-.03-.03-.04-.05-.01-.02-.02-.05-.02-.07,0-.03,0-.06,0-.08,0-.03.02-.07.03-.1.02-.04.03-.08.06-.11.03-.04.06-.09.1-.1,0,0,.01,0,.02,0h0ZM15.68,7.44s.03.01.07.02c0,.02,0,.01,0,.02-.04,0-.09,0-.09,0,.03-.03.02-.02.03-.03h0ZM15.76,7.47c.08.03.13.03.13.03-.03,0-.04,0-.12-.01,0,0,0,0,0-.02h0ZM16.45,7.48s.01,0,.02,0c0,.04,0,.11.01.16.01.14.03.29.05.43.01.11.04.23.05.34.01.11.02.23.04.34.01.09.02.18.03.27,0,.05.02.11.02.16,0,.06.01.12.02.19,0,.08.02.16.02.24,0,.11,0,.23,0,.35,0,.01,0,.02,0,.03,0,.01,0,.03,0,.04,0,.04-.02.07-.03.11,0,.02,0,.05,0,.06,0,0-.04.02-.05.03-.04.02-.07.03-.07.02-.01,0,0-.03-.01-.04-.01-.04-.04-.06-.08-.08-.02-.01-.04-.01-.04-.03,0-.02.01-.08.02-.09,0,0,.02-.01.03,0,0,0,.02.03.02.02,0-.01-.04-.06-.06-.05,0,0,0-.25,0-.38,0-.2-.04-.39-.05-.59-.01-.46.02-.92.02-1.38,0-.05,0-.14,0-.15,0,0,0,0,.01,0h0ZM15.64,7.49s.06,0,.1,0c0,0,0,.03,0,.03h0s0,0,0,0c-.03.05-.06.08-.09.08-.03,0-.06,0-.1-.01-.01,0-.03-.01-.04-.02.02-.01.06-.03.08-.05.03-.02.05-.05.05-.05h0ZM15.76,7.5c.12.02.22.02.24.03.02,0,.04.05.04.06,0,0,.03.15.03.16.02.08.02.17.03.25.01.18.02.36.03.54,0,.08.02.15.01.23,0,0-.06.03-.07.02,0,0,0-.02,0-.03,0,0,0-.01,0-.02,0-.04,0-.11,0-.11,0,0,0,0,0-.02,0-.04,0-.05,0-.05,0,0,0,.03,0,.08,0,.05,0,.1,0,.15,0,0,0,.02-.03.02,0,0-.01,0-.02,0-.01,0,0-.19,0-.19,0-.01,0-.03,0-.03,0,0,0,0,0,.02,0,.01,0,.04,0,.07,0,.02,0,.04,0,.04,0,0,0,.02,0,.05,0,0,0,.04,0,.04,0,0-.05.01-.05,0,0,0,0-.02,0-.07,0-.05,0-.07,0-.08,0,0,0,0,0-.07,0-.04,0-.07,0-.08,0,0,0,0,0-.01,0,0-.01,0-.01,0,0,0,0,.05,0,.06,0,.03,0,.05,0,.06,0,0,0,.02,0,.03,0,0,0,.03,0,.05,0,.04,0,.1,0,.11,0,0-.02,0-.03,0,0,0-.02,0-.02-.01,0,0,0-.05,0-.12,0-.06,0-.13-.01-.13,0,0,0,.17,0,.21,0,.02,0,.06-.02.07,0,0-.03,0-.05,0,0,0-.04,0-.04,0,0,0,0-.09,0-.13,0-.07,0-.12,0-.13,0,0,0,0,0,0s0,.02,0,.04c0,.03,0,.13,0,.15,0,.02,0,.06,0,.06,0,0-.03,0-.04,0-.01,0-.02-.01-.02-.02,0,0,0-.22,0-.23,0-.02,0-.02-.01,0,0,0,0,.02,0,.04,0,.02,0,.14,0,.15,0,.03,0,.06,0,.07,0,0-.04,0-.05,0,0,0-.02,0-.02-.02,0,0,0-.08,0-.14,0-.11,0-.12,0-.11,0,0,0,.05,0,.1,0,.04,0,.17,0,.17,0,.01-.01,0-.05,0-.02,0-.03-.02-.03-.02v-.15c0-.12,0-.14,0-.14,0,0,0,0,0,.02,0,0,0,.21,0,.21,0,.01,0,.06,0,.06,0,0-.02,0-.03,0-.01,0-.03,0-.05,0-.02-.01-.02-.03-.02-.07,0-.02.02-.16.02-.17,0-.01,0-.12,0-.12,0,0-.01.07-.01.07s0,.1-.01.11c0,.01-.02.1-.02.11,0,0-.06,0-.06,0,0-.01.03-.16.03-.19,0-.05.02-.19.01-.19,0,0-.02.13-.02.14,0,.03-.03.2-.03.21,0,.02,0,.05-.02.05,0,0-.03,0-.03-.02-.01-.02-.03-.02-.03-.04,0,0,.02-.18.02-.18,0,0,.02-.22.02-.29,0-.09,0-.21,0-.22,0-.01,0-.05,0-.06,0,0,.03,0,.05-.02.01,0,.03-.02.04-.03.02-.02.04-.03.05-.05.02-.03.04-.06.06-.09,0-.02.02-.04.02-.06,0,0,0-.02,0-.03.04.04.09.07.14.08.05,0,.09,0,.12-.02,0,0,0,0,0,0,0,.01,0,.03,0,.04,0,0,0,.04,0,.05,0,0,0,0,0,.01,0,0,0,0,0,0,0,0,.01-.04.01-.05,0,0,0-.01,0-.01,0,0,0-.03,0-.04.02-.01.03-.03.05-.04,0,.03,0,.08,0,.08,0,0,0,0,0,0,0,0,0-.04,0-.05,0,0,0,0,0-.01,0,0,0-.02,0-.03,0,0,.02-.02.03-.03.01-.01.01-.03,0-.05,0-.02-.01-.04-.03-.05-.01-.02-.03-.03-.04-.04,0,0,0,0,0,0,0,0,0-.02,0-.02h0ZM15.4,7.51s0,0,0,0c0,0,0,0,.02.01,0,0,.01.01.02.02,0,.02-.02.02-.04.03,0,0,0-.02,0-.03,0-.01,0-.02,0-.03,0,0,0,0,0,0,0,0,0,0,0,0h0ZM15.75,7.53s0,0,.01,0c.01,0,.02.02.04.03s.02.03.02.05c0,.02,0,.03,0,.04-.01.02-.03.03-.04.04,0-.02,0-.05-.01-.07,0-.02-.03-.04-.05-.06,0-.01.02-.02.03-.04,0,0,0,0,0,0,0,0,0,0,0,0h0ZM15.45,7.55h0s.01.01.02.02c0,0,.01,0,.01.01,0,0-.02.03-.02.03,0,0-.02.01-.04.02,0,0,0,0,0,0,0-.01-.01-.03-.02-.05.02,0,.04-.01.05-.03h0ZM15.97,7.58s-.01.02-.02.03c0,.02-.01.03-.02.05,0,.02-.01.03-.02.05,0,.01-.02.04,0,.04.02,0,.02-.03.02-.04.01-.03.02-.05.03-.08,0-.02.02-.04,0-.05h0ZM15.71,7.59s.04.03.05.05c0,.02.01.07.01.07-.02.02-.03.03-.05.04-.01,0-.02.01-.03.02,0-.05,0-.1-.03-.15.02,0,.03-.02.05-.04h0ZM15.54,7.61s.03.01.05.02c0,.05,0,.09-.04.13,0,0,0,0,0,0-.02-.01-.05-.03-.07-.05.03-.02.05-.05.06-.1h0ZM15.45,7.67s-.02-.02-.02-.03c.01,0,.02,0,.04-.02.01,0,.03-.03.03-.04.01,0,.02.01.03.02,0,0,0,0,0,0,0,.04-.03.07-.05.09,0,0,0,0,0,0,0-.01,0-.01-.02-.02h0ZM15.65,7.63s.03.09.03.15c-.02,0-.04,0-.07,0-.02,0-.03,0-.04-.01.04-.03.05-.08.04-.13.02,0,.03,0,.05,0h0ZM16.02,7.72s0,0,0,0c0,.02-.01.08-.02.12,0,.02-.02.03-.02.05-.01.03-.03.07-.04.11,0,0,0,.02,0,.03,0,.02-.01.04-.02.06,0,0,0,.02,0,.02,0,0,0,0,0,0,0,0,0-.02.01-.03.01-.03.02-.06.03-.09,0-.02.02-.05.03-.07,0-.02.02-.04.03-.05,0-.01.02-.13.01-.14h0ZM15.92,7.83s-.08.19-.12.29c-.04.11-.11.35-.11.35,0,0,0,.04,0,.04,0,0,.03-.04.03-.05.03-.06.06-.23.11-.34.03-.08.08-.16.11-.24,0-.02,0-.05,0-.05h0ZM15.34,8.01s0,0,0,.01c0,.01,0,.02,0,.04,0,.01,0,.03,0,.03s0,.03,0,.04,0,.03,0,.04c0,0,0,.03,0,.05,0,.02,0,.05,0,.05,0,.01,0,.02,0,.04,0,.01,0,.02,0,.02,0,0,0,0,0-.01,0,0,0-.01,0-.02,0,0,0,0,0-.02,0,0,0-.02,0-.03,0,0,0-.03,0-.06,0-.03,0-.05,0-.06,0,0,0-.13,0-.13h0ZM15.94,8.09s-.01,0-.02.01c0,.02-.02.06-.02.06,0,.01-.01.03-.02.05,0,.02-.01.03-.02.05,0,.02-.01.04-.02.06,0,.01,0,.02,0,.03-.01.06-.04.16-.04.17-.02.09.02.03.02,0,0,0,.02-.09.03-.13,0-.03.01-.05.02-.08,0,0,0-.01,0-.02,0-.02,0-.03,0-.05,0-.01,0-.02.01-.03.01-.03.03-.07.04-.1,0,0,0-.01,0-.01h0ZM15.82,8.26s-.03.1-.05.15c0,.03-.02.1-.02.1,0,0,.03-.05.03-.08.02-.05.03-.17.03-.17h0ZM16.89,8.71s.04.05.04.06c0,0,0,.18,0,.27,0,.06,0,.13.01.19,0,.07,0,.15.01.22,0,.06,0,.13,0,.19,0,.06,0,.11,0,.17,0,.15-.02.43-.02.43,0,0-.03,0-.04,0,0-.02.03-.32.03-.48,0-.1,0-.19,0-.29,0-.1-.01-.21-.02-.31,0-.05,0-.1-.01-.15,0-.1-.01-.3,0-.31h0ZM16.94,8.78s.08.12.13.18c.02.02.06.06.06.07,0,.03,0,.04,0,.06,0,.05,0,.09,0,.14,0,.29,0,.59-.04.88,0,.03,0,.07-.03.1-.03.03-.1.02-.1.02,0,0,.02-.54.02-.81,0-.07,0-.14-.01-.2,0-.07-.02-.21-.02-.32,0-.04,0-.13,0-.13h0ZM16.08,8.83s0,0,0,0c.02.01,0,.02,0,.08,0,.05-.03.16-.04.18,0,0-.02.01-.03.02,0,0-.01.02-.02.02,0,0-.01,0-.01.01,0,0,0,.01.01,0,0,0,.04-.02.04,0,0,0-.02.09-.02.1-.03.13-.03.18-.08.25-.02.04-.09.08-.1.09,0,0,0,0,0,.01,0,0,.01,0,.02,0,0,0,.07-.05.08-.05,0,0-.03.06-.05.09-.02.02-.05.03-.06.04-.01,0-.01.02,0,.02,0,0,.04-.02.06-.03.01,0,.03-.02.03-.02,0,0-.02.07-.02.08,0,0-.01.03-.03.04-.01.01-.05.02-.05.02-.02,0-.02.02,0,.01.03,0,.05-.02.06-.01,0,0-.02.02-.02.04,0,0,0,.02,0,.02,0,0,0,.09,0,.1,0,0-.09.02-.1.02,0,.01.09,0,.09,0,0,0,0,.04,0,.04,0,0-.02,0-.04,0-.02,0-.07,0-.08.01,0,0-.05.02-.06.02,0,0-.05-.01-.05-.03,0-.03,0-.06.02-.06.02,0,.06,0,.07,0,0,0-.07.01-.07-.05,0,0,0-.11,0-.12,0-.01,0-.03,0-.05s-.01-.05,0-.06c0,0,.02.01.04,0,.01,0,.02-.01,0-.02-.04-.02-.04-.05-.03-.06,0,0,.02.02.06.02,0,0,0-.02,0-.02-.07,0-.04-.12-.04-.12.01.02.02.04.04.05,0,0,0,0,0-.01-.01-.01-.06-.09-.04-.11,0,0,.03.03.04.03,0,0,0-.01,0-.02,0,0-.02-.03-.03-.05,0-.01,0-.03,0-.04,0-.04.02-.09.04-.13,0-.02.02-.05.03-.07,0-.01,0-.04.02-.04.01,0,.03.01.04.03,0,0,.02.02.03.03,0,0,.02.02.03.02.01,0,.03,0,.03,0,0,0,0,0-.02-.02-.02,0-.03-.02-.04-.04,0-.01-.07-.04-.07-.06,0,0,.02-.1.02-.12,0-.01-.01-.03-.01-.04,0,0,.06-.02.06-.02,0,0,.01,0,.03-.01.01-.01.02-.01.05-.02.02,0,.03,0,.04,0,0,0,.03-.01.03-.01,0,0,.05,0,.07,0,0,0,.02,0,.03,0h0ZM15.31,8.84s.02,0,.03,0c.02,0,.04.02.06.02.02,0,.04,0,.06,0,.01,0,.03,0,.04,0,.02,0,.03,0,.05,0,.01,0,.02,0,.04,0,.02,0,.06,0,.07,0,.02.01-.03.23-.05.25-.02.01-.06.05-.1.06-.01,0,0,.01.01.01.01,0,.08-.02.07-.03,0,0-.02.06-.03.3,0,.06,0,.14,0,.23,0,.11,0,.13.01.14,0,0,0,.04,0,.05,0,0,0,.01,0,.02,0,0,0,.02.01.05,0,.04,0,.07,0,.08,0,0,.01.04,0,.04,0,.03-.14.05-.14.05-.02,0,.13-.01.13-.01l.08.07s.08.07.09.07c0,0,.14.08.14.08,0,0,.12.04.11.06,0,0-.04.05-.07.06-.05.02-.11.03-.16.03-.07,0-.13-.04-.2-.05-.07-.02-.16,0-.21-.06-.03-.02-.04-.06-.04-.1,0-.06.03-.18.03-.18,0,0,.05-.02.07-.04.01-.01.03-.04.03-.05,0,0-.03.03-.04.04-.02,0-.05.02-.05.02,0,0,0-.04,0-.07,0,0,.03-.01.04-.02,0,0,.02-.02.02-.02,0,0-.02,0-.02,0l-.04.02s0-.06,0-.06c0,0,.04-.02.05-.03,0,0,.02-.03.02-.03,0,0-.02.01-.03.02-.01,0-.04.02-.04.02,0,0,0-.04-.01-.07,0,0,.04-.02.06-.04,0,0,.02-.02.02-.03,0,0-.02.01-.03.02-.02.01-.05.03-.05.03,0-.03-.01-.05-.02-.08,0,0,.05-.02.07-.04.01-.01.03-.03.02-.04,0,0-.02.02-.04.03-.02.01-.06.03-.06.03,0-.03-.02-.08-.02-.08,0,0,.04-.02.06-.03.01-.01.03-.03.03-.04,0,0-.02.02-.04.02-.02,0-.06.02-.06.02,0,0-.02-.06-.02-.1,0,0,.05-.02.07-.04.01-.01.03-.04.03-.04,0,0-.03.02-.04.03-.02.01-.07.03-.07.03,0-.03-.01-.07-.02-.1,0,0,.06-.03.09-.06.02-.01.04-.04.04-.05,0,0-.04.03-.07.04-.02.01-.06.03-.06.03,0-.02,0-.05,0-.07,0,0,0-.01,0-.02,0,0,.06-.04.09-.07.01,0,.03-.03.03-.03,0,0-.03.02-.04.02-.03.01-.08.04-.08.04,0-.04.01-.08.02-.12.04-.02.07-.04.1-.07,0,0,.03-.03.02-.03,0,0-.02.01-.03.02-.03.02-.05.04-.09.05,0-.05.01-.07.02-.11.02,0,.04-.02.06-.03.04-.03.02-.04,0-.02-.01.01-.03.03-.05.03,0-.04.02-.1.02-.1,0,0,0,0,.02,0h0ZM15.68,8.88s.05,0,.05,0c0,0,.02.04.02.06,0,.01,0,.02,0,.04,0,.02,0,.05-.01.07,0,0-.06.15-.07.22,0,.04-.02.07-.02.11-.01.11,0,.22,0,.34,0,.08-.02.31-.02.31,0,0-.02-.16-.03-.25,0-.1,0-.24,0-.31,0-.09.02-.3.04-.31.03-.02.06-.27.06-.26ZM15.8,10.01s.01,0,.01,0c0,.01.04.01.04.02,0,0,.08.1.13.14.03.02.08.05.1.05,0,0,.06.02.06.02,0,0,.02.01.02.01h0s0,.03,0,.03c0,0,0,0,0,.02,0,0-.06.04-.08.04-.03,0-.08,0-.08,0,0,0-.21-.1-.23-.12,0,0-.1-.08-.1-.08s-.04-.03-.04-.04c0-.01,0-.02,0-.03,0,0,0-.01,0-.02,0,0,.02-.01.04-.01.02,0,.07-.01.08-.02,0,0,.01,0,.04-.01.01,0,.02,0,.03,0h0ZM16.43,10.13s.11.06.1.1c0,.04-.07.04-.11.06-.03.02-.1.04-.1.04-.01.01-.14,0-.13-.02.01-.02,0-.04,0-.06,0,0,.11-.03.16-.06.03-.02.08-.07.08-.07h0ZM16.7,10.19s.09.06.15.06c.07.01.18,0,.21-.01,0,.08-.02.17-.02.17,0,0-.09.02-.18.02-.04.01-.11.05-.16.07-.06.01-.12.02-.19.02-.08,0-.18-.01-.19-.08,0-.06.26-.18.28-.19.06-.02.1-.06.1-.06h0ZM15.38,10.19s-.01.04-.02.09h0s0,.06.02.07c.05.06.15.03.22.05.03,0,.07.03.1.04,0,0,.02,0,.03,0h0s.1,0,.1,0c-.03,0-.07,0-.1-.01,0,0-.02,0-.03,0-.04,0-.08-.03-.1-.04-.07-.02-.17.01-.21-.04-.01-.01-.01-.04-.01-.06,0-.04,0-.09,0-.09h0Z"/>
        <polygon class="cls-11" points="15.57 7.48 15.57 7.48 15.46 7.47 15.45 7.46 15.46 7.46 15.57 7.47 15.58 7.47 15.57 7.48"/>
      </g>
      <path class="cls-12" d="M13.73,5.8l.05-.05.18.17s.05.04.06.05c.02.01.03.02.05.02.02,0,.03,0,.05-.02.01-.01.02-.03.02-.04,0-.01,0-.03,0-.04,0-.01-.03-.03-.06-.07l-.18-.18.05-.05.17.17s.07.08.09.1c.01.02.02.05.02.08,0,.03-.02.06-.05.08-.03.03-.05.04-.08.05-.03,0-.05,0-.08,0-.02-.01-.06-.04-.11-.09l-.17-.17ZM14.32,5.85l-.28-.36.06-.05.31.15-.19-.24.06-.04.28.36-.06.05-.3-.14.18.23-.06.04ZM14.62,5.62l-.25-.38.06-.04.25.38-.06.04ZM14.82,5.5l-.18-.33-.1.05-.04-.07.26-.14.04.07-.1.05.18.33-.07.04ZM15.03,5.4l-.16-.42.26-.1.03.07-.19.07.04.09.17-.07.03.07-.17.07.04.12.19-.07.03.07-.26.1ZM15.24,4.84l.13-.03s.06-.01.08,0c.02,0,.04.01.06.03.02.01.04.03.05.06s.03.06.04.1c0,.04.01.07.01.1,0,.03,0,.06-.02.07,0,.02-.02.04-.04.05-.02.01-.04.02-.07.03l-.14.03-.11-.44ZM15.34,4.89l.07.29h.05s.04-.03.05-.03c0,0,.02-.02.02-.03,0-.01,0-.03,0-.05,0-.02,0-.05-.01-.08,0-.03-.02-.06-.03-.08,0-.02-.02-.03-.03-.04-.01,0-.03-.01-.04-.01-.01,0-.03,0-.06.01h-.03ZM15.91,5.17l-.1-.45h.08s.07.31.07.31l.06-.31h.09s.08.31.08.31l.05-.32h.08s-.08.45-.08.45h-.08s-.09-.33-.09-.33l-.06.34h-.08ZM16.35,5.17l.05-.45.27.03v.08s-.21-.02-.21-.02v.1s.17.02.17.02v.08s-.19-.02-.19-.02v.12s.19.02.19.02v.08s-.29-.03-.29-.03ZM16.86,5.1h.07c0,.07,0,.11.05.12.02,0,.04,0,.06,0,.02,0,.03-.02.03-.04,0,0,0-.02,0-.03,0,0,0-.02-.01-.02,0,0-.03-.02-.06-.04-.03-.02-.05-.04-.06-.05-.01-.02-.02-.03-.02-.05,0-.02,0-.04,0-.06,0-.02.02-.04.04-.06.02-.02.04-.03.06-.03.02,0,.05,0,.07,0,.04.01.07.03.09.06s.02.07,0,.11l-.07-.02s0-.04,0-.06c0-.01-.02-.02-.04-.03-.02,0-.04,0-.05,0-.01,0-.02.01-.02.03,0,.01,0,.02,0,.03,0,.01.03.03.06.05.03.02.06.04.07.06.01.02.02.04.02.06,0,.02,0,.04,0,.07-.01.04-.03.07-.06.08-.03.02-.07.02-.12,0-.09-.03-.12-.09-.1-.19h0ZM17.25,5.38l.15-.35-.1-.04.03-.07.27.12-.03.07-.1-.04-.15.35-.07-.03ZM17.72,5.63l-.07-.04.02-.11-.13-.07-.08.07-.07-.04.35-.32.07.04-.1.47ZM17.69,5.4l.04-.17-.13.12.09.05ZM17.75,5.65l.28-.36.06.04-.07.33.19-.24.06.04-.28.36-.06-.05.06-.33-.18.23-.06-.04ZM18.37,5.57l.1.1s.04.05.05.06c0,.02,0,.04,0,.06s-.01.05-.03.08c-.01.03-.04.06-.07.09-.03.03-.06.05-.08.06-.03.01-.05.02-.07.02-.02,0-.04,0-.06,0-.02,0-.04-.02-.06-.04l-.1-.1.32-.32ZM18.37,5.68l-.21.21.04.04s.03.03.04.03c.01,0,.02,0,.03,0,.01,0,.03,0,.04-.02.02-.01.04-.03.06-.05.02-.02.04-.04.05-.06.01-.02.02-.03.02-.05,0-.01,0-.03,0-.04,0,0-.02-.02-.04-.05l-.02-.02Z"/>
      <g>
        <path class="cls-12" d="M14.09,9.94l.1.1s.04.05.05.06c0,.02.01.04,0,.06,0,.02-.01.05-.02.08-.01.03-.04.06-.07.09-.03.03-.05.05-.08.06-.03.01-.05.02-.07.03s-.04,0-.06,0c-.02,0-.04-.02-.06-.04l-.1-.1.32-.33ZM14.09,10.05l-.21.22.04.04s.03.03.04.03c.01,0,.02,0,.03,0,.01,0,.03,0,.04-.02.02-.01.04-.03.06-.05.02-.02.04-.05.05-.06.01-.02.02-.03.02-.05,0-.01,0-.03-.01-.04,0,0-.02-.02-.04-.05l-.02-.02ZM14.09,10.56l.28-.36.06.05-.28.36-.06-.05ZM14.34,10.74l.14-.45.07.04-.1.33.26-.23.07.04-.36.31-.07-.04ZM14.6,10.9l.21-.4.07.03-.21.4-.07-.03ZM14.95,10.57l.13.05s.05.03.07.04c.01.01.02.03.03.05,0,.02,0,.05,0,.08,0,.03-.01.07-.03.11-.01.04-.03.07-.05.09-.02.02-.04.04-.06.05-.02.01-.04.02-.06.02-.02,0-.05,0-.07-.02l-.13-.05.17-.42ZM14.99,10.67l-.11.28.05.02s.04.01.05.01c.01,0,.02,0,.03,0,.01,0,.02-.02.03-.03.01-.02.02-.04.04-.07.01-.03.02-.06.02-.08,0-.02,0-.04,0-.05,0-.01-.01-.03-.02-.03,0,0-.03-.02-.06-.03h-.03ZM15.19,11.15l.12-.44.27.07-.02.07-.19-.05-.03.1.18.05-.02.07-.18-.05-.03.12.2.05-.02.07-.27-.07ZM15.64,10.79l.14.02s.06.01.08.02c.02,0,.03.02.04.05.01.02.02.05.03.08,0,.03,0,.07,0,.11,0,.04-.01.07-.03.1-.01.03-.03.05-.04.06-.02.02-.03.03-.05.03-.02,0-.05,0-.08,0l-.14-.02.06-.45ZM15.71,10.88l-.04.3h.06s.04.01.05,0c.01,0,.02,0,.03-.02,0,0,.02-.02.02-.04,0-.02.01-.04.02-.08,0-.03,0-.06,0-.08,0-.02,0-.04-.02-.05,0-.01-.02-.02-.03-.03-.01,0-.03,0-.06-.01h-.03Z"/>
        <path class="cls-12" d="M16.28,11.29l-.12-.45h.08s.08.3.08.3l.04-.32h.09s.09.3.09.3l.03-.32h.08s-.05.45-.05.45h-.08s-.1-.33-.1-.33l-.05.34h-.08ZM16.77,11.24l-.1-.44.27-.06.02.07-.2.04.02.1.18-.04.02.07-.18.04.03.12.2-.05.02.07-.28.06ZM17.36,11.07l-.18-.42.23-.1.03.07-.17.07.04.1.14-.06.03.07-.14.06.08.18-.07.03ZM17.97,10.76l-.07.04-.08-.07-.13.07.03.1-.07.04-.1-.47.07-.04.36.32ZM17.76,10.67l-.13-.12.04.17.09-.05ZM18.05,10.7l-.27-.36.06-.05.23.3.15-.11.05.06-.21.16ZM18.35,10.47l-.31-.33.05-.05.26.27.14-.13.05.06-.19.18Z"/>
      </g>
    </g>
  </g>
</svg>