<?xml version="1.0" encoding="UTF-8"?>
<svg id="Layer_2" data-name="Layer 2" xmlns="http://www.w3.org/2000/svg" viewBox="0 0 25.51 17.01">
  <defs>
    <style>
      .cls-1 {
        fill: #9e2236;
      }

      .cls-2 {
        fill: #010101;
      }

      .cls-3 {
        fill: #eaab21;
      }

      .cls-4 {
        fill: #fff;
      }
    </style>
  </defs>
  <g id="Layer_1-2" data-name="Layer 1">
    <g>
      <path class="cls-2" d="M0,0h25.51v17.01H0V0Z"/>
      <path class="cls-3" d="M0,17.01V1.42l2.13,1.42v14.17h2.13V0h2.13v17.01h2.13V0h2.13v17.01h2.13V0h2.13v17.01h2.13V0h2.13v17.01h2.13V0h2.13v17.01h2.13v-1.42L2.13,0v2.83l21.26,14.17H0Z"/>
      <g id="q">
        <path class="cls-4" d="M12.76,0h6.38v8.5h6.38v-4.25h-12.76V0Z"/>
        <path class="cls-1" d="M19.13,0h6.38v4.25h-12.76v4.25h6.38V0Z"/>
        <g>
          <path id="c" class="cls-1" d="M19.13,7.91c.3,0,.54-.24.54-.54v-.27h.53c.3,0,.54-.24.54-.54s-.24-.54-.54-.54h-.53v-1.21h3.38v.53c0,.3.24.54.54.54s.54-.24.54-.54v-.53h.48c.3,0,.54-.24.54-.54h-6.04v3.66Z"/>
          <path id="c-2" data-name="c" class="cls-4" d="M19.13,7.91c-.3,0-.54-.24-.54-.54v-.27h-.53c-.3,0-.54-.24-.54-.54s.24-.54.54-.54h.53v-1.21h-3.38v.53c0,.3-.24.54-.54.54s-.54-.24-.54-.54v-.53h-.48c-.3,0-.54-.24-.54-.54h6.04v3.66Z"/>
          <path id="c-3" data-name="c" class="cls-4" d="M19.13.6c.3,0,.54.24.54.54v.27h.53c.3,0,.54.24.54.54s-.24.54-.54.54h-.53v1.21h3.38v-.53c0-.3.24-.54.54-.54s.54.24.54.54v.53h.48c.3,0,.54.24.54.54h-6.04V.6Z"/>
          <path id="c-4" data-name="c" class="cls-1" d="M19.13.6c-.3,0-.54.24-.54.54v.27h-.53c-.3,0-.54.24-.54.54s.24.54.54.54h.53v1.21h-3.38v-.53c0-.3-.24-.54-.54-.54s-.54.24-.54.54v.53h-.48c-.3,0-.54.24-.54.54h6.04V.6Z"/>
        </g>
      </g>
      <g id="l">
        <g id="q-2" data-name="q">
          <path class="cls-4" d="M0,8.5h6.38v8.5h6.38v-4.25H0v-4.25Z"/>
          <path class="cls-1" d="M6.38,8.5h6.38v4.25H0v4.25h6.38v-8.5Z"/>
          <g>
            <path id="c-5" data-name="c" class="cls-1" d="M6.38,16.41c.3,0,.54-.24.54-.54v-.27h.53c.3,0,.54-.24.54-.54s-.24-.54-.54-.54h-.53v-1.21h3.38v.53c0,.3.24.54.54.54s.54-.24.54-.54v-.53h.48c.3,0,.54-.24.54-.54h-6.04v3.66Z"/>
            <path id="c-6" data-name="c" class="cls-4" d="M6.38,16.41c-.3,0-.54-.24-.54-.54v-.27h-.53c-.3,0-.54-.24-.54-.54s.24-.54.54-.54h.53v-1.21h-3.38v.53c0,.3-.24.54-.54.54s-.54-.24-.54-.54v-.53h-.48c-.3,0-.54-.24-.54-.54h6.04v3.66Z"/>
            <path id="c-7" data-name="c" class="cls-4" d="M6.38,9.1c.3,0,.54.24.54.54v.27h.53c.3,0,.54.24.54.54s-.24.54-.54.54h-.53v1.21h3.38v-.53c0-.3.24-.54.54-.54s.54.24.54.54v.53h.48c.3,0,.54.24.54.54h-6.04v-3.66Z"/>
            <path id="c-8" data-name="c" class="cls-1" d="M6.38,9.1c-.3,0-.54.24-.54.54v.27h-.53c-.3,0-.54.24-.54.54s.24.54.54.54h.53v1.21h-3.38v-.53c0-.3-.24-.54-.54-.54s-.54.24-.54.54v.53h-.48c-.3,0-.54.24-.54.54h6.04v-3.66Z"/>
          </g>
        </g>
      </g>
    </g>
  </g>
</svg>