<?xml version="1.0" encoding="UTF-8"?>
<svg id="Layer_2" data-name="Layer 2" xmlns="http://www.w3.org/2000/svg" viewBox="0 0 28.35 17.01">
  <defs>
    <style>
      .cls-1 {
        fill: #d59a2c;
      }

      .cls-2 {
        fill: #fff;
      }

      .cls-3 {
        fill: #ba1f31;
      }

      .cls-4 {
        fill: #0a2042;
      }
    </style>
  </defs>
  <g id="Layer_1-2" data-name="Layer 1">
    <g>
      <path class="cls-3" d="M0,0h28.35v17.01H0V0Z"/>
      <path class="cls-1" d="M5.91,0h16.54v17.01H5.91V0Z"/>
      <path class="cls-4" d="M7.09,0h14.17v17.01H7.09V0Z"/>
      <path class="cls-1" d="M13.49,3.21h.47l.14.2-.23.08-.38-.27M14.83,3.21h-.47l-.14.2.23.08.38-.27M14.16,2.72l.14.44-.14.2-.14-.2.14-.44M14.57,3.99l-.37-.27v-.24l.23.08.14.44M13.75,3.99l.37-.27v-.24l-.23.08-.14.44"/>
      <path class="cls-2" d="M9.48,5.29l.32.11.2-.27v.34s.32.11.32.11l-.32.1v.34s-.2-.27-.2-.27l-.32.1.2-.27-.2-.27M8.84,6.42l.34.03.14-.31.07.33.34.03-.29.17.08.33-.25-.22-.29.17.14-.31-.25-.22M8.85,7.29l.15.31.33-.05-.24.23.15.3-.3-.16-.25.23.06-.33-.3-.16.33-.05.06-.33M8.37,8.96l.32-.12-.02-.34.21.26.32-.12-.18.28.21.26-.33-.09-.19.28-.02-.34-.33-.09M8.57,10.24l.28-.19-.09-.33.27.21.28-.19-.12.32.27.21h-.34s-.12.31-.12.31l-.09-.32h-.34M9.12,10.91l.31.15.23-.24-.05.33.3.15-.33.06-.05.33-.16-.3-.33.06.23-.24-.16-.3M9.74,11.98l.33.08.18-.29.03.34.33.08-.31.13.03.34-.22-.26-.31.13.18-.29-.22-.26M12.63,3.13l.19.28.33-.09-.21.26.19.28-.32-.12-.21.26v-.34s-.3-.12-.3-.12l.33-.09.02-.34M11.42,3.6l.24.23.3-.16-.15.3.24.23-.33-.05-.15.31-.06-.33-.33-.05.3-.16-.06-.34M10.91,4.3l-.08.33.29.18-.34.03-.08.33-.13-.31-.34.03.26-.22-.13-.31.29.18.26-.22M18.87,5.29l-.32.11-.2-.27v.34s-.32.11-.32.11l.32.1v.34s.2-.27.2-.27l.32.1-.2-.27.2-.27M19.51,6.42l-.34.03-.14-.31-.07.33-.34.03.29.17-.08.33.25-.22.29.17-.14-.31.25-.22M19.5,7.29l-.15.31-.33-.05.24.23-.15.3.3-.16.25.23-.06-.33.3-.16-.33-.05-.06-.33M19.98,8.96l-.32-.12.02-.34-.21.26-.32-.12.18.28-.21.26.33-.09.19.28.02-.34.33-.09M19.78,10.24l-.28-.19.09-.33-.27.21-.28-.19.12.32-.27.21h.34s.12.31.12.31l.09-.32h.34M19.23,10.91l-.31.15-.23-.24.05.33-.3.15.33.06.05.33.16-.3.33.06-.23-.24.16-.3M18.61,11.98l-.33.08-.18-.29-.03.34-.33.08.31.13-.03.34.22-.26.31.13-.18-.29.22-.26M15.72,3.13l-.19.28-.33-.09.21.26-.19.28.32-.12.21.26v-.34s.3-.12.3-.12l-.33-.09-.02-.34M16.93,3.6l-.24.23-.3-.16.15.3-.24.23.33-.05.15.31.06-.33.33-.05-.3-.16.06-.34M17.44,4.3l.08.33-.29.18.34.03.08.33.13-.31.34.03-.26-.22.13-.31-.29.18-.26-.22M10.67,13.05s0,0,0,0c.02,0,.04,0,.06-.02.02-.01.05-.05.09-.1,0,0,.01-.02.02-.02.04-.06.09-.11.13-.17.01-.02.02-.03.02-.04,0,0,0-.02,0-.03,0,0,0,0,0,0,.02.02.03.03.04.04,0,0,.02.02.03.02,0,0,.02.01.03.02s.03.02.05.03c0,0,0,0,0,0-.01,0-.02,0-.03,0,0,0-.02.01-.03.03-.05.07-.1.13-.15.2-.04.05-.07.09-.07.11,0,.02,0,.04,0,.06,0,0,0,0,0,0-.01-.01-.03-.02-.04-.03-.01-.01-.03-.02-.05-.04-.02-.01-.03-.03-.05-.04-.01-.01-.03-.02-.04-.03M11.2,12.95s-.06.09-.09.14c-.05.07-.07.12-.08.15,0,.03,0,.06.02.08,0,0,0,0,0,0-.01,0-.02-.02-.03-.02-.01,0-.02-.02-.04-.03-.01,0-.03-.02-.04-.03-.01,0-.02-.01-.04-.02,0,0,0,0,0,0,.03,0,.06,0,.08-.02.02-.02.06-.06.11-.13.03-.05.06-.09.09-.14.02-.03.03-.05.03-.07,0-.02,0-.03-.02-.05,0,0,0,0,0,0,0,0,.02.01.04.03.02.01.04.02.05.03,0,0,.02,0,.03.02.01,0,.02.01.03.02.01.12.02.25.04.37,0-.01.02-.03.03-.04.05-.07.07-.12.08-.15,0-.03,0-.05-.02-.08,0,0,0,0,0,0,0,0,.02.01.03.02.01,0,.03.02.05.03.02.01.04.02.05.03,0,0,.02.01.03.02h0s-.06,0-.08.03-.06.06-.11.13c-.05.08-.11.16-.16.24,0,0,0,0-.01,0-.01-.18-.03-.35-.05-.53M12.22,13.64s0,0,0,0c-.02,0-.03,0-.05.02-.01.01-.03.05-.05.11,0,0,0,.01,0,.02,0,0,0,.02,0,.02-.04,0-.08.01-.11,0-.04,0-.07-.01-.11-.03-.03-.01-.06-.03-.09-.06-.02-.02-.04-.05-.05-.08-.01-.03-.02-.07-.02-.1,0-.03,0-.07.02-.1.01-.03.03-.06.05-.08.02-.02.05-.04.08-.06.03-.02.07-.03.11-.03.04,0,.07,0,.11.02.03.01.06.03.08.05.02.02.05.05.08.08-.03.04-.06.07-.09.11,0,0,0,0,0,0,.01-.05.01-.1,0-.13,0-.03-.03-.06-.06-.07-.04-.02-.08,0-.12.02-.04.03-.07.08-.1.15-.03.07-.04.12-.04.17,0,.04.02.07.05.09.02,0,.04,0,.06,0,.02-.01.03-.03.05-.06.02-.05.03-.08.03-.1,0-.02-.01-.03-.03-.05,0,0,0,0,0,0,.02,0,.03.02.05.02.02,0,.03.01.05.02.02,0,.03.01.05.02.02,0,.04.01.05.02M12.45,14.01s.07,0,.1-.03c.03-.03.06-.09.08-.16.03-.08.04-.14.03-.18,0-.04-.03-.07-.06-.08-.04-.01-.07,0-.1.03-.03.03-.06.09-.08.17-.03.08-.04.14-.03.18,0,.04.03.07.06.08h0ZM12.28,13.7s.03-.07.05-.1c.02-.03.05-.05.08-.06.03-.01.06-.02.09-.02.03,0,.06,0,.1.01.03.01.06.03.09.05.02.02.04.05.06.07.02.03.03.07.03.1,0,.04,0,.07-.02.11,0,.03-.02.05-.04.07-.01.02-.03.04-.05.06-.03.03-.07.04-.12.05-.04,0-.08,0-.12,0-.03-.01-.06-.03-.09-.05-.02-.02-.05-.05-.06-.08-.02-.03-.03-.07-.03-.1,0-.04,0-.07.02-.11M13.05,13.68c-.02.11-.05.22-.07.33-.01.05-.01.08,0,.09,0,.01.02.02.04.03.04,0,.07,0,.1-.04.03-.03.05-.09.07-.16.02-.08.02-.13,0-.17-.01-.04-.04-.06-.08-.07,0,0-.01,0-.02,0,0,0-.02,0-.03,0h0ZM12.78,14.11s0,0,0-.01c.02,0,.04-.02.05-.04.01-.02.02-.07.04-.13,0,0,0-.01,0-.02.01-.07.03-.14.05-.21,0-.02,0-.04,0-.04,0,0,0-.02-.02-.02,0,0,0,0,0-.01.02,0,.04,0,.06.01.02,0,.04,0,.05.01.02,0,.04,0,.06.01.02,0,.04,0,.04,0,.08.02.14.05.18.1.03.05.04.11.03.19-.02.08-.05.14-.11.18-.05.04-.12.05-.2.03-.01,0-.03,0-.05-.01-.03,0-.05-.01-.06-.02,0,0-.02,0-.04,0-.02,0-.05,0-.09-.02M14.33,13.77s0,0,0,.01c-.02,0-.04.02-.06.05-.02.03-.04.06-.06.11-.05.12-.1.24-.15.36,0,0,0,0,0,0-.03-.12-.07-.23-.1-.35-.04.11-.09.22-.14.33,0,0,0,0,0,0-.04-.15-.09-.29-.13-.44-.01-.04-.02-.07-.03-.08,0-.01-.02-.02-.04-.02,0,0,0,0,0-.01,0,0,.01,0,.02,0,.04,0,.07,0,.08,0,.02,0,.05,0,.1,0,.01,0,.02,0,.03,0,0,0,0,0,0,.01-.01,0-.02,0-.03.01,0,0,0,.02-.01.03,0,0,0,.01,0,.02,0,0,0,.02,0,.03.02.07.04.13.06.2.04-.11.09-.21.13-.32,0,0,0,0,0,0,.04.11.07.23.11.34.01-.03.02-.07.04-.1.01-.03.02-.06.03-.08,0-.02,0-.04.01-.05,0-.02,0-.03,0-.04,0-.01-.02-.02-.03-.02,0,0,0,0,0-.01.02,0,.03,0,.05,0,.02,0,.03,0,.04,0,.01,0,.02,0,.04,0,.01,0,.03,0,.05,0M14.4,14.28s0,0,0-.01c.02-.01.03-.03.03-.05,0-.02,0-.06,0-.1l-.02-.28s0-.04,0-.04c0,0-.01-.01-.02-.02,0,0,0,0,0-.01.03,0,.06,0,.09,0,.03,0,.05,0,.07,0,.07,0,.13-.01.2-.02.01.04.03.09.04.13,0,0,0,0-.01,0-.04-.04-.07-.06-.1-.08-.03-.02-.07-.02-.1-.02,0,0-.01,0-.01,0,0,0,0,0,0,0,0,.07.01.13.02.2,0,0,.01,0,.02,0,0,0,0,0,0,0,.04,0,.06-.01.08-.03.02-.02.03-.04.04-.07,0,0,0,0,.01,0,0,.06.01.13.02.19,0,0,0,0-.01,0-.01-.03-.03-.05-.05-.06-.02-.01-.05-.02-.08-.01,0,0,0,0,0,0,0,0,0,0-.02,0,0,.04,0,.08,0,.12,0,.04.01.06.02.08.01.02.03.02.06.02.03,0,.06-.02.09-.04.03-.03.06-.07.09-.11,0,0,0,0,.01,0,0,.06-.02.12-.03.17-.08,0-.15.01-.23.02-.01,0-.04,0-.07,0-.03,0-.07,0-.11.01M15.3,14.17s0,0,0-.01c.01-.01.02-.03.02-.06,0-.02,0-.07-.02-.13,0,0,0-.02,0-.03-.02-.08-.03-.15-.05-.23,0,0,0-.02,0-.02,0,0,0,0-.01,0-.02,0-.03.02-.05.04-.02.03-.04.06-.06.1,0,0,0,0-.01,0,0-.05,0-.1,0-.15.13-.03.26-.06.39-.09.02.04.04.09.06.13,0,0,0,0-.01,0-.03-.03-.06-.05-.09-.06-.03-.01-.05-.02-.07-.02,0,0,0,0,0,0,0,0,0,0,0,.02,0,0,0,.01,0,.02.02.08.04.16.05.24.01.06.03.11.04.13.01.02.03.03.05.04,0,0,0,0,0,.01-.02,0-.03,0-.05,0-.02,0-.04,0-.06.01-.02,0-.04,0-.06.01-.02,0-.04,0-.05.01M15.74,14.05s0,0,0-.01c.01-.02.02-.03.02-.06,0-.02-.01-.07-.03-.13,0,0,0-.02-.01-.03-.02-.07-.05-.14-.07-.21,0-.02-.01-.03-.02-.04,0,0-.01,0-.03,0,0,0,0,0,0-.01.02,0,.04-.01.05-.02.02,0,.04-.01.08-.03.02,0,.04-.01.06-.02.08-.03.14-.04.18-.03.04,0,.07.03.08.07.01.03,0,.06-.01.09-.02.03-.05.05-.1.08.03,0,.06,0,.09,0,.03,0,.05.02.07.05,0,0,.02.02.03.04.05.06.08.08.11.08,0,0,0,0,0,0-.03,0-.05.02-.07.02-.02,0-.03.01-.04.02-.02,0-.03.01-.04.01,0,0-.02,0-.03,0,0,0-.02-.02-.03-.04-.08-.12-.14-.17-.18-.15,0,0,0,0-.01,0,0,0,0,0,0,0,0,.02.01.04.02.06.02.06.04.1.05.12.01.02.03.03.05.03,0,0,0,0,0,.01-.02,0-.03.01-.05.02-.02,0-.04.01-.06.02-.02,0-.04.01-.06.02-.02,0-.03.01-.05.02h0ZM15.82,13.73s0,0,.01,0c0,0,.01,0,.02,0,.03-.01.05-.03.06-.05,0-.02,0-.05,0-.08-.01-.03-.03-.05-.04-.06-.02-.01-.04-.01-.07,0,0,0-.02,0-.02,0,0,0,0,0-.01,0l.06.18M16.08,13.43s0,0,0-.01c.03-.01.05-.02.07-.03.01,0,.03-.01.04-.02.02-.01.06-.03.1-.05,0,0,0,0,0,0,0,0,0,0,0,0-.01.02-.02.04-.01.06,0,.02.02.06.05.12,0,0,0,.02.01.03.01.03.03.06.04.08.02.05.05.09.08.11.03.02.06.02.09,0,.02,0,.03-.02.04-.04.01-.02.02-.03.02-.05,0-.01,0-.03,0-.05,0-.02-.01-.04-.03-.07,0-.02-.02-.04-.03-.06-.04-.08-.07-.13-.09-.15-.02-.02-.05-.03-.08-.03,0,0,0,0,0,0,0,0,.02,0,.03-.01.01,0,.03-.01.05-.02.02-.01.04-.02.05-.02.01,0,.02-.01.03-.02,0,0,0,0,0,0-.02.02-.03.05-.03.08,0,.03.02.08.06.16,0,.02.02.04.03.06.03.07.04.13.03.17-.01.04-.05.08-.12.11-.06.03-.11.03-.15.02-.04-.02-.08-.05-.1-.12-.02-.03-.03-.07-.05-.1-.03-.07-.06-.12-.07-.14-.02-.02-.03-.03-.06-.03M16.84,13.6s-.03-.09-.05-.14c0,0,0,0,.01,0,.03.04.07.06.11.07.04,0,.07,0,.1-.02.02-.02.04-.04.04-.06,0-.03,0-.05-.02-.07-.01-.02-.03-.03-.05-.04-.02,0-.04,0-.07.01,0,0-.01,0-.02,0-.05.02-.09.03-.11.03-.02,0-.03,0-.05-.02s-.03-.02-.04-.04c-.03-.04-.03-.08-.02-.13.01-.05.04-.09.09-.12.02-.02.05-.03.07-.04.03-.01.06-.02.09-.02.01.04.03.08.04.12,0,0,0,0,0,0-.03-.03-.06-.05-.09-.06-.03,0-.06,0-.08.01-.02.01-.03.03-.03.05,0,.02,0,.04.02.06.01.02.03.03.05.03.02,0,.05,0,.09-.02.05-.02.1-.03.13-.03.03,0,.06.03.09.06.03.04.04.09.03.14-.01.05-.05.09-.1.13-.03.02-.06.04-.09.05-.03.01-.07.02-.1.02M17.39,13.26s0,0,0,0c0-.02,0-.04,0-.06,0-.02-.03-.06-.07-.11,0,0-.01-.02-.02-.02-.05-.06-.09-.12-.14-.19,0,0-.01-.01-.01-.01,0,0,0,0-.01,0-.01,0-.02.03-.03.06,0,.03-.01.07-.01.11,0,0,0,0-.01,0-.02-.05-.04-.09-.06-.13.11-.08.21-.16.32-.24.04.03.07.07.11.1,0,0,0,0,0,0-.04-.01-.08-.02-.11-.02-.03,0-.05,0-.07.01,0,0,0,0,0,.01,0,0,0,0,0,.02v.02c.06.06.11.13.16.19.04.05.07.09.09.1.02.01.04.02.06.02,0,0,0,0,0,0-.01,0-.03.02-.04.03-.02.01-.03.02-.05.04-.02.01-.03.02-.05.04-.01.01-.03.02-.04.03M16.96,10.02s.09-.01.09-.01c0,0,.08,0,.16,0,.07,0,.14-.02.16-.02.02,0,.04-.02.06-.03l.04-.02.04-.03c.05-.04.1-.09.14-.14.08-.1.11-.24.07-.36-.04-.12-.12-.24-.22-.33-.07-.06-.15-.12-.24-.16,0,0-.02,0-.03-.01-.03-.01-.07-.03-.11-.03-.02,0-.04-.01-.06-.02-.02,0-.04,0-.06,0-.03,0-.05,0-.05,0-.02,0-.04,0-.06,0h-.08s-.11,0-.11,0c-.04,0-.08.01-.12.02-.15.03-.3.07-.45.12-.2.06-.41.14-.63.19-.04.01-.09.02-.14.03-.02.02-.03.03-.04.05-.09.1-.18.2-.27.29-.02.02-.04.04-.06.06l.02.02c.09.08.2.14.32.19.06.03.12.04.18.06.06.01.12.03.18.03l.19.02h.19s.28.03.28.03c0,0,.13.02.23.03.16.03.09.04,0,.05,0,0-.24,0-.24,0l-.29-.02c-.06,0-.13,0-.19-.01l-.19-.02c-.06,0-.13-.02-.19-.03-.06-.02-.12-.04-.18-.07-.06-.03-.13-.06-.19-.1.03.06.07.11.11.16.14.16.34.26.55.31.2.05.42.03.64,0,.06-.01.11-.03.17-.05.06-.02.13-.04.19-.06.07-.02.13-.04.2-.05.02,0,.05-.01.07-.02-.02,0-.05-.01-.07-.02-.06-.03-.03-.04,0-.05M11.94,10.06s-.12.02-.12.02h-.12s.02,0,.02,0c.04.02.09.03.12.04.03.01.05.02.05.02l.06.02s.03,0,.08.03c.04.01.08.02.12.03.04,0,.08,0,.12,0,.17,0,.34-.05.5-.12.17-.07.32-.18.46-.3-.2.1-.41.16-.63.2-.03,0-.05,0-.08.01,0,0-.14.01-.23,0-.16,0-.1-.03,0-.05,0,0,.05-.01.11-.02.06-.01.12-.03.12-.03h.04s.05-.02.05-.02c.04,0,.08-.02.12-.03.08-.02.16-.04.24-.07.09-.03.19-.07.27-.12-.01-.01-.03-.03-.04-.04-.05-.05-.09-.11-.13-.16-.02,0-.04.01-.06.01h-.08c-.05.01-.1,0-.15,0-.03,0-.06,0-.08,0,0,0-.14-.02-.23-.05-.16-.05-.09-.06.01-.05,0,0,.06,0,.12,0,.06,0,.12,0,.12,0,.02,0,.05,0,.07,0,.05,0,.09,0,.14,0h.07s.02-.01.02-.01c-.02-.03-.04-.05-.05-.08l-.05-.09-.03-.06s0-.01-.01-.03c0-.02-.02-.04-.04-.07,0,0,0,0,0,0-.16-.02-.31-.05-.47-.09-.05-.01-.09-.03-.14-.05-.05-.02-.09-.03-.14-.05-.06-.03-.12-.06-.18-.09,0,0-.02,0-.03,0-.12,0-.24-.03-.37-.02-.12,0-.25.04-.37.08-.12.04-.25.09-.35.17-.1.08-.19.18-.2.3-.01.12.06.25.14.35.08.1.2.17.33.21.11.03.23.05.35.08,0,0,0,0,0,0,0,0,.03,0,.07,0,.04,0,.09,0,.14,0h.2s.06,0,.11.02c.08.02.05.04,0,.05M15.1,10.03l-.06-.07-.05-.07-.09-.14s-.02-.03-.04-.05c-.14.11-.31.21-.49.26,0,.02,0,.05.01.08,0,.06,0,.13,0,.13,0,0,0,0,0,.03,0,.02-.01.03-.02.05-.03.05-.04.01-.05-.01,0,0,0-.06,0-.06,0,0,0-.06,0-.12,0-.02,0-.05-.01-.07-.04,0-.09.02-.13.02,0,.05,0,.09,0,.14,0,.07-.01.14-.03.2,0,.03-.01.06-.02.08,0,0,0,0,0,.02,0,.01-.01.03-.02.05-.02.04-.05.1-.08.14-.04.05-.06.07-.07.07,0,0,0,0,0,0,0,0,0-.03.02-.06l.12-.5s0,0,0,0c0-.04,0-.08,0-.13-.04,0-.07,0-.11,0,0,0,0,.01,0,.02,0,.03-.03.06-.04.09-.02.03-.03.06-.05.09-.01.02-.03.04-.03.04,0,0,0,0-.02.02-.01.01-.03.02-.05.03-.05.03-.05,0-.03-.04,0,0,0-.01.02-.03,0-.02.02-.03.02-.03,0,0,0-.01.02-.03.01-.02.03-.05.04-.08.01-.03.02-.05.03-.07-.11-.01-.22-.04-.33-.09-.05-.02-.09-.05-.13-.08-.17.17-.38.3-.6.4-.06.02-.11.04-.17.06-.01.07,0,.13.02.2.02.06.05.12.09.18l.12.06c.17.08.34.17.51.23.03,0,.05.02.08.03,0,0,.03.01.07.03.02,0,.04.02.07.03.02,0,.05.02.07.03.15.06.09.06-.02.05,0,0-.06,0-.12-.02-.06-.02-.12-.03-.12-.03-.02,0-.05-.02-.07-.03-.15-.06-.3-.12-.44-.2.18.17.41.31.64.41.13.05.26.09.39.08.13,0,.27-.03.4-.06.25-.06.49-.15.69-.29-.21.07-.43.11-.65.14h-.08s-.03.01-.08.01c-.05,0-.11,0-.15,0-.16-.01-.1-.03,0-.05,0,0,.05,0,.11-.02.06-.01.12-.02.12-.02h.07c.25-.04.49-.09.72-.17l.13-.05s.06-.08.09-.12c.05-.1.06-.22.04-.33,0-.05-.02-.09-.03-.14-.09-.06-.17-.12-.24-.2M12.59,7.46c-.1-.05-.22-.09-.33-.12-.12-.03-.24-.06-.37-.07-.12-.01-.25,0-.37.03-.06.02-.11.05-.15.09-.04.04-.06.1-.08.16-.03.12-.03.25,0,.37.02.07.05.15.09.21,0,0,0,.01.02.03,0,.01.02.03.03.05.01.02.03.03.04.05.01.02.03.03.04.05.01.02.03.03.04.04.02.02.04.04.04.04.01.02.03.03.04.05.02.02.02.02.06.06.07.06.14.12.22.17.04.03.08.04.12.06l.12.06.13.04s.09.03.13.04c.11.03.23.05.35.07,0-.02-.02-.04-.02-.06,0-.02-.01-.04-.02-.06-.07-.02-.13-.04-.2-.07-.14-.05-.28-.11-.41-.18-.07-.03-.13-.07-.2-.1l-.08-.05s-.11-.07-.19-.14c-.13-.1-.06-.08.03-.04,0,0,.05.02.1.05.06.03.11.05.11.05l.09.05c.06.03.13.07.19.1.13.06.26.12.4.17.05.02.11.04.16.06,0,0,0,0,0,0,.01.01.03.06.07.12,0,0,.04.06.09.14.03.04.05.07.07.11.02.03.03.05.03.05l.03.05.02.03.03.04s.03.05.05.08c.07.1.14.2.23.29.09.08.19.15.3.19.11.04.23.06.35.06.12,0,.24-.02.36-.06.15-.05.3-.14.43-.25h0s.02-.01.02-.01c0,0,0,0,0,0l.04-.03h0s0,0,.01-.01h0s.07-.07.1-.1c.09-.09.17-.18.26-.28.02-.02.04-.05.06-.07,0-.01.02-.02.02-.03,0,0,0,0,0-.01h0s-.01-.01-.01-.01c-.02-.01-.05-.02-.08-.03-.03,0-.06-.02-.09-.03h-.05s-.03-.02-.04-.02c-.06-.01-.12-.02-.18-.02-.12,0-.24.02-.36.05-.06.02-.12.03-.18.06-.03,0-.06.02-.09.03-.03,0-.07.02-.1.02-.06.01-.13.02-.19.03h-.09s-.08.02-.12,0c-.07-.02-.14-.05-.19-.08-.06-.03-.12-.07-.17-.11-.1-.08-.21-.15-.31-.18-.06-.02-.12-.03-.19-.02,0,0,0,0,0,0-.01,0-.03-.02-.04-.04-.01-.02-.01-.05.02-.08,0,0,0,0,.01,0,0,0,0,0,.02,0-.07-.07-.14-.16-.19-.25-.03-.05-.06-.1-.08-.15l-.03-.08-.02-.08c-.02-.05-.02-.11-.03-.17,0-.06,0-.11,0-.17,0-.08.02-.15.04-.22M14.94,7.23c-.03-.1-.08-.2-.13-.29l-.04-.06s-.03-.03-.04-.05c0,0,0,0-.02-.02-.01-.02-.03-.04-.05-.06-.02-.03-.05-.05-.08-.08-.07-.06-.14-.11-.22-.16-.13-.11-.23-.24-.35-.34-.06-.05-.12-.1-.19-.12-.06-.02-.13,0-.2.04-.13.08-.25.2-.35.32-.1.12-.2.26-.29.39-.03.06-.07.12-.1.18-.01.03-.03.08-.05.13-.01.04-.03.09-.04.12,0,.03-.02.06-.02.06,0,.02-.01.04-.02.06l-.03.09s-.02.1-.03.15c0,.05-.02.1-.02.15-.02.2.04.39.15.56.08.12.18.23.29.32,0,0,0,0,.01,0,.12.04.22.11.32.18,0-.03.03-.05.06-.05.04,0,.05.03.06.06h0s0,.02-.01.02c0,0,0,0-.02,0,0,0,0,.02,0,.02,0,0,0,0,0,.02,0,0,.02.01.03.02,0-.01,0-.02,0-.03,0-.03.03-.05.06-.06.04,0,.05.03.06.06,0,0,0,0,0,0,0,0,0,.02-.01.02h0s0,0-.02,0c0,0,0,.01,0,.02,0,0,0,0,0,.02,0,0,0,.01-.01.02.01,0,.03.01.04.02,0,0,0-.01,0-.02,0-.03.03-.05.06-.06.04,0,.05.03.06.06h0s0,.02-.01.02c0,0,0,0-.02,0,0,0,0,.02,0,.02,0,0,0,0,0,0h0s.05,0,.07,0l.1-.02s.02,0,.03,0c0,0,0,0,0-.01,0,0-.01,0-.02,0,0,0,0,0-.01-.02,0,0,0,0,0,0,0-.02.03-.06.06-.06.03,0,.05.03.06.06,0,0,0,.01,0,.02.01,0,.02,0,.03,0,0-.01-.01-.03-.01-.04,0,0,0-.02,0-.02,0,0-.01,0-.02,0,0,0,0,0-.01-.02h0s.03-.06.06-.06c.03,0,.05.03.06.06,0,.02,0,.04,0,.06,0,0,0,0,0,.01.02,0,.03,0,.04-.01h.01s.01-.03.01-.03t0,0s-.02-.03-.02-.04c0,0,0-.02,0-.02,0,0-.01,0-.02,0,0,0,0,0-.01-.02h0s.03-.06.06-.06c.03,0,.04.02.05.04.02-.03.03-.06.05-.09.03-.05.05-.1.07-.15.02-.05.04-.1.06-.15l.04-.16c.02-.11.04-.22.04-.32,0-.06,0-.11,0-.16,0-.04,0-.06,0-.09,0,0,0-.13-.04-.21-.01-.04-.03-.06-.03-.07,0-.01,0-.02,0-.02.01,0,.04.03.07.07,0,0,.03.05.05.11.02.06.03.12.03.12v.04s0,.06,0,.06c0,.06,0,.11,0,.17,0,.11-.02.22-.05.33l-.04.16-.06.16c-.02.05-.04.1-.07.15-.03.05-.05.1-.08.14.05-.01.09-.03.14-.04.02,0,.04,0,.06-.01.18-.29.32-.61.38-.94.04-.22.03-.43-.03-.64M13.26,6.8s-.03.05-.06.1c-.03.05-.06.11-.06.11l-.03.06c-.04.08-.08.16-.11.24-.02.05-.03.09-.04.14,0,0,0,0,0,0-.02.01-.06.04-.08-.02,0,0,0,0,0,0,.01-.05.03-.1.04-.14.03-.09.07-.17.12-.26l.04-.07s.08-.12.14-.18c.11-.12.09-.06.04.03M14.15,8.44s.05.03.06.06c0,.02,0,.04,0,.06,0,0,0,.03-.03.04-.01,0-.03,0-.05,0-.01-.01-.02-.03-.02-.04,0,0,0-.02,0-.02,0,0-.01,0-.02,0h0,0s0,0-.01-.02h0s.03-.06.06-.06M13.96,8.4s.03-.06.06-.06c.03,0,.05.03.06.06,0,.02,0,.04,0,.06,0,0,0,.03-.03.04-.01,0-.03,0-.04,0-.01-.01-.02-.03-.02-.04,0,0,0-.02,0-.02,0,0-.01,0-.02,0,0,0,0,0-.01-.02,0,0,0,0,0,0M13.96,8.57s.03-.06.06-.06c.03,0,.05.03.06.06,0,.02,0,.04,0,.06,0,0,0,.03-.03.04-.01,0-.03,0-.04,0-.01-.01-.02-.03-.02-.04,0,0,0-.02,0-.02,0,0-.01,0-.02,0,0,0,0,0-.01-.02,0,0,0,0,0,0M13.83,8.34s.03-.05.06-.06c.04,0,.06.03.06.06h0s0,.02-.01.02h0s0,0,0,0c0,0,0,0-.02,0,0,0,0,.01,0,.02,0,0,0,0,0,.02,0,.01-.02.03-.04.03-.02,0-.03-.01-.04-.03,0-.01-.01-.03-.01-.03,0-.02,0-.03,0-.05M13.83,8.51s.03-.05.06-.06c.04,0,.06.03.06.06h0s0,.02-.01.02h0s0,0,0,0c0,0,0,0-.02,0,0,0,0,.01,0,.02,0,0,0,0,0,.02,0,.01-.02.03-.04.03-.02,0-.03-.01-.04-.03,0-.01-.01-.03-.01-.03,0-.02,0-.03,0-.05M13.69,8.39s.03-.05.06-.06c.04,0,.05.03.06.06h0s0,.02-.01.02h0s0,0-.02,0c0,0,0,.01,0,.02,0,0,0,0,0,.02,0,.01-.02.03-.04.03-.02,0-.03-.01-.04-.03,0-.01-.01-.02-.01-.02,0-.02,0-.03,0-.05M13.57,8.5s.03-.05.06-.06c.04,0,.06.03.06.06h0s0,.02-.01.02h0,0s0,0-.02,0c0,0,0,.02,0,.02,0,0,0,0,0,.02,0,.01-.02.03-.04.03-.02,0-.03-.01-.04-.03,0-.01-.01-.03-.01-.03,0-.02,0-.03,0-.05M13.57,8.65s0,0-.02,0c0,0,0,.01,0,.02,0,0,0,0,0,.02,0,.01-.02.03-.04.03-.02,0-.03-.01-.04-.03,0-.01-.01-.02-.01-.02,0-.02,0-.03,0-.05,0-.03.03-.05.06-.06.04,0,.05.03.06.06h0s0,.02-.01.02h0ZM13.68,8.7s0,.01,0,.02c0,0,0,0,0,.02,0,.01-.02.03-.04.03-.02,0-.03-.01-.04-.03,0-.01-.01-.02-.01-.02,0-.02,0-.03,0-.05,0-.03.03-.05.06-.06.04,0,.06.03.06.06h0s0,.02-.01.02h0s0,0-.02,0M13.81,8.78h0s0,0-.02,0c0,0,0,.01,0,.02,0,0,0,0,0,.02,0,.01-.02.03-.04.03-.02,0-.03-.01-.04-.03,0-.01-.01-.02-.01-.02,0-.02,0-.03,0-.05,0-.03.03-.05.06-.06.04,0,.06.03.06.06h0s0,.02-.01.02M13.81,8.6h0,0s0,0-.02,0c0,0,0,.01,0,.02,0,0,0,0,0,.02,0,.01-.02.03-.04.03-.02,0-.03-.01-.04-.03,0-.01-.01-.02-.01-.02,0-.02,0-.03,0-.05,0-.03.03-.05.06-.06.04,0,.06.03.06.06h0s0,.02-.01.02M13.83,8.69s.03-.05.06-.06c.04,0,.06.03.06.06h0s0,.02-.01.02h0s0,0-.02,0c0,0,0,.01,0,.02,0,0,0,0,0,.02,0,.01-.02.03-.04.03-.02,0-.03-.01-.04-.03,0-.01-.01-.02-.01-.02,0-.02,0-.03,0-.05M13.95,8.9h0s0,0-.02,0c0,0,0,.02,0,.02,0,0,0,0,0,.02,0,.01-.02.03-.04.03-.02,0-.03-.01-.04-.03,0-.01-.01-.02-.01-.02,0-.02,0-.03,0-.05,0-.03.03-.05.06-.06.04,0,.06.03.06.06h0s0,.02-.01.02M14.08,8.81s0,.03-.03.04c-.01,0-.03,0-.05,0-.01-.01-.02-.03-.02-.04,0,0,0-.02,0-.02,0,0-.01,0-.02,0h0s0,0,0,0c0,0,0,0-.01-.02,0,0,0,0,0,0,0-.02.03-.06.06-.06.03,0,.05.03.06.06,0,.02,0,.04,0,.06M14.2,8.74s0,.03-.03.04c-.01,0-.03,0-.04,0-.01-.01-.02-.03-.02-.05,0,0,0-.01,0-.02,0,0-.01,0-.02,0,0,0,0,0-.01-.02,0,0,0,0,0,0,0-.02.03-.06.06-.06.03,0,.05.03.06.06,0,.02,0,.04,0,.06M14.32,8.68s0,.03-.03.04c-.01,0-.03,0-.05,0-.01-.01-.02-.03-.02-.04,0,0,0-.02,0-.02,0,0-.01,0-.02,0,0,0,0,0-.01-.02h0s.03-.06.06-.06c.03,0,.05.03.06.06,0,.02,0,.04,0,.06M16.95,7.69c0-.07,0-.13-.03-.2-.02-.06-.05-.12-.09-.16-.02-.02-.04-.04-.07-.05,0,0,0,.02-.01.02-.08.14-.07.07-.04-.02,0,0,.02-.05.03-.11.02-.06.03-.12.03-.12,0-.01,0-.03,0-.04v-.02s0,0,0,0v-.03s0-.04,0-.06c0-.08-.05-.15-.13-.18-.08-.03-.17-.04-.27-.04-.18,0-.37.04-.53.12-.16.08-.31.2-.44.33-.11.12-.21.26-.29.4,0,.13,0,.25-.03.38-.06.3-.17.58-.32.84.03-.02.05-.03.08-.05.04-.03.07-.06.11-.09l.37-.36c.05-.06.1-.11.15-.16l.06-.06s.1-.09.17-.16c.05-.04.07-.06.08-.06.01,0,0,.04-.04.09,0,0-.03.05-.07.09l-.08.1-.15.16c-.06.06-.11.12-.17.18-.11.11-.22.22-.34.31h.03s.09-.05.13-.06c.03-.01.05-.02.07-.04,0,0,.1-.04.21-.09.06-.03.08-.03.09-.03.01,0-.02.04-.07.07,0,0-.04.03-.1.06-.05.03-.11.06-.11.06-.02,0-.04.02-.06.03-.03.01-.05.02-.08.03.03,0,.05,0,.08.01.06.02.13.03.2.06.02,0,.03.01.05.02,0,0,.02,0,.03.02,0,0,.02.02.03.03.02.02.03.05.03.09,0,0,0,.02,0,.03.19-.05.36-.14.52-.26.15-.11.28-.25.38-.41l.07-.12s.04-.08.05-.12v-.04s.02-.02.02-.03v-.06s.01-.01.02-.03c0-.02,0-.05.01-.08.01-.07.02-.15.04-.23.03-.12.06-.15.07-.14,0,0,0,.03,0,.05,0,.03,0,.06,0,.1,0,0,0,.08,0,.17,0,.05,0,.09,0,.13,0,.04,0,.06,0,.06v.07s-.02.03-.04.09c0,.03-.02.05-.03.07-.01.02-.02.05-.03.07-.03.04-.05.09-.08.13-.1.14-.21.27-.34.38.15-.05.31-.09.47-.12.06,0,.11-.01.17-.02,0,0,.01-.02.02-.03.12-.24.17-.52.18-.79,0-.07,0-.14,0-.21M15.77,8.37s-.02.02-.03.03c-.01.01-.03.02-.03.02,0,0-.01.01-.03.02-.01.01-.03.02-.04.03-.01,0-.02,0-.04,0,0-.02,0-.03,0-.04,0,0,.02,0,.03-.02.01-.01.03-.02.03-.02,0,0,.01,0,.02-.02.01-.01.03-.03.03-.03,0,0,.02,0,.04,0,0,.02,0,.03,0,.04"/>
      <path class="cls-4" d="M14.32,8.91c-.1.02-.29.05-.48.08-.16-.02-.5-.12-.49-.25.02-.2.34-.56.52-.58.18-.02.52.4.6.52-.09.15-.06.15-.14.23"/>
      <path class="cls-1" d="M14.27,8.92c-.09.02-.26.05-.42.08-.14-.02-.44-.1-.43-.23,0-.02.3-.51.45-.53s.46.43.53.45c-.08.15-.04.15-.12.24"/>
    </g>
  </g>
</svg>