<?xml version="1.0" encoding="UTF-8"?>
<svg id="Layer_2" data-name="Layer 2" xmlns="http://www.w3.org/2000/svg" viewBox="0 0 25.51 17.01">
  <defs>
    <style>
      .cls-1 {
        fill: #fec812;
      }

      .cls-2 {
        fill: #7e431e;
      }

      .cls-3 {
        fill: #f7e37d;
      }

      .cls-4 {
        fill: #a2cd3a;
      }

      .cls-5 {
        fill: #f7e37c;
      }

      .cls-6 {
        fill: #fed90d;
      }

      .cls-7 {
        fill: #9dc8eb;
      }

      .cls-8 {
        fill: #fff;
      }

      .cls-9 {
        fill: #e67125;
      }

      .cls-10 {
        fill: #969496;
      }

      .cls-11 {
        fill: #108742;
      }

      .cls-12 {
        fill: #016caf;
      }

      .cls-13 {
        fill: #27387f;
      }
    </style>
  </defs>
  <g id="Layer_1-2" data-name="Layer 1">
    <g>
      <path class="cls-13" d="M0,0h25.51v17.01H0V0Z"/>
      <circle class="cls-1" cx="12.79" cy="9.91" r="4.68"/>
      <path class="cls-3" d="M9.06,7.39l-.45.73s-.24.68-.24.75-.09.81-.09.81l.03.21,2.06.19,1.57-.11-.07-.08-.08-.14-.05-.15-.03-.21.05-.11-.24-.59-.26-.51-.25.19-.1.06h-.04s-.06.03-.06.03l-.13-.06s-.12-.25-.13-.27c-.01-.02-.27-.31-.27-.31l-.2-.16-.22.19-.13.11-.11.08-.34-.42-.2-.23Z"/>
      <path class="cls-8" d="M9.02,7.55c-.04-.06.06-.13.11-.19.01-.01.03-.03.05-.03.01,0,.03,0,.04,0,.03.02.03.07.04.1.02.05.03.1.05.14.02.03.04.06.07.09.02.02.04.04.06.06.02.02.04.03.05.05.01.02.02.04.03.07,0,.02,0,.05,0,.07.01.03.03.06.06.07.01,0,.03,0,.04,0,.02,0,.04-.02.06-.03.03-.02.07-.05.1-.07.03-.02.05-.05.08-.08.03-.04.05-.08.08-.12.02-.03.04-.06.06-.09.02-.03.04-.07.08-.08.02,0,.04,0,.05,0,.03,0,.06.02.09.04.02.02.03.04.05.06.02.04.03.09.05.13.01.03.03.07.05.1.03.04.08.07.11.11.02.03.03.06.05.08.01.02.02.05.04.07.02.02.05.03.08.05.03.02.05.05.06.08.03.06.06.12.08.18,0,.01,0,.03,0,.03.04.02.07-.03.11-.05.02-.01.04-.03.06-.05.05-.04.1-.06.14-.1.02-.02.02-.05.04-.07.02-.03.03-.06.06-.07.03-.01.06-.01.08,0,.03,0,.06,0,.08.02.02.01.04.04.05.06.04.06.05.13.07.2.02.06.03.12.05.18.01.04.03.08.05.12.02.05.05.1.06.15.01.04,0,.09.02.13,0,.02.03.04.05.06,0,.01.02.02.03.03,0,.01,0,.03,0,.04,0,.02.01.03.02.05.01.02.03.04.05.05,0,.01.02.02.03.03.02.02.05.02.05.04,0,0-.01,0-.01.02,0,0,0,.02,0,.03,0,.02,0,.03,0,.05,0,0,0,.01,0,.02,0,0-.02,0-.02,0-.01,0,0-.03-.01-.04,0-.01,0-.03-.02-.04,0,0-.02-.02-.03-.02,0,0-.02,0-.03,0,0,0-.01.02-.02.02-.02,0,0-.04,0-.05,0-.02-.03-.03-.04-.05,0-.01-.02-.03-.03-.04-.02-.03-.05-.05-.06-.08,0-.02,0-.03,0-.05,0-.04-.02-.07-.03-.1-.02-.04-.05-.08-.08-.12-.03-.04-.05-.08-.07-.13-.01-.02-.03-.04-.03-.07,0-.02,0-.04,0-.06,0-.03,0-.05-.02-.08,0-.02-.01-.05-.02-.07-.01-.02-.03-.03-.04-.05,0-.01,0-.03,0-.04,0-.02,0-.04-.01-.05-.01-.02-.03-.03-.05-.03-.01,0-.02,0-.03,0-.01,0-.02,0-.03.01-.02.02-.03.04-.05.06-.03.03-.05.05-.08.07-.02.01-.04.02-.06.02-.02,0-.04.01-.06.02-.03.01-.06.03-.09.04-.01,0-.02.01-.03.02,0,.01,0,.03,0,.04,0,.01.02.02.02.04,0,.02,0,.04,0,.06,0,.01,0,.02,0,.03,0,.01,0,.02.01.03,0,.02,0,.04.02.06.02.03.04.06.06.09.03.04.05.09.08.13.02.03.05.06.06.09.02.03.03.06.04.09.01.02.02.05.03.07.02.03.05.05.09.06.02.01.04.02.06.03.01,0,.03,0,.04.01.01,0,.02.02.03.03.01,0,.03,0,.04.01.01,0,.02.01.03.02.02.01.03.03.05.05.03.04.06.07.09.11.02.03.04.05.06.08.01.02.02.04.03.06,0,.01.01.02.02.03.01.01.02.03.03.04,0,0,.02.01.01.02,0,0-.02,0-.02,0-.02,0-.02-.02-.04-.03-.01,0-.03-.01-.04-.02-.02-.01-.03-.03-.04-.04-.03-.02-.05-.04-.08-.07-.02-.02-.04-.03-.07-.04-.01,0-.03-.02-.04-.03-.03-.02-.05-.05-.07-.08-.03-.02-.05-.04-.08-.06-.03-.01-.06-.02-.09-.02-.03,0-.06,0-.08,0-.02,0-.05.01-.06,0,0-.01,0-.03.01-.04,0-.01.02-.02.02-.03,0-.02,0-.03,0-.05,0-.03-.02-.05-.04-.07-.02-.03-.05-.04-.06-.07-.01-.03-.01-.06-.02-.09,0-.02,0-.03-.01-.05-.01-.02-.03-.03-.05-.05-.04-.04-.07-.09-.11-.14-.01-.02-.03-.04-.04-.06,0-.02,0-.04-.02-.05-.01-.03-.04-.05-.06-.08-.02-.03-.03-.07-.04-.11-.01-.05-.02-.09-.03-.14-.01-.03-.03-.07-.04-.1,0-.03-.01-.06-.03-.08-.02-.05-.06-.09-.1-.13-.02-.02-.06-.03-.08-.05-.03-.02-.05-.04-.07-.06-.02-.02-.04-.03-.05-.05-.01-.02-.01-.04-.02-.06,0-.02-.02-.04-.03-.05-.02-.01-.04,0-.06,0-.02,0-.03,0-.05.01-.01,0-.02.01-.03.03,0,0,0,.02-.01.03,0,.01-.02.03-.04.04-.02.01-.05,0-.07,0-.01,0-.02,0-.04.01-.01,0-.03.02-.04.03-.02.02-.03.04-.04.06-.01.02-.02.03-.03.05,0,.02-.01.03-.02.05,0,.01,0,.02-.01.04,0,.02,0,.04,0,.06.01.04.03.07.05.11.02.03.04.07.06.1.02.02.03.04.05.06,0,.01.01.03.02.04,0,.01,0,.03,0,.04,0,.02,0,.04,0,.06,0,.01,0,.03,0,.04.01.03.03.05.05.07.02.02.04.04.06.07.01.02.03.03.04.05,0,.01.02.03.03.05,0,.01,0,.03,0,.04,0,.02,0,.04,0,.05,0,.02.02.03.03.05.01.02.03.04.04.06.01.02.02.03.03.05,0,.02.02.04.02.06,0,.01,0,.03,0,.04,0,.02,0,.05,0,.07,0,.02.01.04.03.04.03.02.07,0,.1,0,.02,0,.04,0,.06.01.02,0,.04.02.06.02.02,0,.05,0,.07.01.03,0,.05,0,.08.01.03,0,.05.01.08.02.05.02.1.05.15.08.07.04.13.09.2.13.05.03.11.07.17.1.03.01.05.03.08.04.02,0,.04,0,.05.01.02,0,.05,0,.06.01,0,0,0,0,0,.01,0,.02,0,.03,0,.05,0,.01-.03,0-.04,0-.05,0-.1,0-.14-.02-.13-.04-.37-.16-.38-.16-.02,0-.04,0-.06-.01-.02-.01-.04-.03-.06-.06-.01-.02-.01-.04-.03-.05-.01-.02-.03-.04-.05-.05-.02-.01-.04-.02-.07-.03-.02,0-.05,0-.08-.01-.03,0-.06-.02-.09-.03-.01,0-.03,0-.05,0-.02,0-.03.02-.05.02-.04,0-.08,0-.11,0-.02,0-.05-.01-.07-.02-.02-.01-.02-.03-.04-.04-.01,0-.03-.01-.05-.01-.02,0-.04,0-.05,0,0,0-.02.01-.02.03,0,.01,0,.03,0,.04,0,0,0,.02.02.02.01,0,.03,0,.05.01.02.01.03.03.04.05.02.02.03.04.05.06.01.02.02.03.03.05,0,0,0,.02,0,.03,0,0,.01.01.02.02.01,0,.02,0,.04.01,0,0,.02,0,.03.01,0,0,0,.01,0,.02,0,0-.02,0-.03,0-.01,0-.03,0-.04,0-.03-.02-.06-.05-.09-.07-.02-.02-.04-.04-.06-.06-.03-.03-.05-.05-.08-.08-.02-.02-.05-.03-.07-.04-.04-.02-.08-.02-.11-.04-.03-.01-.05-.03-.08-.05-.03-.02-.05-.04-.07-.06-.02-.02-.03-.05-.05-.07,0,0-.02-.01-.03-.02-.02,0-.04,0-.06,0-.03,0-.06-.02-.09-.03-.02,0-.04-.03-.06-.03-.02,0-.04,0-.05,0-.02,0-.05,0-.07.02-.04.02-.06.05-.1.06-.02,0-.03.01-.05.01-.02,0-.05,0-.07,0-.02,0-.04,0-.06,0,0,0-.02,0-.02.01-.04.02-.08.03-.11.04-.03,0-.05.02-.08.03-.03.01-.05.03-.07.04-.03.01-.05.03-.08.04-.02,0-.04.02-.07.02-.04,0-.07.01-.11,0-.02,0-.04,0-.05-.01-.03-.04-.03-.12,0-.16.03-.02.07,0,.1,0,.06,0,.12.02.19.02.04,0,.08-.02.11-.03.05-.02.09-.06.14-.08.03-.01.06-.02.09-.03.03,0,.06,0,.09,0,.04,0,.07-.03.11-.05.05-.02.09-.03.14-.04.04,0,.09,0,.13,0,.04,0,.08.03.12.05.04.02.08.03.11.05.02.02.04.04.06.06.03.03.07.05.11.06.03.01.06.02.09.02.04,0,.08,0,.12,0,.02,0,.04,0,.05-.01.01-.01.01-.04.01-.05,0-.01,0-.03,0-.04,0-.03-.02-.05-.03-.07-.02-.04-.06-.08-.08-.13-.01-.02-.01-.05-.02-.08-.01-.02-.02-.05-.04-.07-.02-.03-.04-.06-.06-.08-.05-.05-.11-.1-.15-.15-.02-.02-.03-.04-.04-.06,0-.02-.01-.04-.02-.06,0-.02-.02-.05-.03-.07,0-.02-.02-.04-.03-.06-.01-.02-.03-.02-.04-.04-.01-.02,0-.05-.01-.07-.01-.05-.02-.11-.04-.16,0-.02-.02-.05-.03-.07-.02-.03-.06-.04-.08-.07-.02-.03-.03-.07-.05-.1-.02-.03-.03-.07-.05-.1-.01-.02-.02-.04-.04-.06-.02-.03-.06-.04-.09-.06-.03-.03-.07-.05-.09-.08,0-.01,0-.04-.02-.05-.02,0-.05.02-.06,0h0Z"/>
      <path class="cls-7" d="M11.82,9.27l-.06.02s-.03.03-.04.05c-.01.03-.02.07-.02.11,0,.04,0,.08.02.12.02.09.11.25.11.25l.12.16.3.28,1.61.55.52.38.34.59.32.19.36.05.04.47s.34.15.41.17c.07.02.28.02.28.02l.28-.09.47-.77.27-.77.12-.94.06-.53-.04-.31s-5.08-.03-5.1-.03-.37.02-.37.02h0Z"/>
      <path class="cls-4" d="M8.34,9.78s.1.02.16.02c.04,0,.08,0,.11,0,.04,0,.08,0,.13-.01.04,0,.08-.01.13-.01.03,0,.07.02.1.02.1.02.2.04.3.05.1,0,.19-.02.29-.01.05,0,.1.01.15.02.05.01.1.05.16.05.07,0,.15,0,.22-.02.1-.01.19-.04.29-.05.09,0,.17,0,.26,0,.08,0,.16.02.24.02.11,0,.21-.02.32-.02.05,0,.1.01.16.01.1,0,.19-.03.29-.02.05,0,.1.02.14.04.06.02.17.06.17.06l.2.17s.21.11.27.14c.06.02.25.04.25.04l.3.1.41.16s.52.16.55.17c.04.01.17.06.17.06,0,0,.34.26.38.29.04.03.08.07.13.1l.19.63.05.05s.27.05.32.07c.05.01.3.07.3.07,0,0,.05-.02.05.01s0,.1,0,.1l-.04.13.24.24.11.1.05.05.21-.06.13-.04h.03l.14.14-.7.84s-1.02.63-1.04.63-1.03.36-1.19.36-1.2.01-1.22.01-1.66-.55-1.66-.55l-1.16-.95-.94-1.47-.19-.96-.02-.69.07-.07Z"/>
      <path class="cls-6" d="M7.57,2.32c-.56,0-1.01.49-1.01,1.09h0c0,.6.45,1.09,1.01,1.09s1.01-.49,1.01-1.09c0-.6-.45-1.09-1.01-1.09h0,0ZM9.58,2.38v2.06h.6v-1.07l.58,1.07h.58v-2.06h-.6v1.02l-.57-1.02h-.6ZM12.33,2.38v.57h.53v1.49h.63v-1.49h.53v-.57h-1.69ZM15.39,2.38l-.73,2.06h.64l.1-.29h.58l.11.29h.62l-.72-2.06h-.59ZM17.63,2.38v2.06h.6v-1.07l.58,1.07h.58v-2.06h-.6v1.02l-.57-1.02h-.6ZM21.04,2.38l-.73,2.06h.64l.1-.29h.58l.11.29h.62l-.72-2.06h-.59ZM3.31,2.39l-.02,2.05h.6v-1.27l.3,1.27h.45l.33-1.3v1.29h.57v-2.05h-.84l-.26,1.19-.28-1.19h-.85ZM7.57,2.85c.22,0,.4.25.4.57h0c0,.31-.18.57-.4.57h0c-.22,0-.4-.25-.4-.57s.18-.57.4-.57ZM15.7,3.03l.17.67h-.38l.21-.67ZM21.35,3.03l.17.67h-.38l.21-.67Z"/>
      <g>
        <path class="cls-8" d="M13.14,11.63l-.47.44s.09.02.14.02c.09.01.18.02.27.03.14.01.29.01.43.02.14,0,.41.02.41.02,0,0,.07.01.11,0,.01,0,.02-.02.03-.03,0-.02,0-.04,0-.06,0-.02-.03-.04-.04-.05-.01-.01-.04-.03-.04-.03v-.2s-.42-.06-.42-.06v-.07l-.4-.02h0Z"/>
        <path class="cls-10" d="M13.04,11.62l-.56.55h.09s.57-.53.57-.53h-.11Z"/>
      </g>
      <path class="cls-9" d="M8.53,11.43s.13.06.19.08c.12.03.25.01.38.03.12.01.25.03.37.04.12.01.24.02.36.04.1.02.21.04.31.06.06.01.12.01.18.03.03.01.06.03.08.05.01.01.03.03.04.04.01.02.02.04.02.06,0,.04,0,.12,0,.12,0,0,.15.16.25.17.03,0,.05-.02.08-.03.05-.01.11-.02.16-.03.03,0,.07,0,.1,0,.01,0,.03,0,.04,0,0,0,.01.02.02.03.04.03.09.03.13.04.05.01.1,0,.15.03.04.01.08.03.11.05.02.02.04.04.05.07,0,.02.02.05.02.07,0,.03,0,.06,0,.09,0,.12-.01.36-.01.36l-.78.32-.84.13-.25-.05-.46-.53-.42-.61-.22-.56-.03-.1Z"/>
      <path class="cls-8" d="M11.85,9.17s-.03,0-.03,0c-.02.02-.03.05-.02.07.01.03.06.03.09.04.01,0,.03-.01.04,0,0,0,0,.03,0,.04,0,0,.01.02.02.02.01,0,.02,0,.03-.02,0,0,0-.02,0-.03.02,0,.04,0,.06.01.03.02.03.07.04.1.02.08.02.16.04.23,0,.03.02.07.04.1.02.03.03.07.06.08.01,0,.03,0,.04,0,.02,0,.03-.03.05-.04.01,0,.03,0,.05,0,.01,0,.03-.01.04-.02.01,0,.03-.01.03-.02,0-.01,0-.03,0-.05,0-.03.01-.07,0-.08-.03-.01-.05.03-.08.04-.02,0-.03.03-.05.02-.06-.02-.06-.1-.09-.15-.03-.05-.08-.09-.1-.14-.01-.03-.02-.05-.01-.08,0-.01,0-.04.02-.04.01,0,.02.02.03.03.02.02.01.06.04.06.01,0,.02-.01.03-.02,0-.01,0-.03.02-.04.01-.01.03-.02.05-.02.02,0,.03.03.04.04.01.02.02.05.04.06.02,0,.04-.01.06-.02.02-.01.05-.02.07-.04,0,0,0-.02.02-.02,0,0,.01,0,.02,0,.02,0,.03.02.04.04,0,.01.01.03.02.05,0,.01,0,.03.01.03.01,0,.03,0,.04,0,0,0,.01,0,.01.01,0,.01.02.02.02.03,0,.01,0,.03,0,.04,0,.01,0,.02.01.03.01.02.04.02.05.04,0,.01,0,.03.01.04,0,0,.01.03.02.02.01,0,.01-.03.01-.04,0-.04,0-.09-.02-.13,0-.03,0-.06-.01-.09,0-.02-.02-.04-.01-.07,0,0,.01-.01.02-.01,0,0,.01,0,.02,0,.01.01.02.03.03.05.01.03.03.06.03.1,0,.04,0,.07.01.11,0,.03.01.07.02.1,0,.02,0,.04,0,.05,0,0,.02,0,.03,0,.01,0,.03,0,.03,0,0,0,0,.02,0,.04,0,.02,0,.04.02.06,0,0,.01.01.02.01.01,0,.02-.02.02-.03.02-.07,0-.15-.01-.22,0-.04-.02-.09-.04-.13,0-.02-.03-.05-.02-.07,0-.01.02-.03.03-.03.01,0,.03,0,.04.02.02.02.03.04.04.07.01.02.02.05.03.07.02.07.01.14.02.21,0,.03,0,.07.02.1,0,.01.02.02.03.03,0,0,.01,0,.02,0,0,0,0,0,0,0,0,0,.02.01.03.02.01,0,.03,0,.04,0,0,0,0,0,0,0,0,0,0,0,0,0,.01,0,.02-.02.03-.02.01,0,.02-.02.03-.02.01,0,.01.02.02.02.01.01.03.02.04.03.01,0,.03,0,.04,0,.01,0,.02-.02.03-.03.01,0,.02,0,.04,0,.03,0,.06,0,.09-.02.01,0,.02-.02.02-.04,0-.04-.01-.08-.02-.12,0-.05-.01-.11-.03-.16,0-.04-.03-.07-.03-.11,0-.02,0-.04,0-.05,0,0,.02,0,.03,0,.01,0,.03.01.04.02.02.01.03.03.04.05.02.03.03.05.04.08.01.04.01.08.02.12,0,.03.01.06.02.09,0,.01,0,.03,0,.04,0,0,.01,0,.02.01,0,0,.02.01.02.02,0,.01,0,.02,0,.04,0,.01,0,.03,0,.03,0,0,.02.01.04,0,.02,0,.03-.02.04-.03.01,0,.02-.02.04-.03.01,0,.02-.02.04-.02,0,0,0,0,.01,0,.01,0,.02.02.02.03,0,0,0,.02,0,.03,0,0,.02.01.03.01.01,0,.02,0,.03-.01.01,0,.03,0,.04,0,.02,0,.03.02.05.03.01,0,.03.01.04,0,0,0,0-.02,0-.03,0-.02,0-.04,0-.07,0-.01,0-.03-.01-.03,0,0-.02,0-.03.01-.01,0-.03,0-.04,0-.02,0-.03-.02-.05-.03,0,0-.01,0-.02,0,0,0,0-.01,0-.02-.01-.02-.04-.02-.06-.03-.03,0-.06,0-.08,0,0,0-.02.01-.02.02,0,0-.01.02-.02.03,0,0-.02,0-.02,0-.02,0-.02-.03-.02-.05,0-.03,0-.06,0-.1,0-.04-.02-.07-.03-.11,0-.03-.02-.05-.02-.08,0-.01,0-.03.02-.03.01,0,.02,0,.03.01.02.01.02.03.04.04.01,0,.02.02.04.02.01,0,.01-.02.03-.03.01,0,.03.01.04,0,.01,0,.02-.02.03-.04,0-.02,0-.04,0-.05,0,0,.02,0,.04,0,0,0,.02,0,.03,0,.01,0,0-.03.01-.04,0,0,0-.02.01-.02.02,0,.04,0,.06.01.01,0,.01.03.03.04.01,0,.03,0,.05,0,.01,0,.02-.01.03-.01.01,0,.03.01.04.02.02,0,.05.02.06,0,0,0,0-.02,0-.03,0-.03,0-.06-.02-.08-.1-.08-.26,0-.39,0-.39,0-.77-.01-1.16-.02-.26,0-.52-.02-.78-.03-.02,0-.05,0-.07,0h0ZM13.1,9.34s.02,0,.03,0c.01.01.02.04.02.05.02.04.04.08.06.12.02.04.03.08.04.12.01.04.03.09.04.13,0,0,0,.02,0,.03,0,0,0,0,0,0,0,0-.01,0-.02.02,0,.01,0,.03-.02.04,0,0-.02.01-.02,0-.01,0-.01-.02-.02-.03,0,0,0,0-.01-.01,0-.02,0-.05,0-.08,0-.06-.02-.11-.03-.17-.02-.06-.06-.11-.07-.18,0-.02,0-.04,0-.05,0,0,.01,0,.02-.01h0ZM15.85,9.24c-.3,0-.6,0-.89,0-.16,0-.34-.07-.48,0-.02.01-.05.04-.04.07,0,.02.03.02.04.03,0,.01,0,.03,0,.05,0,.01,0,.03.01.03,0,0,.02,0,.02-.01,0,0,0-.02,0-.03,0,0,.01-.02.02-.02.02-.01.05,0,.08,0,.01,0,.02.01.03.02,0,0,.02.01.02.02.01.02.01.04.01.06,0,.02,0,.03.01.05,0,.02,0,.03.01.05,0,.03,0,.06.01.09,0,.01,0,.03,0,.04,0,.02,0,.05.01.06,0,0,.03.01.04,0,.01-.01,0-.04,0-.05,0-.05-.02-.1-.03-.15,0-.04-.02-.07-.02-.11,0-.02,0-.04,0-.05,0,0,.02,0,.04,0,0,0,.01,0,.02.02.02.03.04.07.04.11,0,.02,0,.05,0,.07,0,.05.01.1.01.16,0,.04,0,.07,0,.11,0,.01,0,.03.02.04,0,0,.02,0,.03,0,.02,0,.04-.03.05-.05,0-.02,0-.04,0-.06,0-.06-.01-.13-.02-.19,0-.03,0-.05-.01-.08,0-.04-.03-.07-.03-.1,0-.02-.01-.04,0-.05,0,0,.02,0,.03,0,.01,0,.02,0,.03.02.02.02.04.05.05.08.01.02,0,.06.03.07.02.01.05-.02.08-.02.02,0,.03,0,.05.01.01.01.02.03.03.05.01.02.02.04.02.07.01.04.02.08.02.12,0,.04,0,.08,0,.11,0,.01-.01.03-.02.04,0,.01-.02.02-.03.04,0,0,0,.02,0,.03.01.01.04,0,.06,0,.03,0,.05,0,.08-.01.03-.01.05-.03.07-.05,0-.01.02-.02.02-.03,0-.09-.1-.16-.13-.25,0-.02,0-.05-.01-.07-.01-.04-.05-.06-.06-.1,0-.02,0-.05,0-.07,0-.01,0-.02.01-.03,0,0,.02-.01.03-.01.01,0,.02.01.03.02,0,0,.01.02.01.03,0,.02.02.04.03.07.01.03.02.05.03.08,0,.03,0,.06,0,.09,0,.02-.02.05-.02.07,0,.06.04.14.09.16,0,0,.02,0,.02,0,.01-.01.01-.04.02-.06,0-.04,0-.08-.01-.12,0-.05-.02-.11-.03-.16,0-.03-.02-.06-.02-.09,0-.01,0-.02.01-.03,0,0,.01,0,.02,0,.02,0,.02.03.03.04.01.02.02.05.03.07.01.03.01.07.02.11,0,.03.02.06.03.1,0,.02,0,.04,0,.07,0,.01,0,.03,0,.04,0,.02.02.03.03.04.02.02.03.06.05.07.01,0,.03.01.05,0,0,0,.02-.01.02-.02.01-.04,0-.08-.02-.11,0-.03-.03-.06-.04-.1,0-.02,0-.05-.01-.07-.01-.04-.03-.09-.05-.13,0-.02-.02-.05-.02-.07,0-.02-.01-.04,0-.05,0,0,.02-.01.02-.01.01,0,.03,0,.04.02.02.03.02.07.03.1.01.03.03.06.06.08,0,0,.01.02.02.02,0,0,0-.02,0-.02,0-.03-.01-.06,0-.08,0-.02,0-.04.02-.04,0,0,.02,0,.02.01.02.02.02.05.03.07.01.03.03.07.04.11,0,.02,0,.05,0,.07,0,.01.02.02.02.03.01.01.02.03.03.05,0,.02,0,.04.01.05,0,.02,0,.03,0,.04,0,.01-.02.02-.03.03,0,.01,0,.03,0,.04,0,0,.02,0,.02.01.01,0,.02.01.03.02,0,0,0,.02,0,.03.04.03.09.02.13,0,0,0,.01-.02.02-.02,0,0,.02,0,.03,0,.02,0,.03.02.04.02.01,0,.02,0,.04,0,0,0,.02,0,.03,0,0,0,.01.01.02.01.02,0,.04-.01.06-.01.01,0,.02,0,.04,0,0,0,.02.01.03.02.02,0,.03,0,.05-.01,0,0,.02,0,.03,0,.01,0,.02.02.03.02.02.01.04.02.06.03.02,0,.05,0,.06-.02.02-.02.02-.06,0-.09,0,0-.02-.01-.02-.01-.02,0-.04,0-.06,0-.01,0-.02-.02-.03-.03,0-.02-.01-.04-.01-.06,0-.03,0-.07.01-.1.01-.01.03-.02.05-.02.01,0,.02.01.03,0,0,0,0-.02,0-.03,0-.02,0-.04,0-.06,0-.03-.04-.05-.04-.08,0-.02,0-.03.02-.05,0,0,.02-.01.02,0,.01,0,.02.02.02.03.02.03.04.06.05.09,0,.03.01.06.02.09,0,.02,0,.05.01.07,0,.01,0,.02.02.03.01,0,.03,0,.04,0,0,0,0,.02.02.02.02,0,.01-.03.01-.05,0-.02,0-.03,0-.05,0-.05,0-.1,0-.15,0-.02-.01-.04,0-.05,0,0,.01-.02.02-.02.01,0,.03,0,.03.01.02.02.03.05.04.07,0,.02.02.05.02.08,0,.02,0,.05,0,.07,0,.01,0,.02,0,.03,0,.02.03.03.04.05.01.02.02.03.03.05,0,.02,0,.04.01.06,0,.01,0,.03.01.04,0,.02-.02.04,0,.06.02.02.06.02.08,0,.01,0,.01-.02.01-.04,0-.03,0-.05-.01-.08,0-.04,0-.08-.01-.12,0-.04-.02-.07-.04-.1-.01-.02-.03-.03-.04-.05-.01-.03,0-.06,0-.09,0-.02.02-.05.04-.06.01,0,.02,0,.03,0,.01,0,.03.01.04.02.02.02.03.05.04.08,0,.02.01.04.02.06,0,.02,0,.05,0,.07,0,.01.01.02.02.03.01.02.03.05.05.04.13-.06.1-.29.04-.42-.02-.05-.08-.09-.13-.11-.4-.14-.85-.02-1.28-.02h0ZM15.97,9.43s.05,0,.07.02c0,0,0,.01.01.02,0,0,.02.02.02.03,0,.02,0,.05.01.06.01.01.04,0,.06,0,.03,0,.06-.02.07-.04,0-.02,0-.04,0-.05,0-.01,0-.03,0-.04.01,0,.03,0,.04,0,0,0,0,.02.02.03.01,0,.03-.01.04-.01.01,0,.02,0,.03,0,.01.01.01.03.02.05.01.04.03.07.04.11.01.05.02.1.02.16,0,.02.01.05,0,.06-.01.03-.05.05-.08.05-.01,0-.02-.02-.03-.03-.02-.01-.06-.02-.08,0-.01.01,0,.03,0,.05,0,.02-.01.04-.03.05,0,0-.02.01-.03.01-.01,0-.02-.02-.03-.03,0-.02,0-.03,0-.05,0-.01,0-.03,0-.04,0-.01-.02-.02-.02-.04,0-.02,0-.04,0-.06,0-.02.01-.04,0-.05,0,0-.02,0-.03,0-.01,0-.01.03-.02.04,0,.02,0,.04-.01.06,0,0,0,.02-.01.02-.02,0-.02-.05-.02-.07-.02-.06-.02-.12-.04-.17-.02-.05-.08-.09-.06-.13,0-.01.04,0,.04-.02h0Z"/>
      <path class="cls-3" d="M16.73,7.8s-.18.07-.2.07c-.02,0-.15.05-.15.05l-.11.05-.17.04s-.09.03-.11.03-.22.02-.22.02c0,0-.13,0-.15,0s-.15,0-.18.02-.15.07-.15.07l-.15.12s-.14.06-.17.07c-.03,0-.17.02-.2.02s-.17-.05-.17-.05h-.15s-.09,0-.16.03c-.06.02-.34.16-.34.16l-.25.12s-.11.04-.14.05c-.03,0-.09.02-.09.02l-.12.05h-.08l-.13-.04-.23.02-.17.05h-.15s-.17,0-.17,0h-.15l-.09.05h-.11s-.11.09-.11.09l-.13.11s-.05.02-.05.03,0,.05.02.06,1.6.16,1.6.16c0,0,.29.01.32.01s.18,0,.18,0c0,0,.1,0,.12,0s.11,0,.11,0c0,0,.17-.03.25-.03.08,0,1.64-.33,1.64-.33l.57-.46.15-.46.02-.19Z"/>
      <path class="cls-2" d="M16.75,7.78s-.1.06-.16.08c-.07.03-.15.05-.22.08-.03.01-.05.03-.07.04-.03.01-.07.02-.1.02-.02,0-.03,0-.05,0-.04.01-.06.04-.1.06-.03.01-.06.03-.1.04-.03,0-.06,0-.09,0-.02,0-.04,0-.06.01-.02.01-.04.03-.06.05-.03.02-.07.04-.1.05-.05.01-.1,0-.14,0-.03,0-.06.01-.08.02-.02,0-.04.02-.07.03-.03,0-.06,0-.09,0-.03,0-.05.01-.08.02-.02,0-.04.02-.07.02-.02,0-.03,0-.05,0,0,0-.02,0-.03.01,0,.01-.01.03,0,.05,0,.01.02.03.03.03.05.03.12.01.17.02.04,0,.08.01.12.02.02,0,.05.01.07.01.05,0,.11-.02.16,0,.02,0,.04.02.06.04.02.02.04.03.05.05,0,.01,0,.03,0,.04-.01.02-.04.03-.06.04-.04.01-.09.01-.13.01-.05,0-.09,0-.13-.02-.04-.01-.07-.04-.11-.05-.03,0-.06,0-.09,0-.07,0-.13,0-.2,0-.04,0-.08-.02-.11-.04-.02-.01-.04-.04-.06-.06-.02,0-.03-.02-.05-.02-.02,0-.03,0-.05,0-.01,0-.02.02-.04.02-.02,0-.04-.02-.05-.03-.01,0-.03-.02-.04-.03-.02,0-.04,0-.06,0-.02,0-.04.02-.06.04-.03.02-.07.04-.1.05-.03,0-.06,0-.09.01-.07,0-.14-.01-.21,0-.04,0-.08.03-.12.05-.03.02-.06.04-.09.06-.03.02-.07.03-.11.04-.02,0-.05.02-.07.02-.03,0-.07,0-.1,0-.02,0-.05,0-.07,0,0,0-.01.02-.01.02,0,.02.02.03.04.03.03.02.08.01.11.02.06,0,.12,0,.18,0,.03,0,.07,0,.1,0,0,0,.02,0,.02,0,0,.01,0,.03,0,.04,0,.01,0,.03-.01.03-.02.02-.05.02-.07.01-.03,0-.06-.02-.09-.03-.02,0-.05,0-.07,0-.03,0-.05.01-.07.02-.02,0-.03.03-.05.03-.04,0-.08,0-.11,0-.02,0-.03-.03-.04-.04-.02-.01-.04-.01-.07-.02-.06,0-.13.01-.19,0-.03,0-.05-.02-.07-.03-.02,0-.05-.02-.07-.02-.01,0-.03,0-.04,0-.02,0-.04.03-.06.04-.03.01-.07,0-.1.01-.04,0-.08,0-.13,0-.02,0-.03.02-.05.03-.04.01-.08.01-.12.01-.04,0-.08,0-.12,0-.01,0-.02-.01-.04-.01-.03,0-.05.03-.07.04-.03.01-.05.02-.08.03-.07.02-.13.05-.2.07-.09.03-.19.04-.27.09-.01,0-.03.01-.03.03,0,.04.04.08.07.11.02.01.04.02.06.03.04,0,.09,0,.13,0,.1,0,.2,0,.31.01.13,0,.26.02.4.02.27,0,.55,0,.82,0,.04,0,.08.01.11,0,.02,0,.04-.03.06-.04.02,0,.04,0,.06,0,.04-.02.06-.06.09-.08.05-.04.1-.08.15-.11.03-.01.06-.02.09-.03.03,0,.06,0,.09-.02.03-.02.05-.06.08-.08.03-.03.07-.05.11-.06.05-.02.1-.03.15-.04.04-.01.08-.03.12-.03.04,0,.09,0,.13,0,.06,0,.12,0,.18.01.05.01.09.04.14.05.02,0,.04,0,.06.01.01,0,.03,0,.03.02,0,0,0,.02-.01.02-.02.01-.04,0-.06,0-.03,0-.06,0-.09,0-.03,0-.05-.04-.08-.04-.04-.01-.09-.02-.14-.02-.02,0-.05.01-.07.03-.02.01-.03.04-.06.06-.02.01-.04.02-.06.02-.03,0-.05-.02-.08-.02-.03,0-.05.02-.07.03-.02.01-.05.02-.07.04-.02.02-.04.05-.07.06-.03.01-.06,0-.1.01-.04,0-.08,0-.11.01-.02,0-.04.03-.06.04-.02.01-.05.03-.07.04-.01,0-.03,0-.04.02,0,0,0,.02,0,.04,0,.02.03.03.04.04.03.01.06,0,.09.01.01,0,.02,0,.03,0,.03,0,.06.03.09.04.04,0,.07,0,.11,0,.03,0,.05-.01.08-.01.06,0,.13,0,.19.01.08,0,.17-.01.25,0,.03,0,.05.03.08.03.17,0,.32-.01.49,0,0,0,.01,0,.02,0,.14,0,.26,0,.39,0,.03,0,.05.02.08.02.03,0,.05,0,.08,0,.03,0,.05,0,.08,0,.02,0,.04,0,.06,0,.04,0,.09,0,.13,0,.01,0,.02,0,.03,0,.04,0,.09,0,.13.01.02,0,.04,0,.06,0,.02,0,.04,0,.07,0,.02,0,.04,0,.06,0,.09,0,.17.01.26,0,.01,0,.03,0,.04,0,.06,0,.12,0,.19,0,.06,0,.18,0,.18,0,0,0,.01-.27,0-.41-.04-.25-.13-.48-.23-.72-.05-.13-.13-.24-.19-.37-.02-.03-.03-.07-.05-.1h0ZM9.14,10.21v.06s-.01.21-.01.21h.16v-.04s0-.04,0-.06v-.16s-.14,0-.14,0ZM11,10.22l-.13.09v.24s.14.01.14.01c0,0-.01-.07-.02-.11,0,0,0-.02,0-.03,0-.07,0-.21,0-.21h0ZM11.61,10.28l-.14.04v.28s.15.04.15.04v-.03s0-.08,0-.09c0-.01,0-.23,0-.23h0ZM9.72,10.35h-.11s0,.17,0,.17l.03.02h.07s.01-.19.01-.19ZM14.51,10.35s-.05,0-.07,0c-.05,0-.09.01-.14.02-.06.02-.11.04-.17.07-.05.03-.11.06-.15.12-.19.25-.57.74-.57.74h-.64s.12-.24.17-.38c0-.03.02-.05.02-.08,0-.02,0-.04,0-.06,0-.02-.03-.03-.04-.03-.01,0-.03,0-.04,0-.02,0-.04.02-.05.03-.13.15-.23.54-.23.54h-.11s-.09-.2-.18-.27c-.02-.01-.05-.01-.07-.01-.02,0-.04,0-.05,0-.02.01-.03.03-.03.05,0,.01,0,.02.01.04.03.07.13.2.13.2l-1.02.03s-.01-.05-.03-.07c-.02-.02-.04-.03-.06-.04-.02,0-.05,0-.07,0-.03,0-.06,0-.09.02-.01,0-.02.03-.03.04-.02.04-.02.09-.02.14,0,.09.01.18.03.27,0,.02.02.04.04.06.02.02.05.02.08.02.03,0,.05,0,.08,0,.02,0,.03-.02.04-.03.01-.02.02-.04.03-.06,0-.02,0-.05,0-.05h1.17s-.34.76-.34.76l.15.08.33-.73.56.76.12-.07-.55-.8s.18,0,.27,0c.09,0,.17,0,.26,0,.07,0,.15,0,.22,0,.06,0,.12.03.18.02.03,0,.06-.02.08-.04.03-.02.05-.05.07-.07.02-.03.07-.08.07-.08,0,0,.15-.22.23-.33.05-.07.09-.15.16-.21.04-.05.1-.08.15-.12.05-.03.11-.06.17-.08.04-.01.07-.02.11-.03.04,0,.09.03.13.02.02,0,.04-.02.05-.03.02-.02.03-.04.04-.06,0-.02,0-.04-.02-.05-.01-.01-.04-.02-.05-.02-.05,0-.11,0-.16,0-.04,0-.09.02-.13.03-.07.02-.13.05-.19.09-.04.03-.08.06-.12.1-.09.08-.16.18-.23.27-.09.12-.27.36-.27.36l-.11-.13s.27-.36.39-.5c.04-.05.08-.1.13-.15.04-.04.09-.06.14-.09.04-.02.09-.04.14-.05.05,0,.1,0,.15,0,.02,0,.04,0,.05-.02.01-.01.02-.03.02-.05,0-.02,0-.03,0-.05,0-.01-.01-.03-.03-.03-.03,0-.05,0-.08,0h0ZM10.56,10.35l-.11.02v.14s-.04.04-.04.04l.13.02.05-.02s0-.02,0-.03c0-.02-.01-.03-.01-.06s-.02-.11-.02-.11h0ZM10.08,10.37s-.01,0-.02,0c-.02,0-.06,0-.06,0v.18s.07,0,.07,0h.08s-.04-.19-.04-.19c0,0-.02,0-.04,0h0ZM9.38,10.9l-.12.03-.02.04v.16s.13.01.13.01v-.25ZM9.98,10.93l-.11.05v.21s.09.01.09.01v-.27ZM10.42,10.95l-.09.08v.19s.09,0,.09,0v-.27ZM11.11,11.36s.01,0,.02,0c0,0,.02,0,.02,0,0,0,.02.01.02.02,0,0,.01.02.01.03,0,.08,0,.16,0,.25,0,.01-.02.02-.03.03,0,0-.02,0-.02,0,0,0-.01,0-.02,0,0,0-.02,0-.02,0,0,0-.02-.01-.02-.02,0-.01,0-.04,0-.05,0-.07-.01-.15-.01-.22,0-.01,0-.02.02-.03,0,0,.01-.01.02-.01,0,0,.02,0,.02,0h0ZM10.44,11.88s-.02,0-.02,0c-.01,0-.01.02-.02.02,0,0-.02.02-.03.03-.02,0-.05,0-.07,0-.02,0-.03,0-.05.02,0,0,0,.02,0,.02,0,0-.01,0-.02,0-.01,0-.03,0-.04,0,0,0-.01.02-.02.02-.01,0-.02,0-.03,0-.02,0-.04-.01-.07-.02,0,0-.02,0-.03,0-.02.02,0,.05,0,.07,0,.03.03.06.05.08.04.04.09.07.15.09.07.03.13.04.21.05.08,0,.16,0,.24-.02.03,0,.07,0,.09-.03,0,0,.02-.02.02-.03,0-.01-.01-.02-.02-.03-.02-.04-.05-.07-.08-.1-.04-.04-.08-.08-.12-.11-.03-.03-.06-.06-.11-.07,0,0,0,0,0,0h0ZM11.54,12.46s-.03.09-.06.13c-.04.05-.1.1-.15.14-.05.04-.11.08-.16.1-.03.01-.07.02-.1.03-.03,0-.06,0-.08,0-.02,0-.04,0-.06.02-.03.01-.04.04-.07.05-.02,0-.09.01-.07.02.08.03.13.06.2.07.08.02.16.04.24.06.09.02.19.02.28.03.07,0,.15,0,.22,0,.03,0,.06.01.08,0,.01,0,.02-.04.02-.05,0-.01,0-.03,0-.04-.02-.06-.07-.11-.11-.16-.03-.03-.06-.05-.09-.08-.02-.03-.04-.05-.05-.09-.01-.03,0-.07,0-.11,0-.04-.04-.13-.04-.13h0ZM10.18,13.01l-.28.02s-.16.03-.17.04-.06.03-.06.03l-.05.03.41.33.15.04.2-.18.02-.19s-.05-.1-.05-.1c0,0-.18,0-.18,0ZM12.23,13.25s-.02.26-.02.44c0,.07-.01.11,0,.15,0,.01,0,.02,0,.03,0,.01.01.03.02.04.02.02.07.03.07.03l.35-.6s0-.06,0-.09c0-.02,0-.05,0-.07,0-.02-.03-.1-.04-.1-.07.02-.37.16-.38.17ZM12.91,13.11s-.02.04-.03.06c0,.02,0,.05,0,.07,0,.03,0,.09,0,.09l.34.62s.08-.03.09-.04c0,0,.02-.02.02-.04,0-.01,0-.14,0-.22,0-.06,0-.18,0-.24,0-.04.03-.22,0-.22-.02,0-.22-.08-.32-.11-.03,0-.07,0-.09.04h0Z"/>
      <path class="cls-11" d="M9.27,9.58s-.01,0-.02,0c-.03,0-.06.01-.09.02-.02,0-.04,0-.05.02-.03.02-.06.03-.08.06-.01.02,0,.04-.02.06-.01.04-.03.07-.05.1-.02.03-.06.04-.09.07-.01,0-.02.01-.03.03,0,.02,0,.05,0,.07,0,0,.02.01.02.02,0,.01,0,.02,0,.03,0,.01-.02.02-.02.04,0,.03.02.05.04.08.01.02.02.03.04.04.03.02.06.02.09.04.02,0,.04.02.06.03.02,0,.04.01.05,0,.01,0,.03-.01.04-.02.02-.01.03-.03.05-.04.01,0,.02,0,.03,0,.01,0,.03,0,.03.01,0,0,0,.02,0,.03,0,0,.01,0,.02,0,.02,0,.04-.01.06-.01.02,0,.05,0,.07,0,.02,0,.03-.02.04-.03.01,0,.03-.02.03-.02,0,0,.02,0,.03,0,.02.02,0,.06,0,.09,0,.02,0,.05.02.07.01.01.03.02.05.02.01,0,.02,0,.04,0,0,0,.02-.01.03-.01.01,0,.03,0,.04,0,.01,0,.02.02.03.02.03,0,.06,0,.08,0,.02,0,.04,0,.05,0,.01,0,.02-.02.03-.03,0-.02,0-.05,0-.06.01,0,.03,0,.04,0,.02.01.01.04.02.05.01.02.03.04.05.04,0,0,.02,0,.02,0,.02,0,.03-.02.05-.02.01,0,.03,0,.04,0,.01,0,.02.02.03.02.02,0,.05,0,.07-.01.01,0,.03,0,.04-.02.02-.02.03-.05.04-.07,0,0,0-.02.02-.02.01,0,.03-.01.04,0,.01.01-.01.04-.01.05,0,.02,0,.04,0,.06,0,.01.01.03.03.04.02.01.04.02.06.02.01,0,.01-.02.03-.03.01,0,.03,0,.05,0,.01,0,.03,0,.04,0,.01,0,.01.02.02.03.02,0,.04,0,.06,0,.03-.02.05-.05.07-.08,0-.02,0-.04,0-.05,0-.01.02-.03.03-.04,0,0,.01,0,.02,0,.02.01.03.03.05.04.02.01.04.03.06.03.02,0,.03-.01.04-.02,0,0,0-.02.02-.02,0,0,.01.01.02.01s.02-.01.02-.01c.02,0,.04,0,.07.01.02,0,.04,0,.06,0,.01,0,.02,0,.03,0,.01,0,.02.01.03.01.01,0,.03.01.04.01.02,0,.03-.02.04-.03,0-.01.01-.03.02-.05,0-.02.02-.05.02-.05,0,0,.03.02.03.03,0,.02,0,.04,0,.05.01.02.04.02.06.03.02,0,.04.02.05.02.01,0,.02.01.04.01.02,0,.04-.01.06-.02.02,0,.03-.01.05-.01.02,0,.03,0,.05,0,.02,0,.05.01.07.01.02,0,.04,0,.06,0,.02,0,.03-.03.04-.04.01-.01.02-.03.04-.04.02-.01.05,0,.06-.01.01-.01.02-.03.02-.05,0-.02,0-.04,0-.06,0-.02.02-.03.03-.04,0-.03,0-.07,0-.1,0-.01-.02-.02-.02-.03,0-.01,0-.03,0-.04,0-.02-.02-.03-.03-.04-.01,0-.03,0-.04-.02-.02-.01-.02-.04-.04-.05-.01-.01-.02-.02-.04-.03-.01,0-.03,0-.04-.01-.01,0-.02-.02-.03-.03-.01,0-.03,0-.04-.02-.01,0-.01-.03-.03-.04,0,0-.02,0-.03,0,0,0-.01,0-.02.01-.02,0-.04,0-.05,0-.02,0-.04,0-.06,0-.01,0-.02.02-.03.03-.01.01-.03.02-.04.03-.01.02-.01.04-.01.05,0,.02,0,.04,0,.06,0,.03-.02.06-.04.09-.01.03-.04.1-.04.1,0,0-.01-.04-.02-.06-.01-.04-.02-.09-.04-.13,0-.03-.02-.07-.03-.1,0-.02-.01-.06-.04-.07-.02-.02-.06,0-.08,0-.02,0-.04-.02-.05-.03-.02,0-.05,0-.07-.03-.01-.01,0-.04,0-.05,0,0-.02,0-.03,0-.02,0-.04,0-.05.02,0,.01,0,.03,0,.04,0,.02-.03.04-.04.05-.01.01-.03.02-.04.03,0,0,0,.02,0,.02-.01.01-.03.01-.04.02-.01,0-.03,0-.03.02-.01.02,0,.04,0,.06,0,.03,0,.05-.01.08,0,.02-.01.04-.03.04-.02,0-.04,0-.06,0-.03,0-.06-.01-.09,0-.02,0-.03.01-.04.03,0,.01,0,.03-.02.04-.01.01-.03,0-.04.01-.01.01-.01.03-.02.05,0,0,0,.02,0,.02,0,0-.02,0-.03,0-.02-.01-.03-.04-.05-.06-.03-.02-.06-.04-.09-.06,0,0-.01-.02-.02-.02-.03,0-.05.01-.08.02-.02,0-.04.02-.06.02-.02,0-.06,0-.07.02,0,0,0,.03,0,.04,0,.02,0,.03,0,.05,0,.01-.01.02-.02.02-.02,0-.03-.01-.04-.02-.02-.03-.02-.07-.04-.1-.02-.03-.04-.06-.07-.08-.02-.01-.04-.03-.06-.03-.01,0-.02.01-.04.02-.02.02-.03.04-.05.06-.01.01-.03.03-.05.04-.01,0-.03,0-.03,0,0,0-.03-.02-.02-.03s0-.04,0-.05c0-.02.02-.03.02-.05,0-.02,0-.04,0-.06-.01-.03-.04-.04-.06-.06-.02-.03-.04-.07-.06-.09-.02-.02-.04-.03-.06-.05-.01-.01-.02-.03-.04-.04,0-.01-.02-.03-.03-.03,0,0-.01,0-.02,0h0ZM9.03,10.37s0,0,0,0c0,0,0,.02,0,.02-.01,0-.03,0-.04,0-.02,0-.04,0-.05,0-.02.01-.04.03-.06.05-.01.01-.03.03-.03.05,0,.01-.02.03,0,.05.01.01.04,0,.05,0,.02,0,.04,0,.05.02.02.01.02.04.04.04.02,0,.03-.02.04-.03.01,0,.03-.02.04-.03.03-.01.05-.02.08-.02.04,0,.07,0,.11,0,.03,0,.07,0,.1,0,.01,0,.02.01.03.02.02.01.04.03.06.04.03,0,.06,0,.09,0,.01,0,.03-.01.04-.01.02,0,.03.03.05.03.02,0,.05,0,.07,0,.03,0,.05,0,.07,0,.03,0,.07-.02.1-.02.02,0,.04,0,.07,0,0,0,.02.01.02.01,0,0-.04.02-.05.03-.03.02-.06.03-.09.05-.02.02-.04.03-.06.05-.01,0-.02.02-.03.03,0,.02.01.04.02.06,0,.01.02.02.01.03,0,.02-.03.03-.03.04,0,.02,0,.04.02.05.01,0,.03,0,.04,0,.01,0,.01.03.02.04,0,0,.02.02.03.02.02,0,.02-.02.04-.03.01,0,.03-.02.04-.02.01,0,.03,0,.04,0,.01.01,0,.04,0,.05.01,0,.03-.01.04-.02.02,0,.04-.02.06-.02.02,0,.04,0,.05,0,.02-.01.02-.04.02-.07,0-.04,0-.08,0-.11,0-.03-.01-.05-.03-.07-.01-.02-.04-.04-.04-.06,0,0,0-.01,0-.01h.2s-.02.02-.03.03c-.02.02-.04.04-.05.06-.01.03-.02.07-.02.1,0,.03,0,.05.01.07,0,0,.02.01.02.02,0,0,0,.01,0,.02,0,.01-.01.03-.01.04,0,.02,0,.05.03.06.01.01.04,0,.05,0,.01,0,.02-.01.04-.02.01,0,.03-.02.04-.02.02,0,.03,0,.04.01,0,0,.02,0,.03,0,.04,0,.07-.01.1-.03.03-.02.05-.04.06-.07.01-.03,0-.07,0-.1,0-.03-.02-.05-.03-.07-.02-.03-.05-.04-.06-.07,0-.01-.01-.04-.01-.04,0,0,.09,0,.13,0,.01,0,.02.02.03.03.02.01.04.03.07.03.02,0,.04,0,.06,0,.03,0,.06,0,.08-.01.04,0,.07-.03.11-.04.04,0,.07-.02.11-.01.02,0,.02.02.04.03.02,0,.04,0,.06,0,.03,0,.06.03.09.03.03,0,.06,0,.09-.01.01,0,.03,0,.04,0,.02,0,.04,0,.05,0,.02,0,.03-.01.05-.02.01,0,.02-.01.04-.01.02,0,.03,0,.04.01.02,0,.04.03.07.03.06.01.12,0,.18,0,.1,0,.2,0,.3,0,.04,0,.07,0,.11,0,.02,0,.05,0,.07,0,0,0,.02-.01.02-.02,0-.02-.02-.03-.03-.05-.01-.01-.03-.03-.05-.03-.11,0-.2,0-.3-.02-.03,0-.06-.01-.09-.02-.05-.01-.09-.02-.14-.03-.02,0-.04-.01-.05-.02-.02,0-.08-.02-.08-.02l.02.07s-.02,0-.04,0c-.03,0-.05,0-.08,0-.01,0-.02,0-.04-.01-.01,0-.01,0-.03-.02-.01,0-.02-.01-.04-.02-.03-.01-.05-.02-.08-.02-.02,0-.05.01-.07,0-.03,0-.05-.02-.07-.03-.02,0-.03-.02-.05-.02-.02,0-.05,0-.07,0-.02,0-.05.02-.05.02v.07s-.14,0-.14,0v-.04s-.03,0-.05,0c0,0-.01-.02-.02-.02-.02,0-.04,0-.06,0-.01,0-.03.02-.04.02-.02,0-.02,0-.04,0,0,0-.03,0-.04,0,0,0-.02.02-.02.02v.02h-.14v-.04s-.14-.02-.21,0c-.01,0-.03.01-.04.01-.01,0-.05,0-.05,0,0,0-.02.02-.03.03-.03.01-.07.01-.1,0,0,0-.02-.01-.02-.02,0,0,0-.02,0-.02,0,0-.03-.02-.04-.03-.02-.01-.05,0-.07-.01-.03,0-.06,0-.08,0-.02,0-.04,0-.06,0-.01,0-.04.01-.04.01v.04s-.01.01-.04.01c-.02,0-.06,0-.06,0v-.03s0-.03,0-.03c0,0-.04-.02-.06-.03-.02,0-.04-.02-.06-.02-.03,0-.05,0-.08,0-.02,0-.04,0-.07-.01-.02,0-.06-.02-.06-.02v.07s-.1,0-.15,0v-.04s-.05,0-.07,0c0,0,0-.03-.01-.03,0,0-.01,0-.02,0h0ZM9.33,10.59s-.04.01-.06.02c-.03.01-.05.03-.08.05-.02.01-.04.03-.05.05,0,.01-.01.03-.01.05,0,.02,0,.05,0,.07,0,.02.01.04.01.06,0,.02,0,.05.01.07.02.02.04.05.07.04.01,0,.02-.02.03-.03.01,0,.02,0,.04,0,.02,0,.04,0,.06.01.01,0,.02.02.03.02.01,0,.02,0,.04,0,.02,0,.03-.01.04-.01.01,0,.03,0,.04-.01.02-.01.05-.04.05-.04,0,0,.01-.04,0-.06,0-.02-.02-.04-.02-.07,0-.02,0-.04,0-.06,0-.02,0-.05-.02-.07,0,0-.01-.02-.02-.02-.01,0-.03,0-.04-.01-.03-.01-.06-.02-.09-.03-.02,0-.03-.02-.04-.02,0,0,0,0,0,0h0ZM9.46,11.08s-.01,0-.02,0c-.01,0-.02.01-.04.01,0,0-.03,0-.03,0v.03s-.05,0-.08,0c-.01,0-.03,0-.04-.02-.01,0-.02-.02-.04-.02-.02,0-.03.01-.04.01-.02,0-.04.01-.06.02-.01,0-.03,0-.04,0,0,0,0,.02,0,.03,0,.02.03.02.04.03.01,0,.03.02.04.02.01,0,.02,0,.04,0,.02,0,.04-.03.07-.03.03,0,.05,0,.08,0,.01,0,.02.01.03.01.01,0,.05.01.07.01.01,0,.03,0,.04,0,.02,0,.04.01.05,0,0,0,0-.02.01-.03,0-.02,0-.04,0-.05-.01-.03-.03-.05-.06-.06,0,0-.02,0-.03,0ZM10.55,11.11s-.01,0-.02,0c-.02,0-.04.01-.05.02-.01,0-.05,0-.05,0,0,0,0,.03,0,.05,0,0,0,.01-.01.02-.02,0-.03,0-.05,0-.01,0-.02-.01-.04-.02,0,0-.01,0-.01-.01-.01,0-.03,0-.04,0-.02,0-.03.01-.04.02-.02,0-.04,0-.05,0,0,0-.01.02,0,.03,0,.01.02.02.04.03.02.01.05.01.07.02.02,0,.03.02.05.02.02,0,.04,0,.07,0,.02,0,.04,0,.05,0,.03,0,.06,0,.09,0,.01,0,.03-.01.04-.01.02,0,.05,0,.07-.02.02-.01.03-.03.03-.05,0-.02-.02-.04-.04-.06-.02-.02-.03-.03-.05-.04-.01,0-.02,0-.03,0h0ZM9.97,11.12v.06s-.03,0-.05,0c-.02,0-.06-.02-.06-.02v-.03s-.07,0-.1,0c-.01,0-.03,0-.04,0-.01,0-.02.02-.03.04,0,.01,0,.03,0,.04.01.01.04,0,.06,0,.03,0,.05,0,.08,0,.02,0,.04-.01.06,0,.01,0,.02.01.03.02.02,0,.03,0,.05,0,.02,0,.05,0,.07,0,0,0,0-.02,0-.03,0-.01,0-.03-.01-.04-.01-.02-.02-.03-.04-.04,0,0-.02,0-.02,0ZM14.63,11.16s-.03.02-.04.03c0,.01,0,.02-.01.04,0,.02,0,.05,0,.08,0,.02-.02.04-.03.05-.01.01-.03,0-.04.02-.02.02-.02.04-.03.06-.02.03-.04.06-.05.09-.01.02-.02.04-.04.05-.02.02-.05.02-.07.04-.01.02-.01.04-.01.07,0,.04.01.09.04.11.02.02.05,0,.08,0,.02,0,.03-.01.05-.01.02,0,.04-.01.07,0,.01,0,.02.01.03.02.02,0,.03.01.05.01.04,0,.07-.04.1-.05.02,0,.05,0,.06-.02.02-.02,0-.05,0-.08,0-.03,0-.05,0-.08,0-.03-.02-.06-.03-.09-.02-.05-.04-.1-.05-.15,0-.02,0-.04,0-.06,0-.02,0-.03-.01-.04,0-.01-.02-.02-.03-.04-.01-.01-.01-.04-.03-.05,0,0,0,0,0,0h0ZM15.45,12.04s-.05,0-.07,0c-.05,0-.1,0-.15,0-.03,0-.06.01-.07.03-.01.02,0,.05,0,.07-.01.02-.05.02-.07.03-.02,0-.04.01-.05.03-.01.01-.02.03-.03.04,0,.02,0,.03.01.05.01.02.03.05.05.06.02.01.04.02.07.03.03,0,.05,0,.08,0,.02,0,.04,0,.06,0,.03,0,.05.02.07.03.03.01.06.03.09.05.03.01.07.03.1.04.02,0,.05,0,.08,0,.03,0,.05,0,.08,0,.02-.01.04-.03.04-.05,0-.04-.06-.06-.09-.09-.02-.02-.05-.04-.08-.06-.02-.01-.03-.02-.04-.04-.01-.02-.03-.04-.03-.06,0-.01,0-.03,0-.04,0-.01.01-.02.02-.03,0-.01,0-.03,0-.04,0,0,0-.02,0-.02-.02-.02-.04-.02-.06-.02h0Z"/>
      <g>
        <path class="cls-8" d="M11.96,12.3l.39.17s.11.04.16.08c0,0,.01.02.01.03,0,.02,0,.03-.01.04-.08.16-.18.33-.31.45-.04.04-.08.08-.14.09-.03,0-.06-.01-.08-.03-.03-.02-.06-.05-.08-.08-.02-.02-.03-.05-.03-.07-.02-.06-.03-.11-.04-.17-.01-.08-.02-.16-.01-.24,0-.04,0-.09.02-.13.01-.04.03-.09.05-.12,0,0,.02-.01.03-.02.01,0,.04,0,.04,0h0Z"/>
        <path class="cls-10" d="M12.37,12.47l.13.05s.03.01.04.02c0,0,0,.01.01.02,0,.01,0,.03,0,.04-.01.03-.03.05-.05.08-.01.02-.03.05-.04.07-.02.03-.04.06-.06.09-.03.05-.06.09-.1.14-.02.03-.08.08-.08.08h-.05s0-.02,0-.02l.03-.06.25-.33v-.03s.01-.02,0-.04c0-.01-.01-.03-.03-.04s-.04,0-.06-.03c0,0-.01-.02-.01-.03,0,0,0-.02,0-.02,0,0,.02-.01.02-.01h0ZM11.84,12.85s0,.05,0,.07c0,.03.02.06.03.08,0,.01,0,.02.02.03,0,.01.01.02.02.04.01.02.02.04.04.04.03,0,.05-.02.07-.04.02-.01.03-.02.05-.04,0,0,.02-.02.02-.03,0,0,0-.02,0-.03,0-.01,0-.02-.01-.03,0,0-.02,0-.03,0-.02.01-.02.04-.04.05-.01,0-.02.02-.04.01-.02,0-.03-.01-.05-.03-.01-.02-.02-.04-.03-.06,0-.01,0-.03-.01-.04,0-.01,0-.03-.02-.04,0,0-.01,0-.02,0,0,0-.02,0-.02,0h0Z"/>
      </g>
      <g>
        <path class="cls-8" d="M13.51,12.09s-.02.09-.04.13c-.02.05-.05.09-.09.13-.02.02-.03.04-.05.06-.01,0-.02.01-.04.01-.02,0-.06-.03-.06-.03l-.1.08s0,.05,0,.07c0,.03-.03.05-.06.07-.03.03-.06.05-.09.08-.02.02-.07.05-.07.05,0,0,.08,0,.12,0,.04,0,.07,0,.11-.02.04-.01.07-.03.11-.05.04-.02.08-.05.11-.08.03-.03.06-.07.08-.11.03-.05.05-.09.06-.14.02-.05.03-.11.03-.16,0-.04-.03-.12-.03-.12h0Z"/>
        <path class="cls-10" d="M13.21,12.42l-.07.06s0,.03,0,.04c0,.02,0,.04-.02.06-.01.02-.04.04-.06.05-.03.02-.05.04-.08.05-.02.01-.05.03-.08.03-.02,0-.07,0-.07,0,0,0,.02.02.04.02.02,0,.03,0,.05.01.02,0,.04,0,.06,0,.03,0,.06-.02.09-.04.02-.02.04-.04.06-.07.01-.02.03-.05.03-.08,0-.02,0-.06,0-.06l.08-.08h-.02ZM13.51,12.09s-.01.04-.02.06c-.01.03-.02.06-.03.09-.01.03-.03.05-.05.07-.02.03-.04.06-.07.08,0,0-.02.02-.03.02-.01,0-.03,0-.03,0v.02s.03,0,.04,0c.02,0,.03-.01.05-.03.02-.02.04-.04.05-.06.02-.02.03-.04.04-.07.01-.03.02-.05.03-.08,0-.03.01-.05.01-.08,0-.01,0-.03,0-.03h0Z"/>
      </g>
      <path class="cls-8" d="M11.72,9.04s.02.02.03.03c0,.01,0,.03,0,.04,0,.02.01.03.02.05.01.02.03.04.05.05,0,.01.02.02.03.03.02.02.05.02.05.04,0,0-.01,0-.01.02,0,0,0,.02,0,.03,0,.02,0,.03,0,.05,0,0,0,.01,0,.02,0,0-.02,0-.02,0-.01,0,0-.03-.01-.04,0-.01,0-.03-.02-.04,0,0-.02-.02-.03-.02,0,0-.02,0-.03,0,0,0-.01.02-.02.02-.02,0,0-.04,0-.05,0-.02-.03-.03-.04-.05,0-.01-.02-.03-.03-.04-.02-.03-.05-.05-.06-.08M12.78,5.91s-.03,0-.04.01c0,0-.02,0-.02,0,0,0-.01,0-.02-.01,0,0-.02,0-.03,0-.01,0-.03,0-.04,0,0,0,0,0,0,0,0,0,0,.01,0,.02,0,0-.02,0-.03,0-.03,0-.07,0-.1,0-.01,0-.02,0-.03,0,0,0-.01.02-.02.02-.01.01-.03.02-.05.02-.02,0-.03,0-.05,0-.01,0-.02-.01-.03-.02-.08-.03-.17,0-.25,0-.05,0-.11,0-.16,0-.02,0-.03,0-.05,0,0,0-.02,0-.02-.01-.01,0-.03,0-.05-.01-.02,0-.04,0-.05,0,0,0-.02,0-.03,0-.02,0-.04-.01-.05-.01-.01,0-.03,0-.04,0,0,0,0,.02,0,.02,0,.01.03.01.04.02.02,0,.03,0,.05,0,0,0,.02,0,.02,0,0,0,0,.02,0,.02,0,0,0,0,0,.01-.01,0-.03,0-.04,0,0,0,0,.01,0,.02,0,0,.02,0,.03,0,.01,0,.03,0,.04,0,.01,0,.02-.02.03-.02.01,0,.03,0,.04,0,0,0,.01.01.02.02,0,0,.01.02.02.03.01,0,.02,0,.04,0,.02,0,.03-.01.05-.01.01,0,.02,0,.03,0,.02,0,.04,0,.06,0,.02,0,.04-.01.06-.01.01,0,.03.01.04.01.02,0,.03,0,.05,0,.01,0,.02-.01.03-.01.01,0,.02.01.03.01.02,0,.04-.02.06-.02.02,0,.03,0,.05,0,.03,0,.06,0,.09,0,.01,0,.02.01.03.02.02,0,.04.01.07.01.01,0,.03,0,.04,0,.02,0,.05,0,.07,0,.01,0,.03,0,.04,0,.01,0,.02,0,.03,0,.03,0,.07,0,.1,0,.04,0,.08-.01.11-.01.04,0,.07,0,.11,0,.02,0,.05,0,.07.01.03,0,.07.01.1.02.05,0,.1.03.15.03.03,0,.05,0,.08,0,.02,0,.05,0,.07,0,.03,0,.07,0,.1,0,.01,0,.02-.01.04-.02.04,0,.09,0,.13,0,.02,0,.04,0,.06,0,.02,0,.04.02.07.03.02,0,.04,0,.05,0,.01,0,.02-.02.03-.02.02,0,.03.01.05.02.02,0,.05.01.07,0,.01,0,.02-.02.03-.02.01,0,.03,0,.05,0,0,0,0,.02.02.02.02.01.05.02.07,0,.01,0,.02-.02.02-.04,0-.01,0-.03-.02-.04-.05-.03-.12,0-.18,0-.04,0-.08.01-.12,0-.01,0-.02-.01-.03-.01-.04,0-.09,0-.14,0-.07,0-.15,0-.22,0-.02,0-.05,0-.07,0-.02,0-.03-.01-.04-.02-.02-.01-.02-.03-.04-.04-.04-.02-.09,0-.14,0-.02,0-.04,0-.07,0-.01,0-.02-.02-.03-.02-.02,0-.05.01-.07,0-.02,0-.04-.02-.05-.02-.02,0-.04,0-.06,0-.02,0-.04,0-.06,0,0,0-.01.02-.02.02,0,0-.01.01-.02.01-.01,0-.03,0-.04,0,0,0-.01-.02-.02-.02-.01,0-.02-.02-.04-.02-.01,0-.03,0-.04,0,0,0-.01-.02-.02-.02h0ZM13.78,5.93s-.01,0-.01,0c0,0,0,.01.01.01,0,0,.02,0,.03,0,0,0,0,0,0-.01,0,0-.02,0-.03,0ZM13.57,5.95s-.01,0-.02,0c0,0,0,0,0,0,0,.01.02,0,.03.01.02,0,.05,0,.07,0,0,0,0,0,0,0,0,0,0,0-.01-.01-.01,0-.03,0-.04,0-.01,0-.03,0-.04,0h0ZM11.35,5.98s-.05,0-.07.02c0,0-.01,0-.01.01,0,0,0,0,.01.01,0,0,0,0,.01,0,.03.01.07.02.1,0,0,0,0,0,0-.01,0,0,.02,0,.02,0,0,0,0-.01,0-.01-.02,0-.04-.01-.06-.01h0ZM14.42,6.06s0,0,0,0c0,0-.01,0-.02.01,0,0-.01,0-.02,0,0,0-.01.01,0,.02,0,.01.02.02.04.02.01,0,.03,0,.04,0,.01,0,.03-.01.04-.02.01,0,.03.01.04,0,0,0,0-.02,0-.03,0,0-.02-.01-.03-.02-.01,0-.02,0-.03,0-.01,0-.03,0-.04,0h0ZM12.41,6.33s-.01,0-.02,0c-.01,0-.02.01-.03.02-.02,0-.03,0-.05,0-.03,0-.06-.01-.09,0-.01,0-.01.02-.03.02-.01,0-.02,0-.04,0-.01,0-.02,0-.03-.01-.01,0-.02,0-.03-.01-.01,0-.03,0-.04,0-.01,0-.02.01-.03.02-.02,0-.04,0-.06,0-.07,0-.14,0-.21,0-.02,0-.04-.01-.06-.02-.01,0-.03,0-.04,0,0,0-.02,0-.02-.01-.07,0-.15,0-.23,0-.02,0-.05,0-.07,0-.01,0-.03,0-.03,0,0,.01.03.01.04.03,0,0,0,.02,0,.02-.05,0-.08,0-.13,0-.03,0-.06,0-.09,0-.02,0-.05,0-.07,0,0,0-.01.01-.01.02,0,.02.02.03.04.03.03.01.07,0,.11,0,.04,0,.09,0,.13,0,.02,0,.04-.02.07-.02.04,0,.08,0,.12,0,.05,0,.1,0,.14,0,.01,0,.03,0,.04,0,.02,0,.03,0,.05,0,.03,0,.05,0,.08,0,0,0,.02,0,.03,0,.02,0,.04.03.06.03.02,0,.04.01.06,0,0,0,.01-.01.02-.02.01,0,.03-.01.04-.01.01,0,.03,0,.04,0,0,0,.01.01.02.02,0,0,0,.02,0,.03.01,0,.03,0,.04,0,.01,0,.03,0,.04.01.03,0,.05,0,.08,0,.05,0,.11,0,.16,0,.03,0,.05-.02.07-.02.04,0,.07,0,.11,0,.03,0,.05,0,.08,0,.02,0,.04,0,.06,0,.01,0,.02-.02.04-.02.03,0,.06,0,.1,0,.03,0,.06.01.08,0,0,0,.01,0,.01-.02,0-.01-.01-.02-.02-.02,0,0-.02,0-.03-.01-.05,0-.1.01-.14,0,0,0-.01,0-.02,0,0,0,0-.01,0-.01-.06,0-.11.01-.17,0-.01,0-.02-.01-.03-.02-.02,0-.04,0-.06,0-.02,0-.03-.02-.04-.02,0,0-.01,0-.02,0h0ZM13.07,6.4s-.03,0-.06,0c-.01,0,.02.02.03.03.02.01.04.02.06.02.02,0,.04,0,.07,0,.01,0,.03,0,.04,0,0,0,.01-.01,0-.02,0,0-.02,0-.03,0-.02,0-.04,0-.05,0,0,0,0-.02,0-.02,0,0-.02,0-.03,0-.02,0-.03,0-.05,0h0ZM13.36,6.43s-.02,0-.03,0c0,0,0,.02,0,.02,0,0,.02,0,.03,0,.03,0,.07,0,.1,0,.02,0,.05,0,.05,0,0,0-.02,0-.02-.01-.01,0-.02,0-.03,0-.02,0-.04,0-.05,0-.01,0-.02,0-.03,0ZM13.75,6.85s-.03,0-.05,0c-.02,0-.04.02-.06.03-.03,0-.06.02-.1.02-.04,0-.09,0-.13,0-.03,0-.05.01-.08.01-.03,0-.06,0-.09,0-.02,0-.04,0-.06.01-.01,0-.03,0-.03.02,0,.01.02.01.03.02.02,0,.05,0,.07,0,.03,0,.06,0,.1,0,.05,0,.09,0,.14,0,.02,0,.05,0,.07,0,.02,0,.04,0,.06,0,.03,0,.05,0,.08,0,.02,0,.04-.02.06-.02.02,0,.05,0,.08,0,.02,0,.03.02.05.02.02,0,.04,0,.06,0,.01,0,.03-.01.04-.02.01,0,.02,0,.03,0,.02,0,.04.02.06.02.04,0,.07,0,.11,0,.05,0,.09,0,.14,0,.04,0,.08,0,.11,0,.01,0,.02,0,.04-.01.01,0,.03,0,.04,0,.01,0,.03,0,.04,0,.02,0,.04.01.06.01.03,0,.05,0,.07,0,.02,0,.04,0,.06-.01.01,0,.02,0,.04,0,.04,0,.09,0,.13,0,.02,0,.05,0,.07,0,0,0,.02,0,.02-.01,0,0,0-.01-.01-.01-.03-.01-.06,0-.09-.01-.02,0-.03-.01-.05-.02-.03,0-.07,0-.1,0-.02,0-.05,0-.07,0-.02,0-.04.02-.06.02-.01,0-.03,0-.04,0-.02,0-.03.01-.05.02-.02,0-.03,0-.05,0-.06,0-.12,0-.18,0-.09,0-.18,0-.27,0-.02,0-.04,0-.05,0,0,0-.02,0-.03,0-.01,0-.02.01-.04.01-.01,0-.03,0-.04,0,0,0-.02-.01-.03-.01-.01,0-.02-.01-.03-.02-.02,0-.04,0-.06-.02,0,0,0,0-.01,0,0,0-.01,0-.02,0h0ZM9.71,7.25s-.14,0-.15,0c0,0-.02.01-.02.01h0s-.06,0-.06,0h-.02s-.02.03-.02.03h.04s.09.02.09.02c0,0,.03-.01.07,0,.04,0,.12,0,.12,0h.03s.02-.02.02-.02h0s-.09-.01-.09-.01v-.02s-.02,0-.03,0h0ZM15.86,7.27s-.04,0-.06,0c-.03,0-.05.01-.08.02-.13.01-.26,0-.39,0-.09,0-.17,0-.26,0-.04,0-.09-.02-.13-.02-.03,0-.06,0-.08.01-.01,0-.01.02-.03.03-.02.01-.05,0-.08,0-.05,0-.09,0-.14,0-.02,0-.05,0-.04.03,0,.04.07.01.11.01.06,0,.11,0,.17,0,.01,0,.03,0,.04.01.01,0,.02.02.04.03.02.01.04.03.07.03.03,0,.04-.03.07-.04.02,0,.05,0,.07,0,.23-.01.46-.02.69-.02.05,0,.11.03.16,0,0,0,.02-.02.02-.03,0-.01-.03,0-.04,0-.03,0-.06,0-.08-.01,0,0,0-.02,0-.02,0-.01.03-.01.03-.02,0-.01-.02,0-.04-.01,0,0-.01,0-.02,0h0ZM9.92,7.27h-.02s0,.02,0,.02h-.02s.04.02.04.02h.13s.05,0,.07,0c.02,0,.02.01.02.01,0,0-.02.01-.01.01s.02,0,.05,0c.03,0,.12,0,.14,0s.05,0,.05,0c0,0-.02-.02-.03-.02,0,0-.02,0-.03,0,0,0-.02-.01-.03-.01h-.09s-.02-.02-.02-.02h-.11s-.05,0-.05,0h-.03s-.07,0-.07,0ZM13.75,7.66s-.04.02-.06.02-.08,0-.08,0h0s0,.04,0,.04.03.01.05.02c.03,0,.03.02.03.02h.06s0-.01.03-.01c.02,0,.04.01.05,0,.01,0,.09,0,.11-.01.02,0,.05,0,.1,0s.02.01.03.02c.01,0,.07,0,.12,0s.07,0,.09.01c.01,0,.05,0,.07,0,.01,0,.03,0,.05,0s.15,0,.16,0c.01,0,.04,0,.05,0,.01,0,.02.01.05.02.02,0,.04-.02.04-.02,0,0,.03,0,.06,0s.04.01.05.01.06-.02.06-.02c0,0,.04,0,.05,0,.01,0,.03,0,.04,0,.01,0,.04.01.07.01.03,0,.04-.02.04-.02,0,0,.05,0,.06,0,.01,0,.03.01.05.02.02,0,.04-.01.05-.02s.02,0,.03,0,.04-.01.05-.02c0,0,0-.02,0-.03s-.03,0-.04,0c-.01,0-.02-.01-.04-.01s-.07,0-.11,0c-.04,0-.11,0-.12,0s-.06.01-.08.01c-.02,0-.06.01-.09.01s-.04-.01-.06-.01c-.01,0-.07,0-.1,0-.04,0-.04,0-.09,0-.05,0-.03,0-.08-.01-.04-.01-.06,0-.08,0-.02,0-.13,0-.14,0s-.06.02-.06.02c0,0-.32-.01-.33-.01s-.07-.02-.07-.02c0,0-.04,0-.06,0h0ZM11.93,6.68s-.01,0-.02,0c-.02,0-.03.02-.04.04-.08.34-.12.68-.16,1.04,0,.03,0,.06.03.08.02.02.05.02.07.01.03-.01.04-.04.05-.08.07-.33.12-.67.14-1.03,0-.02-.01-.03-.03-.04-.01,0-.03-.01-.05-.01h0ZM11.29,6.72s-.03,0-.04.01c-.02.01-.03.03-.03.05.03.34.09.67.16,1.02.01.03.03.05.05.06.02,0,.06,0,.08-.01.02-.02.03-.05.03-.09-.03-.33-.08-.66-.18-1,0-.01-.03-.03-.04-.03,0,0-.02,0-.03,0h0ZM12.64,6.96s-.03,0-.04.02c-.22.26-.41.54-.6.84-.01.03-.02.06,0,.08,0,.02.03.04.06.04.03,0,.05-.02.08-.05.21-.26.4-.53.58-.84,0-.01,0-.04,0-.05-.01-.02-.03-.04-.05-.04,0,0,0,0,0,0h0ZM10.68,7.06s0,0,0,0c-.02,0-.04.01-.05.03,0,.01-.01.03,0,.05.14.28.31.54.5.81.02.02.04.04.07.03.02,0,.05-.02.06-.04.01-.03,0-.05-.01-.08-.14-.27-.31-.53-.5-.79,0-.01-.02-.01-.04-.01h0ZM13.11,7.42s-.02,0-.03,0c-.29.18-.57.38-.84.6-.02.02-.04.05-.03.07,0,.02.02.05.04.06.03.01.05,0,.09-.02.28-.17.55-.37.83-.61.01,0,.02-.03.01-.05,0-.02-.02-.04-.04-.05,0,0-.02,0-.03,0h0ZM13.26,7.99s0,0,0,0c-.31.08-.61.19-.92.31-.02.02-.04.03-.05.06,0,.02,0,.05.02.06.02.02.05.02.08,0,.3-.08.6-.18.91-.32.01,0,.02-.03.02-.04,0-.02,0-.04-.02-.06-.01-.01-.03-.02-.04-.02h0ZM14.52,9.48s0,0,0,0c0,0,0,0,0,0-.01.03,0,.06,0,.09,0,.01,0,.03-.01.04,0,.01-.02.02-.03.03,0,.01,0,.03,0,.05,0,.02,0,.04.01.05,0,0,.02,0,.02.02,0,.01,0,.03,0,.03-.01.02-.04,0-.06.01-.01,0-.02.02-.03.03,0,.01-.02.02-.02.03,0,0,0,.02,0,.03.01.01.03,0,.05,0,.01,0,.02.01.03.02.01,0,.02.01.03,0,.01,0,.01-.03.02-.04,0-.02.02-.03.03-.05,0-.02.01-.03.02-.05,0-.01.02-.02.02-.03,0-.03-.01-.06-.02-.09,0-.04-.01-.09-.03-.13,0-.01-.01-.03-.02-.04,0,0-.01,0-.02-.01h0ZM14.24,9.69s-.01,0-.01,0c-.01.01,0,.03,0,.05,0,.01,0,.03,0,.04,0,0,0,.02.02.02.01,0,.02-.01.03-.01,0,0,.02,0,.03,0,0,0,0,.02,0,.03,0,0,.01.02.02.01,0,0,0-.02.01-.03,0-.02.01-.05,0-.07,0,0,0-.03,0-.03,0,0-.01,0-.02.01,0,0-.01.01-.02,0,0,0-.01-.01-.02-.02,0,0,0-.02-.02-.02,0,0,0,0-.01,0h0ZM16.82,9.95h-.02s-.01.04-.01.04v.06s.06,0,.06,0c0,0,.02,0,.02-.01,0,0,0-.03,0-.03,0,0-.01-.03-.01-.03l-.03-.04ZM13.41,10.06s-.06,0-.09,0c0,0,0,0,0,0-.01.01,0,.03.02.04.02.01.05,0,.07,0,.01.01,0,.04.01.05.03.02.06,0,.1,0,.06,0,.16.04.19,0,0-.01,0-.03-.01-.04,0-.01-.01-.03-.02-.03-.02-.01-.05,0-.07,0-.03,0-.07,0-.1,0-.02,0-.04-.01-.06-.01,0,0-.01,0-.02,0h0ZM14.48,10.08s-.02,0-.02.01c0,.02.05.02.06.04,0,.01,0,.03,0,.04.01.02.04.01.06.01.1.01.23-.06.31,0,0,0,0,.03,0,.03.02.02.05.01.07.01.04,0,.09,0,.11-.04,0-.02-.01-.04-.03-.06-.01-.01-.02-.02-.04-.03-.04-.01-.09.02-.13.02-.08,0-.17.03-.24,0-.02,0-.02-.03-.03-.04-.02-.01-.04-.01-.07-.01-.01,0-.03,0-.05,0h0ZM14.06,10.08s-.08.03-.1,0c-.01,0-.04.01-.04.03,0,.01.02.02.03.03.03.01.07.01.1,0,.02,0,.05-.02.05-.04,0-.01-.02-.02-.03-.02,0,0-.01,0-.02,0ZM16.82,10.2s-.06,0-.09.01c-.03,0-.05.02-.08.02-.03,0-.05-.03-.07-.02-.02,0-.03.03-.03.04.02.05.11.01.17.02.06,0,.12.01.18.02.04,0,.08.02.12.03.06,0,.12,0,.18,0,.01,0,.03,0,.03,0,.02-.03.02-.08,0-.1-.04-.03-.1.02-.15.02-.05,0-.11-.01-.16-.02-.03,0-.05-.01-.08-.01,0,0,0,0-.01,0h0ZM15.39,10.54s-.03,0-.05,0c-.02.01-.03.04-.06.05-.04.01-.08,0-.11,0-.04,0-.08,0-.12,0-.03,0-.06,0-.08,0-.01,0-.03,0-.04,0,0,.02.02.04.04.05.02.02.04.03.06.04.05.02.11,0,.17,0,.04,0,.09,0,.13.02.02,0,.04.03.07.03.05.01.1,0,.16,0,.04,0,.08,0,.12,0,.04,0,.09,0,.13,0,.04,0,.07.03.1.03.04,0,.07,0,.11,0,.04,0,.07-.02.11-.03.04,0,.08,0,.12,0,.04,0,.07.02.11,0,.02,0,.04-.02.03-.04,0-.02-.04-.02-.06-.03-.05-.01-.1,0-.15-.01-.06,0-.12,0-.17,0-.03,0-.05-.02-.08-.03-.03,0-.06,0-.09,0-.03,0-.08.03-.1,0-.01,0,0-.03,0-.04,0,0,0-.02,0-.02-.04-.04-.11,0-.17,0-.03,0-.06-.02-.1-.02-.02,0-.03,0-.05,0h0ZM15.07,10.84s-.02,0-.04,0c-.03,0-.06,0-.1.01-.04,0-.07,0-.11,0-.03,0-.06,0-.07.03,0,.02,0,.03.02.04.02.01.04,0,.06.02.02.01.02.03.04.04.17.1.39.07.58.09.03,0,.06.01.1,0,.08,0,.16-.05.24-.07.05,0,.1-.01.15,0,.03,0,.06.02.1.02.03,0,.05,0,.08,0,.02,0,.04-.03.04-.04,0-.02-.02-.03-.04-.03-.02,0-.05,0-.06,0-.01,0,0-.03,0-.04-.01-.01-.03-.02-.05-.02-.02,0-.04.02-.07.02-.06,0-.12,0-.18-.02-.05-.01-.09-.04-.13-.05-.04,0-.09,0-.14,0-.05,0-.1,0-.14,0-.05,0-.09,0-.14-.01,0,0-.01,0-.02,0-.04,0-.07,0-.11,0h0ZM15.71,11.14s-.05,0-.08.01c-.02,0-.04.03-.06.04-.06.02-.12,0-.18,0-.07,0-.14,0-.21,0-.06,0-.12-.01-.17,0-.02,0-.06,0-.06.02,0,.01.01.03.02.03.03.02.09-.02.12,0,.01,0,0,.03,0,.04,0,.02.02.03.03.05,0,.01,0,.03.01.04.01.02.05.03.04.06,0,.01-.02,0-.03,0-.02,0-.03-.01-.05-.02-.08-.01-.16-.02-.24,0-.01,0-.04,0-.04.02,0,.02.01.03.03.04.02.01.06,0,.07.01,0,.01-.02.02-.02.03,0,.01-.02.02-.01.04,0,.02.03.03.04.03.02,0,.05-.01.07-.01.05,0,.1.02.15.04.03.01.06.04.09.05.03,0,.07,0,.1,0,.07,0,.15-.02.22-.02.01,0,.03,0,.04,0,.01.01.02.03.02.05,0,.02-.04.01-.04.03,0,0,0,.02,0,.03.05.05.14.03.21.03.04,0,.08,0,.1-.03,0-.01-.01-.04,0-.05.01-.02.04,0,.06,0,.02,0,.03-.03.05-.04.06-.03.14-.02.21-.02.06,0,.12.02.18,0,.05,0,.09-.03.13-.05.05-.02.11-.04.16-.08.02-.02.02-.05.03-.07-.04.01-.09-.01-.13-.02-.02,0-.05-.02-.07-.02-.02,0-.04,0-.07,0-.03,0-.05,0-.08,0-.02,0-.04,0-.07,0-.02,0-.04,0-.05,0-.01,0-.03,0-.04,0-.02.02,0,.07-.02.09-.02.02-.06,0-.09,0-.01,0-.02,0-.03,0-.01,0,0,.03-.01.03-.02.02-.05,0-.07.01-.03,0-.05.02-.08.02-.03,0-.07.01-.09,0,0-.01,0-.03,0-.04.02-.03.06-.03.08-.05.03-.03.1-.06.08-.09-.02-.04-.08,0-.13,0-.03,0-.07-.01-.1,0-.01,0-.02.02-.03.03-.03.01-.07.02-.1,0-.02,0-.04,0-.04-.02,0-.03.03-.05.05-.06.05-.04.12-.06.19-.08.02,0,.05,0,.06-.02,0-.01,0-.04-.01-.05-.04-.04-.1-.03-.15-.03h0ZM16.7,11.44s.02,0,.02-.01c-.01,0-.02,0-.02.01h0ZM16.3,12.03s-.01,0-.02,0c-.01,0-.03,0-.04,0-.02.01,0,.04-.01.06,0,0-.02.02-.03.02-.03,0-.06,0-.1,0-.02,0-.04,0-.07,0-.04,0-.07,0-.11,0-.03,0-.05-.02-.07-.02-.03,0-.06-.02-.09,0-.01.01-.02.04,0,.06.02.03.06.04.1.05.05.02.11,0,.17,0,.03,0,.06,0,.1,0,.06,0,.11,0,.17-.02.04,0,.08-.02.12-.03.03,0,.07,0,.1-.02.03-.01.06-.02.07-.04,0-.02,0-.04,0-.05-.04-.04-.11-.01-.16-.02-.04,0-.07,0-.11,0h0Z"/>
      <path class="cls-12" d="M12.4,9.26s0,0-.01,0c0,0-.01.01-.01.02,0,.01,0,0,0,.02,0,0,0,.02-.01.02,0,0-.01.02-.01.03,0,.02,0,.04.01.06,0,.02.01.04.01.06,0,0,0,.02,0,.03,0,0-.01-.01-.02-.02,0,0-.02,0-.03,0-.02.01,0,.04,0,.06,0,.03,0,.07,0,.1,0,0,0,.02,0,.03,0,0-.01,0-.01-.01-.02-.03-.01-.06-.02-.09,0-.02-.02-.04-.03-.06,0-.02-.02-.03-.03-.04-.01-.02-.02-.03-.03-.05,0-.02,0-.04-.01-.05-.01-.01-.03-.02-.04-.01-.01,0-.02.02-.02.03,0,.02,0,.04,0,.06,0,.02.01.04.02.06,0,.02,0,.03,0,.05,0,0,0,0-.01,0-.01,0-.01-.03-.03-.03,0,0-.02.01-.03,0,0,0,0-.02,0-.03,0-.02,0-.04-.01-.06,0-.02-.03-.03-.04-.03-.01,0-.03,0-.04.01,0,0,0,.02,0,.03,0,.03.02.06.04.09.01.02.02.05.04.07,0,0,.02.02.03.02.01,0,.02-.01.04-.01.01,0,.02,0,.03,0,.01,0,.02,0,.03,0,0,0,0-.03.01-.03.01,0,.01.02.02.03,0,.02,0,.04.01.06,0,0,.02,0,.03,0,0,0,.02,0,.03,0,0,.01,0,.03,0,.04,0,.01.02.02.03.02,0,0,.02,0,.02-.01,0,0,0-.03,0-.03,0,0,0,.02.01.02,0,0,.02,0,.03,0,.01,0,.01-.02.02-.04,0,0,0-.03.02-.03,0,0,0,.02.01.02.01,0,.03,0,.03,0,.02-.02.01-.04.01-.07,0-.01,0-.02,0-.03,0-.02.03-.03.04-.05.01-.03.02-.06.01-.1,0-.03-.02-.05-.03-.08-.01-.02-.03-.03-.05-.05,0-.01-.03,0-.02-.02,0-.01-.02-.02-.03-.02h0ZM13.95,9.32s0,0,0,0c-.01,0-.02.03-.02.04,0,.05,0,.1,0,.14,0,.02,0,.04.01.06,0,.02.02.04.03.06,0,.02.01.03.02.05,0,.02,0,.04.01.06,0,.02,0,.04.01.06,0,.02.01.04.03.05.01,0,.03,0,.04,0,.01,0,.02-.01.02-.03,0-.02,0-.04,0-.06,0-.03-.03-.05-.03-.08,0-.02,0-.05,0-.07,0-.01,0-.03,0-.04,0-.02-.03-.02-.05-.04,0-.01-.02-.03-.02-.05,0-.03,0-.06,0-.08,0,0,0-.02-.01-.03,0-.01,0-.02-.02-.03,0,0-.02-.02-.03-.02h0ZM13.26,9.33s0,0,0,0c0,0-.02,0-.03.01,0,.02.02.04.02.06,0,.01,0,.02,0,.03,0,.01-.02.01-.03.03,0,.01,0,.03,0,.05,0,.02.01.03.02.04,0,.02.01.04.02.07,0,.02,0,.04,0,.06,0,.01,0,.03.01.04,0,.02,0,.03,0,.05,0,.02,0,.03.02.04.02.02.04.02.06.03.02,0,.03.02.05,0,0,0,0-.02,0-.03,0-.02-.02-.04-.03-.06-.01-.02-.04-.04-.04-.06,0-.01.02-.02.02-.03,0-.01,0-.03,0-.04,0-.02-.02-.03-.03-.05,0-.02-.01-.04-.01-.06,0-.02,0-.04,0-.07,0-.02-.01-.05-.02-.07-.01-.02-.02-.04-.04-.05,0,0,0,0,0,0h0ZM14.34,9.35s0,0,0,0c-.01,0-.02,0-.03.02-.01.01-.01.03-.02.04,0,.02,0,.03,0,.05,0,.03,0,.06,0,.09,0,.03,0,.06.01.08,0,.01.02.03.04.03.01,0,.02-.01.03-.01,0,0,0,.02.01.03.01.03.02.06.03.09,0,.01.01.03.02.04,0,0,.02.01.04.01.01,0,.03,0,.04-.02,0-.01,0-.03,0-.04,0-.02-.03-.02-.04-.04,0-.01,0-.03,0-.05,0-.02,0-.03-.02-.05,0-.01-.02-.02-.02-.04,0-.02,0-.05,0-.07,0-.01,0-.03-.02-.04,0,0-.03,0-.04-.02,0,0-.02-.01-.03-.03,0-.01.02-.01.02-.02,0,0,0-.01,0-.02,0,0,0-.01,0-.01,0,0-.02-.01-.03-.01ZM16.13,9.38s0,0,0,0c0,0-.02,0-.02.02-.01.01-.02.03-.02.05,0,.02,0,.04.02.06,0,.02.01.03.02.05,0,.02.02.04.03.06,0,.02.02.04.02.06,0,.02,0,.04.01.07,0,.02,0,.04.01.06,0,.02.03.03.04.04.02.02.04.03.06.04.02,0,.03.01.05,0,.01,0,.03-.02.03-.03,0-.02,0-.03-.01-.05-.01-.03-.04-.05-.05-.07,0-.02,0-.04,0-.06,0-.01-.01-.02-.02-.03-.02-.01-.04,0-.06-.02-.02-.01-.03-.03-.03-.06,0-.01,0-.02.01-.03,0-.01,0-.03,0-.04,0-.01-.02-.02-.03-.03,0-.01,0-.03,0-.04,0,0,0-.02,0-.03,0,0,0,0,0,0,0,0-.02-.02-.04-.02ZM16.68,9.38s0,0,0,0c0,0,0,.03,0,.04,0,.02.02.03.03.05,0,.02,0,.04.01.05,0,.02,0,.04,0,.06,0,.02,0,.04,0,.06.01.02.04.02.05.04.02.01.03.03.04.04,0,.01.02.03.02.04,0,.02,0,.04,0,.07s0,.05,0,.07c0,.02,0,.04.02.05.01.01.03.02.05.01.01,0,.03,0,.03-.01,0-.01,0-.03,0-.04-.01-.02-.04-.04-.05-.06,0-.02,0-.04,0-.07,0-.02,0-.04,0-.06,0-.02-.03-.03-.04-.04s0-.04,0-.06c0-.02,0-.05-.01-.07,0-.01-.02-.02-.04-.03-.02,0-.04,0-.05-.02,0,0,0-.02-.01-.03,0-.01,0-.03,0-.04,0-.01,0-.02,0-.03,0,0-.01-.01-.02-.01,0,0-.02,0-.03,0,0,0-.01,0-.02,0h0ZM15.1,9.41s-.02,0-.02.02c0,0,0,.02,0,.03,0,0,0,.02,0,.02,0,0-.02,0-.02.02,0,.01,0,.03,0,.04,0,.03,0,.05.01.08,0,.03.01.06.02.08.01.03.03.05.04.08,0,.01.01.03.03.03,0,0,.02,0,.02-.01,0-.01,0-.03,0-.04,0-.02-.02-.04-.02-.06,0-.04,0-.09,0-.13,0-.02,0-.03-.01-.05,0-.02-.03-.04-.02-.05.01-.02,0-.05-.01-.06,0,0,0,0,0,0h0ZM13.07,9.42s0,0,0,0c-.02.01,0,.05,0,.07,0,.03.01.06.01.09,0,.04,0,.09.01.13,0,.03.01.06.03.08,0,0,.01.02.02.03.02,0,.04,0,.05-.01,0,0,0-.02,0-.03,0-.02-.02-.04-.03-.07,0-.02,0-.04,0-.06,0-.03-.01-.05-.02-.08,0-.03-.03-.05-.03-.08,0-.02,0-.04,0-.06,0,0-.02-.01-.02-.01h0ZM15.92,9.47s0,.04,0,.07c0,.02,0,.04.02.06,0,.02.03.03.04.04,0,0,.01.02.01.03,0,.02,0,.04,0,.06,0,.01,0,.03,0,.03,0,0-.02,0-.03.01-.01,0-.02.02-.02.04,0,.01,0,.02.02.03,0,0,.01,0,.02,0,0,0,.02,0,.03,0,0,0,0,.02,0,.02,0,0,.02,0,.02,0,0,0,.01-.02.01-.03,0-.02,0-.03,0-.05,0-.01-.02-.02-.02-.04,0-.03,0-.06,0-.09,0-.02-.01-.04-.02-.05-.01-.02-.03-.04-.04-.06,0-.02,0-.05-.01-.07,0-.01,0-.03,0-.04-.01,0-.03,0-.04.01h0ZM15.49,9.46s-.02,0-.03.02c0,0,0,.02-.01.03,0,.02,0,.04,0,.06,0,.01.02.02.02.04,0,.02,0,.04.01.06,0,.02,0,.04.01.05,0,.01.03.03.04.03,0,0,.02,0,.03,0,.01-.01.02-.03.01-.04,0-.02-.02-.03-.03-.05,0-.02-.02-.03-.02-.05,0-.02,0-.04,0-.07,0-.02,0-.03-.01-.05,0,0-.01-.02-.02-.02,0,0,0,0,0,0ZM15.63,9.46s-.02.02-.03.02c0,0-.02,0-.03,0-.01.01-.01.04,0,.06,0,.02,0,.03.02.05,0,0,.02,0,.03.01.01,0,.03.02.03.03,0,.02,0,.04,0,.06.01.02.04.03.06.03,0,0,.02,0,.02-.01,0-.02-.02-.04-.02-.07,0-.02,0-.05-.01-.07-.01-.02-.04-.02-.05-.04,0-.01,0-.03,0-.04,0-.01-.01-.02-.03-.02,0,0,0,0,0,0ZM13.85,9.47s-.01,0-.02,0c0,0-.01.01-.02.02,0,.02,0,.04,0,.06,0,.02,0,.04,0,.05,0,.03.02.06.04.08.01.02.03.04.05.04.01,0,.02,0,.03-.02.01-.01.02-.03.02-.05,0-.02,0-.04-.02-.06,0-.01-.03-.02-.04-.03,0-.01,0-.03,0-.05,0,0,0-.02-.01-.03,0-.01,0-.02-.02-.03,0,0,0,0-.01,0h0ZM16.99,9.48s-.02,0-.02.01c0,0,0,.01.01.02,0,.02,0,.04,0,.05,0,.02-.02.04,0,.06,0,.01.02.02.03.02,0,0,0,0,0-.01,0-.02,0-.04,0-.06,0-.02,0-.04,0-.06,0-.01-.02-.03-.03-.03,0,0,0,0,0,0h0ZM14.75,9.51s0,0,0,0c-.02,0-.03.02-.03.04,0,.02,0,.05,0,.08,0,.02.01.03.03.05.01.01.03.02.04.03,0,0,.01.03.02.03.01,0,.03,0,.04,0,0,0,.02,0,.03.01.01.01.02.03.03.04,0,0,.02.01.03.01,0,0,.01,0,.02-.01,0,0,.02-.01.03,0,0,0,0,.02.01.03,0,.02,0,.05.02.07,0,0,.02,0,.03,0,.02,0,.04,0,.04-.02,0-.01,0-.03,0-.05,0-.03-.03-.05-.05-.07-.02-.02-.03-.04-.06-.06-.01,0-.03-.02-.04-.02-.01,0-.03,0-.04,0-.01,0-.02-.02-.02-.03,0-.01-.01-.02-.03-.03-.01,0-.03,0-.05,0-.01,0-.02-.02-.02-.03,0-.01,0-.03,0-.04,0,0,0-.02-.01-.02,0,0,0,0-.01,0h0ZM15.27,9.56s0,0,0,0c0,0,0,.02,0,.03,0,.02,0,.05,0,.07,0,.02,0,.04,0,.06.01.03.03.05.05.08.02.03.04.06.07.09.02.02.03.05.05.05,0,0,.02,0,.02,0,.01-.01.02-.04.02-.06,0-.02-.02-.03-.03-.04-.01-.02-.02-.05-.03-.07,0-.02,0-.04-.01-.05,0-.01-.02-.02-.03-.02-.01,0-.03,0-.04,0,0,0,0-.02,0-.03,0,0,0-.02,0-.03,0,0,0-.02,0-.03,0-.01-.02,0-.03-.01-.01,0-.02-.02-.04-.02h0ZM17.02,9.68s0,0,0,0c0,0,0,0,0,0,0,.02.01.04.02.07,0,.01,0,.03.01.04,0,.02,0,.04,0,.06,0,.02-.02.04,0,.05,0,0,.02,0,.03,0,.02-.02,0-.05,0-.07,0-.03,0-.05-.01-.08,0-.02-.01-.04-.03-.06,0,0-.01-.02-.02-.02h0ZM16.28,10.09s-.02,0-.03.01c0,.02,0,.04,0,.06.01.02.04.03.06.04.01,0,.03,0,.04.02,0,0,.01.02.02.03,0,.01.01.03.02.04,0,.01,0,.03.02.04.01.01.03.01.05.01.01,0,.02-.01.03-.02,0,0,.01-.02.02-.03.01,0,.02,0,.04-.01.01,0,.02-.01.03-.03,0-.01,0-.03,0-.04,0-.01-.02-.02-.03-.02-.03-.01-.07.02-.1,0,0,0,0-.01,0-.02,0-.01,0-.03-.01-.04,0,0-.02-.01-.03-.01-.01,0-.02.01-.03.02,0,0-.02,0-.03,0,0,0-.02,0-.02,0,0,0,0-.02,0-.02-.01,0-.02-.02-.03-.02,0,0,0,0,0,0h0ZM16.31,10.11s0,0,0,0c0,0,0,0,0,0ZM14.36,10.09s0,0-.01,0c0,0-.01.01,0,.02,0,.01.03,0,.04,0,.01,0,.03,0,.03,0,0,0,0-.01-.01-.01,0,0,0,0-.01,0-.01,0-.02,0-.03,0ZM13.94,10.14s-.05,0-.07,0c-.02,0-.04,0-.05.01-.01,0-.04,0-.04.02,0,.01,0,.03,0,.04.02.01.04,0,.06,0,.02,0,.03,0,.05,0,0,0,.01,0,.01,0,.01,0,.02.02.03.03.01,0,.03,0,.04-.01.01,0,.02,0,.03,0,.01,0,.03,0,.04,0,.02,0,.03,0,.05,0,0,0,.02,0,.02-.01,0,0,0-.02,0-.02-.03-.02-.08.02-.1,0,0,0,0-.02,0-.02,0-.01,0-.02-.02-.03-.01,0-.03-.01-.05-.01h0ZM15.75,10.18s0,0,0,0c-.02,0-.04,0-.06.01-.01,0-.03,0-.04.01,0,0,0,.02.01.02.02,0,.03,0,.05,0,.02,0,.05,0,.07,0,.01,0,.02,0,.03,0,.02,0,.05.02.07.02,0,0,.02,0,.02,0,0,0,0-.02,0-.03-.02.01-.05-.03-.08-.03-.02,0-.05,0-.07,0h0ZM15.9,10.22s0,0,0,0c0,0,0,0,0,0ZM13.61,10.22s-.06.02-.1.03c-.03,0-.06,0-.09,0-.04,0-.08-.01-.12,0-.02,0-.05.01-.06.03,0,.01,0,.03.01.04.03.02.07.02.11.02.03,0,.05-.02.08-.03.02,0,.03-.02.05-.02.03,0,.07,0,.1,0,.03,0,.06,0,.08,0,0,0,.02,0,.02-.01,0-.03-.07-.02-.08-.05h0ZM16.78,10.26s-.03,0-.05,0c-.02,0-.04,0-.06,0-.02,0-.03.01-.04.03,0,.01,0,.03,0,.04,0,.02,0,.04.03.05.01,0,.03,0,.05,0,.01,0,.02-.02.03-.03,0,0,.01-.02.03-.02,0,0,.02.01.02.01.01,0,.03.02.04.02.01,0,.03,0,.04-.02,0-.01,0-.03,0-.04,0,0-.01-.02-.02-.02-.01,0-.03-.02-.05-.02,0,0-.01,0-.02,0h0ZM15.28,10.28s-.02,0-.03,0c-.01,0-.02.02-.03.03,0,0-.02,0-.03.01-.02,0-.05,0-.07,0-.01,0-.02.02-.03.03-.01,0-.02.02-.04.02,0,0-.01-.01-.02-.02,0-.01,0-.03-.01-.04-.02-.01-.05-.01-.06,0-.01,0-.01.03,0,.04,0,.03.03.06.05.07,0,0,.02.02.04.02.02,0,.03-.01.05-.02.01,0,.02-.02.04-.02.02,0,.04-.01.07,0,.01,0,.02.02.03.02.02.01.05.03.07.02.01,0,.02-.02.03-.03.01,0,.02-.01.04-.01.02,0,.04,0,.07,0,.02,0,.05.02.07.02.02,0,.04,0,.05-.01,0,0,0-.03,0-.04,0,0-.01-.01-.02-.02-.02-.02-.05,0-.08,0-.03,0-.06-.02-.08-.04-.02,0-.04-.02-.06-.02-.01,0-.02,0-.03,0h0ZM14.04,10.36s-.05.01-.07.01c-.02,0-.03,0-.05,0-.02,0-.04,0-.06,0-.02,0-.04.02-.04.04,0,.02.04,0,.06,0,.02,0,.05,0,.07,0,.02,0,.04.02.06.02.02,0,.04-.01.06-.02,0,0,.03-.01.02-.02,0-.02-.04-.02-.06-.03h0ZM15.43,10.57s0,0,0,0c-.02,0-.02.02-.03.03,0,0-.02.01-.02.01-.01,0-.02-.01-.04,0-.01,0-.02.01-.03.02,0,0-.02.01-.03.01,0,0-.02,0-.03-.01,0,0-.02-.01-.03-.01-.01,0-.02,0-.03.01,0,0,0,.01-.02.01-.01,0,0-.02-.02-.03-.01,0-.03,0-.04,0-.01,0-.01.02-.03.03,0,0-.02,0-.03,0-.01,0-.03,0-.03,0,0,0,0,.02-.01.03,0,0-.02.01-.03.01-.01,0-.02-.02-.03-.02-.01,0-.03-.01-.04-.01-.01,0-.02,0-.03.02,0,.02.02.04.04.06.02.02.04.03.06.03.02,0,.03-.01.05-.02.01,0,.03,0,.04,0,.02,0,.03.02.04.02.01,0,.02-.02.04-.03,0,0,.02,0,.03,0,.02,0,.04,0,.06,0,.02,0,.03.02.05.01.01,0,.01-.02.02-.03.01,0,.03,0,.04,0,.02,0,.04,0,.06-.01.01,0,.02-.02.03-.04,0-.01.01-.02.02-.03,0,0-.02-.05-.04-.05h0ZM16.41,10.65s-.02,0-.03,0c-.02,0-.04.02-.06.02-.02,0-.04,0-.05,0-.01,0-.03,0-.03.02,0,.02.03.01.04.01.02,0,.04,0,.05.01.01,0,0,.03.02.03.02.01.06.01.08,0,.01,0,.03-.02.03-.03,0-.01.01-.04,0-.05-.01-.01-.03-.02-.05-.02h0ZM15.71,10.67s-.03,0-.05,0c-.02,0-.04,0-.06.02,0,0-.01.02-.01.03,0,.02.03.04.04.05.02.01.03.03.05.03.02,0,.02-.03.04-.03.02,0,.04,0,.06,0,.01,0,.03.01.04.02.02,0,.04.01.06,0,0,0,.01-.01.02-.02,0-.01.01-.02,0-.03,0-.02-.03-.04-.06-.05-.02-.01-.05,0-.08-.01-.02,0-.03,0-.05,0h0ZM16.17,10.68s-.02.01-.03.01c-.01,0-.03,0-.04,0,0,0,0,.02.02.02.01,0,.03,0,.05,0,0,0,.02,0,.02-.02,0,0,0-.01,0-.02,0,0,0,0,0,0h0ZM16.57,10.82s-.03,0-.05.01c0,0-.02.02-.01.03.01.02.05,0,.07.01.02,0,.04.03.06.03.03,0,.05.01.08.02.02,0,.04,0,.06,0,.02,0,.03-.03.05-.04.04-.01.08,0,.12,0,.04,0,.08,0,.12,0,.02,0,.03,0,.05-.01,0,0,.01-.02.02-.02,0,0,.02-.01.02-.03-.03-.03-.08,0-.13,0-.05,0-.09,0-.14,0-.03,0-.06.02-.1.02-.03,0-.06,0-.09,0-.01,0-.02-.03-.03-.03-.01,0-.03,0-.05,0-.02,0-.03,0-.05,0h0ZM14.98,10.88s-.03.01-.04.02c0,0,0,.02-.02.02-.01,0-.02,0-.04,0-.01,0-.03,0-.03,0,0,.01,0,.03,0,.04.01.03.04.05.06.07.02.01.03.03.05.03.01,0,.03,0,.04-.01.01,0,.02-.01.04-.01.01,0,.02.02.02.03.02.02.03.05.06.06.02,0,.04.02.05.01.01,0,.01-.03.01-.04,0-.01,0-.03,0-.04,0,0,.01-.02.02-.02.02,0,.02.05.04.05.01,0,.03,0,.04-.01,0,0,0-.01.01-.01,0,0,.02,0,.02,0,0,0,0,.02.01.02.01,0,.03,0,.05-.01.01,0,.03-.02.04-.01.01,0,.02.02.03.02.01,0,.02,0,.03,0,.01,0,.02-.03.03-.03.03,0,.06.01.08.01.03,0,.06,0,.08-.01.03,0,.06-.02.09-.03.01,0,.02-.02.03-.02.02,0,.06.02.08,0,0,0,0-.01,0-.02,0-.02-.04-.02-.06-.03-.02,0-.05-.03-.07-.02-.01,0-.02.02-.03.03-.02.01-.03.03-.05.04-.01,0-.03.02-.04.02-.02,0-.03-.02-.05-.03-.01,0-.03,0-.04,0-.02,0-.03.02-.04.02-.02,0-.04-.01-.06-.03-.01,0-.01-.03-.02-.03-.02,0-.04.02-.06.01-.01,0-.02-.02-.03-.03,0,0-.01-.01-.02-.01-.02,0-.02.02-.04.03,0,0-.02,0-.03,0-.01,0,0-.03-.02-.04,0,0-.02-.02-.03-.02,0,0-.02,0-.02.01,0,0-.01.02-.02.01,0,0,0-.02-.01-.03,0,0,0-.02-.02-.02-.03,0-.04.05-.06.05-.02,0-.03-.02-.04-.03-.01-.01-.02-.04-.04-.04,0,0,0,0,0,0h0ZM16.04,10.99s-.03,0-.03.01c0,.01.02.03.03.03.02,0,.04,0,.06,0,.01,0,.02.01.03.01.01,0,.02,0,.03,0,0,0,.02-.01.02-.02,0,0,0-.02,0-.02-.02-.01-.05,0-.07,0-.01,0-.03-.01-.04-.01,0,0-.01,0-.02,0h0ZM15.89,11.13s-.02,0-.03,0c-.02,0-.03.02-.05.03-.01,0-.03.02-.04.03-.02.01-.04.03-.07.04-.02,0-.05-.01-.08,0-.01,0-.03,0-.03.02,0,.02.04.01.05.03,0,0,.01.01.01.02,0,.01-.02.02-.03.03-.01.01-.03.03-.03.04,0,.02.04.02.06.02.02,0,.02-.03.04-.04.01,0,.03.01.04,0,.01,0,0-.03.01-.04,0-.01,0-.03.02-.04.01-.01.03-.01.04-.03,0,0,0-.03.01-.03.02-.01.04,0,.07,0,.02,0,.05,0,.06-.01,0,0,.02-.02.01-.03-.01-.02-.04-.03-.07-.03h0ZM16.24,11.22s0,0,0,0c-.01,0-.01.03-.01.04,0,.01.02.03.01.04-.02.02-.05,0-.08,0-.01,0-.03,0-.04,0-.01,0-.03,0-.04.01-.02,0-.03.01-.05.02-.02.01-.04.02-.06.04-.02.01-.03.03-.05.04-.01,0-.02.02-.03.03-.02,0-.05,0-.07,0-.03,0-.07,0-.09.01,0,0-.01.01-.01.02.01.03.06.02.09.03.03,0,.05-.01.07-.01.02,0,.04,0,.06.01.03,0,.05.01.08.01.01,0,.03,0,.04-.01.02-.01.01-.04.02-.06,0-.02.02-.04.03-.05.02-.02.06-.02.09-.02.02,0,.04,0,.06,0,0,0,.02,0,.03-.01,0,0,0-.03.02-.04.02-.01.04,0,.06,0,.01,0,.02-.02.03-.03,0-.01,0-.03,0-.04-.01-.02-.04,0-.06-.01-.02,0-.04-.02-.06-.03,0,0-.02-.01-.03-.01h0ZM16.76,11.39s-.03.02-.04.02c-.02.01-.04.03-.06.03-.01,0-.02-.02-.04-.01-.02,0-.04.02-.06.03-.01.01-.02.03-.03.04,0,0-.02.02-.03.02-.02,0-.04-.02-.06-.02-.01,0-.02,0-.03.01-.01.01-.02.04-.01.06,0,.02,0,.04.02.05,0,.02.01.04.03.05,0,0,.02,0,.03,0,.02,0,.03-.03.04-.05.01,0,.02-.02.03-.02.03,0,.06,0,.09,0,.03,0,.06-.01.08-.03.02-.01.04-.04.05-.06.01-.02.02-.04.03-.06,0,0,0-.02,0-.03,0,0,0-.01,0-.02,0,0-.03,0-.04,0,0,0,0-.02-.02-.02,0,0,0,0,0,0h0ZM14.99,11.54s-.01,0-.02,0c0,0,0,.03,0,.04,0,.02.03.03.05.04.02,0,.05,0,.07,0,.02,0,.04,0,.06-.01.02,0,.05,0,.07,0,0,0,.02,0,.03.01.02.01.03.03.04.04.02.01.04.02.06.02.03,0,.05,0,.08-.01.01,0,.02-.02.04-.02.02,0,.04,0,.07,0,.02,0,.03.01.05,0,0,0,.02-.02,0-.03-.01-.02-.04,0-.06,0,0,0-.01-.02-.02-.02-.02,0-.05,0-.07.01-.03,0-.05.03-.08.03-.02,0-.05,0-.06-.01,0-.01,0-.03,0-.04,0,0,.01-.02,0-.03-.03-.03-.08,0-.12,0-.03,0-.07,0-.1,0-.02,0-.04-.02-.06-.02,0,0-.02,0-.03,0h0ZM16.22,11.56s0,0,0,0c-.01,0-.02.03-.03.04-.01.01-.03.02-.04.02-.02,0-.05.02-.08.02-.02,0-.04,0-.06,0-.01,0-.03-.01-.04,0,0,0-.01.02,0,.03.02.03.07,0,.11,0,.03,0,.07,0,.1,0,.04,0,.07,0,.11,0,.03,0,.06.01.1,0,0,0,.02,0,.02-.01,0,0,0-.02,0-.02,0,0,0,0,0-.01-.01-.02-.05,0-.07,0-.02,0-.03-.03-.05-.04,0,0-.02,0-.03,0h0ZM16.58,12.07s-.02,0-.04,0c-.02,0-.02.03-.04.03-.01,0-.03,0-.05.01-.01,0-.03.01-.03.02,0,0,.01.02.02.02.03.01.07,0,.11-.01.02,0,.05-.01.07-.02,0,0,.02-.01.03-.02,0-.01,0-.02-.01-.03,0,0-.01,0-.02,0-.01,0-.02,0-.04,0ZM16.24,12.16s-.03,0-.04,0c-.01,0-.03,0-.03,0,0,0,0,.02,0,.03.01.01.03,0,.05,0,.01,0,.03,0,.04-.01,0,0,0-.01,0-.02,0,0-.02,0-.03,0h0Z"/>
      <path class="cls-1" d="M12.79,5.23c-2.58,0-4.68,2.09-4.68,4.68,0,2.58,2.09,4.68,4.68,4.68h0c2.58,0,4.68-2.09,4.68-4.68h0c0-2.58-2.09-4.68-4.68-4.68ZM12.79,5.5c2.44,0,4.41,1.98,4.41,4.41,0,2.44-1.98,4.41-4.41,4.41h0c-2.44,0-4.41-1.98-4.41-4.41,0-2.44,1.98-4.41,4.41-4.41h0Z"/>
      <g>
        <path class="cls-5" d="M10.08,12.86s-.02,0-.03,0c-.01,0-.04,0-.04,0,0,.02.03.03.05.05.03.03.07.05.11.07.03.02.06.03.09.05.02.02.04.04.06.06,0,0,.02.02.02.03,0,.02,0,.05-.01.07-.02.04-.05.07-.08.1-.04.05-.08.09-.12.13-.02.02-.04.04-.07.05-.02.01-.07.05-.07.06,0,0,.01,0,.02.01.13.03.27,0,.4,0,.12,0,.24-.03.37-.03.05,0,.1,0,.15.01.07.01.13.04.2.06.08.02.17.05.25.06.12.03.25.05.38.06.11,0,.21,0,.32,0,.05,0,.15-.03.15-.03,0,0,0-.23,0-.35,0-.02,0-.05.02-.06.01-.02.03-.02.05-.03.02-.01.04-.02.06-.03.03,0,.06-.01.09-.02.05-.01.11-.01.16-.03.01,0,.03,0,.04-.02.01-.02,0-.05-.01-.07-.01-.02-.03-.03-.05-.04-.02,0-.05-.01-.07-.01-.05,0-.1,0-.15,0-.06,0-.12.01-.17.02-.09.01-.19.03-.28.04-.05,0-.11,0-.16,0-.07,0-.14,0-.21,0-.08,0-.15-.01-.23-.03-.08-.01-.15-.04-.23-.05-.1-.03-.21-.05-.31-.08-.06-.02-.12-.04-.19-.05-.06,0-.12,0-.18-.01-.07,0-.13,0-.2,0-.03,0-.07,0-.1,0h0ZM15.23,12.92s-.1,0-.14,0c-.07,0-.14.02-.22.04-.06.02-.13.04-.19.06-.06.02-.12.05-.18.07-.06.02-.12.04-.18.05-.07.01-.14.02-.2.02-.05,0-.11,0-.16,0-.05,0-.09,0-.14-.01-.07,0-.13-.02-.2-.03-.05,0-.1-.02-.15-.03-.06,0-.12-.01-.18-.02-.03,0-.07,0-.1,0-.07,0-.14,0-.21,0-.03,0-.06.01-.07.04,0,.02,0,.04.02.05.02.02.06.02.09.03.05,0,.09,0,.14.02.03,0,.06.02.09.03.02,0,.03.02.04.04.01.02.02.06.02.06v.33s.04.01.06.02c.06.02.12.02.18.03.07,0,.14.02.21.02.07,0,.13,0,.2,0,.08,0,.15,0,.23-.02.09-.01.18-.03.26-.04.06-.01.11-.03.17-.04.04,0,.08-.02.11-.02.04,0,.09-.01.13-.01.06,0,.11,0,.17,0,.09,0,.17.03.26.03.05,0,.09,0,.14,0,.04,0,.09.02.12,0,0,0,0-.01,0-.02-.01-.02-.04-.03-.06-.05-.04-.03-.09-.06-.13-.09-.04-.03-.07-.07-.11-.11-.02-.02-.05-.04-.07-.07,0-.01-.01-.03-.01-.04,0-.02,0-.03.02-.05.02-.03.05-.05.08-.07.04-.03.08-.06.12-.09.03-.02.07-.02.09-.04,0,0,.02-.01.01-.02,0-.02-.04-.02-.07-.02-.05-.01-.1-.02-.15-.02-.02,0-.03,0-.05,0h0ZM12.77,13.32c-.08,0-.17.03-.25.04-.08,0-.24.02-.24.02,0,0-.01.3,0,.44,0,.03,0,.05.01.08,0,.01,0,.03.01.04.01,0,.03,0,.05,0,.04,0,.08,0,.11,0,.05,0,.11-.02.16-.03.04,0,.08-.02.12-.03.03,0,.06,0,.09,0,.04,0,.08.01.12.02.05.01.11.02.16.03.03,0,.07.03.09.01.02,0,.02-.03.03-.04,0-.01,0-.03.01-.04.02-.16,0-.49,0-.49,0,0-.12,0-.18-.01-.1-.01-.2-.04-.3-.04h0Z"/>
        <g>
          <path class="cls-2" d="M10.87,13.12s-.03,0-.05,0c-.02,0-.03.01-.04.03-.01.01-.02.03-.03.04,0,.02-.01.05-.01.08,0,.05.01.09.04.12.03.03.07.05.11.05s.08,0,.11-.04c.03-.03.04-.07.04-.12s-.01-.09-.04-.12c-.03-.03-.07-.05-.11-.05,0,0-.01,0-.02,0ZM14.9,13.15h-.06s-.12.36-.12.36h.06s.01-.04.02-.06c0-.02.01-.03.02-.05l.12-.02.04.09h.06s-.12-.32-.12-.32ZM11.17,13.17v.33h.06s0-.13,0-.13h.08s.02.01.02.01c0,0,.01,0,.01.01,0,0,0,0,0,.01,0,0,0,.01,0,.01v.05s0,0,0,0c0,0,0,0,0,.01,0,0,0,0,0,.01,0,0,0,0,0,.01h.06s0-.01-.01-.02c0,0,0-.01,0-.02v-.05s0-.01,0-.02c0,0,0-.01,0-.02,0,0,0-.01-.01-.02,0,0-.01,0-.02-.01.02,0,.03-.02.03-.03,0-.01.01-.03.01-.04,0-.01,0-.02,0-.04,0-.01-.01-.02-.02-.03,0-.01-.02-.02-.03-.03-.01,0-.03-.01-.05-.01h-.14ZM10.89,13.18s.05.01.06.03c.02.02.02.05.02.08s0,.06-.02.08c-.02.02-.04.02-.06.02s-.05-.01-.06-.03c-.02-.02-.02-.05-.02-.08s0-.06.02-.08c.02-.02.04-.02.06-.02ZM14.72,13.19l-.27.06v.05l.11-.02v.28h.06v-.3l.1-.02v-.05ZM13.51,13.22v.33h.06s0-.13,0-.13h.08s.03,0,.05,0c.01,0,.02-.01.03-.02,0,0,.02-.02.02-.03,0-.01,0-.02,0-.04,0-.01,0-.02,0-.04,0-.01-.01-.02-.02-.03,0-.01-.02-.02-.03-.03-.01,0-.03-.01-.05-.01h-.13ZM11.23,13.23h.08s.01.01.02.01c0,0,.01,0,.02.01,0,0,0,.01.01.02,0,0,0,.01,0,.02s0,.01,0,.02c0,0,0,.01-.01.01,0,0-.01,0-.02,0,0,0-.01,0-.02,0h-.08v-.11ZM14.87,13.23l.04.11h-.08s.04-.11.04-.11ZM11.69,13.24s-.03,0-.05,0c-.01,0-.03.01-.04.03-.01.01-.02.03-.03.04,0,.02-.01.05-.01.08,0,.05.01.09.04.12.03.03.07.05.11.05.05,0,.08,0,.11-.03.03-.03.04-.07.04-.12s-.01-.09-.04-.12c-.03-.03-.07-.05-.11-.05,0,0-.01,0-.02,0h0ZM13.84,13.24v.33l.22.02v-.05l-.16-.02v-.28h-.06ZM14.25,13.26l-.12.33h.06s.01-.03.02-.05c0-.02.01-.03.02-.05h.12s.04.1.04.1h.06s-.12-.33-.12-.33h-.06ZM13.57,13.27h.06s.02.01.03.01c0,0,.01,0,.02.01,0,0,0,.01.01.02,0,0,0,.01,0,.02s0,.01,0,.02c0,0,0,.01-.01.02,0,0-.01,0-.02,0,0,0-.02,0-.03,0h-.06s0-.11,0-.11ZM11.71,13.29s.05.01.06.03c.02.02.02.05.02.08s0,.06-.02.08c-.02.02-.04.02-.06.02-.03,0-.05-.01-.06-.03-.02-.02-.02-.05-.02-.08s0-.06.02-.08c.02-.02.04-.02.06-.02ZM14.28,13.33l.04.12h-.08s.04-.12.04-.12ZM12.62,13.47l.12.2v.13h.06v-.13l.12-.2h-.06s-.08.15-.08.15l-.09-.15h-.06ZM12.39,13.65v.05h.12v-.05h-.12ZM13.03,13.65v.05h.12v-.05h-.12Z"/>
          <path class="cls-2" d="M12.74,13.81s0,0,0,0c0,0,0,0,0,0v-.13l-.12-.2s0,0,0-.01c0,0,0,0,0,0h.06s0,0,0,0l.08.13.07-.13s0,0,0,0h.06s0,0,0,0c0,0,0,0,0,.01l-.12.2v.13s0,0,0,0h-.06ZM12.64,13.48l.11.19s0,0,0,0v.12h.04v-.12s0,0,0,0l.11-.19h-.04s-.08.14-.08.14c0,0,0,0,0,0,0,0,0,0,0,0l-.08-.14h-.04ZM13.15,13.71h-.12s0,0,0,0v-.05s0,0,0,0c0,0,0,0,0,0h.12s0,0,0,0v.05s0,0,0,0ZM13.04,13.69h.1v-.03h-.1s0,.03,0,.03ZM12.51,13.71h-.12s0,0,0,0v-.05s0,0,0,0c0,0,0,0,0,0h.12s0,0,0,0v.05s0,0,0,0ZM12.4,13.69h.1v-.03h-.1s0,.03,0,.03ZM14.43,13.61h-.06s0,0,0,0l-.03-.09h-.11s-.01.03-.02.04c0,.02-.01.03-.02.05,0,0,0,0,0,0h-.06s0,0,0,0c0,0,0,0,0,0l.12-.33s0,0,0,0h.06s0,0,0,0l.12.33s0,0,0,0c0,0,0,0,0,0ZM14.38,13.59h.04l-.11-.31h-.05l-.11.31h.04s.01-.03.02-.04c0-.02.01-.03.02-.05,0,0,0,0,0,0h.12s0,0,0,0l.03.09ZM14.05,13.6s0,0,0,0l-.22-.02s0,0,0,0v-.33s0,0,0,0c0,0,0,0,0,0h.06s0,.01,0,.02v.27h.15s0,.02,0,.02v.05s0,0,0,0c0,0,0,0,0,0ZM13.85,13.56l.2.02v-.03h-.15s0-.02,0-.02v-.27h-.04s0,.31,0,.31ZM11.73,13.58s-.01,0-.02,0c-.05,0-.09-.02-.12-.06-.03-.03-.04-.08-.04-.13,0-.03,0-.06.02-.08,0-.02.02-.03.03-.04.01-.01.03-.02.04-.03.02,0,.03,0,.05,0,0,0,.01,0,.02,0,.05,0,.09.02.12.06.03.03.04.08.04.13s-.02.1-.04.12c-.03.02-.06.04-.1.04ZM11.69,13.25s-.03,0-.05,0c-.01,0-.03.01-.04.02-.01.01-.02.02-.03.04,0,.02-.01.05-.01.08,0,.05.01.09.04.12.03.03.06.05.11.05.04,0,.08,0,.1-.03.03-.02.04-.06.04-.11s-.01-.09-.04-.12c-.03-.03-.06-.05-.11-.05,0,0-.01,0-.02,0h0s0,0,0,0ZM13.57,13.57s0,0,0,0h-.06s0-.01,0-.02v-.33s0,0,0,0c0,0,0,0,0,0h.13s.03.02.05.03c.01,0,.03.02.04.03,0,.01.02.02.02.04,0,.01,0,.03,0,.04,0,.01,0,.03,0,.04,0,.01-.01.02-.02.03-.01,0-.02.02-.04.02-.01,0-.03,0-.05,0h-.06s0,.12,0,.12c0,0,0,0,0,0,0,0,0,0,0,0ZM13.52,13.54h.04s0-.12,0-.12c0,0,0,0,0,0,0,0,0,0,0,0h.08s.03,0,.04,0c.01,0,.02,0,.03-.02,0,0,.01-.02.02-.03,0-.01,0-.02,0-.03,0-.01,0-.02,0-.03,0-.01-.01-.02-.02-.03,0,0-.02-.02-.03-.02-.01,0-.03-.01-.04-.01h-.12s0,.3,0,.3ZM14.56,13.57s0,0,0,0c0,0,0,0,0,0v-.27l-.09.02s0,0,0,0c0,0,0,0,0,0v-.05s0,0,0,0l.27-.06s0,0,0,0c0,0,0,0,0,0v.05s0,0,0,0l-.1.02v.28s0,0,0,0h-.06s0,.01,0,.01ZM14.56,13.26s0,0,0,0c0,0,0,0,0,0v.27h.04v-.28s0,0,0,0l.1-.02v-.03l-.25.05v.03l.09-.02s0,0,0,0ZM11.43,13.54s0,0,0,0h-.06s0,0,0-.01c0,0,0,0,0-.01,0,0,0,0,0-.01,0,0,0,0,0-.01,0,0,0,0,0-.01v-.05s0,0,0-.01c0,0,0,0,0-.01,0,0,0,0-.01,0,0,0-.01,0-.02,0h-.07s0,.12,0,.12c0,0,0,0,0,0,0,0,0,0,0,0h-.06s0-.01,0-.02v-.33s0,0,0,0c0,0,0,0,0,0h.14s.03.02.05.03c.01,0,.03.02.04.03,0,.01.02.02.02.04,0,.01,0,.03,0,.04,0,.02,0,.03-.01.05,0,0-.01.02-.02.02,0,0,0,0,0,0,0,0,.01.01.01.02,0,0,0,.01,0,.02,0,0,0,.01,0,.02v.05s0,.01,0,.02c0,0,0,.02.01.02,0,0,0,0,0,.01,0,0,0,0,0,0ZM11.38,13.51h.04s0,0,0,0c0,0,0-.02,0-.02v-.05s0-.01,0-.02c0,0,0-.01,0-.02,0,0,0-.01-.01-.02,0,0,0,0-.02-.01,0,0,0,0,0,0s0,0,0,0c.01,0,.02-.02.03-.03,0-.01,0-.02,0-.03,0-.01,0-.02,0-.03,0-.01-.01-.02-.02-.03,0,0-.02-.02-.03-.02-.01,0-.03-.01-.04-.01h-.13s0,.3,0,.3h.04s0-.12,0-.12c0,0,0,0,0,0,0,0,0,0,0,0h.08s.02.01.03.02c0,0,.01,0,.02.01,0,0,0,.01,0,.02,0,0,0,.01,0,.02v.05s0,0,0,0c0,0,0,0,0,.01,0,0,0,0,0,.01,0,0,0,0,0,0ZM14.71,13.52s0,0,0,0c0,0,0,0,0,0l.12-.35s0,0,0,0h.06s0,0,.01,0l.12.31s0,0,0,0c0,0,0,0,0,0h-.06s0,0-.01,0l-.03-.08-.11.02s-.01.03-.02.05c0,.02-.01.03-.02.05,0,0,0,0,0,0h-.06s0,0,0,0ZM14.84,13.17l-.11.33h.04s.01-.04.02-.05c0-.02.01-.03.02-.05,0,0,0,0,0,0l.12-.02s0,0,.01,0l.03.08h.04s-.11-.3-.11-.3h-.05ZM11.72,13.52s0,0,0,0c-.03,0-.05-.01-.07-.04-.02-.02-.03-.05-.03-.09s0-.07.03-.09c.02-.02.04-.03.07-.03h0s.05.01.07.04c.02.02.03.05.03.09s0,.07-.03.09c-.02.02-.04.03-.06.03ZM11.7,13.3s-.04,0-.05.02c-.01.01-.02.04-.02.07s0,.06.02.08c.01.02.03.03.06.03.02,0,.04,0,.05-.02.01-.02.02-.04.02-.07s0-.06-.02-.08c-.01-.02-.03-.03-.06-.03h0s0,0,0,0ZM10.9,13.46s-.01,0-.02,0c-.05,0-.09-.02-.12-.05-.03-.03-.04-.08-.04-.13,0-.03,0-.06.02-.08,0-.02.02-.03.03-.04.01-.01.03-.02.04-.03.02,0,.03,0,.05,0,0,0,.01,0,.02,0,.05,0,.09.02.12.05.03.03.04.08.04.13s-.02.1-.04.12c-.03.03-.06.04-.1.04ZM10.87,13.13s0,0,0,0c-.02,0-.03,0-.05,0-.01,0-.03.01-.04.02-.01.01-.02.02-.03.04,0,.02-.01.05-.01.08,0,.05.01.09.04.12.03.03.06.04.11.05.04,0,.08,0,.1-.03.03-.02.04-.06.04-.11s-.01-.09-.04-.12c-.03-.03-.06-.04-.11-.05,0,0,0,0-.01,0ZM10.87,13.12h0,0ZM14.32,13.46h-.08s0,0,0,0c0,0,0,0,0,0l.04-.12s0,0,0,0h0s0,0,0,0l.04.12s0,0,0,0c0,0,0,0,0,0ZM14.25,13.44h.06l-.03-.08-.03.08ZM10.89,13.41s0,0,0,0c-.03,0-.05-.01-.07-.04-.02-.02-.03-.05-.03-.09s0-.07.03-.09c.02-.02.04-.03.07-.03h0s.05.01.07.03c.02.02.03.05.03.09s0,.07-.03.09c-.02.02-.04.03-.06.03ZM10.88,13.19s-.04,0-.05.02c-.01.01-.02.04-.02.07s0,.06.02.08c.01.02.03.03.06.03.02,0,.04,0,.05-.02.01-.02.02-.04.02-.07s0-.06-.02-.08c-.01-.02-.03-.03-.06-.03,0,0,0,0,0,0ZM13.64,13.4s0,0-.01,0h-.06s0-.01,0-.02v-.1s0,0,0,0c0,0,0,0,0,0h.06s.02.01.03.01c0,0,.02,0,.02.01,0,0,.01.01.01.02,0,0,0,.02,0,.02s0,.02,0,.02c0,0,0,.01-.01.02,0,0-.01,0-.02.01,0,0-.01,0-.02,0ZM13.58,13.37h.05s.02,0,.03,0c0,0,.01,0,.01,0,0,0,0,0,0-.01,0,0,0-.01,0-.02,0,0,0-.01,0-.02,0,0,0,0,0-.01,0,0,0,0-.02-.01,0,0-.01,0-.02,0h-.05s0,.08,0,.08ZM14.82,13.36s0,0,0,0c0,0,0,0,0,0l.04-.12s0,0,0,0c0,0,0,0,0,0l.04.11s0,0,0,0,0,0,0,0h-.08s0,.01,0,.01ZM14.87,13.26l-.03.08h.06s-.03-.08-.03-.08ZM11.32,13.35s0,0,0,0h-.08s0-.01,0-.02v-.1s0,0,0,0c0,0,0,0,0,0h.08s.02.01.02.02c0,0,.01,0,.02.01,0,0,0,.01.01.02,0,0,0,.02,0,.02s0,.02,0,.02c0,0,0,.01-.01.02,0,0-.01,0-.02.01,0,0-.01,0-.02,0ZM11.24,13.32h.08s.01,0,.02,0c0,0,0,0,.01,0,0,0,0,0,0-.01,0,0,0,0,0-.02s0-.01,0-.02c0,0,0,0,0-.01,0,0,0,0-.01-.01,0,0-.01,0-.02,0h-.07s0,.07,0,.07Z"/>
        </g>
      </g>
    </g>
  </g>
</svg>