<?xml version="1.0" encoding="UTF-8"?>
<svg id="Layer_2" data-name="Layer 2" xmlns="http://www.w3.org/2000/svg" viewBox="0 0 25.51 17.01">
  <defs>
    <style>
      .cls-1 {
        fill: #088542;
      }

      .cls-2 {
        fill: #1d439b;
        fill-rule: evenodd;
      }

      .cls-3 {
        fill: #233f94;
      }

      .cls-4 {
        fill: #faa31b;
      }

      .cls-5 {
        fill: #141414;
      }

      .cls-6 {
        fill: #fff;
      }
    </style>
  </defs>
  <g id="Layer_1-2" data-name="Layer 1">
    <g>
      <path class="cls-2" d="M0,0h25.51v17.01H0V0Z"/>
      <path class="cls-1" d="M7.77,8.43s-.07-.04-.11-.07c-.04-.03-.11-.12-.2-.23-.08-.11-.15-.16-.2-.2-.1-.06-.28-.11-.45-.11-.05,0-.06,0-.12.02-.05.01-.07.02-.11.04-.03.01-.03.02-.02.02.1.01.21.03.23.03.01,0,.03,0,.05,0,.14.03.26.06.34.09.04.02.09.04.1.06.02.02.02.03-.02.04-.02,0-.04,0-.04,0,0,0,0,0,.05.04.06.05.08.07.1.1.02.03.05.06.01.06-.01,0-.05-.02-.07-.02-.07,0-.09,0-.12-.02-.04-.02-.06-.03-.08-.03-.03,0-.03,0,.01.04.03.04.05.06.06.08.01.03.02.05,0,.05-.04-.01-.11-.04-.13-.06-.02-.01-.1-.09-.11-.1-.03-.04-.12-.11-.18-.15-.07-.04-.14-.07-.23-.08-.04,0-.11-.01-.12,0,0,0-.01,0,0,.02.06.02.13.06.2.14.04.04.06.06.08.1.03.04.04.07.04.09,0,0,.02.02-.01.02-.02,0-.06,0-.08,0-.03,0-.08-.03-.1-.04-.03-.02-.08-.07-.09-.09-.01-.02-.05-.06-.07-.08-.05-.04-.07-.06-.12-.07-.07-.02-.18-.01-.26.02-.04.02-.12.05-.19.07-.02,0-.03.01-.04.01,0,0-.04.01-.08.03-.04.01-.08.03-.1.04-.1.03-.25.09-.39.14-.14.06-.27.17-.39.28-.13.1-.18.18-.26.25-.08.08-.16.2-.16.2-.01,0,.02-.13.07-.25s.13-.25.12-.24c-.03.02.11-.12.34-.25.18-.1.42-.16.57-.21.13-.05.16-.05.22-.11.04-.04.07-.08.07-.12,0-.03.02-.09.03-.11,0-.01.02-.04.02-.05.01-.03.02-.07.05-.11.03-.05.1-.11.12-.11.02,0,.02.1,0,.18-.01.06-.03.12-.06.16,0,.01,0,0,0,0,0,0,.04-.04.06-.07.02-.03.06-.1.08-.14.02-.04.05-.13.06-.17.02-.08.04-.16.05-.19.02-.03.06-.08.07-.08,0,0,0,.01,0,.04,0,.02,0,.04,0,.05.01.03,0,.03.05-.02.04-.04.08-.07.09-.08.01,0,.02.01.02.06,0,.06,0,.08-.02.12,0,0,0,0,0,0,0,0,.02,0,.06-.04.03-.03.05-.02.04,0,0,.01-.01.03-.01.04-.01.07-.04.12-.1.17-.07.06-.09.08-.19.15-.05.04-.08.06-.11.09-.02.02-.03.03-.04.05-.01.02,0,.02,0,.02,0,0,.1-.02.14-.04.04-.02.08-.04.12-.07.07-.06.1-.08.17-.2.08-.14.1-.21.07-.31,0-.03-.03-.08-.05-.1-.08-.1-.11-.22-.1-.27,0-.02.03-.02.04,0,.01.03.06.08.08.08,0,0,0,0,0-.02,0-.04,0-.1,0-.11,0-.02,0-.02,0-.02.02,0,.07.05.09.08.01.02,0,.02,0,0,0-.01,0-.02,0-.02,0,0,0,0,0,0s0,.01.02.03c.04.08.05.16.05.24,0,.06,0,.1-.03.16-.02.05-.03.09-.07.14q-.03.05-.07.11c-.05.06-.06.07-.12.14-.02.02-.03.04-.03.04,0,0,.07,0,.11-.03.03-.02.08-.05.11-.08.04-.04.09-.1.11-.14.01-.02.04-.09.05-.12.02-.06.04-.12.04-.19,0-.07-.02-.13-.06-.21-.02-.05-.02-.05-.03-.09-.02-.06-.03-.16,0-.16,0,0,.02,0,.03.02.02.01.02.02.03.02,0,0,0,0,0-.03,0-.03,0-.04,0-.06,0-.01.01-.03.02-.04s.02-.02.02-.02c0,0,.03.01.06.05.02.04.03.04.03.04,0,0,.01,0,.04-.08.03-.07.05-.11.07-.11.01,0,.02.17.01.24,0,.04,0,.05-.04.15-.04.13-.06.2-.05.2s.05-.06.1-.14c.04-.07.05-.12.06-.16,0-.01,0-.06,0-.08-.03-.18-.03-.19-.03-.27,0-.06.01-.08.02-.09,0-.03.02-.01.05.05.02.03.04.11.05.14v.04s.01.04.02.05,0,.02,0,.02c0,0,0-.02.01-.05,0-.04,0-.12-.02-.19,0-.03-.02-.06-.03-.09,0,0,0-.03-.02-.04,0-.01-.02-.04-.02-.06-.02-.04,0-.04.03-.02.04.02.07.06.1.11.02.03.02.03.03.05,0,.01,0,.02,0,.02,0,0,.01-.02.02-.04.01-.04.02-.11.02-.23,0-.03,0-.03,0-.03,0,0,0,0,0,0,0,0,.01.02.01.06,0,.05,0,.11-.02.19-.07.32.08.04.12-.04.04-.07.11-.22.11-.24,0-.03,0-.06-.04-.12-.01-.02-.02-.02-.06-.1-.07-.13-.13-.27-.14-.32,0-.01,0-.02.01,0,0,0,.08.11.1.14.02.03.03.05.03.07-.02.02,0,.02,0,.02.02,0,.03,0,.05.03.03.04.04.05.05.05,0,0,0,0,0-.02,0-.03-.01-.11-.04-.17-.02-.05-.05-.12-.06-.13,0,0-.01-.02-.02-.05-.01-.02-.03-.05-.04-.06-.02-.02-.09-.09-.12-.12-.02-.02-.02-.02-.01-.03.04-.02.12.04.21.17.02.03.04.06.07.09.02.03.02.03.03-.03,0-.05,0-.06.02-.06,0,0,.01,0,.02,0,0,0,.02,0,.03,0,0,0,.03,0,.04,0,0,0,0,.03,0,.12,0,.1,0,.11,0,.11,0,0,0,0,.02-.01.02-.02.03-.04.06-.1.06-.15.12-.22.21-.27.02-.01.04-.02.08-.03.05-.01.05-.01.04.03,0,.03-.01.05-.02.08-.03.07-.06.14-.1.16-.01,0-.03.02-.05.02-.06.04-.07.11-.13.14,0,0-.01.02-.05.08-.03.05-.06.1-.07.15,0,.02-.02.03-.01.03,0,0,0,0,0,0,0,0,.02-.03.06-.08.04-.06.08-.1.13-.14.03-.03.08-.05.12-.06.03,0,.03,0,.04,0,.01.01.01.03,0,.04-.02.03-.03.06-.08.12-.05.06-.08.09-.18.19-.04.04-.07.07-.11.11-.04.04-.06.07-.14.2-.02.03-.05.07-.06.07,0,0,0,.05-.02.06-.12.06-.1.18-.17.28l-.02.04s-.05.1-.05.11c0,0,0,0,0,0s.02,0,.04,0c.05-.01.07-.01.08,0,.01,0,.02,0,.03,0,.01-.01.06-.03.07-.03,0,0,0,0,0,.01,0,0,0,.02,0,.03-.01.02-.03.02-.02.03,0,0,.02,0,.05,0,.05,0,.05,0,.05.01,0,.02,0,.05-.03.08-.02.01-.04.02-.02.02.03.01.06.02.06.03,0,0,.01,0-.02.01-.03,0-.06.01-.08.03-.05.05-.13.08-.25.08-.04,0-.06,0-.1.01-.03.01-.04.01-.08.06-.03.04-.07.1-.09.13-.01.01-.03.04-.04.06-.02.02-.03.05-.05.07-.04.05-.05.07-.05.08,0,0,0,0,.03,0,.05-.02.22-.1.27-.13,0,0,.02-.01.03-.02,0,0,.03-.02.04-.02s.03-.02.04-.03c.03-.02.02-.01.06-.04.03-.02.05-.04.1-.07.02-.01.03-.02.04-.03.02-.02.05-.03.07-.05.03-.03.06-.06.09-.08.02-.02.07-.09.07-.1,0,0,0-.03,0-.04,0-.04,0-.08-.03-.18-.02-.12-.01-.21,0-.27,0-.04.03-.07.05-.07.01,0,.04.06.04.1,0,.05,0,.09,0,.21,0,.09,0,.19,0,.2,0,0,.03-.01.04-.04,0-.02.01-.04.03-.1.03-.1.03-.11.08-.16.02-.02.04-.04.04-.04s.02-.02.03-.03c.03-.03.07-.08.09-.11.03-.06.02-.09,0-.18,0-.03,0-.07-.01-.08,0-.01,0-.02,0-.08,0-.05,0-.14.02-.17,0,0,.01,0,.02,0,.03.03.05.09.05.15,0,.03,0,.12,0,.15,0,.03,0,.04,0,.03,0,0,.02-.03.03-.06,0,0,.01-.03.02-.04,0-.01.02-.04.03-.06.01-.02.02-.05.03-.05,0,0,.01,0,.02-.01.01,0,.03,0,.04-.01.01,0,.02,0,.03,0,.02,0-.01.05-.05.11,0,.01-.02.04-.03.06-.01.03-.02.04-.02.05,0,0,.01,0,.03,0,.03,0,.02,0,.03,0,0,0,0,.01,0,.02.01.02.02.04,0,.05-.01,0-.03,0-.04,0-.01,0-.02,0-.01.01.01,0,.07-.01.13-.03.04-.01.09-.02.1-.02.01,0,.02,0,.02,0,0,0,0,.02,0,.02-.01.01-.05.04-.08.04h-.06s-.08.03-.12.03c-.04,0-.05,0-.08.02-.02.01-.03.02-.05.04-.02.03-.04.05-.07.07-.05.05-.08.08-.1.1-.04.05-.09.12-.09.16h0s0,.01,0,.01c0,0,.02,0,.03-.01.02-.01.02-.01.03-.03.02-.03.04-.05.07-.07.03-.02.07-.04.1-.04,0,0,.05,0,.06-.01.03,0,.06-.01.11-.02.02,0,.06,0,.09,0,.06,0,.08-.01.08,0,0,.01-.04.06-.1.08-.02,0-.05.02-.08.02-.02,0-.07.02-.08.03-.02,0-.05.01-.06.02-.04.02-.1.05-.13.07-.02.01-.03.02-.03.02,0,0,0,0,.02,0,.03-.01.12-.03.16-.04.05-.01.09-.02.13-.02.05,0,.08,0,.06.02-.02.03-.09.07-.18.09-.07.01-.18.04-.23.06,0,0-.04.01-.05.02-.01.01-.06.04-.1.07-.08.06-.09.07-.14.12-.04.04-.07.06-.07.07,0,.01,0,.02.02.01.06-.01.12-.04.19-.07.04-.02.07-.04.1-.07.04-.04.07-.05.11-.07.07-.03.14-.04.19-.05.03,0,.06,0,.06,0,.01,0,0,.03-.04.05-.04.02-.07.04-.07.04,0,0-.01.02,0,.02.02,0,.05.02.05.02,0,0,0,.02-.02.03-.02.01-.08.05-.09.05-.03-.04.02.01.04.01.05.01.09.04.09.05,0,0-.02,0-.05.02-.05.01-.06.02-.09.02-.02,0-.1,0-.16,0-.15,0-.2-.01-.28,0-.1.02-.18.04-.24.08-.03.02-.1.06-.1.06,0,0,0,.02.12.02.21,0,.24,0,.39-.04.08-.03.1-.03.13-.03.02,0,.04,0,.05,0,0,0,0,0-.02.03-.01.02-.03.04-.03.05s.02,0,.07.01c.04,0,.06.02.07.03,0,0,.01,0,0,.02-.03.02-.05.04-.04.05,0,0-.02,0,.06.02.03,0,.09.03.09.03.01,0,.04,0,.04.01-.01.03-.02.03-.04.04-.03,0-.06.02-.1.02-.03,0-.05.01-.09.01-.03,0-.06,0-.07,0s-.05,0-.07,0c-.01,0-.05,0-.07-.01s-.06-.01-.06-.01c-.01,0-.07-.02-.09-.03-.01,0-.06-.03-.08-.03-.05-.02-.08-.03-.14-.04-.12-.03-.18-.04-.21-.04-.02,0-.06,0-.08,0-.02,0-.06.02-.09.03-.04.01-.05.01-.05.02,0,0,0,0,.06,0,.09,0,.14.01.24.04.04.01.1.04.15.05.05.02.07.03.08.03,0,0,.04.01.06.02.04.01.06.03.1.05.01,0,.07.04.08.05.06.03.13.1.13.12,0,0-.01,0-.03.01-.06.02-.06,0-.04.03.02.02.04.05.09.08.06.04.08.05.08.05-.01.01-.05.02-.07.02-.02,0-.06-.01-.07-.01-.01,0-.03,0-.03.01,0,.01.01.05.04.09.01.02.04.06.03.06,0,0-.04,0-.05,0h0Z"/>
      <path class="cls-5" d="M6.39,9.15s-.03-.03-.04-.05c-.02-.02-.03-.04-.05-.06,0,0-.02-.02-.02-.03-.07-.1-.28-.31-.41-.41-.09-.07-.12-.09-.16-.12-.04-.02-.11-.07-.13-.07-.01,0-.02-.01-.03-.02-.05-.03-.13-.06-.14-.06-.02,0-.16.06-.26.12-.04.02-.14.09-.16.1-.01,0-.03.03-.07.05-.09.06-.27.24-.36.35-.06.07-.09.1-.1.13-.03.05-.05.07-.05.07,0,0,0,0,0-.04.01-.07.03-.14.06-.2,0,0,0-.01,0-.02,0-.01.04-.1.08-.16,0-.02.02-.04.03-.06s.02-.03.02-.04c.02-.02.14-.12.17-.14.02-.01.08-.05.11-.07.1-.06.16-.09.31-.14.01,0,.02,0,.02-.01,0,0,0-.01-.03-.02,0,0-.04-.01-.08-.03-.04-.01-.08-.03-.09-.03-.02,0-.07-.02-.17-.06-.12-.04-.15-.05-.22-.05-.04,0-.05,0-.08,0-.08.02-.14.06-.2.15-.05.07-.11.11-.21.14,0,0-.03,0-.04,0-.04,0-.04,0-.03-.03.02-.06.07-.13.14-.2.04-.04.08-.07.12-.09.02-.01.03-.02.03-.02,0,0-.03-.01-.09,0-.04,0-.1.02-.15.04-.06.03-.17.11-.23.17-.06.06-.13.12-.16.13-.02.01-.08.03-.11.04-.02,0-.02,0-.02,0,0,0,0,0,0-.02,0-.02.01-.04.05-.08.02-.02.03-.04.03-.04,0,0-.02,0-.06.01-.03.01-.06.02-.1.03-.07,0-.09.01-.11.02-.02,0-.02,0-.02,0,0-.03.03-.06.05-.09.02-.02.04-.04.08-.07.03-.02.03-.03.01-.03-.05-.01-.06-.02-.03-.05.02-.02.05-.04.11-.06.05-.02.14-.04.19-.06.03,0,.05-.01.06-.01.01,0,.03,0,.05,0,.02,0,.05,0,.07-.01.03,0,.06-.01.09-.01.14-.02.12-.02.12-.02,0-.01-.1-.04-.18-.05-.06,0-.2,0-.3.03-.05.01-.13.04-.16.05,0,0-.03.01-.04.02-.06.03-.12.09-.2.2-.05.07-.11.14-.13.16-.04.05-.12.1-.17.12-.02,0-.06.02-.07.02-.02,0-.01,0,.02-.06.01-.02.02-.04.03-.05.02-.04.02-.05,0-.05,0,0-.04,0-.07,0-.03,0-.04,0-.07,0-.03,0-.04-.01-.04-.02,0,0,0-.01.08-.05.04-.02.06-.04.07-.05.03-.03.03-.04,0-.04-.03,0-.04-.01-.04-.01,0,0,0,0,0-.01.02-.04.14-.13.26-.18.04-.02.08-.03.12-.05l.07-.03c.05-.02.12-.04.17-.06.07-.02.18-.04.22-.04,0,0,.01,0,.02,0,0,0,0-.01-.02-.02-.04-.01-.07-.02-.13-.02-.03,0-.15.02-.23.04-.08.02-.1.03-.12.04-.06.03-.17.06-.23.07h-.04c-.07.02-.22.02-.28,0-.06-.01-.11-.04-.13-.05-.01-.01-.01-.02,0-.02,0,0,.01,0,.01,0s.02,0,.04,0c.02,0,.05-.01.06-.02.07-.02.08-.02.08-.03,0,0-.01-.02-.04-.03-.01,0-.03-.02-.03-.02,0,0,.02-.02.04-.03.01,0,.03-.01.07-.01.02,0,.04,0,.04,0,0,0,0-.01-.02-.04-.02-.03-.03-.03-.01-.04,0,0,.04,0,.06,0,.02,0,.1.03.13.04,0,0,.02,0,.03.01s.03,0,.03.01c.02,0,.07.02.1.02.04,0,.18,0,.25,0,.08,0,.08,0,.03-.04-.04-.03-.07-.05-.1-.06-.08-.03-.14-.05-.24-.06-.05,0-.13,0-.29,0-.08,0-.11,0-.2-.03-.03-.01-.04-.02-.04-.02,0-.01.05-.04.09-.05.03,0,.03-.01,0-.03-.04-.02-.07-.06-.07-.08,0,0,0,0,.01,0,0,0,.01,0,.02,0,.02,0,.01-.02-.04-.05-.03-.02-.06-.04-.06-.05,0,0,0,0,0-.01.02-.02.09-.02.14,0,.05.01.1.03.15.06.04.02.06.04.1.07.02.01.04.03.05.04.03.02.09.05.13.06.04.02.1.03.1.03,0,0,0-.01-.02-.04-.06-.05-.12-.11-.2-.17-.02-.01-.03-.03-.05-.04-.02-.02-.03-.02-.07-.04-.06-.02-.12-.04-.2-.05-.05,0-.12-.03-.14-.04-.03-.02-.06-.04-.07-.06,0-.01,0-.01,0-.01.01,0,.11,0,.16,0,.06.01.08.02.11.03.03,0,.03,0,.03,0,0,0-.04-.02-.06-.03-.07-.03-.13-.05-.16-.06-.07-.02-.11-.04-.15-.06-.02-.01-.06-.05-.05-.05,0,0,.02,0,.05,0,.03,0,.07,0,.1,0,.08,0,.14.01.2.03.03,0,.09.03.12.06.02.02.05.05.06.07.01.02.02.03.03.03.02,0,.02,0,.03,0,0,0-.02-.06-.04-.1-.01-.02-.03-.05-.04-.05,0,0,0,0-.02,0-.01.01-.04.01-.05,0,0,0-.02-.02-.02-.03,0-.01,0-.02-.03-.02-.02,0-.04-.01-.06-.02-.01-.01-.02-.02-.03-.04v-.02s-.04,0-.04,0c-.03,0-.04,0-.05,0-.01,0-.02-.02-.02-.03,0-.02.02-.05.04-.07.01,0,.02-.01,0-.02,0,0-.09,0-.12-.01h-.02s0,.03,0,.03c0,.03,0,.03-.01.05-.02.03-.05.05-.07.03-.02-.01-.02-.02-.02-.05,0-.01,0-.03,0-.03,0,0,0,0-.01.01-.02.02-.04.04-.05.05-.03.02-.06,0-.06-.03,0-.03.02-.06.05-.09,0,0,.01-.02.01-.02,0,0-.01-.01-.02-.01,0,0,0,0-.01,0,0,0-.02.01-.03.02-.02,0-.02,0-.05,0-.04,0-.05,0-.06-.02,0-.01,0-.02,0-.04.01-.03.04-.04.09-.04.03,0,.03,0,.03-.02,0-.01,0-.03,0-.04,0-.01,0-.02-.02-.03-.02-.01-.07-.05-.1-.08-.04-.03-.12-.11-.14-.14-.05-.07-.09-.12-.07-.13,0,0,.06.01.08.02.06.03.1.05.18.11.01.01.03.03.04.04.01,0,.04.04.07.06.06.06.11.1.12.11,0,0,.01,0,.02,0,.03,0,.06,0,.07.04,0,0,0,.01.01.02.01,0,.03,0,.03,0,0,0,0-.01-.01-.04l-.05-.1s-.03-.07-.04-.07c0,0-.01,0-.03,0-.03.02-.06.02-.09.01-.01,0-.02-.02-.02-.04,0-.01.01-.04.02-.05.01-.01,0-.02-.02-.02-.04,0-.06-.02-.08-.04,0-.02-.01-.04,0-.06,0-.02,0-.02-.01-.03-.02,0-.08-.03-.1-.05,0,0-.03-.02-.05-.04-.02-.02-.04-.03-.05-.04-.05-.02-.05-.03,0-.04.05,0,.09,0,.12,0,.06,0,.08.01.13.04.01,0,.02,0,.03,0,0,0,0-.01-.02-.07-.01-.03-.03-.07-.03-.08s0-.03-.01-.04c0-.02-.01-.01-.03.01-.02.03-.04.05-.06.07-.02.01-.04.02-.05.02,0,0,0-.02.01-.04,0-.02.02-.03.02-.04,0,0,0,0,0,0,0,0-.02,0-.03,0-.02,0-.02,0-.03-.01,0,0-.01-.02-.02-.02,0,0,0-.01,0-.02s-.01,0-.02,0c-.02,0-.06,0-.08,0-.02-.01-.03-.05-.02-.08,0-.02.03-.04.05-.05h.02s0-.03,0-.03c0-.01,0-.02,0-.03,0-.02.02-.05.05-.06,0,0,.01,0,.01,0,0,0-.01-.02-.03-.04-.03-.03-.05-.05-.06-.06,0,0-.01-.02-.02-.03-.02-.03-.04-.07-.04-.08h0s.02,0,.02,0c.03,0,.08.02.12.04.04.02.07.04.11.08.04.04.05.04.05,0,0-.02,0-.05,0-.07,0-.02,0-.05,0-.07,0-.05-.01-.05-.03-.03,0,0-.02.02-.03.02-.02.02-.05.01-.06-.01,0-.02-.01-.03,0-.06,0-.02,0-.03,0-.03,0,0-.01,0-.02,0-.03,0-.05-.02-.06-.04-.03-.05,0-.09.06-.1.02,0,.02,0,.02-.02-.01-.03-.02-.07,0-.09.02-.03.06-.04.09-.03.02.01.03.02.04.04,0,0,.01.02.02.02s.01,0,.02,0c.03-.02.07-.03.09-.03.02,0,.02.02.02.04,0,.03-.01.07-.04.1,0,0,0,.01,0,.02s0,.01.02.02c.05.04.06.08.03.11-.02.01-.04.02-.07,0-.01,0-.02,0-.02,0,0,0,0,0,0,.06,0,.03,0,.07,0,.09,0,.05.01.06.03.02.03-.07.08-.16.12-.19.02-.02.03-.02.03-.02,0,0,0,.06,0,.09,0,.06-.01.09-.04.15-.01.02-.02.04-.02.04,0,0,0,0,.03,0,.03,0,.05,0,.06.01.03.02.02.07-.03.1,0,0-.01,0-.01.01s0,.01.01.02c.02.02.03.04.03.06,0,.02,0,.04-.01.05-.02.03-.08.03-.13,0,0,0-.01,0-.01,0s0,0,0,.03c.02.07.05.17.06.2.01.02.02.02.03-.04.03-.1.07-.17.11-.21.02-.02.03-.03.04-.03,0,0,0,.04,0,.07,0,.02-.02.14-.03.14,0,0,0,.01,0,.01,0,0,.01,0,.03-.03.01-.01.03-.02.03-.02,0,0,0,.01,0,.03,0,.04-.01.07-.05.13-.01.02-.01.03,0,.03.03,0,.06.04.05.07,0,.03-.03.07-.07.09-.01,0-.02.02-.02.02,0,0,.01,0,.03.01.03.01.05.02.06.04.02.02.02.03.02.05,0,.03,0,.04-.04.05,0,0-.02,0-.02,0,0,0,0,.03.05.1.02.04.03.06.04.06,0,0,0-.01,0-.02,0-.08.01-.16.03-.2.02-.05.03-.07.06-.09,0,0,.01,0,.01,0,0,0,.01.03.02.07,0,.06,0,.11-.01.24,0,.03,0,.03.02.02s.05,0,.07,0c0,0,.02.01.02.02h.01s.03,0,.03,0c.05,0,.08,0,.09.02.01.02,0,.05,0,.07,0,.01,0,.01,0,.03,0,0,0,.01,0,.03,0,.02,0,.02,0,.04-.01.03-.01.03,0,.04.02.01.02.02.02.04,0,.03-.03.05-.08.04-.02,0-.03,0-.03,0,0,0,.01.01.02.03.03.03.04.06.07.17.01.05.03.08.03.09,0,0,0,0,.01,0,0,0,0-.01,0-.06,0-.05,0-.09,0-.16,0-.02,0-.06,0-.09,0-.05,0-.06,0-.08,0-.03.02-.07.03-.09.01-.02.02-.03.03-.02.02,0,.04.04.05.07.01.03.01.13,0,.19,0,.02,0,.04,0,.07,0,.03,0,.05-.01.08,0,.06-.01.1,0,.13,0,.03.01.05.03.07,0,0,.02.02.02.03.02.03.13.13.19.17,0,0,.03.02.05.04.09.06.09.07.25.17.05.03.11.06.16.09.07.03.08.04.09.03,0,0,0-.02-.03-.05-.02-.02-.03-.04-.05-.06-.01-.02-.04-.06-.06-.08-.02-.03-.04-.05-.06-.08-.01-.02-.03-.04-.05-.07,0-.01-.05-.03-.08-.04-.02,0-.04,0-.08,0-.11,0-.16-.02-.22-.07-.03-.03-.04-.03-.07-.04-.04-.01-.05-.01-.06-.02-.01-.01,0-.02.03-.03,0,0,.02,0,.02-.01,0,0,0-.01-.01-.02-.02-.02-.03-.04-.03-.06,0-.03,0-.03.04-.02.02,0,.04,0,.04,0,0,0,0-.01,0-.02,0-.01-.02-.04-.02-.05,0,0,0-.01.01-.01.02,0,.05.01.09.04.01,0,.01,0,.03,0,.02,0,.03,0,.07,0,.03,0,.03,0,.02-.03-.02-.03-.04-.07-.04-.07,0,0,0,0-.01,0,0,0-.01,0-.03,0-.02,0-.02,0-.03,0-.01,0-.02-.02-.02-.04,0-.01,0-.02-.01-.02,0,0-.02,0-.03-.02,0-.01,0-.01-.03,0-.01,0-.01,0-.02,0-.01,0-.03-.02-.03-.04,0,0,0-.01.02-.03l.02-.02v-.02s0-.02,0-.03c0-.01,0-.01,0-.03,0-.01,0-.02,0-.03,0,0,0,0-.02-.03-.02-.02-.02-.05,0-.06.01-.01.01-.02,0-.04,0-.01-.03-.04-.04-.07-.08-.14-.08-.14-.18-.24-.17-.17-.18-.18-.24-.26-.05-.06-.08-.11-.08-.14v-.02s.02,0,.02,0c.03,0,.1.03.13.05.06.04.1.09.16.16.03.04.03.04.02,0-.01-.04-.03-.07-.06-.11-.03-.05-.05-.08-.05-.08,0,0-.01,0-.02,0-.04,0-.09-.02-.12-.05-.02-.03-.03-.04-.02-.08,0,0,0-.01-.02-.03-.04-.04-.07-.1-.1-.19,0-.02-.01-.07-.01-.08h0s.02,0,.02,0c.05,0,.11.03.15.06.03.02.06.06.09.09.03.04.08.14.1.19.01.04.04.08.06.08h0s0-.1,0-.1c0-.05,0-.1,0-.1,0,0,0,0-.02,0-.02,0-.04,0-.05,0-.02,0-.02-.02-.02-.04,0-.03,0-.03-.01-.03-.04-.02-.06-.05-.04-.09v-.02s0-.02,0-.02c-.01-.02-.01-.02-.01-.05,0-.03,0-.03,0-.04.01-.03.04-.04.07-.03.03,0,.03,0,.04,0,0-.01-.02-.03-.07-.05h-.04s-.07-.05-.09-.06c-.03-.02-.06-.04-.09-.07-.03-.03-.05-.05-.07-.08-.02-.03-.03-.06-.06-.08-.02-.02-.02-.03-.01-.03,0,0,.04,0,.05,0,.02,0,.1.05.15.08.02.02.05.03.05.03,0,0,0,0,0,0,0,0-.03-.03-.06-.06-.07-.06-.13-.13-.16-.17,0-.01-.01-.03-.01-.04,0-.02.1.03.18.1.05.05.14.13.15.14,0,0,.02.02.02.01,0,0,0-.02-.01-.02-.01,0,0-.01.03,0,.02,0,.02,0,.02,0,0,0,0,0,0-.03,0-.04-.03-.12-.03-.13,0,0,0,0-.03.03-.01.02-.02.03-.05.03-.02,0-.03,0-.04-.02,0,0,0-.01,0-.04,0-.02,0-.04,0-.05,0-.01,0-.02,0-.02,0,0-.02,0-.03,0-.03,0-.03,0-.04,0-.01,0-.02-.01-.02-.02,0-.01,0-.02,0-.04s0-.02,0-.04c.01-.02.03-.03.07-.03.02,0,.04,0,.04,0,0,0,0-.01,0-.03,0-.02-.01-.03-.01-.05,0-.03,0-.05.02-.06.03-.03.07-.03.1,0,.02.02.04.05.04.09,0,.01,0,.01.03,0,.03-.02.04-.03.06-.03.02,0,.05.01.06.03.01.02.01.04,0,.06,0,.02-.03.04-.05.05-.03.02-.03.02,0,.03.04.01.07.04.09.05.03.04.02.09-.03.1-.02,0-.04,0-.08-.02-.01,0-.03-.01-.03-.01,0,0,0,.02,0,.06,0,.03.01.09.02.13,0,.05.01.06.03.04,0,0,.01-.01.01-.01,0,0,.02.03.03.07,0,.01,0,.02,0,.02,0,0,.01,0,.03-.03,0,0,.02-.02.02-.03,0,0,.01-.02.01-.02,0,0,0,0-.01-.01-.03-.01-.04-.04-.04-.07,0-.04.03-.06.08-.06.01,0,.02,0,.02,0,0,0,0-.01,0-.03,0-.03,0-.05.02-.06,0,0,.03-.02.04-.02.02,0,.05.02.06.05,0,.02.01.02.03,0,.03-.03.05-.04.08-.03.03,0,.04.03.04.06,0,.02,0,.03-.03.05-.02.02-.02.02,0,.03.02.01.03.03.03.06,0,.04-.02.06-.05.07,0,0-.02,0-.03,0-.02,0-.03,0-.03.02,0,.03-.02.06-.03.07,0,0-.01,0-.03.01-.02,0-.04,0-.05-.02-.01-.02-.02-.03-.03-.06,0-.04,0-.04-.02-.04-.01,0-.05.05-.08.09-.01.02-.02.04-.02.04,0,0,0,0,.03.01.03,0,.05.01.07.03,0,.01,0,.02,0,.05,0,.01,0,.02,0,.02,0,0,0,0,.02.01.03.01.03.03.03.06,0,.02-.01.03-.02.04-.01,0-.04.01-.05.01,0,0-.02,0-.02,0,0,0,0,0,.01.01.02.02.02.03.02.05,0,.02,0,.03-.03.04-.01,0-.01,0-.03,0,0,0-.01,0-.02,0,0,0,0,0,0,0,0,0,0,0,0,.04,0,.06,0,.07.02.07,0,0,.04-.04.06-.07.04-.06.12-.15.16-.17.01,0,.04-.02.05-.02.01,0,.03,0,.04.02,0,0,0,.01,0,.01,0,0-.01.01-.02.02-.03.02-.04.03-.02.04.04.01.04.05,0,.07-.01,0-.01,0-.02.03,0,.03-.02.05-.05.05-.02,0-.02,0-.02.02,0,.02-.02.04-.04.04,0,0-.01,0-.02,0,0,0-.02,0-.02,0,0,0-.03.05-.06.11-.03.07-.05.15-.03.16,0,0,.01-.01.03-.03.02-.03.04-.04.05-.04,0,0,.01,0,.02-.03,0-.03.02-.05.08-.13.02-.03.05-.07.06-.08.01-.02.01-.02.02-.02.02.01,0,.09-.06.22-.03.06-.1.2-.13.25-.03.05-.05.08-.05.09,0,.02,0,.05.02.07,0,.01.01.03.02.04.01.03.09.18.11.22.04.07.07.12.08.12,0,0,0,0,0-.01,0-.01-.01-.09-.02-.11-.01-.05-.02-.11-.02-.17,0-.06,0-.06-.03-.04-.01,0-.02,0-.03,0-.02,0-.03,0-.04-.02-.01-.02-.01-.05,0-.08,0-.01,0-.02,0-.02,0,0,0,0,0,0,0,0-.03-.02-.03-.03-.02-.03,0-.05.02-.07.01,0,.02,0,.05,0,.02,0,.03,0,.03,0,0,0,0-.01,0-.03,0-.03,0-.05.02-.06.02-.02.05-.03.08-.01.02.01.03.04.03.08v.03s.02,0,.02,0c.02,0,.03,0,.04,0,.02,0,.02.02.03.04,0,.03-.01.05-.05.06,0,0-.02,0-.02,0,0,0,0,.01.01.02.03.03.03.04.03.07,0,.02-.02.03-.03.04-.02.01-.04,0-.07-.02-.03-.03-.03-.02-.02.04,0,.03,0,.07,0,.1,0,.07.02.08.03.06l.02-.04s.1-.11.13-.12c.02,0,.03,0,.03,0,0,0,0,.01-.01.03-.05.09-.09.22-.1.31,0,.03,0,.07,0,.08,0,0,0,0,.02-.04.01-.04.03-.11.05-.14.02-.04.05-.08.06-.08,0,0,0,0,.01.01.02.05.01.18-.02.36-.01.08-.01.1,0,.12.01.04.03.09.06.13.04.07.07.11.08.11s0,0,0-.04c0-.02,0-.04-.01-.04,0-.01,0-.03-.01-.04-.03-.08-.05-.16-.06-.18,0-.04,0-.09,0-.15,0-.05.01-.11.02-.12,0,0,.02,0,.03.02.01.02.03.04.04.09.02.04.03.07.03.08,0,0,.01,0,.03-.02.02-.03.04-.05.06-.06.02,0,.02,0,.03.02,0,.01,0,.03.01.04.01.03.02.04.02.07,0,.01,0,.02,0,.02,0,0,.01,0,.02,0,.02-.02.03-.02.04-.03.01,0,.02,0,.01.03,0,.02,0,.04,0,.06,0,.07-.02.12-.04.17-.04.07-.05.12-.06.18,0,.03,0,.04,0,.08,0,.05.02.09.03.12,0,.02.05.1.06.13.01.02.05.08.08.1.06.07.12.12.18.13.04.01.04,0,0-.04-.07-.08-.14-.18-.19-.26-.03-.05-.03-.07-.05-.12-.02-.06-.02-.09-.02-.16s0-.11.03-.17c.02-.06.05-.13.06-.14,0,0,.01,0,.01.02,0,.02,0,.02.02,0,.03-.03.07-.06.08-.05,0,0,0,0,0,.02-.01.03-.01.04,0,.08,0,.04,0,.05.01.06,0,0,.01,0,.03-.02.03-.02.04-.05.05-.07,0-.02,0-.02.02-.01.02.01.04.04.03.08,0,.03-.01.06-.03.1-.03.06-.03.07-.08.14-.06.08-.08.17-.05.25.01.04.04.1.06.14.1.15.1.15.19.23.05.04.13.08.21.09.02,0,.03,0,.03,0,0,0,0,0,0-.01,0-.01-.03-.04-.05-.05-.01,0-.02-.02-.03-.03-.02-.02-.06-.05-.12-.09-.06-.04-.08-.06-.14-.12-.06-.06-.08-.1-.1-.16,0-.02-.01-.04-.02-.05-.01-.03-.01-.03,0-.03.01,0,.03,0,.07.03,0,0,.01.01.02.01,0,0,0,0,0-.02,0-.03,0-.07,0-.09,0-.01,0-.03,0-.04,0-.02,0-.03,0-.03,0,0,0,0,.01,0,0,0,.06.05.1.09.03.03.04.03.04.01,0-.01,0-.02,0-.05t.02-.03s.06.06.08.1c.02.04.02.07.05.16.02.08.04.15.06.2.02.05.07.12.09.14,0,0,.01.01.01,0,0,0,0-.01,0-.03-.03-.09-.05-.17-.04-.23,0-.04,0-.05.02-.05.01,0,.05.03.07.05.01.01.03.03.04.05.02.04.06.1.07.13.01.04.04.12.04.15,0,.04.04.09.08.13.05.05.08.06.21.1.1.03.09.03.13.02.01,0,.04-.01.05-.02.08-.02.13-.04.15-.05.02-.01.07-.05.09-.07.03-.03.05-.07.06-.1,0-.04.03-.1.05-.16.01-.04.05-.11.08-.14.02-.03.06-.06.08-.07h.02s0,0,0,0c0,.01.01.03.01.07,0,.03,0,.05,0,.08,0,.04-.03.13-.04.14,0,0,0,.02,0,.02s.03-.03.04-.05c.03-.05.07-.14.09-.18,0,0,0-.02.01-.03s.01-.05.02-.09c0-.03.01-.05.02-.08,0,0,0-.02.01-.04.02-.06.04-.1.07-.13.02-.02.03-.03.04-.02,0,0,0,.02,0,.04,0,.04,0,.06.01.06,0,0,.01,0,.08-.07.04-.04.06-.05.07-.05,0,0,0,.01,0,.03,0,.02,0,.04,0,.07,0,.03,0,.04,0,.06,0,.04,0,.04.03.01.02-.02.04-.03.05-.03s.02,0,0,.03c0,.01-.01.04-.02.06-.01.06-.03.1-.09.15-.04.05-.07.07-.17.14-.01.01-.03.02-.04.03l-.05.04c-.06.05-.1.09-.09.1,0,0,.01,0,.04,0,.1-.02.19-.07.27-.15.03-.03.08-.1.13-.19.02-.03.03-.06.04-.1.01-.03.01-.04.01-.07,0-.05,0-.09-.03-.14,0-.02-.02-.03-.03-.05-.05-.08-.07-.11-.09-.17-.02-.07-.02-.12.01-.14.01,0,.01,0,.02.02,0,.02.02.05.04.06.03.03.04.03.05.02,0,0,0-.03,0-.05v-.05s0-.02,0-.02c-.01-.03,0-.03.01-.03.02,0,.04.02.06.04.01.01.02.02.03.02,0,0,0,0,0-.01,0-.02,0-.02,0-.02.01,0,.05.1.07.17,0,.03.02.11.02.14,0,.07-.02.15-.05.22-.04.1-.12.21-.22.32-.04.04-.03.05.02.03.07-.03.13-.07.19-.15.03-.04.06-.09.09-.14.03-.06.04-.08.05-.14,0-.04,0-.05,0-.1,0-.05,0-.06,0-.08-.01-.04-.02-.07-.04-.12-.04-.07-.04-.09-.05-.24,0-.03,0-.03,0-.04,0,0,.03,0,.05.02.03.03.03.02.03-.02,0-.02,0-.03.01-.05,0-.01.01-.03.02-.04,0,0,0-.02,0-.02,0,0,.03,0,.05.02,0,0,.02.02.03.04.02.03.03.04.03.02,0,0,.01-.03.02-.05.03-.07.06-.12.07-.12,0,0,.01,0,.01.04,0,.09.01.16,0,.22,0,.03,0,.04-.03.11-.03.09-.06.18-.06.2,0,0,0,0,0,0,0,0,.01,0,.04-.06.01-.02.06-.1.06-.1,0,0,0-.01.01-.02.02-.05.03-.08.02-.11-.03-.17-.03-.22-.04-.31,0-.07,0-.13.02-.13.01,0,.04.04.06.08.02.05.04.12.05.18,0,0,0,0,.01,0,0,0,0-.02,0-.04,0-.06-.02-.13-.05-.22,0-.03-.02-.06-.02-.07s-.01-.03-.03-.06c-.02-.04-.02-.05,0-.05.02,0,.06.02.09.06.02.02.05.06.08.11,0,0,.01.01.01,0,0,0,.02-.12.02-.19,0-.04,0-.04-.02-.02-.03.03-.05.03-.07.02-.02-.01-.03-.03-.03-.05,0-.01,0-.02,0-.03,0,0,.01-.02.02-.03.02-.02.02-.02,0-.03-.04,0-.06-.03-.06-.06,0-.02,0-.03.02-.04.01,0,.02,0,.04,0,.02,0,.02,0,.03,0,0,0,0-.02,0-.03,0-.03,0-.03,0-.04.01-.02.03-.04.06-.03.04,0,.07.03.07.09,0,.02,0,.03,0,.03,0,0,.02,0,.03,0,.02,0,.03,0,.04,0,.05.02.05.07,0,.1,0,0-.01,0-.01,0s0,0,.01.02c.03.05.02.1-.03.11-.01,0-.02,0-.03,0-.03-.02-.03-.02-.03.04,0,.03,0,.06,0,.07,0,.04-.02.1-.02.14,0,.02,0,.05,0,.06,0,.02,0,.02,0,.02,0,0,.02,0,.04-.04.03-.05.07-.12.11-.18.01-.02.02-.04.02-.04,0,0,.06-.13.07-.14,0,0,0-.02,0-.04v-.02s-.03-.06-.03-.06c-.02-.03-.04-.07-.04-.07-.02-.03-.09-.18-.11-.21-.04-.1-.05-.13-.05-.16,0-.01,0-.02,0-.03,0,0,.01,0,.02,0,0,0,0,.02.02.03,0,.01.02.02.02.03,0,0,.02.03.04.05.04.05.06.08.07.11,0,.01,0,.03,0,.03s0,0,.01,0c.01,0,.03.02.04.04.03.04.04.04.03.01,0-.03-.03-.12-.05-.16-.02-.04-.04-.08-.04-.09,0,0,0,0-.02,0-.02,0-.03,0-.04,0-.01,0-.02-.03-.02-.04,0,0,0-.02-.02-.02,0,0-.01,0-.02,0-.02,0-.02-.02-.03-.05,0-.02,0-.02-.02-.03-.03-.01-.04-.04-.02-.05,0,0,.01,0,.02-.01,0,0,.02,0,.02,0,0,0-.01-.02-.04-.03-.02-.01-.02-.02,0-.03.02-.02.04-.02.06-.01.05.02.12.09.19.19.05.07.06.07.06.06,0,0,0-.03,0-.05,0-.05,0-.06-.01-.05,0,0-.02,0-.02,0-.03,0-.04,0-.05-.04,0-.02,0-.04.02-.05.02-.02.02-.02-.01-.02-.03,0-.04,0-.05-.02-.01-.01-.02-.04-.02-.06,0-.02,0-.03.03-.04.02-.01.02-.01.02-.04,0-.03,0-.04,0-.05.01-.01.03-.02.06-.02.02,0,.03,0,.03,0,0,0-.04-.08-.07-.11-.01-.02-.03-.03-.04-.03s0,0-.01.03c0,.03-.02.05-.03.06,0,0-.02.01-.03.02-.02,0-.02,0-.03,0,0,0-.02,0-.02,0,0,0-.03-.04-.03-.06,0-.03,0-.03-.03-.03-.03,0-.05,0-.06-.03-.02-.02-.02-.06,0-.08,0-.01.02-.02.03-.03,0,0,0-.01-.01-.03-.02-.02-.02-.03-.02-.05,0-.06.08-.08.13-.03,0,0,.01.01.02.01,0,0,0,0,.01-.02,0-.02.02-.04.04-.05.02-.01.05,0,.07.02,0,.01.02.04.01.06,0,0,0,0,0,.01,0,0,0,0,.02,0,.04,0,.08.02.08.06,0,.03,0,.05-.04.06-.02,0-.02.02,0,.03,0,0,.02.02.03.04.02.02.02.03.03.01v-.03s.02-.05.03-.05c0,0,0,0,.01.01.01.02.02.01.02-.01,0-.03.02-.13.02-.17,0-.03,0-.04,0-.04s0,0-.03,0c-.05.02-.09.02-.11,0-.01-.01-.02-.03-.01-.05,0-.01,0-.02.02-.03.02-.02.03-.03.08-.05.02,0,.02-.01,0-.03-.04-.02-.07-.07-.06-.1,0-.02.04-.04.07-.04.02,0,.05.02.06.04.02.02.02.02.03,0,0-.04.02-.07.04-.08.03-.03.09-.02.11.02,0,.02,0,.02,0,.04,0,.02,0,.03-.01.05,0,.01,0,.03,0,.03,0,0,.01,0,.03,0,.05,0,.07.01.08.04,0,.02.01.03,0,.05,0,.03-.04.05-.08.05-.03,0-.03,0-.02.03,0,.02.01.06,0,.07-.01.03-.05.04-.08.02,0,0-.01-.02-.02-.03-.01-.02-.02-.02-.02-.01,0,.01-.03.13-.03.15,0,.02,0,.02.03.01.03,0,.03,0,.02,0,0,.01-.01.02,0,.02,0,0,0,0,0,0,.01-.02.1-.11.16-.15.05-.04.06-.05.09-.07.05-.03.08-.04.09-.03,0,.03-.06.1-.21.24-.02.02-.02.02-.02.02,0,0,.03-.02.06-.04.08-.05.12-.07.17-.08.03,0,.03,0,.01.03-.02.02-.03.04-.06.09-.03.04-.09.11-.12.13-.04.03-.1.06-.15.08-.03,0-.06.03-.07.04,0,0,0,.02,0,.02,0,0,.01,0,.02,0,.02,0,.04,0,.05,0,0,0,.01.01.02.02.02.03.01.07,0,.1,0,.01,0,.02,0,.03.02.03,0,.06-.02.07,0,0-.02.01-.02.01,0,0-.02,0-.02.01.01.03,0,.05-.02.06-.01,0-.02,0-.04,0h-.02s0,0,0,0c0,0,0,.05,0,.1,0,.08,0,.09,0,.1,0,0,0,0,.01,0,0,0,.03-.03.04-.05,0,0,.01-.02.02-.04.03-.08.04-.09.07-.15.02-.04.03-.05.06-.08.04-.04.11-.08.14-.09.03,0,.06-.01.07,0,0,0,0,.03,0,.06-.02.08-.07.19-.12.23,0,0-.01.01,0,.03,0,.01,0,.02,0,.04-.02.03-.05.06-.09.07-.01,0-.03,0-.04,0-.02,0-.02,0-.03,0,0,0-.07.1-.08.13-.01.03-.03.08-.03.08s0,0,0,0c0,0,.02-.02.03-.04.06-.09.13-.15.2-.18.03-.01.07-.03.09-.02,0,0,.01,0,.01.01,0,.02-.03.08-.06.13-.01.01-.02.03-.03.04-.02.03-.16.18-.23.25-.03.03-.08.08-.1.11-.02.02-.03.04-.06.09-.01.02-.03.04-.04.06-.03.04-.04.07-.04.08,0,0,0,0,.01.01.01.01.02.02.01.04,0,0-.02.02-.03.03,0,0,0,0,0,.02,0,.01,0,.02,0,.03,0,0,0,.02,0,.03,0,0,0,.01,0,.03v.02s0,0,0,0c.02.02.02.04,0,.06-.01.01-.02.01-.04,0h-.02s0,0,0,0c0,.01-.02.03-.03.03-.01,0-.02,0-.02.02,0,0,0,.02,0,.02,0,0,0,.01-.02.02-.03,0-.04,0-.06,0,0,0,0,0-.01,0,0,0-.03.04-.05.07-.01.02-.01.03,0,.04,0,0,.01,0,.03,0,.02,0,.03,0,.06,0,.03,0,.03,0,.04,0,.03-.02.07-.04.09-.04h.01s0,.02,0,.02c0,.01,0,.02-.01.03-.01.02-.01.03,0,.03,0,0,.04,0,.06,0,.01,0,.02,0,.02.02,0,.02,0,.02,0,.04,0,.01-.01.03-.02.03,0,0-.01.02-.01.02,0,0,0,0,.01,0,.04.02.05.02.04.03,0,.01-.02.02-.05.02-.04,0-.05.01-.07.03-.04.03-.07.05-.13.06-.02,0-.04,0-.1,0-.07,0-.09,0-.13.02-.03.01-.03.02-.06.06-.02.03-.05.07-.15.21-.05.07-.06.09-.06.09,0,0,.01,0,.03,0l.05-.02c.06-.03.12-.06.16-.08.05-.03.06-.04.09-.06.02-.01.04-.03.05-.03.02-.01.09-.06.12-.08.01,0,.03-.02.04-.03.09-.06.17-.14.22-.2.03-.04.04-.05.04-.09,0-.03,0-.07-.01-.16-.04-.22-.03-.32.02-.37.02-.02.02-.02.03-.01.01.01.04.08.05.12,0,.05,0,.08,0,.22,0,.08,0,.16,0,.17,0,0,0,0,0,0,0,0,.02-.04.04-.1.01-.04.03-.1.04-.12,0-.01.02-.03.03-.04.02-.03.02-.03,0-.03-.05,0-.07,0-.08-.02-.01-.02,0-.04.02-.06h0s0-.03,0-.03c-.01-.04-.01-.05,0-.08,0,0,0-.02,0-.02s0,0,0-.02c-.01-.02-.01-.05,0-.06.01-.02.04-.03.09-.02.04,0,.04,0,.05,0,.02-.02.03-.02.06-.02.02,0,.03,0,.04,0,.01,0,.01,0,.02,0,0,0,0,0,0-.05-.01-.07-.01-.08-.01-.12,0-.05,0-.1.01-.15.01-.04.01-.04.03-.03.03.02.05.08.06.15,0,.02,0,.06,0,.1,0,.06,0,.07,0,.07,0,0,0,0,0,0,.03-.06.08-.15.08-.15,0,0,0,0-.02-.01-.02,0-.03-.01-.04-.03-.01-.04.01-.08.06-.1.01,0,.02-.01.03-.01,0,0,.02-.01.02-.01,0,0,0,0-.02-.02-.04-.03-.07-.07-.08-.1,0-.03.02-.05.05-.06.02,0,.02,0,0-.03-.03-.04-.05-.09-.05-.13,0-.02,0-.03,0-.03,0,0,.01,0,.03.02.02.02.03.03.03.02,0,0,0,0,0-.01,0,0,0-.03,0-.05-.01-.06-.02-.08-.02-.11,0-.03,0-.04,0-.04s.03.01.04.03c.04.04.08.13.11.22.01.04.02.05.04,0,.02-.04.02-.06.05-.17,0-.04,0-.04,0-.04,0,0,0,0-.02,0-.03.01-.08.02-.1,0-.02,0-.03-.01-.04-.03,0-.02,0-.02,0-.04,0-.02,0-.04.03-.06,0,0,.01-.01.01-.02s0,0-.01-.01c0,0-.02-.01-.03-.02-.03-.03-.02-.06.01-.08.01,0,.02,0,.04,0,.02,0,.03,0,.03,0,0,0,0-.02-.01-.03-.03-.06-.04-.11-.04-.17,0-.04,0-.07,0-.07.02-.02.11.12.15.23,0,.01,0,.01.01.01,0,0,0,0,.01-.06,0-.02,0-.06,0-.09,0-.06,0-.06-.03-.05-.03,0-.05,0-.07-.02,0,0,0-.01,0-.02,0-.02,0-.03.03-.06.03-.03.03-.04.03-.04,0,0-.03-.05-.04-.06,0-.01,0-.02,0-.04,0-.03,0-.03,0-.04.01-.01.03-.01.05,0,.02,0,.04.02.06.03.01,0,.02,0,.02,0,.01-.03.04-.05.07-.05.03,0,.05,0,.06.03.01.02,0,.06,0,.09,0,0,0,0,0,.01,0,0,0,0,.02,0,.05,0,.08.04.07.08,0,.03-.02.05-.08.06-.01,0-.02.01-.01.03,0,.01,0,.05,0,.06,0,.01-.02.02-.03.03-.02,0-.04,0-.07-.05,0,0,0,0-.01,0,0,0,0,.01,0,.02s0,.03,0,.05c-.01.07-.02.15-.01.15,0,0,.01,0,.05-.04.06-.06.11-.09.16-.11.03,0,.06-.02.08-.01,0,0,0,0,0,.01,0,.01-.02.05-.04.08-.02.02-.06.07-.1.11-.02.02-.02.02,0,.03.01,0,.03.03.04.04,0,0,0,.02,0,.04v.02s.02,0,.02,0c.04.02.06.05.05.09,0,.02-.01.03-.03.04-.01,0-.05,0-.07,0,0,0-.01,0-.02,0,0,0,0,0-.02.02-.01.03-.03.04-.06.04,0,0-.01,0-.02,0,0,0,0,.01.01.04.01.03.02.03.01.04,0,0-.01,0-.04,0-.03-.01-.06-.05-.09-.09,0,0,0,0-.01,0,0,0,0,0-.02.04,0,.02-.02.06-.03.09-.01.03-.02.06-.02.06,0,0,.01,0,.04,0,.03-.01.07-.02.11-.03.03,0,.11,0,.13,0,0,0,.02,0,.03,0,.03,0,.02.01-.01.03-.03.01-.03.02-.05.04-.02.02-.06.05-.08.06,0,0-.03.01-.04.02-.02,0-.03.01-.03.01,0,0,0,.01,0,.02,0,.02,0,.03,0,.05-.01.02-.04.04-.08.04-.02,0-.03,0-.03,0,0,0,0,.01.01.02.01.02.02.04.02.06,0,.02-.02.03-.05.03-.02,0-.04,0-.06-.02,0,0-.02-.01-.02-.01,0,0-.02.02-.06.12-.02.05-.04.09-.04.09,0,0,0,.01.02,0,.02,0,.02,0,.03-.03,0-.01,0-.02.02-.02.02,0,.03-.01.05,0,.01,0,.02,0,.02,0,.01,0,.06-.05.11-.1.03-.03.06-.06.07-.06s.03-.02.05-.04c.02-.02.04-.04.05-.04.06-.05.1-.07.16-.08.04,0,.04,0,.04,0,0,.01-.04.07-.07.12-.03.03-.11.12-.15.15-.02.01-.04.04-.06.05-.02.01-.04.03-.04.03,0,0,0,.01,0,.03,0,.02,0,.03,0,.04h0s.03.01.03.01c.05,0,.07,0,.09.03.02.02.02.05,0,.06-.01.01-.03.02-.07.01-.03,0-.06-.01-.07-.03-.01-.01-.02-.01-.03,0-.01,0,0,.01,0,.03.02.01.04.04.05.07,0,.03,0,.04,0,.06,0,0-.01.01-.02.01-.02,0-.05-.02-.07-.06,0-.01-.01-.02-.02-.02s0,.01,0,.03c0,.03,0,.05-.03.06-.02,0-.03,0-.04,0-.02-.01-.04-.05-.04-.08v-.02s-.01,0-.01,0c0,0-.04,0-.06,0-.07,0-.07,0-.04.03.02.01.04.03.04.05,0,.02,0,.03,0,.04-.01.01-.02.01-.06.01-.03,0-.04,0-.04,0,0,0,0,.01,0,.02,0,0,0,.02-.01.02-.01.01-.04.03-.07.03h-.02s0,.02,0,.02c0,.02-.01.03-.03.03-.02,0-.03,0-.04-.01,0,0,0,0,0,0-.02,0-.09.14-.07.15,0,0,.03,0,.04-.02,0,0,.01-.02.02-.03.02-.02.04-.05.07-.07,0,0,.02-.01.02-.02,0,0,0,0,0,0s.01,0,.02,0c0,0,.02,0,.03-.01,0,0,.01,0,.02,0,0,0,.06-.02.09-.02.02,0,.09-.01.14-.01.03,0,.06,0,.09,0,.03,0,.05,0,.05,0,0,0-.01.02-.04.04-.03.03-.06.04-.15.07-.09.03-.17.06-.18.07,0,0,0,0-.01,0-.01,0-.04.02-.04.02s0,0,.02,0c.03-.01.07-.02.1-.03.06-.01.18-.01.19,0,0,0,0,.03-.03.05-.03.03-.09.05-.2.07-.04,0-.14.03-.16.04,0,0-.03,0-.04.01-.02,0-.03.01-.05.02-.01,0-.04.03-.07.05-.06.04-.14.11-.19.15-.03.03-.05.05-.03.05.01,0,.08-.02.11-.03.01,0,.03-.01.04-.01.04-.01.1-.05.14-.08.04-.04.06-.05.11-.07.04-.02.07-.03.11-.04.04-.01.07-.02.11-.01.03,0,.04,0,.05,0,0,0,.02,0,.02.01,0,0-.01.03-.03.04-.01,0-.03.02-.04.02-.05.03-.06.04-.02.05.02,0,.02,0,.02.01,0,.02-.03.05-.07.07-.01,0-.02.01-.02.02,0,0,0,.01.02.02.03,0,.07.03.08.04.01.01.01.01,0,.02,0,0-.03.01-.09.03h-.05s-.06.01-.06.01c-.04,0-.09,0-.13,0-.07,0-.16,0-.2,0-.05,0-.12.02-.16.03-.06.02-.12.05-.18.09-.03.02-.04.03-.03.03,0,0,.11.01.19.01.11,0,.16,0,.25-.03h.05s.03-.02.05-.03c.05-.02.09-.02.11-.02.02,0,.03,0,.03.02,0,0,0,.01-.02.03-.02.03-.03.03-.02.04,0,0,0,0,.05.01.01,0,.03,0,.04,0,.02,0,.05.03.05.04,0,0-.01,0-.03.02-.03.02-.05.03-.03.04,0,0,.11.04.16.05.02,0,.04.01.04.01,0,0,0,0,0,.02-.02.02-.08.05-.16.06-.05,0-.14.01-.18,0h-.05s-.06-.02-.09-.02c-.01,0-.03,0-.03,0-.03,0-.1-.03-.14-.05-.02,0-.05-.02-.06-.02-.05-.02-.17-.04-.23-.06-.04,0-.09-.01-.08-.02,0,0,.04,0,.13.02.03,0,.07.01.08.02.08.02.11.03.13.04.06.03.12.05.19.07.14.04.31.04.41,0,.03-.01.06-.02.06-.03,0,0,0,0-.15-.06-.01,0-.02,0-.03-.01,0,0,0-.01,0-.02,0-.01.02-.02.03-.03.02,0,.02-.01,0-.03-.01,0-.03-.02-.07-.02-.05,0-.05,0-.06-.01,0,0,.01-.03.03-.05,0,0,.01-.02.01-.02,0,0-.02,0-.04,0-.02,0-.09.02-.13.03-.05.02-.14.04-.17.04-.07,0-.23,0-.35,0,0,0-.02,0-.02,0,0,0,.04-.04.08-.06.13-.08.28-.12.48-.11h.1s.06,0,.06,0c.03,0,.09,0,.11,0,0,0,.03,0,.04-.01.06-.02.06-.02.05-.03-.01-.01-.06-.03-.09-.04-.03,0-.03,0-.03-.01,0,0,.01,0,.02-.01s.02-.01.03-.02c0,0,.02-.01.02-.01,0,0,.02-.01.03-.02.03-.02.02-.03,0-.04-.01,0-.02,0-.02-.01,0,0,0,0,0-.01,0-.01.03-.03.06-.05.03-.01.05-.03.05-.04,0,0,0,0,0,0,0,0-.01,0-.05,0-.04,0-.05,0-.08,0-.05.01-.09.03-.13.05-.04.02-.06.03-.09.06-.05.04-.1.07-.18.11-.07.03-.16.05-.16.04,0,0,.04-.06.07-.08l.05-.04s.08-.06.16-.12c0,0,.02-.02.03-.03.01-.01.02-.02.05-.02.07-.02.14-.04.22-.06.1-.02.15-.04.18-.07.02-.02.02-.02.01-.03,0,0-.07,0-.11,0-.07,0-.16.03-.23.06-.02,0-.03.01-.03.01-.01,0,0-.02.03-.04.02-.01.07-.04.07-.04,0,0,.01,0,.02-.01.02,0,.03-.02.07-.03.03-.01.07-.02.1-.03.06-.02.12-.04.15-.06.01-.01.02-.02.01-.02-.01,0-.07,0-.17.01-.16.01-.27.06-.32.15,0,.01-.01.02-.02.03,0,0-.04.02-.05.02-.01,0-.01,0,0-.02,0-.03.02-.07.04-.11.02-.04.04-.06.12-.14.04-.04.08-.08.08-.09,0-.01.04-.04.07-.05h.02s.05-.01.05-.01c.05,0,.1,0,.12-.01.01,0,.02,0,.03,0,.04,0,.06-.01.09-.03.03-.01.04-.02.04-.03,0-.01-.03-.01-.13.01-.08.02-.13.02-.13.01,0,0,0,0,.03-.02.03,0,.04-.01.04-.02,0,0,0-.01,0-.02,0,0,0-.02-.01-.02,0-.01,0-.01-.03,0-.02,0-.03,0-.04,0,0,0,0-.02.03-.06l.05-.1s.02-.05.02-.05c0,0-.01,0-.02,0-.01,0-.02.01-.03.01,0,0-.02,0-.02,0,0,0-.01.02-.02.04-.05.1-.1.17-.1.17,0,0,0,0,0-.03,0-.02,0-.06,0-.1,0-.08,0-.1-.02-.15-.02-.05-.03-.07-.05-.07,0,0-.01,0-.02.04,0,.04,0,.1,0,.16,0,.06.01.09.02.14,0,.02,0,.05,0,.07,0,.03,0,.04,0,.06,0,.03-.02.05-.03.07-.01.02-.05.06-.07.08-.03.03-.1.1-.11.11,0,0-.01.02-.02.02,0,.01-.03.09-.04.12,0,.02-.03.09-.03.1,0,.01-.02.03-.03.03,0,0-.01-.02-.01-.07,0-.05,0-.06,0-.14v-.05c.01-.07.01-.14,0-.18,0-.03-.02-.06-.03-.07,0,0,0,0-.01,0-.02,0-.04.05-.04.08,0,.04,0,.15.01.23,0,.05.02.11.02.15,0,.06,0,.1-.02.13-.04.06-.09.11-.13.14-.01,0-.03.02-.05.04-.09.07-.15.11-.32.22-.08.05-.22.12-.29.15-.01,0-.03.01-.03.01,0,0-.02,0-.02,0,0,0,.02-.03.04-.06l.06-.08s.03-.04.04-.05.03-.04.05-.06.03-.05.04-.06c.02-.03.03-.04.04-.06,0-.01.03-.02.07-.03h.03s.06-.01.06-.01c.07,0,.09,0,.13-.01.04-.01.06-.03.09-.05.02-.02.03-.02.07-.03.02,0,.03,0,.04-.01.01,0,0-.02-.04-.03-.01,0-.02,0-.02,0s0,0,.02-.02c.03-.02.05-.05.05-.07,0-.02,0-.02-.04-.02-.03,0-.07,0-.07,0,0,0,0-.01.01-.02.02-.02.02-.04.02-.05,0-.01-.01,0-.04,0-.01,0-.03.02-.04.02h-.02s-.02.01-.02.01c-.02,0-.02,0-.08,0-.04,0-.04,0-.04,0,0-.01.03-.06.05-.11l.02-.03v-.04s0-.09.03-.14c.03-.08.09-.14.14-.15,0,0,.02,0,.02,0,0,0,.04-.06.07-.12.08-.13.07-.13.19-.24.14-.14.19-.2.21-.23,0,0,0,0,.01-.01,0,0,.03-.04.04-.05.02-.03.03-.06.03-.07,0-.01,0-.01,0-.01,0,0-.04,0-.06.02-.06.03-.13.08-.19.16-.02.02-.04.06-.06.08s-.03.04-.03.04c0,0,0-.04.02-.09.02-.05.04-.08.09-.16.03-.04.03-.04.03-.05,0,0,0-.02,0-.03.01-.03.06-.07.09-.08,0,0,.02,0,.03,0,.02,0,.02,0,.03,0,0,0,.02-.01.02-.02.01-.02.04-.07.06-.1.02-.05.03-.07.04-.1.01-.04,0-.05-.02-.04-.06.01-.13.05-.18.1-.04.04-.09.13-.12.21-.02.06-.03.08-.05.1-.02.02-.03.03-.04.02,0,0,0-.1,0-.17,0-.05,0-.06,0-.06,0,0,0,0-.02,0,0,0-.02,0-.03,0-.03,0-.03,0-.03,0,0,0,0,.03,0,.05,0,.02,0,.05,0,.05,0,0,0,0,0,0,0,0-.03-.04-.07-.09-.08-.11-.15-.17-.18-.19-.02,0-.05,0-.05,0,0,0,0,.01.02.02.02.02.07.06.1.09.02.02.04.05.06.09,0,.02.02.04.03.05.01.02.05.1.06.14.02.05.04.13.04.16,0,.02,0,.02,0,.02,0,0-.01,0-.03-.03-.04-.05-.05-.06-.07-.05-.01,0-.02,0-.01-.01,0-.03,0-.06-.04-.1-.02-.03-.07-.1-.08-.11-.01-.02-.02,0,0,.03,0,.02.01.04.04.11.02.04.1.2.11.23.07.11.07.12.07.15s0,.04-.04.12c-.08.15-.14.27-.17.3-.02.02-.03.04-.04.04,0,0-.01-.01,0-.03,0-.02.01-.09.02-.12,0-.02.01-.08.02-.12,0-.04,0-.1,0-.12,0-.02-.01-.03-.02-.02,0,0,0,.01,0,.03,0,.1-.01.19-.03.23,0,.02-.01.04-.02.04,0,0,0,0,0-.02-.01-.05-.08-.14-.13-.17-.03-.02-.04-.01-.02.03.02.03.06.14.06.17.01.04.02.07.02.1.01.06,0,.13-.01.16h0s0,0,0,0c0,0,0-.02,0-.03,0-.08-.06-.24-.09-.26-.02-.02-.02,0-.03.04,0,.06,0,.16.03.34,0,.07,0,.07,0,.12-.01.04-.07.14-.1.19-.02.03-.05.06-.05.06,0,0,0-.03,0-.07.01-.04.02-.07.06-.17.03-.09.03-.1.03-.19,0-.05,0-.15-.01-.16,0,0,0,0-.02,0,0,0-.03.05-.05.1-.03.06-.03.08-.04.08,0,0-.01,0-.03-.04-.02-.04-.04-.06-.06-.06,0,0,0,0-.01.02,0,0-.01.03-.02.04v.03s-.01.03-.01.03c0,.02,0,.03,0,.03,0,0-.02,0-.04-.02-.02-.02-.03-.02-.03-.02,0,0,0,.02,0,.05,0,.08.02.13.04.18.03.06.04.1.05.14,0,.02,0,.03,0,.08,0,.07,0,.11-.02.16-.02.06-.06.15-.1.2-.07.09-.12.13-.19.17-.04.02-.1.03-.1.03,0,0,0,0,.03-.04.08-.09.16-.18.2-.26.04-.08.06-.12.08-.2,0-.04,0-.04,0-.1,0-.07,0-.09-.02-.14-.01-.04-.04-.11-.05-.13,0,0-.01,0-.01.02,0,.01,0,.02,0,.02,0,0,0,0-.02-.02-.02-.03-.04-.06-.06-.07-.01,0-.01,0-.02,0,0,0,0,0,0,.03,0,.02,0,.03,0,.06,0,.02,0,.04,0,.05,0,.02,0,.03-.02.01-.03-.02-.06-.05-.08-.08,0-.01-.01-.02-.01-.02,0,0-.01,0-.02.02,0,.02,0,.05,0,.08.02.06.04.11.08.16.05.07.07.1.08.15,0,.02,0,.03,0,.07,0,.05,0,.06-.02.11-.03.07-.12.22-.17.27-.01.01-.07.06-.1.08-.05.03-.1.06-.15.07-.04.01-.08.02-.09.02-.01,0-.01,0,0,0,0-.02.02-.04.05-.07.04-.04.06-.06.19-.15.06-.04.13-.11.16-.14.03-.03.04-.07.05-.12,0-.01,0-.03,0-.04.01-.03,0-.03-.04,0-.02.02-.04.03-.05.03,0,0,0,0,0-.02.01-.02.02-.05.02-.07,0-.02,0-.09,0-.09,0,0-.02,0-.07.05-.03.03-.06.06-.07.05-.01,0-.02-.05-.02-.07,0-.01,0-.03,0-.03,0,0-.03.03-.05.05-.02.03-.04.08-.07.2-.03.13-.06.21-.11.29-.02.04-.09.11-.1.11,0,0,0,0,0-.04.02-.04.04-.11.05-.16.02-.09.02-.16,0-.15-.01,0-.04.03-.06.04,0,0-.02.03-.03.04s-.02.03-.02.03c-.01.02-.04.07-.05.11-.02.05-.03.1-.04.14,0,.02,0,.04-.01.05-.02.05-.1.13-.15.15,0,0-.03.01-.06.02s-.05.02-.05.02c0,0-.02,0-.03,0-.05.01-.1.03-.24.08-.05.02-.12.04-.17.06-.08.03-.24.11-.32.17-.01,0-.04.03-.07.05-.02.02-.05.04-.05.04,0,0-.02.02-.04.03-.03.03-.03.03-.04.06,0,.02-.02.05-.03.06-.03.06-.08.16-.09.18,0,.01,0,.03-.01.04-.01.04-.04.12-.04.13,0,0,0,0,0,0,0,0,.03-.03.05-.06,0,0,.01-.02.02-.02,0,0,.02-.02.02-.03l.03-.04s.16-.17.18-.19c0,0,.03-.03.06-.06.05-.05.11-.1.16-.13.05-.04.1-.07.13-.09.06-.04.2-.12.25-.14.07-.03.1-.04.23-.08.02,0,.06-.02.09-.03.06-.02.14-.05.2-.07.02,0,.05-.02.07-.03.17-.07.18-.07.23-.07.04,0,.09,0,.13,0,.02,0,.05.02.08.03.02,0,.06.04.07.05.02.02.05.06.07.08.03.04.08.09.13.11.04.02.12.03.13.03,0,0,0-.03-.01-.06-.03-.05-.05-.08-.1-.13-.07-.07-.16-.13-.22-.15,0,0-.01,0-.01-.01,0,0,.02,0,.06,0,.09,0,.16.02.24.05.07.03.15.1.25.19.1.1.14.13.18.14.03,0,.06.02.07.02,0,0,0,0,0,0,0-.01-.01-.04-.05-.09q-.05-.06-.02-.06s.03,0,.06.02q.05.03.14.04s.04,0,.05,0c.03,0,.03,0,.01-.03-.02-.04-.05-.07-.11-.11-.05-.04-.06-.05-.06-.05,0,0,0,0,.04-.01.03,0,.04,0,.04-.02,0,0-.02-.02-.04-.04-.03-.02-.12-.05-.13-.05,0,0-.01,0-.02,0,0,0-.05-.02-.1-.03-.08-.02-.18-.04-.21-.04-.02,0-.03,0-.05,0-.03,0-.09-.01-.14-.02-.04,0-.05,0-.05-.01,0,0,.08-.04.12-.05.05-.01.09-.02.11-.02.05,0,.15,0,.26.03.09.02.2.06.26.1.05.03.1.09.14.14.06.08.14.18.17.21.06.06.13.11.18.12.02,0,.03,0,.03,0,0,0,0-.01-.01-.02-.02-.03-.03-.06-.04-.09,0-.03,0-.04,0-.04,0,0,.04,0,.08,0,.03,0,.04,0,.05,0,.02,0,.03,0,.03-.02,0,0-.02-.01-.03-.02-.08-.05-.1-.07-.12-.09-.02-.03-.02-.03.02-.04.02,0,.03,0,.03-.01,0,0,0,0,0,0,0-.01-.07-.07-.12-.09-.09-.05-.14-.08-.18-.1-.01,0-.03-.01-.05-.02-.02-.01-.13-.05-.13-.05,0,0-.01,0-.02,0-.03-.01-.13-.04-.15-.05-.09-.02-.13-.03-.19-.03-.05,0-.05,0-.05,0,0-.02.14-.05.2-.06.02,0,.04,0,.04,0,0,0-.03,0-.04,0-.09.01-.14.02-.14.03,0,0,0,0,.03.01.11.01.26.05.44.13.09.04.1.04.13.06.06.03.16.1.2.13.02.02.05.05.05.06,0,0,0,0-.04.02-.01,0-.03,0-.03,0-.02.01.03.06.14.13.01,0,.03.02.03.02,0,0-.01.01-.04.02-.02,0-.06,0-.1,0-.02,0-.04,0-.04,0-.01,0-.01,0-.01,0,0,.02.02.06.05.11.01.02.02.03.02.03,0,0,0,0-.03,0-.03,0-.05-.01-.08-.03-.03-.02-.06-.04-.1-.08-.04-.04-.09-.1-.18-.22-.05-.06-.07-.09-.13-.14-.04-.03-.11-.07-.17-.09-.13-.04-.3-.06-.39-.05-.06,0-.13.03-.15.04-.01,0,0,.01.04.02.11.02.21.03.29.05.1.02.21.05.26.08.05.02.08.04.1.06.03.03.02.04-.02.05-.01,0-.02,0-.02,0,0,0,0,.01.03.03.06.05.09.08.11.11.02.02.03.07.02.07,0,0,0,0-.02,0-.01,0-.03-.01-.06-.02-.11-.02-.11-.02-.15-.04-.04-.02-.05-.02-.05-.01,0,0,0,.01.04.06.03.03.04.05.04.07,0,.02,0,.02-.04.01-.05-.01-.07-.02-.1-.04-.02-.02-.11-.09-.16-.14-.07-.07-.15-.12-.22-.16-.04-.02-.07-.03-.12-.04-.04,0-.11-.01-.11,0,0,0,0,.01.02.02.04.02.08.05.13.1.04.04.07.07.09.11.03.04.04.07.05.1,0,.02,0,.02,0,.02,0,0-.04,0-.06,0-.09-.02-.18-.07-.23-.14-.05-.07-.14-.13-.21-.15-.03,0-.11,0-.14,0-.03,0-.07.02-.09.03-.04.01-.12.04-.25.09-.02,0-.05.02-.06.02-.01,0-.04.02-.06.02-.04.01-.04.02-.04.02,0,0,0,0,.07.03.03.01.07.03.09.04.01,0,.03.01.03.01s.02,0,.04.02c.1.05.2.11.24.14.05.04.07.05.09.07l.04.04s.02.02.02.03c0,.02.03.06.06.14.02.04.03.07.05.1.03.07.07.2.07.24,0,.02,0,.03-.01.02h0Z"/>
      <path class="cls-1" d="M6.39,9.11s0-.05-.01-.07c0-.01,0-.02-.01-.04-.01-.05-.04-.11-.11-.26-.02-.03-.03-.07-.03-.07,0-.02-.02-.03-.04-.05-.01-.01-.03-.02-.04-.04-.02-.01-.07-.06-.1-.08-.04-.03-.11-.07-.21-.12-.06-.03-.09-.04-.18-.08-.02,0-.04-.01-.05-.02-.03-.01-.03-.01-.09,0-.03,0-.06.02-.06.02-.01,0,0,.01.05.04.04.02.1.05.17.09.09.05.1.06.23.16.09.07.19.16.28.26.06.06.08.09.11.12,0,0,.02.03.03.04.01.01.03.03.04.05.02.03.03.04.04.04,0,0,0,0,0,0h0ZM3.02,8.4s.08-.03.12-.06c.04-.03.11-.1.19-.21.08-.11.13-.16.19-.2.1-.06.3-.11.47-.11.05,0,.07,0,.13.02.05.01.07.02.11.04.03.01.03.02.01.02-.1.01-.21.03-.23.03-.01,0-.03,0-.05,0-.14.03-.28.06-.35.09-.04.02-.08.03-.09.05-.02.02-.02.03.03.03.02,0,.03,0,.03,0,0,0,0,0-.05.05-.06.05-.09.08-.11.11-.02.03-.02.04.01.03.01,0,.03,0,.05,0,.07,0,.09-.01.12-.03.04-.02.05-.02.07-.03.03,0,.03,0-.02.06-.03.04-.05.06-.06.08-.01.03,0,.03.02.03.04-.01.08-.03.11-.04.02-.01.11-.09.12-.1.03-.04.13-.11.19-.15.07-.04.14-.07.23-.08.04,0,.13,0,.14,0,0,0,0,0-.02.02-.06.02-.13.06-.2.14-.04.04-.06.06-.08.1-.03.04-.04.07-.04.09,0,0,0,0,.03,0,.02,0,.04,0,.06,0,.03,0,.08-.03.09-.04.03-.02.08-.07.09-.08.01-.02.06-.07.08-.08.05-.04.08-.06.13-.07.07-.02.17,0,.26.03.04.02.12.05.19.07.02,0,.03.01.04.01,0,0,.04.01.08.03.04.01.08.03.1.04.03.01.04.01.06,0,.02,0,.1-.03.1-.04,0,0,0-.01-.07-.03-.14-.04-.16-.05-.21-.11-.04-.04-.07-.08-.07-.12,0-.04-.02-.07-.03-.11,0-.01-.01-.03-.02-.05-.01-.03-.04-.08-.06-.12-.03-.05-.09-.1-.1-.1-.02,0-.02.09,0,.17.01.06.03.12.06.16,0,.01,0,.02,0,.02,0,0-.05-.05-.07-.08-.02-.03-.06-.1-.08-.14-.02-.04-.05-.13-.06-.17-.02-.08-.04-.16-.06-.19-.02-.03-.05-.07-.06-.07,0,0,0,0,0,.03,0,.02,0,.04,0,.05-.01.03-.01.03-.06-.02-.04-.04-.07-.06-.08-.07-.01,0-.01,0-.02.05,0,.06,0,.09.02.12,0,0,0,.02,0,.02,0,0-.03-.01-.07-.05-.03-.03-.04-.02-.03,0,0,.01,0,.02,0,.03.01.07.04.12.1.17.07.06.09.08.19.15.05.04.08.06.11.09.02.02.03.03.04.05.01.02.01.03,0,.03,0,0-.1-.02-.15-.04-.04-.02-.09-.04-.13-.08-.07-.06-.1-.09-.17-.21-.08-.14-.1-.22-.07-.31,0-.03.03-.08.05-.1.08-.1.13-.23.1-.28,0-.01-.02,0-.03.01-.02.03-.08.09-.1.09,0,0,0,0,0-.02,0-.04,0-.1,0-.12,0-.02,0-.02,0-.02-.02,0-.06.05-.08.08-.01.02-.02.02-.02,0,0-.01,0-.02,0-.02,0,0,0,0,0,0,0,0,0,.01-.02.03-.04.08-.05.16-.05.24,0,.06,0,.1.03.16.02.05.03.09.07.14q.03.05.07.11c.05.06.06.07.12.14.02.02.03.04.03.04,0,0-.07,0-.11-.03-.03-.02-.08-.05-.11-.08-.04-.04-.09-.1-.11-.14-.01-.02-.05-.09-.06-.12-.02-.06-.04-.12-.04-.19,0-.07.01-.12.05-.2.02-.05.03-.06.04-.09.02-.06.02-.16.01-.16,0,0-.02,0-.03.02-.02.01-.04.02-.04.02,0,0,0,0,0-.03,0-.03,0-.03,0-.05,0-.01-.01-.03-.02-.04s0-.02-.01-.02c0,0-.03.01-.06.05-.02.04-.03.05-.04.05,0,0-.01,0-.04-.08-.03-.07-.05-.1-.06-.1-.01,0-.02.16-.01.23,0,.04,0,.05.04.15.04.13.06.21.05.21s-.06-.06-.1-.14c-.04-.07-.06-.12-.07-.16,0-.01,0-.03,0-.06.03-.18.03-.22.03-.3,0-.06,0-.08,0-.09,0-.03-.02-.01-.05.05-.02.03-.04.11-.05.14v.04s-.01.04-.02.05,0,.02,0,.02c0,0-.02-.02-.02-.05,0-.04,0-.12.02-.19,0-.02.02-.07.03-.09,0,0,.01-.03.02-.04,0-.01.02-.04.02-.06.02-.04.01-.05-.02-.02-.04.02-.07.06-.1.11-.02.03-.02.03-.03.05,0,.01,0,.02,0,.02,0,0-.01-.02-.02-.04-.01-.04-.02-.11-.02-.23,0-.03,0-.03,0-.03,0,0,0,0,0,0,0,0,0,.02,0,.06,0,.05,0,.11.02.19.02.11.02.16,0,.16-.02,0-.07-.08-.14-.2-.04-.07-.11-.22-.11-.24,0-.03,0-.06.04-.12.01-.02.02-.02.06-.1.07-.13.13-.27.14-.32,0-.01,0-.02-.01,0,0,0-.08.11-.1.14-.02.03-.02.05-.02.07,0,.01,0,.02,0,.02,0,0,0,0-.01,0-.02,0-.03,0-.05.03-.03.04-.04.05-.05.05,0,0,0,0,0-.01,0-.03.02-.11.04-.17.02-.05.05-.12.06-.13,0,0,.01-.02.02-.05.01-.02.03-.05.04-.06.02-.02.09-.09.12-.12.02-.02.02-.02.01-.03-.04-.02-.12.04-.21.17-.02.03-.04.06-.07.09-.02.03-.02.03-.03-.03,0-.05,0-.06-.02-.06,0,0-.01,0-.02,0,0,0-.02,0-.03,0,0,0-.02,0-.02,0,0,0,0,.03,0,.12,0,.1,0,.12,0,.12,0,0-.01,0-.03-.02-.02-.02-.03-.04-.06-.1-.06-.15-.11-.22-.2-.28-.02-.01-.04-.02-.08-.03-.05-.01-.05,0-.04.04,0,.03.01.05.02.08.03.07.07.13.1.15.01,0,.02.01.04.01.02,0,.03,0,.04,0,.01,0,.05.04.06.05.01.02.02.04.02.05,0,.02,0,.03.02.05,0,0,.01.02.05.08.03.05.05.1.07.16,0,.02,0,.03,0,.03,0,0,0,0,0,0,0,0-.02-.03-.06-.08-.04-.06-.08-.1-.13-.14-.03-.03-.08-.05-.12-.06-.03,0-.03,0-.04,0,0,0,0,.02,0,.04.02.03.03.05.08.11.05.06.08.1.18.2.04.04.07.07.11.11.04.04.06.07.14.21.02.03.04.07.05.08,0,0,.01,0,.02,0,.03,0,.05.02.08.05.02.02.03.03.04.06.01.02.02.05.03.07,0,.03.01.04.01.09v.05s.02.04.02.04c.03.05.05.1.05.11,0,0,0,0,0,0s-.02,0-.04,0c-.05-.01-.07-.01-.08,0-.01,0-.02,0-.03,0-.01-.01-.06-.04-.07-.04,0,0-.01,0,0,.02,0,0,0,.02.02.03.01.02.02.03.01.03,0,0-.02,0-.05,0-.05,0-.05,0-.05.01,0,.02.02.05.05.08.02.01.02.02,0,.02-.04,0-.06.01-.06.02,0,0,.01.01.05.02.03,0,.05.02.07.04.05.05.12.07.24.07.04,0,.07,0,.1.03.03.01.03.02.06.06.03.04.07.1.09.13.01.01.03.04.04.06.01.02.04.05.05.07.04.05.05.07.05.08,0,0,0,0-.03,0-.05-.02-.22-.1-.27-.13,0,0-.02-.01-.03-.02,0,0-.03-.02-.04-.02-.01,0-.03-.02-.04-.03-.03-.02-.02-.01-.06-.04-.03-.02-.05-.04-.1-.07-.02-.01-.03-.02-.04-.03-.02-.02-.05-.03-.07-.05-.03-.03-.06-.06-.09-.08-.02-.02-.07-.09-.07-.1,0,0,0-.03,0-.04,0-.04,0-.08.02-.18.02-.12.03-.21.01-.27,0-.04-.03-.07-.05-.07-.01,0-.04.06-.04.1,0,.05,0,.09,0,.21,0,.09,0,.19,0,.2,0,0-.03-.01-.04-.04,0-.02-.01-.04-.03-.1-.03-.1-.03-.11-.08-.16-.02-.02-.04-.04-.04-.04s-.02-.02-.03-.03c-.03-.03-.07-.08-.09-.11-.03-.06-.03-.09-.02-.18,0-.03.01-.07.01-.08,0-.01,0-.03.01-.09,0-.05,0-.14-.01-.16,0,0-.01,0-.02,0-.03.03-.05.09-.05.15,0,.03,0,.12,0,.15,0,.03,0,.04,0,.03,0,0-.02-.03-.03-.06,0,0-.01-.03-.02-.04-.01-.02-.02-.04-.03-.06,0-.02-.02-.03-.03-.05,0,0-.01,0-.02-.01-.01,0-.03,0-.04-.01-.01,0-.02,0-.02,0,0,0,.02.05.05.11,0,.01.02.04.03.06.01.03.02.03.01.04,0,0,0,0-.03,0-.03,0-.03,0-.03.01,0,0,0,.01,0,.02-.01.02-.01.03.02.04.01,0,.03.01.03.01.01,0,.02,0,0,.01-.01,0-.07,0-.14-.02-.04-.01-.09-.02-.1-.02-.01,0-.02,0-.02,0,0,0,0,0,0,.01.01.01.06.03.09.04h.05s.08.03.12.03c.04,0,.05,0,.09.03.02.01.03.02.05.04.01.01.04.04.07.07.05.05.08.08.1.1.04.05.08.13.08.17h0s0,.01,0,.01c0,0-.02,0-.03-.01-.02-.01-.02-.01-.03-.03-.02-.03-.04-.06-.07-.08-.03-.02-.08-.04-.11-.05-.01,0-.03,0-.04,0-.03,0-.07-.01-.12-.02-.02,0-.06,0-.08,0-.06,0-.07,0-.07,0,0,.01.05.04.11.06.02,0,.05.02.08.02.02,0,.05.02.07.03s.04.02.05.02c.04.02.11.05.13.07.02.01.03.03.03.04,0,0,0,0-.03,0-.03-.01-.12-.04-.15-.05-.05-.01-.1-.02-.14-.02-.05,0-.06,0-.04.03.02.03.09.06.19.08.07.01.19.05.24.06,0,0,.02.01.03.02.01.01.06.04.09.07.08.06.09.07.14.12.04.04.07.07.07.08,0,.01,0,.01-.03,0-.06-.01-.13-.04-.19-.07-.04-.02-.07-.04-.1-.07-.04-.04-.06-.05-.11-.07-.07-.03-.14-.06-.19-.06-.03,0-.06,0-.07,0-.01,0,0,.03.05.05.04.02.06.04.06.06,0,0,0,0-.02,0-.02,0-.03.01-.03.02,0,0,.01.03.03.04.02.01.07.04.08.04,0,0,0,0,0,0,0,0,0,0-.03.01-.05.01-.1.03-.1.05,0,0,0,.01.03.02.05.02.09.03.12.03.02,0,.08,0,.15,0,.15,0,.2,0,.28.01.1.02.19.05.25.09.03.02.08.06.09.07,0,0,0,0-.12.01-.21,0-.24,0-.39-.04-.08-.03-.11-.03-.14-.04-.02,0-.03,0-.03,0,0,0,0,0,0,.03.01.02.03.04.03.05,0,0-.01,0-.05.01-.04,0-.07.01-.08.02,0,0,0,.01.01.02.03.02.04.04.03.05,0,0-.03.01-.11.04l-.06.02s-.01.01,0,.02c0,0,.04.02.06.03.03,0,.08.02.11.02.03,0,.05,0,.09,0,.03,0,.06,0,.07,0h.03s.04,0,.05-.01.04,0,.04,0c.01,0,.11-.03.13-.04l.06-.02c.05-.02.06-.02.13-.04.12-.03.19-.04.22-.04.02,0,.09,0,.11.01.02,0,.05.01.08.02.04.01.05.02.05.03,0,0,0,0-.06,0-.09,0-.14.01-.24.04-.04.01-.12.04-.16.05-.05.02-.08.03-.09.04,0,0-.03.01-.04.02-.04.01-.1.05-.14.07-.01,0-.03.02-.04.02-.06.03-.12.08-.12.1,0,0,0,0,.02.01.06.02.06.02.05.04-.02.02-.05.05-.1.08-.06.04-.07.04-.06.05.01.01.05.01.1,0,.02,0,.04,0,.05,0h.02s-.02.08-.04.12c-.01.02-.02.03,0,.03,0,0,.01,0,.02,0h0Z"/>
      <path class="cls-4" d="M7.42,6.87s.02-.02.02-.04c0-.03,0-.03.01-.02.01,0,.01,0,.02,0,0,0,.01-.01.01-.03,0,0,0-.01,0-.01,0,0,0,0,.02,0,.02.02.04.02.05,0,0,0,0-.01,0-.02,0,0-.01-.01-.03-.02,0,0-.01,0-.01,0,0,0,0,0,.01-.01,0,0,.01-.01,0-.02,0-.01,0-.02-.02-.02-.01,0-.01,0,0-.02.02-.01.02-.02.02-.04,0,0,0-.02,0-.02s0,0,.01,0c.01,0,.03-.02.03-.03,0-.02-.01-.03-.04-.03-.03,0-.05.01-.08.04-.03.03-.05.07-.07.13-.01.04-.01.04-.01.08,0,.07,0,.09.03.09,0,0,.02,0,.03,0h0ZM3.43,6.86s.01-.02.02-.04c0-.04,0-.1-.02-.15-.01-.03-.02-.05-.05-.08-.03-.04-.06-.06-.09-.06-.02,0-.03,0-.04.01,0,0,0,0,0,.02,0,.01.01.02.03.03.02,0,.02,0,0,.02,0,0,0,.03,0,.03,0,0,0,0,.02.01,0,0,.01,0,.01.01,0,0,0,0-.01,0-.01,0-.01.01-.01.02,0,0,0,.01,0,.02.01.01,0,.02,0,.02-.01,0-.03.02-.03.02,0,0,0,.02.01.03,0,0,.02,0,.04,0,0,0,.02,0,.02,0,0,0,0,0,0,.02s.01.03.02.03c0,0,.01,0,.02,0,.01,0,.02,0,.01.01,0,.02,0,.03,0,.04,0,0,.03.02.04.02,0,0,.01,0,.02,0h0ZM8,6.8s0-.01,0-.02c0-.02,0-.02.02-.02.04,0,.07-.01.08-.04,0,0,0-.01,0-.03v-.02s.05,0,.05,0c.04,0,.05,0,.05,0,.02-.02,0-.06-.03-.08-.02-.01-.04-.01-.05,0-.01,0-.04.04-.06.06,0,0-.03.03-.05.05-.04.04-.06.06-.07.08,0,0,0,.02,0,.03.01,0,.03,0,.04,0h0ZM2.85,6.78s.01-.01,0-.02c0,0-.16-.17-.18-.19,0,0-.01,0-.02,0-.03,0-.07.04-.07.06,0,.02,0,.03.07.03h.04s0,.02,0,.02c0,.02,0,.03.02.04.02.01.04.02.06.02.03,0,.03,0,.03.02,0,.03.02.04.04.03h0ZM7.84,6.74s.05-.01.06-.02c.03-.02.08-.08.11-.12,0,0,.01-.03.02-.04,0-.02,0-.03,0-.06,0-.03,0-.06-.02-.08-.02-.03-.09-.01-.1.02,0,.01,0,.01-.04,0-.03,0-.05,0-.07,0-.02,0-.02.01-.03.03,0,.02,0,.04.02.06,0,0,.01.01.01.02s0,0-.01,0c-.01,0-.02.01-.02.03,0,.02,0,.06.02.08,0,0,0,.01,0,.01s0,0-.01,0c-.01,0-.02,0-.02,0,0,0,0,.01,0,.02,0,.03.02.04.07.03h0ZM3.02,6.72s0,0,.01-.01c.01-.02,0-.05-.03-.05-.01,0-.02,0,0-.01.02-.01.03-.05.03-.07,0-.02,0-.03-.02-.04,0,0-.01,0-.01,0,0,0,0,0,.01-.02.02-.02.02-.02.02-.04,0-.04-.03-.06-.1-.04-.03,0-.03,0-.04,0,0,0,0-.01-.02-.02-.01,0-.02,0-.04,0-.02,0-.02,0-.03,0-.01,0-.02.02-.02.05-.01.05,0,.11.04.16,0,.01.02.02.02.03.01.01.05.05.06.06.03.02.09.03.11.02h0ZM8.39,6.66s.01,0,.02-.02c.01-.02,0-.08-.02-.09,0,0-.01,0-.02,0,0,0-.02,0-.02,0-.01,0-.02.02-.02.04,0,.03.02.06.04.07.01,0,.01,0,.03,0ZM8.52,6.65s.01-.03,0-.06c-.02-.04-.06-.07-.08-.05-.02.02,0,.07.04.11.02.02.03.02.04,0h0ZM2.44,6.63s.05-.06.04-.09c0-.02-.02-.02-.04-.02-.01,0-.02,0-.02,0,0,0-.02.04-.02.06s0,.03.02.04c.01,0,.01,0,.03,0h0ZM2.31,6.62s.06-.06.06-.09c0-.03-.02-.03-.04-.02-.02.01-.05.06-.06.08,0,.01,0,.02,0,.02,0,.01.01.01.03,0h0Z"/>
      <path class="cls-5" d="M8.42,6.55s0-.02,0-.02c0,0,0,.01,0,.02,0,0,0,0,.01,0h0Z"/>
      <path class="cls-4" d="M2.4,6.52s0,0,0,0c0,0,0,.01,0,.02,0,0,0,0,0,0h0ZM8.64,6.52s.01-.05-.02-.07c0,0-.03,0-.05,0-.03,0-.03,0-.04,0-.01,0-.01.03,0,.04,0,.01.03.03.05.03.02,0,.06,0,.07,0h0ZM2.26,6.5s.03-.02.03-.03c0,0,0-.02,0-.03-.01-.01-.08,0-.1,0-.03.02-.04.06,0,.06.03,0,.06,0,.08,0h0ZM8.38,6.46s.02-.06,0-.09c-.02-.03-.06-.03-.07,0,0,.02,0,.03,0,.05,0,.02.02.04.03.05.02.01.03,0,.04,0Z"/>
      <path class="cls-5" d="M8.42,6.46s0-.01-.01-.01c0,0,0,0,0,0,0,0,0,0,0,0,0,0,0,0,0,0Z"/>
      <path class="cls-4" d="M2.48,6.44s.02-.02.03-.04c.02-.05,0-.09-.05-.07-.03.01-.04.03-.04.05,0,.04.01.07.04.07,0,0,.01,0,.02,0ZM8.49,6.45s.05-.05.03-.08c-.01-.02-.04-.03-.06-.03-.01,0-.02,0-.03.01-.01.01-.02.02-.02.04,0,.01,0,.04.01.05,0,.01.04.02.06,0h0Z"/>
      <path class="cls-5" d="M2.4,6.44s0-.01,0,0c0,0,0,0,0,0,0,0,0,0,.01,0h0Z"/>
      <path class="cls-4" d="M2.38,6.42s.02-.02.02-.05c0-.02,0-.04-.02-.05-.02-.02-.08,0-.09.03,0,.03,0,.06.04.07.01,0,.04,0,.05,0h0Z"/>
      <path class="cls-1" d="M8.41,6.35s.02-.02.05-.02c.02,0,.02,0,.04.01.01,0,.02.01.02.01,0,0,.07-.05.1-.08.04-.03.15-.14.16-.16.02-.03.05-.07.05-.08,0,0,0,0,0-.01,0,0-.02,0-.05,0-.06.02-.07.03-.16.1-.02.02-.04.04-.05.04,0,0-.04.03-.07.06-.03.03-.06.06-.09.08-.02.02-.04.03-.04.04,0,0,0,.02.01.02,0,0,0,0,.01-.01h0ZM2.42,6.34s0-.01-.01-.02c0,0-.04-.04-.08-.07-.06-.06-.09-.08-.16-.14-.04-.04-.07-.05-.09-.07-.03-.02-.09-.04-.1-.04-.02,0,0,.03.06.11.06.08.23.22.25.22,0,0,.01,0,.02,0,.04-.02.08-.01.09.01,0,.01.01.02.02,0h0Z"/>
      <path class="cls-4" d="M7.51,6.24s.03-.05,0-.09c0,0-.01,0-.02-.01-.01,0-.01-.01.01-.02.01,0,.02-.01.03-.02.01-.01.02-.03.02-.04,0-.01-.02-.03-.03-.03-.02,0-.05,0-.07,0,0,0-.02,0-.02,0,0,0,0,0,0-.02,0-.04,0-.08-.03-.1-.01,0-.04,0-.05,0-.02.01-.03.07-.01.1,0,.01,0,.02,0,.02,0,0-.01,0-.02,0-.05-.02-.08,0-.08.03,0,.01,0,.02.01.02.01.01.03.02.06.02.02,0,.03,0,.03,0,0,0,0,0-.02.01-.02.01-.05.04-.06.05,0,.01,0,.03,0,.05,0,.01.02.02.04.02.01,0,.02,0,.02,0,.01-.01.03-.03.05-.06,0-.01.02-.03.02-.03,0,0,0,0,0,.02.01.04.05.08.08.08,0,0,.01,0,.02,0h0ZM3.52,6.23s.02-.02.03-.03c0-.02-.02-.05-.06-.07-.02,0-.02-.02-.02-.02,0,0,0,0,.03,0,.01,0,.03,0,.04,0,.04,0,.05-.04.03-.06,0,0,0,0-.03-.01-.01,0-.03,0-.04,0-.03,0-.04,0-.02-.01,0-.01.01-.03.01-.05,0-.03,0-.05-.02-.06-.03-.01-.06,0-.07.02,0,.02-.01.05,0,.07,0,0,0,.02,0,.02,0,0-.01,0-.02,0-.03,0-.06,0-.08,0-.01,0-.02.01-.02.03,0,.02.02.04.05.06.01,0,.02.01.02.01s0,0-.01,0c-.01,0-.02.02-.03.04-.01.03,0,.06.04.06.02,0,.03,0,.05-.03.02-.02.02-.03.03-.05,0,0,0-.02,0-.02,0,0,0,0,.01.01.01.03.02.04.04.06.02.03.04.03.06.02h0ZM8.27,6.19s.04-.02.05-.04c0,0,.02-.01.02-.01s0,0,0,.01c.01.02.04.04.07.04.02,0,.03,0,.04-.02,0-.02,0-.04-.03-.07-.02-.03-.03-.04-.02-.03q.05.01.07,0s.04-.01.05-.03c0-.01,0-.02,0-.03,0-.02-.01-.04-.02-.05-.02-.01-.05,0-.1.02-.01,0-.03.01-.03.01,0,0,0,0-.01-.02-.01-.03-.03-.05-.05-.07-.05-.04-.11-.04-.13,0-.01.02,0,.05.03.08.02.02.04.04.07.05.02.01.02.02,0,.02-.02,0-.05.02-.07.03-.03.01-.05.04-.05.05,0,.02,0,.03,0,.04.01.01.06.02.09,0h0ZM2.62,6.18s.02-.01.02-.03c0-.03-.01-.04-.04-.06-.02-.01-.06-.03-.09-.03,0,0-.02,0-.02,0s0,0,.02,0c.02,0,.05-.03.08-.05.03-.03.04-.05.04-.07,0-.01,0-.02-.01-.02-.04-.04-.13-.01-.17.05,0,0-.01.02-.01.03,0,.02,0,.02-.04,0-.07-.04-.1-.04-.11,0-.01.03-.01.05,0,.07.01.01.04.03.06.03.01,0,.04,0,.06,0,.01,0,0,0-.02.03-.03.04-.04.06-.03.08,0,0,.02.02.03.02s.04,0,.05-.02c.01,0,.03-.02.03-.03,0,0,0,0,0,0s.01,0,.02.02c.02.02.04.03.06.04.02,0,.06,0,.07,0h0Z"/>
      <path class="cls-1" d="M8.44,5.97s.06-.02.09-.02c.02,0,.02,0,.04,0,.02,0,.06-.02.07-.03,0,0,0,0,0,0,0,0,.04-.03.07-.05.02-.02.03-.03.04-.03.02-.01,0-.02-.05-.02-.09,0-.16.02-.22.06,0,0-.02.01-.02,0,0,0,0-.01.01-.04.03-.06.05-.11.05-.13,0-.02.02-.07.03-.09,0,0,0,0,0,0s.01.02.02.04c.02.04.05.07.07.08.03.02.03,0,0-.05,0,0-.01-.02-.02-.03-.01-.02-.02-.04-.03-.06-.03-.05-.03-.06-.02-.08.02-.03.03-.05.11-.11.03-.02.09-.08.13-.11.03-.03.08-.1.08-.11,0,0-.01,0-.04,0-.04.01-.09.04-.13.07-.03.02-.05.04-.08.07-.02.02-.03.03-.03.03,0,0,0-.02,0-.07,0-.06,0-.09.02-.15,0-.05,0-.06,0-.08,0-.02-.01-.02-.03-.01,0,0-.01,0-.02.01,0,0,0,.03,0,.07,0,.1-.02.19-.03.19,0,0,0,0-.02-.04-.01-.05-.03-.08-.07-.15-.02-.04-.05-.08-.06-.08,0,0-.01,0-.01.05,0,.05,0,.09.02.13.01.03.05.1.07.12.01.02.03.04.04.07.02.05.02.09,0,.15-.03.13-.06.23-.09.27-.01.02-.02.02-.03-.01-.02-.08-.06-.18-.1-.23-.02-.03-.03-.04-.04-.03,0,0,0,0,0,.02,0,.02,0,.05.01.09.02.09.02.1.01.1-.01,0-.04-.01-.05-.02-.01-.01-.02-.01-.02,0,0,.02.02.07.04.1.01.02.03.05.04.05,0,0,.01,0,.03.01.03.02.06.04.09.09,0,0,0,0,0,0s.02,0,.03-.02h0ZM2.43,5.95s.02-.03.03-.04c.02-.02.03-.02.05-.04l.03-.02.02-.02s.04-.06.05-.09c0-.02,0-.03,0-.03,0,0,0,0-.02,0-.02.02-.05.03-.05.02,0-.01,0-.04.02-.13,0-.03.01-.07,0-.08,0,0,0,0,0,0,0,0-.04.03-.07.09-.02.03-.06.13-.07.18,0,.03,0,.03-.01.03-.01,0-.02-.01-.04-.07-.03-.07-.07-.24-.07-.28,0-.04.02-.11.05-.15.02-.02.05-.08.06-.1.02-.05.03-.09.03-.15,0-.04,0-.05,0-.05,0,0,0,0-.02.01-.04.04-.1.15-.12.22,0,.03-.01.03-.02.03-.01,0-.03-.11-.03-.21,0-.05,0-.06-.02-.07-.01,0-.02,0-.03,0-.01.02-.01.03,0,.06,0,.04.01.08.02.12,0,.03,0,.11,0,.12,0,0-.01,0-.06-.04-.06-.06-.1-.09-.15-.11-.03-.01-.07-.02-.08-.02-.01,0,0,.03.04.08.03.03.06.07.09.09,0,0,.02.02.03.03s.03.02.04.03c.05.04.09.07.1.1.01.03.01.04-.03.1-.05.08-.07.12-.07.13,0,0,0,0,.01,0,0,0,.04-.03.05-.04.01-.01.02-.03.03-.04.03-.05.03-.05.03-.02.01.05.02.08.05.16.03.06.04.09.03.09,0,0,0,0-.01,0-.02-.01-.08-.04-.1-.05-.05-.02-.07-.02-.13-.02-.05,0-.07,0-.07,0,0,0,0,0,.01.01,0,0,.03.02.04.04.04.04.08.06.13.08.03,0,.04.01.05,0,.02,0,.05,0,.09.02.03.02.03.02.05,0h0Z"/>
      <path class="cls-4" d="M7.96,5.77s.07-.04.09-.07c.01-.02,0-.04-.02-.05-.02,0-.04,0-.09.04-.03.03-.04.06-.03.08,0,0,.03,0,.05,0h0ZM2.9,5.75s0-.01,0-.04c0-.01-.01-.02-.04-.04-.03-.03-.04-.03-.06-.04-.02,0-.04.01-.04.03,0,.02.03.06.05.07.02.01.05.02.07.02.01,0,.02,0,.02,0ZM8.7,5.66s.02-.03.02-.05c0,0,0-.01,0-.01s.01,0,.02.01c.02,0,.02.01.05.01.02,0,.03,0,.04,0,.01,0,.02-.03.02-.04,0-.01-.01-.04-.03-.05-.01,0-.02-.01-.03-.02-.01,0-.02-.01-.02-.01,0,0,0-.01,0-.02,0-.02,0-.03,0-.05,0-.02-.02-.03-.05-.03-.01,0-.02,0-.04.01-.07.04-.12.09-.12.12,0,.02,0,.03.03.04.02,0,.02.01.02.02,0,.04.01.04.03.06.02.02.04.03.05.01h0ZM2.16,5.63s.02-.02.02-.03c0,0,0-.02,0-.02,0,0,0-.01.02-.02.05-.01.05-.05,0-.1-.02-.02-.05-.05-.08-.07-.03-.02-.03-.02-.04-.02-.01,0-.02,0-.03,0-.02.02-.03.05-.02.08,0,0,0,.02,0,.02,0,0-.01,0-.02,0-.02,0-.04.02-.05.04-.01.02-.01.03,0,.05,0,.01,0,.02.02.02,0,0,.02,0,.02,0,.02,0,.05,0,.07-.02,0,0,.02,0,.02,0,0,0,0,0,0,.01,0,.01,0,.03.02.04,0,0,0,0,.02,0,.01,0,.02,0,.03-.02ZM7.53,5.64s0,0,0-.02c0-.04-.07-.13-.11-.15-.03-.01-.06,0-.06.01,0,.02.02.03.05.03.01,0,.01,0,0,.01,0,.01,0,.03,0,.04,0,.02.02.02.05.02.02,0,.02,0,.02.01,0,.01,0,.03.01.04.01.01.02.01.03,0h0ZM3.31,5.62s.03-.04.02-.05c0,0,0,0,.02,0,.02,0,.03,0,.03,0,.02-.01.03-.04.02-.06,0,0,0-.01,0-.01,0,0,.01,0,.02,0,.02,0,.02,0,.03-.01.02-.02,0-.03-.01-.03-.02,0-.05.01-.09.05-.03.04-.06.09-.06.12,0,.02.01.02.03.01h0Z"/>
      <path class="cls-5" d="M2.21,5.58s0,0,0,0c0,0,0,0,0,0,0,0,0,0,0,0,0,0,0,0,0,0Z"/>
      <path class="cls-4" d="M8.44,5.57s.05-.02.06-.03c0,0,0-.02,0-.03,0-.04-.02-.13-.06-.17-.01-.02-.03-.02-.06-.02-.03,0-.04,0-.06.02-.02.02,0,.05.05.08.02.01.02.02,0,.02-.02,0-.03.03-.04.04,0,.02,0,.05,0,.07.02.02.05.02.09.01h0ZM7.83,5.55s.02-.03,0-.06c-.01-.01,0-.02.02-.02.02,0,.02,0,.04,0,0,0,.02-.01.02-.02.01-.02,0-.05-.02-.06-.01,0-.01-.01,0-.01,0,0,.02-.01.03-.02,0-.01,0-.02,0-.04,0-.02,0-.03,0-.04,0-.02-.02-.03-.04-.03-.03,0-.05,0-.07.02h0s0,0,0,0c0,0,0-.01-.01-.02,0,0-.01-.01-.02-.02,0,0-.01,0-.03,0-.02,0-.02,0-.03,0,0,0,0,0,0,.01,0,.01,0,.04.01.05.01.01,0,.01-.03.01-.03,0-.03,0-.04,0-.01,0-.02.02-.02.03,0,.01.01.03.03.04.02,0,.02.01,0,.02-.02,0-.03.01-.04.02,0,.01,0,.02,0,.04.01.02.03.03.06,0,0,0,.02,0,.02,0s0,0,0,.02c0,.02,0,.02,0,.03.02.02.05.03.07.01.01,0,.02,0,.02,0,0,.02.03.02.05.01h0ZM2.45,5.54s.03-.05.02-.08c0-.01-.03-.03-.04-.04,0,0,0,0,0,0,0,0,0,0,.02-.01.02-.01.04-.03.05-.04.01-.02,0-.04-.02-.05-.01,0-.02,0-.04,0-.01,0-.03,0-.04,0-.03.01-.05.04-.07.1-.01.04-.02.08,0,.1,0,.02.03.04.06.04.02,0,.06,0,.07,0h0ZM3.02,5.54s.01,0,.02-.02c0,0,0-.01,0-.01,0,0,0,0,.01,0,.02.01.04.01.06-.01,0,0,0-.01.01-.03,0-.01,0-.02,0-.02,0,0,0,0,.01,0,.03.02.06.02.07,0,0-.03,0-.05-.04-.06-.01,0-.02,0-.02,0,0,0,0,0,.01-.01.03-.02.04-.04.03-.06,0-.02-.02-.02-.05-.02-.02,0-.04,0-.04,0,0,0,0,0,0-.01.01-.01.02-.04.01-.05,0-.01-.04-.02-.06-.01-.01,0-.03.02-.03.04,0,0,0,0,0,0s0,0-.02,0c-.02-.02-.07-.03-.09-.02-.01,0-.02.03-.03.05,0,.03.01.06.03.07,0,0,.01,0,.01,0s0,0,0,0c-.01,0-.02.02-.02.04,0,.02,0,.03.02.04.01,0,.02,0,.03,0,.03,0,.03,0,.02.02-.02.02-.02.03,0,.05.01.01.03.02.05,0h0Z"/>
      <path class="cls-4" d="M7.6,5.38s0,0,0-.01c0-.02,0-.03.01-.04.01-.01.02-.02.05-.02.01,0,.02,0,.02,0,0,0,0-.01,0-.02,0-.02,0-.02,0-.03,0-.02.02-.02.04-.03.02,0,.02,0,.03,0,.02,0,.02,0,.03,0,0,0,0-.03,0-.04-.01-.02-.04-.03-.06-.02,0,0-.03.02-.03.03,0,0,0,0-.02,0-.01,0-.02,0-.04,0-.02,0-.05,0-.06.02,0,0,0,0,0,.02,0,0,0,.02,0,.04,0,.01,0,.02,0,.02s0,0-.02,0c-.04,0-.05.03-.03.06,0,.02.01.02.03.03.02,0,.03,0,.03,0h0ZM3.27,5.36s.01-.01.02-.03c0-.03,0-.04-.03-.05-.03,0-.03,0-.02-.03,0-.02.01-.05,0-.06,0,0-.01,0-.02-.01-.02,0-.06,0-.08,0,0,0,0,0-.01,0,0,0,0,0,0,0-.01-.02-.03-.03-.05-.03-.02,0-.04.01-.04.02,0,.01,0,.03,0,.04,0,0,.01,0,.03,0,.02,0,.04,0,.05,0,.01,0,.02.02.02.05v.02s.02,0,.02,0c.04,0,.06.02.06.05,0,.02,0,.02.02.02,0,0,.02,0,.02,0h0Z"/>
      <path class="cls-1" d="M7.81,5.24s.03-.03.06-.05c.08-.03.12-.05.16-.07.03-.02.05-.03.08-.07.03-.03.07-.09.07-.09,0,0,0-.01.02-.03.02-.03.02-.04.02-.04-.01,0-.1.03-.13.06,0,0-.04.03-.07.05-.03.02-.07.05-.08.06l-.04.03s-.02.01-.02,0c0,0,.04-.04.09-.09.13-.12.2-.18.23-.23.02-.03,0-.03-.02-.02-.02,0-.07.04-.09.06-.02.02-.04.03-.06.05-.05.04-.11.1-.15.14-.01.01-.02.02-.02.02,0,0,0-.03,0-.04,0,0,0-.01,0-.01,0,0,0,0-.02,0-.01,0-.02,0-.02,0,0,0,0,0,0-.04,0-.04,0-.05.02-.08.03-.12.03-.12.02-.13,0,0-.04.02-.04.03,0,0,0,.01,0,.02,0,.02-.02.11-.02.15-.01.11-.01.11-.02.11,0,0-.01,0-.02-.01-.02-.02-.02-.01-.03.03,0,.01,0,.03,0,.04,0,.03,0,.03-.04-.02-.03-.04-.05-.06-.06-.07-.01,0-.04,0-.04,0,0,0,0,.01.01.02.03.02.06.06.09.1.02.03.03.05.03.05,0,0,0,0,.01,0,.01-.01.03-.02.04-.02.05,0,.08.05.05.09,0,.01,0,.02,0,.02,0,0,.01,0,.02-.01h0ZM3.03,5.23s0-.01,0-.02c0-.01,0-.02,0-.03,0-.02.01-.04.03-.05.02-.01.05,0,.07,0,0,0,.01,0,.02,0,0,0,0,0,.04-.06.03-.05.06-.08.08-.1.01,0,.02-.02,0-.02,0,0-.03,0-.04,0-.01,0-.03.03-.06.07-.02.03-.03.04-.03.04,0,0,0,0,0-.03,0-.05,0-.07-.02-.07,0,0-.01,0-.02.01s-.01,0-.02,0c0,0-.01-.01-.01-.03,0-.01,0-.04-.01-.09,0,0,0-.03,0-.05-.01-.1-.02-.11-.04-.13-.02-.02-.03-.02-.03-.01,0,0,0,0,0,.01,0,0,0,.03.02.07.02.06.03.11.03.14,0,.02,0,.03-.02.02-.02,0-.02,0-.02.02,0,.02,0,.04,0,.04,0,0-.01-.01-.03-.03-.03-.03-.06-.07-.12-.12-.08-.07-.11-.09-.17-.12-.02-.01-.02-.01-.03,0,0,0,0,0,0,.01.02.04.08.1.19.2.09.08.13.12.13.13,0,0,0,0,0,0,0,0-.02,0-.06-.04-.02-.01-.04-.03-.06-.04-.02-.01-.04-.03-.05-.04-.04-.03-.11-.07-.14-.08-.03,0-.03,0-.02.02.02.02.03.04.04.06,0,.01.01.02.04.06.03.04.12.11.17.13.02,0,.05.02.11.05.02,0,.04.03.05.04,0,.02.01.02.02,0h0Z"/>
      <path class="cls-4" d="M7.5,5.13s.04-.05.04-.11v-.04s.03,0,.03,0c.03,0,.05,0,.06-.02.02-.01.03-.02.03-.05,0-.02,0-.03-.02-.04-.01,0-.04,0-.07,0,0,0-.02,0-.02,0s0-.01,0-.02c0-.02,0-.03,0-.04,0-.02,0-.03-.02-.04-.02-.01-.03-.01-.05,0-.01.01-.03.04-.03.06,0,.02,0,.02-.01.01-.04-.06-.06-.07-.09-.06-.03,0-.04.03-.04.06,0,.01.02.04.04.05,0,0,.02.01.02.02s0,0-.01,0c-.04,0-.05.03-.04.07,0,.02.01.04.02.05.01,0,.04.01.06,0,.02,0,.02,0,.02,0,0,.03.01.07.03.09.01,0,.01,0,.03,0,0,0,.02,0,.03,0ZM8.72,5.13s.01-.01.01-.02c0-.01,0-.02,0-.03,0-.01,0-.02-.01-.04,0,0,0-.02,0-.02,0,0,.02,0,.03,0,.02,0,.03,0,.04-.01.03-.01.04-.04.03-.07-.01-.02-.04-.04-.07-.03-.01,0-.02,0-.02,0,0,0,0,0,0-.02.04-.07.03-.13-.03-.13-.02,0-.04.01-.05.03-.01.01-.02.04-.02.05,0,0,0,0-.02,0-.02-.02-.06-.04-.08-.04-.01,0-.02,0-.02,0-.01,0-.01.02-.01.04,0,.03.02.06.04.08,0,0,.02.02.02.02,0,0,0,0-.04.05-.03.03-.04.05-.02.07h0s.02.01.02.01c.02,0,.03,0,.05-.01.01,0,.03-.02.04-.02,0,0,.02-.01.02,0,0,0,0,0,0,.02.01.04.05.1.07.11.01,0,.02,0,.03,0h0ZM3.37,5.12s.03-.05.04-.08c0-.01,0-.02,0-.02,0,0,0,0,.01,0,.02,0,.04,0,.05,0,.01,0,.02-.01.03-.03,0-.01,0-.02,0-.04,0-.02,0-.02,0-.03,0,0-.02-.01-.03-.02,0,0-.02,0-.02,0,0,0,0,0,.01-.02,0,0,.02-.02.03-.03,0-.01.01-.02.01-.03,0-.03-.01-.04-.04-.05-.02,0-.04,0-.06.02,0,0-.02.02-.02.03-.01.02-.02.02-.02,0,0-.03-.02-.06-.04-.07-.01,0-.03,0-.04,0-.02.01-.03.05-.02.09,0,0,0,.02,0,.02,0,0,0,0-.02,0-.02,0-.04,0-.06,0,0,0-.01,0-.02.02-.02.04,0,.07.05.08,0,0,.03,0,.04,0,.01,0,.02,0,.02,0,0,0,0,.02,0,.04,0,.03,0,.07.02.08,0,.02.02.03.04.04.02,0,.02,0,.03,0h0ZM2.13,5.11s.06-.06.07-.1c0-.01,0-.02,0-.02,0,0,.01,0,.03.01.03.02.03.02.06.03.04.01.06,0,.06-.03,0-.02-.02-.04-.05-.07-.01-.01-.03-.02-.03-.02s0,0,.01-.01c.03-.02.06-.08.05-.12,0-.02-.02-.02-.06,0-.03.01-.05.02-.06.04,0,0,0,0,0,0,0,0,0,0,0-.02,0-.03-.03-.05-.05-.06-.02,0-.04,0-.05,0-.01,0-.02.03-.02.05,0,.02.01.05.03.08,0,0,0,.01,0,.01s-.02,0-.04,0c-.04,0-.04,0-.05,0-.02.01-.02.02-.02.04,0,.04.03.06.08.07,0,0,.02,0,.02,0,0,0,0,0,0,.02-.02.04,0,.09.02.09,0,0,.01,0,.02,0h0ZM7.95,4.82s.02-.02.02-.04c0-.03,0-.04-.03-.06-.03-.03-.03-.03.01-.02.03,0,.08,0,.09,0,.02-.01.03-.03.02-.06,0-.02-.02-.04-.06-.04-.02,0-.04,0-.09,0-.01,0-.01,0,0-.01.02,0,.03-.03.04-.04,0-.02.01-.06,0-.07,0-.03-.04-.05-.08-.04-.03,0-.05.05-.06.11,0,.02,0,.03,0,.03,0,0,0,0-.02-.02-.03-.04-.06-.07-.09-.06-.03,0-.05.03-.04.05,0,.04.05.08.1.09.01,0,.02,0,.02.01,0,0-.02,0-.04.01-.06.02-.09.04-.11.06-.01.02,0,.05.02.06,0,0,.01,0,.03,0,.03,0,.04,0,.07-.03.03-.02.04-.02.07-.05.02-.01.02-.01.02,0,0,.04.03.09.05.11.01,0,.03,0,.04,0h0ZM2.9,4.79s.03-.02.03-.03c0-.02.02-.05.02-.07,0-.01,0-.02,0-.03,0,0,.01,0,.04.02.03.02.08.06.1.06.02,0,.05,0,.06,0,.02,0,.03-.03.02-.06,0-.03-.05-.05-.11-.07-.03,0-.03-.01-.03-.02s0,0,.02-.01c.03,0,.03-.01.06-.03.04-.03.05-.07.03-.09-.01-.01-.03-.02-.05-.02-.03,0-.07.03-.09.06,0,.01-.01.02-.01.02,0,0,0,0,0-.02,0-.02,0-.06-.01-.08,0-.02-.03-.04-.04-.04-.03,0-.05,0-.07.01-.03.03-.01.12.03.14.01,0,.02.02,0,.01,0,0-.03,0-.06,0h-.05s-.02,0-.02,0c-.02.01-.03.02-.03.04,0,.05.04.07.12.04.02,0,.02,0,.02,0,0,0,0,0-.02.02-.02.01-.02.02-.03.05,0,.02,0,.02,0,.03,0,.02.03.03.05.02h0Z"/>
      <path class="cls-5" d="M5.45,6.41s0,0,.03-.13c.05-.18.05-.18.07-.24,0-.01,0-.04.01-.05,0-.01,0-.03,0-.04,0,0,0-.01,0-.02,0,0,.06-.01.1-.01h.01v.02s.02.02.02.02c0,.01.05.11.06.14,0,.02.02.04.02.06,0,.02.02.04.02.04,0,0,.02.04.03.07.04.08.04.09.03.09,0,0-.09.01-.1,0,0,0,0,0,0,0,0-.02-.02-.04-.02-.06,0,0,0-.01-.01-.02,0,0-.02,0-.04,0-.07,0-.11,0-.11.01,0,0,0,.02-.02.04,0,.02-.01.04-.02.04,0,0-.01,0-.04,0-.02,0-.04,0-.04,0,0,0-.01,0-.01,0h0Z"/>
      <path class="cls-4" d="M5.53,6.39s0,0,.02-.05c0-.02.01-.03.01-.04,0,0,.03,0,.07,0,.03,0,.07,0,.08,0,.02,0,.02,0,.03.02.02.04.02.05.03.06,0,0,.05,0,.06,0,0,0,0-.01,0-.04-.01-.03-.03-.06-.04-.09,0-.02-.02-.04-.02-.05-.02-.05-.04-.09-.06-.14,0,0-.01-.03-.02-.05-.01-.03-.02-.04-.02-.04,0,0-.02,0-.04,0-.03,0-.04,0-.04,0,0,0,0,.02-.01.04,0,.02-.01.05-.02.06-.02.09-.08.3-.09.31,0,.01,0,.02.03.02.02,0,.03,0,.03,0h0Z"/>
      <path class="cls-5" d="M5.59,6.23s0-.04.02-.07c0,0,0-.03.01-.05.01-.05.02-.08.02-.08,0,0,0,0,.02.04,0,.02.02.05.03.08.02.04.02.06.02.06,0,0-.02,0-.08.01h-.05s0,0,0,0Z"/>
      <path class="cls-3" d="M5.66,6.22s.03,0,.02-.02q-.04-.1-.05-.1s-.01.03-.02.06c-.01.04-.01.06-.01.06,0,0,.02,0,.05,0h0Z"/>
      <path class="cls-5" d="M5.23,6.41s-.03,0-.03,0c0,0,0,0,0-.02,0-.02-.01-.04-.02-.06,0-.02-.02-.06-.02-.07,0-.02-.01-.05-.02-.07-.01-.04-.02-.07-.03-.11,0-.02,0-.03-.01-.05-.02-.07-.03-.09-.02-.09,0,0,.09,0,.1,0,0,0,0,.01,0,.02v.05s.02.05.03.06c.01.06.04.16.04.16,0,0,0,0,0,0,0,0,0,0,0,0s0-.02.02-.04.02-.06.03-.08c0-.02.02-.05.02-.06,0-.01.01-.04.02-.05.01-.03.01-.03.02-.04,0,0,.06,0,.08,0,.01,0,.01,0,.01.01,0,0,0,.02-.01.04-.01.03-.07.17-.09.22-.03.06-.03.08-.04.1,0,.01-.01.04-.02.05-.01.04-.01.04-.07.03h0Z"/>
      <path class="cls-4" d="M5.27,6.39s.01-.02.06-.13c.01-.03.02-.06.03-.07,0-.01.01-.03.02-.05s.02-.05.03-.08c.03-.07.03-.08.03-.09,0,0-.02,0-.03,0-.03,0-.03,0-.04.02-.01.03-.03.07-.03.09,0,.01-.01.03-.04.11-.01.03-.04.11-.04.11,0,.01,0,0-.02-.03,0-.02,0-.04-.01-.04,0-.03-.03-.13-.05-.2,0-.03-.01-.05-.01-.06s0,0,0-.01c0,0,0,0-.03,0-.04,0-.04,0-.02.05.02.06.03.09.04.13,0,.02.01.04.02.06,0,.01.01.04.02.06.02.07.03.13.04.13,0,0,.01,0,.02,0h.03s.01,0,.01,0h0Z"/>
      <path class="cls-5" d="M4.88,6.37s-.03,0-.1-.02c-.06-.01-.13-.03-.19-.04-.01,0-.02,0-.02,0,0,0,0-.03,0-.06,0,0,0-.03,0-.04,0-.04.03-.13.04-.18,0-.02.01-.05.02-.07,0-.01,0-.04.01-.06,0-.03,0-.03.02-.03,0,0,.01,0,.02,0,0,0,.03,0,.05.01.02,0,.05.01.06.01.04,0,.09.02.12.03.06.01.06.01.06.02,0,0-.01.07-.02.08,0,0,0,0,0,0,0,0-.08-.02-.12-.03-.09-.02-.1-.02-.1-.01,0,0-.02.07-.02.07,0,0,0,0,.08.02.11.02.12.03.12.04,0,0-.02.07-.02.08,0,0,0,0-.03,0-.04,0-.08-.02-.13-.03-.04,0-.04-.01-.05,0,0,0-.02.07-.02.08,0,0,0,0,0,0,0,0,.08.02.15.04.03,0,.06.01.06.01.01,0,.02,0,0,.05-.01.05-.01.05-.03.04h0Z"/>
      <path class="cls-4" d="M4.89,6.35s0-.01,0-.02c0-.03,0-.03-.06-.04-.08-.02-.15-.04-.16-.04-.01,0-.01-.01,0-.06.01-.06.02-.06.02-.06,0,0,.15.03.17.04.02,0,.02,0,.03-.01,0,0,0-.02,0-.03v-.02s-.01,0-.01,0c-.01,0-.14-.04-.16-.04,0,0-.01,0-.02,0-.01,0-.01,0,0-.04,0-.02,0-.04.01-.04,0,0,0-.02,0-.02,0,0,.01,0,.06,0,.11.03.14.03.15.03.01,0,.01,0,.02,0,0-.01,0-.04,0-.05,0,0-.02,0-.08-.02-.01,0-.04,0-.07-.02-.07-.02-.12-.03-.13-.03,0,0,0,0-.01,0,0,0-.01.04-.02.09,0,.01,0,.04-.01.06,0,.02-.01.05-.02.07,0,.02-.01.06-.02.08-.02.09-.02.11-.02.11,0,0,0,0,.08.02.19.04.22.05.23.04Z"/>
      <path class="cls-5" d="M5.97,6.37s-.01-.03-.02-.06c-.03-.12-.06-.24-.09-.36,0,0,0-.01,0-.01,0,0,.03-.01.13-.03.01,0,.04,0,.05-.01.05-.01.07-.01.11,0,.03,0,.07.04.09.07.01.02.03.05.03.06,0,0,0,.02,0,.03,0,.02.01.08,0,.11,0,.04-.02.08-.03.11-.01.02-.04.05-.06.05,0,0-.04.01-.07.02-.09.02-.09.02-.12.03-.04.01-.04.01-.04,0h0Z"/>
      <path class="cls-4" d="M6.09,6.33c.1-.02.11-.03.13-.05.04-.04.06-.1.05-.18,0-.09-.04-.15-.09-.19-.02-.02-.04-.02-.08-.03-.03,0-.04,0-.16.03-.07.02-.07.02-.07.03,0,0,0,.03.01.07,0,.03.02.08.03.11,0,.03.02.06.02.08,0,.01,0,.04.01.06.02.08.02.09.03.1,0,0,0,0,.11-.02Z"/>
      <path class="cls-5" d="M6.04,6.27s0-.02,0-.03c0-.03-.01-.05-.02-.08-.04-.15-.04-.18-.04-.18,0,0,.08-.02.11-.03.04,0,.07.02.1.07.02.05.03.13.02.16-.02.05-.04.07-.13.09-.03,0-.03,0-.03,0h0Z"/>
      <path class="cls-3" d="M6.09,6.25s.05-.02.07-.03c.03-.03.04-.08.02-.15,0-.03-.02-.06-.04-.08-.02-.02-.03-.02-.06-.02-.01,0-.08.01-.09.02,0,0,0,.01,0,.04,0,.01.01.05.02.08,0,.03.02.06.02.08,0,.01,0,.03,0,.04,0,.02,0,.03.02.03,0,0,.02,0,.04,0h0Z"/>
      <path class="cls-5" d="M6.38,6.26s0-.02,0-.03c0-.01,0-.05,0-.09,0-.07,0-.1-.01-.18,0-.02,0-.05,0-.07,0-.09,0-.1,0-.11,0,0,.08-.04.1-.05,0,0,.02,0,.06.05.02.02.06.06.09.09.03.03.07.08.09.1.02.02.05.06.07.07s.03.03.03.03c0,0-.02.02-.06.03-.03.01-.03.01-.06-.02-.01-.01-.03-.03-.03-.03,0,0-.02,0-.07.03-.04.02-.07.03-.07.03,0,0,0,.01,0,.05v.04s0,0,0,0c0,0-.08.04-.09.04,0,0,0,0,0,0h0Z"/>
      <path class="cls-4" d="M6.43,6.23s.03-.02.03-.02c0,0,0-.02,0-.04,0-.02,0-.04,0-.04,0,0,.13-.07.15-.07,0,0,.01,0,.03.02.04.04.04.04.04.04,0,0,.02,0,.03-.01.02-.01.03-.01.03-.02,0,0-.01-.02-.04-.05-.02-.03-.07-.07-.09-.1-.03-.03-.06-.06-.06-.07,0,0-.02-.02-.03-.04-.04-.05-.06-.07-.07-.07,0,0-.08.03-.08.03,0,0,0,.05,0,.15,0,.02,0,.08,0,.12,0,.11.01.17.02.17,0,0,0,0,.04,0h0Z"/>
      <path class="cls-5" d="M6.46,6.04s0-.02-.01-.11c0-.06,0-.09,0-.09,0,0,.14.14.14.15,0,0,0,0-.02.01l-.04.02s-.05.02-.06.02c0,0,0,0,0,0h0Z"/>
      <path class="cls-3" d="M6.51,6.01s.03-.02.03-.02c0,0,0,0,0-.01,0-.01-.08-.09-.08-.09,0,0,0,0,0,0,0,0,0,.11.01.12,0,0,.02,0,.04-.01h0Z"/>
      <path class="cls-5" d="M4.38,6.23s-.05-.02-.06-.03c0,0,0-.04-.01-.07,0-.06-.01-.12-.02-.17,0-.03,0-.05,0-.06,0,0,0,0,0,0,0,0,0,0,0,0s0,0,0,.02c0,0-.02.04-.03.07-.02.04-.03.08-.05.11,0,.01-.01.02-.01.03,0,0-.01,0-.05-.01-.01,0-.02-.01-.04-.02,0,0,0,0,0-.01,0,0,0-.03.02-.06,0,0,.02-.04.03-.07.01-.03.03-.06.03-.08,0-.02.02-.04.02-.05s.01-.03.02-.05.02-.05.03-.06c.02-.04.02-.05.03-.05,0,0,.02,0,.05.02.03.01.04.02.04.02,0,0,0,.04.01.07.03.24.03.23.04.23,0,0,0,0,0,0,.01-.03.06-.13.07-.16,0-.02.02-.05.03-.07,0,0,0,0,0,0,0,0,.09.04.09.04,0,0-.01.03-.02.06-.01.03-.03.07-.03.08s-.01.04-.02.05c-.02.04-.04.09-.05.13,0,.02-.04.09-.04.09,0,0,0,0-.04,0h0Z"/>
      <path class="cls-4" d="M4.43,6.18c.02-.06.03-.07.04-.09,0-.02.02-.05.03-.07.02-.05.04-.1.07-.15,0-.02,0-.02,0-.03,0,0-.02,0-.03-.02-.02,0-.03,0-.03,0,0,0,0,.01-.01.02-.02.06-.03.07-.03.08,0,.01-.02.06-.05.12,0,.02-.02.04-.02.04,0,.03-.01.02-.02-.05,0-.05-.01-.1-.02-.14,0-.03,0-.06-.01-.09,0-.05,0-.07-.01-.07,0,0-.04-.02-.05-.03,0,0,0,0-.01,0,0,0-.02.03-.04.08-.02.04-.07.17-.1.24-.01.03-.03.06-.03.07,0,0,0,.01.03.02.03.01.03.01.04,0,0,0,.02-.04.02-.04,0,0,.01-.03.02-.06.01-.03.02-.06.03-.06,0,0,0-.02.01-.03s.02-.04.03-.06c0-.02.01-.03.02-.03,0,0,0,.01,0,.03v.06c.02.07.02.1.03.17,0,.04.01.08.01.09,0,.02.01.02.03.03,0,0,.02,0,.03,0,0,0,.01,0,.02,0,0,0,.01-.02.02-.04h0Z"/>
      <path class="cls-5" d="M6.24,5.51s-.07-.05-.09-.06c-.02-.01-.04-.02-.05-.03,0,0-.02-.02-.03-.02-.03-.02-.05-.04-.08-.06l-.04-.03-.04-.03-.04-.03s-.02-.02-.03-.02c-.01,0-.05-.04-.09-.06,0,0-.02-.01-.03-.02,0,0-.04-.03-.07-.05-.05-.04-.1-.07-.16-.11-.02-.01-.03-.02-.05-.03-.03-.02-.03-.02-.04-.02,0,0-.03.02-.08.05-.02.01-.04.03-.05.04-.02.01-.08.05-.13.09-.02.01-.05.04-.07.05-.04.03-.08.05-.11.08-.02.01-.04.03-.04.03s-.02.02-.03.02c-.01,0-.04.03-.05.04-.02.02-.05.03-.14.1-.02.01-.12.08-.13.09,0,0,0,0,0,0,0,0,0-.02.01-.04,0-.02.02-.06.03-.08,0-.02.02-.05.03-.08,0-.02.02-.06.03-.08,0-.02.02-.06.03-.09,0-.03.04-.12.07-.22.03-.09.07-.22.09-.27.02-.06.03-.1.03-.11,0,0,0-.01-.06-.05-.03-.02-.05-.04-.08-.06,0,0-.04-.03-.06-.04-.03-.03-.07-.05-.1-.08-.03-.02-.12-.09-.15-.11-.02-.01-.04-.03-.06-.04-.02-.01-.04-.03-.05-.04l-.06-.05s-.06-.04-.08-.06c-.08-.05-.12-.09-.12-.1,0,0,.06,0,.51,0,.48,0,.51,0,.52,0,0,0,.01-.03.03-.08.01-.04.03-.08.03-.09,0-.01.02-.05.03-.1.03-.08.05-.16.08-.23.03-.08.06-.19.08-.23.05-.17.08-.24.08-.24,0,0,0,.02.07.22.02.05.05.14.07.2.04.12.04.13.08.24.05.17.1.31.11.31,0,0,.02,0,.28,0,.15,0,.34,0,.42,0,.08,0,.19,0,.24,0,.08,0,.09,0,.09,0,0,0-.07.05-.11.09-.02.01-.05.04-.08.05-.03.02-.06.04-.09.07,0,0-.09.06-.1.07-.02.01-.09.07-.11.08,0,0-.02.01-.03.02s-.05.03-.08.06c-.03.03-.08.06-.09.07-.09.06-.13.1-.14.1,0,0,0,0,.03.12.02.05.04.11.04.13s.02.07.04.13c.02.05.04.12.05.15.02.07.06.18.08.26.01.04.02.07.03.08,0,0,.01.04.02.06.02.07.02.08,0,.06h0Z"/>
      <path class="cls-6" d="M6.23,5.47s0-.03-.02-.06c-.02-.08-.05-.15-.07-.23,0-.02-.02-.06-.03-.09,0-.03-.02-.06-.02-.08,0-.02-.02-.05-.02-.07,0-.03-.02-.06-.03-.09l-.03-.08s-.02-.05-.02-.07c-.03-.08-.06-.18-.06-.19,0,0,.03-.02.11-.08.06-.04.11-.08.12-.09,0,0,.02-.01.02-.02.03-.02.06-.04.08-.06.04-.03.06-.05.11-.08.03-.02.06-.05.08-.05.03-.02.05-.04.08-.06.03-.02.09-.06.13-.09s.07-.05.08-.06c0,0,0,0,0,0,0,0-.08,0-.18,0-.1,0-.23,0-.29,0s-.2,0-.31,0c-.21,0-.21,0-.22-.01,0,0-.02-.05-.03-.11-.01-.04-.03-.08-.04-.11-.03-.09-.05-.17-.08-.26-.01-.03-.03-.09-.05-.14-.01-.04-.02-.07-.04-.11l-.02-.05s0-.03-.01-.04c0-.02-.01-.03-.03-.09,0-.03-.01-.03-.02-.02,0,0-.05.14-.1.31-.02.05-.04.11-.05.14s-.02.06-.03.08c0,.02-.01.04-.02.05,0,.01-.01.04-.02.06-.08.26-.09.29-.1.3,0,0-.08,0-.17,0-.41,0-.82,0-.82,0,0,0,0,0,0,0,0,0,.08.06.13.1.03.02.03.02.11.08.03.02.06.04.09.07.01,0,.03.02.04.03.03.02.13.1.15.11.02.01.06.05.12.09.02.02.06.04.1.07.05.03.07.06.07.06,0,0,0,.02-.01.04,0,.02-.02.07-.04.12-.06.19-.13.38-.19.58-.03.1-.06.19-.06.2,0,.01,0,.01.09-.05.02-.02.06-.04.08-.06.02-.01.06-.04.08-.06.03-.02.06-.04.09-.07.02-.02.04-.03.06-.04.01,0,.03-.02.05-.03.05-.04.09-.06.11-.08.01,0,.04-.03.06-.04.04-.03.09-.06.13-.09.03-.02.05-.04.06-.04,0,0,0,0,.02,0,.01,0,.04.03.08.06.01,0,.04.03.05.04.05.04.1.07.12.08,0,0,.02.02.03.03,0,0,.03.02.04.03.01,0,.05.03.07.05.03.02.06.04.06.04.01.01.06.05.13.09.01,0,.03.02.05.04.03.02.11.08.14.1.02.02.03.02.03,0h0Z"/>
      <path class="cls-5" d="M9.06,4.83s-.06-.02-.08-.04c-.1-.07-.17-.18-.22-.34-.02-.06-.03-.07-.13-.1-.03,0-.06-.01-.09-.02-.01,0-.04-.01-.06-.02-.07-.02-.15-.05-.21-.07-.05-.02-.16-.08-.19-.1-.06-.04-.12-.09-.15-.13-.02-.02-.06-.07-.08-.1,0-.01-.01-.02-.02-.02,0,0-.02,0-.03.02-.05.03-.07.04-.11.04-.03,0-.05,0-.08-.02-.06-.03-.11-.07-.16-.14-.03-.03-.04-.05-.07-.12-.01-.02-.02-.05-.04-.07-.02-.04-.07-.11-.07-.12,0,0-.01-.02-.02-.03,0-.01-.03-.04-.04-.05-.03-.04-.06-.08-.09-.11-.01-.02-.04-.04-.05-.05-.03-.04-.05-.05-.16-.16-.02-.02-.1-.09-.13-.11,0,0-.02-.02-.03-.02-.03-.03-.15-.1-.19-.12-.01,0-.02-.01-.03-.02-.02-.01-.11-.06-.17-.08-.08-.04-.1-.04-.14-.05-.02,0-.03-.01-.05-.02-.02,0-.15-.05-.18-.05-.19-.04-.25-.05-.37-.06-.06,0-.1,0-.19,0-.13,0-.21,0-.33.02-.04,0-.2.03-.24.04-.06.01-.1.03-.12.03-.07.02-.13.04-.2.07-.01,0-.04.01-.05.02l-.07.03c-.1.04-.25.14-.33.19-.01,0-.03.03-.05.04-.01.01-.03.02-.04.03l-.03.03s-.07.06-.11.1c-.02.01-.03.03-.04.04-.04.03-.14.15-.19.21-.01.02-.03.04-.04.05-.04.05-.1.16-.14.23-.05.1-.13.19-.2.22,0,0-.02.01-.04.02-.02,0-.03,0-.06.01-.03,0-.04,0-.06,0-.03,0-.05-.02-.07-.04-.01,0-.02-.01-.02-.01,0,0-.02.01-.03.03-.05.07-.12.14-.19.19,0,0-.02.01-.03.02-.04.03-.12.07-.18.1-.11.05-.21.08-.32.1-.09.02-.11.03-.13.04-.03.01-.04.02-.06.08-.03.09-.05.15-.09.2-.02.04-.05.07-.07.09-.04.04-.09.07-.15.08-.01,0-.02,0-.02,0,0,0-.01,0-.01-.01,0-.01,0-.02.03-.04.04-.03.06-.05.09-.12.04-.07.05-.13.06-.23,0-.06,0-.07.02-.1.03-.06.08-.1.17-.14.03-.02.08-.05.12-.07.05-.03.12-.09.14-.1.09-.07.14-.13.17-.16,0-.01.02-.02.03-.03.03-.04.06-.08.08-.12.01-.03.02-.03,0-.04,0,0-.09-.03-.23-.06-.03,0-.09-.03-.11-.03-.02-.01-.04-.03-.06-.05-.05-.06-.03-.15.05-.27.03-.05.1-.13.15-.18.07-.07.11-.12.15-.17.02-.03.02-.04,0-.05-.03-.04-.07-.07-.13-.11-.09-.06-.17-.09-.29-.12-.06-.01-.08-.03-.11-.08-.01-.02-.03-.04-.06-.07-.09-.1-.09-.1-.09-.14,0-.03,0-.05-.02-.08-.02-.03-.05-.05-.1-.08-.02-.01-.08-.03-.1-.04-.01,0-.02-.01-.02-.02,0,0,0,0,0-.01.02-.02.15-.01.21,0,.07.02.12.06.16.11.02.03.04.09.05.14,0,.01,0,.02,0,.03,0,0,.01,0,.04,0,.04,0,.04,0,.1.01.09.01.16.04.23.07.06.03.1.06.13.1.02.02.05.07.06.09.02.03.04.07.06.1.04.08.08.14.1.17.03.04.05.07.06.07,0,0,0,0,.01,0,0,0,.02-.03.04-.05.07-.09.09-.12.16-.2.06-.06.2-.2.25-.25l.07-.06s.08-.07.13-.1c.04-.03.06-.05.11-.08.03-.02.16-.1.19-.12,0,0,.02-.01.03-.02.02-.01.21-.11.25-.13.01,0,.03-.01.04-.02.02,0,.04-.02.12-.05.03-.01.05-.02.08-.03l.08-.03c.12-.04.21-.06.35-.09.11-.02.15-.03.32-.05.02,0,.08,0,.2-.01.15,0,.39,0,.57.03.08.01.26.04.32.06h.03c.16.05.38.13.5.18.08.04.13.06.16.08.01,0,.03.02.05.03.06.03.22.13.29.19.14.1.15.11.28.22.07.06.26.26.32.33.03.04.1.14.11.15,0,.02.03.03.03.03.01,0,.1-.12.12-.18,0,0,.02-.03.03-.05l.04-.07s.03-.05.05-.08c.05-.08.08-.1.15-.14.03-.02.08-.04.1-.04.1-.03.14-.04.24-.05.05,0,.05,0,.06-.03,0-.04.02-.09.03-.12.03-.06.1-.11.19-.13.03,0,.04,0,.09,0,.03,0,.06,0,.07,0,.02,0,.03,0,.03.02,0,0,0,.01-.05.02-.05.02-.11.05-.13.08-.03.03-.04.06-.04.1,0,.01,0,.03,0,.03,0,0-.02.03-.05.06-.06.06-.09.09-.1.12-.01.02-.04.05-.06.06,0,0-.02,0-.04.01-.08.01-.15.04-.22.07-.08.04-.15.09-.19.13-.03.03-.04.05-.04.06,0,.01.05.09.09.14,0,.01.03.04.05.05.04.04.08.09.14.16.04.05.09.14.1.19,0,.04,0,.08,0,.1-.02.06-.08.09-.19.11l-.07.02s-.07.02-.12.03c-.02,0-.04.01-.04.02,0,.01.06.12.12.19.02.03.09.09.13.13.04.03.15.12.2.15.03.02.1.06.1.06,0,0,.06.04.08.05.03.02.07.06.08.08,0,0,.01.03.02.04,0,.02,0,.03.01.08,0,.08.02.13.04.2.03.07.07.12.11.15.02.01.03.02.02.04,0,.01-.02.02-.04,0h0Z"/>
      <path class="cls-4" d="M9.09,4.81s0,0-.01-.01c-.03-.02-.07-.06-.08-.08-.02-.04-.05-.1-.06-.15-.01-.04-.02-.07-.02-.13,0-.05,0-.06-.01-.08,0-.01-.01-.02-.02-.03-.02-.02-.07-.08-.1-.1-.02-.01-.04-.02-.05-.03-.07-.04-.15-.09-.17-.11,0,0-.01-.01-.02-.02,0,0-.02-.01-.03-.02s-.02-.02-.03-.02c-.03-.02-.16-.14-.19-.19-.04-.05-.09-.12-.11-.16,0-.02-.01-.02-.02-.02,0,0-.06.02-.09.03l-.04.02s-.07.04-.09.05c-.02.01-.05.05-.07.07,0,0-.02.02-.03.04,0,.01-.02.02-.02.02,0,0,.05.08.09.12.04.04.13.12.18.15.02.01.1.05.12.06,0,0,.03.01.05.02.09.04.19.07.39.12.04,0,.06.02.07.04.01.01.02.02.02.03.02.08.05.15.08.2.05.09.1.14.17.18.04.02.08.03.08.02h0ZM1.76,4.78c.07-.02.14-.07.18-.14l.02-.03s.07-.13.09-.21c.01-.05.03-.07.09-.09.01,0,.03,0,.05-.01.01,0,.03,0,.05-.01.01,0,.03,0,.05-.01.03,0,.1-.03.12-.03,0,0,.01,0,.02,0s.02,0,.04-.01c.08-.03.18-.07.21-.09,0,0,.02-.01.02-.01,0,0,.12-.07.15-.1.06-.05.08-.07.12-.12.03-.04.04-.05.04-.06,0,0-.05-.08-.08-.1-.02-.02-.07-.05-.11-.07-.04-.02-.13-.05-.14-.05,0,0-.01,0-.02.03-.03.05-.06.1-.1.15-.05.06-.19.19-.23.22,0,0-.03.02-.06.04-.06.04-.08.06-.13.08-.05.03-.08.04-.1.06-.03.02-.07.07-.08.09-.02.04-.02.04-.02.1,0,.1-.02.17-.07.25-.03.05-.05.08-.08.1-.02.01-.02.02-.02.03,0,0,0,0,.02,0h0Z"/>
      <path class="cls-4" d="M7.73,3.92s.1-.05.14-.1c.03-.04.05-.06.08-.08.03-.02.05-.03.11-.06.08-.03.19-.07.29-.09.06-.01.11-.03.12-.03,0,0,0,0-.02-.01-.08-.02-.16-.09-.25-.21-.04-.05-.06-.08-.08-.11,0-.02-.03-.05-.05-.08s-.04-.06-.04-.07c-.01-.02-.02-.03-.03-.05-.02-.02-.03-.05-.05-.07-.04-.06-.07-.1-.14-.18-.03-.04-.13-.14-.19-.2-.08-.08-.13-.12-.19-.18-.01,0-.02-.02-.04-.03-.03-.03-.07-.06-.13-.1-.02-.01-.04-.03-.05-.04-.05-.03-.1-.07-.15-.1-.02-.01-.05-.03-.07-.05-.03-.02-.11-.06-.16-.08-.02,0-.05-.03-.08-.04s-.04-.02-.04-.02-.02,0-.03-.02c-.06-.03-.21-.08-.33-.12,0,0-.03,0-.04-.01-.03-.01-.1-.03-.12-.03-.01,0-.03,0-.04,0-.02,0-.04,0-.06-.01-.01,0-.03,0-.04,0-.01,0-.02,0-.03,0-.02,0-.03,0-.05,0-.03,0-.11-.02-.14-.02-.02,0-.03,0-.05,0-.06,0-.18-.02-.3-.02-.16,0-.27,0-.41.02-.08,0-.15.02-.23.03-.09.02-.2.04-.21.05,0,0-.02,0-.04.01-.02,0-.05.01-.06.02-.06.02-.21.07-.24.08-.1.04-.29.13-.36.17-.1.06-.2.12-.23.14-.01,0-.04.03-.06.04-.09.07-.11.08-.15.11-.01.01-.03.03-.04.04,0,0-.01.01-.02.02,0,0-.01.01-.02.02-.03.02-.06.06-.11.1-.07.07-.08.08-.12.12-.02.02-.04.04-.06.06-.04.04-.08.09-.11.13l-.03.04s-.03.03-.04.06c-.02.03-.04.06-.05.07-.01.02-.03.04-.04.06-.01.02-.03.05-.04.06,0,.01-.02.03-.04.05s-.03.04-.04.06-.03.04-.03.04c0,0-.02.02-.04.04-.06.07-.11.12-.17.14-.03.01-.06.03-.07.03,0,0,0,0-.01,0-.01,0,0,.01.15.05.08.02.18.05.24.07.04.02.09.04.12.06.03.02.07.06.09.09.04.06.08.08.13.1.03,0,.06,0,.1,0,.06-.01.13-.06.19-.15.03-.04.03-.04.07-.11.01-.03.03-.06.04-.07s.02-.03.03-.05c.02-.03.04-.06.06-.09.01-.01.03-.04.04-.05.02-.03.04-.06.07-.08,0,0,.03-.03.05-.05.05-.05.18-.18.22-.22.11-.09.15-.12.2-.15,0,0,.02-.01.03-.02.1-.07.26-.14.39-.19.02,0,.04-.01.04-.02,0,0,.02,0,.03,0,0,0,.03,0,.05-.02.08-.02.19-.05.28-.07.16-.03.28-.04.45-.04.11,0,.26,0,.32.02,0,0,.02,0,.03,0,.02,0,.1.02.15.03.03,0,.09.02.19.05.01,0,.04.01.06.02.06.02.08.03.14.05h.03s.1.06.13.07c.02.01.1.05.12.06,0,0,.02.01.04.02.04.02.11.07.14.1.01.01.03.03.05.03.01,0,.03.02.04.03,0,0,.03.02.04.03.05.04.17.16.21.21,0,0,.02.03.04.04.03.03.05.06.08.1,0,.01.02.03.03.05.02.02.06.09.09.15,0,.01.02.04.03.06.03.06.04.08.07.12.09.11.18.17.28.15h0Z"/>
      <path class="cls-5" d="M3.53,3.12s-.07-.07-.11-.12-.09-.09-.11-.12c-.02-.03-.04-.04-.04-.05,0,0,.03-.03.12-.12.05-.04.08-.06.12-.06.02,0,.04,0,.06.02.03.02.05.05.06.09,0,.02,0,.02.04.03.03,0,.06.02.08.04,0,0,.02.02.02.04,0,.02.01.02.01.04,0,.04-.01.08-.05.11-.09.09-.15.14-.15.14,0,0-.02-.02-.04-.04Z"/>
      <path class="cls-4" d="M3.6,3.03s.08-.08.09-.09c0-.01,0-.03,0-.04,0,0-.02-.03-.03-.04,0,0-.01,0-.02,0-.02,0-.03,0-.08.06-.03.03-.04.04-.04.05,0,0,.05.06.06.07.01,0,.01,0,.02,0ZM3.5,2.86s.04-.04.04-.05c0-.02,0-.03,0-.05-.02-.02-.05-.03-.07-.01-.02.01-.08.08-.08.08,0,0,.01.02.03.03.02.02.03.03.04.03,0,0,.02,0,.05-.04Z"/>
      <path class="cls-5" d="M7.24,3.13s-.04-.03-.03-.07c0-.02.01-.05.01-.06s0-.03,0-.04c0-.01,0-.03.01-.05,0-.02,0-.04.01-.05.02-.1.02-.1.01-.1,0,0-.01,0-.04.04-.02.02-.05.05-.07.08s-.05.05-.06.07c-.02.02-.02.02-.03.02,0,0-.06-.06-.06-.06,0,0,0,0,.08-.09.06-.06.12-.13.18-.19.03-.03.04-.04.04-.04,0,0,.06.05.06.06,0,0,0,.05-.02.11-.02.08-.05.21-.05.22,0,0,0,0,.02,0,.08-.08.13-.14.14-.15.02-.02.04-.04.05-.04,0,0,.06.06.06.06,0,0-.02.02-.04.04-.02.02-.05.06-.07.08-.02.02-.05.06-.08.08-.02.02-.06.06-.08.08-.02.02-.04.04-.04.04,0,0-.02-.01-.03-.02h0ZM3.84,2.89s0,0,0,0c0,0,0-.03-.03-.1,0-.02,0-.03-.01-.05,0,0-.02-.09-.04-.15-.01-.04-.02-.07-.03-.11,0-.02,0-.02,0-.03,0,0,.08-.05.08-.05,0,0,.01,0,.03.02l.04.03s.03.02.04.03c.02.01.05.03.07.05.05.04.08.06.12.09.09.06.08.06.08.07,0,0-.06.05-.07.05,0,0-.02-.01-.05-.03-.01,0-.02-.02-.03-.02,0,0-.11.07-.12.08,0,0,0,.02,0,.06.01.04.01.04-.02.06-.01,0-.02.02-.03.02-.01,0-.02,0-.02,0Z"/>
      <path class="cls-4" d="M3.89,2.66s.01,0,.02-.01c0,0,.02-.01.03-.02.02-.02.02-.02,0-.04-.01,0-.04-.03-.06-.04-.02-.02-.04-.03-.04-.03,0,0,0,.02.02.11.01.04.02.05.03.04Z"/>
      <path class="cls-5" d="M6.93,2.84s-.03-.02-.04-.03c-.01-.01-.01-.01-.01-.02,0-.02.01-.03.05-.09.02-.03.02-.05,0-.07-.01-.01-.09-.07-.1-.07s-.02.01-.05.07c-.04.06-.05.07-.05.07,0,0-.07-.04-.07-.05,0,0,0-.02.02-.04.01-.02.04-.06.06-.09.02-.03.05-.08.07-.1s.03-.05.04-.06c.02-.04.05-.07.05-.08,0,0,.02,0,.04.02,0,0,.01,0,.01,0s.03.02.05.03l.07.05s.05.04.06.06c.01.02.01.05,0,.08,0,.03-.01.04-.03.06-.02.02-.04.03-.07.04-.02,0-.02,0-.02.03,0,.01,0,.02,0,.03,0,.02,0,.02-.03.06-.03.05-.04.06-.04.08,0,.01,0,.02,0,.02,0,0-.01,0-.03-.02h0Z"/>
      <path class="cls-4" d="M7.03,2.57s.05-.06.03-.08c0-.01-.11-.08-.12-.08,0,0,0,0-.02.01-.01.02-.05.07-.05.07,0,0,.02.02.08.07.03.02.05.02.07.01h0Z"/>
      <path class="cls-5" d="M4.27,2.6s-.02-.03-.03-.06c-.04-.07-.12-.24-.12-.24,0,0,0,0,0,0,0,0-.03.01-.08.03-.02.01-.03.02-.04.01,0,0-.01-.01-.02-.03-.01-.02-.01-.03-.01-.03,0,0,.06-.04.19-.1.11-.06.12-.06.12-.06,0,0,.03.05.03.06,0,0,0,0-.02.02-.04.02-.08.04-.08.05,0,0,0,.02.05.12.1.19.1.2.1.21,0,0,0,0-.04.02-.02,0-.04.02-.04.02s0,0,0,0ZM6.46,2.57s-.08-.03-.11-.06c-.04-.04-.06-.07-.06-.13,0-.04,0-.07.01-.1.02-.07.07-.13.13-.16.03-.02.05-.02.09-.02.06,0,.13.04.17.08.05.06.05.17.01.25-.03.06-.08.11-.14.13-.03,0-.08.01-.11,0Z"/>
      <path class="cls-4" d="M6.54,2.49c.06-.02.1-.09.11-.17,0-.05-.02-.1-.07-.12-.02-.01-.02-.01-.05-.01-.03,0-.03,0-.05,0-.03.01-.06.05-.08.09-.03.05-.03.11,0,.15,0,.02.03.04.06.05.03.01.06.01.08,0h0Z"/>
      <path class="cls-5" d="M4.62,2.45s-.01-.04-.03-.08c-.09-.26-.09-.25-.09-.26,0,0-.01,0-.03,0-.01,0-.04.01-.06.02-.04.01-.04.01-.05-.02-.01-.03-.01-.04,0-.05,0,0,.06-.02.13-.05s.14-.05.15-.05c.01,0,.03,0,.04-.01.02,0,.02,0,.03.03,0,.02,0,.03,0,.03,0,0-.02,0-.03.01-.05.02-.08.03-.08.03,0,0,0,.03.05.16.01.04.03.08.04.11,0,.02.02.05.02.06,0,.02,0,.02,0,.02,0,0-.07.03-.08.03,0,0,0,0,0,0h0ZM6.06,2.41s-.02,0-.03,0c0,0-.04-.01-.08-.02-.07-.02-.08-.02-.08-.03,0,0,0-.01,0-.03,0-.01.01-.04.02-.07.03-.12.08-.33.09-.33,0,0,0,0,0,0,0,0,.02,0,.04.01.04,0,.06.01.12.03.06.02.1.04.12.07,0,.01,0,.02,0,.05,0,.03,0,.04,0,.05,0,0-.02.02-.03.03l-.02.02h0c.02.05.02.08.02.11,0,.01,0,.03-.01.04-.01.02-.04.05-.06.05-.01,0-.02,0-.05,0-.03,0-.04,0-.06,0h0Z"/>
      <path class="cls-4" d="M6.13,2.33s.02-.02.03-.04c0-.02,0-.04-.01-.05,0,0-.02-.01-.08-.03-.05-.01-.06-.01-.06,0,0,0-.02.09-.02.09,0,0,.02.01.09.03.02,0,.05,0,.06,0h0ZM6.16,2.14s.03-.07,0-.09c-.01,0-.06-.02-.11-.03,0,0-.02,0-.02.01,0,0,0,.01,0,.02,0,0,0,.02,0,.03,0,0,0,.02,0,.02,0,0,0,.01.03.02.07.02.09.02.11.01Z"/>
      <path class="cls-5" d="M4.88,2.38s0-.03-.01-.07c0-.04-.02-.09-.02-.11-.01-.06-.02-.08-.02-.12,0-.02,0-.06-.01-.08,0-.04,0-.05,0-.05,0,0,.02,0,.04-.01.02,0,.04,0,.04,0,0,0,.01,0,.02.02,0,0,0,.04.01.08,0,.04.01.07.02.11,0,.01,0,.05.01.08,0,.06.01.07.02.07,0,0,.02,0,.04,0,.1-.02.16-.03.16-.03,0,0,0,.01,0,.02,0,.01,0,.02,0,.03,0,0,0,.01,0,.02,0,0,0,0-.12.03-.02,0-.05,0-.06.01-.02,0-.11.02-.12.02,0,0,0,0,0,0ZM5.26,2.32s0-.02,0-.05c0-.02,0-.12,0-.22,0-.12,0-.17,0-.18,0,0,.04,0,.16,0,.15,0,.16,0,.16,0,0,0,0,.06,0,.07,0,0-.02,0-.06,0-.03,0-.08,0-.11,0-.05,0-.05,0-.05,0,0,.01,0,.08,0,.09,0,0,.02,0,.1,0,.05,0,.1,0,.1,0h0v.08h0s-.05,0-.1,0c-.07,0-.09,0-.1,0,0,0,0,0,0,.05,0,.04,0,.05,0,.05,0,0,.01,0,.12,0,.1,0,.11,0,.12,0,0,0,0,0,0,.04,0,.02,0,.03,0,.03,0,0-.02,0-.04,0-.08,0-.25,0-.26,0,0,0-.01,0-.02,0h0Z"/>
      <path class="cls-4" d="M8.54,3.53s.06-.06.06-.1c0-.04-.02-.1-.04-.13,0,0,0-.02-.01-.03,0,0-.05-.07-.06-.09,0,0-.02-.02-.03-.04s-.03-.03-.04-.04c0,0-.03-.04-.06-.06-.02-.02-.05-.06-.07-.07-.03-.03-.07-.09-.08-.12-.02-.05-.04-.1-.04-.15,0-.03,0-.04-.01-.03,0,0-.05.09-.08.14-.01.02-.02.04-.03.05-.02.03-.06.09-.07.11,0,.01-.02.02-.02.03s0,.01.01.02c.01.02.08.12.13.2.04.05.09.13.13.17.04.05.09.09.13.11.04.03.07.03.12.03.03,0,.04,0,.05,0h0ZM2.39,3.51s.08-.03.11-.06c.04-.03.13-.12.15-.16.01-.02.05-.07.07-.1.01-.02.05-.07.09-.13.01-.02.03-.04.03-.05,0,0,.01-.02.01-.02,0,0,0-.02-.02-.03-.02-.02-.06-.09-.08-.12,0,0-.02-.03-.03-.06-.03-.06-.06-.11-.07-.12,0-.01-.01,0-.01.04,0,.02,0,.05,0,.05,0,.02-.03.08-.04.09,0,0,0,.02-.01.02,0,.01-.05.07-.07.09-.01.01-.04.04-.06.06s-.05.04-.05.05c0,0-.02.02-.04.04-.06.07-.09.11-.13.18,0,.02-.02.06-.03.09-.01.06.02.12.08.13.02,0,.07,0,.09,0Z"/>
      <path class="cls-4" d="M8.25,2.79s.05-.05.09-.08c.09-.06.17-.1.29-.13.03,0,.06-.02.07-.02.02,0,.04-.03.05-.06.01-.02.04-.06.08-.1,0,0,.01-.02.01-.02,0,0,0-.01-.08,0-.07,0-.12,0-.17.01h-.05c-.05.02-.13.04-.18.06-.09.04-.16.11-.17.18,0,.03,0,.07,0,.11,0,.02.02.05.02.06,0,0,.01,0,.04-.02h0ZM2.63,2.78c.02-.06.02-.13,0-.17-.02-.04-.06-.09-.1-.12-.04-.02-.11-.06-.15-.07-.06-.02-.12-.03-.19-.04-.08,0-.21-.01-.21,0,0,0,0,.01.03.04.05.05.06.06.07.08.01.02.03.05.05.05,0,0,.03.01.06.02.05.01.13.04.17.05.03.01.09.04.14.08.03.02.08.06.1.08.02.03.03.03.04,0ZM8.88,2.36s.03-.02.03-.03c0,0,0-.02,0-.03,0-.05.02-.08.05-.11.02-.02.05-.04.08-.05,0,0,.03-.01.05-.02.06-.02.06-.02,0-.03-.1,0-.19.02-.25.06-.03.02-.05.05-.07.09-.01.03-.02.05-.02.08,0,.03,0,.03,0,.04,0,0,.01,0,.06,0,.05,0,.05,0,.07,0ZM2.08,2.35s0,0,0,0c0-.01-.02-.07-.02-.09-.01-.03-.01-.04-.03-.06-.03-.05-.09-.09-.16-.11-.04-.01-.08-.02-.13-.02-.04,0-.05,0-.05,0,0,0,0,0,.04.02.03.01.07.03.09.04.04.02.07.05.08.08,0,.02.02.05.02.07,0,.04.02.06.06.07,0,0,.03,0,.05,0,.04,0,.04,0,.04,0Z"/>
    </g>
  </g>
</svg>