<?xml version="1.0" encoding="UTF-8"?>
<svg id="Layer_2" data-name="Layer 2" xmlns="http://www.w3.org/2000/svg" viewBox="0 0 25.51 17.01">
  <defs>
    <style>
      .cls-1 {
        fill: #010101;
      }

      .cls-2 {
        fill: #c62127;
      }

      .cls-3 {
        fill: #ffc50f;
      }
    </style>
  </defs>
  <g id="Layer_1-2" data-name="Layer 1">
    <g>
      <path class="cls-3" d="M0,0h25.51v17.01H0V0Z"/>
      <g>
        <g>
          <path class="cls-1" d="M13.56,5.01v6.99M13.02,4.44v8.12M12.49,4.44v8.12M11.96,5.01v6.99"/>
          <path class="cls-2" d="M13.02,12.76c-.11,0-.19-.09-.19-.19V4.44c0-.11.09-.19.19-.19s.19.09.19.19v8.12c0,.11-.09.19-.19.19ZM12.49,12.76c-.11,0-.19-.09-.19-.19V4.44c0-.11.09-.19.19-.19s.19.09.19.19v8.12c0,.11-.09.19-.19.19ZM13.56,12.19c-.11,0-.19-.09-.19-.19v-6.99c0-.11.09-.19.19-.19s.19.09.19.19v6.99c0,.11-.09.19-.19.19ZM11.96,12.19c-.11,0-.19-.09-.19-.19v-6.99c0-.11.09-.19.19-.19s.19.09.19.19v6.99c0,.11-.09.19-.19.19Z"/>
        </g>
        <g>
          <path class="cls-1" d="M9.26,7.7h6.99M8.7,8.24h8.12M8.7,8.77h8.12M9.26,9.3h6.99"/>
          <path class="cls-2" d="M16.25,9.5h-6.99c-.11,0-.19-.09-.19-.19s.09-.19.19-.19h6.99c.11,0,.19.09.19.19s-.09.19-.19.19ZM16.82,8.96h-8.12c-.11,0-.19-.09-.19-.19s.09-.19.19-.19h8.12c.11,0,.19.09.19.19s-.09.19-.19.19ZM16.82,8.43h-8.12c-.11,0-.19-.09-.19-.19s.09-.19.19-.19h8.12c.11,0,.19.09.19.19s-.09.19-.19.19ZM16.25,7.89h-6.99c-.11,0-.19-.09-.19-.19s.09-.19.19-.19h6.99c.11,0,.19.09.19.19s-.09.19-.19.19Z"/>
        </g>
      </g>
      <g>
        <circle class="cls-3" cx="12.76" cy="8.5" r="1.32"/>
        <path class="cls-2" d="M12.76,9.92c-.78,0-1.42-.64-1.42-1.42s.64-1.42,1.42-1.42,1.42.64,1.42,1.42-.64,1.42-1.42,1.42ZM12.76,7.28c-.68,0-1.23.55-1.23,1.23s.55,1.23,1.23,1.23,1.23-.55,1.23-1.23-.55-1.23-1.23-1.23Z"/>
      </g>
    </g>
  </g>
</svg>