<?xml version="1.0" encoding="UTF-8"?>
<svg id="Layer_2" data-name="Layer 2" xmlns="http://www.w3.org/2000/svg" viewBox="0 0 25.51 17.01">
  <defs>
    <style>
      .cls-1 {
        fill: #fff;
      }

      .cls-1, .cls-2, .cls-3, .cls-4 {
        fill-rule: evenodd;
      }

      .cls-2 {
        fill: #c02033;
      }

      .cls-3, .cls-5 {
        fill: #1d2859;
      }

      .cls-4 {
        fill: #ffcb05;
      }
    </style>
  </defs>
  <g id="Layer_1-2" data-name="Layer 1">
    <g>
      <path class="cls-1" d="M0,0h25.51v17.01H0V0Z"/>
      <path class="cls-2" d="M0,0h25.51v8.51H0V0Z"/>
      <path class="cls-3" d="M0,0h8.51v17.01H0V0Z"/>
      <g>
        <path class="cls-4" d="M1.27,3.99c-.53.3-.63.42-.92.65h.65c0,.07-.15.82-.16.88.49-.32.72-.47,1.38-.66.26-.07-.02-.34-.05-.41-.18.08-.32.18-.45.3"/>
        <path class="cls-5" d="M.81,5.55v-.04c.02-.05.15-.71.17-.84H.3s.04-.04.04-.04c.07-.05.13-.1.18-.15.18-.15.33-.28.74-.5l.02.03c-.41.23-.56.35-.74.5-.05.04-.09.08-.14.12h.62s0,.03,0,.03c0,.05-.12.65-.15.82.48-.32.71-.46,1.35-.64.05-.01.08-.04.09-.07.02-.07-.05-.18-.11-.25-.02-.02-.03-.04-.04-.06-.16.07-.29.16-.43.29l-.02-.03c.15-.13.29-.22.46-.3h.02s0,0,0,0c0,.01.02.04.04.07.06.08.14.19.11.28-.01.04-.05.07-.12.09-.65.18-.88.32-1.38.66l-.04.02Z"/>
      </g>
      <g>
        <path class="cls-4" d="M1.73,4.73c.99-.91,4.27-.89,5.18.03.03-.01.62-1.01.59-1-1.79-1.26-5.01-1.04-6.36-.05l.02.06.56.96h0Z"/>
        <path class="cls-5" d="M6.91,4.78h0c-.42-.43-1.4-.69-2.55-.7-1.15,0-2.15.25-2.61.66h-.02s-.58-.97-.58-.97l-.02-.07h0c1.38-1.02,4.59-1.2,6.37.04h0s0,.01,0,.01c0,0,0,.02-.28.52-.29.49-.31.5-.32.5h-.01ZM4.3,4.05s.03,0,.05,0c1.15,0,2.13.27,2.56.69.08-.1.53-.86.57-.96-1.76-1.23-4.94-1.05-6.32-.05v.05s.56.94.56.94c.46-.41,1.44-.66,2.57-.66Z"/>
      </g>
      <path class="cls-5" d="M1.9,4.39s-.04-.01-.05-.03c-.01-.02-.18-.33-.29-.54-.01-.02,0-.05.01-.07.02-.02.05-.02.07,0l.35.31-.08-.45s0-.05.03-.06c.02,0,.05,0,.06.02l.3.51s0,.06-.02.07c-.03.01-.06,0-.07-.02l-.15-.26.06.31s0,.04-.03.06c-.02.01-.04,0-.06,0l-.24-.21c.15.27.15.28.15.29.01.03,0,.06-.03.07,0,0-.01,0-.02,0ZM3.6,3.87s-.05-.02-.05-.05c0-.09.06-.17.1-.22,0,0,0,0,0,0l.12-.1s.02-.05.02-.09c0-.03-.01-.06-.03-.07-.04,0-.08-.01-.11,0-.02.02-.03.05-.03.09,0,.03-.02.05-.05.05h0s-.05-.02-.05-.05c0-.1.04-.15.08-.17.05-.04.13-.05.21-.02,0,0,.01,0,.02,0,.04.03.07.08.07.15,0,.07,0,.13-.05.17,0,0,0,0,0,0l-.12.1s-.05.06-.06.09h.22s.05.01.06.04-.02.05-.05.06h-.28s0,.01,0,.01ZM4.15,3.86s-.06,0-.09-.02c0,0,0,0,0,0-.05-.04-.07-.09-.08-.14-.02-.07-.02-.24-.01-.32,0,0,0,0,0,0,.01-.06.03-.12.11-.16.04-.02.11-.02.17,0,0,0,0,0,.01,0,.05.04.07.09.08.14,0,0,0,0,0,0,.02.07.02.27,0,.34-.02.06-.05.12-.1.14-.02.01-.05.02-.08.02ZM4.11,3.75s.05,0,.06,0c.02-.01.04-.04.05-.08.02-.05.02-.23,0-.29-.01-.04-.02-.06-.04-.07-.03-.01-.06,0-.07,0,0,0,0,0,0,0-.03.01-.04.03-.05.09,0,.06,0,.22,0,.28.01.04.02.06.04.08ZM4.09,3.26h0,0Z"/>
      <path class="cls-5" d="M5.51,3.92s0,0,0,0c-.03,0-.05-.03-.05-.06l.06-.42s-.03.02-.05.02c-.03.01-.06,0-.07-.03-.01-.03,0-.06.03-.07.05-.02.08-.05.12-.09.02-.02.04-.02.06-.01.02,0,.03.03.03.06l-.08.56s-.03.05-.05.05Z"/>
      <path class="cls-5" d="M5.81,4s-.02,0-.02,0c-.03-.01-.04-.04-.03-.07.07-.16.16-.29.28-.43-.19-.06-.2-.06-.2-.06-.03-.01-.04-.04-.03-.07.01-.03.04-.04.07-.03.01,0,.17.05.27.08.02,0,.03.02.04.04,0,.02,0,.04,0,.05-.14.17-.23.3-.31.47,0,.02-.03.03-.05.03Z"/>
      <path class="cls-5" d="M6.23,4.12s-.02,0-.03,0c-.02-.02-.03-.05-.01-.07.1-.15.22-.27.34-.37l-.18-.09s-.04-.04-.02-.07c.01-.03.04-.04.07-.02l.26.13s.03.02.03.04c0,.02,0,.04-.02.05-.14.1-.27.23-.38.4-.01.01-.03.02-.04.02Z"/>
      <path class="cls-5" d="M6.76,4.36c-.13,0-.2-.08-.22-.22,0-.03.02-.06.05-.06s.06.02.06.05c.01.1.05.12.11.12.03,0,.06-.01.08-.04.03-.03.04-.07.03-.13-.02-.05-.05-.09-.15-.07-.02,0-.04,0-.06-.02-.01-.02-.01-.04,0-.06l.15-.2s.05-.03.07-.01l.17.1s.03.05.02.07c-.01.03-.05.03-.07.02l-.13-.08-.06.08c.08.01.13.07.16.15,0,0,0,0,0,0,.01.08,0,.16-.05.21-.04.05-.1.07-.16.08Z"/>
      <path class="cls-5" d="M2.41,4.1s0,0,0,0c-.03,0-.05-.03-.05-.05.01-.43.02-.56.02-.61h0s0-.01,0-.02c0,0,0,0,0-.01,0,0,.02-.01.03-.01.05-.01.05-.01.4.53.02.02,0,.06-.02.07-.02.02-.06,0-.07-.02-.03-.05-.06-.1-.1-.15l-.17.05c0,.06,0,.12,0,.18,0,.03-.02.05-.05.05ZM2.48,3.59c0,.05,0,.11,0,.17l.1-.03c-.03-.05-.07-.1-.1-.14Z"/>
      <path class="cls-4" d="M1.07,9.8h.34s-.01-1.46-.01-1.46l.65,1.48h.35v-2.16h-.34s0,1.37,0,1.37l-.61-1.36h-.38s0,2.14,0,2.14Z"/>
      <path class="cls-4" d="M7.27,8.34h.36v-.19c-.01-.12-.06-.28-.18-.39-.08-.09-.18-.14-.3-.17-.11-.04-.36-.03-.49.04-.15.09-.29.24-.37.49-.11.42-.06.94,0,1.19.09.26.22.4.4.49.11.04.31.07.49.02.2-.08.29-.21.37-.35.05-.09.1-.28.09-.48h-.38c0,.08-.01.16-.03.24-.04.1-.11.17-.27.17-.11,0-.18-.05-.25-.13-.08-.08-.1-.26-.11-.31-.02-.23-.03-.45.04-.69.03-.1.07-.19.14-.23.11-.06.22-.05.28-.03.08.03.16.09.18.17.02.08.02.12.02.17h0Z"/>
      <path class="cls-1" d="M5.17,9.87l-.81-.63-.83.63.33-.98-.84-.62,1.01.02.31-1.01.3.99h1.03s-.83.59-.83.59l.33,1.01h0Z"/>
      <path class="cls-5" d="M2.32,4.82l-.03-.02s.01-.02.01-.02c0,0-.02-.03-.13-.04-.03,0-.07,0-.11,0-.04,0-.09,0-.13.01-.1.02-.18.03-.22-.01l.02-.02s.1.02.19,0c.04,0,.09,0,.13-.01.04,0,.07,0,.11,0,.1,0,.15.03.17.06,0,.02,0,.04-.02.06Z"/>
      <g>
        <path class="cls-4" d="M7.37,4.02c.53.3.63.42.92.65h-.65c0,.07.15.82.16.88-.49-.32-.72-.47-1.38-.66-.26-.07.03-.35.06-.42.18.08.33.18.44.3"/>
        <path class="cls-5" d="M7.83,5.59l-.04-.02c-.5-.33-.73-.47-1.38-.66-.06-.02-.1-.05-.12-.09-.03-.09.05-.2.12-.28.02-.03.04-.05.05-.07v-.02s.02,0,.02,0c.2.09.35.19.45.31l-.03.02c-.1-.11-.23-.2-.42-.29,0,.02-.02.04-.04.06-.05.07-.13.18-.11.25.01.03.04.05.09.07.64.18.87.32,1.35.64-.03-.17-.15-.77-.15-.82v-.02s.62-.01.62-.01c-.05-.04-.1-.08-.14-.12-.18-.15-.33-.27-.74-.5l.02-.03c.41.23.56.36.74.5.06.05.11.09.18.15l.04.03h-.67c.02.14.15.8.16.86v.04Z"/>
      </g>
      <path class="cls-5" d="M6.33,4.86s-.02-.04-.02-.06c.02-.04.08-.06.17-.07.08,0,.16.01.22.02h0s.02,0,.03,0c.06,0,.11.01.15-.01v.03s-.09.02-.16.01c-.01,0-.02,0-.03,0h0c-.07-.01-.14-.02-.22-.02-.08,0-.13.02-.14.04,0,0,0,.01,0,.02l-.02.03Z"/>
      <path class="cls-5" d="M4.6,3.51s0,0,0,0c0,0-.1,0-.2,0-.02,0-.04-.02-.04-.04,0-.02.02-.04.04-.04.1,0,.2,0,.2,0,.02,0,.04.02.04.04,0,.02-.02.04-.04.04Z"/>
      <path class="cls-5" d="M4.93,3.88s0,0,0,0c-.02,0-.04-.02-.04-.04.01-.18,0-.27-.02-.3-.02-.02-.05-.02-.12-.02v.3s-.03.04-.05.04c-.02,0-.04-.02-.04-.04v-.49s.03-.04.05-.04c.02,0,.04.02.04.04v.11c.06,0,.13,0,.17.05.05.05.06.14.04.36,0,.02-.02.04-.04.04Z"/>
      <path class="cls-5" d="M4.56,3.86s-.07,0-.1-.03c-.03-.03-.03-.07-.03-.11v-.41s.03-.04.05-.04c.02,0,.04.02.04.04v.41s0,.05,0,.05c0,0,.01,0,.04,0,.02,0,.04.02.04.04s-.02.04-.04.04Z"/>
      <path class="cls-5" d="M3.04,3.95s-.05-.02-.05-.04l-.04-.26-.24-.24s-.02-.05,0-.08c.02-.02.05-.02.08,0l.2.21.11-.27s.04-.04.07-.03c.03.01.04.04.03.07l-.14.35.04.24s-.01.06-.04.06c0,0,0,0,0,0Z"/>
      <g>
        <path class="cls-4" d="M1.29,13.18c-.53-.29-.63-.41-.92-.63h.65c0-.07-.15-.8-.16-.86.49.32.72.46,1.38.64.26.07-.02.33-.05.4-.18-.08-.32-.17-.45-.29"/>
        <path class="cls-5" d="M1.29,13.19c-.41-.22-.56-.35-.74-.49-.06-.04-.11-.09-.18-.14l-.04-.03h.68c-.02-.14-.15-.79-.16-.84v-.04s.03.02.03.02c.5.32.73.46,1.38.64.06.02.1.05.12.09.03.08-.05.19-.11.27-.02.03-.04.05-.04.07v.02s-.02,0-.02,0c-.17-.07-.31-.16-.46-.29l.02-.03c.14.12.27.21.43.28,0-.02.02-.03.04-.06.05-.07.13-.17.11-.24-.01-.03-.04-.05-.09-.07-.64-.18-.87-.31-1.35-.62.03.17.15.75.15.8v.02s-.61.01-.61.01c.05.04.1.08.14.11.18.14.33.27.74.49l-.02.03Z"/>
      </g>
      <g>
        <path class="cls-4" d="M1.75,12.45c.99.89,4.27.87,5.18-.03.03.01.62.99.59.97-1.79,1.23-5.01,1.02-6.36.05l.02-.06.56-.94Z"/>
        <path class="cls-5" d="M4.3,14.27c-1.23,0-2.43-.29-3.14-.81h0s.02-.08.02-.08l.57-.96h.02c.46.42,1.46.67,2.61.66,1.15,0,2.13-.27,2.55-.68h0s0,0,0,0c0,0,.03,0,.32.49.29.48.29.5.28.51v.02s-.01,0-.01,0c-.86.59-2.06.85-3.23.85ZM1.19,13.44c1.38.98,4.55,1.15,6.32-.05-.05-.1-.5-.84-.57-.94-.43.41-1.41.67-2.56.67-.01,0-.03,0-.05,0-1.13,0-2.11-.25-2.57-.65l-.55.92v.04Z"/>
      </g>
      <path class="cls-5" d="M2.19,12.48s-.07,0-.11,0c-.04,0-.09,0-.13-.01-.09-.02-.16-.03-.19,0l-.02-.02s.12-.03.22-.01c.04,0,.08,0,.13.01.04,0,.08,0,.11,0,.11,0,.13-.03.13-.04,0,0,0-.02-.01-.02l.03-.02s.02.04.02.06c-.01.03-.06.05-.16.06Z"/>
      <g>
        <path class="cls-4" d="M7.39,13.15c.53-.29.63-.41.92-.63h-.65c0-.07.15-.8.16-.86-.49.32-.72.46-1.38.64-.26.07.03.34.06.41.18-.08.33-.17.44-.29"/>
        <path class="cls-5" d="M7.4,13.16l-.02-.03c.41-.22.56-.35.74-.49.04-.04.09-.07.14-.11h-.62s0-.03,0-.03c0-.05.12-.64.15-.8-.48.31-.71.45-1.35.62-.05.01-.08.04-.09.07-.02.07.06.17.11.24.02.02.03.04.04.06.19-.08.33-.18.42-.28l.03.02c-.1.11-.25.21-.45.3h-.02s0,0,0,0c0-.01-.03-.04-.05-.07-.06-.08-.14-.19-.12-.28.01-.04.05-.07.12-.09.65-.18.88-.32,1.38-.64l.04-.02v.04s-.15.69-.17.82h.68s-.04.04-.04.04c-.07.05-.13.1-.18.14-.18.14-.33.27-.74.49Z"/>
      </g>
      <path class="cls-5" d="M6.5,12.45c-.09,0-.15-.02-.17-.06,0-.02,0-.04.02-.06l.02.03s0,.02,0,.02c0,.02.05.04.14.04.07,0,.15-.01.22-.02h0s.02,0,.03,0c.06,0,.12-.01.17.01v.03c-.06-.02-.11-.02-.17-.01-.01,0-.02,0-.03,0h0c-.07.01-.15.02-.22.02Z"/>
      <path class="cls-5" d="M4.33,14.08s-.05-.02-.05-.05c0-.09.06-.17.12-.21l.12-.09s.03-.07.03-.1c0-.03-.01-.05-.03-.06-.09-.02-.13-.02-.15.07,0,.03-.04.04-.07.04-.03,0-.04-.04-.04-.07.06-.2.21-.16.29-.15,0,0,.01,0,.02,0,.04.03.07.08.08.14,0,.07-.01.14-.06.19,0,0,0,0,0,0l-.12.09s0,0,0,0c-.02.02-.05.04-.06.07h.23s.05.02.05.05c0,.03-.02.05-.05.05h-.3s0,0,0,0Z"/>
      <path class="cls-5" d="M4.1,14.08s0,0,0,0c-.03,0-.05-.03-.05-.06l.02-.39s-.01,0-.02.01c-.03.01-.06,0-.07-.02s0-.06.02-.07c.04-.02.05-.03.09-.08.01-.02.04-.03.06-.02.02,0,.04.03.04.05l-.02.53s-.02.05-.05.05Z"/>
      <path class="cls-5" d="M3.55,14.03s0,0,0,0l-.34-.05v-.05s.1-.55.1-.57c0-.03.03-.05.05-.05,0,0,0,0,0,0,.03,0,.05.03.05.05,0,0-.06.39-.09.53l.23.03s.05.03.05.06c0,.03-.03.05-.05.05Z"/>
      <path class="cls-5" d="M3.02,13.96s0,0,0,0c-.03,0-.05-.03-.04-.06l.09-.6s.03-.05.06-.04c.03,0,.05.03.04.06l-.09.6s-.03.05-.05.05Z"/>
      <path class="cls-5" d="M2,13.65s-.01,0-.02,0c-.03-.01-.04-.04-.03-.07l.24-.61.05.03s.04.02.06.03c.05.02.11.04.17.09h0s0,.01,0,.01c.04.06.04.16,0,.23-.03.06-.09.1-.16.11h0s0,0,0,0c-.07,0-.12-.04-.18-.06h0s-.09.22-.09.22c0,.02-.03.03-.05.03ZM2.18,13.29s0,0,.01,0c.05.02.09.04.14.05.03,0,.05-.02.07-.05.02-.04.02-.09,0-.12-.04-.03-.09-.05-.13-.07,0,0-.01,0-.02,0l-.07.18Z"/>
      <path class="cls-5" d="M5.78,13.97s-.05-.02-.05-.04l-.08-.45s-.02.03-.04.04c-.02.02-.05.02-.07,0-.02-.02-.02-.05,0-.07.03-.03.06-.07.08-.13,0-.02.03-.04.05-.03.02,0,.04.02.05.04l.11.59s-.01.06-.04.06c0,0,0,0,0,0Z"/>
      <path class="cls-5" d="M6.12,13.88s-.05-.02-.05-.05c-.03-.18-.02-.37-.01-.54-.21.07-.21.07-.22.07-.03,0-.06,0-.06-.04,0-.03,0-.06.04-.06.01,0,.18-.06.28-.1.02,0,.04,0,.05,0,.01.01.02.03.02.05-.01.18-.02.4,0,.6,0,.03-.02.06-.05.06,0,0,0,0,0,0Z"/>
      <path class="cls-5" d="M6.56,13.71s-.05-.02-.05-.04c-.04-.15-.03-.35-.02-.54l-.21.08s-.06,0-.07-.03c-.01-.03,0-.06.03-.07l.29-.11s.04,0,.05,0c.01.01.02.03.02.05h0c-.01.22-.02.44.01.59,0,.03-.01.06-.04.06,0,0,0,0-.01,0Z"/>
      <path class="cls-5" d="M6.95,13.5s-.04,0-.07-.01c-.07-.02-.13-.08-.16-.16-.04-.08-.07-.18-.07-.27,0,0,0,0,0,0,0-.08.02-.14.1-.21,0,0,.01,0,.02-.01.09-.02.17,0,.21.08.02.03,0,.06-.02.07-.03.02-.06,0-.07-.02-.02-.03-.04-.04-.08-.03-.04.04-.05.07-.05.12,0,.02,0,.03,0,.05.02-.02.04-.04.06-.05,0,0,0,0,0,0,.06-.03.1-.02.16,0,0,0,0,0,0,0,.07.04.12.11.13.2,0,0,0,0,0,0,0,.06-.01.14-.05.19,0,0,0,0,0,0-.03.03-.07.04-.11.04ZM6.83,13.3s.06.08.09.08c0,0,0,0,0,0,.03.01.05,0,.07,0,.02-.02.03-.07.03-.11,0-.05-.03-.09-.07-.11-.04-.02-.05-.02-.07,0-.02.01-.06.04-.04.14,0,0,0,0,0,.01Z"/>
      <path class="cls-5" d="M4.69,13.7s-.04-.02-.04-.04c0-.02.02-.04.04-.04.1,0,.2,0,.2,0,.02,0,.04.02.04.04,0,.02-.02.04-.04.04,0,0-.1,0-.2,0,0,0,0,0,0,0Z"/>
      <path class="cls-5" d="M4.86,14.05s-.06,0-.08-.03c-.03-.03-.04-.07-.04-.1l-.02-.41s.02-.04.04-.04c.02,0,.04.02.04.04l.02.41s0,.05.01.05c0,0,.01,0,.04,0,.02,0,.04.01.04.04,0,.02-.01.04-.04.04,0,0-.01,0-.02,0Z"/>
      <path class="cls-5" d="M5.02,14.03s-.04-.01-.04-.03l-.06-.49s.01-.04.03-.04c.02,0,.04.01.04.03v.11c.08,0,.14-.02.19.02.05.04.08.13.09.35,0,.02-.01.04-.04.04-.02,0-.04-.01-.04-.04-.01-.18-.03-.27-.06-.29-.02-.02-.06-.02-.12,0l.04.3s-.01.04-.03.04c0,0,0,0,0,0Z"/>
      <path class="cls-5" d="M1.84,13.58s0,0,0,0c-.03,0-.05-.03-.04-.06,0-.06.02-.12.03-.19l-.17-.08s-.09.09-.13.13c-.02.02-.05.02-.08,0-.02-.02-.02-.05,0-.08.31-.32.41-.43.45-.46h0s.01,0,.02-.01c0,0,0,0,.01,0,0,0,.02,0,.03,0,.04.02.05.03-.06.69,0,.03-.03.04-.05.04ZM1.73,13.17l.11.05c.01-.07.02-.14.03-.19-.04.04-.08.09-.13.14Z"/>
      <path class="cls-5" d="M2.48,13.85s-.05-.02-.05-.05t.16-.61v-.05s.06.01.06.01c.02,0,.04.01.07.01.05,0,.1.02.14.04.08.03.15.12.12.23-.02.07-.05.13-.1.16-.02.02-.06.01-.07,0s-.01-.06,0-.07c.03-.02.05-.06.06-.1.02-.07-.05-.1-.05-.1-.04-.01-.08-.02-.13-.03,0,0-.01,0-.02,0-.06.22-.14.52-.15.54,0,.02-.03.04-.05.04,0,0,0,0,0,0Z"/>
      <path class="cls-5" d="M2.83,13.93s0,0,0,0c-.03,0-.05-.03-.04-.06.02-.09.03-.21.03-.24,0,0,0,0,0,0,0,0,0-.03-.04-.04l-.22-.06s-.05-.04-.04-.06c0-.03.04-.05.06-.04l.22.06s0,0,0,0c.07.03.1.08.11.11h0c.01.05-.01.21-.03.28,0,.03-.03.04-.05.04ZM2.8,13.62s0,0,0,0c0,0,0,0,0,0Z"/>
    </g>
  </g>
</svg>