<?xml version="1.0" encoding="UTF-8"?>
<svg id="Layer_2" data-name="Layer 2" xmlns="http://www.w3.org/2000/svg" viewBox="0 0 25.51 17.01">
  <defs>
    <style>
      .cls-1 {
        fill: #783241;
      }

      .cls-2 {
        fill: #010101;
      }

      .cls-3 {
        fill: #3b593a;
      }

      .cls-4 {
        fill: #9b3c26;
      }

      .cls-5 {
        fill: #4b88c7;
      }

      .cls-6 {
        fill: #fff;
      }

      .cls-7 {
        fill: #1f5d43;
      }

      .cls-8 {
        fill: #eee7c7;
      }

      .cls-9 {
        fill: #2d72ba;
      }

      .cls-10 {
        fill: #b3985d;
      }

      .cls-11 {
        fill: #d2b981;
      }
    </style>
  </defs>
  <g id="Layer_1-2" data-name="Layer 1">
    <g>
      <path class="cls-9" d="M0,17.01h25.51V0H0v17.01Z"/>
      <path class="cls-2" d="M11.03,3.02s-.02.03-.04.02c0-.32-.13-.57-.29-.82-.02-.03-.07-.06-.1-.07.07.2.02.38.05.58,0,0,.02.02,0,.03-.03-.06-.06-.12-.08-.18-.03-.06-.09-.11-.15-.14-.1-.04-.16-.13-.25-.19-.04,0-.06-.05-.1-.06h-.05s0,.05,0,.05c0,.02,0,.04,0,.06.12.18.3.31.37.51-.04,0-.07-.05-.13-.04-.01,0-.01.01-.01.02.03.08.09.16.12.24-.21-.11-.15-.39-.34-.51-.03-.01-.05-.07-.09-.05.03.06.04.12.06.18.02.05.02.08.03.13h0c-.07-.03-.12-.09-.2-.1h-.01c.13.14.2.29.29.44.06.16.12.32.27.45-.02.03-.05.05-.07.08l-.05.05s-.08-.05-.12-.07c-.03,0-.03.02-.03.04l.09.13-.04.03h0s-.02.03-.02.03c-.16.22-.29.42-.37.67-.03,0-.07-.03-.08,0-.05.06-.01.11.02.17l-.03.05s-.02-.04-.05-.05c-.1.05-.01.15,0,.22-.09.22-.13.46-.16.69-.05.05-.11.11-.13.18h0s-.02.05-.03.08c-.03.04-.09.02-.15.03-.04,0-.02.05-.02.07.03.05.08.01.12.03h.03c0,.09-.1.07-.15.09-.06.02-.13.01-.17.05.02,0,.03.03.04.04.01.05-.05.07-.07.11,0,.1,0,.18,0,.27.02.02,0,.04,0,.06,0,.1-.02.19-.01.29,0,.03.02.01.03.03v.27s.03,0,.04.02c-.03.13.03.26,0,.4,0,.02.03.01.04.02-.01.05-.04.09-.04.14,0,.13-.03.28-.03.41h0s.01,0,.02.01c0,0,0,.01,0,.02-.04.15.04.29,0,.45.01.03.06.02.08.02-.01.03-.02.06-.05.08-.07.1,0,.19-.03.3l.03.02s-.02.02-.02.04c.01.07.02.17.08.22.04,0,.03-.04.05-.06,0-.04.02-.07.03-.11.1-.08.09-.17.09-.28-.01-.07.04-.14.05-.22-.01-.08.05-.15.06-.23-.03-.08.05-.14.04-.22-.08-.12.05-.23,0-.35.06-.04.03-.1.05-.15.05-.09-.06-.14.02-.22.06-.08-.02-.23.11-.28l.04.05h0s.02.01.02.01c.06.2.15.39.25.58.09.19.23.36.35.53-.09.09-.17.19-.27.27-.07-.1-.09-.22-.18-.31h0s0,0,0,0c-.06-.02-.13,0-.17.05-.06.04-.09.09-.11.15-.05.14.13.19.18.27.03.02.08.02.08.06-.11.19-.31.32-.45.48-.09.13-.28.24-.3.41,0,.03.03.04.06.03.33-.22.6-.52.91-.81.01,0,.02.02.03,0,.02.02.05.02.07.02,0-.03,0-.07-.02-.1.1-.11.24-.21.36-.32,0,.08-.05.16-.08.25-.03.05-.08.05-.12.08-.04.01-.07-.02-.11,0-.04.04,0,.09,0,.13-.02.03-.06,0-.08.01-.06.03-.04.11-.06.16.01.02.04.04.06.04,0,.04-.01.08-.03.11s-.06.06-.06.1c.03.08-.02.15-.01.23l.02.03s.06,0,.08-.01c0,.06-.05.07-.08.1-.05.09-.02.22-.03.31,0,.05,0,.13.02.16,0,.04-.05.08-.02.12,0,.07.03.18.02.25,0,.04-.03.13.02.15,0,.1.02.17.01.27.06.04-.01.1.01.15,0,.02.02.03.04.04-.02.08-.02.16.02.23,0,.07.04.14.06.2.04-.01.04-.06.05-.09.07-.09.12-.22.07-.33.09-.07.05-.18.04-.27.04-.07.03-.15.03-.23.04-.07.03-.12.02-.19.06-.08.03-.19.07-.28.02-.04-.03-.08,0-.11.05-.01.05-.07.04-.1-.02-.11.01-.21,0-.33.03-.06.05-.12.06-.19.02-.06-.02-.12-.01-.17.02-.02.02-.08.07-.06.03,0,.03-.04.02-.06-.03-.07.04-.11.02-.17-.03-.1-.13-.17-.15-.27.02-.07.04-.14.06-.21,0,0,.02.02.02.02l.02.04s-.01.02-.02.03c.04.12.19.02.24.13-.01,0-.01.03-.01.04,0,.06.07.08.12.09.04.02.08-.03.11.03.14.07.27.19.42.26h0s-.01.01-.02.01c0,.03-.04.05-.06.07-.05-.01-.1-.05-.16-.04,0,.02,0,.02,0,.04.01.03.04.05.07.06.04,0,.1,0,.13-.01-.01.03-.02.07-.04.1-.07.09-.16.16-.28.17,0,.03,0,.06,0,.08,0,.03.03.04.05.05.01.02,0,.05,0,.06,0,.06-.03.13.04.16,0,.04-.03.06-.02.1,0,.03.03.03.04.05,0,0,0,.01,0,.02.02.08-.02.17.05.24-.06.05.01.12-.02.17,0,.03.04.01.03.04-.03.03-.02.07-.02.11.06.06-.02.13-.02.21.06.1.06.23.03.33,0,.03.03.02.04.03,0,0,0,0,0,.01,0,.09-.05.18-.02.28.05.17,0,.39.13.53.02,0,.04-.02.05-.04.06-.12.08-.24.1-.36.07-.06.07-.15.08-.22,0-.12.03-.23.03-.35.05-.14.1-.31.04-.45-.02,0-.03-.03-.03-.04.03-.07.07-.19.02-.27-.01-.02.01-.01.03-.02.02,0,.03-.02.03-.04,0-.03.01-.05-.01-.07-.05-.12.05-.23.03-.35-.09-.09.01-.21-.03-.32-.03-.05-.08-.01-.12-.03-.1-.05-.02-.16-.02-.23h.04c.13.11.31.11.46.15.02.01.06.01.06.04.02.03.05.04.08.04.05,0,.09-.07.13-.04.04,0,.04.03.06.05.05.03.11,0,.16-.03l.02.06c0,.07,0,.13-.01.19h0c-.05,0-.09-.05-.13-.09-.05.01-.05.06-.08.09,0,.03.04.07.06.09,0,0-.02,0-.03.01-.05.03-.12,0-.16.05,0,.09-.01.16.02.24.02.02.05,0,.07,0,.01.04.02.07.02.12-.13.05-.03.17-.07.26-.03.07.06.05.09.06-.03.05,0,.14-.08.17-.02.02-.01.05-.01.07,0,.04.05.03.07.05-.03.08-.03.18-.05.26,0,.03.03.03.04.04-.01.04-.02.1,0,.15-.05.06-.04.16-.03.22,0,.01.01,0,.02.02,0,0,0,.02,0,.03-.02.07-.05.14.02.19-.02.08-.03.17-.04.25.02.09.08.19.04.29-.02.15.06.28.06.44.07,0,.07-.08.1-.13.03-.09.07-.17.07-.27,0-.12.06-.21.11-.31.04-.06.03-.13.02-.19.04-.05.04-.13.05-.19,0-.02-.02-.04,0-.06.06-.11.06-.26.07-.39.05-.08.03-.2.04-.29.05-.13.04-.27.06-.41,0-.04-.07-.1,0-.12.01-.08.05-.18,0-.26l.04-.05s-.02-.06-.03-.08c-.05-.05-.09-.12-.13-.18-.02-.03-.07,0-.09-.03,0-.09,0-.15,0-.24v-.02c.09,0,.2,0,.29-.02.29,0,.6-.04.88-.14.02.03.07.01.09.02,0,.05-.01.1-.02.16,0,0-.02.01-.01.02-.06.04-.07-.06-.12-.08-.03.02-.04.06-.05.09,0,.03-.05.08-.01.11-.03.02-.06.02-.09.03-.04.01-.03.05-.03.08,0,.03.04.03.05.05-.02.02-.05,0-.07.03-.02.1,0,.17.02.26,0,.03.04.07,0,.09-.04.04-.02.1,0,.14.02,0,.04,0,.07,0-.02.03-.03.06-.05.08-.01.16.04.32.04.48h.06c-.02.06-.06.11-.06.18.06.12.06.26.03.38.01.05.01.1.02.14,0,.03.02,0,.04.02v.16s0,.1.05.12v.02c-.02.12-.02.22-.02.35,0,.02.01.05.04.04.04-.02.08-.06.08-.1,0-.04,0-.08.03-.12h0c.08-.08.09-.19.1-.27.01-.13.05-.25.08-.38-.02-.16.06-.31.03-.47.06-.06.03-.13.08-.19.01-.07-.02-.14.02-.21,0-.07-.03-.12-.04-.17.03-.1-.07-.17-.07-.25.05-.03.12,0,.15-.05,0-.03-.01-.06-.02-.1.01-.01.03-.01.05-.02.06-.01,0-.06.03-.09h0s-.07-.09-.07-.09c-.02-.03.02-.05,0-.07-.07-.08-.12-.18-.14-.28-.07-.04-.06-.13-.05-.19.1.04.23.04.33.05.13-.02.21.13.35.08.04,0,.09-.02.13-.03.03.06.07.13.1.19,0,0-.01,0-.02,0,0,.05,0,.13-.02.17-.01.03,0,.08.04.09-.04.05-.03.12-.05.18,0,.03.03,0,.05.02-.09.06-.04.19-.1.27-.02.04,0,.07.02.09-.05.09,0,.19.04.27-.03.04-.05.1-.03.15.06.06-.03.11-.02.18.03.09.03.19-.03.27-.04.06.03.11.02.17-.03.09.04.15.02.24,0,.05.04.07.08.05.04-.02.05-.07.05-.11-.05-.11.13-.17.11-.29,0-.12.09-.21.11-.32.05-.03.07-.09.06-.14-.05-.12.05-.21.05-.32-.02-.1.04-.18.05-.27v-.04c.07.07.12.16.17.24.05.09.13.16.17.25.01,0,.01,0,.02-.01.07.11.19.15.29.21.05-.04-.02-.11-.03-.16,0-.03-.03-.05-.03-.07-.01-.03-.06-.07-.06-.1-.01-.03-.03-.05-.07-.06-.07-.12-.11-.24-.19-.35-.06-.11-.14-.21-.17-.32l.05-.03c0-.07,0-.14-.04-.2,0-.02-.03-.05-.04-.08.02.01.04.04.07.04.04-.02.05-.07.06-.1.01-.06-.05-.09-.08-.13.02,0,.05,0,.07,0,.05-.02.05-.08.06-.12,0-.03-.03-.04-.04-.07.1-.13-.09-.18-.12-.3.02-.02.03-.02.06-.02.06,0,.03-.08.05-.12,0-.05-.07-.06-.09-.11-.12-.11.01-.25-.02-.38.1-.06.1-.17.07-.28l.03-.02s0,.05.01.07c0,.02.03.03.05.02.04-.04.04-.1.03-.16l.03-.02c.03-.06.07-.11.09-.18.03-.07.06-.14.08-.21v.02c0,.08.03.16.02.23,0,.03.04.03.06.03l-.04.06c-.06.09,0,.18-.05.26.03.09-.08.19,0,.26-.01.02-.04.03-.04.05-.02.05.03.08.05.11,0,.02-.02.04-.03.07-.04.07,0,.13,0,.2-.04.04-.06.1-.04.14.08.07,0,.16.04.24-.09.11.03.23.04.35h.01c.05-.06.11-.12.12-.2.05-.06.07-.14.12-.2.08.04-.03-.03.02-.05-.02-.1.07-.16.04-.25,0-.13.08-.23.13-.34,0-.13.08-.27.09-.4.09-.1.08-.23.1-.36-.02-.12.03-.24.02-.37.11-.11-.01-.25.05-.39-.02-.1.03-.22.01-.3l.02-.02s-.06-.03-.1-.03l-.08-.18s0-.06.03-.09c0-.02.03-.06,0-.08-.03-.02-.07,0-.09.03-.06.06-.07-.02-.09-.07l-.05-.06c0-.06-.02-.11-.07-.16.05-.26-.05-.49-.06-.73,0-.09-.05-.17-.04-.26,0,0,0,0,.01,0,.02,0,.02-.03.02-.05-.03-.06-.08-.11-.13-.15v-.03s-.02-.03-.02-.05c.02-.01.05,0,.06-.02.02-.09-.09-.15-.15-.19,0-.05-.03-.08-.04-.12-.1-.18-.2-.37-.33-.54.15-.14.29-.3.46-.45.04-.05.1-.1.11-.17-.01-.05-.04-.1-.08-.15l.03-.03s.05-.04.07-.07c-.02-.04-.08-.08-.1-.11-.04.02-.08.06-.1.1-.02-.02-.05-.06-.09-.08-.04,0-.09,0-.12.03-.12.13-.27.22-.37.37l-.04.02c-.07-.04-.08.06-.13.08-.03-.06-.12-.01-.14-.09h0s.02-.06,0-.08c-.05-.02-.1-.02-.15,0l-.02-.04s-.06-.04-.07-.07c-.2-.13-.38-.26-.59-.35-.24-.11-.48-.18-.75-.23h0s.01-.04,0-.06c-.02-.04-.06,0-.09,0-.05.04-.14.03-.2.03.02-.03.06-.06.04-.1-.08.01-.16.04-.22.08-.12-.01-.22,0-.34,0-.29.05-.59.08-.86.18-.03,0-.15.05-.15.05,0-.03-.04-.02-.07-.04-.09.03-.09.15-.19.17-.03-.07-.06-.13-.1-.19-.05-.07-.12-.16-.21-.14,0,.01-.02.03,0,.05.06.12.09.25.1.39"/>
      <path class="cls-4" d="M15.83,8.68s0,.03,0,.05c.06.02.14.02.18-.04,0-.02.01-.05,0-.07-.05.02-.09.03-.14.05l-.05.02M16.16,8.71s-.03-.07-.03-.1c0,0,.01,0,.02,0,.04.02.05-.03.07-.05.05.05-.02.09-.03.13,0,.01,0,.02,0,.03l-.02-.02"/>
      <path class="cls-8" d="M16.32,8.14s-.03.07-.06.09c-.01,0-.03-.02-.04-.03-.05,0-.04-.03-.04-.07h-.01s.02.11-.03.12c-.05.1-.17.12-.26.13-.09-.07.01-.15-.02-.24.05-.06.02-.13.03-.2,0-.06.05-.1.08-.15-.02,0-.05,0-.07-.01,0-.05-.01-.13-.01-.19,0-.02-.01-.04,0-.05v-.05c.11-.3.23-.61.26-.94-.01-.05.03-.03.05-.06.02.05.03.11.02.17,0,.05-.04.08-.04.12h.01c.08-.08.06-.23.03-.33l-.02-.06c-.02-.05-.06-.1-.04-.16l.03.04s0,.07.02.08c0-.04,0-.08-.02-.1h.02s.04.02.04.02c0,.02.03.04.03.06,0,.19.01.41.03.62.03-.05.01-.13.02-.19.03.03.03.07.06.09.02-.03-.02-.06-.03-.1-.01,0-.03,0-.03,0,0-.12-.01-.27-.01-.39.05.03.08-.05.13-.05.03.04-.01.07-.03.11,0,.05.03.09.04.13.02.04.04.09.06.13.02-.02.04-.01.07,0,.01.05,0,.12,0,.18.03.14-.06.25-.01.4.02.05-.03.08-.05.13.02.11-.05.22-.01.33-.03.08-.01.17-.04.25-.04-.05-.09-.08-.14-.13,0,0,0-.04-.03-.03,0,.06.04.12.07.19,0,.03.04.05.04.08,0,.03-.02.05-.02.08h-.04"/>
      <path class="cls-4" d="M16.36,8.16c-.02.1-.04.19-.08.29h0c-.04-.05-.04-.14-.11-.14,0,.05,0,.12-.03.17-.03,0-.01-.06-.05-.06-.05.04-.11.07-.18.09l-.04.02s-.04-.04-.03-.06c0-.03.02-.04.05-.05.07-.01.15-.02.21-.05.05-.05.1-.09.12-.15l.05.04c.05.01.06-.05.08-.09h.03"/>
      <path class="cls-8" d="M15.86,8.53s.02.03,0,.05c-.02.02-.04.05-.04.08l.05-.02s.1-.03.15-.05c0,.05,0,.08-.02.13-.06.02-.11.05-.17.03,0,.02,0,.04,0,.06-.01.04-.06.07-.04.13l.06-.07c.06.06.12,0,.19,0,.02,0,.02.03.04.02.03-.05.07-.07.06-.12,0,0,0-.01,0-.02l-.03-.03s-.05-.1-.04-.14c.03-.01.04.02.07.02.01-.03.03-.07.04-.08.03,0,.01.07.05.04,0,0,0-.02,0-.03,0-.02.01-.04,0-.07-.05-.02-.06-.09-.09-.13-.02.03,0,.05,0,.09-.02.03-.02.07-.05.07-.02,0-.03-.02-.04-.04,0,0,0,0,0-.01-.06.03-.11.07-.18.07h-.04"/>
      <path class="cls-4" d="M15.33,10.29s-.05-.05-.08-.07c0,.05.02.11.05.15h-.02s.01.03.03.04c0-.03.01-.05.02-.07v-.05"/>
      <path class="cls-8" d="M12.71,11.41s-.02-.02-.03-.04c-.03,0,0,.04-.02.05-.02-.01-.02-.03-.04-.03-.03,0-.02.05-.01.07.02.05.07.13.04.17,0,0-.02-.01-.03,0v.12s-.01.01-.02,0c0,0-.01,0-.01-.02-.02,0-.04-.03-.06-.01.02.1.13.15.14.26,0,.07-.05.13-.1.19-.04-.01-.05-.07-.09-.09-.03.04-.02.09,0,.13.03.09,0,.23-.05.31-.03-.06,0-.14-.04-.19l-.04.03s0-.07.02-.09h.01s.04.01.05,0c.01-.07-.02-.16-.03-.23-.02-.03-.05-.05-.08-.05.01-.07,0-.13.04-.19.05-.02.11-.05.15-.09,0-.03.04-.06.02-.1-.07,0-.15.1-.2.01,0-.02,0-.06.03-.05.05-.05.11-.11.16-.17-.04-.06-.13.01-.18-.05,0-.06-.01-.12.02-.17-.02,0-.03,0-.04-.01,0-.09.03-.19.05-.28-.02,0-.05,0-.07-.03-.03-.1.1-.1.08-.2.01-.02-.01-.07.04-.08.03-.01.05-.04.05-.07-.04.05-.1.09-.16.08l-.02-.23s.06-.05.08-.07c0-.05,0-.09-.02-.14-.03,0-.04.03-.06.02-.02-.02,0-.05-.02-.06,0-.05-.01-.13,0-.17.06-.01.13-.03.19-.05-.02-.03-.07-.06-.07-.1.01-.03.03-.06.05-.08.04.05.09.11.16.09.01-.06,0-.15,0-.22v-.04s.06,0,.08,0c0,0,0,0-.01.01,0,.05.01.12,0,.16.03.12-.06.21-.03.32,0,.09.08.16.1.24h.02c-.01-.06-.04-.1-.08-.14-.01-.06-.03-.1-.02-.17,0-.05.01-.09.02-.13.03,0,.08,0,.09.04.01.08.1.13.13.2.03.03-.02.04-.03.07-.02.02,0,.05,0,.07,0,.07.01.18-.05.23-.02.04.03.07.03.11-.02.1-.03.21-.03.32-.02.03-.01.05-.03.07-.02-.03-.03-.07-.04-.1-.01-.03-.03-.06-.06-.07-.01.07,0,.17.02.25h0s-.03,0-.04,0c0-.04-.03-.07-.04-.11h-.01s.01.08.05.1v.02c.01.05.04.11.05.17.06.04.02.11.03.17h-.03"/>
      <path class="cls-4" d="M12.7,11.42s0,0,0,0c0,0,0,.03-.02.03-.02,0-.02-.02-.04-.03-.02.04.02.08.03.12,0,.03.02.07,0,.1h-.02s-.01.01-.02,0c0,.04,0,.08,0,.12-.01.03-.04.01-.06,0,0-.01-.02-.02-.03-.02h0c.03.06.06.11.11.15.04-.07.06-.16.03-.23.06-.05.05-.14.06-.22l-.04-.03"/>
      <path class="cls-8" d="M9.28,5.95s0-.05,0-.08c-.05,0-.09.01-.14.02,0,.01,0,.03,0,.04.03.04.08,0,.12.02h.02"/>
      <path class="cls-4" d="M16.18,6.4s-.02-.03-.02-.04c-.02-.06-.05-.11-.09-.16-.02,0-.04-.05-.07-.05-.01,0-.03,0-.04.01.01.06.06.1.09.15.04.06.06.14.12.18.02,0,.01-.03,0-.05,0-.01-.02-.02-.02-.04.02,0,.02.02.03.03v-.04M9.71,4.69s.02.03.02.04c.04.04.02.06,0,.11-.03-.02-.05-.06-.07-.1l.03-.05M10.58,8.66s-.06-.07-.1-.11c.02-.01.04-.03.06-.05.06.06.11.11.18.16-.03.01-.09.01-.12.01l-.03-.02"/>
      <path class="cls-4" d="M15.65,7.91s-.01-.05-.02-.07c.2-.41.31-.85.4-1.3,0-.05.02-.1.03-.14.11.08.03.18.03.29-.04.19-.08.39-.15.56,0,.05-.05.1-.05.14-.09.17-.13.35-.22.51h-.02M15.81,4.79s.06.03.09.05v-.03s0,0,0,0c0-.02,0-.06-.04-.06-.03-.02-.07-.04-.1-.05,0,.02,0,.04.02.06l.02.04"/>
      <path class="cls-8" d="M15.24,3.39c.12.18.09.42.1.61.2-.22.42-.42.62-.63.03-.04.05-.07.03-.12h0s0,0,0,0c-.02-.11-.14-.17-.2-.26-.04-.02-.06-.02-.1,0-.13.12-.29.24-.4.39l-.03.02M15.95,3.09s.05-.03.06-.06c-.02-.03-.06-.05-.09-.08-.03.03-.06.06-.08.09.02.02.05.05.07.08l.03-.03"/>
      <path class="cls-10" d="M14.67,3.33s0,0-.01.01c0,0,0,0,0,0,0,0,0,0,0,0v.05c.07.02.17-.03.2.06-.02,0-.02.03-.02.04.03.06.08,0,.13.01l.09.06v.02c-.09.05-.16.14-.23.2-.03.03-.07.08-.13.05-.02,0,0-.02,0-.03,0-.06.02-.12,0-.18-.06-.02-.14-.03-.23-.03,0,.03-.02.06-.02.09,0,.04-.01.09-.03.13h-.19c-.03.06-.02.15-.02.21.01.01.05.02.07.01.02.02.09,0,.12.02,0,.05-.02.12.02.15-.36.37-.76.74-1.11,1.12h-.01c-.02-.1-.02-.24-.03-.33-.02-.01,0-.06-.04-.05-.05.06-.07.14-.1.21-.05.1-.05.2-.06.32,0,.03.02.07,0,.1-.02-.29-.03-.6-.23-.83-.02-.02-.03-.04-.06-.05-.01.01-.02.03-.02.05.09.16.04.36,0,.51,0-.08,0-.17,0-.24.02-.23-.08-.43-.19-.61-.02-.01-.05-.03-.07-.01-.01.01,0,.03,0,.05.02.24.02.51-.02.75.01.12.05.24.07.35,0,.05.02.09,0,.13-.02-.01-.03-.04-.05-.05-.04-.09-.12-.17-.17-.25.05-.09.09-.19.13-.28.08-.35.02-.77-.12-1.11-.04-.06-.06-.15-.15-.16-.02,0-.01.04-.02.05.1.23-.05.45.03.69,0,.23.08.48,0,.71,0,0-.01.02-.03.01-.09-.06-.11-.16-.1-.25.06-.09.1-.19.1-.29,0-.26.02-.54-.19-.74-.06-.03-.11-.1-.17-.11-.03.09-.04.2-.01.29.1.12.14.31.12.45l-.08-.06s-.09.04-.12.07c-.02-.05-.06-.09-.08-.14,0-.02.02-.04.03-.05.06-.22.14-.43.06-.66-.03-.07.07-.02.09-.07v-.24c-.05-.03-.13-.03-.19-.05-.01-.06,0-.13,0-.19-.07-.03-.14-.06-.21-.05,0-.05-.01-.1-.02-.14,0-.02-.02-.05,0-.05.02.02,0,.04.03.05.08-.01.08-.1.13-.14.16-.06.32-.11.49-.15.27-.03.54-.08.79-.08h.03s-.01.05,0,.07c.08.03.11-.1.2-.08.02,0,.02,0,.06.02.05,0,0,.04.03.06.05.01.09-.04.13-.06.02.01.06,0,.08.03.15.02.28.09.42.13.31.15.65.26.93.47v.03"/>
      <path class="cls-4" d="M14.78,3.25c-.4-.35-.92-.57-1.44-.67l-.1.08c.09.05.2.04.29.09.33.09.64.25.95.41.06.03.15.1.21.14l.09-.05"/>
      <path class="cls-5" d="M14.45,9.16c.1.07.19.15.31.15,0,0,.02,0,.02-.02-.02,0,0-.01,0-.02l-.1-.24c-.07.02-.13.07-.2.11l-.03.02"/>
      <path class="cls-4" d="M14.42,9.14s-.02-.02-.03-.02l.04-.04c.07-.03.13-.08.2-.12.01.01.02.03.03.05-.06.05-.13.08-.19.12h-.05M13.88,9.34v.02s-.01.03-.02.04c-.12.05-.22.07-.34.1-.19.05-.4.03-.58.06-.11,0-.26.02-.37,0l.09-.08c.15.02.29,0,.44-.01.27-.03.51-.01.76-.12h.03"/>
      <path class="cls-10" d="M14.72,7.05s-.02,0-.03,0c-.12,0-.2.11-.26.19-.09.16-.12.34-.25.49-.02-.05-.07-.09-.08-.15.07-.06.11-.13.16-.2.15-.22.09-.5.11-.75.02-.11.04-.22,0-.32,0-.01,0-.04-.03-.03,0,.01-.02.02-.02.03-.31.23-.17.64-.31.95-.04.07-.02.15-.04.23-.05-.06-.1-.11-.15-.16v-.02s.1-.18.1-.18c.06-.12.1-.26.14-.38.03-.21.14-.4.13-.62-.02-.09,0-.19-.08-.26-.04.09-.1.15-.17.22-.17.15-.28.37-.19.6v.03s-.02-.02-.04-.01c-.1.02-.15.14-.17.23-.04-.04-.06-.1-.06-.16.1-.13.16-.27.15-.44-.02-.19-.07-.37-.1-.56.19-.15.33-.31.49-.49l.72-.69c.12-.12.25-.24.38-.35-.03.1-.05.19-.06.29,0,.07.05.13.07.2-.06.14-.07.3-.01.45-.05.11-.07.25-.05.38-.09.12-.05.28-.01.42-.07.11-.04.28,0,.41-.05.09-.11.18-.11.28,0,.07.09.13.03.2-.02.06.02.1.02.15-.03.02-.05.07-.04.1,0,.04.03.07.02.11-.04.04-.02.1,0,.14-.01,0-.03.03-.03.05,0,.03,0,.07.03.1,0,.06,0,.09,0,.15.01.02.04,0,.04-.02,0-.03.04-.05.02-.07.02-.05.02-.12.02-.16.03-.05.03-.12.02-.17h0s.02,0,.02,0v-.2s.02,0,.02,0c.01-.02.03-.05.03-.07.03-.07.04-.16.02-.23l.02-.02c0-.09.05-.14.04-.23,0-.04,0-.06-.02-.09,0-.05-.03-.1.02-.14h0c.05-.08.03-.17.04-.24.03-.04.03-.1.04-.14-.02-.05.03-.06.02-.11.12-.13.1-.31.08-.46.1-.14.05-.31.03-.46.06-.15.09-.31.07-.49,0-.03-.02-.06-.02-.08.07.09.12.19.16.29h0s-.01,0-.02,0c-.02,0,0,.03-.01.03.02.05.07.08.11.09,0,.02.01.05.02.07v.04s-.04-.02-.06-.03c0,0-.02,0-.04,0,0,.12.13.11.19.2.11.31.13.64.14.98h-.02c-.04.06.03.11.06.16-.01.01.01.06-.02.05,0,0,0,0,0,0-.03,0-.06-.02-.08,0-.01.08.08.14.1.21-.09.5-.2,1.01-.42,1.46l-.03-.03s-.03-.02-.03-.01c-.01.04-.02.09-.02.13l-.03.02s0,0,0-.01l-.02-.02s-.05,0-.06.02c-.03,0,.02-.05-.03-.05-.07.07-.15.15-.17.25.01.08-.04.18-.09.25-.04-.24.19-.41.1-.64-.02-.07-.04-.12-.07-.18-.01-.02,0-.06-.03-.06,0,.14-.07.27-.15.39-.03.08-.08.16-.12.24v-.02c-.02-.27,0-.65.04-.93,0-.07,0-.14-.02-.2-.04.02-.08.06-.12.09h-.06M13.07,6.61s-.1.02-.14.04c-.08.05-.02.12-.02.19-.05-.01-.11,0-.17-.02-.07-.01-.14-.03-.21-.03.02-.04.06-.06.08-.09v-.03s.06-.03.09-.05c.09-.08.24-.04.33-.04.01,0,.02.01.04.02v.02"/>
      <path class="cls-4" d="M13.97,8.87c.08-.02.16-.05.24-.06.02.05,0,.09,0,.14-.08.01-.16,0-.25,0v-.02s0-.05,0-.05"/>
      <path class="cls-10" d="M11.63,4.9c-.05-.14-.13-.26-.23-.37-.08.03-.15.11-.23.15-.31.08-.56-.13-.87-.07-.02-.01-.04,0-.06-.02.02-.05.08-.09.12-.13.03-.03.07-.02.11-.04-.09-.12-.1-.3-.25-.38,0-.02-.02-.05-.01-.06.01-.02.04-.02.06-.01.23.03.32.28.51.38.09.02.19,0,.28.03.1.01.18.08.28.05-.04-.1-.11-.22-.23-.23-.14-.04-.29-.06-.44-.06,0-.01-.04-.01-.06-.02-.13-.05-.25-.15-.34-.26l-.04.04s-.06.08-.08.12c-.14.2-.29.4-.36.64,0,.07.06.13.04.2-.01-.02-.05-.02-.06-.05l-.04.06s.05.09.04.15c0,0-.02.02-.03.02l-.04-.03-.02.02c-.04.16-.12.5-.12.5-.04.39-.04.78.06,1.15.02.09.03.17.04.26.04.04.11.05.12.12-.02.03-.06.02-.09.02,0,.03.01.06,0,.08.06.05.13.06.17.12.01.03-.02.04-.04.05h-.03c0,.05.05.11.07.16.14.27.29.54.49.78l.16-.16.77-.8s0-.01.01-.03c.03,0,.05.02.07.03,0-.05-.03-.12,0-.17.16-.14.31-.28.46-.43-.03-.02-.07-.04-.09-.07.03-.02.06-.04.09-.06-.07,0-.16.03-.23,0-.06-.02-.1-.02-.16-.05-.02,0-.03-.01-.04-.02v-.02s.07-.05.12-.07c-.09-.04-.21-.09-.21-.21,0-.02.01-.03.03-.03.09,0,.22.08.32.01.15-.03.35,0,.49-.12-.19.01-.37.1-.55.09-.12-.04-.25-.06-.35-.15-.06-.02-.13-.07-.16-.11.16-.13.32.03.5,0,.12-.02.21-.11.32-.1.13-.02.29.07.39-.05-.02-.02-.02-.05-.05-.06,0-.03-.03-.05-.04-.07-.02-.03-.06-.07-.09-.07-.05,0-.09.03-.12.05-.07.05-.15.1-.23.14-.07.02-.17.05-.25.03-.15-.04-.31-.08-.42-.2-.06-.08-.09-.16-.15-.24,0-.02.01-.03.02-.04.06-.02.1.04.15.03.14.06.29.18.47.12.11-.05.24-.03.35-.08l-.09-.11c-.09.03-.16.09-.26.1-.22.07-.35-.16-.58-.09-.05-.02-.12-.02-.16-.05-.06,0-.1-.04-.16-.05-.04-.02-.08-.06-.1-.11-.03-.01-.02-.05-.05-.06h0s-.08-.08-.11-.12c.02-.04.06-.02.1-.02.09.02.18.05.26.09.09.03.17,0,.26.04.09.02.18.06.26.12.03.02.07.02.11.03,0-.02-.02-.04-.03-.06,0-.04,0-.1.01-.13.06-.01.14-.02.21,0v-.05"/>
      <path class="cls-4" d="M13.9,9.33s.05.02.08.03c-.01.04-.06.06-.1.07-.02-.02,0-.03,0-.05v-.04M15.52,7.94s0,.03,0,.04h.03s0-.04,0-.06l-.03.02M10.27,3.69s.06.04.08.05c.03-.05.08-.1.11-.14-.02-.02-.05-.03-.08-.04-.02.03-.05.06-.07.09l-.04.05"/>
      <path class="cls-4" d="M12.82,2.64s.02-.03.03-.04c.01-.02.04-.04.05-.06-.12-.01-.26-.02-.42,0-.3.04-.57.09-.84.19-.02,0-.09.03-.09.04,0,0-.01.08-.03.1.07-.02.15-.05.22-.07.25-.08.49-.09.75-.13.09,0,.2-.02.31-.02h.03"/>
      <path class="cls-2" d="M11.03,3.02s0,0,.02,0"/>
      <path class="cls-10" d="M10.99,3.2c0,.07-.02.13-.02.2.01.03.02.05.04.08,0-.12.08-.21.07-.33,0,0-.02.02-.03.03l-.06.02"/>
      <path class="cls-4" d="M13.1,2.47c-.03.07-.11.11-.16.17-.05.02-.07.07-.12.08,0-.08.07-.15.13-.21.04-.03.1-.03.15-.05M13.35,2.51c.01.06-.05.07-.08.1-.06.04-.11.07-.17.1,0-.02.01-.04.03-.06.06-.08.13-.12.22-.14M13.18,2.57l-.08.09h-.06s-.03,0-.06-.02l.08-.08s.08,0,.12,0M11.41,2.97s-.02.03-.03.04c-.03-.11.03-.22.12-.29.07.09-.06.16-.09.24"/>
      <path class="cls-3" d="M10.41,2.82c.04.06.11.08.16.14.05.05.12.11.12.19-.04,0-.07-.03-.1-.05-.06-.05-.14-.03-.2-.09-.03-.08-.09-.15-.12-.23.04,0,.08.04.13.05"/>
      <path class="cls-4" d="M11.35,2.88s0,.07-.03.09c0-.02,0-.04-.01-.06.02,0,.02-.03.04-.03M11.54,3.25c0,.08-.02.13,0,.2.07,0,.14.01.2.05v.21s-.06,0-.08.01c-.03-.1-.1-.18-.16-.26-.01,0-.03-.02-.04,0-.04.12.03.24,0,.36-.01.09-.03.17-.02.25-.02,0-.06,0-.09,0,.11-.23.13-.55-.03-.77,0-.03,0-.06.02-.08.07,0,.13.02.19.05"/>
      <path class="cls-5" d="M10.59,3.33l-.03.03-.1-.09h0s.08.04.13.06"/>
      <path class="cls-4" d="M14.94,3.32c-.09.06-.18.06-.27.05h0s.06-.05.09-.07c.06-.03.13-.02.19,0v.02"/>
      <path class="cls-4" d="M10.69,3.4s-.02.03-.04.03l-.08-.05c.03-.07.08,0,.12.02"/>
      <path class="cls-4" d="M14.95,3.38s-.09.07-.12.01c.03-.03.08-.02.11-.04,0,0,0,.02,0,.03"/>
      <path class="cls-2" d="M13.15,3.42v.22s.1.02.14.04c.03.04,0,.09,0,.13-.02.03,0,.12-.07.1-.04,0-.07-.02-.12-.01-.02.12-.01.25-.05.36-.06.05-.14.02-.22,0-.07-.01-.02-.09-.02-.12.02-.08,0-.17.01-.26-.06-.02-.13,0-.17-.03,0-.07.01-.15.02-.23.06-.06.22.05.21-.1,0-.05,0-.11.02-.15.09.02.17.02.26.05"/>
      <path class="cls-8" d="M15.16,4.16s0,.01-.01.01c0,.03-.03.04-.05.06-.45.43-.93.87-1.34,1.31-.07.07-.13.14-.21.2-.04-.14-.05-.31-.17-.4,0,0-.02,0-.02,0,.04.12-.03.24-.02.37.02.08-.03.17-.02.25l-.05.03c.08-.22.04-.43,0-.65v-.02c.41-.42.81-.8,1.22-1.21.18-.17.36-.36.55-.53,0,.18.1.33.15.49l-.02.07M15.2,3.84c-.05-.11-.07-.23-.04-.35.05.12.07.26.06.4l-.02-.04"/>
      <path class="cls-1" d="M15.17,3.86c-.04-.11-.07-.22-.05-.35,0-.02.02-.05.05-.04.04.03.04.06.05.1.02.17.05.35,0,.52l-.02.09s-.02.02-.02.03c-.04.14-.13.33-.02.47h.02s0,.02,0,.02c.04.07.07.14.1.21.04.12.09.24.15.35.08-.16.04-.31,0-.46-.15-.16-.19-.36-.24-.56,0,0,0-.02.02-.02.04.13.08.27.13.39.04.06.09.12.12.18.05-.13.08-.28.06-.43-.03-.12-.11-.27-.25-.3,0,0,.01,0,.02,0v-.04c.02-.2.03-.41-.05-.59-.02-.02-.03-.07-.07-.05-.03.05-.09.06-.11.12-.02.14.02.28.07.4,0,.01.05.1.06.15h0s0-.05,0-.06c0-.02,0-.04,0-.06l-.05-.07"/>
      <path class="cls-4" d="M13.12,3.43c.01.06,0,.16,0,.22.02.02.05,0,.08.01l.06.03c0,.06,0,.13-.02.2-.06.02-.13-.03-.17.01,0,.13-.01.23-.04.36-.04.02-.09,0-.12,0-.03,0-.06,0-.08-.03.02-.13.02-.25.01-.38-.04-.02-.08,0-.12,0h-.04c0-.09,0-.16.02-.23.07-.02.11,0,.18-.02.03-.06.01-.14.03-.21l.22.03"/>
      <path class="cls-10" d="M10.82,3.48s-.08-.02-.12-.03c.03-.06.08.02.12.03"/>
      <path class="cls-4" d="M15.04,3.42s.02.01.02.03c-.03.02-.07.02-.11.02-.04,0-.07.03-.11,0,0-.01.01-.02.02-.03.02,0,.03-.02.04-.02.05-.02.09-.02.14,0M15.04,3.53s-.04-.02-.05-.03c.02,0,.04,0,.06-.02,0,.01,0,.03,0,.05"/>
      <path class="cls-10" d="M11.19,3.64s.05.01.06.03c0,.1-.01.16-.02.26-.04-.04-.05-.1-.08-.15,0-.05,0-.09,0-.13h.04"/>
      <path class="cls-4" d="M11.19,3.62s.04.01.05.01c0-.04-.02-.07-.04-.11-.02.03-.03.06-.05.1h.03"/>
      <path class="cls-10" d="M10.93,3.7c.05.12.14.22.19.34-.11-.02-.17-.14-.28-.16-.16-.03-.33-.05-.47-.13.02-.05.07-.08.11-.12.14.04.3.08.45.08"/>
      <path class="cls-4" d="M14.64,3.62l.02.02c0,.08,0,.13,0,.2.02.02.04.02.07.02-.1.12-.22.22-.33.33v-.16c-.06-.03-.11,0-.18-.02,0-.05,0-.12,0-.18.05-.01.14.01.2,0,.02-.07.03-.14.05-.21.07,0,.12.02.18,0M10.2,3.79c-.07.08-.12.12-.14.17-.13.17-.21.36-.29.55.01.03.02.07.04.11.09-.27.27-.5.47-.78l-.08-.05"/>
      <path class="cls-11" d="M15.34,4.01s-.02.03-.02.06c.05.01.11.05.13.09l-.1-.11v-.04"/>
      <path class="cls-4" d="M15.36,3.99s.06-.04.07-.07h0c.13.17.23.36.32.54l.04.1c-.14.01-.13-.16-.2-.24-.07-.1-.14-.21-.22-.3l-.02-.04"/>
      <path class="cls-10" d="M11.46,4.1c0,.08.09.17.02.25-.04-.09-.17-.16-.13-.28.03.02.08,0,.11.03"/>
      <path class="cls-4" d="M9.75,4.54c.03.09.05.19.09.29-.08-.06-.12-.15-.17-.23-.01-.03,0-.06.03-.09.02,0,.05.01.05.03M15.95,4.73s0,.02,0,.03c-.09-.04-.16-.1-.26-.13-.01-.01-.03-.03-.04-.05.12,0,.24.04.3.15M9.68,4.78c.03.07.1.14.1.22-.06-.01-.12-.08-.14-.14,0,0-.01,0-.01,0,0-.05-.07-.1-.02-.16.05,0,.04.06.07.09"/>
      <path class="cls-1" d="M15.4,5.26s0,.05.02.06c.01.13.03.28-.06.39-.01-.06-.02-.13-.05-.19-.04-.19-.19-.35-.19-.55,0-.07.03-.15.05-.22.1.16.13.35.23.51"/>
      <path class="cls-4" d="M16.05,5.03c-.13,0-.19-.16-.31-.19-.01-.02-.05-.03-.04-.06.14.03.3.11.35.25M9.69,4.98c-.08.27-.16.57-.15.85,0,.17-.01.32.02.49.01.2.09.38.11.59-.04-.05-.15-.03-.13-.12-.06-.23-.05-.42-.08-.65v-.04s0,0,0,0c0,0,0-.12,0-.17.02-.19-.01-.43.06-.64.02-.14.07-.27.11-.39.01.03.04.05.06.08"/>
      <path class="cls-4" d="M16.02,5.11c.06.19.05.43.1.61,0,.09.02.2,0,.29-.02-.03-.08-.03-.09-.07-.01-.24-.02-.5-.08-.73,0-.08-.04-.15-.06-.23.03.06.15.04.13.13"/>
      <path class="cls-2" d="M11.6,5.08s.03,0,.06,0c.03.01.07.02.09.06-.03,0-.04-.03-.07-.03-.06-.01-.13-.03-.18,0,0,0,0-.01,0-.02.01,0,.01,0,.02-.01.02.01.08,0,.09,0"/>
      <path class="cls-1" d="M15.32,5.76h-.01c0,.07,0,.13-.02.19-.03-.14-.15-.24-.18-.38,0-.11-.01-.25.03-.36.09.17.17.36.18.55"/>
      <path class="cls-10" d="M12.75,5.8s-.03.05-.06.06c-.03-.04-.07-.07-.09-.11,0-.12.04-.22.07-.33l.02-.07c0,.15.04.3.07.44"/>
      <path class="cls-5" d="M9.42,5.79c-.03.07-.04.13-.06.21.02.01.05.02.07.04,0-.09.01-.17.01-.26h-.03"/>
      <path class="cls-8" d="M9.44,5.74s0-.09,0-.14c-.05.05-.1.11-.11.18-.05.13-.02.31-.05.44-.03.09,0,.19-.02.28-.02.04-.05.08-.1.09-.02-.03.03-.04.05-.06.04-.07.04-.15.03-.23l-.04.05s-.02,0-.03,0c.03-.04.07-.07.09-.12,0-.07.03-.16.02-.21-.07.07-.18.06-.28.09.01.02.03.05.02.07-.14.07-.04.21-.07.32,0,.04.06.02.08.05,0,.04-.05.01-.07.02-.02.09-.03.2-.01.3,0,0,.01,0,.02-.01,0,0,0,0,0,.01h.1s.01,0,0,0c-.03.01-.07.01-.11.02,0,.02-.02.08.02.07.03.01.06.04.05.08.02.03.04-.01.07,0,.02.02,0,.04,0,.07-.04.03-.06.1-.12.07,0,.14.02.26.02.4.02.01.05,0,.07.02-.01.02-.03,0-.04.02-.02.07-.05.14-.05.23h.04s0,.09.03.14c.04-.02.08-.06.1-.1.05-.02.02.04.05.06.03,0,.03-.04.06-.05,0,0,0,.02,0,.03.03,0,.03.04.06.05.02,0,.02-.02.03-.04,0,0,.01,0,.02,0,0-.01,0-.04,0-.05-.05-.07.08-.09.03-.16.03-.08-.01-.14,0-.22-.03-.07-.08-.16-.04-.23.04,0,.04.06.05.06,0-.09.06-.14.08-.21,0-.01.02,0,.02,0v.08s0,0,0,0c.03-.02.03-.06.02-.09,0,0,0-.01.02,0v-.02s0,0,0-.01c.03-.09-.09-.09-.1-.17-.01-.02-.01-.07.02-.08-.06-.2-.05-.38-.07-.58-.04-.07.04-.2-.07-.22-.02-.01-.02,0-.03.01,0-.09,0-.2.06-.28l.03-.03"/>
      <path class="cls-4" d="M9.62,7.13c.07.06.16.08.24.15,0,0,.01.01,0,.02-.02.02-.05.01-.07.01-.07-.04-.13-.05-.17-.11,0-.01,0-.02,0-.04v-.03"/>
      <path class="cls-8" d="M13,6.2l-.06-.06c.04-.07,0-.15.02-.22.01-.12.05-.23.06-.35.03.2.04.44-.02.63"/>
      <path class="cls-1" d="M15.27,6.01c0,.07,0,.15-.03.22-.09-.18-.23-.37-.16-.58,0-.01,0-.04.02-.05.03.15.18.25.18.41"/>
      <path class="cls-8" d="M12.76,5.82c0,.05.02.1.03.15-.02-.04-.08-.06-.08-.11.01-.01.03-.03.05-.04"/>
      <path class="cls-4" d="M16.12,6.06s.05.08.06.13c0,.01-.01.03,0,.04-.05-.08-.16-.16-.19-.26h0s.12.03.14.09"/>
      <path class="cls-10" d="M12.53,6.01s-.03.03-.04.05c0-.02.02-.04.02-.07.01,0,.02.01.03.02M13.38,6.33s-.01-.01-.02-.01c-.06-.01-.1.02-.14.06-.02.03-.04.06-.03.09-.02-.04-.05-.07-.08-.11.01-.07.09-.13.1-.2.02-.05.04-.12.1-.14.02.12.08.19.08.32h-.01"/>
      <path class="cls-7" d="M13.35,6.35s-.02-.01-.03,0c-.04,0-.08.04-.1.07-.01.02,0,.04-.02.06.02.06.08.11.13.17.03-.03.02-.07.03-.1.02-.05.03-.11.03-.16l-.04-.03"/>
      <path class="cls-1" d="M15.21,6.24c-.03.09.03.17.02.26,0,.06-.02.1-.03.16h0c-.08-.2-.2-.43-.12-.66.04.08.09.16.13.24"/>
      <path class="cls-2" d="M9.39,6.12s-.02.1.02.12c0,.02.02.03.02.05,0,0,0,.01-.02,0-.01-.02-.02-.04-.04-.06,0,.04-.05.1,0,.13,0,.02.02.05.02.07-.02-.01-.03-.05-.04-.06,0,.01,0,.04-.02.04h0c.01-.11.04-.19.05-.29h0s0,0,.01,0"/>
      <path class="cls-4" d="M16.13,6.25s-.09-.06-.07-.12c.03.04.1.08.07.12"/>
      <path class="cls-7" d="M11.55,6.43s-.09-.04-.12-.08c-.04-.03-.07-.07-.07-.12.09-.02.16.04.26.03.07-.03.16-.04.24-.05-.11.06-.2.14-.31.22"/>
      <path class="cls-8" d="M12.82,6.34c-.21,0-.36.14-.55.2-.08.02-.18.03-.27.02.03-.02.06-.05.07-.08.03-.03.11-.06.11-.06,0,0,.2,0,.29-.02.09-.05.19-.08.28-.13l.07.08"/>
      <path class="cls-1" d="M15.16,6.66h0c.01.12.02.23-.03.33-.05-.11-.12-.22-.15-.34,0-.09.05-.16.09-.24.04.08.07.17.1.25"/>
      <path class="cls-2" d="M13.31,6.46s.03.09.02.13c-.02-.01-.02-.05-.04-.08,0-.02,0-.06.03-.05"/>
      <path class="cls-10" d="M11.91,6.56s.1-.04.13-.07c-.04.03-.08.08-.13.07"/>
      <path class="cls-2" d="M9.26,6.6s0,.08-.03.1c0-.03,0-.07,0-.11,0,0,.02,0,.02,0M16.34,6.63s.05.08.03.13c-.03-.05-.05-.11-.07-.17.02,0,.03.02.04.03"/>
      <path class="cls-8" d="M12.6,6.67c-.05.02-.07.14-.14.09h-.05c.06-.04.13-.07.19-.09"/>
      <path class="cls-2" d="M9.32,6.73c.01.07-.05.16.04.22,0,.01.02.03,0,.05-.02-.02-.03-.05-.05-.08-.01.06-.02.11-.05.16,0,.01-.02,0-.03,0,.09-.09.03-.25.09-.35M13.26,6.76s-.06,0-.09,0h0s.06-.01.09,0M9.25,6.93s-.01.01-.02,0c0-.03-.01-.09.02-.1v.09"/>
      <path class="cls-4" d="M9.78,7.03s-.02.02-.03.03c-.09-.02-.21-.03-.23-.15,0,0,0-.02,0-.03h.02c.09.03.17.09.25.15"/>
      <path class="cls-1" d="M15.11,7.02s-.01,0-.02.01v.08c-.04-.07-.11-.17-.08-.26.03.05.06.12.09.17"/>
      <path class="cls-2" d="M13.72,6.93s-.02.11-.06.15h0s.02-.06.03-.08c0-.02,0-.08.04-.07"/>
      <path class="cls-4" d="M9.03,7.04s0,.04.02.05h.05s-.03.05-.06.07c-.02,0-.04.01-.06,0-.02-.04,0-.11-.01-.17.02.01.04.02.05.05"/>
      <path class="cls-2" d="M16.23,6.96s-.04.05-.07.06c0-.02.03-.06.07-.06M16.53,6.99s0,.02-.01.02c0-.02-.03-.03-.04-.04.02,0,.04,0,.05.02"/>
      <path class="cls-4" d="M14.84,8.87s0-.01,0-.02c0,0,0,0,0-.01l.06-.05s.04-.03.05-.05h0s.07-.08.1-.13c.03.13-.11.16-.19.22l-.03.04"/>
      <path class="cls-5" d="M14.89,8.86s.11-.07.16-.11c0,.11-.08.2-.13.3-.02-.04-.05-.1-.07-.15l.04-.04"/>
      <path class="cls-10" d="M14.72,8.64s-.03-.07-.05-.1c.07-.04.15-.09.17-.17,0,.11-.01.18-.05.28,0,.02-.02.04-.03.05l-.05-.06"/>
      <path class="cls-7" d="M14.77,8.74c.08-.07.1-.19.11-.29,0-.12,0-.25.03-.36.06-.19.23-.34.25-.55.06.16.13.36.02.52-.08.19-.04.44-.19.61l-.11.1-.06.05s-.02.02-.02.03c.01.09.07.17.1.26.03,0,.02-.03.03-.05.1-.14.15-.32.14-.49.02-.17.18-.31.17-.49.02-.07.08-.13.13-.19.04.29.07.61-.07.88-.07.18-.21.31-.31.48.04.12.12.23.18.35.19.34.42.66.58,1.01-.04.01-.11.03-.12.09-.29-.4-.54-.81-.79-1.23.01-.02.03,0,.03-.02h-.02c-.12.05-.29.06-.39-.03-.13-.05-.27-.01-.41-.06-.13-.03-.24-.09-.37-.09-.1-.04-.2-.08-.27-.18,0-.02,0-.05.02-.06.13-.02.22.07.36.05.12,0,.25-.07.37,0l.14.03c.14.11.29.22.48.22v-.02c-.02-.1-.06-.2-.11-.3,0,0-.04-.06-.05-.09-.05-.11-.17-.1-.26-.13-.05-.01-.11,0-.16-.02-.15.03-.29.1-.45.11-.14,0-.3.03-.38-.12-.01-.04-.05-.06-.05-.1.23.05.48.02.69-.03.07.02.16-.02.23,0,.08.03.15.07.23.1.04-.01,0-.05,0-.08-.02-.05-.06-.09-.09-.13-.13.08-.33.05-.47.06-.19-.07-.39-.16-.61-.12-.05,0-.12.04-.16,0,.05-.05.07-.13.16-.13.11-.05.23.01.35.01.12-.02.23.05.35,0l.14-.03s.07.06.1.07h0s.06.02.08,0c.01-.01,0-.03-.02-.03-.09.02-.14-.06-.19-.11,0-.03.03-.05.04-.07.01,0,.02.03.05.02.06-.03.07.03.12.03.03.04.06.08.09.11,0,0,.01,0,.02,0,0-.04-.06-.08-.08-.11-.03-.05-.02-.13.02-.17-.02-.02.02-.05.03-.06.05-.04.11,0,.17-.03,0,.08.04.17.03.24-.01.04-.06.07-.07.12,0,0,0,.01.02,0,.05-.05.11-.1.08-.18-.04-.07,0-.14-.03-.21.1-.28-.09-.69.19-.91l.06-.06c.03.2-.04.42-.03.63,0,.19-.01.39.01.58,0,.11-.05.22-.14.29-.03,0-.05.02-.07.04,0,.05.03.09.05.13l.07.08"/>
      <path class="cls-2" d="M16.3,6.98c0,.05.03.11-.01.15v-.15s.01,0,.01,0"/>
      <path class="cls-4" d="M9.69,7.07v.08s-.05-.03-.07-.06v-.04s.05.02.07.03"/>
      <path class="cls-1" d="M15.08,7.24s0-.02-.02-.01c0,.02,0,.05,0,.07-.04-.07-.11-.18-.05-.26.04.05.07.13.07.2"/>
      <path class="cls-2" d="M9.27,7.18c0,.06.04.11.06.16h-.01s-.05-.1-.07-.16c-.01.02-.02.06-.05.06.02-.04.04-.07.06-.11.03,0,0,.04.02.05M16.13,7.19s.05-.05.08-.05c-.01.03-.04.06-.08.05"/>
      <path class="cls-10" d="M11.56,7.47s.05.08.1.07c.25-.14.43-.38.64-.59.01,0,.03.01.04.02.15.03.28.13.43.19.19.01.36-.12.51-.24.05-.01.09.05.12.08,0,.02.05.04,0,.05-.05-.03-.1,0-.15,0-.03,0-.04.04-.03.06.02.08.07.14.13.2l-.03.02-.08.02c-.14,0-.28-.06-.41-.1-.03-.02-.07-.03-.11-.04-.13,0-.27-.02-.38,0,0,.03,0,.07.01.09.12.09.25.13.37.21.14.09.26,0,.38-.04h.25s.06,0,.09,0c.08.02.17,0,.22-.05l.06.06s-.06,0-.1,0c-.05.01-.12,0-.16.02-.03.02-.07,0-.1.03-.14.03-.24.14-.4.15-.11.02-.2-.05-.31,0,0,.09.07.14.13.2.09.06.24.04.32,0h0s.07-.04.11-.06v.05c-.1.13-.23.2-.39.21-.04,0-.07.04-.11.02,0-.07.01-.16-.01-.22-.02,0-.04-.02-.06,0-.06-.03-.12,0-.18.02.02.03,0,.09,0,.13-.06.03-.12,0-.18.03,0,.03-.02.06-.01.08-.02.06-.01.14,0,.2.02.02.04,0,.06,0,.03,0,.05,0,.07,0,0,.12-.02.23-.01.34.09.02.18.03.26.02.03-.1.02-.2.03-.3l.18-.04s.01-.11.02-.15h0c.09,0,.17-.01.25-.02-.06.05-.13.09-.19.13l.02.04s.07.03.11.01h0s.07-.03.12-.03c-.02.04-.06.06-.08.1.02.06.1.04.15.03.09-.03.21-.04.3-.02.13.04.23.07.36.12-.07.03-.12.03-.19.04-.15.02-.3,0-.44-.02h0c0,.08.06.15.1.21.09.09.19.08.3.07.07,0,.14-.01.21-.03v.04s0,.03,0,.04c.09.01.19.03.28.02.02-.04.02-.1.02-.16.02-.03.05,0,.07,0,.11.04.26,0,.3.13-.08.05-.15.11-.24.15h0s0,0,.01,0h-.04c-.05-.03-.11-.05-.18-.04-.09-.04-.22,0-.31,0-.15.05-.27-.08-.42-.04-.02.01-.03.03-.03.06.09.17.28.2.45.25h-.03c-.09.04-.18.07-.28.09-.29.02-.59.06-.88.07h-.02c.02-.05.05-.09.05-.14-.02,0-.03-.04-.05-.03-.06.05-.1.14-.17.17-.03-.01-.07-.02-.11-.03.03-.05.15-.09.09-.17,0,0-.02,0-.02,0-.02,0-.04,0-.05.03-.07.03-.1.09-.16.13,0,0-.02,0-.03,0-.39-.07-.73-.26-1.07-.46-.05-.03,0-.06-.01-.1-.04-.07-.09-.02-.13-.02-.04.03-.07-.03-.09-.05.01-.02.03-.02.04-.03,0-.03,0-.05,0-.08-.07-.03-.15-.02-.21-.02-.04-.05-.09-.09-.14-.14h0s-.03-.04-.03-.04c.11-.11.25-.22.35-.34,0,.13,0,.24,0,.38l.02.02c.06-.01.15,0,.22-.02.02-.1.02-.19.04-.29.05-.04.12,0,.18-.01v-.29c-.04-.06-.17.05-.15-.07.1-.11.25-.21.34-.33.03-.03-.03-.06-.03-.09,0,0,.01-.01.02-.02l.02.04"/>
      <path class="cls-8" d="M11.55,7.41s.02-.02.03-.02c0-.03-.04-.07-.07-.1-.03,0-.06.06-.09.03-.03-.04-.04-.1-.03-.15.07,0,.13.04.17.11.02.08.11.14.09.23,0,0,.01,0,.02-.01,0-.1-.07-.16-.1-.24-.04-.06-.11-.09-.17-.1.16-.15.31-.29.47-.44.07.05.14.05.22.09,0,0-.02.01-.02.03-.01.04,0,.07.03.09.06,0,.13.02.18.05-.15.17-.31.33-.48.48-.06.04-.1.09-.17.09-.02-.01-.04-.03-.06-.05l-.03-.05"/>
      <path class="cls-7" d="M13.25,7.87c-.06.14-.22.22-.37.24-.03.01-.06,0-.09.03.03.06.09.06.13.08.15.02.32,0,.42-.13.1-.07.21-.14.24-.26-.1.01-.21,0-.31,0l-.02.04"/>
      <path class="cls-7" d="M12.5,6.14s.06.02.1,0c.02,0,.04-.02.04-.04-.04-.06-.08-.09-.14-.14h-.01c-.03.23-.25.4-.43.5-.16.13-.42.17-.6.07.12-.09.25-.19.38-.27.12-.06.28-.05.38-.17-.03-.01-.06,0-.09,0-.01,0-.03.02-.05,0h0c-.13.04-.28.07-.42.09-.07,0-.12-.03-.19-.04-.12-.04-.23-.11-.34-.2.1-.08.24-.02.35,0,.14.04.24-.06.37-.1.16-.03.35.06.48-.04h0s.01-.02.01-.02c-.02-.08-.09-.16-.16-.22-.03,0-.07-.02-.1,0-.19.09-.36.3-.6.19-.14-.01-.25-.09-.35-.18-.05-.08-.1-.16-.15-.23h.02c.12.01.23.07.33.13.2.1.33-.02.5-.03.05-.01.12-.01.13-.07l-.09-.1c-.1,0-.17.09-.27.1-.14.05-.28-.07-.41-.1-.13,0-.26,0-.39-.06-.14-.02-.19-.17-.28-.27,0-.02-.04-.02-.04-.04.09-.02.16.03.24.05.08.05.2.05.29.05.17,0,.26.16.42.17.03-.03.05.02.08.02.05.03.09.01.14.02,0,0,.02-.01,0-.02-.08,0-.16,0-.22-.06-.03-.04-.02-.09-.02-.13.04-.07.14-.02.21-.02.08.02.1.1.15.15.01,0,0,.01.02,0,0-.03-.04-.04-.05-.07-.02-.04-.05-.06-.09-.08v-.05c-.05-.15-.15-.28-.24-.4-.03-.01-.05.03-.08.03-.16.21-.44.13-.65.08-.14-.07-.27,0-.42-.04.03-.03.07-.07.11-.1.05,0,.11-.06.16-.02.01-.01,0-.02,0-.03.07-.03.14-.05.22-.05-.08-.03-.17,0-.24.04-.1-.1-.1-.25-.21-.34-.02-.02-.07-.05-.06-.09.22,0,.32.24.49.35.08.05.2.04.3.05.11.02.21.07.32.07.03,0,.04-.02.03-.04-.03-.08-.08-.16-.16-.22-.09-.02-.16-.05-.25-.06-.2,0-.39-.03-.53-.16-.06-.06-.12-.12-.18-.19-.04-.02-.08-.06-.11-.1,0-.02-.03-.04-.01-.05.1.06.19.12.29.17.09.04.19.04.29.08.15,0,.26.11.38.18h.04s.02-.02.02-.04c-.06-.11-.14-.22-.2-.34-.11-.02-.23-.01-.33-.05-.18-.03-.33-.17-.41-.34-.07-.22-.2-.41-.34-.59h0c.05.04.13.04.18.1.05.16.15.32.3.42.03.02.07.03.09.07.11.11.23.18.38.2.02,0,.04.05.06.01-.05-.1-.17-.12-.25-.18,0,0,0-.01-.02,0l-.25-.11c-.25-.17-.3-.47-.38-.72.03.03.06.05.09.08.01,0,0,.03.01.02.11.11.09.28.21.39.08.08.19.08.28.12.04.03.09.08.15.06,0-.13-.14-.22-.23-.29-.1-.09-.13-.23-.23-.33-.07-.1-.21-.18-.23-.3l.04-.03c.07.05.15.11.22.17.1.07.23.11.28.23.05.17.18.31.23.49.05.07,0,.15.02.22,0,.02.02.06.04.05,0-.02-.01-.03-.02-.04,0-.12,0-.24-.06-.34-.17-.23-.08-.5-.13-.77,0,0,0-.01,0-.03.19.23.3.51.33.8.05.18-.08.37.04.53.01.02.01.06.04.05-.06-.13.03-.25.05-.37.01-.21-.01-.44-.11-.62,0-.02.03-.02.05-.02.14.1.21.25.25.41.01.07.05.14.04.22-.04.17-.14.3-.21.47-.05.13.06.21.09.32,0,.02,0,.04,0,.05.04-.17.09-.37,0-.53,0-.07.07-.13.09-.2.15.22.12.55,0,.78-.04.13.09.2.14.3h.03s.04-.07.04-.11c-.05-.13-.07-.27-.04-.43.04-.13-.04-.24,0-.37.05.04.06.1.1.14.1.16.1.4.07.57-.04.09-.02.2-.09.28-.01.07.05.12.07.18h.02s0,.19,0,.19c0,.05.08.04.05.11.01.02.04.03.07.02-.05-.06-.02-.18-.03-.25h-.01c.01.07-.02.16.02.23h0s-.02-.08-.08-.1c0-.05-.02-.13,0-.18.01-.04.06-.06.1-.07.17.07.02.2.04.31h0s.01-.03,0-.05c.06-.14.08-.33.03-.48,0-.13-.16-.21-.11-.35,0-.04,0-.09.02-.12l.11.09c.22.17.21.47.22.71.01.13-.06.24-.12.35,0,.1.04.22.14.25.03,0,0-.03.02-.04.04-.16.07-.33.03-.5,0-.21-.07-.43-.01-.65.02-.11-.03-.19-.02-.29.02,0,.05.04.06.06.17.3.21.7.19,1.03,0,.17-.09.31-.16.45.03.08.11.15.15.23.03.03.04.1.1.09.05-.15-.04-.27-.04-.41-.04-.13.02-.29.02-.42-.02-.14,0-.33-.02-.45,0,0,.01,0,.02,0,.12.13.14.3.2.45,0,.2.03.4-.03.61-.03.1-.07.22-.07.32l.23.26h.01c-.02-.2-.09-.37-.1-.56-.05-.19.06-.34.06-.54,0-.08-.04-.15-.04-.23.1.13.19.26.22.42.05.25.06.54-.02.78-.03.08.02.18-.02.26.03.03.04.05.08.08,0,0,0,.01,0,.02,0,0,.01,0,.02,0,.07-.18.08-.38.05-.57,0-.04-.02-.11,0-.15h0c-.03-.07,0-.14,0-.23.04-.12.08-.23.14-.33v.02c0,.31.14.63.07.91-.02.16-.1.31-.18.46.02.04.06.08.09.11h0c.03.07.09.13.15.19.02,0,.03-.01.04-.02.02-.11.06-.21.05-.31,0-.16-.13-.31-.06-.47-.02-.14.04-.31.04-.46.02.02.03.05.05.07.07.17.09.37.14.55.05.27.11.56-.11.77,0,.02.01.05.02.07,0,.05.06.09.08.14.02.02.03.05.06.05,0-.04-.05-.06-.04-.11.03-.07.03-.16.12-.21.02,0,.05,0,.06,0-.02.09-.03.18-.02.26.06.08-.07.12-.05.19.03-.07.1-.12.08-.2-.03-.12.03-.23,0-.36-.13-.3.21-.5.35-.72.05.1.07.24.04.36-.08.28-.12.57-.25.82-.03.08-.11.15-.12.23l.15.17s.03.02.04,0c0-.17.07-.32.1-.48.02-.25.02-.53.26-.7.01.05.02.12.01.17-.07.32.06.67-.17.94-.04.05-.06.11-.12.14-.02.03,0,.05.01.07.03.03.05.08.07.12.07-.01.08-.08.12-.13.11-.2.15-.54.45-.57h.01c-.09.13-.13.29-.1.45-.09.14-.22.27-.38.3.01.01,0,.04,0,.05.03.05.06.11.1.14.03.06-.04.13-.01.19-.03-.01-.05-.03-.09-.03-.03-.06-.07-.12-.12-.17-.06-.07-.14-.02-.2,0-.18.11-.35.25-.57.3-.12.02-.23.08-.35.08-.01,0-.03-.01-.03-.03.28-.16.51-.44.84-.5.06,0,.13,0,.18-.03,0-.04-.04-.07-.06-.11h-.02,0c-.12.08-.26.08-.4.1-.12.04-.28-.05-.39.05-.09.04-.21.06-.31.02-.06-.05-.16-.1-.14-.18.03,0,.05,0,.08-.01.15.05.32.02.45-.06.1-.06.21-.09.32-.11.08,0,.14-.03.22-.02l-.08-.09c-.06.03-.13.06-.2.05-.09-.04-.21,0-.33-.01-.13,0-.25.12-.38.06-.12-.07-.24-.13-.36-.19-.03-.02-.07-.06-.07-.1.04-.04.12-.01.16-.02.22-.03.37.09.56.12.08.01.18.04.26,0h.05s.07.03.1.04c0,0,0-.01,0-.02.04,0,.09,0,.13-.02h0s-.1.01-.15,0c-.12-.04-.21-.16-.22-.27.04-.02.08-.02.13-.02.06,0,.09.04.13.08.01.03.05.06.03.09-.03-.03-.07-.04-.11-.04.05.02.1.05.15.1,0,0,0,0,0,0,0,0,0-.03.01-.03-.03-.06-.05-.12-.11-.16,0,0,.01,0,.02,0,0-.02,0-.06-.04-.06-.03-.04-.07-.07-.1-.11-.03,0-.05-.02-.08,0-.16.13-.34.28-.55.22-.15-.1-.33-.15-.5-.21-.04-.01-.09,0-.13-.03-.02-.03,0-.06.02-.07.17-.08.34,0,.52,0,.17.04.36.07.52.04.03-.02.08-.02.08-.05-.03.01-.06.03-.1.04-.06,0-.15.03-.19,0-.02-.04-.05-.08-.03-.13.04-.05.1-.09.17-.07,0,0,.01,0,0,.02.05.02.1.05.14.09,0,0,0,0,0-.01,0-.02-.02-.02-.03-.04-.03-.02-.08-.03-.09-.06l-.03-.04s-.04-.02-.06-.03c-.1,0-.17-.04-.26,0-.12.08-.26.13-.39.2-.09,0-.17,0-.25.02-.12-.03-.24-.06-.33-.13.11-.08.25-.05.38-.06.19-.03.36-.14.54-.2.05,0,.1,0,.14-.02-.02-.04-.06-.07-.09-.11-.07-.01-.12.06-.19.07-.1.08-.19.06-.3.06-.02,0-.04.02-.06,0l.08-.07s.09-.09.13-.14c0-.01.01-.03.02-.04h.05"/>
      <path class="cls-8" d="M12.46,6.12s.05-.07.08-.09c.03.02.06.05.08.08h-.02s-.07.01-.1.01h-.04"/>
      <path class="cls-4" d="M9.5,7.3c0,.07.01.13-.03.18-.03-.04-.04-.1-.04-.13,0,.01.01.03.03.03.06-.03.02-.11.06-.16,0,.03-.01.05-.02.07"/>
      <path class="cls-2" d="M16.45,7.22s.03.07.03.11c-.03-.01-.03-.06-.04-.09,0,0,0-.02.01-.02"/>
      <path class="cls-4" d="M9.8,7.33c.1.26.25.51.4.75h0s.15.2.15.2c0,.03-.04.05-.05.07-.26-.32-.45-.69-.59-1.06.03,0,.07.03.1.05"/>
      <path class="cls-1" d="M15.04,7.41s-.07-.09-.05-.15h0s.07.1.04.15M11.48,7.34l.03-.02.05.07s-.06.04-.05.07c.01.03.06.06.02.09-.31.28-.6.55-.89.86-.18.15-.36.31-.54.46-.02-.06-.05-.12-.06-.19.1-.08.17-.19.28-.26.32-.37.69-.72,1.03-1.08h.02c.05,0,.09.07.14.02"/>
      <path class="cls-2" d="M16.32,7.28s.01.07-.01.09v-.1s0,0,.01,0M16.21,7.33s-.03.03-.05.02c.02-.03.05-.04.08-.06.02,0-.01.03-.02.04M9.34,7.68h0c-.02-.06-.03-.11-.06-.17-.02,0-.03.04-.04.05v.1s0,0,0,0c-.05-.1.07-.16.05-.26-.03.1.06.18.06.28"/>
      <path class="cls-1" d="M15.03,7.53s-.04-.03-.06-.05c-.01-.03,0-.07,0-.1.05.04.06.08.05.14"/>
      <path class="cls-2" d="M16.3,7.47s.02.11-.02.15h0c0-.05-.01-.12.02-.15"/>
      <path class="cls-1" d="M15.02,7.59s-.01.04-.02.06c0-.03,0-.07,0-.1.02,0,.02.03.02.04"/>
      <path class="cls-2" d="M16.2,7.6h-.04s.06-.02.08-.05c.01.02-.02.04-.03.05"/>
      <path class="cls-10" d="M14.58,7.95c-.08,0-.15,0-.19.07-.01,0-.01-.04-.03-.04-.02-.03-.04-.07-.06-.1.03-.02-.01-.03,0-.05.07-.02.15-.05.2-.11.05-.04.1-.1.14-.15,0,.14.03.26-.05.39"/>
      <path class="cls-2" d="M9.3,7.84s0,0,0,0c-.02-.02,0-.05-.03-.06-.02.02-.03.06-.05.07.03-.06.08-.12.07-.2l.02-.04c0,.06-.03.15.01.22M16.27,7.68s0,.05,0,.07h-.01s0-.06.02-.07"/>
      <path class="cls-10" d="M13.99,7.82c-.07.02-.15,0-.21.03-.07,0-.14.06-.22.08.02-.03.05-.07.05-.1.03-.02.08,0,.12-.01.08,0,.16-.03.23-.06l.03.06"/>
      <path class="cls-4" d="M15.6,7.86h0c.04.06.05.14.03.2,0,0-.01.02-.02.01-.04-.08-.04-.19-.04-.28.02.01.03.04.03.06M9.06,7.87v.14c.06,0,.11-.05.14-.09.01.04.03.09,0,.13-.03.03-.07.04-.1.07-.04,0-.06.05-.1.06,0-.08,0-.21.01-.29.01,0,.03-.02.04,0M11.22,7.94s.09-.01.12,0v.26c-.06.02-.15-.04-.19.02,0,.08-.02.19-.03.28-.07,0-.13,0-.19,0,0-.12,0-.27,0-.39h0s.26-.25.26-.25c.01.02-.01.06.03.06M16.41,8.02h0s-.07-.11-.09-.17c.03.06.14.1.09.17M12.72,7.92c.01.09,0,.15,0,.23,0,0,.02,0,.03,0,.04-.02.05.04.09.05h.04c0,.07.01.12-.01.17-.07,0-.13.01-.19.03,0,.1,0,.19-.01.29-.07.01-.14,0-.22,0-.01-.1,0-.23.01-.34h0s-.13-.01-.13-.01c-.01-.08-.02-.19.02-.26.06,0,.11,0,.17-.01h0s.02-.15.02-.15c.06-.04.12,0,.19-.01M15.48,7.89c.02.11.1.28-.02.37-.01-.09,0-.2-.03-.3-.01-.03.02-.08.05-.07"/>
      <path class="cls-2" d="M16.15,7.88s-.02.08-.06.1c.01-.03.04-.07.06-.1"/>
      <path class="cls-8" d="M9.4,8.27c-.05.06,0,.15-.04.2,0,0,0,.02-.01.03h0s0,0,0,0c0-.03-.06-.03-.04-.07-.07-.06-.02-.14-.03-.22h-.01s0,.08-.03.12c0,.05-.04.09-.04.14.04,0,.03-.06.05-.08.01.02.03.06.04.1-.02.04-.02.08-.03.12l-.03-.03s-.02.08-.03.11c-.03.04-.04.13-.12.1,0,0-.02,0-.03.02,0,.04.04,0,.06,0,.03,0,.05-.01.07-.02,0-.01.03-.04.04-.07.01.03.02.08.06.09-.01.07,0,.15-.02.22,0,.06-.1.1-.09.17-.02,0,0,.03-.02.04-.02-.06-.03-.12-.03-.19.05-.05.1-.13.08-.21-.04.02-.05.07-.09.07,0-.01-.01-.04-.04-.04-.02,0,0,.03-.02.04-.02-.04,0-.1,0-.13.06-.03.05-.12.09-.16,0-.04.03-.09,0-.11-.01-.07-.03-.15-.07-.22-.03,0-.03.02-.05.04,0-.04-.03-.11.01-.15l.06-.06h0s.09-.03.12-.07c.02.04.03.08.04.13,0,0,.02,0,.03-.01,0-.05-.03-.1-.04-.15.03,0,.03-.04.04-.06.03.11.04.21.11.31"/>
      <path class="cls-4" d="M9.41,8.19s0,.03,0,.05c-.05-.08-.07-.18-.09-.27.02.01.04.05.06.03l.02-.02h0s.01-.02.01-.02c-.01.07-.04.15,0,.23"/>
      <path class="cls-8" d="M9.26,7.97s0,.01,0,.02v-.02h0"/>
      <path class="cls-2" d="M16.17,7.98s-.03.07-.06.09c0-.04.03-.07.06-.09"/>
      <path class="cls-10" d="M14.16,8.06s-.07,0-.11.01c0,0-.03,0-.04.01,0,.04-.01.11-.02.17-.07,0-.15,0-.21.04v.05c-.11.02-.2-.03-.31-.02.02-.02.06-.02.09-.04.1-.05.19-.1.28-.16.03-.01.06-.06.11-.07.06-.03.09-.06.16-.04.02.02.04.03.06.06"/>
      <path class="cls-4" d="M14.22,8.15s-.12.07-.09.13c0,.01.02.02.02.04-.11,0-.23.07-.35.02,0-.03,0-.06.04-.06.06,0,.12-.02.16,0,.03-.07.01-.11.03-.17.06,0,.18-.07.19.04"/>
      <path class="cls-2" d="M14.48,8.3h0s0-.11.03-.14c0,.04,0,.1-.02.14M16.07,8.2s-.07.05-.11.02c0,0,.01,0,.02,0h0s.06-.02.09-.02"/>
      <path class="cls-4" d="M9.05,8.33c.01.07.04.12.05.2.04.02,0,.07,0,.1-.02.01-.05.04-.07.02,0-.09,0-.19-.02-.27,0-.02.02-.03.04-.05"/>
      <path class="cls-1" d="M9.86,8.41l.1.23c-.06.04-.13.08-.18.14,0,.01-.02.02,0,.03,0,0,0,0-.01,0-.07-.08-.26-.15-.22-.28.04-.09.12-.17.22-.19.05,0,.07.04.1.07"/>
      <path class="cls-2" d="M14.42,8.35s-.06-.02-.09-.02v-.02s.07,0,.09.03"/>
      <path class="cls-4" d="M9.33,8.53c0,.07-.03.17-.06.25h0s-.05-.11-.04-.17c.03.02.05,0,.06-.03l.02-.08s.02.02.04.03"/>
      <path class="cls-8" d="M10.51,8.63s0,.04-.02.06c0,.02-.02.05-.02.07,0,.04-.04.08-.02.11.03.12.2.21.13.34,0,.03,0,.08.01.11-.02.03-.04,0-.06,0-.07.06-.04.12-.03.19.01.15-.12.24-.06.39-.04.08,0,.16,0,.25-.01.03-.06.03-.06.07.04.1-.05.2-.03.31-.09.07.04.17-.05.23,0,.04,0,.08,0,.12-.03-.02-.02-.11-.08-.08,0,.03,0,.07,0,.1-.01,0-.03-.02-.05,0,0,.08.04.14.07.2h.02s.01.07,0,.11l-.03.02h0s-.02-.03-.05-.03c-.03,0-.02,0-.03.03-.01.02,0,.07,0,.09-.01,0-.03,0-.04.01-.06-.06.04-.13-.02-.17-.01,0-.02,0-.03,0-.02-.03,0-.06-.04-.09.06,0,.09-.08.1-.13,0-.03,0-.06-.01-.09.04-.03.06-.07.08-.11,0,0,0-.02-.02-.03-.03.04-.05.09-.07.13-.02,0-.03.03-.05.05,0-.04-.04-.07-.05-.11.05-.02.07-.08.12-.1.05-.05.05-.12.05-.18-.04-.05-.07.03-.12.03,0-.04.08-.11.02-.14-.03,0-.04.03-.06.04,0-.04-.01-.07-.03-.1h-.02s.02-.1.07-.12c0-.02.04-.04.03-.06-.03,0-.03.04-.05.06l-.04.03c0-.06,0-.12,0-.17,0-.08-.01-.16.01-.25.02-.04.07-.03.09-.08,0-.02.01-.06,0-.08-.03,0-.05.03-.08.02-.02-.1.04-.19,0-.27.06-.05.07-.11.09-.18.02,0,.02.05.04.02,0-.03-.03-.04-.05-.05-.02,0-.04-.01-.05-.03,0-.05,0-.11.05-.14.03,0,.08,0,.1-.03-.02-.04-.04-.08-.02-.12.06.04.12-.01.18-.03.09-.08.1-.2.14-.3.02.01.04.03.04.05"/>
      <path class="cls-10" d="M14.4,8.56s.06.09.08.14c-.05-.02-.1-.03-.14-.07-.03,0-.07-.02-.1-.03.05,0,.12-.05.16-.04"/>
      <path class="cls-4" d="M14.16,8.61s-.05.01-.08,0c.02-.01.05,0,.08,0M14.04,8.61s-.03,0-.05,0c.01-.02.04,0,.05,0"/>
      <path class="cls-8" d="M15.52,8.88h0s-.08,0-.1.04c0,.08.08.12.12.18,0,.02.04.05.02.08-.02.02-.03.05-.03.07.05.03.03.08.02.12-.02.07-.14-.02-.1.08.02.04.09.06.07.11-.02.03-.02.07-.05.08-.02-.02-.05-.04-.08-.05-.02.02,0,.06.02.08.04.07.07.16.06.23-.02,0-.03,0-.05.02-.12-.2-.25-.41-.37-.61v-.05c.08-.15.22-.28.29-.45,0,.09-.04.2-.08.29,0,0,.01,0,.02,0,.05-.1.08-.22.08-.33h-.01s.04-.1.05-.16c.02.11.19.13.11.25"/>
      <path class="cls-1" d="M10.02,8.77s.03.1.03.14c.02,0,.02.04.02.06-.02,0-.06,0-.07-.03-.07-.02-.15-.07-.21-.12.02-.08.11-.11.18-.16.03.03.03.07.04.11"/>
      <path class="cls-4" d="M10.94,8.73s-.02.05-.04.06c-.1.02-.24.04-.31-.05,0-.02,0-.03.01-.04.1,0,.24-.03.33,0v.02M10.9,8.82s.03.02.04.04c-.02.01-.06.01-.09.01,0-.02-.04-.02-.06-.04l.11-.03s0,.01,0,.02M11.11,8.88s-.02.06-.05.08c-.06.02-.14.03-.21,0-.02-.01-.04-.03-.04-.05.11.02.18-.06.28-.05l.02.02"/>
      <path class="cls-1" d="M9.97,8.97c-.3.27-.56.58-.89.81-.02,0-.01-.04-.01-.06l.04-.07c.2-.22.4-.41.6-.62.04-.04.08-.1.1-.15.05.04.11.06.16.1"/>
      <path class="cls-4" d="M9.05,9.05s-.02-.06-.01-.08c.02,0,.01-.04.03-.05,0,.01.03.03.05.02l.04-.04c0,.06-.04.13-.11.15M16.11,8.99s-.06-.07-.11-.06c-.06.02-.11.05-.17.08,0-.02-.02-.04-.02-.06.03,0,.03-.04.05-.06.06.05.12.01.18,0,.01.01.03.03.05.02.02-.01.03-.02.04-.04,0,.04,0,.1-.04.13M11.46,9.17c.23.13.49.22.75.28-.03.03-.07.04-.09.08,0,0,0-.03-.02-.03-.16-.04-.34-.04-.47-.14h0c-.06-.03-.12-.04-.17-.07-.15-.07-.29-.2-.44-.27.03-.01.06-.02.08-.05.11.1.23.14.35.21"/>
      <path class="cls-2" d="M9.21,9.04s-.01,0-.02,0l-.02-.05s.03.02.04.04"/>
      <path class="cls-8" d="M16.11,9.02s0,.06,0,.09c-.04.02-.07.04-.09.08,0-.02-.03-.03-.05-.03h0s.04-.1-.04-.07c0-.01,0-.03-.02-.04-.02,0-.03.01-.05.01,0,0,0-.02,0-.03.06-.03.12-.08.2-.07.03.01.03.05.07.06"/>
      <path class="cls-4" d="M9.13,9.27v.04c-.07-.05-.06-.13-.08-.19,0-.02,0-.04.02-.04,0,.07.02.14.05.2"/>
      <path class="cls-2" d="M15.35,9.05c-.01.07-.03.13-.05.19h-.01c.02-.06.02-.13.05-.19h.01M10.28,9.17c0,.1-.02.17-.03.27-.01.02-.02.04-.05.05-.02,0-.02,0-.04,0,.01-.02.06-.03.06-.07,0-.03.01-.06,0-.09l-.03.02s0-.01-.01-.02c.06-.03.06-.1.06-.15-.02,0-.03.02-.04-.01,0-.02.03,0,.04-.02l.06-.05s-.02.04-.03.06"/>
      <path class="cls-4" d="M15.94,9.12c0,.07-.08.06-.1.11h0s-.01.01-.01.01c.01-.03.02-.09,0-.12,0-.04.04-.01.06-.03,0,.02.03.05.05.03"/>
      <path class="cls-2" d="M10.37,9.22s.03.05,0,.08v-.03s-.02.07-.05.08v-.02c0-.07.02-.13.03-.19.03.02,0,.05,0,.08"/>
      <path class="cls-8" d="M15.92,9.36s0-.1-.04-.13l.06-.04c-.03.07.12.14-.02.18"/>
      <path class="cls-4" d="M16.01,9.22h.03s-.02.05-.04.07c0-.04-.05-.06-.03-.1.02,0,.02.03.04.03"/>
      <path class="cls-2" d="M15.39,9.2c-.02.13,0,.29-.03.41h-.02c.04-.12.02-.27.03-.41,0,0,0-.01.02,0"/>
      <path class="cls-4" d="M15.87,9.26s0,.11.05.13c.01,0,.03-.02.04-.04h.01c-.01.06-.07.11-.1.17-.01-.09-.09-.17-.05-.26.01.02.03,0,.04,0M12.47,9.31c-.05.07-.12.14-.19.21-.04.01-.07.05-.12.03l-.02-.02c.09-.06.18-.14.26-.21,0,0,.03,0,.02-.02.01,0,.03,0,.04.02"/>
      <path class="cls-8" d="M11.55,9.37s0,.08-.03.12c0,.08.02.15.03.22.01,0,0,.02.02.02.01-.02,0-.06-.01-.08v-.07s.08.04.13.05c.02.07,0,.14-.01.21,0,.06.06.11.04.18.01.08-.05.15-.04.24,0,.05.06.1,0,.13h-.04s0,.05.01.08c-.05-.05-.04-.14-.1-.19-.03-.12-.01-.23-.02-.34h0s0,0,0,0c0,.09-.02.22.02.31,0,.04-.03.08-.03.13,0,.11-.03.19-.01.32.01.03.04,0,.06.01.01.09.14.03.13.12.01.09,0,.16-.01.23-.01-.06-.02-.14-.07-.18-.01.02-.02.04-.01.06v.21s-.02-.09-.04-.11c-.02,0-.03.01-.03.03-.03.16.13.3.08.45,0,.09-.02.19-.09.26,0,.01,0,.03,0,.04,0-.01-.01-.04-.03-.05-.02.02,0,.06-.02.09-.02.04-.02.09-.05.12-.01-.07-.02-.17-.05-.25,0,0-.02-.02-.04,0l-.02.02c-.03-.08-.05-.21-.01-.29.02-.02.01-.05.02-.07.08-.09.14-.18.16-.29h-.01s-.08.02-.11.07c-.01-.06-.05-.12-.11-.15,0-.06.02-.09.04-.15.07-.03.16-.08.19-.16h0c-.06.01-.12.05-.2.03,0-.05.03-.06.08-.07.02,0,.06-.02.08-.05,0-.03.02-.07-.01-.09-.05.03-.1.02-.16.03h0s.03-.08.03-.08c-.08-.05-.04-.15-.06-.23.01,0,0-.02.02-.02-.02-.03-.04-.03-.05-.05,0-.05.05-.12-.02-.15,0-.06.01-.11.01-.17-.01-.03-.05-.02-.06-.05v-.08c.11,0,.23-.07.29-.18.02-.06.07-.12.05-.19.02,0,.01-.02.02-.02.03.03.09.03.09.06"/>
      <path class="cls-4" d="M12.69,9.34c-.02.12-.13.22-.24.25-.01,0-.03,0-.03-.02.06-.04.13-.07.17-.14.03-.04.05-.08.09-.11h0"/>
      <path class="cls-8" d="M11.41,9.35c.03.06-.05.04-.07.07-.04,0-.07,0-.1-.02-.01-.01-.02-.03-.01-.05.07-.01.13.08.18,0"/>
      <path class="cls-2" d="M15.29,9.34c0,.07-.01.14-.03.21,0,0,0,0,0,0-.01-.03,0-.06,0-.09l.03-.13h0"/>
      <path class="cls-4" d="M13.72,11.14s.03.03.04.04c.01.02.04.02.05,0,.02-.01.03-.03.06-.02,0,.1-.14.17-.1.27.01.01.04.03.06.02l.06-.07c0,.11-.08.19-.15.27-.04-.17.04-.33-.05-.5,0-.01,0-.03,0-.04l.03.02"/>
      <path class="cls-8" d="M13.7,11.1s0-.02.01-.02h0c.02-.12.17-.16.13-.29-.02-.01-.05,0-.07-.02.01-.03.03-.07.04-.1-.02-.03-.06,0-.08,0-.02.02-.04.05-.05.07-.01-.11-.06-.24.03-.32-.03-.03-.11.02-.09-.06,0-.04.01-.07.04-.09.04-.03,0-.06-.01-.09-.02-.08-.03-.14-.03-.23.04,0,.07-.03.09-.06-.03-.02-.08-.02-.07-.07h0s.08-.05.13-.05c0,0,.01,0,.01-.02-.01-.02-.07-.02-.04-.05l.05-.12s.05.09.1.09h.02s.02.13.02.2c0,0,0,0,.02,0,.02-.02,0-.05,0-.07,0-.07-.04-.14,0-.21,0-.06.02-.12.02-.17l.02-.02c0,.13.06.26,0,.4,0,.06.08.1.06.17,0,0,.02,0,.03-.01.04-.08-.12-.12-.04-.21,0-.07-.01-.15-.02-.22.07.08.05.19.14.26,0,.02.03.03.03.05-.05.08.06.13.08.2-.02.03-.07,0-.08.04,0,.04.05.08,0,.12-.02.01-.06.01-.08.01-.02.01-.05,0-.06.02.02.08.05.14.09.21-.01.04-.02.07,0,.11,0,0-.02,0-.02.01,0,0,0,.02,0,.02,0-.01-.02-.03-.04-.02,0,.01,0,.01,0,.03-.01-.01-.02-.04-.05-.04h0c.02.09.07.16.11.23,0,0,.01,0,.02,0,.04.08-.05.16-.04.25-.03.03-.03.05-.02.09,0,.06.02.14-.02.2h0c-.01-.07-.06-.12-.08-.19,0,0-.01-.01-.02,0-.01.04,0,.09,0,.12.02.07.05.14.08.2,0,0,.01,0,.02,0,0,.01,0,.05,0,.08-.04-.04-.04-.1-.08-.14-.01,0-.02,0-.03.01,0,.1.05.19.01.28-.03.04-.08.04-.12.08-.02-.02-.02-.08-.07-.06h0s0,0,0-.02h0c.03-.05.07-.08.08-.13.04-.04.04-.11.05-.17,0,0,0-.03-.02-.03l-.09.1s-.01-.05-.01-.08c.01-.08.12-.12.09-.21-.04-.02-.07.01-.1.03-.02-.01-.03-.03-.04-.05l-.04-.02"/>
      <path class="cls-2" d="M10.33,9.59s-.01,0-.02,0c-.02-.04-.01-.09-.01-.14v-.02s0,.1.03.14"/>
      <path class="cls-4" d="M12.48,9.48s-.1.08-.16.04l.05-.06s.07.02.11.02"/>
      <path class="cls-2" d="M11.45,9.57c0,.07,0,.13.01.2-.03,0-.06.02-.07.04,0-.03.04-.05.05-.07,0-.05,0-.09-.01-.14-.02,0-.02.02-.03.03,0-.02.03-.06.05-.07M10.25,9.6l-.02.12s0-.08,0-.12c0,0,.01,0,.02,0M15.3,9.64s0,0,0,0c-.02-.02,0-.06,0-.08.03.01,0,.06,0,.08"/>
      <path class="cls-4" d="M14.88,11.11c.04.08,0,.18-.04.26-.02.02,0,.02.02.03.09,0,.08-.11.15-.15.03,0,.05.02.08.04.05-.07-.04-.11-.04-.18,0,0,0,0,0,0-.02.01-.03.05-.07.04-.02-.01-.04-.03-.06-.04h-.02"/>
      <path class="cls-8" d="M14.88,11.08s0-.01,0-.01c.11-.01.11-.14.17-.21,0-.02.02-.04,0-.05,0-.01-.03,0-.04,0-.01,0-.02.04-.04.03l-.05-.04s0-.03.01-.04c.1-.02.15-.12.18-.2-.04-.04-.08.05-.1-.01-.01-.02-.01-.05-.03-.07-.04-.02-.09.06-.11,0,.12-.04.23-.12.31-.23,0-.02.02-.04,0-.06-.05-.05-.09.05-.13.06-.05.02-.09.07-.14.09,0-.07-.01-.13.06-.18,0-.02,0-.03-.02-.03h-.02c.01-.06,0-.12.05-.16,0-.05-.07-.03-.05-.08.01-.06.03-.13.02-.19.12.17.22.35.34.53,0,0-.04-.04-.06,0,0,.06.02.12.06.17-.02-.01-.04-.04-.07-.05-.06.03,0,.1,0,.15.03.02.03.06.07.07,0,.03,0,.07,0,.09-.04-.05-.05-.13-.12-.16-.02.05,0,.11,0,.16.02.05.03.11.07.15-.03.05-.02.12,0,.18-.06-.06-.08-.13-.11-.2,0,0-.01,0-.02,0v.02s-.02,0-.02,0c-.04.1,0,.2.08.27,0,.04-.02.1-.04.14-.04-.04-.03-.1-.07-.13-.04,0-.04.05-.08.06-.02-.01-.04-.03-.06-.04h-.04"/>
      <path class="cls-2" d="M10.27,9.72c0,.07.01.15,0,.21,0,0-.02,0-.02,0v-.2s0,0,.02,0M11.52,9.85h0s-.02-.07-.02-.1c.01.03,0,.07.02.1M14.17,9.88v.02s-.06-.06-.07-.1v-.02s.03.07.07.1M12.59,9.93h-.01s0,.07,0,.1c-.03.09,0,.19-.03.29h-.02c.02-.1,0-.23.03-.33v-.02s-.03.03-.03.03c0,0-.02,0-.01-.03l.04-.04s0,.02.02.02M11.46,10.01c0,.08,0,.17-.04.24h0s.02-.03.03-.06c0-.07.03-.15,0-.22.01,0,.01.03.02.04M13.94,10.01c-.01.11.01.22.02.34h-.02c0-.11-.04-.24,0-.34h0M10.27,10.04c-.02.06,0,.13-.04.2,0,.01.01.04-.02.04h0c.02-.08.02-.17.05-.24h0M14,10.14c-.02.1.02.18.02.28,0,0,0,0,0,0h0c-.01-.1-.04-.2-.02-.3,0-.01.01-.02.03-.02.01.01,0,.02,0,.03"/>
      <path class="cls-4" d="M15.16,10.2c-.07.1-.17.18-.29.21.01-.11.14-.14.22-.2l.07-.07s0,.04,0,.05"/>
      <path class="cls-2" d="M10.18,10.21s-.02.09-.05.12c0-.02.02-.05.03-.08,0-.01,0-.04.02-.04M11.45,10.25s-.02.06-.03.08c-.01-.03.02-.05.02-.08h.01M11.45,10.29s0,.09-.02.12c0-.03,0-.08.01-.12h0"/>
      <path class="cls-4" d="M11.54,10.29c.04.07.03.16.11.19.01.07,0,.13-.03.19-.02,0-.02.02-.01.04h0s-.05-.07-.11-.05c0-.13.02-.24.02-.37h0"/>
      <path class="cls-2" d="M12.68,10.32c0,.07-.02.14.03.19,0,0,0,.01,0,.02-.02,0-.03-.04-.05-.06,0-.05-.01-.11.02-.15h0M12.42,10.32s-.05.04-.07.05c-.01-.02.01-.02.02-.04.01,0,.04-.02.05-.02"/>
      <path class="cls-4" d="M10.01,10.48s.05-.02.06-.04c0,.05-.06.1-.02.14.03,0,.07-.02.09-.04,0,.03,0,.09-.01.13-.06.03-.08.1-.14.12,0-.14.01-.27-.03-.41.02.03.01.08.04.1M15.3,10.46s-.02.04-.01.06c-.03-.05-.08-.1-.07-.17.04.02.08.06.08.1"/>
      <path class="cls-2" d="M12.84,10.44h0s-.03,0-.05-.02h0s.03,0,.05.02M13.93,10.51h.02c-.02.11.02.25-.07.32h0c.06-.1.05-.21.06-.32-.02.03-.02.08-.05.07,0-.02.02-.04.02-.06.02-.04,0-.09.04-.12v.1"/>
      <path class="cls-4" d="M14.99,10.55s.05.02.08.01c-.03.07-.08.14-.15.16-.03-.05-.08-.11-.04-.17,0-.02.01-.04.01-.06.02,0,.04-.01.06-.02l.04.08"/>
      <path class="cls-2" d="M14,10.6v.02s-.02-.06-.03-.09v-.02s.03.06.03.09"/>
      <path class="cls-4" d="M11.32,10.61s-.05,0-.08.02c-.02-.01,0-.05-.01-.08.05,0,.1,0,.15-.02.03.05-.03.07-.06.08"/>
      <path class="cls-2" d="M12.6,10.67c0,.06-.03.11-.06.15h-.01s.03-.05.04-.08c.02-.07.03-.16.02-.23.04.04,0,.11.01.15"/>
      <path class="cls-4" d="M15.26,10.66l-.02.09c-.05-.07-.06-.15-.07-.23.03.05.05.1.09.15M14.17,10.66s-.03.08-.01.12c-.03-.05-.08-.1-.09-.16.01,0,.03.03.04.02,0,0,.01,0,0-.02.01.01.02,0,.03,0,0,.01,0,.04.02.04"/>
      <path class="cls-7" d="M15.8,10.64s.01.04.03.05c.04-.03.03.03.06.04.05.07.09.15.11.23-.11-.06-.24-.13-.31-.24-.01-.03.01-.06.04-.07.02,0,.05-.03.07-.01"/>
      <path class="cls-4" d="M13.76,10.68s-.06.08-.02.11h.07c.02.08-.04.13-.09.17,0,0-.02.02-.03,0,0-.08-.02-.14-.01-.22.04,0,.04-.07.09-.07M11.4,10.7s-.08.07-.12.09c-.01,0-.03,0-.04-.03v-.03c.05,0,.12,0,.16-.03"/>
      <path class="cls-2" d="M13.96,10.74s.03.1,0,.12c-.01-.04-.01-.07,0-.12h.01"/>
      <path class="cls-4" d="M15.21,11s0,.03-.02.05c-.03,0-.06-.04-.07-.06-.03-.07-.03-.11-.02-.19.01.08.07.14.11.2"/>
      <path class="cls-2" d="M11.45,10.83c-.01.07.01.13,0,.2h0s0-.06-.01-.09c-.01.01,0,.04-.03.04.02-.05.03-.1.04-.15h.01"/>
      <path class="cls-4" d="M14.99,10.85l.03-.03v.03c-.05.06-.07.14-.13.2h-.01c.08-.07-.03-.15.02-.23.03,0,.04.06.08.04M10.08,10.94l.02-.02s0,.11-.04.14c0,0-.02,0-.03.01.01-.06-.01-.14-.01-.21.03.02,0,.12.07.08M12.79,11c0,.09,0,.18-.03.25-.02-.06-.05-.11-.07-.17.03,0,.04,0,.06-.01,0-.07-.03-.14-.03-.21.02.05.04.1.07.15M10.29,10.97s0,.08-.01.13c-.03-.05-.05-.1-.06-.15.01,0,.02,0,.03,0,.02-.01.02-.04.02-.06.02.02.03.05.03.08"/>
      <path class="cls-2" d="M12.57,10.88s0,.05-.02.07c-.02-.02,0-.05,0-.07h.01"/>
      <path class="cls-4" d="M11.61,11.17v.16h-.01c-.03-.09-.09-.18-.07-.27.03.03,0,.09.04.1.04-.02.02-.06.03-.09v-.15c.02.08.07.18,0,.25"/>
      <path class="cls-2" d="M10.18,11s.03.07.02.09c-.03,0-.02-.06-.04-.03.01,0,0,.02,0,.03h-.01s0-.1.03-.13c.02,0,0,.02.01.04M13.94,10.99c0,.08.02.15,0,.23,0,0-.01,0-.02,0,0-.07,0-.14,0-.22h.01"/>
      <path class="cls-4" d="M11.32,11.16h.01s.06-.05.09-.06c-.03.08-.07.16-.14.23h0s-.04,0-.04,0c.02-.11.02-.2-.01-.3.04.04.08.09.08.15"/>
      <path class="cls-2" d="M12.57,11.1s0,0-.01,0c-.01-.02,0-.04,0-.06.02,0,0,.04.02.06"/>
      <path class="cls-4" d="M10.06,11.21h.04c-.02.06-.02.13.02.18,0,0,.01,0,.02,0-.03.04-.02.09-.02.13.08.01.01.1.03.16-.06-.07-.02-.17-.08-.24-.02-.06.04-.14-.03-.19,0-.03-.02-.04,0-.07,0,.01,0,.03.02.04M14.07,11.42c-.02-.07-.06-.14-.07-.22.03.07.07.14.07.22M10.24,11.49s-.02-.09-.03-.13c0-.03-.02-.07-.01-.11.06.06.07.17.04.24"/>
      <path class="cls-2" d="M12.58,11.36c.01.07-.05.13-.07.18h-.02s.04-.06.06-.09c.01-.05,0-.13,0-.18.03.01.02.06.02.09"/>
      <path class="cls-8" d="M15.05,11.45c0,.09-.13.13-.1.22h-.08c-.04-.06,0-.15-.02-.21l-.02-.06s.06-.01.1-.01c.07-.02.05-.2.14-.09l-.02.15"/>
      <path class="cls-2" d="M11.4,11.5s.02-.04.02-.06c0-.03,0-.06.02-.09.01.05,0,.11-.04.15"/>
      <path class="cls-8" d="M10.21,11.53l-.03.04s.02-.07-.03-.08h0s0-.04,0-.06c0-.03.01-.04.02-.07.02.05,0,.11.04.16"/>
      <path class="cls-4" d="M12.48,11.43c-.06.05-.1.13-.18.15-.02-.04,0-.09,0-.14l.03-.04s.1.01.15.03M14.05,11.53h0c-.02.1-.04.19-.07.3,0-.05-.06-.12.01-.15.02-.07,0-.13,0-.21.01.02.02.06.05.06M12.42,11.76s-.07.03-.1.04c-.04-.04,0-.09,0-.14.02,0,.03.03.05.04.04,0,.08-.03.12-.04h0s-.03.08-.07.1M14.93,11.69h0s.02,0,.02,0c0,.04-.01.07-.04.09-.05.02-.03-.04-.04-.06v-.05s.05.01.06,0M11.32,11.72c.03.1,0,.19.06.27.02,0,.03-.01.04-.03.02-.05.04-.1.05-.15.02.08-.03.16-.04.25-.01.03-.02.07-.05.08-.09-.11-.07-.25-.09-.39.02,0,.01-.03.03-.03M13.83,11.75s.02.01.02,0h0s.05-.03.08-.03c0,.09-.05.16-.11.23h-.02c-.01-.07-.01-.17-.01-.25h.03s.02.02.02.03"/>
      <path class="cls-8" d="M13.98,11.86c0,.08,0,.18-.05.25-.04-.02-.06.03-.1.03-.01-.03,0-.08-.03-.09,0-.05.04-.08.08-.12.04-.05.07-.11.06-.17.02.02.01.07.04.09"/>
      <path class="cls-4" d="M12.36,12.05c.01.07.05.16.03.23-.04,0-.04-.02-.05-.05-.02-.06-.06-.13-.04-.2.03-.01.04.02.05.03M13.84,12.17s.02-.01.03-.02h0s.03-.02.05-.02c-.06.07,0,.22-.12.25,0-.09-.01-.21,0-.3.02.03-.02.09.03.1M12.56,12.2h.01c-.08.1-.04.25-.1.37-.01.07-.05.14-.08.21,0-.03-.01-.08-.02-.12-.01-.08-.06-.17-.05-.27,0,0,.02-.02.03-.03.01.01.01.04.02.06,0,.05,0,.1.03.14.02,0,.04-.03.05-.05.03-.1.08-.24.02-.35v-.04s.04.08.09.08"/>
      <path class="cls-4" d="M11.06,3.03s-.04.03-.06.05c0,.03,0,.06,0,.09h.03s.04-.03.05-.04c0-.04,0-.07,0-.1h-.02s0,0,0,0"/>
      <path class="cls-6" d="M7.4,13.37c.1,0,.18,0,.24.01.06,0,.11.02.15.04.14.06.22.17.25.32.01.06.02.19.02.38,0,.16,0,.27-.02.33-.03.17-.11.28-.24.34-.05.02-.11.04-.18.05-.07.01-.16.02-.27.02s-.2,0-.27-.02c-.07-.01-.12-.03-.17-.06-.11-.07-.18-.17-.2-.3-.01-.06-.02-.15-.02-.28,0-.25.01-.42.04-.51.04-.13.13-.22.28-.27.07-.03.2-.04.38-.04M7.39,13.71c-.09,0-.15,0-.19.02-.04.02-.07.05-.08.1s-.02.15-.02.31,0,.25.03.29c.01.04.04.06.07.07.04.01.1.02.19.02.08,0,.14,0,.17-.02.03-.01.06-.04.07-.08.02-.05.03-.15.03-.32,0-.1,0-.17,0-.21,0-.04-.01-.07-.02-.1-.02-.04-.04-.06-.07-.07-.03-.01-.09-.02-.17-.02M8.65,13.39v.56h.12l.38-.56h.47l-.52.72.56.75h-.48l-.41-.58h-.12v.58h-.39v-1.47h.39M10.16,13.39v1.13h.62v.34h-1.01v-1.47h.39M11.79,14.6h-.53l-.07.25h-.41l.44-1.47h.6l.45,1.47h-.4l-.08-.25M11.71,14.32l-.18-.64-.18.64h.36M13.67,13.39v1.47h-.39v-.58h-.51v.58h-.39v-1.47h.39v.55h.51v-.55h.39M14.56,13.37c.1,0,.18,0,.24.01.06,0,.11.02.15.04.14.06.22.17.25.32.01.06.02.19.02.38,0,.16,0,.27-.02.33-.03.17-.11.28-.24.34-.05.02-.11.04-.18.05-.07.01-.16.02-.27.02s-.2,0-.27-.02c-.07-.01-.12-.03-.17-.06-.11-.07-.18-.17-.2-.3-.01-.06-.02-.15-.02-.28,0-.25.01-.42.04-.51.04-.13.13-.22.28-.27.07-.03.2-.04.38-.04M14.55,13.71c-.09,0-.15,0-.19.02-.04.02-.07.05-.08.1-.01.05-.02.15-.02.31s0,.25.03.29c.01.04.04.06.07.07.04.01.1.02.19.02.08,0,.14,0,.17-.02.03-.01.06-.04.07-.08.02-.05.03-.15.03-.32,0-.1,0-.17,0-.21,0-.04-.01-.07-.02-.1-.02-.04-.04-.06-.07-.07-.03-.01-.09-.02-.17-.02M17.23,13.39v1.47h-.39v-.44c0-.11,0-.28.02-.51v-.17s0,0,0,0l-.05.17-.05.17-.11.33-.15.46h-.34l-.15-.46c-.07-.22-.15-.44-.22-.67h-.01v.17c.02.25.03.42.03.51v.44h-.39v-1.47h.61l.14.42c.04.12.09.29.15.5h.02l.03-.12c.03-.13.07-.26.11-.38l.13-.42h.63M18.34,14.6h-.53l-.07.25h-.41l.44-1.47h.6l.45,1.47h-.4l-.08-.25M18.26,14.32l-.18-.64-.18.64h.36"/>
    </g>
  </g>
</svg>