<?xml version="1.0" encoding="UTF-8"?>
<svg id="Layer_2" data-name="Layer 2" xmlns="http://www.w3.org/2000/svg" viewBox="0 0 19.35 17.01">
  <defs>
    <style>
      .cls-1, .cls-2 {
        fill: #fec60c;
      }

      .cls-2 {
        fill-rule: evenodd;
      }

      .cls-3 {
        fill: #fff;
      }

      .cls-4 {
        fill: #21386e;
      }
    </style>
  </defs>
  <g id="Layer_1-2" data-name="Layer 1">
    <g>
      <path class="cls-3" d="M0,0h19.35v17.01H0V0Z"/>
      <g>
        <g>
          <path class="cls-1" d="M9.55,5.44s-.03,3.47-.03,3.72,0,.6-.28.54c-.28-.06-.62-.06-1.11-.41-.49-.35-.49-.41-.49-.41l.46-.16s-.46-.09-.77-.31c-.31-.22-.56-.41-.56-.41,0,0-.03.47.12.82.15.35.46.66.46.66v-.41s.43.41.59.5c.15.09.77.35,1.02.5.25.16.7.6.7.6,0,0,.47-.5.78-.63.31-.13.71-.31.9-.44.19-.13.68-.6.68-.6v.54s.34-.41.43-.69c.09-.28.12-.79.12-.79,0,0-.25.19-.46.28-.22.09-.84.35-.84.35l.49.13s-.8.63-1.08.76c-.51.24-.87.19-.87-.13s.03-4,.03-4h-.31ZM9.58,4.27h.22v.95h-.22v-.95Z"/>
          <path class="cls-1" d="M9.67,10.7l-.02-.02s-.45-.44-.7-.6c-.14-.09-.41-.21-.64-.32-.17-.08-.32-.15-.38-.19-.13-.08-.45-.37-.55-.47v.41l-.04-.04s-.31-.32-.47-.67c-.15-.35-.13-.81-.13-.83v-.04s.04.02.04.02c0,0,.25.19.56.41.3.22.76.31.76.31l.08.02-.52.18s.13.14.47.38c.4.28.7.33.94.37.06.01.11.02.17.03.06.01.11,0,.15-.02.1-.08.1-.32.1-.49,0-.25.03-3.68.03-3.72v-.02h.35v.02s-.03,3.69-.03,4c0,.1.03.17.1.21.14.09.41.05.73-.1.24-.11.88-.6,1.04-.73l-.52-.13.06-.03s.62-.25.83-.35c.21-.09.46-.28.46-.28l.04-.03v.05s-.03.51-.13.79c-.09.28-.42.68-.44.7l-.04.05v-.55c-.12.11-.49.46-.65.57-.19.13-.6.32-.9.44-.3.12-.77.62-.78.63l-.02.02ZM7.33,9.01l.04.04s.43.41.58.5c.06.04.21.11.38.18.23.11.5.23.64.32.22.14.6.51.69.59.09-.09.49-.5.78-.62.3-.12.7-.31.89-.44.18-.12.67-.59.68-.6l.04-.04v.52c.09-.12.32-.42.39-.64.07-.23.11-.6.12-.73-.08.06-.26.18-.43.26-.17.08-.61.26-.77.32l.47.12-.04.03s-.81.63-1.09.76c-.34.16-.62.2-.77.1-.08-.05-.12-.14-.12-.25,0-.3.03-3.67.03-3.98h-.27c0,.3-.03,3.46-.03,3.7,0,.19,0,.43-.12.53-.05.04-.11.05-.19.03-.05-.01-.11-.02-.16-.03-.25-.04-.55-.1-.96-.38-.32-.22-.5-.38-.5-.43v-.02l.41-.14c-.15-.04-.47-.13-.71-.3-.24-.17-.45-.33-.52-.38,0,.12,0,.49.12.77.12.27.34.52.42.62v-.4ZM9.82,5.24h-.26v-.99h.26v.99ZM9.61,5.2h.17v-.9h-.17v.9Z"/>
        </g>
        <g>
          <path class="cls-1" d="M8.04,5.22s.87-.19,1.67-.19,1.64.19,1.64.19v.35s-1.11.16-1.76.16-1.55-.19-1.55-.19v-.31Z"/>
          <path class="cls-3" d="M9.58,5.75c-.64,0-1.54-.19-1.55-.19h-.02s0-.35,0-.35h.02s.88-.19,1.67-.19,1.64.19,1.64.19h.02v.39h-.02s-1.12.16-1.77.16ZM8.06,5.52c.13.03.93.19,1.52.19s1.59-.13,1.74-.15v-.31c-.12-.03-.89-.18-1.62-.18s-1.52.16-1.65.18v.28Z"/>
        </g>
        <g>
          <path class="cls-2" d="M10.2,5.05c0-.14-.06-.27-.15-.37-.04-.05-.1-.09-.16-.11-.03-.01-.02-.02-.06-.03v.18s.05.04.08.07c.06.07.1.16.1.27,0,.21-.15.34-.32.34s-.32-.14-.32-.34c0-.1.04-.2.1-.27.03-.03.04-.05.08-.07v-.18s-.03.01-.06.03c-.06.03-.11.06-.16.11-.09.09-.15.22-.15.37,0,.29.24.52.51.52s.51-.23.51-.52h0Z"/>
          <path class="cls-3" d="M9.69,5.59c-.29,0-.53-.25-.53-.54,0-.14.05-.28.15-.38.05-.05.1-.09.16-.12.01,0,.02,0,.02-.01.01,0,.02-.01.04-.02h.03s0,.22,0,.22h-.01s-.04.03-.05.05c0,0-.01.01-.02.02-.06.07-.09.16-.09.25,0,.19.13.32.3.32s.3-.14.3-.32c0-.1-.03-.19-.09-.25,0,0-.01-.01-.02-.02-.02-.02-.03-.03-.05-.05h-.01s0-.23,0-.23h.03s.03.01.04.02c0,0,.01,0,.02.01.06.03.12.07.16.12.1.1.15.24.15.38,0,.29-.24.54-.53.54ZM9.52,4.57s-.01,0-.03.01c-.06.02-.11.06-.15.11-.09.09-.14.22-.14.35,0,.27.22.5.49.5s.49-.23.49-.5c0-.13-.05-.26-.14-.35-.04-.05-.09-.08-.15-.11-.01,0-.02-.01-.03-.01v.14s.04.03.06.05c0,0,0,.01.02.02.06.08.1.18.1.28,0,.21-.15.37-.35.37s-.35-.15-.35-.37c0-.11.04-.21.1-.28,0,0,.01-.01.02-.02.02-.02.03-.04.06-.05v-.14Z"/>
        </g>
      </g>
      <g>
        <g>
          <path class="cls-4" d="M6.81,11.1s.41.38.81.43c.4.05,1.04.24,1.04.24,0,0,.02.58,0,.63s-.03.06-.09.07c-.19,0-.64,0-1.14-.11-.65-.15-1.29-.54-1.29-.54.15-.06.51-.11.74-.17l-.07-.54ZM12.54,11.1s-.41.38-.81.43c-.4.05-1.04.24-1.04.24,0,0-.02.58,0,.63s.03.06.09.07c.19,0,.64,0,1.14-.11.65-.15,1.29-.54,1.29-.54-.15-.06-.51-.11-.74-.17l.07-.54Z"/>
          <path class="cls-3" d="M10.92,12.48c-.06,0-.1,0-.14,0-.06,0-.08-.02-.1-.07-.02-.05,0-.57,0-.63,0,0,0-.01.01-.01,0,0,.64-.19,1.04-.24.39-.05.8-.42.8-.43,0,0,.01,0,.02,0,0,0,0,0,0,.01l-.07.53c.08.02.18.04.28.06.17.03.35.07.45.11,0,0,0,0,0,.01,0,0,0,.01,0,.01,0,0-.65.39-1.29.54-.4.09-.78.11-1,.11ZM10.71,11.78c0,.22-.01.58,0,.61.02.05.03.05.08.06.18,0,.64,0,1.14-.11.57-.13,1.13-.45,1.26-.52-.1-.03-.26-.07-.41-.1-.1-.02-.21-.04-.29-.06,0,0-.01,0-.01-.02l.06-.51c-.1.09-.45.36-.79.41-.37.05-.94.21-1.02.24ZM8.43,12.48c-.23,0-.6-.02-1-.11-.64-.15-1.28-.54-1.29-.54,0,0,0,0,0-.01s0-.01,0-.01c.09-.04.27-.07.45-.11.1-.02.2-.04.28-.06l-.07-.53s0-.01,0-.01c0,0,.01,0,.02,0,0,0,.41.37.8.42.4.05,1.03.24,1.04.24,0,0,.01,0,.01.01,0,.06.02.58,0,.63-.02.05-.04.07-.1.07-.04,0-.08,0-.14,0ZM6.18,11.81c.13.07.69.39,1.26.52.5.12.96.11,1.14.11.05,0,.06-.01.08-.06.01-.03,0-.39,0-.61-.08-.02-.65-.19-1.02-.24-.34-.05-.69-.32-.79-.41l.06.51s0,.01-.01.02c-.09.02-.19.04-.29.06-.16.03-.32.06-.41.1Z"/>
        </g>
        <g>
          <path class="cls-4" d="M8.13,11.96c-.07-.02-.11.02-.11.02v-1s.04-.04.12,0c.27.12.95.35,1.54.35s1.27-.24,1.54-.35c.08-.03.12,0,.12,0v1s-.04-.05-.11-.02c-.28.09-1.03.31-1.55.31s-1.26-.22-1.55-.31h0Z"/>
          <path class="cls-3" d="M9.68,12.29c-.46,0-1.1-.17-1.55-.31,0,0,0,0,0,0-.06-.02-.09.02-.1.02,0,0-.01,0-.02,0,0,0,0,0,0-.01v-1s0,0,0-.01c0,0,.05-.05.13,0,.28.12.96.35,1.53.35s1.26-.23,1.53-.35c.08-.04.13,0,.13,0,0,0,0,0,0,.01v1s0,.01,0,.01c0,0-.01,0-.02,0,0,0-.04-.04-.1-.02-.37.12-1.07.31-1.55.31ZM8.14,11.95c.45.14,1.09.31,1.54.31.48,0,1.17-.19,1.54-.31.05-.01.08,0,.1,0v-.97s-.05-.02-.1,0c-.28.12-.96.35-1.55.35s-1.27-.23-1.55-.35c-.05-.02-.09,0-.1,0v.96s.06-.02.1,0c0,0,0,0,0,0Z"/>
        </g>
        <g>
          <path class="cls-4" d="M11.34,11.99c.04.12-.65.23-.64.41M8.02,11.99c-.04.12.65.23.64.41"/>
          <path class="cls-3" d="M10.68,12.4c0-.11.19-.18.38-.26.12-.05.27-.11.26-.15h.03c.03.06-.11.11-.28.17-.16.06-.37.14-.36.23h-.03ZM8.67,12.4h-.03c0-.09-.2-.17-.36-.23-.17-.06-.3-.12-.28-.18h.03c-.02.05.14.11.26.16.19.07.39.15.38.26Z"/>
        </g>
      </g>
      <g>
        <g id="a">
          <path class="cls-1" d="M8.56,2.13L9.41,2.13L9.68,1.32L9.94,2.13L10.79,2.13L10.10,2.63L10.37,3.44L9.68,2.94L8.98,3.44L9.25,2.63Z"/>
        </g>
        <g id="b">
          <g id="a-2" data-name="a">
            <path class="cls-1" d="M11.65,2.34L12.41,2.74L13.02,2.14L12.87,2.98L13.63,3.38L12.78,3.50L12.64,4.34L12.26,3.58L11.42,3.70L12.03,3.10Z"/>
          </g>
          <g id="a-3" data-name="a">
            <path class="cls-1" d="M13.46,5.06L14.27,4.81L14.29,3.96L14.78,4.66L15.59,4.42L15.08,5.10L15.56,5.80L14.76,5.51L14.24,6.19L14.26,5.34Z"/>
          </g>
          <g id="a-4" data-name="a">
            <path class="cls-1" d="M14.62,7.21L15.46,7.37L15.87,6.63L15.97,7.48L16.81,7.64L16.04,8.00L16.14,8.84L15.56,8.22L14.79,8.58L15.20,7.83Z"/>
          </g>
          <g id="a-5" data-name="a">
            <path class="cls-1" d="M14.65,9.66L15.31,10.19L16.03,9.72L15.73,10.52L16.39,11.05L15.54,11.01L15.24,11.81L15.01,10.99L14.16,10.94L14.88,10.48Z"/>
          </g>
          <g id="a-6" data-name="a">
            <path class="cls-1" d="M12.52,12.75L13.37,12.67L13.55,11.83L13.89,12.61L14.74,12.53L14.10,13.10L14.44,13.88L13.71,13.45L13.07,14.01L13.25,13.18Z"/>
          </g>
          <g id="a-7" data-name="a">
            <path class="cls-1" d="M10.22,13.58L11.01,13.90L11.56,13.24L11.50,14.10L12.29,14.42L11.46,14.62L11.40,15.48L10.95,14.75L10.12,14.95L10.67,14.30Z"/>
          </g>
        </g>
        <g id="b-2" data-name="b">
          <g id="a-8" data-name="a">
            <path class="cls-1" d="M6.34,2.14L6.95,2.74L7.71,2.34L7.33,3.10L7.94,3.70L7.10,3.58L6.72,4.34L6.58,3.50L5.73,3.38L6.49,2.98Z"/>
          </g>
          <g id="a-9" data-name="a">
            <path class="cls-1" d="M3.76,4.42L4.57,4.66L5.06,3.96L5.08,4.81L5.89,5.06L5.09,5.34L5.11,6.19L4.59,5.51L3.79,5.80L4.27,5.10Z"/>
          </g>
          <g id="a-10" data-name="a">
            <path class="cls-1" d="M2.54,7.64L3.38,7.48L3.48,6.63L3.89,7.37L4.73,7.21L4.15,7.83L4.56,8.58L3.79,8.22L3.21,8.84L3.31,8.00Z"/>
          </g>
          <g id="a-11" data-name="a">
            <path class="cls-1" d="M3.32,9.72L4.04,10.19L4.70,9.66L4.47,10.48L5.19,10.94L4.34,10.99L4.11,11.81L3.81,11.01L2.96,11.05L3.62,10.52Z"/>
          </g>
          <g id="a-12" data-name="a">
            <path class="cls-1" d="M4.61,12.53L5.46,12.61L5.80,11.83L5.98,12.67L6.83,12.75L6.10,13.18L6.28,14.01L5.64,13.45L4.91,13.88L5.25,13.10Z"/>
          </g>
          <g id="a-13" data-name="a">
            <path class="cls-1" d="M7.80,13.24L8.35,13.90L9.14,13.58L8.69,14.30L9.24,14.95L8.41,14.75L7.96,15.48L7.90,14.62L7.07,14.42L7.86,14.10Z"/>
          </g>
        </g>
      </g>
      <path class="cls-1" d="M10.65,11.3c.17-.05.33-.1.49-.15,0,.05,0,.1,0,.15-.1.03-.21.06-.31.09,0,.04,0,.07,0,.11.1-.03.19-.06.29-.09,0,.05,0,.1,0,.15-.1.03-.19.06-.29.08,0,.05,0,.09,0,.14.11-.03.21-.06.32-.09,0,.05,0,.11,0,.16-.17.04-.34.09-.5.14,0-.24,0-.47,0-.71h0ZM9.89,11.45c.11,0,.21-.03.32-.05.07-.01.12,0,.15.02.01.01.02.02.03.04.01.03.02.06.02.11,0,.04,0,.08-.02.12,0,.02-.02.04-.03.06-.04.05-.09.08-.17.09-.03,0-.07.01-.1.02,0,.09,0,.17,0,.26-.06,0-.13.02-.19.02,0-.23,0-.47,0-.7h0ZM10.08,11.72s.03,0,.05,0c.04,0,.06-.02.08-.03.01-.02.02-.04.02-.06,0-.02,0-.04-.02-.05-.01-.01-.04-.02-.07-.01-.02,0-.04,0-.05,0,0,.05,0,.1,0,.16h0ZM9,11.72c0-.11.03-.2.08-.25.06-.05.13-.07.23-.06.1.01.18.05.24.12.06.06.08.15.08.26,0,.08-.01.15-.04.2-.02.05-.06.09-.11.12-.05.03-.1.03-.17.03-.07,0-.13-.03-.17-.06-.05-.03-.08-.08-.11-.14-.03-.06-.04-.13-.04-.21h0ZM9.19,11.76c0,.07.01.12.04.16.02.03.05.05.09.06.04,0,.07,0,.09-.03.02-.03.03-.08.03-.16,0-.07-.01-.11-.04-.15-.02-.03-.06-.05-.1-.06-.04,0-.07,0-.09.03-.02.03-.03.08-.03.15h0ZM8.18,11.14c.06.02.12.04.18.06,0,.08,0,.16,0,.25.07.02.14.04.2.06,0-.08,0-.16,0-.25.06.02.12.04.19.05,0,.23,0,.47,0,.7-.06-.02-.12-.03-.19-.05,0-.1,0-.19,0-.29-.07-.02-.14-.04-.2-.06,0,.1,0,.19,0,.29-.06-.02-.12-.04-.18-.05-.01-.24,0-.48,0-.72h0Z"/>
    </g>
  </g>
</svg>