<?xml version="1.0" encoding="UTF-8"?>
<svg id="Layer_2" data-name="Layer 2" xmlns="http://www.w3.org/2000/svg" viewBox="0 0 25.5 17.01">
  <defs>
    <style>
      .cls-1 {
        fill: #fff;
        fill-rule: evenodd;
      }

      .cls-2 {
        fill: #0a2042;
      }
    </style>
  </defs>
  <g id="Layer_1-2" data-name="Layer 1">
    <g>
      <rect class="cls-2" width="25.5" height="17.01"/>
      <path class="cls-1" d="M1.41,3.17c-.72,2.4,2.17,4.33,4.14,2.59,2.06-2.17-.24-5.09-2.63-4.16,1.75-.3,2.79,1.72,1.61,2.98-1.13,1.16-3.2.4-3.12-1.41ZM14.02,2.88c-.09.04-.16.17-.2.26-.09.27-.19.55-.28.82-.05.12-.09.25-.14.37-.09-.01.04-.16.03-.23.03-.13.09-.26.1-.4-.02-.1,0-.23-.05-.32-.08.17-.17.34-.24.52-.05.21-.11.42-.14.64-.02.11-.04.22-.07.33-.09,0-.07-.17-.12-.23-.05-.15-.15-.29-.22-.43-.04-.04-.12-.29-.12-.15,0,.1-.02.2-.02.3-.2-.38-.4-.75-.6-1.13.02.12,0,.25.04.37.1.21.19.42.28.64-.05.05-.06-.03-.08-.06-.19-.33-.37-.66-.56-.99-.08.05-.02.15-.03.23.03.11.1.2.15.3.09.16.18.33.27.49-.06.07-.1-.13-.15-.18-.17-.29-.33-.58-.51-.87-.08.03-.1.08-.09.16-.01.07.02.14.06.2.13.23.26.45.39.67-.04.05-.06-.02-.08-.05-.21-.33-.42-.67-.63-1-.05-.02-.12-.08-.11.02-.02.13.11.22.16.33.19.29.38.58.57.87-.04.05-.06-.01-.08-.04-.12-.17-.24-.34-.36-.5-.04-.01-.1-.04-.08.03,0,.05-.02.09.02.13.19.28.38.57.57.85.06.12.12.25.18.37.11.11.22.22.33.33-.08.06-.16-.14-.23-.17-.08-.09-.19-.17-.24-.28-.06-.09-.09-.19-.18-.26-.1-.07-.17-.2-.28-.24-.04.08,0,.26.1.32.01.03.16.13.08.11-.16-.02-.32-.07-.47-.13-.09.09.22.16.04.2-.13,0-.22-.11-.34-.16-.29-.16-.59-.3-.88-.45-.06-.02-.12-.04-.18-.06-.02.11.15.14.21.21.22.12.45.24.68.36,0,.07-.07.02-.11,0-.42-.14-.84-.27-1.26-.41-.07-.02-.06.02-.03.07,0,.06.06.06.1.07.33.11.66.22.99.33.01.05.02.1.04.16-.08-.06-.15-.13-.25-.14-.22-.05-.44,0-.66,0-.12-.03-.13.07-.02.09.09.07.21.03.32.04.18,0,.35-.01.53-.02.03.1-.17.03-.18.11-.02.1.16.1.23.08.1,0,.17-.15.26-.12-.02.1-.19.12-.21.22-.01.1.19.07.25.03.07-.06.18-.14.19,0,.02.14.2.08.3.13.17.03.35.04.53.07.17.07.33.15.5.22-.03.09-.18-.05-.25-.04-.12-.03-.24-.11-.37-.11-.11-.02-.23-.02-.34,0-.35.03-.7.05-1.05.09-.32.05-.65.11-.97.16-.08.03-.26.07-.09.11.37-.02.73-.05,1.1-.08.03.06-.05.04-.09.05l-.92.09c-.09.07-.22.11-.27.22.01.16.22.01.32.02.26-.04.53-.09.78-.17.08,0,.27-.13.28-.03-.29.09-.58.18-.87.26-.06.01-.12.03-.19.04-.02.15.21.06.3.09.2-.05.39-.13.59-.18.11,0,.27-.13.34-.08-.07.07-.23.11-.33.16-.2.09-.41.17-.61.27-.13.13.14.12.21.05.21-.1.42-.2.63-.31.05.04-.02.06-.05.09-.12.09-.24.19-.37.26-.05.04-.14.06-.15.13.12.07.23-.01.33-.07.27-.18.55-.35.83-.52.12-.05.24-.1.37-.15.05.05-.03.06-.06.09-.13.09-.27.18-.4.27-.15.15-.28.32-.45.44-.08.07-.16.13-.23.2-.13.13-.26.25-.38.38-.04.13-.12.25-.11.39,0,.15-.02.3,0,.45.02.06.05.2.06.06,0-.06.05-.29.1-.13.03.06.05.23.08.2.05-.09.05-.22.13-.28.07.04.12.13.18.02.08-.09.07-.23.11-.34.03-.15.07-.29.1-.43.06-.02.05.06.06.1.02.09.04.18.06.27.13-.06.08-.24.12-.36,0-.09.04-.31.13-.14.05.13.21-.02.2-.12.03-.15.06-.3.09-.45.04.07.08.14.12.21.14,0,.19-.15.28-.23.08-.09.16-.18.25-.26.1-.05.2-.12.31-.17.1.1-.05.23-.11.31-.13.16-.3.3-.43.46-.05.06-.14.12-.12.21.07.03.14.06.21.09-.11.05-.22.1-.32.16-.09.08-.2.15-.3.23-.03.07-.04.15.06.12.08-.01.28.02.12.09-.15.1-.33.16-.47.26-.04.06-.15.14-.02.14.09-.01.23-.15.29-.08-.09.1-.22.21-.32.31-.05.04-.17.15-.1.19.16-.08.28-.23.42-.34.05-.08.18-.15.14,0-.16.2-.32.41-.49.61.02.2.14-.06.21-.11.1-.12.19-.24.32-.32.04,0,.16-.18.17-.11,0,.06.01.12-.03.16-.1.14-.17.29-.25.44-.01.06-.03.25.06.16.11-.2.24-.4.33-.61.09-.19.15-.38.22-.57.06-.09.09-.06.08.04.01.09,0,.28.07.3.11-.26.26-.5.38-.76.04-.12.09-.25.14-.37.07,0,.04.06.04.11,0,.08,0,.17,0,.25-.07.2-.12.41-.22.6-.06.12-.14.23-.2.36-.06.08-.04.08.03.03.11-.05.19-.15.27-.25.13-.1.03.13,0,.18-.07.19-.11.4-.19.59,0,.06-.02.19.05.09.14-.11.19-.28.27-.43.05.07.14.12.19.03,0-.11-.06-.23,0-.34.05-.18.09-.37.12-.56.01-.11.02-.23.04-.34.06-.03.04.07.04.11v.26c.06,0,.18-.1.21-.03-.06.05-.16.09-.22.15,0,.07,0,.15,0,.22.08-.05.15-.09.23-.14.05.04-.02.07-.04.1-.06.06-.13.12-.19.18v.15c.05-.02.1-.03.16-.05.04.05-.03.06-.06.09-.04.03-.12.04-.1.1,0,.16,0,.31-.02.47.03-.06.13-.19.11-.2-.03.06-.15.07-.07,0,.03-.04.22-.17.15-.04-.06.09-.12.21-.18.29-.02,0-.04.13.02.11.05.03.19.05.09.1-.04.04-.1.08-.13.13,0,.13-.03.35,0,.43.04-.05.17-.15.14-.18-.05.03-.22.01-.1-.03.07-.03.26-.03.14.08-.07.12-.22.16-.19.28,0,.1-.04.15.08.14.13-.01.14.12.02.15-.08.05-.16.05-.11.16.03.07.2.12.16.2,0-.08-.03.03-.07-.05-.06-.05-.13-.15-.11-.01-.01.27-.02.54-.03.82.06-.02.16.06.16.1-.06.05-.2-.18-.16,0,0,.08-.02.24,0,.28.03-.02.07.04.11.06l.12.08c-.02.07-.07,0-.1-.02-.04-.03-.09-.06-.13-.09.01.11-.04.31,0,.37.05.04.18.15.18.21-.07.02-.16-.18-.2-.17,0,.17-.01.33-.02.5.07.02.21.11.25.17-.06.05-.19-.14-.25-.12,0,.13,0,.27-.02.4-.03.1.24.07.18.17-.1-.03-.23-.17-.23,0-.02.14-.15.29-.05.43.04.11.16.16.26.21.11-.02.22-.07.33-.08.17-.03.34-.04.51-.06.07-.05.16-.1.05-.17-.09-.11-.07-.26-.12-.38,0-.1-.02-.14-.11-.07-.07.01-.17.16-.21.07.1-.05.19-.11.29-.16-.01-.13-.04-.25-.03-.38-.08.05-.2.16-.28.15.03-.07.19-.1.25-.18.05,0,.02-.07.02-.11,0-.11,0-.22,0-.33-.07.08-.16.14-.28.16-.08-.07.13-.05.16-.11.05-.06.14-.09.12-.18,0-.1,0-.2,0-.3-.07.04-.19.2-.25.14.07-.06.22-.12.25-.21,0-.13,0-.26,0-.38-.07.09-.17.16-.28.19-.06.06-.17,0-.06-.02.11-.04.22-.08.29-.18.06-.03.04-.09.04-.16,0-.09,0-.18,0-.27-.13.12-.25.25-.38.37-.07-.07.13-.14.16-.21.07-.08.18-.15.23-.22v-.3c-.05.05-.14.11-.03.05.05.05-.04.06-.07.08-.05.02-.09.04-.14.07-.05-.09.16-.14.2-.22.06.01.04-.04.04-.09,0-.07,0-.14,0-.21-.07.13-.21.05-.32.03-.08,0,0-.03.03-.05.09-.05.17-.09.26-.14.05.05-.03.06-.07.08-.05.03-.1.05-.16.08.1.05.22.02.25-.07,0-.17,0-.33-.01-.5-.08.08-.12.16-.22.2.04-.02.23,0,.1.04-.07.01-.31.02-.14-.07.08-.03.14-.09.19-.17.06-.04.06-.06.05-.14,0-.1,0-.21-.01-.31-.04.05-.2.18-.16.18.05-.03.24-.04.13.02-.07,0-.23.1-.26,0,.1-.06.18-.15.26-.23.05,0,.02-.07.02-.11l-.04-.92s-.25.21-.18.04c.05-.06.1-.16.16-.18.04-.02,0-.09.01-.12,0-.09-.05-.17-.08-.26,0-.04-.07-.1-.01-.11.06.05.09.19.14.28.08.17.16.35.23.52.04.15.08.3.08.45.04-.01.11,0,.11-.05,0-.06.05-.12.01-.17-.17-.45-.35-.89-.53-1.34.04-.04.06.02.07.05.1.2.17.42.25.63.09.23.18.46.28.68.16-.09.03-.26,0-.39-.07-.25-.18-.49-.26-.73-.03-.04-.08-.06-.12-.1-.05-.04-.11-.08-.17-.12.04-.08.14.06.21.07.12.13.15-.07.25-.09.03.11-.17.2-.06.32.08.26.15.53.25.78.02.05.03.09.05.14-.03.05.01.26.08.21.02-.11.1-.23.04-.34-.09-.35-.22-.69-.32-1.03,0-.13.08.05.09.11.12.33.25.65.36.99-.02.1-.02.31.11.19,0-.13.02-.26-.04-.39-.11-.29-.2-.6-.3-.9-.06.06-.16,0-.18-.06.02-.15-.1-.14-.21-.13-.05,0,.08-.07.1-.1.06-.03.19-.13.06-.16-.04-.02-.08-.04-.12-.05.06-.1.12-.2.2-.29.05-.09.01-.24-.08-.3-.07-.04-.06-.12-.09-.19-.04-.04,0-.11.03-.06.02.06.04.12.05.18.1.05.15.14.15.26.05.11-.08.17-.12.25-.03.04-.05.08-.07.12.06.03.11.05.17.08.01.11-.17.18-.16.21.18-.05.07.2.2.22.05,0,.09-.05.13-.06.08.01-.03.05-.01.08.14.39.29.78.43,1.17-.01.14.12.16.21.22.01.08.05.22.13.19,0-.2.02-.41.02-.61.01-.07-.11-.24,0-.24.05.16.13.31.16.48.03.11-.03.28.13.29.07.03.02-.22.09-.15l.12.09c.16,0,.04-.17.04-.26-.05-.13-.1-.25-.15-.38.07-.03-.04.01-.02-.07-.02-.12-.1-.22-.17-.31-.03-.07-.03-.14-.09-.05-.07.06-.04.15,0,.21.08.12.07.28.17.39.04.07.1.14.08.23,0,.04,0,.12-.04.08,0-.07.02-.14-.02-.19-.05-.1-.12-.16-.15-.28-.02-.11-.09-.21-.13-.31.01-.03-.16.01-.15-.04.05,0,.04-.03.12,0,.06-.05.06-.15.02-.21-.08-.18-.2-.34-.29-.51-.02-.11.02-.25-.09-.33-.11-.11-.17-.26-.23-.4-.07-.1-.19-.16-.27-.25-.05.01-.22.02-.13-.03.12-.05.2.02.28.1.09.07.18.14.21.25.05.13.12.25.22.34.09.08.04.21.07.32.11.2.25.37.32.59-.02.09.03-.03.07-.02,0-.11.03-.25-.04-.35-.07-.13-.15-.26-.22-.39-.04-.1-.1-.22-.15-.32-.05-.12-.13-.23-.2-.34.07-.07.11.14.16.18.13.22.2.47.34.68.04.09.12.18.14.28.01.06-.02.25.02.24.02-.05.05-.09.07-.14.04-.02.12,0,.13-.05.01-.13-.12-.23-.13-.36-.04-.18-.11-.34-.2-.5-.09-.21-.23-.39-.31-.6-.02-.13.08.03.08.09.07.16.18.31.25.48.07.13.14.27.18.41.03.14.08.27.16.39.01.06,0,.1.05.1.02.05-.08.03-.04.1.01.05-.01.23-.05.13,0-.09.04-.23-.08-.16-.03.03-.05.08-.07.12-.02.05-.1.05-.05.12.07.1.16.19.18.32.01.11.11.19.17.29.06.06.14.26.2.22.03-.12-.08-.2-.12-.31-.08-.18-.16-.36-.24-.54.06.05.15.07.18.15.15.2.29.4.45.59.16.08.06-.12.01-.18-.12-.25-.29-.47-.43-.7-.03-.03-.13-.19-.04-.14.16.2.33.41.49.61.06.04.16.07.12-.02-.14-.26-.32-.49-.48-.74-.16-.23-.3-.48-.45-.73.08-.06.18.09.27.12.14.08.26.17.37.28.19.17.37.34.57.5.1.05.18.15.28.18,0-.04-.11-.17-.06-.17.11.03.22.08.32.13.07.03.28.11.18-.03-.03-.07-.2-.11-.17-.18.03-.02.08.03.12.04.09.05.18.08.28.09.14,0,.05-.16-.04-.16-.22-.12-.45-.24-.67-.36.05-.09.2.06.29.05.05-.02.24.02.17-.07-.03-.03-.09-.04-.13-.06-.31-.11-.61-.22-.92-.33-.13-.09-.26-.17-.39-.26.02-.08.15.02.22.01.11.03.23.05.35.05.08,0,.24.02.26,0-.05-.03-.27-.09-.15-.13.06,0,.27,0,.09-.01-.12-.01-.25,0-.37-.04.02-.04.08-.03.16-.02.09.03.26-.02.3.05.09.03.24,0,.35,0,.15-.01.32,0,.46-.03.05-.08.2-.1.2-.2,0-.09-.01-.19-.03-.28-.03-.03-.04-.11-.09-.11-.14-.02-.28-.06-.42-.11-.29,0-.57,0-.86-.02-.09,0-.2.08-.31.07-.16.02-.33,0-.49.05-.06.05-.15-.02-.05-.03.12-.03.25-.05.37-.05.13,0,.26-.01.38-.07.07-.05.09.03.1-.06.07-.03.28,0,.23-.08-.27,0-.53.01-.8.02-.1,0-.22.05-.31.1-.11.04-.02-.07.05-.07.12-.07.26-.05.38-.13.18-.08.35-.19.52-.28.05-.04.17-.1.04-.12-.1-.02-.22.04-.32.04-.14.03,0-.1.05-.12.17-.09.33-.18.49-.28.05-.04.2-.06.15-.13-.14.05-.27.11-.41.15-.05.01-.26.04-.15-.05.2-.13.4-.27.61-.41.07-.09.02-.09-.06-.06-.09.03-.16.1-.25.15-.03.05-.2.1-.11,0,.09-.08.18-.16.27-.23.05-.07.1-.22-.03-.15-.08.04-.19.05-.25.13-.1.11-.21.21-.31.32-.07-.07.12-.15.14-.22.08-.1.17-.19.25-.29.02-.08.02-.14-.07-.08-.04.02-.08.04-.12.05.01.09-.17.18-.23.26-.1.08-.23.12-.32.22-.07-.07.12-.13.17-.17.14-.07.23-.19.34-.3-.12.02-.26.02-.33.14-.18.18-.36.36-.55.53-.23.16-.46.32-.7.47-.11.04-.26,0-.31.14-.09.13-.2.24-.3.36.11-.02.21,0,.31.05.09.03.17.1.26.14-.02.09-.14.16-.24.14-.06,0-.12-.04-.17-.06,0-.07.07-.01.11,0,.08.04.18.03.24-.04-.03-.06-.19-.12-.28-.16-.08-.05-.18-.02-.27-.01-.11.02.03-.07.05-.11.12-.13.23-.27.34-.42,0-.11.11-.18.15-.28.12-.17.18-.38.27-.57.04-.08.02-.17.03-.26,0-.05.01-.1,0-.14-.08.15-.17.31-.25.46-.1,0-.01-.15.02-.19.08-.15.16-.31.23-.46,0-.06,0-.13,0-.19-.06-.06-.1.13-.15.18-.11.19-.21.38-.33.56-.01.06-.13.11-.09.02.17-.31.34-.61.51-.91.07-.12.05-.26.06-.4-.07-.1-.11.06-.16.1-.07.08-.09.19-.14.29-.08.18-.17.36-.26.54-.1-.04.05-.18.06-.26.08-.21.16-.42.24-.63-.04-.08-.13.14-.18.19-.08.17-.17.34-.25.51-.09-.04.06-.18.05-.26.04-.13.1-.26.15-.38,0-.05.06-.17,0-.17h0ZM14.61,5.18c.02.08-.11.12-.16.19-.07.02-.3.08-.2.13.07-.04.13-.07.2-.11.09.08.21.17.2.29-.08.02-.05-.16-.14-.18-.04-.08-.1-.06-.16-.01-.05.03-.1.05-.14.08-.08-.11,0-.2.12-.21.11-.02.18-.12.27-.18h0s0,0,0,0h0ZM15.21,5.41c0,.1-.16.05-.2.13-.07.04-.15.14-.21.14-.07-.01.09-.08.11-.12.09-.07.18-.14.31-.15h0ZM13.8,5.88c.1.04.2.06.29.13.11.04.11.16.15.26,0,.06-.05.25-.1.21.02-.09.1-.2.03-.3,0-.11-.12-.14-.2-.2-.06-.02-.12-.04-.18-.06,0-.01,0-.03.01-.04h0ZM16.59,5.89c.2,0,.4.02.61.04.02.02-.04.03-.03.04-.26-.01-.52-.04-.78-.02-.12-.02-.23.08-.35.05-.07.01-.22-.02-.11-.05.12.01.24.01.35-.04.1-.02.21,0,.32-.02h0ZM16.28,6.06c.21.03.42.05.63.05.13,0,.29,0,.41.02-.02.09-.2,0-.28.03-.23,0-.47,0-.7-.04-.04,0-.06,0-.05-.05h0ZM16.51,6.29c.09.09.21.11.33.09.15,0,.29.03.43-.02.12-.01,0,.07-.07.06-.14.03-.29,0-.43,0-.11.04-.21-.06-.29-.08-.06.04-.13.04-.2.04h-.3c-.02-.07.06-.04.1-.04.1,0,.2,0,.3,0,.04-.02.09-.04.13-.05h0ZM12.42,6.42c.1.04-.08.15-.05.21,0,.07.01.12.05.02.02-.05.03-.09.05-.14.04.07.1.11.18.11.03.06.05.19.09.07.03-.06.06-.14.11-.19.08.04-.01.2.01.28,0,.13.02.25,0,.38.01.08-.06.27.07.18.05-.02.05-.09.08-.13.05-.1.03-.22.07-.33.1-.03,0,.28.11.18.03-.1-.05-.19-.06-.3v-.2c.07-.02.04.06.04.1,0,.08,0,.16.04.23.11.06.09-.14.18-.19.1-.04.04-.24.14-.21,0,.12-.08.22-.16.31-.03.06-.05.2-.15.14.07.07,0,.23-.1.2-.02-.07-.02-.14-.03-.03,0,.09-.07.17-.1.25-.08.04-.23.09-.17-.06,0-.16.02-.32,0-.48,0-.05.03-.22,0-.19-.04.08-.07.15-.11.23-.05-.07-.03-.23-.14-.21-.06-.01-.08-.08-.1.01-.03.03-.06.19-.11.12-.01-.09,0-.23-.11-.12-.02-.07-.04-.14-.05-.22.06-.04.05.05.07.08,0,.12.13,0,.14-.06,0-.02.02-.04.03-.06h0ZM14.1,6.97c.11.23.23.46.36.69.07.16.15.32.17.49-.03.08.17.19.07.22-.1-.08-.12-.21-.14-.33-.07-.21-.17-.42-.28-.61-.08-.14-.15-.29-.22-.43.01,0,.02-.01.04-.02h0ZM13.86,7.22c.11.01-.1.13.04.14.07.01.05.11.12.13.16,0-.02.24.15.2.08.06,0,.22.12.26.1.05.07.17.12.26.01.06.05.06.09.02.03-.02.1-.06.09,0-.06.03-.12.06-.17.09-.05-.09-.09-.18-.1-.28-.09-.07-.17-.14-.16-.27.02-.1-.16,0-.11-.12.06-.12-.08-.11-.11-.19,0-.08-.13-.07-.14-.14.02-.04.05-.07.07-.1h0ZM13.21,8.4c-.02.05-.19.21-.06.11.07-.04.07-.01.06-.1h0s0-.01,0-.01ZM13.18,8.78c.12.02-.15.14-.09.14.04-.03.11-.02.07.02-.06.02-.12.04-.18.06-.04-.1.15-.14.2-.22h0s0,0,0,0ZM13.2,9.19c.1,0-.06.11-.08.15-.11.09.13-.09.11,0-.05.03-.21.14-.27.08.07-.08.18-.14.25-.23h0ZM12.59,9.55c0,.08-.02.18.05.08.08-.05,0-.05-.05-.08ZM12.55,10.5c0,.07-.03.19.07.1.07-.03.13-.09.01-.09-.03,0-.05,0-.08-.01ZM12.53,11.3c.06.04.23.05.23.12-.05,0-.22-.05-.23-.1v-.02ZM12.24,14c-.25,0-.51,0-.76,0-.11.07-.23.12-.32.22-.06.09.11.17.2.15.04.03.2-.03.18.06-.04.12-.18.14-.27.22-.06.12.08.26.18.15.06-.06.11-.06.15,0,.07.05-.05.2.1.19.1-.05.19-.14.28-.2.06-.08.16-.17.2-.02.09.08.2.06.31.05.13,0,.28-.02.35-.15.12-.06.24.06.3.16.08.05.22.06.18-.08-.03-.09,0-.19.1-.13.12.02.21.11.33.14,0-.09,0-.25.11-.14.1.07.21.15.33.18,0-.05,0-.11,0-.16.08-.08.24.16.2-.02.02-.06-.07-.2.02-.19.12.05.25.09.38.11-.09-.14-.24-.22-.37-.31-.12-.05-.26-.09-.39-.09-.15-.01-.3,0-.44-.03-.06-.05-.05,0-.04,0-.09.12-.24.1-.37.12-.18.02-.37.04-.54.1-.12.02-.23-.09-.31-.16-.04-.05-.06-.12-.09-.18h0Z"/>
    </g>
  </g>
</svg>