<?xml version="1.0" encoding="UTF-8"?>
<svg id="Layer_2" data-name="Layer 2" xmlns="http://www.w3.org/2000/svg" viewBox="0 0 28.35 17.01">
  <defs>
    <style>
      .cls-1 {
        fill: #1f3263;
      }

      .cls-2 {
        fill: #cb2026;
      }

      .cls-3 {
        fill: #fff;
      }
    </style>
  </defs>
  <g id="Layer_1-2" data-name="Layer 1">
    <g>
      <path class="cls-2" d="M0,0h28.35v17.01H0V0Z"/>
      <path class="cls-3" d="M26.22,0h2.13v17.01h-2.13V0Z"/>
      <path class="cls-1" d="M26.57,0h1.77v17.01h-1.77V0Z"/>
      <path class="cls-1" d="M26.57,0h1.77v17.01h-1.77V0Z"/>
      <g>
        <circle class="cls-3" cx="13.11" cy="8.5" r="4.61"/>
        <circle class="cls-1" cx="13.11" cy="8.5" r="4.25"/>
        <g id="s">
          <g id="c">
            <path id="t" class="cls-3" d="M13.06,8.67l-1.18,1.62.81.59"/>
            <path id="t-2" data-name="t" class="cls-3" d="M13.06,8.67v2.01h-1"/>
          </g>
          <g id="c-2" data-name="c">
            <path id="t-3" data-name="t" class="cls-3" d="M14.44,10.58l-1.91-.62-.31.95"/>
            <path id="t-4" data-name="t" class="cls-3" d="M14.44,10.58l-1.91.62-.31-.95"/>
          </g>
          <g id="c-3" data-name="c">
            <path id="t-5" data-name="t" class="cls-3" d="M13.06,12.49v-2.01h-1"/>
            <path id="t-6" data-name="t" class="cls-3" d="M13.06,12.49l-1.18-1.62.81-.59"/>
          </g>
          <g id="c-4" data-name="c">
            <path id="t-7" data-name="t" class="cls-3" d="M10.81,11.76l1.91-.62-.31-.95"/>
            <path id="t-8" data-name="t" class="cls-3" d="M10.81,11.76l1.18-1.62.81.59"/>
          </g>
          <g id="c-5" data-name="c">
            <path id="t-9" data-name="t" class="cls-3" d="M10.81,9.4l1.18,1.62.81-.59"/>
            <path id="t-10" data-name="t" class="cls-3" d="M10.81,9.4l1.91.62-.31.95"/>
          </g>
        </g>
        <g id="s-2" data-name="s">
          <g id="c-6" data-name="c">
            <path id="t-11" data-name="t" class="cls-3" d="M12.99,8.37l-.82-1.83-.92.41"/>
            <path id="t-12" data-name="t" class="cls-3" d="M12.99,8.37l-1.74-1,.5-.87"/>
          </g>
          <g id="c-7" data-name="c">
            <path id="t-13" data-name="t" class="cls-3" d="M10.64,8.62l1.49-1.34-.67-.75"/>
            <path id="t-14" data-name="t" class="cls-3" d="M10.64,8.62l.42-1.96.98.21"/>
          </g>
          <g id="c-8" data-name="c">
            <path id="t-15" data-name="t" class="cls-3" d="M9.68,6.46l1.74,1,.5-.87"/>
            <path id="t-16" data-name="t" class="cls-3" d="M9.68,6.46l2-.21.1,1"/>
          </g>
          <g id="c-9" data-name="c">
            <path id="t-17" data-name="t" class="cls-3" d="M11.44,4.88l-.42,1.96.98.21"/>
            <path id="t-18" data-name="t" class="cls-3" d="M11.44,4.88l.82,1.83-.92.41"/>
          </g>
          <g id="c-10" data-name="c">
            <path id="t-19" data-name="t" class="cls-3" d="M13.48,6.06l-2,.21.1,1"/>
            <path id="t-20" data-name="t" class="cls-3" d="M13.48,6.06l-1.49,1.34-.67-.75"/>
          </g>
        </g>
        <g id="s-3" data-name="s">
          <g id="c-11" data-name="c">
            <path id="t-21" data-name="t" class="cls-3" d="M13.28,8.47l2,.21.1-1"/>
            <path id="t-22" data-name="t" class="cls-3" d="M13.28,8.47l1.74-1,.5.87"/>
          </g>
          <g id="c-12" data-name="c">
            <path id="t-23" data-name="t" class="cls-3" d="M14.24,6.31l.42,1.96.98-.21"/>
            <path id="t-24" data-name="t" class="cls-3" d="M14.24,6.31l1.49,1.34-.67.75"/>
          </g>
          <g id="c-13" data-name="c">
            <path id="t-25" data-name="t" class="cls-3" d="M16.59,6.56l-1.74,1,.5.87"/>
            <path id="t-26" data-name="t" class="cls-3" d="M16.59,6.56l-.82,1.83-.92-.41"/>
          </g>
          <g id="c-14" data-name="c">
            <path id="t-27" data-name="t" class="cls-3" d="M17.08,8.87l-1.49-1.34-.67.75"/>
            <path id="t-28" data-name="t" class="cls-3" d="M17.08,8.87l-2-.21.1-1"/>
          </g>
          <g id="c-15" data-name="c">
            <path id="t-29" data-name="t" class="cls-3" d="M15.04,10.05l.82-1.83-.92-.41"/>
            <path id="t-30" data-name="t" class="cls-3" d="M15.04,10.05l-.42-1.96.98-.21"/>
          </g>
        </g>
      </g>
    </g>
  </g>
</svg>