<?xml version="1.0" encoding="UTF-8"?>
<svg id="Layer_2" data-name="Layer 2" xmlns="http://www.w3.org/2000/svg" viewBox="0 0 28.35 17.01">
  <defs>
    <style>
      .cls-1 {
        fill: #fff;
      }

      .cls-2 {
        fill: #132048;
      }

      .cls-3 {
        fill: #fdb71e;
      }

      .cls-4 {
        fill: #a91e22;
      }
    </style>
  </defs>
  <g id="Layer_1-2" data-name="Layer 1">
    <g>
      <path class="cls-1" d="M0,0h28.35v17.01H0V0Z"/>
      <path class="cls-2" d="M28.35,0v6.87l-2.83-1.64-1.42.82-4.25-2.46-1.42.82-4.25-2.46-4.25,2.46-1.42-.82-4.25,2.46-1.42-.82L0,6.87V0h28.35Z"/>
      <path class="cls-2" d="M19.08,11.34v-5.67l-4.91-2.83-4.91,2.83v5.67l4.91,2.83,4.91-2.83Z"/>
      <g>
        <path class="cls-3" d="M14.17,3.35l-4.46,2.58v5.16l4.46,2.58,4.46-2.58v-5.16l-4.46-2.58ZM18.43,10.96l-4.25,2.46-4.25-2.46v-4.91l4.25-2.46,4.25,2.46v4.91Z"/>
        <path class="cls-3" d="M15.71,5.95h-3.07c-.06,0-.09-.07-.05-.11.45-.43.99-.71,1.58-.71s1.14.28,1.58.71c.04.04.01.11-.05.11h0Z"/>
        <path class="cls-3" d="M16.41,7.05h-4.48c-.09,0-.14-.09-.1-.17.09-.17.19-.33.29-.49.07-.1.19-.16.31-.16h3.48c.13,0,.24.06.31.16.11.15.2.32.29.49.04.08-.02.17-.1.17h0Z"/>
        <path class="cls-3" d="M16.82,8.15h-5.29c-.08,0-.13-.07-.11-.15.04-.17.09-.34.14-.48.04-.11.15-.19.27-.19h4.71c.12,0,.23.08.27.19.05.14.09.31.14.48.02.07-.04.15-.11.15h0Z"/>
        <path class="cls-3" d="M17.06,9.25h-5.77c-.07,0-.13-.07-.12-.14.03-.15.06-.3.09-.46.03-.13.14-.22.28-.22h5.27c.13,0,.25.09.28.22.03.15.06.31.09.46.01.07-.04.14-.12.14h0Z"/>
        <path class="cls-3" d="M14.72,10.34c-.07,0-.12-.05-.12-.12,0-.12-.05-.23-.13-.3s-.19-.13-.3-.13c-.24,0-.43.19-.43.43,0,.06-.05.12-.12.12h-2.52c-.07,0-.13-.06-.12-.13.02-.1.04-.26.07-.45.02-.14.14-.23.28-.23h5.68c.14,0,.26.1.28.23.03.19.06.35.07.45.01.07-.04.13-.12.13h-2.52Z"/>
      </g>
      <g>
        <path class="cls-4" d="M28.35,11.78v5.23H0v-5.23h8.5l5.67,3.27,5.67-3.27h8.5Z"/>
        <path class="cls-1" d="M14.17,11.07l.18.54h.57l-.46.33.18.54-.46-.33-.46.33.18-.54-.46-.33h.57l.18-.54Z"/>
      </g>
    </g>
  </g>
</svg>