<?xml version="1.0" encoding="UTF-8"?>
<svg id="Layer_2" data-name="Layer 2" xmlns="http://www.w3.org/2000/svg" xmlns:xlink="http://www.w3.org/1999/xlink" viewBox="0 0 34.4 17.77">
  <defs>
    <style>
      .cls-1 {
        fill: #222d65;
      }

      .cls-2 {
        fill: #fff;
      }

      .cls-3 {
        fill: none;
      }

      .cls-4 {
        clip-path: url(#clippath-1);
      }

      .cls-5 {
        fill: #e31e2e;
      }

      .cls-6 {
        fill: #010101;
      }

      .cls-7 {
        clip-path: url(#clippath);
      }
    </style>
    <clipPath id="clippath">
      <rect class="cls-3" x=".38" y=".76" width="17.01" height="8.5"/>
    </clipPath>
    <clipPath id="clippath-1">
      <path class="cls-3" d="M.38.76v4.25h17.01v4.25L.38.76ZM17.39.76h-8.5v8.5H.38L17.39.76Z"/>
    </clipPath>
  </defs>
  <g id="Layer_1-2" data-name="Layer 1">
    <g id="AU">
      <path class="cls-1" d="M.38.76h34.02v17.01H.38V.76Z"/>
      <g class="cls-7">
        <g>
          <path class="cls-6" d="M.38.76l17.01,8.5M17.39.76L.38,9.26"/>
          <polygon class="cls-2" points="17.01 10.02 8.88 5.96 .76 10.02 0 8.5 6.98 5.01 0 1.52 .76 0 8.88 4.06 17.01 0 17.77 1.52 10.79 5.01 17.77 8.5 17.01 10.02"/>
        </g>
      </g>
      <g class="cls-4">
        <g>
          <path class="cls-6" d="M.38.76l17.01,8.5M17.39.76L.38,9.26"/>
          <polygon class="cls-5" points="17.13 9.77 8.88 5.65 .63 9.77 .13 8.76 7.62 5.01 .13 1.27 .63 .25 8.88 4.38 17.13 .25 17.64 1.27 10.15 5.01 17.64 8.76 17.13 9.77"/>
        </g>
      </g>
      <g>
        <path class="cls-6" d="M8.88.76v8.5M.38,5.01h17.01"/>
        <polygon class="cls-2" points="10.3 9.26 7.47 9.26 7.47 6.43 .38 6.43 .38 3.6 7.47 3.6 7.47 .76 10.3 .76 10.3 3.6 17.39 3.6 17.39 6.43 10.3 6.43 10.3 9.26"/>
      </g>
      <g>
        <path class="cls-6" d="M8.88.76v8.5M.38,5.01h17.01"/>
        <polygon class="cls-5" points="9.74 9.26 8.03 9.26 8.03 5.86 .38 5.86 .38 4.16 8.03 4.16 8.03 .76 9.74 .76 9.74 4.16 17.39 4.16 17.39 5.86 9.74 5.86 9.74 9.26"/>
      </g>
      <g>
        <g id="c">
          <path class="cls-2" d="M8.88,10.97l.49,1.53,1.5-.57-.89,1.34,1.38.82-1.6.14.22,1.59-1.11-1.16-1.11,1.16.22-1.59-1.6-.14,1.38-.82-.89-1.34,1.5.57.49-1.53Z"/>
        </g>
        <g id="c-2" data-name="c">
          <path class="cls-2" d="M25.89,13.72l.23.73.72-.27-.42.64.66.39-.76.07.1.76-.53-.55-.53.55.1-.76-.76-.07.66-.39-.42-.64.72.27.23-.73Z"/>
        </g>
        <g id="c-3" data-name="c">
          <path class="cls-2" d="M21.64,6.99l.23.73.72-.27-.42.64.66.39-.76.07.1.76-.53-.55-.53.55.1-.76-.76-.07.66-.39-.42-.64.72.27.23-.73Z"/>
        </g>
        <g id="c-4" data-name="c">
          <path class="cls-2" d="M25.89,2.38l.23.73.72-.27-.42.64.66.39-.76.07.1.76-.53-.55-.53.55.1-.76-.76-.07.66-.39-.42-.64.72.27.23-.73Z"/>
        </g>
        <g id="c-5" data-name="c">
          <path class="cls-2" d="M29.67,5.85l.23.73.72-.27-.42.64.66.39-.76.07.1.76-.53-.55-.53.55.1-.76-.76-.07.66-.39-.42-.64.72.27.23-.73Z"/>
        </g>
        <g id="d">
          <path class="cls-2" d="M27.59,9.26l.19.45.49.04-.37.32.12.48-.42-.26-.42.26.12-.48-.37-.32.49-.04.19-.45Z"/>
        </g>
      </g>
    </g>
  </g>
</svg>