<?xml version="1.0" encoding="UTF-8"?>
<svg id="Layer_2" data-name="Layer 2" xmlns="http://www.w3.org/2000/svg" xmlns:xlink="http://www.w3.org/1999/xlink" viewBox="0 0 30.08 17.01">
  <defs>
    <style>
      .cls-1 {
        fill: #63b5e5;
      }

      .cls-2 {
        fill: #222d65;
      }

      .cls-3 {
        fill: #fff;
      }

      .cls-4 {
        fill: none;
      }

      .cls-5 {
        fill: #02ad50;
      }

      .cls-6 {
        fill: #fedd00;
      }

      .cls-7 {
        fill: #872634;
      }

      .cls-8 {
        fill: #c8202f;
      }

      .cls-9 {
        fill: #010101;
      }

      .cls-10 {
        clip-path: url(#clippath);
      }
    </style>
    <clipPath id="clippath">
      <rect class="cls-4" x=".36" y=".65" width="29.73" height="16.36"/>
    </clipPath>
  </defs>
  <g id="Layer_1-2" data-name="Layer 1">
    <g class="cls-10">
      <g id="FIJI">
        <path class="cls-2" d="M.36.65h29.73v16.36H.36V.65Z"/>
        <g>
          <path class="cls-9" d="M.36.65l14.86,8.18M.36,8.83L15.22.65"/>
          <polygon class="cls-3" points="14.86 9.48 7.79 5.58 .71 9.48 0 8.18 6.25 4.74 0 1.3 .71 0 7.79 3.89 14.86 0 15.58 1.3 9.32 4.74 15.58 8.18 14.86 9.48"/>
        </g>
        <g>
          <path class="cls-9" d="M.36.65l14.86,8.18M.36,8.83L15.22.65"/>
          <polygon class="cls-8" points="14.98 9.26 7.79 5.3 .6 9.26 .12 8.4 6.76 4.74 .12 1.08 .6 .22 7.79 4.17 14.98 .22 15.46 1.08 8.81 4.74 15.46 8.4 14.98 9.26"/>
        </g>
        <path class="cls-4" d="M.36.65v4.09h17.34v4.09h-2.48L.36.65ZM.36,8.83v2.73h7.43V.65h5.9L.36,8.83Z"/>
        <g>
          <path class="cls-9" d="M7.79.65v10.91M.36,4.74h17.34"/>
          <polygon class="cls-3" points="9.02 11.55 6.55 11.55 6.55 5.97 .36 5.97 .36 3.5 6.55 3.5 6.55 .65 9.02 .65 9.02 3.5 17.7 3.5 17.7 5.97 9.02 5.97 9.02 11.55"/>
        </g>
        <g>
          <path class="cls-9" d="M7.79.65v10.91M.36,4.74h17.34"/>
          <polygon class="cls-8" points="8.53 11.55 7.05 11.55 7.05 5.48 .36 5.48 .36 4 7.05 4 7.05 .65 8.53 .65 8.53 4 17.7 4 17.7 5.48 8.53 5.48 8.53 11.55"/>
        </g>
        <path class="cls-1" d="M.36,8.83h14.86V.65h14.86v16.36H.36v-8.18Z"/>
        <path class="cls-3" d="M19.65,4.57v5.59c0,1.83,3,2.91,3,2.91,0,0,3-1.09,3-2.91v-5.59h-6Z"/>
        <g>
          <path class="cls-8" d="M22.24,6.54v2.52h-2.59v.92h2.59v2.93l.42.17.42-.17v-2.93h2.59v-.92h-2.59v-2.52h-.83Z"/>
          <path class="cls-8" d="M19.65,4.57h6v2.16h-6v-2.16Z"/>
        </g>
        <g>
          <g>
            <g>
              <ellipse class="cls-3" cx="20.13" cy="5.89" rx=".34" ry=".3"/>
              <path class="cls-9" d="M20.13,6.2c-.19,0-.35-.14-.35-.31s.16-.31.35-.31.35.14.35.31-.16.31-.35.31ZM20.13,5.6c-.18,0-.33.13-.33.29s.15.29.33.29.33-.13.33-.29-.15-.29-.33-.29Z"/>
            </g>
            <g>
              <g>
                <ellipse class="cls-3" cx="20.13" cy="5.73" rx=".3" ry=".17"/>
                <path class="cls-9" d="M20.13,5.91c-.17,0-.31-.08-.31-.18s.14-.18.31-.18.31.08.31.18-.14.18-.31.18ZM20.13,5.58c-.16,0-.29.07-.29.16s.13.16.29.16.29-.07.29-.16-.13-.16-.29-.16Z"/>
              </g>
              <g>
                <ellipse class="cls-3" cx="20.13" cy="6.07" rx=".3" ry=".17"/>
                <path class="cls-9" d="M20.13,6.24c-.17,0-.31-.08-.31-.18s.14-.18.31-.18.31.08.31.18-.14.18-.31.18ZM20.13,5.91c-.16,0-.29.07-.29.16s.13.16.29.16.29-.07.29-.16-.13-.16-.29-.16Z"/>
              </g>
              <g>
                <ellipse class="cls-3" cx="20.13" cy="5.89" rx=".3" ry=".17"/>
                <path class="cls-9" d="M20.13,6.07c-.17,0-.31-.08-.31-.18s.14-.18.31-.18.31.08.31.18-.14.18-.31.18ZM20.13,5.73c-.16,0-.29.07-.29.16s.13.16.29.16.29-.07.29-.16-.13-.16-.29-.16Z"/>
              </g>
            </g>
          </g>
          <g>
            <path class="cls-6" d="M25.51,6.3l-.05-.15s-.13-.06-.14-.14c-.02-.21-.09-.29-.19-.32-.1-.03-.17.02-.17.02-.03.05-.18.05-.27.05-.09,0-.09-.04-.09-.04-.07,0-.09-.05-.09-.05-.04-.1-.08-.13-.1-.14.11,0,.19-.05.32-.2.14-.16.23-.1.23-.1-.07.15.02.13.02.13.18-.1.02-.36-.03-.34s-.07-.03-.07-.03c0,.05-.06.06-.06.06.05-.29-.11-.37-.11-.37-.02.03-.04.08-.04.08-.04.18-.19.15-.35.06-.16-.09-.6.09-.74.15-.14.06-.38.15-.61.01s-.28-.11-.37-.09-.24.07-.3.03-.12-.04-.12-.04c.02,0,0-.05,0-.05-.07-.1,0-.16,0-.16,0,0-.13.04-.08.28l.02.04s.02.07.05.1v.02s.03-.02.04.03c.01.05.06,0,.08-.04,0,0-.03.22.21.27,0,0-.03-.03-.02-.06s-.03-.04-.03-.07-.06-.05-.01-.07.07-.08.18,0,.19.06.19.06c0,0-.07-.15-.03-.15s.2.22.28.21.24-.11.32-.07c0,0,0-.04.31-.1s.67-.22.81-.08c0,0,.02.11.07.14,0,0-.01.24-.38.1l-.13-.04s-.02-.07-.73.13c0,0-.04.02-.07.04-.03.02-.06-.01-.2.04-.14.06-.66.24-.98.18h0c-.07-.02-.14-.01-.14-.02,0-.01.04,0,.04,0-.02-.03-.03-.03-.03-.03-.27-.03-.22-.17-.22-.17v.04c.06-.06,0-.21,0-.21h0s0,0,0-.01l.02-.02c.13-.12.28-.14.28-.14-.09-.12-.28-.06-.28-.06,0-.15-.05-.31-.05-.31-.18.02-.29.19-.29.19,0-.15-.18-.24-.18-.24.06.09.02.29.02.29h0s-.02,0-.02,0v.04s-.01,0-.01,0c0,0-.06.03-.14.21,0,0,0,.04-.04.08,0,0,0,0,0-.02,0,0-.08.12-.28,0,0,0-.26-.17-.35-.17s-.15.05-.15.08c0,0-.21-.02-.28.11,0,0-.16.06-.02.21,0,0,.02.06.06.1,0,0,0-.13.02-.09,0,0,0,.01.02.02,0,.02.02.07.04.09h.02s0-.08.02-.1h0s0,0,0,0l.04.06.04-.03s.05.02.05.02l.05-.04s0,0,0,0c.05,0,.06-.09.06-.09.04.01.08,0,.12-.02.02.09.19.18.19.18h0s-.02.02-.02.02c.08.06.22.05.22.05-.06.03-.05.15-.05.15-.04.02-.04.06-.04.06.12.05.2,0,.2,0,0,.04,0,.05,0,.05-.05.11-.07.22-.07.22,0,0,0,0,0,0,0,0,0,0,0,0,0,0-.21.08-.3.19,0,0,0-.03-.03-.03s-.11-.07-.14-.09-.09.01-.11,0c-.01-.02,0-.15-.03-.17l-.03-.08s-.09.03-.09.03c0,0-.01.01-.03.02-.01,0-.03,0-.03,0,0,0-.01.02-.02.05h0s0-.02,0-.02c-.01.01-.04,0-.05,0,0,0-.01.02-.02.04-.03,0-.07,0-.07,0-.01,0,0,.1,0,.1-.08.05-.04.13-.04.13.05.25.43.14.46.17s.1.04.13.04.08.09.13.1,0-.07.23-.13.3-.16.3-.16c.07-.02.09-.11.1-.15,0,.02,0,.04,0,.06.01.09-.04.12-.04.12l.2-.07c.08-.02.07-.1.07-.1.07.24.21.25.21.25.03-.09.02-.12.02-.12h.06c0-.05-.04-.09-.06-.11l.1.06h.04s.05.06.05.06v-.05c.05.06.13.04.13.04,0-.01,0-.02,0-.03.17.12.45-.03.45-.03.07.02.09-.03.09-.03.09.01.1-.05.1-.05.2-.02.34-.18.34-.18.1,0,.1-.09.1-.09,0,0,.1.02.19-.11.22-.35.55-.17.55-.17h-.19c-.5,0-.29.38-.29.38h.03s.21.15.15.26c0,0,0,0,0,0-.1.15-.29,0-.34-.12-.05-.13-.16-.1-.16-.1,0,0-.28.05-.17.3h0c0,.06.04.13.14.2.06.09.24.1.38.06.06-.02.4-.17.4-.17.02-.08.11-.06.18-.18s-.11-.16-.15-.22c-.04-.06.01-.05.01-.05.16.1.18-.21.18-.21.02.18.16.23.16.23.09-.1.02-.3.02-.3.21.42.34.35.34.35-.11-.08-.06-.18-.06-.18.1.44.52.06.52.06-.02.06,0,.1.04.14s.08.06.06.13c-.02.07-.21.06-.21.06,0,0-.19-.01-.17.16,0,.04.14.06.18.04,0,0-.02,0,.05.02.02,0,.05,0,.08,0,.08,0,.17-.02.17-.02.11-.03.09-.07.09-.07.17-.03.18-.16.18-.16h0Z"/>
            <path class="cls-9" d="M23.28,6.7c-.1,0-.2-.03-.24-.09-.09-.06-.13-.12-.14-.19h0c-.04-.08-.04-.15-.01-.2.05-.1.18-.12.19-.12,0,0,.12-.03.18.11.03.08.12.17.21.18.05,0,.08-.02.11-.06h0s0,0,0,0c.02-.03.02-.06,0-.1-.03-.07-.11-.13-.14-.14h-.04s0,0,0,0c0,0-.06-.12-.04-.22,0,0,0,0,0,0-.08.1-.15.12-.19.12h0s-.03.08-.11.08c-.02.03-.15.15-.34.18-.01.02-.04.05-.1.05,0,0,0,0,0,0,0,0-.01.02-.02.02-.02.01-.04.01-.07,0-.04.02-.27.13-.43.05,0,0,0,0,0,0h0s-.01.02-.01.02c0,0-.07.02-.12-.02v.04s-.03-.01-.03-.01c0,0-.04-.03-.05-.07h-.03s-.02,0-.02,0c0,.01,0,.03,0,.04h0s-.06.02-.06.02c0,.02,0,.05-.02.11h0s-.01.01-.01.01c0,0-.13-.02-.2-.21-.01.02-.03.04-.07.05l-.2.06v-.03s.02-.02.03-.08c-.02.03-.04.07-.08.08-.02.02-.1.11-.31.16-.14.04-.17.08-.19.11,0,.02-.02.03-.05.03-.03,0-.06-.04-.08-.06-.02-.02-.03-.04-.04-.04-.02,0-.1,0-.14-.04,0,0-.04,0-.07,0-.12,0-.35.02-.39-.17-.02-.03-.02-.09.04-.14,0-.1,0-.11.01-.11h0s.03,0,.06,0c0-.03.02-.04.03-.04,0,0,.01,0,.02,0,0,0,.02,0,.02,0h.02s.01-.03.02-.03h0s0,0,0,0c0,0,.01,0,.02,0,.01-.01.02-.02.03-.02h0s0,0,0,0c0,0,.06,0,.07-.02l.02-.04.04.11s.02.06.02.11c0,.02,0,.05,0,.06,0,0,.02,0,.03,0,.02,0,.05,0,.07,0,.02,0,.05.03.07.05.02.02.06.04.07.04.02,0,.03,0,.04.02.09-.09.25-.16.28-.18h0s.02-.11.07-.23h0s0-.01,0-.02c-.03.01-.1.02-.19-.02h0s0-.02,0-.02c0,0,0-.04.04-.06,0-.02,0-.09.03-.13h0c-.05,0-.14,0-.19-.05h-.01s.01-.02.01-.02c0,0,0,0,0,0-.04-.02-.15-.09-.18-.16-.03.02-.07.03-.1.02,0,.02-.02.06-.04.08,0,0-.02,0-.03,0l-.05.05h0s-.02-.02-.03-.02l-.05.03-.03-.05s0,.04,0,.06h0s-.04.02-.04.02h0s-.04-.08-.05-.1c0,0-.01,0-.01-.01,0,.02,0,.05,0,.07v.03s-.02-.02-.02-.02c-.04-.03-.06-.09-.06-.1-.05-.05-.06-.09-.05-.14.01-.05.06-.08.08-.09.06-.11.2-.12.26-.12h.02s0-.01,0-.02c.02-.03.08-.06.15-.06,0,0,0,0,0,0,.1,0,.35.16.36.17.18.11.25,0,.26,0l.02-.03h0s0-.03,0-.03c.07-.18.13-.22.15-.22v-.04s.01,0,.01,0c0-.04.03-.2-.02-.27l.02-.02s.15.08.18.21c.04-.05.14-.15.28-.17h.01s0,.01,0,.01c0,0,.05.16.05.3.05-.01.2-.04.27.07v.02s0,0,0,0c0,0-.15.02-.27.14h-.01s0,.01,0,.01c0,0,.06.16.02.23h0s0,.01,0,.02c.02.03.07.07.2.09,0,0,.02,0,.04.04.02,0,.06,0,.09.01h0c.34.07.91-.15.97-.17.09-.04.14-.04.17-.04.02,0,.03,0,.03,0,.03-.02.07-.04.07-.04.43-.12.7-.17.74-.13l.13.04c.14.05.24.05.3.01.04-.03.06-.07.06-.09-.05-.03-.07-.12-.07-.14-.1-.09-.32-.03-.54.02-.08.02-.17.05-.25.06-.27.05-.29.09-.3.09v.02s-.02-.01-.02-.01c-.04-.02-.12.01-.2.04-.04.02-.08.03-.11.04,0,0,0,0,0,0-.06,0-.13-.08-.2-.14-.03-.03-.06-.06-.07-.07,0,.02.02.07.04.13v.02s-.01,0-.01,0c0,0-.09.02-.2-.06-.08-.05-.11-.03-.14,0,0,0-.02.01-.03.02-.01,0-.01,0-.01,0,0,0,0,0,0,0,0,.01.02.02.02.05,0,.01,0,.02.01.03,0,.01.02.03.01.05,0,0,0,.03.02.04l.03.03h-.04c-.18-.05-.22-.17-.22-.24-.01.01-.03.03-.04.03,0,0,0,0,0,0,0,0-.02,0-.03-.03,0-.01,0-.02-.01-.02,0,0-.01,0,0,0h-.02s0-.02,0-.02c-.03-.03-.05-.08-.05-.1l-.02-.04c-.05-.25.08-.29.09-.29v.03s-.05.06,0,.14c0,0,.02.03.02.05.02,0,.07.01.11.04.03.02.1.02.29-.04h.01c.09-.03.15-.05.37.09.21.13.44.05.6-.02.13-.06.58-.24.75-.15.12.06.2.08.26.05.04-.02.06-.05.08-.11,0,0,.02-.06.04-.08h0s0,0,0,0c0,0,.16.08.12.36.01,0,.03-.02.03-.04h.03s.02.02.05.01c0,0,0,0,0,0,.04,0,.09.06.11.12.04.11.01.2-.07.25h0s-.04,0-.05-.02c-.02-.02-.02-.06,0-.12-.03,0-.1-.02-.2.1-.12.13-.2.19-.29.2.02.03.05.07.07.12,0,0,.02.04.08.04h.02s0,.01,0,.01c0,0,0,.03.06.03h.04c.08,0,.21,0,.23-.05h0s.07-.06.18-.03c.12.04.18.13.2.33,0,.06.1.11.14.13h0s.05.16.05.16h0s-.02.13-.18.17c0,0,0,0,0,.01-.01.02-.05.04-.1.06,0,0-.09.02-.17.02-.03,0-.06,0-.08,0-.03,0-.05,0-.06-.01-.06,0-.18,0-.19-.06,0-.06,0-.1.04-.13.05-.06.15-.05.15-.05.05,0,.18,0,.2-.05.01-.05,0-.07-.03-.1,0,0-.02-.02-.02-.02-.03-.03-.05-.07-.05-.11-.07.05-.23.16-.36.12-.02,0-.04-.02-.06-.03h-.02s-.03.02-.06,0c-.05-.02-.14-.08-.25-.27,0,.07,0,.15-.05.21h0s0,0,0,0c0,0-.11-.04-.15-.16-.01.06-.03.13-.08.15-.03.02-.07.01-.1,0,0,0,0,0,0,0,0,0,0,0,.01.03.01.02.04.03.06.05.06.04.14.09.08.18-.04.06-.08.09-.12.11-.03.02-.05.03-.06.07h0s0,0,0,0c-.01,0-.34.16-.4.18-.05.01-.1.02-.15.02ZM22.92,6.39h0s0,.01,0,.01c0,.07.05.13.13.19h0c.05.08.22.09.36.06.06-.01.35-.15.39-.17.01-.04.04-.06.08-.08.03-.02.07-.04.11-.1.04-.06,0-.1-.07-.14-.03-.02-.06-.04-.07-.06-.01-.02-.03-.05-.01-.06.01-.02.04-.01.04-.01h0s.06.02.08.01c.06-.03.08-.16.08-.21h.03c.01.14.11.2.14.21.07-.09.02-.27.01-.27h.03c.14.26.24.32.29.33-.08-.08-.03-.17-.03-.17l.02-.03v.04c.03.11.08.17.15.19.15.05.36-.14.36-.14l.02.02c-.02.06,0,.09.03.13,0,0,.01.02.02.02.03.03.06.06.04.13-.02.08-.21.07-.23.07,0,0-.08,0-.13.04-.02.02-.03.06-.03.11,0,.02.12.04.17.03h0s.01.02.01.02c0,0,0-.01,0-.01,0,0,0,0,.05,0,.02,0,.05,0,.08,0,.08,0,.16-.02.17-.02.06-.01.07-.03.08-.04,0,0,0,0,0,0v-.02s.01,0,.01,0c.14-.03.17-.12.17-.14l-.05-.14s-.14-.07-.15-.15c-.03-.23-.11-.28-.18-.31-.09-.03-.14,0-.16.02-.03.04-.14.05-.25.06h-.03s-.07,0-.09-.02c0,0-.01-.01-.01-.02-.07,0-.09-.06-.1-.06-.05-.1-.08-.13-.09-.14v-.03h.01c.1,0,.18-.05.3-.19.14-.16.25-.1.25-.1h.01s0,.02,0,.02c-.03.07-.02.1-.02.1,0,0,.02,0,.02,0h0c.1-.06.07-.17.06-.21-.03-.07-.07-.11-.08-.11h0s-.05,0-.07-.01c-.02.03-.06.05-.06.05h-.02s0-.02,0-.02c.04-.24-.06-.32-.09-.35-.02.02-.03.06-.03.06-.02.06-.05.11-.09.13-.07.03-.16.01-.28-.06-.17-.09-.63.11-.72.15-.16.07-.4.15-.62.01-.21-.13-.27-.11-.34-.09h-.01c-.16.05-.27.06-.31.04-.05-.03-.12-.03-.12-.03v-.03s-.01-.02-.02-.03c-.03-.04-.03-.07-.03-.1-.02.04-.03.1-.01.2l.02.04s.02.07.05.09h0s0,.01,0,.01c0,0,0,0,.01,0,.01,0,.02.02.03.04,0,.01,0,0,0,0,0,0,.03-.02.05-.05h.03s-.03.19.17.25c0-.01,0-.03,0-.04,0,0,0,0,0-.02,0-.01-.02-.03-.02-.05,0,0,0-.01-.01-.02,0,0-.02-.02-.02-.04,0-.01.02-.02.03-.03,0,0,.02-.01.03-.02.04-.03.08-.05.17,0,.07.05.13.05.16.05-.02-.05-.04-.12-.03-.14,0,0,.01-.01.02-.01.02,0,.05.03.1.08.05.05.13.14.18.14,0,0,0,0,0,0,.03,0,.06-.02.11-.04.07-.03.15-.06.21-.04.02-.02.09-.06.31-.1.08-.01.16-.04.25-.06.24-.06.47-.13.57-.01h0s0,0,0,0c0,.03.02.11.07.13h0s0,.01,0,.01c0,0,0,.08-.07.12-.07.05-.18.05-.33,0l-.14-.04h0s-.11-.04-.71.13h0s-.04.02-.06.04c-.01.01-.03.01-.05.01-.03,0-.07,0-.16.03-.06.03-.62.25-.98.18h0s-.01,0-.01,0c-.04-.01-.07-.01-.1-.02-.03,0-.05,0-.05-.02,0,0,0-.01,0-.02-.11-.01-.18-.05-.21-.1-.03-.04-.01-.09-.01-.09h.03s-.01-.12-.03-.15h0s0-.01,0-.01c0,0,0,0,0-.01h0s.03-.03.03-.03c.1-.09.21-.13.26-.14-.09-.08-.24-.03-.24-.03h-.02s0-.01,0-.01c0-.12-.03-.26-.05-.3-.17.03-.26.18-.27.18h-.03c0-.1-.08-.17-.13-.2.03.1,0,.25,0,.26h0s0,.02,0,.02h0v.05s-.02,0-.02,0c-.02.01-.07.05-.13.2h0s0,.05-.04.09l-.02.03v-.02s-.13.07-.27-.02c-.07-.05-.27-.16-.34-.16h0c-.06,0-.11.03-.13.05,0,0,0,.01,0,.01v.02s-.02,0-.02,0c0,0-.2-.02-.27.11h0s0,0,0,0c0,0-.06.02-.07.07,0,.03,0,.07.05.11h0s0,.04.03.07c0-.07.02-.07.02-.07,0,0,.02,0,.03.01,0,0,0,.01.02.02h0s0,0,0,0c0,.01.01.06.03.08h0s0-.07.02-.09h0s.05,0,.05,0l-.02.02.02.04.04-.02s.04,0,.05.01l.04-.04h0s0,0,0,0c0,0,0,0,.01,0,.02-.01.03-.05.03-.08v-.02s.02,0,.02,0c.03,0,.07,0,.11-.02h.02s0,0,0,0c.02.06.13.14.18.17h0s0,.03,0,.03c0,0,0,0,0,0,.08.04.2.03.2.03v.03s-.04.1-.04.14h0s0,.01,0,.01c-.02,0-.02.02-.03.03.1.04.17,0,.18,0h.02s0,.01,0,.01c0,.01,0,.04,0,.06-.04.09-.06.17-.06.2h0s0,.02,0,.02c0,0,0,0,0,0h0s0,.01,0,.01c0,0-.21.08-.29.19l-.02.02v-.03s-.01-.02-.03-.02c-.02,0-.04-.02-.08-.04-.02-.02-.05-.04-.07-.04-.02,0-.03,0-.05,0-.02,0-.05,0-.06-.01,0-.01,0-.03-.01-.07,0-.03,0-.09-.02-.09h0s-.02-.06-.02-.06c-.03.02-.06.02-.08.02,0,0-.01.01-.02.02h0s0,0,0,0c-.01,0-.02,0-.03,0,0,0,0,.02-.01.03h0s-.04.03-.04.03v-.03s-.02,0-.03,0c0,0,0,0,0,0,0,0,0,.01,0,.02h0s0,.01,0,.01c-.02,0-.05,0-.06,0,0,.02,0,.06,0,.09h0s0,.01,0,.01c-.07.04-.04.1-.04.11h0c.03.17.24.16.36.16.06,0,.09,0,.1,0,.02.02.08.03.12.03.02,0,.04.02.07.05.02.02.04.05.06.05,0,0,0,0,.02-.01.02-.03.05-.08.2-.12.22-.06.29-.16.3-.16h0s0,0,0,0c.06-.01.08-.1.08-.14h.03s0,.04,0,.06c0,.04,0,.07-.01.09l.15-.05c.07-.02.06-.08.06-.08h.03c.06.18.15.22.19.23.02-.07.02-.1.02-.1v-.02s.06,0,.06,0c0-.04-.04-.07-.05-.08l.02-.02.09.06h.05s0,0,0,0c0,.02.01.03.03.04v-.06s.03.03.03.03c.03.04.08.04.1.04,0,0,0-.01,0-.02v-.04s.02.02.02.02c.17.11.44-.03.44-.03h0s0,0,0,0c.02,0,.04,0,.05,0,.01,0,.01-.02.01-.02h0s.01-.01.01-.01c0,0,.01,0,.02,0,.06,0,.07-.04.07-.04h0s0-.01,0-.01c.19-.02.33-.17.33-.17h0s0,0,0,0c.08,0,.09-.07.09-.07v-.02s.02,0,.02,0c0,0,.09.02.18-.1.22-.36.57-.17.57-.17v.03s-.2.01-.2.01h0c-.15,0-.25.04-.29.11-.05.09,0,.2.01.24h.02s0,0,0,0c.04,0,.13.08.16.16.02.04.02.09,0,.12,0,0,0,0,0,0-.03.05-.08.07-.12.07,0,0,0,0-.01,0-.1,0-.2-.11-.23-.2-.05-.12-.14-.09-.15-.09,0,0-.12.02-.17.11-.02.04-.02.1,0,.16ZM24.52,5.98s0,.07.06.11c-.03-.03-.05-.06-.06-.11ZM23.69,5.65c-.06,0-.14.02-.21.06.05-.02.12-.03.21-.03h.14s-.08-.03-.14-.03Z"/>
          </g>
        </g>
        <path class="cls-9" d="M19.98,5.54s0-.02.03-.03c.01,0,.03,0,.05.03h0s-.04-.08-.03-.13c0-.02.03-.04.06-.05h0s-.06.01-.07.04c0,0,0,.02,0,.03,0,.02,0,.05.02.07-.01,0-.02,0-.03,0-.02,0-.03.02-.03.03h0ZM25.23,6.52c-.11.02-.28.03-.29,0,0,0,0-.03.09-.1v-.02c-.09.06-.12.1-.11.13.02.07.27.03.32.02v-.02ZM23.05,6.59s-.01-.1.03-.18h-.02c-.05.07-.07.14-.04.19h.02Z"/>
        <path class="cls-9" d="M22.9,6.4c0,.08.05.15.14.21v-.02c-.08-.06-.12-.12-.12-.19,0-.1.1-.18.1-.18v-.02s-.12.09-.12.2h0ZM24.84,6.43c-.03.05-.02.11-.02.11h.02s0-.06.02-.1c.02-.03.04-.04.08-.05v-.02s-.07.03-.09.06h0ZM20.4,5.47h0s0,0,0,0c0,0,0,.07-.04.09,0,0-.02,0-.03,0l-.05-.03s-.02-.02-.03-.01c0,0-.01-.02-.01-.05,0,0,0,0,0,0,0-.03.02-.06.06-.09h0s-.06.05-.06.08c0,.02,0,.05.02.07h0s0,0,0,0c.01,0,.01,0,.02,0l.05.03s.02,0,.04,0c.03-.02.04-.07.04-.09.12.03.22-.13.22-.14h0s-.1.16-.22.13h0Z"/>
        <path class="cls-9" d="M20.11,5.45s0,.05.01.08c.01.02.03.04.04.04.02,0,.03-.01.04-.02,0,0,.02-.02.02-.02h.01s0,0,0,0h-.02s-.02,0-.03,0c-.01.01-.02.02-.03.02,0,0-.02-.01-.03-.03-.01-.02-.02-.05-.01-.07.01-.06.08-.1.08-.1h0s-.07.04-.08.1h0ZM19.94,6.29s.02-.04.05-.06c0,0,.03.03.05.02h.02s.05.04.05.1c0,.01,0,.03,0,.04h.01c.03-.08-.05-.16-.05-.16h0s0,0,0,0h-.01s-.05-.01-.05-.01c-.03.02-.05.04-.06.07h.01ZM20.32,6.07s-.09.02-.12.06c0,.01,0,.03,0,.05v.03c.03.06.05.13.08.14h0s-.04-.09-.06-.15v-.03s-.01-.03,0-.04c.02-.03.08-.05.11-.05.02,0,.02.06.02.1h.01c0-.06,0-.12-.04-.11h0Z"/>
        <path class="cls-9" d="M20.13,6.14s-.01.04-.01.04c0,0,0,.17.08.2h0c-.06-.04-.07-.2-.07-.2,0,0,0-.02,0-.03.01-.01.03-.01.06,0h0s-.06-.02-.07,0h0Z"/>
        <path class="cls-9" d="M20.08,6.15s-.03.09-.03.09h.01s0-.06.02-.08c0,0,.02,0,.04,0h0s-.04-.02-.05,0h0ZM21.72,5.27s.03.08.03.14c0,.01,0,.02,0,.03v-.04s-.02.03-.02.03c0,0-.01.04,0,.08.03.05.1.09.22.1h0s0,0,0,0c0,0,0,0,0,0h0s0,.02,0,.02c0,.01.02.01.04.02h.02s.01,0,.01,0h0s.06,0,.09.02h-.02s.03.02.03.02c0,0,.21.09.3.17-.02.02-.13.11-.32.06h-.03s.02.02.02.02c0,0,.12.15.15.24-.04,0-.2,0-.26-.05h-.01s.08.14.09.24c-.02,0-.07,0-.11-.04v-.02s-.02.06-.02.06c-.01-.01-.03-.03-.03-.05h0s-.05,0-.05,0l-.09-.06s0,0-.01,0c0,0,0,0,0,0h0s0,.02,0,.02h.01s.05.06.06.1h-.06s0,.02,0,.02h0s0,.04-.02.1c-.03,0-.13-.05-.19-.24h-.02s0,.01,0,.01c0,.02,0,.06-.06.08l-.16.05s.02-.04.02-.07c0,0,0-.02,0-.02,0-.03,0-.05,0-.07,0-.04,0-.07.03-.08v-.02s-.25.1-.36.06c0-.03.03-.11.07-.21h0s.02-.01,0-.05h0s-.01,0-.01,0c0,0-.08.04-.18,0,0,0,0-.03.03-.04h0s0-.01,0-.01c0,0,0,0,0-.01,0-.03,0-.11.05-.13v-.02s-.13.01-.21-.04c.02-.02.06-.04.11-.05h0s0,0,0,0c0,0,0,0,0,0,0-.01,0-.03-.01-.06.03,0,.06.02.08,0h0s0-.09,0-.09h-.02s0,.07,0,.07c-.01,0-.04,0-.08-.02h-.03s.02.02.02.02c.02.02.02.05.02.06-.07.01-.12.06-.13.06h-.01s.01.02.01.02c.06.05.15.05.2.05-.03.03-.03.09-.03.12,0,0,0,0,0,.01-.02.01-.03.03-.04.06h0s0,.01,0,.01c.1.04.17.02.2.01,0,0,0,0,0,.01,0,.01,0,.01,0,.01-.05.12-.07.23-.07.23h0s0,.01,0,.01c.09.04.27-.02.34-.04,0,.02-.02.04-.02.07,0,.02,0,.05,0,.07,0,0,0,.01,0,.02,0,.06-.04.09-.04.09v.02s.2-.07.2-.07c.05-.01.06-.04.07-.07.08.2.2.22.21.22h0s0,0,0,0c.02-.06.02-.09.02-.11h.06s0-.01,0-.01c0,0,0,0,0,0,0-.02,0-.03-.01-.05l.03.02h.03s.05.06.05.06h.01s0-.04,0-.04c.05.05.12.03.12.03h0s0-.01,0-.01c0-.07-.05-.16-.08-.21.09.04.24.04.25.04h.01s0-.01,0-.01c-.01-.08-.1-.2-.14-.25.2.04.31-.07.32-.08h0s0-.02,0-.02c-.07-.07-.23-.14-.29-.17h.02s-.02-.02-.02-.02c-.05-.03-.11-.04-.15-.04h0s-.04-.04-.04-.04c-.14-.02-.19-.06-.21-.09,0,0,0,0,0,0h0s.02-.05.02-.08c0-.07-.03-.15-.03-.15h-.02s0,0,0,0Z"/>
        <path class="cls-9" d="M21.09,5.23s-.02.09-.08.12c-.05.03-.11.03-.19,0h0s0,0,0,0c0,0,0,.05.05.09.03.03.08.04.15.03-.02.03-.09.12-.09.21,0,0,0,0,0,.01,0,0,.11.04.16-.03,0,.03,0,.12.04.16.02.02.02.05.02.07,0,.02,0,.04,0,.04v.02s0-.01,0-.01c0,0,.1-.08.13-.18,0,0,.02-.03.05-.04,0,0,0,0,0,.02,0,.04.02.11.12.15h0s0,0,0,0c0,0,0-.01,0-.02,0-.03,0-.08.03-.11.02-.02.02-.04.02-.06,0-.01,0-.03,0-.03.02,0,.07.02.09.07.03.06.13.01.14.01h0s-.04,0-.07-.02c-.01,0-.02-.02-.02-.04v-.06s0-.05-.02-.06c.01,0,.04,0,.05.03.02.04.08.05.08.05h.02s-.02-.01-.02-.01c0,0-.05-.04-.05-.09v-.04c.02-.07.05-.18.03-.25h-.01s0,.04,0,.06c0,.06-.02.13-.03.18v.04s0,0,0,.01c0,.03.02.06.03.07-.02,0-.04-.01-.05-.04-.01-.04-.06-.04-.07-.03h-.01s.01.01.01.01c.02.01.02.03.02.06v.06s.02.04.03.05c.01,0,.03.01.04.01-.03,0-.07.01-.09-.02-.03-.06-.11-.07-.11-.07h-.01s0,0,0,0c0,.01,0,.03,0,.04,0,.01,0,.03-.02.05-.03.03-.03.09-.03.12h0c-.09-.03-.1-.09-.1-.13,0-.01,0-.02,0-.03h0s0,0,0,0c-.04,0-.06.05-.06.05-.02.08-.09.15-.12.17,0,0,0-.02,0-.02,0-.03,0-.06-.03-.08-.04-.04-.04-.16-.04-.16v-.02s-.01.02-.01.02c-.04.08-.15.04-.15.04,0-.1.1-.22.1-.22h.01s-.02-.01-.02-.01c-.07.01-.12,0-.15-.03-.02-.02-.03-.04-.04-.07.08.03.14.03.19,0,.07-.04.08-.13.08-.13.07-.18.14-.21.14-.21h0s-.07.02-.14.21h0Z"/>
        <path class="cls-9" d="M21.25,4.96h0s-.06.09-.06.09h.02c.32.04.49.25.49.25h0s.06-.06.06-.06h0c-.16-.29-.5-.28-.5-.28h0ZM21.26,4.98s.33,0,.48.25l-.03.04s-.2-.21-.48-.24l.03-.05h0Z"/>
        <path class="cls-9" d="M21.2,5.14s-.05.1-.05.13c0,0,0,0,0,.01,0,0,0,0,0,0-.03.03-.05.09-.05.15,0,.03,0,.07.02.1v.02c.04.09.06.17.2.13.13-.05.13-.05.17-.11v-.02s.05-.04.07-.05c.02,0,.05-.02.07-.07l.02-.04s.05-.08.06-.14h-.01c0,.05-.03.1-.05.13l-.02.04s-.04.05-.07.06c-.02,0-.04.01-.06.05v.02c-.04.06-.04.06-.17.11-.12.04-.15-.02-.18-.12v-.02c-.04-.1-.01-.21.03-.25h.02s-.02-.01-.02-.01c0,0,0,0,0,0,0-.02.02-.07.05-.12.03-.04.1-.09.1-.09h0s-.07.03-.1.08h0Z"/>
        <path class="cls-9" d="M21.14,5.52s.05.02.09,0c0,.01,0,.05.03.07.03.03.07.03.14.02h0c-.06,0-.1,0-.13-.02-.03-.03-.02-.07-.02-.07h0s0,0,0,0c-.04.02-.07.02-.09,0-.04-.03-.03-.1-.03-.1h-.01s0,.08.04.11h0Z"/>
        <path class="cls-9" d="M21.22,5.42s-.02.02-.02.03c0,0,0,0,0,0,0,.03.03.05.06.06.03,0,.06,0,.08,0,0,0,0-.02,0-.04-.04-.08-.11-.05-.12-.05h0ZM21.26,5.51s-.05-.03-.06-.05c0,0,0-.02.01-.02h0s.06-.03.1.04c0,.01,0,.02,0,.03,0,.01-.04.01-.06,0h0ZM21.22,5.42s0,0,0,0h0ZM21.26,5.58c0,.07,0,.07,0,.07h0s0,0,0,0l.04-.05-.05-.02h0s0,0,0,0ZM21.27,5.59h.02s-.02.04-.02.04c0-.01,0-.02,0-.04ZM21.16,5.53v.06s.05-.07.05-.07h-.05s0,0,0,0h0ZM21.17,5.54h.01s-.01.02-.01.02v-.02Z"/>
        <path class="cls-9" d="M21.13,5.51s.04.08.04.11c0,.02.03.04.05.05s.05,0,.07,0l.03-.03s.01-.01.02-.01h0s-.02,0-.03,0l-.03.03s-.04,0-.06,0c-.02,0-.04-.03-.04-.04,0-.03-.04-.11-.04-.11h-.01s0,0,0,0ZM21.18,5.27s-.06.07-.06.08h.01s.02-.05.05-.06c.02,0,.04,0,.06,0h0s-.05-.02-.07-.01h0ZM21.45,5.41s.08.07.04.14h0c.05-.08-.04-.15-.04-.15h0s0,.01,0,.01ZM21.22,5.43s-.01.05.05.06c0,0-.06,0-.06-.02,0-.02,0-.05.01-.05h0ZM21.4,5.48s0,0,0,0,0,0,0,0,0,0,0,0,0,0,0,0ZM21.41,5.51s0,0,0,0,0,0,0,0,0,0,0,0c0,0,0,0,0,0Z"/>
        <circle class="cls-9" cx="21.36" cy="5.5" r="0"/>
        <path class="cls-9" d="M21.38,5.54s0,0,0,0c0,0,0,0,0,0,0,0,0,0,0,0s0,0,0,0ZM21.21,5.34s0,0,0,0c0,0,0,0,0,0s0,0,0,0c0,0,0,0,0,0Z"/>
        <circle class="cls-9" cx="21.21" cy="5.37" r="0"/>
        <circle class="cls-9" cx="21.17" cy="5.36" r="0"/>
        <path class="cls-9" d="M21.19,5.4s0,0,0,0c0,0,0,0,0,0,0,0,0,0,0,0,0,0,0,0,0,0ZM21.3,5.14s.09.06,0,.17c0,0,.04-.03.05-.09,0-.06-.03-.1-.05-.08ZM21.64,5.3s-.07-.01-.09-.04-.06-.03-.09.02-.06.07-.06.07c0,0,.04-.02.07-.07.04-.04.06,0,.1.01s.04.03.07.02h0Z"/>
        <path class="cls-9" d="M21.63,5.31s-.03.02-.05,0-.04-.05-.07-.03-.08.06-.08.06c0,0,.09-.07.1-.05s.06.05.08.04c.02-.01.02-.01.02-.01ZM21.56,5.35s-.05.03-.08.02c-.02,0-.04-.05-.04-.05,0,0,.02.04.05.03s.05-.03.07-.02,0,0,0,0h0Z"/>
        <path class="cls-9" d="M21.52,5.35c-.05,0-.06-.05-.06-.05,0,0,.02.05.06.04h0s0,.01,0,.01ZM21.52,5.32s0,.02-.01.02-.02,0-.02-.02.03-.01.04,0h0ZM21.33,5.23s0,.02-.02.02-.01,0-.01-.02,0-.02.01-.02.02,0,.02.02h0Z"/>
        <path class="cls-9" d="M21.27,5.17s.09,0,.05.13c0,0,.04-.06.01-.11s-.06-.03-.06-.03c0,0,0,0,0,.01h0Z"/>
        <path class="cls-9" d="M21.26,5.22s.02.05.05.08h0s-.04-.06-.04-.08.02-.03.02-.03h0s-.02,0-.02.03h0Z"/>
        <path class="cls-9" d="M21.28,5.24s.01.03.03.03h0s-.02-.03-.02-.04c0-.02,0-.05.01-.05h0s-.02.02-.01.05h0ZM21.41,5.31s.02.04,0,.09l-.02.04s.03-.06.02-.09.01-.04.01-.04h0ZM21.77,5.74c.1.02.31.21.31.21v-.02s-.21-.19-.31-.21v.02s0,0,0,0ZM21.86,6c0,.09.1.15.1.15v-.02s-.08-.05-.08-.14h-.02s0,0,0,0ZM21.63,6.02c0,.1.09.23.09.24h.02s-.09-.14-.09-.24h-.02,0ZM21.33,6.03s.01.05,0,.06c0,0-.01.01-.01.01v.02s.03-.01.03-.02c0-.02,0-.05,0-.08h-.02s0,0,0,0Z"/>
        <g>
          <g>
            <g>
              <path class="cls-3" d="M19.97,5.52s0,.07.05.11c0,0,0-.08,0-.11,0,0-.03-.03-.06,0h0ZM20.07,5.56s.01.06.05.09h.02s0-.09.02-.1-.05.03-.09,0h0Z"/>
              <path class="cls-9" d="M20.12,5.66h0s-.05-.09-.05-.1h0s0,0,0,0c.03.02.06,0,.08,0,0,0,0,0,.01,0h0s0,0,0,0c0,0-.01.05-.02.09h0s-.03.01-.03.01ZM20.08,5.57s.02.06.04.08h.02s0-.06.02-.08c-.02,0-.05.02-.07,0ZM20.03,5.64h0s-.06-.12-.06-.12h0s0,0,0,0c.04-.03.07,0,.07,0h0s0,0,0,0c-.01.03,0,.1,0,.11h0ZM19.98,5.52s0,.06.04.1c0-.02,0-.07,0-.1,0,0-.02-.02-.05,0Z"/>
            </g>
            <g>
              <path class="cls-3" d="M20.16,5.56l.04.06.04-.03v-.08s-.03,0-.08.04h0Z"/>
              <path class="cls-9" d="M20.19,5.63h0s-.04-.07-.04-.07h0s.07-.04.08-.04h0s0,.08,0,.08l-.05.03ZM20.16,5.56l.03.06.04-.02v-.07s-.04,0-.07.03Z"/>
            </g>
            <g>
              <path class="cls-3" d="M20.33,5.57l-.05.04s-.03-.02-.05-.02v-.07s.04-.03.1.04ZM19.98,6.23s0-.1,0-.1c0,0,.03.01.05,0,0,0,.02.08.01.11s-.04.02-.07,0h0ZM20.21,6.13s0-.08.01-.09c0,0,.07,0,.09-.03l.03.08s-.08,0-.13.04Z"/>
              <path class="cls-9" d="M20.03,6.26s-.03-.01-.05-.02h0s0-.11,0-.11h0s0,0,0,0c0,0,.03.01.04,0h0s0,0,0,0c0,0,.02.08.01.11,0,.01-.01.02-.02.02,0,0,0,0,0,0ZM19.99,6.23s.04.02.05.02c0,0,0,0,0-.01,0-.03,0-.08-.01-.1-.02,0-.04,0-.04,0,0,0,0,.06,0,.1ZM20.2,6.14h0s0-.1.01-.11c0,0,0,0,.02,0,.02,0,.06,0,.07-.03h0s0,0,0,0l.03.09h0s-.08,0-.12.04h0ZM20.22,6.04s0,.04,0,.08c.03-.03.08-.04.11-.04,0,0,0,0,0,0l-.02-.06s-.09.02-.09.02ZM20.28,5.62h0s-.02-.02-.04-.02c0,0,0,0,0,0h0s0-.08,0-.08c0,0,0,0,.02,0,0,0,0,0,0,0,.02,0,.04.02.07.05h0s0,0,0,0l-.05.05ZM20.24,5.59s.03.01.04.02l.04-.04s-.04-.04-.06-.04c0,0,0,0,0,0,0,0-.02,0-.02,0v.06Z"/>
            </g>
          </g>
          <g>
            <path class="cls-3" d="M20.13,6.14s.01-.09.03-.09c0,0,.04.01.05,0v.1s0-.04-.08-.01ZM20.04,6.16s.02-.08.03-.08.04.02.05,0v.06s-.06-.02-.07.08v-.07Z"/>
            <path class="cls-9" d="M20.05,6.22v-.07s-.01,0-.01,0c0-.04.02-.08.03-.08,0,0,.01,0,.02,0,.01,0,.03,0,.03,0h0s0,.02,0,.02c0-.02.01-.05.02-.05.01,0,.04,0,.05,0h0s0,.11,0,.11h0s0,0,0,0c0,0,0,0,0-.01,0,0-.02,0-.06,0h0s0,0,0,0h0s0,0,0,0c0,0-.02,0-.03,0-.02.01-.03.03-.03.07h0ZM20.05,6.16v.04s.02-.04.04-.05c.01-.01.03,0,.04-.01v-.04s-.02,0-.04,0c0,0-.01,0-.01,0,0,0-.02.04-.02.07ZM20.16,6.06s-.01.04-.02.08c.03-.01.05-.01.06,0,0,0,0,0,0,0v-.08s-.04,0-.04,0Z"/>
          </g>
        </g>
        <g>
          <g>
            <g>
              <g>
                <path class="cls-5" d="M21.17,7.74s.2.2.14.38c0,0,.13-.3,0-.39-.14-.09-.14-.02-.14.01h0Z"/>
                <path class="cls-9" d="M21.32,8.12h-.02c.05-.17-.14-.37-.14-.37h0s0-.05.02-.06c.02-.02.07,0,.13.04.14.09.02.38.01.4ZM21.18,7.73s.14.16.15.3c.03-.09.05-.24-.03-.3-.07-.05-.1-.05-.11-.04-.01,0-.01.03,0,.04Z"/>
              </g>
              <g>
                <path class="cls-7" d="M20.92,7.93s-.05.08,0,.13c0,0-.06.1-.01.18,0,0-.04.09-.03.18,0,0-.03.14.04.21,0,0,.07.04.11,0,0,0,.07-.11.02-.22,0,0,.05-.09,0-.21,0,0,.01-.07-.03-.14,0,0,.03-.05,0-.09,0,0-.09-.11-.1-.04h0Z"/>
                <path class="cls-9" d="M20.99,8.67s-.07-.02-.07-.02c-.08-.07-.04-.22-.04-.22,0-.08.02-.16.03-.18-.04-.07,0-.16.01-.18-.05-.06,0-.13,0-.14,0-.02.01-.02.02-.03,0,0,0,0,0,0,.03,0,.08.05.09.07.02.04,0,.08,0,.1.04.07.03.13.03.14.05.11.01.19,0,.21.04.11-.02.22-.03.23-.01.01-.03.02-.05.02ZM20.94,7.92s0,0,0,0c0,0,0,0,0,.01h0s-.05.08,0,.13h0s0,.01,0,.01c0,0-.06.09-.01.17h0s0,0,0,0c0,0-.04.09-.03.18,0,0-.03.14.03.2.02,0,.07.03.09,0h0s.06-.1.02-.21h0s0,0,0,0c0,0,.04-.09,0-.2h0s0,0,0,0c0,0,.01-.06-.03-.14h0s0,0,0,0c0,0,.03-.05,0-.08-.02-.03-.06-.06-.08-.06Z"/>
              </g>
              <g>
                <path class="cls-5" d="M20.98,7.68s-.23-.49-.4-.51-.17-.2-.17-.2c0,0,.02.08.15.08s.38.2.41.35.06.13.06.13l-.05.14h0Z"/>
                <path class="cls-9" d="M20.98,7.71v-.02s-.24-.49-.4-.51c-.17-.02-.18-.2-.18-.2h.02s.02.07.14.07c.13,0,.39.2.42.36.02.12.04.13.04.13l.02-.02v.03s-.07.16-.07.16ZM20.43,7.02c.02.05.05.12.16.14.15.02.35.4.39.5l.04-.11s-.04-.06-.05-.14c-.03-.15-.28-.35-.4-.35-.07,0-.11-.02-.13-.04Z"/>
              </g>
              <g>
                <path class="cls-5" d="M20.98,7.64s.08-.62.45-.63c.37-.01.25.03.34-.04,0,0-.25.14-.4.16-.15.02-.28.35-.28.41,0,.06-.08.18-.13.14s.01-.05.01-.05h0Z"/>
                <path class="cls-9" d="M20.98,7.71s-.02,0-.03-.01c-.02-.02-.02-.03-.02-.04,0-.01.02-.02.03-.02.01-.07.11-.62.46-.63.15,0,.22,0,.25,0,0,0,0,0,0,0,.04-.02.07-.04.07-.04v.02s-.01.02-.02.03c-.02.01-.02.02-.04.02-.09.04-.23.11-.33.13-.14.02-.27.34-.27.4,0,.05-.05.13-.09.15,0,0-.02,0-.02,0ZM21.55,7.02s-.07,0-.12,0c-.36,0-.44.62-.44.62h0s0,0,0,0c0,0-.02,0-.02,0,0,0,0,.01.01.02,0,0,.01,0,.03,0,.04-.02.08-.09.08-.13,0-.07.12-.4.28-.42.09-.01.21-.07.3-.11-.03,0-.06,0-.11,0Z"/>
              </g>
              <g>
                <path class="cls-5" d="M21.06,7.88s.08-.25.23-.16c0,0-.11-.24-.31-.03,0,0,.09.13.08.2h0ZM20.78,7.63s.12.55-.07.72c0,0,0-.28-.11-.45s.11-.35.17-.27h0Z"/>
                <path class="cls-9" d="M20.71,8.37v-.02s0-.28-.11-.45c-.07-.11,0-.23.06-.28.05-.04.1-.03.12,0h0s.12.56-.07.73l-.02.02ZM20.74,7.62s-.04,0-.06.02c-.06.04-.13.15-.06.25.09.14.11.36.11.43.15-.17.05-.66.05-.69,0-.01-.02-.02-.04-.02ZM21.07,7.88h-.02c0-.06-.08-.19-.08-.19h0s0-.01,0-.01c.06-.07.13-.09.19-.09.09.02.14.11.14.12v.03s-.01-.02-.01-.02c-.03-.02-.06-.02-.09,0-.08.03-.13.17-.13.17ZM20.99,7.68s.06.1.08.16c.02-.05.06-.12.13-.15.02,0,.05,0,.07,0-.02-.03-.06-.07-.11-.08-.05,0-.11.02-.17.07Z"/>
              </g>
              <g>
                <path class="cls-5" d="M20.8,7.73s.22.23.23.31.07-.23-.04-.32c-.1-.09-.21-.1-.21-.1l.02.11Z"/>
                <path class="cls-9" d="M21.03,8.06h0s-.01-.01-.01-.02c-.01-.07-.23-.3-.23-.3h0s-.02-.13-.02-.13h.01s.12.02.22.11c.09.07.07.29.05.34,0,0,0,.01-.01.01ZM20.8,7.72s.2.22.23.3c.01-.06.02-.24-.05-.3-.08-.07-.16-.09-.2-.1l.02.1Z"/>
              </g>
              <g>
                <path class="cls-7" d="M20.39,8.33s.02.1.07.12c0,0,0,.07.05.09,0,0-.03.06.02.1,0,0,0,.12.03.14,0,0,.1,0,.13-.04,0,0,.02-.08-.03-.16,0,0,0-.08-.05-.12,0,0,.02-.1-.05-.14,0,0-.01-.08-.05-.12,0,0-.08.13-.12.12h0Z"/>
                <path class="cls-9" d="M20.56,8.79h0s-.04-.12-.04-.15c-.03-.03-.02-.08-.02-.1-.04-.02-.05-.07-.05-.09-.05-.02-.07-.12-.07-.12v-.02s.01,0,.01,0h0s.07-.06.11-.12h0s0,0,0,0c.04.04.05.1.06.12.06.04.06.12.05.14.05.04.05.1.05.12.05.08.03.16.03.16h0s-.13.04-.14.04h0ZM20.4,8.34s.03.08.06.1h0s0,0,0,0c0,0,0,.07.05.09h0s0,.01,0,.01c0,0-.02.05.02.09h0s0,0,0,0c0,.04,0,.11.02.13.03,0,.09-.01.12-.03,0-.01.01-.08-.03-.15h0s0,0,0,0c0,0,0-.07-.04-.11h0s0,0,0,0c0,0,.02-.09-.05-.13h0s0,0,0,0c0,0,0-.07-.04-.11-.02.03-.07.1-.11.11Z"/>
              </g>
              <g>
                <path class="cls-5" d="M20.5,8.21s-.29-.12-.45.05c0,0,.24.04.28.09s.18-.09.17-.14h0Z"/>
                <path class="cls-9" d="M20.35,8.38s-.03,0-.03-.02c-.02-.04-.2-.08-.27-.09h-.02s.01-.02.01-.02c.16-.17.45-.05.46-.05h0s0,0,0,0c.01.05-.08.14-.13.16,0,0-.02,0-.03,0ZM20.07,8.26c.06.01.24.04.26.09,0,0,.02,0,.03,0,.05-.02.12-.1.12-.13-.04-.01-.27-.09-.42.04Z"/>
              </g>
              <g>
                <path class="cls-5" d="M20.41,8.41s-.02-.02-.05-.04-.27-.09-.3.16c0,0-.09-.25.04-.29s.23.05.32.17M20.22,7.89s.09.21.12.22c.03.01.06-.03.06-.03,0,0-.12-.19-.18-.2h0ZM20.16,7.56s-.07-.27-.16-.2-.07.27-.07.27c0,0-.18-.2-.07-.36.1-.16.3.02.3.29Z"/>
                <path class="cls-9" d="M20.06,8.57v-.04s-.07-.17-.03-.25c.01-.02.03-.04.06-.05.02,0,.04,0,.06,0,.09,0,.18.06.27.18h-.01s-.02,0-.05-.03c-.01,0-.1-.04-.18,0-.06.02-.1.08-.11.17v.04ZM20.15,8.24s-.04,0-.06,0c-.02,0-.04.02-.05.04-.03.05-.01.15,0,.2.02-.07.05-.12.11-.14.07-.03.15-.01.19,0-.06-.07-.13-.11-.2-.11ZM20.35,8.12s0,0-.01,0c-.03-.01-.11-.18-.13-.23h0s.02-.01.02-.01c.06,0,.17.18.19.2h0s0,.01,0,.01c0,0-.02.03-.05.03ZM20.24,7.9c.04.09.09.19.11.2.02,0,.03,0,.04-.02-.03-.05-.1-.15-.15-.18ZM19.94,7.66l-.02-.02s-.18-.21-.08-.37c.04-.05.08-.08.14-.06.09.03.18.17.18.36h-.02s-.06-.18-.11-.2c-.01,0-.02,0-.03,0-.08.07-.06.26-.06.26v.03ZM19.95,7.22s-.06.02-.09.06c-.08.12.01.27.05.32,0-.06,0-.19.07-.24.02-.01.04-.02.05-.01.04.01.08.09.1.15-.02-.14-.09-.24-.17-.27,0,0-.02,0-.03,0Z"/>
              </g>
              <g>
                <path class="cls-7" d="M20.36,8.12s0,.05.03.07.09.04.09.01-.05-.15-.07-.13-.05.02-.06.06h0Z"/>
                <path class="cls-9" d="M20.47,8.22s-.04,0-.08-.03c-.04-.02-.04-.07-.04-.08h0s.03-.05.05-.05c0,0,.01,0,.02-.01,0,0,.01,0,.02,0,.03.01.06.11.06.14,0,.01,0,.02,0,.02,0,0-.01,0-.02,0ZM20.37,8.12s0,.05.03.06c.06.03.08.02.08.02,0,0,0,0,0,0,0-.03-.04-.12-.05-.13,0,0-.01,0-.02.01-.02,0-.03.01-.04.04Z"/>
              </g>
              <g>
                <path class="cls-5" d="M20.3,7.8s0-.24.13-.32c0,0,.03,0,.04-.04,0,0-.11.3-.08.45v.02"/>
                <path class="cls-9" d="M20.4,7.91h-.02s0-.02,0-.02c-.02-.11.03-.31.06-.4,0,0,0,0-.01,0-.13.08-.12.31-.12.31h-.02s0-.24.14-.33h0s0,0,0,0c0,0,.02,0,.03-.02,0,0,0-.01,0-.01h.02s0,.01,0,.02c-.02.06-.1.3-.07.43h0s0,.02,0,.02Z"/>
              </g>
              <g>
                <path class="cls-5" d="M20.33,7.52s.25-.58.56-.38c0,0-.32.07-.44.32l-.12.19v-.14s0,0,0,0Z"/>
                <path class="cls-9" d="M20.33,7.69v-.17s0,0,0,0c0-.01.16-.35.37-.41.07-.02.14,0,.21.03h.02s-.02.02-.02.02c0,0-.32.07-.43.32l-.13.22ZM20.34,7.52v.1s.1-.16.1-.16c.1-.21.35-.3.42-.32-.06-.03-.11-.04-.17-.02-.2.06-.34.37-.36.4Z"/>
              </g>
              <g>
                <path class="cls-5" d="M20.19,7.73s-.07-.39-.12-.44-.13-.11-.22-.02c0,0,.16-.16.34-.03s.14.34.14.34l-.02.27-.12-.12"/>
                <path class="cls-9" d="M20.31,7.88l-.13-.13h.01s.1.09.1.09l.02-.25s.03-.21-.13-.34c-.08-.06-.16-.06-.22-.04.04,0,.08.03.12.07.05.05.12.43.12.44h-.02c-.02-.1-.08-.39-.12-.43s-.07-.06-.11-.06h0s-.06.01-.09.04h-.01s0-.01,0-.01h0s.02-.02.03-.02c.05-.04.19-.11.32,0,.18.14.14.35.14.35l-.02.29Z"/>
              </g>
              <g>
                <path class="cls-5" d="M20.46,8.18s-.31-.64-.51-.18c0,0-.04.12,0,.16,0,0-.11-.09-.06-.32s.39-.12.49.06c.1.18.13.28.11.29-.01.01-.04-.01-.04-.01ZM21.33,8.37s.22-.51.35-.28c0,0,.04.11-.02.16,0,0-.09-.12-.17.03s-.05.13-.05.13c0,0-.08.03-.12-.04h0Z"/>
                <path class="cls-9" d="M21.42,8.42s-.07,0-.09-.05h0s0,0,0,0c0-.01.15-.34.28-.34h0s.06.02.09.07c0,0,.04.12-.02.17h0s0,0,0,0c0,0-.03-.04-.07-.04h0s-.05.02-.08.07c-.06.1-.05.12-.05.12,0,0,0,0,0,0h0v.02s0,0,0,0c0,0-.02,0-.04,0ZM21.34,8.37s.07.04.09.04c0-.01,0-.05.05-.13.03-.05.06-.07.09-.08h0s.07.03.08.04c.04-.05,0-.14,0-.14-.02-.04-.04-.05-.07-.05,0,0,0,0,0,0-.11,0-.24.29-.26.33ZM20.49,8.21s-.03-.01-.03-.02h0s-.17-.35-.33-.35h0c-.06,0-.12.05-.16.16,0,.03-.03.12,0,.15h-.01s-.12-.09-.06-.31c.02-.08.07-.12.15-.13.01,0,.02,0,.03,0,.12,0,.27.09.33.2.05.1.14.28.11.3,0,0,0,0-.02,0ZM20.47,8.18s.02.01.02,0c0,0,0-.08-.12-.28-.06-.11-.22-.2-.34-.18-.05,0-.11.03-.13.12-.03.13,0,.21.02.26,0-.05.01-.11.02-.11.05-.11.11-.17.18-.17h0c.17,0,.33.32.34.35Z"/>
              </g>
              <g>
                <path class="cls-5" d="M21.67,8.25s.12.07.08.22c0,0,.16-.34-.06-.38,0,0,.04.11-.02.16h0ZM21.68,7.9s.29.09.3.23c0,0,.05-.27-.12-.35,0,0-.2.04-.19.12Z"/>
                <path class="cls-9" d="M21.76,8.47h-.02c.04-.14-.07-.21-.07-.21h-.01s.01-.02.01-.02c.05-.05.02-.15.02-.15h0s0-.01,0-.01h0s.08.03.1.07c.06.11-.03.31-.04.32ZM21.68,8.25s.08.07.08.14c.02-.07.05-.17.01-.24-.02-.03-.04-.05-.08-.05,0,.03.02.1-.02.15ZM22,8.14h-.02c0-.13-.29-.22-.3-.22h0s0,0,0,0c-.02-.09.19-.13.19-.13h0s0,0,0,0c.17.08.12.35.12.36ZM21.69,7.89s.24.08.29.19c0-.08,0-.23-.11-.29-.05.01-.18.05-.18.1Z"/>
              </g>
              <g>
                <path class="cls-5" d="M21.81,7.48c.13-.27.28.09.28.09,0,0,.06-.28-.1-.33-.16-.05-.26.6-.26.6l-.19.05s.05-.57.33-.62h.03"/>
                <path class="cls-9" d="M21.54,7.89h0s.06-.59.34-.64h.04s.02-.01.03-.02c.02-.01.04-.02.06,0,.16.05.11.33.11.35v.03s-.02-.03-.02-.03c0,0-.08-.18-.17-.18h0s-.06.03-.09.08c-.05.17-.09.36-.09.37h0s0,0,0,0l-.2.05ZM21.88,7.26c-.24.05-.31.51-.32.6l.17-.04s.03-.2.08-.35h0s0,0,0-.01c.02-.08.05-.15.09-.19h-.02ZM21.92,7.36h0c.08,0,.14.11.17.17,0-.07.02-.25-.1-.29-.01,0-.03,0-.04,0-.04.02-.07.08-.1.15.02-.02.04-.03.07-.03Z"/>
              </g>
              <g>
                <path class="cls-5" d="M21.59,7.64s-.18-.4-.3-.44.07-.1.14-.03.21.17.2.38l-.04.09h0ZM21.41,8.19s.05-.27.19-.35.27-.05.27-.05c0,0-.17.04-.2.13-.03.09-.07.1-.07.1l-.19.17Z"/>
                <path class="cls-9" d="M21.39,8.22v-.03s.06-.28.2-.36c.14-.08.27-.05.28-.05h.04s-.04.02-.04.02c0,0-.16.04-.19.13-.03.08-.07.1-.08.1l-.21.19ZM21.81,7.79c-.05,0-.13,0-.2.06-.11.06-.16.25-.18.32l.17-.16h0s.04,0,.07-.09c.02-.07.11-.11.16-.13,0,0-.01,0-.02,0ZM21.59,7.66v-.02s-.19-.4-.3-.44c-.03-.01-.05-.02-.05-.04,0,0,0-.02.03-.03.04-.02.12-.02.17.03.01.01.02.02.03.03.08.07.18.17.17.35h0s-.05.11-.05.11ZM21.33,7.14s-.04,0-.05,0c-.01,0-.02.01-.02.01,0,0,0,.01.03.02.11.04.26.35.3.43l.03-.07c.01-.17-.09-.26-.16-.34-.01-.01-.02-.02-.04-.03-.02-.02-.06-.03-.09-.03Z"/>
              </g>
              <g>
                <path class="cls-7" d="M21.33,8.37s-.08.16-.06.19c0,0-.08.13-.05.2,0,0,.08.07.12.04,0,0,.1-.15.07-.23,0,0,.07-.1.04-.16,0,0-.1,0-.12-.04h0Z"/>
                <path class="cls-9" d="M21.32,8.82s-.1-.04-.1-.05h0c-.03-.07.03-.18.05-.21,0-.04.04-.15.06-.19v-.02s.02.02.02.02c.02.03.07.04.1.04h.02s0,0,0,0c.02.06-.03.14-.04.16.02.09-.07.23-.07.23,0,0-.02.01-.03.01ZM21.23,8.75s.08.06.11.04h0s.09-.14.07-.22h0s0,0,0,0c0,0,.06-.09.04-.14h0s-.08,0-.11-.03c-.04.08-.06.15-.05.17h0s0,.01,0,.01c0,0-.08.13-.05.19Z"/>
              </g>
            </g>
            <path class="cls-9" d="M20.92,8.08s.05.03.08.02l.02-.02h-.02s-.06,0-.08-.01v.02h0ZM20.91,8.24v.02s.09.02.14-.02v-.02c-.05.04-.14.02-.14.02h0ZM20.89,8.42v.02s.1.09.17,0h-.02c-.06.06-.15,0-.15-.01h0ZM20.46,8.44h0s.1-.03.1-.11h-.01c0,.07-.1.11-.1.11ZM20.52,8.54h0s.09,0,.1-.06h-.01c-.01.05-.09.06-.09.06h0ZM20.53,8.63h0s.1.02.13-.04h0s-.12.04-.12.04h0ZM21.26,8.57s.04.05.09.05c.02,0,.04-.01.06-.04h-.02s-.03.01-.05.01c-.04,0-.08-.04-.08-.04v.02s-.01,0-.01,0Z"/>
          </g>
          <g>
            <g>
              <path class="cls-7" d="M24.16,8.94s-.01,0-.02.01h.02ZM24.51,8.85s0,0,0,0c0,0,0-.02-.02-.03,0,0,0,0-.01,0l-.03-.06s0,0,0,0c0,0,0-.01,0-.02,0,0,0,0,0,0,0,0,0-.02,0-.03,0,0,0,0,0-.02,0,0,0-.02,0-.02,0,0,0-.01,0-.02,0-.01-.01-.03-.01-.05,0-.02,0-.03,0-.04,0-.02,0-.03,0-.04,0-.01,0-.03,0-.04,0-.01,0-.04,0-.05,0-.01,0-.02,0-.04,0,0,0,0,0-.01h0v-.06s0-.01,0-.02c0,0,0-.01,0-.02,0,0,0-.01,0-.02,0-.01,0-.03,0-.04,0,0,0,0,0-.02,0,0,0-.01,0-.02s0-.02,0-.02c0,0,0-.01,0-.02v.1s0-.17,0-.17l-.12-.06s-.01.25,0,.29c0,.04.01.27,0,.3s-.02.18-.02.18c0,0-.06.05-.08.1s-.02.07-.03.07h.06s-.04.02-.04.02c0,0,.02,0,.03,0,0,0,0,0,0,0,0,0,0,0,0,0,0,0,.02.02.03.01,0,0,.01,0,.01-.01,0,0,0-.01,0-.02,0,0,.01,0,.01,0,0,0,.02,0,.03,0,.01,0,.02-.02.03-.03,0,0,.02-.01.03-.01.01,0,.02.01.03.01,0,0,.02,0,.02,0,0,0,0-.02.01-.03h.03s.01,0,.02,0c0,0,.02,0,.02,0,0,0,0,0,.01,0,0,0,0-.01,0-.01,0,0,0-.01,0-.02h0Z"/>
              <path class="cls-9" d="M24.23,8.97s-.01,0-.01,0c0,0,0,0,0,0,0,0,0,0,0,0,0,0,0,0-.01,0,0,0-.01,0-.02,0h-.01s0,0,0,0c0,0,0,0,.02-.01l.03-.02h-.04s0,0,0,0h0s0-.01,0-.01c0,0,0,0,0,0,0-.01,0-.03.02-.06.02-.05.07-.09.08-.1,0-.02.01-.15.02-.17,0-.03,0-.26,0-.3,0-.03,0-.28,0-.29h0s.13.06.13.06h0s0,.07,0,.07h0s0,.01,0,.01c0,0,0,0,0,0,0,0,0,.02,0,.02,0,0,0,0,0,0,0,0,0,0,0,.01,0,0,0,0,0,0,0,0,0,0,0,0,0,0,0,.01,0,.02,0,0,0,.01,0,.02h0s0,.01,0,.02c0,0,0,.01,0,.02,0,0,0,0,0,0,0,0,0,0,0,0,0,0,0,0,0,.01v.06s0,0,0,0c0,0,0,0,0,0,0,.01,0,.02,0,.03,0,0,0,0,0,.01,0,.02,0,.04,0,.05,0,0,0,0,0,.01,0,0,0,.01,0,.02,0,0,0,.01,0,.02,0,0,0,.01,0,.02,0,0,0,.01,0,.01,0,0,0,.02,0,.03,0,.02,0,.03.01.05h0s0,.02,0,.02c0,0,0,0,0,.01,0,0,0,0,0,.01,0,0,0,0,0,.01,0,0,0,0,0,0,0,0,0,0,0,.01,0,0,0,.01,0,.01,0,0,0,0,0,0,0,0,0,.01,0,.02,0,0,0,0,0,0l.02.05s0,0,.01,0c0,0,0,0,0,.02,0,0,0,.01,0,.01,0,0,0,0,.01.01,0,0,0,0,0,.01h0s0,.01,0,.01c0,0,0,0,0,0,0,0-.01,0-.01,0,0,0-.01,0-.02,0h0s-.02,0-.02,0h-.02s0,.01,0,.01c0,0,0,0,0,.01,0,.01-.02.01-.03.01,0,0-.01,0-.02,0,0,0-.01,0-.02,0,0,0-.01,0-.02.01,0,0,0,0,0,.01,0,0-.02.02-.03.02,0,0-.01,0-.02,0h0s0,0,0,0c0,0,0,0,0,0,0,0,0,0,0,0,0,0-.01.01-.02.01h0ZM24.21,8.94s.01,0,.02,0c0,0,0,0,0,0,0,0,0,0,.01,0,0,0,0,0,0,0,0,0,0,0,0-.01,0,0,.01,0,.01,0h.01s.01,0,.02,0,.01,0,.02-.02c0,0,0,0,.01-.01.01,0,.02-.01.03-.01h0s.01,0,.02,0c0,0,.02,0,.02,0,0,0,0,0,.01,0,0,0,0,0,0-.01,0,0,0,0,0-.01h0s.03,0,.03,0c0,0,.01,0,.02,0,0,0,.02,0,.02,0,0,0,0,0,0,0,0,0,0,0,0,0h0s0,0,0,0h0s0-.01,0-.01h0s0,0,0,0c0,0,0-.01,0-.02,0,0,0-.01,0-.01,0,0,0,0,0,0h0s-.03-.06-.03-.06h0s0,0,0,0c0,0,0,0,0-.01,0,0,0,0,0,0,0,0,0-.01,0-.02,0,0,0,0,0,0h0s0-.01,0-.02c0,0,0,0,0-.01,0,0,0,0,0-.01,0,0,0,0,0-.01h0s-.01-.03-.01-.05c0-.01,0-.02,0-.03,0,0,0,0,0-.01,0,0,0-.01,0-.02,0,0,0-.01,0-.02s0-.02,0-.02c0,0,0,0,0-.01,0-.01,0-.04,0-.05,0,0,0,0,0-.01,0,0,0-.02,0-.03,0,0,0,0,0,0,0,0,0,0,0,0v-.06s0,0,0,0c0,0,0,0,0,0,0,0,0,0,0-.01,0,0,0,0,0-.01,0,0,0,0,0-.01h0s0-.02,0-.03h0s0-.17,0-.17l-.11-.06s0,.25,0,.28c0,.03.01.27,0,.31,0,.03-.02.17-.02.17h0s0,0,0,0c0,0-.06.05-.08.1-.01.03-.02.05-.02.06,0,0,0,0,0,0h.07s-.05.02-.05.02c0,0,0,0,.01,0,0,0,0,0,0,0,0,0,0,0,.01,0Z"/>
            </g>
            <g>
              <path class="cls-7" d="M24.26,8.94s.01,0,.02,0h0s0,0,0,0c0,0,0,0,0,0,0,0,0,0,.01,0,0,0,0,0,.01,0,0,0,.01,0,.02,0,0,0,.01,0,.02,0,0,0,0,0,.01,0,0,0,0,0,0,0,0,0,0,0,0,0,0,0,0,0,.01,0,0,0,0,0,.01,0,0,0,0,0,.01,0,0,0,0,0,0,0,0-.01.02-.02.03-.02,0,0,.02,0,.03,0,0,0,0,0,.01,0,0,0,0,0,.01,0,0,0,0,0,0,0,0,0,.02.01.03.02,0,0,.03,0,.02-.01,0-.02-.02,0-.02-.02,0,0,0-.02,0-.02,0,0,0-.01-.01-.02,0,0,0,0-.01,0,0,0,0-.02,0-.02,0,0,0,0-.01,0,0,0,0,0-.01-.01-.01-.01-.02,0-.03,0,0,0-.01-.02-.02-.03,0,0-.01-.02-.02-.02,0,0,0,.02,0,.03,0,0-.01,0-.02,0,0,0,0,0-.01.01,0,.01-.01.03-.03.03,0,0-.01,0-.02,0,0,0,0,.01-.02.01,0,0-.01,0-.02,0,0,0-.01-.01-.01-.02,0,0,0,0,0,0,0,0,0,0,0,0,0,0,0,0-.01,0,0,0,0,.01,0,.02,0,0,0,.01,0,.02,0,0,0,0-.01,0,0,0-.01.01-.02,0,0-.02.01-.05,0-.04,0,0,0,0-.01.01,0,0,0,.02,0,.03,0,.01-.02.03-.02.05,0,0,.01,0,.02,0,0,0,0,.01,0,.02,0,.01.03-.02.03,0M24.18,8.84s0,0,0,0c0,0-.01,0-.02,0,0,0-.01.01-.02.02,0,.02,0,.04-.02.04,0,0-.01,0-.02,0,0,0,0,.02,0,.03,0,0,0,0,0,.01,0,0,0,0,0,0,0,.02,0,.01.01.01h.04s.01,0,.02,0c0,0,.02,0,.02,0,0,0,0-.01,0-.02,0,0,0-.01,0-.02,0,0,0,0,.01-.02,0-.03-.02,0-.02-.04"/>
              <path class="cls-9" d="M24.37,8.97s0,0,0,0h0s0-.01-.01,0c0,0-.02.01-.03,0,0,0,0,0-.01,0h0s0,0-.01,0c0,0,0,0,0,0h0s0,0,0,0h0s0-.01-.01,0h0s0,0,0,0h-.01s0,0,0,0c0,0-.01,0-.02,0,0,0,0,0,0,0,0,0,0,0,0,0,0,0,0,0,0,0,0,0,0,0-.01,0,0,0,0,0,0,0,0,0,0-.02.01-.03,0,0,0-.01,0-.02s0,0,0-.01c0,0,0,0,0-.02,0,0,0-.01.01-.01,0,0,0,0,.01,0,0,0,0,.01,0,.02,0,0,0,.02,0,.02,0,0,0,0,0,0,0,0,0,0,0,0,0,0,0,0,.01,0,0,0,0-.01,0-.01,0,0,0,0,0-.01,0,0,0,0,0,0,0,0,0-.01,0-.01,0,0,0,0,.01,0,0,0,0,0,0,0,0,0,0,0,0,0,0,0,0,0,0,0,0,0,0,0,0,0,0,0,0,0,0,0,0,0,0,0,.01,0,0,0,0,0,0,0,0,0,0,0,0,0,0,0,.01,0,.01,0,0,0,0,0,0,0,0,0,0,0,.02-.02h0s0-.02.01-.02c0,0,0,0,0,0,0,0,0,0,0,0,0,0,0,0,0,0,0,0,0-.02,0-.02h0s0,0,0,0c0,0,.01,0,.02.02,0,0,0,.01,0,.02,0,0,0,.02.01.02h0s0,0,0,0c0,0,0,0,.01,0,0,0,0,0,0,0,0,0,0,0,0,0t0,0s0,0,0,0h0s0,0,0,0c0,0,0,0,0,.01,0,0,0,0,0,.01,0,0,0,0,.01,0,0,0,.01.01.02.02,0,0,0,0,0,.01,0,0,0,0,0,0,0,0,0,0,0,0,0,0,.01,0,.02.01,0,0,0,.01,0,.02,0,0-.03,0-.03,0,0,0,0,0-.01,0,0,0,0,0-.01,0h0s0,0,0,0c0,0,0,0,0,0,0,0,0,0,0,0,0,0-.02,0-.02,0,0,0,0,0-.01,0,0,0,0,0,0,0,0,0-.01,0-.02.02h0s0,0,0,0c0,0,0,0,0,0,0,0,0,0,0,0,0,0,0,0,0,0h0s0,0,0,0c0,0,0,0,0,0,0,0-.01,0-.01,0,0,0,0,0,0,0h0s0,0,0,0h0s0,0,0,0c0,0,0,0,0,0ZM24.35,8.95s.01,0,.02,0h0s0,0,0,0c0,0,0,0,0,0,0,0,0,0,0,0,0,0,0,0,.01,0,0,0,0,0,.01,0,0,0,0,0,0,0,0,0,0,0,.01,0,0,0,0,0,0,0,0,0,0,0,0,0,0,0,.01-.01.02-.02,0,0,0,0,0,0,0,0,.02,0,.02,0,0,0,0,0,.01,0,0,0,0,0,0,0,0,0,0,0,0,0,0,0,0,0,0,0,0,0,0,0,.01,0,0,0,.01,0,.02.01,0,0,0,0,0,0,0,0,.01,0,.02,0,0,0,0,0,0,0,0,0,0,0,0,0s-.01,0-.01-.01c0,0,0,0,0-.01s0,0,0-.01c0,0,0-.01,0-.01,0,0,0,0-.01,0,0,0,0,0,0-.02,0,0,0,0,0,0,0,0,0,0-.01,0,0,0,0,0-.01,0,0,0,0,0,0,0,0,0,0,0,0,0,0,0,0,0,0,0,0,0,0,0-.02,0,0,0-.01-.01-.02-.02,0,0,0,0,0-.01,0,0,0-.01-.01-.01,0,0,0,0,0,.01,0,0,0,.01,0,.01,0,0-.01,0-.02,0t0,0h0s-.01.03-.03.03c0,0,0,0,0,0s0,0,0,0c0,0,0,0,0,0,0,0,0,0-.02,0,0,0,0,0-.01,0,0,0,0,0,0,0,0,0,0,0,0,0h0s0,0,0,0c0,0,0,0,0,0,0,0,0,0,0,0,0,0,0,0,0,0,0,0,0,0,0,0,0,0,0,0,0,0,0,0,0,0,0,.01,0,0,0,.01-.01.02,0,0,0,0-.01,0,0,0,0,0,0,0,0,0,0,0-.01,0,0,0,0,0,0,0,0,0,0-.02,0-.03,0,0,0-.01,0-.01,0,0,0,0,0,0,0,0,0,0,0,.01,0,0,0,0,0,.01,0,0,0,.01-.01.02,0,0-.01.02,0,.02,0,0,0,0,0,0,0,0,0,0,.01,0,0,0,0,0,0,.01,0,0,0,0,0,0,0,0,0,0,0,0,0,0,0,0,.01,0h0s0,0,0,0c0,0,.01,0,.02,0h0s0,0,0,0h0s0,0,0,0c0,0,0,0,0,0,0,0,0,0,0,0,0,0,0,0,.01,0,0,0,.01,0,.02,0,0,0,0,0,.01,0ZM24.1,8.95s0,0,0,0c0,0,0,0,0-.01,0,0,0,0,0,0,0,0,0,0,0,0,0,0,0,0,0,0,0,0,0,0,0,0,0,0,0-.02,0-.02,0,0,.01,0,.02,0,0,0,0,0,0,0h0s0,0,.01-.02c0,0,0-.01,0-.02,0,0,.01-.02.02-.02h0s0,0,.01,0c0,0,0,0,0,0h0s0,0,0,0c0,0,0,0,0,0h0s0,0,0,0h0s0,0,0,0c0,0,0,0,0,0,0,0,0,0-.01.02,0,0,0,.01,0,.02,0,.01,0,.03-.02.03h0s0,0-.01,0h0s0,0,0,.02c0,0,0,0,0,0,0,0,0,0,0,.01,0,0,0,0,0,0,0,0,0,0,0,0h0s0,0,0,0h.04s0,0,0,0c0,0,0,0,.01,0h0s.01,0,.02,0c0,0,0-.01,0-.01,0,0,0,0,0,0,0,0,0,0,0-.01,0,0,0,0,0,0,0,0,0,0,0,0,0,0,0-.01,0-.01,0,0-.02,0-.01-.02h.01s0,.01,0,.01c0,0,.02,0,.01.02,0,0,0,.01,0,.01,0,0,0,0,0,0,0,0,0,0,0,0,0,0,0,0,0,.01,0,0,0,.02,0,.02,0,0-.01,0-.02,0,0,0,0,0,0,0h0s0,0-.02,0h-.04s0,0,0,0Z"/>
            </g>
          </g>
          <g>
            <g>
              <path class="cls-9" d="M24.49,8.05s-.02.07-.05.07-.05-.03-.05-.07.02-.07.05-.07c.03,0,.05.03.05.07ZM24.32,7.96s-.02.07-.05.07-.05-.03-.05-.07.02-.07.05-.07.05.03.05.07Z"/>
              <path class="cls-9" d="M24.44,8.12s-.06-.03-.06-.08.03-.08.06-.08.06.03.06.08-.03.08-.06.08ZM24.44,7.99s-.04.03-.04.06.02.06.04.06.04-.03.04-.06-.02-.06-.04-.06ZM24.27,8.04s-.06-.03-.06-.08.03-.08.06-.08.06.03.06.08-.03.08-.06.08ZM24.27,7.91s-.04.03-.04.06.02.06.04.06.04-.03.04-.06-.02-.06-.04-.06Z"/>
            </g>
            <g>
              <path class="cls-9" d="M24.41,7.99s-.02.07-.05.07-.05-.03-.05-.07.02-.07.05-.07.05.03.05.07Z"/>
              <path class="cls-9" d="M24.36,8.06s-.06-.03-.06-.08.03-.08.06-.08.06.03.06.08-.03.08-.06.08ZM24.36,7.93s-.04.03-.04.06.02.06.04.06.04-.03.04-.06-.02-.06-.04-.06Z"/>
            </g>
            <g>
              <path class="cls-9" d="M24.32,8.05s-.02.07-.05.07-.05-.03-.05-.07.02-.07.05-.07.05.03.05.07Z"/>
              <path class="cls-9" d="M24.27,8.13s-.06-.03-.06-.08.03-.08.06-.08.06.03.06.08-.03.08-.06.08ZM24.27,7.99s-.04.03-.04.06.02.06.04.06.04-.03.04-.06-.02-.06-.04-.06Z"/>
            </g>
            <g>
              <path class="cls-9" d="M24.4,8.1s-.02.07-.05.07-.05-.03-.05-.07.02-.07.05-.07.05.03.05.07Z"/>
              <path class="cls-9" d="M24.35,8.18s-.06-.03-.06-.08.03-.08.06-.08.06.03.06.08-.03.08-.06.08ZM24.35,8.04s-.04.03-.04.06.02.06.04.06.04-.03.04-.06-.02-.06-.04-.06Z"/>
            </g>
          </g>
          <g>
            <path class="cls-5" d="M24.43,7.37s.52-.8,1.07.03c0,0,0,.08-.05.17v-.07s-.05.01-.05.01v-.04s-.07,0-.07,0l.02-.09-.07.06v-.06s-.07.08-.07.08v-.17s-.07.15-.07.15v-.1s-.02.05-.02.05l-.02-.06-.03.06-.04-.03v.04l-.07-.06-.02.08-.03-.09v.06s-.04-.07-.04-.07v.08s-.11-.05-.11-.05l.02.07-.05-.04v.04s-.06-.02-.06-.02v.05s-.07-.02-.07-.02v.04s-.09-.02-.09-.02l.04.05v.02s.55-.2.59.57l-.1.06.03-.06-.03-.02-.08-.07.02-.1h-.03s0-.05,0-.05h-.01s-.03-.05-.03-.05v.02s-.03-.07-.03-.07l-.02.05v-.11s-.05.07-.05.07v-.04s-.02.03-.02.03l-.05-.06v.04s-.03-.03-.03-.03v.04s-.07-.05-.07-.05v.04l-.03-.03v.02s-.09-.05-.09-.05v.04s-.05-.04-.05-.04v.04s.49.32.34.84l-.03.07v-.17s-.06.09-.06.09l.03-.2-.03.04v-.08s-.05.08-.05.08v-.09s-.03.03-.03.03l-.03-.13-.02.06-.04-.15-.03.06-.02-.13-.02.08-.06-.11v.05s-.04-.09-.04-.09l-.02.03s-.09,0-.12-.03-.11.15-.11.15v-.11s-.02.07-.02.07v-.07l-.06.22v-.15s-.05.13-.05.13v-.04s-.02.06-.02.06l-.02-.02-.02.06-.03-.02v.08l-.03-.04-.02.12v-.05s-.01.06-.01.06l-.02-.03-.02.12-.03-.05v.09s0,.07,0,.07l-.04-.02v.11s-.13-.3.04-.59c.17-.29.41-.36.41-.36l-.02-.03v-.03s-.14.08-.14.08v-.05s-.03.04-.03.04v-.05s-.03.05-.03.05v-.02s-.04.06-.04.06l-.02-.08-.02.1-.02-.07-.05.15v-.11l-.04.11v-.12s-.04.14-.04.14v-.13l-.04.13-.03-.12-.02.12-.03-.09-.03.14-.04-.12-.02.19-.03-.07v.13s-.04-.08-.04-.08l.03.17-.04-.07v.11s-.05-.12-.05-.12v.14s-.03-.05-.03-.05v.05s-.03-.53.3-.64c.33-.1.55.03.55.03l-.13-.11v-.04s-.03,0-.03,0l.02-.04h-.1s.03-.04.03-.04h-.07s0-.02,0-.02l-.05.04.02-.05-.07.05v-.07s-.04.06-.04.06l-.02-.06-.15.16.04-.17-.03.04v-.04s-.05.07-.05.07v-.05s-.03.06-.03.06v-.07s-.05.07-.05.07l-.03-.07v.09s-.04-.05-.04-.05l-.03.07-.04-.04v.04s-.08-.04-.08-.04l.02.06-.06-.05v.08s-.05-.04-.05-.04l-.02.1-.02-.1-.02.08s.29-.83,1.03-.29c0,0,.08.09.1.15s0,.01,0,.01v-.57s.01.25.01.25l.02-.09v.13s.07-.18.07-.18c0,0-.09.3-.06.41,0,0,.03-.34.14-.39l-.1.25h.03s-.02.05-.02.05h.03l-.03.08-.02.04.02.04.03-.03h0Z"/>
            <path class="cls-9" d="M23.76,8.65s-.15-.31.03-.6c.15-.25.34-.34.4-.36l-.02-.02h0s-.14.07-.14.07v-.04s-.03.03-.03.03v-.04s-.03.04-.03.04v-.02s-.04.06-.04.06l-.02-.07-.02.09-.02-.07-.04.12h-.02v-.05l-.03.1v-.1s-.03.08-.03.08h-.02v-.07l-.03.1-.02-.11-.02.11-.03-.1-.03.14-.04-.12-.02.18-.02-.06v.09s-.02,0-.02,0l.02.09h-.02s-.02-.02-.02-.02v.06s0,0,0,0l-.04-.08v.13s-.04-.06-.04-.06v.03s-.03,0-.03,0c0,0-.01-.54.32-.65.23-.07.41-.03.49,0l-.08-.07v-.03s-.04,0-.04,0l.02-.04h-.1s.03-.03.03-.03h-.06s0,0,0,0l-.06.05.02-.05-.05.04v-.05s-.03.05-.03.05l-.02-.07-.16.18.04-.16h0v.02s-.02-.03-.02-.03l-.04.07v-.04s-.03.06-.03.06l-.02-.08-.03.06-.03-.06v.09s-.04-.05-.04-.05l-.03.06-.03-.04v.03s-.02,0-.02,0l-.05-.03.02.07-.07-.06-.02.09-.03-.04-.03.12-.02-.1s-.01.04-.01.04h-.02s.03-.12.03-.12v.02c.06-.11.19-.3.39-.37.18-.05.39,0,.62.16,0,0,.06.06.09.12v-.52s0,0,0,0l.02.19v-.03s.03,0,.03,0v.08s.05-.13.05-.13h.02s-.05.19-.06.32c.02-.11.06-.27.14-.3h.02s-.1.24-.1.24h.03s-.02.05-.02.05h.03l-.05.13v.02s.03-.02.03-.02c.01-.02.24-.35.54-.35h0c.19,0,.38.13.55.38h0s0,.09-.05.18v.02s-.03-.08-.03-.08h-.03s0-.03,0-.03h-.06s.02-.08.02-.08l-.06.06v-.06s-.06.08-.06.08v-.16s-.05.11-.05.11h-.02s0-.07,0-.07l-.02.03-.02-.05-.02.05-.03-.03v.04l-.07-.07-.03.1-.03-.08v.06s-.04-.07-.04-.07v.05s-.02,0-.02,0l-.09-.04.03.08-.05-.04v.03s-.07-.02-.07-.02v.05s-.07-.02-.07-.02v.04s-.08-.01-.08-.01l.03.03h0c.06-.01.22-.04.36.05.14.09.21.27.22.54h0s0,0,0,0l-.13.07.04-.08-.02-.02-.09-.08.02-.09h-.02s0-.04,0-.04h0s0,0,0,0l-.03-.05v.03s-.04-.07-.04-.07l-.03.05v-.11s-.05.07-.05.07v-.04s-.01.01-.01.01l-.04-.06-.02.04-.02-.03v.03s-.06-.05-.06-.05v.04l-.04-.04v.02s-.02,0-.02,0l-.07-.04v.05s-.05-.04-.05-.04v.02c.05.04.49.36.34.84l-.05.11v-.18s-.04.06-.04.06h-.02s.03-.17.03-.17l-.03.03v-.07s-.04.07-.04.07l-.02-.09-.02.02-.03-.12-.02.05-.04-.15-.03.07-.02-.11v.05s-.07-.11-.07-.11v.05s-.05-.11-.05-.11v.02s-.02,0-.02,0c0,0-.1,0-.13-.03h0s-.06.07-.09.15h-.02s0-.06,0-.06l-.03.06v-.05l-.04.15h-.02s0-.1,0-.1l-.03.11v-.04s-.02.04-.02.04l-.02-.02-.02.06-.03-.02v.09l-.03-.05-.03.14v-.02s0,.01,0,.01l-.03-.04-.02.13-.03-.05v.06s.01.09.01.09l-.04-.02v.09s0,0,0,0ZM24.78,8.39v.17s.02-.03.02-.03c.15-.51-.34-.82-.35-.83h0s.02-.07.02-.07l.04.04v-.04s.09.05.09.05l.02-.02.02.02v-.04l.06.06.02-.04.02.03v-.04s.06.06.06.06l.02-.04v.04s.04-.07.04-.07v.11s.03-.04.03-.04l.02.07v-.02s.04.06.04.06h.02s0,.05,0,.05h.03s-.03.1-.03.1l.08.07.03.02-.02.04.07-.04c-.01-.26-.09-.43-.22-.51-.16-.11-.37-.04-.37-.04h-.02s.02-.03.02-.03l-.05-.06.11.02v-.04s.06.02.06.02v-.05s.06.02.06.02v-.05s.04.04.04.04l-.02-.06.11.05v-.1s.04.08.04.08v-.07s.05.09.05.09l.02-.07.06.06v-.04l.04.04.03-.07.02.07.04-.06v.1s.07-.15.07-.15v.19s.07-.09.07-.09v.07s.06-.06.06-.06l-.02.1h.06s0,.04,0,.04h.03s.01.04.01.04c.03-.07.03-.13.03-.14-.17-.25-.34-.37-.53-.37,0,0,0,0,0,0-.3,0-.52.34-.53.34h0s-.04.04-.04.04l-.03-.06.02-.05.03-.07h-.03l.02-.05h-.03c-.01.07-.02.13-.02.13h-.02c-.02-.06,0-.18.02-.28l-.02.06h-.02s0-.04,0-.04h-.02s0-.03,0-.03v.35s.02.03,0,.03c0,0,0,0-.02-.04-.02-.06-.1-.14-.1-.14-.22-.16-.42-.21-.6-.16-.21.07-.34.27-.39.38v.04s.03-.08.03-.08l.03.04v-.08s.06.04.06.04l-.02-.05.08.04v-.05s.05.05.05.05l.03-.07.02.04v-.09s.05.08.05.08l.04-.08v.06s.03-.06.03-.06v.07s.05-.07.05-.07v.04s.05-.05.05-.05l-.04.18.14-.15.02.06.04-.07v.08s.08-.06.08-.06l-.02.04.03-.03v.04h.09s-.03.03-.03.03h.09s-.02.04-.02.04h.05l-.02.04.12.11v.02s-.23-.13-.55-.03c-.25.08-.3.41-.31.56l.02.03v-.15s.05.11.05.11v-.1s.03.06.03.06l-.02-.13h.02s.02.03.02.03v-.09s.02,0,.02,0v.04s.04-.19.04-.19l.04.13.03-.14.03.09v-.08s.03,0,.03,0l.02.09.03-.1h.02v.03-.05s.03,0,.03,0v.08s.03-.07.03-.07h.02v.05l.04-.12.02.06.02-.1.02.1.03-.06v.02s.03-.05.03-.05v.06s.05-.04.05-.04v.05s.13-.07.13-.07v.04s.04.03.04.03h-.01s-.23.08-.4.37c-.11.19-.09.38-.06.49v-.04s.03.02.03.02v-.05s0-.12,0-.12l.04.06.02-.12.02.03v-.03h.02s0,0,0,0l.02-.11.02.03v-.07l.03.03.02-.06.02.02v-.08s.03.05.03.05l.02-.1h.02s0,.1,0,.1l.05-.17h.02v.03-.03s.03,0,.03,0v.05s.05-.11.08-.11c0,0,.01,0,.02,0,.02.02.08.03.11.03l.03-.04.03.08v-.04s.06.11.06.11v-.05s.03,0,.03,0v.1s.04-.06.04-.06l.04.15.02-.06.03.14.02-.03v.08s.06-.08.06-.08v.09s.04-.04.04-.04l-.03.17.03-.07ZM24.48,6.97s-.08.14-.09.22l.09-.22Z"/>
          </g>
        </g>
        <path class="cls-9" d="M24.35,7.71h.01s.05-.04.13.03v-.02c-.08-.09-.14-.01-.14-.01ZM24.33,7.43v.02s.03-.02.03-.02l-.02.05.05-.02-.07.1h.02s.11-.14.11-.14l-.07.02.03-.05-.06.03v-.08s0,0,0,0v.1s-.01,0-.01,0ZM24.23,7.43l.02.06-.04-.02.11.21v-.02s0,.06,0,.06h.02s.05-.12.05-.12h-.02s-.04.04-.04.04l-.07-.13h.03s-.03-.06-.03-.06l.04.03v-.08h-.02v.04l-.07-.05v.03s.01,0,.01,0ZM24.16,7.7v.02s.06-.02.08,0c.02.01.03.04.03.04h.02s0-.04-.04-.06c-.02-.01-.05-.01-.09,0ZM24.25,7.92l-.02-.11h.02s.02.11.02.11h-.02ZM24.39,7.9l-.03-.09h.02s.03.08.03.08h-.02ZM24.44,7.96l-.02-.09h.02s.02.08.02.08h-.02Z"/>
        <g>
          <path class="cls-5" d="M20.46,10.6s-.09-.04-.13-.01c-.04.03-.03.08-.07.08,0,0,.13.03.16,0,.03-.04.03-.05.03-.05M20.47,10.64s-.06.08-.04.13.06.05.05.09c0,0,.06-.14.03-.18l-.04-.05M20.38,10.41s-.09.03-.1.08c-.01.05.02.08,0,.11,0,0,.12-.07.12-.12v-.06M20.43,10.44s.04-.09.02-.14c-.03-.05-.07-.04-.07-.08,0,0-.04.14,0,.18l.04.04M20.34,10.41s0-.11-.04-.13-.08,0-.09-.04c0,0,.03.15.07.16l.06.02M20.5,10.58s.1-.04.11.08,0,.08,0,.08c0,0-.05-.13-.11-.15h0s0-.01,0-.01Z"/>
          <path class="cls-9" d="M20.5,10.87h-.02s0-.03-.02-.04c-.01-.01-.03-.03-.04-.05-.02-.05.04-.14.04-.14h.01s0,0,0,0l.04.05s-.02.17-.03.18ZM20.48,10.65s-.05.09-.03.12c0,.02.02.03.03.04,0,0,.01.01.02.02.02-.05.03-.11.02-.14l-.03-.04ZM20.6,10.76s0,0-.01-.01c-.01-.03-.06-.13-.11-.14h-.01s.02-.03.02-.03c0,0,.05-.02.08,0,.02.02.04.04.04.08,0,.09,0,.09,0,.1,0,0,0,0,0,0ZM20.5,10.59s.08.09.09.13c0-.01,0-.03,0-.05,0-.03-.01-.06-.03-.07-.02-.01-.05,0-.06,0ZM20.36,10.69s-.09-.01-.1-.01v-.02h0s.01,0,.02-.02c0-.02.02-.03.04-.05.04-.04.13,0,.14.01v.02s0,0,0,0c0,0,0,.01-.04.05-.01.02-.04.02-.07.02ZM20.29,10.66s.11.01.12,0c.02-.03.03-.04.03-.05-.03-.01-.09-.03-.11-.01-.02.01-.02.03-.03.04,0,0,0,.02-.01.02ZM20.27,10.61v-.02s0-.02,0-.04c0-.02,0-.04,0-.06,0-.03.04-.05.06-.07h-.05s-.07-.17-.08-.18h.02s.01.01.03.01c.02,0,.04,0,.06.02.05.03.04.14.04.14h-.02s0,0,0,0c.01,0,.03-.01.04-.02-.03-.05,0-.17,0-.18h.02s0,.02.02.03c.01,0,.03.02.04.04.03.05-.01.14-.02.15h-.01s0,0,0,0l-.02-.02v.05c0,.05-.11.12-.12.13ZM20.37,10.42s-.08.04-.09.07c0,.02,0,.04,0,.06,0,0,0,.02,0,.02.04-.03.09-.07.09-.1v-.06ZM20.38,10.26c0,.05-.02.12,0,.14l.04.04s.03-.09.01-.12c-.01-.02-.03-.03-.04-.04,0,0-.01,0-.02-.01ZM20.22,10.26c.01.05.03.12.06.12h.05s0-.09-.04-.1c-.02-.01-.03-.01-.05-.02,0,0-.02,0-.02,0Z"/>
        </g>
        <path class="cls-9" d="M20.47,10.64s0,.06.01.09h.01s-.01-.09-.01-.09c0,0,.03-.2.03-.2h-.01s-.03.2-.03.2h0Z"/>
        <path class="cls-9" d="M20.38,10.61h0s.12-.02.12-.03h0s-.06.04-.1.03ZM20.51,10.5l-.23-.13v-.02s.23.13.23.13v.02Z"/>
        <path class="cls-9" d="M20.34,10.47v-.02s.03-.05.03-.05v.02s-.03.05-.03.05ZM20.42,10.45l-.05-.11h.02s.05.1.05.1h-.02ZM20.49,10.58v.02c.06,0,.08.04.08.04h.02s-.03-.07-.1-.06h0Z"/>
        <g>
          <g>
            <path class="cls-3" d="M21.52,10.64c.08-.05.09-.21.09-.21-.02.06-.16.12-.16.12.1-.07.23-.38.23-.38-.03.11-.3.21-.47.31s-.08.41-.08.41c-.05-.04-.14-.2-.16-.34-.02-.14-.07-.2-.19-.22s-.19.13-.19.13l-.17.1h.18s.13.05.13.16-.11.55.07.79c.13.17.6.27.6.27"/>
            <path class="cls-9" d="M21.39,11.79s-.48-.1-.61-.27c-.15-.2-.11-.52-.09-.7,0-.04.01-.08.01-.1,0-.09-.1-.14-.12-.14h-.22s.21-.13.21-.13c.01-.02.07-.13.18-.13,0,0,.01,0,.02,0,.12.02.18.08.2.23.01.11.08.24.12.3-.02-.09-.04-.29.1-.38.05-.03.12-.06.18-.1.12-.06.25-.13.28-.19,0-.01,0-.02,0-.02h.02s0,.02,0,.03c-.02.05-.09.22-.17.32.04-.02.07-.05.08-.08h.02s-.02.17-.1.22v-.02s.05-.1.06-.15c-.05.04-.12.08-.13.08v-.02c.05-.04.13-.19.17-.29-.06.05-.15.09-.24.14-.06.03-.12.06-.18.09-.16.1-.08.39-.08.4v.04s-.02-.02-.02-.02c-.05-.04-.15-.21-.16-.35-.02-.13-.06-.19-.18-.2,0,0-.01,0-.02,0-.1,0-.16.12-.16.12h0s0,0,0,0l-.14.08h.14s.13.06.13.17c0,.02,0,.06-.01.1-.02.17-.06.49.08.68.12.16.59.26.59.26v.02Z"/>
          </g>
          <g>
            <path class="cls-3" d="M21.18,10.97s.04-.2.15-.19.15-.15.22-.17.43-.13.47-.32c0,0-.03.31-.36.47,0,0,.26-.1.29-.16,0,0-.12.28-.4.32,0,0,.27-.02.31-.1,0,0-.12.18-.32.2,0,0,.18.08.23.01,0,0-.1.13-.22.14h.03s-.12.16-.25.06-.13.03-.13.03"/>
            <path class="cls-9" d="M21.42,11.28s-.07-.01-.1-.04c-.04-.03-.07-.04-.09-.03-.02,0-.02.04-.02.05h-.02s0-.06.04-.07c.03-.01.07,0,.11.04.03.03.07.03.1.03.05,0,.1-.04.12-.07h-.01s0-.03,0-.03c.07,0,.13-.05.17-.09-.07,0-.17-.04-.18-.04l-.04-.02h.04c.1-.02.19-.07.24-.12-.09.03-.21.04-.23.05v-.02c.19-.03.3-.17.36-.25-.08.05-.22.11-.25.11v-.02c.19-.09.28-.25.32-.35-.1.12-.32.19-.41.22h-.02s-.04.04-.07.07c-.04.05-.08.1-.15.1,0,0,0,0-.01,0-.1,0-.14.18-.14.18h-.02s.04-.2.16-.2c0,0,0,0,.01,0,.06,0,.1-.05.13-.09.02-.03.05-.06.08-.07h.02c.27-.09.42-.2.44-.31h.02s-.03.23-.24.4c.07-.03.13-.07.15-.09h.02s-.08.19-.26.29c.05-.01.1-.03.13-.05,0-.01.01-.02.01-.02h.02s0,.03-.02.03c-.03.04-.13.14-.27.18.06.02.14.04.17,0,0,0,0,0,0,0h.02s0,.02,0,.02c-.02.02-.09.1-.18.13h0s-.01.02-.01.02c0,0-.06.08-.14.09,0,0-.01,0-.02,0Z"/>
          </g>
          <g>
            <path class="cls-3" d="M21.44,11.27s.15.28.17.43c0,0,.29.35.4.37,0,0-.05.02-.14-.06,0,0,.08.09.09.09s-.06,0-.08-.03c0,0,.03.05.05.06h-.02s-.04-.01-.06-.03,0,.04,0,.04c0,0-.05-.01-.06-.03s0,.04,0,.04h-.04s-.03,0-.03,0c0,0,0,.02-.02,0-.02-.02-.05,0-.05,0,0,0-.02.02-.04,0s-.06.06-.06.06l-.19-.5"/>
            <path class="cls-9" d="M21.56,12.26l-.2-.53h.02s.18.47.18.47c.02-.03.04-.05.05-.05,0,0,.01,0,.02,0h0s.01,0,.02,0h0s.04-.02.06,0h0s0,0,0,0h0s.03-.03.03-.03h.02s0-.02,0-.03c0,0,.01,0,.02,0,0,0,.02.01.04.02,0-.03,0-.04,0-.04,0,0,.01,0,.02,0,0,0,.02,0,.02.01,0,0-.01-.02-.02-.02h0s.02-.02.02-.02c0,0,0,0,0,0,0,0,0,0,.02,0-.02-.02-.04-.04-.06-.06l.02-.02s.04.03.05.04c-.13-.1-.31-.32-.32-.33h0s0,0,0,0c-.01-.14-.16-.42-.16-.42h.02s.15.27.17.42c.08.1.3.35.39.36h.04s-.04.02-.04.02c0,0-.03.01-.07,0,0,0,.01.01.02.01,0,0,.01,0,.01.01h0s0,.01,0,.01c0,0-.02,0-.04,0,0,0,.01.01.01.01v.02s-.03,0-.03,0c0,0-.03,0-.05-.02,0,0,0,.02,0,.02v.02s-.02,0-.02,0c0,0-.02,0-.04-.02,0,0,0,0,0,0v.02s-.05-.01-.05-.01h-.02s0,.03-.01.03c0,0-.02,0-.03,0,0,0-.03,0-.04,0,0,0-.02.01-.03.01h0s-.01,0-.01,0c0,0-.03.03-.04.06v.02Z"/>
          </g>
        </g>
        <path class="cls-9" d="M21.62,12.18l-.24-.5h.03s.24.49.24.49h-.03ZM21.83,12.15l-.41-.5.02-.02.41.5-.02.02ZM21.93,12.1l-.47-.48.02-.02.47.48-.02.02ZM20.76,10.49s-.03-.06-.06-.04-.04.03-.05.03c0,0,.03,0,.04-.01s.04,0,.06.03h0ZM20.59,10.46l.02.04s-.02.06-.02.06h.01s.02-.06.02-.06c0,0-.02-.04-.02-.04h-.01Z"/>
        <path class="cls-9" d="M20.75,10.48s-.02.03-.05.02h-.03s.04,0,.04,0c.02,0,.04,0,.04-.02h0Z"/>
        <path class="cls-9" d="M20.74,10.48s-.03-.03-.05-.02c0,0,.03-.01.05.02h0Z"/>
        <path class="cls-9" d="M20.74,10.48s-.03.02-.07,0h0s0,0,0,0c0,0,.04.02.06,0h0Z"/>
        <circle class="cls-9" cx="20.71" cy="10.47" r="0"/>
        <path class="cls-9" d="M20.73,11.4s-.02.05-.01.08c.01.03.07.05.08.09s.03.04.05.03h.03s-.11-.07-.14-.18v-.02s-.01,0-.01,0Z"/>
        <g>
          <g>
            <g>
              <path class="cls-7" d="M24.44,10.38s.21-.3.39-.22.31.12.31.12c0,0,0,.2-.09.2s-.19-.2-.28-.14c-.09.06-.16.14-.17.17s-.24.03-.15-.13h0Z"/>
              <path class="cls-9" d="M24.53,10.53s-.08-.01-.11-.04c-.02-.03-.02-.06,0-.11h0s.21-.31.4-.23c.18.08.3.12.3.12h0s0,.14-.05.19c-.01.01-.03.02-.05.02-.05,0-.09-.04-.13-.08-.05-.05-.1-.09-.15-.06-.09.06-.16.14-.17.17,0,0-.01.01-.03.02-.01,0-.02,0-.04,0ZM24.44,10.38s-.02.07,0,.1c.03.04.09.04.13.03.02,0,.02,0,.02,0,0-.03.08-.12.17-.18.05-.04.11.02.16.06.04.04.08.08.12.08.02,0,.03,0,.04-.02.04-.04.05-.15.05-.18-.02,0-.14-.05-.3-.12-.18-.08-.38.21-.39.22Z"/>
            </g>
            <g>
              <g>
                <path class="cls-7" d="M23.65,11.84s-.06.07-.03.08c.03.02.08,0,.08-.03,0-.02-.03-.06-.05-.06Z"/>
                <path class="cls-9" d="M23.64,11.94s-.02,0-.03,0c0,0-.01,0-.01-.02,0-.03.03-.07.04-.08h0s.01,0,.02,0c.02,0,.04.04.04.06,0,.01,0,.02-.02.03-.01,0-.03.01-.04.01ZM23.65,11.85s-.04.05-.03.06c0,0,0,0,0,0,.01,0,.04,0,.05,0,0,0,.01,0,.01-.01,0-.02-.02-.04-.03-.05Z"/>
              </g>
              <g>
                <path class="cls-7" d="M23.6,11.9s-.11-.07-.19.09-.15.42-.2.45.48-.25.48-.38c0,0,.03-.16-.02-.15-.05,0-.06,0-.07-.02h0Z"/>
                <path class="cls-9" d="M23.2,12.46h0s0-.02,0-.02c.02-.02.06-.11.1-.2.03-.08.07-.17.1-.24.03-.06.07-.1.11-.11.05-.01.09.01.09.01h0s0,.02.03.02c0,0,.02,0,.03,0,0,0,.02,0,.03.01.03.03,0,.14,0,.15,0,.12-.46.38-.49.39h0ZM23.55,11.9s-.02,0-.03,0c-.04.01-.07.04-.1.1-.04.07-.07.16-.1.24-.03.08-.05.14-.08.18.11-.06.44-.26.44-.35,0-.04.02-.12,0-.14,0,0,0,0-.01,0-.02,0-.04,0-.05,0-.02,0-.02,0-.03-.02,0,0-.02-.01-.05-.01Z"/>
              </g>
            </g>
            <g>
              <path class="cls-7" d="M23.61,11.92s-.11.03-.13.2c-.02.17-.18.26-.18.27M25.14,10.27s-.17.06-.14.19"/>
              <path class="cls-9" d="M23.3,12.39h0c.05-.04.16-.13.18-.27.02-.17.13-.2.14-.21h0s-.11.04-.13.21c-.02.15-.14.24-.19.27ZM24.99,10.47c-.03-.13.14-.2.14-.2h0s-.16.07-.13.2h-.01Z"/>
            </g>
          </g>
          <g>
            <path class="cls-6" d="M23.85,10.65s0-.44.33-.42c.06,0,.03.09.03.09,0,0,.07-.05.1.03,0,0,.1-.05.11.06,0,0,.11-.02.1.08,0,0,.08-.02.07.05,0,0,.09-.04.08.06,0,0,.1-.07.08.06,0,0,.1-.08.13.05.03.13-.1.4-.23.47"/>
            <path class="cls-9" d="M24.67,11.18h0c.13-.08.26-.35.23-.47,0-.04-.03-.06-.05-.07-.04-.01-.08.02-.08.02h-.01s0,0,0,0c0-.04,0-.06-.01-.07-.02-.01-.05,0-.06.02h-.01s0,0,0,0c0-.03,0-.05-.02-.05-.02-.02-.05,0-.06,0h0s0,0,0,0c0-.02,0-.03-.01-.04-.02-.02-.05,0-.05,0h0s0,0,0,0c0-.02,0-.04-.01-.06-.02-.03-.07-.02-.08-.02h0s0,0,0,0c0-.03-.01-.05-.03-.06-.03-.02-.07,0-.07,0h0s0,0,0,0c0-.02-.02-.04-.04-.04-.03,0-.05.01-.05.01h-.02s0,0,0,0c0,0,.01-.04,0-.06,0,0-.01-.01-.03-.02-.08,0-.14.02-.19.07-.12.11-.13.34-.13.35h-.01s0-.24.13-.35c.05-.05.11-.07.18-.07,0,0,.01,0,.02,0,.02,0,.03,0,.04.02.01.02,0,.04,0,.06.01,0,.03-.01.05,0,.02,0,.03.02.04.04.01,0,.05-.02.08,0,.02.01.03.03.04.06.02,0,.06,0,.08.02.01.01.02.03.02.06.01,0,.04,0,.05.01.01,0,.02.02.02.04.01,0,.04,0,.06,0,.01.01.02.03.02.05.01,0,.04-.02.06,0,.02,0,.02.03.02.07.02,0,.05-.02.08-.01.03,0,.05.03.06.07.04.13-.1.4-.23.47Z"/>
          </g>
        </g>
        <path class="cls-9" d="M24.75,10.67s.04.34-.13.46h0c.18-.12.14-.46.14-.47h-.01ZM24.54,11.04h0c.11-.11.13-.43.13-.44h-.01s-.02.33-.13.44ZM24.44,10.97h.01c.01-.2.15-.42.15-.42h0s-.14.22-.16.42h0ZM24.36,10.91h.01c.02-.24.16-.41.16-.41h0s-.15.17-.17.41h0ZM24.25,10.83h.01c.01-.28.18-.42.18-.42h0s-.17.13-.18.42h0ZM24.14,10.76h.01c0-.25.17-.41.17-.41h0s-.18.15-.18.41h0ZM23.96,10.67h.01c.03-.27.25-.35.26-.35h0s-.23.06-.26.35h0Z"/>
        <g>
          <path class="cls-5" d="M23.66,11.17s-.05-.4.16-.53c0,0,.04,0,.06.05,0,0,.12-.05.12.05,0,0,.06-.05.07.02,0,0,.12-.03.1.07,0,0,.1-.03.1.07,0,0,.1-.04.09.04,0,0,.11-.03.08.07,0,0,.14-.02.1.09,0,0,.1-.03.08.06,0,0,.13.03.07.12s-.21.23-.36.29M23.54,11.58s-.09-.34.08-.42c0,0,.03,0,.04.03,0,0,.04-.05.07,0,0,0,.09-.04.11.03,0,0,.06-.05.09.03,0,0,.05-.03.05.04,0,0,.08-.03.08.04,0,0,.07-.03.06.05,0,0,.11.02.08.08,0,0,.1.03.06.07,0,0,.11-.01.05.07,0,0,.08-.03.03.07s-.19.21-.29.22M23.65,11.85s-.19-.2-.1-.26c0,0,.04.01.05.06,0,0,.05-.07.07,0,0,0,.07-.03.07.03l.05.04s.06,0,.05.04c0,0,.07,0,.07.03,0,0,.06,0,.05.05,0,0,.1.02.06.08,0,0-.18.04-.31-.02,0,0-.07-.03-.07-.04h0Z"/>
          <path class="cls-9" d="M23.89,11.93c-.05,0-.12,0-.17-.03-.01,0-.07-.03-.08-.05-.01-.01-.13-.15-.13-.23,0-.02,0-.03.02-.04h0s-.09-.34.08-.43c0,0,.02,0,.03,0,0,0,0,0,0,0,0-.08-.02-.41.17-.52,0,0,.04-.01.07.05.02,0,.06-.02.09,0,.02,0,.03.03.03.05.01,0,.03-.01.05-.01.01,0,.02.02.03.03.02,0,.07,0,.09.02.01.01.02.03.01.06.02,0,.05,0,.07.01.01.01.02.03.02.05.02,0,.05-.01.07,0,.01,0,.02.02.01.04.02,0,.05,0,.07.01.01.01.02.03.01.06.02,0,.07,0,.09.03.01.01.01.03,0,.06.02,0,.05,0,.07.01.01.01.01.03,0,.05.02,0,.07.02.08.06,0,.02,0,.04-.01.07-.06.1-.21.23-.36.29,0,0,0,0,0,0,.01.01,0,.04,0,.07-.05.1-.19.2-.29.22,0,.01,0,.03-.01.04h0s-.07.02-.14.02ZM23.55,11.59s-.02.02-.02.03c0,.08.12.22.12.22h0s.04.03.07.04c.12.05.28.02.3.02,0-.01.01-.02,0-.03,0-.02-.05-.03-.06-.04h0s0,0,0,0c0,0,0-.02,0-.02-.01-.02-.04-.02-.04-.02h0s0,0,0,0c0,0,0-.01,0-.02-.01-.01-.04,0-.05,0h0s0,0,0,0c0,0,0-.02,0-.02,0-.01-.03-.01-.04-.01h0s-.06-.05-.06-.05h0s0-.02,0-.02c-.01-.01-.04,0-.05,0h0s0,0,0,0c0-.01-.01-.03-.02-.03,0,0,0,0,0,0-.01,0-.03.02-.04.03h0s0,0,0,0c-.01-.03-.04-.05-.05-.05ZM23.98,11.83s.05.01.06.03c.1-.01.24-.12.28-.22.01-.03.02-.05,0-.06,0,0-.03,0-.04,0h-.02s.01,0,.01,0c.01-.02.02-.04.01-.04,0-.02-.04-.02-.06-.01h-.02s0,0,0,0c0,0,0-.01,0-.02,0-.02-.05-.04-.06-.04h0s0,0,0,0c0-.01,0-.02,0-.03-.01-.03-.08-.04-.08-.04h0s0,0,0,0c0-.02,0-.04,0-.05-.01,0-.03,0-.04,0h0s0,0,0,0c0-.02,0-.03-.02-.04-.02-.01-.05,0-.05,0h0s0,0,0,0c0-.02,0-.03-.01-.03-.01,0-.03,0-.03,0h0s0,0,0,0c0-.02-.02-.04-.03-.04,0,0,0,0,0,0-.02,0-.04.02-.04.02h0s0,0,0,0c0-.02-.01-.03-.02-.03-.03-.01-.07,0-.07,0h0s0,0,0,0c0-.01-.01-.02-.02-.02h0s-.03.02-.03.02h0s0,0,0,0c0,0,0-.02-.01-.02,0,0-.02,0-.02,0-.16.08-.08.39-.08.41h0s.04.01.05.05c0-.01.02-.03.04-.03h0s.02.01.03.03c.01,0,.04,0,.06,0,0,0,.01.02.01.03l.05.04s.04,0,.05.01c0,0,0,.01,0,.02.01,0,.04,0,.06.01,0,0,0,.01,0,.02.01,0,.03,0,.05.02,0,0,0,.02,0,.03ZM24.32,11.57s0,0,0,0c.14-.06.3-.19.36-.29.01-.02.02-.04.01-.06-.02-.04-.08-.05-.08-.05h0s0,0,0,0c0-.02,0-.04,0-.04-.02-.02-.06,0-.07,0h-.01s0,0,0,0c0-.03,0-.05,0-.06-.02-.03-.09-.02-.09-.02h0s0,0,0,0c0-.03,0-.04,0-.05-.02-.02-.07,0-.07,0h0s0,0,0,0c0-.02,0-.03,0-.04-.02-.01-.06,0-.07,0h0s0,0,0,0c0-.03,0-.04-.02-.05-.02-.02-.07,0-.07,0h0s0,0,0,0c0-.02,0-.04,0-.05-.03-.03-.08-.01-.09-.01h0s0,0,0,0c0-.02-.01-.03-.02-.03-.02,0-.04,0-.04.02h0s0,0,0,0c0-.03,0-.04-.02-.05-.03-.02-.09,0-.09,0h0s0,0,0,0c-.02-.05-.06-.04-.06-.04-.2.12-.17.47-.16.52,0,0,.02-.02.03-.02h0s.02,0,.03.02c.01,0,.05-.02.08,0,.01,0,.02.02.03.03,0,0,.03-.02.05-.01.02,0,.03.02.04.04,0,0,.03,0,.04,0,.01,0,.02.02.02.04.01,0,.04-.01.05,0,.01,0,.02.02.02.04.01,0,.03,0,.05,0,.01,0,.02.03.01.05.02,0,.07.02.08.05,0,0,0,.02,0,.03.02,0,.06.02.07.05,0,0,0,.02,0,.02h0s.04,0,.05.02c0,.01,0,.03,0,.04,0,0,0,0,0,0Z"/>
        </g>
        <path class="cls-9" d="M24.31,11.51h0c.11-.04.31-.33.32-.34h0s-.2.3-.31.34h0ZM24.24,11.46h0c.1-.05.29-.33.3-.35h0s-.2.29-.3.35h0ZM24.19,11.43h0c.1-.09.25-.4.26-.41h-.01s-.16.32-.26.41h0ZM24.13,11.36h.01c.02-.16.22-.41.22-.41h0s-.21.25-.23.41h0ZM23.73,11.17h.01c-.02-.22.15-.47.15-.47h0s-.17.24-.16.47ZM23.84,11.19h.01c-.03-.18.16-.44.17-.44h0s-.2.25-.17.44h0ZM24,11.25h.01c0-.21.17-.41.17-.41h0s-.18.2-.18.41h0ZM23.61,11.62h.01c-.06-.19.05-.44.05-.44h-.01s-.12.24-.05.44h0ZM23.68,11.64h.01c-.06-.2.04-.45.04-.46h-.01s-.1.26-.04.46h0ZM23.99,11.83h0c.18-.06.3-.25.31-.25h0s-.12.18-.3.25h0ZM23.96,11.78h0c.15-.06.28-.27.29-.27h0s-.14.2-.28.27h0ZM23.92,11.77h0c.11-.08.26-.32.26-.32h0s-.15.23-.26.32h0ZM23.74,11.65h.01c-.03-.2.09-.44.09-.45h0s-.12.24-.1.45h0ZM23.82,11.71h0c.12-.11.16-.43.16-.44h-.01s-.04.32-.16.44h0ZM23.9,11.74h0c.17-.12.21-.38.21-.38h-.01s-.04.25-.21.38h0ZM23.92,11.19v.04s-.13.45-.13.45h.01s.13-.45.13-.45c-.02-.22.16-.46.16-.46h0s-.16.21-.16.42h0ZM24.05,11.3s-.04.32-.19.43h0c.16-.11.19-.41.2-.43.07-.09.22-.4.22-.4h0s-.16.31-.22.4h0ZM23.6,11.64s.03.16.06.22h0c-.03-.06-.05-.22-.05-.22h-.01ZM23.67,11.64v.21s0,0,0,0c0-.02,0-.18,0-.22h-.01s0,0,0,0Z"/>
        <path class="cls-9" d="M23.68,11.86h.01c.05-.11.06-.19.06-.19h-.01s-.01.08-.06.19h0Z"/>
        <path class="cls-9" d="M23.69,11.87h0c.09-.05.11-.15.11-.15h-.01s-.02.1-.11.15h0Z"/>
        <path class="cls-9" d="M23.71,11.88h0c.09,0,.15-.12.15-.12h-.01s-.06.11-.14.12h0Z"/>
        <path class="cls-9" d="M23.72,11.88h0c.14,0,.21-.09.21-.09h0s-.06.09-.2.09h0Z"/>
        <path class="cls-9" d="M23.73,11.89h0s.19.06.25-.05h0c-.06.09-.24.05-.24.05Z"/>
        <path class="cls-9" d="M22.65,13.14h-.02c-.12-.05-3.04-1.13-3.04-2.97v-5.64h6.11v5.64c0,1.84-2.91,2.92-3.04,2.96h-.02ZM19.7,4.62v5.54c0,1.7,2.7,2.77,2.95,2.86.25-.09,2.95-1.16,2.95-2.86v-5.54h-5.9Z"/>
      </g>
      <line class="cls-4" x1="14.92" y1="8.29" x2="15.16" y2="8.72"/>
    </g>
  </g>
</svg>