<?xml version="1.0" encoding="UTF-8"?>
<svg id="Layer_2" data-name="Layer 2" xmlns="http://www.w3.org/2000/svg" xmlns:xlink="http://www.w3.org/1999/xlink" viewBox="0 0 34.4 17.77">
  <defs>
    <style>
      .cls-1 {
        fill: #222d65;
      }

      .cls-2 {
        fill: #fff;
      }

      .cls-3 {
        fill: none;
      }

      .cls-4 {
        clip-path: url(#clippath-1);
      }

      .cls-5 {
        clip-path: url(#clippath-3);
      }

      .cls-6 {
        fill: #c8202f;
      }

      .cls-7 {
        fill: #010101;
      }

      .cls-8 {
        clip-path: url(#clippath-2);
      }

      .cls-9 {
        clip-path: url(#clippath);
      }
    </style>
    <clipPath id="clippath">
      <rect class="cls-3" x=".38" y=".76" width="17.01" height="8.5"/>
    </clipPath>
    <clipPath id="clippath-1">
      <path class="cls-3" d="M.38.76l8.5,4.25H.38V.76ZM8.88.76h8.5l-8.5,4.25V.76ZM8.88,5.01h8.5v4.25l-8.5-4.25ZM8.88,5.01v4.25H.38l8.5-4.25Z"/>
    </clipPath>
    <clipPath id="clippath-2">
      <rect class="cls-3" x=".38" y=".76" width="17.01" height="8.5"/>
    </clipPath>
    <clipPath id="clippath-3">
      <rect class="cls-3" x=".38" y=".76" width="17.01" height="8.5"/>
    </clipPath>
  </defs>
  <g id="Layer_1-2" data-name="Layer 1">
    <g id="NZ">
      <path class="cls-1" d="M.38.76h34.02v17.01H.38V.76Z"/>
      <g class="cls-9">
        <g>
          <path class="cls-7" d="M.38.76l17.01,8.5M.38,9.26L17.39.76"/>
          <polygon class="cls-2" points="17.01 10.02 8.88 5.96 .76 10.02 0 8.5 6.98 5.01 0 1.52 .76 0 8.88 4.06 17.01 0 17.77 1.52 10.79 5.01 17.77 8.5 17.01 10.02"/>
        </g>
      </g>
      <g class="cls-4">
        <g>
          <path class="cls-7" d="M.38.76l17.01,8.5M.38,9.26L17.39.76"/>
          <polygon class="cls-6" points="17.13 9.77 8.88 5.65 .63 9.77 .13 8.76 7.62 5.01 .13 1.27 .63 .25 8.88 4.38 17.13 .25 17.64 1.27 10.15 5.01 17.64 8.76 17.13 9.77"/>
        </g>
      </g>
      <g class="cls-8">
        <g>
          <path class="cls-7" d="M8.88.76v8.5M.38,5.01h17.01"/>
          <polygon class="cls-2" points="10.3 9.26 7.47 9.26 7.47 6.43 .38 6.43 .38 3.6 7.47 3.6 7.47 .76 10.3 .76 10.3 3.6 17.39 3.6 17.39 6.43 10.3 6.43 10.3 9.26"/>
        </g>
      </g>
      <g class="cls-5">
        <g>
          <path class="cls-7" d="M8.88.76v8.5M.38,5.01h17.01"/>
          <polygon class="cls-6" points="9.73 9.26 8.03 9.26 8.03 5.86 .38 5.86 .38 4.16 8.03 4.16 8.03 .76 9.73 .76 9.73 4.16 17.39 4.16 17.39 5.86 9.73 5.86 9.73 9.26"/>
        </g>
      </g>
      <g id="d">
        <g id="a">
          <path class="cls-2" d="M25.89,3.74v.64l1.29-.64h-1.29Z"/>
          <path class="cls-2" d="M26.14,4.5l-.38-.52,1.42-.24-1.04.76Z"/>
        </g>
        <g id="a-2" data-name="a">
          <path class="cls-2" d="M25.89,3.74v.64l-1.29-.64h1.29Z"/>
          <path class="cls-2" d="M25.65,4.5l.38-.52-1.42-.24,1.04.76Z"/>
        </g>
        <g id="a-3" data-name="a">
          <path class="cls-2" d="M26.29,4.03l-.61.2,1.01,1.03-.4-1.22Z"/>
          <path class="cls-2" d="M25.65,4.5l.38-.52.66,1.28-1.04-.76Z"/>
        </g>
        <g id="a-4" data-name="a">
          <path class="cls-2" d="M25.49,4.03l.61.2-.21-1.42-.4,1.22Z"/>
          <path class="cls-2" d="M26.29,4.03l-.61.2.21-1.42.4,1.22Z"/>
        </g>
        <g id="a-5" data-name="a">
          <path class="cls-2" d="M25.49,4.03l.61.2-1.01,1.03.4-1.22Z"/>
          <path class="cls-2" d="M26.14,4.5l-.38-.52-.66,1.28,1.04-.76Z"/>
        </g>
      </g>
      <g id="d-2" data-name="d">
        <g id="a-6" data-name="a">
          <path class="cls-6" d="M25.89,3.89v.43l.85-.43h-.85Z"/>
          <path class="cls-6" d="M26.05,4.39l-.25-.34.94-.16-.69.5Z"/>
        </g>
        <g id="a-7" data-name="a">
          <path class="cls-6" d="M25.89,3.89v.43l-.85-.43h.85Z"/>
          <path class="cls-6" d="M25.73,4.39l.25-.34-.94-.16.69.5Z"/>
        </g>
        <g id="a-8" data-name="a">
          <path class="cls-6" d="M26.15,4.08l-.4.13.67.68-.26-.81Z"/>
          <path class="cls-6" d="M25.73,4.39l.25-.34.44.84-.69-.5Z"/>
        </g>
        <g id="a-9" data-name="a">
          <path class="cls-6" d="M25.63,4.08l.4.13-.14-.94-.26.81Z"/>
          <path class="cls-6" d="M26.15,4.08l-.4.13.14-.94.26.81Z"/>
        </g>
        <g id="a-10" data-name="a">
          <path class="cls-6" d="M25.63,4.08l.4.13-.67.68.26-.81Z"/>
          <path class="cls-6" d="M26.05,4.39l-.25-.34-.44.84.69-.5Z"/>
        </g>
      </g>
      <g>
        <g id="d-3" data-name="d">
          <g id="a-11" data-name="a">
            <path class="cls-2" d="M29.26,6.72v.57l1.15-.57h-1.15Z"/>
            <path class="cls-2" d="M29.48,7.39l-.34-.46,1.26-.21-.93.67Z"/>
          </g>
          <g id="a-12" data-name="a">
            <path class="cls-2" d="M29.26,6.72v.57l-1.15-.57h1.15Z"/>
            <path class="cls-2" d="M29.04,7.39l.34-.46-1.26-.21.93.67Z"/>
          </g>
          <g id="a-13" data-name="a">
            <path class="cls-2" d="M29.61,6.98l-.54.18.9.91-.35-1.09Z"/>
            <path class="cls-2" d="M29.04,7.39l.34-.46.59,1.14-.93-.67Z"/>
          </g>
          <g id="a-14" data-name="a">
            <path class="cls-2" d="M28.91,6.98l.54.18-.19-1.27-.35,1.09Z"/>
            <path class="cls-2" d="M29.61,6.98l-.54.18.19-1.27.35,1.09Z"/>
          </g>
          <g id="a-15" data-name="a">
            <path class="cls-2" d="M28.91,6.98l.54.18-.9.91.35-1.09Z"/>
            <path class="cls-2" d="M29.48,7.39l-.34-.46-.59,1.14.93-.67Z"/>
          </g>
        </g>
        <g id="d-4" data-name="d">
          <g id="a-16" data-name="a">
            <path class="cls-6" d="M29.26,6.86v.35l.71-.35h-.71Z"/>
            <path class="cls-6" d="M29.4,7.28l-.21-.29.78-.13-.57.42Z"/>
          </g>
          <g id="a-17" data-name="a">
            <path class="cls-6" d="M29.26,6.86v.35l-.71-.35h.71Z"/>
            <path class="cls-6" d="M29.13,7.28l.21-.29-.78-.13.57.42Z"/>
          </g>
          <g id="a-18" data-name="a">
            <path class="cls-6" d="M29.48,7.02l-.34.11.56.56-.22-.67Z"/>
            <path class="cls-6" d="M29.13,7.28l.21-.29.37.7-.57-.42Z"/>
          </g>
          <g id="a-19" data-name="a">
            <path class="cls-6" d="M29.04,7.02l.34.11-.12-.78-.22.67Z"/>
            <path class="cls-6" d="M29.48,7.02l-.34.11.12-.78.22.67Z"/>
          </g>
          <g id="a-20" data-name="a">
            <path class="cls-6" d="M29.04,7.02l.34.11-.56.56.22-.67Z"/>
            <path class="cls-6" d="M29.4,7.28l-.21-.29-.37.7.57-.42Z"/>
          </g>
        </g>
      </g>
      <g>
        <g id="d-5" data-name="d">
          <g id="a-21" data-name="a">
            <path class="cls-2" d="M21.96,7.7v.64l1.29-.64h-1.29Z"/>
            <path class="cls-2" d="M22.21,8.45l-.38-.52,1.42-.24-1.04.76Z"/>
          </g>
          <g id="a-22" data-name="a">
            <path class="cls-2" d="M21.96,7.7v.64l-1.29-.64h1.29Z"/>
            <path class="cls-2" d="M21.72,8.45l.38-.52-1.42-.24,1.04.76Z"/>
          </g>
          <g id="a-23" data-name="a">
            <path class="cls-2" d="M22.36,7.99l-.61.2,1.01,1.03-.4-1.22Z"/>
            <path class="cls-2" d="M21.72,8.45l.38-.52.66,1.28-1.04-.76Z"/>
          </g>
          <g id="a-24" data-name="a">
            <path class="cls-2" d="M21.56,7.99l.61.2-.21-1.42-.4,1.22Z"/>
            <path class="cls-2" d="M22.36,7.99l-.61.2.21-1.42.4,1.22Z"/>
          </g>
          <g id="a-25" data-name="a">
            <path class="cls-2" d="M21.56,7.99l.61.2-1.01,1.03.4-1.22Z"/>
            <path class="cls-2" d="M22.21,8.45l-.38-.52-.66,1.28,1.04-.76Z"/>
          </g>
        </g>
        <g id="d-6" data-name="d">
          <g id="a-26" data-name="a">
            <path class="cls-6" d="M21.96,7.84v.43l.85-.43h-.85Z"/>
            <path class="cls-6" d="M22.12,8.34l-.25-.34.94-.16-.69.5Z"/>
          </g>
          <g id="a-27" data-name="a">
            <path class="cls-6" d="M21.96,7.84v.43l-.85-.43h.85Z"/>
            <path class="cls-6" d="M21.8,8.34l.25-.34-.94-.16.69.5Z"/>
          </g>
          <g id="a-28" data-name="a">
            <path class="cls-6" d="M22.23,8.03l-.4.13.67.68-.26-.81Z"/>
            <path class="cls-6" d="M21.8,8.34l.25-.34.44.84-.69-.5Z"/>
          </g>
          <g id="a-29" data-name="a">
            <path class="cls-6" d="M21.7,8.03l.4.13-.14-.94-.26.81Z"/>
            <path class="cls-6" d="M22.23,8.03l-.4.13.14-.94.26.81Z"/>
          </g>
          <g id="a-30" data-name="a">
            <path class="cls-6" d="M21.7,8.03l.4.13-.67.68.26-.81Z"/>
            <path class="cls-6" d="M22.12,8.34l-.25-.34-.44.84.69-.5Z"/>
          </g>
        </g>
      </g>
      <g id="d-7" data-name="d">
        <g id="a-31" data-name="a">
          <path class="cls-2" d="M25.89,13.9v.71l1.43-.71h-1.43Z"/>
          <path class="cls-2" d="M26.16,14.74l-.42-.58,1.58-.26-1.16.84Z"/>
        </g>
        <g id="a-32" data-name="a">
          <path class="cls-2" d="M25.89,13.9v.71l-1.43-.71h1.43Z"/>
          <path class="cls-2" d="M25.62,14.74l.42-.58-1.58-.26,1.16.84Z"/>
        </g>
        <g id="a-33" data-name="a">
          <path class="cls-2" d="M26.33,14.22l-.68.22,1.12,1.14-.44-1.36Z"/>
          <path class="cls-2" d="M25.62,14.74l.42-.58.74,1.42-1.16-.84Z"/>
        </g>
        <g id="a-34" data-name="a">
          <path class="cls-2" d="M25.45,14.22l.68.22-.24-1.58-.44,1.36Z"/>
          <path class="cls-2" d="M26.33,14.22l-.68.22.24-1.58.44,1.36Z"/>
        </g>
        <g id="a-35" data-name="a">
          <path class="cls-2" d="M25.45,14.22l.68.22-1.12,1.14.44-1.36Z"/>
          <path class="cls-2" d="M26.17,14.74l-.42-.58-.74,1.42,1.16-.84Z"/>
        </g>
      </g>
      <g id="d-8" data-name="d">
        <g id="a-36" data-name="a">
          <path class="cls-6" d="M25.89,14.04v.5l.99-.5h-.99Z"/>
          <path class="cls-6" d="M26.08,14.63l-.29-.4,1.09-.18-.8.58Z"/>
        </g>
        <g id="a-37" data-name="a">
          <path class="cls-6" d="M25.89,14.04v.5l-.99-.5h.99Z"/>
          <path class="cls-6" d="M25.7,14.63l.29-.4-1.09-.18.8.58Z"/>
        </g>
        <g id="a-38" data-name="a">
          <path class="cls-6" d="M26.2,14.27l-.47.15.78.79-.31-.94Z"/>
          <path class="cls-6" d="M25.7,14.63l.29-.4.51.98-.8-.58Z"/>
        </g>
        <g id="a-39" data-name="a">
          <path class="cls-6" d="M25.59,14.27l.47.15-.17-1.1-.31.94Z"/>
          <path class="cls-6" d="M26.2,14.27l-.47.15.17-1.1.31.94Z"/>
        </g>
        <g id="a-40" data-name="a">
          <path class="cls-6" d="M25.59,14.27l.47.15-.78.79.31-.94Z"/>
          <path class="cls-6" d="M26.08,14.63l-.29-.4-.51.98.8-.58Z"/>
        </g>
      </g>
    </g>
  </g>
</svg>