<?xml version="1.0" encoding="UTF-8"?>
<svg id="Layer_2" data-name="Layer 2" xmlns="http://www.w3.org/2000/svg" viewBox="0 0 22.68 17.01">
  <defs>
    <style>
      .cls-1 {
        fill: #ce2028;
      }

      .cls-2 {
        fill: #fff;
      }

      .cls-3 {
        fill: #fbd118;
      }

      .cls-4 {
        fill: #010101;
      }
    </style>
  </defs>
  <g id="Layer_1-2" data-name="Layer 1">
    <g>
      <path class="cls-4" d="M0,0h22.68v17.01H0V0Z"/>
      <path class="cls-1" d="M0,0h22.68v17.01L0,0Z"/>
      <path class="cls-3" d="M14.04,4.94c-.17.22-.56-.22-1.04-.23-.47,0-.81.46-.95.61-.14.16-.58.99-.57,1.08s.28-.25.38-.31c0,.12-.11.26-.08.3s.35-.24.46-.25c.03.08-.06.16-.03.28.04.04.22-.2.34-.25.02.09-.11.26-.04.37.05,0,.35-.34.45-.38.1-.04-.05.33,0,.36.09-.06.37-.38.46-.42.09-.04,0,.41.03.41.11-.08.39-.46.42-.51s-.03.57.28.91c.31.34.77.72.82.72.06-.11-.02-.34.03-.33.14.15.4.37.46.37s-.04-.24.04-.24c.16.15.61.73,1.5,1-.06-.17-.19-.32-.2-.4.06,0,.27.11.31.1.04,0-.44-.59-.41-.67.11,0,.16.06.2,0-.05-.08-.46-.54-.46-.65s.13.02.17,0c.04-.02-.16-.44-.12-.48.04-.05.47.27.58.27s.03-.39.08-.41c.05-.02.42.21.49.21s.07-.17.1-.15c.03.02.89.88.59,1.89-.3.72-.89,1.11-1.76.79.05.08.51.46,1.02.33s1.12-.53,1.05-1.52c-.07-.99-.4-1.13-.45-1.28-.05-.15.08.04.19.08.11.04-.02-.21-.05-.32-.03-.11.33.23.42.26s-.21-.81-.3-.87.09.02.15.04-.54-.92-.67-.92.11-.05.18-.05-.69-.61-.82-.61.28-.16.32-.17c.07,0-.88-.5-1.73,0-.05-.04.4-.35.42-.48,0-.03-.15-.11-.16-.15,0-.04.24-.16.25-.25-.06-.08-.17-.05-.23-.07-.01-.07.21-.26.19-.34-.01-.04-.18-.06-.22-.03-.04.03.1-.21.08-.28-.02-.03-.1,0-.18,0-.05,0,.26-.44.2-.49-.06-.06-.89.44-1.2.99-.31.55-.07,1-.11,1.19-.04.19-.09.38-.22.38s-.43-.2-.52-.3c-.1-.1-.12-.17-.26-.21s-.46.08-.57.09-.58-.09-.61-.06c-.03.03.46.21.56.27s.12.14.2.19c.08.05.82.27.58.57h0ZM16.94,6.34c.24.24,1.84,1.31,1.84,2.61s-1.17,1.27-1.5,1.23c.38.32,1.8.26,1.8-1.23,0-1.31-1.84-2.61-2.08-2.73-.24-.12-.3-.12-.06.12Z"/>
      <g>
        <path id="a" class="cls-2" d="M5.67,5.22l.27.77.81.02-.65.49.24.78-.67-.46-.67.46.24-.78-.65-.49.81-.02.27-.77Z"/>
        <path id="a-2" data-name="a" class="cls-2" d="M3.17,8.62l.27.77.81.02-.65.49.24.78-.67-.46-.67.46.24-.78-.65-.49.81-.02.27-.77Z"/>
        <path id="a-3" data-name="a" class="cls-2" d="M5.67,13.15l.27.77.81.02-.65.49.24.78-.67-.46-.67.46.24-.78-.65-.49.81-.02.27-.77Z"/>
        <path id="a-4" data-name="a" class="cls-2" d="M7.94,8.39l.27.77.81.02-.65.49.24.78-.67-.46-.67.46.24-.78-.65-.49.81-.02.27-.77Z"/>
        <path id="a-5" data-name="a" class="cls-2" d="M6.8,11.23l.13.38h.41s-.32.25-.32.25l.12.39-.33-.23-.33.23.12-.39-.32-.25h.41s.13-.39.13-.39Z"/>
      </g>
    </g>
  </g>
</svg>