<?xml version="1.0" encoding="UTF-8"?>
<svg id="Layer_2" data-name="Layer 2" xmlns="http://www.w3.org/2000/svg" viewBox="0 0 34.02 17.01">
  <defs>
    <style>
      .cls-1 {
        fill: #ce2028;
      }

      .cls-2 {
        fill: #fff;
      }

      .cls-3 {
        fill: #263779;
      }
    </style>
  </defs>
  <g id="Layer_1-2" data-name="Layer 1">
    <g id="SAMOA">
      <path class="cls-1" d="M0,0h34.02v17.01H0V0Z"/>
      <path class="cls-3" d="M0,0h17.01v8.5H0V0Z"/>
      <path id="a" class="cls-2" d="M7.32,6.76L8.22,6.76L8.50,5.90L8.78,6.76L9.68,6.76L8.95,7.29L9.23,8.15L8.50,7.62L7.77,8.15L8.05,7.29Z"/>
      <path id="b" class="cls-2" d="M4.96,3.17L5.68,3.17L5.91,2.48L6.13,3.17L6.85,3.17L6.27,3.59L6.49,4.28L5.90,3.86L5.32,4.28L5.54,3.59Z"/>
      <path id="b-2" data-name="b" class="cls-2" d="M7.55,1.04L8.27,1.04L8.50,0.35L8.72,1.04L9.44,1.04L8.86,1.46L9.08,2.15L8.49,1.73L7.91,2.15L8.13,1.46Z"/>
      <path id="b-3" data-name="b" class="cls-2" d="M10.28,2.77L10.95,2.77L11.16,2.13L11.37,2.77L12.05,2.77L11.50,3.17L11.71,3.81L11.17,3.41L10.62,3.81L10.83,3.17Z"/>
      <path id="a-2" data-name="a" class="cls-2" d="M9.20,4.74L9.65,4.74L9.80,4.31L9.94,4.74L10.38,4.74L10.02,5.00L10.16,5.43L9.79,5.16L9.42,5.43L9.57,5.00Z"/>
    </g>
  </g>
</svg>