<?xml version="1.0" encoding="UTF-8"?>
<svg id="Layer_2" data-name="Layer 2" xmlns="http://www.w3.org/2000/svg" viewBox="0 0 28.35 17.01">
  <defs>
    <style>
      .cls-1 {
        stroke-width: .02px;
      }

      .cls-1, .cls-2, .cls-3, .cls-4, .cls-5, .cls-6, .cls-7, .cls-8, .cls-9, .cls-10, .cls-11, .cls-12, .cls-13 {
        fill: none;
      }

      .cls-1, .cls-14 {
        stroke: #fff;
      }

      .cls-15 {
        fill: rgba(173, 124, 90, .99);
      }

      .cls-15, .cls-2, .cls-16, .cls-4, .cls-17, .cls-5, .cls-18, .cls-19, .cls-14, .cls-20, .cls-21, .cls-22, .cls-23, .cls-13, .cls-24, .cls-25, .cls-26, .cls-27, .cls-28 {
        stroke-width: .01px;
      }

      .cls-15, .cls-29, .cls-3, .cls-16, .cls-30, .cls-31, .cls-32, .cls-33, .cls-4, .cls-17, .cls-6, .cls-18, .cls-7, .cls-19, .cls-34, .cls-9, .cls-21, .cls-11, .cls-22, .cls-23, .cls-13, .cls-24, .cls-25, .cls-35, .cls-26, .cls-36, .cls-28 {
        stroke: #010101;
      }

      .cls-37, .cls-35 {
        fill: #fee683;
      }

      .cls-2 {
        stroke: #214c24;
      }

      .cls-29, .cls-16, .cls-32, .cls-18, .cls-11, .cls-22, .cls-23, .cls-36 {
        stroke-linejoin: round;
      }

      .cls-29, .cls-30 {
        stroke-width: 0px;
      }

      .cls-29, .cls-38, .cls-18, .cls-14, .cls-34, .cls-21, .cls-36 {
        fill: #fff;
      }

      .cls-3 {
        stroke-width: .03px;
      }

      .cls-16, .cls-4, .cls-24 {
        stroke-linecap: round;
      }

      .cls-16, .cls-19, .cls-39 {
        fill: #663126;
      }

      .cls-30, .cls-32, .cls-28 {
        fill: #010101;
      }

      .cls-31 {
        stroke-width: .02px;
      }

      .cls-31, .cls-40 {
        fill: #296bb4;
      }

      .cls-32 {
        stroke-width: .02px;
      }

      .cls-41 {
        fill: #ccb8c8;
      }

      .cls-33 {
        stroke-width: .02px;
      }

      .cls-33, .cls-25 {
        fill: #e8e8e6;
      }

      .cls-17 {
        fill: #ae7d5b;
      }

      .cls-5, .cls-20 {
        stroke: #186734;
      }

      .cls-42, .cls-43 {
        fill-rule: evenodd;
      }

      .cls-42, .cls-23 {
        fill: #d81f26;
      }

      .cls-6 {
        stroke-width: .01px;
      }

      .cls-43, .cls-44 {
        fill: #2c318a;
      }

      .cls-7, .cls-34, .cls-11, .cls-35 {
        stroke-width: .02px;
      }

      .cls-8 {
        stroke: #4e4c4e;
        stroke-width: .02px;
      }

      .cls-9 {
        stroke-width: .01px;
      }

      .cls-45 {
        fill: #4e4e4e;
      }

      .cls-46 {
        fill: #65bc46;
      }

      .cls-20 {
        fill: #388c42;
      }

      .cls-10, .cls-12 {
        stroke: #4e4e4e;
        stroke-width: .02px;
      }

      .cls-47 {
        fill: #9ecae2;
      }

      .cls-48 {
        fill: #8ac653;
      }

      .cls-22, .cls-24 {
        fill: #ad7c5a;
      }

      .cls-12 {
        stroke-linecap: square;
      }

      .cls-26 {
        fill: #d57c59;
      }

      .cls-36 {
        stroke-width: 0px;
      }

      .cls-27 {
        stroke: #19331a;
      }

      .cls-27, .cls-49 {
        fill: #378b42;
      }

      .cls-49 {
        stroke: #22552a;
        stroke-width: .01px;
      }
    </style>
  </defs>
  <g id="Layer_1-2" data-name="Layer 1">
    <g>
      <g>
        <path class="cls-42" d="M0,0h28.35v17.01H0V0Z"/>
        <path class="cls-43" d="M0,1.7h28.35v13.61H0V1.7Z"/>
      </g>
      <circle class="cls-38" cx="14.17" cy="8.5" r="4.96"/>
      <path class="cls-48" d="M15.07,5.2s-.03,0-.06-.02l.06.02"/>
      <g>
        <path class="cls-5" d="M15.07,5.2s-.03,0-.06-.02"/>
        <g>
          <path class="cls-26" d="M14.99,5.23s.02-.04.05-.02c.03.02.03.12.03.12l-.04.02s.02-.03-.04-.12h0ZM14.75,6.08s.02-.03,0-.09h.04s.02.04,0,.09h-.03M15.49,5.93l-.1.06.05.02.12-.07h-.07M14.12,6.33s-.03.06-.05.08c-.01.02-.05.05-.06.08,0,.03,0,.05,0,.1.02.04.08.23.06.38-.03.15-.02.21,0,.23s.04.08.06.08c.04,0,.02-.02.04-.05.04-.07,0-.61-.02-.76-.01-.12-.07-.22-.07-.23,0-.01-.02-.05-.02-.07-.04-.1-.09-.18-.09-.38,0,0-.13.03-.24-.23-.06-.13-.15-.12-.25-.16l.05-.03s.09.04.13.04.03-.09.03-.09l.04-.04v.19c0,.09.12.2.19.24.04.02.1-.07.09-.15s0-.2,0-.2l.06.03s-.02.04-.02.06c0,.02.04-.02.06-.04,0,0,0,0,.03,0l-.06.11s-.02.17-.02.22.02.17.02.21c0,.03.05.14.09.2.01.03.05.1.05.1.03.05.03.09.05.13.01.02.03.08.04.19,0,.03.01.13.02.2,0,.06.06.01.13-.03.06-.05.06-.16.06-.16,0,0,.05-.04.04-.02,0,.03.03.05.03.05-.04.09-.02.08.02.08.04,0,.18-.11.18-.11.02,0,.1,0,.09,0-.02,0-.04.05-.04.05h.09s-.15.08-.18.1c-.03.02-.17.09-.24.11-.06.03-.18.09-.19.15,0,.06,0,.23,0,.28l-.03.29h-.29s.06-.21,0-.27c-.06-.06-.19-.23-.27-.29-.09-.06.06-.01.06-.01v-.06l.13.16s.23-.2,0-.48c-.07-.09-.15-.22-.2-.23-.06-.02-.09-.03-.19,0-.1.03-.35.03-.45-.13h.09s.07-.04.07-.04c0,0-.03.1.17.1s.23,0,.22-.19l.06-.03.04.04s-.03.1-.01.15c.01.04.09.07.14.12.02.02.04.02.06.02.02,0,.03,0,.06-.03.05-.05.04-.05.09-.09,0,0,.02-.04.03-.04l.03.08h0Z"/>
          <path class="cls-26" d="M14.16,6.19s.03-.05.05-.09c.03-.05.07-.09.11-.15.04-.06.06-.15.04-.22l.04.02v.1s.05-.04.08-.05h.02s-.16.18-.31.45l-.03-.06h0ZM12.75,5.63s.04.11.11.17h.04s-.1-.13-.1-.18h-.05M13,5.56s.01.14-.02.19l.04-.02s.03-.09.02-.15l-.04-.02h0ZM14.42,5.13s0,.19.03.31l.05-.02s0-.04.04-.05c.04-.01.15-.06.2-.1l-.02-.04s-.08.06-.12.08c-.03.01-.06.03-.09.02s-.06-.06-.04-.17l-.05-.03ZM14.99,6.03s-.01.14,0,.2h.05s-.01-.15.02-.17l-.06-.03M15.2,6.13s-.05.09-.11.1l.09-.02s.03-.01.07-.06l-.05-.02"/>
        </g>
        <path class="cls-27" d="M14.37,5.73l.03.02h.04s.04.04.09.08c.03.03.03,0,.03,0l.02.09h.03v.09s.04-.04.04-.04l.06.05s.04-.04.06-.04.03-.02.03-.02h0c-.14-.07-.2-.14-.16-.21.07-.12.19-.04.22-.03l.52.28s.03-.02.01-.04c-.03-.02-.04-.08-.03-.1s.07.07.1.08.1.02.1.02v-.03s.08.06.08.09c0,0,.06-.03.04-.05s.09.05.1.08l.02-.03s0-.09.04-.13c.03-.04.06-.05.06-.05,0,0,.03-.05.05-.05,0,0-.03-.02-.04-.04-.01-.02-.05-.03-.05-.03,0,0,.04-.03.05-.04.01-.02.02-.02.02-.02,0,0-.06-.05-.11-.06,0,0,0-.07-.06-.08h.02s-.04-.08-.08-.08c0,0,.02-.03.05-.03,0,0-.05-.06-.11-.04l.04-.02s-.03-.03-.12-.02c0,0,0-.04-.03-.07,0,0-.03,0-.03.03,0,0-.03-.03-.07-.03s.01.04.01.04c0,0-.05-.04-.09-.02,0,0,.01-.06-.02-.09,0,0-.04.02-.05.05v-.03s-.06.06-.08.05c0-.01-.02-.06-.02-.06l-.03.05v-.07s-.03.02-.06.09c0,0-.04.04-.04.07,0,0-.03-.03-.06,0-.02.04,0,.03,0,.03,0,0-.01.01-.04.02v.02s-.03-.02-.06-.01v.03s-.06,0-.06-.05c0,0-.06-.03-.07,0l-.04.03s-.01-.03-.04-.03c-.03,0,0,.03,0,.03,0,0,0-.03-.04-.05-.03-.01,0,.03,0,.03,0,0-.04-.04-.02-.06,0,0-.04.04-.02.07l-.03.02s-.01-.01-.01-.02-.05.03-.05.03c0,0-.03-.07,0-.07,0,0-.05,0-.06.06,0,0-.03,0-.07.01-.03.01.02.04.02.04,0,0-.05-.01-.08,0l.02.02s-.02-.02-.06,0c-.05.01.01.02.01.02,0,0-.05-.01-.07,0s0,.03,0,.03c0,0-.09-.03-.1-.02-.01,0,.03.05.03.05,0,0-.05.01-.06.05l.05.02s-.02.01-.03.03c-.01.02.03.01.03.01,0,0-.06.04-.06.08,0,0,.04.01.08-.02s.01-.02.01-.02v.02s.06-.03.06-.04c0-.01-.01.02-.01.02l.06-.03.04.03h0s0,0,0,0ZM14.32,4.89v-.06s.12.02.12.02l.02-.06s.06.03.09.05c0,0,.13-.03.16-.02l-.02.06s.12,0,.15.02c.03.01-.02.04-.02.04,0,0,.13.02.19.05.06.03.06.06.03.07l.07.12s-.12.01-.14.04-.04-.03-.04-.03l-.02.08s-.07-.04-.1-.06c0,0-.03.04-.01.06l-.13-.09s-.06,0-.06.04l-.08-.09-.07.02s-.02-.03-.05-.04c-.03,0,0,.04,0,.04l-.04-.05-.04-.05s-.04.05-.07.05c-.03,0-.03-.03-.02-.06,0-.02-.09-.03-.09,0,0,0-.03-.11.07-.14l.1-.03h0ZM13.8,5.26l-.05.04h-.03s-.05.05-.05.05v-.03s-.04.05-.04.05l-.05-.02-.02.04h-.04s-.04.02-.06.03c-.02,0,0-.05,0-.05,0,0-.03.05-.06.05-.02,0-.01-.02-.01-.02,0,0-.01.03-.04.04-.02,0-.01-.03-.01-.03l-.04.03v-.03h-.02s.01-.06.03-.07-.02-.04-.02-.04l.02-.02s-.05-.01-.05,0c0,0,.03-.07.06-.09v-.08s.04-.03.08-.04c.04,0-.01-.06-.01-.06l.09-.05v-.06s.14.01.14.01l.03-.06.11.03.09-.05.06.08h.1s0,.09,0,.09l.13.05-.02.08s.08-.02.11-.02v.09s.15.04.16.07c0,0-.03.02-.05.04l.02.11v.02s-.05-.04-.08-.04l-.03.06-.05-.03h-.03s-.02-.03-.04-.03v-.03s-.04.02-.04.02c0,0-.06-.03-.06-.05,0-.02,0-.04,0-.04l-.06.04s-.01-.03-.01-.05-.02.03-.02.03c0,0-.03-.06-.03-.07v.05s-.07-.02-.08-.06h0s0,0,0,0ZM12.94,5.52s.11.06.11.08c0,0,.03-.06.01-.08l.04.03s.01-.05,0-.07c-.01-.01.1-.06.12.01,0,0,.07-.07-.06-.13,0,0-.01-.04.07-.03,0,0,0-.03-.02-.04h.08s-.05-.04-.11-.05c-.06-.01-.02-.02-.03-.03,0-.01,0-.06,0-.06,0,0-.04-.01-.07,0h.01s-.07-.03-.1-.02c0,0-.04-.02-.04-.06,0,0-.04,0-.06.04,0,0-.04.04-.09.04-.01,0-.05-.02-.05-.02l-.03.08h-.05s.02.03.02.03c0,0-.08-.02-.1,0,0,0,.03.05.02.08,0,0-.06.01-.08.02-.02.01.02.02.02.02,0,0-.07.02-.09.04l.03.02-.03.04h.03s-.07.03-.07.03c-.02,0,.04.01.04.01l-.03.03h.05s-.04.12-.04.17c0,0,.06-.08.08-.08l-.05.08s.09-.03.1-.04l.02-.03v.05s.04-.05.04-.07c0-.02.06.02.06.02v-.03l.06.02s.02,0,.02,0h.05s0,.03,0,.03c0,0,.03-.02.04-.04,0-.02.02,0,.02,0l.02-.09h.05ZM12.57,5.9l.04.09s-.09.04-.09.04c0,.15-.03.14-.03.14.01.03,0,.08,0,.08l.21-.13h0s.25-.13.25-.13h0s.07-.03.07-.03l.05.13-.05.03s.06.13.06.13l.07-.02.07-.03v.03s.08-.04.08-.04l.03.03s.08-.07.08-.07l.06.02s.02-.03.02-.06c0-.02.07-.02.07-.02l.05.03.06-.05s.02.04.04.04c.03,0,.09.05.09.04s.03-.07.03-.07l.11.05c-.02-.05-.05-.11-.05-.11,0,0,.05-.04.04-.05s-.04,0-.04,0l.03-.06h-.04v-.02s-.06-.03-.06-.03l.04-.08s-.2-.06-.2-.06l.04-.04s-.02-.03-.04-.03-.13,0-.14,0c0-.01-.05-.05-.05-.05l-.07.05h-.03s-.06.01-.06.01c0,0,0,.03,0,.01,0-.02-.06-.08-.06-.08-.01.02-.08.1-.08.1,0,0-.01.05-.04.01-.03-.03-.08-.07-.09-.04,0,.03-.06.06-.07.05-.01,0-.07,0-.08.01,0,.02-.07.07-.07.07-.04-.02-.11,0-.11,0,0,0-.02.03-.02.05l-.13.03h0s0,0,0,0ZM13.79,6.99v-.06l.06.04.04-.04.05.05.03-.05v.08l.07-.06.04.02v-.06s.05-.09.03-.1h.04s-.09-.1-.09-.1c-.02-.02-.05-.02-.05-.02,0,0-.06-.06-.09-.07-.04-.01-.06.02-.06.02,0,0-.02-.04-.06-.05-.03,0-.03.03-.03.03,0,0-.03-.03-.06-.04-.03-.02-.01.03-.01.03l-.12-.04.02.04-.12-.03v.04s-.07-.01-.07-.01v.04s-.12.02-.12.02l.02.04-.07-.03v.05l-.08.03.03.03-.13.07s.04.04.04.04l-.12-.02.04.04-.1.09.07.05-.04.06.11.02.04.07.09-.02v.08l.13-.1s.09.08.1.06c0-.02,0-.09,0-.09h.05v-.07l.03.03.06-.09.08.11.06-.14h.09s0,.01,0,.01ZM14.31,6.67v-.12s-.05.04-.05.04l.02-.12h-.06s.02-.12.02-.12l-.04-.02v-.05s.05-.03.05-.03l.08-.08h.18s.02-.06.02-.06l.13.02s.09-.05.09-.05h.03l.03.06s.09-.01.14.02l-.05.07h.09s.06.02.06.02l.07-.02h.09s.02.03.02.03h.08l-.03.03.1.05-.02.02s.06.02.1.02h.02s.02.05,0,.07c0,0,.03.07.09.09s.06.01.07.03c0,.01,0,.09-.07.09v.07s-.06.05-.06.07l-.04-.03s-.04.04-.04.07c0,0-.09-.12-.13-.13-.04,0-.03.07-.03.07l-.1-.09v.06s-.1-.07-.1-.07l-.05.03-.09-.09h-.09s.03-.03.03-.03h-.11l-.02-.09-.02.08-.06-.04-.08.09s-.01-.01-.02-.05-.05.05-.05.05l-.03-.07-.03.07s-.03-.05-.06-.07c-.03-.01-.06.08-.06.12h0ZM14.33,6.95v-.04s.16-.06.16-.06l.13-.05.06-.03.03.05.04-.07.06.08.03-.04.05.04h.04v.06s.12,0,.12-.01.02.07.02.07h.1s.02.13.02.13c0,0,.05.11.03.15-.01.05-.06-.06-.06-.06,0,0,0,.08-.02.1,0,.02-.14-.02-.14-.02l-.06.11s-.06-.09-.09-.09c-.03,0-.03.09-.03.09l-.12-.15s-.04.04-.04.04c0,0-.06-.09-.06-.12,0-.03-.05-.06-.05-.06,0,0-.09.1-.15.13,0,0,0-.06-.01-.09s-.09.04-.09.04c0,0-.05-.1,0-.2h0Z"/>
        <path class="cls-2" d="M15.04,5.35v.05s.06-.01.09,0c0,0,0,.04-.02.06,0,0,.06-.01.09,0v.03s.06.03.06.03l-.07.06s.11.04.13.07c0,0-.07.05-.08.05-.01,0,0,.02.02.05h-.06s.02.05.02.08-.1.02-.1.02M15.51,5.7s.02-.11-.01-.13c0,0,.07.06.12.06.05,0,0-.09,0-.09,0,0,.07.03.1.04.03,0-.02-.07-.02-.07,0,0,.02-.04.07,0M14.51,5.08s0-.02,0-.04c-.06-.09.07.07.09.07M14.72,5.11s.04.03.06.03-.01-.09-.02-.1.08.03.11.04c.03,0,.04-.05.04-.05,0,0,.1.02.12.03M14.34,5.05v-.08M13.66,5.32s.03-.06.01-.08c0,0,.02.02.04.02.02,0,.01-.06.01-.06h.02s.06-.02.05-.04.04.03.04.03c0,0,.03-.03.03-.05s.04.03.04.03c0,0,.04,0,.04-.03s.05,0,.05,0c0,0,.02-.03.02-.05M13.46,5.37s.02-.06,0-.09M12.81,5.54s.02-.1,0-.11.03.01.06.02M13.13,5.44s-.05-.05-.1-.05M12.58,5.62s.02-.06.01-.09M13.28,6.96l.03-.07.04.1.03-.06v.02s.08-.07.08-.07l.07.11M14.66,6.52l.05-.09.06.03.03-.09.06.04.04-.08.07.02v-.06s.06.03.07.05c.02.02,0-.07,0-.07l.06.03s.04-.04-.02-.07M14.84,6.41l.06.09.05-.06.05.1.06-.04.09.05.04-.03.1.07.04-.08.09.03.06-.1M13.15,6.19s.04-.06.02-.09c-.02-.03.08.05.08.05,0,0,.02-.06,0-.09-.02-.03.11.09.11.09,0,0,.02-.1,0-.12s.12.03.12.03c0,0,.06-.02.04-.05s.09.04.09.04c0,0,.03-.07,0-.1-.03-.03.09.04.09.04l-.04-.08h.09s0-.08,0-.08M14.58,7.07l.06-.03.05.05.06-.09.07.07v-.07s.09.03.09.03l.02-.04.09.05v-.06s.05.01.05.01v-.04"/>
        <path class="cls-20" d="M11.35,10.28s0-.13.01-.19c.02-.06.13.15.19.17.06.03.42-.14.42-.14l.09-.16.05.13s.1-.12.13-.16,0,.09-.03.13.09.06.07.15.12-.06.12-.06l.33.03s.06-.2.15-.32l.03.13.14-.14c.15.4.48.84,1.14,1.08.62-.23.94-.63,1.11-1.01l.19.19s.15-.04.17-.06c.03-.01.34.11.34.11,0,0,.06.02.09.04s0-.09,0-.09c0,0,.16.03.15.12,0,0,.04-.08.06-.09s.1.07.12.1c.01.03.36.07.4.1,0,0,.04.04.04.07,0,0,.07,0,.13,0,0,0-.04.02-.04.07,0,.04-.02.08-.06.1-.04.02,0,.04.06.04.06,0,0,.08-.12.12,0,0-.03.06.02.09,0,0-.1,0-.12-.02,0,0-.03.07-.03.1,0,0-.11-.04-.14-.05,0,0-.04.04-.01.06,0,0-.2-.02-.23-.09,0,0-.07.02-.06.05,0,0-.14-.09-.18-.09l-.03.05s-.09-.06-.12-.06c-.03,0,0,.04,0,.04l-.13-.08-.05.08s-.11-.05-.14-.07c-.03-.02-.03.04-.06.05,0,0-.04-.06-.1-.05,0,0-.02.07-.01.09l-.2-.04s-.01.04,0,.06c0,0-.12-.03-.15-.06v.06s-.11,0-.13-.03l-.06.09h-.09l-.02.08s-.16-.06-.18-.02c-.01.03-.01.07-.01.07h-.13s-.04.06-.04.06c0,0-.18-.07-.22-.04,0,0-.09.05-.12.07-.05-.05-.08-.07-.13-.08-.05,0-.15.06-.19.03,0,0,0-.05-.03-.06-.03-.01-.08-.01-.1.02,0,0-.02-.03-.06-.09-.03-.06-.09,0-.09,0v-.07s-.11,0-.11,0c-.06,0-.07-.06-.07-.06,0,0-.15.02-.17,0l.04-.04s-.21.04-.25.03c-.05-.01.05-.07.05-.07l-.23-.06s-.24.03-.27.03-.04-.05-.04-.05c0,0-.05.04-.09.06,0,0-.03-.09-.01-.09,0,0-.14.04-.15.07,0,0-.03-.06-.03-.08,0,0-.06.1-.09.12s0-.05,0-.05c0,0-.08.1-.11.11v-.07s-.23.12-.3.11c0,0,0-.05.02-.06h-.15s-.08-.03-.12-.04c-.03,0,.05-.04.11-.03,0,0-.16-.06-.21-.03,0,0-.02-.06.06-.08,0,0-.11-.11-.17-.1,0,0,.07-.04.13-.02,0,0-.07-.18-.11-.2,0,0,.15-.03.2,0h0Z"/>
      </g>
      <g>
        <path class="cls-37" d="M14.18,11.89c.61,0,.96-.22,1.16-.35.46-.31.56-.32.63-.31.09,0,.21.04.22.11,0,.12-.18.17-.29.17s-.4-.07-.4-.07l-.08.05c.05.02.64.22.75.04.12-.19.23-.49.23-.49,0,0-.13-.23-.42-.23s-.57.18-.76.32-.43.33-1.06.33-.87-.19-1.06-.33-.47-.32-.76-.32-.42.23-.42.23c0,0,.12.3.23.49.11.19.7-.01.75-.04l-.07-.05s-.29.07-.4.07-.3-.05-.29-.17c0-.08.13-.11.22-.11.08,0,.17,0,.63.31.2.13.55.34,1.16.35"/>
        <path class="cls-37" d="M13.2,11.17s0-.05,0-.13c-.01-.1-.07-.12-.11-.11-.03.01-.09.08-.09.08h0s-.05-.03-.08-.05c.02-.02.15-.1.17-.1.03,0,.4.15.52.25.03.03.05.19.03.25-.2-.05-.33-.13-.43-.2h0M13.02,11.55s-.08.08-.08.23c0,.17.12.18.21.18.1,0,.18-.06.18-.24,0,0-.16-.07-.3-.16M15.15,11.17s0-.05.01-.13c.01-.1.06-.12.11-.11.03.01.09.08.09.08h0s.05-.03.08-.05c-.02-.02-.15-.1-.17-.1-.03,0-.4.15-.52.25-.03.03-.05.19-.03.25.2-.05.33-.13.43-.2h0M15.32,11.55s.08.08.08.23c0,.17-.12.18-.21.18-.1,0-.18-.06-.18-.24,0,0,.16-.07.3-.16"/>
      </g>
      <path class="cls-44" d="M12.85,11.43s-.29.07-.4.07-.3-.05-.29-.17c0-.08.13-.1.22-.11.06,0,.15,0,.47.21M15.5,11.43s.29.07.4.07.3-.05.29-.17c0-.08-.13-.1-.22-.11-.06,0-.15,0-.47.21M13.2,11.18s-.06-.04-.09-.06c-.04-.03-.08-.06-.12-.09,0,0,.06-.08.09-.08.05-.02.1,0,.11.1,0,.08,0,.13,0,.13M13,11.94c.05.03.11.03.14.02.1,0,.18-.06.18-.24,0,0,.12.06.33.11,0,0,.03.04.04.12,0,.07-.04.14-.09.13l-.45-.08c-.1-.02-.14-.06-.14-.06M15.15,11.18l.09-.06s.08-.06.12-.09c0,0-.06-.08-.09-.08-.05-.02-.1,0-.11.1,0,.04,0,.09-.01.13M15.34,11.94c-.05.03-.11.03-.14.02-.1,0-.18-.06-.18-.24,0,0-.12.06-.32.11,0,0-.03.04-.04.12,0,.07.04.14.09.13l.45-.08c.1-.02.14-.06.14-.06"/>
      <g>
        <g>
          <path class="cls-7" d="M14.18,11.89c.61,0,.96-.22,1.16-.35.46-.31.56-.32.63-.31.09,0,.21.04.22.11,0,.12-.18.17-.29.17s-.4-.07-.4-.07l-.08.05c.05.02.64.22.75.03.12-.19.23-.49.23-.49,0,0-.13-.23-.42-.23s-.57.18-.76.32-.43.33-1.06.33-.87-.19-1.06-.33-.47-.32-.76-.32-.42.23-.42.23c0,0,.12.3.23.49.11.19.7-.01.75-.03l-.07-.05s-.29.07-.4.07-.3-.05-.29-.17c0-.08.13-.1.22-.11.08,0,.17,0,.63.31.2.13.55.34,1.16.35h0Z"/>
          <path class="cls-11" d="M12.85,11.43s-.29.07-.4.07-.3-.05-.29-.17c0-.08.13-.11.22-.11.06,0,.15,0,.47.21h0ZM15.5,11.43s.29.07.4.07.3-.05.29-.17c0-.08-.13-.11-.22-.11-.06,0-.15,0-.47.21h0ZM13.2,11.18s-.06-.04-.09-.06c-.04-.03-.08-.06-.12-.09,0,0,.06-.08.09-.08.05-.02.1,0,.11.11,0,.08,0,.13,0,.13h0Z"/>
          <path class="cls-7" d="M13.2,11.17s0-.05,0-.13c-.01-.1-.07-.12-.11-.11-.03.01-.09.08-.09.08h0s-.05-.03-.08-.05c.02-.02.15-.1.17-.1.03,0,.4.15.52.25.03.03.05.19.03.25-.2-.05-.33-.13-.43-.2M13.02,11.55s-.08.08-.08.23c0,.17.12.18.21.18.1,0,.18-.06.18-.25,0,0-.16-.07-.3-.16h0Z"/>
          <path class="cls-7" d="M13.09,11.59s-.06.07-.08.18c0,.09.05.13.12.13.1,0,.14-.15.09-.22l-.14-.08Z"/>
          <path class="cls-11" d="M13,11.94c.05.03.11.03.14.02.1,0,.18-.06.18-.24,0,0,.12.06.33.11,0,0,.03.04.04.12,0,.07-.04.14-.09.13l-.45-.08c-.1-.02-.14-.06-.14-.06h0ZM15.15,11.18l.09-.06s.08-.06.12-.09c0,0-.06-.08-.09-.08-.05-.02-.1,0-.11.11,0,.04,0,.09-.01.13h0Z"/>
          <path class="cls-7" d="M15.15,11.17v-.13c.02-.1.08-.12.12-.11.03.01.09.08.09.08h0s.05-.03.08-.05c-.02-.02-.15-.1-.17-.1-.03,0-.4.15-.52.25-.03.03-.05.19-.03.25.2-.05.33-.13.43-.2M15.32,11.55s.08.08.08.23c0,.17-.12.18-.21.18-.1,0-.18-.06-.18-.25,0,0,.16-.07.3-.16h0Z"/>
          <path class="cls-7" d="M15.26,11.59s.06.07.08.18c0,.09-.05.13-.12.13-.1,0-.14-.15-.09-.22l.14-.08ZM15.34,11.94c-.05.03-.11.03-.14.02-.1,0-.18-.06-.18-.24,0,0-.12.06-.32.11,0,0-.03.04-.04.12,0,.07.04.14.09.13l.45-.08c.1-.02.14-.06.14-.06h0Z"/>
        </g>
        <path class="cls-1" d="M13.63,11.87s.09.06-.02.15M13.36,11.83l.27.12M13.41,11.89l.2.09M13.48,11.84l.15.07M14.72,11.87s-.09.06.02.15M14.99,11.83l-.27.12M14.94,11.89l-.2.09M14.87,11.84l-.15.07"/>
      </g>
      <path class="cls-32" d="M12.56,11.05s0,.01,0,.02c0,0,0,.01,0,.02,0,.02-.02.04-.03.05-.02.01-.04.01-.06,0-.01,0-.02,0-.03-.01,0,0-.02,0-.02-.02h0s-.01,0-.01,0v-.08s.03,0,.03,0c0,.01,0,.02,0,.03,0,0,0,.02.01.02,0,0,.01.01.02.02,0,0,.02,0,.03.01,0,0,.01,0,.02,0,0,0,.01,0,.01,0,0,0,0,0,.01-.01s0,0,0-.02c0,0,0-.02,0-.03,0,0-.01-.02-.02-.02h-.02s-.02-.03-.02-.03c-.01,0-.02-.02-.03-.03,0-.01,0-.02,0-.04,0,0,0-.02.01-.02,0,0,.01-.01.02-.02,0,0,.02,0,.02,0,0,0,.02,0,.03,0,.01,0,.02,0,.03.01s.01,0,.02.02h0s.01,0,.01,0v.08s-.03,0-.03,0v-.03s0-.02-.01-.02c0,0,0-.01-.01-.02,0,0-.01,0-.02-.01,0,0-.02,0-.03,0,0,0-.01.01-.02.02,0,0,0,.02,0,.03s0,.01.02.02c0,0,.01,0,.02.01h.02s.01.02.02.03c0,0,0,0,.01.02M12.89,11.09s0,0-.01,0c0,0-.01,0-.02,0,0,0,0,0-.01,0,0,0-.01.02-.02.02l-.05.09s-.01.02-.02.03c0,0-.02,0-.03.01-.01,0-.02,0-.03,0,0,0-.02,0-.03-.01-.01,0-.02-.01-.03-.02s-.01-.02-.02-.03c0,0,0-.02,0-.03,0,0,0-.02,0-.02l.07-.12s0,0,0,0c0,0,0,0,0,0,0,0,0,0,0,0h0s0-.02,0-.02l.09.05h0s0,0-.01,0c0,0,0,0-.01,0,0,0,0,0,0,0,0,0,0,0,0,0l-.06.11s0,.01,0,.02c0,0,0,.01,0,.02,0,0,0,.01,0,.02s.01.01.02.02c.01,0,.02,0,.03,0,.02,0,.03,0,.04-.02,0,0,0,0,.01-.02l.05-.08s0-.02.01-.03,0-.01,0-.02c0,0,0,0-.01-.01,0,0,0,0-.01,0h0s.08.04.08.04h0ZM13.01,11.3s0,.02,0,.02c0,0,0,.02,0,.03s-.01.02-.02.02c0,0-.02,0-.03,0,0,0-.02,0-.03,0,0,0-.02,0-.03-.01l-.1-.06h0s0,0,.01,0,0,0,.01,0c0,0,0,0,0,0,0,0,0,0,0,0l.08-.14s0,0,0,0c0,0,0,0,0,0,0,0,0,0,0,0h0s0-.02,0-.02l.09.05s.01,0,.02.01c0,0,.01.01.01.02,0,.01,0,.03,0,.05,0,.01-.02.02-.03.02,0,0-.01,0-.02,0,0,0-.01,0-.02,0h0s.01.01.02.02c0,0,.01.01.01.02h0ZM13,11.25s.01,0,.02,0c0,0,0-.01.01-.02,0-.01,0-.02,0-.03,0,0-.01-.02-.02-.03h-.01s-.01-.01-.01-.01l-.04.08h.02s.01.02.02.02c0,0,.01,0,.02,0h0ZM12.98,11.32s0-.02,0-.04c0-.01-.01-.02-.03-.03h-.02s0-.01,0-.01l-.04.07s0,.01,0,.02c0,0,0,.01.02.02.01,0,.03.01.04,0s.02-.01.03-.03h0ZM13.5,11.44s0,0-.01,0c0,0-.01,0-.02,0,0,0,0,0-.01.01,0,0,0,.02-.01.03l-.04.09s-.01.02-.02.03c0,0-.02.01-.03.01,0,0-.02,0-.03,0,0,0-.02,0-.03,0-.01,0-.02-.01-.03-.02,0,0-.02-.02-.02-.02,0,0,0-.02,0-.03,0,0,0-.02,0-.03l.05-.13s0,0,0,0c0,0,0,0,0,0,0,0,0,0,0,0h0s0-.02,0-.02l.09.04h0s0,0-.01,0c0,0,0,0-.01,0,0,0,0,0,0,0s0,0,0,0l-.05.12s0,.01,0,.02c0,.01,0,.03.01.04,0,0,.01.01.03.02.01,0,.02,0,.03,0,0,0,.02,0,.02,0,0,0,.01,0,.02-.01,0,0,0-.01.01-.02l.04-.09s0-.02,0-.03,0-.01,0-.02c0,0,0,0-.01-.01,0,0,0,0-.01,0h0s.09.03.09.03h0M13.75,11.74l-.1-.03h0s.01,0,.01,0c0,0,0,0,.01,0,0,0,0,0,0,0,0,0,0,0,0,0l.05-.16h0s-.13.17-.13.17h0s-.02-.22-.02-.22h0s-.04.13-.04.13c0,.01,0,.02,0,.03,0,0,0,.01,0,.02,0,0,0,0,.01.01s.01,0,.01,0h0s-.09-.02-.09-.02h0s.02,0,.02,0c0,0,0,0,.01,0,0,0,0,0,.01-.01,0,0,0-.02.01-.03l.03-.11s0-.01,0-.02c0,0,0,0,0-.01,0,0,0,0-.01,0,0,0,0,0-.01,0h0s.08.01.08.01l.02.19.1-.12s0,0,0-.01c0,0,0,0,0-.01l.07.02h0s0,0-.01,0c0,0,0,0-.01,0,0,0,0,0,0,0,0,0,0,0,0,0l-.05.16s0,0,0,0c0,0,0,0,0,0,0,0,0,0,0,0,0,0,0,0,.01,0h0ZM13.99,11.67s.01.01.01.02,0,.02,0,.03c0,0,0,.02-.01.03,0,0-.01.01-.02.02,0,0-.02,0-.03,0,0,0-.02,0-.03,0h-.11s0-.03,0-.03c0,0,0,0,.01,0,0,0,0,0,.01,0,0,0,0,0,0,0,0,0,0,0,0,0l.02-.16s0,0,0,0c0,0,0,0,0,0,0,0,0,0-.01,0h0s0-.01,0-.01h.11s.02.02.02.02c0,0,.01,0,.02.01,0,0,.01.01.01.02s0,.02,0,.02c0,.01,0,.03-.02.04,0,0-.01,0-.02,0,0,0-.01,0-.02,0h0s.01,0,.02,0c0,0,.01,0,.02.01h0ZM13.96,11.63s0,0,.01-.01c0,0,0-.01,0-.02,0-.01,0-.02,0-.03s-.02-.01-.03-.01h-.01s-.01,0-.01,0v.09s0,0,0,0c0,0,.02,0,.02,0,0,0,.01,0,.02,0h0ZM13.97,11.7s0-.03,0-.04c0-.01-.02-.02-.04-.02h-.03s-.01.08-.01.08c0,0,0,.01,0,.02,0,0,.01,0,.02,0,.02,0,.03,0,.04,0s.02-.02.02-.04h0ZM14.29,11.78h-.06l-.04-.06-.04-.05h-.02v.07s0,0,0,0c0,0,0,0,0,0,0,0,0,0,.01,0h.01s-.1.01-.1.01h0s.01-.01.01-.01c0,0,0,0,.01,0,0,0,0,0,0,0,0,0,0,0,0-.01v-.17s0,0,0-.01c0,0,0,0,0,0,0,0,0,0-.01,0,0,0,0,0-.01,0h0s.11-.01.11-.01c0,0,.02,0,.03,0s.02,0,.02,0c0,0,.01,0,.02.02s0,.02,0,.03c0,0,0,.02,0,.02s0,.01-.01.02c0,0-.01,0-.02.01,0,0-.02,0-.02,0l.03.04.03.04s.01.02.02.02c0,0,0,0,.01,0,0,0,0,0,.01,0h0s0,.01,0,.01ZM14.2,11.6s0-.02-.01-.03c0,0-.02-.01-.03-.01h-.03v.1h.02s.03,0,.04-.01.02-.02.02-.04h0ZM14.56,11.76h-.1s0,0,0,0c0,0,.02,0,.02,0,0,0,0,0,0,0,0,0,0,0,0,0,0,0,0,0,0,0l-.02-.05h-.08s0,.03,0,.03v.02s0,0,0,.01c0,0,0,0,0,0,0,0,0,0,.01,0s.01,0,.02,0h0s-.09.02-.09.02h0s0-.01.01-.01c0,0,0,0,.01,0,0,0,0,0,0-.01,0,0,0,0,0-.01l.03-.1.03-.1h.01s.09.19.09.19c0,0,0,0,0,0,0,0,0,0,0,0,0,0,0,0,.01,0,0,0,0,0,.01,0h0s0,.01,0,.01ZM14.46,11.67l-.04-.09-.03.09h.07ZM14.89,11.49h-.01s-.01-.01-.02-.02-.02-.01-.02-.01h-.01s-.02,0-.02,0h-.04s.02.1.02.1h.03s.01-.01.02-.01c0,0,0,0,0-.01,0,0,0,0,0-.01,0,0,0-.01,0-.02h.01s.02.08.02.08h-.01s0,0,0-.01c0,0,0,0,0-.01,0,0,0,0-.01,0,0,0-.01,0-.02,0h-.03s.02.08.02.08c0,0,0,0,0,0,0,0,0,0,0,0,0,0,0,0,.01,0,0,0,0,0,.01,0h0s-.1.04-.1.04h0s.01-.02.01-.02c0,0,0,0,0,0,0,0,0,0,0,0,0,0,0,0,0-.01l-.04-.16s0,0,0,0c0,0,0,0,0,0,0,0,0,0-.01,0,0,0,0,0-.01,0h0s.18-.06.18-.06l.02.06ZM15.15,11.47l.03.06-.16.08h0s0-.02,0-.02c0,0,0,0,0,0,0,0,0,0,0,0,0,0,0,0,0-.01l-.07-.15s0,0,0,0c0,0,0,0,0,0,0,0,0,0-.01,0,0,0,0,0-.01,0h0s.09-.05.09-.05h0s0,.01,0,.02c0,0,0,0,0,0,0,0,0,0,0,0,0,0,0,0,0,0l.07.14s0,.01,0,.01c0,0,0,0,0,0,0,0,0,0,.01,0,0,0,.01,0,.02,0h.01s0-.01.01-.01c0,0,0,0,0,0,0,0,0,0,0,0,0,0,0-.02,0-.03v-.03s.01,0,.01,0ZM15.27,11.24s.03.01.04.02c.01.01.02.02.03.04,0,.02.02.03.02.05,0,.02,0,.03,0,.05,0,.01,0,.03-.02.04,0,.01-.02.02-.03.03-.01,0-.03.01-.04.02s-.03,0-.04,0c-.01,0-.03-.01-.04-.02-.01-.01-.02-.02-.03-.04,0-.01-.02-.03-.02-.05,0-.02,0-.03,0-.05,0-.01,0-.03.02-.04,0-.01.02-.02.03-.03.01,0,.03-.01.04-.01.01,0,.03,0,.04,0h0ZM15.34,11.39s0-.02,0-.04c0-.01-.01-.03-.02-.04,0-.01-.02-.02-.03-.04,0,0-.02-.02-.03-.02,0,0-.02,0-.03,0-.01,0-.02,0-.03,0-.01,0-.02.01-.02.02,0,0,0,.02,0,.03,0,.01,0,.02,0,.04,0,.01.01.03.02.04,0,.01.02.02.03.03,0,0,.02.02.03.02.01,0,.02,0,.03,0,.01,0,.02,0,.03,0,0,0,.02-.01.02-.02,0,0,0-.02,0-.03h0ZM15.63,11.24l-.05.04-.06-.02-.06-.02h-.02s.04.07.04.07c0,0,0,0,0,0,0,0,0,0,.01,0,0,0,0,0,0,0,0,0,0,0,.01,0h0s-.08.07-.08.07h0s0-.02,0-.02c0,0,0,0,0,0,0,0,0,0,0,0,0,0,0,0,0,0l-.1-.14s0,0,0,0c0,0,0,0-.01,0,0,0-.01,0-.02,0h0s.09-.07.09-.07c0,0,.02-.01.02-.01,0,0,.02,0,.02,0,0,0,.02,0,.02,0,0,0,.01,0,.02.02,0,0,0,.01.01.02,0,0,0,.01,0,.02,0,0,0,.01,0,.02,0,0,0,.01-.01.02h.05s.04.03.04.03c.01,0,.02,0,.03,0,0,0,0,0,.01,0,0,0,0,0,0,0h0s0,0,0,0ZM15.46,11.15s-.02-.02-.03-.02c-.01,0-.02,0-.04,0l-.02.02.06.08h.02s.02-.03.02-.05,0-.03-.01-.04h0ZM15.82,11.09l.02.07-.18.07h0s0-.01.01-.02,0,0,0,0c0,0,0,0,0,0,0,0,0,0,0-.01l-.06-.16s0,0,0,0c0,0,0,0,0,0,0,0,0,0-.01,0,0,0,0,0-.01,0h0s.17-.07.17-.07l.02.05h-.01s-.01,0-.02-.02c-.01,0-.02,0-.03,0,0,0,0,0-.01,0h-.02s-.03.02-.03.02l.03.09h.02s.01-.01.02-.02c0,0,0,0,0-.01,0,0,0,0,0-.01,0,0,0-.01,0-.02h.01s.03.08.03.08h-.01s0,0,0-.01c0,0,0,0-.01,0,0,0,0,0-.01,0,0,0-.01,0-.02,0h-.02s.02.07.02.07c0,0,0,.01,0,.01,0,0,0,0,0,0,0,0,0,0,.01,0h.02s.01-.01.01-.01h.01s0-.01.01-.01,0,0,0,0c0,0,0-.02,0-.03v-.03s.01,0,.01,0ZM16.01,10.93s.02.02.03.03c0,.01.01.03.02.05,0,.02,0,.03,0,.05,0,.01-.01.03-.02.04,0,.01-.02.02-.03.03-.01,0-.03.01-.04.01-.02,0-.03,0-.05,0-.01,0-.03-.01-.04-.02-.01,0-.02-.02-.03-.03,0-.01-.01-.03-.01-.05,0-.02,0-.03,0-.05,0-.01.01-.03.02-.04.02-.02.04-.04.07-.04.01,0,.03,0,.04,0,.01,0,.03.01.04.02h0ZM16.01,11.1s0-.02,0-.04c0-.01,0-.03,0-.04,0-.01,0-.03-.01-.04,0-.01-.01-.02-.02-.03,0,0-.02-.01-.03-.02-.01,0-.02,0-.03,0-.01,0-.02,0-.03.01,0,0-.02.02-.02.03,0,.01,0,.02,0,.03,0,.01,0,.03,0,.04,0,.02,0,.03,0,.04,0,.01.01.02.02.03,0,0,.02.01.03.02,0,0,.02,0,.03,0,.01,0,.02,0,.03-.01,0,0,.02-.02.02-.03h0Z"/>
      <path class="cls-47" d="M13.17,10.13c-.07-.11-.12-.23-.16-.36l1.17-1.03,1.17,1.02c-.04.12-.09.24-.17.37h0s-.09-.02-.09-.02c0,0-.04.03-.07.04-.04,0-.08-.03-.08-.03,0,0-.05.04-.1.03-.05,0-.07-.04-.07-.04,0,0-.05.04-.09.03-.03,0-.06-.03-.06-.03,0,0-.03.04-.08.03-.04,0-.08-.03-.08-.03,0,0-.07.03-.11.03-.04,0-.08-.04-.08-.04,0,0-.06.04-.08.04s-.1-.04-.1-.04c0,0-.08.03-.11.03-.03,0-.11-.03-.11-.03,0,0-.08.02-.11.02-.04,0-.09-.02-.09-.02,0,0-.06.03-.1.02-.02,0-.05-.01-.07-.02,0,0-.07.03-.12.02-.04,0-.09-.04-.09-.04,0,0,0,.02-.09.04h0"/>
      <g>
        <g>
          <path class="cls-34" d="M14.18,7.57v1.18l-1.17,1.03c-.11-.33-.12-.62-.12-.75v-1.46h1.29"/>
          <path class="cls-35" d="M14.18,7.57v1.18l1.16,1.03c.11-.33.12-.62.12-.75v-1.46h-1.28"/>
        </g>
        <g>
          <path class="cls-26" d="M13.42,9.88c.09.05.06.03.24.1.15.05.32.08.57.08.22,0,.34-.02.41-.04.07-.02.09-.05.09-.05l-.18.18s-.72.04-.86-.05c-.05-.03-.16-.12-.27-.22h0Z"/>
          <path class="cls-4" d="M14.49,9.54s.23.13,0,.38M13.45,9.9l.33-.32-.04.43M13.92,10.04v-.7M14.49,10.04v-.75M14.2,10.06v-.81"/>
          <g>
            <path class="cls-23" d="M13.92,9.37l-.15.05.15.02v-.06M14.2,9.26l-.16.06h.16s0-.06,0-.06ZM14.49,9.3l-.16.06h.16s0-.06,0-.06h0ZM14.58,9.65s.09-.03.09-.03c0,0,.03.11,0,.17l-.09-.02s0-.07,0-.13h0Z"/>
            <g>
              <path class="cls-18" d="M13.5,9.85l.28-.27v.16s-.16.09-.16.16l-.12-.05M13.65,9.91s.03-.09.11-.13v.17s-.11-.04-.11-.04h0ZM14.05,9.44s.12-.02.2,0c0,0-.01.12,0,.14,0,0-.16-.04-.22.02,0,0-.02-.11.02-.16h0ZM13.81,9.46s.12-.02.2,0c0,0-.02.13,0,.15,0,0-.13-.07-.19-.01,0,0-.04-.09,0-.14h0Z"/>
              <path class="cls-18" d="M13.8,9.62s.12-.01.2,0c0,0-.01.12,0,.14,0,0-.15-.03-.22.02,0,0-.03-.11.01-.16h0ZM14.03,9.59s.17-.02.25,0c0,0-.03.09,0,.16,0,0-.18-.05-.25,0,0,0-.06-.11-.01-.16h0ZM13.79,9.77l.22.02s-.02.16,0,.19c0,0-.18-.04-.22.02,0,0-.06-.15,0-.22h0ZM14.04,9.77s.19-.01.28,0c0,0-.05.12,0,.23,0,0-.25-.07-.29-.01,0,0-.06-.15,0-.22h0ZM14.34,9.44s.12-.02.2,0c0,0-.01.12,0,.14,0,0-.16-.04-.22.02,0,0-.02-.11.02-.16h0ZM14.34,9.59s.12-.01.2,0c0,0-.01.12,0,.14,0,0-.16-.03-.22.02,0,0-.02-.11.02-.16h0ZM14.35,9.76s.12-.02.2,0c0,0-.03.18-.02.2,0,0-.13-.06-.19,0,0,0-.04-.14,0-.19h0Z"/>
            </g>
          </g>
          <path class="cls-21" d="M14.59,9.77s.04.14.09.15l-.06.08s-.08-.06-.09-.12c0,0,.05-.06.06-.11h0Z"/>
        </g>
      </g>
      <path class="cls-40" d="M15.17,10.15c-.19.31-.49.6-.99.78-.51-.18-.82-.49-1-.79h0c.08-.02.09-.04.09-.04,0,0,.05.03.09.04.05,0,.12-.02.12-.02,0,0,.03.01.07.02.03,0,.1-.02.1-.02,0,0,.05.02.09.02.03,0,.11-.02.11-.02,0,0,.08.03.11.03.03,0,.11-.03.11-.03,0,0,.08.04.1.04s.08-.04.08-.04c0,0,.04.05.08.04.04,0,.11-.03.11-.03,0,0,.04.02.08.03.05,0,.08-.03.08-.03,0,0,.02.02.06.03.04,0,.09-.03.09-.03,0,0,.02.03.07.04.05,0,.1-.03.1-.03,0,0,.03.04.08.03.03,0,.07-.04.07-.04l.09.03"/>
      <g>
        <path class="cls-13" d="M15.12,10.22s-.05-.02-.05-.02c0,0-.05.05-.1.04-.05,0-.08-.04-.08-.04,0,0-.06.05-.09.04-.04,0-.06-.03-.06-.03,0,0-.03.04-.08.03-.05,0-.09-.03-.09-.03,0,0-.07.03-.12.04s-.08-.04-.08-.04c0,0-.1.04-.13.04-.02,0-.1-.04-.1-.04,0,0-.05.03-.08.03-.03,0-.12-.04-.12-.04,0,0-.08.02-.12.02s-.09-.02-.09-.02c0,0-.07.03-.11.02s-.07-.02-.07-.02c0,0-.08.03-.12.02s-.1-.04-.1-.04c0,0,0,.02-.1.04h0"/>
        <g>
          <path class="cls-31" d="M13.37,10.36s-.02,0-.02,0h.02s-.02,0-.02,0c.08.11.2.22.32.3s.27.18.51.25c.25-.1.32-.14.49-.25.17-.12.25-.2.35-.32-.07.04-.06.04-.1.04-.04,0-.07-.04-.07-.04,0,0-.03.04-.08.04-.05,0-.09-.04-.09-.04,0,0-.06.04-.12.04-.05,0-.08-.04-.08-.04,0,0-.11.03-.13.03-.02,0-.1-.03-.1-.03,0,0-.05.03-.08.03-.03,0-.12-.04-.12-.04,0,0-.08.02-.12.02s-.09-.02-.09-.02c0,0-.07.03-.11.02-.02,0-.05-.01-.07-.02,0,0-.08.03-.12.02s-.1-.04-.1-.04c0,0,0,.02-.08.03h0Z"/>
          <path class="cls-31" d="M14.18,10.92c.26-.11.31-.14.47-.24-.03,0-.11-.03-.08-.03,0,0-.03.03-.06.03-.03,0-.12-.04-.12-.04,0,0-.08.02-.12.02s-.09-.02-.09-.02c0,0-.07.03-.11.02-.02,0-.05-.01-.07-.02,0,0-.08.03-.12.02-.05,0-.1-.04-.1-.04,0,0-.07.04-.11.04.13.09.26.18.51.26h0Z"/>
        </g>
        <g>
          <path class="cls-26" d="M15.37,8.89s-.07.02-.07.02l-.15-.18-.7-.86.07-.07.63.74s.13.13.23.27c0,0,0,.05-.02.08h0Z"/>
          <path class="cls-25" d="M14.69,7.98l-.11-.13s-.09.01-.1.06c0,0-.06.1-.23.11,0,0,.05.19.24.29,0,0,.07-.2.14-.23,0,0,.07-.05.07-.1h0Z"/>
          <path class="cls-26" d="M14.41,8.58s-.03,0-.06.01c-.02.01-.05,0-.05-.02,0-.02,0-.02.03-.04.04-.02.1-.03.13-.01l-.06.06M15.17,7.82s-.01-.04,0-.06c.02-.02.02-.06-.03-.04s-.06.07-.02.15l.04-.05h0Z"/>
          <path class="cls-25" d="M14.39,8.6l.8-.79.2.21s-.04-.02-.06,0c-.01.01.02.05.02.05,0,0-.04-.01-.05,0-.02.01,0,.06,0,.06,0,0-.03-.02-.05-.01-.01.01,0,.06,0,.06,0,0-.04-.01-.05,0s0,.06,0,.06c0,0-.04-.02-.06,0s.01.05.01.05c0,0-.05-.02-.08.01s0,.06,0,.06c0,0-.04-.02-.05-.01s0,.06,0,.06c0,0-.04-.02-.06,0-.02.03,0,.05,0,.05,0,0-.03-.02-.05-.01s0,.06,0,.06c0,0-.03-.02-.06,0-.02.03,0,.05,0,.05,0,0-.03-.03-.06,0-.03.03,0,.06,0,.06,0,0-.04-.02-.06,0-.02.02,0,.05,0,.05,0,0-.03-.02-.05,0-.02.01,0,.06,0,.06,0,0-.03-.04-.05-.02-.02.02,0,.06,0,.06,0,0-.03-.04-.05-.02-.02.02.01.06.01.06,0,0-.05-.02-.04-.02l-.16-.19Z"/>
        </g>
      </g>
      <path class="cls-45" d="M15.14,7.87l-.06.06v.21s.03-.06.05-.02c0,0,0-.05.02-.04-.01,0,0-.21,0-.21M15.03,7.99l-.05.04.02.21s.01-.08.03-.02v-.07s0-.17,0-.17M14.54,8.46l-.04.05v.13s.02-.08.04-.02v-.07s0-.08,0-.08"/>
      <path class="cls-10" d="M14.49,7.93s.11.14.11.14M14.53,7.99s-.02.06-.04.09M14.54,8s0,.05-.04.08M14.55,8.02s0,.03-.02.05M14.56,8.03s0,.02-.01.02M14.46,7.98s-.09.06-.13.08M14.44,8.01s-.06.05-.09.06M14.43,8.04s-.04.04-.06.05M14.42,8.08s-.03.02-.04.03"/>
      <g>
        <path class="cls-26" d="M13.09,7.67s-.04.01-.08.04c-.05.05-.07.1,0,.16l.35.32c.05.05.12.06.15.09l.36.37s.07.07.04.1c-.03.05,0,.06,0,.06.05.01.02-.02.03-.04,0-.03.05-.06.07-.08.02,0,.03,0,.03,0,.02,0,.03-.02,0-.04-.02-.03-.05.02-.09,0,0,0-.05-.03-.07-.06l-.09-.09s-.11-.15-.25-.28c-.04-.03-.03-.12-.06-.15,0-.02-.27-.29-.37-.39-.02-.01-.03-.03-.05-.03h0Z"/>
        <path class="cls-6" d="M13.11,7.81l.37.36"/>
        <path class="cls-33" d="M13.61,7.98s.02-.04.03-.07c0-.01.1-.17.15-.18l.31.23s-.13.21-.15.2c0,0-.36-.15-.35-.18h0Z"/>
      </g>
      <path class="cls-41" d="M13.8,8.03s-.11-.06-.17-.1l-.03.05s.28.14.32.17c0,0-.05-.06-.13-.12h0Z"/>
      <g>
        <path class="cls-9" d="M13.63,7.92l.14.09c.08.05.12.11.18.14"/>
        <path class="cls-26" d="M13.01,8.88l.7-.87s.08-.01.09.05l-.67.91s-.08,0-.12-.09h0Z"/>
      </g>
      <g>
        <path class="cls-12" d="M13.95,8.11s.02-.05.04-.08c.03-.04.04-.04.05-.06"/>
        <path class="cls-3" d="M13.29,7.57h1.78M15.21,7.57h.25v1.46c0,.29-.04,1.45-1.28,1.9-1.25-.45-1.29-1.61-1.29-1.9v-1.46h.25"/>
      </g>
      <g>
        <path class="cls-26" d="M14.77,5.64s-.07.03-.1.09c-.06.12-.05.19.14.27h0l.72.35c.14.07.2,0,.28.04l1.42.72c.12.05.19.07.17.13,0,.08.03.09.05.1.03.01.05.02.06-.02,0,0,0-.02-.01-.03s-.02-.03-.02-.05,0-.03.01-.04.02-.02.04-.05c.01-.01.02-.02.03-.02s.02,0,.03,0c.01,0,.02.02.04.02.05,0,0-.07-.03-.1-.07-.03-.08.04-.15.03,0,0-.13-.05-.18-.09-.09-.05-.21-.11-.24-.14-.09-.02-.77-.4-1.16-.59-.04-.03-.06-.16-.15-.21-.02-.03-.55-.27-.82-.41-.05-.02-.09-.03-.13-.03h0Z"/>
        <g>
          <path class="cls-19" d="M15.89,6.28s.01.02.02.02c0,.03,0,.07.02.1.02.03.02.04.05.05.04.02.17.09.26.04,0,0,.01,0,.02-.01,0,0-.03.11.08.16l.41.22s.04.07.02.17c0,.02-.01.03,0,.04.03.02.07.07.1.16,0,0,.08-.04.08-.09s-.03-.08-.04-.12c0-.04-.03-.12-.02-.15.01-.03.06-.04.08-.05s.04.01.03.03c0,.03-.02.02-.04.03,0,0,.03.05.02.09l.25.13s-.03.04-.04.06c-.01.02-.04.27-.11.39s-.1.09-.11.1c-.02.01-.04.04-.06.05-.02.01-.1.02-.12-.02-.02-.04-.03-.07-.08-.11s-.16-.14-.16-.19c0,0-.06.18-.05.33,0,0-.22.05-.43.05-.2,0-.3-.04-.3-.04,0,0-.03-.17-.02-.2,0,0-.03.11-.05.15-.03.05-.06.14-.12.15-.06,0-.1-.06-.11-.08v-.18h-.23s-.1.04-.13.03c-.03,0-.05-.03-.02-.04h.01s-.07.01-.07.01h-.11s0-.01,0-.01c0-.03.07-.06.11-.08.04-.02.09-.04.12-.04.05,0,.09,0,.16.01.02,0,.1.01.15.03.01,0,.03.01.02-.02,0-.04-.03-.15,0-.22.03-.05.02-.09.02-.14,0-.05-.03-.15-.03-.19,0-.15.12-.21.22-.25.11-.03.19-.07.18-.14,0-.07.02-.19,0-.24"/>
          <path class="cls-19" d="M16.34,5.98c.02.09.03.11.03.14,0,.03-.01.04,0,.07.02.06-.02.13-.06.21-.02.03-.04.08-.07.1-.09.06-.2-.01-.25-.04-.03-.01-.05-.03-.05-.06-.01-.03-.01-.06-.02-.1,0,0,0-.03-.02-.02-.03-.04-.03-.05-.04-.08-.01-.03.02-.06.05-.05-.02-.05-.02-.11,0-.16,0-.02-.01-.06.01-.05.12.05.26.04.39.04.01,0,.02-.02.03-.02,0,0,0,0,0,.01"/>
        </g>
        <path class="cls-28" d="M16.35,6.02s0-.06,0-.12c0-.03-.03-.04-.06-.07s-.04-.03-.06-.04c-.02,0-.05,0-.07-.01-.02,0-.06,0-.1,0-.05,0-.08,0-.12.03s-.07.05-.09.09c-.01.03-.03.07-.02.18,0,.11.03.09.03.09,0,0,.03-.04.05-.02v-.09s0-.07,0-.12c0,0,.12.05.24.05.08,0,.19,0,.19-.03l.02.06h0Z"/>
        <path class="cls-13" d="M16.19,6.15s0,.03.01.06M15.93,6.27s-.02.02-.03.02M16.36,6.12s-.07,0-.09,0c-.04.02-.02.06,0,.1,0,.02.03.05.01.06-.01.02-.02.01-.04.01,0,0-.02,0-.03,0-.02,0-.02.01-.04,0-.02,0-.01-.03,0-.05M16.16,6.13s-.03-.02-.07-.02c-.06,0-.06,0-.11.03M16.28,6.38s-.03-.02-.06-.01c0,0-.04-.01-.04-.01-.02,0-.03,0-.06.02M16.27,6.4s-.09,0-.15,0M16.13,6.41s.09.02.14,0"/>
      </g>
      <g>
        <path class="cls-29" d="M16.34,6.15s-.03-.02-.08,0c-.03.02.05.04.04.04.03,0,.04-.01.05-.03,0,0,0-.01,0-.01h0ZM16.12,6.17s-.05-.03-.08-.02-.02,0-.04.02c.03,0,.02,0,.04.02.02.01.03.02.06,0,.01,0,.02-.01.02-.02,0,0,0,0,0,0h0Z"/>
        <path class="cls-30" d="M16.31,6.18s-.02,0-.02-.02c0,0,0,0,0,0,0-.01,0-.02.02-.02.01,0,.02.01.02.02,0,.01,0,.02-.02.02ZM16.08,6.19s-.02-.01-.02-.02.01-.02.02-.02.02,0,.02.02,0,.02-.02.02Z"/>
      </g>
      <g>
        <path class="cls-13" d="M14.93,7.57s.03-.03.05-.04l.05-.03s.05-.01.06-.02M15.08,7.55h.02s.02-.02.03-.02c0,0,0,0,0,0,.02,0,.05-.01.06-.03M16.86,7.24s-.08.06-.09.14c0,.04-.03.08-.03.08M17.09,7.25s-.02.2-.16.36M17.07,7.04s.02.06,0,.08M16.68,7.41c-.03-.07-.12-.06-.12-.13"/>
        <path class="cls-13" d="M16.54,7.4c0-.08.02-.12.01-.23,0-.03-.01-.16,0-.22,0,0-.04.21.1.25M15.74,7.53c0-.11-.02-.16-.02-.16-.03-.15.03-.2,0-.24-.02-.03-.05-.1-.01-.23,0,0-.08.28.12.28s.19-.07.19-.07"/>
        <path class="cls-13" d="M16.56,6.95c0,.06,0,.22-.24.22-.07,0-.15-.05-.19-.09M16.06,7.02c0-.05,0-.12,0-.18M16.43,6.74c-.06,0-.12-.02-.24-.02M16.19,6.56c-.01.06,0,.15-.1.17M15.97,6.54s.02.09.02.12M15.99,6.73s-.13-.03-.24,0M15.71,7.32s-.03.1-.09.16M16.45,7.18s.05.15,0,.25c-.03.09-.03.2.03.29M16.32,7.22s.06.09.07.12M16.21,7.3s.07.23.12.29c0,0-.09.04-.08.17M16.06,7.21s0,.04-.02.06M15.97,7.27s-.15.17-.12.24M16.04,7.34s0,.17.02.24M16.11,7.57s.07.02.08.07M15.96,7.57s-.09.04-.09.19M15.46,7.48c.06.02.08.05.06.03.02.01.04.03.06.04"/>
      </g>
      <path class="cls-30" d="M16.41,7.15s-.03-.01-.03-.02c0-.01.01-.02.03-.02.01,0,.03.01.03.02,0,.01-.01.02-.03.02h0ZM15.8,7.16s-.03-.01-.03-.02.01-.02.03-.02c.02,0,.03,0,.03.02s-.01.02-.03.02Z"/>
      <g>
        <path class="cls-25" d="M16.66,8.26c-.03-.21-.13-.38-.13-.4,0,0-.1.02-.28.04-.17.02-.22.01-.3,0l-.18-.02s-.03.06-.04.13l-.06.89s-.02.09-.02.33c0,.25-.07.77-.07,1.04h.07s.38.04.38,0c0-.06.02-.72-.03-1.11,0,0,.01-.08.03-.15.02-.06.12-.27.12-.31,0,0,.15.43.16.5,0,.07.03,1.01.04,1.09,0,0,.22.17.25.18.03.01.24-.09.24-.12,0-.03-.02-.35-.12-.88-.04-.19-.02-.22-.02-.27s0-.73-.03-.94h0Z"/>
        <path class="cls-13" d="M16.29,9.19c.02.06.04.12.09.15M16.46,7.92s.06.19.19.29M16.27,7.95c.03.09.15.6.17,1.2M16.45,9.34c0,.06.03.48.04.55M16.51,9.97s.07.27.07.49M15.73,9.51c0,.05.03.41-.09.74M16.13,7.98c0,.06.02.44.02.47s-.04.07-.06.08c0,0,.04.01.05.16M16.24,8.35s.05.23.08.3M15.98,7.97s-.13.03-.14,0c0,0-.04.78-.1,1.21M16.03,8.07c0,.05.02.44.02.44M15.99,8.57s-.05.07-.04.11M16.42,7.93s-.08.02-.08.02M16.2,7.99s.02.12.02.12M15.99,9.14s-.04.05-.02.12"/>
        <path class="cls-26" d="M16.54,7.85s0-.09-.03-.13c0,0-.09.02-.22.03-.13.01-.24.02-.33.01s-.2-.03-.2-.03c0,0-.03.13-.01.15.07.01.15.02.22.03.12,0,.31-.01.38-.02.09-.01.17-.03.19-.03h0Z"/>
        <path class="cls-21" d="M16.46,7.86l-.02-.13h-.03s0,.14,0,.14h.04ZM15.87,7.75v.15s-.04,0-.04,0v-.15s.04,0,.04,0ZM16.29,7.75v.14s0,0,0,0l-.02-.14h.03Z"/>
        <g>
          <path class="cls-19" d="M16.76,10.4s.02.08.03.15c0,.01.01.09-.03.09-.03,0-.04-.08-.04-.08,0,0,.03.09,0,.1-.05.01-.05-.09-.05-.09,0,.03.04.11,0,.11-.05,0-.06-.1-.06-.1,0,0,.04.11,0,.11-.05,0-.05-.11-.05-.11,0,0,.02.13-.04.12-.03,0-.04-.05-.05-.08-.01-.04-.03-.09,0-.17.02-.06.01-.08.01-.08l.13.09s.17-.06.17-.06h0ZM15.97,10.29s.01.05.02.08c0,.03,0,.09-.1.08-.09,0-.18-.03-.23-.01-.06.02-.14.02-.19.02s-.08,0-.1-.01c-.02,0-.06.01-.08.01s-.05-.03-.05-.05c0-.04.03-.04.08-.04.04,0,.1-.01.13-.02s.08-.04.15-.05h.16s.2,0,.2,0h0ZM17.28,7.03s.05-.05.01-.08c0,0-.01-.05-.06-.05,0,0-.03-.05-.09-.04,0,0-.06-.04-.08-.04-.02,0-.08.06-.08.08,0,.02,0,.05.01.06.02.01.03,0,.03-.03,0,0-.01.04.02.06s.03,0,.03-.02c0,0,0,.04.03.05s.03-.01.05-.01c0,0-.03.02,0,.04.02.02.04,0,.05,0,.02-.01,0-.05.06-.01h0Z"/>
          <path class="cls-16" d="M17.03,6.93s.06-.08.11-.08M17.09,6.97s0-.02.02-.03c.02-.04.08-.04.12-.05M17.15,7.01s.02-.03.04-.04c.03-.01.06-.02.09-.02"/>
        </g>
      </g>
      <path class="cls-39" d="M17.03,6.86s-.05.05-.05.06c0,.02,0,.05.01.06.01.01.03,0,.03-.02,0,.01,0,.04.02.05.03.02.03,0,.03-.02,0,0,0,.04.03.05s.04-.01.05-.01c0,0-.03.02,0,.03.02.02.04,0,.05,0,.02-.01,0-.05.06-.01,0,0,.02-.01.03-.03l-.2-.15-.06-.02Z"/>
      <path class="cls-19" d="M16.99,6.89c-.04.07.01.11.03.07,0,.06.04.06.06.04.02.07.05.04.08.03-.03.06.04.04.06.03.02-.04.04,0,.05-.01l.03-.03M17.08,6.87s-.07.06-.07.1M17.15,6.91s-.07.06-.07.1M17.22,6.96s-.05.05-.07.07"/>
      <path class="cls-49" d="M16.51,4.81c-.25-.16-.51-.29-.78-.39.04-.24-.13-.7-.6-.47.29.02.32.25.4.4-.36-.12-.74-.19-1.11-.2-.04-.16-.2-.38-.41-.38-.1,0-.2.05-.31.16h0c.26-.08.38.1.49.21-.32,0-.64.04-.95.11-.1-.23-.46-.5-.74-.08.26-.12.4.05.53.14-.26.07-.52.17-.76.29,0,0,0,0,0,0-.11-.2-.65-.45-.78.11.27-.28.54.03.7-.06-.24.13-.48.28-.69.45,0,0,0,0,0,0-.15-.17-.73-.3-.74.27.2-.32.52-.1.66-.2-.23.19-.44.41-.63.64,0,0,0,0,0-.01-.16-.16-.76-.22-.71.35.17-.35.53-.13.65-.28-.02.02-.03.05-.03.08-.17.24-.32.49-.44.76-.2-.11-.79,0-.59.52h0c.07-.38.47-.27.55-.44,0,0,0,0,0,0-.12.28-.21.58-.27.88-.25,0-.65.24-.36.66-.02-.28.19-.35.32-.44-.03.21-.04.42-.04.63,0,.06,0,.13,0,.19-.22.1-.52.5-.05.76-.13-.22-.01-.37.07-.5.03.27.08.54.16.8-.21.13-.42.51.02.73-.14-.22-.02-.37.06-.51.09.26.21.52.36.76-.17.18-.28.63.22.71-.2-.17-.13-.36-.09-.51.17.24.35.47.57.68-.16.19-.25.65.27.7-.25-.18-.13-.41-.12-.57.25.22.52.42.81.58-.04.24.09.66.55.49-.25-.05-.29-.23-.33-.38.29.14.6.24.91.32,0,.25.16.59.59.41-.26-.03-.31-.22-.36-.36.24.04.49.06.74.06.05,0,.1,0,.14,0,.05.24.34.58.7.24-.27.06-.38-.13-.48-.25.32-.03.64-.09.95-.19.15.2.51.38.72-.05-.21.13-.36.04-.48-.04.25-.1.49-.22.72-.36.19.15.71.22.7-.32-.14.23-.34.19-.5.18.25-.17.48-.37.69-.6.22.12.67.12.64-.38-.12.24-.33.21-.49.21.2-.23.37-.49.51-.75.24.04.69-.11.48-.58-.03.26-.22.31-.37.36.14-.29.24-.59.31-.91.24-.05.58-.34.24-.7.05.23-.08.33-.19.42.03-.22.05-.44.05-.67v-.09c.24-.08.55-.39.17-.72.08.25-.07.37-.18.48-.02-.25-.06-.49-.12-.73.21-.12.45-.56-.04-.76.17.22.05.39-.02.53-.08-.25-.18-.5-.3-.74.18-.17.31-.62-.19-.72.2.18.12.37.08.52-.13-.22-.29-.43-.46-.63.09-.23.05-.66-.44-.59.21.09.23.24.24.38-.17-.17-.36-.33-.56-.48.07-.23-.05-.71-.55-.53.26.05.29.24.34.39h0ZM14.19,4.25h.06c-.15.09-.27.38-.59.3.34.38.71-.05.75-.29.37.02.74.09,1.09.2-.16.05-.37.24-.62.06.18.47.67.21.8,0,.3.11.58.26.84.43-.17,0-.42.22-.67,0,.13.48.64.28.8.09.23.17.44.35.64.56,0,.03.02.05.05.07-.15-.11-.49.14-.72-.17.02.53.63.39.79.23.18.21.33.43.47.66-.15-.08-.47-.03-.57-.35-.15.49.42.58.64.49.13.25.23.51.31.78-.14-.1-.45-.12-.48-.43-.23.44.28.63.53.6.07.27.11.54.12.82-.05-.16-.41-.27-.34-.62-.39.36.11.73.34.74v.08c0,.27-.02.53-.07.8,0,.02-.02.04-.02.06,0-.18-.4-.32-.27-.68-.42.32.03.74.26.77-.07.33-.19.65-.34.95-.01-.17-.25-.4-.05-.67-.49.16-.22.68-.02.8-.15.28-.34.55-.55.79.06-.16-.09-.47.2-.65-.53-.02-.45.58-.3.76-.22.23-.47.44-.74.62.04-.17-.06-.45.22-.6-.49-.04-.48.48-.36.7-.25.15-.52.28-.79.38-.03,0-.05,0-.08,0,.18-.06.17-.48.55-.49-.46-.29-.69.3-.63.52,0,0,0,.02,0,.02-.31.1-.63.16-.96.18.15-.08.3-.36.61-.26-.32-.42-.75.04-.78.27h-.14c-.27,0-.54-.02-.8-.07-.01-.02-.03-.03-.05-.04.17.07.44-.27.74-.04-.17-.51-.73-.2-.83,0,0,.01-.01.03-.01.04-.36-.08-.7-.21-1.03-.38,0,0,0,0,0,0,.17.08.45-.24.74.01-.13-.52-.7-.25-.82-.06-.27-.15-.52-.32-.75-.53.17.03.42,0,.53.27.1-.5-.48-.53-.69-.42-.23-.23-.44-.48-.61-.75.15.09.48.02.59.34.14-.5-.45-.56-.67-.46-.16-.28-.29-.57-.39-.87.06.17.48.17.49.54.29-.45-.3-.69-.52-.63-.08-.29-.14-.58-.16-.88.12.12.44.17.44.5.29-.41-.2-.66-.45-.66,0-.05,0-.11,0-.16,0-.22.02-.44.05-.66.06.16.31.34.16.62.45-.25.09-.71-.13-.79.05-.23.11-.46.2-.68.05.15.13.33-.03.51.45-.12.31-.56.13-.75.1-.22.22-.44.36-.64.01.15.01.32-.17.44.45,0,.45-.43.34-.67.16-.2.33-.39.52-.56,0,.16,0,.37-.22.49.46.05.49-.4.4-.64.17-.14.36-.26.55-.37-.04.16-.07.37-.32.43.44.15.56-.29.53-.54.26-.13.53-.23.8-.3-.13.11-.21.41-.53.38.41.33.71-.19.7-.42.31-.07.62-.1.93-.1h0Z"/>
      <g>
        <path class="cls-17" d="M11.59,10.4s-.02.08-.03.15c0,.01-.01.09.03.09.03,0,.04-.08.04-.08,0,0-.03.09,0,.1.05.01.05-.09.05-.09,0,.03-.04.11,0,.11.05,0,.06-.1.06-.1,0,0-.04.11,0,.11.05,0,.05-.11.05-.11,0,0-.02.13.04.12.03,0,.04-.05.05-.08.01-.04.03-.09,0-.17-.02-.06-.01-.08-.01-.08l-.13.09s-.17-.06-.17-.06h0ZM12.38,10.29s-.01.05-.02.08c0,.03,0,.09.1.08.09,0,.18-.03.23-.01.06.02.14.02.19.02s.08,0,.1-.01c.02,0,.06.01.08.01s.05-.03.05-.05c0-.04-.03-.04-.08-.04-.04,0-.1-.01-.13-.02s-.08-.04-.15-.05h-.16s-.2,0-.2,0h0Z"/>
        <path class="cls-26" d="M11.13,7.12l1.96-1.01c0-.05-.02-.09-.05-.13-.56.27-1.07.61-1.69.81-.03.01-.34.14-.5.33-.05.05-.05.12-.05.12,0,0,0,.09.02.11,0,0,0,.02.03.04,0,0,.02,0,.03,0,.01,0,.04,0,.07-.05.03-.05.14-.18.19-.22h0Z"/>
        <path class="cls-25" d="M12.71,6.11l.25-.12s.09.06.08.14c0,0,.02.17.23.28,0,0-.18.22-.48.24,0,0,.04-.29-.03-.37,0,0-.01.01,0,0,0-.03,0-.12-.05-.15,0,0,0-.01,0-.02h0Z"/>
      </g>
      <path class="cls-8" d="M13,6.15c-.05.02-.23.11-.23.11M12.92,6.2s-.02.09,0,.14M12.89,6.21s-.02.06,0,.13M12.87,6.22s-.01.04,0,.07M12.85,6.24s0,.02,0,.03M13,6.23s.08.13.12.18M13.02,6.28s.05.1.08.13M13.01,6.33s.03.08.05.1M13.01,6.38s.02.05.03.07"/>
      <g>
        <g>
          <path class="cls-15" d="M12.46,6.28s-.02,0-.02.01c-.01.06,0,.09-.02.12-.02.04-.09.07-.08.07-.05.02-.12.08-.22.02,0,0-.01,0-.02-.01,0,0,.03.11-.08.16-.04.02-.42.22-.42.22,0,0-.04.07-.01.17,0,.02,0,.03,0,.04-.02.02-.07.07-.1.16,0,0-.08-.04-.08-.09s.03-.08.04-.12c0-.03.03-.12.02-.15-.01-.03-.06-.04-.08-.05-.02-.01-.04.01-.03.03,0,.03.02.02.04.03,0,0-.02.05-.02.09l-.24.13s.03.04.04.06.03.27.11.39.1.09.11.1c.01.01.03.03.05.05.02.01.1.02.12-.02.02-.04.03-.07.08-.11s.16-.14.16-.19c0,0,.06.18.05.33,0,0,.23.05.43.05.2,0,.3-.04.3-.04,0,0,.03-.17.02-.2,0,0,.03.11.06.15.03.05.06.14.12.15.06,0,.11-.06.11-.08v-.18h.23s.1.04.13.03c.03,0,.05-.03.02-.04h-.01s.07.01.07.01h.11s0-.01,0-.01c0-.03-.07-.06-.11-.08-.04-.02-.09-.04-.12-.04-.05,0-.09,0-.16.01-.02,0-.1.01-.15.03-.01,0-.03.01-.02-.02,0-.04,0-.21-.03-.28-.03-.05-.03-.09-.02-.14,0-.04,0-.19,0-.23,0-.04-.07-.1-.17-.12-.1-.01-.19-.1-.19-.16,0-.07.01-.19.02-.24"/>
          <path class="cls-17" d="M12.01,5.98c-.02.09-.02.16-.02.24,0,.06.03.12.05.18.02.04.04.08.07.1.09.06.18,0,.23-.03.02,0,.06-.04.07-.06.01-.03,0-.06.02-.12,0,0,.02-.01.02-.01.02-.04.02-.05.03-.08s-.02-.06-.05-.05c.02-.05.03-.11.01-.16,0-.02.01-.06-.02-.05-.12.05-.26.04-.39.04-.01,0-.02-.02-.03-.02,0,0,0,0,0,.01"/>
          <path class="cls-28" d="M12,6.02s-.02-.03,0-.09c.02-.05,0-.05.03-.08s.02-.04.04-.05c.02,0,.08,0,.09-.01.02-.01.05-.02.08-.02.04,0,.12,0,.16.02.04.02.07.08.09.09.03.02.04.1.04.21,0,.11-.03.09-.03.09,0,0-.03-.05-.06,0,0,0,0-.04,0-.08,0-.03-.02-.09,0-.13,0,0-.15.05-.23.05-.08,0-.19-.02-.2-.04l-.02.06"/>
        </g>
        <path class="cls-14" d="M12.07,5.93s-.05-.08-.02-.09c.03-.02.01.07.05.09,0,0-.01.04-.03,0h0Z"/>
        <path class="cls-13" d="M12.16,6.15l-.02.08M12.42,6.28s.01,0,.02.01M12.45,6.18s.03,0,.02.03M12.01,6.09l.07.03s.02.08,0,.11c0,.02-.03.05-.02.07.01.02.03,0,.05.01,0,0,.02-.01.02-.01.02,0,.03.01.04,0,.02,0,.01-.03,0-.05M12.19,6.13s.03-.02.04-.02c.06-.01.1-.02.14.01M12.22,6.42s-.09.02-.14,0M12.09,6.39s.03-.02.06,0c0,0,.03-.01.03-.01.02,0,.04,0,.06.02M12.08,6.4s.09,0,.14,0"/>
      </g>
      <path class="cls-36" d="M12,6.15s.04-.02.08,0c.03.02-.05.04-.03.04-.03,0-.05-.01-.05-.03,0,0,0-.01,0-.01h0ZM12.22,6.17s.05-.03.08-.02.02,0,.04.02c-.03,0-.02,0-.04.02-.02.01-.05.02-.06,0,0,0-.02-.01-.02-.02,0,0,0,0,0,0h0Z"/>
      <path class="cls-30" d="M12.04,6.18s.02-.01.02-.02c0-.01,0-.02-.02-.02-.01,0-.02.01-.02.02,0,.01,0,.02.02.02ZM12.27,6.19s.02-.01.02-.02c0,0,0-.01,0-.02s0,0-.02,0c-.01,0-.02,0-.02.02s.01.02.02.02h0Z"/>
      <g>
        <path class="cls-13" d="M13.42,7.57s-.03-.03-.05-.04l-.05-.03s-.05-.01-.06-.02M13.27,7.55h-.02s-.02-.02-.03-.02c0,0,0,0,0,0-.02,0-.05-.01-.06-.03M11.49,7.24s.08.06.09.14c0,.04.03.08.03.08M11.25,7.25s.02.2.16.36M11.28,7.04s-.02.06,0,.08M11.67,7.41c.03-.07.12-.06.12-.13"/>
        <path class="cls-13" d="M11.8,7.4c0-.08-.02-.12-.01-.23,0-.03.01-.16,0-.22,0,0,.04.21-.1.25M12.61,7.53c0-.11.02-.16.02-.16.03-.15-.03-.2,0-.24.02-.03.05-.1.01-.23,0,0,.08.28-.12.28s-.19-.07-.19-.07"/>
        <path class="cls-13" d="M11.79,6.95c0,.06,0,.22.24.22.07,0,.15-.05.19-.09M12.29,7.02c0-.05,0-.12,0-.18M11.92,6.74c.06,0,.12-.02.24-.02M12.16,6.56c.01.06,0,.15.1.17M12.38,6.54s-.02.09-.02.12M12.36,6.73s.13-.03.24,0M12.64,7.32s.03.1.09.16M11.9,7.18s-.05.15,0,.25c.03.09.03.2-.03.29M12.03,7.22s-.06.09-.07.12M12.14,7.3s-.07.23-.12.29c0,0,.09.04.08.17M12.29,7.21s0,.04.02.06M12.38,7.27s.15.17.12.24M12.31,7.34s0,.17-.02.24M12.23,7.57s-.08.03-.08.07M12.39,7.57s.09.04.09.19M12.89,7.48c-.06.02-.08.05-.06.03-.03.02-.06.04-.06.04"/>
      </g>
      <path class="cls-30" d="M11.94,7.15s.03-.01.03-.02c0-.01-.01-.02-.03-.02-.01,0-.03.01-.03.02,0,.01.01.02.03.02h0ZM12.55,7.16s.03-.01.03-.02-.01-.02-.03-.02c-.02,0-.03,0-.03.02s.01.02.03.02h0Z"/>
      <g>
        <path class="cls-25" d="M11.69,8.26c.03-.21.13-.38.13-.4,0,0,.1.02.28.04.17.02.22.01.3,0,.08,0,.18-.02.18-.02,0,0,.03.06.04.13l.06.89s.02.09.02.33c0,.25.07.77.07,1.04h-.07s-.38.04-.38,0c0-.06-.02-.72.03-1.11,0,0-.01-.08-.03-.15-.02-.06-.12-.27-.12-.31,0,0-.15.43-.16.5,0,.07-.03,1.01-.04,1.09,0,0-.22.17-.25.18-.03.01-.24-.09-.24-.12,0-.03.02-.35.12-.88.04-.19.02-.22.02-.27s0-.73.03-.94h0Z"/>
        <path class="cls-13" d="M12.05,9.19c-.02.06-.04.12-.09.15M11.89,7.92s-.06.19-.19.29M12.08,7.95c-.03.09-.15.6-.17,1.2M11.9,9.34c0,.06-.03.48-.04.55M11.84,9.97s-.07.27-.07.49M12.62,9.51c0,.05-.03.41.09.74M12.22,7.98c0,.06-.02.44-.02.47s.04.07.06.08c0,0-.04.01-.05.16M12.11,8.35s-.05.23-.08.3M12.37,7.97s.13.03.14,0c0,0,.04.78.1,1.21M12.32,8.07c0,.05-.02.44-.02.44M12.36,8.57s.05.07.04.11M11.93,7.93s.08.02.08.02M12.15,7.99s-.02.12-.02.12M12.36,9.14s.04.05.02.12"/>
        <path class="cls-26" d="M11.81,7.85s0-.09.03-.13c0,0,.09.02.22.03.13.01.24.02.33.01s.2-.03.2-.03c0,0,.03.13.01.15,0,0-.1.02-.22.03-.12,0-.31-.01-.38-.02-.09-.01-.17-.03-.19-.03h0Z"/>
        <path class="cls-21" d="M11.89,7.86l.02-.13h.03s0,.14,0,.14h-.04ZM12.47,7.76v.15s.04,0,.04,0v-.15s-.04,0-.04,0ZM12.06,7.76v.14s0,0,0,0l.02-.14h-.03Z"/>
        <g>
          <path class="cls-22" d="M11.03,6.94s-.03-.05.01-.08c0,0,.01-.05.05-.06,0,0,.03-.05.09-.04,0,0,.06-.04.08-.04.02,0,.08.06.08.08,0,.02,0,.05-.01.06-.02.02-.03,0-.03-.02,0,0,.01.04-.02.06-.03.02-.03,0-.03-.02,0,0,0,.04-.03.05-.02,0-.03-.01-.05-.01,0,0,.03.02,0,.04-.02.01-.04,0-.05,0-.01-.01-.03-.05-.09-.02h0Z"/>
          <path class="cls-24" d="M11.3,6.84s-.06-.08-.11-.08M11.25,6.88s-.01-.02-.02-.03c-.02-.04-.08-.04-.12-.05M11.18,6.92s-.02-.03-.04-.04c-.03-.01-.05-.02-.09-.02"/>
        </g>
        <path class="cls-17" d="M11.59,10.4s-.02.08-.03.15c0,.01-.01.09.03.09.03,0,.04-.08.04-.08,0,0-.03.09,0,.1.05.01.05-.09.05-.09,0,.03-.04.11,0,.11.05,0,.06-.1.06-.1,0,0-.04.11,0,.11.05,0,.05-.11.05-.11,0,0-.02.13.04.12.03,0,.04-.05.05-.08.01-.04.03-.09,0-.17-.02-.06-.01-.08-.01-.08l-.13.09s-.17-.06-.17-.06h0ZM12.38,10.29s-.01.05-.02.08c0,.03,0,.09.1.08.09,0,.18-.03.23-.01.06.02.14.02.19.02s.08,0,.1-.01c.02,0,.06.01.08.01s.05-.03.05-.05c0-.04-.03-.04-.08-.04-.04,0-.1-.01-.13-.02s-.08-.04-.15-.05h-.16s-.2,0-.2,0Z"/>
      </g>
      <path class="cls-46" d="M11.94,10.48v-.12s.05.04.05.04v-.09s.07.04.07.04v-.09s.07.09.07.09c0,0,0-.07.02-.12,0,0,.06.05.06.11,0,.05.05-.07.05-.07l.04.14.03-.05.03.11.06-.09.05.11h.12s.01.06.01.06l.05-.06.07.04s.06-.02.09-.02.06.04.06.04c0,0,.02-.04.04-.05.02-.01.05.02.06.04l.04-.08s.06.06.06.08c0,0,0-.06.02-.09s.03,0,.05.04l.03-.12s.04,0,.06.05c.03.04.03-.06.03-.06,0,0,.06.09.08.15,0,0-.45.15-.76.11-.37-.05-.67-.12-.67-.12M15,10.46s.02-.06.05-.09c0,0,.06.07.06.09,0,0,.02,0,.05-.03l.04.04.05-.03.05.04.09-.04.03.04.14-.02.05.02.05-.06.05.05.07-.07s.03.03.04.05c0,0,.06-.03.07-.05,0,0,.06-.02.06.01,0,0,.03-.03.03-.06s.04,0,.05.03c0,0,.02-.06.06-.06,0,0,.03.03.02.1,0,0,.06-.05.09-.06,0,0,.01.07,0,.14,0,0,.07-.11.08-.07,0,.02.02.09,0,.15l.06-.04.02.07h.06s-.38.05-.74.01-.7-.16-.7-.16M14.73,10.73s-.12.28-.45.3c-.46.02-.86-.21-.86-.21,0,0,.05-.08.08-.1,0,0,.06.05.09.12,0,0,0-.04.03-.08,0,0,.08.04.09.09,0,0,.03-.05.05-.06.02-.02.04.06.04.1,0,0,.05-.05.08-.06,0,0,.06.03.07.12,0,0,.05-.05.07-.04,0,0,.06.04.05.1,0,.03.06-.04.15-.06l.08.06.09-.13s.06.02.06.06c0,0,.03-.1.05-.11.02-.01.05.03.05.06,0,0,0-.08.05-.09,0,0,.04.03.04.06,0,0,.05-.09.08-.11h0Z"/>
      <path class="cls-5" d="M11.94,10.48v-.12s.05.04.05.04v-.09s.07.04.07.04v-.09s.07.09.07.09c0,0,0-.07.02-.12,0,0,.06.05.06.11,0,.05.05-.07.05-.07l.04.14.03-.05.03.11.06-.09.05.11h.12s.01.06.01.06l.05-.06.07.04s.06-.02.09-.02.06.04.06.04c0,0,.02-.04.04-.05s.05.02.06.04l.04-.08s.06.06.06.08c0,0,0-.06.02-.09s.03,0,.05.04l.03-.12s.04,0,.06.05c.03.04.03-.06.03-.06,0,0,.06.09.08.15M15,10.46s.02-.06.05-.09c0,0,.06.07.06.09,0,0,.02,0,.05-.03l.04.04.05-.03.05.04.09-.04.03.04.14-.02.05.02.05-.06.05.05.07-.07s.03.03.04.05c0,0,.06-.03.07-.05,0,0,.06-.02.06.01,0,0,.03-.03.03-.06s.04,0,.05.03c0,0,.02-.06.06-.06,0,0,.03.04.02.1,0,0,.06-.05.09-.06,0,0,.01.07,0,.14,0,0,.07-.11.08-.07,0,.02.02.09,0,.15l.06-.04.02.07h.06M13.41,10.82s.05-.08.08-.1c0,0,.06.05.09.12,0,0,0-.04.03-.08,0,0,.08.04.09.09,0,0,.03-.05.05-.06.02-.02.04.06.04.1,0,0,.05-.05.08-.06,0,0,.06.03.07.12,0,0,.05-.05.07-.04,0,0,.06.04.05.1,0,.03.06-.04.15-.06l.08.06.09-.13s.06.02.06.06c0,0,.03-.1.05-.11.02-.01.05.03.05.06,0,0,0-.08.05-.09,0,0,.04.03.04.06,0,0,.05-.09.08-.11"/>
    </g>
  </g>
</svg>