<?xml version="1.0" encoding="UTF-8"?>
<svg id="Layer_2" data-name="Layer 2" xmlns="http://www.w3.org/2000/svg" xmlns:xlink="http://www.w3.org/1999/xlink" viewBox="0 0 27.21 17.01">
  <defs>
    <style>
      .cls-1, .cls-2, .cls-3, .cls-4, .cls-5, .cls-6, .cls-7 {
        stroke-width: 0px;
      }

      .cls-1, .cls-8 {
        fill: #bb1f3f;
        stroke: #501525;
      }

      .cls-9, .cls-10, .cls-4 {
        fill: #f8b71c;
      }

      .cls-11, .cls-3 {
        fill: #6d311f;
      }

      .cls-2 {
        fill: #b3b6ba;
      }

      .cls-2, .cls-12, .cls-13 {
        stroke: #495755;
      }

      .cls-14 {
        fill: url(#linear-gradient-4);
      }

      .cls-14, .cls-15, .cls-16, .cls-17, .cls-18, .cls-19, .cls-20, .cls-21, .cls-22, .cls-13, .cls-23, .cls-24, .cls-25 {
        stroke-width: 0px;
      }

      .cls-14, .cls-15, .cls-16, .cls-17, .cls-18, .cls-19, .cls-20, .cls-21, .cls-23, .cls-24 {
        stroke: #999270;
      }

      .cls-3 {
        stroke: #351912;
        stroke-linejoin: round;
      }

      .cls-26 {
        fill: #365528;
      }

      .cls-27 {
        fill: #fff;
      }

      .cls-28 {
        fill: #495755;
      }

      .cls-15 {
        fill: url(#linear-gradient);
      }

      .cls-12, .cls-29 {
        fill: #8c959d;
      }

      .cls-10, .cls-4 {
        stroke: #6d311f;
      }

      .cls-30 {
        fill: #4a98d1;
      }

      .cls-8 {
        stroke-width: 0px;
      }

      .cls-16 {
        fill: url(#radial-gradient-5);
      }

      .cls-17 {
        fill: url(#linear-gradient-2);
      }

      .cls-31 {
        fill: #9f842f;
      }

      .cls-18 {
        fill: url(#radial-gradient-4);
      }

      .cls-5 {
        fill: url(#radial-gradient-6);
        stroke: #481212;
      }

      .cls-32, .cls-6 {
        fill: #45823d;
      }

      .cls-19 {
        fill: url(#radial-gradient);
      }

      .cls-6 {
        stroke: #365528;
      }

      .cls-20 {
        fill: url(#linear-gradient-3);
      }

      .cls-21 {
        fill: url(#radial-gradient-3);
      }

      .cls-22 {
        fill: #68933e;
      }

      .cls-22, .cls-33, .cls-25 {
        stroke: #2b421d;
      }

      .cls-7 {
        fill: #e9c11e;
        stroke: #9f842f;
      }

      .cls-13, .cls-33 {
        fill: none;
      }

      .cls-23 {
        fill: url(#radial-gradient-2);
      }

      .cls-24 {
        fill: #f9f0aa;
      }

      .cls-34 {
        fill: #af802c;
      }

      .cls-33 {
        stroke-width: .01px;
      }

      .cls-25 {
        fill: #42642f;
      }

      .cls-35 {
        fill: url(#radial-gradient-7);
      }

      .cls-36 {
        fill: #010101;
        stroke: #010101;
      }
    </style>
    <radialGradient id="radial-gradient" cx="2.09" cy="-537.3" fx="2.09" fy="-537.3" r=".47" gradientTransform="translate(10.55 -546.29) scale(1.01 -1.03)" gradientUnits="userSpaceOnUse">
      <stop offset=".22" stop-color="#f9f0aa"/>
      <stop offset="1" stop-color="#af802c"/>
    </radialGradient>
    <radialGradient id="radial-gradient-2" cx="2.21" cy="-537.43" fx="2.21" fy="-537.43" r=".31" xlink:href="#radial-gradient"/>
    <radialGradient id="radial-gradient-3" cx="2.28" cy="-537.31" fx="2.28" fy="-537.31" r=".28" xlink:href="#radial-gradient"/>
    <radialGradient id="radial-gradient-4" cx="2.4" cy="-537.27" fx="2.4" fy="-537.27" r=".49" xlink:href="#radial-gradient"/>
    <linearGradient id="linear-gradient" x1="2.84" y1="-535.91" x2="2.8" y2="-535.14" gradientTransform="translate(10.55 -546.29) scale(1.01 -1.03)" gradientUnits="userSpaceOnUse">
      <stop offset=".22" stop-color="#af802c" stop-opacity="0"/>
      <stop offset="1" stop-color="#af802c"/>
    </linearGradient>
    <linearGradient id="linear-gradient-2" x1="3.1" y1="-536.97" x2="3.17" y2="-537.82" xlink:href="#linear-gradient"/>
    <radialGradient id="radial-gradient-5" cx="2.05" cy="-535.72" fx="2.05" fy="-535.72" r=".37" xlink:href="#radial-gradient"/>
    <linearGradient id="linear-gradient-3" x1="2.21" y1="-535.64" x2="2.31" y2="-535.38" gradientTransform="translate(10.55 -546.29) scale(1.01 -1.03)" gradientUnits="userSpaceOnUse">
      <stop offset=".22" stop-color="#f9f0aa"/>
      <stop offset="1" stop-color="#af802c"/>
    </linearGradient>
    <linearGradient id="linear-gradient-4" x1="2.82" y1="-535.29" x2="2.9" y2="-536.23" xlink:href="#linear-gradient-3"/>
    <radialGradient id="radial-gradient-6" cx="2.95" cy="-534.66" fx="2.95" fy="-534.66" r="0" gradientTransform="translate(10.55 -546.29) scale(1.01 -1.03)" gradientUnits="userSpaceOnUse">
      <stop offset=".26" stop-color="#a41e21"/>
      <stop offset="1" stop-color="#481212"/>
    </radialGradient>
    <radialGradient id="radial-gradient-7" cx="31.76" cy="-515.03" fx="31.76" fy="-515.03" r="0" gradientTransform="translate(-17.93 -538.49) scale(.99 -1.06)" gradientUnits="userSpaceOnUse">
      <stop offset="0" stop-color="#fff"/>
      <stop offset="1" stop-color="#fff" stop-opacity="0"/>
    </radialGradient>
  </defs>
  <g id="Layer_1-2" data-name="Layer 1">
    <path class="cls-30" d="M0,0h27.21v17.01H0V0Z"/>
    <path class="cls-27" d="M9.07,0h9.07v17.01h-9.07V0Z"/>
    <g>
      <g>
        <path class="cls-33" d="M12.8,10.77c.08-.01.12-.03.17-.05M13.04,10.6s.07.09.09.14M12.89,10.59s.07.08.09.12M11.56,6.71s-.09.08-.14.1M11.41,6.81s0-.09,0-.13M11.36,6.82l.02.06M11.43,6.91h-.06M11.26,6.89c0,.07,0,.16.02.23M11.23,7.1s.03.04.04.06M11.14,7.34s.03.06.04.12M11.28,7.32s-.03.03-.06.05M11.27,7.49s-.06.04-.1.06M11.07,8.74c.03.06.07.1.11.14M11.2,8.93s-.06-.02-.08-.03M11.24,9.14l.05.03M11.27,9.27s.07.07.11.11M11.34,9.47s.07.02.09.03M11.4,9.57h.06M11.5,9.42v.12M11.51,9.59v-.05M11.66,9.72v.09M12.78,10.63l-.03.05M12.68,10.56l-.02-.05"/>
        <path class="cls-25" d="M13.78,10.99s-.06-.06-.09-.08c-.22-.12-.44-.17-.69-.21-.06,0-.12-.07-.17-.09-.14-.07-.3-.1-.44-.17,0,0-.04-.03-.06-.05-.06-.07-.15-.08-.22-.15-.24-.23-.49-.44-.63-.75-.16-.37-.36-.76-.33-1.18.02-.27-.02-.54.04-.79.1-.38.22-.75.44-1.06l-.04.02c-.23.31-.35.69-.44,1.06-.06.25-.03.52-.04.79-.03.42.17.81.33,1.18.13.3.39.52.63.75.06.06.16.08.22.15.02.02.05.04.06.05.14.07.3.1.44.17.06.03.12.08.17.09.25.04.47.09.69.21.03.02.07.04.09.08l.04-.02"/>
        <g>
          <path class="cls-22" d="M11.49,9.43c-.08-.18-.04-.63,0-.69.19.38.13.7,0,.69ZM12.81,10.76c-.2.01-.59.27-.63.33.43,0,.69-.21.63-.33ZM13.02,10.63c-.2-.16-.41-.69-.4-.78.43.32.54.71.4.78Z"/>
          <path class="cls-22" d="M12.88,10.64c-.2-.12-.45-.59-.46-.67.44.24.58.59.46.67ZM12.43,10.44c.03-.23-.16-.71-.22-.76-.08.48.09.81.22.76ZM11.64,9.73c-.07-.17-.02-.57.01-.61.16.34.09.62-.01.61ZM11.25,7.48c.1-.19.53-.46.6-.47-.19.43-.52.58-.6.47Z"/>
          <path class="cls-22" d="M11.27,7.31c.06-.21.43-.56.5-.59-.11.46-.39.68-.5.59ZM12.07,10.22c-.14-.18-.23-.7-.21-.77.32.37.35.74.21.77ZM11.25,9.15c-.2.03-.61-.14-.66-.19.42-.09.7.06.66.19ZM11.18,8.87c.02-.16.25-.46.3-.49-.03.35-.21.54-.3.49ZM12.66,10.58c-.24.01-.71.33-.75.4.52,0,.83-.26.75-.4Z"/>
        </g>
        <g>
          <path class="cls-25" d="M11.49,9.43c.12,0,.18-.3,0-.68.03.36.03.65,0,.68ZM11.81,10.01c-.13-.16-.56-.33-.62-.33.26.35.57.44.62.33ZM11.11,8.46c-.03-.24-.35-.67-.42-.7.04.5.3.78.42.7ZM11.35,9.46c-.14-.11-.55-.16-.6-.14.29.24.58.25.6.14ZM11.08,8.74c-.08-.17-.43-.39-.49-.4.16.36.42.5.49.4ZM11.16,7.34c.03-.22-.16-.69-.21-.74-.08.47.08.78.21.74ZM11.29,6.91c.08-.19.02-.66-.02-.71-.18.4-.11.72.02.71h0ZM11.43,6.68c.09-.14.12-.52.1-.57-.21.28-.2.55-.1.57ZM11.6,6.5c.13-.1.27-.45.26-.51-.28.2-.35.46-.26.51h0ZM11.14,7.77s-.03-.24-.29-.54c.01.43.18.6.29.54ZM12.08,10.28c-.18-.13-.67-.2-.74-.17.36.3.72.31.74.17ZM12.43,10.43c-.13.05-.3-.28-.22-.76.08.41.18.73.22.76ZM12.81,10.76c.06.12-.19.33-.63.33.34-.14.61-.29.63-.33ZM13.02,10.63c.14-.07.03-.45-.4-.77.25.39.42.72.4.77ZM12.88,10.63c.12-.08-.02-.42-.46-.66.27.33.46.61.46.66ZM11.65,9.72c.11,0,.17-.27.01-.61.02.32.01.58-.01.61ZM11.25,7.48c.08.11.4-.04.6-.47-.29.27-.55.47-.6.47ZM11.27,7.31c.11.09.39-.13.5-.58-.23.33-.45.58-.5.58ZM12.07,10.21c.14-.03.11-.4-.21-.77.14.39.23.72.21.77ZM11.24,9.15c.04-.12-.24-.27-.66-.18.35.06.63.15.66.18ZM11.18,8.87c.08.06.26-.14.3-.49-.13.27-.26.48-.3.49ZM12.66,10.58c.07.14-.23.4-.75.4.41-.17.73-.35.75-.4Z"/>
          <path class="cls-25" d="M11.29,9.27c-.08-.18-.43-.45-.49-.46.14.4.41.56.49.46Z"/>
        </g>
        <g>
          <path class="cls-22" d="M11.09,7.74c.12-.14.5-.27.56-.26-.23.3-.52.37-.56.26ZM11.81,10.01c-.05.11-.36.03-.62-.33.31.2.58.34.62.33ZM11.11,8.46c-.12.08-.38-.2-.42-.7.19.39.37.68.42.7ZM11.35,9.46c-.02.11-.31.11-.6-.14.31.1.57.16.6.14ZM11.08,8.73c-.07.09-.32-.04-.48-.4.24.23.45.4.48.4ZM11.16,7.34c-.13.05-.29-.27-.21-.73.08.39.17.71.21.73ZM11.29,6.91c-.12,0-.2-.32-.01-.71-.02.37-.01.68.01.71ZM11.43,6.68c-.1-.02-.11-.28.1-.57-.08.29-.12.54-.1.57ZM11.6,6.5c-.09-.05-.02-.31.26-.51-.16.25-.27.47-.26.51Z"/>
          <path class="cls-22" d="M11.14,7.77c-.11.06-.28-.1-.29-.54.15.34.25.52.29.54ZM12.08,10.28c-.03.14-.38.13-.74-.17.38.13.7.2.74.17ZM11.84,10c-.12-.13-.21-.51-.19-.56.26.26.29.53.19.56ZM11.36,9.27c-.1-.17-.11-.61-.08-.67.24.35.21.66.08.67ZM11.28,9.27c-.08.1-.34-.06-.49-.46.23.27.44.46.49.46Z"/>
        </g>
        <g>
          <path class="cls-25" d="M11.09,7.74c.05.11.33.04.56-.26-.34.2-.48.29-.56.26ZM11.36,9.27c.12-.01.15-.32-.08-.67.08.35.11.63.08.67ZM11.84,10c.1-.03.06-.31-.19-.56.13.28.21.53.19.56Z"/>
          <path class="cls-25" d="M11.14,8.26c.06-.25-.05-.66-.12-.75-.14.45,0,.78.12.75Z"/>
        </g>
        <g>
          <g>
            <path class="cls-22" d="M11.13,8.32c-.17.04-.25-.35-.12-.79.03.4.08.77.12.79Z"/>
            <path class="cls-22" d="M11.1,8.32c-.02-.22.2-.68.26-.72.06.46-.13.77-.26.72Z"/>
          </g>
          <path class="cls-25" d="M11.1,8.32c.13.05.31-.26.25-.72-.1.39-.21.7-.25.72Z"/>
          <path class="cls-22" d="M11.14,8.6c0-.22.24-.65.3-.69.02.47-.18.76-.3.69Z"/>
          <path class="cls-25" d="M11.14,8.6c.12.06.33-.22.3-.69-.13.38-.26.67-.3.69Z"/>
        </g>
        <g>
          <g>
            <circle class="cls-8" cx="11.22" cy="7.08" r=".03"/>
            <circle class="cls-8" cx="11.46" cy="6.9" r=".03"/>
            <circle class="cls-8" cx="11.35" cy="6.8" r=".03"/>
          </g>
          <g>
            <circle class="cls-1" cx="11.09" cy="8.89" r=".04"/>
            <circle class="cls-1" cx="11.16" cy="8.42" r=".04"/>
            <circle class="cls-1" cx="11.54" cy="9.51" r=".04"/>
            <circle class="cls-1" cx="11.38" cy="9.57" r=".04"/>
            <circle class="cls-1" cx="12.65" cy="10.48" r=".04"/>
            <circle class="cls-1" cx="12.73" cy="10.69" r=".04"/>
          </g>
        </g>
        <g>
          <path class="cls-33" d="M15.94,7.3s.03.02.07.06M15.81,6.8s-.02-.11-.03-.15M15.89,6.75c0,.06,0,.11-.03.16M15.74,6.89c.05.05.1.09.15.11"/>
          <path class="cls-33" d="M16,7.04c0,.06,0,.12-.02.17M15.99,7.26l.04-.07M15.97,7.55s.08.06.1.1M16.09,7.61l.05-.06M16.18,8.45s-.05.07-.07.1M16,8.55s.04.09.07.12M16.14,8.84c-.04.05-.08.09-.13.12M16.02,9.09s-.07.09-.11.14M16.16,8.64l-.06.03M16.06,8.44l.04.03M15.82,9.57s-.04,0-.06,0M15.71,9.52l.02.05M15.5,9.71c0,.05,0,.11,0,.16M15.63,9.61l.03.07M15.77,9.67h-.07M14.81,10.43l-.03.05M15.13,10.36s-.08,0-.12,0M14.85,10.53s-.06-.02-.08-.03M14.34,10.58s-.06.07-.09.12M14.24,10.57c-.07.04-.09.11-.13.17M14.19,10.82s-.1-.04-.15-.06M14.52,10.74c-.07-.04-.14-.03-.21-.04M14.63,10.69c-.1-.02-.2-.02-.3,0M14.55,10.61l-.04-.02M14.35,10.75l-.07-.04M15.95,9.27s-.07.07-.11.11M15.9,7.05l-.06-.02"/>
        </g>
        <g>
          <path class="cls-25" d="M13.45,10.99s.06-.06.09-.08c.22-.12.44-.17.69-.21.06,0,.12-.07.17-.09.14-.07.3-.1.44-.17,0,0,.04-.03.06-.05.06-.07.15-.08.22-.15.24-.23.49-.44.63-.75.16-.37.36-.76.33-1.18-.02-.27.02-.54-.04-.79-.1-.38-.22-.75-.44-1.06l.04.02c.23.31.35.69.44,1.06.06.25.03.52.04.79.03.42-.17.81-.33,1.18-.13.3-.39.52-.63.75-.06.06-.16.08-.22.15-.02.02-.05.04-.06.05-.14.07-.3.1-.44.17-.06.03-.12.08-.17.09-.25.04-.47.09-.69.21-.03.02-.07.04-.09.08l-.04-.02"/>
          <path class="cls-25" d="M15.72,9.52c.08-.22,0-.73-.04-.79-.19.45-.1.81.04.79ZM15.52,9.72c.07-.17.02-.57-.01-.61-.16.34-.09.62.01.61ZM16,7.55c-.09-.18-.48-.42-.55-.43.18.39.48.53.55.43ZM15.96,7.32c-.05-.18-.36-.47-.42-.49.09.38.33.57.42.49ZM16.09,7.76c-.1-.12-.44-.23-.49-.23.2.26.45.32.49.23ZM16.01,9.11c.18.03.55-.12.58-.16-.37-.08-.62.05-.58.16ZM16.01,8.95c0-.17-.18-.49-.23-.53-.02.35.14.57.23.53ZM16.02,8.55c0-.22-.24-.65-.3-.69-.02.47.18.76.3.69ZM14.5,10.75c.13.16.56.33.63.32-.25-.36-.58-.44-.63-.32Z"/>
        </g>
        <g>
          <path class="cls-22" d="M15.72,9.51c-.14.02-.23-.33-.04-.78-.01.42,0,.75.04.78ZM14.19,10.79c.2.01.59.27.63.33-.43,0-.69-.21-.63-.33Z"/>
          <path class="cls-22" d="M14.19,10.56c.06-.23.43-.62.5-.65-.1.5-.39.75-.5.65h0ZM14.8,10.43c-.03-.23.16-.71.22-.76.08.48-.09.81-.22.76ZM15.42,10.01c.13-.16.56-.33.62-.33-.26.35-.57.44-.62.33ZM16.16,8.45c.03-.19.28-.52.33-.55-.03.4-.24.62-.33.55ZM15.82,9.56c.17-.13.64-.18.7-.16-.34.28-.68.29-.7.16ZM16.12,8.85c.09-.18.45-.41.51-.42-.17.38-.44.52-.51.42ZM16.07,7.51c0-.22.23-.67.29-.71.03.47-.16.77-.29.71h0ZM15.87,6.75c-.07-.15-.03-.54,0-.59.16.32.11.59,0,.59ZM15.75,6.69c-.15-.14-.31-.58-.3-.65.34.27.41.6.3.65ZM16.09,7.7s.08-.23.41-.45c-.12.42-.32.54-.41.45ZM15.11,10.33c.2-.15.76-.22.84-.2-.41.34-.81.35-.84.2ZM15.52,9.72c-.11,0-.17-.27-.01-.61-.02.32-.01.58.01.61ZM16,7.55c-.08.1-.37-.04-.55-.43.27.25.51.43.55.43ZM15.95,7.32c-.09.08-.32-.1-.41-.49.19.27.37.48.41.49ZM16.09,7.76c-.04.09-.29.04-.49-.23.3.17.42.25.49.23ZM16.02,9.11c-.04-.11.21-.24.58-.16-.31.06-.56.13-.58.16ZM16.01,8.95c-.09.04-.24-.17-.23-.52.1.29.2.51.23.52ZM16.02,8.55c-.12.06-.32-.22-.3-.69.13.38.26.67.3.69ZM14.5,10.75c.06-.12.38-.04.63.32-.32-.2-.59-.33-.63-.32Z"/>
        </g>
        <g>
          <path class="cls-25" d="M14.8,10.43c.13.05.3-.28.22-.76-.08.41-.18.73-.22.76Z"/>
          <path class="cls-25" d="M15.1,10.28c.12-.19.16-.72.13-.79-.29.4-.27.77-.13.79ZM14.19,10.79c-.06.12.19.33.63.33-.34-.14-.61-.29-.63-.33ZM14.19,10.56c.11.1.4-.14.5-.65-.23.36-.45.64-.5.65h0ZM15.42,10.01c.05.11.36.03.62-.33-.31.2-.58.34-.62.33ZM16.16,8.45c.09.06.3-.16.33-.55-.15.3-.3.54-.33.55ZM15.82,9.56c.03.13.36.12.7-.16-.36.12-.66.18-.7.16ZM16.12,8.84c.07.1.34-.04.51-.42-.25.25-.47.42-.51.42ZM16.08,7.51c.12.06.32-.23.28-.71-.12.38-.24.69-.28.71ZM15.88,6.75c.1,0,.16-.26,0-.59.03.31.03.56,0,.59ZM15.75,6.69c.11-.05.04-.37-.3-.64.19.32.31.6.3.64ZM16.09,7.7c.09.09.29-.03.41-.45-.22.3-.36.44-.41.45ZM15.11,10.33c.03.15.43.15.84-.2-.43.14-.79.22-.84.2ZM15.31,10.11c.09-.14.12-.54.1-.59-.22.3-.21.57-.1.59ZM15.87,9.27c.1-.17.11-.61.08-.67-.24.35-.21.66-.08.67Z"/>
        </g>
        <path class="cls-22" d="M15.1,10.28c-.14-.02-.15-.39.13-.79-.1.41-.16.74-.13.79ZM16.11,8.28c-.03-.23.11-.59.19-.66.07.42-.08.7-.19.66ZM15.31,10.11c-.1-.01-.11-.29.1-.59-.08.3-.12.55-.1.59ZM15.98,7.05c-.06-.17,0-.59.04-.64.15.36.08.65-.04.64ZM14.31,10.57c.07-.24.47-.62.54-.64-.12.51-.43.75-.54.64ZM15.88,9.35c.08-.18.43-.45.49-.46-.14.4-.41.56-.49.46ZM15.87,9.27c-.12-.01-.15-.32.08-.67-.08.35-.11.63-.08.67Z"/>
        <g>
          <path class="cls-25" d="M16.11,8.33c.15.05.26-.29.19-.7-.07.35-.15.68-.19.7Z"/>
          <path class="cls-25" d="M16.13,8.32c.02-.22-.2-.68-.26-.72-.06.46.13.77.26.72ZM15.98,7.05c.11,0,.19-.28.03-.64,0,.34,0,.61-.03.64ZM14.31,10.57c.11.11.41-.13.54-.64-.25.36-.49.63-.54.64h0ZM15.88,9.35c.08.1.34-.06.49-.46-.23.27-.44.46-.49.46Z"/>
        </g>
        <path class="cls-22" d="M16.13,8.31c-.13.05-.31-.26-.25-.72.1.39.21.7.25.72Z"/>
        <g>
          <circle class="cls-1" cx="16.04" cy="7.18" r=".03"/>
          <circle class="cls-1" cx="16.15" cy="7.53" r=".03"/>
          <circle class="cls-1" cx="16.19" cy="8.63" r=".04"/>
          <circle class="cls-1" cx="16.04" cy="8.42" r=".04"/>
          <circle class="cls-1" cx="15.62" cy="9.59" r=".04"/>
          <circle class="cls-1" cx="15.8" cy="9.67" r=".04"/>
          <circle class="cls-1" cx="14.58" cy="10.62" r=".04"/>
          <circle class="cls-1" cx="14.38" cy="10.77" r=".04"/>
          <circle class="cls-1" cx="15.82" cy="7.02" r=".03"/>
        </g>
      </g>
      <g id="N">
        <path class="cls-12" d="M12.29,9.57s.02.07.06.06c.01,0,.02-.02,0-.01-.01,0-.03,0-.03-.01-.02-.02-.02-.04-.01-.06l-.02.02h0s0,0,0,0Z"/>
        <g>
          <path class="cls-29" d="M12.38,9.63s-.07.05-.1.02c-.02-.02-.02-.04-.01-.06l-.03.04s.02.04.05.05c.04.02.09,0,.12-.05.02-.03.04-.07.03-.11-.01-.02-.04-.04-.06-.05l-.03.03s.03,0,.05,0c.04.03.02.07-.01.1h0s0,0,0,0Z"/>
          <path class="cls-28" d="M12.38,9.63s-.02.02-.03.03-.03.01-.04,0c0,0-.01,0-.02,0,0,0-.01-.01-.01-.02,0,0,0-.01,0-.02,0,0,0-.02,0-.02h0s-.03.04-.03.04h0s.02.02.03.04c0,0,.01,0,.02.01s.02,0,.02,0c.02,0,.03,0,.05-.01.01,0,.03-.02.04-.03.01-.01.02-.03.03-.04,0-.01.01-.03.01-.05,0,0,0-.02,0-.02s0-.01-.01-.02c-.01-.01-.02-.02-.04-.03h0s-.03.03-.03.03h0s.01,0,.02,0c0,0,.01,0,.02,0,.01,0,.02.02.03.03s0,.03,0,.04c0,.01-.01.02-.02.04h0s0,0,0,0ZM12.38,9.63s.02-.02.02-.04,0-.03,0-.04-.01-.02-.03-.03-.03,0-.04,0h0s.03-.04.03-.04h0s0,0,0,0c.02,0,.03.02.04.03,0,0,.01.01.02.02s0,.02,0,.02c0,.02,0,.03-.01.05,0,.02-.02.03-.03.04-.01.01-.02.02-.04.03-.01,0-.03.01-.05.01,0,0-.02,0-.03,0s-.02,0-.02-.01c-.01-.01-.02-.02-.03-.04h0s0,0,0,0l.03-.04h0s0,.02,0,.02,0,.01,0,.02,0,.01.01.02.01,0,.02,0c.01,0,.03,0,.04,0s.02-.02.03-.03h0Z"/>
        </g>
        <path class="cls-3" d="M14.62,7.02l-1.15,1.16c-.09.09-1.09,1.07-1.18,1.15l-.13.16c-.06.07-.13.16-.21.24-.01.02-.03.01-.05.02-.05.03-.11.08-.15.13l-.35.4s-.03.04-.01.05l.19.26s.08.05.09.02c.09-.16.32-.4.4-.6.05-.12.11-.32.16-.37.06-.06.21-.23.34-.37l.03-.03.03-.03,2.03-2.15s0,0-.03-.03h0Z"/>
        <path class="cls-12" d="M12.22,9.33s-.06-.02-.08-.04c.03.01.07.02.1,0l-.02.03h0Z"/>
        <path class="cls-2" d="M15.82,6.16l-.91.77s-.02,0-.03,0l-.08-.07s0,0,0,0c0,0,0,0,0-.01l.04-.04s0,0,0-.02l-.02-.02s-.01,0-.02,0l-.04.04s-.04.02-.04.04l-1.58,1.58-.65.63s-.12.09-.19.13c-.02.02-.04.03-.05.05l-.05.16s-.07.12-.07.12l.11.11c.05-.06.19-.21.32-.35.01-.01.01-.01.02-.03-.01-.02-.03-.03-.04-.05-.01-.01-.02-.02-.03-.03,0,0-.01-.01-.02-.02s0-.01.01-.02l2.25-2.24s0,0,.01,0c0,0,.01,0,.02,0l.08.09s.03.02.05.01l.92-.84h0Z"/>
        <path class="cls-28" d="M12.2,9.39s.01,0,.02,0c0,0,.01,0,.02,0h0s.02-.07.02-.07l.02-.07h0s-.01-.01-.02-.01c0,0,.02,0,.02.01h0s0,0,0,0l-.02.07-.02.07h0s0,0,0,0c0,0-.01,0-.02,0,0,0-.01,0-.02,0h0Z"/>
        <g>
          <circle class="cls-13" cx="12.4" cy="9.33" r=".02"/>
          <circle class="cls-13" cx="12.3" cy="9.44" r=".02"/>
        </g>
        <path class="cls-28" d="M12.48,9.16s-.02-.01-.03-.02l-.02-.03s.02.01.03.02l.02.03Z"/>
        <path class="cls-12" d="M14.24,7.31l.1.1.02-.02-.1-.1-.02.02Z"/>
      </g>
      <g id="N-2" data-name="N">
        <path class="cls-12" d="M14.85,9.62s-.03.07-.06.06c-.01,0-.02-.02,0-.01.01,0,.03,0,.04,0,.02-.02.02-.04.01-.06l.02.02h0s0,0,0,0Z"/>
        <g>
          <path class="cls-29" d="M14.76,9.67s.07.05.1.03c.02-.02.02-.03.02-.06l.03.04s-.02.04-.05.05c-.04.01-.08-.01-.11-.05-.02-.03-.04-.07-.02-.11.01-.02.04-.04.06-.05l.03.03s-.03,0-.05,0c-.04.03-.02.07,0,.1h0s0,0,0,0Z"/>
          <path class="cls-28" d="M14.76,9.67s.02.02.03.03.03.01.04.01c0,0,.01,0,.02,0,0,0,.01,0,.02-.02,0,0,0-.01,0-.02,0,0,0-.02,0-.02h0s.03.04.03.04h0s-.02.02-.03.03c0,0-.01,0-.02.01s-.02,0-.02,0c-.02,0-.03,0-.04-.02-.01,0-.03-.02-.04-.03-.01-.01-.02-.03-.02-.04,0-.01-.01-.03,0-.05,0,0,0-.02,0-.02s0-.01.02-.02c.01-.01.03-.02.04-.03h0s.03.03.03.03h0s-.01,0-.02,0c0,0-.01,0-.02,0-.01,0-.02.02-.03.03s0,.03,0,.04c0,.01.01.03.02.04h0s0,0,0,0ZM14.76,9.67s-.02-.02-.02-.04,0-.03,0-.04.02-.02.03-.03.03,0,.04,0h0s-.03-.04-.03-.04h0s0,0,0,0c-.02,0-.03.01-.04.03,0,0-.01.01-.02.02s0,.02,0,.02c0,.02,0,.03,0,.05,0,.02.02.03.03.04.01.01.02.02.04.03.01,0,.03.02.05.02,0,0,.02,0,.03,0s.02,0,.02-.01c.01-.01.02-.02.03-.04h0s0,0,0,0l-.03-.04h0s0,.02,0,.02,0,.01,0,.02,0,.01-.01.02-.01,0-.02,0c-.01,0-.03,0-.04-.01s-.02-.02-.03-.03h0Z"/>
        </g>
        <path class="cls-3" d="M12.65,6.95l1.1,1.21c.08.09,1.04,1.12,1.12,1.21l.12.16c.06.07.12.16.2.25.01.02.03.01.05.02.05.03.1.09.14.14l.33.41s.03.04.01.06l-.2.25s-.08.05-.09.02c-.08-.16-.3-.42-.37-.61-.05-.12-.1-.33-.14-.38-.05-.07-.19-.24-.32-.39l-.03-.03-.03-.03-1.92-2.25s0,0,.03-.03h0Z"/>
        <path class="cls-12" d="M14.93,9.38s.06-.02.08-.04c-.03,0-.07.02-.1,0l.02.03h0Z"/>
        <path class="cls-2" d="M11.49,6.04l.88.81s.02,0,.03,0l.09-.07s0,0,0,0c0,0,0,0,0-.01l-.04-.04s0,0,0-.02l.02-.02s.01,0,.02,0l.04.05s.04.02.04.04l1.5,1.66.62.66s.12.09.18.14c.02.02.04.03.05.05l.05.16s.06.12.07.13l-.12.1c-.05-.06-.18-.22-.3-.36,0-.01-.01-.01-.02-.03.01-.02.03-.03.04-.05.01-.01.02-.02.04-.03,0,0,.01-.01.02-.02s0-.01-.01-.02l-2.14-2.35s0,0-.01,0c0,0-.01,0-.02,0l-.08.09s-.04.02-.05,0l-.87-.88h0Z"/>
        <path class="cls-28" d="M14.95,9.45s-.01,0-.02,0c0,0-.01,0-.02,0h0s-.02-.07-.02-.07l-.02-.07h0s.01-.01.02-.01c0,0-.02,0-.02.01h0s0,0,0,0l.02.07.02.07h0s0,0,0,0c0,0,.01,0,.02,0,0,0,.01,0,.02,0h0Z"/>
        <g>
          <circle class="cls-13" cx="14.75" cy="9.37" r=".02"/>
          <circle class="cls-13" cx="14.85" cy="9.49" r=".02"/>
        </g>
        <path class="cls-28" d="M14.68,9.2s.02-.01.03-.02l.03-.02s-.02.01-.03.02l-.03.02Z"/>
        <path class="cls-12" d="M13.01,7.26l-.1.09-.02-.02.1-.09.02.02Z"/>
      </g>
      <g>
        <path class="cls-22" d="M12.28,10.42c-.23-.1-.77-.02-.84.03.47.23.85.13.84-.03ZM14.84,10.52c.23-.1.77-.02.84.03-.47.23-.85.13-.84-.03Z"/>
        <path class="cls-25" d="M12.28,10.42c0,.16-.37.26-.84.03.44.03.8.01.84-.03ZM14.84,10.52c0,.16.37.26.84.03-.44.03-.8.01-.84-.03Z"/>
      </g>
      <g id="O">
        <path class="cls-2" d="M14.43,10.26c-.6-.88-1.49-1.6-2.19-1.99.1,0,.33.11.42.17.69.45,1.27,1.05,1.89,1.75-.04.04-.06.06-.1.09l-.02-.02h0Z"/>
        <path class="cls-29" d="M14.48,10.25l-.04.04c-.66-.87-1.58-1.7-2.2-2.02.86.41,1.59,1.22,2.24,1.98h0s0,0,0,0Z"/>
        <path class="cls-28" d="M14.48,10.25l-.04.04h0s0,0,0,0c-.15-.2-.32-.39-.48-.58s-.35-.37-.53-.54-.37-.34-.57-.49c-.1-.08-.2-.15-.3-.22s-.21-.14-.32-.19h0c.23.1.44.23.64.38s.39.31.58.49.36.36.53.54.33.38.5.57h0ZM14.48,10.25l-.5-.57c-.17-.19-.34-.37-.53-.54s-.37-.34-.58-.49c-.2-.15-.42-.28-.64-.39h0c.11.05.22.12.32.19s.2.14.3.22c.2.15.39.32.57.49.18.17.36.35.53.54.17.19.33.38.48.58h0l.04-.04h0Z"/>
        <g>
          <g>
            <path class="cls-4" d="M14.68,10.12c-.06.01-.11.04-.15.07,0,.04-.06.09-.1.1l-.02-.02s0,0,0,0h-.02s-.04.02-.05.04c-.01.03.01.07.04.09.03.02.04.03.07.03.03,0,.05-.04.06-.04.11.13.19.2.32.31.06,0,.09-.04.07-.08,0-.01-.02-.02-.04-.02,0,0,0,0,0-.01.07-.07.1-.15.03-.29-.06-.12-.14-.16-.2-.16h0,0ZM14.86,10.25s.02.04.03.06c.04.09,0,.19-.07.23,0,0,0,0,0,0,.01-.02-.02-.06-.04-.05,0-.02-.02-.06-.04-.05.01-.02-.02-.06-.04-.04.01-.02,0-.05-.04-.05,0-.02-.01-.05-.04-.05,0-.02,0-.03-.01-.04.03-.02.07-.06.1-.08.08-.03.13.03.16.07h0Z"/>
            <g>
              <path class="cls-10" d="M14.9,10.34s-.02-.02-.02-.03.02-.01.03,0,.02.02.02.03-.02.01-.04,0h0Z"/>
              <path class="cls-10" d="M14.89,10.31s-.02-.02-.02-.03.02-.01.03,0,.02.02.02.03-.02.01-.04,0h0s0,0,0,0Z"/>
              <path class="cls-10" d="M14.87,10.28s-.02-.02-.02-.03.02-.01.03,0,.02.02.02.03-.02.01-.04,0h0Z"/>
              <path class="cls-10" d="M14.85,10.25s-.02-.02-.02-.03.02-.01.03,0,.02.02.02.03-.02.01-.04,0h0Z"/>
              <path class="cls-10" d="M14.82,10.22s-.02-.02-.02-.03c0,0,0,0,0,0,0,0,.02,0,.02,0,0,0,0,0,0,0,0,0,.01,0,.02,0,.01,0,.02.02.02.03s-.02.01-.04,0h0s0,0,0,0Z"/>
            </g>
          </g>
          <path class="cls-9" d="M14.51,10.37c.02-.05.06-.1.1-.11M14.51,10.37s.1-.04.11-.08M14.55,10.42s.09-.04.11-.07M14.59,10.46c.06,0,.09-.04.11-.07M14.63,10.51s.09-.04.1-.07M14.67,10.55c.05,0,.09-.03.1-.06M14.72,10.59s.09-.03.1-.05M14.77,10.63s.08-.03.09-.06"/>
        </g>
        <g>
          <path class="cls-11" d="M14.51,10.37s0-.02.02-.04c0-.01.01-.02.02-.03,0,0,.02-.02.03-.03s.02-.01.03-.02c-.01,0-.02.01-.03.02-.01,0-.02.02-.03.03-.02.02-.03.04-.04.07h0Z"/>
          <path class="cls-11" d="M14.51,10.37s.02,0,.03,0c.01,0,.02-.01.03-.02,0,0,.02-.01.03-.02s.01-.02.02-.03c0,.01-.01.02-.02.03s-.02.02-.03.02c0,0-.02.01-.03.02s-.02,0-.03,0h0ZM14.55,10.42s.02,0,.03,0c.01,0,.02,0,.03-.02,0,0,.02-.01.03-.02,0,0,.02-.02.02-.03,0,.01-.01.02-.02.03,0,0-.02.02-.03.02,0,0-.02.01-.03.02s-.02,0-.04,0h0ZM14.59,10.46s.02,0,.03,0,.02,0,.03-.01c0,0,.02-.01.02-.02,0,0,.01-.02.02-.03,0,.02-.02.04-.04.05,0,0-.02.01-.03.01-.01,0-.02,0-.03,0h0ZM14.63,10.51s.04,0,.06-.02c0,0,.02-.01.02-.02,0,0,.01-.02.02-.03,0,.01-.01.02-.02.03,0,0-.02.02-.02.02,0,0-.02.01-.03.02s-.02,0-.03,0h0ZM14.67,10.55s.02,0,.03,0c.01,0,.02,0,.03-.01,0,0,.02-.01.03-.02,0,0,.01-.02.02-.03,0,.01,0,.02-.02.03,0,0-.02.01-.03.02-.02,0-.04.01-.06.01h0ZM14.72,10.59s.02,0,.03,0c0,0,.02,0,.03-.01,0,0,.02-.01.02-.02s.01-.01.02-.02c0,0,0,.02-.02.03,0,0-.02.01-.02.02,0,0-.02,0-.03.01s-.02,0-.03,0h0ZM14.77,10.63s.02,0,.03,0c0,0,.02,0,.03-.01,0,0,.01-.01.02-.02,0,0,.01-.01.02-.02,0,.02-.02.03-.04.04,0,0-.02,0-.03.01,0,0-.02,0-.03,0h0Z"/>
        </g>
      </g>
      <g id="O-2" data-name="O">
        <path class="cls-2" d="M12.75,10.19c.65-.84,1.59-1.51,2.3-1.85-.1-.01-.34.09-.43.15-.71.41-1.33.97-1.99,1.63.03.04.06.06.09.1l.02-.02h0Z"/>
        <path class="cls-29" d="M12.69,10.18l.04.04c.71-.83,1.68-1.6,2.32-1.89-.89.35-1.66,1.12-2.35,1.84h0s0,0,0,0Z"/>
        <path class="cls-28" d="M12.69,10.18l.04.04h0s0,0,0,0c.16-.19.34-.37.52-.55s.37-.34.56-.5.39-.31.6-.46c.1-.07.21-.14.32-.2s.22-.12.33-.17h0c-.23.09-.45.21-.66.34s-.41.29-.6.45-.38.33-.56.51-.36.36-.53.54h0ZM12.69,10.18l.53-.54c.18-.18.37-.35.56-.51s.39-.31.6-.45c.21-.14.43-.26.66-.35h0c-.11.05-.22.11-.33.17s-.21.13-.32.2c-.21.14-.4.3-.6.46-.19.16-.38.33-.56.5-.18.18-.35.36-.52.55h0s-.04-.04-.04-.04h0Z"/>
        <g>
          <g>
            <path class="cls-4" d="M12.5,10.03c.06.02.1.04.15.07,0,.04.05.09.1.1l.02-.02s0,0,0,0h.02s.04.02.05.04c0,.03-.01.07-.04.09-.03.02-.04.03-.07.02-.03,0-.05-.04-.05-.05-.11.13-.2.19-.34.29-.06,0-.09-.04-.07-.09,0-.01.03-.02.04-.02,0,0,0,0,0-.01-.07-.07-.09-.15,0-.29.07-.11.14-.15.21-.14h0s0,0,0,0ZM12.31,10.15s-.02.04-.03.06c-.05.09-.02.19.05.23,0,0,0,0,0,0-.01-.02.03-.06.04-.05,0-.02.02-.06.04-.05-.01-.02.02-.05.04-.04-.01-.02.01-.05.04-.05,0-.02.01-.05.04-.04,0-.02,0-.03.02-.04-.03-.03-.06-.07-.09-.09-.08-.04-.13.02-.16.06h0s0,0,0,0h0Z"/>
            <g>
              <path class="cls-10" d="M12.27,10.24s.02-.02.02-.03-.02-.01-.03,0-.02.02-.02.03.02.01.04,0h0Z"/>
              <path class="cls-10" d="M12.28,10.21s.02-.02.02-.03-.02-.01-.03,0-.02.02-.02.03.02.01.04,0h0s0,0,0,0Z"/>
              <path class="cls-10" d="M12.3,10.18s.02-.02.02-.03-.02-.01-.03,0-.02.02-.02.03.02.01.04,0h0Z"/>
              <path class="cls-10" d="M12.33,10.15s.02-.02.02-.03-.02-.01-.03,0-.02.02-.02.03.02.01.04,0h0Z"/>
              <path class="cls-10" d="M12.36,10.12s.02-.02.02-.03c0,0,0,0,0,0,0,0-.02,0-.02,0,0,0,0,0,0,0,0,0-.01,0-.02,0-.02,0-.02.02-.02.03s.02.01.04,0h0s0,0,0,0Z"/>
            </g>
          </g>
          <path class="cls-9" d="M12.66,10.29c-.02-.05-.05-.1-.09-.12M12.65,10.29s-.09-.04-.1-.08M12.62,10.33s-.09-.04-.11-.08M12.57,10.38c-.06,0-.09-.04-.1-.08M12.53,10.42s-.09-.05-.1-.08M12.48,10.46c-.05,0-.09-.03-.1-.07M12.43,10.5s-.08-.03-.1-.06M12.38,10.54s-.08-.03-.09-.06"/>
        </g>
        <g>
          <path class="cls-11" d="M12.66,10.29s0-.02-.01-.04c0-.01-.01-.02-.02-.03,0-.01-.02-.02-.03-.03s-.02-.01-.03-.02c.01,0,.02.01.03.02,0,0,.02.02.03.03.02.02.03.04.04.07h0Z"/>
          <path class="cls-11" d="M12.65,10.29s-.02,0-.03,0c-.01,0-.02-.01-.03-.02,0,0-.02-.02-.02-.03s-.01-.02-.02-.03c0,.01,0,.02.02.03s.02.02.02.03c0,0,.02.01.03.02s.02,0,.03,0h0ZM12.62,10.33s-.02,0-.03,0c-.01,0-.02-.01-.03-.02,0,0-.02-.02-.02-.03,0,0-.01-.02-.02-.03,0,.01.01.02.02.03,0,0,.02.02.02.03,0,0,.02.01.03.02s.02,0,.04,0h0ZM12.57,10.38s-.02,0-.03,0-.02,0-.03-.02c0,0-.02-.01-.02-.02,0,0-.01-.02-.02-.03,0,.02.02.04.04.05,0,0,.02.01.03.02.01,0,.02,0,.03,0h0ZM12.53,10.42s-.04-.01-.06-.03c0,0-.02-.01-.02-.02,0,0-.01-.02-.02-.03,0,.01,0,.02.02.03,0,0,.01.02.02.02,0,0,.02.01.03.02s.02,0,.03,0h0ZM12.48,10.46s-.02,0-.03,0c0,0-.02,0-.03-.01,0,0-.02-.01-.02-.02,0,0-.01-.02-.02-.03,0,.01,0,.02.02.03,0,0,.02.02.02.02.02.01.04.02.06.02h0ZM12.43,10.5s-.02,0-.03,0c0,0-.02,0-.03-.01,0,0-.02-.01-.02-.02s-.01-.02-.02-.02c0,0,0,.02.02.03,0,0,.01.01.02.02,0,0,.02,0,.03.01s.02,0,.03,0h0ZM12.38,10.54s-.02,0-.03,0c0,0-.02,0-.02-.01,0,0-.01-.01-.02-.02,0,0-.01-.02-.01-.02,0,.02.02.03.03.05,0,0,.02,0,.03.01,0,0,.02,0,.03,0h0Z"/>
        </g>
      </g>
      <g>
        <path class="cls-25" d="M11.57,6.75c.21-.07.54-.45.56-.52-.45.12-.65.42-.56.52h0ZM15.76,6.89c-.05-.21-.38-.56-.45-.58.08.44.34.67.45.58Z"/>
        <path class="cls-22" d="M11.57,6.75c-.1-.1.11-.4.56-.52-.31.25-.55.47-.56.52h0ZM15.76,6.89c-.11.08-.37-.14-.45-.58.21.32.4.57.45.58Z"/>
      </g>
      <g>
        <g>
          <path class="cls-19" d="M12.81,9.03s-.18.02-.23-.23c-.05-.27.15-.29.15-.29,0,0,.23-.02.38-.03l.06.53-.37.02h0Z"/>
          <path class="cls-23" d="M12.83,8.95s-.11.02-.14-.16c-.02-.13.06-.15.06-.15l.27.05v.24s-.19.03-.19.03h0Z"/>
          <path class="cls-21" d="M12.76,8.64l.26-.02.04.17h-.2s-.01-.14-.09-.14h0Z"/>
          <path class="cls-18" d="M12.72,8.51s.22-.05.24.19c0,.06-.03.21-.13.25l.4-.04-.04-.44h-.13s-.29.02-.34.04h0Z"/>
          <path class="cls-24" d="M12.81,9.03s1.49-.1,1.64-.1c.45-.25,0-1.25-.38-1.8.04-.13-.86-.41-1.27-.38h-.15c-.22.03-.22.32-.13.51.09.18.87,1.61.32,1.77h-.03s0,0,0,0Z"/>
          <path class="cls-15" d="M14.41,7.72c-.1-.2-.21-.4-.34-.59.04-.13-.86-.41-1.27-.38h-.15c-.22.03-.22.32-.13.51.03.06.12.24.23.46"/>
          <path class="cls-17" d="M12.89,8.06c.16.43.25.88-.05.96h-.03s1.49-.1,1.64-.09c.25-.14.22-.49.09-.88"/>
          <path class="cls-16" d="M12.67,6.85c-.11,0-.13.1-.13.17,0,.17.13.18.13.18h.17s.08-.37.08-.37h-.25Z"/>
          <path class="cls-20" d="M12.67,6.85h.25s.03.25.03.25h-.22s.07-.2-.06-.25h0Z"/>
          <path class="cls-14" d="M14.07,7.14c.19-.03.19-.29.06-.4-.45-.02-1.03,0-1.46.03.05,0,.18.01.2.19,0,.08-.03.16-.09.2-.05.04-.11.04-.11.04,0,0,.06,0,.1,0,.02,0,.07,0,.09,0,.6-.08,1.21-.05,1.21-.05h0s0,0,0,0Z"/>
        </g>
        <g>
          <path class="cls-34" d="M12.99,7.55s0-.02-.02-.02c0,0-.02,0-.02-.01,0,0,.02,0,.02,0,.02,0,.03,0,.05,0,0,0,0,.02,0,.01-.01,0,0,.02,0,.02l.04.09s.01.02.02.02c.01,0,.02,0,.03,0,0,0,0-.02,0-.03,0-.01.02,0,.01,0v.04s0,0,0,0h-.09s-.02.01-.03,0c0-.01.01,0,.02-.01,0,0,0-.02,0-.03l-.03-.08h0ZM13.13,7.54s0-.02-.02-.02c0,0-.02,0-.02-.01,0,0,.01,0,.02,0,.02,0,.03,0,.05,0,0,0,.01.02,0,.01-.01,0-.01.01,0,.02l.04.1s0,.02.02.02c0,0,.02,0,.02,0,0,0-.01,0-.02,0-.02,0-.03,0-.04,0,0,0-.02,0-.02,0,0,0,.02,0,.02-.01,0,0,0-.02,0-.03l-.03-.08h0ZM13.25,7.56s.01,0,.02,0c0,0,.02,0,.01-.01,0-.01,0-.03-.02-.03,0,0-.02,0-.03,0,0,0,0,0,0,.01l.02.04h0ZM13.27,7.61s0,.02.02.03c0,0,.02,0,.02,0,0,0,.01,0,.01-.02,0-.02-.02-.04-.04-.04,0,0-.02,0-.03,0,0,0,0,0,0,.01v.02s0,0,0,0ZM13.22,7.54s0-.02-.02-.03c0,0-.02,0-.02,0,0,0,.02,0,.02,0,.02,0,.05,0,.07,0,.02,0,.04.02.04.05,0,.01,0,.02-.02.02,0,0,.01,0,.01,0,.02,0,.03.02.04.03,0,.01.01.03,0,.04-.01.01-.03.01-.04.01-.02,0-.04,0-.06,0,0,0-.01-.01,0-.01.01,0,.01-.01,0-.02l-.04-.09h0ZM13.43,7.48s.01,0,.01.02c0,0,0,.02.01.02,0,0-.01,0-.02-.01,0,0-.01-.01-.02-.01-.01,0-.02,0-.04,0,0,0,0,.01,0,.02l.02.04s.02,0,.02,0c0,0,0-.02,0-.02,0,0,0,.02.01.03,0,.01.01.02.01.03,0,0-.02,0-.02-.01,0-.01-.02,0-.03,0,0,0,0,0,0,0,0,.01.01.03.02.04,0,.01.02,0,.03,0,0,0,.02,0,.03,0,0,0,0-.02,0-.02,0,0,0,.01.01.02,0,0,0,.02,0,.02,0,0,0,0-.01,0h-.09s-.02.01-.03,0c0,0,.02,0,.02-.02,0-.01,0-.02-.01-.03l-.03-.08s-.01-.02-.02-.02c0,0-.02,0-.01-.01,0,0,.02,0,.03,0h.08s0,0,0,0ZM13.49,7.52s0-.02-.02-.03c0,0-.02,0-.02-.01,0,0,.02,0,.03,0,.02,0,.05,0,.07,0,.02,0,.04.03.05.05,0,.01,0,.02-.02.03,0,0,0,0,0,0,.02,0,.03.03.04.04,0,0,.01.02.02,0,0-.01.02,0,.01,0,0,.01-.01.02-.02.02-.01,0-.03,0-.03-.02-.01-.02-.02-.04-.04-.05,0,0-.02,0-.02,0,0,0,0,0,0,.01,0,.01,0,.02.02.04,0,0,.02.01.03.01.01,0,0,.02,0,.01-.02,0-.03,0-.05,0,0,0-.02,0-.02-.01,0,0,.02,0,.01-.02l-.03-.08v-.02s0,0,0,0ZM13.54,7.55s.02,0,.02,0c.01,0,.01-.01,0-.02,0-.01-.01-.03-.03-.03,0,0-.02,0-.03,0l.02.05h0s0,0,0,0ZM13.74,7.6s0,.02.02.02c0,0,.02,0,.02,0,0,0-.01,0-.02,0-.02,0-.03,0-.05,0,0,0-.02,0-.01,0,0,0,.02,0,.02-.01,0-.01,0-.02-.01-.03l-.03-.08s-.01,0-.02,0c0,0-.02,0-.02.01,0,0,0,.02,0,.02,0,0-.01,0-.01-.01,0,0,0-.02-.01-.03,0,0,0,0,.01,0h.12s.01,0,.01,0c0,0,0,.02.01.03,0,0-.01,0-.02,0,0-.01-.01-.02-.03-.02,0,0-.02,0-.02,0,0,0,0,.01,0,.02l.04.09h0ZM13.85,7.57s0,0,0,.01c0,0,0,.02,0,.02,0,0,.02,0,.02,0,0,0,0,.01,0,.01-.01,0-.02,0-.04,0,0,0-.02,0-.01-.01,0,0,.01,0,.01,0,0-.01,0-.02,0-.04v-.11s.02,0,.02,0l.1.13s.01.01.02.01c0,0,.01.02,0,.01-.01,0-.03,0-.04,0,0,0-.01,0-.02,0,0,0,0-.01,0-.01.01,0,0-.01,0-.02l-.02-.02s-.01,0-.02,0h-.03s0,0,0,0ZM13.88,7.56s0,0,0,0l-.04-.05s0,0,0,0v.05s.04,0,.04,0h0ZM13.97,7.5s-.01-.03-.02-.03c0,0-.02,0-.01-.01h.05s.04,0,.06,0c.04.01.08.05.08.1,0,.02,0,.04-.02.05-.02.01-.05.01-.07,0-.01,0-.03,0-.04,0,0,0,0-.01,0-.01.01,0,.01-.01,0-.02l-.03-.09h0ZM14.03,7.57s0,.02.02.03c0,0,.02,0,.03,0,.01,0,.02-.01.02-.03,0-.02,0-.04-.02-.06-.01-.02-.03-.04-.05-.04,0,0-.02,0-.03,0,0,0,0,0,0,.01l.03.09h0ZM13.42,7.94s.01.02.02.02c0,0,.02,0,.02.01,0,0-.02,0-.02,0-.01,0-.03,0-.04,0,0,0-.02,0-.02,0,0,0,0-.01,0-.01,0,0,.02,0,.02-.01,0,0,0-.02,0-.02l-.03-.08s-.01,0-.02,0c0,0-.02,0-.02,0,0,0,.01,0,.02-.01h.03s0,0,.01,0l.05.12h0ZM13.44,7.81s.04,0,.06,0c0,0,0-.01.01-.01.01,0,0,.01,0,.02,0,0,0,.02-.01.02,0,0,0,0,0,0-.02,0-.03,0-.05,0,0,.01,0,.02.01.04,0,0,.01,0,.02,0,.03,0,.06.02.08.05,0,.01,0,.03,0,.05-.01.01-.03.02-.05.02-.01,0-.03,0-.04-.02,0,0,0-.02,0-.02,0,0,.02,0,.02.02,0,0,.02,0,.02,0,0,0,.02,0,.02-.02,0-.01,0-.03-.01-.04,0-.01-.02-.02-.04-.02,0,0-.02,0-.02,0,0,0,0-.01-.01-.02l-.02-.05s0,0,0,0h0ZM13.64,7.84s-.01-.03-.02-.03c0,0-.02,0-.01-.01h.05s.04,0,.06,0c.04.01.08.05.08.1,0,.02,0,.04-.02.05-.02.01-.05.01-.07.01-.01,0-.03,0-.04,0,0,0-.01-.01,0-.01.01,0,0-.01,0-.02l-.03-.09h0ZM13.7,7.91s0,.02.02.03c0,0,.02,0,.03,0,.01,0,.02-.02.02-.03,0-.02,0-.04-.02-.06-.01-.02-.03-.04-.05-.04,0,0-.02,0-.03,0,0,0,0,0,0,.01l.03.09h0ZM13.88,7.78s.01,0,.01.01c0,0,0,.02,0,.02,0,0-.01,0-.02,0,0,0-.01-.02-.02-.01-.01,0-.02,0-.04,0,0,0,0,.01,0,.02l.02.04s.02,0,.02,0c0,0,0-.02,0-.02,0,0,0,.02.01.02,0,.01.01.02.01.03,0,0-.02,0-.02,0,0,0-.01-.01-.02-.01,0,0-.01,0,0,0,0,.02.01.03.02.05,0,.01.02,0,.03,0,0,0,.02,0,.03,0,0,0,0-.02,0-.02,0,0,.01,0,.01.02,0,0,0,.02,0,.03,0,0,0,0-.01,0h-.09s-.02,0-.03,0c0-.01.01,0,.02-.02,0,0,0-.02,0-.03l-.03-.08s-.01-.02-.02-.02c0,0-.02,0-.01-.01.01,0,.02,0,.03,0h.08s0,0,0,0ZM13.1,8.2s.02.02.03.02c.02,0,.05.02.06.03,0,.01.01.03.01.04,0,.01-.01.03-.03.03-.02,0-.03,0-.05,0,0,0,0,.01-.01,0,0,0,0-.02,0-.02,0,0,0-.02-.01-.03,0,0,.01,0,.01,0,0,.02.03.03.05.03.01,0,.02,0,.02-.02,0-.02-.01-.03-.02-.03-.02,0-.04-.01-.06-.02-.02,0-.03-.03-.03-.05,0-.01.01-.02.02-.03.01,0,.03,0,.05,0,0,0,0,0,.02,0,0,0,0,.01,0,.02,0,0,0,.02,0,.02,0,0-.01,0-.01,0,0-.01-.01-.02-.03-.02,0,0-.02,0-.03,0,0,0,0,.01,0,.02h0ZM13.29,8.15s0,0,.01.02c0,0,0,.02,0,.02,0,0-.01,0-.02,0,0,0,0-.02-.02-.02-.01,0-.02,0-.04,0,0,0,0,.01,0,.02v.04s.03,0,.04,0c0,0,0-.02,0-.02.01,0,0,.01.01.02,0,.01,0,.02.01.04,0,0-.02,0-.02,0,0,0-.01-.01-.02-.01,0,0-.01,0,0,0l.02.04s.01.01.02,0c.01,0,.02,0,.03,0,0,0,0-.02,0-.02,0,0,.02,0,.01.01,0,.01,0,.02,0,.03,0,0,0,0-.01,0h-.09s-.02.01-.02,0c0-.01.01,0,.02-.01s0-.02,0-.03l-.03-.09s0-.02-.02-.02c0,0-.02,0-.01-.01,0,0,.02,0,.03,0h.08s0,0,0,0ZM13.41,8.27s0,.02.02.02c0,0,.02,0,.02,0,0,0-.01,0-.02,0-.01,0-.03,0-.04,0,0,0-.02,0-.02,0,0,0,.01,0,.02-.01,0,0,0-.02,0-.02l-.03-.09s0-.02-.02-.02c0,0-.02,0-.02-.01,0,0,.01,0,.02,0,.02,0,.04,0,.06,0,.02,0,.04.01.05.04,0,.01,0,.03,0,.04-.01.01-.03.02-.05.02,0,0,0,0,0,0v.03s0,0,0,0ZM13.39,8.22s.01,0,.02,0c0,0,.01-.01.01-.02,0-.01,0-.03-.02-.03,0,0-.02,0-.03,0,0,0,0,0,0,.01l.02.05h0ZM13.57,8.27s0,.02.01.02c0,0,.02,0,.02,0,0,0-.01,0-.02,0-.02,0-.03,0-.05,0,0,0-.02,0-.01,0,0,0,.02,0,.02-.01,0-.01,0-.02,0-.03l-.03-.08s-.01,0-.02,0-.02,0-.02.01c0,0,0,.02,0,.02,0,0-.01,0-.01,0,0-.01,0-.02,0-.03,0,0,0,0,.01,0h.12s.01,0,.01,0c0,0,0,.02,0,.03,0,0-.01,0-.01,0,0-.01-.01-.02-.03-.02,0,0-.02,0-.02,0,0,0,0,.01,0,.02l.03.09h0ZM13.63,8.17s0-.02-.02-.02c0,0-.02,0-.02-.01,0,0,.01,0,.02,0,.02,0,.03,0,.05,0,0,0,.01.01,0,.01,0,0-.02,0-.01.01,0,.02,0,.03.01.05l.02.06s0,.01.01.01c0,0,.02,0,.02.01,0,0-.01,0-.02,0-.02,0-.03,0-.05,0,0,0-.02,0-.01-.01,0,0,.02,0,.02-.01,0-.01,0-.02-.01-.04l-.02-.07h0ZM13.8,8.12s0,0,.01.02c0,0,0,.02,0,.02,0,0-.01,0-.02,0,0,0,0-.02-.02-.02-.01,0-.02,0-.04,0,0,0,0,.01,0,.02v.04s.03,0,.04,0c0,0,0-.02,0-.02.01,0,0,.01.01.02,0,.01,0,.02.01.04,0,0-.02,0-.02,0,0,0-.01-.01-.02-.01,0,0-.01,0-.01,0l.02.05s.01.01.02,0c.01,0,.02,0,.03,0,0,0,0-.02,0-.02,0,0,.02,0,.01.01,0,.01,0,.02,0,.03,0,0,0,0-.01,0h-.09s-.02.01-.02,0c0-.01.01,0,.01-.01,0,0,0-.02,0-.02l-.03-.09s0-.02-.02-.02c0,0-.02,0-.01-.01,0,0,.02,0,.03,0h.08s0,0,0,0ZM13.86,8.15s0-.02-.02-.02c-.01,0-.01-.02,0-.01.01,0,.03,0,.04,0,0,0,.01.02.02.03l.06.09s0,0,0,0v-.1s.03,0,.04,0c0,0,.03,0,.02.01,0,0-.02,0-.02.02l.03.1s.01.02.02.02c0,0,0,.02,0,.01-.02,0-.03,0-.05,0,0,0-.02,0-.02-.01,0,0,.02,0,.02-.02l-.03-.09s0,0,0,.01v.09s0,.02-.01.02c0,0-.01,0-.01,0l-.08-.11s0,0,0,0l.03.08s.01.01.02.01c.01,0,0,.02,0,.01-.01,0-.03,0-.04,0,0,0,0-.02,0-.01.01,0,0-.02,0-.02l-.03-.1h0s0,0,0,0ZM14.11,8.18s.01,0,.02,0c0,0,.02,0,.02-.01,0-.01,0-.03-.01-.03,0,0-.02,0-.03,0,0,0,0,0,0,.01v.04h.01ZM14.12,8.22s0,.02.01.03c0,0,.02,0,.02,0,0,0,.01,0,.01-.01,0-.02,0-.04-.03-.04,0,0-.02,0-.03,0,0,0,0,0,0,.01v.02s0,0,0,0ZM14.07,8.15s0-.02-.02-.03c0,0-.02,0-.02,0,0,0,.02,0,.02,0,.03,0,.05,0,.08,0,.02,0,.04.02.04.05,0,.01,0,.02-.02.03,0,0,.01,0,.01,0,.02,0,.03.02.04.03,0,.01,0,.03,0,.04-.01.01-.03.01-.04.01-.02,0-.05,0-.07,0,0,0-.01-.01,0-.01.01,0,.01-.01,0-.02l-.03-.09h0ZM14.21,8.15s0-.02-.02-.03c0,0-.02,0-.02-.01,0,0,.02,0,.03,0,.02,0,.04,0,.06,0,.02,0,.04.02.05.04,0,.01,0,.03-.01.03,0,0-.01,0-.01,0,.02,0,.03.02.04.04,0,0,0,.02.01.02,0,0,0,0,0,0,.01,0,.02,0,.01.02,0,.01-.02.01-.03.01,0,0-.02,0-.02-.02,0-.02-.02-.03-.03-.05,0,0-.02,0-.02,0,0,0,0,0,0,.01,0,.01,0,.02.01.03,0,0,.02.01.03.01,0,0,0,.02,0,.01-.02,0-.04,0-.05,0,0,0-.02,0-.02,0,0-.01.01,0,.02-.01,0,0,0-.02,0-.02l-.02-.08h0ZM14.25,8.17s.02,0,.02,0c0,0,.01,0,.01-.02,0-.01,0-.03-.02-.04,0,0-.02,0-.03,0,0,0,0,0,0,.01v.04s.01,0,.01,0ZM14.45,8.1s0,0,.01.01c0,0,0,.02,0,.02,0,0-.01,0-.01,0,0,0,0-.02-.02-.02-.01,0-.02,0-.04,0,0,0,0,.01,0,.02v.04s.03,0,.03,0c0,0,0-.02,0-.02.01,0,.01.01.01.02,0,.01,0,.03.01.04,0,0-.02,0-.02,0,0,0-.01-.01-.02-.01,0,0-.02,0-.01,0v.05s.03.01.03.01c.01,0,.02,0,.03,0,0,0,0-.02,0-.02,0,0,.02,0,.01.01,0,.01,0,.02,0,.03,0,0,0,0-.01,0h-.09s-.02,0-.02,0c0-.01,0,0,.01-.01,0,0,0-.01,0-.02l-.03-.09s0-.02-.02-.02c0,0-.02,0-.01-.01,0,0,.02,0,.03,0h.08s0,0,0,0ZM13.51,8.48s0-.02-.02-.03c0,0-.02,0-.01-.01,0,0,.02,0,.03,0,.02,0,.05,0,.07,0,.03,0,.06.03.07.07,0,.02,0,.05,0,.07-.01.02-.04.02-.06.03-.02,0-.04,0-.05,0,0,0-.02,0-.01-.01,0,0,.02,0,.02-.02v-.04s-.02-.05-.02-.05h0ZM13.55,8.56s0,.02.01.03c0,0,.02,0,.03,0,.01,0,.02-.01.03-.03,0-.02,0-.04-.01-.07,0-.02-.02-.03-.04-.04-.01,0-.02,0-.03,0,0,0,0,0,0,.01l.02.09h0ZM13.76,8.43s0,0,.01.02c0,0,0,.02,0,.02,0,0-.01,0-.01,0,0,0,0-.02-.02-.02-.01,0-.02,0-.04,0,0,0,0,.01,0,.02v.04s.03,0,.03,0c0,0,0-.02,0-.02.01,0,0,.01.01.02,0,.01,0,.02,0,.04,0,0-.02,0-.01,0,0,0-.01-.01-.02-.01,0,0-.01,0-.01,0,0,.02,0,.03.01.05,0,0,.01.01.02,0,.01,0,.03,0,.04,0,0,0,0-.02,0-.02,0,0,.01,0,.01.01,0,0,0,.02,0,.03,0,0,0,0-.01,0h-.09s-.02.01-.02,0c0,0,0-.01,0-.01,0,0,0-.01,0-.02l-.02-.09s0-.02-.02-.02c0,0-.02,0-.01-.01,0,0,.02,0,.03,0h.08s0,0,0,0ZM13.94,8.55s0,.02.02.02c0,0,.02,0,.02,0,0,.01-.01,0-.02,0-.02,0-.03,0-.05,0,0,0-.02,0-.02,0,0,0,0-.01,0-.01,0,0,.02,0,.02-.01,0,0,0-.02,0-.02l-.02-.08s-.01,0-.02,0c0,0-.02,0-.02,0,0,0,.01,0,.02-.01h.03s0,0,0,0l.03.12h0Z"/>
          <path class="cls-34" d="M14.05,8.45s0-.02-.02-.02c0,0-.02,0-.02.01,0,.01,0,.02.01.03,0,0,.02,0,.03.01,0,0,0-.01,0-.02,0,0,0,0,0-.01h0ZM14.07,8.53s-.02-.02-.03-.03c0,0-.01,0-.02,0,0,0-.01.02,0,.03,0,.01.01.03.03.03.01,0,.02,0,.02-.01,0,0,0-.01,0-.01h0ZM14.1,8.53s0,.03-.01.04c-.02.01-.04.01-.06,0-.02,0-.03-.02-.03-.04,0-.01,0-.03.01-.04,0,0,.01,0,0,0-.01,0-.03-.02-.03-.04,0-.01,0-.03.02-.04.02-.01.06,0,.07.02,0,.01,0,.03,0,.04,0,0,0,.01-.02.01.01,0,.03.01.04.02,0,0,0,.01,0,.02h0ZM14.19,8.54s.01,0,.02-.01c0,0,0-.02,0-.02,0,0,0,.01,0,.02,0,.01,0,.03,0,.03,0,0-.02,0-.02,0-.02,0-.03,0-.05,0,0,0-.01,0-.02,0,0,0,0-.02,0-.02,0-.02.02-.03.03-.05,0,0,.02-.02.02-.03,0-.01,0-.02,0-.03,0-.01-.03-.02-.04,0,0,0-.01.01,0,.02,0,0,.02,0,.02.01,0,0,0,.02,0,.02-.01,0-.02,0-.03-.02,0-.01,0-.03.01-.04.01,0,.03,0,.05,0,.02,0,.03.02.03.03,0,.01,0,.03,0,.04-.01.02-.03.03-.05.05,0,0,0,.01,0,.02,0,0,.01,0,.02,0,0,0,.02,0,.03,0h0ZM14.31,8.53s0,.02.02.02c0,0,.02,0,.02,0,0,.01,0,0-.02,0-.02,0-.03,0-.05,0,0,0-.02,0-.02,0,0,0,0-.01,0-.01,0,0,.02,0,.02-.01,0,0,0-.02,0-.02l-.02-.08s0-.01-.02,0c0,0-.02,0-.02,0,0-.01,0-.01.02-.01h.04s0,0,0,0l.02.12h0Z"/>
        </g>
      </g>
      <g>
        <path class="cls-5" d="M13.49,6.14l-.11.13c-.03.15.05.27.22.37.14.09.39.11.47.04l-.39-.38-.19-.16h0Z"/>
        <path class="cls-6" d="M14.28,10.09l-.06-.07c-.25.33-.55.63-.94.84.43-.13.72-.45,1-.77ZM13.84,11.14c.15-.32.34-.63.52-.95l-.06-.08c-.21.36-.46.78-.46,1.02h0ZM15.04,7.79c-.03-.12-.07-.26-.12-.38-.08-.16-.19-.32-.34-.49-.27-.3-.54-.59-.92-.8h0s0,0,0,0h0,0s.01,0,.01,0h0s.01,0,.01,0h-.01s.01-.01.01-.01h0s.01,0,.01,0h0s.01,0,.01,0h-.01s.02-.01.02-.01h-.01s.01-.01.01-.01h-.01s.02-.01.02-.01h-.01s.02-.02.02-.02h-.02s.02-.02.02-.02h-.02s.02-.02.02-.02h-.02s.01-.02.01-.02h-.02s0-.02,0-.02h-.02s0,0,0,0h.01s-.02,0-.02,0v-.02s-.01,0-.01,0v-.02s-.01.01-.01.01v-.02s-.01.01-.01.01v-.02s-.01.02-.01.02v-.02s-.01.02-.01.02v-.02s-.01.02-.01.02v-.02s-.02.02-.02.02v-.02s-.01.02-.01.02v-.02s-.01.02-.01.02v-.02s-.01.02-.01.02v-.02s-.01.02-.01.02v-.02s-.01.02-.01.02v-.02s-.01.02-.01.02v-.02s-.01.02-.01.02v-.02s-.01.02-.01.02v-.02s-.01.02-.01.02h-.01s0,.01,0,.01h-.02s0,.01,0,.01h-.01s0,.01,0,.01h-.01s0,.01,0,.01c0,0,0,0,0,0h0s0,0,0,0h0s-.01.07-.01.1c0,0,.02.01.02.02,0,.01,0,.02,0,.02-.05.08-.09.13-.09.22.04-.05.07-.11.13-.11-.03.05-.04.18,0,.2l.02-.04s0,.05.01.07c0-.02.02-.04.03-.05,0,.04,0,.08.02.1.01-.02.03-.03.05-.05,0,.03-.01.05-.01.08.02-.03.04-.05.06-.07-.01.05,0,.08.01.13.01-.06.02-.07.04-.09,0,.06,0,.11,0,.14.03-.05.04-.04.06-.07,0,.05-.01.1,0,.14,0-.04.04-.06.06-.08,0,.06.02.05-.02.11.02,0,.07-.01.1-.02-.01.03-.01.06-.03.09.03-.02.06-.04.08-.07-.01.04-.04.08-.03.12,0-.04.04-.07.06-.07,0,.02,0,.06-.04.08.07,0,.1-.04.13-.08,0,.04,0,.07.04.13,0-.07,0-.06.04-.1.02.06.03.13.1.18-.03-.07-.03-.1-.02-.14,0,.04.05.1.06.14,0-.05.01-.09.03-.12.02.05.03.1.04.16.01-.03.03-.06.03-.09.57.6.69,1.37.07,2.18.22-.15.28-.4.41-.61-.12.27-.18.58-.39.8.21-.18.25-.35.37-.52-.13.37-.32.77-.57,1.13l.14.15.12-.2c.27-.45.71-1.1.49-2.08h0Z"/>
      </g>
      <path class="cls-7" d="M13.41,6.02s-.04.02-.06.04c.03,0,.05,0,.07,0,0,0,0-.01,0-.02v-.03s-.02,0-.03,0h0s0,0,0,0Z"/>
      <path class="cls-31" d="M13.35,6.07s.02,0,.03,0h.03s-.02,0-.03,0h-.03Z"/>
      <circle class="cls-36" cx="13.54" cy="6.03" r=".02"/>
      <circle class="cls-35" cx="13.54" cy="6.02" r="0"/>
      <path class="cls-26" d="M13.84,11.13l.04-.13.05-.13.12-.25.13-.24.07-.12.07-.12-.07.12-.07.12-.13.24-.12.25-.05.13-.05.13h0ZM13.3,10.85l.14-.07.14-.08c.09-.06.17-.12.25-.19.08-.07.15-.14.22-.22.04-.04.07-.08.1-.12.03-.04.07-.08.1-.12-.03.04-.06.08-.1.13-.03.04-.07.08-.1.12-.07.08-.14.15-.22.22-.08.07-.16.13-.25.19-.04.03-.09.05-.14.08-.05.02-.09.05-.14.07h0ZM14.37,9.99l.06-.1.06-.1.11-.2.11-.2.11-.21-.05.1-.05.1-.11.21-.12.2-.13.19h0ZM14.54,9.26c.05-.06.09-.12.13-.19.04-.07.08-.13.11-.2.06-.14.11-.29.14-.44v-.06s.02-.04.02-.06c0-.04,0-.08.01-.12,0-.08,0-.16,0-.23,0-.08-.02-.15-.04-.23-.02-.08-.04-.15-.07-.22.03.07.05.15.07.22.02.08.03.15.04.23,0,.08,0,.16,0,.23,0,.04,0,.08-.01.12,0,.02,0,.04,0,.06v.06c-.05.15-.09.3-.16.44-.03.07-.07.14-.11.2-.04.07-.09.13-.14.19h0ZM14.49,9.09c.05-.05.1-.11.14-.17.04-.06.08-.13.11-.19l.09-.21.04-.1v-.03s.02-.03.02-.03l.02-.05h0c.01-.07.02-.15.02-.22s0-.15-.02-.23-.03-.15-.05-.22c-.02-.07-.05-.14-.07-.21l.08.21c.02.07.04.15.05.22.01.07.02.15.02.23s0,.15-.02.23h0s0,0,0,0l-.02.05v.03s-.02.03-.02.03l-.04.1-.09.21c-.03.07-.07.13-.11.19-.04.06-.09.12-.14.17h0ZM14.33,9.95l.1-.15.05-.07.05-.07c.03-.05.06-.1.08-.16l.08-.16c.05-.11.1-.22.14-.33.04-.11.08-.23.1-.34.02-.12.04-.24.05-.36.01-.12.01-.24,0-.36s-.04-.24-.08-.35c-.04-.11-.09-.22-.15-.33.06.1.11.21.15.33.04.11.07.23.08.35s.01.24,0,.36c-.01.12-.03.24-.05.36s-.06.23-.1.35-.09.22-.14.33l-.08.16c-.03.05-.05.11-.08.16-.02.03-.03.05-.05.07l-.05.07-.1.15h0ZM14.41,10.03l.2-.34c.06-.11.13-.23.19-.35s.11-.24.14-.37c.02-.06.03-.13.05-.19,0-.03.01-.06.02-.1v-.1c.03-.13.04-.26.04-.39s-.01-.26-.03-.39-.06-.26-.11-.38c-.05-.12-.12-.23-.2-.34.08.1.15.22.2.34.05.12.09.25.12.38s.04.26.04.39,0,.26-.03.39v.1s-.02.07-.03.1c-.01.06-.03.13-.05.19-.04.13-.09.25-.14.37s-.12.23-.19.35c-.07.11-.13.23-.2.34h0ZM13.61,6.18s.03,0,.04,0c.01,0,.03,0,.04,0,.03,0,.05.02.08.03.05.02.1.05.14.09.04.03.08.07.12.11l.05.06.05.07-.05-.06-.06-.06s-.08-.08-.12-.11c-.04-.03-.09-.06-.14-.09-.02-.01-.05-.02-.08-.03-.03,0-.05-.01-.08-.01h0Z"/>
      <g>
        <path class="cls-32" d="M14.08,6.5s.09.05.14.13c0,0-.14-.03-.23-.14"/>
        <path class="cls-26" d="M14.08,6.5s.03.02.04.03l.04.03s.02.02.03.03c.01.01.02.02.03.04h0s0,0,0,0c-.02,0-.04-.01-.07-.02s-.04-.02-.06-.03c-.04-.02-.08-.05-.1-.09.03.03.07.06.11.08.02.01.04.02.06.03.02,0,.04.02.06.02h0s-.02-.02-.03-.03-.02-.02-.03-.03l-.04-.03-.04-.03h0Z"/>
        <path class="cls-32" d="M13.88,6.47l.24.15s-.05-.1-.15-.15"/>
        <path class="cls-26" d="M13.88,6.47l.12.07.06.04.03.02.03.02h0s-.02-.03-.03-.04c-.01-.01-.02-.03-.03-.04-.01-.01-.02-.02-.04-.03-.01-.01-.03-.02-.04-.03.02,0,.03.01.05.02s.03.02.04.03c.01.01.02.03.03.04.01.01.02.03.03.05h0s0,0,0,0c-.02,0-.04-.02-.06-.03l-.06-.04-.12-.08h0Z"/>
        <path class="cls-32" d="M13.96,6.41s.11.05.13.13c0,0-.19-.08-.23-.13"/>
        <path class="cls-26" d="M13.96,6.41s.03.01.04.02c.01,0,.03.02.04.03.01.01.02.02.03.03,0,.01.02.03.02.04h0s0,0,0,0l-.06-.03-.06-.03-.06-.03-.03-.02s-.02-.01-.02-.02c0,0,.02.01.03.02l.03.02.06.03.12.06h0s-.01-.02-.02-.04c0-.01-.02-.02-.03-.03-.01-.01-.02-.02-.04-.03-.01,0-.03-.02-.04-.02h0Z"/>
        <path class="cls-32" d="M13.8,6.49s.19.14.25.14c0,0-.06-.1-.15-.14"/>
        <path class="cls-26" d="M13.8,6.49l.06.04.06.04.06.04h.03s.02.02.03.02h0s-.02-.02-.03-.04-.02-.03-.04-.04-.03-.02-.04-.03-.03-.02-.05-.03c.03.01.06.03.09.06.01.01.03.02.04.04.01.01.02.03.03.04h0s0,0,0,0c-.01,0-.02,0-.04,0-.01,0-.02,0-.03-.02l-.06-.04-.06-.04-.06-.04h0Z"/>
        <path class="cls-32" d="M13.8,6.53s.1.09.16.09c0,0-.06-.1-.15-.14"/>
        <path class="cls-26" d="M13.8,6.53l.04.03.04.02s.03.01.04.02c0,0,.01,0,.02,0,0,0,.01,0,.02,0h0s-.02-.02-.03-.04c-.01-.01-.02-.03-.04-.04s-.03-.02-.04-.03-.03-.02-.05-.03c.03.01.06.03.09.06.01.01.03.02.04.04.01.01.02.03.03.04h0s0,0,0,0c-.02,0-.03,0-.04-.01s-.03-.01-.04-.02l-.04-.03-.03-.03h0Z"/>
        <path class="cls-32" d="M13.75,6.34s.21.15.23.23c0,0-.19-.09-.22-.13"/>
        <path class="cls-26" d="M13.75,6.34l.07.05.06.05s.04.04.06.06c0,.01.02.02.03.03,0,.01.02.02.02.04h0s0,0,0,0l-.06-.03-.06-.03-.06-.03-.03-.02s-.02-.01-.02-.02c0,0,.02.01.02.02l.03.02.06.03.12.06h0s-.01-.02-.02-.03c0-.01-.02-.02-.03-.03-.02-.02-.04-.04-.06-.06l-.06-.05-.06-.05h0Z"/>
      </g>
      <g>
        <path class="cls-25" d="M12.6,10.56c-.14.11-.53.16-.59.14.29-.24.57-.25.59-.14h0ZM14.61,10.69c.15.14.61.24.67.22-.3-.32-.64-.35-.67-.22Z"/>
        <path class="cls-22" d="M12.6,10.56c-.02-.11-.3-.1-.59.14.3-.1.55-.16.59-.14ZM14.61,10.69c.04-.13.37-.1.67.22-.34-.15-.63-.24-.67-.22Z"/>
      </g>
    </g>
  </g>
</svg>