<?xml version="1.0" encoding="UTF-8"?>
<svg id="Layer_2" data-name="Layer 2" xmlns="http://www.w3.org/2000/svg" viewBox="0 0 34.02 17.01">
  <defs>
    <style>
      .cls-1 {
        fill: #07bce4;
      }

      .cls-2 {
        fill: #fff;
      }
    </style>
  </defs>
  <g id="Layer_1-2" data-name="Layer 1">
    <g>
      <path class="cls-2" d="M0,0h34.02v17.01H0V0Z"/>
      <path class="cls-1" d="M0,0h34.02v5.67H0V0ZM0,11.34h34.02v5.67H0v-5.67Z"/>
      <g id="g">
        <path id="s" class="cls-1" d="M12.28,6.14L12.49,6.79L13.19,6.79L12.63,7.2L12.84,7.85L12.29,7.45L11.74,7.85L11.95,7.2L11.39,6.79L12.07,6.79Z"/>
        <path id="s-2" data-name="s" class="cls-1" d="M12.28,8.98L12.49,9.63L13.19,9.63L12.63,10.04L12.84,10.69L12.29,10.29L11.74,10.69L11.95,10.04L11.39,9.63L12.07,9.63Z"/>
      </g>
      <path id="s-3" data-name="s" class="cls-1" d="M17.01,7.56L17.22,8.21L17.92,8.21L17.36,8.62L17.57,9.27L17.02,8.87L16.47,9.27L16.68,8.62L16.12,8.21L16.8,8.21Z"/>
      <g id="g-2" data-name="g">
        <path id="s-4" data-name="s" class="cls-1" d="M21.73,6.14L21.94,6.79L22.64,6.79L22.08,7.2L22.29,7.85L21.74,7.45L21.19,7.85L21.4,7.2L20.84,6.79L21.52,6.79Z"/>
        <path id="s-5" data-name="s" class="cls-1" d="M21.73,8.98L21.94,9.63L22.64,9.63L22.08,10.04L22.29,10.69L21.74,10.29L21.19,10.69L21.4,10.04L20.84,9.63L21.52,9.63Z"/>
      </g>
    </g>
  </g>
</svg>