<?xml version="1.0" encoding="UTF-8"?>
<svg id="Layer_2" data-name="Layer 2" xmlns="http://www.w3.org/2000/svg" xmlns:xlink="http://www.w3.org/1999/xlink" viewBox="0 0 28.35 17.01">
  <defs>
    <style>
      .cls-1 {
        stroke-miterlimit: 4;
      }

      .cls-1, .cls-2, .cls-3, .cls-4, .cls-5, .cls-6, .cls-7, .cls-8, .cls-9, .cls-10, .cls-11, .cls-12, .cls-13, .cls-14, .cls-15, .cls-16, .cls-17, .cls-18, .cls-19, .cls-20, .cls-21, .cls-22, .cls-23, .cls-24, .cls-25, .cls-26, .cls-27, .cls-28, .cls-29, .cls-30, .cls-31, .cls-32, .cls-33, .cls-34, .cls-35, .cls-36, .cls-37, .cls-38 {
        fill: #1dc0ea;
        isolation: isolate;
        opacity: .62;
        stroke: #1dc0ea;
      }

      .cls-39 {
        fill: #97c93d;
      }

      .cls-2 {
        stroke-miterlimit: 4;
      }

      .cls-40 {
        fill: url(#linear-gradient-15);
      }

      .cls-41 {
        fill: url(#linear-gradient-13);
      }

      .cls-3 {
        stroke-miterlimit: 4;
      }

      .cls-42 {
        fill: #93bd3e;
      }

      .cls-43 {
        fill: #9ecc3b;
      }

      .cls-4 {
        stroke-miterlimit: 4;
      }

      .cls-44 {
        fill: url(#linear-gradient-2);
      }

      .cls-5 {
        stroke-miterlimit: 4;
      }

      .cls-45 {
        fill: url(#linear-gradient-25);
      }

      .cls-46 {
        fill: url(#linear-gradient-10);
      }

      .cls-47 {
        fill: url(#linear-gradient-12);
      }

      .cls-48 {
        fill: url(#linear-gradient-27);
      }

      .cls-6 {
        stroke-miterlimit: 4;
      }

      .cls-49 {
        fill: #cbd12b;
      }

      .cls-7 {
        stroke-miterlimit: 4;
      }

      .cls-8 {
        stroke-miterlimit: 4;
      }

      .cls-50 {
        fill: #4c1211;
      }

      .cls-51 {
        fill: #ef4040;
      }

      .cls-52 {
        fill: #3a53a4;
      }

      .cls-53 {
        fill: #c8a62d;
      }

      .cls-54 {
        fill: #f6eb16;
      }

      .cls-55 {
        fill: #fff;
      }

      .cls-9 {
        stroke-miterlimit: 4;
      }

      .cls-56 {
        fill: #ece820;
      }

      .cls-10 {
        stroke-miterlimit: 4;
      }

      .cls-11 {
        stroke-miterlimit: 4;
      }

      .cls-57 {
        fill: #6abd45;
      }

      .cls-58 {
        fill: url(#linear-gradient-26);
      }

      .cls-12 {
        stroke-miterlimit: 4;
      }

      .cls-59 {
        fill: none;
      }

      .cls-60 {
        fill: url(#linear-gradient-4);
      }

      .cls-13 {
        stroke-miterlimit: 4;
      }

      .cls-14 {
        stroke-miterlimit: 4;
      }

      .cls-61 {
        fill: #ee3533;
      }

      .cls-62 {
        fill: url(#linear-gradient-3);
      }

      .cls-15 {
        stroke-miterlimit: 4;
      }

      .cls-63 {
        fill: url(#linear-gradient-5);
      }

      .cls-64 {
        fill: url(#linear-gradient-22);
      }

      .cls-65 {
        fill: url(#linear-gradient-24);
      }

      .cls-16 {
        stroke-miterlimit: 4;
      }

      .cls-17 {
        stroke-miterlimit: 4;
      }

      .cls-66 {
        fill: #f26722;
      }

      .cls-18 {
        stroke-miterlimit: 4;
      }

      .cls-67 {
        fill: url(#linear-gradient-8);
      }

      .cls-19 {
        stroke-miterlimit: 4;
      }

      .cls-68 {
        fill: #7d277d;
      }

      .cls-20 {
        stroke-miterlimit: 4;
      }

      .cls-21 {
        stroke-miterlimit: 4;
      }

      .cls-22 {
        stroke-miterlimit: 4;
      }

      .cls-69 {
        fill: url(#linear-gradient-14);
      }

      .cls-23 {
        stroke-miterlimit: 4;
      }

      .cls-24 {
        stroke-miterlimit: 4;
      }

      .cls-70 {
        fill: url(#linear-gradient-20);
      }

      .cls-71 {
        fill: url(#linear-gradient-17);
      }

      .cls-72 {
        fill: url(#linear-gradient-7);
      }

      .cls-25 {
        stroke-miterlimit: 4;
      }

      .cls-73 {
        fill: #90191c;
      }

      .cls-74 {
        fill: url(#linear-gradient-9);
      }

      .cls-26 {
        stroke-miterlimit: 4;
      }

      .cls-75 {
        fill: url(#linear-gradient-11);
      }

      .cls-27 {
        stroke-miterlimit: 4;
      }

      .cls-76 {
        fill: url(#linear-gradient-19);
      }

      .cls-77 {
        fill: url(#linear-gradient-6);
      }

      .cls-78 {
        fill: #ed2224;
      }

      .cls-28 {
        stroke-miterlimit: 4;
      }

      .cls-29 {
        stroke-miterlimit: 4;
      }

      .cls-30 {
        stroke-miterlimit: 4;
      }

      .cls-31 {
        stroke-miterlimit: 4;
      }

      .cls-32 {
        stroke-miterlimit: 4;
      }

      .cls-33 {
        stroke-miterlimit: 4;
      }

      .cls-79 {
        fill: url(#linear-gradient-21);
      }

      .cls-80 {
        fill: #c5ca2e;
      }

      .cls-81 {
        fill: #2968b2;
      }

      .cls-34 {
        stroke-miterlimit: 4;
      }

      .cls-82 {
        fill: url(#linear-gradient-16);
      }

      .cls-83 {
        fill: url(#linear-gradient);
      }

      .cls-84 {
        fill: #35c6f4;
      }

      .cls-85 {
        fill: url(#linear-gradient-23);
      }

      .cls-35 {
        stroke-miterlimit: 4;
      }

      .cls-36 {
        stroke-miterlimit: 4;
      }

      .cls-86 {
        clip-path: url(#clippath);
      }

      .cls-37 {
        stroke-miterlimit: 4;
      }

      .cls-87 {
        fill: url(#linear-gradient-18);
      }
    </style>
    <clipPath id="clippath">
      <polygon class="cls-59" points="14.17 6.42 12.37 9.54 15.98 9.54 14.17 6.42"/>
    </clipPath>
    <linearGradient id="linear-gradient" x1="14.16" y1="-558.28" x2="14.21" y2="-558.12" gradientTransform="translate(0 -550.08) scale(1 -1)" gradientUnits="userSpaceOnUse">
      <stop offset="0" stop-color="#4c1211"/>
      <stop offset=".3" stop-color="#89171a"/>
      <stop offset="1" stop-color="#a91e22"/>
    </linearGradient>
    <linearGradient id="linear-gradient-2" x1="14.16" y1="-558.32" x2="14.2" y2="-558.21" gradientTransform="translate(0 -550.08) scale(1 -1)" gradientUnits="userSpaceOnUse">
      <stop offset="0" stop-color="#ee3533"/>
      <stop offset="1" stop-color="#ed2224"/>
    </linearGradient>
    <linearGradient id="linear-gradient-3" x1="12.6" y1="-559.21" x2="17.98" y2="-559.21" gradientTransform="translate(0 -550.08) scale(1 -1)" gradientUnits="userSpaceOnUse">
      <stop offset="0" stop-color="#192753"/>
      <stop offset=".5" stop-color="#1a4ba0"/>
      <stop offset="1" stop-color="#192753"/>
    </linearGradient>
    <linearGradient id="linear-gradient-4" y1="-560.29" y2="-560.29" gradientTransform="translate(0 -551.2) scale(1 -1)" xlink:href="#linear-gradient-3"/>
    <linearGradient id="linear-gradient-5" y1="-561.38" y2="-561.38" gradientTransform="translate(0 -552.31) scale(1 -1)" xlink:href="#linear-gradient-3"/>
    <linearGradient id="linear-gradient-6" y1="-562.46" y2="-562.46" gradientTransform="translate(0 -553.43) scale(1 -1)" xlink:href="#linear-gradient-3"/>
    <linearGradient id="linear-gradient-7" y1="-563.54" y2="-563.54" gradientTransform="translate(0 -554.54) scale(1 -1)" xlink:href="#linear-gradient-3"/>
    <linearGradient id="linear-gradient-8" y1="-564.63" y2="-564.63" gradientTransform="translate(0 -555.66) scale(1 -1)" xlink:href="#linear-gradient-3"/>
    <linearGradient id="linear-gradient-9" y1="-565.71" y2="-565.71" gradientTransform="translate(0 -556.77) scale(1 -1)" xlink:href="#linear-gradient-3"/>
    <linearGradient id="linear-gradient-10" y1="-566.79" y2="-566.79" gradientTransform="translate(0 -557.89) scale(1 -1)" xlink:href="#linear-gradient-3"/>
    <linearGradient id="linear-gradient-11" y1="-567.88" y2="-567.88" gradientTransform="translate(0 -559) scale(1 -1)" xlink:href="#linear-gradient-3"/>
    <linearGradient id="linear-gradient-12" y1="-558.87" x2="17.98" y2="-558.87" xlink:href="#linear-gradient-3"/>
    <linearGradient id="linear-gradient-13" x1="14.98" y1="-558.92" x2="14.98" y2="-559.09" gradientTransform="translate(0 -550.08) scale(1 -1)" gradientUnits="userSpaceOnUse">
      <stop offset="0" stop-color="#f2eb56"/>
      <stop offset="1" stop-color="#97c93d"/>
    </linearGradient>
    <linearGradient id="linear-gradient-14" x1="29.89" x2="29.89" gradientTransform="translate(-15.34 -550.08) scale(1 -1)" xlink:href="#linear-gradient-13"/>
    <linearGradient id="linear-gradient-15" x1="14.17" y1="-558.92" x2="14.17" y2="-559.09" xlink:href="#linear-gradient-13"/>
    <linearGradient id="linear-gradient-16" x1="13.63" x2="13.63" xlink:href="#linear-gradient-13"/>
    <linearGradient id="linear-gradient-17" x1="28.62" x2="28.62" gradientTransform="translate(-15.43 -550.08) scale(1 -1)" xlink:href="#linear-gradient-13"/>
    <linearGradient id="linear-gradient-18" x1="0" y1="-559.32" x2="28.35" y2="-559.32" xlink:href="#linear-gradient-3"/>
    <linearGradient id="linear-gradient-19" x1="0" y1="-559.59" x2="28.35" y2="-559.59" xlink:href="#linear-gradient-3"/>
    <linearGradient id="linear-gradient-20" x1="0" y1="-560.84" x2="28.35" y2="-560.84" gradientTransform="translate(0 -551.37) scale(1 -1)" xlink:href="#linear-gradient-3"/>
    <linearGradient id="linear-gradient-21" x1="0" y1="-562.09" x2="28.35" y2="-562.09" gradientTransform="translate(0 -552.66) scale(1 -1)" xlink:href="#linear-gradient-3"/>
    <linearGradient id="linear-gradient-22" x1="0" y1="-563.35" x2="28.35" y2="-563.35" gradientTransform="translate(0 -553.95) scale(1 -1)" xlink:href="#linear-gradient-3"/>
    <linearGradient id="linear-gradient-23" x1="0" y1="-564.6" x2="28.35" y2="-564.6" gradientTransform="translate(0 -555.24) scale(1 -1)" xlink:href="#linear-gradient-3"/>
    <linearGradient id="linear-gradient-24" x1="0" y1="-565.85" x2="28.35" y2="-565.85" gradientTransform="translate(0 -556.52) scale(1 -1)" xlink:href="#linear-gradient-3"/>
    <linearGradient id="linear-gradient-25" x1="0" y1="-567.1" x2="28.35" y2="-567.1" gradientTransform="translate(0 -557.81) scale(1 -1)" xlink:href="#linear-gradient-3"/>
    <linearGradient id="linear-gradient-26" x1="0" y1="-568.35" x2="28.35" y2="-568.35" gradientTransform="translate(0 -559.1) scale(1 -1)" xlink:href="#linear-gradient-3"/>
    <linearGradient id="linear-gradient-27" x1="0" y1="-569.6" x2="28.35" y2="-569.6" gradientTransform="translate(0 -560.39) scale(1 -1)" xlink:href="#linear-gradient-3"/>
  </defs>
  <g id="Layer_1-2" data-name="Layer 1">
    <path class="cls-81" d="M0,0h28.35v17.01H0V0Z"/>
    <path class="cls-55" d="M0,5.67h28.35v5.67H0v-5.67Z"/>
    <path class="cls-53" d="M11.62,8.48l.28.02v-.04s-.11,0-.11,0v-.14s.13-.09.13-.09v-.05s-.12.09-.12.09c0-.03-.02-.06-.05-.07-.03,0-.06-.01-.08,0-.03.02-.03.06-.04.09v.19s-.01,0-.01,0ZM11.67,8.45v-.14s.02-.05.04-.06c.02-.01.04,0,.05.02.01.04,0,.07,0,.11v.08s-.1,0-.1,0h0ZM11.66,8.05l.28.06.06-.27h-.04s-.05.22-.05.22l-.08-.02.05-.21h-.04s-.05.2-.05.2l-.07-.02.05-.22h-.04s-.06.25-.06.25h0ZM11.76,7.68l.27.09v-.04s-.09-.04-.09-.04l.04-.12s.02-.07,0-.1c-.02-.02-.04-.04-.07-.04-.03,0-.06.02-.07.05-.02.04-.03.08-.05.12l-.03.07h0ZM11.81,7.65l.04-.12s.02-.05.05-.05c.02,0,.04.01.04.03,0,.04-.01.07-.02.11l-.02.06-.09-.03ZM11.91,7.34l.15.09s.06.02.09,0c.04-.02.07-.06.09-.11.02-.03.03-.08,0-.11-.02-.04-.06-.05-.09-.07l-.1-.06-.02.04.14.08s.04.04.04.07c0,.03-.02.06-.04.09-.02.02-.04.04-.07.03-.03,0-.05-.02-.08-.04l-.1-.06-.02.04h0ZM12.11,7l.23.17.1-.14s.04-.07.03-.1c-.01-.03-.04-.05-.07-.05-.01,0-.03,0-.04.01,0-.03-.02-.06-.04-.07-.03-.01-.07,0-.09.03-.03.03-.05.06-.07.09l-.04.05h0ZM12.17,6.99l.08-.1s.03-.03.05-.02c.02,0,.02.03.01.05-.01.03-.04.05-.06.08l-.03.04-.06-.05h0ZM12.26,7.07l.08-.1s.03-.03.06-.03c.02,0,.03.03.03.05-.01.04-.04.07-.06.1l-.04.05-.07-.05h0ZM12.37,6.7l.19.21.17-.16-.03-.03-.13.13h0s0,0,0,0l-.16-.17-.03.03ZM12.62,6.48l.17.22.03-.03-.17-.22-.03.03ZM12.87,6.31s-.05.04-.07.06-.03.05-.03.07,0,.05.02.08c.01.02.03.04.06.05.02.01.05.02.08.01s.06-.02.09-.04c.03-.02.06-.04.07-.07.01-.03.02-.06.01-.08l-.04.02c.01.06-.03.08-.07.11-.06.04-.13.04-.16-.02-.04-.07,0-.12.06-.16.04-.02.08-.04.11-.02l.03-.03s-.05-.02-.07-.02c-.03,0-.06.01-.09.03h0ZM13.2,6.14l-.03.32.04-.02v-.1s0,0,0,0l.14-.06.07.06.04-.02-.24-.21-.04.02h0ZM13.24,6.18l.09.08-.11.04v-.12s.01,0,.01,0ZM13.83,5.97l.02.28h.15s.08-.03.11-.06c.04-.04.04-.1.02-.15-.01-.04-.05-.08-.1-.08-.04,0-.09,0-.13,0h-.08s0,0,0,0ZM13.87,6.01h.12s.05,0,.06.01c.03.02.05.05.04.09,0,.04-.03.08-.07.09-.02,0-.04,0-.07,0h-.08s-.01-.2-.01-.2h0ZM14.22,5.95l-.02.28.28.02v-.04s-.23-.01-.23-.01v-.09s.22.01.22.01v-.04s-.21-.01-.21-.01v-.08s.23.01.23.01v-.04s-.26-.02-.26-.02h0ZM14.96,6.07l-.1.26h.04s.08-.2.08-.2h0s0,0,0,0l.1.28.05.02.1-.26h-.04s-.08.2-.08.2h0s0,0,0,0l-.1-.28-.05-.02ZM15.34,6.23l-.13.25-.04-.02.13-.25.04.02ZM15.56,6.36s-.06-.03-.08-.04-.06,0-.08,0-.04.03-.06.05c-.01.02-.02.05-.02.07,0,.03,0,.05.02.07s.04.05.07.07c.03.02.06.03.09.03.03,0,.06,0,.08-.02l-.03-.03s-.09.01-.13-.02c-.06-.04-.09-.1-.05-.16.04-.06.11-.05.17-.01.04.03.07.05.06.1l.04.02s0-.05-.01-.07c-.01-.03-.04-.05-.07-.07h0ZM15.83,6.56l-.3.12.04.03.09-.04h0s.12.1.12.1l-.02.1.04.03.08-.31-.04-.03h0ZM15.81,6.61l-.03.12-.09-.07.12-.05h0ZM16.04,6.76l-.22.18.03.03.09-.07.09.11-.03.14.03.04.03-.15s.06.03.09.01c.03-.01.05-.03.05-.06,0-.04-.02-.07-.05-.1l-.11-.13ZM16.03,6.82l.09.11s.03.05.01.07c-.01.02-.04.02-.06,0-.03-.02-.06-.06-.08-.09l-.03-.04.07-.06h0ZM16.37,7.21h-.32s.02.06.02.06h.1s0,0,0,0l.08.13-.05.08.02.04.17-.27-.02-.04h0ZM16.34,7.25l-.07.1-.06-.1h.12ZM16.55,7.59s-.05-.1-.09-.12c-.05-.03-.12-.01-.16.03-.03.04-.03.09-.03.14.01.05.04.11.07.15h-.02s.01.05.01.05l.13-.05-.05-.14h-.03s.04.12.04.12l-.04.02s-.06-.08-.07-.13c0-.04,0-.08.02-.11.03-.03.09-.04.13-.02.04.03.06.07.07.12,0,.03,0,.07-.02.09,0,0,0,.01,0,.02v.02s.05-.05.05-.08c0-.03,0-.06-.02-.09h0ZM16.63,7.81l-.16.03s-.05.02-.07.03-.02.03-.03.05c0,.02,0,.05,0,.09,0,0,0,0,0,0,0,.03.02.06.03.08.01.02.03.03.05.04s.04,0,.07,0l.16-.03v-.04s-.16.03-.16.03c-.07.01-.09-.02-.1-.09h0c-.01-.06,0-.11.07-.12l.15-.03v-.04s0,0,0,0ZM16.72,8.29l-.29-.13v.05s.09.04.09.04h0s.01.15.01.15l-.08.05v.05s.28-.17.28-.17v-.05s0,0,0,0ZM16.68,8.32l-.11.06v-.11s.11.05.11.05h0ZM11.84,9.02h-.04s.05.18.05.18h.04s-.05-.18-.05-.18ZM16.51,9.02h.04s-.05.18-.05.18h-.04s.05-.18.05-.18ZM12.28,9.75l-.32.04.03.04h.1s0-.01,0-.01l.09.13-.05.09.03.04.15-.28-.03-.04ZM12.26,9.8l-.06.11-.06-.09h.12ZM12.4,9.92l-.2.19.03.03.17-.16-.09.25.03.03.24-.07-.17.16.03.03.2-.19-.04-.04-.25.07.09-.24-.05-.05ZM12.7,10.22l-.17.23.22.17.02-.03-.19-.14.05-.07.17.13.02-.03-.17-.13.05-.06.18.14.02-.03-.21-.16h0ZM12.97,10.43l-.13.25.04.02.05-.1.12.06.03.14.05.02-.03-.15s.07,0,.09-.02c.02-.02.03-.05.02-.07,0-.04-.05-.06-.08-.07l-.15-.08h0ZM12.99,10.48l.13.07s.04.03.04.06c0,.02-.03.04-.05.03-.04,0-.08-.03-.11-.05l-.05-.03.04-.08h0ZM13.29,10.59l-.11.26.04.02.11-.26-.04-.02ZM13.55,10.68s-.06-.01-.09-.01c-.03,0-.05.01-.08.03s-.04.04-.04.06c0,.02,0,.05,0,.08,0,.03.02.05.04.07s.05.04.09.05c.04.01.07.02.1,0,.03,0,.05-.02.07-.04l-.04-.02s-.08.03-.13.02c-.07-.02-.11-.07-.09-.14.03-.07.1-.07.16-.05.04.01.08.03.09.08h.04s-.01-.04-.03-.06c-.02-.02-.05-.04-.08-.05h0ZM13.83,10.75l-.19.26h.05s.06-.07.06-.07h0l.15.02.03.09h.05s-.1-.29-.1-.29h-.05ZM13.85,10.79l.04.12-.11-.02.07-.1h0ZM14.5,10.75s-.06.02-.09.03-.04.04-.05.06-.01.05,0,.08c0,.03.02.05.03.07.02.02.04.03.07.04.03,0,.06,0,.1,0,.04,0,.07-.02.09-.04.02-.02.04-.04.04-.07h-.04c-.01.06-.05.07-.1.08-.07.01-.13-.01-.15-.08-.01-.08.05-.11.11-.12.04,0,.09-.01.11.02h.04s-.04-.05-.06-.06c-.03,0-.06,0-.1,0h0ZM14.69,10.72l.08.27.26-.08v-.04s-.24.07-.24.07l-.02-.08.2-.06v-.04s-.21.06-.21.06l-.02-.07.22-.06v-.04s-.27.08-.27.08ZM14.99,10.62l.12.26.04-.02-.1-.21.27.13s.01,0,.02,0l.04-.02-.12-.26-.04.02.1.21-.28-.13-.05.02h0ZM15.31,10.47l.02.03.1-.07h0s0,0,0,0l.13.2.03-.02-.13-.2h0s0,0,0,0l.1-.07-.02-.03-.25.16ZM15.59,10.28l.19.21.03-.03-.08-.08.1-.09.14.02.04-.04-.15-.02s.03-.06,0-.09c-.01-.02-.04-.05-.07-.05-.04,0-.07.03-.1.05l-.12.11h0ZM15.65,10.28l.11-.1s.05-.03.07-.02c.02.01.02.04,0,.06-.02.04-.06.06-.09.09l-.04.04-.06-.07ZM15.92,9.95l.13.29.03-.04-.04-.09h0s.1-.12.1-.12l.1.02.03-.04-.31-.07-.03.04h0ZM15.97,9.96l.12.03-.07.09-.05-.11h0ZM16.04,9.79l.24.15.12-.19-.03-.02-.1.15h0s0,0,0,0l-.2-.13-.02.03Z"/>
    <g class="cls-86">
      <g>
        <path class="cls-55" d="M14.17,6.42l-.89,1.55-.44.76h2.66l-.42-.72-.91-1.58h0Z"/>
        <g id="G">
          <g id="H">
            <path class="cls-38" d="M14.17,6.42l-.07.12.07,1.56.07-1.56-.07-.12Z"/>
            <path class="cls-55" d="M14.17,7.87h0s0,.09,0,.09v-.09s0,0,0,0Z"/>
          </g>
          <g id="H-2" data-name="H">
            <path class="cls-14" d="M15.77,7.57l-.13-.03-1.46.55,1.5-.42.09-.1Z"/>
            <path class="cls-55" d="M14.39,8.02h0s-.08.03-.08.03l.09-.02h0Z"/>
          </g>
          <g id="H-3" data-name="H">
            <path class="cls-28" d="M15.16,9.45v-.13s-.98-1.22-.98-1.22l.86,1.3.12.05Z"/>
            <path class="cls-55" d="M14.31,8.28h0s-.05-.07-.05-.07l.05.07h0Z"/>
          </g>
          <g id="H-4" data-name="H">
            <path class="cls-28" d="M13.19,9.45l.12-.05.86-1.3-.97,1.22v.13Z"/>
            <path class="cls-55" d="M14.04,8.28h0s.05-.07.05-.07l-.05.07h0Z"/>
          </g>
          <g id="H-5" data-name="H">
            <path class="cls-14" d="M12.58,7.57l.09.1,1.5.42-1.46-.55-.13.03Z"/>
            <path class="cls-55" d="M13.96,8.02h0s.09.03.09.03l-.08-.03h0Z"/>
          </g>
        </g>
        <g id="G-2" data-name="G">
          <g id="H-6" data-name="H">
            <path class="cls-32" d="M14.41,6.43l-.08.11-.15,1.55.28-1.53-.05-.12Z"/>
            <path class="cls-55" d="M14.2,7.87h0s0,.09,0,.09l.02-.09h0Z"/>
          </g>
          <g id="H-7" data-name="H">
            <path class="cls-2" d="M15.82,7.8l-.13-.05-1.52.34,1.55-.2.1-.09Z"/>
            <path class="cls-55" d="M14.4,8.05h0s-.09.02-.09.02h.09s0-.02,0-.02Z"/>
          </g>
          <g id="H-8" data-name="H">
            <path class="cls-23" d="M14.96,9.57v-.13s-.79-1.34-.79-1.34l.67,1.41.11.07Z"/>
            <path class="cls-55" d="M14.28,8.29h0s-.04-.08-.04-.08l.04.08h0Z"/>
          </g>
          <g id="H-9" data-name="H">
            <path class="cls-30" d="M13.01,9.3l.13-.04,1.03-1.17-1.13,1.07-.03.13Z"/>
            <path class="cls-55" d="M14.02,8.25h0s.06-.06.06-.06l-.06.06h0Z"/>
          </g>
          <g id="H-10" data-name="H">
            <path class="cls-13" d="M12.67,7.36l.07.11,1.43.62-1.37-.74h-.13Z"/>
            <path class="cls-55" d="M13.97,7.99h0s.08.04.08.04l-.08-.04h0Z"/>
          </g>
        </g>
        <g id="G-3" data-name="G">
          <g id="H-11" data-name="H">
            <path class="cls-7" d="M14.63,6.48l-.1.09-.37,1.52.49-1.48-.03-.13Z"/>
            <path class="cls-55" d="M14.24,7.87h0s-.02.08-.02.08l.03-.08h0Z"/>
          </g>
          <g id="H-12" data-name="H">
            <path class="cls-20" d="M15.85,8.03l-.12-.06-1.56.12h1.56s.11-.06.11-.06Z"/>
            <path class="cls-55" d="M14.4,8.08h0s-.09,0-.09,0h.09s0,0,0,0Z"/>
          </g>
          <g id="H-13" data-name="H">
            <path class="cls-24" d="M14.75,9.67l.02-.13-.6-1.44.47,1.49.1.09Z"/>
            <path class="cls-55" d="M14.25,8.3h0s-.03-.08-.03-.08l.03.08h0Z"/>
          </g>
          <g id="H-14" data-name="H">
            <path class="cls-33" d="M12.85,9.12l.13-.02,1.19-1.01-1.27.91-.05.12Z"/>
            <path class="cls-55" d="M13.99,8.23h0s.07-.05.07-.05l-.07.05h0Z"/>
          </g>
          <g id="H-15" data-name="H">
            <path class="cls-17" d="M12.79,7.16l.06.12,1.33.82-1.25-.93h-.13Z"/>
            <path class="cls-55" d="M13.99,7.97h0s.08.05.08.05l-.07-.05h0Z"/>
          </g>
        </g>
        <g id="G-4" data-name="G">
          <g id="H-16" data-name="H">
            <path class="cls-27" d="M14.85,6.56l-.11.08-.57,1.45.69-1.4v-.13Z"/>
            <path class="cls-55" d="M14.27,7.89h0s-.03.08-.03.08l.04-.08h0Z"/>
          </g>
          <g id="H-17" data-name="H">
            <path class="cls-11" d="M15.84,8.27l-.11-.08-1.56-.1,1.54.23.12-.05Z"/>
            <path class="cls-55" d="M14.4,8.12h0s-.09,0-.09,0h.09s0,0,0,0Z"/>
          </g>
          <g id="H-18" data-name="H">
            <path class="cls-3" d="M14.52,9.73l.04-.13-.39-1.51.26,1.54.09.1Z"/>
            <path class="cls-55" d="M14.22,8.31h0s-.02-.09-.02-.09v.09s.02,0,.02,0Z"/>
          </g>
          <g id="H-19" data-name="H">
            <path class="cls-21" d="M12.72,8.93h.13s1.32-.84,1.32-.84l-1.38.72-.07.12Z"/>
            <path class="cls-55" d="M13.98,8.21h0s.07-.04.07-.04l-.08.04h0Z"/>
          </g>
          <g id="H-20" data-name="H">
            <path class="cls-29" d="M12.93,6.97l.04.13,1.2.99-1.11-1.09-.13-.03Z"/>
            <path class="cls-55" d="M14,7.94h0s.07.06.07.06l-.06-.06h0Z"/>
          </g>
        </g>
        <g id="G-5" data-name="G">
          <g id="H-21" data-name="H">
            <path class="cls-31" d="M15.06,6.67l-.12.06-.77,1.36.88-1.29v-.13Z"/>
            <path class="cls-55" d="M14.29,7.9h0s-.04.07-.04.07l.05-.07h0Z"/>
          </g>
          <g id="H-22" data-name="H">
            <path class="cls-35" d="M15.8,8.5l-.1-.09-1.53-.31,1.5.44.13-.04Z"/>
            <path class="cls-55" d="M14.39,8.15h0s-.09-.02-.09-.02l.08.03h0Z"/>
          </g>
          <g id="H-23" data-name="H">
            <path class="cls-8" d="M14.29,9.76l.06-.12-.18-1.55.04,1.56.07.11Z"/>
            <path class="cls-55" d="M14.19,8.32h0s0-.09,0-.09v.09s0,0,0,0Z"/>
          </g>
          <g id="H-24" data-name="H">
            <path class="cls-1" d="M12.62,8.72l.13.02,1.42-.65-1.47.52-.08.11Z"/>
            <path class="cls-55" d="M13.96,8.18h0s.08-.03.08-.03l-.08.03h0Z"/>
          </g>
          <g id="H-25" data-name="H">
            <path class="cls-19" d="M13.1,6.81l.02.13,1.05,1.15-.95-1.24-.13-.05Z"/>
            <path class="cls-55" d="M14.03,7.92h0s.06.07.06.07l-.05-.07h0Z"/>
          </g>
        </g>
        <g id="G-6" data-name="G">
          <g id="H-26" data-name="H">
            <path class="cls-19" d="M15.25,6.81l-.13.05-.95,1.24,1.05-1.15.02-.13Z"/>
            <path class="cls-55" d="M14.32,7.92h0s-.05.07-.05.07l.06-.07h0Z"/>
          </g>
          <g id="H-27" data-name="H">
            <path class="cls-34" d="M15.73,8.72l-.08-.11-1.47-.52,1.42.65.13-.02Z"/>
            <path class="cls-55" d="M14.38,8.18h0s-.08-.03-.08-.03l.08.04h0Z"/>
          </g>
          <g id="H-28" data-name="H">
            <path class="cls-6" d="M14.06,9.76l.07-.11.04-1.56-.18,1.55.06.12Z"/>
            <path class="cls-55" d="M14.16,8.32h0s0-.09,0-.09v.09s0,0,0,0Z"/>
          </g>
          <g id="H-29" data-name="H">
            <path class="cls-4" d="M12.55,8.5l.13.04,1.5-.44-1.53.31-.1.09Z"/>
            <path class="cls-55" d="M13.95,8.15h0s.08-.02.08-.02l-.09.02h0Z"/>
          </g>
          <g id="H-30" data-name="H">
            <path class="cls-9" d="M13.29,6.67v.13s.89,1.29.89,1.29l-.77-1.36-.12-.06Z"/>
            <path class="cls-55" d="M14.05,7.9h0s.05.07.05.07l-.04-.08h0Z"/>
          </g>
        </g>
        <g id="G-7" data-name="G">
          <g id="H-31" data-name="H">
            <path class="cls-29" d="M15.42,6.97l-.13.03-1.11,1.09,1.2-.99.04-.13Z"/>
            <path class="cls-55" d="M14.34,7.94h0s-.06.06-.06.06l.07-.06h0Z"/>
          </g>
          <g id="H-32" data-name="H">
            <path class="cls-16" d="M15.62,8.93l-.07-.12-1.38-.72,1.32.84h.13Z"/>
            <path class="cls-55" d="M14.37,8.21h0s-.08-.04-.08-.04l.07.05h0Z"/>
          </g>
          <g id="H-33" data-name="H">
            <path class="cls-26" d="M13.83,9.73l.09-.1.26-1.54-.39,1.51.04.13Z"/>
            <path class="cls-55" d="M14.13,8.31h0s.01-.09.01-.09l-.02.09h0Z"/>
          </g>
          <g id="H-34" data-name="H">
            <path class="cls-12" d="M12.51,8.27l.12.05,1.54-.23-1.56.1-.11.08Z"/>
            <path class="cls-55" d="M13.95,8.12h0s.09,0,.09,0h-.09s0,0,0,0Z"/>
          </g>
          <g id="H-35" data-name="H">
            <path class="cls-22" d="M13.49,6.56v.13s.68,1.4.68,1.4l-.57-1.45-.11-.08Z"/>
            <path class="cls-55" d="M14.08,7.89h0s.04.08.04.08l-.03-.08h0Z"/>
          </g>
        </g>
        <g id="G-8" data-name="G">
          <g id="H-36" data-name="H">
            <path class="cls-5" d="M15.56,7.16h-.13s-1.25.94-1.25.94l1.33-.82.06-.12Z"/>
            <path class="cls-55" d="M14.36,7.97h0s-.07.05-.07.05l.08-.05h0Z"/>
          </g>
          <g id="H-37" data-name="H">
            <path class="cls-18" d="M15.49,9.12l-.05-.12-1.27-.91,1.19,1.01.13.02Z"/>
            <path class="cls-55" d="M14.35,8.23h0s-.07-.05-.07-.05l.07.06h0Z"/>
          </g>
          <g id="H-38" data-name="H">
            <path class="cls-24" d="M13.6,9.67l.1-.09.47-1.49-.6,1.44.02.13Z"/>
            <path class="cls-55" d="M14.1,8.3h0s.03-.08.03-.08l-.03.08h0Z"/>
          </g>
          <g id="H-39" data-name="H">
            <path class="cls-15" d="M12.5,8.03l.11.07h1.56s-1.56-.13-1.56-.13l-.12.06Z"/>
            <path class="cls-55" d="M13.95,8.08h0s.09,0,.09,0h-.09s0,0,0,0Z"/>
          </g>
          <g id="H-40" data-name="H">
            <path class="cls-7" d="M13.71,6.48l-.03.13.49,1.48-.37-1.52-.1-.09Z"/>
            <path class="cls-55" d="M14.11,7.87h0s.03.08.03.08l-.02-.09h0Z"/>
          </g>
        </g>
        <g id="G-9" data-name="G">
          <g id="H-41" data-name="H">
            <path class="cls-13" d="M15.68,7.36h-.13s-1.37.73-1.37.73l1.43-.62.07-.11Z"/>
            <path class="cls-55" d="M14.38,7.99h0s-.08.04-.08.04l.08-.04h0Z"/>
          </g>
          <g id="H-42" data-name="H">
            <path class="cls-37" d="M15.34,9.3l-.03-.13-1.13-1.07,1.03,1.17.13.04Z"/>
            <path class="cls-55" d="M14.33,8.25h0s-.06-.06-.06-.06l.06.07h0Z"/>
          </g>
          <g id="H-43" data-name="H">
            <path class="cls-25" d="M13.39,9.57l.11-.07.67-1.41-.79,1.34v.13Z"/>
            <path class="cls-55" d="M14.07,8.29h0s.04-.08.04-.08l-.04.08h0Z"/>
          </g>
          <g id="H-44" data-name="H">
            <path class="cls-36" d="M12.52,7.8l.1.09,1.55.2-1.52-.34-.13.05Z"/>
            <path class="cls-55" d="M13.95,8.05h0s.09.02.09.02l-.09-.02h0Z"/>
          </g>
          <g id="H-45" data-name="H">
            <path class="cls-10" d="M13.94,6.43l-.05.12.28,1.53-.15-1.55-.08-.11Z"/>
            <path class="cls-55" d="M14.14,7.87h0s.02.09.02.09v-.09s-.01,0-.01,0Z"/>
          </g>
        </g>
        <path class="cls-78" d="M14.17,7.54c-.3,0-.59.11-.82.3l-.42.72c-.01.08-.02.16-.02.23h.14c0-.62.5-1.12,1.12-1.12s1.12.5,1.12,1.12h.14c0-.08,0-.16-.02-.23l-.42-.72c-.23-.2-.52-.31-.82-.3Z"/>
        <path class="cls-66" d="M14.17,7.56c-.33,0-.64.13-.86.35l-.34.59c-.02.1-.04.2-.04.3h.12c0-.62.5-1.12,1.12-1.12s1.12.5,1.12,1.12h.12c0-.1-.01-.2-.04-.3l-.34-.59c-.22-.21-.52-.35-.86-.35h0Z"/>
        <path class="cls-54" d="M14.17,7.58c-.36,0-.68.16-.91.41l-.25.43c-.04.12-.06.25-.06.38h.1c0-.62.5-1.12,1.12-1.12s1.12.5,1.12,1.12h.1c0-.13-.02-.26-.06-.38l-.25-.43c-.22-.25-.55-.41-.91-.41h0Z"/>
        <path class="cls-57" d="M14.17,7.6c-.41,0-.78.21-.99.53l-.08.14c-.08.16-.12.34-.12.52h.08c0-.62.5-1.12,1.12-1.12s1.12.5,1.12,1.12h.08c0-.18-.04-.36-.12-.52l-.08-.14c-.21-.32-.58-.53-.99-.53h0Z"/>
        <path class="cls-84" d="M14.17,7.63c-.64,0-1.17.52-1.17,1.17h.05c0-.62.5-1.12,1.12-1.12s1.12.5,1.12,1.12h.05c0-.64-.52-1.17-1.17-1.17Z"/>
        <path class="cls-52" d="M14.17,7.65c-.63,0-1.14.51-1.14,1.15h.04c0-.61.5-1.11,1.11-1.11s1.11.5,1.11,1.11h.04c0-.63-.51-1.15-1.15-1.15Z"/>
        <path class="cls-68" d="M14.17,7.67c-.62,0-1.12.5-1.12,1.12v.02h.02s0-.01,0-.02c0-.61.49-1.1,1.1-1.1s1.1.49,1.1,1.1v.02s.02,0,.02,0v-.02c0-.62-.5-1.12-1.12-1.12Z"/>
        <path class="cls-50" d="M14.18,8.17s-.03-.01-.05-.02c-.02.02-.02.04-.02.06,0,0,0,.01.02.02s.01.02.01.06c0,.01,0,.04.02.05.02,0,.03,0,.03-.03,0-.02.01-.03.02-.05,0-.05,0-.07-.03-.09h0Z"/>
        <path class="cls-78" d="M14.09,8.04s-.04.03-.06.01c0,0,0-.03,0-.04.02-.03.03-.05.06-.07.07-.04.11-.03.14.03.03.05.06.11.06.15,0,.01,0,.04,0,.05-.04.04-.13-.04-.18-.03-.02,0-.04.02-.06,0-.01,0,0-.03,0-.04.02-.01.04-.07.04-.09,0-.01,0,0-.01,0h0Z"/>
        <path class="cls-83" d="M14.09,8.01s-.03.03-.04.05c0,0,.02,0,.04,0,0,0,.02,0,.02-.01,0,0-.01.02-.02.02-.01,0-.03.03-.04.05s-.01.05-.01.05.01.02.04.03c.06.02.07.07.13.07.05,0,.04-.03.08-.02.03,0,.05-.02.02-.03-.04-.01-.12,0-.15,0-.01-.12,0-.08,0-.12s-.02-.05,0-.09c-.02.02-.04.02-.06.02h0Z"/>
        <path class="cls-61" d="M14.2,7.93s0,.01,0,.02v.03s.01.02.01.03c0,.01.01.01.02.02.01,0,0,.03,0,.03,0,0,.01-.03.01-.04,0,0,0-.01,0-.02,0,0,0-.02-.01-.02,0,0,0,0,0,0,0,0-.01-.02-.02-.02h0s0,0,0,0h0s0,0,0,0Z"/>
        <path class="cls-44" d="M14.21,8.15s-.04-.02-.06-.02c-.03-.01-.07-.03-.1-.02,0,0,0,.01-.01.03,0,.02-.02.04,0,.03.02-.01.07.02.09.03,0,0,.03.01.03.03s0,.05,0,.07c0,.02,0,.05.02.06.02,0,.03,0,.04-.03,0-.02.01-.04.02-.05s.02-.02.04-.02.04.01.04,0c0-.01-.01-.02,0-.04,0-.01-.01-.01-.02-.02-.03,0-.06-.01-.08-.02h0Z"/>
        <path class="cls-73" d="M14.13,8.19s-.07-.04-.09-.03c0,0,0,0,0,0s0-.02,0-.02,0-.02.01-.03c.02-.02.06.02.09.03v.07s-.01,0-.01,0Z"/>
        <path class="cls-51" d="M14.22,8.26s.04-.04.07-.04c.01,0,.01,0,.01-.02,0,.02-.05,0-.07,0-.04.02-.04.11-.06.12.02.02.03-.05.04-.06h0Z"/>
        <g>
          <path class="cls-55" d="M12.84,8.72l-.28.49h3.22l-.28-.49h-2.66Z"/>
          <g id="I">
            <path id="J" class="cls-62" d="M12.75,9.11s-.09,0-.13.01v.02s.19-.02.19-.02c.09,0,.18.02.28.02h.13c.1,0,.18-.02.28-.02.09,0,.18.02.28.02h.13c.1,0,.18-.02.28-.02.09,0,.18.02.28.02h.13c.1,0,.18-.02.28-.02.09,0,.18.02.28.02h.13c.1,0,.18-.02.28-.02.07,0,.14.01.21.02v-.03s-.14,0-.14,0c-.04,0-.09,0-.13,0-.1,0-.18.02-.28.02-.09,0-.18-.02-.28-.02-.04,0-.09,0-.13,0-.1,0-.18.02-.28.02-.09,0-.18-.02-.28-.02-.04,0-.09,0-.13,0-.1,0-.18.02-.28.02-.09,0-.18-.02-.28-.02-.04,0-.09,0-.13,0-.1,0-.18.02-.28.02-.09,0-.18-.02-.28-.02-.04,0-.09,0-.13,0h0Z"/>
            <path id="J-2" data-name="J" class="cls-60" d="M12.75,9.08s-.09,0-.13.01v.02s.19-.02.19-.02c.09,0,.18.02.28.02h.13c.1,0,.18-.02.28-.02.09,0,.18.02.28.02h.13c.1,0,.18-.02.28-.02.09,0,.18.02.28.02h.13c.1,0,.18-.02.28-.02.09,0,.18.02.28.02h.13c.1,0,.18-.02.28-.02.07,0,.14.01.21.02v-.03s-.14,0-.14,0c-.04,0-.09,0-.13,0-.1,0-.18.02-.28.02-.09,0-.18-.02-.28-.02-.04,0-.09,0-.13,0-.1,0-.18.02-.28.02-.09,0-.18-.02-.28-.02-.04,0-.09,0-.13,0-.1,0-.18.02-.28.02-.09,0-.18-.02-.28-.02-.04,0-.09,0-.13,0-.1,0-.18.02-.28.02-.09,0-.18-.02-.28-.02-.04,0-.09,0-.13,0h0Z"/>
            <path id="J-3" data-name="J" class="cls-63" d="M12.75,9.05s-.09,0-.13.01v.02s.19-.02.19-.02c.09,0,.18.02.28.02h.13c.1,0,.18-.02.28-.02.09,0,.18.02.28.02h.13c.1,0,.18-.02.28-.02.09,0,.18.02.28.02h.13c.1,0,.18-.02.28-.02.09,0,.18.02.28.02h.13c.1,0,.18-.02.28-.02.07,0,.14.01.21.02v-.03s-.14,0-.14,0c-.04,0-.09,0-.13,0-.1,0-.18.02-.28.02-.09,0-.18-.02-.28-.02-.04,0-.09,0-.13,0-.1,0-.18.02-.28.02-.09,0-.18-.02-.28-.02-.04,0-.09,0-.13,0-.1,0-.18.02-.28.02-.09,0-.18-.02-.28-.02-.04,0-.09,0-.13,0-.1,0-.18.02-.28.02-.09,0-.18-.02-.28-.02-.04,0-.09,0-.13,0h0Z"/>
          </g>
          <g id="I-2" data-name="I">
            <path id="J-4" data-name="J" class="cls-77" d="M12.75,9.01s-.09,0-.13.01v.02s.19-.02.19-.02c.09,0,.18.02.28.02h.13c.1,0,.18-.02.28-.02.09,0,.18.02.28.02h.13c.1,0,.18-.02.28-.02.09,0,.18.02.28.02h.13c.1,0,.18-.02.28-.02.09,0,.18.02.28.02h.13c.1,0,.18-.02.28-.02.07,0,.14.01.21.02v-.03s-.14,0-.14,0c-.04,0-.09,0-.13,0-.1,0-.18.02-.28.02-.09,0-.18-.02-.28-.02-.04,0-.09,0-.13,0-.1,0-.18.02-.28.02-.09,0-.18-.02-.28-.02-.04,0-.09,0-.13,0-.1,0-.18.02-.28.02-.09,0-.18-.02-.28-.02-.04,0-.09,0-.13,0-.1,0-.18.02-.28.02-.09,0-.18-.02-.28-.02-.04,0-.09,0-.13,0h0Z"/>
            <path id="J-5" data-name="J" class="cls-72" d="M12.75,8.98s-.09,0-.13.01v.02s.19-.02.19-.02c.09,0,.18.02.28.02h.13c.1,0,.18-.02.28-.02.09,0,.18.02.28.02h.13c.1,0,.18-.02.28-.02.09,0,.18.02.28.02h.13c.1,0,.18-.02.28-.02.09,0,.18.02.28.02h.13c.1,0,.18-.02.28-.02.07,0,.14.01.21.02v-.03s-.14,0-.14,0c-.04,0-.09,0-.13,0-.1,0-.18.02-.28.02-.09,0-.18-.02-.28-.02-.04,0-.09,0-.13,0-.1,0-.18.02-.28.02-.09,0-.18-.02-.28-.02-.04,0-.09,0-.13,0-.1,0-.18.02-.28.02-.09,0-.18-.02-.28-.02-.04,0-.09,0-.13,0-.1,0-.18.02-.28.02-.09,0-.18-.02-.28-.02-.04,0-.09,0-.13,0h0Z"/>
            <path id="J-6" data-name="J" class="cls-67" d="M12.75,8.95s-.09,0-.13.01v.02s.19-.02.19-.02c.09,0,.18.02.28.02h.13c.1,0,.18-.02.28-.02.09,0,.18.02.28.02h.13c.1,0,.18-.02.28-.02.09,0,.18.02.28.02h.13c.1,0,.18-.02.28-.02.09,0,.18.02.28.02h.13c.1,0,.18-.02.28-.02.07,0,.14.01.21.02v-.03s-.14,0-.14,0c-.04,0-.09,0-.13,0-.1,0-.18.02-.28.02-.09,0-.18-.02-.28-.02-.04,0-.09,0-.13,0-.1,0-.18.02-.28.02-.09,0-.18-.02-.28-.02-.04,0-.09,0-.13,0-.1,0-.18.02-.28.02-.09,0-.18-.02-.28-.02-.04,0-.09,0-.13,0-.1,0-.18.02-.28.02-.09,0-.18-.02-.28-.02-.04,0-.09,0-.13,0h0Z"/>
          </g>
          <g id="I-3" data-name="I">
            <path id="J-7" data-name="J" class="cls-74" d="M12.75,8.92s-.09,0-.13.01v.02s.19-.02.19-.02c.09,0,.18.02.28.02h.13c.1,0,.18-.02.28-.02.09,0,.18.02.28.02h.13c.1,0,.18-.02.28-.02.09,0,.18.02.28.02h.13c.1,0,.18-.02.28-.02.09,0,.18.02.28.02h.13c.1,0,.18-.02.28-.02.07,0,.14.01.21.02v-.03s-.14,0-.14,0c-.04,0-.09,0-.13,0-.1,0-.18.02-.28.02-.09,0-.18-.02-.28-.02-.04,0-.09,0-.13,0-.1,0-.18.02-.28.02-.09,0-.18-.02-.28-.02-.04,0-.09,0-.13,0-.1,0-.18.02-.28.02-.09,0-.18-.02-.28-.02-.04,0-.09,0-.13,0-.1,0-.18.02-.28.02-.09,0-.18-.02-.28-.02-.04,0-.09,0-.13,0h0Z"/>
            <path id="J-8" data-name="J" class="cls-46" d="M12.75,8.89s-.09,0-.13.01v.02s.19-.02.19-.02c.09,0,.18.02.28.02h.13c.1,0,.18-.02.28-.02.09,0,.18.02.28.02h.13c.1,0,.18-.02.28-.02.09,0,.18.02.28.02h.13c.1,0,.18-.02.28-.02.09,0,.18.02.28.02h.13c.1,0,.18-.02.28-.02.07,0,.14.01.21.02v-.03s-.14,0-.14,0c-.04,0-.09,0-.13,0-.1,0-.18.02-.28.02-.09,0-.18-.02-.28-.02-.04,0-.09,0-.13,0-.1,0-.18.02-.28.02-.09,0-.18-.02-.28-.02-.04,0-.09,0-.13,0-.1,0-.18.02-.28.02-.09,0-.18-.02-.28-.02-.04,0-.09,0-.13,0-.1,0-.18.02-.28.02-.09,0-.18-.02-.28-.02-.04,0-.09,0-.13,0h0Z"/>
            <path id="J-9" data-name="J" class="cls-75" d="M12.75,8.86s-.09,0-.13.01v.02s.19-.02.19-.02c.09,0,.18.02.28.02h.13c.1,0,.18-.02.28-.02.09,0,.18.02.28.02h.13c.1,0,.18-.02.28-.02.09,0,.18.02.28.02h.13c.1,0,.18-.02.28-.02.09,0,.18.02.28.02h.13c.1,0,.18-.02.28-.02.07,0,.14.01.21.02v-.03s-.14,0-.14,0c-.04,0-.09,0-.13,0-.1,0-.18.02-.28.02-.09,0-.18-.02-.28-.02-.04,0-.09,0-.13,0-.1,0-.18.02-.28.02-.09,0-.18-.02-.28-.02-.04,0-.09,0-.13,0-.1,0-.18.02-.28.02-.09,0-.18-.02-.28-.02-.04,0-.09,0-.13,0-.1,0-.18.02-.28.02-.09,0-.18-.02-.28-.02-.04,0-.09,0-.13,0h0Z"/>
          </g>
          <path class="cls-47" d="M12.85,8.72h0s2.66,0,2.66,0h0s-2.65,0-2.65,0ZM12.84,8.73h0s2.67,0,2.67,0h0s-2.66,0-2.66,0h0ZM12.84,8.74h0s2.69.01,2.69.01h0s-2.68-.01-2.68-.01h0ZM12.83,8.75h0s2.71.01,2.71.01h0s-2.69-.01-2.69-.01h0ZM12.82,8.77h0s2.73.01,2.73.01h0s-2.72-.01-2.72-.01ZM12.8,8.79h0s2.75.01,2.75.01h0s-2.74-.01-2.74-.01ZM12.79,8.81h0s2.78.01,2.78.01h0s-2.76-.01-2.76-.01ZM12.78,8.83v.02s2.79,0,2.79,0v-.02h-2.79ZM12.96,8.85c.1.02.11,0,.11,0h-.11ZM15.27,8.85s0,.02.11,0h-.11Z"/>
        </g>
        <g>
          <g id="K">
            <path class="cls-41" d="M15.04,8.42s-.06.02-.06.02c-.08.3-.33.6-.64.6h-.23v.31h1.74l-.18-.31c-.28-.04-.5-.32-.57-.6,0,0-.02-.02-.06-.02h0Z"/>
            <path class="cls-39" d="M15.04,8.43s-.04,0-.04.01c0,0,0,0,0,0,0,0,0,0,0,0-.04.15-.12.3-.24.42-.11.12-.26.19-.41.19h-.22v.28h1.73l-.16-.29c-.13-.02-.25-.09-.35-.19-.11-.11-.2-.27-.24-.42h0s0,0,0,0c0,0-.02-.01-.04-.01h0Z"/>
            <path class="cls-56" d="M15.04,8.43s0,0,.01,0v.31c0,.07-.02.12-.06.18-.02.04-.03.03-.07.08-.05.02-.09.03-.15.03-.07.01-.23.02-.31,0,.1-.03.2-.09.28-.17.02-.02.04-.04.06-.07.03-.04.06-.08.09-.13,0-.02.02-.04.03-.05.01-.03.03-.06.04-.08,0,0,0-.02.01-.03,0-.02.01-.04.02-.06,0,0,0,0,0,0s0,0,0,0c0,0,.01,0,.02,0h0s.02,0,.03,0h0Z"/>
            <path class="cls-80" d="M15.02,8.47c-.01.17-.06.37-.19.5-.05.04-.1.07-.16.06.19-.16.31-.4.35-.57Z"/>
            <path class="cls-43" d="M14.87,8.77c-.03.08-.14.19-.25.28-.03,0-.05,0-.08,0,.07,0,.23-.14.33-.29h0Z"/>
          </g>
          <g id="K-2" data-name="K">
            <path class="cls-69" d="M14.61,8.42s-.06.02-.06.02c-.08.3-.33.6-.64.6h-.23v.31h1.74l-.18-.31c-.28-.04-.5-.32-.57-.6,0,0-.02-.02-.06-.02h0Z"/>
            <path class="cls-39" d="M14.61,8.43s-.04,0-.04.01c0,0,0,0,0,0,0,0,0,0,0,0-.04.15-.12.3-.24.42-.11.12-.26.19-.41.19h-.22v.28h1.73l-.16-.29c-.13-.02-.25-.09-.35-.19-.11-.11-.2-.27-.24-.42h0s0,0,0,0c0,0-.02-.01-.04-.01h0Z"/>
            <path class="cls-56" d="M14.61,8.43s0,0,.01,0v.31c0,.07-.02.12-.06.18-.02.04-.03.03-.07.08-.05.02-.09.03-.15.03-.07.01-.23.02-.31,0,.1-.03.2-.09.28-.17.02-.02.04-.04.06-.07.03-.04.06-.08.09-.13,0-.02.02-.04.03-.05.01-.03.03-.06.04-.08,0,0,0-.02.01-.03,0-.02.01-.04.02-.06,0,0,0,0,0,0s0,0,0,0c0,0,.01,0,.02,0h0s.02,0,.03,0h0Z"/>
            <path class="cls-80" d="M14.59,8.47c-.01.17-.06.37-.19.5-.05.04-.1.07-.16.06.19-.16.31-.4.35-.57Z"/>
            <path class="cls-43" d="M14.43,8.77c-.03.08-.14.19-.25.28-.03,0-.05,0-.08,0,.07,0,.23-.14.33-.29h0Z"/>
          </g>
          <g>
            <path class="cls-40" d="M14.24,8.44c.08.3.33.6.64.6h.23v.31h-1.87v-.31s.23,0,.23,0c.31,0,.56-.3.64-.6,0,0,.02-.02.06-.02s.06.02.06.02h0Z"/>
            <path class="cls-39" d="M14.17,8.43s.04,0,.04.01c0,0,0,0,0,0h0c.04.15.12.3.24.42.11.12.26.19.41.19h.22v.28h-1.84v-.28h.22c.16,0,.3-.08.41-.19.11-.11.2-.27.24-.42,0,0,0,0,0,0,0,0,0,0,0,0,0,0,.02-.01.04-.01Z"/>
            <path class="cls-56" d="M14.15,8.43s0,0,0,0h0s-.01,0-.02,0c0,0,0,0,0,0,0,0,0,0,0,0l-.02.06v.03s-.05.08-.05.08c0,.02-.02.04-.03.05-.02.04-.05.09-.09.13-.02.02-.04.05-.06.07-.08.08-.17.14-.28.17.08.02.11,0,.19-.01.06,0,.12-.02.17-.03.04-.05.03-.04.04-.08.03-.06.08-.12.09-.19.05-.09.05-.24.05-.29h0Z"/>
            <path class="cls-80" d="M14.15,8.47c-.01.17-.06.37-.19.5-.05.04-.1.07-.16.06.19-.16.31-.4.35-.57Z"/>
            <path class="cls-43" d="M14,8.77c-.03.08-.14.19-.25.28-.03,0-.05,0-.08,0,.07,0,.23-.14.33-.29h0Z"/>
            <path class="cls-56" d="M14.2,8.44h0s.01,0,.02,0c0,0,0,0,0,0,0,0,0,0,0,0l.02.06v.03s.05.08.05.08l.03.05s.05.09.09.13c.02.02.04.05.06.07.08.08.17.15.28.18-.21,0-.29-.02-.37-.11s-.1-.14-.12-.2-.06-.19-.05-.31h0Z"/>
            <path class="cls-80" d="M14.22,8.47c.01.17.06.34.19.47.05.04.1.07.16.06-.21-.14-.31-.36-.35-.54h0Z"/>
          </g>
          <g id="L">
            <path class="cls-82" d="M13.74,8.42s-.06.02-.06.02c-.07.28-.34.63-.61.67l-.14.23h1.39v-.32c-.25-.07-.45-.33-.52-.59,0,0-.01-.02-.06-.02h0Z"/>
            <path class="cls-39" d="M13.74,8.43s-.04,0-.04.01c0,0,0,0,0,0h0c-.04.15-.13.3-.23.43s-.28.24-.4.26l-.12.21h1.36v-.3c-.1-.03-.19-.09-.27-.17-.11-.11-.2-.27-.24-.42,0,0,0,0,0,0,0,0,0,0,0,0,0,0-.02-.01-.04-.01h0Z"/>
            <path class="cls-42" d="M13.7,8.47c-.02.26-.16.58-.32.64-.05.02-.14.02-.18.03.28-.13.45-.45.5-.66Z"/>
            <path class="cls-56" d="M13.74,8.43s0,0-.01,0v.31c0,.07.02.12.06.18,0,0,0,.01,0,.01.01.03.02.04.06.08.14.11.32.12.42.11-.03-.03-.07-.05-.1-.07.05,0,.09,0,.13-.01-.1-.03-.2-.09-.28-.17-.01-.01-.03-.03-.04-.04l-.02-.02s-.06-.08-.09-.13c0-.02-.02-.04-.03-.05-.02-.04-.03-.07-.05-.11,0-.02-.01-.04-.02-.06,0,0,0,0,0,0s0,0,0,0c0,0-.01,0-.02,0h0s-.02,0-.03,0h0Z"/>
            <path class="cls-49" d="M13.76,8.47c.01.17.06.37.19.5.05.04.1.07.16.06-.19-.16-.31-.4-.35-.57Z"/>
            <path class="cls-43" d="M13.88,8.71c.07.17.24.32.41.42.03,0,.04,0,.07,0-.13-.07-.33-.16-.48-.42Z"/>
          </g>
          <g id="L-2" data-name="L">
            <path class="cls-71" d="M13.3,8.42s-.06.02-.06.02c-.07.28-.34.63-.61.67l-.14.23h1.39v-.32c-.25-.07-.45-.33-.52-.59,0,0-.01-.02-.06-.02h0Z"/>
            <path class="cls-39" d="M13.3,8.43s-.04,0-.04.01c0,0,0,0,0,0h0c-.04.15-.13.3-.23.43s-.28.24-.4.26l-.12.21h1.36v-.3c-.1-.03-.19-.09-.27-.17-.11-.11-.2-.27-.24-.42,0,0,0,0,0,0,0,0,0,0,0,0,0,0-.02-.01-.04-.01h0Z"/>
            <path class="cls-42" d="M13.27,8.47c-.02.26-.16.58-.32.64-.05.02-.14.02-.18.03.28-.13.45-.45.5-.66Z"/>
            <path class="cls-56" d="M13.3,8.43s0,0-.01,0v.31c0,.07.02.12.06.18,0,0,0,.01,0,.01.01.03.02.04.06.08.14.11.32.12.42.11-.03-.03-.07-.05-.1-.07.05,0,.09,0,.13-.01-.1-.03-.2-.09-.28-.17-.01-.01-.03-.03-.04-.04l-.02-.02s-.06-.08-.09-.13c0-.02-.02-.04-.03-.05-.02-.04-.03-.07-.05-.11,0-.02-.01-.04-.02-.06,0,0,0,0,0,0s0,0,0,0c0,0-.01,0-.02,0h0s-.02,0-.03,0h0Z"/>
            <path class="cls-80" d="M13.32,8.47c.01.17.06.37.19.5.05.04.1.07.16.06-.19-.16-.31-.4-.35-.57Z"/>
            <path class="cls-43" d="M13.44,8.71c.07.17.24.32.41.42.03,0,.04,0,.07,0-.13-.07-.33-.16-.48-.42Z"/>
          </g>
        </g>
        <path class="cls-55" d="M15.77,9.2s-.13,0-.18,0h-.04s-.06.01-.09,0c-.1,0-.19.03-.29.03s-.18-.03-.29-.03c-.03,0-.06,0-.09,0-.1,0-.19.03-.29.03s-.18-.03-.29-.03c-.03,0-.06,0-.09,0-.1,0-.19.03-.29.03s-.18-.03-.29-.03c0,0-.01,0-.02,0h-.02s0,0,0,0c0,0,0,0-.01,0,0,0,0,0-.01,0h-.02c-.1,0-.19.03-.29.03s-.18-.03-.29-.03c0,0-.01,0-.02,0,0,0,0,0-.01,0,0,0,0,0-.01,0,0,0,0,0-.01,0,0,0-.01,0-.02,0h-.02c-.08,0-.18.02-.25.02l-.18.31h1.79s1.82,0,1.82,0l-.2-.34Z"/>
        <path class="cls-87" d="M15.53,9.16h-.02c-.09,0-.16.03-.32.03s-.18-.03-.36-.02c-.17,0-.24.04-.33.03s-.24-.02-.35,0-.25.04-.34.04c-.11,0-.22-.02-.34,0s-.17.04-.31.04c-.12,0-.26-.02-.36-.02-.1,0-.21.03-.29.04l-.02.04c.06,0,.24-.03.31-.04.07,0,.3.01.43,0s.15-.03.3-.03c.11,0,.19.01.3.01.07,0,.13-.04.24-.04h.08c.09-.02.24,0,.34,0,.09,0,.15-.02.25-.02h.13c.1,0,.18.01.27.01.09,0,.18-.03.28-.03h.13c.06,0,.17,0,.23.01l-.02-.04c-.07,0-.15-.02-.23-.02h0Z"/>
        <g id="M">
          <path id="N" class="cls-76" d="M12.76,9.49c-.1,0-.18.02-.27.03-.03,0-.07,0-.1,0v.02s.03,0,.03,0h.13c.1,0,.18-.02.27-.03.09,0,.18.03.27.03h.13c.1,0,.18-.02.27-.03.09,0,.18.03.27.03h.13c.1,0,.18-.02.27-.03.09,0,.18.03.27.03h.13c.1,0,.18-.02.27-.03.09,0,.18.03.27.03h.13c.1,0,.18-.02.27-.03.09,0,.18.03.27.03h.18s-.01-.02-.01-.02h-.09c-.09,0-.18-.02-.27-.02-.04,0-.08,0-.13,0-.1,0-.18.02-.27.03-.09,0-.18-.03-.27-.03-.04,0-.08,0-.13,0-.1,0-.18.02-.27.03-.09,0-.18-.03-.27-.03-.04,0-.09,0-.13,0-.1,0-.18.02-.27.03-.09,0-.18-.03-.27-.03-.04,0-.08,0-.13,0-.1,0-.18.02-.27.03-.09,0-.18-.03-.27-.03-.04,0-.09,0-.13,0h0Z"/>
          <path id="N-2" data-name="N" class="cls-70" d="M12.76,9.45c-.1,0-.18.02-.27.03-.03,0-.07,0-.1,0v.02s.03,0,.03,0h.13c.1,0,.18-.02.27-.03.09,0,.18.03.27.03h.13c.1,0,.18-.02.27-.03.09,0,.18.03.27.03h.13c.1,0,.18-.02.27-.03.09,0,.18.03.27.03h.13c.1,0,.18-.02.27-.03.09,0,.18.03.27.03h.13c.1,0,.18-.02.27-.03.09,0,.18.03.27.03h.18s-.01-.02-.01-.02h-.09c-.09,0-.18-.02-.27-.02-.04,0-.08,0-.13,0-.1,0-.18.02-.27.03-.09,0-.18-.03-.27-.03-.04,0-.08,0-.13,0-.1,0-.18.02-.27.03-.09,0-.18-.03-.27-.03-.04,0-.09,0-.13,0-.1,0-.18.02-.27.03-.09,0-.18-.03-.27-.03-.04,0-.08,0-.13,0-.1,0-.18.02-.27.03-.09,0-.18-.03-.27-.03-.04,0-.09,0-.13,0h0Z"/>
          <path id="N-3" data-name="N" class="cls-79" d="M12.76,9.42c-.1,0-.18.02-.27.03-.03,0-.07,0-.1,0v.02s.03,0,.03,0h.13c.1,0,.18-.02.27-.03.09,0,.18.03.27.03h.13c.1,0,.18-.02.27-.03.09,0,.18.03.27.03h.13c.1,0,.18-.02.27-.03.09,0,.18.03.27.03h.13c.1,0,.18-.02.27-.03.09,0,.18.03.27.03h.13c.1,0,.18-.02.27-.03.09,0,.18.03.27.03h.18s-.01-.02-.01-.02h-.09c-.09,0-.18-.02-.27-.02-.04,0-.08,0-.13,0-.1,0-.18.02-.27.03-.09,0-.18-.03-.27-.03-.04,0-.08,0-.13,0-.1,0-.18.02-.27.03-.09,0-.18-.03-.27-.03-.04,0-.09,0-.13,0-.1,0-.18.02-.27.03-.09,0-.18-.03-.27-.03-.04,0-.08,0-.13,0-.1,0-.18.02-.27.03-.09,0-.18-.03-.27-.03-.04,0-.09,0-.13,0h0Z"/>
        </g>
        <g id="M-2" data-name="M">
          <path id="N-4" data-name="N" class="cls-64" d="M12.76,9.38c-.1,0-.18.02-.27.03-.03,0-.07,0-.1,0v.02s.03,0,.03,0h.13c.1,0,.18-.02.27-.03.09,0,.18.03.27.03h.13c.1,0,.18-.02.27-.03.09,0,.18.03.27.03h.13c.1,0,.18-.02.27-.03.09,0,.18.03.27.03h.13c.1,0,.18-.02.27-.03.09,0,.18.03.27.03h.13c.1,0,.18-.02.27-.03.09,0,.18.03.27.03h.18s-.01-.02-.01-.02h-.09c-.09,0-.18-.02-.27-.02-.04,0-.08,0-.13,0-.1,0-.18.02-.27.03-.09,0-.18-.03-.27-.03-.04,0-.08,0-.13,0-.1,0-.18.02-.27.03-.09,0-.18-.03-.27-.03-.04,0-.09,0-.13,0-.1,0-.18.02-.27.03-.09,0-.18-.03-.27-.03-.04,0-.08,0-.13,0-.1,0-.18.02-.27.03-.09,0-.18-.03-.27-.03-.04,0-.09,0-.13,0h0Z"/>
          <path id="N-5" data-name="N" class="cls-85" d="M12.76,9.34c-.1,0-.18.02-.27.03-.03,0-.07,0-.1,0v.02s.03,0,.03,0h.13c.1,0,.18-.02.27-.03.09,0,.18.03.27.03h.13c.1,0,.18-.02.27-.03.09,0,.18.03.27.03h.13c.1,0,.18-.02.27-.03.09,0,.18.03.27.03h.13c.1,0,.18-.02.27-.03.09,0,.18.03.27.03h.13c.1,0,.18-.02.27-.03.09,0,.18.03.27.03h.18s-.01-.02-.01-.02h-.09c-.09,0-.18-.02-.27-.02-.04,0-.08,0-.13,0-.1,0-.18.02-.27.03-.09,0-.18-.03-.27-.03-.04,0-.08,0-.13,0-.1,0-.18.02-.27.03-.09,0-.18-.03-.27-.03-.04,0-.09,0-.13,0-.1,0-.18.02-.27.03-.09,0-.18-.03-.27-.03-.04,0-.08,0-.13,0-.1,0-.18.02-.27.03-.09,0-.18-.03-.27-.03-.04,0-.09,0-.13,0h0Z"/>
          <path id="N-6" data-name="N" class="cls-65" d="M12.76,9.31c-.1,0-.18.02-.27.03-.03,0-.07,0-.1,0v.02s.03,0,.03,0h.13c.1,0,.18-.02.27-.03.09,0,.18.03.27.03h.13c.1,0,.18-.02.27-.03.09,0,.18.03.27.03h.13c.1,0,.18-.02.27-.03.09,0,.18.03.27.03h.13c.1,0,.18-.02.27-.03.09,0,.18.03.27.03h.13c.1,0,.18-.02.27-.03.09,0,.18.03.27.03h.18s-.01-.02-.01-.02h-.09c-.09,0-.18-.02-.27-.02-.04,0-.08,0-.13,0-.1,0-.18.02-.27.03-.09,0-.18-.03-.27-.03-.04,0-.08,0-.13,0-.1,0-.18.02-.27.03-.09,0-.18-.03-.27-.03-.04,0-.09,0-.13,0-.1,0-.18.02-.27.03-.09,0-.18-.03-.27-.03-.04,0-.08,0-.13,0-.1,0-.18.02-.27.03-.09,0-.18-.03-.27-.03-.04,0-.09,0-.13,0h0Z"/>
        </g>
        <g id="M-3" data-name="M">
          <path id="N-7" data-name="N" class="cls-45" d="M12.76,9.27c-.1,0-.18.02-.27.03-.03,0-.07,0-.1,0v.02s.03,0,.03,0h.13c.1,0,.18-.02.27-.03.09,0,.18.03.27.03h.13c.1,0,.18-.02.27-.03.09,0,.18.03.27.03h.13c.1,0,.18-.02.27-.03.09,0,.18.03.27.03h.13c.1,0,.18-.02.27-.03.09,0,.18.03.27.03h.13c.1,0,.18-.02.27-.03.09,0,.18.03.27.03h.18s-.01-.02-.01-.02h-.09c-.09,0-.18-.02-.27-.02-.04,0-.08,0-.13,0-.1,0-.18.02-.27.03-.09,0-.18-.03-.27-.03-.04,0-.08,0-.13,0-.1,0-.18.02-.27.03-.09,0-.18-.03-.27-.03-.04,0-.09,0-.13,0-.1,0-.18.02-.27.03-.09,0-.18-.03-.27-.03-.04,0-.08,0-.13,0-.1,0-.18.02-.27.03-.09,0-.18-.03-.27-.03-.04,0-.09,0-.13,0h0Z"/>
          <path id="N-8" data-name="N" class="cls-58" d="M12.76,9.23c-.1,0-.18.02-.27.03-.03,0-.07,0-.1,0v.02s.03,0,.03,0h.13c.1,0,.18-.02.27-.03.09,0,.18.03.27.03h.13c.1,0,.18-.02.27-.03.09,0,.18.03.27.03h.13c.1,0,.18-.02.27-.03.09,0,.18.03.27.03h.13c.1,0,.18-.02.27-.03.09,0,.18.03.27.03h.13c.1,0,.18-.02.27-.03.09,0,.18.03.27.03h.18s-.01-.02-.01-.02h-.09c-.09,0-.18-.02-.27-.02-.04,0-.08,0-.13,0-.1,0-.18.02-.27.03-.09,0-.18-.03-.27-.03-.04,0-.08,0-.13,0-.1,0-.18.02-.27.03-.09,0-.18-.03-.27-.03-.04,0-.09,0-.13,0-.1,0-.18.02-.27.03-.09,0-.18-.03-.27-.03-.04,0-.08,0-.13,0-.1,0-.18.02-.27.03-.09,0-.18-.03-.27-.03-.04,0-.09,0-.13,0h0Z"/>
          <path id="N-9" data-name="N" class="cls-48" d="M12.76,9.2c-.1,0-.18.02-.27.03-.03,0-.07,0-.1,0v.02s.03,0,.03,0h.13c.1,0,.18-.02.27-.03.09,0,.18.03.27.03h.13c.1,0,.18-.02.27-.03.09,0,.18.03.27.03h.13c.1,0,.18-.02.27-.03.09,0,.18.03.27.03h.13c.1,0,.18-.02.27-.03.09,0,.18.03.27.03h.13c.1,0,.18-.02.27-.03.09,0,.18.03.27.03h.18s-.01-.02-.01-.02h-.09c-.09,0-.18-.02-.27-.02-.04,0-.08,0-.13,0-.1,0-.18.02-.27.03-.09,0-.18-.03-.27-.03-.04,0-.08,0-.13,0-.1,0-.18.02-.27.03-.09,0-.18-.03-.27-.03-.04,0-.09,0-.13,0-.1,0-.18.02-.27.03-.09,0-.18-.03-.27-.03-.04,0-.08,0-.13,0-.1,0-.18.02-.27.03-.09,0-.18-.03-.27-.03-.04,0-.09,0-.13,0h0Z"/>
        </g>
        <path class="cls-39" d="M12.58,9.2l-.07.12c.08-.01.2-.05.3-.05.1,0,.23.03.35.03.14,0,.2-.03.31-.04s.23.01.34.02c.09,0,.22-.03.34-.04s.22,0,.36.01.16-.03.33-.04c.18,0,.2.02.36.02.12,0,.22-.02.33-.03s.16,0,.24,0l-.05-.09s0,0,0,0l-2.87.06-.26.03Z"/>
        <path class="cls-55" d="M15.59,9.2h.11s.06.01.08.01h-.01s-.13-.02-.18-.01Z"/>
      </g>
    </g>
    <path class="cls-53" d="M14.17,6.37l-.91,1.58-.93,1.61h1.82s1.86,0,1.86,0l-.91-1.58-.93-1.61ZM14.17,6.46l.89,1.55.87,1.51h-1.79s-1.75,0-1.75,0l.89-1.55.87-1.51Z"/>
  </g>
</svg>